<svg xmlns="http://www.w3.org/2000/svg" id="outfits_1" viewBox="0 0 380 600"><defs transform="matrix(-1, 0, 0, 1, 380, 0)"><style>.cls-1{fill:#ffffff;}.cls-2{fill:#14d8c3;}.cls-3{fill:#f9a;}</style></defs><g id="default" transform="matrix(-1, 0, 0, 1, 380, 0)"><ellipse class="cls-1 color-body" cx="182.666" cy="463" rx="57.576" ry="25.423" style="fill:#ffffff;--backup-fill:#ffffff"></ellipse><path d="M240.211,463c-.114-.271-.144-1.126-.47-2.383a14.723,14.723,0,0,0-2.181-4.591c-2.335-3.468-6.908-6.866-12.274-9.432a75.9,75.9,0,0,0-17.249-5.618,102.7,102.7,0,0,0-14.759-1.964,135.987,135.987,0,0,0-20.584.343,109.734,109.734,0,0,0-20.919,3.9,69.213,69.213,0,0,0-9.97,3.745,40.718,40.718,0,0,0-8.837,5.466,16.685,16.685,0,0,0-5.575,7.735,10.262,10.262,0,0,0,1.424,8.555,22.216,22.216,0,0,0,5.861,5.89,45.647,45.647,0,0,0,7.546,4.254,80.68,80.68,0,0,0,16.634,5.217,127.607,127.607,0,0,0,33.621,2.16c10.8-.726,21.043-2.714,29.867-6.26a41.746,41.746,0,0,0,11.673-6.8,18.979,18.979,0,0,0,3.987-4.717A12.042,12.042,0,0,0,239.673,463a11.351,11.351,0,0,1-.855,5.665,18.9,18.9,0,0,1-3.8,5.7,40.971,40.971,0,0,1-12.386,8.469,77.106,77.106,0,0,1-23.558,6.506,131.781,131.781,0,0,1-14.729.629,134.891,134.891,0,0,1-14.228-.889,101.833,101.833,0,0,1-26.391-6.39,49.651,49.651,0,0,1-11.4-6.334,26.141,26.141,0,0,1-4.635-4.491,15.9,15.9,0,0,1-2.952-5.73,12.105,12.105,0,0,1,.04-6.4,15.806,15.806,0,0,1,2.875-5.539,31.321,31.321,0,0,1,9.217-7.53,61.831,61.831,0,0,1,10.449-4.645,89.063,89.063,0,0,1,10.632-2.939,118.5,118.5,0,0,1,20.785-2.5,123.865,123.865,0,0,1,19.548.826,95.8,95.8,0,0,1,17.875,3.854c5.324,1.679,12.5,4.809,17.609,9.321a26.265,26.265,0,0,1,3.327,3.531,18.324,18.324,0,0,1,2.135,3.632A12.689,12.689,0,0,1,240.211,463Z"></path></g><path class="cls-1 color-body" d="M125.09,463.371c9.04,37.246,43.744,55.977,63.789,54.5,18.518-1.37,41.244-8.937,48.759-28.749,2.676-7.054,3.186-15.453,2-25.746" transform="matrix(-1, 0, 0, 1, 380, 0)" style="fill:#ffffff;--backup-fill:#ffffff"></path><path d="M239.67,463.367a23.523,23.523,0,0,1,.808,4.951,59.335,59.335,0,0,1,.111,10.411,38.5,38.5,0,0,1-2.713,11.776l-1.123,2.624c-.447.806-.878,1.584-1.289,2.324-.208.369-.4.736-.6,1.08l-.662.957c-.426.621-.821,1.2-1.18,1.722a41.708,41.708,0,0,1-10.035,9.529,57.756,57.756,0,0,1-12.839,6.488,78.24,78.24,0,0,1-14,3.625l-3.549.513-3.541.364a37.861,37.861,0,0,1-7.229-.169,51.959,51.959,0,0,1-11.9-2.883,67.683,67.683,0,0,1-10.842-5.082,73.85,73.85,0,0,1-24.222-22.792,76.981,76.981,0,0,1-4.917-8.7,70.281,70.281,0,0,1-5.405-16.6,122.873,122.873,0,0,0,8.063,15.834c1.644,2.69,3.425,5.162,4.976,7.3l2.209,2.876c.684.842,1.251,1.6,1.719,2.219a68.1,68.1,0,0,0,27.676,21.573,48.544,48.544,0,0,0,15.644,3.82c.649.033,1.295.032,1.938.049.643,0,1.28-.047,1.917-.068,1.284-.11,2.567-.232,3.832-.367,1.261-.183,2.516-.332,3.751-.54,1.23-.235,2.459-.429,3.661-.7,9.624-2.051,18.282-5.769,24.919-11.1a40.059,40.059,0,0,0,8.31-8.952,39.093,39.093,0,0,0,2.748-5.1,30.2,30.2,0,0,0,1.942-5.26,58.2,58.2,0,0,0,1.858-12.467C239.9,468.331,239.707,464.592,239.67,463.367Z" transform="matrix(-1, 0, 0, 1, 380, 0)"></path><g data-name="default" id="default-2" transform="matrix(-1, 0, 0, 1, 380, 0)"><path class="cls-1 color-body" d="M125.09,465.174c5.8,23.743,18.27,52.938,19.509,54.494-3.335,2.573-6.523,8.2-8.277,11.353-2.445,4.392-3.01,9.99-.8,14.507,3.815,7.814,14.166,9.864,22.608,8.131,9.719-2,16.627-7.8,22.451-15.923,4.489-6.264,4.1-13.863,4.542-21.582.415-2.34.386-19.372.381-22.154" style="fill:#ffffff;--backup-fill:#ffffff"></path><path d="M185.561,494c.386.46.657,3.337.839,7.408.091,2.035.159,4.37.2,6.853.011,1.244.022,2.524.032,3.821-.014,1.314.006,2.6-.12,4.032l-.012.154c-.1,3.19-.061,6.448-.27,9.448a37.1,37.1,0,0,1-1.272,7.843,21.224,21.224,0,0,1-1.4,3.6c-.271.6-.629,1.155-.963,1.732-.339.556-.675,1.04-1.017,1.566a49.128,49.128,0,0,1-4.715,5.977,35.163,35.163,0,0,1-13.226,9.085,31.677,31.677,0,0,1-16.47,1.866,23.979,23.979,0,0,1-8.214-2.871,17.772,17.772,0,0,1-6.436-6.437,17.343,17.343,0,0,1-2.33-8.782,20.948,20.948,0,0,1,1.812-8.54c.276-.645.657-1.357.953-1.9l.892-1.579c.608-1.056,1.241-2.111,1.914-3.155s1.384-2.078,2.162-3.1c.387-.509.8-1.015,1.227-1.517l.58-.646.016,0a.222.222,0,0,0,.044-.014l.008-.038v-.014l0,0c0-.009.02.037-.032-.08l-.426-.965-.8-1.9q-.759-1.894-1.508-3.763-1.452-3.741-2.75-7.4c-1.731-4.875-3.28-9.625-4.622-14.212a181.747,181.747,0,0,1-5.679-25.02c2.771,4.383,6.071,10.809,9.048,16.9,2.958,6.094,5.551,11.869,6.454,15.082.95,3.429,1.978,6.777,3.045,10.047q.805,2.451,1.652,4.83.435,1.182.864,2.353l.443,1.151.31.757c.127.315.3.617.39.932,0,.853-.018,1.774.039,2.336a3.848,3.848,0,0,1-.357.968l-.427,1.167c-.383.357-.805.71-1.146,1.062-.205.217-.419.418-.619.649q-.611.668-1.187,1.394c-.77.963-1.5,1.98-2.192,3.019s-1.358,2.1-2,3.181c-.338.562-.619,1.041-.875,1.542a15.855,15.855,0,0,0-.684,1.552c-1.609,4.224-1.24,9.115,1.388,12.434A12.872,12.872,0,0,0,143,550.7a19.845,19.845,0,0,0,6.082,1.717A26.9,26.9,0,0,0,161.268,551a30.356,30.356,0,0,0,10.006-5.917,47.144,47.144,0,0,0,7.375-8.4,20.869,20.869,0,0,0,3.478-9.274c.51-3.332.617-6.766.9-10.168.024-.333.049-.676.086-1.186.01-.081.033-.3.048-.351.12-.774.213-1.793.314-2.82s.207-2.124.314-3.223c.231-2.209.468-4.48.688-6.6C184.942,498.831,185.385,495.226,185.561,494Z"></path></g><path class="cls-2" d="M182.666,488.423c-24.486,0-44.616-7.377-53.486-16.45-.96-.982-1.458-2.853-2.476-3,10.983,33.51,43.163,50.3,62.175,48.892,18.518-1.369,41.244-8.936,48.759-28.748,2.457-6.478,3.07-14.111,2.239-23.284C236.685,478.54,212.294,488.423,182.666,488.423Z" transform="matrix(-1, 0, 0, 1, 380, 0)"></path><path d="M182.666,488.393c1.136-.341,11.975-.276,24.289-2.96a77.775,77.775,0,0,0,18.173-6.128,39.59,39.59,0,0,0,7.388-4.682A25.888,25.888,0,0,0,235.3,472q.288-.343.568-.676l.144-.172c.087-.1.152-.183.218-.271l.379-.571q.377-.576.739-1.13a4.387,4.387,0,0,0,.343-.729q.166-.395.331-.78a4.692,4.692,0,0,0,.584-.318l.364-.3c.1-.087.223-.17.306-.259l.2-.274.2-.279c.041-.1.083-.2.128-.3.087-.531.271.08.444.327a1.845,1.845,0,0,0,.372.472l.475.484c.095,1.237.206,2.478.251,3.831.031.662.067,1.342.064,2.026,0,.44.02.881.011,1.324a53.175,53.175,0,0,1-.262,5.356,38.1,38.1,0,0,1-2.538,10.712q-.554,1.288-1.11,2.583c-.4.851-.9,1.648-1.355,2.476l-.7,1.233c-.262.393-.545.772-.817,1.159-.559.762-1.082,1.559-1.679,2.294a46.111,46.111,0,0,1-8.3,7.769,60.493,60.493,0,0,1-9.874,5.572,76.721,76.721,0,0,1-10.622,3.662,88.059,88.059,0,0,1-10.884,2.092c-.906.145-1.821.2-2.728.3l-1.36.135c-.458.037-.939.028-1.407.043-.941.013-1.883.047-2.816.037l-2.762-.244a57.506,57.506,0,0,1-19.415-5.977,74.262,74.262,0,0,1-16.41-11.254,76.215,76.215,0,0,1-12.676-14.671c-.905-1.312-1.636-2.728-2.454-4.077q-.592-1.024-1.183-2.044-.5-1.065-1.006-2.124L127.433,476c-.248-.611-.455-1.192-.683-1.786-.1-.286-.238-.61-.318-.864l-.1-.574q-.412-2.285-.822-4.544l-.209-1.123-.052-.281a1.316,1.316,0,0,1,.3.068,3.165,3.165,0,0,1,.385.131c.3.14.19.207.3.324a.466.466,0,0,0,.139.1.969.969,0,0,0,.132.064,2.693,2.693,0,0,1,.246.129l1.23.677,1.221.677c.08.012.247.205.4.369l.457.488.91.971,1.8,1.923.895.952.4.315.354.247,1.691,1.2c1.181.719,2.319,1.491,3.545,2.115a73.144,73.144,0,0,0,14.844,6,115.839,115.839,0,0,0,28.164,4.285,93.826,93.826,0,0,1-13.77.33,89.039,89.039,0,0,1-15.985-2.245,68.566,68.566,0,0,1-14.527-5.118l-1.538-.773-1.436-.83a29.743,29.743,0,0,1-2.6-1.656l-.593-.407.03.02a.035.035,0,0,0,0-.01.475.475,0,0,0-.044-.085c-.049-.079-.134-.188-.224-.347-.062-.146-.3-.406-.284-.33-.052.017-.063.213.03.534l.087.261.053.149.3.671a28.654,28.654,0,0,0,1.334,2.754l1.5,2.651a28.137,28.137,0,0,0,1.556,2.6,71.7,71.7,0,0,0,15.822,17.427,68.818,68.818,0,0,0,19.581,10.944,23.745,23.745,0,0,0,2.6.829l2.611.744,2.64.515,1.315.255c.438.078.882.1,1.322.145l2.636.254c.875.015,1.748-.016,2.618-.02.435-.012.867,0,1.3-.031l1.313-.122c.873-.094,1.748-.139,2.61-.271a88.451,88.451,0,0,0,10.141-1.865c1.625-.479,3.273-.849,4.843-1.421l2.365-.8,2.3-.92,1.142-.461,1.109-.525,2.2-1.045,2.112-1.18,1.05-.586,1-.656,1.987-1.311c.634-.469,1.244-.966,1.865-1.445a41.857,41.857,0,0,0,3.487-3.087,36.241,36.241,0,0,0,9.021-15.246,42.361,42.361,0,0,0,1.433-8.465c.109-1.413.151-2.825.152-4.228l0-.691-.014-.481-.043-.946c-.021-.3-.043-.6-.064-.894l-.038-.435-.009-.107,0-.054-.016.052-.064.21a5.931,5.931,0,0,1-.711,1.538,5.771,5.771,0,0,1-.393.567c-.065.085-.145.2-.2.258l-.511.588a25.1,25.1,0,0,1-2.268,2.232,35.65,35.65,0,0,1-4.972,3.578,56.416,56.416,0,0,1-10.536,4.829,89.413,89.413,0,0,1-21.123,4.336A118.7,118.7,0,0,1,182.666,488.393Z" transform="matrix(-1, 0, 0, 1, 380, 0)"></path><g data-name="default" id="default-3" transform="matrix(-1, 0, 0, 1, 380, 0)"><path class="cls-1 color-body" d="M235.786,491.7c-8.611,2.549-17.248,5.108-25.479,8.7-7.011,3.058-13.936,6.888-19.673,12-2.932,2.614-.16,5.293.556,8.6a48.036,48.036,0,0,1,.759,5.437c.1,1.027,1.029,4.506.557,5.33C189.5,537,186.5,544,187.1,551.2c.9,10.771,7.485,16.831,17.718,17.24,7.847.315,16.58-3.8,21.823-9.859,6.039-6.977,8.861-14.58,9.651-24.01.21-14.57.949-26.807-.788-42.922" style="fill:#ffffff;--backup-fill:#ffffff"></path><path d="M235.532,491.644c.4.815,1.473,8.962,1.677,18.451.136,4.74.1,9.8.059,14.415-.015,2.305-.029,4.5-.042,6.5s.055,3.807-.115,5.362c-.728,10.636-5.8,22.5-16.184,29.123a31.988,31.988,0,0,1-8.216,3.705,25.779,25.779,0,0,1-9.052.97,21.253,21.253,0,0,1-8.82-2.438A17.676,17.676,0,0,1,191.066,565a18.422,18.422,0,0,1-1.553-1.724l-.7-.915-.608-.97a21.768,21.768,0,0,1-2.8-7.808,26.474,26.474,0,0,1-.092-8.128,34.934,34.934,0,0,1,2.06-7.648c.478-1.21.989-2.4,1.557-3.545q.422-.863.871-1.7l.453-.836.4-.712,0,0c0-.017,0,.032,0-.041s0-.119-.006-.206a10.522,10.522,0,0,0-.123-1.065c-.116-.774-.284-1.558-.441-2.46l-.058-.383-.042-.381-.058-.62-.125-1.22c-.089-.8-.192-1.59-.324-2.356a11.028,11.028,0,0,0-.52-2.079c-.244-.689-.573-1.422-.892-2.275a7.927,7.927,0,0,1-.6-3.133,5.236,5.236,0,0,1,1.512-3.318,11.8,11.8,0,0,1,1.034-.936c.316-.27.633-.537.958-.792.64-.523,1.3-1.016,1.95-1.507q1.979-1.449,4.013-2.712a78.081,78.081,0,0,1,8.211-4.428,120.087,120.087,0,0,1,16.059-6.047c5.139-1.559,9.984-2.792,14.419-3.9-5.107,2.383-12.774,5.331-19.753,8.509-3.49,1.586-6.813,3.227-9.635,4.75s-5.155,2.9-6.767,3.833a56,56,0,0,0-6.292,4.191c-.5.371-.971.775-1.456,1.161a3.02,3.02,0,0,0-.744.881,3.551,3.551,0,0,0,.319,2.566,22.538,22.538,0,0,1,1.231,3.777c.24,1.284.38,2.55.491,3.789q.075.9.148,1.8c.057.494.18,1.129.278,1.722s.2,1.22.262,1.869a9.124,9.124,0,0,1,.047,1.039,2.885,2.885,0,0,1-.326,1.323l-.583,1-.528.945c-.34.634-.672,1.27-.985,1.912a41.9,41.9,0,0,0-1.666,3.906,28.529,28.529,0,0,0-1.753,8.055c-.237,5.355,1.124,10.931,4.7,14.568a15,15,0,0,0,6.323,3.885,22.349,22.349,0,0,0,7.284,1.019,27.46,27.46,0,0,0,13.42-4.339,28.538,28.538,0,0,0,5.3-4.279,38.388,38.388,0,0,0,4.094-5.261A37.01,37.01,0,0,0,234,542.059a49.51,49.51,0,0,0,1.031-6.06q.072-.741.145-1.477.012-.761.024-1.516.03-1.524.06-3.025.165-6.025.32-11.709c.095-4.334.286-10.242.253-15.447S235.589,493.123,235.532,491.644Z"></path></g><path class="cls-3 color-shoes" d="M185.6,528.176c-.32-2.2-2.71-3.478-3.571-1.057a74.446,74.446,0,0,1-10.753,15.73c-4.608,5.321-9.545,9.131-16.1,9.732-4.151,1.966-27.878-5.557-20.891,3.758C152.13,574,185.667,549.283,185.6,528.176Z" transform="matrix(-1, 0, 0, 1, 380, 0)"></path><path d="M185.625,528.176a11.807,11.807,0,0,1-.009,4.052,27.942,27.942,0,0,1-2.572,8,40.276,40.276,0,0,1-5.327,8.113,52.6,52.6,0,0,1-5.563,5.7,42.866,42.866,0,0,1-9.137,6.316,34.057,34.057,0,0,1-11.2,3.5,26.216,26.216,0,0,1-6.076,0,21.763,21.763,0,0,1-5.924-1.6,21.11,21.11,0,0,1-2.738-1.387,15.028,15.028,0,0,1-1.267-.848,14.784,14.784,0,0,1-1.221-.9l-1.134-.991a6.509,6.509,0,0,1-.684-.646l-.517-.738a6.316,6.316,0,0,1-.441-.733l-.21-.388c-.068-.144-.13-.366-.2-.546l-.194-.569a3.958,3.958,0,0,1-.093-.641,3.627,3.627,0,0,1,.1-1.289,3.391,3.391,0,0,1,1.288-1.81,3.834,3.834,0,0,1,.98-.556c.168-.071.351-.144.513-.2l.383-.1a12.358,12.358,0,0,1,2.79-.327,40.693,40.693,0,0,1,4.956.258c3.182.317,6.28.81,9.2,1.032.721.049,1.43.076,2.062.054a6.1,6.1,0,0,0,.78-.091.231.231,0,0,0,.094-.026c.1-.016.336-.108.5-.146.491-.1.548-.074.737-.1a16.96,16.96,0,0,0,3.933-.921,22.121,22.121,0,0,0,6.865-4.207,56.936,56.936,0,0,0,5.648-5.813q2.629-3.015,4.822-6.031c1.461-2.017,2.746-3.994,3.928-6q.246-.438.49-.871c.072-.134.169-.295.276-.467a1.948,1.948,0,0,1,.336-.458,2.33,2.33,0,0,1,.873-.636,2.087,2.087,0,0,1,1.06-.1,3.337,3.337,0,0,1,2.42,3.031,3.056,3.056,0,0,0-2.331-2.2,1.346,1.346,0,0,0-1.285.871,6.745,6.745,0,0,0-.244.772l-.275.813a49.461,49.461,0,0,1-3.244,7.113,54.49,54.49,0,0,1-4.023,6.217,33.882,33.882,0,0,1-3.529,4.132,35.706,35.706,0,0,1-6.3,4.9,21.717,21.717,0,0,1-7.323,2.773c-.636.108-1.27.2-1.905.241-.477.049-.079-.027-.709.153a7.272,7.272,0,0,1-1.067.139,22.415,22.415,0,0,1-3.726-.184c-2.367-.275-4.64-.647-6.876-.944a43.51,43.51,0,0,0-6.539-.51,5.424,5.424,0,0,0-2.59.542.938.938,0,0,0-.366.862,2.757,2.757,0,0,0,.418,1.094,4.65,4.65,0,0,0,.387.615l.192.281c.037.075.117.119.207.207l1.135,1.013a11.3,11.3,0,0,0,1.2.912,10.628,10.628,0,0,0,1.241.828,19.545,19.545,0,0,0,5.382,2.21,22.873,22.873,0,0,0,5.623.548,26.786,26.786,0,0,0,5.444-.777,35.369,35.369,0,0,0,9.7-4.028A48.543,48.543,0,0,0,178.839,544a39.844,39.844,0,0,0,5.01-8.691q.234-.6.457-1.168c.133-.387.239-.77.355-1.139a17.176,17.176,0,0,0,.533-2.074,12.3,12.3,0,0,0,.286-1.666C185.543,528.79,185.592,528.42,185.625,528.176Z" transform="matrix(-1, 0, 0, 1, 380, 0)"></path><path class="cls-3 color-shoes" d="M236.461,528.3c-2.306,9.3-3.678,22.841-14.107,31.249-10.016,11.44-32.583,10.847-36.035-5.84C184.837,590.868,252.08,570.85,236.461,528.3Z" transform="matrix(-1, 0, 0, 1, 380, 0)"></path><path d="M236.49,528.29a18.22,18.22,0,0,1,1.776,4.683,32.645,32.645,0,0,1,.909,4.688,33.46,33.46,0,0,1,.15,5.672,30.406,30.406,0,0,1-3.19,11.647,35.28,35.28,0,0,1-5.723,8.141,36.88,36.88,0,0,1-11.139,8.184,34.849,34.849,0,0,1-14.085,3.56,24.935,24.935,0,0,1-7.5-.888,18.6,18.6,0,0,1-6.856-3.565,16.859,16.859,0,0,1-4.632-6.2,21.972,21.972,0,0,1-1.761-7.238c-.029-.565-.073-1.132-.085-1.691,0-.558.006-1.111.008-1.654l3.87-.319a14.517,14.517,0,0,0,5.028,8.408,17.388,17.388,0,0,0,9.21,3.521,22.8,22.8,0,0,0,18.01-6.237l.409-.419.1-.1a2.5,2.5,0,0,1,.237-.234l.311-.267.908-.771a20.442,20.442,0,0,0,1.711-1.628,28.415,28.415,0,0,0,2.936-3.611,38.6,38.6,0,0,0,4.129-8.028c2.121-5.51,3.228-10.988,4.683-15.78-.329,4.675-.675,11.437-2.565,17.788a33.611,33.611,0,0,1-3.824,8.579,15.644,15.644,0,0,1-1.179,1.7c-.411.519-.774,1.037-1.18,1.472a20.093,20.093,0,0,1-2.2,2.149l-1.31,1.059c.106-.123-.195.177-.384.363l-.609.6A24.868,24.868,0,0,1,214.2,566.9a26.922,26.922,0,0,1-12.3,1.4,20.05,20.05,0,0,1-10.843-4.651,17.494,17.494,0,0,1-5.518-9.775l1.565-.129a20.96,20.96,0,0,0,1.792,10.033,14.351,14.351,0,0,0,6.764,6.694,20.622,20.622,0,0,0,9.118,1.872,31.173,31.173,0,0,0,8.922-1.451c11.348-3.594,19.688-12.053,22.743-21.3a33.764,33.764,0,0,0,1.355-5.764,33.385,33.385,0,0,0,.269-6.5A42.485,42.485,0,0,0,236.49,528.29Z" transform="matrix(-1, 0, 0, 1, 380, 0)"></path><path class="cls-3 color-shoes" d="M229.569,545.755c.071-4.972-5.986-10.063-5.986-10.063,2.674-4.33,5.914-7.127,5.305-12.349-.891-7.642-12.355-8.534-15.285-5.731-3.354,3.208-3.248,8.915-1.838,15.87l-8.827.378c-.542-6.6-.772-9.642-3.925-14.025-2.567-3.568-6.653-3.271-10.7-2.165-10.79,4.31-2.8,12.45,2.533,17.9-11.791,13.976-7.769,30.7,13.12,31.716C214.275,567.784,229.314,563.715,229.569,545.755Z" transform="matrix(-1, 0, 0, 1, 380, 0)"></path><path d="M229.615,545.756a6.6,6.6,0,0,1,.185,1.867,13.079,13.079,0,0,1-.036,1.771c-.09.67-.191,1.416-.3,2.226s-.426,1.657-.665,2.574a7.91,7.91,0,0,1-.515,1.369l-.62,1.417a18.914,18.914,0,0,1-4.129,5.341,21.294,21.294,0,0,1-6.118,3.858,30.191,30.191,0,0,1-6.842,1.952,38.921,38.921,0,0,1-11.695.044,23.736,23.736,0,0,1-7.858-2.469,16.872,16.872,0,0,1-6.532-5.96,16.692,16.692,0,0,1-2.465-8.827,19.808,19.808,0,0,1,.489-4.556,23.623,23.623,0,0,1,1.362-4.316,29.942,29.942,0,0,1,2.02-3.993c.4-.623.776-1.266,1.213-1.859a1.75,1.75,0,0,0,.138-.2l.035-.061.07-.112c.1-.074-.061-.131-.108-.188l-.1-.08-.651-.672c-.98-1.025-1.946-2.1-2.864-3.276a19.955,19.955,0,0,1-2.492-3.988,9.3,9.3,0,0,1-.835-5.594,8.372,8.372,0,0,1,3.21-4.94,13.076,13.076,0,0,1,2.11-1.341c.354-.194.705-.36,1.055-.509l.636-.281c.152-.06.308-.088.451-.13l.269-.073a22.415,22.415,0,0,1,3.727-.7,12.379,12.379,0,0,1,4.277.308,9.514,9.514,0,0,1,4.91,3.127c.229.285.5.614.649.843.354.493.691,1.014,1.021,1.544a19.655,19.655,0,0,1,2.589,7.1c.2,1.181.327,2.312.433,3.414l.033.358v0l0,0-.006.012a.033.033,0,0,0,.011.011l0,0,.477-.017,1.11-.04.962-.033.022.008.067.017.011-.039.005-.027,0-.017c0-.016.008.033-.021-.179a35.338,35.338,0,0,1-.294-3.69,17.186,17.186,0,0,1,1.376-7.813,10.972,10.972,0,0,1,1.127-1.874,7.788,7.788,0,0,1,.71-.849,5.939,5.939,0,0,1,.887-.822,7.268,7.268,0,0,1,2.234-1.187l1.046-.3,1-.168a15.967,15.967,0,0,1,7.451.839A11.2,11.2,0,0,1,229.8,519.3l.257.425.19.46.357.922a14.814,14.814,0,0,1,.389,1.883,12.446,12.446,0,0,1-.163,3.517,14.743,14.743,0,0,1-2.78,5.8l-.854,1.131q-.393.505-.783,1l-.456.549-.209.259-.106.135c-.024.043-.108.1-.043.127a27.383,27.383,0,0,1,3.21,4.365,10.894,10.894,0,0,1,1.613,5.889,10.981,10.981,0,0,0-2.772-5.042,23.473,23.473,0,0,0-2.217-2.154c-.672-.57-1.936-1.617-3.33-2.614-.042-.076,0-.166.056-.26l.141-.279.293-.571.632-1.185.652-1.153.467-.859a27.276,27.276,0,0,0,1.6-3.278,8.076,8.076,0,0,0,.584-2.975,4.574,4.574,0,0,0-.033-.71,4.972,4.972,0,0,0-.095-.707l-.058-.348-.1-.285c-.064-.188-.12-.373-.169-.558a5.662,5.662,0,0,0-3.111-2.758,15.159,15.159,0,0,0-3.67-.925,10.046,10.046,0,0,0-2.246-.036,6.713,6.713,0,0,0-.972.163,4.327,4.327,0,0,0-.584.223c-.033.019-.059,0-.11.043l-.175.164a2.623,2.623,0,0,0-.343.34,6.335,6.335,0,0,0-.6.789,8.257,8.257,0,0,0-.833,2.024A17.143,17.143,0,0,0,213,527.8c.01.435.045.875.078,1.314.013.219.033.439.058.66l.053.461.074.566c.229,1.516.48,2.993.723,4.423l-12.484.263q-.195-2.8-.387-5.563a26.04,26.04,0,0,0-.558-3.811,15.106,15.106,0,0,0-3.278-6.377c-1.49-1.554-3.847-1.856-6.2-1.469-.588.082-1.179.211-1.768.347l-.442.113a1.243,1.243,0,0,0-.307.1c-.256.113-.542.224-.8.349a8.31,8.31,0,0,0-2.669,1.877,3.649,3.649,0,0,0-.974,2.6,7.041,7.041,0,0,0,.9,2.972,26.359,26.359,0,0,0,4.132,5.431c.636.686,2,2.065,3.116,3.192l.217.22a2.039,2.039,0,0,1-.177.239l-.376.481-.754.961c-.249.321-.506.65-.738.982l-.515.724a26.16,26.16,0,0,0-2.965,5.729c-1.459,3.936-1.674,8.195-.182,11.676a14.069,14.069,0,0,0,7.864,7.406,29.578,29.578,0,0,0,10.749,1.976,31.591,31.591,0,0,0,10.274-1.534,25.277,25.277,0,0,0,5.932-2.984,18.546,18.546,0,0,0,4.9-5.359l.871-1.547c.218-.541.43-1.068.636-1.577a19.677,19.677,0,0,0,.911-2.933,16.71,16.71,0,0,0,.459-2.393C229.474,546.639,229.559,546.108,229.615,545.756Z" transform="matrix(-1, 0, 0, 1, 380, 0)"></path><ellipse cx="150.901" cy="542.126" rx="2.343" ry="2.517" transform="matrix(-1, 0, 0, 1, 380, 0)"></ellipse><path d="M153.229,542.126c-.161-.061-.226-.629-.579-1.128a1.737,1.737,0,0,0-1.288-.825,1.819,1.819,0,0,0-1.816,2.213,1.606,1.606,0,0,0,1.688,1.331,2.208,2.208,0,0,0,1.726-1.591,1.824,1.824,0,0,1,.44,1.853,1.955,1.955,0,0,1-1.217,1.37,3.292,3.292,0,0,1-2.171-.218,3.2,3.2,0,0,1-1.356-1.25,3.387,3.387,0,0,1-.21-3.06,2.842,2.842,0,0,1,2.183-1.727,2.5,2.5,0,0,1,2.327.936,2.093,2.093,0,0,1,.425,1.224A2.152,2.152,0,0,1,153.229,542.126Z" transform="matrix(-1, 0, 0, 1, 380, 0)"></path><ellipse cx="135.791" cy="537.875" rx="2.322" ry="2.494" transform="matrix(-1, 0, 0, 1, 380, 0)"></ellipse><path d="M138.1,537.875c-.161-.061-.227-.623-.576-1.116a1.719,1.719,0,0,0-1.275-.815,1.8,1.8,0,0,0-1.789,2.188,1.584,1.584,0,0,0,1.661,1.312,2.182,2.182,0,0,0,1.71-1.569,1.808,1.808,0,0,1,.444,1.84,1.938,1.938,0,0,1-1.207,1.362,3.269,3.269,0,0,1-2.157-.219,3.192,3.192,0,0,1-1.346-1.241,3.363,3.363,0,0,1-.208-3.037,2.82,2.82,0,0,1,2.167-1.714,2.484,2.484,0,0,1,2.309.929,2.064,2.064,0,0,1,.42,1.215A2.137,2.137,0,0,1,138.1,537.875Z" transform="matrix(-1, 0, 0, 1, 380, 0)"></path><path d="M147.128,546.654c.069.132-.261.76-.923,1.285a3.431,3.431,0,0,1-2.287.687,2.9,2.9,0,0,1-2.014-.983,3.606,3.606,0,0,1-.642-.992l-.111-.241-.022-.028-.033-.038c-.032-.032-.038-.022-.058.025l-.032.087c0,.01,0,.006,0,0s.01-.012-.018,0l-.191.085-.282.075a3.588,3.588,0,0,1-1.115.116,3.231,3.231,0,0,1-1.959-.762,2.256,2.256,0,0,1-.828-1.76,2.809,2.809,0,0,1,.152-.806c.113-.223.227-.426.339-.608a2.841,2.841,0,0,0,.849,1.526c.362.22.643.243.809.381a1.583,1.583,0,0,0,.948.387,2.082,2.082,0,0,0,.535-.019,1.516,1.516,0,0,0,.364-.149.728.728,0,0,0,.221-.174l.209-.381a1.217,1.217,0,0,0,.535-.023c.111-.039.242-.077.269-.155l.119-.174.047-.23.023-.116.006-.03,0-.014h0c.267-.731.074-.2.134-.365v0l0,.007,0,.013-.028.105-.109.415a.818.818,0,0,0-.017.574c-.01.138.168.3.28.447a2.853,2.853,0,0,0-.042.356l.038.276.075.554a3.071,3.071,0,0,0,.28.559,2.433,2.433,0,0,0,.785.769,2.364,2.364,0,0,0,1.834.179,6.571,6.571,0,0,0,1.058-.4C146.692,546.936,147,546.708,147.128,546.654Z" transform="matrix(-1, 0, 0, 1, 380, 0)"></path><path class="cls-3 color-shoes" d="M165.964,533.831c.376-3.765,4.549-4.817,6.361-8.253,3.891-5.894-6.9-15.813-13.053-11.17-2.653,2-3.026,7.324-4.888,12.532-1.907-.485-4.066-1.19-4.066-1.19s1.428-9.789-1.375-14.785c-2.7-3.8-11.606-5.44-13.429-2.887-2.51,3.514,3.726,10.352,5.123,15.955-12.189,10.881-18.739,30.568,5.974,32.5C158.466,557.462,178.686,548.788,165.964,533.831Z" transform="matrix(-1, 0, 0, 1, 380, 0)"></path><path d="M166,533.8a11.062,11.062,0,0,1,3.383,4.126,10.94,10.94,0,0,1,1.4,5.037,9.684,9.684,0,0,1-.432,3.071,10.74,10.74,0,0,1-1.463,2.926A16.808,16.808,0,0,1,164,553.445a29.409,29.409,0,0,1-5.845,2.743,32.913,32.913,0,0,1-17.776,1.2,19.731,19.731,0,0,1-7.319-2.964,13.309,13.309,0,0,1-3.123-2.974,12.472,12.472,0,0,1-1.968-3.993,16.592,16.592,0,0,1,.037-8.54,28.456,28.456,0,0,1,3.128-7.5,38.583,38.583,0,0,1,4.676-6.406q.649-.742,1.345-1.439c.325-.332.2-.215.25-.266l.043-.056c.024-.015,0-.043-.009-.064l-.051-.109-.459-1.008c-.956-2.015-2.194-4.048-3.322-6.364a22.983,22.983,0,0,1-1.046-2.509,9.833,9.833,0,0,1-.557-3.28,7.467,7.467,0,0,1,.414-2.195,10.6,10.6,0,0,1,.531-1.019,3.1,3.1,0,0,1,.69-.911c.135-.135.267-.276.414-.4l.482-.316a4.057,4.057,0,0,1,1.022-.568A7.877,7.877,0,0,1,137.41,504a15.411,15.411,0,0,1,5.773.364,17.583,17.583,0,0,1,5.158,2.1c.415.262.826.568,1.231.87a11.475,11.475,0,0,1,1.177,1.127l.617.751a1.822,1.822,0,0,1,.272.464l.195.4a9.261,9.261,0,0,1,.569,1.352,21.191,21.191,0,0,1,1.067,5.149,36.754,36.754,0,0,1,.108,4.833l-.061,1.176-.075.966a.752.752,0,0,1-.043.125c0,.011.018.016.029.025l.009.007h0l-.142-.041-.639-.187-.269-.079.026.008.416.13.416.129.208.065-.617-.176-.362-.1c-.068-.019-.015,0-.028-.006l.015.009.032.017c.056.047.068,0,.092-.035a.967.967,0,0,0,.08-.144q.486-1.664.964-3.3a31.9,31.9,0,0,1,1.248-3.6,9.483,9.483,0,0,1,2.677-3.764,8.152,8.152,0,0,1,4.371-1.723,9.771,9.771,0,0,1,4.216.588,13.322,13.322,0,0,1,3.394,1.831,13.945,13.945,0,0,1,4.541,5.613,9.138,9.138,0,0,1,.779,3.638,6.744,6.744,0,0,1-1.109,3.646l-.408.615a7.559,7.559,0,0,1-.513.674,11.348,11.348,0,0,1-1.118,1.152c-.765.689-1.536,1.242-2.228,1.775-1.409,1.051-2.418,2.071-2.669,3.478a4.154,4.154,0,0,1,.055-1.723,6.428,6.428,0,0,1,.892-1.871c.826-1.238,1.976-2.395,2.775-3.673a8.567,8.567,0,0,0,.525-.97c.076-.164.13-.335.2-.5a3.909,3.909,0,0,0,.224-.564,3.786,3.786,0,0,0,.114-1.836,7.144,7.144,0,0,0-1.9-3.437,9.74,9.74,0,0,0-6.356-3.237,3.65,3.65,0,0,0-1.974.5c-.1.09-.269.169-.321.231a1.307,1.307,0,0,0-.206.193,1.662,1.662,0,0,0-.232.269,2.525,2.525,0,0,0-.237.323,13.365,13.365,0,0,0-1.388,3.032c-.419,1.181-.809,2.444-1.236,3.714l-.471,1.417c-.172.546-.375,1.071-.567,1.594l-.579,1.554a6.822,6.822,0,0,1-.3.742l-.809-.244-1.664-.5-1-.3-.3-.1-.116-.04-.465-.16-.463-.159-1.5-.465c-.494-.167-1.014-.313-1.471-.492.195-1.244.418-2.5.532-3.645l.13-1.18.087-1.02a33.023,33.023,0,0,0,.059-4.021,18.79,18.79,0,0,0-.533-3.794,10.8,10.8,0,0,0-.595-1.639,4.2,4.2,0,0,0-.942-1.107,12.987,12.987,0,0,0-6.648-2.616,9.027,9.027,0,0,0-1.74-.039,6.131,6.131,0,0,0-.8.111,3.028,3.028,0,0,0-.575.192,1.476,1.476,0,0,0-.753.834,2.878,2.878,0,0,0-.093,1.3,11.814,11.814,0,0,0,1.061,3.279c.506,1.108,1.1,2.21,1.675,3.318s1.165,2.233,1.694,3.395l.387.885.415,1.149c.147.373.248.8.374,1.194.036.194.174.416.127.588l-.452.433-.9.866-.447.438-.308.312c-.417.411-.81.841-1.2,1.273-.781.858-1.5,1.76-2.19,2.668a32.1,32.1,0,0,0-3.415,5.756,19.751,19.751,0,0,0-1.735,6.07,10.619,10.619,0,0,0,.825,5.664,9.51,9.51,0,0,0,3.674,4,18.4,18.4,0,0,0,5.223,2.12,37.727,37.727,0,0,0,5.631.86,26.314,26.314,0,0,0,5.428-.192,30.742,30.742,0,0,0,9.969-3.048,18.071,18.071,0,0,0,4.746-3.482,10.23,10.23,0,0,0,1.754-2.588,8.6,8.6,0,0,0,.685-3.03,12.129,12.129,0,0,0-1.356-5.587A29.593,29.593,0,0,0,166,533.8Z" transform="matrix(-1, 0, 0, 1, 380, 0)"></path><ellipse cx="150.901" cy="542.126" rx="2.343" ry="2.517" transform="matrix(-1, 0, 0, 1, 380, 0)"></ellipse><path d="M153.229,542.126c-.161-.061-.226-.629-.579-1.128a1.737,1.737,0,0,0-1.288-.825,1.819,1.819,0,0,0-1.816,2.213,1.606,1.606,0,0,0,1.688,1.331,2.208,2.208,0,0,0,1.726-1.591,1.824,1.824,0,0,1,.44,1.853,1.955,1.955,0,0,1-1.217,1.37,3.292,3.292,0,0,1-2.171-.218,3.2,3.2,0,0,1-1.356-1.25,3.387,3.387,0,0,1-.21-3.06,2.842,2.842,0,0,1,2.183-1.727,2.5,2.5,0,0,1,2.327.936,2.093,2.093,0,0,1,.425,1.224A2.152,2.152,0,0,1,153.229,542.126Z" transform="matrix(-1, 0, 0, 1, 380, 0)"></path><ellipse cx="135.791" cy="537.875" rx="2.322" ry="2.494" transform="matrix(-1, 0, 0, 1, 380, 0)"></ellipse><path d="M138.1,537.875c-.161-.061-.227-.623-.576-1.116a1.719,1.719,0,0,0-1.275-.815,1.8,1.8,0,0,0-1.789,2.188,1.584,1.584,0,0,0,1.661,1.312,2.182,2.182,0,0,0,1.71-1.569,1.808,1.808,0,0,1,.444,1.84,1.938,1.938,0,0,1-1.207,1.362,3.269,3.269,0,0,1-2.157-.219,3.192,3.192,0,0,1-1.346-1.241,3.363,3.363,0,0,1-.208-3.037,2.82,2.82,0,0,1,2.167-1.714,2.484,2.484,0,0,1,2.309.929,2.064,2.064,0,0,1,.42,1.215A2.137,2.137,0,0,1,138.1,537.875Z" transform="matrix(-1, 0, 0, 1, 380, 0)"></path><path d="M147.128,546.654c.069.132-.261.76-.923,1.285a3.431,3.431,0,0,1-2.287.687,2.9,2.9,0,0,1-2.014-.983,3.606,3.606,0,0,1-.642-.992l-.111-.241-.022-.028-.033-.038c-.032-.032-.038-.022-.058.025l-.032.087c0,.01,0,.006,0,0s.01-.012-.018,0l-.191.085-.282.075a3.588,3.588,0,0,1-1.115.116,3.231,3.231,0,0,1-1.959-.762,2.256,2.256,0,0,1-.828-1.76,2.809,2.809,0,0,1,.152-.806c.113-.223.227-.426.339-.608a2.841,2.841,0,0,0,.849,1.526c.362.22.643.243.809.381a1.583,1.583,0,0,0,.948.387,2.082,2.082,0,0,0,.535-.019,1.516,1.516,0,0,0,.364-.149.728.728,0,0,0,.221-.174l.209-.381a1.217,1.217,0,0,0,.535-.023c.111-.039.242-.077.269-.155l.119-.174.047-.23.023-.116.006-.03,0-.014h0c.267-.731.074-.2.134-.365v0l0,.007,0,.013-.028.105-.109.415a.818.818,0,0,0-.017.574c-.01.138.168.3.28.447a2.853,2.853,0,0,0-.042.356l.038.276.075.554a3.071,3.071,0,0,0,.28.559,2.433,2.433,0,0,0,.785.769,2.364,2.364,0,0,0,1.834.179,6.571,6.571,0,0,0,1.058-.4C146.692,546.936,147,546.708,147.128,546.654Z" transform="matrix(-1, 0, 0, 1, 380, 0)"></path><ellipse cx="211.731" cy="552.515" rx="2.567" ry="2.757" transform="matrix(-1, 0, 0, 1, 380, 0) translate(-121.344 63.471) rotate(-13.29)"></ellipse><path d="M214.214,551.928c-.173-.027-.379-.623-.881-1.076a1.966,1.966,0,0,0-1.6-.583,2.009,2.009,0,0,0-1.471,1.124,2.077,2.077,0,0,0,0,1.775,1.826,1.826,0,0,0,2.259,1.033,2.455,2.455,0,0,0,1.427-2.211,2,2,0,0,1,.846,1.847,2.148,2.148,0,0,1-.945,1.717,3.512,3.512,0,0,1-2.308.328,3.437,3.437,0,0,1-1.738-.962,3.637,3.637,0,0,1-.985-3.171,3.068,3.068,0,0,1,1.871-2.351,2.721,2.721,0,0,1,2.673.4,2.318,2.318,0,0,1,.767,1.171A2.424,2.424,0,0,1,214.214,551.928Z" transform="matrix(-1, 0, 0, 1, 380, 0)"></path><ellipse cx="194.551" cy="551.788" rx="2.544" ry="2.732" transform="matrix(-1, 0, 0, 1, 380, 0) translate(-121.637 59.502) rotate(-13.29)"></ellipse><path d="M197.011,551.207c-.172-.027-.377-.617-.875-1.065a1.941,1.941,0,0,0-1.584-.575,1.992,1.992,0,0,0-1.451,1.113,2.053,2.053,0,0,0,.006,1.752,1.8,1.8,0,0,0,2.227,1.02,2.429,2.429,0,0,0,1.415-2.183,1.982,1.982,0,0,1,.847,1.832,2.125,2.125,0,0,1-.937,1.705,3.5,3.5,0,0,1-2.293.325,3.412,3.412,0,0,1-1.724-.957,3.609,3.609,0,0,1-.977-3.145,3.045,3.045,0,0,1,1.856-2.334,2.7,2.7,0,0,1,2.653.4,2.286,2.286,0,0,1,.759,1.162A2.406,2.406,0,0,1,197.011,551.207Z" transform="matrix(-1, 0, 0, 1, 380, 0)"></path><path d="M208.847,558.291a2.4,2.4,0,0,1-.68,1.583,3.683,3.683,0,0,1-1.092.9,4.161,4.161,0,0,1-1.155.386,3.16,3.16,0,0,1-2.394-.578,4.158,4.158,0,0,1-.922-.927l-.186-.241a.288.288,0,0,0-.056-.065c-.037-.026-.039-.016-.048.033l-.011.1c0,.011,0,0,0,0l0,0h0l-.062.048-.128.1a1.439,1.439,0,0,1-.271.166,4.255,4.255,0,0,1-1.142.437,3.608,3.608,0,0,1-2.268-.265,2.411,2.411,0,0,1-1.349-1.619,3.018,3.018,0,0,1-.059-.9c.061-.267.128-.514.2-.737.336.607.743,1.277,1.209,1.449.439.18.777.156,1,.255a1.883,1.883,0,0,0,1.185.138,2.261,2.261,0,0,0,.583-.195l.13-.079a1.109,1.109,0,0,0,.226-.185c.034-.037.073-.056.1-.115l.072-.21.143-.4.337-.066.169-.1c.121-.066.217-.14.229-.224l.08-.208-.009-.246,0-.124v-.055h0c-.04.345.054-.472.044-.387h0v.009l0,.11-.009.433a1.566,1.566,0,0,0,.011.387l.1.219c.045.071.044.142.126.207l.246.189a3.349,3.349,0,0,0,.357,1.226c.073.2.146.215.217.33a1.546,1.546,0,0,0,.222.259,2.748,2.748,0,0,0,1.057.664,2.566,2.566,0,0,0,2.073-.267,6.7,6.7,0,0,0,1.021-.721C208.468,558.708,208.732,558.383,208.847,558.291Z" transform="matrix(-1, 0, 0, 1, 380, 0)"></path></svg>