<svg xmlns="http://www.w3.org/2000/svg" id="Layer_3" data-name="Layer 3" viewBox="0 0 380 600">
  <defs>
    <style>
      .cls-1 {
        opacity: .2;
      }

      .cls-2 {
        opacity: .3;
      }

      .cls-3, .cls-4 {
        stroke: #000;
        stroke-miterlimit: 10;
        stroke-width: 3px;
      }

      .cls-3, .cls-5 {
        fill: #db7dc3;
      }

      .cls-4 {
        fill: #cec2cb;
      }

      .cls-6, .cls-5, .cls-7, .cls-8 {
        stroke-width: 0px;
      }

      .cls-7 {
        fill: #fff;
      }

      .cls-8 {
        fill:#ffffff;
      }
    </style>
  </defs>
  <g class="cls-2">
    <path class="cls-6" d="m191.23,587.64c42.8,0,77.5-17.35,77.5-38.75s-34.7-38.75-77.5-38.75c-42.8,0-77.5,17.35-77.5,38.75s34.7,38.75,77.5,38.75"></path>
    <path class="cls-6" d="m191.23,587.7c-.76.29-4.77.58-10.7.35-5.92-.21-13.77-.98-22.03-2.78-8.25-1.78-16.92-4.6-24.34-8.41-3.71-1.9-7.11-4.03-9.99-6.27-2.89-2.24-5.26-4.6-7.02-6.8-1.55-1.94-2.93-4.09-3.97-6.48-1.05-2.38-1.68-5.02-1.83-7.72-.33-5.43,1.55-10.94,4.62-15.33,1.53-2.22,3.31-4.23,5.22-6.07,1.94-1.82,4.01-3.46,6.17-4.98,4.35-2.97,9.01-5.44,13.82-7.46,9.65-4.03,19.84-6.53,30.01-7.95,10.18-1.41,20.37-1.73,30.25-1.18,8.65.48,17.25,1.71,25.63,3.8,8.37,2.1,16.55,5.04,24.1,9.32,3.76,2.15,7.36,4.64,10.62,7.61,1.61,1.51,3.16,3.1,4.53,4.89,1.4,1.75,2.6,3.7,3.61,5.76,1.03,2.05,1.7,4.32,2.14,6.6.43,2.3.42,4.66.18,6.95-.28,2.3-.95,4.49-1.78,6.57-.91,2.03-1.98,3.95-3.25,5.66-2.49,3.48-5.55,6.24-8.7,8.64-3.17,2.38-6.5,4.33-9.87,6-6.74,3.34-13.62,5.55-20.3,7.14-6.69,1.57-13.21,2.51-19.43,2.97-6.22.48-12.15.52-17.69.25,9.93-1.6,24.2-4.21,36.81-8.74,6.31-2.23,12.19-4.86,16.98-7.55,4.82-2.66,8.49-5.38,10.9-7.31,2.44-1.93,4.6-4.11,6.29-6.52,1.67-2.42,2.8-5.07,3.26-7.83.46-2.76.13-5.6-.78-8.3-.9-2.71-2.5-5.24-4.39-7.53-3.84-4.59-8.88-8.22-14.19-11.1-5.32-2.9-10.95-5.12-16.63-6.83-5.68-1.74-11.44-2.97-17.15-3.82-5.72-.86-11.41-1.34-17.01-1.5-11.22-.31-22.11.63-32.38,2.73-10.26,2.1-19.97,5.39-28.41,10.14-4.19,2.4-8.08,5.17-11.26,8.44-1.58,1.64-3.02,3.37-4.17,5.23-1.14,1.86-2.02,3.83-2.57,5.84-1.15,4.04-.65,8.26.93,11.98,1.62,3.74,4.28,6.99,7.3,9.76,6.15,5.51,13.53,9.3,20.87,12.2,3.51,1.35,7.74,2.8,12.24,4.07,4.5,1.27,9.26,2.36,13.77,3.18,4.51.82,8.76,1.37,12.2,1.75,3.45.36,6.09.53,7.39.65Z"></path>
  </g>
  <path class="cls-4" d="m201.81,546.35c3.67,4.23,8.1,7.85,13.2,10.15,5.09,2.3,12.29,3.01,17.72,1.73,6.51-1.52,10.44-3.29,13.49-9.25,3.05-5.95-.26-14.01-3.85-19.65-3.28-5.15-5.22-10.12-10.68-12.84-6.57-3.28-13.44-6.39-20.77-6.83-7.38-.45-9.89,1.57-15.76,5.61-5.87,4.04-2.96,15.71-.39,20.42,2.15,3.94,4.09,7.27,7.03,10.66Z"></path>
  <path class="cls-4" d="m150.66,561.64c3.67,4.23,8.78,7.55,13.89,9.85,5.09,2.3,12.28,3.04,17.71,1.77,6.51-1.52,11.59-5.03,14.64-10.98,3.05-5.95,2.84-12.99-.75-18.63-3.28-5.15-8.9-8.24-14.36-10.97-6.57-3.28-13.44-6.39-20.77-6.83-7.38-.45-9.89.89-15.76,4.93-5.87,4.04-2.96,15.71-.39,20.42,2.15,3.94,2.83,7.05,5.77,10.44Z"></path>
  <g>
    <g id="default">
      <g>
        <path class="cls-8 color-body" d="m256.14,465.56c-5.8,23.74-18.27,52.94-19.51,54.49,3.33,2.57,6.52,8.2,8.28,11.35,2.44,4.39,3.01,9.99.8,14.51-3.82,7.81-14.17,9.86-22.61,8.13-9.72-2-16.63-7.8-22.45-15.92-4.49-6.26-4.1-13.86-4.54-21.58-.41-2.34-.39-19.37-.38-22.15" style="fill:#ffffff;--backup-fill:#ffffff"></path>
        <path class="cls-6" d="m195.79,494.39c.39.46.64,3.34.86,7.4.1,2.03.2,4.36.32,6.83.06,1.23.12,2.5.18,3.78.08,1.27.14,2.61.3,3.77.01.04.03.22.04.31.27,3.29.4,6.5.78,9.3.36,2.81,1,5.17,1.74,6.83.45.95.91,1.89,1.51,2.74.27.45.61.84.91,1.26.33.42.72.87,1.08,1.31,1.48,1.75,3.06,3.42,4.75,4.95,3.37,3.08,7.27,5.47,11.53,6.84,2.13.68,4.36,1.15,6.52,1.31,2.19.17,4.39.05,6.46-.38,2.07-.42,4-1.14,5.6-2.15,1.6-1.01,2.79-2.32,3.59-3.81,1.65-2.92,1.46-6.97-.04-10.29-.19-.44-.37-.77-.64-1.26l-.84-1.49c-.56-.98-1.13-1.93-1.71-2.84-.58-.91-1.17-1.79-1.78-2.61-.3-.41-.61-.8-.92-1.18l-.56-.64-1.25-1.19c-.12-.96-.23-1.88-.34-2.81-.1-.95-.2-1.88-.29-2.8.69-1.48,1.38-2.95,2.06-4.41.54-1.2,1.08-2.4,1.61-3.59,1.04-2.4,2.07-4.77,3.07-7.1,1.99-4.68,3.88-9.22,5.64-13.58,3.54-8.72,6.57-16.71,9.05-23.62.46,5.1-.17,12.43-1.43,19.21-1.24,6.78-3.07,13-4.54,16.07-1.58,3.26-3.12,6.47-4.65,9.62-.78,1.57-1.55,3.13-2.31,4.67-.39.77-.78,1.54-1.17,2.3l-.6,1.15-.15.29-.06.1-.13.2c-.14.2-.27.42-.43.62-.04.1.13.18.18.27.08.1.16.19.23.28l.27.35c.22.28.46.56.67.84.43.57.84,1.13,1.22,1.71.77,1.14,1.47,2.3,2.13,3.45.66,1.15,1.28,2.3,1.88,3.44.29.54.61,1.18.9,1.82.28.64.53,1.29.74,1.94.84,2.62,1.14,5.38.79,8.07-.17,1.34-.51,2.66-1.02,3.91-.26.62-.55,1.23-.9,1.8-.17.29-.32.58-.51.86l-.59.8c-1.61,2.11-3.73,3.73-5.99,4.8-2.26,1.09-4.64,1.74-7,2.08-4.72.69-9.44.12-13.71-1.2-4.3-1.32-8.18-3.55-11.47-6.21-3.3-2.66-6-5.76-8.34-8.9-1.24-1.66-2.26-3.55-2.95-5.45-.7-1.91-1.13-3.84-1.4-5.71-.53-3.76-.51-7.29-.56-10.63,0-.32-.02-.64-.03-1.13,0-.03,0-.07,0-.12-.1-1.1-.07-2.1-.05-3.18.03-1.07.08-2.17.15-3.29.14-2.23.33-4.52.54-6.64.41-4.25.87-7.85,1.05-9.08Z"></path>
      </g>
    </g>
    <g id="default-2" data-name="default">
      <g>
        <path class="cls-8 color-body" d="m193.73,513.39c-4.57,5.6-4.08,11.91-5.01,18.76,3.01,5.24,6.01,12.24,5.41,19.44-.9,10.77-7.48,16.83-17.72,17.24-7.85.31-16.58-3.8-21.82-9.86-6.04-6.98-8.86-14.58-9.65-24.01-.21-14.57-.95-26.81.79-42.92" style="fill:#ffffff;--backup-fill:#ffffff"></path>
        <path class="cls-6" d="m145.79,492.04c.57.72.16,6.92.17,14.09-.03,7.16.33,15.3.79,19.85.2,2,.39,4.05.56,6.12.09,1,.14,2.04.26,3.02l.23,1.42.27,1.48c.79,3.94,2.04,7.77,3.93,11.25.94,1.74,2.03,3.4,3.25,4.97.62.78,1.25,1.54,1.92,2.29.33.36.65.67.97,1.02l1.03.95c2.84,2.46,6.25,4.3,9.7,5.35,1.51.47,3.04.77,4.55.92,1.51.16,2.96.1,4.49-.06,2.97-.39,5.65-1.37,7.63-3.08,2.02-1.65,3.38-4.04,4.17-6.76.21-.67.34-1.39.49-2.09.09-.72.25-1.45.28-2.14.12-1.4.08-2.82-.08-4.25-.31-2.85-1.12-5.69-2.17-8.39-.26-.68-.54-1.35-.83-2.01l-.44-.99-.11-.25-.06-.12-.11-.23-.44-.86c-.14-.29-.3-.56-.42-.85l.15-.94c.09-.53.17-1.05.26-1.57.12-.72.24-1.42.36-2.13.47-2.85.95-5.77,1.93-8.49.5-1.36,1.12-2.64,1.85-3.81.73-1.17,1.6-2.18,2.48-3.09-.8,2.28-1.38,4.96-1.41,7.72-.05,2.76.31,5.66.49,8.67.03.74.07,1.47.1,2.19.04.08.08.15.12.21.05.05.14.08.2.11,0-.11.3.39.48.65.21.3.4.61.59.91.38.6.73,1.21,1.06,1.8,1.29,2.38,2.1,4.6,2.39,6.22.6,3.24.83,6.55.44,9.79-.42,3.18-1.2,6.23-2.66,9.06-1.46,2.79-3.53,5.29-6.06,6.98-2.53,1.71-5.35,2.71-8.12,3.18-.7.09-1.39.19-2.07.26-.69.03-1.37.08-2.05.1-1.38,0-2.75-.07-4.07-.3-2.66-.39-5.17-1.17-7.52-2.17-4.7-2.01-8.83-5.01-11.94-8.72-3.09-3.6-5.52-7.63-7.12-11.83-.81-2.09-1.42-4.22-1.88-6.33-.46-2.12-.78-4.17-.97-6.33-.07-2.02-.13-4-.2-5.95-.05-1.93-.1-3.83-.15-5.7-.07-3.74-.06-7.37.1-10.88.09-3.34.63-7.89,1.35-11.84.7-3.96,1.56-7.32,1.86-8.42Z"></path>
      </g>
    </g>
    <path class="cls-4" d="m244.08,531.04c-.81-1.6-1-2.37-1.81-3.97-5.88.6-12.64,2.07-18.41,6.27-8.3,1.32-15.63,4.39-19.69,9,.94,3.63,3.21,2.85,3.21,2.85,2.04-2.87,5.13-3.88,9.27-5.32-2.49,2.89-4.2,4.7-5.81,8.39-.16.37.34,1.57,1.42,2.19,1.08.62,2.47.43,2.67.06,2.98-5.54,5.62-8.23,10.14-11.92,7.06-.67,14.43.34,19.45,3.08l.07-4.58c-4.15-1.73-8.35-2.68-12.43-3.01,3.61-1.7,7.59-2.77,11.93-3.03Z"></path>
  </g>
  <path class="cls-4" d="m193.9,543.04c-.64-1.67-.74-2.46-1.38-4.13-7.2-.14-14.27,1.68-20.45,5.25-8.39.43-15.82,3.42-20.35,7.57.56,3.71,2.89,3.17,2.89,3.17,2.33-2.64,6.02-4.42,10.29-5.42-2.78,2.61-5.23,5.67-7.22,9.18-.2.35.17,1.6,1.18,2.33,1.01.73,2.41.69,2.65.34,3.55-5.2,7.8-9.6,12.69-12.8,7.1.08,14.32,1.86,19.01,5.12l.55-4.55c-3.95-2.16-8.02-3.55-12.04-4.31,3.77-1.31,7.84-1.95,12.18-1.75Z"></path>
  <g>
    <g id="default-3" data-name="default">
      <g>
        <path class="cls-7" d="m145.73,492.03c-1.58,14.68-1.11,26.14-.85,39.08,1.21-.08,2.42-.27,3.61-.43,2.38-.32,4.76-.68,7.14-1,4.21-.56,8.43-1.03,12.65-1.42,4.28-.39,8.59-.55,12.86-1.02,2.73-.3,5.46-.62,8.19-.93"></path>
        <path class="cls-6" d="m189.34,526.37c-.27.66-3.45,1.32-7.13,1.98-3.72.68-7.99,1.08-10.29,1.61-2.04.45-4.14.91-6.27,1.38-2.15.45-4.34.87-6.53,1.25l-3.3.56c-1.11.21-2.22.41-3.32.62-.55.1-1.1.2-1.65.3l-.82.15-.61.1-.78.12c-2.15.29-4.27.58-6.37.87l-.7.09-.35.05h-.09s0-.07,0-.07v-.17s-.07-1.36-.07-1.36l-.11-2.75c-.05-1.66-.1-3.31-.15-4.95-.06-1.87-.09-3.73-.09-5.57,0-3.69.13-7.3.43-10.76.58-6.91,1.86-13.1,3.48-17.9,1.41,2.38,2.52,5.7,3.25,8.76.72,3.06,1.08,5.89.74,7.37-1.33,5.96-1.86,11.69-2.06,17.08-.04,1.02-.08,2.01-.11,3,0,.41-.02.81-.02,1.21.34.01.75-.06,1.13-.09.39-.04.77-.09,1.15-.13.53-.08,1.05-.16,1.57-.23,1.21-.19,2.4-.38,3.57-.57,4.71-.73,9.12-1.41,13.25-2.04,4.18-.59,8.06-.77,11.62-.83,3.34-.18,9.48.68,10.66.94Z"></path>
      </g>
    </g>
    <g>
      <path class="cls-5" d="m194.32,525.87c-1.59,6.36,3.5,10.11,8.48,13.43,6.89,4.6,19.32,3.43,25.63,1.41,6.31-2.02,27.03-10.88,30.78-16.34.96-1.4-8.48-20.82-9.06-30.12-.51-8.12,5.43-15.15,5.12-29.77-.11-5.14-55.15,13.63-58.33,19.72-3.18,6.09-6.39,36.29-2.63,42.03"></path>
      <path class="cls-6" d="m194.29,526.24c-.18-.17-.69-.84-1.04-2.01-.38-1.17-.68-2.79-.87-4.73-.38-3.89-.34-9.04.06-14.53.42-5.5,1.1-11.34,2.31-16.63.31-1.32.65-2.61,1.16-3.86.16-.32.24-.6.5-.98.23-.33.48-.59.72-.83.49-.46,1-.83,1.49-1.19,1.98-1.36,3.85-2.33,5.4-3.15,5.5-2.84,11.38-5.29,17.45-7.62,6.08-2.3,12.34-4.45,18.77-6.28,3.22-.9,6.46-1.75,9.88-2.29.86-.13,1.73-.24,2.67-.27h.36c.12,0,.24-.01.46,0,.38.05.78.04,1.14.15.74.15,1.39.49,1.83,1.07.22.29.35.59.39.96.03.18.08.34.09.53v.58s0,1.49,0,1.49c.01.85-.07,1.71-.1,2.56-.21,3.4-.79,6.78-1.63,9.99-.82,3.22-1.89,6.3-2.6,9.22-.36,1.53-.6,3.02-.64,4.48-.03,1.43.18,2.91.51,4.44.65,3.05,1.64,6.1,2.67,9.09,1.04,3,2.16,5.94,3.25,8.85.55,1.46,1.09,2.91,1.6,4.37.25.74.51,1.47.73,2.27l.16.61c.03.11.05.2.08.36.04.19.08.37.1.55.02.36.08.73-.02,1.07-.02.18-.1.34-.16.5.02.19-.13.32-.18.48l-.79.95c-.19.24-.39.45-.59.62-.4.36-.8.73-1.2,1.06-.82.61-1.62,1.25-2.45,1.76-1.64,1.11-3.32,2.04-4.98,2.96-3.34,1.81-6.7,3.39-10.03,4.85-3.33,1.46-6.63,2.79-9.96,3.96-1.66.59-3.44,1.09-5.16,1.42-1.73.35-3.44.56-5.14.7-3.4.28-6.75.17-9.98-.37-1.61-.31-3.19-.67-4.7-1.28-.76-.25-1.48-.66-2.2-1-.68-.42-1.41-.84-1.99-1.28-2.41-1.73-4.81-3.55-6.5-5.98-.84-1.21-1.45-2.59-1.67-4.01-.23-1.42-.07-2.84.28-4.12-.23,1.7-.03,3.66.84,5.4.46.86,1.04,1.66,1.72,2.4.71.72,1.49,1.39,2.33,2.02.85.62,1.75,1.21,2.69,1.77.93.55,1.92,1.17,2.85,1.59,1.89.91,4.01,1.4,6.12,1.66,4.24.5,8.48.13,12.06-.48,1.79-.32,3.42-.7,4.81-1.11,1.38-.41,2.65-.88,3.68-1.23,5.19-1.8,10.23-3.89,14.95-6.11,2.35-1.13,4.65-2.28,6.77-3.55,1.05-.64,2.11-1.28,3.04-1.98l.71-.52.64-.56c.2-.19.46-.36.61-.56l.25-.28.14-.14c.17-.13.11-.36.09-.53-.01-.09-.07-.35-.12-.53-.05-.2-.11-.4-.17-.6-.24-.81-.51-1.64-.79-2.46-.59-1.64-1.17-3.27-1.75-4.89-1.18-3.25-2.34-6.46-3.37-9.68-1.01-3.23-1.96-6.44-2.4-9.79-.45-3.41.27-6.79,1.18-9.83.9-3.08,1.88-6.02,2.56-8.99.69-2.97,1.11-5.94,1.22-8.89.06-.74.03-1.47.04-2.21v-.68c.02-.24-.22-.39-.42-.45-.21-.07-.43-.08-.65-.09-.23,0-.64,0-.97.02-.7.05-1.4.13-2.11.24-2.82.45-5.6,1.14-8.32,1.87-5.43,1.48-10.65,3.19-15.68,4.95-5.02,1.77-9.85,3.62-14.47,5.57-2.31.98-4.56,1.98-6.73,3.04-2.15,1.07-4.31,2.17-6.07,3.48-.42.32-.84.69-1.05.98-.07.08-.19.36-.3.59-.11.23-.2.5-.3.75-.37,1.03-.67,2.13-.94,3.23-.53,2.2-.95,4.41-1.31,6.6-.79,4.93-1.69,11.73-1.99,17.75-.15,3-.17,5.81.03,8.07.17,2.26.65,3.94,1.1,4.69Z"></path>
    </g>
    <g>
      <path class="cls-5" d="m134.62,541.99s14.04,4.84,30.92,6.85,29.94-1.51,29.94-1.51c0,0,9.4-59.96,7.26-65.3-2.36-5.9-53.64-20.81-57.05-16.18-4.33,5.88-11.08,76.15-11.08,76.15Z"></path>
      <path class="cls-6" d="m134.59,541.99c-.21-1.1.63-11.3,1.84-23.06,1.19-11.77,2.79-25.11,3.74-32.53.42-3.31.87-6.68,1.45-10.16.28-1.74.61-3.52,1-5.33.21-.91.41-1.82.69-2.76.14-.47.26-.94.46-1.44.1-.25.18-.49.29-.75l.23-.42.28-.49c.32-.39.72-.75,1.21-.94.5-.23.85-.29,1.23-.38.73-.14,1.41-.18,2.08-.2,1.33-.02,2.62.06,3.9.19,2.55.26,5.07.68,7.59,1.16,5.03.97,10.03,2.21,15,3.6,4.97,1.4,9.9,2.95,14.74,4.73,2.42.89,4.81,1.85,7.17,2.94,1.18.55,2.35,1.13,3.51,1.83.58.34,1.16.73,1.75,1.19.57.49,1.24.96,1.8,2.16.18.57.32,1.14.33,1.49.05.4.09.8.1,1.15.12,2.98-.1,5.71-.29,8.5-.21,2.77-.49,5.51-.78,8.23-.59,5.45-1.27,10.84-1.98,16.15-.72,5.31-1.47,10.55-2.25,15.68-.4,2.57-.79,5.11-1.18,7.62-.47,2.92-.93,5.8-1.39,8.65-.68.18-1.36.35-2.05.5l-.51.12-.29.06-.56.11c-.75.14-1.49.28-2.23.39-1.48.24-2.96.42-4.43.59-2.93.31-5.84.46-8.69.48-5.7.07-11.23-.46-16.39-1.33-10.35-1.73-19.58-4.28-27.51-7.17,6.91,1.42,16.95,3.27,26.51,4.24,4.78.51,9.37.78,13.38.75,4.01,0,7.41-.23,9.75-.37,1.97-.12,3.94-.28,5.8-.53.93-.12,1.84-.25,2.72-.4.41-.07.81-.14,1.21-.21.08,0,.16,0,.25-.02.04-.12.07-.22.23-1.14.13-.73.26-1.46.39-2.19.25-1.46.51-2.91.76-4.36.48-2.89.96-5.76,1.43-8.59.92-5.67,1.77-11.22,2.54-16.66.77-5.43,1.46-10.74,2.02-15.92.27-2.59.52-5.15.69-7.67.08-1.26.15-2.51.16-3.74.02-.62,0-1.22-.02-1.82-.03-.59-.1-1.19-.22-1.59-.15-.36-.63-.83-1.14-1.21-.51-.39-1.08-.74-1.65-1.08-1.16-.67-2.37-1.27-3.59-1.83-2.45-1.11-4.94-2.09-7.42-2.99-4.97-1.8-9.9-3.33-14.75-4.68-4.85-1.34-9.62-2.5-14.31-3.39-2.34-.44-4.66-.82-6.94-1.03-1.14-.1-2.27-.18-3.36-.14-.54.01-1.07.07-1.54.16-.51.12-.7.18-.88.43-.05.11-.14.27-.24.43l-.24.63c-.17.4-.29.88-.43,1.33-.26.91-.5,1.84-.7,2.78-.43,1.86-.77,3.75-1.1,5.6-.66,3.72-1.21,7.38-1.73,10.96-1.04,7.17-1.93,14.05-2.8,20.66-1.38,10.77-4.11,29.38-4.63,33.04Z"></path>
    </g>
    <g class="cls-1">
      <path class="cls-6" d="m159.49,537.25c-.17-.22-.22-1.49-.37-3.28-.04-.44-.09-.92-.13-1.42-.05-.37-.1-.75-.16-1.16-.06-.39-.12-.77-.2-1.14l-.11-.56c-.05-.16-.05-.51-.21-.16-.37.55-.73,1.06-1.09,1.53-.17.23-.34.45-.51.68l-.32.4c-.14.17-.27.33-.41.5-.73.86-1.51,1.72-2.22,2.46-.74.76-1.41,1.44-1.98,2.03-.41.41-.82.83-1.24,1.25l-.32.32c-.08.1-.06,0-.06-.06v-.18s.01-.74.01-.74c.02-1.01.01-2,.07-3.19.08-1.25.15-2.51.23-3.78.04-.81.08-1.63.12-2.46.16-3.16.37-6.38.59-9.59l3.37.78c-1.23,3.41-2.76,6.73-4.47,9.79-1.15,2.08-2.43,4.09-3.78,5.96-.34.47-.68.93-1.02,1.39-.33.43-.65.85-.98,1.26-.25.34-.44.68-.5.86-.01.04-.03.08-.03.09,0,.01,0,.01,0,.01h-.18c-.23,0-.25.06-.12-.02l-3.44.58c1.58-11.97,4.49-22.44,7.37-29.81.14,2.57-.07,6.19-.37,9.56-.3,3.37-.7,6.51-1.14,8.11-1.23,4.37-2.14,8.64-2.81,12.51l-.55,3.18-1.5-2.78c-.45-.83-.34-1.82-.08-2.46.26-.67.62-1.17.98-1.64.72-.88,1.35-1.64,1.99-2.47,1.25-1.64,2.38-3.31,3.4-5,2.03-3.37,3.62-6.76,4.83-10.06l1.59.37c-.19,2.55-.37,5.01-.54,7.38-.08,1.19-.17,2.35-.25,3.5-.03.43-.06.86-.09,1.29-.01.26-.03.52-.04.77-.01.24-.03.48-.04.72l-.02.35v.17s-.02.09-.02.09c0,.02.04-.03.06-.05.36-.34.69-.67,1.01-1l.47-.49.24-.25.47-.52.65-.75.73-.87c.48-.59.94-1.18,1.4-1.78.53-.71,1.12-1.46,1.58-2.03.05.09.11.07.14.23l.08.57c.05.37.09.75.14,1.13.08.75.16,1.47.22,2.19.06.71.08,1.42.1,2.07,0,.32,0,.63,0,.94-.01.25-.02.49-.04.72-.11,1.88-.37,3.38-.48,3.92Z"></path>
    </g>
    <ellipse class="cls-3" cx="198.18" cy="462.38" rx="57.75" ry="25.5"></ellipse>
  </g>
</svg>