<svg xmlns="http://www.w3.org/2000/svg" id="new" viewBox="0 0 380 600"><defs transform="matrix(-1, 0, 0, 1, 380, 0)"><style>.cls-1{fill:#172e35;}.cls-2{fill:#ffffff;}.cls-3{fill:#6d482f;}.cls-4{opacity:0.3;}.cls-5{fill:#f9a;}.cls-6{fill:#94b3ff;}.cls-7{fill:#ffd635;}.cls-8{fill:none;}</style></defs><path class="cls-1" d="M130.8,541.989c-3.491,18.243,20.634,24.8,33.7,16.894,8.276-5.011,29.349-18.677,21.455-29.914" transform="matrix(-1, 0, 0, 1, 380, 0)" /><path d="M186,528.937c.308,0,1.09.637,1.805,1.964a9.14,9.14,0,0,1,.78,5.548,16.82,16.82,0,0,1-2.291,5.969c-1.026,1.75-2.126,3.189-2.873,4.255A50.513,50.513,0,0,1,173.34,556.76c-1.913,1.5-3.9,2.9-5.888,4.23-.521.341-.945.643-1.544,1-.584.349-1.165.7-1.77.99a25.152,25.152,0,0,1-3.648,1.513,28.8,28.8,0,0,1-13.082,1.058,25.935,25.935,0,0,1-11.684-4.666,17.24,17.24,0,0,1-6.638-9.622,14.442,14.442,0,0,1-.354-5.142,16.894,16.894,0,0,1,1.038-4.329c1.018,2.69,2.312,5.931,4.087,8.011a24.839,24.839,0,0,0,2.524,2.621c.416.337.741.68,1.078.96.307.3.571.574.78.819a15.88,15.88,0,0,0,6.508,4.705,22.236,22.236,0,0,0,7.941,1.6,21.591,21.591,0,0,0,7.592-1.191,18.741,18.741,0,0,0,3.291-1.549c1.063-.638,2.124-1.335,3.137-2.013a82.979,82.979,0,0,0,10.681-8.487,41.194,41.194,0,0,0,7.293-8.683c.405-.7.8-1.518,1.209-2.406a11.281,11.281,0,0,0,.752-2.839,8.971,8.971,0,0,0-.168-2.712A16.2,16.2,0,0,0,186,528.937Z" transform="matrix(-1, 0, 0, 1, 380, 0)" /><path class="cls-1" d="M185.679,547.991c-9.682,28.744,16.944,32.375,31.949,26.589,8.963-3.456,12.343-11.533,15.871-19.728,3.739-7.751,8.432-18.8,1.014-25.738" transform="matrix(-1, 0, 0, 1, 380, 0)" /><path d="M234.552,529.073c.174-.025.5.142.96.472a7.767,7.767,0,0,1,.77.622c.25.276.524.594.818.948a12.5,12.5,0,0,1,2.416,6.39,23.858,23.858,0,0,1-.656,7.792c-.563,2.422-1.287,4.527-1.746,6.052-.407,1.333-.9,2.714-1.378,3.994-.254.65-.446,1.308-.678,1.964q-.366,1.022-.734,2.053a46.926,46.926,0,0,1-3.906,8.367,25.079,25.079,0,0,1-6.707,7.4,23.446,23.446,0,0,1-4.419,2.5,33.543,33.543,0,0,1-4.485,1.574,36.378,36.378,0,0,1-15.98.889,26.562,26.562,0,0,1-7.686-2.557,18.931,18.931,0,0,1-6.292-5.177,17.538,17.538,0,0,1-3.269-7.023,20.311,20.311,0,0,1-.3-6.879,31.166,31.166,0,0,1,3.408-10.8c.145.824.258,1.71.342,2.629s.232,1.893.307,2.861a53.954,53.954,0,0,0,.923,5.726,24.8,24.8,0,0,0,1.45,4.6c.218.644.548,1.15.721,1.657a8.621,8.621,0,0,1,.55,1.245,12.314,12.314,0,0,0,6.6,6.7,24.226,24.226,0,0,0,9.879,2.17,31.126,31.126,0,0,0,9.695-1.315,20.634,20.634,0,0,0,4.245-1.747,19.174,19.174,0,0,0,1.869-1.176,20.241,20.241,0,0,0,1.662-1.4,24.907,24.907,0,0,0,4.959-6.828c1.278-2.487,2.3-5.016,3.321-7.543.492-1.293,1.108-2.529,1.6-3.692.518-1.173.992-2.326,1.439-3.459a44.772,44.772,0,0,0,2.073-6.595,19.866,19.866,0,0,0,.4-7.263l-.068-.467-.126-.438c-.084-.3-.167-.583-.246-.862-.17-.56-.441-1.035-.629-1.5C235.2,530.065,234.737,529.428,234.552,529.073Z" transform="matrix(-1, 0, 0, 1, 380, 0)" /><g id="default" transform="matrix(-1, 0, 0, 1, 380, 0)"><ellipse class="cls-2 color-body" cx="182.666" cy="463" rx="57.576" ry="25.423" style="fill:#ffffff;--backup-fill:#ffffff" /><path d="M240.211,463c-.114-.271-.144-1.126-.47-2.383a14.713,14.713,0,0,0-2.181-4.591c-2.335-3.468-6.908-6.866-12.274-9.432a75.851,75.851,0,0,0-17.249-5.618,102.7,102.7,0,0,0-14.759-1.964,135.859,135.859,0,0,0-20.584.344,109.654,109.654,0,0,0-20.919,3.9,69.213,69.213,0,0,0-9.97,3.745,40.718,40.718,0,0,0-8.837,5.466,16.68,16.68,0,0,0-5.575,7.735,10.261,10.261,0,0,0,1.424,8.555,22.234,22.234,0,0,0,5.861,5.891,45.714,45.714,0,0,0,7.546,4.253,80.68,80.68,0,0,0,16.634,5.217,127.607,127.607,0,0,0,33.621,2.16c10.8-.726,21.043-2.714,29.867-6.26a41.746,41.746,0,0,0,11.673-6.8,18.961,18.961,0,0,0,3.987-4.717A12.042,12.042,0,0,0,239.673,463a11.351,11.351,0,0,1-.855,5.665,18.9,18.9,0,0,1-3.8,5.7,40.971,40.971,0,0,1-12.386,8.469,77.077,77.077,0,0,1-23.558,6.506,131.781,131.781,0,0,1-14.729.629,134.891,134.891,0,0,1-14.228-.889,101.833,101.833,0,0,1-26.391-6.39,49.651,49.651,0,0,1-11.4-6.334,26.141,26.141,0,0,1-4.635-4.491,15.894,15.894,0,0,1-2.952-5.731,12.1,12.1,0,0,1,.04-6.4,15.806,15.806,0,0,1,2.875-5.539,31.321,31.321,0,0,1,9.217-7.53,61.831,61.831,0,0,1,10.449-4.645,89.251,89.251,0,0,1,10.632-2.939,118.5,118.5,0,0,1,20.785-2.5,123.865,123.865,0,0,1,19.548.826,95.8,95.8,0,0,1,17.875,3.854c5.324,1.679,12.5,4.809,17.609,9.321a26.265,26.265,0,0,1,3.327,3.531,18.324,18.324,0,0,1,2.135,3.632A12.689,12.689,0,0,1,240.211,463Z" /></g><g data-name="default" id="default-2" transform="matrix(-1, 0, 0, 1, 380, 0)"><path class="cls-2 color-body" d="M125.09,465.174c5.8,23.743,18.27,52.938,19.509,54.494-3.335,2.573-6.523,8.2-8.277,11.353-2.445,4.392-3.01,9.99-.8,14.507,3.815,7.814,14.166,9.864,22.608,8.131,9.719-2,16.627-7.8,22.451-15.923,4.489-6.264,4.1-13.863,4.542-21.582.415-2.34.386-19.372.381-22.154" style="fill:#ffffff;--backup-fill:#ffffff" /><path d="M185.561,494c.386.461.657,3.337.839,7.408.091,2.035.159,4.37.2,6.853.011,1.244.022,2.524.032,3.821-.014,1.315.006,2.6-.12,4.032l-.012.154c-.1,3.19-.061,6.448-.27,9.448a37.112,37.112,0,0,1-1.272,7.843,21.224,21.224,0,0,1-1.4,3.6c-.271.6-.629,1.155-.963,1.732-.339.556-.675,1.04-1.017,1.566a49.128,49.128,0,0,1-4.715,5.977,35.163,35.163,0,0,1-13.226,9.085,31.677,31.677,0,0,1-16.47,1.866,23.979,23.979,0,0,1-8.214-2.871,17.767,17.767,0,0,1-6.436-6.438,17.336,17.336,0,0,1-2.33-8.781A20.94,20.94,0,0,1,132,530.752c.276-.646.657-1.358.953-1.9l.892-1.578c.608-1.056,1.241-2.111,1.914-3.155s1.384-2.078,2.162-3.1c.387-.509.8-1.015,1.227-1.517l.58-.646.016,0a.222.222,0,0,0,.044-.014l.008-.038v-.014l0,0c0-.009.02.037-.032-.08l-.426-.965-.8-1.9q-.759-1.894-1.508-3.763-1.452-3.741-2.75-7.4c-1.731-4.875-3.28-9.625-4.622-14.212a181.747,181.747,0,0,1-5.679-25.02c2.771,4.383,6.071,10.809,9.048,16.9,2.958,6.094,5.551,11.869,6.454,15.082.95,3.429,1.978,6.777,3.045,10.047q.805,2.451,1.652,4.83.435,1.182.864,2.353l.443,1.151.31.756c.127.316.3.618.39.933,0,.853-.018,1.774.039,2.336a3.848,3.848,0,0,1-.357.968l-.427,1.167c-.383.357-.805.71-1.146,1.062-.205.217-.419.418-.619.649q-.611.668-1.187,1.394c-.77.963-1.5,1.98-2.192,3.019s-1.358,2.1-2,3.181c-.338.562-.619,1.041-.875,1.542a15.855,15.855,0,0,0-.684,1.552c-1.609,4.224-1.24,9.115,1.388,12.434A12.872,12.872,0,0,0,143,550.7a19.845,19.845,0,0,0,6.082,1.717A26.9,26.9,0,0,0,161.268,551a30.356,30.356,0,0,0,10.006-5.917,47.144,47.144,0,0,0,7.375-8.4,20.869,20.869,0,0,0,3.478-9.275c.51-3.331.617-6.765.9-10.167.024-.333.049-.675.086-1.186.01-.081.033-.3.048-.351.12-.774.213-1.793.314-2.82s.207-2.124.314-3.223c.231-2.209.468-4.48.688-6.6C184.942,498.831,185.385,495.225,185.561,494Z" /></g><path class="cls-3" d="M162.139,510.129c-8.773.872-17.218-2.836-24.168-7.955,13.534,23.168-9.71,20.805-7.116,42.423.807,6.722,13.2,14.427,26.618,10.486,7.176-2.107,20.436-10.245,26.349-23.123,4.905-10.683,2.73-22.24,2.083-34C181.617,504.9,170.18,509.214,162.139,510.129Z" transform="matrix(-1, 0, 0, 1, 380, 0)" /><path d="M162.136,510.1c.512-.289,4.171-.791,8.9-2.548a41,41,0,0,0,7.5-3.61,27.235,27.235,0,0,0,3.6-2.681l.216-.184.269-.285.54-.571a10.367,10.367,0,0,0,1.089-1.256l1.1-1.468.989-1.439.117.025.058.013.014.187.054.753q.054.759.108,1.508.117,1.524.233,3.008c.139,1.551.275,3.052.4,4.477.245,2.636.441,5,.56,6.884a45.854,45.854,0,0,1-1.349,15.79c-.215.657-.4,1.326-.645,1.978l-.777,1.945a41.256,41.256,0,0,1-1.922,3.719,40.7,40.7,0,0,1-4.943,6.8,51.26,51.26,0,0,1-13.037,10.518,34.2,34.2,0,0,1-7.757,3.353,27.545,27.545,0,0,1-8.357,1.032,26.913,26.913,0,0,1-9.159-1.849,22.174,22.174,0,0,1-7.912-5.177,13.161,13.161,0,0,1-2.7-4.294,8.492,8.492,0,0,1-.348-1.327c-.042-.218-.109-.471-.124-.659l-.049-.567c-.063-.756-.142-1.507-.132-2.273l-.012-1.143.069-1.147c.022-.763.169-1.526.267-2.285a21.507,21.507,0,0,1,1.274-4.413,29.929,29.929,0,0,1,4.628-7.4,37.966,37.966,0,0,0,4.435-6.158,11.108,11.108,0,0,0,1.082-6.521,15.419,15.419,0,0,0-.307-1.688,14.368,14.368,0,0,0-.462-1.672l-.132-.414-.066-.207-.073-.217-.077-.194-.708-1.57-.7-1.545c-.224-.509-.548-1.054-.813-1.571l.372-.6a3,3,0,0,0,.158-.282l.039-.18c.05-.24.089-.481.119-.729a5,5,0,0,0,2.016-.168c1.623,1.176,3.071,2.075,4.521,2.94.887.516,1.711.949,2.571,1.385a36.335,36.335,0,0,0,5.148,2.077,28.532,28.532,0,0,0,10.048,1.368,23.434,23.434,0,0,1-4.739.673,27.667,27.667,0,0,1-5.606-.424,33.691,33.691,0,0,1-5.87-1.614l-1.44-.573-1.333-.586q-.458-.141-.671-.182c-.192-.036-.258-.02-.248.046.237.324.386.509.478.614a.622.622,0,0,0,.131.123l.009,0c.011.03-.021-.077,0-.021l.055.15.213.589c.134.392.289.757.381,1.145a17.013,17.013,0,0,1,.5,2.157c.054.34.11.664.147.975.017.318.034.619.049.9a14.513,14.513,0,0,1-1.04,6.032,20.834,20.834,0,0,1-3,4.9c-2.271,2.844-4.6,5.25-6.117,8.091a18.64,18.64,0,0,0-2.251,9.116,23.2,23.2,0,0,0,.1,2.371,5.607,5.607,0,0,0,.167,1.078,3.639,3.639,0,0,0,.321,1.008,10.326,10.326,0,0,0,2.563,3.59l.4.4.444.356.885.712c.646.4,1.246.869,1.924,1.211a18.16,18.16,0,0,0,2.034,1l1.04.442,1.072.349a24.466,24.466,0,0,0,8.758,1.122,25.528,25.528,0,0,0,8.367-1.888,42.781,42.781,0,0,0,7.408-4.03,47.75,47.75,0,0,0,11.657-10.989,38.763,38.763,0,0,0,3.888-6.519A31.8,31.8,0,0,0,185,524.962a55.431,55.431,0,0,0,.7-14.006c-.122-2.286-.3-4.543-.458-6.769q-.051-.732-.1-1.458l-.043-.765-.036-.787-.016-.4a1.225,1.225,0,0,0-.012-.188l-.107.146a5.121,5.121,0,0,1-.472.6,5.6,5.6,0,0,1-.559.58l-.342.311-.089.08-.175.141-.361.287a17.066,17.066,0,0,1-1.518,1.128,18.476,18.476,0,0,1-1.642,1.041,37.016,37.016,0,0,1-7.14,3.163A41.734,41.734,0,0,1,162.136,510.1Z" transform="matrix(-1, 0, 0, 1, 380, 0)" /><g class="cls-4" transform="matrix(-1, 0, 0, 1, 380, 0)"><path d="M177.822,534.754c.385.5-.465,1.988-1.775,3.373-1.289,1.409-2.958,2.717-3.75,3.667-2.833,3.345-6.99,5.838-10.856,7.86a29.818,29.818,0,0,1-5.388,2.181,17.736,17.736,0,0,1-2.912.593c-.839.107-1.765.217-2.748.251a12.865,12.865,0,0,1-9.4-3.376,35.722,35.722,0,0,1,4.756-2.9c1.365-.725,2.211-1.209,2.787-.976a11.392,11.392,0,0,0,4.079.628,12.577,12.577,0,0,0,3.729-.423,26.8,26.8,0,0,0,6.64-2.731c3.942-2.237,6.88-4.819,9.827-6.354a12.889,12.889,0,0,1,2.748-1.069C176.583,535.188,177.463,534.836,177.822,534.754Z" /></g><path d="M151.707,536.911c-.244.226-.706.042-1.252-.138a5.207,5.207,0,0,0-1.538-.4,16.767,16.767,0,0,1-4.053-.655,9.03,9.03,0,0,1-5.41-3.363c1.264-1.272,2.84-1.95,3.194-1.52a8.309,8.309,0,0,0,4.434,2.786c1.444.426,2.832.662,3.759,1.492A3.455,3.455,0,0,1,151.707,536.911Z" transform="matrix(-1, 0, 0, 1, 380, 0)" /><path d="M153.886,532.333c-.29.572-2.1-.052-2.918.02a10.513,10.513,0,0,1-4.257-.731,8.128,8.128,0,0,1-4.928-4.137c1.45-1.053,3.115-1.447,3.37-.979a6.466,6.466,0,0,0,3.9,3.155,16.824,16.824,0,0,1,3.624,1.168A4.573,4.573,0,0,1,153.886,532.333Z" transform="matrix(-1, 0, 0, 1, 380, 0)" /><path d="M156.138,528.872c-.406.485-2.028-.468-2.838-.487a14.154,14.154,0,0,1-4.016-.982,9.755,9.755,0,0,1-5.019-3.635c1.219-1.305,2.918-1.871,3.25-1.414a8.7,8.7,0,0,0,4.162,3.165,11.739,11.739,0,0,1,3.554,1.63A4.161,4.161,0,0,1,156.138,528.872Z" transform="matrix(-1, 0, 0, 1, 380, 0)" /><path d="M152.828,521.324c-.163.208-1.487.166-3-.1-1.515-.241-3.2-.725-4.158-.979a11.825,11.825,0,0,1-5.1-2.583,5.923,5.923,0,0,1-1.079-1.337,3.885,3.885,0,0,1-.552-1.935,3.66,3.66,0,0,1,.616-2.018,5.276,5.276,0,0,1,1.233-1.309,6.585,6.585,0,0,1,.578-.405,5.727,5.727,0,0,1,.747-.386,4.125,4.125,0,0,1,1.742-.252,5.648,5.648,0,0,1,2.773,1.04,13.6,13.6,0,0,1,3.289,3.374,23.45,23.45,0,0,1,3.292,6.667,16.625,16.625,0,0,1-5-4.329,13.83,13.83,0,0,0-1.861-2.845,5.221,5.221,0,0,0-2.375-1.708,1.957,1.957,0,0,0-1.211.044,4,4,0,0,0-1.131.724,1.781,1.781,0,0,0-.628,2.049,4.394,4.394,0,0,0,1.543,1.821,12.253,12.253,0,0,0,2.1,1.236,44.483,44.483,0,0,0,4.216,1.632C150.133,520.158,152.365,521.137,152.828,521.324Z" transform="matrix(-1, 0, 0, 1, 380, 0)" /><path d="M153.059,521.211c.078-.27,1.549-.961,3.344-1.527a48.16,48.16,0,0,1,5.079-1.267,14.955,14.955,0,0,1,6.928-.047,7.168,7.168,0,0,1,1.866.8,4.483,4.483,0,0,1,1.616,1.671,4.17,4.17,0,0,1,.459,2.378,6.108,6.108,0,0,1-.567,2.027,7.649,7.649,0,0,1-.385.744,6.632,6.632,0,0,1-.557.8,4.711,4.711,0,0,1-1.633,1.186,6.676,6.676,0,0,1-3.441.446,17,17,0,0,1-5.442-1.7,31.125,31.125,0,0,1-7.5-5.137,25,25,0,0,1,4.357.921,15.765,15.765,0,0,1,3.384,1.277,18.071,18.071,0,0,0,3.76,1.917,6.689,6.689,0,0,0,3.669.418,2.594,2.594,0,0,0,1.357-.8,5.1,5.1,0,0,0,.833-1.484,2.322,2.322,0,0,0-.536-2.728,5.579,5.579,0,0,0-2.8-1.136,15.125,15.125,0,0,0-3.036-.152,46.61,46.61,0,0,0-5.565.673c-.819.154-1.962.295-2.983.427Z" transform="matrix(-1, 0, 0, 1, 380, 0)" /><path d="M169.785,520.249c.415.677-3.1,7.591-4.366,10.345a35.918,35.918,0,0,1-1.88,3.73,18.885,18.885,0,0,1-2.7,3.634,21.732,21.732,0,0,1-7.517,5.136c-4.774,1.984-10.36,2.244-14.847.069a9.869,9.869,0,0,1-4.913-4.974,8.7,8.7,0,0,1-.251-5.712,13.1,13.1,0,0,0,2.715,4.578,24.016,24.016,0,0,0,3.03,2.248,10.136,10.136,0,0,0,4.482,2.056,15.238,15.238,0,0,0,4.966.153,17.894,17.894,0,0,0,8.445-3.47,20.19,20.19,0,0,0,5.23-6.089c1.329-2.195,2.477-4.33,3.669-6.26A57.5,57.5,0,0,1,169.785,520.249Z" transform="matrix(-1, 0, 0, 1, 380, 0)" /><g data-name="default" id="default-3" transform="matrix(-1, 0, 0, 1, 380, 0)"><path class="cls-2 color-body" d="M125.09,463.371c9.04,37.246,43.743,55.977,63.789,54.5,18.518-1.37,41.244-8.937,48.759-28.749,2.676-7.054,3.186-15.453,2-25.746" style="fill:#ffffff;--backup-fill:#ffffff" /><path d="M239.67,463.367a23.509,23.509,0,0,1,.808,4.951,59.335,59.335,0,0,1,.111,10.411,38.47,38.47,0,0,1-2.714,11.776c-.384.9-.759,1.777-1.122,2.624l-1.289,2.324c-.208.369-.4.736-.6,1.08l-.662.957c-.426.621-.821,1.2-1.18,1.722a41.689,41.689,0,0,1-10.035,9.529,57.756,57.756,0,0,1-12.839,6.488,78.24,78.24,0,0,1-14,3.625l-3.549.513-3.541.364a37.861,37.861,0,0,1-7.229-.169,51.959,51.959,0,0,1-11.9-2.883,67.6,67.6,0,0,1-10.842-5.082,73.85,73.85,0,0,1-24.222-22.792,76.981,76.981,0,0,1-4.917-8.7,70.281,70.281,0,0,1-5.405-16.6,122.873,122.873,0,0,0,8.063,15.834c1.644,2.69,3.425,5.162,4.976,7.3l2.209,2.876c.684.842,1.251,1.6,1.719,2.219a68.1,68.1,0,0,0,27.676,21.573,48.544,48.544,0,0,0,15.644,3.82c.649.033,1.295.032,1.938.049.643,0,1.28-.047,1.917-.068,1.284-.11,2.567-.232,3.832-.367,1.261-.183,2.516-.332,3.751-.539,1.23-.236,2.459-.43,3.661-.7,9.624-2.051,18.282-5.769,24.919-11.1a40.059,40.059,0,0,0,8.31-8.952,39.093,39.093,0,0,0,2.748-5.1,30.2,30.2,0,0,0,1.942-5.26,58.2,58.2,0,0,0,1.858-12.468C239.9,468.331,239.707,464.592,239.67,463.367Z" /></g><g data-name="default" id="default-4" transform="matrix(-1, 0, 0, 1, 380, 0)"><path class="cls-2 color-body" d="M235.5,491.648a63.409,63.409,0,0,0-26.927,5.575A62.2,62.2,0,0,0,187.5,513c4.568,5.6,4.084,11.914,5.006,18.762C189.5,537,186.5,544,187.1,551.2c.9,10.771,7.485,16.831,17.718,17.24,7.847.315,16.58-3.8,21.823-9.859,6.039-6.977,8.861-14.58,9.651-24.01C236.5,520,237.239,507.763,235.5,491.648Z" style="fill:#ffffff;--backup-fill:#ffffff" /><path class="cls-2 color-body" d="M187.5,513c4.568,5.6,4.084,11.914,5.006,18.762C189.5,537,186.5,544,187.1,551.2c.9,10.771,7.485,16.831,17.718,17.24,7.847.315,16.58-3.8,21.823-9.859,6.039-6.977,8.861-14.58,9.651-24.01.21-14.57.949-26.807-.788-42.922" style="fill:#ffffff;--backup-fill:#ffffff" /><path d="M235.563,491.641c.678.579,1.691,6.775,2.154,14.017.5,7.239.47,15.461.734,20.014q.15,3.015.305,6.127c.035,1.068.118,2.12.1,3.241l-.087,1.725-.134,1.665a41.554,41.554,0,0,1-3.526,13.37,39.729,39.729,0,0,1-3.538,6.155c-.683.962-1.393,1.9-2.135,2.807-.381.46-.809.926-1.214,1.386l-1.295,1.3a34.11,34.11,0,0,1-12.184,7.348,29.011,29.011,0,0,1-6.067,1.418,27.478,27.478,0,0,1-6.318.023,25.166,25.166,0,0,1-6.22-1.542,19.548,19.548,0,0,1-5.639-3.433,18.689,18.689,0,0,1-4.131-5.074,22.277,22.277,0,0,1-2.245-5.788,29.2,29.2,0,0,1-.534-2.912c-.086-.966-.214-1.9-.216-2.891a27.451,27.451,0,0,1,.475-5.677,36.32,36.32,0,0,1,3.48-9.875c.378-.738.769-1.459,1.176-2.157.2-.353.406-.7.615-1.036l.155-.256.078-.127a.153.153,0,0,0,.021-.022l.11-.127.112-.135.014-.168a3.119,3.119,0,0,0,0-.637l-.076-2.237a57.621,57.621,0,0,0-.5-7.967,17.531,17.531,0,0,0-2.414-6.461,13.516,13.516,0,0,1,5.347,5.691,40.084,40.084,0,0,1,3,8.721q.136.531.273,1.058l.134.517.066.257c.022.089.04.145.077.335q.192.969.382,1.924c.007.08.051.166.027.24l-.1.216-.205.434-.415.873a10.986,10.986,0,0,0-.5,1.174l-.34.885q-.322.87-.626,1.683c-.776,2.161-1.355,3.953-1.838,5.156a22.185,22.185,0,0,0-1.713,7.369,19.536,19.536,0,0,0,1.026,7.289,13.235,13.235,0,0,0,3.947,5.7,15.45,15.45,0,0,0,6.314,3.017,22.489,22.489,0,0,0,13.836-1.435,26.649,26.649,0,0,0,10.651-7.948,35.239,35.239,0,0,0,6.1-11.033,39.61,39.61,0,0,0,1.462-5.834,49.93,49.93,0,0,0,.655-5.757q.012-2.975.025-5.847.047-2.9.093-5.7.15-5.572.289-10.765c.046-3.284.364-7.768.566-11.74S235.508,492.776,235.563,491.641Z" /><path class="cls-3" d="M237.065,526.894c-.123-7.446,2.144-15.275-.492-22.358-.419,17.938-32.175,22.97-45.021,16.2,3.814,11.461-.753,15.838-5.85,28.574-1.343,3.355-1.242,9.145.271,13.3,2.151,5.915,20.165,9.948,30.919,5.109C226.812,563.256,237.326,542.715,237.065,526.894Z" /><path d="M237.1,526.893a22.553,22.553,0,0,1,.018,5.752,54.445,54.445,0,0,1-2.595,11.634,63.438,63.438,0,0,1-5.773,12.516,40.372,40.372,0,0,1-7.089,8.934,18.533,18.533,0,0,1-6.911,4.073,30.8,30.8,0,0,1-8.037,1.434,40.357,40.357,0,0,1-8.272-.447,32.059,32.059,0,0,1-8.168-2.336,15.818,15.818,0,0,1-3.852-2.409,8.169,8.169,0,0,1-1.646-1.974,10.905,10.905,0,0,1-.873-2.277,25.026,25.026,0,0,1-.855-8.646,16.168,16.168,0,0,1,.917-4.436c.512-1.286,1.009-2.525,1.546-3.76q1.6-3.633,3.16-7.189a25.041,25.041,0,0,0,2.275-8.237,18.475,18.475,0,0,0-.254-4.122l-.037-.258c-.006-.069-.082-.323-.119-.475l-.279-1.056-.556-2.11q-.676-2.261-1.35-4.514l3.607,1.714,1.856.874a18.468,18.468,0,0,0,1.742.63l.479.153c.131.046.27.078.407.113l.821.212c.545.148,1.113.234,1.666.356a39.565,39.565,0,0,0,6.822.622,47.827,47.827,0,0,0,13.3-1.773,29.318,29.318,0,0,0,11.145-5.624,15.294,15.294,0,0,0,3.6-4.472,13.052,13.052,0,0,0,1.433-5.29l2.618-.44c1.461,4.318,1.236,8.568.864,12.32-.4,3.781-.97,7.241-1.07,10.5a71.952,71.952,0,0,1-.592-10.489c-.072-3.893-.424-8.01-1.924-11.317l3.007-.506a15.353,15.353,0,0,1-3,9.575,18.693,18.693,0,0,1-5.319,4.952,36.2,36.2,0,0,1-9.782,4.07,50.347,50.347,0,0,1-9.963,1.569,49.106,49.106,0,0,1-9.737-.371,37.044,37.044,0,0,1-4.684-1.006c-.192-.049-.383-.106-.571-.173l-.41-.14c-.19-.066-.375-.13-.561-.214a12.164,12.164,0,0,1-1.129-.529c-.059-.043-.044,0-.029.044l.031.116.065.235.13.476c.092.311.157.728.239,1.094l.059.285.064.468.127.954c.11.63.086,1.28.134,1.916a20.619,20.619,0,0,1-1.243,7.4c-.8,2.321-1.806,4.481-2.772,6.605s-1.922,4.207-2.781,6.3c-.209.518-.442,1.052-.629,1.554a10.1,10.1,0,0,0-.434,1.514,17.634,17.634,0,0,0-.362,3.182,22.816,22.816,0,0,0,.692,6.285c.136.5.284.993.457,1.472a3.9,3.9,0,0,0,.657,1.159,8.548,8.548,0,0,0,2.2,1.85,21.963,21.963,0,0,0,5.517,2.3,38.214,38.214,0,0,0,11.593,1.309,24.527,24.527,0,0,0,10.528-2.53,25.5,25.5,0,0,0,7.521-6.988,59.235,59.235,0,0,0,5.31-8.519,74.2,74.2,0,0,0,5.294-13.488,49.471,49.471,0,0,0,1.36-6.449,23.583,23.583,0,0,0,.268-2.4C237.019,527.772,237.065,527.244,237.1,526.893Z" /><g class="cls-4"><path d="M231.735,538.709c.985.865-1.882,6.692-2.582,9.257a26.123,26.123,0,0,1-2.836,6.8,31.671,31.671,0,0,1-2.156,3.235,20.91,20.91,0,0,1-2.938,3.04,27.793,27.793,0,0,1-11.273,5.533,29.358,29.358,0,0,1-9.9.824c1.336-3.829,4.7-7.409,6.3-7.41,6.566.06,11.921-2.4,14.541-6.23,2.876-3.92,4.31-7.95,6.509-11.016A19.526,19.526,0,0,1,231.735,538.709Z" /></g><path d="M206.43,534.544c-.1.246-1.38.579-2.9.755-1.521.2-3.273.208-4.266.235a11.824,11.824,0,0,1-5.62-1.038,5.947,5.947,0,0,1-1.413-.978,3.9,3.9,0,0,1-1.076-1.7,3.67,3.67,0,0,1,.021-2.11,5.314,5.314,0,0,1,.813-1.6,6.5,6.5,0,0,1,.441-.552,5.62,5.62,0,0,1,.607-.581,4.085,4.085,0,0,1,1.6-.733,5.634,5.634,0,0,1,2.954.214,13.594,13.594,0,0,1,4.108,2.308,23.455,23.455,0,0,1,5.04,5.466,16.617,16.617,0,0,1-6.016-2.741,13.844,13.844,0,0,0-2.589-2.2,5.211,5.211,0,0,0-2.76-.968,1.956,1.956,0,0,0-1.15.384,3.991,3.991,0,0,0-.881,1.014,1.782,1.782,0,0,0-.023,2.143,4.382,4.382,0,0,0,1.994,1.31,12.109,12.109,0,0,0,2.366.593,44.2,44.2,0,0,0,4.5.376C203.515,534.187,205.933,534.5,206.43,534.544Z" /><path d="M206.62,534.371c0-.28,1.214-1.359,2.777-2.409a48.31,48.31,0,0,1,4.514-2.649,14.938,14.938,0,0,1,6.633-2,7.166,7.166,0,0,1,2.016.24,4.5,4.5,0,0,1,2.022,1.147,4.176,4.176,0,0,1,1.112,2.152,6.122,6.122,0,0,1,.028,2.1,7.85,7.85,0,0,1-.159.824,6.778,6.778,0,0,1-.309.921,4.733,4.733,0,0,1-1.232,1.6,6.668,6.668,0,0,1-3.176,1.4,16.947,16.947,0,0,1-5.7-.094,31.118,31.118,0,0,1-8.647-2.81,25.029,25.029,0,0,1,4.44-.347,15.842,15.842,0,0,1,3.607.27,18.011,18.011,0,0,0,4.148.778,6.691,6.691,0,0,0,3.638-.635,2.589,2.589,0,0,0,1.074-1.156,5.127,5.127,0,0,0,.381-1.658,2.325,2.325,0,0,0-1.285-2.466,5.572,5.572,0,0,0-3.007-.3,15.177,15.177,0,0,0-2.955.711,46.639,46.639,0,0,0-5.148,2.217c-.743.378-1.8.836-2.742,1.251Z" /><path d="M212.384,549.079c-.281.563-3.127.072-4.289.329a35.813,35.813,0,0,1-6.334.392,22.971,22.971,0,0,1-9.381-1.668c1.037-1.663,3.144-2.789,3.871-2.474a19.74,19.74,0,0,0,7.763,1.552c2.286.053,4.315-.09,6.026.42A6.76,6.76,0,0,1,212.384,549.079Z" /><path d="M212.991,543.429c-.115.638-2.841.748-3.887,1.122a20.49,20.49,0,0,1-5.96.941,15.341,15.341,0,0,1-8.792-2.01c1.171-1.525,3.12-2.5,3.747-2.161a12.7,12.7,0,0,0,7.026,1.465,35,35,0,0,1,5.49-.3A7.194,7.194,0,0,1,212.991,543.429Z" /><path d="M215.382,539.62c-.217.605-2.954.317-4.037.6a29.46,29.46,0,0,1-5.968.59,19.889,19.889,0,0,1-8.867-1.477c.963-1.669,2.911-2.834,3.6-2.536,5.5,2.391,9.736.732,13,1.55A6.847,6.847,0,0,1,215.382,539.62Z" /><path d="M222.666,534.244c.226.3-.3,2.172-1.044,4.295s-1.691,4.5-2.154,5.859A31.572,31.572,0,0,1,218,548.08a16.569,16.569,0,0,1-2.282,3.7,19.12,19.12,0,0,1-7.144,5.011,21.317,21.317,0,0,1-13.92,1.108,15.075,15.075,0,0,1-3.073-1.294,11.779,11.779,0,0,1-2.5-1.945,9.234,9.234,0,0,1-2.438-4.807,16.579,16.579,0,0,0,4.305,2.839c1.493.647,2.883.948,3.592,1.321a15.2,15.2,0,0,0,9.4,1.23,17.875,17.875,0,0,0,7.985-3.364,12.373,12.373,0,0,0,2.665-2.778,26.118,26.118,0,0,0,1.826-3.22c1.079-2.176,2-4.272,2.957-6.191A54.252,54.252,0,0,1,222.666,534.244Z" /></g><path class="cls-5" d="M239.64,463.871s-22.14,22.629-64.388,20c-44.128-2.747-50.162-20-50.162-20,9.04,37.246,43.743,55.977,63.788,54.494.45-.033.905-.073,1.359-.114-2.717-.362-3.054-3.262-1.7-5.42a36.873,36.873,0,0,1,10.456-9.6,63.624,63.624,0,0,1,9.587-5.513,59.9,59.9,0,0,1,12.316-4.086,43.474,43.474,0,0,1,14.611-1.49c.064.589.117,1.162.174,1.74a35.573,35.573,0,0,0,1.962-4.27C240.313,482.563,240.824,474.164,239.64,463.871Z" transform="matrix(-1, 0, 0, 1, 380, 0)" /><path d="M239.662,463.868a55.129,55.129,0,0,1,.888,10.126,50.224,50.224,0,0,1-.791,9.56,36.108,36.108,0,0,1-3.658,10.562l-.74,1.368-.166-1.55-.1-.96c-.028-.12,0-.3-.074-.368l-.4-.031-.4-.021-.581-.023c-.4-.011-.791-.016-1.187-.01a39.657,39.657,0,0,0-4.738.349c-1.566.21-3.111.494-4.62.831-.753.167-1.5.36-2.248.544s-1.474.351-2.194.542a56.047,56.047,0,0,0-13.975,5.769c-1.667.969-3.3,2.015-4.911,3.159a53.48,53.48,0,0,0-4.791,3.573,33.171,33.171,0,0,0-4.267,4.353c-.328.4-.646.814-.96,1.235l-.232.319-.117.159a.559.559,0,0,0-.054.092,4.827,4.827,0,0,0-.288.592,3.71,3.71,0,0,0-.253,1.251,2.443,2.443,0,0,0,.054.588,1.478,1.478,0,0,0,.076.265.885.885,0,0,0,.083.191,2.152,2.152,0,0,0,.231.154l.487.309a4.431,4.431,0,0,0,.219,1.3.339.339,0,0,0,.394.218l-.243.445-.122.23c-.041.092-.083.251-.124.374l-1.743.111-.878.055c-.278.017-.64.006-.828,0-.721-.015-1.448,0-2.167-.061A41.236,41.236,0,0,1,179.92,519a53.947,53.947,0,0,1-8.472-2.1,69.625,69.625,0,0,1-15.789-7.714,75.863,75.863,0,0,1-23.951-25.027,77.352,77.352,0,0,1-4.878-9.945,82.166,82.166,0,0,1-3.195-9.991l2.868-.848c.024.062.1.219.168.357a3.646,3.646,0,0,0,.23.424,8.112,8.112,0,0,0,.537.857,16.729,16.729,0,0,0,1.274,1.648c.441.543.979,1.02,1.461,1.535.508.494,1.075.937,1.607,1.409s1.149.859,1.716,1.294l.87.631c.3.2.614.377.92.566l1.845,1.12c.634.343,1.287.654,1.928.982a73.888,73.888,0,0,0,16.258,5.544c2.795.553,5.554,1.173,8.349,1.506,1.391.194,2.772.412,4.154.586l4.146.383c1.375.107,2.744.3,4.1.337l4.061.139c2.695.176,5.355-.009,7.985-.085l1.967-.07,1.943-.2,3.851-.4c1.28-.105,2.521-.4,3.771-.593,1.242-.228,2.489-.4,3.7-.667l3.606-.866,1.781-.434,1.737-.534,3.434-1.056,3.306-1.236a81,81,0,0,0,12.131-5.821,60.675,60.675,0,0,0,9.986-7.158,55.634,55.634,0,0,1-11.168,9.14,79.844,79.844,0,0,1-15.208,7.5,88.766,88.766,0,0,1-15.535,4.148c-2.391.353-4.619.6-6.594.833-1.98.171-3.72.18-5.136.231a131.31,131.31,0,0,1-17.611-1.012c-1.435-.139-2.852-.417-4.27-.617-1.413-.234-2.829-.4-4.222-.686-2.78-.606-5.557-1.089-8.241-1.9A64.96,64.96,0,0,1,136,475.169a39.022,39.022,0,0,1-6.589-4.7,17.069,17.069,0,0,1-1.446-1.4c-.231-.244-.472-.477-.694-.728l-.639-.781a13.876,13.876,0,0,1-2.161-3.477l1.252-.369a71.99,71.99,0,0,0,24.624,39.2,71.222,71.222,0,0,0,18.467,11,57,57,0,0,0,9.815,2.971,45.116,45.116,0,0,0,4.941.694c.822.064,1.639.122,2.454.116l.548.008a3.045,3.045,0,0,0,.319-.006l.619-.031c.273-.009.541-.046.8-.066l.049,0-.047-.01-.1-.02a.908.908,0,0,1-.193-.055,1.278,1.278,0,0,1-.348-.175,1.207,1.207,0,0,1-.378-.427,1.5,1.5,0,0,1-.085-.188,3.132,3.132,0,0,1-.139-.525,4,4,0,0,1-.073-1.046,5.536,5.536,0,0,1,.465-1.949,5.211,5.211,0,0,1,.493-.905l.524-.7q.534-.7,1.095-1.364a34.983,34.983,0,0,1,4.944-4.793c1.768-1.434,3.638-2.618,5.432-3.846a64.2,64.2,0,0,1,5.609-3.31,57.85,57.85,0,0,1,11.717-4.592c.988-.27,1.986-.516,2.967-.734s1.943-.469,2.933-.663a49.552,49.552,0,0,1,5.913-.873,34.7,34.7,0,0,1,4.21-.125c.378.013.662.025,1.11.058.5.031,1,.086,1.48.13.336-.074.243.287.288.5.022.239.044.474.065.708.033.388.065.768.1,1.136l-1.255-.252a35.338,35.338,0,0,0,3.516-8.927,48.271,48.271,0,0,0,1.3-8.991A86.327,86.327,0,0,0,239.662,463.868Z" transform="matrix(-1, 0, 0, 1, 380, 0)" /><path class="cls-6" d="M138.594,488.658c-.227,4.009,1.25,7.876,2.569,11.641a168.9,168.9,0,0,1,6.852,26.076c11.965,6.245,25.319,8.291,39.93,6.528a112.657,112.657,0,0,1,.189-36.677" transform="matrix(-1, 0, 0, 1, 380, 0)" /><path d="M188.179,496.234c.4.549-.17,5-.378,10.173a87.478,87.478,0,0,0,.367,14.259c.381,2.851.831,5.784,1.378,8.751q.326,1.908.654,3.83l.172,1.013.087.51c0,.037.031.1,0,.116l-.122.016-.246.032-1.993.259-2.037.26c-.342.043-.694.09-1.017.117l-.642.068c-.8.081-1.6.19-2.413.235a69.037,69.037,0,0,1-19.266-1.106,55.759,55.759,0,0,1-7.93-2.18c-1.3-.43-2.55-.963-3.8-1.483l-1.846-.832-2.433-1.215-.851-.428-.424-.213c-.094-.02-.1-.1-.107-.175l-.039-.22-.312-1.756q-.207-1.158-.412-2.308-.343-1.824-.682-3.618-.707-3.582-1.483-7.009c-1.03-4.563-2.138-8.88-3.235-12.891a52.336,52.336,0,0,1-1.392-6.043,18.439,18.439,0,0,1-.041-5.786A31.185,31.185,0,0,0,140,493.879c.955,1.807,2.082,3.642,3.121,5.554a38.438,38.438,0,0,1,3.951,9.816q1.136,6.421,1.97,12.438.1.753.207,1.5l.1.745c.035.251.074.527.073.6a4.928,4.928,0,0,0,.083.754l.567.362a51.739,51.739,0,0,0,5.036,2.441,55.7,55.7,0,0,0,20.252,4.149c1.626.043,3.226.009,4.8-.056l2.337-.143,2.23-.214c.745-.178,1.941.053,1.4-1l-.1-.554-.136-.869c-.116-.738-.207-1.472-.3-2.2a81.691,81.691,0,0,1-.49-16.421,52.9,52.9,0,0,1,1.369-8.541C187.128,499.4,187.913,497.011,188.179,496.234Z" transform="matrix(-1, 0, 0, 1, 380, 0)" /><g class="cls-4" transform="matrix(-1, 0, 0, 1, 380, 0)"><path d="M157.789,523.1c-.011-.369,1.231-1.13,2.607-2.078a27.335,27.335,0,0,0,3.652-2.813,89.133,89.133,0,0,0,7.83-8.567,79.606,79.606,0,0,0,5.217-7.815c1.492-2.541,2.689-4.957,3.728-6.964a9.474,9.474,0,0,1,.825,4.275,8.9,8.9,0,0,1-.259,2.077,3.742,3.742,0,0,1-.55,1.393c-1.719,2.4-3.372,4.5-4.95,6.436s-3.069,3.705-4.566,5.295a33.932,33.932,0,0,1-8.825,7.329,12.878,12.878,0,0,1-2.67,1C158.884,522.905,158.063,523.061,157.789,523.1Z" /></g><path class="cls-6" d="M191.3,494.909c12.543,8.234,21.079,21.166,23.07,34.947,17.727-.8,34.638-10.386,42.983-24.366a1.516,1.516,0,0,0,.312-1.089c-.12-.483-.67-.759-1.151-1-5.582-2.857-7.932-8.839-9.849-14.321l-6.376-18.237a5.665,5.665,0,0,0-1.53-2.653" transform="matrix(-1, 0, 0, 1, 380, 0)" /><path d="M238.783,468.15a1.848,1.848,0,0,1,1.072.8,10.885,10.885,0,0,1,1.252,2.445c.843,1.994,1.881,4.657,2.975,7.52l3.313,8.718a47.163,47.163,0,0,0,3.023,6.83,20.7,20.7,0,0,0,3.485,4.6,12,12,0,0,0,2.246,1.743l.313.19.156.1.305.169,1.239.689a3.364,3.364,0,0,1,1.6,1.926,3.734,3.734,0,0,1-.51,2.775l-1.421,2.336c-.721,1.124-1.511,2.213-2.316,3.3-.869,1.026-1.674,2.128-2.632,3.085l-1.4,1.478c-.483.476-.988.927-1.483,1.391a55.628,55.628,0,0,1-6.347,5.018,60.983,60.983,0,0,1-6.886,3.938,55.352,55.352,0,0,1-9.061,3.489,57.746,57.746,0,0,1-9.4,1.838l-.294.038-.5.037-1.029.074-2.048.145-2.032.142a1.956,1.956,0,0,1-.487.008l-.092-.546-.183-1.089-.363-2.164-.179-1.075c-.035-.218-.051-.28-.069-.363l-.055-.254q-.219-1.017-.436-2.025a51.43,51.43,0,0,0-2.576-7.636,55.451,55.451,0,0,0-7.833-12.889,65.876,65.876,0,0,0-9.311-9.3,33.688,33.688,0,0,1,12.6,6.879c4.015,3.4,7.029,7.532,8.066,9.953a57.35,57.35,0,0,1,3.417,10.031c.186.841.41,1.668.536,2.5l.22,1.245.11.619c.013.116.007.163.012.251l.022.5.016.264c.014.033-.021.118.035.109l.138,0,1.193.02h.32l.568-.054,1.134-.109c.753-.078,1.509-.127,2.246-.268l2.213-.366c.73-.14,1.447-.326,2.166-.487,1.447-.3,2.822-.792,4.211-1.191l2.02-.748a21.292,21.292,0,0,0,1.973-.807l1.925-.862,1.848-.966c1.243-.61,2.373-1.388,3.537-2.073a48.893,48.893,0,0,0,6.248-4.844,46.45,46.45,0,0,0,5.129-5.5c.709-.994,1.458-1.943,2.091-2.951l.655-1.077c.14-.262.369-.518.3-.827-.1-.281-.409-.386-.645-.508l-.363-.189-.089-.046-.174-.112-.374-.246a15.1,15.1,0,0,1-2.738-2.3,22.261,22.261,0,0,1-3.782-5.564,48.263,48.263,0,0,1-2.308-5.729c-.631-1.861-1.217-3.666-1.774-5.451-.882-2.674-1.846-6.407-2.635-9.71-.38-1.652-.734-3.193-1.021-4.44A5.009,5.009,0,0,0,238.783,468.15Z" transform="matrix(-1, 0, 0, 1, 380, 0)" /><path class="cls-6" d="M141.967,486.482a33.416,33.416,0,0,0-12.564,33.19,45.861,45.861,0,0,1-12.911-17.349,31.4,31.4,0,0,1-2.031-13.643,21.161,21.161,0,0,1,2-6.475,84.537,84.537,0,0,1,10.586-17.57" transform="matrix(-1, 0, 0, 1, 380, 0)" /><path d="M127.083,464.664c.122.614-2.092,3.773-4.288,7.628a65.579,65.579,0,0,0-5.208,11.052,27.369,27.369,0,0,0-.926,3.457,14.43,14.43,0,0,0-.212,3.444,35.283,35.283,0,0,0,1.145,7.375,22.314,22.314,0,0,0,1.187,3.423c.518,1.108,1.107,2.3,1.724,3.389a42.1,42.1,0,0,0,4.151,6.152c.276.351.569.69.86,1.029l.187.217c.018.019.011.007.017.011h.015a.029.029,0,0,0,.028-.021c0-.021-.009-.034,0-.011s.029.043.058.021c.007,0,.018-.037.024,0l.09-1.241c.068-.916.244-1.812.366-2.7a33.483,33.483,0,0,1,3.351-9.771,30.155,30.155,0,0,1,11.805-12.318c-.347.672-.747,1.373-1.18,2.082-.409.738-.826,1.515-1.273,2.273-.82,1.6-1.666,3.216-2.35,4.833-1.424,3.2-2.337,6.194-3.118,7.676a26.932,26.932,0,0,0-2.656,7.741c-.068.33-.1.663-.146.994l-.066.5-.037.346c-.012.148-.036.3-.037.443a15.776,15.776,0,0,0,.034,1.772q.039.873.079,1.741l.038.845c.011.278.069.612.1.91q.111.9.22,1.8.107.858.211,1.71.108.766.215,1.528a4.837,4.837,0,0,0-.51-.1c-.051-.022-.057.028-.144-.052l-.27-.25-.533-.494-2.03-1.9c-1.289-1.239-2.527-2.4-3.708-3.706-.594-.623-1.157-1.316-1.711-1.953-.417-.526-.8-.992-1.178-1.5-.762-.993-1.463-2.013-2.132-3.033a53.956,53.956,0,0,1-3.467-6.217,24.139,24.139,0,0,1-1.326-3.246,32.293,32.293,0,0,1-.871-3.284,34.792,34.792,0,0,1-.774-6.472,19.82,19.82,0,0,1,.17-3.251,18.36,18.36,0,0,1,.772-3.1,46.345,46.345,0,0,1,2.287-5.322q1.236-2.492,2.635-4.722a39.742,39.742,0,0,1,4.545-5.93A49.924,49.924,0,0,1,127.083,464.664Z" transform="matrix(-1, 0, 0, 1, 380, 0)" /><path class="cls-3" d="M238.862,459.757c25.506,49.377-133.588,52.7-113.931.162,7.848,34.943,105.154,31.8,114.333.185" transform="matrix(-1, 0, 0, 1, 380, 0)" /><path d="M239.294,460.113a10.651,10.651,0,0,1-.762,2.592,20.085,20.085,0,0,1-3,4.943,30.894,30.894,0,0,1-5.911,5.471,49.813,49.813,0,0,1-8.259,4.711,86.651,86.651,0,0,1-19.27,5.933,132.089,132.089,0,0,1-16.383,2.073,108.1,108.1,0,0,1-34.121-2.85,57.336,57.336,0,0,1-16.556-7,33.023,33.023,0,0,1-6.972-6.055c-.482-.616-.99-1.212-1.424-1.867l-.654-.98c-.192-.289-.472-.822-.43-.734a1.933,1.933,0,0,1-.187-.379c-.014-.023-.025-.125-.039-.075l-.041.16a2.838,2.838,0,0,0-.053.285.393.393,0,0,0,0,.09l-.082.686-.012.7c0,.467-.038.936-.013,1.4l.121,1.378a17.806,17.806,0,0,0,4.544,9.7,30.03,30.03,0,0,0,7.239,5.862,52.291,52.291,0,0,0,8.616,4.075,91.517,91.517,0,0,0,18.549,4.57,134.892,134.892,0,0,0,36.827.164c2.932-.386,5.809-.9,8.617-1.508a82.776,82.776,0,0,0,8.2-2.187,50.981,50.981,0,0,0,14.374-6.922c4.1-2.979,7.269-6.968,8.186-11.473a17.291,17.291,0,0,0,.026-6.693,27.094,27.094,0,0,0-2.069-6.172,24.227,24.227,0,0,1,2.779,5.746,17.444,17.444,0,0,1,.745,7.444,17.837,17.837,0,0,1-2.963,7.7,27.284,27.284,0,0,1-5.826,6.149,41.207,41.207,0,0,1-6.9,4.385,57.46,57.46,0,0,1-6.86,2.993,68.342,68.342,0,0,1-10.933,3.011,135.693,135.693,0,0,1-29.782,1.859,119.887,119.887,0,0,1-27.717-4.3,67.478,67.478,0,0,1-12.535-4.913c-1-.482-1.934-1.09-2.9-1.626-.914-.623-1.871-1.171-2.735-1.858a29.931,29.931,0,0,1-4.866-4.4,20.486,20.486,0,0,1-5.261-11.639c-.037-.532-.1-1.063-.114-1.593l.038-1.588a5.74,5.74,0,0,1,.049-.788l.115-.9a15.258,15.258,0,0,1,.357-2.018c.349-1.259.618-2.51,1.064-3.772l.613-1.887c.024-.06.054-.2.074-.2l.06.016.119.032.238.059c.107.419.258.911.405,1.4l.436,1.451c.141.511.3.9.455,1.331l.464,1.268a8.476,8.476,0,0,0,.514,1.136l.495.884c.266.464.586.9.874,1.345a25.178,25.178,0,0,0,4.325,4.67,40.854,40.854,0,0,0,10.771,6.368,83.309,83.309,0,0,0,23.307,5.487,126.021,126.021,0,0,0,22.372.2,117.073,117.073,0,0,0,20.483-3.388c5.761-1.537,13.593-4.191,19.515-8.283a27.686,27.686,0,0,0,6.971-6.563A20.5,20.5,0,0,0,239.294,460.113Z" transform="matrix(-1, 0, 0, 1, 380, 0)" /><path class="cls-3" d="M165.484,487.83l-2.249,9.711s23.361,3.607,26.02,2.086c2.53-1.447,3.937-7.783,1.831-9.279-4.033-2.866-8.771-1.514-26.256-4.307" transform="matrix(-1, 0, 0, 1, 380, 0)" /><path d="M164.835,486.011c.344-.271,3.155.034,6.4.335s6.935.575,9.006.575c1.8.009,3.662.017,5.63.183a18.021,18.021,0,0,1,3.065.515,10.982,10.982,0,0,1,3.094,1.392,4,4,0,0,1,1.359,1.777,5.984,5.984,0,0,1,.411,1.759,10.572,10.572,0,0,1-.215,3.135,11.352,11.352,0,0,1-1.018,2.9,8.7,8.7,0,0,1-.9,1.39,5.859,5.859,0,0,1-1.468,1.306c-.227.108-.455.209-.682.3-.22.064-.405.107-.584.15-.322.059-.627.11-.9.135a34.6,34.6,0,0,1-5.23.008c-1.669-.1-3.305-.251-4.914-.43-3.217-.359-6.323-.827-9.273-1.346l-4.947-.917-1.769-.332-.427-.082a1.515,1.515,0,0,1,.087-.426l.233-.878q.232-.851.46-1.687l.209-.74.147-.474c.788-2.515,1.567-4.821,2.319-6.855a36,36,0,0,1,.265,7.685l-.015.253-.008.126.013.034a.806.806,0,0,0,.053.113.3.3,0,0,0,.113.121c.048.06.243-.052.271-.075a.5.5,0,0,1,.063-.048c.019,0-.028-.01.045,0l.186.019.355.042a9.934,9.934,0,0,1,1.178.211,116.361,116.361,0,0,0,11.4,2.321c1.824.269,3.61.483,5.349.61.869.061,1.726.1,2.559.1.416,0,.824-.021,1.213-.057a2.863,2.863,0,0,0,.937-.214,4.369,4.369,0,0,0,1.416-1.726,8.876,8.876,0,0,0,.785-2.293,7.623,7.623,0,0,0,.127-2.3,2.173,2.173,0,0,0-.691-1.557c-2.432-1.618-5.58-1.608-8.452-1.879-2.9-.218-5.661-.465-8.243-.878A60.282,60.282,0,0,1,164.835,486.011Z" transform="matrix(-1, 0, 0, 1, 380, 0)" /><path class="cls-7" d="M166.124,484.794l-16.146-2.2a1.634,1.634,0,0,0-1.859,1.5,96.134,96.134,0,0,0,.169,10.924,1.639,1.639,0,0,0,1.4,1.5l16.88,2.432a1.636,1.636,0,0,0,1.861-1.833c-.4-2.988-.6-8.022-.9-10.871A1.633,1.633,0,0,0,166.124,484.794ZM152.858,492.3a22.766,22.766,0,0,1,.308-2.93,1.651,1.651,0,0,1,1.662-1.365l5.989.153a1.642,1.642,0,0,1,1.6,1.536c.059.932.081,1.926.2,2.869a1.651,1.651,0,0,1-1.734,1.885l-6.5-.441A1.639,1.639,0,0,1,152.858,492.3Z" transform="matrix(-1, 0, 0, 1, 380, 0)" /><path class="cls-8" d="M166.124,484.794l-16.146-2.2a1.634,1.634,0,0,0-1.859,1.5,96.134,96.134,0,0,0,.169,10.924,1.639,1.639,0,0,0,1.4,1.5l16.88,2.432a1.636,1.636,0,0,0,1.861-1.833c-.4-2.988-.6-8.022-.9-10.871A1.633,1.633,0,0,0,166.124,484.794ZM152.858,492.3a22.766,22.766,0,0,1,.308-2.93,1.651,1.651,0,0,1,1.662-1.365l5.989.153a1.642,1.642,0,0,1,1.6,1.536c.059.932.081,1.926.2,2.869a1.651,1.651,0,0,1-1.734,1.885l-6.5-.441A1.639,1.639,0,0,1,152.858,492.3Z" transform="matrix(-1, 0, 0, 1, 380, 0)" /><path d="M152.881,492.3c.122.062.181.353.405.655a1.382,1.382,0,0,0,1.1.588c1.25,0,2.715.034,3.52-.045.716-.071,1.457-.117,2.21-.146l.568-.018.281-.007a.622.622,0,0,0,.089-.028.453.453,0,0,0,.229-.205.438.438,0,0,0,.048-.28.37.37,0,0,0-.016-.07l-.032-.254-.069-.586q-.066-.586-.132-1.165l-.063-.576a2.934,2.934,0,0,0-.052-.4.215.215,0,0,0-.156-.1l-1.595-.051c-1.246-.054-2.46-.142-3.617-.26l-.814-.092a.459.459,0,0,0-.23-.024.562.562,0,0,0-.252.115.579.579,0,0,0-.11.111.41.41,0,0,0-.093.22c-.247.948-.522,1.835-.813,2.642a8.316,8.316,0,0,1-1.175-3.082,2.652,2.652,0,0,1,2.139-2.684,1.976,1.976,0,0,1,.76-.01,40.746,40.746,0,0,0,5.854.946,2.353,2.353,0,0,1,1.621.851,2.3,2.3,0,0,1,.417.794,3.276,3.276,0,0,1,.107.778c.053.849.124,1.67.2,2.462a2.477,2.477,0,0,1-.223,1.546,2.32,2.32,0,0,1-1.172,1.08,2.292,2.292,0,0,1-.787.174c-.3.008-.4,0-.612-.006l-1.079-.028a33.9,33.9,0,0,1-3.951-.3,7.535,7.535,0,0,1-.988-.192,2.048,2.048,0,0,1-1.211-.709A1.66,1.66,0,0,1,152.881,492.3Z" transform="matrix(-1, 0, 0, 1, 380, 0)" /><path d="M166.127,484.772a.858.858,0,0,1,.641.048,1.732,1.732,0,0,1,.983,1.015,4.669,4.669,0,0,1,.176.874c.039.294.08.6.122.928.071.647.147,1.348.226,2.073.145,1.446.3,2.989.441,4.4.078.7.163,1.369.254,1.968.05.3.1.58.141.844a2.556,2.556,0,0,1-.007,1.034,2.411,2.411,0,0,1-1,1.468,2.591,2.591,0,0,1-1.766.4L163.8,499.6l-5.19-.553-5.223-.627-2.578-.323-1.272-.161a3.117,3.117,0,0,1-2-1.083,3.072,3.072,0,0,1-.522-.894,3.135,3.135,0,0,1-.141-.5,3.99,3.99,0,0,1-.055-.434l-.085-1.117q-.06-1.11-.121-2.212c-.062-1.47-.093-2.931-.078-4.383.007-.726.026-1.45.064-2.174l.07-1.087a3.044,3.044,0,0,1,2.295-2.774,3.049,3.049,0,0,1,.94-.088l.233.024.139.021.252.041,1.984.332c5.228.894,9.932,1.845,13.67,2.769a41.028,41.028,0,0,1-12.555.2l-3.436-.765-.385-.083a.49.49,0,0,0-.137-.027.568.568,0,0,0-.29.065.618.618,0,0,0-.224.216.531.531,0,0,0-.061.149c-.018.06-.033.25-.049.368a56.054,56.054,0,0,0-.291,6.421q.007,1.568.073,3.083a5.633,5.633,0,0,0,.126,1.3,1.049,1.049,0,0,0,.694.616c.114.034.442.071.658.1l.723.105,1.428.2,2.791.375,10.3,1.293,1.169.148a.824.824,0,0,0,.872-.613.755.755,0,0,0,.019-.277l-.065-.546c-.173-1.528-.258-2.988-.309-4.4-.071-1.339-.023-3.169.019-4.774.008-.4.017-.788.025-1.151a1.476,1.476,0,0,0-.184-.863A1.633,1.633,0,0,0,166.127,484.772Z" transform="matrix(-1, 0, 0, 1, 380, 0)" /><path class="cls-7" d="M147.441,487.41a16.929,16.929,0,0,0,8.492,1.03,7.285,7.285,0,0,1,.762,2.319,2.47,2.47,0,0,1-.82,2.2,3.075,3.075,0,0,1-1.139.482,9.617,9.617,0,0,1-6.111-.521,5.233,5.233,0,0,1-2.4-1.88,2.775,2.775,0,0,1-.11-2.923,1.915,1.915,0,0,1,2.685-.535" transform="matrix(-1, 0, 0, 1, 380, 0)" /><path d="M148.785,487.607c-.153.088-.436-.011-.813.039a1.771,1.771,0,0,0-1.156.6,1.616,1.616,0,0,0-.272,1.367,1.789,1.789,0,0,0,.621,1.042,7.659,7.659,0,0,0,3.6,1.241,9.211,9.211,0,0,0,2,.009,8.47,8.47,0,0,0,.958-.162,5.5,5.5,0,0,0,.831-.253c.133-.062.117-.075.111-.08,0-.035-.03.02.006-.088a1.222,1.222,0,0,0,.028-.408,2.488,2.488,0,0,0-.054-.327c0-.04.006-.016.009-.031a.149.149,0,0,0,.025-.07.127.127,0,0,0-.049-.077c-.017,0,.01-.008-.044-.009l-.167,0-.333-.018c-.221-.01-.439-.03-.655-.053a13.584,13.584,0,0,1-2.443-.485,11.39,11.39,0,0,1-3.76-1.9,22.669,22.669,0,0,1,3.421-1.064,5.662,5.662,0,0,1,2.467-.248,9.329,9.329,0,0,0,1.289.343c.778.068,1.621.034,2.308.041a11.031,11.031,0,0,1,.949,3.713,4.134,4.134,0,0,1-.3,1.575,3.005,3.005,0,0,1-1.006,1.3,5.272,5.272,0,0,1-2.117.728,11.709,11.709,0,0,1-1.935.187,11.246,11.246,0,0,1-3.622-.524,6.505,6.505,0,0,1-3.042-1.878,3.78,3.78,0,0,1-.8-3.554,2.517,2.517,0,0,1,.853-1.263,2.445,2.445,0,0,1,1.468-.514,2.038,2.038,0,0,1,1.178.331A1.37,1.37,0,0,1,148.785,487.607Z" transform="matrix(-1, 0, 0, 1, 380, 0)" /></svg>