<svg xmlns="http://www.w3.org/2000/svg" viewBox="0 0 380 600"><defs><style>.cls-1{opacity:0.3;}.cls-2{fill:#fff;}.cls-3,.cls-5{fill:#cec2cb;}.cls-4{fill:#bc8b69;}.cls-5{stroke:#000;stroke-linecap:round;stroke-linejoin:round;stroke-width:3px;}</style></defs><g id="Designs"><g class="cls-1"><path d="M190,587.22c42.8,0,77.5-17.35,77.5-38.75s-34.7-38.75-77.5-38.75-77.5,17.35-77.5,38.75,34.7,38.75,77.5,38.75"></path><path d="M190,587.28c-.76.29-4.77.58-10.7.36a128.38,128.38,0,0,1-22-2.79,100.78,100.78,0,0,1-24.34-8.41,62.22,62.22,0,0,1-10-6.27,42,42,0,0,1-7-6.8,29,29,0,0,1-4-6.48,22.27,22.27,0,0,1-1.83-7.72,24.64,24.64,0,0,1,4.63-15.32,40.54,40.54,0,0,1,5.22-6.08,57.43,57.43,0,0,1,6.17-5,77.9,77.9,0,0,1,13.83-7.46,121.22,121.22,0,0,1,30-8,157.24,157.24,0,0,1,30.25-1.18,136.59,136.59,0,0,1,25.63,3.8,95.85,95.85,0,0,1,24.1,9.32,59.59,59.59,0,0,1,10.62,7.61,39.7,39.7,0,0,1,4.53,4.89,31.28,31.28,0,0,1,3.61,5.77,25.76,25.76,0,0,1,2.14,6.6,23.76,23.76,0,0,1,.17,6.94,25.82,25.82,0,0,1-1.78,6.57,30.2,30.2,0,0,1-3.25,5.66,40.68,40.68,0,0,1-8.7,8.64,62.71,62.71,0,0,1-9.87,6,94.71,94.71,0,0,1-20.3,7.14,125.61,125.61,0,0,1-19.43,3,141,141,0,0,1-17.69.25c9.93-1.6,24.2-4.21,36.81-8.74a110.84,110.84,0,0,0,17-7.55,76.88,76.88,0,0,0,10.91-7.31,31.74,31.74,0,0,0,6.29-6.52,19.51,19.51,0,0,0,3.26-7.83,17.2,17.2,0,0,0-.79-8.31,23.75,23.75,0,0,0-4.39-7.53,48.54,48.54,0,0,0-14.18-11.1,87.11,87.11,0,0,0-16.64-6.83,117.44,117.44,0,0,0-17.15-3.82,143.84,143.84,0,0,0-49.4,1.22,98.27,98.27,0,0,0-28.41,10.15A51.13,51.13,0,0,0,122,532.62a31.59,31.59,0,0,0-4.17,5.23,22.77,22.77,0,0,0-2.57,5.85,18.16,18.16,0,0,0,.93,12,29.65,29.65,0,0,0,7.3,9.76c6.15,5.51,13.53,9.3,20.87,12.2,3.52,1.35,7.74,2.8,12.24,4.06s9.27,2.37,13.78,3.18,8.75,1.38,12.2,1.76S188.66,587.17,190,587.28Z"></path></g><g id="default"><path class="cls-2 color-body" d="M254.87,465.15c-5.8,23.74-18.27,52.93-19.51,54.49,3.34,2.57,6.52,8.2,8.28,11.35,2.44,4.39,3,10,.8,14.51-3.81,7.81-14.16,9.86-22.61,8.13-9.71-2-16.62-7.8-22.45-15.92-4.48-6.27-4.1-13.87-4.54-21.58-.41-2.34-.38-19.38-.38-22.16" style="fill:#ffffff;--backup-fill:#ffffff"></path><path d="M194.49,494a55.73,55.73,0,0,1,.43,7.44c.06,2,.13,4.39.2,6.87s.12,5.14.39,7.66l0,.15c.23,3.27.32,6.49.66,9.35a27.81,27.81,0,0,0,1.62,7.09,19.47,19.47,0,0,0,1.48,3,26.77,26.77,0,0,0,2,2.75,52.93,52.93,0,0,0,4.74,5.21,32.42,32.42,0,0,0,12,7.39A27.23,27.23,0,0,0,231.83,552a18.76,18.76,0,0,0,6.26-2.33,12,12,0,0,0,4.3-4.47c2.18-3.85,1.75-9-.3-12.87-1.14-2.1-2.39-4.25-3.68-6.18a32.23,32.23,0,0,0-2-2.73c-.35-.42-.71-.83-1.07-1.2-.56-.53-1.5-1.34-2.39-2.08l1-1.82.68-1.36.87-1.87c.57-1.26,1.14-2.51,1.68-3.77,1.09-2.51,2.13-5,3.14-7.46,2-4.9,3.88-9.67,5.6-14.23,3.46-9.11,6.28-17.44,8.46-24.63A116.32,116.32,0,0,1,251,483.64a121.62,121.62,0,0,1-5,15.82c-1.58,3.72-3.17,7.35-4.74,10.84-.79,1.74-1.58,3.45-2.36,5.11q-.59,1.25-1.2,2.46l-.3.61-.24.45a3.67,3.67,0,0,0-.27.46,4.36,4.36,0,0,1,.32.31l.2.2.33.36c.49.52.93,1.06,1.36,1.61a38.72,38.72,0,0,1,2.32,3.36c.72,1.14,1.38,2.28,2,3.43.31.57.62,1.14.94,1.71s.61,1.21.87,1.82a18.07,18.07,0,0,1,1.41,7.77,14.78,14.78,0,0,1-2.31,7.35,15.52,15.52,0,0,1-5.54,5,21.54,21.54,0,0,1-6.81,2.31,29.38,29.38,0,0,1-13.56-1,33.49,33.49,0,0,1-11.35-6,48.23,48.23,0,0,1-8.25-8.84,21.1,21.1,0,0,1-2.86-5.22,27.51,27.51,0,0,1-1.39-5.55,92.09,92.09,0,0,1-.66-10.62c0-.38,0-.77,0-1.16v-.06a62.58,62.58,0,0,1-.09-6.47c0-2.24.13-4.53.23-6.65C194.17,498.77,194.4,495.19,194.49,494Z"></path></g><g id="default-2" data-name="default"><path class="cls-3 color-pants" d="M195.67,527.9a32.57,32.57,0,0,0,11.88,2.31,71.69,71.69,0,0,0,23.89-3.85,63.46,63.46,0,0,0,7.46-2.93c-1.12-1.49,5.2-17.24,4-18.18,1.24-1.56,6.19-16.36,12-40.1L194.46,494c0,2.78,0,19.82.38,22.16C195.07,520.14,195.08,524.12,195.67,527.9Z"></path><path d="M195.62,527.91a12.38,12.38,0,0,1-.86-3.7c-.28-2.07-.45-4.88-.7-8l0-.13c-.32-2.64-.37-5.4-.48-8.28s-.14-5.82-.21-8.66c0-1.55,0-3.07-.08-4.54a9.1,9.1,0,0,1,0-1.39l1.24-.62,2-1c2.22-1.13,4.19-2.14,5.76-3,9-4.84,18.83-9.84,28.74-14.8l14.88-7.37,12.38-6,.44-.21.23-.11,0,0v.06l0,.12-.23.95-.46,1.89c-.3,1.26-.61,2.52-.91,3.78l-1.57,6.42c-1.39,5.68-2.88,11.32-4.51,16.87-.81,2.77-1.65,5.51-2.56,8.24-.45,1.36-.92,2.71-1.42,4.07-.26.68-.51,1.35-.81,2.06-.16.36-.28.68-.49,1.09l-.29.59a8.25,8.25,0,0,1-.57.88l-.5-4.14a3.72,3.72,0,0,1,1,1.2,1.08,1.08,0,0,1,.09.23l.06.16c0,.11.06.22.08.33s.05.22.07.33a1.91,1.91,0,0,1,0,.2l0,.36a4.28,4.28,0,0,1,0,.55,4.09,4.09,0,0,1-.05.45c-.07.56-.17,1-.26,1.42-.2.85-.42,1.64-.64,2.41-.45,1.54-.92,3-1.38,4.46s-.92,2.87-1.33,4.26c-.21.69-.4,1.37-.56,2l-.11.48a1.79,1.79,0,0,1-.13.46l-.45.32-.22.16c-.08,0-.05.14-.09.21l-.2.83c0,.16-.07.32-.1.47a3.09,3.09,0,0,1-.13.45c-.12.39-.25.78-.37,1.17l-1.33.58-1,.4-1.5.57c-1,.37-2,.7-3,1-2,.61-4,1.14-5.93,1.6a71.55,71.55,0,0,1-11.56,1.77,54.5,54.5,0,0,1-10.83-.31,29.72,29.72,0,0,1-9.46-2.79,39.44,39.44,0,0,0,9.76.54A72.93,72.93,0,0,0,216,527.67c7.12-1.53,13.61-3.95,17-4.95.69-.2,1.37-.42,2-.65l1-.34h.13c.07,0,.17,0,.16,0l0-.07c0-.06,0-.14.07-.28.1-.45.2-.88.32-1.29.22-.81.47-1.58.71-2.34.5-1.51,1-3,1.53-4.4s1-2.86,1.44-4.25c.22-.69.43-1.38.6-2,.08-.32.15-.64.2-.91l0-.27s-.11,0,.28,0l.2,0h.13a1.09,1.09,0,0,0,.26,0c.16,0,.39-.15.47-.16a.25.25,0,0,0,.19-.15l.09-.16-.82-.7-.53-.46v0l0,0,.07-.11.22-.42c.15-.28.3-.63.44-.94.29-.66.58-1.33.84-2,.54-1.36,1-2.74,1.53-4.11,1-2.76,1.88-5.51,2.72-8.23,1.7-5.45,3.2-10.81,4.57-16,.25-.95.49-1.9.73-2.84l.3-1.19.15-.6.07-.3a2,2,0,0,0-.26.12l-5,2.41-13.43,6.55-24.61,12.1q-5.81,2.83-11.3,5.44l-2.16,1a2.8,2.8,0,0,0-.3.15v.33l0,.87c0,2-.05,3.9-.08,5.81s-.08,4.23-.16,6.62-.2,4.93-.14,7.21v.23c-.06,2.73-.12,5.31-.17,7.39S195.58,527.14,195.62,527.91Z"></path></g><g id="default-3" data-name="default"><path class="cls-4 color-shoes" d="M244.5,535.41c-5.09.53-10.24-.21-14.35-2.9a11.8,11.8,0,0,1-6,6.37c-5.61,2.46-12.23.93-17.64-1.33-3-1.25-7.63-5.82-10.34-7.81.44,4.28.64,4.34,3.23,8,5.83,8.12,12.74,13.93,22.45,15.92,8.45,1.73,18.8-.32,22.61-8.13,2.21-4.52,1.64-10.12-.8-14.51C243.22,530.25,245.06,536.35,244.5,535.41Z"></path><path d="M244.53,535.39l.05,0s0,0,0,0,0,.07,0,0h0l0,0a1.28,1.28,0,0,1-.08-.2l-.26-.78c-.21-.63-.5-1.49-.81-2.54-.07-.28-.15-.51-.22-.88v-.13a.38.38,0,0,1,.07-.21.48.48,0,0,1,.22-.19.51.51,0,0,1,.32,0,.47.47,0,0,1,.18.13l.08.11,0,.05.11.2.23.41a17.31,17.31,0,0,1,.86,1.83,17.64,17.64,0,0,1,1.1,4.39,14.85,14.85,0,0,1-1.91,9.43,16.24,16.24,0,0,1-5.78,5.55,21.35,21.35,0,0,1-5.09,2.11,27.84,27.84,0,0,1-5.57.83,30.61,30.61,0,0,1-11.37-1.73,33.54,33.54,0,0,1-10.16-5.69,47.84,47.84,0,0,1-7.79-8.15l-.89-1.19L196.46,537a12,12,0,0,1-1.3-2.24,8.83,8.83,0,0,1-.59-1.92c-.24-1.2-.35-2.47-.5-3.82s-.26-2.45-.39-3.64l3.78,2.87c1.32,1,2.73,2.23,4.11,3.41l1.83,1.52,1,.79c.67.5,1.34,1,2,1.37.34.19.61.33.94.48s.77.33,1.15.47c.77.3,1.54.58,2.31.82a28.88,28.88,0,0,0,4.58,1.08,15.65,15.65,0,0,0,8.39-.88,9.68,9.68,0,0,0,3.09-2.18,11.87,11.87,0,0,0,1.18-1.47l.18-.29a2.82,2.82,0,0,0,.21-.38l.41-.78.74-1.53c.56.34,1.1.69,1.63,1l.8.49.4.23.23.11a15.26,15.26,0,0,0,1.8.83,20.07,20.07,0,0,0,3.54,1,28.24,28.24,0,0,0,6.47.48,20.26,20.26,0,0,1-7,1,18.22,18.22,0,0,1-4.14-.56,17.52,17.52,0,0,1-2.06-.65,2.5,2.5,0,0,0-.5-.07c0,.16-.05.31-.07.46s0,0,0,0l-.12.21-.23.42c-.15.27-.33.54-.5.8a12.48,12.48,0,0,1-2.45,2.65,11,11,0,0,1-2.7,1.6,13.32,13.32,0,0,1-2.25.72,21,21,0,0,1-7.94,0,35.17,35.17,0,0,1-7.06-2.17c-.56-.24-1.07-.46-1.66-.74a13.34,13.34,0,0,1-1.62-1c-1-.69-1.9-1.43-2.78-2.16l-.21-.19-.15-.14-.31-.29-.66-.6c-.45-.41-.92-.85-1.43-1.28l-.29-.25-.15-.12c-.06,0,0,.08,0,.11l0,.65a6.29,6.29,0,0,0,.23,1.33,5.11,5.11,0,0,0,.66,1.24c.32.47.65.93,1,1.39a48.61,48.61,0,0,0,6,7,31.25,31.25,0,0,0,14.65,8.11,25.84,25.84,0,0,0,14.88-.66,15.05,15.05,0,0,0,5.67-3.58,8.83,8.83,0,0,0,1.06-1.23l.48-.64.4-.68a11.42,11.42,0,0,0,1.23-2.88,16.59,16.59,0,0,0,.56-4.47,18.11,18.11,0,0,0-.81-5c-.11-.4-.26-.77-.4-1.15-.06-.18-.15-.36-.22-.54l-.12-.26,0-.13s0-.06,0-.05.34-.21.27-.24.1,0,.26,0h.09v.17l0,.27c0,.18.06.36.08.53.06.35.12.68.18,1l.26,1.64c0,.23.06.44.08.62a1.91,1.91,0,0,1,0,.24C244.59,535.56,244.55,535.42,244.53,535.39Z"></path></g><g id="default-4" data-name="default"><path class="cls-2 color-body" d="M192.46,513c-4.57,5.6-4.08,11.92-5,18.76,3,5.24,6,12.24,5.4,19.44-.89,10.77-7.48,16.83-17.72,17.24-7.84.32-16.57-3.8-21.82-9.86-6-7-8.86-14.58-9.65-24-.21-14.57-.95-26.81.79-42.92" style="fill:#ffffff;--backup-fill:#ffffff"></path><path d="M144.52,491.63c.57.72.16,6.92.17,14.08s.34,15.31.79,19.85c.21,2,.39,4,.56,6.12.1,1,.14,2,.26,3l.23,1.41.28,1.49a40,40,0,0,0,3.93,11.25,35.9,35.9,0,0,0,3.24,5c.62.78,1.26,1.55,1.93,2.29.32.36.65.67,1,1l1,1a27,27,0,0,0,9.7,5.35,23.05,23.05,0,0,0,4.56.92,21.08,21.08,0,0,0,4.49-.06,14.36,14.36,0,0,0,7.62-3.08,13.3,13.3,0,0,0,4.17-6.76c.21-.67.34-1.39.49-2.09s.25-1.45.28-2.14a22.39,22.39,0,0,0-.07-4.25,33.79,33.79,0,0,0-2.18-8.39c-.26-.68-.54-1.35-.83-2l-.44-1-.11-.24-.06-.12-.11-.23-.45-.86c-.14-.28-.3-.56-.42-.85l.15-.94c.09-.53.18-1.05.26-1.57l.36-2.13a48.13,48.13,0,0,1,1.93-8.49,21,21,0,0,1,1.85-3.81,18.25,18.25,0,0,1,2.48-3.09,24.57,24.57,0,0,0-1.41,7.72c0,2.76.31,5.66.49,8.68,0,.73.06,1.46.1,2.19a1.17,1.17,0,0,0,.12.2.47.47,0,0,0,.19.11c0-.1.3.39.48.65s.4.61.59.91c.39.6.73,1.21,1.06,1.8a22.31,22.31,0,0,1,2.39,6.22,32.54,32.54,0,0,1,.44,9.79,27.55,27.55,0,0,1-2.66,9.06,18.92,18.92,0,0,1-6.07,7,20.57,20.57,0,0,1-8.12,3.18c-.69.09-1.39.19-2.07.26s-1.37.08-2.06.1a26.09,26.09,0,0,1-4.07-.3,30.2,30.2,0,0,1-7.52-2.17,31.88,31.88,0,0,1-11.94-8.72,40.23,40.23,0,0,1-7.12-11.83,42.89,42.89,0,0,1-1.88-6.32,50.29,50.29,0,0,1-1-6.34c-.07-2-.13-4-.2-5.95s-.09-3.83-.14-5.7c-.07-3.75-.06-7.37.1-10.88A85.26,85.26,0,0,1,142.66,500C143.36,496.08,144.22,492.72,144.52,491.63Z"></path></g><path class="cls-3 color-pants" d="M142.32,463.34l-2.59-2.56c-1.42,13.2,3.54,54.65,3.79,66.06,5.68,6.43,23.57,14.8,44.53,6q-.28-.55-.6-1.08c.67-5,.61-9.66,2.27-14l1.36.12c20,1.48,54.75-17.25,63.79-54.5Z"></path><path d="M142.32,463.3c2.73-.95,51.94-.91,70.9-1.45,8.37-.24,17-.43,25.88-.59l14.57-.21,3,0h.75c.23,0,.63-.1.44.25l-.38,1.43-.75,2.9-.38,1.45c-.12.5-.29,1-.35,1.19-.65,2.24-1.42,4.45-2.27,6.62a75.26,75.26,0,0,1-15,23.57,77,77,0,0,1-22,16.37,56.72,56.72,0,0,1-21.13,6c-.94.06-1.88.07-2.83.07l-.71,0h-.15s0,0,0,0l-.16.72c-.08.38-.16.76-.22,1.15-.26,1.55-.42,3.19-.58,4.89l-.26,2.59-.16,1.32-.07.53c.24.28,1.33.82,1.2,1l.74,1.33-6.71,2.51c-1.36.48-2.77.81-4.15,1.21s-2.82.57-4.22.86-2.85.35-4.27.47a47.09,47.09,0,0,1-16.71-2,44.17,44.17,0,0,1-7.63-3.3,36.26,36.26,0,0,1-3.5-2.29,17,17,0,0,1-1.64-1.33,9,9,0,0,1-.8-.72l-1.11-1.15L141,528a4,4,0,0,1-.08-.86l0-1.57c0-.61,0-1.21-.06-1.83-.06-1.24-.13-2.46-.19-3.68-.16-2.46-.31-4.9-.47-7.3-.65-9.65-1.28-18.9-1.65-27.6-.17-4.36-.32-8.58-.32-12.66a89.58,89.58,0,0,1,.57-11.83l.28-2.07,1.39,1.48,2.5,2.66c-.89-.67-1.82-1.38-2.91-2.25l-.7-.56,0,.81c.14,4.63.83,9.91,1.54,15.49s1.54,11.43,2.3,17.07c1.53,11.29,2.78,21.77,3,27.54,0,1.2.06,2.4.1,3.59v1.17l0,0s0,.06,0,.08,0,0,.05.09a24.85,24.85,0,0,0,4.94,3.81,38.18,38.18,0,0,0,12,4.42,40.21,40.21,0,0,0,12.66.35,44.92,44.92,0,0,0,6.13-1.22l1.51-.4c.49-.15,1-.34,1.46-.51l.74-.24.36-.13.1,0,0,0,0,0-.08-.16c0-.12-.16-.23-.16-.36l.1-.67.2-1.64c.13-1.12.25-2.23.37-3.34s.28-2.25.48-3.38c.1-.57.21-1.14.34-1.7l.1-.43c0-.13.07-.28.13-.48.11-.38.21-.76.34-1.13l.38-1.12.2-.55.1-.28c0-.06,0-.24.16-.19l2.34.15,1.86.1,1.57,0a42,42,0,0,0,6.23-.7,62.33,62.33,0,0,0,22.5-9.57,71.7,71.7,0,0,0,27.71-35.23c.31-.84.61-1.68.86-2.54s.6-1.88.67-2.18L253,465c.19-.33-.21-.21-.42-.23l-.71,0-9.72.08-20.23.12c-13.11.06-25.5,0-37.21-.11C170.87,464.77,147,463.58,142.32,463.3Z"></path><ellipse class="cls-5 color-pants" cx="196.91" cy="461.96" rx="57.75" ry="25.5"></ellipse><g id="default-5" data-name="default"><path class="cls-4 color-shoes" d="M176.93,546.69s-5.68,8.1-19.12.48a41.68,41.68,0,0,1-13.5-12.82c-.25-.38-.48-.77-.71-1.16,0,1.37.05-.05.07,1.35.79,9.43,3.61,17,9.65,24,5.25,6.06,14,10.18,21.82,9.86,10.24-.41,16.83-6.47,17.72-17.24.3-3.57-.29-4.3-1.33-7.58C185.19,552.2,176.93,546.69,176.93,546.69Z"></path><path d="M176.94,546.66a19.07,19.07,0,0,0,5.22,1.28,9.25,9.25,0,0,0,4.68-1,6.47,6.47,0,0,0,1.14-.7,6,6,0,0,0,1.16-1c.43-.46.88-.84,1.31-1.38l1.3-1.61s.05,0,.08,0l0,.16.11.31.21.63.44,1.28.44,1.27c.14.43.27.89.35,1.19a13.65,13.65,0,0,1,.25,4,27.14,27.14,0,0,1-1.16,6.39,16.88,16.88,0,0,1-7,9.39,18.6,18.6,0,0,1-5.72,2.4,25.11,25.11,0,0,1-6.18.72,29,29,0,0,1-12-3,31.07,31.07,0,0,1-9.72-7.23,39.23,39.23,0,0,1-7.64-12.77,42.46,42.46,0,0,1-1.84-7c-.2-1.16-.36-2.31-.48-3.44-.06-.59-.11-1.18-.16-1.76a6.38,6.38,0,0,1,0-.83s0,0,0,0c.58,0,1-.06,1.49-.13a1.06,1.06,0,0,0,.37-.06h0s0,.07.05.07c1.83,3.22-.45,1.28-.43,1.81a2,2,0,0,1-1.4-1.15,1.64,1.64,0,0,1-.1-.28c0-.07,0-.22,0-.21V534a2.57,2.57,0,0,1,0-.33v-.44l3.56-1a37.68,37.68,0,0,0,6.91,8.65,36,36,0,0,0,8.32,6.09c.72.4,1.48.68,2.2,1s1.48.52,2.21.79a15.59,15.59,0,0,0,4.38.59,11,11,0,0,0,4-.81,9.34,9.34,0,0,0,3.17-2.17,7.35,7.35,0,0,1-1.89,2.42,10.85,10.85,0,0,1-3.23,1.9,15.35,15.35,0,0,1-8.33.3,27.15,27.15,0,0,1-7.35-2.86,25.73,25.73,0,0,1-4.64-3.36,43.16,43.16,0,0,1-8.55-10.89l2.45-.71v.51c.19,0-.46,0-.85.09a1.36,1.36,0,0,0-.39.07c-.51.64-.64-2.92,1.15-.53a1.11,1.11,0,0,1,.11.42V534a7.1,7.1,0,0,0,0,.81l.11,1.6c.09,1.08.22,2.15.38,3.2a38.66,38.66,0,0,0,1.44,6.14,35.05,35.05,0,0,0,5.64,10.63,28.37,28.37,0,0,0,18.48,11,20.78,20.78,0,0,0,5,.1,20,20,0,0,0,4.76-1,15,15,0,0,0,4.14-2.07,13.4,13.4,0,0,0,3.2-3.08,18,18,0,0,0,3.28-7.87,24.72,24.72,0,0,0,.42-4.13,8.27,8.27,0,0,0-.2-1.88l-.09-.36-.06-.24-.15-.51-.13-.43-.06-.24,0-.12s0,0,0,0l0,0-.39.4-.2.22-.31.25-.32.26a3.57,3.57,0,0,1-.39.29l-1.15.72a10,10,0,0,1-5.07,1.22,11.16,11.16,0,0,1-4.14-1A10.56,10.56,0,0,1,176.94,546.66Z"></path></g><path d="M177.41,546.59c.63-.12,1.54,2.13,2.18,2.91a11.68,11.68,0,0,1,2.27,5.12,12.43,12.43,0,0,1-1,8c-1.68-.82-2.88-2.48-2.61-3.07a8.5,8.5,0,0,0,.57-6.22c-.5-1.74-1.4-3.08-1.64-4.48A6,6,0,0,1,177.41,546.59Z"></path><path d="M179.85,553.83c0,.34-1.26,1.31-2.93,2.12a39.41,39.41,0,0,1-4.8,1.86,20,20,0,0,1-6.58,1.16,24.34,24.34,0,0,1-6.84-.92,22,22,0,0,1-9.68-5.68,18.65,18.65,0,0,1-4.74-7.71,29,29,0,0,1,3.89,2.23,11,11,0,0,1,2.66,2.11,16.94,16.94,0,0,0,5.89,5.25,18.08,18.08,0,0,0,6.74,2.07,23.69,23.69,0,0,0,6.18-.19c1.91-.3,3.63-.73,5.26-1.15.76-.24,1.85-.43,2.82-.66Z"></path><path d="M193,549.65c.18.25-.11.79-.55,1.33s-1,1.11-1.27,1.51a8.4,8.4,0,0,1-4.35,3,7.75,7.75,0,0,1-4.51.18,6,6,0,0,1-3.12-2,13.46,13.46,0,0,1,2-1.45c.58-.3,1-.49,1.21-.3a4.58,4.58,0,0,0,5.11.45c1.44-.72,2.36-1.76,3.44-2.31A6.6,6.6,0,0,1,193,549.65Z"></path><path d="M192.14,555.32c.09.35-1.09,2-2.84,3.65a31,31,0,0,1-5.36,3.89,21.33,21.33,0,0,1-8.11,2.83,28.41,28.41,0,0,1-8.79-.19,25.89,25.89,0,0,1-12.82-6.35,24.32,24.32,0,0,1-4.08-4.82,21.6,21.6,0,0,1-2.27-4.82c1.39.87,3,2.15,4.49,3.26a23,23,0,0,1,3.37,2.79,21,21,0,0,0,8.11,6.1,22.39,22.39,0,0,0,8.93,1.71,24.12,24.12,0,0,0,7.81-1.4,32.36,32.36,0,0,0,6.15-3.06c.84-.58,2.07-1.28,3.13-2S191.81,555.52,192.14,555.32Z"></path><path d="M235,548.51c-.6-.18-.46-2.57-.86-3.46-.68-1.57-1-3.27-1.57-4.67l-1.35-3.54a25,25,0,0,1-1-3.34,4.94,4.94,0,0,1,2.62,0c.78.22,1.31.66,1.37,1,.45,2.89,1,4.92,1.44,6.85a12.22,12.22,0,0,1,.54,5.06A5.07,5.07,0,0,1,235,548.51Z"></path><path d="M233.32,537.56c.12.1.13.55,0,1.19-.12.29-.28.63-.47,1l-.77,1a17.65,17.65,0,0,1-4,3,16.14,16.14,0,0,1-6.1,2,28.17,28.17,0,0,1-3.3.17c-1.08-.08-2.17-.1-3.2-.26a30,30,0,0,1-9.87-3.26,36.71,36.71,0,0,1-3.83-2.44c-1.12-.87-2.11-1.71-3-2.5a13.52,13.52,0,0,1,4.33.18,8.41,8.41,0,0,1,3.19,1,21.78,21.78,0,0,0,13.4,4.7l1.54,0c.5,0,1-.14,1.46-.2a21.68,21.68,0,0,0,2.72-.62,22.53,22.53,0,0,0,4.44-2,8.8,8.8,0,0,1,1-.67l1.1-.8a8.73,8.73,0,0,0,.86-.87Z"></path><path d="M246,538.06c.11.29-.26.66-.75,1s-1.11.62-1.43.9a7.06,7.06,0,0,1-4.25,1.36,6.25,6.25,0,0,1-5.81-2.9c1.37-1.15,2.74-1.89,3-1.51a4.26,4.26,0,0,0,4.14,1.69c1.33-.19,2.3-.8,3.29-.88A5.82,5.82,0,0,1,246,538.06Z"></path><path d="M246.55,540.87c0,.35-1.21,1.63-2.88,2.85a52.88,52.88,0,0,1-4.85,3.09A30,30,0,0,1,224.5,551a29.58,29.58,0,0,1-12.25-2,25.11,25.11,0,0,1-8.5-5.41,29.28,29.28,0,0,1,4.94.55,14,14,0,0,1,3.76,1,23.27,23.27,0,0,0,8.54,2.92,25.17,25.17,0,0,0,8-.2c5-.9,8.91-2.93,12.31-4.6.8-.43,2-.91,3-1.38Z"></path></g></svg>