<svg xmlns="http://www.w3.org/2000/svg" id="tracksuit" viewBox="0 0 380 600">
  <defs>
    <style>
      .cls-1 {
        opacity: .2;
        stroke: #000;
        stroke-linecap: round;
        stroke-linejoin: round;
      }

      .cls-2, .cls-3, .cls-4, .cls-5, .cls-6, .cls-7, .cls-8 {
        stroke-width: 0px;
      }

      .cls-3 {
        fill: #19bfaf;
      }

      .cls-4 {
        fill: #09a49a;
      }

      .cls-5 {
        fill: #087a6f;
      }

      .cls-6 {
        fill: #b9d6d3;
      }

      .cls-7 {
        fill: #9ec6c1;
      }

      .cls-8 {
        fill: #fff;
      }
    </style>
  </defs>
  <g id="bottom-3" data-name="bottom">
    <g>
      <g>
        <path class="cls-8" d="M233.59,514.55c-.14,2.97,1.9,5.56,3.92,7.76,4.73,5.14,14.29,10.49,13.66,21.78-.28,4.99-2.43,8.91-6.49,11.54-5.48,3.54-17.42,4.42-24.56,1.72-9.61-3.63-17.51-8.46-24.31-16.15-1.4-1.58-2.74-3.24-3.69-5.12-3.1-6.16-1.48-13.87,2.4-19.57"></path>
        <path class="cls-2" d="M233.62,514.55c.16.26.17,1.67,1.16,3.41.95,1.73,2.79,3.75,4.93,5.67,2.16,1.93,4.61,3.91,6.6,6.05,2.02,2.11,3.54,4.37,4.37,6.14,1.57,3.09,2.09,6.83,1.63,10.5-.26,1.85-.83,3.72-1.79,5.42-.95,1.71-2.27,3.23-3.8,4.44-.38.32-.78.58-1.18.86-.43.25-.85.52-1.29.76l-1.32.63-1.34.52c-1.79.62-3.61,1.04-5.42,1.34-3.63.58-7.27.67-10.82.26-1.55-.16-3.11-.49-4.65-.93l-1.15-.38c-.37-.13-.71-.27-1.06-.4-.7-.26-1.4-.55-2.09-.84-2.77-1.15-5.45-2.47-8-3.97-5.12-2.98-9.61-6.77-13.22-10.91-1.78-2.04-3.56-4.21-4.66-6.81-1.12-2.57-1.45-5.28-1.31-7.79.34-5.04,2.43-9.24,4.83-12.34-.65,1.69-1.33,3.75-1.77,5.97-.45,2.21-.6,4.6-.36,6.8.1,1.1.35,2.15.61,3.13.32.96.65,1.86,1.07,2.63.78,1.56,1.78,2.79,2.41,3.71,2.68,3.72,5.85,7.01,9.29,9.72,3.44,2.73,7.16,4.9,10.95,6.65.94.45,1.9.85,2.84,1.25.48.19.95.38,1.42.57.47.16.93.33,1.4.47,1.89.55,3.84.86,5.78.99,3.86.24,7.68-.06,11.17-.97,1.74-.46,3.42-1.06,4.86-1.92,1.45-.85,2.73-1.98,3.71-3.25,1.99-2.56,2.76-5.77,2.69-8.83.04-1.54-.26-3.01-.61-4.43-.46-1.39-.99-2.74-1.76-3.95-1.44-2.48-3.44-4.54-5.41-6.49-.96-.92-2.1-2.01-3.28-3.2-1.18-1.2-2.34-2.54-3.28-3.89-.96-1.35-1.67-2.76-1.98-3.97-.32-1.21-.23-2.16-.17-2.61Z"></path>
      </g>
      <path class="cls-2" d="M250.45,540.13c-.14.14-.23.9-.6,1.94-.36,1.04-1.03,2.35-2.06,3.52-.51.58-1.1,1.13-1.74,1.59-.63.46-1.37.86-2.01,1.28-.67.39-1.33.71-1.92,1.02-.61.27-1.16.5-1.62.68-1.65.58-3.38,1.1-5.18,1.38-1.8.28-3.65.37-5.49.24-3.69-.25-7.31-1.43-10.53-3-5.64-2.79-10.66-6.72-15.08-10.48-4.43-3.77-8.28-7.42-11.47-10.24.84,1.81,2.37,4.21,3.99,6.34,1.61,2.14,3.33,3.99,4.37,4.82,4.2,3.31,8.24,6.28,12.29,8.71,4.03,2.43,8.13,4.26,12.23,5.16,2.04.44,4.08.68,6.05.63,1.97-.05,3.88-.33,5.67-.78,3.57-.99,6.67-2.6,9.21-4.54,1.29-.93,2.66-2.68,3.3-4.43.68-1.75.65-3.35.59-3.84Z"></path>
    </g>
    <g>
      <g>
        <path class="cls-8" d="M188.07,518.72c1.82,4.59,3.8,9.11,5.5,13.75,2.91,7.97,8.25,12.78,3.63,24.83-3.82,9.98-17.99,14.33-30.05,10.19-7.42-2.55-16.56-7.99-20.78-23.98-2.52-9.56-2.22-22.43,2.81-35.85"></path>
        <path class="cls-2" d="M188.1,518.71c.51.43,2.73,5.58,5.25,11.57.31.75.63,1.51.95,2.27.3.76.63,1.51.98,2.25.7,1.49,1.46,2.96,2.15,4.4.7,1.44,1.28,2.88,1.71,4.24.21.68.39,1.33.51,1.96.15.62.22,1.21.29,1.75.22,1.89.18,3.87-.18,5.8-.36,1.94-.83,3.8-1.64,5.71-.77,1.95-2.02,3.7-3.48,5.21-1.44,1.56-3.21,2.74-5.03,3.77-1.84,1.01-3.82,1.73-5.83,2.28-2.02.48-4.07.85-6.14.9-2.06.13-4.11-.05-6.13-.31-1-.2-2-.36-2.98-.63-.97-.28-1.96-.53-2.86-.88-3.23-1.15-6.38-2.77-9.09-4.94-2.73-2.14-5.05-4.77-6.83-7.62-1.79-2.85-3.16-5.88-4.13-8.93-.97-3.03-1.7-6.13-2.03-9.17-.72-6.08-.27-11.89.73-17.1.99-5.23,2.62-9.85,4.35-13.78-.58,3.9-1.49,9.43-1.75,14.63-.15,2.6-.17,5.11-.15,7.28.07,2.16.12,4,.16,5.27.05,5.09.99,10.04,2.71,14.57,1.69,4.51,4.21,8.58,7.57,11.63,3.33,3.07,7.38,5.12,11.49,6.31,1.01.35,2.07.5,3.09.73.52.08,1.04.13,1.56.2.52.08,1.03.12,1.55.13,2.07.16,4.1-.04,6.08-.32,3.92-.69,7.61-2.16,10.45-4.49l.54-.42.49-.47c.32-.32.65-.62.96-.95.55-.7,1.15-1.35,1.57-2.12.5-.72.82-1.52,1.17-2.29.31-.81.58-1.66.84-2.49.45-1.67.81-3.33.88-4.97.08-1.64-.05-3.23-.4-4.78-.71-3.09-2.23-5.91-3.49-8.83-.63-1.36-1.22-3.12-1.81-4.83-.58-1.74-1.19-3.54-1.76-5.24-1.11-3.4-2.02-6.35-2.31-7.32Z"></path>
      </g>
      <path class="cls-2" d="M145.67,521.2c.07.21-.11,1.14-.07,2.52.02,1.38.32,3.19.78,5.14.85,3.9,2.2,8.22,3.23,10.5.88,2.02,1.88,4.08,3.03,6.09,1.14,1.98,2.5,3.86,4.07,5.56,1.58,1.69,3.37,3.19,5.28,4.51.95.66,1.96,1.3,2.9,1.85.98.52,1.97,1.02,3,1.4,7.12,2.78,15.45,2.58,21.18-1.19,2.88-1.82,5.13-4.33,6.48-7.06,1.42-2.71,1.86-5.61,1.87-8.18.85,2.21,1.1,5.96-.13,9.28-1.14,3.34-3.46,5.95-4.87,6.95-2.85,2.07-6.04,3.37-9.21,3.94-3.16.57-6.27.52-9.2.06-1.46-.22-2.88-.55-4.25-.98-1.37-.41-2.69-.92-3.94-1.51-1.26-.57-2.45-1.28-3.56-2.01-1.11-.73-2.18-1.49-3.2-2.29-2.04-1.6-3.82-3.4-5.32-5.32-1.5-1.92-2.7-3.99-3.67-6.01-1.99-4.06-3.3-8.09-4.13-11.91-.41-1.82-.84-4.31-.94-6.57-.05-1.13.03-2.19.18-3.02.15-.83.37-1.44.48-1.73Z"></path>
    </g>
    <path class="cls-4" d="M222.76,520.29c3.86-2.41,11.24-3.25,14.07,1.09,7.37-2.08,7.36-4.88,7.15-11.72,3.4-8.41,8.74-16.1,10.93-25.12,7.53-31.12-3.86-37.58-24.03-45.73-24.01-8.08-83.91-5.98-92.28,23.3-4.3,15.11,9.18,30.4,3.75,44.7-3.81,10.18,3.69,9.05,3.95,13.59,1.48,7.91,11.02,8.6,17.59,7.49.32.21.53.66.85.87,1.87-3.53,6.07-5.75,9.92-6.47,2.55-.3,4.63.73,7.02,1.31.8.19,1.66.34,2.4.7.8.39,1.14,1.29,1.79,1.64,1.58.88,7.26-.18,8-1.99.75-1.81-1.85-2.68-.77-5.04.98-2.16,3.37-1.75,5.35-1.91-.45.24-.44.27-.95.34-3.33.49-2.16,5.93,3.14,8.56,5.05,2.46,13.82,1.48,19.09-2.02.42-1.56,1.69-2.75,3.06-3.6Z"></path>
    <path class="cls-6" d="M146.16,463.87c2.52,1.25,4.97,2.57,7.63,3.36-12.16,11.86,5.76,28.9-1.58,42.29-1.53,3.42-3.16,7.57-.86,10.86-1-.2-1.99-.46-2.94-.83-6.42-2.57-3.51-8.64-1.18-13.23,3.49-6.88-.36-14.76-2.24-21.56-1.93-6.97-3.23-14.54,1.17-20.9Z"></path>
    <g>
      <path class="cls-2" d="M237,521.14c.27-.14,1.17-.32,2.42-.89,1.2-.58,2.92-1.61,3.76-3.59.42-.98.49-2.12.38-3.39-.09-1.26-.33-2.7.02-4.24.35-1.51,1.15-2.86,1.89-4.19.74-1.34,1.48-2.72,2.21-4.15,2.92-5.68,5.49-12.02,6.92-18.05,1.43-6.04,2.08-11.67,2.04-15.62-.01-1.74-.13-3.5-.49-5.17-.42-1.7-.87-3.42-1.61-5.01-.31-.82-.78-1.56-1.18-2.34-.5-.72-.92-1.49-1.51-2.15-1.06-1.4-2.39-2.6-3.79-3.72-2.86-2.19-6.17-3.9-9.64-5.34l-2.63-1.05-2.68-.98-2.71-.93c-.9-.27-1.79-.56-2.7-.8-7.3-1.92-14.99-2.78-22.57-3.09-7.59-.31-15.13-.01-22.37.88-6.33.77-12.58,2.05-18.52,3.98-2.97.98-5.83,2.16-8.57,3.52-2.7,1.42-5.24,3.06-7.49,4.97-4.51,3.84-7.41,9.01-7.99,14.7-.68,5.7.42,11.48,1.76,17.1.67,2.82,1.4,5.63,2.01,8.46.31,1.41.59,2.83.82,4.25.11.71.24,1.42.31,2.14l.12,1.07.06.53s.04.25.06.44c.24,1.56.11,3.21-.26,4.67-.37,1.47-.88,2.73-1.34,4-.96,2.43-1.53,4.76-.66,6.63.43.94,1.15,1.82,2.02,2.59l.63.53.16.1c.1.07.19.13.29.21.19.15.36.33.51.51.62.77.78,1.77.75,2.46-.02.06,0,.14.03.24l.09.4c.07.26.09.55.21.79.19.5.37,1.01.67,1.45.23.48.61.86.93,1.27.39.35.75.74,1.21,1.02,1.73,1.25,3.94,1.75,6.07,2.01,2.15.2,4.3.1,6.36-.17-1.8.51-3.88.9-6.16.97-1.14.01-2.33-.03-3.54-.27-1.21-.22-2.45-.61-3.6-1.3-2.35-1.27-4.15-4-4.44-6.8-.11-.45-.29-.68-.59-.84-.7-.41-1.19-.82-1.77-1.3-1.1-.94-2.11-2.21-2.66-3.74-.53-1.55-.52-3.18-.27-4.59.22-1.43.69-2.74,1.04-3.88.37-1.2.72-2.3.9-3.3.18-1,.19-1.91.06-2.82-.58-4.33-1.45-7.85-1.99-10.39-1.1-5.06-2.43-10.15-3.03-15.36-.3-2.6-.37-5.24-.16-7.84.08-1.31.32-2.59.53-3.87l.51-1.9.26-.94c.11-.31.24-.61.36-.91l.74-1.8c.3-.57.63-1.13.94-1.69l.47-.84c.17-.27.37-.52.56-.78l1.12-1.55c1.65-1.92,3.42-3.71,5.42-5.15,3.94-2.97,8.29-5.08,12.69-6.71,8.84-3.22,17.85-4.65,26.55-5.39,8.72-.71,17.21-.62,25.38.15,4.08.39,8.09.95,11.99,1.78.97.21,1.95.41,2.9.68.96.24,1.92.5,2.86.8.95.28,1.87.6,2.78.92.92.31,1.82.64,2.72.98,3.6,1.35,7.11,2.85,10.37,4.77,3.25,1.91,6.22,4.39,8.4,7.45,2.13,3.09,3.45,6.6,4.06,10.12.6,3.61.37,7.08.02,10.44-.78,6.7-2.3,13.1-4.64,18.96-1.07,2.79-2.56,6-4.3,9.22-.87,1.61-1.8,3.23-2.76,4.82-.96,1.59-1.96,3.07-2.21,4.69-.26,1.62.11,3.36-.1,5.03-.18,1.71-1.12,3.1-2.14,3.98-1.04.9-2.15,1.39-3.07,1.69-.92.3-1.68.41-2.17.47Z"></path>
      <path class="cls-2" d="M166.68,522.97c-.2-.32-3.97-.39-5.39-.67-2.52-.45-5.37-.86-7.8-1.65-2.12-.67-4.1-1.57-5.77-2.65-1.68-1.07-3.03-2.31-4.16-3.32.1.74.41,1.81.96,2.64.5.88,1.19,1.54,1.61,1.8,3.49,1.96,6.72,2.84,9.61,3.47,2.9.57,5.46.87,7.69.81,1.06,0,2.89-.35,3.25-.44Z"></path>
      <path class="cls-2" d="M219.12,509.37c.06.26-.91,1.48-2.34,2.55-1.41,1.09-3.21,2.02-4.21,2.54-3.51,1.95-8.01,2.97-11.98,3.66-.87.15-1.74.29-2.6.41-.87.12-1.67.22-2.3.4-.32.09-.58.19-.81.33-.12.07-.23.14-.33.22-.05.03-.12.09-.15.12,0,0-.01,0-.02,0-.03,0-.05.03-.06.06-.02-.02.06.24.11.4l.18.61c.12.44.24.94.23,1.5,0,.55-.14,1.16-.37,1.62-.19.37-.42.79-.78,1.18-.36.4-.87.7-1.31.83-.88.26-1.59.23-2.26.21-.66-.03-1.28-.09-1.86-.16.5-.34,1.11-.65,1.75-.97.62-.31,1.33-.64,1.65-.98.16-.17.18-.3.22-.46.06-.22.12-.43.17-.63.05-.21.02-.25.04-.36,0-.1,0-.2.02-.3.03-.21,0-.47-.05-.78-.08-.39-.17-.78-.25-1.16-.11-.59-.07-1.21.27-1.68.15-.24.36-.44.56-.63.18-.16.33-.26.5-.38.69-.46,1.46-.71,2.15-.84.7-.13,1.35-.18,1.98-.24,2.49-.21,4.8-.55,6.93-1.01,4.27-.92,7.77-2.32,10.65-3.75.35-.17.75-.37,1.18-.59.44-.2.88-.43,1.29-.66.43-.21.81-.44,1.11-.64.31-.19.55-.34.67-.41Z"></path>
      <path class="cls-2" d="M215.71,525.94c-.18-.19-1.19.04-2.36.21-1.17.18-2.51.31-3.26.23-2.62-.23-5.62-.46-7.9-1.4-1.92-.81-3.67-2.13-4.7-3.62-.51-.74-.83-1.51-.88-2.16.02-.29.02-.6.19-.82.06-.14.2-.21.3-.35.15-.09.3-.18.44-.27-.17-.11-.38-.21-.64-.29-.23-.02-.55-.06-.84.05-.65.15-1.17.77-1.46,1.42-.54,1.34-.21,2.61.11,3.1.7,1.02,1.5,1.76,2.3,2.41.79.65,1.63,1.13,2.44,1.57,1.64.87,3.32,1.3,4.87,1.58,3.11.55,5.91.57,8.25-.05,1.14-.23,2.86-1.36,3.15-1.62Z"></path>
      <path class="cls-2" d="M220.84,521.26c-.15-.12-1.04.09-2.12.18-1.07.11-2.3.17-2.98.11-2.4-.18-5.17-.27-7.55-.67-.52-.08-1-.2-1.45-.33-.49-.18-.99-.32-1.46-.52-.95-.35-1.85-.76-2.63-1.21-.39-.22-.75-.47-1.06-.73-.29-.23-.58-.58-.65-.71-.1-.15-.08-.38.08-.52.05-.08.24-.14.37-.21.17-.05.33-.09.49-.14-.3-.18-.7-.41-1.25-.3-.14.03-.3.06-.43.16-.14.08-.27.19-.35.34-.11.14-.17.3-.2.48-.05.18-.03.36,0,.54.09.74.4,1.15.67,1.53.28.35.56.6.78.71,1.76.95,3.4,1.41,4.95,1.85,1.61.43,3.09.5,4.49.63,2.78.2,5.23.28,7.35-.1,1.02-.12,2.68-.9,2.95-1.11Z"></path>
      <path class="cls-2" d="M229.71,514.57c.11.32,1.84.16,2.53.21,1.23.12,2.61-.13,3.83-.46,2.14-.56,3.98-1.84,4.86-3.05-.98-.35-2.24-.32-2.53-.02-1.21,1.26-2.63,1.83-3.9,2.11-1.28.29-2.42.31-3.38.56-.46.09-1.25.55-1.41.65Z"></path>
      <path class="cls-2" d="M254.88,455.84c.05.24.32,1.63-.17,3.61-.46,1.98-1.95,4.38-4.16,6.21-2.17,1.89-4.91,3.31-7.46,4.4-2.56,1.09-4.96,1.82-6.68,2.34-12.21,3.55-26.86,4.3-39.92,3.88-11.44-.39-22.75-1.84-32.78-4.46-5.01-1.33-9.71-2.95-13.79-5.11-2.03-1.09-3.91-2.32-5.47-3.79-1.57-1.44-2.74-3.27-3.09-5.19.57,1.66,1.85,3.35,3.61,4.64,1.73,1.32,3.81,2.41,5.89,3.31,4.18,1.78,8.35,2.9,10.5,3.59,8.71,2.73,17.29,4.11,25.36,4.95,8.08.82,15.72,1,22.86.75,7.14-.26,13.8-.95,19.93-2.09,6.11-1.17,11.76-2.73,16.54-5.2,2.24-1.17,5.26-3.07,6.97-5.62.87-1.25,1.38-2.6,1.63-3.73.23-1.14.2-2.04.22-2.48Z"></path>
      <path class="cls-2" d="M167.45,513.4c-.02.17.58.71,1.33,1.28.75.57,1.66,1.12,2.15,1.48,1.72,1.27,4.04,2.19,6.2,2.72,3.82.96,7.7.43,10.04-.44-1.21-.65-3.28-1.09-4-.95-2.93.65-5.62.26-7.8-.48-2.21-.73-3.91-1.81-5.48-2.6-.73-.39-2.15-.92-2.44-1.01Z"></path>
      <path class="cls-2" d="M146.15,463.86c-.18.18-1.06,1.24-1.86,3.1-.83,1.84-1.41,4.5-1.38,7.36.04,5.75,2.09,11.96,3.08,15.35.79,2.72,1.59,5.53,1.86,8.42.12,1.44.11,2.9-.13,4.31-.23,1.44-.77,2.72-1.45,4.07-.7,1.37-1.41,2.78-1.93,4.3-.5,1.52-.9,3.19-.57,4.96.18.87.55,1.74,1.13,2.44.26.37.62.64.93.95.35.25.71.49,1.07.72l1.12.54c.19.08.38.15.57.22.2.07.33.12.74.24.69.21,1.38.36,2.04.5l1,.21.51.11.42.08c-.41-.67-.82-1.34-1.22-2-.25-.38-.34-.63-.44-.89l-.16-.4c-.06-.14-.12-.28-.11-.32-.13-.53-.18-1.09-.17-1.65.07-2.25,1.05-4.53,1.95-6.55l-.04.07c1.08-1.97,1.68-4.16,1.87-6.33.19-2.17,0-4.31-.36-6.35-.73-4.08-2.02-7.82-2.98-11.42-.97-3.58-1.67-7.09-1.3-10.31.18-1.6.61-3.12,1.3-4.46.36-.66.72-1.31,1.17-1.89l.32-.44c.03-.06.15-.18.24-.29l.29-.32c.37-.42.76-.84,1.09-1.22-.65-.19-1.31-.38-1.87-.57-.23-.08-.46-.16-.68-.24-.18-.07-.36-.13-.54-.2-.7-.27-1.35-.54-1.97-.82-1.23-.56-2.33-1.06-3.39-1.54.95.62,2.04,1.33,3.26,2.05.61.36,1.26.71,1.94,1.05.49.23.98.47,1.49.71-.15.16-.35.31-.49.44l-.11.09-.05.05-.1.11-.39.45c-.54.59-.98,1.27-1.41,1.94-.84,1.37-1.35,2.91-1.65,4.36-.3,1.46-.35,2.85-.29,4.04.04,1.2.2,2.21.35,2.97,1.05,5.17,2.93,9.77,3.96,14.37.51,2.29.83,4.58.73,6.81-.11,2.22-.67,4.37-1.67,6.25v.02s-.02.01-.02.01c-.78,1.79-1.52,3.59-1.85,5.49-.16.95-.21,1.92-.07,2.87.18,1.1.37,1.48.67,1.97l.07.11s-.06,0-.09,0l-.26-.06-.51-.13c-.19-.05-.3-.08-.55-.17-.26-.09-.52-.18-.77-.29-1-.43-1.91-1-2.56-1.79-.65-.78-.96-1.78-.99-2.79-.02-1.02.2-2.04.51-3.02.6-1.99,1.62-3.75,2.49-5.63.88-1.92,1.23-3.99,1.22-5.99-.03-4.02-1.24-7.65-2.3-11.04-1.11-3.38-2.05-6.63-2.65-9.82-.47-2.51-.86-6.01-.34-9.04.46-3.06,1.85-5.42,2.3-6.17Z"></path>
      <path class="cls-2" d="M254.43,487.97c-.38-.08-4.38,2.91-6.17,3.38-.38.11-.77.2-1.11.22-.36.02-.57-.08-.64-.21-.1-.13-.18-.46-.19-.84-.01-.38.02-.8.07-1.22.22-1.71.64-3.5.99-5.21.63-2.99,1.09-6.05,1.04-8.88-.02-2.83-.61-5.41-1.54-7.23-.09,1-.12,2.31-.21,3.52-.08,1.21-.16,2.32-.09,2.91.29,2.38.15,4.7-.13,6.84-.27,2.15-.7,4.14-1.04,6.04-.16.95-.32,1.88-.34,2.83,0,.48.02.97.21,1.48.15.52.76,1.05,1.33,1.09.56.08,1.03-.04,1.46-.16.43-.13.81-.3,1.18-.48.73-.36,1.39-.77,2-1.2,1.18-.78,2.88-2.53,3.2-2.89Z"></path>
      <path class="cls-2" d="M171.09,477.06c-.36-.01-2.79,2.98-3.97,3.87-2.02,1.64-4.36,3.38-6.76,4.27-2.1.75-4.35,1.32-6.23,1.25-.94-.04-1.78-.27-2.41-.74-.64-.47-1.04-1.18-1.37-1.85-.23.7-.22,1.93.51,2.89.7.98,1.83,1.42,2.37,1.43,2.24.11,4.02-.48,5.67-1,1.64-.54,3.15-1.22,4.46-2,2.61-1.59,4.59-3.42,6.01-5.23.7-.84,1.57-2.56,1.72-2.9Z"></path>
      <path class="cls-2" d="M153.89,497.71c.12.24,2.07,1.46,4.59,2.25,2.49.84,5.43,1.36,7.05,1.65,2.88.52,5.99.86,9.18.93,1.59.02,3.21-.04,4.8-.24,1.57-.21,3.1-.42,4.64-.8.67-.17,1.34-.37,2.01-.66.66-.31,1.39-.64,1.99-1.5.3-.46.38-.79.49-1.16.1-.36.17-.72.22-1.06.1-.69.15-1.35.19-1.99.04-.66.07-1.2.14-1.85.06-.64.1-1.27.14-1.9.06-1.25.08-2.48.07-3.67-.06-4.77-.38-9-.37-12.41-1.1,2.98-1.58,8.98-1.47,11.04.13,2.11.19,4.15.1,6.11-.2,1.97,0,4.02-.5,5.65-.13.43-.3.66-.63.93-.31.26-.7.45-1.09.62-.8.34-1.65.57-2.49.76-1.69.35-3.39.62-5,.76-3.25.26-6.31.02-9.17-.24-2.85-.27-5.49-.66-7.91-1.16-1.15-.25-2.72-.58-4.08-.99-1.37-.39-2.5-.9-2.88-1.05Z"></path>
    </g>
    <g>
      <path class="cls-8" d="M240.8,526.14c3.03,4.23.59,5.91-4.23,6.26-4.46.88-6.85,4.27-9.71,2.36-3.04-2.22-6.33-5.15-6.91-9.06-.69-5.09,5.55-7.29,9.67-7.53,5.82-.08,7.93,3.65,11.19,7.96Z"></path>
      <path class="cls-2" d="M240.82,526.13c.01-.32-1.19-2.31-2.9-4.48-.86-1.08-1.97-2.14-3.19-2.86-1.21-.73-2.48-1.07-3.37-1.25-.4-.09-.8-.15-1.22-.18-.42-.05-.84-.05-1.26-.03-.83.04-1.66.13-2.49.31-1.66.33-3.34.94-4.89,2.01-.76.56-1.47,1.25-2.03,2.11-.53.88-.85,1.9-.93,2.93-.06,2.08.63,3.8,1.52,5.33.79,1.32,1.78,2.45,2.83,3.44.53.49,1.06.96,1.61,1.4.58.45,1.02.83,1.78,1.3.8.49,1.85.74,2.78.63.93-.1,1.66-.41,2.31-.71,1.29-.62,2.29-1.25,3.33-1.72.51-.23,1.02-.44,1.54-.59l.38-.11.14-.04s.06-.01.15-.02c.31-.05.62-.08.93-.14,1.22-.24,2.45-.54,3.58-1.3.56-.37,1.08-.96,1.32-1.66.14-.35.15-.7.17-1.04-.04-.32-.05-.66-.16-.93-.36-1.13-1-1.92-1.6-2.62.21.85.53,1.88.49,2.87-.03.48-.15.92-.42,1.17-.25.26-.6.42-.99.56-.83.25-1.8.32-2.65.36-.21.02-.42.02-.62.03-.2.02-.34,0-.75.07-.44.1-.81.18-1.09.31-2.31.89-4.09,2.43-5.72,3.02-.8.28-1.49.23-2.22-.25-.8-.54-1.6-1.12-2.33-1.72-1.46-1.21-2.71-2.59-3.5-4.13-.79-1.54-1.13-3.27-.59-4.67.54-1.42,1.8-2.42,3.14-3.08,1.35-.67,2.81-1.04,4.22-1.27,2.81-.44,5.41.23,7.3,1.75,1.84,1.37,4.74,4.69,5.39,5.24Z"></path>
    </g>
    <path class="cls-2" d="M239.93,526.46c.03.11.33.34.67.79.18.24.3.45.38.71.03.13.06.27,0,.4-.06.13-.19.21-.34.24-.14.03-.29.03-.44.01l-.61-.02c-.43,0-.86,0-1.27.02-.82.03-1.57.1-2.1.15-1.89.16-3.93.64-5.81,1.65-.47.25-.93.54-1.37.86l-.63.5c-.16.13-.31.24-.46.32-.31.16-.54.18-.72.12-.05-.02-.1-.04-.16-.07-.04-.02-.04-.03-.04-.03l-.05-.06c-.09-.13-.28-.24-.3-.35-.04-.1-.13-.19-.11-.27,0-.04-.01-.08-.03-.12,0-.05.03-.09.03-.14.01-.18.15-.43.32-.68.37-.5.96-.99,1.56-1.41,1.22-.83,2.63-1.56,3.9-1.94,2.78-.79,5.45-1.03,7.47-.44-.67-.77-2.13-1.44-3.56-1.64-1.43-.24-2.8-.12-3.47.09-.34.11-.67.22-1,.33-.36.13-.7.27-1.01.42-.63.31-1.22.62-1.78.97-1.12.69-2.17,1.45-3.01,2.44-.4.5-.79,1.09-.82,1.82-.03.71.32,1.42.8,1.8.46.52,1.2.7,1.86.57.65-.13,1.15-.53,1.55-.87,1.56-1.3,3.38-1.99,5.1-2.44,1.73-.44,3.4-.62,4.96-.74.19-.01.4-.02.62-.03.22-.03.63-.01.9-.13.28-.1.56-.28.65-.58.1-.29.02-.6-.11-.86-.12-.27-.31-.48-.46-.65-.16-.16-.31-.28-.46-.39-.29-.21-.54-.31-.66-.35Z"></path>
    <path class="cls-2" d="M237.78,522.95c.03.11.33.34.67.79.18.24.3.45.38.71.03.13.06.27,0,.4-.06.13-.19.21-.34.25-.14.03-.29.03-.44.01l-.61-.02c-.43,0-.86,0-1.27.02-.82.03-1.57.1-2.1.15-1.89.16-3.93.64-5.81,1.65-.47.25-.93.54-1.37.86l-.63.5c-.16.13-.31.24-.46.32-.31.16-.54.18-.72.12-.05-.02-.1-.04-.16-.07-.04-.02-.04-.03-.04-.03l-.05-.06c-.09-.13-.28-.24-.3-.35-.04-.1-.13-.19-.11-.27,0-.04-.01-.08-.03-.12,0-.05.03-.09.03-.13.01-.18.15-.43.32-.68.37-.5.96-.99,1.56-1.41,1.22-.83,2.63-1.56,3.9-1.94,2.78-.79,5.45-1.03,7.47-.45-.67-.77-2.13-1.44-3.56-1.64-1.43-.24-2.8-.12-3.47.09-.34.11-.67.22-1,.33-.36.13-.7.27-1.01.42-.63.31-1.22.62-1.78.97-1.12.69-2.17,1.45-3.01,2.44-.4.5-.79,1.09-.82,1.82-.03.71.32,1.42.8,1.8.46.52,1.2.7,1.86.57.65-.13,1.15-.53,1.55-.87,1.56-1.3,3.38-1.99,5.1-2.44,1.73-.44,3.4-.62,4.96-.74.19-.01.4-.02.62-.03.22-.03.63-.01.9-.13.28-.1.56-.28.65-.58.1-.29.02-.6-.11-.86-.12-.27-.31-.48-.46-.65-.16-.16-.31-.28-.46-.39-.29-.21-.54-.31-.66-.35Z"></path>
    <g>
      <path class="cls-8" d="M210.31,528.1c3.92.26,6.09-4.66,9.58-4.1,1.89.3,3.55,2.96,7.49,7.21.82.89,1.85,2.12,1.36,3.43-.32.85-1,1.72-1.55,2.43-1.28,1.64-3.06,2.88-4.13,4.65-1.97,3.27-2.23,4.1-2.21,7.45"></path>
      <path class="cls-2" d="M220.87,549.17c.27-.16.22-1.85.75-3.52.28-.83.76-1.67,1.24-2.43.24-.38.48-.74.71-1.06.22-.31.42-.55.62-.75.68-.7,1.5-1.34,2.36-2.08.43-.37.86-.77,1.29-1.22.43-.47.77-.87,1.16-1.38.38-.52.74-1.01,1.03-1.82.32-.9.13-1.92-.19-2.6-.32-.71-.74-1.25-1.13-1.72-.37-.42-.73-.84-1.09-1.26-1.22-1.42-2.39-2.86-3.71-4.27-.69-.69-1.37-1.42-2.48-2.01-.53-.29-1.31-.48-1.88-.45-.61-.02-1.21.11-1.73.3-1.05.39-1.81.99-2.46,1.53-.65.55-1.21,1.09-1.75,1.56-1.07.94-2.11,1.55-3.25,1.69.47.31,1.22.59,2.05.53.83-.04,1.71-.31,2.47-.64,1.54-.71,2.66-1.4,3.13-1.74.48-.38.93-.62,1.43-.68.27-.03.45-.05.69.02.24.07.5.19.76.37,1.06.7,2.05,1.76,2.98,2.72.93,1,1.82,1.97,2.69,2.9.44.48.86.91,1.17,1.37.32.45.53.94.53,1.36,0,.22-.04.39-.13.61-.1.23-.23.45-.37.68-.29.45-.63.87-.98,1.29-.67.83-1.44,1.51-2.21,2.24-.77.72-1.53,1.49-2.11,2.41-.53.87-.99,1.68-1.37,2.57-.4.81-.68,2.15-.57,3.23.08,1.08.29,1.96.36,2.26Z"></path>
    </g>
    <g>
      <g>
        <path class="cls-8" d="M247.31,532.4c-2.08-3.19-5.44-2.2-7.5-4.86-.95-1.14-4.33-5-3.84-6.02.99-2.51,10.6,9.13,10.78,10.33"></path>
        <path class="cls-2" d="M246.78,531.85c.24-.25-.37-1.43-1.18-2.61-.81-1.2-1.82-2.49-2.32-3.27-.78-1.21-1.72-2.42-2.8-3.57-.55-.58-1.12-1.14-1.81-1.67-.34-.26-.73-.52-1.28-.75-.29-.1-.63-.25-1.25-.16-.16.03-.31.06-.46.13-.16.08-.32.18-.47.3-.29.24-.4.48-.55.76l.04-.1c-.32.79-.16,1.27-.1,1.58.08.33.19.57.29.8.77,1.59,1.69,2.68,2.61,3.81.23.27.47.54.7.8.24.26.48.53.71.78.57.63,1.32,1.14,2.02,1.45,1.44.62,2.64.74,3.61,1.07.96.3,1.75.79,2.41,1.42.04-.49-.04-1.1-.33-1.68-.27-.61-.76-1.16-1.28-1.6-1.09-.88-2.08-1.32-2.56-1.42-.84-.15-1.48-.39-2.06-.89-.66-.6-1.31-1.22-1.88-1.83-.58-.62-1.11-1.24-1.56-1.88-.22-.32-.43-.64-.58-.95-.08-.16-.14-.31-.18-.44-.03-.07-.01-.1-.03-.15-.01-.03,0-.03,0-.02.04.02-.11-.02-.17-.07l.17.03s.06.03-.03-.05c-.02-.02-.01,0-.03-.02.06.12.03.1.04.09.03,0,.06.01.09.02.15.04.37.13.57.26.41.26.82.58,1.19.92.76.68,1.43,1.41,2.07,2.12,1.27,1.42,2.38,2.78,3.48,3.96.85.97,2.68,2.39,2.9,2.83Z"></path>
      </g>
      <path class="cls-2" d="M247.5,532.6c.1-.12-.07-.27-.06-.4.02-.22-.05-.36-.1-.5-.09-.24-.31-.38-.64-.43-.34.24-.52.54-.42.56.74.13.58.67.89.81.06.04.28-.03.33-.05Z"></path>
    </g>
    <path class="cls-2" d="M224.88,537.66c.13-.3-1.27-1.59-1.66-2.23-.71-1.12-1.71-2.22-2.59-3.23-1.54-1.76-3.27-3.25-4.7-4.03-.16,1.06.31,2.44.74,2.69,3.45,1.99,4.82,4.68,6.65,6.06.41.35,1.36.69,1.56.74Z"></path>
    <path class="cls-2" d="M187.37,528.28c-.09-.04-.24-.21-.45-.48-.2-.28-.45-.65-.83-1.04-.68-.82-1.78-1.74-3.13-2.41-1.34-.69-2.91-1.12-4.37-1.29-1.46-.17-2.8-.05-3.73.11-1.63.31-3.26.89-4.67,1.8-1.41.9-2.58,2.17-3.05,3.62-.5,1.46-.31,3.16.11,4.86.21.84.49,1.74.76,2.57.28.83.59,1.61.97,2.28.33.58.71,1.08,1.11,1.38.4.31.78.44,1.25.44,1.33,0,2.75-.32,4.2-.69,1.45-.37,3-.8,4.56-1.02,1.56-.23,3.1-.31,4.6-.25.74.03,1.39.07,1.92.02.26-.03.53-.07.7-.15.08-.04.17-.07.26-.1.07-.05.13-.11.2-.16.54-.45.75-1.68.67-2.81-.15-2.33-.83-4.58-1.46-6.5,1.3,1.41,2.86,3.75,3.5,6.51.13.7.25,1.42.16,2.2-.04.76-.35,1.6-.87,2.28-.55.68-1.31,1.08-1.9,1.27-.59.18-1.09.22-1.46.22-.76,0-1.41-.1-2-.14-.6-.05-1.2-.07-1.79-.07-1.19,0-2.36.11-3.51.3-2.29.38-4.6,1.13-6.99,1.24-.3,0-.58.03-.91,0-.33-.02-.66-.06-.98-.16-.63-.19-1.22-.53-1.67-.96-.91-.86-1.45-1.9-1.88-2.92-.43-1.02-.72-2.05-1.01-3.04-.29-1.01-.53-2.02-.67-3.05-.13-1.03-.15-2.09.04-3.12.19-1.03.61-2.02,1.19-2.86,1.19-1.67,2.85-2.77,4.54-3.52,3.42-1.45,7.05-1.42,10.08-.43,1.46.42,3.32,1.49,4.54,2.83.29.35.6.66.81,1,.21.34.41.66.58.95.27.61.45,1.08.54,1.3Z"></path>
    <path class="cls-2" d="M186.94,535.76c-.2.14-1.93-.03-3.92-.02-1.99,0-4.25.2-5.48.46-1.09.22-2.2.48-3.32.79-.56.16-1.12.32-1.69.5-.57.18-1.23.36-1.9.44-.34.04-.7.06-1.09.02-.39-.05-.84-.12-1.32-.53-.44-.35-.59-1.05-.64-1.29-.06-.35-.13-.74-.04-1.24.08-.51.43-1.01.76-1.27.34-.28.65-.45.96-.6.6-.27,1.14-.49,1.7-.7,3.91-1.49,8.13-2.08,11.91-1.71.95.08,1.86.24,2.74.44.44.09.88.23,1.3.34.59.2.97.55,1.29.91.32.36.56.76.72,1.2.15.43.25.9.15,1.41-.09.53-.55.96-.99,1.06-.22.09-.42.07-.61.1-.19-.01-.37-.03-.55-.04.32-.1.68-.2.98-.41.32-.19.47-.54.43-.84-.09-.63-.63-1.25-1.16-1.61-.14-.08-.27-.16-.4-.2-.07-.03-.12-.04-.17-.04-.04,0-.09-.02-.2-.03-.37-.04-.72-.08-1.04-.12-.66-.07-1.22-.14-1.61-.21-3.1-.64-6.2-.47-8.99.11-1.4.29-2.73.69-3.99,1.17-.62.25-1.27.47-1.67.83-.4.32-.36.82-.22,1.43.05.26.15.39.32.47.18.1.45.14.72.14.55.01,1.13-.1,1.68-.24,1.12-.33,2.27-.65,3.37-.88,2.21-.48,4.33-.68,6.3-.67,1.89-.04,5.07.64,5.66.85Z"></path>
    <path class="cls-2" d="M186.6,532.51c-.22.14-2.06-.05-4.2-.05-2.14-.01-4.55.21-5.87.48-1.16.23-2.36.51-3.56.83-.6.17-1.21.34-1.81.53-.62.2-1.31.39-2.02.47-.36.04-.74.07-1.16.02-.41-.05-.9-.14-1.37-.54-.23-.18-.43-.48-.52-.75l-.07-.21-.03-.13-.06-.27c-.07-.37-.14-.78-.05-1.3.09-.53.45-1.05.8-1.33.35-.3.69-.47,1.02-.63.63-.28,1.21-.53,1.82-.75,4.18-1.59,8.69-2.22,12.73-1.83,1.01.09,1.99.26,2.93.46.47.1.94.24,1.39.36.62.21,1.02.58,1.37.96.34.38.59.81.76,1.27.17.46.27.96.16,1.49-.09.55-.58,1.02-1.03,1.12-.22.09-.44.08-.65.11-.2-.01-.4-.03-.59-.04.17-.05.35-.1.53-.16.18-.08.36-.15.52-.26.34-.2.52-.57.48-.9-.08-.69-.66-1.36-1.23-1.77-.15-.09-.29-.18-.43-.23-.07-.04-.13-.05-.19-.05-.04-.01-.1-.03-.22-.04-.39-.05-.77-.09-1.12-.14-.71-.08-1.31-.15-1.73-.23-3.33-.66-6.65-.47-9.64.15-1.5.32-2.93.75-4.27,1.26-.66.27-1.36.5-1.8.89-.44.35-.39.9-.24,1.56.07.32.14.4.35.53.2.11.49.15.78.16.59.01,1.21-.11,1.8-.26,1.2-.35,2.44-.69,3.61-.94,2.37-.51,4.64-.73,6.75-.71,2.02-.05,5.43.66,6.07.87Z"></path>
    <g>
      <path class="cls-8" d="M196.46,547.57c.21-4.43-3.17-7.74-7.84-10.09-1.98-1-2.53-3.16-3.44-8.1-.73-3.96.62-3.99,5.04-3.81"></path>
      <path class="cls-2" d="M196.44,547.57c-.25-.14-.26-1.31-.75-2.52-.43-1.23-1.34-2.42-1.99-2.94-1.12-.93-2.41-1.77-3.8-2.51-.34-.19-.7-.36-1.05-.54l-.54-.25-.27-.13-.36-.19c-.99-.53-1.76-1.47-2.19-2.31-.77-1.51-1.06-2.93-1.34-4.28-.13-.68-.23-1.35-.33-2-.09-.66-.19-1.38-.15-2.16,0-.19.03-.4.06-.61.02-.2.09-.44.17-.67.05-.21.22-.49.35-.71.17-.21.34-.43.56-.57.91-.63,1.68-.58,2.29-.59,1.24.06,2.22.31,3.13.54-.82.59-2.09,1.05-3.03,1.48-.47.21-.75.48-.69.53.04.08.07.02-.02.15-.16.23-.23.74-.26,1.22-.01.49.01,1.03.05,1.57.07,1.05.18,2.07.36,3.02.19.94.44,1.85.87,2.56.21.35.46.67.76.9.3.24.62.39,1.05.6,1.6.78,3.06,1.65,4.31,2.69,1.23,1.03,2.23,2.27,2.77,3.63.27.64.42,1.59.38,2.41-.06.82-.27,1.48-.33,1.69Z"></path>
    </g>
    <g>
      <path class="cls-8" d="M156.64,553.15c.51-3.95,2.64-6.6,6.05-8.48,1.83-1,6.2-2.19,6.99-4.33.82-2.21-.47-6.05-1.34-8.06-1.9-4.38-3.41-5.37-9.72-4"></path>
      <path class="cls-2" d="M156.66,553.16c.27-.12.52-1.62,1.32-3.12.76-1.52,2.15-2.86,3.07-3.39.79-.48,1.68-.93,2.54-1.27.91-.34,1.94-.67,2.96-1.08,1.03-.43,2.09-.88,3.12-1.73.5-.43,1.04-.99,1.35-1.79.27-.7.34-1.35.37-1.96.06-2.14-.48-3.96-1.1-5.68-.32-.86-.7-1.68-1.11-2.47-.42-.79-.9-1.6-1.6-2.33-.68-.73-1.65-1.31-2.59-1.51-.94-.21-1.79-.16-2.56-.08-1.52.23-2.79.67-3.89,1.11,1.15.39,2.76.61,4.07.91.65.16,1.2.35,1.58.53.37.2.62.35.83.46.89.37,1.7,1.52,2.33,2.65.65,1.13,1.15,2.32,1.52,3.49.35,1.17.56,2.36.45,3.43-.04.26-.09.51-.17.75-.08.22-.19.4-.34.59-.3.37-.72.69-1.16.96-1.81,1.12-3.85,1.54-5.72,2.55-1.8.97-3.34,2.31-4.27,3.91-.47.74-.87,1.89-.98,2.9-.14,1.02-.06,1.88-.03,2.16Z"></path>
    </g>
    <path class="cls-2" d="M165.53,540.88c.23-.24-.7-1.95-.88-2.69-.32-1.31-.91-2.68-1.35-3.94-.79-2.2-1.6-4.25-2.35-5.7-.74.79-1,2.32-.72,2.77,1.09,1.78,1.79,3.32,2.36,4.73.58,1.4,1.03,2.66,1.68,3.61.29.47,1.08,1.11,1.25,1.23Z"></path>
    <path class="cls-2" d="M191.85,537.34c-.3-.09-.35-1.62-.66-2.16-.48-.95-.88-2.02-1.34-2.98-.79-1.67-1.4-3.44-1.49-4.81.99.11,2.01.84,2.05,1.26.16,1.68.65,2.96,1.1,4.11.44,1.15.84,2.21.8,3.18.02.46-.36,1.25-.46,1.39Z"></path>
    <path class="cls-5" d="M169.89,515.5c.13.09,2.67,4.45,8.5,4.84,5.83.39,6.92-1.34,6.92-1.34,0,0-4.08.84-7.76-.03-3.68-.88-7.65-3.47-7.65-3.47Z"></path>
    <path class="cls-5" d="M154.96,501.01s6.62,3.11,15.75,2.96c12.45-.21,15.1-2.98,15.1-2.98,0,0-4.99,2.02-15.12,1.23-5.08-.4-7.7-1.08-10.31-1.71-2.95-.71-5.78-2.28-5.78-2.28l.36,2.78Z"></path>
    <path class="cls-5" d="M246.75,492.73s1.77,1.33,4.49.18l1.15-2.93s-2.35,2.14-5.63,2.75Z"></path>
    <path class="cls-5" d="M168.92,480.57s-2.96,8.02-15.77,10.46l-1.05-3.23s2.39.82,6.46-.46c6.51-2.05,10.36-6.77,10.36-6.77Z"></path>
    <path class="cls-3" d="M184.78,481.25s.45,5.29.54,10.67c.09,5.38-.72,7.8-.72,7.8,0,0,2.6-.63,2.78-2.69s.18-15.69.18-15.69l-2.78-.09"></path>
    <path class="cls-3" d="M249.31,482.48s-1.57,5.58-1.22,6.72,1.86,1.22,1.86,1.22c0,0-1.86,1.22-3,1.07-1.14-.14-.57-2.36-.43-3.29.14-.93,1.14-6.58,1.14-6.58l1.65.86Z"></path>
    <path class="cls-1" d="M160.86,546.94s5.52,9.39,17.26,9.04,17.85-5.99,17.85-5.99c0,0-5.64,11.98-19.61,10.69-13.97-1.29-18.55-8.81-18.55-8.81,0,0-.23-1.53,1.06-2.94s2-2,2-2Z"></path>
    <path class="cls-1" d="M168.49,542.95s2.23,3.17,5.28,2.47c3.05-.7,3.88-1.76,6.93-2,3.05-.23,4.7.59,7.05-.12,2.35-.7,3.64-2.82,3.64-2.82l-1.53-1.53s-1.17,1.88-3.17,2c-2,.12-4.93-.59-6.81-.35-1.88.23-3.76,1.41-5.52,1.88s-4.46-.59-4.46-.59l-1.41,1.06Z"></path>
    <path class="cls-1" d="M227.75,538.52s2.04,1.53,4.85.51,4.17-2.21,5.37-2.98c1.19-.77,3.92-1.02,4.68-1.7s1.87-1.45,2.21-2.98l-2.38-.77s-.51,1.53-1.62,2.21c-1.11.68-3.49-.09-4.94.85-1.45.94-2.47,2.13-4,2.56-1.53.43-3.15.43-3.15.43l-1.02,1.87Z"></path>
    <path class="cls-1" d="M150.15,526.88s3.98,12.82,9.18,18.88c0,0-2.6,2.08-3.12,4.68,0,0-6.41-7.79-8.66-16.97-2.25-9.18-1.91-10.91-1.91-10.91l4.5,4.33Z"></path>
    <path class="cls-1" d="M194.79,523.65s12.21,12.9,26.38,19c0,0-1.84,2.76-1.15,5.99,0,0-20.62-12.09-26.38-20.39l-1.27-2.07,2.42-2.53Z"></path>
    <path class="cls-1" d="M222.6,543.96s7.91,2.95,14.81,1.88c6.9-1.07,12.17-5.96,12.17-5.96l.25,1.63s-1.32,7.97-13.24,9.72c-11.92,1.76-15.18-1.44-15.18-1.44,0,0-.88-3.76,1.19-5.83Z"></path>
    <path class="cls-1" d="M222.51,521.24s7.29,6.58,8.39,8.62c1.1,2.04,1.02,3.13,1.02,3.13l-1.88,1.18s-.08-1.72-1.41-3.13c-1.33-1.41-6.35-7.13-6.35-7.13l-1.41-.78,1.65-1.88Z"></path>
    <path class="cls-1" d="M169.82,525.4s4.37,6.8,4.27,13.88l-2.72,1.07s.29-5.05-2.14-9.61l-1.94-2.91s1.26-1.65,2.52-2.43Z"></path>
    <path class="cls-1" d="M184.06,524.29s-1.13,2.27-1.13,4.31.97,6.41,1.55,7.48c.58,1.07,2.43,2.23,2.43,2.23l.87-.78s-1.84-1.36-2.23-3.59-.87-6.5-.87-6.5l1.17-1.5-1.79-1.64Z"></path>
    <path class="cls-1" d="M232.33,519.31s.13,2.97,1.35,4.99,4.45,5.8,6.47,6.61l.94-.94s-4.32-2.56-5.53-5.26c-1.21-2.7-.4-4.32-.4-4.32l-2.83-1.08Z"></path>
    <path class="cls-7" d="M153.08,497.65c-.03-.14-4.25-1.17-4.25-1.17,0,0,.44,2.48.34,3.5l4.34,1.11s-.18-2.26-.43-3.45Z"></path>
  </g>
  <g id="acc-3" data-name="acc">
    <path class="cls-5" d="M216.95,511.8s-2.86,4.94-10.16,8.66c0,0-3.39-.73-5.28-2.58,0,0,4.01-.52,7.7-2.02,3.38-1.37,7.74-4.06,7.74-4.06Z"></path>
    <path class="cls-5" d="M147.87,522.03s4.73,3.66,13.28,1.37c0,0-10.31-1.25-13.98-3.64l.7,2.26Z"></path>
    <path class="cls-5" d="M197.18,521.25s4.28,2.48,15.15,1.45c0,0-9.67-.17-12.58-4.45l-3.34.34.77,2.65Z"></path>
    <path class="cls-5" d="M240.37,511.95s-1.13,2.74-3.53,3.48c-3.41,1.06-6.32-.77-6.32-.77,0,0,3.47.41,6.05-.64s3.79-2.07,3.79-2.07Z"></path>
    <path class="cls-1" d="M146.09,530.78s2.18,26.77,27.07,31.76c1.07.21,1.81,1.2,1.71,2.29h0c-.11,1.22-1.21,2.11-2.43,1.94-4.33-.61-13.96-3.06-20.08-12.82-7.05-11.25-6.27-23.16-6.27-23.16Z"></path>
    <path class="cls-1" d="M194.42,530.59s15.39,22.36,40.29,22.9l.27,4.24s-16.01,3.83-36.25-13.95l-4.31-13.19Z"></path>
  </g>
</svg>