<svg xmlns="http://www.w3.org/2000/svg" id="sports" viewBox="0 0 380 600"><defs transform="matrix(-1, 0, 0, 1, 380, 0)"><style>.cls-1{fill:#ffffff;}.cls-2{fill:#ff4500;}.cls-3{fill:#353535;}.cls-4{fill:#787c7e;}</style></defs><g id="default" transform="matrix(-1, 0, 0, 1, 380, 0)"><path class="cls-1 color-body" d="M125.09,465.174c5.8,23.743,18.27,52.938,19.509,54.494-3.335,2.573-6.523,8.2-8.277,11.353-2.445,4.392-3.01,9.99-.8,14.507,3.815,7.814,14.166,9.864,22.608,8.131,9.719-2,16.627-7.8,22.451-15.923,4.489-6.264,4.1-13.863,4.542-21.582.415-2.34.386-19.372.381-22.154" style="fill:#ffffff;--backup-fill:#ffffff" /><path d="M185.561,494c.386.461.657,3.337.839,7.408.091,2.035.159,4.37.2,6.853.011,1.244.022,2.524.032,3.821-.014,1.315.006,2.6-.12,4.032l-.012.154c-.1,3.19-.061,6.448-.27,9.448a37.112,37.112,0,0,1-1.272,7.843,21.224,21.224,0,0,1-1.4,3.6c-.271.6-.629,1.155-.963,1.732-.339.556-.675,1.04-1.017,1.566a49.128,49.128,0,0,1-4.715,5.977,35.163,35.163,0,0,1-13.226,9.085,31.677,31.677,0,0,1-16.47,1.866,23.979,23.979,0,0,1-8.214-2.871,17.767,17.767,0,0,1-6.436-6.438,17.336,17.336,0,0,1-2.33-8.781A20.94,20.94,0,0,1,132,530.752c.276-.646.657-1.358.953-1.9l.892-1.578c.608-1.056,1.241-2.111,1.914-3.155s1.384-2.078,2.162-3.1c.387-.509.8-1.015,1.227-1.517l.58-.646.016,0a.222.222,0,0,0,.044-.014l.008-.038v-.014l0,0c0-.009.02.037-.032-.08l-.426-.965-.8-1.9q-.759-1.894-1.508-3.763-1.452-3.741-2.75-7.4c-1.731-4.875-3.28-9.625-4.622-14.212a181.747,181.747,0,0,1-5.679-25.02c2.771,4.383,6.071,10.809,9.048,16.9,2.958,6.094,5.551,11.869,6.454,15.082.95,3.429,1.978,6.777,3.045,10.047q.805,2.451,1.652,4.83.435,1.182.864,2.353l.443,1.151.31.756c.127.316.3.618.39.933,0,.853-.018,1.774.039,2.336a3.848,3.848,0,0,1-.357.968l-.427,1.167c-.383.357-.805.71-1.146,1.062-.205.217-.419.418-.619.649q-.611.668-1.187,1.394c-.77.963-1.5,1.98-2.192,3.019s-1.358,2.1-2,3.181c-.338.562-.619,1.041-.875,1.542a15.855,15.855,0,0,0-.684,1.552c-1.609,4.224-1.24,9.115,1.388,12.434A12.872,12.872,0,0,0,143,550.7a19.845,19.845,0,0,0,6.082,1.717A26.9,26.9,0,0,0,161.268,551a30.356,30.356,0,0,0,10.006-5.917,47.144,47.144,0,0,0,7.375-8.4,20.869,20.869,0,0,0,3.478-9.275c.51-3.331.617-6.765.9-10.167.024-.333.049-.676.086-1.186.01-.081.033-.3.048-.351.12-.774.213-1.793.314-2.82s.207-2.124.314-3.223c.231-2.209.468-4.48.688-6.6C184.942,498.831,185.385,495.225,185.561,494Z" /></g><g id="hero_red" transform="matrix(-1, 0, 0, 1, 380, 0)"><path class="cls-2 color-pant" d="M138.609,506.5c3.067,7.7,5.48,13.025,5.99,13.665-3.335,2.573-6.523,8.2-8.277,11.353-2.445,4.392-3.01,9.99-.8,14.507,3.815,7.814,14.166,9.864,22.608,8.131,9.719-2,16.627-7.8,22.451-15.923,4.488-6.265,4.1-13.863,4.543-21.582.2-1.113.293-5.551.34-10.2a42.6,42.6,0,0,1-46.851.046Z" /><path d="M138.644,506.453c.49-.072,2.165.855,4.734,1.931a45.7,45.7,0,0,0,9.882,2.982,42.727,42.727,0,0,0,11.8.464,35.485,35.485,0,0,0,9.325-2.2c.8-.314,1.582-.665,2.371-1.024l1.173-.576,1.439-.75a48.65,48.65,0,0,0,4.165-2.58l4.52-3.1.111.328.015.538.021,1.1q.019,1.122.04,2.249.028,2.325.057,4.672,0,2.078-.008,4.172c0,.5-.012.989-.04,1.54-.011.253-.047.662-.056.747l0,.059,0,.175-.006.349a94.412,94.412,0,0,1-.574,11.911,28.3,28.3,0,0,1-1.644,6.371c-.208.526-.454,1.042-.684,1.562-.256.511-.535,1.012-.806,1.516l-.923,1.452-.883,1.242A49.169,49.169,0,0,1,174.4,550.6a35.2,35.2,0,0,1-8.9,5.438,34.286,34.286,0,0,1-10.089,2.555,29.7,29.7,0,0,1-10.382-.857,21.132,21.132,0,0,1-9.39-5.2,17.075,17.075,0,0,1-4.818-9.637,19.62,19.62,0,0,1,1.224-9.831,22.026,22.026,0,0,1,1-2.162l.579-1.007.532-.855c.714-1.141,1.448-2.27,2.215-3.366s1.565-2.165,2.419-3.191c.43-.512.871-1.014,1.33-1.5l.674-.682.284-.212.331-.233.17-.1c.036-.038.165-.063.106-.116a5.6,5.6,0,0,1-.219-.672l-.129-.419q-.151-.41-.3-.813-.3-.849-.6-1.671c-.384-1.1-.744-2.162-1.08-3.2-.674-2.076-1.266-4.044-1.8-5.933,1.214,1.4,2.515,3.082,3.86,4.916.661.922,1.345,1.876,2.043,2.848l1.037,1.473c.183.262.329.455.54.776.232.37.475.735.709,1.147.159.831.295,1.605.446,2.238.084.155-.052.322-.068.486l-.127.5c-.086.425-.167.85-.245,1.32l-.732.837-.187.213-.115.142-.04.063-.158.252c-.213.327-.412.687-.617,1.024-.4.705-.785,1.408-1.151,2.126-.737,1.424-1.411,2.851-2.053,4.186-.326.676-.641,1.327-.94,1.946-.229.5-.432.973-.61,1.428-.354.908-.6,1.718-.813,2.368a11.834,11.834,0,0,0-.522,5.467,8.37,8.37,0,0,0,.777,2.561c.1.2.174.42.284.616l.356.578a7.964,7.964,0,0,0,.8,1.109c2.352,2.882,6.382,4.49,10.381,4.988a26.2,26.2,0,0,0,11.928-1.351,30.006,30.006,0,0,0,10.038-5.95,45.115,45.115,0,0,0,7.381-8.593,22.086,22.086,0,0,0,3.05-9.921c.173-1.748.241-3.512.29-5.278q.031-1.333.065-2.65l.036-1.327.022-.663c0-.232.056-.621.059-.747.056-.74.073-1.621.089-2.452q-.006-.685-.012-1.363-.012-.606-.026-1.2l-.015-.576-.008-.282c-.01-.03.017-.129-.024-.1l-.128.09c-.493.349-.977.666-1.458.942-.237.145-.48.267-.714.4l-.355.178-.756.355a41.356,41.356,0,0,1-20.071,3.441,32.813,32.813,0,0,1-6.485-1.109,37.534,37.534,0,0,1-6.646-2.517A34.911,34.911,0,0,1,138.644,506.453Z" /></g><path class="cls-3" d="M138.924,510.241c-1.474-3.02-3.4-8.525-2.689-12.735,7.9,13.035,39.775,12.1,49.233,6.6,0,0-1.906,8.01-2.475,11.8C175.8,521.5,143.871,520.741,138.924,510.241Z" transform="matrix(-1, 0, 0, 1, 380, 0)" /><path d="M138.944,510.231a5.378,5.378,0,0,1,.691.9c.2.226.427.491.686.791.293.269.6.582.97.891a20.458,20.458,0,0,0,6.371,3.322,51.083,51.083,0,0,0,15.035,2.394,55.256,55.256,0,0,0,15.805-1.843,15.365,15.365,0,0,0,1.84-.687,6.848,6.848,0,0,0,.85-.418l.407-.223.179-.127.022-.018c.044.006.056-.137.066-.242l.16-.986.382-2.1q.4-2.084.839-4.138l.213-1,.009-.089c0-.05.019-.113,0-.126l-.114.072-.047.028-.012.006a.5.5,0,0,1-.088.035l-.4.155q-1.622.564-3.222.963a58.6,58.6,0,0,1-12.557,1.6,64.439,64.439,0,0,1-12.136-.795,41.723,41.723,0,0,1-10.955-3.26,24.967,24.967,0,0,1-4.586-2.831l-1-.847-.425-.456a1.232,1.232,0,0,1-.163-.2l-.121-.17a3.4,3.4,0,0,1-.253-.386l-.118-.191-.061-.1c-.012,0-.014.043-.022.063a2.25,2.25,0,0,0-.069.319,4.578,4.578,0,0,0-.053.726l.011.4c.033.274.065.543.1.809q.129.87.3,1.692a33.991,33.991,0,0,0,1.834,5.881,23.461,23.461,0,0,1-3.086-5.835c-.212-.588-.409-1.195-.572-1.822l-.124-.491c-.05-.222-.078-.461-.119-.7a15.124,15.124,0,0,1-.195-2.869c.006-.467.037-.933.065-1.408s.079-1,.119-1.513a1.244,1.244,0,0,1,.042-.283l.047-.212.089-.449c1.07,1.375,2.721,3.914,3.717,4.645l.425.421.212.211a1.214,1.214,0,0,0,.142.109l.514.372a9.465,9.465,0,0,0,1,.681c1.306.859,2.534,1.424,3.373,1.891a38.506,38.506,0,0,0,10.521,3.411,62.007,62.007,0,0,0,20.688.2,42.69,42.69,0,0,0,4.68-1.048l1.114-.353c.186-.057.363-.132.544-.2s.487-.175.725-.278c1.03-.457,2.063-.984,3.031-1.506.094,0-.025.279-.046.431l-.126.54-.25,1.075q-.243,1.071-.484,2.13l-.651,3.03-.591,2.974q-.132.736-.263,1.464l-.128.781-.076.5c-.04.158,0,.361-.2.432l-.824.568-.682.377c-.453.256-.926.427-1.388.634a25.173,25.173,0,0,1-2.813.88,42.484,42.484,0,0,1-5.564.975,60.351,60.351,0,0,1-20.2-1.175,28.237,28.237,0,0,1-8.595-3.511,13.079,13.079,0,0,1-3.167-2.759,10.105,10.105,0,0,1-.854-1.264Z" transform="matrix(-1, 0, 0, 1, 380, 0)" /><path class="cls-4" d="M143.089,506.5a8.4,8.4,0,0,0,1.554,7.283,13.6,13.6,0,0,0,6.629,4.339,24.748,24.748,0,0,0,8.428,1.022c1.358-.049,3.093-.5,3.126-1.627a2.246,2.246,0,0,0-.806-1.445l-2.9-3.094a12.891,12.891,0,0,0-2.663-2.353,15,15,0,0,0-2.164-1.008c-3.745-1.509-7.626-3.048-11.784-3.189" transform="matrix(-1, 0, 0, 1, 380, 0)" /><path d="M142.511,506.413a11.123,11.123,0,0,1,4.589.311c2.317.489,4.827,1.417,6.237,1.858a18.317,18.317,0,0,1,3.893,1.534A18.96,18.96,0,0,1,160.516,513L162,514.5l.738.752a5.8,5.8,0,0,1,.821.98,2.24,2.24,0,0,1-.17,2.74,2.992,2.992,0,0,1-.686.571,6.037,6.037,0,0,1-2.422.75c-.716.073-1.253.072-1.883.082-.609,0-1.218-.01-1.825-.049a23.2,23.2,0,0,1-3.6-.494,16.938,16.938,0,0,1-6.445-2.825,10.446,10.446,0,0,1-3.877-5.184,8.239,8.239,0,0,1,.1-5.409,10.874,10.874,0,0,0,1.5,4.951,15.932,15.932,0,0,0,2.712,3.108,12.536,12.536,0,0,0,4.3,2.831,18.492,18.492,0,0,0,4.887,1.215,24.213,24.213,0,0,0,2.431.156,10.014,10.014,0,0,0,2.29-.146c.711-.16,1.376-.46,1.46-.9a.818.818,0,0,0-.2-.681,7.942,7.942,0,0,0-.7-.779l-2.989-3.079a9.616,9.616,0,0,0-3-2.272c-2.317-.955-4.607-1.843-6.672-2.586-1-.337-2.344-.84-3.57-1.183C143.971,506.686,142.873,506.488,142.511,506.413Z" transform="matrix(-1, 0, 0, 1, 380, 0)" /><g data-name="default" id="default-2" transform="matrix(-1, 0, 0, 1, 380, 0)"><ellipse class="cls-1 color-body" cx="182.666" cy="463" rx="57.576" ry="25.423" style="fill:#ffffff;--backup-fill:#ffffff" /><path d="M240.211,463c-.114-.271-.144-1.126-.47-2.383a14.713,14.713,0,0,0-2.181-4.591c-2.335-3.468-6.908-6.866-12.274-9.432a75.851,75.851,0,0,0-17.249-5.618,102.7,102.7,0,0,0-14.759-1.964,135.859,135.859,0,0,0-20.584.344,109.654,109.654,0,0,0-20.919,3.9,69.213,69.213,0,0,0-9.97,3.745,40.718,40.718,0,0,0-8.837,5.466,16.68,16.68,0,0,0-5.575,7.735,10.261,10.261,0,0,0,1.424,8.555,22.234,22.234,0,0,0,5.861,5.891,45.714,45.714,0,0,0,7.546,4.253,80.68,80.68,0,0,0,16.634,5.217,127.607,127.607,0,0,0,33.621,2.16c10.8-.726,21.043-2.714,29.867-6.26a41.746,41.746,0,0,0,11.673-6.8,18.961,18.961,0,0,0,3.987-4.717A12.042,12.042,0,0,0,239.673,463a11.351,11.351,0,0,1-.855,5.665,18.9,18.9,0,0,1-3.8,5.7,40.971,40.971,0,0,1-12.386,8.469,77.077,77.077,0,0,1-23.558,6.506,131.781,131.781,0,0,1-14.729.629,134.891,134.891,0,0,1-14.228-.889,101.833,101.833,0,0,1-26.391-6.39,49.651,49.651,0,0,1-11.4-6.334,26.141,26.141,0,0,1-4.635-4.491,15.894,15.894,0,0,1-2.952-5.731,12.1,12.1,0,0,1,.04-6.4,15.806,15.806,0,0,1,2.875-5.539,31.321,31.321,0,0,1,9.217-7.53,61.831,61.831,0,0,1,10.449-4.645,89.251,89.251,0,0,1,10.632-2.939,118.5,118.5,0,0,1,20.785-2.5,123.865,123.865,0,0,1,19.548.826,95.8,95.8,0,0,1,17.875,3.854c5.324,1.679,12.5,4.809,17.609,9.321a26.265,26.265,0,0,1,3.327,3.531,18.324,18.324,0,0,1,2.135,3.632A12.689,12.689,0,0,1,240.211,463Z" /><path class="cls-1 color-body" d="M125.09,463.371c9.04,37.246,43.744,55.977,63.789,54.5,18.518-1.37,41.244-8.937,48.759-28.749,2.676-7.054,3.186-15.453,2-25.746" style="fill:#ffffff;--backup-fill:#ffffff" /><path d="M239.67,463.367a23.509,23.509,0,0,1,.808,4.951,59.335,59.335,0,0,1,.111,10.411,38.5,38.5,0,0,1-2.713,11.776c-.385.9-.76,1.777-1.123,2.624-.447.806-.878,1.584-1.289,2.324-.208.369-.4.736-.6,1.08l-.662.957c-.426.621-.821,1.2-1.18,1.722a41.689,41.689,0,0,1-10.035,9.529,57.756,57.756,0,0,1-12.839,6.488,78.24,78.24,0,0,1-14,3.625l-3.549.513-3.541.364a37.861,37.861,0,0,1-7.229-.169,51.959,51.959,0,0,1-11.9-2.883,67.6,67.6,0,0,1-10.842-5.082,73.85,73.85,0,0,1-24.222-22.792,76.981,76.981,0,0,1-4.917-8.7,70.281,70.281,0,0,1-5.405-16.6,122.873,122.873,0,0,0,8.063,15.834c1.644,2.69,3.425,5.162,4.976,7.3l2.209,2.876c.684.842,1.251,1.6,1.719,2.219a68.1,68.1,0,0,0,27.676,21.573,48.544,48.544,0,0,0,15.644,3.82c.649.033,1.295.032,1.938.049.643,0,1.28-.047,1.917-.068,1.284-.11,2.567-.232,3.832-.367,1.261-.183,2.516-.332,3.751-.539,1.23-.236,2.459-.43,3.661-.7,9.624-2.051,18.282-5.769,24.919-11.1a40.059,40.059,0,0,0,8.31-8.952,39.093,39.093,0,0,0,2.748-5.1,30.2,30.2,0,0,0,1.942-5.26,58.2,58.2,0,0,0,1.858-12.468C239.9,468.331,239.707,464.592,239.67,463.367Z" /></g><g data-name="hero_red" id="hero_red-2" transform="matrix(-1, 0, 0, 1, 380, 0)"><path class="cls-2 color-pant" d="M239.64,463.871s-22.14,22.629-64.388,20c-44.128-2.747-50.162-20-50.162-20,9.04,37.246,43.743,55.977,63.788,54.5,18.519-1.37,41.246-8.937,48.76-28.749C240.313,482.563,240.824,474.164,239.64,463.871Z" /><path d="M239.67,463.867a44.949,44.949,0,0,1,.952,8.521A45.683,45.683,0,0,1,238.138,490q-.508,1.174-1.024,2.367c-.176.4-.337.8-.527,1.191l-.647,1.138c-.438.757-.855,1.532-1.316,2.278l-1.538,2.141a18.167,18.167,0,0,1-1.66,2.035c-.59.643-1.127,1.334-1.755,1.927a43.392,43.392,0,0,1-3.818,3.374,56.58,56.58,0,0,1-14.758,8.26,80.238,80.238,0,0,1-11.076,3.34,88.678,88.678,0,0,1-11.792,1.73c-8.293.446-16.467-1.915-23.971-5.355a75,75,0,0,1-41.1-50.085l3.815-1.127.146.3a3.329,3.329,0,0,0,.216.4,7.866,7.866,0,0,0,.515.819,16.232,16.232,0,0,0,1.236,1.6c.426.528.957.994,1.426,1.5.5.485,1.054.918,1.575,1.381s1.13.843,1.686,1.272a16.442,16.442,0,0,0,1.762,1.18l1.82,1.1c.624.342,1.272.647,1.905.973a73.639,73.639,0,0,0,16.129,5.516c2.782.551,5.527,1.177,8.313,1.511l4.141.593,4.135.389c1.372.111,2.739.3,4.095.347l4.048.147c2.687.183,5.338.007,7.961-.062l1.961-.062,1.938-.2,3.84-.385c1.277-.1,2.515-.394,3.761-.578,1.24-.223,2.485-.385,3.7-.651l3.6-.848c.595-.144,1.192-.271,1.778-.426l1.734-.525,3.429-1.037,3.3-1.215a81.72,81.72,0,0,0,12.125-5.733,61.162,61.162,0,0,0,9.99-7.049,52.712,52.712,0,0,1-10.669,9.168,78.871,78.871,0,0,1-14.7,7.657l-3.9,1.423c-1.29.462-2.6.781-3.872,1.163a74.421,74.421,0,0,1-7.358,1.727c-.581.114-1.149.243-1.71.335l-1.655.213-3.072.375a39.661,39.661,0,0,1-5.021.315c-1.552.017-3.1.075-4.631.06l-4.581-.235c-3.048-.075-6.014-.511-8.971-.8-1.478-.13-2.942-.365-4.4-.605l-4.345-.687-4.271-.909-2.118-.453-2.082-.578c-1.38-.4-2.774-.719-4.12-1.192l-4.019-1.4-3.885-1.653c-1.266-.6-2.494-1.273-3.731-1.9a39.9,39.9,0,0,1-6.756-4.79,16.415,16.415,0,0,1-1.484-1.43l-.714-.742-.653-.8a14.132,14.132,0,0,1-2.226-3.582l1.624-.48a71.142,71.142,0,0,0,18.858,33.9,73.56,73.56,0,0,0,14.348,11.242,64.4,64.4,0,0,0,15.861,6.914,46.764,46.764,0,0,0,8.153,1.541,36,36,0,0,0,8.052-.169,82.732,82.732,0,0,0,15.4-3.088c9.725-2.981,18.472-7.885,24.347-14.913a38.013,38.013,0,0,0,8.454-19.45A78.208,78.208,0,0,0,239.67,463.867Z" /></g><g data-name="hero_red" id="hero_red-3" transform="matrix(-1, 0, 0, 1, 380, 0)"><path class="cls-1 color-body" d="M235.5,492.148a63.409,63.409,0,0,0-26.927,5.575A62.2,62.2,0,0,0,187.5,513.5c4.568,5.6,4.084,11.914,5.006,18.762C189.5,537.5,186.5,544.5,187.1,551.7c.9,10.771,7.485,16.831,17.718,17.24,7.847.315,16.58-3.8,21.823-9.859,6.039-6.977,8.861-14.58,9.651-24.01C236.5,520.5,237.239,508.263,235.5,492.148Z" style="fill:#ffffff;--backup-fill:#ffffff" /><path d="M235.532,492.144c.4.829,1.486,9.12,1.682,18.774.126,4.822.086,9.969.042,14.663-.016,2.346-.03,4.581-.043,6.609,0,1.025,0,2,.006,2.9-.07.922-.121,1.8-.208,2.559a40.243,40.243,0,0,1-4.924,16.231,39.8,39.8,0,0,1-5.219,7.205,30.593,30.593,0,0,1-7.171,5.624,31.5,31.5,0,0,1-8.537,3.366,28.334,28.334,0,0,1-4.612.629,25.829,25.829,0,0,1-4.651-.241,19.726,19.726,0,0,1-8.759-3.3,17.649,17.649,0,0,1-5.942-7.179,23.8,23.8,0,0,1-2-7.615,26.277,26.277,0,0,1,.348-7.773,37.117,37.117,0,0,1,2.216-7.246c.476-1.153,1-2.277,1.559-3.372.275-.552.569-1.089.859-1.628l.281-.5-.188-1.712-.164-1.768c-.1-1.17-.207-2.308-.333-3.427a25.132,25.132,0,0,0-1.4-6.244A15.152,15.152,0,0,0,187,516c-.053-.113-.444-.669-.746-1.086l-.928-1.31-.115-.163c-.057-.055.057-.105.078-.157l.253-.311.511-.616c.345-.409.682-.821,1.05-1.216l.65-.693.6-.623c.413-.4.814-.814,1.234-1.2q1.244-1.179,2.533-2.271a62.2,62.2,0,0,1,22.133-12.223,62.933,62.933,0,0,1,11.076-2.266,56.617,56.617,0,0,1,10.2-.286,74.594,74.594,0,0,0-37.208,14.543,57.536,57.536,0,0,0-8.6,7.193l-.257.23c-.046.088.08.185.12.289l.675,1.132c.226.458.479.9.677,1.369a23.064,23.064,0,0,1,1.637,5.687c.314,1.9.443,3.761.581,5.578q.106,1.353.211,2.695l.06.666.079.738.058.513.028.255a2.229,2.229,0,0,1-.122.224l-.465.8a41.425,41.425,0,0,0-4.126,9.459,24.1,24.1,0,0,0-.846,9.817,18.756,18.756,0,0,0,3.222,8.867,14.92,14.92,0,0,0,7.249,5.351,21.677,21.677,0,0,0,8.847,1.082,28.615,28.615,0,0,0,15.568-6.667,27.73,27.73,0,0,0,2.914-2.88c.882-1.049,1.733-2.117,2.493-3.228a35.65,35.65,0,0,0,3.8-6.939,38.687,38.687,0,0,0,2.2-7.332c.252-1.234.448-2.471.6-3.7a26.564,26.564,0,0,0,.268-3.658c.084-4.959.248-9.8.377-14.429.1-4.41.3-10.42.269-15.716S235.592,493.648,235.532,492.144Z" /><path class="cls-2 color-pant" d="M191.338,522.252c.591,3.183.7,6.527,1.168,10.01C189.5,537.5,186.5,544.5,187.1,551.7c.9,10.771,7.485,16.831,17.718,17.24,7.847.315,16.58-3.8,21.823-9.859,6.039-6.977,8.861-14.58,9.651-24.01.09-6.277.278-12.122.325-18.031A40.812,40.812,0,0,1,210,526.5,42.364,42.364,0,0,1,191.338,522.252Z" /><path d="M191.365,522.2c.463-.14,2.21.5,4.821,1.215a48.5,48.5,0,0,0,9.9,1.682,42.853,42.853,0,0,0,11.445-.827,39.636,39.636,0,0,0,4.956-1.416,30.916,30.916,0,0,0,3.8-1.69c.727-.371,1.427-.8,2.141-1.214l1.074-.684c.619-.357,1.184-.789,1.793-1.222,1.194-.792,2.486-1.926,3.823-3.03l4.106-3.513a5.309,5.309,0,0,1,.156,1.815q.013,1.092.026,2.187.021,2.266.041,4.555.013,2.376.026,4.774.025,1.416.052,2.841.038,2.816.077,5.658a37.692,37.692,0,0,1-.358,5.99,44.143,44.143,0,0,1-3.149,11.8,42.514,42.514,0,0,1-6.357,10.279,31.841,31.841,0,0,1-8.741,7.27,32.358,32.358,0,0,1-10.559,3.848,26.272,26.272,0,0,1-11.3-.459,24.218,24.218,0,0,1-2.735-.889,21.759,21.759,0,0,1-2.611-1.292,20.734,20.734,0,0,1-2.419-1.636,19.987,19.987,0,0,1-2.106-2,20.722,20.722,0,0,1-4.842-9.7c-.17-.838-.3-1.673-.411-2.5-.061-.828-.159-1.629-.175-2.46a25.265,25.265,0,0,1,.32-4.844,32.891,32.891,0,0,1,2.629-8.519q.88-1.92,1.883-3.657c.337-.575.67-1.145,1.022-1.691l.26-.41.065-.1c.017-.027.016-.02.016-.02l.017-.022.07-.087.289-.367c0-.244.014-.42.009-.777l-.04-1.387c-.01-.894-.019-1.756-.028-2.592-.011-1.656-.029-3.179-.135-4.636a26.113,26.113,0,0,1,2,4.379c.3.826.6,1.687.892,2.564q.22.654.446,1.323c.159.518.341,1.183.523,1.84l-.4,1.055-.223.567-.121.393-.47,1.573c-.3,1.052-.584,2.1-.818,3.137a41.942,41.942,0,0,0-.98,5.926,31.719,31.719,0,0,0-.075,4.907c.055.7.1,1.341.183,1.957.056.61.1,1.155.153,1.613a13.389,13.389,0,0,0,4.768,9.808c2.869,2.329,7,3.323,10.868,3.3a25.2,25.2,0,0,0,11.224-3.066,26.221,26.221,0,0,0,8.623-7.289,34.2,34.2,0,0,0,5.363-9.539,41.249,41.249,0,0,0,2.247-10.246,47.343,47.343,0,0,0,.133-5.132q-.006-2.589-.011-5.115-.006-1.044-.013-2.074-.014-.613-.028-1.219c-.008-.388-.017-.772-.026-1.154l-.012-.553-.006-.271c0-.019,0-.053,0-.059l-.059.051-.116.1a17.71,17.71,0,0,1-2.6,1.915l-.669.377c-.254.143-.507.287-.768.413-.519.257-1.03.529-1.552.768l-1.568.693-1.582.617a40.2,40.2,0,0,1-12.693,2.423,36.871,36.871,0,0,1-21.476-6.24Z" /></g><path class="cls-3" d="M236.653,518.677c.03-2.99.747-7.566-.388-11.683-8.487,14.431-35.751,19.164-45.382,12.371a85.354,85.354,0,0,1,3.153,9.079C203.378,536.7,233.858,533.194,236.653,518.677Z" transform="matrix(-1, 0, 0, 1, 380, 0)" /><path d="M236.676,518.681a7.63,7.63,0,0,1-.93,3.364,12.83,12.83,0,0,1-1.858,2.782,17.909,17.909,0,0,1-2.933,2.65c-4.491,3.333-10.68,4.908-14.064,5.542a41.734,41.734,0,0,1-8.264.814,33.47,33.47,0,0,1-8.655-1.058,19.853,19.853,0,0,1-4.245-1.624,10.006,10.006,0,0,1-1.012-.586,7.436,7.436,0,0,1-.974-.675l-.69-.539a1.22,1.22,0,0,1-.188-.16l-.066-.24-.131-.478-.165-.575-.151-.494c-.421-1.333-.875-2.609-1.39-3.971-.468-1.26-.971-2.527-1.512-3.835l-.818-1.973c-.265-.644-.573-1.364-.761-1.863l2.436,1.525a23.652,23.652,0,0,0,2.486,1.452l1.13.57c.187.09.381.2.557.264l.392.131c.347.1.677.233,1.031.311a33.978,33.978,0,0,0,11.791.636,49.76,49.76,0,0,0,11.287-2.514,40.251,40.251,0,0,0,9.574-4.753,27.644,27.644,0,0,0,3.787-3.1c.3-.263.545-.561.812-.841l.2-.211c.114-.127.243-.262.344-.4.217-.255.421-.577.628-.855l1.2-1.673,1.063-1.574.1.161a.471.471,0,0,1,.092.234q.079.354.159.7.143.669.281,1.318c.08.427.158.846.235,1.26q.078.648.155,1.277.034.613.068,1.209v.821c-.01.538-.032,1.058-.063,1.562-.127,2.011-.4,3.764-.519,5.4-.295-1.551-.389-3.538-.613-5.606-.056-.518-.12-1.042-.2-1.566a5.329,5.329,0,0,0-.237-1.107,2.347,2.347,0,0,0-.24-.527.694.694,0,0,0-.117-.148l-.055-.049a1.544,1.544,0,0,0-.084.172c-.143.332-.285.658-.42.972a22.639,22.639,0,0,1-2.1,2.421,21.7,21.7,0,0,1-3.787,3.04,45.822,45.822,0,0,1-10.012,4.42,54.426,54.426,0,0,1-10.035,2.085,43.63,43.63,0,0,1-9.655.039,28.187,28.187,0,0,1-4.552-.916l-1.027-.342-.63-.257a8.4,8.4,0,0,1-1.178-.641l-.1-.066c-.033-.021-.087-.064-.049,0l.094.231.184.461.357.915c.169.431.614,1.641.937,2.58.34.985.661,1.967.941,2.96.047.386.24.418.672.772.376.286.8.514,1.192.769a20.268,20.268,0,0,0,5.268,1.921,31.864,31.864,0,0,0,5.4.731,45.154,45.154,0,0,0,10.239-.624,40.074,40.074,0,0,0,9.021-2.628,23.068,23.068,0,0,0,7.189-4.643,12.473,12.473,0,0,0,2.307-3.15A14.736,14.736,0,0,0,236.676,518.681Z" transform="matrix(-1, 0, 0, 1, 380, 0)" /><path class="cls-4" d="M199.346,522.278c-.459.022-.649,3.282-.614,3.6a7.113,7.113,0,0,0,2.217,4.292c2.344,2.172,5.8,2.528,8.995,2.628,2.477.077,7.451.258,9.134-2.1,1.469-2.061.282-6.421-1.068-8.231C214.017,521.44,206.647,522.194,199.346,522.278Z" transform="matrix(-1, 0, 0, 1, 380, 0)" /><path d="M199.345,522.26a30.394,30.394,0,0,1,4.809-.453l6.825-.425a38.91,38.91,0,0,1,4.317-.111,17.986,17.986,0,0,1,2.284.22l.856.17c.094,0,.14.066.184.138l.142.2.277.4a9.625,9.625,0,0,1,.6,1.089,11.574,11.574,0,0,1,1.125,4.706,5.76,5.76,0,0,1-.532,2.6,4.679,4.679,0,0,1-1.951,1.95,10.678,10.678,0,0,1-3.979,1.092,28.454,28.454,0,0,1-3.8.083,20.494,20.494,0,0,1-7.232-1.211,8.914,8.914,0,0,1-3.018-2.011,7.785,7.785,0,0,1-1.765-2.906,6.922,6.922,0,0,1-.341-1.568,5.928,5.928,0,0,1,.1-1.528c.069-.46.151-.906.256-1.343q.078-.327.187-.652a2.655,2.655,0,0,1,.146-.34.792.792,0,0,1,.128-.2c.041-.04.035-.059.117-.112a.622.622,0,0,1,.247-.09.473.473,0,0,0-.376.418,1.735,1.735,0,0,0-.03.337c0,.217.011.434.027.658.035.446.085.914.142,1.4l.092.727a1.9,1.9,0,0,0,.059.311l.108.324a7.114,7.114,0,0,0,.6,1.243A8.938,8.938,0,0,0,203,530.3a11.988,11.988,0,0,0,5.156,1.7,36.235,36.235,0,0,0,5.415.283,8.132,8.132,0,0,0,4.637-1.294c1.188-.914,1.218-2.643,1-4.081a10.851,10.851,0,0,0-.568-2.138,9.646,9.646,0,0,0-.43-.982,5.854,5.854,0,0,0-.462-.782c-.039-.105-.163-.083-.249-.109-.106-.017-.319-.07-.478-.087-.347-.043-.684-.1-1.031-.126-.686-.066-1.369-.1-2.044-.114-2.7-.06-5.244.069-7.627.075A63.491,63.491,0,0,1,199.345,522.26Z" transform="matrix(-1, 0, 0, 1, 380, 0)" /><path d="M148.974,515.634c-.022.07-.082.131-.1.2s.03.089.053.153a3.449,3.449,0,0,0,1.221,2.576c1.4,1.039,2.946,2.33,4.418,3.373a33.474,33.474,0,0,1,6.517,5.62c-1.53.95-3.792.912-4.259.308a34.047,34.047,0,0,0-5.334-5.295,25.867,25.867,0,0,1-2.27-2.089,5.529,5.529,0,0,1-1.429-2.516,2.506,2.506,0,0,1,.214-1.686,1.83,1.83,0,0,1,.22-.35,1.3,1.3,0,0,1,.275-.3A.381.381,0,0,1,148.974,515.634Z" transform="matrix(-1, 0, 0, 1, 380, 0)" /><path d="M164.357,521.487c-.163.22-.8.167-1.571.311a8.172,8.172,0,0,0-2.124.619,37.522,37.522,0,0,1-5.484,2.038,27.2,27.2,0,0,1-4.665,1.089,19.291,19.291,0,0,1-2.161.181c-.339.007-.682.006-.988-.012-.135-.014-.261-.024-.35-.04s-.232,0-.25.061a1.174,1.174,0,0,1,.242-1.26,6.516,6.516,0,0,1,.778-.979,2.381,2.381,0,0,1,1.47-.883c5.754.469,9.292-2.081,12.7-2.14a3.431,3.431,0,0,1,1.482.357A2.826,2.826,0,0,1,164.357,521.487Z" transform="matrix(-1, 0, 0, 1, 380, 0)" /><path d="M199.831,530.872c0,.061-.047.123-.038.175s.061.009.1.105a2.978,2.978,0,0,0,.394.7,3.658,3.658,0,0,0,1.391,1.106c1.441.531,3.045,1.256,4.527,1.8a29.277,29.277,0,0,1,6.743,3.259c-1.077,1.056-2.963,1.465-3.483,1.071a28.662,28.662,0,0,0-5.64-3.184c-1.665-.793-3.28-1.427-4.194-2.839a2.286,2.286,0,0,1-.355-1.391,2.015,2.015,0,0,1,.17-.67A.285.285,0,0,1,199.831,530.872Z" transform="matrix(-1, 0, 0, 1, 380, 0)" /><path d="M213.334,532.52c-.106.221-.657.255-1.271.445a5.829,5.829,0,0,0-1.662.743,30.464,30.464,0,0,1-4.241,2.384,21.777,21.777,0,0,1-3.694,1.483,15.2,15.2,0,0,1-1.762.41c-.282.047-.56.084-.825.108l-.281,0c-.084,0-.19.045-.168.088a.958.958,0,0,1-.032-1.126,5.35,5.35,0,0,1,.492-.942c.366-.553.784-.926,1.085-.942,4.851-.265,7.387-2.891,10.26-3.3a2.765,2.765,0,0,1,1.273.178A2.706,2.706,0,0,1,213.334,532.52Z" transform="matrix(-1, 0, 0, 1, 380, 0)" /><path d="M156.254,556.1c-.308-.156-.347-1.447-.419-2.9a14.2,14.2,0,0,0-.587-3.9,12.194,12.194,0,0,0-2.283-3.954,20.068,20.068,0,0,0-3.662-3.062,53.458,53.458,0,0,0-13.462-6.224,7.685,7.685,0,0,1,3.617-1.588,5.575,5.575,0,0,1,3.176.209,59.7,59.7,0,0,1,11,7.709,14.016,14.016,0,0,1,1.925,2.2,11.1,11.1,0,0,1,1.269,2.492,11.9,11.9,0,0,1,.647,4.849A13.538,13.538,0,0,1,156.254,556.1Z" transform="matrix(-1, 0, 0, 1, 380, 0)" /><path d="M147.3,525.017a.654.654,0,0,0-.045.4c0,.226-.061.572-.056.907a3.491,3.491,0,0,0,.406,1.826c.87,1.3,1.867,2.8,2.9,4.069a43.429,43.429,0,0,1,4.6,6.31c-1.59.762-3.76.364-4.067-.312a48.539,48.539,0,0,0-3.581-6.131,15.93,15.93,0,0,1-1.422-2.545,4.877,4.877,0,0,1-.39-2.687,2.652,2.652,0,0,1,.667-1.353,2.859,2.859,0,0,1,.553-.487A.382.382,0,0,1,147.3,525.017Z" transform="matrix(-1, 0, 0, 1, 380, 0)" /><path d="M158.977,530.85c-.216.2-.767.072-1.467.192a6.389,6.389,0,0,0-1.966.6,32.892,32.892,0,0,1-5.114,2.073,22.8,22.8,0,0,1-4.382,1.1,16.413,16.413,0,0,1-2.053.168,7.077,7.077,0,0,1-.917-.031c-.19-.04-.438-.087-.54.032a1.267,1.267,0,0,1,.077-1.345,7.691,7.691,0,0,1,.7-1.044c.488-.593,1.01-.962,1.354-.927,5.536.564,8.774-2.107,12.084-2.084a2.87,2.87,0,0,1,1.446.461A2.085,2.085,0,0,1,158.977,530.85Z" transform="matrix(-1, 0, 0, 1, 380, 0)" /><path d="M219.912,564.8c-.33-.186-.365-1.85-.71-3.67a8.74,8.74,0,0,0-1.963-4.45c-2.648-2.72-7.273-3.874-11.444-4.763a45.748,45.748,0,0,0-10.457-.973,29.017,29.017,0,0,0-4.592.526,5.251,5.251,0,0,0-3.2,1.394,2.436,2.436,0,0,1,.436-2.2,7.18,7.18,0,0,1,1.97-1.884,7.579,7.579,0,0,1,3.881-1.519,51.021,51.021,0,0,1,9.26,1.155c2.786.579,5.323,1.252,7.7,1.976a18.875,18.875,0,0,1,6.464,3.152,9.184,9.184,0,0,1,3.3,5.625,9.314,9.314,0,0,1-.052,3.338A15.3,15.3,0,0,1,219.912,564.8Z" transform="matrix(-1, 0, 0, 1, 380, 0)" /><path d="M199.521,537.254c0,.069-.034.142,0,.192a.946.946,0,0,1,.108.146,6.9,6.9,0,0,0,.367.842,3.846,3.846,0,0,0,1.281,1.437c1.434.8,3.039,1.784,4.548,2.555a36.5,36.5,0,0,1,6.863,4.215c-1.25,1.144-3.376,1.466-3.907.971a36.365,36.365,0,0,0-5.734-4.181c-1.684-1.072-3.36-2.083-4.043-3.787a2.636,2.636,0,0,1-.12-1.528,2.712,2.712,0,0,1,.24-.692A.319.319,0,0,1,199.521,537.254Z" transform="matrix(-1, 0, 0, 1, 380, 0)" /><path d="M213.021,539.4c-.129.246-.684.275-1.29.516a5.309,5.309,0,0,0-1.631.935,30.3,30.3,0,0,1-4.128,2.973,20.889,20.889,0,0,1-3.681,1.944,14.993,14.993,0,0,1-1.805.6,7.175,7.175,0,0,1-.841.176c-.169-.006-.431.018-.447.139a1.127,1.127,0,0,1-.256-1.242,6.682,6.682,0,0,1,.384-1.1c.3-.646.687-1.1,1-1.138,5.113-.689,7.4-3.814,10.424-4.482a2.634,2.634,0,0,1,1.392.137A2.3,2.3,0,0,1,213.021,539.4Z" transform="matrix(-1, 0, 0, 1, 380, 0)" /></svg>