<svg xmlns="http://www.w3.org/2000/svg" id="sports" viewBox="0 0 380 600"><defs transform="matrix(-1, 0, 0, 1, 380, 0)"><style>.cls-1{fill:#ffffff;}.cls-2{fill:#fff;}.cls-3{fill:#353535;}</style></defs><g id="default" transform="matrix(-1, 0, 0, 1, 380, 0)"><ellipse class="cls-1 color-body" cx="182.666" cy="463" rx="57.576" ry="25.423" style="fill:#ffffff;--backup-fill:#ffffff"></ellipse><path d="M240.211,463c-.114-.271-.144-1.126-.47-2.383a14.713,14.713,0,0,0-2.181-4.591c-2.335-3.468-6.908-6.866-12.274-9.432a75.851,75.851,0,0,0-17.249-5.618,102.7,102.7,0,0,0-14.759-1.964,135.859,135.859,0,0,0-20.584.344,109.654,109.654,0,0,0-20.919,3.9,69.213,69.213,0,0,0-9.97,3.745,40.718,40.718,0,0,0-8.837,5.466,16.685,16.685,0,0,0-5.575,7.735,10.261,10.261,0,0,0,1.424,8.555,22.216,22.216,0,0,0,5.861,5.89,45.57,45.57,0,0,0,7.546,4.253,80.622,80.622,0,0,0,16.634,5.218,127.607,127.607,0,0,0,33.621,2.16c10.8-.726,21.043-2.714,29.867-6.26a41.746,41.746,0,0,0,11.673-6.8,18.961,18.961,0,0,0,3.987-4.717A12.042,12.042,0,0,0,239.673,463a11.353,11.353,0,0,1-.855,5.665,18.9,18.9,0,0,1-3.8,5.7,40.971,40.971,0,0,1-12.386,8.469,77.077,77.077,0,0,1-23.558,6.506,131.539,131.539,0,0,1-14.729.628,134.626,134.626,0,0,1-14.228-.888,101.833,101.833,0,0,1-26.391-6.39,49.651,49.651,0,0,1-11.4-6.334,26.141,26.141,0,0,1-4.635-4.491,15.894,15.894,0,0,1-2.952-5.731,12.1,12.1,0,0,1,.04-6.4,15.806,15.806,0,0,1,2.875-5.539,31.321,31.321,0,0,1,9.217-7.53,61.831,61.831,0,0,1,10.449-4.645,89.251,89.251,0,0,1,10.632-2.939,118.5,118.5,0,0,1,20.785-2.5,123.865,123.865,0,0,1,19.548.826,95.8,95.8,0,0,1,17.875,3.854c5.324,1.679,12.5,4.809,17.609,9.321a26.265,26.265,0,0,1,3.327,3.531,18.324,18.324,0,0,1,2.135,3.632A12.689,12.689,0,0,1,240.211,463Z"></path><path class="cls-1 color-body" d="M125.09,463.371c9.04,37.246,43.744,55.977,63.789,54.5,18.518-1.37,41.244-8.937,48.759-28.749,2.676-7.054,3.186-15.453,2-25.746" style="fill:#ffffff;--backup-fill:#ffffff"></path><path d="M239.67,463.367a23.523,23.523,0,0,1,.808,4.951,59.335,59.335,0,0,1,.111,10.411,38.5,38.5,0,0,1-2.713,11.776c-.385.9-.76,1.777-1.123,2.624-.447.806-.878,1.584-1.289,2.324-.208.369-.4.736-.6,1.08l-.662.957c-.426.621-.821,1.2-1.18,1.722a41.708,41.708,0,0,1-10.035,9.529,57.756,57.756,0,0,1-12.839,6.488,78.24,78.24,0,0,1-14,3.625l-3.549.513-3.541.364a37.861,37.861,0,0,1-7.229-.169,51.959,51.959,0,0,1-11.9-2.883,67.6,67.6,0,0,1-10.842-5.082,73.85,73.85,0,0,1-24.222-22.792,76.981,76.981,0,0,1-4.917-8.7,70.281,70.281,0,0,1-5.405-16.6,122.873,122.873,0,0,0,8.063,15.834c1.644,2.69,3.425,5.162,4.976,7.3l2.209,2.876c.684.842,1.251,1.6,1.719,2.219a68.1,68.1,0,0,0,27.676,21.573,48.544,48.544,0,0,0,15.644,3.82c.649.033,1.295.032,1.938.049.643,0,1.28-.047,1.917-.068,1.284-.11,2.567-.232,3.832-.368,1.261-.182,2.516-.331,3.751-.538,1.23-.236,2.459-.431,3.661-.7,9.624-2.051,18.282-5.769,24.919-11.1a40.059,40.059,0,0,0,8.31-8.952,39.093,39.093,0,0,0,2.748-5.1,30.2,30.2,0,0,0,1.942-5.26,58.2,58.2,0,0,0,1.858-12.468C239.9,468.331,239.707,464.592,239.67,463.367Z"></path></g><g data-name="default" id="default-2" transform="matrix(-1, 0, 0, 1, 380, 0)"><path class="cls-1 color-body" d="M125.09,465.174c5.8,23.743,18.27,52.938,19.509,54.494-3.335,2.573-6.523,8.2-8.277,11.353-2.445,4.392-3.01,9.99-.8,14.507,3.815,7.814,14.166,9.864,22.608,8.131,9.719-2,16.627-7.8,22.451-15.923,4.489-6.264,4.1-13.863,4.542-21.582.415-2.34.386-19.372.381-22.154" style="fill:#ffffff;--backup-fill:#ffffff"></path><path d="M185.561,494c.386.461.657,3.337.839,7.408.091,2.035.159,4.37.2,6.853.011,1.244.022,2.524.032,3.821-.014,1.315.006,2.6-.12,4.032l-.012.154c-.1,3.19-.061,6.448-.27,9.448a37.1,37.1,0,0,1-1.272,7.843,21.224,21.224,0,0,1-1.4,3.6c-.271.6-.629,1.155-.963,1.732-.339.556-.675,1.04-1.017,1.566a49.128,49.128,0,0,1-4.715,5.977,35.163,35.163,0,0,1-13.226,9.085,31.677,31.677,0,0,1-16.47,1.866,23.979,23.979,0,0,1-8.214-2.871,17.767,17.767,0,0,1-6.436-6.438,17.336,17.336,0,0,1-2.33-8.781A20.94,20.94,0,0,1,132,530.752c.276-.646.657-1.358.953-1.9l.892-1.578c.608-1.056,1.241-2.111,1.914-3.155s1.384-2.078,2.162-3.1c.387-.509.8-1.015,1.227-1.517l.58-.646.016,0a.222.222,0,0,0,.044-.014l.008-.038v-.014l0,0c0-.009.02.037-.032-.08l-.426-.965-.8-1.9q-.759-1.894-1.508-3.763-1.452-3.741-2.75-7.4c-1.731-4.875-3.28-9.625-4.622-14.212a181.747,181.747,0,0,1-5.679-25.02c2.771,4.383,6.071,10.809,9.048,16.9,2.958,6.094,5.551,11.869,6.454,15.082.95,3.429,1.978,6.777,3.045,10.047q.805,2.451,1.652,4.83.435,1.182.864,2.353l.443,1.151.31.756c.127.316.3.618.39.933,0,.853-.018,1.774.039,2.336a3.848,3.848,0,0,1-.357.968l-.427,1.167c-.383.357-.805.71-1.146,1.062-.205.217-.419.418-.619.649q-.611.668-1.187,1.394c-.77.963-1.5,1.98-2.192,3.019s-1.358,2.1-2,3.181c-.338.562-.619,1.041-.875,1.542a15.855,15.855,0,0,0-.684,1.552c-1.609,4.224-1.24,9.115,1.388,12.434A12.872,12.872,0,0,0,143,550.7a19.845,19.845,0,0,0,6.082,1.717A26.9,26.9,0,0,0,161.268,551a30.356,30.356,0,0,0,10.006-5.917,47.144,47.144,0,0,0,7.375-8.4,20.869,20.869,0,0,0,3.478-9.275c.51-3.331.617-6.765.9-10.167.024-.333.049-.676.086-1.186.01-.081.033-.3.048-.351.12-.774.213-1.793.314-2.82s.207-2.124.314-3.223c.231-2.209.468-4.48.688-6.6C184.942,498.831,185.385,495.225,185.561,494Z"></path></g><g data-name="default" id="default-3" transform="matrix(-1, 0, 0, 1, 380, 0)"><path class="cls-1 color-body" d="M235.5,491.648a63.409,63.409,0,0,0-26.927,5.575A62.2,62.2,0,0,0,187.5,513c4.568,5.6,4.084,11.914,5.006,18.762C189.5,537,186.5,544,187.1,551.2c.9,10.771,7.485,16.831,17.718,17.24,7.847.315,16.58-3.8,21.823-9.859,6.039-6.977,8.861-14.58,9.651-24.01C236.5,520,237.239,507.763,235.5,491.648Z" style="fill:#ffffff;--backup-fill:#ffffff"></path><path class="cls-1 color-body" d="M187.5,513c4.568,5.6,4.084,11.914,5.006,18.762C189.5,537,186.5,544,187.1,551.2c.9,10.771,7.485,16.831,17.718,17.24,7.847.315,16.58-3.8,21.823-9.859,6.039-6.977,8.861-14.58,9.651-24.01.21-14.57.949-26.807-.788-42.922" style="fill:#ffffff;--backup-fill:#ffffff"></path><path d="M235.563,491.641c.678.579,1.691,6.775,2.154,14.017.5,7.239.47,15.461.734,20.014q.15,3.015.305,6.127c.035,1.068.118,2.12.1,3.241l-.087,1.725-.134,1.665a41.554,41.554,0,0,1-3.526,13.37,39.729,39.729,0,0,1-3.538,6.155c-.683.962-1.393,1.9-2.135,2.807-.381.46-.809.926-1.214,1.386l-1.295,1.3a34.11,34.11,0,0,1-12.184,7.348,29.011,29.011,0,0,1-6.067,1.418,27.478,27.478,0,0,1-6.318.023,25.166,25.166,0,0,1-6.22-1.542,19.548,19.548,0,0,1-5.639-3.433,18.689,18.689,0,0,1-4.131-5.074,22.277,22.277,0,0,1-2.245-5.788,29.2,29.2,0,0,1-.534-2.912c-.086-.966-.214-1.9-.216-2.891a27.451,27.451,0,0,1,.475-5.677,36.32,36.32,0,0,1,3.48-9.875c.378-.738.769-1.459,1.176-2.157.2-.353.406-.7.615-1.036l.155-.256.078-.127a.153.153,0,0,0,.021-.022l.11-.127.112-.135.014-.168a3.119,3.119,0,0,0,0-.637l-.076-2.238a57.616,57.616,0,0,0-.5-7.966,17.531,17.531,0,0,0-2.414-6.461,13.516,13.516,0,0,1,5.347,5.691,40.084,40.084,0,0,1,3,8.721q.136.531.273,1.058l.134.517.066.257c.022.089.04.145.077.335q.192.969.382,1.924c.007.08.051.166.027.24l-.1.216-.205.434-.415.873a10.986,10.986,0,0,0-.5,1.174l-.34.885q-.322.87-.626,1.683c-.776,2.161-1.355,3.953-1.838,5.156a22.185,22.185,0,0,0-1.713,7.369,19.536,19.536,0,0,0,1.026,7.289,13.235,13.235,0,0,0,3.947,5.7,15.45,15.45,0,0,0,6.314,3.017,22.489,22.489,0,0,0,13.836-1.435,26.649,26.649,0,0,0,10.651-7.948,35.239,35.239,0,0,0,6.1-11.033,39.61,39.61,0,0,0,1.462-5.834,49.93,49.93,0,0,0,.655-5.757q.012-2.975.025-5.847.047-2.9.093-5.7.15-5.572.289-10.765c.046-3.284.364-7.768.566-11.74S235.508,492.776,235.563,491.641Z"></path></g><path class="cls-2 color-stripe" d="M142.642,522.02a54.334,54.334,0,0,0-6.32,9.5c-2.445,4.392-3.01,9.99-.8,14.507,3.815,7.814,14.166,9.864,22.608,8.131,9.719-2,16.627-7.8,22.451-15.923,4.168-5.818,4.132-12.786,4.459-19.932a33.809,33.809,0,0,1-23.536,9.2A34.53,34.53,0,0,1,142.642,522.02Z" transform="matrix(-1, 0, 0, 1, 380, 0)"></path><path d="M142.675,521.969c.43-.115,1.833.572,3.947,1.383a39.41,39.41,0,0,0,8.071,2.246,34.568,34.568,0,0,0,9.559.225,27.437,27.437,0,0,0,7.5-1.91,35.479,35.479,0,0,0,5.6-3c.845-.521,1.609-1.129,2.447-1.709.837-.676,1.695-1.463,2.586-2.248q1.4-1.317,2.823-2.654l2.85-2.718.1.464.05.238a.914.914,0,0,1,.027.308l-.023,1.632q-.029,1.674-.056,3.359c-.049,2.278-.071,4.586-.194,7.011-.035.607-.056,1.214-.107,1.831l-.137,1.522c-.083.738-.164,1.477-.292,2.228a28.088,28.088,0,0,1-1.1,4.532,24.2,24.2,0,0,1-2.011,4.4c-.435.7-.883,1.394-1.288,1.945q-.613.887-1.276,1.748a49.5,49.5,0,0,1-5.8,6.47,40.411,40.411,0,0,1-4.29,3.435,35.816,35.816,0,0,1-4.808,2.749,33.575,33.575,0,0,1-5.158,1.922c-.872.275-1.761.444-2.64.653-.9.158-1.813.344-2.723.422a29.744,29.744,0,0,1-10.8-.715,24.835,24.835,0,0,1-5.107-1.978,20.307,20.307,0,0,1-4.471-3.3,16.547,16.547,0,0,1-4.673-9.61,18.7,18.7,0,0,1,1.391-9.436,20.323,20.323,0,0,1,.992-2.006c.182-.321.382-.629.571-.939l.545-.811c.722-1.065,1.46-2.1,2.211-3.1a35.991,35.991,0,0,1,4.8-5.307c-.748,2.06-1.474,4.417-2.23,6.92-.377,1.252-.764,2.54-1.155,3.837a17.281,17.281,0,0,0-.3,9.544,18.183,18.183,0,0,0,.731,2.107c.249.592.54,1.081.7,1.535a11.314,11.314,0,0,0,6.068,5.595,19.924,19.924,0,0,0,4.421,1.314,25.766,25.766,0,0,0,4.657.338,27.306,27.306,0,0,0,9.011-1.878,28.778,28.778,0,0,0,7.708-4.534,43.915,43.915,0,0,0,8.516-9.651,18.543,18.543,0,0,0,1.632-3.565,22.692,22.692,0,0,0,.91-3.8c.113-.64.18-1.293.254-1.94l.053-.655.027-.552c.029-.726.035-1.414.029-2.062,0-.316-.006-.631-.009-.943l0-.451c.015-.07-.047.024-.071.038l-.1.094-.19.187a16.334,16.334,0,0,1-2.793,2.208l-.741.421c-.265.151-.53.3-.8.432-.544.266-1.073.558-1.626.788a32.43,32.43,0,0,1-3.307,1.292A33.584,33.584,0,0,1,160,529.5a29.417,29.417,0,0,1-17.321-7.534Z" transform="matrix(-1, 0, 0, 1, 380, 0)"></path><path d="M153.325,537.508c-.469.419-2.148-.829-3.026-.945a22.083,22.083,0,0,1-4.31-1.391,16.094,16.094,0,0,1-3.224-1.63c-.933-.619-1.5-1.182-2.285-1.623a2.766,2.766,0,0,1,1.659-1.9c.749-.319,1.41-.31,1.631-.073a13.151,13.151,0,0,0,4.8,3.487,12.379,12.379,0,0,1,3.868,2.142A4.48,4.48,0,0,1,153.325,537.508Z" transform="matrix(-1, 0, 0, 1, 380, 0)"></path><path d="M155.742,531.884c-.293.572-2.16-.075-3-.017a11.123,11.123,0,0,1-4.366-.8,8.578,8.578,0,0,1-5.086-4.225c1.467-1.043,3.166-1.419,3.435-.944a6.883,6.883,0,0,0,4.039,3.234,17.972,17.972,0,0,1,3.727,1.23A4.757,4.757,0,0,1,155.742,531.884Z" transform="matrix(-1, 0, 0, 1, 380, 0)"></path><path class="cls-2 color-stripe" d="M211.5,537.5a34.508,34.508,0,0,1-19.038-5.594c.015.119.028.237.044.356C189.5,537.5,186.5,544.5,187.1,551.7c.9,10.771,7.485,16.831,17.718,17.24,7.847.315,16.58-3.8,21.823-9.859,6.039-6.977,8.861-14.58,9.651-24.01.04-2.816.1-5.545.159-8.232A33.524,33.524,0,0,1,211.5,537.5Z" transform="matrix(-1, 0, 0, 1, 380, 0)"></path><path d="M211.5,537.439c.51-.557,4.665-.721,9.574-2.387a33.149,33.149,0,0,0,7.434-3.521l.911-.595,1.212-.9.609-.454.6-.544q.607-.549,1.207-1.092c.817-.817,1.653-1.64,2.454-2.484s1.622-1.7,2.325-2.487c.122.051.24.106.356.165a.179.179,0,0,1,.042.025l0,.133,0,.266.008.525c.013.7.025,1.38.037,2.029.038,1.331.073,2.546.1,3.613q.071,2.132.143,4.3a19.84,19.84,0,0,1-.02,2.218c-.014.545-.04,1.078-.079,1.591a45.068,45.068,0,0,1-.845,6.345,38.383,38.383,0,0,1-4.952,12.424,41.449,41.449,0,0,1-4.06,5.5,31.281,31.281,0,0,1-5.244,4.683,33.5,33.5,0,0,1-12.56,5.529,26.718,26.718,0,0,1-4,.526c-.677.05-1.368.026-2.051.035l-2-.129a23.638,23.638,0,0,1-7.94-2.152,18.979,18.979,0,0,1-6.644-5.251,21.1,21.1,0,0,1-3.73-7.227c-.165-.629-.349-1.256-.484-1.881q-.166-.939-.333-1.871a34.166,34.166,0,0,1-.28-3.72,28.384,28.384,0,0,1,.9-7.16,35.778,35.778,0,0,1,2.255-6.318c.224-.491.454-.975.7-1.446l.361-.7.409-.77c.4-.764.838-1.5,1.245-2.228.022-.052.059-.076.07-.15l-.042-.357-.081-.709-.158-1.4-.153-1.383-.074-.684-.081-.951,1.819.976c.928.539.275.026.915.475l2.235,1.52q1.108.765,2.169,1.418c.676.458,1.531.9,1.776,1.056a34.017,34.017,0,0,0,4.679,2.225,39.122,39.122,0,0,0,9.254,2.3,23.113,23.113,0,0,1-10.569,1.425,27.855,27.855,0,0,1-6.117-1.229,1.116,1.116,0,0,0-.677.109.291.291,0,0,0-.123.12,1.412,1.412,0,0,1,.027.325.754.754,0,0,0,.079.329.1.1,0,0,1,.023.047q-.1.243-.19.478-.184.471-.356.913c-.456,1.171-.853,2.154-1.2,2.9a25.164,25.164,0,0,0-2.116,6.418,20.771,20.771,0,0,0-.307,3.246q.03.832.059,1.66c.042.546.121,1.082.179,1.626a15.489,15.489,0,0,0,2.07,5.913,13.023,13.023,0,0,0,4.291,4.258,16.392,16.392,0,0,0,5.765,2.109,20.634,20.634,0,0,0,6.138.183,27.237,27.237,0,0,0,15.578-7.76,33.635,33.635,0,0,0,3.516-4.34,34.946,34.946,0,0,0,4.643-9.573,39.159,39.159,0,0,0,1.192-4.958c.16-.823.263-1.655.38-2.476.092-.8.2-1.71.243-2.366.052-.821.008-1.52.03-2.256q.011-.549.021-1.089l.017-.55a.76.76,0,0,0,0-.127l-.09.092-.18.182a10.809,10.809,0,0,1-2.686,1.966,26.709,26.709,0,0,1-5.226,2.364,29.5,29.5,0,0,1-6.041,1.309A31.346,31.346,0,0,1,211.5,537.439Z" transform="matrix(-1, 0, 0, 1, 380, 0)"></path><path d="M213.167,549.325c-.094-.174-.2-.138-.392-.286-.249-.173-.548-.451-.892-.693a5.384,5.384,0,0,0-2.088-1.021l-2.976-.443c-1.027-.144-2.06-.289-3.039-.36a62.5,62.5,0,0,1-9.248-1.185c.658-1.909,2.809-3.385,3.638-3.1a57.459,57.459,0,0,0,8.2,1.9,22.24,22.24,0,0,1,3.345.79,6.642,6.642,0,0,1,2.686,1.617,3.5,3.5,0,0,1,.843,1.511,4.472,4.472,0,0,1,.154.821C213.411,549.15,213.248,549.333,213.167,549.325Z" transform="matrix(-1, 0, 0, 1, 380, 0)"></path><path d="M214.33,543.093c-.33.061-.725-.325-1.389-.5a5.511,5.511,0,0,0-2.045-.221,32.276,32.276,0,0,1-5.63.006,21.347,21.347,0,0,1-4.559-.677,15.418,15.418,0,0,1-2.006-.68l-.457-.2-.22-.107-.131-.1a.583.583,0,0,0-.514-.169,1.476,1.476,0,0,1,.519-1.4,11.225,11.225,0,0,1,1.1-.808c.695-.419,1.336-.588,1.648-.407,5.019,2.9,9.138,1.455,12.3,2.937a2.7,2.7,0,0,1,1.156,1.161A1.9,1.9,0,0,1,214.33,543.093Z" transform="matrix(-1, 0, 0, 1, 380, 0)"></path><polygon points="164.263 553.236 168.223 535.997 172.183 532.503 168.223 550.208 164.263 553.236" transform="matrix(-1, 0, 0, 1, 380, 0)"></polygon><path d="M164.253,553.224a5.919,5.919,0,0,1,1.2-1.17l1.192-.991,1.284-1.046c.162-.834.326-1.681.475-2.449.153-.8.285-1.527.367-2.07.318-2.093.718-4.313,1.149-6.55.223-1.12.445-2.242.666-3.355.081-.388.052-.284.058-.334l0-.061c0-.033-.009-.05-.017-.053l-.059.076-.027.044,0,.012v0c-.007.006.014-.012-.016.015l-.1.086-1.291,1.151c-.373,1.549-.739,3.072-1.095,4.555-.4,1.578-.793,3.1-1.19,4.557-.792,2.9-1.576,5.513-2.3,7.654a30.587,30.587,0,0,1,.732-8.825q.732-2.259,1.351-4.406.306-1.08.6-2.117l.585-2.2,2.325-1.974,2.684-2.341q-.379,1.715-.743,3.362l-.544,2.568q-.469,2.295-.9,4.411c-.577,2.821-1.119,5.4-1.729,7.755-.068.266-.141.557-.241.954l-.426.3c-.1.067-.2.136-.31.205l-.636.41-1.278.792C165.191,552.685,164.5,553.086,164.253,553.224Z" transform="matrix(-1, 0, 0, 1, 380, 0)"></path><polygon points="172.183 546.946 176.144 529.707 180.104 526.213 176.144 543.918 172.183 546.946" transform="matrix(-1, 0, 0, 1, 380, 0)"></polygon><path d="M172.174,546.934a5.858,5.858,0,0,1,1.2-1.17l1.192-.991,1.284-1.046c.161-.834.326-1.681.475-2.449.153-.805.285-1.527.367-2.07.318-2.093.718-4.313,1.149-6.55.222-1.12.445-2.242.665-3.355.081-.388.052-.284.058-.334l0-.061c0-.033-.008-.05-.016-.053l-.059.076-.027.044-.006.012v0c-.006.006.015-.012-.015.015l-.1.086-1.292,1.151-1.094,4.555c-.4,1.578-.794,3.1-1.19,4.557-.793,2.9-1.576,5.513-2.3,7.654a30.551,30.551,0,0,1,.732-8.825q.73-2.259,1.351-4.406.3-1.08.6-2.117.3-1.124.585-2.2l2.325-1.974,2.684-2.341q-.379,1.715-.743,3.362-.278,1.31-.544,2.568-.471,2.3-.9,4.411c-.577,2.821-1.119,5.4-1.73,7.755l-.24.954-.426.3-.31.2-.637.41-1.277.792C173.111,546.4,172.423,546.795,172.174,546.934Z" transform="matrix(-1, 0, 0, 1, 380, 0)"></path><polygon points="224.743 562.903 223.714 545.245 226.536 540.781 227.696 558.886 224.743 562.903" transform="matrix(-1, 0, 0, 1, 380, 0)"></polygon><path d="M224.731,562.894a5.871,5.871,0,0,1,.82-1.458l.866-1.286.94-1.363c-.079-.847-.158-1.705-.231-2.484-.078-.816-.154-1.546-.227-2.091-.281-2.1-.52-4.34-.732-6.609-.1-1.137-.2-2.277-.3-3.407-.031-.395-.029-.287-.038-.337l-.019-.058c-.012-.03-.022-.045-.031-.046l-.035.09-.014.049v.018c0,.008.011-.015-.011.019l-.068.11-.917,1.467c.077,1.591.152,3.156.226,4.679.063,1.626.108,3.2.135,4.707.053,3.01.032,5.734-.065,7.993a30.6,30.6,0,0,1-1.77-8.677q.069-2.373.063-4.608-.011-1.122-.02-2.2-.029-1.162-.056-2.279l1.679-2.547,1.921-3q.115,1.752.229,3.435.1,1.335.2,2.618l.369,4.487c.237,2.87.439,5.5.513,7.929l.036.983-.324.407-.24.284-.5.571-1,1.119C225.479,562.114,224.931,562.691,224.731,562.894Z" transform="matrix(-1, 0, 0, 1, 380, 0)"></path><polygon points="230.584 554.646 229.555 536.987 232.377 532.523 233.537 550.629 230.584 554.646" transform="matrix(-1, 0, 0, 1, 380, 0)"></polygon><path d="M230.572,554.637a5.816,5.816,0,0,1,.82-1.458l.866-1.286.939-1.364c-.078-.846-.158-1.7-.23-2.484-.078-.816-.154-1.545-.227-2.09-.281-2.1-.52-4.341-.733-6.61-.1-1.137-.2-2.276-.3-3.406-.031-.4-.03-.287-.038-.337l-.019-.058c-.012-.031-.022-.046-.031-.046l-.035.089-.014.05,0,.013v0l-.011.018-.068.11-.917,1.467c.076,1.591.152,3.156.225,4.68.064,1.625.109,3.2.135,4.707.053,3.01.032,5.734-.064,7.992a30.6,30.6,0,0,1-1.77-8.676q.069-2.374.062-4.608-.009-1.124-.019-2.2-.028-1.162-.056-2.279l1.679-2.546,1.92-3q.117,1.753.229,3.436.1,1.335.2,2.617.192,2.335.37,4.488c.237,2.869.439,5.5.513,7.928l.036.984-.325.407-.24.283-.5.572-1,1.118C231.32,553.857,230.772,554.434,230.572,554.637Z" transform="matrix(-1, 0, 0, 1, 380, 0)"></path><path class="cls-3 color-pant" d="M126.53,471.143c6.47,24.024,11.651,33.226,12.13,34.084,5.289,3.443,14.541,6.5,21.594,6.5a33.8,33.8,0,0,0,23.536-9.2c.025-.549,1.715-5.253,1.71-8.035" transform="matrix(-1, 0, 0, 1, 380, 0)"></path><path d="M185.556,494.5c.284.178.485,1.236.346,2.728a23.057,23.057,0,0,1-.37,2.516c-.1.454-.2.928-.3,1.414q-.083.36-.166.729c-.044.329-.226.612-.3.932-.029.308-.273.524-.427.786l-.682.678c-.181.19-.379.364-.573.542-.392.352-.774.722-1.187,1.048-.8.682-1.639,1.31-2.453,1.886-1.625,1.16-3.2,2.048-4.337,2.723a32.352,32.352,0,0,1-14.948,4.279,36.718,36.718,0,0,1-8.148-.688,52.209,52.209,0,0,1-7.58-2.045,39.994,39.994,0,0,1-6.223-2.774l-.38-.211-.619-.384-1.238-.77a9.369,9.369,0,0,1-.779-1.313l-.333-.628-.191-.373c-.49-.987-.948-1.963-1.364-2.935a95.36,95.36,0,0,1-4.041-11.427,104.8,104.8,0,0,1-3.75-19.8,39.281,39.281,0,0,1,6.112,8.039,27.165,27.165,0,0,1,3.424,7.494,82.636,82.636,0,0,0,2.15,9.537q.659,2.267,1.444,4.4c.266.707.539,1.4.827,2.082l.219.5.123.3a1.284,1.284,0,0,0,.135.279l.269.2.276.2.436.273c.3.184.6.377.908.544.612.353,1.237.677,1.867.986a38.655,38.655,0,0,0,3.833,1.6,40.084,40.084,0,0,0,7.675,1.921,32.176,32.176,0,0,0,3.7.32,31.253,31.253,0,0,0,3.564-.166,34.832,34.832,0,0,0,6.643-1.344,41.042,41.042,0,0,0,10.889-5.278l1.048-.736c.38-.247.859-.62,1.061-.718.106-.079.3-.118.321-.261l.185-.325a2.006,2.006,0,0,0,.121-.239l.138-.291.553-1.141c.365-.75.717-1.479,1.017-2.15A18.977,18.977,0,0,0,185.556,494.5Z" transform="matrix(-1, 0, 0, 1, 380, 0)"></path><g id="pants_red" transform="matrix(-1, 0, 0, 1, 380, 0)"><path class="cls-3 color-pant" d="M239.64,463.871s-22.14,22.629-64.388,20c-44.128-2.747-50.162-20-50.162-20,9.04,37.246,43.743,55.977,63.788,54.5,18.519-1.37,41.246-8.937,48.76-28.749C240.313,482.563,240.824,474.164,239.64,463.871Z"></path><path d="M239.67,463.867a44.949,44.949,0,0,1,.952,8.521A45.683,45.683,0,0,1,238.138,490q-.508,1.174-1.024,2.367c-.176.4-.337.8-.527,1.191l-.647,1.138c-.438.757-.855,1.531-1.316,2.278l-1.538,2.141a18.167,18.167,0,0,1-1.66,2.035c-.59.643-1.127,1.334-1.755,1.927a43.392,43.392,0,0,1-3.818,3.374,56.58,56.58,0,0,1-14.758,8.26,80.238,80.238,0,0,1-11.076,3.34,88.678,88.678,0,0,1-11.792,1.73c-8.293.446-16.467-1.915-23.971-5.355a75,75,0,0,1-41.1-50.085l3.815-1.127.146.3a3.329,3.329,0,0,0,.216.4,7.866,7.866,0,0,0,.515.819,16.232,16.232,0,0,0,1.236,1.6c.426.528.957.994,1.426,1.5.5.485,1.054.918,1.575,1.381s1.13.843,1.686,1.272a16.442,16.442,0,0,0,1.762,1.18l1.82,1.1c.624.342,1.272.647,1.905.973a73.639,73.639,0,0,0,16.129,5.516c2.782.551,5.527,1.177,8.313,1.511l4.141.593,4.135.389c1.372.111,2.739.3,4.095.347l4.048.147c2.687.183,5.338.007,7.961-.062l1.961-.062,1.938-.2,3.84-.385c1.277-.1,2.515-.394,3.761-.578,1.24-.223,2.485-.385,3.7-.651l3.6-.848c.595-.144,1.192-.271,1.778-.426l1.734-.525,3.429-1.037,3.3-1.215a81.72,81.72,0,0,0,12.125-5.733,61.162,61.162,0,0,0,9.99-7.049,52.712,52.712,0,0,1-10.669,9.168,78.93,78.93,0,0,1-14.7,7.657l-3.9,1.423c-1.29.462-2.6.781-3.872,1.163a74.421,74.421,0,0,1-7.358,1.727c-.581.114-1.149.243-1.71.335l-1.655.213-3.072.375a39.661,39.661,0,0,1-5.021.315c-1.552.017-3.1.075-4.631.06l-4.581-.235c-3.048-.075-6.014-.511-8.971-.8-1.478-.13-2.942-.365-4.4-.605l-4.345-.687-4.271-.909-2.118-.453-2.082-.578c-1.38-.4-2.774-.719-4.12-1.192l-4.019-1.4-3.885-1.653c-1.266-.6-2.494-1.273-3.731-1.9a39.9,39.9,0,0,1-6.756-4.79,16.415,16.415,0,0,1-1.484-1.43l-.714-.742-.653-.8a14.132,14.132,0,0,1-2.226-3.582l1.624-.48a71.142,71.142,0,0,0,18.858,33.9,73.56,73.56,0,0,0,14.348,11.242,64.4,64.4,0,0,0,15.861,6.914,46.764,46.764,0,0,0,8.153,1.541,36,36,0,0,0,8.052-.169,82.732,82.732,0,0,0,15.4-3.088c9.725-2.981,18.472-7.885,24.347-14.913a38.013,38.013,0,0,0,8.454-19.45A78.208,78.208,0,0,0,239.67,463.867Z"></path></g><path class="cls-3 color-pant" d="M186.092,511.2c2.7,3.563,4.534,6.093,6.007,7.821,5.32,3.513,12.5,3.1,19.636,3.1,10.091,0,17.942-2.36,23.807-8.859.245-11.213.373-11.775-.04-21.107" transform="matrix(-1, 0, 0, 1, 380, 0)"></path><path d="M235.558,492.145c.586.289,1.019,3.25,1.315,6.719s.327,7.427.613,9.605q.185,1.446.33,2.938c.053.354.087,1.376.123,2.173l.026.64a2.839,2.839,0,0,1-.366.476l-.806.948c-.626.745-.913,1.035-1.32,1.476-.379.426-.8.811-1.227,1.2a22.976,22.976,0,0,1-2.737,2.161,31.361,31.361,0,0,1-12.738,4.764,42.221,42.221,0,0,1-5.558.525l-1.368.028-1.274,0-2.559-.014a42.6,42.6,0,0,1-10.431-1.179,20.228,20.228,0,0,1-4.93-2.017c-.377-.237-.759-.44-1.11-.707l-.675-.477c-.244-.208-.561-.3-.7-.6l-.44-.675-.283-.475-.545-.93c-1.429-2.463-2.655-4.783-3.643-6.9a27.137,27.137,0,0,1,7.623,3.9c.551.367,1.275,1.014,1.371.882-.008-.183.666.086,1.087.177.436.143.881.221,1.23.366a4.115,4.115,0,0,1,.946.392,21.575,21.575,0,0,0,7.159,2.212c2.54.393,5.144.562,7.614.7a29.971,29.971,0,0,0,13.219-2.04,21.837,21.837,0,0,0,5.1-3.026,21.1,21.1,0,0,0,2.081-1.879c.148-.152.355-.348.453-.46l.237-.288.228-.277a1.184,1.184,0,0,0,0-.342l-.016-.338-.006-.676v-1.4q.02-1.387.039-2.727.068-2.678.264-5.139A66.813,66.813,0,0,1,235.558,492.145Z" transform="matrix(-1, 0, 0, 1, 380, 0)"></path><path class="cls-2 color-stripe" d="M224.419,475.767l.347,42.537s-4.722,2.838-15.97,1.749l-3.033-37.083S219.537,480.373,224.419,475.767Z" transform="matrix(-1, 0, 0, 1, 380, 0)"></path><path d="M224.44,475.789a5.775,5.775,0,0,1-1.744,1.7,24.76,24.76,0,0,1-4.528,2.478,58.893,58.893,0,0,1-6.074,2.185c-1.059.319-2.12.621-3.155.892l-2.277.585c.17,1.354.321,2.559.439,3.5.787,5.727,1.487,11.884,2.132,18.1.31,3.108.621,6.229.928,9.315q.112,1.158.222,2.309l.11,1.149c.024.269.021.2.026.222l.01.034c-.051.057.193.035.318.042l1.774.048a36.482,36.482,0,0,0,7.343-.594c.587-.114,1.163-.25,1.719-.409.51-.129,1.314-.433,1.072-.342h0l0-1.722c-.011-5.072.024-10.017.1-14.735.161-9.435.5-17.961.991-24.779,1.7,6.09,2.961,17.868,2.7,22.069q-.353,5.774-.552,11.232-.089,2.733-.172,5.385-.032,1.356-.063,2.692c-.008.326,0,.66-.021.97l-.033.464c-.032.141.044.348-.155.387a11.541,11.541,0,0,1-1.73.774,24.757,24.757,0,0,1-5.177,1.094,39.252,39.252,0,0,1-5.038.237c-.827,0-1.644-.043-2.455-.079-.349-.007-.964-.067-1.467-.1l-1.57-.124a15.219,15.219,0,0,1-.166-1.589q-.059-.69-.116-1.376-.1-1.161-.2-2.3c-.535-6.1-1.1-11.829-1.625-17.227q-.381-4.049-.74-7.85-.167-1.9-.328-3.745-.183-2.34-.362-4.605l2.206-.432,1.511-.326,2.626-.611c2.278-.574,5.4-1.336,8.063-2.26a26.888,26.888,0,0,0,3.489-1.464A17.371,17.371,0,0,0,224.44,475.789Z" transform="matrix(-1, 0, 0, 1, 380, 0)"></path></svg>