<svg xmlns="http://www.w3.org/2000/svg" id="outfits_springbreak" viewBox="0 0 380 600"><defs transform="matrix(-1, 0, 0, 1, 380, 0)"><style>.cls-1{fill:#f2ddc8;}.cls-2{fill:#ffffff;}.cls-3{fill:#51e9f4;}.cls-4{fill:#f9a;}.cls-5{fill:#ffd635;}.cls-6{fill:#ff4500;}.cls-7{opacity:0.3;}</style></defs><g id="default" transform="matrix(-1, 0, 0, 1, 380, 0)"><path class="cls-1" d="M189,541.44c-2.89,5.71-5.59,13.22-4.17,20.52,2.14,10.92,8.3,16.55,20,15.77,9-.59,20.43-7,25.79-13.84,2.75-3.5,5.94-8.36,6.78-12.83.48-2.58-.38-5.92-.54-8.55-.38-6.12,1.31-12.57-3.49-17.37-4.15-4.14-10.69-4-16.1-3.42-13.88,1.45-22.83-3.8-28.3,19.72"></path><path d="M189,541.43a24.66,24.66,0,0,1,1-5,35.64,35.64,0,0,1,1.57-4.57c.18-.42.32-.85.53-1.27s.45-.84.68-1.26a11.77,11.77,0,0,1,.74-1.28l.89-1.24a12.58,12.58,0,0,1,4.92-4,18.65,18.65,0,0,1,6-1.43c2-.17,3.83-.21,5.49-.28s3.14-.15,4.37-.28c4.26-.5,9.13-1.34,14.06.15a12.94,12.94,0,0,1,6.45,4.42,14.13,14.13,0,0,1,2.73,7.42c.25,2.56.12,5,.15,7.32a28.36,28.36,0,0,0,.21,3.37c.14,1.13.34,2.32.48,3.56a15.81,15.81,0,0,1,0,4,19.86,19.86,0,0,1-1,3.77,35.12,35.12,0,0,1-3.41,6.5,44.84,44.84,0,0,1-3.75,5,35.87,35.87,0,0,1-4.63,4.28,46.44,46.44,0,0,1-10.58,6.19,32.83,32.83,0,0,1-11.79,2.76,21.44,21.44,0,0,1-11.64-2.54,15.37,15.37,0,0,1-4.5-3.89,20,20,0,0,1-2.79-4.89,28.26,28.26,0,0,1-1.48-5.1,21.73,21.73,0,0,1-.49-5.12,29.62,29.62,0,0,1,1.77-9.31,46.94,46.94,0,0,1,3.55-7.64,74.92,74.92,0,0,0-2.1,8.11,30.41,30.41,0,0,0-.5,9.31,22.87,22.87,0,0,0,.93,4.35,34.57,34.57,0,0,0,1.41,3.84,21,21,0,0,0,3.21,5,13.79,13.79,0,0,0,3.25,2.63,15.73,15.73,0,0,0,4,1.48c.7.19,1.43.25,2.15.38s1.46.13,2.2.14a24.16,24.16,0,0,0,4.35-.26,33.87,33.87,0,0,0,8.33-2.47,43.8,43.8,0,0,0,7.46-4.11,32.53,32.53,0,0,0,6.19-5.4,44.11,44.11,0,0,0,4.63-6.54,20.94,20.94,0,0,0,2.72-7.07c.27-2.39-.35-4.89-.6-7.46s-.07-5.09-.1-7.49a16.79,16.79,0,0,0-1.16-6.66,10.21,10.21,0,0,0-4.18-4.62,14.39,14.39,0,0,0-6-1.71,34.54,34.54,0,0,0-6.27.12c-1,.11-2.12.19-3.18.28s-2.11.1-3.15.14c-4.13.11-8.1-.09-11.47,1a12.84,12.84,0,0,0-4.77,3.09c-.33.42-.67.83-1,1.25a9.27,9.27,0,0,0-.94,1.35l-.87,1.4-.73,1.46c-.23.49-.48,1-.69,1.43l-.56,1.41c-.35.91-.74,1.75-1,2.53C189.6,539.65,189.2,540.84,189,541.43Z"></path></g><path class="cls-1" d="M140.46,524.41c-3.45,5.39-9.9,12.59-9.22,20,1,11.08,6.58,17.3,18.33,17.72,9,.31,21-4.93,27.05-11.16,6.94-7.19,9.19-14,10.1-23.71.25-15-5.15-19.64-19.1-19.6s-18.33-6.1-26.16,16.75" transform="matrix(-1, 0, 0, 1, 380, 0)"></path><path d="M141.43,524.4a26.59,26.59,0,0,1,1.39-4.81c.49-1.3,1-2.82,1.81-4.41a25,25,0,0,1,1.27-2.46,19.48,19.48,0,0,1,1.64-2.46,10.2,10.2,0,0,1,5.14-3.61,18.38,18.38,0,0,1,6.13-.34c1.92.13,3.73.31,5.35.36s3.05,0,4.33,0a36.3,36.3,0,0,1,6.84.41,16.09,16.09,0,0,1,6.87,2.66,13.36,13.36,0,0,1,4.58,6.2,24.9,24.9,0,0,1,1.48,7.33c.13,1.23.12,2.44.15,3.67v.23a2.1,2.1,0,0,1,0,.35l0,.45-.09.9c-.05.6-.13,1.21-.2,1.81a44.71,44.71,0,0,1-1.46,7.19,33.75,33.75,0,0,1-7,12.71,32.1,32.1,0,0,1-4.49,4.38,39,39,0,0,1-5.14,3.44A46.33,46.33,0,0,1,158.72,563a34.28,34.28,0,0,1-5.95,1c-.51,0-1,.08-1.52.1h-1.52c-1-.06-2-.11-3-.25a23.42,23.42,0,0,1-5.8-1.47,16.46,16.46,0,0,1-5.1-3.18,15.83,15.83,0,0,1-3.54-4.66,21.56,21.56,0,0,1-1.84-5.22c-.23-.87-.31-1.75-.46-2.61s-.2-1.68-.21-2.59a14.71,14.71,0,0,1,.78-5.19,31.24,31.24,0,0,1,4.45-8.24c1.7-2.37,3.45-4.49,4.94-6.55-.88,2.14-2.29,4.68-3.69,7.4a32.34,32.34,0,0,0-3.23,8.62,12.89,12.89,0,0,0-.1,4.14c.13.71.24,1.41.37,2.08s.28,1.31.47,1.9a24.72,24.72,0,0,0,2.24,5.49,14.46,14.46,0,0,0,2.6,3.22,14.64,14.64,0,0,0,3.54,2.21,22.76,22.76,0,0,0,8.39,1.7,30.23,30.23,0,0,0,8.46-1.14,43,43,0,0,0,7.88-3,36.48,36.48,0,0,0,6.9-4.32,33.62,33.62,0,0,0,5.43-5.7A31.16,31.16,0,0,0,185.1,533c.23-1.2.4-2.41.54-3.61.08-.59.12-1.2.19-1.79a4.64,4.64,0,0,0,0-.83v-.89a31.26,31.26,0,0,0-.74-6.85,13.4,13.4,0,0,0-2.65-5.76,11,11,0,0,0-5-3.29,22.7,22.7,0,0,0-6-1.11c-1-.09-2-.12-3-.12l-3.11-.07c-2.06-.09-4.09-.29-6-.49a23.1,23.1,0,0,0-5.49-.09,8,8,0,0,0-4.74,2.6,13.73,13.73,0,0,0-1,1.21l-.51.62-.45.69-.89,1.37-.79,1.42C143.34,519.81,142,523.29,141.43,524.4Z" transform="matrix(-1, 0, 0, 1, 380, 0)"></path><g data-name="default" id="default-2" transform="matrix(-1, 0, 0, 1, 380, 0)"><path class="cls-2 color-body" d="M125.09,466c5.8,23.75,18.27,52.94,19.51,54.5-3.34,2.57-6.53,8.2-8.28,11.35-2.45,4.39-3,10-.8,14.51,3.81,7.81,14.16,9.86,22.6,8.13,9.72-2,16.63-7.8,22.45-15.93,4.49-6.26,4.11-13.86,4.55-21.58.41-2.34.38-19.37.38-22.15" style="fill:#ffffff;--backup-fill:#ffffff"></path><path d="M185.56,494.86c.38.46.66,3.33.84,7.41.09,2,.16,4.37.2,6.85,0,1.24,0,2.52,0,3.82s0,2.6-.12,4v.16c-.1,3.19-.06,6.44-.27,9.44a37.58,37.58,0,0,1-1.28,7.85,21.62,21.62,0,0,1-1.39,3.59,19.58,19.58,0,0,1-1,1.73c-.34.56-.67,1-1,1.57a49.52,49.52,0,0,1-4.72,6,35.16,35.16,0,0,1-13.23,9.08,31.61,31.61,0,0,1-16.47,1.87,24,24,0,0,1-8.21-2.87,17.83,17.83,0,0,1-6.44-6.44,17.5,17.5,0,0,1-2.33-8.78,20.81,20.81,0,0,1,1.82-8.54,19.78,19.78,0,0,1,.95-1.9l.89-1.58c.61-1,1.24-2.11,1.92-3.15s1.38-2.08,2.16-3.1c.38-.51.8-1,1.22-1.52l.58-.64h.06v0h0s0,0,0-.08l-.42-1c-.27-.64-.53-1.27-.8-1.9L137,512.93c-1-2.49-1.88-5-2.75-7.39q-2.59-7.32-4.62-14.22a180.79,180.79,0,0,1-5.68-25c2.77,4.39,6.07,10.81,9,16.9s5.55,11.87,6.45,15.08c1,3.43,2,6.78,3.05,10.05q.79,2.44,1.65,4.83c.29.79.58,1.57.86,2.35l.45,1.15.31.76c.12.31.29.62.39.93,0,.85,0,1.77,0,2.34a3.86,3.86,0,0,1-.36,1c-.15.4-.29.8-.43,1.17-.38.36-.8.71-1.14,1.06s-.42.42-.62.65c-.41.45-.81.91-1.19,1.4-.77,1-1.5,2-2.19,3s-1.36,2.1-2,3.18c-.33.56-.61,1-.87,1.54a14.27,14.27,0,0,0-.68,1.55c-1.61,4.23-1.24,9.12,1.38,12.44a12.93,12.93,0,0,0,4.88,3.9,19.86,19.86,0,0,0,6.08,1.72,26.86,26.86,0,0,0,12.19-1.42,30.4,30.4,0,0,0,10-5.92,47.16,47.16,0,0,0,7.38-8.4,20.81,20.81,0,0,0,3.47-9.28c.51-3.33.62-6.76.9-10.16,0-.34,0-.68.09-1.19a2.94,2.94,0,0,1,0-.35c.12-.78.21-1.79.31-2.82s.21-2.13.32-3.22c.23-2.21.46-4.48.68-6.6C184.94,499.69,185.38,496.08,185.56,494.86Z"></path></g><g data-name="default" id="default-3" transform="matrix(-1, 0, 0, 1, 380, 0)"><path class="cls-2 color-body" d="M125.09,464.23c9,37.24,43.74,56,63.79,54.49,18.51-1.37,41.24-8.93,48.76-28.75,2.67-7.05,3.18-15.45,2-25.74" style="fill:#ffffff;--backup-fill:#ffffff"></path><path d="M239.67,464.23a24,24,0,0,1,.81,4.95,59.62,59.62,0,0,1,.11,10.41,38.32,38.32,0,0,1-2.72,11.77L236.75,494l-1.29,2.32c-.21.37-.4.74-.6,1.08l-.67,1L233,500.07a41.66,41.66,0,0,1-10,9.53,58,58,0,0,1-12.84,6.49,77.87,77.87,0,0,1-14,3.62l-3.55.51-3.54.37a38.61,38.61,0,0,1-7.23-.17,52.24,52.24,0,0,1-11.9-2.88,68.4,68.4,0,0,1-10.84-5.08,73.71,73.71,0,0,1-24.22-22.8,74.25,74.25,0,0,1-4.92-8.7,70.31,70.31,0,0,1-5.41-16.6,122.72,122.72,0,0,0,8.07,15.84c1.64,2.69,3.42,5.16,5,7.3.81,1,1.55,2,2.21,2.87s1.25,1.6,1.72,2.22a68.1,68.1,0,0,0,27.68,21.57A48.34,48.34,0,0,0,184.82,518c.65,0,1.3,0,1.94,0s1.28,0,1.92-.06l3.83-.37c1.26-.18,2.51-.33,3.75-.54s2.46-.43,3.66-.7c9.62-2.05,18.28-5.77,24.92-11.1a35.61,35.61,0,0,0,11.06-14.05,30.9,30.9,0,0,0,1.94-5.26,58.35,58.35,0,0,0,1.86-12.47C239.9,469.19,239.7,465.45,239.67,464.23Z"></path></g><g data-name="default" id="default-4" transform="matrix(-1, 0, 0, 1, 380, 0)"><path class="cls-2 color-body" d="M235.5,492.51a63.32,63.32,0,0,0-26.93,5.57,62.24,62.24,0,0,0-21.07,15.78c4.57,5.6,4.08,11.91,5,18.76-3,5.24-6,12.24-5.4,19.44.89,10.77,7.48,16.83,17.71,17.24,7.85.31,16.58-3.8,21.83-9.86,6-7,8.86-14.58,9.65-24C236.5,520.86,237.24,508.62,235.5,492.51Z" style="fill:#ffffff;--backup-fill:#ffffff"></path><path class="cls-2 color-body" d="M187.5,513.86c4.57,5.6,4.08,11.91,5,18.76-3,5.24-6,12.24-5.4,19.44.89,10.77,7.48,16.83,17.71,17.24,7.85.31,16.58-3.8,21.83-9.86,6-7,8.86-14.58,9.65-24,.21-14.57,1-26.81-.79-42.92" style="fill:#ffffff;--backup-fill:#ffffff"></path><path d="M235.56,492.5c.68.58,1.69,6.77,2.15,14s.47,15.46.74,20q.15,3,.3,6.13c0,1.07.12,2.12.11,3.24l-.09,1.72-.13,1.67a41.82,41.82,0,0,1-3.53,13.37,39.08,39.08,0,0,1-3.54,6.15c-.68,1-1.39,1.9-2.13,2.81-.38.46-.81.93-1.22,1.39l-1.29,1.3a34.13,34.13,0,0,1-12.19,7.35,29.22,29.22,0,0,1-6.06,1.42,27.83,27.83,0,0,1-6.32,0,25.51,25.51,0,0,1-6.22-1.54,19.51,19.51,0,0,1-5.64-3.44,18.52,18.52,0,0,1-4.13-5.07,22.18,22.18,0,0,1-2.25-5.79c-.24-1-.39-2-.53-2.91s-.21-1.9-.22-2.89a27.87,27.87,0,0,1,.48-5.68,36.23,36.23,0,0,1,3.48-9.87c.38-.74.77-1.46,1.18-2.16.19-.35.4-.7.61-1l.16-.25.07-.13s0,0,0,0l.11-.13.12-.13v-.17a2.82,2.82,0,0,0,0-.64l-.08-2.23a57.21,57.21,0,0,0-.5-8,17.66,17.66,0,0,0-2.41-6.46,13.54,13.54,0,0,1,5.34,5.69,39.67,39.67,0,0,1,3,8.72l.28,1.06.13.51.07.26c0,.09,0,.15.07.34l.39,1.92c0,.08,0,.17,0,.24l-.1.22-.2.43-.42.87a10.5,10.5,0,0,0-.5,1.18c-.12.3-.23.59-.34.88-.22.58-.43,1.14-.63,1.69-.78,2.16-1.36,3.95-1.84,5.15a22.18,22.18,0,0,0-1.71,7.37,19.62,19.62,0,0,0,1,7.29,13.26,13.26,0,0,0,4,5.7,15.39,15.39,0,0,0,6.32,3,22.48,22.48,0,0,0,13.83-1.44A26.61,26.61,0,0,0,226,557.74a35.37,35.37,0,0,0,6.11-11,39.46,39.46,0,0,0,1.46-5.83,49.8,49.8,0,0,0,.65-5.76q0-3,0-5.85c0-1.93.06-3.83.09-5.69.1-3.72.2-7.3.29-10.77,0-3.28.36-7.77.57-11.74S235.51,493.63,235.56,492.5Z"></path></g><path class="cls-3" d="M127.18,465.59c4.83,19.74,6.22,26.93,6.77,34.58.12,1.84,3.47,6.82,5.29,8.46,10.94,7.36,37.44,7.62,46.71-.85.34-3.39.79-13.41.73-17.27" transform="matrix(-1, 0, 0, 1, 380, 0)"></path><path d="M186.73,490.51c.5.45.68,4.78.61,9.77,0,1.25-.05,2.54-.07,3.82,0,.65-.05,1.29-.07,1.92,0,.37,0,.73,0,1.09s-.05.85-.09,1.27l-.94.82c-.31.29-.63.53-.85.7a17.45,17.45,0,0,1-1.44,1c-.94.6-1.82,1.08-2.55,1.47-5.24,2.72-11.46,3.9-17.67,4.21a56.57,56.57,0,0,1-18.48-2.09,31.09,31.09,0,0,1-4.58-1.73,23.84,23.84,0,0,1-2.22-1.19l-.59-.37a3.75,3.75,0,0,1-.83-.68c-.36-.35-.65-.67-.93-1a29.54,29.54,0,0,1-2.84-3.93c-.41-.69-.81-1.37-1.18-2.15a8.89,8.89,0,0,1-1-3.08c-.19-3.37-.53-6.5-1-9.66s-.93-6.18-1.4-9.11c-.94-5.86-1.76-11.22-2.29-15.82,3.82,5.09,8.13,15.76,8.47,19.9.46,4.92.83,9.78.87,14.3a4.74,4.74,0,0,0,.49,1.66,21.58,21.58,0,0,0,1,2,23.71,23.71,0,0,0,2.5,3.58,3.85,3.85,0,0,0,.3.33c.06.09.15.12.3.23s.57.4.89.57a18.61,18.61,0,0,0,1.87,1,30.61,30.61,0,0,0,3.95,1.52,51.17,51.17,0,0,0,15.86,2,51.87,51.87,0,0,0,14-2.17,26.25,26.25,0,0,0,5.74-2.49,14.26,14.26,0,0,0,1.22-.79l.32-.23c.07-.09.24-.13.24-.25l.05-.36.07-.58c.06-.51.11-1,.16-1.52C185.08,499.92,186.51,492.08,186.73,490.51Z" transform="matrix(-1, 0, 0, 1, 380, 0)"></path><path d="M162.83,510.27c-.12.3-1.61.6-3.34.51-.87,0-1.78-.15-2.62-.25s-1.58-.25-2.13-.31a34.05,34.05,0,0,1-11.58-4,32.27,32.27,0,0,1-8.08-6.14,21.68,21.68,0,0,1-4.55-7,21,21,0,0,1,3.88,1.77c.3.18.58.35.84.53s.53.33.76.49a4,4,0,0,1,1,.93,24,24,0,0,0,5.18,5.47,29.75,29.75,0,0,0,5.76,3.42A58.57,58.57,0,0,0,158.29,509c.36.07.78.22,1.23.36s.9.27,1.35.42C161.75,510,162.55,510.18,162.83,510.27Z" transform="matrix(-1, 0, 0, 1, 380, 0)"></path><path class="cls-3" d="M239.64,464.73s-22.14,22.63-64.39,20c-44.13-2.75-50.16-20-50.16-20,9,37.24,43.74,56,63.79,54.49,18.51-1.37,41.24-8.93,48.76-28.75C240.31,483.42,240.82,475,239.64,464.73Z" transform="matrix(-1, 0, 0, 1, 380, 0)"></path><path d="M239.67,464.73a52.7,52.7,0,0,1-1.53,26.13c-.34.78-.69,1.57-1,2.36-.17.4-.34.8-.53,1.2l-.64,1.13c-.44.76-.86,1.53-1.32,2.28L233.08,500a16.25,16.25,0,0,1-1.66,2c-.59.64-1.12,1.33-1.75,1.92a42.8,42.8,0,0,1-3.82,3.38,56.57,56.57,0,0,1-14.76,8.26A81.13,81.13,0,0,1,200,518.91a88.7,88.7,0,0,1-11.8,1.73c-8.29.44-16.46-1.92-24-5.36a76.1,76.1,0,0,1-34.86-33.46,77,77,0,0,1-6.24-16.62l3.82-1.13.14.3a3.24,3.24,0,0,0,.22.4,7.93,7.93,0,0,0,.51.82,16.75,16.75,0,0,0,1.24,1.6c.43.53,1,1,1.43,1.49s1.05.92,1.57,1.39,1.13.84,1.69,1.27a16.36,16.36,0,0,0,1.76,1.18l1.82,1.1c.62.34,1.27.65,1.9,1a73.21,73.21,0,0,0,16.13,5.52c2.79.55,5.53,1.18,8.32,1.51l4.14.6,4.13.38c1.37.11,2.74.31,4.1.35l4.05.15c2.68.18,5.33,0,8-.06l2-.07,1.94-.19,3.84-.39c1.27-.1,2.51-.39,3.76-.58s2.48-.38,3.69-.65l3.6-.85c.6-.14,1.19-.27,1.78-.42l1.73-.53,3.43-1,3.3-1.22a81.78,81.78,0,0,0,12.13-5.73,60.93,60.93,0,0,0,10-7.05,52.26,52.26,0,0,1-10.67,9.17,79.55,79.55,0,0,1-14.7,7.66l-3.9,1.42c-1.29.46-2.6.78-3.87,1.16-2.54.8-5,1.24-7.36,1.73-.58.11-1.15.24-1.71.33l-1.66.22-3.07.37a40.87,40.87,0,0,1-5,.32c-1.55,0-3.09.07-4.63.06l-4.58-.24c-3.05-.07-6-.51-9-.8-1.48-.13-2.94-.37-4.4-.61l-4.34-.68-4.27-.91-2.12-.46-2.08-.57c-1.38-.41-2.78-.72-4.12-1.2l-4-1.39-3.89-1.65c-1.26-.61-2.49-1.28-3.73-1.91a39.88,39.88,0,0,1-6.76-4.79,15.36,15.36,0,0,1-1.48-1.43l-.71-.74-.66-.8a14.25,14.25,0,0,1-2.22-3.58l1.62-.48a71.17,71.17,0,0,0,18.86,33.9,72.86,72.86,0,0,0,14.35,11.24A64.4,64.4,0,0,0,175,516.59a46.76,46.76,0,0,0,8.15,1.54,36.1,36.1,0,0,0,8.05-.17,83,83,0,0,0,15.41-3.09c9.72-3,18.47-7.88,24.34-14.91a38.09,38.09,0,0,0,8.46-19.45A78.32,78.32,0,0,0,239.67,464.73Z" transform="matrix(-1, 0, 0, 1, 380, 0)"></path><g data-name="default" id="default-5" transform="matrix(-1, 0, 0, 1, 380, 0)"><ellipse class="cls-2 color-body" cx="182.66" cy="463.86" rx="57.58" ry="25.42" style="fill:#ffffff;--backup-fill:#ffffff"></ellipse><path d="M240.21,463.86c-.12-.27-.15-1.13-.47-2.38a15,15,0,0,0-2.18-4.6c-2.34-3.46-6.91-6.86-12.28-9.43A76,76,0,0,0,208,441.83a102.12,102.12,0,0,0-14.75-2,136.85,136.85,0,0,0-20.59.34,110.27,110.27,0,0,0-20.92,3.91,69,69,0,0,0-10,3.74,40.63,40.63,0,0,0-8.83,5.47,16.69,16.69,0,0,0-5.58,7.73,10.28,10.28,0,0,0,1.42,8.56,22.36,22.36,0,0,0,5.87,5.89,45.58,45.58,0,0,0,7.54,4.25A80.74,80.74,0,0,0,158.86,485a127.51,127.51,0,0,0,33.62,2.16c10.79-.73,21-2.72,29.86-6.26a41.8,41.8,0,0,0,11.68-6.8,18.83,18.83,0,0,0,4-4.72,12,12,0,0,0,1.67-5.5,11.45,11.45,0,0,1-.85,5.66,19.07,19.07,0,0,1-3.8,5.7,40.87,40.87,0,0,1-12.39,8.47,77.26,77.26,0,0,1-23.56,6.51,133.4,133.4,0,0,1-14.73.63,135.17,135.17,0,0,1-14.22-.89,101.7,101.7,0,0,1-26.4-6.39,49.47,49.47,0,0,1-11.39-6.34,26,26,0,0,1-4.64-4.49,15.8,15.8,0,0,1-3-5.73,12,12,0,0,1,0-6.39,15.73,15.73,0,0,1,2.87-5.54,31.34,31.34,0,0,1,9.22-7.53,62.38,62.38,0,0,1,10.45-4.65A90.12,90.12,0,0,1,158,439.94a118.77,118.77,0,0,1,20.79-2.5,124,124,0,0,1,19.54.83,95.25,95.25,0,0,1,17.88,3.85c5.32,1.68,12.5,4.81,17.61,9.32A27.33,27.33,0,0,1,237.1,455a18.57,18.57,0,0,1,2.13,3.63A12.75,12.75,0,0,1,240.21,463.86Z"></path></g><path class="cls-3" d="M193.08,513.72c-1.65,4.5-3.21,4.72-2.49,7.63,17.47,7.64,43.86,2,50.95-10.55-1.27-6.73-2.36-9.83-3.79-21.46" transform="matrix(-1, 0, 0, 1, 380, 0)"></path><path d="M237.79,489.34c.52.28,1.13,3.53,1.9,7.26a100.74,100.74,0,0,0,2.57,10.21c.16.52.33,1,.5,1.56l.24.79.31,1.21.16.65c0,.05.05.11,0,.16l-.07.14-.16.29-.65,1.17-.17.29-.12.2-.25.39c-.17.26-.34.53-.52.79a24.44,24.44,0,0,1-5.33,5.27,41.33,41.33,0,0,1-13.14,6.17,48.78,48.78,0,0,1-23.29.85,37.92,37.92,0,0,1-5.18-1.49c-.82-.3-1.61-.61-2.38-1l-.75-.32a9.37,9.37,0,0,1-.83-.46l-1.54-.91c-.34-.07-.24-.49-.32-.75s-.07-.59-.11-.88a5.69,5.69,0,0,1,.11-1.7,7.6,7.6,0,0,1,1.34-2.63,29,29,0,0,0,2.15-3.21,11.79,11.79,0,0,1-.17,4.34,2.41,2.41,0,0,0,0,1.64,1.37,1.37,0,0,0,.33.44.44.44,0,0,0,.45.14,2.72,2.72,0,0,0,.44-.08.85.85,0,0,1,.17-.06c.07,0,.33,0,.48.06l2,.33a17.88,17.88,0,0,1,2.92.67A39,39,0,0,0,215.63,523a39.59,39.59,0,0,0,14.51-4,28.67,28.67,0,0,0,5.62-3.71,22.14,22.14,0,0,0,2.24-2.19c.31-.4.65-.77.93-1.18a8.85,8.85,0,0,0,.7-1l.19-.33a1,1,0,0,0-.06-.37l-.27-1.23c-.22-1-.43-2-.64-2.94-.42-1.94-.77-3.85-1-5.7A54.94,54.94,0,0,1,237.79,489.34Z" transform="matrix(-1, 0, 0, 1, 380, 0)"></path><path d="M240.71,505a3.41,3.41,0,0,1-.58,1.54c-.23.38-.52.82-.84,1.29s-.74.93-1.14,1.44a34.39,34.39,0,0,1-5.35,4.68,29.94,29.94,0,0,1-8.06,4.21,51.7,51.7,0,0,1-8.93,2.25,63.51,63.51,0,0,1-26.8-1.45c3.15-1.25,8.79-2,10.76-1.68A49.38,49.38,0,0,0,221,516.6a41.93,41.93,0,0,0,8.14-3.07,40.86,40.86,0,0,0,6.3-4c.86-.68,2.07-1.6,3.09-2.5S240.41,505.23,240.71,505Z" transform="matrix(-1, 0, 0, 1, 380, 0)"></path><path class="cls-4" d="M240.62,464c-2.34,6.56-30.21,21.51-62.84,22.4-19.13.52-37.27-3.83-50.59-16.32.48,8.15,5.46,15.77,18.78,22.6,13.66,7,28.41,7.75,43.48,6.68a147.89,147.89,0,0,0,21.22-3.1c16.38-3.59,31-23.22,30-32.26" transform="matrix(-1, 0, 0, 1, 380, 0)"></path><path d="M240.66,464a6.38,6.38,0,0,1,.15,2.45,17.9,17.9,0,0,1-1.3,5.06,43.88,43.88,0,0,1-8.7,13.14,45.29,45.29,0,0,1-14.76,10.74,38.78,38.78,0,0,1-8,2.36c-2.46.53-4.68,1-6.54,1.29A139.69,139.69,0,0,1,181,501.16a85.77,85.77,0,0,1-21.55-1.8,62.4,62.4,0,0,1-20.29-8.48,37.13,37.13,0,0,1-8.46-7.24,23.83,23.83,0,0,1-3.15-4.7,12.64,12.64,0,0,1-.61-1.29l-.3-.71a10.3,10.3,0,0,1-.37-1.15c-.22-.78-.5-1.59-.65-2.33l-.34-2.17-.37-3.68-.1-1,0-.49V466l.08.05.18.12,1.37.92c.93.65,1.8,1.19,2.78,1.91l3.12,2.56.78.64c.24.19.59.49.68.54l.9.6c.59.4,1.18.81,1.78,1.2,1.25.71,2.44,1.5,3.73,2.12a58,58,0,0,0,7.84,3.43c1.36.43,2.68.94,4.06,1.28l2.05.57,2.07.47a86,86,0,0,0,16.67,1.94,115.09,115.09,0,0,0,16.28-.74,129.5,129.5,0,0,0,29.38-7,93.53,93.53,0,0,0,12.36-5.52,48.68,48.68,0,0,0,5.3-3.33,20.08,20.08,0,0,0,2.26-1.9,7.16,7.16,0,0,0,1.63-2.15,6.51,6.51,0,0,1-1.18,2.29,18.07,18.07,0,0,1-2,2.27,42.09,42.09,0,0,1-5.24,4.21,79.73,79.73,0,0,1-12.87,7.07,94.71,94.71,0,0,1-23,6.95,121.18,121.18,0,0,1-28.55.9,76.38,76.38,0,0,1-25.91-6.79,58.6,58.6,0,0,1-5.68-3.11c-.93-.53-1.79-1.16-2.67-1.76l-.66-.45c-.21-.15-.46-.32-.57-.42l-.86-.67-.86-.68-.7-.62-.71-.63-.09-.08,0,0s0,0,0,0l0,.23,0,.46a12.67,12.67,0,0,0,.34,1.82c.07.3.18.59.27.89a3.08,3.08,0,0,0,.19.47l.28.67a25,25,0,0,0,7.08,8.93,51.47,51.47,0,0,0,9.5,6.1A62,62,0,0,0,166.79,498a108.33,108.33,0,0,0,20.23.4A150,150,0,0,0,205.84,496c1.5-.28,3-.58,4.45-.9a29,29,0,0,0,4.14-1.23A37.31,37.31,0,0,0,222,490a54.36,54.36,0,0,0,7.09-5.73,53.49,53.49,0,0,0,6.54-7.54,33.36,33.36,0,0,0,4.15-7.61A13.13,13.13,0,0,0,240.66,464Z" transform="matrix(-1, 0, 0, 1, 380, 0)"></path><path class="cls-4" d="M177.84,510.15c-1.07-2.44-1.46-5.61-2.29-9-1.45-6-1.64-15.16,6.61-16.5l23.15-3.75c3.8-.61,7.76-1.22,11.42-.13,11.39,3.38,13.32,27.93,2.47,32.32-3.29,1.33-7,1.43-10.53,1.51l-21.43.46C181.59,515.15,179.18,513.22,177.84,510.15Z" transform="matrix(-1, 0, 0, 1, 380, 0)"></path><path d="M177.87,510.14a12.49,12.49,0,0,0,2.71,3,8.52,8.52,0,0,0,3.51,1.22,23.6,23.6,0,0,0,4.56.07c6.54-.26,14-.51,18.08-.78,3.65-.26,7.43-.3,10.8-1.44a11.72,11.72,0,0,0,1.21-.48,7.72,7.72,0,0,0,1-.6,8.13,8.13,0,0,0,1.81-1.66,12.94,12.94,0,0,0,2.28-4.68,23.93,23.93,0,0,0,.22-10.88c-.73-3.55-2.22-7-4.55-9.19a8.38,8.38,0,0,0-3.39-2,14.58,14.58,0,0,0-4.27-.49,77.77,77.77,0,0,0-9.34,1.19c-6.33,1-12.5,1.92-18.4,2.76l-1.11.15-.55.08-.45.09c-.3.07-.61.11-.9.2l-.82.3a6,6,0,0,0-2.55,2.14c-1.32,1.89-1.67,4.53-1.67,7a29.61,29.61,0,0,0,.31,3.67c.19,1.16.45,2.45.63,3.63a39.08,39.08,0,0,0,1.33,6.57,25.1,25.1,0,0,1-2.84-6.28c-.42-1.22-.9-2.42-1.31-3.78a23.09,23.09,0,0,1-.86-4.16,16.57,16.57,0,0,1,0-4.28,14.66,14.66,0,0,1,.45-2.09,10.86,10.86,0,0,1,.85-1.94,9.07,9.07,0,0,1,2.55-2.93,15.57,15.57,0,0,1,1.41-.83c.46-.19.89-.35,1.28-.48a10,10,0,0,1,1.16-.25c.39-.07.8-.16,1.11-.18l2-.21,3.89-.45,7.6-.92,7.36-1c2.4-.31,4.79-.71,7.22-.86a18.07,18.07,0,0,1,7.22.82,10.28,10.28,0,0,1,3.17,1.82,12.84,12.84,0,0,1,2.41,2.59,20.51,20.51,0,0,1,3,6.08,27.56,27.56,0,0,1,1.16,6.4,22.26,22.26,0,0,1-2.35,12.18,11.31,11.31,0,0,1-4.37,4.39,17.62,17.62,0,0,1-5.63,1.68,49.45,49.45,0,0,1-5.46.4l-5.17.12c-3.39.07-6.67.12-9.83.12-1.5,0-3.28,0-5.13-.06a24.47,24.47,0,0,1-5.69-.56,8,8,0,0,1-4.27-2.57A8.52,8.52,0,0,1,177.87,510.14Z" transform="matrix(-1, 0, 0, 1, 380, 0)"></path><path d="M224.76,490.57a4.4,4.4,0,0,1-1.11.87l-1.16.65c-.44.22-.93.44-1.43.67a43.62,43.62,0,0,1-5.81,1.86c-4.79,1.31-10.4,1.66-15.43,2.09a196.07,196.07,0,0,1-23.2.25,31.79,31.79,0,0,1,9.25-1.68,130.64,130.64,0,0,0,18.9-.34A74.28,74.28,0,0,0,219,492.58c.95-.27,2.24-.65,3.37-1.05S224.44,490.7,224.76,490.57Z" transform="matrix(-1, 0, 0, 1, 380, 0)"></path><path class="cls-5" d="M181.65,496.84l3.14,4.61a1.84,1.84,0,0,1,.46,1.33c-.14.68-1,1-1.67,1.14a16.44,16.44,0,0,1-2.22.29c-.63,0-1.4,0-1.7-.56a1.58,1.58,0,0,1-.12-.94,47.53,47.53,0,0,1,1.16-7.39" transform="matrix(-1, 0, 0, 1, 380, 0)"></path><path d="M180.72,495.33c.25.24-.41,3.32-.35,4.55v2.52a5.18,5.18,0,0,0,0,.72.16.16,0,0,0,.11.09,1.89,1.89,0,0,0,.36.05,8,8,0,0,0,1.48-.2c.43-.09.95-.12,1.29-.23a1.66,1.66,0,0,0,.6-.27s.09.09-.07-.27-.45-.74-.65-1.1a32.61,32.61,0,0,1-2.1-4.18,7.43,7.43,0,0,1,3.42,2.67c.17.38.33.74.49,1.08a6.9,6.9,0,0,1,.51,1.22,1.65,1.65,0,0,1-.37,1.59,2.57,2.57,0,0,1-1.18.64,4.87,4.87,0,0,1-1.08.18l-1,.11a4.52,4.52,0,0,1-2.07,0,1.43,1.43,0,0,1-.92-.81,2.42,2.42,0,0,1-.12-1.08c0-.58.05-1.15.1-1.69a17,17,0,0,1,.46-3A11.31,11.31,0,0,1,180.72,495.33Z" transform="matrix(-1, 0, 0, 1, 380, 0)"></path><path class="cls-6 color-shoes" d="M219.43,552.67c5.09-4.94,13.56-14.45,16.86-22.24,1.06-2.51,2.66,5,2.36,8.92a46.74,46.74,0,0,1-1,7.15c-5.91,17.18-26.41,31.64-44.58,23.85-9.23-5.66,5.18-8.38,9.41-10,7.56-3.94,6.72-2.59,14.17-6.72" transform="matrix(-1, 0, 0, 1, 380, 0)" style=""></path><path d="M216.68,553.64a16.38,16.38,0,0,1-3.28,2.15c-1,.52-2.09,1.09-3.36,1.63s-2.59,1.12-3.95,1.8l-2.05,1-1,.55a8.37,8.37,0,0,1-1.19.49l-4.39,1.46a29.5,29.5,0,0,0-3.78,1.58,6.37,6.37,0,0,0-2.33,1.78,1,1,0,0,0,0,1.26,5.89,5.89,0,0,0,1.59,1.41l.51.31a1.21,1.21,0,0,0,.4.19l1.2.42c.82.23,1.63.5,2.47.65a24.18,24.18,0,0,0,5.11.58,25.75,25.75,0,0,0,5.18-.42,35.49,35.49,0,0,0,18.11-9.62,42.33,42.33,0,0,0,6.13-7.46,38.37,38.37,0,0,0,2.31-4.15,21.61,21.61,0,0,0,1.6-4.16c.3-1.47.5-3,.66-4.6l.12-1.17c0-.38.05-.68.06-1,0-.71,0-1.44-.09-2.17-.23-2-.14-1.41-.18-1.78a1,1,0,0,0,0-.17c0-.06-.07-.11-.1-.07l-.15.2-.08.11-.05.06,0,0a1.25,1.25,0,0,0-.09.16c-.34.54-.66,1.09-1,1.6-.68,1.05-1.39,2-2.11,3-1.43,1.91-2.91,3.68-4.38,5.33a93.11,93.11,0,0,1-8.66,8.47c2-3.11,5.08-7.42,7.77-11.57,1.34-2.07,2.6-4.09,3.64-5.86.51-.88,1-1.69,1.39-2.42.11-.2.22-.4.33-.58.22-.38.38-.72.56-1.08l.95-1.87,0-.07.23-.39s.08-.15.11-.17l.1-.06.41-.26.8-.52c.14-.1.2-.06.34-.1a2.11,2.11,0,0,1,.54,0,2,2,0,0,1,.89.45,4.53,4.53,0,0,1,1.24,2.08,20.41,20.41,0,0,1,.68,3.13l.07.62.05.47.07,1c0,.63.05,1.26,0,1.9a15.23,15.23,0,0,1-.12,1.92c-.07.6-.15,1.19-.22,1.79-.17,1.18-.35,2.35-.59,3.53-.13.6-.24,1.14-.44,1.81l-.68,1.68a40,40,0,0,1-3.27,6.06,43.66,43.66,0,0,1-19,16.24,32.25,32.25,0,0,1-11.22,2.63,26.67,26.67,0,0,1-5.53-.3,26.39,26.39,0,0,1-5.21-1.35l-.61-.24a4.31,4.31,0,0,1-.72-.3c-.44-.29-.78-.48-1.16-.78a6.44,6.44,0,0,1-2-2.18,3.2,3.2,0,0,1-.34-1.8,3.53,3.53,0,0,1,.7-1.65,7.36,7.36,0,0,1,2.19-1.77,25.57,25.57,0,0,1,4.5-1.89c1.48-.49,2.95-.89,4.35-1.3l1-.31c.16-.06.37-.12.42-.15l.54-.25c.74-.35,1.52-.7,2.33-1,1.61-.69,3.36-1.28,5-1.8C213.15,555.27,215.79,554,216.68,553.64Z" transform="matrix(-1, 0, 0, 1, 380, 0)"></path><path class="cls-6 color-shoes" d="M193.38,530c-4.19,9.8-10.78,16.88-1.15,13.85,2.55-.81.17-6.82-.59-9.66" transform="matrix(-1, 0, 0, 1, 380, 0)" style=""></path><path d="M191.67,534.19c.76,0,2.16,4.25,2.81,6.11a7.14,7.14,0,0,1,.32,1.13,4.63,4.63,0,0,1,0,1.56,3.61,3.61,0,0,1-.64,1.62,2.26,2.26,0,0,1-.66.61,2.33,2.33,0,0,0-.37.27l-.42.21-.95.36-.83.27-1.29.29a10.79,10.79,0,0,1-1.26.08,3.81,3.81,0,0,1-2.16-.66,3.12,3.12,0,0,1-1.22-1.82,5.82,5.82,0,0,1,.46-3.66l.31-.75c.1-.24.17-.36.25-.54.16-.34.32-.65.49-1a39.27,39.27,0,0,1,2.07-3.38,44,44,0,0,1,4.13-5.19c1.23,2.26,1,5.82.19,6.65a31.42,31.42,0,0,0-2.74,3.1c-.38.51-.74,1-1,1.53a9.25,9.25,0,0,0-.6,1.09,1.48,1.48,0,0,0-.1,1.07.9.9,0,0,0,.92.35,4.17,4.17,0,0,0,1-.21l.61-.2.34-.12.21-.09a.86.86,0,0,0,.56-.69,2,2,0,0,0,0-.42c0-.15,0-.42-.06-.64-.12-1-.34-1.95-.48-2.92A14.5,14.5,0,0,1,191.67,534.19Z" transform="matrix(-1, 0, 0, 1, 380, 0)"></path><path class="cls-6 color-shoes" d="M228.88,557.07c-8.78-13.76-32.58-14.87-42.38-11.68C176.76,573.45,206.3,580,223,565.16,230.27,558.7,228.88,557.07,228.88,557.07Z" transform="matrix(-1, 0, 0, 1, 380, 0)" style=""></path><path d="M228.91,557c.18.05.38.52.25,1.14a6.27,6.27,0,0,1-.95,2.2,29.52,29.52,0,0,1-4.65,5.28,31.87,31.87,0,0,1-6.64,4.78,38.86,38.86,0,0,1-6.21,2.64,27.94,27.94,0,0,1-9.38,1.42A22,22,0,0,1,191.5,572a21.19,21.19,0,0,1-2.24-1.43,19,19,0,0,1-2-1.8,18,18,0,0,1-1.73-2.08,17.63,17.63,0,0,1-1.34-2.34,19.73,19.73,0,0,1-1.61-5c-.09-.85-.25-1.71-.28-2.55s-.09-1.69,0-2.51.06-1.45.17-2.15l.32-2.12.47-2.06c.14-.71.36-1.29.59-2.06l.59-1.87.15-.46c.1-.1.29-.11.44-.17L186,543a25,25,0,0,1,2.63-.67,37,37,0,0,1,4.09-.6,51.76,51.76,0,0,1,15.49,1A39.37,39.37,0,0,1,221.25,548a23.62,23.62,0,0,1,8.21,8.74,37,37,0,0,0-4.58-3.33,34.58,34.58,0,0,0-5.56-2.74c-3.8-1.51-7.54-2.29-9.46-2.94a45.15,45.15,0,0,0-11.78-2.25,42.8,42.8,0,0,0-5.78,0c-1,.08-1.88.19-2.79.34-.46.08-.91.16-1.35.27s-.53.12-.8.18c-.1.25-.16.45-.28.77s-.3.87-.42,1.3c-.22.88-.48,1.74-.64,2.62a25.9,25.9,0,0,0-.39,2.6c0,.44-.07.87-.1,1.3s0,.85,0,1.28a20.88,20.88,0,0,0,.19,2.51c.06.41.17.81.25,1.22l.13.6.19.58a13.45,13.45,0,0,0,2.12,4.23,15,15,0,0,0,7.24,5.19,21.82,21.82,0,0,0,8.44,1.11,31.61,31.61,0,0,0,14.7-4.74c1-.62,2.12-1.38,3.28-2.24s2.37-1.81,3.44-2.75a19.55,19.55,0,0,0,2.65-2.72C228.79,558.29,229.12,557.48,228.91,557Z" transform="matrix(-1, 0, 0, 1, 380, 0)"></path><path d="M206.58,574.39c-.33.05-.64-1-.89-1.42a5.17,5.17,0,0,1-.74-2.45,4,4,0,0,1,.36-2.16,2.76,2.76,0,0,1,1.31-1.36c.39.87.71,1.58.52,1.74a2.59,2.59,0,0,0-.79,2.52c.13.81.44,1.47.46,2.09A3.14,3.14,0,0,1,206.58,574.39Z" transform="matrix(-1, 0, 0, 1, 380, 0)"></path><path d="M194.59,566.47c0,.18-.23.25-.39.44a1.16,1.16,0,0,0-.35.62c-.07.63-.2,1.27-.23,1.88s-.08,1-.12,1.43a2.37,2.37,0,0,0,0,1.06.88.88,0,0,1-.56.32,1.3,1.3,0,0,1-.66-.13,1.6,1.6,0,0,1-.44-.36.52.52,0,0,1-.12-.34c.14-.71.31-1.2.43-1.67s.21-.88.3-1.29a2.92,2.92,0,0,1,1.05-2,1,1,0,0,1,.64-.14A1.12,1.12,0,0,1,194.59,566.47Z" transform="matrix(-1, 0, 0, 1, 380, 0)"></path><g class="cls-7" transform="matrix(-1, 0, 0, 1, 380, 0)"><path d="M212.91,546.72c.1.3-.5.92-1.28,1.53s-1.72,1.22-2.2,1.66a15.13,15.13,0,0,1-2.85,2.08c-.51.31-1,.59-1.57.86l-.8.4-.23.11-.38.16-.77.32c-.89.38-1.79.7-2.68,1l-.17.06s-.07,0-.08,0l0-.08-.1-.34-.19-.67c-.13-.45-.26-.89-.36-1.36-.22-.89-.48-2-.51-2.25-.08-.46-.14-.91-.2-1.35a18.1,18.1,0,0,1,0-4.77c1.89.7,3.57,2.52,3.48,3.35a19.61,19.61,0,0,0-.09,2.39,3.67,3.67,0,0,0-.05,1.26c0,.09,0,.08.08.07l.12,0,.27-.06.56-.18.77-.31.84-.39c2.18-1.06,3.89-2.29,5.59-3A11.62,11.62,0,0,1,212.91,546.72Z"></path></g><path class="cls-6 color-shoes" d="M167.07,538.31c5.09-4.94,9.85-6.35,13.15-14.14,1.06-2.5,5.28-3.38,5.07,2.81a24.3,24.3,0,0,1-1,5.15c-5.91,17.19-25.41,31.65-43.58,23.85-9.23-5.65,5.18-8.37,9.41-10,7.56-3.93,6.72-2.58,14.17-6.71" transform="matrix(-1, 0, 0, 1, 380, 0)" style=""></path><path d="M164.32,539.27a13.16,13.16,0,0,1-3,2,33.65,33.65,0,0,1-3,1.53c-1.15.52-2.38,1-3.62,1.61s-2.5,1.25-3.75,1.92l-.5.27-.56.22-1,.36-2,.66a30,30,0,0,0-6.2,2.59,5.76,5.76,0,0,0-1.52,1.26.92.92,0,0,0-.23,1.06,4,4,0,0,0,1.17,1.25c.3.2.58.41.91.59l.23.15a.31.31,0,0,0,.12,0l.51.18a25.69,25.69,0,0,0,9.21,1.54,30.29,30.29,0,0,0,17.35-6.3,41.65,41.65,0,0,0,10.62-11.63,40.36,40.36,0,0,0,3.33-6.81c.18-.5.34-1.16.5-1.76s.29-1.2.4-1.77a9.55,9.55,0,0,0,.18-1.62,6.62,6.62,0,0,0-.1-1.52,2.34,2.34,0,0,0-.34-1,.31.31,0,0,0-.26-.18,1.09,1.09,0,0,0-.66.26,2.58,2.58,0,0,0-.32.34l-.12.2a4.06,4.06,0,0,0-.2.38,21.76,21.76,0,0,1-4.2,6.07,34,34,0,0,1-5.19,4.11c-1.68,1.16-3.25,2.25-4.63,3.41a28.18,28.18,0,0,1,3.72-4.62,43.92,43.92,0,0,0,4.34-5,23.9,23.9,0,0,0,2.72-5.24l.12-.31.07-.15.11-.25a4.5,4.5,0,0,1,.56-.93,4.69,4.69,0,0,1,1.51-1.34,4.27,4.27,0,0,1,1.88-.58,3.63,3.63,0,0,1,1.8.31,4.36,4.36,0,0,1,2.09,2.14,7.37,7.37,0,0,1,.54,2.19,12.77,12.77,0,0,1,0,1.95,11.7,11.7,0,0,1-.28,1.86c-.25,1.17-.57,2.25-.9,3.3a27,27,0,0,1-1.32,3.16,44.78,44.78,0,0,1-7.06,10.56,39.83,39.83,0,0,1-19.16,12.28,28.76,28.76,0,0,1-10.47.8,26.63,26.63,0,0,1-4.93-1c-.81-.22-1.56-.54-2.33-.82a8.52,8.52,0,0,1-1.2-.7,12.65,12.65,0,0,1-1-.8,4.62,4.62,0,0,1-1.61-2.45,2.85,2.85,0,0,1,.14-1.71,4,4,0,0,1,.85-1.29,12.32,12.32,0,0,1,4.14-2.48c1.39-.56,2.77-1,4.11-1.4l2-.59c.62-.18,1.34-.39,1.82-.56,1.05-.52,2.51-1.2,4-1.77s3.09-1.08,4.52-1.56C161.09,540.72,163.51,539.59,164.32,539.27Z" transform="matrix(-1, 0, 0, 1, 380, 0)"></path><path class="cls-6 color-shoes" d="M172.49,548.14c-1.4-18.8-27.06-21.83-37.12-19.55-12.29,27,14.75,36.2,33.53,24.06C173.94,549.39,172.49,548.14,172.49,548.14Z" transform="matrix(-1, 0, 0, 1, 380, 0)" style=""></path><path d="M172.51,548.11c.15,0,.49.43.32,1.07a4.54,4.54,0,0,1-1.26,2A24.3,24.3,0,0,1,166,555a34,34,0,0,1-7.29,2.83,38.34,38.34,0,0,1-6.38,1.07,25.24,25.24,0,0,1-9.05-.88,19.39,19.39,0,0,1-4.43-1.91,18.59,18.59,0,0,1-2.06-1.39A17.59,17.59,0,0,1,135,553a16.89,16.89,0,0,1-4.29-9,25.45,25.45,0,0,1,.61-9.58,35.81,35.81,0,0,1,1.16-3.86c.11-.32.25-.62.37-.92l.42-1,.73-1.73,1.85-.38.65-.11.5-.08,1-.12c.67-.08,1.33-.12,2-.16,1.31-.07,2.62-.06,3.91,0a44.12,44.12,0,0,1,14.6,3.08,25.82,25.82,0,0,1,11,8.07,17.5,17.5,0,0,1,2.78,5.52,19.5,19.5,0,0,1,.79,5.44,31.75,31.75,0,0,0-2.21-4.92,19.87,19.87,0,0,0-3.67-4.57,36.8,36.8,0,0,0-7.79-5.1,35.14,35.14,0,0,0-10.83-3.83,38.39,38.39,0,0,0-10.95-.56l-1.18.15-.38.07c-.08,0-.09.07-.12.12l-.08.18-.45,1c-.17.4-.35.79-.48,1.2a29.61,29.61,0,0,0-1.41,4.88,18.52,18.52,0,0,0,.33,9.44,14.71,14.71,0,0,0,.84,2.09,14.38,14.38,0,0,0,1.18,1.87,13.86,13.86,0,0,0,1.4,1.65,15.36,15.36,0,0,0,1.64,1.38,18.61,18.61,0,0,0,7.54,3.18,26.87,26.87,0,0,0,7.77.33,35.06,35.06,0,0,0,7.17-1.48,43.84,43.84,0,0,0,7.43-3.13,14.92,14.92,0,0,0,3-2,3,3,0,0,0,.75-1.07A.86.86,0,0,0,172.51,548.11Z" transform="matrix(-1, 0, 0, 1, 380, 0)"></path><path d="M149.68,559.32c-.33,0-.54-1.08-.75-1.5a5.3,5.3,0,0,1-.52-2.5,4.15,4.15,0,0,1,.57-2.13,2.74,2.74,0,0,1,1.43-1.22c.3.9.56,1.63.35,1.77a2.65,2.65,0,0,0-1,2.44,20.32,20.32,0,0,1,.27,2.13A3,3,0,0,1,149.68,559.32Z" transform="matrix(-1, 0, 0, 1, 380, 0)"></path><path d="M138.61,548.13c0,.19-.18.3-.3.52a1.25,1.25,0,0,0-.21.68c.06.63.07,1.29.16,1.88s.13,1,.17,1.43a2.45,2.45,0,0,0,.23,1,.9.9,0,0,1-.49.42,1.14,1.14,0,0,1-.66,0,1.34,1.34,0,0,1-.52-.26.57.57,0,0,1-.18-.3c0-.73.05-1.24.08-1.73s0-.9,0-1.32a2.94,2.94,0,0,1,.61-2.18,1.11,1.11,0,0,1,.61-.27A1.5,1.5,0,0,1,138.61,548.13Z" transform="matrix(-1, 0, 0, 1, 380, 0)"></path><g class="cls-7" transform="matrix(-1, 0, 0, 1, 380, 0)"><path d="M161.54,532.35c.08.31-.58.88-1.41,1.41s-1.83,1-2.34,1.45a15.48,15.48,0,0,1-3,1.81c-.54.26-1.1.49-1.65.71l-.83.32-.24.09-.4.12-.78.25c-.93.3-1.85.53-2.78.78l-.17.05s-.07,0-.07,0l0-.09-.07-.34-.13-.69c-.08-.46-.17-.91-.23-1.38-.13-.91-.29-2-.3-2.29,0-.46-.06-.92-.07-1.36a17.8,17.8,0,0,1,.43-4.76c1.82.87,3.32,2.85,3.16,3.66a17.2,17.2,0,0,0-.32,2.37,3.92,3.92,0,0,0-.17,1.26c0,.08,0,.07.08.07h.12l.27,0c.19,0,.39-.07.58-.12s.5-.14.79-.24.59-.2.87-.31c2.28-.86,4.1-1.92,5.85-2.43A11.68,11.68,0,0,1,161.54,532.35Z"></path></g></svg>