<svg xmlns="http://www.w3.org/2000/svg" id="outfits_springbreak" viewBox="0 0 380 600"><defs transform="matrix(-1, 0, 0, 1, 380, 0)"><style>.cls-1{fill:#fff;}.cls-2{fill:#f60;}.cls-3{fill:#9c6926;}.cls-4{fill:#3a200e;}.cls-5{fill:#d4d7d9;}.cls-6{fill:#ffffff;}</style></defs><g id="default" transform="matrix(-1, 0, 0, 1, 380, 0)"><ellipse class="cls-1" cx="182.67" cy="463" rx="57.58" ry="25.42"></ellipse><path d="M240.21,463c-.11-.27-.14-1.13-.47-2.38a14.66,14.66,0,0,0-2.18-4.59c-2.34-3.47-6.91-6.87-12.27-9.44A75.78,75.78,0,0,0,208,441a102.62,102.62,0,0,0-14.76-2,135.56,135.56,0,0,0-20.59.35,109.46,109.46,0,0,0-20.92,3.9,69.4,69.4,0,0,0-10,3.74,40.87,40.87,0,0,0-8.83,5.47,16.73,16.73,0,0,0-5.58,7.74,10.27,10.27,0,0,0,1.43,8.55,22.32,22.32,0,0,0,5.86,5.89,45.26,45.26,0,0,0,7.54,4.25,80.74,80.74,0,0,0,16.64,5.22,127.57,127.57,0,0,0,33.62,2.16c10.8-.72,21-2.71,29.87-6.26a41.64,41.64,0,0,0,11.67-6.8,19,19,0,0,0,4-4.71,12,12,0,0,0,1.66-5.51,11.23,11.23,0,0,1-.85,5.66,18.88,18.88,0,0,1-3.8,5.7,40.87,40.87,0,0,1-12.39,8.47,76.89,76.89,0,0,1-23.56,6.51,130.92,130.92,0,0,1-14.72.63,135.53,135.53,0,0,1-14.23-.89,101.62,101.62,0,0,1-26.39-6.39,49.66,49.66,0,0,1-11.4-6.33,26.36,26.36,0,0,1-4.64-4.5,15.8,15.8,0,0,1-3-5.73,12.15,12.15,0,0,1,0-6.39,15.67,15.67,0,0,1,2.88-5.54,31.18,31.18,0,0,1,9.21-7.53A62.38,62.38,0,0,1,147.32,442,90.12,90.12,0,0,1,158,439.08a119.85,119.85,0,0,1,20.79-2.5,124.14,124.14,0,0,1,19.55.83,96.11,96.11,0,0,1,17.87,3.85c5.33,1.68,12.5,4.81,17.61,9.32a26.65,26.65,0,0,1,3.33,3.53,18.63,18.63,0,0,1,2.13,3.64A12.54,12.54,0,0,1,240.21,463Z"></path></g><g data-name="default" id="default-2" transform="matrix(-1, 0, 0, 1, 380, 0)"><path class="cls-1" d="M125.09,465.17c5.8,23.75,18.27,52.94,19.51,54.5-3.34,2.57-6.52,8.2-8.28,11.35-2.44,4.39-3,10-.8,14.51,3.81,7.81,14.16,9.86,22.61,8.13,9.71-2,16.62-7.8,22.45-15.92,4.49-6.27,4.1-13.87,4.54-21.59.41-2.34.39-19.37.38-22.15"></path><path d="M185.56,494c.39.46.66,3.34.84,7.41.09,2,.16,4.37.2,6.85,0,1.24,0,2.52,0,3.82s0,2.6-.12,4v.16c-.1,3.19-.06,6.45-.27,9.45a37,37,0,0,1-1.27,7.84,20.83,20.83,0,0,1-1.4,3.59c-.27.6-.63,1.16-1,1.74s-.68,1-1,1.56a48.75,48.75,0,0,1-4.72,6,35.26,35.26,0,0,1-13.22,9.09,31.72,31.72,0,0,1-16.47,1.86,24,24,0,0,1-8.22-2.87,17.73,17.73,0,0,1-6.43-6.44,17.27,17.27,0,0,1-2.33-8.78,21,21,0,0,1,1.81-8.54c.27-.64.66-1.36.95-1.9l.89-1.58c.61-1,1.25-2.11,1.92-3.15s1.38-2.08,2.16-3.1c.39-.51.8-1,1.23-1.52l.58-.64h.06v0h0s0,0,0-.08l-.43-1c-.27-.64-.53-1.27-.8-1.9-.5-1.26-1-2.52-1.5-3.76-1-2.5-1.89-5-2.75-7.4-1.74-4.88-3.28-9.63-4.63-14.21a184.19,184.19,0,0,1-5.68-25c2.77,4.39,6.07,10.81,9,16.9s5.55,11.87,6.46,15.08q1.42,5.15,3,10.05.81,2.44,1.65,4.83l.87,2.35.44,1.15.31.76c.13.32.3.62.39.93,0,.86,0,1.78,0,2.34a4.08,4.08,0,0,1-.36,1c-.14.4-.29.79-.42,1.16-.39.36-.81.71-1.15,1.07s-.42.41-.62.64c-.41.45-.8.92-1.19,1.4-.77,1-1.49,2-2.19,3s-1.36,2.1-2,3.18c-.34.56-.62,1-.88,1.54s-.48,1-.68,1.55c-1.61,4.23-1.24,9.12,1.39,12.44a12.8,12.8,0,0,0,4.87,3.9,19.86,19.86,0,0,0,6.08,1.72A26.85,26.85,0,0,0,161.27,551a30.4,30.4,0,0,0,10-5.92,46.76,46.76,0,0,0,7.38-8.4,21,21,0,0,0,3.48-9.27c.51-3.34.61-6.77.9-10.17,0-.33.05-.68.08-1.19l0-.35c.12-.77.21-1.79.31-2.82s.21-2.12.32-3.22c.23-2.21.47-4.48.69-6.6C184.94,498.83,185.38,495.23,185.56,494Z"></path></g><g data-name="default" id="default-3" transform="matrix(-1, 0, 0, 1, 380, 0)"><path class="cls-1" d="M125.09,463.37c9,37.25,43.74,56,63.79,54.5,18.52-1.37,41.24-8.94,48.76-28.75,2.67-7.06,3.18-15.46,2-25.75"></path><path d="M239.67,463.37a23.21,23.21,0,0,1,.81,4.95,59.62,59.62,0,0,1,.11,10.41,38.73,38.73,0,0,1-2.71,11.78c-.39.89-.76,1.77-1.13,2.62s-.88,1.58-1.29,2.32c-.2.37-.4.74-.6,1.08l-.66,1L233,499.21a41.7,41.7,0,0,1-10,9.53,57.56,57.56,0,0,1-12.84,6.49,77.87,77.87,0,0,1-14,3.62l-3.55.52-3.54.36a37,37,0,0,1-7.23-.17,51.72,51.72,0,0,1-11.9-2.88,67.53,67.53,0,0,1-10.84-5.08,73.4,73.4,0,0,1-17.68-14.38,74.2,74.2,0,0,1-6.54-8.41,79,79,0,0,1-4.92-8.7,69.86,69.86,0,0,1-5.4-16.61,122.54,122.54,0,0,0,8.06,15.84c1.64,2.69,3.43,5.16,5,7.3.8,1.05,1.54,2,2.21,2.87s1.25,1.61,1.71,2.22a68.27,68.27,0,0,0,27.68,21.58,48.86,48.86,0,0,0,15.64,3.82c.65,0,1.3,0,1.94,0s1.28,0,1.92-.07c1.28-.11,2.57-.23,3.83-.37s2.52-.33,3.75-.54,2.46-.43,3.66-.7c9.63-2,18.28-5.76,24.92-11.09a35.51,35.51,0,0,0,11.06-14.06,29.78,29.78,0,0,0,1.94-5.26,57.73,57.73,0,0,0,1.86-12.47C239.9,468.33,239.71,464.59,239.67,463.37Z"></path></g><g data-name="default" id="default-4" transform="matrix(-1, 0, 0, 1, 380, 0)"><path class="cls-1" d="M235.5,491.65a63.45,63.45,0,0,0-26.92,5.57A62.22,62.22,0,0,0,187.5,513c4.57,5.6,4.08,11.91,5,18.76-3,5.24-6,12.24-5.41,19.44C188,562,194.58,568,204.82,568.44c7.84.31,16.58-3.8,21.82-9.86,6-7,8.86-14.58,9.65-24C236.5,520,237.24,507.76,235.5,491.65Z"></path><path class="cls-1" d="M187.5,513c4.57,5.6,4.08,11.91,5,18.76-3,5.24-6,12.24-5.41,19.44C188,562,194.58,568,204.82,568.44c7.84.31,16.58-3.8,21.82-9.86,6-7,8.86-14.58,9.65-24,.21-14.57,1-26.81-.79-42.92"></path><path d="M235.56,491.64c.68.58,1.69,6.78,2.16,14s.47,15.46.73,20c.1,2,.2,4.06.31,6.13,0,1.07.11,2.12.1,3.24l-.09,1.73-.13,1.66a41.31,41.31,0,0,1-3.53,13.37,39.08,39.08,0,0,1-3.54,6.15c-.68,1-1.39,1.91-2.13,2.81-.38.46-.81.93-1.21,1.39l-1.3,1.3a34.17,34.17,0,0,1-12.18,7.35,29.47,29.47,0,0,1-6.07,1.42,27.27,27.27,0,0,1-6.32,0,25.17,25.17,0,0,1-6.22-1.54,19.62,19.62,0,0,1-5.64-3.43,18.9,18.9,0,0,1-4.13-5.08,21.8,21.8,0,0,1-2.24-5.79c-.25-1-.39-1.94-.54-2.91s-.21-1.9-.21-2.89a27.18,27.18,0,0,1,.47-5.68,36.23,36.23,0,0,1,3.48-9.87c.38-.74.77-1.46,1.18-2.16.2-.35.4-.69.61-1l.16-.26.08-.13,0,0,.11-.13.11-.13V531a2.68,2.68,0,0,0,0-.63l-.07-2.24a57.12,57.12,0,0,0-.51-8,17.48,17.48,0,0,0-2.41-6.46,13.48,13.48,0,0,1,5.34,5.69,40.23,40.23,0,0,1,3,8.72l.27,1.06.13.52.07.25c0,.09,0,.15.08.34.12.65.25,1.29.38,1.92,0,.08,0,.17,0,.24l-.1.22-.2.43-.42.88a10.62,10.62,0,0,0-.5,1.17c-.12.3-.23.59-.34.89-.22.57-.43,1.14-.63,1.68-.77,2.16-1.35,3.95-1.84,5.15a22.18,22.18,0,0,0-1.71,7.37,19.42,19.42,0,0,0,1,7.29,13.18,13.18,0,0,0,3.94,5.7,15.39,15.39,0,0,0,6.32,3,22.4,22.4,0,0,0,13.83-1.44A26.65,26.65,0,0,0,226,556.88a35.32,35.32,0,0,0,6.1-11,39.46,39.46,0,0,0,1.46-5.83,49.87,49.87,0,0,0,.66-5.76c0-2,0-3.93,0-5.84s.06-3.83.09-5.7q.15-5.57.29-10.77c0-3.28.37-7.76.57-11.73S235.51,492.78,235.56,491.64Z"></path></g><g data-name="default" id="default-5" transform="matrix(-1, 0, 0, 1, 380, 0)"><path class="cls-1" d="M125.09,465.17c5.8,23.75,18.27,52.94,19.51,54.5-3.34,2.57-6.52,8.2-8.28,11.35-2.44,4.39-3,10-.8,14.51,3.81,7.81,14.16,9.86,22.61,8.13,9.71-2,16.62-7.8,22.45-15.92,4.49-6.27,4.1-13.87,4.54-21.59.41-2.34.39-19.37.38-22.15"></path><path d="M185.56,494c.39.46.66,3.34.84,7.41.09,2,.16,4.37.2,6.85,0,1.24,0,2.52,0,3.82s0,2.6-.12,4v.16c-.1,3.19-.06,6.45-.27,9.45a37,37,0,0,1-1.27,7.84,20.83,20.83,0,0,1-1.4,3.59c-.27.6-.63,1.16-1,1.74s-.68,1-1,1.56a48.75,48.75,0,0,1-4.72,6,35.26,35.26,0,0,1-13.22,9.09,31.72,31.72,0,0,1-16.47,1.86,24,24,0,0,1-8.22-2.87,17.73,17.73,0,0,1-6.43-6.44,17.27,17.27,0,0,1-2.33-8.78,21,21,0,0,1,1.81-8.54c.27-.64.66-1.36.95-1.9l.89-1.58c.61-1,1.25-2.11,1.92-3.15s1.38-2.08,2.16-3.1c.39-.51.8-1,1.23-1.52l.58-.64h.06v0h0s0,0,0-.08l-.43-1c-.27-.64-.53-1.27-.8-1.9-.5-1.26-1-2.52-1.5-3.76-1-2.5-1.89-5-2.75-7.4-1.74-4.88-3.28-9.63-4.63-14.21a184.19,184.19,0,0,1-5.68-25c2.77,4.39,6.07,10.81,9,16.9s5.55,11.87,6.46,15.08q1.42,5.15,3,10.05.81,2.44,1.65,4.83l.87,2.35.44,1.15.31.76c.13.32.3.62.39.93,0,.86,0,1.78,0,2.34a4.08,4.08,0,0,1-.36,1c-.14.4-.29.79-.42,1.16-.39.36-.81.71-1.15,1.07s-.42.41-.62.64c-.41.45-.8.92-1.19,1.4-.77,1-1.49,2-2.19,3s-1.36,2.1-2,3.18c-.34.56-.62,1-.88,1.54s-.48,1-.68,1.55c-1.61,4.23-1.24,9.12,1.39,12.44a12.8,12.8,0,0,0,4.87,3.9,19.86,19.86,0,0,0,6.08,1.72A26.85,26.85,0,0,0,161.27,551a30.4,30.4,0,0,0,10-5.92,46.76,46.76,0,0,0,7.38-8.4,21,21,0,0,0,3.48-9.27c.51-3.34.61-6.77.9-10.17,0-.33.05-.68.08-1.19l0-.35c.12-.77.21-1.79.31-2.82s.21-2.12.32-3.22c.23-2.21.47-4.48.69-6.6C184.94,498.83,185.38,495.23,185.56,494Z"></path></g><g data-name="default" id="default-6" transform="matrix(-1, 0, 0, 1, 380, 0)"><path class="cls-1" d="M235.5,491.65a63.45,63.45,0,0,0-26.92,5.57A62.22,62.22,0,0,0,187.5,513c4.57,5.6,4.08,11.91,5,18.76-3,5.24-6,12.24-5.41,19.44C188,562,194.58,568,204.82,568.44c7.84.31,16.58-3.8,21.82-9.86,6-7,8.86-14.58,9.65-24C236.5,520,237.24,507.76,235.5,491.65Z"></path><path class="cls-1" d="M187.5,513c4.57,5.6,4.08,11.91,5,18.76-3,5.24-6,12.24-5.41,19.44C188,562,194.58,568,204.82,568.44c7.84.31,16.58-3.8,21.82-9.86,6-7,8.86-14.58,9.65-24,.21-14.57,1-26.81-.79-42.92"></path><path d="M235.56,491.64c.68.58,1.69,6.78,2.16,14s.47,15.46.73,20c.1,2,.2,4.06.31,6.13,0,1.07.11,2.12.1,3.24l-.09,1.73-.13,1.66a41.31,41.31,0,0,1-3.53,13.37,39.08,39.08,0,0,1-3.54,6.15c-.68,1-1.39,1.91-2.13,2.81-.38.46-.81.93-1.21,1.39l-1.3,1.3a34.17,34.17,0,0,1-12.18,7.35,29.47,29.47,0,0,1-6.07,1.42,27.27,27.27,0,0,1-6.32,0,25.17,25.17,0,0,1-6.22-1.54,19.62,19.62,0,0,1-5.64-3.43,18.9,18.9,0,0,1-4.13-5.08,21.8,21.8,0,0,1-2.24-5.79c-.25-1-.39-1.94-.54-2.91s-.21-1.9-.21-2.89a27.18,27.18,0,0,1,.47-5.68,36.23,36.23,0,0,1,3.48-9.87c.38-.74.77-1.46,1.18-2.16.2-.35.4-.69.61-1l.16-.26.08-.13,0,0,.11-.13.11-.13V531a2.68,2.68,0,0,0,0-.63l-.07-2.24a57.12,57.12,0,0,0-.51-8,17.48,17.48,0,0,0-2.41-6.46,13.48,13.48,0,0,1,5.34,5.69,40.23,40.23,0,0,1,3,8.72l.27,1.06.13.52.07.25c0,.09,0,.15.08.34.12.65.25,1.29.38,1.92,0,.08,0,.17,0,.24l-.1.22-.2.43-.42.88a10.62,10.62,0,0,0-.5,1.17c-.12.3-.23.59-.34.89-.22.57-.43,1.14-.63,1.68-.77,2.16-1.35,3.95-1.84,5.15a22.18,22.18,0,0,0-1.71,7.37,19.42,19.42,0,0,0,1,7.29,13.18,13.18,0,0,0,3.94,5.7,15.39,15.39,0,0,0,6.32,3,22.4,22.4,0,0,0,13.83-1.44A26.65,26.65,0,0,0,226,556.88a35.32,35.32,0,0,0,6.1-11,39.46,39.46,0,0,0,1.46-5.83,49.87,49.87,0,0,0,.66-5.76c0-2,0-3.93,0-5.84s.06-3.83.09-5.7q.15-5.57.29-10.77c0-3.28.37-7.76.57-11.73S235.51,492.78,235.56,491.64Z"></path><path class="cls-2" d="M195.44,526.24a28,28,0,0,0,19,4.28c6.58-.92,15.11-4.37,19.46-9.4,1.78,2.71-.34,6.2-.2,9.44l.45,10.81a28.23,28.23,0,0,1-.23,6.5c-.75,3.92-3.11,7.32-5.4,10.58a22,22,0,0,1-5.37,5.94,19.87,19.87,0,0,1-4.69,2.13c-4.75,1.63-5.41,2.07-10.34,3-3.58.69-9-.5-12.56-1.19s-7.59-3-9.5-6a16.1,16.1,0,0,1-2.12-12c.66-3.47,3.22-6.81,5.56-10.5,1.57-2.46,3.62-4.63,4.77-7.31s1.15-6.18-1.05-8.09a1.83,1.83,0,0,1,2.41.61"></path><path d="M195.63,525.05a4.06,4.06,0,0,0-.74-.39,1.58,1.58,0,0,0-1.4.15l.07-.74a5.6,5.6,0,0,1,1.91,2.85,8.7,8.7,0,0,1,.1,4.29c-.67,3.13-3,5.78-4.69,8.42a78,78,0,0,0-4.75,8.11,12.1,12.1,0,0,0-.66,1.88,11.16,11.16,0,0,0-.31,1.82A14.31,14.31,0,0,0,187,560.2c.25.42.53.87.81,1.25a7.72,7.72,0,0,0,.89,1,12,12,0,0,0,2.31,1.76,15.58,15.58,0,0,0,2.71,1.27,12.22,12.22,0,0,0,1.43.41,15,15,0,0,0,1.55.29c2.28.39,4.52.77,6.69.93a20.35,20.35,0,0,0,3.11,0l.7-.08c.24-.05.39-.06.69-.13l1.66-.37a30.6,30.6,0,0,0,3.13-.88c1-.34,2.09-.76,3.19-1.16a26.37,26.37,0,0,0,5.71-2.47,16,16,0,0,0,3.85-4.23c2.05-3,4.09-5.84,5.08-8.67a13.53,13.53,0,0,0,.76-4.36c0-1.57-.07-3.37-.13-5.14s-.12-3.54-.18-5.28l-.09-2.62,0-.65c0-.23,0-.38,0-.72a11.25,11.25,0,0,1,.11-1.69c0-.26.07-.52.12-.76l.07-.37a.21.21,0,0,0,0-.06c0-.08,0-.06,0-.09a1.71,1.71,0,0,0,.07-.18.5.5,0,0,0,0-.25c0-.06,0-.06,0,0l-.07,0-.23.1-.07,0s0,0-.29.16-.88.51-1.32.76a38.62,38.62,0,0,1-5.38,2.39,37,37,0,0,1-10.86,2.2A28.07,28.07,0,0,1,195,527a39.48,39.48,0,0,0,8.07,1.86,31.53,31.53,0,0,0,9-.2,41.56,41.56,0,0,0,7.93-2.34c2.32-.92,4.21-1.83,5.53-2.41.51-.21,1-.44,1.48-.69.24-.11.48-.24.71-.37l.17-.09.33-.2c.24-.14.47-.3.7-.46.45-.32.9-.72,1.35-1.06a13.08,13.08,0,0,0,1.33-1.15l2.64-2.64a7.88,7.88,0,0,0,.6.87l.22.26.11.12a2,2,0,0,1,.17.31,17.59,17.59,0,0,1,1.14,2.61,8.33,8.33,0,0,1,.27,2.94,24.35,24.35,0,0,1-.64,3.48L235.8,529c-.06.31-.11.6-.14.88a19.46,19.46,0,0,0,0,2c0,1.41,0,2.81,0,4.2,0,2.81.09,5.48,0,8.3a19.49,19.49,0,0,1-.53,4.27,19.89,19.89,0,0,1-1.48,4,50.35,50.35,0,0,1-4.27,6.69,24,24,0,0,1-5.26,5.84c-2.24,1.6-4.74,2.27-6.92,3.08-1.12.4-2.23.82-3.38,1.2s-2.34.69-3.49,1l-1.72.37a16,16,0,0,1-1.86.26,25.14,25.14,0,0,1-3.59,0c-2.32-.2-4.54-.59-6.68-1a23.36,23.36,0,0,1-3.34-.76,18.71,18.71,0,0,1-3.18-1.37,14.53,14.53,0,0,1-5.17-4.58,17.63,17.63,0,0,1-2.51-6.09,18.34,18.34,0,0,1-.1-6.35c.08-.5.18-1,.31-1.56a15,15,0,0,1,.5-1.52,20.16,20.16,0,0,1,1.32-2.72c1-1.69,2-3.19,3-4.65.43-.63.85-1.26,1.39-2s1.11-1.43,1.69-2.12A24.73,24.73,0,0,0,193.5,532a8.16,8.16,0,0,0,.91-4.44,5.26,5.26,0,0,0-1.24-3l-.13-.15.15-.07a1.87,1.87,0,0,1,1.9.13A1.51,1.51,0,0,1,195.63,525.05Z"></path><path class="cls-3" d="M185.44,547.54c-1,3.77,1.84,7.71,5.41,9.3s7.64,1.43,11.54,1.23c3.49-.18,7.07-.37,10.29-1.74,3.6-1.52,7.24-4.53,10.92-3.19l9.15-16.38a15.18,15.18,0,0,1,.27,8.76,30.5,30.5,0,0,1-43.11,21c-2.76-1.34-5.43-3.24-6.7-6-1.83-4-.26-8.79,2-12.59"></path><path d="M185.23,547.87c0,.35-.78,1.76-1.5,4a16.19,16.19,0,0,0-.77,3.85,9.28,9.28,0,0,0,.77,4.41,9.87,9.87,0,0,0,3.07,3.66,19.29,19.29,0,0,0,4.27,2.38,27,27,0,0,0,7.83,2,31.52,31.52,0,0,0,11.06-.85,28.89,28.89,0,0,0,10.2-5,30.22,30.22,0,0,0,7.58-8.52,28.29,28.29,0,0,0,3.69-10.41c0-.18,0-.11,0-.13h0v0h0l0,.06c-2.32,4.13-4.61,8.19-6.84,12.14-.52-.15-1.1-.34-1.57-.46a5.91,5.91,0,0,0-1.12-.23,4.23,4.23,0,0,0-1.16.08,10.72,10.72,0,0,0-2.61.91,53.3,53.3,0,0,1-6,2.7,26.83,26.83,0,0,1-6.44,1.07c-2.07.11-4,.15-6,.15-3.9,0-8.06-.53-11.17-2.93a10.55,10.55,0,0,1-3.33-4.3,7.34,7.34,0,0,1-.29-5,7.85,7.85,0,0,0,2.76,6.34,10.41,10.41,0,0,0,3.19,2,14.52,14.52,0,0,0,3.7.78,44.62,44.62,0,0,0,7.39-.29l5.46-.47a19.17,19.17,0,0,0,3.88-.69,28.39,28.39,0,0,0,3.72-1.55,25.57,25.57,0,0,1,4.13-1.64,10.36,10.36,0,0,1,2.39-.33,3.43,3.43,0,0,1,1.44.23c.07,0,.12-.16.18-.24l.09-.13.13-.21.85-1.42,1.68-2.82,3.38-5.79,1.14-2a14.43,14.43,0,0,1,1-1.71l1-1.32.48-.65.12-.16.05-.09s0,.07.05.1l.16.45a19.1,19.1,0,0,1,.88,3.46,14.83,14.83,0,0,1,0,3.95c0,.17,0,.35-.06.51l0,.38-.13.76c-.09.51-.21,1-.34,1.49-.22,1-.53,1.95-.84,2.89a32.25,32.25,0,0,1-2.46,5.36,31.89,31.89,0,0,1-11.63,11.81A30.7,30.7,0,0,1,204,570.55a29.2,29.2,0,0,1-17.66-5,11.41,11.41,0,0,1-3.66-4.3,9.77,9.77,0,0,1-.83-3,11.1,11.1,0,0,1,.14-3,16,16,0,0,1,1.7-4.78A21.59,21.59,0,0,1,185.23,547.87Z"></path><path class="cls-4" d="M214,570c-8.56,2.57-15.69.93-23.74-2.32a11.27,11.27,0,0,1-2.38-1.19A9.73,9.73,0,0,1,185,563,22.53,22.53,0,0,1,184,544.61l.41,10.46a5.79,5.79,0,0,0,.54,2.72c2,3.53,5.83-1.74,8.28-2.09,4-.58,7.39,2.64,10,6,7.68,10,23.67-.33,24.2-1.43a4.05,4.05,0,0,0,.16-2.27,8.11,8.11,0,0,1,2-6.2,2.7,2.7,0,0,1,2.68-1.22c.76,1.17.29,2.78-.3,4A28.94,28.94,0,0,1,214,570Z"></path><path d="M214,569.93c.41-.44,4.89-1.82,9.29-5.39A28.28,28.28,0,0,0,229.2,558a26.39,26.39,0,0,0,2.05-3.83c.54-1.22.7-2.49.22-3.1l.51.37a1.56,1.56,0,0,0-.55.07,2.23,2.23,0,0,0-.57.3,4.19,4.19,0,0,0-.89,1.07,6.94,6.94,0,0,0-1.28,4.73,10.35,10.35,0,0,1,.17,1.63,3.14,3.14,0,0,1-.76,2.17,5.6,5.6,0,0,1-.43.41l-.34.27c-.22.17-.43.33-.65.48-.44.32-.88.6-1.33.88a31.89,31.89,0,0,1-5.72,2.79,23.15,23.15,0,0,1-6.42,1.43,16.69,16.69,0,0,1-3.45-.13,13.43,13.43,0,0,1-3.4-1,12.29,12.29,0,0,1-3-2,20.71,20.71,0,0,1-2.23-2.48,16.18,16.18,0,0,0-4-3.64,6.44,6.44,0,0,0-2.16-.81,3.3,3.3,0,0,0-1.79.12,17.75,17.75,0,0,0-2,1.34,11.46,11.46,0,0,1-2.91,1.64l-.51.15c-.21,0-.45.07-.67.09a4.2,4.2,0,0,1-1.36-.11,4,4,0,0,1-1.21-.62c-.18-.14-.36-.29-.53-.45a3.92,3.92,0,0,1-.37-.46,5,5,0,0,1-.93-2,9.07,9.07,0,0,1-.23-1.73c-.14-3.68-.27-7.33-.4-10.91l3.82.64a21.12,21.12,0,0,0-.74,12.82,23.2,23.2,0,0,0,1,3,16,16,0,0,0,1.43,2.63,5.45,5.45,0,0,0,1.88,1.74c.77.43,1.84.85,2.79,1.26A42.91,42.91,0,0,0,203.5,570a29.55,29.55,0,0,0,10.3-.62,22.24,22.24,0,0,1-6.85,2.33,27.07,27.07,0,0,1-8.62,0,43.43,43.43,0,0,1-7.87-2l-1.65-.6a11.34,11.34,0,0,1-1.65-.8,8.14,8.14,0,0,1-2.34-2.15,15.42,15.42,0,0,1-1.56-2.76,21.85,21.85,0,0,1-1-2.79,24,24,0,0,1-1-5.69,24.33,24.33,0,0,1,1.76-10.79l2.14.36c0,3.7.11,7.34.19,10.86a3.75,3.75,0,0,0,.49,2.08,1.14,1.14,0,0,0,1.34.62,7.15,7.15,0,0,0,2-1c.69-.46,1.37-1,2.15-1.44a6.08,6.08,0,0,1,1.31-.61,5.74,5.74,0,0,1,1.46-.19,7.48,7.48,0,0,1,2.71.48,12.36,12.36,0,0,1,4.33,2.84,24,24,0,0,1,1.7,1.81c.53.62,1,1.3,1.51,1.82a9.39,9.39,0,0,0,3.46,2.52,13.67,13.67,0,0,0,8.32.36,28.31,28.31,0,0,0,7.66-3.1c.58-.34,1.15-.69,1.69-1.06.26-.18.53-.38.75-.56a.74.74,0,0,0,.29-.39,3.72,3.72,0,0,0,0-1.46,7.77,7.77,0,0,1,0-2.31,9.68,9.68,0,0,1,1.71-4.05c.69-1.08,2.15-2.68,4.32-2.25l.39.08.25.39a4.13,4.13,0,0,1,.45,3.12,9.24,9.24,0,0,1-.92,2.44,25.6,25.6,0,0,1-2.46,4,26.81,26.81,0,0,1-8.64,7.47,29.23,29.23,0,0,1-4.68,2.06C215.53,569.57,214.48,569.81,214,569.93Z"></path><path class="cls-3" d="M191.48,545.44c.41.16.84-.31.87-.77a5.68,5.68,0,0,0-.22-1.34c-.3-1.8,1.22-3.29,2.38-4.66a15.3,15.3,0,0,0,2.75-14.24,5,5,0,0,1-.44-2.73c.41-1.65,2.45-2.12,4.1-2.09a21.69,21.69,0,0,1,10.44,3c1.5.88,3.09,2.51,2.48,4.18a6.91,6.91,0,0,1-1.34,1.81c-1.59,2-1.36,5-2.3,7.43-1,2.66-3.53,5.23-2.53,7.91.32.86,1,1.66.87,2.57-.25,1.54-2.34,1.64-3.82,1.32l-11.64-2.47c-.74-.15-1.69-1-1.1-1.48"></path><path d="M192,543.88c0,.12-.12.31.08.52a1.88,1.88,0,0,0,1.1.58c2,.27,5,.83,8,1.38l2.23.41c.72.12,1.47.3,2,.33a4.9,4.9,0,0,0,.86,0,1.88,1.88,0,0,0,.56-.14.8.8,0,0,0,.53-.61.55.55,0,0,0,0-.18.8.8,0,0,0-.11-.38c-.07-.14-.09-.16-.24-.42s-.29-.48-.44-.78a5.45,5.45,0,0,1-.37-1,6.59,6.59,0,0,1,.55-4.06c.49-1.16,1.06-2.16,1.5-3.12a10.27,10.27,0,0,0,.83-2.9,25.6,25.6,0,0,1,.73-3.63,8,8,0,0,1,.94-2c.44-.69.94-1.15,1.12-1.43s.15-.31.16-.41a1.51,1.51,0,0,0-.28-.56,4.22,4.22,0,0,0-.83-.79,9.56,9.56,0,0,0-1.16-.7,21,21,0,0,0-5-1.84,19.4,19.4,0,0,0-2.59-.42c-.44-.05-.87-.07-1.31-.09a6,6,0,0,0-1.06,0,2.17,2.17,0,0,0-1.16.43.36.36,0,0,0-.07.2,2.89,2.89,0,0,0,.15.81c.1.36.27.86.39,1.37s.22,1,.32,1.51a18,18,0,0,1,.18,3,16.12,16.12,0,0,1-3.92,10.13c-1.14,1.26-2.23,2.14-2.66,3.14a2.74,2.74,0,0,0-.19.72,3.57,3.57,0,0,0,.09.89,2.24,2.24,0,0,1-.12,1.3c-.18.39-.6.75-.92.68a.94.94,0,0,0,.49-.7,1.55,1.55,0,0,0-.21-1,4.46,4.46,0,0,1-.48-1,3.06,3.06,0,0,1-.1-1.29c.23-1.82,1.51-3.3,2.12-4.55a24,24,0,0,0,2.07-6.51,13,13,0,0,0,.34-3.46,14.14,14.14,0,0,0-.19-1.72c-.1-.56-.25-1.1-.43-1.84a4.44,4.44,0,0,1,.1-2.61,3.58,3.58,0,0,1,1.86-1.94,7.79,7.79,0,0,1,4.14-.5,24.24,24.24,0,0,1,7,1.76,23.88,23.88,0,0,1,3.11,1.58,6.67,6.67,0,0,1,2.56,2.65,3.15,3.15,0,0,1,.23,2.06,3.88,3.88,0,0,1-.95,1.69,6.21,6.21,0,0,0-.87,1.12,5.52,5.52,0,0,0-.53,1.24c-.56,1.78-.55,3.85-1.36,5.86s-1.91,3.48-2.3,5a3,3,0,0,0,0,2c.12.3.32.63.56,1.14a3.39,3.39,0,0,1,.38,1.91,2.72,2.72,0,0,1-1.89,2.19,5.54,5.54,0,0,1-2.54.21c-.79-.11-1.35-.28-2-.42l-1.82-.44a76,76,0,0,1-8.36-2.61,2,2,0,0,1-1.24-1A.49.49,0,0,1,192,543.88Z"></path><path d="M208.93,543c-.15.32-2.57.08-3.52.12a31.94,31.94,0,0,1-5.25-.29,34.22,34.22,0,0,1-7.63-1.68,4.62,4.62,0,0,1,3.27-.92c4.64,1.81,8.35,1.51,11.12,2.06A10.83,10.83,0,0,1,208.93,543Z"></path><path d="M208.93,543c-.32.18-2.18-1.43-3-1.92-1.45-.86-2.92-2-4.3-3-2.42-1.61-4.66-3.21-6.46-2.85a2.27,2.27,0,0,1,.55-.79,3.33,3.33,0,0,1,1-.49,4.11,4.11,0,0,1,1-.09,2.07,2.07,0,0,1,.7.18c2.3,1.49,3.82,2.88,5.38,4a33.45,33.45,0,0,1,3.84,3.17A11.52,11.52,0,0,1,208.93,543Z"></path><path d="M210.8,536.56c-.32.18-2.18-1.43-3-1.92-1.45-.86-2.92-2-4.3-3-2.42-1.61-4.66-3.21-6.46-2.85a2.27,2.27,0,0,1,.55-.79,3.45,3.45,0,0,1,1-.49,4.15,4.15,0,0,1,1-.09,2.07,2.07,0,0,1,.7.18c2.3,1.49,3.82,2.88,5.38,4a33.45,33.45,0,0,1,3.84,3.17A11.52,11.52,0,0,1,210.8,536.56Z"></path><path d="M192.55,540.84c.07-.35,2.79-1,3.79-1.48a49.13,49.13,0,0,1,5.74-2,35.71,35.71,0,0,1,9-1.61,6.17,6.17,0,0,1-3.21,2.13c-5.7.27-9.55,2.27-12.81,2.84A12.47,12.47,0,0,1,192.55,540.84Zm7.76-2.69h0"></path><path d="M197,534.4c0-.34,2.1-.92,2.84-1.32a30.86,30.86,0,0,1,4.34-1.72A21.17,21.17,0,0,1,211,530.1a4.09,4.09,0,0,1-2.34,2c-4.43,0-7.29,1.87-9.8,2.3A7.19,7.19,0,0,1,197,534.4Zm5.85-2.36h0"></path><path class="cls-5" d="M212.94,544.52c0,2.31-2.22,2.31-3.53,2.31-2.8,0-2.55-2.32-1.77-3.85.92-1.83,3.57-.83,4-.43S212.94,542.91,212.94,544.52Z"></path><path d="M212.92,544.52c-.17,0-.17-.82-.64-1.17a3.79,3.79,0,0,0-.46-.24l-.3-.16-.15-.12-.07,0a2.59,2.59,0,0,0-.8-.23,2.3,2.3,0,0,0-1.89.47,1.6,1.6,0,0,0-.2.34,5.1,5.1,0,0,0-.19.55,2.72,2.72,0,0,0-.13,1,1,1,0,0,0,.17.53.73.73,0,0,0,.42.27,3.21,3.21,0,0,0,.8.14l1,0a2.88,2.88,0,0,0,1.46-.28,1.84,1.84,0,0,0,.73-1.11,1.82,1.82,0,0,1,.44.89,1.85,1.85,0,0,1-.27,1.22,2.26,2.26,0,0,1-1.71,1.07,13.55,13.55,0,0,1-2-.25,3.1,3.1,0,0,1-1.85-1,2.45,2.45,0,0,1-.48-1.84,5.37,5.37,0,0,1,.4-1.6,2.49,2.49,0,0,1,1.06-1.3,2.93,2.93,0,0,1,1.54-.36,4.33,4.33,0,0,1,1.37.26,3.34,3.34,0,0,1,.63.31c.31.22.29.27.43.36a2.6,2.6,0,0,1,.53.43,1.35,1.35,0,0,1,.35.77A2.17,2.17,0,0,1,212.92,544.52Z"></path><path class="cls-5" d="M214.85,537.6c0,2.35-2.23,2.35-3.53,2.35-2.8,0-2.55-2.37-1.77-3.93.92-1.86,3.57-.84,4-.43S214.85,536,214.85,537.6Z"></path><path d="M214.83,537.6c-.17,0-.17-.83-.64-1.19a2.26,2.26,0,0,0-.45-.25,2.28,2.28,0,0,1-.3-.17c-.06,0-.11-.08-.16-.11l-.07,0a2.28,2.28,0,0,0-.8-.23,2.15,2.15,0,0,0-1.89.47,1.68,1.68,0,0,0-.2.35,3.69,3.69,0,0,0-.19.56,2.83,2.83,0,0,0-.13,1,1,1,0,0,0,.17.56.73.73,0,0,0,.41.27,2.85,2.85,0,0,0,.8.15l1,0a2.86,2.86,0,0,0,1.46-.3,1.87,1.87,0,0,0,.72-1.13,1.75,1.75,0,0,1,.45.89,1.87,1.87,0,0,1-.25,1.23,2.27,2.27,0,0,1-1.72,1.09,11.61,11.61,0,0,1-2.06-.25,3,3,0,0,1-1.86-1,2.59,2.59,0,0,1-.46-1.85,5.84,5.84,0,0,1,.39-1.61,2.55,2.55,0,0,1,1-1.32,2.89,2.89,0,0,1,1.55-.38,4.46,4.46,0,0,1,1.39.28,2.88,2.88,0,0,1,.63.32c.31.23.27.26.43.36a2.73,2.73,0,0,1,.53.44,1.33,1.33,0,0,1,.34.78A2.25,2.25,0,0,1,214.83,537.6Z"></path><path class="cls-5" d="M216.89,530.85c0,2.32-2.23,2.32-3.53,2.32-2.8,0-2.56-2.33-1.78-3.87.93-1.83,3.57-.82,4-.42S216.89,529.23,216.89,530.85Z"></path><path d="M216.87,530.85c-.18,0-.17-.82-.64-1.17a2.17,2.17,0,0,0-.46-.24,2.28,2.28,0,0,1-.3-.17c-.06,0-.11-.08-.16-.11l-.07,0a2,2,0,0,0-.8-.23,2.28,2.28,0,0,0-1.89.46,1.86,1.86,0,0,0-.19.34c-.08.19-.14.37-.2.55a3.3,3.3,0,0,0-.13,1,1.07,1.07,0,0,0,.17.54.78.78,0,0,0,.42.26,2.88,2.88,0,0,0,.8.14c.36,0,.69,0,1,0a3,3,0,0,0,1.45-.29,1.84,1.84,0,0,0,.73-1.11,1.67,1.67,0,0,1,.44.88,1.8,1.8,0,0,1-.26,1.23,2.28,2.28,0,0,1-1.71,1.07,13.55,13.55,0,0,1-2-.25,3,3,0,0,1-1.85-.95,2.53,2.53,0,0,1-.49-1.85,5.31,5.31,0,0,1,.41-1.59,2.44,2.44,0,0,1,1.05-1.31,2.93,2.93,0,0,1,1.54-.36,4.08,4.08,0,0,1,1.38.27,3.33,3.33,0,0,1,.63.31c.3.22.28.26.42.35a2.81,2.81,0,0,1,.54.44,1.42,1.42,0,0,1,.35.77A2.32,2.32,0,0,1,216.87,530.85Z"></path><path class="cls-5" d="M194.39,542.05c0,2.11-2.22,2.11-3.52,2.11-2.8,0-2.56-2.12-1.78-3.52.93-1.67,3.57-.76,4-.39S194.39,540.57,194.39,542.05Z"></path><path d="M194.38,542.05c-.17,0-.19-.79-.67-1.06a3,3,0,0,0-.47-.22c-.18-.06-.45-.28-.51-.28a2.32,2.32,0,0,0-.79-.19,2.65,2.65,0,0,0-1.88.44,1.57,1.57,0,0,0-.2.3,3.56,3.56,0,0,0-.19.49,2.29,2.29,0,0,0-.13.92.65.65,0,0,0,.16.4.92.92,0,0,0,.44.24,4.46,4.46,0,0,0,.82.12c.35,0,.66,0,1,0,1.22,0,1.91-.21,2.19-1.2a1.49,1.49,0,0,1,.42.86,1.73,1.73,0,0,1-.33,1.19,2.27,2.27,0,0,1-1.67.95,16.82,16.82,0,0,1-1.94-.27,3.49,3.49,0,0,1-1.82-.81,2.19,2.19,0,0,1-.57-1.78,4.67,4.67,0,0,1,.43-1.54,2.36,2.36,0,0,1,1.11-1.2,3.18,3.18,0,0,1,1.47-.3,4.35,4.35,0,0,1,1.32.23,3.25,3.25,0,0,1,.61.27l.16.1.15.12a.81.81,0,0,0,.13.11,3.82,3.82,0,0,1,.51.38,1.37,1.37,0,0,1,.4.72A1.93,1.93,0,0,1,194.38,542.05Z"></path><path class="cls-5" d="M197.58,534.54c0,2-2.22,2-3.52,2-2.8,0-2.56-2-1.78-3.34.93-1.59,3.57-.72,4-.37S197.58,533.14,197.58,534.54Z"></path><path d="M197.57,534.54c-.17,0-.19-.77-.68-1-.13-.07-.29-.12-.48-.2s-.43-.25-.49-.26a2.56,2.56,0,0,0-.79-.17,2.86,2.86,0,0,0-1.88.43,1,1,0,0,0-.2.28,3.21,3.21,0,0,0-.19.45,1.91,1.91,0,0,0-.13.86.47.47,0,0,0,.16.34,1.08,1.08,0,0,0,.46.22,4.53,4.53,0,0,0,.82.11l.94,0c1.21,0,1.91-.15,2.19-1.09a1.37,1.37,0,0,1,.41.85,1.66,1.66,0,0,1-.37,1.16,2.22,2.22,0,0,1-1.64.88,16.7,16.7,0,0,1-1.9-.27,3.66,3.66,0,0,1-1.78-.74,2,2,0,0,1-.63-1.73,4.22,4.22,0,0,1,.45-1.52A2.3,2.3,0,0,1,193,532a3.24,3.24,0,0,1,1.43-.27,4.47,4.47,0,0,1,1.29.21,3.66,3.66,0,0,1,.59.24l.16.09.17.13a.81.81,0,0,0,.13.11,3.73,3.73,0,0,1,.49.35,1.33,1.33,0,0,1,.43.69A1.81,1.81,0,0,1,197.57,534.54Z"></path></g><g id="pants_red" transform="matrix(-1, 0, 0, 1, 380, 0)"><path class="cls-2" d="M142.35,520.6c15.3,8.15,30.88,6.49,40.83-7.73,2.31,4.3,2.65,9.41,2.2,14.28a25.21,25.21,0,0,1-3.73,11.93c-2.07,3.06-5.24,7.64-8.19,9.86-8.58,6.48-16.09,8.46-25.67,8.15-5.22-.17-13.24-1.5-15.81-7.19-3-6.62-.07-12.13,4.05-17.92,2.61-3.68,5.41-5.64,5.13-10.14a3.32,3.32,0,0,1,.16-2c.35-.56,1.47-.56,1.5.11"></path><path d="M142.77,520a.55.55,0,0,0-.32-.23.82.82,0,0,0-.67.17,1.13,1.13,0,0,0-.2,1,17.17,17.17,0,0,1,.19,1.81,9.28,9.28,0,0,1-.25,2.27,9.45,9.45,0,0,1-1,2.36,51.92,51.92,0,0,1-3.15,4.38c-2.07,3-4.24,6.34-5,9.62a11.42,11.42,0,0,0-.2,4.58,11.94,11.94,0,0,0,1.23,3.49c1.68,3.05,5.57,4.51,9.55,5.1a35.53,35.53,0,0,0,6.23.33,42.78,42.78,0,0,0,6.32-.56,32.52,32.52,0,0,0,11.6-4.33c.89-.54,1.77-1.1,2.63-1.71.43-.29.85-.61,1.27-.92s.86-.64,1.15-.9A28.61,28.61,0,0,0,176,542c1.07-1.44,2.09-2.94,3.11-4.48a16.75,16.75,0,0,0,2-4.29,33.91,33.91,0,0,0,1.4-9.93c0-.83,0-1.65-.11-2.45,0-.4-.09-.8-.15-1.19s-.16-.95-.12-.81a.64.64,0,0,0,0-.26l-.08,0-.07,0-.05,0,0,0h0l-.1.11a21.88,21.88,0,0,1-2.07,1.9l-1.07.91-1.14.8a28,28,0,0,1-9.83,4.41,28.4,28.4,0,0,1-10,.43,16.25,16.25,0,0,1-2.32-.37c-.75-.16-1.5-.3-2.23-.5a38.85,38.85,0,0,1-4.15-1.41,44.08,44.08,0,0,1-7.1-3.65c1.15.2,2.37.52,3.69.78s2.7.56,4.15.72,2.91.32,4.37.46l2.21,0c.73,0,1.45-.06,2.16-.08a31.49,31.49,0,0,0,7.67-1.41,14.75,14.75,0,0,0,1.55-.56c.49-.2,1-.31,1.39-.53.84-.42,1.62-.67,2.22-1a24.3,24.3,0,0,0,6.76-4.49l1.25-1.27c.43-.5.87-1.06,1.27-1.5l2.23-2.18.54-.53c.17-.12.38-.57.48-.1l.73,1.57c.46,1,.89,2,1.27,3,.2.5.33,1.08.5,1.6s.26,1.12.38,1.67l.1.67c0,.19.06.38.08.57,0,.37.09.75.11,1.12a34.28,34.28,0,0,1,.05,4.41,41.19,41.19,0,0,1-1.3,8.4,25.61,25.61,0,0,1-1.42,4,22.17,22.17,0,0,1-2.11,3.58c-1.5,2.14-3,4.25-4.71,6.22a27.83,27.83,0,0,1-2.75,2.79c-.53.45-1,.82-1.54,1.18s-1,.74-1.54,1.08a42.83,42.83,0,0,1-6.43,3.66,37.39,37.39,0,0,1-13.74,3.24,35.93,35.93,0,0,1-13.24-1.43,15,15,0,0,1-5.81-3.49,10.68,10.68,0,0,1-2-2.87c-.23-.51-.42-1-.62-1.51s-.34-1-.45-1.57a14,14,0,0,1,.05-6.37,20.1,20.1,0,0,1,2.29-5.46,35.3,35.3,0,0,1,3.48-4.91c1.39-1.71,3-3.16,4.12-4.72a8,8,0,0,0,1.43-4.89,3,3,0,0,1,.2-1.16,1.07,1.07,0,0,1,1.53-.56A.48.48,0,0,1,142.77,520Z"></path><path class="cls-3" d="M131.86,543.42c5.12,2.76,11.19,3.36,17,2.73s11.36-2.42,16.9-4.19a11.63,11.63,0,0,0,2.86-1.2A11.78,11.78,0,0,0,171.3,538l12.44-16.1-1.18,10.23a25.51,25.51,0,0,1-1.54,7.19,18.94,18.94,0,0,1-3.49,5.16c-10.55,11.67-29.31,14.89-43.15,7.4a9.36,9.36,0,0,1-4-3.41c-.85-1.56-.76-3.76.64-4.84"></path><path d="M131.07,543.62a7.3,7.3,0,0,0-.62,1.09,4,4,0,0,0-.08,2.52,5.48,5.48,0,0,0,2.11,2.8,19.22,19.22,0,0,0,3.91,2.11,32.46,32.46,0,0,0,16.93,2.64A37.09,37.09,0,0,0,173,546.46c2.73-2.4,5.42-5.22,6.53-8.31a22.37,22.37,0,0,0,1-5.16l.3-2.8.14-1.39v-.07c0-.05,0-.05,0,0l0,.07h0l-1,1.35L174.53,537l-1.33,1.68c-.44.55-.87,1.13-1.4,1.73a10.56,10.56,0,0,1-1.88,1.74,9.56,9.56,0,0,1-2.31,1.15c-.75.26-1.4.45-2.06.65l-2,.58c-1.32.39-2.63.76-3.93,1.1a50.81,50.81,0,0,1-15.32,2,26.53,26.53,0,0,1-12.74-3.69,32.44,32.44,0,0,0,6.7,1.23,38.08,38.08,0,0,0,7.61-.22A114.07,114.07,0,0,0,158,542.29c1.5-.33,3-.7,4.48-1.08l2.22-.59c.74-.21,1.46-.39,2.07-.6a5.33,5.33,0,0,0,1.59-.83,10.81,10.81,0,0,0,1.41-1.39l2.8-3.38,5.41-6.63L184.9,519q-.75,6.21-1.46,12.14c-.36,3-.6,6.07-1.9,8.89a24.64,24.64,0,0,1-5.32,6.93c-.51.49-1.06.93-1.58,1.39l-.8.68c-.27.22-.56.41-.84.62l-1.67,1.2-1.75,1.05a36.85,36.85,0,0,1-28.53,3.64,28.56,28.56,0,0,1-4.81-1.88c-.81-.45-1.65-.89-2.46-1.37a13.67,13.67,0,0,1-2.26-1.73,6.69,6.69,0,0,1-1.54-2.22,4.78,4.78,0,0,1-.31-2.3A3.29,3.29,0,0,1,131.07,543.62Z"></path><path class="cls-4" d="M150.93,557.22c-7.08.17-16.38-1.33-19.5-8.69-1.6-3.78-.73-8.87,1.13-12.49a19.59,19.59,0,0,0,.42,5.12,1.28,1.28,0,0,0,.4.79,1.21,1.21,0,0,0,.82.1,15.88,15.88,0,0,1,2.84-.17c3.26.19,6.1,2.31,8.72,4.34.34.26,9.11,8.61,21.2,4.35,2.61-.92,5.43-.91,6.67-3.45s1.55-5.52,3-8c.84-1.45,3-2.61,3.94-1.2.66,1-.08,2.32-.79,3.28-3.48,4.66-7.15,9.49-12.34,12a34.16,34.16,0,0,1-5.67,1.94A44.56,44.56,0,0,1,150.93,557.22Z"></path><path d="M150.93,557.19c.27-.18,1.72-.31,3.8-.76s4.8-1.24,7.72-2.13a31.13,31.13,0,0,0,4.3-1.57,19.34,19.34,0,0,0,3.75-2.36,30.18,30.18,0,0,0,5.08-5.38c1-1.34,2-2.75,3-4.19a8.77,8.77,0,0,0,.63-1,2.58,2.58,0,0,0,.29-.83c0-.22,0-.25-.07-.3s0,0,0,0,0,0,0,0h0s0,0,0,0,0,.08,0,.06,0,0,0,0a2.29,2.29,0,0,0-1.22.82,2.36,2.36,0,0,0-.24.34l-.25.5a11.58,11.58,0,0,0-.46,1.13c-.56,1.57-.9,3.39-1.61,5.29-.1.24-.18.47-.29.71l-.16.36-.23.42a5.47,5.47,0,0,1-1.22,1.49,8.19,8.19,0,0,1-3.07,1.58c-1,.3-1.85.5-2.63.76-.34.13-.84.28-1.31.42l-1.43.44a22,22,0,0,1-11.65-.24,24.46,24.46,0,0,1-6-2.65,23.22,23.22,0,0,1-2.65-1.89l-.52-.44-.58-.44-1.15-.85a14.55,14.55,0,0,0-4.52-2.38,7.36,7.36,0,0,0-2.26-.22c-.41,0-.85.07-1.32.12a4.31,4.31,0,0,1-1.21,0,2.87,2.87,0,0,1-.81-.25h0a.82.82,0,0,0,0-.14,2.57,2.57,0,0,1,0-.28s-.06,0-.09,0a.74.74,0,0,0-.17.37l0,.14v.41c0,.34,0,.67,0,1a10.51,10.51,0,0,0,.32,1.89,10.62,10.62,0,0,0,4.48,5.86,20.9,20.9,0,0,0,6.89,2.76,41.89,41.89,0,0,0,6.89.87,25.73,25.73,0,0,1-6.46.76,20.49,20.49,0,0,1-7.68-1.43,13.39,13.39,0,0,1-6.16-4.89,11.87,11.87,0,0,1-1.48-3.08,10,10,0,0,1-.43-2.59c0-.33,0-.67,0-1l0-.49c0-.16,0-.5.06-.73a11.37,11.37,0,0,1,.19-1.54l.13-.76.17-.7a19.27,19.27,0,0,1,1.66-4.37,6.38,6.38,0,0,0,1,0c.13,0,.27,0,.39-.06l.18,0,.09,0v0a2.05,2.05,0,0,0,.11,1,2.56,2.56,0,0,0,.38.66,2.91,2.91,0,0,0,.35.39,2.57,2.57,0,0,0,.63.45,8.58,8.58,0,0,0,.14,1.89c0,.06,0,.08,0,.18l-.18.54-.24.51v0l0,0a2.54,2.54,0,0,0,.06-.37c0-.14,0-.06,0-.08H134l.37,0c.51,0,1-.08,1.59-.09a9.92,9.92,0,0,1,3.3.47,18,18,0,0,1,5.4,3l1.15.9c.37.28.8.66,1.12.94a20.32,20.32,0,0,0,2.2,1.61,22.36,22.36,0,0,0,4.81,2.31,19.06,19.06,0,0,0,10.1.56,23.91,23.91,0,0,0,2.38-.66c.8-.27,1.68-.54,2.47-.74,1.61-.41,3.05-.91,3.72-2,.09-.13.16-.28.24-.42l.23-.52c.14-.35.28-.71.4-1.07.24-.73.45-1.49.67-2.25a17,17,0,0,1,1.85-4.62,5.08,5.08,0,0,1,2.22-1.75,2.93,2.93,0,0,1,1.67-.18,2.41,2.41,0,0,1,1.55,1.1,2.65,2.65,0,0,1,.39,1.72,4.27,4.27,0,0,1-.42,1.4,11.74,11.74,0,0,1-1.3,2,59.47,59.47,0,0,1-5.44,6.6A23,23,0,0,1,168,554a23.23,23.23,0,0,1-4.71,1.55c-1.7.39-3.45.78-5.13,1.08A30.22,30.22,0,0,1,150.93,557.19Z"></path><path class="cls-3" d="M152.15,540.17c-1-1.32-2-3.1-1.15-4.5a4.66,4.66,0,0,1,1.65-1.32,15.82,15.82,0,0,0,6.83-8.8,1.34,1.34,0,0,1,.35-.69c.71-.59,1.93.6,2.62,0a6.64,6.64,0,0,0-3.4-6.26,13.3,13.3,0,0,0-7.28-1.53c-1.55,0-3.38.41-4,1.83a5,5,0,0,0-.3,1.54,27.18,27.18,0,0,1-3.79,11.36c-1.15,1.88-2.76,3.76-4.94,4,.52,1.76,2.6,2.47,4.39,2.88q3.87.87,7.8,1.49a1.88,1.88,0,0,0,1.13-.05.67.67,0,0,0,.3-1"></path><path d="M152.37,539.18c.11,0,.41.31.2.8a1,1,0,0,1-.65.57,2.64,2.64,0,0,1-1,.07c-1.22-.13-2.82-.38-4.54-.65l-2.64-.42c-.44-.07-.88-.13-1.33-.24l-.67-.16c-.21-.06-.43-.13-.73-.24a5.67,5.67,0,0,1-2.6-1.75,5.89,5.89,0,0,1-.64-1.14c-.29-.53,0-.4,0-.67a1.34,1.34,0,0,0,0-.45,7.31,7.31,0,0,0,2.48-.92,6.34,6.34,0,0,0,.88-.93,13.18,13.18,0,0,0,1.43-2.28,28.3,28.3,0,0,0,2.11-5.33c.25-.92.46-1.86.62-2.8.08-.47.15-.95.2-1.42s.08-.89.14-1.49a5.43,5.43,0,0,1,.19-1.06,4.09,4.09,0,0,1,.56-1.2,4.65,4.65,0,0,1,1.89-1.58,9.23,9.23,0,0,1,3.66-.76,14.27,14.27,0,0,1,8.36,1.94,9.34,9.34,0,0,1,3.12,3.4,7.51,7.51,0,0,1,.86,4.65l-.11.74-.54.45a2.65,2.65,0,0,1-1.31.6,3.26,3.26,0,0,1-1,0c-.33-.07-.2,0-.24-.06l0,0s-.08,0-.11,0l0,.05h0l0,.08-.16.38a14.89,14.89,0,0,1-.74,1.5,16.43,16.43,0,0,1-4.08,4.87,15.42,15.42,0,0,1-2.46,1.63,4.87,4.87,0,0,0-1.65,1,1.82,1.82,0,0,0-.09,1.57,9.08,9.08,0,0,0,.87,1.91,6.89,6.89,0,0,1-1.4-1.06,3.82,3.82,0,0,1-1.1-1.84,2.74,2.74,0,0,1,0-1.36,3.08,3.08,0,0,1,.72-1.27,9,9,0,0,1,.91-.87c.28-.24.49-.46.74-.68a32.2,32.2,0,0,0,3.79-4.83,13.42,13.42,0,0,0,.91-1.36c.14-.23.27-.49.39-.74l.1-.2.16-.38.3-.74a2.28,2.28,0,0,1,2.36-1.25,6.6,6.6,0,0,1,1.38.38l.06,0a2.49,2.49,0,0,0,0,.47c0,.27.07.21,0,.17l-.84.38a4.9,4.9,0,0,0-1.35-4.24,7.94,7.94,0,0,0-4.25-2.28,13.67,13.67,0,0,0-2.47-.3,12.7,12.7,0,0,0-2.41.08,3.36,3.36,0,0,0-1.84.79,2.41,2.41,0,0,0-.57,1.77,29.1,29.1,0,0,1-2.35,9.18,23.11,23.11,0,0,1-2.17,3.93,10.57,10.57,0,0,1-1.51,1.71c-.15.13-.29.26-.45.38l-.19.13a2.82,2.82,0,0,1-.38.21,1.9,1.9,0,0,1-.39.11c-.11,0-.06.06,0,.13l.09.18a1.73,1.73,0,0,0,.57.54l.34.19c.13,0,.19.09.49.19a12.13,12.13,0,0,0,1.55.43c1.54.33,3.62,1,5.44,1.54l1.31.42a4.51,4.51,0,0,0,1.1.29.72.72,0,0,0,.7-.32A.52.52,0,0,0,152.37,539.18Z"></path><path d="M139.59,526.56c-.19.25-.24.2-.37.33a.9.9,0,0,1-.4.28c-.15.06-.06-.2.22-.68a6.92,6.92,0,0,1,.82-1c-.58,1,.08.31,0,.58C139.84,526.14,139.64,526.48,139.59,526.56ZM139,527h0"></path><path d="M153.6,535.59c-.2.28-2.18-.38-3-.51a23.93,23.93,0,0,1-4.36-1.21,25,25,0,0,1-6-3,3.68,3.68,0,0,1,3-.3c3.47,2.57,6.66,2.93,8.86,4A7.36,7.36,0,0,1,153.6,535.59Z"></path><path d="M153.59,535.58c-.34.11-1.63-1.78-2.25-2.4-1.12-1.1-2.16-2.5-3.17-3.67-1.79-2-3.32-4.15-4.92-4.1a1.68,1.68,0,0,1,1.65-.94,2.29,2.29,0,0,1,1.56.52c.85,1,1.45,1.88,2,2.7s1.16,1.57,1.7,2.27a31,31,0,0,1,2.7,3.74A9.87,9.87,0,0,1,153.59,535.58Z"></path><path d="M159,530.42c-.33.07-2-2-2.76-2.7-1.4-1.18-2.81-2.67-4.16-3.92-1.19-1.08-2.33-2.16-3.41-3s-2.09-1.56-3-1.52c.2-.56,1.15-.9,1.94-.84a3.08,3.08,0,0,1,1.73.57c1,1,1.89,2,2.71,2.83s1.59,1.66,2.32,2.4a32.52,32.52,0,0,1,3.64,4.08A10.25,10.25,0,0,1,159,530.42Z"></path><path d="M140.33,530.61c.1-.33,2.43-.56,3.31-.83a34.3,34.3,0,0,1,5-1,25.25,25.25,0,0,1,7.63-.11,4.65,4.65,0,0,1-2.91,1.57c-4.76-.68-8.19.66-11,.68A8.81,8.81,0,0,1,140.33,530.61Zm6.75-1.37h0"></path><path d="M144.82,524.87c.12-.32,2.55-.44,3.47-.67a37.77,37.77,0,0,1,5.24-.74,27.37,27.37,0,0,1,7.92.26,4.91,4.91,0,0,1-3.1,1.43c-4.91-.92-8.53.25-11.41.13A9.19,9.19,0,0,1,144.82,524.87Zm7.07-1h0"></path><path class="cls-5" d="M157.58,537.92c-.61,2.22-2.75,1.64-4,1.3-2.7-.74-1.85-2.91-.7-4.19,1.37-1.52,3.66.14,4,.64S158,536.36,157.58,537.92Z"></path><path d="M157.57,537.91c-.16-.08,0-.84-.32-1.29a2.7,2.7,0,0,0-.38-.36l-.25-.24s-.07-.1-.11-.15l-.06,0a2.73,2.73,0,0,0-2.66-.48,1.77,1.77,0,0,0-.28.27q-.18.24-.33.48a3.18,3.18,0,0,0-.39.95,1,1,0,0,0,0,.57.8.8,0,0,0,.34.36,2.84,2.84,0,0,0,.74.35l.94.29a3,3,0,0,0,1.48.11,1.83,1.83,0,0,0,1-.88,1.73,1.73,0,0,1,.19,1,1.81,1.81,0,0,1-.58,1.11,2.22,2.22,0,0,1-1.92.58,12.65,12.65,0,0,1-1.91-.77,3.1,3.1,0,0,1-1.53-1.4,2.47,2.47,0,0,1,0-1.91,5.43,5.43,0,0,1,.81-1.44,2.54,2.54,0,0,1,1.36-1,3,3,0,0,1,1.58.06,4.23,4.23,0,0,1,1.26.62,3.2,3.2,0,0,1,.52.47,5,5,0,0,1,.32.45,2.37,2.37,0,0,1,.4.55,1.41,1.41,0,0,1,.14.84A2.49,2.49,0,0,1,157.57,537.91Z"></path><path class="cls-5" d="M161.24,531.73c-.62,2.28-2.76,1.69-4,1.35-2.7-.74-1.84-3-.68-4.26,1.38-1.55,3.66.13,4,.64S161.67,530.15,161.24,531.73Z"></path><path d="M161.23,531.73c-.17-.08.05-.84-.31-1.31a2.57,2.57,0,0,0-.37-.37,1.39,1.39,0,0,1-.25-.24s-.08-.1-.12-.15l-.06-.06a2.41,2.41,0,0,0-.71-.44,2.25,2.25,0,0,0-1.95,0,1.94,1.94,0,0,0-.28.29,5.25,5.25,0,0,0-.33.49,2.9,2.9,0,0,0-.4,1,1,1,0,0,0,0,.58.72.72,0,0,0,.32.38,3.21,3.21,0,0,0,.74.35l.95.29a2.92,2.92,0,0,0,1.49.1,2,2,0,0,0,1-.91,1.73,1.73,0,0,1,.19,1,1.85,1.85,0,0,1-.56,1.13,2.27,2.27,0,0,1-1.95.6,12.18,12.18,0,0,1-1.92-.78,3,3,0,0,1-1.53-1.43,2.56,2.56,0,0,1,0-1.91,5.5,5.5,0,0,1,.81-1.45,2.46,2.46,0,0,1,1.35-1,2.88,2.88,0,0,1,1.6,0,4.57,4.57,0,0,1,1.27.63,3.29,3.29,0,0,1,.52.48c.24.3.2.32.32.46a2.47,2.47,0,0,1,.4.56,1.34,1.34,0,0,1,.12.84A2.48,2.48,0,0,1,161.23,531.73Z"></path><path class="cls-5" d="M165,525.76c-.61,2.23-2.76,1.65-4,1.31-2.71-.74-1.86-2.92-.7-4.2,1.37-1.52,3.66.14,4,.64S165.4,524.2,165,525.76Z"></path><path d="M165,525.75c-.16-.08,0-.83-.31-1.29a2.7,2.7,0,0,0-.38-.36,2.77,2.77,0,0,1-.25-.24s-.08-.1-.12-.15l-.05-.06a2.63,2.63,0,0,0-.72-.43,2.26,2.26,0,0,0-1.94,0,1.77,1.77,0,0,0-.28.27q-.18.24-.33.48a2.9,2.9,0,0,0-.39,1,1,1,0,0,0,0,.56.78.78,0,0,0,.33.37,2.85,2.85,0,0,0,.74.34c.34.12.65.22.95.3a3,3,0,0,0,1.48.11,1.87,1.87,0,0,0,1-.89,1.74,1.74,0,0,1,.2,1,1.85,1.85,0,0,1-.58,1.12,2.26,2.26,0,0,1-1.93.58,13.08,13.08,0,0,1-1.91-.78,3.06,3.06,0,0,1-1.53-1.4,2.51,2.51,0,0,1,0-1.91,5.2,5.2,0,0,1,.8-1.43,2.53,2.53,0,0,1,1.37-1,3,3,0,0,1,1.58.06,4.36,4.36,0,0,1,1.26.62,3.2,3.2,0,0,1,.52.47c.24.29.21.32.32.45a2.55,2.55,0,0,1,.4.56,1.37,1.37,0,0,1,.14.83A2.15,2.15,0,0,1,165,525.75Z"></path><path class="cls-5" d="M141.33,531.66c-.55,2-2.7,1.46-4,1.12-2.71-.74-1.91-2.73-.79-3.87,1.33-1.37,3.64.21,3.95.67S141.72,530.24,141.33,531.66Z"></path><path d="M141.32,531.66c-.16-.08,0-.81-.37-1.2a2.3,2.3,0,0,0-.39-.33c-.16-.11-.37-.39-.42-.41a2.95,2.95,0,0,0-2.64-.45.85.85,0,0,0-.27.23,3.56,3.56,0,0,0-.32.42,2.29,2.29,0,0,0-.36.85.62.62,0,0,0,0,.44.91.91,0,0,0,.36.34,3.39,3.39,0,0,0,.76.33l.91.29c1.18.34,1.9.3,2.43-.58a1.42,1.42,0,0,1,.18.94,1.67,1.67,0,0,1-.64,1.06,2.21,2.21,0,0,1-1.85.47,15.41,15.41,0,0,1-1.81-.76,3.39,3.39,0,0,1-1.53-1.26,2.15,2.15,0,0,1-.09-1.86,4.47,4.47,0,0,1,.82-1.38,2.38,2.38,0,0,1,1.39-.87,3.24,3.24,0,0,1,1.5.1,4.35,4.35,0,0,1,1.21.57,3.27,3.27,0,0,1,.51.41,1,1,0,0,1,.13.15l.11.15a.94.94,0,0,0,.1.14,3.23,3.23,0,0,1,.39.5,1.31,1.31,0,0,1,.2.8A2,2,0,0,1,141.32,531.66Z"></path><path class="cls-5" d="M146.38,525.25c-.52,1.94-2.67,1.35-3.93,1-2.7-.73-1.93-2.62-.83-3.69,1.31-1.29,3.63.24,3.94.69S146.75,523.9,146.38,525.25Z"></path><path d="M146.37,525.25c-.16-.09,0-.79-.39-1.15-.11-.1-.25-.2-.41-.32s-.35-.36-.41-.38a2.31,2.31,0,0,0-.71-.37,2.83,2.83,0,0,0-1.93-.08.92.92,0,0,0-.26.21,3.32,3.32,0,0,0-.31.39,1.93,1.93,0,0,0-.35.8.51.51,0,0,0,.06.36,1.05,1.05,0,0,0,.39.34,4.57,4.57,0,0,0,.76.32l.9.29c1.17.33,1.88.35,2.4-.48a1.32,1.32,0,0,1,.17.93,1.68,1.68,0,0,1-.66,1,2.24,2.24,0,0,1-1.81.42,15.48,15.48,0,0,1-1.76-.76,3.65,3.65,0,0,1-1.53-1.18,2,2,0,0,1-.15-1.84,4.16,4.16,0,0,1,.83-1.35,2.32,2.32,0,0,1,1.4-.8,3.31,3.31,0,0,1,1.45.12,4.61,4.61,0,0,1,1.19.54,3.64,3.64,0,0,1,.51.39l.12.13.13.16a.53.53,0,0,0,.1.14,3.26,3.26,0,0,1,.38.47,1.33,1.33,0,0,1,.24.78A1.74,1.74,0,0,1,146.37,525.25Z"></path><path class="cls-4" d="M125.09,465.67c5.8,23.75,5.41,37.83,3.55,43.35-1.14,6.48,12.86,12.48,25.86,12.48,19,0,29.69-5.54,35.54-11.2,0-.55.05-1.09.08-1.65.41-2.34.38-11.37.38-14.15"></path><path d="M190.55,494.5c.45.52.76,5.48.73,11.28,0,.73,0,1.46-.09,2.24q0,.28-.06.6c0,.11,0,.25,0,.45l0,1.47c.07.29-.2.4-.35.58l-.52.49-.51.49c-.18.17-.3.26-.45.39a22,22,0,0,1-1.7,1.42,45.92,45.92,0,0,1-6.23,4c-5.84,3.25-12.9,5-20,5.79-1.77.15-3.56.31-5.34.36a43.16,43.16,0,0,1-5.45,0,49.65,49.65,0,0,1-10.59-1.86,32.59,32.59,0,0,1-8.67-3.86,15.49,15.49,0,0,1-3.91-3.57,8.13,8.13,0,0,1-1.62-6.38l.34-1.13c.07-.28.13-.59.2-.88.14-.58.23-1.22.33-1.83.17-1.27.3-2.55.36-3.85.15-2.59.14-5.19,0-7.74-.36-10.22-1.8-19.55-2.74-27.06a54.45,54.45,0,0,1,5.64,12.19,42,42,0,0,1,2.41,11.44,98.68,98.68,0,0,1-.75,14.08c-.1.57-.19,1.14-.28,1.71l-.36,1.7c-.16.57-.27,1.12-.48,1.69l-.14.43a2.15,2.15,0,0,1-.09.23,2.58,2.58,0,0,0-.06.46c-.12,1.36,1.07,3,2.5,4.16a21.24,21.24,0,0,0,4.93,3,36.47,36.47,0,0,0,5.43,1.9,43.25,43.25,0,0,0,10.9,1.43,84.7,84.7,0,0,0,10.39-.73,61.49,61.49,0,0,0,9.42-2.08,46.39,46.39,0,0,0,8.22-3.39c.63-.32,1.23-.7,1.84-1s1.18-.73,1.74-1.12,1.12-.78,1.64-1.2l.75-.59.47-.38c.05-.06.19-.11.18-.2l0-.26c0-.29.08-.59.11-.91.16-.72.25-1.44.36-2.25.2-1.6.41-3.27.61-4.84C190.05,498.13,190.41,495.4,190.55,494.5Z"></path></g><g data-name="default" id="default-7" transform="matrix(-1, 0, 0, 1, 380, 0)"><ellipse class="cls-6 color-body" cx="182.67" cy="463" rx="57.58" ry="25.42" style="fill:#ffffff;--backup-fill:#ffffff"></ellipse><path d="M240.21,463c-.11-.27-.14-1.13-.47-2.38a14.66,14.66,0,0,0-2.18-4.59c-2.34-3.47-6.91-6.87-12.27-9.44A75.78,75.78,0,0,0,208,441a102.62,102.62,0,0,0-14.76-2,135.56,135.56,0,0,0-20.59.35,109.46,109.46,0,0,0-20.92,3.9,69.4,69.4,0,0,0-10,3.74,40.87,40.87,0,0,0-8.83,5.47,16.73,16.73,0,0,0-5.58,7.74,10.27,10.27,0,0,0,1.43,8.55,22.32,22.32,0,0,0,5.86,5.89,45.26,45.26,0,0,0,7.54,4.25,80.74,80.74,0,0,0,16.64,5.22,127.57,127.57,0,0,0,33.62,2.16c10.8-.72,21-2.71,29.87-6.26a41.64,41.64,0,0,0,11.67-6.8,19,19,0,0,0,4-4.71,12,12,0,0,0,1.66-5.51,11.23,11.23,0,0,1-.85,5.66,18.88,18.88,0,0,1-3.8,5.7,40.87,40.87,0,0,1-12.39,8.47,76.89,76.89,0,0,1-23.56,6.51,130.92,130.92,0,0,1-14.72.63,135.53,135.53,0,0,1-14.23-.89,101.62,101.62,0,0,1-26.39-6.39,49.66,49.66,0,0,1-11.4-6.33,26.36,26.36,0,0,1-4.64-4.5,15.8,15.8,0,0,1-3-5.73,12.15,12.15,0,0,1,0-6.39,15.67,15.67,0,0,1,2.88-5.54,31.18,31.18,0,0,1,9.21-7.53A62.38,62.38,0,0,1,147.32,442,90.12,90.12,0,0,1,158,439.08a119.85,119.85,0,0,1,20.79-2.5,124.14,124.14,0,0,1,19.55.83,96.11,96.11,0,0,1,17.87,3.85c5.33,1.68,12.5,4.81,17.61,9.32a26.65,26.65,0,0,1,3.33,3.53,18.63,18.63,0,0,1,2.13,3.64A12.54,12.54,0,0,1,240.21,463Z"></path><path class="cls-6 color-body" d="M125.09,463.37c9,37.25,43.74,56,63.79,54.5,18.52-1.37,41.24-8.94,48.76-28.75,2.67-7.06,3.18-15.46,2-25.75" style="fill:#ffffff;--backup-fill:#ffffff"></path><path d="M239.67,463.37a23.21,23.21,0,0,1,.81,4.95,59.62,59.62,0,0,1,.11,10.41,38.73,38.73,0,0,1-2.71,11.78c-.39.89-.76,1.77-1.13,2.62s-.88,1.58-1.29,2.32c-.2.37-.4.74-.6,1.08l-.66,1L233,499.21a41.7,41.7,0,0,1-10,9.53,57.56,57.56,0,0,1-12.84,6.49,77.87,77.87,0,0,1-14,3.62l-3.55.52-3.54.36a37,37,0,0,1-7.23-.17,51.72,51.72,0,0,1-11.9-2.88,67.53,67.53,0,0,1-10.84-5.08,73.4,73.4,0,0,1-17.68-14.38,74.2,74.2,0,0,1-6.54-8.41,79,79,0,0,1-4.92-8.7,69.86,69.86,0,0,1-5.4-16.61,122.54,122.54,0,0,0,8.06,15.84c1.64,2.69,3.43,5.16,5,7.3.8,1.05,1.54,2,2.21,2.87s1.25,1.61,1.71,2.22a68.27,68.27,0,0,0,27.68,21.58,48.86,48.86,0,0,0,15.64,3.82c.65,0,1.3,0,1.94,0s1.28,0,1.92-.07c1.28-.11,2.57-.23,3.83-.37s2.52-.33,3.75-.54,2.46-.43,3.66-.7c9.63-2,18.28-5.76,24.92-11.09a35.51,35.51,0,0,0,11.06-14.06,29.78,29.78,0,0,0,1.94-5.26,57.73,57.73,0,0,0,1.86-12.47C239.9,468.33,239.71,464.59,239.67,463.37Z"></path></g><g id="pants_tux" transform="matrix(-1, 0, 0, 1, 380, 0)"><path class="cls-4" d="M239.64,463.87s-22.14,22.63-64.39,20c-44.13-2.75-50.16-20-50.16-20,9,37.25,43.74,56,63.79,54.5,18.52-1.37,41.24-8.94,48.76-28.75C240.31,482.56,240.82,474.16,239.64,463.87Z"></path><path d="M239.67,463.87a44.27,44.27,0,0,1,1,8.52A45.61,45.61,0,0,1,238.14,490l-1,2.37c-.17.39-.33.8-.52,1.19l-.65,1.14c-.44.75-.85,1.53-1.32,2.27l-1.53,2.14a18.23,18.23,0,0,1-1.66,2c-.59.64-1.13,1.33-1.76,1.93a44.3,44.3,0,0,1-3.82,3.37,56.57,56.57,0,0,1-14.76,8.26A81.13,81.13,0,0,1,200,518.05a88.79,88.79,0,0,1-11.79,1.73c-8.3.45-16.47-1.91-24-5.35A76.08,76.08,0,0,1,129.4,481a77,77,0,0,1-6.25-16.62l3.82-1.13.15.31a3,3,0,0,0,.21.39,6.61,6.61,0,0,0,.52.82,14.2,14.2,0,0,0,1.23,1.6c.43.53,1,1,1.43,1.5s1.05.91,1.57,1.38,1.13.84,1.69,1.27a16.36,16.36,0,0,0,1.76,1.18l1.82,1.1c.63.35,1.27.65,1.91,1a73.35,73.35,0,0,0,16.13,5.51c2.78.55,5.52,1.18,8.31,1.51l4.14.6,4.14.39c1.37.11,2.73.3,4.09.34l4.05.15c2.68.18,5.34,0,8-.06l2-.06,1.94-.2,3.84-.39c1.28-.1,2.51-.39,3.76-.57s2.48-.39,3.7-.66l3.59-.84c.6-.15,1.2-.27,1.78-.43l1.74-.52,3.42-1,3.31-1.22a82.13,82.13,0,0,0,12.12-5.73,60.51,60.51,0,0,0,10-7,52.26,52.26,0,0,1-10.67,9.17,78.35,78.35,0,0,1-14.7,7.66l-3.9,1.42c-1.29.46-2.6.78-3.87,1.16a75.09,75.09,0,0,1-7.36,1.73c-.58.11-1.15.24-1.71.33l-1.65.22-3.08.37a39,39,0,0,1-5,.32c-1.55,0-3.09.07-4.63.06l-4.58-.24c-3.05-.07-6-.51-9-.8-1.48-.13-2.94-.37-4.4-.6l-4.34-.69-4.27-.91-2.12-.45-2.08-.58c-1.38-.41-2.78-.72-4.12-1.19l-4-1.4-3.89-1.65c-1.26-.6-2.49-1.28-3.73-1.9a40.37,40.37,0,0,1-6.75-4.79,18.26,18.26,0,0,1-1.49-1.43l-.71-.75-.65-.8a14,14,0,0,1-2.23-3.58l1.62-.48a71.17,71.17,0,0,0,18.86,33.9,73.29,73.29,0,0,0,14.35,11.25A64.53,64.53,0,0,0,175,515.73a46.76,46.76,0,0,0,8.15,1.54,36.19,36.19,0,0,0,8.06-.17,82.06,82.06,0,0,0,15.4-3.09c9.72-3,18.47-7.88,24.35-14.91a38.09,38.09,0,0,0,8.45-19.45A78.32,78.32,0,0,0,239.67,463.87Z"></path><g id="hero_belt"><path class="cls-4" d="M239.64,463.87s-22.14,22.63-60,20.44c-21.13-1.23-39.16-5.81-53.4-16.82A48.08,48.08,0,0,0,130.63,480c9.87,8.54,23.82,11.83,37.87,13.54,41,5,62-5,73-21A27.62,27.62,0,0,0,239.64,463.87Z"></path><path d="M239.66,463.86a13.25,13.25,0,0,1,.92,2.23,24.4,24.4,0,0,1,1.15,5c0,.26.06.53.06.81s.14.69-.16.93l-1,1.45c-.36.48-.71,1-1.1,1.49l-1.27,1.48a33.08,33.08,0,0,1-2.85,3c-1,1-2.18,1.9-3.3,2.87a52,52,0,0,1-16,8.39,87,87,0,0,1-14.44,3.25c-13.18,1.74-27.48.93-41.64-1.3a76.88,76.88,0,0,1-20.71-6.25,45.42,45.42,0,0,1-9.13-5.84l-.32-.26c-.12-.13-.36-.22-.42-.43l-.39-.79c-.2-.4-.39-.8-.57-1.21-.38-.8-.73-1.62-1.06-2.44s-.64-1.65-.93-2.48c-.15-.42-.27-.84-.41-1.26l-.21-.67c-.13-.4-.23-.8-.34-1.2a35.7,35.7,0,0,1-.87-4l-.33-1.9,0-.12s0-.13,0-.07l.21.13.41.28.82.54,3.31,2.19c.26.16.59.44.89.64l.67.43.91.6c1.2.82,2.48,1.5,3.72,2.25s2.55,1.38,3.86,2a84.32,84.32,0,0,0,16.21,5.74,127.26,127.26,0,0,0,16.63,2.89c2.76.29,5.51.54,8.23.69l4,.1,2,.06c.66,0,1.32-.06,2-.08a84.11,84.11,0,0,0,29.25-6.17,80.72,80.72,0,0,0,12.05-6.06,65.16,65.16,0,0,0,9.84-7.22c-4.51,5.22-12.91,11.5-21.86,15.46l-1.66.77c-.56.24-1.12.44-1.68.66l-3.31,1.28-3.25,1c-1.07.31-2.08.68-3.1.88-2,.44-3.9.91-5.59,1.18s-3.17.42-4.38.55-2.44.18-3.65.23l-3.62.13c-2.41,0-4.8-.15-7.16-.22q-7-.5-13.81-1.55a101.08,101.08,0,0,1-25.5-7.17,72.49,72.49,0,0,1-11.1-6.11c-.51-.35-.7-.45-.95-.65l-.75-.55c-.24-.18-.52-.4-.74-.53,0,.3.12.6.19.9l.23.89.3,1c.3,1,.61,1.89,1,2.81s.72,1.84,1.12,2.74l.61,1.33.32.66c.1.22.13.3.29.4a40.19,40.19,0,0,0,4.64,3.39A51,51,0,0,0,146.05,488a100.58,100.58,0,0,0,21.06,4.64A172.62,172.62,0,0,0,187.3,494a106.77,106.77,0,0,0,18.77-1.44,66.92,66.92,0,0,0,16.69-5.11,55.39,55.39,0,0,0,7.89-4.56,46.87,46.87,0,0,0,7.42-6.61c1.13-1.14,2-2.44,3-3.55l.14-.18a.22.22,0,0,0,.08-.2v-.46c0-.35,0-.69-.05-1-.05-.67-.14-1.3-.24-1.9A32,32,0,0,0,239.66,463.86Z"></path></g><path class="cls-4" d="M142.9,479.53a6.11,6.11,0,0,0-.48,4.68c.51,2.55,2.31,3.92,1.72,3.77-2.38-.59-4.24-.88-5.09-2a11.3,11.3,0,0,1-1.7-8.33Z"></path><path d="M142.9,479.54a8.52,8.52,0,0,1-2.52-.56l-1.91-.57-.53-.13-.18,0s0,.13,0,.18a2.66,2.66,0,0,0,0,.3c0,.12,0,.12,0,.32a9.81,9.81,0,0,0,.08,1.08,12.43,12.43,0,0,0,.44,2.15,11.51,11.51,0,0,0,.81,2,7.7,7.7,0,0,0,.55.88l.15.2.11.13a2.37,2.37,0,0,0,.3.23,5.67,5.67,0,0,0,1.4.58l.41.11.1,0h0s.09.06.08,0v0h0s0,0,0-.08c-.1-.24-.19-.48-.27-.73a7.14,7.14,0,0,1-.32-1.45,8,8,0,0,1,0-2.68,5.55,5.55,0,0,1,1-2.1,9.1,9.1,0,0,0,.24,3c.27.93.59,1.87.65,2.29a3.45,3.45,0,0,0,.11.54l.07.26,0,.13,0,.07.05.13a7,7,0,0,0,.53,1,2.36,2.36,0,0,1,.4.83,2.73,2.73,0,0,1,0,.47l0,.17s-.07.17-.14.15a2.15,2.15,0,0,1-.48,0h-.3c-.12,0-.25-.05-.38-.07l-1.68-.47c-.39-.12-.75-.24-1.12-.39a4.16,4.16,0,0,1-1.95-1.35,11.37,11.37,0,0,1-1.71-3.8,13,13,0,0,1-.33-1.9c0-.31,0-.62-.05-.93s0-.53.05-1,.1-.86.17-1.28a1.45,1.45,0,0,1,.06-.3l.29.1.59.19,1.07.38.72.28A27.61,27.61,0,0,1,142.9,479.54Z"></path><path class="cls-4" d="M181.33,485.55c-.6,2.05-1.19,3.41-.29,5.26,1.3,2.66,3.79,3.66,3.07,3.66-3,0-5.23.19-6.55-.85-2.23-1.76-2.13-5.12-2.29-8.65Z"></path><path d="M181.33,485.57a10.17,10.17,0,0,1-2.84,0l-2.17-.12h-.56c0,.12,0,.33.05.44s.1.64.15,1,.1.82.16,1.23a15,15,0,0,0,.5,2.4,4.64,4.64,0,0,0,1.06,1.93,2.66,2.66,0,0,0,.75.59,3.65,3.65,0,0,0,.95.28,16.19,16.19,0,0,0,2.33.13s.1,0,.07,0v0l-.24-.28c-.18-.23-.35-.46-.51-.7a7.38,7.38,0,0,1-.78-1.5,4.8,4.8,0,0,1-.12-3.16,18.87,18.87,0,0,1,.94-2.32c.18.92,0,2.29.23,3.3a8.33,8.33,0,0,0,1,2.18,6.18,6.18,0,0,0,.63,1.12,6.6,6.6,0,0,0,.68.77c.28.28.64.56.85.81a1.35,1.35,0,0,1,.3.59c0,.16.13.23.05.44a3,3,0,0,1-.48.18,4.08,4.08,0,0,1-.76.11l-1.87-.05c-.42,0-.84,0-1.26-.07a7,7,0,0,1-2.45-.56,5.57,5.57,0,0,1-2.64-3.78,21,21,0,0,1-.5-4l-.06-1.22c0-.4-.27-1.17.41-.9l1.34.15.84.11A31.07,31.07,0,0,1,181.33,485.57Z"></path><path class="cls-4" d="M206.83,482.9a7.44,7.44,0,0,0,1,5.63c1.45,2.81,4,3.8,3.27,3.83-3,.1-5.22,1.39-6.6.32-2.32-1.81-3.41-4.35-3.76-8.16Z"></path><path d="M206.83,482.92a11.09,11.09,0,0,1-2.74,1l-2.17.66-.25.08-.15.05-.25.1c-.06,0-.05,0,0,.09l0,.13.06.2c.09.37.19.75.29,1.13s.23.8.37,1.19a10.67,10.67,0,0,0,1.07,2.23,8.15,8.15,0,0,0,1.6,1.81,5.13,5.13,0,0,0,.46.35,1,1,0,0,0,.31.13,2.9,2.9,0,0,0,.94,0c.53-.08,1.12-.21,1.72-.34l.78-.16h0s.12.07,0-.09a9.4,9.4,0,0,1-1.95-2.95,9.14,9.14,0,0,1-.83-3,6.8,6.8,0,0,1,.42-2.69,11.32,11.32,0,0,0,1,3.22c.52,1,1.17,1.93,1.36,2.41a6.29,6.29,0,0,0,.67,1.22,5.84,5.84,0,0,0,.42.56l.13.15.22.23a6,6,0,0,0,.46.42,3.26,3.26,0,0,1,.72.77,2.66,2.66,0,0,1,.22.54.21.21,0,0,1,0,.15.29.29,0,0,1-.12.07l-.26.11a2.64,2.64,0,0,1-.38.11c-.15,0-.26.07-.43.09-.34,0-.7,0-1,.09l-.76.11-1.23.21a5.84,5.84,0,0,1-2.57.05,3,3,0,0,1-1.11-.68,9.45,9.45,0,0,1-.86-.81A9.64,9.64,0,0,1,201.7,490a12.93,12.93,0,0,1-1.32-3.93c0-.33-.1-.58-.16-1.12l-.07-.71c0-.05,0-.14,0-.16l.17,0,.34-.09,1.13-.29.84-.19A33.93,33.93,0,0,1,206.83,482.92Z"></path><path d="M154.09,484.9a.32.32,0,0,1-.07-.21v0l.11-.06a2,2,0,0,1,1.4,0,7.37,7.37,0,0,1,1.38.61,2.81,2.81,0,0,1,1,.77,3.94,3.94,0,0,1,.64,1.16,2.47,2.47,0,0,1,.13.77,1.81,1.81,0,0,1-.25,1,2.41,2.41,0,0,1-1.36,1,4.26,4.26,0,0,1-.54.15,3.36,3.36,0,0,1-.63.06,3.31,3.31,0,0,1-1.22-.23,3.2,3.2,0,0,1-1.71-1.54,2.54,2.54,0,0,1-.13-2.12,3.21,3.21,0,0,1,1-1.11c.21.48.07,1.23.26,1.51s.37.45.35.6a1.5,1.5,0,0,0,1.31,1.44,1.57,1.57,0,0,0,.53,0,2.85,2.85,0,0,0,.54-.12.74.74,0,0,0,.54-.56,2.42,2.42,0,0,0-.67-1.55,7.15,7.15,0,0,0-1.3-1,9,9,0,0,0-1.26-.73h0A1.63,1.63,0,0,1,154.09,484.9Z"></path></g><g id="basketball" transform="matrix(-1, 0, 0, 1, 380, 0)"><path class="cls-4" d="M235.17,492.15a150.82,150.82,0,0,0-34.87,7.57C182.71,506,173,513.5,173,513.5c5.92,5.6,5.29,4.91,6.48,11.76-3.89,5.24,56.69,2.24,57.71-7.19C237.46,503.5,237.42,508.26,235.17,492.15Z"></path><path class="cls-4" d="M174,513.5c5.81,5.5,5.31,4.7,6.43,11.41a54.68,54.68,0,0,0,24.65,5.59c13.07,0,24.72-4.16,32.32-10.66.31-11.22.59-14.69-1.23-27.69"></path><path d="M236.22,492.14c.51.35,1.32,4.19,1.92,8.72s.75,9.76.92,12.63c.1,1.27.16,2.56.22,3.86l.05,1,0,1.51v.83c0,.17-.13.22-.21.32l-.31.27-1.26,1.1a39.11,39.11,0,0,1-7,4.89,52.72,52.72,0,0,1-16.08,5.43,54.55,54.55,0,0,1-27.37-2.24,46.2,46.2,0,0,1-5.8-2.55l-2-1-.54-.3-.27-.14c-.1,0-.05-.19-.09-.28l-.15-1.23c0-.4-.09-.8-.14-1.2l-.06-.69c0-.44-.08-.88-.13-1.31a8.39,8.39,0,0,0-.41-2.1,7.36,7.36,0,0,0-1.13-1.82c-1-1.26-2-2.49-3-3.66a26.06,26.06,0,0,1,4.63,2.09,7.93,7.93,0,0,1,2.42,2,11.12,11.12,0,0,1,1.51,3c.18.47.34.93.49,1.37l.11.33c0,.1,0,.06.06.09l.11.07a.25.25,0,0,0,.22,0l.08,0s0,0,.05,0,.16.05.24.07a31.69,31.69,0,0,1,3.34,1.31,44.49,44.49,0,0,0,19.45,4.72,47.6,47.6,0,0,0,17.66-3,43.14,43.14,0,0,0,7.28-3.55c.55-.34,1.1-.68,1.61-1.06s1.05-.72,1.54-1.11l.74-.56.55-.48.33-.29a2.26,2.26,0,0,0,0-.45c0-2.42.07-4.76.1-7s.06-4.54,0-6.7C235.92,500.86,236.14,493.59,236.22,492.14Z"></path></g><path d="M233.55,485.9c-.06.31-1.78,1.63-3.92,2.93s-4.67,2.58-6.06,3.33a53.7,53.7,0,0,1-5.33,2.56c-.94.39-1.89.77-2.85,1.12l-1.46.52-.17.06h0l0,0-.07,0a.71.71,0,0,0,.07.15h0l0,.07.05.15.11.28c.07.19.15.36.23.53a2.8,2.8,0,0,0,1.3,1.35,4.44,4.44,0,0,0,1.33.37c.52.06,1.14.11,1.69.14a19.88,19.88,0,0,0,3.38-.18,18.14,18.14,0,0,0,6.13-2.07,34.17,34.17,0,0,0,8.72-7.37,15.81,15.81,0,0,1-2.43,5.34,12.21,12.21,0,0,1-3.7,3.67A21.74,21.74,0,0,1,219,501.72a22.38,22.38,0,0,1-2.72-.28,5.06,5.06,0,0,1-4.14-3.38c-.08-.2-.15-.41-.22-.61l-.1-.32c0-.13-.08-.26-.11-.4-.12-.53-.26-1.09-.33-1.6l1.59-.47,1.16-.39c.72-.24,1.42-.5,2.11-.76,1.37-.51,2.69-1.05,4-1.58,2.52-1.07,4.83-2.15,7-3.16,1-.5,2.44-1.09,3.69-1.66Z" transform="matrix(-1, 0, 0, 1, 380, 0)"></path><path d="M237.66,498.37c.29.21.08,1.74-.68,3.33a16.4,16.4,0,0,1-2.83,4,12.17,12.17,0,0,1-5.44,3.46,43.48,43.48,0,0,1-6.06,1.4c-.85.15-1.71.27-2.56.37l-1.26.12-1.42.11c-.81.06-1.62.1-2.4.13l-1.16,0h-.14c-.07,0,0-.08,0-.12V511l0-.59c0-.78,0-1.55,0-2.31v-.92l0-.58a50,50,0,0,1,.86-8.06c1.73,1.9,3.05,5.67,2.82,7-.06.35-.11.69-.17,1l-.07.51,0,.13s0,0,0,0l0,.06a2.63,2.63,0,0,0-.15.33l-.06.22a.22.22,0,0,0,0,.11l.06,0a2.38,2.38,0,0,0,.77.16c.62,0,1.23,0,1.83,0a36.68,36.68,0,0,0,6.68-.85,15,15,0,0,0,5.24-2,16.29,16.29,0,0,0,3.52-3.19c.44-.55,1.12-1.28,1.68-2A17.15,17.15,0,0,0,237.66,498.37Z" transform="matrix(-1, 0, 0, 1, 380, 0)"></path><path d="M226.23,493.45c-.07,0-.08-.14,0-.28a.7.7,0,0,1,.4-.37,1.55,1.55,0,0,1,1.15,0,1.17,1.17,0,0,1,.68.58,1.49,1.49,0,0,1,.12,1,2.49,2.49,0,0,1-.35.77c0,.06,0,0,0,0l-.06.09-.13.17a1.29,1.29,0,0,1-.32.35,1.66,1.66,0,0,1-1.84.16,1.86,1.86,0,0,1-.94-1.2,1.37,1.37,0,0,1,.47-1.45,1.05,1.05,0,0,1,1-.13,3.56,3.56,0,0,0-.14.62.5.5,0,0,0,.1.39c-.13-.07.06,0,.19,0l.07,0,0,0a.18.18,0,0,0-.07.08.34.34,0,0,0,0,.2.39.39,0,0,0,.19.28c.19.09.4-.11.59-.46s.08-.45,0-.49a2.55,2.55,0,0,0-.34-.2c-.06,0-.15-.12-.29-.17A.76.76,0,0,0,226.23,493.45Z" transform="matrix(-1, 0, 0, 1, 380, 0)"></path></svg>