<svg xmlns="http://www.w3.org/2000/svg" id="BELGIUM" viewBox="0 0 380 600">
  <defs>
    <style>
      .cls-1 {
        fill: #ffd635;
      }

      .cls-1, .cls-2, .cls-3, .cls-4 {
        stroke-width: 0px;
      }

      .cls-2 {
        fill: #000;
      }

      .cls-3 {
        fill: #3f3f3f;
      }

      .cls-4 {
        fill: #8d2536;
      }
    </style>
  </defs>
  <g>
    <ellipse class="cls-4" cx="197.73" cy="463.36" rx="57.58" ry="25.42"></ellipse>
    <path class="cls-2" d="M140.13,463.36c-.04-.27-.15-1.15.07-2.48.23-1.32.81-3.09,1.99-4.93,2.3-3.74,6.96-7.36,12.39-10.09,5.45-2.76,11.68-4.73,17.46-6.04,5.78-1.32,11.11-2.02,14.93-2.42,6.74-.73,13.79-.89,20.96-.44,7.17.46,14.47,1.54,21.61,3.51,3.57.99,7.1,2.2,10.52,3.75,3.41,1.54,6.72,3.41,9.7,5.83,2.93,2.41,5.64,5.5,6.86,9.46.6,1.96.74,4.08.4,6.1-.33,2.02-1.12,3.91-2.15,5.56-1.79,2.91-4.26,5.14-6.83,7.04-2.6,1.87-5.37,3.39-8.21,4.69-5.68,2.58-11.59,4.27-17.49,5.48-11.82,2.36-23.6,2.73-34.69,1.78-11.09-.99-21.58-3.35-30.61-7.42-4.49-2.06-8.65-4.54-11.95-7.75-1.64-1.6-3.06-3.41-4.05-5.39-.99-1.98-1.51-4.14-1.45-6.23.2,1.87.89,3.84,2.04,5.64,1.14,1.81,2.71,3.45,4.52,4.9,3.64,2.89,8.18,5.04,12.71,6.67,9.11,3.28,18.24,4.49,22.97,5.25,4.78.77,9.55,1.21,14.27,1.38,4.72.17,9.38.09,13.94-.28,9.13-.73,17.95-2.45,25.97-5.54,3.99-1.57,7.8-3.47,11.08-5.95,3.26-2.45,6.08-5.59,7.08-9.33.51-1.85.48-3.79-.03-5.61-.5-1.82-1.44-3.5-2.61-4.99-2.38-2.97-5.52-5.25-8.8-7.08-3.28-1.85-6.74-3.25-10.21-4.41-3.47-1.17-6.98-2.05-10.46-2.75-6.96-1.39-13.83-2.05-20.47-2.21-6.64-.16-13.07.16-19.21.92-6.15.74-12.02,1.94-17.54,3.58-5.21,1.58-12.32,4.21-17.53,8.21-1.3.99-2.45,2.07-3.45,3.16-.98,1.11-1.74,2.25-2.33,3.34-1.14,2.21-1.33,4.15-1.41,5.08Z"></path>
  </g>
  <g>
    <g>
      <circle class="cls-2" cx="220.01" cy="545.92" r="3.95"></circle>
      <circle class="cls-2" cx="229.93" cy="557.37" r="3.95"></circle>
      <circle class="cls-2" cx="243.88" cy="565.77" r="3.95"></circle>
      <circle class="cls-2" cx="262.07" cy="568.7" r="3.95"></circle>
      <circle class="cls-2" cx="278.68" cy="562.9" r="3.95"></circle>
    </g>
    <g>
      <path class="cls-3" d="M227.78,530.41c-6.67,2.36-9.63,11.86-3.36,18.33,4.39,4.53,11.98,10.47,21.32,13.98,14.72,5.54,30.99,2.99,34.56-6.59,5.12-13.7-16.77-24.21-27.68-25.06"></path>
      <path class="cls-2" d="M252.63,531c.28-.28,1.7-.43,3.76-.16,2.06.25,4.72.89,7.48,1.89,2.76.99,5.61,2.34,8.11,3.83,2.49,1.49,4.62,3.13,6.09,4.44,1.3,1.15,2.54,2.5,3.56,4.11,1.02,1.61,1.83,3.52,2.14,5.62.32,2.09.1,4.31-.55,6.31-.74,2.03-1.82,4.08-3.38,5.57l-.56.6c-.19.18-.4.34-.61.51l-1.24,1c-.43.3-.87.56-1.31.83-.44.26-.88.56-1.34.76-.91.42-1.83.9-2.76,1.19l-1.4.48c-.47.15-.94.25-1.41.37-3.76.94-7.52,1.16-11.13.99-1.58-.04-3.14-.27-4.69-.47-1.53-.3-3.08-.55-4.57-.99-1.51-.36-2.96-.91-4.42-1.4-1.42-.55-2.82-1.14-4.17-1.79-5.41-2.6-10.18-5.96-14.24-9.69-1.01-.94-1.98-1.9-2.9-2.9l-.68-.75-.34-.38-.36-.46c-.48-.61-.96-1.21-1.33-1.9-1.6-2.64-2.28-5.75-1.94-8.56.29-2.82,1.45-5.34,3.12-7.19,1.65-1.87,3.77-3.08,5.85-3.53-1.53,1.39-2.79,3.31-3.4,5.32-.67,2.01-.61,4.14-.17,5.87.46,1.76,1.37,3.1,2.26,4.13.23.26.42.52.67.73.25.23.4.42.66.68.53.52.98.99,1.32,1.42,5.58,6.79,12.87,11.83,20.33,14.47,7.48,2.57,15.44,2.83,21.8.49,3.15-1.19,5.77-3.2,7.08-5.71.62-1.25,1.02-2.66,1.07-4,.06-1.34-.18-2.65-.67-3.88-.98-2.47-2.81-4.61-4.85-6.41-2.05-1.81-4.3-3.34-6.56-4.7-2.17-1.25-5.18-3.01-8-4.32-2.8-1.35-5.42-2.18-6.31-2.42Z"></path>
    </g>
    <g>
      <g>
        <path class="cls-3" d="M272.51,544.13c-5.77-.57-17.2,2.82-19.78,7.83"></path>
        <path class="cls-2" d="M252.7,551.94c-.22-.19.04-1.13.7-1.97.29-.46.71-.82,1.04-1.22.36-.36.7-.68.91-.95,1.57-1.89,4.03-3.12,6.25-4.03,3.89-1.6,8.32-1.64,10.97-.24-1.4,1.56-3.21,2.93-3.99,2.74-3.15-.82-5.99-.06-8.17.96-2.21,1.06-3.78,2.42-5.23,3.35-.35.23-.85.5-1.38.73-.5.28-.95.54-1.1.62Z"></path>
      </g>
      <path class="cls-2" d="M247.8,546.8c-.24-.23.11-1.06.78-1.77.65-.73,1.52-1.38,1.94-1.83,1.51-1.64,3.73-2.72,5.73-3.56,1.76-.74,3.6-1.17,5.35-1.27.88-.05,1.73-.02,2.54.11.41.07.8.16,1.21.31.21.08.4.15.64.29.26.14.38.3.44.51-.2.06-.44.13-.66.29-.2.14-.36.32-.52.48-.31.33-.63.66-.93.92-.6.54-1.18.87-1.54.78-2.96-.67-5.54.04-7.56.97-2.05.95-3.57,2.13-5,2.84-.33.19-.85.34-1.35.5-.48.16-.93.36-1.09.43Z"></path>
    </g>
  </g>
  <g>
    <g>
      <circle class="cls-2" cx="176.12" cy="562.3" r="4.34"></circle>
      <circle class="cls-2" cx="171.78" cy="573.24" r="4.34"></circle>
      <circle class="cls-2" cx="161.07" cy="580.89" r="4.34"></circle>
      <circle class="cls-2" cx="144.36" cy="581.58" r="4.34"></circle>
      <circle class="cls-2" cx="131.41" cy="574.48" r="4.34"></circle>
    </g>
    <g>
      <path class="cls-3" d="M168.65,536.2c5.87,3.57,8.29,13.74,7.23,22.76-1.67,14.22-10.1,22.32-25.94,22.32-12.9,0-19.76-7.74-20.51-14.43-.98-8.75,3.36-26.03,16.16-33.26"></path>
      <path class="cls-2" d="M145.63,533.65c-.03.21-.31.54-.77.98-.45.45-1.13.93-1.82,1.65-.36.34-.75.7-1.16,1.09-.38.42-.79.86-1.21,1.31-.21.23-.42.46-.64.7-.2.25-.4.51-.6.78-.39.54-.86,1.03-1.23,1.63-3.26,4.53-5.35,10.62-5.77,14.08-.43,3.04-.63,6.23-.33,9.26.17,1.56.46,2.71,1.07,3.95.59,1.21,1.41,2.35,2.38,3.35.96,1.02,2.13,1.85,3.37,2.56,1.23.73,2.6,1.24,3.99,1.65,2.83.78,5.77.96,8.82.72,2.63-.19,5.18-.61,7.5-1.36,2.31-.78,4.38-1.88,6.12-3.32,3.51-2.85,5.57-7.2,6.69-11.8,1.1-4.63,1.28-9.31.66-13.52-.63-4.18-2.06-7.93-4.63-10.18,1.72.05,3.86,1.08,5.66,2.83,1.81,1.73,3.3,4.07,4.33,6.48,1.03,2.42,1.64,4.91,1.89,7.11.24,2.2.16,4.1-.13,5.38-.61,2.54-1.28,4.99-2.31,7.34-.44,1.18-1.09,2.3-1.65,3.41-.67,1.08-1.29,2.15-2.08,3.12-.71,1.01-1.61,1.88-2.44,2.76-.91.81-1.8,1.62-2.8,2.27-.94.73-2.01,1.23-3,1.81-1.06.45-2.07.98-3.15,1.29-4.24,1.45-8.48,1.88-12.51,1.84-2.05-.07-4.07-.18-6.04-.61-.99-.15-1.94-.48-2.9-.73-.93-.35-1.88-.64-2.76-1.1-3.6-1.62-6.66-4.28-8.67-7.56-.99-1.65-1.69-3.48-2-5.4-.26-1.84-.33-3.58-.23-5.29.37-6.79,2.38-12.89,5.44-17.92,1.42-2.41,4.01-5.33,6.72-7.27.67-.5,1.31-.96,1.98-1.31.65-.37,1.24-.72,1.79-.99,1.14-.49,1.99-.83,2.42-.99Z"></path>
    </g>
    <g>
      <path class="cls-2" d="M158.75,560.14c-.27.24-1.12-.12-2.09-.48-.5-.15-1.01-.37-1.51-.48-.49-.11-.94-.21-1.27-.23-2.35-.08-4.88-.26-7.21-.14-4.05.2-8.07.43-11.07.05.74-1.99,3.03-3.7,3.99-3.53,3.8.61,6.86.65,9.68.78,2.78.15,5.34.49,7.25,1.62.96.46,2.07,2.08,2.23,2.4Z"></path>
      <path class="cls-2" d="M159.99,553.48c-.24.25-1.06.02-1.97-.28-.94-.23-1.97-.57-2.6-.53-2.18,0-4.5-.18-6.63-.06-1.85.1-3.67.19-5.37.24-.85.02-1.67.04-2.44.03-.38,0-.76,0-1.11-.01-.17,0-.35-.01-.51-.02h-.24s-.04,0-.06-.01c.02-.02.04-.04.06-.07.03-.05.04-.12.02-.18-.08.05-.27.02-.22-.12.02-.12.06-.25.1-.37.09-.26.2-.48.34-.72.27-.47.6-.87.96-1.22.7-.68,1.47-1.07,1.92-1.01,3.58.57,6.37.64,8.97.78,2.56.15,4.91.36,6.67,1.39.44.18.94.66,1.33,1.12.4.46.7.89.79,1.04Z"></path>
    </g>
  </g>
  <g>
    <path class="cls-2" d="M217.82,512.96s5.47,13.94,9.02,21.43c5.72,4.97,25.04,3.4,28.46-2.71,1.17-13.18.06-25.33.06-25.33l-37.54,6.61Z"></path>
    <path class="cls-2" d="M217.81,512.91c.77-1.09,17.66-4.03,24.06-5.7,2.83-.74,5.77-1.45,8.78-2.14l1.18-.27,1.97-.4,2-.38,1.01-.19.51-.09c.12-.06.09.07.11.14l.03.25c.3,2.48.58,6.01.66,7.06.49,6.38.54,12.85.2,19.02l-.07,1.12c-.02.32-.04.64-.08.96-.03.16,0,.33-.08.47l-.26.41-.53.82c-.2.26-.46.57-.59.72-.32.35-.66.67-1,.96-1.37,1.12-2.78,1.84-4.17,2.42-2.79,1.12-5.56,1.67-8.31,1.98-2.75.29-5.47.29-8.17,0-2.69-.34-5.38-.89-8.01-2.35-.34-.18-.61-.38-1.02-.65-.42-.32-.86-.68-1.26-1.03l-.34-.74-.27-.63-.34-.82c-.44-1.09-.86-2.18-1.26-3.24-.8-2.13-1.53-4.21-2.2-6.21-1.34-4.01-2.46-7.74-3.34-11.1,4.55,4.85,10.69,15.13,12.08,19.02l.06.19v.02s-.04.04-.04.04c-.02.03-.02.05-.02.09,0,.02,0,.03.06.08l.21.18.48.34c.69.43,1.51.8,2.38,1.1,1.74.61,3.65.94,5.54,1.12,3.8.33,7.62.02,11.04-.98,1.69-.51,3.32-1.22,4.49-2.24.13-.13.3-.25.41-.39.11-.13.19-.19.27-.31.21-.21.2-.48.22-.78.08-.89.16-1.77.21-2.64.23-3.5.28-6.91.21-10.2-.04-1.65-.09-3.27-.18-4.86-.05-.79-.1-1.58-.15-2.36l-.08-1.03-.06-.62-.07-.59c-.03-.18.02-.47-.26-.33-.39.09-.78.17-1.16.26-1.36.27-2.7.54-4.02.8-5.7,1.11-11.02,2.08-16.04,2.76-4.75.73-13.14,1-14.8,1.01Z"></path>
  </g>
  <g>
    <path class="cls-2" d="M178.1,519.7s-5.47,13.94-9.02,21.43c-5.72,4.97-26.61,4.13-30.03-1.98-1.17-13.18-.06-25.33-.06-25.33l39.11,5.88Z"></path>
    <path class="cls-2" d="M178.09,519.74c-1.1.79-18.46-1.86-25.23-2.33-2.99-.21-6.08-.48-9.22-.79l-1.18-.12-.58-.06h-.16s-.55.02-.55.02c-.06-.02-.05.04-.04.1v.16s.04.28.04.28v.13s.02.06.02.06c0,.04,0,0,0,.12l-.02,1.19c-.09,6.37.08,12.79.65,18.81l.05.49.02.25s0,.01,0,.02c0,.02.01.02.02.02,0,0,.02.02,0-.01,0,0-.02-.04,0-.02.03.03.04.06.08.09.16.12.27.25.47.37.72.51,1.73.98,2.81,1.34,2.19.73,4.64,1.14,7.06,1.37,2.43.21,4.87.25,7.21.05,2.32-.19,4.62-.58,6.42-1.31l.63-.29.28-.15.1-.04s.09-.03.11-.07c.02-.03.02,0,.06-.09l.2-.39c.53-1.05,1.06-2.08,1.58-3.1,1.03-2.05,2.03-4.05,2.99-5.97,1.93-3.84,3.74-7.39,5.41-10.5,0,3.39-.75,8.08-1.81,12.41-.53,2.16-1.14,4.23-1.76,6.01-.31.89-.63,1.7-.94,2.41-.16.35-.3.68-.46.99-.21.41-.41.78-.58,1.11-.13.23-.25.47-.39.69l-.66.46c-.42.31-.92.62-1.19.74-.64.33-1.26.58-1.87.78-1.22.4-2.4.66-3.55.84-2.3.34-4.5.43-6.66.39-4.3-.1-8.4-.65-12.3-1.84-1.93-.63-3.84-1.39-5.53-2.76-.2-.19-.41-.37-.61-.56-.16-.19-.45-.49-.62-.74-.16-.28-.38-.53-.5-.82-.03-.32-.06-.64-.08-.96-.06-.94-.12-1.87-.18-2.8-.21-3.65-.31-7.19-.33-10.61,0-1.71,0-3.4.03-5.05.02-.83.04-1.65.06-2.47l.02-.62.04-.88c.03-.59.06-1.17.1-1.75.04-.58.08-1.17.12-1.75.02-.13-.01-.33.06-.4l.42.05.84.1c1.15.15,2.28.3,3.41.45,1.53.2,3.03.39,4.51.59,5.9.78,11.39,1.57,16.48,2.54,4.85.83,13.1,3.27,14.71,3.8Z"></path>
  </g>
  <g>
    <path class="cls-4" d="M214.35,487.66c-3.35,6.83-7.26,18.29-2.68,25.54,10.89,8.52,47.75,2.08,49.65-12.51.39-14.22-7.67-40.29-7.67-40.29"></path>
    <path class="cls-2" d="M253.71,460.38c.75.3,2.43,4.82,4.03,10.16,1.63,5.33,3.11,11.5,4.07,14.94.87,3.03,1.58,6.23,2.09,9.59.11.85.21,1.7.32,2.56.07.87.11,1.76.16,2.65l.02.43c.02.17-.01.38-.04.52l-.15.89c-.05.27-.09.55-.16.82l-.25.79c-.16.53-.35,1.05-.6,1.53-.24.48-.46.99-.76,1.42-1.1,1.83-2.51,3.31-3.99,4.56-1.48,1.27-3.05,2.32-4.65,3.22-3.2,1.82-6.52,3.1-9.8,4.09-5.74,1.71-11.63,2.54-17.49,2.42-2.93-.07-5.86-.39-8.75-1.1-1.45-.38-2.89-.83-4.31-1.48l-1.06-.5-1.05-.61c-.17-.11-.34-.2-.52-.32l-.6-.44-.77-.56c-.23-.18-.52-.31-.61-.62l-.79-1.54c-.19-.36-.35-.73-.46-1.1-.26-.75-.52-1.49-.64-2.23l-.22-1.1-.11-1.08c-.09-.72-.09-1.42-.08-2.11.04-2.76.55-5.27,1.24-7.56,1.4-4.58,3.46-8.34,5.57-11.45,0,3.71-.45,8.63-.35,12.91.04,2.14.22,4.09.46,5.64.21,1.58.58,2.68.66,3.51.09.38.13.81.25,1.18.03.08.08.21.08.25l-.04.04s-.03.09-.02.13l-.03.04s-.01,0,0,.02l.11.1c.14.14.33.25.5.39.33.27.71.5,1.11.72,1.59.91,3.48,1.56,5.41,2,3.88.9,7.94,1.04,11.8.78,3.88-.29,7.62-.97,11.1-2.07,3.48-1.07,6.72-2.54,9.43-4.44,2.71-1.87,4.82-4.32,5.46-6.9l.15-.91c0-.17-.02-.64-.03-1.01-.04-.77-.03-1.53-.13-2.31-.07-.77-.14-1.53-.22-2.28-.1-.76-.2-1.51-.3-2.25-.85-5.96-2.09-11.51-3.02-16.74-.52-2.47-.94-5.93-1.3-8.99-.35-3.06-.64-5.72-.71-6.61Z"></path>
  </g>
  <g>
    <path class="cls-4" d="M224.57,501.83c-8.93,7.85-21.05,13.12-35.94,12.4-17.01-.82-37.81-9.03-44.74-28.85-2.47-7.06-2.95-15.46-1.89-25.75"></path>
    <path class="cls-2" d="M142.05,459.64c.44.54.1,5.21.35,10.55.12,2.67.42,5.5.91,8.03.5,2.53,1.2,4.75,1.85,6.25,2.28,5.37,5.92,10.42,10.52,14.49,4.68,3.99,10.21,7.04,15.85,8.91,4.91,1.68,10.02,2.77,15.05,3.22,2.52.26,4.99.31,7.43.27,2.43-.09,4.81-.32,7.12-.68,2.3-.4,4.54-.9,6.67-1.55,2.12-.67,4.17-1.39,6.08-2.25,3.85-1.68,7.21-3.71,10.13-5.7-1.53,2.99-4.75,6.76-8.58,9.46-1.88,1.4-3.9,2.48-5.7,3.33-.92.38-1.77.73-2.55.98-.78.24-1.48.41-2.05.52-9.31,1.5-17.98.74-25.74-1.03-3.89-.89-7.58-2.05-11.06-3.43-3.46-1.43-6.68-3.12-9.66-5.01-2.93-1.97-5.61-4.13-7.91-6.54-.61-.57-1.1-1.25-1.64-1.86-.51-.64-1.1-1.22-1.53-1.9-.91-1.34-1.89-2.6-2.59-4.01-.38-.69-.75-1.37-1.12-2.05-.3-.71-.6-1.41-.89-2.11-.61-1.39-1.11-2.8-1.48-4.22-.76-2.83-1.17-5.62-1.31-8.31-.19-2.55.05-6.04.53-9.03.46-3,1.1-5.52,1.31-6.35Z"></path>
  </g>
  <g>
    <path class="cls-4" d="M142,459.63c-6.08,17.73-10.04,46.71-6.91,55.55,5.6,10.47,42.02,21.08,54.41,7.74,0,0,2.36-11.23,2.26-15.19"></path>
    <path class="cls-2" d="M191.82,507.73c.32.25.54,1.72.45,3.82-.07,2.1-.39,4.85-.81,7.77-.11.73-.23,1.47-.34,2.22l-.23,1.35c-.05.25-.07.51-.15.74l-.53.54-1.01,1.02c-.32.26-.63.52-.94.78-.61.55-1.31.92-1.95,1.38-2.66,1.62-5.33,2.47-7.22,3.04-6.74,1.98-14.33,1.82-21.61.45-3.66-.68-7.26-1.71-10.76-3.04-1.75-.68-3.47-1.42-5.14-2.29-1.68-.86-3.32-1.83-4.9-3-1.38-1.03-2.74-2.17-3.96-3.78-.16-.18-.31-.39-.45-.62l-.5-.8-.29-.46c-.08-.16-.11-.36-.16-.49l-.24-.83-.37-1.37c-.08-.43-.14-.84-.21-1.26-.52-3.35-.54-6.42-.42-9.43.23-6,1.03-11.68,2.07-17.04,2.11-10.7,5.25-20.1,8.79-27.16.43,3.85.41,9.04.24,13.85-.18,4.8-.54,9.23-1.21,11.48-1.35,4.53-2.4,9.01-3.09,13.39-.69,4.37-1.08,8.67-.86,12.7.04.5.11.98.16,1.47l.08.73c.04.24.1.45.15.67l.15.65c.04.19.06.35.16.47l.29.49c.12.18.27.35.4.53,1.09,1.41,2.6,2.63,4.16,3.67,3.16,2.09,6.65,3.58,10.08,4.72,6.9,2.25,13.75,3.17,19.96,2.96,3.1-.11,6.07-.51,8.73-1.3,2.65-.78,5.1-1.93,6.92-3.47.12-.1.25-.2.38-.3.12-.13.13-.34.21-.52.21-.7.43-1.44.65-2.2.49-1.58,1-3.24,1.48-4.79.98-3.09,1.71-5.79,1.85-6.73Z"></path>
  </g>
  <path class="cls-1" d="M154.56,468.81l-9.81-4.97c-4.46,8.8-6.52,17.46-8.61,24.86-1.64,12.17-3.35,28.31,5.32,30.69l.4-3.15c-.13-16.87,2.11-26.53,12.7-47.43Z"></path>
  <path class="cls-2" d="M150.99,466.47c-8.57,16.91-11.89,30.34-12.93,43.52.66,3.3,1.8,6.37,3.61,9.06.18-15.7,2.71-30.7,12.89-50.77l-3.57-1.81Z"></path>
  <polygon class="cls-4" points="187.47 479.12 201.14 498.73 223.95 496.27 228.76 475.76 187.47 479.12"></polygon>
</svg>