<svg xmlns="http://www.w3.org/2000/svg" id="Layer_18" data-name="Layer 18" viewBox="0 0 380 600">
  <defs>
    <style>
      .cls-1, .cls-2, .cls-3, .cls-4, .cls-5, .cls-6 {
        stroke-width: 0px;
      }

      .cls-2 {
        fill: #827a1a;
      }

      .cls-3 {
        fill: #3a7753;
      }

      .cls-4 {
        fill: #b5b5b5;
      }

      .cls-5 {
        fill: #a0963c;
      }

      .cls-6 {
        fill: #fff;
      }
    </style>
  </defs>
  <g>
    <g id="default">
      <g>
        <ellipse class="cls-2" cx="198.73" cy="463.14" rx="57.58" ry="25.42"></ellipse>
        <path class="cls-1" d="M141.09,463.14c-.12-.27-.3-1.16-.13-2.53.18-1.36.72-3.2,1.89-5.1,2.28-3.88,6.98-7.61,12.45-10.42,5.48-2.84,11.75-4.88,17.56-6.25,5.81-1.39,11.17-2.16,15.01-2.65,6.78-.89,13.9-1.18,21.15-.83,7.26.36,14.66,1.37,21.96,3.31,3.65.97,7.27,2.19,10.79,3.76,3.52,1.56,6.96,3.48,10.12,6.02,1.58,1.26,3.07,2.74,4.38,4.43,1.31,1.7,2.44,3.67,3.11,5.89.68,2.21.86,4.65.48,6.95-.37,2.31-1.26,4.44-2.38,6.27-1.98,3.23-4.61,5.6-7.31,7.62-2.73,1.98-5.61,3.56-8.53,4.9-5.86,2.67-11.9,4.39-17.91,5.6-12.04,2.38-23.98,2.67-35.22,1.59-11.23-1.12-21.85-3.67-30.98-8-4.54-2.19-8.75-4.82-12.1-8.23-1.66-1.7-3.09-3.62-4.07-5.73-.99-2.1-1.48-4.41-1.34-6.59.41,1.96,1.32,3.92,2.63,5.63,1.31,1.72,2.99,3.2,4.88,4.49,3.79,2.57,8.35,4.39,12.88,5.77,9.08,2.76,18.04,3.73,22.67,4.63,4.68.9,9.38,1.48,14.04,1.75,4.66.28,9.27.31,13.8.03,9.05-.55,17.82-2.13,25.76-5.11,3.95-1.51,7.71-3.36,10.93-5.76,3.2-2.37,5.9-5.4,6.82-8.88,1-3.48-.23-7.11-2.51-9.92-2.28-2.85-5.36-5.08-8.59-6.85-3.23-1.8-6.65-3.17-10.09-4.3-3.44-1.13-6.92-1.99-10.37-2.66-6.91-1.33-13.72-1.94-20.31-2.06-6.59-.12-12.96.22-19.05.97-6.09.73-11.91,1.89-17.37,3.45-5.16,1.52-12.22,3.91-17.49,7.66-1.31.93-2.48,1.94-3.51,2.98-1,1.05-1.81,2.15-2.43,3.19-1.22,2.13-1.5,4.06-1.62,5Z"></path>
      </g>
    </g>
    <g id="default-2" data-name="default">
      <g>
        <path class="cls-2" d="M256.3,465.32c-5.8,23.74-18.27,52.94-19.51,54.49,3.33,2.57,6.52,8.2,8.28,11.35,2.44,4.39,3.01,9.99.8,14.51-3.82,7.81-14.17,9.86-22.61,8.13-9.72-2-16.63-7.8-22.45-15.92-4.49-6.26-4.1-13.86-4.54-21.58-.41-2.34-.39-19.37-.38-22.15"></path>
        <path class="cls-1" d="M195.96,494.14c.39.46.64,3.34.86,7.4.1,2.03.2,4.36.32,6.83.06,1.23.12,2.5.18,3.78.08,1.27.14,2.61.3,3.77.01.04.03.22.04.31.27,3.29.4,6.5.78,9.3.36,2.81,1,5.17,1.74,6.83.45.95.91,1.89,1.51,2.74.27.45.61.84.91,1.26.33.42.72.87,1.08,1.31,1.48,1.75,3.06,3.42,4.75,4.95,3.37,3.08,7.27,5.47,11.53,6.84,2.13.68,4.36,1.15,6.52,1.31,2.19.17,4.39.05,6.46-.38,2.07-.42,4-1.14,5.6-2.15,1.6-1.01,2.79-2.32,3.59-3.81,1.65-2.92,1.46-6.97-.04-10.29-.19-.44-.37-.77-.64-1.26l-.84-1.49c-.56-.98-1.13-1.93-1.71-2.84-.58-.91-1.17-1.79-1.78-2.61-.3-.41-.61-.8-.92-1.18l-.56-.64-1.25-1.19c-.12-.96-.23-1.88-.34-2.81-.1-.95-.2-1.88-.3-2.8.69-1.48,1.38-2.95,2.06-4.41.54-1.2,1.08-2.4,1.61-3.59,1.04-2.4,2.07-4.77,3.07-7.1,1.99-4.68,3.88-9.22,5.64-13.58,3.54-8.72,6.57-16.71,9.05-23.62.46,5.1-.17,12.43-1.43,19.21-1.24,6.78-3.07,13-4.54,16.07-1.58,3.26-3.12,6.47-4.65,9.62-.78,1.57-1.55,3.13-2.31,4.67-.39.77-.78,1.54-1.17,2.3l-.6,1.15-.15.29-.06.1-.13.2c-.14.2-.27.42-.43.62-.04.1.13.18.18.27.08.1.16.19.23.28l.27.35c.22.28.47.56.67.84.43.57.84,1.13,1.22,1.71.77,1.14,1.47,2.3,2.13,3.45.66,1.15,1.28,2.3,1.88,3.44.29.55.61,1.18.9,1.82.28.64.53,1.29.74,1.94.84,2.62,1.14,5.38.79,8.07-.17,1.34-.51,2.66-1.02,3.91-.26.62-.55,1.23-.9,1.8-.17.29-.32.59-.51.86l-.59.8c-1.61,2.11-3.73,3.73-5.99,4.8-2.26,1.09-4.64,1.74-7,2.08-4.72.69-9.45.12-13.71-1.2-4.3-1.32-8.18-3.55-11.47-6.21-3.3-2.66-6-5.76-8.34-8.9-1.24-1.66-2.26-3.55-2.95-5.45-.7-1.91-1.13-3.84-1.4-5.71-.53-3.76-.51-7.29-.56-10.63,0-.32-.02-.64-.03-1.13,0-.03,0-.07,0-.12-.1-1.1-.07-2.1-.05-3.18.03-1.07.08-2.17.15-3.29.14-2.23.33-4.52.54-6.64.41-4.25.87-7.85,1.05-9.08Z"></path>
      </g>
    </g>
    <g id="default-3" data-name="default">
      <g>
        <path class="cls-2" d="M256.3,463.51c-2.77,42.14-43.74,55.98-63.79,54.49-18.52-1.37-41.24-8.94-48.76-28.75-2.68-7.05-3.19-15.45-2-25.75"></path>
        <path class="cls-1" d="M141.79,463.52c.12.38,0,2.28-.08,5.07-.09,2.79-.11,6.49.35,10.41.46,3.9,1.4,8.03,3.08,11.44.42.85.73,1.73,1.22,2.49.46.76.91,1.5,1.33,2.2.11.17.21.35.32.52.12.16.24.31.36.47.24.31.47.6.69.89.45.57.85,1.11,1.24,1.58,5.73,6.53,14.07,11.21,23.01,14,4.47,1.41,9.11,2.39,13.74,3,1.16.15,2.31.3,3.47.38,1.16.1,2.32.21,3.42.23,2.24.06,4.49-.06,6.7-.3,15.48-1.86,30.2-9.01,39.92-19.16,2.43-2.53,4.56-5.24,6.39-8.02,1.85-2.78,3.28-5.7,4.51-8.57,2.38-5.79,3.67-11.51,4.27-16.68.09,1.17.17,2.49.22,3.91-.05,1.41-.04,2.94-.21,4.52-.28,3.16-.98,6.52-1.95,9.74-1.05,3.18-2.33,6.21-3.77,8.69-.67,1.26-1.45,2.34-2.08,3.33-.69.95-1.34,1.75-1.87,2.39-2.23,2.53-4.62,4.82-7.11,6.89-2.51,2.05-5.13,3.86-7.79,5.49-5.35,3.21-10.91,5.62-16.47,7.32-5.56,1.72-11.14,2.75-16.6,3.05-2.73.16-5.46.04-8.07-.25-2.62-.25-5.19-.63-7.7-1.09-10.01-1.87-19.19-5.36-26.48-10.78-3.61-2.71-6.8-5.84-9.14-9.41-.33-.42-.6-.88-.86-1.34-.26-.46-.53-.91-.79-1.37-.26-.46-.53-.9-.76-1.36-.21-.48-.41-.95-.62-1.42-.39-.95-.86-1.86-1.16-2.82-.33-.95-.61-1.91-.85-2.87-.99-3.64-1.35-8.77-1.06-13.19.25-4.43.94-8.17,1.17-9.39Z"></path>
      </g>
    </g>
    <g id="default-4" data-name="default">
      <g>
        <path class="cls-3" d="M193.89,513.14c-4.57,5.6-4.08,11.91-5.01,18.76,3.01,5.24,6.01,12.24,5.41,19.44-.9,10.77-7.48,16.83-17.72,17.24-7.85.31-16.58-3.8-21.82-9.86-6.04-6.98-8.86-14.58-9.65-24.01-.21-14.57-.95-26.81.79-42.92"></path>
        <path class="cls-1" d="M145.95,491.8c.57.72.16,6.92.17,14.09-.03,7.16.33,15.3.79,19.85.2,2,.39,4.05.56,6.12.09,1,.14,2.04.26,3.02l.23,1.42.27,1.48c.79,3.94,2.04,7.77,3.93,11.25.94,1.74,2.03,3.4,3.25,4.97.62.78,1.25,1.54,1.92,2.29.33.36.65.67.97,1.02l1.03.95c2.84,2.46,6.25,4.3,9.7,5.35,1.51.47,3.04.77,4.55.92,1.51.16,2.96.1,4.49-.06,2.97-.39,5.65-1.37,7.63-3.08,2.02-1.65,3.38-4.04,4.17-6.76.21-.67.34-1.39.49-2.09.09-.72.25-1.45.28-2.14.12-1.4.08-2.82-.08-4.25-.31-2.85-1.12-5.69-2.17-8.39-.26-.68-.54-1.35-.83-2.01l-.44-.99-.11-.25-.06-.12-.11-.23-.44-.86c-.14-.29-.3-.56-.42-.85l.15-.94c.09-.53.17-1.05.26-1.57.12-.72.24-1.42.36-2.13.47-2.85.95-5.77,1.93-8.49.5-1.36,1.12-2.64,1.85-3.81.73-1.17,1.6-2.18,2.48-3.09-.8,2.28-1.38,4.96-1.41,7.72-.05,2.76.31,5.66.49,8.67.03.74.07,1.47.1,2.19.04.08.08.15.12.21.05.05.14.08.2.11,0-.11.3.39.48.65.21.3.4.61.59.91.38.6.73,1.21,1.06,1.8,1.29,2.38,2.1,4.6,2.39,6.22.6,3.24.83,6.55.44,9.79-.42,3.18-1.2,6.23-2.66,9.06-1.46,2.79-3.53,5.29-6.06,6.98-2.53,1.71-5.35,2.71-8.12,3.18-.7.09-1.39.19-2.07.26-.69.03-1.37.08-2.05.1-1.38,0-2.75-.07-4.07-.3-2.66-.39-5.17-1.17-7.52-2.17-4.7-2.01-8.83-5.01-11.94-8.72-3.09-3.6-5.52-7.63-7.12-11.83-.81-2.09-1.42-4.22-1.88-6.33-.46-2.12-.78-4.17-.97-6.33-.07-2.02-.13-4-.2-5.95-.05-1.93-.1-3.83-.15-5.7-.07-3.74-.06-7.37.1-10.88.09-3.34.63-7.89,1.35-11.84.7-3.96,1.56-7.32,1.86-8.42Z"></path>
      </g>
    </g>
  </g>
  <g>
    <path class="cls-6" d="M143.2,524.65c-12.17,29.71,22.76,63.42,50.54,44.22,5.72-4.57,5.17-11.94,2.39-18-1.89-5.86-2.35-12.09-3.99-18.02-1.72-8.45-8.6-14.04-17.21-12.43-3.02-.03-2.52,2.55-5.49,2.9-1.06.13-8.52,6.07-9.58,6.23-4.67.71-16.38-8.02-16.78-4.5"></path>
    <path class="cls-1" d="M143.01,525.04c-.05-.11-.14-.39.11-.77.28-.39.89-.55,1.45-.53,1.17.02,2.54.46,4.1,1.05,1.56.59,3.31,1.35,5.19,2.1.94.37,1.92.73,2.9,1.02.49.14.99.26,1.47.34.47.08.79.09,1.19.04.33-.04.6-.28.88-.45.36-.25.77-.54,1.15-.82.79-.59,1.57-1.18,2.36-1.76.8-.59,1.59-1.18,2.36-1.76.4-.29.8-.58,1.22-.86.23-.14.43-.28.68-.43l.41-.22c.19-.07.63-.2.75-.23.56-.1,1.01-.36,1.37-.81.22-.25.52-.64.95-1.04.43-.41,1.05-.8,1.66-.99.31-.12.59-.16.89-.22.15-.03.27-.03.41-.05l.23-.02s.26-.05.44-.09c.2-.04.4-.07.59-.11.77-.18,1.53-.17,2.21-.26,2.62-.15,5.41.42,7.93,1.69,2.52,1.27,4.67,3.3,6.28,5.66.78,1.2,1.47,2.47,1.97,3.8.26.67.51,1.35.67,1.98l.27.96.26.86c.72,2.51,1.26,5.04,1.77,7.48.51,2.45,1.02,4.82,1.66,7.06.17.56.33,1.11.51,1.65l.11.33s-.02-.07.08.17l.43.98c.55,1.32.99,2.7,1.33,4.12.64,2.85.82,5.99-.02,9.12-.39,1.56-1.12,3.07-2.01,4.42l-.71.99-.79.9c-.51.59-1.22,1.19-1.82,1.68-1.01.66-2.02,1.34-3.05,1.96-1.04.54-2.06,1.11-3.13,1.6-2.16.93-4.4,1.71-6.71,2.18-4.62.98-9.41.9-13.88-.07-4.48-.98-8.61-2.86-12.25-5.23-3.64-2.38-6.78-5.28-9.39-8.46-5.21-6.36-8.22-13.89-8.91-21.03-.36-3.57-.15-7.02.47-10.2.67-3.18,1.79-6.04,3.06-8.56-.14,2.68-.31,5.77-.05,8.98.28,3.21.96,6.47,1.96,9.46.99,3,2.28,5.71,3.52,7.99.33.56.64,1.1.92,1.62.29.52.61.98.88,1.44.52.93,1.05,1.69,1.41,2.36,3.02,5.35,7.46,9.84,12.61,12.78,5.17,2.91,11.05,4.19,16.65,3.6,2.79-.33,5.49-1.11,8.02-2.19,1.24-.6,2.49-1.18,3.59-1.93,1.24-.67,2.05-1.43,2.84-2.4,1.53-1.9,2.16-4.34,2.12-6.78-.07-2.46-.73-4.91-1.75-7.15l-.23-.52c-.09-.24-.13-.4-.18-.56-.1-.33-.21-.65-.3-.97-.2-.65-.37-1.3-.54-1.94-.33-1.29-.62-2.57-.89-3.83-.53-2.53-.98-4.98-1.53-7.33-.28-1.19-.56-2.28-.91-3.5-.16-.55-.28-1.11-.45-1.64-.2-.5-.33-1.02-.57-1.49-.85-1.93-2.06-3.64-3.53-4.93-1.49-1.28-3.22-2.16-5.04-2.59-.45-.11-.92-.16-1.38-.24-.47-.02-.93-.07-1.39-.07-.47.03-.93.02-1.4.08l-.69.1-.36.05c-.28.05-.57.06-.68.06-.3.01-.39.05-.47.1-.09.04-.3.24-.7.68-.2.22-.48.5-.8.77-.32.26-.66.48-1.01.67-.36.18-.74.33-1.13.43-.19.06-.39.08-.59.12l-.3.05s-.04,0,0,0h.06s.08-.02.11-.03c.04-.01.07-.03.1-.04.03-.02-.02.01-.02.01l-.09.05c-.05.02-.14.07-.24.13-.18.1-.38.22-.58.35-.4.25-.82.52-1.24.8-.84.56-1.68,1.12-2.51,1.67-.62.42-1.29.87-2.06,1.35-.38.24-.79.49-1.24.75-.62.35-1.27.71-2.03.83-.64.05-1.29-.02-1.92-.14-.57-.13-1.05-.28-1.54-.46-.96-.35-1.85-.78-2.71-1.22-1.71-.89-3.29-1.87-4.74-2.74-1.45-.87-2.76-1.65-3.88-2.11-.56-.22-1.07-.38-1.51-.33-.44.05-.66.44-.73.7Z"></path>
  </g>
  <g id="default-5" data-name="default">
    <g>
      <path class="cls-2" d="M193.89,513.14c-4.57,5.6-3.67,8.06-4.59,14.91,3.01,5.24-45.31,6.03-46.1-3.4-.21-14.57.95-16.74,2.69-32.86"></path>
      <path class="cls-1" d="M145.95,491.8c.58.46.48,4.29.14,8.7-.34,4.41-.82,9.35-.63,12.09.14,2.42.31,4.91.5,7.46.1,1.28.2,2.57.3,3.86,0,.11.01.11.02.13l.02.06s.02.07.04.1c.04.06.08.13.13.18.05.05.11.09.16.13.05.04,0-.03.08.03.06.04.15.09.22.14.64.4,1.66.82,2.73,1.14,1.08.33,2.25.6,3.44.82,2.39.44,4.86.71,7.29.89,5.29.36,10.64.45,15.71.33,2.53-.06,5-.19,7.26-.44.56-.06,1.11-.14,1.62-.22l.38-.06c.1-.02.29-.06.28-.05.05,0,.1.01.15.01.11,0,.24,0,.36-.05.06-.02.11-.06.13-.11,0-.05.02-.1.06-.15.08-.13.24-1.01.37-1.66.14-.7.27-1.4.4-2.08.28-1.4.6-2.88,1.15-4.3.56-1.42,1.34-2.67,2.17-3.7.83-1.03,1.73-1.86,2.59-2.62-.15,1.22-.41,2.53-.57,3.88-.17,1.35-.18,2.67-.03,3.91.14,1.24.4,2.53.57,3.9.09.68.15,1.36.19,2.02.01.34.03.66.04.98.01.11-.01.46-.02.69-.01.25-.03.5-.04.75.03.35.06.73.08,1.05l-.07.34-.12.37c-.19.52-.49,1.03-.83,1.41-.67.79-1.51,1.26-2.23,1.56-.81.3-1.72.56-2.48.69-.54.08-1.06.13-1.56.18-1,.08-1.96.12-2.89.13-1.87.03-3.65-.01-5.4-.07-3.49-.13-6.82-.33-10.04-.57-3.22-.25-6.33-.54-9.34-.92-3.01-.39-5.93-.84-8.77-1.61-1.42-.38-2.82-.85-4.2-1.53-.69-.36-1.38-.77-2.03-1.33-.75-.66-1.34-1.42-1.68-2.32-.35-.86-.3-2.01-.34-2.52-.03-.65-.05-1.29-.08-1.93-.05-1.28-.07-2.54-.08-3.78-.05-4.98.44-9.68,1.27-13.85.68-3.99,3.07-10.72,3.58-12.06Z"></path>
    </g>
  </g>
  <g>
    <path class="cls-6" d="M196.12,523.65c.39,7.4-3.07,16.78,4.08,21.4,13.17,8.52,22.87,12.93,40.63,11.43,4.46-.38,9.99-4.59,10.86-8.99,2.51-12.73-7.81-27.35-17.29-27.08-11.6.34-25.56,8.86-38.27,3.24h0Z"></path>
    <path class="cls-1" d="M196.15,523.59c.21-.09.72-.04,1.46.1.37.06.79.19,1.27.27.49.07,1.03.16,1.62.24,2.35.33,5.47.4,8.81-.1,3.34-.47,6.86-1.41,10.1-2.36,3.29-.97,6.26-1.85,8.39-2.48,1.93-.55,3.96-1.01,6.14-1.25l.41-.05.47-.02c.32,0,.64-.03.95,0,.64.02,1.26.11,1.88.22,1.23.25,2.4.65,3.5,1.16,4.4,2.11,7.71,5.65,10.16,9.61,2.44,3.98,4.02,8.57,4.35,13.39.07,1.2.08,2.42-.04,3.63-.04.61-.12,1.21-.22,1.82l-.07.46-.14.58c-.09.39-.2.77-.33,1.11-1.05,2.85-2.82,4.82-4.71,6.46-1.69,1.4-3.55,2.55-5.74,3.31l-.83.27-.88.21c-.29.08-.61.12-.92.16-.31.04-.66.09-.85.1l-2.72.2c-3.64.19-7.32.13-10.96-.32-3.63-.44-7.21-1.29-10.56-2.5-3.35-1.2-6.46-2.74-9.32-4.4-2.87-1.66-5.49-3.44-7.96-5.21l-.94-.68-1.11-.91c-.38-.28-.68-.68-1.01-1.03-.32-.36-.64-.72-.88-1.13-1.12-1.57-1.68-3.38-1.94-5.01-.28-1.66-.25-3.2-.15-4.63.1-1.45.32-2.78.52-4.07.44-2.55.91-4.87,1.08-7.05.93,1.89,1.48,4.56,1.94,7.31.46,2.73.94,5.62,1.95,7.62.52.99,1.12,1.71,1.75,2.25.17.12.35.24.52.36l.24.18.29.14c.19.1.36.19.53.3.26.14.52.27.77.41,2.09,1.11,3.79,2.12,4.89,2.92,4.4,3.29,8.94,5.87,13.74,7.5,2.4.79,4.85,1.36,7.31,1.73,2.47.31,4.93.53,7.38.5,1.22.03,2.44-.04,3.65-.09.29-.02.63-.02.88-.05.25-.04.49-.03.74-.1.5-.09,1.01-.23,1.51-.41,2-.72,3.86-2.02,5.22-3.58.68-.78,1.24-1.63,1.59-2.51.09-.22.17-.44.22-.65.06-.21.12-.43.15-.71.1-.52.16-1.04.2-1.57.18-2.1,0-4.21-.45-6.22-.89-4.04-2.81-7.71-5.24-10.66-2.43-2.91-5.55-5.18-8.62-5.71-.38-.08-.76-.09-1.12-.11h-.55s-.66.06-.66.06c-.44.04-.87.07-1.3.11-.44.07-.87.13-1.31.19-1.74.25-3.47.66-5.18,1.05-3.43.82-6.82,1.73-10.21,2.34-3.19.65-7.82.96-11.78.25-.25-.04-.49-.08-.73-.12-.24-.06-.48-.12-.71-.18-.46-.12-.91-.24-1.35-.36-.86-.24-1.63-.6-2.32-.86-1.35-.59-2.29-1.21-2.77-1.46Z"></path>
  </g>
  <g>
    <path class="cls-4" d="M145.19,528.88c-.11,3.89-.2,9.4.14,12.62,1.1,10.43,7.38,20.31,16.63,25.25,1.81.97,3.73,1.75,5.76,2.08,5.02.8,9.99-1.29,14.81-2.91,4.82-1.62,10.39-2.72,14.79-.17,0,0-4.03,11.66-23.4,11.19-19.28-.47-31.08-19.79-32.84-26.71-3.23-12.68.56-23.69.56-23.69l3.56,2.34Z"></path>
    <path class="cls-1" d="M145.17,528.9c-.19-.03-.73-.3-1.47-.72-.32-.18-.7-.4-1.13-.64-.2-.12-.41-.24-.63-.37l-.08-.05s-.02.06-.03.09l-.06.21c-.03.14-.07.28-.11.43-.14.58-.26,1.16-.39,1.87-.15.79-.28,1.64-.41,2.52-.24,1.77-.4,3.69-.44,5.69-.11,3.99.4,8.24,1.38,11.98,1.08,3.6,3.01,6.64,4.44,8.66,2.56,3.59,5.7,6.96,9.33,9.78,3.63,2.81,7.8,5.06,12.29,6.09l1.69.33c.56.11,1.12.25,1.7.26l1.72.12c.57.05,1.14.09,1.73.05,1.17-.06,2.35,0,3.49-.16l1.72-.18c.58-.06,1.13-.21,1.69-.3,2.25-.4,4.39-1.13,6.35-2.1,1.96-.97,3.71-2.25,5.11-3.77.31-.33.61-.67.87-1.03.14-.18.28-.35.4-.54l.24-.37s.01-.04-.02-.04h-.01s0,0,0,0c-.01,0,.05.02-.1-.03-.4-.12-.81-.21-1.24-.28-.84-.15-1.73-.18-2.62-.14-1.79.07-3.64.45-5.46.96-1.81.51-3.66,1.2-5.58,1.83-1.91.63-3.89,1.23-5.98,1.59-2.08.35-4.29.44-6.45.03-2.16-.41-4.1-1.24-5.86-2.19-1.74-.99-3.41-2.06-4.9-3.32-6.02-4.98-9.77-11.7-11.31-18.25-.8-3.27-.99-6.57-.9-9.55.06-3,.25-5.83.46-8.49.35,2.4.66,5.34,1.06,8.49.35,3.16,1.02,6.38,2.12,9.36,1.1,2.98,2.57,5.67,4.04,7.85,1.47,2.19,2.95,3.87,3.94,5.04,2.05,2.32,4.42,4.32,7.04,5.84,1.31.76,2.65,1.38,4.03,1.78,1.36.4,2.78.53,4.22.48,5.84-.24,11.34-3.47,17.39-4.16,1.5-.18,3.03-.23,4.54-.04.75.11,1.51.25,2.23.48.15.05.46.14.67.22.23.09.45.2.67.3.45.19.87.41,1.27.65l.31.17s.13.05.13.1l-.06.17c-.09.22-.17.44-.27.65l-.29.64-.35.63c-.12.21-.23.43-.37.62l-.33.48c-.2.31-.44.58-.66.87-.92,1.13-1.95,2.14-3.09,3-2.25,1.74-4.81,2.95-7.4,3.78-.66.19-1.31.37-1.96.55-.66.13-1.32.25-1.97.38l-.98.18-.99.1c-.66.07-1.31.13-1.96.2-1.31.05-2.6.08-3.89.08-1.29-.12-2.58-.15-3.84-.35-.63-.12-1.25-.25-1.87-.37-.62-.13-1.25-.22-1.84-.45-.6-.19-1.19-.38-1.79-.57-.3-.1-.6-.19-.89-.29l-.85-.37c-4.56-1.91-8.49-4.75-11.78-7.94-3.3-3.2-6-6.76-8.1-10.51-1.06-1.87-1.96-3.79-2.58-5.87-.31-1.04-.46-2.03-.69-3.03-.14-1.01-.34-2-.41-3-.45-3.78-.2-8.99.81-13.39.25-1.12.5-2.08.84-3.26.17-.55.34-1.07.51-1.53.09-.21.15-.51.27-.62.21.15.41.3.61.44,1.58,1.14,2.53,1.88,3.04,2.26Z"></path>
  </g>
  <g>
    <path class="cls-4" d="M251.37,546.75c-3.35-.81-4.71.46-7.9,1.77-3.19,1.31-11.03,3.12-23.01,0-10.12-2.62-18.86-8.61-25.68-16.53l1.72,9.58s14.54,17.86,37.99,16.71c4.58-.23,9.09-1.42,13.04-3.76,1.25-.74,2.34-1.55,2.81-2.31,1.48-2.37,1.04-5.47,1.04-5.47Z"></path>
    <path class="cls-1" d="M251.4,546.75c.16.25.55,1.77.02,4.01-.15.55-.36,1.14-.7,1.73-.39.63-.92,1.1-1.48,1.54-1.14.87-2.45,1.63-3.87,2.32-2.85,1.38-6.15,2.24-9.21,2.6-1.53.2-2.99.17-4.32.22-.66,0-1.29.05-1.88.04-.59-.03-1.13-.06-1.63-.09-3.53-.07-7.14-.82-10.73-1.86-3.59-1.07-7.07-2.71-10.38-4.63-3.31-1.95-6.4-4.26-9.22-6.85-.7-.66-1.39-1.32-2.05-2.03-.18-.18-.31-.33-.52-.56l-.43-.49-.21-.25c-.05-.09-.05-.21-.08-.32l-.32-1.7c-.56-3-1.11-5.97-1.66-8.9-.38-2.08-.77-4.16-1.11-6.02l3.2,3.57c1.11,1.24,2.23,2.52,3.29,3.59l1.61,1.68c.27.26.53.52.82.78l.44.41c.52.49,1.07.94,1.6,1.41,2.17,1.83,4.45,3.47,6.83,4.88,4.76,2.85,9.81,4.74,14.89,5.82,5.05,1.1,10.01,1.48,14.49.89,1.12-.15,2.2-.36,3.23-.64,1.02-.27,2.01-.67,3.02-1.07,1-.4,2.08-.83,3.24-.96,1.16-.14,2.26.07,3.23.36-.97-.02-2.08.03-3.12.41-1.04.37-1.98,1.01-3.01,1.68-1.01.66-2.17,1.34-3.42,1.83-1.23.51-2.52.9-3.81,1.2-5.18,1.19-10.24.8-12.76.23-3.32-.75-6.52-1.68-9.54-2.93-3.01-1.24-5.82-2.73-8.42-4.39-2.59-1.67-4.97-3.51-7.14-5.45-.55-.48-1.07-.98-1.59-1.47-.31-.29-.57-.58-.87-.88-.58-.6-1.15-1.24-1.7-1.88l-.11-.13.03.16.05.32.11.64c.07.43.15.86.22,1.29.19,1.08.38,2.15.57,3.21l.18.97c0,.24.14.36.32.56.45.5.91.99,1.39,1.46.47.47.95.94,1.45,1.38.49.45.98.89,1.49,1.3,4.01,3.4,8.37,5.96,12.73,7.84,4.38,1.87,8.8,2.95,13.08,3.41,1.07.07,2.13.25,3.18.24,1.05,0,2.09,0,3.11,0,2.04-.02,4.01-.27,5.91-.67,2.65-.56,6.3-1.75,9.04-3.55.33-.23.64-.47.89-.73.23-.25.45-.57.62-.89.35-.64.58-1.3.73-1.91.29-1.22.3-2.21.29-2.7Z"></path>
  </g>
  <path class="cls-1" d="M194.92,551.05c-.59.32-4.21-2.59-5.91-3.07-1.46-.49-2.97-.94-4.36-1.03-.7-.03-1.34.04-1.94.2-.58.17-1.23.47-1.84.82-2.16,1.26-4.27,2.95-6.12,4.52-1.86,1.59-3.47,3.1-4.64,4.49-.48-1.03-.43-2.55-.07-3.82.35-1.29.99-2.31,1.5-2.67,2.1-1.42,4.01-2.62,5.84-3.72,1.85-1.03,3.62-2.05,5.68-2.3,2.01-.23,3.86.26,5.4.9,1.56.64,2.84,1.49,3.91,2.41,1.06.83,2.34,2.86,2.56,3.28Z"></path>
  <path class="cls-1" d="M192.6,542.99c-.59.32-4.21-2.59-5.91-3.07-1.46-.49-2.97-.94-4.36-1.03-.7-.03-1.34.04-1.94.2-.58.17-1.23.47-1.84.82-2.16,1.26-4.27,2.95-6.12,4.52-1.86,1.59-3.47,3.1-4.64,4.49-.48-1.03-.43-2.55-.07-3.82.35-1.29.99-2.31,1.5-2.67,2.1-1.42,4.01-2.62,5.84-3.72,1.85-1.03,3.62-2.05,5.68-2.3,2.01-.23,3.86.26,5.4.9,1.56.64,2.84,1.49,3.91,2.41,1.06.83,2.34,2.86,2.56,3.28Z"></path>
  <path class="cls-1" d="M251.26,537.19c-.51.42-3.89-1.69-5.39-1.91-1.3-.25-2.62-.48-3.82-.48-.6.01-1.16.09-1.67.23-.44.15-.93.38-1.41.69-1.7,1.11-3.44,2.67-5.07,4.03-1.63,1.38-3.19,2.63-4.6,3.54-.45-2.13.53-5.07,1.46-5.62,1.82-1.11,3.43-2.2,4.97-3.19.79-.48,1.53-.96,2.35-1.33.79-.37,1.69-.71,2.53-.79,1.71-.22,3.3.04,4.67.46,1.38.42,2.56,1.02,3.55,1.71.98.61,2.2,2.3,2.43,2.65Z"></path>
  <path class="cls-1" d="M245.71,532.28c-.51.42-3.89-1.69-5.39-1.91-1.3-.25-2.62-.48-3.82-.48-.6.01-1.16.09-1.67.23-.43.15-.93.38-1.41.69-1.7,1.11-3.44,2.67-5.07,4.03-1.63,1.38-3.19,2.63-4.6,3.54-.45-2.13.53-5.07,1.46-5.62,1.82-1.11,3.43-2.2,4.97-3.19.79-.48,1.53-.96,2.35-1.33.79-.37,1.69-.71,2.53-.79,1.71-.22,3.3.04,4.67.46,1.38.42,2.56,1.02,3.55,1.71.98.61,2.2,2.3,2.43,2.65Z"></path>
  <g>
    <path class="cls-6" d="M188.6,535.33c1.33-4.8,2.7-16.37-6.48-17.06-26.84-2.02-17.05,16.59-16.32,20.5"></path>
    <path class="cls-1" d="M165.76,538.77c-.18-.09-.41-.61-.78-1.42-.35-.81-.79-1.9-1.19-3.11-.4-1.21-.75-2.53-.97-3.79-.22-1.25-.29-2.42-.32-3.28-.04-1.51.25-3.18,1.07-4.72.8-1.55,2.14-2.85,3.62-3.74,3.01-1.77,6.34-2.27,9.35-2.49.67-.06,1.33-.08,1.98-.07.66,0,1.31-.02,1.96.03.66.04,1.27.05,1.96.12l1.11.18c.37.06.73.12,1.1.27l1.08.4c.36.14.68.38,1.02.57.69.37,1.22.96,1.78,1.48.95,1.17,1.67,2.47,1.98,3.75.74,2.57.57,4.94.26,7.03-.34,2.09-.93,3.94-1.63,5.49-.39-1.68-.7-3.88-1.06-5.83-.33-1.97-.76-3.6-.81-4.46-.08-1.76-.63-3.36-1.75-4.45-.3-.24-.62-.47-.94-.71-.37-.17-.74-.33-1.1-.49-.41-.09-.81-.18-1.21-.28-.4-.1-.88-.11-1.31-.16-3.53-.35-6.91-.22-9.82.66-1.44.45-2.76,1.08-3.79,1.93-1.04.84-1.76,1.89-2.19,3.03-.86,2.29-.6,4.78-.29,7.06.31,2.15.97,6.17.9,6.99Z"></path>
  </g>
  <g>
    <path class="cls-6" d="M222.97,526.96c-.54-2.86-7.75-16.49,12.03-15.01,6.77.51,5.76,8.97,4.78,12.49"></path>
    <path class="cls-1" d="M239.75,524.43c-.26-.25.02-1.79.05-3.58.03-.89-.03-1.83-.14-2.67-.14-.83-.36-1.55-.61-2-.41-.82-.98-1.48-1.63-1.9-.67-.4-1.39-.67-2.28-.66-.19-.03-.46-.03-.73-.02h-.8c-.53-.01-1.05.03-1.57.04-1.04.04-2.04.16-2.98.31-1.62.31-3.15.78-4.16,1.54-1.02.73-1.6,1.72-1.84,3.06-.24,1.32-.16,2.8,0,4.19.15,1.42.42,2.71.48,4.09-.53-.52-1.11-.97-1.65-1.57-.54-.58-1.06-1.26-1.48-1.97-.86-1.41-1.26-3.06-1.1-3.96.14-.89.37-1.77.7-2.61.35-.84.83-1.61,1.39-2.26,1.16-1.3,2.6-2.06,3.96-2.49,1.37-.45,2.71-.65,3.99-.78,1.28-.14,2.52-.16,3.71-.17.59,0,1.18.02,1.76.03.28,0,.61.05.91.08.31.05.62.04.92.16,1.24.26,2.38,1.02,3.16,1.95.81.94,1.24,2.04,1.47,3.07.25,1.04.28,2.04.23,2.99-.02.9-.34,2.09-.73,3.08-.38.99-.86,1.78-1.02,2.03Z"></path>
  </g>
  <path class="cls-5" d="M164.69,489.24s-3.53,23.27-2.05,38.58c0,0-6.81.4-11.85-1.61,0,0-2.23-15.88,2.46-35.13l6.64-2.74s2.03.08,4.8.91Z"></path>
  <path class="cls-2" d="M154.24,527.19l3.69.54s-1.37-27.32,3.71-39.2l-1.67-.48-2.93,1.56s-4.52,20.21-2.79,37.57Z"></path>
</svg>