<svg xmlns="http://www.w3.org/2000/svg" id="Layer_19" data-name="Layer 19" viewBox="0 0 380 600">
  <defs>
    <style>
      .cls-1, .cls-2, .cls-3, .cls-4, .cls-5 {
        stroke-width: 0px;
      }

      .cls-2 {
        fill: #b5b5b5;
      }

      .cls-3 {
        fill: #71d3c2;
      }

      .cls-4 {
        fill: #fff;
      }

      .cls-5 {
        fill: #eb5528;
      }
    </style>
  </defs>
  <g>
    <g>
      <g>
        <g id="default">
          <g>
            <ellipse class="cls-3" cx="197.77" cy="462.74" rx="57.58" ry="25.42"></ellipse>
            <path class="cls-1" d="M140.15,462.74c-.08-.27-.23-1.15-.03-2.51.2-1.34.77-3.15,1.94-5.01,2.29-3.81,6.97-7.49,12.42-10.26,5.46-2.8,11.72-4.8,17.51-6.15,5.8-1.36,11.14-2.09,14.97-2.54,6.76-.81,13.84-1.03,21.06-.64,7.21.41,14.56,1.45,21.78,3.41,3.61.98,7.19,2.19,10.65,3.76,3.47,1.55,6.84,3.45,9.91,5.92,1.54,1.23,2.97,2.66,4.23,4.29,1.25,1.63,2.32,3.51,2.95,5.6.64,2.09.8,4.37.44,6.53-.35,2.17-1.19,4.17-2.26,5.91-1.88,3.07-4.44,5.37-7.07,7.33-2.67,1.92-5.49,3.48-8.37,4.8-5.77,2.62-11.75,4.33-17.7,5.54-11.93,2.37-23.79,2.7-34.96,1.69-11.16-1.05-21.71-3.51-30.8-7.71-4.51-2.13-8.7-4.68-12.02-7.99-1.65-1.65-3.08-3.51-4.06-5.56-.99-2.04-1.49-4.28-1.4-6.41.3,1.92,1.1,3.88,2.33,5.64,1.23,1.76,2.85,3.33,4.7,4.69,3.71,2.73,8.26,4.72,12.79,6.22,9.1,3.02,18.14,4.11,22.82,4.94,4.73.83,9.47,1.34,14.15,1.57,4.69.23,9.33.2,13.87-.12,9.09-.64,17.88-2.29,25.87-5.32,3.97-1.54,7.76-3.41,11.01-5.86,3.23-2.41,5.99-5.5,6.95-9.1.49-1.78.46-3.66-.03-5.41-.48-1.76-1.4-3.39-2.55-4.85-2.33-2.91-5.44-5.16-8.69-6.96-3.25-1.82-6.7-3.21-10.15-4.36-3.46-1.15-6.95-2.02-10.41-2.71-6.94-1.36-13.78-2-20.39-2.13-6.62-.14-13.01.19-19.13.94-6.12.74-11.96,1.91-17.46,3.51-5.19,1.55-12.27,4.06-17.51,7.93-1.3.96-2.47,2.01-3.48,3.07-.99,1.08-1.77,2.2-2.38,3.27-1.18,2.17-1.42,4.1-1.51,5.04Z"></path>
          </g>
        </g>
        <g id="default-2" data-name="default">
          <g>
            <path class="cls-3" d="M255.35,464.92c-5.8,23.74-18.27,52.94-19.51,54.49,3.33,2.57,6.52,8.2,8.28,11.35,2.44,4.39,3.01,9.99.8,14.51-3.82,7.81-14.17,9.86-22.61,8.13-9.72-2-16.63-7.8-22.45-15.92-4.49-6.26-4.1-13.86-4.54-21.58-.41-2.34-.39-19.37-.38-22.15"></path>
            <path class="cls-1" d="M195,493.74c.39.46.64,3.34.86,7.4.09,2.03.2,4.36.32,6.83.06,1.23.12,2.5.18,3.78.08,1.27.14,2.61.3,3.77.01.04.03.22.04.31.27,3.29.4,6.5.78,9.3.36,2.81,1,5.17,1.74,6.83.45.95.91,1.89,1.51,2.74.27.45.61.84.91,1.26.33.42.72.87,1.08,1.31,1.48,1.75,3.06,3.42,4.75,4.95,3.37,3.08,7.27,5.47,11.53,6.84,2.13.68,4.36,1.15,6.52,1.31,2.19.17,4.39.05,6.46-.38,2.07-.42,4-1.14,5.6-2.15,1.6-1.01,2.79-2.32,3.59-3.81,1.65-2.92,1.46-6.97-.04-10.29-.19-.44-.37-.77-.64-1.26l-.84-1.49c-.56-.98-1.13-1.93-1.71-2.84-.58-.91-1.17-1.79-1.78-2.61-.3-.41-.61-.8-.92-1.18l-.56-.64-1.25-1.19c-.12-.96-.23-1.88-.34-2.81-.1-.95-.2-1.88-.29-2.8.69-1.48,1.38-2.95,2.06-4.41.54-1.2,1.08-2.4,1.61-3.59,1.04-2.4,2.07-4.77,3.07-7.1,1.99-4.68,3.88-9.22,5.64-13.58,3.54-8.72,6.57-16.71,9.05-23.62.46,5.1-.17,12.43-1.43,19.21-1.24,6.78-3.07,13-4.54,16.07-1.58,3.26-3.12,6.47-4.65,9.62-.78,1.57-1.55,3.13-2.31,4.67-.39.77-.78,1.54-1.17,2.3l-.6,1.15-.15.29-.06.1-.13.2c-.14.2-.27.42-.43.62-.04.1.13.18.18.27.08.1.16.19.23.28l.27.35c.22.28.46.56.67.84.43.57.84,1.13,1.22,1.71.77,1.14,1.47,2.3,2.13,3.45.66,1.15,1.28,2.3,1.88,3.44.29.55.61,1.18.9,1.82.28.64.53,1.29.74,1.94.84,2.62,1.14,5.38.79,8.07-.17,1.34-.51,2.66-1.02,3.91-.26.62-.55,1.23-.9,1.8-.17.29-.32.59-.51.86l-.59.8c-1.61,2.11-3.73,3.73-5.99,4.8-2.26,1.09-4.64,1.74-7,2.08-4.72.69-9.44.12-13.71-1.2-4.3-1.32-8.18-3.55-11.47-6.21-3.3-2.66-6-5.76-8.34-8.9-1.24-1.66-2.26-3.55-2.95-5.45-.7-1.91-1.13-3.84-1.4-5.71-.53-3.76-.51-7.29-.56-10.63,0-.32-.02-.64-.03-1.13,0-.03,0-.07,0-.12-.1-1.1-.07-2.1-.05-3.18.03-1.07.08-2.17.15-3.29.14-2.23.33-4.52.54-6.64.41-4.25.87-7.85,1.05-9.08Z"></path>
          </g>
        </g>
        <g id="default-3" data-name="default">
          <g>
            <path class="cls-3" d="M255.35,463.11c-2.77,42.14-43.74,55.98-63.79,54.49-18.52-1.37-41.24-8.94-48.76-28.75-2.68-7.05-3.19-15.45-2-25.75"></path>
            <path class="cls-1" d="M140.83,463.12c.12.38,0,2.28-.08,5.07-.09,2.79-.11,6.49.35,10.41.46,3.9,1.4,8.03,3.08,11.44.42.85.73,1.73,1.22,2.49.46.76.91,1.5,1.33,2.2.11.17.21.35.32.52.12.16.24.31.36.47.24.31.47.6.69.89.45.57.85,1.11,1.24,1.58,5.73,6.53,14.07,11.21,23.01,14,4.47,1.41,9.11,2.39,13.74,3,1.16.15,2.31.3,3.47.38,1.16.1,2.32.21,3.42.23,2.24.06,4.49-.06,6.7-.3,15.48-1.86,30.2-9.01,39.92-19.16,2.43-2.53,4.56-5.24,6.39-8.02,1.85-2.78,3.28-5.7,4.51-8.57,2.38-5.79,3.67-11.51,4.27-16.68.09,1.17.17,2.49.22,3.91-.05,1.41-.04,2.94-.21,4.52-.28,3.16-.98,6.52-1.95,9.74-1.05,3.18-2.34,6.21-3.77,8.69-.67,1.26-1.45,2.34-2.08,3.33-.69.95-1.34,1.75-1.87,2.39-2.23,2.53-4.62,4.82-7.11,6.89-2.51,2.05-5.13,3.86-7.79,5.49-5.35,3.21-10.91,5.62-16.47,7.32-5.56,1.72-11.14,2.75-16.6,3.05-2.73.16-5.46.04-8.07-.25-2.62-.25-5.19-.63-7.7-1.09-10.01-1.87-19.19-5.36-26.48-10.78-3.61-2.71-6.8-5.84-9.14-9.41-.33-.42-.6-.88-.86-1.34-.26-.46-.53-.91-.79-1.37-.26-.46-.53-.9-.76-1.36-.21-.48-.41-.95-.62-1.42-.39-.95-.86-1.86-1.16-2.82-.33-.95-.61-1.91-.85-2.87-.99-3.64-1.35-8.77-1.06-13.19.25-4.43.94-8.17,1.17-9.39Z"></path>
          </g>
        </g>
        <g id="default-4" data-name="default">
          <g>
            <path class="cls-5" d="M192.94,512.74c-4.57,5.6-4.08,11.91-5.01,18.76,3.01,5.24,6.01,12.24,5.41,19.44-.9,10.77-7.48,16.83-17.72,17.24-7.85.31-16.58-3.8-21.82-9.86-6.04-6.98-8.86-14.58-9.65-24.01-.21-14.57-.95-26.81.79-42.92"></path>
            <path class="cls-1" d="M145,491.4c.57.72.16,6.92.17,14.09-.03,7.16.33,15.3.79,19.85.2,2,.39,4.05.56,6.12.09,1,.14,2.04.26,3.02l.23,1.42.27,1.48c.79,3.94,2.04,7.77,3.93,11.25.94,1.74,2.03,3.4,3.25,4.97.62.78,1.25,1.54,1.92,2.29.33.36.65.67.97,1.02l1.03.95c2.84,2.46,6.25,4.3,9.7,5.35,1.51.47,3.04.77,4.55.92,1.51.16,2.96.1,4.49-.06,2.97-.39,5.65-1.37,7.63-3.08,2.02-1.65,3.38-4.04,4.17-6.76.21-.67.34-1.39.49-2.09.09-.72.25-1.45.28-2.14.12-1.4.08-2.82-.08-4.25-.31-2.85-1.12-5.69-2.17-8.39-.26-.68-.54-1.35-.83-2.01l-.44-.99-.11-.25-.06-.12-.11-.23-.44-.86c-.14-.29-.3-.56-.42-.85l.15-.94c.09-.53.17-1.05.26-1.57.12-.72.24-1.42.36-2.13.47-2.85.95-5.77,1.93-8.49.5-1.36,1.12-2.64,1.85-3.81.73-1.17,1.6-2.18,2.48-3.09-.8,2.28-1.38,4.96-1.41,7.72-.05,2.76.31,5.66.49,8.67.03.74.07,1.47.1,2.19.04.08.08.15.12.21.05.05.14.08.2.11,0-.11.3.39.48.65.21.3.4.61.59.91.38.6.73,1.21,1.06,1.8,1.29,2.38,2.1,4.6,2.39,6.22.6,3.24.83,6.55.44,9.79-.42,3.18-1.2,6.23-2.66,9.06-1.46,2.79-3.53,5.29-6.06,6.98-2.53,1.71-5.35,2.71-8.12,3.18-.7.09-1.39.19-2.07.26-.69.03-1.37.08-2.06.1-1.38,0-2.75-.07-4.07-.3-2.66-.39-5.17-1.17-7.53-2.17-4.7-2.01-8.83-5.01-11.94-8.72-3.09-3.6-5.52-7.63-7.12-11.83-.81-2.09-1.42-4.22-1.88-6.33-.46-2.12-.78-4.17-.97-6.33-.07-2.02-.13-4-.2-5.95-.05-1.93-.1-3.83-.15-5.7-.07-3.74-.06-7.37.1-10.88.09-3.34.63-7.89,1.35-11.84.7-3.96,1.56-7.32,1.86-8.42Z"></path>
          </g>
        </g>
      </g>
      <g>
        <path class="cls-4" d="M142.25,524.25c-12.17,29.71,22.76,63.42,50.54,44.22,5.72-4.57,5.17-11.94,2.39-18-1.89-5.86-2.35-12.09-3.99-18.02-1.72-8.45-8.6-14.04-17.21-12.43-3.02-.03-2.52,2.55-5.49,2.9-1.06.13-8.52,6.07-9.58,6.23-4.67.71-16.38-8.02-16.78-4.5"></path>
        <path class="cls-1" d="M142.06,524.64c-.05-.11-.14-.39.11-.77.28-.39.89-.55,1.45-.53,1.17.02,2.54.46,4.1,1.05,1.56.59,3.31,1.35,5.19,2.1.94.37,1.92.73,2.9,1.02.49.14.99.26,1.47.34.47.08.79.09,1.19.04.33-.04.6-.28.88-.45.36-.25.77-.54,1.15-.82.79-.59,1.57-1.18,2.36-1.76.8-.59,1.59-1.18,2.36-1.76.4-.29.8-.58,1.22-.86.23-.14.43-.28.68-.43l.41-.22c.19-.07.63-.2.75-.23.56-.1,1.01-.36,1.37-.81.22-.25.52-.64.96-1.04.43-.41,1.05-.8,1.66-.99.31-.12.59-.16.89-.22.15-.03.27-.03.41-.05l.23-.02s.26-.05.44-.09c.2-.04.4-.07.59-.11.77-.18,1.53-.17,2.21-.26,2.62-.15,5.41.42,7.93,1.69,2.52,1.27,4.67,3.3,6.28,5.66.78,1.2,1.47,2.47,1.97,3.8.26.67.51,1.35.67,1.98l.27.96.26.86c.72,2.51,1.26,5.04,1.77,7.48.51,2.45,1.02,4.82,1.66,7.06.17.56.33,1.11.51,1.65l.11.33s-.02-.07.08.17l.43.98c.55,1.32.99,2.7,1.33,4.12.64,2.85.82,5.99-.02,9.12-.39,1.56-1.12,3.07-2.01,4.42l-.71.99-.79.9c-.51.59-1.22,1.19-1.82,1.68-1.01.66-2.02,1.34-3.05,1.96-1.04.54-2.06,1.11-3.13,1.6-2.16.93-4.4,1.71-6.71,2.18-4.62.98-9.41.9-13.88-.07-4.48-.98-8.61-2.86-12.25-5.23-3.64-2.38-6.78-5.28-9.39-8.46-5.21-6.36-8.22-13.89-8.91-21.03-.36-3.57-.15-7.02.47-10.2.67-3.18,1.79-6.04,3.06-8.56-.14,2.68-.31,5.77-.05,8.98.28,3.21.96,6.47,1.96,9.46.99,3,2.28,5.71,3.52,7.99.33.56.64,1.1.92,1.62.29.52.61.98.88,1.44.52.93,1.05,1.69,1.41,2.36,3.02,5.35,7.46,9.84,12.61,12.78,5.17,2.91,11.05,4.19,16.65,3.6,2.79-.33,5.49-1.11,8.02-2.19,1.24-.6,2.49-1.18,3.59-1.93,1.24-.67,2.05-1.43,2.84-2.4,1.53-1.9,2.16-4.34,2.12-6.78-.07-2.46-.73-4.91-1.75-7.15l-.23-.52c-.09-.24-.13-.4-.18-.56-.1-.32-.21-.65-.3-.97-.2-.65-.37-1.3-.54-1.94-.33-1.29-.62-2.57-.89-3.83-.53-2.53-.98-4.98-1.53-7.33-.28-1.19-.56-2.28-.91-3.5-.16-.55-.28-1.11-.45-1.64-.2-.5-.33-1.02-.57-1.49-.85-1.93-2.06-3.64-3.53-4.93-1.49-1.28-3.22-2.16-5.04-2.59-.45-.11-.92-.16-1.38-.24-.47-.02-.93-.07-1.39-.07-.47.03-.93.02-1.4.08l-.69.1-.36.05c-.28.05-.57.06-.68.06-.3.01-.39.05-.47.1-.09.04-.3.24-.7.68-.2.22-.48.5-.8.77-.32.26-.66.48-1.02.67-.36.18-.74.33-1.13.43-.19.06-.39.08-.59.12l-.3.05s-.04,0,0,0h.06s.08-.02.11-.03c.04-.01.07-.03.1-.04.03-.02-.02.01-.02.01l-.09.05c-.05.02-.14.07-.24.13-.18.1-.38.22-.58.35-.4.25-.82.52-1.24.8-.84.56-1.68,1.12-2.51,1.67-.62.42-1.29.87-2.06,1.35-.38.24-.79.49-1.24.75-.62.35-1.27.71-2.03.83-.64.05-1.29-.02-1.92-.14-.57-.13-1.05-.28-1.54-.46-.96-.35-1.85-.78-2.71-1.22-1.71-.89-3.29-1.87-4.74-2.74-1.45-.87-2.76-1.65-3.88-2.11-.56-.22-1.07-.38-1.51-.33-.44.05-.66.44-.73.7Z"></path>
      </g>
      <g id="default-5" data-name="default">
        <g>
          <path class="cls-3" d="M192.94,512.74c-4.57,5.6-3.67,8.06-4.59,14.91,3.01,5.24-45.31,6.03-46.1-3.4-.21-14.57.95-16.74,2.69-32.86"></path>
          <path class="cls-1" d="M145,491.4c.58.46.48,4.29.14,8.7-.34,4.41-.82,9.35-.63,12.09.14,2.42.31,4.91.5,7.46.1,1.28.2,2.57.3,3.86,0,.11.01.11.02.13l.02.06s.02.07.04.1c.04.06.08.13.13.18.05.05.11.09.16.13.05.04,0-.03.08.03.06.04.15.09.22.14.64.4,1.66.82,2.73,1.14,1.08.33,2.25.6,3.44.82,2.39.44,4.86.71,7.29.89,5.29.36,10.64.45,15.71.33,2.53-.06,5-.19,7.26-.44.56-.06,1.11-.14,1.62-.22l.38-.06c.1-.02.29-.06.28-.05.05,0,.1.01.15.01.11,0,.24,0,.36-.05.06-.02.11-.06.13-.11,0-.05.02-.1.06-.15.08-.13.24-1.01.37-1.66.14-.7.27-1.4.4-2.08.28-1.4.6-2.88,1.15-4.3.56-1.42,1.34-2.67,2.17-3.7.83-1.03,1.73-1.86,2.59-2.62-.15,1.22-.41,2.53-.57,3.88-.17,1.35-.18,2.67-.03,3.91.14,1.24.4,2.53.57,3.9.09.68.15,1.36.19,2.02.01.34.03.66.04.98.01.11-.01.46-.02.69-.01.25-.03.5-.04.75.03.35.06.73.08,1.05l-.07.34-.12.37c-.19.52-.49,1.03-.83,1.41-.67.79-1.51,1.26-2.23,1.56-.81.3-1.72.56-2.48.69-.54.08-1.06.13-1.56.18-1,.08-1.96.11-2.89.13-1.87.03-3.65-.01-5.4-.07-3.49-.13-6.82-.33-10.04-.57-3.22-.25-6.33-.54-9.34-.92-3.01-.39-5.93-.84-8.77-1.61-1.42-.38-2.82-.85-4.2-1.53-.69-.36-1.38-.77-2.04-1.33-.75-.66-1.34-1.42-1.68-2.32-.35-.86-.3-2.01-.34-2.52-.03-.65-.05-1.29-.08-1.93-.05-1.28-.07-2.54-.08-3.78-.05-4.98.44-9.68,1.27-13.85.68-3.99,3.07-10.72,3.58-12.06Z"></path>
        </g>
      </g>
      <g>
        <path class="cls-4" d="M192.49,527.67c.39,7.4-.4,12.35,6.75,16.98,13.17,8.52,22.87,12.93,40.63,11.43,4.46-.38,9.99-4.59,10.86-8.99,2.51-12.73-7.81-27.35-17.29-27.08-11.6.34-26.73,9.42-39.45,3.8l-1.5,3.85Z"></path>
        <path class="cls-1" d="M192.44,527.65c-.09-.21-.02-.75.19-1.62.11-.44.25-.96.42-1.55.09-.3.19-.62.29-.95.05-.17.11-.34.16-.52l.04-.13s.08.02.12.03l.25.07c.69.21,1.44.43,2.24.67.41.13.85.23,1.33.32.35.06.72.13,1.09.2,1.48.22,3.1.31,4.78.25,6.77-.23,14.29-2.91,18.53-4.32,1.87-.65,3.81-1.3,5.87-1.81,1.01-.29,2.1-.46,3.17-.69l1.68-.21c.29-.03.55-.07.86-.09l1.01-.02c2.68.08,5.19.99,7.31,2.26,2.14,1.27,3.98,2.88,5.57,4.68,3.18,3.59,5.42,7.9,6.64,12.53.58,2.32.92,4.73.87,7.17-.01,1.22-.13,2.44-.33,3.65-.03.26-.14.71-.23,1.08-.09.39-.22.75-.35,1.1-.25.72-.59,1.35-.93,1.96-1.24,2.1-2.83,3.71-4.6,5.04-1.78,1.32-3.75,2.36-6.09,2.97l-.89.2-.95.13c-.36.05-.5.04-.76.07l-.69.05c-.92.05-1.82.14-2.74.16-.92.02-1.83.04-2.75.06-.92-.02-1.84-.05-2.75-.07-3.66-.17-7.32-.7-10.81-1.62-3.49-.92-6.79-2.23-9.81-3.76-3.03-1.53-5.79-3.24-8.36-4.98-1.29-.87-2.52-1.75-3.72-2.63-1.25-.92-2.6-1.98-3.68-3.26-1.1-1.27-2.01-2.75-2.55-4.3-.56-1.54-.77-3.07-.84-4.48-.1-2.81.2-5.23.34-7.53.95,1.98,1.69,4.63,2.67,7.15.51,1.25,1.12,2.42,1.87,3.35.75.94,1.65,1.66,2.65,2.29.23.16.5.31.76.45.27.14.5.3.79.42.58.28,1.15.55,1.71.82,1.2.59,2.35,1.15,3.42,1.68,2.11,1.07,3.85,1.99,4.97,2.75,4.53,3.04,9.27,5.33,14.27,6.48,4.98,1.23,10.11,1.41,15.06,1.2,2.07-.06,4.2-1.04,5.95-2.35,1.74-1.31,3.19-3.08,3.66-4.89.23-.96.38-2.12.41-3.19.04-1.08,0-2.17-.14-3.24-.25-2.14-.84-4.21-1.63-6.16-1.6-3.88-4.08-7.28-7.05-9.63-1.48-1.17-3.1-2.06-4.72-2.49-.81-.21-1.61-.33-2.37-.29-.4,0-.9.08-1.34.11-.45.04-.9.07-1.36.16-3.63.55-7.19,1.6-10.71,2.53-3.52.94-7.02,1.8-10.53,2.23-.83.13-1.76.18-2.72.25-.97.05-2.01,0-3.05-.02-2.1-.18-4.28-.52-6.22-1.22-.24-.09-.48-.17-.71-.26-.17-.07-.33-.14-.49-.21-.34-.15-.68-.36-1.03-.54-.37-.19-.72-.38-1.06-.56-.04-.01-.1-.07-.12-.05l-.06.1-.12.19c-.08.13-.16.26-.23.39-.68,1.15-1.2,2.03-1.46,2.46Z"></path>
      </g>
      <path class="cls-1" d="M198.56,561.58c-.22.07-.98-.26-2.12-.54-1.15-.28-2.7-.49-4.37-.38-3.36.17-7.04,1.48-9.02,2.36-1.77.77-3.63,1.58-5.64,2.24-2.01.66-4.21,1.15-6.53,1.18-1.15,0-2.34-.11-3.49-.37-1.14-.26-2.23-.63-3.27-1.06-2.06-.87-3.93-2-5.68-3.21-6.1-4.33-10.29-10.85-12.07-17.24-.93-3.18-1.28-6.4-1.22-9.24.04-2.84.2-5.33.01-7.56,1.25,1.77,2.09,4.89,2.7,7.62.62,2.73,1.32,5.08,1.56,6.4.81,5.31,3.18,10.11,6.35,13.79,1.58,1.85,3.36,3.43,5.25,4.72,1.89,1.28,3.87,2.35,5.87,2.98,4.02,1.33,8.01.32,11.55-.87,1.79-.6,3.52-1.26,5.26-1.83,1.74-.57,3.49-1.02,5.22-1.24,1.63-.26,3.97-.22,5.9.35,1.96.51,3.34,1.56,3.75,1.89Z"></path>
      <path class="cls-1" d="M252.57,544.21c-.17.13-.86.06-1.87.09-1,.03-2.32.18-3.7.55-2.76.71-5.7,2.24-7.36,3.13-1.45.8-3.03,1.59-4.79,2.18-1.76.6-3.72.91-5.63.91-3.87.01-7.57-1.04-10.85-2.24-5.76-2.11-11.05-5.23-15.32-8.71-4.29-3.48-7.52-7.31-9.66-10.61,1.77.79,4,2.15,6.03,3.42,2.03,1.28,3.85,2.5,4.68,3.32,3.3,3.34,6.97,5.94,10.66,7.92,3.7,1.96,7.42,3.41,10.99,4.05,1.78.32,3.53.41,5.18.27,1.65-.15,3.19-.55,4.66-1.1,2.95-1.09,5.65-2.58,8.5-3.4,1.33-.43,3.28-.72,4.99-.6,1.71.09,3.08.62,3.49.82Z"></path>
      <path class="cls-1" d="M193.83,549.41c-.3.17-1.32-.46-2.52-1.11-1.2-.66-2.59-1.3-3.43-1.44-1.46-.29-2.97-.51-4.38-.41-1.46.07-2.58.49-3.82,1.23-2.12,1.29-4.17,2.96-5.99,4.5-1.82,1.57-3.4,3.04-4.56,4.4-.49-1.01-.45-2.52-.11-3.77.33-1.26.95-2.29,1.46-2.63,2.06-1.4,3.93-2.58,5.72-3.66.9-.53,1.78-1.03,2.68-1.45.88-.44,1.85-.78,2.8-.95,1.89-.36,3.73-.18,5.33.24,1.61.43,3,1.1,4.13,1.93,1.15.73,2.48,2.71,2.68,3.13Z"></path>
      <path class="cls-1" d="M192.13,541.06c-.3.17-1.33-.47-2.57-1.07-1.23-.62-2.68-1.18-3.54-1.3-3.01-.47-6.27-.66-8.48.83-2.15,1.27-4.25,2.95-6.09,4.52-1.85,1.59-3.46,3.09-4.63,4.47-.48-1.02-.44-2.54-.08-3.81.34-1.28.98-2.31,1.49-2.66,2.09-1.42,3.99-2.61,5.81-3.71,1.83-1.03,3.62-2.05,5.62-2.33,1.91-.3,3.74-.16,5.36.21,1.63.36,3.07.97,4.27,1.76.59.34,1.27,1.01,1.81,1.64.53.64.91,1.25,1.03,1.45Z"></path>
      <path class="cls-1" d="M250.3,536.79c-.51.42-3.89-1.69-5.39-1.91-1.3-.25-2.62-.48-3.82-.48-.6.01-1.16.09-1.67.23-.43.15-.93.38-1.41.69-1.7,1.11-3.44,2.67-5.07,4.03-1.63,1.38-3.19,2.63-4.6,3.54-.45-2.13.53-5.07,1.46-5.62,1.82-1.11,3.43-2.2,4.97-3.19.79-.48,1.53-.96,2.35-1.33.79-.37,1.69-.71,2.53-.79,1.71-.22,3.3.04,4.67.46,1.38.42,2.56,1.02,3.54,1.71.98.61,2.2,2.3,2.43,2.65Z"></path>
      <path class="cls-1" d="M244.75,531.88c-.51.42-3.89-1.69-5.39-1.91-1.3-.25-2.62-.48-3.82-.48-.6.01-1.16.09-1.67.23-.44.15-.93.38-1.41.69-1.7,1.11-3.44,2.67-5.07,4.03-1.63,1.38-3.19,2.63-4.6,3.54-.45-2.13.53-5.07,1.46-5.62,1.82-1.11,3.43-2.2,4.97-3.19.79-.48,1.53-.96,2.35-1.33.79-.37,1.69-.71,2.53-.79,1.71-.22,3.3.04,4.67.46,1.38.42,2.56,1.02,3.54,1.71.98.61,2.2,2.3,2.43,2.65Z"></path>
    </g>
    <g>
      <path class="cls-4" d="M187.64,534.93c1.33-4.8,2.7-16.37-6.48-17.06-26.84-2.02-17.05,16.59-16.32,20.5"></path>
      <path class="cls-1" d="M164.8,538.37c-.18-.09-.41-.61-.78-1.42-.35-.81-.79-1.9-1.19-3.11-.4-1.21-.75-2.53-.97-3.79-.22-1.25-.29-2.42-.32-3.28-.04-1.51.25-3.18,1.07-4.72.8-1.55,2.14-2.85,3.62-3.74,3.01-1.77,6.34-2.27,9.35-2.49.67-.06,1.33-.08,1.98-.08.66,0,1.31-.02,1.96.03.66.04,1.27.05,1.96.12l1.11.18c.37.06.73.12,1.1.27l1.08.4c.36.14.68.38,1.02.57.69.37,1.22.96,1.78,1.48.95,1.17,1.67,2.47,1.98,3.75.74,2.57.57,4.94.26,7.03-.34,2.09-.93,3.94-1.63,5.49-.39-1.68-.7-3.88-1.06-5.83-.33-1.97-.76-3.6-.81-4.46-.08-1.76-.63-3.36-1.75-4.45-.3-.24-.62-.47-.94-.71-.37-.17-.74-.33-1.1-.49-.41-.09-.81-.18-1.21-.28-.4-.1-.88-.11-1.31-.16-3.53-.35-6.91-.22-9.82.66-1.44.45-2.76,1.08-3.79,1.93-1.04.84-1.76,1.89-2.19,3.03-.86,2.29-.6,4.78-.29,7.06.31,2.15.97,6.17.9,6.99Z"></path>
    </g>
    <g>
      <path class="cls-4" d="M222.02,526.56c-.54-2.86-7.75-16.49,12.03-15.01,6.77.51,5.76,8.97,4.78,12.49"></path>
      <path class="cls-1" d="M238.79,524.03c-.26-.25.02-1.79.05-3.58.03-.89-.03-1.83-.14-2.67-.14-.83-.36-1.55-.61-2-.41-.82-.98-1.48-1.63-1.9-.66-.4-1.39-.67-2.28-.66-.19-.03-.46-.03-.73-.02h-.8c-.53-.01-1.05.03-1.57.04-1.04.04-2.04.16-2.98.31-1.62.31-3.15.78-4.16,1.54-1.02.73-1.6,1.72-1.84,3.06-.24,1.32-.16,2.8,0,4.19.15,1.42.42,2.71.48,4.09-.53-.52-1.11-.97-1.65-1.57-.54-.58-1.06-1.26-1.48-1.97-.86-1.41-1.26-3.06-1.1-3.96.14-.89.37-1.77.7-2.61.35-.84.83-1.61,1.39-2.26,1.16-1.3,2.6-2.06,3.96-2.49,1.37-.45,2.71-.65,3.99-.78,1.28-.14,2.52-.16,3.71-.17.59,0,1.18.02,1.76.03.28,0,.61.05.91.08.31.05.62.04.92.16,1.24.26,2.38,1.02,3.16,1.95.81.94,1.24,2.04,1.47,3.07.25,1.04.28,2.04.23,2.99-.02.9-.34,2.09-.73,3.08-.38.99-.86,1.78-1.02,2.03Z"></path>
    </g>
  </g>
  <g>
    <path class="cls-2" d="M145.67,529.78c.35,3.98.6,2.82.94,6.04,1.1,10.43,7.36,21.8,16.62,26.74,1.81.97,4.8,1.94,6.82,2.27,5.02.8,8.92-1.48,13.75-3.1,4.82-1.62,10.39-2.79,14.79-.24,0,0-3.46,13.3-22.83,13.3s-30.91-17.14-33.78-31.4c-1.18-5.87-.92-16.61-.92-16.61l4.61,3Z"></path>
    <path class="cls-1" d="M145.65,529.81c-.19-.03-.7-.28-1.45-.69-.72-.4-1.51-.85-2.41-1.38-.11-.06-.24-.15-.33-.18,0,.15,0,.3,0,.46,0,.3.01.61.02.94.02.65.04,1.33.06,2.05.06,1.74.14,3.63.28,5.57.14,1.94.33,3.95.68,5.88.38,1.93.91,3.84,1.52,5.61,1.22,3.56,2.85,6.56,4.12,8.61,2.31,3.59,5.2,6.98,8.67,9.74,3.46,2.76,7.53,4.84,11.88,5.85,8.59,1.89,18.79.37,24.45-5.6l.88-.99.79-1.06.7-1.11.31-.58.14-.26.03-.06c.05-.11.03-.09.04-.09h-.01c.33.1-.83-.28-1.58-.37-3.3-.49-6.96.43-10.44,1.61-1.74.59-3.5,1.32-5.38,1.95-1.88.63-3.94,1.15-6.07,1.18-1.06.04-2.13-.09-3.16-.27-1.01-.2-1.95-.46-2.88-.76-.92-.3-1.82-.63-2.72-1.03-.45-.2-.89-.41-1.35-.66l-1.24-.75c-3.28-2.01-5.87-4.7-8.01-7.5-2.13-2.82-3.72-5.86-4.91-8.88-1.19-3.03-1.96-6.07-2.34-9.01-.07-.74-.14-1.46-.21-2.18-.04-.69-.1-1.35-.2-1.98-.11-.62-.27-1.37-.32-2.05-.06-.68-.09-1.35-.12-2,.31,1.13.63,2.44,1.18,3.72.25.65.44,1.36.61,2.09.18.71.37,1.44.56,2.17.84,2.92,2.07,5.92,3.53,8.65,1.45,2.74,3.16,5.19,4.81,7.15,1.63,1.98,3.22,3.43,4.3,4.44.55.51,1.1,1,1.7,1.43.57.47,1.19.87,1.8,1.26,1.17.79,2.53,1.34,3.91,1.85,1.4.49,2.77.87,4.11.97,1.36.12,2.74-.04,4.12-.35,2.76-.64,5.52-1.87,8.39-2.7,2.84-.85,5.79-1.49,8.78-1.4.75.02,1.49.11,2.23.23.37.07.73.17,1.1.25.35.13.69.19,1.18.41.44.21.9.37,1.31.62.35.26,1.08.36.69.91-.14.45-.31.9-.47,1.33-.19.4-.39.88-.56,1.2-1.34,2.54-3.24,4.69-5.43,6.36-4.4,3.38-9.77,4.76-14.8,5.05-5.06.35-10.09-.38-14.53-2.22-4.45-1.81-8.29-4.59-11.4-7.79-3.12-3.21-5.56-6.83-7.42-10.55-1.85-3.73-3.14-7.57-3.84-11.39-.68-3.69-.66-8.64-.47-12.98.05-1.34.12-2.59.19-3.64l.03-.39v-.19s-.01-.19.08-.1c.24.17.47.34.7.5.43.31.85.61,1.24.89,1.37,1.02,2.41,1.79,2.92,2.18Z"></path>
  </g>
  <g>
    <path class="cls-2" d="M251.64,544.75c-3.35-.81-5.2-.64-8.39.66-3.19,1.31-10.66,7.19-22.31,3.02-9.15-3.27-20.71-13.2-28.71-18.76-.19-.13,1.13,3.17,1.24,3.38l2.4,6.13s10.1,16.74,34.58,17.51c12.21.39,18.46-6.09,18.94-6.85,1.48-2.37,2.25-5.11,2.25-5.11Z"></path>
    <path class="cls-1" d="M251.67,544.76c.06.32-.24,1.84-1.18,3.94-.12.26-.25.53-.4.8-.16.28-.26.54-.53.87-.44.54-.95,1.02-1.51,1.5-1.12.95-2.44,1.83-3.88,2.59-2.89,1.55-6.31,2.49-9.48,2.87-.79.06-1.57.16-2.32.19-.75.01-1.48.05-2.17.04-1.37-.06-2.6-.1-3.62-.15-7.23-.39-15.04-2.69-21.73-7.11-3.33-2.21-6.39-4.87-8.95-7.99-.33-.38-.63-.79-.94-1.2-.15-.2-.3-.43-.45-.64-.05-.07-.22-.32-.31-.5l-.19-.47c-.36-.88-.71-1.76-1.06-2.63-.31-.78-.61-1.56-.92-2.34-.35-.85-.74-1.72-1.06-2.57-.79-1.8-.79-2.92-.47-3.33.13-.19.29-.3.43-.43l.5-.41.24-.2s.06-.09.14-.08l.38.19,1.52.75.38.19c.12.06.25.12.42.25l.95.69,1.91,1.38,2.66,1.97c2.56,1.91,5.07,3.79,7.58,5.59,2.51,1.8,5.02,3.51,7.54,5.02,2.53,1.5,5.06,2.82,7.64,3.63,2.58.84,5.21,1.23,7.76,1.11,2.55-.15,5-.72,7.28-1.64,1.15-.44,2.25-.96,3.37-1.49.56-.26,1.16-.53,1.77-.76.58-.21,1.18-.39,1.79-.55,1.2-.32,2.48-.45,3.68-.35,1.2.1,2.29.39,3.31.7-.98-.02-2.07-.05-3.21.1-1.14.14-2.27.48-3.36,1.01-.55.26-1.1.55-1.65.86-.51.31-1.03.66-1.58,1.03-1.09.73-2.25,1.48-3.46,2.12-2.43,1.28-5.09,2.13-7.48,2.42-2.39.3-4.46.1-5.83-.18-2.76-.6-5.32-1.61-7.66-2.83-2.33-1.22-4.47-2.58-6.53-3.98-4.09-2.81-7.85-5.75-11.49-8.57-1.41-1.09-2.8-2.16-4.17-3.22l-.83-.61-.42-.3-.21-.15c-.07-.01,0,.13.02.19.2.62.44,1.23.7,1.84.64,1.63,1.27,3.24,1.89,4.82.03.08.06.15.11.22l.2.3c.14.21.29.41.44.61.29.41.62.79.93,1.18.65.77,1.31,1.51,2.02,2.21,5.6,5.66,12.48,9.07,19.16,10.77.84.2,1.68.4,2.5.59.83.17,1.67.26,2.5.4,1.65.31,3.3.37,4.91.5,3.22.23,6.3.02,9.19-.65,1.37-.33,2.97-.81,4.58-1.47,1.61-.67,3.22-1.54,4.6-2.55.34-.25.67-.51.97-.78.14-.13.29-.27.39-.38.11-.16.23-.32.34-.48.44-.65.8-1.28,1.11-1.86.62-1.16,1.01-2.1,1.19-2.56Z"></path>
  </g>
</svg>