<svg xmlns="http://www.w3.org/2000/svg" id="Art" viewBox="0 0 380 600"><defs transform="matrix(-1, 0, 0, 1, 380, 0)"><style>.cls-1{fill:#fff;}.cls-2{fill:#d4d7d9;}.cls-3{fill:#02315c;}.cls-4{fill:#fffffe;}</style></defs><path class="cls-1 color-body" d="M140.46,524.41c-3.45,5.39-9.9,12.59-9.22,20,1,11.08,6.58,17.3,18.33,17.72,9,.31,21-4.93,27.05-11.16,6.94-7.19,9.19-14,10.1-23.71.25-15-5.15-19.64-19.1-19.6s-18.33-6.1-26.16,16.75" transform="matrix(-1, 0, 0, 1, 380, 0)" style=";fill:#ffffff;--backup-fill:#ffffff"></path><path d="M141.43,524.4a26.59,26.59,0,0,1,1.39-4.81c.49-1.3,1-2.82,1.81-4.41a25,25,0,0,1,1.27-2.46,19.48,19.48,0,0,1,1.64-2.46,10.2,10.2,0,0,1,5.14-3.61,18.38,18.38,0,0,1,6.13-.34c1.92.13,3.73.31,5.35.36s3.05,0,4.33,0a36.3,36.3,0,0,1,6.84.41,16.09,16.09,0,0,1,6.87,2.66,13.36,13.36,0,0,1,4.58,6.2,24.9,24.9,0,0,1,1.48,7.33c.13,1.23.12,2.44.15,3.67v.23a2.1,2.1,0,0,1,0,.35l0,.45-.09.9c-.05.6-.13,1.21-.2,1.81a44.71,44.71,0,0,1-1.46,7.19,33.75,33.75,0,0,1-7,12.71,32.1,32.1,0,0,1-4.49,4.38,39,39,0,0,1-5.14,3.44A46.33,46.33,0,0,1,158.72,563a34.28,34.28,0,0,1-5.95,1c-.51,0-1,.08-1.52.1h-1.52c-1-.06-2-.11-3-.25a23.42,23.42,0,0,1-5.8-1.47,16.46,16.46,0,0,1-5.1-3.18,15.83,15.83,0,0,1-3.54-4.66,21.56,21.56,0,0,1-1.84-5.22c-.23-.87-.31-1.75-.46-2.61s-.2-1.68-.21-2.59a14.71,14.71,0,0,1,.78-5.19,31.24,31.24,0,0,1,4.45-8.24c1.7-2.37,3.45-4.49,4.94-6.55-.88,2.14-2.29,4.68-3.69,7.4a32.34,32.34,0,0,0-3.23,8.62,12.89,12.89,0,0,0-.1,4.14c.13.71.24,1.41.37,2.08s.28,1.31.47,1.9a24.72,24.72,0,0,0,2.24,5.49,14.46,14.46,0,0,0,2.6,3.22,14.64,14.64,0,0,0,3.54,2.21,22.76,22.76,0,0,0,8.39,1.7,30.23,30.23,0,0,0,8.46-1.14,43,43,0,0,0,7.88-3,36.48,36.48,0,0,0,6.9-4.32,33.62,33.62,0,0,0,5.43-5.7A31.21,31.21,0,0,0,185.1,533c.23-1.2.4-2.41.54-3.61.08-.59.12-1.2.19-1.79a4.64,4.64,0,0,0,0-.83v-.89a31.26,31.26,0,0,0-.74-6.85,13.4,13.4,0,0,0-2.65-5.76,11,11,0,0,0-5-3.29,22.7,22.7,0,0,0-6-1.11c-1-.09-2-.12-3-.12l-3.11-.07c-2.06-.09-4.09-.29-6-.49a23.1,23.1,0,0,0-5.49-.09,8,8,0,0,0-4.74,2.6,13.73,13.73,0,0,0-1,1.21l-.51.62-.45.69-.89,1.37-.79,1.42C143.34,519.81,142,523.29,141.43,524.4Z" transform="matrix(-1, 0, 0, 1, 380, 0)"></path><g id="default" transform="matrix(-1, 0, 0, 1, 380, 0)"><path class="cls-1 color-body" d="M125.09,465.17c5.8,23.75,18.27,52.94,19.51,54.5-3.34,2.57-6.52,8.2-8.28,11.35-2.44,4.39-3,10-.8,14.51,3.81,7.81,14.16,9.86,22.61,8.13,9.71-2,16.62-7.8,22.45-15.92,4.49-6.27,4.1-13.87,4.54-21.59.41-2.34.39-19.37.38-22.15" style=";fill:#ffffff;--backup-fill:#ffffff"></path><path d="M185.56,494c.39.46.66,3.34.84,7.41.09,2,.16,4.37.2,6.85,0,1.24,0,2.52,0,3.82s0,2.6-.12,4v.16c-.1,3.19-.06,6.45-.27,9.45a37,37,0,0,1-1.27,7.84,20.83,20.83,0,0,1-1.4,3.59c-.27.6-.63,1.16-1,1.74s-.68,1-1,1.56a48.75,48.75,0,0,1-4.72,6,35.26,35.26,0,0,1-13.22,9.09,31.72,31.72,0,0,1-16.47,1.86,24,24,0,0,1-8.22-2.87,17.73,17.73,0,0,1-6.43-6.44,17.27,17.27,0,0,1-2.33-8.78,21,21,0,0,1,1.81-8.54c.27-.64.66-1.36.95-1.9l.89-1.58c.61-1,1.25-2.11,1.92-3.15s1.38-2.08,2.16-3.1c.39-.51.8-1,1.23-1.52l.58-.64h.06v0h0s0,0,0-.08l-.43-1c-.27-.64-.53-1.27-.8-1.9-.5-1.26-1-2.52-1.5-3.76-1-2.5-1.89-5-2.75-7.4-1.74-4.88-3.28-9.63-4.63-14.21a184.19,184.19,0,0,1-5.68-25c2.77,4.39,6.07,10.81,9,16.9s5.55,11.87,6.46,15.08q1.42,5.15,3,10.05.81,2.44,1.65,4.83l.87,2.35.44,1.15.31.76c.13.32.3.62.39.93,0,.86,0,1.78,0,2.34a4.08,4.08,0,0,1-.36,1c-.14.4-.29.79-.42,1.16-.39.36-.81.71-1.15,1.07s-.42.41-.62.64c-.41.45-.8.92-1.19,1.4-.77,1-1.49,2-2.19,3s-1.36,2.1-2,3.18c-.34.56-.62,1-.88,1.54s-.48,1-.68,1.55c-1.61,4.23-1.24,9.12,1.39,12.44a12.8,12.8,0,0,0,4.87,3.9,19.86,19.86,0,0,0,6.08,1.72A26.85,26.85,0,0,0,161.27,551a30.4,30.4,0,0,0,10-5.92,46.76,46.76,0,0,0,7.38-8.4,21,21,0,0,0,3.48-9.27c.51-3.34.61-6.77.9-10.17,0-.33.05-.68.08-1.19l0-.35c.12-.77.21-1.79.31-2.82s.21-2.12.32-3.22c.23-2.21.47-4.48.69-6.6C184.94,498.83,185.38,495.23,185.56,494Z"></path></g><path class="cls-2" d="M170.62,539.6c-.38-2.24-.12-4.25,1.49-5.5,3.12-2.43,5.93-4.79,8.11-9.93,1.06-2.5,5.28-3.38,5.07,2.81a24.3,24.3,0,0,1-1,5.15c-5.91,17.19-25.41,31.65-43.58,23.85-9.23-5.65,5.18-8.37,9.41-10,7.56-3.93,6.72-2.58,14.17-6.71" transform="matrix(-1, 0, 0, 1, 380, 0)" style=""></path><path d="M164.32,539.28a12.05,12.05,0,0,1-2.92,2c-.85.49-1.87,1-3,1.55s-2.36,1-3.59,1.61-2.49,1.24-3.73,1.92l-.48.26a4.54,4.54,0,0,1-.58.24l-1,.37-2,.66a29.72,29.72,0,0,0-6.15,2.59,6.19,6.19,0,0,0-1.5,1.22.9.9,0,0,0-.21,1,1.63,1.63,0,0,0,.31.44l.31.3.38.31c.28.19.55.4.87.58l.39.23.41.14a25.6,25.6,0,0,0,9.08,1.54,30,30,0,0,0,17.13-6.13,41.65,41.65,0,0,0,10.57-11.4A40,40,0,0,0,182,532a6.31,6.31,0,0,0,.28-.79l.25-.9c.16-.6.31-1.19.43-1.76a11.64,11.64,0,0,0,.25-1.6,10.74,10.74,0,0,0,0-1.51c0-.23-.08-.41-.11-.62s0-.13-.07-.2l0-.11v0a.36.36,0,0,0-.19-.21.39.39,0,0,0-.33,0,1.26,1.26,0,0,0-.53.52l0,0-.06.11-.1.22-.21.42c-.14.29-.3.56-.44.84-.31.55-.63,1.09-1,1.6a19.56,19.56,0,0,1-2.28,2.87,30.78,30.78,0,0,1-5.14,4.15c-1.26.82-1.55,2.69-1.4,4.41a6.85,6.85,0,0,1-.76-2.59,4.27,4.27,0,0,1,1-3.17,39.26,39.26,0,0,0,4.13-5.12,25.85,25.85,0,0,0,2.48-5.26,5.3,5.3,0,0,1,3.22-3.14,4.12,4.12,0,0,1,3.79.52,3.2,3.2,0,0,1,.61.55,2.87,2.87,0,0,1,.51.64,6.13,6.13,0,0,1,.4.69l.23.63a7.47,7.47,0,0,1,.36,2.21,13,13,0,0,1-.08,2,16.06,16.06,0,0,1-.35,1.83c-.29,1.17-.6,2.17-1,3.32-.23.53-.46,1.07-.68,1.6l-.72,1.5a46.67,46.67,0,0,1-7.19,10.46A40.25,40.25,0,0,1,158,558.25a33.5,33.5,0,0,1-5.29.86,31,31,0,0,1-5.2-.12,27.52,27.52,0,0,1-4.93-1.07,11.46,11.46,0,0,1-1.17-.39l-1.22-.45a3.13,3.13,0,0,1-.36-.22l-.26-.17a6.06,6.06,0,0,1-.53-.35,9.74,9.74,0,0,1-1-.82,3.81,3.81,0,0,1-.48-.5l-.24-.26-.23-.34a3.78,3.78,0,0,1-.63-1.58,3,3,0,0,1,.26-1.68,3.48,3.48,0,0,1,.43-.75,7.46,7.46,0,0,1,.51-.59,13.15,13.15,0,0,1,4.19-2.45c1.39-.56,2.76-1,4.1-1.39l2-.57.95-.28.46-.15a2.59,2.59,0,0,0,.35-.12c1.1-.54,2.52-1.19,4-1.75s3.09-1,4.52-1.5C161.08,540.66,163.51,539.58,164.32,539.28Z" transform="matrix(-1, 0, 0, 1, 380, 0)"></path><path class="cls-2" d="M176.76,544.43c-.29-3.83-5.58-2.17-7.81-5.91-4.47-7.48-16.19-11.95-24.64-11.47a47.51,47.51,0,0,0-8.94,1.54c-12.29,27,14.75,36.2,33.53,24.06A26.78,26.78,0,0,0,176.76,544.43Z" transform="matrix(-1, 0, 0, 1, 380, 0)" style=""></path><path d="M176.79,544.45c.08.58-2.21,4.81-6.6,8.18a35,35,0,0,1-7.23,4,40.16,40.16,0,0,1-6.52,2,27.72,27.72,0,0,1-9.58.47,23,23,0,0,1-4.94-1.21,18.13,18.13,0,0,1-4.66-2.46,16.64,16.64,0,0,1-6.27-8.66,21.93,21.93,0,0,1-.51-10.3l.21-1.18c.08-.39.19-.77.28-1.15a21.15,21.15,0,0,1,.65-2.27c.26-.72.46-1.48.77-2.18l1.3-3.13,2.82-.66,1.72-.39a34.77,34.77,0,0,1,3.56-.59,28.44,28.44,0,0,1,7.2,0,33.93,33.93,0,0,1,12.68,4.43,27.21,27.21,0,0,1,5.05,3.84,20.2,20.2,0,0,1,2,2.33,10.58,10.58,0,0,1,.85,1.25c.24.39.47.78.7,1.17.62,1.15,2,1.8,3.56,2.41a8.12,8.12,0,0,1,2.41,1.32,5.57,5.57,0,0,1,.52.57,3.48,3.48,0,0,1,.37.68,3.88,3.88,0,0,1,.26,1.39c-.09-.22-.19-.44-.29-.67a5.19,5.19,0,0,0-.42-.62,3,3,0,0,0-1.21-.8,15.2,15.2,0,0,0-3-.51,8,8,0,0,1-3.41-1.2,8.24,8.24,0,0,1-.79-.67l-.68-.75c-.33-.37-.67-.74-1-1.1a24.18,24.18,0,0,0-4.41-3.4c-.69-.47-1.41-.81-2-1.19s-1.15-.64-1.57-.9a29.49,29.49,0,0,0-11.44-4.05c-.49,0-1-.1-1.47-.13l-1.45,0c-1,0-2,.08-2.94.19s-1.93.26-2.89.44l-2.38.48-.25.54-.4.9c-.29.62-.48,1.28-.73,1.91l-.34.95-.27,1a18.7,18.7,0,0,0-.47,1.93,19.77,19.77,0,0,0-.19,7.57,14.2,14.2,0,0,0,2.91,6.42,15.44,15.44,0,0,0,5.34,4.05,24.06,24.06,0,0,0,12.46,1.8,35.25,35.25,0,0,0,11.12-3.16c1.06-.51,2.32-1.15,3.57-1.87a26.42,26.42,0,0,0,3.58-2.55A30.83,30.83,0,0,0,176.79,544.45Z" transform="matrix(-1, 0, 0, 1, 380, 0)"></path><path d="M170.62,543.33a5.74,5.74,0,0,1-3.14-.1,12.26,12.26,0,0,1-4-2,51.07,51.07,0,0,1-4.25-3.61,23.28,23.28,0,0,0-4.39-3.15,24.13,24.13,0,0,0-8.39-2.49c-2.77-.34-5.34-.37-7.42-.44a13.13,13.13,0,0,1,3.52-1.24,10.18,10.18,0,0,1,3.22-.22,32.09,32.09,0,0,1,7.2,2,22.4,22.4,0,0,1,5.6,3.34c3.16,2.57,5.36,5.34,7.95,6.64a16.19,16.19,0,0,0,2.29.94C169.62,543.17,170.37,543.28,170.62,543.33Z" transform="matrix(-1, 0, 0, 1, 380, 0)"></path><g data-name="default" id="default-2" transform="matrix(-1, 0, 0, 1, 380, 0)"><g data-name="default" id="default-3"><path class="cls-1 color-body" d="M189,541.44c-2.89,5.71-5.59,13.22-4.17,20.52,2.14,10.92,8.3,16.55,20,15.77,9-.59,20.43-7,25.79-13.84,2.75-3.5,5.94-8.36,6.78-12.83.48-2.58-.38-5.92-.54-8.55-.38-6.12,1.31-12.57-3.49-17.37-4.15-4.14-10.69-4-16.1-3.42-13.88,1.45-22.83-3.8-28.3,19.72" style=";fill:#ffffff;--backup-fill:#ffffff"></path><path d="M189,541.43a24.66,24.66,0,0,1,1-5,35.64,35.64,0,0,1,1.57-4.57c.18-.42.32-.85.53-1.27s.45-.84.68-1.26a11.77,11.77,0,0,1,.74-1.28l.89-1.24a12.58,12.58,0,0,1,4.92-4,18.65,18.65,0,0,1,6-1.43c2-.17,3.83-.21,5.49-.28s3.14-.15,4.37-.28c4.26-.5,9.13-1.34,14.06.15a12.94,12.94,0,0,1,6.45,4.42,14.13,14.13,0,0,1,2.73,7.42c.25,2.56.12,5,.15,7.32a28.36,28.36,0,0,0,.21,3.37c.14,1.13.34,2.32.48,3.56a15.81,15.81,0,0,1,0,4,19.86,19.86,0,0,1-1,3.77,35.12,35.12,0,0,1-3.41,6.5,44.84,44.84,0,0,1-3.75,5,35.87,35.87,0,0,1-4.63,4.28,46.44,46.44,0,0,1-10.58,6.19,32.83,32.83,0,0,1-11.79,2.76,21.44,21.44,0,0,1-11.64-2.54,15.37,15.37,0,0,1-4.5-3.89,20,20,0,0,1-2.79-4.89,28.26,28.26,0,0,1-1.48-5.1,21.73,21.73,0,0,1-.49-5.12,29.68,29.68,0,0,1,1.77-9.31,46.94,46.94,0,0,1,3.55-7.64,74.92,74.92,0,0,0-2.1,8.11,30.41,30.41,0,0,0-.5,9.31,22.87,22.87,0,0,0,.93,4.35,34.57,34.57,0,0,0,1.41,3.84,21,21,0,0,0,3.21,5,13.79,13.79,0,0,0,3.25,2.63,15.73,15.73,0,0,0,4,1.48c.7.19,1.43.25,2.15.38s1.46.13,2.2.14a24.16,24.16,0,0,0,4.35-.26,33.87,33.87,0,0,0,8.33-2.47,43.8,43.8,0,0,0,7.46-4.11,32.84,32.84,0,0,0,6.19-5.39,44.72,44.72,0,0,0,4.63-6.55,20.94,20.94,0,0,0,2.72-7.07c.27-2.39-.35-4.89-.6-7.46s-.07-5.09-.1-7.49a16.79,16.79,0,0,0-1.16-6.66,10.21,10.21,0,0,0-4.18-4.62,14.39,14.39,0,0,0-6-1.71,34.54,34.54,0,0,0-6.27.12c-1,.11-2.12.19-3.18.28s-2.11.1-3.15.14c-4.13.11-8.1-.09-11.47,1a12.84,12.84,0,0,0-4.77,3.09c-.33.42-.67.83-1,1.25a9.27,9.27,0,0,0-.94,1.35l-.87,1.4-.73,1.46c-.23.49-.48,1-.69,1.43l-.56,1.41c-.35.91-.74,1.75-1,2.53C189.6,539.65,189.2,540.84,189,541.43Z"></path></g></g><g data-name="default" id="default-4" transform="matrix(-1, 0, 0, 1, 380, 0)"><path class="cls-1 color-body" d="M235.5,491.65a63.45,63.45,0,0,0-26.92,5.57A62.22,62.22,0,0,0,187.5,513c4.57,5.6,4.08,11.91,5,18.76-3,5.24-6,12.24-5.41,19.44C188,562,194.58,568,204.82,568.44c7.84.31,16.58-3.8,21.82-9.86,6-7,8.86-14.58,9.65-24C236.5,520,237.24,507.76,235.5,491.65Z" style=";fill:#ffffff;--backup-fill:#ffffff"></path><path class="cls-1 color-body" d="M187.5,513c4.57,5.6,4.08,11.91,5,18.76-3,5.24-6,12.24-5.41,19.44C188,562,194.58,568,204.82,568.44c7.84.31,16.58-3.8,21.82-9.86,6-7,8.86-14.58,9.65-24,.21-14.57,1-26.81-.79-42.92" style=";fill:#ffffff;--backup-fill:#ffffff"></path><path d="M235.56,491.64c.68.58,1.69,6.78,2.16,14s.47,15.46.73,20c.1,2,.2,4.06.31,6.13,0,1.07.11,2.12.1,3.24l-.09,1.73-.13,1.66a41.31,41.31,0,0,1-3.53,13.37,39.08,39.08,0,0,1-3.54,6.15c-.68,1-1.39,1.91-2.13,2.81-.38.46-.81.93-1.21,1.39l-1.3,1.3a34.17,34.17,0,0,1-12.18,7.35,29.47,29.47,0,0,1-6.07,1.42,27.27,27.27,0,0,1-6.32,0,25.17,25.17,0,0,1-6.22-1.54,19.62,19.62,0,0,1-5.64-3.43,18.9,18.9,0,0,1-4.13-5.08,21.8,21.8,0,0,1-2.24-5.79c-.25-1-.39-1.94-.54-2.91s-.21-1.9-.21-2.89a27.18,27.18,0,0,1,.47-5.68,36.23,36.23,0,0,1,3.48-9.87c.38-.74.77-1.46,1.18-2.16.2-.35.4-.69.61-1l.16-.26.08-.13,0,0,.11-.13.11-.13V531a2.68,2.68,0,0,0,0-.63l-.07-2.24a57.12,57.12,0,0,0-.51-8,17.48,17.48,0,0,0-2.41-6.46,13.48,13.48,0,0,1,5.34,5.69,40.23,40.23,0,0,1,3,8.72l.27,1.06.13.52.07.25c0,.09,0,.15.08.34.12.65.25,1.29.38,1.92,0,.08,0,.17,0,.24l-.1.22-.2.43-.42.88a10.62,10.62,0,0,0-.5,1.17c-.12.3-.23.59-.34.89-.22.57-.43,1.14-.63,1.68-.77,2.16-1.35,3.95-1.84,5.15a22.18,22.18,0,0,0-1.71,7.37,19.42,19.42,0,0,0,1,7.29,13.18,13.18,0,0,0,3.94,5.7,15.39,15.39,0,0,0,6.32,3,22.4,22.4,0,0,0,13.83-1.44A26.65,26.65,0,0,0,226,556.88a35.32,35.32,0,0,0,6.1-11,39.46,39.46,0,0,0,1.46-5.83,49.87,49.87,0,0,0,.66-5.76c0-2,0-3.93,0-5.84s.06-3.83.09-5.7q.15-5.57.29-10.77c0-3.28.37-7.76.57-11.73S235.51,492.78,235.56,491.64Z"></path></g><path class="cls-3" d="M125.09,465.67c5.8,17.53,2.33,24.35,8.44,31.07,6.23,5.45,20.27,11.53,27.65,13.48,9,2.38,18-1.53,23.86-5.7,0-.4.05-.81.08-1.22.41-1.72.38-14.3.38-16.35" transform="matrix(-1, 0, 0, 1, 380, 0)" style=""></path><path d="M185.55,487c.34.32.57,2.64.71,5.74.07,1.56.12,3.3.14,5.1,0,.9,0,1.81,0,2.72a24.25,24.25,0,0,1-.12,2.78v.14q0,.6,0,1.17l0,.53-.49.38c-1.53,1.19-3,2.14-4.07,2.86a31.16,31.16,0,0,1-7.77,3.71,25.87,25.87,0,0,1-9.14,1.23c-.8,0-1.59-.14-2.38-.23s-1.61-.28-2.33-.47c-1.48-.36-2.88-.8-4.29-1.25-2.78-.9-5.47-1.94-8.06-3a73.13,73.13,0,0,1-13-6.93,38.1,38.1,0,0,1-3-2.37,2.38,2.38,0,0,1-.29-.27l-.23-.28-.33-.41-.62-.79c-.38-.56-.75-1.15-1.09-1.73a20.71,20.71,0,0,1-2.16-7.24c-.29-2.27-.41-4.37-.56-6.38s-.32-3.94-.55-5.79c-.43-3.71-1-7.13-1.59-10.2a32.45,32.45,0,0,1,5.63,9.74,32.07,32.07,0,0,1,2.22,9.37c.06,3.54.3,6.59,1.83,9.1a9.26,9.26,0,0,0,.62.92l.25.38c0,.05.21.2.35.34.55.54,1.17,1,1.77,1.54a44.38,44.38,0,0,0,3.88,2.72A79.34,79.34,0,0,0,157,507.66c1.32.44,2.64.87,3.93,1.19a23.58,23.58,0,0,0,3.79.67,24,24,0,0,0,7.27-.66,37.92,37.92,0,0,0,12.13-5.68l-.69,1.24c0-.42.07-.83.11-1.23,0-.11,0-.31.06-.36.12-.72.19-1.7.27-2.57C184.1,496,185.27,488.43,185.55,487Z" transform="matrix(-1, 0, 0, 1, 380, 0)"></path><path class="cls-4" d="M155.4,504.9c-5-2.91-11.82-6.15-17.32-10.44-3.35-2.6-6.62-5.38-8.85-9,.61,4.62,1.3,7.95,4.3,11.26,6.23,5.45,20.27,11.53,27.65,13.48a22,22,0,0,0,3.34.61C161.14,507.56,159.45,507.28,155.4,504.9Z" transform="matrix(-1, 0, 0, 1, 380, 0)" style=""></path><path d="M155.41,504.89c.24,0,1.5.69,3.32,1.57a27.63,27.63,0,0,1,3,1.7,31.18,31.18,0,0,1,3.72,3.1s-.05,0-.12,0l-.17,0-.36,0-.69-.08-1.38-.19c-.47-.08-1-.17-1.45-.29l-1.29-.34c-1.37-.37-2.58-.75-3.51-1a93,93,0,0,1-13.22-5.36,71.26,71.26,0,0,1-6.44-3.59c-1-.67-2.05-1.36-3-2.12l-.72-.58-.19-.16a1.61,1.61,0,0,1-.23-.23l-.31-.35a17.69,17.69,0,0,1-1.13-1.49,15.85,15.85,0,0,1-2.16-4.93,39.06,39.06,0,0,1-.87-4.86l1.83-.66a29.7,29.7,0,0,0,6.05,6.73,66.34,66.34,0,0,0,6.86,5.23c4.6,3,9,5.43,12.56,7.75-2.26-.85-5.49-2.16-8.5-3.59a45.09,45.09,0,0,1-7.06-4,75.8,75.8,0,0,1-6.26-5.34,29,29,0,0,1-4.91-6l.9-.32a28.14,28.14,0,0,0,1.37,6.64,13.27,13.27,0,0,0,2.45,4.1l.25.29c.05.06.19.16.28.24l.61.49a57.88,57.88,0,0,0,10.3,6.17c3.43,1.66,6.76,3.05,9.95,4.24,1.61.59,3.17,1.14,4.71,1.62.36.12.81.23,1.1.32a5.26,5.26,0,0,0,.53.15,9.49,9.49,0,0,0,1.16.24c.07,0,.23,0,.22,0-.28-.29-.58-.63-1-1l-.38-.3c-.18-.14-.43-.31-.65-.46-.45-.3-.9-.59-1.35-.86C157.41,506.2,155.89,505.24,155.41,504.89Z" transform="matrix(-1, 0, 0, 1, 380, 0)"></path><g data-name="default" id="default-5" transform="matrix(-1, 0, 0, 1, 380, 0)"><ellipse class="cls-1 color-body" cx="182.67" cy="463" rx="57.58" ry="25.42" style=";fill:#ffffff;--backup-fill:#ffffff"></ellipse><path d="M240.21,463c-.11-.27-.14-1.13-.47-2.38a14.66,14.66,0,0,0-2.18-4.59c-2.34-3.47-6.91-6.87-12.27-9.44A75.78,75.78,0,0,0,208,441a102.62,102.62,0,0,0-14.76-2,135.56,135.56,0,0,0-20.59.35,109.46,109.46,0,0,0-20.92,3.9,69.4,69.4,0,0,0-10,3.74,40.87,40.87,0,0,0-8.83,5.47,16.73,16.73,0,0,0-5.58,7.74,10.27,10.27,0,0,0,1.43,8.55,22.32,22.32,0,0,0,5.86,5.89,45.26,45.26,0,0,0,7.54,4.25,80.74,80.74,0,0,0,16.64,5.22,127.57,127.57,0,0,0,33.62,2.16c10.8-.72,21-2.71,29.87-6.26a41.64,41.64,0,0,0,11.67-6.8,19,19,0,0,0,4-4.71,12,12,0,0,0,1.66-5.51,11.23,11.23,0,0,1-.85,5.66,18.88,18.88,0,0,1-3.8,5.7,40.87,40.87,0,0,1-12.39,8.47,76.89,76.89,0,0,1-23.56,6.51,130.92,130.92,0,0,1-14.72.63,135.53,135.53,0,0,1-14.23-.89,101.62,101.62,0,0,1-26.39-6.39,49.66,49.66,0,0,1-11.4-6.33,26.36,26.36,0,0,1-4.64-4.5,15.8,15.8,0,0,1-3-5.73,12.15,12.15,0,0,1,0-6.39,15.67,15.67,0,0,1,2.88-5.54,31.18,31.18,0,0,1,9.21-7.53A62.38,62.38,0,0,1,147.32,442,90.12,90.12,0,0,1,158,439.08a119.85,119.85,0,0,1,20.79-2.5,124.14,124.14,0,0,1,19.55.83,96.11,96.11,0,0,1,17.87,3.85c5.33,1.68,12.5,4.81,17.61,9.32a26.65,26.65,0,0,1,3.33,3.53,18.63,18.63,0,0,1,2.13,3.64A12.54,12.54,0,0,1,240.21,463Z"></path><path class="cls-1 color-body" d="M125.09,463.37c9,37.25,43.74,56,63.79,54.5,18.52-1.37,41.24-8.94,48.76-28.75,2.67-7.06,3.18-15.46,2-25.75" style=";fill:#ffffff;--backup-fill:#ffffff"></path><path d="M239.67,463.37a23.21,23.21,0,0,1,.81,4.95,59.62,59.62,0,0,1,.11,10.41,38.73,38.73,0,0,1-2.71,11.78c-.39.89-.76,1.77-1.13,2.62s-.88,1.58-1.29,2.32c-.2.37-.4.74-.6,1.08l-.66,1L233,499.21a41.7,41.7,0,0,1-10,9.53,57.56,57.56,0,0,1-12.84,6.49,77.87,77.87,0,0,1-14,3.62l-3.55.52-3.54.36a37,37,0,0,1-7.23-.17,51.72,51.72,0,0,1-11.9-2.88,67.53,67.53,0,0,1-10.84-5.08,73.4,73.4,0,0,1-17.68-14.38,74.2,74.2,0,0,1-6.54-8.41,79,79,0,0,1-4.92-8.7,69.86,69.86,0,0,1-5.4-16.61,122.54,122.54,0,0,0,8.06,15.84c1.64,2.69,3.43,5.16,5,7.3.8,1.05,1.54,2,2.21,2.87s1.25,1.61,1.71,2.22a68.27,68.27,0,0,0,27.68,21.58,48.86,48.86,0,0,0,15.64,3.82c.65,0,1.3,0,1.94,0s1.28,0,1.92-.07c1.28-.11,2.57-.23,3.83-.37s2.52-.33,3.75-.54,2.46-.43,3.66-.7c9.63-2,18.28-5.76,24.92-11.09a35.51,35.51,0,0,0,11.06-14.06,29.78,29.78,0,0,0,1.94-5.26,57.73,57.73,0,0,0,1.86-12.47C239.9,468.33,239.71,464.59,239.67,463.37Z"></path></g><path class="cls-3" d="M239.64,463.87s-22.14,22.63-64.39,20c-44.13-2.75-50.16-20-50.16-20,9,37.25,43.74,56,63.79,54.5,18.52-1.37,41.24-8.94,48.76-28.75C240.31,482.56,240.82,474.16,239.64,463.87Z" transform="matrix(-1, 0, 0, 1, 380, 0)" style=""></path><path d="M239.67,463.87a44.27,44.27,0,0,1,1,8.52A45.61,45.61,0,0,1,238.14,490l-1,2.37c-.17.39-.33.8-.52,1.19l-.65,1.14c-.44.75-.85,1.53-1.32,2.27l-1.53,2.14a18.23,18.23,0,0,1-1.66,2c-.59.64-1.13,1.33-1.76,1.93a44.3,44.3,0,0,1-3.82,3.37,56.57,56.57,0,0,1-14.76,8.26A81.13,81.13,0,0,1,200,518.05a88.79,88.79,0,0,1-11.79,1.73c-8.3.45-16.47-1.91-24-5.35A76.08,76.08,0,0,1,129.4,481a77,77,0,0,1-6.25-16.62l3.82-1.13.15.31a3,3,0,0,0,.21.39,6.61,6.61,0,0,0,.52.82,14.2,14.2,0,0,0,1.23,1.6c.43.53,1,1,1.43,1.5s1.05.91,1.57,1.38,1.13.84,1.69,1.27a16.36,16.36,0,0,0,1.76,1.18l1.82,1.1c.63.35,1.27.65,1.91,1a73.35,73.35,0,0,0,16.13,5.51c2.78.55,5.52,1.18,8.31,1.51l4.14.6,4.14.39c1.37.11,2.73.3,4.09.34l4.05.15c2.68.18,5.34,0,8-.06l2-.06,1.94-.2,3.84-.39c1.28-.1,2.51-.39,3.76-.57s2.48-.39,3.7-.66l3.59-.84c.6-.15,1.2-.27,1.78-.43l1.74-.52,3.42-1,3.31-1.22a82.13,82.13,0,0,0,12.12-5.73,60.51,60.51,0,0,0,10-7,52.26,52.26,0,0,1-10.67,9.17,78.35,78.35,0,0,1-14.7,7.66l-3.9,1.42c-1.29.46-2.6.78-3.87,1.16a75.09,75.09,0,0,1-7.36,1.73c-.58.11-1.15.24-1.71.33l-1.65.22-3.08.37a39,39,0,0,1-5,.32c-1.55,0-3.09.07-4.63.06l-4.58-.24c-3.05-.07-6-.51-9-.8-1.48-.13-2.94-.37-4.4-.6l-4.34-.69-4.27-.91-2.12-.45-2.08-.58c-1.38-.41-2.78-.72-4.12-1.19l-4-1.4-3.89-1.65c-1.26-.6-2.49-1.28-3.73-1.9a40.37,40.37,0,0,1-6.75-4.79,18.26,18.26,0,0,1-1.49-1.43l-.71-.75-.65-.8a14,14,0,0,1-2.23-3.58l1.62-.48a71.17,71.17,0,0,0,18.86,33.9,73.29,73.29,0,0,0,14.35,11.25A64.53,64.53,0,0,0,175,515.73a46.76,46.76,0,0,0,8.15,1.54,36.19,36.19,0,0,0,8.06-.17,82.06,82.06,0,0,0,15.4-3.09c9.72-3,18.47-7.88,24.35-14.91a38.09,38.09,0,0,0,8.45-19.45A78.32,78.32,0,0,0,239.67,463.87Z" transform="matrix(-1, 0, 0, 1, 380, 0)"></path><path class="cls-3" d="M186.89,511.45a20.74,20.74,0,0,1,4.73,5.62s22.89-.25,39-14c.82-.7,3.06-6.12,3.69-16.79.81,1.22,2,4.8,4.69,7.76.07-4.67,0-10.21.46-14.85" transform="matrix(-1, 0, 0, 1, 380, 0)" style=""></path><path d="M239.46,479.17c.34.32.35,2.52.43,5.4s.19,6.45.27,9.46l.09,3.08-2.18-2.29-.72-.75-.41-.45-.58-.65-.53-.56-.19-.2-.1-.07,0,0v.3c0,.77.07,1.55.11,2.34v.52s0,.05,0,0l0,.18-.06.38c-.14,1-.34,2.05-.57,3.08a26.58,26.58,0,0,1-.9,3.13c-.1.27-.19.53-.32.82a9,9,0,0,1-.44.92,5.66,5.66,0,0,1-.82,1.12,2.44,2.44,0,0,1-.45.42l-.31.26-2.38,2c-.81.62-1.66,1.17-2.48,1.76a55.44,55.44,0,0,1-18.16,7.87,68.15,68.15,0,0,1-8.94,1.47c-1.44.13-2.85.21-4.21.24-.69,0-1.36,0-2,0a28.41,28.41,0,0,1-3-.09l-.74-1.47-.62-1.11c-.29-.53-.59-1-.9-1.52a20.11,20.11,0,0,0-2-2.6,9.78,9.78,0,0,1,3.35,1.31,15.81,15.81,0,0,1,1.72,1.21c.13.1.29.25.4.33l.26.13.42.19c.41-.42,2.87-1,4.4-1.45a22.49,22.49,0,0,1,4-.77,50.89,50.89,0,0,0,13.46-2.35,43,43,0,0,0,11.26-5.4l1.24-.82,1.15-.91,1.13-.9.52-.42a1.16,1.16,0,0,0,.28-.34,9.13,9.13,0,0,0,.5-1.1c.16-.42.3-.85.43-1.28.26-.86.46-1.75.66-2.62l.24-1.32.24-1.47c.09-.67.18-1.32.26-2s.14-1.37.2-2.05c.21-2.81.39-5.83.54-8.61l.16.08c.06,0,.09,0,.18.17l.45.72.78,1.32q.87,1.47,1.74,2.91c.32.52.65,1.12,1,1.73s.65,1.26,1,1.83a17.28,17.28,0,0,0,1,1.58l.27.36.15.21.09.1.33.39L237.31,494c0-1.16.09-2.3.16-3.43a46.53,46.53,0,0,1,.84-6.64A43.6,43.6,0,0,1,239.46,479.17Z" transform="matrix(-1, 0, 0, 1, 380, 0)"></path><path d="M240.16,471.57a43.8,43.8,0,0,1-8,6.07c-1.11.67-2.24,1.38-3.41,2l-1.73,1-1.73.86-1.64.82L222,483c-1,.44-1.88.86-2.63,1.17A83.53,83.53,0,0,1,202,489.4a107.14,107.14,0,0,1-18.45,1.73,123.12,123.12,0,0,1-30-3.76c-9.13-2.4-17.07-6.26-22.06-11,1.3.84,2.91,1.81,4.69,2.74s3.75,1.78,5.68,2.55c3.87,1.52,7.64,2.59,9.61,3.2a112.28,112.28,0,0,0,43.89,4.26,95,95,0,0,0,32.46-10c2.1-1.05,4.89-2.64,7.3-4.13S239.51,472,240.16,471.57Z" transform="matrix(-1, 0, 0, 1, 380, 0)"></path><path class="cls-4" d="M238.87,481.85a24.71,24.71,0,0,1-5.38-13c-1.69,1.19-3.73,2.5-6.11,3.85a65.27,65.27,0,0,1,.91,18.66,16.54,16.54,0,0,1-2,6.65c-4.41,7.71-22.36,13.26-36.24,16.68l1.62,2.39s22.89-.25,39-14c.82-.7,3.06-6.12,3.69-16.79.81,1.22,2,4.8,4.69,7.76,0-1.11.34-5.3.84-11.1C239.48,482.56,239.16,482.21,238.87,481.85Z" transform="matrix(-1, 0, 0, 1, 380, 0)" style=""></path><path d="M238.88,481.84a4.08,4.08,0,0,1,.39.36l.32.32.2.22.12.12a1,1,0,0,1,0,.17c0,.85-.11,2-.18,3.35s-.18,2.91-.28,4.61c0,.5-.07,1-.11,1.55s-.09,1.11-.14,1.67l0,.43c0,.06,0,0,0,0l-.08-.08-.14-.16-.56-.66c-.37-.43-.74-.91-1.1-1.41-.19-.29-.31-.45-.44-.67s-.27-.41-.39-.62c-.26-.42-.49-.85-.73-1.29l-.48-.94-.43-.84a3.3,3.3,0,0,0-.23-.41c0-.06,0,0,0,.05v.12l0,.25-.06,1c0,.33-.05.66-.08,1s-.09.91-.14,1.35a48.62,48.62,0,0,1-1.9,9.43c-.15.46-.32.91-.52,1.37a4.42,4.42,0,0,1-.86,1.4l-2.27,1.84a25.44,25.44,0,0,1-2.38,1.74c-.82.56-1.63,1.15-2.51,1.63a57.88,57.88,0,0,1-11,5.15,74.46,74.46,0,0,1-11.9,3.13c-2,.37-4.05.64-6.07.83-.51.05-1,.1-1.53.13l-.76.05-1.18,0h-.18a.71.71,0,0,1-.1-.14l-.21-.29-.35-.52-.42-.62-1.6-2.33L193,513l3.08-.84c7.38-2.1,14.73-4.45,21.24-7.89a36.31,36.31,0,0,0,4.59-2.89,15.59,15.59,0,0,0,3.5-3.73,14.89,14.89,0,0,0,1.78-4.73,41.26,41.26,0,0,0,.51-5.13,66.92,66.92,0,0,0-.28-10.06c-.09-.81-.19-1.61-.3-2.41l-.18-1.19c-.09-.54-.18-1.07-.28-1.61l0-.13s.07,0,.09-.07l.23-.12.44-.25.64-.36,1-.58q1-.6,2-1.2l1.05-.67,1.51-1,.37-.25,0,0V468l0,.22.11.9.21,1.55a25.75,25.75,0,0,0,1,4.11,24.39,24.39,0,0,0,3.73,6.92,22.13,22.13,0,0,1-4.45-6.68c-.3-.7-.58-1.42-.82-2.17-.13-.38-.23-.76-.34-1.14l-.27-1.09c-.14-.45-.07-.93-.44-.5l-.18.15-.11.08-.24.18-1,.68c-.65.45-1.31.89-2,1.31l-.92.57-.06.06a.11.11,0,0,0,0,.08,2.58,2.58,0,0,1,.08.38l.11.54c.07.36.14.72.2,1.07.13.71.23,1.4.33,2.06a48.52,48.52,0,0,1,.47,6.54,66.81,66.81,0,0,1-.45,7.67,16.67,16.67,0,0,1-2.51,7.25,18.57,18.57,0,0,1-5.44,5,49.56,49.56,0,0,1-6.25,3.33,108.84,108.84,0,0,1-12.63,4.63c-2.08.65-4.14,1.23-6.16,1.79l-3,.8-2.45.62,1,1.43.21.31a1.29,1.29,0,0,0,.34,0l1.11-.06c1.49-.1,3-.26,4.41-.45a72.47,72.47,0,0,0,8.42-1.63,65.15,65.15,0,0,0,15-5.7c1.1-.65,2.23-1.24,3.28-1.91s2.09-1.37,3.07-2.1,2-1.53,2.81-2.23a6,6,0,0,0,.74-1.42c.23-.53.41-1.09.59-1.64a47.68,47.68,0,0,0,1.47-6.73c.08-.56.17-1.12.23-1.67l.1-.83.05-.45.06-.62c.14-1.67.29-3.19.51-4.35.34.54.6,1,.91,1.56s.62,1.19,1,1.89c.16.32.31.64.47,1l.36.68q.36.69.78,1.38l.33.53.29.42.32.44.17.22s.08.1.08.07l0-.12c.09-.8.18-1.61.26-2.38.22-2.11.43-4.07.6-5.65q.06-.6.12-1.11a2.89,2.89,0,0,0,0-.91Z" transform="matrix(-1, 0, 0, 1, 380, 0)"></path><path class="cls-2" d="M222.52,551.69c-1.11-8.09,9.12-8.93,13.77-21.26,1-2.55,2.66,5,2.36,8.92-.09,1.3-.12,5.1-1,7.15-6.83,16.15-28.25,29.19-44.58,22.85-10.09-3.92,5.18-7.38,9.41-9,7.56-3.94,6.72-2.59,14.17-6.72" transform="matrix(-1, 0, 0, 1, 380, 0)" style=""></path><path d="M216.68,553.64a13.14,13.14,0,0,1-3.16,2.16c-.92.51-2,1.08-3.25,1.62s-2.52,1.1-3.84,1.75c-.66.33-1.33.67-2,1l-1,.54-.52.28c-.25.12-.42.17-.61.25-1.47.55-2.9,1-4.26,1.5s-2.63,1-3.73,1.47c-.55.26-1.06.51-1.51.77a6.1,6.1,0,0,0-1,.69c-.3.27-.59.61-.48,1a1.46,1.46,0,0,0,.85.69,21.68,21.68,0,0,0,4.56,1.39,26.49,26.49,0,0,0,9.92-.08,39.86,39.86,0,0,0,17.92-8.81,44.2,44.2,0,0,0,6.81-7.15,37.41,37.41,0,0,0,2.65-4c.39-.69.76-1.39,1.09-2.1l.48-1.05a5.35,5.35,0,0,0,.27-.85,29.27,29.27,0,0,0,.54-4.54l.09-1.22c0-.34,0-.69,0-1s0-.73,0-1.1l-.07-.92a2.58,2.58,0,0,0,0-.6c0-.06,0-.15-.08-.19s-.06,0-.09,0l-.17.23-.19.23-.06.08-.25.36-.5.72A15.49,15.49,0,0,1,234,538.1c-.36.44-.71.87-1.1,1.27a46.63,46.63,0,0,1-4.63,4.23,21.76,21.76,0,0,0-3.82,3.68,6.66,6.66,0,0,0-1.23,4.32c-.13-.34-.25-.72-.38-1.13a7.53,7.53,0,0,1-.18-1.31,11,11,0,0,1,.13-1.46,11.34,11.34,0,0,1,.5-1.49,24.89,24.89,0,0,1,3.83-5.39,50,50,0,0,0,3.69-4.79c.24-.39.5-.76.72-1.13l.62-1.08.15-.26,0-.06.07-.12,0-.07.14-.3c.19-.4.37-.8.54-1.19.37-.77.71-1.51,1-2.21l.27-.57c.08-.14.15-.13.23-.2l.42-.29.74-.46.36-.23.18-.11h.13a3.11,3.11,0,0,1,.41,0,1.52,1.52,0,0,1,.53.13,2.94,2.94,0,0,1,1.37,1.24,15.4,15.4,0,0,1,1.46,5.65c0,.24.07.57.07.72l0,.47,0,.94c0,.63,0,1.26,0,1.9s-.12,1.16-.18,1.77l-.18,1.75a23.85,23.85,0,0,1-.69,3.59c-.1.3-.2.61-.34.93s-.26.54-.39.81c-.25.52-.51,1-.8,1.53a40.68,40.68,0,0,1-3.73,5.6,48.16,48.16,0,0,1-9.14,8.83,47.27,47.27,0,0,1-10.38,5.85A36,36,0,0,1,203.54,572a26.15,26.15,0,0,1-10.55-1.4c-.42-.13-.82-.32-1.23-.48-.21-.08-.41-.19-.61-.29l-.32-.16-.39-.24a3.65,3.65,0,0,1-2-2.74,3.57,3.57,0,0,1,1.73-2.87,9.1,9.1,0,0,1,1.24-.78c.37-.21.74-.39,1.11-.56a70.4,70.4,0,0,1,8.58-2.93l.93-.3,1-.45c.72-.33,1.49-.67,2.29-1,1.58-.65,3.3-1.19,4.84-1.67C213.21,555.17,215.81,554,216.68,553.64Z" transform="matrix(-1, 0, 0, 1, 380, 0)"></path><path class="cls-2" d="M193.38,530c-4.19,9.8-10.78,16.88-1.15,13.85,2.55-.81.17-6.82-.59-9.66" transform="matrix(-1, 0, 0, 1, 380, 0)" style=""></path><path d="M191.67,534.19c.73,0,2.13,4.26,2.76,6.12a6.89,6.89,0,0,1,.31,1.11,4,4,0,0,1,.09.63,5.12,5.12,0,0,1,0,.87,3.59,3.59,0,0,1-.62,1.61,4.13,4.13,0,0,1-1.44,1.09l-.55.2-.36.14-.74.26-1.21.28a9.52,9.52,0,0,1-1.29.12,3.79,3.79,0,0,1-2.23-.63,3.06,3.06,0,0,1-1.24-1.86,6.21,6.21,0,0,1,.55-3.72,20.13,20.13,0,0,1,1-2.06A39.25,39.25,0,0,1,188.7,535a46.78,46.78,0,0,1,4.07-5.22c1.16,2.23.91,5.76.08,6.59a32.12,32.12,0,0,0-2.7,3.13,15.34,15.34,0,0,0-1.67,2.71,1.48,1.48,0,0,0-.09,1.07.93.93,0,0,0,.93.33,4.16,4.16,0,0,0,1-.21l.67-.22a4.31,4.31,0,0,0,.58-.22.85.85,0,0,0,.55-.68.75.75,0,0,0,0-.21,1.44,1.44,0,0,1,0-.21c0-.23,0-.45-.06-.69-.12-1-.34-1.95-.48-2.91A15.17,15.17,0,0,1,191.67,534.19Z" transform="matrix(-1, 0, 0, 1, 380, 0)"></path><path class="cls-2" d="M230.71,555.6c-1.13-1.62-3.91-2.19-5.84-3.6-2.51-1.86-4.35-4.32-6.12-5.54-7.2-5-13.16-5.93-22.6-4.49-3.35.52-7.39,2.69-9.65,3.42C176.76,573.45,206.3,580,223,565.16,230.27,558.7,230.71,555.6,230.71,555.6Z" transform="matrix(-1, 0, 0, 1, 380, 0)" style=""></path><path d="M230.74,555.6c.17.3-.19,1.66-1.26,3.32a38.54,38.54,0,0,1-11.36,10.83,35,35,0,0,1-6.34,3,27.17,27.17,0,0,1-9.67,1.74c-.86,0-1.72-.08-2.58-.12s-1.74-.22-2.6-.44a20.15,20.15,0,0,1-5.05-1.83,17,17,0,0,1-4.44-3.28,16.2,16.2,0,0,1-3.18-4.56,20.89,20.89,0,0,1-1.84-10.46l.08-1.2c0-.4.11-.79.16-1.18.12-.79.23-1.57.42-2.33s.32-1.53.56-2.25c.33-1.08.66-2.16,1-3.22l1.68-.6.38-.14.19-.08.39-.16,1.61-.68c1.1-.46,2.22-.92,3.41-1.32a20.58,20.58,0,0,1,3.77-.93c1.17-.16,2.35-.29,3.53-.38a33.71,33.71,0,0,1,7.1.14,24,24,0,0,1,6.69,1.87,30.4,30.4,0,0,1,5.59,3.27l.62.46a8.33,8.33,0,0,1,.67.54,15.12,15.12,0,0,1,1.14,1.11c.69.73,1.3,1.44,1.92,2.11s1.21,1.29,1.82,1.86a11.5,11.5,0,0,0,.92.76,11,11,0,0,0,1,.65c.71.42,1.46.82,2.2,1.29a6,6,0,0,1,2,1.86c-1.6-1.3-3.56-1.25-5.7-2a22.91,22.91,0,0,1-5.87-3.73c-.43-.33-.85-.65-1.25-.93a11.46,11.46,0,0,0-1.2-.7c-.88-.48-1.74-.92-2.53-1.3-1.58-.77-2.92-1.3-3.84-1.7-3.78-1.76-8.09-2-12.28-1.73-1,.08-2.15.16-3.06.32a20.84,20.84,0,0,0-2.88.77c-1,.32-1.91.69-2.87,1.07l-1.44.56L188,546l-.23.08-.41.13c-.08.17-.14.37-.21.57l-.32,1c-.25.67-.37,1.35-.55,2a15.57,15.57,0,0,0-.41,2l-.17,1c0,.34-.06.67-.09,1a18.82,18.82,0,0,0,.79,7.67,13.77,13.77,0,0,0,3.94,6,16.32,16.32,0,0,0,6,3.32,24.65,24.65,0,0,0,12.89.14,28.84,28.84,0,0,0,5.72-2,31.46,31.46,0,0,0,5-2.84,67.88,67.88,0,0,0,6.79-5.5C229,558.55,230.5,556.46,230.74,555.6Z" transform="matrix(-1, 0, 0, 1, 380, 0)"></path><path d="M222.24,555.5a5.51,5.51,0,0,1-3-.72,24.81,24.81,0,0,1-3.6-2.5c-.7-.52-1.41-1-2.16-1.49a20,20,0,0,0-2.41-1.18,25.19,25.19,0,0,0-5.13-1.58,26.74,26.74,0,0,0-8.73-.14c-2.74.37-5.21,1-7.23,1.45a13.87,13.87,0,0,1,6.11-3,30.32,30.32,0,0,1,13.64,1.47c.93.36,1.84.72,2.68,1.13a12.62,12.62,0,0,1,2.4,1.41c1.43,1.07,2.56,2.21,3.71,3.1a14,14,0,0,0,2.05,1.36A11.22,11.22,0,0,0,222.24,555.5Z" transform="matrix(-1, 0, 0, 1, 380, 0)"></path></svg>