<svg xmlns="http://www.w3.org/2000/svg" id="outfits_1" viewBox="0 0 380 600"><defs transform="matrix(-1, 0, 0, 1, 380, 0)"><style>.cls-1{fill:#ffffff;}.cls-2{fill:#c4a783;}.cls-3{fill:#ff4500;}.cls-4{opacity:0.3;}</style></defs><g id="default" transform="matrix(-1, 0, 0, 1, 380, 0)"><ellipse class="cls-1 color-body" cx="182.666" cy="463" rx="57.576" ry="25.423" style="fill:#ffffff;--backup-fill:#ffffff" /><path d="M240.211,463c-.114-.271-.144-1.126-.47-2.383a14.723,14.723,0,0,0-2.181-4.591c-2.335-3.467-6.908-6.866-12.274-9.432a75.9,75.9,0,0,0-17.249-5.618,102.84,102.84,0,0,0-14.759-1.964,135.987,135.987,0,0,0-20.584.343,109.734,109.734,0,0,0-20.919,3.9,69.213,69.213,0,0,0-9.97,3.745,40.718,40.718,0,0,0-8.837,5.466,16.685,16.685,0,0,0-5.575,7.735,10.261,10.261,0,0,0,1.424,8.555,22.216,22.216,0,0,0,5.861,5.89,45.57,45.57,0,0,0,7.546,4.253,80.686,80.686,0,0,0,16.634,5.219,127.648,127.648,0,0,0,33.621,2.159c10.8-.726,21.043-2.715,29.867-6.26a41.746,41.746,0,0,0,11.673-6.8,18.979,18.979,0,0,0,3.987-4.717A12.042,12.042,0,0,0,239.673,463a11.351,11.351,0,0,1-.855,5.665,18.9,18.9,0,0,1-3.8,5.7,40.971,40.971,0,0,1-12.386,8.469,77.077,77.077,0,0,1-23.558,6.506,131.539,131.539,0,0,1-14.729.628,134.9,134.9,0,0,1-14.228-.887,101.914,101.914,0,0,1-26.391-6.391,49.651,49.651,0,0,1-11.4-6.334,26.141,26.141,0,0,1-4.635-4.491,15.894,15.894,0,0,1-2.952-5.731,12.1,12.1,0,0,1,.04-6.4,15.8,15.8,0,0,1,2.875-5.539,31.321,31.321,0,0,1,9.217-7.53,61.831,61.831,0,0,1,10.449-4.645,89.063,89.063,0,0,1,10.632-2.939,118.5,118.5,0,0,1,20.785-2.5,123.865,123.865,0,0,1,19.548.826,95.724,95.724,0,0,1,17.875,3.855c5.324,1.678,12.5,4.808,17.609,9.32a26.265,26.265,0,0,1,3.327,3.531,18.324,18.324,0,0,1,2.135,3.632A12.689,12.689,0,0,1,240.211,463Z" /></g><g data-name="default" id="default-2" transform="matrix(-1, 0, 0, 1, 380, 0)"><path class="cls-1 color-body" d="M125.09,465.174c5.8,23.743,18.27,52.938,19.509,54.494-3.335,2.573-6.523,8.2-8.277,11.353-2.445,4.392-3.01,9.99-.8,14.507,3.815,7.814,14.166,9.864,22.608,8.131,9.719-2,16.627-7.8,22.451-15.923,4.489-6.264,4.1-13.863,4.542-21.582.415-2.34.386-19.372.381-22.154" style="fill:#ffffff;--backup-fill:#ffffff" /><path d="M185.561,494c.386.46.657,3.336.839,7.408.091,2.035.159,4.37.2,6.853.011,1.244.022,2.524.032,3.821-.014,1.314.006,2.6-.12,4.032l-.012.154c-.1,3.19-.061,6.448-.27,9.448a37.112,37.112,0,0,1-1.272,7.843,21.224,21.224,0,0,1-1.4,3.6,19.775,19.775,0,0,1-.963,1.732c-.339.556-.675,1.04-1.017,1.566a49.128,49.128,0,0,1-4.715,5.977,35.163,35.163,0,0,1-13.226,9.085,31.667,31.667,0,0,1-16.47,1.866,23.979,23.979,0,0,1-8.214-2.871,17.767,17.767,0,0,1-6.436-6.438,17.336,17.336,0,0,1-2.33-8.781,20.948,20.948,0,0,1,1.812-8.54c.276-.645.657-1.357.953-1.9l.892-1.579c.608-1.056,1.241-2.111,1.914-3.155s1.384-2.078,2.162-3.1c.387-.509.8-1.015,1.227-1.517l.58-.646.016,0a.222.222,0,0,0,.044-.014l.008-.038v-.014l0,0c0-.009.02.037-.032-.079l-.426-.966-.8-1.9q-.759-1.893-1.508-3.763-1.452-3.741-2.75-7.4c-1.731-4.875-3.28-9.625-4.622-14.212a181.747,181.747,0,0,1-5.679-25.02c2.771,4.383,6.071,10.809,9.048,16.9,2.958,6.094,5.551,11.869,6.454,15.082.95,3.43,1.978,6.777,3.045,10.047q.805,2.451,1.652,4.83.435,1.182.864,2.353l.443,1.151.31.757c.127.315.3.617.39.932,0,.853-.018,1.774.039,2.336a3.828,3.828,0,0,1-.357.967l-.427,1.168c-.383.357-.805.71-1.146,1.062-.205.217-.419.418-.619.649-.407.445-.8.911-1.187,1.393-.77.964-1.5,1.981-2.192,3.02s-1.358,2.1-2,3.181c-.338.562-.619,1.041-.875,1.542a15.855,15.855,0,0,0-.684,1.552c-1.609,4.224-1.24,9.116,1.388,12.434A12.872,12.872,0,0,0,143,550.7a19.845,19.845,0,0,0,6.082,1.717A26.9,26.9,0,0,0,161.268,551a30.356,30.356,0,0,0,10.006-5.917,47.144,47.144,0,0,0,7.375-8.4,20.864,20.864,0,0,0,3.478-9.275c.51-3.331.617-6.765.9-10.167.024-.333.049-.676.086-1.186.01-.081.033-.3.048-.351.12-.774.213-1.793.314-2.82s.207-2.124.314-3.223c.231-2.209.468-4.48.688-6.6C184.942,498.831,185.385,495.226,185.561,494Z" /></g><g data-name="default" id="default-3" transform="matrix(-1, 0, 0, 1, 380, 0)"><path class="cls-1 color-body" d="M125.09,463.371c9.04,37.246,43.743,55.977,63.789,54.5,18.518-1.37,41.244-8.937,48.759-28.749,2.676-7.054,3.186-15.453,2-25.746" style="fill:#ffffff;--backup-fill:#ffffff" /><path d="M239.67,463.367a23.523,23.523,0,0,1,.808,4.951,59.335,59.335,0,0,1,.111,10.411,38.47,38.47,0,0,1-2.714,11.776c-.384.9-.759,1.777-1.122,2.624-.447.807-.879,1.584-1.289,2.324-.208.369-.4.736-.6,1.08l-.662.957-1.18,1.722a41.708,41.708,0,0,1-10.035,9.529,57.756,57.756,0,0,1-12.839,6.488,78.24,78.24,0,0,1-14,3.625l-3.549.513-3.541.364a37.861,37.861,0,0,1-7.229-.169,51.959,51.959,0,0,1-11.9-2.883,67.6,67.6,0,0,1-10.842-5.082A73.314,73.314,0,0,1,141.4,497.223a74.162,74.162,0,0,1-6.545-8.417,77.08,77.08,0,0,1-4.917-8.7,70.281,70.281,0,0,1-5.405-16.6,122.8,122.8,0,0,0,8.063,15.833c1.644,2.69,3.425,5.163,4.976,7.3l2.209,2.876c.684.841,1.251,1.6,1.719,2.219a68.112,68.112,0,0,0,27.676,21.573,48.544,48.544,0,0,0,15.644,3.82c.649.033,1.295.032,1.938.049.643,0,1.28-.047,1.917-.068,1.284-.11,2.567-.232,3.832-.368,1.261-.181,2.516-.331,3.751-.538,1.23-.236,2.459-.43,3.661-.7,9.624-2.051,18.282-5.769,24.919-11.1a40.1,40.1,0,0,0,8.31-8.951,39.222,39.222,0,0,0,2.748-5.105,30.235,30.235,0,0,0,1.942-5.261,58.2,58.2,0,0,0,1.858-12.467C239.9,468.331,239.707,464.592,239.67,463.367Z" /></g><g data-name="default" id="default-4" transform="matrix(-1, 0, 0, 1, 380, 0)"><path class="cls-1 color-body" d="M235.5,491.648a63.409,63.409,0,0,0-26.927,5.575A62.2,62.2,0,0,0,187.5,513c4.568,5.6,4.084,11.914,5.006,18.762C189.5,537,186.5,544,187.1,551.2c.9,10.771,7.485,16.831,17.718,17.24,7.847.315,16.58-3.8,21.823-9.859,6.039-6.977,8.861-14.58,9.651-24.01C236.5,520,237.239,507.763,235.5,491.648Z" style="fill:#ffffff;--backup-fill:#ffffff" /><path class="cls-1 color-body" d="M187.5,513c4.568,5.6,4.084,11.914,5.006,18.762C189.5,537,186.5,544,187.1,551.2c.9,10.771,7.485,16.831,17.718,17.24,7.847.315,16.58-3.8,21.823-9.859,6.039-6.977,8.861-14.58,9.651-24.01.21-14.57.949-26.807-.788-42.922" style="fill:#ffffff;--backup-fill:#ffffff" /><path d="M235.563,491.641c.678.579,1.691,6.775,2.154,14.017.5,7.239.47,15.461.734,20.014q.15,3.015.305,6.127c.035,1.068.118,2.12.1,3.241l-.087,1.725-.134,1.665a41.554,41.554,0,0,1-3.526,13.37,39.683,39.683,0,0,1-3.538,6.155q-1.024,1.443-2.135,2.807c-.381.46-.809.926-1.214,1.386l-1.295,1.3a34.11,34.11,0,0,1-12.184,7.348,29.011,29.011,0,0,1-6.067,1.418,27.478,27.478,0,0,1-6.318.023,25.166,25.166,0,0,1-6.22-1.542,19.548,19.548,0,0,1-5.639-3.433,18.689,18.689,0,0,1-4.131-5.074,22.277,22.277,0,0,1-2.245-5.788,29.2,29.2,0,0,1-.534-2.912c-.086-.966-.214-1.9-.216-2.891a27.472,27.472,0,0,1,.475-5.678,36.325,36.325,0,0,1,3.48-9.874c.378-.738.769-1.459,1.176-2.157.2-.352.406-.7.615-1.037l.155-.255.078-.127c.008-.01.009-.006.021-.022l.11-.127.112-.135.014-.168a3.122,3.122,0,0,0,0-.637l-.076-2.238a57.591,57.591,0,0,0-.5-7.965,17.536,17.536,0,0,0-2.414-6.462,13.516,13.516,0,0,1,5.347,5.691,40.084,40.084,0,0,1,3,8.721q.136.531.273,1.057l.134.518.066.257c.022.089.04.145.077.335q.192.969.382,1.924c.007.08.051.166.027.24l-.1.216-.205.434-.415.873a10.986,10.986,0,0,0-.5,1.174l-.34.885q-.322.87-.626,1.683c-.776,2.161-1.355,3.953-1.838,5.156a22.185,22.185,0,0,0-1.713,7.369,19.536,19.536,0,0,0,1.026,7.289,13.235,13.235,0,0,0,3.947,5.7,15.45,15.45,0,0,0,6.314,3.017,22.489,22.489,0,0,0,13.836-1.435,26.649,26.649,0,0,0,10.651-7.948,35.228,35.228,0,0,0,6.1-11.033,39.591,39.591,0,0,0,1.462-5.835,49.863,49.863,0,0,0,.655-5.756q.012-2.973.025-5.847.047-2.9.093-5.7.15-5.571.289-10.764c.046-3.284.364-7.768.566-11.74S235.508,492.776,235.563,491.641Z" /></g><path class="cls-2" d="M188.946,544.22c6.3-1.852,12.954-3.052,19.434-1.983,12.791,2,25.411,16.042,7.755,22.592.083-12.01-24.447-20.286-29.408-8.1-1.723-3.017-3.065-12.168,2.1-11.7" transform="matrix(-1, 0, 0, 1, 380, 0)" /><path d="M188.829,545.062a9.2,9.2,0,0,0-1.5.481,3.493,3.493,0,0,0-1.5,2.694,10.627,10.627,0,0,0-.075,2.142c.019.379.061.766.11,1.157l.091.59c.036.2.07.4.1.521a10.424,10.424,0,0,0,.478,1.61,6.094,6.094,0,0,0,.338.72c.033.039.067.146.1.13l.09-.2.177-.39a6.272,6.272,0,0,1,.783-1.2l.1-.13.132-.131.419-.4a7.738,7.738,0,0,1,.872-.7,12.469,12.469,0,0,1,3.364-1.674,17.446,17.446,0,0,1,7.618-.6,24.316,24.316,0,0,1,7.566,2.252,20.875,20.875,0,0,1,6.568,4.837,13.6,13.6,0,0,1,2.338,3.58,7.026,7.026,0,0,1,.4,1.022l.206.639a.882.882,0,0,1,.039.108.385.385,0,0,0,.125-.078c.023-.014-.051.019.051-.033.153-.081.315-.15.459-.239l.862-.517a11.052,11.052,0,0,0,2.345-1.972,5.536,5.536,0,0,0,1.224-2.334,6.588,6.588,0,0,0-1.41-5.144,17.49,17.49,0,0,0-4.53-4.292,24.167,24.167,0,0,0-5.578-2.8,25.894,25.894,0,0,0-5.891-1.259,36.611,36.611,0,0,0-5.81-.13,70.692,70.692,0,0,0-10.388,1.44,33.024,33.024,0,0,1,10.451-4.166,23.172,23.172,0,0,1,10.134-.107,27.858,27.858,0,0,1,9.122,4.46,18.6,18.6,0,0,1,6.2,7.339,8.854,8.854,0,0,1,.608,4.79,8.138,8.138,0,0,1-2.14,4.143,13.548,13.548,0,0,1-3.462,2.653,10.3,10.3,0,0,1-.93.5c-.339.162-.828.407-1.223.572l-1.268.519-.633.257c-.195.063-.47.244-.539.121-.048-.647-.046-1.288-.154-1.932l-.128-.963a1.651,1.651,0,0,0-.057-.251l-.047-.147-.092-.293a10.076,10.076,0,0,0-1.035-2.216,14.312,14.312,0,0,0-3.281-3.563,22.118,22.118,0,0,0-8.339-4.012,17.99,17.99,0,0,0-8.383-.267,9.926,9.926,0,0,0-3.455,1.512,4.456,4.456,0,0,0-.708.563l-.168.148-.087.077a1.8,1.8,0,0,0-.172.176c-.171.224-.331.48-.5.716a25.233,25.233,0,0,0-1.847,3.243l-.359-.138-.088-.032c-.029-.007-.056-.006-.1-.1l-.217-.429a20.451,20.451,0,0,1-.956-2.2,14.665,14.665,0,0,1-.646-2.772c-.043-.268-.049-.422-.067-.606l-.035-.544c-.018-.363-.022-.729-.013-1.093a11.913,11.913,0,0,1,.236-2.15,4.731,4.731,0,0,1,1.937-3.225A3.05,3.05,0,0,1,188.829,545.062Z" transform="matrix(-1, 0, 0, 1, 380, 0)" /><path class="cls-2" d="M185.729,549.046c-.63,48.471,63.535,16.712,49.322-20.025-3.56,8.919-6.436,18.665-12.7,26.106-9.245,11.143-35.906,9.1-36.721-7.659" transform="matrix(-1, 0, 0, 1, 380, 0)" /><path d="M185.664,547.467a26.612,26.612,0,0,0,1.4,4.616,14.412,14.412,0,0,0,6.807,6.812,24.059,24.059,0,0,0,11.036,2.4,25.326,25.326,0,0,0,9.08-1.729,18,18,0,0,0,7.118-4.979,42.354,42.354,0,0,0,4.991-7.865,93.152,93.152,0,0,0,3.774-8.871q.987-2.665,1.97-5.325c1.072-2.88,2.161-5.669,3.281-8.575.178.385.392,1.04.589,1.568l.6,1.669c.373,1.077.768,2.069,1.116,3.2l.5,1.75c.17.575.331,1.168.455,1.8l.253,1.44c.065.352.091.708.138,1.062a30.114,30.114,0,0,1-.16,8.393,33.106,33.106,0,0,1-4.157,11.548,39.732,39.732,0,0,1-7.555,9.335,40.513,40.513,0,0,1-9.682,6.554,31.434,31.434,0,0,1-10.944,3.094,20.109,20.109,0,0,1-10.858-1.951,17.139,17.139,0,0,1-7.311-7.3,25.928,25.928,0,0,1-2.729-8.859,43.048,43.048,0,0,1-.217-8.21,71.971,71.971,0,0,0,1.715,7.975,26.827,26.827,0,0,0,3.819,8.162,15.242,15.242,0,0,0,6.061,5.022,19.737,19.737,0,0,0,5.535,1.489,22.228,22.228,0,0,0,8.309-.561,31.815,31.815,0,0,0,7.781-3.11,37.085,37.085,0,0,0,12.074-10.755,30.7,30.7,0,0,0,5.666-14.1,27.53,27.53,0,0,0-.062-7.292l-.137-.8c-.034-.182-.056-.371-.1-.552-.09-.363-.16-.727-.264-1.079s-.2-.7-.324-1.039l-.183-.5c-.062-.126-.119-.484-.187-.161q-.919,2.481-1.808,4.877c-.86,2.31-1.73,4.583-2.677,6.79a50.236,50.236,0,0,1-6.993,12.125,17.646,17.646,0,0,1-5.266,4.437,24.018,24.018,0,0,1-6.128,2.4,28.112,28.112,0,0,1-12.306.225,21.833,21.833,0,0,1-5.916-2.1,16.332,16.332,0,0,1-5.256-4.339,13.082,13.082,0,0,1-2.5-5.257,7.762,7.762,0,0,1-.2-1.121,9.027,9.027,0,0,1-.109-.96C185.684,548.225,185.672,547.769,185.664,547.467Z" transform="matrix(-1, 0, 0, 1, 380, 0)" /><path class="cls-2" d="M136.175,531.408c9.823.384,17.014,9.047,19.625,17.958,2.526-1.351,8.449-3.261,6.444-6.969-3.577-9.035-18.477-24.681-25.74-11.16" transform="matrix(-1, 0, 0, 1, 380, 0)" /><path d="M136.477,531.222a1.467,1.467,0,0,1,.167-.686,6.472,6.472,0,0,1,.679-1.313,8.714,8.714,0,0,1,3.335-3.134,8.349,8.349,0,0,1,5.35-.687,17.032,17.032,0,0,1,4.146,1.425,26.618,26.618,0,0,1,8.008,6.161,32.079,32.079,0,0,1,5.807,8.726l-.093-.2a5.026,5.026,0,0,1,.6,3.123,5.437,5.437,0,0,1-1.375,2.62,12.725,12.725,0,0,1-3.324,2.377l-.81.413-1.276.616c-1.019.488-2.065,1.041-3.066,1.545l-1.275-3.918-.4-1.043c-.1-.3-.228-.585-.361-.869-.256-.57-.5-1.146-.793-1.688-.273-.555-.561-1.1-.88-1.616a26.967,26.967,0,0,0-4.269-5.566,20.465,20.465,0,0,0-5.133-3.748,19.788,19.788,0,0,0-5.357-1.784,15.322,15.322,0,0,1,1.639-.446,15.9,15.9,0,0,1,1.96-.177,19.39,19.39,0,0,1,2.138.172,16.567,16.567,0,0,1,2.149.532,14.192,14.192,0,0,1,6.054,3.769,32.946,32.946,0,0,1,4.152,6.571,28.422,28.422,0,0,1,2.1,5.67l.674-.277.357-.147.56-.25a15.3,15.3,0,0,0,2.267-1.235,4.339,4.339,0,0,0,1.522-1.591,1.992,1.992,0,0,0-.158-1.8l-.023-.044-.016-.039a27.023,27.023,0,0,0-3.6-6.047,35,35,0,0,0-4.451-4.795,24.357,24.357,0,0,0-4.827-3.428,13.031,13.031,0,0,0-2.483-1.029,8.381,8.381,0,0,0-2.446-.393,7.724,7.724,0,0,0-2.23.32,8.308,8.308,0,0,0-2.3,1.175A14.922,14.922,0,0,0,136.477,531.222Z" transform="matrix(-1, 0, 0, 1, 380, 0)" /><path class="cls-2" d="M134.583,540.043c-1.6,3.13-.053,5.749,2.915,7.636,10.787,6.58,22.708.775,30.674-7.6,5.4-5.017,8.714-10.854,12.979-16.863,1.246-2.239,3.286-.407,3.084,1.79-.236,11.326-7.706,21.665-17.4,27.529-10.605,8.652-42.593,4.324-32.543-13.2" transform="matrix(-1, 0, 0, 1, 380, 0)" /><path d="M134.32,539.354c.035.361-.783,1.784-1.259,4.042a8.45,8.45,0,0,0,.009,3.835,8.034,8.034,0,0,0,2.23,3.841,17.849,17.849,0,0,0,8.8,4.187,31.087,31.087,0,0,0,8.145.588A29.4,29.4,0,0,0,163,553.25a14.417,14.417,0,0,0,2.321-1.418l.56-.432.733-.5,1.2-.816a42.471,42.471,0,0,0,4.471-3.75,35.554,35.554,0,0,0,6.9-9.286c.465-.837.8-1.73,1.184-2.593.31-.891.668-1.764.891-2.67a26.923,26.923,0,0,0,.635-2.7c.092-.45.124-.908.19-1.359a10.871,10.871,0,0,0,.128-1.3l.061-1.263a.047.047,0,0,0-.023-.029c-.018-.014-.041.008-.039.023h0l-4.656,6.83a63.2,63.2,0,0,1-5.826,7.292c-1.085,1.159-2.178,2.121-3.242,3.185a39.212,39.212,0,0,1-3.443,2.969,34.583,34.583,0,0,1-7.668,4.524,24.682,24.682,0,0,1-8.347,1.968,20.027,20.027,0,0,1-8-1.235l-1.768-.78c-.573-.274-1.1-.627-1.641-.933a10.69,10.69,0,0,1-2.888-2.387,6.1,6.1,0,0,1-1.5-3.428,5.777,5.777,0,0,1,.84-3.377,5.82,5.82,0,0,0-.048,3.443,5.745,5.745,0,0,0,2.24,2.8,11.48,11.48,0,0,0,1.638.954l1.836.73c.615.231,1.269.368,1.889.56s1.282.234,1.9.364a19.837,19.837,0,0,0,7.066-.335,11.868,11.868,0,0,0,1.489-.372c.47-.147.922-.257,1.34-.4.825-.327,1.575-.517,2.161-.775a30.942,30.942,0,0,0,7.866-4.358,36.945,36.945,0,0,0,3.43-2.911c1.134-1.029,2.229-2.014,3.225-3.078a65.014,65.014,0,0,0,5.461-6.749l2.465-3.488c.84-1.2,1.514-2.163,2.677-3.75h0a2.806,2.806,0,0,1,1.236-.934,1.869,1.869,0,0,1,1.525.178,3.482,3.482,0,0,1,1.54,2.717,13.755,13.755,0,0,1-.052,1.443l-.083,1.309c-.118.835-.212,1.663-.368,2.479a32.429,32.429,0,0,1-3.271,9.1,39.157,39.157,0,0,1-11.926,13.351c-.588.412-1.193.793-1.784,1.188-.052.035-.2.132-.153.1l-.18.135-.445.335a7.5,7.5,0,0,1-.914.616,19.25,19.25,0,0,1-3.858,1.83,30.6,30.6,0,0,1-7.929,1.6,31.519,31.519,0,0,1-14.745-2.257,14.983,14.983,0,0,1-4.652-3.1,9.261,9.261,0,0,1-2.7-5.473,10.092,10.092,0,0,1,.9-5.054A18.47,18.47,0,0,1,134.32,539.354Z" transform="matrix(-1, 0, 0, 1, 380, 0)" /><path class="cls-3 color-skirt" d="M239.821,459.97a11.652,11.652,0,0,1,.421,3.03c0,14.041-25.778,25.423-57.576,25.423S125.09,477.041,125.09,463a11.652,11.652,0,0,1,.421-3.03s-8.826,22.094-11.769,30.344c-1.409,3.823,3.5,9.558,7.83,9.419,8.937-.289,6.96,14.965,18.451,13.838,14.7-1.441,15.08,4.776,22.776,9.8,14.127,9.226,21.335-8.072,38.344.577s16.369-13.642,39.177-11.578S239.821,459.97,239.821,459.97Z" transform="matrix(-1, 0, 0, 1, 380, 0)" /><path d="M239.849,459.958a79.464,79.464,0,0,1,4.216,10.01,130.435,130.435,0,0,1,6.1,21.68c.689,4.222,1.223,8.707.447,13.195a11.062,11.062,0,0,1-3,6.165,7.73,7.73,0,0,1-3.042,1.753,10.975,10.975,0,0,1-3.349.44l-3.071-.151c-.984.012-1.954.007-2.9.11a22.818,22.818,0,0,0-5.309,1.094A24.919,24.919,0,0,0,222.1,518.9c-1.783,1.493-3.476,3.171-5.409,4.753a20.174,20.174,0,0,1-3.194,2.156,11.21,11.21,0,0,1-3.85,1.252,14.758,14.758,0,0,1-7.852-1.372c-1.246-.543-2.254-1.072-3.366-1.484a20.238,20.238,0,0,0-3.369-.994,17.971,17.971,0,0,0-6.963.019,42.881,42.881,0,0,0-7.017,2.2,34,34,0,0,1-7.7,2.2,15.775,15.775,0,0,1-8.352-1.195,26.2,26.2,0,0,1-6.845-4.517c-2.013-1.757-3.719-3.624-5.655-4.777a13.678,13.678,0,0,0-6.507-1.92,29.952,29.952,0,0,0-3.611-.026l-1.835.138-1.023.068a7.878,7.878,0,0,1-1.11.017,10.262,10.262,0,0,1-4.468-1.117,11.5,11.5,0,0,1-3.447-2.923,70.626,70.626,0,0,1-4.107-6.587,9.062,9.062,0,0,0-2.011-2.334,4.011,4.011,0,0,0-2.4-.816l-.961-.031a5.913,5.913,0,0,1-1.237-.167,8.945,8.945,0,0,1-2.206-.811,11.918,11.918,0,0,1-3.438-2.734,11.51,11.51,0,0,1-1.7-2.541,8.287,8.287,0,0,1-.889-3.162,4.349,4.349,0,0,1,0-.9,4.04,4.04,0,0,1,.13-.917,8.491,8.491,0,0,1,.242-.852l.228-.6.914-2.376,3.623-9.4c2.4-6.194,4.732-12.222,6.944-17.931l3.785,1.261a10.154,10.154,0,0,0,1.432,8.256,22.862,22.862,0,0,0,6.625,6.48,60.57,60.57,0,0,0,17.566,7.63,120.723,120.723,0,0,0,36.715,3.764c11.809-.554,23.047-2.576,32.729-6.533a39.059,39.059,0,0,0,12.63-7.865,16.4,16.4,0,0,0,3.779-5.687,11.056,11.056,0,0,0,.354-6.417,11.237,11.237,0,0,1-.159,7.976,20.613,20.613,0,0,1-5.761,7.69,42.2,42.2,0,0,1-8.732,5.757,67.652,67.652,0,0,1-9.885,4.053,98.885,98.885,0,0,1-19.473,4.137,100.879,100.879,0,0,1-14.549.625c-12.341-.456-24.351-2.427-35.306-6.558a48.523,48.523,0,0,1-15-8.61,20.269,20.269,0,0,1-5.2-6.9,12.752,12.752,0,0,1-.63-8.565l1.818.605L115.887,487q-.636,1.626-1.269,3.244a4.128,4.128,0,0,0-.233.731,2.944,2.944,0,0,0-.09.7,5.112,5.112,0,0,0,.2,1.464,9.119,9.119,0,0,0,3.844,4.822,6.146,6.146,0,0,0,2.815.981l.359.02.459.011a5.1,5.1,0,0,1,.935.075,6.765,6.765,0,0,1,1.822.527,8.233,8.233,0,0,1,2.848,2.317,21.026,21.026,0,0,1,1.9,2.882,32.034,32.034,0,0,0,3.461,5.418,7.4,7.4,0,0,0,5.137,2.624,23.687,23.687,0,0,0,3.1-.121c1.084-.1,2.178-.119,3.27-.119a20.97,20.97,0,0,1,6.5,1,16.631,16.631,0,0,1,5.589,3.4c1.6,1.41,3.018,2.862,4.58,4.1,3.077,2.5,6.7,4.29,10.466,4.171,3.769-.053,7.35-1.741,11.052-3.028a32.542,32.542,0,0,1,5.764-1.528,19.807,19.807,0,0,1,5.988-.033,23.02,23.02,0,0,1,5.658,1.63,34.721,34.721,0,0,0,5,2.091,10.567,10.567,0,0,0,4.916.326,11.915,11.915,0,0,0,4.444-2.093c2.755-2.02,5.236-4.652,8.185-6.743a24.238,24.238,0,0,1,9.823-4.292,27.481,27.481,0,0,1,5.245-.423c.871-.022,1.726.086,2.584.124a12.461,12.461,0,0,0,2.282.017,6.392,6.392,0,0,0,3.844-1.581,8.059,8.059,0,0,0,2.173-3.656c1.083-3.489.971-8.135.378-12.833a110.8,110.8,0,0,0-2.9-14.128C243.615,470.049,240.79,462.441,239.849,459.958Z" transform="matrix(-1, 0, 0, 1, 380, 0)" /><path d="M123.639,467.676a9.217,9.217,0,0,1,.173,1.259,16.753,16.753,0,0,0,.623,2.6,18.325,18.325,0,0,0,4.354,6.792c4.31,4.514,10.843,7.585,14.459,9,12.946,5.028,28.99,6.985,43.3,6.477,12.516-.439,24.906-2.547,35.392-6.69a46.357,46.357,0,0,0,13.652-7.96,20.566,20.566,0,0,0,4.442-5.421,13.658,13.658,0,0,0,1.749-6.063,12.634,12.634,0,0,1-1.085,6.431,20.359,20.359,0,0,1-4.512,6.335,36.794,36.794,0,0,1-10.531,7.074c-9.549,4.11-19.135,5.894-28.121,6.925a138.734,138.734,0,0,1-25.477.341,107.891,107.891,0,0,1-22.022-3.944,56.862,56.862,0,0,1-17.689-8.346,24.354,24.354,0,0,1-6.942-7.65,15.734,15.734,0,0,1-1.58-4.392A16.061,16.061,0,0,1,123.639,467.676Z" transform="matrix(-1, 0, 0, 1, 380, 0)" /><g class="cls-4" transform="matrix(-1, 0, 0, 1, 380, 0)"><path d="M213.436,517.294c-.62-.289-.071-4.214-.359-5.7-.455-2.646-.739-5.519-1.371-8.094a102.538,102.538,0,0,1-2.5-12.221,7.907,7.907,0,0,1,2.908,1.747,4.289,4.289,0,0,1,1.371,2.119c.236,4.215.879,7.6,1.308,10.7a23.557,23.557,0,0,1,.079,8.2A12.694,12.694,0,0,1,213.436,517.294Z" /></g><g class="cls-4" transform="matrix(-1, 0, 0, 1, 380, 0)"><path d="M241.8,505.6c-.61-.319.13-4.259-.1-5.766a72.271,72.271,0,0,0-1.236-8.131c-1.071-4.473-2.425-8.868-2.89-12.2a7.937,7.937,0,0,1,3,1.643,4.4,4.4,0,0,1,1.464,2.1c.408,4.261,1.107,7.677,1.514,10.832a21.751,21.751,0,0,1-.16,8.3A12.963,12.963,0,0,1,241.8,505.6Z" /></g></svg>