<svg xmlns="http://www.w3.org/2000/svg" id="Art" viewBox="0 0 380 600"><defs transform="matrix(-1, 0, 0, 1, 380, 0)"><style>.cls-1{fill:#d5b06f;}.cls-2{fill:#172e35;}.cls-3{fill:#ff4500;}</style></defs><path class="cls-1 color-scarf" d="M128.337,541.209c-1.18,5.143,1.688,10.891,5.1,14.658,3.752,4.147,8.592,6.177,14.172,7.893,3.11.957,8.723.948,11.161-1.017a7.95,7.95,0,0,1,2.125-1.648c1.835-.66,3.882.383,5.55-.564,1.4-.792,1.714-2.788,2.69-3.946,3.049-3.619,3.588-1.256,5.741-2.871,1.614-.9,1.906-4.056,3.229-5.74s2.368-.146,4.484-2.511c1.831-3.016,2.144-14.334,2.691-17.58" style="" transform="matrix(-1, 0, 0, 1, 380, 0)" /><path d="M185.306,527.888c.194.413.056,3.991-.21,8.184a62.681,62.681,0,0,1-.718,6.391,13.768,13.768,0,0,1-.8,2.961,2.332,2.332,0,0,1-.433.755,7.1,7.1,0,0,1-.5.532,5.273,5.273,0,0,1-1.054.808,4.928,4.928,0,0,1-1.41.52,2.04,2.04,0,0,0-.785.275,3.788,3.788,0,0,0-.883,1.492c-.277.695-.5,1.5-.84,2.383a8.379,8.379,0,0,1-.67,1.4,4.1,4.1,0,0,1-1.4,1.434l.17-.111a5,5,0,0,1-1.552.84,6.489,6.489,0,0,1-1.57.212,1.325,1.325,0,0,0-.589.146,3.093,3.093,0,0,0-.612.458,7.029,7.029,0,0,0-.7.729l-.337.4a3.172,3.172,0,0,0-.2.321c-.3.519-.58,1.309-1.1,2.215a5.464,5.464,0,0,1-1.137,1.4,4.669,4.669,0,0,1-1.766.933,9.362,9.362,0,0,1-3.021.178,4.172,4.172,0,0,0-1.648.132,6.349,6.349,0,0,0-1.235,1.1,7.271,7.271,0,0,1-.858.67,9.386,9.386,0,0,1-.917.525,11.081,11.081,0,0,1-1.815.661,16.55,16.55,0,0,1-3.522.525,20.671,20.671,0,0,1-3.439-.129,15.734,15.734,0,0,1-1.721-.3c-.286-.057-.582-.147-.873-.228l-.768-.241a34.058,34.058,0,0,1-11.152-5.563,22.8,22.8,0,0,1-6.762-9.209,14.318,14.318,0,0,1-.69-9.606,18.167,18.167,0,0,0,3.262,8.714,45.8,45.8,0,0,0,4.944,5.877c2.715,3.119,6.551,5.071,10.366,6.521l1.44.529a11.394,11.394,0,0,0,1.363.393,16.532,16.532,0,0,0,2.845.365,12.319,12.319,0,0,0,5.382-.808,5.153,5.153,0,0,0,1.028-.646c.317-.27.643-.62,1.057-.964a3.783,3.783,0,0,1,1.519-.8,5.915,5.915,0,0,1,1.576-.17,18.885,18.885,0,0,0,2.6.038,2.128,2.128,0,0,0,1.621-1.044c.412-.617.7-1.43,1.164-2.265a6.241,6.241,0,0,1,.858-1.173,9.425,9.425,0,0,1,.965-.987,5.4,5.4,0,0,1,1.236-.848,4.049,4.049,0,0,1,1.544-.357,3.758,3.758,0,0,0,.991-.1,2.721,2.721,0,0,0,.741-.418l.04-.028.071-.044a3.252,3.252,0,0,0,.994-1.486c.287-.682.533-1.444.85-2.22a6.618,6.618,0,0,1,1.466-2.354,3.238,3.238,0,0,1,1.481-.788c.491-.113.813-.143,1.061-.222a3.088,3.088,0,0,0,1.335-.9.446.446,0,0,0,.142-.207c.046-.107.126-.231.178-.372.1-.308.23-.579.309-.912a37.1,37.1,0,0,0,.85-3.941C183.667,535.747,184.854,529.136,185.306,527.888Z" transform="matrix(-1, 0, 0, 1, 380, 0)" /><path class="cls-1 color-scarf" d="M181.8,556.782c.069,6.1.023,12.038,4.551,16.127,4.027,3.636,8.255,4.373,14.709,5.2,4.676.6,9.521-.128,14.172-1.076a30.146,30.146,0,0,0,9.521-4.359c2.467-1.725,4.252-4.751,3.67-7.705,1.513,1.276,3.735-.72,4.129-2.66s.14-4.205,1.513-5.631c.567-.59,1.353-.947,1.874-1.579a3.853,3.853,0,0,0,.824-1.827c.958-6.011,1.1-11.4,1.229-20.388" style="" transform="matrix(-1, 0, 0, 1, 380, 0)" /><path d="M238.025,532.886c.3.425.424,4.419.378,9.054-.027,2.318-.123,4.8-.3,7.068-.086,1.134-.192,2.214-.295,3.195-.06.507-.094.915-.166,1.429a5.015,5.015,0,0,1-.468,1.416,4.964,4.964,0,0,1-1.418,1.679,3.941,3.941,0,0,0-1.024,1.014,6.532,6.532,0,0,0-.592,2.94,15.911,15.911,0,0,1-.215,2.027,5.8,5.8,0,0,1-1.051,2.29,5.13,5.13,0,0,1-2.1,1.677,3.5,3.5,0,0,1-1.693.249,3.379,3.379,0,0,1-1.7-.725L230,564.66a8.317,8.317,0,0,1-.782,5.476,11.133,11.133,0,0,1-3.469,4.037,33.57,33.57,0,0,1-8.391,4.294,17.064,17.064,0,0,1-1.882.512l-1.741.358c-1.165.226-2.341.428-3.527.59a37.67,37.67,0,0,1-7.207.345c-1.213-.063-2.428-.237-3.512-.4-1.119-.164-2.24-.347-3.359-.565a25.042,25.042,0,0,1-6.587-2.137,17.807,17.807,0,0,1-2.889-1.87,16.169,16.169,0,0,1-2.413-2.335,13.685,13.685,0,0,1-1.765-2.79,15.652,15.652,0,0,1-.989-2.948,23.849,23.849,0,0,1-.514-5.561c.017-1.74.141-3.362.259-4.881.88,2.685,1.483,6.815,2.94,9.984a12.592,12.592,0,0,0,2.593,3.81,32.388,32.388,0,0,0,2.574,2.189c3.1,2.6,7.466,3.421,11.6,4.153a34.78,34.78,0,0,0,11.9-.261c.943-.162,1.947-.329,2.814-.532a20.359,20.359,0,0,0,2.618-.865,31.915,31.915,0,0,0,4.84-2.454,13.071,13.071,0,0,0,2.057-1.5,8.682,8.682,0,0,0,1.514-1.87,6.012,6.012,0,0,0,.845-4.3l-.489-2.273,1.969,1.4a.776.776,0,0,0,.717.129,2.273,2.273,0,0,0,.92-.605,3.6,3.6,0,0,0,.7-1.02,3.807,3.807,0,0,0,.3-1.219c.125-.957.138-2.009.386-3.142a5.812,5.812,0,0,1,.657-1.715,4.817,4.817,0,0,1,1.272-1.381c.923-.66,1.266-.957,1.543-1.655a2.753,2.753,0,0,0,.142-.484l.1-.656q.1-.689.2-1.369c.257-1.814.446-3.587.619-5.321C236.945,541.662,237.81,534.325,238.025,532.886Z" transform="matrix(-1, 0, 0, 1, 380, 0)" /><g id="default" transform="matrix(-1, 0, 0, 1, 380, 0)"><path class="cls-2 color-armor2" d="M125.09,465.174c5.8,23.743,18.27,52.938,19.509,54.494-3.586,3.293-16.2,18.921-12.986,23.242,5.711,6.317,15.372,14.616,23.677,14.32,6.829-.244,18.64-10.22,25.287-19.494,6.872-10.42,4.212-31.026,4.923-43.736" style="" /><path d="M185.561,494c.3.407.422,2.434.6,5.423s.388,6.952.51,11.231a117.757,117.757,0,0,1-.263,13.118,48.88,48.88,0,0,1-2.049,10.867q-.327.912-.658,1.831c-.266.609-.592,1.216-.9,1.829a11.825,11.825,0,0,1-1.021,1.7c-.358.541-.722,1.082-1.1,1.587a61.992,61.992,0,0,1-4.887,5.993,54.872,54.872,0,0,1-12.374,10.324,24.853,24.853,0,0,1-4,1.9,9.882,9.882,0,0,1-1.147.359c-.4.1-.768.232-1.207.3a12.853,12.853,0,0,1-2.581.211,21.882,21.882,0,0,1-8.848-2.14,51.778,51.778,0,0,1-13.269-9.315c-1.014-.954-2.009-1.926-2.963-2.937l-.59-.629a3.038,3.038,0,0,1-.568-.775l-.488-.833c-.116-.3-.224-.6-.322-.909a8.162,8.162,0,0,1-.271-1.914,9.3,9.3,0,0,1,.127-1.836,19.15,19.15,0,0,1,1.546-4.733,39.671,39.671,0,0,1,2.035-3.813,71.908,71.908,0,0,1,4.616-6.709q1.219-1.581,2.495-3.089l1.3-1.5.335-.37.169-.185c.025-.027,0,0,.011-.008l.022-.007a.177.177,0,0,0,.048-.023l0-.044V518.9c-.014-.038.052.1-.055-.14l-.426-.967q-.4-.955-.8-1.9l-1.508-3.768q-1.451-3.745-2.749-7.4c-1.731-4.877-3.28-9.628-4.625-14.216a184.626,184.626,0,0,1-5.727-25.052c2.8,4.522,6.162,11.145,9.217,17.412s5.693,12.22,6.643,15.519q1.388,4.878,2.934,9.549c.511,1.558,1.043,3.09,1.582,4.606q.415,1.128.827,2.247l.424,1.1.294.718c.134.3.273.6.378.9.014.818.021,1.7.079,2.257a.824.824,0,0,1-.091.481c-.056.151-.113.319-.17.506-.114.337-.23.734-.344,1.122-.417.385-.8.782-1.189,1.172l-.746.769c-.462.479-.915.972-1.362,1.468q-1.341,1.488-2.588,3.033a59.98,59.98,0,0,0-4.519,6.322,28.177,28.177,0,0,0-1.736,3.266,13.585,13.585,0,0,0-.6,1.621,6.217,6.217,0,0,0-.275,1.392,1.819,1.819,0,0,0,.241,1.1,4.1,4.1,0,0,0,.366.436l.622.682c.845.9,1.7,1.777,2.586,2.618a43.8,43.8,0,0,0,11.378,8.148,17.057,17.057,0,0,0,6.123,1.664,10.288,10.288,0,0,0,1.467-.028l.683-.092a7.147,7.147,0,0,0,.7-.181c.236-.069.47-.12.706-.2l.708-.279a11.834,11.834,0,0,0,1.4-.63,44.775,44.775,0,0,0,10.006-7.344,70.917,70.917,0,0,0,7.949-8.815,16.147,16.147,0,0,0,1.5-2.247l.615-1.109.507-1.214a30.659,30.659,0,0,0,1.541-5.056,77.782,77.782,0,0,0,1.41-10.43c.263-3.827.661-9.131,1.06-13.843S185.3,495.312,185.561,494Z" /></g><g data-name="default" id="default-2" transform="matrix(-1, 0, 0, 1, 380, 0)"><ellipse class="cls-3 color-armor" cx="182.666" cy="463" rx="57.576" ry="25.423" style="" /><path d="M240.211,463c-.114-.271-.144-1.126-.47-2.383a14.723,14.723,0,0,0-2.181-4.591c-2.335-3.468-6.908-6.866-12.274-9.432a75.851,75.851,0,0,0-17.249-5.618,102.7,102.7,0,0,0-14.759-1.964,135.859,135.859,0,0,0-20.584.344,109.654,109.654,0,0,0-20.919,3.9,69.213,69.213,0,0,0-9.97,3.745,40.718,40.718,0,0,0-8.837,5.466,16.68,16.68,0,0,0-5.575,7.735,10.261,10.261,0,0,0,1.424,8.555,22.234,22.234,0,0,0,5.861,5.891,45.637,45.637,0,0,0,7.546,4.252,80.622,80.622,0,0,0,16.634,5.218,127.607,127.607,0,0,0,33.621,2.16c10.8-.726,21.043-2.714,29.867-6.26a41.746,41.746,0,0,0,11.673-6.8,18.979,18.979,0,0,0,3.987-4.717A12.042,12.042,0,0,0,239.673,463a11.351,11.351,0,0,1-.855,5.665,18.9,18.9,0,0,1-3.8,5.7,40.953,40.953,0,0,1-12.386,8.469,77.106,77.106,0,0,1-23.558,6.506,131.781,131.781,0,0,1-14.729.629,134.891,134.891,0,0,1-14.228-.889,101.833,101.833,0,0,1-26.391-6.39,49.651,49.651,0,0,1-11.4-6.334,26.141,26.141,0,0,1-4.635-4.491,15.894,15.894,0,0,1-2.952-5.731,12.1,12.1,0,0,1,.04-6.4,15.806,15.806,0,0,1,2.875-5.539,31.321,31.321,0,0,1,9.217-7.53,61.831,61.831,0,0,1,10.449-4.645,89.063,89.063,0,0,1,10.632-2.939,118.5,118.5,0,0,1,20.785-2.5,123.865,123.865,0,0,1,19.548.826,95.8,95.8,0,0,1,17.875,3.854c5.324,1.679,12.5,4.809,17.609,9.321a26.265,26.265,0,0,1,3.327,3.531,18.324,18.324,0,0,1,2.135,3.632A12.692,12.692,0,0,1,240.211,463Z" /></g><g data-name="default" id="default-3" transform="matrix(-1, 0, 0, 1, 380, 0)"><path class="cls-3 color-armor" d="M125.09,463.371c9.04,37.246,43.743,55.977,63.789,54.5,18.518-1.37,41.244-8.937,48.759-28.749,2.676-7.054,3.186-15.453,2-25.746" style="" /><path d="M239.67,463.367a23.509,23.509,0,0,1,.808,4.951,59.335,59.335,0,0,1,.111,10.411,38.47,38.47,0,0,1-2.714,11.776c-.384.9-.759,1.777-1.122,2.624l-1.289,2.324c-.208.369-.4.736-.6,1.08l-.662.957c-.426.621-.821,1.2-1.18,1.722a41.708,41.708,0,0,1-10.035,9.529,57.756,57.756,0,0,1-12.839,6.488,78.24,78.24,0,0,1-14,3.625l-3.549.513-3.541.364a37.861,37.861,0,0,1-7.229-.169,51.959,51.959,0,0,1-11.9-2.883,67.6,67.6,0,0,1-10.842-5.082,73.867,73.867,0,0,1-24.222-22.791,77.08,77.08,0,0,1-4.917-8.7,70.281,70.281,0,0,1-5.405-16.6,122.873,122.873,0,0,0,8.063,15.834c1.644,2.689,3.425,5.162,4.976,7.3l2.209,2.876c.684.842,1.251,1.6,1.719,2.219a68.1,68.1,0,0,0,27.676,21.573,48.518,48.518,0,0,0,15.644,3.82c.649.033,1.295.032,1.938.049.643,0,1.28-.047,1.917-.068,1.284-.11,2.567-.232,3.832-.367,1.261-.183,2.516-.332,3.751-.539,1.23-.236,2.459-.43,3.661-.7,9.624-2.051,18.282-5.769,24.919-11.1a40.059,40.059,0,0,0,8.31-8.952,39.093,39.093,0,0,0,2.748-5.1,30.2,30.2,0,0,0,1.942-5.26,58.2,58.2,0,0,0,1.858-12.468C239.9,468.331,239.707,464.592,239.67,463.367Z" /></g><path class="cls-3 color-armor" d="M235.5,491.648a63.409,63.409,0,0,0-26.927,5.575A62.2,62.2,0,0,0,187.5,513c4.568,5.6,4.084,11.914,5.006,18.762C189.5,537,186.5,544,187.1,551.2c.9,10.771,7.485,16.831,17.718,17.24,7.847.315,16.58-3.8,21.823-9.859,6.039-6.977,8.861-14.58,9.651-24.01C236.5,520,237.239,507.763,235.5,491.648Z" style="" transform="matrix(-1, 0, 0, 1, 380, 0)" /><g id="hero_red" transform="matrix(-1, 0, 0, 1, 380, 0)"><path class="cls-2 color-armor2" d="M187.5,513.5c4.568,5.6,4.084,11.914,5.006,18.762-3.869,7.244-11.964,23.313-7.114,30.062,5.619,7.818,25.243,6.512,34.536,4.408a9.872,9.872,0,0,0,7.41-5.85c2.594-5.636,8.314-16.7,8.6-22.664.942-15.738,1.181-28.869-.437-46.07" style="" /><path d="M235.563,492.142c.671.618,1.634,7.065,2.15,14.593.562,7.526.576,16.1.74,20.871.08,2.106.13,4.252.144,6.424q0,1.625,0,3.27a21.919,21.919,0,0,1-.246,3.676,41.634,41.634,0,0,1-1.839,6.933c-.76,2.211-1.615,4.365-2.507,6.49s-1.829,4.216-2.739,6.268l-.665,1.512a15.327,15.327,0,0,1-.978,1.922,13.605,13.605,0,0,1-2.973,3.461,13.322,13.322,0,0,1-4.009,2.263,15.216,15.216,0,0,1-2.072.569l-.794.188-.868.186c-2.308.478-4.583.823-6.842,1.078a66.8,66.8,0,0,1-11.961.321,42.28,42.28,0,0,1-6.087-.834,26.217,26.217,0,0,1-6.159-2.083,17.639,17.639,0,0,1-3.012-1.887,14.136,14.136,0,0,1-2.656-2.79,12.87,12.87,0,0,1-2.106-7.256,25.108,25.108,0,0,1,.76-6.136,44.188,44.188,0,0,1,1.673-5.359,76.749,76.749,0,0,1,4.388-9.421q1.191-2.188,2.425-4.237l.074-.123.027-.035.057-.069.115-.144c.089-.1.038-.248.063-.379l0-.1c0-.018-.007-.175-.009-.255l-.026-.589q-.021-.584-.042-1.16a65.562,65.562,0,0,0-.5-8.347,19.793,19.793,0,0,0-.909-3.576,18.8,18.8,0,0,0-1.573-3.163,12.416,12.416,0,0,1,2.923,2.323,16.181,16.181,0,0,1,2.5,3.685,45.025,45.025,0,0,1,2.986,9.065q.143.548.282,1.089l.07.279.1.485.2.979.1.494.049.249c-.026.076-.065.151-.1.228l-.405.915-.413.924-.194.506-1.466,3.78c-.928,2.342-1.734,4.288-2.41,5.572a45.1,45.1,0,0,0-3.324,7.78c-.772,2.55-1.185,5.2-.648,7.145a4.416,4.416,0,0,0,.56,1.309,6.316,6.316,0,0,0,1.026,1.226,11.159,11.159,0,0,0,2.955,1.954,26.5,26.5,0,0,0,7.4,2.039,59.482,59.482,0,0,0,15.3-.065c1.234-.156,2.454-.342,3.65-.567.592-.114,1.19-.237,1.808-.377a9.611,9.611,0,0,0,1.562-.421,8.17,8.17,0,0,0,4.436-3.994q1.458-3.212,2.87-6.318c.933-2.091,1.817-4.152,2.616-6.189a60.377,60.377,0,0,0,2.052-6.022,22.257,22.257,0,0,0,.621-2.88c.088-.474.079-.893.128-1.355q.031-.787.063-1.569c.34-8.31.543-16,.709-23.193.029-3.418.3-8.1.5-12.236C235.331,496.921,235.478,493.326,235.563,492.142Z" /></g><path d="M226.95,565.924c-.351-.207-.739-2.491-1.578-5.009a33.879,33.879,0,0,0-2.99-6.691c-.776-1.252-1.613-2.609-2.429-3.879a8.215,8.215,0,0,0-1.291-1.57,3.756,3.756,0,0,0-.695-.5,4.681,4.681,0,0,0-.8-.311,17.481,17.481,0,0,0-2.141-.494c-.683-.112-1.561-.215-2.339-.326-1.595-.217-3.158-.427-4.665-.579a49.817,49.817,0,0,0-7.689-.267,28.541,28.541,0,0,0-6.969,1.087,10.333,10.333,0,0,0-4.789,3.546,51.914,51.914,0,0,0-3.268,4.8,14.869,14.869,0,0,1,1.126-6.456,10.419,10.419,0,0,1,1.886-2.978,6.759,6.759,0,0,1,2.158-1.634,20.392,20.392,0,0,1,6.9-1.326,48.03,48.03,0,0,1,6.212.038c3.977.282,7.592.947,10.979,1.433a22,22,0,0,1,2.574.519,12.617,12.617,0,0,1,1.264.4,5.353,5.353,0,0,1,1.271.676,11.474,11.474,0,0,1,3.074,3.99,39.285,39.285,0,0,1,3.464,7.8,19.2,19.2,0,0,1,.772,4.471A22.82,22.82,0,0,1,226.95,565.924Z" transform="matrix(-1, 0, 0, 1, 380, 0)" /><path d="M202.537,545.536c-.529-.393.649-4.124.653-5.656.053-2.7.454-5.594.355-8.148-.045-1.114-.125-2.2-.232-3.248s-.279-2.063-.455-3.122a16.311,16.311,0,0,1-.176-5.969,14.783,14.783,0,0,1,2.448,2.256,4.03,4.03,0,0,1,1.138,2.11c0,2.058.122,4.084.055,5.871-.041,1.8-.131,3.453-.258,5a27.318,27.318,0,0,1-1.543,7.97A11.665,11.665,0,0,1,202.537,545.536Z" transform="matrix(-1, 0, 0, 1, 380, 0)" /><path d="M208.769,545.325c-.28-.187-.147-1.064-.008-2.07a14.363,14.363,0,0,0,.253-2.789c-.192-2.3-.059-4.795-.171-7.06a58.9,58.9,0,0,1,.275-10.6c1.892.756,3.456,3.006,3.268,3.915a50.52,50.52,0,0,0-.928,9.165,21.984,21.984,0,0,1-.893,6.915A8.219,8.219,0,0,1,208.769,545.325Z" transform="matrix(-1, 0, 0, 1, 380, 0)" /><path d="M162.3,556.713c-.682-.275-1.21-6.643-1.945-8.94a30.767,30.767,0,0,0-2.349-5.968,13.268,13.268,0,0,0-4.084-4.454c-1.449-1.031-3.062-1.941-4.691-2.89a44.747,44.747,0,0,0-4.622-2.366,22.31,22.31,0,0,0-8.354-2.223,6.92,6.92,0,0,1,4.437-2.044,7.975,7.975,0,0,1,4.154.424,75.27,75.27,0,0,1,7.908,4.916,24.784,24.784,0,0,1,6.149,5.355,18.306,18.306,0,0,1,3.038,6.561,28.218,28.218,0,0,1,.857,6.088A29.616,29.616,0,0,1,162.3,556.713Z" transform="matrix(-1, 0, 0, 1, 380, 0)" /><path d="M148.207,531.827c.194.237-.116.955-.545,1.779l-.949-.7a9.893,9.893,0,0,0,1.191-2.576,50.148,50.148,0,0,0,1.073-6.547,70.957,70.957,0,0,1,1.044-10.233c1.835.853,3.261,3.135,3.008,4.021-.937,3.494-1.3,6.343-1.785,8.95-.508,2.565-1.187,4.934-2.613,6.482a5.1,5.1,0,0,1-.849.75l-1.243-.919A12.484,12.484,0,0,1,148.207,531.827Z" transform="matrix(-1, 0, 0, 1, 380, 0)" /><path d="M149.22,534.758c-.117-.316.516-.986,1.149-1.818a9.431,9.431,0,0,0,1.473-2.451,24.394,24.394,0,0,0,1.4-6.8c.032-1.874-.2-3.916-.151-5.973a11.031,11.031,0,0,1,1.293-5.432c1.314,1.672,2.564,3.667,2.361,4.554a27.9,27.9,0,0,0-.636,5.1,31.733,31.733,0,0,1-.581,4.584,12.778,12.778,0,0,1-3.317,6.815,4.971,4.971,0,0,1-1.635,1.009A7.126,7.126,0,0,1,149.22,534.758Z" transform="matrix(-1, 0, 0, 1, 380, 0)" /><path class="cls-3 color-armor" d="M166.163,512.569c.684-.251,13.03,3.747,20.186,4.029a3.747,3.747,0,0,1,2.1.513c.5.362,7.767,6.957,26.554,5.577a29.76,29.76,0,0,0,20.2-9.894c.594-.69,1.138-1.415,1.665-2.154.209-6.1-.341-11.2-.477-18.148a27.416,27.416,0,0,0,1.207-2.771c2.719-7.262,3.228-15.471,2.045-25.85,0,0-22.14,22.629-64.388,20-44.128-2.747-50.162-20-50.162-20,3.321,13.32,8.047,31.294,15.709,46.362C146.839,514.037,155.63,516.434,166.163,512.569Z" style="" transform="matrix(-1, 0, 0, 1, 380, 0)" /><path d="M166.171,512.591a18.8,18.8,0,0,1-2.764,1.03,27.735,27.735,0,0,1-14.968.369,28.077,28.077,0,0,1-4.787-1.718,25.433,25.433,0,0,1-2.363-1.231l-.648-.382-.186-.111-.1-.194-.184-.37q-.3-.6-.6-1.213c-6.521-13.011-10.981-28.938-13.421-37.725-.589-2.192-1.185-4.4-1.875-6.972l1.609-.481a12.033,12.033,0,0,0,1.347,2.212c.245.376.578.7.862,1.057a9.771,9.771,0,0,0,.937,1.008l.987.974,1.072.9a24.653,24.653,0,0,0,2.254,1.69,25.171,25.171,0,0,0,2.407,1.518l1.232.729,1.293.636c.871.409,1.711.882,2.612,1.241l2.705,1.087c.89.392,1.84.649,2.768.961l2.8.9c1.916.47,3.823.992,5.759,1.429l5.871,1.106,5.951.791a126.478,126.478,0,0,0,23.927.5,92,92,0,0,0,22.8-4.925,89.069,89.069,0,0,0,13.635-6.288c2.124-1.234,4.173-2.53,6.091-3.916l1.428-1.039,1.363-1.08.338-.268.595-.531,1.256-1.128.626-.564.676-.661,1.332-1.3q.234,2.223.467,4.443l.107,1.113.07.822c.036.379.063.759.086,1.139.11,1.518.167,3.04.189,4.56a56.009,56.009,0,0,1-.59,9.088,40.124,40.124,0,0,1-2.314,8.751l-.913,2.08c-.115.263-.045.1-.066.147l0,.253.024,1.07q.075,2.145.149,4.271c.118,2.843.259,5.688.271,8.532q-.007,1.067-.015,2.129l-.028,1.063-.028.909a.816.816,0,0,1-.007.122l-.077.1-.152.2-.289.372-1.353,1.729c-.474.545-.958,1.089-1.477,1.589a31.437,31.437,0,0,1-18.6,8.64c-1.353.149-2.642.15-3.945.215s-2.595,0-3.877,0c-1.283-.1-2.559-.108-3.819-.278a36.276,36.276,0,0,1-14.147-4.151c-.524-.306-1.036-.629-1.532-.979-.493-.327-1.016-.836-1.248-.916a4.043,4.043,0,0,0-1.383-.238c-.58-.053-1.163-.083-1.731-.157a62.283,62.283,0,0,1-6.559-1.2c-2.11-.489-4.153-1.029-6.14-1.576l-2.939-.816-1.437-.389-.7-.172-.336-.067a.863.863,0,0,0-.116-.018.075.075,0,0,1-.02-.01l-.011-.009c0,.013,0,0-.038-.1l-.088-.216c.181.451.112.283.138.32a.037.037,0,0,0,.023,0c0-.013.095,0,.148.006l.384.039.814.127,1.7.31,3.629.7c2.511.48,5.2.984,7.992,1.353,1.4.195,2.822.33,4.251.4l1.071.029a7.837,7.837,0,0,1,1.2.072,3.182,3.182,0,0,1,1.319.492c.359.265.592.426.905.63a26.014,26.014,0,0,0,7.957,3.179,53.578,53.578,0,0,0,16.16.985,31.476,31.476,0,0,0,11.224-2.758,27.1,27.1,0,0,0,6.59-4.112,23.032,23.032,0,0,0,2.738-2.707l1.16-1.449c.03-.044.065-.053.062-.089l0-.048.008-.155.035-.987c.157-5.256-.237-10.516-.28-15.728l-.006-.524-.007-.4a1.749,1.749,0,0,1,.143-.371l.426-.95.765-1.71c.439-1.182.847-2.361,1.164-3.566a42.556,42.556,0,0,0,1.306-7.309,59.091,59.091,0,0,0,.223-7.35q-.054-1.829-.184-3.64l-.095-1.225-.045-.487-.022-.246-.012-.123-.006-.062c-.006-.008-.026.021-.039.03a31.93,31.93,0,0,1-2.484,2.055c-.588.478-1.207.907-1.817,1.347s-1.213.884-1.847,1.281c-1.246.826-2.493,1.638-3.783,2.364-.641.371-1.269.76-1.915,1.112l-1.954,1.019a92.433,92.433,0,0,1-16,6.376,102.562,102.562,0,0,1-32.253,3.639,148.409,148.409,0,0,1-15.3-1.461c-1.251-.139-2.477-.4-3.7-.634l-3.656-.7c-1.2-.277-2.392-.6-3.58-.9s-2.373-.59-3.519-1l-3.448-1.132-3.336-1.359a14.84,14.84,0,0,1-1.629-.741l-1.6-.794a33.748,33.748,0,0,1-3.089-1.744,34.25,34.25,0,0,1-5.6-4.246l-1.231-1.248c-.387-.438-.753-.9-1.128-1.344a13.762,13.762,0,0,1-1.863-3.085l1.576-.47a308.505,308.505,0,0,0,9.864,33.147c1.167,3.092,2.6,6.728,4.294,10.432q.324.692.653,1.388c.217.436.456,1.027.59,1.2l.535.336c.216.134.43.273.654.392.448.243.883.511,1.344.726a27.453,27.453,0,0,0,11.2,2.956,29.957,29.957,0,0,0,4.927-.225A35.116,35.116,0,0,0,166.171,512.591Z" transform="matrix(-1, 0, 0, 1, 380, 0)" /><g id="hero_belt" transform="matrix(-1, 0, 0, 1, 380, 0)"><path class="cls-1 color-scarf" d="M239.64,463.871S217.5,486.5,179.661,484.308c-21.126-1.224-39.161-5.808-53.4-16.814a47.923,47.923,0,0,0,4.365,12.464C140.5,488.5,154.447,495.786,168.5,497.5c41,5,62-9,73-25A27.611,27.611,0,0,0,239.64,463.871Z" style="" /><path d="M239.654,463.865a15.672,15.672,0,0,1,.879,2.267,24.91,24.91,0,0,1,1.1,5.081c.023.265.052.534.057.812l.017.475c-.016.161-.177.284-.251.418l-1.03,1.429c-.361.486-.7,1.008-1.108,1.5l-1.25,1.512c-.823,1.056-1.8,2.051-2.788,3.089-.954,1.074-2.1,2.009-3.193,3.035a56.881,56.881,0,0,1-15.427,9.628,77.8,77.8,0,0,1-14.282,4.321,100.4,100.4,0,0,1-20.584,1.727l-5.323-.19c-1.779-.1-3.557-.3-5.345-.45a57.988,57.988,0,0,1-10.724-1.756,75.3,75.3,0,0,1-19.987-8.568,78.885,78.885,0,0,1-8.807-6.2l-1.028-.854-.6-.5a.468.468,0,0,1-.19-.249l-.121-.247-.148-.3c-.4-.8-.769-1.608-1.121-2.423q-1.058-2.442-1.861-4.953l-.338-1.1-.342-1.23c-.191-.72-.346-1.428-.491-2.119l-.35-1.981-.087-.5c-.049-.142.05-.04.109,0l.193.134.772.539,1.546,1.078,1.547,1.079.387.271.252.166.463.3a70.678,70.678,0,0,0,7.632,4.457,85.071,85.071,0,0,0,16.4,6.04,125.472,125.472,0,0,0,16.86,3.026c2.8.321,5.583.548,8.342.736,1.376.059,2.743.071,4.1.11l2.035.049,1.013.022,1.009-.053a84.257,84.257,0,0,0,29.7-6.246c2.225-.85,4.306-1.912,6.37-2.889l2.981-1.613c.986-.525,1.908-1.135,2.849-1.687a65.1,65.1,0,0,0,9.937-7.391c-4.732,5.143-13.314,11.285-22.375,15.148a76.546,76.546,0,0,1-23.17,6.119c-2.451.212-4.9.245-7.314.374l-7.2-.241c-4.73-.333-9.379-.848-13.924-1.571a98.685,98.685,0,0,1-25.662-7.409,71.4,71.4,0,0,1-11.083-6.305l-1.723-1.271a.634.634,0,0,0-.1-.068l.02.114.044.229.1.456.108.454.137.524a51.184,51.184,0,0,0,1.943,5.738q.567,1.393,1.206,2.742l.327.67c.136.271.135.345.329.478l1.14.952c1.523,1.262,3.1,2.434,4.685,3.56a79.836,79.836,0,0,0,9.865,5.869,67.375,67.375,0,0,0,20.7,6.648c1.735.268,3.5.355,5.22.539,1.73.159,3.442.351,5.15.379l5.073.2,4.987-.087a92.626,92.626,0,0,0,18.886-2.515,64.633,64.633,0,0,0,16.444-6.594l.91-.506.907-.593,1.909-1.241a23.819,23.819,0,0,0,1.944-1.4l1.979-1.5a59.236,59.236,0,0,0,7.212-7.077c1.11-1.207,2.016-2.507,2.928-3.675a3.288,3.288,0,0,0,.285-.395l0-.486c0-.354-.031-.7-.055-1.041-.062-.678-.148-1.325-.258-1.931A32.047,32.047,0,0,0,239.654,463.865Z" /></g><g data-name="default" id="default-4" transform="matrix(-1, 0, 0, 1, 380, 0)"><path class="cls-3 color-armor" d="M188.879,517.866c-9.8.724-23.1-3.382-35.2-12.12" style="" /><path d="M153.7,505.721c.316-.173,1.582.556,3.044,1.382a35.622,35.622,0,0,0,4.139,2.092c3.529,1.3,7.412,2.919,11.032,4.027,3.159.972,6.281,1.839,9.169,2.521s5.538,1.165,7.753,1.555a8.388,8.388,0,0,1-1.722,1.206,13.149,13.149,0,0,1-2.137.827,12.9,12.9,0,0,1-2.062.346,4.4,4.4,0,0,1-1.484-.14c-5.529-1.933-10.045-3.605-14.126-5.153a44.658,44.658,0,0,1-10.209-5.12A18.591,18.591,0,0,1,153.7,505.721Z" /></g><path class="cls-3 color-armor" d="M222.954,521.225c-.341-2.25.652-5.41-3.421-6.028-4.218-1.248-22.524-2.085-25.212.866l-.014-.022c-1.326,5.427,2.347,10.52,10.579,11.183C211.314,527.716,224.534,528.212,222.954,521.225Z" style="" transform="matrix(-1, 0, 0, 1, 380, 0)" /><path d="M222.984,521.219a2.617,2.617,0,0,1,.353,2.156,3.829,3.829,0,0,1-1.014,1.93,6.714,6.714,0,0,1-2.073,1.424,18.13,18.13,0,0,1-4.958,1.312c-1.611.23-3.072.33-4.116.427a52.889,52.889,0,0,1-5.7.19,18.487,18.487,0,0,1-6.2-1.053,11.326,11.326,0,0,1-5.443-4.083,9.907,9.907,0,0,1-1.437-3.264,10.794,10.794,0,0,1-.183-3.492c.115-.645.229-1.29.331-1.866h0l.976-.693c.159-.112.31-.234.476-.339s.388-.2.491-.252a9.607,9.607,0,0,1,1.4-.524,19.764,19.764,0,0,1,2.582-.555,42.186,42.186,0,0,1,4.883-.4,70.125,70.125,0,0,1,9.149.378,36.519,36.519,0,0,1,8.284,1.675,4.46,4.46,0,0,1,2.035,1.409,4.1,4.1,0,0,1,.826,2.161,32.129,32.129,0,0,1-.124,3.381c-.551-.786-.822-2.145-1.377-3.195a2.35,2.35,0,0,0-2.465-1.268l-.2,0h-.1c-.095-.012-.192-.024-.295-.046l-.416-.027-.88-.038-1.712-.053a18.8,18.8,0,0,1-2.645-.227,59.024,59.024,0,0,0-10.087-1.071,34.758,34.758,0,0,0-4.674.211,14.412,14.412,0,0,0-2.142.4,5.581,5.581,0,0,0-.937.329,1.842,1.842,0,0,0-.56.361h0a5.575,5.575,0,0,0-.145.7c-.016.338-.075.676-.061,1.01a6.83,6.83,0,0,0,.282,1.949,7.039,7.039,0,0,0,2,3.191,11.832,11.832,0,0,0,6.678,2.739c1.162.129,2.4.172,3.578.212s2.332.055,3.452.046a46.392,46.392,0,0,0,6.314-.412,10.684,10.684,0,0,0,4.586-1.518,3.273,3.273,0,0,0,1.151-1.8A5.533,5.533,0,0,0,222.984,521.219Z" transform="matrix(-1, 0, 0, 1, 380, 0)" /><path class="cls-3 color-armor" d="M155.558,510.414c.052-3.7-3.357-6.709-6.786-8.233-3.7-1.643-7.654-3.908-11.99-3.709q-.072.656-.146,1.312l.154-.809c-.282,4.251.345,7.841,3.071,11.228s12.963,6.5,14.672,4.624S155.728,512.481,155.558,510.414Z" style="" transform="matrix(-1, 0, 0, 1, 380, 0)" /><path d="M155.589,510.411a3.872,3.872,0,0,1,.553,1.633,2.853,2.853,0,0,1-.234,1.81,5.518,5.518,0,0,1-.53.86,3.488,3.488,0,0,1-.791.843,3.076,3.076,0,0,1-1.178.427,6.868,6.868,0,0,1-1.118.1,14.943,14.943,0,0,1-2.094-.146c-1.325-.181-2.491-.458-3.336-.639a21.842,21.842,0,0,1-4.516-1.5,14.438,14.438,0,0,1-2.243-1.274,9.187,9.187,0,0,1-1.095-.895,13.145,13.145,0,0,1-.922-1.051,14.64,14.64,0,0,1-2.5-4.7,18.3,18.3,0,0,1-.788-5.088c-.02-.666,0-1.321.025-1.946l3.9.5c-.048.279-.095.548-.141.811l-3.918-.589c.046-.461.09-.9.133-1.314l.171-1.687,1.721-.085a17.073,17.073,0,0,1,7.42,1.512c1.082.454,2.091.953,3.049,1.445l2.8,1.47a13.888,13.888,0,0,1,4.769,4.2,7.528,7.528,0,0,1,1.4,5.316,9.06,9.06,0,0,0-1.661-2.451,11.961,11.961,0,0,0-2.342-1.835c-1.648-1.02-3.318-1.628-4.1-2.145a56.044,56.044,0,0,0-5.655-3.277,13.026,13.026,0,0,0-5.548-1.375l.823-.771c-.066.457-.131.91-.189,1.307l-1.63-.245c.06-.281.121-.561.174-.805l1.592.2a15.5,15.5,0,0,0,.738,6.872,11.911,11.911,0,0,0,1.508,2.8,10.888,10.888,0,0,0,.945,1.164,7.8,7.8,0,0,0,1.1.889,22.311,22.311,0,0,0,5.186,2.4,26.1,26.1,0,0,0,5.024,1.209c.268.02.562.049.847.05.149.009.281,0,.423-.006a2.462,2.462,0,0,0,.33-.037,1.321,1.321,0,0,0,.663-.419,4.947,4.947,0,0,0,.677-.71,2.683,2.683,0,0,0,.454-1.643C155.517,511.044,155.56,510.618,155.589,510.411Z" transform="matrix(-1, 0, 0, 1, 380, 0)" /><path class="cls-1 color-scarf" d="M200.447,482.838l2.7,12.278a2.585,2.585,0,0,0,2.2,2.39l11.431,4.022a3.556,3.556,0,0,0,3.883-.455l10.649-6.3c.611-3.1,2.042-5.989,2.686-9.082,1.245-5.98-.534-12.13-2.3-17.98a80.353,80.353,0,0,1-26.093,11.853,12.707,12.707,0,0,0-3.846,1.386,3.909,3.909,0,0,0-1.967,3.381" style="" transform="matrix(-1, 0, 0, 1, 380, 0)" /><path d="M199.764,484.336a1.613,1.613,0,0,1-.1-1.046,3.966,3.966,0,0,1,1.047-2,6.706,6.706,0,0,1,2.658-1.64c1.075-.39,2.214-.659,3.37-1.012a69.64,69.64,0,0,0,12.418-4.9c2.372-1.27,4.775-2.669,7.151-4.2,1.291-.85,1.942-1.27,4.485-3.039l1.617-1.113c.062-.031.148-.127.192-.106l.072.228.145.458.292.923q.532,1.714,1.068,3.435a45.6,45.6,0,0,1,1.945,8.935,25.155,25.155,0,0,1,.032,4.69,22.765,22.765,0,0,1-.9,4.55c-.368,1.243-.78,2.417-1.145,3.549-.183.566-.351,1.12-.5,1.667l-.108.408-.122.51-.194.9-.1.446c0,.089-.071.12-.139.158l-.2.116-6.828,4.027-3.081,1.785-1.554.891a6.283,6.283,0,0,1-2.349.836,5.52,5.52,0,0,1-2.527-.392l-1.621-.606-3.154-1.195-6.057-2.353c-.494-.2-.935-.349-1.573-.653a3.7,3.7,0,0,1-1.773-1.695,6.7,6.7,0,0,1-.481-1.814q-.124-.74-.248-1.465c-.648-3.873-1.192-7.453-1.615-10.647a75.574,75.574,0,0,1,4.328,10.393c.31.862.691,2.211.826,2.115a.284.284,0,0,0,.1.021l.307.1,1.14.325a34.6,34.6,0,0,1,3.893,1.328l5.419,2.321a23.037,23.037,0,0,0,2.371.929c.378.128,1-.1,1.841-.569q4.969-2.637,9.568-5.228l.838-.464c.092-.236.106-.386.254-.9.243-.863.523-1.7.808-2.508.57-1.623,1.152-3.175,1.529-4.723a22.463,22.463,0,0,0,.076-9.22c-.264-1.492-.62-2.949-1.016-4.375q-.3-1.024-.6-2.033-.184-.559-.365-1.111l-.044-.132c0-.073-.071.03-.1.036l-.24.173-.464.335-.538.366-.893.586c-1.2.764-2.385,1.5-3.581,2.17a67.121,67.121,0,0,1-14.1,6.095c-1.084.336-2.387.667-3.755.958s-2.824.48-4.054.789a5.316,5.316,0,0,0-2.9,1.671A3.255,3.255,0,0,0,199.764,484.336Z" transform="matrix(-1, 0, 0, 1, 380, 0)" /><path class="cls-1 color-scarf" d="M204.545,483.28a30.621,30.621,0,0,1,9.72,7.272l15.946-8.658a3.126,3.126,0,0,0,1.09-.819,2.926,2.926,0,0,0,.41-1.687,21.289,21.289,0,0,0-1.61-8.6" style="" transform="matrix(-1, 0, 0, 1, 380, 0)" /><path d="M230.115,470.785a9.734,9.734,0,0,1,1.391,3.452,25.357,25.357,0,0,1,.7,5.261,3.244,3.244,0,0,1-.364,1.859,4.052,4.052,0,0,1-1.481,1.245l-2.91,1.726-5.858,3.345c-1.657.938-3.317,1.849-4.948,2.717l-1.217.643-1.173.624c-.215.225-.337-.1-.491-.232l-.441-.492-.57-.628-.441-.47c-.292-.311-.592-.607-.89-.9a40.311,40.311,0,0,0-7-5.4,13.344,13.344,0,0,1,4.241,1.251,12.16,12.16,0,0,1,3.249,2.107q.837.854,1.591,1.724l.736.867.111.173c.019.023.035.073.06.076l.085-.028a1.737,1.737,0,0,0,.226-.087l.485-.23.956-.463,1.858-.923c2.429-1.23,4.668-2.45,6.757-3.619l3.024-1.712,1.436-.819c.459-.271.973-.529,1.311-.781a1.336,1.336,0,0,0,.551-.953,9.325,9.325,0,0,0,.057-1.385q-.015-1.428-.161-2.755c-.1-.84-.227-1.994-.411-3.011S230.182,471.076,230.115,470.785Z" transform="matrix(-1, 0, 0, 1, 380, 0)" /><path class="cls-1 color-scarf" d="M223.743,486.251a27.451,27.451,0,0,1,2.287,14.169" style="" transform="matrix(-1, 0, 0, 1, 380, 0)" /><path d="M226.015,500.418c-.286-.151-.119-2.242-.335-3.045-.325-1.412-.536-2.994-.87-4.4-.555-2.46-1.124-4.837-1.326-6.6a3.609,3.609,0,0,1,2.195,2.14,53.837,53.837,0,0,0,.7,5.73,15.494,15.494,0,0,1,.287,4.381A5.975,5.975,0,0,1,226.015,500.418Z" transform="matrix(-1, 0, 0, 1, 380, 0)" /><path class="cls-1 color-scarf" d="M125.782,459.215a40.7,40.7,0,0,0,15.908,14.806c-1.147-.267-1.786,1.281-1.877,2.455a37.138,37.138,0,0,0,.9,11.472,30.453,30.453,0,0,0-9.566,7.991l-5.685-3.548a5.879,5.879,0,0,1-1.414-1.1,5.725,5.725,0,0,1-.929-1.849A118.046,118.046,0,0,1,117.854,469a9.85,9.85,0,0,1-.062-4.136,8.645,8.645,0,0,1,1.582-2.9,27.117,27.117,0,0,1,8.64-7.421" style="" transform="matrix(-1, 0, 0, 1, 380, 0)" /><path d="M128.029,454.573c-.2.464-3.56,2.4-6.444,5.72-1.382,1.647-3.022,3.547-3.162,5.4a9.9,9.9,0,0,0,.238,2.819c.184.911.365,1.736.537,2.414,1.118,4.487,2.461,9.22,4.08,13.9.4,1.171.821,2.341,1.258,3.5a11.775,11.775,0,0,0,.622,1.5,1.632,1.632,0,0,0,.278.371,3.071,3.071,0,0,0,.452.347l3.127,1.888,1.583.954c.092.056.064.037.075.043l.013,0,.025.007a.176.176,0,0,0,.04.008l.025-.054.009-.022.3-.345a31.03,31.03,0,0,1,4.984-4.529q.679-.494,1.381-.949l.965-.6c.058-.034.018-.009.032-.017v-.008l-.132-.729a37,37,0,0,1-.536-6.386q0-1.578.143-3.12l.036-.394c.018-.176.042-.35.074-.518a6.3,6.3,0,0,1,.271-1c.184-.477.127-.291.16-.355a.307.307,0,0,1,.067-.05.186.186,0,0,1,.08-.022c.042,0,.056,0,.031-.016l-.08-.082-.078-.073-.044-.039-.024-.021-.137-.094c-.416-.285-.836-.558-1.237-.851q-1.21-.87-2.317-1.8a38.627,38.627,0,0,1-3.991-3.862,36.217,36.217,0,0,1-5.437-8.008c2.094,1.86,4.94,4.473,7.81,6.577,2.844,2.144,5.66,3.8,7.055,4.82l.153.115.319.2.623.386,1.172.728-.142.411-.107.336q-.093.328-.186.653l-.04.158c-.013.048-.03.131-.028.089s-.012-.054-.027-.054c-.03,0-.083.052-.161.195-.124.22-.295.6-.469,1.012.019.126.214.325.311.482l.044.063a.609.609,0,0,1-.033.077l-.015.029-.031.058a2.426,2.426,0,0,0-.111.262,2.8,2.8,0,0,0-.148.612l-.106.85a31.935,31.935,0,0,0-.2,3.386,32.834,32.834,0,0,0,.15,3.332c.056.548.119,1.093.2,1.633l.061.4.115.606.243,1.212c-4.88,3.253-6.924,4.375-10.432,8.8l-5.231-3.236a18.176,18.176,0,0,1-2.339-1.559,6.083,6.083,0,0,1-1.476-2.571q-1.8-4.872-3.087-9.484t-2.089-8.936a31,31,0,0,1-.6-4.388,7.3,7.3,0,0,1,.321-2.382,7.886,7.886,0,0,1,1.05-2.053,21.867,21.867,0,0,1,5.434-5.24A23.448,23.448,0,0,1,128.029,454.573Z" transform="matrix(-1, 0, 0, 1, 380, 0)" /><path class="cls-1 color-scarf" d="M137.525,472.4a15.821,15.821,0,0,0-8.888,9.806,24.064,24.064,0,0,1-12.4-13.44" style="" transform="matrix(-1, 0, 0, 1, 380, 0)" /><path d="M116.251,468.756a16.819,16.819,0,0,1,1.395,2.45,18.842,18.842,0,0,0,2.233,3.232,28.257,28.257,0,0,0,7.72,6.149l.44.232h.02c.012,0,.016,0,.012-.008s0-.008,0,0l.191-.474c.15-.351.318-.691.487-1.027A15.285,15.285,0,0,1,131.3,475.8a13.583,13.583,0,0,1,6.118-3.667c-.644.718-1.561,1.591-2.346,2.432s-1.468,1.626-1.907,1.965a12.415,12.415,0,0,0-2.29,2.334,12.836,12.836,0,0,0-.869,1.321c-.122.229-.25.455-.362.685-.112.252-.2.4-.356.814l-.381,1.026c-.007.141-.126.01-.2-.01l-.243-.125-.479-.244c-.712-.348-1.021-.555-1.486-.81-.854-.509-1.663-1.032-2.414-1.585a21.654,21.654,0,0,1-6.552-7.238A14.456,14.456,0,0,1,116.251,468.756Z" transform="matrix(-1, 0, 0, 1, 380, 0)" /><path class="cls-1 color-scarf" d="M151.228,477.616a144.349,144.349,0,0,0,26.408,3.621l3.589,18.233a48.575,48.575,0,0,1-9.5-.532,96.629,96.629,0,0,1-17.262-3.8,13.767,13.767,0,0,1-2.873-1.524,2.607,2.607,0,0,1-.606-1.654l-1.52-12.722a1.22,1.22,0,0,1,.049-.679c.453-.926,2.143.313,2.854-.434" style="" transform="matrix(-1, 0, 0, 1, 380, 0)" /><path d="M152.386,478.142a.467.467,0,0,1-.2.269,1.176,1.176,0,0,1-.6.2,3.907,3.907,0,0,1-.673-.007,1.338,1.338,0,0,0-.769.093c-.274.165-.262.566-.179.884q.085.492.181,1.034c.141.927.293,1.929.451,2.966.3,2.076.627,4.292.923,6.318.076.506.15,1,.222,1.477a7.1,7.1,0,0,0,.231,1.187.86.86,0,0,0,.442.507c.226.126.591.307.863.425a12.511,12.511,0,0,0,1.482.576l1.715.406,3.542.806c2.385.518,4.812.968,7.276,1.32s4.981.666,7.41.873c1.219.1,2.425.165,3.6.178h.441c.112,0,.046,0,.077-.006l.042-.015c.026-.009.042-.019.015-.055l-.025-.039c-.009-.031,0,.049-.022-.07l-.117-.561q-.231-1.12-.462-2.237-.449-2.235-.889-4.439-.423-2.2-.836-4.364-.2-1.078-.4-2.144l-.1-.531c-.015-.089,0-.035,0-.06l.008-.051-.1-.022-.054-.012a.2.2,0,0,0-.044-.007l-.241-.02-1.917-.167c-1.267-.122-2.514-.258-3.737-.42-2.446-.316-4.8-.7-7.029-1.144a93.634,93.634,0,0,1-11.825-3.116,92.861,92.861,0,0,1,9.705-.107,65.656,65.656,0,0,1,8.269.575q2.2.426,4.363.741c.719.108,1.434.2,2.144.291l.575.068.88.077,1.7.148,1.465,9.367q.344,2.025.678,3.99.363,2,.716,3.948.26,1.335.472,2.6l.055.318c-.1.015-.215.014-.321.022l-.651.035-1.29.051c-.408.006-.917.011-1.242,0l-.949-.025q-.945-.039-1.87-.105c-2.472-.182-4.835-.494-7.128-.808a91.4,91.4,0,0,1-12.86-2.692l-1.47-.421a9.042,9.042,0,0,1-1.555-.64c-.469-.234-.915-.467-1.388-.76a2.771,2.771,0,0,1-1.333-1.724,10.373,10.373,0,0,1-.249-1.611l-.149-1.4-.259-2.738c-.2-1.939-.288-4.508-.345-6.927a6.481,6.481,0,0,1,.077-1.889.818.818,0,0,1,.576-.549,1.827,1.827,0,0,1,.767.02c.481.1.9.251,1.217.278A.937.937,0,0,0,152.386,478.142Z" transform="matrix(-1, 0, 0, 1, 380, 0)" /><path class="cls-2 color-armor2" d="M156.109,484.286a31.362,31.362,0,0,0,1.23,10.024,5.292,5.292,0,0,0,.615,1.131c.221.256.595.28.915.392a69.459,69.459,0,0,0,10.764,2.449,2.015,2.015,0,0,0,1.67-.784,1.177,1.177,0,0,0,.049-.672l-1.018-8.213a.817.817,0,0,0-.879-.895,93.367,93.367,0,0,1-13.346-3.432" style="" transform="matrix(-1, 0, 0, 1, 380, 0)" /><path d="M156.114,484.271c.474-.177,7.391,2,10.147,2.353l1.933.274,1,.116.255.028.137.014.219.032a1.517,1.517,0,0,1,.789.372,1.733,1.733,0,0,1,.461,1.062l.114.709q.111.714.223,1.433c.143.963.287,1.932.43,2.9s.276,1.941.413,2.9l.051.379a2.2,2.2,0,0,1-.015.681,1.842,1.842,0,0,1-.767,1.109,3.446,3.446,0,0,1-.881.461,2.408,2.408,0,0,1-1.163.137l-.019,0c-2.2-.363-4.4-.722-6.55-1.229-1.072-.252-2.129-.54-3.154-.878l-.762-.262-.376-.136a3.131,3.131,0,0,0-.3-.1l-.243-.077a2.043,2.043,0,0,1-.338-.153,1.611,1.611,0,0,1-.535-.483,5.374,5.374,0,0,1-.458-.825,8.508,8.508,0,0,1-.5-1.576c-.119-.5-.211-1-.286-1.484a27.31,27.31,0,0,1-.273-2.818,29.39,29.39,0,0,1,.166-4.935c.365,1.329.774,3.207,1.194,4.946s.858,3.313,1.034,4.125c.056.268.14.629.2.8a7.2,7.2,0,0,0,.295.689c.041.068-.04.072.344.194.4.139.59.237.9.354a32.655,32.655,0,0,0,3.364,1.1c2.238.609,4.445,1.015,6.534,1.408a1.764,1.764,0,0,0,1.119-.4c.3-.2.163-.549.106-1.11q-.2-1.506-.394-2.944l-.393-2.805c-.065-.457-.129-.907-.192-1.353l-.093-.651a.5.5,0,0,0-.124-.3.446.446,0,0,0-.25-.1l-.493-.066-1.09-.167q-1.074-.183-2.089-.413c-1.354-.305-2.634-.655-3.846-1.034A57.269,57.269,0,0,1,156.114,484.271Z" transform="matrix(-1, 0, 0, 1, 380, 0)" /></svg>