<svg xmlns="http://www.w3.org/2000/svg" id="halloween" viewBox="0 0 380 600"><defs transform="matrix(-1, 0, 0, 1, 380, 0)"><style>.cls-1{fill:#ff8717;}.cls-2{fill:#ff4500;}.cls-3{fill:#ffd635;}.cls-4{fill:#feb331;}</style></defs><g id="default" transform="matrix(-1, 0, 0, 1, 380, 0)"><ellipse class="cls-1" cx="182.666" cy="463" rx="57.576" ry="25.423"></ellipse><path class="cls-2" d="M240.2,463c-.154-.271-.218-1.121-.571-2.358a15.075,15.075,0,0,0-2.229-4.507c-2.345-3.4-6.9-6.741-12.246-9.266a75.5,75.5,0,0,0-17.2-5.513,98.15,98.15,0,0,0-14.718-1.849,139.453,139.453,0,0,0-20.488.54,110.584,110.584,0,0,0-20.746,4,68.9,68.9,0,0,0-9.834,3.744,39.942,39.942,0,0,0-8.622,5.375,15.77,15.77,0,0,0-5.254,7.3,9.3,9.3,0,0,0,1.345,7.778,21.362,21.362,0,0,0,5.618,5.6A44.9,44.9,0,0,0,142.637,478a80.5,80.5,0,0,0,16.421,5.154,128.712,128.712,0,0,0,33.353,2.254c10.724-.66,20.909-2.555,29.682-5.971a41.671,41.671,0,0,0,11.6-6.559c3.2-2.687,5.49-6.16,5.693-9.873a10.863,10.863,0,0,1-.558,5.671,18.644,18.644,0,0,1-3.619,5.9,40.277,40.277,0,0,1-12.305,8.918,71.167,71.167,0,0,1-23.706,6.82,135.791,135.791,0,0,1-14.844.44,138.849,138.849,0,0,1-14.3-1.041,104.22,104.22,0,0,1-26.5-6.6,50.51,50.51,0,0,1-11.478-6.428,26.585,26.585,0,0,1-4.7-4.57,16.3,16.3,0,0,1-3.018-5.876,12.5,12.5,0,0,1,.042-6.593,16.215,16.215,0,0,1,2.941-5.677,31.805,31.805,0,0,1,9.323-7.644,62.5,62.5,0,0,1,10.508-4.7,89.946,89.946,0,0,1,10.676-2.986,118.676,118.676,0,0,1,20.864-2.577,122.286,122.286,0,0,1,19.632.8,93.59,93.59,0,0,1,17.958,3.922c5.352,1.7,12.546,4.958,17.629,9.6a26.251,26.251,0,0,1,3.3,3.623,18.321,18.321,0,0,1,2.086,3.7A12.586,12.586,0,0,1,240.2,463Z"></path></g><g data-name="default" id="default-2" transform="matrix(-1, 0, 0, 1, 380, 0)"><path class="cls-1" d="M125.09,463.371c2.247,9.259,7.275,16.7,10.845,25.423,2.731,6.667,5.922,13.309,8.245,20.127,1.6,4.7.513,9.143,1.728,13.966,2.846,11.3,11.74,20.527,21.273,26.712,15.139,9.821,36.37,15.3,48.6-1.3,2.769-3.759,4.694-8.11,7.677-11.7a25.372,25.372,0,0,1,16.812-8.928c5.163-.511,11.306,1.323,12.992,6.23-.9-12.576-15.436-24.039-27.714-17.023-2.39,1.366-4.249,3.669-6.866,4.52-2.245.73-8.283.784-8.4-2.2-.068-1.759,5.232-4.431,6.421-5.3a63.537,63.537,0,0,0,13.986-13.486c7.873-10.758,10.464-23.933,8.955-37.043"></path><path class="cls-2" d="M239.685,463.365a33.233,33.233,0,0,1,.908,9.228,51.207,51.207,0,0,1-3.787,18.879,47.229,47.229,0,0,1-5.5,9.851,56.685,56.685,0,0,1-7.45,8.286c-1.319,1.219-2.651,2.356-3.963,3.416q-.982.8-1.949,1.535l-.479.368c-.2.142-.393.278-.561.385l-1,.634c-.643.4-1.252.794-1.82,1.187l-.418.294-.233.177c-.147.119-.289.234-.419.356a2.233,2.233,0,0,0-.608.788.86.86,0,0,0,.246.839,2.427,2.427,0,0,0,1.5.568l.453.024c.241,0,.478.02.723.006a11.9,11.9,0,0,0,1.452-.112,5.914,5.914,0,0,0,2.485-.849,20.12,20.12,0,0,0,2.444-1.85,22.039,22.039,0,0,1,2.955-2.191,18.683,18.683,0,0,1,3.457-1.585,17.508,17.508,0,0,1,7.656-.809,22.412,22.412,0,0,1,13.457,6.974,23.237,23.237,0,0,1,6.526,13.963l-4.879,1a5.9,5.9,0,0,0-2.792-3.073,11.663,11.663,0,0,0-4.712-1.349,13.978,13.978,0,0,0-2.555,0,20.916,20.916,0,0,0-2.632.412,23.059,23.059,0,0,0-5.053,1.767,22.475,22.475,0,0,0-8.109,6.667c-2.151,2.838-3.834,6.332-6.137,9.765a30.006,30.006,0,0,1-8.485,8.519,27.489,27.489,0,0,1-11.338,4.174,36.785,36.785,0,0,1-11.7-.378,53.121,53.121,0,0,1-10.818-3.3,68.475,68.475,0,0,1-18.467-11.608,48.543,48.543,0,0,1-12.73-17.015l-.51-1.224-.439-1.25c-.308-.826-.542-1.677-.766-2.526a20.011,20.011,0,0,1-.566-2.658c-.125-.895-.208-1.782-.247-2.634-.15-3.43.028-6.373-.72-8.913-.079-.3-.19-.656-.314-1.024L141.434,508q-.376-1.074-.748-2.139c-.513-1.418-1.049-2.822-1.594-4.215l-3.3-8.237-1.579-4.051c-.5-1.3-1.016-2.581-1.566-3.843-1.088-2.528-2.246-4.99-3.344-7.434a67.132,67.132,0,0,1-5.041-14.506,67.044,67.044,0,0,0,3.036,6.508c1.206,2.271,2.6,4.617,4.07,7.043s3.018,4.943,4.475,7.587c.724,1.312,1.433,2.705,2.085,4.038s1.326,2.655,1.984,3.972a151.33,151.33,0,0,1,7.026,15.388,24.89,24.89,0,0,1,1.245,7.583c.072,2.1.131,3.711.271,4.973a14.607,14.607,0,0,0,.385,2.131c.178.739.352,1.48.6,2.2l.35,1.089.417,1.068c.257.72.6,1.408.917,2.105a38.943,38.943,0,0,0,4.95,7.773,57.486,57.486,0,0,0,13.77,12.116,56.593,56.593,0,0,0,16.28,7.26c5.633,1.41,11.525,1.687,16.794-.034a22.923,22.923,0,0,0,7.194-3.838,28.006,28.006,0,0,0,5.468-5.977c1.54-2.244,2.861-4.682,4.37-7.044A29.423,29.423,0,0,1,225.359,533a26.727,26.727,0,0,1,15-6.541,17.572,17.572,0,0,1,8.156,1.133,11.807,11.807,0,0,1,3.59,2.259,9.1,9.1,0,0,1,2.385,3.63l-2.53.516a19.074,19.074,0,0,0-3.878-9.8,20.693,20.693,0,0,0-7.973-6.458,15.41,15.41,0,0,0-9.559-1.129,15.006,15.006,0,0,0-4.378,1.758c-1.287.77-2.513,1.956-4.045,3.045a11.32,11.32,0,0,1-2.605,1.426,10.649,10.649,0,0,1-2.937.59c-.47.03-.94.048-1.411.039a11.507,11.507,0,0,1-1.58-.124,7.354,7.354,0,0,1-3.422-1.266,3.581,3.581,0,0,1-1.538-2.9,4.4,4.4,0,0,1,1.608-2.9A13.021,13.021,0,0,1,211.7,515.1l.606-.416.535-.35c.712-.457,1.428-.881,2.1-1.289l.481-.3c.173-.112.222-.141.409-.28l.949-.7,1.858-1.43q1.83-1.448,3.538-2.972A57.247,57.247,0,0,0,228.4,500.9a50.2,50.2,0,0,0,9.974-20.622A62.689,62.689,0,0,0,239.685,463.365Z"></path></g><path class="cls-3" d="M179.246,480.25c-4.138-1.286-8.282,2.029-10.784,5.566-1.937,2.738-3.513,6.06-2.871,9.352s3.3,5.728,5.48,8.274,4.06,6.019,2.8,9.123a15.964,15.964,0,0,1-2.594,3.623,15.918,15.918,0,0,0,13.244,25.764c-3.548-1.4-7.219-2.892-9.825-5.68s-3.813-7.276-1.738-10.479a10.738,10.738,0,0,1,3.293-3.009,31.088,31.088,0,0,1,8.668-3.9c4.1-1.131,8.858-1.672,11.42-5.066a7.73,7.73,0,0,0-2.112-10.829,6.8,6.8,0,0,1-2.559-1.845c-.849-1.362-.072-3.191,1.064-4.324s2.611-1.92,3.589-3.192c2.507-3.26.682-8.113-2.109-11.132a13.349,13.349,0,0,0-6.682-4.194,7.7,7.7,0,0,0-7.356,2.06" style="" transform="matrix(-1, 0, 0, 1, 380, 0)"></path><path class="cls-4" d="M180.149,480.342a3.7,3.7,0,0,1,1.182-1.27,7.375,7.375,0,0,1,3.482-1.327,9.424,9.424,0,0,1,5.138.862,15.52,15.52,0,0,1,4.9,3.693A13.246,13.246,0,0,1,198,488.147a8.091,8.091,0,0,1,.056,3.472,6.463,6.463,0,0,1-1.621,3.067c-1.571,1.6-3.3,2.477-3.873,3.819a2.462,2.462,0,0,0-.267,1.756,1.855,1.855,0,0,0,.956,1.038c.42.249.947.471,1.526.794a8.015,8.015,0,0,1,1.625,1.245,8.869,8.869,0,0,1,2.116,3.483,9.389,9.389,0,0,1,.375,4.129,7.961,7.961,0,0,1-1.675,3.979,10.346,10.346,0,0,1-3.278,2.694,20.239,20.239,0,0,1-3.734,1.489c-2.508.752-4.891,1.2-7.088,2.072a29.851,29.851,0,0,0-6.292,3.3,8.721,8.721,0,0,0-2.275,2.121,5.021,5.021,0,0,0-.826,2.586,8.284,8.284,0,0,0,2.094,5.515,15.956,15.956,0,0,0,5.3,3.7c1.323.626,2.731,1.177,4.125,1.72l-.63,3.788a18.134,18.134,0,0,1-12.4-4.259,17.08,17.08,0,0,1-6.133-11.363,18.263,18.263,0,0,1,2.931-12.168,25,25,0,0,1,1.868-2.342,8.037,8.037,0,0,0,1.285-1.827,4.914,4.914,0,0,0-.157-3.9,14.646,14.646,0,0,0-2.555-4,48.459,48.459,0,0,1-3.341-4.159,11.04,11.04,0,0,1-2-5.326,11.268,11.268,0,0,1,1.013-5.335,20.394,20.394,0,0,1,2.566-4.218A18.319,18.319,0,0,1,171,481.676a11.719,11.719,0,0,1,4.047-2.093,7.351,7.351,0,0,1,4.366.123,7.343,7.343,0,0,0-4.165.637,11.842,11.842,0,0,0-3.626,2.768,19.622,19.622,0,0,0-2.767,3.96,15.7,15.7,0,0,0-1.683,4.426,7.171,7.171,0,0,0,.289,4.035,11.669,11.669,0,0,0,2.129,3.289c.869,1.008,1.79,1.95,2.6,2.865a17.038,17.038,0,0,1,2.009,2.688,14.247,14.247,0,0,1,1.491,3.464,8.51,8.51,0,0,1,.135,4.032,7.34,7.34,0,0,1-.736,1.938,10.285,10.285,0,0,1-1.081,1.541c-.755.906-1.475,1.595-2.015,2.347a14.856,14.856,0,0,0-2.771,10.723,13.972,13.972,0,0,0,1.732,5.245,15.03,15.03,0,0,0,3.574,4.133,16.133,16.133,0,0,0,4.737,2.586,15.06,15.06,0,0,0,5.215.772l-.257,1.539c-3.635-1.467-7.453-3.021-10.2-6.021a11.379,11.379,0,0,1-2.712-5.3,8.1,8.1,0,0,1,.88-5.865,12.348,12.348,0,0,1,4.214-3.817,32.627,32.627,0,0,1,4.778-2.469,35.01,35.01,0,0,1,4.99-1.619c1.647-.42,3.247-.8,4.731-1.331a10.591,10.591,0,0,0,3.843-2.216,5.816,5.816,0,0,0,1.82-3.562,6.654,6.654,0,0,0-3.206-6.721,8.786,8.786,0,0,1-2.132-1.4,3.591,3.591,0,0,1-1.022-2.906,5.4,5.4,0,0,1,.987-2.547,8.564,8.564,0,0,1,1.733-1.758,11.044,11.044,0,0,0,2.82-2.62,5.243,5.243,0,0,0,.685-3.327,11.592,11.592,0,0,0-2.277-5.471,14.8,14.8,0,0,0-5.084-4.381,8.508,8.508,0,0,0-5.748-.73A6.68,6.68,0,0,0,180.149,480.342Z" transform="matrix(-1, 0, 0, 1, 380, 0)"></path><path class="cls-3" d="M201.539,532.362c-1.66-1.2-4.142-.492-5.513,1.03a11.208,11.208,0,0,0-2.255,5.628,10.2,10.2,0,0,0-.169,3.821,6.426,6.426,0,0,0,5.287,4.8,8.751,8.751,0,0,0,7-2.245c4.377-3.862,5.038-10.738,9.4-14.621a67.167,67.167,0,0,1-13.549,2.068" style="" transform="matrix(-1, 0, 0, 1, 380, 0)"></path><path class="cls-4" d="M201.735,532.808c.239-.329,2.625-.581,5.345-1.066l2.076-.39,1.112-.233c.475-.108.946-.2,1.423-.322,1.894-.459,3.834-1.025,5.364-1.5l.578-.18.3-.092.147-.044.069,0,.623-.059-3.115,3.43c-.132.152-.316.329-.409.463l-.3.413-.622.847a6.269,6.269,0,0,0-.534.852l-.387.752c-.616,1.317-1.169,2.738-1.8,4.2a26.591,26.591,0,0,1-2.314,4.4,13.231,13.231,0,0,1-3.729,3.753,10.453,10.453,0,0,1-4.808,1.662,8.663,8.663,0,0,1-5.117-1.142,8.164,8.164,0,0,1-3.44-3.886,7.25,7.25,0,0,1-.536-2.552,10.8,10.8,0,0,1,.195-2.272,23.828,23.828,0,0,1,1.044-3.847,9.372,9.372,0,0,1,2.156-3.432,5.964,5.964,0,0,1,3.518-1.652,4.193,4.193,0,0,1,3.3.993,4.46,4.46,0,0,0-4.9,2.573c-.76,1.621-.842,3.526-1.214,4.555-.573,1.714-.951,3.126-.551,4.348a5.018,5.018,0,0,0,2.758,2.976,6.147,6.147,0,0,0,4.17.231,8.15,8.15,0,0,0,3.61-2.121c2.009-1.971,3.078-4.594,4.16-7.042l.821-1.839c.259-.563.664-1.352.738-1.5a6.027,6.027,0,0,1,.913-1.359l.129-.132.065-.066c.019-.02.061-.053,0-.031l-.386.1c-.251.063-.49.117-.725.163s-.467.082-.706.113l-1.05.124a26.184,26.184,0,0,1-4.636.134C203.511,533.055,202.173,532.879,201.735,532.808Z" transform="matrix(-1, 0, 0, 1, 380, 0)"></path></svg>