<svg xmlns="http://www.w3.org/2000/svg" id="new" viewBox="0 0 380 600"><defs transform="matrix(-1, 0, 0, 1, 380, 0)"><style>.cls-1{fill:#ffffff;}.cls-2{fill:#b00314;}.cls-3{fill:#fece30;}</style></defs><g id="default" transform="matrix(-1, 0, 0, 1, 380, 0)"><path class="cls-1 color-body" d="M125.4,465.47c5.8,23.74,18.27,52.94,19.5,54.49-3.33,2.58-6.52,8.2-8.27,11.36-2.45,4.39-3,10-.81,14.5,3.82,7.82,14.17,9.87,22.61,8.13,9.72-2,16.63-7.79,22.45-15.92,4.49-6.26,4.1-13.86,4.55-21.58.41-2.34.38-19.37.38-22.16" style="fill:#ffffff;--backup-fill:#ffffff" /><path d="M185.87,494.29c.38.46.65,3.34.84,7.41.09,2,.15,4.37.2,6.86,0,1.24,0,2.52,0,3.82s0,2.59-.12,4v.15c-.1,3.19-.07,6.45-.28,9.45a36.77,36.77,0,0,1-1.27,7.84,20.92,20.92,0,0,1-1.4,3.6c-.27.6-.63,1.15-1,1.73s-.67,1-1,1.57a48.36,48.36,0,0,1-4.71,6,35.07,35.07,0,0,1-13.23,9.09,31.71,31.71,0,0,1-16.47,1.87,24.07,24.07,0,0,1-8.21-2.88,17.8,17.8,0,0,1-6.44-6.43,17.43,17.43,0,0,1-2.33-8.79,20.8,20.8,0,0,1,1.82-8.53,19.78,19.78,0,0,1,.95-1.9l.89-1.58c.61-1.06,1.24-2.11,1.91-3.16s1.39-2.07,2.17-3.09c.38-.51.8-1,1.22-1.52l.58-.65h0l0,0v0h0s0,0,0-.08l-.42-1c-.27-.64-.54-1.27-.8-1.91l-1.51-3.76q-1.46-3.74-2.75-7.4c-1.73-4.87-3.28-9.62-4.62-14.21a180.79,180.79,0,0,1-5.68-25c2.77,4.38,6.07,10.81,9,16.9s5.55,11.86,6.45,15.08c1,3.43,2,6.77,3.05,10q.79,2.46,1.65,4.83c.29.79.58,1.58.86,2.36l.45,1.15.31.75c.12.32.29.62.39.94,0,.85,0,1.77,0,2.33a3.65,3.65,0,0,1-.35,1l-.43,1.17c-.38.36-.8.71-1.15,1.06-.2.22-.41.42-.61.65-.41.44-.81.91-1.19,1.39-.77,1-1.5,2-2.19,3s-1.36,2.11-2,3.18c-.34.56-.62,1-.87,1.55a14.33,14.33,0,0,0-.69,1.55c-1.61,4.22-1.24,9.11,1.39,12.43a12.86,12.86,0,0,0,4.88,3.91,19.84,19.84,0,0,0,6.08,1.71,26.94,26.94,0,0,0,12.18-1.41,30.34,30.34,0,0,0,10-5.92A47.62,47.62,0,0,0,179,537a20.73,20.73,0,0,0,3.47-9.27c.51-3.33.62-6.77.9-10.17,0-.33,0-.67.09-1.18a2.94,2.94,0,0,1,.05-.35c.12-.78.21-1.8.31-2.82s.21-2.13.31-3.23c.24-2.21.47-4.48.69-6.59C185.25,499.13,185.69,495.52,185.87,494.29Z" /></g><g data-name="default" id="default-2" transform="matrix(-1, 0, 0, 1, 380, 0)"><path class="cls-1 color-body" d="M235.81,491.94a63.42,63.42,0,0,0-26.93,5.58,62.14,62.14,0,0,0-21.07,15.77c4.56,5.6,4.08,11.92,5,18.77-3,5.23-6,12.23-5.41,19.43.9,10.77,7.49,16.83,17.72,17.24,7.85.32,16.58-3.8,21.82-9.86,6-7,8.87-14.58,9.66-24C236.81,520.29,237.55,508.06,235.81,491.94Z" style="fill:#ffffff;--backup-fill:#ffffff" /><path class="cls-1 color-body" d="M187.81,513.29c4.56,5.6,4.08,11.92,5,18.77-3,5.23-6,12.23-5.41,19.43.9,10.77,7.49,16.83,17.72,17.24,7.85.32,16.58-3.8,21.82-9.86,6-7,8.87-14.58,9.66-24,.21-14.57.94-26.8-.79-42.92" style="fill:#ffffff;--backup-fill:#ffffff" /><path d="M235.87,491.94c.68.57,1.69,6.77,2.15,14s.47,15.46.74,20q.15,3,.3,6.12c0,1.07.12,2.12.11,3.24l-.09,1.73-.14,1.66a41.47,41.47,0,0,1-3.52,13.37,40,40,0,0,1-3.54,6.16c-.68,1-1.39,1.9-2.13,2.81-.39.46-.81.92-1.22,1.38l-1.29,1.31a34.27,34.27,0,0,1-12.19,7.35,28.58,28.58,0,0,1-6.06,1.41,27.84,27.84,0,0,1-6.32,0,25.09,25.09,0,0,1-6.22-1.55,19.48,19.48,0,0,1-5.64-3.43,18.67,18.67,0,0,1-4.13-5.07,22.46,22.46,0,0,1-2.25-5.79c-.24-1-.39-2-.53-2.91s-.22-1.9-.22-2.89a27.81,27.81,0,0,1,.48-5.68,36.3,36.3,0,0,1,3.48-9.88c.38-.73.77-1.45,1.17-2.15.2-.36.41-.7.62-1l.15-.25.08-.13,0,0,.11-.13.11-.14,0-.16a2.82,2.82,0,0,0,0-.64c0-.75,0-1.5-.08-2.24a58.63,58.63,0,0,0-.5-8,17.55,17.55,0,0,0-2.42-6.47,13.53,13.53,0,0,1,5.35,5.7,39.67,39.67,0,0,1,3,8.72l.27,1.05.14.52.06.26a2.65,2.65,0,0,1,.08.33c.13.65.26,1.29.38,1.93a.66.66,0,0,1,0,.24l-.1.21-.21.44-.41.87a11.42,11.42,0,0,0-.51,1.17c-.11.3-.22.6-.34.89-.21.58-.42,1.14-.62,1.68-.78,2.16-1.36,4-1.84,5.16a22.13,22.13,0,0,0-1.71,7.37,19.62,19.62,0,0,0,1,7.29,13.32,13.32,0,0,0,4,5.7,15.52,15.52,0,0,0,6.31,3,22.5,22.5,0,0,0,13.84-1.43,26.63,26.63,0,0,0,10.65-8,35,35,0,0,0,6.1-11,39.63,39.63,0,0,0,1.47-5.84,49.39,49.39,0,0,0,.65-5.75c0-2,0-3.93,0-5.85s.06-3.83.09-5.7c.1-3.71.2-7.29.29-10.76.05-3.29.36-7.77.56-11.74S235.81,493.07,235.87,491.94Z" /></g><g id="pants_red" transform="matrix(-1, 0, 0, 1, 380, 0)"><path class="cls-2" d="M125.4,466c5.8,23.74,5.41,37.82,3.55,43.34-1.14,6.48,12.86,12.48,25.86,12.48,19,0,29.68-5.54,35.53-11.19,0-.55,0-1.1.09-1.65.41-2.34.38-11.37.38-14.16" /><path d="M190.87,494.79c.61.53,1,5.48,1,11.3,0,.73,0,1.47-.07,2.26,0,.18,0,.41,0,.6s0,.21,0,.51l0,1.53c.07.3-.2.42-.36.6l-.53.52c-.35.33-.75.73-1,1-.57.51-1.14,1-1.72,1.45a51.14,51.14,0,0,1-6.25,4.16c-5.84,3.42-13,5.33-20.14,6.15-1.79.17-3.59.35-5.39.41a46.54,46.54,0,0,1-5.54,0,50.42,50.42,0,0,1-10.8-1.85,33,33,0,0,1-8.94-3.94,16.48,16.48,0,0,1-4.15-3.81,9.09,9.09,0,0,1-1.8-7.15c.25-.9.26-.91.36-1.2s.12-.56.19-.83c.14-.55.22-1.17.33-1.76.17-1.23.3-2.49.38-3.76.16-2.54.18-5.12.11-7.65-.24-10.13-1.47-19.49-2.14-27.05a45.68,45.68,0,0,1,6.62,12c1.76,4.54,2.75,9,2.68,11.48a106.5,106.5,0,0,1-1.1,14.23c-.1.58-.21,1.15-.31,1.73l-.39,1.73c-.18.58-.3,1.14-.52,1.73l-.15.44-.07.16a1.61,1.61,0,0,0-.07.37c-.18,1.07.87,2.65,2.25,3.82a20.29,20.29,0,0,0,4.82,3,34.22,34.22,0,0,0,5.36,1.9,41.63,41.63,0,0,0,10.81,1.4,81.49,81.49,0,0,0,10.33-.79,60.93,60.93,0,0,0,9.33-2.13,48.2,48.2,0,0,0,8.1-3.36c.63-.33,1.21-.69,1.82-1s1.16-.72,1.71-1.1c1.06-.71,2.37-1.74,2.7-2,0-.06.17-.1.16-.18l0-.23,0-.24,0-.13a3.64,3.64,0,0,1,.05-.38l0-.2,0-.11c0-.07,0-.15.05-.24s.07-.35.1-.53c.06-.37.13-.76.19-1.14.25-1.6.52-3.27.76-4.83C190.2,498.43,190.68,495.69,190.87,494.79Z" /><path class="cls-3" d="M143,522.31a54,54,0,0,0-6.32,9.5c-2.45,4.4-3,10-.81,14.51,3.82,7.82,14.17,9.87,22.61,8.13,9.72-2,16.63-7.79,22.45-15.92,4.17-5.82,4.13-12.79,4.46-19.93a33.8,33.8,0,0,1-23.53,9.19A34.46,34.46,0,0,1,143,522.31Z" /><path d="M143,522.26c.43-.11,1.83.58,4,1.39a39.25,39.25,0,0,0,8.07,2.24,34.5,34.5,0,0,0,9.56.23,27.82,27.82,0,0,0,7.5-1.91,36,36,0,0,0,5.6-3c.84-.52,1.61-1.13,2.45-1.71s1.69-1.46,2.58-2.25,1.88-1.76,2.82-2.65l2.85-2.72.11.47.05.23a1.28,1.28,0,0,1,0,.31l0,1.63-.06,3.36c0,2.28-.07,4.59-.19,7,0,.61-.06,1.22-.11,1.83l-.13,1.53c-.09.73-.17,1.47-.29,2.22a29.1,29.1,0,0,1-1.1,4.54,24.87,24.87,0,0,1-2,4.4c-.44.69-.88,1.39-1.29,1.94s-.83,1.18-1.28,1.75a49.3,49.3,0,0,1-5.79,6.47A40.89,40.89,0,0,1,172,553a36.88,36.88,0,0,1-4.81,2.75,34.86,34.86,0,0,1-5.16,1.92c-.87.27-1.76.44-2.64.65s-1.81.34-2.72.42a29.77,29.77,0,0,1-10.81-.71,25.16,25.16,0,0,1-5.1-2,20.08,20.08,0,0,1-4.47-3.31,16.52,16.52,0,0,1-4.68-9.6A19.15,19.15,0,0,1,134,531.7c.18-.32.38-.63.57-.94l.54-.81c.72-1.06,1.46-2.1,2.21-3.09a36.33,36.33,0,0,1,4.8-5.31c-.75,2.06-1.47,4.42-2.23,6.92-.37,1.25-.76,2.54-1.15,3.84a13.89,13.89,0,0,0-.47,1.81,15.18,15.18,0,0,0-.28,1.73,16.19,16.19,0,0,0,.44,6,18.8,18.8,0,0,0,.74,2.11c.24.59.53,1.08.69,1.53a11.33,11.33,0,0,0,6.07,5.6,20,20,0,0,0,4.42,1.31,25.09,25.09,0,0,0,4.66.34,27.25,27.25,0,0,0,9-1.88,28.87,28.87,0,0,0,7.71-4.53,39.8,39.8,0,0,0,6.07-6.25,38.71,38.71,0,0,0,2.44-3.4,18.56,18.56,0,0,0,1.64-3.57,22.35,22.35,0,0,0,.9-3.8c.12-.64.18-1.29.26-1.94l0-.65,0-.55c0-.73,0-1.42,0-2.06,0-.32,0-.64,0-1v-.45c0-.07,0,0-.07,0l-.09.09-.19.19a16.34,16.34,0,0,1-2.8,2.21l-.74.42c-.26.15-.53.3-.8.43-.54.27-1.07.56-1.63.79a32.62,32.62,0,0,1-3.3,1.29,33.8,33.8,0,0,1-13.19,1.63A29.5,29.5,0,0,1,143,522.26Z" /><path d="M156.56,556.39c-.31-.15-.35-1.44-.42-2.9a14,14,0,0,0-.59-3.91,12,12,0,0,0-2.28-4,20.21,20.21,0,0,0-3.66-3.06,53.59,53.59,0,0,0-13.46-6.23,7.64,7.64,0,0,1,3.61-1.58,5.62,5.62,0,0,1,3.18.2,60,60,0,0,1,11,7.71,14.29,14.29,0,0,1,1.93,2.2,11,11,0,0,1,1.26,2.49,11.93,11.93,0,0,1,.65,4.85A13.42,13.42,0,0,1,156.56,556.39Z" /><path d="M173.24,530.25c-.13-.1-.16-.55.13-1.11a3.08,3.08,0,0,1,1.82-1.51A3.58,3.58,0,0,1,178,528a4.28,4.28,0,0,1,1.63,1.87,6.15,6.15,0,0,1,.51,3.2,9.67,9.67,0,0,1-.83,3.13,18,18,0,0,1-3.55,5c-.14.15-.3.31-.49.49a5.69,5.69,0,0,1-.84.63,3.66,3.66,0,0,1-2.18.54,4,4,0,0,1-3.36-2.64,6.66,6.66,0,0,1-.34-3,10.86,10.86,0,0,1,.54-2.52,9.36,9.36,0,0,1,5.73-5.85c-.41,1.22-.9,2.56-1.17,3.71a10,10,0,0,1-.78,2.51c-1.22,1.61-1.68,4.5-.57,4.86a.93.93,0,0,0,.91-.09,7.6,7.6,0,0,0,1.06-.92,14.91,14.91,0,0,0,1.89-2.23,8.73,8.73,0,0,0,1.66-4.66,3.68,3.68,0,0,0-.35-1.81,2.06,2.06,0,0,0-1.08-.93,2.63,2.63,0,0,0-1.82-.05A2.92,2.92,0,0,0,173.24,530.25Z" /><path d="M153.63,537.8c-.47.42-2.15-.83-3-.94a22.87,22.87,0,0,1-4.31-1.39,16.47,16.47,0,0,1-3.22-1.63c-.93-.62-1.5-1.19-2.28-1.63a2.74,2.74,0,0,1,1.65-1.89c.75-.32,1.41-.31,1.64-.08a13,13,0,0,0,4.8,3.49,12.51,12.51,0,0,1,3.87,2.14A4.46,4.46,0,0,1,153.63,537.8Z" /><path d="M156.05,532.18c-.3.57-2.16-.08-3,0a11.19,11.19,0,0,1-4.37-.8,8.55,8.55,0,0,1-5.08-4.22c1.46-1,3.16-1.42,3.43-.95a6.9,6.9,0,0,0,4,3.24,17.52,17.52,0,0,1,3.73,1.23A4.79,4.79,0,0,1,156.05,532.18Z" /></g><g data-name="default" id="default-3" transform="matrix(-1, 0, 0, 1, 380, 0)"><ellipse class="cls-1 color-body" cx="182.97" cy="463.29" rx="57.58" ry="25.42" style="fill:#ffffff;--backup-fill:#ffffff" /><path d="M240.52,463.29c-.12-.27-.15-1.12-.47-2.38a14.89,14.89,0,0,0-2.18-4.59c-2.34-3.47-6.91-6.87-12.28-9.43a75.65,75.65,0,0,0-17.25-5.62,102.23,102.23,0,0,0-14.76-2,135.43,135.43,0,0,0-20.58.34,109.46,109.46,0,0,0-20.92,3.9,70.19,70.19,0,0,0-10,3.75,40.9,40.9,0,0,0-8.84,5.46,16.71,16.71,0,0,0-5.57,7.74,10.26,10.26,0,0,0,1.42,8.55,22,22,0,0,0,5.86,5.89,45.4,45.4,0,0,0,7.55,4.26,81.27,81.27,0,0,0,16.63,5.22,128,128,0,0,0,33.62,2.16c10.8-.73,21.05-2.72,29.87-6.26a41.74,41.74,0,0,0,11.67-6.8,19.06,19.06,0,0,0,4-4.72,12.09,12.09,0,0,0,1.67-5.51,11.39,11.39,0,0,1-.86,5.67,18.84,18.84,0,0,1-3.79,5.7,41.18,41.18,0,0,1-12.39,8.47,76.89,76.89,0,0,1-23.56,6.5,128.78,128.78,0,0,1-14.73.63,132.89,132.89,0,0,1-14.23-.89A101.72,101.72,0,0,1,144,483a49.5,49.5,0,0,1-11.4-6.33,25.91,25.91,0,0,1-4.63-4.49,15.88,15.88,0,0,1-3-5.73,12,12,0,0,1,0-6.4,15.9,15.9,0,0,1,2.87-5.54,31.5,31.5,0,0,1,9.22-7.53,61.18,61.18,0,0,1,10.45-4.64,90.12,90.12,0,0,1,10.63-2.94,117.83,117.83,0,0,1,20.78-2.5,122.92,122.92,0,0,1,19.55.82,96,96,0,0,1,17.88,3.86c5.32,1.68,12.5,4.81,17.61,9.32a26,26,0,0,1,3.32,3.53,17.89,17.89,0,0,1,2.14,3.63A12.71,12.71,0,0,1,240.52,463.29Z" /><path class="cls-1 color-body" d="M125.4,463.66c9,37.25,43.74,56,63.78,54.5,18.52-1.37,41.25-8.94,48.76-28.75,2.68-7.05,3.19-15.45,2-25.75" style="fill:#ffffff;--backup-fill:#ffffff" /><path d="M240,463.66a23.84,23.84,0,0,1,.8,4.95,58.68,58.68,0,0,1,.11,10.41,38.37,38.37,0,0,1-2.71,11.78c-.38.9-.76,1.78-1.12,2.62l-1.29,2.33c-.21.37-.4.73-.6,1.08s-.45.65-.67.95c-.42.63-.82,1.2-1.18,1.73a41.84,41.84,0,0,1-10,9.53,57.74,57.74,0,0,1-12.84,6.48,78,78,0,0,1-14,3.63l-3.54.51-3.55.37a38.53,38.53,0,0,1-7.22-.17,51.74,51.74,0,0,1-11.9-2.89,67.53,67.53,0,0,1-10.84-5.08,73.4,73.4,0,0,1-17.68-14.37,75.56,75.56,0,0,1-6.55-8.42,76.45,76.45,0,0,1-4.91-8.7,70.45,70.45,0,0,1-5.41-16.6,122.65,122.65,0,0,0,8.07,15.83c1.64,2.69,3.42,5.17,5,7.3l2.21,2.88c.68.84,1.25,1.6,1.72,2.22a68.1,68.1,0,0,0,27.68,21.57,48.6,48.6,0,0,0,15.64,3.82c.65,0,1.29,0,1.94.05s1.28-.05,1.91-.07c1.29-.11,2.57-.23,3.84-.37s2.51-.33,3.75-.54,2.46-.43,3.66-.69c9.62-2,18.28-5.77,24.92-11.1a40,40,0,0,0,8.31-8.95,39.51,39.51,0,0,0,2.75-5.11,30.59,30.59,0,0,0,1.94-5.26A59,59,0,0,0,240,472.92C240.2,468.62,240,464.89,240,463.66Z" /></g><g id="pants_tux" transform="matrix(-1, 0, 0, 1, 380, 0)"><path class="cls-2" d="M240,464.16s-22.14,22.63-64.39,20c-44.13-2.74-50.16-20-50.16-20,9,37.25,43.74,56,63.78,54.5,18.52-1.37,41.25-8.94,48.76-28.75C240.62,482.86,241.13,474.46,240,464.16Z" /><path d="M240,464.16a52.59,52.59,0,0,1-1.54,26.13l-1,2.37c-.18.4-.34.8-.53,1.19l-.64,1.14c-.44.76-.86,1.53-1.32,2.28l-1.54,2.14a17.92,17.92,0,0,1-1.66,2c-.59.65-1.13,1.34-1.75,1.93a44.3,44.3,0,0,1-3.82,3.37A56.57,56.57,0,0,1,211.4,515a78.15,78.15,0,0,1-11.08,3.34,87,87,0,0,1-11.79,1.73c-8.29.45-16.46-1.91-24-5.35a76.11,76.11,0,0,1-34.86-33.46,76.87,76.87,0,0,1-6.24-16.63l3.82-1.12.14.3a4.16,4.16,0,0,0,.22.4,9.16,9.16,0,0,0,.51.82,16.64,16.64,0,0,0,1.24,1.59c.43.53,1,1,1.42,1.5s1.06.92,1.58,1.38a19.11,19.11,0,0,0,1.69,1.27,15,15,0,0,0,1.76,1.18l1.82,1.11c.62.34,1.27.65,1.9,1a74.26,74.26,0,0,0,16.13,5.52c2.78.55,5.53,1.17,8.32,1.51l4.14.59,4.13.39c1.37.11,2.74.3,4.1.35l4,.14c2.69.19,5.34,0,8-.06l2-.06,1.93-.2,3.84-.38c1.28-.1,2.52-.4,3.77-.58s2.48-.39,3.69-.65l3.6-.85c.59-.14,1.19-.27,1.78-.42l1.73-.53,3.43-1,3.3-1.21a80.81,80.81,0,0,0,12.13-5.74,61.51,61.51,0,0,0,10-7,52.55,52.55,0,0,1-10.67,9.16,78.66,78.66,0,0,1-14.7,7.66l-3.9,1.42c-1.29.47-2.6.79-3.87,1.17A72.8,72.8,0,0,1,199,484.9c-.58.12-1.15.25-1.71.34l-1.66.21-3.07.38a40.64,40.64,0,0,1-5,.31c-1.55,0-3.1.08-4.63.06l-4.58-.23c-3.05-.08-6-.51-9-.81-1.48-.13-2.94-.36-4.4-.6l-4.35-.69-4.27-.91-2.11-.45-2.09-.58c-1.38-.4-2.77-.72-4.12-1.19l-4-1.4-3.88-1.65c-1.27-.6-2.49-1.27-3.73-1.9a39.88,39.88,0,0,1-6.76-4.79,16.66,16.66,0,0,1-1.48-1.43l-.71-.74-.66-.8a14,14,0,0,1-2.22-3.59l1.62-.47a71.17,71.17,0,0,0,18.86,33.9,73.61,73.61,0,0,0,14.35,11.24A64,64,0,0,0,175.29,516a45.85,45.85,0,0,0,8.15,1.54,35.51,35.51,0,0,0,8.05-.16,83.13,83.13,0,0,0,15.41-3.09c9.72-3,18.47-7.89,24.34-14.91A38.09,38.09,0,0,0,239.7,480,79.21,79.21,0,0,0,240,464.16Z" /><g id="hero_belt"><path class="cls-3" d="M240,464.16s-22.14,22.63-60,20.44c-21.13-1.22-39.16-5.81-53.4-16.81a47.67,47.67,0,0,0,4.36,12.46c9.88,8.54,23.82,15.83,37.88,17.54,41,5,62-9,73-25A27.62,27.62,0,0,0,240,464.16Z" /><path d="M240,464.16a13.55,13.55,0,0,1,.93,2.25A25,25,0,0,1,242,471.5c0,.27.06.53.06.82l0,.51c0,.16-.17.28-.25.42l-1,1.46c-.36.49-.7,1-1.11,1.51l-1.25,1.52a41.32,41.32,0,0,1-2.78,3.1c-.95,1.08-2.1,2-3.19,3.06A57.39,57.39,0,0,1,217,493.59,78.78,78.78,0,0,1,202.73,498a99.67,99.67,0,0,1-20.64,1.83l-5.33-.17c-1.79-.09-3.57-.29-5.36-.43a58,58,0,0,1-10.79-1.74,75.79,75.79,0,0,1-20.12-8.58,79.15,79.15,0,0,1-8.87-6.22l-1-.86-.67-.56a.47.47,0,0,1-.19-.25l-.14-.28-.17-.36c-.41-.8-.78-1.62-1.14-2.44-.71-1.64-1.34-3.31-1.88-5l-.18-.56-.28-.95c-.18-.7-.39-1.43-.53-2.1-.32-1.39-.49-2.59-.73-3.89l-.08-.49c0-.14,0,0,.12,0l.21.14.83.55,1.67,1.11,1.67,1.11c.27.18.56.37.87.61l.48.32.35.23a72.54,72.54,0,0,0,7.57,4.42,85.26,85.26,0,0,0,16.31,6,125,125,0,0,0,16.79,3c2.78.33,5.56.56,8.31.75,1.37.07,2.73.08,4.09.12l2,.06,1,0,1,0a84.17,84.17,0,0,0,29.59-6.1c2.22-.83,4.3-1.88,6.37-2.84l3-1.59c1-.52,1.91-1.12,2.85-1.66a65.5,65.5,0,0,0,10-7.29c-4.57,5.27-13.08,11.59-22.14,15.57a73.19,73.19,0,0,1-23.25,6.28c-2.47.19-4.93.21-7.36.32l-7.23-.28c-4.74-.37-9.4-.91-13.95-1.65A99.68,99.68,0,0,1,140,476.59c-2-.91-3.88-1.9-5.74-2.95-.92-.56-1.84-1.08-2.74-1.65l-2.38-1.59-1.52-1.12s-.07-.06-.09-.06l0,.12,0,.22.09.46.23.9.29,1,.46,1.44c.32.95.68,1.89,1.05,2.82s.78,1.83,1.2,2.73l.33.66c.11.24.13.32.29.43l1.13.94c1.51,1.26,3.09,2.43,4.67,3.55a79.37,79.37,0,0,0,9.84,5.85,67.27,67.27,0,0,0,20.65,6.6c1.73.26,3.49.34,5.21.53s3.44.34,5.14.36l5.06.2,5-.1a92.57,92.57,0,0,0,18.83-2.52,64.62,64.62,0,0,0,16.38-6.54l.91-.5.9-.59,1.91-1.23c.67-.4,1.29-.9,1.94-1.38l2-1.48a60.84,60.84,0,0,0,7.25-7c1.11-1.2,2-2.48,3-3.64a2.89,2.89,0,0,0,.27-.37v-.46c0-.35,0-.7-.05-1-.05-.68-.13-1.33-.23-1.93A33.26,33.26,0,0,0,240,464.16Z" /></g></g><g id="basketball" transform="matrix(-1, 0, 0, 1, 380, 0)"><path class="cls-2" d="M235.48,492.44A103.9,103.9,0,0,0,200.6,498c-17.58,6.27-27.29,15.77-27.29,15.77,5.91,5.6,5.29,4.92,6.48,11.77-3.89,5.23,56.68,2.23,57.71-7.2C237.77,503.79,237.73,508.56,235.48,492.44Z" /><path class="cls-2" d="M174.31,513.79c5.81,5.51,5.31,4.7,6.42,11.41a54.69,54.69,0,0,0,24.66,5.59c13.07,0,24.72-4.16,32.31-10.66.32-11.21.59-14.69-1.22-27.69" /><path d="M236.54,492.43c.66.33,1.55,4.16,2.21,8.69s.85,9.8,1.12,12.67c.13,1.28.23,2.57.32,3.88l0,.49,0,.75.05,1.59,0,.81c.05.15-.13.21-.21.31l-.3.27L238.57,523l-.64.56-.43.36-.83.7c-.56.47-1.16.88-1.74,1.32a43.09,43.09,0,0,1-3.72,2.34,52.4,52.4,0,0,1-16.3,5.66,53.39,53.39,0,0,1-27.78-2.36c-1-.38-2-.8-3-1.25-.49-.22-1-.46-1.44-.69l-.71-.36-.34-.19-.45-.23c-.77-.4-1.5-.82-2.22-1.21l-.53-.3-.27-.15c-.1,0-.05-.19-.08-.28,0-.41-.09-.83-.14-1.24-.08-.76-.16-1.52-.23-2.27l-.09-1.29a9.62,9.62,0,0,0-.28-2,6.49,6.49,0,0,0-1-1.76c-.91-1.27-1.94-2.56-2.83-3.78a22.72,22.72,0,0,1,5,1.69,7.69,7.69,0,0,1,2.68,2A12.71,12.71,0,0,1,183,521.4l.29.69.14.34c.05.14.07.1.1.15s.23.21.31.21a.45.45,0,0,0,.27,0,.5.5,0,0,0,.17-.1l0,0,.25.08c.17,0,.33.1.48.16.32.1.62.2.89.31a9.43,9.43,0,0,1,1.4.63A41.11,41.11,0,0,0,206.42,529,45,45,0,0,0,224,526.06a41.46,41.46,0,0,0,7.18-3.58c.54-.34,1.08-.69,1.59-1.06s1-.72,1.5-1.11l.72-.56.35-.32.33-.31a4,4,0,0,0,0-.49l0-.49v-.84c0-.62,0-1.23,0-1.84,0-1.2,0-2.39.05-3.55q.06-3.45.1-6.67C235.76,501.21,236.37,493.9,236.54,492.43Z" /><path class="cls-3" d="M225,494.24c1.27.14,1.55,4.41,2.39,6,1.49,2.8,2,6.1,2.58,9.08.94,5.21.26,10.43-1.66,14-3.41-1.28-6-4.06-5.46-5.16,4-8.85-.34-15,.34-20.11C223.2,496.87,224.63,494.68,225,494.24Zm3.58,12.26h0" /><path class="cls-3" d="M211.81,537.79a34.53,34.53,0,0,1-19-5.59c0,.12,0,.24,0,.36-3,5.23-6,12.23-5.41,19.43.9,10.77,7.49,16.83,17.72,17.24,7.85.32,16.58-3.8,21.82-9.86,6-7,8.87-14.58,9.66-24,0-2.81.1-5.54.15-8.23A33.49,33.49,0,0,1,211.81,537.79Z" /><path d="M211.81,537.73c.51-.55,4.66-.72,9.57-2.38a33.45,33.45,0,0,0,7.43-3.52l.91-.6,1.22-.9.61-.45.6-.55,1.21-1.09c.81-.81,1.65-1.64,2.45-2.48s1.62-1.7,2.33-2.49l.35.17,0,0v.93c0,.7,0,1.37,0,2,0,1.34.08,2.55.11,3.62,0,1.42.09,2.85.14,4.3a18.16,18.16,0,0,1,0,2.22c0,.54,0,1.07-.08,1.59a45.38,45.38,0,0,1-.84,6.34,38.47,38.47,0,0,1-5,12.43,40.7,40.7,0,0,1-4.06,5.49,31.37,31.37,0,0,1-5.24,4.69,33.61,33.61,0,0,1-12.56,5.53,26.52,26.52,0,0,1-4,.52c-.68.05-1.37,0-2,0l-2-.13a24,24,0,0,1-7.94-2.15,19,19,0,0,1-6.64-5.26,20.93,20.93,0,0,1-3.73-7.22c-.17-.63-.35-1.26-.49-1.88l-.33-1.87a35.4,35.4,0,0,1-.28-3.72,28.2,28.2,0,0,1,.9-7.16,34.94,34.94,0,0,1,2.26-6.32c.22-.49.45-1,.69-1.45l.36-.7.41-.77c.4-.77.84-1.5,1.25-2.23,0-.05.06-.08.07-.15l0-.36-.09-.71-.15-1.4-.16-1.38-.07-.69-.08-1,1.82,1c.93.54.27,0,.91.47l2.24,1.52c.74.51,1.46,1,2.17,1.42s1.53.9,1.77,1.06a34.87,34.87,0,0,0,4.68,2.22,39.35,39.35,0,0,0,9.26,2.31,23.2,23.2,0,0,1-10.57,1.42,27.69,27.69,0,0,1-6.12-1.23,1.16,1.16,0,0,0-.68.11.28.28,0,0,0-.12.12,1.43,1.43,0,0,1,0,.33.6.6,0,0,0,.08.32s0,0,0,0l-.19.48c-.12.31-.24.62-.36.91-.45,1.17-.85,2.16-1.2,2.9a25,25,0,0,0-2.11,6.42,21,21,0,0,0-.31,3.25l.06,1.66c0,.54.12,1.08.18,1.62a15.32,15.32,0,0,0,2.07,5.91,12.94,12.94,0,0,0,4.29,4.26,16.44,16.44,0,0,0,5.76,2.11,20.45,20.45,0,0,0,6.14.18,27.06,27.06,0,0,0,15.58-7.76,33.54,33.54,0,0,0,3.52-4.34,34.94,34.94,0,0,0,4.64-9.57,38,38,0,0,0,1.19-5c.16-.82.26-1.65.38-2.47s.2-1.71.24-2.37c.06-.82,0-1.52,0-2.25,0-.37,0-.73,0-1.09v-.55a.56.56,0,0,0,0-.13l-.09.09-.18.18a10.87,10.87,0,0,1-2.68,2,27.08,27.08,0,0,1-5.23,2.36,28.89,28.89,0,0,1-6,1.31A30.93,30.93,0,0,1,211.81,537.73Z" /><path d="M220.22,565.1c-.33-.19-.37-1.85-.71-3.67a8.79,8.79,0,0,0-2-4.45c-2.65-2.72-7.28-3.88-11.45-4.76a45.48,45.48,0,0,0-10.46-1,28.46,28.46,0,0,0-4.59.53,5.24,5.24,0,0,0-3.2,1.39,2.45,2.45,0,0,1,.44-2.2,7.18,7.18,0,0,1,2-1.88,7.59,7.59,0,0,1,3.88-1.52,51.08,51.08,0,0,1,9.26,1.16c2.79.57,5.32,1.25,7.7,2a19.12,19.12,0,0,1,6.47,3.15,9.21,9.21,0,0,1,3.3,5.63,9.42,9.42,0,0,1-.05,3.34A16.94,16.94,0,0,1,220.22,565.1Z" /><path d="M213.47,549.62c-.09-.17-.2-.14-.39-.29s-.55-.45-.89-.69a5.35,5.35,0,0,0-2.09-1l-3-.44c-1-.15-2.06-.29-3-.36a63.1,63.1,0,0,1-9.25-1.19c.66-1.91,2.81-3.38,3.64-3.1a57.47,57.47,0,0,0,8.19,1.9,22.19,22.19,0,0,1,3.35.79,6.61,6.61,0,0,1,2.68,1.62,3.5,3.5,0,0,1,.84,1.51,4.23,4.23,0,0,1,.16.82C213.72,549.44,213.55,549.63,213.47,549.62Z" /><path d="M214.64,543.39c-.33.06-.73-.33-1.39-.51a5.77,5.77,0,0,0-2.05-.22,33.08,33.08,0,0,1-5.63,0A21.51,21.51,0,0,1,201,542a15.63,15.63,0,0,1-2-.68l-.46-.2-.22-.11-.13-.1a.6.6,0,0,0-.52-.17,1.49,1.49,0,0,1,.52-1.4c.45-.33.74-.59,1.11-.81.69-.41,1.33-.58,1.65-.4,5,2.9,9.13,1.45,12.29,2.93a2.72,2.72,0,0,1,1.16,1.17A2,2,0,0,1,214.64,543.39Z" /><path d="M230.14,537.27c0-.08,0-.24.22-.37a1.07,1.07,0,0,1,.88-.06,1.54,1.54,0,0,1,.93.84,3,3,0,0,1,.22,1.31c-.06,1.59-.35,3.29-.45,4.31a12.9,12.9,0,0,1-1.8,5.52c-.13.22-.28.44-.43.65a5.43,5.43,0,0,1-.34.44l-.42.47a4.79,4.79,0,0,1-1.89,1.41,3.39,3.39,0,0,1-2.11.14,3.1,3.1,0,0,1-1.72-1.13,2.21,2.21,0,0,1-.4-.78c-.08-.32-.17-.64-.23-1l-.07-1.1c0-.19,0-.37,0-.57v-.48a15.08,15.08,0,0,1,.3-2.52,14.32,14.32,0,0,1,1.76-4.49,13,13,0,0,1,1.33-1.83,6.75,6.75,0,0,1,1.83-1.54,3.67,3.67,0,0,1,2.42-.44,2.59,2.59,0,0,1,1.81,1.16,2.35,2.35,0,0,0-1.84.41,2.3,2.3,0,0,0-.81,1.19c-.15.41-.27.84-.43,1.23a2.94,2.94,0,0,1-.54,1,10,10,0,0,0-2.82,5.67l-.08.63c0,.16,0,.32,0,.48a1.57,1.57,0,0,0,.16.94.81.81,0,0,0,.86.21,1.66,1.66,0,0,0,.73-.52c.1-.11.18-.22.27-.33s.16-.22.3-.42a10.07,10.07,0,0,0,.66-1.08,14.3,14.3,0,0,0,.94-2.23c.49-1.49.81-2.94,1.18-4.31a8.47,8.47,0,0,1,.34-1.1,3.3,3.3,0,0,0,.25-.94.76.76,0,0,0-.36-.68A.67.67,0,0,0,230.14,537.27Z" /></g></svg>