<svg xmlns="http://www.w3.org/2000/svg" id="animals_1" viewBox="0 0 380 600"><defs transform="matrix(-1, 0, 0, 1, 380, 0)"><style>.cls-1{fill:#c08d41;}</style></defs><g id="default" transform="matrix(-1, 0, 0, 1, 380, 0)"><ellipse class="cls-1" cx="182.666" cy="463" rx="57.576" ry="25.423" /><path d="M240.211,463c-.114-.271-.144-1.126-.47-2.383a14.723,14.723,0,0,0-2.181-4.591c-2.335-3.468-6.908-6.866-12.274-9.432a75.9,75.9,0,0,0-17.249-5.618,102.7,102.7,0,0,0-14.759-1.964,135.987,135.987,0,0,0-20.584.343,109.734,109.734,0,0,0-20.919,3.9,69.213,69.213,0,0,0-9.97,3.745,40.718,40.718,0,0,0-8.837,5.466,16.685,16.685,0,0,0-5.575,7.735,10.262,10.262,0,0,0,1.424,8.555,22.216,22.216,0,0,0,5.861,5.89,45.647,45.647,0,0,0,7.546,4.254,80.68,80.68,0,0,0,16.634,5.217,127.607,127.607,0,0,0,33.621,2.16c10.8-.726,21.043-2.714,29.867-6.26a41.746,41.746,0,0,0,11.673-6.8,18.979,18.979,0,0,0,3.987-4.717A12.042,12.042,0,0,0,239.673,463a11.351,11.351,0,0,1-.855,5.665,18.9,18.9,0,0,1-3.8,5.7,40.971,40.971,0,0,1-12.386,8.469,77.106,77.106,0,0,1-23.558,6.506,131.781,131.781,0,0,1-14.729.629,134.891,134.891,0,0,1-14.228-.889,101.833,101.833,0,0,1-26.391-6.39,49.651,49.651,0,0,1-11.4-6.334,26.141,26.141,0,0,1-4.635-4.491,15.9,15.9,0,0,1-2.952-5.73,12.105,12.105,0,0,1,.04-6.4,15.806,15.806,0,0,1,2.875-5.539,31.321,31.321,0,0,1,9.217-7.53,61.831,61.831,0,0,1,10.449-4.645,89.063,89.063,0,0,1,10.632-2.939,118.5,118.5,0,0,1,20.785-2.5,123.865,123.865,0,0,1,19.548.826,95.8,95.8,0,0,1,17.875,3.854c5.324,1.679,12.5,4.809,17.609,9.321a26.265,26.265,0,0,1,3.327,3.531,18.324,18.324,0,0,1,2.135,3.632A12.689,12.689,0,0,1,240.211,463Z" /></g><path class="cls-1" d="M224.052,496.679c.753,7.646,22.934,31.566,21.448,14.821,4.364,4.035,22.752,12.269,17.894-.271,7.956,5.525,36.309,8.938,23.978-6.11,9.08,1.033,29.016-9.908,13.128-15.619,7-4,7-16,3-21-10.237,16.983-7.455,8.036-13,0-13.247,21.954-48.334,23.158-59.133-1.558" transform="matrix(-1, 0, 0, 1, 380, 0)" /><path d="M231.426,466.917a7.737,7.737,0,0,1,1.351,1.846c.677,1,1.577,2.351,2.776,3.847a32.663,32.663,0,0,0,4.636,4.585,29.951,29.951,0,0,0,6.566,3.925,32.986,32.986,0,0,0,28.492-1.387,34.178,34.178,0,0,0,7.063-5.193c.552-.492,1.045-1.044,1.547-1.588.248-.275.516-.532.739-.83l1-1.213c.833-1.044,1.605-2.331,2.418-3.552.828-1.245,1.571-2.475,2.372-3.737a3.879,3.879,0,0,1,.559.479l.623.907,1.2,1.785a31.858,31.858,0,0,1,2.3,3.856c.349.726.688,1.47,1.01,2.236l.662,1.55c.177.4.356.782.5,1.04.064.1.145.237.146.214.1-.072-.218.176-.4.337a2.93,2.93,0,0,0-.407.327c-.12.107-.261.3-.336.371a1.078,1.078,0,0,0-.188.232,1.432,1.432,0,0,0-.072.141l-.027.042a.278.278,0,0,0-.035.1.221.221,0,0,0,.008-.082.842.842,0,0,1-.017-.15,4.423,4.423,0,0,0-.757-1.618l-.1-.156,0,0,0-.007.014-.01.109-.113c.069-.055.193-.212.3-.324.223-.264.469-.575.715-.92l.185-.252.351-.512.73-1.07c1.905-2.96,3.794-6.241,5.711-9.435.351.354.68.652,1.052,1.072l1.33,1.884,1.2,1.761c.194.295.4.571.583.882l.5,1.037a8.351,8.351,0,0,1,.483,1.074l.4,1.2a15.511,15.511,0,0,1,.623,2.594,17.944,17.944,0,0,1,.3,2.818,10.277,10.277,0,0,1,.052,1.3l-.033.918a19.73,19.73,0,0,1-1.753,7.292,14.035,14.035,0,0,1-.95,1.742l-.182.307a.636.636,0,0,1-.123.15,1.52,1.52,0,0,0,.215.076l.049.019.012,0,.078.057.156.116.156.114c.09.077.3.288.444.429a7.431,7.431,0,0,1,.916,1.036,7.319,7.319,0,0,1,1.455,5.6,8.264,8.264,0,0,1-.92,2.713,7.875,7.875,0,0,1-.638,1.041,8.125,8.125,0,0,1-.666.874,19.1,19.1,0,0,1-4.65,3.9,31.545,31.545,0,0,1-4.939,2.478c-.845.339-1.7.638-2.577.908-.434.141-.883.251-1.324.375l-.5.127c-.04.016-.011.014-.016.018.012.021-.008-.035.019.041l.059.16.03.081.007.02.031.129.062.274a8.622,8.622,0,0,1,.26,2.274,8.091,8.091,0,0,1-.364,2.323,7.637,7.637,0,0,1-1.117,2.056,8.271,8.271,0,0,1-1.669,1.642,10.076,10.076,0,0,1-1.839,1.041c-.273.116-.559.244-.826.338l-.786.243a14.484,14.484,0,0,1-1.519.36,25.56,25.56,0,0,1-5.524.354,45.226,45.226,0,0,1-9.977-1.531,40.258,40.258,0,0,1-4.745-1.556,23.509,23.509,0,0,1-4.748-2.492l5.554-4.37a19.529,19.529,0,0,1,.651,2.167,7.713,7.713,0,0,1,.23,1.41,7.194,7.194,0,0,1,.067,1.566,6.273,6.273,0,0,1-2.648,5.1,8.725,8.725,0,0,1-5.686,1.2,16.842,16.842,0,0,1-2.066-.349c-.629-.148-1.236-.313-1.816-.5a36.452,36.452,0,0,1-6.384-2.786c-.991-.54-1.95-1.122-2.894-1.756a21.4,21.4,0,0,1-2.837-2.234l5.04-2.475.03.745c.01.245.007.606,0,.9a14.38,14.38,0,0,1-.2,2.13,6.742,6.742,0,0,1-1.719,3.58,4.856,4.856,0,0,1-3.467,1.437,8.24,8.24,0,0,1-3.76-.983,15.62,15.62,0,0,1-2.645-1.686c-.7-.539-1.351-1.1-1.969-1.665a43.284,43.284,0,0,1-3.374-3.5,52.89,52.89,0,0,1-5.321-7.327,33.671,33.671,0,0,1-1.991-3.831,12.819,12.819,0,0,1-1.165-4.242,12.16,12.16,0,0,0,2.093,3.563,42.056,42.056,0,0,0,2.847,3.209,69.632,69.632,0,0,0,6.866,6.159,42.412,42.412,0,0,0,3.788,2.671,21.443,21.443,0,0,0,1.9,1.056,2.767,2.767,0,0,0,.708.285,1.838,1.838,0,0,0,.315.018.56.56,0,0,0,.635-.577.872.872,0,0,0-.1-.356,3.429,3.429,0,0,1-.188-.989l-1.218-8.587,7.465,5.519a21.634,21.634,0,0,0,2.275,1.42c.833.459,1.663.873,2.441,1.248,1.565.744,2.933,1.32,3.979,1.757a17.483,17.483,0,0,0,2.83.952l.322.073a.99.99,0,0,1,.12.039.6.6,0,0,1,.139.059.582.582,0,0,0,.257.056.437.437,0,0,0,.421-.356.759.759,0,0,0,.033-.163.408.408,0,0,0,.006-.1l-.031-.214a10.117,10.117,0,0,0-.3-1.193l-2.249-9,6.866,5.363a16.9,16.9,0,0,0,3.6,2.007,35.948,35.948,0,0,0,4.228,1.488,38.218,38.218,0,0,0,8.746,1.46,17.514,17.514,0,0,0,4.08-.286,7.4,7.4,0,0,0,1.579-.535,1.871,1.871,0,0,0,.847-.755,1.779,1.779,0,0,0,.241-1.113l-.053-.319-.026-.16a2.683,2.683,0,0,0-.13-.315l-.306-.7a3.314,3.314,0,0,0-.381-.725c-1.194-2.022-2.932-4.1-3.91-5.673,1.1.1,2.349.175,3.556.213.611.024,1.208.041,1.776.044l.862.011c.273-.01.517-.045.776-.066l.765-.073c.254-.025.445-.082.67-.121.424-.085.914-.175,1.17-.251.622-.148,1.236-.332,1.846-.523a24.861,24.861,0,0,0,6.734-3.319,10.386,10.386,0,0,0,2.44-2.367,3.368,3.368,0,0,0,.566-1.176,2.251,2.251,0,0,0-.043-1.18,2.811,2.811,0,0,0-.671-1.016l-.24-.243-.472-.332-.479-.334c-.162-.111-.411-.212-.612-.318-.833-.433-1.724-.81-2.609-1.189-.442-.192-.865-.347-1.3-.522l-.646-.255-.322-.127-.058-.152c.674-.48,1.319-.864,2.013-1.42a16.866,16.866,0,0,0,1.946-1.618l.837-.835.209-.208.07-.082,0-.005,0-.009.011-.019.021-.037.044-.075.175-.3a7.287,7.287,0,0,0,.643-1.222,14.84,14.84,0,0,0,1.212-5.465l.026-.667-.021-.458a6.887,6.887,0,0,0-.08-.9,8.767,8.767,0,0,0-.378-1.719,7.048,7.048,0,0,0-.689-1.55,6.021,6.021,0,0,0-.479-.663l-.444.762c-.592,1.01-1.166,1.974-1.761,2.869l-.231.336-.057.084-.116.154-.235.314a15.119,15.119,0,0,1-1.04,1.258,6.532,6.532,0,0,1-1.546,1.292,3.2,3.2,0,0,1-1.6.44,2.915,2.915,0,0,1-1.842-.677,5.354,5.354,0,0,1-1.314-1.775c-.265-.515-.456-.974-.652-1.431l-.453-1.082-.289-.648a13.228,13.228,0,0,0-.633-1.215c-.111-.193-.234-.377-.355-.559l-.187-.266c-.062.027-.124.179-.185.261a15.552,15.552,0,0,1-1.534,2.154l-.415.484a6.944,6.944,0,0,1-.477.522l-.989,1c-.64.688-1.38,1.26-2.064,1.887a36.1,36.1,0,0,1-9.263,5.663,36.842,36.842,0,0,1-20.047,2.558,29.942,29.942,0,0,1-8.815-2.746,29.234,29.234,0,0,1-13.042-12.653c-.491-1.073-.977-1.979-1.254-2.782S231.576,467.328,231.426,466.917Z" transform="matrix(-1, 0, 0, 1, 380, 0)" /><g data-name="default" id="default-2" transform="matrix(-1, 0, 0, 1, 380, 0)"><path class="cls-1" d="M125.09,465.674c5.8,23.743,18.27,52.938,19.509,54.494-3.335,2.573-6.523,8.2-8.277,11.353-2.445,4.392-3.01,9.99-.8,14.507,3.815,7.814,14.166,9.864,22.608,8.131,9.719-2,16.627-7.8,22.451-15.923,4.489-6.264,4.1-13.863,4.542-21.582.415-2.34.386-19.372.381-22.154" /><path d="M185.561,494.5c.386.46.657,3.337.839,7.408.091,2.035.159,4.37.2,6.853.011,1.244.022,2.524.032,3.821-.014,1.314.006,2.6-.12,4.032l-.012.154c-.1,3.19-.061,6.448-.27,9.448a37.1,37.1,0,0,1-1.272,7.843,21.224,21.224,0,0,1-1.4,3.6c-.271.6-.629,1.155-.963,1.732-.339.556-.675,1.04-1.017,1.566a49.128,49.128,0,0,1-4.715,5.977,35.163,35.163,0,0,1-13.226,9.085,31.677,31.677,0,0,1-16.47,1.866,23.979,23.979,0,0,1-8.214-2.871,17.772,17.772,0,0,1-6.436-6.437,17.343,17.343,0,0,1-2.33-8.782,20.948,20.948,0,0,1,1.812-8.54c.276-.645.657-1.357.953-1.9l.892-1.579c.608-1.056,1.241-2.111,1.914-3.155s1.384-2.078,2.162-3.1c.387-.509.8-1.015,1.227-1.517l.58-.646.016,0a.222.222,0,0,0,.044-.014l.008-.038v-.014l0,0c0-.009.02.037-.032-.08l-.426-.965-.8-1.9q-.759-1.894-1.508-3.763-1.452-3.741-2.75-7.4c-1.731-4.875-3.28-9.625-4.622-14.212a181.747,181.747,0,0,1-5.679-25.02c2.771,4.383,6.071,10.809,9.048,16.9,2.958,6.094,5.551,11.869,6.454,15.082.95,3.429,1.978,6.777,3.045,10.047q.805,2.451,1.652,4.83.435,1.182.864,2.353l.443,1.151.31.757c.127.315.3.617.39.932,0,.853-.018,1.774.039,2.336a3.848,3.848,0,0,1-.357.968l-.427,1.167c-.383.357-.805.71-1.146,1.062-.205.217-.419.418-.619.649q-.611.668-1.187,1.394c-.77.963-1.5,1.98-2.192,3.019s-1.358,2.1-2,3.181c-.338.562-.619,1.041-.875,1.542a15.855,15.855,0,0,0-.684,1.552c-1.609,4.224-1.24,9.115,1.388,12.434A12.872,12.872,0,0,0,143,551.2a19.845,19.845,0,0,0,6.082,1.717,26.9,26.9,0,0,0,12.184-1.419,30.356,30.356,0,0,0,10.006-5.917,47.144,47.144,0,0,0,7.375-8.4,20.869,20.869,0,0,0,3.478-9.274c.51-3.332.617-6.766.9-10.168.024-.333.049-.676.086-1.186.01-.081.033-.3.048-.351.12-.774.213-1.793.314-2.82s.207-2.124.314-3.223c.231-2.209.468-4.48.688-6.6C184.942,499.331,185.385,495.726,185.561,494.5Z" /></g><g data-name="default" id="default-3" transform="matrix(-1, 0, 0, 1, 380, 0)"><path class="cls-1" d="M125.09,463.871c9.04,37.246,43.743,55.977,63.789,54.5,18.518-1.37,41.244-8.937,48.759-28.749,2.676-7.054,3.186-15.453,2-25.746" /><path d="M239.67,463.867a23.523,23.523,0,0,1,.808,4.951,59.335,59.335,0,0,1,.111,10.411,38.47,38.47,0,0,1-2.714,11.776l-1.122,2.624-1.289,2.324c-.208.369-.4.736-.6,1.08l-.662.957-1.18,1.722a41.708,41.708,0,0,1-10.035,9.529,57.756,57.756,0,0,1-12.839,6.488,78.24,78.24,0,0,1-14,3.625l-3.549.513-3.541.364a37.861,37.861,0,0,1-7.229-.169,51.959,51.959,0,0,1-11.9-2.883,67.683,67.683,0,0,1-10.842-5.082,73.85,73.85,0,0,1-24.222-22.792,76.981,76.981,0,0,1-4.917-8.7,70.281,70.281,0,0,1-5.405-16.6,122.873,122.873,0,0,0,8.063,15.834c1.644,2.69,3.425,5.162,4.976,7.3l2.209,2.876c.684.842,1.251,1.6,1.719,2.219a68.1,68.1,0,0,0,27.676,21.573,48.544,48.544,0,0,0,15.644,3.82c.649.033,1.295.032,1.938.049.643,0,1.28-.047,1.917-.068,1.284-.11,2.567-.232,3.832-.367,1.261-.183,2.516-.332,3.751-.54,1.23-.235,2.459-.429,3.661-.7,9.624-2.051,18.282-5.769,24.919-11.1a40.059,40.059,0,0,0,8.31-8.952,39.093,39.093,0,0,0,2.748-5.1,30.2,30.2,0,0,0,1.942-5.26,58.2,58.2,0,0,0,1.858-12.467C239.9,468.831,239.707,465.092,239.67,463.867Z" /></g><g data-name="default" id="default-4" transform="matrix(-1, 0, 0, 1, 380, 0)"><path class="cls-1" d="M235.5,492.148a63.409,63.409,0,0,0-26.927,5.575A62.2,62.2,0,0,0,187.5,513.5c4.568,5.6,4.084,11.914,5.006,18.762C189.5,537.5,186.5,544.5,187.1,551.7c.9,10.771,7.485,16.831,17.718,17.24,7.847.315,16.58-3.8,21.823-9.859,6.039-6.977,8.861-14.58,9.651-24.01C236.5,520.5,237.239,508.263,235.5,492.148Z" /><path class="cls-1" d="M187.5,513.5c4.568,5.6,4.084,11.914,5.006,18.762C189.5,537.5,186.5,544.5,187.1,551.7c.9,10.771,7.485,16.831,17.718,17.24,7.847.315,16.58-3.8,21.823-9.859,6.039-6.977,8.861-14.58,9.651-24.01.21-14.57.949-26.807-.788-42.922" /><path d="M235.563,492.141c.678.579,1.691,6.775,2.154,14.017.5,7.239.47,15.461.734,20.014q.15,3.015.305,6.127c.035,1.068.118,2.12.1,3.241l-.087,1.725-.134,1.665a41.554,41.554,0,0,1-3.526,13.37,39.729,39.729,0,0,1-3.538,6.155c-.683.962-1.393,1.9-2.135,2.807-.381.46-.809.926-1.214,1.386l-1.295,1.3a34.127,34.127,0,0,1-12.184,7.349,29.073,29.073,0,0,1-6.067,1.417,27.478,27.478,0,0,1-6.318.023,25.166,25.166,0,0,1-6.22-1.542,19.548,19.548,0,0,1-5.639-3.433,18.689,18.689,0,0,1-4.131-5.074,22.277,22.277,0,0,1-2.245-5.788,29.2,29.2,0,0,1-.534-2.912c-.086-.966-.214-1.9-.216-2.891a27.451,27.451,0,0,1,.475-5.677,36.32,36.32,0,0,1,3.48-9.875c.378-.738.769-1.459,1.176-2.157.2-.352.406-.7.615-1.037l.155-.255.078-.127a.153.153,0,0,0,.021-.022l.11-.127.112-.135.014-.168a3.119,3.119,0,0,0,0-.637l-.076-2.238a57.616,57.616,0,0,0-.5-7.966,17.531,17.531,0,0,0-2.414-6.461,13.522,13.522,0,0,1,5.347,5.691,40.084,40.084,0,0,1,3,8.721q.136.531.273,1.058l.134.517.066.257c.022.089.04.145.077.335q.192.969.382,1.924c.007.08.051.166.027.24l-.1.216-.205.434-.415.873a10.986,10.986,0,0,0-.5,1.174l-.34.885q-.322.87-.626,1.683c-.776,2.161-1.355,3.953-1.838,5.156a22.185,22.185,0,0,0-1.713,7.369,19.536,19.536,0,0,0,1.026,7.289,13.235,13.235,0,0,0,3.947,5.7,15.437,15.437,0,0,0,6.314,3.017,22.489,22.489,0,0,0,13.836-1.435,26.649,26.649,0,0,0,10.651-7.948,35.228,35.228,0,0,0,6.1-11.033,39.61,39.61,0,0,0,1.462-5.834,49.93,49.93,0,0,0,.655-5.757q.012-2.975.025-5.847.047-2.9.093-5.7.15-5.571.289-10.764c.046-3.284.364-7.768.566-11.74S235.508,493.276,235.563,492.141Z" /></g></svg>