<svg xmlns="http://www.w3.org/2000/svg" id="animals_1" viewBox="0 0 380 600"><defs transform="matrix(-1, 0, 0, 1, 380, 0)"><style>.cls-1{fill:#353535;}.cls-2{fill:#ffd635;}.cls-3{fill:#feb331;}</style></defs><path class="cls-1" d="M231.867,459.688a39.039,39.039,0,0,0,31.117,18.493,3.96,3.96,0,0,1,2.388.6,3.138,3.138,0,0,1,.933,1.785c1.4,6.093-3.4,11.82-8.383,15.6-6.118,4.645-13.234,8.206-20.856,9.168s-15.775-.894-21.564-5.944" transform="matrix(-1, 0, 0, 1, 380, 0)" /><path d="M215.522,499.368a18.828,18.828,0,0,1,2.615,1.527,27.828,27.828,0,0,0,12.555,3.794,25.445,25.445,0,0,0,5.752-.289,42.647,42.647,0,0,0,15.008-5.88c4.689-2.952,9.338-6.465,11.693-10.8a9.928,9.928,0,0,0,1.369-5.729,9.8,9.8,0,0,0-.251-1.319,1.393,1.393,0,0,0-.14-.319l-.018-.024a2.106,2.106,0,0,0-.765-.135c-.5-.02-1.194-.087-1.783-.134-1.232-.07-2.435-.3-3.633-.479-1.182-.266-2.365-.488-3.5-.85a37.018,37.018,0,0,1-6.489-2.529,40.128,40.128,0,0,1-5.648-3.426,38.819,38.819,0,0,1-4.655-4.061,34.151,34.151,0,0,1-6.254-8.735,76.294,76.294,0,0,0,8.324,6.966c3.075,2.211,6.15,3.854,7.709,4.829a33.268,33.268,0,0,0,9.906,4.394l1.284.325,1.292.242c.857.185,1.721.253,2.578.357a8.512,8.512,0,0,1,2.961.59,3.047,3.047,0,0,1,1.289,1.323,5.171,5.171,0,0,1,.473,1.473,11.321,11.321,0,0,1-.318,5.434,16.3,16.3,0,0,1-2.306,4.609,30.733,30.733,0,0,1-6.8,6.761A48.462,48.462,0,0,1,242.5,505.3a30.235,30.235,0,0,1-15.158.744,23.132,23.132,0,0,1-7.423-3.024A22.43,22.43,0,0,1,215.522,499.368Z" transform="matrix(-1, 0, 0, 1, 380, 0)" /><g id="default" transform="matrix(-1, 0, 0, 1, 380, 0)"><path class="cls-2" d="M125.09,465.674c5.8,23.743,18.27,52.938,19.509,54.494-3.335,2.573-6.523,8.2-8.277,11.353-2.445,4.392-3.01,9.99-.8,14.507,3.815,7.814,14.166,9.864,22.608,8.131,9.719-2,16.627-7.8,22.451-15.923,4.489-6.264,4.1-13.863,4.542-21.582.415-2.34.386-19.372.381-22.154" /><path d="M185.561,494.5c.386.46.657,3.337.839,7.408.091,2.035.159,4.37.2,6.853.011,1.244.022,2.524.032,3.821-.014,1.314.006,2.6-.12,4.032l-.012.154c-.1,3.19-.061,6.448-.27,9.448a37.1,37.1,0,0,1-1.272,7.843,21.224,21.224,0,0,1-1.4,3.6c-.271.6-.629,1.155-.963,1.732-.339.556-.675,1.04-1.017,1.566a49.128,49.128,0,0,1-4.715,5.977,35.163,35.163,0,0,1-13.226,9.085,31.677,31.677,0,0,1-16.47,1.866,23.979,23.979,0,0,1-8.214-2.871,17.772,17.772,0,0,1-6.436-6.437,17.343,17.343,0,0,1-2.33-8.782,20.948,20.948,0,0,1,1.812-8.54c.276-.645.657-1.357.953-1.9l.892-1.579c.608-1.056,1.241-2.111,1.914-3.155s1.384-2.078,2.162-3.1c.387-.509.8-1.015,1.227-1.517l.58-.646.016,0a.222.222,0,0,0,.044-.014l.008-.038v-.014l0,0c0-.009.02.037-.032-.08l-.426-.965-.8-1.9q-.759-1.894-1.508-3.763-1.452-3.741-2.75-7.4c-1.731-4.875-3.28-9.625-4.622-14.212a181.747,181.747,0,0,1-5.679-25.02c2.771,4.383,6.071,10.809,9.048,16.9,2.958,6.094,5.551,11.869,6.454,15.082.95,3.429,1.978,6.777,3.045,10.047q.805,2.451,1.652,4.83.435,1.182.864,2.353l.443,1.151.31.757c.127.315.3.617.39.932,0,.853-.018,1.774.039,2.336a3.848,3.848,0,0,1-.357.968l-.427,1.167c-.383.357-.805.71-1.146,1.062-.205.217-.419.418-.619.649q-.611.668-1.187,1.394c-.77.963-1.5,1.98-2.192,3.019s-1.358,2.1-2,3.181c-.338.562-.619,1.041-.875,1.542a15.855,15.855,0,0,0-.684,1.552c-1.609,4.224-1.24,9.115,1.388,12.434A12.872,12.872,0,0,0,143,551.2a19.845,19.845,0,0,0,6.082,1.717,26.9,26.9,0,0,0,12.184-1.419,30.356,30.356,0,0,0,10.006-5.917,47.144,47.144,0,0,0,7.375-8.4,20.869,20.869,0,0,0,3.478-9.274c.51-3.332.617-6.766.9-10.168.024-.333.049-.676.086-1.186.01-.081.033-.3.048-.351.12-.774.213-1.793.314-2.82s.207-2.124.314-3.223c.231-2.209.468-4.48.688-6.6C184.942,499.331,185.385,495.726,185.561,494.5Z" /></g><path class="cls-3" d="M179.523,510.52c.109.315-.905,1.769-2.484,3.072-.4.308-.8.662-1.241.947l-1.3.839c-.874.477-1.667.928-2.253,1.214a20.454,20.454,0,0,1-6.95,2.18,28.567,28.567,0,0,1-7.454,0,22.3,22.3,0,0,1-6.148-1.652,18.258,18.258,0,0,1-5.076-3.441,15.794,15.794,0,0,1-4.77-8.745c1.192.847,2.535,2,3.772,2.941a16.627,16.627,0,0,1,2.727,2.364,13.63,13.63,0,0,0,6.7,5.02,21.852,21.852,0,0,0,7.646,1.178,27.506,27.506,0,0,0,12.048-3.258c.748-.408,1.831-.9,2.762-1.436a12.527,12.527,0,0,0,1.254-.746Z" transform="matrix(-1, 0, 0, 1, 380, 0)" /><path class="cls-3" d="M180.984,519.98c.143.293-.634,1.749-1.874,3.2a34.041,34.041,0,0,1-3.832,3.652,19.643,19.643,0,0,1-5.861,3.564,25.036,25.036,0,0,1-6.893,1.591,20.312,20.312,0,0,1-11.364-2.264,14.577,14.577,0,0,1-4.1-3.264,9.831,9.831,0,0,1-2.085-3.924,39.305,39.305,0,0,0,4,2.012,15.545,15.545,0,0,1,2.99,1.428,14.745,14.745,0,0,0,7.294,3.16,18.011,18.011,0,0,0,7.209-.458,29.1,29.1,0,0,0,10.359-5.573,13.59,13.59,0,0,1,1.127-.833c.4-.314.834-.63,1.255-.925C180.022,520.733,180.724,520.153,180.984,519.98Z" transform="matrix(-1, 0, 0, 1, 380, 0)" /><g data-name="default" id="default-2" transform="matrix(-1, 0, 0, 1, 380, 0)"><ellipse class="cls-1" cx="182.666" cy="463" rx="57.576" ry="25.423" /><path d="M240.211,463c-.114-.271-.144-1.126-.47-2.383a14.723,14.723,0,0,0-2.181-4.591c-2.335-3.468-6.908-6.866-12.274-9.432a75.9,75.9,0,0,0-17.249-5.618,102.7,102.7,0,0,0-14.759-1.964,135.987,135.987,0,0,0-20.584.343,109.734,109.734,0,0,0-20.919,3.9,69.213,69.213,0,0,0-9.97,3.745,40.718,40.718,0,0,0-8.837,5.466,16.685,16.685,0,0,0-5.575,7.735,10.262,10.262,0,0,0,1.424,8.555,22.216,22.216,0,0,0,5.861,5.89,45.647,45.647,0,0,0,7.546,4.254,80.68,80.68,0,0,0,16.634,5.217,127.607,127.607,0,0,0,33.621,2.16c10.8-.726,21.043-2.714,29.867-6.26a41.746,41.746,0,0,0,11.673-6.8,18.979,18.979,0,0,0,3.987-4.717A12.042,12.042,0,0,0,239.673,463a11.351,11.351,0,0,1-.855,5.665,18.9,18.9,0,0,1-3.8,5.7,40.971,40.971,0,0,1-12.386,8.469,77.106,77.106,0,0,1-23.558,6.506,131.781,131.781,0,0,1-14.729.629,134.891,134.891,0,0,1-14.228-.889,101.833,101.833,0,0,1-26.391-6.39,49.651,49.651,0,0,1-11.4-6.334,26.141,26.141,0,0,1-4.635-4.491,15.9,15.9,0,0,1-2.952-5.73,12.105,12.105,0,0,1,.04-6.4,15.806,15.806,0,0,1,2.875-5.539,31.321,31.321,0,0,1,9.217-7.53,61.831,61.831,0,0,1,10.449-4.645,89.063,89.063,0,0,1,10.632-2.939,118.5,118.5,0,0,1,20.785-2.5,123.865,123.865,0,0,1,19.548.826,95.8,95.8,0,0,1,17.875,3.854c5.324,1.679,12.5,4.809,17.609,9.321a26.265,26.265,0,0,1,3.327,3.531,18.324,18.324,0,0,1,2.135,3.632A12.689,12.689,0,0,1,240.211,463Z" /></g><g data-name="default" id="default-3" transform="matrix(-1, 0, 0, 1, 380, 0)"><path class="cls-1" d="M125.09,463.871c9.04,37.246,43.743,55.977,63.789,54.5,18.518-1.37,41.244-8.937,48.759-28.749,2.676-7.054,3.186-15.453,2-25.746" /><path d="M239.67,463.867a23.523,23.523,0,0,1,.808,4.951,59.335,59.335,0,0,1,.111,10.411,38.47,38.47,0,0,1-2.714,11.776l-1.122,2.624-1.289,2.324c-.208.369-.4.736-.6,1.08l-.662.957-1.18,1.722a41.708,41.708,0,0,1-10.035,9.529,57.756,57.756,0,0,1-12.839,6.488,78.24,78.24,0,0,1-14,3.625l-3.549.513-3.541.364a37.861,37.861,0,0,1-7.229-.169,51.959,51.959,0,0,1-11.9-2.883,67.683,67.683,0,0,1-10.842-5.082,73.85,73.85,0,0,1-24.222-22.792,76.981,76.981,0,0,1-4.917-8.7,70.281,70.281,0,0,1-5.405-16.6,122.873,122.873,0,0,0,8.063,15.834c1.644,2.69,3.425,5.162,4.976,7.3l2.209,2.876c.684.842,1.251,1.6,1.719,2.219a68.1,68.1,0,0,0,27.676,21.573,48.544,48.544,0,0,0,15.644,3.82c.649.033,1.295.032,1.938.049.643,0,1.28-.047,1.917-.068,1.284-.11,2.567-.232,3.832-.367,1.261-.183,2.516-.332,3.751-.54,1.23-.235,2.459-.429,3.661-.7,9.624-2.051,18.282-5.769,24.919-11.1a40.059,40.059,0,0,0,8.31-8.952,39.093,39.093,0,0,0,2.748-5.1,30.2,30.2,0,0,0,1.942-5.26,58.2,58.2,0,0,0,1.858-12.467C239.9,468.831,239.707,465.092,239.67,463.867Z" /></g><path class="cls-2" d="M190.237,518.251c1.662,4.343,1.6,9.036,2.269,14.011C189.5,537.5,186.5,544.5,187.1,551.7c.9,10.771,7.485,16.831,17.718,17.24,7.847.315,16.58-3.8,21.823-9.859,6.039-6.977,8.861-14.58,9.651-24.01.2-14.038.889-25.921-.614-41.183C226.943,510.09,207.082,516.744,190.237,518.251Z" transform="matrix(-1, 0, 0, 1, 380, 0)" /><path d="M235.563,492.141c.678.579,1.691,6.775,2.154,14.017.5,7.239.47,15.461.734,20.014q.15,3.015.305,6.127c.035,1.068.118,2.12.1,3.241l-.087,1.725-.134,1.665a41.554,41.554,0,0,1-3.526,13.37,39.729,39.729,0,0,1-3.538,6.155c-.683.962-1.393,1.9-2.135,2.807-.381.46-.809.926-1.214,1.386l-1.295,1.3a34.127,34.127,0,0,1-12.184,7.349,29.073,29.073,0,0,1-6.067,1.417,27.478,27.478,0,0,1-6.318.023,25.166,25.166,0,0,1-6.22-1.542,19.548,19.548,0,0,1-5.639-3.433,18.689,18.689,0,0,1-4.131-5.074,22.277,22.277,0,0,1-2.245-5.788,29.2,29.2,0,0,1-.534-2.912c-.086-.966-.214-1.9-.216-2.891a27.451,27.451,0,0,1,.475-5.677,36.32,36.32,0,0,1,3.48-9.875c.378-.738.769-1.459,1.176-2.157.2-.352.406-.7.615-1.037l.155-.255.078-.127a.153.153,0,0,0,.021-.022l.11-.127.112-.135.014-.168a3.119,3.119,0,0,0,0-.637l-.076-2.238a57.616,57.616,0,0,0-.5-7.966,17.531,17.531,0,0,0-2.414-6.461,13.522,13.522,0,0,1,5.347,5.691,40.084,40.084,0,0,1,3,8.721q.136.531.273,1.058l.134.517.066.257c.022.089.04.145.077.335q.192.969.382,1.924c.007.08.051.166.027.24l-.1.216-.205.434-.415.873a10.986,10.986,0,0,0-.5,1.174l-.34.885q-.322.87-.626,1.683c-.776,2.161-1.355,3.953-1.838,5.156a22.185,22.185,0,0,0-1.713,7.369,19.536,19.536,0,0,0,1.026,7.289,13.235,13.235,0,0,0,3.947,5.7,15.437,15.437,0,0,0,6.314,3.017,22.489,22.489,0,0,0,13.836-1.435,26.649,26.649,0,0,0,10.651-7.948,35.228,35.228,0,0,0,6.1-11.033,39.61,39.61,0,0,0,1.462-5.834,49.93,49.93,0,0,0,.655-5.757q.012-2.975.025-5.847.047-2.9.093-5.7.15-5.571.289-10.764c.046-3.284.364-7.768.566-11.74S235.508,493.276,235.563,492.141Z" transform="matrix(-1, 0, 0, 1, 380, 0)" /><path class="cls-3" d="M234.531,506.5a2.712,2.712,0,0,1,.18,1.622,11.7,11.7,0,0,1-.819,3.248,32.676,32.676,0,0,1-3.465,6.07,23.948,23.948,0,0,1-2.748,3.439,22.453,22.453,0,0,1-3.519,3.057,23.881,23.881,0,0,1-8.7,3.573,30.486,30.486,0,0,1-7.731.571,31.025,31.025,0,0,1-7.288-1.155,12.8,12.8,0,0,1-3.357-1.575,9.76,9.76,0,0,1-2.522-2.468,18.364,18.364,0,0,1-2.371-5.159c1.4.906,3,2.519,4.516,3.5a27.094,27.094,0,0,0,3.631,1.779,17.2,17.2,0,0,0,5.162,1.675,29.2,29.2,0,0,0,5.314.509,22.569,22.569,0,0,0,9.409-1.946,21.678,21.678,0,0,0,6.685-5.011,41.1,41.1,0,0,0,4.566-5.743,35.458,35.458,0,0,0,2.007-3.3,14.359,14.359,0,0,0,.725-1.635Z" transform="matrix(-1, 0, 0, 1, 380, 0)" /><path class="cls-3" d="M233.528,526.488c.158.007.529.516.5,1.319a6.788,6.788,0,0,1-.747,2.724,13.378,13.378,0,0,1-1.736,2.725c-.173.2-.349.4-.54.59-.177.164-.347.323-.509.475-.321.3-.606.573-.837.813a22.937,22.937,0,0,1-6.1,4.2,29.44,29.44,0,0,1-7.23,2.342,25.555,25.555,0,0,1-12.376-.644,16.113,16.113,0,0,1-5.077-2.485,6.3,6.3,0,0,1-2.612-4.279c2.3,2.34,6.205,2.168,7.652,2.893a19.22,19.22,0,0,0,8.58,2.061,22.823,22.823,0,0,0,7.811-1.294,27.309,27.309,0,0,0,6.182-3.126c.888-.6,1.737-1.2,2.51-1.833l.587-.456a5.283,5.283,0,0,0,.489-.427,13.122,13.122,0,0,0,.912-.98,24.139,24.139,0,0,0,1.877-2.454A3.414,3.414,0,0,0,233.528,526.488Z" transform="matrix(-1, 0, 0, 1, 380, 0)" /></svg>