<svg xmlns="http://www.w3.org/2000/svg" viewBox="0 0 380 600"><defs transform="matrix(-1, 0, 0, 1, 380, 0)"><style>.cls-1{isolation:isolate;}.cls-2{fill:#94e044;}.cls-3{mix-blend-mode:multiply;}.cls-4{opacity:0.3;}.cls-5{fill:#ffd635;}.cls-6{fill:#feb331;}</style></defs><g class="cls-1" transform="matrix(-1, 0, 0, 1, 380, 0)"><g id="animals_1"><path class="cls-2" d="M221.625,498.882c27.2-2.753,48.687,6.379,74.875,1.618,11-2,10-17-3.342-17.96,9.342-5.04,2.342-19.04-10.264-17.478,4.606-6.562-4.394-14.562-14.531-12.805,7.866-1.363-5.419-13.726-12.305-8.113.119-4.781-4.3-6.118-9.07-5.81-20.1,3.158-23.785,22.115-43.205,31.64" /><path d="M203.769,469.947a14.25,14.25,0,0,1,1.848-1.244c.5-.323,1.123-.644,1.77-1.1l2.149-1.506a71.534,71.534,0,0,0,10.49-9.684c3.673-4.006,7.433-8.535,11.633-12l1.6-1.225.785-.6.824-.519,1.606-1.011a18.13,18.13,0,0,1,1.614-.839l1.556-.766c.511-.23,1.035-.386,1.526-.574a21.538,21.538,0,0,1,2.774-.909l1.807-.437.916-.218a7.684,7.684,0,0,1,1.046-.1,15,15,0,0,1,3.99.28,7.641,7.641,0,0,1,3.991,2.074,6.1,6.1,0,0,1,.773.994,8.805,8.805,0,0,1,.436.887,2.028,2.028,0,0,1,.133.689,2.6,2.6,0,0,1,.626-.392.774.774,0,0,1,.1-.04l.314-.087c.21-.054.42-.122.634-.161a9.1,9.1,0,0,1,1.3-.151,11.745,11.745,0,0,1,5.032.963,15.685,15.685,0,0,1,4.387,2.744,11.342,11.342,0,0,1,1.838,2.061,6.9,6.9,0,0,1,.733,1.351,5.387,5.387,0,0,1,.26.822,3.976,3.976,0,0,1,.071.473,2.725,2.725,0,0,1,.028.389.356.356,0,0,1-.062.217.519.519,0,0,1-.349.171,4.467,4.467,0,0,1,.494-.067,4.774,4.774,0,0,1,1.3.087,11.709,11.709,0,0,1,1.453.26,9.282,9.282,0,0,1,1.439.374A15.082,15.082,0,0,1,282,453.975a10.7,10.7,0,0,1,3.642,5.339,8.761,8.761,0,0,1,.275,1.734,11.64,11.64,0,0,1-.119,1.774l-.012.1,0,.009,0,.019-.009.037-.018.07-.046.1c.039.006.118-.016.168-.015a.7.7,0,0,1,.146,0,10.932,10.932,0,0,1,1.153.118,15.342,15.342,0,0,1,4.431,1.307,13.957,13.957,0,0,1,6.58,6.288,10.443,10.443,0,0,1,.86,7.555,6.175,6.175,0,0,1-.326.933,6.046,6.046,0,0,1-.422.886,5.763,5.763,0,0,1-.509.825l-.277.393.05-.071v0l0,.016.024,0c.02.009-.035-.017.017,0l.508.177c.34.112.665.28,1,.42a12.788,12.788,0,0,1,1.9,1.078,11.268,11.268,0,0,1,4.846,7.28,10.081,10.081,0,0,1-2.315,8.5,10.543,10.543,0,0,1-3.563,2.611,13.88,13.88,0,0,1-2.014.719l-1.023.227-.918.14a92.367,92.367,0,0,1-14.355,1.182c-4.707.019-9.288-.31-13.727-.727-8.867-.913-17.149-2.244-24.882-2.983a130.257,130.257,0,0,0-21.367-.568c1.576-.32,3.347-.674,5.265-.983l2.981-.363c1.025-.131,2.079-.235,3.155-.29a119.807,119.807,0,0,1,13.446-.171c9,.392,17.368,1.26,21.721,1.729a126.7,126.7,0,0,0,14.91.958l3.644-.063,3.6-.254c1.2-.054,2.373-.258,3.55-.4a30.728,30.728,0,0,0,3.39-.535,7.506,7.506,0,0,0,4.817-3.579,7.188,7.188,0,0,0,.428-5.882,8.731,8.731,0,0,0-3.878-4.578,11.941,11.941,0,0,0-1.381-.691c-.252-.1-.457-.167-.758-.277a8.617,8.617,0,0,0-1.2-.3c-.783-.192-1.679-.29-2.534-.413l-1.236-.143-.611-.069c-.134,0-.138-.035-.158-.063l-.066-.081c1.708-1.015,4.11-2.5,4.745-3.562a6.167,6.167,0,0,0,1.116-3.03,8.773,8.773,0,0,0-2.007-6.156,11.736,11.736,0,0,0-5.324-3.784,13.527,13.527,0,0,0-3.178-.7l-.435-.026c-.193-.015-.39-.023-.593-.023-.4-.008-.822.035-1.232.05s-.823.047-1.225.087l-.606.054-.3.027-.152.013c-.02-.014-.035-.032-.053-.047.335-.6.693-1.194,1.008-1.806l.4-.957.2-.479.1-.239a.629.629,0,0,0,.024-.163,5.494,5.494,0,0,0-.147-2.395,8.261,8.261,0,0,0-2.844-3.993,12.693,12.693,0,0,0-4.46-2.309,7.734,7.734,0,0,0-1.215-.311,8.947,8.947,0,0,0-1.229-.22l-.62-.062-.349-.035a4.661,4.661,0,0,0-.489-.03c-.654.014-1.323.062-1.985.091-.145-.128-.293-.283-.433-.391l-.384-.119-.733-.234c.437,0,.895.015,1.1-.538a4.064,4.064,0,0,0,.039-1.491l.288-.1c.065-.021.074-.031.062-.037l0-.024-.014-.095c-.012-.065-.007-.125-.026-.194a3.433,3.433,0,0,0-.136-.422,4.629,4.629,0,0,0-.47-.866A8.684,8.684,0,0,0,267.8,446.9a13.236,13.236,0,0,0-3.624-2.321,9.5,9.5,0,0,0-3.99-.853,5.884,5.884,0,0,0-.962.095,3.048,3.048,0,0,0-.463.107,1.847,1.847,0,0,0-.569.21l-.791.4c-.267.161-.539.356-.808.532-.56.36-1.012.723-1.513,1.064-.03-.677-.036-1.315-.1-2.047a9,9,0,0,0-.307-1.911,3.55,3.55,0,0,0-1.134-1.436,7.464,7.464,0,0,0-3.848-1.274,15.731,15.731,0,0,0-2.173-.042,3.541,3.541,0,0,0-.458.032l-.531.117-1.083.236a21.524,21.524,0,0,0-2.137.512l-2.056.7a13.993,13.993,0,0,0-1.973.845,21.261,21.261,0,0,0-1.906.948,32.742,32.742,0,0,0-3.525,2.309,52.67,52.67,0,0,0-6.217,5.5c-3.479,3.526-8.068,8.72-12.83,12.534a48.365,48.365,0,0,1-6.7,4.616,27.218,27.218,0,0,1-2.629,1.363Z" /><g class="cls-3"><g class="cls-4"><path d="M231.9,452.907a6.234,6.234,0,0,1,2.306-1.779,15.3,15.3,0,0,1,5.823-1.707,14.393,14.393,0,0,1,3.594.158,11.051,11.051,0,0,1,3.405,1.283c.259.15.488.342.728.51a4.018,4.018,0,0,1,.666.553l.6.589c.153.161.191.231.287.344l.12.147c.038.048.07.111.142.063l.346-.118.331-.11.548-.158a27.292,27.292,0,0,1,4.975-.953,12.341,12.341,0,0,1,5.575.665,6.848,6.848,0,0,1,2.637,1.906c.174.235.314.429.533.753a1.211,1.211,0,0,1,.23.513,4.519,4.519,0,0,1,.146.545,5.491,5.491,0,0,1,.032,1.81,12.293,12.293,0,0,1-.3,1.456l-.156.622-.013.113c0,.108-.019.3.1.275a1.835,1.835,0,0,1,.191-.056l.071-.014.338-.034c.273-.017.547-.008.82-.013a11.917,11.917,0,0,1,1.637.073,13.265,13.265,0,0,1,1.621.233,13.026,13.026,0,0,1,6.035,2.76,8.288,8.288,0,0,1,2.46,3.364c.119.345.25.69.341,1.041l.154,1.081a4.722,4.722,0,0,1,.008,1.069l-.035.53c0-.108,0-.029,0-.053h.006c.013,0-.065,0,.064-.007a7.319,7.319,0,0,1,.991-.05,8.267,8.267,0,0,1,2.032.266,9.493,9.493,0,0,1,5.855,4.682,7.9,7.9,0,0,1,.976,3.691,6.04,6.04,0,0,1-.364,2.039,5.231,5.231,0,0,1-.465.923.568.568,0,0,1-.069.057,1.266,1.266,0,0,1-.452.177.373.373,0,0,1,.324.115l.045.041.023.022.012.011.006,0c.017.014-.041-.036-.064-.052l.02.017c.206.179.422.352.608.539a8.455,8.455,0,0,1,.968,1.178,9.941,9.941,0,0,1,1.208,2.5,11.644,11.644,0,0,1,.526,4.976,7.029,7.029,0,0,1-1.929,4.294,5.043,5.043,0,0,1-4.034,1.276,6.345,6.345,0,0,0,1.886-.824,4.055,4.055,0,0,0,1.362-1.566,6.723,6.723,0,0,0,.342-4.137,10.751,10.751,0,0,0-1.477-3.7,7.318,7.318,0,0,0-1-1.214,5.014,5.014,0,0,0-.473-.38l-.108-.081c.05.032-.162-.106-.136-.078l-.067-.013-.132-.028-.262-.054-.513-.108-.251-.053c-.1,0-.12-.063-.3-.017-.421-1.7-.39-1.665-.428-1.851-.02-.11-.023-.082-.044-.092.04-.089.174-.33.026-1.837l.794-.368a2.706,2.706,0,0,0,.37-.187,1.5,1.5,0,0,0,.212-.218c.064-.084.091-.14.1-.145a.378.378,0,0,0,.053-.068l.087-.151a2.089,2.089,0,0,0,.23-.724,3.819,3.819,0,0,0-.226-1.819,6.359,6.359,0,0,0-2.517-3.154,5.667,5.667,0,0,0-1.847-.786,4.764,4.764,0,0,0-.986-.126c-.348-.028-.6.032-1.266.048-1.123.028-2.258-.155-2.765-1.1a9.1,9.1,0,0,1,.123-1.467c.018-.125.023-.235.051-.372l.039-.2.011-.178.043-.49a4.992,4.992,0,0,0-1.3-3.528,8.686,8.686,0,0,0-3.257-2.207,12.294,12.294,0,0,0-3.839-.893,6.581,6.581,0,0,0-.971-.042,8.817,8.817,0,0,0-.963.021c-.364.026-.894.08-1.365.16l-1.421.265c-.3-.046-.388-.6-.47-1a5.042,5.042,0,0,1-.107-1.3,7.794,7.794,0,0,1,.218-1.376l.267-1.048a5.836,5.836,0,0,0,.244-1.676,1.923,1.923,0,0,0-.11-.6l-.4-.559c-1.393-1.542-3.86-1.794-6.067-1.691a26.922,26.922,0,0,0-3.344.422c-.549.1-1.092.218-1.63.339l-1.144.279-.636.161-.317.08c-.052.012-.107.03-.157.037l-.094-.134a8.742,8.742,0,0,0-2.364-2.688,8.514,8.514,0,0,0-2.536-1.19,15.132,15.132,0,0,0-6.845-.214A16.243,16.243,0,0,0,231.9,452.907Z" /></g></g><g id="default"><ellipse class="cls-2" cx="182.666" cy="463" rx="57.576" ry="25.423" /><path d="M240.211,463c-.114-.271-.144-1.126-.47-2.383a14.723,14.723,0,0,0-2.181-4.591c-2.335-3.468-6.908-6.866-12.274-9.432a75.851,75.851,0,0,0-17.249-5.618,102.7,102.7,0,0,0-14.759-1.964,135.859,135.859,0,0,0-20.584.344,109.654,109.654,0,0,0-20.919,3.9,69.213,69.213,0,0,0-9.97,3.745,40.718,40.718,0,0,0-8.837,5.466,16.68,16.68,0,0,0-5.575,7.735,10.261,10.261,0,0,0,1.424,8.555,22.234,22.234,0,0,0,5.861,5.891,45.637,45.637,0,0,0,7.546,4.252,80.622,80.622,0,0,0,16.634,5.218,127.607,127.607,0,0,0,33.621,2.16c10.8-.726,21.043-2.714,29.867-6.26a41.746,41.746,0,0,0,11.673-6.8,18.979,18.979,0,0,0,3.987-4.717A12.042,12.042,0,0,0,239.673,463a11.351,11.351,0,0,1-.855,5.665,18.9,18.9,0,0,1-3.8,5.7,40.953,40.953,0,0,1-12.386,8.469,77.106,77.106,0,0,1-23.558,6.506,131.781,131.781,0,0,1-14.729.629,134.891,134.891,0,0,1-14.228-.889,101.833,101.833,0,0,1-26.391-6.39,49.651,49.651,0,0,1-11.4-6.334,26.141,26.141,0,0,1-4.635-4.491,15.894,15.894,0,0,1-2.952-5.731,12.1,12.1,0,0,1,.04-6.4,15.806,15.806,0,0,1,2.875-5.539,31.321,31.321,0,0,1,9.217-7.53,61.831,61.831,0,0,1,10.449-4.645,89.063,89.063,0,0,1,10.632-2.939,118.5,118.5,0,0,1,20.785-2.5,123.865,123.865,0,0,1,19.548.826,95.8,95.8,0,0,1,17.875,3.854c5.324,1.679,12.5,4.809,17.609,9.321a26.265,26.265,0,0,1,3.327,3.531,18.324,18.324,0,0,1,2.135,3.632A12.692,12.692,0,0,1,240.211,463Z" /></g><g data-name="default" id="default-2"><path class="cls-5" d="M125.09,465.674c5.8,23.743,18.27,52.938,19.509,54.494-3.335,2.573-6.523,8.2-8.277,11.353-2.445,4.392-3.01,9.99-.8,14.507,3.815,7.814,14.166,9.864,22.608,8.131,9.719-2,16.627-7.8,22.451-15.923,4.489-6.264,4.1-13.863,4.542-21.582.415-2.34.386-19.372.381-22.154" /><path d="M185.561,494.5c.386.461.657,3.337.839,7.408.091,2.035.159,4.37.2,6.853.011,1.244.022,2.524.032,3.821-.014,1.314.006,2.6-.12,4.032l-.012.154c-.1,3.19-.061,6.448-.27,9.448a37.112,37.112,0,0,1-1.272,7.843,21.224,21.224,0,0,1-1.4,3.6,19.775,19.775,0,0,1-.963,1.732c-.339.556-.675,1.04-1.017,1.566a49.051,49.051,0,0,1-4.715,5.977,35.163,35.163,0,0,1-13.226,9.085,31.677,31.677,0,0,1-16.47,1.866,23.979,23.979,0,0,1-8.214-2.871,17.767,17.767,0,0,1-6.436-6.438,17.336,17.336,0,0,1-2.33-8.781A20.94,20.94,0,0,1,132,531.252c.276-.646.657-1.358.953-1.9l.892-1.578c.608-1.056,1.241-2.111,1.914-3.155s1.384-2.078,2.162-3.1c.387-.509.8-1.015,1.227-1.517l.58-.646.016,0a.222.222,0,0,0,.044-.014l.008-.038v-.014l0,0c0-.009.02.037-.032-.08l-.426-.965-.8-1.9q-.759-1.894-1.508-3.763-1.452-3.741-2.75-7.4c-1.731-4.875-3.28-9.625-4.622-14.212a181.747,181.747,0,0,1-5.679-25.02c2.771,4.383,6.071,10.809,9.048,16.9,2.958,6.094,5.551,11.869,6.454,15.082.95,3.429,1.978,6.777,3.045,10.047q.805,2.451,1.652,4.83.435,1.182.864,2.353l.443,1.151.31.756c.127.316.3.618.39.933,0,.853-.018,1.774.039,2.336a3.848,3.848,0,0,1-.357.968l-.427,1.167c-.383.357-.805.71-1.146,1.062-.205.217-.419.418-.619.649q-.611.668-1.187,1.394c-.77.963-1.5,1.98-2.192,3.019s-1.358,2.1-2,3.181c-.338.561-.619,1.041-.875,1.542a15.855,15.855,0,0,0-.684,1.552c-1.609,4.224-1.24,9.115,1.388,12.434A12.872,12.872,0,0,0,143,551.2a19.845,19.845,0,0,0,6.082,1.717,26.9,26.9,0,0,0,12.184-1.419,30.356,30.356,0,0,0,10.006-5.917,47.144,47.144,0,0,0,7.375-8.4,20.869,20.869,0,0,0,3.478-9.275c.51-3.331.617-6.765.9-10.167.024-.333.049-.676.086-1.186.01-.081.033-.3.048-.351.12-.774.213-1.793.314-2.82s.207-2.124.314-3.223c.231-2.209.468-4.48.688-6.6C184.942,499.331,185.385,495.725,185.561,494.5Z" /></g><path class="cls-6" d="M179.523,510.52c.109.315-.905,1.769-2.484,3.072-.4.308-.8.662-1.241.947l-1.3.839c-.874.477-1.667.928-2.253,1.214a20.454,20.454,0,0,1-6.95,2.18,28.567,28.567,0,0,1-7.454,0,22.3,22.3,0,0,1-6.148-1.652,18.239,18.239,0,0,1-5.076-3.442,15.788,15.788,0,0,1-4.77-8.744c1.192.847,2.535,2,3.772,2.941a16.627,16.627,0,0,1,2.727,2.364,13.63,13.63,0,0,0,6.7,5.02,21.852,21.852,0,0,0,7.646,1.178,27.506,27.506,0,0,0,12.048-3.258c.748-.408,1.831-.9,2.762-1.436a12.527,12.527,0,0,0,1.254-.746Z" /><path class="cls-6" d="M180.984,519.98c.143.293-.634,1.749-1.874,3.2a34.041,34.041,0,0,1-3.832,3.652,19.643,19.643,0,0,1-5.861,3.564,25.036,25.036,0,0,1-6.893,1.591,20.312,20.312,0,0,1-11.364-2.264,14.577,14.577,0,0,1-4.1-3.264,9.831,9.831,0,0,1-2.085-3.924,39.512,39.512,0,0,0,4,2.012,15.545,15.545,0,0,1,2.99,1.428,14.745,14.745,0,0,0,7.294,3.16,18.011,18.011,0,0,0,7.209-.458,29.1,29.1,0,0,0,10.359-5.573,13.367,13.367,0,0,1,1.127-.833c.4-.314.834-.63,1.255-.924C180.022,520.733,180.724,520.153,180.984,519.98Z" /><g data-name="default" id="default-3"><path class="cls-2" d="M125.09,463.871c9.04,37.246,43.743,55.977,63.789,54.5,18.518-1.37,41.244-8.937,48.759-28.749,2.676-7.054,3.186-15.453,2-25.746" /><path d="M239.67,463.867a23.509,23.509,0,0,1,.808,4.951,59.335,59.335,0,0,1,.111,10.411,38.47,38.47,0,0,1-2.714,11.776c-.384.9-.759,1.777-1.122,2.624l-1.289,2.324c-.208.369-.4.736-.6,1.08l-.662.957c-.426.621-.821,1.2-1.18,1.722a41.708,41.708,0,0,1-10.035,9.529,57.756,57.756,0,0,1-12.839,6.488,78.24,78.24,0,0,1-14,3.625l-3.549.513-3.541.364a37.861,37.861,0,0,1-7.229-.169,51.959,51.959,0,0,1-11.9-2.883,67.6,67.6,0,0,1-10.842-5.082,73.867,73.867,0,0,1-24.222-22.791,77.08,77.08,0,0,1-4.917-8.7,70.281,70.281,0,0,1-5.405-16.6,122.873,122.873,0,0,0,8.063,15.834c1.644,2.689,3.425,5.162,4.976,7.3l2.209,2.876c.684.842,1.251,1.6,1.719,2.219a68.1,68.1,0,0,0,27.676,21.573,48.518,48.518,0,0,0,15.644,3.82c.649.033,1.295.032,1.938.049.643,0,1.28-.047,1.917-.068,1.284-.11,2.567-.232,3.832-.367,1.261-.183,2.516-.332,3.751-.539,1.23-.236,2.459-.43,3.661-.7,9.624-2.051,18.282-5.769,24.919-11.1a40.059,40.059,0,0,0,8.31-8.952,39.093,39.093,0,0,0,2.748-5.1,30.2,30.2,0,0,0,1.942-5.26,58.2,58.2,0,0,0,1.858-12.468C239.9,468.831,239.707,465.092,239.67,463.867Z" /></g><path class="cls-5" d="M190.237,518.251c1.662,4.343,1.6,9.036,2.269,14.011C189.5,537.5,186.5,544.5,187.1,551.7c.9,10.771,7.485,16.831,17.718,17.24,7.847.315,16.58-3.8,21.823-9.859,6.039-6.977,8.861-14.58,9.651-24.01.2-14.038.889-25.921-.614-41.183C226.943,510.09,207.082,516.744,190.237,518.251Z" /><path d="M235.563,492.141c.678.579,1.691,6.775,2.154,14.017.5,7.239.47,15.461.734,20.014q.15,3.015.305,6.127c.035,1.068.118,2.12.1,3.241l-.087,1.725-.134,1.665a41.554,41.554,0,0,1-3.526,13.37,39.673,39.673,0,0,1-3.538,6.154c-.683.963-1.393,1.9-2.135,2.808-.381.46-.809.926-1.214,1.386l-1.295,1.3a34.11,34.11,0,0,1-12.184,7.348,29.011,29.011,0,0,1-6.067,1.418,27.478,27.478,0,0,1-6.318.023,25.166,25.166,0,0,1-6.22-1.542,19.548,19.548,0,0,1-5.639-3.433,18.689,18.689,0,0,1-4.131-5.074,22.277,22.277,0,0,1-2.245-5.788,29.2,29.2,0,0,1-.534-2.912c-.086-.966-.214-1.9-.216-2.891a27.456,27.456,0,0,1,.475-5.677,36.32,36.32,0,0,1,3.48-9.875c.378-.738.769-1.459,1.176-2.157.2-.353.406-.7.615-1.036l.155-.256.078-.127a.153.153,0,0,0,.021-.022l.11-.127.112-.135.014-.168a3.119,3.119,0,0,0,0-.637l-.076-2.238a57.626,57.626,0,0,0-.5-7.966,17.531,17.531,0,0,0-2.414-6.461,13.522,13.522,0,0,1,5.347,5.691,40.084,40.084,0,0,1,3,8.721q.136.531.273,1.058l.134.517.066.257c.022.089.04.145.077.335q.192.969.382,1.924c.007.08.051.166.027.24l-.1.216-.205.434-.415.873a10.986,10.986,0,0,0-.5,1.174l-.34.885q-.322.87-.626,1.683c-.776,2.161-1.355,3.953-1.838,5.156a22.185,22.185,0,0,0-1.713,7.369,19.536,19.536,0,0,0,1.026,7.289,13.235,13.235,0,0,0,3.947,5.7,15.437,15.437,0,0,0,6.314,3.017,22.489,22.489,0,0,0,13.836-1.435,26.649,26.649,0,0,0,10.651-7.948,35.239,35.239,0,0,0,6.1-11.033,39.61,39.61,0,0,0,1.462-5.834,49.93,49.93,0,0,0,.655-5.757q.012-2.975.025-5.847.047-2.9.093-5.7.15-5.572.289-10.765c.046-3.284.364-7.768.566-11.74S235.508,493.276,235.563,492.141Z" /><path class="cls-6" d="M234.531,506.5a2.712,2.712,0,0,1,.18,1.622,11.7,11.7,0,0,1-.819,3.248,32.676,32.676,0,0,1-3.465,6.07,23.948,23.948,0,0,1-2.748,3.439,22.453,22.453,0,0,1-3.519,3.057,23.9,23.9,0,0,1-8.7,3.573,30.486,30.486,0,0,1-7.731.571,31.025,31.025,0,0,1-7.288-1.155,12.8,12.8,0,0,1-3.357-1.575,9.76,9.76,0,0,1-2.522-2.468,18.364,18.364,0,0,1-2.371-5.159c1.4.906,3,2.519,4.516,3.5a27.094,27.094,0,0,0,3.631,1.779,17.2,17.2,0,0,0,5.162,1.675,29.29,29.29,0,0,0,5.314.51,22.584,22.584,0,0,0,9.409-1.947,21.678,21.678,0,0,0,6.685-5.011,41.1,41.1,0,0,0,4.566-5.743,35.458,35.458,0,0,0,2.007-3.3,14.359,14.359,0,0,0,.725-1.635Z" /><path class="cls-6" d="M233.528,526.488c.158.007.529.516.5,1.319a6.788,6.788,0,0,1-.747,2.724,13.378,13.378,0,0,1-1.736,2.725c-.173.2-.349.4-.54.59l-.509.475c-.321.3-.606.573-.837.813a22.911,22.911,0,0,1-6.1,4.2,29.355,29.355,0,0,1-7.23,2.342,25.539,25.539,0,0,1-12.376-.643,16.113,16.113,0,0,1-5.077-2.485,6.3,6.3,0,0,1-2.612-4.279c2.3,2.34,6.205,2.168,7.652,2.893a19.233,19.233,0,0,0,8.58,2.061,22.823,22.823,0,0,0,7.811-1.294,27.309,27.309,0,0,0,6.182-3.126c.888-.6,1.737-1.2,2.51-1.833l.587-.456a5.283,5.283,0,0,0,.489-.427,13.122,13.122,0,0,0,.912-.98,24.139,24.139,0,0,0,1.877-2.454A3.414,3.414,0,0,0,233.528,526.488Z" /></g></g></svg>