<svg xmlns="http://www.w3.org/2000/svg" id="new" viewBox="0 0 380 600"><defs transform="matrix(-1, 0, 0, 1, 380, 0)"><style>.cls-1{fill:#fff;}.cls-2{fill:#ffffff;}.cls-3{fill:#ff4500;}</style></defs><g id="default" transform="matrix(-1, 0, 0, 1, 380, 0)"><ellipse class="cls-1" cx="182.67" cy="463" rx="57.58" ry="25.42" style="" /><path d="M240.21,463c-.11-.27-.14-1.13-.47-2.38a14.66,14.66,0,0,0-2.18-4.59c-2.34-3.47-6.91-6.87-12.27-9.44A75.78,75.78,0,0,0,208,441a102.62,102.62,0,0,0-14.76-2,135.56,135.56,0,0,0-20.59.35,109.46,109.46,0,0,0-20.92,3.9,69.4,69.4,0,0,0-10,3.74,40.87,40.87,0,0,0-8.83,5.47,16.73,16.73,0,0,0-5.58,7.74,10.27,10.27,0,0,0,1.43,8.55,22.32,22.32,0,0,0,5.86,5.89,45.26,45.26,0,0,0,7.54,4.25,80.74,80.74,0,0,0,16.64,5.22,127.57,127.57,0,0,0,33.62,2.16c10.8-.72,21-2.71,29.87-6.26a41.64,41.64,0,0,0,11.67-6.8,19,19,0,0,0,4-4.71,12,12,0,0,0,1.66-5.51,11.23,11.23,0,0,1-.85,5.66,19,19,0,0,1-3.8,5.71,41,41,0,0,1-12.39,8.46,76.89,76.89,0,0,1-23.56,6.51,130.92,130.92,0,0,1-14.72.63,135.53,135.53,0,0,1-14.23-.89,101.62,101.62,0,0,1-26.39-6.39,49.66,49.66,0,0,1-11.4-6.33,26.36,26.36,0,0,1-4.64-4.5,15.8,15.8,0,0,1-3-5.73,12.15,12.15,0,0,1,0-6.39,15.67,15.67,0,0,1,2.88-5.54,31.18,31.18,0,0,1,9.21-7.53A62.38,62.38,0,0,1,147.32,442,90.12,90.12,0,0,1,158,439.08a119.85,119.85,0,0,1,20.79-2.5,124.14,124.14,0,0,1,19.55.83,96.11,96.11,0,0,1,17.87,3.85c5.33,1.68,12.5,4.81,17.61,9.32a26.65,26.65,0,0,1,3.33,3.53,18.63,18.63,0,0,1,2.13,3.64A12.54,12.54,0,0,1,240.21,463Z" /></g><g data-name="default" id="default-2" transform="matrix(-1, 0, 0, 1, 380, 0)"><path class="cls-2 color-body" d="M125.09,465.17c5.8,23.75,18.27,52.94,19.51,54.5-3.34,2.57-6.52,8.2-8.28,11.35-2.44,4.39-3,10-.8,14.51,3.81,7.81,14.16,9.86,22.61,8.13,9.71-2,16.62-7.8,22.45-15.92,4.49-6.27,4.1-13.87,4.54-21.59.41-2.34.39-19.37.38-22.15" style=";fill:#ffffff;--backup-fill:#ffffff" /><path d="M185.56,494c.39.46.66,3.34.84,7.41.09,2,.16,4.37.2,6.85,0,1.24,0,2.52,0,3.82s0,2.6-.12,4v.16c-.1,3.19-.06,6.45-.27,9.45a37,37,0,0,1-1.27,7.84,20.83,20.83,0,0,1-1.4,3.59c-.27.6-.63,1.16-1,1.74s-.68,1-1,1.56a48.75,48.75,0,0,1-4.72,6,35.26,35.26,0,0,1-13.22,9.09,31.72,31.72,0,0,1-16.47,1.86,24,24,0,0,1-8.22-2.87,17.73,17.73,0,0,1-6.43-6.44,17.27,17.27,0,0,1-2.33-8.78,21,21,0,0,1,1.81-8.54c.27-.64.66-1.36.95-1.9l.89-1.58c.61-1,1.25-2.11,1.92-3.15s1.38-2.08,2.16-3.1c.39-.51.8-1,1.23-1.52l.58-.64h.06v0h0s0,0,0-.08l-.43-1c-.27-.64-.53-1.27-.8-1.9-.5-1.26-1-2.52-1.5-3.76-1-2.5-1.89-5-2.75-7.4-1.74-4.88-3.28-9.63-4.63-14.21a184.19,184.19,0,0,1-5.68-25c2.77,4.39,6.07,10.81,9,16.9s5.55,11.87,6.46,15.08q1.42,5.15,3,10.05.81,2.44,1.65,4.83l.87,2.35.44,1.15.31.76c.13.32.3.62.39.93,0,.86,0,1.78,0,2.34a4.08,4.08,0,0,1-.36,1l-.42,1.16c-.39.36-.81.71-1.15,1.07s-.42.41-.62.64c-.41.45-.8.92-1.19,1.4-.77,1-1.49,2-2.19,3s-1.36,2.1-2,3.18c-.34.56-.62,1-.88,1.54s-.48,1-.68,1.55c-1.61,4.23-1.24,9.12,1.39,12.44a12.8,12.8,0,0,0,4.87,3.9,19.86,19.86,0,0,0,6.08,1.72A26.85,26.85,0,0,0,161.27,551a30.4,30.4,0,0,0,10-5.92,46.76,46.76,0,0,0,7.38-8.4,21,21,0,0,0,3.48-9.27c.51-3.34.61-6.77.9-10.17,0-.33.05-.68.08-1.19l0-.35c.12-.77.21-1.79.31-2.82s.21-2.12.32-3.22c.23-2.21.47-4.48.69-6.6C184.94,498.83,185.38,495.23,185.56,494Z" /></g><g data-name="default" id="default-3" transform="matrix(-1, 0, 0, 1, 380, 0)"><path class="cls-1" d="M125.09,463.37c9,37.25,43.74,56,63.79,54.5,18.52-1.37,41.24-8.94,48.76-28.75,2.67-7.06,3.18-15.46,2-25.75" style="" /><path d="M239.67,463.37a23.21,23.21,0,0,1,.81,4.95,59.62,59.62,0,0,1,.11,10.41,38.73,38.73,0,0,1-2.71,11.78c-.39.89-.76,1.77-1.13,2.62s-.88,1.58-1.29,2.32c-.2.37-.4.74-.6,1.08l-.66,1L233,499.21a41.7,41.7,0,0,1-10,9.53,57.56,57.56,0,0,1-12.84,6.49,77.87,77.87,0,0,1-14,3.62l-3.55.52-3.54.36a37,37,0,0,1-7.23-.17,51.72,51.72,0,0,1-11.9-2.88,67.53,67.53,0,0,1-10.84-5.08,73.4,73.4,0,0,1-17.68-14.38,74.2,74.2,0,0,1-6.54-8.41,79,79,0,0,1-4.92-8.7,69.86,69.86,0,0,1-5.4-16.61,122.54,122.54,0,0,0,8.06,15.84c1.64,2.69,3.43,5.16,5,7.3.8,1.05,1.54,2,2.21,2.87s1.25,1.61,1.71,2.22a68.27,68.27,0,0,0,27.68,21.58,48.86,48.86,0,0,0,15.64,3.82c.65,0,1.3,0,1.94,0s1.28,0,1.92-.07c1.28-.11,2.57-.23,3.83-.37s2.52-.33,3.75-.54,2.46-.43,3.66-.7c9.63-2,18.28-5.76,24.92-11.09a35.51,35.51,0,0,0,11.06-14.06,29.78,29.78,0,0,0,1.94-5.26,57.73,57.73,0,0,0,1.86-12.47C239.9,468.33,239.71,464.59,239.67,463.37Z" /></g><g data-name="default" id="default-4" transform="matrix(-1, 0, 0, 1, 380, 0)"><path class="cls-1" d="M235.5,491.65a63.45,63.45,0,0,0-26.92,5.57A62.22,62.22,0,0,0,187.5,513c4.57,5.6,4.08,11.91,5,18.76-3,5.24-6,12.24-5.41,19.44C188,562,194.58,568,204.82,568.44c7.84.31,16.58-3.8,21.82-9.86,6-7,8.86-14.58,9.65-24C236.5,520,237.24,507.76,235.5,491.65Z" style="" /><path class="cls-2 color-body" d="M187.5,513c4.57,5.6,4.08,11.91,5,18.76-3,5.24-6,12.24-5.41,19.44C188,562,194.58,568,204.82,568.44c7.84.31,16.58-3.8,21.82-9.86,6-7,8.86-14.58,9.65-24,.21-14.57,1-26.81-.79-42.92" style=";fill:#ffffff;--backup-fill:#ffffff" /><path d="M235.56,491.64c.68.58,1.69,6.78,2.16,14s.47,15.46.73,20c.1,2,.2,4.06.31,6.13,0,1.07.11,2.12.1,3.24l-.09,1.73-.13,1.66a41.31,41.31,0,0,1-3.53,13.37,39.08,39.08,0,0,1-3.54,6.15c-.68,1-1.39,1.91-2.13,2.81-.38.46-.81.93-1.21,1.39l-1.3,1.3a34,34,0,0,1-12.18,7.35,29.47,29.47,0,0,1-6.07,1.42,27.27,27.27,0,0,1-6.32,0,25.17,25.17,0,0,1-6.22-1.54,19.62,19.62,0,0,1-5.64-3.43,18.9,18.9,0,0,1-4.13-5.08,21.8,21.8,0,0,1-2.24-5.79c-.25-1-.39-1.94-.54-2.91s-.21-1.9-.21-2.89a27.18,27.18,0,0,1,.47-5.68,36.23,36.23,0,0,1,3.48-9.87c.38-.74.77-1.46,1.18-2.16.2-.35.4-.69.61-1l.16-.26.08-.13,0,0,.11-.13.11-.13V531a2.68,2.68,0,0,0,0-.63l-.07-2.24a57.12,57.12,0,0,0-.51-8,17.48,17.48,0,0,0-2.41-6.46,13.48,13.48,0,0,1,5.34,5.69,40.23,40.23,0,0,1,3,8.72l.27,1.06.13.52.07.25c0,.09,0,.15.08.34.12.65.25,1.29.38,1.92,0,.08,0,.17,0,.24l-.1.22-.2.43-.42.88a10.62,10.62,0,0,0-.5,1.17c-.12.3-.23.59-.34.89-.22.57-.43,1.14-.63,1.68-.77,2.16-1.35,3.95-1.84,5.15a22.18,22.18,0,0,0-1.71,7.37,19.42,19.42,0,0,0,1,7.29,13.18,13.18,0,0,0,3.94,5.7,15.39,15.39,0,0,0,6.32,3,22.4,22.4,0,0,0,13.83-1.44A26.65,26.65,0,0,0,226,556.88a35.32,35.32,0,0,0,6.1-11,39.46,39.46,0,0,0,1.46-5.83,49.87,49.87,0,0,0,.66-5.76c0-2,0-3.93,0-5.84s.06-3.83.09-5.7q.15-5.57.29-10.77c0-3.28.37-7.76.57-11.74S235.51,492.78,235.56,491.64Z" /></g><path class="cls-3 color-tights" d="M215.56,551c-5.5-.83-22.42-3-24-5.33-1.22-1.84-2.25-6.21-1.17-9.08-17.93,47,50.22,40.42,46-9.36C231.9,536.58,226.13,547.67,215.56,551Z" style="" transform="matrix(-1, 0, 0, 1, 380, 0)" /><path d="M215.55,550.92c.19-.41,1.57-1,3.43-2.2a28.39,28.39,0,0,0,6.2-5.5c4.23-4.86,7.54-11.89,9.61-16.8l3.45.64c.11,1,.25,2,.33,2.82a42.93,42.93,0,0,1-.66,13.53,37.47,37.47,0,0,1-5.62,13.29,35.31,35.31,0,0,1-24.44,15.41A24.06,24.06,0,0,1,194.21,570a18.69,18.69,0,0,1-9.35-10.66,26.89,26.89,0,0,1-.94-12.9,48,48,0,0,1,3.26-11.12l6.48,2.45a6.42,6.42,0,0,0-.31,3.06,13.12,13.12,0,0,0,.31,1.79l.12.41a2.76,2.76,0,0,1,.09.3,1.29,1.29,0,0,0,.08.26.77.77,0,0,0,.19.21l.12.09c.1.06.25.12.39.19.56.25,1.2.49,1.86.71,1.31.45,2.68.84,4,1.21,5.43,1.47,10.59,2.62,15.19,3.83A68.71,68.71,0,0,1,198.22,551a34.31,34.31,0,0,1-4.78-.6,11.26,11.26,0,0,1-2.9-1,6.07,6.07,0,0,1-2.7-2.65,4,4,0,0,1-.23-.41l-.19-.4c-.1-.2-.18-.39-.26-.58-.17-.39-.3-.76-.42-1.12a14,14,0,0,1-.53-2.1,12.12,12.12,0,0,1-.13-3.61,11.83,11.83,0,0,1,.88-3.29l6.91,2.61a35,35,0,0,0-3.91,13.4,17.5,17.5,0,0,0,.79,6.38,12.69,12.69,0,0,0,3.25,5.17c3,2.85,7.26,4.06,11.36,4a26.3,26.3,0,0,0,11.69-3.11,30.76,30.76,0,0,0,9-7.21,33,33,0,0,0,5.61-9.33,43.73,43.73,0,0,0,2.54-19.78l4.23.79a84.23,84.23,0,0,1-5.69,10.21,32.24,32.24,0,0,1-8.84,9.12,11,11,0,0,1-1.34.83c-.45.25-.87.51-1.31.72a22,22,0,0,1-5.71,1.85Z" transform="matrix(-1, 0, 0, 1, 380, 0)" /><path class="cls-3 color-tights" d="M151.79,536.15c-7.52-2.58-14.53-.94-11.8-11.71-14.71,17.08-.07,33.62,18.14,29.22,13.68-3,26.3-15.21,26.61-29.84-7,6.7-15.26,12.6-24.52,15.57C157.24,539.05,154.71,536.9,151.79,536.15Z" style="" transform="matrix(-1, 0, 0, 1, 380, 0)" /><path d="M151.81,536.09a2.54,2.54,0,0,1,1.44,0,18.22,18.22,0,0,1,2.81,1c.55.22,1.13.46,1.73.67a10.46,10.46,0,0,0,1.79.48c.27,0,.56.12.82-.05l.9-.36c.72-.3,1.46-.61,2.2-1a55.12,55.12,0,0,0,8.6-4.93c.67-.46,1.25-.91,1.9-1.39l1.19-.92c.39-.29.77-.6,1.18-1,1.62-1.32,3.13-2.74,4.5-4.09l5.79-5.75a2.73,2.73,0,0,1,.23.25c.08.1.16.08.23.13a1.88,1.88,0,0,1,.42.27c0,1.13,0,2.27-.08,3.41s-.12,2.18-.17,3.28-.27,2.3-.4,3.46c-.29,1.26-.66,2.6-1,3.94-.55,1.4-1.19,2.84-1.79,4.3-.09.18-.18.36-.27.51l-.24.41-.37.66-.75,1.31c-.57.83-1.13,1.67-1.72,2.49a39.15,39.15,0,0,1-19.29,13.52,35.4,35.4,0,0,1-6.82,1.44,26.23,26.23,0,0,1-7.18-.28A21.9,21.9,0,0,1,134.85,551a18.09,18.09,0,0,1-3.64-6.35,18.33,18.33,0,0,1-.84-7,20.24,20.24,0,0,1,.54-3.34l.26-1a9,9,0,0,1,.41-1.21c.31-.76.62-1.51.92-2.27a32.57,32.57,0,0,1,4.58-6.75c.36.12.69.22,1,.31a7.56,7.56,0,0,0,.91.23l.73.1.35,0-.06.15a1.41,1.41,0,0,0-.19.71,2.56,2.56,0,0,0,.22,1l.37.51.17.26c.07.08.21.2.31.3l.64.63c.25.22.59.47.88.71l-.11.92a2.19,2.19,0,0,0,0,.71l.17.67.16.66c.07.09.14.11.21.18a5.21,5.21,0,0,0,1,.66,22.66,22.66,0,0,0,2.72,1.07,48.56,48.56,0,0,1,5.65,2.14c-1.85.1-3.87.3-6.08.41a18.19,18.19,0,0,1-3.56-.14,8.68,8.68,0,0,1-2-.61l-.53-.24-.31-.17-.48-.26c-.33-.14-.43-.27-.51-.28s-.09.2-.13.53a4.29,4.29,0,0,0-.2,1.13c0,.22.05.14,0,0a.27.27,0,0,0-.34,0,.91.91,0,0,0-.09.22l-.12.31-.17.61a9.35,9.35,0,0,0-.28,1.25,11.2,11.2,0,0,0,.25,5,13,13,0,0,0,6.47,7.71,18.69,18.69,0,0,0,10.19,2.09,26.74,26.74,0,0,0,5.15-.91,23.13,23.13,0,0,0,2.49-.76,24.46,24.46,0,0,0,2.37-1,32.92,32.92,0,0,0,14.35-12.51l.56-1a6.82,6.82,0,0,0,.42-.76c.17-.37.33-.74.5-1.12a14.81,14.81,0,0,0,.62-2.13,7.25,7.25,0,0,0,.15-1,6.14,6.14,0,0,0,.06-1v-.7c0-.06,0,0-.06,0l-.1.09-.78.76a26.28,26.28,0,0,1-3.09,2.57l-.49.34-.73.48c-.6.39-1.19.78-1.8,1.14-1.2.74-2.42,1.41-3.65,2a33.66,33.66,0,0,1-5,2.08c-.93.31-1.9.57-2.86.82l-1.68.39c-.29.13-.6,0-.89-.08s-.58-.17-.86-.26a22.18,22.18,0,0,1-4.47-2.65A17.76,17.76,0,0,0,151.81,536.09Z" transform="matrix(-1, 0, 0, 1, 380, 0)" /><g data-name="default" id="default-5" transform="matrix(-1, 0, 0, 1, 380, 0)"><ellipse class="cls-2 color-body" cx="182.67" cy="463" rx="57.58" ry="25.42" style=";fill:#ffffff;--backup-fill:#ffffff" /><path d="M240.21,463c-.11-.27-.14-1.13-.47-2.38a14.66,14.66,0,0,0-2.18-4.59c-2.34-3.47-6.91-6.87-12.27-9.44A75.78,75.78,0,0,0,208,441a102.62,102.62,0,0,0-14.76-2,135.56,135.56,0,0,0-20.59.35,109.46,109.46,0,0,0-20.92,3.9,69.4,69.4,0,0,0-10,3.74,40.87,40.87,0,0,0-8.83,5.47,16.73,16.73,0,0,0-5.58,7.74,10.27,10.27,0,0,0,1.43,8.55,22.32,22.32,0,0,0,5.86,5.89,45.26,45.26,0,0,0,7.54,4.25,80.74,80.74,0,0,0,16.64,5.22,127.57,127.57,0,0,0,33.62,2.16c10.8-.72,21-2.71,29.87-6.26a41.64,41.64,0,0,0,11.67-6.8,19,19,0,0,0,4-4.71,12,12,0,0,0,1.66-5.51,11.23,11.23,0,0,1-.85,5.66,19,19,0,0,1-3.8,5.71,41,41,0,0,1-12.39,8.46,76.89,76.89,0,0,1-23.56,6.51,130.92,130.92,0,0,1-14.72.63,135.53,135.53,0,0,1-14.23-.89,101.62,101.62,0,0,1-26.39-6.39,49.66,49.66,0,0,1-11.4-6.33,26.36,26.36,0,0,1-4.64-4.5,15.8,15.8,0,0,1-3-5.73,12.15,12.15,0,0,1,0-6.39,15.67,15.67,0,0,1,2.88-5.54,31.18,31.18,0,0,1,9.21-7.53A62.38,62.38,0,0,1,147.32,442,90.12,90.12,0,0,1,158,439.08a119.85,119.85,0,0,1,20.79-2.5,124.14,124.14,0,0,1,19.55.83,96.11,96.11,0,0,1,17.87,3.85c5.33,1.68,12.5,4.81,17.61,9.32a26.65,26.65,0,0,1,3.33,3.53,18.63,18.63,0,0,1,2.13,3.64A12.54,12.54,0,0,1,240.21,463Z" /><path class="cls-2 color-body" d="M125.09,463.37c9,37.25,43.74,56,63.79,54.5,18.52-1.37,41.24-8.94,48.76-28.75,2.67-7.06,3.18-15.46,2-25.75" style=";fill:#ffffff;--backup-fill:#ffffff" /><path d="M239.67,463.37a23.21,23.21,0,0,1,.81,4.95,59.62,59.62,0,0,1,.11,10.41,38.73,38.73,0,0,1-2.71,11.78c-.39.89-.76,1.77-1.13,2.62s-.88,1.58-1.29,2.32c-.2.37-.4.74-.6,1.08l-.66,1L233,499.21a41.7,41.7,0,0,1-10,9.53,57.56,57.56,0,0,1-12.84,6.49,77.87,77.87,0,0,1-14,3.62l-3.55.52-3.54.36a37,37,0,0,1-7.23-.17,51.72,51.72,0,0,1-11.9-2.88,67.53,67.53,0,0,1-10.84-5.08,73.4,73.4,0,0,1-17.68-14.38,74.2,74.2,0,0,1-6.54-8.41,79,79,0,0,1-4.92-8.7,69.86,69.86,0,0,1-5.4-16.61,122.54,122.54,0,0,0,8.06,15.84c1.64,2.69,3.43,5.16,5,7.3.8,1.05,1.54,2,2.21,2.87s1.25,1.61,1.71,2.22a68.27,68.27,0,0,0,27.68,21.58,48.86,48.86,0,0,0,15.64,3.82c.65,0,1.3,0,1.94,0s1.28,0,1.92-.07c1.28-.11,2.57-.23,3.83-.37s2.52-.33,3.75-.54,2.46-.43,3.66-.7c9.63-2,18.28-5.76,24.92-11.09a35.51,35.51,0,0,0,11.06-14.06,29.78,29.78,0,0,0,1.94-5.26,57.73,57.73,0,0,0,1.86-12.47C239.9,468.33,239.71,464.59,239.67,463.37Z" /></g><path d="M235.37,518.06c-.09.39-2,1.26-4.2,2.32a66.8,66.8,0,0,0-5.95,3.12c-4.58,2.94-9.86,6.11-14.49,9.23-8.09,5.44-15.93,10.85-21.41,14.31,1-3.16,4.68-7.64,6.47-8.6,7.1-4,13-7.7,18.32-11s10-6,14.47-7.73A35.84,35.84,0,0,1,235.37,518.06Z" transform="matrix(-1, 0, 0, 1, 380, 0)" /><path d="M236.07,501.59c-.08.77-7,4.5-9.54,6.27-4.41,3.13-9.72,6.22-14.33,9.22-4,2.63-8,5.19-11.29,7.83a77,77,0,0,0-8.31,7.6,14.16,14.16,0,0,1,.55-2.71,19,19,0,0,1,1.24-2.87,12.65,12.65,0,0,1,3.1-3.95c3.41-2.33,6.64-4.24,9.65-6.05l8.45-5c5.26-3.15,9.78-6,14-8A45.58,45.58,0,0,1,236.07,501.59Z" transform="matrix(-1, 0, 0, 1, 380, 0)" /><path d="M229.39,540c-.27.18-1.52-.39-2.91-1.17s-2.87-1.79-3.78-2.26a36.45,36.45,0,0,1-8.89-7.15,34.82,34.82,0,0,1-8.39-14.71c2.33.86,5.11,3.24,5.55,4.41a28.14,28.14,0,0,0,7.34,11.13c2.85,2.71,5.72,4.55,8,6.48A26.65,26.65,0,0,1,229.39,540Z" transform="matrix(-1, 0, 0, 1, 380, 0)" /><path d="M221.58,547.22c-.13.12-.57,0-1.22-.13a10.61,10.61,0,0,1-2.31-.92,19.64,19.64,0,0,1-2.5-1.41c-.78-.49-1.51-.91-2-1.25-3.68-2.2-7-5.79-9.78-9.11a71.81,71.81,0,0,1-6.2-8.89c-1.73-2.87-3.09-5.53-4.33-7.56a9.79,9.79,0,0,1,4.22,1.94,8.71,8.71,0,0,1,2.61,2.71,49.24,49.24,0,0,0,8.52,13.4,62.6,62.6,0,0,0,8.95,8c.69.42,1.5,1.23,2.3,1.85S221.35,547,221.58,547.22Z" transform="matrix(-1, 0, 0, 1, 380, 0)" /><path d="M179.92,517.3c-.26.68-7.12,2-9.66,2.89-4.51,1.58-9.74,2.94-14.37,4.41-4,1.28-8,2.54-11.61,3.77s-6.8,2.46-9.45,3.46a12.31,12.31,0,0,1,1.35-2.11,18.16,18.16,0,0,1,1.92-2,18.42,18.42,0,0,1,2.05-1.55,6.79,6.79,0,0,1,1.67-.78c7-1.71,12.88-3.22,18.12-4.69a113.67,113.67,0,0,1,13.88-3.28A34,34,0,0,1,179.92,517.3Z" transform="matrix(-1, 0, 0, 1, 380, 0)" /><path d="M161.31,510.6c-.12.32-1,.39-2,.5a13.41,13.41,0,0,0-2.73.5c-2.13.83-4.5,1.52-6.56,2.39-3.59,1.52-7,2.92-9.45,4.07a4.42,4.42,0,0,1-.07-1.55A6,6,0,0,1,141,515a3.14,3.14,0,0,1,1.51-1.71c3.68-.89,6.43-1.75,9-2.59s4.86-1.42,6.94-1.21A7.65,7.65,0,0,1,161.31,510.6Z" transform="matrix(-1, 0, 0, 1, 380, 0)" /><path d="M175.52,531.79c-.16.09-.61,0-1.26-.31l-1.08-.5-1.22-.69c-1.72-1-3.55-2.25-4.63-2.88a56.44,56.44,0,0,1-11-8.74,48.51,48.51,0,0,1-7.29-9,23.84,23.84,0,0,1-3.57-9c2.27,1.74,5.38,4.6,6.06,6a34.41,34.41,0,0,0,4.58,7.55,47.64,47.64,0,0,0,5.36,5.7c3.62,3.3,7.11,5.71,10,8.06a27.1,27.1,0,0,1,2.34,2.13C174.62,530.87,175.3,531.55,175.52,531.79Z" transform="matrix(-1, 0, 0, 1, 380, 0)" /><path d="M166.59,537.53c-.28.18-1.69-.44-3.21-1.36s-3.15-2.1-4.13-2.68a47.8,47.8,0,0,1-9.6-8.2,53.92,53.92,0,0,1-10.38-15.6c2.55.72,5.81,3.23,6.42,4.52a42.54,42.54,0,0,0,8.72,12.24c3.13,3.1,6.21,5.34,8.69,7.52a24.93,24.93,0,0,1,2,2C165.82,536.66,166.4,537.31,166.59,537.53Z" transform="matrix(-1, 0, 0, 1, 380, 0)" /><path class="cls-3 color-tights" d="M182.67,488.42c-23.43,0-43.78-5.81-54.09-14.34,12.42,30.1,42.28,45.12,60.3,43.79,18.52-1.37,41.24-8.94,48.76-28.75,2-5.31,2.8-11.38,2.56-18.44C231.61,481,209.09,488.42,182.67,488.42Z" style="" transform="matrix(-1, 0, 0, 1, 380, 0)" /><path d="M182.67,488.39c1.1-.38,11.78-.32,23.8-2.72a92,92,0,0,0,17.76-5.29c1.37-.56,2.66-1.22,3.92-1.81l1.8-1q.88-.46,1.68-1l1.56-1c.51-.32.95-.7,1.4-1s.88-.66,1.27-1l1.47-1.33c1.25-1.27,2.38-2.56,3.79-4.1,0,.08.09.07.1.22v.45l0,.92.06,1.83c0,1.24.06,2.56,0,3.75l0,.81,0,.64c0,.43-.05.86-.07,1.3-.06.86-.14,1.73-.24,2.6A36.57,36.57,0,0,1,238.37,491c-.36.83-.7,1.67-1.09,2.49l-1.34,2.39a17.45,17.45,0,0,1-1.5,2.3c-.55.73-1,1.53-1.64,2.21a45.66,45.66,0,0,1-8.05,7.54,58.86,58.86,0,0,1-9.57,5.45A68.75,68.75,0,0,1,204.9,517a81.07,81.07,0,0,1-10.54,2.15c-1.76.28-3.53.42-5.28.6a39.29,39.29,0,0,1-5.43,0,55,55,0,0,1-18.29-4.92,73.77,73.77,0,0,1-15.7-9.67,85.6,85.6,0,0,1-6.71-6l-3-3.28-.74-.81-.68-.86-1.35-1.72-1.34-1.71c-.43-.57-.81-1.19-1.21-1.78-.79-1.2-1.6-2.37-2.34-3.56l-2-3.68c-.24-.46-.62-1.06-.86-1.59l-.76-1.67c-.51-1.12-1-2.23-1.52-3.34l.66-.73.3-.35.14-.18c.05-.06.1-.12.13-.1l.7-.15a.67.67,0,0,0,.19-.05l.31-.14.62-.27c1.09.81,2.18,1.67,3.2,2.31s2.2,1.3,2.53,1.51c1.07.59,2.14,1.15,3.23,1.68,2.19,1,4.39,2,6.6,2.73a103.29,103.29,0,0,0,13.1,3.67,141.62,141.62,0,0,0,23.84,2.8,99.55,99.55,0,0,1-12.95.53,102.54,102.54,0,0,1-15.09-1.5,79.08,79.08,0,0,1-13.94-3.75,55.05,55.05,0,0,1-5.51-2.43c-.41-.2-.8-.39-1.16-.61l-.44-.26h0s0,0,0-.06v0c-.07-.09-.21-.22-.37-.39s-.07.05-.07.13c.1.34-.2-.08,1,2.19.45.83.86,1.68,1.36,2.48l1.52,2.37c.52.78,1,1.59,1.54,2.34l1.69,2.22c.57.73,1.1,1.49,1.71,2.18l1.83,2.06a72.28,72.28,0,0,0,16.56,13.6,58.55,58.55,0,0,0,18.92,7.47l2.44.44,2.44.22,1.21.11,1.21,0c.81,0,1.61,0,2.42,0a89.56,89.56,0,0,0,9.53-1.27,69.3,69.3,0,0,0,17.5-5.68,44.25,44.25,0,0,0,13.87-10.22,35.6,35.6,0,0,0,7.76-14.12,42.63,42.63,0,0,0,1.32-7.7c.05-.64.1-1.28.12-1.92l0-.74v-2s0-.09,0-.1l-.07.08a11.18,11.18,0,0,1-1.13,1.15l-.34.3c-.24.2-.45.42-.7.59l-1.45,1.06a46.33,46.33,0,0,1-6,3.58,71,71,0,0,1-12.2,4.68,100.22,100.22,0,0,1-20,3.43A126.88,126.88,0,0,1,182.67,488.39Z" transform="matrix(-1, 0, 0, 1, 380, 0)" /><path d="M128.59,477.8c.25.1,1.19,1,2.67,2.19.77.57,1.6,1.31,2.62,2l1.54,1.05c.55.35,1.13.68,1.7,1,1.14.73,2.4,1.33,3.62,2s2.51,1.18,3.71,1.71,2.38,1,3.45,1.35l2.86,1a105.34,105.34,0,0,0,18.56,3.75,114.21,114.21,0,0,0,19.24.5,100,100,0,0,0,30.6-6.38c9.09-3.54,16.61-8.68,20.8-14.43-.39.69-.85,1.46-1.35,2.28s-1.2,1.59-1.86,2.45-1.51,1.59-2.29,2.41-1.71,1.49-2.57,2.23a44.84,44.84,0,0,1-9.41,5.67,92.91,92.91,0,0,1-12.38,4,112.82,112.82,0,0,1-12,2.23c-2,.28-3.88.42-5.77.62s-3.78.27-5.62.31c-3.69.1-7.26.12-10.72-.11-13.8-.72-25.74-3.77-35.18-8.57a48.69,48.69,0,0,1-7.52-4.85c-.61-.44-1.14-.95-1.65-1.39s-1-.85-1.39-1.26C129.49,478.72,128.89,478.11,128.59,477.8Z" transform="matrix(-1, 0, 0, 1, 380, 0)" /></svg>