<svg xmlns="http://www.w3.org/2000/svg" id="holiday1" viewBox="0 0 380 600"><defs transform="matrix(-1, 0, 0, 1, 380, 0)"><style>.cls-1{fill:#ffffff;}.cls-2{fill:#ff4500;}.cls-3{fill:#787c7e;}.cls-4{fill:#353535;}.cls-5{fill:#fff;}.cls-6{opacity:0.5;}.cls-7{fill:#fffffe;}.cls-8{fill:#1b2426;}.cls-9{fill:#ffd635;}.cls-10{fill:none;}</style></defs><g id="default" transform="matrix(-1, 0, 0, 1, 380, 0)"><path class="cls-1 color-body" d="M125.09,465.174c5.8,23.743,18.27,52.938,19.509,54.494-3.335,2.573-6.523,8.2-8.277,11.353-2.445,4.392-3.01,9.99-.8,14.507,3.815,7.814,14.166,9.864,22.608,8.131,9.719-2,16.627-7.8,22.451-15.923,4.489-6.264,4.1-13.863,4.542-21.582.415-2.34.386-19.372.381-22.154" style="fill:#ffffff;--backup-fill:#ffffff"></path><path d="M185.561,494c.386.46.657,3.337.839,7.408.091,2.035.159,4.37.2,6.853.011,1.244.022,2.524.032,3.821-.014,1.314.006,2.6-.12,4.032l-.012.154c-.1,3.19-.061,6.448-.27,9.448a37.1,37.1,0,0,1-1.272,7.843,21.224,21.224,0,0,1-1.4,3.6c-.271.6-.629,1.155-.963,1.732-.339.556-.675,1.04-1.017,1.566a49.128,49.128,0,0,1-4.715,5.977,35.163,35.163,0,0,1-13.226,9.085,31.677,31.677,0,0,1-16.47,1.866,23.979,23.979,0,0,1-8.214-2.871,17.772,17.772,0,0,1-6.436-6.437,17.343,17.343,0,0,1-2.33-8.782,20.948,20.948,0,0,1,1.812-8.54c.276-.645.657-1.357.953-1.9l.892-1.579c.608-1.056,1.241-2.111,1.914-3.155s1.384-2.078,2.162-3.1c.387-.509.8-1.015,1.227-1.517l.58-.646.016,0a.222.222,0,0,0,.044-.014l.008-.038v-.014l0,0c0-.009.02.037-.032-.08l-.426-.965-.8-1.9q-.759-1.894-1.508-3.763-1.452-3.741-2.75-7.4c-1.731-4.875-3.28-9.625-4.622-14.212a181.747,181.747,0,0,1-5.679-25.02c2.771,4.383,6.071,10.809,9.048,16.9,2.958,6.094,5.551,11.869,6.454,15.082.95,3.429,1.978,6.777,3.045,10.047q.805,2.451,1.652,4.83.435,1.182.864,2.353l.443,1.151.31.757c.127.315.3.617.39.932,0,.853-.018,1.774.039,2.336a3.848,3.848,0,0,1-.357.968l-.427,1.167c-.383.357-.805.71-1.146,1.062-.205.217-.419.418-.619.649q-.611.668-1.187,1.394c-.77.963-1.5,1.98-2.192,3.019s-1.358,2.1-2,3.181c-.338.562-.619,1.041-.875,1.542a15.855,15.855,0,0,0-.684,1.552c-1.609,4.224-1.24,9.115,1.388,12.434A12.872,12.872,0,0,0,143,550.7a19.845,19.845,0,0,0,6.082,1.717A26.9,26.9,0,0,0,161.268,551a30.356,30.356,0,0,0,10.006-5.917,47.144,47.144,0,0,0,7.375-8.4,20.869,20.869,0,0,0,3.478-9.274c.51-3.332.617-6.766.9-10.168.024-.333.049-.676.086-1.186.01-.081.033-.3.048-.351.12-.774.213-1.793.314-2.82s.207-2.124.314-3.223c.231-2.209.468-4.48.688-6.6C184.942,498.831,185.385,495.226,185.561,494Z"></path></g><g data-name="default" id="default-2" transform="matrix(-1, 0, 0, 1, 380, 0)"><path class="cls-1 color-body" d="M125.09,463.371c9.04,37.246,43.743,55.977,63.789,54.5,18.518-1.37,41.244-8.937,48.759-28.749,2.676-7.054,3.186-15.453,2-25.746" style="fill:#ffffff;--backup-fill:#ffffff"></path><path d="M239.67,463.367a23.523,23.523,0,0,1,.808,4.951,59.335,59.335,0,0,1,.111,10.411,38.47,38.47,0,0,1-2.714,11.776l-1.122,2.624-1.289,2.324c-.208.369-.4.736-.6,1.08l-.662.957-1.18,1.722a41.708,41.708,0,0,1-10.035,9.529,57.756,57.756,0,0,1-12.839,6.488,78.24,78.24,0,0,1-14,3.625l-3.549.513-3.541.364a37.861,37.861,0,0,1-7.229-.169,51.959,51.959,0,0,1-11.9-2.883,67.683,67.683,0,0,1-10.842-5.082,73.85,73.85,0,0,1-24.222-22.792,76.981,76.981,0,0,1-4.917-8.7,70.281,70.281,0,0,1-5.405-16.6,122.873,122.873,0,0,0,8.063,15.834c1.644,2.69,3.425,5.162,4.976,7.3l2.209,2.876c.684.842,1.251,1.6,1.719,2.219a68.1,68.1,0,0,0,27.676,21.573,48.544,48.544,0,0,0,15.644,3.82c.649.033,1.295.032,1.938.049.643,0,1.28-.047,1.917-.068,1.284-.11,2.567-.232,3.832-.367,1.261-.183,2.516-.332,3.751-.54,1.23-.235,2.459-.429,3.661-.7,9.624-2.051,18.282-5.769,24.919-11.1a40.059,40.059,0,0,0,8.31-8.952,39.093,39.093,0,0,0,2.748-5.1,30.2,30.2,0,0,0,1.942-5.26,58.2,58.2,0,0,0,1.858-12.467C239.9,468.331,239.707,464.592,239.67,463.367Z"></path></g><g data-name="default" id="default-3" transform="matrix(-1, 0, 0, 1, 380, 0)"><path class="cls-1 color-body" d="M235.5,491.648a63.409,63.409,0,0,0-26.927,5.575A62.2,62.2,0,0,0,187.5,513c4.568,5.6,4.084,11.914,5.006,18.762C189.5,537,186.5,544,187.1,551.2c.9,10.771,7.485,16.831,17.718,17.24,7.847.315,16.58-3.8,21.823-9.859,6.039-6.977,8.861-14.58,9.651-24.01C236.5,520,237.239,507.763,235.5,491.648Z" style="fill:#ffffff;--backup-fill:#ffffff"></path><path class="cls-1 color-body" d="M187.5,513c4.568,5.6,4.084,11.914,5.006,18.762C189.5,537,186.5,544,187.1,551.2c.9,10.771,7.485,16.831,17.718,17.24,7.847.315,16.58-3.8,21.823-9.859,6.039-6.977,8.861-14.58,9.651-24.01.21-14.57.949-26.807-.788-42.922" style="fill:#ffffff;--backup-fill:#ffffff"></path><path d="M235.563,491.641c.678.579,1.691,6.775,2.154,14.017.5,7.239.47,15.461.734,20.014q.15,3.015.305,6.127c.035,1.068.118,2.12.1,3.241l-.087,1.725-.134,1.665a41.554,41.554,0,0,1-3.526,13.37,39.729,39.729,0,0,1-3.538,6.155c-.683.962-1.393,1.9-2.135,2.807-.381.46-.809.926-1.214,1.386l-1.295,1.3a34.127,34.127,0,0,1-12.184,7.349,29.073,29.073,0,0,1-6.067,1.417,27.478,27.478,0,0,1-6.318.023,25.166,25.166,0,0,1-6.22-1.542,19.548,19.548,0,0,1-5.639-3.433,18.689,18.689,0,0,1-4.131-5.074,22.277,22.277,0,0,1-2.245-5.788,29.2,29.2,0,0,1-.534-2.912c-.086-.966-.214-1.9-.216-2.891a27.451,27.451,0,0,1,.475-5.677,36.32,36.32,0,0,1,3.48-9.875c.378-.738.769-1.459,1.176-2.157.2-.352.406-.7.615-1.037l.155-.255.078-.127a.153.153,0,0,0,.021-.022l.11-.127.112-.135.014-.168a3.119,3.119,0,0,0,0-.637l-.076-2.238a57.616,57.616,0,0,0-.5-7.966,17.531,17.531,0,0,0-2.414-6.461,13.522,13.522,0,0,1,5.347,5.691,40.084,40.084,0,0,1,3,8.721q.136.531.273,1.058l.134.517.066.257c.022.089.04.145.077.335q.192.969.382,1.924c.007.08.051.166.027.24l-.1.216-.205.434-.415.873a10.986,10.986,0,0,0-.5,1.174l-.34.885q-.322.87-.626,1.683c-.776,2.161-1.355,3.953-1.838,5.156a22.185,22.185,0,0,0-1.713,7.369,19.536,19.536,0,0,0,1.026,7.289,13.235,13.235,0,0,0,3.947,5.7,15.437,15.437,0,0,0,6.314,3.017,22.489,22.489,0,0,0,13.836-1.435,26.649,26.649,0,0,0,10.651-7.948,35.228,35.228,0,0,0,6.1-11.033,39.61,39.61,0,0,0,1.462-5.834,49.93,49.93,0,0,0,.655-5.757q.012-2.975.025-5.847.047-2.9.093-5.7.15-5.571.289-10.764c.046-3.284.364-7.768.566-11.74S235.508,492.776,235.563,491.641Z"></path></g><path class="cls-2" d="M125.09,465.674c1.3,5.242,2.722,10.458,4.4,15.593.725,2.219,1.363,4.57,2.218,6.73.78,1.969,2.258,3.292,3.7,4.852a1.109,1.109,0,0,1,.266.387,1.016,1.016,0,0,1-.019.538,6.5,6.5,0,0,1-.967,2.2c-.56.817-1.344,1.606-1.324,2.6a3.511,3.511,0,0,0,1.468,2.316,67.006,67.006,0,0,0,14.178,9.339c3.265,1.722,33.959,18.151,35.816,12.346,2.546-7.958.745-20.141.676-28.068" transform="matrix(-1, 0, 0, 1, 380, 0)"></path><path d="M185.556,494.5c.3.248.522,1.543.785,3.456s.551,4.451.8,7.2.426,5.705.439,8.444a54.756,54.756,0,0,1-.387,7.108l-.073.624a6.991,6.991,0,0,1-.2.813q-.231.853-.466,1.712A3.925,3.925,0,0,1,183.7,525.9a7.954,7.954,0,0,1-1.868.208c-.161,0-.322.008-.485,0l-.424-.02-.7-.049a25.624,25.624,0,0,1-2.639-.4,66.257,66.257,0,0,1-9.784-2.972c-6.327-2.395-12.43-5.261-18.172-8.089A78.429,78.429,0,0,1,135,505.809q-.844-.678-1.656-1.388l-.911-.817a11.015,11.015,0,0,1-1.336-1.411,5.662,5.662,0,0,1-.276-6.849c.167-.265.355-.521.545-.774l.289-.377.046-.062-.042.062.007,0a.322.322,0,0,0,.055-.036.409.409,0,0,0,.106-.126.35.35,0,0,0-.037-.157.16.16,0,0,0-.032-.061l-.336-.392c-.227-.27-.459-.552-.691-.855a13.7,13.7,0,0,1-1.315-2.037,10.606,10.606,0,0,1-.525-1.175c-.154-.406-.229-.663-.338-1-.4-1.26-.7-2.473-.986-3.634q-.415-1.712-.816-3.37-.414-1.7-.764-3.341a118,118,0,0,1-1.919-12.081,72.761,72.761,0,0,1,6.8,11c.523,1,1.024,1.978,1.491,2.923s.913,1.962,1.268,2.822a33.809,33.809,0,0,1,1.448,4.045,5.164,5.164,0,0,0,.9,2.024l.423.6c.036.06.275.335.415.5l.481.572a4.687,4.687,0,0,1,1.231,2.405,5.5,5.5,0,0,1-.542,2.641,9.249,9.249,0,0,1-.633,1.228c-.121.2-.248.388-.383.574l-.206.274c-.019.025-.144.193-.127.163l-.027.023c-.255.189-.634.5-.583.911a1.18,1.18,0,0,0,.224.539c.058.085.122.168.191.252.031.049.28.293.435.451.708.695,1.43,1.371,2.182,2a47.4,47.4,0,0,0,4.685,3.5c3.226,2.127,6.617,3.932,9.885,5.658q4.919,2.562,9.66,4.673c3.157,1.408,6.249,2.674,9.265,3.75a42.042,42.042,0,0,0,8.671,2.312,4.881,4.881,0,0,0,.657.031,2.9,2.9,0,0,0,.512-.057.837.837,0,0,0,.714-.623l.121-.48a2.778,2.778,0,0,0,.065-.287l.1-.493c.145-.648.24-1.313.335-1.975a75.965,75.965,0,0,0,.563-7.916c.034-2.466.245-5.891.488-8.939S185.388,495.351,185.556,494.5Z" transform="matrix(-1, 0, 0, 1, 380, 0)"></path><path class="cls-3" d="M130.8,541.989c-3.491,18.243,20.634,24.8,33.7,16.894,8.276-5.011,29.349-18.677,21.455-29.914" transform="matrix(-1, 0, 0, 1, 380, 0)"></path><path d="M185.992,528.943c.264.026,1.008.688,1.686,2.006a9.121,9.121,0,0,1,.7,5.458,16.527,16.527,0,0,1-2.309,5.863,49.876,49.876,0,0,1-2.9,4.171,52.6,52.6,0,0,1-10.154,9.855c-1.916,1.469-3.9,2.854-5.891,4.163-.516.334-.953.639-1.535.98s-1.136.682-1.727.957a24.6,24.6,0,0,1-3.563,1.458,28.582,28.582,0,0,1-12.8,1.018,25.672,25.672,0,0,1-11.437-4.493,16.9,16.9,0,0,1-6.56-9.265,14.312,14.312,0,0,1-.441-5.007,17.184,17.184,0,0,1,.9-4.279c.745,2.605,1.77,5.894,3.435,8.146a21.588,21.588,0,0,0,2.466,2.86c.816.753,1.484,1.394,1.942,1.884a16.966,16.966,0,0,0,6.823,4.608,23.292,23.292,0,0,0,8.07,1.491,22.4,22.4,0,0,0,7.671-1.25A19.249,19.249,0,0,0,163.706,558c1.071-.64,2.132-1.333,3.151-2.008a84.016,84.016,0,0,0,10.775-8.449,38.835,38.835,0,0,0,7.365-8.8,22.87,22.87,0,0,0,1.18-2.493,11.08,11.08,0,0,0,.65-2.927,9.008,9.008,0,0,0-.289-2.72A15.909,15.909,0,0,0,185.992,528.943Z" transform="matrix(-1, 0, 0, 1, 380, 0)"></path><path class="cls-4" d="M163.072,515.4a31.506,31.506,0,0,1-16.552-3.283,54.443,54.443,0,0,1-6.092-3.637.557.557,0,0,0-.824.68c1.7,3.93,3.3,3.282,3.71,7.181.352,3.346-2.773,6.788-4.593,9.672-3.15,4.994-9.11,12.818-5.905,19.039,3.981,7.729,13.661,12.775,21.841,10.062a62.885,62.885,0,0,0,17.817-8.785c4.674-3.472,10.7-6.667,12.557-12.643.875-2.822.653-5.853.385-8.8-.821-9.019-1.06-12.733-2.578-21.661a24.886,24.886,0,0,1-16.28,11.646A27.256,27.256,0,0,1,163.072,515.4Z" transform="matrix(-1, 0, 0, 1, 380, 0)"></path><path d="M163.069,515.372a13.74,13.74,0,0,1,2.5-.64,23.99,23.99,0,0,0,5.191-1.678,25.611,25.611,0,0,0,6.158-3.817,22.267,22.267,0,0,0,2.85-2.834,24.8,24.8,0,0,0,1.713-2.351c.564-.885,1.118-1.772,1.621-2.636.2-.191.236.556.331.975l.253,1.43c.165.964.329,1.919.491,2.859q.2,1.216.39,2.393c.1.673.2,1.333.3,1.975.379,2.573.658,4.874.891,6.67q.417,3.417.849,6.948a28.965,28.965,0,0,1,.193,7.5,14.611,14.611,0,0,1-3.322,7.3,31.985,31.985,0,0,1-5.8,5.191l-6.071,4.4a55.122,55.122,0,0,1-6.617,3.86,73.865,73.865,0,0,1-6.907,2.984l-1.741.637c-.583.2-1.139.409-1.826.586l-.983.271-1,.169a13.26,13.26,0,0,1-2,.2,8.027,8.027,0,0,1-1.25,0c-.416-.022-.834-.027-1.246-.068a20.449,20.449,0,0,1-2.438-.418,20.848,20.848,0,0,1-4.6-1.645,22.717,22.717,0,0,1-7.511-5.968,19.348,19.348,0,0,1-2.621-4.09,10.236,10.236,0,0,1-.919-5.167,21.237,21.237,0,0,1,3.027-8.819c1.463-2.574,3.053-4.818,4.565-7.129.812-1.179,1.62-2.242,2.317-3.295a12.254,12.254,0,0,0,1.582-3.081,4.066,4.066,0,0,0,.212-1.395,6.414,6.414,0,0,0-.068-.784,7.245,7.245,0,0,0-.152-.745,3.114,3.114,0,0,0-.123-.368.739.739,0,0,0-.041-.1l-.118-.194-.235-.386c-.369-.51-.809-1.033-1.135-1.513a13.988,13.988,0,0,1-1.318-2.348,3.41,3.41,0,0,1-.234-1.627,6.085,6.085,0,0,1,.112-.621,1.483,1.483,0,0,1,.686-.735c.3-.142.377-.046.563-.05l.58.067a4.583,4.583,0,0,1,1.887.634c1.493,1.021,2.932,1.929,4.2,2.635.8.453,1.6.87,2.407,1.247a32.692,32.692,0,0,0,4.876,1.831,30.853,30.853,0,0,0,9.473,1.2,25.161,25.161,0,0,1-9.777.45,30.176,30.176,0,0,1-5.595-1.35c-.916-.307-1.862-.7-2.7-1.066a4.442,4.442,0,0,0-.6-.135c-.1-.012-.159,0-.187.019s-.04.029,0,.195a1.489,1.489,0,0,0,.421.432.368.368,0,0,0,.072.036h.008c.008.016-.022-.066.062.152a7,7,0,0,1,.3.938,10.844,10.844,0,0,1,.274,1.693,7.525,7.525,0,0,1-.067,1.659,13.368,13.368,0,0,1-2.407,5.215c-1,1.437-2.023,2.678-2.889,3.951a69.936,69.936,0,0,0-5.082,7.909c-1.365,2.646-2.275,5.543-1.648,8.153.038.162.066.327.11.486l.185.462a5.242,5.242,0,0,0,.423.932l.514.939.591.891a20.331,20.331,0,0,0,1.3,1.693c.5.5.947,1.06,1.491,1.514,4.118,3.857,9.9,5.815,15.074,4.787a34.081,34.081,0,0,0,3.829-1.2q1.907-.692,3.745-1.462a58.846,58.846,0,0,0,7-3.481c1.1-.649,2.176-1.325,3.2-2.049l3.071-2.232a64.589,64.589,0,0,0,5.82-4.432,15.451,15.451,0,0,0,4.064-5.334,14.18,14.18,0,0,0,.969-6.357c-.095-2.185-.381-4.434-.569-6.621q-.319-3.274-.627-6.438c-.222-2.1-.467-4.157-.747-6.177q-.126-.933-.251-1.848l-.1-.731-.052-.376-.026-.191a1.175,1.175,0,0,0-.089.129l-.141.218a8.691,8.691,0,0,1-.911,1.166l-.356.373c-.192.217-.4.418-.616.622-.416.417-.866.811-1.327,1.2a24.956,24.956,0,0,1-6.139,3.751,25.809,25.809,0,0,1-5.918,1.726C165,515.225,163.706,515.318,163.069,515.372Z" transform="matrix(-1, 0, 0, 1, 380, 0)"></path><path class="cls-5" d="M185.563,514.971q-.859-7.02-1.964-14a25.034,25.034,0,0,1-16.28,12.489,25.369,25.369,0,0,1-3.485.563,29.72,29.72,0,0,1-16.553-3.52c-1.562-.832-5.716-3.191-7.713-5.422-1.045-1.166-3.687,2.054-3.163,3.57.644,1.861,3.16,4.673,3.745,6.514a7.064,7.064,0,0,0,2.5,3.659C154.132,527.108,176.435,525.6,185.563,514.971Z" transform="matrix(-1, 0, 0, 1, 380, 0)"></path><path d="M185.586,514.99a3.959,3.959,0,0,1-.676.981,11.2,11.2,0,0,1-1.767,1.826l-1.28,1.082-1.568,1.035-.845.547-.924.472c-.631.308-1.263.671-1.941.953a40.686,40.686,0,0,1-8.565,2.525,52.4,52.4,0,0,1-7.3.679,34.087,34.087,0,0,1-15.482-2.967l-.948-.436c-.313-.153-.606-.353-.91-.529-.61-.375-1.189-.7-1.826-1.125a8.591,8.591,0,0,1-2.864-3.893l-.186-.506a3.254,3.254,0,0,0-.131-.3c-.1-.215-.243-.462-.391-.709-.3-.5-.66-1.019-1.027-1.551s-.753-1.083-1.134-1.673c-.19-.3-.379-.6-.564-.936-.093-.163-.184-.337-.273-.525a7.054,7.054,0,0,1-.293-.689,4.053,4.053,0,0,1,.2-2.805,6.415,6.415,0,0,1,.507-.981c.1-.148.189-.3.3-.441a5.51,5.51,0,0,1,.4-.487,4.378,4.378,0,0,1,2.4-1.512,2.456,2.456,0,0,1,1.35.078l.307.112c.1.06.187.138.281.2l.56.422c.191.207.473.481.589.582.093.09.2.177.3.264.2.175.415.342.624.508.427.329.861.644,1.311.947a45.7,45.7,0,0,0,5.167,3,30.4,30.4,0,0,0,5.441,2.045,26.772,26.772,0,0,0,11.171.66,24.3,24.3,0,0,0,13.669-7.311c.073-.075.147-.148.213-.228l.259-.3c.246-.282.488-.576.724-.9.476-.621.917-1.388,1.364-2.05s.887-1.458,1.315-2.152l1.178-1.967.076.261.039.128.026.216.1.878q.1.859.2,1.71.186,1.639.367,3.237.155,1.442.307,2.845.081.936.161,1.845.312,3.635.528,6.834c-.713-1.8-1.455-4.082-2.162-6.528-.173-.614-.348-1.236-.523-1.861l-.065-.236c-.018-.061-.032-.086-.048-.129l-.091-.216c-.059-.135-.114-.252-.166-.352a1.612,1.612,0,0,0-.269-.406.305.305,0,0,0-.106-.071.162.162,0,0,0-.047-.007c-.013-.01-.051.122-.073.169-.162.439-.254.706-.3.869-.024.088-.019.126-.038.19-.006.013.006,0-.014.033l-.111.15c-.072.1-.148.2-.227.288l-.459.55a18.042,18.042,0,0,1-3.378,3.11,27.784,27.784,0,0,1-10.587,4.39,29.279,29.279,0,0,1-10.706-.07,33.245,33.245,0,0,1-9.485-3.346c-1.442-.765-2.8-1.59-4.123-2.461-.659-.439-1.3-.894-1.93-1.376-.314-.238-.621-.49-.923-.747s-.642-.574-.758-.691a2.8,2.8,0,0,0-.354-.344.563.563,0,0,0-.475-.011,2.008,2.008,0,0,0-.759.6,4.209,4.209,0,0,0-.672,1.11,1.31,1.31,0,0,0-.1.99,7.7,7.7,0,0,0,.6,1.171c.248.408.514.814.791,1.221.549.816,1.128,1.621,1.652,2.509a8.037,8.037,0,0,1,.707,1.462,8.293,8.293,0,0,0,.508,1.208A5.735,5.735,0,0,0,143,517.962a26.489,26.489,0,0,0,9.566,4.076,43.323,43.323,0,0,0,18.8-.151,37.787,37.787,0,0,0,8.677-3.052,27.392,27.392,0,0,0,3.594-2.2Z" transform="matrix(-1, 0, 0, 1, 380, 0)"></path><g class="cls-6" transform="matrix(-1, 0, 0, 1, 380, 0)"><path class="cls-7" d="M166.549,535.728c.276.594-2.062,2.435-2.77,3.406a23.646,23.646,0,0,1-4.732,4.535,21.071,21.071,0,0,1-4.6,2.748,15.089,15.089,0,0,1-2.369.815,4.181,4.181,0,0,1-2.483-.083,10.31,10.31,0,0,0,1.338-2.368c.32-.677.8-1.242,1.187-1.3a15.085,15.085,0,0,0,7.112-3.26,44.021,44.021,0,0,1,4.684-3.729A8.321,8.321,0,0,1,166.549,535.728Z"></path></g><path class="cls-2" d="M239.64,463.871s-22.14,22.629-64.388,20c-44.128-2.747-50.162-20-50.162-20,9.04,37.246,43.743,55.977,63.788,54.5,18.519-1.37,41.246-8.937,48.76-28.749C240.313,482.563,240.824,474.164,239.64,463.871Z" transform="matrix(-1, 0, 0, 1, 380, 0)"></path><path d="M239.67,463.867a44.949,44.949,0,0,1,.952,8.521A45.683,45.683,0,0,1,238.138,490q-.508,1.174-1.024,2.367c-.176.4-.337.8-.527,1.191l-.647,1.138c-.438.757-.855,1.532-1.316,2.278l-1.538,2.142a18.247,18.247,0,0,1-1.66,2.034c-.59.643-1.127,1.334-1.755,1.927a43.392,43.392,0,0,1-3.818,3.374,56.58,56.58,0,0,1-14.758,8.26,80.238,80.238,0,0,1-11.076,3.34,88.678,88.678,0,0,1-11.792,1.73c-8.293.446-16.467-1.915-23.971-5.355a75,75,0,0,1-41.1-50.085l3.815-1.127.146.3a3.329,3.329,0,0,0,.216.4,7.866,7.866,0,0,0,.515.819,16.232,16.232,0,0,0,1.236,1.6c.426.528.957.994,1.426,1.5.5.485,1.054.918,1.575,1.381s1.13.843,1.686,1.271a16.3,16.3,0,0,0,1.762,1.181l1.82,1.1c.624.342,1.272.647,1.905.973a73.639,73.639,0,0,0,16.129,5.516c2.782.551,5.527,1.176,8.313,1.511l4.141.593,4.135.389c1.372.111,2.739.3,4.095.347l4.048.147c2.687.183,5.338.008,7.961-.062l1.961-.063,1.938-.2,3.84-.385c1.277-.1,2.515-.394,3.761-.578,1.24-.223,2.485-.385,3.7-.651l3.6-.848c.595-.144,1.192-.271,1.778-.426l1.734-.525,3.429-1.037,3.3-1.215a81.72,81.72,0,0,0,12.125-5.733,61.162,61.162,0,0,0,9.99-7.049,52.712,52.712,0,0,1-10.669,9.168,78.93,78.93,0,0,1-14.7,7.657l-3.9,1.423c-1.29.462-2.6.781-3.872,1.163a74.421,74.421,0,0,1-7.358,1.727c-.581.114-1.149.243-1.71.335l-1.655.213-3.072.375a39.475,39.475,0,0,1-5.021.315c-1.552.017-3.1.075-4.631.06l-4.581-.235c-3.048-.075-6.014-.511-8.971-.8-1.478-.13-2.942-.365-4.4-.605l-4.345-.687-4.271-.909-2.118-.453-2.082-.578c-1.38-.4-2.774-.719-4.12-1.192l-4.019-1.4-3.885-1.653c-1.266-.6-2.494-1.273-3.731-1.9a39.9,39.9,0,0,1-6.756-4.79,16.415,16.415,0,0,1-1.484-1.43l-.714-.742-.653-.8a14.132,14.132,0,0,1-2.226-3.582l1.624-.48a71.134,71.134,0,0,0,18.858,33.9,73.527,73.527,0,0,0,14.348,11.243,64.4,64.4,0,0,0,15.861,6.914,46.764,46.764,0,0,0,8.153,1.541,36,36,0,0,0,8.052-.169,82.732,82.732,0,0,0,15.4-3.088c9.725-2.981,18.472-7.885,24.347-14.913a38.013,38.013,0,0,0,8.454-19.45A78.208,78.208,0,0,0,239.67,463.867Z" transform="matrix(-1, 0, 0, 1, 380, 0)"></path><g data-name="default" id="default-4" transform="matrix(-1, 0, 0, 1, 380, 0)"><ellipse class="cls-1 color-body" cx="182.666" cy="463" rx="57.576" ry="25.423" style="fill:#ffffff;--backup-fill:#ffffff"></ellipse><path d="M240.211,463c-.114-.271-.144-1.126-.47-2.383a14.723,14.723,0,0,0-2.181-4.591c-2.335-3.468-6.908-6.866-12.274-9.432a75.9,75.9,0,0,0-17.249-5.618,102.7,102.7,0,0,0-14.759-1.964,135.987,135.987,0,0,0-20.584.343,109.734,109.734,0,0,0-20.919,3.9,69.213,69.213,0,0,0-9.97,3.745,40.718,40.718,0,0,0-8.837,5.466,16.685,16.685,0,0,0-5.575,7.735,10.262,10.262,0,0,0,1.424,8.555,22.216,22.216,0,0,0,5.861,5.89,45.647,45.647,0,0,0,7.546,4.254,80.68,80.68,0,0,0,16.634,5.217,127.607,127.607,0,0,0,33.621,2.16c10.8-.726,21.043-2.714,29.867-6.26a41.746,41.746,0,0,0,11.673-6.8,18.979,18.979,0,0,0,3.987-4.717A12.042,12.042,0,0,0,239.673,463a11.351,11.351,0,0,1-.855,5.665,18.9,18.9,0,0,1-3.8,5.7,40.971,40.971,0,0,1-12.386,8.469,77.106,77.106,0,0,1-23.558,6.506,131.781,131.781,0,0,1-14.729.629,134.891,134.891,0,0,1-14.228-.889,101.833,101.833,0,0,1-26.391-6.39,49.651,49.651,0,0,1-11.4-6.334,26.141,26.141,0,0,1-4.635-4.491,15.9,15.9,0,0,1-2.952-5.73,12.105,12.105,0,0,1,.04-6.4,15.806,15.806,0,0,1,2.875-5.539,31.321,31.321,0,0,1,9.217-7.53,61.831,61.831,0,0,1,10.449-4.645,89.063,89.063,0,0,1,10.632-2.939,118.5,118.5,0,0,1,20.785-2.5,123.865,123.865,0,0,1,19.548.826,95.8,95.8,0,0,1,17.875,3.854c5.324,1.679,12.5,4.809,17.609,9.321a26.265,26.265,0,0,1,3.327,3.531,18.324,18.324,0,0,1,2.135,3.632A12.689,12.689,0,0,1,240.211,463Z"></path></g><path d="M170.132,501.5c.079.086.058.41-.215.787a2.579,2.579,0,0,1-1.419.912,3.822,3.822,0,0,1-1.972,0,6.578,6.578,0,0,1-1.49-.669c-2.521-1.59-3.83-4.471-4.862-6.933a27.456,27.456,0,0,1-1.965-12.01c1.444,1.112,2.8,3.392,2.8,4.31a20.594,20.594,0,0,0,2.055,9.381,15.134,15.134,0,0,0,2.1,3.2,4.5,4.5,0,0,0,2.342,1.559,4.021,4.021,0,0,0,1.509.059A2.146,2.146,0,0,0,170.132,501.5Z" transform="matrix(-1, 0, 0, 1, 380, 0)"></path><path class="cls-8" d="M240.149,476.561a78,78,0,0,0-.509-12.69s-22.14,22.629-64.388,20c-44.128-2.747-50.162-20-50.162-20a72.959,72.959,0,0,0,6.616,17.3c6.066,5.265,18.935,12.125,45.487,13.778C212.5,497.15,233.864,481.862,240.149,476.561Z" transform="matrix(-1, 0, 0, 1, 380, 0)"></path><path d="M240.168,476.584a34.444,34.444,0,0,1-6.018,4.875A79.294,79.294,0,0,1,220,489.045a89.625,89.625,0,0,1-17.784,5.267c-1.453.341-2.905.475-4.289.714l-2.044.314c-.669.088-1.329.135-1.969.2l-3.638.36c-1.138.1-2.2.111-3.164.17a120.045,120.045,0,0,1-18.75-.558,106.771,106.771,0,0,1-19.217-3.628c-6.323-1.94-12.648-4.563-18-8.893l-.666-.544a1,1,0,0,1-.336-.452l-.23-.433-.58-1.1c-.382-.737-.747-1.482-1.1-2.232q-1.065-2.248-1.974-4.553a74.386,74.386,0,0,1-2.992-9.361l3.605-1.066.162.332a3.967,3.967,0,0,0,.235.422,7.339,7.339,0,0,0,.549.855,18.086,18.086,0,0,0,1.288,1.635c.461.523.984,1,1.465,1.5l1.6,1.372a47.742,47.742,0,0,0,13.746,7.161,95.391,95.391,0,0,0,15.2,3.774l3.858.543c1.284.169,2.554.4,3.843.485l3.84.346c1.275.1,2.548.279,3.809.283l3.773.124c1.252.02,2.5.141,3.739.053l3.7-.133c1.228-.045,2.453-.057,3.658-.22a95.333,95.333,0,0,0,26.907-6.243,90.512,90.512,0,0,0,11.282-5.536c1.722-1.042,3.389-2.092,4.955-3.2.4-.265.777-.558,1.157-.841l.6-.451c.295-.224.572-.441.85-.68,1.1-.958,2.179-1.9,3.184-2.849.105.014.111.327.136.576s.049.5.072.744q.068.728.132,1.424.126,1.386.206,2.655c.017.336.033.665.049.989.011.291.021.576.031.857q.016.841.031,1.628c.015,2.1-.061,3.948-.207,5.734-.12-1.833-.307-3.863-.583-6.025q-.111-.808-.224-1.645c-.08-.544-.169-1.161-.249-1.6l-.252-1.306-.127-.579-.063-.27-.032-.131c-.014-.032-.077.075-.113.105-.5.562-.972,1.043-1.386,1.471-.282.308-1.1,1.04-1.794,1.636l-2.2,1.785-2.288,1.691c-.769.558-1.574,1.057-2.36,1.584s-1.581,1.033-2.4,1.488l-2.407,1.393c-.805.44-1.624.83-2.421,1.236s-1.584.806-2.37,1.162l-2.337.988-2.234.929-2.154.738c-1.4.452-2.675.93-3.866,1.229s-2.257.553-3.172.757a107.2,107.2,0,0,1-23.638,2.2l-5.726-.266c-.95-.022-1.886-.124-2.82-.226l-2.79-.288c-1.854-.189-3.7-.353-5.512-.672-1.817-.29-3.627-.528-5.411-.852a86.588,86.588,0,0,1-20.244-6.091,48.543,48.543,0,0,1-8.717-5.246,21.519,21.519,0,0,1-6.468-7.659l1.467-.434a71.047,71.047,0,0,0,4.733,13.432c.491,1.055,1.013,2.088,1.551,3.106l.168.316a.4.4,0,0,0,.165.2l.61.5c.427.367.9.681,1.346,1.02a43.556,43.556,0,0,0,5.745,3.432c7.99,3.9,16.458,5.768,24.557,6.95a131.9,131.9,0,0,0,23.523,1.295,102.348,102.348,0,0,0,21.335-3.128,97.039,97.039,0,0,0,18.422-6.785A74.711,74.711,0,0,0,240.168,476.584Z" transform="matrix(-1, 0, 0, 1, 380, 0)"></path><path class="cls-2" d="M179.881,485.211c-.309,3.567,2.7,12.146,2.7,12.146l6.354-.647c-.73-2.61-.519-8.889-1.248-11.5" transform="matrix(-1, 0, 0, 1, 380, 0)"></path><path d="M187.718,485.2c.318.032.729,1.214.943,2.576.232,1.362.386,2.9.6,3.745.205.788.377,1.608.554,2.422q.177.807.356,1.63c.169.78.44,1.647.66,2.475-.621.112-1.322.194-2.009.292l-1.919.258-2.227.332-.574.08-1.012.12-1.011.107-.5.05-.252.024a1.655,1.655,0,0,1-.09-.229c-.222-.633-.449-1.261-.656-1.9l-.266-.822-.147-.489a34.357,34.357,0,0,1-.9-3.855,15.38,15.38,0,0,1,.084-6.852c.69.931,1.456,1.914,2.053,2.894a5.837,5.837,0,0,1,1.018,2.44,23,23,0,0,0,.275,3.645q.075.435.148.86l.084.422.043.209.017.121c.02.15.048.309.081.472l.055.248c.04.051.137.016.2.027.432.015,1.734-.1,2.69-.212l.747-.089.482-.07a2.574,2.574,0,0,0,.732-.17c-.071-.213-.127-.417-.177-.609l-.066-.277c-.012-.066-.017-.049-.032-.152l-.041-.262c-.113-.7-.19-1.359-.258-2a29.384,29.384,0,0,1-.158-3.591C187.256,487.837,187.719,485.678,187.718,485.2Z" transform="matrix(-1, 0, 0, 1, 380, 0)"></path><path class="cls-2" d="M215.27,480.086c.313,2.769,1.241,10.481,1.241,10.481L220.5,488.5s1.681-7.492.062-11.62" transform="matrix(-1, 0, 0, 1, 380, 0)"></path><path d="M220.589,476.869c.3-.012.828.973,1.079,2.2.282,1.22.355,2.62.5,3.4a18.206,18.206,0,0,1,.175,4.381l-.047.561-.028.281-.043.351-.168,1-.092.5c-.09.124-.273.179-.405.272l-1.429.815-.466.272-.9.494-3.183,1.715-.4.21a1.339,1.339,0,0,1-.193.093l-.027-.22-.1-.884q-.1-.885-.2-1.762t-.176-1.734l-.071-.772-.027-.428c-.032-.568-.053-1.127-.063-1.674a28.419,28.419,0,0,1,.42-5.8c1.681,1.228,3.065,3.8,2.912,4.792s-.247,1.988-.3,2.862a4.587,4.587,0,0,0-.145,1.476,8.768,8.768,0,0,0,1.277-.531l.97-.507c.2-.122.466-.191.429-.471q.054-.454.107-.9.049-.537.1-1.057c.047-.693.082-1.363.1-2.007.038-1.29.038-2.471.087-3.569-.006-.52.119-1.241.187-1.9C220.561,477.679,220.556,477.086,220.589,476.869Z" transform="matrix(-1, 0, 0, 1, 380, 0)"></path><path class="cls-2" d="M142.743,477.727c-.243,3.773.757,7.773,2.965,12.417-7.208-1.644-6.952-3.561-10-15.671" transform="matrix(-1, 0, 0, 1, 380, 0)"></path><path d="M135.733,474.466c.634.113,1.756,4.834,2.546,6.529a43.692,43.692,0,0,0,2.147,4.4,5.452,5.452,0,0,0,1.369,1.467c.775.48.607.314.661.3a.071.071,0,0,0-.021-.077c.006,0,.053.042.091-.026a1.263,1.263,0,0,0-.043-.154l-.064-.219-.12-.438c-.074-.292-.151-.58-.21-.872-.128-.579-.229-1.153-.3-1.719a13.974,13.974,0,0,1,.429-5.973,26.928,26.928,0,0,1,1.93,3.221,7.667,7.667,0,0,1,1,2.6,13.774,13.774,0,0,0,.107,1.58c.03.26.066.518.112.773l.036.2.085.33.185.626c.48,1.621,1.039,3.032,1.5,4.233-.068.018-.132.039-.193.061-.123-.024-.29-.083-.43-.121l-.854-.249-1.583-.467a17.012,17.012,0,0,1-2.9-1.142,7.941,7.941,0,0,1-3.18-3.453,26.355,26.355,0,0,1-2.236-7.146A19.481,19.481,0,0,1,135.733,474.466Z" transform="matrix(-1, 0, 0, 1, 380, 0)"></path><path class="cls-9" d="M167.318,478.793l-9.791-1.528a5.165,5.165,0,0,0-5.807,6.359l1.561,6.229a8.864,8.864,0,0,0,7.284,6.612l9.473,1.421a5.165,5.165,0,0,0,5.826-6.15l-1.229-5.971A8.865,8.865,0,0,0,167.318,478.793Zm-9.326,10.94-.948-3.537a3.24,3.24,0,0,1,3.6-4.046l6.306.919a3.24,3.24,0,0,1,2.7,2.509l.766,3.475a3.241,3.241,0,0,1-3.614,3.907l-6.123-.858A3.24,3.24,0,0,1,157.992,489.733Z" transform="matrix(-1, 0, 0, 1, 380, 0)"></path><path class="cls-10" d="M167.318,478.793l-9.791-1.528a5.165,5.165,0,0,0-5.807,6.359l1.561,6.229a8.864,8.864,0,0,0,7.284,6.612l9.473,1.421a5.165,5.165,0,0,0,5.826-6.15l-1.229-5.971A8.865,8.865,0,0,0,167.318,478.793Zm-9.326,10.94-.948-3.537a3.24,3.24,0,0,1,3.6-4.046l6.306.919a3.24,3.24,0,0,1,2.7,2.509l.766,3.475a3.241,3.241,0,0,1-3.614,3.907l-6.123-.858A3.24,3.24,0,0,1,157.992,489.733Z" transform="matrix(-1, 0, 0, 1, 380, 0)"></path><path d="M158.007,489.729c.106.052.247.456.628.916a3.154,3.154,0,0,0,1.821,1.1c1.72.209,3.779.436,4.9.507l1.521.1a2.7,2.7,0,0,0,1.224-.208,2.547,2.547,0,0,0,1.495-1.828,2.636,2.636,0,0,0-.06-1.221c-.129-.524-.257-1.048-.384-1.568l-.375-1.552a2.862,2.862,0,0,0-.184-.59,2.115,2.115,0,0,0-.283-.468,2.325,2.325,0,0,0-1.642-.889l-2.628-.388-2.558-.413-.626-.106c-.217-.04-.416-.071-.545-.082a2.213,2.213,0,0,0-.881.073,2.542,2.542,0,0,0-1.808,2.69c.219,1.319.488,2.7.648,3.849a14.939,14.939,0,0,1-1.034-1.667c-.172-.317-.342-.647-.506-.983a6.942,6.942,0,0,1-.467-1.105,3.749,3.749,0,0,1,.226-2.553,3.455,3.455,0,0,1,1.276-1.456,4.175,4.175,0,0,1,2.644-.549c.473.059.733.15,1.1.221l1.017.218q2.021.426,3.927.759a4.664,4.664,0,0,1,1.957.642,3.716,3.716,0,0,1,1.348,1.534,4.134,4.134,0,0,1,.3.939c.066.29.13.579.194.865l.39,1.687q.1.418.192.831a3.848,3.848,0,0,1,.079.932,3.676,3.676,0,0,1-.53,1.748,3.723,3.723,0,0,1-2.916,1.788,4.225,4.225,0,0,1-.841-.027l-.72-.092-1.4-.19c-.919-.13-1.8-.268-2.655-.421-.413-.069-.864-.155-1.4-.285a3.4,3.4,0,0,1-1.467-.821A3.19,3.19,0,0,1,158.007,489.729Z" transform="matrix(-1, 0, 0, 1, 380, 0)"></path><path d="M167.321,478.778a5.013,5.013,0,0,1,2.071.391,8.775,8.775,0,0,1,3.6,2.512,9.617,9.617,0,0,1,2.15,4.6c.35,1.555.673,2.961.925,3.962q.165.664.333,1.338l.137.755c.014.258.034.52.032.782a5.8,5.8,0,0,1-.971,3.024,5.912,5.912,0,0,1-5.812,2.538l-5.852-.794-2.888-.4c-.459-.062-.982-.135-1.5-.257a9.536,9.536,0,0,1-1.5-.485,9.76,9.76,0,0,1-4.223-3.365,9.635,9.635,0,0,1-1.238-2.405c-.3-.891-.446-1.638-.648-2.42l-1.112-4.6a6.108,6.108,0,0,1,.987-5.092,6.033,6.033,0,0,1,4.272-2.4,8.3,8.3,0,0,1,2.259.21l1.972.38c2.579.5,4.951,1,7.053,1.462a66.263,66.263,0,0,1-7.484-.161,24.984,24.984,0,0,0-3.536-.172,5.273,5.273,0,0,0-2.055.8,4.212,4.212,0,0,0-1.863,2.6,4.073,4.073,0,0,0-.068,1.635c.077.556.247,1.224.366,1.822q.4,1.844.794,3.62c.133.595.262,1.191.417,1.722a8.545,8.545,0,0,0,.667,1.548,8.3,8.3,0,0,0,5,3.944,32.027,32.027,0,0,0,3.169.545l3.129.451,3.029.426a7.707,7.707,0,0,0,2.784.105,4.729,4.729,0,0,0,3.545-3.3,4.871,4.871,0,0,0,.042-2.384l-.528-2.53q-.249-1.245-.491-2.448a13.508,13.508,0,0,0-.558-2.248,9.2,9.2,0,0,0-2.983-4.064A9.3,9.3,0,0,0,167.321,478.778Z" transform="matrix(-1, 0, 0, 1, 380, 0)"></path><path class="cls-9" d="M161.14,487.076l.057.269a2.157,2.157,0,0,1-2.513,2.568l-2.772-.528a2.158,2.158,0,0,1-1.724-1.764h0a2.157,2.157,0,0,1,2.332-2.5l2.715.258A2.158,2.158,0,0,1,161.14,487.076Z" transform="matrix(-1, 0, 0, 1, 380, 0)"></path><path d="M161.125,487.079c-.159-.04-.4-.746-1.084-1.1a2.114,2.114,0,0,0-1.114-.235c-.422-.011-.8-.014-1.08,0-.472.038-1.023.042-1.467.064a1.456,1.456,0,0,0-.894.416,1.288,1.288,0,0,0-.194,1.648,1.268,1.268,0,0,0,.538.446,1.576,1.576,0,0,0,.385.107l.625.126,1.222.272c.381.088.859.221,1.02.244a1.509,1.509,0,0,0,1.3-.49,1.945,1.945,0,0,0,.476-1.442,1.848,1.848,0,0,1,.655.86,2.069,2.069,0,0,1-.02,1.351,2.252,2.252,0,0,1-1.785,1.521,3.483,3.483,0,0,1-.756-.046,3.52,3.52,0,0,1-.617-.178l-.963-.337-.942-.291c-.313-.1-.6-.148-.976-.291a2.726,2.726,0,0,1-1.487-1.481A2.642,2.642,0,0,1,155.2,484.9a2.487,2.487,0,0,1,.882-.273,2.765,2.765,0,0,1,.454-.019l.369.019c.478.028.941.061,1.386.105l.656.074.318.046a2.7,2.7,0,0,1,.378.084,2.107,2.107,0,0,1,1.269,1.061A1.948,1.948,0,0,1,161.125,487.079Z" transform="matrix(-1, 0, 0, 1, 380, 0)"></path><path class="cls-2" d="M187.93,513.4c2.295,1.713,6.691,10.959,7.255,13.767.613,3.056,8.081-1.387,9.5-1.916,4.621-1.722,11.414-.609,16.313-.69a13.839,13.839,0,0,0,3.828-.423c2.451-.75,6.4-3.53,7.357-6a25.865,25.865,0,0,0,.494-3.3A32.415,32.415,0,0,1,235.2,509a37.661,37.661,0,0,0,2.861-8.923,1.645,1.645,0,0,0,.02-.757,1.691,1.691,0,0,0-.588-.746l-3.167-2.734" transform="matrix(-1, 0, 0, 1, 380, 0)"></path><path d="M234.366,495.8c.258-.092.842.164,1.64.651.419.261.806.5,1.39.928.3.218.624.45.93.717a2.229,2.229,0,0,1,.737.992,4.926,4.926,0,0,1-.052,1.912c-.116.743-.2,1.2-.313,1.778-.221,1.107-.5,2.224-.812,3.291-.606,2.123-1.4,4.1-1.843,5.381a23.779,23.779,0,0,0-.963,3.4,5.577,5.577,0,0,0-.059,1.456,7.9,7.9,0,0,1-.329,2.815,9.516,9.516,0,0,1-1.541,2.752,16.209,16.209,0,0,1-1.864,1.982,17.956,17.956,0,0,1-4.483,3,11.211,11.211,0,0,1-2.983.881,25.29,25.29,0,0,1-2.585.233c-1.627.086-3.173.055-4.621.038-2.119-.031-4.131-.088-6-.022-.93.035-1.812.109-2.636.22-.4.067-.8.127-1.156.219a4.248,4.248,0,0,0-.524.137l-.375.108-2.668,1.187c-.49.208-.991.41-1.508.6l-.791.279-.409.131c-.191.067-.434.134-.651.2a7.668,7.668,0,0,1-5.03.081,4.047,4.047,0,0,1-1.82-1.408,6.561,6.561,0,0,1-.532-.991,9.464,9.464,0,0,1-.359-1.19c-.068-.318-.147-.623-.241-.925l-.064-.213-.028-.111-.057-.222q-.129-.458-.257-.907-.286-.917-.565-1.807c-.39-1.191-.787-2.35-1.186-3.458s-.8-2.162-1.208-3.151a16.807,16.807,0,0,0-1.249-2.522,3.454,3.454,0,0,1,1.684.349,11.13,11.13,0,0,1,1.812,1,20.608,20.608,0,0,1,3.355,2.856,23.6,23.6,0,0,1,2.646,3.282,16.536,16.536,0,0,1,.94,1.618c.133.256.252.519.356.778.037.1.022.04.028.052l0,0h0a.356.356,0,0,0-.066.061.434.434,0,0,0-.045.58.592.592,0,0,0,.272.166l.092.025c.015.014.08.008.2-.017.207-.041.416-.084.628-.137a26.151,26.151,0,0,0,2.593-.791l1.348-.491c.241-.086.484-.184.846-.293l.8-.193a25.173,25.173,0,0,1,5.911-.424c1.849.053,3.609.189,5.308.3s3.335.207,4.886.178a9.694,9.694,0,0,0,4.117-.675A14.052,14.052,0,0,0,228.4,520.2a7.427,7.427,0,0,0,2.079-2.707,6.41,6.41,0,0,0,.133-1.449,11.293,11.293,0,0,1,.087-1.157,9.6,9.6,0,0,1,.26-1.205,21.95,21.95,0,0,1,1.544-3.824c1.1-2.164,1.948-4.135,2.738-6.15.222-.63.514-1.348.825-2.115.077-.181.161-.412.231-.56l.192-.373a3.307,3.307,0,0,0,.357-.884c.019-.441-.282-.724-.486-1.1-.2-.333-.582-.826-.839-1.2C234.963,496.7,234.549,496.088,234.366,495.8Z" transform="matrix(-1, 0, 0, 1, 380, 0)"></path><path d="M236.406,495.255c.127.316-.766,1.6-2.053,2.856a45.539,45.539,0,0,1-3.815,3.235,20.758,20.758,0,0,1-12.279,4.63,14.582,14.582,0,0,1-5.835-.921,12.829,12.829,0,0,1-4.75-3.154,13.489,13.489,0,0,1-3.568-8.265c1.129.771,2.255,1.916,3.322,2.814a13.985,13.985,0,0,1,2.229,2.182,9.01,9.01,0,0,0,5.719,4.256,13.8,13.8,0,0,0,6.743-.078c4.195-1.066,7.319-3.235,10.038-5,.628-.454,1.582-.966,2.417-1.468Z" transform="matrix(-1, 0, 0, 1, 380, 0)"></path><path d="M131.446,488.131a.65.65,0,0,1,.519.15c.175.131.374.308.617.479a4.435,4.435,0,0,0,.721.5,1.791,1.791,0,0,0,.678.278,33.4,33.4,0,0,0,3.779.677,11.032,11.032,0,0,0,2.049-.111c.488-.026,1.117-.608,1.737-1.333a3.159,3.159,0,0,1,1.024.788,3.444,3.444,0,0,1,.386.537,3.147,3.147,0,0,1,.186.608,1.859,1.859,0,0,1-.558,1.917,12.387,12.387,0,0,1-1.2.454c-.385.073-.75.11-1.086.154a9.619,9.619,0,0,1-1.77-.124,23.255,23.255,0,0,1-2.766-.6c-1.649-.455-3.187-1.04-4-2.223a2.469,2.469,0,0,1-.388-1.187A3.633,3.633,0,0,1,131.446,488.131Z" transform="matrix(-1, 0, 0, 1, 380, 0)"></path><path class="cls-3" d="M185.679,547.991c-9.682,28.744,16.944,32.375,31.949,26.589,8.963-3.456,12.343-11.533,15.871-19.728,3.739-7.751,8.432-18.8,1.014-25.738" transform="matrix(-1, 0, 0, 1, 380, 0)"></path><path d="M234.544,529.08a2.133,2.133,0,0,1,.907.52,8.447,8.447,0,0,1,.744.636l.79.952a12.515,12.515,0,0,1,2.32,6.331,23.611,23.611,0,0,1-.7,7.706c-.578,2.4-1.319,4.484-1.8,5.99-.43,1.318-.935,2.676-1.44,3.954q-.728,1.976-1.47,4a47.8,47.8,0,0,1-3.941,8.247,24.673,24.673,0,0,1-6.589,7.2,22.908,22.908,0,0,1-4.309,2.416,32.88,32.88,0,0,1-4.407,1.527,36.229,36.229,0,0,1-15.7.859,26.145,26.145,0,0,1-7.506-2.471,18.409,18.409,0,0,1-6.12-4.98,17.1,17.1,0,0,1-3.218-6.777,20.1,20.1,0,0,1-.377-6.723,31.946,31.946,0,0,1,3.152-10.743c.078.8.126,1.663.148,2.564s.107,1.864.125,2.824a48.754,48.754,0,0,0,.623,5.76,23.4,23.4,0,0,0,1.3,4.781c.211.679.544,1.223.726,1.758a13.2,13.2,0,0,1,.6,1.311,13.118,13.118,0,0,0,7.028,6.765,25.138,25.138,0,0,0,10.035,2.07,32.071,32.071,0,0,0,9.768-1.37,19.066,19.066,0,0,0,7.883-4.368,25.332,25.332,0,0,0,5.053-6.879c1.3-2.5,2.349-5.032,3.376-7.552.5-1.287,1.112-2.512,1.612-3.682.523-1.177,1-2.335,1.451-3.477a42.178,42.178,0,0,0,2.061-6.679,18.886,18.886,0,0,0,.232-7.381l-.084-.468c-.049-.148-.1-.294-.143-.439l-.278-.858c-.19-.556-.479-1.025-.683-1.486C235.229,530.039,234.74,529.424,234.544,529.08Z" transform="matrix(-1, 0, 0, 1, 380, 0)"></path><path class="cls-4" d="M237.065,526.894c.108-1.207.223-2.411.355-3.608.691-6.279,1.352-12.828-.847-18.75.742,2.838-.684,12.676-5.725,16.2-10.719,7.5-28.3,5.17-39.3-.007,1.705,3.365,1.465,9.483,1.465,9.483s-3.565,9.826-4.8,15.227c-1.4,6.1-2.239,13.784.674,19.611,2.945,5.89,25.032,7.117,31.658,1.718,1.864,0,5.826-5.828,6.851-7.2a45.3,45.3,0,0,0,5.571-9.837C235.946,542.528,236.371,534.637,237.065,526.894Z" transform="matrix(-1, 0, 0, 1, 380, 0)"></path><path d="M237.1,526.9a40.1,40.1,0,0,1-.149,5.843,70.576,70.576,0,0,1-1.691,12.026,43.78,43.78,0,0,1-5.593,12.933c-.6.953-1.258,1.884-1.86,2.723-.6.858-1.191,1.7-1.774,2.486a23.851,23.851,0,0,1-3.527,4.018,6.024,6.024,0,0,1-.732.512l-.5.233a3.916,3.916,0,0,1-.722.14l.655-.233a12.908,12.908,0,0,1-3.577,2.048,23.79,23.79,0,0,1-3.864,1.143,41.462,41.462,0,0,1-8.023.857,44.985,44.985,0,0,1-8.206-.616A29.364,29.364,0,0,1,193.408,570a14.545,14.545,0,0,1-4.077-2,6.529,6.529,0,0,1-1.808-1.972,3.993,3.993,0,0,1-.286-.55L187,564.97a10.524,10.524,0,0,1-.422-1.031,20.63,20.63,0,0,1-1.093-4.251,33.472,33.472,0,0,1-.1-8.49,55.469,55.469,0,0,1,1.5-8.109c.689-2.617,1.474-5.131,2.275-7.609l.986-2.972.916-2.656v-.224l0-.546-.035-1.094c-.034-.729-.092-1.453-.181-2.161-.039-.364-.094-.687-.151-1.067l-.258-1.166c-.049-.194-.071-.374-.142-.578l-.243-.631c-.174-.435-.294-.809-.513-1.293l-.649-1.441-1.271-2.825,3.642,1.593,1.883.825c.635.272,1.29.583,1.892.793l1.407.533c.3.117.6.2.905.3.607.191,1.206.4,1.817.578a57.348,57.348,0,0,0,7.393,1.621,53.255,53.255,0,0,0,7.394.532,40.588,40.588,0,0,0,7.142-.73,27.335,27.335,0,0,0,6.5-2.221,15.2,15.2,0,0,0,1.453-.824l.716-.424c.234-.142.385-.3.586-.44a9.125,9.125,0,0,0,1.966-2.271,19.931,19.931,0,0,0,2.416-5.889,26.316,26.316,0,0,0,.553-3.109,11.133,11.133,0,0,0,0-2.822l2.556-.806a30.414,30.414,0,0,1,1.185,12.281c-.317,3.824-.948,7.318-1.384,10.6-.2-2.93-.1-6.634-.256-10.523a31.417,31.417,0,0,0-2.237-11.353l2.914-.92a11.139,11.139,0,0,1,.348,2.968,21.131,21.131,0,0,1-.152,2.64,25.476,25.476,0,0,1-1.015,4.771,15.415,15.415,0,0,1-3.959,6.714,14.984,14.984,0,0,1-1.358,1.069l-1.33.764a21.054,21.054,0,0,1-2.715,1.324l-.686.3-.7.235-1.4.464c-.934.3-1.891.472-2.826.709a41.908,41.908,0,0,1-11.191.628,56.251,56.251,0,0,1-10.579-1.78l-2.52-.735q-1.237-.423-2.463-.845l-.869-.348c-.211-.089-.427-.166-.638-.267l-.643-.3-.327-.151-.082-.038c-.031-.016.01.039.012.055l.066.153a6.442,6.442,0,0,1,.366,1.237c.049.222.076.417.117.672.057.4.114.795.152,1.19q.126,1.187.163,2.352c.007.389.015.776.022,1.161,0,.409,0,.7-.023,1.283q-.443,1.226-.88,2.442l-.805,2.313q-.789,2.306-1.511,4.589a64.429,64.429,0,0,0-2.281,9.065,36.689,36.689,0,0,0-.507,8.912,21.43,21.43,0,0,0,.759,4.214,15.189,15.189,0,0,0,.707,1.965c.147.3.284.662.437.9a3.711,3.711,0,0,0,.522.685,9.641,9.641,0,0,0,3.362,1.951,25.407,25.407,0,0,0,3.93,1.068,43.393,43.393,0,0,0,8.012.719,40.569,40.569,0,0,0,7.709-.693,15.726,15.726,0,0,0,6.578-2.594l.7-.036c.015-.329.007-.212.021-.231,0,.021.081-.041.119-.052a1.916,1.916,0,0,0,.353-.21,7.1,7.1,0,0,0,.805-.679,21.594,21.594,0,0,0,1.558-1.7c1-1.207,1.926-2.467,2.857-3.746a46.967,46.967,0,0,0,4.768-7.665,45.64,45.64,0,0,0,2.622-6.5,62.12,62.12,0,0,0,1.805-7.5C236.34,532.649,236.847,528.3,237.1,526.9Z" transform="matrix(-1, 0, 0, 1, 380, 0)"></path><g class="cls-6" transform="matrix(-1, 0, 0, 1, 380, 0)"><path class="cls-7" d="M223.377,543.4c.59.279-.045,2.8.018,3.862a17.782,17.782,0,0,1-.815,5.706,15.852,15.852,0,0,1-1.851,4.3,23.537,23.537,0,0,1-2.265,3.024c-1.464-1.215-1.861-3.564-1.334-4.039a11.628,11.628,0,0,0,3.452-5.913,34.586,34.586,0,0,1,1.257-5.045A6.831,6.831,0,0,1,223.377,543.4Z"></path></g><path class="cls-5" d="M238.4,522.187a29.253,29.253,0,0,0,1.043-14.417,1.217,1.217,0,0,0-2.34-.13,24.752,24.752,0,0,1-7.952,10.653c-10.419,7.293-27.515,6.094-38.562,1.267a1.2,1.2,0,0,0-1.643.707c-.716,2.321.987,6.276,2.3,8.123a1.227,1.227,0,0,0,.358.33c15.977,9.889,39.119,9.955,46.744-6.412C238.37,522.268,238.387,522.228,238.4,522.187Z" transform="matrix(-1, 0, 0, 1, 380, 0)"></path><path d="M238.431,522.2a10.549,10.549,0,0,1-1.605,3.554A20.452,20.452,0,0,1,231.2,531.6a25.876,25.876,0,0,1-8.584,3.825,38.691,38.691,0,0,1-7.637,1.072,41.856,41.856,0,0,1-12.621-1.418,45.394,45.394,0,0,1-6.236-2.162c-1.017-.437-2.027-.9-3.01-1.421-.5-.251-.987-.511-1.467-.793l-.725-.414a3.687,3.687,0,0,1-.567-.374,2.842,2.842,0,0,1-.5-.54l-.285-.411-.216-.34c-.145-.226-.271-.453-.4-.681-.25-.458-.488-.917-.7-1.39a15.685,15.685,0,0,1-1.019-2.973c-.06-.265-.116-.531-.154-.811a8.529,8.529,0,0,1-.1-.917,5.755,5.755,0,0,1,.394-2.48,2.786,2.786,0,0,1,1.661-1.572,3.138,3.138,0,0,1,2.34.071l1.944.763,1.5.494c.979.35,1.987.561,2.959.844a52.384,52.384,0,0,0,12.98,1.483,36.7,36.7,0,0,0,12.287-2.112,24.817,24.817,0,0,0,5.246-2.65,19.669,19.669,0,0,0,4.037-3.908,26.307,26.307,0,0,0,1.637-2.285c.247-.392.49-.785.711-1.184.355-.576.7-1.59,1.1-2.183l.29-.5c.1-.187.194-.216.291-.331a3.343,3.343,0,0,1,.579-.511,2.443,2.443,0,0,1,1.7-.331,2.26,2.26,0,0,1,1.468.877,5.233,5.233,0,0,1,.679,1.616c.084.477.146.959.183,1.448l.069.719c.02.216.028.529.03.648.018.624,0,1.237-.021,1.841a30.506,30.506,0,0,1-.352,3.511,24.782,24.782,0,0,1-1.754,6.273,36.691,36.691,0,0,0,.257-6.252c-.041-1.14-.131-2.311-.272-3.475-.071-.582-.152-1.163-.257-1.734a.959.959,0,0,0-.063-.246l-.062-.149a1.838,1.838,0,0,0-.12-.236c-.091-.136-.144-.232-.264-.25a.386.386,0,0,0-.348.238,1,1,0,0,0-.054.366l0,.106.006.037c-.011.028.031-.041-.008.038l-.094.2a19.872,19.872,0,0,1-3.073,4.732,20.665,20.665,0,0,1-5.151,4.262l-1.41.794c-.475.247-.971.442-1.451.664a26.289,26.289,0,0,1-2.929,1.115,39.914,39.914,0,0,1-11.726,1.8,55.258,55.258,0,0,1-11.063-.974c-.887-.151-1.758-.348-2.62-.561-.867-.188-1.714-.433-2.554-.678-.847-.223-1.665-.52-2.483-.8-.409-.138-.818-.274-1.213-.442l-1.009-.4a1.178,1.178,0,0,0-.845-.15.741.741,0,0,0-.508.648,2.89,2.89,0,0,0-.04.869,8.152,8.152,0,0,0,.2,1.257,14.665,14.665,0,0,0,2.085,4.638.729.729,0,0,0,.276.247l.521.3c.368.207.724.428,1.1.62.74.391,1.472.779,2.222,1.12a42.255,42.255,0,0,0,4.5,1.831,44.939,44.939,0,0,0,8.976,2.12,35.155,35.155,0,0,0,16.4-1.492,24.7,24.7,0,0,0,8.172-4.836A23.715,23.715,0,0,0,238.431,522.2Z" transform="matrix(-1, 0, 0, 1, 380, 0)"></path></svg>