<svg xmlns="http://www.w3.org/2000/svg" id="uniforms_1" viewBox="0 0 380 600"><defs transform="matrix(-1, 0, 0, 1, 380, 0)"><style>.cls-1{fill:#f9a;}.cls-2{fill:#ffffff;}.cls-3{fill:#fff8b8;}.cls-4{fill:#811e9f;}</style></defs><g id="default" transform="matrix(-1, 0, 0, 1, 380, 0)"><path class="cls-1 color-bottom1" d="M125.09,465.17c5.8,23.75,18.27,52.94,19.51,54.5-3.59,3.29-16.2,18.92-13,23.24,5.71,6.32,15.37,14.62,23.68,14.32,6.83-.24,18.64-10.22,25.29-19.49,6.87-10.42,4.21-31,4.92-43.74"></path><path d="M185.56,494c.3.41.42,2.44.6,5.43s.38,6.95.51,11.23a116.84,116.84,0,0,1-.27,13.11,48.68,48.68,0,0,1-2,10.87l-.66,1.83c-.27.61-.59,1.22-.9,1.83a11.59,11.59,0,0,1-1,1.7c-.36.54-.72,1.08-1.1,1.59a61.23,61.23,0,0,1-4.89,6,54.83,54.83,0,0,1-12.37,10.33,24.76,24.76,0,0,1-4,1.9,10.91,10.91,0,0,1-1.14.36c-.41.1-.77.23-1.21.3a13.06,13.06,0,0,1-2.58.21,22.05,22.05,0,0,1-8.85-2.14,52,52,0,0,1-13.27-9.32c-1-1-2-1.92-3-2.93l-.59-.63a3.06,3.06,0,0,1-.57-.78l-.49-.83c-.11-.3-.22-.6-.32-.91a8.71,8.71,0,0,1-.27-1.91,9.13,9.13,0,0,1,.13-1.84,19.31,19.31,0,0,1,1.54-4.73,39,39,0,0,1,2-3.81,69,69,0,0,1,4.62-6.71q1.22-1.59,2.49-3.09l1.3-1.5.34-.37.17-.18h0l.05,0v-.05h0s0,.1-.05-.14l-.43-1-.8-1.91-1.5-3.76q-1.46-3.75-2.75-7.41c-1.74-4.87-3.28-9.63-4.63-14.21A185.81,185.81,0,0,1,124,465.44c2.81,4.53,6.17,11.15,9.22,17.42s5.69,12.22,6.64,15.52,1.91,6.43,2.94,9.54c.51,1.56,1,3.09,1.58,4.61l.83,2.25.42,1.09.29.72a8.79,8.79,0,0,1,.38.91c0,.82,0,1.7.08,2.25a.77.77,0,0,1-.09.49c-.05.15-.11.31-.17.5s-.23.74-.34,1.12c-.42.39-.8.79-1.19,1.17l-.75.77c-.46.48-.91,1-1.36,1.47-.89,1-1.76,2-2.59,3a59.15,59.15,0,0,0-4.52,6.32,29.34,29.34,0,0,0-1.73,3.26,13.57,13.57,0,0,0-.61,1.62,6.23,6.23,0,0,0-.27,1.4A1.74,1.74,0,0,0,133,542a3.08,3.08,0,0,0,.37.44l.62.68c.84.9,1.7,1.78,2.58,2.62a43.86,43.86,0,0,0,11.38,8.15,17.13,17.13,0,0,0,6.12,1.66,10.19,10.19,0,0,0,1.47,0l.68-.09a6.72,6.72,0,0,0,.71-.18c.23-.07.47-.12.7-.2l.71-.28a9.69,9.69,0,0,0,1.4-.63,44.67,44.67,0,0,0,10-7.34,70.77,70.77,0,0,0,8-8.82,16.83,16.83,0,0,0,1.5-2.24l.62-1.11.5-1.22a29.18,29.18,0,0,0,1.54-5,76.76,76.76,0,0,0,1.41-10.43c.27-3.83.67-9.13,1.06-13.85S185.3,495.31,185.56,494Z"></path><path d="M139.57,527c.1-.36,2.18-1.16,4.7-1a15.23,15.23,0,0,1,3.75.69,22.51,22.51,0,0,1,2.92,1.19,31.74,31.74,0,0,1,4.85,3c.77.56,1.54,1.15,2.3,1.76,1,.86.83.65,1,.73a.62.62,0,0,0,.1-.17l0,0v0l.12-.14.48-.53.92-1.07c.11-.13,0-.07.07-.09v0l-.05,0h0l-.29-.29-.63-.63-2.48-2.5-1.19-1.21-1.19-1.17a20.61,20.61,0,0,0-2.3-1.94,8,8,0,0,0-4.83-1.56,14.41,14.41,0,0,0-4.78,1,8.27,8.27,0,0,1,4.63-3.74,7.84,7.84,0,0,1,3.29-.33,5.74,5.74,0,0,1,2.34.74,22.35,22.35,0,0,1,4.65,4.27l3.63,4.1c.6.68,1.1,1.18,1.94,2.18a3.08,3.08,0,0,1,.42.67c0,.11.11.21.16.33s0,.12,0,.17a1.3,1.3,0,0,1-.08.17,6.54,6.54,0,0,1-1,1.31l-1.72,1.87-1,1.1c-.39.37-.77.8-1.16,1.12l-1.14-1.06c-.35-.33-.84-.76-1.05-.94-.55-.47-1.09-.91-1.63-1.34-1.07-.86-2.14-1.66-3.18-2.4A35.12,35.12,0,0,0,149,529.2a18.08,18.08,0,0,0-3-1.25,24.82,24.82,0,0,0-3.62-.85A14.9,14.9,0,0,0,139.57,527Z"></path><path d="M134.48,532.57c.07-.15.58-.36,1.39-.48.4,0,.87,0,1.38,0s1.05.12,1.6.23a42.15,42.15,0,0,1,5.88,1.87,40.88,40.88,0,0,1,7.09,3.27l1.73,1c.13,0,.17.08.22,0l0-.05.1-.09.69-.61.68-.62.34-.31.21-.2a0,0,0,0,0,0-.05h0l-.58-.52L154,535c-1.57-1.36-3.13-2.67-4.62-3.86-.74-.6-1.48-1.14-2.19-1.64a10.53,10.53,0,0,0-2.06-1.14,6.12,6.12,0,0,0-4.06-.35,3.5,3.5,0,0,1,1.84-1.69,6.91,6.91,0,0,1,3-.54,8.29,8.29,0,0,1,2.87.65,6.26,6.26,0,0,1,1.7,1c1.41,1.27,2.66,2.51,3.88,3.7s2.46,2.4,3.62,3.54l.59.58a5.22,5.22,0,0,1,.43.6,6.1,6.1,0,0,1,.36.58c.1.1,0,.21-.06.3l-.19.29c-.11.18-.27.38-.41.57l-.57.53-1,.88c-.57.49-1.12.95-1.71,1.43a6.67,6.67,0,0,1-1.17.79,2.65,2.65,0,0,1-.64.2,2.92,2.92,0,0,1-.61-.27c-.38-.18-.89-.55-1.12-.68l-.86-.52c-.57-.34-1.12-.67-1.68-1-1.11-.64-2.2-1.21-3.26-1.75-2.11-1.08-4.1-2-6-2.79-.89-.37-2.08-.9-3.18-1.32-.55-.12-1.08-.35-1.52-.39Z"></path></g><g data-name="default" id="default-2" transform="matrix(-1, 0, 0, 1, 380, 0)"><ellipse class="cls-2 color-body" cx="182.67" cy="463" rx="57.58" ry="25.42" style="fill:#ffffff;--backup-fill:#ffffff"></ellipse><path d="M240.21,463c-.11-.27-.14-1.13-.47-2.38a14.66,14.66,0,0,0-2.18-4.59c-2.34-3.47-6.91-6.87-12.27-9.44A75.78,75.78,0,0,0,208,441a102.62,102.62,0,0,0-14.76-2,135.56,135.56,0,0,0-20.59.35,109.46,109.46,0,0,0-20.92,3.9,69.4,69.4,0,0,0-10,3.74,40.87,40.87,0,0,0-8.83,5.47,16.73,16.73,0,0,0-5.58,7.74,10.27,10.27,0,0,0,1.43,8.55,22.32,22.32,0,0,0,5.86,5.89,45.26,45.26,0,0,0,7.54,4.25,80.74,80.74,0,0,0,16.64,5.22,127.57,127.57,0,0,0,33.62,2.16c10.8-.72,21-2.71,29.87-6.26a41.64,41.64,0,0,0,11.67-6.8,19,19,0,0,0,4-4.71,12,12,0,0,0,1.66-5.51,11.23,11.23,0,0,1-.85,5.66,19,19,0,0,1-3.8,5.71,41,41,0,0,1-12.39,8.46,76.89,76.89,0,0,1-23.56,6.51,130.92,130.92,0,0,1-14.72.63,135.53,135.53,0,0,1-14.23-.89,101.62,101.62,0,0,1-26.39-6.39,49.66,49.66,0,0,1-11.4-6.33,26.36,26.36,0,0,1-4.64-4.5,15.8,15.8,0,0,1-3-5.73,12.15,12.15,0,0,1,0-6.39,15.67,15.67,0,0,1,2.88-5.54,31.18,31.18,0,0,1,9.21-7.53A62.38,62.38,0,0,1,147.32,442,90.12,90.12,0,0,1,158,439.08a119.85,119.85,0,0,1,20.79-2.5,124.14,124.14,0,0,1,19.55.83,96.11,96.11,0,0,1,17.87,3.85c5.33,1.68,12.5,4.81,17.61,9.32a26.65,26.65,0,0,1,3.33,3.53,18.63,18.63,0,0,1,2.13,3.64A12.54,12.54,0,0,1,240.21,463Z"></path></g><g data-name="default" id="default-3" transform="matrix(-1, 0, 0, 1, 380, 0)"><path class="cls-2 color-body" d="M125.09,463.37c9,37.25,43.74,56,63.79,54.5,18.52-1.37,41.24-8.94,48.76-28.75,2.67-7.06,3.18-15.46,2-25.75" style="fill:#ffffff;--backup-fill:#ffffff"></path><path d="M239.67,463.37a23.21,23.21,0,0,1,.81,4.95,59.62,59.62,0,0,1,.11,10.41,38.73,38.73,0,0,1-2.71,11.78c-.39.89-.76,1.77-1.13,2.62s-.88,1.58-1.29,2.32c-.2.37-.4.74-.6,1.08l-.66,1L233,499.21a41.7,41.7,0,0,1-10,9.53,57.56,57.56,0,0,1-12.84,6.49,77.87,77.87,0,0,1-14,3.62l-3.55.52-3.54.36a37,37,0,0,1-7.23-.17,51.72,51.72,0,0,1-11.9-2.88,67.53,67.53,0,0,1-10.84-5.08,73.4,73.4,0,0,1-17.68-14.38,74.2,74.2,0,0,1-6.54-8.41,79,79,0,0,1-4.92-8.7,69.86,69.86,0,0,1-5.4-16.61,122.54,122.54,0,0,0,8.06,15.84c1.64,2.69,3.43,5.16,5,7.3.8,1.05,1.54,2,2.21,2.87s1.25,1.61,1.71,2.22a68.27,68.27,0,0,0,27.68,21.58,48.86,48.86,0,0,0,15.64,3.82c.65,0,1.3,0,1.94,0s1.28,0,1.92-.07c1.28-.11,2.57-.23,3.83-.37s2.52-.33,3.75-.54,2.46-.43,3.66-.7c9.63-2,18.28-5.76,24.92-11.09a35.51,35.51,0,0,0,11.06-14.06,29.78,29.78,0,0,0,1.94-5.26,57.73,57.73,0,0,0,1.86-12.47C239.9,468.33,239.71,464.59,239.67,463.37Z"></path></g><path class="cls-3" d="M235.5,491.65a63.45,63.45,0,0,0-26.92,5.57A62.22,62.22,0,0,0,187.5,513c4.57,5.6,4.08,11.91,5,18.76-3,5.24-6,12.24-5.41,19.44C188,562,194.58,568,204.82,568.44c7.84.31,16.58-3.8,21.82-9.86,6-7,8.86-14.58,9.65-24C236.5,520,237.24,507.76,235.5,491.65Z" transform="matrix(-1, 0, 0, 1, 380, 0)"></path><g id="hero_red" transform="matrix(-1, 0, 0, 1, 380, 0)"><path class="cls-1 color-bottom1" d="M187.5,513.5c4.57,5.6,4.08,11.91,5,18.76-3.87,7.25-12,23.32-7.12,30.06,5.62,7.82,25.24,6.52,34.54,4.41a9.89,9.89,0,0,0,7.41-5.85c2.59-5.63,8.31-16.69,8.6-22.66.94-15.74,1.18-28.87-.44-46.07"></path><path d="M235.56,492.14c.67.62,1.64,7.07,2.15,14.6s.58,16.1.74,20.87c.08,2.1.13,4.25.15,6.42v3.27a23.13,23.13,0,0,1-.24,3.68,41.65,41.65,0,0,1-1.84,6.93c-.76,2.21-1.62,4.36-2.51,6.49s-1.83,4.21-2.74,6.27l-.66,1.51a15.21,15.21,0,0,1-1,1.92,13.62,13.62,0,0,1-3,3.46,13.35,13.35,0,0,1-4,2.27,15.62,15.62,0,0,1-2.08.56l-.79.19-.87.19c-2.31.48-4.58.82-6.84,1.08a67.16,67.16,0,0,1-12,.32,41.63,41.63,0,0,1-6.09-.84,25.88,25.88,0,0,1-6.16-2.08,17.1,17.1,0,0,1-3-1.89,13.89,13.89,0,0,1-2.66-2.79,12.9,12.9,0,0,1-2.1-7.25,25.11,25.11,0,0,1,.76-6.14,44.19,44.19,0,0,1,1.67-5.36,78.08,78.08,0,0,1,4.39-9.42c.79-1.46,1.61-2.87,2.42-4.24l.08-.12,0,0,.05-.07.12-.15c.09-.09,0-.25.06-.38v-.1s0-.17,0-.26l0-.58c0-.39,0-.78,0-1.16a64.3,64.3,0,0,0-.5-8.35,19.35,19.35,0,0,0-.91-3.58,18.24,18.24,0,0,0-1.57-3.16,12.48,12.48,0,0,1,2.92,2.32,15.93,15.93,0,0,1,2.5,3.69,44.52,44.52,0,0,1,3,9.06c.09.37.19.73.28,1.09l.07.28.1.49.2,1,.1.5.05.25c0,.07-.07.15-.1.23l-.41.91-.41.92-.19.51-1.47,3.78c-.93,2.34-1.73,4.29-2.41,5.57a45.57,45.57,0,0,0-3.32,7.78c-.77,2.55-1.19,5.21-.65,7.15a4.25,4.25,0,0,0,.56,1.31,6.48,6.48,0,0,0,1,1.22,11.15,11.15,0,0,0,2.95,2,26.5,26.5,0,0,0,7.4,2,59.76,59.76,0,0,0,15.3-.07c1.23-.15,2.45-.34,3.65-.57.59-.11,1.19-.23,1.81-.37a10.7,10.7,0,0,0,1.56-.42,8.22,8.22,0,0,0,4.44-4c1-2.14,1.92-4.24,2.87-6.32s1.81-4.15,2.61-6.19a57.09,57.09,0,0,0,2-6,21.27,21.27,0,0,0,.62-2.88c.09-.47.08-.89.13-1.35s0-1,.07-1.57c.34-8.31.54-16,.71-23.19,0-3.42.3-8.1.49-12.24S235.48,493.33,235.56,492.14Z"></path><path d="M193,537.76a1.42,1.42,0,0,1,0,.75c0,.19-.11.45-.17.66s-.14.42-.22.63c-.17.44-.38.89-.59,1.35-.11.23-.21.46-.3.7l-.13.35c0,.06,0,0,.06,0l.11-.05.22-.11a23.78,23.78,0,0,1,2.68-1.11,35.38,35.38,0,0,1,3.44-.85,13.09,13.09,0,0,1,2.7-.26,19,19,0,0,1,2.75.27c1.75.29,3.51.67,5.25,1.08l5.16,1.25c.84.2,1.71.39,2.5.55,0,0,.12,0,.1-.06v-.06s0,0,0-.19a1.47,1.47,0,0,0,0-.43s0,0-.13-.15-.46-.49-.7-.74a43,43,0,0,0-3.16-2.93,20.81,20.81,0,0,0-6.82-3.94,12.94,12.94,0,0,0-6.93-.29,10.06,10.06,0,0,0-5.25,3,6.63,6.63,0,0,1,1.38-3.09,9.86,9.86,0,0,1,3.23-2.59,10.48,10.48,0,0,1,6.76-1,23.63,23.63,0,0,1,9.85,5.8c1.29,1.18,2.43,2.41,3.52,3.62a4.24,4.24,0,0,1,.82,1.23,3.22,3.22,0,0,1,.18,1.53,4.77,4.77,0,0,1-.1.66,6.51,6.51,0,0,0-.13.79,12.76,12.76,0,0,0,.07,1.83c-.18,0-.11.24-.41.13L218,546l-1.32-.26c-1-.21-1.49-.33-2.13-.48l-3.64-.9c-2.36-.61-4.59-1.19-6.73-1.64a30.34,30.34,0,0,0-3.09-.56,12.34,12.34,0,0,0-2.85,0,22.71,22.71,0,0,0-2.78.48l-.34.08-.52.15c-.36.09-.71.2-1.07.31-.7.22-1.41.5-2.13.79-.93.39-2,.79-2.61,1a2.43,2.43,0,0,0,0-.3c.07-.18.25-.5.36-.72.26-.49.52-.94.78-1.38.52-.88,1-1.68,1.51-2.37A22.17,22.17,0,0,0,193,537.76Z"></path><path d="M190.5,544.79c0,.22-.58.67-1.05,1.33a5.3,5.3,0,0,0-.65,1.15,3.65,3.65,0,0,0-.22.66l0,.18s0,.07,0,.07l.1,0,.43-.06c.54-.08,1.06-.13,1.55-.18l.71,0,1.07,0,3.58-.1c1.37-.06,2.73-.08,4.19-.07a15.92,15.92,0,0,1,2.32.18,9.68,9.68,0,0,1,2.42.75c.75.34,1.4.72,2,1a12.77,12.77,0,0,0,1.79.75c.62.22,1.27.41,1.94.58l.48.12h.13v-.1s0,0,0-.07.21-.31.31-.46a11.64,11.64,0,0,1,1.46-1.66l.25-.22.11-.1h0v0a0,0,0,0,0,0,0l-.61-.55c-.24-.23-.5-.43-.76-.64-.5-.42-1.05-.78-1.58-1.16a23.48,23.48,0,0,0-3.39-1.8,21.44,21.44,0,0,0-3.54-1.08,18.53,18.53,0,0,0-3.51-.34,15.46,15.46,0,0,0-3.31.39,34.14,34.14,0,0,0-5.87,2.17,14.31,14.31,0,0,1,5.23-4.8,10.71,10.71,0,0,1,6.33-1.27,23.91,23.91,0,0,1,11.33,5.45c.36.32.74.63,1.07,1l.51.5a8.76,8.76,0,0,1,.59.68c.36.49.89.93,1,1.45a1,1,0,0,1-.09.81,2.62,2.62,0,0,1-.54.57c-.22.18-.48.36-.73.53a3.47,3.47,0,0,0-.37.26l-.23.2a7.77,7.77,0,0,0-1.55,1.79c-.3.49-.55,1-.8,1.56-.69-.11-1.46-.35-2.18-.52l-1.59-.45a17.43,17.43,0,0,1-3-1.23,25,25,0,0,0-2.58-1.3,9.31,9.31,0,0,0-2.55-.51c-1.79-.12-3.66-.17-5.35-.26l-2.52-.09-1.22,0h-1.71c-1.13.05-2.49.11-3.25.07,0-.09-.09-.17-.14-.26s-.08-.05-.06-.14l.13-.31a12.12,12.12,0,0,1,.54-1.14,7.17,7.17,0,0,1,1.32-1.75A5.6,5.6,0,0,1,190.5,544.79Z"></path></g><path class="cls-4 color-bottom2" d="M166.16,512.57c.69-.25,13,3.75,20.19,4a3.79,3.79,0,0,1,2.1.51c.49.36,7.76,7,26.55,5.58a29.75,29.75,0,0,0,20.2-9.9c.59-.69,1.14-1.41,1.66-2.15.21-6.1-.34-11.2-.47-18.15a30.07,30.07,0,0,0,1.21-2.77c2.71-7.26,3.22-15.47,2-25.85,0,0-22.14,22.63-64.39,20-44.13-2.75-50.16-20-50.16-20,3.32,13.32,8,31.29,15.71,46.36C146.84,514,155.63,516.43,166.16,512.57Z" transform="matrix(-1, 0, 0, 1, 380, 0)"></path><path d="M166.17,512.59a17.46,17.46,0,0,1-2.76,1,27.52,27.52,0,0,1-6.2,1.15,27.22,27.22,0,0,1-13.56-2.5,26.53,26.53,0,0,1-2.36-1.23l-.65-.38-.19-.11-.09-.2-.19-.37-.6-1.21c-6.52-13-11-28.94-13.42-37.72l-1.88-7,1.61-.48a11.41,11.41,0,0,0,1.35,2.21,12.44,12.44,0,0,0,.86,1.06,10,10,0,0,0,.94,1l1,1,1.07.9a24.92,24.92,0,0,0,2.25,1.69,23.87,23.87,0,0,0,2.41,1.52l1.23.73,1.29.64c.88.4,1.72.88,2.62,1.24l2.7,1.08a29.21,29.21,0,0,0,2.77,1l2.8.91c1.92.47,3.83,1,5.76,1.43l5.87,1.1,6,.79a126.1,126.1,0,0,0,23.93.5,91.71,91.71,0,0,0,22.8-4.92,89.48,89.48,0,0,0,13.63-6.29,69,69,0,0,0,6.09-3.92l1.43-1,1.36-1.08.34-.27.6-.53,1.25-1.13.63-.56.68-.67,1.33-1.3c.15,1.49.31,3,.46,4.45l.11,1.11.07.82c0,.38.06.76.09,1.14.11,1.52.16,3,.19,4.56a56.36,56.36,0,0,1-.59,9.09,40.17,40.17,0,0,1-2.32,8.75l-.91,2.08-.07.15V493l0,1.07.15,4.27c.12,2.84.26,5.69.27,8.53,0,.71,0,1.42,0,2.13l0,1.06,0,.91a.57.57,0,0,1,0,.13l-.07.09-.16.2-.28.37-1.36,1.73c-.47.55-1,1.09-1.48,1.59a30.54,30.54,0,0,1-14.59,8,28.82,28.82,0,0,1-4,.68c-1.36.15-2.64.15-4,.22s-2.59,0-3.87,0-2.56-.11-3.82-.28a36.16,36.16,0,0,1-14.15-4.15c-.52-.3-1-.63-1.53-1s-1-.83-1.25-.91a4,4,0,0,0-1.38-.24c-.58,0-1.17-.08-1.73-.16A62.54,62.54,0,0,1,178,516c-2.11-.49-4.16-1-6.14-1.58l-2.94-.81-1.44-.39-.7-.17-.34-.07-.12,0h0s0,0,0-.1l-.09-.22c.18.45.11.29.13.32h.18l.38,0,.81.12,1.7.31,3.63.7c2.52.48,5.2,1,8,1.36,1.39.19,2.82.33,4.25.4l1.07,0a7.26,7.26,0,0,1,1.2.07,3.15,3.15,0,0,1,1.32.49c.36.27.59.43.9.63a25.89,25.89,0,0,0,8,3.18,53.4,53.4,0,0,0,16.16,1,31.51,31.51,0,0,0,11.22-2.75,27.43,27.43,0,0,0,6.59-4.11,23.39,23.39,0,0,0,2.74-2.71l1.16-1.45s.07,0,.06-.09V510l0-1c.16-5.26-.24-10.52-.28-15.73v-.92a1.4,1.4,0,0,1,.14-.37l.43-1,.76-1.71c.44-1.18.85-2.36,1.17-3.57a42.43,42.43,0,0,0,1.3-7.31,60.13,60.13,0,0,0,.23-7.34c0-1.22-.1-2.44-.19-3.65l-.09-1.22,0-.49,0-.24v-.19s0,0,0,0a31.86,31.86,0,0,1-2.48,2.06c-.59.47-1.21.9-1.82,1.34s-1.21.89-1.85,1.29c-1.24.82-2.49,1.63-3.78,2.36-.64.37-1.27.76-1.91,1.11l-2,1a92,92,0,0,1-16,6.38A102.41,102.41,0,0,1,177,484.53a145.78,145.78,0,0,1-15.3-1.46c-1.25-.14-2.48-.4-3.7-.63l-3.66-.7c-1.2-.28-2.39-.61-3.58-.91s-2.37-.59-3.52-1l-3.45-1.13-3.33-1.36a14,14,0,0,1-1.63-.74l-1.6-.79a39.58,39.58,0,0,1-8.68-6l-1.24-1.25c-.38-.44-.75-.9-1.12-1.34a13.66,13.66,0,0,1-1.87-3.09l1.58-.47a310.23,310.23,0,0,0,9.86,33.15c1.17,3.09,2.61,6.73,4.3,10.43.21.46.43.92.65,1.39s.46,1,.59,1.2l.53.34c.22.13.43.27.66.39.45.24.88.51,1.34.73a28.09,28.09,0,0,0,5.63,2.12,27.31,27.31,0,0,0,5.57.83A29.72,29.72,0,0,0,160,514,35.26,35.26,0,0,0,166.17,512.59Z" transform="matrix(-1, 0, 0, 1, 380, 0)"></path><g id="hero_belt" transform="matrix(-1, 0, 0, 1, 380, 0)"><path class="cls-1 color-bottom1" d="M239.64,463.87s-22.14,22.63-60,20.44c-21.13-1.23-39.16-5.81-53.4-16.82A48.08,48.08,0,0,0,130.63,480c9.87,8.54,23.82,15.83,37.87,17.54,41,5,62-9,73-25A27.62,27.62,0,0,0,239.64,463.87Z"></path><path d="M239.65,463.86a15,15,0,0,1,.88,2.27,24.66,24.66,0,0,1,1.11,5.08c0,.27.05.54.05.82l0,.47c0,.16-.18.28-.25.42l-1,1.43c-.36.48-.71,1-1.11,1.5l-1.25,1.51a41.4,41.4,0,0,1-2.79,3.09c-.95,1.07-2.1,2-3.19,3a56.74,56.74,0,0,1-15.43,9.62,77.1,77.1,0,0,1-14.28,4.33,100.65,100.65,0,0,1-20.58,1.72l-5.33-.19c-1.78-.1-3.55-.3-5.34-.45a58.14,58.14,0,0,1-10.73-1.75,75.81,75.81,0,0,1-20-8.57,79.57,79.57,0,0,1-8.81-6.2l-1-.85-.6-.5a.53.53,0,0,1-.19-.25l-.12-.25-.15-.3c-.39-.8-.76-1.61-1.12-2.42q-1.05-2.44-1.86-4.95l-.34-1.11-.34-1.22c-.19-.73-.34-1.43-.49-2.12l-.35-2-.09-.5c0-.14,0,0,.11,0l.2.13.77.54,1.54,1.08,1.55,1.08.39.27.25.17.46.3a71.13,71.13,0,0,0,7.64,4.46,85.31,85.31,0,0,0,16.4,6,124.33,124.33,0,0,0,16.86,3c2.8.32,5.58.55,8.34.74,1.38.06,2.74.07,4.1.11l2,0,1,0,1-.05a84.14,84.14,0,0,0,29.7-6.25c2.23-.85,4.31-1.91,6.37-2.89l3-1.61c1-.52,1.91-1.13,2.85-1.69a65,65,0,0,0,9.94-7.39c-4.73,5.15-13.32,11.29-22.38,15.15a76.46,76.46,0,0,1-23.17,6.12c-2.45.21-4.9.24-7.31.37l-7.2-.24q-7.09-.49-13.93-1.57a98.39,98.39,0,0,1-25.66-7.41,72.09,72.09,0,0,1-11.08-6.3L127,468.52a.26.26,0,0,0-.1-.07l0,.11,0,.23.1.46.11.45.13.53a52.9,52.9,0,0,0,2,5.73c.37.93.78,1.85,1.2,2.74l.33.67c.14.28.13.35.33.48l1.14,1c1.52,1.26,3.1,2.43,4.68,3.56a79.79,79.79,0,0,0,9.87,5.86,67.32,67.32,0,0,0,20.7,6.65c1.74.27,3.5.36,5.22.54s3.44.35,5.15.38l5.07.2,5-.09a92.46,92.46,0,0,0,18.89-2.51,65,65,0,0,0,16.44-6.59l.91-.51.91-.59,1.91-1.25a22.4,22.4,0,0,0,1.94-1.39l2-1.5a58.88,58.88,0,0,0,7.21-7.08c1.11-1.21,2-2.51,2.93-3.67.11-.16.22-.27.29-.4v-.49c0-.35,0-.7,0-1-.06-.67-.15-1.32-.26-1.93A32.37,32.37,0,0,0,239.65,463.86Z"></path></g><path class="cls-1 color-bottom1" d="M151.5,483.24c-.52,3.29,1.19,9.16,1.57,10.17.81,2.24,4.14,4.93,6.45,6.62,1,.7,10.69,3.05,12.3,2.7a22.46,22.46,0,0,0,6.45-3.24c1.32-.95-2-9.13-3.47-11.47C168.34,486.92,157.18,485.27,151.5,483.24Z" transform="matrix(-1, 0, 0, 1, 380, 0)"></path><path d="M151.51,483.21c.39-.18,3.17.58,6.48,1.16s7.08,1.19,9.21,1.37c1.87.17,3.81.35,5.79.57l.75.09.37,0,.65.09.64.11.32.05.18.27c.24.36.48.73.7,1.12.59,1,1,1.9,1.48,2.88a30.08,30.08,0,0,1,2.15,6.1,8.52,8.52,0,0,1,.15,1,4.53,4.53,0,0,1-.07,1.43,2.43,2.43,0,0,1-.61,1.23,7.13,7.13,0,0,1-1.06.83,31.17,31.17,0,0,1-2.71,1.65,20.74,20.74,0,0,1-2.07,1,11.23,11.23,0,0,1-1.16.41,4.59,4.59,0,0,1-.77.17,5,5,0,0,1-.51,0h-.34a16.76,16.76,0,0,1-2.31-.26c-.71-.11-1.4-.25-2.08-.39-1.37-.29-2.7-.61-4-1-.66-.18-1.3-.37-2-.58-.32-.1-.66-.22-1-.35l-.55-.23-.15-.06-.2-.12-.4-.23a33.67,33.67,0,0,1-4.37-3.92,14,14,0,0,1-1.78-2.39,7.86,7.86,0,0,1-.36-.71,6.2,6.2,0,0,1-.28-.78c-.13-.46-.23-.88-.32-1.3a34.65,34.65,0,0,1-.68-4.85,14.75,14.75,0,0,1,.3-4.44,48.07,48.07,0,0,0,2.77,7.32c.28.62.54,1.22.8,1.79a4.23,4.23,0,0,0,.72,1.17c.55.69,1.21,1.33,1.59,1.81a30.25,30.25,0,0,0,3.5,3.56c.05,0,0,0,.14.1l.33.17c.25.1.5.22.78.32.53.21,1.09.4,1.64.59,1.1.37,2.21.7,3.31,1s2.18.55,3.25.75a12.87,12.87,0,0,0,1.53.2,3.59,3.59,0,0,0,1.31-.27,19.72,19.72,0,0,0,2.81-1.28c.45-.24.89-.5,1.31-.77a6.75,6.75,0,0,0,1-.66.91.91,0,0,0,.1-.46,1.76,1.76,0,0,0,0-.23c0-.06,0-.15,0-.27a13.37,13.37,0,0,0-.29-1.37,27.8,27.8,0,0,0-.91-2.71c-.33-.88-.7-1.73-1.09-2.56-.19-.42-.39-.82-.59-1.22s-.46-.86-.54-1-.1-.24-.22-.25l-.34,0-1.24-.17-2.56-.38c-3.37-.5-6.53-1-9.46-1.75a37.83,37.83,0,0,1-5.33-1.67A29.89,29.89,0,0,1,151.51,483.21Z" transform="matrix(-1, 0, 0, 1, 380, 0)"></path><g data-name="default" id="default-4" transform="matrix(-1, 0, 0, 1, 380, 0)"><path d="M153.7,505.72c.32-.17,1.58.56,3,1.38a37.72,37.72,0,0,0,4.14,2.1c3.53,1.3,7.41,2.91,11,4,3.16,1,6.29,1.84,9.17,2.52s5.54,1.17,7.76,1.56a8.35,8.35,0,0,1-1.73,1.2,12.72,12.72,0,0,1-2.13.83,13.25,13.25,0,0,1-2.06.35,4.78,4.78,0,0,1-1.49-.14c-5.53-1.94-10-3.61-14.12-5.16a44.32,44.32,0,0,1-10.21-5.12A18.61,18.61,0,0,1,153.7,505.72Z"></path></g><path class="cls-1 color-bottom1" d="M223,521.23c-.34-2.26.66-5.41-3.42-6-4.21-1.25-22.52-2.09-25.21.86v0c-1.33,5.43,2.34,10.52,10.58,11.18C211.31,527.72,224.53,528.21,223,521.23Z" transform="matrix(-1, 0, 0, 1, 380, 0)"></path><path d="M223,521.22a2.56,2.56,0,0,1,.36,2.15,3.76,3.76,0,0,1-1,1.93,6.49,6.49,0,0,1-2.07,1.43,18,18,0,0,1-5,1.31c-1.61.23-3.07.33-4.11.43a53.57,53.57,0,0,1-5.71.19,18.61,18.61,0,0,1-6.2-1,11.43,11.43,0,0,1-5.44-4.09,9.82,9.82,0,0,1-1.44-3.26,10.81,10.81,0,0,1-.18-3.49c.11-.65.23-1.29.33-1.87h0l1-.69a5.09,5.09,0,0,1,.47-.34c.15-.09.39-.2.49-.25a9.85,9.85,0,0,1,1.4-.53,20.24,20.24,0,0,1,2.58-.55,39.76,39.76,0,0,1,4.89-.4,69.82,69.82,0,0,1,9.15.37,36.85,36.85,0,0,1,8.28,1.68,4.52,4.52,0,0,1,2,1.41,4.07,4.07,0,0,1,.82,2.16,33.06,33.06,0,0,1-.12,3.38c-.55-.79-.83-2.14-1.38-3.19a2.35,2.35,0,0,0-2.47-1.27h-.3a1.6,1.6,0,0,1-.29,0l-.42,0-.88,0-1.71-.05a19.43,19.43,0,0,1-2.64-.23,59.12,59.12,0,0,0-10.09-1.07,34.1,34.1,0,0,0-4.68.21,15.61,15.61,0,0,0-2.14.4,5.62,5.62,0,0,0-.93.33,1.74,1.74,0,0,0-.56.36h0a5,5,0,0,0-.15.7c0,.34-.07.68-.06,1a6.66,6.66,0,0,0,.28,1.95,7,7,0,0,0,2,3.19,11.9,11.9,0,0,0,6.68,2.74c1.16.13,2.4.17,3.58.21s2.33.06,3.45,0a46.19,46.19,0,0,0,6.31-.42,10.69,10.69,0,0,0,4.59-1.51,3.31,3.31,0,0,0,1.15-1.8A5.09,5.09,0,0,0,223,521.22Z" transform="matrix(-1, 0, 0, 1, 380, 0)"></path><path class="cls-1 color-bottom1" d="M155.56,510.41c.05-3.7-3.36-6.7-6.79-8.23-3.7-1.64-7.65-3.91-12-3.71-.05.44-.1.88-.14,1.31l.15-.81c-.28,4.26.34,7.85,3.07,11.23s13,6.5,14.67,4.63S155.73,512.48,155.56,510.41Z" transform="matrix(-1, 0, 0, 1, 380, 0)"></path><path d="M155.59,510.41a3.7,3.7,0,0,1,.52,1.47,3,3,0,0,1-.07,1.65,5.68,5.68,0,0,1-1,1.64,2.31,2.31,0,0,1-1.14.71,6.06,6.06,0,0,1-1.21.19,13.64,13.64,0,0,1-2.24-.1c-1.42-.18-2.68-.48-3.57-.67a21.7,21.7,0,0,1-4.51-1.5,14.12,14.12,0,0,1-2.25-1.27,8.8,8.8,0,0,1-1.09-.9,10.14,10.14,0,0,1-.92-1.05,14.19,14.19,0,0,1-2.5-4.7,18,18,0,0,1-.79-5.09c0-.67,0-1.32,0-2l3.91.5q-.07.42-.15.81l-3.91-.59c0-.46.09-.89.13-1.31l.17-1.69,1.72-.08a17,17,0,0,1,7.42,1.51c1.08.45,2.09.95,3,1.45l2.8,1.46a14,14,0,0,1,4.77,4.21,7.52,7.52,0,0,1,1.4,5.31,9.22,9.22,0,0,0-1.66-2.45,11.36,11.36,0,0,0-2.35-1.83c-1.64-1-3.31-1.63-4.09-2.15a56.23,56.23,0,0,0-5.66-3.28,13,13,0,0,0-5.55-1.37l.83-.77c-.07.45-.14.91-.19,1.31l-1.63-.25.17-.8,1.59.2a15.49,15.49,0,0,0,.74,6.87,12,12,0,0,0,1.51,2.8,11.8,11.8,0,0,0,.94,1.16,8.16,8.16,0,0,0,1.11.89,22.22,22.22,0,0,0,5.18,2.4,26.31,26.31,0,0,0,5,1.21,9.8,9.8,0,0,0,1.2,0,1.36,1.36,0,0,0,.79-.17,6,6,0,0,0,1-1,2.17,2.17,0,0,0,.37-1.12C155.51,511.3,155.54,510.67,155.59,510.41Z" transform="matrix(-1, 0, 0, 1, 380, 0)"></path></svg>