<svg xmlns="http://www.w3.org/2000/svg" id="uniforms_1" viewBox="0 0 380 600"><defs transform="matrix(-1, 0, 0, 1, 380, 0)"><style>.cls-1{fill:#009eaa;}.cls-2{fill:#ffffff;}.cls-3{fill:#51e9f4;}.cls-4{fill:#fff;}.cls-5{fill:#00f4cb;}</style></defs><path class="cls-1 color-suit2" d="M289.26,514.48c-.61-3.42-4.95-5.12-8.26-4.06s-5.65,4-7.42,7c-2.41,4.09-4.62,8.28-8.83,10.85-2.81,1.72-6.52,2.33-9.41.74a11.88,11.88,0,0,1-1.36,7.21c-3.42,5.7-11.37,3.3-16.67,2.49,1.31-3.46,1.09-7.28.84-11l-.88-13.18a1.57,1.57,0,0,1,1-1.92c4-2.28,7.91-4.61,12-6.69,4.36-2.2,9.05-4.06,13.93-4.11,6.39-.06,12.37,2.94,18.05,5.87" transform="matrix(-1, 0, 0, 1, 380, 0)" /><path d="M282.21,507.72c-.3-.06-1.68-.73-3.74-1.68a49.65,49.65,0,0,0-7.88-3,22,22,0,0,0-9.55-.54,30.55,30.55,0,0,0-7.5,2.43c-3.22,1.51-6.44,3.36-9.7,5.27l-4.94,2.92c-.44.26-.79.48-.8.59a2.3,2.3,0,0,0,0,1l.22,2.9c.28,3.88.57,7.77.85,11.62a34.22,34.22,0,0,1,0,5.9c-.05.49-.13,1-.23,1.48,0,.24-.1.49-.16.73l-.09.37,0,.19s0,.05,0,0h0l.69.12a55.64,55.64,0,0,0,5.94.82,10.8,10.8,0,0,0,5.38-.86,6.49,6.49,0,0,0,3.2-3.81,10.37,10.37,0,0,0,.55-2.54c0-.22,0-.43,0-.65v-.49a1.93,1.93,0,0,0,0-.34c0-.93-.13-1.91-.19-2.82l1.55.76.79.37.4.14.17.05a6.72,6.72,0,0,0,1.41.25,9,9,0,0,0,2.87-.27,12.31,12.31,0,0,0,5.05-2.81c2.93-2.61,4.77-6.12,6.78-9.34a20.08,20.08,0,0,1,3.63-4.39,9.94,9.94,0,0,1,4.88-2.45,7.76,7.76,0,0,1,5,.94,5.43,5.43,0,0,1,2.75,3.8,5.15,5.15,0,0,0-1.82-2.62,7.1,7.1,0,0,0-6.87-.79,10.07,10.07,0,0,0-3.05,2.12,24.81,24.81,0,0,0-4.05,5.89,40.81,40.81,0,0,1-2.92,4.68,18.11,18.11,0,0,1-7.14,6,11.32,11.32,0,0,1-4.41.92,8.47,8.47,0,0,1-2.19-.26,4.42,4.42,0,0,1-.52-.14l-.22-.09-.37-.18c0,.17,0,.39,0,.64a12.63,12.63,0,0,1-.11,1.63,11.7,11.7,0,0,1-.86,3.14,7.82,7.82,0,0,1-4.55,4.35,13.89,13.89,0,0,1-6,.54c-2-.17-3.87-.55-5.73-.89l-1.81-.3h-.06l0-.06,0-.11.08-.23.16-.46c.1-.3.21-.67.26-.84a16.37,16.37,0,0,0,.48-2.68,33.21,33.21,0,0,0,0-5.37c-.25-3.57-.49-7-.73-10.4l-.18-2.5-.09-1.24a9,9,0,0,1,0-1.31A1.85,1.85,0,0,1,237,513a1.8,1.8,0,0,1,.56-.57c.4-.27.72-.44,1.07-.65l2.08-1.22c2.74-1.61,5.43-3.15,8.09-4.55a49.38,49.38,0,0,1,8.09-3.53,23.26,23.26,0,0,1,8.28-1.17,22.09,22.09,0,0,1,5.07.85,36.39,36.39,0,0,1,5.18,1.95C278.7,505.66,281.33,507.23,282.21,507.72Z" transform="matrix(-1, 0, 0, 1, 380, 0)" /><path class="cls-2 color-body" d="M125.09,465.17c5.8,23.75,18.27,52.94,19.51,54.5-3.34,2.57-6.52,8.2-8.28,11.35-2.44,4.39-3,10-.8,14.51,3.81,7.81,14.16,9.86,22.61,8.13,9.71-2,16.62-7.8,22.45-15.92,4.49-6.27,4.1-13.87,4.54-21.59.41-2.34.39-19.37.38-22.15" transform="matrix(-1, 0, 0, 1, 380, 0)" style="fill:#ffffff;--backup-fill:#ffffff" /><path d="M185.56,494c.39.46.66,3.34.84,7.41.09,2,.16,4.37.2,6.85,0,1.24,0,2.53,0,3.82s0,2.6-.12,4v.16c-.1,3.19-.06,6.45-.27,9.45a37,37,0,0,1-1.27,7.84,20.83,20.83,0,0,1-1.4,3.59c-.27.6-.63,1.16-1,1.74s-.68,1-1,1.56a48.75,48.75,0,0,1-4.72,6,35.26,35.26,0,0,1-13.22,9.09,31.72,31.72,0,0,1-16.47,1.86,24,24,0,0,1-8.22-2.87,17.73,17.73,0,0,1-6.43-6.44,17.27,17.27,0,0,1-2.33-8.78,21,21,0,0,1,1.81-8.54c.27-.64.66-1.36.95-1.9l.89-1.58c.61-1,1.25-2.11,1.92-3.15s1.38-2.08,2.16-3.1c.39-.51.8-1,1.23-1.52l.58-.64h.06v0h0s0,0,0-.08l-.43-1c-.27-.64-.53-1.27-.8-1.9-.5-1.26-1-2.52-1.5-3.76-1-2.5-1.89-5-2.75-7.4q-2.61-7.32-4.63-14.22a183.74,183.74,0,0,1-5.68-25c2.77,4.39,6.07,10.81,9,16.9s5.55,11.87,6.46,15.08q1.42,5.15,3,10.05.81,2.44,1.65,4.83l.87,2.35.44,1.15.31.76c.13.32.3.62.39.93,0,.86,0,1.78,0,2.34a4.08,4.08,0,0,1-.36,1c-.14.4-.29.79-.42,1.16-.39.36-.81.71-1.15,1.07s-.42.41-.62.64c-.41.45-.8.92-1.19,1.4-.77,1-1.49,2-2.19,3s-1.36,2.1-2,3.18c-.34.56-.62,1-.88,1.54s-.48,1-.68,1.55c-1.61,4.23-1.24,9.12,1.39,12.44a12.8,12.8,0,0,0,4.87,3.9,19.86,19.86,0,0,0,6.08,1.72A26.85,26.85,0,0,0,161.27,551a30.4,30.4,0,0,0,10-5.92,46.42,46.42,0,0,0,7.38-8.4,21,21,0,0,0,3.48-9.27c.51-3.34.61-6.77.9-10.17,0-.33.05-.68.08-1.19l0-.35c.12-.77.21-1.79.31-2.82s.21-2.12.32-3.22c.23-2.21.47-4.48.69-6.6C184.94,498.83,185.38,495.23,185.56,494Z" transform="matrix(-1, 0, 0, 1, 380, 0)" /><path class="cls-3 color-suit1" d="M125.09,463.37c9,37.25,43.74,56,63.79,54.5,18.52-1.37,41.24-8.94,48.76-28.75,2.67-7.06,3.18-15.46,2-25.75" transform="matrix(-1, 0, 0, 1, 380, 0)" /><path d="M239.67,463.37a23.21,23.21,0,0,1,.81,4.95,59.62,59.62,0,0,1,.11,10.41,38.73,38.73,0,0,1-2.71,11.78c-.39.89-.76,1.77-1.13,2.62s-.88,1.58-1.29,2.32c-.2.37-.4.74-.6,1.08l-.66,1L233,499.21a41.7,41.7,0,0,1-10,9.53,57.56,57.56,0,0,1-12.84,6.49,77.87,77.87,0,0,1-14,3.62l-3.55.52-3.54.36a37,37,0,0,1-7.23-.17,51.72,51.72,0,0,1-11.9-2.88,67.53,67.53,0,0,1-10.84-5.08,73.4,73.4,0,0,1-17.68-14.38,74.2,74.2,0,0,1-6.54-8.41,79,79,0,0,1-4.92-8.7,69.86,69.86,0,0,1-5.4-16.61,122.54,122.54,0,0,0,8.06,15.84c1.64,2.69,3.43,5.16,5,7.3.8,1.05,1.54,2,2.21,2.87s1.25,1.61,1.71,2.22a68.27,68.27,0,0,0,27.68,21.58,48.86,48.86,0,0,0,15.64,3.82c.65,0,1.3,0,1.94,0s1.28,0,1.92-.07c1.28-.11,2.57-.23,3.83-.37s2.52-.33,3.75-.54,2.46-.43,3.66-.7c9.63-2,18.28-5.76,24.92-11.09a35.51,35.51,0,0,0,11.06-14.06,29.78,29.78,0,0,0,1.94-5.26,57.73,57.73,0,0,0,1.86-12.47C239.9,468.33,239.71,464.59,239.67,463.37Z" transform="matrix(-1, 0, 0, 1, 380, 0)" /><ellipse class="cls-2 color-body" cx="182.67" cy="463" rx="57.58" ry="25.42" transform="matrix(-1, 0, 0, 1, 380, 0)" style="fill:#ffffff;--backup-fill:#ffffff" /><path d="M240.21,463c-.11-.27-.14-1.13-.47-2.38a14.66,14.66,0,0,0-2.18-4.59c-2.34-3.47-6.91-6.87-12.27-9.44A75.78,75.78,0,0,0,208,441a102.62,102.62,0,0,0-14.76-2,135.56,135.56,0,0,0-20.59.35,109.46,109.46,0,0,0-20.92,3.9,69.4,69.4,0,0,0-10,3.74,40.87,40.87,0,0,0-8.83,5.47,16.73,16.73,0,0,0-5.58,7.74,10.27,10.27,0,0,0,1.43,8.55,22.32,22.32,0,0,0,5.86,5.89,45.26,45.26,0,0,0,7.54,4.25,80.74,80.74,0,0,0,16.64,5.22,127.57,127.57,0,0,0,33.62,2.16c10.8-.72,21-2.71,29.87-6.26a41.64,41.64,0,0,0,11.67-6.8,19,19,0,0,0,4-4.71,12,12,0,0,0,1.66-5.51,11.28,11.28,0,0,1-.85,5.67,19.13,19.13,0,0,1-3.8,5.7,41,41,0,0,1-12.39,8.46,76.89,76.89,0,0,1-23.56,6.51,130.92,130.92,0,0,1-14.72.63,135.53,135.53,0,0,1-14.23-.89,101.62,101.62,0,0,1-26.39-6.39,49.66,49.66,0,0,1-11.4-6.33,26.36,26.36,0,0,1-4.64-4.5,15.8,15.8,0,0,1-3-5.73,12.15,12.15,0,0,1,0-6.39,15.67,15.67,0,0,1,2.88-5.54,31.18,31.18,0,0,1,9.21-7.53A62.38,62.38,0,0,1,147.32,442,90.12,90.12,0,0,1,158,439.08a119.85,119.85,0,0,1,20.79-2.5,124.14,124.14,0,0,1,19.55.83,96.11,96.11,0,0,1,17.87,3.85c5.33,1.68,12.5,4.81,17.61,9.32a26.65,26.65,0,0,1,3.33,3.53,18.63,18.63,0,0,1,2.13,3.64A12.54,12.54,0,0,1,240.21,463Z" transform="matrix(-1, 0, 0, 1, 380, 0)" /><path class="cls-4" d="M235.5,491.65a63.45,63.45,0,0,0-26.92,5.57A62.22,62.22,0,0,0,187.5,513c4.57,5.6,4.08,11.91,5,18.76-3,5.24-6,12.24-5.41,19.44C188,562,194.58,568,204.82,568.44c7.84.31,16.58-3.8,21.82-9.86,6-7,8.86-14.58,9.65-24C236.5,520,237.24,507.76,235.5,491.65Z" transform="matrix(-1, 0, 0, 1, 380, 0)" /><path class="cls-2 color-body" d="M235.29,534.57c.13-8.72.47-17.43.28-26.15-.15-6.7,1.86-18.9-6.17-21.27a18.21,18.21,0,0,0-7-.39c-10.47,1.08-22.22,5.85-29.34,13.61a25.85,25.85,0,0,0-5.21,9.09c-1.35,3.91-.24,5.21,1.94,9.46,1.81,3.52,1.21,8.92,1.74,12.84-3,5.24-6,12.24-5.41,19.44C187,562,193.58,568,203.82,568.44c7.84.31,16.58-3.8,21.82-9.86C231.68,551.6,234.5,544,235.29,534.57Z" transform="matrix(-1, 0, 0, 1, 380, 0)" style="fill:#ffffff;--backup-fill:#ffffff" /><path class="cls-2 color-body" d="M187.5,513c4.57,5.6,4.08,11.91,5,18.76-3,5.24-6,12.24-5.41,19.44C188,562,194.58,568,204.82,568.44c7.84.31,16.58-3.8,21.82-9.86,6-7,8.86-14.58,9.65-24,.21-14.57,1-26.81-.79-42.92" transform="matrix(-1, 0, 0, 1, 380, 0)" style="fill:#ffffff;--backup-fill:#ffffff" /><path d="M235.56,491.64c.68.58,1.69,6.78,2.16,14s.47,15.46.73,20c.1,2,.2,4.06.31,6.13,0,1.07.11,2.12.1,3.24l-.09,1.73-.13,1.66a41.31,41.31,0,0,1-3.53,13.37,39.08,39.08,0,0,1-3.54,6.15c-.68,1-1.39,1.91-2.13,2.81-.38.46-.81.93-1.21,1.39l-1.3,1.3a34.17,34.17,0,0,1-12.18,7.35,29.47,29.47,0,0,1-6.07,1.42,27.27,27.27,0,0,1-6.32,0,25.17,25.17,0,0,1-6.22-1.54,19.62,19.62,0,0,1-5.64-3.43,18.9,18.9,0,0,1-4.13-5.08,21.8,21.8,0,0,1-2.24-5.79c-.25-1-.39-1.94-.54-2.91s-.21-1.9-.21-2.89a27.18,27.18,0,0,1,.47-5.68,36.23,36.23,0,0,1,3.48-9.87c.38-.74.77-1.46,1.18-2.16.2-.35.4-.69.61-1l.16-.26.08-.13,0,0,.11-.13.11-.13V531a2.68,2.68,0,0,0,0-.63l-.07-2.24a57.12,57.12,0,0,0-.51-8,17.48,17.48,0,0,0-2.41-6.46,13.48,13.48,0,0,1,5.34,5.69,40.23,40.23,0,0,1,3,8.72l.27,1.06.13.52.07.25c0,.09,0,.15.08.34.12.65.25,1.29.38,1.92,0,.08,0,.17,0,.24l-.1.22-.2.43-.42.88a10.62,10.62,0,0,0-.5,1.17l-.34.89c-.22.57-.43,1.14-.63,1.68-.77,2.16-1.35,3.95-1.84,5.15a22.18,22.18,0,0,0-1.71,7.37,19.42,19.42,0,0,0,1,7.29,13.18,13.18,0,0,0,3.94,5.7,15.39,15.39,0,0,0,6.32,3,22.4,22.4,0,0,0,13.83-1.44A26.65,26.65,0,0,0,226,556.88a35.32,35.32,0,0,0,6.1-11,39.46,39.46,0,0,0,1.46-5.83,49.87,49.87,0,0,0,.66-5.76c0-2,0-3.93,0-5.84s.06-3.83.09-5.7q.15-5.57.29-10.77c0-3.28.37-7.76.57-11.73S235.51,492.78,235.56,491.64Z" transform="matrix(-1, 0, 0, 1, 380, 0)" /><path d="M188,515.4c-.31-.1-.55-.77-.74-1.78-.05-.51-.08-1.11-.09-1.76s.08-1.35.17-2.08a36.1,36.1,0,0,1,2.38-7.76,26.34,26.34,0,0,1,5.65-8.81,43.89,43.89,0,0,1,8.16-6.75,40.33,40.33,0,0,1,16-6.15,27.49,27.49,0,0,1,14,1.23,44.84,44.84,0,0,1-6.13,3.94c-2,1.07-3.8,1.85-4.86,1.78a28.17,28.17,0,0,0-12,1.87,32.2,32.2,0,0,0-9.28,5.52,35.85,35.85,0,0,0-6.25,6.93,48.29,48.29,0,0,0-3.86,6.85c-.47,1.05-1.23,2.47-1.87,3.84S188.21,515,188,515.4Z" transform="matrix(-1, 0, 0, 1, 380, 0)" /><path class="cls-3 color-suit1" d="M185.89,489.44a107.39,107.39,0,0,1-22.6-.47c-3.51-.49-13.1-2.8-14.45-3.11-1.1-.25-2-.35-2.14-1.63,0-.45.61-4.92.94-4.87l4.46.66c6,.89,11.87,1.9,17.89,2.44,4.9.45,10.28,1.09,15.15.06A26.9,26.9,0,0,0,185.89,489.44Z" transform="matrix(-1, 0, 0, 1, 380, 0)" /><path d="M185.86,489.45a5.51,5.51,0,0,1-.78-2.16,19.78,19.78,0,0,1-.36-2.16l-.11-1c0-.3,0-.61,0-.91-.38.08-.76.17-1.13.23a5.24,5.24,0,0,1-.63.1,7.89,7.89,0,0,1-.85.1c-1.13.12-2.26.18-3.34.19-2.17,0-4.14-.06-5.51-.08-2.25-.05-4.58-.12-7-.3s-4.81-.44-7.22-.73l-7.2-.93-1.79-.23-.85-.11H149s-.05,0,0,.06v.05l-.1.69c-.07.48-.13,1-.18,1.43v.1h0l1.35.31,5.79,1.34c1.91.44,3.79.89,5.62,1.28.94.19,1.77.37,2.68.5l2.69.39c7.12.92,13.7,1.07,19,1.25a37.75,37.75,0,0,1-9.07,2.36,30.92,30.92,0,0,1-8.16.27c-1.66-.27-3.29-.57-4.88-.89s-3.18-.74-4.68-1.14l-8.7-2.33-2.08-.54c-.17,0-.42-.1-.66-.18a3.22,3.22,0,0,1-.68-.31,2,2,0,0,1-.89-1.11,2.78,2.78,0,0,1-.1-1.43l.15-1.08c.12-.73.2-1.28.42-2.3A3.83,3.83,0,0,1,147,479a.88.88,0,0,1,.19-.24c.09-.05.2,0,.3,0l.61,0c.41,0,.9.12,1.35.17l1,.14,3.85.54c5.06.71,9.77,1.33,14.18,1.72s8.56.81,12.32.77c.59,0,1.26,0,2-.07.43,0,1.06-.1,1.58-.15l1.59-.2c-.08,1.12-.17,2.22-.19,3.13,0,.71,0,1.41,0,2C185.72,488,185.82,489,185.86,489.45Z" transform="matrix(-1, 0, 0, 1, 380, 0)" /><path class="cls-5 color-suit3" d="M239.46,467.48c-11.6,12.76-49.77,14.86-67,15.08,2.5,6.5,12.64,11.61,18.32,14.63,6.71,3.57,18.94,9.72,25.59,3.16,3.68-3.64,6.16-10.31,11.67-4,4.18,4.77,3.54,12.22,6.32,17.7,1.8,4.63,7,4.28,10.19,1,16.36-17.26,17.38,19.83,41.37,11.27,10.36-2.85,8.48-15.34.07-20.13-5.18-3.31-11.46-4.7-16.33-8.44-11.73-9-13.31-32.67-30.91-33.38" transform="matrix(-1, 0, 0, 1, 380, 0)" /><path d="M238.74,464.33a11.7,11.7,0,0,1,2.82.13,16.06,16.06,0,0,1,5.69,2.09,22.83,22.83,0,0,1,6.15,5.78,65.38,65.38,0,0,1,5.24,8.43c1.65,3,3.29,6.18,5.17,9.13a27,27,0,0,0,6.71,7.52,41,41,0,0,0,8.25,4.22,61.1,61.1,0,0,1,7.07,3.3c.75.42,1.55.94,2.33,1.45a15.6,15.6,0,0,1,2.1,1.89,14.39,14.39,0,0,1,3.08,4.84,12.63,12.63,0,0,1,.82,5.88,9.46,9.46,0,0,1-2.6,5.62,10.72,10.72,0,0,1-2.51,1.9l-.68.38c-.23.12-.48.19-.71.29l-1.35.49a23.47,23.47,0,0,1-5.76,1.34,16.7,16.7,0,0,1-6.08-.47A18.9,18.9,0,0,1,269,526c-3.37-2.27-5.92-5.28-8.41-8.05a38,38,0,0,0-3.77-3.83,11,11,0,0,0-2-1.36,5,5,0,0,0-2-.52,6.45,6.45,0,0,0-4,1.52c-.34.21-.65.53-1,.78a8.48,8.48,0,0,0-.95.86l-.93.93a13.33,13.33,0,0,1-1.26,1.11,8.81,8.81,0,0,1-6.58,1.87,6.64,6.64,0,0,1-3.41-1.59,7.84,7.84,0,0,1-2-3l.08.17c-1.62-3.25-2.1-6.43-2.78-9.29-.71-3.16-1.59-6.1-3.47-8.09l-.73-.75-.74-.58a2.21,2.21,0,0,0-1.16-.43,2.06,2.06,0,0,0-1.09.48,10.84,10.84,0,0,0-1.44,1.44c-1,1.14-2,2.52-3.24,3.84a11.87,11.87,0,0,1-4.92,3.06,14.88,14.88,0,0,1-5.53.63,22.92,22.92,0,0,1-2.64-.3c-.84-.19-1.71-.33-2.52-.58a50.84,50.84,0,0,1-9.24-3.67c-2.9-1.47-5.62-2.95-8.4-4.51a58.53,58.53,0,0,1-8-5.31,27.53,27.53,0,0,1-3.5-3.42c-.14-.15-.26-.32-.39-.49l-.62-.83a11.45,11.45,0,0,1-1-1.75c-.59-1.12-1.17-2.41-1.65-3.52l7.89-.11,4.89-.14c3.23-.12,6.42-.29,9.55-.51,6.26-.44,12.3-1.08,18-2a102.75,102.75,0,0,0,16.18-3.8c5-1.69,9.56-3.87,12.81-7.16-2.34,3.22-6.67,6.14-11.64,8.35a86.2,86.2,0,0,1-16.19,5.17,153.39,153.39,0,0,1-27.47,3.53c-2,.05-3.92.08-5.79.1h-2.11l-.47-.06c-.07.07,0,.26.11.41l.07.11,0,0,.1.13a1.71,1.71,0,0,0,.2.27l.88,1a29.92,29.92,0,0,0,4.19,3.63,86.77,86.77,0,0,0,9.6,5.88,76.22,76.22,0,0,0,9.89,4.81,34.83,34.83,0,0,0,5.08,1.46,17,17,0,0,0,5.07.2A9,9,0,0,0,215,500.3a22.83,22.83,0,0,0,3.43-3.72,24.27,24.27,0,0,1,1.83-2,6.32,6.32,0,0,1,2.55-1.52,7.82,7.82,0,0,1,.8-.13l.82.05a4.91,4.91,0,0,1,.75.21l.37.12.32.18.64.37c.2.13.37.29.55.43l.54.44.47.49a13.75,13.75,0,0,1,2.89,4.46,29.89,29.89,0,0,1,1.47,4.88c.73,3.23,1.24,6.42,2.6,9.13l0,0,0,0a4.56,4.56,0,0,0,2.35,2.62,5,5,0,0,0,3.53.07,8.08,8.08,0,0,0,3.12-2l1.5-1.47c.55-.45,1.07-.93,1.65-1.34a11.31,11.31,0,0,1,3.93-1.86,7.1,7.1,0,0,1,4.39.51c2.68,1.23,4.49,3.32,6.26,5.22s3.39,3.88,5.18,5.61a21.64,21.64,0,0,0,5.85,4.19,14.24,14.24,0,0,0,6.71,1.34,22.63,22.63,0,0,0,6.72-1.51,8.15,8.15,0,0,0,4.77-3.82,6.57,6.57,0,0,0,.58-1.4c.15-.49.18-1,.29-1.5s0-1,0-1.54a11.35,11.35,0,0,0-.25-1.53,12.55,12.55,0,0,0-2.86-5.43,17.63,17.63,0,0,0-5-3.7c-3.7-2-7.8-3.35-11.57-5.47a23.14,23.14,0,0,1-5.2-3.85,30,30,0,0,1-3.91-4.89,89.66,89.66,0,0,1-5.26-9.56,72.52,72.52,0,0,0-5.79-10.09,24.57,24.57,0,0,0-3.59-3.95,17.88,17.88,0,0,0-3.89-2.55A18.64,18.64,0,0,0,238.74,464.33Z" transform="matrix(-1, 0, 0, 1, 380, 0)" /><path class="cls-1 color-suit2" d="M126,469.33c4.29,18.44-30.81,26.1-22.44,35.57,5.15,4.46,16.5-8.22,20-1.42.5,3.63-4.77,8.51-.89,11.49,5.78,2.18,12.87-.27,14.36-4.76-5.25-10.66-12.13-29.95-10.71-42.12" transform="matrix(-1, 0, 0, 1, 380, 0)" /><path d="M126.32,468.09a5.26,5.26,0,0,1,.11,1.28c0,.34,0,.74,0,1.19s0,1,.08,1.5a55.71,55.71,0,0,0,1,8.11,93.78,93.78,0,0,0,2.29,9.17c.91,2.9,1.81,5.5,2.57,7.31,1.31,3.21,2.75,6.51,4.34,9.79l.6,1.23L138,509l.53,1.1c.07.09,0,.18,0,.27l-.12.28-.23.57a4.47,4.47,0,0,1-.48,1,5.37,5.37,0,0,1-.47.73,11.31,11.31,0,0,1-5.32,3.73,15.43,15.43,0,0,1-6.29.77,14.11,14.11,0,0,1-3.15-.65l-.62-.2c-.22-.05-.34-.27-.53-.4l-.44-.4a2.16,2.16,0,0,1-.35-.38,6.13,6.13,0,0,1-.6-.9,8.18,8.18,0,0,1-.39-1,7,7,0,0,1,.23-3.74c.32-1,.7-1.92,1-2.76a13.65,13.65,0,0,0,.75-2.28,4.32,4.32,0,0,0,.06-.45.72.72,0,0,0,0-.2c0-.06,0,0,0,0s0,0,0,0a1.51,1.51,0,0,0-.2-.26,1.25,1.25,0,0,0-.86-.42,4.52,4.52,0,0,0-1.62.18,27.13,27.13,0,0,0-4,1.58c-1.41.64-2.87,1.33-4.46,1.89a15.32,15.32,0,0,1-2.59.68,7.92,7.92,0,0,1-3.06-.05,6.35,6.35,0,0,1-1.59-.63,5,5,0,0,1-.75-.51,2.88,2.88,0,0,1-.69-.73,6.78,6.78,0,0,1-.82-1.31c-.11-.24-.23-.49-.33-.74s-.14-.56-.19-.84a5.75,5.75,0,0,1-.07-1.71,8,8,0,0,1,.42-1.55,6.91,6.91,0,0,1,.67-1.3,7.58,7.58,0,0,1,.78-1.09,36.87,36.87,0,0,1,7-6c4.65-3.33,9.09-6.32,12.26-9.94a17.46,17.46,0,0,0,3.5-5.77,13.06,13.06,0,0,0,.46-6.11,11.51,11.51,0,0,1,1,6.53,17.56,17.56,0,0,1-3.13,7.4,33.92,33.92,0,0,1-5,5.58,38.48,38.48,0,0,1-4.21,3.34c-2.15,1.43-4.25,2.79-6.17,4.23a24.61,24.61,0,0,0-2.64,2.26,6.62,6.62,0,0,0-1.62,2.47,2.74,2.74,0,0,0,.45,2.42,2.43,2.43,0,0,0,2.12,1.13,8.62,8.62,0,0,0,3.05-.48,31.72,31.72,0,0,0,3.1-1.18,35.16,35.16,0,0,1,6.43-2.38,6.91,6.91,0,0,1,1.83-.12,3.89,3.89,0,0,1,1.88.57,4.15,4.15,0,0,1,1.4,1.36c.17.33.47.63.4,1a4.11,4.11,0,0,1,0,1,12.82,12.82,0,0,1-1,3.21,28.59,28.59,0,0,0-1.07,2.82,3.82,3.82,0,0,0-.06,2.49l.11.27.17.23.16.23.23.21a.65.65,0,0,0,.37.23l.62.2a11.91,11.91,0,0,0,10.2-1.84,6.11,6.11,0,0,0,1.58-1.8,2.16,2.16,0,0,0,.19-.36c0-.11.12-.22.09-.32l-.43-.86q-1.2-2.44-2.23-4.86a104.77,104.77,0,0,1-6.17-18.65,54.37,54.37,0,0,1-1.31-10.29V473c.06-.79.11-1.52.16-2.18C126.05,469.55,126.25,468.57,126.32,468.09Z" transform="matrix(-1, 0, 0, 1, 380, 0)" /><path class="cls-5 color-suit3" d="M124.85,464.32c4.59,14.85-9.75,22.75-20.31,31.59,8.37-7.36,19.64-11.43,30.81-13.67,4.07.25,2.7,8.38,5.72,11.13,7.26,6,12.47-12.91,17.55-12.58-11-.71-37.5-7.38-31.55-22.45" transform="matrix(-1, 0, 0, 1, 380, 0)" /><path d="M127.1,458.35a22.68,22.68,0,0,0-.48,4.3,9.11,9.11,0,0,0,1,3.84,13,13,0,0,0,2.91,3.72,29.63,29.63,0,0,0,8.85,5.21,51.14,51.14,0,0,0,8.15,2.49c1.33.29,2.68.53,4.09.76.72.12,1.4.22,2.19.32,1.24.16,2.49.32,3.91.42a4,4,0,0,0,.21.49l.22.36.11.19.12.11.22.23c-.12-.08-.27-.1-.41.11a5.61,5.61,0,0,0-.5,1.79l-.85.65a6.27,6.27,0,0,0-.61.67l-.29.33c-.1.11-.11.15-.17.22l-.3.4c-.39.55-.78,1.11-1.16,1.69-.78,1.16-1.55,2.37-2.4,3.58a26.71,26.71,0,0,1-2.9,3.57,11.26,11.26,0,0,1-2,1.59,6.18,6.18,0,0,1-2.84.89,5.44,5.44,0,0,1-3-.71,7.63,7.63,0,0,1-1.21-.79,6.38,6.38,0,0,1-1-1.18,13.68,13.68,0,0,1-1.76-4.64,26.32,26.32,0,0,0-1-3.81,2.41,2.41,0,0,0-.59-.89c-.08,0-.13-.08-.13-.06h0l-.07,0-.25,0a88.12,88.12,0,0,0-16,5,52.3,52.3,0,0,0-13.35,8.07l-2.44-2.84c6.21-5,12.44-9,16.71-13.9a18.84,18.84,0,0,0,4.35-7.91,18,18,0,0,0-.1-8.17,15.83,15.83,0,0,1,1.87,7.1,17.33,17.33,0,0,1-2.34,8.57,29.88,29.88,0,0,1-5.13,6.64,38.57,38.57,0,0,1-4.52,3.94c-3.13,2.26-6.19,4.35-8.71,6.28l-1.89-2.2a59.29,59.29,0,0,1,17-9.34c2.91-1.06,5.81-1.93,8.67-2.66,1.44-.36,2.86-.69,4.28-1l1.06-.22.63-.13a2.55,2.55,0,0,1,.72.1,3.23,3.23,0,0,1,2.14,1.57,13.18,13.18,0,0,1,1.41,4.2,22.61,22.61,0,0,0,1,3.8,5.87,5.87,0,0,0,.41.79l.23.37.26.29a4.17,4.17,0,0,0,1.38.9,3.21,3.21,0,0,0,3-.38c1.93-1.26,3.38-3.39,4.76-5.38.7-1,1.38-2,2.06-3,.35-.5.7-1,1.08-1.49l.43-.56c.1-.13.2-.23.3-.34a3.06,3.06,0,0,1,.76-.65,1.21,1.21,0,0,1,.63-.16c-.47,0-.93-.06-1.34-.11l-.71-.08-.34-.05-.66-.1c-1-.16-1.94-.35-2.89-.55q-2.85-.58-5.52-1.4A45.76,45.76,0,0,1,134.5,475a22.75,22.75,0,0,1-4.53-3.37,13.84,13.84,0,0,1-3.46-5.12,9.59,9.59,0,0,1-.41-5.26A13.32,13.32,0,0,1,127.1,458.35Z" transform="matrix(-1, 0, 0, 1, 380, 0)" /><path class="cls-1 color-suit2" d="M151.75,484.28c0,.17-.53.75-1.34,1.26a4.17,4.17,0,0,1-2.67.67,2.45,2.45,0,0,1-1.44-.65,4,4,0,0,1-.72-1,.21.21,0,0,1-.05-.09s0,0,0,0a.63.63,0,0,0-.11.15.33.33,0,0,0,0,.1v0c-.13.16-.33.39-.51.57a4.73,4.73,0,0,1-1.42,1,3,3,0,0,1-1.9.11,3.37,3.37,0,0,1-1.45-.87A5.24,5.24,0,0,1,138.7,481c.42.56.9,1.22,1.37,1.73a10.18,10.18,0,0,1,1,1.15,1.5,1.5,0,0,0,2.19.83,3.15,3.15,0,0,0,.61-.42,3.45,3.45,0,0,0,.28-.26c.08-.09.17-.17.3-.33a10.86,10.86,0,0,1,1.36-1.45c.25,0,.54-.14.7-.14a.64.64,0,0,0-.16.56,2.19,2.19,0,0,0,.35.72l-.05.33a.57.57,0,0,0,0,.24,1.12,1.12,0,0,0,.06.23l.06.11a2,2,0,0,0,.25.37,1.59,1.59,0,0,0,.67.45,2.67,2.67,0,0,0,1.63,0A22.61,22.61,0,0,0,151.75,484.28Z" transform="matrix(-1, 0, 0, 1, 380, 0)" /><path class="cls-1 color-suit2" d="M130.44,479.7c.08.13-.08.39-.32.63s-.58.47-.75.65a3.59,3.59,0,0,1-2.48.92,7.36,7.36,0,0,1-1.55-.24,4.22,4.22,0,0,1-.3-1.38,2.18,2.18,0,0,1,.24-1.06,1.92,1.92,0,0,1,1.16-1c.21.95.68,1.48.52,1.58s-.24.12-.31.23a.47.47,0,0,0-.1.34c.19.25,1,.21,1.53,0s.93-.46,1.36-.59A4.18,4.18,0,0,1,130.44,479.7Z" transform="matrix(-1, 0, 0, 1, 380, 0)" /><path class="cls-1 color-suit2" d="M217.17,480.38a1.56,1.56,0,0,1,.73,1.06,3.36,3.36,0,0,1-.51,2.66,3.27,3.27,0,0,1-1.21,1.12,4.18,4.18,0,0,1-1.56.46,5.49,5.49,0,0,1-1.48-.07l-.51-.11-.25-.07h-.06l-.23-.08-.09,0s-.1-.06,0,0a1.84,1.84,0,0,1,.28.56l0,.12v.27a4.59,4.59,0,0,1-.1.83,5,5,0,0,1-.66,1.56,4.78,4.78,0,0,1-2.79,2,7.78,7.78,0,0,1-6.28-1.24,6.1,6.1,0,0,1-2.18-2.52l1.67-1a4.06,4.06,0,0,1,.86,3.28,5,5,0,0,1-1.46,2.79,6.6,6.6,0,0,1-2.47,1.52,6.67,6.67,0,0,1-1.36.31,11,11,0,0,1-1.28.09,8.09,8.09,0,0,1-4.62-1.21,11.83,11.83,0,0,1-2.88-2.72,19.76,19.76,0,0,0,4.09,1.85,13.13,13.13,0,0,0,3.56.26,6,6,0,0,0,2.27-.31,4.78,4.78,0,0,0,1.84-1.2,3,3,0,0,0,.37-3.73l.72-.46a5.21,5.21,0,0,0,2.57,2.54,6.57,6.57,0,0,0,3.4.71,3.87,3.87,0,0,0,2.74-1.34,3.66,3.66,0,0,0,.67-1.28,3.33,3.33,0,0,0,.12-.69,2.93,2.93,0,0,0,0-.43,6.57,6.57,0,0,0-.21-.68c.27-.54.23-.77.14-1s.05,0,.1,0a1.12,1.12,0,0,0,.2,0,1.69,1.69,0,0,0,.55-.15,7.44,7.44,0,0,0,.74.38c.24.09.5.18.59.2a4.85,4.85,0,0,0,.82.14,3.93,3.93,0,0,0,1.54-.18,3.11,3.11,0,0,0,1.89-2A2.49,2.49,0,0,0,217.17,480.38Z" transform="matrix(-1, 0, 0, 1, 380, 0)" /><path class="cls-1 color-suit2" d="M227.19,480.51a4.12,4.12,0,0,1,.39,2.72,8,8,0,0,1-1.52,3.69,5.63,5.63,0,0,1-2.16,1.85,3.69,3.69,0,0,1-1.58.4,3.41,3.41,0,0,1-.89-.09L221,489a.15.15,0,0,1-.09-.05c0-.09,0,.13,0,.16v.05s0,0,0,0l0,.18c0,.12-.05.24-.08.36a7.21,7.21,0,0,1-2.58,3.89,6.34,6.34,0,0,1-4.26,1.3,6.47,6.47,0,0,1-5.67-3.92,10,10,0,0,0,2.77,1.47c1,.33,1.87.42,2.33.55a4.64,4.64,0,0,0,4.4-1,5.67,5.67,0,0,0,1.37-1.8,5.82,5.82,0,0,0,.38-1l.06-.26a2.3,2.3,0,0,0,.05-.39,3.84,3.84,0,0,0,0-.84,1.21,1.21,0,0,0,.24-.39.68.68,0,0,0,0-.5l-.07-.35,0-.09h0l.15.38h0v.12a.59.59,0,0,0,.14.27,1.17,1.17,0,0,0,.82.31l.09.15.09.07a1.36,1.36,0,0,0,.17.12l.29.13a2.26,2.26,0,0,0,.44.08,2.45,2.45,0,0,0,.89-.11,4.26,4.26,0,0,0,1.56-.89,7.12,7.12,0,0,0,1.94-2.75,10.22,10.22,0,0,0,.58-2.05A8.32,8.32,0,0,0,227.19,480.51Z" transform="matrix(-1, 0, 0, 1, 380, 0)" /><path class="cls-1 color-suit2" d="M247.88,473.3c.08-.06.63,0,1.08.62a1.88,1.88,0,0,1,.42,1.2,1.21,1.21,0,0,1-.3.75,4.55,4.55,0,0,1-.55.52,3,3,0,0,1-1.48.58,4.33,4.33,0,0,1-1.54-.14l-.54-.16-.33-.1c-.08,0-.2-.09-.24-.05l0,.29c0,.1,0,.19,0,.28a2.41,2.41,0,0,1,0,.37,5.57,5.57,0,0,1-.16,1.2,3.89,3.89,0,0,1-1.41,2.25,4.24,4.24,0,0,1-2.63.77,7,7,0,0,1-1.31-.17l-.41-.09s-.09,0-.08,0a.49.49,0,0,1,.07.11s0,0,0,.06,0,0,0,.26a5.56,5.56,0,0,1,0,1,4.32,4.32,0,0,1-.94,2.53,2.72,2.72,0,0,1-1.4.86,2.57,2.57,0,0,1-1.62-.18,3.2,3.2,0,0,1-.61-.33l-.25-.18s0,0,0,0h0s0,0,0,0l0,0h0l0,.12,0,.22-.08.46a5,5,0,0,1-.71,1.84,3.61,3.61,0,0,1-1.51,1.3,5,5,0,0,1-1.72.45,4.59,4.59,0,0,1-4.68-3,4.79,4.79,0,0,0,3.64,1.61,3.93,3.93,0,0,0,1.67-.46,4.09,4.09,0,0,0,.89-.62,2.77,2.77,0,0,0,.71-1.29c0-.13.06-.27.1-.4s0-.14,0-.21l0-.27c0-.51.08-1,.11-1.47a1.11,1.11,0,0,1,.13-.39,1.2,1.2,0,0,1,.14-.3l.14-.21a.29.29,0,0,1,.3-.1l.47.26a2.71,2.71,0,0,1,.7.65,5,5,0,0,0,.69.69,2.16,2.16,0,0,0,.45.29,1.07,1.07,0,0,0,.88.11,2,2,0,0,0,1.1-1.56,4.88,4.88,0,0,0,.1-1.08,4.06,4.06,0,0,0-.25-1.38,1.44,1.44,0,0,0,0-1c-.09-.1,0-.05.11,0l.23,0a1.42,1.42,0,0,0,.53,0,9.73,9.73,0,0,0,1.17.46,8.19,8.19,0,0,0,.83.17,4.07,4.07,0,0,0,1.53-.1,2.56,2.56,0,0,0,1.16-.71,2.91,2.91,0,0,0,.63-1.19,3.07,3.07,0,0,0,.14-.67,1.34,1.34,0,0,0,0-.35l0-.46,0-1.17c0-.33-.17-1,.34-.6l1,.42.5.2.23.09.16.05a4,4,0,0,0,1.17.24,2.66,2.66,0,0,0,1.18-.26,3.74,3.74,0,0,0,.58-.4.66.66,0,0,0,.27-.48,1.68,1.68,0,0,0-.35-1.17A1.59,1.59,0,0,0,247.88,473.3Z" transform="matrix(-1, 0, 0, 1, 380, 0)" /><path class="cls-1 color-suit2" d="M231.57,490.35c.17,0,.36.3.66.58a2.16,2.16,0,0,0,1,.58,3.4,3.4,0,0,0,2.39-.25,4.36,4.36,0,0,0,1.78-3.14,1.67,1.67,0,0,1,1.17.89,1.29,1.29,0,0,1,.14,1.14,5.32,5.32,0,0,1-3.62,2.66,3.39,3.39,0,0,1-3.15-1,1.61,1.61,0,0,1-.32-.8A2,2,0,0,1,231.57,490.35Z" transform="matrix(-1, 0, 0, 1, 380, 0)" /><path class="cls-1 color-suit2" d="M237,491.58c.25-.17,1.39.71,2,.76a4.52,4.52,0,0,0,2.52,0,2.76,2.76,0,0,0,1.38-2.84,1.48,1.48,0,0,1,1.31.64,1.32,1.32,0,0,1,.29,1.16,4.45,4.45,0,0,1-1.71,2,4,4,0,0,1-2,.54,4.64,4.64,0,0,1-3-1A3,3,0,0,1,237,491.58Z" transform="matrix(-1, 0, 0, 1, 380, 0)" /><path class="cls-1 color-suit2" d="M255.25,494.88c.15-.06,1,.6,1.34,1.76a5.42,5.42,0,0,1-.09,3.23,4.09,4.09,0,0,1-2.91,2.72,5.15,5.15,0,0,1-2.14.08,5.26,5.26,0,0,1-1-.29l-.13-.05h-.07a.08.08,0,0,0,0,0h0c0,.06,0-.23-.08.45a5,5,0,0,1-.5,1.41,3.83,3.83,0,0,1-2.16,1.83A3.74,3.74,0,0,1,245,506a2.66,2.66,0,0,1-1.53-1.4,3.09,3.09,0,0,0,2.38.25,7.32,7.32,0,0,0,1.43-.69,2.2,2.2,0,0,0,1.07-1.08,3.33,3.33,0,0,0,.26-.79,2,2,0,0,0,0-.32,1.53,1.53,0,0,0,0-.37l0-.39a2.57,2.57,0,0,0-.11-.44.89.89,0,0,0,.32-.59,1.19,1.19,0,0,0-.08-.46,1.25,1.25,0,0,0,1.1.67l.43.43.41.23a3,3,0,0,0,.6.24,4.2,4.2,0,0,0,1.15.16,3.43,3.43,0,0,0,2-.62,4,4,0,0,0,1.48-3.18,6.5,6.5,0,0,0-.16-1.63A4.8,4.8,0,0,0,255.25,494.88Z" transform="matrix(-1, 0, 0, 1, 380, 0)" /><path class="cls-1 color-suit2" d="M256.78,501.8c.14-.07.58.28.79.88a4,4,0,0,1,.18,1.71,3.06,3.06,0,0,1-1,2.11,4.4,4.4,0,0,1-2.18,1,4.88,4.88,0,0,1-3.65-.84,5.41,5.41,0,0,1-1.84-2.21,4.44,4.44,0,0,1,2.53.46,3.17,3.17,0,0,0,1.91,1.21,2.8,2.8,0,0,0,3.38-2.88c0-.21,0-.5,0-.8A2.93,2.93,0,0,0,256.78,501.8Z" transform="matrix(-1, 0, 0, 1, 380, 0)" /><path class="cls-1 color-suit2" d="M269.55,500.5c.07,0,.26,0,.48.22a1.92,1.92,0,0,1,.52.94,3.2,3.2,0,0,1-.36,2.25,3,3,0,0,1-2.19,1.43,4,4,0,0,1-.69,0h-.37s-.06,0-.06,0l.05.08s0,0,0,.07a4.22,4.22,0,0,1-.14.69,3.9,3.9,0,0,1-.6,1.25A3.69,3.69,0,0,1,264,509a3.41,3.41,0,0,1-3.66-1.47,6.61,6.61,0,0,0,1.8-.06,4.77,4.77,0,0,1,1.09-.2,1.93,1.93,0,0,0,1.95-.89,2.35,2.35,0,0,0,.4-1.1,6.75,6.75,0,0,0-.34-1.92,6.16,6.16,0,0,0,2.14.79,2.53,2.53,0,0,0,1.23-.25,2.1,2.1,0,0,0,1.17-1.58,3.46,3.46,0,0,0,.07-1A2,2,0,0,0,269.55,500.5Z" transform="matrix(-1, 0, 0, 1, 380, 0)" /><path class="cls-1 color-suit2" d="M273.14,505.18c.16,0,.4.3.51.77a5.59,5.59,0,0,1,.11,1.34,3.3,3.3,0,0,1-2.06,3,3.47,3.47,0,0,1-3.14-.23,2.73,2.73,0,0,1-1.37-2.05c1,.18,1.86.06,2,.29a1.73,1.73,0,0,0,1.41.8,1.76,1.76,0,0,0,1.36-.53,3.93,3.93,0,0,0,.91-2.23C272.93,506.06,273.13,505.36,273.14,505.18Z" transform="matrix(-1, 0, 0, 1, 380, 0)" /><path class="cls-1 color-suit2" d="M275.69,509.35c.08,0,.25.12.39.4a1.9,1.9,0,0,1,.1,1.16,4.19,4.19,0,0,1-1.24,2A3.59,3.59,0,0,1,272,514a3,3,0,0,1-1.69-.8,2.74,2.74,0,0,1-.85-1.8l1.89-.25.05.19a5.62,5.62,0,0,1-1,5.11,3.43,3.43,0,0,1-4.07,1,4.42,4.42,0,0,0,1.57-1,6.5,6.5,0,0,1,.84-.87,2.7,2.7,0,0,0,1.27-1.81,4.93,4.93,0,0,0,0-2.26l.76-.09a1.45,1.45,0,0,0,.83,1.21,2,2,0,0,0,1.42.11,3.64,3.64,0,0,0,1.24-.63,4.11,4.11,0,0,0,.87-.9,3.93,3.93,0,0,0,.51-1A1.72,1.72,0,0,0,275.69,509.35Z" transform="matrix(-1, 0, 0, 1, 380, 0)" /><path class="cls-1 color-suit2" d="M281.69,513.11c.36,0,.51,1.43.57,2a4.12,4.12,0,0,1-.93,3.29,3.75,3.75,0,0,1-2.64,1.38,2.72,2.72,0,0,1-2.25-.85c.91-.47,1.5-1.05,1.74-1a1.93,1.93,0,0,0,1.63-.11,2.37,2.37,0,0,0,1-1.11,8.73,8.73,0,0,0,.47-2.49A6,6,0,0,1,281.69,513.11Z" transform="matrix(-1, 0, 0, 1, 380, 0)" /><path class="cls-1 color-suit2" d="M208.21,491.52c.18,0,.34.68.13,1.37a9.89,9.89,0,0,1-.79,1.78,5.37,5.37,0,0,1-1.66,2,4.91,4.91,0,0,1-2.7.84,4.67,4.67,0,0,1-2.31-.56,6.87,6.87,0,0,1-1.68-1.25,16.38,16.38,0,0,1-1.92-2.55,3,3,0,0,1,1.76.24,2.58,2.58,0,0,1,1.11.67,4.47,4.47,0,0,0,2.06,1.87,3,3,0,0,0,2.37,0,4.3,4.3,0,0,0,1.67-1.29,12.81,12.81,0,0,0,1.12-1.52c.14-.23.37-.54.55-.84A2.05,2.05,0,0,0,208.21,491.52Z" transform="matrix(-1, 0, 0, 1, 380, 0)" /></svg>