<svg xmlns="http://www.w3.org/2000/svg" viewBox="0 0 380 600"><defs><style>.cls-1{fill:#ffffff;}.cls-2{fill:#fff;}.cls-3{fill:#454546;}.cls-4{fill:#ea0027;}.cls-5{fill:#0078ef;}</style></defs><g data-name="Uncle Sam" id="Uncle_Sam"><g id="default"><ellipse class="cls-1 color-body" cx="197.08" cy="463.2" rx="57.54" ry="25.41" style="fill:#ffffff;--backup-fill:#ffffff"></ellipse><path d="M139.51,463.2a7.58,7.58,0,0,1,.06-2.48,13.67,13.67,0,0,1,2-4.93c2.3-3.74,6.95-7.36,12.38-10.08a77.34,77.34,0,0,1,17.45-6,125.13,125.13,0,0,1,14.92-2.42,123.32,123.32,0,0,1,20.95-.44,106.31,106.31,0,0,1,21.6,3.5,70.43,70.43,0,0,1,10.51,3.76,43.27,43.27,0,0,1,9.69,5.83,20.2,20.2,0,0,1,6.85,9.45,13.4,13.4,0,0,1,.41,6.1,15.34,15.34,0,0,1-2.15,5.55,25.73,25.73,0,0,1-6.82,7,49,49,0,0,1-8.2,4.69,82.25,82.25,0,0,1-17.48,5.47A123.84,123.84,0,0,1,187,490c-11.08-1-21.56-3.35-30.59-7.41a42.37,42.37,0,0,1-11.95-7.75,20.3,20.3,0,0,1-4-5.39A13.09,13.09,0,0,1,139,463.2a13.35,13.35,0,0,0,2,5.64,20.4,20.4,0,0,0,4.52,4.89,45.05,45.05,0,0,0,12.71,6.67c9.1,3.27,18.22,4.49,23,5.25A116,116,0,0,0,195.44,487a119.5,119.5,0,0,0,13.94-.28,92.5,92.5,0,0,0,26-5.53,46.55,46.55,0,0,0,11.08-6c3.26-2.45,6.08-5.59,7.07-9.32a10.38,10.38,0,0,0,0-5.61,13.93,13.93,0,0,0-2.61-5,29.51,29.51,0,0,0-8.79-7.08,59.75,59.75,0,0,0-10.2-4.41,87.07,87.07,0,0,0-10.45-2.75,118,118,0,0,0-20.46-2.2,130.76,130.76,0,0,0-19.2.92,105,105,0,0,0-17.53,3.58c-5.21,1.57-12.31,4.2-17.52,8.2a26.44,26.44,0,0,0-3.45,3.16,18.79,18.79,0,0,0-2.33,3.34A12.9,12.9,0,0,0,139.51,463.2Z"></path></g><g data-name="default" id="default-2"><path class="cls-2" d="M254.62,465.37c-5.8,23.73-18.26,52.91-19.49,54.47,3.33,2.57,6.51,8.19,8.27,11.34,2.44,4.39,3,10,.8,14.5-3.81,7.81-14.16,9.86-22.59,8.13-9.72-2-16.62-7.79-22.44-15.91-4.49-6.26-4.1-13.86-4.54-21.57-.42-2.34-.39-19.36-.38-22.15"></path><path d="M194.31,494.18c.38.47.64,3.34.85,7.4.1,2,.21,4.35.32,6.82.06,1.23.12,2.5.19,3.79s.14,2.6.3,3.76c0,0,0,.22,0,.31.27,3.3.4,6.5.78,9.3a25.32,25.32,0,0,0,1.74,6.83,18.2,18.2,0,0,0,1.51,2.74,13.87,13.87,0,0,0,.91,1.26c.33.42.72.87,1.08,1.31a52.89,52.89,0,0,0,4.75,4.95,31.42,31.42,0,0,0,11.52,6.83,29.2,29.2,0,0,0,6.53,1.31,23.48,23.48,0,0,0,6.45-.38,16.66,16.66,0,0,0,5.59-2.15,10,10,0,0,0,3.59-3.81c1.65-2.91,1.47-7,0-10.28-.19-.44-.37-.76-.64-1.26l-.84-1.49c-.56-1-1.12-1.92-1.7-2.84s-1.17-1.79-1.78-2.61c-.3-.41-.61-.8-.91-1.18l-.56-.63L232.74,523c-.12-1-.23-1.88-.34-2.8s-.2-1.88-.3-2.8l2.06-4.41,1.61-3.58,3.07-7.1c2-4.67,3.88-9.21,5.64-13.57,3.53-8.71,6.56-16.7,9-23.61.46,5.1-.17,12.43-1.43,19.2s-3.07,13-4.54,16.06L242.91,510l-2.31,4.66-1.17,2.3-.59,1.15-.15.29-.07.09-.13.21c-.14.2-.27.42-.43.62s.13.17.19.27l.23.27.26.35c.23.28.47.56.68.85.43.56.83,1.13,1.22,1.7.77,1.14,1.47,2.3,2.13,3.45s1.27,2.3,1.87,3.44c.29.54.61,1.18.9,1.81s.53,1.29.74,1.94a18.65,18.65,0,0,1,.79,8.07,15.54,15.54,0,0,1-1,3.91,13.14,13.14,0,0,1-.9,1.8c-.17.28-.32.58-.51.86l-.59.8a16.45,16.45,0,0,1-6,4.8,23.92,23.92,0,0,1-7,2.08,31.24,31.24,0,0,1-13.7-1.21,34.51,34.51,0,0,1-11.46-6.2,48.64,48.64,0,0,1-8.33-8.9,21.52,21.52,0,0,1-2.95-5.45,28.3,28.3,0,0,1-1.4-5.71,84.39,84.39,0,0,1-.56-10.62c0-.32,0-.65,0-1.13v-.12a28.16,28.16,0,0,1-.05-3.18c0-1.07.08-2.17.15-3.29.14-2.23.33-4.51.54-6.63C193.67,499,194.13,495.41,194.31,494.18Z"></path></g><g data-name="default" id="default-3"><path class="cls-1 color-body" d="M254.62,463.57c-9,37.23-43.72,55.95-63.75,54.47-18.51-1.37-41.22-8.93-48.73-28.74-2.68-7.05-3.19-15.44-2-25.73" style="fill:#ffffff;--backup-fill:#ffffff"></path><path d="M140.17,463.58a44.76,44.76,0,0,1-.08,5,71.59,71.59,0,0,0,.32,10.23,36.92,36.92,0,0,0,2.93,11.29c.39.85.78,1.67,1.15,2.47s.9,1.48,1.31,2.17c.22.34.41.68.62,1l.68.87,1.22,1.56c5.53,6.51,13.63,11.26,22.38,14.14a79.1,79.1,0,0,0,13.47,3.15l3.41.43,3.4.29a34.24,34.24,0,0,0,6.48-.27,50.53,50.53,0,0,0,11-2.8,67,67,0,0,0,10.22-4.77A75.64,75.64,0,0,0,235.74,495a78.4,78.4,0,0,0,6.57-7.79,77.31,77.31,0,0,0,11.76-23.78,54.14,54.14,0,0,1-4.43,17.41,60.2,60.2,0,0,1-4.35,8.16c-.77,1.15-1.49,2.22-2.19,3.13s-1.33,1.68-1.88,2.28a80.31,80.31,0,0,1-30,20.72A53.58,53.58,0,0,1,195,518.83c-.67,0-1.35,0-2,0s-1.35,0-2-.07l-3.9-.36c-1.28-.18-2.56-.33-3.82-.52s-2.51-.42-3.74-.67c-9.82-2-18.82-5.53-25.88-11a40.11,40.11,0,0,1-8.86-9.39,37.48,37.48,0,0,1-2.88-5.45,28.89,28.89,0,0,1-1.91-5.62,43.85,43.85,0,0,1-1-13A75.87,75.87,0,0,1,140.17,463.58Z"></path></g><g data-name="default" id="default-4"><path class="cls-2" d="M144.27,491.83a63.31,63.31,0,0,1,26.91,5.58,62.2,62.2,0,0,1,21.07,15.76c-4.57,5.6-4.08,11.91-5,18.76,3,5.23,6,12.23,5.4,19.42-.89,10.77-7.48,16.82-17.71,17.23-7.84.32-16.57-3.8-21.81-9.85-6-7-8.85-14.57-9.64-24C143.28,520.17,142.54,507.94,144.27,491.83Z"></path><path class="cls-2" d="M192.25,513.17c-4.57,5.6-4.08,11.91-5,18.76,3,5.23,6,12.23,5.4,19.42-.89,10.77-7.48,16.82-17.71,17.23-7.84.32-16.57-3.8-21.81-9.85-6-7-8.85-14.57-9.64-24-.21-14.56-1-26.79.78-42.9"></path><path d="M144.33,491.84c.57.72.17,6.92.18,14.08s.33,15.29.79,19.83q.3,3,.56,6.12c.09,1,.13,2,.26,3l.23,1.41.27,1.49A40.25,40.25,0,0,0,150.55,549a35.31,35.31,0,0,0,3.24,5c.62.78,1.26,1.55,1.92,2.29.33.36.65.67,1,1l1,1a27,27,0,0,0,9.7,5.35,22.86,22.86,0,0,0,4.54.92,20.54,20.54,0,0,0,4.5-.06,14.47,14.47,0,0,0,7.62-3.07,13.35,13.35,0,0,0,4.16-6.76c.21-.67.34-1.39.49-2.09s.25-1.45.28-2.14a21.61,21.61,0,0,0-.08-4.25,33.27,33.27,0,0,0-2.17-8.38c-.26-.68-.53-1.35-.83-2l-.44-1-.11-.24-.06-.12-.11-.23-.44-.86c-.14-.28-.31-.56-.43-.85l.16-.94c.08-.52.17-1,.25-1.57l.36-2.12a48.13,48.13,0,0,1,1.93-8.49,21,21,0,0,1,1.85-3.81,18.25,18.25,0,0,1,2.48-3.09,24.57,24.57,0,0,0-1.41,7.72c-.05,2.76.31,5.65.49,8.67,0,.74.06,1.47.1,2.19l.11.21a1,1,0,0,0,.2.11c0-.11.3.39.48.64s.4.61.59.91c.38.6.73,1.21,1.06,1.8a22.2,22.2,0,0,1,2.39,6.22,32.15,32.15,0,0,1,.43,9.78,27.19,27.19,0,0,1-2.66,9,18.73,18.73,0,0,1-6.06,7,20.44,20.44,0,0,1-8.11,3.18c-.7.09-1.39.19-2.08.26s-1.37.08-2.05.1a26.09,26.09,0,0,1-4.07-.3,29.9,29.9,0,0,1-7.52-2.17,31.9,31.9,0,0,1-11.93-8.71,40.28,40.28,0,0,1-7.11-11.82,43.07,43.07,0,0,1-1.89-6.33,49.84,49.84,0,0,1-1-6.33c-.07-2-.14-4-.2-6s-.1-3.83-.15-5.7c-.06-3.74-.05-7.36.11-10.87a83.8,83.8,0,0,1,1.35-11.84C143.18,496.29,144,492.94,144.33,491.84Z"></path></g><g id="pants_tux"><path class="cls-3" d="M237.08,522.19a54.54,54.54,0,0,1,6.32,9.49c2.44,4.39,3,10,.8,14.5C240.39,554,230,556,221.61,554.31c-9.72-2-16.62-7.79-22.44-15.91-4.17-5.82-4.13-12.78-4.46-19.93a33.8,33.8,0,0,0,23.52,9.2A34.51,34.51,0,0,0,237.08,522.19Z"></path><path d="M237.11,522.24c-.08.41-1.26,1.51-3.32,2.7a30.53,30.53,0,0,1-8.27,3.23,37.61,37.61,0,0,1-10.28.93,44.77,44.77,0,0,1-8.47-1.24,32.43,32.43,0,0,1-6.83-2.42,9.4,9.4,0,0,1-1.77-.79s-.12-.1-.12,0l.06.34.12.62c.08.39.15.71.23,1l0,.2,0,.07.07.44c.11.61.22,1.23.36,1.82a22.08,22.08,0,0,0,1,3.4,17.59,17.59,0,0,0,1.55,3c.32.44.62.89,1,1.42s.79,1,1.2,1.49a43,43,0,0,0,5.13,5.29,38.12,38.12,0,0,0,3.53,2.64,32.28,32.28,0,0,0,3.78,2.06,27.45,27.45,0,0,0,4,1.48c.68.22,1.38.35,2.07.53s1.35.28,2,.34c5.45.73,11.18-.29,14.58-3.23a10.49,10.49,0,0,0,3.39-5.51,14.28,14.28,0,0,0-.11-6.72c-.14-.54-.31-1.08-.5-1.61l-.3-.77L241,532q-.76-1.71-1.53-3.3a47.37,47.37,0,0,0-3.24-5.78,21.41,21.41,0,0,1,5.83,4.21c1,.93,1.93,2,2.84,3a15.85,15.85,0,0,1,1.38,1.79,17.11,17.11,0,0,1,2.89,10.94,14.43,14.43,0,0,1-.88,3.89,13.25,13.25,0,0,1-1.5,2.75,18.27,18.27,0,0,1-5.09,4.53,20.77,20.77,0,0,1-5.77,2.37,30.2,30.2,0,0,1-11.26.53,36.05,36.05,0,0,1-18.34-8.36,48.77,48.77,0,0,1-6.47-6.74c-.48-.59-1-1.18-1.39-1.78s-.89-1.22-1.33-1.87a22.67,22.67,0,0,1-2-4.14,27,27,0,0,1-1.2-4.27c-.16-.71-.26-1.42-.37-2.12l-.17-1.36-.14-1.46c-.17-1.93-.28-3.85-.4-5.8l-.18-2.94-.08-1.47c0-.16,0-.13,0-.19l.08-.13.15-.27,2.26,2,2.37,2c.78.63,1.54,1.23,2.31,1.82s1.51,1,2.29,1.44l.77.4c.24.13.47.25.72.36.48.21,1,.46,1.44.65,1,.41,2,.77,2.93,1.08a39.12,39.12,0,0,0,11.64,1.78,49,49,0,0,0,10.21-1A40.24,40.24,0,0,0,237.11,522.24Z"></path><path class="cls-4" d="M252.42,471.85a217.65,217.65,0,0,1-10.5,32.79c-1.67,4.25-5.7,11-3.27,17.65.84,2.29-4.48-1-11.55,1.8-13.86,5.57-17.86,15.57-26.57,7.68-7.61-6.89-6.3-28.18-6.28-37.09"></path><path d="M194.29,494.68c.51.55.56,5.74.8,11.67.13,3,.36,6.12.74,9a40.19,40.19,0,0,0,1.52,7.08c1,3,2.42,6.08,4.59,7.85a9.25,9.25,0,0,0,3.71,2,5.41,5.41,0,0,0,3.63-.7,34.42,34.42,0,0,0,4.2-2.69c1.46-1,3-2.11,4.51-3.12a54.62,54.62,0,0,1,4.85-2.82c.83-.43,1.68-.84,2.53-1.21a20.24,20.24,0,0,1,2.79-1,19,19,0,0,1,3.58-.68c.6-.06,1.2-.09,1.79-.1h.88l.44,0H235s0,0,0,0,0,0,0,0h0l-.09-1a16.28,16.28,0,0,1,0-2.21,20.93,20.93,0,0,1,.73-4.14,44,44,0,0,1,2.77-7.07c1-2,1.8-4.18,2.68-6.25l2.52-6.11c3.25-8,5.74-15.35,7.94-21.5a60.19,60.19,0,0,1-.64,13.91,48.37,48.37,0,0,1-3.08,11.69l-2.9,6.12-1.45,3-1.47,2.88a27.8,27.8,0,0,0-2.19,5.55,14.87,14.87,0,0,0-.46,2.76,10.29,10.29,0,0,0,0,1.36,5.49,5.49,0,0,0,.07.84l.24,1.1a6.93,6.93,0,0,1,.15.87l0,.73c0,.23,0,.5,0,.7a.92.92,0,0,1-.24.62,2.27,2.27,0,0,1-1.31.51,7,7,0,0,1-1.6,0l-1.73-.17-.65,0-.57,0a15.29,15.29,0,0,0-2.25.08,15.09,15.09,0,0,0-4.25,1.08,39.51,39.51,0,0,0-4,1.91,72,72,0,0,0-7.36,4.71c-1.19.82-2.37,1.66-3.66,2.4a12.78,12.78,0,0,1-4.3,1.7,8.81,8.81,0,0,1-2.46,0,9.56,9.56,0,0,1-2.3-.67,14.76,14.76,0,0,1-3.66-2.43,16.9,16.9,0,0,1-4.39-7,47.51,47.51,0,0,1-2.28-14.25C192.55,506,194,496.54,194.29,494.68Z"></path><path class="cls-2" d="M231.73,480.79l-9.19,43.72s2.85-1.26,3.92-1.7,4.23-1.22,4.23-1.22l10.23-45.17Z"></path><path class="cls-2" d="M231.73,480.78a24.83,24.83,0,0,1,2.93-1.6l2.81-1.41,3.9-1.91c-.54,2.52-1.12,5.18-1.64,7.6-.46,2.22-.88,4.23-1.18,5.69-1,5.15-2.16,10.65-3.34,16.19-1.25,5.74-2.51,11.52-3.72,17l-1.85.48-1.75.5a10.57,10.57,0,0,0-1.64.62l-1.81.79-1.68.73-.84.37-.42.18-.21.09-.11.05s0-.07,0-.1c.64-3,1.27-6,1.89-9l3-13.61c2-8.7,3.81-16.55,5.41-22.79a168.71,168.71,0,0,1-3.07,20.69q-2.14,8.63-3.93,16.53c-.3,1.32-.59,2.62-.88,3.91l-.33,1.44-.06.27c0,.07-.1.26,0,.17l.5-.21,1.45-.62c.59-.24,1.17-.52,1.8-.71s1.22-.36,1.82-.52l1.58-.41q1.33-6,2.58-11.54t2.37-10.84c1.51-6.93,2.91-13.26,4.31-19.06.11-.48.24-1,.38-1.57.09-.32.18-.68.29-1.07Z"></path><path class="cls-2" d="M220.15,480.27a28.93,28.93,0,0,1-9.58,4.43l-4.48,48.11s2.51,1.07,8.75-3.59Z"></path><path class="cls-2" d="M220.16,480.27c.21,1-1.66,18.1-2.19,24.72-.47,5.83-1.05,12.09-1.67,18.4l-.46,4.73-.16,1.56a2.88,2.88,0,0,1-.43.33l-.36.26-.49.36c-.67.47-1.34.92-2.05,1.33a13.49,13.49,0,0,1-4.67,1.83l-.35,0a4.77,4.77,0,0,1-.54,0,3.05,3.05,0,0,1-1-.15l-.46-.17c-.09-.1-.06-.29-.1-.44a2.39,2.39,0,0,1,0-.48l.05-.56.21-2.43c.92-10.57,1.92-21,2.93-30.53.5-4.76,1-9.29,1.49-13.48,0-.37.08-.74.13-1.11,0-.09,0-.24.07-.28l.3-.08L211,484c.59-.15,1-.26,1.5-.41a28.62,28.62,0,0,0,2.74-1A31.31,31.31,0,0,0,220,480a24.62,24.62,0,0,1-4.49,3.23,25.21,25.21,0,0,1-2.91,1.39l-.78.3-.39.14-.15.06c-.13,0-.09.15-.09.24v.28l0,.4c-.16,4.3-.43,8.35-.7,10.46-1.09,8.51-2,16.52-2.77,24.06q-.57,5.65-1.09,11l0,.52a1.33,1.33,0,0,0,0,.39,2.2,2.2,0,0,0,.86,0,8.83,8.83,0,0,0,2.39-.69,22.72,22.72,0,0,0,4.29-2.53l.37-.27s0-.12,0-.18l0-.24c0-.41.08-.82.13-1.22q.12-1.23.24-2.43c.17-1.61.33-3.18.48-4.74q.48-4.65.91-9c.6-5.81,1.17-11.21,1.79-16.25C218.6,490.15,219.89,481.89,220.16,480.27Z"></path></g><g data-name="pants_tux" id="pants_tux-2"><path class="cls-4" d="M140.14,464.07s22.13,22.62,64.35,20c44.1-2.74,50.13-20,50.13-20-9,37.23-43.72,55.95-63.75,54.47-18.51-1.37-41.22-8.94-48.73-28.74C139.46,482.75,139,474.36,140.14,464.07Z"></path><path d="M140.16,464.07c.08.62-.29,3.81-.31,8.53a46.82,46.82,0,0,0,2.79,17.2c.34.75.68,1.52,1,2.28.17.38.33.77.52,1.15l.65,1.09c.43.73.84,1.47,1.3,2.19l1.51,2a17.09,17.09,0,0,0,1.64,1.95c.58.61,1.1,1.27,1.72,1.84a41.29,41.29,0,0,0,3.74,3.21,51.67,51.67,0,0,0,14.52,7.7,83.29,83.29,0,0,0,10.89,2.9,93,93,0,0,0,11.48,1.38c7.67.24,15.47-2.12,22.61-5.53a73.27,73.27,0,0,0,19.34-13.71,72.45,72.45,0,0,0,13.72-18.68,74.66,74.66,0,0,0,5.86-15.89l2.86.84a5.85,5.85,0,0,1-.3.68,6.27,6.27,0,0,1-.3.58,10.53,10.53,0,0,1-.67,1.06,20.11,20.11,0,0,1-1.48,1.93c-.51.63-1.1,1.16-1.65,1.74s-1.19,1-1.78,1.56a22.88,22.88,0,0,1-1.87,1.41,17.62,17.62,0,0,1-1.93,1.3l-2,1.19c-.67.37-1.36.69-2,1a74.9,74.9,0,0,1-16.95,5.71c-2.88.55-5.72,1.16-8.57,1.48l-4.25.55-4.23.34c-1.4.1-2.79.27-4.18.3l-4.17.08c-2.76.14-5.49-.09-8.18-.21l-2-.11-2-.24-3.94-.49c-1.31-.13-2.58-.47-3.85-.69s-2.54-.46-3.78-.77l-3.67-1c-.61-.16-1.22-.31-1.81-.49l-1.77-.59-3.48-1.18-3.34-1.35a80,80,0,0,1-12.16-6.34,59.08,59.08,0,0,1-9.86-7.71A71.15,71.15,0,0,0,151.7,472a95,95,0,0,0,15,6.15l3.87,1.12c1.28.36,2.57.59,3.81.89,2.49.64,4.93,1,7.18,1.34.57.09,1.12.2,1.66.27l1.6.17,3,.31c1.86.26,3.51.29,4.84.38,1.5.09,3,.21,4.48.26l4.45,0c3,0,5.9-.27,8.81-.45,1.46-.07,2.9-.25,4.33-.44l4.29-.53,4.2-.76,2.09-.38,2-.51c1.36-.36,2.73-.63,4-1l4-1.27,3.8-1.52c1.23-.55,2.43-1.18,3.64-1.76a37.63,37.63,0,0,0,6.53-4.46,14.85,14.85,0,0,0,1.41-1.33l.69-.69L252,467a12.66,12.66,0,0,0,2-3.11l1.22.36a74.56,74.56,0,0,1-19.31,34.5,76.49,76.49,0,0,1-14.55,11.54,66.21,66.21,0,0,1-16.17,7.24,49.34,49.34,0,0,1-8.43,1.68,38,38,0,0,1-8.4-.09A83,83,0,0,1,172.61,516a62,62,0,0,1-14.05-6.13,42.13,42.13,0,0,1-11.09-9.49,35.15,35.15,0,0,1-5.41-9.22A37,37,0,0,1,139.45,480,71.94,71.94,0,0,1,140.16,464.07Z"></path><path class="cls-2" d="M230.86,493.2l-7.25,3.86s-1.37,4.53-8.92,14.92c0,0,7.77-3.05,10.24-5.59C226.1,505.19,227.74,504.65,230.86,493.2Z"></path><path class="cls-2" d="M230.87,493.2c.2.49-1.81,7.83-3.21,10.54a10,10,0,0,1-1,1.8c-.22.28-.47.57-.71.82l-.72.73a17.5,17.5,0,0,1-3.51,2.54c-.62.35-1.25.7-1.88,1l-1,.48-.51.25-.86.39c-.56.27-1.18.52-1.77.78l-1.75.72-1.74.71,1-1.49,1.08-1.63,1.22-1.75,1.4-2.07c.79-1.17,1.55-2.35,2.28-3.51s1.41-2.3,2-3.43c.31-.56.61-1.12.89-1.67l.4-.82.18-.4.13-.31.13-.39c.75-.38.95-.46,1.32-.64l1-.48,1.94-.9c1.25-.58,2.41-1.09,3.48-1.54a30.31,30.31,0,0,1-3.15,2.61c-.61.45-1.23.89-1.83,1.29l-.87.57-.42.26c-.1.06,0,0-.06.05h0s0,0,0,0l0,.12-.17.44a6.25,6.25,0,0,1-.33.68c-1.92,3.4-4,6.31-5.9,9.07l-.72,1-.5.69-.88,1.2c-.15.17,0,0,.14,0l.34-.14.65-.28.65-.3.87-.41a22.06,22.06,0,0,0,6.7-4.48,10.1,10.1,0,0,0,1.93-2.95c.5-1.06.92-2.12,1.32-3.16C229.22,497.31,230.59,493.88,230.87,493.2Z"></path><g id="hero_belt"><path class="cls-5" d="M140.14,464.07s22.13,22.62,59.94,20.43c21.12-1.23,39.14-5.81,53.37-16.81a47.67,47.67,0,0,1-4.36,12.46c-9.87,8.54-23.81,15.82-37.85,17.53-41,5-62-9-73-25A27.62,27.62,0,0,1,140.14,464.07Z"></path><path d="M140.16,464.08c0,.27-.3,1.08-.63,2.34a28.68,28.68,0,0,0-.9,5c0,.26,0,.53,0,.78v.32c0,.11.12.18.18.28l1,1.37c.37.47.72,1,1.13,1.47l1.26,1.47c.83,1,1.81,2,2.8,3s2.09,2,3.18,3a56,56,0,0,0,15.3,9.3,71,71,0,0,0,14.13,4,104.21,104.21,0,0,0,20.3,1.21l5.24-.28c1.75-.12,3.5-.35,5.26-.53a56.08,56.08,0,0,0,10.4-1.84,74.07,74.07,0,0,0,19.31-8.5,77.53,77.53,0,0,0,8.51-6.08l1-.83.34-.29v0l.11-.23c.38-.77.73-1.54,1.06-2.32q1-2.35,1.74-4.74l.16-.53,0-.12h0v-.07s0,0,0,0h0l-.12.08A71.15,71.15,0,0,1,243,476a84.78,84.78,0,0,1-16.89,6.21,123.1,123.1,0,0,1-17.21,3c-2.84.31-5.67.51-8.46.67-1.4,0-2.81,0-4.21.06l-2.08,0h-1l-1-.07a83.36,83.36,0,0,1-30.24-7c-2.24-.92-4.33-2.06-6.4-3.12l-3-1.73c-1-.56-1.9-1.21-2.84-1.81a62.81,62.81,0,0,1-9.8-7.89,86.63,86.63,0,0,0,23.55,13,99.53,99.53,0,0,0,22.74,5.33c2.37.29,4.74.41,7.09.62h7c4.69-.19,9.3-.57,13.8-1.18a93.43,93.43,0,0,0,25.42-6.86c1.95-.86,3.84-1.82,5.67-2.83.91-.54,1.82-1.05,2.71-1.59l1.3-.85.65-.43.9-.6,3.36-2.33c.07,0,.16-.12.2-.12l0,.25-.09.5-.19,1c-.13.65-.28,1.31-.45,2l-.28,1-.27.92-.48,1.47c-.33,1-.7,1.93-1.08,2.88s-.8,1.87-1.23,2.79l-.33.68-.21.42c0,.17-.24.24-.35.35l-1.16,1c-1.54,1.27-3.14,2.46-4.74,3.61a83,83,0,0,1-10,6,69.2,69.2,0,0,1-21,6.9c-1.78.28-3.53.38-5.27.58s-3.47.39-5.19.43l-5.12.24-5-.05a90.18,90.18,0,0,1-19.18-2.49,62.78,62.78,0,0,1-16.74-6.84l-.92-.53-.92-.62-1.92-1.3a22.25,22.25,0,0,1-2-1.48l-2-1.59a55.56,55.56,0,0,1-7-7.46c-1.07-1.26-1.93-2.62-2.79-3.84a3.67,3.67,0,0,1-.34-.53l0-.62c0-.37.07-.72.11-1.07.1-.68.22-1.33.36-1.94A31,31,0,0,1,140.16,464.08Z"></path></g></g><g data-name="pants_tux" id="pants_tux-3"><path class="cls-4" d="M144.27,492.33a63.31,63.31,0,0,1,26.91,5.58,62.2,62.2,0,0,1,21.07,15.76c-4.57,5.6-4.08,11.91-5,18.76,3,5.23,6,12.23,5.4,19.42-.89,10.77-7.48,16.82-17.71,17.23-7.84.32-16.57-3.8-21.81-9.85-6-7-8.85-14.57-9.64-24C143.28,520.67,142.54,508.44,144.27,492.33Z"></path><path class="cls-3" d="M168.26,536.66c7.13,0,13.71-1.08,19-4.59,0,.12,0,.24,0,.36,3,5.23,6,12.23,5.4,19.42-.89,10.77-7.48,16.82-17.71,17.23-7.84.32-16.57-3.8-21.81-9.85-6-7-8.85-14.57-9.64-24,0-2.81-.1-5.54-.16-8.23C149.19,533.5,158.18,536.66,168.26,536.66Z"></path><path d="M168.26,536.72c-.49.47-4.65.93-9.95-.09a32.31,32.31,0,0,1-8.25-2.73l-1-.52-.67-.37c-.43-.23-.77-.47-1.13-.69a16.07,16.07,0,0,1-1.78-1.38l-.31-.3c-.08-.11,0,.08,0,.15l0,.28c0,.35.07.7.1,1,.07.64.14,1.2.21,1.67s.17,1,.26,1.49c0,.12.05.19.08.35s.08.42.11.61c.07.44.17.91.27,1.38a48.1,48.1,0,0,0,1.43,5.52,36.24,36.24,0,0,0,5.09,10.13c.56.78,1.14,1.53,1.76,2.27s1.27,1.48,1.89,2.09a25.57,25.57,0,0,0,4.25,3.4,26.39,26.39,0,0,0,9.86,3.87,22.22,22.22,0,0,0,2.9.28c.48,0,.95,0,1.42,0l1.47-.13a16.6,16.6,0,0,0,5.28-1.48A12.49,12.49,0,0,0,188,555.9c.13-.43.28-.85.39-1.3l.3-1.34c.14-.93.29-1.85.35-2.74a23.7,23.7,0,0,0-.35-5.43,34.27,34.27,0,0,0-1.41-5.35c-.29-.86-.66-1.79-1-2.54a6,6,0,0,0-.21-.77l-.07-.23c-.06-.05.05-.23,0-.16l-.35.11-.42.11c-.07,0-.17,0-.22,0l-.7.25a29.55,29.55,0,0,1-5.77,1.3,42.76,42.76,0,0,1-10.21-.06c2.76-1.11,6.29-2.26,9.59-3.81a33.83,33.83,0,0,0,4.65-2.57l.13-.09a.75.75,0,0,1,.21-.12c.2-.11.36-.21.54-.33l1.07-.72c.73-.46,1.48-1,2.23-1.56l2.25-1.61.22-.15.79-.5,1.89-1.19-.1,1-.09.81c0,.45-.11.9-.16,1.35-.12.92-.24,1.83-.35,2.73l0,.34c0,.11,0,.26,0,.27l.15.25.3.51.58,1c.28.5.54,1,.8,1.45s.37.72.54,1.07a18.41,18.41,0,0,1,1.35,3.64,35.68,35.68,0,0,1,1,8.46,27.91,27.91,0,0,1-.32,4.21c-.13.67-.26,1.34-.38,2s-.35,1.32-.52,2a21.61,21.61,0,0,1-3.66,7.22,18.19,18.19,0,0,1-6.08,5,21.53,21.53,0,0,1-7.1,2.09,26,26,0,0,1-7.05-.07,32.22,32.22,0,0,1-12.37-4.69,31.68,31.68,0,0,1-5-3.92,40.49,40.49,0,0,1-9.58-15,41.51,41.51,0,0,1-1.52-5.4,46.32,46.32,0,0,1-.85-5.38,16.08,16.08,0,0,1-.11-1.9c0-.66,0-1.31,0-2l-.09-3.87c0-1.28,0-2.55-.07-3.8l0-1.87a.73.73,0,0,1,.12-.54l.18-.36,2.42,2.5c.82.85,1.64,1.65,2.44,2.45.4.43.77.73,1.15,1.07l1.11,1c.73.6,1.42,1,2.11,1.52a2,2,0,0,0,.29.18l.25.15.51.3c.33.22.7.41,1.07.62.74.43,1.56.83,2.39,1.24a41,41,0,0,0,5.29,2.1A56.21,56.21,0,0,0,168.26,536.72Z"></path><path class="cls-4" d="M192.25,513.67c-4.5,5.52-4,15-3,21,.49,3-6.12-3.51-19,0-11,3-13.77,7.78-16.59,9.38-6.4,3.61-8.37-2-9.39-5.38-3-10-1.07-13.56-1.11-20.44a228.4,228.4,0,0,1,1.1-25.89"></path><path d="M144.32,492.34c.42.54.13,5.17.06,10.53s0,11.45.28,14.84a43.42,43.42,0,0,1,.14,4.73c0,1.58-.11,3.13-.09,4.63a37,37,0,0,0,2.84,13.08,7.1,7.1,0,0,0,.92,1.52,2.43,2.43,0,0,0,.86.7,2.2,2.2,0,0,0,.89.06,6.16,6.16,0,0,0,1.43-.52,7.19,7.19,0,0,0,.75-.42,6.39,6.39,0,0,0,.66-.5c.5-.41,1.09-1,1.68-1.49a34.55,34.55,0,0,1,4.23-3.25,34,34,0,0,1,4.73-2.49,41.57,41.57,0,0,1,4.87-1.72,32.83,32.83,0,0,1,5.05-1.07,28.35,28.35,0,0,1,10.09.45c.4.08.79.18,1.18.29l.58.16.27.08,0,0,.28.16c.09,0,.3.18.36.07a1.9,1.9,0,0,0,.06-.31l0-.3,0-1.34c0-1,0-1.93,0-2.88a33.12,33.12,0,0,1,.69-5.46,17.6,17.6,0,0,1,4.4-8.78,21.77,21.77,0,0,0-1,4.72,30,30,0,0,0,0,5.19c.12,1.75.36,3.48.62,5.09.37,2.22.72,4.28,1,6a4.51,4.51,0,0,1-.39,2.53,1.79,1.79,0,0,1-.51.71,2.53,2.53,0,0,1-.74.51,3.87,3.87,0,0,1-2.33.26,20.23,20.23,0,0,1-2.94-.86l-1.85-.63c-.47-.15-.94-.29-1.42-.41a22.45,22.45,0,0,0-5.76-.72,26,26,0,0,0-5.71.66,38.08,38.08,0,0,0-5.46,1.68,26.4,26.4,0,0,0-4.86,2.55,41.78,41.78,0,0,0-4.27,3.37c-.37.31-.76.61-1.18.9a11.75,11.75,0,0,1-1.33.73,8.8,8.8,0,0,1-2.92.89,5.35,5.35,0,0,1-3.22-.65,6.74,6.74,0,0,1-2.25-2.15,18.47,18.47,0,0,1-2.13-4.95,47.86,47.86,0,0,1-1.25-4.88,34.58,34.58,0,0,1-.42-9.62c.11-1.5.22-2.93.25-4.31s0-2.8,0-4.2c0-2.81.09-5.52.26-8.13a70,70,0,0,1,1.16-8.82C143.46,495.67,144.09,493.16,144.32,492.34Z"></path><path class="cls-2" d="M183,505.52l-8.52-.73c-2.6,6.46-1,27.07-1,27.07a33.12,33.12,0,0,1,9.08-.73Z"></path><path class="cls-2" d="M183,505.53c.3.57.1,10.87.2,14.84l.09,4.83c0,1.67,0,3.37,0,5.08v1.14a3.26,3.26,0,0,1,0,.56l-.57,0-1.15,0h-.66c-.82,0-1.64,0-2.46.11s-1.63.17-2.43.29c-.4.06-.8.13-1.19.21-.57.1-1.48.32-2.25.51-.09-1.23-.18-2.37-.26-3.5a113.6,113.6,0,0,1,.07-18.47,33.93,33.93,0,0,1,.7-4.23c.09-.34.16-.67.27-1l.45-1.3.14-.39s0-.08,0-.09h.1l.21,0,.82.09,1,.13c2.51.32,4.82.64,6.87.95a62.39,62.39,0,0,1-7.2.38,3.34,3.34,0,0,0-.69,0s-.06,0-.07,0v.09a2.49,2.49,0,0,1-.12.56c0,.27-.09.54-.13.79-.2,1-.27,1.93-.41,2.53a73.48,73.48,0,0,0-.91,11.62c0,1.86,0,3.67.06,5.44,0,.88.08,1.75.11,2.61,0,.43.05.86.07,1.28a7.69,7.69,0,0,0,.07.8l.57-.12.86-.15c.62-.1,1.23-.19,1.84-.25a34.13,34.13,0,0,1,3.6-.23h1.4s0,0,0-.06v-1.06c0-1.12,0-2.21,0-3.29,0-4.29.07-8.24.22-11.87C182.42,511.49,182.91,506.5,183,505.53Z"></path><path class="cls-2" d="M166.92,501S162,528,164.27,534.32a33.29,33.29,0,0,0-9,5.71c-1.5-10.39,1-38.74,1-42.46Z"></path><path class="cls-2" d="M166.92,501c-.43,0-4-1.05-8.22-2.32l-1.46-.45-.53-.16c-.06,0,0,0,0,.08v.42c0,1.06-.08,2.11-.13,3.12-.09,2.12-.17,4-.23,5.43-.15,4.88-.31,10.08-.47,15.32-.06,2.63-.1,5.26-.08,7.86,0,1.3,0,2.59.09,3.87,0,.64,0,1.27.08,1.9s.09,1.19.13,1.78c0,.16,0,.36.06.28h0l.1-.08.65-.5c.44-.34.89-.65,1.33-1,.9-.62,1.82-1.19,2.77-1.72.47-.26.95-.52,1.43-.75l.72-.34h0s0,0,0-.05l-.08-.33a9.79,9.79,0,0,1-.17-1.28,23.29,23.29,0,0,1-.13-2.48c0-1.62.06-3.21.17-4.76.23-3.1.58-6.09,1-8.92.82-5.67,1.8-10.76,2.76-15-.13,5.22-.94,15.09-1.39,18.58q-.58,3.88-.84,7.61l-.09,1.85c0,.61,0,1.21,0,1.81s.08,1.17.12,1.76a5.32,5.32,0,0,0,.14.83c.1.44.2.87.29,1.3l-.72.28-.6.26-.87.42q-.87.42-1.71.9a34.71,34.71,0,0,0-3.18,2.07c-.25.18-.5.36-.74.56s-.68.53-1,.8l-1,.82-.06,0v-.24l0-.31-.06-.62c-.22-1.82-.24-2.85-.32-4.08-.18-4.82-.09-9.36,0-13.67.24-8.64.73-16.24,1.22-23.18l0-1.18c0-.19,0-.4,0-.6.18,0,.4.13.6.19l1.24.42.87.31,3.5,1.28Z"></path></g></g></svg>