<svg xmlns="http://www.w3.org/2000/svg" viewBox="0 0 380 600"><defs><style>.cls-1{fill:#d7f7ff;}.cls-2{fill:#eefbff;}.cls-3{fill:none;}</style></defs><g id="Reference"><g id="default"><path class="cls-1" d="M254.91,465.17c-5.8,23.75-18.27,52.94-19.51,54.5,4.39,4,7.31,9.65,11.28,14,.53.59,5.41.52,5.87,6.25.32,4-3.56,5.42-3.56,5.42a5.82,5.82,0,0,1-3,5.42c-1.62,1-5.94,1.38-7.12-.08.1,4.43-3.68,9.43-8.38,9.62-4.09.16-8.35-1.8-10-5.55-5.48-.35-8.36-3.53-11.87-7.19-3.16-3.27-6.65-6-9.23-9.86-6.87-10.42-4.21-31-4.92-43.74"></path><path d="M194.56,494c.33.39.68,2.58.86,5.81s.23,7.49.37,12A99,99,0,0,0,197,525.45a27.7,27.7,0,0,0,3.49,10.06c2.22,3.59,6,6.26,9.73,9.76a43,43,0,0,0,5.21,4.58,10,10,0,0,0,2.58,1.28l.67.18.34.07.17,0,.09,0,.18,0,1.49.16,1.71.15c.4.79.82,1.59,1.26,2.39l.35.46.32.33a6.51,6.51,0,0,0,1.58,1.09,8.34,8.34,0,0,0,4,.81,1.69,1.69,0,0,0,.43,0,1.45,1.45,0,0,0,.35-.07,3.9,3.9,0,0,0,.73-.24,5.93,5.93,0,0,0,1.42-1,6.37,6.37,0,0,0,1.17-1.49,4.85,4.85,0,0,0,.43-.85l.09-.21a1.92,1.92,0,0,0,.15-.49l.25-1.45,1.39-.57.94-.41.33-.16.28-.13.14-.06h.06l.19,0c.39-.12,1.09-.36,2-.67.1-.05.21,0,.32-.14l.35-.41.35-.4.08-.11h.65l.28,0a8,8,0,0,0,1.06-.19,1.35,1.35,0,0,0,.51-.19,3.21,3.21,0,0,0,.57-.49,1.67,1.67,0,0,0,.29-.44,1.17,1.17,0,0,0,.09-.24c0-.05,0-.08,0-.13v-.08l.06-.22c.43-.71.85-1.42,1.28-2.12l.9-1.46c.19-.29.28-.68.64-.8l.18-.13.07-.06a1.43,1.43,0,0,0,.33-.42,1.65,1.65,0,0,0,.08-.4,5.55,5.55,0,0,0-.14-1,1.55,1.55,0,0,1,0-.23l-.08-.18c0-.14-.11-.19-.14-.29a1.91,1.91,0,0,0-.38-.37,3.28,3.28,0,0,0-.86-.41l-.48-.15c-.32-.11-.66-.19-1-.33a2.88,2.88,0,0,1-.86-.51l-.21-.15,0,.05h0l0,0,0-.05-.09-.08-.36-.34c-.23-.23-.46-.47-.68-.71l-.3-.34-.17-.22-.71-.87c-.46-.57-.89-1.15-1.32-1.72-.84-1.15-1.63-2.27-2.39-3.35s-1.51-2.13-2.26-3.11c-.38-.49-.75-1-1.13-1.41l-.29-.34-.41-.47c-.43-.48-.91-.93-1.36-1.39-.08-.92-.15-1.79-.22-2.67s-.1-1.79-.14-2.66l2-4.35,1.62-3.58,3.08-7.08c2-4.67,3.88-9.2,5.63-13.56,3.52-8.72,6.52-16.73,9-23.75.36,5.59-.51,13.62-2,21.05s-3.6,14.25-5.22,17.62l-3.87,8c-.65,1.31-1.3,2.6-1.93,3.88l-1,1.91-.51,1a1,1,0,0,1-.13.22l-.1.14c-.11.15-.22.32-.35.47s0,.08,0,.12l.08.11a1.88,1.88,0,0,1,.16.23l.22.31c.18.23.48.57.69.86.47.6.91,1.2,1.34,1.81.86,1.2,1.65,2.41,2.43,3.58s1.53,2.32,2.31,3.42c.39.55.77,1.09,1.18,1.6l.49.64c.13.14.22.33.39.4l.25.09.31.12a10.75,10.75,0,0,1,1.12.44,8.72,8.72,0,0,1,2.18,1.43,7.74,7.74,0,0,1,2.29,4.54,7.19,7.19,0,0,1-.8,4.95,7.32,7.32,0,0,1-1.67,1.9l-.25.18-.14.1-.25.16c-.16.1-.37.16-.51.26a3.41,3.41,0,0,1-.08.85,7.33,7.33,0,0,1-1.32,2.86,8.06,8.06,0,0,1-2.3,2,9.66,9.66,0,0,1-4.05,1.06l-.49,0h-.41l-.53,0a2.56,2.56,0,0,1-1-.31.8.8,0,0,1-.2-.15s-.07-.08-.09-.08v.13a4.07,4.07,0,0,1,0,.5,6,6,0,0,1-.18,1l-.15.45-.3.72a10.8,10.8,0,0,1-.84,1.53,12,12,0,0,1-2.25,2.63,10.22,10.22,0,0,1-3,1.82,9.25,9.25,0,0,1-1.73.49l-.9.1c-.3,0-.56,0-.84,0a13.32,13.32,0,0,1-6.36-1.61,11.6,11.6,0,0,1-2.67-2,15,15,0,0,1-1-1.21,6.11,6.11,0,0,1-.38-.65c-.28-.06-.56,0-1-.12l-.28,0-.45-.1c-.3-.07-.6-.14-.9-.24a14.55,14.55,0,0,1-3.34-1.49,28.11,28.11,0,0,1-5.14-4.29c-.75-.75-1.44-1.46-2.14-2.13l-2.17-2a53.5,53.5,0,0,1-4.32-4.33,26,26,0,0,1-1.93-2.47c-.57-.88-1.09-1.82-1.59-2.74s-.86-1.88-1.16-2.83-.66-1.89-.85-2.84a53.07,53.07,0,0,1-1.41-11,106.67,106.67,0,0,1,.76-15.08C194.07,499.76,194.46,495.44,194.56,494Z"></path></g><path class="cls-2" d="M194.5,494c.68,12.13-1.71,31.44,4,42.23l-1-4.81,1,4.81c.28.52.57,1,.88,1.51.44.66.92,1.29,1.41,1.89a43.1,43.1,0,0,0,3.94-6.38,57.1,57.1,0,0,1,6.26,7.28,24.08,24.08,0,0,0,2.37-7.4,37.1,37.1,0,0,1,7.61,9.58,17.22,17.22,0,0,0,2-8,36,36,0,0,1,8.42,4.75,36.64,36.64,0,0,0-.86-9.16,64.59,64.59,0,0,1,8.1,2,76.87,76.87,0,0,0-5.42-6.77,32.14,32.14,0,0,1,7.59.18,49.09,49.09,0,0,0-5.43-6.06c1.24-1.56,13.71-30.75,19.51-54.5"></path><path d="M254.94,465.18a39.17,39.17,0,0,1-1.18,5.91c-.79,3.24-2,7.49-3.4,12-2.81,9-6.54,19.11-8.62,24.71q-1.14,3.07-2.38,6.21c-.42,1-.85,2.09-1.3,3.15l-1,2.26.26.22.15.13.37.37c.5.48,1,1,1.45,1.5.94,1,1.84,2.1,2.71,3.18l2.24,2.81-3.62-.44c-.61-.07-1.22-.13-1.84-.17l-.93,0h-.5a2.77,2.77,0,0,0-.42,0l-.19,0-.09,0h0l0,0,.32.33.14.14.07.08.23.28c.91,1.11,1.79,2.26,2.64,3.43L243,535.4l-4.83-1.46c-1.32-.4-2.64-.75-4-1.06l-1-.22-.09,0H233a.51.51,0,0,0-.21,0l.07.26v0l0,.19.08.61.14,1.22c0,.28.1,1.16.12,1.85s0,1.46,0,2.16l0,2.1c0,.67,0,1.48-.06,2.07-1.34-1-2.76-2.06-4.09-3-.33-.23-.67-.45-1-.66l-.5-.32-.37-.22c-.33-.19-.66-.38-1-.56-.61-.34-1.56-.81-1.44-.74,0,0-.07,0-.08,0v.09h0l0,.1c-.05.31-.11.61-.17.92l-.11.48c-.06.26-.14.53-.21.8a15.47,15.47,0,0,1-.52,1.54,25.5,25.5,0,0,1-1.25,2.72l-1.32,2.6c-1-1.83-2.13-3.84-3.24-5.53l-.43-.63-.27-.39-.42-.58c-.29-.39-.59-.76-.89-1.14s-.61-.73-.93-1.09l-.37-.41h0c0,.08.1-.3-.21.66l-.13.38-.16.45c-.11.3-.22.6-.35.89-.23.58-.49,1.14-.76,1.67-.53,1.07-1.06,2.13-1.58,3.19-1-1.31-2-2.69-2.92-4-1.2-1.55-1.43-1.78-2-2.43l-1.21-1.37,0-.06,0,0,0,.06-.29.47-.58.92-.4.61-.57.84c-.39.55-.78,1.08-1.17,1.6L201,542.62s-.09.17-.14.16l-.15-.2-.29-.4-.59-.79-1.16-1.58a13.49,13.49,0,0,1-1.09-1.58l-.65-1.13c0-.07-.08-.14-.11-.22l0-.24-.08-.42-.1-.49c-.26-1.33-.51-2.65-.76-4l3.51-.72c.32,1.67.62,3.26.92,4.82L197,537a36.21,36.21,0,0,1-3.22-12,93.89,93.89,0,0,1-.47-11.33c.09-7.23.65-13.81.6-19.68,1.16,5.48,1.46,13.75,2.11,21.37A101.91,101.91,0,0,0,197.4,526a55.49,55.49,0,0,0,1.92,7.27c.28.73.6,1.45.86,2.12l-3.46,1.25c-.28-1.67-.56-3.32-.82-4.85l3.3-.68c.24,1.39.48,2.78.72,4.15l.05.26,0,.12v0a.32.32,0,0,0,0,.15l.23.42.1.18,0,.08a3.93,3.93,0,0,0,.29.52c.12.34.24,0,.37-.11l.2-.24.1-.14.28-.4.53-.82.29-.48.42-.71c.53-1,1.05-1.93,1.54-2.87.91.87,1.82,1.83,2.69,2.76.5.54.68.76,1,1.09l.79.93.76.94.26.34.16.22.66.92c.05.13.08,0,.12,0l.11-.21.2-.42.19-.45.1-.23.11-.3.14-.44c.05-.15.13-.44.19-.65.13-.46.24-.92.34-1.4.19-.95.37-1.93.52-2.84h.14s.13.1.19.15l.41.38.8.76c.53.5,1.05,1,1.56,1.54s1,1.08,1.3,1.42.67.8,1,1.21.63.82.94,1.24l.44.62.29.43c.33.5.64,1,.93,1.53.11.36.21,0,.3-.18s.18-.38.26-.58a10.93,10.93,0,0,0,.41-1.22c.05-.16.14-.55.21-.87l.09-.49c0-.16.06-.46.09-.69.11-1,.14-2,.16-3l.1-.05.2.08.39.16.77.32c.51.21,1,.43,1.53.67s1,.46,1.3.64l1.09.58,1.06.61.63.4c.41.26.81.54,1.19.83l.07,0,0,0v-1.33l0-.72-.07-.91-.12-1.14-.08-.56-.12-.76c-.18-1.06-.42-2.16-.66-3.22,0-.07.2,0,.31,0l.36.07.73.13,1.45.27,1.41.29,1,.24q2.08.5,4.08,1.11l-.95,1.3c-.83-1.15-1.68-2.27-2.56-3.35l-.89-1.07-1-1.17-2.09-2.34c.05,0,.05-.09.13-.11l.35,0,.68-.06,1.36-.11c.9-.07,1.83-.12,2.79-.11l1.27,0,1,.06c.66.05,1.32.12,2,.2l-.91,1.58c-.84-1.07-1.7-2.11-2.59-3.09-.44-.49-.89-1-1.34-1.44l-.87-.85-1.12-1c.2-.46.49-.9.72-1.39l.55-1.13c.29-.63.57-1.26.85-1.88.55-1.26,1.09-2.52,1.6-3.77,1.05-2.49,2-4.95,3-7.37,1.91-4.85,3.68-9.54,5.35-14.07,1.48-4.07,3.55-9.6,5.25-14.51.87-2.45,1.61-4.76,2.23-6.62S254.72,465.89,254.94,465.18Z"></path><path d="M232.31,545.56c.19-.23.74-.12,1.26.21s1.06.78,1.43,1a7.36,7.36,0,0,1,3.06,7.4,4.59,4.59,0,0,1-1.73,2.76c-1.25-1.32-2.3-2.32-2-2.65a3.42,3.42,0,0,0,.91-2.27,4.2,4.2,0,0,0-.49-2c-.62-1.19-1.51-1.87-1.95-2.7a2.66,2.66,0,0,1-.28-.89C232.43,546.05,232.34,545.69,232.31,545.56Z"></path><g data-name="default" id="default-2"><ellipse class="cls-2" cx="197.33" cy="463" rx="57.58" ry="25.42"></ellipse><path d="M139.73,463a8.25,8.25,0,0,1,.06-2.48,13.53,13.53,0,0,1,2-4.93c2.3-3.75,7-7.37,12.39-10.09a77.28,77.28,0,0,1,17.46-6.05A127,127,0,0,1,186.56,437a124.48,124.48,0,0,1,21-.44,107.12,107.12,0,0,1,21.61,3.51,71.64,71.64,0,0,1,10.52,3.75,43.68,43.68,0,0,1,9.69,5.84,20.15,20.15,0,0,1,6.86,9.45,13.44,13.44,0,0,1,.4,6.11,15.37,15.37,0,0,1-2.14,5.56,25.62,25.62,0,0,1-6.83,7,49,49,0,0,1-8.2,4.69A81.77,81.77,0,0,1,221.94,488a123.63,123.63,0,0,1-34.69,1.78c-11.09-1-21.58-3.35-30.61-7.41a42.47,42.47,0,0,1-11.95-7.76,20.18,20.18,0,0,1-4.05-5.39,13.21,13.21,0,0,1-1.45-6.23,13.23,13.23,0,0,0,2,5.64,20.24,20.24,0,0,0,4.52,4.9,44.92,44.92,0,0,0,12.71,6.67c9.11,3.27,18.24,4.49,23,5.25a114.06,114.06,0,0,0,14.26,1.38,119.64,119.64,0,0,0,13.95-.27,93.08,93.08,0,0,0,26-5.54,46.23,46.23,0,0,0,11.08-6c3.26-2.45,6.09-5.59,7.08-9.32a10.47,10.47,0,0,0,0-5.61,14.3,14.3,0,0,0-2.61-5,29.68,29.68,0,0,0-8.8-7.08,59.85,59.85,0,0,0-10.21-4.41,85.24,85.24,0,0,0-10.45-2.75,118.2,118.2,0,0,0-20.47-2.21,130.9,130.9,0,0,0-19.21.92,107.31,107.31,0,0,0-17.55,3.58c-5.21,1.58-12.31,4.21-17.53,8.21a27.1,27.1,0,0,0-3.44,3.17,18,18,0,0,0-2.34,3.34A13,13,0,0,0,139.73,463Z"></path></g><g data-name="default" id="default-3"><path class="cls-2" d="M254.91,463.37c-9,37.25-43.74,56-63.79,54.5-18.52-1.37-41.24-8.94-48.76-28.75-2.67-7.06-3.18-15.46-2-25.75"></path><path d="M140.39,463.37a42.35,42.35,0,0,1-.08,5,71.69,71.69,0,0,0,.32,10.24,37.14,37.14,0,0,0,2.93,11.29c.4.85.78,1.68,1.15,2.48l1.32,2.16c.21.35.41.69.62,1s.46.6.68.88l1.21,1.56c5.54,6.51,13.65,11.27,22.4,14.14a79.24,79.24,0,0,0,13.48,3.16l3.41.43,3.4.28a34.23,34.23,0,0,0,6.48-.26,51,51,0,0,0,11-2.8,68.61,68.61,0,0,0,10.23-4.78A75.68,75.68,0,0,0,236,494.82a78.62,78.62,0,0,0,6.57-7.79,85.84,85.84,0,0,0,5.19-8.09,82.92,82.92,0,0,0,6.58-15.7,54.24,54.24,0,0,1-4.44,17.42,61.34,61.34,0,0,1-4.34,8.16c-.78,1.15-1.5,2.22-2.2,3.13s-1.33,1.68-1.88,2.29a80.44,80.44,0,0,1-30,20.73,53.88,53.88,0,0,1-16.22,3.69c-.68,0-1.36,0-2,.05s-1.35-.05-2-.07l-3.91-.37c-1.28-.17-2.56-.32-3.82-.52s-2.51-.41-3.74-.66c-9.83-2-18.83-5.54-25.9-11a40.15,40.15,0,0,1-8.87-9.39,39,39,0,0,1-2.88-5.45,29,29,0,0,1-1.91-5.63,43.88,43.88,0,0,1-1-13A78.58,78.58,0,0,1,140.39,463.37Z"></path></g><g id="hero_red"><path class="cls-1" d="M192.5,513.5c-4.57,5.6-4.08,11.91-5,18.76A92.49,92.49,0,0,1,193.07,544a14,14,0,0,0,3.14,5.19,13.4,13.4,0,0,1,3.2,5.24c1.46,4.37-.58,8.45-4,9.68s-6.4,1.8-9.09-.65a10.93,10.93,0,0,1-8,5.94c-3.36.33-6.68-1.1-9.46-3a15.91,15.91,0,0,1-11.43-.53c-3.5-1.72-6.11-5.51-5.72-9.4,0-.1-7.41-14.64-7.59-18.27-.94-15.74-1.18-28.87.44-46.07"></path><path d="M144.56,492.15c.57.77.19,7.55.15,15.37a198.85,198.85,0,0,0,.87,21.6c.27,2.31.54,4.68.81,7.07l.21,1.81c0,.24.09.32.12.51l.23.7c.37,1,.81,2.07,1.31,3.15,1,2.17,2.08,4.37,3.2,6.57.57,1.11,1.15,2.21,1.72,3.31l.87,1.66.3.58a7.63,7.63,0,0,1,.26.81,2,2,0,0,1,.11.4l0,.1v.05c.24-.05.07,0,.12,0h0v0l0,.21.06.84a1.91,1.91,0,0,0,0,.39v.26c0,.17.05.29.07.44a6.68,6.68,0,0,0,.25.84,6.42,6.42,0,0,0,.92,1.62,7.31,7.31,0,0,0,3,2.31,10.25,10.25,0,0,0,4.08.73,13.87,13.87,0,0,0,2.2-.21l.55-.1.28-.07.14,0,.35-.08,2.63-.74,1.47,1,.72.47.37.22.19.11c.4.22.81.43,1.21.6a10,10,0,0,0,3,.85,6,6,0,0,0,1.34,0,4.54,4.54,0,0,0,1.05-.25,8.23,8.23,0,0,0,2.36-1.47,6.61,6.61,0,0,0,.54-.53l.07-.07.15-.21.31-.44.32-.45.25-.56,2-4.46,4.35,3.64a7.57,7.57,0,0,0,.78.42l.19,0a3.34,3.34,0,0,0,.49,0,11.11,11.11,0,0,0,3.31-.75l.17-.06.1,0a.93.93,0,0,0,.2-.1,1.78,1.78,0,0,0,.39-.24,2.78,2.78,0,0,0,.67-.73,4,4,0,0,0,.6-2.22,6.21,6.21,0,0,0-.2-1.32,9.44,9.44,0,0,0-.56-1.53,10.37,10.37,0,0,0-.8-1.42c-.15-.22-.31-.43-.48-.64l-.26-.3-.4-.44a16.79,16.79,0,0,1-2.89-4.68c-.33-.79-.61-1.66-.79-2.22s-.43-1.26-.67-1.88c-.93-2.51-2-4.95-3.13-7.36-.15-.33-.23-.51-.52-1.1a9.94,9.94,0,0,1-.68-1.5c.15-.91.3-1.81.44-2.7l.62-3.77a35.34,35.34,0,0,1,1.92-7.42,18.12,18.12,0,0,1,3.93-6,27.83,27.83,0,0,0-1.15,4,25.23,25.23,0,0,0-.42,4.39c0,3,.39,6.2.5,9.54v.63a1.45,1.45,0,0,0,.06.19.39.39,0,0,0,.19.26c0-.15.65.81,1.05,1.4.86,1.29,1.66,2.58,2.36,3.82A35,35,0,0,1,196,540.5c.23.55.44,1.08.61,1.57.08.24.15.47.23.69s.09.33.13.48a10.86,10.86,0,0,0,1.27,3c.13.21.28.41.42.6.3.34.59.69.85,1.05a16.21,16.21,0,0,1,1.41,2.25,17,17,0,0,1,1,2.38c.14.41.26.8.37,1.23s.21.88.27,1.34a11.19,11.19,0,0,1-.51,5.44,9.67,9.67,0,0,1-3.2,4.41,8.55,8.55,0,0,1-2.41,1.31,4.36,4.36,0,0,1-.56.18l-.51.15c-.35.1-.7.2-1.06.28a12.42,12.42,0,0,1-4.74.36,9.72,9.72,0,0,1-1.23-.28l-.36-.14-.23-.12a4.5,4.5,0,0,1-.83-.64,5.93,5.93,0,0,1-.82,1.08l-.13.13-.26.25a6.77,6.77,0,0,1-.55.51,12.9,12.9,0,0,1-1.18.92,11.64,11.64,0,0,1-5.64,2.19,13.5,13.5,0,0,1-5.67-.87,19.43,19.43,0,0,1-4.12-2.13c-.29.08-.6.16-.89.22-.46.1-1,.2-1.54.28a20,20,0,0,1-3.19.18,15.09,15.09,0,0,1-6.22-1.43,12.4,12.4,0,0,1-4.85-4.16,11.22,11.22,0,0,1-1.45-2.87,10.42,10.42,0,0,1-.39-1.58,9.84,9.84,0,0,1-.14-1.5c0-.15,0-.3,0-.43l-.2-.39-.69-1.34-1.39-2.75q-1.37-2.73-2.61-5.44c-.83-1.82-1.62-3.61-2.29-5.54-.17-.47-.33-1-.47-1.53a7.12,7.12,0,0,1-.18-.9l-.06-.49c0-.15,0-.24,0-.37-.06-.93-.13-1.86-.19-2.78a185.28,185.28,0,0,1-.42-21,101.37,101.37,0,0,1,1.4-12.91C143.42,497,144.27,493.36,144.56,492.15Z"></path></g><path class="cls-2" d="M144.5,492.15c-1.62,17.2-1.38,30.33-.44,46.07a10.38,10.38,0,0,0,.53,2.33l-.11-.95.11.95c.64,2,1.75,4.63,2.91,7.21l3.46-4.6q2.83,4.51,5.54,9.13l4.44-8.85a28.31,28.31,0,0,1,9,9,49.73,49.73,0,0,0,2.75-8.06,54.7,54.7,0,0,1,10.44,5.82,22.13,22.13,0,0,0-.65-8.83l8.64,3.74c-.93-2.63-1.87-5.27-2.81-7.9l1.92.36c-.89-1.81-1.83-3.59-2.78-5.36.93-6.85.44-13.16,5-18.76"></path><path d="M192.52,513.52c-.05.28-.66,1.13-1.38,2.53a21,21,0,0,0-1.87,5.77c-.46,2.38-.6,5.14-.85,8-.06.68-.13,1.38-.2,2.07-.08.26.08.42.21.68l.51.95,2,3.76.73,1.37-1.56-.28L188.2,538l.9-1,3.76,10-.22-.09-6.37-2.58c-.92-.37-1-.38-1.32-.49l-.4-.14-.18-.06c-.05,0-.17-.09-.1,0,.09.29.17.55.23.8l.08.35,0,.2,0,.3.06.59,0,.59c0,.27,0,.63,0,.93q0,1-.06,1.89l-.16,1.82-.1.93a3.54,3.54,0,0,1-.13.85c-1.4-.95-2.88-2-4.35-2.92l-.84-.51-.62-.36-1.26-.69c-.84-.45-1.7-.88-2.57-1.29l-.33-.15-.19-.08-.11,0-.21-.07-.06.34-.3,1-.35,1.07-.22.65-.35,1c-.23.63-.48,1.25-.74,1.86l-.77,1.81c-.25.58-.52,1.29-.77,1.79-.75-1.14-1.48-2.28-2.22-3.41a27.82,27.82,0,0,0-1.95-2.58,26.69,26.69,0,0,0-2.6-2.61c-.46-.39-.93-.78-1.41-1.14l-.3-.23-.05,0-.05,0s0,0,0,0,.1-.17-.3.63l-4.69,9.46-5.88-9.66h0l.17-.23.21-.28-.27.36-1.25,1.66-2.31,3-.27.35a3.57,3.57,0,0,1-.19-.39l-.36-.82-.73-1.63c-.48-1.08-1-2.18-1.42-3.28l-.7-1.77c-.23-.58-.44-1.15-.64-1.74-.1-.35-.18-.46-.34-1.14l-.11-1,3.82-.48c0,.33.07.64.11.95l-3.73.83a18.08,18.08,0,0,1-.49-1.93c0-.18-.06-.37-.08-.58l0-.32v-.22l0-.87c-.05-1.16-.1-2.31-.14-3.45-.09-2.29-.15-4.55-.2-6.78-.07-4.45,0-8.75.12-12.86a201.53,201.53,0,0,1,2-22c.4,4.6.61,11.26.91,17.51s.61,12.14.56,15.24c-.05,2.69-.05,5.35,0,8,0,1.31,0,2.62.06,3.9l0,1,0,.48a2,2,0,0,0,0,.33,11.7,11.7,0,0,0,.37,1.66l-2.6.58c0-.33-.06-.66-.09-1l2.59-.33.08.83a.24.24,0,0,0,0,.08l.06.22.13.42c.18.57.38,1.14.59,1.7.29.78.57,1.56.86,2.32l.15.41.09.21s.08-.08.12-.12l.25-.31.12-.15.06,0s0,0,.26-.32l.84-1.09,1.64-2.14,5.39,9.16c.67-1.32,1.34-2.61,2-3.9l1.49-3,.45-.87.23-.42.05-.11.1.06.21.13c.55.35,1.09.71,1.62,1.07l.78.56.58.44c.38.3.75.61,1.11.92.72.63,1.41,1.29,2.06,2,.32.35.64.69.94,1l.46.54.26.33c.34.44.66.88.95,1.33.06.17.1,0,.14-.11l.13-.31.25-.62.22-.62.27-.77c.23-.7.42-1.31.64-2.08.28-1,.53-2,.77-3,.63.22,1.31.54,2,.81l1,.44.75.35c.91.44,1.81.89,2.69,1.37l1.31.74,1.11.66c.44.26.85.53,1.24.79.11.12.09,0,.1-.14l0-.3,0-.58v-.56l-.05-.84,0-.52-.07-.61c-.08-.56-.17-1.11-.31-1.69-.27-1.16-.6-2.39-.91-3.52.1-.08.48.14.74.23l.86.37,1.72.73,3,1.28,2,.85c-.66-1.89-1.31-3.72-1.94-5.51l-.64-1.81,1.88.37,1.91.38-1.16,1.54-1.83-3.65-.63-1.27-.25-.49-.12-.24c0-.09,0-.18,0-.27,0-.32.09-.63.13-1l.44-3.11a51,51,0,0,1,1.16-6.53,19.21,19.21,0,0,1,2.2-5.34c.41-.69.85-1.25,1.19-1.72S192.33,513.75,192.52,513.52Z"></path><path d="M183.7,552.41c.55-.33,1.74,1.13,2.3,2,1.13,1.44.87,3.36,1,4.37a8.4,8.4,0,0,1-.4,3.4,4.33,4.33,0,0,1-2.12,2.53c-.53-.73-1-1.42-1.3-1.91s-.47-.81-.3-1a4,4,0,0,0,1.25-2.25,11.35,11.35,0,0,0,.26-2.31,5.85,5.85,0,0,0-.22-1.76c-.13-.45-.29-.77-.41-1.24A7,7,0,0,1,183.7,552.41Z"></path><path class="cls-1" d="M145.67,522.87a34.16,34.16,0,0,0-6,11.34l9.4-2.1c-2,3.15-4.06,6.56-3.93,10.29a41.75,41.75,0,0,1,5.82-2.12"></path><path d="M150.94,540.31c-.05.25-.81.6-1.82,1.06l-2,.88c-.81.37-1.7.8-2.57,1.23-.07-.05-.18,0-.21-.14l0-.44,0-.84c0-.54,0-1,0-1.43l0-.73.1-.79a6.38,6.38,0,0,1,.16-.83c0-.2.07-.39.12-.58a17.7,17.7,0,0,1,.74-2.27,1.23,1.23,0,0,0,.07-.19v-.17a1.16,1.16,0,0,0,0-.17c0-.09,0-.13,0-.15a1.43,1.43,0,0,0-.41.23l0,0h0l-.07,0-.33.08-1.67.4-2.59.58c-.84.17-1.61.29-2.4.43l-1.17.19c.11-.37.26-.79.39-1.18.27-.77.53-1.54.8-2.3s.56-1.5.86-2.23c.15-.36.32-.74.49-1.08l.3-.57a22.33,22.33,0,0,1,5.62-6.85,22.46,22.46,0,0,1-.7,4.4,10.09,10.09,0,0,1-1.17,3.21c-.21.27-.41.54-.61.82l-.27.39-.12.06a2.67,2.67,0,0,0-.57.64,4.7,4.7,0,0,0-.29.5s-.07.1-.06.12h.22a5.07,5.07,0,0,0,.84,0l.5-.06.88-.15,1-.21,1.2-.25,2.35-.53,1.16-.27.59-.14.29-.07.14,0,0,0c-.76,1.25-1.52,2.54-2.24,3.83-.18.33-.34.65-.51,1s-.34.69-.41.86c-.19.43-.35.85-.5,1.27-.08.21-.14.42-.21.63a3.91,3.91,0,0,0-.15.53c-.05.2-.09.39-.12.59s-.05.38-.07.57l0,.31a.74.74,0,0,0,0,.15l.11,0,.33-.08a1.89,1.89,0,0,1,.63-.07l.46,0,.76-.09A16,16,0,0,1,150.94,540.31Z"></path><path class="cls-3" d="M145.78,550.05c.58-.76,1.15-1.53,1.72-2.29-1.16-2.58-2.27-5.23-2.91-7.21C145,543.72,145.39,546.88,145.78,550.05Z"></path><path class="cls-3" d="M198.54,536.23q.53,2.5,1,5c.44-.52.85-1.06,1.26-1.61-.49-.6-1-1.23-1.41-1.89C199.11,537.26,198.82,536.75,198.54,536.23Z"></path></g></svg>