<svg xmlns="http://www.w3.org/2000/svg" viewBox="0 0 380 600"><defs><style>.cls-1{fill:#515252;}.cls-2{fill:#242424;}.cls-3{fill:#2a2a2a;}</style></defs><g id="Krampus"><g id="Bottom"><path class="cls-1" d="M253.9,467.65c6.58,16.06,2.14,43.21-25.93,45.09-3.24.22-2.91,3.68-3.1,6.84,2.32,4.45,3.39,6.16,5.41,9.56,13.41-2.1,19.05,14.35,16.78,25.21-5.09-.4-5.92-.54-10.12-1,.07,1.52-.39,2.18-2.26,3.87-8.85.81-13.42-.77-21.74-4.13-6.26-8.58-11.45-11.79-17.88-21,0,0,5.42-20.52,1-25.94"></path><path d="M196.06,506.14a5.25,5.25,0,0,1,1.46,2.53,20.8,20.8,0,0,1,.72,6.23,59.49,59.49,0,0,1-.72,8.31c-.22,1.48-.48,3-.78,4.51-.15.76-.31,1.52-.46,2.28s-.3,1.3-.44,2l.54.73c.24.33.48.66.74,1,.49.64,1,1.28,1.5,1.88,1,1.23,2,2.38,3,3.45,2,2.14,3.88,4,5.34,5.44a79.31,79.31,0,0,1,6.08,6.74l.36.45.25.32a.23.23,0,0,0,.16.11l.11,0,.26.1,2.15.8c1.43.52,2.88,1,4.33,1.44a30.56,30.56,0,0,0,8.9,1.38c.76,0,1.53,0,2.3,0l1.15-.07.58-.05.26,0h0s.07,0,.09-.05l0,0,.11-.11c.26-.26.51-.52.69-.74a2,2,0,0,0,.22-.31.56.56,0,0,0,.07-.13l0,0a.73.73,0,0,0,0-.13,22.37,22.37,0,0,0,0-2.59l8.79.79,1.42.13c.07,0,.16,0,.16,0l0-.3c0-.51.1-1.08.11-1.63a25.34,25.34,0,0,0-2.85-12.62,14.84,14.84,0,0,0-3.92-4.71,10.22,10.22,0,0,0-5.36-2.1,12,12,0,0,0-1.47,0h-.38l-.34,0-.42.05-1.7.19a14.73,14.73,0,0,1-.89-1.42l-.68-1.14-.88-1.49c-1.18-2-2.31-4-3.36-6.07l-.32-.6c-.1-.25-.34-.49-.25-.77l.06-1.25c0-.56.05-1.13.1-1.75a11.62,11.62,0,0,1,.28-2,5.88,5.88,0,0,1,1.06-2.28,4.33,4.33,0,0,1,2.44-1.54,3.86,3.86,0,0,1,.63-.12l.53-.06.8-.07,1.57-.14,1.55-.24a30.18,30.18,0,0,0,6-1.56,25.32,25.32,0,0,0,13.22-11,31.33,31.33,0,0,0,3.77-10.34,38.89,38.89,0,0,0-1.47-19.6,30.16,30.16,0,0,1,3.46,9.11,36.18,36.18,0,0,1,.58,11.57,35.19,35.19,0,0,1-1.16,5.69,30.39,30.39,0,0,1-2,5,23.86,23.86,0,0,1-5,6.68,30,30,0,0,1-5.37,3.88,33.26,33.26,0,0,1-5.92,2.53,36.82,36.82,0,0,1-6.11,1.31c-1,.16-2,.22-3,.3l-.76,0a3.25,3.25,0,0,0-.48.07,1.19,1.19,0,0,0-.66.34c-.78.74-.82,3.05-.94,4.72-.06.3.07.33.31.87l.64,1.26c.44.84.87,1.67,1.32,2.48l1.37,2.44,1.11,1.94c.08.09.24,0,.36,0l.4,0c.49,0,1,0,1.47,0a13.35,13.35,0,0,1,2.88.42,13.15,13.15,0,0,1,5.08,2.61,17.11,17.11,0,0,1,3.61,4.19,26.11,26.11,0,0,1,3.48,10,28.5,28.5,0,0,1,.3,5.12c0,.43,0,.85-.08,1.27l0,.64-.11.79c-.07.54-.17,1.09-.27,1.65l-.08.42v.05h-.15l-.21,0-.84-.07-5.18-.5-2.37-.23-.77-.07-.33,0c-.11,0-.26-.06-.21.11a2.05,2.05,0,0,1-.05.55l0,.13-.11.26a4.54,4.54,0,0,1-.3.53,11,11,0,0,1-1.43,1.59c-.35.28-.63.73-1.13.65l-1.12.1c-.63,0-1.27.07-1.91.11a33.73,33.73,0,0,1-7.54-.54,44,44,0,0,1-7-2c-1.11-.4-2.21-.81-3.28-1.23l-.87-.35-.61-.24-.4-.52L210.8,552c-2.73-3.52-5.78-6.58-8.71-9.68-1.46-1.55-2.88-3.12-4.19-4.74-.65-.81-1.3-1.61-1.91-2.44-.3-.41-.61-.82-.9-1.24L194,532.3l.16-.59c.28-1.1.58-2.3.89-3.57s.57-2.42.84-3.69c.53-2.54,1-5.21,1.3-7.72a31.26,31.26,0,0,0,.16-6.75A8.21,8.21,0,0,0,196.06,506.14Z"></path><path class="cls-2" d="M229,530.71c12.47-1.9,18.34,12.24,16.43,22-4.79-.37-6.11-.92-10.07-1.36a7,7,0,0,1-1.55,4.65c-8.31.72-12.68-1.26-20.51-4.26,0,0-2.13-8.22,5.22-15.68A21.37,21.37,0,0,1,229,530.71Z"></path><path class="cls-1" d="M223.62,528.58c.8,3.35.44,6.19,6.5,6"></path><path d="M223.62,528.58c1,1.22,1.36,3,2.37,4.06s2.7,1.26,4.13,1.94c-4.63,2.11-7.74-1.36-6.5-6Z"></path><path class="cls-1" d="M218.92,530.91c-1.87,2.18-1.36,6.74,2.48,9.55"></path><path d="M218.92,530.91c-.91,3.56.75,6.54,2.48,9.55-4-.72-6.35-7.21-2.48-9.55Z"></path><path class="cls-1" d="M45.38,477.52c16.11,27,80.75,41.76,99.13,15l5.59,6C146.71,525.1,57.52,520,38.67,480.39"></path><path d="M38.69,480.38c.36.38,1.49,2.81,3.85,5.92A51.2,51.2,0,0,0,52.9,496.5a73.87,73.87,0,0,0,14.56,8.39,93.1,93.1,0,0,0,13,4.62,119.32,119.32,0,0,0,38.44,4.14c6.59-.47,13.25-1.55,19.19-4.06a22.05,22.05,0,0,0,7.71-5.16,11.69,11.69,0,0,0,2.3-3.7,8.64,8.64,0,0,0,.32-1,4,4,0,0,0,.15-.69v0h0l-.09-.09-.82-.88-2.89-3.08-.1-.11h0v0l0,0-.34.43a28.26,28.26,0,0,1-6.57,5.84,42.08,42.08,0,0,1-15.94,6,69.6,69.6,0,0,1-16.43.84,94.09,94.09,0,0,1-15.61-2.33A92.57,92.57,0,0,1,62.78,494.8c-7.72-4.72-14.09-10.55-17.76-17.06a45.81,45.81,0,0,0,8.16,8.39,68.77,68.77,0,0,0,11.28,7.3A104.51,104.51,0,0,0,76,498.57c1.79.62,3.43,1.25,4.93,1.7L83,501l1.77.53a88.11,88.11,0,0,0,25.7,4.21c8.42.08,16.75-1.33,23.74-5a14.61,14.61,0,0,0,1.29-.71l1.23-.79c.41-.28.83-.52,1.22-.82l1.13-.91c.37-.31.76-.6,1.12-.92l1-1c.34-.34.68-.67,1-1l.95-1.22,1.25-1.6c.46.4.93,1,1.38,1.44l2,2.22c.66.7,1.3,1.4,2,2.1l.6.65.17.18c0,.06.15.11.1.2l-.08.48-.16.86c0,.24-.13.47-.19.71a13.32,13.32,0,0,1-2.84,5.08,20.1,20.1,0,0,1-4.37,3.63A37.85,37.85,0,0,1,133,513.37a79.88,79.88,0,0,1-20.51,2.37,115.08,115.08,0,0,1-19.24-1.67C81,512,69.76,508.21,60.31,502.79A62,62,0,0,1,53,497.92a54.7,54.7,0,0,1-7.06-6.5A40.75,40.75,0,0,1,38.69,480.38Z"></path><path class="cls-3" d="M45.51,478.3c18-11.09,6.05-18.34,7.94-31.11-2.54,3.07-4.13,4.52-6,9.39-2-8.61-4.58-17.38-12-22.08,3.32,6.83-4.44,12-8.54,16.4-10.26,10.49-3.6,30.77,11.84,30.26"></path><path d="M38.8,481.19a10.3,10.3,0,0,1-3.83-.05,15,15,0,0,1-7.19-3.42,18.43,18.43,0,0,1-5.17-7.63,21.74,21.74,0,0,1-1.3-7.5A18.49,18.49,0,0,1,23,454.82a20,20,0,0,1,2.18-3.55c.9-1.08,1.84-2.06,2.8-3a43.34,43.34,0,0,0,5.27-5.75,9.45,9.45,0,0,0,1.53-3.19,4.75,4.75,0,0,0,.14-.84c0-.15,0-.26,0-.44l-.24-1.13a11.55,11.55,0,0,0-.77-2.63l-1.31-3.35c.41.25.75.44,1.22.76L35.79,433l1.85,1.33a14.67,14.67,0,0,1,1.86,1.55l.66.65.47.52c.3.35.64.69.91,1.06s.56.73.83,1.11l.76,1.14a36.82,36.82,0,0,1,3.64,8c.21.68.44,1.35.63,2l.3,1,.18.68v0h0s0,0,0,0l0-.08.2-.33c.27-.45.55-.88.85-1.3l.48-.66c.28-.35.54-.7.84-1.05l1.74-2.06,1.74-2.05c.55-.65,1.18-1.41,1.6-1.87l-.36,3-.18,1.56-.13,1.41-.06.7a5.42,5.42,0,0,0,0,.63l0,1.07v.52l0,.32,0,.59a39.51,39.51,0,0,0,.81,4.66c.66,3.07,1.55,6.3,1,9.55a11.53,11.53,0,0,1-1.69,4.37A16.07,16.07,0,0,1,52,474.33a32.61,32.61,0,0,1-6.28,4.33c1.33-1.2,3-2.64,4.55-4.34a15.59,15.59,0,0,0,3.62-5.82,12.24,12.24,0,0,0,0-6.13c-.39-1.9-.89-3.59-1.11-4.79a40.36,40.36,0,0,1-.72-5.2c0-.19,0-.49,0-.58v-.25c0-.21,0-.26,0-.38s.07-.46.13-.74l0-.15-.05,0-.13.12-.31.29-.35.37c-.07.07-.46.56-.7.91s-.52.75-.75,1.14a3.23,3.23,0,0,0-.24.42l-.26.48c-.18.31-.33.67-.49,1-.62,1.36-1.2,2.78-1.7,4,0-.07-.07,0-.09-.18l-.08-.36-.16-.7-.31-1.38L46,453.72c-.17-.7-.35-1.39-.53-2.08s-.3-1.15-.48-1.71a40.3,40.3,0,0,0-2.46-6.39c-1.69-3.75-6-8.31-5.88-6.83a5.12,5.12,0,0,1,.19.93l0,.47v.12l0,.2,0,.41a9.11,9.11,0,0,1-1,3.08,21.81,21.81,0,0,1-3.67,4.83c-2.71,2.83-5.65,5.11-7.21,8.14a18,18,0,0,0-2.05,9.48A19.41,19.41,0,0,0,25.47,473a19,19,0,0,0,2.7,3.55,15.62,15.62,0,0,0,3.93,2.9,16.35,16.35,0,0,0,4.08,1.4A26.12,26.12,0,0,0,38.8,481.19Z"></path><path class="cls-1" d="M253.06,465c-1-.88,3.1,9.55,9.71,12.55a8.54,8.54,0,0,1-10.48,1.39"></path><path d="M252.3,478.92c.23-.17,1.18.32,2.35.51a6.39,6.39,0,0,0,3.18-.14,10.14,10.14,0,0,0,2.25-1.14c.23-.16.19-.15.24-.21l.07-.11c0-.07.08-.13,0-.15l-.23-.05s0,0-.07,0l-.35-.23c-.24-.16-.46-.33-.68-.5a18.2,18.2,0,0,1-4.87-6,18.67,18.67,0,0,1-1.3-3.1,14.72,14.72,0,0,1-.37-1.49c0-.24-.07-.48-.09-.74a2.8,2.8,0,0,1,0-.42.65.65,0,0,1,.05-.21c0-.06.09,0,.13,0s0-.08,0-.05a.47.47,0,0,0,.09.17,2,2,0,0,0,.28.3l.59.52c.4.35.8.72,1.17,1.08a6.3,6.3,0,0,1,1.47,1.91,14.87,14.87,0,0,0,2.74,5,12,12,0,0,0,1.85,1.79l.51.37c.25.16.5.32.76.46.53.29,1.11.56,1.67.81v.1s0,.07-.05.12l-.28.26-.55.51a9.36,9.36,0,0,1-1.17,1,4.6,4.6,0,0,1-.63.42l-.49.28a8.41,8.41,0,0,1-1,.46,7.41,7.41,0,0,1-4.07.39,5.46,5.46,0,0,1-2-.88A7.55,7.55,0,0,1,252.3,478.92Z"></path><ellipse class="cls-1" cx="197.33" cy="463" rx="57.58" ry="25.42"></ellipse><path d="M139.73,463a8.25,8.25,0,0,1,.06-2.48,13.53,13.53,0,0,1,2-4.93c2.3-3.75,7-7.37,12.39-10.09a76.79,76.79,0,0,1,17.46-6.05A127,127,0,0,1,186.56,437a124.48,124.48,0,0,1,21-.44,107.12,107.12,0,0,1,21.61,3.51,71.64,71.64,0,0,1,10.52,3.75,43.68,43.68,0,0,1,9.69,5.84,20.15,20.15,0,0,1,6.86,9.45,13.44,13.44,0,0,1,.4,6.11,15.37,15.37,0,0,1-2.14,5.56,25.62,25.62,0,0,1-6.83,7,49,49,0,0,1-8.2,4.69A81.77,81.77,0,0,1,221.94,488a123.63,123.63,0,0,1-34.69,1.78c-11.09-1-21.58-3.35-30.61-7.42a42,42,0,0,1-11.95-7.75,20.18,20.18,0,0,1-4.05-5.39,13.21,13.21,0,0,1-1.45-6.23,13.23,13.23,0,0,0,2,5.64,20.24,20.24,0,0,0,4.52,4.9,44.92,44.92,0,0,0,12.71,6.67c9.11,3.27,18.24,4.49,23,5.25a114.06,114.06,0,0,0,14.26,1.38,121.89,121.89,0,0,0,13.95-.27,93.08,93.08,0,0,0,26-5.54,46.23,46.23,0,0,0,11.08-6c3.26-2.45,6.09-5.59,7.08-9.32a10.47,10.47,0,0,0,0-5.61,14.3,14.3,0,0,0-2.61-5,29.68,29.68,0,0,0-8.8-7.08,59.85,59.85,0,0,0-10.21-4.41,85.24,85.24,0,0,0-10.45-2.75,118.2,118.2,0,0,0-20.47-2.21,130.9,130.9,0,0,0-19.21.92,107.31,107.31,0,0,0-17.55,3.58c-5.21,1.58-12.31,4.21-17.53,8.21a27.1,27.1,0,0,0-3.44,3.17,18,18,0,0,0-2.34,3.34A13,13,0,0,0,139.73,463Z"></path><path class="cls-1" d="M254.91,463.37c-9,37.25-43.74,56-63.79,54.5-18.52-1.37-41.24-8.94-48.76-28.75-2.67-7.06-3.18-15.46-2-25.75"></path><path d="M140.39,463.37a42.35,42.35,0,0,1-.08,5,71.69,71.69,0,0,0,.32,10.24,37.21,37.21,0,0,0,2.93,11.29c.4.85.78,1.68,1.15,2.48l1.32,2.16c.21.35.41.69.62,1s.46.6.68.88l1.21,1.56c5.54,6.51,13.65,11.27,22.4,14.14a79.24,79.24,0,0,0,13.48,3.16l3.41.43,3.4.28a34.23,34.23,0,0,0,6.48-.26,51,51,0,0,0,11-2.8,69.58,69.58,0,0,0,10.23-4.77A76,76,0,0,0,236,494.82a78.62,78.62,0,0,0,6.57-7.79,85.84,85.84,0,0,0,5.19-8.09,82.92,82.92,0,0,0,6.58-15.7,54.24,54.24,0,0,1-4.44,17.42,61.34,61.34,0,0,1-4.34,8.16c-.78,1.15-1.5,2.22-2.2,3.13s-1.33,1.68-1.88,2.29a80.44,80.44,0,0,1-30,20.73,53.88,53.88,0,0,1-16.22,3.69c-.68,0-1.36,0-2,.05s-1.35-.05-2-.07l-3.91-.37c-1.28-.17-2.56-.32-3.82-.52s-2.51-.41-3.74-.66c-9.83-2-18.83-5.54-25.9-11a40.15,40.15,0,0,1-8.87-9.39,39,39,0,0,1-2.88-5.45,29,29,0,0,1-1.91-5.63,43.88,43.88,0,0,1-1-13A78.58,78.58,0,0,1,140.39,463.37Z"></path><path class="cls-1" d="M214.38,490.08c-8.67,26.09-14.09,31.95-42.17,33.84-3.23.22-3.08,7.21-3.27,10.37,2.32,4.45,3.39,6.16,5.4,9.56,13.41-2.1,19,14.35,16.79,25.21-5.09-.4-5.92-.54-10.13-1,.07,1.52-.38,2.18-2.26,3.87-8.84.81-13.42-.77-21.74-4.13-9-6.64-16.74-19.59-23.16-28.77,2.7-10.84.83-21,1.56-32.15,7.38-4.8,8.49-13.76,5.92-21.79"></path><path d="M141.35,485.05a18.73,18.73,0,0,1,1.59,6.92,19.88,19.88,0,0,1-.75,6.78,15.67,15.67,0,0,1-4.28,6.9l-.8.73-.77.57-.29.22c-.05.09,0,.23,0,.35l0,.9c-.06,1.41-.07,2.82-.06,4.24,0,2.83.12,5.66.19,8.36a89.12,89.12,0,0,1-.45,13.93c-.11.68-.21,1.36-.31,2s-.21,1.12-.32,1.68a.19.19,0,0,0,.06.2l.14.19.58.79c.4.56.81,1.12,1.21,1.69l4.83,6.82a116.36,116.36,0,0,0,10.6,13.17c.48.51,1,1,1.49,1.48s1,1,1.55,1.41,1,.92,1.61,1.32l.73.57.71.28a71.76,71.76,0,0,0,8,2.73,29.87,29.87,0,0,0,8.09,1c.68,0,1.37,0,2.05-.08.35,0,.69-.05,1-.07l.2,0a0,0,0,0,0,0,0l.38-.38a7.9,7.9,0,0,0,.53-.6,2.43,2.43,0,0,0,.14-.22.36.36,0,0,0,0-.09h0v-.13l0-.27c0-.77,0-1.66,0-2.43l7.12.68,2.54.24.63.07h.14l0-.2c.05-.55.1-1.26.12-1.89a26.55,26.55,0,0,0-.2-3.88,25.06,25.06,0,0,0-2.07-7.39,15.44,15.44,0,0,0-4.39-5.76,10.32,10.32,0,0,0-6.39-2.18l-.87,0-2,.22c-.15,0-.35.08-.47,0l-.26-.43-.51-.86-.78-1.32c-.68-1.16-1.37-2.33-2-3.52s-1.3-2.38-1.92-3.57l-.64-1.22c-.22-.28-.11-.59-.11-.88l0-.74.1-2a29.82,29.82,0,0,1,.52-4.18,11.78,11.78,0,0,1,.71-2.24,5.17,5.17,0,0,1,1.93-2.3,5.22,5.22,0,0,1,.83-.39,8.74,8.74,0,0,1,.89-.17l1-.08,1.89-.13c1.26-.08,2.52-.17,3.75-.31a58,58,0,0,0,14-2.77,23.81,23.81,0,0,0,10.58-7.42,48.15,48.15,0,0,0,6.26-10.78c1.67-3.68,3-7.31,4.32-10.71a100.83,100.83,0,0,1-2.94,11.33,43,43,0,0,1-6,12.44l-1.08,1.42-1.24,1.29a19.86,19.86,0,0,1-2.64,2.31,26.07,26.07,0,0,1-5.67,3.22,38.87,38.87,0,0,1-9.38,2.55l-2.85.38-2.83.24c-1.87.19-3.73.25-5.57.35l-.7,0-.34,0h-.28s-.12,0-.15,0l-.08,0s-.06.06-.1.08a3.52,3.52,0,0,0-.85,1.63,23.61,23.61,0,0,0-.73,5l-.09,1.33,0,.36c0,.1,0,.12.09.24l1.19,2.34c.8,1.55,1.63,3.05,2.49,4.55l.6,1c.13.2.19.41.32.51l.3,0h.38c.46,0,.92,0,1.38,0a13.33,13.33,0,0,1,5.31,1.32,16.43,16.43,0,0,1,7.19,7.5,27.59,27.59,0,0,1,2.73,9.54,30.27,30.27,0,0,1,.1,4.85l-.11,1.2-.23,1.53-.14.79-.08.39v.1s0,.07-.06,0l-.2,0-1.58-.15-4.76-.49-2.25-.23-.74-.08-.34,0-.17,0c-.08,0,0,.09,0,.13a1.67,1.67,0,0,1,0,.5,1.82,1.82,0,0,1-.07.25,2.65,2.65,0,0,1-.22.45,6.49,6.49,0,0,1-1.15,1.43c-.2.2-.39.38-.7.66a3.49,3.49,0,0,1-.42.36l-.56.05-.91.07c-.27,0-.55,0-.82.05a37.07,37.07,0,0,1-6.5-.17,49.8,49.8,0,0,1-12-3.46l-1.46-.57a1.3,1.3,0,0,1-.44-.27l-.32-.25-.61-.47c-.83-.61-1.55-1.32-2.32-2-1.46-1.38-2.87-2.78-4.15-4.25a107.34,107.34,0,0,1-7.1-9c-2.18-3-4.22-6-6.23-9-.5-.73-1-1.45-1.49-2.18l-.8-1.14-.58-.83c-.08-.07-.05-.15,0-.24l.06-.24.11-.5.31-1.4c.09-.42.15-.83.22-1.25.16-.82.26-1.65.38-2.48.8-6.63.37-13.14.43-19.45,0-1.28,0-2.68.11-4.15,0-.37.05-.75.07-1.12l.09-1.33a5.15,5.15,0,0,1,.09-.81l.69-.48c.52-.37.73-.48,1-.73a14.82,14.82,0,0,0,5.06-7.31,20.74,20.74,0,0,0,.83-8A29.94,29.94,0,0,0,141.35,485.05Z"></path><path class="cls-2" d="M173,545.42c12.47-1.9,18.35,12.24,16.43,22-4.79-.37-6.11-.92-10.06-1.36a7,7,0,0,1-1.55,4.65c-8.32.72-12.69-1.26-20.52-4.26,0,0-2.13-8.22,5.23-15.68A21.32,21.32,0,0,1,173,545.42Z"></path><path d="M175.85,554.85c.18-.15.76.16,1.25.71s.91,1.22,1.2,1.57a14.26,14.26,0,0,1,2.31,4.35,17.14,17.14,0,0,1,1.18,7c-1.44-.27-2.78-1.51-2.73-2.1.39-4.72-1.84-7.51-2.68-9.72a6.26,6.26,0,0,1-.28-1C176,555.31,175.88,555,175.85,554.85Z"></path><path class="cls-1" d="M161.71,546.16c.77,3.36.39,6.19,6.45,6.07"></path><path d="M161.71,546.16c1,1.23,1.33,3.06,2.33,4.09s2.7,1.28,4.12,2c-4.65,2.06-7.73-1.44-6.45-6.07Z"></path><path class="cls-1" d="M164,543.32c.75,3.3,4.8,5.87,9.29,4"></path><path d="M164,543.32c2.21,3.11,5.61,4.07,9.29,4-3,3.29-9.9.78-9.29-4Z"></path><path d="M232.17,540.53c.18-.15.77.16,1.26.71s.9,1.22,1.19,1.57a14.39,14.39,0,0,1,2.32,4.35,17.12,17.12,0,0,1,1.17,7c-1.44-.27-2.77-1.52-2.72-2.11.39-4.71-1.85-7.51-2.68-9.71a6.05,6.05,0,0,1-.29-1A6.41,6.41,0,0,0,232.17,540.53Z"></path></g></g></svg>