<svg xmlns="http://www.w3.org/2000/svg" id="Layer_3" data-name="Layer 3" viewBox="0 0 380 600">
  <defs>
    <style>
      .cls-1 {
        fill: blue;
        stroke: #000;
        stroke-miterlimit: 10;
        stroke-width: .94px;
      }

      .cls-2 {
        opacity: .5;
      }

      .cls-3, .cls-4 {
        stroke-width: 0px;
      }

      .cls-4 {
        fill: #fffffe;
      }
    </style>
  </defs>
  <path class="cls-1 color-hair" d="m268.61,217.03s20.35,47.34,28.67,101.79c7.16,46.91,4.47,102.98,4.47,102.98l-1.69,45.34s12.03-31.17,12.8-70.24,3.76-107.74-15.32-148.24c-22.62-48-28.92-31.63-28.92-31.63Z"></path>
  <path class="cls-1 color-hair" d="m278.52,216.48s-11.57-11.22-27.23-22.36c-5.05-3.59-10.71-5.94-16.06-8.48-5.27-2.57-10.69-4.79-16.23-6.63-20.56-6.81-42.9-6.6-64.07-2.37-9.54,1.91-18.8,3.06-27.72,7.11-4.23,1.93-23.69,12.08-28.52,16.87-2.09,1.6-9.6,11.33-9.77,11.75,0,0-6.35,8.38-6.35,8.44,0,0,9.94-.98,18.48-.13,2.88.29,5.37,1.59,8.03,2.13-.62,1.68-1.27,3.54-1.92,5.58-.35,1.11-.71,2.26-1.09,3.45-.34,1.2-.69,2.45-1.05,3.73-.75,2.56-1.37,5.31-2.1,8.17-1.3,5.74-2.59,12-3.62,18.53-2.09,13.25-3.45,26.61-4.07,40.02-.59,12.9-.51,24.61-.24,32.96.71,27.4,4.46,80.54,11.16,107.02,3.46,13.66,7.77,27.06,12.9,40.11.65,1.63,1.26,3.27,1.93,4.88l2.07,4.8c.69,1.59,1.36,3.2,2.08,4.79.72,1.59,1.48,3.18,2.28,4.75.41.78.81,1.57,1.24,2.34l.24.43.31.53.62,1.04c.41.71.82,1.39,1.26,2.03,1.49,2.34,3.17,4.54,5.02,6.57,1.58,1.69,8.2,3.88,7.19.3-.51-1.82-2.07-5.77-2.57-7.57-.48-1.78-.96-3.52-1.39-5.24l-.94-3.77c-.21-.86-.41-1.73-.61-2.59-.4-1.72-2.36-7.78-2.72-9.49-5.62-25.47-9.46-68.74-9.95-94.88-.28-12.84-.32-36.17-.36-48.69.01-12.5.99-20.43,1.78-32.34,1.57-23.77,6.94-44.44,14.4-63.85.86-2.41,1.94-4.69,2.9-7,2.63-.49,5.39-.97,8.25-1.67,6.94-1.92,13.84-5.58,20.13-9.79,10.19-6.94,19.29-15.53,26.97-25.45,1.13-1.55,9.2-13.08,9.93-12.49l5.61,5.09c40.33,24.72,63.89,21.52,63.83,21.39Z"></path>
  <path class="cls-3" d="m280.62,241.96c15.56,36.99,17.34,70.64,17.58,72.19,3.52,22.44,5.48,45.09,5.85,67.8,0,3.01,0,6.03,0,9.08-.01,1.52.02,29.05-.03,30.59-.05,1.53-.11,3.07-.16,4.62-.13,3.09-.17,6.2-.37,9.33-.22,3.13-.51,13.15-.74,16.33,3.73-8.71,3.68-19.46,5.33-29.68,1.6-10.64,3.18-45.59,3.43-56.35.05-2.75.1-5.51.15-8.28,0-2.78,0-5.57,0-8.37-.04-2.81-.08-5.63-.11-8.46-.03-2.83,0-5.68-.07-8.53-.08-5.7-.39-11.45-.79-17.25-.48-5.79-1.05-11.62-1.91-17.47-1.65-11.92-4.35-23.67-8.07-35.11-1.92-5.85-4.2-11.58-6.8-17.16-2.67-5.65-5.73-11.1-9.16-16.31-7.02-10.65-15.95-19.91-26.35-27.31-4.16-2.89-8.48-5.53-12.96-7.9-6.08-3.18-12.69-7.84-19.23-9.93l2.1-2.88c6.35,3.14,12.41,6.86,18.09,11.1,5.8,4.33,30.84,40.66,14.26,16.82-9.96-9.84-21.68-19.28-34.45-25.04l1.61-2.58c7.74,2.16,15.22,5.15,22.32,8.91,7.44,3.96,14.36,8.82,20.61,14.47,12.75,11.56,22.75,26.75,29.71,43.45,6.94,16.75,11.09,34.93,13.29,53.44,1.1,9.27,1.68,18.64,1.88,28.05.14,4.71.01,9.39.09,14.07.06,4.67.03,9.38,0,14.1-.14,8.27.62,18.69-.13,27.17-.75,8.54-1.05,21.98-4.73,49.42-2.92,14.51-6.93,28.76-10.89,42.92-.28,1.01-1.78.78-1.75-.27.32-10.31.93-29.11,1.56-39.96.99-15.29,1.06-56.33.63-70.86-.22-4.29-1.07-10.94-1.47-16.67-.5-5.72-4.26-41.29-6.73-54.7-.65-3.35-1.67-10.12-2.29-13.32-.69-3.19-1.37-6.28-2.02-9.25-16.59-53.2-23.07-54.33-23.33-55.39-.29-1.07,2-1.48,4.03.25,1.41,2.12,7.76,14.82,12.02,24.93Z"></path>
  <path class="cls-3" d="m79.78,222.5c0-.05,6.88-9.71,6.88-9.71.18-.42,8.15-10.18,10.37-11.79,5.13-4.8,21.71-14.87,26.19-16.81,9.46-4.07,22.41-7.54,32.52-9.45,22.46-4.24,47.09-2.25,68.9,4.58,5.88,1.85,11.63,4.07,17.22,6.65,5.67,2.55,11.42,5.28,17.03,8.51,5.8,3.22,11.14,7.2,15.89,11.83l.9.9c.29.31.56.64.84.96.55.65,1.13,1.29,1.66,1.96l1.52,2.1.38.53.4.73.81,1.47.82,1.48c.26.51.49,1.07.73,1.6l.72,1.62.36.82c.06.13.12.26.16.39l-.43-.06c-2.32-.33-4.63-.61-7.05-.98l-2.73-.45c-.85-.14-1.7-.27-2.55-.43-1.7-.32-3.42-.6-5.13-.95-3.43-.67-6.87-1.41-10.32-2.27-7.05-1.7-13.96-3.89-20.7-6.56-7.04-2.77-13.73-6.35-19.94-10.65l-2.32-1.75c-.77-.59-1.57-1.15-2.29-1.81l-.28-.24-.14-.12-.03-.02-.11-.07-.18-.12-.08-.05-.04-.02s-.04.06-.06.09l-.23.39-.21.37c-.12.23-.27.44-.43.64l-1.7,2.38c-1.15,1.59-2.35,3.14-3.55,4.7-8.14,9.95-17.8,18.57-28.61,25.54-6.67,4.22-13.99,7.89-21.35,9.82-7.35,1.71-14.16,2.1-19.58,4.51,2.87-1.64,5.93-2.91,9.12-3.77,3.19-.98,6.5-1.8,9.71-2.89,3.26-1.22,6.42-2.68,9.46-4.37,3.19-1.8,6.28-3.77,9.25-5.9,3.06-2.14,6.02-4.56,9-7.06,2.92-2.58,5.86-5.23,8.66-8.12,2.84-2.84,5.59-5.87,8.27-9.02l1.99-2.39,1.94-2.46c.65-.82,1.28-1.65,1.9-2.51l.94-1.27.47-.64.74-1.05,3.21-4.6.2-.29.28.26.57.51,1.14,1.03,2.28,2.05,1.4,1.26c.4.34.83.65,1.24.98l2.51,1.95,2.64,1.8,1.33.9,1.39.83,2.78,1.66,2.89,1.52,1.45.76,1.49.7,3,1.39c2.05.83,4.07,1.74,6.19,2.48,4.17,1.6,8.51,2.9,12.89,4.14,4.4,1.2,8.88,2.23,13.42,3.17,2.28.44,4.55.9,6.85,1.29l1.72.3.34.06h.01s0,0,0,0l-.2-.36-1.7-2.42c-.69-.86-1.42-1.69-2.13-2.54-3.12-3.31-6.6-6.25-10.39-8.77-4.5-2.99-9.2-5.67-14.06-8.04-4.93-2.42-10.08-4.82-15.19-6.9-10.41-4.16-21.29-7.03-32.39-8.54-5.54-.74-11.13-1.15-16.72-1.23-5.54-.05-34.48,1.21-48.53,6.93-33.69,10.23-49.95,35.57-49.92,35.6l5.08.02c6.89-.38,15.28.33,22.5,3.13,5.49,2.13,7.18,4.21,7.35,4.44-1.09-.98-11.29-3.9-21.33-4.84-9.06-.85-19.32.55-19.32.55Z"></path>
  <path class="cls-3" d="m103.41,243.13c-1.56,7.11-2.89,14.77-3.93,22.16-1.02,7.4-1.74,14.52-2.28,20.55-.59,7.55-1.09,15.27-1.23,23.17-.07,1.97-.09,3.96-.09,5.95,0,1.99-.04,4-.02,6.02.07,4.03.08,8.11.28,12.22.62,17.16,2.39,34.26,5.29,51.18,1.59,8.79,3.41,43.74,5.72,52.76,2.36,9,4.94,18.15,8.21,27.28,3.23,9.35,6.93,18.52,11.09,27.5,1.05,2.29,2.08,4.61,3.24,6.86.57,1.13,1.17,2.25,1.79,3.35l.88,1.52c.21.33.4.68.62,1.01.85,1.36,1.8,2.65,2.84,3.86.52.62,1.09,1.2,1.66,1.76l.45.41.22.2-.09-.29-.35-1.16c-.64-2.1-1.24-4.23-1.82-6.38l-.53-1.98-.68-2.64c-.44-1.77-.91-3.54-1.32-5.33-1.72-7.14-3.24-14.42-4.58-21.84-2.73-15.26-4.53-30.67-5.4-46.14-.87-15.89-.85-58.17-1.07-74.85-.32-17.2.29-34.4,1.83-51.53.77-7.49,1.99-14.93,3.66-22.27,1.07-4.52,2.27-9.36,3.88-14.32.74-2.49,1.68-4.99,2.58-7.52.46-1.27,1-2.52,1.5-3.78s1.01-2.54,1.6-3.78c.57-1.25,1.15-2.51,1.72-3.76.63-1.23,1.27-2.47,1.9-3.7.61-1.24,1.3-2.45,2.01-3.64.71-1.19,1.35-2.41,2.13-3.56,2.89-4.57,6.16-8.89,9.77-12.92,6.27-6.89,13.79-12.52,22.17-16.59-7.77,4.78-14.66,10.86-20.37,17.97-3.04,3.85-5.78,7.93-8.2,12.2l-.95,1.63-.87,1.69c-.58,1.13-1.16,2.27-1.74,3.41-1.04,2.35-2.2,4.67-3.12,7.13-7.91,19.47-11.81,42.14-13.47,65.99-.84,11.95-1.11,24.23-1.12,36.77.04,12.55-.04,25.38.26,38.26.52,26.23,3.78,78.33,9.74,103.88.38,1.72.82,3.43,1.24,5.16.22.87.43,1.73.65,2.6l1,3.78c.45,1.72.96,3.47,1.47,5.25.53,1.8,2.19,5.77,2.73,7.59,1.07,3.6-5.95,1.4-7.63-.3-1.96-2.04-3.74-4.24-5.32-6.59-.46-.64-.9-1.32-1.33-2.03l-.66-1.05-.32-.53-.25-.43c-.46-.78-.89-1.56-1.32-2.35-.85-1.58-1.66-3.17-2.42-4.77s-1.47-3.21-2.21-4.81l-2.19-4.82c-.71-1.62-1.36-3.26-2.05-4.89-5.44-13.1-10.01-26.54-13.68-40.24-7.1-26.57-11.08-79.87-11.83-107.36-.29-8.39-.36-20.13.26-33.07.66-13.46,2.1-26.86,4.32-40.15,1.1-6.55,2.46-12.82,3.84-18.58.77-2.86,1.42-5.63,2.22-8.19.38-1.29.76-2.54,1.12-3.74.4-1.2.79-2.35,1.16-3.46,1.49-4.44,3-8.07,4.18-10.73.73-1.65,1.55-3.25,2.48-4.8-4.04,9.61-7.14,19.6-9.24,29.81Z"></path>
  <g class="cls-2">
    <path class="cls-4" d="m108.3,274.57c-.02,1.98.16,4.19.3,5.8,3.31-9.52,7.92-12.42,8.31-12.73.1-.07-.45,2.23-.45,2.23-.62,9.93,1.91,18.11,1.91,18.11l.03.06s.03-.07.04-.1c0,0,.23-6.07.61-9.43,1.17-8.12,4.69-11.57,6.71-13.61-1.45,4.15-3.12,9.43-3.74,13.78-.58,4.38-1.61,21.37-2.36,23.09-.8-2.6-3.04-8.98-3.86-11.63-2.54-7.37-2.37-14.18-2.37-14.18.02-.06.03-.13.04-.19,0,0-1.6,2.85-2.72,6.42-1.33,4.24-2.21,9.34-2.24,9.69,0,0-1.82-12.78-1.49-15.95.34-3.08,1.16-5.45,1.48-5.65-.05.58-.24,2.31-.22,4.3Z"></path>
  </g>
  <g class="cls-2">
    <path class="cls-4" d="m133.95,191.76l.1.03,6.3,1.79c-1.57.58-7.97,4.53-8.27,5-.17.18.09.08.21.07l.43-.08.87-.15,2.7-.45,4.54-.75,3.46-.54s0,.06,0,.09l-.1.4-2.84,9.17s10.32-4.6,12.17-5.5c.4-.2,1.12-.53,1.77-.81s1.32-.55,1.97-.79l1.99-.73,1.03-.37c.07-.01.22-.1.21-.06l.06.06.13.11c-.87,1.48-1.65,3-2.35,4.57-.15.37-.3.75-.41,1.12-.09.3-.16.52-.23.79-.14.51-.25,1.03-.35,1.56-.09.53-.17,1.06-.22,1.6-.02.27-.05.54-.06.81l-.02.41v.22c0,.28.02.55.05.81.02.13.03.26.05.38l.03.18c.01.06,0,.15.09.06,0,0,4.7-3.18,6.03-3.99,2.67-1.62,15.3-7.28,15.3-7.28.05,0-.21,9.06,0,9.12.24.05,7.4-4.04,8.98-4.81-2.03,1.94-4.27,4.02-6.68,6.23-.89.89-2.11,1.36-3.37,1.3-.61-.09-1.16-.44-1.5-.96-.34-.56-.51-1.2-.49-1.86-.05-.97-.27-3.91-.27-3.91-.02-.03,0-.12-.04-.1,0,0-5.86,2.78-7.58,3.68-1.72.9-3.43,1.86-5.14,2.89l-1.28.78-1.46.91-5.21,3.45c-.28-2.04-.46-4.1-.53-6.16-.02-.77.02-1.54.12-2.31.06-.61.16-1.21.27-1.82s.25-1.2.42-1.79c.08-.3.17-.59.27-.89l.04-.12h0s.02-.02.03-.04c.03-.04,0-.04-.05-.04h-.03l-.37.17-1,.47c-.66.33-1.32.67-1.97,1.03-1.31.73-15.14,6.93-15.54,6.72.73-1.68,4.64-11.4,4.64-11.4l-10.26,1.05-2.96.14-.41.02c.08-.14.17-.28.27-.42l.6-.86c1.78-2.47,7.51-6.08,7.51-6.08.05-.01,0-.01,0-.02,0,0-4.94-1.26-4.94-1.28,0,0,5.7-4.39,9.17-4.86-.69.13-5.93,4.02-5.94,4.04Z"></path>
  </g>
</svg>