<svg xmlns="http://www.w3.org/2000/svg" viewBox="0 0 380 600"><defs><style>.cls-1{fill:#41352e;}.cls-2{opacity:0.4;}</style></defs><g id="Designs"><path class="cls-1 color-hair" d="M305.4,376c-.64,9.72-5.88,18.72-12.88,25.49S276.85,413,268,417.08c-43,20-91.85,25.65-139.12,21.31-11.12-1-23-2.91-31.2-10.44-7.91-7.22-11-18.24-13-28.76-3.13-16.07-4.63-33,.48-48.57,7.92-24.06,30.24-40.56,53.27-51.09A206.34,206.34,0,0,1,244.1,281.94c11.36,1.13,22.93,3.32,32.62,9.35s17.22,16.59,16.93,28"></path><path d="M293.59,319.29c-.19-.58-.22-2.38-.82-5a30.61,30.61,0,0,0-4.11-9.87,37.58,37.58,0,0,0-10.26-10.7,51.52,51.52,0,0,0-16-7.27,105.64,105.64,0,0,0-18.86-3.13c-6.44-.54-12.86-.79-19-.77a192.77,192.77,0,0,0-31.1,2.76,213.87,213.87,0,0,0-41.49,11.63L146.8,299c-1.71.69-3.38,1.51-5.07,2.25-3.39,1.51-6.69,3.2-10,4.94a126.06,126.06,0,0,0-18.58,12.2c-1.48,1.12-2.83,2.37-4.24,3.57s-2.68,2.53-4,3.8a79.21,79.21,0,0,0-7.13,8.33,66.54,66.54,0,0,0-5.73,9.2c-.41.8-.75,1.63-1.13,2.44s-.8,1.61-1.07,2.47c-.59,1.69-1.29,3.33-1.74,5.06a70.69,70.69,0,0,0-2.56,21.25A132.42,132.42,0,0,0,88,395.93a89.67,89.67,0,0,0,4.76,17.65,37,37,0,0,0,4.13,7.51,26.15,26.15,0,0,0,5.83,5.77c4.46,3.23,10.07,5,15.88,6.14,2.92.56,5.91.95,9,1.25s6.12.51,9.17.77a303.68,303.68,0,0,0,70.92-2.94A255.64,255.64,0,0,0,240,424.59a245.56,245.56,0,0,0,29.27-10.95c9.1-4.14,17.43-9,23.71-15.43a43.51,43.51,0,0,0,7.69-10.54,33.93,33.93,0,0,0,3.57-11.79,31.38,31.38,0,0,1-1.92,12,43.06,43.06,0,0,1-7.17,12.46A61.25,61.25,0,0,1,283.67,411,111.65,111.65,0,0,1,270,419.27,206.73,206.73,0,0,1,242.84,431l-6.09,2c-1.95.62-3.84,1.1-5.6,1.59s-3.41,1-5,1.29l-4.24.9a292.4,292.4,0,0,1-30.61,4.36c-10.11.87-20.07,1.2-29.88,1.14-2.45-.05-4.89,0-7.32-.13l-7.25-.29c-4.81-.3-9.59-.57-14.31-1.06a140,140,0,0,1-14.1-1.77,54.59,54.59,0,0,1-13.62-4.22,32.37,32.37,0,0,1-11.26-8.71,42,42,0,0,1-6.69-12.15A87.78,87.78,0,0,1,83.43,401c-.85-4.31-1.59-8.6-2.14-12.9a101.91,101.91,0,0,1-.36-25.63,67.29,67.29,0,0,1,2.73-12.33c.37-1,.73-2,1.09-2.95l.54-1.46c.2-.48.43-.95.64-1.42l1.3-2.83c.47-.92,1-1.81,1.48-2.72a77.25,77.25,0,0,1,15-18.87,111.65,111.65,0,0,1,18.6-14,156.9,156.9,0,0,1,20-10.24,208.55,208.55,0,0,1,20.3-7.57,199.93,199.93,0,0,1,78.67-8.42,107.85,107.85,0,0,1,19.86,3.39A63.79,63.79,0,0,1,271.57,287a46.79,46.79,0,0,1,9.28,5.91,37,37,0,0,1,11.07,15.32,29.77,29.77,0,0,1,1.59,6.71c.07,1,.13,1.8.13,2.54S293.6,318.79,293.59,319.29Z"></path><path d="M123.74,363.77c.18.3,0,1.09-.51,2.16s-1.19,2.4-1.85,3.89c-.35.74-.71,1.49-1.06,2.25s-.64,1.54-.93,2.27-.57,1.43-.8,2.07-.36,1.25-.48,1.76c-.19.89-.41,1.78-.64,2.67s-.4,1.83-.6,2.76c-.47,1.82-.77,3.72-1.18,5.58-.21.94-.32,1.89-.49,2.83s-.36,1.87-.45,2.82c-.22,1.88-.52,3.72-.6,5.54a168.1,168.1,0,0,0-.4,18.34c.17,5.76.64,11,.87,15.44a18.82,18.82,0,0,1-5.79-6.27,20.67,20.67,0,0,1-1-1.88c-.27-.63-.51-1.24-.7-1.81a8,8,0,0,1-.54-2.86c.41-5.75.94-10.93,1.48-15.77s1.21-9.32,1.94-13.52c1.55-8.36,3.64-15.69,7.14-21.27a25.43,25.43,0,0,1,3.55-4.31C122.06,365.14,123.31,364.09,123.74,363.77Z"></path><path d="M135.28,366.85c.25.25.2,1,0,2.11s-.6,2.46-.95,4-.79,3.07-1.08,4.55a24,24,0,0,0-.6,3.78c-.5,6.89-1.5,14.51-1.69,21.47-.19,6.07-.31,12-.4,17.56s-.16,10.55-.49,14.74a19.11,19.11,0,0,1-5.06-6.36,17.29,17.29,0,0,1-1.41-3.53,7,7,0,0,1-.34-2.68c1.52-10.58,2.19-19.42,3-27.39s1.8-14.91,4.12-20.59a24.47,24.47,0,0,1,2.55-4.58C134,368.44,134.94,367.24,135.28,366.85Z"></path><path d="M277.87,338.89c.65-.06,2,1.83,3.27,4.13.67,1.15,1.34,2.39,1.95,3.53s1.2,2.17,1.68,2.88c3.42,5,6,11.4,7.88,17.29a65,65,0,0,1,3.12,15.34,46.29,46.29,0,0,1-.64,12.92,20.54,20.54,0,0,1-4.64-5.43c-1.17-2-1.94-3.83-1.8-4.9a49,49,0,0,0-3-22.22c-2.26-6.21-5-11.23-6.54-16a20.5,20.5,0,0,1-.92-4.25C278,340.68,277.88,339.34,277.87,338.89Z"></path><path d="M268.34,345c.65.07,1.72,2.42,2.71,5.22.5,1.39,1,2.9,1.44,4.28s.88,2.62,1.24,3.5c2.67,6.21,4.17,13.78,5.06,20.66a75.48,75.48,0,0,1,.31,17.52,55,55,0,0,1-3.18,14.09,23.92,23.92,0,0,1-3.45-6.93c-.76-2.41-1.16-4.62-.82-5.78a57.65,57.65,0,0,0,1-25.11c-1.22-7.3-3.2-13.4-4.05-19a25.85,25.85,0,0,1-.32-4.85C268.21,347,268.29,345.48,268.34,345Z"></path><g class="cls-2"><path d="M242.33,428.3c-.24.67-6.57,1.85-8.92,2.72-4.15,1.51-9,2.74-13.36,4a118,118,0,0,1-20.47,4c1.75-2.24,5.77-4.57,7.4-4.71,13-1.1,22.09-5,29.7-6A28.32,28.32,0,0,1,242.33,428.3Z"></path></g></g></svg>