<svg xmlns="http://www.w3.org/2000/svg" id="outfits_springbreak" viewBox="0 0 380 600"><defs transform="matrix(-1, 0, 0, 1, 380, 0)"><style>.cls-1{fill:blue;}.cls-2{fill:#f9a;}.cls-3{opacity:0.3;}.cls-4{opacity:0.5;}.cls-5{fill:#fffffe;}</style></defs><path class="cls-1 color-hair" d="M313.5,328.64c-1.38-24,.13-53.74-6.87-76.76-25.22-92.52-196.8-93.13-220.78,3.36-4.41,19.32-21,34.81-17.24,55.36,1.73,9.33,6.81,18.31,6.69,27.94-.11,8.91-7.9,17.94-11.63,25.85-3.3,7-5.52,14.95-3.62,22.45,3.57,14.11,20.37,22.3,22.72,36.67,1.56,9.59-5,19.83-14.3,22.48,9.73,10.92,27.91,13,39.81,4.47-.65,8.15-1.78,17.24-8.14,22.37,8.06,1.86,16.64.13,24.13-3.38a62.55,62.55,0,0,0,15.81-10.35c4-3.73,5.28-7,10.68-9.1,10.25-4.08,24.45-8,34.49-1.43,9.91,14.33,14.42,18.86,32.88,15.44,11.18,3.9,19,15.42,21.8,26.59,9.94-1,13.78-2.76,22.59-11,11.85-11.07,24.11-50.59,16.61-74.82,20.94,23,2.64,23.34,2.45,49.3-.09,12.87,11.77,21.17,27.59,21.93-4-4.31-7.92-11-.67-18.53,9,0,15.09-3.85,17.53-10.28.91-2.38-1.49-3.28-2.76-4.63-5.34-5.66-9.14-17.26-3.84-26.21C347.13,369.67,308.62,375.81,313.5,328.64Z" transform="matrix(-1, 0, 0, 1, 380, 0)" /><path d="M313.56,328.64c.16,1.39-.48,6.17.29,13.46a52.55,52.55,0,0,0,2.77,12.39,78.31,78.31,0,0,0,7.19,14.28,71.86,71.86,0,0,1,4.32,8.16,28.79,28.79,0,0,1,2.37,9.71,33.17,33.17,0,0,1-1.18,10.43,59.61,59.61,0,0,1-3.75,10.17c-.73,1.69-1.62,3.3-2.46,5s-1.82,3.26-2.71,4.89a18.13,18.13,0,0,0-1.87,4.88,21,21,0,0,0-.37,5.32,24.58,24.58,0,0,0,3.15,10.39,23.34,23.34,0,0,0,1.49,2.3,12.32,12.32,0,0,0,.85,1.06,10.25,10.25,0,0,0,.87.94,11.89,11.89,0,0,1,2.48,2.38,3.43,3.43,0,0,1,.55,1.79,4.81,4.81,0,0,1-.4,1.85,15,15,0,0,1-1.34,2.64,10.94,10.94,0,0,1-.78,1.14,10,10,0,0,1-.88,1.07,16.77,16.77,0,0,1-4.32,3.42,20.61,20.61,0,0,1-5.08,1.93l-1.32.28-1.33.2c-.44.07-.88.09-1.32.14l-.62.05h-.82c-.07,0-.15,0-.2,0l-.13.16-.54.61c-.16.18-.41.57-.62.86l-.34.47-.27.49a9.27,9.27,0,0,0-1.31,4.13l0,1.07c.05.36.08.71.14,1.07s.16.7.27,1.05l.25.67a5.71,5.71,0,0,0,.37.8l.45.79a6.42,6.42,0,0,0,.52.81c.43.56.79,1.09,1.27,1.67.89,1.13,1.87,2.31,2.8,3.38-.07.11-.16.21-.22.32l0,.32c0,.05,0,.11,0,.15l-.48,0-1-.07c-1.28-.1-2.56-.18-3.8-.33a31.92,31.92,0,0,1-3.77-.53l-1.92-.36a9.21,9.21,0,0,1-.94-.22l-.73-.21a32.38,32.38,0,0,1-10.64-5.05,21.89,21.89,0,0,1-7.16-9.13c-1.54-3.58-1.57-7.59-1.35-11a47.09,47.09,0,0,1,1.71-10.08,76.7,76.7,0,0,1,3.24-8.86,25.46,25.46,0,0,0,2.24-7.61,10.68,10.68,0,0,0-.23-3.4,12.47,12.47,0,0,0-.44-1.62c-.2-.53-.38-1.05-.62-1.56-1.83-3.95-4.84-7.61-8.35-11.46l3.62-2.07A63.21,63.21,0,0,1,283.69,421c0,1.42,0,2.84,0,4.27l-.26,4.26c-.05,1.42-.27,2.83-.42,4.25s-.3,2.84-.57,4.24l-.72,4.23c-.3,1.39-.61,2.79-.92,4.19s-.69,2.79-1.05,4.18-.74,2.78-1.2,4.15A93,93,0,0,1,272,471a53.74,53.74,0,0,1-4.85,7.63,23.37,23.37,0,0,1-1.56,1.78,21.74,21.74,0,0,1-1.61,1.68c-1.07,1-2.15,2-3.28,3a37.84,37.84,0,0,1-7.64,5.31,28.75,28.75,0,0,1-4.51,1.74,40.92,40.92,0,0,1-4.59,1l-1.77.22-1.85.23c-1.14,0-2.89.87-2.86-.91l-1.09-3.6L236,487.8c-.1-.33-.23-.64-.35-.95a41.7,41.7,0,0,0-3.63-7.22,31.72,31.72,0,0,0-11.21-11c-.57-.31-1.15-.57-1.73-.87-.28-.14-.59-.23-.89-.36l-.32-.12c-.07,0-.16,0-.22,0l-.92.16c-.75.13-1.49.27-2.26.35a39.56,39.56,0,0,1-9.47.32,21.34,21.34,0,0,1-9.63-3.28,31.65,31.65,0,0,1-7.09-6.65c-.51-.59-1-1.2-1.43-1.8s-.93-1.2-1.36-1.81l-1.32-1.81L183,451.15a11.13,11.13,0,0,0-2.38-1.23,18.29,18.29,0,0,0-3.56-1.05c-5-.95-10.48-.21-15.8,1.22a78.73,78.73,0,0,0-7.95,2.64,19.18,19.18,0,0,0-3.37,1.55,14.27,14.27,0,0,0-2.66,2.25c-.87.92-1.81,2.06-2.88,3.21A39.46,39.46,0,0,1,141,463a59.93,59.93,0,0,1-7.48,5.45,75,75,0,0,1-8,4.35,49.06,49.06,0,0,1-8.81,3.13,42.4,42.4,0,0,1-4.65.89c-.78.13-1.57.18-2.36.26l-1.2.06c-.18,0-.41,0-.79,0l-1,0A38,38,0,0,1,99,476.3l-3.66-.73-.94-.19c-.33-.07-.46-.12-.71-.18l-1.3-.33,6-5.4c.71-.81,1.46-1.62,2.13-2.43l.39-.62.31-.57.29-.54a23.55,23.55,0,0,0,1.7-4.83c.2-.86.39-1.73.54-2.62l.06-.31v-.2l0-.21V457s0-.07,0,0a2.7,2.7,0,0,1-.35.21l-.07,0-.62.24a11.87,11.87,0,0,1-1.5.48,25.06,25.06,0,0,1-3,.77,35.79,35.79,0,0,1-12.2.34,35.32,35.32,0,0,1-11.44-3.67,26,26,0,0,1-2.6-1.52l-1.69-1.14c-.68-.52-1.27-1.09-1.87-1.64-1.19-1.13-2.42-2.19-3.56-3.39L63.07,446l-.86-.88-.71-.76L65.37,443l2-.69a5.94,5.94,0,0,0,.91-.37l.85-.39,1.69-.78.38-.18.16-.12.33-.22a11.56,11.56,0,0,0,1.21-.92,17.47,17.47,0,0,0,3.66-4.25,18.86,18.86,0,0,0,1.72-3.67,16.62,16.62,0,0,0,.8-5.87,13.59,13.59,0,0,0-.29-1.94,19.41,19.41,0,0,0-.5-2c-.26-.65-.45-1.3-.73-1.94a33.27,33.27,0,0,0-4.77-7.46c-2-2.44-4.15-4.84-6.36-7.38A65.55,65.55,0,0,1,60,396.53,28.57,28.57,0,0,1,56,374.81a48,48,0,0,1,3.22-10.2c.35-.81.69-1.59,1.09-2.39s.81-1.6,1.22-2.36c.84-1.52,1.7-3,2.55-4.38,1.7-2.82,3.34-5.53,4.67-8.22a30,30,0,0,0,1.67-4,16.47,16.47,0,0,0,.84-3.85l.06-.92,0-1.05c0-.69-.1-1.4-.15-2.11a37.81,37.81,0,0,0-.78-4.32c-1.37-5.86-4-11.85-5.48-18.76-.2-.85-.29-1.76-.41-2.66s-.24-1.79-.31-2.68l0-2.71c0-.45,0-.9,0-1.35l.12-1.34c.09-.89.16-1.78.26-2.67l.5-2.6c.09-.43.15-.87.26-1.3l.35-1.26c.24-.83.46-1.68.71-2.51,2.16-6.54,5.24-12.43,8.11-18.07s5.58-11.15,7.11-16.83l1.26-4.56c.23-.8.43-1.61.68-2.4l.79-2.34c.5-1.58,1.12-3.1,1.73-4.63s1.3-3,2-4.52a87.53,87.53,0,0,1,10.3-16.66,99.84,99.84,0,0,1,29.17-24.72,128.37,128.37,0,0,1,34.7-13.3,153.49,153.49,0,0,1,70.74.73,128.33,128.33,0,0,1,31.68,12.52,100.07,100.07,0,0,1,25.77,20.56A83.5,83.5,0,0,1,306.5,244.2c.91,2.44,1.59,4.91,2.29,7.36.33,1.23.65,2.45,1,3.67s.55,2.47.83,3.7a138.13,138.13,0,0,1,2.2,14.68c1.91,19.41,1.14,37.79,1.85,55-.85-7.66-1.41-16.29-2-25.54s-1.34-19.14-2.84-29.26a135.79,135.79,0,0,0-3-15.2l-.5-1.89-.58-1.89c-.39-1.25-.76-2.51-1.19-3.76-.79-2.51-1.74-4.95-2.76-7.37A80.36,80.36,0,0,0,283.91,218a99,99,0,0,0-24.83-17.46,118.54,118.54,0,0,0-13.3-5.65,125,125,0,0,0-13.1-3.93c-4.28-1-8.45-1.89-12.46-2.48s-7.84-1-11.46-1.34a172.75,172.75,0,0,0-18.77-.4,142.83,142.83,0,0,0-22.86,2.56c-3.76.7-7.45,1.65-11.11,2.65-1.81.56-3.64,1.05-5.42,1.69l-2.69.91-2.64,1a110.48,110.48,0,0,0-20,10.1,93.25,93.25,0,0,0-17,14,81.49,81.49,0,0,0-12.79,17.66,84.27,84.27,0,0,0-4.5,9.87c-.57,1.71-1.22,3.41-1.72,5.13l-1.5,5.31c-.46,1.88-1.16,3.67-1.79,5.48s-1.42,3.53-2.24,5.22c-1.56,3.42-3.29,6.69-5,9.94s-3.3,6.45-4.67,9.71c-.73,1.62-1.3,3.27-1.89,4.92-.27.83-.48,1.66-.72,2.49a20.43,20.43,0,0,0-.59,2.52,39.41,39.41,0,0,0-.68,5.06c0,.85,0,1.69,0,2.54,0,.42,0,.84,0,1.26l.15,1.26a48.61,48.61,0,0,0,2.33,10.08c1.06,3.37,2.26,6.77,3.15,10.33A44.5,44.5,0,0,1,76.89,334a27.32,27.32,0,0,1,.21,5.67,21.56,21.56,0,0,1-1.21,5.61,37.92,37.92,0,0,1-2.19,5.08c-1.64,3.25-3.56,6.22-5.34,9.2a56.56,56.56,0,0,0-4.6,9,37.61,37.61,0,0,0-2.54,9.58,21.85,21.85,0,0,0,.83,9.5,30,30,0,0,0,4.53,8.55c3.89,5.35,8.93,10,12.89,15.79a29.41,29.41,0,0,1,4.47,9.6,19.41,19.41,0,0,1,.61,5.38,21.5,21.5,0,0,1-.86,5.31,21.09,21.09,0,0,1-2.09,4.92,22.48,22.48,0,0,1-7.14,7.7c-.21.15-.28.18-.39.25l-.33.19a6.19,6.19,0,0,1-.67.36,10.6,10.6,0,0,1-1.41.56c-.13.05-.29.09-.4.14l.3.3.6.61a13.61,13.61,0,0,0,1.29,1.12,6.82,6.82,0,0,0,.69.51l1,.67c.72.5,1.52.86,2.28,1.3a30.55,30.55,0,0,0,20.23,2.57c.84-.16,1.65-.45,2.47-.66a10.68,10.68,0,0,0,1.2-.42l.78-.31c.28-.1.57-.24.86-.37a14,14,0,0,0,1.74-.92l1.74-1c1.18-.66,2.22-1.39,3.33-2.07l.17.12c0,.05.14,0,.1.26l-.09,1-.17,2c-.13,1.35-.24,2.69-.41,4.05-.07.67-.15,1.35-.26,2s-.21,1.4-.3,1.83c-.18,1-.4,2-.65,3a29,29,0,0,1-2.14,5.82l-.34.63a3.72,3.72,0,0,1-.22.38c-.16.25-.31.5-.48.74l-.54.7-.6.64-.54.48-.13.12s.1,0,.15,0l.36.07c.47.11,1,.16,1.43.23A20,20,0,0,0,108,472a36.88,36.88,0,0,0,8.9-1.47,47.19,47.19,0,0,0,8.41-3.37,68.9,68.9,0,0,0,7.84-4.62,46.23,46.23,0,0,0,6.88-5.67c1-1.05,2-2.21,3.05-3.39a20.18,20.18,0,0,1,3.74-3.29A16.49,16.49,0,0,1,149,449l1.14-.5,1.08-.42c1.44-.57,2.9-1.09,4.37-1.58a65.92,65.92,0,0,1,9-2.36,40.79,40.79,0,0,1,9.38-.7,25.82,25.82,0,0,1,9.3,2.16,15.78,15.78,0,0,1,2.18,1.15l.68.39c.11.08.25.12.33.22l.23.33.78,1.11c.84,1.21,1.71,2.39,2.57,3.57a45.15,45.15,0,0,0,5.59,6.4,16.62,16.62,0,0,0,6.85,3.88,24.18,24.18,0,0,0,8.09.55l1-.07,1-.13c.69-.09,1.39-.16,2.09-.26l2.17-.37.79-.13.4-.07.19,0,.18.07,1.44.57a30.67,30.67,0,0,1,7.88,4.69,41.66,41.66,0,0,1,10.86,14.11l.91,2,.82,2.06.57,1.67.3,1,0,.13s.08,0,.12,0l.27,0,.53-.06.54-.07.26,0,.46-.07a31.83,31.83,0,0,0,3.86-.84,22.64,22.64,0,0,0,6.88-3.39,64,64,0,0,0,6.16-5.16l.74-.69.64-.7,1.29-1.39c.77-1,1.55-2.08,2.28-3.16s1.38-2.24,2-3.39l1.82-3.54A106.71,106.71,0,0,0,274.8,451a123.34,123.34,0,0,0,3.39-15.36,100.24,100.24,0,0,0,1-15.41A60.49,60.49,0,0,0,277,405.45l-2.74-9.35,6.49,7.21a61,61,0,0,1,7.69,10.14,22.5,22.5,0,0,1,2.52,6.22,16.48,16.48,0,0,1,.06,6.92,33.42,33.42,0,0,1-2,6.11c-.78,1.88-1.56,3.67-2.23,5.47a44.32,44.32,0,0,0-2.69,10.94c-.12.93-.15,1.87-.23,2.8l0,1.41a10.28,10.28,0,0,0,0,1.36l.07,1.3a11,11,0,0,0,.19,1.28,13.85,13.85,0,0,0,.62,2.48,17.9,17.9,0,0,0,6.07,8.16,28.77,28.77,0,0,0,9.55,4.56,8.71,8.71,0,0,0,.88.24l.64.14c.43.11.87.16,1.3.23s.89.1,1.33.14l.33,0c.05,0,.14,0,.14,0l-.11-.12c-.14-.16-.28-.33-.41-.5a8,8,0,0,1-1.23-2l-.3-.86c-.12-.49-.25-1-.34-1.47s-.14-1-.16-1.52,0-1,0-1.53a12.64,12.64,0,0,1,1.89-5.63,11.23,11.23,0,0,1,.8-1.19l.42-.58c.12-.19.39-.46.58-.69l1.26-1.41.16-.18c0-.06.15,0,.22,0l.47,0,.94,0,.8,0,.52,0,1-.08c.66-.11,1.34-.17,2-.33a17.26,17.26,0,0,0,4-1.29,13.77,13.77,0,0,0,3.74-2.56c.28-.28.55-.58.82-.88s.53-.64.76-1a12.1,12.1,0,0,0,.67-1.11l.31-.57.16-.36a1.45,1.45,0,0,0,.16-1.11,2,2,0,0,0-.71-.9,14.23,14.23,0,0,1-1.72-1.6l-.81-1-.74-1a27.74,27.74,0,0,1-4.11-9,24.34,24.34,0,0,1-.44-10.21,20.77,20.77,0,0,1,1.58-5c.41-.76.85-1.62,1.25-2.28l1.22-2.08c3.22-5.56,6.15-11.39,7.72-17.45a30.59,30.59,0,0,0,1.06-9.12,26.78,26.78,0,0,0-1.94-8.7,67.82,67.82,0,0,0-3.91-7.87c-1.4-2.53-2.79-5-4-7.46a53.4,53.4,0,0,1-4.76-14.29A66.83,66.83,0,0,1,313.56,328.64Z" transform="matrix(-1, 0, 0, 1, 380, 0)" /><path class="cls-2 color-highlight" d="M260.61,291.88c14.21,10,14.24,24.69,10.39,40.28-2.33,9.47-5.08,19.37-2.61,28.8s10.2,18.05,9,27.85c-.8,6.53-5.46,11.86-7.95,17.95a28.57,28.57,0,0,0,1.3,24c2,3.75,5,7.34,5,11.6,0,8.13-8.76,13.71-5.23,22.4a20.26,20.26,0,0,0,14.14,12c2.67.59,5.81.85,7.34,3.1a14.69,14.69,0,0,1-9-13.64c.3-12.42,17.12-16.71,15.2-30.87-.77-5.66-3.55-10.82-5.53-16.17s-3.13-11.5-.68-16.66c2.29-4.82,7.32-7.88,9.72-12.66,3.83-7.62-.15-16.76-4.77-23.93-1.9-2.93-4-5.94-4.44-9.4-.44-3.22.56-6.46,1.75-9.49,2.68-6.84,6.43-13.54,6.62-20.89.3-11.41-7.91-21.05-15.63-29.45" transform="matrix(-1, 0, 0, 1, 380, 0)" /><path d="M285.21,296.64a23.28,23.28,0,0,1,2.79,2.59,76.83,76.83,0,0,1,5.36,6.08,45.1,45.1,0,0,1,6,9.67,28.46,28.46,0,0,1,2,6.34,25.22,25.22,0,0,1,.27,7.07c-.5,4.83-2.39,9.45-4.22,13.84s-3.93,8.78-3.81,12.9a12.63,12.63,0,0,0,1.73,5.71c1,1.78,2.16,3.42,3.24,5.12a47.65,47.65,0,0,1,4.87,9.54,23.78,23.78,0,0,1,1.49,7.31,16.9,16.9,0,0,1-1.5,7.73,26,26,0,0,1-4.5,6.27,37.4,37.4,0,0,0-4.31,5.32c-2.22,3.51-2.14,8.05-.94,12.46s3.51,8.74,5.3,13.65a31.46,31.46,0,0,1,1.89,7.91,17.9,17.9,0,0,1-.16,4.38,18.3,18.3,0,0,1-1.27,4.21,28.34,28.34,0,0,1-4.54,6.88c-1.69,2-3.42,3.77-4.91,5.57a19.21,19.21,0,0,0-3.44,5.47,10.46,10.46,0,0,0-.5,5.72,11.81,11.81,0,0,0,7,8.66l-3.6,4.49a2.92,2.92,0,0,0-1.52-.92,25.7,25.7,0,0,0-3.16-.72c-.6-.1-1.29-.27-2-.45s-1.32-.39-2-.63a23.64,23.64,0,0,1-9.78-7,24.81,24.81,0,0,1-2.31-3.34,18.71,18.71,0,0,1-1.67-3.85,13.9,13.9,0,0,1-.63-4.47,20.38,20.38,0,0,1,.26-2.22,18.42,18.42,0,0,1,.53-2.07,46.86,46.86,0,0,1,3.12-6.8,18.58,18.58,0,0,0,2-5.51c0-.42.06-.84.09-1.25a6.51,6.51,0,0,0-.12-1.15,10.62,10.62,0,0,0-.86-2.5c-.82-1.77-2.08-3.62-3.3-5.77a31.28,31.28,0,0,1-2.9-7,32.05,32.05,0,0,1-.43-14.92,29.62,29.62,0,0,1,2.4-7c1-2.18,2.2-4.14,3.28-6a45,45,0,0,0,2.77-5.5,15.69,15.69,0,0,0,1.18-5.34c.11-3.61-1.19-7.36-2.85-11.09a125.61,125.61,0,0,1-5.1-11.74,33.15,33.15,0,0,1-1.47-6.51,39.15,39.15,0,0,1-.15-6.48c.51-8.48,3.19-16,4.83-23.11s2.28-14.15.66-20.45a24.69,24.69,0,0,0-4-8.55,33.27,33.27,0,0,0-6.39-6.48,30.89,30.89,0,0,1,7.18,5.4,26,26,0,0,1,5.55,9,35,35,0,0,1,2,11.44,62.36,62.36,0,0,1-1,11.77c-.68,3.87-1.51,7.46-2.11,10.95a66.22,66.22,0,0,0-1.12,9.73,33.13,33.13,0,0,0,.65,8,39.34,39.34,0,0,0,1.85,5.92c1,2.7,2.35,5.41,3.58,8.25a41.87,41.87,0,0,1,3,9.12,22.64,22.64,0,0,1,.37,5,21,21,0,0,1-.88,5,39.9,39.9,0,0,1-4,8.38,59.19,59.19,0,0,0-4,7.37,25.62,25.62,0,0,0-1.84,7.71,26.55,26.55,0,0,0,3.29,15.19,46.77,46.77,0,0,1,3.92,7.54,11.51,11.51,0,0,1,.65,4.56l-.09,1.14-.22,1.11a16.65,16.65,0,0,1-.61,2.12,78.79,78.79,0,0,1-3.56,7.35,13.14,13.14,0,0,0-1.68,6.9,14.57,14.57,0,0,0,2.75,6.51,19,19,0,0,0,5.2,5,18.2,18.2,0,0,0,6.59,2.66,29.1,29.1,0,0,1,3.81.92,7,7,0,0,1,3.63,2.57l2.23,3.31L291.53,481a15.91,15.91,0,0,1-8.42-8.15,15.32,15.32,0,0,1-1.4-5.72,14.91,14.91,0,0,1,.91-5.79c1.38-3.68,3.91-6.51,6.25-9.12s4.72-5.09,6.24-7.91a14.29,14.29,0,0,0,1.58-4.39,14.55,14.55,0,0,0,0-4.61,39.62,39.62,0,0,0-2.88-9.19,96.27,96.27,0,0,1-3.62-9.29,25.36,25.36,0,0,1-1.12-10.13,15.8,15.8,0,0,1,1.45-5.05,20.47,20.47,0,0,1,2.83-4.22c2.11-2.49,4.35-4.55,5.88-6.85a13.08,13.08,0,0,0,2.18-7.56,17.87,17.87,0,0,0-.51-4,26.41,26.41,0,0,0-1.23-3.94,46.35,46.35,0,0,0-3.82-7.41,43.81,43.81,0,0,1-4.32-7.69,13.85,13.85,0,0,1-.92-4.66,16.87,16.87,0,0,1,.57-4.54,52.47,52.47,0,0,1,3-7.87c1.68-3.94,3.92-8.42,4.94-13.34a22.89,22.89,0,0,0,.31-7.53,27.25,27.25,0,0,0-2-7.31,55.42,55.42,0,0,0-7-11.61C288,300,286.13,297.77,285.21,296.64Z" transform="matrix(-1, 0, 0, 1, 380, 0)" /><g class="cls-3" transform="matrix(-1, 0, 0, 1, 380, 0)"><path d="M104.29,432.62c-3.71,5.69-9.09,8.85-15.35,11.12,10-17.23,10.13-36.2,7.61-55.51l-5.11-39.09,10.83,30.34q-3.4-18.06-6.82-36.12c-1-5.12-1.9-10.58.08-15.4s8.13-8.27,12.56-5.54a7.69,7.69,0,0,0,2.17,1.19c2.3.51,7.21-4.12,9.35-5a30,30,0,0,1,15.25-2.16,63.65,63.65,0,0,1,20.36,6.15,41.36,41.36,0,0,1,12.67,8.76c3.94,4.26,6.44,9.65,8.38,15.12a77.21,77.21,0,0,1,4.8,26.75,64.69,64.69,0,0,1-21.91,47.34c-4.63,4-10.78,7.54-16.64,5.72-2.25-.69-4.27-2.14-6.6-2.49s-5.25,1.12-5.08,3.48l-4.65-3.62a102.09,102.09,0,0,1-4.75,19.64,52,52,0,0,1-8.56-11.74A19,19,0,0,1,103,444.42,40.48,40.48,0,0,0,104.29,432.62Z" /><path d="M104.31,432.62a21.91,21.91,0,0,1,.14,3.69c0,1-.11,2.14-.27,3.45-.08.65-.16,1.18-.26,1.78s-.23,1.19-.37,1.79l-.09.34a3.48,3.48,0,0,0,.33-.17c.22-.13.44-.24.66-.39.43-.27.86-.57,1.28-.88a18.59,18.59,0,0,0,2.71-2.63,18.93,18.93,0,0,0,2.39-3.64c.17-.35.33-.65.49-1a10.89,10.89,0,0,0,.52-1.43c.33-1,.6-2.1.84-3.14l0,0s0,0,.06,0l.13.24.27.49.56,1c.37.67.76,1.34,1.16,2s.72,1.12,1.07,1.65.69,1,1,1.49c.72,1,1.49,2,2.29,2.91.46.54.7.81,1,1.14s.61.67.91.93c.18-.54.35-1.09.53-1.64.23-.73.45-1.47.67-2.21q.7-2.42,1.29-4.87c.38-1.63.73-3.28,1-4.93l.22-1.24.24-1.42c.16-1.15.33-2.29.5-3.42l3.49,2.69.85.65.41.31c.09.12,0-.06.06-.13a.72.72,0,0,1,0-.25,1.42,1.42,0,0,1,.29-.67,1,1,0,0,1,.14-.19l.23-.25a5.21,5.21,0,0,1,.5-.45,5.82,5.82,0,0,1,2.34-1,6,6,0,0,1,2.5,0,12.71,12.71,0,0,1,2.21.72c1.38.58,2.63,1.24,3.87,1.63a10.62,10.62,0,0,0,3.77.44,15.9,15.9,0,0,0,6.76-2.17,30,30,0,0,0,5.08-3.64,64.18,64.18,0,0,0,19.07-30.42,62.61,62.61,0,0,0,2.37-18.51,73.79,73.79,0,0,0-3-18.7c-1.82-6.08-4-12.2-7.59-17.24s-8.86-8.53-14.53-11.22a63.75,63.75,0,0,0-17.73-5.66,31.78,31.78,0,0,0-9-.25,27.49,27.49,0,0,0-4.33.89c-.7.2-1.4.43-2.08.69-.34.12-.68.27-1,.41-.19.07-.24.12-.38.18l-.41.24c-1.1.7-2.28,1.59-3.51,2.44-.62.42-1.25.84-2,1.24a9.38,9.38,0,0,1-2.44,1,5.8,5.8,0,0,1-.85.13,5.25,5.25,0,0,1-1-.08,5.17,5.17,0,0,1-1.49-.64c-.4-.24-.71-.46-1-.63a7.23,7.23,0,0,0-.71-.39,5,5,0,0,0-3.16-.3,9,9,0,0,0-5.67,4.1,10.91,10.91,0,0,0-1.3,3.43,17.09,17.09,0,0,0-.34,3.88,47.1,47.1,0,0,0,1,8.17c.52,2.8,1.05,5.59,1.57,8.37q2.64,14,5.22,27.72a13.45,13.45,0,0,0-1.69.58,7.91,7.91,0,0,1-1.82,0l-7.2-20.27-.22-.61-.11-.31s0-.1,0,0l.25.7.5,1.42,1.62,4.53V365l-.07-.23-.17-.55c0,.24,0,.67.09,1.37q1,7.9,1.93,15.57c.64,5.2,1.34,10.35,1.7,15.46A116.93,116.93,0,0,1,99,411.7,71.14,71.14,0,0,1,92.37,439l-.54,1.11c-.12.26-.28.51-.43.77l-.45.79-.23.41.4-.14a23.73,23.73,0,0,0,4-1.8,27.08,27.08,0,0,0,4.92-3.45,24.42,24.42,0,0,0,3.83-4.38,23.66,23.66,0,0,1-7,7.61A31.38,31.38,0,0,1,91.51,443c-.54.26-1.09.49-1.67.74l-.88.36-.45.19-.23.09s-.11.06-.09,0l0-.1c.51-1.06,1-2.14,1.56-3.23.27-.55.59-1.2.86-1.84l.63-1.49c.45-1,.76-2,1.14-3s.69-2,1-3.07l.46-1.55.39-1.58a76.21,76.21,0,0,0,2-12.89,125.82,125.82,0,0,0-1.07-24.37c-1-7.31-1.86-13.61-2.35-17.93q-.36-3.09-.71-6.17-.65-5.25-1.28-10.43c-.87-7.06-1.72-14-2.54-20.68,2.66,7.59,5.31,15.13,7.91,22.53.57,1.63,1.13,3.26,1.68,4.86l.34,1-.44-1.21L97,361.08c.57,1.72,1.14,3.43,1.68,5-.23-1.35-.45-2.69-.65-3.95-.25-1.41-.49-2.81-.73-4.21q-.76-4.21-1.52-8.37c-.56-3.09-1.16-6.13-1.66-9.23a28.58,28.58,0,0,1-.2-9.46,13.79,13.79,0,0,1,1.61-4.54,12.13,12.13,0,0,1,3.24-3.56,11,11,0,0,1,4.42-1.92,7.37,7.37,0,0,1,4.81.67c.78.36,1.35.9,1.9,1.17a1.62,1.62,0,0,0,.76.21,2.49,2.49,0,0,0,.84-.15,17.16,17.16,0,0,0,3.66-2.09c1.21-.83,2.35-1.72,3.71-2.5a26,26,0,0,1,4.25-1.55,30.69,30.69,0,0,1,8.76-1.09,45.49,45.49,0,0,1,8.6,1.11,69.69,69.69,0,0,1,15.89,5.68c5,2.45,9.74,5.54,13.25,9.84a46.82,46.82,0,0,1,7.48,14.2,76.17,76.17,0,0,1,4.74,30.27,65.84,65.84,0,0,1-8.36,27.82,64.65,64.65,0,0,1-8.17,11.42,63.93,63.93,0,0,1-4.87,4.87,34.56,34.56,0,0,1-5.48,4.14,20.64,20.64,0,0,1-6.4,2.58,12.67,12.67,0,0,1-6.95-.48c-2.15-.81-3.94-2-5.78-2.25a4.46,4.46,0,0,0-2.51.39,3.25,3.25,0,0,0-1,.71.52.52,0,0,0-.1.11l-.12.26-.11.26c0,.13,0,.29-.05.43-.06.54-.11,1.34-.14,2-.17-.05-.34-.12-.38-.08h-.11s0,0-.09-.05l-.13-.1-1-.79-1.93-1.51-1.28-1c-.08.47-.16.93-.23,1.4-.41,2.32-1,5-1.68,7.77-.37,1.4-.77,2.85-1.23,4.35l-.36,1.13c-.15.46-.3.93-.46,1.4l-1.14,3.3c-.6-.6-1.21-1.27-1.79-1.9l-.87-1-.7-.84c-.81-1-1.57-2-2.3-3q-.54-.76-1-1.56l-.5-.79-.39-.64-.61-1.08-.3-.57-.15-.29-.07-.14s0,0,0,0l0,.07a11.24,11.24,0,0,1-.48,1.53c-.1.26-.2.52-.33.78s-.32.68-.49,1a19.29,19.29,0,0,1-2.58,3.73,18,18,0,0,1-3.27,3,20.74,20.74,0,0,1-1.82,1.14c-.29.18-.59.33-.89.48l-.44.22,0-.35c.43-1.57.75-3,1-4.25s.34-2.24.43-3.21A39.26,39.26,0,0,0,104.31,432.62Z" /></g><g class="cls-3" transform="matrix(-1, 0, 0, 1, 380, 0)"><path d="M320.39,398c.27.33.48,3.44-.32,7.12a25.49,25.49,0,0,1-1.86,5.59l-.33.67c-.13.26-.31.55-.47.82a13.56,13.56,0,0,1-1,1.53c-.69.95-1.42,1.78-2.13,2.61-.27-.59-.5-1.17-.71-1.65a18.91,18.91,0,0,1-1-3.11c-.2-.88-.4-1.78-.61-2.68a17.1,17.1,0,0,0-1.49-4.34l2.82-.48a96.13,96.13,0,0,1-3.79,19.33c-.74,2.46-1.59,4.88-2.52,7.22l-5.89,14.82,2.05-15.82a63.06,63.06,0,0,0,.71-8.62,17.67,17.67,0,0,0-1.53-7.44l3.25-.72a38.49,38.49,0,0,1-5.24,16.7l-1.86,3.09.51-3.44.23-1.58c.14.49.27,1,.39,1.62l.09.48.08-.44c.48-2.58,1-5.74,1.37-8.62s.45-5.45.69-6.87c.06-.38.11-.76.17-1.11l1-6.51,2.49,5.73a21.61,21.61,0,0,1,1.54,9.54,74,74,0,0,1-1,8.57l-1.73-.46a87.47,87.47,0,0,0,6.55-25.77l.34-3.24,1.5,2.93a20.2,20.2,0,0,1,1.73,5.76l.21,1.16.13.6a6.16,6.16,0,0,0,.36,1.1A8.57,8.57,0,0,0,316,411l.2-.3c0-.06.06-.09.1-.17l.18-.32c.25-.43.47-.88.69-1.32A37.53,37.53,0,0,0,320.39,398Z" /></g><path class="cls-2 color-highlight" d="M86.05,404.87a4.23,4.23,0,0,0,3.35,1.38c-13.54-7.87,6.86-23.23,6.4-33a29.15,29.15,0,0,0-4.23-12.84c-2.52-4.44-5.79-9.37-4.21-14.23,1.23-3.78,5-6,7.5-9.14,5.14-6.41,4.26-15.8,1.43-23.52S89,298.68,87.47,290.61c-1.64-8.83.35-17,6-23.63,5.11-5.91,8.62-13.21,8.29-21.25-1.09-26.92,25.38-45.77,47.65-56.56-21.58,10.45-44,21.3-58,41.71-7.26,10.59-8.13,22.38-13.33,33.61s-16.51,20.45-17,33.52c-.49,12.84,10.48,25.42,5.94,37.43C65,340.93,60,345,58.25,350.6c-2,6.41.85,13.31,4.5,18.93,4.31,6.66,5,15.08,3.21,22.7-1.43,6.2-2.67,11.89,2.84,16.82A13.82,13.82,0,0,0,84,411a9.63,9.63,0,0,1-5.83-7.38,13.32,13.32,0,0,0,14.87,1.54A7.9,7.9,0,0,1,87.67,404c-3-2.11-3.52-6.57-2.13-10" transform="matrix(-1, 0, 0, 1, 380, 0)" /><path d="M85.59,394a15,15,0,0,0-.48,3.27,9.46,9.46,0,0,0,.41,2.93,6.45,6.45,0,0,0,.31.79,5.72,5.72,0,0,0,.46.86l.41.46c-.07.16.76.32,1.35.48l1,.24.24.06c.09,0,0,.05,0,.07l0,.14a3.35,3.35,0,0,0-.08.54,1.84,1.84,0,0,0,1.2,1.23,5.52,5.52,0,0,0,2.06.4,9.57,9.57,0,0,0,1.18-.07l.31,0h0l0,0-.08,0-.15.08-.63.33a16.89,16.89,0,0,1-2.65,1,14.41,14.41,0,0,1-6.45.31,14.34,14.34,0,0,1-1.83-.45l-.84-.31-.77-.34a13.41,13.41,0,0,1-2.87-1.86l1.28-.7a8.53,8.53,0,0,0,1.22,3.2,6.86,6.86,0,0,0,1.49,1.71,22.23,22.23,0,0,0,3,1.81v.23c0,.07,0,.13.07.19a.69.69,0,0,0,.2.34,1.18,1.18,0,0,0,.32.26l.08.06s0,0,0,0l-.09,0-.36.17A23.33,23.33,0,0,1,82,412.7a15,15,0,0,1-3.3.59,14,14,0,0,1-1.71,0,14.48,14.48,0,0,1-1.46-.16,14.11,14.11,0,0,1-9.85-6.27A12,12,0,0,1,63.75,401a23.93,23.93,0,0,1,.49-5.9c.35-1.91.84-3.72,1.09-5.5a32.39,32.39,0,0,0,.39-5.36,27.24,27.24,0,0,0-1.93-10.08,24.78,24.78,0,0,0-2.3-4.32,43.13,43.13,0,0,1-2.51-4.4,26,26,0,0,1-2.7-9.08,16.65,16.65,0,0,1,1.31-8.24c1.57-3.61,4-6.48,5.9-9.45a16.64,16.64,0,0,0,2.85-9.52,33.91,33.91,0,0,0-2.19-10.39c-1.18-3.51-2.61-7.05-3.71-10.86a31.28,31.28,0,0,1-1.29-12.19A32.4,32.4,0,0,1,63.09,284c3.85-7.13,9.15-13,12.37-19.65s4.87-14.29,7.48-21.88A59.2,59.2,0,0,1,88,231.37a81,81,0,0,1,7.26-9.71A100,100,0,0,1,113.08,206a182.44,182.44,0,0,1,19.79-11.81c5.13-2.69,10.31-5.22,15.3-7.66l2.57,5.32a147.09,147.09,0,0,0-15.48,8.7,98,98,0,0,0-13.84,10.65,61.59,61.59,0,0,0-10.86,13A39.78,39.78,0,0,0,105,239.56a39,39,0,0,0-.31,4l0,2c0,.81,0,1.63,0,2.43a29.6,29.6,0,0,1-2,9.36,36.66,36.66,0,0,1-4.46,8.17c-.45.63-.91,1.24-1.39,1.83-.23.31-.48.59-.73.88l-.69.83a25.21,25.21,0,0,0-2.26,3.09,24.29,24.29,0,0,0-3.48,14.47c.27,5.09,2.07,10,4.22,14.88s4.61,9.83,6,15.38a34.41,34.41,0,0,1,1,8.41,23,23,0,0,1-1.58,8.46,19.49,19.49,0,0,1-4.93,7c-1.9,1.81-3.69,3.35-4.62,5.07a7.25,7.25,0,0,0-.42,5.65,29.27,29.27,0,0,0,2.81,6.2c2.42,4.17,4.64,8.86,5.16,13.85.06.64.11,1.22.11,1.9a11.31,11.31,0,0,1-.2,2.05,18.05,18.05,0,0,1-1.22,3.57,52,52,0,0,1-3.42,6c-1.21,1.88-2.41,3.7-3.49,5.52a29,29,0,0,0-2.67,5.51,8.07,8.07,0,0,0-.19,5.38,8.42,8.42,0,0,0,3.59,3.92l2.73,1.68-3.14.06a5,5,0,0,1-4-1.74,5,5,0,0,0,4,1.39l2.09-.2-1.83-.88a9,9,0,0,1-4.28-3.9,9.29,9.29,0,0,1-.24-6.47c1.23-4.46,3.9-8.62,6.17-12.95a30,30,0,0,0,2.77-6.62l.15-.82c0-.27,0-.54.08-.81s0-.51,0-.77l-.09-.87a23.21,23.21,0,0,0-.79-3.47,32,32,0,0,0-3-6.62c-1.23-2.11-2.72-4.26-3.94-6.71a19.37,19.37,0,0,1-1.53-4,12.12,12.12,0,0,1-.32-4.6,11,11,0,0,1,1.58-4.4,20.17,20.17,0,0,1,2.59-3.27,35,35,0,0,0,4.36-4.84,13.94,13.94,0,0,0,2.06-5.08,25.32,25.32,0,0,0-.4-10.35,42.39,42.39,0,0,0-1.26-4.37c-.48-1.35-1-2.61-1.43-3.75-2.39-6-5.6-12.09-7-19a33.7,33.7,0,0,1-.48-10.46,28.65,28.65,0,0,1,3-10,29.09,29.09,0,0,1,2.79-4.36c.5-.67,1.11-1.35,1.6-1.94s1-1.15,1.45-1.74A32.8,32.8,0,0,0,98.09,256a25.29,25.29,0,0,0,1.91-8.47c0-.36,0-.72,0-1.08v-1.14c0-.81,0-1.62,0-2.43s.09-1.61.17-2.41l.31-2.39a45,45,0,0,1,7-17.46,69.36,69.36,0,0,1,12-13.67c9-7.91,19.14-13.88,29.36-18.82l1,2.17c-11.21,5.37-22.14,10.69-32,17.18a107,107,0,0,0-13.81,10.67A78,78,0,0,0,93,230.87a53,53,0,0,0-7.06,14.84c-1.69,5.23-3.06,10.59-5.06,15.76a49.42,49.42,0,0,1-3.55,7.5c-1.39,2.37-2.91,4.61-4.43,6.8-3,4.37-6.07,8.59-8,13.17a27.29,27.29,0,0,0-2,7,24.23,24.23,0,0,0,.23,7.16c.84,4.78,2.73,9.38,4.31,14.13a51.17,51.17,0,0,1,2,7.34c.09.64.24,1.26.29,1.91l.15,1.95a21.63,21.63,0,0,1-.25,3.93,10.52,10.52,0,0,1-.41,1.93c-.19.64-.36,1.28-.58,1.9a21.53,21.53,0,0,1-1.74,3.46c-1.31,2.16-2.8,4-4.09,5.94a19.5,19.5,0,0,0-2.93,5.76,14.44,14.44,0,0,0-.3,6.18,24.39,24.39,0,0,0,1.91,6.1c.44,1,1,1.95,1.48,2.9.28.47.54.94.84,1.4l.43.69.47.77a28.45,28.45,0,0,1,3.82,13.47,35.38,35.38,0,0,1-.4,6.84c-.18,1.11-.41,2.24-.66,3.3s-.48,2.07-.68,3.08a16.62,16.62,0,0,0-.17,6.7,10.75,10.75,0,0,0,3.88,5.83,12,12,0,0,0,3.34,1.83,13.67,13.67,0,0,0,1.9.52,8,8,0,0,0,1,.15l.5.06c.16,0,.24,0,.37,0a8.63,8.63,0,0,0,2.75-.29,9.49,9.49,0,0,0,1.38-.49,6.91,6.91,0,0,1-1.13-.68,6.19,6.19,0,0,1-.95-.9,9.84,9.84,0,0,1-1-1.4,10.28,10.28,0,0,1-1.25-3.73l-.28-2.23L78.73,403a13.32,13.32,0,0,0,2.14,1.54c.39.21.78.41,1.18.58a10.85,10.85,0,0,0,1,.38,11.63,11.63,0,0,0,4.25.49,12.39,12.39,0,0,0,4.23-1.12,6.15,6.15,0,0,1-3.51-.48,5.25,5.25,0,0,1-2.45-2.45,8,8,0,0,1-.85-3.32A10.18,10.18,0,0,1,85.59,394Z" transform="matrix(-1, 0, 0, 1, 380, 0)" /><path d="M321.74,452.85a2.48,2.48,0,0,1-.71,1,6.16,6.16,0,0,1-2.32,1.32,9.48,9.48,0,0,1-3.68.42,9.59,9.59,0,0,1-4.25-1.27,10.56,10.56,0,0,1-3.43-3.29,14.23,14.23,0,0,1-1.88-4.28,27.23,27.23,0,0,1-.73-7.56c.41-14,12.39-26.48,12.07-39.55a18.9,18.9,0,0,0-1.7-7.92,60.33,60.33,0,0,0-4.49-7.23,35.88,35.88,0,0,1-2.28-3.94,15.18,15.18,0,0,1-1.45-4.54,12.12,12.12,0,0,1,.31-4.81c.4-1.5,1-2.78,1.41-4a13.91,13.91,0,0,0,.79-7,14.79,14.79,0,0,0-.91-3.3,16.42,16.42,0,0,0-.74-1.53c-.3-.54-.58-1.08-.86-1.63a44.89,44.89,0,0,1-2.69-6.45,17.27,17.27,0,0,1-1-6.35c.69,3.71,3.35,8,6,12l1,1.47a14.86,14.86,0,0,1,1,1.67,15.1,15.1,0,0,1,1.23,3.41,13.57,13.57,0,0,1,.16,5.55,18.92,18.92,0,0,1-1.18,3.75c-.47,1.13-.94,2.16-1.25,3.17a9.38,9.38,0,0,0,.2,6,28,28,0,0,0,3,5.72c1.17,1.84,2.41,3.67,3.43,5.62a22.17,22.17,0,0,1,2.34,12.45,38.46,38.46,0,0,1-3,11.44c-2.89,7-6.42,13.14-8.24,19.33a29.66,29.66,0,0,0-1.35,9.07,14.27,14.27,0,0,0,.13,2.18c.11.71.15,1.44.3,2.12a13.52,13.52,0,0,0,1.36,3.83,10.44,10.44,0,0,0,2.74,3.23,9.46,9.46,0,0,0,8.5,1.31A5.44,5.44,0,0,0,321.74,452.85Z" transform="matrix(-1, 0, 0, 1, 380, 0)" /><g class="cls-4" transform="matrix(-1, 0, 0, 1, 380, 0)"><path class="cls-5" d="M282.35,397.64c-.15-.37.91-2.16,1.93-4.33a35,35,0,0,0,2.36-6.15c.39-1.66.77-3.39,1.08-5.16.53-2.45,1-6.94,1.42-10.74l.3.44.36.58.71,1.16,1.42,2.33c.47.78.95,1.58,1.42,2.42l.7,1.28c.21.38.42.77.62,1.16-.12-.26-.07-.18-.08-.19h0a0,0,0,0,0,0,0s0,.08.08,0,0-.23.05-.43a4.68,4.68,0,0,0,0-.64,10.93,10.93,0,0,0,0-1.28,10.36,10.36,0,0,0-.1-1.25,9.7,9.7,0,0,0-.2-1.22,15.75,15.75,0,0,0-4.12-7.82,8.56,8.56,0,0,1,5.25,2.79,9.26,9.26,0,0,1,2.52,4.73c.05.56.08,1.12.11,1.66s0,1.09,0,1.62-.06,1.05-.16,1.57a13.77,13.77,0,0,1-.39,2,10.36,10.36,0,0,1-.61,1.9,15.77,15.77,0,0,1-.71,1.59c-.24.48-.49,1-.77,1.47l-.39.73a.92.92,0,0,1-.33,0c-.56-1.37-1.1-2.66-1.62-3.85-.27-.6-.52-1.14-.81-1.73-.15-.32-.31-.63-.46-.93-.24-.48-.49-.94-.74-1.37l-.37-.61-.18-.29-.05-.06,0,0v0l0,.2c-.08,1-.2,1.82-.32,2.59l-.09.58c-.08.34-.15.68-.23,1-.15.67-.32,1.32-.5,2a31.56,31.56,0,0,1-2.76,6.89,20.16,20.16,0,0,1-2.32,3.33A29.14,29.14,0,0,1,282.35,397.64Z" /></g><g class="cls-4" transform="matrix(-1, 0, 0, 1, 380, 0)"><path class="cls-5" d="M81.32,375.85c-.31-.39-.06-3.67-1.17-7.34a21.65,21.65,0,0,0-2.34-5.36,18.4,18.4,0,0,0-3.18-3.93l1.73-1.08.36.84a31.27,31.27,0,0,1,2.89,13.56,20.38,20.38,0,0,1-1.71,7.32A16.12,16.12,0,0,1,73.25,386l-6.71,5.31,3.6-7.95a10,10,0,0,0,.75-2.12c.78-3.42-.18-7.32-1.59-10.9s-3.44-7.2-4.7-11a23.24,23.24,0,0,1-1.19-5.91,17.29,17.29,0,0,1,.6-5.68,26.33,26.33,0,0,1,4.39-8.52c-.49,2.61-1.44,6.2-1.51,9.39a29.56,29.56,0,0,0,1,7.4,37,37,0,0,0,2.25,7.25c1,2.37,2,4.73,2.78,7.15a26.71,26.71,0,0,1,1.37,7.33,14,14,0,0,1-1.52,7l-1.27-1.07a13.41,13.41,0,0,0,4.19-5.73,18,18,0,0,0,1.21-6.67,36.76,36.76,0,0,0-2.64-12.31l-1.94-5.45,4,4.18a20.9,20.9,0,0,1,4.11,6.21,18.85,18.85,0,0,1,1.48,7A19.23,19.23,0,0,1,81.32,375.85Z" /></g></svg>