<svg xmlns="http://www.w3.org/2000/svg" id="a" viewBox="0 0 380 600"><defs><style>.c{fill:#f2ffde;}</style></defs><path class="c" d="m96.16,353.96c2.55,4.65,7.23,4.24,11.89,1.68,4.65-2.55,7.52-6.27,4.97-10.93-2.55-4.65-8.4-6.36-13.05-3.81-4.65,2.55-6.36,8.4-3.81,13.05Z"></path><path d="m96.13,353.97c-.16-.04-.62-.51-1-1.38-.39-.85-.74-2.09-.76-3.46-.04-1.36.25-2.83.76-4.08.5-1.26,1.2-2.29,1.75-3,1.9-2.53,5.45-4.24,9.08-3.89,3.63.26,7.05,2.56,8.78,5.67.77,1.33,1.3,3,1.2,4.73-.07,1.74-.82,3.35-1.75,4.56-.94,1.23-2.05,2.15-3.17,2.9-1.13.75-2.28,1.34-3.46,1.82-2.33.95-4.98,1.49-7.41.76-1.2-.36-2.23-1.04-2.97-1.84-.74-.81-1.18-1.71-1.52-2.54.77.49,1.61,1.06,2.52,1.41.92.35,1.84.46,2.68.37,1.67-.16,3.16-.9,4.06-1.07,1.81-.38,3.66-1.15,5.12-2.15,1.48-1,2.65-2.33,2.96-3.87.17-.76.13-1.56-.06-2.32-.22-.76-.57-1.5-1-2.17-.88-1.33-2.11-2.36-3.46-2.98-2.73-1.28-5.76-.9-7.93.36-2.22,1.26-3.61,3.32-4.28,5.41-.31,1-.62,2.44-.59,3.8,0,1.36.37,2.55.46,2.95Z"></path><path class="c" d="m76.06,351.44c-1.28,5.15,2.45,8.02,7.6,9.29,5.15,1.28,9.78.49,11.06-4.67,1.28-5.15-1.86-10.37-7.02-11.64s-10.37,1.86-11.64,7.02Z"></path><path d="m76.03,351.43c-.09-.14-.11-.8.2-1.69.29-.89.87-2.04,1.78-3.06.9-1.03,2.1-1.91,3.32-2.49,1.22-.58,2.43-.87,3.32-1.02,3.11-.57,6.88.57,9.31,3.3,2.49,2.65,3.45,6.67,2.62,10.12-.33,1.5-1.07,3.09-2.32,4.3-1.23,1.24-2.87,1.91-4.38,2.17-1.52.27-2.96.19-4.3-.02-1.34-.22-2.58-.56-3.78-1-2.36-.88-4.67-2.28-5.97-4.46-.64-1.07-.94-2.28-.94-3.37.01-1.1.29-2.06.61-2.9.23.88.46,1.87.9,2.74.44.88,1.04,1.58,1.72,2.09,1.34,1.01,2.93,1.48,3.71,1.97,1.58.94,3.47,1.63,5.22,1.89,1.76.27,3.53.08,4.8-.84.64-.45,1.15-1.06,1.53-1.75.36-.71.6-1.49.74-2.28.25-1.57.05-3.16-.52-4.54-1.14-2.79-3.62-4.56-6.07-5.11-2.49-.57-4.9,0-6.82,1.08-.9.53-2.11,1.37-3.01,2.39-.93,1-1.45,2.13-1.66,2.48Z"></path><path class="c" d="m96.61,341.12c2.55,4.65,7.23,4.24,11.89,1.68,4.65-2.55,7.52-6.27,4.97-10.93-2.55-4.65-8.4-6.36-13.05-3.81-4.65,2.55-6.36,8.4-3.81,13.05Z"></path><path d="m96.58,341.14c-.16-.04-.62-.51-1-1.38-.39-.85-.74-2.09-.76-3.46-.04-1.36.25-2.83.76-4.08.5-1.26,1.2-2.29,1.75-3,1.9-2.53,5.45-4.24,9.08-3.89,3.63.26,7.05,2.56,8.78,5.67.77,1.33,1.3,3,1.2,4.73-.07,1.74-.82,3.35-1.75,4.56-.94,1.23-2.05,2.15-3.17,2.9-1.13.75-2.28,1.34-3.46,1.82-2.33.95-4.98,1.49-7.41.76-1.2-.36-2.23-1.04-2.97-1.84-.74-.81-1.18-1.71-1.52-2.54.77.49,1.61,1.06,2.52,1.41.92.35,1.84.46,2.68.37,1.67-.16,3.16-.9,4.06-1.07,1.81-.38,3.66-1.15,5.12-2.15,1.48-1,2.65-2.33,2.96-3.87.17-.76.13-1.56-.06-2.32-.22-.76-.57-1.5-1-2.17-.88-1.33-2.11-2.36-3.46-2.98-2.73-1.28-5.76-.9-7.93.36-2.22,1.26-3.61,3.32-4.28,5.41-.31,1-.62,2.44-.59,3.8,0,1.36.37,2.55.46,2.95Z"></path><path class="c" d="m81.12,342.31c-.65,5.27,3.39,7.67,8.66,8.32,5.27.65,9.77-.69,10.42-5.96.65-5.27-3.09-10.07-8.36-10.72-5.27-.65-10.07,3.09-10.72,8.36Z"></path><path d="m81.09,342.31c-.11-.13-.2-.78,0-1.7.18-.92.62-2.13,1.4-3.25.77-1.13,1.85-2.15,3-2.87,1.14-.73,2.31-1.16,3.17-1.41,3.02-.94,6.9-.25,9.64,2.16,2.79,2.33,4.22,6.2,3.81,9.73-.15,1.53-.7,3.19-1.79,4.54-1.08,1.38-2.62,2.24-4.09,2.67-1.48.45-2.92.54-4.27.5-1.36-.05-2.63-.25-3.87-.54-2.45-.59-4.91-1.7-6.46-3.71-.76-.99-1.2-2.15-1.33-3.23-.12-1.09.04-2.08.26-2.95.34.85.68,1.8,1.22,2.61.54.82,1.22,1.44,1.95,1.86,1.45.85,3.09,1.11,3.92,1.51,1.69.75,3.64,1.2,5.41,1.25,1.78.06,3.51-.35,4.67-1.41.58-.52,1.01-1.19,1.31-1.92.27-.75.42-1.55.46-2.35.06-1.59-.33-3.15-1.06-4.44-1.47-2.63-4.14-4.1-6.64-4.34-2.54-.27-4.87.58-6.64,1.89-.83.63-1.94,1.62-2.71,2.74-.8,1.1-1.19,2.28-1.35,2.66Z"></path><path class="c" d="m66.05,336.22c-.65,5.27,3.39,7.67,8.66,8.32s9.77-.69,10.42-5.96c.65-5.27-3.09-10.07-8.36-10.72s-10.07,3.09-10.72,8.36Z"></path><path d="m66.02,336.22c-.11-.13-.2-.78,0-1.7.18-.92.62-2.13,1.4-3.25.77-1.13,1.85-2.15,3-2.87,1.14-.73,2.31-1.16,3.17-1.41,3.02-.94,6.9-.25,9.64,2.16,2.79,2.33,4.22,6.2,3.81,9.73-.15,1.53-.7,3.19-1.79,4.54-1.08,1.38-2.62,2.24-4.09,2.67-1.48.45-2.92.54-4.27.5-1.36-.05-2.63-.25-3.87-.54-2.45-.59-4.91-1.7-6.46-3.71-.76-.99-1.2-2.15-1.33-3.23-.12-1.09.04-2.08.26-2.95.34.85.68,1.8,1.22,2.61.54.82,1.22,1.44,1.95,1.86,1.45.85,3.09,1.11,3.92,1.51,1.69.75,3.64,1.2,5.41,1.25,1.78.06,3.51-.35,4.67-1.41.58-.52,1.01-1.19,1.31-1.92.27-.75.42-1.55.46-2.35.06-1.59-.33-3.15-1.06-4.44-1.47-2.63-4.14-4.1-6.64-4.34-2.54-.27-4.87.58-6.64,1.89-.83.63-1.94,1.62-2.71,2.74-.8,1.1-1.19,2.28-1.35,2.66Z"></path><path class="c" d="m81.66,331.47c0,5.31,4.3,7.19,9.61,7.19,5.31,0,9.61-1.88,9.61-7.19,0-5.31-4.3-9.61-9.61-9.61-5.31,0-9.61,4.3-9.61,9.61Z"></path><path d="m81.63,331.47c-.13-.11-.3-.75-.21-1.69.07-.94.36-2.19.99-3.4.62-1.21,1.58-2.36,2.62-3.21,1.04-.86,2.15-1.43,2.97-1.79,2.88-1.3,6.82-1.1,9.83.96,3.06,1.97,4.95,5.64,4.97,9.19.04,1.53-.3,3.25-1.22,4.73-.9,1.5-2.33,2.55-3.73,3.16-1.41.62-2.83.9-4.18,1.02-1.35.11-2.64.08-3.91-.06-2.5-.29-5.08-1.09-6.86-2.89-.88-.89-1.46-1.99-1.72-3.05-.25-1.07-.22-2.07-.11-2.96.44.8.9,1.7,1.53,2.44.63.75,1.39,1.28,2.17,1.61,1.54.66,3.2.73,4.08,1.01,1.77.53,3.76.75,5.52.58,1.78-.16,3.44-.77,4.46-1.97.51-.59.86-1.3,1.06-2.07.18-.77.22-1.59.17-2.39-.13-1.59-.72-3.08-1.6-4.28-1.78-2.43-4.61-3.56-7.12-3.5-2.55.04-4.76,1.17-6.35,2.69-.75.73-1.72,1.84-2.35,3.05-.66,1.19-.9,2.41-1.02,2.81Z"></path><circle class="c" cx="92.86" cy="316.51" r="9.61"></circle><path d="m102.44,316.51c-.18-.12-.26-.76-.52-1.63-.25-.88-.67-2-1.39-3.05-.7-1.05-1.68-1.99-2.71-2.62-1.03-.64-2.09-.95-2.85-1.04-2.68-.38-5.57.5-7.46,2.45-1.95,1.9-2.74,4.73-2.22,7.18.41,2.13,1.72,4.02,3.48,5.16,1.75,1.15,3.91,1.54,5.88,1.2,1.97-.34,3.76-1.4,4.99-2.82.62-.71,1.12-1.5,1.5-2.31.37-.82.59-1.67.75-2.5.39.74.7,1.78.7,2.95,0,1.16-.3,2.45-.87,3.6-.57,1.15-1.38,2.18-2.25,2.88-.86.71-1.74,1.16-2.37,1.32-2.58.72-5.15.48-7.35-.33-2.19-.84-3.99-2.28-5.22-4.02-2.5-3.48-2.61-7.95-.91-11.23,1.66-3.33,4.96-5.46,8.27-5.8,3.31-.38,6.52.94,8.45,3.08.97.97,1.84,2.69,2.11,4.25.32,1.57.06,2.89-.01,3.3Z"></path><path class="c" d="m85.37,327.19c-2.55,4.65-7.23,4.24-11.89,1.68-4.65-2.55-7.52-6.27-4.97-10.93,2.55-4.65,8.4-6.36,13.05-3.81,4.65,2.55,6.36,8.4,3.81,13.05Z"></path><path d="m85.34,327.18c-.19-.35.79-2.35.59-4.78-.08-1.2-.42-2.44-.95-3.46-.52-1.02-1.21-1.81-1.77-2.28-1.98-1.65-4.71-2.47-7.24-1.99-2.55.42-4.74,2.12-5.79,4.24-.93,1.9-.83,3.5.33,5.08,1.14,1.57,3.07,2.89,4.93,3.9,1.86,1,3.75,1.61,5.38,1.46.82-.07,1.58-.34,2.26-.77.68-.44,1.25-1.04,1.77-1.66,0,.8-.18,1.82-.78,2.8-.59.98-1.66,1.87-2.89,2.31-1.22.47-2.51.55-3.55.44-1.05-.1-1.88-.37-2.4-.64-1.06-.54-1.99-1.16-2.88-1.8-.89-.63-1.73-1.32-2.5-2.08-.77-.75-1.47-1.58-2.03-2.5-.55-.93-.95-1.96-1.08-3.02-.14-1.06,0-2.12.28-3.07.31-.95.76-1.8,1.27-2.58,1.05-1.55,2.46-2.78,4.03-3.58,3.14-1.64,6.84-1.5,9.64-.06,2.84,1.41,4.72,4.1,5.25,6.78.31,1.27.2,3.09-.32,4.51-.49,1.44-1.33,2.41-1.57,2.72Z"></path><path class="c" d="m105.55,292.17c-.59,5.28-5.08,6.66-10.36,6.07s-9.34-2.95-8.75-8.22,5.35-9.07,10.63-8.48,9.07,5.35,8.48,10.63Z"></path><path d="m105.52,292.16c-.31-.25-.16-2.47-1.27-4.65-.53-1.08-1.32-2.1-2.2-2.84-.87-.75-1.81-1.22-2.5-1.44-2.45-.77-5.29-.49-7.45.91-2.2,1.36-3.58,3.76-3.74,6.12-.14,2.11.56,3.56,2.24,4.57,1.65,1.02,3.94,1.51,6.04,1.74,2.1.22,4.08.07,5.53-.7.73-.38,1.33-.92,1.8-1.58.46-.67.76-1.44,1.01-2.2.3.74.53,1.75.34,2.89-.18,1.13-.83,2.36-1.79,3.24-.95.9-2.11,1.46-3.11,1.75-1.01.3-1.88.38-2.46.32-1.19-.1-2.28-.32-3.35-.57-1.06-.25-2.1-.56-3.1-.97-1-.41-1.96-.9-2.83-1.54-.86-.65-1.62-1.45-2.15-2.38-.53-.93-.81-1.95-.91-2.95-.07-1,.02-1.95.2-2.87.38-1.83,1.22-3.5,2.37-4.84,2.28-2.71,5.76-3.99,8.9-3.71,3.17.23,5.93,2,7.43,4.28.77,1.05,1.36,2.78,1.42,4.29.1,1.52-.31,2.74-.42,3.12Z"></path><path class="c" d="m100.72,327.34c2.55,4.65,7.23,4.24,11.89,1.68,4.65-2.55,7.52-6.27,4.97-10.93-2.55-4.65-8.4-6.36-13.05-3.81-4.65,2.55-6.36,8.4-3.81,13.05Z"></path><path d="m100.69,327.36c-.16-.04-.62-.51-1-1.38-.39-.85-.74-2.09-.76-3.46-.04-1.36.25-2.83.76-4.08.5-1.26,1.2-2.29,1.75-3,1.9-2.53,5.45-4.24,9.08-3.89,3.63.26,7.05,2.56,8.78,5.67.77,1.33,1.3,3,1.2,4.73-.07,1.74-.82,3.35-1.75,4.56-.94,1.23-2.05,2.15-3.17,2.9-1.13.75-2.28,1.34-3.46,1.82-2.33.95-4.98,1.49-7.41.76-1.2-.36-2.23-1.04-2.97-1.84-.74-.81-1.18-1.71-1.52-2.54.77.49,1.61,1.06,2.52,1.41.92.35,1.84.46,2.68.37,1.67-.16,3.16-.9,4.06-1.07,1.81-.38,3.66-1.15,5.12-2.15,1.48-1,2.65-2.33,2.96-3.87.17-.76.13-1.56-.06-2.32-.22-.76-.57-1.5-1-2.17-.88-1.33-2.11-2.36-3.46-2.98-2.73-1.28-5.76-.9-7.93.36-2.22,1.26-3.61,3.32-4.28,5.41-.31,1-.62,2.44-.59,3.8,0,1.36.37,2.55.46,2.95Z"></path><path class="c" d="m112.09,306.89c0,5.31-4.3,9.61-9.61,9.61s-9.61-4.3-9.61-9.61,1.36-12.06,6.67-12.06,12.56,6.75,12.56,12.06Z"></path><path d="m112.06,306.89c-.2-.13-.26-.79-.62-1.7-.34-.9-.92-2.05-1.73-3.15-1.63-2.23-4.17-4.18-5.75-4.81-1.36-.6-2.86-1.03-4.21-.99-.34-.02-.64.09-.96.12-.28.11-.58.17-.83.34-.52.27-.96.69-1.33,1.24-.78,1.06-1.22,2.58-1.5,4.08-.27,1.53-.36,3.13-.34,4.67,0,2.39,1.08,4.54,2.76,6.02,1.68,1.48,3.93,2.13,6.06,1.93,2.13-.18,4.08-1.22,5.45-2.68,1.4-1.45,2.16-3.31,2.45-5.07.39.79.68,1.89.64,3.13-.03,1.24-.41,2.59-1.08,3.78-1.31,2.43-3.81,3.92-5.18,4.15-2.79.54-5.51.07-7.73-1.07-2.22-1.15-3.9-2.95-4.92-4.96-.5-1.02-.83-2.08-1.01-3.15-.2-1.08-.14-2.15-.11-3.12.1-1.99.33-3.91.86-5.76.26-.92.61-1.82,1.1-2.66.46-.84,1.11-1.63,1.92-2.23.79-.63,1.78-.98,2.73-1.12l.72-.07c.24-.01.47.02.7.02.47,0,.91.1,1.35.18,1.74.38,3.23,1.14,4.54,2.02,1.31.89,2.44,1.91,3.38,3.03.91,1.05,1.9,2.72,2.36,4.33.23.8.35,1.57.36,2.19.02.62-.08,1.08-.09,1.3Z"></path><path class="c" d="m95.67,305.4c0,5.31-4.3,9.61-9.61,9.61s-9.61-4.3-9.61-9.61,7.74-12.32,13.05-12.32,6.18,7.01,6.18,12.32Z"></path><path d="m95.64,305.4c-.33-.26-.41-2.76-1.01-5.51-.31-1.36-.78-2.78-1.48-3.84-.69-1.08-1.63-1.62-2.32-1.76-1.24-.24-2.65.11-4.02.76-1.36.67-2.68,1.6-3.87,2.66-1.19,1.07-2.26,2.28-3.09,3.57-.83,1.27-1.39,2.67-1.44,3.81-.05,1.06.19,2.29.64,3.31.47,1.04,1.15,1.98,1.98,2.73,1.66,1.54,3.93,2.22,6.07,2.04,2.15-.16,4.13-1.19,5.52-2.66,1.42-1.46,2.18-3.33,2.47-5.11.39.8.68,1.91.63,3.15-.04,1.25-.43,2.61-1.11,3.8-1.34,2.44-3.87,3.93-5.26,4.13-2.81.54-5.56,0-7.77-1.17-2.23-1.17-3.88-3.05-4.86-5.09-.5-1.02-.8-2.11-.95-3.19-.09-.54-.09-1.08-.11-1.62.06-.55.07-1.12.23-1.63.52-2.1,1.61-3.81,2.81-5.29,1.21-1.48,2.56-2.75,4.02-3.81,1.46-1.05,3.02-1.91,4.75-2.38.44-.1.86-.23,1.33-.25l.68-.06c.23,0,.47.03.7.04.93.05,1.86.4,2.63.92,1.54,1.08,2.34,2.66,2.77,4.08.46,1.37.58,3.29.49,4.91-.08,1.63-.34,3.01-.42,3.46Z"></path></svg>