<svg xmlns="http://www.w3.org/2000/svg" id="bantu-knots" viewBox="0 0 380 600">
  <defs>
    <style>
      .cls-1 {
        fill: #fff;
      }

      .cls-2 {
        fill: #ffd635;
      }

      .cls-3 {
        opacity: .25;
      }

      .cls-4 {
        opacity: .75;
      }
    </style>
  </defs>
  <g id="hoops-2" data-name="hoops">
    <path class="cls-2" d="m76.41,301.88c-19.65,22.25-12.99,58.89,5.98,71.53,11.74,7.83,28.39,6.3,38.11-6.79,14.03-18.89,5.38-50.08-14.06-64.59-2.16-1.61-5.2-3.66-5.61-5.4-.35-1.48-.18-2.83,1.18-3.97,5.76-4.82,19.96,8.61,23.35,12.49,20.8,23.83,19.01,60.72-3.96,77.68-10.95,8.09-33.26,10.76-48.09-3.13-22.66-21.21-22.93-62.31-2.78-80.84,1.77,1.25,3.41,2.28,5.89,3.01Z"></path>
    <g>
      <path class="cls-2" d="m304.34,289.84c18.17,12.3,9.81,67.96-20.74,70.87-5.36.51-10.59-2.64-12.34-6.89-2.79,2.12-5.56,3.97-8.3,5.44,2.43,8.98,17.23,15.65,32.17,10.31,34.33-12.28,46.74-77.93,5.81-94.65,1.84,5.13,3.41,10.78,3.41,14.93Z"></path>
      <path d="m304.31,289.84c-.12-.42-.22-2.16-.81-4.76-.29-1.3-.67-2.81-1.18-4.47-.13-.43-.27-.86-.41-1.31-.18-.54-.36-1.1-.55-1.66-.41-1.16-.85-2.37-1.29-3.62-.03-.11.14,0,.26.05l.37.17.75.34c.51.23,1.03.46,1.55.7.53.24,1.06.48,1.6.73.54.26,1.06.59,1.45.8.84.49,1.72.94,2.55,1.5.82.58,1.64,1.17,2.48,1.76,3.23,2.51,6.15,5.61,8.48,8.99,2.37,3.36,4,7.02,5.19,10.39,1.24,3.37,1.82,6.53,2.3,9.04,2.3,14.12-.68,30.13-8.86,43.46-2.08,3.3-4.44,6.47-7.21,9.28-2.78,2.8-5.89,5.28-9.3,7.28l-2.61,1.4-2.73,1.15c-1.84.7-3.74,1.27-5.67,1.65-3.86.77-7.82.87-11.65.26-3.82-.58-7.54-1.94-10.8-4.08-1.65-1.04-3.11-2.38-4.39-3.87l-.89-1.19c-.3-.39-.51-.86-.76-1.29l-.37-.68c-.15-.29-.29-.77-.43-1.15-.29-.8-.58-1.59-.86-2.39.77-.42,1.53-.84,2.28-1.25.83-.47,1.02-.59,1.4-.82.7-.43,1.39-.86,2.06-1.31.67-.45,1.33-.9,1.97-1.36.63-.46,1.25-.92,1.87-1.38.64-.48,1.28-.97,1.92-1.45.56,1.16,1.11,2.41,1.75,3.54l.3.42c.07.11.15.2.23.3.17.19.32.4.51.57.72.74,1.56,1.37,2.48,1.87,1.84,1,3.96,1.49,6,1.32,4.46-.42,8.75-2.08,12.28-4.75,3.53-2.67,6.47-6.08,8.74-9.81,2.28-3.74,4.01-7.73,5.3-11.76,2.55-8.07,3.43-16.28,2.73-23.78-.35-3.75-1.16-7.32-2.51-10.51-1.34-3.18-3.29-5.96-5.81-7.84,1.55.88,3.21,2.14,4.63,3.88,1.39,1.75,2.64,3.84,3.61,6.17,1.91,4.67,2.86,10.1,2.99,15.37.18,5.29-.47,10.43-1.48,14.8-1,4.38-2.4,7.98-3.55,10.37-1.96,4.03-4.41,7.79-7.37,11.04-2.96,3.24-6.48,5.96-10.4,7.72-.98.44-2,.76-2.99,1.14-1.04.25-2.05.55-3.09.74-1.05.12-2.05.32-3.14.38-1.09.06-2.18-.04-3.23-.25-2.1-.41-4.08-1.29-5.75-2.55-.84-.63-1.61-1.34-2.26-2.16-.17-.2-.32-.41-.47-.63l-.15-.22s-.06-.1-.09-.15c-.12-.21-.23-.43-.32-.65,0-.04-.03-.04-.05-.01l-.07.05-.13.1-.27.19-.67.47c-.72.5-1.44.98-2.16,1.45-.72.46-1.43.9-2.14,1.32-.29.16-.57.33-.85.49-.19.1-.38.2-.57.3.05.21.15.44.22.67.05.12.06.21.14.35l.28.51c.2.34.34.71.59,1.03l.71.96c.21.33.52.6.79.89.28.28.53.59.84.85.63.49,1.19,1.07,1.88,1.48,2.64,1.81,5.67,3,8.75,3.66,3.09.66,6.25.78,9.32.45.76-.11,1.54-.15,2.29-.33.75-.16,1.5-.32,2.25-.48,1.46-.45,2.92-.86,4.3-1.49,5.62-2.27,10.34-6.06,14.2-10.32,3.89-4.27,6.84-9.15,9.12-14.14,4.52-10.01,6.31-20.59,5.72-30.42-.59-9.83-3.77-18.99-9.26-25.91-2.01-2.49-4.7-5.36-7.68-7.44-.36-.27-.71-.57-1.08-.81-.38-.24-.75-.47-1.11-.7-.65-.41-1.27-.81-1.86-1.19-.52-.28-1.01-.55-1.46-.79-.25-.14-.49-.26-.71-.39-.12-.06-.23-.13-.34-.19l-.17-.09s-.07-.05-.07-.03l.02.06c.94,2.86,1.91,6.71,2.25,9.08.39,2.47.39,4.07.35,4.91Z"></path>
    </g>
    <path d="m70.91,298.35c-.13.24-.67.87-1.53,1.8-.82.97-1.92,2.27-3.09,3.93-1.15,1.67-2.43,3.65-3.56,5.96-1.16,2.28-2.23,4.86-3.09,7.6-1.78,5.47-2.68,11.6-2.79,17.19-.1,5.6.57,10.66,1.34,14.18,1.38,6.22,3.63,12.5,7.07,18.23,1.71,2.86,3.7,5.59,5.95,8.09,2.27,2.5,4.75,4.8,7.57,6.58,11.21,7.39,26.64,7.4,37.86,1.57.6-.34,1.22-.64,1.8-1.01l1.69-1.14c1.1-.85,2.21-1.71,3.22-2.67,2.05-1.88,3.93-3.95,5.57-6.19,3.24-4.5,5.66-9.55,7.09-14.84,2.95-10.57,2.34-21.74-.75-31.51-3.1-9.79-8.57-18.34-15.27-24.51-3.35-3.12-6.8-5.97-10.46-7.83-1.81-.91-3.76-1.57-5.47-1.29-.87.13-1.54.57-2.22,1.22-.65.61-1.15,1.33-1.19,2.08-.1-.67.21-1.49.77-2.22.55-.74,1.27-1.44,2.25-1.79.98-.37,2.11-.4,3.22-.25,1.12.15,2.23.48,3.32.9,4.37,1.72,8.48,4.65,12.2,7.73.93.78,1.83,1.58,2.7,2.4.88.81,1.72,1.71,2.47,2.57.38.44.76.87,1.14,1.29.35.44.7.88,1.05,1.31.71.85,1.32,1.74,1.92,2.59,2.38,3.41,3.96,6.6,4.89,8.84,7.41,18.15,5.71,38.31-3.72,52.66-2.35,3.57-5.16,6.76-8.29,9.46-.76.71-1.61,1.29-2.41,1.94-.82.61-1.71,1.15-2.57,1.73-.91.48-1.79.99-2.71,1.43-.93.39-1.85.83-2.79,1.18-7.53,2.83-15.53,3.32-22.92,1.98-3.71-.64-7.24-1.93-10.48-3.59-.8-.45-1.64-.81-2.39-1.32-.75-.5-1.5-1.01-2.25-1.51-.76-.49-1.4-1.12-2.1-1.67-.69-.57-1.38-1.13-1.99-1.76-5.1-4.87-8.87-10.68-11.56-16.66-5.33-12.04-6.45-24.73-4.66-35.98.43-2.68,1.13-5.82,2.21-8.98,1.07-3.17,2.52-6.34,4.16-9.14,1.64-2.8,3.48-5.19,5.08-7.01.85-.86,1.55-1.66,2.22-2.24.65-.58,1.16-1.04,1.5-1.34Z"></path>
    <path d="m100.71,295.8c.1.2.14.85.67,1.65.51.8,1.49,1.69,2.8,2.58.65.45,1.38.9,2.17,1.4.78.52,1.57,1.11,2.39,1.74,1.62,1.28,3.27,2.78,4.88,4.44,1.58,1.69,3.1,3.53,4.5,5.45,1.37,1.94,2.61,3.95,3.7,5.93,2.14,3.98,3.6,7.82,4.49,10.61,1.57,4.93,2.55,10.3,2.48,15.85-.05,5.53-1.13,11.25-3.56,16.49-1.22,2.61-2.74,5.11-4.64,7.32l-.68.85-.76.78c-.51.51-1.01,1.05-1.54,1.54-1.12.93-2.21,1.91-3.45,2.68-1.17.87-2.49,1.5-3.77,2.18-1.33.57-2.66,1.16-4.05,1.53-2.75.82-5.61,1.29-8.42,1.25h-.92s-.92-.05-.92-.05l-1.84-.14-1.82-.31-.91-.16-.89-.24-1.78-.48-1.72-.64-.86-.32-.83-.39-1.65-.79c-2.12-1.2-4.17-2.56-5.95-4.19-1.77-1.63-3.37-3.41-4.77-5.3-2.77-3.8-4.86-7.95-6.32-12.2-1.49-4.24-2.42-8.56-2.86-12.82-.91-8.51.07-16.78,2.53-23.89,2.43-7.14,6.42-13.03,10.85-17.21-1.59,2.26-3.39,5.08-4.89,8.29-1.52,3.2-2.75,6.77-3.57,10.31-1.71,7.09-1.6,13.94-1.6,17.5-.01,7.2,1.38,14.26,4.06,20.53,2.69,6.24,6.7,11.85,12.06,15.33,5.32,3.55,11.74,4.96,17.7,4.29,2.98-.33,5.86-1.16,8.49-2.39,2.62-1.26,4.95-2.97,6.99-4.91,4.05-3.93,6.79-8.85,8.28-13.91,1.52-5.07,1.85-10.27,1.47-15.2-.81-9.91-4.33-18.79-9.03-26.02-2.21-3.46-5.77-7.87-9.54-11.13-.48-.4-.94-.79-1.4-1.17-.46-.37-.94-.71-1.4-1.05-.91-.69-1.76-1.36-2.43-2.05-.68-.69-1.18-1.39-1.45-2.03-.28-.65-.29-1.2-.28-1.55Z"></path>
    <g id="Layer_103-2" data-name="Layer 103" class="cls-3">
      <path d="m70.65,362.18c.11-.22-.1-.91-.48-1.89-.39-.97-.97-2.21-1.45-3.6-.26-.68-.53-1.39-.8-2.09-.24-.71-.44-1.43-.65-2.12-.2-.68-.39-1.34-.56-1.93-.13-.6-.22-1.15-.29-1.61-.13-.8-.26-1.62-.4-2.45-.1-.83-.19-1.67-.29-2.52-.26-1.68-.31-3.42-.46-5.14-.1-.86-.04-1.73-.08-2.59,0-.86-.07-1.72-.02-2.58.12-1.7.09-3.4.36-5.02.65-5.69,2.07-11.14,4.11-15.83,2.02-4.71,4.68-8.59,7.06-11.69-1.88.44-4.49,1.59-6.45,3.31-.5.41-1.03.81-1.45,1.26-.41.45-.8.9-1.14,1.33-.67.86-1.23,1.63-1.44,2.24-1.86,4.86-2.82,9.5-3.48,13.83-.12,1.09-.36,2.15-.41,3.21-.09,1.05-.17,2.09-.26,3.11-.09,1.02-.06,2.03-.1,3.02-.03.99-.07,1.97,0,2.92.18,7.65,1.41,14.39,3.86,19.75.6,1.26,1.56,2.92,2.56,4.28,1.03,1.34,1.96,2.44,2.28,2.79Z"></path>
      <path d="m99.45,379.71c.24.16,1.39.13,3.11-.01.86-.03,1.84-.25,2.91-.48.53-.11,1.09-.23,1.66-.36.57-.13,1.13-.36,1.72-.54.58-.2,1.18-.39,1.78-.59.6-.2,1.16-.51,1.74-.77.58-.27,1.15-.53,1.72-.8.54-.32,1.07-.64,1.59-.95.52-.32,1.04-.61,1.51-.92.46-.35.9-.68,1.32-1,.42-.32.83-.61,1.2-.89.35-.31.67-.6.97-.86.52-.47,1.05-.95,1.58-1.42.47-.54.95-1.08,1.43-1.62l.72-.83.64-.9c.42-.61.84-1.22,1.27-1.84.36-.66.72-1.31,1.08-1.98l.54-1,.44-1.04c.29-.7.6-1.4.87-2.11l.69-2.18c.25-.73.42-1.47.58-2.22.16-.75.34-1.49.48-2.24.19-1.51.49-3.01.54-4.52.05-.75.09-1.51.14-2.25,0-.75,0-1.49-.01-2.24.03-1.49-.14-2.95-.23-4.4-.95-10.11-4.82-19.73-10.31-27.05-2.74-3.66-5.9-6.75-9.2-9.07-3.29-2.34-6.71-3.89-9.83-4.78,1.13,1.09,2.56,2.15,3.92,3.5.35.32.7.64,1.05.96.33.35.67.7,1.01,1.05l1.02,1.03c.33.35.64.73.95,1.08,1.29,1.38,2.4,2.85,3.42,4.04.94,1.28,1.84,2.26,2.44,2.97.62.7,1.29,1.36,1.86,2.09.57.73,1.14,1.46,1.7,2.19.51.77,1.02,1.53,1.52,2.28.52.75.92,1.56,1.37,2.34,1.71,3.16,3.12,6.4,4.04,9.68.94,3.27,1.61,6.53,1.83,9.72l.11,1.19.03,1.18c.01.79.04,1.57.04,2.34-.1,1.54-.11,3.07-.35,4.54-.32,2.97-1.09,5.76-2.01,8.36-.52,1.28-1,2.55-1.66,3.71-.32.58-.57,1.2-.95,1.73-.35.55-.71,1.09-1.06,1.62-.32.55-.75,1.02-1.14,1.51-.4.48-.77.98-1.17,1.44-.43.44-.86.87-1.29,1.3-.42.43-.83.87-1.31,1.22-.93.74-1.78,1.55-2.77,2.14-.48.32-.95.64-1.42.96-.46.33-.99.55-1.47.83-.47.24-.98.52-1.51.83-.54.29-1.14.52-1.74.81-.6.27-1.21.59-1.83.85-.64.23-1.27.47-1.88.69-.62.22-1.2.48-1.78.64-.57.16-1.11.31-1.59.45-.96.28-1.7.5-2.06.61Z"></path>
      <path d="m285.92,360.41c.37.34,4.04.44,8.07-.89,2.01-.64,4.05-1.62,5.81-2.71,1.76-1.08,3.25-2.23,4.29-3.08,3.73-2.97,6.88-7.17,9.18-11.76,2.31-4.6,3.85-9.59,4.75-14.41,1.57-8.43,1.23-17.19-1.34-24.68-1.29-3.73-3.18-7.14-5.71-9.7-1.26-1.28-2.66-2.33-4.13-3.06-1.47-.74-2.98-1.16-4.4-1.31,1.12.79,2.35,1.77,3.42,2.93,1.07,1.17,1.98,2.5,2.72,3.84,1.48,2.69,2.33,5.43,3.04,6.8,1.43,2.76,2.34,5.78,2.92,8.76.57,2.99.79,5.98.75,8.87-.09,5.79-1.18,11.21-2.92,15.99-1.72,4.79-4.12,8.94-6.86,12.34-2.76,3.4-5.9,6-9.15,7.89-1.55.88-3.73,2.04-5.81,2.8-2.07.8-4,1.19-4.63,1.36Z"></path>
      <path d="m291.64,370.55c-.26-.37-1.74-.14-3.43-.01-.85.06-1.74.15-2.56.1-.41-.01-.8-.02-1.15-.04-.35-.03-.66-.1-.92-.15-3.67-.74-7.47-2.02-10.25-4.18-1.21-.93-2.32-1.96-3.28-3.06-1.1-1.28-1.46-1.77-1.57-2.66-.09-.84.26-1.87.95-2.77.66-.92,1.59-1.69,2.5-2.35-1.21-.69-3.11-.87-4.82-.11-1.74.67-2.97,2.48-3.02,3.55-.09,1.06.01,2.12.35,3.05.33.93.8,1.73,1.36,2.38,1.01,1.13,2.03,2.03,3.05,2.88,2.05,1.68,4.15,2.98,6.27,3.92,2.11.96,4.23,1.56,6.25,1.81,1.01.18,1.99.16,2.94.18.94-.04,1.85-.15,2.71-.31.81-.18,1.9-.56,2.79-1.07.89-.5,1.62-.98,1.85-1.16Z"></path>
    </g>
    <g id="Layer_104-2" data-name="Layer 104" class="cls-4">
      <path class="cls-1" d="m323.91,317.47c-.26-.17-.33-1.79-.56-3.64-.18-1.86-.51-3.94-.83-5.08-1.06-4.01-2.5-8.46-4.42-12.17-1.69-3.24-3.74-6.18-5.91-8.65-2.18-2.47-4.49-4.4-6.36-6.03.62.03,1.34.15,2.11.34.38.1.78.21,1.17.33.37.15.75.32,1.11.49.72.36,1.45.7,1.99,1.11.54.41.98.79,1.23,1.1,4.01,5.06,6.47,9.95,8.21,14.47,1.75,4.51,2.64,8.69,2.8,12.36.08.87-.05,2.08-.15,3.12-.15,1.05-.32,1.94-.39,2.23Z"></path>
      <path class="cls-1" d="m130.19,316.76c-.53.05-3.13-3.77-4.42-5.02-2.23-2.24-4.52-4.95-6.82-7.14-1.99-1.93-4-3.74-5.94-5.3-1.93-1.56-3.78-2.86-5.3-3.96.98-.23,2.35-.22,3.56.07,1.23.24,2.26.77,2.71,1.16,3.47,3.41,6.22,6.36,8.67,9.04,2.42,2.68,4.49,5.07,5.91,7.42.71,1.09,1.49,3.28,1.62,3.72Z"></path>
      <path class="cls-1" d="m98.84,381.92c-.13.21-1.39.35-2.85.28-.73-.02-1.51-.07-2.22-.16-.71-.06-1.36-.14-1.82-.19-3.31-.23-6.98-1.48-10.02-3.12-2.68-1.4-5.07-3.28-6.91-5.29-1.85-2.01-3.13-4.14-3.88-5.94,1.02.35,2.13,1.04,3.15,1.67.97.67,1.85,1.28,2.14,1.77,2.58,3.79,6.14,6.13,9.43,7.48,3.33,1.36,6.4,1.87,9.04,2.43.64.08,1.49.36,2.26.57.77.2,1.45.41,1.67.49Z"></path>
      <path class="cls-1" d="m291.95,360.98c.05.51-2.51,1.42-3.47,1.91-1.68.94-3.85,1.44-5.85,1.59-1.75.16-3.54-.05-5.06-.57-1.53-.52-2.78-1.34-3.58-2.19,1.47-.64,3.28-.95,3.81-.61,2.19,1.43,4.65,1.52,6.61,1.19,2-.33,3.63-1.01,5.15-1.28.7-.17,2.11-.06,2.41-.03Z"></path>
    </g>
  </g>
</svg>