<svg xmlns="http://www.w3.org/2000/svg" id="outfits_springbreak" viewBox="0 0 380 600"><defs transform="matrix(-1, 0, 0, 1, 380, 0)"><style>.cls-1{fill:#f9a;}.cls-2{fill:#121212;}.cls-3{fill:#ffd635;}</style></defs><path class="cls-1" d="M179.12,184.07c-28.23,13.68-78.77-9-80.32-41.2,10.42-8.69,115.47,25.84,79.68,41.2" transform="matrix(-1, 0, 0, 1, 380, 0)"></path><path class="cls-2" d="M178.46,184c.25-.44,2.41-1.32,4.74-3.49a7.44,7.44,0,0,0,1.43-2,4.33,4.33,0,0,0,.45-2.53,7,7,0,0,0-1-2.72,15.91,15.91,0,0,0-2-2.56c-3.17-3.25-7.47-5.87-11.44-8a100.84,100.84,0,0,0-10.54-4.88,258.31,258.31,0,0,0-31.3-9.89,149.24,149.24,0,0,0-16.41-3.18,50.48,50.48,0,0,0-7.93-.46,16.31,16.31,0,0,0-1.79.16,7.1,7.1,0,0,0-.74.13l0,0s-.06,0,0,.07,0,0,0,0h0l0,.22a32.25,32.25,0,0,0,4.36,12.17,46.6,46.6,0,0,0,8.22,10.19,70.6,70.6,0,0,0,21.65,13.62A72,72,0,0,0,159,186.18a46.46,46.46,0,0,0,19.78-2.88,30.9,30.9,0,0,1-8.84,4.68,44.07,44.07,0,0,1-11.67,2.26,56,56,0,0,1-11.27-.52l-2.41-.42c-.77-.15-1.49-.34-2.16-.5a29.25,29.25,0,0,1-3.45-1.05,82.12,82.12,0,0,1-20.31-10.92,66.1,66.1,0,0,1-8.26-7.23,49.46,49.46,0,0,1-6.63-8.34,42.54,42.54,0,0,1-4.46-9.34c-.22-.82-.45-1.64-.68-2.45s-.33-1.66-.5-2.48c-.06-.42-.18-.82-.2-1.24l-.14-1.49a11.28,11.28,0,0,1-.06-1.62v-.39c.06-.1.21-.16.31-.24a5.32,5.32,0,0,1,.67-.42c.24-.13.46-.27.7-.38l.77-.26a11.9,11.9,0,0,1,1.47-.36,24.2,24.2,0,0,1,2.5-.23,40.32,40.32,0,0,1,4.81.13c3.14.25,6.18.71,9.16,1.24,5.94,1.08,11.6,2.46,17,4s10.62,3.19,15.58,5c9.89,3.63,19,7.65,26.65,13a34.06,34.06,0,0,1,5.8,5,17,17,0,0,1,2.51,3.53,8.08,8.08,0,0,1,1,4.33,6.17,6.17,0,0,1-1.69,3.74,10.93,10.93,0,0,1-2.66,2.06A22,22,0,0,1,178.46,184Z" transform="matrix(-1, 0, 0, 1, 380, 0)"></path><path class="cls-1" d="M159.39,164.81c-21.77-18.3-31.12-37.46-27.18-51.12,3.46-12,34.08,14.2,56,47.22-13.61-20.53,7.49-43.32,26.3-45.25,14.06,11.84,6,41.13-4.7,50.69,3.75-23.71,28.26-40.31,50.38-42.32,15.49-1.4-4.88,33.82-14.67,45.18-12.2,14.15-54.56,11-54.56,11-36.89,5.11-64.95-.22-88.88-35.13" transform="matrix(-1, 0, 0, 1, 380, 0)"></path><path class="cls-2" d="M102.1,145a38.64,38.64,0,0,1,2.61,3.1l2.32,3,3.14,3.58a82.73,82.73,0,0,0,20.14,16.77,33.48,33.48,0,0,0,3.41,1.8l1.76.86a13.78,13.78,0,0,0,1.79.81l3.72,1.44.93.36,1,.28,1.94.57a74.55,74.55,0,0,0,7.91,1.86c1.33.23,2.69.37,4,.56l2,.27c.67.06,1.35.09,2,.13l4,.26,4,0c2.63.08,5.23-.16,7.76-.25s5-.44,7.36-.65l7-.91,1.78.08,1.61.06,3.09.05c2,0,3.85,0,5.55-.06a135.8,135.8,0,0,0,20-1.94,68.5,68.5,0,0,0,9.79-2.49,31.09,31.09,0,0,0,8.75-4.44c.32-.24.6-.52.9-.77a6.48,6.48,0,0,0,.85-.8c.26-.29.52-.54.79-.86l.81-1c1.06-1.34,2.09-2.74,3.08-4.17,2-2.86,3.88-5.83,5.66-8.87s3.46-6.15,5-9.32a65.21,65.21,0,0,0,3.83-9.67,22.44,22.44,0,0,0,.92-4.75,7.15,7.15,0,0,0-.13-2,1.78,1.78,0,0,0-.52-1,1.87,1.87,0,0,0-1.06-.37,4.7,4.7,0,0,0-.92,0h-.25l-.32,0-.64.09-2.56.35c-.85.11-1.69.34-2.53.51a61,61,0,0,0-9.88,3,65.14,65.14,0,0,0-9.17,4.74,53.28,53.28,0,0,0-15,13.59,41.3,41.3,0,0,0-7.68,17.84l-4.79-2.61.87-.85a36.31,36.31,0,0,0,7-11.83,49.11,49.11,0,0,0,3.13-13.69,29.58,29.58,0,0,0-1.7-13.27,17.24,17.24,0,0,0-3.31-5.31l-.26-.28c-.06-.08,0,0-.06-.06l0-.06s-.17,0-.25,0l-1.38.27c-.54.11-1.07.28-1.6.41a34.53,34.53,0,0,0-11.79,6.21,33.7,33.7,0,0,0-8.59,10,23.72,23.72,0,0,0-3.15,12.06,22.17,22.17,0,0,0,3.77,11.59l-4.68,3.11a223,223,0,0,0-24-30.51,129.88,129.88,0,0,0-13.44-12.52,49.93,49.93,0,0,0-7.19-4.86,17.79,17.79,0,0,0-3.66-1.52,3.68,3.68,0,0,0-2.63,0,1.79,1.79,0,0,0-.62.78,13.38,13.38,0,0,0-.47,1.74l-.23,1c-.05.32-.08.66-.12,1-.05.66-.2,1.31-.19,2a31.55,31.55,0,0,0,.83,7.92,51.83,51.83,0,0,0,6.38,14.45,88.91,88.91,0,0,0,9.2,12.14,135.36,135.36,0,0,0,10.23,10.13c-1.42-1-2.95-2.15-4.51-3.36l-2.34-1.91-1.2-1-1.18-1.06-2.42-2.19-2.39-2.38c-.82-.79-1.58-1.66-2.37-2.53s-1.59-1.73-2.32-2.68a61,61,0,0,1-8.13-12.43,36.84,36.84,0,0,1-3.86-15.1,31.32,31.32,0,0,1,.27-4c.13-.66.25-1.32.38-2l.1-.5.19-.61a6.28,6.28,0,0,1,.58-1.24,6,6,0,0,1,2.14-2.12,6.59,6.59,0,0,1,2.72-.8,11.88,11.88,0,0,1,4.46.61,31.54,31.54,0,0,1,6.75,3.24,65.24,65.24,0,0,1,5.56,3.83,116.14,116.14,0,0,1,15.21,14.14A232.14,232.14,0,0,1,190,159.69l-3.68,2.43a28.9,28.9,0,0,1-3.5-7.74,25.77,25.77,0,0,1-.92-8.41,30.05,30.05,0,0,1,5.57-15.29,40.25,40.25,0,0,1,11.4-10.84,39.65,39.65,0,0,1,6.93-3.53c.61-.23,1.21-.46,1.83-.65s1.23-.4,1.86-.55,1.26-.32,1.9-.43l1-.19c.36-.06.84-.11,1.25-.17l1.28-.16a7,7,0,0,1,1,.85c.31.3.68.62.94.89l.65.74a19.73,19.73,0,0,1,2.28,3.19A24.73,24.73,0,0,1,222.5,127a39.81,39.81,0,0,1,.2,14.75,53.9,53.9,0,0,1-4.12,13.76,35.71,35.71,0,0,1-8,11.71L208,169.55l.62-3.39a47.12,47.12,0,0,1,4.14-12.59c.5-1,1.09-1.9,1.62-2.85.28-.47.54-.95.83-1.41l.94-1.33c.64-.87,1.23-1.79,1.92-2.62l2.09-2.46a58.5,58.5,0,0,1,9.51-8.46l1.27-.93c.44-.29.89-.56,1.33-.84L235,131l2.75-1.47c.46-.24.91-.5,1.38-.73l1.42-.63a63.52,63.52,0,0,1,11.59-4.05l3-.63a30.16,30.16,0,0,1,3-.46,21,21,0,0,1,3.12-.31,6.19,6.19,0,0,1,3.5,1,5,5,0,0,1,1.37,1.42,6.47,6.47,0,0,1,.73,1.7,10.81,10.81,0,0,1,.28,3.31,26.42,26.42,0,0,1-1.19,6,73.82,73.82,0,0,1-4.42,10.78,137.16,137.16,0,0,1-11.65,19.25,54.14,54.14,0,0,1-3.48,4.37,21.11,21.11,0,0,1-4.46,3.7,40.28,40.28,0,0,1-10.15,4.35A98.27,98.27,0,0,1,211,181.86c-3.42.21-6.8.31-10.16.31-1.68,0-3.35,0-5-.07l-2.49-.09-2.33-.13-4.2.5c-1.46.19-2.91.36-4.36.46l-4.32.35c-1.44.1-2.88.12-4.3.18-2.85.17-5.69,0-8.5,0-1.4-.05-2.8-.2-4.19-.3a40.91,40.91,0,0,1-4.14-.44L152.6,182,148,181l-1.2-.28-1.18-.37-2.4-.76c-.8-.28-1.64-.48-2.43-.82l-2.4-1a69.07,69.07,0,0,1-17.76-10.89c-1.27-1.1-2.45-2.26-3.64-3.34-.57-.56-1.19-1.07-1.71-1.65l-1.56-1.7c-1-1.12-2-2.18-2.94-3.24l-2.46-3.12c-.77-1-1.53-1.9-2.16-2.79s-1.18-1.74-1.69-2.49Z" transform="matrix(-1, 0, 0, 1, 380, 0)"></path><path class="cls-1" d="M216.87,185.94c14.68,2.82,29.77,7.66,42.53,3.62,13.06-4.13,25-12.4,28.53-27.35-9-8.66-35.39-7.72-53.74,1-27.48,13.09-51.89,19.63-17.17,22" transform="matrix(-1, 0, 0, 1, 380, 0)"></path><path class="cls-2" d="M217,185.24a22.36,22.36,0,0,1-5.66.08c-1.56-.09-3.38-.23-5.36-.53a26.66,26.66,0,0,1-3.16-.63,6.53,6.53,0,0,1-3.46-1.9,2.17,2.17,0,0,1-.4-.9,2.36,2.36,0,0,1,.1-1,4.65,4.65,0,0,1,1.11-1.68,10.85,10.85,0,0,1,1.7-1.39l.78-.52.75-.47c2-1.19,4-2.21,6-3.17,3.89-1.91,7.43-3.54,9.92-4.79,4.41-2.2,9-4.44,13.57-6.8a70.63,70.63,0,0,1,15.25-5.69,79.27,79.27,0,0,1,16.28-2.37,53.18,53.18,0,0,1,16.36,1.67,26.29,26.29,0,0,1,6.87,3.05l1.18.91c.39.3.8.62,1.21,1a11.41,11.41,0,0,1,1.19,1.09l-.37,1.57a37.54,37.54,0,0,1-1.34,4.44,35.62,35.62,0,0,1-3.1,6.47,36.64,36.64,0,0,1-4.31,5.63,41.62,41.62,0,0,1-10.86,8.27,54.77,54.77,0,0,1-12,4.76,40.08,40.08,0,0,1-12.43,1.06,76.61,76.61,0,0,1-11.21-1.67c-7-1.55-13.27-3.48-18.87-5,5.32-.27,13,.54,20.15,1.06,3.56.25,7,.4,9.85.35s5.28-.25,6.92-.36c.84,0,1.64-.18,2.46-.27s1.59-.31,2.39-.47,1.64-.44,2.45-.67l2.41-.78a44.51,44.51,0,0,0,8.91-4.24,34.67,34.67,0,0,0,7.35-6.07,30.2,30.2,0,0,0,5.1-7.71c.36-.68.59-1.41.88-2.11.13-.36.28-.71.4-1.06l.27-.93c.09-.4.47-.93-.08-1.17a6.89,6.89,0,0,0-.56-.46c-.12-.08-.17-.14-.34-.24l-.45-.29a25.05,25.05,0,0,0-8.1-3.05,57,57,0,0,0-16.94-.61,77.56,77.56,0,0,0-15.64,3.22,67.7,67.7,0,0,0-7.08,2.68c-2.23,1-4.5,2.16-6.72,3.19-4.45,2.1-8.79,4-13,5.87s-8.24,3.57-11.92,5.46l-1.34.73-1.08.64a5.78,5.78,0,0,0-.79.59,1.21,1.21,0,0,0-.48.92,1.25,1.25,0,0,0,.64.82,5.52,5.52,0,0,0,1,.52,6.16,6.16,0,0,0,.72.26l.87.26c.58.17,1.17.32,1.75.46C211.47,184.41,215.66,185,217,185.24Z" transform="matrix(-1, 0, 0, 1, 380, 0)"></path><path class="cls-1" d="M198.79,190.7c-5.54,21,50.42,28,52.92,5.46" transform="matrix(-1, 0, 0, 1, 380, 0)"></path><path class="cls-2" d="M251.76,196.17c.21.16.24.93.15,2.1a19.17,19.17,0,0,1-.5,1.93,18.1,18.1,0,0,1-1,2.15,15.86,15.86,0,0,1-3.37,3.78c-.32.26-.63.51-.92.76l-.92.61c-.58.4-1.1.76-1.56,1a28.68,28.68,0,0,1-11,3.83,48.23,48.23,0,0,1-11.75.16c-6.6-.71-13.16-2.82-18.15-6.85a15.65,15.65,0,0,1-5.31-7.5A8.93,8.93,0,0,1,197,196a8.18,8.18,0,0,1,0-2c0-.33.09-.65.14-1a3.1,3.1,0,0,1,.21-.91c.2-.57.4-1.12.6-1.64.21.57.41,1.15.59,1.73l.14.43.2.43.39.84a12.79,12.79,0,0,0,2,2.87c1.42,1.61,3.08,2.63,3.72,3.52a17.49,17.49,0,0,0,5.15,4.34,27.41,27.41,0,0,0,6.14,2.67,36.74,36.74,0,0,0,12.22,1.56A37.69,37.69,0,0,0,239,207a25.06,25.06,0,0,0,7.8-4.24A18.79,18.79,0,0,0,250,199.4,21.1,21.1,0,0,0,251.76,196.17Z" transform="matrix(-1, 0, 0, 1, 380, 0)"></path><path class="cls-1" d="M210.75,183.34c14.45,1.46,33.83-.09,42.59,11.19,9.41,28.72-85.23-4.33-35.76-12.9" transform="matrix(-1, 0, 0, 1, 380, 0)"></path><path class="cls-2" d="M217.59,181.68c-.21.3-1.52.65-3.4,1.25a34.42,34.42,0,0,0-6.74,2.64,7.1,7.1,0,0,0-2.8,2.47,2.39,2.39,0,0,0-.34,1.49,3.3,3.3,0,0,0,.5,1.51,9.42,9.42,0,0,0,2.3,2.53,17.18,17.18,0,0,0,2.46,1.66,70.6,70.6,0,0,0,18.06,6.43,66.59,66.59,0,0,0,9.69,1.47,30,30,0,0,0,9.05-.51,9.62,9.62,0,0,0,3-1.24,3.4,3.4,0,0,0,1.43-1.77,5.27,5.27,0,0,0,.08-2.63,4.66,4.66,0,0,0-.17-.79l-.05-.2h0l-.89-1A21.21,21.21,0,0,0,244,190.9a39.15,39.15,0,0,0-6.9-2.41,119.11,119.11,0,0,0-14-2.4c-4.49-.57-8.69-1.11-12.39-1.9a86.3,86.3,0,0,1,13-2.12c4.69-.42,9.23-.23,11.56.39a45.51,45.51,0,0,1,13.18,5.39,23.76,23.76,0,0,1,5.16,4.61l.57.69.36.43a2,2,0,0,1,.18.23l.07.28a14.81,14.81,0,0,1,.42,1.87,11,11,0,0,1,.06,3.53,7.71,7.71,0,0,1-1.39,3.34,8.11,8.11,0,0,1-2.63,2.28,16.08,16.08,0,0,1-6,1.82,45,45,0,0,1-11.41-.27,76.18,76.18,0,0,1-19.76-5.46,37.1,37.1,0,0,1-8.2-4.77,14.34,14.34,0,0,1-3.27-3.6,6.91,6.91,0,0,1-.92-2.57,5,5,0,0,1,.42-2.85,7.54,7.54,0,0,1,3.9-3.55,20.4,20.4,0,0,1,4.84-1.49A41.49,41.49,0,0,1,217.59,181.68Z" transform="matrix(-1, 0, 0, 1, 380, 0)"></path><path class="cls-3" d="M178.4,173.56a109,109,0,0,0-4.73-13.86c-3.9-9.5-11.85-2.42-8.18,7.3,2,5.17,9.87,9.91,13.12,10.88" transform="matrix(-1, 0, 0, 1, 380, 0)"></path><path class="cls-2" d="M178.6,177.91a2.75,2.75,0,0,1-1.56-.2,19.11,19.11,0,0,1-2.91-1.27,40.77,40.77,0,0,1-5.61-3.68,15.41,15.41,0,0,1-3.15-3c-.23-.31-.44-.65-.67-1s-.39-.72-.58-1.08a15.93,15.93,0,0,1-.81-2.22,13.59,13.59,0,0,1-.49-4.82,10,10,0,0,1,1.63-4.82,6.57,6.57,0,0,1,1.8-1.76,5.13,5.13,0,0,1,2.7-.84,5.24,5.24,0,0,1,2.7.73,7.19,7.19,0,0,1,1.82,1.56,11.64,11.64,0,0,1,2,3.51c.4,1.07.77,2.13,1.1,3.17a51.41,51.41,0,0,1,2.4,11.22c-2.27-2.32-5-6.91-5.45-8.77-.19-.94-.4-1.86-.64-2.76s-.48-1.81-.75-2.56c-.56-1.51-1.53-2.89-2.73-3.17a2.19,2.19,0,0,0-1.77.34,4.43,4.43,0,0,0-1.36,1.54,8.16,8.16,0,0,0-.89,4.1,12.16,12.16,0,0,0,.81,4,10.79,10.79,0,0,0,1.9,3.18,34.72,34.72,0,0,0,5.21,4.69c.85.62,2,1.55,3,2.33S178.27,177.71,178.6,177.91Z" transform="matrix(-1, 0, 0, 1, 380, 0)"></path><path class="cls-3" d="M182.67,176.06c3.79-14.74-10.24-24.16-6.95-31.73,1.85-4.24,8-2.16,8.38,1.69.77,8.46-2.95,26.56-1.58,31" transform="matrix(-1, 0, 0, 1, 380, 0)"></path><path class="cls-2" d="M182.49,177.07a4,4,0,0,1-.65-2.13,31,31,0,0,1-.08-4.52c.13-3.41.5-7.24.54-9.38.08-3.78.32-7.82.26-11.78l-.05-1.47-.12-1.43,0-.18,0-.1a1.42,1.42,0,0,1,0-.2,3.2,3.2,0,0,0-.16-.39c-.06-.12-.16-.24-.23-.37l-.32-.34a3.57,3.57,0,0,0-1.73-.85,2.24,2.24,0,0,0-1.55.23,2.16,2.16,0,0,0-.79,1,4.54,4.54,0,0,0-.3,1.7,11.16,11.16,0,0,0,1.07,4c1.22,2.84,2.87,5.73,4.06,8.7a26.8,26.8,0,0,1,2.11,8.93,19,19,0,0,1-1.24,7.68,43.06,43.06,0,0,0-1.46-7.6c-.78-2.51-1.8-4.69-2.15-5.95a55.22,55.22,0,0,0-2.81-7.38c-1-2.41-2.17-4.81-2.42-7.52a7.26,7.26,0,0,1,.72-4,4.62,4.62,0,0,1,3.23-2.47,5.81,5.81,0,0,1,6.29,3.46,5.34,5.34,0,0,1,.35,1.79c0,.54.09,1.08.09,1.61,0,1.06,0,2.1,0,3.12,0,2-.16,4-.31,5.88-.29,3.76-.69,7.25-1.13,10.48-.17,1.53-.58,3.61-.86,5.44A18,18,0,0,0,182.49,177.07Z" transform="matrix(-1, 0, 0, 1, 380, 0)"></path><path class="cls-3" d="M185.56,182.61c2-3.2,9-21.06,5.23-33.32-3.84-12.42,5.56-17.72,8.92-9.54,3.07,7.46-5,12.35-6.72,17.57-1.18,8.73-5,16.66-6.14,25.35" transform="matrix(-1, 0, 0, 1, 380, 0)"></path><path class="cls-2" d="M186.82,182.66a8.87,8.87,0,0,1,.11-2.95,56.29,56.29,0,0,1,1.23-6c1.16-4.46,2.64-9.43,3-12.25.2-1.24.38-2.51.5-3.78l.06-.57a3.27,3.27,0,0,1,.2-.66,8.8,8.8,0,0,1,.41-1.05,19.62,19.62,0,0,1,1-1.92c1.5-2.4,3.27-4.49,4.32-6.73a8.87,8.87,0,0,0,.9-3.31,7.51,7.51,0,0,0-.67-3.2,4.87,4.87,0,0,0-1.81-2.27,1.85,1.85,0,0,0-1.95,0,4,4,0,0,0-1.48,1.69,8.13,8.13,0,0,0-.76,2.63,15.48,15.48,0,0,0,.59,5.92c.12.45.28,1.11.42,1.68s.31,1.18.37,1.77a27.87,27.87,0,0,1,.35,3.49,39.63,39.63,0,0,1-.29,6.68,57.48,57.48,0,0,1-2.92,11.76c-.63,1.77-1.32,3.43-2.05,5a29.61,29.61,0,0,1-2.39,4.31c.36-1.44.65-3.08,1-4.87s.67-3.67,1-5.5c.62-3.65,1-7,1.43-8.79a34.3,34.3,0,0,0,.93-10.38,18.13,18.13,0,0,0-.34-2.47c-.08-.4-.16-.8-.25-1.21s-.2-.86-.31-1.29a19.65,19.65,0,0,1-.44-5.28,11.29,11.29,0,0,1,1.44-5,5.75,5.75,0,0,1,4.32-3,4.59,4.59,0,0,1,2.66.63,6.58,6.58,0,0,1,1.89,1.74,10.1,10.1,0,0,1,1.78,4.43,9.71,9.71,0,0,1-.48,4.62,17.88,17.88,0,0,1-2,3.86c-1.53,2.33-3.27,4.34-4.25,6.43l-.29.76a1.6,1.6,0,0,0-.05.29l-.07.48c-.08.63-.19,1.25-.31,1.87-.22,1.24-.5,2.43-.79,3.6-.6,2.33-1.3,4.53-2,6.63s-1.66,4.68-2.46,7.06S187,182,186.82,182.66Z" transform="matrix(-1, 0, 0, 1, 380, 0)"></path><path class="cls-3" d="M186.19,179.9c2-3.36,8.63-12,9.53-20.79.77-7.47,6.6-11.63,8.46-8.41,4.52,7.8-14.37,11.91-15.1,27.31" transform="matrix(-1, 0, 0, 1, 380, 0)"></path><path class="cls-2" d="M189.05,178c-.27-.28-.39-3.14.79-6.21a28.63,28.63,0,0,1,4.65-7.65,52.39,52.39,0,0,1,3.67-4.13,47.91,47.91,0,0,0,3.67-4,6.9,6.9,0,0,0,1.12-2,2.52,2.52,0,0,0,0-1.67,1.9,1.9,0,0,0-.18-.42l-.11-.21c0-.08-.08-.16-.1-.15s-.1-.12-.14-.1a1.77,1.77,0,0,0-1,.39,7.91,7.91,0,0,0-2.35,2.84,12.77,12.77,0,0,0-1.27,3.78l-.36,2.28c-.15.81-.35,1.6-.56,2.37a32.07,32.07,0,0,1-1.64,4.35,57.09,57.09,0,0,1-8.58,12.68,35.47,35.47,0,0,1,2.12-7.06,45.3,45.3,0,0,1,2.4-5.62,26.51,26.51,0,0,0,2.94-6.5,16.6,16.6,0,0,0,.39-1.66c.13-.61.25-1.22.37-1.81a17.53,17.53,0,0,1,1.28-3.47,13.13,13.13,0,0,1,2-3,7.49,7.49,0,0,1,3-2.07,5.22,5.22,0,0,1,1-.2,3.12,3.12,0,0,1,1.05.13,2.88,2.88,0,0,1,1.62,1.29,5.33,5.33,0,0,1,.84,3.4,7.08,7.08,0,0,1-1.22,3.09,17.7,17.7,0,0,1-1.9,2.32c-1.32,1.41-2.65,2.63-3.89,3.85a41.59,41.59,0,0,0-6.15,7.18,27.73,27.73,0,0,0-2.33,4.37c-.33.78-.56,1.55-.76,2.17S189.11,177.76,189.05,178Z" transform="matrix(-1, 0, 0, 1, 380, 0)"></path><path class="cls-3" d="M193.58,170.61c6.3-.34,9.71-4.5,15.1-10.48,3.2-3.82,6.4,3.31,4.77,7.22-4.39,10.35-11.08,6.84-16.81,13.27" transform="matrix(-1, 0, 0, 1, 380, 0)"></path><path class="cls-2" d="M196.62,180.6c0-.18.27-.66.81-1.34.3-.31.67-.65,1.07-1a17,17,0,0,1,1.43-1c2.1-1.32,4.7-2.18,5.89-3a14,14,0,0,0,2.92-2.31c.21-.21.39-.47.59-.7a5.32,5.32,0,0,0,.56-.76l.52-.79.45-.85a18.1,18.1,0,0,0,.81-1.79c.05-.14.14-.32.18-.43s.06-.21.09-.34a5.63,5.63,0,0,0,.11-.75,7.18,7.18,0,0,0-.59-3.18,4.13,4.13,0,0,0-.63-1,1.78,1.78,0,0,0-.26-.25,0,0,0,0,0,0,0l-.05,0-.14.13-.2.22-.61.66A63.67,63.67,0,0,1,204.7,167a18.42,18.42,0,0,1-5.55,3.49,12,12,0,0,1-5.54.71,32.09,32.09,0,0,0,4.49-3.2,41.15,41.15,0,0,1,3.18-2.9,32.13,32.13,0,0,0,4.3-3.4c.67-.6,1.32-1.22,1.95-1.83a12.19,12.19,0,0,1,1.07-1,3.26,3.26,0,0,1,1.68-.69,2.68,2.68,0,0,1,1.72.46,4.35,4.35,0,0,1,1.12,1.1,8.41,8.41,0,0,1,1.14,2.46,9.23,9.23,0,0,1,.09,5.05c-.14.44-.31.76-.46,1.12l-.47,1c-.36.67-.71,1.33-1.12,2a13.44,13.44,0,0,1-3,3.23,16.48,16.48,0,0,1-3.55,2c-1.18.47-2.28.84-3.32,1.21s-2.3.83-3.45,1.4A26.84,26.84,0,0,0,196.62,180.6Z" transform="matrix(-1, 0, 0, 1, 380, 0)"></path><path class="cls-3" d="M179.85,178.5c-24.33-21.51,37.43-7.5,4,.17" transform="matrix(-1, 0, 0, 1, 380, 0)"></path><path class="cls-2" d="M183.81,178.64c.11-.36,1.81-.88,3.7-1.61a12.64,12.64,0,0,0,4.65-2.63,2.26,2.26,0,0,0,.56-1.05.86.86,0,0,0-.21-.67,6.26,6.26,0,0,0-2.3-1.58,24,24,0,0,0-6.51-1.79,22,22,0,0,0-5.52-.13,5.14,5.14,0,0,0-1.93.58,1,1,0,0,0-.34.28.74.74,0,0,0-.11.48,4.48,4.48,0,0,0,.59,1.91,16.72,16.72,0,0,0,1.21,2c.88,1.32,1.81,2.51,2.63,3.61a11.5,11.5,0,0,1-4.77-1.94,9.74,9.74,0,0,1-2-1.79,5,5,0,0,1-1-1.89,5.43,5.43,0,0,1,.27-3.69,4.19,4.19,0,0,1,1.24-1.44,5.59,5.59,0,0,1,1.42-.72,13.57,13.57,0,0,1,5-.43,34.87,34.87,0,0,1,8.45,1.68,17,17,0,0,1,3.65,1.66,6.87,6.87,0,0,1,1.59,1.34,3.57,3.57,0,0,1,.92,2.21,3.47,3.47,0,0,1-.84,2.23,6.36,6.36,0,0,1-1.46,1.28,11.78,11.78,0,0,1-3,1.4A19.2,19.2,0,0,1,183.81,178.64Z" transform="matrix(-1, 0, 0, 1, 380, 0)"></path><path class="cls-1" d="M184.31,204c-11.56-5.89-34.51-17.15-27.42-34.66a8.32,8.32,0,0,1,6.24-5.06c13.6-2.43,32.87-1.63,41.32,10.21,8.26,12.38-4.81,30-17.89,29.76" transform="matrix(-1, 0, 0, 1, 380, 0)"></path><path class="cls-2" d="M186.56,204.18c.29-.27,1.8-.33,3.88-1a21.37,21.37,0,0,0,7.05-3.9,23.73,23.73,0,0,0,5.84-7.17,17.51,17.51,0,0,0,2.08-7.1,14.25,14.25,0,0,0-2.58-9.18,21.48,21.48,0,0,0-8.05-6.28c-6.42-3-14-3.74-21-3.45a73.61,73.61,0,0,0-9.18,1l-.56.09-.49.09a6.25,6.25,0,0,0-.74.21,4.9,4.9,0,0,0-1.33.72,5.31,5.31,0,0,0-1.84,2.38,17.29,17.29,0,0,0-1,3.75,14,14,0,0,0,0,3.72,16.09,16.09,0,0,0,1.08,3.59,20.47,20.47,0,0,0,1.92,3.36,34.48,34.48,0,0,0,5.31,5.82,70,70,0,0,0,6.06,4.8c4.1,2.92,8.14,5.35,11.7,7.63a55.73,55.73,0,0,1-14.23-4.44A41.58,41.58,0,0,1,163.8,195a22.16,22.16,0,0,1-4.29-3.86,29.17,29.17,0,0,1-4.42-7.26,18.07,18.07,0,0,1-.71-12.25,15.07,15.07,0,0,1,.63-1.86l.36-.9a8.24,8.24,0,0,1,.47-.94,9.89,9.89,0,0,1,6.41-4.8c.69-.15,1.23-.2,1.81-.29l1.73-.23c1.15-.1,2.28-.26,3.42-.32s2.25-.16,3.37-.19,2.23-.05,3.33,0a59.63,59.63,0,0,1,12.74,1.39,33.19,33.19,0,0,1,11.24,4.7,23.65,23.65,0,0,1,4.48,3.91,15.51,15.51,0,0,1,1.82,2.35,11.94,11.94,0,0,1,.73,1.3,11.57,11.57,0,0,1,.6,1.35,17.6,17.6,0,0,1,.49,11.1,23,23,0,0,1-4.83,9,21.37,21.37,0,0,1-3.91,3.56,20.82,20.82,0,0,1-5.07,2.65A16.07,16.07,0,0,1,186.56,204.18Z" transform="matrix(-1, 0, 0, 1, 380, 0)"></path></svg>