<svg xmlns="http://www.w3.org/2000/svg" viewBox="0 0 380 600"><defs transform="matrix(-1, 0, 0, 1, 380, 0)"><style>.cls-1{isolation:isolate;}.cls-2{fill:#f60;}.cls-3,.cls-6{opacity:0.3;}.cls-4{opacity:0.5;}.cls-5{fill:#fffffe;}.cls-7{fill:#172e35;}.cls-8{fill:#b8c7cc;}.cls-9{mix-blend-mode:multiply;}.cls-10{opacity:0.3;}.cls-11{fill:#fff;}</style></defs><g class="cls-1" transform="matrix(-1, 0, 0, 1, 380, 0)"><g id="Art"><path class="cls-2 color-helmet" d="M86.75,263.005c3.859-13.871,9.33-28.867,13.723-35.147a76.735,76.735,0,0,1,7.694-9.293c-.955-6.066-3.736-10.615-8.165-12.261-9.1-3.383-21.695,6.77-28.125,22.677s-4.261,31.544,4.842,34.927C79.789,265.049,83.256,264.645,86.75,263.005Z" style="" /><path d="M86.776,263.06c-.154.385-1.536,1.42-4.02,2.07a11.807,11.807,0,0,1-4.432.278,8.96,8.96,0,0,1-2.528-.686l-1.271-.558c-.4-.245-.785-.513-1.183-.779a7.153,7.153,0,0,1-.587-.417l-.525-.491a12.735,12.735,0,0,1-1.027-1.025,15.465,15.465,0,0,1-1.661-2.358,21.462,21.462,0,0,1-2.12-5.135,38.584,38.584,0,0,1-1.174-8.906,49.472,49.472,0,0,1,6.04-24.384,46.965,46.965,0,0,1,7.8-10.767c.764-.824,1.658-1.549,2.485-2.319.918-.7,1.776-1.442,2.768-2.062a24.392,24.392,0,0,1,6.419-3.088,16.612,16.612,0,0,1,7.556-.407,13.961,13.961,0,0,1,6.971,3.615,17.766,17.766,0,0,1,4.061,6.011,23.466,23.466,0,0,1,1.077,3.181l.105.4.055.219.068.34.272,1.354c.178.9.319,1.806.478,2.7l-2.489,2.582-1.291,1.381q-1.149,1.253-2.229,2.533a54.348,54.348,0,0,0-3.908,5.114,96.205,96.205,0,0,0-5.838,11.213c-3.45,7.554-6.3,14.646-8.8,20.643a59.771,59.771,0,0,1,.847-16.078c.977-5.659,2.63-10.878,4.115-13.391q1.409-2.445,2.977-4.815a43.851,43.851,0,0,1,3.461-4.488q1.769-2.043,3.595-3.915.912-.939,1.832-1.837l.23-.224c.082-.079.159-.154.176-.165l.207-.167.432-.352a4.218,4.218,0,0,0-.033-.7l-.02-.184a1.559,1.559,0,0,0-.042-.248l-.155-.715a18.056,18.056,0,0,0-.884-2.72,10.82,10.82,0,0,0-3.153-4.282A7.842,7.842,0,0,0,99.2,207.8l-1.222-.369-1.277-.146a12.655,12.655,0,0,0-5.146.918,25.264,25.264,0,0,0-8.641,6.234,42.035,42.035,0,0,0-6.052,8.408,52.818,52.818,0,0,0-6.04,17.987,41.565,41.565,0,0,0-.29,8.543,23.426,23.426,0,0,0,1.725,7.547,15.8,15.8,0,0,0,2.481,3.872l.925.828a7.1,7.1,0,0,0,1.04.716,7.726,7.726,0,0,0,2.339,1.045,12.131,12.131,0,0,0,4.757.285A21,21,0,0,0,86.776,263.06Z" /><path class="cls-2 color-helmet" d="M101.13,224.988c7.577-10.464,17.9-19.141,29.859-25.916a15.979,15.979,0,0,0-5.609-4.51c-13.54-6.406-33.52,9.172-44.625,34.794-9.491,21.9-9.42,44.033-.75,54.008C82.939,267.1,93.87,235.016,101.13,224.988Z" style="" /><path d="M101.179,225.024a6.5,6.5,0,0,1-.781,1.94c-.266.476-.509,1.088-.831,1.742s-.684,1.38-1.031,2.2c-1.486,3.216-3.282,7.562-5.033,12.295a226.2,226.2,0,0,0-8.216,26.666c-.539,2.519-1.084,5.07-1.648,7.7-.173.848-.364,1.679-.534,2.587q-.251,1.392-.507,2.809-.519,2.888-1.058,5.895a6.1,6.1,0,0,1-.981-.395L79,286.531c-.552-.673-1-1.272-1.462-1.885-.458-.633-.954-1.2-1.395-1.9a22.7,22.7,0,0,1-2.555-4.656c-.375-.922-.783-1.82-1.142-2.786a15.013,15.013,0,0,1-.458-1.533l-.328-1.265A53.158,53.158,0,0,1,70.32,256.7a88.718,88.718,0,0,1,7.373-29.956,86.734,86.734,0,0,1,9.179-16.319,64.911,64.911,0,0,1,12.8-13.528A41.825,41.825,0,0,1,107.707,192a27.14,27.14,0,0,1,9.314-2.477,21.733,21.733,0,0,1,4.966.265,19.586,19.586,0,0,1,4.724,1.556c.379.174.725.368,1.1.579.517.3,1.05.635,1.541.983a19.2,19.2,0,0,1,2.642,2.277c.779.8,1.411,1.617,2.066,2.423l.977,1.222.5.623c.121.189.211.363.316.544l-4.514,2.532-2.181,1.244c-.367.212-.7.391-1.087.63l-.59.35c-1.532.9-3.025,1.815-4.462,2.76-2.885,1.878-5.589,3.83-8.1,5.828a94.89,94.89,0,0,0-12.858,12.314c1.814-5,5.8-11.479,10.919-17.011a72.825,72.825,0,0,1,8.026-7.51c.682-.537,1.344-1.076,2.015-1.56a9.941,9.941,0,0,0,1.314-1.007.108.108,0,0,0-.091-.105c-.031,0,.025.009.089-.043a.162.162,0,0,0,.057-.158.259.259,0,0,0-.012-.052c-.051-.04-.221-.15-.329-.215-.243-.16-.508-.274-.763-.414a11.082,11.082,0,0,0-3.341-1.1,15.421,15.421,0,0,0-3.7-.091,21.6,21.6,0,0,0-3.813.811A37.366,37.366,0,0,0,98.724,205.8a66.064,66.064,0,0,0-10.231,12.415,81.249,81.249,0,0,0-7.136,13.747,76.332,76.332,0,0,0-6.03,27.988,52.318,52.318,0,0,0,.342,6.668c.071,1.1.339,2.147.5,3.21a13.659,13.659,0,0,0,.346,1.56l.275,1.052c.164.546.376,1.059.556,1.564.246.479.437.966.708,1.4a8.467,8.467,0,0,0,.849,1.212l.23.275.114.136.056.068c.012-.009.014-.06.021-.089l.138-.793c.244-1.413.534-2.7.823-3.907l.107-.437.269-1q.27-1,.537-1.99c.357-1.321.753-2.614,1.127-3.9q2.315-7.712,5.029-14.7a118.708,118.708,0,0,1,7.093-15.189c1.384-2.468,2.748-4.724,3.97-6.468A40.049,40.049,0,0,1,101.179,225.024Z" /><g class="cls-3"><path d="M84.156,254.606q-3.531-1.5-6.981-3.188a2.726,2.726,0,0,1-1.877-3.363,85.1,85.1,0,0,1,3.007-17.374l5.96,2.033a1.863,1.863,0,0,1,1.61,2.332q-.37,6.755-1.33,13.461c-.09.635-.338,1.424-.977,1.482" /><path d="M83.566,249.966c.047-.069.2-.13.327-.308a1.952,1.952,0,0,0,.3-.861c.074-.847.171-1.962.275-3.159.216-2.413.414-5.153.4-6.685,0-.864-.007-1.746-.011-2.657-.009-.835.048-2.144-.141-2.133a.514.514,0,0,0-.172-.108,3.375,3.375,0,0,0-.47-.172l-1.385-.413-2.828-.868c-.658-.21-.475-.135-.565-.153-.053-.024-.051.04-.05.086v.057l-.163.689q-.154.7-.306,1.385A131.813,131.813,0,0,0,76.6,248.409a3.145,3.145,0,0,0,.023,1.075c.044.184.161.356.512.6.327.23.83.481,1.262.717l1.3.712c1.7.941,3.255,1.848,4.624,2.7a25.848,25.848,0,0,1-5.638-.933c-.491-.129-.973-.266-1.431-.408a8.936,8.936,0,0,1-1.358-.5,3.812,3.812,0,0,1-1.367-1.064,3.035,3.035,0,0,1-.6-1.388,7.328,7.328,0,0,1,.149-2.4q.171-.988.339-1.954.361-1.923.709-3.761.723-3.668,1.52-6.98.206-.828.405-1.637.233-.9.46-1.781.147-.541.292-1.078l.072-.268a1.051,1.051,0,0,1,.039-.13l.13.043.519.171,1.894.623,2.874.916,1.4.443a4.263,4.263,0,0,1,.783.34,2.305,2.305,0,0,1,.758.7,2.347,2.347,0,0,1,.349.961,4.732,4.732,0,0,1,.036.82q-.026.692-.052,1.362-.059,1.336-.151,2.6c-.122,1.685-.294,3.276-.526,4.788a33.137,33.137,0,0,1-.846,3.917,7.64,7.64,0,0,1-.6,1.763A1,1,0,0,1,83.566,249.966Z" /></g><path class="cls-2 color-helmet" d="M83.643,251.943c9.331-97.583,156.472-98.184,206.814-44.146,39.483,42.383,42.279,108.954,6.263,117.246-25.275,5.82-40.23-45.667-39.464-70.775-43.219,10.149-119.393,12.245-156.521-14.681a73.055,73.055,0,0,0-8.28-5.707c-2.664,4.262-7.787,13.6-8.812,18.063" style="" /><path d="M83.584,251.93a20.891,20.891,0,0,1,1.892-6.176c.676-1.608,1.539-3.467,2.582-5.531.528-1.042,1.074-2.093,1.717-3.267.729-1.33,1.528-2.712,2.4-4.165,1.971,1.095,4.413,2.627,6.1,3.782.928.636,1.866,1.307,2.8,2.061.356.306.91.621,1.374.944l1.468.971a90.476,90.476,0,0,0,13.381,6.97,146.923,146.923,0,0,0,32.15,8.887c5.608.924,11.226,1.612,16.709,2.112,5.487.469,10.838.748,15.918.9,10.165.242,19.239-.08,26.217-.573,7.763-.537,15.636-1.369,23.688-2.527,4.029-.561,8.093-1.26,12.213-2.015,2.054-.408,4.13-.794,6.207-1.26l1.57-.338c.92-.191,1.778-.4,2.676-.606l5.381-1.231q0,2.1-.01,4.2.038,2.051.074,4.107c.1,1.609.228,3.222.405,4.84.357,3.236.866,6.482,1.492,9.719A126.338,126.338,0,0,0,267.3,292.89a79.688,79.688,0,0,0,8.783,17.656,36.485,36.485,0,0,0,6.224,7.1,17.876,17.876,0,0,0,7.589,4.025,11.8,11.8,0,0,0,2.025.294c.677.076,1.365-.034,2.046-.02.687-.105,1.363-.222,2.061-.349l2.192-.654a25.958,25.958,0,0,0,7.885-4.321A29.666,29.666,0,0,0,312,309.707a39.217,39.217,0,0,0,3.8-8.547,60.766,60.766,0,0,0,2.4-18.985,92.706,92.706,0,0,0-2.487-19.1,117.694,117.694,0,0,0-17.849-39.7c-1.011-1.506-2.14-2.926-3.2-4.392-1.094-1.441-2.268-2.817-3.393-4.229-1.171-1.372-2.391-2.7-3.58-4.052-1.232-1.28-2.437-2.561-3.75-3.753a81.509,81.509,0,0,0-8.192-6.764,97.635,97.635,0,0,0-8.92-5.8,139.524,139.524,0,0,0-39.377-14.973,169.554,169.554,0,0,0-40.743-4.031,146.367,146.367,0,0,0-38.512,5.862,102.764,102.764,0,0,0-32.581,16.113A76.852,76.852,0,0,0,93.8,222.725a85.082,85.082,0,0,0-9.025,29.327A83.251,83.251,0,0,1,86.155,237.5a74.853,74.853,0,0,1,14.426-32.148,84.166,84.166,0,0,1,13.379-13.568,103.612,103.612,0,0,1,31.284-16.878,119.6,119.6,0,0,1,25.351-5.693,174.964,174.964,0,0,1,52.477,2.52c16.787,3.38,32.793,9.052,46.937,17.434a99.348,99.348,0,0,1,19.351,14.79,123.677,123.677,0,0,1,32.21,60.622,92.19,92.19,0,0,1,1.873,22.063c-.006.917-.1,1.831-.174,2.743s-.135,1.826-.252,2.733c-.276,1.81-.474,3.625-.9,5.4-.327,1.8-.858,3.545-1.359,5.3-.259.872-.613,1.717-.915,2.575l-.474,1.28-.574,1.242c-.4.819-.724,1.672-1.19,2.458l-1.363,2.37a35.551,35.551,0,0,1-3.289,4.364,28.925,28.925,0,0,1-8.5,6.756,18.646,18.646,0,0,1-2.458,1.144l-1.248.526c-.415.177-.858.269-1.285.407-.867.244-1.71.529-2.6.732-.917.133-1.821.358-2.749.4a19.181,19.181,0,0,1-10.625-2.418,30.174,30.174,0,0,1-8.1-6.721,55,55,0,0,1-5.894-8.3,80.345,80.345,0,0,1-4.475-8.9c-1.324-3.013-2.463-6.074-3.483-9.149A131.165,131.165,0,0,1,256.847,273c-.563-3.111-.979-6.232-1.274-9.354-.071-.782-.153-1.56-.193-2.344l-.128-2.153-.04-1.2v-1.1c-.537.087-1.133.254-1.686.375l-1.079.233-1.769.367c-2.355.492-4.707.917-7.049,1.33-4.683.829-9.341,1.47-13.957,2.055-9.237,1.1-18.324,1.819-27.246,2.09a256.148,256.148,0,0,1-51.3-3.138,158.992,158.992,0,0,1-16.149-3.555,126.907,126.907,0,0,1-17.009-6.008,88.433,88.433,0,0,1-14.935-8.279l-1.576-1.145c-.519-.4-1.018-.695-1.545-1.173-.885-.788-1.8-1.51-2.7-2.187l-1.327-.979-1.129-.811c-.724-.5-1.451-1.028-2.145-1.451-.691,1.051-1.327,2.08-1.922,3.071-.657,1.094-1.258,2.132-1.806,3.1-1.095,1.938-1.987,3.613-2.713,5.056A36.37,36.37,0,0,0,83.584,251.93Z" /><g class="cls-3"><path d="M210.188,236.6l6.319-17.743a5.147,5.147,0,0,1,1.732-2.766,4.9,4.9,0,0,1,3.419-.345A50.462,50.462,0,0,1,240.99,223a51.083,51.083,0,0,1,8.649-9.049,55.521,55.521,0,0,1,20.727,15.521l-7.407,9.6c-1.037,1.343-2.189,2.766-3.826,3.214-2.022.552-4.089-.552-5.895-1.616l-9.507-5.6a3.7,3.7,0,0,0-2.537-.745,3.53,3.53,0,0,0-1.759,1.268,41.194,41.194,0,0,0-7.089,11.177,90.17,90.17,0,0,0-25.432-8.631" /><path d="M206.918,238.111c.687-.112,7.025.855,14.026,3.246,1.748.591,3.541,1.25,5.3,1.974.877.364,1.75.729,2.6,1.115l1.267.576,1.147.538.751.361.046.022a.191.191,0,0,0,.02-.043l.038-.092.075-.181.159-.371q.232-.507.458-.993l.54-1.082c.719-1.4,1.441-2.619,2.073-3.616a40.289,40.289,0,0,1,3.237-4.43,7.36,7.36,0,0,1,1.08-1.107,3.063,3.063,0,0,1,1.794-.7,6.048,6.048,0,0,1,3.081,1.084l9.819,5.568c1.58.886,3.224,1.5,4.467,1.059,1.277-.392,2.354-1.859,3.5-3.392l6.165-8.132c.268.313-.9-1.023-1.624-1.762-.8-.829-1.609-1.628-2.442-2.387a55.664,55.664,0,0,0-8.6-6.483c-1.52-.937-3.089-1.781-4.68-2.556-.4-.194-.794-.389-1.2-.565l-.141-.064h0s0,0-.006,0l-.49.418-.98.872a50.847,50.847,0,0,0-3.657,3.7q-.861.964-1.666,1.964l-1.442,1.862-.2.254-.1.127a.69.69,0,0,1-.135-.076l-.547-.34-1.09-.679-.772-.47-.544-.323-1.1-.622q-1.105-.6-2.228-1.152c-1.5-.727-3.016-1.373-4.544-1.938a51.006,51.006,0,0,0-9.19-2.451,4.958,4.958,0,0,0-1.881-.032,1.822,1.822,0,0,0-1.149.887,10.61,10.61,0,0,0-.843,1.884l-.8,2.087c-2.122,5.513-4.115,10.578-5.93,15.063.868-4.288,2.5-10.443,4.19-16.22.214-.722.427-1.439.636-2.146a8.2,8.2,0,0,1,1.02-2.321,4.143,4.143,0,0,1,2.435-1.69,7.122,7.122,0,0,1,2.439-.12,34.744,34.744,0,0,1,6.273,1.264,54.377,54.377,0,0,1,7.081,2.756c1.126.54,2.229,1.1,3.3,1.707.535.3,1.066.608,1.586.927l.778.479c.153.1.173.124.272.193l.125.09c.04.021.064-.054.1-.077l.2-.225,1.132-1.33c.786-.9,1.6-1.757,2.43-2.586s1.684-1.624,2.554-2.385c.444-.39.853-.734,1.339-1.136l.984-.8c.038-.053.085-.04.135-.007l.144.066.288.132.575.264.833.387.758.381c.507.247,1,.508,1.5.778.988.526,1.95,1.083,2.886,1.663a58.386,58.386,0,0,1,10.09,7.851c.742.718,1.454,1.456,2.146,2.2l1.016,1.127,1.276,1.493-5.456,7.109q-1.265,1.656-2.5,3.276a8.758,8.758,0,0,1-3.223,2.85,5.7,5.7,0,0,1-4.338-.078,23.963,23.963,0,0,1-3.535-1.823l-6.485-3.752-1.579-.915c-.528-.3-1.044-.625-1.5-.825a1.759,1.759,0,0,0-1.193-.173,2.584,2.584,0,0,0-1.052.79,41.275,41.275,0,0,0-4.059,5.37q-.887,1.4-1.644,2.827-.378.715-.727,1.436-.5,1.1-1,2.194l-.064.142a.789.789,0,0,1-.134-.062l-.271-.138-.542-.276-1.075-.55-1.5-.741c-.944-.455-1.882-.9-2.819-1.314a118.513,118.513,0,0,0-11.138-4.332C211.436,239.205,208.034,238.383,206.918,238.111Z" /></g><g class="cls-3"><path d="M177.394,261.222A121.42,121.42,0,0,1,180.765,240l16.972,1.655c1.547.151,3.336.453,4.085,1.814a4.847,4.847,0,0,1,.306,2.774l-1.415,16.414" /><path d="M200.69,262.65c-.426-.545.378-9.644.411-13.173q.021-1.168.042-2.375a17.094,17.094,0,0,0-.008-2.274,1.633,1.633,0,0,0-.746-1.288,4.6,4.6,0,0,0-1.855-.549l-9.863-.769-4.136-.356-2-.191-.488-.049-.121-.012c-.034,0-.009,0-.017,0h0l-.007-.007-.013.022-.007.013c0,.014,0-.021-.01.034l-.047.186q-.183.749-.365,1.484-.348,1.478-.683,2.91c-.435,1.91-.827,3.761-1.183,5.529-.713,3.538-1.276,6.751-1.776,9.469a26.646,26.646,0,0,1-.883-6.458,22.627,22.627,0,0,1,.409-5.617c.461-1.67.911-3.3,1.345-4.869l1.475-5.156,5.615.706q2.409.285,4.694.508l4.453.407c1.459.147,2.814.178,4.277.4a5.709,5.709,0,0,1,2.159.777,3.35,3.35,0,0,1,1.445,1.984,6.8,6.8,0,0,1,.127,2.156q-.068.946-.133,1.866c-.182,2.447-.386,4.753-.655,6.927A78.575,78.575,0,0,1,200.69,262.65Z" /></g><g class="cls-3"><path d="M137.307,255.205a31.575,31.575,0,0,1,3.86-14.657q-4.968-.824-9.91-1.8a6.271,6.271,0,0,1-3.444-1.457c-1.54-1.609-.974-4.217-.308-6.342l4.008-12.8-13.954-3.727L109.4,232.635a1.628,1.628,0,0,0,.949,2.583l8.214,4.344a2.134,2.134,0,0,1,1.256,3.354l-2.421,5.626" /><path d="M117.373,248.533a14.909,14.909,0,0,1,.943-2.884c.307-.779.662-1.683,1.049-2.668a4.4,4.4,0,0,0,.417-1.431,1.271,1.271,0,0,0-.632-1.092,13.192,13.192,0,0,0-1.513-.828l-1.63-.827-3.2-1.622-2.923-1.467a2.8,2.8,0,0,1-1.362-1.254,2.331,2.331,0,0,1,.021-1.718c1.194-3.065,2.448-6.1,3.768-9.269l2.011-4.766,1.025-2.4,1.485-3.413,14.336,3.667,2.195.575-3.156,10.21L128.86,231.6a8.438,8.438,0,0,0-.518,3.606,2.222,2.222,0,0,0,1.772,1.836,15.239,15.239,0,0,0,1.85.454l1.977.4,8.907,1.836-.969,1.777-.456.861-.326.641c-.317.634-.6,1.264-.863,1.889a33.047,33.047,0,0,0-1.285,3.65,34.5,34.5,0,0,0-1.215,6.66,22.492,22.492,0,0,1-.162-7.432,26.588,26.588,0,0,1,.905-4.143q.162-.5.322-.992l.326-.9c0-.1-.02-.146-.048-.16a.279.279,0,0,0-.129.041l-.008.011,0,0-.16-.025-.644-.1c-.828-.137-1.533-.274-2.085-.407L132.2,240.2c-.64-.151-1.251-.28-1.922-.463a8.555,8.555,0,0,1-2.058-.807,4.533,4.533,0,0,1-1.718-1.72,4.948,4.948,0,0,1-.586-2.228,11.391,11.391,0,0,1,.7-3.917l2.268-6.72,1.889-5.784-6.6-1.77-6.259-1.622-6.035,13.9-1.449,3.3a5.764,5.764,0,0,0-.5,1.286.524.524,0,0,0,.111.358,1.249,1.249,0,0,0,.374.3l5.774,3.145c.972.538,2.044,1.124,3.264,1.889a3.493,3.493,0,0,1,.893.841,2.083,2.083,0,0,1,.391,1.3,5.376,5.376,0,0,1-.755,2.067C118.791,245.881,117.73,247.881,117.373,248.533Z" /></g><g class="cls-3"><path d="M87.39,231.987c1.509-3.545,6.816-2.694,10.181-4.571,2.559-1.429,3.8-4.374,4.857-7.106l3.642-9.394-9.207,1.259c-.369.05-.832.2-.85.569s.773.158.468-.053" /><path d="M96.494,212.672c.026,0,.113-.027.16.123.005.182-.133.254-.251.312a.469.469,0,0,1-.57-.127.523.523,0,0,1-.061-.411.716.716,0,0,1,.177-.335,2.173,2.173,0,0,1,1.207-.49l1.3-.251c1.84-.341,3.875-.682,5.078-.983,1.15-.248,2.467-.5,4.045-.788-.723,2.138-1.479,4.375-2.237,6.62-.605,1.708-1.21,3.42-1.791,5.062a16.833,16.833,0,0,1-2.845,5.293,8.49,8.49,0,0,1-2.5,2,10.752,10.752,0,0,1-2.78.923c-1.77.358-3.338.45-4.672.751A6.691,6.691,0,0,0,89,231.01a4.007,4.007,0,0,0-1.22,1.144,3,3,0,0,1,.508-2.032,5.9,5.9,0,0,1,1.933-1.711,10.166,10.166,0,0,1,3.621-1.281,11.077,11.077,0,0,0,2.965-.517,5.64,5.64,0,0,0,2.278-1.528,15.458,15.458,0,0,0,2.768-4.9c.687-1.733,1.3-3.4,1.868-5l.793-2.251.333-1.058-.763.139-.345.057-.649.091c-.992.135-1.949.245-2.877.319a24.473,24.473,0,0,1-3.06.056c-.51-.037-.919-.008-.989.216-.084.042.112.143.233.113.062-.007.122-.026.141-.072S96.516,212.7,96.494,212.672Z" /></g><g class="cls-3"><path d="M140.445,199.1a33.675,33.675,0,0,0-20.68,4.628,36.885,36.885,0,0,1,5.172-14.715,66.843,66.843,0,0,1,17.026-1.475l2.442-6.7a2.466,2.466,0,0,1,3.028-1.95l14.681.077" /><path d="M162.114,178.993c-.326.234-3.418.331-6.992.4l-5.439.1c-1.7.066-3.513-.056-3.92.448a2.113,2.113,0,0,0-.484.94q-.224.72-.449,1.451l-.947,2.98q-.243.752-.49,1.51l-.434,1.265-.115.334-.058.167c-.025.048-.02.14-.095.114l-.7-.012-1.288-.018-.794.008-1.586.043a69.279,69.279,0,0,0-12.411,1.57c-.081.022-.039.016-.053.031l0,0-.122.209-.247.449c-.332.6-.641,1.206-.935,1.817A38.336,38.336,0,0,0,123,196.522a37.6,37.6,0,0,0-1.129,3.768l-.11.47c-.05.215-.048.19-.048.19l-.02.033a.586.586,0,0,0-.048.121.286.286,0,0,0,.066,0l.053-.009.033-.007c.016-.006-.02.013.022-.006l.182-.08a29.9,29.9,0,0,1,2.891-1.134,32.183,32.183,0,0,1,5.677-1.362,30.394,30.394,0,0,1,9.916.173c-2.192.387-5.239.894-7.99,1.648-2.759.739-5.212,1.677-6.546,2.065a27.927,27.927,0,0,0-2.935,1l-.262.109-.322.15-.629.319-1.2.608-2.145,1.124v-.148l.035-.207.069-.41.136-.806q.135-.773.268-1.539c.085-.5.206-1.009.3-1.5.047-.233.108-.516.158-.7l.123-.462q.5-1.839,1.141-3.571a41.136,41.136,0,0,1,3.032-6.463c.154-.272.262-.451.468-.788l.305-.5c.028-.037.043-.093.083-.114l.143-.03.287-.058,1.773-.349c1.094-.2,2.174-.376,3.243-.527q3.206-.448,6.25-.618c1.014-.056,2.014-.095,3-.106l1.466-.006h.638c.028,0,.066.008.084-.009l.03-.088q.856-2.471,1.661-4.79.222-.628.44-1.247a5.668,5.668,0,0,1,.634-1.375,2.675,2.675,0,0,1,1.465-1.048,5.208,5.208,0,0,1,1.481-.181c1.692.011,3.291.043,4.861.1C155.321,178.222,161,178.847,162.114,178.993Z" /></g><g class="cls-3"><path d="M245.327,183.039a78.029,78.029,0,0,0-15.962,12.7,78.5,78.5,0,0,1,14.782,9.519,66.236,66.236,0,0,1,11.793-10.763,5.687,5.687,0,0,1,2.846-1.284c2.493-.142,3.986,2.626,5.967,4.145a6.963,6.963,0,0,0,9.8-1.888" /><path d="M274.574,195.477a3.56,3.56,0,0,1-1.248,1.829,7.246,7.246,0,0,1-1.806,1.146,7.792,7.792,0,0,1-2.471.6,6.958,6.958,0,0,1-5.144-1.647,35.111,35.111,0,0,0-3.1-2.75,2.873,2.873,0,0,0-2.115-.529,5.582,5.582,0,0,0-2.148,1.212c-1.55,1.2-3.085,2.481-4.569,3.825s-2.917,2.752-4.27,4.2l-1,1.1q-.68.775-1.352,1.546l-.952,1.105c-.073.165-.174.01-.267-.051l-.282-.224-.565-.447-1.135-.893-.575-.436a93.518,93.518,0,0,0-8.257-5.508l-2.1-1.206-.525-.292-.935-.492-2-1.056-.507-.27a1.9,1.9,0,0,1-.24-.136l.208-.208.827-.826c.554-.548,1.08-1.088,1.633-1.614l.52-.493.441-.4.882-.787a61.328,61.328,0,0,1,13.586-9.1c-1.4,1.562-3.544,3.587-5.523,5.494s-3.82,3.681-4.9,4.5c-.544.406-1.074.823-1.6,1.242l-1.465,1.217a2.882,2.882,0,0,0-.49.338l.205.164.344.236,1.579.963,1.628,1.024q1.608,1.027,3.124,2.081t2.951,2.117l1.411,1.073,1.234.968.41.333.051.041c.016,0,.029-.029.044-.042l.086-.1.172-.2.951-1.059q1.132-1.237,2.283-2.385c1.53-1.533,3.08-2.947,4.634-4.254q1.168-.975,2.338-1.873a16.6,16.6,0,0,1,2.5-1.689,4.5,4.5,0,0,1,1.621-.463,4.312,4.312,0,0,1,1.691.237,7.273,7.273,0,0,1,2.462,1.716c1.3,1.3,2.278,2.546,3.592,3.079a7.238,7.238,0,0,0,4.955.209A6.541,6.541,0,0,0,274.574,195.477Z" /></g><g class="cls-3"><path d="M273.589,226.026a20.764,20.764,0,0,0-8.3-11.252c-.644-.43-1.4-.977-1.351-1.75a2.153,2.153,0,0,1,1.05-1.418l8.948-6.77a3.785,3.785,0,0,1,1.857-.923,3.674,3.674,0,0,1,2.426,1.038A55.98,55.98,0,0,1,288.6,215.474" /><path d="M288.585,215.488c-.313-.015-1.528-1.465-3.04-3.033a40.106,40.106,0,0,0-4.413-4.081c-.971-.726-1.982-1.463-3.025-2.19a9.861,9.861,0,0,0-1.475-.929,1.043,1.043,0,0,0-.957-.06,7.332,7.332,0,0,0-1.3.944l-1.545,1.24-3.041,2.415-2.611,2.035-1.3.989c-.48.38-.3.248-.344.272.008.016-.047-.017.022.058a4.584,4.584,0,0,0,.474.373l.667.489a20.031,20.031,0,0,1,2.433,2.188,18.531,18.531,0,0,1,4.87,9.707c-.971-1.1-2.144-2.613-3.322-3.892-1.152-1.3-2.285-2.38-2.763-3.062a16.24,16.24,0,0,0-3.429-3.582,6.7,6.7,0,0,1-.556-.5,3.06,3.06,0,0,1-.578-.783,1.968,1.968,0,0,1-.012-1.8,2.633,2.633,0,0,1,.554-.725,4.854,4.854,0,0,1,.568-.456c.333-.23.662-.459.99-.687,2.6-1.817,4.96-3.612,7.153-5.33.563-.429,1.045-.854,1.678-1.285a3.593,3.593,0,0,1,1.112-.506,2.762,2.762,0,0,1,1.3.008,5.641,5.641,0,0,1,1.946,1.018c.517.381,1.015.76,1.5,1.144a36.765,36.765,0,0,1,5.026,4.758A26.953,26.953,0,0,1,288.585,215.488Z" /></g><path d="M224.578,189.954a4.85,4.85,0,0,1,1.971.1,35.961,35.961,0,0,1,3.965.812c2.991.71,6.293,1.835,8.18,2.342a84.231,84.231,0,0,1,19.917,9.085,74.4,74.4,0,0,1,14.262,11.16,41.939,41.939,0,0,1,8.667,12.094,26.751,26.751,0,0,1-2.719-2.037c-1.009-.726-1.979-1.552-2.939-2.329-.991-.754-1.879-1.531-2.65-2.209a12.8,12.8,0,0,1-1.794-1.74,59.521,59.521,0,0,0-9.96-9.616,76.808,76.808,0,0,0-10.362-6.6,144.7,144.7,0,0,0-18.556-7.835c-1.322-.405-3.049-1.236-4.62-1.83C226.376,190.74,225.021,190.158,224.578,189.954Z" /><g class="cls-4"><path class="cls-5" d="M156.853,184.257c-.126.3-.959.653-2.2,1.031-.619.189-1.34.385-2.126.585s-1.62.5-2.491.745l-2.659.793c-.88.306-1.745.638-2.573.944l-2.316.9c-.691.329-1.3.636-1.808.912-.888.489-1.794.966-2.712,1.44q-1.341.8-2.719,1.578c-1.864.98-3.631,2.209-5.472,3.294-.916.551-1.769,1.208-2.658,1.8-.868.622-1.792,1.156-2.606,1.834-1.66,1.309-3.366,2.514-4.841,3.908a89.471,89.471,0,0,0-13.749,14.95,98.025,98.025,0,0,0-8.573,14.679,20.05,20.05,0,0,1-.6-9.1c.118-.8.228-1.608.415-2.348.213-.728.442-1.42.678-2.056a11.262,11.262,0,0,1,1.474-2.936,121.14,121.14,0,0,1,24.314-22.015c7.866-5.286,15.449-9.049,22.588-10.569a32.387,32.387,0,0,1,6.152-.594C154.48,184.066,156.267,184.193,156.853,184.257Z" style="" /></g><path d="M165.514,183.985a4.949,4.949,0,0,1-1.936.441c-1.072.133-2.49.238-4,.445l-2.315.273c-.775.1-1.542.24-2.275.355l-2.06.351c-.629.129-1.189.27-1.655.39l-2.506.636-2.555.711c-1.73.434-3.458,1.006-5.207,1.505-3.47,1.1-6.943,2.272-10.149,3.616a166.308,166.308,0,0,0-15.873,7.5c-4.842,2.6-9.1,5.207-12.578,7.281a25.149,25.149,0,0,1,4.4-5.779,23.422,23.422,0,0,1,2.7-2.417,13.151,13.151,0,0,1,2.192-1.457,230.61,230.61,0,0,1,24.943-10.03c7.453-2.405,14.164-3.989,20.152-4.343a39.672,39.672,0,0,1,5.08.093C163.573,183.722,165.035,183.911,165.514,183.985Z" /><ellipse class="cls-2 color-helmet" cx="295.334" cy="265.962" rx="26.93" ry="50.898" style="" transform="translate(-27.654 34.366) rotate(-6.362)" /><path d="M322.009,262.6c-.611-.925-1.76-10.569-5.833-20.859a60.87,60.87,0,0,0-8-14.576,28.187,28.187,0,0,0-9.973-8.595,14.685,14.685,0,0,0-8.281-1.378,14.407,14.407,0,0,0-7.587,3.753,26.443,26.443,0,0,0-5.471,7.3,47.288,47.288,0,0,0-3.5,8.871,74.781,74.781,0,0,0-2.64,19.231,93.553,93.553,0,0,0,1.742,19.041,84.517,84.517,0,0,0,4.554,15.562,56.972,56.972,0,0,0,7.649,13.668c3.1,3.985,6.957,7.347,11.192,8.634a12.58,12.58,0,0,0,12.032-2.621c3.467-2.807,5.975-6.889,7.849-11.029a61.206,61.206,0,0,0,3.985-12.829,96.191,96.191,0,0,0,1.485-24.078,66.9,66.9,0,0,1,2.376,25.518,53.055,53.055,0,0,1-2.913,13.07,31.647,31.647,0,0,1-4.81,8.877,27.382,27.382,0,0,1-5.453,5.21,19.359,19.359,0,0,1-6.974,3.109,16.773,16.773,0,0,1-7.5-.1,20.813,20.813,0,0,1-6.54-2.861,35.266,35.266,0,0,1-9.317-9.428,61.16,61.16,0,0,1-6.023-11.016,91.476,91.476,0,0,1-6.224-22.842,97.716,97.716,0,0,1-.667-22.168A65.827,65.827,0,0,1,272,229.732a43.524,43.524,0,0,1,2.306-4.551,34.484,34.484,0,0,1,2.917-4.156,25.771,25.771,0,0,1,3.624-3.558,19.374,19.374,0,0,1,4.4-2.577,16.293,16.293,0,0,1,9.935-.788,20.711,20.711,0,0,1,4.545,1.691,25.957,25.957,0,0,1,3.922,2.548,42.02,42.02,0,0,1,10.733,13.565,56.822,56.822,0,0,1,3.524,8.2,73.466,73.466,0,0,1,2.513,9.315A84.838,84.838,0,0,1,322.009,262.6Z" /><ellipse class="cls-2 color-helmet" cx="310.74" cy="264.639" rx="17.377" ry="32.842" style="" transform="translate(-27.413 36.065) rotate(-6.362)" /><path d="M327.936,262.469c-.56-.58-1.382-6.774-4.053-13.347a38.823,38.823,0,0,0-5.19-9.272,17.249,17.249,0,0,0-6.344-5.324,8.923,8.923,0,0,0-5.032-.719,8.7,8.7,0,0,0-4.487,2.343c-2.64,2.477-4.34,6.254-5.433,10.126a56.96,56.96,0,0,0,2.507,34.087,36.212,36.212,0,0,0,4.78,8.56c1.913,2.477,4.262,4.5,6.676,5.252a7.148,7.148,0,0,0,6.876-1.434,18.5,18.5,0,0,0,4.907-6.718,39.538,39.538,0,0,0,2.661-8.071,64.6,64.6,0,0,0,1.329-15.39,38.232,38.232,0,0,1,2.58,16.562,32.431,32.431,0,0,1-1.681,8.688,17.965,17.965,0,0,1-7,9.443,13.5,13.5,0,0,1-4.864,2.075,11.667,11.667,0,0,1-5.189-.139,14.158,14.158,0,0,1-4.422-2,23.505,23.505,0,0,1-6.108-6.329,40.623,40.623,0,0,1-3.874-7.242,61,61,0,0,1-3.986-14.874,64.793,64.793,0,0,1-.453-14.4,43.177,43.177,0,0,1,3.095-13.279,23.833,23.833,0,0,1,3.417-5.76,14.006,14.006,0,0,1,5.374-4.137,11.055,11.055,0,0,1,6.756-.556,14.65,14.65,0,0,1,5.693,2.838,27.04,27.04,0,0,1,7.035,8.961,39.739,39.739,0,0,1,3.7,11.491A51.356,51.356,0,0,1,327.936,262.469Z" /><ellipse class="cls-2 color-helmet" cx="316.578" cy="263.625" rx="13.192" ry="24.933" style="" transform="translate(-27.264 36.706) rotate(-6.362)" /><path d="M329.637,261.977c-.417-.439-.981-5.154-3.014-10.155a29.216,29.216,0,0,0-3.932-7.067,13.258,13.258,0,0,0-4.835-4.09,6.828,6.828,0,0,0-3.895-.608,6.963,6.963,0,0,0-3.5,1.811,11.96,11.96,0,0,0-2.561,3.488,23.148,23.148,0,0,0-1.666,4.265,41.613,41.613,0,0,0-.343,18.521,39.942,39.942,0,0,0,2.215,7.518,27.907,27.907,0,0,0,3.667,6.562,11.3,11.3,0,0,0,5.206,4.066,5.291,5.291,0,0,0,2.833.135,6.609,6.609,0,0,0,1.36-.455l.636-.4.322-.191.3-.252a14.325,14.325,0,0,0,3.763-5.2,31.464,31.464,0,0,0,2.006-6.175,49.811,49.811,0,0,0,.913-11.719,30.435,30.435,0,0,1,1.68,12.545,25.42,25.42,0,0,1-1.331,6.527,14.991,14.991,0,0,1-2.406,4.464c-.391.492-.872.936-1.3,1.394-.472.434-1,.828-1.5,1.222a14.962,14.962,0,0,1-1.722.946,8.449,8.449,0,0,1-1.883.59,9.486,9.486,0,0,1-7.15-1.545,17.428,17.428,0,0,1-4.6-4.748,29.631,29.631,0,0,1-2.942-5.461,44.673,44.673,0,0,1-3.029-11.252,49.039,49.039,0,0,1-.349-10.9,32.293,32.293,0,0,1,2.363-10.033,23.83,23.83,0,0,1,1.122-2.265,17.338,17.338,0,0,1,1.463-2.064,13.492,13.492,0,0,1,1.793-1.8,10.241,10.241,0,0,1,2.229-1.288,8.372,8.372,0,0,1,5.032-.426,11.667,11.667,0,0,1,4.26,2.13,20.61,20.61,0,0,1,5.3,6.751,30.75,30.75,0,0,1,2.858,8.671c.3,1.5.417,2.918.535,4.05C329.577,260.679,329.617,261.546,329.637,261.977Z" /><path class="cls-2 color-helmet" d="M129.766,241c1.264-16.133,10.914-33.773,21-49.161,3.207-4.893,16.879-16.425,22.061-19.613,10.721-6.6,37.857-6.4,52.62-.849,6.349,2.385,9.693,4.872,12.153,9.309-24.918,15.42-41.066,37.463-46.5,64.268" style="" /><path d="M191.051,244.947a8.753,8.753,0,0,1,.175-2.142,42.123,42.123,0,0,1,.874-4.479c.228-.9.473-1.875.734-2.908s.646-2.095.994-3.22c.668-2.26,1.651-4.617,2.616-7.076a97.026,97.026,0,0,1,7.551-14.2l2.081-3.146c.72-.983,1.415-1.93,2.076-2.831l.967-1.317.964-1.2,1.713-2.155a100.1,100.1,0,0,1,12.9-13.02c2.386-2.045,4.93-3.939,7.516-5.808l.991-.672.5-.336.114-.081.051-.04.38-.3c0-.121-.169-.272-.249-.385-.058-.071-.082-.093-.164-.181-.21-.263-.451-.494-.675-.741a20.426,20.426,0,0,0-7.154-4.319c-1.388-.571-2.82-.98-4.225-1.445-1.462-.358-2.89-.786-4.382-1.05a88.987,88.987,0,0,0-17.822-1.734,84.241,84.241,0,0,0-15.128,1.24c-1.212.238-2.412.511-3.588.807a31.938,31.938,0,0,0-3.377,1.108,22.222,22.222,0,0,0-3.035,1.425c-.962.6-1.968,1.288-2.963,2.027-3.987,2.949-7.857,6.16-11.477,9.4-1.8,1.625-3.558,3.277-5.119,4.946-.408.416-.744.831-1.105,1.243-.354.437-.586.73-.936,1.24q-1,1.488-1.984,2.959a185.4,185.4,0,0,0-13.337,23.052,77.06,77.06,0,0,0-6.91,21.455,43.01,43.01,0,0,1,.309-11.079,71.282,71.282,0,0,1,3.169-12.644,88.911,88.911,0,0,1,9.175-19.119c1.211-1.8,2.44-3.552,3.663-5.289l1.861-2.6a25.87,25.87,0,0,1,2.271-2.61c1.527-1.565,3.08-2.974,4.648-4.34s3.137-2.681,4.719-3.958c3.167-2.552,6.318-4.985,9.62-7.228a22.563,22.563,0,0,1,2.609-1.584,20.292,20.292,0,0,1,2.8-1.271l1.412-.527c.47-.174.951-.278,1.424-.42.949-.267,1.891-.547,2.844-.718a68.5,68.5,0,0,1,11.256-1.441,98.343,98.343,0,0,1,10.925-.014,96.311,96.311,0,0,1,10.525,1.065,66.69,66.69,0,0,1,10.042,2.284,44.737,44.737,0,0,1,4.752,1.761,27.073,27.073,0,0,1,4.477,2.426,17.651,17.651,0,0,1,3.83,3.518,24.775,24.775,0,0,1,1.889,2.805c1.225,1.118-.466,1.57-1.2,2.242l-2.5,1.655c-.631.426-1.275.828-1.875,1.287l-3.62,2.654-3.436,2.764c-1.145.9-2.185,1.906-3.269,2.84A110.287,110.287,0,0,0,211.5,205.5a114.122,114.122,0,0,0-8.818,12.667,121.261,121.261,0,0,0-7.558,15.123l-.811,1.948-.681,1.886c-.428,1.224-.876,2.355-1.2,3.387C191.787,242.585,191.3,244.165,191.051,244.947Z" /><g class="cls-3"><path d="M153.152,196.761a94.263,94.263,0,0,1,19.118,2.922,41.825,41.825,0,0,1,11.9-13.231,58.556,58.556,0,0,0-19.677-.22,33.448,33.448,0,0,0,10.419-10.117,19.95,19.95,0,0,0-11.923,2.63l2.1.285" /><path d="M165.091,179.053a8.162,8.162,0,0,1-2.137-.032l-.786-.063.682-.453a18.528,18.528,0,0,1,5.378-2.366,20.591,20.591,0,0,1,3.428-.6,21.605,21.605,0,0,1,2.19-.059c.713.032,1.5.046,2.156.127-.511.789-.99,1.537-1.468,2.234l-.713,1.008-.479.656a30.247,30.247,0,0,1-2.545,3.02c-.553.552-1.124,1.121-1.719,1.716a4.964,4.964,0,0,1-.384.355l.761-.165.3-.063.124-.025.788-.062c1.138-.073,2.282-.121,3.424-.128s2.282.013,3.411.075c.566.024,1.128.068,1.687.109l.836.073.416.039.208.02.349.045c2.158.245,4.59.7,6.851,1.067-1.247.936-2.584,1.9-3.848,2.877l-.91.73-.455.364-.2.167-.1.092c-.275.245-.559.48-.827.731-1.088.987-2.116,2.021-3.08,3.088s-1.862,2.17-2.694,3.294c-.416.563-.814,1.132-1.2,1.7l-.594.916-1.024,1.695-3.6-.962-2.559-.635c-1.685-.4-3.325-.746-4.908-1.052-3.166-.612-6.1-1.051-8.717-1.4a37.79,37.79,0,0,1,8.859-.652,34.152,34.152,0,0,1,7.713,1.015l1.51.464.182.057c.048.016.03.016.048.025l.065.042.154.089a.733.733,0,0,0,.192-.186l.7-.989q.711-.974,1.449-1.9,1.48-1.842,3.072-3.468t3.255-3.042l.784-.651.479-.368c.328-.244.67-.493,1.021-.737.014-.015.073-.04.049-.046l-.08-.015-.159-.031-.322-.062-.659-.113-.716-.1-.953-.113c-1.45-.159-2.878-.253-4.277-.293s-2.769-.015-4.105.051l-1,.059-1.251.1c-.955.1-1.905.2-2.909.347a5.836,5.836,0,0,0-1.856-.4,2.975,2.975,0,0,0,.985-1.539c.738-.493,1.367-.98,2-1.467l.876-.739c.17-.141.24-.209.332-.293l.269-.247c.713-.664,1.389-1.339,2.02-2.032.312-.349.625-.692.918-1.047l.438-.528.374-.466c.25-.325.486-.648.722-.99a4.857,4.857,0,0,0-.8-.078,10.029,10.029,0,0,0-1.211.025,26.466,26.466,0,0,0-4.69.755,30.213,30.213,0,0,0-3.565,1.209l-.039-.194C164.449,178.893,164.862,178.994,165.091,179.053Z" /></g><g class="cls-3"><path d="M194.518,232.561a28.01,28.01,0,0,0-22.462-9.42,65.442,65.442,0,0,1,8.972-19.915,1.685,1.685,0,0,1,.943-.826,1.7,1.7,0,0,1,1.049.247l7.352,3.536A35.886,35.886,0,0,1,200.9,193.226l10.89,7.7" /><path d="M211.772,200.942c-.426-.013-3.257-1.875-6.506-4.064l-2.483-1.678-1.243-.841-.4-.264-.184-.121c-.062-.068-.117.066-.174.088q-.407.352-.79.688c-.335.288-.64.587-.935.865-.582.564-1.08,1.095-1.48,1.551a39.434,39.434,0,0,0-3.9,5.3c-.589.954-1.135,1.944-1.636,2.961-.236.449-.457.935-.689,1.4l-.347.714-.087.179c-.03.057-.11-.031-.162-.04l-.355-.164-2.439-1.129-3.225-1.474-1.608-.741-.739-.34a.157.157,0,0,0-.085-.008.109.109,0,0,0-.062.051l-.267.423c-.308.48-.613.959-.9,1.445-.591.964-1.139,1.942-1.668,2.912a71.94,71.94,0,0,0-4.592,10.483l-.445,1.328-.358,1.13c-.01.015-.063.076-.012.075l.03.011c.048,0-.1,0,.092.007l.364.017c.485.017.966.045,1.442.106a27.5,27.5,0,0,1,12.475,4.438,25.582,25.582,0,0,1,6.44,6.027,47.168,47.168,0,0,0-7.7-4.417,61,61,0,0,0-7.032-2.462,23.228,23.228,0,0,0-4.378-1.039c-.367-.059-.734-.107-1.1-.129l-.551-.046-.437-.026-.488,0-1.867-.016-.453,0c-.121.036-.016-.105-.015-.165l.069-.23.272-.907q.27-.879.536-1.749l.384-1.128c.248-.708.507-1.406.771-2.095q.8-2.066,1.671-4.02a78.453,78.453,0,0,1,3.795-7.368c.683-1.15,1.371-2.272,2.087-3.352a4.249,4.249,0,0,1,.734-.929,1.529,1.529,0,0,1,1.2-.392,2.312,2.312,0,0,1,.628.165l.293.13.214.1.847.4,3.323,1.552,1.623.753.475.215.213.095.1.047c.026-.011.036-.066.055-.1l.2-.425.316-.618c.277-.514.551-1.024.849-1.515a33.48,33.48,0,0,1,1.862-2.83,34.056,34.056,0,0,1,4.257-4.832c.374-.361.768-.693,1.149-1.032l.588-.486.817-.645.445-.345.222-.171.055-.043c.019,0,.038.024.057.035l.115.082.906.655,1.265.934C206.115,196.043,210.855,200.122,211.772,200.942Z" /></g><g class="cls-3"><path d="M204.783,170.009a63.827,63.827,0,0,0-6.806,10.2,65.935,65.935,0,0,1,20.643,4.58,31.954,31.954,0,0,1,11.516-11.119" /><path d="M230.147,173.693c-.055.312-1.667,1.327-3.346,2.728a25.788,25.788,0,0,0-4.214,4.285c-.715.978-1.415,2.01-2.072,3.09l-.6,1-.446.747-.227.379-.114.191c-.022.023-.032.086-.064.075l-.1-.034-1.587-.567-.405-.145-.241-.077-.468-.15a73.278,73.278,0,0,0-7.5-1.994c-2.141-.449-4.284-.816-6.385-1.105l-1.567-.2-.431-.052-.688-.063-1.354-.126-1.453-.147-.718-.074-.355-.037c-.1.014-.042-.053-.01-.109l.094-.164q.736-1.287,1.459-2.545.352-.584.7-1.161l.419-.632.85-1.216c.571-.79,1.15-1.535,1.728-2.233a37.66,37.66,0,0,1,3.4-3.615,35.067,35.067,0,0,1-1.816,4.9,22.641,22.641,0,0,1-2,3.859c-.364.507-.308.311-.417.4a1.5,1.5,0,0,0-.3.254c-.085.1.053.1.125.16a5.263,5.263,0,0,0,.555.153l2.4.442,2.417.481c3.163.657,6.093,1.388,8.813,2.2l2,.62,1.7.568.26.087.127.042c.043.017.049-.061.075-.087l.245-.429c.33-.528.7-1.075,1.063-1.585a25.389,25.389,0,0,1,4.844-5.119,17.313,17.313,0,0,1,3.149-1.959A20.6,20.6,0,0,1,230.147,173.693Z" /></g><path d="M181.281,248.209a7.42,7.42,0,0,1-.19-2.465c.013-.686.029-1.478.046-2.341.037-.864.191-1.788.3-2.751.125-.961.231-1.96.384-2.945.2-.976.4-1.947.588-2.874.327-1.871.808-3.517,1.091-4.716a65.633,65.633,0,0,1,4.59-12.928c1.086-2.088,2.077-4.254,3.322-6.238l1.783-3L195.1,205.1a93.554,93.554,0,0,1,15-17.084,89.322,89.322,0,0,1,15.018-10.9A72.5,72.5,0,0,1,219.439,184l-3.007,3.2a20.88,20.88,0,0,1-2.355,2.146,81.78,81.78,0,0,0-21.524,24.741,93.776,93.776,0,0,0-8.969,23.585c-.234.839-.389,1.853-.657,2.9-.228,1.049-.578,2.132-.757,3.167C181.792,245.8,181.417,247.613,181.281,248.209Z" /><path class="cls-6" d="M94.847,238.152c-24.136,23.594-19.83,85.725,24.461,76.5,38.622-8.047,57.052.333,75.049,8.612,30.758,14.148,65.357,2.947,67.74-22.9-.6-16.6-11.869-27.156-9.916-44.15-62.13,13.533-108.984,9.2-156.844-18.274" /><path d="M95.368,237.883a26.45,26.45,0,0,1,3.971,1.691c2.1.97,4.829,2.48,8.242,3.953l5.443,2.5c1.946.858,4.052,1.657,6.218,2.556q1.627.663,3.32,1.355l3.5,1.231,3.6,1.265,1.831.645c.617.2,1.249.372,1.877.562a169.766,169.766,0,0,0,31.148,6.7l3.754.472c1.238.122,2.464.187,3.664.281,2.4.157,4.715.373,6.922.455l6.262.11,2.827.037,2.6-.1,4.394-.168c1.471-.06,2.948-.082,4.428-.23l8.943-.718,9.038-1.065c3.026-.386,6.057-.913,9.108-1.361,3.055-.415,6.095-1.073,9.159-1.62l4.6-.857,4.594-1,6.862-1.455,2.087-.438,1.047-.22.525-.11.131-.028a.743.743,0,0,1,0,.125l-.01.26-.161,4.181-.1,2.167a8.182,8.182,0,0,0-.013,1.081l.027.945.038,1.08.128,1.079a35.6,35.6,0,0,0,.741,4.308c1.353,5.743,4.1,11.408,6.352,17.637a56.456,56.456,0,0,1,2.637,9.814c.119.857.315,1.7.359,2.568l.228,2.781c-.059.808-.131,1.137-.179,1.594l-.17,1.323-.546,2.621a31.067,31.067,0,0,1-4.35,9.738,34.5,34.5,0,0,1-7.135,7.694,45.609,45.609,0,0,1-18.149,8.514,65.1,65.1,0,0,1-33.514-1.533c-1.323-.446-2.667-.836-3.961-1.356l-1.954-.742-1.916-.827-7.18-3.23a117.62,117.62,0,0,0-14.125-5.337,89.111,89.111,0,0,0-28.99-3.493l-3.634.166c-1.209.059-2.415.21-3.619.309-1.2.125-2.407.19-3.6.361l-3.581.488c-2.386.277-4.742.772-7.094,1.167l-1.761.31-1.919.3a32.884,32.884,0,0,1-3.885.471,34.343,34.343,0,0,1-15.518-2.142,29.612,29.612,0,0,1-12.29-9.214,39.459,39.459,0,0,1-6.546-12.907,54.239,54.239,0,0,1-2.214-13.449,64.168,64.168,0,0,1,3.921-24.842,48.39,48.39,0,0,1,12.275-19.006,50.954,50.954,0,0,0-5.508,8.953,55.994,55.994,0,0,0-3.917,11.092,66.229,66.229,0,0,0-1.279,24.839A49.363,49.363,0,0,0,86.369,293.7a33.779,33.779,0,0,0,5.292,9.014,26.21,26.21,0,0,0,6.479,5.59,24.959,24.959,0,0,0,3.2,1.551c.515.2.991.432,1.473.59l1.4.407a30.427,30.427,0,0,0,11.331.874l2.918-.378,3.174-.5c2.122-.331,4.223-.708,6.351-.923a127.984,127.984,0,0,1,25.235-.9,93.51,93.51,0,0,1,12.28,1.664,99.281,99.281,0,0,1,11.738,3.249c3.786,1.344,7.457,2.854,11.025,4.459s7.034,3.361,10.43,4.749a62.931,62.931,0,0,0,21.334,4.64,51.353,51.353,0,0,0,20.757-3.321c6.4-2.551,12.086-6.706,15.644-12.237a26.354,26.354,0,0,0,3.628-8.967,21.768,21.768,0,0,0,.375-2.382l.068-.522c.008-.124-.018-.266-.031-.479l-.1-1.213-.1-1.21-.19-1.2c-.13-.8-.229-1.6-.433-2.385-1.315-6.349-4.2-12.251-6.43-18.471a52.326,52.326,0,0,1-2.609-9.622c-.145-.822-.2-1.661-.3-2.488a12.121,12.121,0,0,1-.106-1.247l-.03-1.1a10.335,10.335,0,0,1,0-1.282l.036-.626.017-.311.009-.154c0-.02.015-.065-.008-.064l-.078.017L243.229,260l-2.272.475-2.278.406-4.528.806-4.492.792-4.48.638c-2.978.4-5.917.9-8.866,1.155a215.688,215.688,0,0,1-34.289,1.375,174.779,174.779,0,0,1-31.813-4.1,150.521,150.521,0,0,1-16.1-4.618c-1.423-.507-2.893-.922-4.3-1.522l-4.261-1.719c-1.413-.585-2.837-1.123-4.212-1.741l-4.042-1.9L113.4,248.2c-1.261-.615-2.45-1.3-3.62-1.915-2.32-1.271-4.508-2.391-6.4-3.509Z" /><path class="cls-7" d="M175.03,238.95c-3.447.209-17.756-1.88-17.443-3.551,1.233-6.577,5.889-20.212,7.938-22.562,1.175-1.347,17.036,2,16.219,3.962-.658,3.1-4.416,17.66-6.818,22.151" style="" /><path d="M174.9,238.936a9.073,9.073,0,0,1,.625-2.272c.388-1.231.894-2.861,1.4-4.624,1.014-3.527,2.042-7.574,2.461-9.861l.455-2.462.237-1.274.119-.65.059-.328.012-.127c-.012-.121.059-.243-.038-.336a.811.811,0,0,0-.3-.171c-.02,0-.408-.166-.712-.273q-.483-.172-1-.327c-1.369-.411-2.825-.744-4.286-1.033s-2.945-.524-4.394-.681c-.722-.077-1.444-.137-2.106-.144-.157,0-.329,0-.472.008l-.2.011c-.024,0-.018,0-.028.007s-.047.021-.052.048l-.008.02a.981.981,0,0,1-.07.135l-.282.512c-.178.385-.362.741-.529,1.13-1.414,3.253-2.606,6.751-3.729,10.114-.551,1.691-1.085,3.365-1.57,5.012-.236.823-.478,1.64-.685,2.444l-.161.6a.808.808,0,0,1-.053.15c-.02.064-.081.153-.046.187a.419.419,0,0,0,.111.112,2.086,2.086,0,0,0,.354.149l.526.191c.715.248,1.464.466,2.206.67,1.489.407,2.969.756,4.4,1.075A74.682,74.682,0,0,0,175,238.382a14.341,14.341,0,0,1-3.884.934,35.76,35.76,0,0,1-4.627.268,21.828,21.828,0,0,1-7.577-1.1l-.474-.21a6.338,6.338,0,0,1-.785-.38,4.115,4.115,0,0,1-1.268-.978,1.506,1.506,0,0,1-.379-1.406q.114-.747.228-1.487a2.317,2.317,0,0,1,.128-.548l.137-.43.272-.855q.285-.843.564-1.672c.761-2.2,1.534-4.323,2.311-6.381s1.553-4.051,2.356-5.983c.4-.966.81-1.915,1.249-2.847.206-.468.456-.927.684-1.385a10.7,10.7,0,0,1,.933-1.475,2.02,2.02,0,0,1,1.5-.655,9.48,9.48,0,0,1,1.372-.024c.85.036,1.667.121,2.472.222,1.607.208,3.158.483,4.667.806a41.028,41.028,0,0,1,4.4,1.167c.358.12.714.246,1.071.4.177.07.356.146.535.233a6.186,6.186,0,0,1,.689.374,2.824,2.824,0,0,1,1.086,1.057c.241.463.032.971-.013,1.477a4.281,4.281,0,0,1-.108.568l-.088.4-.18.795q-.187.787-.371,1.56-.375,1.541-.773,3.014c-.531,1.965-1.092,3.842-1.7,5.633a45.915,45.915,0,0,1-2.325,5.634A26.31,26.31,0,0,1,174.9,238.936Z" /><path class="cls-7" d="M143.931,210.167c3.76-1.045,11.971,1.472,12.19,1.97-.95,4.412-6.472,24.2-9.079,23.746-4.418-.772-8.037-.942-11.237-3.172,1.1-6.409,5.582-17.094,7.88-22.421" style="" /><path d="M143.713,210.3c.172.4-.827,3.071-1.952,6.162s-2.353,6.611-2.833,8.624c-.433,1.774-.878,3.606-1.237,5.459l-.124.695-.062.344a.719.719,0,0,0-.008.117v.184a.722.722,0,0,0,0,.082l.091.039a1.584,1.584,0,0,0,.169.066l.082.029.266.114a11.741,11.741,0,0,0,1.228.457,33.343,33.343,0,0,0,5.538,1.026l1.477.2.174.024.04,0,.08.005c.066.007.07,0,.082-.013a.123.123,0,0,0,.024-.041l.009-.025c0-.008.081-.117.12-.179.2-.328.4-.69.582-1.08a85.991,85.991,0,0,0,3.363-8.926c1-3.023,1.946-6,2.821-8.84l.321-1.057.079-.262.04-.13a.1.1,0,0,1,.013-.026l.047-.085a.749.749,0,0,0,.089-.207.607.607,0,0,0-.15-.137,7.978,7.978,0,0,0-1.366-.547c-.625-.214-1.246-.415-1.861-.6a19.323,19.323,0,0,0-6.774-1.065,7.183,7.183,0,0,1,3.329-1.314,19.076,19.076,0,0,1,4.24-.218c.708.041,1.406.109,2.075.21.335.056.661.1.984.175l.239.051.389.1c.274.083.534.181.8.272a1.979,1.979,0,0,1,.7.332,3.927,3.927,0,0,1,.55.42,2.957,2.957,0,0,1,.727.937c.032.086.1.151.1.25l-.072.323-.144.613c-.1.393-.2.753-.294,1.071-.111.389-.149.453-.213.636l-.177.48-.354.952-.7,1.874q-.7,1.857-1.37,3.647c-.9,2.39-1.769,4.7-2.657,6.936a45.268,45.268,0,0,1-2.967,6.422,4.64,4.64,0,0,1-1.4,1.554,1.526,1.526,0,0,1-1.056.154l-.973-.131L142.676,236a20.073,20.073,0,0,1-6.125-1.74,13.772,13.772,0,0,1-1.794-1.123c.12-.685.226-1.395.359-2.067.195-.962.416-1.88.652-2.783a69.8,69.8,0,0,1,3.426-9.769A63.278,63.278,0,0,1,143.713,210.3Z" /><path d="M237.428,242.564a18.434,18.434,0,0,1-3.7,1.241c-2.088.532-4.872,1.17-7.892,1.662-6.033,1.058-12.97,1.593-16.826,1.891a181.412,181.412,0,0,1-21.536.343c-7.377-.277-14.787-.846-21.8-1.407-12.261-.965-24.551-2.424-35.382-5.7a74.909,74.909,0,0,1-14.786-6.1,57.105,57.105,0,0,1-11.055-7.928c3.349,1.651,8.042,3.985,12.635,5.693,4.58,1.737,8.956,3.066,11.239,3.878a119.567,119.567,0,0,0,27.033,6.281c4.345.573,8.576,1,12.681,1.375s8.08.7,11.931.958q11.551.757,21.635.682c6.732-.056,12.984-.4,18.808-.9,2.762-.281,6.55-.565,9.872-.991C233.619,243.19,236.471,242.659,237.428,242.564Z" /><path class="cls-8 color-headset" d="M275.848,303.4c2.431,3.841,8.744,1.546,11.111,5.439a8.453,8.453,0,0,1,.879,4.4c-.04,9.63-4.221,18.812-10.092,25.734a72.861,72.861,0,0,1-20.916,16.754,110.806,110.806,0,0,1-13.742,6.628c-4.911,1.921-13.472,3.168-16.994-1.182-2.461-3.04-2.45-8-.589-11.555a14.758,14.758,0,0,1,8.712-6.941c3.309-1.07,7.93-.384,8.668,3.446.219,1.139.146,2.6,1.052,3.138a2.135,2.135,0,0,0,1.982-.237,80.912,80.912,0,0,0,17.891-11.84c5.783-5.028,11.26-11.523,12.416-19.709" style="" /><path d="M276.271,317.485a12.277,12.277,0,0,1-.875,5.429,30.417,30.417,0,0,1-5.785,9.84c-5.649,6.648-13.731,12.263-18.368,15.164-1.022.644-2.068,1.275-3.141,1.88-.1.062-.343.192-.546.288l-.63.309a10.245,10.245,0,0,1-1.277.58,3.3,3.3,0,0,1-2.525-.09,3.5,3.5,0,0,1-1.628-1.974,7.436,7.436,0,0,1-.353-1.4l-.117-.751-.034-.185-.019-.085-.049-.131a2.352,2.352,0,0,0-1.317-1.506,5.458,5.458,0,0,0-2.6-.431,7.463,7.463,0,0,0-1.441.223c-.243.049-.451.138-.693.211-.259.1-.521.191-.774.3a12.992,12.992,0,0,0-5.17,3.772,9.437,9.437,0,0,0-2.124,5.6,6.881,6.881,0,0,0,1.58,5.11,4.964,4.964,0,0,0,2.081,1.215,11.281,11.281,0,0,0,2.953.432,21.735,21.735,0,0,0,6.475-.927c.465-.123.911-.288,1.361-.436.433-.164.869-.325,1.368-.535.962-.4,1.916-.8,2.854-1.222,1.878-.844,3.709-1.761,5.554-2.736l2.779-1.484,2.734-1.483q2.644-1.478,5.14-3.149a74.8,74.8,0,0,0,9.274-7.311,57.127,57.127,0,0,0,7.54-8.385,39.367,39.367,0,0,0,7.38-19.074,12.381,12.381,0,0,0-.1-4.289,2.252,2.252,0,0,0-.326-.728,3.316,3.316,0,0,0-.21-.328c-.09-.092-.177-.188-.262-.288a4.866,4.866,0,0,0-1.535-.908c-1.275-.479-2.8-.716-4.34-1.217a8.347,8.347,0,0,1-2.257-1.068,5.667,5.667,0,0,1-1.72-1.864,6.165,6.165,0,0,0,4.115,1.738c1.52.131,3.1-.022,4.9.248a6.516,6.516,0,0,1,2.774,1.093,5.889,5.889,0,0,1,2.037,2.619,11.559,11.559,0,0,1,.736,3c.12.962.159,1.863.208,2.8a35.032,35.032,0,0,1-.285,5.441,34.643,34.643,0,0,1-1.049,4.922,28.474,28.474,0,0,1-3.019,7.03,50.157,50.157,0,0,1-6.68,8.52,75.8,75.8,0,0,1-7.6,6.871,82.828,82.828,0,0,1-8.087,5.648c-1.378.845-2.771,1.637-4.167,2.393l-4.155,2.137c-2.736,1.4-5.493,2.763-8.278,3.922-1.409.581-2.734,1.134-4.217,1.632a29.2,29.2,0,0,1-4.406,1.067,18.839,18.839,0,0,1-8.981-.451,8.507,8.507,0,0,1-3.893-2.7,9.925,9.925,0,0,1-1.879-4.192,13.405,13.405,0,0,1,1.161-8.571,15.157,15.157,0,0,1,5.765-6.031,18.67,18.67,0,0,1,3.689-1.7,10.989,10.989,0,0,1,4.217-.52,7.841,7.841,0,0,1,4.195,1.475,6.181,6.181,0,0,1,1.586,1.833,6.555,6.555,0,0,1,.458,1.111,7.85,7.85,0,0,1,.222.9,5.756,5.756,0,0,0,.152.8.673.673,0,0,0,.544.523,1.446,1.446,0,0,0,.753-.223l.883-.457q2.97-1.547,5.714-3.267a95.409,95.409,0,0,0,10.147-7.319,52.658,52.658,0,0,0,9.427-9.7A26.728,26.728,0,0,0,276.271,317.485Z" /><path class="cls-8 color-headset" d="M254.416,270.233c-2.631,20.987,11.009,40.512,15.109,45.32,1.227,1.439,2.084,3.2,3.555,4.386a9.684,9.684,0,0,0,9.633,1.361l3.573-10.615A58.439,58.439,0,0,1,271.1,267.053" style="" /><path d="M271.145,267.056c.235.269.3,1.587.4,3.507.134,1.921.261,4.454.693,7.133a51.271,51.271,0,0,0,4.14,14.3,73.118,73.118,0,0,0,4.546,8.013,64.058,64.058,0,0,0,5.825,7.467l1.291,1.416.772.854.194.214c.042.077.189.132.115.231l-.174.544-1.1,3.481q-.741,2.379-1.479,4.744-.462,1.449-.92,2.888c-.114.383-.27.724-.4,1.089-.071.178-.135.363-.212.535l-.541.211a18.638,18.638,0,0,1-2.185.756,10.284,10.284,0,0,1-1.766.343,12.38,12.38,0,0,1-1.56.08,12.748,12.748,0,0,1-3.062-.4,12.137,12.137,0,0,1-4.848-2.516,21.253,21.253,0,0,1-3.027-3.682c-.18-.244-.351-.469-.516-.664l-.673-.819c-.486-.575-.89-1.15-1.335-1.725q-1.267-1.736-2.4-3.5a72.364,72.364,0,0,1-7.15-14.555,54.468,54.468,0,0,1-3.1-14.4,43.771,43.771,0,0,1,.9-12.461c.242.864.467,1.8.674,2.79.115.494.179,1,.321,1.512s.268,1.037.405,1.567c.259,1.058.486,2.135.836,3.208s.549,2.149.937,3.187c.361,1.039.635,2.065.982,3.032s.673,1.892.946,2.756a43.157,43.157,0,0,1,1.357,4.214,58.565,58.565,0,0,0,4.233,11.944,57.375,57.375,0,0,0,6.211,10.254c1.372,1.716,2.189,3.474,3.425,4.449a8.3,8.3,0,0,0,4.564,1.8,9.322,9.322,0,0,0,1.228,0c.2-.021.407-.026.605-.064s.418-.061.536-.094a4.862,4.862,0,0,0,.814-.245c.056-.034.15-.031.174-.095l.066-.2.13-.4q.81-2.49,1.594-4.9.4-1.248.792-2.476l.279-.9.105-.346c.008-.056.056-.119.03-.167l-.126-.134-1.327-1.438-1.612-1.956a61.367,61.367,0,0,1-5.4-8.088,59.78,59.78,0,0,1-3.709-8.312,50.688,50.688,0,0,1-2.077-8.232,38.587,38.587,0,0,1-.374-9.208c.119-1.545.3-2.972.488-4.113C270.883,268.338,271.053,267.479,271.145,267.056Z" /><g class="cls-9"><g class="cls-10"><path d="M283.194,318.484c-.24.085-.731-.2-1.373-.714a18.952,18.952,0,0,1-2.218-2.1l-1.2-1.3c-.395-.446-.761-.91-1.129-1.341-.741-.86-1.4-1.649-1.9-2.2-.45-.481-.9-.982-1.345-1.5-.425-.529-.835-1.082-1.248-1.644a38.869,38.869,0,0,1-2.3-3.56,53.514,53.514,0,0,1-3.558-7.7,41.579,41.579,0,0,1-2.677-13.572,32.566,32.566,0,0,1,1.582-11.2,22.019,22.019,0,0,1,2.841,5.2c.332.892.632,1.743.825,2.482a4.8,4.8,0,0,1,.171,1.817,32.55,32.55,0,0,0,2.976,18.82c2.424,5.145,5.423,9.025,7.67,12.668a22.589,22.589,0,0,1,1.742,3.283C282.609,317.067,283.059,318.123,283.194,318.484Z" /></g></g><path d="M280.321,302.736c.322.061.445.872.425,1.731a23.448,23.448,0,0,0-.023,2.4,14.168,14.168,0,0,1,.063,2.843c-.032.48-.08.958-.136,1.431,0,.074-.053.346-.089.557l-.117.665q-.125.677-.246,1.339l-.793.224c-.392.113-.795.217-1.2.316l-.865.2c-.429.092-.858.169-1.287.226a14.083,14.083,0,0,1-2.542.121,9.742,9.742,0,0,1-2.4-.389,4.419,4.419,0,0,1-2.036-1.168,11.535,11.535,0,0,0,2.2-1.532c.6-.434,1.155-.7,1.477-.576a9.064,9.064,0,0,0,2.988.539,10.668,10.668,0,0,0,1.4-.066,4.425,4.425,0,0,0,.83-.12c.051-.208.092-.421.123-.625q.068-.448.132-.882c.089-.639.153-1.255.218-1.844a15.158,15.158,0,0,1,.585-3.192A11.473,11.473,0,0,1,280.321,302.736Z" /><ellipse class="cls-8 color-headset" cx="263.279" cy="254.899" rx="13.192" ry="20.617" style="" transform="translate(-26.626 30.746) rotate(-6.362)" /><path d="M276.326,253.286c-.572-.356-1.128-4.477-3.256-8.621a20.929,20.929,0,0,0-4-5.623,10.163,10.163,0,0,0-4.551-2.725,7.285,7.285,0,0,0-6.28,1.251,12.042,12.042,0,0,0-2.369,2.566,16.5,16.5,0,0,0-1.676,3.335,23.5,23.5,0,0,0-1.446,7.61,29.847,29.847,0,0,0,.744,7.667,23.03,23.03,0,0,0,5.612,11.068,9.743,9.743,0,0,0,4.416,2.664,6.482,6.482,0,0,0,4.457-.7,11.287,11.287,0,0,0,3.637-3.609,19.815,19.815,0,0,0,2.311-4.866,33.985,33.985,0,0,0,1.6-9.922,19.406,19.406,0,0,1,2.252,11.23c-.284,4.3-2.442,8.386-4.386,9.887a12.907,12.907,0,0,1-6.544,3.034,11.33,11.33,0,0,1-6.7-1.175,15.9,15.9,0,0,1-4.745-3.831,22.917,22.917,0,0,1-3.092-4.7,32.182,32.182,0,0,1-3.087-9.962,34.715,34.715,0,0,1-.11-9.743,24.929,24.929,0,0,1,2.881-8.829,16.224,16.224,0,0,1,2.864-3.622,11.483,11.483,0,0,1,3.994-2.4,10.571,10.571,0,0,1,8.727,1.013,16.245,16.245,0,0,1,5.575,5.529,20.858,20.858,0,0,1,2.832,7.7,30.012,30.012,0,0,1,.373,3.618C276.357,252.145,276.341,252.908,276.326,253.286Z" /><ellipse class="cls-8 color-headset" cx="267.365" cy="254.696" rx="8.733" ry="13.648" style="" transform="translate(-26.578 31.197) rotate(-6.362)" /><path d="M276,253.628c-.381-.235-.751-2.963-2.16-5.7A13.848,13.848,0,0,0,271.2,244.2a6.714,6.714,0,0,0-3.011-1.8,4.818,4.818,0,0,0-4.15.83,7.959,7.959,0,0,0-1.565,1.7,10.893,10.893,0,0,0-1.107,2.206,17.961,17.961,0,0,0-.462,10.106,15.238,15.238,0,0,0,3.711,7.32,6.438,6.438,0,0,0,2.916,1.76,4.278,4.278,0,0,0,2.942-.462c1.878-1.09,3.219-3.388,3.935-5.6a22.512,22.512,0,0,0,1.063-6.566,12.821,12.821,0,0,1,1.5,7.437c-.185,2.851-1.614,5.558-2.9,6.552a8.559,8.559,0,0,1-4.34,2.009,7.51,7.51,0,0,1-4.442-.78,12.531,12.531,0,0,1-5.19-5.653,21.325,21.325,0,0,1-2.043-6.6,23.023,23.023,0,0,1-.073-6.452,16.5,16.5,0,0,1,1.907-5.847,10.735,10.735,0,0,1,1.9-2.4,7.608,7.608,0,0,1,2.647-1.593,7,7,0,0,1,5.783.671,10.75,10.75,0,0,1,3.692,3.663,13.786,13.786,0,0,1,1.873,5.1,19.7,19.7,0,0,1,.244,2.4C276.013,252.863,276.006,253.373,276,253.628Z" /><g class="cls-4"><path class="cls-5" d="M219.683,179.961c-.255.2-1.127.092-2.355-.193-.614-.142-1.317-.33-2.078-.546l-1.18-.344-1.264-.3a49.7,49.7,0,0,0-9.531-1.736c-1.954.006-3.938-.144-5.942.014l-1.5.047-.752.022-.748.094-2.991.336a41.584,41.584,0,0,0-11.184,3.441c-5.962,2.876-11.231,7.111-15.947,11.242-4.746,4.123-8.766,8.349-12.384,11.464a20.013,20.013,0,0,1,.7-4.168,24.059,24.059,0,0,1,1.579-4.393,32.134,32.134,0,0,1,2.07-3.781,10.713,10.713,0,0,1,2.085-2.318,117.233,117.233,0,0,1,14.208-9.521,56.888,56.888,0,0,1,13.875-5.567,48.973,48.973,0,0,1,13.132-1.075c1.028.05,2.02.22,3.006.332a28.789,28.789,0,0,1,2.882.455q1.392.323,2.726.673a20.516,20.516,0,0,1,2.582.8,26.775,26.775,0,0,1,2.647,1.112l1.41.7c.458.263.905.54,1.337.807C217.789,178.623,219.223,179.615,219.683,179.961Z" style="" /></g><g class="cls-4"><path class="cls-11" d="M100.846,248.027c-3.377,1.76-7.013,11.014-9.51,19.284-1.664,5.508-1.206,17.547,1.751,22.309,5.447-.306,10.516-3.049,15.543-5.445a138.676,138.676,0,0,1,54.11-13.484c-16.9-3.35-34.046-6.793-49.463-15.307-4.189-2.314-8.228-4.992-12.546-6.979" style="" /><path class="cls-5" d="M100.753,248.357c.449-.094,2.337.546,4.947,1.84,2.622,1.267,5.909,3.233,9.535,5.007a99.213,99.213,0,0,0,21.009,7.6c8.48,1.942,17.664,3.475,27.052,5.087l-.443,5.651a141.749,141.749,0,0,0-29.194,5,156.528,156.528,0,0,0-19.86,7.116c-1.587.7-3.142,1.4-4.708,2.139s-3.177,1.507-4.846,2.22a43.513,43.513,0,0,1-5.232,1.884c-.464.116-.914.249-1.386.346l-.7.152c-.089.023-.292.053-.476.082l-.552.088a22.979,22.979,0,0,1-2.29.262l-2.343.175c-.463-.893-.963-1.774-1.365-2.679l-.625-1.346a7,7,0,0,1-.251-.708l-.184-.592a28.13,28.13,0,0,1-.766-3.454,43.5,43.5,0,0,1-.512-6.585,45.356,45.356,0,0,1,.394-6.334,28.792,28.792,0,0,1,.59-3.125c.117-.517.307-1.062.46-1.58q.246-.683.491-1.356a85.3,85.3,0,0,1,4.388-10.085,37.425,37.425,0,0,1,2.686-4.432,11,11,0,0,1,3.815-3.587,9.59,9.59,0,0,0-2.236,3.776,43.127,43.127,0,0,0-1.346,4.424c-.8,3.1-1.484,6.436-2.13,9.678-.158.811-.314,1.616-.468,2.41a15.786,15.786,0,0,0-.3,2.107,39.2,39.2,0,0,0-.112,4.073c.027,2.615.214,4.856.227,6.39a33.779,33.779,0,0,0,.372,4.494c.065.348.117.71.19,1.047.034.145.1.374.105.45l-.006.117a1.752,1.752,0,0,0,.085.531,2.043,2.043,0,0,0,.263.056,1.6,1.6,0,0,0,.387.013,7.642,7.642,0,0,0,.922-.133c.378-.068.757-.154,1.137-.237a36.427,36.427,0,0,0,4.548-1.454c3.007-1.184,6.059-2.59,9.1-3.829a174.371,174.371,0,0,1,17.945-6.183,155.382,155.382,0,0,1,33.611-5.753l-.244,3.116c-7.944-1.437-15.471-2.827-22.521-4.607a107.05,107.05,0,0,1-19.517-6.77,69.163,69.163,0,0,1-11.652-7c-1.841-1.323-3.538-2.554-4.941-3.513S101.3,248.7,100.753,248.357Z" style="" /></g><g class="cls-4"><path class="cls-11" d="M193.362,314.437a56.65,56.65,0,0,0,43.874,2.178c6.26-2.313,12.692-6.553,13.913-13.114.748-4.017-.631-8.092-1.99-11.946l-2.359-6.693a1.781,1.781,0,0,0-.461-.812,1.806,1.806,0,0,0-1.715-.025A164.024,164.024,0,0,0,195.68,310.5c-1.491,1.174-3.1,3.2-1.967,4.721" style="" /><path class="cls-5" d="M193.67,315.248a1.444,1.444,0,0,1-.747-1.321,4.5,4.5,0,0,1,1.212-2.947,10.327,10.327,0,0,1,1.425-1.409l1.627-1.378c1.138-.959,2.414-1.944,3.73-2.969,2.653-2.027,5.572-4.075,8.273-5.9l6.979-4.562a127.674,127.674,0,0,1,20.9-11.069l2.832-1.147c.471-.195.95-.367,1.426-.549l2.061-.758a6.414,6.414,0,0,1,2.564-.471,3.994,3.994,0,0,1,2.289.829,4.722,4.722,0,0,1,1.446,2.009l.877,2.382q1.044,2.8,2.076,5.565a39.734,39.734,0,0,1,1.787,6.076,18.121,18.121,0,0,1,.187,6.117,15.915,15.915,0,0,1-2.2,5.932,22.848,22.848,0,0,1-8.505,7.69,35.912,35.912,0,0,1-4.846,2.22c-.823.325-1.621.545-2.427.816s-1.611.493-2.421.7a52.753,52.753,0,0,1-9.649,1.634,56.326,56.326,0,0,1-9.268-.053,55.586,55.586,0,0,1-8.528-1.474,49.959,49.959,0,0,1-13.838-5.871c4.222.452,9.909,1.211,15.157,1.289,2.618.106,5.132,0,7.291-.024,1.083-.066,2.079-.057,2.963-.091a21.53,21.53,0,0,1,2.292.017,46.908,46.908,0,0,0,14.85-1.652,29.548,29.548,0,0,0,6.594-2.587,18.41,18.41,0,0,0,5.22-4.13,11.164,11.164,0,0,0,2.572-5.608,16.182,16.182,0,0,0-.588-6.246c-.555-2.076-1.333-4.134-2.061-6.188q-.544-1.509-1.081-2.993l-.335-.9c-.105-.282-.207-.638-.539-.721a1.575,1.575,0,0,0-.915.145l-.861.326c-.958.348-1.916.7-2.85,1.079-1.881.725-3.706,1.5-5.5,2.271-3.575,1.558-6.96,3.213-10.194,4.881-6.468,3.342-12.285,6.819-17.693,10.127-2.553,1.6-6.115,3.683-9.247,5.57l-2.223,1.345a7.429,7.429,0,0,0-1.614,1.408,2.88,2.88,0,0,0-.712,1.493A1.993,1.993,0,0,0,193.67,315.248Z" style="" /></g><g class="cls-4"><path class="cls-11" d="M167.562,274.1c10.733-5.038,23.3-1.971,27.819-1.971" style="" /><path class="cls-5" d="M195.381,272.183c-.1.551-1.274.785-2.56.853a20.7,20.7,0,0,0-3.533.307c-2.871.824-5.934.917-8.627,1.287a62.58,62.58,0,0,1-6.705.545,43.563,43.563,0,0,1-5.97-.17,8.027,8.027,0,0,1,1.415-4.318,6.051,6.051,0,0,1,1.257-1.324A1.632,1.632,0,0,1,171.78,269a56.548,56.548,0,0,0,6.428.81,48.754,48.754,0,0,0,5.278-.007c3.274-.156,6.176-.44,8.541.277A12.151,12.151,0,0,1,195.381,272.183Z" style="" /></g><g class="cls-3"><path d="M272.082,241.161a48.462,48.462,0,0,1,14.15,3.339,2.382,2.382,0,0,0,1.6.248,2.335,2.335,0,0,0,1.178-1.423l5.56-12.567a2.007,2.007,0,0,0,.225-1.564c-.245-.563-.924-.767-1.523-.9q-4.681-1.074-9.388-2.043a26.005,26.005,0,0,1,8.532-5.384c-5.921-13.746-19.307,3.6-20.05,11.757" /><path d="M272.348,232.618a5.7,5.7,0,0,1,.238-2.491,21.97,21.97,0,0,1,1.922-4.8,30.4,30.4,0,0,1,3.325-4.973,23.3,23.3,0,0,1,3.545-3.485,10.82,10.82,0,0,1,3.02-1.7,6.346,6.346,0,0,1,3.831-.181,7.015,7.015,0,0,1,3.31,2.188l.608.759c.185.262.345.534.519.8.489.807.941,1.833,1.411,2.76l-1.451.642-.735.329-.551.263c-.5.252-1.006.512-1.495.789s-.971.565-1.439.869c-.235.15-.465.307-.693.466l-.613.444a.713.713,0,0,0-.119.126c0,.026-.083.071,0,.065l.124,0,.042,0,.843.172,3.763.781,1.851.392c.17.039.357.084.559.146a4.326,4.326,0,0,1,.809.336,2.724,2.724,0,0,1,1.2,1.284,2.973,2.973,0,0,1,0,2.2c-.212.575-.345.812-.5,1.187l-.926,2.065-1.83,4.021-1.791,3.853q-.443.938-.876,1.854a6.694,6.694,0,0,1-.61,1.09,2.791,2.791,0,0,1-1.4,1.069,2.646,2.646,0,0,1-1.06.1,3.641,3.641,0,0,1-.881-.214c-.469-.179-.76-.321-1.115-.469q-1.026-.44-2.037-.82c-1.345-.508-2.662-.945-3.94-1.322a59.057,59.057,0,0,0-7.153-1.622,27.492,27.492,0,0,1,8.758.015,31.144,31.144,0,0,1,4.4.983c.643.192,1.279.419,1.76.6.517.172.335.1.377.138l.009.009a.061.061,0,0,0,.039.017c0,.017.1-.1.166-.2.137-.2.314-.566.487-.893l1.016-1.968,1.949-3.864,1.844-3.763.884-1.843c.327-.712.5-.944.385-1.316a.918.918,0,0,0-.667-.487c-.4-.121-.923-.227-1.377-.338l-2.784-.642-2.784-.624L284.659,227l-1.714-.429-.107-.027c-.03-.01-.1-.01-.043-.044l.162-.157.323-.312.641-.606c.425-.4.867-.786,1.334-1.168l.709-.545.545-.391q.549-.378,1.106-.727c.743-.463,1.5-.883,2.254-1.271l1.015-.5.613-.286a7.638,7.638,0,0,0-.355-.706l-.307-.489a3.644,3.644,0,0,0-.378-.543,6.255,6.255,0,0,0-1.812-1.689,4.763,4.763,0,0,0-4.421-.058,13.782,13.782,0,0,0-3.856,2.685,27.821,27.821,0,0,0-3.044,3.433,40.377,40.377,0,0,0-3.362,5.213,22.334,22.334,0,0,0-1.144,2.586A15.874,15.874,0,0,0,272.348,232.618Z" /></g><g class="cls-3"><path d="M291.965,263.2a59.593,59.593,0,0,1-11.694,9.734,3.185,3.185,0,0,0-1.588,1.664,3.068,3.068,0,0,0,.293,1.822q3.194,8.337,6.95,16.446a23.411,23.411,0,0,0,11.4-10.8" /><path d="M297.35,282.076c.1.283-.705,2.235-2.166,4.183a28.43,28.43,0,0,1-4.673,4.845,20.226,20.226,0,0,1-1.665,1.28c-.3.194-.589.407-.9.587l-.673.382-.789.4-.815.41-.207.1c-.041.036-.06.011-.073-.031l-.05-.1-.2-.394-.819-1.634q-.5-.995-1-2c-1.269-2.589-2.463-5.241-3.56-7.776q-.718-1.662-1.385-3.33l-.65-1.663a6.946,6.946,0,0,1-.578-2.143,3.148,3.148,0,0,1,.33-1.576,3.694,3.694,0,0,1,.877-1.106,11.8,11.8,0,0,1,1.605-1.087c.941-.576,1.853-1.162,2.735-1.75a108.939,108.939,0,0,0,8.958-6.772,17.989,17.989,0,0,1-2.826,4.868,15.554,15.554,0,0,1-3.477,3.4c-1.693,1.025-3.438,1.993-4.988,2.832a2.526,2.526,0,0,0-.76.6.889.889,0,0,0-.155.714,6.306,6.306,0,0,0,.318,1.139q.211.618.421,1.225c1.135,3.232,2.369,6.2,3.609,8.942.621,1.373,1.243,2.69,1.856,3.959l.379.771.237.452c.01.059.051.035.092.009l.116-.061.225-.117.561-.314A28.617,28.617,0,0,0,292.924,287c.749-.743,1.792-1.759,2.649-2.738S297.112,282.372,297.35,282.076Z" /></g><g class="cls-3"><path d="M286.235,311.012a17.339,17.339,0,0,0,13.045-7.069,2.538,2.538,0,0,1,1.311-1.164,2.359,2.359,0,0,1,1.393.259l9.539,3.91a17.445,17.445,0,0,1-14.057,8.072" /><path d="M297.465,315c.178-.253,1.919-.393,3.81-1.02a15.1,15.1,0,0,0,4.813-2.513,20.337,20.337,0,0,0,2.383-2.344c.184-.214.373-.425.54-.655l.26-.337.131-.168a.447.447,0,0,0,.046-.078l.12-.232.044-.14a1.737,1.737,0,0,0-.318-.069l-1.632-.609-3.371-1.283-2.862-1.121a3.459,3.459,0,0,0-.486-.171h0c-.007,0,.012-.015-.016.01a2.972,2.972,0,0,0-.316.376,16.925,16.925,0,0,1-4.528,4.275,15.661,15.661,0,0,1-9.827,2.519c1.211-.665,2.807-1.473,4.174-2.3s2.535-1.659,3.239-1.96a13.7,13.7,0,0,0,3.777-2.477,17.194,17.194,0,0,0,1.528-1.659,2.886,2.886,0,0,1,1.242-.9,2.352,2.352,0,0,1,1.533.091c2.775,1.234,5.257,2.268,7.691,3.208l2.288.9.619.253.155.064c0,.036-.049.088-.071.131l-.176.273c-.236.358-.462.746-.708,1.081s-.484.679-.724,1.014l-.588.713a17.151,17.151,0,0,1-1.256,1.3,15.387,15.387,0,0,1-5.635,3.409,11.087,11.087,0,0,1-3.413.589A13.153,13.153,0,0,1,297.465,315Z" /></g><g class="cls-3"><path d="M303.328,260.225a114.182,114.182,0,0,1,12.078-4.7,104.452,104.452,0,0,1,5.18,13.79,56.856,56.856,0,0,1-13.4,7.6" /><path d="M307.18,276.9c.074-.287,1.572-1,3.254-1.9a37.278,37.278,0,0,0,4.5-2.744l2.591-2.007,1.313-1.056c.3-.236.226-.2.287-.266l.048-.062c0-.024-.027-.055-.037-.079l-.041-.072-.021-.035-.068-.192-.29-.81q-.294-.808-.588-1.611c-.4-1.066-.8-2.117-1.213-3.132-.719-1.775-1.448-3.533-2.174-5.243l-.134-.313,0-.007,0-.022c.005-.027-.01-.024-.031-.035-.028.005.042-.022-.069.012l-.322.1-.639.193-1.258.383c-3.319,1.01-6.325,1.951-8.79,2.625,1.52-2.085,5.323-4.574,6.894-4.9l2.306-.52,1.157-.269,1.758-.472c.348-.233.386.229.51.483l.327.827.292.75.185.512q.37,1.02.728,2c.946,2.631,1.829,5.089,2.66,7.4l.594,1.732.392,1.211c.169.236-.141.316-.271.455l-.491.385-.8.621-.676.511c-.448.336-.9.654-1.342.964a33.38,33.38,0,0,1-5.255,3.029A23.47,23.47,0,0,1,307.18,276.9Z" /></g></g></g></svg>