<svg xmlns="http://www.w3.org/2000/svg" id="bantu-knots" viewBox="0 0 380 600">
  <defs>
    <style>
      .cls-1 {
        fill: #f04923;
      }
    </style>
  </defs>
  <g id="comp-3" data-name="comp">
    <g id="Layer_102" data-name="Layer 102">
      <g>
        <ellipse class="cls-1" cx="218.85" cy="243.92" rx="6.83" ry="7.19" transform="translate(-49.8 56.24) rotate(-13.16)"></ellipse>
        <path d="M225.47,242.37c-.36-.09-.85-1.7-2.2-2.94-.65-.62-1.47-1.14-2.27-1.42-.8-.29-1.57-.33-2.1-.26-1.87,.23-3.55,1.36-4.39,2.98-.88,1.6-.89,3.59-.16,5.12,.61,1.34,1.7,2.41,2.96,2.92,1.25,.52,2.66,.5,3.87,0,1.21-.49,2.23-1.46,2.86-2.61,.64-1.15,.9-2.45,.9-3.68,.5,.43,1.02,1.09,1.31,1.94,.3,.84,.41,1.84,.27,2.82-.23,1.99-1.57,3.68-2.5,4.14-1.86,1-3.87,1.23-5.65,.93-1.78-.33-3.31-1.18-4.44-2.29-2.29-2.24-3.09-5.38-2.53-8.08,.27-1.36,.88-2.61,1.72-3.63,.86-1.01,1.95-1.79,3.14-2.23,2.39-.89,5.04-.38,6.74,.97,.85,.59,1.7,1.77,2.09,2.89,.41,1.12,.38,2.12,.38,2.42Z"></path>
      </g>
    </g>
  </g>
</svg>