<svg xmlns="http://www.w3.org/2000/svg" viewBox="0 0 380 600">
  <defs>
    <style>
      .cls-1 {
        fill: #070707;
        opacity: .15;
      }

      .cls-1, .cls-2, .cls-3, .cls-4, .cls-5, .cls-6, .cls-7, .cls-8, .cls-9, .cls-10, .cls-11, .cls-12, .cls-13, .cls-14, .cls-15 {
        stroke-width: 0px;
      }

      .cls-3 {
        fill: #f8ffb8;
      }

      .cls-4 {
        fill: #606060;
      }

      .cls-5 {
        fill: #518400;
      }

      .cls-6 {
        fill: #558904;
      }

      .cls-7 {
        fill: #1c1c1c;
      }

      .cls-8 {
        fill: #232323;
      }

      .cls-9 {
        fill: #c7d825;
      }

      .cls-10 {
        fill: #adee11;
      }

      .cls-11 {
        fill: #65b101;
      }

      .cls-12 {
        fill: #8dce28;
      }

      .cls-13 {
        fill: #86d111;
      }

      .cls-14 {
        fill: #90cc32;
      }

      .cls-15 {
        fill: #e4fe46;
      }
    </style>
  </defs>
  <g id="gamer-guy">
    <g id="headset-2" data-name="headset">
      <g>
        <g>
          <path class="cls-15" d="M274.87,202.03c6.9-7.69,17.56-3.25,23.7,1.38,21.65,16.31,32.63,50.77,27.63,80.71-.92,5.73-4.92,19.61-12.24,17.27"></path>
          <path class="cls-2" d="M313.97,301.35c.16-.05.59.04,1.24.04.64-.01,1.51-.13,2.41-.63,1.82-.97,3.5-3.34,4.73-6.09,1.25-2.76,2.16-5.92,2.73-8.82.3-1.44.42-2.86.56-4.15.13-1.29.25-2.44.33-3.4.34-6.82.03-14.14-1.08-21.4-1.1-7.26-3-14.44-5.56-20.95-2.24-5.69-4.98-11.13-8.2-16.08-3.27-4.91-7.01-9.3-11.07-12.95-1.04-.87-2.03-1.83-3.07-2.61-1.03-.8-2.12-1.49-3.21-2.14-2.2-1.26-4.47-2.23-6.73-2.76-2.26-.54-4.51-.56-6.54-.01-2.03.54-3.79,1.66-5.21,3.01.88-1.54,2.43-3.34,4.76-4.45,2.31-1.16,5.23-1.45,7.92-1.1,5.46.67,9.94,3.43,11.94,5.13,1.91,1.8,3.87,3.46,5.5,5.38,1.77,1.8,3.23,3.79,4.73,5.69.76.94,1.37,1.98,2.05,2.96.65,1,1.37,1.93,1.92,2.96,1.17,2.03,2.39,3.97,3.34,6.02,4.08,8.06,6.78,16.11,8.51,23.83,1.73,7.73,2.47,15.15,2.42,22.1.06,1.74-.09,3.44-.19,5.12-.05.84-.11,1.67-.16,2.49-.11.82-.21,1.63-.32,2.44-.23,1.61-.38,3.19-.73,4.75-.33,1.55-.74,3.05-1.23,4.51-.89,2.75-2.52,6.48-4.99,9.09-1.23,1.29-2.74,2.2-4.08,2.38-1.34.2-2.3-.2-2.74-.36Z"></path>
        </g>
        <g>
          <path class="cls-11" d="M245.39,199.53c38.12,15.29,65.06,72.29,56,111.81,10.57-2.1,16.76-15.55,16.76-33.27,0-32.75-17.69-76.28-52.33-83.2-8.94-1.79-17.37,1.23-20.43,4.66Z"></path>
          <path class="cls-2" d="M245.37,199.58c.43.56,3.33,1.91,7.32,4.37,3.99,2.45,8.98,6.13,13.76,10.72,2.42,2.26,4.72,4.8,6.95,7.37,2.17,2.62,4.26,5.29,6.08,7.96,3.69,5.31,6.5,10.45,8.29,14.23,4.59,9.71,8.28,20.46,10.32,31.64,1.02,5.59,1.61,11.27,1.66,16.93-.02,1.41.03,2.83-.07,4.23-.07,1.4-.12,2.81-.29,4.19l-.23,2.29-.75,4.22c-.48,2.83-1.06,5.64-1.64,8.47l.95-.17c.17-.03.29-.04.5-.1l.65-.17c.86-.23,1.73-.46,2.59-.69.8-.22,1.59-.43,2.38-.65.8-.26,1.62-.63,2.44-.94.81-.23,1.64-.92,2.46-1.42l1.23-.81c.4-.31.8-.59,1.2-.97l1.11-1.08c.23-.23.48-.45.67-.7l1.22-1.47c3.03-4.04,4.79-8.49,5.99-12.87.94-3.55,1.47-7.13,1.75-10.69.16-1.78.19-3.56.23-5.33-.02-1.76-.03-3.51-.13-5.25-.34-6.97-1.4-13.81-3.01-20.42-3.25-13.2-8.67-25.59-16.27-35.89-1.93-2.55-3.91-5.02-6.11-7.25-1.05-1.16-2.22-2.19-3.33-3.26-.59-.5-1.17-1.01-1.75-1.51-.57-.51-1.17-.99-1.78-1.44-2.37-1.91-4.96-3.49-7.51-4.97-2.63-1.36-5.25-2.62-7.97-3.48-1.33-.5-2.71-.82-4.05-1.19-1.35-.34-2.7-.56-4.04-.82-2.77-.42-5.52-.44-8.14-.11-2.62.32-5.12,1.01-7.42,1.99-2.29,1.01-4.43,2.3-6.07,4.24,1.85-1.38,4.03-2.14,6.37-2.66,2.35-.48,4.86-.71,7.4-.55,2.55.15,5.1.59,7.55,1.44,1.25.46,2.51.84,3.72,1.39.61.26,1.22.5,1.81.77.59.29,1.17.58,1.75.87,4.65,2.3,8.65,5.35,11.9,8.2,3.26,2.87,5.74,5.62,7.55,7.45,6.83,7.14,12,15.7,15.76,24.53,3.74,8.85,6.15,18.02,7.32,27.05,1.13,9.02,1.23,18.01-.97,26.17-1.12,4.03-2.72,7.93-5.23,10.96-.32.37-.59.79-.95,1.11l-.72.71c-.51.4-.99.82-1.55,1.11-.53.35-1.13.56-1.7.79l-.9.23c-.06,0-.18.07-.19.03l.05-.23.1-.46c.31-1.35.51-2.73.69-4.01.11-1.13.21-2.26.32-3.39.09-1.13.11-2.25.17-3.37.13-4.47-.04-8.86-.51-13.15-.95-8.56-2.86-16.69-5.44-24.27-5.16-15.17-12.79-28.28-21.99-38.67-2.04-2.39-4.69-5.02-7.61-7.57-2.93-2.54-6.2-4.92-9.37-6.94-3.22-1.94-6.3-3.6-8.91-4.65-.64-.27-1.25-.53-1.81-.77-.57-.22-1.11-.39-1.58-.56-.96-.33-1.71-.59-2.2-.76Z"></path>
        </g>
      </g>
      <g>
        <g>
          <path class="cls-10" d="M130.04,223.16c.59-.86-6.33-14.88-17.05-19.2,44.48-40.18,133.85-38.74,168.97,18.87,1.98,3.24,5.79,8.35,3.81,10.53-21.18-24.33-36.14-32.95-71.9-37.14-27.11-3.18-67.58,3.5-83.84,26.95Z"></path>
          <path class="cls-2" d="M130.01,223.15c.38-.71,2.67-4.48,7.47-8.77,2.38-2.14,5.38-4.38,8.87-6.46,3.48-2.08,7.44-4,11.67-5.66,8.46-3.34,17.97-5.48,26.75-6.61,8.78-1.14,16.83-1.24,22.57-.99,2.53.09,5.1.29,7.65.58,2.55.31,5.13.55,7.71.96,1.29.19,2.59.38,3.89.57,1.3.24,2.6.48,3.9.72,1.31.22,2.61.51,3.91.81,1.3.31,2.62.56,3.91.93,5.22,1.33,10.39,3.16,15.37,5.51,4.98,2.35,9.73,5.29,14.12,8.67,4.38,3.4,8.42,7.19,12.27,11.12l.96,1.01.18.17.3.31.13.13s.06-.14.04-.21c-.02-.16-.1-.3-.17-.42l-.26-.4-1.02-1.59-1.09-1.64c-.73-1.09-1.45-2.19-2.18-3.28-.8-1.04-1.6-2.07-2.39-3.11l-1.19-1.55c-.42-.5-.86-.98-1.29-1.46-.86-.97-1.72-1.94-2.57-2.91-.89-.93-1.83-1.82-2.73-2.72-.91-.9-1.81-1.81-2.8-2.62-11.09-9.94-24.58-16.94-38.56-21.03-14-4.12-28.48-5.53-42.32-4.82-6.92.4-13.69,1.32-20.21,2.71-6.52,1.38-12.79,3.22-18.69,5.55-5.9,2.31-11.48,4.99-16.6,8.03-2.52,1.59-5.03,3.11-7.32,4.85-1.16.85-2.34,1.65-3.41,2.58l-.82.67-.39.31-.39.31-.2.16-.1.08s-.1.06-.03.07c.25.11.5.24.76.38.13.07.25.15.38.23.19.11.52.31.76.47,1.05.68,2.03,1.41,2.94,2.19,1.83,1.55,3.39,3.25,4.79,4.98,1.38,1.74,2.6,3.52,3.65,5.34.53.91,1.01,1.82,1.45,2.76.21.47.42.94.6,1.43.09.25.18.49.25.76.04.13.07.28.09.43,0,.17.11.31-.12.78.09-.14.14-.43.12-.47,0-.09-.01-.19-.03-.26-.04-.13-.07-.28-.11-.39-.08-.24-.18-.46-.28-.68-.21-.44-.43-.86-.67-1.28-.48-.85-1.02-1.69-1.6-2.53-1.16-1.68-2.49-3.38-4-5.01-1.5-1.64-3.18-3.22-5.05-4.62-.93-.71-1.92-1.35-2.95-1.93-.27-.16-.48-.27-.81-.44-.37-.19-.75-.39-1.18-.57-.84-.37-1.7-.72-2.59-1.07-.03-.05.08-.13.15-.2l.24-.21.48-.43.98-.88,1.84-1.66,1.38-1.26c.47-.41.97-.79,1.45-1.19l2.93-2.35c1-.75,2.03-1.45,3.04-2.17,2-1.49,4.14-2.71,6.18-4,1.01-.66,2.1-1.17,3.12-1.75,1.04-.55,2.06-1.13,3.08-1.64,8.21-4.06,15.78-6.55,20.59-7.66,7.26-1.78,14.55-2.91,21.75-3.46,7.2-.55,14.34-.57,21.31.04,13.93,1.18,27.28,4.4,39.27,9.76,6,2.65,11.71,5.75,16.91,9.41,1.34.85,2.59,1.83,3.84,2.8,1.25.97,2.53,1.88,3.68,2.94,1.18,1.03,2.35,2.06,3.52,3.08,1.1,1.1,2.2,2.19,3.29,3.27,1.13,1.05,2.07,2.27,3.1,3.4,1.01,1.15,2.03,2.27,2.92,3.51.92,1.21,1.84,2.41,2.75,3.6.83,1.25,1.65,2.5,2.48,3.75.4.62.84,1.25,1.22,1.86l1.37,2.17c.55.86,1.03,1.72,1.45,2.54.39.8.72,1.56.93,2.25.22.7.37,1.35.38,2.02.03.67-.1,1.33-.53,1.99l-.17.24s-.06.09-.08.12l-.09-.08-.37-.33-.74-.66-1.48-1.31-.74-.65-.37-.33c-.13-.12-.22-.18-.42-.41-.69-.75-1.39-1.53-2.07-2.24l-1.69-1.79c-.48-.52-.97-1.02-1.47-1.5-1-.98-1.99-1.96-2.98-2.93-1.03-.93-2.05-1.86-3.07-2.78-4.14-3.61-8.49-6.82-13.07-9.47-1.16-.63-2.28-1.34-3.47-1.89-1.18-.57-2.36-1.13-3.53-1.7-1.2-.49-2.4-.98-3.6-1.47-1.19-.49-2.43-.86-3.64-1.29-4.87-1.6-9.77-2.84-14.67-3.73-4.88-.96-9.75-1.6-14.53-2.19-4.76-.57-9.47-.79-14.11-.78-9.27.06-18.22,1.02-26.68,2.81-4.02.86-8.73,2.07-13.52,3.72-4.78,1.66-9.63,3.77-13.9,6.24-4.27,2.47-7.97,5.25-10.67,7.82-2.73,2.54-4.42,4.86-5.31,5.95Z"></path>
        </g>
        <path class="cls-2" d="M284.9,230.55c-.36-.22-1.49-1.87-3.24-4.23-.91-1.15-1.89-2.55-3.11-3.95-.6-.71-1.22-1.45-1.86-2.21-.67-.73-1.37-1.48-2.07-2.24-5.63-6.13-13.26-11.77-17.82-14.33-4.01-2.27-8.27-4.45-12.79-6.23-1.11-.5-2.28-.85-3.42-1.29-1.15-.42-2.3-.85-3.49-1.19-1.18-.36-2.36-.73-3.54-1.1-1.2-.31-2.4-.62-3.6-.93-9.64-2.45-19.68-3.45-29.19-3.38-16.64.13-33.09,3.2-47.04,8.68-6.99,2.71-13.31,6.09-18.71,9.88-2.68,1.92-5.12,3.95-7.31,6.05-2.16,2.12-4.02,4.32-5.65,6.5,1.01-2.24,2.53-4.93,4.57-7.57,2.05-2.62,4.57-5.21,7.23-7.48,5.33-4.57,11.21-7.75,14.4-9.06,12.92-5.28,25.73-7.83,37.81-9.04,12.1-1.14,23.55-.8,34.13.83,5.29.83,10.33,2.04,15.14,3.45,4.81,1.42,9.32,3.24,13.6,5.19,4.23,2.04,8.19,4.29,11.83,6.76,3.59,2.53,6.96,5.12,9.89,7.99,2.85,2.65,6.4,6.62,9.03,10.46.7.92,1.29,1.88,1.86,2.76.56.89,1.12,1.68,1.54,2.45.85,1.51,1.51,2.67,1.83,3.24Z"></path>
      </g>
      <g>
        <g>
          <path class="cls-11" d="M53.52,281.71c2.16,14.13,4.82,31.62,14.71,42.71,12.46,13.98,28.55,10.52,41.09,1.16,17.76-13.25,26.87-40.04,27.52-60.98.76-24.77-6.15-60.54-31.4-66.25-16.44-3.72-34.21,4.91-40.36,20.93-13.58,17.74-14.89,40.62-11.56,62.43Z"></path>
          <path class="cls-2" d="M53.46,281.72c-.39-.66-1.25-4.36-1.88-9.93-.61-5.56-1.02-13.02-.09-20.99.18-2,.56-4,.88-6.03.45-2.01.83-4.04,1.44-6.03.51-2.01,1.25-3.94,1.91-5.87.8-1.88,1.52-3.77,2.45-5.51.83-1.79,1.84-3.44,2.79-5.05.45-.82,1.02-1.54,1.51-2.29.25-.37.5-.74.75-1.1l.28-.42c.07-.07.12-.26.13-.28,1.22-3.3,2.89-6.01,4.36-8.2,5.38-7.66,14.26-13.2,24.13-14.87,4.94-.87,10.11-.68,15.13.53,1.27.28,2.51.73,3.75,1.15,1.21.51,2.44,1,3.58,1.65,2.33,1.23,4.51,2.74,6.45,4.49,3.94,3.45,7.03,7.68,9.47,12.1,1.22,2.22,2.31,4.49,3.23,6.81.96,2.31,1.76,4.66,2.47,7.02,2.85,9.45,4.11,19.07,4.49,28.45.15,4.1.09,8.22-.24,12.38-.32,4.14-1,8.2-1.8,12.23-.5,1.99-.88,4-1.49,5.96l-.84,2.94-.97,2.9-.49,1.45-.55,1.42-1.11,2.84-1.25,2.78c-.41.93-.83,1.85-1.31,2.74l-1.39,2.7c-.49.89-1.02,1.75-1.53,2.62-.98,1.76-2.19,3.4-3.3,5.07-2.41,3.24-4.95,6.38-7.94,9.09-1.41,1.43-3.05,2.63-4.6,3.89-1.6,1.19-3.25,2.28-4.97,3.28-3.43,1.98-7.1,3.58-10.97,4.54-3.86.97-7.93,1.27-11.88.68-3.95-.58-7.69-2.08-10.87-4.16-.77-.55-1.59-1.04-2.3-1.64-.7-.61-1.4-1.21-2.1-1.82-.67-.63-1.26-1.31-1.88-1.96-.3-.33-.62-.65-.91-.99l-.83-1.05c-2.19-2.8-3.94-5.79-5.32-8.82-2.74-6.08-4.26-12.19-5.32-17.99-1.05-5.81-1.63-11.33-2.15-16.51,1.53,4.47,3.13,10.06,5.12,15.9,2,5.82,4.42,11.93,7.67,17.1,1.62,2.58,3.38,4.96,5.33,6.91,1.98,1.92,3.96,3.64,6.01,4.77,4.01,2.47,7.87,3.02,10.55,3.26,2.71.22,5.53-.03,8.29-.79,2.76-.74,5.45-1.87,8.02-3.25l1.9-1.08,1.84-1.2c1.21-.82,2.33-1.74,3.49-2.61,1.08-.97,2.17-1.93,3.22-2.94.98-1.07,2.03-2.09,2.96-3.2,3.78-4.42,6.87-9.38,9.4-14.52,2.52-5.15,4.48-10.5,5.95-15.9,1.46-5.4,2.44-10.85,2.88-16.24.44-5.39.35-10.79,0-16.05-.77-10.51-2.81-20.66-6.65-29.67-.97-2.24-2.07-4.4-3.27-6.45-1.22-2.05-2.59-3.97-4.07-5.74-3-3.52-6.59-6.4-10.61-8.17-1.99-.92-4.08-1.54-6.22-1.93-1.08-.17-2.14-.4-3.22-.44l-1.61-.12c-.54-.04-1.07,0-1.61,0-4.28.04-8.46.89-12.3,2.41-7.71,3.01-13.86,8.79-17.21,15.63l-.58,1.31-.29.65-.21.48c-.09.18-.14.37-.27.53-.61.86-1.22,1.71-1.83,2.56-.59.77-1.06,1.61-1.57,2.42-.49.82-1.04,1.61-1.46,2.47-1.88,3.31-3.29,6.81-4.54,10.28-1.1,3.34-2.17,7.38-2.97,11.68-.82,4.3-1.26,8.88-1.48,13.18-.47,8.62.25,16.14.38,18.6Z"></path>
        </g>
        <g>
          <path class="cls-15" d="M47.75,275.86c-.01,19.17,4.58,33.23,13.56,41.02,8.53,7.4,20.04,6.69,28.38,2.31,28.9-15.19,33.15-56.17,27.09-84.73-4.07-19.19-20.38-37.86-41.82-28.62-24.35,10.49-27.2,54.76-27.21,70.02Z"></path>
          <path class="cls-2" d="M47.72,275.86c-.31-1.23-.52-13.16,1.72-26.75,1.11-6.78,2.84-13.96,5.28-20.26,2.4-6.31,5.54-11.68,8.36-15.1,2.45-3.04,5.47-5.81,9.04-7.87,1.83-.96,3.69-1.86,5.68-2.46,1.98-.64,4.04-1.12,6.16-1.3,4.23-.41,8.66.26,12.63,2.01,3.98,1.73,7.54,4.37,10.47,7.52,2.96,3.14,5.38,6.74,7.29,10.57,1.93,3.82,3.32,7.89,4.23,12.04,1.75,8.16,2.53,16.41,2.5,24.45-.01,7.03-.74,14.05-2.18,20.89-1.48,6.83-3.75,13.49-7.01,19.61-3.3,6.07-7.55,11.64-12.81,15.93-2.61,2.15-5.41,4.03-8.35,5.57-3,1.56-6.23,2.62-9.5,3.13-3.28.48-6.61.45-9.8-.22-3.18-.69-6.19-1.99-8.78-3.79-5.18-3.66-8.57-8.81-10.84-13.98-1.13-2.6-1.94-5.25-2.61-7.85-.62-2.62-1.11-5.2-1.41-7.73-.65-5.06-.75-9.9-.62-14.42.43,4.05.98,9.03,2.12,14.24.53,2.61,1.29,5.27,2.14,7.89.88,2.62,1.97,5.18,3.23,7.57,2.48,4.81,6.03,8.76,9.61,11.2,3.62,2.43,7.29,3.27,9.81,3.61,5.11.68,10.43-.35,15-2.65,4.66-2.39,8.88-5.5,12.37-9.26,3.54-3.71,6.37-7.98,8.65-12.44,2.29-4.46,3.94-9.16,5.22-13.88,2.48-9.46,3.29-19.03,3-28.23-.15-4.6-.58-9.12-1.25-13.53-.69-4.41-1.57-8.7-3.11-12.69-3.04-7.95-8.04-15.03-14.68-19.33-3.31-2.11-7-3.5-10.76-3.85-1.88-.18-3.75-.13-5.59.1-1.84.28-3.64.71-5.37,1.32-3.48,1.21-6.59,3.07-9.26,5.42-2.67,2.34-4.89,5.09-6.76,8.01-3.73,5.86-6.12,12.26-7.96,18.54-1.75,5.98-3.48,14.35-4.45,21.81-1,7.46-1.34,13.97-1.43,16.11Z"></path>
        </g>
        <g>
          <path class="cls-10" d="M52.84,303.39c7.73,12.3,23.67,11.33,34.18,3.67,13.25-9.67,20.06-30.74,20.58-45.84.56-16.27-2.16-45.64-22.73-49.48-10.63-1.98-21.47,1.3-29.49,15.89-6,10.92-10.96,26.66-10.97,43.58-.01,17.64,4.39,25.76,8.43,32.18Z"></path>
          <path class="cls-2" d="M52.81,303.4c-.39-.39-2.1-2.65-3.98-6.41-1.89-3.75-3.61-9.12-4.39-15.02-.42-2.95-.63-6.02-.7-9.07-.1-3.05,0-6.1.21-8.99.41-5.79,1.34-10.99,2.15-14.66,1.41-6.5,3.57-13.1,6.61-19.49,1.51-3.18,3.32-6.36,5.57-9.26,2.25-2.9,4.99-5.54,8.26-7.51,3.28-1.91,7.02-3.17,10.82-3.42,3.82-.27,7.54.09,11.22,1.3,3.65,1.21,6.94,3.42,9.49,6.16,1.29,1.36,2.43,2.83,3.4,4.38,1,1.53,1.83,3.14,2.58,4.76,2.57,5.69,3.95,11.71,4.75,17.68.79,5.98,1,11.94.76,17.83-.13,2.99-.51,5.92-.98,8.81-.55,2.87-1.15,5.71-2,8.46-1.6,5.51-3.79,10.76-6.59,15.54-2.79,4.77-6.18,9.14-10.36,12.47-4.13,3.39-8.99,5.56-13.85,6.48-2.43.49-4.89.54-7.26.38-2.38-.21-4.66-.83-6.77-1.67-4.18-1.86-7.41-5-9.4-8.44,2.21,2.83,5.7,5.65,10,7.04,2.16.65,4.47.95,6.79.94,2.32-.04,4.64-.46,6.85-1.07,2.21-.63,4.27-1.58,6.17-2.59.91-.58,1.85-1.07,2.66-1.7.41-.3.83-.58,1.22-.89.38-.32.75-.64,1.12-.95.36-.32.74-.6,1.07-.92.33-.33.65-.65.96-.97.31-.31.62-.62.92-.91.3-.3.55-.63.82-.92.52-.61,1.03-1.15,1.47-1.69.43-.55.82-1.05,1.18-1.5,2.86-3.63,5.15-7.68,7-11.86,1.85-4.18,3.25-8.5,4.26-12.84,1.02-4.35,1.6-8.7,1.75-13.03.16-4.35.04-8.64-.33-12.85-.39-4.2-1.03-8.31-2.08-12.25-1.03-3.94-2.47-7.7-4.44-11.08-2-3.34-4.55-6.31-7.72-8.29-3.14-2.05-6.77-2.99-10.42-3.25-.91-.11-1.81-.06-2.71-.09-.9.07-1.8.07-2.67.23-1.77.2-3.47.71-5.1,1.3-3.24,1.29-6.11,3.3-8.5,5.72-2.4,2.42-4.33,5.21-5.95,8.11-1.64,2.9-3.02,5.9-4.24,8.9-4.83,12.03-6.89,24.15-7,35.41,0,2.68.06,5.86.34,9.15.28,3.29.82,6.69,1.64,9.8,1.58,6.26,4.53,11.14,5.4,12.75Z"></path>
        </g>
        <path class="cls-2" d="M53.88,275.43c-.15-.15-.27-1.65-.3-3.38-.04-1.73,0-3.7-.01-4.8-.09-3.88.37-8.32,1.05-12.29.57-3.47,1.43-6.85,2.39-9.87.95-3.07,2.23-5.66,3.39-7.64-.11,2.2-.89,6.02-1.37,7.28-2.09,5.21-3.16,10.08-3.72,14.4-.57,4.33-.66,8.12-.88,11.43-.1,1.57-.47,4.31-.55,4.85Z"></path>
        <path class="cls-2" d="M66.36,227.9c.06-.23.71-1.26,2.2-2.24.73-.51,1.71-.9,2.82-1.18,1.12-.25,2.37-.26,3.63-.05,2.54.41,4.97,1.87,6.72,3.62,1.79,1.76,2.84,3.75,3.59,5.14,2.58,5.03,3.46,11.06,3.67,16.96.1,2.97.02,5.94-.17,8.87-.1,1.46-.23,2.92-.37,4.35-.08.72-.16,1.43-.24,2.14-.12.73-.21,1.47-.34,2.19-.45,2.51-1.15,4.93-1.97,7.29-.83,2.35-1.8,4.64-2.95,6.81-1.14,2.17-2.42,4.26-3.93,6.16-1.5,1.9-3.15,3.67-5.12,5.06-1.95,1.39-4.15,2.49-6.48,2.88-2.32.43-4.84.1-6.76-1.07-1.96-1.11-3.27-2.8-4.18-4.44-.91-1.66-1.44-3.36-1.75-4.96.79,1.29,1.77,2.82,3.04,4.17.61.69,1.34,1.29,2.06,1.82.76.49,1.53.91,2.32,1.14,3.17.98,6.15-.62,7.67-1.26,3.14-1.47,5.83-4.11,7.92-7,2.12-2.89,3.77-6.04,5.06-9.2,1.28-3.17,2.21-6.39,2.71-9.54.47-3.19.76-6.34.91-9.36.27-6.06-.05-11.75-1.22-16.83-.59-2.53-1.45-4.89-2.6-6.94-.25-.54-.62-.99-.92-1.48-.3-.5-.67-.91-1.02-1.35-.75-.82-1.57-1.55-2.45-2.16-.86-.54-1.92-1.13-3.12-1.5-1.19-.38-2.52-.53-3.76-.37-2.54.28-4.38,1.87-4.95,2.33Z"></path>
      </g>
      <g>
        <g>
          <path class="cls-8" d="M155.06,344.31c.18,5.28,4.68,8.86,9.18,10.76,5.09,2.15,11.35,5.43,15.91,1.61,7.6-6.36,8.1-15.07,2.43-19.19-3.78-2.76-8.46-6.69-13.21-7.53-5.43-.96-8.76,1.89-10.51,6.27"></path>
          <path class="cls-2" d="M158.82,336.23c-.14-.24,0-1.15.58-2.4.58-1.23,1.71-2.82,3.5-3.89,1.79-1.07,4.11-1.42,6.05-1.2,1.99.16,3.69.76,4.87,1.17,2.1.73,4.1,1.81,6.01,2.99.96.59,1.89,1.2,2.81,1.81l1.38.91c.54.43,1.14.8,1.61,1.33,1.05.96,1.82,2.21,2.45,3.49.56,1.32.92,2.73,1,4.12.21,2.81-.56,5.47-1.66,7.74-.98,1.99-2.3,3.74-3.78,5.25-.8.73-1.41,1.4-2.56,2.17-1.07.69-2.3,1.23-3.53,1.45-2.49.52-4.74.08-6.65-.47-1.93-.57-3.6-1.34-5.16-2.1-.75-.38-1.5-.75-2.24-1.12-.76-.38-1.59-.82-2.33-1.3-1.49-.96-2.85-2.05-3.97-3.33-1.12-1.27-2-2.7-2.51-4.18-.53-1.48-.65-2.99-.49-4.32.67,1.17,1.5,2.38,2.55,3.35,1.04.97,2.22,1.74,3.4,2.37,1.19.62,2.38,1.1,3.42,1.5,1.05.41,1.87.72,2.6,1.15,2.61,1.61,5.01,3.05,7.42,3.7,1.19.32,2.36.43,3.43.21.26-.08.52-.14.78-.22.24-.11.5-.21.74-.33l.7-.44.73-.6c1.92-1.6,3.49-3.54,4.36-5.68.49-1.05.7-2.16.85-3.24.07-1.08.01-2.15-.27-3.14-.31-.97-.7-1.9-1.34-2.65-.27-.4-.66-.71-.98-1.06-.41-.3-.7-.57-1.2-.9-1.83-1.27-3.54-2.49-5.22-3.55-1.68-1.06-3.33-1.96-4.94-2.58-1.6-.62-3.2-.91-4.7-.88-.71.04-1.53.14-2.37.41-.84.26-1.71.72-2.46,1.3-1.52,1.16-2.54,2.7-2.89,3.17Z"></path>
        </g>
        <g>
          <path class="cls-11" d="M91.86,290.91c1.5-6.56-3.89-12.24-8.02-5.31-2.4,4.03-7.03,8.92-2.41,12.8,1.76,1.48,3.52,2.13,6.17-1.11,8.91,9.34,46.01,34.79,65.87,42.91.05,6.87,4.39,8.65,8.47.17,3.65-7.59,1.32-11.62-5.25-7.26-19.02-8.81-58.12-31.51-64.84-42.2"></path>
          <path class="cls-2" d="M91.89,290.89c.38.3,1.8,2.2,4.47,4.52,2.63,2.34,6.34,5.18,10.45,8.04,8.22,5.74,18.04,11.55,23.6,14.58,4.91,2.67,10.03,5.39,15.3,8.05,2.63,1.33,5.31,2.65,8.01,3.92l2.03.95.51.23.16.07.06.02.11.04s.13-.08.19-.11l.21-.13.1-.07s.17-.09.25-.13c.39-.19.75-.4,1.17-.56.44-.15.82-.35,1.32-.43l.73-.15c.26-.03.55-.03.82-.03.27-.02.57.03.89.11.31.07.61.14.92.33.62.3,1.12.83,1.46,1.37.69,1.14.69,2.17.71,3.12-.08,1.87-.59,3.46-1.18,5-.63,1.5-1.32,2.94-2.24,4.36-.48.7-.99,1.39-1.65,2.05-.31.33-.73.64-1.11.94-.49.27-.9.57-1.55.72-.3.09-.59.17-.96.16-.35,0-.7.03-1.04-.09-.72-.16-1.31-.53-1.8-.95-.92-.87-1.3-1.81-1.64-2.7-.13-.44-.24-.88-.34-1.32l-.17-1.21v-.14s-.07-.02-.07-.02l-1.94-.83c-.7-.29-1.37-.61-2.04-.94-1.34-.65-2.69-1.26-3.99-1.95-5.5-2.77-10.79-5.84-15.94-8.97-5.16-3.14-10.16-6.38-14.99-9.68-4.83-3.3-9.5-6.63-13.92-10.04-2.21-1.71-4.37-3.4-6.44-5.17-1.05-.86-2.06-1.77-3.05-2.67l-.75-.67-.66-.65c-.09-.09-.18-.22-.27-.29-.06.06-.12.12-.19.18l-.33.26c-.24.17-.45.34-.73.48-.51.3-1.14.55-1.84.63-.7.08-1.42-.04-2.01-.27-.6-.23-1.06-.55-1.48-.86-.21-.16-.39-.31-.58-.48l-.55-.55c-.38-.34-.68-.83-.99-1.26-.24-.5-.53-.98-.64-1.54-.17-.54-.18-1.09-.21-1.63.05-.52.08-1.06.23-1.53.23-.97.62-1.81,1.04-2.59.84-1.55,1.82-2.87,2.71-4.15.83-1.18,1.71-2.78,3.19-3.83.7-.56,1.68-.9,2.65-.93,1.01,0,1.91.46,2.6,1.01,1.31,1.2,1.89,2.75,2.14,4.22.24,1.49.12,2.96-.22,4.31.1-1.32.02-2.75-.42-4.16l-.17-.53-.23-.51c-.14-.35-.34-.67-.55-.98-.18-.33-.48-.58-.7-.87-.3-.22-.55-.51-.89-.65-.31-.2-.66-.26-.98-.34-.34.01-.67-.01-.99.12l-.24.07-.22.13c-.15.09-.3.17-.44.27-.26.27-.56.45-.78.77-.5.58-.84,1.25-1.25,1.99-.41.8-.85,1.55-1.28,2.3-.84,1.49-1.67,2.97-2.03,4.35-.18.69-.26,1.33-.14,1.86.1.53.3.98.68,1.4.15.22.4.41.62.61.2.2.51.4.74.55.24.14.45.23.61.28.16.04.25.03.34.02.17-.04.5-.18.87-.5.06-.05.06-.05.17-.16.11-.09.22-.2.35-.33.24-.24.46-.53.69-.79.45-.53.89-1.04,1.31-1.54,1.28,1.23,2.44,2.36,3.49,3.36.63.56,1.18,1.06,1.65,1.5,2.96,2.72,6.05,5.3,9.16,7.74,3.1,2.46,6.23,4.8,9.35,7.06,6.24,4.51,12.44,8.68,18.58,12.5,6.14,3.82,12.23,7.32,18.31,10.3,1.51.77,3.04,1.44,4.57,2.1l1.57.69c.09.01.08.1.08.17v.21s.03.42.03.42l.04.85c.09.8.21,1.55.48,2.23.23.69.64,1.28,1.09,1.55.44.27.98.22,1.56-.09,1.16-.64,2.12-1.94,2.87-3.25.75-1.33,1.44-2.73,1.9-4.15.23-.71.42-1.42.53-2.13.06-.35.06-.7.09-1.04-.04-.32,0-.68-.11-.95-.13-.6-.39-1.01-.81-1.15-.43-.16-1.06-.11-1.68.05-.31.1-.63.23-.95.34l-.93.47-1.27.78-.32.2c-.12-.04-.25-.11-.37-.17l-.74-.34c-.71-.33-1.42-.67-2.13-1-.67-.32-1.34-.64-2-.96-1.32-.65-2.63-1.3-3.93-1.95-2.59-1.3-5.11-2.62-7.58-3.95-9.86-5.31-18.85-10.63-26.93-16.09-3.86-2.57-8.96-6.34-13.17-10-2.1-1.83-3.97-3.64-5.36-5.21-1.41-1.56-2.27-2.91-2.66-3.59Z"></path>
        </g>
      </g>
      <path class="cls-13" d="M84.33,286.8s1.55-1.71,3.89-1.06,3.63,5.17,3.63,5.17c0,0,1.41-4.85-2.24-7.63-.73-.56-2.05-.43-2.91.22-1.5,1.13-2.37,3.3-2.37,3.3Z"></path>
      <path class="cls-15" d="M67.04,227.52s7.74-1.49,12.77,8.15c5.03,9.65,5.98,26.09,5.98,26.09,0,0,2.44-26.23-6.26-33.16-8.7-6.93-12.49-1.08-12.49-1.08Z"></path>
      <path class="cls-15" d="M69.98,214.44s7.82-2.11,18.8,4.23c10.99,6.34,16.9,26.41,16.9,26.41,0,0-1.04-25.2-15.77-30.87-12.35-4.76-19.94.24-19.94.24Z"></path>
      <path class="cls-15" d="M122.84,203.81s13.74-12.03,39.75-18.11c35.29-8.25,65.86-1.18,65.86-1.18,0,0-32.46-11.76-65.86-3.29-33.4,8.47-43.75,19.52-43.75,19.52l4,3.06Z"></path>
      <path class="cls-6" d="M53.9,281.99s.16,16,9.9,16.89c11.33,1.04,13.97-9.4,13.97-9.4,0,0-5.62,6.84-12.86,6.54-9.41-.39-11.01-14.02-11.01-14.02Z"></path>
      <path class="cls-9" d="M95.17,306.19s-8.61,13.05-28.94,9.59c-1.84-.31-3.69-1.08-5.76-2.3l-1.39-1.35c-.41-.4-.79-.83-1.13-1.3l-1.43-1.97s7.97,7.03,21.22,4.02c9.32-2.11,15.05-8.97,15.05-8.97l2.38,2.26Z"></path>
      <path class="cls-9" d="M98.36,297.09l2.48,1.97s14.9-21.02,10.72-51.72c-3.95-29.01-13.2-29.92-13.2-29.92,0,0,6.37,5.34,8.91,20.48,1.23,7.37,8,30.81-8.9,59.2Z"></path>
      <path class="cls-12" d="M112.47,206.64c5.1,4.32,14.67,15.01,16.11,35.33.06.87.77,1.54,1.64,1.54h0c.96,0,1.72-.81,1.64-1.77-.56-6.56-3.57-29.42-18.73-36.15-.66-.29-1.22.59-.66,1.05Z"></path>
      <path class="cls-6" d="M130.63,215.28s19.72-18.72,49.9-22.37c7.81-.94,14.07-1.22,20.68-1.25,20.86-.1,36.09,3.26,36.09,3.26,0,0-9.74-3.56-23.05-5.03-10.37-1.14-22.69-.6-35.66,1.22-22.34,3.13-37.85,11.95-49.5,21.41l1.54,2.75Z"></path>
      <path class="cls-6" d="M58.28,241.86c-.16.49-4.78,5.97-5.76,16.32-.98,10.34,1,11.92,1,11.92,0,0-.04-10.56,1.6-17.13,1.64-6.57,3.16-11.11,3.16-11.11Z"></path>
      <path class="cls-14" d="M264.75,201.2c-.51-.17,19.16,7.06,33.46,30.14,13.72,22.14,18.1,42.22,18.1,42.22,0,0-.5-11.5-4.74-24.72-6.7-20.92-21.84-47.85-52.21-53.28l-1.78-.2,7.18,5.85Z"></path>
      <path class="cls-14" d="M55.59,258.27l21.1,27.37s6.47-7.11,8.73-20.07l-24.26-29.57s-4.43,10.61-5.57,22.26Z"></path>
      <path class="cls-14" d="M54.66,269.79s18.2,19.68,18.12,19.68-1.46,1.5-5.02,2.68l-13.62-15.57s-.61-3.74.52-6.79Z"></path>
    </g>
    <g id="acc-2" data-name="acc">
      <path class="cls-4" d="M165.38,334.71s4.47.21,8.45,2.97c3.99,2.76,11.05,7.55,11.05,7.55,0,0,1.07-2.8-1.84-5.87-2.91-3.07-11.04-7.67-14.42-7.98-3.37-.31-3.84.19-3.84.19h0c.33,1,.53,2.03.59,3.08v.05Z"></path>
      <path class="cls-6" d="M279.69,217.76s14.34,16.91,21.39,34.23c7.05,17.31,11.08,38.66,8.26,52.75,0,0-2.55,3.1-6.06,3.53,0,0,4.85-13.22-2.74-42-5.41-20.51-14.07-32.65-14.07-32.65l-1.19-3.79c-.94-2.99-2.18-5.88-3.69-8.63l-1.9-3.44Z"></path>
      <path class="cls-6" d="M85.59,202.02s21.78-6.91,33.76,17.98c8.91,18.5,7.86,43.73,4.57,57.79-3.3,14.06-6.89,21.66-11.28,29.56l-4.06-2.71s10.61-18.63,12.15-35.76-2.42-40.88-8.13-50.11c-5.71-9.23-12.6-15.79-27.01-16.76Z"></path>
      <path class="cls-6" d="M107.02,315.1s-9.59,15.2-34.22,8.78c0,0,18.94.24,30.04-12.32l4.18,3.54Z"></path>
    </g>
  </g>
  <g id="bucket-hat">
    <path class="cls-1" d="M134.55,224.06s16.58-19.48,53.22-21.7c35.84-2.18,52.39,4.08,62.36,7.62,9.97,3.54,23.8,12.7,23.8,12.7,0,0-5.58-8.27-22.48-16.26-5.64-2.67-11.75-4.36-19.27-6.26-9.68-2.46-23.5-3.77-35.97-3.64-45.47.46-63.36,23.2-63.36,23.2l1.7,4.36Z"></path>
    <path class="cls-6" d="M78.13,295.29s-.56,2.93,1.75,5.02c2.59,2.34,5.54,2.2,7.14.99l1.67,1.82,1.29-1.32-2.4-2.24s-2.68,2.55-6.19.58c-2.41-1.36-3.26-4.85-3.26-4.85Z"></path>
    <path class="cls-7" d="M160.69,345.56c.48.24,4.14,2.89,7.88,4.46,3.74,1.57,11.94,4.95,11.94,4.95,0,0-.84,2.53-5.55,2.05s-14.11-5.91-16.28-7.36c-2.17-1.45-1.82-1.82-1.82-1.82h0c1.41-.44,2.71-1.2,3.78-2.23l.05-.05Z"></path>
    <path class="cls-5" d="M82.2,290.61s-1.14,2.43.74,4.25c1.99,1.92,3.7.56,3.7.56,0,0-1.2,1.95-2.57,2.29-.91.23-2.16-.76-2.92-1.86s-.19-2.7.17-3.39c.47-.91.89-1.84.89-1.84Z"></path>
    <path class="cls-3" d="M84.87,208.01c5.63,1.31,16.45,5.38,22.93,17.75.36.69,1.41.28,1.2-.47-1.47-5.28-4.48-12.4-10.34-15.47-5.63-2.96-10.53-3.33-13.69-3.1-.75.05-.84,1.11-.11,1.28Z"></path>
    <path class="cls-11" d="M47,287.78s5.29,16.89,15.44,19.43c14.91,3.73,25.5-3.37,25.5-3.37,0,0-8.89,10.62-24.03,7.36-14.24-3.06-16.9-23.42-16.9-23.42Z"></path>
  </g>
</svg>