<svg xmlns="http://www.w3.org/2000/svg" viewBox="0 0 380 600">
  <defs>
    <style>
      .cls-1, .cls-2, .cls-3, .cls-4, .cls-5, .cls-6, .cls-7, .cls-8, .cls-9, .cls-10, .cls-11, .cls-12, .cls-13, .cls-14, .cls-15, .cls-16, .cls-17, .cls-18, .cls-19 {
        stroke-width: 0px;
      }

      .cls-2 {
        fill: #ce5d00;
      }

      .cls-3 {
        fill: #e2ba3b;
      }

      .cls-4 {
        fill: #d3d3d3;
      }

      .cls-5 {
        fill: #aaa;
      }

      .cls-6 {
        fill: #cea625;
      }

      .cls-7 {
        fill: #ba5f1a;
      }

      .cls-8 {
        fill: #a0480b;
      }

      .cls-9 {
        fill: #ff933b;
      }

      .cls-10 {
        fill: #ff8f33;
      }

      .cls-11 {
        fill: #7f7f7f;
      }

      .cls-12 {
        fill: #fef2c0;
      }

      .cls-13 {
        fill: #fff;
      }

      .cls-14 {
        fill: #ffedb3;
      }

      .cls-15 {
        fill: #ffeec0;
      }

      .cls-16 {
        fill: #fffae6;
      }

      .cls-17 {
        fill: #fedc56;
      }

      .cls-18 {
        fill: #efd68e;
      }

      .cls-19 {
        fill: #f27300;
      }
    </style>
  </defs>
  <g id="gamer-girl">
    <g id="headset">
      <g>
        <g>
          <path class="cls-12" d="M274.88,202.04c6.9-7.69,17.56-3.25,23.7,1.38,21.65,16.31,32.63,50.77,27.63,80.71-.92,5.73-4.92,19.61-12.24,17.27"></path>
          <path class="cls-1" d="M313.98,301.36c.16-.05.59.04,1.24.04.64-.01,1.51-.13,2.41-.63,1.82-.96,3.5-3.34,4.73-6.09,1.25-2.76,2.16-5.92,2.73-8.82.3-1.44.42-2.86.56-4.15.13-1.29.25-2.44.33-3.4.34-6.82.03-14.14-1.08-21.4-1.1-7.26-3-14.44-5.56-20.95-2.24-5.69-4.98-11.13-8.2-16.08-3.27-4.91-7.01-9.3-11.07-12.95-1.04-.87-2.03-1.83-3.07-2.61-1.03-.8-2.12-1.49-3.21-2.14-2.2-1.26-4.47-2.23-6.73-2.76-2.26-.54-4.51-.56-6.54-.01-2.03.54-3.79,1.66-5.21,3.01.88-1.54,2.43-3.34,4.76-4.45,2.31-1.16,5.23-1.45,7.92-1.1,5.46.67,9.94,3.43,11.94,5.13,1.91,1.8,3.87,3.46,5.5,5.38,1.77,1.8,3.23,3.79,4.73,5.69.76.94,1.37,1.98,2.05,2.96.65,1,1.37,1.93,1.92,2.96,1.17,2.03,2.39,3.97,3.34,6.02,4.08,8.06,6.78,16.11,8.51,23.83,1.73,7.73,2.47,15.15,2.42,22.1.06,1.74-.09,3.44-.19,5.12-.05.84-.11,1.67-.16,2.49-.11.82-.21,1.63-.32,2.44-.23,1.61-.38,3.19-.73,4.75-.33,1.55-.74,3.05-1.23,4.51-.89,2.75-2.52,6.48-4.99,9.09-1.23,1.29-2.74,2.2-4.08,2.38-1.34.2-2.3-.2-2.74-.36Z"></path>
        </g>
        <g>
          <path class="cls-19" d="M245.4,199.54c38.12,15.29,65.06,72.29,56,111.81,10.57-2.1,16.76-15.55,16.76-33.27,0-32.75-17.69-76.28-52.33-83.2-8.94-1.79-17.37,1.23-20.43,4.66Z"></path>
          <path class="cls-1" d="M245.38,199.58c.46.49,3.39,1.79,7.41,4.21,4.02,2.41,9.06,6.08,13.87,10.67,2.43,2.26,4.76,4.8,7.01,7.37,2.19,2.62,4.29,5.29,6.13,7.96,3.72,5.31,6.57,10.46,8.41,14.22,3.21,6.66,6.04,13.8,8.14,21.29,2.15,7.47,3.57,15.29,4.09,23.16.26,3.94.2,7.88-.07,11.79l-.28,2.92c-.04.49-.14.96-.2,1.45l-.28,1.87c-.06.47-.16.96-.26,1.44l-.14.73-.07.62-.26,2.46-.26,2.47-.06.62c-.06.16.11.06.2.05l.31-.08,1.25-.33c1.71-.45,3.23-.9,4.84-1.45l2.45-1.28c.4-.2.87-.43,1.13-.68l.71-.55c.96-.68,1.72-1.53,2.55-2.32.37-.43.72-.86,1.08-1.3l.53-.65.46-.69c2.51-3.65,4.08-7.64,5.14-11.61,1.79-6.96,2.17-14.11,1.79-20.98-.34-6.9-1.39-13.69-2.98-20.25-3.2-13.09-8.55-25.39-16.02-35.61-1.9-2.53-3.85-4.98-6-7.2-1.03-1.15-2.19-2.17-3.27-3.24-.58-.5-1.15-1-1.72-1.5-.56-.51-1.15-.98-1.75-1.44-2.33-1.91-4.87-3.48-7.38-4.95-2.58-1.36-5.16-2.62-7.84-3.49-1.31-.51-2.67-.83-3.98-1.21-1.33-.35-2.67-.58-3.98-.85-2.72-.44-5.41-.48-7.99-.19-2.58.28-5.05.93-7.32,1.88-2.26.96-4.39,2.21-5.99,4.07,1.72-1.4,3.85-2.25,6.15-2.87,2.32-.57,4.82-.89,7.39-.82,2.57.06,5.17.43,7.68,1.22,1.27.42,2.56.77,3.79,1.3.62.25,1.24.47,1.85.73.6.28,1.2.56,1.8.84,4.77,2.22,8.9,5.25,12.24,8.12,3.35,2.88,5.88,5.68,7.69,7.56,7.17,7.72,12.44,16.9,16.16,26.3,3.74,9.42,6.03,19.13,6.95,28.64.45,4.76.59,9.48.23,14.07-.35,4.59-1.26,9.07-2.79,13.2-.79,2.05-1.72,4.04-2.93,5.79-.55.92-1.27,1.7-1.93,2.51l-1.11,1.1c-.36.38-.8.65-1.19.98-.43.36-.64.47-.95.65-.29.17-.57.36-.88.47-.31.12-.6.27-.92.37l-.95.25s-.11.06-.08,0l.03-.12.05-.24.1-.48.2-.96c.07-.32.12-.64.17-.95l.19-1.29c1.19-8.59.85-17.03-.31-25.02-.59-4-1.36-7.9-2.36-11.68-.94-3.79-2.13-7.45-3.38-11.01-2.59-7.09-5.71-13.72-9.25-19.83-3.57-6.09-7.57-11.65-11.91-16.6-2.03-2.38-4.64-5.02-7.52-7.59-2.89-2.56-6.11-4.97-9.23-7.03-3.18-1.98-6.22-3.68-8.8-4.78-.64-.29-1.24-.55-1.79-.8-.57-.23-1.1-.41-1.57-.59-.95-.35-1.69-.62-2.19-.8Z"></path>
        </g>
      </g>
      <g>
        <g>
          <path class="cls-17" d="M201.36,176.6c8.75-15.81,21.93-41.44,36.99-38.55,26.83,5.16,49.41,93.14,47.44,95.32-21.18-24.33-36.14-32.95-71.9-37.14-27.11-3.18-67.58,3.5-83.84,26.95.59-.86-8.57-20.99-19.28-25.31,6.78-25.79,19.52-57.68,35.74-62.21,5.98-1.67,11.17,1.08,15.05,4.8,10.03,9.63,16.79,23.15,23.12,36.7,2.53-.81,16,.69,16.69-.56Z"></path>
          <path class="cls-1" d="M201.33,176.58c-.4.39-2.34.38-5.19.27-1.44-.07-3.13-.14-5.04-.23-.96-.04-1.97-.08-3.04-.1-.53,0-1.08,0-1.65.01-.6.03-.98.04-1.44.15h-.06s-.02-.04-.02-.04l-.05-.11-.1-.22-.2-.43c-.16-.34-.32-.69-.48-1.05-.35-.75-.71-1.52-1.07-2.31-.74-1.57-1.52-3.21-2.35-4.89-1.66-3.36-3.5-6.91-5.6-10.51-2.11-3.59-4.49-7.21-7.21-10.67-.66-.88-1.4-1.7-2.1-2.56-.74-.82-1.47-1.66-2.25-2.46-1.53-1.6-3.18-3.19-5.12-4.4-1.91-1.24-4.08-2.13-6.35-2.48-1.14-.16-2.29-.18-3.42-.07-1.13.14-2.24.38-3.28.76-2.11.72-4.01,1.82-5.71,3.08-1.71,1.25-3.22,2.66-4.58,4.13-2.75,2.91-4.9,6.01-6.76,8.9-1.85,2.91-3.35,5.65-4.61,8.08-5.34,10.37-9.47,21.71-12.93,33.46l-.64,2.21-.88,3.21c-.26.39.27.42.51.59l.88.42c.29.14.6.27.89.44l.48.26c.61.36,1.2.76,1.77,1.2,2.3,1.76,4.32,3.99,6.16,6.37,1.84,2.39,3.49,4.97,4.99,7.64.75,1.34,1.45,2.7,2.1,4.08l.47,1.04.18.42.2.49.38,1.02.05.13s.03.09.07.07l.22-.03.44-.06.22-.03c.08-.02.08.05.12.06l.19.18c.24.23.44.42.52.55,0,.01,0,.02,0,.03.5.2,1.03.4,1.55.6.52-.69,1.03-1.41,1.59-2.09l1.05-1.24c.59-.7,1.26-1.34,1.89-2.01.65-.66,1.34-1.27,2.01-1.9.69-.61,1.42-1.19,2.12-1.79,2.9-2.32,6.06-4.33,9.35-6.09,6.61-3.52,13.77-6.02,21.07-7.8,7.3-1.77,14.75-2.82,22.17-3.26,7.42-.42,14.78-.25,21.96.7,5.82.72,11.59,1.66,17.26,2.88,5.66,1.25,11.19,2.91,16.45,5.12,5.26,2.2,10.21,5.01,14.79,8.33,4.57,3.33,8.82,7.1,12.77,11.14,1.01.99,1.96,2.05,2.94,3.06l1.75,1.85,2.22,1.81,2.21,1.8,1.1.9.28.22.14.11s.05.05.07.05l.04-.08.24-.47c.25-.53.54-.96.75-1.72.02-.23.01-.52.02-.77,0-.27.02-.51-.03-.85-.08-.65-.12-1.24-.25-1.93-.12-.66-.22-1.39-.35-1.97l-.34-1.68-.47-2.09c-.32-1.39-.66-2.77-1.01-4.14-.7-2.74-1.45-5.45-2.22-8.14-3.13-10.74-6.72-21.13-10.83-31.06-2.05-4.96-4.24-9.8-6.63-14.48-2.38-4.68-4.95-9.2-7.85-13.44-2.92-4.22-6.13-8.23-10.1-11.46-2-1.59-4.19-2.99-6.65-3.86-2.44-.88-5.18-1.17-7.7-.62-2.53.5-4.82,1.6-6.82,2.96-2,1.36-3.77,2.94-5.38,4.59-3.22,3.33-5.84,6.96-8.24,10.58-4.75,7.27-8.5,14.59-12.1,21.38,3.71-5.82,8.02-13.21,13.4-20.6,2.71-3.67,5.69-7.37,9.16-10.53,1.74-1.57,3.61-2.99,5.61-4.07,1.99-1.1,4.15-1.76,6.28-1.84,2.12-.11,4.2.53,6.12,1.46,1.91.99,3.65,2.31,5.23,3.76,3.16,2.94,5.72,6.35,7.93,9.62,4.37,6.61,7.37,12.75,9.47,16.95,5.06,10.29,9.17,20.87,12.73,31.4,1.77,5.27,3.39,10.54,4.83,15.8.72,2.63,1.39,5.26,1.99,7.88l.31,1.41.17.81c.05.28.1.56.13.85.02.14.03.29.03.44,0,.07,0,.16-.04.21l-.14-.15-1.13-1.22-.71-.75-1.39-1.45c-1.82-1.96-3.77-3.81-5.67-5.67-3.9-3.63-7.99-7-12.34-9.92-4.33-2.96-8.99-5.34-13.74-7.27-4.76-1.94-9.63-3.42-14.52-4.53-2.43-.62-4.89-1.04-7.33-1.52-2.44-.43-4.88-.8-7.31-1.16-2.44-.3-4.84-.66-7.27-.9-2.43-.26-4.85-.41-7.26-.51-9.64-.36-19.12.37-28.24,2.02-9.12,1.66-17.91,4.3-25.98,8.17-4.03,1.93-7.85,4.24-11.36,6.89-1.77,1.31-3.41,2.77-4.99,4.28-.78.77-1.52,1.56-2.26,2.36l-1.02,1.2c-.18.21-.38.44-.54.67-.21.29-.43.57-.64.85,0-.03.01-.06.01-.08-.04-.37-.19-.72-.32-1.06l-.21-.51-.34-.77c-.57-1.25-1.19-2.47-1.83-3.67-1.29-2.4-2.71-4.7-4.25-6.91-1.55-2.2-3.23-4.3-5.12-6.22-.95-.95-1.95-1.86-3.03-2.68-.55-.4-1.1-.8-1.68-1.15-.28-.19-.59-.35-.89-.52-.21-.11-.29-.16-.46-.23-.45-.05-.19-.44-.13-.73l.46-1.65c.35-1.23.7-2.45,1.05-3.66.72-2.43,1.46-4.83,2.25-7.2,1.56-4.75,3.26-9.37,5.11-13.86,1.85-4.49,3.86-8.83,6.1-12.97,2.24-4.13,4.71-8.07,7.57-11.58,2.86-3.48,6.17-6.6,10.05-8.33.48-.23.97-.41,1.47-.57.49-.19,1-.3,1.5-.42,1.01-.2,2.03-.28,3.05-.24,2.04.12,4.03.75,5.83,1.76,1.55.85,3.07,2.02,4.52,3.43,1.46,1.43,2.95,2.95,4.35,4.62,2.85,3.3,5.49,7.04,7.87,10.82,2.39,3.78,4.5,7.62,6.36,11.14.91,1.77,1.78,3.46,2.59,5.02.4.79.78,1.54,1.14,2.26.19.38.38.75.56,1.12.1.2.19.39.29.58l.14.28c.06.07.06.25.17.2,1.43-.36,2.46-.28,3.52-.33,1.05-.01,2.04,0,2.96,0,1.85.02,3.43.04,4.79.06,1.36,0,2.48-.02,3.4-.09.9-.09,1.7-.13,2.07-.52Z"></path>
        </g>
        <path class="cls-1" d="M284.91,230.57c-.36-.22-1.49-1.87-3.24-4.23-.91-1.15-1.89-2.55-3.11-3.95-.6-.71-1.22-1.45-1.86-2.21-.67-.73-1.37-1.48-2.07-2.24-5.63-6.13-13.26-11.77-17.82-14.33-4.01-2.27-8.27-4.45-12.79-6.23-1.11-.5-2.28-.85-3.42-1.29-1.15-.42-2.3-.85-3.49-1.19-1.18-.36-2.36-.73-3.54-1.1-1.2-.31-2.4-.62-3.6-.93-9.64-2.45-19.68-3.45-29.19-3.38-16.64.13-33.09,3.2-47.04,8.68-6.99,2.71-13.31,6.09-18.71,9.88-2.68,1.92-5.12,3.95-7.31,6.05-2.16,2.12-4.02,4.32-5.65,6.5,1.01-2.24,2.53-4.93,4.57-7.57,2.05-2.62,4.57-5.21,7.23-7.48,5.33-4.58,11.21-7.75,14.4-9.06,12.92-5.28,25.73-7.83,37.81-9.04,12.1-1.14,23.55-.8,34.13.83,5.29.83,10.33,2.04,15.14,3.45,4.81,1.42,9.32,3.24,13.6,5.19,4.23,2.04,8.19,4.29,11.83,6.76,3.59,2.53,6.96,5.12,9.89,7.99,2.85,2.65,6.4,6.62,9.03,10.46.7.92,1.29,1.88,1.86,2.76.56.89,1.12,1.68,1.54,2.45.85,1.51,1.51,2.67,1.83,3.24Z"></path>
      </g>
      <g>
        <g>
          <path class="cls-19" d="M53.53,281.73c2.16,14.13,4.82,31.62,14.71,42.71,12.46,13.98,28.55,10.52,41.09,1.16,17.76-13.25,26.87-40.04,27.52-60.98.76-24.77-6.15-60.54-31.4-66.25-16.44-3.72-34.21,4.91-40.36,20.93-13.58,17.74-14.89,40.62-11.56,62.43Z"></path>
          <path class="cls-1" d="M53.47,281.74c-.39-.66-1.25-4.36-1.88-9.93-.61-5.56-1.02-13.02-.09-20.99.18-2,.56-4,.88-6.03.45-2.01.83-4.04,1.44-6.03.51-2.01,1.25-3.94,1.91-5.87.8-1.88,1.52-3.77,2.45-5.51.83-1.79,1.84-3.44,2.79-5.05.45-.82,1.02-1.54,1.51-2.29.25-.37.5-.74.75-1.1l.28-.42c.07-.07.12-.26.13-.28,1.22-3.3,2.89-6.01,4.36-8.2,5.38-7.66,14.26-13.2,24.13-14.87,4.94-.87,10.11-.68,15.13.53,1.27.28,2.51.73,3.75,1.15,1.21.51,2.44,1,3.58,1.65,2.33,1.23,4.51,2.74,6.45,4.49,3.94,3.45,7.03,7.68,9.47,12.1,1.22,2.22,2.31,4.49,3.23,6.81.96,2.31,1.76,4.66,2.47,7.02,2.85,9.45,4.11,19.07,4.49,28.45.15,4.1.09,8.22-.24,12.38-.32,4.14-1,8.2-1.8,12.23-.5,1.99-.88,4-1.49,5.96l-.84,2.94-.97,2.9-.49,1.45-.55,1.42-1.11,2.84-1.25,2.78c-.41.93-.83,1.85-1.31,2.74l-1.39,2.7c-.49.89-1.02,1.75-1.53,2.62-.98,1.76-2.19,3.4-3.3,5.07-2.41,3.24-4.95,6.38-7.94,9.09-1.41,1.43-3.05,2.63-4.6,3.89-1.6,1.19-3.25,2.28-4.97,3.28-3.43,1.98-7.1,3.58-10.97,4.54-3.86.97-7.93,1.27-11.88.68-3.95-.58-7.69-2.08-10.87-4.16-.77-.55-1.59-1.04-2.3-1.64-.7-.61-1.4-1.21-2.1-1.82-.67-.63-1.26-1.31-1.88-1.96-.3-.33-.62-.65-.91-.99l-.83-1.05c-2.19-2.8-3.94-5.8-5.32-8.82-2.74-6.08-4.26-12.19-5.32-17.99-1.05-5.81-1.63-11.33-2.15-16.51,1.53,4.47,3.13,10.06,5.12,15.9,2,5.82,4.42,11.93,7.67,17.1,1.62,2.58,3.38,4.96,5.33,6.91,1.98,1.93,3.96,3.64,6.01,4.77,4.01,2.47,7.87,3.02,10.55,3.26,2.71.22,5.53-.03,8.29-.79,2.76-.74,5.45-1.87,8.02-3.25l1.9-1.08,1.84-1.2c1.21-.82,2.33-1.74,3.49-2.61,1.08-.97,2.17-1.93,3.22-2.94.98-1.07,2.03-2.09,2.96-3.2,3.78-4.42,6.87-9.38,9.4-14.52,2.52-5.15,4.48-10.5,5.95-15.9,1.46-5.4,2.44-10.85,2.88-16.24.44-5.39.35-10.79,0-16.05-.77-10.51-2.81-20.66-6.65-29.67-.97-2.24-2.07-4.4-3.27-6.45-1.22-2.05-2.59-3.97-4.07-5.74-3-3.52-6.59-6.4-10.61-8.17-1.99-.92-4.08-1.54-6.22-1.93-1.08-.17-2.14-.4-3.22-.44l-1.61-.12c-.54-.04-1.07,0-1.61,0-4.28.04-8.46.89-12.3,2.41-7.71,3.01-13.86,8.79-17.21,15.63l-.58,1.3-.29.65-.21.48c-.09.18-.14.37-.27.53-.61.86-1.22,1.71-1.83,2.56-.59.77-1.06,1.61-1.57,2.42-.49.82-1.04,1.61-1.46,2.47-1.88,3.31-3.29,6.81-4.54,10.28-1.1,3.34-2.17,7.38-2.97,11.68-.82,4.3-1.26,8.88-1.48,13.18-.47,8.63.25,16.14.38,18.6Z"></path>
        </g>
        <g>
          <path class="cls-12" d="M47.76,275.87c-.01,19.17,4.58,33.23,13.56,41.02,8.53,7.4,20.04,6.69,28.38,2.31,28.9-15.19,33.15-56.17,27.09-84.73-4.07-19.19-20.38-37.86-41.82-28.62-24.35,10.49-27.2,54.76-27.21,70.02Z"></path>
          <path class="cls-1" d="M47.73,275.87c-.31-1.23-.52-13.16,1.72-26.75,1.11-6.78,2.84-13.96,5.28-20.26,2.4-6.31,5.54-11.68,8.36-15.1,2.45-3.04,5.47-5.81,9.04-7.87,1.83-.96,3.69-1.86,5.68-2.46,1.98-.64,4.04-1.12,6.16-1.3,4.23-.41,8.66.26,12.63,2.01,3.98,1.73,7.54,4.37,10.47,7.52,2.96,3.14,5.38,6.74,7.29,10.57,1.93,3.82,3.32,7.89,4.23,12.04,1.75,8.16,2.53,16.41,2.5,24.45-.01,7.03-.74,14.05-2.18,20.9-1.48,6.83-3.75,13.49-7.01,19.61-3.3,6.07-7.55,11.64-12.81,15.93-2.61,2.15-5.41,4.03-8.35,5.57-3,1.56-6.23,2.62-9.5,3.13-3.28.48-6.61.45-9.8-.22-3.18-.69-6.19-1.99-8.78-3.79-5.18-3.66-8.57-8.81-10.84-13.98-1.13-2.6-1.94-5.25-2.61-7.85-.62-2.62-1.11-5.19-1.41-7.73-.65-5.06-.75-9.9-.62-14.42.43,4.05.98,9.03,2.12,14.24.53,2.61,1.29,5.27,2.14,7.89.88,2.62,1.97,5.18,3.23,7.57,2.48,4.81,6.03,8.76,9.61,11.2,3.62,2.43,7.29,3.27,9.81,3.61,5.11.68,10.43-.35,15-2.65,4.66-2.39,8.88-5.5,12.37-9.26,3.54-3.71,6.37-7.98,8.65-12.44,2.29-4.46,3.94-9.16,5.22-13.88,2.48-9.46,3.29-19.03,3-28.23-.15-4.6-.58-9.12-1.25-13.53-.69-4.41-1.57-8.7-3.11-12.69-3.04-7.95-8.04-15.03-14.68-19.33-3.31-2.11-7-3.5-10.76-3.85-1.88-.18-3.75-.13-5.59.1-1.84.28-3.64.71-5.37,1.32-3.48,1.21-6.59,3.07-9.26,5.42-2.67,2.34-4.89,5.09-6.76,8.01-3.73,5.86-6.12,12.26-7.96,18.54-1.75,5.98-3.48,14.35-4.45,21.81-1,7.46-1.34,13.97-1.43,16.11Z"></path>
        </g>
        <g>
          <path class="cls-17" d="M52.84,303.4c7.73,12.3,23.67,11.33,34.18,3.67,13.25-9.67,20.06-30.74,20.58-45.84.56-16.27-2.16-45.64-22.73-49.48-10.63-1.98-21.47,1.3-29.49,15.89-6,10.92-10.96,26.66-10.97,43.58-.01,17.64,4.39,25.76,8.43,32.18Z"></path>
          <path class="cls-1" d="M52.82,303.42c-.39-.39-2.1-2.65-3.98-6.41-1.89-3.75-3.61-9.12-4.39-15.02-.42-2.95-.63-6.02-.7-9.07-.1-3.05,0-6.1.21-8.99.41-5.79,1.34-10.99,2.15-14.66,1.41-6.5,3.57-13.1,6.61-19.49,1.51-3.18,3.32-6.36,5.57-9.26,2.25-2.9,4.99-5.54,8.26-7.51,3.28-1.91,7.02-3.17,10.82-3.42,3.82-.27,7.54.09,11.22,1.3,3.65,1.21,6.94,3.42,9.49,6.16,1.29,1.36,2.43,2.83,3.4,4.38,1,1.53,1.83,3.14,2.58,4.75,2.57,5.69,3.95,11.71,4.75,17.68.79,5.98,1,11.94.76,17.83-.13,2.99-.51,5.92-.98,8.81-.55,2.87-1.15,5.71-2,8.46-1.6,5.51-3.79,10.76-6.59,15.54-2.79,4.77-6.18,9.14-10.36,12.47-4.13,3.39-8.99,5.56-13.85,6.48-2.43.49-4.89.54-7.26.38-2.38-.21-4.66-.83-6.77-1.67-4.18-1.86-7.41-5-9.4-8.44,2.21,2.83,5.7,5.65,10,7.04,2.16.65,4.47.95,6.79.94,2.32-.04,4.64-.46,6.85-1.07,2.21-.63,4.27-1.58,6.17-2.59.91-.58,1.85-1.07,2.66-1.7.41-.3.83-.58,1.22-.89.38-.32.75-.64,1.12-.95.36-.32.74-.6,1.07-.92.33-.33.65-.65.96-.97.31-.31.62-.62.92-.91.3-.3.55-.63.82-.92.52-.61,1.03-1.15,1.47-1.69.43-.55.82-1.05,1.18-1.5,2.86-3.63,5.15-7.68,7-11.86,1.85-4.18,3.25-8.5,4.26-12.84,1.02-4.35,1.6-8.7,1.75-13.03.16-4.35.04-8.64-.33-12.85-.39-4.2-1.03-8.31-2.08-12.25-1.03-3.94-2.47-7.7-4.44-11.08-2-3.34-4.55-6.31-7.72-8.29-3.14-2.05-6.77-2.99-10.42-3.25-.91-.11-1.81-.06-2.71-.09-.9.07-1.8.07-2.67.23-1.77.2-3.47.71-5.1,1.3-3.24,1.29-6.11,3.3-8.5,5.72-2.4,2.42-4.33,5.21-5.95,8.11-1.64,2.9-3.02,5.9-4.24,8.9-4.83,12.03-6.89,24.15-7,35.41,0,2.68.06,5.86.34,9.15.28,3.29.82,6.69,1.64,9.8,1.58,6.26,4.53,11.14,5.4,12.75Z"></path>
        </g>
        <path class="cls-1" d="M53.89,275.45c-.15-.15-.27-1.65-.3-3.38-.04-1.73,0-3.7-.01-4.8-.09-3.88.37-8.32,1.05-12.29.57-3.47,1.43-6.85,2.39-9.87.95-3.07,2.23-5.66,3.39-7.64-.11,2.2-.89,6.02-1.37,7.28-2.09,5.21-3.16,10.08-3.72,14.4-.57,4.33-.66,8.12-.88,11.43-.1,1.57-.47,4.31-.55,4.85Z"></path>
        <path class="cls-1" d="M66.37,227.92c.06-.23.71-1.26,2.2-2.24.73-.51,1.71-.9,2.82-1.18,1.12-.25,2.37-.26,3.63-.05,2.54.41,4.97,1.87,6.72,3.62,1.79,1.76,2.84,3.75,3.59,5.14,2.58,5.03,3.46,11.06,3.67,16.96.1,2.97.02,5.94-.17,8.87-.1,1.46-.23,2.92-.37,4.35-.08.72-.16,1.43-.24,2.14-.12.73-.21,1.47-.34,2.19-.45,2.51-1.15,4.93-1.97,7.29-.83,2.35-1.8,4.64-2.95,6.81-1.14,2.17-2.42,4.26-3.93,6.16-1.5,1.9-3.15,3.67-5.12,5.06-1.95,1.39-4.15,2.49-6.48,2.88-2.32.43-4.84.1-6.76-1.07-1.96-1.11-3.27-2.8-4.18-4.44-.91-1.66-1.44-3.36-1.75-4.96.79,1.29,1.77,2.82,3.04,4.17.61.69,1.34,1.29,2.06,1.82.76.49,1.53.91,2.32,1.14,3.17.98,6.15-.62,7.67-1.26,3.14-1.47,5.83-4.11,7.92-7,2.12-2.89,3.77-6.04,5.06-9.2,1.28-3.17,2.21-6.39,2.71-9.54.47-3.19.76-6.34.91-9.36.27-6.06-.05-11.75-1.22-16.83-.59-2.53-1.45-4.89-2.6-6.94-.25-.54-.62-.99-.92-1.48-.3-.5-.67-.91-1.02-1.35-.75-.82-1.57-1.55-2.45-2.16-.86-.54-1.92-1.13-3.12-1.5-1.19-.38-2.52-.53-3.76-.37-2.54.28-4.38,1.87-4.95,2.33Z"></path>
      </g>
      <g>
        <path class="cls-19" d="M175.98,181.23c2.05-2.65-2.22-9.19-3.79-13-3.51-6.1-13.5-24.35-22.16-21.82-6.65,1.95-16.15,16.91-21.13,41.12-2.23,10.85-.11,11.29,8.01,6.81,9.6-5.29,15.73-7.21,24.36-10.08,9.47-3.15,13.27-1.17,14.71-3.03Z"></path>
        <path class="cls-1" d="M176,181.25c-.04.14-.33.68-1.13.93-.76.27-1.8.35-3,.47-2.4.19-5.52.67-8.75,1.68-3.21,1.07-6.7,2.3-9.81,3.46-3.12,1.17-5.87,2.38-7.79,3.34-1.69.85-3.39,1.76-5.1,2.71-1.71.94-3.38,1.99-5.24,2.98-.93.48-1.88.96-3,1.32-.56.18-1.15.34-1.9.37-.86.04-1.8-.23-2.46-.84-.68-.57-1.05-1.59-1.17-2.19-.15-.67-.17-1.27-.18-1.86,0-1.16.11-2.25.25-3.32.28-2.14.73-4.18,1.16-6.23.41-2.05.95-4.08,1.46-6.1,1.08-4.03,2.36-7.96,3.82-11.73,1.27-3.3,2.78-6.51,4.52-9.6,1.76-3.08,3.75-6.04,6.37-8.61.62-.66,1.4-1.23,2.13-1.82.83-.52,1.62-1.07,2.65-1.42.94-.43,2.12-.57,3.17-.53,1.08.02,2.08.31,3,.65,1.82.73,3.31,1.78,4.61,2.91,1.3,1.14,2.44,2.35,3.49,3.6,4.15,5.01,7.06,10.31,9.64,15.21l.48.92c.03.06.07.12.09.19l.07.18.09.23.18.45c.26.61.52,1.21.78,1.81.53,1.21,1.07,2.4,1.54,3.61.47,1.21.88,2.42,1.1,3.69.1.64.17,1.29.09,1.96-.03.67-.33,1.36-.74,1.92.6-1.19.32-2.45-.09-3.57-.43-1.14-1.06-2.26-1.75-3.41-.69-1.14-1.45-2.3-2.2-3.51-.38-.61-.75-1.22-1.11-1.88l-.13-.25-.07-.12s-.01-.01-.03-.03c-.01,0-.07-.08-.12-.16l-.15-.22-.6-.87c-3.15-4.65-6.18-8.83-7.71-11.04-1.52-2.24-3.16-4.36-5.02-6.08-1.84-1.7-4-3.07-6.1-2.97-2.06.12-4.16,1.67-5.85,3.4-1.71,1.76-3.16,3.77-4.48,5.8-2.58,4.14-4.56,8.49-6.18,12.8-1.61,4.32-2.91,8.61-3.89,12.82-.51,2.1-.94,4.2-1.35,6.24-.36,2.03-.7,4.1-.55,5.92.1.96.31,1.42.85,1.57.14.03.23.04.41.02.18,0,.38-.04.58-.08.41-.08.84-.24,1.26-.4,1.73-.69,3.38-1.64,5.05-2.57,3.35-1.87,6.7-3.51,10.03-4.89,3.32-1.38,6.61-2.5,9.78-3.49,1.52-.48,3.26-1.03,5.19-1.53,1.92-.49,3.96-.85,5.87-1.01,1.92-.18,3.7-.12,5.12-.1.71,0,1.33-.02,1.82-.15.51-.1.81-.4,1.01-.58Z"></path>
      </g>
      <g>
        <path class="cls-19" d="M229.83,154.44c6.6-13.95,13.36-7.05,21.22,5.15,8.4,13.02,15.4,30.85,15.81,37.02-1.28,3.5-4.7-.56-6.54-1.53-37.62-24.01-50.62-1-30.5-40.64Z"></path>
        <path class="cls-1" d="M229.86,154.45c.02.68-2.5,5.85-5.23,11.86-1.32,3-2.81,6.28-3.33,9.28-.02.36-.07.73-.07,1.07.06.32,0,.68.13.94l.13.41c.07.12.15.23.22.34.1.25.38.39.55.59.9.68,2.11,1,3.07,1.24,2.82.67,5.94,1.15,9.03,1.89,3.11.72,6.25,1.63,9.33,2.75,6.2,2.21,12.14,5.28,17.63,8.67l-.13-.08c.98.55,1.52,1.04,2.13,1.47.29.22.57.43.83.6.13.09.26.18.38.24l.16.09h.02c.08.01.15.02.1-.17l-.15-.74c-.08-.38-.15-.75-.26-1.14-.19-.77-.4-1.54-.64-2.31-.46-1.55-.99-3.09-1.54-4.61-1.11-3.05-2.35-6.06-3.64-8.99-2.59-5.86-5.44-11.45-8.5-16.53-1.53-2.55-3.11-5.01-4.75-7.24-1.64-2.21-3.4-4.28-5.37-5.48-.99-.58-1.99-.86-2.95-.73-.97.14-1.92.69-2.75,1.43-1.65,1.51-2.87,3.49-3.93,5.35.24-.95.54-2.01,1-3.11.45-1.1,1.02-2.25,1.88-3.34.86-1.05,2.05-2.14,3.71-2.5,1.65-.4,3.4.07,4.76.77,1.39.7,2.55,1.61,3.57,2.53,1.02.92,1.9,1.87,2.68,2.78,1.56,1.81,2.68,3.46,3.39,4.63,4.93,8.31,8.69,16.56,11.79,24.54,1.52,4,2.93,7.91,3.88,11.89.13.49.23.99.32,1.5l.14.75c.05.29.07.64.09.96l.02.49c0,.16.03.32-.07.47-.15.29-.27.6-.49.84-.38.52-1,.88-1.65.86-.64,0-1.28-.22-1.87-.53-.51-.29-.91-.56-1.31-.86-.79-.58-1.55-1.22-2.22-1.6l-.04-.02h-.02c-8.25-5.23-16.6-8.84-24.67-10.95-2.01-.55-4.01-1.01-5.98-1.45-1.98-.46-3.93-.85-5.91-1.56-.97-.39-2.03-.82-2.88-1.79-.87-.95-1.18-2.28-1.15-3.38.05-.53.08-1.07.19-1.57.12-.48.21-.99.36-1.44.15-.46.3-.91.45-1.36.17-.43.34-.87.51-1.3,1.15-2.9,3.16-6.56,4.99-9.74,1.84-3.17,3.48-5.87,4.03-6.75Z"></path>
      </g>
      <path class="cls-1" d="M151.15,150.85c.19-.04,1.27.7,2.27,1.81,1.03,1.09,1.97,2.5,2.52,3.26.99,1.34,1.87,2.89,2.74,4.42.86,1.53,1.76,3.04,2.62,4.5,1.52,2.54,2.92,5.19,3.79,7.81.43,1.29.77,2.62.78,3.9.04,1.27-.29,2.49-.91,3.33.09-1.02-.08-2.24-.45-3.3-.35-1.06-.79-2.02-.91-2.58-.5-2.28-1.37-4.35-2.3-6.24-.94-1.89-1.94-3.6-2.86-5.23-1.82-3.28-3.32-6.11-4.88-8.39-.38-.53-.86-1.3-1.34-1.94-.48-.64-.94-1.18-1.09-1.36Z"></path>
      <path class="cls-1" d="M239.31,151.95c.47.06,3.71,4.87,5.01,6.7,2.36,3.18,4.7,7.08,6.62,10.71,1.68,3.18,3.11,6.47,3.99,9.65.44,1.59.73,3.15.79,4.64.06,1.47-.13,2.91-.73,4.01.16-2.37-1.33-5.84-1.58-7.24-.49-2.77-1.4-5.33-2.39-7.66-.99-2.33-2.11-4.44-3.2-6.39-2.21-3.89-4.4-7.1-6.14-10.02-.85-1.38-2.1-3.91-2.36-4.4Z"></path>
      <path class="cls-6" d="M130.31,214.94s24.3-25.18,77.55-23.41c22.25.74,49.17,12.51,49.17,12.51,0,0-25.36-17.43-64.53-14.49-42.21,3.16-63.45,23.14-63.45,23.14l1.27,2.26Z"></path>
      <path class="cls-15" d="M83.86,216.19c-1.12-.05-2.69-.11-3.64.56s-1.54,2.09-1.04,3.21c.29.64.87,1.06,1.44,1.39,1.25.71,2.91,1.55,4.19,2.18,3.84,1.9,6.63,5.18,8.08,9.55.39,1.16.67,2.39,1.32,3.39s1.8,1.74,2.87,1.39c1.42-.47,1.87-2.45,1.88-4.1,0-9.94-8.84-17.3-15.1-17.58Z"></path>
      <path class="cls-15" d="M95.41,243.1c-.15.36-.2.74-.22,1.13-.04.49-.03,1.02.25,1.43.2.3.53.5.85.68.39.21.8.4,1.24.49.99.21,2.08-.12,2.79-.84s1.02-1.81.8-2.8c-.05-.21-.12-.41-.23-.59-1.13-1.84-4.69-1.4-5.47.51Z"></path>
      <path class="cls-13" d="M91.39,207.81c-.67.11-1.48.45-1.51,1.15-.02.39.24.74.5,1.02,1.53,1.65,3.74,2.39,5.69,3.46,3.06,1.68,5.63,4.29,7.3,7.41.96,1.8,1.88,3.98,3.82,4.49.49.13,1.03.12,1.47-.13,1.19-.67.98-2.49.49-3.79-2.64-7-9.75-14.97-17.76-13.62Z"></path>
      <polygon class="cls-18" points="90.01 306.92 97.08 312.22 100.26 309.39 93.19 304.01 90.01 306.92"></polygon>
      <path class="cls-7" d="M105.77,313.21s-12.72,13.78-28.63,13.7l-4.59-2.99s5.3,1.3,14.54-2.23,16.03-10.71,16.03-10.71l2.65,2.24Z"></path>
      <path class="cls-7" d="M121.19,256.77s.13,28.99-12.19,47.35l2.25,1.26s16.31-18.23,9.94-48.61Z"></path>
    </g>
  </g>
  <g id="funky">
    <g id="bottom-4" data-name="bottom">
      <path class="cls-10" d="M103.61,205.47c5.47,4.01,14.19,12.84,18.32,30.16.3,1.27,1.51,2.1,2.8,1.94l1.73-.22c2.09-.26,3.51-2.26,3.05-4.32-1.71-7.79-7.43-25.04-24.97-29.48-1.17-.3-1.91,1.21-.94,1.92Z"></path>
      <path class="cls-7" d="M285.11,218.82s10.46,12.61,18.64,38.61c8.18,26,5.19,48.05,5.19,48.05l-.4.45c-1.51,1.7-3.47,2.93-5.66,3.56h0s1.29-24.96-2.81-41.81c-4.09-16.85-13.18-32.32-13.18-32.32h0c.46-2.92.39-5.9-.2-8.8l-1.58-7.74Z"></path>
      <path class="cls-9" d="M283.18,210.1s15.73,12.13,22.75,30.71c8.02,21.25,10.05,48.34,10.05,48.34,0,0,3.41-30.52-8.53-53.45-11.94-22.94-26.54-31.84-26.54-31.84l2.27,6.26Z"></path>
      <path class="cls-16" d="M137.24,150.06c-.72.67-1.8-.24-1.27-1.07,2.98-4.68,7.79-10.73,13.17-11.55,5.79-.89,10.49,4.06,13.09,7.67.43.6-.32,1.32-.91.89-2.78-2.02-7.1-4.35-11.53-3.65-4.24.67-9.12,4.51-12.55,7.71Z"></path>
      <path class="cls-16" d="M222.73,152.57c-.72.67-1.8-.24-1.27-1.07,2.98-4.68,7.79-10.73,13.17-11.55,5.79-.89,10.49,4.06,13.09,7.67.43.6-.32,1.32-.91.89-2.78-2.02-7.1-4.35-11.53-3.65-4.24.67-9.12,4.51-12.55,7.71Z"></path>
      <path class="cls-2" d="M232.85,150.86s11.54,14.78,12.79,34.62c0,0-14.3-4.19-19.13-4.91-4.83-.72-6.43-2.91-4.42-7.7,7.73-18.43,10.75-22.01,10.75-22.01Z"></path>
      <path class="cls-2" d="M140.16,158.17s11.31,10.04,15.71,26.8c0,0-6.64,2.6-10.62,4.06s-11.48,6.42-14.21,6.63c-2.72.21-2.51-1.05-1.47-6.07s4.72-23.88,10.58-31.42Z"></path>
      <path class="cls-6" d="M54.76,285.58s-.5,14.61,9.21,14.61c10.87,0,15.09-12.39,15.09-12.39,0,0-5.76,9.06-15.09,8.16-7.2-.69-9.21-10.38-9.21-10.38Z"></path>
      <path class="cls-6" d="M77.49,225.17s13.19,3.5,14.31,21.67c1.12,18.17-4.21,22.7-4.21,22.7,0,0,3.9-22.17-.74-32.87-4.35-10.02-9.36-11.5-9.36-11.5Z"></path>
      <g>
        <g>
          <path class="cls-5" d="M147.89,351.49c-.79,3.13.14,6.49,2.54,8.65,2.55,2.3,6.03,3.88,8.95,4.46,5.42,1.09,12.21,3.04,15.91-1.61,6.17-7.76,4.92-16.38-1.46-19.29-4.26-1.94-9.63-4.86-14.45-4.73-5.51.15-8.93,3.17-10.27,7.75l-1.2,4.77Z"></path>
          <path class="cls-1" d="M147.84,351.48c-.18-.24-.11-1.24.12-2.7.12-.73.24-1.56.46-2.49.24-.97.61-1.97,1.16-2.96,1.07-1.99,3-3.73,5.08-4.61,1.03-.46,2.06-.75,3.01-.92.95-.19,1.79-.26,2.54-.31,2.6-.13,5.18.45,7.62,1.23,2.45.79,4.78,1.82,7.04,2.75,1.43.63,2.78,1.53,3.92,2.69,1.1,1.19,1.95,2.59,2.51,4.07.53,1.49.78,3.03.81,4.54-.01,1.49-.17,2.97-.55,4.34-.62,2.41-1.72,4.6-3.06,6.54l-.52.71c-.19.24-.31.46-.58.74l-.73.79c-.26.25-.55.47-.83.7-1.15.88-2.49,1.54-3.79,1.85-2.63.66-5.01.45-7.12.11-2.13-.34-4.05-.87-5.83-1.32-2.06-.48-4.02-1.32-5.72-2.32-1.72-1.02-3.23-2.19-4.54-3.64-1.37-1.54-2.14-3.4-2.37-5.16-.24-1.77.03-3.44.59-4.84.28,1.45.78,3.01,1.63,4.32.83,1.32,1.98,2.34,3.14,2.92,2.63,1.44,5.33,2.17,6.61,2.8.33.16.65.31.98.44l.49.19.61.2c.79.26,1.58.52,2.36.77,1.53.48,3.01.88,4.44,1.09,1.43.21,2.81.22,4.03-.1,1.24-.31,2.22-.99,3.06-2,1.79-2.16,3.12-4.64,3.55-7.19.15-.63.15-1.27.2-1.89-.03-.62-.03-1.25-.16-1.84-.22-1.19-.61-2.33-1.28-3.26-.65-.94-1.47-1.71-2.4-2.29-.89-.5-2.14-1-3.26-1.49-2.25-.98-4.4-1.88-6.48-2.5-2.1-.61-4.06-.94-5.93-.76-1.89.17-3.59.7-4.98,1.65-.64.47-1.38,1.08-2.05,1.88-.68.78-1.28,1.77-1.74,2.73-.89,2.12-1.73,3.94-2.02,4.53Z"></path>
        </g>
        <path class="cls-11" d="M150.62,353.06s6.66,4.63,11.55,5.74c10.6,2.4,14.58-.32,14.58-.32,0,0-1.74,4.87-6.22,5.6-3.72.61-9.5-.25-13.9-1.93-5.12-1.96-7.16-3.8-9.42-5.97,0,0,.95.1,3.42-3.13Z"></path>
        <path class="cls-4" d="M154.41,346.78s2.4-1.99,5.94-1.74,13.88,4.24,17.65,6.8c0,0,.67-4.28-4.81-6.82-5.48-2.54-8.49-4.12-12.53-4.43s-6.67,1.35-6.67,1.35c0,0,1.29,1.25.41,4.85Z"></path>
      </g>
      <path class="cls-10" d="M122.81,241.4c-.19.44-1.02,5.82,1.57,7.29.88.5,2.59.46,3.57.32,1.72-.24,3.19.04,4.22-1.42.29-.41.68-7.21-1.74-7.85-1.92-.51-6.66-.63-7.62,1.66Z"></path>
      <path class="cls-8" d="M134.54,170.37s6.44,7.52,11.85,18.12c0,0-7.74,3.39-11.4,5.53-3.66,2.14-6.68,3.64-5.89-1.52.8-5.26,2.32-17.22,5.44-22.13Z"></path>
      <path class="cls-8" d="M228.05,159.24s6.23,10.85,4.44,22.55c0,0-5.5-1.08-7.41-1.43s-5.87-1.35-2.72-8.75c2.95-6.93,5.69-12.37,5.69-12.37Z"></path>
      <path class="cls-3" d="M54.92,264.9l16.23,25.24s6.19-1.33,9.72-11.27l-21.43-36.23s-4.83,13.07-4.52,22.26Z"></path>
      <path class="cls-3" d="M63.72,232.67l22.03,31.1s1.73-11.23.22-19.01l-14.04-18.79s-6.91-1.08-8.21,6.7Z"></path>
      <g>
        <g>
          <path class="cls-17" d="M90.08,294.36c5.41,11.41,17.62,36.13,59.42,49.54,7.04-3.56,8.88.72,4.36,7.83-5.05,7.94-9.15,5.65-8.39-1.17-30.71-9.86-44.99-21.79-60.36-50.37-3.01,2.9-4.68,2.05-6.26.38-4.14-4.4,1.03-8.71,3.9-12.43,4.92-6.39,9.6-.12,7.34,6.22"></path>
          <path class="cls-1" d="M90.05,294.35c-.06-.38.54-1.92.21-4.25-.09-.57-.23-1.19-.5-1.79-.1-.32-.32-.58-.47-.89-.21-.26-.4-.57-.68-.77-1.02-1-2.75-.87-4.01.32-.32.28-.65.56-.92.92-.29.34-.58.68-.88,1.09-.6.77-1.25,1.53-1.87,2.3-1.22,1.53-2.51,3.18-2.86,4.98-.17.89-.04,1.77.37,2.56.12.19.22.39.35.58l.44.53c.3.35.66.69,1,.94.71.52,1.39.61,2.13.33.18-.09.37-.16.55-.28l.14-.08s.05-.03.11-.07l.1-.08.41-.32c.55-.44,1.07-.93,1.57-1.4l.08.02.07.12.13.24.27.47c.18.31.35.62.53.93.31.55.62,1.09.92,1.62.49.84.96,1.66,1.41,2.44.95,1.52,1.81,2.89,2.55,4.06,3.12,4.73,6.57,9.49,10.54,13.91,3.96,4.43,8.47,8.47,13.45,11.9,4.98,3.44,10.39,6.27,15.95,8.65,1.4.57,2.8,1.15,4.19,1.71,1.42.52,2.83,1.03,4.23,1.55,1.4.53,2.83.95,4.23,1.43,1.13.38,2.26.75,3.39,1.13l.26.09v.27s-.05.54-.05.54l-.06,1.09-.03.54c0,.08-.02.19,0,.32v.12s.02.46.02.46c.03.53.11,1.03.23,1.43.05.23.15.34.21.53.09.06.14.25.19.23.09.08-.02.05.19.02.17,0,.55-.2.91-.45,1.53-1.15,3.01-3.29,4.06-5.32.54-1.02.95-2.08,1.11-3.01.1-.47.07-.85.04-1.1-.08-.2-.08-.13-.08-.18-.08.02-.07-.06-.25-.05l-.21-.03-.29.03c-.18,0-.42.05-.65.11l-.35.08-.37.13c-.25.1-.49.15-.75.28l-1.34.61c-.14.05-.28.16-.43.17l-.44-.16-.85-.3-.97-.34c-9.65-3.22-18.73-7.51-26.64-12.78-7.9-5.28-14.7-11.44-19.78-18.11-5.19-6.59-8.71-13.51-11.31-19.74,1.67,2.56,3.66,5.74,6.01,8.98,2.36,3.24,4.98,6.6,7.83,9.58.67.78,1.42,1.48,2.13,2.19.72.7,1.4,1.43,2.11,2.09.72.65,1.43,1.29,2.12,1.91.68.62,1.34,1.24,2.03,1.77,1.36,1.08,2.55,2.15,3.68,3.01,1.14.85,2.12,1.61,2.91,2.26,5.98,4.7,12.46,8.44,19.03,11.53,1.66.74,3.31,1.47,4.94,2.2,1.68.63,3.35,1.25,5,1.87.7.26,1.4.52,2.1.78l.88-.38c.45-.16.9-.32,1.36-.45.95-.22,1.95-.41,3.09-.16.29.1.57.2.84.33.26.19.53.37.74.6.18.25.39.51.51.78.1.27.21.56.26.83.3,2.19-.49,3.91-1.24,5.52-.8,1.6-1.75,3.05-2.86,4.42-.27.35-.56.68-.88.99l-.46.48-.52.44c-.69.58-1.52,1.1-2.56,1.3-.27.04-.52.1-.81.04-.28-.03-.57-.05-.83-.2-.27-.11-.53-.23-.73-.43-.21-.18-.43-.36-.56-.58-.64-.84-.86-1.77-.99-2.64-.06-.44-.11-.88-.1-1.31v-.53s.02-.37.02-.37c0-.12.04-.27,0-.36l-.35-.12-.82-.28c-1.53-.53-3.06-1.01-4.55-1.56-1.49-.56-2.97-1.11-4.44-1.65-1.45-.6-2.89-1.2-4.32-1.79-5.68-2.46-11.02-5.29-15.84-8.6-4.83-3.29-9.12-7.06-12.87-11.09-3.77-4.01-6.93-8.31-9.78-12.58-.7-1.08-1.42-2.13-2.07-3.21-.65-1.08-1.29-2.15-1.93-3.22-1.22-1.99-2.66-4.84-2.93-5.13-.13.12-.26.23-.39.33-.07.06-.14.1-.21.15l-.05.04s.03-.01-.05.03l-.29.16c-.77.43-1.81.73-2.85.51-1.03-.23-1.78-.82-2.36-1.37-.29-.27-.55-.57-.8-.9l-.38-.48-.31-.55c-.71-1.2-.94-2.96-.43-4.45.49-1.49,1.38-2.74,2.32-3.9.95-1.16,1.98-2.23,2.92-3.32.96-1.09,2.05-2.36,3.57-2.89.39-.11.76-.25,1.18-.23.2,0,.4-.03.6,0l.58.14c.2.03.36.14.53.23.16.1.34.17.48.29.26.26.57.46.75.76.85,1.11,1.13,2.35,1.25,3.43.15,2.19-.47,3.75-.73,4.49Z"></path>
        </g>
        <path class="cls-6" d="M81.42,290.51s-2.43,3.25-1.03,6.23c1.64,3.49,4.48,2.55,4.48,2.55,0,0-1.26,1.42-2.46,1.89-1.55.6-3.16-.58-4.27-2.46s1.28-5.99,3.28-8.21Z"></path>
        <path class="cls-14" d="M85.64,287.16c-.56.14-1.02.59-1.26,1.12s-.26,1.14-.15,1.71c.31,1.67,1.79,3.05,3.48,3.24.49.06,1.02.01,1.42-.27.33-.23.54-.59.67-.97.86-2.43-1.55-5.47-4.17-4.83Z"></path>
      </g>
    </g>
  </g>
</svg>