<svg xmlns="http://www.w3.org/2000/svg" id="bucket-hat" viewBox="0 0 380 600">
  <defs>
    <style>
      .cls-1 {
        fill: #e2bc44;
      }

      .cls-1, .cls-2, .cls-3, .cls-4, .cls-5, .cls-6 {
        stroke-width: 0px;
      }

      .cls-2 {
        fill: #fedc56;
      }

      .cls-3 {
        fill: #ffeaa9;
      }

      .cls-4 {
        fill: #000;
      }

      .cls-5 {
        fill: #bfa640;
      }

      .cls-6 {
        fill: #88bf00;
      }
    </style>
  </defs>
  <path class="cls-2" d="M302.69,263.62c3.19-6.44,1.12-18.25-.43-25.25-58.03-12.64-95.12-25.54-143.37,19.66-11.36,8.66-27.59,16.59-41.02,21.59-18.38,6.84-29.51,12.27-37.12,19.12-16.1,13.52-18.35,30.58-39.01,38.65-6.11,1.71-14.7,2.39-18.99-2.92-2-4.78,3.82-10.3,6.43-13.56,13.16-15.58,22.02-33.65,24.3-53.9,3.18-22.35,1.4-44.68,12.87-61.18,26.88-32.16,85.56-48.65,138.35-48.65,54.24-.37,19.23,27.63,93.13,61.91,4.99,3.61,35.22,11.47,36.76,19.39,2.51,12.85-22.65,21.84-31.88,25.16Z"></path>
  <path class="cls-4" d="M323.98,246.5c-.79-.26-2.97-1.54-6.52-3.06-3.55-1.52-8.53-3.12-14.63-4.4-6.09-1.34-13.29-2.3-21.14-3.72-3.92-.71-8.02-1.61-12.13-2.77-2.05-.49-4.13-.98-6.24-1.48l-1.58-.38-1.61-.3c-1.07-.2-2.15-.41-3.24-.61-8.68-1.58-17.78-2.48-26.8-2.18-9.02.27-17.91,1.81-26.03,4.42-8.14,2.6-15.43,6.33-21.7,10.21-.78.49-1.55.98-2.32,1.45-.38.24-.76.48-1.13.71-.37.25-.72.51-1.08.77-1.42,1.02-2.79,2.02-4.12,2.97-1.35.92-2.53,1.99-3.72,2.94-1.17.96-2.3,1.88-3.37,2.76-1.81,1.65-3.63,3.31-5.45,4.97l-.74.68c-.18.18-.38.33-.55.43l-.4.27-1.58,1.06c-1.05.71-2.11,1.42-3.16,2.13-1.06.71-2.12,1.42-3.18,2.14-1.06.72-2.19,1.34-3.28,2.01-2.22,1.3-4.39,2.7-6.67,3.94-2.29,1.22-4.59,2.44-6.9,3.66-2.36,1.12-4.73,2.23-7.11,3.36-2.41,1.02-4.83,2.09-7.26,3.08-2.43.97-4.86,1.94-7.3,2.92-4.89,1.89-9.61,3.93-14.2,6.21l-3.34,1.87-1.67.94-1.59,1.07-3.18,2.13c-1.04.74-2.01,1.59-3.02,2.38-8.01,6.43-14.91,14.42-21.42,22.73l-4.73,6.39-1.18,1.6c-.12.14-.59.87-.99,1.2l-.75.74c-1.02.99-2.08,1.96-3.21,2.88-2.25,1.85-4.78,3.51-7.55,4.75-2.74,1.24-5.78,2.08-8.75,2.4-2.99.33-6.01.32-9.13-.32-.78-.16-1.56-.37-2.35-.64-.38-.11-.83-.33-1.25-.51l-.63-.29c-.21-.11-.45-.27-.67-.4-.45-.3-.88-.54-1.35-1.02-.46-.44-.89-.89-1.21-1.44-.17-.27-.34-.53-.48-.81-.12-.29-.23-.59-.33-.88-.23-.59-.26-1.23-.34-1.85-.03-.61.03-1.25.11-1.83.11-.49.22-1.03.37-1.47.3-.9.67-1.69,1.05-2.42.78-1.44,1.64-2.66,2.49-3.8l2.45-3.2c.8-1.04,1.56-2.1,2.34-3.15,6.13-8.45,11.47-17.35,15.22-26.73,1.9-4.68,3.32-9.5,4.36-14.34,1-4.87,1.57-9.86,1.99-14.89.36-4.41.61-8.87.94-13.39.37-4.49.74-8.97,1.11-13.45.41-4.52.94-9.14,2.02-13.78,1.04-4.63,2.75-9.35,5.56-13.63.35-.53.76-1.04,1.14-1.55.38-.52.77-1.03,1.23-1.49l1.32-1.42c.43-.42.85-.78,1.28-1.17,1.7-1.54,3.39-3.07,5.09-4.61,3.57-2.84,7.07-5.75,10.84-8.25,1.85-1.3,3.69-2.62,5.63-3.75,1.92-1.18,3.84-2.35,5.75-3.53,3.95-2.12,7.82-4.37,11.87-6.21,16.01-7.8,32.83-13.05,49.61-16.68,16.8-3.54,33.66-5.15,50.11-5.18,8.28,0,16.76.73,24.8,3.63,3.99,1.46,7.84,3.54,11.15,6.23,3.3,2.7,6.08,5.87,8.39,9.12,2.34,3.25,4.34,6.54,6.37,9.65,2.02,3.12,4.08,6.09,6.36,8.79,2.27,2.71,4.77,5.14,7.49,7.28,2.72,2.13,5.64,3.92,8.74,5.65,6.15,3.43,12.43,6.56,18.54,9.64,6.13,3.09,12.12,6.11,17.96,9.06,2.92,1.5,5.79,2.97,8.63,4.5,2.83,1.54,5.64,3.08,8.25,5.13,1.28,1.05,2.57,2.25,3.44,3.92.89,1.67.98,3.77.49,5.41-.44,1.68-1.23,3.09-2.04,4.41-.82,1.32-1.72,2.53-2.63,3.71,1.38-2.28,2.92-4.72,3.7-7.69.38-1.47.39-3.16-.28-4.6-.67-1.44-1.85-2.54-3.1-3.46-2.56-1.83-5.51-3.18-8.53-4.57-3.03-1.37-6.19-2.71-9.38-4.1-6.41-2.76-13.05-5.62-19.76-8.5-6.71-2.94-13.47-5.9-20.07-9.33-.82-.45-1.65-.87-2.47-1.36-.82-.49-1.64-.98-2.45-1.47-.79-.54-1.58-1.07-2.36-1.6-.77-.55-1.51-1.15-2.27-1.72-2.96-2.36-5.62-5.01-7.97-7.77-4.72-5.53-8.15-11.38-11.66-16.07-3.47-4.73-7.1-8.28-10.97-10.53-3.82-2.32-7.7-3.51-10.93-4.35-1.62-.44-3.31-.71-4.98-1.02-1.7-.21-3.39-.48-5.12-.59-3.43-.33-6.91-.35-10.45-.33-1.76,0-3.52.01-5.27.02-1.75.05-3.5.15-5.25.23-1.75.09-3.49.14-5.23.26-1.74.15-3.47.3-5.2.46-13.84,1.26-27.38,3.72-40.41,7.31-13.01,3.6-25.54,8.28-37.2,14.24-11.65,5.95-22.48,13.1-31.87,21.59l-1.77,1.58c-.29.26-.61.52-.86.79l-.76.81c-.25.27-.52.53-.75.81l-.68.88c-.22.3-.46.58-.67.89l-.59.95c-1.58,2.53-2.74,5.35-3.6,8.27-1.73,5.86-2.35,12.05-2.91,18.21-.27,3.09-.54,6.18-.81,9.25-.23,3.07-.46,6.13-.68,9.17-.44,6.11-.95,12.23-2.02,18.25-1.04,6.04-2.78,11.9-4.97,17.51-2.23,5.59-4.9,10.94-7.92,16.01-2.99,5.09-6.31,9.9-9.77,14.54-.88,1.15-1.75,2.29-2.62,3.43-.86,1.12-1.69,2.22-2.38,3.34-.67,1.1-1.26,2.3-1.37,3.27-.12.87.21,1.74.95,2.23.77.59,2.02,1.02,3.26,1.31,1.25.28,2.55.43,3.86.48,2.62.08,5.29-.21,7.77-.9,2.5-.71,4.87-1.81,7.04-3.24,2.18-1.42,4.18-3.15,6.07-5.01l.34-.34c.07-.06.15-.16.17-.2l.6-.81,1.23-1.65c.82-1.1,1.63-2.19,2.45-3.29.81-1.09,1.63-2.18,2.44-3.27.82-1.08,1.72-2.11,2.57-3.16.86-1.05,1.72-2.09,2.58-3.13.87-1.03,1.68-2.11,2.63-3.08,1.84-1.98,3.67-3.94,5.5-5.9,1.97-1.83,3.93-3.66,5.88-5.48,1.05-.83,2.09-1.66,3.14-2.49l1.57-1.24c.52-.42,1.04-.83,1.6-1.19,1.11-.74,2.21-1.47,3.32-2.21.56-.36,1.1-.74,1.66-1.09l1.73-.96c1.15-.64,2.31-1.28,3.45-1.92,1.18-.56,2.36-1.12,3.54-1.67,4.72-2.21,9.5-4,14.17-5.83,4.66-1.82,9.25-3.65,13.68-5.7,4.46-1.98,8.74-4.25,12.96-6.52,2.07-1.21,4.13-2.42,6.18-3.63,1.04-.58,2.04-1.23,3.02-1.89.99-.65,1.98-1.3,2.97-1.95.99-.65,1.97-1.29,2.96-1.94l1.36-.89,1.2-1.07c1.8-1.59,3.56-3.2,5.37-4.74,1.86-1.48,3.72-2.96,5.56-4.43,1.89-1.42,3.85-2.74,5.76-4.1,7.78-5.24,16.08-9.51,24.7-12.48,8.61-2.98,17.5-4.62,26.25-5.1,8.32-.53,18.19.11,28.2,2.01,2.49.53,5,1.07,7.52,1.61,2.49.66,5,1.32,7.49,1.98,1.26.32,2.43.72,3.65,1.07,1.21.36,2.42.65,3.62.98,2.42.6,4.84,1.14,7.23,1.64,4.78.99,9.45,1.86,13.79,2.81,4.34.95,8.36,2.02,11.87,3.21,7.08,2.28,11.9,5.33,14.19,6.85Z"></path>
  <path class="cls-4" d="M303.1,238.45c.35.21,1.02,2.8,1.43,5.86.45,3.06.55,6.58.64,8.55.08,1.74.06,3.56-.08,5.42-.04.46-.07.93-.13,1.4l-.08.71c0,.12,0,.13,0,.2l.02.47c.17-.08.34-.19.45-.25l.08-.05h.02s0-.02.08-.05l.31-.13,1.25-.52c1.66-.69,3.29-1.4,4.86-2.13,5.5-2.55,10.84-5.27,15.08-8.44,2.11-1.59,3.92-3.3,5.17-5.15,1.27-1.85,1.83-3.86,1.82-5.78.49.77,1.01,1.89,1.06,3.21.09,1.3-.13,2.77-.62,4.08-.99,2.63-2.73,4.64-3.8,5.41-2.54,1.85-5.08,3.26-7.55,4.53-2.47,1.26-4.87,2.37-7.2,3.39-2.33,1.02-4.57,1.97-6.73,2.84-1.13.45-2.24.9-3.33,1.33-1.45.55-2.96,1.16-4.37,1.64.23-1.09.46-2.19.66-3.3.1-.56.22-1.11.3-1.67.05-.37.1-.73.15-1.09.17-1.44.31-2.84.38-4.19.17-2.71.16-5.25.14-7.66,0-2.79,0-7.65,0-8.61Z"></path>
  <path class="cls-4" d="M270.58,202.84c-.24.04-.99.03-2.11-.2-1.12-.22-2.6-.68-4.3-1.3-3.35-1.33-8.04-2.19-13.13-2.5-10.2-.57-21.78,1.23-28.23,2-11.34,1.47-23.43,3.54-35.54,6.06-12.11,2.46-24.12,5.68-35.27,9.53-9.75,3.35-19.26,7.21-28.31,11.47-9.05,4.25-17.67,8.89-25.87,13.39-16.37,9.08-31.25,17.22-43.26,23.48,9.69-7.48,29.4-20.17,36.79-24.07,7.44-3.92,14.67-7.72,21.8-11.2,7.12-3.48,14.14-6.64,21.06-9.41,13.82-5.57,27.17-9.73,39.89-12.85,6.36-1.57,12.57-2.82,18.58-3.98,6.02-1.15,11.85-2.14,17.52-2.96,5.66-.83,11.19-1.43,16.48-1.98,5.3-.57,10.46-1.08,15.48-1.2,4.75-.17,11.35.19,16.91,1.68,2.81.65,5.24,1.87,7.18,2.68,1.96.83,3.54,1.21,4.33,1.36Z"></path>
  <g>
    <path class="cls-6" d="M212.83,177.23c.33-.08,2.25,1.3,3.31,3.8.53,1.23.81,2.66.8,3.99,0,1.33-.3,2.53-.56,3.38-.24.75-.58,1.49-1.04,2.19-.48.69-1.07,1.34-1.77,1.89-.71.54-1.55.96-2.44,1.23-.89.28-1.84.35-2.77.31-3.75-.3-6.73-2.53-8.79-5.05-1.83-2.24-2.99-5.21-2.82-8.22.08-1.49.48-2.97,1.2-4.28.73-1.3,1.8-2.42,3.06-3.16,1.26-.75,2.7-1.08,4.03-1.05,1.33.03,2.53.38,3.57.86,2.08.97,3.51,2.38,4.58,3.71-.43-.09-.88-.21-1.33-.35-.46-.12-.94-.25-1.43-.38-.98-.22-1.97-.44-2.87-.49-.9-.06-1.69,0-2.32.11-.62.14-1.09.26-1.43.33-1.42.19-2.75,1.3-3.42,2.79-.71,1.48-.79,3.24-.42,4.84.39,1.61,1.22,3.07,2.26,4.28.28.29.55.58.83.86.3.26.59.51.88.77.62.44,1.26.86,1.93,1.16,1.33.63,2.73.89,3.99.69,1.26-.19,2.36-.83,3.17-1.69,1.64-1.75,2.19-4.15,2.05-6.28-.09-1.02-.32-2.44-.83-3.67-.48-1.25-1.21-2.22-1.42-2.57Z"></path>
    <path class="cls-6" d="M210.83,193.27c.4-.3-.51-3.36-.6-4.61-.16-2.22-.76-4.63-1.31-6.82-.97-3.83-2.46-7.38-4.17-9.59-.71,1.56-.91,3.85-.45,4.55,3.59,5.51,3.55,10.57,5,14.06.3.84,1.3,2.16,1.53,2.41Z"></path>
    <path class="cls-6" d="M215.58,189.86c-.24.07-.82-.51-1.53-1.14-.7-.64-1.51-1.36-2.03-1.68-.92-.57-1.85-1.24-2.77-1.93l-.69-.52-.09-.07s-.01,0-.02,0h-.03s-.04,0-.04,0c-.05,0-.07.01-.06.09,0,.06.03.03,0,.09-.21.42-.41.84-.62,1.26-.41.82-.83,1.61-1.24,2.36-.4.73-.79,1.44-1.16,2.1-.35.63-.68,1.29-.8,1.64-.35-.02-.63-.5-.81-.92-.17-.44-.28-.93-.31-1.38-.08-.91.05-1.7.31-2.03,1.01-1.35,1.86-2.58,2.58-3.78.11-.18.21-.36.31-.54.12-.21.23-.41.34-.62.22-.4.43-.8.65-1.19l.08-.15.04-.07s.04.03.06.05l.25.22.5.42c.33.28.66.55.98.82.5.41.99.8,1.45,1.18.44.37.87.72,1.29,1.07.82.7,1.55,1.4,2.13,2.15.6.68,1.17,2.26,1.21,2.58Z"></path>
  </g>
  <path class="cls-5" d="M303.06,239.02s1.93,5.8,2.18,16.77c0,0,12.03-2.85,17.46-9.85,0,0-10.15-5.39-19.65-6.93Z"></path>
  <path class="cls-1" d="M153.26,216.17l-44.73,26.8c-17.15,10.28-33.52,21.81-48.97,34.5l-7.48,6.15,1.51-6.41c.62-2.61,1.11-5.26,1.47-7.92l.66-4.82s61.5-37.24,97.53-48.31Z"></path>
  <path class="cls-4" d="M112.41,281.03c-.22-.09-1.17-1.04-1.61-2.88-.47-1.82-.31-4.31.18-6.82.98-4.98,2.17-10.58,2.6-13.74.8-5.56,1.56-11.52,1.73-17.5.08-2.98.01-5.99-.26-8.9-.33-2.9-.85-5.82-1.41-8.66-1.97-9.89-4.45-19.98-3.91-29.59.13-2.39.45-4.72.99-6.95.55-2.22,1.34-4.32,2.31-6.21,1.92-3.83,4.69-6.71,7.36-8.78-1.73,2.64-3.95,6.41-5.04,10.2-.57,1.89-.95,3.74-1.2,5.37-.24,1.63-.4,3.03-.56,3.99-.64,3.89-.64,7.84-.35,11.66.29,3.82.86,7.53,1.48,11.12,1.22,7.18,2.8,13.89,3.09,20.43.3,6.5-.29,12.56-1.11,18.16-.85,5.6-1.99,10.73-3.18,15.48-.5,2.28-1.59,5.28-1.96,7.94-.18,1.34-.16,2.61.06,3.61.21,1.01.6,1.72.79,2.07Z"></path>
  <g>
    <path class="cls-4" d="M119.13,274.74c-.32,0-.35-.59-.54-.82-.34-.4-.42-.88-.48-1.31-.11-.77.23-1.49.82-1.89.79.31,1.34.75,1.18.87-1.26,1.05-.28,1.97-.5,2.62-.02.16-.39.47-.48.54Z"></path>
    <path class="cls-4" d="M119.91,266.81c-.3-.1-.16-.67-.29-.92-.23-.45-.2-.91-.19-1.33.02-.73.43-1.36,1.06-1.71.77.37,1.26.88,1.08,1-1.4.9-.63,1.96-1.04,2.59-.07.15-.52.35-.62.38Z"></path>
    <path class="cls-4" d="M121.47,258.96c-.3-.08-.21-.66-.35-.91-.25-.44-.26-.9-.28-1.32-.03-.73.34-1.38.96-1.77.79.32,1.3.8,1.14.93-1.34.99-.51,2-.88,2.65-.06.16-.49.37-.59.41Z"></path>
    <path class="cls-4" d="M122.54,251.04c-.31-.06-.25-.64-.41-.89-.28-.42-.32-.88-.36-1.3-.07-.72.26-1.4.84-1.82.81.27,1.35.72,1.19.85-1.27,1.07-.38,2.03-.71,2.7-.05.16-.47.4-.57.45Z"></path>
    <path class="cls-4" d="M123.12,243.06c-.31-.05-.29-.63-.46-.86-.31-.41-.37-.86-.44-1.27-.12-.72.17-1.41.73-1.87.82.22,1.39.64,1.24.78-1.2,1.15-.25,2.05-.54,2.74-.04.16-.44.43-.54.48Z"></path>
    <path class="cls-4" d="M123.2,235.06c-.32-.03-.32-.61-.51-.83-.33-.39-.42-.84-.51-1.24-.16-.71.08-1.42.61-1.91.83.17,1.43.55,1.29.7-1.13,1.22-.13,2.06-.37,2.77-.03.17-.41.46-.51.52Z"></path>
    <path class="cls-4" d="M122.79,227.07c-.32,0-.36-.59-.56-.8-.36-.37-.47-.81-.59-1.21-.2-.7,0-1.42.49-1.95.84.11,1.46.46,1.33.62-1.05,1.29,0,2.07-.2,2.78-.02.17-.38.48-.47.55Z"></path>
    <path class="cls-4" d="M121.89,219.13c-.32.01-.4-.56-.61-.76-.38-.34-.52-.78-.66-1.17-.25-.68-.09-1.42.37-1.97.85.06,1.49.37,1.37.54-.97,1.35.13,2.06-.02,2.79,0,.17-.35.51-.44.57Z"></path>
    <path class="cls-4" d="M120.5,211.25c-.31.03-.41-.55-.63-.74-.38-.33-.54-.77-.69-1.16-.26-.69-.13-1.43.33-1.99.85.07,1.5.36,1.38.53-.94,1.35.17,2.04.03,2.77,0,.17-.34.52-.42.59Z"></path>
    <path class="cls-4" d="M119.16,203.36c-.31.01-.37-.57-.57-.78-.36-.36-.49-.81-.61-1.21-.22-.71-.03-1.45.46-1.96.85.14,1.47.48,1.34.63-1.03,1.27.03,2.04-.16,2.75-.01.17-.38.5-.46.57Z"></path>
    <path class="cls-4" d="M118.45,195.39c-.31-.02-.3-.61-.48-.83-.32-.4-.39-.86-.46-1.28-.13-.73.14-1.45.69-1.9.82.25,1.4.66,1.26.8-1.18,1.13-.21,2.02-.48,2.7-.03.16-.43.45-.53.51Z"></path>
    <path class="cls-4" d="M118.8,187.41c-.31-.07-.19-.65-.33-.9-.24-.44-.24-.92-.24-1.34,0-.75.39-1.41,1-1.76.77.39,1.27.9,1.1,1.01-1.35.9-.55,1.95-.93,2.57-.06.15-.5.38-.61.42Z"></path>
    <path class="cls-4" d="M120.57,179.62c-.29-.13-.06-.67-.14-.95-.15-.48-.05-.94.04-1.36.15-.74.66-1.31,1.34-1.52.67.54,1.06,1.14.88,1.21-1.5.61-.93,1.79-1.43,2.32-.09.14-.57.27-.68.29Z"></path>
    <path class="cls-4" d="M123.9,172.35c-.27-.17-.17-.3-.3-.44-.22-.26-.21-.4-.22-.54-.01-.24.32-.27.85-.09.67.49,1.11.88.97.84-1.16-.34-.46.37-.78.39-.05.02-.43-.11-.52-.15Z"></path>
  </g>
  <path class="cls-3" d="M233.44,217.29s36.76,4.03,57.93,9.32c14.99,3.75,39.54,19.28,39.54,19.28l.45-.47c1.38-1.45,2.14-3.37,2.12-5.37h0s-15.41-11.46-36.12-18.1c-20.71-6.64-47.5-9.99-63.92-4.66Z"></path>
  <path class="cls-3" d="M194.96,160.8s23.41,8.1,30.39,16.43c8.7,10.39,12.38,20.03,12.38,20.03,0,0,12.27-1.35,21.61,1.58,0,0-14.23-19.15-19.36-24.98-4.7-5.35-9.63-9.85-23.3-12.04-13.67-2.19-21.72-1.01-21.72-1.01Z"></path>
  <path class="cls-1" d="M101.67,183.49s-10.97,12.12-11.82,23.34c-1.12,14.8,1.19,33.84,1.19,33.84l-35.31,23.81s1.99-31.74,3.52-40.3c2.21-12.41,7.56-17.61,17.51-25.16,9.96-7.55,24.91-15.52,24.91-15.52Z"></path>
  <g>
    <path class="cls-5" d="M94.42,220.42c.18-.8.14-1.62-.2-2.39-2.07-4.63-7.12.64-7.01,3.86.22,5.98,6.33,2.49,7.21-1.47Z"></path>
    <path class="cls-4" d="M94.45,220.42c.14.08.17.37.13.81-.07.42-.25.97-.55,1.51-.57,1.09-1.58,2.09-2.23,2.64-.58.48-1.25.99-2.33,1.09-.51.04-1.15,0-1.67-.27-.14-.06-.27-.12-.4-.19l-.35-.28c-.22-.2-.48-.41-.61-.64-.16-.23-.3-.47-.44-.71-.1-.23-.17-.44-.26-.67-.18-.47-.23-.87-.3-1.29-.09-.38-.08-.93-.05-1.43.07-.45.14-.93.28-1.32.45-1.43,1.22-2.6,2.24-3.57.27-.24.55-.46.84-.68.33-.2.61-.4.99-.55.37-.15.72-.3,1.17-.37.4-.1.88-.09,1.34-.03.45.06.92.25,1.3.46.34.26.74.51.93.82.5.6.69,1.19.87,1.74.34,1.22.05,2.34-.4,3.07-.63-.93-1.4-1.74-2.09-1.99-.19-.09-.34-.16-.47-.24-.13-.07-.25-.04-.32-.07-.07-.05-.12,0-.13,0-.01,0,0-.05,0-.06.01-.04.04-.17-.02-.21l-.08-.1s-.1-.03-.15-.05c-.1-.05-.24-.05-.39-.03-.15,0-.3.04-.46.1-.63.22-1.25.67-1.73,1.21-.47.55-.82,1.17-1.02,1.79l-.11.46c-.02.15-.01.29-.02.43.01.3.08.63.12.94.17.56.39,1.07.7,1.22.32.18.63.16,1.02.05.83-.28,1.64-.89,2.35-1.49.31-.31.85-.67,1.3-1.08.47-.39.81-.85.97-.99Z"></path>
  </g>
  <g>
    <path class="cls-5" d="M75.56,232.09c.46-.54.82-1.13,1-1.73,1.61-5.36-3.66-7.9-6.18-2.59-1.99,4.2,1.48,8.59,5.18,4.32Z"></path>
    <path class="cls-4" d="M75.58,232.11c.15.25-.34,1.19-1.43,1.9-.52.38-1.29.58-2.02.57-.74-.04-1.38-.35-1.79-.6-.74-.45-1.34-1.17-1.67-1.98-.33-.81-.51-1.7-.45-2.57.02-.88.26-1.74.58-2.53.18-.37.35-.75.56-1.11.25-.36.47-.72.76-1.06.52-.58,1.16-1.15,2.02-1.49.81-.39,1.86-.46,2.8-.27.96.23,1.78.78,2.35,1.44.29.33.49.7.68,1.05.14.36.3.73.36,1.09.31,1.44.02,2.7-.43,3.67-.19.47-.49,1.02-.84,1.38-.34.38-.71.66-1.08.88-.08-.54-.14-1.1-.25-1.6-.1-.51-.3-.89-.45-1.33-.11-.42-.3-.74-.35-1.01-.11-.25-.14-.44-.08-.58.21-.57.17-1.15-.1-1.57-.27-.41-.79-.64-1.36-.54-1.19.2-2.08,1.56-2.46,2.7-.41,1.18-.21,2.37.21,3.17.22.4.5.66.76.83.26.18.54.2.87.25.3-.04.9-.01,1.47-.22.59-.14,1.11-.41,1.31-.46Z"></path>
  </g>
  <path class="cls-3" d="M186.4,229.19s-13.8,5.07-25.98,17.86c-9.93,10.43-24.56,14.41-24.56,14.41,0,0,10.56-7.92,16.65-16.24,6.09-8.32,14.62-14.01,33.9-16.04Z"></path>
</svg>