<svg xmlns="http://www.w3.org/2000/svg" viewBox="0 0 380 600"><defs transform="matrix(-1, 0, 0, 1, 380, 0)"><style>.cls-1{isolation:isolate;}.cls-2{mix-blend-mode:multiply;}.cls-3{opacity:0.3;}.cls-4{fill:#ff4500;}</style></defs><g class="cls-1" transform="matrix(-1, 0, 0, 1, 380, 0)"><g id="outfits_2"><g id="hood_red"><g class="cls-2"><g class="cls-3"><path d="M276.715,341.231a.69.69,0,0,1-.223.543,1.425,1.425,0,0,1-1.059.111,10.4,10.4,0,0,1-1.377-.377,8.936,8.936,0,0,0-1.472-.383,1.059,1.059,0,0,0-.8.143c-.232.2-.192.564-.135.857a5.339,5.339,0,0,0,.295.908l.2.459.267.557c.751,1.5,1.734,3.076,2.791,4.794l-.657.586c-1.256-.995-2.371-2.088-3.637-3.143-.625-.525-1.266-1.053-1.939-1.522a9.885,9.885,0,0,0-1.024-.634,3.669,3.669,0,0,0-.5-.207l-.217-.052a.135.135,0,0,1-.106,0l.3-.817c1.288,1.889,1.528,4.212,3.934,8.109-.065.022-.08.064-.105.1s-.066.07-.049.123a1.367,1.367,0,0,1,0,.14l-.4-.192-1.543-.777c-1.012-.513-2.079-1.1-3.157-1.724l-2.572-1.47c-.772-.432-1.544-.858-2.292-1.208l.828-1.042c1.032,1.24,2.214,2.406,3.293,3.524l.819.84,1.106,1.169c.712.78,1.338,1.517,1.977,2.283-.03.034-.021.08-.085.1l-.232.061-.459.12c-.31.085-.592.139-.882.207a12.75,12.75,0,0,1-1.742.281l-.895.054c-.279.006-.643-.013-.862-.021-.423-.012-.826-.069-1.217-.107a15.545,15.545,0,0,1-4.3-1.231,12.259,12.259,0,0,1-4.017-2.876l1.675-1.159a21.791,21.791,0,0,0,3.32,3.744l.515.508.82.834c.281.281.543.566.8.853a11.014,11.014,0,0,1,.728.857l.339.428.276.406.545.818.547.848a9.292,9.292,0,0,1,.536.916c-1.535-.1-2.819-.154-4.442-.382l-1.269-.246-1.332-.336-1.019-.3-.82-.268a36.9,36.9,0,0,1-6.51-2.941l1.984-1.534a29.05,29.05,0,0,0,1.146,3.227c.058.132.117.262.181.39l.093.194.217.4a7,7,0,0,0,.46.763,6.866,6.866,0,0,0,.573.784c.87,1.066,2.08,2.369,3.134,3.555l-.5.021-.326.033c-.382-.015-.916-.065-1.371-.1-.907-.076-1.793-.136-2.729-.254a18.176,18.176,0,0,1-3.041-.718l-.616-.223-.46-.19c-.309-.124-.61-.264-.908-.412a24.869,24.869,0,0,1-6.353-4.644l2.41-1.821c.845,1.52,1.657,3.1,2.451,4.663l1.673,3.26,2.477,4.564c-.4-.046-1.029-.188-1.546-.283l-1.563-.308-1.562-.331c-.534-.132-1.1-.311-1.643-.464l-1.531-.556-.91-.384c-.6-.266-1.184-.545-1.756-.835-2.29-1.166-4.392-2.454-6.485-3.628l2-2.615a37.686,37.686,0,0,1,3.112,3.546c.777,1.006,1.508,2.046,2.183,3.114l.342.548.45.769c.3.514.591,1.027.853,1.534q.807,1.533,1.611,3.06l-3.582-.075c-.612-.056-1.23-.073-1.837-.161l-.906-.158c-.3-.052-.651-.108-.772-.15a19.414,19.414,0,0,1-4.052-1.467,22.811,22.811,0,0,1-6.664-5.039L228.223,360l4.156,5.9a42.222,42.222,0,0,1,3.5,5.362c2.057,2.322-1.52,1.172-3.022,1.142l-.7-.085-.757-.159a9.528,9.528,0,0,1-1.542-.4c-.523-.183-1.07-.329-1.57-.557-.356-.16-.6-.254-.9-.406a19.056,19.056,0,0,1-3.164-1.945,22.993,22.993,0,0,1-4.945-5.126l2.61-2.077a25.44,25.44,0,0,1,2.4,3.258c.345.565.677,1.132.974,1.71.156.286.295.578.438.867.16.331.217.456.5,1.093a32.267,32.267,0,0,1,1.15,3.12,6.793,6.793,0,0,1,.333,1.379l.073.6a1.2,1.2,0,0,1-.112.372c-.045.11-.084.242-.134.334l-.163.218c-.077.081-.055.127-.221.24a1.1,1.1,0,0,1-.289.139,2.174,2.174,0,0,1-1.551-.069,16.524,16.524,0,0,1-2.528-1.513c-.826-.563-1.913-1.343-2.188-1.55q-1.362-1-2.659-2c-.866-.669-1.714-1.337-2.546-2.016l-1.237-1.037-.617-.55a6.614,6.614,0,0,1-.712-.743l2.455-1.359a34.565,34.565,0,0,0,2.561,5.074l.346.626.364.694a16.253,16.253,0,0,1,.927,2.06l.172.5a1.556,1.556,0,0,1-.066.369,3.644,3.644,0,0,1-.092.359,2.7,2.7,0,0,1-.219.42,2.367,2.367,0,0,1-1.471,1.026,3.649,3.649,0,0,1-1.874-.082,8.074,8.074,0,0,1-.972-.385c-.156-.063-.331-.155-.466-.22l-.285-.144q-1.132-.583-2.184-1.215a39.526,39.526,0,0,1-3.914-2.695l1.752-1.039a11.866,11.866,0,0,1,.1,1.32c0,.21,0,.416-.01.618a7.259,7.259,0,0,1-.085.755,2.851,2.851,0,0,1-1.455,2.212,2.182,2.182,0,0,1-1.89-.076,4.145,4.145,0,0,1-.816-.526q-.189-.155-.366-.316l-.245-.231-1.624-1.564c-.627-.6-.673-.664-.941-.933l-.345-.35c-.012-.009-.035-.043-.038-.031l0,.054a.977.977,0,0,1-.006.108,1.007,1.007,0,0,1-.056.214.883.883,0,0,1-.128.243.623.623,0,0,1-.086.106,1.17,1.17,0,0,1-.155.144,2.606,2.606,0,0,1-1.3.618,2.092,2.092,0,0,1-1.946-.731,2.376,2.376,0,0,1-.279-.392,6.639,6.639,0,0,0-.448-.8.385.385,0,0,0-.37-.193.509.509,0,0,0-.295.275,2.449,2.449,0,0,1-.216.346,1.829,1.829,0,0,1-.43.392,2.755,2.755,0,0,1-1.536.5,5.288,5.288,0,0,1-2.428-.629,13.963,13.963,0,0,1-1.741-1.059l-1.505-1.013,1.7.854a14.059,14.059,0,0,0,1.9.866,4.6,4.6,0,0,0,2.216.284,1.923,1.923,0,0,0,1.012-.51,4.983,4.983,0,0,0,.741-1.134.958.958,0,0,1,.634-.559.937.937,0,0,1,.761.347,4.612,4.612,0,0,1,.578.716c.175.251.39.626.554.815a.852.852,0,0,0,1.038.246.982.982,0,0,0,.506-.448,7.534,7.534,0,0,0,.314-2.072.445.445,0,0,0,.394-.073l.062-.13c.043,0,.167.13.248.19l1.126.96,1.188,1.021.842.7,1.638,1.365c.245.17.539.341.787.166a.776.776,0,0,0,.222-.666c-.006-.018,0-.214-.009-.342s-.016-.287-.032-.434c-.03-.293-.074-.59-.13-.884l-.57-3,2.607,1.791a39.033,39.033,0,0,0,5.045,2.944l.637.3.317.145.159.07a.09.09,0,0,0,.037.012.352.352,0,0,0,.137.009.089.089,0,0,0,.058-.154.541.541,0,0,0-.059-.059l-.083-.131-.3-.525-1.222-2.053a23.707,23.707,0,0,1-1.937-3.942l2.44-1.23.331-.255c.086-.069.273-.23.221-.19l.013.014.051.056.149.148.329.305.619.548c1.659,1.439,3.418,2.834,5.154,4.171l1.2.91.2.187a2.8,2.8,0,0,0,.593.431,2.4,2.4,0,0,0-.1-.58c-.031-.113-.069-.234-.114-.362l-.049-.124-.149-.339-.314-.666A22.953,22.953,0,0,0,219.8,363.5l1.776-1.412a20.325,20.325,0,0,0,4.779,4.928,16.715,16.715,0,0,0,2.917,1.668,7.138,7.138,0,0,0,1.564.515c.14.029.281.059.425.075.124.008.379.092.212-.072l-.442-.662-1.156-1.7-3.717-5.382,1.221-.985a20.139,20.139,0,0,0,6.181,4.683,16.862,16.862,0,0,0,3.465,1.22,10.593,10.593,0,0,0,1.137.195l.551.045.275.008.137,0c.052.006.1.009.056-.046-.277-.548-.577-1.09-.9-1.618l-.338-.545-.4-.625q-.408-.618-.832-1.212a35.33,35.33,0,0,0-3.591-4.279l.807-1.052c2.263,1.288,4.437,2.636,6.622,3.735.546.273,1.093.532,1.641.77l.411.174.352.143c.187.069.39.154.557.206.348.121.7.227,1.043.313.174.041.345.088.519.118l.258.05c.025,0,.126.045.089,0l-.064-.116-.78-1.467-1.022-2.015c-.79-1.573-1.569-3.083-2.353-4.5l1.131-.855a22.621,22.621,0,0,0,5.8,4.263q.39.2.792.36c.133.054.263.117.4.164l.318.115a8.4,8.4,0,0,0,.965.275,8.788,8.788,0,0,0,.959.151,1.662,1.662,0,0,0,.424.008l-.324-.365a7.425,7.425,0,0,1-.625-.857,8.624,8.624,0,0,1-.616-1.2,30.557,30.557,0,0,1-1.242-3.527l-.608-2.01,1.827,1.067a35,35,0,0,0,5.971,2.742l.765.258.7.216c.263.075.523.144.783.2a8.422,8.422,0,0,0,1.531.216l.042,0-.022-.036-.046-.075-.1-.149c-.07-.094-.134-.192-.209-.28-.144-.182-.295-.354-.449-.521l-.466-.486-.647-.649a23.456,23.456,0,0,1-3.738-4.375l1.55-1.072a11.429,11.429,0,0,0,5.534,3.255c.525.136,1.051.249,1.581.332l.8.094.551.031a5.882,5.882,0,0,0,.752-.036l.368-.062.181-.045c.061-.015.15-.021.07-.083-.222-.272-.459-.529-.7-.784l-1.25-1.321c-1.073-1.139-2.139-2.222-3.16-3.487l1.148-1.444c1.357.665,2.544,1.392,3.754,2.1l1.929,1.155.562.305c.162.109.047-.035.006-.112s-.094-.173-.134-.262a16.264,16.264,0,0,1-.623-1.689l-.075-.218-.135-.36q-.148-.366-.287-.708a11.636,11.636,0,0,0-.573-1.147l-.517-.9.91-.184a2.108,2.108,0,0,1,1.271.14,5.326,5.326,0,0,1,.833.436,13.534,13.534,0,0,1,1.368.992c.837.682,1.576,1.365,2.227,1.983l2.6,2.536-.577.515a56.467,56.467,0,0,1-2.695-5.067c-.161-.368-.336-.786-.476-1.208a5.306,5.306,0,0,1-.268-1.179,1.149,1.149,0,0,1,.272-1,1.449,1.449,0,0,1,.966-.181,7.367,7.367,0,0,1,1.692.507c.47.187.88.353,1.257.478a2.4,2.4,0,0,0,1.014.15C276.566,341.723,276.663,341.422,276.715,341.231Z" /></g></g><g class="cls-2"><g class="cls-3"><path d="M239.963,247.708a16.051,16.051,0,0,1-3.7-3.411,21.049,21.049,0,0,1-2.46-3.8,21.92,21.92,0,0,1-1.058-2.523c-.162-.486-.284-.857-.391-1.272s-.2-.831-.291-1.26c.009-.076-.074-.053-.126-.064l-.173-.015-.346-.03-.7-.061-1.626-.146-2.208-.207-.571-.055-.289-.027-.144-.014c-.053,0-.109,0-.076-.039a1.654,1.654,0,0,0,.141-.651,16.571,16.571,0,0,0,1.41-2.743,4.959,4.959,0,0,0,.292-1.33,7.657,7.657,0,0,0,.018-1.124l.769.663c-1.586.148-3.2,1.249-5.414,1.544l-2.232.3,1.642-1.616a19.836,19.836,0,0,0,3.869-6.7l1.067,1.1-10.308,3.928-2.725,1.038,1.645-2.423,5.213-7.681,1.111,1.491-9.739,3.212-2.927.965,1.75-2.551,5.922-8.634,1.374,1.616c-3.929,1.91-7.81,4.251-12.01,6.3l-1.41-1.773,8.137-10.087,1.549,1.823c-5.053,2.858-10.452,4.917-15.36,7.7l-1.666-1.9c3.191-4.345,6.812-8.257,9.885-12.451l1.78,1.971c-3.039,1.817-6.122,3.4-9.047,5.124a37.641,37.641,0,0,0-7.933,5.88l-2.075-1.992c2.124-2.251,4.364-4.217,6.373-6.274a24.525,24.525,0,0,0,4.908-6.571l2.31,1.834a69.64,69.64,0,0,1-9.688,6.223,64.14,64.14,0,0,0-8.888,5.733l-2.194-2.384c3.093-3.347,6.33-6.287,9.239-9.171a62.42,62.42,0,0,0,7.556-8.775l2.47,2.5c-4.669,3.293-9.206,5.878-13.029,8.314a62.018,62.018,0,0,0-11.721,9.436l-3.26-2.545a64.255,64.255,0,0,1,8.63-11.493c3.285-3.485,6.579-6.72,9.61-10.26l3.181,3.4c-9.838,7.659-19.626,15.815-29.871,23.771l-3.454-3.968a318.7,318.7,0,0,0,23.55-26.355l2.5,4.658c-2.655.289-5.513,1.9-8.039,3.942-.632.52-1.257,1.059-1.86,1.632l-.894.873-.924.947c-1.3,1.343-2.628,2.627-3.96,3.887-2.663,2.522-5.359,4.968-8,7.433s-5.263,4.944-7.616,7.5l-4.817-3.859c3.758-5.429,7.71-10.63,11.641-15.871s7.9-10.455,11.56-15.741l4.936,4.216c-5.693,5.492-11.381,11.011-17.147,16.442s-11.586,10.8-17.751,15.907l-4.948-4.662a192.147,192.147,0,0,1,14.738-17.521c5.084-5.487,10.256-10.751,15.27-16.023l4.015,5.709c-8.277,3.707-15.51,9.161-22.042,15.219a259.274,259.274,0,0,0-18.33,19.481l-5.652-4.767c3.63-4.5,7.071-8.5,10.515-12.435,7.03-8.039,14.155-15.867,20.7-23.981l5.22,5.45a166.1,166.1,0,0,0-20.907,18.76,266.888,266.888,0,0,0-18.235,21.437l-6.216-4.595c10.491-14.706,22.454-27.581,32.3-41.413l5.361,5.379c-7.841,5.547-14.174,13.3-20.266,21.228-6.115,7.942-12,16.3-19.431,23.614l-5.87-4.575c8.921-14.973,19.408-27.925,27.54-41.657l5.758,4.256c-7.444,8.121-14.293,16.667-20.753,25.225-6.439,8.577-12.506,17.236-17.86,26.017l-5.978-2.657a91.7,91.7,0,0,1,4.708-11.553c1.741-3.635,3.584-7.112,5.46-10.5,3.751-6.767,7.664-13.162,11.438-19.444l4.853,3.492a198.668,198.668,0,0,0-32.745,51.478L89.78,250.71A85.461,85.461,0,0,1,96.437,230.7c2.757-5.987,5.769-11.431,8.7-16.746l3.655,2.062c-10.705,17.733-19.163,33-26.842,47.637l-2.717-.72a44.756,44.756,0,0,1,8.42-23.421A45.309,45.309,0,0,0,80.7,263l-.051-.013c6.9-15.172,15.33-32.029,24.748-48.987l3.223,1.819c-2.924,5.812-5.857,11.645-8.3,17.609a79.945,79.945,0,0,0-5.323,18.2l-5.331-1.579a195.941,195.941,0,0,1,32.507-53.838l6.076,4.372c-3.9,6.719-7.494,12.815-10.519,18.327-3.043,5.5-5.511,10.386-7.367,14.474-1.12,2.5-2.127,5.012-2.888,7.305l-6.655-2.958c5.991-9.656,12.507-18.7,19.157-27.4,6.674-8.679,13.5-16.974,20.649-24.657l4.625,3.418c-9.05,14.907-19.769,28.025-27.817,41.5l-3.78-2.947c7.238-7.055,13.206-15.45,19.476-23.479,6.253-8.02,12.877-15.938,21.19-21.736l2.757,2.767c-10.649,14.71-22.773,27.663-32.5,41.269l-2.766-2.045c12.081-15.512,25.305-29.939,40.387-41.094l2.125,2.219c-10.4,12.762-21.655,24.319-31.348,36.31l-2.273-1.917a259.136,259.136,0,0,1,19.338-20.354,86.356,86.356,0,0,1,22.876-15.542l1.691,2.4c-5.244,5.49-10.509,10.836-15.547,16.268a183.56,183.56,0,0,0-14.075,16.707l-2.251-2.121c6.132-5.07,11.971-10.465,17.713-15.846s11.35-10.827,16.937-16.2l2.517,2.151c-7.672,10.961-15.952,21.113-23.251,31.578l-2.759-2.21c5.166-5.518,10.737-10.25,15.955-15.2,1.306-1.231,2.589-2.47,3.815-3.73a43.006,43.006,0,0,1,4.112-3.818,27.63,27.63,0,0,1,4.808-3.136,16.74,16.74,0,0,1,5.716-1.77l4.559-.506-2.9,3.6a318.716,318.716,0,0,1-23.988,26.648l-2.623-3.013c10.227-7.871,20.061-15.978,30-23.608l2.843,3.041c-3.166,3.646-6.628,7-9.794,10.313a60.234,60.234,0,0,0-8.166,10.7l-3.346-2.611a65.925,65.925,0,0,1,12.583-9.935c4.466-2.753,8.831-5.236,12.923-8.087l2.988,3.02a67.59,67.59,0,0,1-8.508,9.677c-3.024,2.918-6.025,5.653-8.755,8.57l-2.9-3.145a68.863,68.863,0,0,1,9.667-6.14,64.852,64.852,0,0,0,9-5.7l3.207,2.544a28.277,28.277,0,0,1-5.739,7.612c-2.147,2.153-4.36,4.071-6.283,6.085l-2.951-2.834a37.856,37.856,0,0,1,7.335-5.564c2.551-1.546,5.136-2.9,7.631-4.26.8-.442,1.611-.89,2.816-1.595l2.573,2.85c-1.392,1.858-2.905,3.7-4.58,5.691s-3.5,4.122-5.425,6.67l-2.415-2.749c4.756-2.641,10.01-4.552,15.473-7.494l2.175,2.558-8.305,9.953-1.885-2.368c4.116-1.918,8.209-4.273,12.12-6.068l4.685-2.151-2.98,4.156c-2.181,3.041-4.356,6.075-6.1,8.51l-1.352-1.822,9.81-2.993,2.911-.887-1.749,2.447c-2.041,2.859-4.039,5.656-5.4,7.555l-1.016-1.3,10.406-3.666,1.428-.5-.571,1.383c-1.246,3.019-2.873,5.786-4.394,7.083l-.406-.908a13.3,13.3,0,0,0,2.979-.8,9.952,9.952,0,0,1,2.451-.581l.446-.028.016.427a8.506,8.506,0,0,1-.081,1.5,7.511,7.511,0,0,1-1.06,2.879c-.084.14-.175.276-.269.41l-.144.2c-.028.055-.161.159-.034.142l.853.106,1.622.2,1.7.209.73.092.329.042.155.02.075.01c.016.013.015.043.024.063a23.9,23.9,0,0,0,.629,2.837,21.42,21.42,0,0,0,.845,2.316,20.882,20.882,0,0,0,2.01,3.643A21.188,21.188,0,0,0,239.963,247.708Z" /></g></g><path class="cls-4 color-hood" d="M313.956,228.529c-5.97-6.861-15.54-12.258-24.135-13.656a69.894,69.894,0,0,0-9.679-10.82c-8.793-7.888-23.561-16.9-34.609-21.086-23.222-8.791-67.86-22.642-92.992-16.4C130.8,171.962,39.5,233.5,73.458,311.208c0,0,8.047,31.853,15.541,43.46s20.421,16.4,29.11,19.344,11.77,4.823,20.94,5.029c6.551.147,17.221-3.492,16.79-4.356-5.485-1.254-10.382-.994-15.887-2.64-20.368-6.094-37.452-13.545-51.435-34.774-7.631-11.587-10.3-22.449-14.127-42.571C71.5,279.5,86,229.749,131.5,203.5c20.288-11.705,50.561-13.123,61.892-6.422a142.9,142.9,0,0,1,47.15,46.426c18.273,29.6,20.145,44.492,28.939,77.352,1.324,4.947,1,15.573.274,20.644-.887,6.231-4.658,10.188-9.459,14.258-24.929,21.133-56.508,26.992-95.92,22.156,0,0,30.124,23.586,82.278,12.639,12.156-2.552,39.43-11.485,49.87-18.407,8.228-5.455,10.99-14.75,13.9-24.183a120.275,120.275,0,0,0,4.836-28.049c.733-10.37-.967-18.377.967-21.279,4.293-6.439,10.015-13.523,11.364-21.278C331.459,255.111,324.636,239.209,313.956,228.529Z" style="" /><path d="M314,228.486a42.189,42.189,0,0,1,7.977,9.549,47.182,47.182,0,0,1,4.961,10.712,54.475,54.475,0,0,1,2.487,14.694q.035,1.022.068,2.063-.027,1.041-.055,2.1c-.006,1.418-.13,2.852-.261,4.312-.088,1.465-.339,2.934-.54,4.434a24.294,24.294,0,0,1-1.013,4.584c-1.978,6.111-5.972,11.525-9.753,17.113l-.7,1.056a3.618,3.618,0,0,0-.418.907,9.633,9.633,0,0,0-.362,2.3c-.1,1.648-.035,3.389.021,5.148.127,3.524.248,7.163.082,10.859a137.091,137.091,0,0,1-2.866,22.416c-.819,3.77-1.949,7.517-3.105,11.206A66.6,66.6,0,0,1,306.186,363a31.6,31.6,0,0,1-3.317,5.133,25.886,25.886,0,0,1-4.444,4.312,61.571,61.571,0,0,1-10.535,5.828,224.82,224.82,0,0,1-21.956,8.414c-3.685,1.208-7.366,2.347-11.049,3.384a96.271,96.271,0,0,1-11.112,2.571l-5.521.985c-.91.191-1.837.255-2.753.362l-2.744.3-2.724.3c-.905.093-1.8.22-2.708.23l-5.371.213c-.888.024-1.771.1-2.652.079l-2.628-.073-5.18-.156-5.054-.473c-.832-.086-1.663-.138-2.482-.251l-2.435-.385a102.292,102.292,0,0,1-18.018-4.316,87.317,87.317,0,0,1-14.81-6.422,54.554,54.554,0,0,1-5.576-3.5l-6.058-4.466,7.566.83c16.515,1.814,33.6,2.134,50.247-1.261a100.854,100.854,0,0,0,24.1-8.091,95.594,95.594,0,0,0,21.18-14.368c3.137-2.83,5.593-5.886,6.435-9.494a37.654,37.654,0,0,0,.712-6.09c.117-2.154.163-4.326.131-6.481a52.055,52.055,0,0,0-.427-6.317c-.06-.511-.161-.98-.249-1.45l-.157-.663-.215-.8-.876-3.256q-1.719-6.51-3.441-13.04c-2.291-8.684-4.582-17.329-7.6-25.655a158.1,158.1,0,0,0-11.139-24.138c-2.195-3.865-4.487-7.769-6.9-11.468a129.442,129.442,0,0,0-7.754-10.755c-2.765-3.456-5.724-6.753-8.785-9.951q-4.653-4.742-9.692-9.074c-3.354-2.887-6.865-5.587-10.469-8.129q-2.7-1.905-5.5-3.658c-.922-.571-1.89-1.167-2.789-1.68l-1.239-.6c-.211-.1-.4-.217-.627-.3l-.7-.239a43.03,43.03,0,0,0-12.211-2.147c-1.072-.024-2.135-.119-3.214-.089l-3.23.046c-2.156.139-4.313.239-6.461.523a85.385,85.385,0,0,0-12.722,2.387c-2.1.5-4.121,1.218-6.168,1.852-1.989.772-4.017,1.464-5.922,2.387-1.968.815-3.779,1.875-5.643,2.85-1.832,1.145-3.721,2.2-5.489,3.43a109.188,109.188,0,0,0-10.337,7.715A118.86,118.86,0,0,0,86.726,258.1c-1.409,3.05-2.712,6.145-3.869,9.286-1.133,3.149-2.131,6.337-2.94,9.55a66.588,66.588,0,0,0-1.74,9.643,36.988,36.988,0,0,0-.193,4.673,20.463,20.463,0,0,0,.192,2.133l.07.5c.024.17.077.411.114.613l.246,1.267c1.314,6.754,2.669,13.456,4.492,19.859a68.093,68.093,0,0,0,7.75,17.884,77.02,77.02,0,0,0,12.286,15.128l1.783,1.638c.6.54,1.241,1.028,1.858,1.545,1.22,1.055,2.555,1.962,3.847,2.923a72.906,72.906,0,0,0,8.31,4.98,116.368,116.368,0,0,0,18.275,7.3l2.387.737c.794.245,1.619.5,2.29.683a36.641,36.641,0,0,0,4.484.863c3.131.425,6.691.657,10.359,1.5l1.7.391.977,1.718a4.285,4.285,0,0,1,.089,3.464,4.148,4.148,0,0,1-.78,1.215,5.064,5.064,0,0,1-.843.749,8.344,8.344,0,0,1-.909.56c-.491.259-.915.453-1.316.621-.808.342-1.564.617-2.322.874-1.51.51-3,.935-4.517,1.308a40.429,40.429,0,0,1-9.594,1.316,47.638,47.638,0,0,1-9.435-1.022,71.5,71.5,0,0,1-8.734-2.758l-4.007-1.417c-1.368-.468-2.77-.952-4.163-1.468a84.106,84.106,0,0,1-8.308-3.543,49.12,49.12,0,0,1-14.919-10.951,40.487,40.487,0,0,1-5.456-7.713,87.817,87.817,0,0,1-3.715-8.12c-2.182-5.415-4-10.846-5.7-16.283-1.679-5.443-3.229-10.876-4.652-16.35l-.266-1.036,0-.014,0-.007c-.035-.089.086.222.036.091l-.2-.507-.786-2.027-1.565-4.051c-.515-1.35-.851-2.768-1.283-4.147-.4-1.39-.834-2.77-1.2-4.165a87.826,87.826,0,0,1-1.422-34.2,17.882,17.882,0,0,1,.364-2.1l.437-2.08c.314-1.38.534-2.784.929-4.138l1.169-4.061c.2-.672.368-1.359.609-2.017l.718-1.976,1.437-3.941,1.677-3.825c1.051-2.58,2.426-4.984,3.656-7.455a140.818,140.818,0,0,1,18.9-26.466,179.689,179.689,0,0,1,23.238-21.5,150.635,150.635,0,0,1,26.2-16.559c1.151-.578,2.379-1.06,3.562-1.591.6-.255,1.237-.471,1.853-.707s1.229-.473,1.906-.653c.658-.184,1.325-.409,1.976-.552l1.938-.36,1.934-.355a14.5,14.5,0,0,1,1.93-.279l3.846-.34.959-.082.953-.012,1.9-.025c1.264.006,2.537-.078,3.786,0l3.749.185a173.377,173.377,0,0,1,28.834,4.587c9.291,2.192,18.29,4.832,27.031,7.725,4.374,1.435,8.67,2.977,12.914,4.542,2.12.82,4.2,1.569,6.339,2.469,2.1.9,4.161,1.848,6.157,2.878,4.011,2.028,7.845,4.261,11.548,6.62a126.791,126.791,0,0,1,10.653,7.539,70.5,70.5,0,0,1,9.427,8.789c1.414,1.592,2.741,3.239,4,4.917l.627.866c.06.175.273.15.43.2l.5.1.26.055.388.1.774.2c.519.122,1.021.289,1.528.442a44.942,44.942,0,0,1,11.207,5.357,42.906,42.906,0,0,1,9.139,7.946,44.175,44.175,0,0,0-11.654-8.574,44.867,44.867,0,0,0-7.113-2.938,35.988,35.988,0,0,0-3.825-.992c-.652-.147-1.3-.239-1.963-.34-.155-.043-.358-.012-.476-.117l-.311-.389-.636-.788c-6.7-8.515-16.22-15.2-26.534-21.034a116.213,116.213,0,0,0-16.251-7.7c-5.732-2.048-11.667-3.952-17.621-5.744a308.281,308.281,0,0,0-36.287-8.676,176.332,176.332,0,0,0-18.066-2.077,81.306,81.306,0,0,0-17.225.83l-2.009.415a15.4,15.4,0,0,0-1.951.455c-.611.211-1.2.345-1.826.607l-1.863.737c-2.484,1.1-4.942,2.305-7.315,3.649a150.624,150.624,0,0,0-13.454,8.549,185.6,185.6,0,0,0-21.708,18.194A167.715,167.715,0,0,0,92.1,218.094,115.625,115.625,0,0,0,77.23,242.118a88.288,88.288,0,0,0-7.548,26.609,77.815,77.815,0,0,0,1.712,27.217l1.875,6.566c.726,2.156,1.6,4.263,2.382,6.395l.3.8.14.366a3.258,3.258,0,0,1,.126.355l.135.539.426,1.682.881,3.364c.6,2.238,1.212,4.471,1.855,6.689,1.277,4.439,2.629,8.837,4.1,13.161a130.046,130.046,0,0,0,4.91,12.611c.5.973.954,1.989,1.474,2.928a31.211,31.211,0,0,0,1.659,2.722,33.032,33.032,0,0,0,4.056,4.909,42.141,42.141,0,0,0,4.9,4.142,55.684,55.684,0,0,0,5.518,3.4,85.3,85.3,0,0,0,12.12,5.1c2.121.732,4.278,1.52,6.354,2.284a55.719,55.719,0,0,0,6.137,1.953,35.866,35.866,0,0,0,6.227.9c1.055.065,2.169.125,3.12.1a27.4,27.4,0,0,0,3.066-.281,48.467,48.467,0,0,0,6.192-1.333c1.017-.286,2.024-.6,2.99-.957.482-.175.953-.364,1.376-.557.211-.095.4-.194.546-.275l.078-.048c.021-.011.006,0,.006,0s-.017-.016.082.11l.22.265c.18.185.263.316.371.434a2.01,2.01,0,0,0,.38.319.4.4,0,0,0,.24.147c.077.014.043.029.088.014l-.341,1.927c-3.323-.79-6.864-1-10.567-1.555a38.9,38.9,0,0,1-5.545-1.231c-1.729-.548-3.461-1.06-5.178-1.646a115.163,115.163,0,0,1-20.024-8.471,80.449,80.449,0,0,1-9.1-5.97,71.476,71.476,0,0,1-8.068-7.221,82.867,82.867,0,0,1-12.721-17.19A82,82,0,0,1,76.742,313.6c-.861-3.376-1.594-6.757-2.279-10.13q-.5-2.529-1-5.053c-.307-1.7-.68-3.286-.9-5.191a44.623,44.623,0,0,1,.551-10.567,82.24,82.24,0,0,1,2.3-10.078,114.28,114.28,0,0,1,7.473-18.973,124.761,124.761,0,0,1,23.276-32.5,118.776,118.776,0,0,1,15.049-12.79q4-2.867,8.212-5.364a71.913,71.913,0,0,1,8.76-4.463,88.007,88.007,0,0,1,18.629-5.483,90.42,90.42,0,0,1,19.161-1.438,61.2,61.2,0,0,1,9.574,1.052,39.042,39.042,0,0,1,4.711,1.319,14.385,14.385,0,0,1,2.305.938,24.1,24.1,0,0,1,2.195,1.152A136.163,136.163,0,0,1,210.1,206.784a144.821,144.821,0,0,1,25.538,26.449,167.945,167.945,0,0,1,9.888,15.171c3.02,5.17,5.829,10.444,8.343,15.833a155.777,155.777,0,0,1,6.557,16.482c1.872,5.573,3.437,11.186,4.923,16.759l4.347,16.614q.549,2.058,1.095,4.111l.547,2.051.273,1.148.2,1.134a59.609,59.609,0,0,1,.546,8.751c-.009,2.877-.123,5.727-.4,8.6-.075.725-.149,1.434-.271,2.19a21.076,21.076,0,0,1-.488,2.28,18.807,18.807,0,0,1-1.8,4.3,28.831,28.831,0,0,1-5.723,6.84c-2.1,1.957-4.35,3.617-6.533,5.4-1.115.854-2.289,1.629-3.429,2.446l-1.72,1.208c-.579.394-1.189.74-1.781,1.111l-3.576,2.189-3.693,1.957c-.618.321-1.226.66-1.85.965l-1.9.857c-1.268.562-2.519,1.161-3.8,1.688-2.593.957-5.139,2.039-7.785,2.79a113.9,113.9,0,0,1-15.912,3.807l-4.018.565-2,.279-2.011.184-4.012.365c-1.337.1-2.674.133-4.008.2a192,192,0,0,1-31.541-1.395l1.64-3.953c.923.687,2.058,1.419,3.136,2.086,1.117.654,2.219,1.324,3.378,1.91l1.715.909,1.758.828,1.755.829,1.792.743c2.367,1.041,4.824,1.84,7.245,2.7l3.7,1.082,1.845.537,1.872.428a112.023,112.023,0,0,0,30.1,2.87l3.741-.125c1.242-.1,2.48-.248,3.717-.368l3.7-.379c.616-.07,1.235-.111,1.847-.2l1.829-.316,7.291-1.255c2.379-.512,4.761-1.09,7.13-1.738a263.392,263.392,0,0,0,27.666-9.2c3.206-1.305,6.55-2.71,9.851-4.381l2.453-1.306c.787-.471,1.594-.942,2.359-1.442a21.25,21.25,0,0,0,4.105-3.59,32.942,32.942,0,0,0,5.848-10.06c.757-1.9,1.437-3.865,2.095-5.875s1.322-4.064,1.907-6.089a124.841,124.841,0,0,0,4.3-25.471c.346-4.287.227-8.589.16-12.937a26.477,26.477,0,0,1,.514-6.755c.112-.306.2-.61.342-.914a7.9,7.9,0,0,1,.494-.852l.917-1.316,1.837-2.586a72.575,72.575,0,0,0,6.462-10.333,27.133,27.133,0,0,0,1.976-5.423c.23-.9.36-1.873.517-2.814.137-.945.339-1.877.421-2.813a69.192,69.192,0,0,0,.493-10.847,60.19,60.19,0,0,0-1.3-9.837,49.11,49.11,0,0,0-6.236-15.071A53.588,53.588,0,0,0,314,228.486Z" /><path class="cls-4 color-hood" d="M183.638,383.026c-5.123.17-9.523,4.213-11.432,8.97s-1.747,10.088-1.038,15.164a75.963,75.963,0,0,0,9.72,27.9c1.565-.326,2.047-2.308,2.081-3.906.174-8.154-2.936-15.989-4.15-24.053s.1-17.518,6.786-22.188" style="" /><path d="M185.631,384.951a18.743,18.743,0,0,1-2.016,2.494,18.1,18.1,0,0,0-2.933,5.671,27.23,27.23,0,0,0-.486,13.393c1.2,5.382,3.353,11.028,4.584,17.32.161.805.272,1.533.407,2.434a37.3,37.3,0,0,1,.261,4.156v1.01l0,.5-.077.4-.315,1.612a5.9,5.9,0,0,1-1.222,2.3,4.437,4.437,0,0,1-2.252,1.395l-.357.107-.179.036-.359.075-.358.079-.179.04-.09.021c-.033,0-.08-.077-.119-.112l-.987-1.048-.494-.523c-.165-.225-.332-.565-.5-.843-.666-1.165-1.337-2.318-1.97-3.611l-.845-1.655c-.277-.548-.574-1.226-.667-1.414q-.427-.9-.814-1.817-.8-1.824-1.466-3.687a69.792,69.792,0,0,1-2.271-7.5,68.958,68.958,0,0,1-1.384-7.51,45.287,45.287,0,0,1-.416-7.482,26.323,26.323,0,0,1,1.21-7.288,20.256,20.256,0,0,1,1.419-3.333,17.654,17.654,0,0,1,2-2.886,15.258,15.258,0,0,1,5.15-3.977,11.6,11.6,0,0,1,5.71-1.109,14.3,14.3,0,0,0-4.637,3.029,16.165,16.165,0,0,0-3.268,4.655c-1.567,3.305-1.7,6.715-2.088,8.533a37.117,37.117,0,0,0-.157,11.43,60.358,60.358,0,0,0,2.281,10.887c.536,1.722,1.117,3.4,1.781,5.023.159.408.328.81.5,1.207l.4.934c.223.486.444.976.687,1.452s.488.945.736,1.4l.383.671c.138.187.208.574.5.345a1.781,1.781,0,0,0,.853-1.229,5.027,5.027,0,0,0,.123-1.506c0-.5-.045-.979-.083-1.448l-.082-.691-.129-.908c-.216-1.5-.513-2.976-.849-4.425-.66-2.9-1.466-5.7-2.143-8.47a52.609,52.609,0,0,1-1.49-8.268,28.66,28.66,0,0,1,.39-7.979,18.258,18.258,0,0,1,3.535-7.985,14.622,14.622,0,0,1,2.818-2.713l.614-.445.563-.322Z" /><path d="M184.775,447.072c-.9.194-1.51-1.73-2.238-2.317a9.7,9.7,0,0,1-2.565-3.839,7.35,7.35,0,0,1,.318-6.871c2.5.2,4.449,1.12,4.154,1.687a5.948,5.948,0,0,0-.259,5.466c.606,1.426,1.49,2.538,1.484,3.766A4.879,4.879,0,0,1,184.775,447.072Z" /><path d="M259.158,376.132a23.959,23.959,0,0,0,3.663-2.689c.966-.814,2.08-1.8,3.258-2.944.592-.57,1.186-1.194,1.778-1.853.281-.336.577-.676.821-1.032a2.171,2.171,0,0,0,.471-1.007,149.386,149.386,0,0,0,1.009-21.581,153.914,153.914,0,0,0-1.553-18.741,188.293,188.293,0,0,0-3.957-19.579c-1.716-6.559-3.927-13.207-6.305-19.769a205.859,205.859,0,0,0-17.842-37.2q-4.607-7.41-9.819-14.3c-3.486-4.569-7.207-8.887-11.034-13.007a147.863,147.863,0,0,0-24.87-21.077,150.159,150.159,0,0,0-26.188-14,188.194,188.194,0,0,0-24.252-8.036,94.829,94.829,0,0,1,12.322,1.309l3.488.6,3.525.825,3.565.869c1.179.326,2.342.7,3.506,1.058,9.313,2.845,17.682,6.914,21.715,9.6a158.127,158.127,0,0,1,39.816,37.1,196.827,196.827,0,0,1,24.043,41.276c3,6.844,5.533,13.619,7.724,20.259A162.572,162.572,0,0,1,272.7,348.35a111.435,111.435,0,0,1-2.013,18.573,4.244,4.244,0,0,1-.268.751c-.138.229-.294.465-.428.646a12.675,12.675,0,0,1-.872.974c-.588.606-1.192,1.135-1.781,1.644-1.184,1.006-2.337,1.872-3.39,2.612C261.847,375.015,260.094,376.021,259.158,376.132Z" /><g class="cls-2"><g class="cls-3"><path d="M236.578,376.99c.264-.554,2.89-1.183,5.841-2.848A24.193,24.193,0,0,0,246.805,371a20.649,20.649,0,0,0,3.434-4.059l2.529,1.917a6.087,6.087,0,0,0-1.1,3.271,7.674,7.674,0,0,0,.037.925l-2.244-2.1c1.779-.452,3.306-2.426,4.256-4.8.5-1.229.926-2.66,1.475-4.21a20.782,20.782,0,0,1,2.38-4.913l5.872,2.746c-.761,3.98-1.557,7.9-2.33,11.686l-4.911-4.234a1.4,1.4,0,0,0,.4-.333,6.8,6.8,0,0,0,1.1-2.142c.18-.5.35-1.061.52-1.658l.548-1.923c.741-2.574,1.5-5.112,2.279-7.6l7.457.729a114.108,114.108,0,0,1,.23,12.49l-6.423-1.375a50.809,50.809,0,0,0,5.772-19.914,21.469,21.469,0,0,1,3.353,11.082c.21,4.227-.765,8.231-1.844,10.042-.338.6-.719,1.182-1.048,1.719l-6.7-1.434a91.606,91.606,0,0,0,.668-12.07l4.3.421q-1.7,4.482-3.124,8.77a25.163,25.163,0,0,1-1.792,4.423,7.646,7.646,0,0,1-3.857,3.6l-2.616.969.636-2.676c.967-4.073,1.808-7.991,2.58-11.747l2.9,1.357c-1.632,2.362-2.25,5.451-3.676,8.5a14.271,14.271,0,0,1-3,4.245,8.66,8.66,0,0,1-5.021,2.426l-2.389.236.049-2.427a10.445,10.445,0,0,1,2.353-6.4l3.4,2.577a20.853,20.853,0,0,1-3.493,3.667,18.614,18.614,0,0,1-7.4,3.682A19,19,0,0,1,236.578,376.99Z" /></g></g><g class="cls-2"><g class="cls-3"><path d="M316.594,267.35a3.494,3.494,0,0,0-.723,1.04,1.954,1.954,0,0,0,.711,2.211l.51.374-.585.313a4.882,4.882,0,0,1-1.271.5,4.5,4.5,0,0,1-1.468.1l-.247-.029-.123-.021-.061-.011c-.032-.008-.039-.007,0,.008a4.612,4.612,0,0,1,1.682,1.212,4,4,0,0,1,.334.458c.033.062.115.2.184.346s.133.284.181.436a4.176,4.176,0,0,1,.231,1.941l-.064.5-.524.066a14.586,14.586,0,0,1-1.757.115,9.176,9.176,0,0,1-1.059-.044c-.293-.029-.576-.071-.846-.125l-.395-.089c-.092-.013-.373-.133-.148.021a4.419,4.419,0,0,1,1.088,1.267,3.61,3.61,0,0,1,.176.36,3.019,3.019,0,0,1,.162.489,3.147,3.147,0,0,1,.086.371,3.7,3.7,0,0,1,.07.455,5.713,5.713,0,0,1,.028.872,5.412,5.412,0,0,1-.29,1.554c-.085.234-.157.46-.252.686l-.132.333c-.047.1-.124.124-.183.19l-.073-.016c-.792-.164-1.618-.332-2.455-.544l-1.015-.265-.874-.251a34.092,34.092,0,0,1-3.618-1.315l1.441-2.056A15.809,15.809,0,0,1,308,282.1a13.307,13.307,0,0,1,1.285,2.847,27.392,27.392,0,0,1,.7,3.282,1.837,1.837,0,0,1-.535.217l-.727.157a9.339,9.339,0,0,1-1.386.212,4.733,4.733,0,0,1-1.489-.21,3.518,3.518,0,0,1-.782-.26l-.8-.422a5.446,5.446,0,0,1-.793-.487l-.63-.473-.876-.726-.206-.18-.043-.032-.071-.051-.132-.093a.608.608,0,0,0-.451-.155.245.245,0,0,0-.094.044c-.014.024.063.078.085.114a2.694,2.694,0,0,1,.175.22l.1.154.037.067.008.015c.007.021-.007-.032.027.08l.161.519a14.343,14.343,0,0,1,.511,3.239c.046,1.036-.023,1.952-.036,2.991l-.5.027-.614.007-1.169.009a5.269,5.269,0,0,1-2.234-.5,5.147,5.147,0,0,1-.875-.52,3.566,3.566,0,0,1-.434-.3l-.411-.4c-.271-.269-.555-.517-.809-.819l-.533-.661-1.425-1.9a8.991,8.991,0,0,0-1.3-1.37,3.225,3.225,0,0,0-1.226-.567l2.063-2.95a41.866,41.866,0,0,1,2.568,5.386l.134.344.213.59c.152.43.313.854.445,1.291.287.872.525,1.723.736,2.544.406,1.643.686,3.109,1.038,4.694l-1.666-.419-1.782-.467a7.924,7.924,0,0,1-1.631-.621,7.438,7.438,0,0,1-.836-.467l-.859-.644a6.574,6.574,0,0,1-.85-.8,11.012,11.012,0,0,1-.811-.864l-.71-.883-.176-.22-.031-.044-.048-.072a.812.812,0,0,1-.1-.172l-.061-.113a1.5,1.5,0,0,0-.564-.566l-.118-.064c-.008,0,.006.014.009.022a.593.593,0,0,1,.036.075,1.474,1.474,0,0,1,.074.256,2.48,2.48,0,0,1,.06.346l.065.874a12.788,12.788,0,0,1-.064,2.577c-.04.4-.1.781-.153,1.161-.064.372-.1.8-.188,1.115-1.349-.459-2.6-.889-3.781-1.385l-.8-.386c-.189-.089-.368-.195-.547-.3-.357-.206-.712-.4-1.043-.628a18.654,18.654,0,0,1-3.485-2.888,13.761,13.761,0,0,1-3.648-6.81,15.823,15.823,0,0,0,5.115,5.779,19.469,19.469,0,0,0,3.653,2.017c1.673.721,1.574.44,1.782.408a1.154,1.154,0,0,0-.1-.361c-.02-.048-.037-.057-.058-.111-.024-.079-.022.034-.114-.506a15.2,15.2,0,0,0-.438-1.624,7.063,7.063,0,0,0-.345-.868c-.135-.3-.236-.572-.4-.892l-.734-1.18-.361-.58-.192-.3-.319-.449-2.55-3.59c1.076.191,1.592.294,1.922.371a4.45,4.45,0,0,1,.632.183c.113.051.212.088.229.1a.149.149,0,0,0,.034.013l.4.094.787.187,1.346.351a6.155,6.155,0,0,1,1.18.417l.578.283.58.374a9.277,9.277,0,0,1,1.171.916,4.758,4.758,0,0,1,.6.594l.6.652c.393.476.789,1.009,1.16,1.491l.9,1.261.245.38a3.753,3.753,0,0,0,.489.623,3,3,0,0,0,.723.56,2.925,2.925,0,0,0,.446.2c.031.007.1.05.1.029l-.007-.082-.017-.17a9.833,9.833,0,0,0-.223-1.164l-.179-.65-.111-.352-.232-.639a39.027,39.027,0,0,0-2.2-4.827l-.851-1.58,1.749.3a6.01,6.01,0,0,1,3.266,1.883,23.981,23.981,0,0,1,2.053,2.633c.154.207.3.426.458.62.184.228.22.293.345.43a3.865,3.865,0,0,0,.689.652,1.749,1.749,0,0,0,.406.238,1.375,1.375,0,0,0,.443.146,1.421,1.421,0,0,0,.459.042c.064-.014.185.032.2-.032l.008-.228a7.115,7.115,0,0,0-.313-2.247c-.047-.147-.07-.252-.136-.432l-.219-.578a12.684,12.684,0,0,0-.546-1.158,23.725,23.725,0,0,0-1.963-2.742,1.355,1.355,0,0,0-.094-1.26,2.01,2.01,0,0,0-.166-.271l-.085-.132.314-.052.626-.1.584-.017a4.976,4.976,0,0,1,2.157.5,10.015,10.015,0,0,1,2.191,1.368c.377.288.759.642,1.139.96l.988.874c.26.212.516.445.775.637a5.021,5.021,0,0,0,.5.349,2.743,2.743,0,0,0,.993.412,1.78,1.78,0,0,0,.516-.01l.248-.06c.061,0,.048-.044.036-.091l-.025-.132a6.094,6.094,0,0,0-.31-1.047c-.066-.164-.136-.323-.212-.477l-.131-.254-.228-.411a13.941,13.941,0,0,0-2.276-2.913l1.2-1.713a35.364,35.364,0,0,0,3.318,1.3l.831.269.676.2.764.194c.11.066.12-.068.159-.141a1.971,1.971,0,0,0,.076-.256,2.116,2.116,0,0,0,.05-.525,2.518,2.518,0,0,0-.026-.256,3.14,3.14,0,0,0-.089-.406l-.014-.056c0-.016-.006-.027-.035-.114l-.1-.216-.191-.428c-.089-.147-.217-.3-.323-.446a2.632,2.632,0,0,0-.387-.458c.228-1.134.032-1.555-.238-1.881-.164-.125.1-.063.191-.093a2.428,2.428,0,0,0,.406-.081,3.028,3.028,0,0,0,1.013-.533,12.435,12.435,0,0,0,1.927.344c.259.016.568.041.8.043l.512.008c.342,0,.682-.015,1-.034l-.842.811a2.735,2.735,0,0,0-.112-1.359,2.594,2.594,0,0,0-.119-.317,1.948,1.948,0,0,0-.275-.458,1.564,1.564,0,0,0-.337-.395c-.135-.118-.224-.227-.352-.32a1.976,1.976,0,0,0-.567-1.379,2.107,2.107,0,0,0-.541-.372c-.061-.026.023-.006.045,0l.105.014.211.018a3.96,3.96,0,0,0,.422,0,4.809,4.809,0,0,0,.784-.115c.475-.121.819-.266.826-.2a4.653,4.653,0,0,0,1.476-.284l.3-.105.01,0-.042.388h0v0l0,0-.009-.014a.037.037,0,0,1-.007-.016.011.011,0,0,1,.011,0l.012.007.008,0,0,0h0l.038-.343-.038.343a2.471,2.471,0,0,1-.849-1.688,2.064,2.064,0,0,1,.3-1.235A1.972,1.972,0,0,1,316.594,267.35Z" /></g></g><path class="cls-4 color-hood" d="M139.467,373.373c2.235,5.124-2.54,10.286-6.14,14.925-8.315,10.712-11.252,23.833-8.072,36.072a5.671,5.671,0,0,0,5.052-3.574c.674-1.81.389-3.737.244-5.617-.794-10.327,2.973-20.831,10.537-29.379a22.093,22.093,0,0,0,3.621-4.7,4.629,4.629,0,0,0-.476-5.253" style="" /><path d="M144.266,375.819a1.592,1.592,0,0,1,.851.686,4.09,4.09,0,0,1,.754,2.241,6.39,6.39,0,0,1-.755,3.195,16.647,16.647,0,0,1-2.109,3.049,49.364,49.364,0,0,0-4.458,5.909,31.441,31.441,0,0,0-2.755,5.311,40.511,40.511,0,0,0-2.949,16.152c0,.7.07,1.392.128,2.086.04.684.151,1.4.224,2.208a10.852,10.852,0,0,1-.707,5.7,7.288,7.288,0,0,1-.972,1.56,8.962,8.962,0,0,1-1.484,1.463,8.454,8.454,0,0,1-3.49,1.571,17.529,17.529,0,0,1-1.766.2l-.914.076c-.1.041-.081-.1-.125-.14l-.088-.2-.176-.392-.707-1.567-.355-.783a3.6,3.6,0,0,1-.169-.405l-.119-.5c-.15-.568-.249-1.187-.356-1.8l-.2-1.133c-.1-.662-.164-1.328-.244-1.991s-.111-1.33-.148-2-.074-1.33-.052-1.994a38.531,38.531,0,0,1,.781-7.834,39.126,39.126,0,0,1,2.184-7.327,41.138,41.138,0,0,1,3.3-6.543,44.887,44.887,0,0,1,4.082-5.6c1.429-1.664,2.833-3.138,4.032-4.605a17.949,17.949,0,0,0,2.842-4.364,6.514,6.514,0,0,0,.364-4.349,6.048,6.048,0,0,1,1.742,4.986,16.733,16.733,0,0,1-1.946,6.279,53.757,53.757,0,0,1-2.969,5.017c-.425.693-.831,1.316-1.216,1.854a16.856,16.856,0,0,1-1,1.389,35.431,35.431,0,0,0-7.992,19.971,33.69,33.69,0,0,0,.042,5.107q.054.629.109,1.251l.167,1.124a15.319,15.319,0,0,0,.287,1.531l.084.379a1.852,1.852,0,0,0,.046.185l.191-.012a3.125,3.125,0,0,0,.749-.153,3.429,3.429,0,0,0,1.29-.771,3.17,3.17,0,0,0,.477-.556,3.647,3.647,0,0,0,.427-.8,5.825,5.825,0,0,0,.352-1.948c.043-1.383-.253-2.931-.315-4.524a39.391,39.391,0,0,1-.011-4.647,38.591,38.591,0,0,1,9.164-22.637,31.766,31.766,0,0,1,2.765-2.851,19.482,19.482,0,0,0,2.747-2.909,5.1,5.1,0,0,0,1.02-3.124A4.063,4.063,0,0,0,144.266,375.819Z" /><path d="M127.557,432.159c-.026-.1-.05-.25.189-.315a.468.468,0,0,1,.429.192.669.669,0,0,1,.137.5.753.753,0,0,1-.376.552,1.046,1.046,0,0,1-.611.123,1.175,1.175,0,0,1-.9-.537,2.036,2.036,0,0,1-.286-.839c-.036-.137-.073-.272-.108-.4a2.207,2.207,0,0,0-.289-.67,8.039,8.039,0,0,1-1.239-3.8,6.014,6.014,0,0,1,2.156-5.564c2.378.7,4.025,1.962,3.588,2.378-3.512,3.348-.779,6.065-1.622,8.088a.481.481,0,0,1-.033.094l-.006.013-.444-.014H128.1l-.091,0a1.074,1.074,0,0,0-.341.069.5.5,0,0,0-.093.052.281.281,0,0,0,.038-.07l.023-.067.011-.041,0-.021v-.01l-.056.278a.265.265,0,0,0,.006.173c-.013-.013-.033,0,.019-.011.054-.029.047-.02.043-.034A.2.2,0,0,0,127.557,432.159Z" /></g></g></g></svg>