<svg xmlns="http://www.w3.org/2000/svg" viewBox="0 0 380 600"><defs><style>.cls-1{isolation:isolate;}.cls-2{fill:#ff4500;}.cls-3{fill:none;}.cls-4{mix-blend-mode:multiply;}.cls-5{opacity:0.3;}</style></defs><g class="cls-1"><g id="Sketch"><path class="cls-2" d="M112.485,206.649a19.135,19.135,0,0,1,6.946,7.119c-17.949,12.207-42.554,12.277-53.123-6.852,9.424-.452,15.829-11.425,28.055-8.907"></path><path d="M94.355,198.048a2.181,2.181,0,0,1-.942.138c-.492.035-1.135-.081-1.908.007a18.853,18.853,0,0,0-5.583,1c-4.1,1.363-8.175,4.435-10.618,6-.593.388-1.2.776-1.837,1.153a22.609,22.609,0,0,1-2.016,1.033l-1.482.637a3.713,3.713,0,0,1-.57.2c-.095-.006.025.092.061.147l.148.181c.094.115.183.22.272.31l.266.279.87,1.025a28.926,28.926,0,0,0,3.921,3.69,26.99,26.99,0,0,0,9.458,4.626,35.909,35.909,0,0,0,12.358,1,48.34,48.34,0,0,0,11.772-2.541,53.885,53.885,0,0,0,5.3-2.144l1.253-.593.609-.314.3-.156.151-.077a.387.387,0,0,1,.062-.024c.145-.049.279-.1.437-.168l.244-.1.129-.055a.326.326,0,0,0,.062-.03l-.014-.049a4.952,4.952,0,0,0-.37-.916,19.563,19.563,0,0,0-1.381-1.911,19.139,19.139,0,0,0-3.2-3.1,11.825,11.825,0,0,1,4.609,1.71c.4.244.8.516,1.188.808.2.144.385.3.58.456a6.788,6.788,0,0,1,.62.562,19.453,19.453,0,0,1,1.452,1.693l.714.948.364.5.183.253.045.064-.05.042-.1.085-1.692,1.409c-.3.24-.588.487-.906.726-.157.12-.316.241-.479.352-.139.1-.378.258-.432.306a24.376,24.376,0,0,1-2.127,1.507,16.461,16.461,0,0,1-3.541,1.795c-10.212,3.368-20.22,3.926-28.766,1.472A31.417,31.417,0,0,1,72.524,216.2a29.487,29.487,0,0,1-4.236-4.185l-.459-.563a7.659,7.659,0,0,1-.486-.626q-.569-.837-1.13-1.664c-.388-.549-.726-1.13-1.081-1.7L64.6,206.6c-.161-.278-.426-.615-.352-.764,1.188-.161,2.383-.279,3.572-.555l.894-.179.447-.089a1.517,1.517,0,0,0,.3-.095l1.008-.381c.669-.254,1.279-.587,1.909-.877.619-.346,1.233-.649,1.839-1.011a75.891,75.891,0,0,1,7.3-3.985,17.786,17.786,0,0,1,7.5-1.61l.948.016c.308.032.607.082.893.122a14.019,14.019,0,0,1,1.565.275C93.341,197.729,94.021,197.938,94.355,198.048Z"></path><path class="cls-2" d="M111.659,220.016c7.758-28.764-20.845-40.155-40.406-27.551,18.122-4.229,6.645,22.48,30.828,27.785"></path><path d="M102.073,220.289a2.435,2.435,0,0,1-1.042.01,11.959,11.959,0,0,1-2.145-.415,19.7,19.7,0,0,1-6.111-2.75,20.678,20.678,0,0,1-5.5-5.567,40.192,40.192,0,0,1-3.081-5.581c-1.178-2.433-2.132-5.049-3.3-7.377a11.332,11.332,0,0,0-2.018-2.969l-.593-.507-.319-.2-.04-.025-.118-.085a1.5,1.5,0,0,0-.224-.12,1.11,1.11,0,0,0-.517-.175l-1.384-.154-.7-.076-.351-.038a.162.162,0,0,0-.053,0l-.176.031-.352.063-.7.127L60.9,196.746l4.138-2.7.97-.761c.033-.121.077-.238-.316-.066l-.215.079-.052.019c-.011,0-.068.032.033-.028l.39-.242,1.572-.97,3-1.838c.964-.6,2.088-1.179,3.132-1.775l.4-.221.478-.2.957-.4,1.92-.8c.328-.127.67-.253,1.015-.365l.97-.285c.392-.114.78-.244,1.175-.341.794-.175,1.577-.388,2.37-.522a30.183,30.183,0,0,1,15.891,1.225,24.319,24.319,0,0,1,12.1,9.41,23.523,23.523,0,0,1,3.736,13.187,31.045,31.045,0,0,1-2.193,11.063c-.09-.793-.155-1.653-.2-2.553-.072-.9-.148-1.852-.226-2.825a47.463,47.463,0,0,0-.929-5.806,42.461,42.461,0,0,0-3-8.37,18.368,18.368,0,0,0-8.331-9.243,24.42,24.42,0,0,0-11.844-2.947,26.248,26.248,0,0,0-9.96,1.883,14.444,14.444,0,0,0-1.505.747,7.152,7.152,0,0,0-.682.409l-.324.209-.159.1-.078.051c-.021.015-.078.044-.014.027a8.657,8.657,0,0,1,3.3-.184,4.267,4.267,0,0,1,.964.311,2.188,2.188,0,0,1,.452.249,5.207,5.207,0,0,1,.829.634,10.956,10.956,0,0,1,2.4,3.082,46.151,46.151,0,0,1,2.674,6.345c1.459,4.039,3.023,7.613,5.331,10.4a25.188,25.188,0,0,0,2.51,2.625c.5.438,1.03.858,1.565,1.28.569.369,1.1.8,1.685,1.126a33.1,33.1,0,0,0,3.193,1.684Z"></path><path d="M92.588,201.91c.158-.382,1.268-.408,2.481-.019a27.2,27.2,0,0,1,3.187,1.441,13.155,13.155,0,0,1,3.685,2.478,31.1,31.1,0,0,1,2.982,3.2,20.532,20.532,0,0,1,3.509,6.174,15.537,15.537,0,0,1,.8,3.247,4.383,4.383,0,0,1-.8,3.275,5.224,5.224,0,0,0-1.262-1.415,12.108,12.108,0,0,0-1.3-.807c-.78-.412-1.457-1.076-1.48-1.559a14.469,14.469,0,0,0-3.955-8.931,44.223,44.223,0,0,0-5.46-4.763,13.894,13.894,0,0,1-1.29-1.273C93.224,202.478,92.747,202.067,92.588,201.91Z"></path><path class="cls-2" d="M280.961,225.765c-.008-.311-.208-.755-.562-.63C231.6,172.974,139.9,185,91.708,220.993c23.029,12.116,13.138,22.01,69.471,36.182,35.445,8.917,108.308,1.693,119.783-31.385.082.1.166.2.246.3Z"></path><path class="cls-3" d="M280.961,225.765c-.008-.311-.208-.755-.562-.63C231.6,172.974,139.9,185,91.708,220.993c23.029,12.116,13.138,22.01,69.471,36.182,35.445,8.917,108.308,1.693,119.783-31.385.082.1.166.2.246.3Z"></path><path d="M281,225.751c.076.063.174.152.293.272l-.164.129-.274-.272.243-.044c-.145.467-.367,1.113-.659,1.922-.153.4-.3.855-.5,1.324l-.757,1.478a32.34,32.34,0,0,1-5.1,7.129,49.356,49.356,0,0,1-8.823,7.275,72.167,72.167,0,0,1-11.585,6.1,105.686,105.686,0,0,1-12.987,4.568c-4.418,1.259-8.845,2.313-13.1,3.1a197.985,197.985,0,0,1-21.932,2.89,168.534,168.534,0,0,1-32.331-.4c-2.761-.306-5.528-.729-8.3-1.247-1.386-.24-2.764-.586-4.151-.876l-4.065-1.031q-8.148-2.014-16.267-4.591c-2.689-.912-5.405-1.734-8.056-2.815-1.33-.523-2.673-1-3.992-1.564l-3.933-1.761a65.861,65.861,0,0,1-14.642-9.295c-4.377-3.782-8.095-7.689-12.418-10.67l-1.65-1.078-.822-.54-.411-.27-.2-.134-.383-.219-6.543-3.695c-.112-.078-.328-.15-.355-.235l.4-.288.807-.576,1.613-1.154,3.244-2.32,1.886-1.344,1.721-1.124a153.558,153.558,0,0,1,25.029-13.261,177.37,177.37,0,0,1,26.487-8.617,171.963,171.963,0,0,1,53-4.5c17.054,1.3,33.133,5.4,46.744,12.012A111.351,111.351,0,0,1,266.6,211.286,109.912,109.912,0,0,1,280.96,224.61l-.817-.2a1.1,1.1,0,0,1,.9.079,1.206,1.206,0,0,1,.449.459,1.7,1.7,0,0,1,.2.594l.009.08a.341.341,0,0,0-.036-.106.321.321,0,0,1,.029.108l-.016-.082c-.015-.065-.031-.127-.052-.19a1.69,1.69,0,0,0-.185-.383,1.2,1.2,0,0,0-.448-.412,1,1,0,0,0-.809-.041l.7.171a140.6,140.6,0,0,0-15.534-11.776,121.851,121.851,0,0,0-19.726-10.051,129.854,129.854,0,0,0-19.741-6.152c-1.5-.4-2.968-.669-4.365-.945s-2.72-.567-3.975-.794l-6.522-1.1a146.369,146.369,0,0,0-22.008-1.848,160.228,160.228,0,0,0-21.484,1.165,182.879,182.879,0,0,0-20.58,3.739,176.477,176.477,0,0,0-19.392,6.008,150.414,150.414,0,0,0-17.951,8.053c-2.879,1.468-5.624,3.121-8.35,4.753l-3.991,2.567c-.336.207-.652.442-.973.668l-.848.6-1.182.838-.594.421c-.2.073.066.133.141.2l.339.193,1.351.769.674.384.982.647,1.976,1.308c.668.42,1.265.938,1.9,1.4.617.485,1.268.929,1.852,1.446,1.188,1.01,2.377,2.013,3.492,3.064,2.269,2.074,4.416,4.174,6.713,6.026.577.46,1.133.945,1.722,1.382l1.784,1.279c1.159.892,2.454,1.577,3.672,2.363,10.1,5.8,21.074,9.186,31.643,12.158,5.344,1.351,10.548,2.891,15.735,3.761a135.9,135.9,0,0,0,15.5,1.739,190.965,190.965,0,0,0,29.689-.654,169.736,169.736,0,0,0,27.252-4.833c8-2.129,18.792-5.86,27.026-11.491a41.08,41.08,0,0,0,9.788-9.043,35.691,35.691,0,0,0,2.719-4.159c.588-1.272,1.055-2.284,1.373-2.973l-.044.008.242.3.049-.037Z"></path><path d="M248.492,218.858a17.172,17.172,0,0,1-3.688,2.222c-2.134,1.043-5.01,2.324-8.176,3.5a145.382,145.382,0,0,1-17.94,5.231,125.756,125.756,0,0,1-23.6,3.3,178.91,178.91,0,0,1-24.249-.539,239.646,239.646,0,0,1-38.811-6.9c-11.889-3.055-22.417-6.44-30.765-9.368,8.2-.042,23.314,2.293,28.488,3.857,20.813,6.537,39.928,9.65,56.855,9.776a155.245,155.245,0,0,0,23.653-1.531,174.559,174.559,0,0,0,20.216-4.089c1.46-.432,3.205-.883,5.024-1.369,1.8-.554,3.717-1.006,5.458-1.6C244.49,220.305,247.475,219.16,248.492,218.858Z"></path><g class="cls-4"><g class="cls-5"><path d="M148.587,238.838c-.991.386-7.38-1.808-15.117-4.657l.708-2.86a13.471,13.471,0,0,0,6.706-1.354l-.243,3.02-4.515-2.82-5.981-3.787a21.519,21.519,0,0,1-4.257-3.529,6.84,6.84,0,0,1-1.2-1.534,3.168,3.168,0,0,1-.385-1.976,4.693,4.693,0,0,1,.244-.836,3.479,3.479,0,0,1,.4-.658,4.638,4.638,0,0,1,1.786-1.307,17.612,17.612,0,0,1,2.084-.717,12.421,12.421,0,0,1,3.1-.442c1.286.008,2.656.076,4.031.118l4.236.157,2.719.059,5.287.132-1.5,7.333a72.755,72.755,0,0,1-19.628-9.267l-8.993-6.028,10.843-2.018A60.929,60.929,0,0,1,155.839,207l1.886.545-5.568,7.708a15.376,15.376,0,0,0-13.487-5.746l-1.09-10.21a76.207,76.207,0,0,1,37.821,6.118l-5.048,6.7-.723-.991c-.484-.59-1.031-1.267-1.59-1.859a30.6,30.6,0,0,0-3.751-3.509c-2.98-2.281-6.413-4.769-9.348-6.948.452-.115.99-.248,1.272-.338l.482-.147.357-.128a.756.756,0,0,1,.223-.064l.439-.058.874-.114,1.718-.221c2.227-.271,4.3-.521,6.362-.7l1.53-.133,1.566-.071c1.015-.066,2.086-.038,3.11-.033,1.017-.012,2.067.1,3.059.149.492.023,1.015.081,1.455.134l.986.136a49.549,49.549,0,0,1,13.873,4.243,118.824,118.824,0,0,0-14.666.947l-.484.07a1.843,1.843,0,0,0-.292.08c-.162.054-.312.118-.449.176a4.032,4.032,0,0,0-.688.358,1.362,1.362,0,0,0-.624.7.614.614,0,0,0,.149.588c.036.145.642.363.9.473a2.251,2.251,0,0,0,.745.223c.031,0,.031-.007.018,0a.186.186,0,0,0-.028.026c-.061-.068.057.083.091.132l.152.21.28.409c.128.195.255.391.371.569l10.564,16.195-16.324-8.548a65.054,65.054,0,0,0-33.638-7.173l-.531-4.973a22.83,22.83,0,0,1,20.01,9.182l3.7,5.094-5.938-1.992a51.944,51.944,0,0,0-25.589-1.841l.882-3.838a69.457,69.457,0,0,0,17.888,8.68l-1.007,4.935L142,221.85l-1.411-.075-.978-.045-1.282-.045-2.4-.1a4.008,4.008,0,0,0-1.148.045.909.909,0,0,0-.792.733,1.075,1.075,0,0,0,.364.833,4.251,4.251,0,0,0,.719.564l1.468,1.026,4.127,3L143,229.448l3.794,2.711-4.148,1.678a16.056,16.056,0,0,1-8.795.862l.906-3.66C140.817,234.262,146.94,237.824,148.587,238.838Z"></path></g></g></g></g></svg>