<svg xmlns="http://www.w3.org/2000/svg" viewBox="0 0 380 600"><defs transform="matrix(-1, 0, 0, 1, 380, 0)"><style>.cls-1{isolation:isolate;}.cls-2{opacity:0.4;}.cls-3{fill:#24a0ed;}.cls-4{fill:#fff;}.cls-5{mix-blend-mode:multiply;}.cls-6{opacity:0.3;}.cls-7{fill:#fff1b6;}.cls-8{fill:#d3d6da;}</style></defs><g class="cls-1" transform="matrix(-1, 0, 0, 1, 380, 0)"><g id="sports"><g class="cls-2"><path d="M84.812,254.633c-.491-.519-.695-2.917.439-6.343a17.587,17.587,0,0,1,1.164-2.691,17.3,17.3,0,0,1,1.921-2.766,18.4,18.4,0,0,1,6.007-4.621,27.115,27.115,0,0,1,7.568-2.324,52.3,52.3,0,0,1,7.542-.646c4.819-.055,9.088.3,12.149.412,5.407.212,10.909.853,16.4,1.588s11.011,1.606,16.337,2.133a303.949,303.949,0,0,0,32.566,1.1,255.875,255.875,0,0,1,28.635,1.052,96.444,96.444,0,0,1,14.443,2.658,52.437,52.437,0,0,1,13.9,5.811,36.49,36.49,0,0,1,11.031,10.308,34.6,34.6,0,0,1,5.452,12.656c.119.524.26,1.042.353,1.559q.1.777.208,1.547.189,1.527.374,3.023c.045,1.98.157,3.9.065,5.751-.147,1.843-.22,3.632-.476,5.337q-.411,2.555-.853,4.919c-.841-1.454-1.653-3.028-2.423-4.668-.36-.822-.821-1.656-1.242-2.5s-.84-1.691-1.241-2.543c-.375-.859-.909-1.682-1.334-2.519-.463-.828-.843-1.676-1.328-2.469-1.009-1.566-1.832-3.154-2.89-4.49a46.78,46.78,0,0,0-2.9-3.725l-1.459-1.492c-.233-.236-.428-.493-.666-.7l-.7-.607c-.459-.392-.83-.819-1.247-1.168a15.327,15.327,0,0,1-1.171-1q-.263-.248-.493-.494l-.506-.426a7.426,7.426,0,0,1-.822-.845,27.072,27.072,0,0,0-7.31-5.671,51.222,51.222,0,0,0-9.318-3.713,107.411,107.411,0,0,0-20.043-3.468c-13.362-1.182-26.132-1.059-38.193-1.827-6.02-.353-11.946-.98-17.561-1.86-5.591-.887-10.9-1.886-15.99-2.808s-9.937-1.772-14.553-2.4a82.661,82.661,0,0,0-13.025-.907,43.843,43.843,0,0,0-6.281.721,15.937,15.937,0,0,0-6.179,2.653,17.76,17.76,0,0,0-4.333,4.758A41.915,41.915,0,0,0,84.812,254.633Z"></path></g><path class="cls-3 color-hat" d="M82.145,330.833c-4.527-10.874-6.264-29.636-5.781-42.881.172-4.725,1.72-13.688,3.87-23.452-7.328,3.389-12.342,11.29-15.73,21.313-3.79,11.214-3.734,25.267.923,35.656,4.461,9.953,11.295,17.632,19.289,15.024Q83.378,333.785,82.145,330.833Z"></path><path d="M82.193,330.812c.384.19,1.318,1.824,2.63,4.566q.245.516.508,1.073l.266.571c-.095.105-.363.129-.542.2-.4.112-.824.255-1.258.351l-1.344.247a10.979,10.979,0,0,1-3.066-.11,7.071,7.071,0,0,1-1.6-.4,8.023,8.023,0,0,1-1.366-.553,18.161,18.161,0,0,1-4.823-3.464,32.88,32.88,0,0,1-3.677-4.427,58.749,58.749,0,0,1-4.655-8.166c-3.639-7.765-4.767-17.159-3.678-26.336a56.342,56.342,0,0,1,1.288-6.858,64.5,64.5,0,0,1,2.132-6.6,45.959,45.959,0,0,1,6.7-12.13l.384-.468c.155-.182.3-.381.465-.549.316-.357.644-.681.975-1l.988-.974a8.77,8.77,0,0,1,1-.906c.669-.512,1.352-1.1,2.012-1.548l1.957-1.225,7.638-3.945q-1.029,4.762-2.051,9.488c-.333,1.567-.659,3.126-.96,4.664q-.319,1.634-.637,3.259c-.569,3.02-1.1,6.013-1.492,8.909-.1.724-.185,1.44-.254,2.138-.073.718-.121,1.334-.152,2.091-.08,1.452-.121,2.9-.163,4.336-.056,2.874-.041,5.7.02,8.469.153,5.527.5,10.8,1.082,15.665a81,81,0,0,0,2.534,13.277,30.964,30.964,0,0,1-4.2-6.677,57.159,57.159,0,0,1-3.244-8.6,53.922,53.922,0,0,1-2.443-14.7c.089-3.18.237-6.3.476-9.367.127-1.548.23-3.018.432-4.618.2-1.548.464-3.03.736-4.492.555-2.916,1.171-5.739,1.8-8.507l1.191-4.617.112-.438c.019-.123.144-.384-.039-.246-.229.1-.469.2-.7.317a11.749,11.749,0,0,0-1.362.832,14.061,14.061,0,0,0-2.427,2.292,37.145,37.145,0,0,0-5.406,8.956,55.191,55.191,0,0,0-3.216,9.553A51.049,51.049,0,0,0,63.5,299.63a49.948,49.948,0,0,0,2.267,17.4c.235.647.449,1.3.691,1.932q.395.936.782,1.861c.57,1.24,1.161,2.446,1.789,3.607a37.146,37.146,0,0,0,4.227,6.317,20.285,20.285,0,0,0,3.828,3.536,8.657,8.657,0,0,0,4.48,1.657,6.354,6.354,0,0,0,1.255-.014c.371-.066,1.092.034.773-.394-.194-.672-.376-1.3-.537-1.858Z"></path><path d="M314.71,233.837c-.658-.193-.848-1.419-1.032-2.789a12.229,12.229,0,0,0-.819-3.674c-.76-1.4-1.4-2.756-2.063-3.978a18.468,18.468,0,0,0-2.2-3.249,65.252,65.252,0,0,1-4.578-5.713c-1.534-2.217-1.95-3.811-3.086-5.32a4.813,4.813,0,0,1,2.214-1.724,6.62,6.62,0,0,1,2.735-.419c1.75.108,2.961.675,3.15,1.284,1.61,5.018,4.384,8.238,6.126,11.815,1.741,3.521,2.653,7.027,2.039,9.876C317.037,231.337,315.154,233.462,314.71,233.837Z"></path><path class="cls-3 color-hat" d="M237.541,317.526a47.117,47.117,0,0,1,13.033-29.474,13.448,13.448,0,0,0,3.379-4.69,12.387,12.387,0,0,0,.08-5.762,83.727,83.727,0,0,0-5.051-19.266c-2.423-6-5.244-13.982-18.061-17.769-27.1-8.008-58.225-4.274-83.313-8.157-24.47-3.787-42.173-10.73-52,.571-8.414,9.674-10.617,23.142-15.674,34.684-2.3-13.857-3.865-28.568-1.383-42.387s17.85-39.725,36.735-49.962c31.626-17.145,73.457-21.98,119.626-11.637,15.786,3.536,39.728,13.509,52.143,23.733,16.3,13.426,25.034,28.091,31.153,43.967,13.185,34.209,6.026,75.7-14.56,107.638-3.487,5.411-7.627,10.574-13.067,14.3s-16.466,7.694-23.108,6.648c-6.376-1-11.825-4.756-17.008-8.4-4.6-3.237-9.309-6.569-12.457-11.094-4.1-5.9-1-15.088-.528-22.117Q237.508,317.938,237.541,317.526Z"></path><path d="M237.606,317.532a17.378,17.378,0,0,1,.011,2.556c-.06,1.269-.25,2.927-.482,4.922a58.581,58.581,0,0,0-.526,6.941,18.3,18.3,0,0,0,.4,4.044,10.7,10.7,0,0,0,1.674,3.958c3.621,5.129,10.092,9.208,16.828,13.713a33.328,33.328,0,0,0,11.218,4.926c3.975.8,8.406-.168,12.638-1.509a48.732,48.732,0,0,0,6.258-2.526,30.043,30.043,0,0,0,5.717-3.533,45.993,45.993,0,0,0,9.226-10.091,134.871,134.871,0,0,0,12.8-24.2A132.309,132.309,0,0,0,320.49,292.9a126.534,126.534,0,0,0,2.162-20.037,105.11,105.11,0,0,0-3.61-30.231,110.258,110.258,0,0,0-12.514-28.561,96.314,96.314,0,0,0-20.946-23.637,81.892,81.892,0,0,0-13.285-8.668,157.36,157.36,0,0,0-14.678-6.911c-5.019-2.069-10.148-3.907-15.324-5.461-2.586-.79-5.189-1.465-7.785-2.06l-8.017-1.61a213.407,213.407,0,0,0-32.349-3.477,173.987,173.987,0,0,0-31.977,1.919,145.7,145.7,0,0,0-30.2,8.042c-1.169.472-2.369.868-3.511,1.4l-3.445,1.54-1.723.768c-.568.268-1.12.568-1.681.85l-3.351,1.714c-1.166.549-2.094,1.2-3.132,1.8a32.775,32.775,0,0,0-2.965,2.007c-.482.358-.986.677-1.452,1.064l-1.4,1.16-1.4,1.156-1.336,1.25a90.856,90.856,0,0,0-17.741,23.4,67.209,67.209,0,0,0-5.518,13.221l-.373,1.631-.187.812-.145.884c-.206,1.178-.364,2.368-.5,3.561-.263,2.389-.459,4.791-.513,7.211q-.108,3.626.045,7.273c.037,1.214.12,2.431.192,3.645l.068.912.018.227c0,.071,0,.019,0,.034v0l0,.01a1.363,1.363,0,0,0,0,.221c.013,0,.031-.024.054-.061l.041-.073.025-.048.006-.011h0l.1-.285.422-1.154c2.292-6.135,5.177-12.5,9.833-17.862a21.6,21.6,0,0,1,4.343-3.847,21.236,21.236,0,0,1,5.225-2.508,31.87,31.87,0,0,1,10.593-1.272c6.756.248,12.914,1.551,18.956,2.715,6.022,1.2,11.919,2.421,17.743,3.3,5.767.888,11.614,1.372,17.455,1.7,11.684.669,23.327.845,34.757,1.845a169.275,169.275,0,0,1,16.93,2.2c2.783.463,5.523,1.144,8.247,1.772a79.515,79.515,0,0,1,8.127,2.524,28.152,28.152,0,0,1,7.625,4.465,24.529,24.529,0,0,1,5.636,6.752,50.844,50.844,0,0,1,3.318,7.467,76.193,76.193,0,0,1,2.434,7.529c.677,2.52,1.225,5.045,1.667,7.559.225,1.256.415,2.512.587,3.763a33.9,33.9,0,0,1,.381,3.933,9.92,9.92,0,0,1-.884,4.474,13.611,13.611,0,0,1-2.48,3.424l-2.48,2.563c-.76.856-1.518,1.71-2.213,2.608a46.529,46.529,0,0,0-9.613,24.186,46.463,46.463,0,0,1,3.294-17.383,44.325,44.325,0,0,1,4.825-8.894,49.939,49.939,0,0,1,3.273-4.187,11.866,11.866,0,0,0,2.632-4.08,10.214,10.214,0,0,0-.122-4.773c-.34-1.77-.721-3.548-1.158-5.316a84.3,84.3,0,0,0-3.292-10.456c-.665-1.7-1.413-3.362-2.2-5.082a35.369,35.369,0,0,0-2.493-4.682,19.2,19.2,0,0,0-7.206-6.64,35.1,35.1,0,0,0-9.718-3.231c-3.472-.8-6.952-1.388-10.386-1.858-6.87-.937-13.564-1.36-19.83-1.631s-12.11-.381-17.338-.53-9.819-.336-13.584-.62c-4.868-.329-9.753-.828-14.613-1.507-4.906-.688-9.583-1.652-14.257-2.611-4.656-.965-9.239-1.989-13.745-2.819a63.3,63.3,0,0,0-13.161-1.34c-4.2.134-8,1.214-10.781,3.8-.37.3-.677.672-1.02,1-.336.373-.671.8-1.008,1.191a14.312,14.312,0,0,0-.969,1.24c-.307.428-.632.841-.925,1.281a49.925,49.925,0,0,0-3.192,5.547c-.933,1.949-1.809,3.936-2.6,5.985l-.59,1.539-.36.962-.456,1.273-1.788,5.035c-.588,1.694-1.188,3.205-1.778,4.767L82.457,267.9q-.876,2.1-1.748,4.2l-.913,2.15-.468,1.091-.234.544c-.038.086-.079.192-.115.261l-.094.095c-.693-4.462-1.332-8.667-1.935-12.872-.31-2.081-.574-4.236-.84-6.367-.222-2.186-.473-4.329-.623-6.533L75.4,249.3l-.058-1.094c-.033-.729-.088-1.456-.1-2.186q-.087-2.185-.091-4.372c0-2.914.105-5.824.342-8.721a77.808,77.808,0,0,1,1.22-8.64l.507-2.181.649-2.1.327-1.048.384-1.017.77-2.03a92.652,92.652,0,0,1,7.96-15.06c6.125-9.412,13.523-17.975,22.7-24.269a57.369,57.369,0,0,1,7.155-4.11l3.626-1.817,3.7-1.628a141.231,141.231,0,0,1,15.025-5.518,157.935,157.935,0,0,1,30.7-6.01,188.669,188.669,0,0,1,30.407-.491,227.387,227.387,0,0,1,29.311,3.843l3.568.718,1.779.358,1.782.423c2.375.56,4.705,1.218,7.012,1.916,4.61,1.4,9.109,3.01,13.512,4.768a144.009,144.009,0,0,1,25.086,12.685c.976.639,1.925,1.328,2.886,1.99.944.692,1.865,1.426,2.794,2.137l2.638,2.229c.874.745,1.709,1.535,2.563,2.3a100.311,100.311,0,0,1,23.536,32.587,106.791,106.791,0,0,1,8.091,24.672,113.416,113.416,0,0,1,1.971,25.159,124.787,124.787,0,0,1-3.273,24.251,135.2,135.2,0,0,1-18.246,42.877,57.984,57.984,0,0,1-8.891,10.987,37.335,37.335,0,0,1-6.247,4.769,45.909,45.909,0,0,1-7.3,3.373,48.9,48.9,0,0,1-7.864,2.147,23.575,23.575,0,0,1-8.441.186,28.233,28.233,0,0,1-7.755-2.816,57.566,57.566,0,0,1-6.655-4.207c-4.094-3-8.133-5.844-11.435-9.188a24.425,24.425,0,0,1-4.149-5.38,13.953,13.953,0,0,1-1.38-6.059,50.136,50.136,0,0,1,1.14-9.912C237.175,321.108,237.467,318.959,237.606,317.532Z"></path><path d="M76.439,264.771a15.632,15.632,0,0,1-.132-2.348c-.022-1.264-.033-2.973.091-5.008a67.546,67.546,0,0,1,2.226-15.108q.311-1.052.625-2.118.4-1.041.8-2.093a17.3,17.3,0,0,1,.934-2.062,15.841,15.841,0,0,1,1.089-2,20.273,20.273,0,0,1,6.092-6.565,22.867,22.867,0,0,1,7.53-3.163,38.741,38.741,0,0,1,6.528-.9c6.557-.323,13.265.5,20,1.436,6.742.958,13.555,2.066,20.41,2.931,1.714.195,3.428.426,5.145.591l2.574.261.389.041.421.074.632.115,1.262.23c3.374.584,6.784,1.036,10.187,1.435,6.813.776,13.6,1.336,20.228,1.881,11.585.95,23.154,1.92,34.4,3.559,11.222,1.666,22.231,3.866,32.153,8.166a48.626,48.626,0,0,1,7.081,3.808,38.86,38.86,0,0,1,3.226,2.345,19.335,19.335,0,0,1,2.843,2.944,21.049,21.049,0,0,1,3.473,7.024,33.909,33.909,0,0,1,1.209,7.258,81.391,81.391,0,0,1-.532,13.481c-.447,4.232-1,8.215-1.3,11.97-.276-3.389-.228-7.613-.21-12.127a90.518,90.518,0,0,0-.731-13.856,31.011,31.011,0,0,0-1.617-6.346,18.722,18.722,0,0,0-2.823-5.008,16.363,16.363,0,0,0-3.621-3.305l-.9-.665-.884-.564c-.569-.357-1.065-.722-1.549-1a61.307,61.307,0,0,0-12.276-5.547,119.623,119.623,0,0,0-12.852-3.484c-8.586-1.866-17.073-3.02-25.313-3.974-16.493-1.9-32.066-2.732-46.608-4.815-1.816-.276-3.617-.563-5.4-.907l-.667-.124c-.136-.024-.184-.036-.25-.041l-.335-.035-1.338-.14L146,230.733q-5.287-.625-10.375-1.384c-6.783-.994-13.3-2.136-19.611-2.944-3.154-.417-6.256-.722-9.3-.853a44.765,44.765,0,0,0-8.871.364,22.3,22.3,0,0,0-7.891,2.666,18.815,18.815,0,0,0-5.833,5.434c-3,4.106-5.146,11.032-6.185,17.244-.226,1.561-.5,3.065-.663,4.486s-.308,2.749-.441,3.933C76.651,262.059,76.509,263.873,76.439,264.771Z"></path><path class="cls-4" d="M197.491,354.544c22.124-13.687,58.633-82.588,64.037-116.895.3-1.922,7.341,3.224,7.242,6.241-1.3,39.673-51.218,113.942-69.276,119.625"></path><path d="M199.485,363.487a6.326,6.326,0,0,1,.778-.435,11.5,11.5,0,0,0,1.5-.807,21.65,21.65,0,0,0,2.026-1.342l1.175-.868c.409-.307.809-.673,1.241-1.028a98.667,98.667,0,0,0,11.675-12.076,236.734,236.734,0,0,0,20.379-28.859A291.835,291.835,0,0,0,258.4,278.036a144.092,144.092,0,0,0,6.888-21.8,69.336,69.336,0,0,0,1.559-11.033l.088-1.367a1.763,1.763,0,0,0-.173-.516,7.3,7.3,0,0,0-1.325-1.764,13.326,13.326,0,0,0-1.86-1.589l-.406-.27-.024-.009a.111.111,0,0,0-.046-.009c-.031.006-.014.052-.02.071l-.173,1q-.1.614-.238,1.214c-.345,1.61-.683,3.221-1.1,4.8-.78,3.183-1.729,6.295-2.7,9.384-1.983,6.165-4.28,12.152-6.717,17.985a315.2,315.2,0,0,1-16.169,32.91,248.368,248.368,0,0,1-18.092,27.921,127.616,127.616,0,0,1-9.653,11.4,52.25,52.25,0,0,1-10.449,8.663c6.12-4.79,12.757-13.634,18.484-22.329s10.581-17.258,13.291-21.657c5.442-8.866,10.282-17.756,14.567-26.579A251.89,251.89,0,0,0,255.2,258.175c1.532-4.343,2.886-8.673,3.962-12.993.3-1.074.506-2.161.757-3.236.116-.539.253-1.073.341-1.614l.337-1.842a5.612,5.612,0,0,1,.262-1.062c.132-.3.2-.614.526-.789a2.529,2.529,0,0,1,2,.188,8.328,8.328,0,0,1,.992.522c.347.216.515.334.77.515a16.347,16.347,0,0,1,1.333,1.075,12.594,12.594,0,0,1,2.256,2.605,5.055,5.055,0,0,1,.72,1.737,2.647,2.647,0,0,1,.052.53c.006.188-.014.285-.02.432l-.055.811c-.087,1.078-.116,2.159-.251,3.222s-.279,2.12-.417,3.173a102.786,102.786,0,0,1-2.765,12.187,172.615,172.615,0,0,1-8.255,22.239c-3.1,6.991-6.432,13.593-9.874,19.854a260.792,260.792,0,0,1-21.818,33.544,135.179,135.179,0,0,1-14.067,15.709,54.435,54.435,0,0,1-7.414,5.989,24.733,24.733,0,0,1-3.019,1.726C200.681,363.1,199.946,363.3,199.485,363.487Z"></path><path class="cls-4" d="M204.69,362.61c23.266-1.516,45.774-9.724,65.483-20.588,3.871-2.133,5.846,2.32,3.784,5.512-10.136,15.693-67.239,29.4-84.3,28.116"></path><path d="M189.656,375.623c.354-.128,2.149-.088,4.794-.305,2.644-.194,6.132-.6,9.851-1.191a185.158,185.158,0,0,0,20.36-4.428,242.266,242.266,0,0,0,25.011-8.5,106.249,106.249,0,0,0,12.132-5.813c3.82-2.181,7.5-4.693,9.964-7.775l.745-1.02.226-.424c.049-.151.118-.295.165-.446a3.008,3.008,0,0,0,0-1.742,2.808,2.808,0,0,0-.14-.325c-.072-.061-.1-.181-.174-.211-.105-.137-.219-.14-.339-.193a1.254,1.254,0,0,0-.575.058l-.188.047-.21.1a5.46,5.46,0,0,0-.507.25c-3.346,1.823-6.7,3.578-10.083,5.163a161.95,161.95,0,0,1-20.17,8,125.313,125.313,0,0,1-35.8,6.242c4.422-1.021,10.8-2.395,16.725-4.02,5.933-1.582,11.409-3.379,14.339-4.16a155.448,155.448,0,0,0,32.162-12.617l1.8-.94a5.06,5.06,0,0,1,2.278-.651,3.2,3.2,0,0,1,2.33.963,4.108,4.108,0,0,1,1.053,2.137,5.727,5.727,0,0,1-.988,4.246c-.416.534-.788,1.113-1.24,1.6s-.893.993-1.373,1.44a38.276,38.276,0,0,1-6.124,4.641c-2.111,1.361-4.3,2.493-6.443,3.606a165.74,165.74,0,0,1-25.27,9.7,188.6,188.6,0,0,1-22.979,5.432,104.853,104.853,0,0,1-12.366,1.354A50.1,50.1,0,0,1,189.656,375.623Z"></path><path class="cls-4" d="M107.555,351.973a97.806,97.806,0,0,1-24.381-16.914c9.269,9.323,18.754,21.86,29.2,29.757"></path><path d="M112.357,364.84c-.406.063-2.718-1.492-5.171-3.566-2.469-2.056-5.092-4.584-6.617-5.924-5.417-4.718-10.835-10.862-15.939-16.061L81.8,336.43l2.719-2.781a142.55,142.55,0,0,0,12.344,10.266c4.013,2.985,7.808,5.486,10.941,7.559a26.168,26.168,0,0,1-7.325-1.719,22.184,22.184,0,0,1-5.752-3c-4.531-3.825-8.548-7.523-12.119-11.1l1.158-1.184c4.521,4.824,8.52,9.249,12.265,13.181s7.149,7.414,10.22,10.58c1.027,1.026,2.34,2.522,3.535,3.811C110.951,363.366,112.032,364.444,112.357,364.84Z"></path><path class="cls-4" d="M109.133,347.534C100.384,339.125,62.387,304.715,78.6,236.1c-19.528,82.645,12.657,100.671,31.073,122.266"></path><path d="M109.642,358.394a69.7,69.7,0,0,1-5.224-5.048c-2.832-2.842-6.64-6.558-10.507-10.792A95.939,95.939,0,0,1,83.26,328.68a83.72,83.72,0,0,1-6.511-12.839,82.643,82.643,0,0,1-5.159-19.179,120.531,120.531,0,0,1-1.123-20.6c.424-13.876,2.748-27.673,5.642-40.549l4.981,1.177c-.033.161-.063.308-.094.455-.551,2.777-1.215,5.53-1.628,8.317-.221,1.391-.495,2.773-.674,4.164s-.355,2.781-.532,4.167a136.423,136.423,0,0,0-.879,16.556,111.127,111.127,0,0,0,4.7,31.238A104.762,104.762,0,0,0,94.08,327.676a122.327,122.327,0,0,0,15.576,19.313,80.724,80.724,0,0,1-9.452-7.512,84.812,84.812,0,0,1-16.86-21.688,61.186,61.186,0,0,1-4.037-8.986,117.44,117.44,0,0,1-6.08-38.169A155.109,155.109,0,0,1,77.6,235.865l2,.473c-4.661,19.463-6.8,37.917-5.411,54.637A96.49,96.49,0,0,0,75.968,303.1c.371,1.963.92,3.857,1.4,5.745.588,1.856,1.106,3.714,1.8,5.486.619,1.8,1.387,3.517,2.106,5.232.8,1.677,1.572,3.347,2.459,4.937a86.43,86.43,0,0,0,5.651,9.068c1.53,2.077,3.342,4.54,5.38,7.014,2.02,2.485,4.2,5.028,6.256,7.4s3.974,4.6,5.483,6.428S109.1,357.686,109.642,358.394Z"></path><path class="cls-4" d="M102.968,347.376a3.831,3.831,0,0,1,6.012-3.874c23.924,12.113,52.414,12.193,79.41,10.156,3.273-.247,6.727-.49,9.687.868,6.78,3.112,6.732,13.213,1.572,18.44s-13.188,6.685-20.682,7.326c-14.13,1.209-23.917.094-38.883-3-8.234-1.7-18.2-5.54-25.111-10.147s-13.88-11.931-12-19.772"></path><path d="M103,347.383a4.234,4.234,0,0,1-.014.729,8.647,8.647,0,0,0-.057,1.379,12.124,12.124,0,0,0,.786,4.323c1.186,3.4,4.263,7.267,8.33,10.427a56.721,56.721,0,0,0,13.651,7.7,74.764,74.764,0,0,0,12.271,3.877c5.645,1.116,11.631,2.121,17.674,2.788a107.435,107.435,0,0,0,18.464.411c6.212-.422,12.51-.973,17.961-3.207a21.572,21.572,0,0,0,3.792-2.043,14.264,14.264,0,0,0,3.068-2.744,11.673,11.673,0,0,0,2.532-7.31,9.362,9.362,0,0,0-.528-3.258,8.87,8.87,0,0,0-.65-1.451,7.406,7.406,0,0,0-.94-1.216,8.121,8.121,0,0,0-5.79-2.329,67.3,67.3,0,0,0-7.531.326c-2.593.195-5.183.32-7.754.461-5.148.227-10.243.328-15.253.265-5.01-.112-9.934-.34-14.726-.837a128.291,128.291,0,0,1-13.915-2.149c-2.243-.422-4.41-1.041-6.551-1.576-1.068-.28-2.108-.635-3.147-.946-1.033-.331-2.071-.609-3.064-1-2-.74-3.97-1.416-5.827-2.271l-2.772-1.211-2.637-1.334-2.51-1.286a2.206,2.206,0,0,0-2.021-.176,4.081,4.081,0,0,0-2.318,3.593,4.3,4.3,0,0,1,1.8-4.2,2.952,2.952,0,0,1,1.353-.518,3.821,3.821,0,0,1,1.52.209l2.848,1.059,2.906,1.095,3.02.977,1.515.5,1.543.427,3.067.856c8.186,2.107,16.075,3.093,20.2,3.772a168.22,168.22,0,0,0,24.532,1.912c4,.013,7.934-.041,11.813-.2,3.9-.129,7.655-.412,11.5-.586a18.217,18.217,0,0,1,5.83.621,9.529,9.529,0,0,1,4.91,3.316A11.051,11.051,0,0,1,204,361.931a14.3,14.3,0,0,1-.439,5.6,14.153,14.153,0,0,1-2.483,4.941,17.288,17.288,0,0,1-4.045,3.583,29.344,29.344,0,0,1-9.607,3.825,70.637,70.637,0,0,1-9.806,1.362c-3.219.265-6.4.419-9.532.43a112.344,112.344,0,0,1-18.1-1.468c-2.888-.447-5.705-.976-8.467-1.519a77.333,77.333,0,0,1-22.793-8.133,45.684,45.684,0,0,1-6.922-4.662,32.713,32.713,0,0,1-6.2-6.634,16.753,16.753,0,0,1-2.96-7.246A11.854,11.854,0,0,1,103,347.383Z"></path><g class="cls-5"><g class="cls-6"><path d="M191.6,370.71c-.247.649-3.305,1.291-6.886,1.607-3.58.345-7.65.387-9.924.638a81.545,81.545,0,0,1-12.646.347c-4.331-.2-8.694-.385-12.852-.893a94.99,94.99,0,0,1-20.6-4.635,64.228,64.228,0,0,1-15.575-7.716,33.59,33.59,0,0,1,8.878-.932c2.979.048,5.644.37,6.913,1.036a68.181,68.181,0,0,0,15.162,5.681A77.933,77.933,0,0,0,158.19,368c8.922.753,16.714.586,23.426,1.122a49.364,49.364,0,0,1,5.743.8C189.31,370.274,191.03,370.579,191.6,370.71Z"></path></g></g><g class="cls-5"><g class="cls-6"><path d="M252.549,238.553c-.086.436-1.2,1.024-2.947.909a7.448,7.448,0,0,1-6.955-5.758,12.754,12.754,0,0,1-.339-2.681c-.039-1.645.017-2.9-.07-3.919a43.029,43.029,0,0,1,1.171-12.989,41.5,41.5,0,0,1,5.544-12.7,36.225,36.225,0,0,1,3.669-4.712c.694-.711,1.378-1.4,2.108-2.084a26.588,26.588,0,0,1,2.416-1.941,25.393,25.393,0,0,1,10.956-4.527,19.909,19.909,0,0,1,5.762-.018,17.009,17.009,0,0,1,5.163,1.651,20.046,20.046,0,0,1,6.486,5.638,35.548,35.548,0,0,1-4.608.335,30.723,30.723,0,0,0-4.246.367c-2.438.443-4.108,1.091-5.2.862a13.247,13.247,0,0,0-6.909.569,18.273,18.273,0,0,0-3.256,1.481,18.889,18.889,0,0,0-2.869,2.089,26.29,26.29,0,0,0-4.637,5.166,31.248,31.248,0,0,0-3.05,5.793,49.9,49.9,0,0,0-2.772,11.624q-.342,2.813-.66,5.434a17.635,17.635,0,0,0-.266,4.173,7.324,7.324,0,0,0,.235.941,5.966,5.966,0,0,0,2.286,2.959A8.175,8.175,0,0,0,252.549,238.553Z"></path></g></g><g class="cls-5"><g class="cls-6"><path d="M264.872,189.094c-.106.8-2.6,1.714-5.38,2.941a35.182,35.182,0,0,0-7.3,4.024c-2.621,2.153-5.34,4.371-7.858,6.757a48.46,48.46,0,0,0-6.635,7.552,43.75,43.75,0,0,0-4,7,15.1,15.1,0,0,0-1.766,6.046,5.58,5.58,0,0,0,.11,1.14c.037.2.083.348.116.505a3.8,3.8,0,0,0,.2.507,6.884,6.884,0,0,0,1.6,2.078,9.754,9.754,0,0,0,4.937,2.457,5.982,5.982,0,0,1-3.206,2.612,9.182,9.182,0,0,1-4.961.324,9.453,9.453,0,0,1-4.537-2.291,7.6,7.6,0,0,1-1.48-1.839,5.126,5.126,0,0,1-.646-1.665,13.9,13.9,0,0,1,.076-5.391,19.847,19.847,0,0,1,1.43-4.236,33.58,33.58,0,0,1,1.843-3.437c.589-1.1,1.3-2.088,1.928-3.093a67.632,67.632,0,0,1,8.4-10.11c5.788-5.73,11.9-9.9,17.936-11.576a14.628,14.628,0,0,1,2.49-.512c.928-.082,1.9-.118,2.806-.123A30.171,30.171,0,0,1,264.872,189.094Z"></path></g></g><path class="cls-7 color-hat2" d="M279.017,184.925C235.616,155.33,144.129,135.7,130.723,204.5a64.654,64.654,0,0,0-1.689,12.451c-.071,1.924,18.066,2.108,48.085,8.525,1.688-24.612,16.962-53.028,43.005-55.2C240.046,168.625,261.66,174.764,279.017,184.925Z"></path><path d="M279,184.953c-.756-.213-4.233-2.2-9.617-4.582-1.338-.612-2.819-1.194-4.372-1.85-1.583-.585-3.23-1.273-5-1.85a106.216,106.216,0,0,0-11.434-3.31,92.646,92.646,0,0,0-25.09-2.462l-2.987.2c-.974.091-1.92.216-2.852.349a35.838,35.838,0,0,0-13.461,5.186c-7.7,4.914-13.777,12.6-18.019,21.248a73.735,73.735,0,0,0-5.071,13.691q-.919,3.566-1.521,7.217c-.175,1.218-.361,2.437-.48,3.663l-.1.95-.139,1.71-.14,1.718-.035.43c-.025.124.029.363-.152.261l-.775-.16-5.231-1.061-3.709-.708q-3.714-.684-7.437-1.31-7.446-1.236-14.892-2.219l-7.433-.956c-2.483-.322-4.935-.608-7.488-1.065-.318-.056-.647-.125-.979-.2l-.252-.057-.321-.083a5.443,5.443,0,0,1-.846-.278,3.329,3.329,0,0,1-1.427-.866,1.4,1.4,0,0,1-.418-.692,2.813,2.813,0,0,1-.157-.794,3.862,3.862,0,0,1-.068-.839l.039-.771.058-.948c.045-.631.1-1.261.158-1.889a66.642,66.642,0,0,1,1.156-7.431c1.657-8.353,4.379-16.9,9.278-24.134a53.01,53.01,0,0,1,19.024-17.206,71.034,71.034,0,0,1,23.807-7.169,106.4,106.4,0,0,1,23.779-.195,160.336,160.336,0,0,1,42.278,10.5,153.3,153.3,0,0,1,32.68,17.447c-4.358-2.419-9.775-5.227-15.762-7.888s-12.52-5.209-18.978-7.336-12.836-3.824-18.413-5.116l-4.024-.9-3.668-.715c-2.3-.487-4.332-.782-5.979-1.09a123.653,123.653,0,0,0-19.795-1.925,83.861,83.861,0,0,0-19.149,1.831,60.15,60.15,0,0,0-17.353,6.565A48.721,48.721,0,0,0,142.6,179.525l-2.62,3.577-2.224,3.8-.548.95-.452,1-.9,1.99-.9,1.983c-.255.678-.473,1.37-.711,2.052-.448,1.374-.969,2.717-1.354,4.1l-1.011,4.182a68.287,68.287,0,0,0-1.6,8.335c-.173,1.39-.3,2.779-.383,4.167l-.034.686a.443.443,0,0,0,.045.311.755.755,0,0,0,.26.189,3.7,3.7,0,0,0,.611.208c.235.067.624.148.935.215,2.68.511,5.446.834,8.162,1.2,5.448.7,10.816,1.419,16.08,2.237s10.43,1.712,15.493,2.69l3.522.7,1.183.24c.043,0,.11.034.134.015l.01-.133.021-.266.041-.527c.006-.222.1-1.008.17-1.614.07-.634.142-1.267.242-1.894.169-1.261.393-2.506.62-3.745A72.767,72.767,0,0,1,188.337,189.2a52.819,52.819,0,0,1,9.265-10.464,41.35,41.35,0,0,1,5.544-4.038c.952-.622,1.973-1.119,2.961-1.663,1.029-.463,2.028-.983,3.084-1.361a38.191,38.191,0,0,1,12.837-2.641,80.574,80.574,0,0,1,12.511.288,92.6,92.6,0,0,1,13.072,2.241,102.237,102.237,0,0,1,13.7,4.4,116.836,116.836,0,0,1,11.272,5.242C275.641,182.867,277.886,184.271,279,184.953Z"></path><path class="cls-4" d="M222.2,174.018c-.352.262-1.814.176-3.916-.112-1.054-.127-2.255-.377-3.585-.529l-4.245-.536c-1.476-.23-3.018-.339-4.548-.462s-3.043-.282-4.5-.329l-4.1-.071a27.708,27.708,0,0,0-3.324.1c-13.249.929-28.187,3.068-41.007,7.427a157.293,157.293,0,0,0-31.014,13.943,82.1,82.1,0,0,0-12.289,8.421,38.99,38.99,0,0,0-8.272,9.474,17.454,17.454,0,0,1,.9-6.7,28.011,28.011,0,0,1,3.552-7.115c3.013-4.434,6.8-7.738,9.059-8.93a198.51,198.51,0,0,1,26.2-11.384,187.024,187.024,0,0,1,23.93-6.671l2.826-.6,2.8-.465,2.76-.458,1.364-.227,1.361-.158,5.339-.619,5.189-.329a87.5,87.5,0,0,1,19.063.989c.7.1,1.457.235,2.252.393.4.082.8.166,1.218.253.41.113.826.23,1.247.347,1.679.482,3.411,1.027,5.016,1.557C218.673,172.435,221.337,173.621,222.2,174.018Z"></path><path d="M264.016,342.276c-.306.194-2.5-.6-4.354-2.474a24.291,24.291,0,0,1-4.1-5.87c-2.828-5.149-3.821-11.886-3.513-17.927a32.194,32.194,0,0,1,1.37-7.754,28.2,28.2,0,0,1,3.16-6.843,21.817,21.817,0,0,1,9.36-8.2,22.962,22.962,0,0,1-1.449,2.473c-.249.45-.511.9-.779,1.329l-.407.637-.364.664c-.241.435-.485.848-.727,1.231s-.422.792-.633,1.132a10.854,10.854,0,0,1-.6.919,5.955,5.955,0,0,1-.49.694,22.9,22.9,0,0,0-5,9.73,30.765,30.765,0,0,0-.714,9.868A35.183,35.183,0,0,0,259.6,337.1a28.181,28.181,0,0,0,2.269,3.162A15.951,15.951,0,0,0,264.016,342.276Z"></path><path class="cls-4" d="M184.023,214.229c-15.931-4.478-46.092-7.076-62.567-5.614-5.438-.41-5.118,13.83-2.7,16.524,20.95,3.07,41.844,4.82,62.794,7.472,1.357.136,2.979-.475,3.394-1.7a42.3,42.3,0,0,0,.509-5.823C185.6,219.638,188.5,217.69,184.023,214.229Z"></path><path d="M184.041,214.205a5.145,5.145,0,0,1,1.552,1.115,4.7,4.7,0,0,1,1.044,1.576,4.864,4.864,0,0,1,.216,2.38,42.971,42.971,0,0,0-.813,5.376c-.032.977-.051,2.048-.109,3.1-.028.533-.06,1.071-.106,1.618a9.981,9.981,0,0,1-.254,1.751c-.873,2.195-3.428,2.411-4.955,2.1l-4.713-.5c-3.013-.311-5.717-.559-7.734-.709-8.27-.62-17.139-1.353-26.081-2.237-4.47-.443-8.958-.928-13.4-1.454l-6.61-.822-1.634-.218-.815-.109-.577-.078a6.541,6.541,0,0,1-.774-.129l-.372-.089c-.117-.041-.27-.023-.33-.158-.157-.2-.326-.4-.47-.616a7.07,7.07,0,0,1-.766-1.326,12.43,12.43,0,0,1-.6-1.833,24.654,24.654,0,0,1-.418-8.728,13.935,13.935,0,0,1,1.286-4.465,6.447,6.447,0,0,1,1.806-2.209,4.691,4.691,0,0,1,3.187-.927l-.327,0a144.647,144.647,0,0,1,18.074-.177c5.837.271,11.469.777,16.821,1.434,10.694,1.342,20.309,3.217,28,5.8-4.475-.41-10.868-.954-16.918-1.372-6.045-.437-11.733-.766-14.7-1.184-5.443-.749-10.771-1.26-15.953-1.548a125.637,125.637,0,0,0-15.064-.025l-.089.006-.065,0a2,2,0,0,0-1.854.962,7.406,7.406,0,0,0-1.1,2.515,20.092,20.092,0,0,0-.512,5.789,20.738,20.738,0,0,0,.321,2.852,12.542,12.542,0,0,0,.326,1.353c.067.218.138.431.221.632a2.974,2.974,0,0,0,.206.445c.079.118.145.284.275.336l.445.064,1.387.2,2.841.4c7.534,1.021,14.715,1.8,21.549,2.493l19.477,1.965q4.617.487,8.988,1.014l4.308.549,2.1.287,1.04.146.259.036.176.016c.129,0,.259,0,.39,0a2.159,2.159,0,0,0,1.809-.993,7.206,7.206,0,0,0,.208-1.032q.083-.623.167-1.264c.1-.864.2-1.758.28-2.651a21.5,21.5,0,0,1,.368-2.752c.183-.9.451-1.755.682-2.554a9.243,9.243,0,0,0,.454-2.249,3.567,3.567,0,0,0-.452-1.866A8.544,8.544,0,0,0,184.041,214.205Z"></path><path class="cls-3 color-hat" d="M269.932,224.965a41.5,41.5,0,1,1,13.951,80.183"></path><path d="M283.885,305.083c.307-.342,1.858-.629,4.1-.878,1.115-.224,2.4-.484,3.8-.731,1.379-.348,2.861-.763,4.376-1.212l2.25-.856,1.137-.428,1.094-.537,2.164-1.068c.7-.371,1.35-.826,2-1.222.638-.423,1.3-.767,1.864-1.226l1.63-1.285a20.039,20.039,0,0,0,2.55-2.371,51.4,51.4,0,0,0,3.41-4l1.5-2.208c.245-.372.517-.725.744-1.111l.651-1.177a39.484,39.484,0,0,0,4.091-9.973l.636-2.629.383-2.677a18.222,18.222,0,0,0,.221-2.68c.017-.9.143-1.786.081-2.676l-.136-2.656-.03-.66-.1-.652-.2-1.3a37.784,37.784,0,0,0-1.1-5.046,40.8,40.8,0,0,0-8.518-15.22,39.829,39.829,0,0,0-13.418-9.9l-1.844-.84-1.89-.656c-.629-.211-1.249-.452-1.877-.645l-1.9-.464c-.633-.147-1.256-.336-1.887-.456l-1.892-.282-1.872-.293c-.623-.063-1.243-.117-1.858-.157a46.585,46.585,0,0,0-13.681,1.191,21.851,21.851,0,0,1,5.9-4.25,30.086,30.086,0,0,1,8.139-2.71c5.731-.978,11.468-.3,14.131.954a49.538,49.538,0,0,1,23.577,21.2c.557,1.1,1.2,2.146,1.676,3.262l1.407,3.319,1.083,3.374a12.628,12.628,0,0,1,.442,1.691q.19.849.378,1.692c.116.564.275,1.117.355,1.683s.143,1.13.215,1.692a28.314,28.314,0,0,1,.335,3.351q.057,1.671.111,3.315-.1,1.644-.192,3.261a43.06,43.06,0,0,1-2.774,12.233q-.264.717-.527,1.428l-.651,1.362c-.444.9-.853,1.81-1.321,2.679a45.073,45.073,0,0,1-3.194,4.877,40.934,40.934,0,0,1-7.756,7.921l-2.183,1.53c-.364.247-.717.506-1.088.736l-1.141.63-2.262,1.22c-.764.368-1.558.657-2.327.975a17.708,17.708,0,0,1-2.4.884c-.88.234-1.807.462-2.75.681a21.052,21.052,0,0,1-2.906.434l-1.448.153-.711.07h-.711A40.433,40.433,0,0,1,283.885,305.083Z"></path><path class="cls-8" d="M70.424,326.4s5.379,3.068,5.31,3.8c-1.96,20.862,6.568,34.887,63.081,44.119,91.859,15.006,111.649-34.255,111.649-34.255v11.493s-19.91,44.9-111.979,31.6C50.1,370.4,70.424,326.4,70.424,326.4Z"></path><path d="M70.452,326.416c-.115.446-.589,1.8-1.033,3.957a32.309,32.309,0,0,0-.553,8.636,29.912,29.912,0,0,0,3.3,11.489,38,38,0,0,0,8.882,11.024,60.273,60.273,0,0,0,12.82,8.32,97.93,97.93,0,0,0,14.082,5.646,165.383,165.383,0,0,0,24.389,5.669,245.722,245.722,0,0,0,33,2.98l4.247.062,4.261-.09c2.848-.012,5.694-.264,8.551-.417a147.223,147.223,0,0,0,17.045-2.351c11.235-2.333,22.253-6.262,31.745-12.456a70.2,70.2,0,0,0,6.747-5.064,56.6,56.6,0,0,0,5.894-5.889,37.75,37.75,0,0,0,4.653-6.64c.12-.228.076-.147.085-.192l0-.981L248.555,348l0-.516,0-.026,0-.049-.007-.088a.46.46,0,0,0-.015-.111l-.045.1-.027.055-.028.055-.013.024s0,.006,0,0l0-.007-.064.089-.276.385c-.726,1.036-1.514,2.021-2.311,3a63.7,63.7,0,0,1-5.145,5.493,71.625,71.625,0,0,1-11.9,8.986,84.587,84.587,0,0,1-13.251,6.475,106.672,106.672,0,0,1-13.939,4.178,133.691,133.691,0,0,1-28.2,3.015A195.912,195.912,0,0,1,146.1,377.2q-13.234-1.86-25.558-4.757A135.959,135.959,0,0,1,97.1,364.963a58.3,58.3,0,0,1-10.3-5.745,30.709,30.709,0,0,1-8.015-8.163A25.012,25.012,0,0,1,75.028,340.8a34.633,34.633,0,0,1-.329-5.208c.018-.854.029-1.7.095-2.538.031-.419.043-.838.089-1.251l.109-1.093a1.666,1.666,0,0,0,.02-.336.852.852,0,0,0-.19-.265,5.2,5.2,0,0,0-.543-.467c-.472-.366-.955-.7-1.422-1.015-.936-.628-1.832-1.191-2.717-1.727.942.458,1.924.963,2.932,1.529.5.284,1.015.586,1.52.921a6.2,6.2,0,0,1,.689.514.934.934,0,0,1,.274.34,3.809,3.809,0,0,1,0,.441,43.33,43.33,0,0,0,.687,9.809,23.978,23.978,0,0,0,4.149,9.631,29.451,29.451,0,0,0,8.04,7.3,58.118,58.118,0,0,0,9.85,4.926,137.757,137.757,0,0,0,19.6,5.846c5.985,1.376,11.13,2.373,14.775,3.1A219.662,219.662,0,0,0,166,375.6a136.4,136.4,0,0,0,32.045-1.992,88.889,88.889,0,0,0,28.732-10.418,68.731,68.731,0,0,0,11.883-8.793,60.511,60.511,0,0,0,5-5.274c.766-.928,1.521-1.862,2.21-2.838l.615-.858.7-1.086.695-1.091.675-1.237a5.588,5.588,0,0,0,1.9-1.98l.037-.069.019-.034.012.038.05.162.1.324.2.643c.129.428.256.848.379,1.257q0,3.952,0,7.865v.8c-.022.3.074.743-.152,1.035-.169.352-.292.575-.423.816s-.271.475-.406.713c-.553.94-1.151,1.841-1.776,2.718a54.97,54.97,0,0,1-8.624,9.332,76.759,76.759,0,0,1-21,12.586c-14.92,5.975-30.366,8.03-44.992,8.354-3.668.122-7.293.012-10.881-.061-1.792-.065-3.572-.191-5.344-.283l-2.65-.15-2.628-.235-5.213-.479L142,384.726c-3.412-.383-6.761-.961-10.079-1.489-1.663-.24-3.3-.6-4.932-.914-1.629-.336-3.26-.613-4.862-.994-3.2-.766-6.381-1.482-9.47-2.421a108.388,108.388,0,0,1-17.752-6.62,65.661,65.661,0,0,1-13.552-8.614,43.784,43.784,0,0,1-6.175-6.31,36.132,36.132,0,0,1-4.5-7.46,30.439,30.439,0,0,1-2.411-14.8A27.6,27.6,0,0,1,70.452,326.416Z"></path><path class="cls-8" d="M138.485,383.264c-22.3-3.093-53.471-8.9-65.933-29.585-3.321-5.514-3.9-11.695-3.934-18.038-.124-20.829,1.514-40.443,2.866-61.214,1.2-18.4,4.3-54.283,5.168-56.975,1.3-.8,3.141-.063,3.983,1.179a6.506,6.506,0,0,1,.991,4.284c-1.856,17.951-3.789,32.8-4.267,52.66-.372,15.453-2.763,33.375-2.422,48.829.331,14.94-.77,26.278,13.2,35.349,14.5,9.417,33.8,12.374,50.681,15.023,30.123,4.725,64.978,5.1,91.435-11.769,13.9-8.865,15.921-23.4,18.282-38.672,3.277-21.195,2.813-42.7,3.073-64.062.078-6.426.205-12.852.511-19.273a8.154,8.154,0,0,1,1.193-4.648c.991-1.311,3.18-1.912,4.381-.775,1.863,3.932,1.3,8.443,1.167,12.761-.783,25.046-.49,48.771-2.556,73.048-1.073,12.621-3.876,31.49-13.344,41.219-5.086,5.226-11.631,9.309-18.247,12.493C198.459,387.734,166.815,387.193,138.485,383.264Z"></path><path d="M138.489,383.234c.9.017,3.693.383,8,.784,4.305.435,10.132.926,17.09,1.157a180.566,180.566,0,0,0,23.808-.708,121.351,121.351,0,0,0,27.437-5.948c2.289-.892,4.639-1.693,6.887-2.772,2.284-1,4.55-2.071,6.743-3.3a61.784,61.784,0,0,0,12.3-8.663,32.658,32.658,0,0,0,4.858-5.613,43.385,43.385,0,0,0,3.465-6.544,72.786,72.786,0,0,0,4.187-13.973c1.908-9.394,2.439-18.574,2.935-26.884.463-8.314.672-15.794.791-22.032q.24-16.537.488-33.635c.058-2.854.107-5.693.213-8.589a29.543,29.543,0,0,0-.4-8.221q-.12-.475-.274-.938l-.165-.456a1.453,1.453,0,0,0-.064-.163l-.046-.105a.42.42,0,0,0-.264-.279.857.857,0,0,0-.4-.07,2.324,2.324,0,0,0-1.27.443,2.1,2.1,0,0,0-.467.46,3.173,3.173,0,0,0-.376.682,11.166,11.166,0,0,0-.515,3.825q-.048,2.175-.095,4.354c-.879,23.2.494,47.062-2.2,70.994-.341,2.981-.752,5.979-1.2,8.934s-.9,5.923-1.477,8.9c-1.124,5.926-2.721,11.96-5.789,17.438a34.174,34.174,0,0,1-13.091,13.112,83.155,83.155,0,0,1-16.439,7.7,101.964,101.964,0,0,1-17.453,4.417,132.062,132.062,0,0,1-17.73,1.766,201.793,201.793,0,0,1-34.9-1.986c-5-.7-9.9-1.474-14.849-2.308s-9.879-1.795-14.775-3c-9.762-2.41-19.5-5.78-27.965-11.73a35.8,35.8,0,0,1-3.068-2.448c-.491-.438-.939-.932-1.409-1.4l-.7-.709-.632-.775a23.9,23.9,0,0,1-4.06-6.863c-1.981-4.979-2.309-10.193-2.486-15.129q-.07-3.685-.139-7.363c-.049-2.434-.065-4.94-.021-7.393.1-4.924.373-9.807.7-14.657.657-9.7,1.551-19.259,1.783-28.735.253-9.6.925-19.122,1.844-28.5.456-4.69.963-9.349,1.47-13.976q.378-3.469.754-6.921l.185-1.724.092-.861a5.894,5.894,0,0,0,.041-.67,4.6,4.6,0,0,0-.613-2.364,1.985,1.985,0,0,0-.263-.354,2.215,2.215,0,0,0-.337-.27,2.1,2.1,0,0,0-.192-.1l-.064-.031a.282.282,0,0,0-.07-.015c-.04,0-.117,0-.119.054l-.017.074-.09.6c-.307,2.213-.563,4.485-.8,6.741-.481,4.517-.914,9.024-1.33,13.5q-1.238,13.443-2.263,26.571-.95,13.132-1.871,25.892c-.6,8.5-1.147,16.865-1.486,25.088q-.264,6.166-.352,12.225a118.132,118.132,0,0,0,.2,11.892,27.208,27.208,0,0,0,3.065,10.8,38.345,38.345,0,0,0,6.906,8.782,60.581,60.581,0,0,0,18.536,11.583,122.993,122.993,0,0,0,20.149,6.272c6.7,1.533,13.313,2.643,19.741,3.605-5.8-.6-12.255-1.39-19.131-2.673a121.165,121.165,0,0,1-21.456-5.873c-7.253-2.8-14.566-6.738-20.533-12.57a41.068,41.068,0,0,1-4.109-4.722c-.658-.819-1.191-1.728-1.789-2.594a25.407,25.407,0,0,1-1.509-2.836,34.6,34.6,0,0,1-2.73-12.3c-.584-16.337.234-32.052,1.012-45.742.837-13.659,1.55-25.286,2.272-33.3q1.046-12.075,2.226-23.954c.4-3.961.805-7.905,1.259-11.841l.359-2.954.194-1.481.26-1.71a5.308,5.308,0,0,1,.365-1.188l.214-.563a.25.25,0,0,1,.189-.214l.273-.144a3.921,3.921,0,0,1,2.412-.471,4.956,4.956,0,0,1,1.262.319,5.077,5.077,0,0,1,.949.509,5.009,5.009,0,0,1,1.455,1.5,7.744,7.744,0,0,1,1.14,3.442,8.944,8.944,0,0,1-.022,1.764l-.163,1.456q-.328,2.909-.656,5.806-.65,5.789-1.3,11.533c-.832,7.655-1.534,15.253-1.982,22.809-.224,3.78-.377,7.542-.5,11.3-.12,3.791-.345,7.553-.609,11.29-.53,7.476-1.194,14.863-1.626,22.192-.214,3.664-.364,7.314-.4,10.945-.018,3.613.06,7.283.106,10.889a67.229,67.229,0,0,0,.843,10.636,24.888,24.888,0,0,0,3.805,9.565,26.9,26.9,0,0,0,7.412,7.114,64.551,64.551,0,0,0,9.123,5.035,106.556,106.556,0,0,0,19.725,6.331c6.711,1.534,13.469,2.64,20.188,3.7s13.384,1.936,20.04,2.472a175.982,175.982,0,0,0,19.833.534,130.635,130.635,0,0,0,19.392-1.911,106.335,106.335,0,0,0,18.458-5,80.84,80.84,0,0,0,16.63-8.625,32.08,32.08,0,0,0,6.554-6.326,35.806,35.806,0,0,0,4.449-7.9c2.333-5.606,3.446-11.626,4.422-17.59.97-6,1.814-11.921,2.319-17.858.532-5.929.843-11.831,1.032-17.69.382-11.722.257-23.272.418-34.649q.21-8.535.417-16.928a19.363,19.363,0,0,1,.414-4.372,6.01,6.01,0,0,1,1.086-2.243,4.634,4.634,0,0,1,2.191-1.481,4.521,4.521,0,0,1,1.339-.212,3.449,3.449,0,0,1,1.5.333c.441.247.953.525,1.084,1.026l.314.668.188.527a16.9,16.9,0,0,1,.836,4.3c.2,2.874-.071,5.617-.12,8.306q-.1,4.08-.206,8.124-.151,8.1-.3,16.053c-.183,10.615-.4,21.059-.891,31.323q-.363,7.7-.977,15.255c-.388,5.041-.975,10.05-1.835,14.971a88.11,88.11,0,0,1-3.75,14.414c-.461,1.151-.861,2.319-1.4,3.437l-.768,1.686-.864,1.642a16.775,16.775,0,0,1-.924,1.607L247,359.193a32.5,32.5,0,0,1-2.281,2.932,50.925,50.925,0,0,1-11.6,9.449,80.246,80.246,0,0,1-7.108,3.889c-1.228.619-2.523,1.126-3.8,1.7l-1.926.84c-.648.271-1.317.5-1.977.746a100.693,100.693,0,0,1-16.436,4.7c-2.79.614-5.611.994-8.391,1.428-2.8.3-5.56.667-8.293.819a185.119,185.119,0,0,1-29.288-.36C147.721,384.632,141.544,383.669,138.489,383.234Z"></path><path class="cls-8" d="M264.68,243.155c8.32,7.667,10.453,17.789,4.415,27.729-19.075,31.4-10.131,31.8-47.726,32.838-43.169,1.193-86.414-4.079-128.809-12.438-10.012-.231-45.836-11.953-14.82-12.982l1.956-8.5c-8.048,1.256-31.8,2-24.327,14.727,13.256,11.536,32.652,13.975,49.94,17.346,39.214,6.48,78.879,11.342,118.787,11.181,12.7-.051,21.667-1.627,31.374-7.105,11.5-11.113,20.077-30.443,24.525-45.536.208-11.767-7.711-26.053-16.45-25.254C199.833,240.9,138.8,233.3,99.287,227.514c-6.371-.934-21.472-2.9-26.8-6.692,3.81-1.392,6.28-1.114,10.79-1.211l1.989-6.67c-5.227.4-14.893,1.465-19.726,3.049-2.273.745-4.633,1.693-5.692,3.3-1.116,1.693-.467,3.76,1.036,5.283a18.557,18.557,0,0,0,5.993,3.545c13.256,5.575,28.677,7.941,43.876,9.878C151.365,243.17,216.72,250.985,264.68,243.155Z"></path><path d="M264.685,243.183c-1.042.215-4.33.755-9.41,1.5l-8.941.969c-3.4.253-7.188.553-11.315.779-8.258.39-17.86.583-28.322.385-10.46-.219-21.777-.752-33.467-1.6-23.387-1.7-48.232-4.64-70.9-7.631C91,236,80.212,233.88,70.822,230.512q-1.764-.618-3.449-1.311c-1.129-.439-2.236-.917-3.317-1.454a16.173,16.173,0,0,1-3.074-1.94,7.152,7.152,0,0,1-2.245-3,4.392,4.392,0,0,1,.292-3.848,6.838,6.838,0,0,1,2.632-2.341,25.707,25.707,0,0,1,5.663-2.089,85.431,85.431,0,0,1,8.526-1.565q2.154-.3,4.339-.547l2.2-.233,3.361-.3.857-.072a.321.321,0,0,1,.051,0l-.014.052-.03.1-.059.2-.12.411-.481,1.651q-.4,1.36-.8,2.731-.363,1.236-.73,2.485l-.254.858-.064.215-.032.107c-.016.03-.069.01-.1.017l-.448.009-1.728.031-2.312.034-1.078.038-.492.039a6.546,6.546,0,0,0-1.858.454,8.054,8.054,0,0,0,1.645.788l.464.156.252.083.521.155c.694.211,1.392.415,2.1.592,2.83.738,5.734,1.313,8.663,1.817,5.857.985,11.857,1.74,17.846,2.6,12,1.642,24.145,3.138,36.411,4.379a702.2,702.2,0,0,0,74.607,3.8c12.532-.026,25.072-.588,37.548-1.517l4.676-.37,2.337-.185c.355-.03.916-.056,1.363-.055a9.7,9.7,0,0,1,1.408.145,12.02,12.02,0,0,1,4.946,2.169,20.136,20.136,0,0,1,3.689,3.551,31.7,31.7,0,0,1,4.834,8.607,35.5,35.5,0,0,1,2.215,9.545c.075.82.109,1.647.107,2.476l0,.416c0,.088,0,.185,0,.277l-.081.265-.2.662-.345,1.131c-.45,1.51-.961,3-1.46,4.488-1.02,2.974-2.15,5.9-3.338,8.805a125.679,125.679,0,0,1-8.426,16.766,84.035,84.035,0,0,1-5.277,7.766l-1.456,1.849-1.542,1.784c-.5.6-1.05,1.171-1.6,1.732l-.824.847-.545.56a3.748,3.748,0,0,1-.464.27l-.273.149a54.853,54.853,0,0,1-8.584,3.857,53.722,53.722,0,0,1-9.086,2.247,92.666,92.666,0,0,1-14.472,1l-7.14-.02-7.131-.127q-14.253-.356-28.4-1.445c-18.848-1.421-37.494-3.687-55.858-6.406q-6.89-1.019-13.725-2.121l-6.843-1.126-6.771-1.281c-9-1.695-18.082-3.438-26.749-6.715a59.771,59.771,0,0,1-12.374-6.3c-.954-.668-1.929-1.3-2.815-2.061l-1.357-1.1-.563-.455c-.145-.231-.262-.482-.371-.678l-.439-.839a10.531,10.531,0,0,1-1.014-3.925,6.968,6.968,0,0,1,1.238-4.2,10.025,10.025,0,0,1,2.956-2.727,18.083,18.083,0,0,1,3.291-1.616,40.337,40.337,0,0,1,6.678-1.825c2.222-.427,4.437-.747,6.632-1.017l3.273-.388,2.555-.319,3.183-.461-1.695,7.332-.6,2.582-.543,2.344-2.4.093-1.37.068-1.211.079q-1.206.09-2.39.23a16.909,16.909,0,0,0-4.3.96c-.066.027-.133.073-.117.147a.2.2,0,0,0,.052.086,5.507,5.507,0,0,0,.6.49,22.641,22.641,0,0,0,4,2.142,73.9,73.9,0,0,0,9.017,3.139,71.208,71.208,0,0,0,9.246,2.037,22.545,22.545,0,0,0,2.278.209,1.65,1.65,0,0,1,.287.024l.237.047.3.057.591.115,1.18.23,4.71.919q9.408,1.791,18.7,3.346a596.621,596.621,0,0,0,72.117,7.834c11.6.513,22.947.555,34.028.276,5.536-.158,11.023-.25,16.308-.852a26.266,26.266,0,0,0,7.508-1.8,13.278,13.278,0,0,0,3.122-1.966,17.484,17.484,0,0,0,2.515-2.767,59.906,59.906,0,0,0,4.024-6.563l3.7-6.77q1.856-3.36,3.771-6.621c1.242-2.171,2.662-4.317,3.788-6.4a19.747,19.747,0,0,0,1.956-13.661,23.558,23.558,0,0,0-7.058-11.556,28.646,28.646,0,0,1,3.606,3.794,21.107,21.107,0,0,1,2.863,4.711,19.043,19.043,0,0,1,1.294,11.627,23.421,23.421,0,0,1-2.114,5.95c-.978,1.924-2.134,3.743-3.173,5.682-2.141,3.833-4.214,7.825-6.306,11.912-1.055,2.041-2.113,4.107-3.3,6.146a23.926,23.926,0,0,1-4.38,5.756,15.9,15.9,0,0,1-6.56,3.468,43.951,43.951,0,0,1-7.22,1.28c-4.835.5-9.674.695-14.5.91-2.412.108-4.829.183-7.244.253s-4.823.145-7.225.157a488.768,488.768,0,0,1-54.07-2.395c-16.174-1.621-29.86-3.655-39.24-5.282-6.5-1.136-12.957-2.318-19.348-3.592l-4.785-.953-.237-.047-.017,0-.09,0-.661-.041c-.436-.033-.861-.08-1.283-.132-.843-.106-1.668-.24-2.485-.39a85.471,85.471,0,0,1-9.532-2.391,65.644,65.644,0,0,1-9.143-3.5,25.127,25.127,0,0,1-2.216-1.222c-.366-.231-.731-.48-1.094-.762a7.206,7.206,0,0,1-1.235-1.209,3.217,3.217,0,0,1-.712-1.844,2.646,2.646,0,0,1,.7-1.8,4.308,4.308,0,0,1,.772-.657c.142-.1.3-.171.453-.258a3.53,3.53,0,0,1,.412-.208,10.152,10.152,0,0,1,1.3-.456,28.729,28.729,0,0,1,4.881-.822q1.2-.112,2.384-.181l1.184-.06.358-.015.149,0c.045-.008.114.014.139-.018l.036-.142.138-.574.533-2.256q.31-1.3.619-2.6l-2.9.329c-1.584.18-3.157.369-4.716.593a49.507,49.507,0,0,0-9.063,2.023,14.968,14.968,0,0,0-3.92,1.944,4.959,4.959,0,0,0-2.157,3.053,6.138,6.138,0,0,0,.754,3.825l.249.478c.051.092.062.155.139.2l.827.672c.6.471,1.166.991,1.8,1.422a54.346,54.346,0,0,0,7.863,4.725,76.764,76.764,0,0,0,8.53,3.428A147.328,147.328,0,0,0,93.2,298.559l9.017,1.734c2.986.618,5.989,1.084,8.979,1.582q8.977,1.475,17.9,2.79c11.882,1.746,23.663,3.261,35.345,4.477q17.523,1.8,34.735,2.626c5.735.277,11.442.425,17.118.521,5.679.016,11.329.176,16.876-.335a53.731,53.731,0,0,0,16.056-3.746c1.268-.519,2.509-1.1,3.729-1.717.616-.3,1.208-.644,1.812-.963.17-.1.239-.108.321-.2l.323-.332.714-.732a60.52,60.52,0,0,0,5.269-6.239c6.452-8.794,11.144-18.665,14.878-28.666.915-2.511,1.787-5.031,2.557-7.574l.291-.953.134-.435a.877.877,0,0,0,.026-.334c.007-.648-.023-1.3-.062-1.944a30.047,30.047,0,0,0-.525-3.859,33.758,33.758,0,0,0-2.377-7.387,26.973,26.973,0,0,0-4.055-6.5,12.882,12.882,0,0,0-5.986-4.208,7.2,7.2,0,0,0-1.753-.283c-.294-.024-.589.015-.883.017l-.972.075-3.893.306-7.752.593-7.718.421c-2.564.162-5.124.254-7.677.326l-7.636.244-7.595.088-3.78.044-3.77-.029-7.506-.059-7.46-.191c-4.96-.088-9.884-.383-14.782-.568-19.582-1.031-38.658-2.792-57.213-5.079-9.277-1.139-18.43-2.391-27.455-3.7-4.512-.639-9.022-1.311-13.47-2.236-2.225-.46-4.435-1-6.62-1.665l-.41-.123-.2-.062-.292-.107-1.167-.427c-.378-.148-.8-.269-1.143-.441l-1.041-.5c-.724-.328-1.319-.692-1.942-1.048-.6-.334-1.3-.8-1.946-1.19.852-.324,1.772-.619,2.605-.883a22.407,22.407,0,0,1,2.675-.692c.486-.09.988-.163,1.511-.215.255-.035.526-.042.788-.064.239-.02.587-.038.726-.041.708-.029,1.405-.037,2.094-.044,1.689-.07,2.01.243,2.128-.679q.483-1.629.965-3.249l.13-.44.033-.11c.013-.038.033-.082-.025-.063l-.229.019-.911.082c-1.251.118-2.658.267-3.972.423-2.669.318-5.323.685-7.924,1.174a32.447,32.447,0,0,0-7.446,2.141,6.044,6.044,0,0,0-2.665,2,2.651,2.651,0,0,0,.076,2.751,7.038,7.038,0,0,0,2.415,2.408,22.6,22.6,0,0,0,3.33,1.743c2.373,1.006,4.785,1.946,7.231,2.743,9.783,3.246,19.863,5.017,29.807,6.446,9.963,1.379,19.83,2.6,29.526,3.761,21.351,2.54,50.581,5.52,76.386,6.1,12.894.306,24.921.139,34.6-.553,2.427-.094,4.692-.379,6.8-.543,2.1-.209,4.053-.316,5.8-.564Z"></path><path class="cls-8" d="M84.1,292.809s-3.044,22.322-.953,38.888c2.2,17.471,12.757,41.77,12.757,41.77a3.736,3.736,0,0,0,2.61,2.22h0c3.035.779,5.792-1.821,4.752-4.482,0,0-10.232-21.225-11.755-39.508A233.468,233.468,0,0,1,92,293.453c.143-1.636.751-3.069-1.014-3.532l-1.913-.106A3.882,3.882,0,0,0,84.1,292.809Z"></path><path d="M84.066,292.806a2.506,2.506,0,0,1,.451-1.693,4.212,4.212,0,0,1,3.29-1.833,4.742,4.742,0,0,1,1.224.087c.129.029.348.018.576.035l.676.031a3.044,3.044,0,0,1,1.44.256,1.717,1.717,0,0,1,.96,1.28,5.522,5.522,0,0,1-.037,1.67c-.063.474-.1.936-.139,1.438-.07.989-.142,2.006-.215,3.04a215.614,215.614,0,0,0-.338,22.936c.256,4.6.563,9.413,1.236,14.161A101,101,0,0,0,96.5,348.506c1.443,4.741,3.148,9.432,5,14,.936,2.28,1.907,4.536,2.925,6.728l.384.814.095.2a2.685,2.685,0,0,1,.153.355c.085.261.15.468.214.708a4.978,4.978,0,0,1-.238,2.91,5.755,5.755,0,0,1-4.041,3.388A6.264,6.264,0,0,1,96.543,377a5.67,5.67,0,0,1-1.8-1.568,5.422,5.422,0,0,1-.614-1.062l-.318-.739c-.836-1.95-1.622-3.9-2.391-5.847q-2.29-5.853-4.236-11.717t-3.42-11.693a93.458,93.458,0,0,1-2.254-11.62,116.525,116.525,0,0,1-.227-21.74,177.423,177.423,0,0,1,2.245-18.282c.19,4.994.241,12.191.45,18.963s.609,13.08.773,16.373a89.646,89.646,0,0,0,3.108,19.164c1.582,6.145,3.512,12.016,5.556,17.638,1.029,2.815,2.09,5.548,3.214,8.239a3.031,3.031,0,0,0,2.658,1.91,3.255,3.255,0,0,0,2.991-1.319,2.312,2.312,0,0,0,.427-1.5,2.881,2.881,0,0,0-.178-.746l-.439-.944q-.87-1.9-1.671-3.8c-1.067-2.526-2.073-5.027-3-7.515-3.68-9.933-6.389-19.619-7.089-28.989A181.6,181.6,0,0,1,90.2,304.2c.105-1.916.307-4.178.569-6.53.129-1.175.282-2.373.446-3.564.08-.58.171-1.216.287-1.787.053-.293.093-.474.11-.684a1.4,1.4,0,0,0-.067-.625.95.95,0,0,0-.408-.465,1.226,1.226,0,0,0-.634-.195l-1.492-.171a4.086,4.086,0,0,0-2.674.04,3.6,3.6,0,0,0-1.713,1.277A3.406,3.406,0,0,0,84.066,292.806Z"></path><path class="cls-8" d="M152.341,303.082s-3.179,22.3-1.947,38.731c1.3,17.328,9.282,41.222,9.282,41.222a3.047,3.047,0,0,0,2.088,2.138h0c2.482.692,5.545-.329,4.766-2.948,0,0-7.812-20.844-8.523-39a281.524,281.524,0,0,1,1.544-38.077c.167-1.633-.363-4.482-1.806-4.894l-1.211-.29A3.466,3.466,0,0,0,152.341,303.082Z"></path><path d="M152.313,303.079a2.839,2.839,0,0,1,.384-1.655,3.7,3.7,0,0,1,1.085-1.247,3.448,3.448,0,0,1,2.019-.683,5.782,5.782,0,0,1,1.184.177l.57.122a2.562,2.562,0,0,1,.679.218,3.814,3.814,0,0,1,1.556,2.419,8.331,8.331,0,0,1,.253,2.969c-.086.964-.174,1.955-.264,2.963-.685,8.072-1.053,17.266-.958,22.375.065,4.5.181,9.191.54,13.9a110.282,110.282,0,0,0,2.17,14.183c1.015,4.734,2.26,9.448,3.676,14.054.7,2.3,1.448,4.583,2.235,6.815l.6,1.657a4.987,4.987,0,0,1,.317,1.3,3.813,3.813,0,0,1-.176,1.587,4.032,4.032,0,0,1-2.028,2.269,6.223,6.223,0,0,1-2.376.628,7.9,7.9,0,0,1-2-.134l-.491-.113a5.185,5.185,0,0,1-.585-.2,4.687,4.687,0,0,1-1.063-.626,4.894,4.894,0,0,1-1.459-1.89,5.238,5.238,0,0,1-.2-.523l-.119-.357-.243-.737q-.959-2.938-1.821-5.873-1.737-5.872-3.16-11.719a138.968,138.968,0,0,1-3.853-23.033,144.4,144.4,0,0,1,.609-21.135c.614-6.531,1.465-12.5,2.427-17.78.095,4.859-.013,11.879,0,18.5-.018,6.619.147,12.807.142,16.044a98.527,98.527,0,0,0,1.793,18.922c1.1,6.1,2.5,11.962,4.031,17.6.774,2.815,1.577,5.579,2.431,8.27l.164.511a2.723,2.723,0,0,0,.15.4,2.34,2.34,0,0,0,1.938,1.35,3.582,3.582,0,0,0,3.187-.757,1.423,1.423,0,0,0,.222-1.307c-.06-.247-.212-.606-.317-.919l-.338-.965c-.445-1.285-.867-2.564-1.276-3.835-.821-2.543-1.555-5.067-2.251-7.558-2.727-9.959-4.569-19.572-4.739-28.687a217.387,217.387,0,0,1,.75-25.333c.15-1.864.382-4.064.678-6.35.146-1.144.308-2.309.484-3.467a7.355,7.355,0,0,0-.138-3.172,3.313,3.313,0,0,0-.613-1.28,1.286,1.286,0,0,0-.5-.359l-.709-.21a4.451,4.451,0,0,0-1.341-.28,2.944,2.944,0,0,0-1.2.266,3.51,3.51,0,0,0-1.554,1.394A4.108,4.108,0,0,0,152.313,303.079Z"></path></g></g></svg>