<svg xmlns="http://www.w3.org/2000/svg" id="outfits_springbreak" viewBox="0 0 380 600"><defs transform="matrix(-1, 0, 0, 1, 380, 0)"><style>.cls-1{fill:#0c3744;}.cls-2{opacity:0.3;}.cls-3{fill:none;}.cls-4{fill:#f9a;}</style></defs><path class="cls-1 color-hat" d="M129.55,178.21c36.55,5.61,51.86,11.13,75.68,19.81,42.86,15.62,58.11,17.66,73.06,11.83,38.89-15.14,60.33-16.49,80.16,1.7s5,32.77-6.66,44a112.73,112.73,0,0,1-25.31,17.95s6-19.34-17.69-28.07-62-12.77-106.9-8.39-82.33,3.53-115.66-6c-15.61-4.45-32-18.43-35.1-30.17-4.05-15.34,2.66-24,20.12-25.15A280.66,280.66,0,0,1,129.55,178.21Z" transform="matrix(-1, 0, 0, 1, 380, 0)" /><path d="M129.54,178.33c-1.56.42-9.28-.37-20.67-.81-5.7-.23-12.31-.36-19.51-.24-3.6.06-7.35.18-11.2.38-1.92.11-3.87.23-5.84.38-1,.06-1.92.19-2.88.29a26.85,26.85,0,0,0-2.83.44,29.49,29.49,0,0,0-5.41,1.54c-.42.18-.82.4-1.23.59a6.68,6.68,0,0,0-1.18.64l-1.12.72-1,.83a10.9,10.9,0,0,0-2.9,4.09,6.89,6.89,0,0,0-.41,1.21,5.79,5.79,0,0,0-.3,1.26l-.21,1.3,0,1.36,0,.68,0,.69.09,1.39c.14.93.27,1.87.46,2.8l.34,1.4a8.43,8.43,0,0,0,.38,1.34l.43,1.25c.15.42.38.83.56,1.24a35.33,35.33,0,0,0,6.5,9,60.74,60.74,0,0,0,17.13,12.24,51.74,51.74,0,0,0,8.48,3.13l4.18,1q2,.49,3.87.84c17.43,3.53,35.88,4.87,54.72,4.69,9.42-.09,18.95-.54,28.53-1.25l7.19-.59,7.21-.67L207.53,230a329.54,329.54,0,0,1,59.93-.49,207.84,207.84,0,0,1,29.69,4.66l3.66.91c1.22.32,2.43.69,3.65,1s2.42.7,3.63,1.12,2.39.78,3.64,1.24a40.66,40.66,0,0,1,14.8,9.15c.27.26.54.51.8.79l.74.9,1.45,1.8c.48.61.85,1.31,1.27,2a20.57,20.57,0,0,1,1.16,2,29.08,29.08,0,0,1,1.73,4.36l.08.28.05.14v.06l0-.06c0-.1,0-.1,0-.09h0l0,0,0,.09s.08-.07.1-.08l.05-.06,2.72-2a96.7,96.7,0,0,0,8.07-6.62c.63-.6,1.22-1.13,1.9-1.79l2-1.93c1.29-1.27,2.53-2.52,3.69-3.77a43,43,0,0,0,5.73-7.44,13.59,13.59,0,0,0,2.1-6.66,11.49,11.49,0,0,0-2-6.25,29.66,29.66,0,0,0-5.77-6.56,46.74,46.74,0,0,0-3.7-3l-1.89-1.39c-.64-.44-1.32-.79-2-1.19a37.88,37.88,0,0,0-8.18-3.68,40.89,40.89,0,0,0-8.9-1.5,70.1,70.1,0,0,0-19.11,1.86,173.69,173.69,0,0,0-19.34,5.54c-1.6.51-3.18,1.11-4.77,1.68l-2.38.85-1.19.42-1.36.47a46.68,46.68,0,0,1-11.56,2.54,56.76,56.76,0,0,1-11.39-.16c-.93-.07-1.83-.2-2.72-.34l-2.67-.41c-1.73-.34-3.47-.67-5.16-1.05a192.5,192.5,0,0,1-19.32-5.65c-12.35-4.17-23.94-9-35-13.3a309.31,309.31,0,0,0-32.23-10.84c-10.49-2.88-20.69-5.12-30.37-7.14a237.41,237.41,0,0,1,34.39,1.95c6.4.84,13,2.05,19.63,3.56s13.22,3.3,19.65,5.14c12.79,3.69,25.05,7.31,35.63,9.87,5.26,1.27,10.11,2.35,14.27,3A91.6,91.6,0,0,0,263.22,205a34.68,34.68,0,0,0,9.76-1c.8-.2,1.61-.48,2.42-.71.19,0,.41-.13.66-.21l.72-.24,1.44-.48c1.92-.63,3.8-1.29,5.73-1.89a190.12,190.12,0,0,1,23.44-6.07,98.59,98.59,0,0,1,12.18-1.5c1-.1,2.07-.05,3.1-.08s2.07,0,3.11,0l3.13.23,1.56.11c.52.06,1,.16,1.56.24l3.1.51c1,.19,2,.51,3.06.76a45.74,45.74,0,0,1,5.95,2l.74.27.7.35,1.4.69c.91.48,1.88.88,2.75,1.42l2.61,1.62c.43.28.88.53,1.29.83l1.21.9,2.41,1.82c.78.62,1.49,1.31,2.24,1.95s1.48,1.3,2.2,2,1.44,1.4,2.11,2.17a33.78,33.78,0,0,1,6.82,10.48,23.47,23.47,0,0,1,1.49,6.46,21.9,21.9,0,0,1-.5,6.58,31.16,31.16,0,0,1-5.31,11,70.1,70.1,0,0,1-7.41,8.44c-1.29,1.28-2.59,2.51-3.87,3.73-.63.6-1.31,1.21-2,1.83s-1.35,1.22-2,1.8c-2.75,2.36-5.59,4.55-8.49,6.59l-2.28,1.56c-1,.65-2,1.31-3,1.94-2,1.27-4.08,2.49-6.1,3.57-.71-.11-1.29-.11-1.93-.16s-1.16,0-1.69,0-1,.07-1.54.13c-.19.06-.09-.11-.1-.21l0-.33,0-.68a14.26,14.26,0,0,0-2.14-6c0-.75-.07-1.44-.11-2.16l-.06-1.07a6.19,6.19,0,0,0-.19-1l-.4-1.31a8.4,8.4,0,0,0-.44-1.12l-.48-1.11c-.19-.35-.41-.68-.61-1l-.61-1-.76-.95-.74-.95c-.27-.3-.59-.57-.88-.86a14.28,14.28,0,0,0-1.83-1.64l-2-1.49-2.21-1.25a10,10,0,0,0-1.12-.6l-1.18-.51-2.37-1c-1.7-.57-3.38-1.19-5.09-1.72s-3.42-1-5.16-1.49-3.45-.92-5.2-1.29a185.24,185.24,0,0,0-20.94-3.52c-7-.78-13.9-1.32-20.78-1.54a342.57,342.57,0,0,0-40.35,1.1l-9.81.95c-3.28.33-6.55.68-9.81.95l-4.87.42-4.85.35c-3.23.26-6.44.41-9.64.59a352.79,352.79,0,0,1-37.64,0,240.38,240.38,0,0,1-35.86-4.65c-2.87-.68-5.76-1.25-8.57-2l-4.24-1.13c-1.47-.49-3-.9-4.39-1.5a61.63,61.63,0,0,1-8.2-3.88,70.33,70.33,0,0,1-7.42-4.88,60.12,60.12,0,0,1-12.49-12.39,37.81,37.81,0,0,1-4.44-8c-.26-.75-.5-1.53-.74-2.29s-.33-1.45-.51-2.18a42,42,0,0,1-.67-4.4c0-1.09-.14-2.17-.1-3.33a22.39,22.39,0,0,1,.39-3.56,20.15,20.15,0,0,1,1-3.7c.24-.61.57-1.21.87-1.81a10.49,10.49,0,0,1,1.08-1.74,18,18,0,0,1,2.75-3.09l1.63-1.26a18.08,18.08,0,0,1,1.72-1.06l.88-.5.91-.4c.6-.25,1.21-.54,1.82-.75a30.4,30.4,0,0,1,3.72-1c.63-.13,1.25-.27,1.87-.38l1.87-.24c1.25-.19,2.48-.21,3.72-.29,2.44-.1,4.75-.09,7.13-.09,4.72,0,9.4.2,13.91.47,9,.55,17.37,1.53,24,2.58S127.06,177.77,129.54,178.33Z" transform="matrix(-1, 0, 0, 1, 380, 0)" /><path class="cls-1 color-hat" d="M298.91,217.75s-5.79-27.86-6.07-27.84c-2.31-15.7-5.68-31.7-10.37-38.8-19.69-29.87-93.4-37.44-118.58-29.15-27.33,9-50.9,64-50.9,64,47.25,33.91,123.62,36.95,180,32.37C292.94,218.31,298,217.85,298.91,217.75Z" transform="matrix(-1, 0, 0, 1, 380, 0)" /><path d="M298.92,217.81c-1.83.83-20,2.92-41.08,3.36-5.27.13-10.73.12-16.15.07s-10.82-.24-16-.53c-10.29-.51-19.59-1.42-26.24-2.16-5.87-.67-11.83-1.49-17.85-2.55s-12.08-2.4-18.16-4a180.43,180.43,0,0,1-35.89-13.35l-2.17-1.1-2.13-1.18c-1.42-.8-2.86-1.55-4.24-2.43s-2.8-1.66-4.15-2.58l-2.82-1.9c-.62-.42-1.23-.84-1.82-1.26l-.91-.63-.45-.31c-.06-.06-.17-.1-.2-.17l.11-.25,1.75-4,1.3-2.86q1-2.19,2.07-4.36,2.11-4.32,4.39-8.55c6.08-11.25,12.87-22.05,21.12-31.59a79.49,79.49,0,0,1,10.14-9.85,44.41,44.41,0,0,1,12.73-7.32,65.81,65.81,0,0,1,13.92-2.79,130.15,130.15,0,0,1,13.61-.68c4.5,0,9,.2,13.38.52s8.8.83,13.13,1.46a177,177,0,0,1,25.25,5.51,118.5,118.5,0,0,1,23.26,9.5,74.91,74.91,0,0,1,10.29,6.87,47,47,0,0,1,8.52,8.86l.89,1.26.44.63.4.69c.57.93,1,1.85,1.44,2.77a53.81,53.81,0,0,1,2.07,5.5,105.16,105.16,0,0,1,2.77,10.76c1.46,7.06,2.42,13.89,3.2,20.45l-2.22-1.76a2.13,2.13,0,0,1,1.43.42,2.07,2.07,0,0,1,.5.54c.15.25.05.09.09.16l.08.16a1.87,1.87,0,0,1,.08.21l.06.21.08.3.12.53.22,1,.39,2c.24,1.28.49,2.54.72,3.78.45,2.48.89,4.87,1.31,7.19.81,4.65,1.56,9,2.28,13.21-1.29-3.7-2.69-8-4.14-12.56-.72-2.31-1.46-4.71-2.22-7.17l-1.15-3.73c-.19-.63-.39-1.25-.59-1.89l-.3-.93-.15-.44-.07-.19,0-.05h0l.35-.14c.23-.08.32-.09.48-.16a4,4,0,0,0,.42-.2c.07-.06.11,0,.15-.05a.09.09,0,0,0,0-.08l-1.61.23c-1.27-5.67-2.64-11.49-4.18-17.13a109.59,109.59,0,0,0-5.39-15.73l-.82-1.66c-.3-.5-.57-1-.87-1.5a30.38,30.38,0,0,0-2-2.71,40.75,40.75,0,0,0-4.49-4.66,75.59,75.59,0,0,0-8.36-6.31,98.22,98.22,0,0,0-22.05-10.54,162,162,0,0,0-23.41-6.1,183.47,183.47,0,0,0-23.4-2.78c-3.87-.21-7.71-.28-11.51-.18a99.08,99.08,0,0,0-11.24.82,47.71,47.71,0,0,0-10.59,2.47,38.12,38.12,0,0,0-9.21,5.3,83.49,83.49,0,0,0-14.85,15.21,165.93,165.93,0,0,0-11.65,17.27c-3.51,5.88-6.67,11.85-9.55,17.82L116.59,182l-.9,2-.59,1.33,0,.08.08,0,.15.11.3.2.6.4,1.66,1.12c.66.46,1.36.86,2,1.29,1.39.82,2.71,1.72,4.12,2.47a142.78,142.78,0,0,0,16.91,8.29A206.84,206.84,0,0,0,175.18,210a310,310,0,0,0,33.17,5.43c10.77,1.22,21.22,1.93,31.34,2.36,9.61.38,22.76.75,34.35.66S295.63,218,298.92,217.81Z" transform="matrix(-1, 0, 0, 1, 380, 0)" /><g class="cls-2" transform="matrix(-1, 0, 0, 1, 380, 0)"><path d="M246.71,146.73c-.32.72-7.3,1.38-10,2-2.35.57-4.84,1-7.45,1.43a32.55,32.55,0,0,1-8.09.25,24.22,24.22,0,0,1-3.41-.64c-1.08-.27-2.1-.57-3.12-.88-2-.62-4-1.33-5.82-2.08a46.36,46.36,0,0,1-9.18-4.94c3.06-.61,7.95-.13,9.46.7a49.22,49.22,0,0,0,9,4,20.39,20.39,0,0,0,4.23,1,23.24,23.24,0,0,0,4.08.06c2.65-.17,5.16-.6,7.52-.89a63.42,63.42,0,0,1,6.63-.6A32.72,32.72,0,0,1,246.71,146.73Z" /></g><path class="cls-3" d="M262.15,214.37c4.75-1.09,10-2.58,16.14-4.52C273.4,211.4,268,212.92,262.15,214.37Z" transform="matrix(-1, 0, 0, 1, 380, 0)" /><path class="cls-4" d="M278.29,209.85a299.75,299.75,0,0,1,46.3-10.65C312.27,199.71,297.55,203.76,278.29,209.85Z" transform="matrix(-1, 0, 0, 1, 380, 0)" /><path d="M278.27,209.79c.33-1.5,13.64-5.59,18.67-7.67a89.31,89.31,0,0,1,27.48-6.87l.73,7.87-2.41.44c-16.59,3.1-32.8,6.23-44.09,7.43a30.51,30.51,0,0,1,8.07-6.74c3.12-1.88,6.23-3.15,8-3.28,11.08-.8,20.81-2.09,29.65-3.35l.29,3.18A84.6,84.6,0,0,0,306,204.14c-5.65,1.53-10.8,3.15-15.67,4.23A74.28,74.28,0,0,1,278.27,209.79Z" transform="matrix(-1, 0, 0, 1, 380, 0)" /><path class="cls-1 color-hat" d="M324.59,199.2a299.75,299.75,0,0,0-46.3,10.65c-6.1,1.94-11.39,3.43-16.14,4.52-41.61,10.39-103.92,17.82-144.06,15.15C83.7,227.24,51.55,209.13,50,192a29.76,29.76,0,0,0,1.12,8.91c3.1,11.74,17.27,24.84,35.1,30.17,33.2,9.95,70.72,10.37,115.66,6s83.18-.33,106.9,8.39,17.69,28.07,17.69,28.07a112.73,112.73,0,0,0,25.31-17.95c11.64-11.23,26.5-25.81,6.66-44C348.2,202.15,337.77,198.65,324.59,199.2Z" transform="matrix(-1, 0, 0, 1, 380, 0)" /><path d="M324.59,199.17a36.21,36.21,0,0,1,4.58-.19,45.51,45.51,0,0,1,9.52,1.13,42.69,42.69,0,0,1,6.08,1.93,46,46,0,0,1,6.47,3.35,51.17,51.17,0,0,1,6.44,4.8,43.24,43.24,0,0,1,6.05,6.24,24.73,24.73,0,0,1,4.33,8.21,18.31,18.31,0,0,1,.09,9.72,28.22,28.22,0,0,1-4.33,9,63.73,63.73,0,0,1-6.44,7.68c-2.33,2.41-4.69,4.72-7.14,7s-5,4.34-7.67,6.31-5.3,3.8-8,5.5c-1.36.86-2.65,1.63-4.09,2.47-1,.52-1.89,1.06-2.82,1.53l-1.39.73-.7.35c-.16.1-.14,0-.19,0l-.16-.06c.16-.63.31-1.25.47-1.86s.23-1.19.35-1.78a10.34,10.34,0,0,0,.2-1.69,10.86,10.86,0,0,0,0-1.13,17.82,17.82,0,0,0-.1-2.2l-.1-1.08c-.06-.36-.14-.71-.21-1.06a20.35,20.35,0,0,0-3.14-7.53,27.22,27.22,0,0,0-11-8.69l-3.07-1.27c-1.05-.4-2.14-.73-3.21-1.09l-1.62-.54-1.64-.47-3.29-.95c-4.44-1.12-9-2.17-13.54-2.95a239.92,239.92,0,0,0-28.12-3.22A361.64,361.64,0,0,0,199.17,239c-19.6,1.9-39.42,3-59.06,2.31s-39.05-3.43-57.3-9.27A66,66,0,0,1,70.08,226a58.9,58.9,0,0,1-11-8.71,41.9,41.9,0,0,1-8.29-11.47L50,204.17c-.24-.55-.39-1.15-.59-1.73a27.64,27.64,0,0,1-.89-3.44,29.51,29.51,0,0,1-.62-7.11l4.16-.1a16.18,16.18,0,0,0,1.17,4.45,23.6,23.6,0,0,0,2.36,4.16,40.57,40.57,0,0,0,6.83,7.17A76.07,76.07,0,0,0,79.72,218a115.13,115.13,0,0,0,38.77,9.54,357.14,357.14,0,0,0,39.4,0c12.92-.64,25.57-1.76,37.89-3.16a576.62,576.62,0,0,0,69.31-12c5.33-1.3,10.46-2.86,15.57-4.4s10.16-2.85,15.12-4a287.37,287.37,0,0,1,28.72-5.34c-9.46,1.81-21,4.45-33.24,8.09-3.06.9-6.16,1.87-9.27,2.9s-6.26,2.14-9.46,3.14-6.46,2-9.73,2.81-6.51,1.71-9.76,2.48A494.62,494.62,0,0,1,188.79,229c-13.55,1.3-26.93,2.18-40.13,2.49-3.3.07-6.59.15-9.87.11h-4.9l-4.89-.14c-3.25,0-6.49-.28-9.71-.46s-6.47-.52-9.65-1a115.39,115.39,0,0,1-36.09-11.44A70,70,0,0,1,58.26,208a37,37,0,0,1-6-7.1,20.36,20.36,0,0,1-3.18-8.8l1.84,0a26.1,26.1,0,0,0,.41,5.64c.16.94.37,1.87.6,2.79s.53,1.8.87,2.67a34.83,34.83,0,0,0,5.93,9.56,57.14,57.14,0,0,0,17.71,13.6,65.7,65.7,0,0,0,10.28,4.09l5.34,1.49c1.78.48,3.57.88,5.35,1.32A215.3,215.3,0,0,0,118.85,237c7.13.84,14.23,1.37,21.25,1.67s14,.29,20.87.15c13.76-.32,27.2-1.32,40.32-2.61,26.31-2.59,51.76-2.69,75.77.61,12,1.77,23.64,4.14,34.5,8.59.67.29,1.36.55,2,.88l1.94,1.1,1,.54a6.23,6.23,0,0,1,.94.6l1.78,1.32c.3.23.61.43.88.68l.81.77c.53.51,1.08,1,1.59,1.55a25.63,25.63,0,0,1,2.63,3.59,21.59,21.59,0,0,1,3,8.26c.09.72.15,1.45.22,2.17s0,1.46,0,2.18l-.05.81c0,.15,0,.31-.05.46,0,.31-.1.61-.17.92l0,.2.18-.09.38-.2.75-.4,1.17-.67,1.59-.94c2.11-1.27,4.16-2.59,6.17-4a105.06,105.06,0,0,0,11.27-8.87c2.71-2.52,5.68-5.35,8.56-8.45a42,42,0,0,0,7.54-10.69,20.16,20.16,0,0,0,1.71-6.42,17,17,0,0,0-.8-6.62,28.87,28.87,0,0,0-7.4-11.13,52.16,52.16,0,0,0-10-7.88,40.67,40.67,0,0,0-10.22-4.34,44.61,44.61,0,0,0-8.64-1.42c-1.22-.12-2.31-.11-3.25-.15Z" transform="matrix(-1, 0, 0, 1, 380, 0)" /><g class="cls-2" transform="matrix(-1, 0, 0, 1, 380, 0)"><path d="M324.59,199.2a299.75,299.75,0,0,0-46.3,10.65c-6.1,1.94-11.39,3.43-16.14,4.52-41.61,10.39-103.92,17.82-144.06,15.15C83.7,227.24,51.55,209.13,50,192a29.76,29.76,0,0,0,1.12,8.91c3.1,11.74,17.27,24.84,35.1,30.17,33.2,9.95,70.72,10.37,115.66,6s83.18-.33,106.9,8.39,17.69,28.07,17.69,28.07a112.73,112.73,0,0,0,25.31-17.95c11.64-11.23,26.5-25.81,6.66-44C348.2,202.15,337.77,198.65,324.59,199.2Z" /></g></svg>