<svg xmlns="http://www.w3.org/2000/svg" id="basic" viewBox="0 0 380 600"><defs><style>.cls-1{opacity:0.3;}.cls-2{fill:#00ccc0;}.cls-3{opacity:0.2;}.cls-4{fill:#fff;}.cls-5{fill:#fff8b8;}.cls-6{fill:#ffa800;}</style></defs><g class="cls-1"><path d="M128.82,208.56c-1.74,29.23,124.54,29.23,122.79,0C253.35,179.32,127.07,179.32,128.82,208.56Z"></path><path d="M128.78,208.56a6.8,6.8,0,0,1-.08-2.58,11.15,11.15,0,0,1,2.29-5.06c2.81-3.65,8.15-6.66,14-8.82,11.9-4.34,26.19-5.76,34.05-6.44a179.64,179.64,0,0,1,21.65-.55,153.61,153.61,0,0,1,22.49,2.37,92,92,0,0,1,11.2,2.76A49.47,49.47,0,0,1,245.21,195a25.63,25.63,0,0,1,4.84,3.83,14.35,14.35,0,0,1,3.45,5.61,9.66,9.66,0,0,1,.4,1.67l.12.86c0,.27,0,.52,0,.79v2.34c0,.28-.08.57-.11.85a13.21,13.21,0,0,1-2.61,6.07,19.52,19.52,0,0,1-3.81,3.79c-.68.56-1.41,1-2.11,1.49s-1.45.89-2.19,1.27a56.29,56.29,0,0,1-9.06,3.79,110.23,110.23,0,0,1-18.5,4.05,182.78,182.78,0,0,1-35.86,1.13c-11.45-.79-22.35-2.49-32.07-5.69a47.13,47.13,0,0,1-13.29-6.51,18,18,0,0,1-4.84-5.19,11,11,0,0,1-1.52-6.6,10.74,10.74,0,0,0,2.27,5.83,17.1,17.1,0,0,0,5.26,4.37,52.25,52.25,0,0,0,13.95,5c9.74,2.21,19.22,2.89,24.15,3.54A175.46,175.46,0,0,0,203,228.42a128.09,128.09,0,0,0,27.24-3.82,54.17,54.17,0,0,0,12.1-4.68,22.72,22.72,0,0,0,5-3.65,11.13,11.13,0,0,0,3-4.92,8.3,8.3,0,0,0,.26-1.39c0-.48,0-1,0-1.48a8.76,8.76,0,0,0-.32-2.83,11.18,11.18,0,0,0-2.93-4.77,22.72,22.72,0,0,0-4.65-3.47,39.06,39.06,0,0,0-5.25-2.54,73.3,73.3,0,0,0-11-3.35c-3.69-.85-7.37-1.49-11-2a178.46,178.46,0,0,0-21.26-1.5q-10.31-.13-19.9.69A159.15,159.15,0,0,0,156,191.27c-5.51,1.16-13.11,2.93-19,6.22a25,25,0,0,0-3.95,2.73,14.2,14.2,0,0,0-2.72,3.15A10.33,10.33,0,0,0,128.78,208.56Z"></path></g><path class="cls-2" d="M255.62,153.33A30.25,30.25,0,0,1,263.44,142c9.61-9.21,23-14,36.18-14.59a3.46,3.46,0,0,1,3.59,3.36c.49,14.09-6.62,29.24-16.7,38.68C278.1,177.31,269,180,257.83,182.7"></path><path d="M257.83,182.67c.43-.51,5.48-1.76,11.07-3.78a50.81,50.81,0,0,0,8.16-3.73A37.19,37.19,0,0,0,283,171a55.13,55.13,0,0,0,12.29-16.21,51,51,0,0,0,5.59-19.66c0-.71.1-1.43.09-2.14l0-2.11a1.24,1.24,0,0,0-.94-1.11l-.17,0a2,2,0,0,0-.32,0l-1.08.07c-.72,0-1.43.1-2.14.18-1.43.13-2.84.34-4.23.56a60.91,60.91,0,0,0-15.65,4.84A52.16,52.16,0,0,0,264,143.53a30.82,30.82,0,0,0-7.75,10A18.26,18.26,0,0,1,258,147.4a29.13,29.13,0,0,1,4.14-6.38,32.88,32.88,0,0,1,9.55-7.93A67.31,67.31,0,0,1,299,126.42a5.28,5.28,0,0,1,1.92.16,4.47,4.47,0,0,1,1.77,1,4.4,4.4,0,0,1,1.12,1.67,4.61,4.61,0,0,1,.25,1c0,.16,0,.33,0,.49v.41a46.66,46.66,0,0,1-.37,6.3,54.59,54.59,0,0,1-2.83,11.64,57.14,57.14,0,0,1-11,18.64,45.5,45.5,0,0,1-7.37,6.61,41.88,41.88,0,0,1-8.11,4.42,49.38,49.38,0,0,1-9.56,2.77C261.6,182.17,258.76,182.55,257.83,182.67Z"></path><g class="cls-3"><path d="M249.39,179.86a5.32,5.32,0,0,1,1.6-.27l1.51-.11.87-.06.91-.14a39.81,39.81,0,0,0,6.75-1.47,61.65,61.65,0,0,0,15.56-8.08,69.32,69.32,0,0,0,10.71-9.65,53.36,53.36,0,0,0,6.94-9.62,20.57,20.57,0,0,1-.5,2.7c-.3,1-.7,2-1.1,3s-1,1.86-1.43,2.63a13.13,13.13,0,0,1-1.31,1.74,83.77,83.77,0,0,1-8.75,8c-1.49,1.08-2.87,2.21-4.34,3.13-.72.47-1.41,1-2.12,1.4l-2.12,1.26a42.65,42.65,0,0,1-16,5.75c-.59.07-1.29.11-2,.15l-1.1,0c-.37,0-.73,0-1.09-.06C251,180,249.78,179.91,249.39,179.86Z"></path></g><path class="cls-2" d="M128.8,155.07c25.87-35.93,71.79-74.33,117.79-51.56,25.92,12.2,44.68,42,32.06,70.69-12.17,26.46-42.12,39.65-68.86,46.49-10,2.56-21.22,2.34-31.37,1.06a102,102,0,0,1-30.61-8.84,89.37,89.37,0,0,1-25.72-18,74.32,74.32,0,0,1-16.84-26.45,39.7,39.7,0,0,1-2.61-12.74,1.63,1.63,0,0,1,1.06-1.8l8.76-5.27a44.79,44.79,0,0,1,7.87-4.07,21.72,21.72,0,0,1,4-1.05l-.51.24"></path><path d="M123.86,143.71a4.9,4.9,0,0,1,.48-.3l.06.2a27.35,27.35,0,0,0-5.09,1.69,76.28,76.28,0,0,0-8.42,4.84c-1.63,1-3.38,2.1-5.23,3.23l-1.4.87a5,5,0,0,0-.56.36,1.15,1.15,0,0,0-.38.49,5,5,0,0,0,0,1.42c0,.56.08,1.13.14,1.71a48.14,48.14,0,0,0,4.18,14.08,73,73,0,0,0,7.89,13.49,76.87,76.87,0,0,0,10.29,11.35,86.88,86.88,0,0,0,20.93,13.92,102.5,102.5,0,0,0,34.78,9.37,95.53,95.53,0,0,0,18.6.06,62.71,62.71,0,0,0,9.14-1.63l4.58-1.26c1.53-.44,3-.92,4.56-1.38,12.09-3.84,23.91-8.87,34.24-15.88a77.23,77.23,0,0,0,13.93-12.06,60.25,60.25,0,0,0,9.91-14.88,44.43,44.43,0,0,0,2.25-29.81,57.16,57.16,0,0,0-15.5-25.66,63.06,63.06,0,0,0-5.67-4.94,61.07,61.07,0,0,0-6.15-4.24,66.42,66.42,0,0,0-6.56-3.5l-3.38-1.54L238,102.4a61.23,61.23,0,0,0-28.29-3.05,75.8,75.8,0,0,0-13.61,3,91.22,91.22,0,0,0-12.62,5.23A108.71,108.71,0,0,0,172,114.31c-3.67,2.39-7.13,5-10.44,7.62a191.8,191.8,0,0,0-32.18,33.54,160.11,160.11,0,0,1,13-18.22c2.66-3.24,5.57-6.48,8.62-9.66s6.31-6.22,9.63-9.11A116.73,116.73,0,0,1,181,104.23a77.28,77.28,0,0,1,17-7,70.12,70.12,0,0,1,26.22-2.14,63.22,63.22,0,0,1,12.58,2.73l1.52.47c.5.18,1,.38,1.49.57l3,1.15c1.9.9,3.82,1.74,5.66,2.7A68.84,68.84,0,0,1,268,117.6a61,61,0,0,1,12.5,20.14,49.45,49.45,0,0,1,2.9,22.76,47.19,47.19,0,0,1-2.61,11c-.31.88-.69,1.74-1,2.6s-.83,1.66-1.24,2.49L277.2,179c-.42.82-1,1.56-1.44,2.34a69.32,69.32,0,0,1-14.21,16.1,97.62,97.62,0,0,1-17.3,11.48,138.49,138.49,0,0,1-18.41,8c-3.1,1.08-6.2,2.11-9.3,3-1.54.49-3.1.88-4.65,1.32s-3.1.84-4.69,1.15a79.19,79.19,0,0,1-18.83,1.38,114.33,114.33,0,0,1-18.1-2.1,100.11,100.11,0,0,1-32.21-12.52,82.56,82.56,0,0,1-23.89-21.71A70.83,70.83,0,0,1,106,172.91a57.85,57.85,0,0,1-2.92-8.68,41.64,41.64,0,0,1-.82-4.52c-.09-.76-.15-1.51-.19-2.26a17.68,17.68,0,0,1,0-2.42,1.91,1.91,0,0,1,.63-1.17,4.21,4.21,0,0,1,.55-.39l.52-.3,1.84-1,3.53-2c2.29-1.29,4.4-2.53,6.36-3.55a31,31,0,0,1,5.29-2.26,20.89,20.89,0,0,1,3.65-.78l0-.05Z"></path><path d="M254.82,154.05a18.33,18.33,0,0,1-15.27,11c-6.59.57-15.8-2.17-20.09-7.21a25.26,25.26,0,0,1-5.62-18.49c15.89,1.78,28.49-.13,37.63-4.74,3.37,7.7,5.29,17.12.68,24.15"></path><path d="M252.12,158.79c0-.32.62-1.48,1.19-3.31a20.73,20.73,0,0,0,.86-7.06,31.5,31.5,0,0,0-1.57-8.1c-.2-.64-.42-1.25-.65-1.84-.11-.29-.22-.58-.34-.86s-.17-.41-.26-.61-.27-.56-.39-.79-.2,0-.31,0l-.33.2c-.18.11-.33.21-.51.3l-1.1.53c-.74.35-1.5.65-2.26,1-1.55.59-3.14,1.14-4.77,1.58a61.71,61.71,0,0,1-10.11,1.85,80.87,80.87,0,0,1-10.31.35c-.85,0-1.71,0-2.55-.09l-2.21-.13-.56,0s0,.09,0,.11l0,.8c0,.32,0,.64.07,1,.05.65.14,1.28.25,1.92a22.29,22.29,0,0,0,.94,3.7,21.69,21.69,0,0,0,3.51,6.58,15.55,15.55,0,0,0,1.15,1.32,14.39,14.39,0,0,0,1.32,1.14,18.59,18.59,0,0,0,3,1.92,28.56,28.56,0,0,0,6.79,2.43,24.23,24.23,0,0,0,6.8.59,17.82,17.82,0,0,0,14.35-9.46,12.88,12.88,0,0,1-2,5.62,17,17,0,0,1-5.11,5.14,17.66,17.66,0,0,1-6.58,2.63,16.55,16.55,0,0,1-5.17.1,34.32,34.32,0,0,1-6.93-1.9,28.26,28.26,0,0,1-6.13-3.24,19,19,0,0,1-2.64-2.2c-.41-.39-.77-.86-1.15-1.28s-.68-.87-1-1.33a25.29,25.29,0,0,1-2.94-5.7,28.42,28.42,0,0,1-1.48-6c-.12-1-.22-2-.24-3l0-.75,0-1c0-.66.05-1.31.1-1.95l0-.49s0-.06.07,0h.11l.23,0,.92.08,1.82.17.85.08.69,0,1.36.1c1.81.1,3.59.16,5.35.15a65.55,65.55,0,0,0,19.32-2.72c1.44-.46,2.84-1,4.18-1.52l1-.44c.55-.24,1.05-.49,1.57-.73l1.55-.72s.07-.06.08,0l0,.09.08.2.17.39.32.78a39.5,39.5,0,0,1,1.76,4.82,33.93,33.93,0,0,1,1,4.14,22.24,22.24,0,0,1-.34,9.41A15.86,15.86,0,0,1,252.12,158.79Z"></path><path class="cls-4" d="M265,190.84c4.18-2.8,4.8-8.93,2.22-13.31-1.74-2.94-5.6-5-8.79-6-10.73-3.52-25.63,4-37.49,9.82a185.65,185.65,0,0,1-32.08,12.88c-16.24,5-31.36,9-47.8,4.74-9.36-2.43-22.9-8.6-31.05-22,4.54,7.32,11.37,17.85,18.9,22.7,3.9,2.51,8.25,5.9,12.35,8,20.21,10.4,37.09,13.47,56.54,12.3a113.32,113.32,0,0,0,22.11-3.95c16.07-4.36,33.9-12.6,45.09-25.21"></path><path class="cls-4" d="M203.57,120.9c-16.21-12.71-32,16.11-11.35,20.52,12.77,2.72,20-16,9.9-21.75"></path><path d="M202.13,119.65a4.79,4.79,0,0,1,2,1.1,9.24,9.24,0,0,1,2.67,3.91,12.42,12.42,0,0,1,.57,5.46,17.33,17.33,0,0,1-1.11,4.39,14.24,14.24,0,0,1-3.56,5.26,12.11,12.11,0,0,1-6.08,3.06,12.92,12.92,0,0,1-3.51.12,20.57,20.57,0,0,1-3.32-.72,13.69,13.69,0,0,1-5.88-3.44,10.58,10.58,0,0,1-2.84-5.3,12.67,12.67,0,0,1,.18-5.82,15.37,15.37,0,0,1,6.16-8.76,12.45,12.45,0,0,1,9.4-2.1,14.07,14.07,0,0,1,7.05,3.73c-.53-.17-1.09-.38-1.67-.61l-1.88-.57a15.21,15.21,0,0,0-4-.47,15,15,0,0,0-5.86,1.54,12.21,12.21,0,0,0-7.3,11.82,9,9,0,0,0,1,3.28,9.14,9.14,0,0,0,2.13,2.57,13.35,13.35,0,0,0,5.92,2.66,10.47,10.47,0,0,0,5.92-.4A10.14,10.14,0,0,0,200.6,139a11.2,11.2,0,0,0,2-1.87,13.64,13.64,0,0,0,3.15-11.87,9.36,9.36,0,0,0-3.63-5.62Z"></path><path class="cls-4" d="M259,118.18c-1.84-1.88-3.42-3.89-5.82-4.67-1.52-.49-3.51-.26-4.18,1.32a6.32,6.32,0,0,0,0,3.58c1.12,4,3.53,8.26,6.91,10.42,2.86,1.83,9,1.72,7.25-3.73s-3.54-6-4.59-7.49"></path><path d="M258.52,117.6c.16,0,.52.36,1.1.85a10.91,10.91,0,0,1,2,2.19,18.26,18.26,0,0,1,1.6,3,12.59,12.59,0,0,1,.91,2.75,4,4,0,0,1-.22,2.28,3.84,3.84,0,0,1-1.79,1.77,7.08,7.08,0,0,1-4.54.39,7.73,7.73,0,0,1-2.19-.8,11.5,11.5,0,0,1-1.82-1.26,16.13,16.13,0,0,1-2.83-3.09,20.84,20.84,0,0,1-3-6.24,10.29,10.29,0,0,1-.39-1.81,9.09,9.09,0,0,1,0-1.88,4.49,4.49,0,0,1,.72-2.06,3.7,3.7,0,0,1,1.81-1.4,5.3,5.3,0,0,1,3.7.11,8.39,8.39,0,0,1,2.6,1.65,24.63,24.63,0,0,1,3.14,3.81c-1.33-.46-3-1.61-4.49-2.3a9,9,0,0,0-2-.68c-.53-.11-1-.11-1.25-.15a1.64,1.64,0,0,0-1.37.34,2.9,2.9,0,0,0-.51,1.78,7.28,7.28,0,0,0,.3,2.22,19.52,19.52,0,0,0,.72,2.2,14.79,14.79,0,0,0,5.06,6.73,6.54,6.54,0,0,0,3.43,1.15,3.78,3.78,0,0,0,2.89-.84,2.62,2.62,0,0,0,.36-2.52,26.92,26.92,0,0,0-1-3,20,20,0,0,0-1.5-3.07A19.64,19.64,0,0,1,258.52,117.6Z"></path><path class="cls-4" d="M215.17,98.11c.47-1.83,1.14-3.66,1.68-5.48,1.34-4.6,12-29.57,16-37.21a8.4,8.4,0,0,1,1.61-2.64,2.79,2.79,0,0,1,1.69-.72c1.72,0,2.59,17.53,2.68,18.89.58,8.79.31,17.56.44,26.35.07,5.2.27,10.62-4.64,13.7a14.42,14.42,0,0,1-14.79.35C214.84,108.56,213.87,103.14,215.17,98.11Z"></path><path d="M215.2,98.11c.1.32-.25,1.81-.17,4a10.32,10.32,0,0,0,3,7.19,12.87,12.87,0,0,0,8.41,3.15,13.24,13.24,0,0,0,7.11-2,10.73,10.73,0,0,0,1.88-1.51,8.73,8.73,0,0,0,1.34-2,12.78,12.78,0,0,0,1-4.91c.07-1.77,0-3.63-.09-5.55s-.1-3.83-.14-5.76c-.07-3.84-.11-7.69-.23-11.47s-.36-7.49-.62-11.16c-.24-3.18-.5-6.36-.88-9.45-.09-.78-.2-1.54-.31-2.29l-.19-1.11-.11-.5h0s0,0,0,0h0l-.21.41c-.16.31-.31.66-.54,1.1l-1,2q-1,2.05-2,4.08c-1.27,2.73-2.52,5.41-3.75,8l-6.8,14.92c-1,2.33-2.07,4.57-2.92,6.7l-2.31,6.2c.17-1.89.46-4.18.93-6.69s1.27-5.09,2-7.6A92.42,92.42,0,0,1,223.13,72c2.32-4.67,4.57-9.19,6.82-13.56.57-1.1,1.13-2.18,1.73-3.25l.4-.76.43-.83.12-.22.18-.29c.12-.19.25-.37.39-.55a3.91,3.91,0,0,1,1-.84,4,4,0,0,1,1.11-.51,1.75,1.75,0,0,1,1.13,0c.74.23,1,1,1.31,1.79.12.4.22.83.31,1.24s.11.59.15.89c.1.58.17,1.16.25,1.74.54,4.62.79,9.06,1,13.38s.4,8.5.46,12.55.1,7.94.15,11.72c0,1.9.08,3.76.11,5.6a21.29,21.29,0,0,1-.58,5.6,10.16,10.16,0,0,1-2.85,5,13.62,13.62,0,0,1-4.69,2.75,15.1,15.1,0,0,1-10.06,0,12.66,12.66,0,0,1-4.57-2.72,10.22,10.22,0,0,1-1.8-2.33,11,11,0,0,1-1-2.67,12.81,12.81,0,0,1-.13-4.82A16.05,16.05,0,0,1,215.2,98.11Z"></path><path class="cls-2" d="M237.09,79.81c1.19-2.26-.08-5.6.6-8-4.39,1.78-7.6.15-10-3.55-.39,2.74-.9,1.84-3,7.81C223,81,233.89,85.86,237.09,79.81Z"></path><path d="M237.1,79.82a2.92,2.92,0,0,1-.63,1.16,5.16,5.16,0,0,1-2.26,1.57,8.85,8.85,0,0,1-5.73-.3,8.44,8.44,0,0,1-3.13-1.94,4.55,4.55,0,0,1-1.46-3.78,11.9,11.9,0,0,1,.56-1.89c.2-.59.42-1.17.65-1.75s.48-1.15.74-1.7.56-1.09.72-1.55c0,0,.06-.17.09-.32l.11-.42c.06-.28.1-.61.16-.92.09-.62.19-1.23.28-1.85.6.87,1.22,1.76,1.86,2.63a2.55,2.55,0,0,0,.24.31l.12.14.24.27.5.5a6.82,6.82,0,0,0,2.27,1.42,6.12,6.12,0,0,0,2.54.32,7,7,0,0,0,1.28-.2c.31-.07.81-.25,1.18-.38s.8-.28,1.16-.39a21.87,21.87,0,0,0-.46,2.18c0,.46-.06.73-.07,1.11,0,.72,0,1.42,0,2.09a7.13,7.13,0,0,1-.79,3.79,10,10,0,0,0-.23-4.13,19.1,19.1,0,0,1-.31-2.22c0-.18,0-.35,0-.53s0-.07,0-.09h0v0s0,0-.05,0a9.74,9.74,0,0,1-2.39.19,7.1,7.1,0,0,1-3-.81A10.15,10.15,0,0,1,227.83,69a4.36,4.36,0,0,1-.2.85l-.11.31-.16.34-.32.65c-.43.84-.8,1.68-1.13,2.52s-.63,1.68-.9,2.49a3,3,0,0,0,.17,2.21,6.65,6.65,0,0,0,3.25,2.91,9.25,9.25,0,0,0,4,.91,6.3,6.3,0,0,0,3-.77A5.83,5.83,0,0,0,237.1,79.82Z"></path><path class="cls-2" d="M237.5,101c1.52-2.09.9-6.17,1.42-8.74.08-.89-.57-2-1.36-1.63-4,1.71-6.74,1.69-8.72,1.32-3.09-.59-6.62-2.66-8.12-5.44-1.41,3.51-3.09,6.52-2.53,9.39,1.22,6.27,4.94,8.12,7,8.71C228.53,105.57,233.86,106,237.5,101Z"></path><path d="M237.51,101a6.16,6.16,0,0,1-1.13,1.52,9.48,9.48,0,0,1-3.23,2.22,11,11,0,0,1-4.49.77A16.67,16.67,0,0,1,225,105a9.38,9.38,0,0,1-4.5-2.73,12.37,12.37,0,0,1-2.6-4.84c-.14-.44-.23-.89-.34-1.33a7.26,7.26,0,0,1-.15-1.47,10.26,10.26,0,0,1,.46-2.8c.25-.88.58-1.72.9-2.54L220,86.17c.19-.48.39-1,.58-1.43.44.74.9,1.52,1.39,2.24l.26.33c.07.07.12.15.19.21s.26.29.4.42a11.33,11.33,0,0,0,1.81,1.42,13.13,13.13,0,0,0,4.19,1.76A14.65,14.65,0,0,0,237.3,90a1.39,1.39,0,0,1,1.39.2,2,2,0,0,1,.66.92,2.49,2.49,0,0,1,.17,1v.14l0,.15,0,.17c0,.12,0,.24-.07.37-.15,1-.2,2-.27,2.92-.16,1.9-.36,3.83-1.43,5.21.73-1.51.58-3.62.47-5.74a17.88,17.88,0,0,1,0-3.19,1.31,1.31,0,0,0-.25-.73l-.09-.09s0,0,0,0h0c-.36.14-.72.29-1,.37a18.74,18.74,0,0,1-4.86.94A12.57,12.57,0,0,1,227.3,92a14.58,14.58,0,0,1-4-2.11,9.68,9.68,0,0,1-2.54-2.7,3.11,3.11,0,0,0-.24.51l-.31.72c-.25.6-.51,1.2-.75,1.79a15.49,15.49,0,0,0-1,3.55,7.23,7.23,0,0,0,0,1.74,14.77,14.77,0,0,0,.4,1.69,12.47,12.47,0,0,0,1.34,3.07,8.81,8.81,0,0,0,4.71,3.79,14.19,14.19,0,0,0,5.63.66,12.28,12.28,0,0,0,2.17-.44,10.24,10.24,0,0,0,2.2-1A12.14,12.14,0,0,0,237.51,101Z"></path><path class="cls-2" d="M143.26,141.68l-5.35-2.16a67.85,67.85,0,0,0,7.56-41.08,1.5,1.5,0,0,0-2.1-1.49c-19.89,3.8-31.95,6.64-34.73,29.09-13.72-18.73-34.07-15.15-53.89-9.87-1.28,2.34.71,5.5,1.6,7.77,7.43,16.62,26,31.26,45.35,30.73a64.5,64.5,0,0,0,2.45,7.77"></path><path d="M104.11,162.45a10.36,10.36,0,0,1-1-1.91c-.23-.53-.48-1.16-.74-1.88-.13-.36-.26-.75-.4-1.15l-.37-1.21-.34-1.08a6.36,6.36,0,0,0-1.17,0H98.57a14.78,14.78,0,0,1-1.74-.11,32.3,32.3,0,0,1-3.65-.47,33.49,33.49,0,0,1-3.81-.85A50.78,50.78,0,0,1,74.77,147a62.47,62.47,0,0,1-10.14-8.49c-.51-.54-1-1.08-1.54-1.63s-1-1.15-1.47-1.73c-1-1.14-1.87-2.4-2.77-3.66-.47-.61-.86-1.29-1.27-2s-.84-1.32-1.22-2c-.71-1.39-1.53-2.89-2.1-4.2-.32-.69-.68-1.42-1-2.23a10.15,10.15,0,0,1-.68-2.75,6.87,6.87,0,0,1,.17-2c.11-.31.22-.61.34-.91l.2-.45c0-.06.05-.17.12-.2l.22-.09c.29-.13.57-.26.88-.37l1-.27,1.22-.33c3-.84,6.12-1.61,9.26-2.27,1.58-.29,3.14-.64,4.75-.85l2.4-.35,2.43-.24,1.21-.11,1.23-.05,2.45-.08,2.47.08,1.23.05,1.23.15,2.45.3,2.43.52c.4.09.81.16,1.21.27l1.18.38c.79.27,1.58.51,2.36.79l2.25,1c.38.18.76.34,1.12.53l1.06.63,2.1,1.27,1.93,1.48a27.57,27.57,0,0,1,3.26,2.93l.39.38c.09.09,0,0,0,0h0s0,0,0,0,0,0,0,0l.4-1.73c.09-.35.16-.7.26-1l.34-1,.69-2.06c.25-.68.59-1.34.88-2a15.73,15.73,0,0,1,1-2l1.15-1.89c.44-.6.91-1.17,1.37-1.75a13,13,0,0,1,1.5-1.64,19.05,19.05,0,0,1,1.63-1.49l1.75-1.33c.6-.4,1.22-.75,1.84-1.13a14.07,14.07,0,0,1,1.88-1c.63-.29,1.26-.63,1.91-.88,1.28-.49,2.56-1,3.86-1.38s2.56-.76,3.84-1.07c2.55-.65,5.07-1.14,7.55-1.62l4.06-.74a3.73,3.73,0,0,1,3.08.62,3.66,3.66,0,0,1,1.4,2.78l.21,2.06c.07.58.09,1.16.12,1.74.08,1.16.11,2.32.12,3.46,0,2.29-.09,4.54-.28,6.75a69.78,69.78,0,0,1-2.39,12.57,65.38,65.38,0,0,1-4.29,11L140.4,137l-.31.61-.21.35-.43.7-.22.37.34.17.72.35.37.18.57.26,2.28,1-2.39-.57-1.25-.31-1.38-.38-.38-.1-.2-.06-.1,0s-.06,0,0-.05l.24-.64c.18-.47.37-1,.55-1.44s.36-1,.53-1.46.33-.95.5-1.43a82,82,0,0,0,3-12.2,93.17,93.17,0,0,0,.91-20.12c0-.55,0-1.1-.08-1.63,0-.26,0-.53,0-.79l0-.38a.43.43,0,0,1,0,0,.18.18,0,0,0-.12-.28h-.13l-.17,0-.38.06-1.51.23c-2,.34-4,.65-6,1A53,53,0,0,0,124,103.72a21.75,21.75,0,0,0-8.62,6.55,27.22,27.22,0,0,0-4.49,9.72l-.33,1.31c-.16.63-.3,1.3-.4,1.94q-.32,1.94-.63,3.84l-.15,1,0,.23,0,.12-.08-.09-.3-.38-1.22-1.51c-.82-1-1.6-2-2.42-3-.18-.22-.52-.53-.63-.64l-.46-.46-.91-.92a16.32,16.32,0,0,0-2-1.68l-1-.79a7,7,0,0,0-1-.74l-2.15-1.32a31.82,31.82,0,0,0-9.32-3.29,42.44,42.44,0,0,0-9.65-.61L77,113l-1.19.11-2.36.22c-1.56.24-3.11.41-4.64.72s-3,.56-4.54.92-3,.69-4.44,1.06q-1.09.27-2.19.57l-1.67.45c-.22,0-.28.23-.33.41a2.09,2.09,0,0,0-.06.56,5,5,0,0,0,.1.76c.07.3.16.61.26.93.43,1.24,1.12,2.57,1.7,3.92l.94,1.86.46.93.54.89a54.89,54.89,0,0,0,29.53,24.49l2.08.7,2.13.54a41.12,41.12,0,0,0,4.27.82,18.74,18.74,0,0,0,2.08.2l2.32.15c.13,0,.09.13.13.21l.07.28.12.56c.08.35.16.7.23,1,.12.59.24,1.15.37,1.67C103.4,160.08,103.89,161.67,104.11,162.45Z"></path><path class="cls-4" d="M112.68,122.75c-.11-.09-.18-.51-.1-1.13a12.42,12.42,0,0,1,.65-2.2,29.34,29.34,0,0,1,2.32-4.22c2-3.37,5.61-6.29,9-8.37a34.72,34.72,0,0,1,9.32-4c3.06-.71,5.59-1.1,7.44-2.2a6.23,6.23,0,0,1-2.59,3.29,8.29,8.29,0,0,1-3.15,1.47,26,26,0,0,0-7.34,2,29,29,0,0,0-5.83,3.38,30.35,30.35,0,0,0-4.32,3.94,38.49,38.49,0,0,0-3.06,4A21,21,0,0,0,112.68,122.75Z"></path><path class="cls-4" d="M99.3,122.67c-.27.13-1.49-.58-3-1.3a24.2,24.2,0,0,0-4.13-1.7,40.44,40.44,0,0,0-11-1.61c-3.18,0-6.38.3-9.37.42a59,59,0,0,1-7.9-.11c1.78-1.53,5.39-2.86,6.74-2.77,5.44.33,10.21,0,14.45.57a26.64,26.64,0,0,1,10.63,3.37A16.31,16.31,0,0,1,99.3,122.67Z"></path><path class="cls-4" d="M173.17,117.75a1.87,1.87,0,0,0-2.16,1.33,1.15,1.15,0,0,0-.11.45.66.66,0,0,0,.77.61,5.35,5.35,0,0,0,3.85-2.28.87.87,0,0,0,.21-.57.54.54,0,0,0-.36-.43,2.45,2.45,0,0,0-2.77.58"></path><path class="cls-4" d="M172.59,117.43c-.07-.14.26-.6.86-.9a2.6,2.6,0,0,1,1-.26,3.19,3.19,0,0,1,1,.11,1.12,1.12,0,0,1,.91.86,1.51,1.51,0,0,1-.34,1.17,6.92,6.92,0,0,1-.67.87,6.29,6.29,0,0,1-1.47,1.19,5.29,5.29,0,0,1-1,.43,5,5,0,0,1-.58.14,3.37,3.37,0,0,1-.83,0,1.49,1.49,0,0,1-1.42-2,3.57,3.57,0,0,1,.32-.65,2.89,2.89,0,0,1,.38-.49,2.49,2.49,0,0,1,.8-.55,1.72,1.72,0,0,1,1.66.08,1.76,1.76,0,0,0-1,1.05c-.07.2-.12.35-.15.46s0,.09-.06.1a.28.28,0,0,0-.3.21.22.22,0,0,0,.2.28l.23,0,.41-.06a3.94,3.94,0,0,0,.77-.29,4.31,4.31,0,0,0,1.21-1l.24-.28a1.14,1.14,0,0,0,.12-.19.51.51,0,0,0,.12-.32c0-.19-.24-.24-.37-.28l-.21,0a2.1,2.1,0,0,0-.36,0,4.57,4.57,0,0,0-.84.07A4.69,4.69,0,0,0,172.59,117.43Z"></path><path class="cls-4" d="M145.87,142.56c-.15-.49,3-3.74,4-5.16a69.3,69.3,0,0,1,6.4-7.41,42.48,42.48,0,0,1,6.16-5.31,13.76,13.76,0,0,1,6.33-2.67l-2.21,2.54a9,9,0,0,1-1.94,1.8,34.08,34.08,0,0,0-9.24,7.27c-2.4,2.51-4.3,4.87-6.27,6.65A21.55,21.55,0,0,1,145.87,142.56Z"></path><path class="cls-4" d="M131.35,189.54a8.84,8.84,0,0,0,4.1,2.46c2.83,1.13,7.18,1.14,9.14-1.6,2.86-4-1.85-7.68-5.27-8.89a34.12,34.12,0,0,0-4.59-1,3.92,3.92,0,0,0-3.6,1.15C129.13,183.74,129.6,187.46,131.35,189.54Z"></path><path class="cls-4" d="M131.34,189.55a5.55,5.55,0,0,1-1.71-3.47,6.24,6.24,0,0,1,.29-3.09,4.87,4.87,0,0,1,1.51-2.12A4.28,4.28,0,0,1,135,180c1.12.17,2.3.29,3.51.57A12.23,12.23,0,0,1,142,182a11.2,11.2,0,0,1,2.87,2.35,5.86,5.86,0,0,1,1.41,3.06,4.81,4.81,0,0,1-.89,3.28,5.57,5.57,0,0,1-2.48,2.07,8.18,8.18,0,0,1-2.93.66,11.31,11.31,0,0,1-5.17-1.09,8.23,8.23,0,0,1-3.61-2.62,11.37,11.37,0,0,0,4.1,1.64,19,19,0,0,0,2.12.43c.63.08,1.16.11,1.53.16a6.57,6.57,0,0,0,4.13-.74,4,4,0,0,0,1.43-1.41,3.52,3.52,0,0,0,.62-1.83,4.78,4.78,0,0,0-1.54-3.41,11.36,11.36,0,0,0-3.06-2.16,11.81,11.81,0,0,0-3.35-1l-1.69-.27-.84-.14a3,3,0,0,0-.73,0,3.54,3.54,0,0,0-2.48,1.15,4.57,4.57,0,0,0-1.12,2.39,7.58,7.58,0,0,0,.14,3A7.24,7.24,0,0,0,131.34,189.55Z"></path><path class="cls-4" d="M126,182.49c.91-.62.92-2.39.37-3.29a3.2,3.2,0,0,0-2.07-1.33c-1.7-.37-3.11.65-2.42,2.56a3.78,3.78,0,0,0,1.69,1.9A2.31,2.31,0,0,0,126,182.49Z"></path><path class="cls-4" d="M126,182.5c0,.13-.57.56-1.36.45a4.78,4.78,0,0,1-1.91-.79,3.43,3.43,0,0,1-1.56-2.27,2.25,2.25,0,0,1,.26-1.62,2.29,2.29,0,0,1,1.32-1,3.66,3.66,0,0,1,2.5.21,3.25,3.25,0,0,1,1.74,1.66,3.38,3.38,0,0,1,.13,2.09,2.07,2.07,0,0,1-1,1.43c.49-1-.11-2.31-.14-2.73,0-.87-1-1.59-1.86-1.78A1.63,1.63,0,0,0,122,179a2.46,2.46,0,0,0,.59,2,4.74,4.74,0,0,0,1.58,1.19,3.84,3.84,0,0,0,1,.33A1.77,1.77,0,0,0,126,182.5Z"></path><path class="cls-4" d="M192.45,178.56c-14.11,8.78,5.81,13.42,10.15,2.48.63-5.52-7.23-4.83-10.17-2.27"></path><path class="cls-4" d="M192.42,178.76a6.12,6.12,0,0,1,3.07-1.78,9.14,9.14,0,0,1,5.11-.13,3.64,3.64,0,0,1,2.43,2.4,5.7,5.7,0,0,1,.17.9v.94c0,.13-.07.23-.1.32l-.08.2-.17.4a5.62,5.62,0,0,1-.4.77,10.45,10.45,0,0,1-5.07,4.48,11.63,11.63,0,0,1-5.63.92,7.76,7.76,0,0,1-2.77-.74,3.82,3.82,0,0,1-2.06-2.2,3.53,3.53,0,0,1,.44-2.82,8,8,0,0,1,1.57-1.84,17.25,17.25,0,0,1,3.39-2.21c-.72.86-1.86,1.95-2.71,3.08a6.27,6.27,0,0,0-1.35,2.7,1.62,1.62,0,0,0,.44,1.43,4,4,0,0,0,1.54,1A8.37,8.37,0,0,0,194,187a10,10,0,0,0,6.27-3,8.66,8.66,0,0,0,1.75-2.65l.15-.34c.05-.08,0-.14,0-.28a4.19,4.19,0,0,0,0-.71c0-.23-.09-.45-.14-.67s-.19-.39-.28-.58a3.33,3.33,0,0,0-2.12-1.32,8.64,8.64,0,0,0-2.53-.14,13.73,13.73,0,0,0-2.8.56,9.84,9.84,0,0,0-1.21.48Z"></path><g class="cls-3"><path d="M105,158.06a21.68,21.68,0,0,1,1.9,4.09c.48,1.14,1.13,2.43,1.77,3.85.31.72.68,1.44,1.09,2.18l1.2,2.27c.81,1.56,1.82,3.06,2.73,4.61s2,3,3,4.37,2,2.63,3,3.78,1.86,2.09,2.61,2.9a95.53,95.53,0,0,0,18.85,15.4c.44.28.87.57,1.32.83l1.36.77,2.72,1.53,2.8,1.37,1.4.68c.47.22,1,.4,1.42.6l2.84,1.2c1,.37,1.93.68,2.88,1,1.9.72,3.86,1.2,5.76,1.75,13.45,3.57,27.5,3.57,40,1.88a154.39,154.39,0,0,0,32.33-8.27,69.35,69.35,0,0,1-14.25,7.84c-1.36.54-2.71,1.09-4,1.55s-2.6.84-3.79,1.2a50.23,50.23,0,0,1-5.92,1.33,131.78,131.78,0,0,1-17,1.12A107,107,0,0,1,175,216.83a92.65,92.65,0,0,1-14.61-3.24c-.58-.18-1.16-.33-1.73-.52l-1.68-.61c-1.12-.42-2.25-.77-3.33-1.23-2.15-.93-4.29-1.79-6.29-2.85a86.76,86.76,0,0,1-20.91-14.45,78.19,78.19,0,0,1-14.07-17.21c-.82-1.43-1.76-3.14-2.65-5q-.6-1.39-1.23-2.82l-.59-1.4c-.17-.48-.34-.95-.5-1.42A71.29,71.29,0,0,1,105,158.06Z"></path></g><path class="cls-2" d="M173,158.3a31,31,0,0,0-11.44-8.09c-12.84-5.65-27.94-5.57-41.3-1.38a2.35,2.35,0,0,0-1.57,2.87c3.94,13.92,16.3,26.37,29.67,32.08,10.84,4.62,23.15,3.71,34.88,2.53"></path><path d="M183.2,186.35c-.53.39-5.89,1.22-12.18,1.57a75.25,75.25,0,0,1-9.62-.06,61.06,61.06,0,0,1-7.87-1.11A41.18,41.18,0,0,1,143.08,183a54.66,54.66,0,0,1-9.68-6.31,53.45,53.45,0,0,1-14.49-18,23.12,23.12,0,0,1-1-2.27c-.32-.77-.64-1.54-.89-2.34l-.39-1.19-.19-.59a4.93,4.93,0,0,1-.18-1.16,4.66,4.66,0,0,1,2.06-4,4.33,4.33,0,0,1,1-.52l.38-.13.29-.08,1.16-.34c.77-.24,1.55-.43,2.33-.62,1.55-.41,3.12-.71,4.68-1a61,61,0,0,1,18.36-.38,55.7,55.7,0,0,1,8.41,1.85,50.46,50.46,0,0,1,7.51,3,29.87,29.87,0,0,1,11,8.88,38.67,38.67,0,0,0-5.74-3.45,49.29,49.29,0,0,0-6.94-2.73c-4.76-1.48-9.29-2.26-11.66-2.81a55.64,55.64,0,0,0-27.83.71l-.79.21a1.26,1.26,0,0,0-.43.22,1.4,1.4,0,0,0-.51.79,1.92,1.92,0,0,0,.18,1.16c.15.51.31,1,.47,1.53.32,1,.75,2,1.13,3s.87,1.91,1.36,2.82a48,48,0,0,0,7,9.82,54.93,54.93,0,0,0,17.55,12.8A49.65,49.65,0,0,0,165.63,186c2.82.14,6.7.28,10.15.3Z"></path><g class="cls-3"><path d="M125.29,158.39c.37,0,1.82,1.89,3.58,4a53,53,0,0,0,5.13,5.42,69.62,69.62,0,0,0,7.43,5.69,45.79,45.79,0,0,0,8.41,4.13,70.66,70.66,0,0,0,15.07,3.21c4.85.6,9.31.78,12.89,1.16-3.14,1.42-9.44,2.39-11.69,1.91-9-1.38-16.67-3.55-22.85-6.93A46,46,0,0,1,129.33,165a34.85,34.85,0,0,1-2.48-3.75C126.1,159.93,125.49,158.77,125.29,158.39Z"></path></g><g class="cls-3"><path d="M101.26,150.7a14.33,14.33,0,0,1-4.47-.49c-1.13-.22-2.33-.48-3.42-.77s-2.08-.54-2.79-.72a40.82,40.82,0,0,1-14.81-7.31,64,64,0,0,1-9.8-9.35,77.6,77.6,0,0,1-6.59-8.82,26.8,26.8,0,0,1,8,5.91,54.06,54.06,0,0,0,6.8,7.93,40.1,40.1,0,0,0,7.25,5.61,42.65,42.65,0,0,0,7.19,3.5c2.31.92,4.55,1.57,6.61,2.28,1,.26,2.33.8,3.51,1.24S100.93,150.55,101.26,150.7Z"></path></g><path class="cls-5" d="M282.59,78.39c.79,2.13,1,6.74,2.15,8.72a4.92,4.92,0,0,0,2.1,1.83,12.12,12.12,0,0,0,5.93,1.43,19.46,19.46,0,0,0-5.93.69,5.25,5.25,0,0,0-2.47,1.26,6,6,0,0,0-1.22,3.6l-.7,6.13A43.59,43.59,0,0,0,282,97.5a9.81,9.81,0,0,0-1.7-4.64c-1.88-2.36-5.24-2.79-8.25-3l4.92-.65c1.76-.23,3.93-1.44,4.51-3.13,1.09-3.16,1.24-8.34,1.2-11"></path><path class="cls-6" d="M282.66,75a25.63,25.63,0,0,1,0,6.76c-.08.87-.2,1.77-.37,2.65-.09.45-.19.89-.32,1.32a4.18,4.18,0,0,1-.54,1.3,6.85,6.85,0,0,1-3.77,2.59c-.23.07-.47.12-.71.17l-.66.11-1.34.23-2.86.48,0-1.59a22.17,22.17,0,0,1,4.72.64,8.06,8.06,0,0,1,4.43,2.79A11.21,11.21,0,0,1,283,97.28c.19,1.59.37,3.17.56,4.72l-2.26-.07,0-.24.51-4.78c.09-.79.15-1.56.31-2.44a5.81,5.81,0,0,1,1.12-2.67,5.21,5.21,0,0,1,2.45-1.61,17.34,17.34,0,0,1,2.39-.59,19.52,19.52,0,0,1,4.68-.29h0a1.06,1.06,0,0,1-.06,2.12,12.83,12.83,0,0,1-5.31-1.14,9.92,9.92,0,0,1-2.26-1.36,4.93,4.93,0,0,1-1-1,5.6,5.6,0,0,1-.58-1.22,23.27,23.27,0,0,1-.82-4.39,29.46,29.46,0,0,0-.59-3.78c1.13,1.68,1.75,4.83,2.79,7.25a5.42,5.42,0,0,0,.43.8,2.45,2.45,0,0,0,.5.56,6,6,0,0,0,1.34.82,19.17,19.17,0,0,0,2.45.93,11,11,0,0,0,3,.55l0,1.9a17.48,17.48,0,0,0-4.8.22c-1.58.3-3.06.68-3.63,1.91a15.41,15.41,0,0,0-.87,4.31c-.18,1.49-.36,2.94-.53,4.35a.45.45,0,0,1-.9,0v0c-.18-1.69-.31-3.35-.55-5a8.15,8.15,0,0,0-1.7-4.12,7,7,0,0,0-3.64-2,23.31,23.31,0,0,0-4.13-.57.6.6,0,0,1,0-1.2h0l3.21-.45,1.55-.21a5.48,5.48,0,0,0,1.34-.33,5.68,5.68,0,0,0,2.21-1.41,2.87,2.87,0,0,0,.62-1q.22-.63.39-1.29A64.6,64.6,0,0,0,282.66,75Z"></path><path class="cls-5" d="M303.86,71.42c-.15,1.92-.26,4,.87,5.6,1.32,1.85,3.84,2.28,6.09,2.57a18.72,18.72,0,0,0-4.67.25,3.21,3.21,0,0,0-1.65.78,3.84,3.84,0,0,0-.74,2.5l-.25,4.6-.11-3.52a7,7,0,0,0-.22-1.83,4.55,4.55,0,0,0-2.88-2.7,13.33,13.33,0,0,0-4-.59c1.07-.25,2.19.06,3.27-.14A4.77,4.77,0,0,0,302.8,76a14.18,14.18,0,0,0,.87-4.44"></path><path class="cls-6" d="M303.68,71.6a4.31,4.31,0,0,1,.07,1.5,9.74,9.74,0,0,1-.63,3.09A5.61,5.61,0,0,1,300.66,79a4.47,4.47,0,0,1-1.73.48c-.53,0-1,0-1.33,0a5.09,5.09,0,0,0-1.18.17l-.12-1.32a15.8,15.8,0,0,1,3.44.21,6.25,6.25,0,0,1,3.44,1.86,4.64,4.64,0,0,1,1,1.9,9.32,9.32,0,0,1,.23,1.91c.05,1.15.11,2.28.17,3.4l-2.21,0c0-.56,0-1.1.06-1.64,0-1,.09-2.1.13-3.15a6.53,6.53,0,0,1,.33-1.86,3.25,3.25,0,0,1,1.48-1.77,5.67,5.67,0,0,1,1.8-.6,15.61,15.61,0,0,1,1.63-.18,26.88,26.88,0,0,1,3,.06l-.16,2.13a16.77,16.77,0,0,1-3.65-.89,5.54,5.54,0,0,1-3.82-5.58,15.59,15.59,0,0,1,.3-2.79c.38,1.39.64,3.58,1.68,4.81A6.88,6.88,0,0,0,308.5,78a20.73,20.73,0,0,0,2.44.66l.14,0a.91.91,0,0,1,.7,1.08.92.92,0,0,1-1,.72,21.15,21.15,0,0,0-3.6-.15c-1.16.1-2.25.28-2.6,1.09a10.62,10.62,0,0,0-.45,3.12c-.06,1.09-.13,2.15-.19,3.18a.45.45,0,0,1-.9,0c0-1.27-.09-2.5-.14-3.7a4.91,4.91,0,0,0-.25-1.59,3.06,3.06,0,0,0-.82-1.22c-1.51-1.41-3.66-1.45-5.61-1.51a.64.64,0,0,1-.11-1.27,21.41,21.41,0,0,1,3.05-.12,3.49,3.49,0,0,0,2.07-1,7.21,7.21,0,0,0,1.76-3C303.39,73.06,303.59,72,303.68,71.6Z"></path><path class="cls-5" d="M165.78,78c.8,2.13,1,6.74,2.15,8.72a5.07,5.07,0,0,0,2.1,1.84A12.13,12.13,0,0,0,176,90a19.78,19.78,0,0,0-5.93.69,5.19,5.19,0,0,0-2.46,1.27,5.93,5.93,0,0,0-1.23,3.6l-.7,6.13a38.73,38.73,0,0,0-.48-4.56,9.81,9.81,0,0,0-1.7-4.63c-1.88-2.37-5.24-2.8-8.25-3l4.92-.64c1.77-.23,3.93-1.45,4.51-3.14,1.09-3.15,1.24-8.34,1.2-11"></path><path class="cls-6" d="M165.85,74.6a25.71,25.71,0,0,1,0,6.77c-.08.86-.2,1.76-.37,2.65-.09.44-.19.88-.31,1.31a4.46,4.46,0,0,1-.55,1.3,6.87,6.87,0,0,1-3.77,2.6c-.23.06-.47.12-.71.16l-.66.12-1.34.23-2.86.47,0-1.58a22.05,22.05,0,0,1,4.72.63,8,8,0,0,1,4.43,2.8,11.14,11.14,0,0,1,1.8,4.82c.18,1.6.37,3.17.55,4.72l-2.25-.07,0-.23c.17-1.6.34-3.2.51-4.78.09-.79.15-1.57.31-2.44a5.89,5.89,0,0,1,1.12-2.68,5.19,5.19,0,0,1,2.45-1.6,17.41,17.41,0,0,1,2.39-.6,19.55,19.55,0,0,1,4.68-.29h0A1.06,1.06,0,0,1,176,91a12.83,12.83,0,0,1-5.31-1.14,9.92,9.92,0,0,1-2.26-1.36,4.93,4.93,0,0,1-.95-1,5.33,5.33,0,0,1-.58-1.21,23.36,23.36,0,0,1-.82-4.4,29.46,29.46,0,0,0-.59-3.78c1.13,1.69,1.75,4.84,2.8,7.26a5.28,5.28,0,0,0,.42.79,2.45,2.45,0,0,0,.5.56,6,6,0,0,0,1.34.82,20.56,20.56,0,0,0,2.46.94,11.25,11.25,0,0,0,2.95.54v1.9a18.36,18.36,0,0,0-4.81.22c-1.58.3-3.06.68-3.63,1.92a15.62,15.62,0,0,0-.87,4.31c-.18,1.48-.36,2.93-.53,4.34a.45.45,0,0,1-.51.39.44.44,0,0,1-.39-.4v0c-.19-1.69-.32-3.35-.55-4.94a8.28,8.28,0,0,0-1.71-4.13,7.09,7.09,0,0,0-3.64-2,24.28,24.28,0,0,0-4.13-.57.59.59,0,0,1-.56-.64.61.61,0,0,1,.52-.56h0l3.21-.45,1.55-.22a6,6,0,0,0,1.34-.32,5.74,5.74,0,0,0,2.21-1.42,2.83,2.83,0,0,0,.62-1q.23-.65.39-1.29A64.7,64.7,0,0,0,165.85,74.6Z"></path></svg>