<svg xmlns="http://www.w3.org/2000/svg" id="holiday1" viewBox="0 0 380 600"><defs transform="matrix(-1, 0, 0, 1, 380, 0)"><style>.cls-1{fill:#94e044;}.cls-2{fill:#010101;}.cls-3{fill:#fff;}</style></defs><path class="cls-1" d="M133.074,198.178c13.824-26.049,56.447-92.718,88.987-89.133,14.185,3.984,24.392,16.659,37.234,23.622,8,5.453,20.322,11.278,28.726,17.079,3.761,2.405,1.107,7.595-3.017,7.933-9.685-2.479-37.964-15.862-51.581-18.164-2.228-.377-3.076-.444-2.677,1.92.785,4.656,3.861,9.533,5.893,13.774a157.2,157.2,0,0,0,32.568,45.147" transform="matrix(-1, 0, 0, 1, 380, 0)"></path><path class="cls-2" d="M269.17,200.394c-.686-.306-3.546-2.727-7.393-6.695a141.833,141.833,0,0,1-13.19-15.914,158.623,158.623,0,0,1-12.4-20.421c-.868-1.74-1.672-3.312-2.543-4.9-.852-1.58-1.684-3.128-2.4-4.671-.365-.766-.69-1.541-.994-2.3-.16-.469-.319-.839-.475-1.374a15.65,15.65,0,0,1-.42-1.55c-.054-.253-.119-.509-.161-.756-.024-.24-.048-.479-.072-.715a4.91,4.91,0,0,1,.011-1.32,2.86,2.86,0,0,1,.392-1.139,1.847,1.847,0,0,1,.924-.713,5.148,5.148,0,0,1,1.989-.289c.749.039,1.49.219,2.247.324l1.139.185c.375.062.8.124,1.033.187l1.656.382c2.211.516,4.391,1.134,6.564,1.8,4.349,1.33,8.676,2.845,13.013,4.427s8.674,3.249,13.028,4.9c4.341,1.628,8.748,3.342,13.034,4.637l.787.217a1.968,1.968,0,0,0,.209.049,1.21,1.21,0,0,0,.144-.036c-.043-.009.129-.03.244-.111a2.5,2.5,0,0,0,1.162-1.109,1.657,1.657,0,0,0,.182-.569c-.027-.126-.009-.2-.063-.276-.009-.044-.057-.056-.067-.108-.088-.034-.045-.086-.183-.155-.076-.064-.717-.492-1.173-.787-3.837-2.5-7.881-4.732-11.965-6.978s-8.2-4.45-12.248-6.889c-1.011-.615-2.019-1.233-3.019-1.895l-.6-.39-.66-.372-1.577-.894c-2.046-1.245-4.027-2.544-5.9-3.9-6.574-4.714-12.439-9.874-18.763-13.645-.786-.48-1.591-.89-2.382-1.341-.8-.417-1.615-.785-2.419-1.183l-2.459-1-1.248-.4-.623-.2-.107-.036h-.054l-2.372-.1-2.5.2c-.834.126-1.668.322-2.5.471s-1.657.476-2.486.7c-6.62,2.147-12.768,6.192-18.348,10.651a144.883,144.883,0,0,0-15.491,14.6,312.409,312.409,0,0,0-24.983,31.056c-7.233,10.152-13.511,19.813-18.75,28.6,3.028-8.759,8.921-21.032,15.484-32.1,3.269-5.542,6.689-10.793,9.855-15.237a120.267,120.267,0,0,1,8.244-10.45c4.346-4.778,8.8-9.337,13.437-13.585a114.832,114.832,0,0,1,14.612-11.562,55.383,55.383,0,0,1,16.622-7.647l2.263-.415,1.128-.2,1.15-.081c.766-.048,1.529-.112,2.292-.141l2.3.13.6.036a1.921,1.921,0,0,1,.724.122l1.122.377c.7.247,1.419.453,2.089.76l2.033.86,1.958.977A90.77,90.77,0,0,1,243.794,120a157.957,157.957,0,0,0,12.808,9.524c.545.349,1.087.7,1.648,1.013l1.729,1,1.657,1.095,1.63,1.027c2.186,1.349,4.412,2.621,6.633,3.87,4.445,2.5,8.888,4.877,13.183,7.421,1.073.638,2.141,1.277,3.191,1.947.527.332,1.052.663,1.559,1.006s.987.627,1.653,1.156a4.98,4.98,0,0,1,1.741,4.542,6.423,6.423,0,0,1-2.279,3.973A7.214,7.214,0,0,1,287,158.748a7.5,7.5,0,0,1-1.217.335,2.348,2.348,0,0,1-1.254.038l-1.971-.553-1.717-.559c-2.276-.754-4.474-1.577-6.655-2.392-8.689-3.309-16.976-6.662-25.085-9.551-4.051-1.429-8.058-2.766-12-3.779l-1.443-.367-.853-.17a5.906,5.906,0,0,0-1.481-.2.422.422,0,0,0-.359.494,3.31,3.31,0,0,0,.089.672c.042.222.1.439.163.655l.109.349.179.52c1.28,3.519,3.343,6.943,5.033,10.564,1.651,3.486,3.395,6.856,5.206,10.114,1.74,3.086,3.866,6.7,6.209,10.4s4.926,7.461,7.486,10.888A180.092,180.092,0,0,0,269.17,200.394Z" transform="matrix(-1, 0, 0, 1, 380, 0)"></path><path class="cls-1" d="M265.487,226.969c-6.34,3.414-14.793-4.1-21.412-6.464-22.1-7.886-43.02-13.285-66.9-12.148-24.023,1.143-48.019,3.675-70.8,11.83,1.5-.536,1.933-17.28,3.172-19.956,4.516-9.748,15.92-15.335,25.91-18.134,36.139-10.125,81.943-18.583,116.355,1.119a155.773,155.773,0,0,1,25.466,18.072,126.55,126.55,0,0,1,11.138,11.04c1.657,1.868,5.441,6.789,2.936,6.851C274.836,219.593,269.987,224.546,265.487,226.969Z" transform="matrix(-1, 0, 0, 1, 380, 0)"></path><path class="cls-2" d="M265.462,226.922a23.606,23.606,0,0,1,2.087-1.58,37.986,37.986,0,0,1,4.679-2.9,33.9,33.9,0,0,1,7.393-2.694c.716-.18,1.453-.351,2.213-.483.758-.151,1.534-.291,2.331-.391.795-.117,1.6-.234,2.433-.3l1.06-.106c.305-.036.611-.052.917-.071l1.4-.087a.792.792,0,0,0,.643-.219.848.848,0,0,0,.033-.705,9.258,9.258,0,0,0-1.5-2.518c-.247-.322-.732-.927-1.165-1.423s-.925-1.025-1.4-1.535q-1.435-1.542-2.947-3.056a136.569,136.569,0,0,0-12.886-11.317,148.876,148.876,0,0,0-13.129-9.082,103.414,103.414,0,0,0-11.19-6.112,95.038,95.038,0,0,0-30.36-7.822,154.921,154.921,0,0,0-32.826.658,268.218,268.218,0,0,0-32.761,6.214q-4.032,1.013-8.026,2.1l-3.98,1.1-1.982.561-1.9.57a49.807,49.807,0,0,0-13.775,6.6,27.169,27.169,0,0,0-5.625,5.223,20.68,20.68,0,0,0-2.03,3.075l-.417.809-.1.184c-.022.041,0,.016-.008.025,0-.01-.023.081-.049.17-.109.442-.22,1.1-.311,1.743-.362,2.651-.591,5.512-.872,8.345l-.219,2.145-.1.926c0,.005,0,0,0,0h.005l-.013,0,2.771-.858c1.891-.524,3.77-1.088,5.664-1.558,3.78-.982,7.571-1.819,11.353-2.557,7.565-1.479,15.1-2.465,22.524-3.2s14.737-1.145,21.9-1.434c1.776-.088,3.611-.1,5.41-.141s3.6.035,5.383.053c3.565.151,7.089.364,10.548.773A172.113,172.113,0,0,1,234.8,215.2c2.885,1,5.695,2.05,8.436,3.1a36.027,36.027,0,0,1,4.158,1.8c1.312.7,2.561,1.416,3.77,2.126a48.916,48.916,0,0,0,7.095,3.659,13.319,13.319,0,0,0,3.509.816,7.411,7.411,0,0,0,3.256-.61,7.024,7.024,0,0,1-3.721,1.244,13.793,13.793,0,0,1-4.65-.639,98.017,98.017,0,0,1-9.772-3.894,36.858,36.858,0,0,0-5.179-1.664l-5.5-1.472c-3.695-.962-7.424-1.905-11.113-2.733-7.369-1.7-14.558-2.972-20.822-3.774-6.265-.824-11.6-1.174-15.284-1.459-1.737-.126-3.471-.247-5.2-.285-1.731-.083-3.457-.079-5.179-.074-3.461.013-6.972.135-10.412.249-6.9.265-13.679.707-20.329,1.4s-13.169,1.638-19.52,2.9c-3.172.649-6.308,1.349-9.392,2.146-1.535.423-3.082.79-4.59,1.257l-2.532.755c-1.126.347-2.228.722-3.323,1.085-.721-.343-1.448-.668-2.131-.96.08-.014.122-.092.154-.17a5.526,5.526,0,0,0,.1-1.546c0-.143-.01-.3-.021-.456l-.014-.235-.007-.118a1.2,1.2,0,0,0-.148-.067l-.611-.261c-.158-.01-.049-.178-.049-.281l.065-.348c.1-.468.148-.917.216-1.372l.158-1.225.217-1.866c.278-2.494.512-4.991.819-7.5.161-1.26.314-2.5.614-3.831a7.038,7.038,0,0,1,.337-1.1c.169-.4.313-.619.468-.93a16.524,16.524,0,0,1,.968-1.707,27.862,27.862,0,0,1,4.966-5.882,45.453,45.453,0,0,1,12.624-7.735,68.419,68.419,0,0,1,6.8-2.42c2.29-.673,4.522-1.273,6.773-1.881,17.94-4.817,35.391-8.324,52.3-9.323,16.856-1.034,33.295.613,47.806,6.079a77.493,77.493,0,0,1,10.415,4.757c3.316,1.789,6.419,3.715,9.473,5.695a143.388,143.388,0,0,1,16.876,12.853,109.869,109.869,0,0,1,9.357,9.267c.794.886,1.584,1.8,2.361,2.725.4.48.793.976,1.166,1.477l.677.938c.238.34.465.684.678,1.028a7.184,7.184,0,0,1,1.37,4.037,1.237,1.237,0,0,1-.457.906,1.868,1.868,0,0,1-.926.292l-2.045.313c-.482.01-.957.008-1.428.03l-1.33.062c-.7.032-1.4.052-2.086.123-1.377.1-2.715.268-4.014.452a36.31,36.31,0,0,0-7.051,1.783,38.035,38.035,0,0,0-5.242,2.44C267.3,225.971,266.189,226.581,265.462,226.922Z" transform="matrix(-1, 0, 0, 1, 380, 0)"></path><path class="cls-2" d="M232.041,144.295c-1.122.171-1.773-2.16-2.624-3.049a5.9,5.9,0,0,1-1.548-3,8.173,8.173,0,0,1,.225-3.961,7.176,7.176,0,0,1,1.712-2.925,7.07,7.07,0,0,1,2.439-1.657,6.081,6.081,0,0,1,4.687-.024,38.475,38.475,0,0,1-.068,3.934c-.077.966-.172,1.5-.5,1.4a3.306,3.306,0,0,0-3.085.345,2.466,2.466,0,0,0-.945,2.109c.063,1.564,1.063,2.819.95,4.288A6.04,6.04,0,0,1,232.041,144.295Z" transform="matrix(-1, 0, 0, 1, 380, 0)"></path><path class="cls-3" d="M285.214,190.732a10.164,10.164,0,0,1-1.78-2.991c-3.3-.282-6.918-.706-9.213-3.1-2.621-2.734-2.56-6.993-2.333-10.774a11.19,11.19,0,0,1-3.619-11.526c.654-2.258,2.034-4.3,2.356-6.628.216-1.562-.061-3.153.047-4.726.357-5.2,4.1-6.318,7.491-9.133,3.064-2.541,3.784-6.622,8.007-7.943a18.3,18.3,0,0,1,9.812.145,13.511,13.511,0,0,1,17.277,1.007,6.441,6.441,0,0,0,1.243,1.086,6.112,6.112,0,0,0,1.555.534A16.612,16.612,0,0,1,327.8,149.032a11.154,11.154,0,0,1,5.245,9.046A17.957,17.957,0,0,1,330.1,168.4a11.5,11.5,0,0,0-1.272,2.383,13.609,13.609,0,0,0-.366,3.5,15.531,15.531,0,0,1-6.438,11.633c-.952.673-1.983,1.24-2.864,2-.9.784-1.621,1.755-2.458,2.608a12.956,12.956,0,0,1-8.486,3.82c-3.065.158-6.122-.785-9.177-.5-1.6.151-3.158.638-4.762.765A11.025,11.025,0,0,1,285.214,190.732Z" transform="matrix(-1, 0, 0, 1, 380, 0)"></path><path d="M285.26,190.692c.5.081,2.062,1.693,4.974,2.578a9.981,9.981,0,0,0,5.019.187c.952-.189,1.982-.48,3.149-.67a16.545,16.545,0,0,1,3.612-.134c2.384.146,4.679.547,6.739.256a11.444,11.444,0,0,0,5.585-2.381,13,13,0,0,0,2.046-2.1c.335-.405.69-.832,1.087-1.254a11.528,11.528,0,0,1,1.292-1.172c.87-.676,1.644-1.164,2.226-1.637a12.36,12.36,0,0,0,1.5-1.429,13.828,13.828,0,0,0,3.3-7.315,14.955,14.955,0,0,0,.089-2.052,13.754,13.754,0,0,1,.182-2.958,10.155,10.155,0,0,1,1.276-3.1c.436-.748.732-1.309,1.049-1.986a13.731,13.731,0,0,0,1.393-7.873,8.838,8.838,0,0,0-1.3-3.385,7.251,7.251,0,0,0-1.085-1.309c-.1-.087-.2-.19-.3-.269l-.157-.123-.078-.063-.039-.031-.108-.07-.9-.573-1.007-.607-.593-2.247-.019-.07-.042-.127-.021-.057-.041-.113-.081-.227a4.309,4.309,0,0,0-.174-.45,12.388,12.388,0,0,0-.88-1.725,13.565,13.565,0,0,0-2.461-2.981,12.606,12.606,0,0,0-3.138-2.111,12.08,12.08,0,0,0-1.713-.655c-.319-.087-.5-.151-.984-.263a10.006,10.006,0,0,1-1-.3,7.152,7.152,0,0,1-1.052-.485,9.9,9.9,0,0,1-1.99-1.625c-.288-.227-.514-.475-.809-.668A8.663,8.663,0,0,0,308,136.1a10.179,10.179,0,0,0-6.8-.329c-.26.1-.531.178-.785.283-.244.124-.5.218-.741.349l-.347.2-.088.05c.058-.031-.214.114-.2.116l-.124.088-.5.348-.987.694-.494.347-.123.087c-.042.023-.1-.014-.143-.017l-.294-.07-2.349-.546-.7-.133-.5-.08a17.519,17.519,0,0,0-1.927-.184,10.818,10.818,0,0,0-3.428.379,3.747,3.747,0,0,0-1.965,1.34c-.709.793-1.523,2.16-2.731,3.663a15.6,15.6,0,0,1-2.2,2.215c-.721.577-1.431,1.078-2.1,1.536l-1.786,1.224a10.353,10.353,0,0,0-1.225,1.017,3.664,3.664,0,0,0-1.05,2.008,8.294,8.294,0,0,0-.127,1.563c0,.645.031,1.433,0,2.361a12.163,12.163,0,0,1-.465,3,17.845,17.845,0,0,1-.944,2.49,27.983,27.983,0,0,0-1.494,3.438,7.548,7.548,0,0,0-.268,2.906,8.741,8.741,0,0,0,.8,2.882,8.46,8.46,0,0,0,.76,1.263l.107.147a.865.865,0,0,0,.158.188l.586.584c.379.388.817.769,1.216,1.148q-.156,2.059-.308,4.075a18.731,18.731,0,0,0,.01,2.49,6.161,6.161,0,0,0,4.669,6.071,19.044,19.044,0,0,0,2.221.611c.152.036.471.1.747.138l.827.133.807.124.395.06c.129.022.276.021.344.118a17.442,17.442,0,0,0,.918,2.312,10.035,10.035,0,0,0,.71,1.2,7.725,7.725,0,0,1-1.237-.916,13.666,13.666,0,0,1-1.212-1.457c-.036-.095-.17-.058-.285-.044l-.342.041-.659.08c-.436.051-.817.1-1.234.139a17.569,17.569,0,0,1-2.678.04,9.477,9.477,0,0,1-5.79-2.248,11.371,11.371,0,0,1-3.332-5.97,23.151,23.151,0,0,1-.522-3.123c-.094-1.354-.174-1.145-.271-1.33a1.5,1.5,0,0,1-.249-.085l-.062-.027c-.021-.009-.02.008-.131-.111l-.5-.522A13.764,13.764,0,0,1,265.9,172.2a14.053,14.053,0,0,1-1.807-4.872,13.433,13.433,0,0,1-.014-4.583,12.435,12.435,0,0,1,1.082-3.343c.761-1.544,1.45-2.672,1.783-3.56a4.592,4.592,0,0,0,.335-1.305c.063-.533.075-1.209.1-2a16.223,16.223,0,0,1,.263-2.68,14.485,14.485,0,0,1,.343-1.412,11.661,11.661,0,0,1,.559-1.4,11.17,11.17,0,0,1,3.683-4.241c1.337-.959,2.549-1.629,3.595-2.34.268-.176.508-.357.759-.532.195-.166.4-.3.6-.5a10.8,10.8,0,0,0,1.174-1.278c.787-.967,1.585-2.181,2.7-3.364a11.205,11.205,0,0,1,1.932-1.636,9.531,9.531,0,0,1,2.339-1.094,18.287,18.287,0,0,1,8.812-.229l.515.1.317.073.533.142a1.13,1.13,0,0,0,.133.034l.113-.073.228-.149.23-.148.347-.187a14,14,0,0,1,4.074-1.5,16.4,16.4,0,0,1,4.218-.3,16.8,16.8,0,0,1,4.08.817,14.551,14.551,0,0,1,3.683,1.879c.276.208.562.4.826.624l.77.694c.258.231.476.478.632.621a2.4,2.4,0,0,0,.44.346,2.116,2.116,0,0,0,.357.16c.121.042.234.074.442.128.39.092.871.249,1.3.378a17.728,17.728,0,0,1,6.911,4.2,18.415,18.415,0,0,1,4.388,6.537c.085.2.147.412.221.617l.178.521c.068.218.112.45.193.653a7.249,7.249,0,0,1,1.315.958,13.037,13.037,0,0,1,1.575,1.7,13.555,13.555,0,0,1,2.067,4,15.724,15.724,0,0,1,.191,8.575,21.532,21.532,0,0,1-1.364,3.879c-.278.616-.59,1.209-.913,1.792l-.928,1.581a4.094,4.094,0,0,0-.472,1.14,7.227,7.227,0,0,0-.129,1.373c-.017.543,0,1.191-.067,1.883a14.987,14.987,0,0,1-.271,2.013,17.619,17.619,0,0,1-3.215,7.183,17.126,17.126,0,0,1-2.671,2.821,17.549,17.549,0,0,1-1.53,1.149l-1.374.9a8.684,8.684,0,0,0-1.039.8c-.31.284-.633.633-.986,1.027a17.748,17.748,0,0,1-2.606,2.519,14.7,14.7,0,0,1-6.681,2.858,14.137,14.137,0,0,1-3.877.087c-1.309-.137-2.589-.4-3.82-.613a17.93,17.93,0,0,0-3.583-.347c-1.182.033-2.5.268-3.858.332a11.038,11.038,0,0,1-6.875-1.988A10.864,10.864,0,0,1,285.26,190.692Z" transform="matrix(-1, 0, 0, 1, 380, 0)"></path></svg>