<svg xmlns="http://www.w3.org/2000/svg" id="new" viewBox="0 0 380 600"><defs transform="matrix(-1, 0, 0, 1, 380, 0)"><style>.cls-1{fill:#7a9299;}.cls-2{fill:#5349da;}.cls-3{fill:#172e35;}.cls-4{opacity:0.3;}.cls-5{opacity:0.6;}.cls-6{fill:#fff;}</style></defs><path class="cls-1" d="M284,199.753c-8.841-4.8-24.257-16.258-19.069-24.887,3.368-5.6,10.676-4.237,17.149-5.062,21.227-2.7,30.194,7.117,41.7,7.942,4.683,1.3,30.312-1.683,22.954-13.926s-40.555-45.773-53.666-51.4c-21.5-9.23-58.637-15.085-67.618-13.732-13.554,2.04-28.169,11.667-38.671,20.488-12.031,10.1-19.772,20.8-28.473,33.89-8.719,13.119-15.82,27.79-27.921,37.862C109.622,208.2,58.08,205.767,36.6,221.167a13.957,13.957,0,0,0,1.97,11.473c4.4,6,39.056,18.792,45.958,21.549,46.159,18.436,60.986,19.994,110.2,22.833,33.962,1.96,70.359,2.214,103.013-8.217a24.636,24.636,0,0,0,1.973-13.686,19.066,19.066,0,0,0,14.933,9.279c6.284.424,46.534-16.251,49.147-22.622,1.819-4.436.2-12.084-4.528-12.848C336.989,225.332,304.048,210.631,284,199.753Z" transform="matrix(-1, 0, 0, 1, 380, 0)" /><path d="M284.032,199.7c1.517.514,7.728,3.692,17.349,8.087a357.224,357.224,0,0,0,37.85,14.908c3.793,1.23,7.739,2.327,11.785,3.339,2.035.441,4.079.96,6.166,1.3l1.564.282c.271.052.5.085.806.152.329.08.661.161.987.257a6.683,6.683,0,0,1,3.074,2.416,13.551,13.551,0,0,1,1.78,10.508,7.051,7.051,0,0,1-.274.905,4.234,4.234,0,0,1-.445.969,4.675,4.675,0,0,1-.608.849,6.293,6.293,0,0,1-.651.7,32.691,32.691,0,0,1-5.622,4.108c-1.94,1.186-3.921,2.276-5.921,3.318a219.022,219.022,0,0,1-24.523,10.765c-2.071.753-4.143,1.469-6.246,2.1-1.051.319-2.11.614-3.2.864a12.327,12.327,0,0,1-3.612.41,20.544,20.544,0,0,1-9.511-3.248l-.443-.292-.364-.268c-.243-.176-.465-.375-.692-.564a10.7,10.7,0,0,1-2.029-2.439c-.056-.114-.016.044-.014.092l.027.208.046.414c.03.275.043.549.059.82a15.511,15.511,0,0,1-.023,1.6,22.515,22.515,0,0,1-2.144,7.613l-.143.333c-.067.089-.215.088-.318.136l-.681.218-1.359.418-1.981.606c-1.256.373-2.476.791-3.7,1.092-4.864,1.337-9.383,2.4-13.443,3.211-23.936,4.887-49.351,5.333-74.9,4.328-6.4-.256-12.806-.589-19.241-.94s-12.906-.755-19.408-1.289c-6.5-.566-13.036-1.23-19.568-2.248s-13.036-2.376-19.459-4.033-12.729-3.682-18.985-5.788c-6.224-2.174-12.409-4.435-18.514-6.831-12.123-4.723-24.451-9.229-36.424-14.724-3-1.386-5.98-2.83-8.957-4.524a35.025,35.025,0,0,1-4.538-3.023,15.564,15.564,0,0,1-1.217-1.113c-.224-.25-.444-.506-.657-.765s-.321-.451-.484-.681a15.915,15.915,0,0,1-1.478-2.784,17.883,17.883,0,0,1-1.282-5.93c-.026-.5-.022-1-.008-1.509l.046-.755c.011-.126.015-.252.032-.378l.054-.451c.089-.8.284-1.519.437-2.279l.262-1.122a5.5,5.5,0,0,1,.88-.7c.587-.43,1.364-.921,1.893-1.282.369-.246.736-.5,1.117-.706.757-.43,1.507-.884,2.271-1.289l2.3-1.155,2.328-1.031a119.1,119.1,0,0,1,18.828-5.8c6.266-1.451,12.488-2.651,18.617-3.84,5.36-1.043,10.687-2.076,15.922-3.271a141.332,141.332,0,0,0,15.316-4.252,52.845,52.845,0,0,0,13.538-6.663l1.423-1.095c.474-.39.946-.827,1.42-1.237.967-.807,1.838-1.742,2.758-2.611a76.6,76.6,0,0,0,5.057-5.792c6.418-8.138,11.511-17.569,17.53-26.72,5.952-8.992,12.186-17.994,19.739-26a118.223,118.223,0,0,1,12.035-11.115,129.234,129.234,0,0,1,13.236-9.394,86.254,86.254,0,0,1,14.613-7.317,60.6,60.6,0,0,1,7.987-2.382,33.923,33.923,0,0,1,4.335-.638,19.72,19.72,0,0,1,2.2-.07c.7.009,1.424-.018,2.086.031a148.677,148.677,0,0,1,15.7,1.683c5.122.777,10.166,1.761,15.167,2.83a198.293,198.293,0,0,1,29.264,8.491l3.536,1.447c.614.3,1.242.629,1.86.946a18.133,18.133,0,0,1,1.791,1c1.089.714,2.24,1.391,3.267,2.139l3.074,2.244c3.959,3.078,7.685,6.292,11.291,9.568,7.181,6.578,13.887,13.4,20.238,20.381,3.142,3.532,6.222,7.065,9.1,10.8.719.938,1.411,1.913,2.114,2.866s1.344,2.035,2.01,3.045a12.368,12.368,0,0,1,1.633,4.109,8.589,8.589,0,0,1-.545,4.973,10.263,10.263,0,0,1-2.82,3.678,17.357,17.357,0,0,1-3.387,2.17,31.651,31.651,0,0,1-6.915,2.371,47.53,47.53,0,0,1-6.935,1.05c-1.162.091-2.328.14-3.532.117-.6-.01-1.215-.04-1.863-.1-.329-.036-.667-.083-1.038-.152l-.3-.067c-.081-.018-.039-.01-.064-.019a.071.071,0,0,0,.031,0l-.22-.028a31.814,31.814,0,0,1-6.865-1.549c-2.161-.715-4.163-1.549-6.148-2.339a72.242,72.242,0,0,0-11.629-3.849,45.733,45.733,0,0,0-11.763-1.021c-.981-.017-1.959.133-2.935.19l-3.055.257c-2.1.144-4.116.145-6.023.258a16.449,16.449,0,0,0-5.2.969,6.246,6.246,0,0,0-3.362,3.019c-1.5,2.623-.093,6.14,1.973,8.959a41.317,41.317,0,0,0,7.583,7.62,69.57,69.57,0,0,0,8.8,5.985,65.893,65.893,0,0,1-8.706-4.892,44.291,44.291,0,0,1-8.412-7.074,18.329,18.329,0,0,1-3.241-4.909,8.424,8.424,0,0,1-.32-6.208,8.909,8.909,0,0,1,4.4-4.865,18.68,18.68,0,0,1,6.413-1.64c2.153-.239,4.3-.342,6.351-.63.988-.153,2.147-.295,3.235-.441l1.662-.211,1.681-.108a50.092,50.092,0,0,1,13.654.946,98.142,98.142,0,0,1,13.038,4.008,52.644,52.644,0,0,0,6.092,1.781l1.484.261c.493.083.979.094,1.467.148l.364.034c.016,0,.533.054.731.1l.324.057.29.027c.4.037.882.044,1.362.043a39.782,39.782,0,0,0,11.9-2.171,16.468,16.468,0,0,0,4.744-2.468,4.619,4.619,0,0,0,1.267-1.427,2.207,2.207,0,0,0,.274-1.206,4.489,4.489,0,0,0-.5-1.584l-.268-.467-.133-.239-.2-.291-.8-1.159c-.5-.77-1.127-1.54-1.715-2.3s-1.176-1.524-1.815-2.265l-1.855-2.218q-.959-1.084-1.9-2.151c-1.239-1.434-2.541-2.8-3.782-4.156-5.032-5.4-9.9-10.225-14.29-14.424s-8.312-7.766-11.554-10.579l-2.2-1.909-2.234-1.82c-1.478-1.251-3.011-2.316-4.518-3.461a41.747,41.747,0,0,0-4.533-2.784,22.86,22.86,0,0,0-2.5-1.132c-.877-.36-1.734-.751-2.626-1.085a186.321,186.321,0,0,0-21.875-6.761c-7.4-1.841-14.859-3.358-22.291-4.476-3.713-.582-7.43-1.015-11.08-1.276-.9-.044-1.835-.14-2.7-.124a22.147,22.147,0,0,0-2.554.048,18.7,18.7,0,0,0-2.534.349c-.87.12-1.728.381-2.593.566a71.794,71.794,0,0,0-19.647,8.836,125.209,125.209,0,0,0-17.314,13c-10.714,9.552-18.94,21.385-26.72,33.182-3.835,5.922-7.427,12.032-11.439,17.883a82.516,82.516,0,0,1-13.847,16.138,41.939,41.939,0,0,1-8.9,5.951,70.742,70.742,0,0,1-9.7,3.994A173.872,173.872,0,0,1,94.142,206.3c-13.2,2.737-26.319,4.674-38.732,8.229a92.287,92.287,0,0,0-9.057,3.121l-2.168.948-2.107,1.041c-.7.344-1.357.761-2.037,1.137a10.74,10.74,0,0,0-.988.606l-.684.454-.309.2-.077.052-.021.09-.042.181c-.059.24-.1.484-.133.729l-.053.443-.037.537c-.012.358-.029.717-.01,1.075a12.614,12.614,0,0,0,.825,4.173,11.407,11.407,0,0,0,.933,1.866,6.2,6.2,0,0,0,1.261,1.45,26.61,26.61,0,0,0,3.706,2.513,162.528,162.528,0,0,0,16.844,8.04c5.728,2.422,11.48,4.7,17.214,6.906l17.085,6.6c2.832,1.056,5.645,2.134,8.476,3.114l4.228,1.5,4.237,1.4c2.811.968,5.656,1.762,8.467,2.638,2.84.76,5.648,1.61,8.492,2.253,5.656,1.424,11.347,2.481,17.027,3.355,11.367,1.718,22.723,2.527,33.929,3.218,11.216.668,22.264,1.307,33.121,1.6s21.551.226,32.036-.345a238.43,238.43,0,0,0,30.72-3.6c2.5-.417,4.952-1.015,7.41-1.533,2.453-.543,4.86-1.221,7.278-1.818l3.57-1.061,1.2-.355.2-.059c.065-.022.146-.025.158-.107.054-.128.114-.253.163-.382s.1-.252.149-.394c.077-.215.188-.52.264-.78.173-.541.326-1.088.452-1.641.035-.156.062-.236.1-.454l.125-.687c.1-.443.141-.951.2-1.446a18.872,18.872,0,0,0,.028-3.279,6.491,6.491,0,0,0,1.53-1.753,4.387,4.387,0,0,0,.3-.732,2.007,2.007,0,0,0,.09-.348l.031-.169c.015-.042.006-.161.059-.079.651.633,1.479,1.175,3.609,1.207.272.365.541.653.812.983a9.923,9.923,0,0,0,.81.912c.549.45,1.072.98,1.639,1.363l.614.409c.16.115.338.2.5.3.335.206.681.392,1.034.564A16.312,16.312,0,0,0,313.025,262c.381.06.759.141,1.142.168l.572.06.38,0a15.22,15.22,0,0,0,2.215-.374c1.59-.365,3.218-.848,4.828-1.356,6.454-2.093,12.755-4.613,18.865-7.281,4.494-2,9.4-4.267,14.254-7.028,1.209-.693,2.41-1.421,3.561-2.2a15.761,15.761,0,0,0,2.961-2.469.878.878,0,0,0,.194-.27,2.013,2.013,0,0,0,.154-.271,6.972,6.972,0,0,0,.271-.823,8.962,8.962,0,0,0,.3-1.879,11.238,11.238,0,0,0-.417-3.915,6.733,6.733,0,0,0-1.812-3.114,3.33,3.33,0,0,0-1.36-.7,3.614,3.614,0,0,0-.5-.117l-.58-.117-1.16-.235-2.321-.474-2.294-.567-2.291-.572-2.264-.647c-6.03-1.727-11.888-3.792-17.479-5.946A355.707,355.707,0,0,1,284.032,199.7Z" transform="matrix(-1, 0, 0, 1, 380, 0)" /><path d="M336.349,173.566a9.344,9.344,0,0,0-.849-2.235,18.568,18.568,0,0,0-3.2-3.989,77.529,77.529,0,0,0-12.557-9.505c-1.262-.788-2.577-1.628-3.882-2.339a27.28,27.28,0,0,0-4.175-1.733c-2.892-.962-5.884-1.638-8.741-2.33a66.605,66.605,0,0,1-8.045-2.3c-2.42-.88-4.549-1.8-6.3-2.622A92.947,92.947,0,0,1,271,135.088l-4.2-3.34a12.138,12.138,0,0,0-1.954-1.378,2.845,2.845,0,0,0-1.74-.357,6.211,6.211,0,0,0-2.023.7c-.732.37-1.455.884-2.185,1.315a16.813,16.813,0,0,0-2.091,1.494l-1.017.788c-.322.284-.624.592-.938.886a31.779,31.779,0,0,0-6.28,8.185,41.3,41.3,0,0,0-3.675,9.7,43.169,43.169,0,0,0-1.255,10.234,45.27,45.27,0,0,0,1,10.058,63.958,63.958,0,0,0,6.215,16.422c.662,1.308,1.442,2.557,2.164,3.83.79,1.236,1.532,2.5,2.369,3.7,1.607,2.444,3.359,4.785,5.133,7.088,7.152,9.186,15.3,17.287,22.686,25.476,7.4,8.155,14.087,16.465,18.785,25.127a30.157,30.157,0,0,1,1.68,3.344,8.083,8.083,0,0,1,.642,4.011,8.916,8.916,0,0,1-1.431,3.614,33.922,33.922,0,0,1-2.048,2.808,38.592,38.592,0,0,1-9.566,8.512,44.37,44.37,0,0,0,8.385-9.464c1.212-1.944,2.683-4.109,2.538-6.108-.128-2-1.661-4.022-2.953-6.079-5.286-8.145-11.526-14.915-14.6-18.651-6.244-7.495-12.856-14.391-18.941-21.425a137.98,137.98,0,0,1-15.971-21.871,64.96,64.96,0,0,1-8.4-24,47.579,47.579,0,0,1,3.137-23.635c2.976-7.175,7.993-13.418,14.487-17.02a11.7,11.7,0,0,1,2.581-1.229,5.624,5.624,0,0,1,3.137-.163,7.681,7.681,0,0,1,2.656,1.372c.747.564,1.39,1.114,2.067,1.657,2.683,2.178,5.32,4.309,7.985,6.285a74.2,74.2,0,0,0,16.469,9.6c1.413.584,2.856,1.117,4.268,1.582s2.879.841,4.33,1.219c2.906.754,5.809,1.458,8.628,2.38a34.14,34.14,0,0,1,4.29,1.68,21.894,21.894,0,0,1,2.221,1.243l2.127,1.4a96.7,96.7,0,0,1,8.287,6.2,39.928,39.928,0,0,1,6.284,6.408,12.77,12.77,0,0,1,1.636,2.841A5.743,5.743,0,0,1,336.349,173.566Z" transform="matrix(-1, 0, 0, 1, 380, 0)" /><path class="cls-2" d="M277.248,243.478c8.564-1.428,13.225-4.033,20.326-7.615,1.743-.879,2.022-1.367,4.109-1.758,2.212-.413,7.733,6.993,6.782,8.425a20.973,20.973,0,0,1-9.81,7.056c-4.408,1.6-9.274,3.162-14.2,2.6s-9.305-4.264-7.21-7.371" transform="matrix(-1, 0, 0, 1, 380, 0)" /><path d="M277.273,244.831c.095.221-.394.949-.128,2a5.27,5.27,0,0,0,2.586,3.036,11.129,11.129,0,0,0,4.61,1.513,15.3,15.3,0,0,0,4.056-.159,35.344,35.344,0,0,0,5.476-1.5c.923-.326,1.851-.678,2.787-1.048l1.409-.566c.444-.194.885-.373,1.315-.589a22.283,22.283,0,0,0,4.791-3.1,17.053,17.053,0,0,0,1.951-1.931c.135-.169.281-.336.4-.5.087-.117.044-.063.059-.087l0-.018c-.006-.046,0,0-.05-.1a10.749,10.749,0,0,0-1.055-1.854,19.524,19.524,0,0,0-1.422-1.828,12.868,12.868,0,0,0-1.556-1.528,3.916,3.916,0,0,0-.664-.449c-.018-.015-.014-.008-.008-.017a7.348,7.348,0,0,0-.911.23,4.924,4.924,0,0,0-.829.372c-.631.36-1.581.858-2.26,1.166-1.463.7-2.909,1.384-4.352,2.027a50.649,50.649,0,0,1-8.521,3.045,39.512,39.512,0,0,1-7.62,1.1c1.878-1.145,4.583-2.447,7-3.745a61.943,61.943,0,0,1,5.932-2.981c1.3-.451,2.573-.941,3.829-1.448l1.869-.766c.629-.266,1.231-.5,1.775-.764a16.706,16.706,0,0,1,1.937-.871,8.675,8.675,0,0,1,1.077-.278l.544-.094a2.974,2.974,0,0,1,.727-.037,3.314,3.314,0,0,1,1.3.461,6.652,6.652,0,0,1,.9.64,13.589,13.589,0,0,1,1.437,1.405,22.587,22.587,0,0,1,2.276,3.043,14.735,14.735,0,0,1,.9,1.657,4.094,4.094,0,0,1,.464,2.16,3.033,3.033,0,0,1-.559,1.028c-.216.283-.388.49-.592.724q-.594.677-1.232,1.275a23.646,23.646,0,0,1-2.661,2.161,25.613,25.613,0,0,1-5.76,3.02,54.459,54.459,0,0,1-5.689,1.909,25.06,25.06,0,0,1-5.661.868,18.99,18.99,0,0,1-2.762-.134,12.165,12.165,0,0,1-2.659-.661,8.971,8.971,0,0,1-4.7-3.719,3.76,3.76,0,0,1-.5-2.689,1.6,1.6,0,0,1,.169-.5,2.293,2.293,0,0,1,.2-.394Z" transform="matrix(-1, 0, 0, 1, 380, 0)" /><path class="cls-2" d="M259.591,227.859c8.565-1.428,13.226-4.033,20.327-7.615,1.743-.879,2.022-1.367,4.108-1.758,2.212-.413,7.734,6.993,6.783,8.425a20.973,20.973,0,0,1-9.81,7.056c-4.408,1.6-9.274,3.162-14.2,2.6s-9.305-4.264-7.211-7.371" transform="matrix(-1, 0, 0, 1, 380, 0)" /><path d="M259.617,229.212c.094.221-.394.949-.128,2a5.264,5.264,0,0,0,2.585,3.035,11.125,11.125,0,0,0,4.611,1.514,15.307,15.307,0,0,0,4.056-.159,50.321,50.321,0,0,0,10.241-3.357,23.021,23.021,0,0,0,4.586-2.677,20.342,20.342,0,0,0,1.968-1.7c.3-.3.589-.6.858-.913l.381-.466.145-.2c.011-.014.006-.014.009-.022.005-.049,0-.015-.046-.114a10.883,10.883,0,0,0-1.055-1.854,19.524,19.524,0,0,0-1.422-1.828,12.868,12.868,0,0,0-1.556-1.528,3.916,3.916,0,0,0-.664-.449c-.018-.015-.015-.008-.008-.017a7.348,7.348,0,0,0-.911.23,4.854,4.854,0,0,0-.829.372c-.631.36-1.581.858-2.26,1.166-1.463.7-2.909,1.384-4.352,2.027a50.658,50.658,0,0,1-8.522,3.045,39.513,39.513,0,0,1-7.619,1.1c1.877-1.145,4.583-2.447,7-3.745a61.943,61.943,0,0,1,5.932-2.981c2-.69,3.944-1.486,5.846-2.276,1.012-.407,1.726-.739,2.754-1.25a7.675,7.675,0,0,1,1.652-.552c.3-.066.49-.1.851-.155a2.365,2.365,0,0,1,1.1.066,4.724,4.724,0,0,1,1.631.914,11.687,11.687,0,0,1,1.149,1.066,21.174,21.174,0,0,1,1.88,2.284A19.119,19.119,0,0,1,291,224.254c.108.218.211.441.307.671l.137.356c.048.138.094.294.134.442a1.98,1.98,0,0,1-.225,1.743,11.374,11.374,0,0,1-.768.988c-.239.286-.491.55-.744.812-.5.524-1.039,1-1.577,1.457a25.577,25.577,0,0,1-3.393,2.384,25.291,25.291,0,0,1-3.591,1.736c-1.178.459-2.345.9-3.51,1.288-4.62,1.557-9.435,2.378-13.7.862a8.969,8.969,0,0,1-4.7-3.719,3.764,3.764,0,0,1-.5-2.689,1.6,1.6,0,0,1,.169-.5,2.224,2.224,0,0,1,.2-.394Z" transform="matrix(-1, 0, 0, 1, 380, 0)" /><path class="cls-3" d="M265.785,172.25c-6.392-14.238-32.619,1.686-59.565-1.744-20.149-2.564-35.612-4.85-52.2-16.586-6.949,2.978-22.665,25.862-36.411,37.553l2.609,5.184C143.08,217.049,185.5,220.02,216.1,219.03c26.129-.846,51.366.933,67.992-18.6C275.26,191.838,265.478,184.58,265.785,172.25Z" transform="matrix(-1, 0, 0, 1, 380, 0)" /><path d="M265.846,172.251a5.707,5.707,0,0,1,.251,1.173c.036.288.078.621.125,1,.075.37.158.782.249,1.233a22.418,22.418,0,0,0,2.477,6.737,38.825,38.825,0,0,0,6.186,7.938c1.33,1.335,2.742,2.7,4.249,4.076l2.288,2.1,2.937,2.731.772.726.388.365c.119.06,0,.123-.048.186l-.173.188q-.7.754-1.4,1.516l-1.415,1.536a16.326,16.326,0,0,1-1.374,1.411l-2.537,2.255a11.587,11.587,0,0,1-1.336,1.051l-1.38,1-1.38.994c-.477.3-.972.576-1.457.865-.982.551-1.927,1.174-2.931,1.657l-3.008,1.408c-.993.474-2.034.787-3.033,1.181l-1.5.558c-.5.172-1.009.3-1.508.453l-2.955.863-2.887.655c-.942.227-1.867.422-2.774.562-1.811.32-3.532.635-5.144.824-1.61.225-3.108.428-4.468.558-4.809.562-9.7.85-14.639,1.106l-14.956.717a251.33,251.33,0,0,1-31.027-.411,172.2,172.2,0,0,1-31.136-5.087c-10.158-2.8-20.068-6.852-28.7-12.862-.923-.684-1.815-1.419-2.722-2.129l-1.354-1.076c-.422-.413-1.592-1.005-1.9-2.066l-2.069-4.069-1.45-2.862-.362-.716c.077-.191.339-.338.5-.509l1.108-.993,2.218-1.988,1.023-.923.556-.541c.739-.728,1.492-1.428,2.219-2.176l2.18-2.244,2.142-2.3c5.7-6.193,11.043-12.722,16.789-19.058,1.442-1.585,2.924-3.155,4.525-4.7.764-.776,1.688-1.535,2.541-2.295l.862-.65a12.842,12.842,0,0,1,1.277-.9l2.621-1.442.657-.36c.111-.114.215.013.321.064l.317.188,1.269.751c.837.5,1.683,1.123,2.478,1.648.8.573,1.641,1.072,2.468,1.591s1.655,1.03,2.509,1.491,1.679.971,2.551,1.387a84.538,84.538,0,0,0,21.606,7.462c3.714.8,7.442,1.471,11.164,2.057l5.56.857,2.744.4c.875.1,1.74.248,2.617.313a94.088,94.088,0,0,0,20.705-.683c6.749-.824,13.256-2.074,19.752-2.489a27.523,27.523,0,0,1,9.738.816,11.03,11.03,0,0,1,4.362,2.446,11.332,11.332,0,0,1,2.7,3.977,12.18,12.18,0,0,0-2.976-3.164,10.588,10.588,0,0,0-4.177-1.632,17.572,17.572,0,0,0-4.621-.133,40.46,40.46,0,0,0-4.794.715c-6.477,1.34-13.352,3.511-20.337,4.984a81.906,81.906,0,0,1-20.333,2.114q-1.176-.025-2.311-.132c-.747-.063-1.519-.118-2.177-.2l-3.863-.45c-2.432-.305-4.562-.641-6.292-.967-3.485-.679-6.953-1.413-10.385-2.265-3.432-.876-6.821-1.881-10.133-3.052a88.985,88.985,0,0,1-9.618-4.13,88.185,88.185,0,0,1-8.856-5.213c-.356-.229-.692-.487-1.039-.728l-.453-.344-.39-.3c-.033-.021-.066-.061-.1-.067l-.106.05-.214.1a2.169,2.169,0,0,0-.422.237l-.551.382c-.58.45-1.157.974-1.736,1.456-2.292,2.079-4.475,4.4-6.621,6.715l-12.6,14c-2.109,2.283-4.207,4.548-6.392,6.716-1.072,1.1-2.192,2.156-3.306,3.207l-.79.742-.554.482a10.992,10.992,0,0,0-1.06.977l1.442,2.927.37.747c.109.187.329.3.558.5l1.673,1.355,1.665,1.351c.55.456,1.181.806,1.765,1.212,1.2.778,2.363,1.589,3.568,2.332a101.4,101.4,0,0,0,31.076,11.176,193.078,193.078,0,0,0,31.044,3.518c2.524.071,5.025.187,7.51.18l3.709.03,3.68-.044c4.877-.054,9.683-.287,14.465-.426,9.514-.281,18.643-.464,27.259-1.61a81.268,81.268,0,0,0,12.4-2.651,54.482,54.482,0,0,0,11.029-4.909,53.689,53.689,0,0,0,4.922-3.571q.628-.513,1.272-1.04c.2-.165.471-.375.611-.5l.378-.362,1.629-1.557c.014-.017.046-.035.044-.051l-.041-.045-.084-.092-.169-.186-.347-.38-.734-.8-2.46-2.531c-1.721-1.77-3.409-3.589-4.943-5.441a30.619,30.619,0,0,1-6.348-11.189A21.67,21.67,0,0,1,265.846,172.251Z" transform="matrix(-1, 0, 0, 1, 380, 0)" /><g class="cls-4" transform="matrix(-1, 0, 0, 1, 380, 0)"><path d="M287.376,210.971a10.724,10.724,0,0,1,3,1.4c.783.445,1.69.983,2.7,1.6l1.653,1.022,2.13,1.356c-.09,1.136-.186,2.326-.284,3.558l-1.229-1.167a24.983,24.983,0,0,1,3.205-.448,9.437,9.437,0,0,1,3.659.416,7.347,7.347,0,0,1,.929.394,5.681,5.681,0,0,1,.919.6,5.334,5.334,0,0,1,1.358,1.73,6.049,6.049,0,0,1,.395,1.014l.126.531.043.29a2.248,2.248,0,0,1-.136,1.072,1.419,1.419,0,0,1-.4.562,1.2,1.2,0,0,1-.288.182c-.031.02-.149.057-.108.064l.187,0c.5.017.983.017,1.457,0a36.019,36.019,0,0,0,7.776-1.182l2.955-.843-.929,3.063c-.185.611-.379,1.2-.581,1.769l-.525,1.4c-.195.532-.382.98-.537,1.344s-.3.671-.463.971l-.088.161-.043.078c-.008.023.076,0,.109,0l.523-.045.974-.111c.616-.082,1.174-.181,1.665-.288l1.785-.3c.641-.113,1.281-.242,1.921-.38q1.918-.416,3.824-.971l5.425-1.586-2.091,5.389c-.214.553-.434,1.11-.7,1.649-.122.276-.264.54-.406.807l-.3.564-.215.4c-.063.107-.126.206-.19.3a2.571,2.571,0,0,1-.669.68,1.344,1.344,0,0,1-.24.124l-.056.021.125-.019.27-.046.929-.179c.334-.07.613-.138.846-.2l.168-.048,1.3-.215,2.614-.47q5.208-.982,10.227-2.3l3.315,6.51c-2.4,2.018-4.695,3.852-7.068,5.5a105.842,105.842,0,0,1-27.2,13.6A145.424,145.424,0,0,1,283.22,266.6a227.265,227.265,0,0,1-25.624,1.759c-7.962.123-15.269-.058-21.759-.328,5.724-1.9,14.162-3.649,22.071-5.114,7.921-1.439,15.287-2.7,19.208-2.938a132.1,132.1,0,0,0,36.08-6.793,91.1,91.1,0,0,0,28.809-16.038l1.355,2.661q-5.526,1.367-10.927,2.33l-2.689.458-1.446.224-1.856.258c-2.481.341-4.92.6-7.3.8a13.011,13.011,0,0,0-2.868-1.1l-.662-.157-.164-.04-.081-.02-.041-.01.035-.013.282-.1a4.491,4.491,0,0,0,1.043-.572,5.042,5.042,0,0,0,1.8-3.639c.533-.338,1.152-.689,1.618-1.018l1.012-.934a13.076,13.076,0,0,0,1.449-1.862l.289-.443.163-.3c.109-.2.222-.4.314-.605.2-.4.371-.822.541-1.236l2.375,2.71q-2.106.565-4.216.961c-.7.132-1.4.252-2.107.355l-1.051.146-.524.067-.649.07a56.372,56.372,0,0,1-6.067.275l-2.934-.027-1.483-.028a1.617,1.617,0,0,1-.337-.021l-.153-.093a2.616,2.616,0,0,0-.339-.187l2.27-3.268c.751-1.1,1.493-2.174,2.057-3.211a27.262,27.262,0,0,0,2.029-4.623l2.615,2.865a39.135,39.135,0,0,1-4.927.8l-1.225.1c-.53.028-1.1.066-1.691.074-1.177.031-2.323,0-3.422-.071a7.086,7.086,0,0,0-.454-.744,4.135,4.135,0,0,0-.432-.561c-.225-.314-.778-.624-.325-.612.164-.1.319-.272.414-.82a7.326,7.326,0,0,0,.027-1.707c-.02-.08.024-.169-.05-.243l-.244-.217c-.146-.137-.389-.323-.335-.363a2.991,2.991,0,0,0-.088-.447,2.224,2.224,0,0,0-1.124-1.409c-1.352-.808-3.591-.788-5.781-.6l-1.736.15.333-1.483.533-2.381c-.68-.591-1.323-1.156-2.245-1.907l-2.3-1.914Z" /></g><g class="cls-4" transform="matrix(-1, 0, 0, 1, 380, 0)"><path d="M243.569,209.459c.33-.693,4.346-1.63,8.8-3.222a42.439,42.439,0,0,0,6.486-2.752,8.409,8.409,0,0,0,3.626-3.44,6.19,6.19,0,0,0,.419-1.415l2.245,2.855a33.45,33.45,0,0,1-8.8.185l-6.668-.734,5.478-4.519a35.193,35.193,0,0,0,5.352-5.486l2.7,5.566c-3.433.295-6.841.551-10.17.792l-9.909.717,7.2-7.149c1.269-1.262,2.462-2.446,3.635-3.612l2.367-2.331,1.761,6.7a35.24,35.24,0,0,0-8.145-.843l-9.138.123,6.059-6.753q.862-.96,1.679-1.947l.8-.992c.093-.116.083-.1.083-.1h.01l.023-.006a1.5,1.5,0,0,0,.631-.552.264.264,0,0,0,.016-.3c-.059-.064-.212-.106-.5-.135l-.242-.019-.415.021-1.176.208-1.227.187a41.4,41.4,0,0,1-4.748.378,39.6,39.6,0,0,1-4.414-.152l-1.041-.114c-.154-.02-.37-.036-.609-.075a3.4,3.4,0,0,1-.652-.172c-.392-.143-.844-.488-.772-.778a.428.428,0,0,1,.318-.291.844.844,0,0,1,.316-.032c.217-.4.283-.242.357-.2a.9.9,0,0,0-.124-.174c-.011-.071-.081.072-.123.117-.057.1-.07.02-.1.015a1.115,1.115,0,0,0-.253-.145c-.12-.046-.165,0-.093.087a1.292,1.292,0,0,0,1.173,0L238.4,177.8l5.346-2.427,2.493-1.169c.2-.095.395-.188.588-.279l.289-.133.529-.215c.756-.311,1.445-.544,2.265-.917.794-.35,1.549-.639,2.328-1.017l1.124-.513.54-.241a2.82,2.82,0,0,1,.452-.111c.578-.118,1.114-.215,1.6-.29a4.1,4.1,0,0,1,.871.2,2.534,2.534,0,0,1,.9.444,4.257,4.257,0,0,1,.667.462,4.665,4.665,0,0,1,.9.884,3.66,3.66,0,0,1,.633,1.33,4.777,4.777,0,0,1-.075,2.49,10.953,10.953,0,0,1-1.123,2.765,53.4,53.4,0,0,1-4.283,5.789c-1.027,1.153-2.038,2.219-3.073,3.258l-1.552-3.341a43.1,43.1,0,0,1,9.6,1.45l2.9.783-2.183,1.957c-2.163,1.938-4.233,3.858-6.2,5.73l-1.119-2.654c3.524-.17,6.917-.39,10.177-.624l3.919-.281-2.54,3.12a37.077,37.077,0,0,1-6.379,6.169l-.81-3.579a37.077,37.077,0,0,0,7.723.235l3.107-.223-.879,3.057a9.346,9.346,0,0,1-1.774,3.324,12.123,12.123,0,0,1-2.551,2.3,19.97,19.97,0,0,1-5.445,2.5,34.768,34.768,0,0,1-7.963,1.406A42.785,42.785,0,0,1,243.569,209.459Z" /></g><g class="cls-4" transform="matrix(-1, 0, 0, 1, 380, 0)"><path d="M326.624,170.312a4.152,4.152,0,0,1-2.1.606,10.945,10.945,0,0,1-4.669-.662,11.819,11.819,0,0,1-2.786-1.466,13.578,13.578,0,0,1-2.541-2.408,11.558,11.558,0,0,0-2.29-2.241,3.311,3.311,0,0,0-.594-.292c-.1-.039-.213-.073-.322-.1l-.164-.039a1.8,1.8,0,0,1-.223-.232l-.115-.13a1.046,1.046,0,0,0-.137-.031l-.277-.051c-.181-.025-.365-.055-.538-.064a3.529,3.529,0,0,0-.965.032,1.449,1.449,0,0,0-.684.289c-.1.033-.149.222-.222.166l-.2-.377q-.406-.756-.842-1.5c-.024-1.474-.048-2.951-.071-4.417l1.993,1.322-5.032,2.261-3.006,1.342-1.484.665-.736.33c-.23.088-.542.292-.627.184.07-2.055.138-4.14.107-6,0-.472-.036-.921-.053-1.37-.015-.422-.061-.964-.083-1.174-.058-.558-.121-1.084-.195-1.574a55.659,55.659,0,0,0-1.319-6.4l4.451.485a31.737,31.737,0,0,1-4.984,8.358l-.408.481c-.2.234-.42.475-.647.705-.455.454-.894.957-1.372,1.38a33.091,33.091,0,0,1-2.906,2.437c-.99.733-1.97,1.412-3,2.121l-1.569,1.073-.807.547-.638.3c-.3-3.119-.571-6.438-.941-9.679l-.3-2.442-.2-1.387-.426-2.623c-.6-3.493-1.309-6.961-2.13-10.373l7.038-.5a36.1,36.1,0,0,1-2.462,10.975q-.519,1.29-1.115,2.535l-1.06,1.981-1.229,1.991c-.424.637-.868,1.229-1.3,1.845-.439.6-.889,1.134-1.334,1.7l-2.734,3.435-1.01,1.24-2.583-6.192a32.384,32.384,0,0,0-1.364-2.99l-.734-1.388-.376-.707-.1-.171-.047-.074-.094-.148c-.49-.8-1.015-1.569-1.56-2.324l-.842-1.114-.218-.267.009.013c.008.012,0,.007,0,.007-.021.007.011.032-.033-.031s-.086-.093-.107.016l-.007.024s0,.025,0,0l.033.465a13.678,13.678,0,0,1-.06,2.093,10.181,10.181,0,0,1-1.5,4.447,8.287,8.287,0,0,1-4.106,3.3,11.807,11.807,0,0,1-4.112.623l-2.859-.04c-.9,0-1.8.015-2.692.056q-2.678.111-5.281.434a65.616,65.616,0,0,0-10,2.03l-.822-5.666a157.132,157.132,0,0,1,28.092,4.757c-3.775.431-8.579.685-13.574.949l-14.756.748-1-6.908a40.089,40.089,0,0,1,12.2-3.254,74.444,74.444,0,0,1,9.395-.036,10.862,10.862,0,0,0,3.1-.017c.492-.124.863-.4,1.2-1.2a4.9,4.9,0,0,0,.3-1.372,7.631,7.631,0,0,0,.02-.79,4.286,4.286,0,0,0-.117-.851,6.888,6.888,0,0,0-.2-.874c-.34-1.166-.869-2.439-1.224-3.542a20.746,20.746,0,0,1-.756-2.859c-.278-1.568-.355-2.619-.488-3.913-.053-.638-.1-1.294-.1-2.042.014-.688-.075-1.828.347-1.814,2.525,1.688,4.66,3.174,6.778,4.853a42.334,42.334,0,0,1,6.09,6c.234.278.461.582.69.87.163.215.333.418.484.639l.924,1.3.869,1.325.812,1.35a26.031,26.031,0,0,1,1.556,3.279c.053.126.1.273.158.383l.261-.315c.178-.208.344-.426.508-.645.331-.436.639-.891.929-1.356s.554-.936.827-1.464l.519-1.075.5-1.148a30.262,30.262,0,0,0,2.218-9.469l3.154-.223q1.293,5.578,2.16,11,.206,1.356.41,2.7.137.965.272,1.918.2,1.413.334,2.684a.986.986,0,0,0,.043.267l.265-.187c.177-.122.346-.251.513-.379.334-.254.65-.519.95-.787s.581-.542.849-.818l.387-.418.56-.638a28.7,28.7,0,0,0,4.422-7l2.655-5.987,1.45,6.434a52.214,52.214,0,0,1,1.13,7.566l.062.936.033.683.016.788c0,.524-.021,1.048-.063,1.577-.048.151.106.015.167.011l.243-.1.488-.193.987-.384,3.567-1.405,3-1.182-.139,3.081-.025.56c-.02.526-.042,1.087-.074,1.877l-.082.977c-.134.635.152.052.486.021a1.608,1.608,0,0,1,.784,0,2.133,2.133,0,0,1,.214.057l.356.115a6.122,6.122,0,0,1,.959.416,8.374,8.374,0,0,1,2.673,2.573c.642.893,1.144,1.739,1.727,2.419a10.413,10.413,0,0,0,1.965,1.814,11.488,11.488,0,0,0,4.3,1.866A11.833,11.833,0,0,0,326.624,170.312Z" /></g><path class="cls-2" d="M257.712,157.282c-7.142-4.938-12.3-6.314-19.893-8.687-1.862-.582-2.4-.426-4.172-1.6-1.876-1.243-.682-10.4,1-10.77a20.986,20.986,0,0,1,11.955,1.766c4.282,1.918,8.858,4.188,12,8.02s3.711,9.539.044,10.311" transform="matrix(-1, 0, 0, 1, 380, 0)" /><path d="M258.635,156.293c.087-.225.944-.407,1.484-1.345a5.274,5.274,0,0,0,.257-3.979,11.129,11.129,0,0,0-2.255-4.3,15.252,15.252,0,0,0-3.022-2.709,50.239,50.239,0,0,0-9.688-4.721,22.954,22.954,0,0,0-5.156-1.272,20.374,20.374,0,0,0-2.593-.154c-.426,0-.844.025-1.252.059l-.6.069-.241.041c-.018,0-.014.006-.022.009-.037.033-.013.009-.046.114a10.74,10.74,0,0,0-.529,2.042,19.423,19.423,0,0,0-.255,2.279,13.422,13.422,0,0,0,.042,2.168,4.474,4.474,0,0,0,.164.81c.025.091,0,.03.009.054-.066-.04.145.1.227.145l.318.187a4.52,4.52,0,0,0,.592.276c.374.147.991.286,1.649.48.679.2,1.227.4,1.808.593l1.719.587c2.278.788,4.5,1.6,6.589,2.542a39.467,39.467,0,0,1,10.2,6.542c-2.145-.485-4.994-1.434-7.634-2.188a62.123,62.123,0,0,1-6.334-1.99c-1.81-.846-3.652-1.594-5.459-2.311l-1.338-.525c-.417-.162-.828-.3-1.3-.445a9.266,9.266,0,0,1-1.5-.587c-.246-.124-.474-.26-.693-.4l-.319-.21-.362-.251A3.067,3.067,0,0,1,232,146.025a9.044,9.044,0,0,1-.2-1.708,21.158,21.158,0,0,1,.809-6.153,8.257,8.257,0,0,1,.6-1.525,2.035,2.035,0,0,1,1.428-1.192,11.2,11.2,0,0,1,1.24-.174c.37-.039.736-.053,1.1-.065a21.235,21.235,0,0,1,2.148.052,25.046,25.046,0,0,1,7.883,1.907c1.165.491,2.308.989,3.416,1.519,4.4,2.1,8.426,4.863,10.427,8.916a8.974,8.974,0,0,1,.786,5.943,3.771,3.771,0,0,1-1.517,2.275,1.616,1.616,0,0,1-.471.243,2.279,2.279,0,0,1-.418.143Z" transform="matrix(-1, 0, 0, 1, 380, 0)" /><g class="cls-5" transform="matrix(-1, 0, 0, 1, 380, 0)"><path class="cls-6" d="M152.527,163.819c.416.277.34,2.379-.241,4.739a58.155,58.155,0,0,1-2.148,6.406,24.816,24.816,0,0,1-4.372,7.635c-.487.59-1,1.162-1.534,1.715l-.816.814a.915.915,0,0,1-.033.1c-.042.051.036.134.07.168a.215.215,0,0,1,.034.03l.019.02c0,.008,0,0,.014.02l.048.1.42.9a7.83,7.83,0,0,1,.828,3.567,4.825,4.825,0,0,1-.425,1.7,6.224,6.224,0,0,1-1.006,1.422,5.286,5.286,0,0,1-2.479,1.306,11.374,11.374,0,0,1-1.474.235l-.839.085-1.481.134-.151.012-.005-.006-.012-.012-.036-.026a1.338,1.338,0,0,0-.358-.128c-.068-.01-.271-.078-.273-.036a.258.258,0,0,0-.1.109.777.777,0,0,0-.031.481,1.742,1.742,0,0,0,.137.425l.65.945c.87,1.238,1.764,2.365,2.618,3.4a10.54,10.54,0,0,1-6.076-1.31,2.4,2.4,0,0,1-.387-.231l-.489-.374c-.327-.245-.653-.541-.977-.84a17.365,17.365,0,0,1-1.735-1.846,14.906,14.906,0,0,1-1.965-3.007q-.225-.523-.449-1.041l-.221-.508-.055-.125-.013-.031.045,0,.089-.008.354-.031,2.668-.228c1.607-.173,3.429-.157,4.932-.217l1.124-.036.7.006,1.359,0,.305,0,.172.013c.116.006.237.011.359.006a1.543,1.543,0,0,0,.717-.174,1.01,1.01,0,0,0,.512-.889,3.136,3.136,0,0,0-.238-1.054l-.311-.781-.172-.433-.2-.563a6.613,6.613,0,0,1-.368-2.315v-.291l.21-.2.419-.39.831-.783.357-.334.287-.277c.189-.187.383-.365.564-.555a30.11,30.11,0,0,0,2-2.32,52.462,52.462,0,0,0,5.409-9.256c.433-.935,1.166-2.173,1.819-3.313S152.315,164.158,152.527,163.819Z" /></g></svg>