<svg xmlns="http://www.w3.org/2000/svg" id="outfits_1" viewBox="0 0 380 600"><defs transform="matrix(-1, 0, 0, 1, 380, 0)"><style>.cls-1{opacity:0.5;}.cls-2{fill:#fff;}.cls-3{fill:#fffffe;}</style></defs><path d="M252.269,224.49c7.521-11.48,7.8-1.046,9.416-20.575-5.354-5.244-47.57-11.762-58.221-10.311-11.955-.283-29.813,8.617-39.729,3.313l0,.023c-6.783-1.024-17.6-10.081-24.909-11.8-7.317-3.346-40.732-6.788-47.294-3.093-2.979,15.887,2.513,7.151,2.573,20.333.141,30.609,37.8,63.729,60.267,15.156,4.7-10.156,4.474-10.994,11.923-9.3,6.631,2.492,7.556,4.427,8.195,14.5C177.723,273.822,241.241,254.767,252.269,224.49Z" transform="matrix(-1, 0, 0, 1, 380, 0)" /><path d="M252.328,224.511a7.493,7.493,0,0,1-.34,1.4,15.621,15.621,0,0,1-1,2.605q-.369.774-.8,1.679c-.319.586-.7,1.188-1.093,1.84l-.611,1-.724,1c-.512.668-.993,1.419-1.6,2.108-4.622,5.732-12.5,11.928-22.24,15.836a55.069,55.069,0,0,1-15.6,3.789,36.585,36.585,0,0,1-15.937-1.915,29.539,29.539,0,0,1-6.852-3.584c-.98-.783-1.953-1.557-2.847-2.37-.82-.887-1.688-1.708-2.41-2.607-.679-.929-1.383-1.814-1.987-2.72l-1.581-2.739c-.469-.9-.819-1.814-1.211-2.669-.185-.431-.383-.85-.547-1.267q-.207-.638-.406-1.244l-.7-2.155c-.255-.717-.353-1.462-.536-2.2l-.487-2.22c-.172-.743-.217-1.494-.33-2.244-.457-3.059-.57-5.93-1.071-8.605a10.555,10.555,0,0,0-1.091-3.342,5.317,5.317,0,0,0-2.246-1.908c-.544-.271-1.144-.529-1.779-.776l-.817-.3-.33-.061-.53-.105c-.694-.13-1.368-.239-1.961-.3-.281-.025-.556-.022-.752-.028a1.46,1.46,0,0,0-.357.066,1.2,1.2,0,0,0-.547.4c-.028.026-.114.171-.172.248a2.906,2.906,0,0,0-.205.3c-.147.272-.3.479-.451.8-.611,1.16-1.214,2.551-1.824,3.932s-1.213,2.794-1.925,4.233-1.329,2.885-2.155,4.271c-.792,1.4-1.534,2.824-2.469,4.166l-1.343,2.042c-.473.668-1,1.31-1.5,1.966a38.9,38.9,0,0,1-7.091,7.168,26.914,26.914,0,0,1-9.376,4.8,24.478,24.478,0,0,1-10.751.564,28.78,28.78,0,0,1-9.877-3.692,39.568,39.568,0,0,1-7.974-6.357c-1.2-1.189-2.25-2.483-3.311-3.769-.986-1.339-1.982-2.669-2.837-4.084a50.386,50.386,0,0,1-7.03-18.27c-.162-.8-.22-1.627-.332-2.438l-.143-1.221-.062-1.233-.109-2.354c-.041-.646-.021-1.358-.106-1.947a12.711,12.711,0,0,0-.208-1.522,5.953,5.953,0,0,0-.141-.66l-.167-.541c-.074-.13-.125-.27-.189-.4l-.119-.189-.054-.1-.1-.138a16.115,16.115,0,0,1-1.356-2.067A8.255,8.255,0,0,1,87,192.749l-.21-.813-.1-.715a17.22,17.22,0,0,1-.126-2.6c.04-.755.089-1.5.153-2.234l.263-2.092c0-.119.1-.494.154-.769l.2-.885.391-1.769c.134-.587.252-1.186.4-1.763l1.678-.791a16.819,16.819,0,0,1,3.536-1.2l1.24-.231,1.088-.156a67.259,67.259,0,0,1,8.219-.434,155.99,155.99,0,0,1,15.706.911,131.668,131.668,0,0,1,15.479,2.46,37.856,37.856,0,0,1,4.061,1.162c.344.112.747.283,1.134.446a.939.939,0,0,0-.167-.055l.537.154a19.988,19.988,0,0,1,2.14.732,55.727,55.727,0,0,1,7.195,3.614l6.376,3.735a46.272,46.272,0,0,0,5.981,3c.444.139.92.33,1.317.419l.295.065.236.056a4.38,4.38,0,0,0,.5.087l.221.033c.046.008.074.01.058.006l.1.049.4.193.6.289a10.9,10.9,0,0,0,2.5.793,23.443,23.443,0,0,0,6.124.164,115.759,115.759,0,0,0,13.474-2.423c4.605-.96,9.281-2.015,14.428-2.05l.486.007.242,0c-.062,0-.009,0-.009,0s.073,0-.013,0l.219-.02.5-.045c.661-.051,1.279-.066,1.9-.081,1.225-.011,2.415.015,3.581.073,2.335.112,4.609.3,6.851.542a238.4,238.4,0,0,1,25.625,4.259c4.075.922,8.051,1.918,11.925,3.152a50.292,50.292,0,0,1,5.755,2.182,9.08,9.08,0,0,1,.876.435l.94.53a6.249,6.249,0,0,1,.861.6c.276.208.554.41.813.644l.394.337c.053.06.158.1.168.178l-.018.244-.075.974q-.075.963-.15,1.92c-.09,1.4-.227,2.206-.351,3.16-.115.93-.277,1.875-.421,2.8-.179.948-.321,1.865-.6,2.852a10.886,10.886,0,0,1-.5,1.5,5.2,5.2,0,0,1-.4.8,3.527,3.527,0,0,1-.532.761,3.738,3.738,0,0,1-.647.653l-.347.288-.306.211-1.1.739a13.263,13.263,0,0,0-1.833,1.531,30.3,30.3,0,0,0-3.156,3.757l1.035-2.047c.41-.653.782-1.389,1.274-2.037a14.25,14.25,0,0,1,1.6-1.949c.584-.634,1.34-1.164,1.916-1.864a5.154,5.154,0,0,0,.922-2.491c.131-.908.18-1.848.232-2.8.018-.962.065-1.921.062-2.909.006-.969.03-2.06,0-2.752l-.033-1.128c-.009-.181,0-.367-.026-.536l-.456-.283a7.974,7.974,0,0,0-.948-.4c-.162-.056-.3-.11-.473-.158l-.667-.22a56.988,56.988,0,0,0-5.882-1.451c-4.045-.81-8.208-1.431-12.318-1.974-8.222-1.074-16.27-1.83-23.2-2.269-3.455-.213-6.653-.341-9.334-.308-.67.008-1.3.03-1.871.067-.308.007-.534.049-.8.067l-.419.041a3.135,3.135,0,0,1-.484.018l-.542,0c-1.053-.014-2.074.034-3.014.1a101.8,101.8,0,0,0-11.853,1.865,108.269,108.269,0,0,1-12.551,1.94,33.165,33.165,0,0,1-6.722-.134,19.916,19.916,0,0,1-3.473-.783,18.29,18.29,0,0,1-1.717-.652l-.419-.209-.1-.052-.03-.018-.053-.033c-.03-.013-.068-.052-.092-.044l-.053-.017-.027-.008s.072.018.034.009a25.675,25.675,0,0,1-6.273-2.473c-1.863-.973-3.58-2.025-5.285-3.055a104.117,104.117,0,0,0-9.923-5.676c-.41-.2-.814-.359-1.218-.519a9.458,9.458,0,0,0-1.2-.424l-.835-.257-.722-.311c-.389-.148-.777-.305-1.208-.435a52.942,52.942,0,0,0-5.336-1.363,156.606,156.606,0,0,0-22.068-2.777,87.972,87.972,0,0,0-10.781-.017c-.873.07-1.733.162-2.57.288l-.605.109a3.855,3.855,0,0,0-.4.081,5.933,5.933,0,0,0-.769.215,2.6,2.6,0,0,0-.371.151,1.159,1.159,0,0,0-.176.089l-.037.2-.149.817-.074.409-.038.206-.043.313-.175,1.285a13.49,13.49,0,0,0,0,4.651,5.655,5.655,0,0,0,1.059,1.835,9.12,9.12,0,0,1,1.379,2.827c.072.246.153.494.213.738l.136.722a10.72,10.72,0,0,1,.208,1.425c.042.466.1.938.127,1.4l.041,1.371q.048,1.29.1,2.576a23.166,23.166,0,0,0,.21,2.5,43.76,43.76,0,0,0,6.687,18.441c3.5,5.433,8.112,10.155,13.61,12.9a22.021,22.021,0,0,0,8.6,2.393,19.163,19.163,0,0,0,8.52-1.481,23.981,23.981,0,0,0,7.274-4.753l.818-.729c.269-.246.5-.534.758-.8l1.495-1.611c.477-.556.91-1.156,1.367-1.728.437-.591.934-1.126,1.318-1.759a65.161,65.161,0,0,0,4.478-7.549c.633-1.324,1.292-2.6,1.9-3.946s1.23-2.717,1.842-4.067a21.536,21.536,0,0,1,2.46-4.281,6.389,6.389,0,0,1,2.627-1.9,7.938,7.938,0,0,1,3.054-.317,21.356,21.356,0,0,1,2.4.346l1.1.226c.14.036.486.087.723.171l.635.245a18.306,18.306,0,0,1,4.329,2.222,9.638,9.638,0,0,1,1.978,1.947,10.555,10.555,0,0,1,1.275,2.394A21.176,21.176,0,0,1,176.3,217.6q.27,2.191.409,4.295c.105,1.406.279,2.663.409,3.994a36.879,36.879,0,0,0,4.691,14.38,24.371,24.371,0,0,0,10.532,9.369A32.415,32.415,0,0,0,206.12,252.3c8.952.034,21.372-3.691,30.507-10.048a48.21,48.21,0,0,0,11.02-10.012A37.06,37.06,0,0,0,252.328,224.511Z" transform="matrix(-1, 0, 0, 1, 380, 0)" /><g class="cls-1" transform="matrix(-1, 0, 0, 1, 380, 0)"><path class="cls-2" d="M96.436,205.551c1.718.671,3.287-1.181,4.312-2.728,4.559-6.885,10.853-12.372,17.075-17.761C105.126,185.171,97.31,191.2,96.436,205.551Z" /><path class="cls-3" d="M96.4,205.549c-.277-.27-.336-2.768.184-5.632a25.3,25.3,0,0,1,1.194-4.285c.29-.659.511-1.317.805-1.873s.553-1.063.761-1.495a16.466,16.466,0,0,1,7.959-7.08l1.292-.532c.436-.157.88-.277,1.322-.415l.682-.2a9.451,9.451,0,0,1,1.113-.214l2.323-.378a17.28,17.28,0,0,1,2.215-.218l2.163-.136,4.532-.237.538-.023-6.308,5.552-4.532,4.044c-2.009,1.815-3.91,3.613-5.667,5.379s-3.342,3.519-4.751,5.212c-.345.4-.713.876-1.122,1.317a9.218,9.218,0,0,1-1.332,1.206,4.606,4.606,0,0,1-1.694.8,2.7,2.7,0,0,1-1.861-.234,2.466,2.466,0,0,0,1.568-.538,4.035,4.035,0,0,0,.965-1.232,12.786,12.786,0,0,0,.664-1.488l.292-.791c.118-.287.235-.571.351-.85a15.815,15.815,0,0,1,3.144-4.961c2.488-2.242,4.914-4.234,7.223-6.126l1.711-1.4,1-.767c.667-.52,1.372-1.093,2.04-1.65l.118-.1c.031-.029.115-.08.031-.064l-.279.006-.569.016a9.76,9.76,0,0,0-1.145.091,14.389,14.389,0,0,0-2.2.411,17.451,17.451,0,0,0-5.818,2.609,16.023,16.023,0,0,0-4.023,4.05c-.262.374-.474.779-.715,1.156a8.2,8.2,0,0,0-.635,1.172c-.19.4-.4.783-.578,1.179q-.243.607-.482,1.2c-.442,1.159-1.056,2.779-1.518,4.268C96.872,203.78,96.568,205.117,96.4,205.549Z" /></g><g class="cls-1" transform="matrix(-1, 0, 0, 1, 380, 0)"><path class="cls-2" d="M205.7,197.3c-2.734-.589-8.21.371-11.1.694-7.1.794-9.517,5.9-10.5,12.519-.327,2.209-.374,5.014,1.584,6.046q9.982-7.232,19.376-15.249a4.568,4.568,0,0,0,1.566-1.952A1.6,1.6,0,0,0,205.7,197.3Z" /><path class="cls-3" d="M205.7,197.273a.7.7,0,0,1,.656.145,1.823,1.823,0,0,1,.7,1.269,2.679,2.679,0,0,1-.608,1.919,12.284,12.284,0,0,1-1.526,1.542c-2.154,1.974-4.671,4.134-6.008,5.416-2.358,2.268-5.01,4.563-7.759,6.784L189.08,216l-1.046.813-.15.116a2.383,2.383,0,0,1-.245.156l-.492.295-.988.592c-.661.738-1.327-.082-1.934-.415a4.623,4.623,0,0,1-1.427-1.886,5.08,5.08,0,0,1-.333-.942,7.85,7.85,0,0,1-.159-.8,10.158,10.158,0,0,1-.106-1.517,16.14,16.14,0,0,1,.2-2.435c.105-.758.247-1.518.4-2.276a19.9,19.9,0,0,1,1.512-4.476,12.321,12.321,0,0,1,2.915-3.892,10.853,10.853,0,0,1,4.154-2.244,18.153,18.153,0,0,1,4.125-.606c1.244-.089,2.475-.176,3.665-.221a20.8,20.8,0,0,1,6.632.541c-1.942.373-4.249,1.218-6.556,1.891-1.143.34-2.258.646-3.257.861-.485.109-1.01.185-1.371.249a6.4,6.4,0,0,1-.937.106,9.829,9.829,0,0,0-2.942.7,7.778,7.778,0,0,0-2.413,1.691,9.474,9.474,0,0,0-1.731,2.467,15.193,15.193,0,0,0-1.106,2.847,17.864,17.864,0,0,0-.836,5.778,5.025,5.025,0,0,0,.256,1.221,1.968,1.968,0,0,0,.474.741,1.879,1.879,0,0,0,.353.252c.122.017.235-.147.351-.21l.807-.613c5.884-4.465,10.695-8.708,15.159-12.125.521-.418,1.163-.881,1.839-1.356a16.8,16.8,0,0,0,1.913-1.408,1.8,1.8,0,0,0,.611-1.671A1.228,1.228,0,0,0,205.7,197.273Z" /></g></svg>