<svg xmlns="http://www.w3.org/2000/svg" viewBox="0 0 380 600"><defs><style>.cls-1{isolation:isolate;}.cls-2{opacity:0.4;}.cls-3{fill:#14d8c3;opacity:0.15;}.cls-4{fill:#000d76;}.cls-5{mix-blend-mode:multiply;}.cls-6{opacity:0.3;}.cls-7{fill:#fff;}</style></defs><g class="cls-1"><g data-name="Layer 10" id="Layer_10"><g class="cls-2"><path d="M295.21,265.08c-.73-.31-1.72-2.64-3-6.09-.64-1.71-1.33-3.71-2.15-5.81a30.51,30.51,0,0,0-3-6.17,7.4,7.4,0,0,0-2-2,5.22,5.22,0,0,0-2.56-.66l-.71,0c-.23,0-.53.07-.79.09a15.37,15.37,0,0,0-1.67.33c-1.14.28-2.3.65-3.44,1.05-4.58,1.65-8.82,3.57-11.82,5a202,202,0,0,1-35,13.16A187.28,187.28,0,0,1,191,270.16a217,217,0,0,1-32-.6c-5.16-.44-10.18-1-15-1.45a103.16,103.16,0,0,0-13.34-.69,23.66,23.66,0,0,0-5.12.71,7.72,7.72,0,0,0-3.21,1.69c-1.76,1.48-3,4.92-3.65,8.56a75.91,75.91,0,0,0-.92,11.27c-.07,3.74,0,7.37,0,10.8a47.7,47.7,0,0,1-6-10.19,45.2,45.2,0,0,1-3.78-13.43,26.89,26.89,0,0,1,.24-7.72,19.64,19.64,0,0,1,3.17-7.8,18.31,18.31,0,0,1,5.8-5.37,16.71,16.71,0,0,1,5.24-2,37,37,0,0,1,7.91-.56c2.43.07,4.7.29,6.9.55,4.37.54,8.46,1.24,12.45,1.89,8,1.32,15.57,2.43,23,3a159.93,159.93,0,0,0,41.61-1.89,177.73,177.73,0,0,0,18.38-4.37c5.88-1.69,11.5-3.52,16.89-5.41s10.55-3.82,15.66-5.65c2.56-.91,5.09-1.8,7.74-2.56a31.9,31.9,0,0,1,8.72-1.46,12.14,12.14,0,0,1,5.49,1.27c.44.26.88.53,1.31.81s.79.68,1.17,1a11.72,11.72,0,0,1,1,1.19c.16.21.33.42.47.63l.36.61a26.81,26.81,0,0,1,2.89,9.46A103.21,103.21,0,0,1,295.21,265.08Z"></path></g><path d="M71.19,296.89a21.59,21.59,0,0,1,.48,2.12,16.24,16.24,0,0,0,1.77,3.82,33.12,33.12,0,0,0,6,7.5c3.1,2.57,6.27,5.4,9.43,8.27l.6.53.3.27.13.12,0,0a.77.77,0,0,0,.27.09.78.78,0,0,0,.33,0c.17,0,.23-.13.22-.33a1.16,1.16,0,0,0-.13-.39c0-.05,0,.1.08-.28l0-.1a1.31,1.31,0,0,1,0-.23l.06-.33.29-1.31c.19-.87.4-1.73.61-2.59.42-1.7.9-3.37,1.41-5,2-6.47,4.7-12.24,7.87-16.37a34.61,34.61,0,0,1,3.43,9.53c.65,3.14.72,5.92,0,7.24a62.84,62.84,0,0,0-3.65,7.94,79,79,0,0,0-2.81,9.95c-.25.79-.49,1.57-.72,2.35-.29.58-.55,1.26-.82,1.76s-.55.94-.81,1.33c0,.06-.07.11-.1.16l-.06.07,0,0v0h0c.07.21-.1-.28-.09-.23-.17.07-.29,0-.43,0l-.74-.2a6.38,6.38,0,0,1-1.56-.7A14.85,14.85,0,0,1,91,330.87c-1.16-.9-2.32-2-3.47-3.08l-1.72-1.65-1.63-1.59-2.4-2.34c-1.56-1.55-3.06-3.08-4.44-4.63a38.65,38.65,0,0,1-6.73-9.66,14.53,14.53,0,0,1-1.39-6.53,7.48,7.48,0,0,1,.7-3.16A3,3,0,0,1,71.19,296.89Z"></path><path class="cls-3" d="M118.44,259.18c-4.15,12.47-8.91,31.87-5.6,45,2.77,11,24.12,17.78,34.46,19,79.85,9.14,128.22-15.22,137.88-19.94,5.12-2.51,10.16-5.63,13.19-10.47,12.38-19.78,3.59-40.55-2.72-60.28-.68-2.13-2.65-2.79-4.66-1.9-56.35,17.39-115.4,24-174.39,21.61"></path><path d="M116.6,252.17c1-.15,6.22,0,13.91,0,3.85,0,8.32,0,13.19-.06,2.44-.05,5,0,7.58-.14l8-.27c10.9-.47,22.53-1.24,33.11-2.34s20.13-2.4,26.92-3.55c12-1.95,24.36-4.37,36.85-7.36,3.13-.69,6.24-1.55,9.38-2.33s6.27-1.64,9.41-2.52l4.71-1.31,4.7-1.41,4.7-1.42,1.18-.36a2.89,2.89,0,0,0,.51-.18,5.74,5.74,0,0,1,.81-.23,4.8,4.8,0,0,1,3.58.55,5.1,5.1,0,0,1,2.12,2.86l.77,2.33,1.56,4.69c1,3.14,2.09,6.28,3,9.49s1.77,6.44,2.47,9.71a67.39,67.39,0,0,1,1.25,10,47.82,47.82,0,0,1,0,5.08,23.78,23.78,0,0,1-.23,2.53c-.11.84-.15,1.69-.33,2.53a41.91,41.91,0,0,1-1.18,4.95l-.76,2.42c-.31.79-.66,1.56-1,2.33a35.16,35.16,0,0,1-2.28,4.5l-.61,1.09c-.25.37-.48.74-.74,1.1a20.29,20.29,0,0,1-1.65,2,32.36,32.36,0,0,1-8,6.17c-1.25.71-2.51,1.37-3.77,2s-2.48,1.22-3.75,1.81-2.52,1.17-3.79,1.73-2.55,1.12-3.84,1.64c-2.55,1.09-5.15,2-7.74,3s-5.23,1.79-7.84,2.68-5.27,1.59-7.91,2.34L243,320.35l-8,1.73c-2.66.57-5.34,1-8,1.44a250.33,250.33,0,0,1-31.69,3.24c-2.61.08-5.21.27-7.8.26l-7.72,0L176,327c-1.27,0-2.54-.12-3.8-.18l-7.55-.38c-2.5-.09-5-.35-7.43-.6l-7.33-.72c-1.22-.13-2.39-.2-3.65-.39s-2.45-.4-3.65-.65q-3.59-.76-7-1.85a65.05,65.05,0,0,1-13-5.62,36,36,0,0,1-5.73-4.1,23.94,23.94,0,0,1-2.45-2.58,17.06,17.06,0,0,1-1.92-3,14,14,0,0,1-1-3.41l-.31-1.65-.2-1.66a51.35,51.35,0,0,1-.28-6.53,80.33,80.33,0,0,1,1.31-12.42,142.65,142.65,0,0,1,6-22.18,173,173,0,0,0-4.5,22.49,82.78,82.78,0,0,0-.62,13l.07,1.65.17,1.64c.07,1.1.29,2.17.46,3.25a14.56,14.56,0,0,0,.35,1.59,14.83,14.83,0,0,0,.39,1.53,10.1,10.1,0,0,0,1.32,2.65c2.3,3.34,6,5.7,9.56,7.57A66.26,66.26,0,0,0,136,318.7a74.33,74.33,0,0,0,9.82,2.26c1.45.24,2.89.34,4.23.47l3.64.37c35.2,4,69.1,1.47,99.31-7.1a187.48,187.48,0,0,0,21.88-7.62c3.5-1.48,6.93-3,10.29-4.71a38,38,0,0,0,9.15-6,20,20,0,0,0,3.41-4.07l1.32-2.35.65-1.18c.2-.4.36-.81.54-1.22l1.06-2.45c.29-.84.54-1.7.82-2.54l.39-1.26.28-1.3c.17-.86.38-1.72.52-2.58a49.56,49.56,0,0,0,.37-10.46,68.48,68.48,0,0,0-1.58-10.23,199.32,199.32,0,0,0-5.81-19.52l-1.56-4.71a2.22,2.22,0,0,0-3-1.28c-3.16,1-6.31,1.91-9.42,2.86-12.49,3.62-24.71,6.62-36.61,9.11s-23.49,4.39-34.74,5.9c-5.62.79-11.17,1.34-16.62,1.93s-10.82,1-16.11,1.28c-2.51.14-5.24.36-8.13.46l-9,.32-9.39.12c-3.14,0-6.26,0-9.28-.06s-5.92-.1-8.64-.2-5.26-.14-7.52-.28Z"></path><path class="cls-4" d="M95.48,225.28c8.5,25.42,4.81,54.7-3.42,78.49-1.17,3.23,15.23,19.81,16.32,10.17,3.08-11,4.2-32.5,5.29-45.4.07-4.27.4-9.11,3.69-11.83,3.06-2.52,7.47-2.21,11.42-1.89,56.31,4.22,151.36-5.66,166.36-26.06-7.5-86.06-212.83-60.27-220.63-3.26,5.18-4.06,15.78-8.34,21-.22"></path><path d="M95.43,225.31c-.14-.12-.34-.32-.6-.59a7.49,7.49,0,0,0-1-1l-.67-.58a8.32,8.32,0,0,0-.85-.54l-.46-.29-.53-.23a6.61,6.61,0,0,0-1.16-.42,12.12,12.12,0,0,0-6,0c-.29.06-.57.12-.86.21l-.95.29c-.72.27-1.44.54-2.22.92A51.19,51.19,0,0,0,75,226.28c-.3.08-.6.1-.91.2l-.45.22-.23.11s0,0,0-.05v-.11l0-.21c.1-.57.21-1.14.31-1.72A16.26,16.26,0,0,1,74.1,223a25.35,25.35,0,0,1,1.05-3.53c.22-.6.43-1.22.68-1.83l.91-1.82.46-.92a7.17,7.17,0,0,1,.47-.79l1-1.51c.65-1,1.41-1.94,2.14-2.93s1.58-1.89,2.44-2.79,1.73-1.82,2.7-2.65c7.49-6.89,17-12.26,26.76-16.5a186.82,186.82,0,0,1,28.92-9.65c9.15-2.28,17.45-3.78,23.9-4.76a239,239,0,0,1,24.15-2.44,222.42,222.42,0,0,1,25,.21A169.23,169.23,0,0,1,240,174.71a113.21,113.21,0,0,1,24.77,8.49,75.61,75.61,0,0,1,11.47,6.86,60.82,60.82,0,0,1,10,9.09,50.93,50.93,0,0,1,11.78,24.4,16.3,16.3,0,0,1,.27,1.68l.25,2,.19,1.49.1.75c0,.25.13.53-.12.69l-2,2.37-.68.77-.68.61L294,235.08c-.94.77-1.91,1.39-2.87,2.08a66.86,66.86,0,0,1-11.95,5.89,168.82,168.82,0,0,1-24.33,7.1c-9.78,2.19-19.61,3.83-29.42,5.14s-19.62,2.3-29.37,3a489,489,0,0,1-57.67.94c-2.35-.13-4.7-.24-7.06-.43l-3.5-.26c-1.12-.09-2.17-.16-3.15-.16a8.59,8.59,0,0,0-4.57.94,5.43,5.43,0,0,0-2.15,3.38,17.87,17.87,0,0,0-.47,2.75c0,.49-.08,1-.11,1.52l-.06,1.72c-.2,2.27-.39,4.54-.59,6.8-.37,4.45-.75,8.89-1.18,13.29s-.91,8.77-1.53,13.12c-.32,2.17-.66,4.33-1.08,6.49-.2,1.08-.43,2.16-.68,3.24l-.18.81-.24.94c-.16.64-.29,1.19-.49,1.91a6,6,0,0,1-3,4.14,6.69,6.69,0,0,1-5.13.1L102,319l-1-.54c-.53-.32-1-.65-1.53-1a29.27,29.27,0,0,1-2.7-2.15,37.63,37.63,0,0,1-4.57-4.88,21.7,21.7,0,0,1-1.94-2.94,9.12,9.12,0,0,1-.52-1.11,6.72,6.72,0,0,1-.38-1.23,4.73,4.73,0,0,1,.15-2.5c.34-1,.67-1.95,1-2.92s.6-1.72.86-2.59c.54-1.72,1.1-3.44,1.56-5.16l.72-2.57c.21-.86.43-1.72.64-2.57s.42-1.71.62-2.56.37-1.71.55-2.55a141,141,0,0,0,2.75-20,104.38,104.38,0,0,0-3.73-36.16A82.92,82.92,0,0,1,99.61,242a104.3,104.3,0,0,1,2.14,20.08,130.64,130.64,0,0,1-1.55,21.52c-.54,3.58-1.24,7.13-2,10.61-.37,1.75-.87,3.45-1.29,5.16-.21.85-.47,1.69-.71,2.53l-.37,1.25a5.94,5.94,0,0,0-.24.85.31.31,0,0,0,0,.23.86.86,0,0,0,.07.1s0,0,0,0a1.18,1.18,0,0,0,.14.23,16.49,16.49,0,0,0,1.55,2.05,31.6,31.6,0,0,0,3.91,3.78,22.74,22.74,0,0,0,2,1.49c.34.22.66.39,1,.57l.24.11c.08,0,0,0,.07,0a.09.09,0,0,0,.09-.11h0l0-.18c.08-.31.15-.62.22-.92l.11-.45.12-.57c.07-.38.15-.76.23-1.14.3-1.51.56-3,.78-4.39.45-2.82.79-5.37,1.1-7.54.79-5.63,1.4-11.29,2-16.94s1.09-11.41,1.64-17.05a17.79,17.79,0,0,1,1.45-4.86,11.29,11.29,0,0,1,3.56-4.33,11.85,11.85,0,0,1,5-2.05,21,21,0,0,1,4.75-.24c1.5.06,2.91.24,4.25.34l4.05.34c2.71.17,5.41.38,8.1.5,10.78.55,21.44.62,31.93.39s20.81-.79,30.95-1.63,20.1-1.95,29.83-3.45a273.44,273.44,0,0,0,28.46-5.74,131.28,131.28,0,0,0,13.44-4.22,59.7,59.7,0,0,0,12.23-6l1.35-1c.45-.32.82-.7,1.24-1a9.27,9.27,0,0,0,1.16-1.09l.71-.82c0-.07.17-.12.13-.21l0-.26-.07-.53-.19-1.52-.1-.83-.17-.81-.34-1.62A45.44,45.44,0,0,0,288,210.41a47.68,47.68,0,0,0-7.75-10.28,60.69,60.69,0,0,0-9.93-8,74.6,74.6,0,0,0-11.13-6,99.3,99.3,0,0,0-11.71-4.32c-15.87-4.8-32.05-6.38-47.58-6.55a246.71,246.71,0,0,0-44.9,3.92,204.73,204.73,0,0,0-40.38,11.41,134.2,134.2,0,0,0-13.06,6.17,80.07,80.07,0,0,0-13.05,8.66L87,206.71,85.6,208c-1,.86-1.8,1.81-2.66,2.72s-1.59,1.9-2.34,2.84l-1,1.48-.49.72-.35.6L78,217.59c-.2.4-.39.81-.58,1.22a23.14,23.14,0,0,0-1,2.54c-.31.86-.47,1.76-.71,2.63l0,.16s.07,0,.1-.06l.22-.15c.15-.11.29-.21.44-.3l.89-.54a21.6,21.6,0,0,1,3.2-1.52c.54-.2,1.07-.37,1.6-.53s1.18-.32,1.75-.39a12.89,12.89,0,0,1,6.11.24,10.23,10.23,0,0,1,2.18,1,8.77,8.77,0,0,1,1.53,1.25A11.85,11.85,0,0,1,95.43,225.31Z"></path><path d="M183.55,211.69c-.37-.05-1.77-1.17-3.2-3.31a13.86,13.86,0,0,1-1.93-4,4.74,4.74,0,0,1,0-2.75,2.75,2.75,0,0,1,.93-1.28,1.78,1.78,0,0,1,.33-.23A1.5,1.5,0,0,1,180,200l.67-.2a97.31,97.31,0,0,1,10.71-2.25c3.44-.59,6.57-1.05,8.8-1.42,7.87-1.3,16.36-2.38,24.94-3.29,4.3-.44,8.61-.86,12.9-1.18,1.09-.07,2.14-.16,3.24-.2l.83,0,.41,0c.12,0,.36,0,.54,0a5.18,5.18,0,0,1,1.1.11l.86.23a13.85,13.85,0,0,1,6,3.79,18,18,0,0,1,1.85,2.39c.27.41.51.83.75,1.24a4.66,4.66,0,0,1,.27.52l.3.59c0,.2.12.4.16.61a3.11,3.11,0,0,1-1.05,2.82,5.39,5.39,0,0,1-1.08.73,5.86,5.86,0,0,1-1,.39,8.07,8.07,0,0,1-1.68.3l-1.32.16c-3.48.42-7.07.79-10.54,1.12-7,.65-13.78,1.15-20.24,1.69s-12.59,1.17-18.26,1.88-10.89,1.5-15.52,2.25a102.2,102.2,0,0,1,15.6-4.88,97.57,97.57,0,0,1,14.13-2.38c11.69-.71,22.6-1.19,32.86-2.23,2.45-.37,5.75-.07,5.34-1.81,0-.08-.09-.16-.13-.25l-.17-.3-.45-.79c-.32-.51-.65-1-1-1.46a11.85,11.85,0,0,0-2.45-2.4,10.42,10.42,0,0,0-3-1.52,4.44,4.44,0,0,0-1.55-.31c-.48,0-1.14,0-1.69,0-2.32.1-4.61.28-6.86.46-9,.76-17.44,1.69-25.3,2.63s-15.18,1.89-21.95,2.95c-.81.12-1.68.28-2.6.45s-1.89.31-2.83.55l-.73.16a4.63,4.63,0,0,0-.6.15,1.63,1.63,0,0,0-.76.71,4,4,0,0,0-.06,2.56,16.68,16.68,0,0,0,2.1,4.69A12,12,0,0,0,183.55,211.69Z"></path><path d="M170.62,231.47c-.3.3-3,.18-6,.17a48.6,48.6,0,0,0-8.42.53,42.19,42.19,0,0,0-6.59,1.75c-.54.2-1.06.44-1.59.65s-1,.51-1.51.75c-.25.14-.48.3-.72.44l-.65.41a1.07,1.07,0,0,0-.15.17l.09.1,0,0s0,0,0,.05l.11.22c.29.58.56,1.13.84,1.63a4.32,4.32,0,0,0,1.51,1.88s.07,0,.1,0h.27c5.8.44,11.77.2,17.24.41l2,.08.5,0a.41.41,0,0,1,.14,0l.24.06.13-.18a.52.52,0,0,0,.08-.11l.17-.41c.23-.55.44-1.09.63-1.63a14.4,14.4,0,0,0,1-6.06,6.94,6.94,0,0,1,1.37,3.11,14.33,14.33,0,0,1,.15,4,19.17,19.17,0,0,1-.3,2c-.12.49-.31,1.06-.47,1.58-.09.27-.17.53-.26.79s-.05.3-.16.35l-.38,0-1.48,0-1.09,0a9.2,9.2,0,0,1-1.12-.05c-6.69-.74-13-.72-18.68-1.36h.07a3.63,3.63,0,0,1-2.47-1.18,9.07,9.07,0,0,1-1.35-1.94c-.36-.65-.67-1.3-1-1.92l-.24-.5-.34-.64c-.24-.43-.49-.85-.74-1.27a22.24,22.24,0,0,1,5.54-3.37,30.31,30.31,0,0,1,5.18-1.58,39.47,39.47,0,0,1,9.61-.7A45.9,45.9,0,0,1,170.62,231.47Z"></path><path d="M142.65,224a3.5,3.5,0,0,1-2.38-.39,16.79,16.79,0,0,1-4.22-2.61,15.1,15.1,0,0,1-2.06-2.09,5.46,5.46,0,0,1-1.27-2.93,2.69,2.69,0,0,1,.52-1.71,3.89,3.89,0,0,1,1.2-1l1.87-1a108.43,108.43,0,0,1,11.82-5.43c2.09-.8,4.23-1.56,6.42-2.17,1.09-.3,2.2-.58,3.34-.78a16.68,16.68,0,0,1,3.6-.33,6.79,6.79,0,0,1,2.51.52,4.22,4.22,0,0,1,1.41,1,3.38,3.38,0,0,1,.5.75l.34.84c.53,2,1.18,4,1.6,6.17a19,19,0,0,1,.39,3.42,6,6,0,0,1-.5,2.51,3.42,3.42,0,0,1-.89,1.07,3.32,3.32,0,0,1-1.28.55l-6.66,1.07c-2,.33-4,.65-5.91,1-3.77.66-7.18,1.41-10.16,2a32.12,32.12,0,0,1,7.43-4.3,29.22,29.22,0,0,1,7.1-2.17l7.12-.74a.45.45,0,0,0,.47-.25,1,1,0,0,0,.1-.29,5.59,5.59,0,0,0,.06-.64,16.33,16.33,0,0,0-.27-2.91c-.33-2-.86-3.89-1.32-5.81-.15-1.13-2.18-1.26-3.77-1.1a28.73,28.73,0,0,0-4.9,1,83.33,83.33,0,0,0-8.93,3.14c-2.8,1.13-5.43,2.29-7.94,3.41l-1.86.82a4.2,4.2,0,0,0-1.31.73,1,1,0,0,0-.21.88,4.39,4.39,0,0,0,.58,1.37,19.82,19.82,0,0,0,3.82,4.18A10.22,10.22,0,0,0,142.65,224Z"></path><path d="M270.45,195.51a28.9,28.9,0,0,1,2.29,2.2c.15.16.27.27.47.51a1.54,1.54,0,0,1,.4.73c.05.3.13.56.14.78s0,.47,0,.7a11.85,11.85,0,0,1-.25,2.27,8.12,8.12,0,0,1-1.18,3.05,5.42,5.42,0,0,1-3.14,2.38,4.85,4.85,0,0,1-3.36-.46c-.12-.06-.38-.24-.59-.36l-.31-.2c-.11-.06-.22-.11-.25-.23l-.91-1.69c-.23-.44-.46-.88-.68-1.32a39.73,39.73,0,0,1-1.8-4.17l-.36-1c-.13-.41-.26-.82-.4-1.22-.42-1.32-.78-2.58-1.13-3.78a25.84,25.84,0,0,1,4.53-.73h.41l.33,0q.33,0,.66.06a12.06,12.06,0,0,1,1.25.21,10.85,10.85,0,0,1,4,1.78c-1.27.36-2.75.67-4,1-.62.16-1.2.32-1.68.42a2.41,2.41,0,0,1-.35.07l-.2,0s0,0,0,0a.79.79,0,0,0-.53-.27c-.1,0-.16.19-.17.4a.86.86,0,0,0,0,.17l.09.42c.07.29.14.57.2.85a29.23,29.23,0,0,0,1,3.2c.38,1,.8,2,1.25,2.9.11.23.22.46.34.68l.13.25c.05.06.05.16.13.18s.22.12.41.25.36.11.53.18c1.38.33,2.57-1,3.22-2.3a8.39,8.39,0,0,0,.75-2,6.88,6.88,0,0,0,.22-1.86.64.64,0,0,0,0-.3l-.07-.17-.16-.29c-.22-.4-.46-.84-.66-1.27C270.64,196.63,270.29,195.77,270.45,195.51Z"></path><path d="M280.56,211.27c.45-.05-.46,1.28-1-.11l0-.09.19-.18a3,3,0,0,1,2.2-.82,4.47,4.47,0,0,1,2.7,1.26A8.25,8.25,0,0,1,287,216a5.19,5.19,0,0,1,0,1.19c0,.22-.06.43-.11.65s-.1.35-.15.53a13.38,13.38,0,0,1-.79,2,16.93,16.93,0,0,1-2.36,3.54,13.63,13.63,0,0,1-3.43,2.93,9.21,9.21,0,0,1-2.29,1l-.63.15-.71.07-.47,0-.46,0-.91-.08-.33,0-.16,0s-.07-.07-.11-.11l-.44-.47c-.29-.31-.59-.66-.85-1s-.61-.84-.88-1.26a24,24,0,0,1-1.34-2.53c-.37-.82-.7-1.61-1-2.36l-.25-.57-.55-1.1-1.16-2.13,2.95-1.92.36-.23.19-.11.39-.23.75-.44c1-.58,2-1.12,2.94-1.63,1.9-1,3.68-1.86,5.28-2.52-1,3-4.37,6.86-6,7.59l-.81.37-.41.18c-.09,0-.09,0-.1,0h-.05a1.46,1.46,0,0,0-.55.08.94.94,0,0,0,0,.3l0,.2a.43.43,0,0,0,0,0l0,.14.1.28c.26.73.51,1.44.75,2.14a17.14,17.14,0,0,0,1.77,3.7l.21.3c.06.08.13.16.19.25s.17.1.27.11l.31,0,.32,0a2,2,0,0,0,.42,0,5,5,0,0,0,.82-.23,8.59,8.59,0,0,0,2.89-1.88,16,16,0,0,0,3.67-5.31,3.42,3.42,0,0,0,.21-.61l.06-.24v-.27a4.3,4.3,0,0,0-.13-1.16,7,7,0,0,0-1-2.21,5.2,5.2,0,0,0-1.58-1.55,2.59,2.59,0,0,0-1.95-.13l.06-.11c-.06.13.24.26.35.25A.16.16,0,0,0,280.56,211.27Z"></path><path class="cls-4" d="M233.23,177.5c-31.47-.73-64.09.45-94.34,9.67-29.27,19.8-18.71,25.53-48.63,15.2,15.59-13.51,27.2-25,48.42-28.29,28.48-4.38,74-9.8,103.77,5.87"></path><path d="M242.43,180a25.57,25.57,0,0,1-2.66-1,56.17,56.17,0,0,0-5.62-2.21l-3.74-1.31-4.29-1.16c-.75-.19-1.51-.43-2.3-.6l-2.41-.49-2.47-.51c-.84-.18-1.68-.34-2.55-.45a151.08,151.08,0,0,0-21.09-1.85l-5,0-4.61.1c-2.94,0-5.57.25-7.77.37-7.75.54-15.76,1.41-23.9,2.53-4.07.55-8.17,1.17-12.3,1.83l-3.09.5-3,.59a61.38,61.38,0,0,0-6,1.59,68.9,68.9,0,0,0-21.55,11.78c-3.26,2.52-6.4,5.21-9.5,7.92l-4.31,3.8-.28.26c0,.06.07,0,.09.05l4.34,1.41c1.66.51,3.32,1,5,1.43,3.29.81,6.58,1.42,9.16.4a14.55,14.55,0,0,0,3.89-2.42c1.29-1,2.57-2.18,3.87-3.33,2.59-2.31,5.25-4.6,8-6.74s5.53-4.18,8.35-6.1l1.28-.88a3.71,3.71,0,0,1,.57-.18l.35-.1.61-.17,2.45-.7c1.63-.47,3.26-.88,4.89-1.28,6.52-1.61,13-2.89,19.34-3.81a280.85,280.85,0,0,1,36.18-2.85c11.28-.21,21.66.13,30.86.61-8.27.64-20.35,1.2-31.73,2.13-5.69.42-11.19,1-16,1.47l-6.56.73c-2,.23-3.68.42-5.08.55a201.51,201.51,0,0,0-32.42,5.92l-1.92.52a.47.47,0,0,0-.19.07l-.36.24-.82.55c-1.11.73-2.19,1.49-3.26,2.24-2.14,1.52-4.24,3.07-6.26,4.68s-4,3.27-5.91,5a75.85,75.85,0,0,1-6,4.91,14,14,0,0,1-3.57,1.82,11.53,11.53,0,0,1-4,.53,31.24,31.24,0,0,1-7.46-1.34c-2.39-.66-4.7-1.42-7-2.18l-4.16-1.42-1.17-.4-.58-.2s-.14,0-.1-.06l.11-.1.23-.2,1.81-1.58,5.76-5c1.76-1.53,3.52-3,5.3-4.51a115.07,115.07,0,0,1,10.91-8.16A64,64,0,0,1,137,173.44c8.24-1.41,16.19-2.5,23.94-3.36s15.27-1.4,22.55-1.61a189.75,189.75,0,0,1,21.12.62,111.7,111.7,0,0,1,22.6,4.4,90.33,90.33,0,0,1,9.73,3.65Z"></path><path d="M155.91,374.13c-.25.43-1.18.61-2.54.63a31,31,0,0,1-5-.38c-1.88-.26-3.89-.57-5.71-1s-3.51-.61-4.73-.78c-8.71-.89-18.29-4.78-26-10.18a45.62,45.62,0,0,1-15.57-17.89,32.23,32.23,0,0,1-2-5.08,24.11,24.11,0,0,1-.73-2.49c-.17-.84-.32-1.66-.46-2.47s-.26-1.59-.36-2.36a17.73,17.73,0,0,1-.11-2.29c0-1.49,0-2.89.11-4.2A50.27,50.27,0,0,1,100.9,332c.56.54,1.07,1.07,1.52,1.58s1,1,1.33,1.42a5.35,5.35,0,0,1,1.33,2.45,30.37,30.37,0,0,0,7.24,14.3,39.48,39.48,0,0,0,11.54,8.81l3,1.5,3,1.23c2,.86,4,1.41,5.85,2.09s3.77,1.14,5.52,1.78a53.23,53.23,0,0,1,5.13,1.78,29.55,29.55,0,0,1,5.5,2.74C153.77,372.68,155.38,373.74,155.91,374.13Z"></path><g class="cls-5"><g class="cls-6"><path d="M127.48,246.78c.25-.4,1.11-.52,2.17-1a7.33,7.33,0,0,0,3.18-2.44,6.27,6.27,0,0,0,.79-4.27,24.55,24.55,0,0,0-.94-4.37c-1.32-4-2.51-8.15-4-12.12a53.52,53.52,0,0,0-5.32-11c-.94-1.39-1.89-2.75-2.94-4l-.76-1-.81-.91c-.27-.29-.54-.62-.8-.9s-.5-.54-.77-.79a24.49,24.49,0,0,0-6.87-4.82,13.09,13.09,0,0,0-7-1.21,29.28,29.28,0,0,0-7.2,2.36,14.46,14.46,0,0,1,1.36-4.8,12.06,12.06,0,0,1,3.66-4.44,12.82,12.82,0,0,1,5.4-2.26,8.25,8.25,0,0,1,4.22.27,29.68,29.68,0,0,1,9.06,5.94,36.74,36.74,0,0,1,3.28,3.48l.73.9.66.89c.43.6.9,1.15,1.29,1.76a64.5,64.5,0,0,1,4.33,7.06,63.89,63.89,0,0,1,3.25,7,75.94,75.94,0,0,1,4,13.28,61.84,61.84,0,0,1,.93,6.14,16.48,16.48,0,0,1-.32,6.52,7.39,7.39,0,0,1-2.06,3.45,7.73,7.73,0,0,1-3.63,1.89,7.59,7.59,0,0,1-3.26,0A5.37,5.37,0,0,1,127.48,246.78Z"></path></g></g><g class="cls-5"><g class="cls-6"><path d="M115.17,190c.53-.68,3.67-.17,7.14,1.08s7.14,3.29,9.35,4.24a38.67,38.67,0,0,1,11,7.55,52.12,52.12,0,0,1,8.57,10.83,43.84,43.84,0,0,1,4.66,10.72,26.92,26.92,0,0,1,.9,12,17.75,17.75,0,0,1-.83,3c-.18.49-.4,1-.62,1.44a14.18,14.18,0,0,1-.8,1.43,13.46,13.46,0,0,1-4.24,4.2,11.37,11.37,0,0,1-5.11,1.76,8.51,8.51,0,0,1-4.71-.88,10,10,0,0,0,3.65-3,10.87,10.87,0,0,0,1.66-3.48,16.08,16.08,0,0,0,.48-2.71,3.14,3.14,0,0,1,.47-1.64,10.9,10.9,0,0,0,1.65-6.52,20.65,20.65,0,0,0-.39-3.74,28.51,28.51,0,0,0-.87-3.62,35.41,35.41,0,0,0-6.6-12.11,49.79,49.79,0,0,0-8.84-8.26c-3-2.25-5.92-4.1-8.62-6a17.48,17.48,0,0,1-2.18-1.58c-.76-.64-1.59-1.25-2.35-1.92C117,191.56,115.61,190.47,115.17,190Z"></path></g></g><path class="cls-7" d="M297.42,289.14c-.4-.41.34-2.51,1-4.85a20.67,20.67,0,0,0,.64-3.59,10.07,10.07,0,0,0,0-1.63,9.75,9.75,0,0,0-.11-1.32c-.44-2.65-1-5.51-1.65-8.42s-1.24-5.84-1.91-8.63c-2.33-9.75-3.87-19.62-3.54-26.49,3.23,2.33,6.32,7.48,6.31,9.58,0,8.44,1.35,15.53,2.57,21.85.62,3.16,1.18,6.14,1.45,9a20,20,0,0,1-.66,8.25,12.83,12.83,0,0,1-2.1,3.85C298.55,287.91,297.71,288.83,297.42,289.14Z"></path><path class="cls-7" d="M150.83,319.59c-1.16-.66,0-9.47-.36-12.95-.62-6.12-.38-13-.46-19.17-.07-5.4.06-10.7.28-15.54s.51-9.23,1-12.9a16.07,16.07,0,0,1,4.84,5.58c1.18,2.17,1.77,4.33,1.55,5.48A137,137,0,0,0,155.17,294c-.2,6.94-.12,13-1.28,18.22A29,29,0,0,1,150.83,319.59Z"></path></g></g></svg>