<svg xmlns="http://www.w3.org/2000/svg" data-name="lounge_1 copy" id="lounge_1_copy" viewBox="0 0 380 600"><defs transform="matrix(-1, 0, 0, 1, 380, 0)"><style>.cls-1{fill:#172e35;}.cls-2{opacity:0.4;}.cls-3{fill:#fffffe;}.cls-4{opacity:0.3;}.cls-5{fill:#ffd635;}</style></defs><path class="cls-1" d="M103.275,183.417c33.7-25,81.561,8.039,117.232,7.134,24.089-.611,47.88-6.756,72.195-7.612,5.5,9.9-39.456,41.5-45.432,45.047-21.034,12.5-44.658,17.483-68.706,18.838-23.261,1.311-48.54-.517-67.576-16.13C96.936,219.17,83.834,197.841,103.275,183.417Z" transform="matrix(-1, 0, 0, 1, 380, 0)"></path><path d="M103.3,183.456c-.276.4-1.4,1.322-2.938,2.919a23.249,23.249,0,0,0-4.76,7.187,19.95,19.95,0,0,0-.9,11.719,35.5,35.5,0,0,0,5.93,12.863,58.249,58.249,0,0,0,10.471,11.215,65.591,65.591,0,0,0,12.791,8.129,68.742,68.742,0,0,0,12.968,4.7,87.769,87.769,0,0,0,11.033,2.124c11.166,1.387,22.919,1.082,34.822.044a173.6,173.6,0,0,0,35.5-6.628,128.187,128.187,0,0,0,16.93-6.492c2.732-1.281,5.414-2.658,8.024-4.146l1.952-1.125c.678-.38,1.222-.72,1.856-1.14,1.239-.815,2.489-1.678,3.727-2.546,4.957-3.488,9.8-7.124,14.487-10.841s9.211-7.536,13.411-11.507c1.832-1.737,3.613-3.512,5.276-5.342a43.278,43.278,0,0,0,4.452-5.639c.307-.479.579-.956.83-1.427.107-.232.238-.469.329-.694l.144-.338a1.6,1.6,0,0,0,.062-.164c.021-.064.038-.111.029-.086,0,.007,0-.017-.01-.019s-.013,0-.013,0v0h0c-.029,0,.089,0-.141.008-1.256.049-2.514.161-3.769.249-10.047.744-20.029,2.223-29.965,3.615s-19.849,2.713-29.722,3.219c-1.23.087-2.468.1-3.7.146l-1.844.059-1.9-.018c-1.268.011-2.518-.062-3.762-.151-1.251-.058-2.478-.2-3.7-.34a121.331,121.331,0,0,1-14.237-2.618c-9.2-2.211-17.9-4.981-26.337-7.428a209.378,209.378,0,0,0-24.6-5.956,96.1,96.1,0,0,0-11.768-1.186,62.828,62.828,0,0,0-11.222.68,46.65,46.65,0,0,0-10.294,2.828l-2.385,1.017-2.269,1.183-1.122.592-1.063.676-2.108,1.336a43.446,43.446,0,0,1,18.876-10,61.324,61.324,0,0,1,12.5-1.7,86.405,86.405,0,0,1,12.879.567,176.57,176.57,0,0,1,23.442,4.523c6.9,1.752,12.677,3.4,16.624,4.582a151.248,151.248,0,0,0,23.588,5.55c1.95.275,3.894.424,5.83.541l2.893.073,2.958-.056c1.968-.012,3.932-.154,5.888-.227,1.957-.139,3.907-.24,5.85-.42,15.551-1.307,30.607-3.964,45.408-5.222,1.849-.165,3.693-.31,5.535-.416.92-.055,1.837-.134,2.756-.162l1.683-.072a8.517,8.517,0,0,1,1.845.019l.834.1.417.049c.119.048.14.249.215.366a6.921,6.921,0,0,1,.549,1.673,7.74,7.74,0,0,1-.422,3.652,20.735,20.735,0,0,1-2.805,5.05,66.732,66.732,0,0,1-7.2,8.119c-2.54,2.5-5.158,4.848-7.8,7.118-5.3,4.533-10.695,8.746-16.105,12.757q-4.062,3-8.155,5.836c-1.377.936-2.725,1.873-4.193,2.745-1.441.813-2.856,1.66-4.3,2.437a135.242,135.242,0,0,1-35.7,12.938,199.813,199.813,0,0,1-35.262,4.188c-11.437.365-22.65-.195-33.195-2.706-10.506-2.489-20.359-6.876-28.237-13.32a56.733,56.733,0,0,1-11.288-11.895c-3.406-4.837-6.2-10.6-6.849-16.446a20.841,20.841,0,0,1,.624-8.292,20.073,20.073,0,0,1,3.189-6.417,23.631,23.631,0,0,1,3.807-4.059A35.442,35.442,0,0,1,103.3,183.456Z" transform="matrix(-1, 0, 0, 1, 380, 0)"></path><path class="cls-1" d="M122.981,199.872c1.608-14.154,3.618-48.2,6.748-62.386,1.07-4.852,3.274-11.908,6.377-15.891,2.361-3.03,6.482-5.62,9.717-7.8,8.084-5.451,18.393-7.694,27.4-9.54A136.241,136.241,0,0,1,200,102.188c12.369.353,24.876,1.142,36.567,4.142,7.788,2,22.234,6.886,25.258,14.687a49.87,49.87,0,0,1,3.037,11.846c1.654,17.661,2.458,45.2,2.86,60.123,0,0-15.138,25.7-63.681,27.577S122.981,199.872,122.981,199.872Z" transform="matrix(-1, 0, 0, 1, 380, 0)"></path><path d="M123.008,199.832c.874.3,4.929,2.73,11.257,5.627a149.46,149.46,0,0,0,24.412,8.811,151.114,151.114,0,0,0,29.49,4.791l6.988.279,6.5-.136c2.072.006,4.025-.2,5.849-.36l5.056-.458a100.971,100.971,0,0,0,32-9.346,68.769,68.769,0,0,0,14.082-9.532,47.941,47.941,0,0,0,5.742-6.164c.2-.275.419-.551.607-.824l.1-.161.056-.095a1.533,1.533,0,0,0-.009-.249l-.041-1.117-.167-4.473c-.457-11.929-.957-23.9-1.68-35.712-.365-5.9-.783-11.767-1.343-17.529a41.478,41.478,0,0,0-1.79-7.895c-.208-.655-.43-1.3-.659-1.945a11.85,11.85,0,0,0-.707-1.7,9.946,9.946,0,0,0-1.944-2.61,24.751,24.751,0,0,0-5.406-3.831,54.03,54.03,0,0,0-6.425-2.921,87.076,87.076,0,0,0-13.8-3.96,178.218,178.218,0,0,0-28.727-2.924c-2.437-.092-4.737-.159-7.1-.123s-4.71.119-7.052.256a118.046,118.046,0,0,0-13.766,1.532c-9.106,1.772-18.054,3.692-25.37,7.911-1.737,1.02-3.718,2.349-5.475,3.527a31.362,31.362,0,0,0-4.747,3.813,18.413,18.413,0,0,0-3.149,4.767,47.235,47.235,0,0,0-2.271,5.681,77.02,77.02,0,0,0-2.8,11.905c-.686,4.022-1.213,8.033-1.728,11.963-2.014,15.751-3.313,30.375-5.13,43.341-.023-11.784-.023-28.891,1.036-45.164.271-4.069.615-8.083,1.081-11.961a71.009,71.009,0,0,1,2.136-11.144,43.146,43.146,0,0,1,3.729-9.374,19.607,19.607,0,0,1,2.7-3.762,23.216,23.216,0,0,1,2.8-2.543c1.746-1.352,3.514-2.489,5.227-3.574A53.744,53.744,0,0,1,159.6,104.97c3.894-1.066,7.777-1.84,11.6-2.557a100.929,100.929,0,0,1,11.621-1.534q5.77-.449,11.454-.5c1.9-.013,3.79,0,5.685.083l5.572.27a192.263,192.263,0,0,1,21.84,2.258,95.047,95.047,0,0,1,20.587,5.752,45.189,45.189,0,0,1,9.3,5.068,21.449,21.449,0,0,1,3.935,3.711,13.3,13.3,0,0,1,1.456,2.394l.307.64.23.607.433,1.214a49.676,49.676,0,0,1,2.407,9.947c.316,3.338.58,6.586.8,9.842.458,6.5.8,12.888,1.1,19.176s.554,12.474.781,18.559q.162,4.565.321,9.053l.076,2.239.042,1.283.014.808c.037.144-.1.241-.151.36l-.215.341-.456.681c-.117.176-.225.33-.345.484l-.7.927c-.474.607-.976,1.179-1.463,1.768a60.816,60.816,0,0,1-13.691,11.3c-1.209.818-2.506,1.462-3.769,2.157l-1.9,1.027c-.637.331-1.3.6-1.946.9-1.3.58-2.587,1.2-3.894,1.738l-3.961,1.464c-.66.233-1.308.5-1.975.705l-2,.582-3.983,1.152c-2.677.618-5.346,1.181-7.993,1.713l-7.947,1.11-7.855.563a146.339,146.339,0,0,1-30-1.868,136.186,136.186,0,0,1-31.325-9.249A110.8,110.8,0,0,1,123.008,199.832Z" transform="matrix(-1, 0, 0, 1, 380, 0)"></path><g class="cls-2" transform="matrix(-1, 0, 0, 1, 380, 0)"><path class="cls-3" d="M140.479,195.457c-.3-.714,1.183-6.216,1.386-12.723a54.717,54.717,0,0,0-.493-9.824c-.5-3.086-1.046-6.336.06-8.931.52-1.076.584-1.091.821-1.339l.137-.112a1.392,1.392,0,0,0-.1-.181c-.076-.119-.153-.232-.234-.339s-.161-.207-.246-.3l-.439-.466a7.449,7.449,0,0,0-1.17-1.02l-.8-.482-.943-.5c-1.305-.683-2.86-1.466-4.341-2.192a5.869,5.869,0,0,0,.555-.379c.161-.108.1-.172.357-.28l1.9-.68,3.953-1.4,3.666-1.3,2.381-.869-.33,4.577-2.727-1.174-.717-.311-.429-.193-.627-.3c-.835-.4-1.659-.831-2.422-1.292a16.223,16.223,0,0,1-2.08-1.457,20.664,20.664,0,0,1-1.6-1.541l-1.552-1.643-.417-.452c-.117-.132-.156-.2-.239-.307l-.575-.732,4.887-1.324c1.531-.431,2.818-.976,4.238-1.446.356-.129.671-.217,1.008-.327l.482-.152.319-.09c.418-.122.864-.23,1.32-.328a10.406,10.406,0,0,1,3.171-.228l-1.329,5.715c-.545-.19-1.077-.386-1.6-.595l-.387-.159c-.132-.054-.227-.09-.486-.211-.437-.207-.882-.39-1.309-.614a34.315,34.315,0,0,1-4.675-2.791c-1.772-1.26-3.138-2.5-4.7-3.794l-2.394-2.025,4.5-.886,4.547-.883,1.137-.22.284-.055.036-.007.018,0-.21.023-.852.094-1.7.188-1.486.164.114-.013.229-.026,1.826-.205,3.65-.407,1.821-.2.909-.1.227-.025-1.328.147-3.2.353a.4.4,0,0,0,.075.015c.03,0,.056,0,.057-.026a.128.128,0,0,0-.014-.049l-.02-.038-.007-.011c-.026-.019.054.035-.065-.055l-.479-.371a39.43,39.43,0,0,1-3.549-3.186l-4.951-5.019,6.917.046q1.623.011,3.21-.047l2.781-.154a8.826,8.826,0,0,0,1.478.006c.419-.031.9-.079,1.444-.155l.422-.061.2-.032-.047,0a1.343,1.343,0,0,1-.237-.04,4.244,4.244,0,0,1-1.237-.606,9.991,9.991,0,0,1-1.016-.75c-.321-.277-1.27-1.005-1.883-1.626a18.92,18.92,0,0,1-3.238-4.064,28.2,28.2,0,0,0,4.274,2.634c.4.2.8.393,1.22.565l1.476.625c.26.123.609.236.957.357s.692.252,1.1.372l1.419.332c.255.055.478.118.772.169l1.1.118a13.622,13.622,0,0,0,3.418,2.284,2.194,2.194,0,0,0,.583.127c.041,0,.071,0,.037.081l-.036.183a2.17,2.17,0,0,0-.026.394,5.684,5.684,0,0,0,.106.953c.072.417.159.8.271,1.322a43.044,43.044,0,0,1-9.019,2.15l-1.946.205-.961.077-.54.021-2.046.031c-1.352,0-2.674-.032-3.95-.1l1.681-4.253a33.535,33.535,0,0,0,3.047,3l.439.365c.246.2.494.382.748.564.5.364.989.724,1.521,1.055A28.863,28.863,0,0,0,151.2,136.2a3.58,3.58,0,0,0,1.522,2.756c.176.056-.02.146-.127.225l-.353.238-.726.457c-.491.3-1,.576-1.5.838l-2.65.283-.182.009-.368.021-.758.047-.78.052-.4.028-1.932.21-.15.016h-.016l-.038,0c-.108-.008-.247-.009-.407-.007l-.124,0-.064,0h-.033l.063.059c.176.166.36.328.548.489a16.675,16.675,0,0,0,2.5,1.735c.45.256.906.487,1.382.7l.455.2.552.231c.369.152.741.29,1.112.426l-.544,2.341a6.847,6.847,0,0,0-2,.161c-.354.079-.709.162-1.067.265l-.429.125-.356.113c-.9.3-1.75.647-2.575.923-.144.044-.286.093-.429.13l-.107.029c-.043.008-.079.017-.027.054l.165.172a5.88,5.88,0,0,0,.72.606,11.393,11.393,0,0,0,1.557.917c.261.131.522.251.78.366l1.2.536c.9.4,1.818.786,2.744,1.223l3.226,1.521-3.422,1.194-2.428.847-.893.318-.591.218-1.118.414-.529.2c.1.082.352.178.5.281a5.125,5.125,0,0,1,1.333,1.107l.055.063.212.285c.152.2.273.385.4.575a10.351,10.351,0,0,1,.668,1.167c.2.4.377.794.558,1.2.085.2.188.41.257.6v.478c-.453.294-.961.629-1.4.954l-.336.246a1.586,1.586,0,0,0-.208.188l-.036.06a1.684,1.684,0,0,0-.147.243,4.153,4.153,0,0,0-.4,1.269A12.813,12.813,0,0,0,144,169.83c.043.572.115,1.132.183,1.739s.142,1.23.18,1.842q.151,1.833.152,3.623A41.931,41.931,0,0,1,143.107,188,45.9,45.9,0,0,1,140.479,195.457Z"></path></g><g class="cls-4" transform="matrix(-1, 0, 0, 1, 380, 0)"><path d="M218.073,128.252l.419-.164c-.02-.02-.035-.043-.055-.062Z"></path><path d="M218.036,128.192a15.491,15.491,0,0,1-1-1.987,11.033,11.033,0,0,1-.8-1.709l5.126.582.273-.12.018-.008-1.538,7.289c.05.594-.556-.492-1.57-2.769-1.342-3.556-2.229-6.079-1.951-5.468a12.477,12.477,0,0,0,1.235,2.417l-.618,2.93c.021-.054,0-.061-.055-.042l2.228.254c.02.256.44,1.123.019.613C219.3,130.064,218.275,128.551,218.036,128.192Z"></path><path d="M260.5,194.707l-7.759-47.294c-1.327-8.085-2.845-16.6-8.128-22.865-1.465-1.736-3.345-3.324-5.6-3.577a11.261,11.261,0,0,0-5.245,1.13,104.014,104.014,0,0,1-10.982,3.364c-2.829.748-3.67,3.977-2.07,6.426,4.541,6.949,7.2,16.367,8.347,23.3,3.447,20.747,3.39,37.278,2.425,58.046a4.258,4.258,0,0,0,.557,2.858,3.851,3.851,0,0,0,2.559,1.169c7.811,1.166,15.49-3.163,21.126-8.695,2.4-2.356,4.655-5.151,5.112-8.484A18.113,18.113,0,0,0,260.5,194.707Z"></path><path d="M260.572,194.7a5.328,5.328,0,0,1,.78,2.028,10.635,10.635,0,0,1,.13,4.754,14.557,14.557,0,0,1-3.037,5.928A37.231,37.231,0,0,1,253,212.8a32.051,32.051,0,0,1-7.042,4.372,23.12,23.12,0,0,1-8.149,2.058c-.691.035-1.381.031-2.058.008l-1.233-.106a9.156,9.156,0,0,1-1.239-.211,5.625,5.625,0,0,1-2.168-1,4.168,4.168,0,0,1-1.323-1.851,6.962,6.962,0,0,1-.388-2.182c-.013-.37-.008-.737,0-1.1q0-.42,0-.825c-.01-.966-.019-1.863-.028-2.679-.248-11.524-.506-23.785-1.853-35.974-.673-6.082-1.561-12.217-2.69-18.145a67.153,67.153,0,0,0-5.315-16.271c-.521-1.075-1.091-2.105-1.685-3.1-.143-.256-.3-.492-.457-.734l-.232-.361-.195-.309-.251-.419a9.3,9.3,0,0,1-1.241-3.589,8.556,8.556,0,0,1,2.146-6.929,8.146,8.146,0,0,1,3.093-2.085,9.025,9.025,0,0,1,.914-.3l.859-.252.922-.251c2.449-.672,4.836-1.358,7.076-2.135.561-.195,1.1-.4,1.644-.6.612-.237,1.293-.5,2.073-.749a12.373,12.373,0,0,1,5.922-.549,11.864,11.864,0,0,1,5.452,2.605,19.424,19.424,0,0,1,3.286,3.528,31.291,31.291,0,0,1,4.139,7.53,65.528,65.528,0,0,1,3.492,14.982c2.526,18.731,4.352,35.677,5.319,49.33-5.726-11.428-12.179-34.251-12.878-42.643-.367-4.246-.666-8.35-1.3-12.176a33.963,33.963,0,0,0-3.3-10.565,18.791,18.791,0,0,0-2.945-4.151,6.67,6.67,0,0,0-1.662-1.236,3.5,3.5,0,0,0-1.686-.375c-1.3.006-2.959.716-4.91,1.356-1.876.609-3.731,1.119-5.566,1.595l-2.734.689-1.083.26a2.458,2.458,0,0,0-.745.279,2.359,2.359,0,0,0-.955,2.813,3.189,3.189,0,0,0,.344.731l.682,1.123c.463.816.922,1.629,1.332,2.458q1.248,2.477,2.232,5a78.311,78.311,0,0,1,3.158,10.113c.409,1.687.767,3.371,1.061,5.059.271,1.663.569,3.3.812,4.943a234.225,234.225,0,0,1,2.809,37.107c.006,2.9-.045,5.737-.113,8.528q-.067,2.091-.133,4.147-.075,1.8-.15,3.56a2.3,2.3,0,0,0,.095.878,1.088,1.088,0,0,0,.594.62,2.849,2.849,0,0,0,.847.217,10.4,10.4,0,0,0,1.359.1,18.817,18.817,0,0,0,6.614-1.043,34.131,34.131,0,0,0,6.755-3.29,39.346,39.346,0,0,0,6.641-5.2,11.524,11.524,0,0,0,3.486-6.153A24.332,24.332,0,0,0,260.572,194.7Z"></path></g><path class="cls-5" d="M123.7,188.551c16.464,13.724,52.553,19.153,88.641,16.279,3.749-.3,24.509-4.477,31.3-7.026a98.121,98.121,0,0,0,25.23-14.053v16.927s-2.555,9.261-14.791,16.487c-16.981,10.027-28.56,14.891-48.23,16.294-8.579.611-24.006,1.242-32.566.4-37.138-3.644-51.864-22.515-51.864-22.515S122.948,196.439,123.7,188.551Z" transform="matrix(-1, 0, 0, 1, 380, 0)"></path><path d="M123.746,188.555c.175.743-.022,4.546-.437,10.147-.225,2.8-.485,6.049-.769,9.592q-.1,1.2-.2,2.452c-.143.369.251.573.442.834l.874.9a50.244,50.244,0,0,0,4.338,3.751,68.252,68.252,0,0,0,10.119,6.417l2.7,1.35c.908.424,1.835.8,2.743,1.2,1.8.835,3.675,1.434,5.465,2.107a93.123,93.123,0,0,0,19.035,4.311c2.176.19,4.386.487,6.576.6s4.443.131,6.707.115c4.532-.04,9.147-.228,13.8-.491s9.384-.578,14.011-1.085a95.676,95.676,0,0,0,13.75-2.5c9.023-2.3,17.476-6.457,25.627-11.181,2.023-1.172,4.131-2.4,5.927-3.584a39.535,39.535,0,0,0,5.086-4.118,30.658,30.658,0,0,0,4.072-4.9,25.9,25.9,0,0,0,1.533-2.676c.217-.452.417-.905.59-1.345l.092-.256,0-.017c0-.054,0,.12,0-.294-.015-2.756-.031-5.509-.047-8.24l-.01-1.7-.009-.026c-.006-.012-.009-.022-.016-.019l-.034.043-.844.558-1.187.765c-.8.5-1.593,1-2.4,1.471a108.865,108.865,0,0,1-9.891,5.22c-1.691.773-3.394,1.514-5.124,2.189-.86.337-1.722.674-2.671.986-.92.307-1.808.572-2.7.824-3.545.994-7.028,1.806-10.5,2.572s-6.923,1.458-10.372,2.088c-1.726.315-3.446.613-5.207.877l-1.367.182c-.507.056-1.006.1-1.413.12l-2.587.144c-3.44.232-6.855.283-10.23.369-3.378-.016-6.718.027-10.017-.133a184.553,184.553,0,0,1-19.226-1.59,141.018,141.018,0,0,1-17.845-3.473c-2.845-.7-5.582-1.62-8.264-2.482-2.645-1-5.242-1.942-7.683-3.132a53.705,53.705,0,0,1-13.052-8.267,65.441,65.441,0,0,0,15.39,6.7,128.137,128.137,0,0,0,18.762,4.025c12.707,1.875,24.836,2.032,31.182,2.435a204.4,204.4,0,0,0,22.173.155l1.361-.051c.448-.029.775-.048,1.232-.1.86-.095,1.751-.223,2.634-.349,1.775-.264,3.549-.556,5.313-.862q5.292-.918,10.456-2.011c3.43-.734,6.834-1.512,10.063-2.468a84.346,84.346,0,0,0,9.355-3.751c3.035-1.421,5.97-2.99,8.8-4.661.7-.425,1.409-.843,2.1-1.283l1.033-.657,1.365-.912c1.923-1.334,3.907-2.9,5.74-4.355l.084.081a1.765,1.765,0,0,1,.007.25l0,.532,0,1.062-.01,2.112q-.009,2.1-.018,4.178-.014,3.052-.028,6.069,0,1.461-.01,2.916l0,1.452,0,.843a2.594,2.594,0,0,1-.226.965,25.631,25.631,0,0,1-2.823,5.368,37.291,37.291,0,0,1-8.059,8.406c-.781.555-1.543,1.135-2.338,1.657-.8.5-1.606,1.038-2.4,1.5-1.591.938-3.178,1.865-4.773,2.762a113.535,113.535,0,0,1-19.532,9.071,84.934,84.934,0,0,1-10.085,2.753c-3.375.687-6.737,1.19-10.067,1.559-6.671.675-13.118.987-19.464,1.2-3.169.1-6.3.145-9.414.111a80.236,80.236,0,0,1-9.262-.536l-4.511-.564c-1.5-.179-2.959-.522-4.426-.775-2.943-.475-5.78-1.3-8.6-2a87.467,87.467,0,0,1-15.83-6.3,61.8,61.8,0,0,1-10.69-6.927,50.637,50.637,0,0,1-5.147-4.747c-.422-.449-.734-.808-1.27-1.432l-.7-.872-.084-.109a.951.951,0,0,1,.011-.139l.031-.278.064-.554c.164-1.184.326-2.357.486-3.51C122.212,198.509,123.351,191.014,123.746,188.555Z" transform="matrix(-1, 0, 0, 1, 380, 0)"></path><path class="cls-1" d="M95.148,193.176c-5.754,13.126,4.712,28.392,15.839,37.518,19.037,15.613,44.316,17.441,67.578,16.13,24.047-1.355,47.671-6.337,68.705-18.839,5.976-3.551,50.937-35.145,45.432-45.046l4.92,4.163c5.725,10.883-41.035,45.606-47.25,49.509-21.876,13.739-46.446,19.214-71.455,20.7-24.193,1.441-50.483-.569-70.281-17.728C95.645,228.329,83.5,208.565,95.148,193.176Z" transform="matrix(-1, 0, 0, 1, 380, 0)"></path><path d="M95.186,193.205c-.194.522-1.184,1.9-2.206,4.244a22.785,22.785,0,0,0-1.893,9.795,32.481,32.481,0,0,0,3.645,13.421,57.064,57.064,0,0,0,9.687,13.519,56.272,56.272,0,0,0,6.567,5.966l1.759,1.393c.586.467,1.232.854,1.845,1.286a44.3,44.3,0,0,0,3.788,2.425,71.267,71.267,0,0,0,16.168,6.971,89.171,89.171,0,0,0,15.755,3.116,118.2,118.2,0,0,0,13.068.73c6.523.021,13.182-.348,19.9-.973a192.75,192.75,0,0,0,20.223-2.962,135.387,135.387,0,0,0,39.059-13.981l2.286-1.273,2.237-1.36c.728-.45,1.526-.917,2.2-1.354.69-.459,1.408-.965,2.118-1.473,2.849-2.045,5.676-4.194,8.463-6.368,5.574-4.359,11.026-8.866,16.23-13.546a128.379,128.379,0,0,0,14.366-14.754,40.177,40.177,0,0,0,2.787-3.973,14.251,14.251,0,0,0,1.733-3.869,4.863,4.863,0,0,0,.116-.778,2.06,2.06,0,0,0,0-.314c.015-.1-.037-.2-.015-.163a.109.109,0,0,0-.021-.049l-.023-.016-.357-.3-3.937-3.3,4.629-3.8c.164.328.311.635.431.944a7.642,7.642,0,0,1,.336,3.7,12.248,12.248,0,0,1-.826,2.885,23.773,23.773,0,0,1-2.541,4.479,60.637,60.637,0,0,1-6.1,7.205,164.508,164.508,0,0,1-13.492,12.2c-4.645,3.805-9.381,7.426-14.187,10.909-2.407,1.74-4.823,3.444-7.3,5.1l-1.9,1.24c-.317.2-.676.427-1.016.623l-.978.553c-1.31.722-2.585,1.508-3.921,2.172a131.66,131.66,0,0,1-32.97,11.969,190.4,190.4,0,0,1-33.353,4.211,146.755,146.755,0,0,1-32.039-1.67,78.578,78.578,0,0,1-28.457-10.529l-3.042-2.055c-1.007-.682-1.924-1.482-2.88-2.212l-1.409-1.12-1.339-1.19c-.907-.773-1.719-1.638-2.572-2.447a56.848,56.848,0,0,1-8.464-10.871,34,34,0,0,1-4.64-12.349,21.663,21.663,0,0,1,1.622-12.4,21.321,21.321,0,0,0-.461,11.71A29.293,29.293,0,0,0,95.99,210.6a41.446,41.446,0,0,0,3.433,5.777A60.819,60.819,0,0,0,120.64,234.6a67.343,67.343,0,0,0,12.717,5.132c2.108.685,4.248,1.132,6.3,1.644,2.088.389,4.095.839,6.075,1.094a161.034,161.034,0,0,0,19.429,1.6c6.75.231,13.5.05,20.143-.378a180.257,180.257,0,0,0,19.59-2.338A130.078,130.078,0,0,0,241,229.524c1.4-.675,2.745-1.446,4.1-2.192.674-.378,1.364-.738,1.983-1.128l1.937-1.237c2.579-1.694,5.115-3.456,7.613-5.235,4.992-3.565,9.833-7.229,14.478-11.009a149.958,149.958,0,0,0,13.128-11.858,49.853,49.853,0,0,0,5.455-6.573,16.287,16.287,0,0,0,1.872-3.56,3.99,3.99,0,0,0,.067-3.2l-3.6-6.165,5.46,4.637,2.989,2.538,1.571,1.333c.175.143.334.3.5.447s.2.395.306.588a5.334,5.334,0,0,1,.375,1.29,8.913,8.913,0,0,1-.616,4.429,22.141,22.141,0,0,1-1.836,3.651,71.654,71.654,0,0,1-9.9,11.916,255.814,255.814,0,0,1-22.305,19.562c-3.8,3-7.593,5.9-11.48,8.65-.959.681-2,1.382-3.016,1.973l-3.035,1.84c-2.067,1.135-4.092,2.328-6.195,3.342a133.429,133.429,0,0,1-25.56,9.738c-4.306,1.187-8.626,2.1-12.911,2.931-4.3.754-8.563,1.414-12.8,1.872s-8.438.823-12.6,1.035c-4.159.246-8.29.312-12.377.284a118.575,118.575,0,0,1-23.9-2.544,77.568,77.568,0,0,1-21.63-8.084,63.044,63.044,0,0,1-14.986-11.629,57.019,57.019,0,0,1-11.438-17.056,34.509,34.509,0,0,1-2.472-9.224,24.49,24.49,0,0,1,.383-8.268,21.545,21.545,0,0,1,2.316-6.017c.413-.8.9-1.436,1.264-2.019Z" transform="matrix(-1, 0, 0, 1, 380, 0)"></path><path class="cls-3" d="M140.736,214.988c-.97-.214-.748-2.176-1.274-2.968a10.433,10.433,0,0,1-1.319-4.25,7.447,7.447,0,0,1,1.946-6.376c2.656.5,4.567,1.869,4.126,2.407a6.788,6.788,0,0,0-1.777,5.449c.152,1.573.622,2.99.1,4.16C142.39,213.978,141.049,214.834,140.736,214.988Z" transform="matrix(-1, 0, 0, 1, 380, 0)"></path><g class="cls-4" transform="matrix(-1, 0, 0, 1, 380, 0)"><path d="M233.872,202.859l1.1,17.788c6.624-1.638,13.306-3.3,19.437-6.289,2.139-1.044,4.318-2.367,5.37-4.5a11.692,11.692,0,0,0,.825-5.289,123.928,123.928,0,0,0-.715-12.452,88.6,88.6,0,0,1-26.023,10.243"></path><path d="M233.851,202.289c.207-.8,3.546-1.853,7.281-3.336a56.243,56.243,0,0,0,9.965-4.8l.839-.575.423-.287.213-.143.331-.209c.917-.589,1.847-1.126,2.9-1.834l6.807-4.412a2.949,2.949,0,0,1,.2.865l.158.986q.158,1.008.314,2.022c.206,1.369.42,2.783.6,4.265q.137,1.112.253,2.264l.2,2.18q.137,1.314.237,2.635t.164,2.641a23.609,23.609,0,0,1-.011,3.028,12.472,12.472,0,0,1-.83,3.7,11.375,11.375,0,0,1-2.192,3.415,20.348,20.348,0,0,1-6.446,4.328,52.4,52.4,0,0,1-6.053,2.379c-2.013.658-4.006,1.191-5.954,1.638l-3.857.863c-1.765.394-3.474.746-5.123,1.087l-2.425.49-.3.059c-.1.016-.228.082-.19-.084l-.015-.662-.028-1.306q-.033-2.528-.064-4.987a57.907,57.907,0,0,1,.22-6.506c.257-3.3.618-6.34,1.081-9.054a30.655,30.655,0,0,1,5.14,8.95c.316.815.6,1.62.835,2.4l.172.575a.738.738,0,0,0,.123.041.531.531,0,0,0,.195.009c.214-.037.246-.182.092.039-.228.316-.241.525-.131.7a.681.681,0,0,0,.273.221,1.241,1.241,0,0,0,.207.081c.027,0,.023.016.077.013l.2-.021.4-.043a58.848,58.848,0,0,0,6.2-1.008,42.02,42.02,0,0,0,5.694-1.68,17.058,17.058,0,0,0,4.725-2.434,5.07,5.07,0,0,0,1.961-3.712,37.012,37.012,0,0,0-.061-5.106q-.077-1.293-.189-2.552c-.058-.519-.12-.959-.187-1.4q-.1-.624-.209-1.235l-.11-.561-.055-.267c-.021-.085-.012-.223-.139-.1-.7.48-1.335.9-1.924,1.258-.279.177-.614.362-.914.531l-.114.064-.219.111-.477.238-.948.467a46.625,46.625,0,0,1-7.506,2.846,28.218,28.218,0,0,1-6.815,1.019A37.759,37.759,0,0,1,233.851,202.289Z"></path></g></svg>