<svg xmlns="http://www.w3.org/2000/svg" id="new" viewBox="0 0 380 600"><defs transform="matrix(-1, 0, 0, 1, 380, 0)"><style>.cls-1{fill:#353535;}.cls-2{opacity:0.4;}.cls-3{fill:#fffffe;}.cls-4{fill:#f9a;}.cls-5{fill:#fff;}.cls-6{fill:#ffd635;}.cls-7{fill:#51e9f4;}</style></defs><path class="cls-1" d="M313.32,226.79,298,225.14c-13-1.41-25.57,15.53-28,37.84s6.21,41.54,19.25,42.95l15.34,1.66c13,1.41,25.57-15.54,28-37.85S326.36,228.2,313.32,226.79Z" transform="matrix(-1, 0, 0, 1, 380, 0)" /><path d="M313.32,226.73a5.07,5.07,0,0,1,2.22,0,13.64,13.64,0,0,1,4.47,1.61c3.45,1.86,7,5.83,9.43,10.71a50.45,50.45,0,0,1,4.66,15.76,79,79,0,0,1,.6,13.45,64.29,64.29,0,0,1-3.29,18.5,52.11,52.11,0,0,1-4,9.07,41.13,41.13,0,0,1-2.78,4.28,32.46,32.46,0,0,1-3.39,4,24.6,24.6,0,0,1-9.14,6,18.2,18.2,0,0,1-5.75,1.08,12.35,12.35,0,0,1-1.49,0l-.72-.05-.59-.05-2.36-.22-9.37-.89-2.32-.22-.58-.05-.72-.1a10.11,10.11,0,0,1-1.44-.26,18.85,18.85,0,0,1-5.35-2.08,24.4,24.4,0,0,1-7-6.3,35.83,35.83,0,0,1-4.44-7.68,53.29,53.29,0,0,1-4-16.35,68.11,68.11,0,0,1,.49-16.12,66.63,66.63,0,0,1,4-15,49.76,49.76,0,0,1,7.46-13A28.27,28.27,0,0,1,289.36,224a17.49,17.49,0,0,1,7.05-1.19c.58,0,1.17.11,1.74.16l1.49.24,2.91.49c3.83.66,7.47,1.31,10.89,1.95-3.18.49-7.07.84-11.25,1.07l-3.19.14c-.51,0-1.12,0-1.57.08l-.7.07-.69.12a14.34,14.34,0,0,0-5.11,2.09,27.6,27.6,0,0,0-7.37,7.59c-1.86,2.7-3.17,5.23-4.18,6.93a57.19,57.19,0,0,0-7.12,22.55,53.84,53.84,0,0,0,2.08,22.45,31.38,31.38,0,0,0,4.9,9.42,16.41,16.41,0,0,0,7.91,5.77c.38.12.77.19,1.15.29l1.18.18,2.63.29,5.2.55,5.12.52c.84.08,1.71.18,2.51.24a12.78,12.78,0,0,0,2.23,0,16.17,16.17,0,0,0,8.14-3.43A29.72,29.72,0,0,0,321.4,296a51.1,51.1,0,0,0,7-15.91,70.14,70.14,0,0,0,2.28-16.24,64.25,64.25,0,0,0-1.35-15.18,56.74,56.74,0,0,0-2.22-7.6,39.8,39.8,0,0,0-1.76-4,29.87,29.87,0,0,0-2.26-3.62,18.78,18.78,0,0,0-5.5-5.06A16.09,16.09,0,0,0,313.32,226.73Z" transform="matrix(-1, 0, 0, 1, 380, 0)" /><g class="cls-2" transform="matrix(-1, 0, 0, 1, 380, 0)"><path class="cls-3" d="M300.76,231.12c.06.32-.44,1-1.2,1.9s-1.73,2.13-2.67,3.51a32.73,32.73,0,0,0-4.27,8.15,83.13,83.13,0,0,0-2.89,41.76,48.6,48.6,0,0,0,5.08,14.67,16.56,16.56,0,0,1-10.69-11.21,104.83,104.83,0,0,1-.7-16.52,122.14,122.14,0,0,1,1.32-14.15,67,67,0,0,1,3-12.16,35.15,35.15,0,0,1,5.13-9.76,20.35,20.35,0,0,1,4.23-4.07A22.22,22.22,0,0,1,300.76,231.12Z" style="" /></g><path class="cls-4 color-headphone1" d="M324.7,237.81l-6.86-.79c-9.28-1.08-18.19,11.89-19.9,29s4.41,31.8,13.69,32.88l6.86.8c9.28,1.07,18.19-11.9,19.9-29S334,238.89,324.7,237.81Z" style="" transform="matrix(-1, 0, 0, 1, 380, 0)" /><path d="M324.7,237.77a4.39,4.39,0,0,1,1.58,0,9.64,9.64,0,0,1,3.15,1.22l.46.26c.15.1.29.22.44.33l.91.71a24.55,24.55,0,0,1,1.76,1.77,24.13,24.13,0,0,1,3,4.66,39.42,39.42,0,0,1,3.39,11.15,71.67,71.67,0,0,1,.75,9.51,53.2,53.2,0,0,1-1.48,13.22,41.81,41.81,0,0,1-5.51,13,24.62,24.62,0,0,1-5.06,5.58,14.13,14.13,0,0,1-7.49,3.19c-.71.06-1.44,0-2.16,0s-1.14-.11-1.72-.16l-3.31-.34-1.64-.17-.41,0-.52-.09-1.05-.21a9.38,9.38,0,0,1-2-.66,9,9,0,0,1-1.82-.94,8.73,8.73,0,0,1-1.44-1c-.43-.37-.89-.73-1.3-1.11a21,21,0,0,1-2.15-2.51,26.7,26.7,0,0,1-3.1-5.48,41.88,41.88,0,0,1-2.91-11.55,53.67,53.67,0,0,1,0-11.4A58,58,0,0,1,297.12,256a44.29,44.29,0,0,1,4.2-9.63,27.56,27.56,0,0,1,6.52-7.68,20.19,20.19,0,0,1,2.06-1.4c.73-.4,1.5-.73,2.24-1a11.73,11.73,0,0,1,4.8-.67c.39,0,.8.05,1.16.11l1,.18,2,.37,3.74.74c-1.13.18-2.38.33-3.73.46l-2.08.18-1.08.07c-.36,0-.69.11-1,.16a11.49,11.49,0,0,0-6.75,4.25c-3.57,4.2-5.32,9.4-6.51,11.95a42.76,42.76,0,0,0-2.76,8.1c-.19.68-.34,1.38-.46,2.07s-.25,1.39-.38,2.09c-.15,1.39-.39,2.78-.44,4.16a41.94,41.94,0,0,0,1.76,16,22.42,22.42,0,0,0,3.39,6.73,11.63,11.63,0,0,0,5.46,4.23c.53.15,1.07.24,1.62.36l1.87.22,3.68.42a14.45,14.45,0,0,0,1.76.14,6,6,0,0,0,1.58-.08,5.87,5.87,0,0,0,1.54-.37,6.83,6.83,0,0,0,1.48-.62,16,16,0,0,0,4.93-4.16,28.42,28.42,0,0,0,3.46-5.46A44.44,44.44,0,0,0,336,276a56.65,56.65,0,0,0-.16-22.4,31.86,31.86,0,0,0-4.32-10.84,13.65,13.65,0,0,0-3.77-3.72l-.94-.5-.43-.23-.41-.13Z" transform="matrix(-1, 0, 0, 1, 380, 0)" /><path class="cls-5" d="M315,240.62c0,.37-1.26,1.42-2.54,2.85a20,20,0,0,0-3.07,4.27,54.44,54.44,0,0,0-4.47,12.56,82.27,82.27,0,0,0-1.5,10.87c-.25,3.43-.25,6.58-.25,9.17a11.27,11.27,0,0,1-2.67-4.11,9,9,0,0,1-.79-4c.52-3.34,1.13-6.36,1.76-9.18a80.31,80.31,0,0,1,2.13-7.81c1.59-4.79,3.66-8.9,6.51-11.66a8.25,8.25,0,0,1,1.22-1,11.35,11.35,0,0,1,1.47-.93A13.91,13.91,0,0,1,315,240.62Z" style="" transform="matrix(-1, 0, 0, 1, 380, 0)" /><path class="cls-6" d="M317.59,259.86a44.62,44.62,0,0,0-.41,13.79c.38,3,1.14,6.14,3.11,8.48a4.45,4.45,0,0,0,2.34,1.6c1.94.43,3.71-1.2,4.83-2.85,5.69-8.4,4.78-24.5-3.28-31.36C320.35,251.7,318.39,255.62,317.59,259.86Z" transform="matrix(-1, 0, 0, 1, 380, 0)" /><path d="M317.53,259.85c-.27-.21-.36-1.09-.17-2.37a13.55,13.55,0,0,1,1.62-4.63,6.75,6.75,0,0,1,.37-.62,6,6,0,0,1,.45-.65A13.89,13.89,0,0,1,321,250.2a18.65,18.65,0,0,1,2.76-2.22l.37-.25c.12-.08.25-.23.34-.07l.62.5,1.19.94c.73.69,1.38,1.37,2,1.91a5.58,5.58,0,0,1,.69.79l.54.64.53.65.46.7c.3.47.62,1,.9,1.45l.76,1.53a26.5,26.5,0,0,1,2,6.64,33.91,33.91,0,0,1,.42,3.49c0,1.17.09,2.35,0,3.52a29.14,29.14,0,0,1-1.17,6.93,21.29,21.29,0,0,1-3,6.26,12.34,12.34,0,0,1-1.32,1.53,5.24,5.24,0,0,1-.41.39c-.16.15-.35.3-.53.45a9.61,9.61,0,0,1-1.15.77,7.28,7.28,0,0,1-5.22.85,7.47,7.47,0,0,1-3.18-1.65,10.13,10.13,0,0,1-1.25-1.29c-.26-.34-.52-.68-.74-1a14.77,14.77,0,0,1-1.91-4.25,25.86,25.86,0,0,1-.8-7.65,32.18,32.18,0,0,1,2.56-12.08,65.61,65.61,0,0,1,3.2,8.12c.9,2.68,1.61,5.05,1.52,6.32a13.6,13.6,0,0,0,.32,4.63,8.41,8.41,0,0,0,.76,1.84,1.68,1.68,0,0,0,.73.86,1.62,1.62,0,0,0,1.52-.11,4.12,4.12,0,0,0,.85-.67,5.79,5.79,0,0,0,.84-1,16.11,16.11,0,0,0,2.39-5,24.34,24.34,0,0,0,.52-10.51,25.28,25.28,0,0,0-3-8.71l-.57-.87c-.22-.32-.31-.5-.42-.62s-.4-.53-.64-.77l-.35-.37-.09-.1s-.06-.06-.1,0l-.21.1a7.84,7.84,0,0,0-.83.49l-.52.37-.32.24-.46.44a19.48,19.48,0,0,0-1.82,2.09A31.3,31.3,0,0,0,317.53,259.85Z" transform="matrix(-1, 0, 0, 1, 380, 0)" /><path class="cls-4 color-headphone1" d="M91,208.7c-11.21-2.18-22.41,9.8-25,26.75-2.1,13.69,2,26.43,9.62,32C77.45,268.75,94,209.27,91,208.7Z" style="" transform="matrix(-1, 0, 0, 1, 380, 0)" /><path d="M91,208.66c.1-.07.33.06.44.29a2.56,2.56,0,0,1,.26.87,14,14,0,0,1,0,2.71,78.86,78.86,0,0,1-1.17,8c-1.13,6-2.75,12.76-3.48,16.55-1.3,6.71-3,13.83-5,21-.51,1.78-1,3.57-1.64,5.36l-.22.67-.32.89c-.29.81-.61,1.62-1,2.38a6.15,6.15,0,0,1-1.21,1.9,3.06,3.06,0,0,1-1.57.87c-1.18-.38-2.32-.33-3.6-1.75a20.93,20.93,0,0,1-1.84-1.7l-1.13-1.31a29,29,0,0,1-3.17-5,39.62,39.62,0,0,1-3.89-19.06,45.4,45.4,0,0,1,4.19-17.82,31.59,31.59,0,0,1,10.58-13,19.86,19.86,0,0,1,7-3,15.9,15.9,0,0,1,6.85.31A18.38,18.38,0,0,0,79.44,214c-3.17,3.29-5,7.2-6.34,9.06a37.47,37.47,0,0,0-5.2,12.6,39.89,39.89,0,0,0-.61,13.07,32.49,32.49,0,0,0,1.32,6.12A26.9,26.9,0,0,0,71,260.4a25.8,25.8,0,0,0,1.62,2.44l.86,1a8.11,8.11,0,0,0,.65.66,5.51,5.51,0,0,0,.68.6l.35.28c.06,0,.11.11.18.11s.12-.09.17-.14a9,9,0,0,0,.72-1.63c.27-.77.53-1.53.79-2.29s.58-1.79.86-2.68q.81-2.65,1.55-5.27c1-3.47,1.89-6.84,2.75-10.1,1.71-6.53,3.27-12.62,4.83-18.28.69-2.7,1.86-6.33,2.81-9.54.47-1.61.89-3.11,1.16-4.34a12.45,12.45,0,0,0,.28-1.61C91.3,209.21,91.33,208.79,91,208.66Z" transform="matrix(-1, 0, 0, 1, 380, 0)" /><path class="cls-4 color-headphone1" d="M211.12,159.08C155.86,151.81,99.47,174.53,81.51,222l11.11-2.92c11.62-21.31,43.21-47.23,96.44-44.17,54.59,3.13,94.25,33.63,111.41,77.39l10.06-.18a35.79,35.79,0,0,1,9.66-12.68C303.92,191.75,250.21,164.23,211.12,159.08Z" style="" transform="matrix(-1, 0, 0, 1, 380, 0)" /><path d="M211.12,159c1.2,0,7.52.51,16.56,2.76a153.87,153.87,0,0,1,32.55,12.25,146.68,146.68,0,0,1,33.06,22.83,121.1,121.1,0,0,1,12.42,13.36,113.12,113.12,0,0,1,8.42,12.25c.71,1.25,1.45,2.49,2.14,3.77l2,4,1.86,4.19c.29.73.57,1.47.86,2.22l.61,1.62c.22.58.47,1.19.66,1.78l-1.57,1.26-.75.66-.45.43c-.55.56-1.1,1.14-1.61,1.75A36.89,36.89,0,0,0,315,248c-.44.68-.87,1.38-1.26,2.09-.2.35-.4.71-.58,1.07l-.39.76-.47.95-.47,1c-.05.06-.05.2-.14.19h-.8l-2.12.06-2.59.07-6.21.17h-.83a1.75,1.75,0,0,1-.11-.24l-.45-1-.87-2-1-2.34-1.05-2.35-.52-1.18c-.18-.39-.4-.76-.59-1.14l-2.42-4.56A116.37,116.37,0,0,0,230,186.19a138.1,138.1,0,0,0-40.11-8.32c-.81-.09-1.62-.11-2.43-.12L185,177.7l-4.87-.1c-3.25,0-6.48.26-9.71.38l-4.81.54-2.4.27a21.15,21.15,0,0,0-2.39.34l-4.74.87-2.36.44-2.33.6-4.64,1.19c-1.53.44-3,1-4.54,1.48-3.05.92-5.93,2.26-8.86,3.44-1.46.62-2.83,1.4-4.25,2.08L127,190.29c-.71.35-1.36.78-2,1.17l-4,2.41-3.85,2.66a86.16,86.16,0,0,0-13.74,12.36l-2.9,3.52c-.92,1.21-1.76,2.47-2.64,3.69a22.4,22.4,0,0,0-1.2,1.9l-1.5,2.49-.6,1a5.05,5.05,0,0,1-1.08.34l-1.76.45-2.27.59-7.61,2-4.27,1.06L77,226l-.13,0c-.05,0-.11,0-.06,0l.1-.26.43-1,.85-2.07,1.7-4.1.84-2,.83-1.75c.69-1.43,1.36-2.87,2.16-4.24a88.88,88.88,0,0,1,10.6-15.4,101,101,0,0,1,27.75-22.46,121.49,121.49,0,0,1,15.45-7.19,123.22,123.22,0,0,1,15.65-4.9,149.24,149.24,0,0,1,58.06-2.35,187.76,187.76,0,0,0-27.63.55,154.79,154.79,0,0,0-15.6,2.27,144.53,144.53,0,0,0-30,9.32,137.87,137.87,0,0,0-12.65,6.44,123.29,123.29,0,0,0-17.52,12.49c-.8.64-1.55,1.34-2.31,2s-1.53,1.37-2.25,2.1c-1.43,1.46-2.91,2.88-4.23,4.42a84.3,84.3,0,0,0-7.44,9.59L89.94,210c-.56.84-1,1.74-1.52,2.6s-1,1.73-1.43,2.64l-.67,1.34-.31.63-.1.19c-.14.22-.24.48-.37.74l-.19.4-.1.21s.11,0,.16,0l.81-.16.43-.09.23-.05.68-.17,2.94-.73.53-.13.24,0c.09,0,.11-.12.16-.18l.17-.26,1.63-2.65c.56-.86,1.19-1.68,1.78-2.52s1.17-1.69,1.84-2.46l2-2.34,1-1.17c.34-.38.7-.74,1-1.11l2.1-2.18a90.26,90.26,0,0,1,18.91-14.39l2.53-1.48c.87-.45,1.75-.86,2.62-1.3l2.61-1.28,1.3-.64,1.34-.55,5.34-2.17,5.44-1.79a56.51,56.51,0,0,1,5.48-1.53l2.74-.69c.92-.23,1.83-.47,2.76-.61,3.69-.63,7.35-1.4,11-1.69a150.83,150.83,0,0,1,43,1.69,130.42,130.42,0,0,1,38.65,13.46,119.89,119.89,0,0,1,51.66,54.22l1.8,4.12.89,2,.21.46.11.25.05.12s.08,0,.12,0l7.44-.17h.51l.23-.46.11-.23.23-.43c.17-.33.36-.65.54-1a42,42,0,0,1,2.41-3.75,37.23,37.23,0,0,1,2.81-3.46c.5-.55,1-1.08,1.57-1.6l.25-.23.18-.17c.13-.11.25-.21.38-.3a3.38,3.38,0,0,0-.16-.48l-.21-.54-.77-2.07c-.58-1.35-1.16-2.69-1.73-4s-1.28-2.62-1.9-3.92-1.39-2.54-2.07-3.8a103.46,103.46,0,0,0-9.6-13.93A127.86,127.86,0,0,0,278.28,188a163.19,163.19,0,0,0-17.2-11,167.67,167.67,0,0,0-20.14-9.53,156.46,156.46,0,0,0-18.42-6C217.24,160.09,213.14,159.41,211.12,159Z" transform="matrix(-1, 0, 0, 1, 380, 0)" /><path class="cls-7 color-catears" d="M226.53,161.76a56,56,0,0,0-17.08,8.67,16,16,0,0,1,.87,6.33c31.47,4.32,58.48,23.86,77.39,52.23,7-.93,11.5-4.47,15.81-10.06a7.85,7.85,0,0,0,1.64-3.11,9.55,9.55,0,0,0-.11-3.41q-1.56-9.75-3.1-19.51" style="" transform="matrix(-1, 0, 0, 1, 380, 0)" /><path d="M302,192.89c.57.6,1.81,7,3.15,14.32.33,1.85.68,3.76,1,5.65a8.8,8.8,0,0,1,.06,3.25A8.31,8.31,0,0,1,304.9,219a37.85,37.85,0,0,1-6.49,7.22,20.77,20.77,0,0,1-5.92,3.48c-.54.22-1.1.39-1.67.57l-.42.12-.51.12c-.45.12-.88.2-1.32.28l-1.34.24-.34.07c-.07,0-.1,0-.13-.07l-.1-.13-.41-.54c-.51-.68-1-1.37-1.52-2.06-1.31-1.74-2.6-3.51-4-5.2-.7-.85-1.39-1.71-2.09-2.57s-1.46-1.67-2.18-2.5a130.32,130.32,0,0,0-19.05-17.92,115.52,115.52,0,0,0-23.51-13.84,108.14,108.14,0,0,0-12.13-4.46c-2-.6-4-1.07-6-1.61l-3-.61-2.34-.45c-.87-.17-1.77-.32-2.57-.51.07-1,.15-2.07.19-3,0-.24,0-.5,0-.68l0-.52c0-.23,0-.46-.05-.68l-.08-.66c0-.13,0-.19-.06-.37l-.13-.58c-.21-.84-.49-1.67-.73-2.46.58-.45,1.25-.88,1.84-1.29l.85-.57c.27-.17.61-.41.77-.5.78-.47,1.55-.92,2.33-1.34a51.81,51.81,0,0,1,13.46-5c-2.22,1.41-4.93,3.11-7.65,5.07-1.36,1-2.72,2-4,3.09-.66.53-1.3,1.08-1.94,1.62a3.58,3.58,0,0,0-.37.44c0,.09-.1.16-.09.24s.18.21.26.32a4.48,4.48,0,0,1,.2.68c.08.3.15.61.21.91l.15.83c0,.12,0,.13.06.14a.16.16,0,0,0,.09,0c.05,0,.1,0,.1-.06v0l.16,0,.84.13a23.75,23.75,0,0,1,2.8.56,127.68,127.68,0,0,1,17.11,6.24,132.67,132.67,0,0,1,14.92,8.1,140.5,140.5,0,0,1,23.81,19.32c1.63,1.75,3.29,3.44,4.83,5.17l2.26,2.61c.75.86,1.49,1.72,2.17,2.61l2.07,2.62,1,1.3,1,1.32c.6.82,1.18,1.64,1.77,2.45a5.13,5.13,0,0,0,.45.57c.25,0,.5-.08.74-.15l.51-.12c.23-.05.46-.13.69-.19.46-.12.9-.28,1.35-.44a18.58,18.58,0,0,0,2.52-1.16,21.32,21.32,0,0,0,4.38-3.28,38.81,38.81,0,0,0,3.64-4.06,7.65,7.65,0,0,0,1.2-1.94,4.29,4.29,0,0,0,.23-2c-.06-.73-.21-1.7-.31-2.68s-.21-2-.32-3.07c-.21-2.11-.39-4.32-.54-6.38C302.24,197.64,302,194.07,302,192.89Z" transform="matrix(-1, 0, 0, 1, 380, 0)" /><path class="cls-7 color-catears" d="M223.29,161.6c2.56.57,10,2.63,12.62,2.67,1.29-14.41,10.34-30.3,23.19-37.46a9.75,9.75,0,0,1,6-1.58,10.75,10.75,0,0,1,5.15,2.89c12,10.27,20.29,24,25.66,38.69,5.78,15.83,10.87,33.95,9.38,50.92" style="" transform="matrix(-1, 0, 0, 1, 380, 0)" /><path d="M305.2,217.73c-.59-.75-.25-7.25-1.34-14.67a113.15,113.15,0,0,0-2.11-11.18c-.87-3.55-1.85-6.71-2.64-8.94-1.43-3.94-3-8-4.65-12.07s-3.39-8.16-5.41-12.12a91.56,91.56,0,0,0-14.74-21.39c-1.25-1.32-2.53-2.61-3.86-3.84-.65-.63-1.34-1.21-2-1.81s-1.36-1.19-1.94-1.61a6.67,6.67,0,0,0-1.5-.88,2.19,2.19,0,0,0-1-.14,9.06,9.06,0,0,0-3.57,1.47,43.38,43.38,0,0,0-14,13.65A54.13,54.13,0,0,0,238.88,161c-.15.61-.25,1.25-.37,1.82s-.25,1.11-.37,1.65-.25,1.07-.37,1.59l-.09.39c0,.06,0,.16-.06.17l-.22,0-.85-.09a31.41,31.41,0,0,1-3.25-.49l-1.57-.38-.63-.18-.51-.16c-2.71-.84-5.23-1.77-7.54-2.59a71.57,71.57,0,0,1,8.21-.28,9.88,9.88,0,0,0,1,0l.7-.1a4.31,4.31,0,0,0,1-.31c.2,0,.06-.36,0-.56l-.12-.62-.11-.51c0-.08,0-.13-.06-.19s0-.39,0-.58c.3-6.65,2.54-12.7,4.33-15.45a65.76,65.76,0,0,1,5.84-7.8,60,60,0,0,1,6.79-6.48,47.59,47.59,0,0,1,7.66-4.91,14,14,0,0,1,4.64-1.48,8,8,0,0,1,2.67.14,8.83,8.83,0,0,1,2.38.94,19.21,19.21,0,0,1,3.52,2.72c1,.94,2,1.85,3,2.82,1.93,1.89,3.7,3.87,5.4,5.86a99.13,99.13,0,0,1,8.83,12.29,114,114,0,0,1,6.6,12.55c1.87,4.19,3.39,8.31,4.81,12.3a116.19,116.19,0,0,1,5.88,23.12,60.3,60.3,0,0,1,.39,12.62c-.09,1.06-.15,2.08-.28,3s-.25,1.83-.36,2.62C305.57,216,305.32,217.14,305.2,217.73Z" transform="matrix(-1, 0, 0, 1, 380, 0)" /><path class="cls-7 color-catears" d="M159.33,163.86c-4.09,2.6-7.79,5.73-11.6,8.72a2.67,2.67,0,0,0-.89,1c-.76,1.74,2.28,2.93,2.47,4.82-7.55,3.53-15.58,5.27-22.83,9.23a153.58,153.58,0,0,0-15.78,9.92c-4.57,3.27-7.34,8.61-11.81,2.53a3.48,3.48,0,0,1-.88-1.89c0-1.06.86-1.89,1.59-2.67a11.76,11.76,0,0,0,3-9.41" style="" transform="matrix(-1, 0, 0, 1, 380, 0)" /><path d="M102.59,186.08a5.35,5.35,0,0,1,.4,2.73,11.76,11.76,0,0,1-1.71,5.51,21.38,21.38,0,0,1-2,2.59,1.52,1.52,0,0,0-.14,2.09c1.1,1.55,2.5,2.81,3.41,2.77a2.31,2.31,0,0,0,1.19-.22,6.76,6.76,0,0,0,1.25-.83c.85-.69,1.69-1.57,2.61-2.45.46-.44.94-.88,1.44-1.31l.79-.64.76-.59c1-.77,2.06-1.53,3.11-2.28a136.9,136.9,0,0,1,13-8.13,82.22,82.22,0,0,1,11.95-4.9c2-.68,3.87-1.33,5.72-2l1.37-.52.68-.27.08,0h.06l.16,0c.05,0,0-.08,0-.12a.85.85,0,0,0-.08-.17l-.5-.59c-.07-.11-.22-.27-.34-.46s-.23-.36-.32-.55a3.06,3.06,0,0,1-.23-2.38,3.49,3.49,0,0,1,1.45-1.87l4.31-3.08a66.42,66.42,0,0,1,8-5c-1.7,2-4.17,4.74-6.57,7.26-1.21,1.25-2.41,2.43-3.52,3.42l-.09.08v0h0l0,0,0,0h0s-.06,0,0,.08l.33.45.72.88a5,5,0,0,1,1,1.95c.07.32.11.63.17,1l0,.26c0,.08.06.17,0,.2l-.44.27c-.58.35-1.11.7-1.71,1l-1,.41-.63.22-1.2.4-2.37.76c-3.13,1-6.15,1.86-9,2.86a54.13,54.13,0,0,0-8,3.48c-2.5,1.36-4.87,2.78-7.13,4.21s-4.38,2.9-6.41,4.36c-1,.74-2,1.45-2.88,2.2s-1.74,1.58-2.65,2.39a10.05,10.05,0,0,1-3.23,2.11,4.31,4.31,0,0,1-1.09.23l-.57,0a5.39,5.39,0,0,1-.56-.08,3.61,3.61,0,0,1-1-.35,3.89,3.89,0,0,1-.88-.53,10.88,10.88,0,0,1-2.43-2.64,4.14,4.14,0,0,1-.78-2,3.27,3.27,0,0,1,.65-2.1A9.14,9.14,0,0,1,98.77,195a12.46,12.46,0,0,0,1.1-1.18,12.11,12.11,0,0,0,1.75-2.91A12.39,12.39,0,0,0,102.59,186.08Z" transform="matrix(-1, 0, 0, 1, 380, 0)" /><path class="cls-7 color-catears" d="M95.46,198.82a17.85,17.85,0,0,0,6.92-10.58,41.73,41.73,0,0,0,.64-7,124.46,124.46,0,0,1,13.53-51.07c1.8-3.51,4.29-9.91,8.33-11.53,1.36-.55,2.91,0,4.22.67,10.3,5.18,30.1,35.29,30.1,45.08" style="" transform="matrix(-1, 0, 0, 1, 380, 0)" /><path d="M159.14,164.42c-.33-.31-.59-1.78-1.44-3.88a67.4,67.4,0,0,0-3.65-7.67,98.54,98.54,0,0,0-10-14.92c-2.35-2.75-4.81-5.57-7.44-8.25-1.31-1.34-2.65-2.65-4-3.86a28.48,28.48,0,0,0-4.22-3.13,8.38,8.38,0,0,0-1.9-.8.63.63,0,0,0-.23,0h-.11c-.06,0-.15,0-.16.09a5.26,5.26,0,0,0-1.24,1.07,14.44,14.44,0,0,0-1.35,1.86,45.62,45.62,0,0,0-2.44,4.8c-.82,1.75-1.63,3.49-2.44,5.2a151.82,151.82,0,0,0-11,35.41c-.51,2.86-.94,5.67-1.28,8.41-.16,1.39-.31,2.75-.47,4.09a40.9,40.9,0,0,1-.62,4.26,18.94,18.94,0,0,1-3.46,7.74,18,18,0,0,1-5.59,4.93,25.62,25.62,0,0,0,3-6.55,19.3,19.3,0,0,0,.71-3.65,20.73,20.73,0,0,0,0-3.61c-.09-1.22-.23-2.46-.35-3.73s-.17-2.57-.2-3.74a26.48,26.48,0,0,1,.43-5.69,181.57,181.57,0,0,1,9.15-29.58q2.72-6.69,5.77-12.71c.53-1,1-1.94,1.47-2.94s1-2,1.47-3a22.1,22.1,0,0,1,3.93-5.61,8.46,8.46,0,0,1,3.34-2,5.42,5.42,0,0,1,2.16-.09,8.84,8.84,0,0,1,1.85.51,21.68,21.68,0,0,1,5.5,3.47,67.88,67.88,0,0,1,8.17,8.31,97.51,97.51,0,0,1,11.65,17.19,51,51,0,0,1,4,10.22,29.82,29.82,0,0,1,.93,4.92A11.61,11.61,0,0,1,159.14,164.42Z" transform="matrix(-1, 0, 0, 1, 380, 0)" /><path d="M241.49,169.74A120.6,120.6,0,0,1,250,152.6c2.93-4.88,5-10.24,8.7-14.63s7.33,2.24,9.13,5.1c7.42,11.72,11,26.89,13.3,40.41.19,1.07.24,2.43-.71,3-2.8,1.57-14.85-6.88-17.39-8.16a98.57,98.57,0,0,0-22.64-8.13" transform="matrix(-1, 0, 0, 1, 380, 0)" /><path d="M240.43,170.12c.61-.18,5.9.82,11.78,2.83,2.94,1,6,2.22,8.8,3.46l2,.93a20.36,20.36,0,0,1,1.87,1l3,1.71a73.42,73.42,0,0,0,9.33,4.6c.4.15.8.26,1.18.37.18,0,.38.09.55.11l.25,0h.09a.41.41,0,0,0,.44-.43c0-.06,0-.06,0-.27a3.51,3.51,0,0,0-.07-.53l-.26-1.32-.55-2.72a153.93,153.93,0,0,0-5.68-21,77.27,77.27,0,0,0-7.88-16.15,18,18,0,0,0-2.44-3.21,7.65,7.65,0,0,0-.62-.56,3.83,3.83,0,0,0-.56-.32.46.46,0,0,0-.22-.08c-.05,0-.12-.06-.16,0a.23.23,0,0,1-.14,0l-.15.06c-.06,0-.13.07-.2.11s-.15.05-.23.15l-.25.25-.13.12-.17.19q-.64.76-1.26,1.59c-.8,1.09-1.54,2.24-2.24,3.41-1.4,2.34-2.67,4.78-4,7.12-.35.58-.7,1.16-1.07,1.73l-1,1.63c-.67,1.08-1.33,2.14-1.95,3.2-2.52,4.22-4.62,8.25-6.38,11.9a60.44,60.44,0,0,1,4.2-13.56c1-2.35,2.21-4.62,3.12-6.42s1.72-3.5,2.38-4.58A62.69,62.69,0,0,1,256,139c.39-.5.79-1,1.22-1.48a9,9,0,0,1,1.6-1.5,4.12,4.12,0,0,1,1.15-.57,4.42,4.42,0,0,1,.65-.17c.22,0,.45,0,.68,0a4.46,4.46,0,0,1,1.28.23,6,6,0,0,1,1,.53,10.92,10.92,0,0,1,2.79,2.81c.73,1,1.35,2,1.94,3s1.15,2,1.73,3,1.08,2,1.55,3a117.83,117.83,0,0,1,8.07,23.91c.9,3.83,1.67,7.55,2.35,11.17a10.34,10.34,0,0,1,.2,1.49,3.69,3.69,0,0,1-.38,1.89c-.57,1.26-2.29,1.43-3.34,1.18a21.3,21.3,0,0,1-5.14-2c-3.12-1.57-6-3.34-8.67-5-.68-.41-1.36-.84-2-1.18l-2-1c-1.37-.68-2.73-1.31-4.08-1.91-2.56-1.14-6.09-2.67-9.26-3.87S241.35,170.43,240.43,170.12Z" transform="matrix(-1, 0, 0, 1, 380, 0)" /><path d="M122.33,132.59a10.41,10.41,0,0,0-1,2.7c-2.25,8.28-4.11,16.66-5.92,25.05-.93,4.3-1.61,8.75-2.8,13-.29,1-1.43,6.53-1.85,6.78,9.8-5.88,19.64-11.77,30.11-16.34,1.87-.82-11.56-28.22-13.43-31.21a4,4,0,0,0-1.3-1.47,2.81,2.81,0,0,0-3.33.83A4.54,4.54,0,0,0,122.33,132.59Z" transform="matrix(-1, 0, 0, 1, 380, 0)" /><path d="M122.31,132.57a1.26,1.26,0,0,1,.18-.46,2.48,2.48,0,0,1,.61-.81,3.25,3.25,0,0,1,1.29-.74,2.57,2.57,0,0,1,2,.15,5.29,5.29,0,0,1,1.79,2c.46.77.91,1.59,1.37,2.43.93,1.7,1.87,3.51,2.79,5.3,1.81,3.6,3.57,7.06,4.69,9.28s2.22,4.42,3.28,6.77c.52,1.18,1,2.39,1.51,3.66l.33,1,.17.56a7.65,7.65,0,0,1,.18.83,3.4,3.4,0,0,1,0,1.62,1.42,1.42,0,0,1-.41.64l-.66.47-1.78.83-1.33.66-2.65,1.34q-2.66,1.36-5.28,2.81c-3.49,1.93-6.91,3.93-10.22,5.92l-8.3,5-1-1.7h0c-.34-.58-.69-1.15-1-1.72l-.36-.13c0-.09.06-.26.08-.39l.22-.82.38-1.59.45-1.91.23-.87.21-.76.4-1.53c.5-2,.93-4.13,1.36-6.19.87-4.17,1.88-8.15,2.83-11.93s2-7.39,3-10.73c.51-1.67,1-3.28,1.52-4.81.27-.77.52-1.52.77-2.26a9.54,9.54,0,0,1,1.06-2.18,11.71,11.71,0,0,0-.45,2.82c-.07,1-.17,2-.28,3.13-.22,2.18-.49,4.49-.8,6.74a89.87,89.87,0,0,1-1.93,10.83q-.8,2.85-1.57,5.61c-.49,1.84-.92,3.68-1.37,5.5s-.89,3.63-1.41,5.4c-.14.44-.27.88-.4,1.32s-.23.82-.35,1.24l-.16.65-.1.34-.2.67a13.81,13.81,0,0,1-.53,1.57l-.06.07,1.18-.65,2.73-1.57,3.57-2.07q3.54-2,6.94-3.93c2.27-1.26,4.5-2.47,6.71-3.6l3.28-1.65,3-1.42c.12-.08.31-.09.37-.24a1.19,1.19,0,0,0,0-.46,3.33,3.33,0,0,0-.12-.48c-.07-.26-.16-.52-.25-.79-.35-1-.76-2.11-1.18-3.14-.85-2.06-1.74-4.06-2.62-6l-5.1-11.09c-.71-1.5-1.53-3.38-2.33-5.21-.39-.91-.79-1.8-1.15-2.63a5,5,0,0,0-1.23-1.87,2.05,2.05,0,0,0-1.41-.27,3.07,3.07,0,0,0-1.15.43A4.76,4.76,0,0,0,122.31,132.57Z" transform="matrix(-1, 0, 0, 1, 380, 0)" /><path class="cls-7 color-catears" d="M247.73,166.5a5.36,5.36,0,0,1,2.3-.09,29.69,29.69,0,0,1,4.64.86,72.15,72.15,0,0,1,9.35,3.24q.84.33,1.68.72l.76.35.4.18a6.46,6.46,0,0,1,.93.42l.07,0h0l0-.05,0-.09-.13-.35-.23-.54-.09-.2a1.58,1.58,0,0,1-.17-.48l-.67-2.12c-.9-2.82-1.81-5.63-2.71-8.33-.79-2.32-1.58-4.64-2.35-6.92-.35-1-1-2.7-.78-2.23,0,0,0-.11,0-.11h0l-.11.13-.06.08a.87.87,0,0,0-.11.16c-.62.9-1.24,1.79-1.85,2.65-1.24,1.72-2.46,3.36-3.65,4.9-2.38,3.09-4.64,5.82-6.65,8.12,1-4.37,4.6-11.63,6.4-13.84.87-1.06,1.71-2.11,2.52-3.16l.3-.39.15-.2.22-.32.89-1.29c.59-.88,1.16-1.76,1.74-2.63.29.15.57,0,.91.51a10.9,10.9,0,0,1,.82,1,14.83,14.83,0,0,1,1.29,3.07l.7,2.21c.21.71.43,1.4.64,2.09l2.43,8,2.28,7.39.63,2.15c.24.85.48,1.69.71,2.52s.44,1.68.65,2.5l.33,1.27a1.36,1.36,0,0,1,.06.29l0,.11-.07.22c-.74-.65-1.72-1.42-2.59-2.14l-1.28-1-.64-.49c-.21-.16-.39-.24-.58-.37l-1.15-.69-.28-.17-.2-.1-.39-.21c-.51-.28-1-.54-1.55-.79-2.06-1-4.09-1.87-6.05-2.66-1.49-.56-3.5-1.42-5.32-2.06A37.37,37.37,0,0,0,247.73,166.5Z" style="" transform="matrix(-1, 0, 0, 1, 380, 0)" /><path class="cls-7 color-catears" d="M119.33,169.43c0-.41,1.91-2,4.28-3.65a64.91,64.91,0,0,1,6.89-4.09l.92-.46c.29-.15.73-.31.76-.35a5.9,5.9,0,0,1,.62-.31,7.26,7.26,0,0,1-1.26-1.93c-.65-1.23-1.23-2.49-1.79-3.74s-1.11-2.46-1.66-3.68a18,18,0,0,0-1.17-2.32s0,0,0,.06,0,0,0,0,0-.05,0,.06l-.21.89-.45,1.77c-.6,2.33-1.24,4.57-1.9,6.7a90.53,90.53,0,0,1-4.11,11.08c-.6-3.7-.13-10.2.7-12.37s1.69-4.57,2.38-6.77c.17-.56.33-1.1.5-1.65l.12-.42.17-.63c.1-.41.2-.81.31-1.22.4-1.6.75-3.14,1.06-4.57l.2,0,.29.4.58.78,1,1.51a30.2,30.2,0,0,1,1.83,3.2c.81,1.65,1.49,3.26,2.16,4.82s1.31,3.05,2,4.45c.17.35.35.69.52,1l.27.5.13.25c.08.15.15.26.23.39l.91,1.5c.3.49.67,1,.92,1.47-.64.14-1.27.26-1.93.42a13.24,13.24,0,0,0-1.85.52c-.74.26-1.45.56-2.15.87-1.4.62-2.73,1.3-4,1.95-1.13.61-2.74,1.35-4.16,2Z" style="" transform="matrix(-1, 0, 0, 1, 380, 0)" /><path class="cls-5" d="M306.34,245.22a67,67,0,0,1-3.35-6.56c-.41-.93-1-1.88-1.54-2.9l-1.78-3.22c-1.18-2.29-2.77-4.58-4.31-7s-3.35-4.79-5.09-7.18L289,216.58c-.44-.59-.94-1.12-1.41-1.68l-2.79-3.25-1.36-1.58c-.46-.5-.94-1-1.4-1.44l-2.69-2.7c-.86-.84-1.64-1.7-2.45-2.4l-2.25-1.94a132.24,132.24,0,0,0-33.93-21.34,140.63,140.63,0,0,0-39.36-10.31c-22.89-2.72-46.11.24-65.41,7.95A122.09,122.09,0,0,0,110,191.83,119.81,119.81,0,0,0,91.1,208.5c1-1.39,2.1-2.93,3.33-4.58a28,28,0,0,1,2-2.46l2.22-2.53a95.33,95.33,0,0,1,21.49-17.49c.87-.52,1.7-1.05,2.52-1.5l2.36-1.21c1.49-.75,2.81-1.39,3.89-1.89a139.36,139.36,0,0,1,52.44-10.78,164.11,164.11,0,0,1,24.32,1.67c1.94.3,3.86.7,5.76,1l2.85.53,1.41.26,1.39.35,5.5,1.39c.91.25,1.83.43,2.71.72l2.65.86a132.93,132.93,0,0,1,37.12,18.26A118.06,118.06,0,0,1,291,216.39a105.93,105.93,0,0,1,10,16.24l2,4.12c.62,1.31,1.07,2.59,1.53,3.69C305.33,242.68,306,244.37,306.34,245.22Z" style="" transform="matrix(-1, 0, 0, 1, 380, 0)" /><path class="cls-1" d="M108.79,213c1.79-.88,1.47-4.35-.3-5a7.4,7.4,0,0,0-1.3-.37,20.68,20.68,0,0,0-6.86-1.44c-10.57-.61-23.46,12.93-26.28,33.77-1.87,13.8-.16,26.52,4,34C78.22,274.42,96.52,219,108.79,213Z" transform="matrix(-1, 0, 0, 1, 380, 0)" /><path d="M108.82,213.06c-.17.42-1.52,1.41-3,3.4a57.62,57.62,0,0,0-5.11,8,135.21,135.21,0,0,0-8.26,18.31c-2,5.81-4.09,11.93-6.22,18.14l-.79,2.34L85,264.39l-.72,2.05-1.51,4.33L82,273a16.05,16.05,0,0,1-.81,2,3.59,3.59,0,0,1-.46.69.33.33,0,0,1-.24.18,1.29,1.29,0,0,1-.25.06l-.87.08c-.52.05-.9.12-1.27.17H78c0,.6,0-1.33,0,1.34h0l-.22,0-.44.1-.43.11c-.07.05-.15-.08-.22-.12l-.23-.18c-.3-.25-.61-.45-.91-.73l-.83-1.42c-.39-.72-.74-1.52-1.1-2.29-.17-.39-.36-.76-.53-1.18l-.47-1.34a52,52,0,0,1-1.65-5.72c-.12-.5-.21-1-.31-1.51l-.16-.84c-.12-.55-.18-1.11-.28-1.67-.19-1.11-.29-2.21-.43-3.3a72.12,72.12,0,0,1-.3-10.37c.07-1.72.2-3.42.37-5.11l.3-2.53.43-2.54a52.8,52.8,0,0,1,7.1-18.75,42.23,42.23,0,0,1,6.1-7.52,28.81,28.81,0,0,1,7.79-5.32,17.22,17.22,0,0,1,9.07-1.56,25.65,25.65,0,0,1,4,.83,19.84,19.84,0,0,1,1.88.65c.31.12.62.25.92.39l.45.22a2.12,2.12,0,0,0,.21.11l1.06.38a3.46,3.46,0,0,1,1.4,1.08,4.43,4.43,0,0,1,.93,2.5,4.88,4.88,0,0,1-.38,2.3,3.34,3.34,0,0,1-1.74,1.77,2.83,2.83,0,0,0,1-2,3.82,3.82,0,0,0-.33-1.89,2.8,2.8,0,0,0-1.1-1.32,1.25,1.25,0,0,0-.67-.18c-.33,0-.57,0-1,0-.17,0-.35,0-.52-.06l-.4-.05-.79-.07c-.53,0-1.07-.05-1.61-.05a26.84,26.84,0,0,0-3.24.19,9.19,9.19,0,0,0-1.46.29l-.67.15-.65.26a18.61,18.61,0,0,0-2.47,1.16,50.7,50.7,0,0,0-6.93,5.7l-1.39,1.24-1.27,1.36a13.87,13.87,0,0,0-1.22,1.44c-.38.49-.78,1-1.16,1.48a41.36,41.36,0,0,0-3.76,6.51,50.79,50.79,0,0,0-4.09,14.11,67.68,67.68,0,0,0-.57,14.07c.07,1.14.18,2.26.32,3.37.08.56.16,1.11.23,1.66s.17.93.25,1.39A25.28,25.28,0,0,0,77,266.7a14.64,14.64,0,0,0,.91,2l.13.23.06.11s0,.12.07,0,.14-.37.2-.55l.37-1.1L80,263.38c.13-.38.26-.76.38-1.14.2-.55.4-1.11.59-1.66l1.17-3.27q1.17-3.24,2.35-6.34a168,168,0,0,1,10.2-22.56,55.93,55.93,0,0,1,7.08-10,27.29,27.29,0,0,1,4.09-3.8A10.27,10.27,0,0,1,108.82,213.06Z" transform="matrix(-1, 0, 0, 1, 380, 0)" /><path class="cls-5" d="M285.63,198.39c-.32-.22-.43-2.35-.58-4.8s-.31-5.23-.58-6.76c-.89-5.42-1.65-11.58-2.87-17-1-4.77-2.24-9.41-3.54-13.6s-2.68-7.92-3.79-11a17,17,0,0,1,4.35,4.08,16.25,16.25,0,0,1,1.63,2.45,8.71,8.71,0,0,1,.85,1.95c1.83,8.1,3.12,15,4.11,21.26a91.67,91.67,0,0,1,1.44,16.47A39.47,39.47,0,0,1,285.63,198.39Z" style="" transform="matrix(-1, 0, 0, 1, 380, 0)" /><path class="cls-5" d="M145.38,163.07c-.69-.12-2.62-5.71-3.83-7.68-2.05-3.5-4-7.63-6-11.29a144.39,144.39,0,0,1-8-17.35c2.53.91,5.67,3.92,6.15,5.36a116.63,116.63,0,0,0,6.15,14.62,74.57,74.57,0,0,1,4.81,11.16A23.75,23.75,0,0,1,145.38,163.07Z" style="" transform="matrix(-1, 0, 0, 1, 380, 0)" /><g class="cls-2" transform="matrix(-1, 0, 0, 1, 380, 0)"><path d="M147.94,164.73c-.23-.62,1.66-1.55,2.28-2.14a11.29,11.29,0,0,1,4-2.34,8.33,8.33,0,0,1,7,.06c-.77,1.65-1.71,3-2.25,2.8a6.94,6.94,0,0,0-5.3.18,24.39,24.39,0,0,1-3.69,1.6A6.08,6.08,0,0,1,147.94,164.73Z" /></g><g class="cls-2" transform="matrix(-1, 0, 0, 1, 380, 0)"><path d="M288.46,196.29c.53-.39,2.89,1.59,4,2.13a23.19,23.19,0,0,1,5.52,4c2.89,2.62,4.85,6.09,5.26,8.78-2-.06-4.11-1-4.33-1.75a14,14,0,0,0-4.42-6.67,59.89,59.89,0,0,1-4.69-4A8.74,8.74,0,0,1,288.46,196.29Z" /></g></svg>