<svg xmlns="http://www.w3.org/2000/svg" id="new" viewBox="0 0 380 600"><defs transform="matrix(-1, 0, 0, 1, 380, 0)"><style>.cls-1{fill:#ff4500;}.cls-2{fill:#ffb470;}.cls-3{fill:#0c3744;}.cls-4{fill:#00f4cb;}.cls-5{opacity:0.45;}.cls-6{opacity:0.5;}.cls-7{fill:#fffffe;}.cls-8{fill:#fb133a;}</style></defs><path class="cls-1" d="M67.54,137.71c-10.32,4.15-19.52-2.17-21.26-7.21s3.83-8.34,21.67.05" style="" transform="matrix(-1, 0, 0, 1, 380, 0)" /><path d="M67.93,130.6c-.39.34-2.26-.3-4.4-1a32.58,32.58,0,0,0-6-1.55c-1.24-.11-2.5-.23-3.74-.28a15.68,15.68,0,0,0-3.49.17,3.92,3.92,0,0,0-1.24.4,1.09,1.09,0,0,0-.28.21.28.28,0,0,0,0,.12c0,.09,0,.06,0,.27a2.88,2.88,0,0,0,.36.91,8.36,8.36,0,0,0,1.45,1.94,15.16,15.16,0,0,0,2,1.77A18.87,18.87,0,0,0,57.46,136a23.1,23.1,0,0,0,9.76.89,8.9,8.9,0,0,1-4.46,4.14,7,7,0,0,1-1.52.55,10.33,10.33,0,0,1-1.45.29,5.3,5.3,0,0,1-2.23-.18,24.88,24.88,0,0,1-5.51-2.87,23.51,23.51,0,0,1-4.21-3.67,12.48,12.48,0,0,1-2.73-4.58,5.35,5.35,0,0,1-.13-2.88,4.22,4.22,0,0,1,1.73-2.43,8.92,8.92,0,0,1,4.73-1.24,21.53,21.53,0,0,1,4.19.35,26.27,26.27,0,0,1,7,2.2A22.15,22.15,0,0,1,67.93,130.6Z" transform="matrix(-1, 0, 0, 1, 380, 0)" /><path class="cls-1" d="M66.75,130.32c-.34-9-4.46-17.43-12.72-20.15-2.06-.67-4.25-.17-4.49,2-1,8.44,6.27,17,14.46,19.3" style="" transform="matrix(-1, 0, 0, 1, 380, 0)" /><path d="M64,131.51c-.17.19-.81.16-1.73,0-.45-.12-1-.28-1.54-.47s-1.13-.47-1.73-.76A30.42,30.42,0,0,1,53,126a17.84,17.84,0,0,1-3.22-3.56,18.34,18.34,0,0,1-2.23-4.65,15.84,15.84,0,0,1-.69-5.37v-.51l0-.26a5.06,5.06,0,0,1,.26-1.09,5.14,5.14,0,0,1,1.37-2.08,6,6,0,0,1,4-1.44,8.18,8.18,0,0,1,1.51.12,7.63,7.63,0,0,1,1.31.35,18.38,18.38,0,0,1,2.1.84l1,.51,1,.59a15.83,15.83,0,0,1,1.79,1.31,18.71,18.71,0,0,1,5,6.65,21.7,21.7,0,0,1,1.52,12.91,53.25,53.25,0,0,1-3.7-5.19A16.72,16.72,0,0,1,61.68,121,12.91,12.91,0,0,0,56,112.46c-.36-.2-.71-.44-1.09-.61l-1.14-.5a3.51,3.51,0,0,0-1.95-.24,1.19,1.19,0,0,0-1,.82,1.77,1.77,0,0,0-.07.36l0,.56a8.37,8.37,0,0,0,0,1.12,13.58,13.58,0,0,0,1,4.16,18.7,18.7,0,0,0,1.94,3.53,30.28,30.28,0,0,0,5,5.37c.83.71,1.94,1.74,3,2.64S63.64,131.24,64,131.51Z" transform="matrix(-1, 0, 0, 1, 380, 0)" /><path class="cls-2" d="M65.26,122.32c10,12.36,33.66,9.26,42.08-2.16,12.4-16.81,32.35-10.2,23.55,12.77-4.38,11.41-22.44,19-37.89,18.19-11.93-.64-27.45-8.4-28.31-23.06" style="" transform="matrix(-1, 0, 0, 1, 380, 0)" /><path d="M64.74,128.06a5.23,5.23,0,0,1,.5,1.56,28,28,0,0,0,.94,3.24,22.37,22.37,0,0,0,5.58,8.34,31.42,31.42,0,0,0,9.9,6.11,33,33,0,0,0,9.28,2.13,50.29,50.29,0,0,0,25.8-5.9c1-.5,1.92-1.16,2.89-1.73l1.36-1a11.67,11.67,0,0,0,1.3-1l1.25-1.07,1.12-1.16a10.54,10.54,0,0,0,1-1.2,11.14,11.14,0,0,0,.94-1.26l.8-1.3c.24-.44.41-.91.62-1.35a10.16,10.16,0,0,0,.56-1.48c.18-.52.37-1,.5-1.56a24.68,24.68,0,0,0,1-6.15,13.34,13.34,0,0,0-.69-4.82,7.25,7.25,0,0,0-2.42-3.39c-2.13-1.62-5.4-1.66-8.39-.49a21,21,0,0,0-8,6l-1.77,2.18a21.85,21.85,0,0,1-2.24,2.27,26.76,26.76,0,0,1-5,3.46A33.4,33.4,0,0,1,90.83,132a33.92,33.92,0,0,1-10.55,0,27.07,27.07,0,0,1-9.21-3.21,20.43,20.43,0,0,1-6.47-5.9,25,25,0,0,0,7.53,3.88A29,29,0,0,0,81.26,128a39.37,39.37,0,0,0,8.42-1.08c2.46-.59,4.47-1.28,5.87-1.72a23,23,0,0,0,7.65-4l.8-.68.75-.72c.24-.24.46-.51.7-.76l.78-.9a32,32,0,0,1,3.47-3.51,23.38,23.38,0,0,1,8.48-4.73,13.64,13.64,0,0,1,9.58.55,10.53,10.53,0,0,1,3.76,3,12.65,12.65,0,0,1,2.06,4.16,19.79,19.79,0,0,1,.31,8.67,31.25,31.25,0,0,1-.94,4c-.18.67-.41,1.31-.63,1.94l-.34,1-.43,1a21.68,21.68,0,0,1-2,3.58c-.43.52-.85,1.05-1.27,1.57a17.12,17.12,0,0,1-1.37,1.45l-.69.7c-.24.23-.5.43-.74.64-.5.42-1,.85-1.5,1.25-1,.73-2.06,1.54-3.16,2.15-.54.33-1.07.67-1.61,1s-1.11.57-1.66.86c-1.09.6-2.24,1-3.34,1.53a52.1,52.1,0,0,1-13.63,3.52c-.57.07-1.13.15-1.69.19l-1.69.1c-1.12.09-2.24.05-3.35,0s-2.22-.14-3.31-.22-2.18-.29-3.22-.56a35.46,35.46,0,0,1-11.52-4.66c-3.23-2-7.22-5.72-9.08-10-.24-.51-.47-1-.69-1.52l-.47-1.52a15.57,15.57,0,0,1-.59-2.74,11.82,11.82,0,0,1-.17-2.17C64.75,128.84,64.74,128.37,64.74,128.06Z" transform="matrix(-1, 0, 0, 1, 380, 0)" /><path class="cls-1" d="M79,144.61c-.62-.15-.84-1.36-1-2.57-.2-.92-.39-1.76-.77-1.84a1.59,1.59,0,0,0-1.47.41.89.89,0,0,0-.26.42,3.62,3.62,0,0,0-.13.4c0,.17-.07.34-.11.5l0,.16h0l-2.48,0c-.6,0-.34,0-.4,0v0l0-.1,0-.16-.07-.28-.12-.55c-.08-.37-.15-.73-.21-1.09s-.11-.72-.15-1.08a5.35,5.35,0,0,1-.12-.95v-.25c-.09-.07,0-.16,0-.24l0-.49.06-.35a1,1,0,0,1,0-.16l.09-.29c.06-.19.12-.37.17-.57a8.13,8.13,0,0,0,.21-1.64,5.78,5.78,0,0,1,.6-2.22,5.47,5.47,0,0,1,1.1-1.45c.67.65,1.28,1.33,1.9,1.83a6.08,6.08,0,0,0,1.74,1,3,3,0,0,1,1.3,1.43,2.28,2.28,0,0,1,.22,1.61l-.18.48c-.06.21-.12.15-.18.23a1,1,0,0,0-.26.1l-.11.08,0,0s0,.1,0,.14c-.06.4-.09.78-.12,1.16s0,.76,0,1.12c0,.18,0,.36,0,.53v.43h0s0,.06,0,0l.25-.64,1-2.55h0c-.27-.31-.51-.61-.74-.91l-.33-.44a2.29,2.29,0,0,0-.24-.15c-.14-.1-.28-.2-.41-.31a3.17,3.17,0,0,1-.21-.27,1.63,1.63,0,0,1-.21-1.15,3.38,3.38,0,0,1,.44-1.32,1.12,1.12,0,0,1,.59-.51,1.17,1.17,0,0,1,1,.31,6.26,6.26,0,0,1,1.88,3.2,13,13,0,0,1,.25,4.74,7.24,7.24,0,0,1-.36,1.58,6.13,6.13,0,0,1-.67,1.25A11.65,11.65,0,0,1,79,144.61Z" style="" transform="matrix(-1, 0, 0, 1, 380, 0)" /><path class="cls-1" d="M90.07,148.93a.88.88,0,0,1-.87-.15,2.93,2.93,0,0,1-.43-.38,5.49,5.49,0,0,1-.37-.53,24,24,0,0,0-1.21-2.16c-1.5-1.73-1.8-3.92-2.06-5.73a8.85,8.85,0,0,1,.48-4.38,9.43,9.43,0,0,1,2.14-3.18,6,6,0,0,1,4.19,1.13c1,.71,1.39,1.37,1.11,1.72a10.14,10.14,0,0,0-2.22,3.55,6.62,6.62,0,0,0-.24,3c.25,1.89,1.06,3.33.8,4.59a3.64,3.64,0,0,1-.63,1.27C90.47,148.17,90.18,148.73,90.07,148.93Z" style="" transform="matrix(-1, 0, 0, 1, 380, 0)" /><path class="cls-1" d="M103.42,148.4c-1.27-.07-1.41-2.94-2.23-4a16.3,16.3,0,0,1-2.52-5.84,11.74,11.74,0,0,1,1.12-9.42c3.44.25,6.14,1.87,5.7,2.71a10.57,10.57,0,0,0-1.14,8c.51,2.2,1.38,4.1,1,5.86C105.26,146.61,103.77,148.09,103.42,148.4Z" style="" transform="matrix(-1, 0, 0, 1, 380, 0)" /><path class="cls-1" d="M117.55,142.71c-1.29,0-1.8-3.73-2.69-5.06-1.6-2.36-2.24-5.24-2.83-7.84-1-4.54-.35-9.24,1.69-12.37,3.37,1.2,5.87,3.51,5.36,4.46a14,14,0,0,0-1.31,9.93c.58,2.82,1.59,5.19,1.36,7.42C119.14,140.28,117.85,142.28,117.55,142.71Z" style="" transform="matrix(-1, 0, 0, 1, 380, 0)" /><path class="cls-3 color-sushi" d="M99,156.07c12.77-13,26-18.62,40.33-22.61,0,0,1,2.12-7.14,11.71" style="" transform="matrix(-1, 0, 0, 1, 380, 0)" /><path d="M132.16,145.14c-.21-.5,1.15-2.41,2.6-4.66.18-.28.37-.56.54-.85l.21-.36.17-.29c.21-.4.41-.76.55-1.1a2.11,2.11,0,0,0,.29-1.46.85.85,0,0,0-.14-.19l-.1-.09c-.06,0-.16.07-.24.1l-.88.46a15.75,15.75,0,0,0-1.4.84,2,2,0,0,1-.25.17l-.93.38-1.85.78c-2.46,1-4.9,2.14-7.16,3.31-4.72,2.37-9.18,5-13.24,7.51s-7.64,5-10.71,7a14.13,14.13,0,0,1,.84-3.19,20.69,20.69,0,0,1,1.61-3.23,12,12,0,0,1,3.8-4.15c6.3-3.18,11.88-5.78,17-8.06,2.58-1.11,5-2.18,7.39-3.1.59-.24,1.18-.46,1.76-.68l1.09-.41,1.27-.43c1.68-.56,3.37-1.13,5.07-1.65.24.09.47.2.7.3l.33.17.17.08c0,.11.06.2.08.29a5,5,0,0,1,0,2.1,13.57,13.57,0,0,1-2.4,4.84,12.75,12.75,0,0,1-.91,1.21,11.36,11.36,0,0,1-.83.86c-.57.55-1.19,1.1-1.79,1.58A30.46,30.46,0,0,1,132.16,145.14Z" transform="matrix(-1, 0, 0, 1, 380, 0)" /><path class="cls-4" d="M96.42,174.86c-13.41,0-10.39-18-.34-17.79-5.44-12.41,8.16-22.28,17.9-17.24,3-7.15,15.65-7.21,19.84.22.39,2.78.89,1.11,2-.16,11.59-7,15,17.91,3.64,20.9-5.12,13.19-20.49,29.63-35.61,21" style="" transform="matrix(-1, 0, 0, 1, 380, 0)" /><path d="M103.9,181.79c.43-.07,2,.76,4.51,1.28a17.57,17.57,0,0,0,9.28-.59,26.47,26.47,0,0,0,9.23-5.7,37.17,37.17,0,0,0,5.81-6.87,48.52,48.52,0,0,0,3-5.34c.45-.93.88-1.87,1.25-2.84.28-.71.56-1.43.83-2.16l.13-.31,0-.08.08,0,.16-.06.64-.24.65-.23.16-.06.08,0,.15-.08c3-1.49,4.3-5.54,4.14-9.4a12.68,12.68,0,0,0-1.34-5.38,5.11,5.11,0,0,0-1.4-1.75,2.34,2.34,0,0,0-1.5-.52,4.48,4.48,0,0,0-1.92.57l-.21.12-.05.08c-.14.19-.28.4-.54.73L137,143l-.15.17-.17.18a1.93,1.93,0,0,1-.3.27l-.15.13c-.12.07-.23.15-.36.21a2.53,2.53,0,0,1-.37.18l-.2.07a2.22,2.22,0,0,1-.37.09,2.92,2.92,0,0,1-1.51-.12,3.27,3.27,0,0,1-.65-.32l-.29-.21-.13-.11-.06-.06a3.64,3.64,0,0,1-.67-.94l-.13-.3-.06-.15,0-.1a4.54,4.54,0,0,1-.19-.68l0-.15,0-.07v0h0s0,0,0,0-.28-.43-.51-.68-.52-.59-.84-.82a9.55,9.55,0,0,0-1-.7,10.38,10.38,0,0,0-7-1.29,7.42,7.42,0,0,0-3.14,1.2,2.77,2.77,0,0,0-.6.47,2.51,2.51,0,0,0-.51.52l-.22.26a1.92,1.92,0,0,0-.31.5l-.58,1.07-1.12,2.1c-1.33-.62-2.69-1.25-4-1.82l-.49-.14a2.74,2.74,0,0,0-.39-.09,5.59,5.59,0,0,0-.8-.14,10.21,10.21,0,0,0-3.26.11,11.51,11.51,0,0,0-5.78,3,10,10,0,0,0-2.94,5.44,10.51,10.51,0,0,0-.06,3.07c0,.13,0,.26.07.39a8.12,8.12,0,0,0,.18.81c.14.56.4,1.15.59,1.72s.41,1.11.61,1.67l.3.81a4.19,4.19,0,0,1,.25.76l-2,0c-.7,0-1.42,0-2,.11l-1,.09a1.8,1.8,0,0,0-.27.07l-.13,0h0l-.16.06a3.58,3.58,0,0,0-.64.26,6.26,6.26,0,0,0-2.19,1.8,8.85,8.85,0,0,0-1.86,5.5,6.3,6.3,0,0,0,2.16,4.81A9.31,9.31,0,0,0,96.43,174a8.65,8.65,0,0,1-6.39-.47,7.83,7.83,0,0,1-3-2.83,9.88,9.88,0,0,1-1.38-4.23,11.94,11.94,0,0,1,2.57-8.59,10.44,10.44,0,0,1,3.59-2.83l.52-.23c-.12,0-.09,0-.09,0v0l0,0s0,0,0,0,0,0,0,0,0,0,0,0l0-.25a2.63,2.63,0,0,1-.06-.47,15.11,15.11,0,0,1,1.71-8.79,15.86,15.86,0,0,1,5.81-6,16.44,16.44,0,0,1,7.59-2.32,14.81,14.81,0,0,1,3.88.35,7.9,7.9,0,0,1,2.28.83,5.61,5.61,0,0,1,.44-.68l.41-.49a4.18,4.18,0,0,1,.67-.66l.72-.61c.25-.2.52-.33.78-.5s.52-.33.8-.47l.83-.35a14.47,14.47,0,0,1,13.12,1.36,16.3,16.3,0,0,1,1.33,1c.42.36.77.8,1.16,1.2a4.67,4.67,0,0,1,.5.67l.51.76a1.9,1.9,0,0,1,.26.43l.08.51c.07.35.1.45.14.61h0l-.16.09c-.18.12-.23.1-.32.17a.77.77,0,0,0-.23.21.13.13,0,0,0-.06.08c0,.06,0,0,0,0s0-.12-.07-.19a.44.44,0,0,0-.08-.11.77.77,0,0,1-.11-.16l-.16-.2-.09-.09h0s0,0,0,0l.07-.08.18-.25.49-.64.32-.39.16-.2a2.39,2.39,0,0,1,.22-.12,10.4,10.4,0,0,1,1.58-.78c.26-.1.51-.21.78-.29l.83-.19a6.57,6.57,0,0,1,3.45.28,7,7,0,0,1,2.75,2,10,10,0,0,1,1.7,2.66,15.18,15.18,0,0,1,1,2.85,19.6,19.6,0,0,1,.4,5.8,16.44,16.44,0,0,1-1.48,5.56,10.68,10.68,0,0,1-3.85,4.43,12.25,12.25,0,0,1-1.28.69l-.28.1c-.08.05-.23,0-.24.16l-.23.61-.52,1.18a49.52,49.52,0,0,1-2.34,4.46,39.67,39.67,0,0,1-12.94,13.53,22.17,22.17,0,0,1-5.65,2.49,18.53,18.53,0,0,1-6.68.63,16.66,16.66,0,0,1-5.49-1.51A20.28,20.28,0,0,1,103.9,181.79Z" transform="matrix(-1, 0, 0, 1, 380, 0)" /><path class="cls-3 color-sushi" d="M85.18,165.87c-1,14,19.86,43.82,33.5,41.15,12-2.35,34.67-10.82,42.11-25.46,1.48-16.24-12.37-33.72-20.51-45.34-8.23,14.78-30.76,31.15-53.41,31.17" style="" transform="matrix(-1, 0, 0, 1, 380, 0)" /><path d="M86.87,167.33a6.7,6.7,0,0,1,2-.5c.54-.09,1.16-.17,1.87-.25s1.49-.29,2.34-.43,1.77-.27,2.73-.53l3-.76a67.6,67.6,0,0,0,6.6-2.23,70.9,70.9,0,0,0,13.1-6.87,61.68,61.68,0,0,0,9.35-7.63,68.49,68.49,0,0,0,5.36-6.14l1.24-1.64c.21-.28.38-.57.57-.86l1-1.4,3.89-6.36.25-.4,0-.05,0,.05.06.09.14.18.54.73,1.09,1.48,2.23,3,3.43,4.59c1.79,2.42,3.58,4.86,5.28,7.42a82.79,82.79,0,0,1,8.84,16.47,46.46,46.46,0,0,1,2.48,9.33c.13.8.17,1.63.25,2.44l.1,1.23c0,.41,0,.83,0,1.24l0,1.27,0,1,0,.53v.26c0,.09-.08.16-.12.24l-1.55,2.71a40.78,40.78,0,0,1-11.38,11.81A73.29,73.29,0,0,1,138,205a88.81,88.81,0,0,1-14.22,4.8l-1.8.43-1.82.36-.46.09a4.14,4.14,0,0,1-.52.08l-1.23.14a16.9,16.9,0,0,1-2.37-.06,20,20,0,0,1-7.82-2.86,35.5,35.5,0,0,1-5.87-4.49,51.81,51.81,0,0,1-4.73-5,67.56,67.56,0,0,1-7.22-10.74,57.52,57.52,0,0,1-4.62-11,33.69,33.69,0,0,1-1.19-5.49,20.36,20.36,0,0,1,0-5.4,33.34,33.34,0,0,0,4.1,9.88,82.56,82.56,0,0,0,6.73,9.75,101.67,101.67,0,0,0,7.25,8.17c2.27,2.29,4.26,4.07,5.58,5.32,2.62,2.53,5.65,4.57,8.47,5.1.35.07.68.07,1,.13s.63,0,1,0c.92-.15,1.84-.27,2.75-.46,1.84-.34,3.66-.76,5.45-1.24A75.66,75.66,0,0,0,146.27,194a48.2,48.2,0,0,0,8-6.29l1.68-1.82c.53-.63,1-1.29,1.5-1.93a17.33,17.33,0,0,0,1.3-2l.47-.79c0-.26,0-.48.05-.87a29.89,29.89,0,0,0-.16-4.73,39.82,39.82,0,0,0-.95-4.62,47.55,47.55,0,0,0-3.31-8.71,106.38,106.38,0,0,0-9.38-15.37L143,143.31l-1.09-1.47-.65-.85-.62-.82-.15-.2c-.05-.05-.1-.19-.14-.05l-.27.46-.52.9-.57.84-.53.76c-.2.3-.44.56-.66.84l-1.34,1.64c-.88,1.11-1.88,2.08-2.81,3.1s-2,1.91-2.94,2.85-2,1.75-3.06,2.61a68,68,0,0,1-12.95,8.2A54,54,0,0,1,98.76,167c-1.4.16-2.72.39-4,.43l-3.47.13C89.22,167.5,87.65,167.39,86.87,167.33Z" transform="matrix(-1, 0, 0, 1, 380, 0)" /><g class="cls-5" transform="matrix(-1, 0, 0, 1, 380, 0)"><g class="cls-6"><path class="cls-7" d="M144.27,144.41a5.46,5.46,0,0,1-.58,2.14,30.58,30.58,0,0,1-2.06,4.07,68.94,68.94,0,0,1-5.58,7.78,37,37,0,0,1-3.09,3.53l-1.57-2.09c1.88-1.44,3.94-3.09,6.11-4.58.55-.37,1.11-.74,1.7-1.1.31-.18.6-.36,1-.53a4.19,4.19,0,0,1,.81-.34,5.16,5.16,0,0,1,.85-.25c.56-.11,1.19-.31,1.76-.42a6.38,6.38,0,0,1,1.54-.15l1.27.1.68.07a6.64,6.64,0,0,1,.66.09,27.43,27.43,0,0,1-1.17,3.38L145,159.28c-.6,1.31-1.19,2.61-1.68,3.88a17.49,17.49,0,0,0-.6,1.82,4.08,4.08,0,0,0-.11.62v0l-.34,0a1.58,1.58,0,0,0-.38,0c-.14,0-.27.08-.33.08-.41.14-.38.25-.35.14l-.63-.31c-.09-.21-.2-.42-.31-.62l-.17-.3h0l.16-.12.19-.17.45-.4,1.76-1.66a17.1,17.1,0,0,1,3.2-2.57,4.63,4.63,0,0,1,1.94-.5l1-.12a2.67,2.67,0,0,1,.54,0h.42c-.28,1.32-.46,2.29-.86,3.66a41.35,41.35,0,0,1-2,4.63l-.14.29-.18.44-.1.23s.07-.2,0-.1l-.11.28,0,.06v0h0l.05-.12c0-.1,0-.11,0-.1h0v0l0,0,0,.08a2.69,2.69,0,0,0-.19.38,2.44,2.44,0,0,0-.15.5c0,.16-.07.45,0,.54a3.32,3.32,0,0,0,1.31-.45l.21-.11.36-.21.75-.43a6.85,6.85,0,0,1,1.68-.72,22.56,22.56,0,0,0-2.34,2.72,14.85,14.85,0,0,1-2,1.87,11.12,11.12,0,0,1-2.35,1.31.81.81,0,0,1-.1-.09l-.08-.16-.15-.33c-.12-.23-.19-.42-.28-.63s-.16-.41-.24-.62a2.21,2.21,0,0,1-.18-.66,8,8,0,0,1,.28-3.39l.06-.22,0-.12.11-.29h0v0h0s0,0,0,0l.06-.15,0-.12v0l0,.08-.06.14c0,.06,0,0,0,0s0,0,0,0l.06-.05a4,4,0,0,0,.78-1,1.71,1.71,0,0,0,.14-.27l.07-.15s0-.05,0-.07a.19.19,0,0,0-.11-.12c-.09,0-.23,0-.42.12s-.4.26-.66.44l-.41.31-.39.29-.27.2-.38.22-.36.21-.41-.16a1.53,1.53,0,0,1-.86-.79,2,2,0,0,1-.18-.78,4.37,4.37,0,0,1,.12-1.09,11.83,11.83,0,0,1,.55-1.74c.42-1.09.89-2.11,1.36-3.1s.89-1.81,1.32-2.7c.29-.58.59-1.15.83-1.71a.88.88,0,0,0,.05-.15s-.09,0-.14,0a1.74,1.74,0,0,0-.32,0,6.19,6.19,0,0,0-.62.13c-.4.13-.81.18-1.19.3a4.13,4.13,0,0,0-.61.3c-.28.15-.55.3-.82.47-.54.33-1.07.67-1.59,1-2.1,1.42-4,2.89-6,4.28l-1.26-1.68a78.69,78.69,0,0,0,7.21-8c.93-1.22,2.29-2.84,3.38-4.36S144,144.86,144.27,144.41Z" /></g><g class="cls-6"><path class="cls-7" d="M108.47,185.57c0,.14-.17.36-.54.58a3.39,3.39,0,0,1-1.61.36c-1.27,0-2.53-.29-3.48-.22l-2,.15,1.55-1.73a1,1,0,0,0,.25-.38.92.92,0,0,0-.1-.74,3.71,3.71,0,0,1,0-2.34l1.47,2.08a10.72,10.72,0,0,1-3.05.21,5,5,0,0,1-1.93-.57,4.44,4.44,0,0,1-1.62-1.54L96.53,180l1.57-1.11c.13-.1.09-.08.1-.1v0c0-.06-.07,0-.06-.05a.7.7,0,0,0,.19-.09.11.11,0,0,0,0-.17.64.64,0,0,0-.12-.15s-.26-.09-.42-.15l-.54-.2a18.88,18.88,0,0,1-3.47-1.83A10.92,10.92,0,0,1,97.28,175a14.66,14.66,0,0,1,1.5-.18c.39,0,.89,0,1.28.07l1,.06a21.81,21.81,0,0,0,2.69.07h2.36a4.57,4.57,0,0,0-.57.77l-.06.11c0,.05,0,0-.11.16l-.5.52c-.62.63-1.2,1.16-1.76,1.7a33.22,33.22,0,0,1-3.69,2.84l.26-1a2.07,2.07,0,0,0,1.75.93,12.38,12.38,0,0,0,2.4-.15l1.45-.19-.49,1.55c-.14.43,0,.56.08,1.67a2.47,2.47,0,0,1-.38,1.41,3.74,3.74,0,0,1-.94,1l-.58-2a11.07,11.07,0,0,1,1.92.37c.63.15,1.35.54,2,.75A4.17,4.17,0,0,0,108.47,185.57Z" /></g></g><path class="cls-3 color-sushi" d="M321.59,169.94c8.79,5.3,13.77,16.89,13.77,16.89s-3.44,3.65-16.28-2.22" style="" transform="matrix(-1, 0, 0, 1, 380, 0)" /><path d="M319.1,184.57c.35-.38,1.79.06,3.46.5a19.32,19.32,0,0,0,4.6.86c.73,0,1.46,0,2.16-.09.35,0,.71,0,1.05-.07s.78-.07.76-.13a.77.77,0,0,0,.32-.29c0-.1.12-.18,0-.28a.58.58,0,0,0-.28-.17c-.87-1.34-1.73-2.67-2.58-4s-1.74-2.64-2.61-3.84c-1.69-2.45-3.32-4.59-4.79-6.43a7.69,7.69,0,0,1,2.46-.4,10.63,10.63,0,0,1,2.57.37,9.48,9.48,0,0,1,2.1.92,3.53,3.53,0,0,1,1.16,1.1l3.6,7.1,1.61,3.1c.71,1.31,1.35,2.63,2,3.9.13.62-.63,1.11-1.2,1.48a7.09,7.09,0,0,1-2.08.84,13.51,13.51,0,0,1-2.37.32,15,15,0,0,1-1.78,0,16.65,16.65,0,0,1-6-1.49,10,10,0,0,1-2.48-1.71A18.19,18.19,0,0,1,319.1,184.57Z" transform="matrix(-1, 0, 0, 1, 380, 0)" /><path class="cls-2" d="M315.57,155.15c11.1-11.52,31.53-3.23,25.5,15.66-4.43,13.9-28.7,15.46-31.08-.87" style="" transform="matrix(-1, 0, 0, 1, 380, 0)" /><path d="M310,169.93a1.47,1.47,0,0,1,.45.7c.09.19.17.41.26.66l.36.82a14.05,14.05,0,0,0,2.45,4,12.11,12.11,0,0,0,4.29,3,11.77,11.77,0,0,0,4.21.92,19.26,19.26,0,0,0,11.23-3.23,13.53,13.53,0,0,0,3.9-4.09,11.77,11.77,0,0,0,1.11-2.46,22,22,0,0,0,.65-2.81,14,14,0,0,0-1.19-9,11.6,11.6,0,0,0-6.39-5.39,15,15,0,0,0-8.23-.52,18.83,18.83,0,0,0-6.95,3.2,10.35,10.35,0,0,1,2-3.82,13.6,13.6,0,0,1,4-3.31c3.13-1.77,6.83-2,8.57-1.42a18.13,18.13,0,0,1,8.75,5.5,16,16,0,0,1,2.58,4.09,18.3,18.3,0,0,1,1.22,4.4,22.26,22.26,0,0,1-.61,8.37,16.8,16.8,0,0,1-3.52,7.09,18.29,18.29,0,0,1-5.88,4.56,20.73,20.73,0,0,1-6.69,2,16.45,16.45,0,0,1-12.23-3.07,11.45,11.45,0,0,1-3.76-5.58A13.22,13.22,0,0,1,310,169.93Z" transform="matrix(-1, 0, 0, 1, 380, 0)" /><path class="cls-4" d="M278.66,152.09c1.22-19.3,16.79-48.16,26.62-50,2,2.69.39,6.52-.27,9.45-3.48,11.23-3.28,28.31-7,39.47" style="" transform="matrix(-1, 0, 0, 1, 380, 0)" /><path d="M298,151c-.17-.29,0-1.42.32-3.09s.64-3.88,1-6.26c.6-4.76,1.08-10.23,1.19-13.3a93.3,93.3,0,0,1,1.31-13.63c.21-1.18.48-2.36.79-3.55l.35-1.62.37-1.63a13.37,13.37,0,0,0,.24-1.46.62.62,0,0,0,0-.21c0-.1-.09-.21-.18-.2a.61.61,0,0,0-.24.2l0,0h0l-.06,0-.15.12-.57.47c-.37.34-.74.68-1.1,1a60.58,60.58,0,0,0-8.09,11,123.81,123.81,0,0,0-6.22,11.84,100.76,100.76,0,0,0-7.34,21.39,27.93,27.93,0,0,1-1.05-11.42,29.91,29.91,0,0,1,2.28-9.69,147.91,147.91,0,0,1,10.51-17.56,65,65,0,0,1,5.92-7.3,29.1,29.1,0,0,1,3.41-3.06,15,15,0,0,1,2.47-1.46,15.4,15.4,0,0,1,2.61-.88c.22,0,.36.3.51.53s.28.48.42.71a7,7,0,0,1,.62,1.52,9.1,9.1,0,0,1,.12,3.46c-.12.93-.32,1.79-.51,2.62s-.39,1.65-.59,2.46a70.49,70.49,0,0,0-1.74,9.09c-.78,5.94-1.24,11.53-2.18,16.68a48.91,48.91,0,0,1-2,7.78c-.43,1.29-.94,2.46-1.33,3.39S298.16,150.64,298,151Z" transform="matrix(-1, 0, 0, 1, 380, 0)" /><path class="cls-4" d="M298,137.5c7.44-17.12,15.75-22.33,23.67-23.78-.75,4-3.52,8.58-5.63,12,27.91,4.46,6.92-.94-9.11,20.37" style="" transform="matrix(-1, 0, 0, 1, 380, 0)" /><path d="M306.88,146c-.15-.57,1.79-3.6,4.67-6.61a65.31,65.31,0,0,1,8.77-7.51l1.19-.86.52-.37.25-.22.71-.62a3.84,3.84,0,0,0,.41-.42.31.31,0,0,0,.05-.1s0-.12-.13-.13a3.46,3.46,0,0,0-.52-.06h-1.11a1.5,1.5,0,0,1-.32,0l-.56-.06-.92-.12-2.67-.37-5.77-.83,2.53-4.18c.42-.69.83-1.37,1.22-2.06l.57-1,.27-.5.45-.9.22-.45a.53.53,0,0,0,.06-.13c.05-.12,0,0,0-.08h0a0,0,0,0,0,0,0s0,0,0,0l-.06,0-.22.11-.48.24c-.64.31-1.24.69-1.85,1a32.39,32.39,0,0,0-6.38,5.57,92.68,92.68,0,0,0-9,12.44,26.27,26.27,0,0,1,1.56-9.69,20,20,0,0,1,4.32-7.46,36.35,36.35,0,0,1,8-5.63,10.41,10.41,0,0,1,1.07-.5l1.15-.51,1.56-.56a10.63,10.63,0,0,1,1.5-.46c1.95-.52,3.68-.78,5.49-1.11,0,0,0,0,0,.09l0,.15-.08.3-.15.6-.3,1.14c-.22.73-.42,1.45-.67,2.17a30.14,30.14,0,0,1-1.85,4.19c-.52,1-1.18,2.13-1.43,2.54-.35.57-.69,1.13-1,1.69.38.11.92.14,1.36.22l1.43.18,2.44.33c1,.14,2.06.28,3.06.44a13.21,13.21,0,0,1,2.63.63,8.25,8.25,0,0,1,1.71.85c.21.17.49.3.57.72a1.25,1.25,0,0,1-.34.74,10.39,10.39,0,0,1-1.1,1.21,8.69,8.69,0,0,1-2.07,1.38L325,132.86l-1.22.68-.86.51-1.53.93c-2,1.27-3.84,2.58-5.59,3.9-1.42,1.12-3.45,2.59-5.19,4S307.38,145.61,306.88,146Z" transform="matrix(-1, 0, 0, 1, 380, 0)" /><path class="cls-4" d="M313.06,141.13c7.1-4.27,20.81-3,29.2-3.09-10,6.57-17.5,19-30,21" style="" transform="matrix(-1, 0, 0, 1, 380, 0)" /><path d="M312.21,158.94c.1-.26.76-.58,1.73-.92.49-.14,1-.43,1.62-.66.29-.13.61-.24.92-.38l.94-.49a26.16,26.16,0,0,0,6.47-4.59c2.25-2.35,4.57-4.94,7.05-7.56l1.89-2c.31-.33.64-.65,1-1l.24-.24v0l0-.06c.07-.15.06-.21,0-.21H334c-.23.06-.12.07-.14,0l-3.72-.14c-1.31,0-2.59-.08-3.83-.09-5-.07-9.37.1-12.78,1.2.74-1.93,3.06-3.93,5.47-5.09a13.34,13.34,0,0,1,6.11-1.58l4.79.54,2.28.27,1.11.12.55.07.82.06c2.24.17,4.23.32,6.17.41l2.82.12,1.35,0h.67c.15,0,.13,0,.15.07l0,.09c-.91.62-1.77,1.2-2.64,1.81s-1.7,1.24-2.54,1.85l-2.24,1.81c-.38.3-.71.61-1.05.91l-.91.85c-1.85,1.76-3.54,3.53-5.21,5.22-3.33,3.34-6.64,6.38-10.41,8.1a11.63,11.63,0,0,1-2.31.87l-1.31.33c-.44.09-.9.12-1.33.18l-1.23.12-1.07,0C312.93,159,312.45,159,312.21,158.94Z" transform="matrix(-1, 0, 0, 1, 380, 0)" /><path class="cls-8" d="M273.8,150.27c-4.42-14.75,14.42-17.17,17.57-6.07,10.52-9.93,27.83-1.56,23.07,14.17,8.11,1,10.67,10.63,4.67,17.61-2.63,1.32-.81,1.33.83,2.17,10.77,10.51-11.11,26.51-17.87,14.94-14.81-1.42-36.25-13.05-32.73-32.41" transform="matrix(-1, 0, 0, 1, 380, 0)" /><path d="M269.38,160.69c.21.41-.06,2.35.19,5.14a24.82,24.82,0,0,0,.95,4.67,22.5,22.5,0,0,0,2.39,5.06A29.66,29.66,0,0,0,281.3,184a38.55,38.55,0,0,0,8.77,4.46,49.09,49.09,0,0,0,6.45,1.79c1.11.23,2.23.42,3.35.56l.84.09,1.3.13.73.07c.23,0,.54,0,.64.24l.86,1.23a2,2,0,0,0,.31.38l.23.24a2.53,2.53,0,0,0,.5.43,4.92,4.92,0,0,0,1.09.67,5.69,5.69,0,0,0,2.59.5,11.3,11.3,0,0,0,5.66-1.87A13.43,13.43,0,0,0,319,188.6,8.73,8.73,0,0,0,320,186a5.81,5.81,0,0,0,0-2.49,6.29,6.29,0,0,0-.38-1.16,7.78,7.78,0,0,0-.68-1.08,3.49,3.49,0,0,0-.42-.53l-.27-.28-1-.37a5.07,5.07,0,0,1-.85-.43l-.33-.24a3.59,3.59,0,0,1-.54-.56,3.16,3.16,0,0,1-.53-1.08,2.86,2.86,0,0,1-.05-1.33,3.26,3.26,0,0,1,.18-.63c.06-.13.1-.22.16-.33a4.6,4.6,0,0,1,.4-.58c.17-.18.33-.34.51-.5a6.59,6.59,0,0,1,.68-.47l.28-.17h0s0,0,0,0l0-.05.18-.24a11,11,0,0,0,1.36-2.46,9.81,9.81,0,0,0,.65-3.34,7.51,7.51,0,0,0-.7-3.06,5.29,5.29,0,0,0-1.86-2.21,3.94,3.94,0,0,0-.63-.36l-.16-.09-.08-.05a.46.46,0,0,0-.14,0l-.93-.24c-1.13-.33-2.74-.62-4.23-.92l.66-2.48c.12-.43.21-.81.29-1.18l.25-1.11.13-.56.06-.27V155l.05-.52a7,7,0,0,0,.07-1,11.18,11.18,0,0,0-.56-3.86,9.87,9.87,0,0,0-4.76-5.59,11.6,11.6,0,0,0-7.33-1.19,12.37,12.37,0,0,0-3.56,1.15,3.29,3.29,0,0,0-.42.21l-.57.34c-.28.16-.57.39-.85.58l-.82.68c-1.11.9-2.15,1.83-3.14,2.6l-.68-2.09c-.25-.7-.45-1.48-.74-2.09l-.4-.95-.1-.23-.05-.12-.11-.18-.12-.16a4.36,4.36,0,0,0-.48-.65A7.1,7.1,0,0,0,285,140a8.35,8.35,0,0,0-6.28-.24,6.65,6.65,0,0,0-4,4.2,8.83,8.83,0,0,0-.44,3,15.14,15.14,0,0,0,.34,3.08,12.11,12.11,0,0,1-1.33-3,9.33,9.33,0,0,1-.36-3.86,8.26,8.26,0,0,1,1.7-4.15,9.77,9.77,0,0,1,3.89-3,11.81,11.81,0,0,1,9.8.31,11.33,11.33,0,0,1,3.81,3l.18.23.09.12s.05.06,0,0-.08-.11-.06-.09h.06a.05.05,0,0,0,0,0s0,0,0,0h0l.23-.13a3.09,3.09,0,0,1,.44-.23,17.49,17.49,0,0,1,10.17-1.67,16,16,0,0,1,8.88,4.22,14.77,14.77,0,0,1,4.38,8.29,17,17,0,0,1,.1,4.5l-.14,1.1-.14.61c-.05.22-.1.39-.15.55a2.18,2.18,0,0,0-.13.5,7.53,7.53,0,0,1,.91.25l.56.22.14,0,.21.12.43.24a10,10,0,0,1,3,2.53,11.09,11.09,0,0,1,2.21,7.08,13.88,13.88,0,0,1-2.08,6.75c-.16.25-.3.51-.46.74l-.53.69-.64.83c-.15.1-.32.17-.48.26l-.23.13-.14.08-.22.15s0,0,0,0c-.25-.19-.35-.36-.53-.43s-.29.06.08-.31c0-.05.16-.2.26-.33l.06-.09h0l.08,0c.17.08.4.17.66.27l.39.16.5.22a2,2,0,0,1,.82.68l.61.65a15.8,15.8,0,0,1,1,1.43,9.77,9.77,0,0,1,1.22,3.28,10.6,10.6,0,0,1-1.17,6.6,15.91,15.91,0,0,1-4,4.94,17.22,17.22,0,0,1-5.37,3.11,12.19,12.19,0,0,1-6.24.65,9.17,9.17,0,0,1-5.49-3.23l-.17-.2-.09-.14-.19-.26-.69-.07c-.83-.11-1.8-.25-2.67-.42a48.37,48.37,0,0,1-5.21-1.3,41.55,41.55,0,0,1-17.18-10.13,25.75,25.75,0,0,1-4.06-5.35,21.94,21.94,0,0,1-2.5-6.82,21.37,21.37,0,0,1-.22-6.19A25.51,25.51,0,0,1,269.38,160.69Z" transform="matrix(-1, 0, 0, 1, 380, 0)" /><path class="cls-3 color-sushi" d="M277.78,137.17c-15,3.41-43.37,35-38.31,50.21,6.57,19.7,26.15,34.75,49.77,36,17.47-3.55,33.25-21.56,42.56-34.2-18.3-4.35-52.35-26.88-55-49.65" style="" transform="matrix(-1, 0, 0, 1, 380, 0)" /><path d="M276.84,139.51c.43.49.86,3.27,2.57,7a50.87,50.87,0,0,0,8.36,12.71,86.41,86.41,0,0,0,13,11.94A90.2,90.2,0,0,0,313,178.92c3,1.54,6,3,9.25,4.29,1.6.67,3.23,1.24,4.93,1.82l2.11.64,1.09.33,1.2.3,4.87,1.2c-1.05,1.61-2.46,3.47-3.65,5.11s-2.69,3.65-3.29,4.4c-1.59,2.1-3.27,4.16-5,6.18a105.59,105.59,0,0,1-11.46,11.52,64.57,64.57,0,0,1-13.89,9.17l-1.92.89c-.65.27-1.33.5-2,.75s-1.32.51-2,.7l-2.08.55-1.38.36a2.15,2.15,0,0,1-.91,0l-.72,0-2-.16c-.68-.07-1.36-.09-2-.19l-2-.3a59.62,59.62,0,0,1-33.25-16.77,54.18,54.18,0,0,1-10.49-15l-.95-2.06-.78-2.12-.38-1.06-.19-.53a3.74,3.74,0,0,1-.19-.59,15,15,0,0,1-.52-2.67,22.59,22.59,0,0,1,1.24-9.54,53.62,53.62,0,0,1,8-14.68A87.46,87.46,0,0,1,254.71,150a75.79,75.79,0,0,1,11-8.74,45.6,45.6,0,0,1,5.77-3.2,24.17,24.17,0,0,1,6-2,40.92,40.92,0,0,0-10.08,7.64A107.6,107.6,0,0,0,258,154.3a127.39,127.39,0,0,0-7.56,10.75c-2.09,3.29-3.65,6.14-4.74,8.06a30,30,0,0,0-3.37,8.32,14.26,14.26,0,0,0-.23,3.92l.17.88a2.08,2.08,0,0,0,.14.51l.17.55.72,2.19a46.81,46.81,0,0,0,9.46,15.45,50.27,50.27,0,0,0,14,10.71,54.1,54.1,0,0,0,16.08,5.43l2.05.35c.69.09,1.38.13,2.06.2l2,.18c.22.06.41-.06.7-.11l1-.25a38.69,38.69,0,0,0,7.44-2.79,62.74,62.74,0,0,0,12.82-8.83,107,107,0,0,0,10.53-10.68c1.61-1.85,3.13-3.74,4.61-5.62l.52-.67.31-.41.6-.82.53-.73.24-.35.12-.17c0-.05.13-.13,0-.13q-.75-.17-1.44-.36l-.74-.23-.37-.12-.19-.06-.32-.12c-1.9-.68-3.74-1.43-5.52-2.23a100,100,0,0,1-27.2-18.26,59.11,59.11,0,0,1-12-15.74,36.68,36.68,0,0,1-3.07-8.37c-.07-.3-.14-.59-.2-.88l-.13-.83c-.08-.54-.17-1-.22-1.47C276.91,140.68,276.87,140,276.84,139.51Z" transform="matrix(-1, 0, 0, 1, 380, 0)" /><path class="cls-2" d="M306.17,149.69a.87.87,0,0,1,0-.91,1.63,1.63,0,0,1,.46-.5,2.46,2.46,0,0,1,.75-.36,2.59,2.59,0,0,1,1.41,0c.42.11.77.27,1.06.31a2.84,2.84,0,0,1,1.45.74,3.24,3.24,0,0,1,.63.82,3.08,3.08,0,0,1,.28.71,3.17,3.17,0,0,1,.13.43l0,.67v.69a1,1,0,0,1-.11.44l-.17.5-.35,1-.18.52-.4.47-.81.95-.41.48c-.14.15-.28.37-.41.41l-1.66.91-.2.11-.15,0-.3.07-.61.15a3.86,3.86,0,0,1-1,.11l-.44,0H304l-.94,0c-.41-.47-.78-.94-1.1-1.38-.14-.17-.4-.59-.59-.9a9.68,9.68,0,0,1-.52-1,5,5,0,0,1-.14-3.83,3.75,3.75,0,0,1,.38-.75s.18-.28.28-.42a3.3,3.3,0,0,1,.37-.44,3.72,3.72,0,0,1,1.48-1,4,4,0,0,1,2.41,0,14.08,14.08,0,0,0,1.18,4l.2.25a1.6,1.6,0,0,0-.29-.26,4.47,4.47,0,0,0-.54-.36l-.15-.07-.05,0h0l2,.7h0v0l0,.05c0,.08,0,0-.1,0-.74-.2-1.18.1-1.29.45a.87.87,0,0,0-.05.28c0,.1,0,.21.08.22a.76.76,0,0,0,.46.06,1.76,1.76,0,0,0,1-.65,2.08,2.08,0,0,0,.46-.86.83.83,0,0,0-.07-.66,4,4,0,0,0-.41-.69,8.58,8.58,0,0,1-.67-1A2.72,2.72,0,0,0,306.17,149.69Z" style="" transform="matrix(-1, 0, 0, 1, 380, 0)" /><path class="cls-2" d="M314.61,164.76c0-.42.66-.94,1.79-.69l.42.13.39.23a2.81,2.81,0,0,1,.65.58,9,9,0,0,1,.81,1.14,4.89,4.89,0,0,1,.66,3.78,5.3,5.3,0,0,1-1,2.1,4.77,4.77,0,0,1-2.55,1.7,5.07,5.07,0,0,1-2.19.16,3.86,3.86,0,0,1-1.91-.86,3.66,3.66,0,0,1-.88-1.07,3.9,3.9,0,0,1-.39-1.13,4.27,4.27,0,0,1,0-1.6,4.45,4.45,0,0,1,.34-1,5.76,5.76,0,0,1,.84-1.29,6.38,6.38,0,0,1,2-1.51,5.22,5.22,0,0,1,2.3-.58,5.42,5.42,0,0,0,.31,1.85l.41,1.43c.22.8.28,1.3,0,1.36a5.78,5.78,0,0,0-1.39.48.46.46,0,0,1-.23,0,2.35,2.35,0,0,0-.46,0,1.42,1.42,0,0,0-.31.06c-.3.11-.06.13.08-.4,0-.09,0-.07,0-.06l0,0a.1.1,0,0,0,.06,0,.45.45,0,0,0,.22.05,1.1,1.1,0,0,0,.46,0c.09,0,.17-.1.27-.15a1.38,1.38,0,0,0,.22-.36,3,3,0,0,0,.15-1.82c-.11-.56-.29-.82-.22-1a2.31,2.31,0,0,0,0-.28.89.89,0,0,0-.16-.52A3.57,3.57,0,0,0,314.61,164.76Z" style="" transform="matrix(-1, 0, 0, 1, 380, 0)" /><path class="cls-2" d="M286.13,142.24a.84.84,0,0,1-.78.31H284l1.36-1.2a1.45,1.45,0,0,1,1.11-.31,2.3,2.3,0,0,1,1.12.49c.57.45.91.93,1.23,1.21a4.73,4.73,0,0,1,1.48,2.87,5.39,5.39,0,0,1-.08,1.94,4.76,4.76,0,0,1-1.2,2.24,4.55,4.55,0,0,1-1.82,1.15l-2,.65-1.3-1.77a6.06,6.06,0,0,1-1.07-5,4.66,4.66,0,0,1,.56-1.37,2.83,2.83,0,0,1,.93-.9,2.69,2.69,0,0,1,2.18-.26c.05.31.12.6.18.85a3.72,3.72,0,0,0,.19.65,2.36,2.36,0,0,0,1,1.25.62.62,0,0,0,.18,0h.13l-.45-.1h0a2.41,2.41,0,0,0,.55.09s0,0,0,0a1.37,1.37,0,0,0-.94,1,2.32,2.32,0,0,0,0,1.26l-1.4-.48c.25.07.46-.12.55-.5a2.66,2.66,0,0,0-.11-1.24c-.25-.82-.75-1.48-.7-1.8-.06.06.3-.39.3-.53v-.06a.53.53,0,0,0-.16-.29v-1A3.32,3.32,0,0,1,286.13,142.24Z" style="" transform="matrix(-1, 0, 0, 1, 380, 0)" /><g class="cls-5" transform="matrix(-1, 0, 0, 1, 380, 0)"><g class="cls-6"><path class="cls-7" d="M270.32,147.54c.4.45,1.22,5.09,3.19,10.22a71.23,71.23,0,0,0,6.77,13.75l-1.58,1.14-.26-.29c-1.94-2.23-3.81-4.55-5.82-6.8-.5-.57-1-1.12-1.52-1.65-.26-.25-.51-.53-.77-.76s-.54-.47-.69-.58l-.48-.21-.2-.08s-.19-.07-.13.07l.13.42.05.18,0,.08.1.44c.31,1.37.61,2.75.88,4.14s.51,2.79.66,4.26a15.42,15.42,0,0,1,.11,2.3,6.19,6.19,0,0,1-.18,1.43,3.31,3.31,0,0,1-.49,1.07,2.36,2.36,0,0,1-.7.66,2.57,2.57,0,0,1-1.09.37l-.86.11-.6-.65-.39-.45-.25-.35c-.17-.24-.27-.42-.41-.63l-.36-.59-.08-.13h0l-.07-.06s0,0,0,.08,0,0,0,0l0,.34.06.45.1.93c.05.63.09,1.26.09,1.93a8.05,8.05,0,0,1-1.12,4.41l-1,1.52-1.54-.88a4.94,4.94,0,0,1-1.17-.93c-.11-.12-.32-.33-.23-.25v0l0-.07c0-.06-.07-.15-.13-.26a1.28,1.28,0,0,0-.14-.21c-.06,0-.06,0-.08,0a.78.78,0,0,0,0,.27l0,.23v.15l.18.82a18.76,18.76,0,0,1,.49,2.84,3.49,3.49,0,0,1-.1,1.16,6.59,6.59,0,0,1-.4.85.67.67,0,0,1-.15.14c-.08,0-.13.08-.19.11l-.35.17a2.55,2.55,0,0,1-.74.07,4.89,4.89,0,0,1-1.8-.51c-.63-.29-1.29-.65-1.86-1l-1.07-.62-.3-.18-.19-.13a2.09,2.09,0,0,0-.45-.22.13.13,0,0,0-.19.08,1.22,1.22,0,0,0-.12.19,1.67,1.67,0,0,0-.16.46l0,.26v.37c0,.33.06.67.12,1,.13.73.26,1.44.38,2.14a10.52,10.52,0,0,1,.15,2.25,5.69,5.69,0,0,1-.59,2.17,5.81,5.81,0,0,0,0-2.08,10.72,10.72,0,0,0-.64-2.07c-.29-.69-.62-1.39-.91-2.17a8.59,8.59,0,0,1-.37-1.24,4.19,4.19,0,0,1-.1-.83,3.79,3.79,0,0,1,0-.89A3.62,3.62,0,0,1,251,185a2.5,2.5,0,0,1,.33-.8l.23-.35a.74.74,0,0,1,.29-.29,1.85,1.85,0,0,1,.76-.16,5,5,0,0,1,1.79.43l1.5.63.56.23c.07,0,.23.11.22.09h.06a.48.48,0,0,0,.18,0c.09,0,.13-.06.11-.17a.51.51,0,0,0-.11-.16l0,0h0l0-.07-.43-1.66c-.21-.8-.39-1.53-.52-2.15a25.16,25.16,0,0,1-.61-3.61,3.74,3.74,0,0,1,.31-2,1.77,1.77,0,0,1,.35-.5c.14-.15.25-.3.51-.55a.91.91,0,0,1,.57-.15,4.17,4.17,0,0,1,.5,0L259,175.2c.27.31.54.61.82,1s.58.77.87,1.19c.58.82,1.15,1.65,1.71,2.4l.43.54.28.33c.08.1.14.14.21.22l.07.06,0,0s.05-.07-.05.16l-1.45.25a5.18,5.18,0,0,0,.66-2.8,15.87,15.87,0,0,0,0-1.68l-.07-.85-.13-1c-.24-1.72-.52-3.41-.65-4.83s-.1-2.44-.09-3.69l.25-.31.14-.16a2.31,2.31,0,0,1,.36.17,6.67,6.67,0,0,1,1,.9c.3.31.59.63.9,1s.63.82,1,1.35c.66,1,1.34,2.23,2,3.39l.49.86.36.61a8.42,8.42,0,0,0,.69,1l-.58,0a0,0,0,0,0,0,0v0s0,0,0-.06-.17-.14-.13-.15,0,0,.05-.09a1.22,1.22,0,0,0,0-.17,4.92,4.92,0,0,0,.09-.91,15.84,15.84,0,0,0-.11-2.05c-.15-1.38-.38-2.76-.64-4.11s-.54-2.68-.83-4l-.28-1.32-.3-1.41c-.16-.92-.25-1.74-.36-2.59l.17-.14a2.52,2.52,0,0,1,.37,0,6.76,6.76,0,0,1,.71.16,10.15,10.15,0,0,1,1.34.46,13.6,13.6,0,0,1,1.52.82,12.39,12.39,0,0,1,1.5.9,15.62,15.62,0,0,1,1.84,1.77c.55.6,1.07,1.2,1.58,1.8,2,2.38,3.86,4.83,5.62,7l-1.8,1.3a65.93,65.93,0,0,1-4.66-9.44,51.71,51.71,0,0,1-2.66-9c-.32-1.54-.51-3-.66-4.16S270.36,148,270.32,147.54Z" /></g><g class="cls-6"><path class="cls-7" d="M302.5,199.08c.29-.13,1.06.47,2.19.53s2.75,0,3.92.16l-.85,1.4a7.25,7.25,0,0,1-.67-.84,3.11,3.11,0,0,1-.42-1.1,3.73,3.73,0,0,1,.05-1.21l.16-.65a7.05,7.05,0,0,0-.06-.86c-.07-.64-.17-1.44-.29-2.17a1.4,1.4,0,0,0,.25,0H307l.62.17,1.33.4c.46.14.93.28,1.4.4l.36.08.16,0,.3,0a2,2,0,0,0,.89-.09.84.84,0,0,0,.41-.31v2.59c-.19-.19-.35-.36-.5-.53a7.19,7.19,0,0,1-.52-.6,27.34,27.34,0,0,1-5-9.15c2.3,1,4.73,2.13,6.45,2.76.44.18.83.26,1.23.39s.71.17,1.05.25.74.18,1.12.25c1.47.3,2.93.53,4.17.85a9.59,9.59,0,0,1-3.45,2,7.62,7.62,0,0,1-1.9.38,1.21,1.21,0,0,0-.39,0s0,0,0,0a2.93,2.93,0,0,0-1.1-.89l-.66-.39s-.15-.09-.15-.07l0,.05,0,.11a1.57,1.57,0,0,0,.21.7,6,6,0,0,0,.52.89c.11.16.2.29.36.49s.37.46.55.65l.5.52-.5.54a3.56,3.56,0,0,1-1.83,1,5.16,5.16,0,0,1-1.91.05l-.44-.07-.26,0-.4-.09-.36-.08s-.14-.06-.14,0a1.38,1.38,0,0,1,0,.2,1.62,1.62,0,0,1,0,.55l-.06.24a1.26,1.26,0,0,0-.05.29c0,.31.1.54.43,1l1.63,2.28-2.72-.5-1.88-.34a7,7,0,0,1-2.53-.85A3.62,3.62,0,0,1,302.5,199.08Z" /></g></g></svg>