<svg xmlns="http://www.w3.org/2000/svg" id="outfits_springbreak" viewBox="0 0 380 600"><defs transform="matrix(-1, 0, 0, 1, 380, 0)"><style>.cls-1{fill:#fff8b8;}.cls-2{opacity:0.3;}.cls-3{fill:#f9a;}.cls-4{fill:#7eed56;}.cls-5{fill:#ffd635;}.cls-6{fill:none;}</style></defs><path class="cls-1" d="M129.55,178.21c36.55,5.61,51.86,11.13,75.68,19.81,42.86,15.62,58.11,17.66,73.06,11.83,38.89-15.14,60.33-16.49,80.16,1.7s5,32.77-6.66,44a112.73,112.73,0,0,1-25.31,17.95s6-19.34-17.69-28.07-62-12.77-106.9-8.39-82.33,3.53-115.66-6c-15.61-4.45-32-18.43-35.1-30.17-4.05-15.34,2.66-24,20.12-25.15A280.66,280.66,0,0,1,129.55,178.21Z" transform="matrix(-1, 0, 0, 1, 380, 0)" /><path d="M129.54,178.33c-1.56.42-9.28-.37-20.67-.81-5.7-.23-12.31-.36-19.51-.24-3.6.06-7.35.18-11.2.38-1.92.11-3.87.23-5.84.38-1,.06-1.92.19-2.88.29a26.85,26.85,0,0,0-2.83.44,29.49,29.49,0,0,0-5.41,1.54c-.42.18-.82.4-1.23.59a6.68,6.68,0,0,0-1.18.64l-1.12.72-1,.83a10.9,10.9,0,0,0-2.9,4.09,6.89,6.89,0,0,0-.41,1.21,5.79,5.79,0,0,0-.3,1.26l-.21,1.3,0,1.36,0,.68,0,.69.09,1.39c.14.93.27,1.87.46,2.8l.34,1.4a8.43,8.43,0,0,0,.38,1.34l.43,1.25c.15.42.38.83.56,1.24a35.33,35.33,0,0,0,6.5,9,60.74,60.74,0,0,0,17.13,12.24,51.74,51.74,0,0,0,8.48,3.13l4.18,1q2,.49,3.87.84c17.43,3.53,35.88,4.87,54.72,4.69,9.42-.09,18.95-.54,28.53-1.25l7.19-.59,7.21-.67L207.53,230a329.54,329.54,0,0,1,59.93-.49,207.84,207.84,0,0,1,29.69,4.66l3.66.91c1.22.32,2.43.69,3.65,1s2.42.7,3.63,1.12,2.39.78,3.64,1.24a40.66,40.66,0,0,1,14.8,9.15c.27.26.54.51.8.79l.74.9,1.45,1.8c.48.61.85,1.31,1.27,2a20.57,20.57,0,0,1,1.16,2,29.08,29.08,0,0,1,1.73,4.36l.08.28.05.14v.06l0-.06c0-.1,0-.1,0-.09h0l0,0,0,.09s.08-.07.1-.08l.05-.06,2.72-2a96.7,96.7,0,0,0,8.07-6.62c.63-.6,1.22-1.13,1.9-1.79l2-1.93c1.29-1.27,2.53-2.52,3.69-3.77a43,43,0,0,0,5.73-7.44,13.59,13.59,0,0,0,2.1-6.66,11.49,11.49,0,0,0-2-6.25,29.66,29.66,0,0,0-5.77-6.56,46.74,46.74,0,0,0-3.7-3l-1.89-1.39c-.64-.44-1.32-.79-2-1.19a37.88,37.88,0,0,0-8.18-3.68,40.89,40.89,0,0,0-8.9-1.5,70.1,70.1,0,0,0-19.11,1.86,173.69,173.69,0,0,0-19.34,5.54c-1.6.51-3.18,1.11-4.77,1.68l-2.38.85-1.19.42-1.36.47a46.68,46.68,0,0,1-11.56,2.54,56.76,56.76,0,0,1-11.39-.16c-.93-.07-1.83-.2-2.72-.34l-2.67-.41c-1.73-.34-3.47-.67-5.16-1.05a192.5,192.5,0,0,1-19.32-5.65c-12.35-4.17-23.94-9-35-13.3a309.31,309.31,0,0,0-32.23-10.84c-10.49-2.88-20.69-5.12-30.37-7.14a237.41,237.41,0,0,1,34.39,1.95c6.4.84,13,2.05,19.63,3.56s13.22,3.3,19.65,5.14c12.79,3.69,25.05,7.31,35.63,9.87,5.26,1.27,10.11,2.35,14.27,3A91.6,91.6,0,0,0,263.22,205a34.68,34.68,0,0,0,9.76-1c.8-.2,1.61-.48,2.42-.71.19,0,.41-.13.66-.21l.72-.24,1.44-.48c1.92-.63,3.8-1.29,5.73-1.89a190.12,190.12,0,0,1,23.44-6.07,98.59,98.59,0,0,1,12.18-1.5c1-.1,2.07-.05,3.1-.08s2.07,0,3.11,0l3.13.23,1.56.11c.52.06,1,.16,1.56.24l3.1.51c1,.19,2,.51,3.06.76a45.74,45.74,0,0,1,5.95,2l.74.27.7.35,1.4.69c.91.48,1.88.88,2.75,1.42l2.61,1.62c.43.28.88.53,1.29.83l1.21.9,2.41,1.82c.78.62,1.49,1.31,2.24,1.95s1.48,1.3,2.2,2,1.44,1.4,2.11,2.17a33.78,33.78,0,0,1,6.82,10.48,23.47,23.47,0,0,1,1.49,6.46,21.9,21.9,0,0,1-.5,6.58,31.16,31.16,0,0,1-5.31,11,70.1,70.1,0,0,1-7.41,8.44c-1.29,1.28-2.59,2.51-3.87,3.73-.63.6-1.31,1.21-2,1.83s-1.35,1.22-2,1.8c-2.75,2.36-5.59,4.55-8.49,6.59l-2.28,1.56c-1,.65-2,1.31-3,1.94-2,1.27-4.08,2.49-6.1,3.57-.71-.11-1.29-.11-1.93-.16s-1.16,0-1.69,0-1,.07-1.54.13c-.19.06-.09-.11-.1-.21l0-.33,0-.68a14.26,14.26,0,0,0-2.14-6c0-.75-.07-1.44-.11-2.16l-.06-1.07a6.19,6.19,0,0,0-.19-1l-.4-1.31a8.4,8.4,0,0,0-.44-1.12l-.48-1.11c-.19-.35-.41-.68-.61-1l-.61-1-.76-.95-.74-.95c-.27-.3-.59-.57-.88-.86a14.28,14.28,0,0,0-1.83-1.64l-2-1.49-2.21-1.25a10,10,0,0,0-1.12-.6l-1.18-.51-2.37-1c-1.7-.57-3.38-1.19-5.09-1.72s-3.42-1-5.16-1.49-3.45-.92-5.2-1.29a185.24,185.24,0,0,0-20.94-3.52c-7-.78-13.9-1.32-20.78-1.54a342.57,342.57,0,0,0-40.35,1.1l-9.81.95c-3.28.33-6.55.68-9.81.95l-4.87.42-4.85.35c-3.23.26-6.44.41-9.64.59a352.79,352.79,0,0,1-37.64,0,240.38,240.38,0,0,1-35.86-4.65c-2.87-.68-5.76-1.25-8.57-2l-4.24-1.13c-1.47-.49-3-.9-4.39-1.5a61.63,61.63,0,0,1-8.2-3.88,70.33,70.33,0,0,1-7.42-4.88,60.12,60.12,0,0,1-12.49-12.39,37.81,37.81,0,0,1-4.44-8c-.26-.75-.5-1.53-.74-2.29s-.33-1.45-.51-2.18a42,42,0,0,1-.67-4.4c0-1.09-.14-2.17-.1-3.33a22.39,22.39,0,0,1,.39-3.56,20.15,20.15,0,0,1,1-3.7c.24-.61.57-1.21.87-1.81a10.49,10.49,0,0,1,1.08-1.74,18,18,0,0,1,2.75-3.09l1.63-1.26a18.08,18.08,0,0,1,1.72-1.06l.88-.5.91-.4c.6-.25,1.21-.54,1.82-.75a30.4,30.4,0,0,1,3.72-1c.63-.13,1.25-.27,1.87-.38l1.87-.24c1.25-.19,2.48-.21,3.72-.29,2.44-.1,4.75-.09,7.13-.09,4.72,0,9.4.2,13.91.47,9,.55,17.37,1.53,24,2.58S127.06,177.77,129.54,178.33Z" transform="matrix(-1, 0, 0, 1, 380, 0)" /><path class="cls-1" d="M296.16,218.89c-1.62-18.49-5.78-55.79-13.69-67.78-19.69-29.87-93.4-37.44-118.58-29.15-27.33,9-46.59,50.68-50.9,64" transform="matrix(-1, 0, 0, 1, 380, 0)" /><path d="M112.94,185.92c-.12-.63.59-3.58,2.15-7.74A134.65,134.65,0,0,1,122,163a150.19,150.19,0,0,1,10-16.45,124.34,124.34,0,0,1,9.92-12.38,57.06,57.06,0,0,1,17.82-13.58A47.19,47.19,0,0,1,171,117.16a105.36,105.36,0,0,1,11.57-1.44,164.94,164.94,0,0,1,23.11.17,193.09,193.09,0,0,1,22.39,3c12.66,2.47,25.15,6.2,36.52,12.2a65.14,65.14,0,0,1,15.56,11.3c.28.29.58.56.85.86l.8.92,1.58,1.84,1.42,2,.7,1c.23.34.42.73.63,1.09.39.74.83,1.48,1.18,2.21s.61,1.46.92,2.18a19.84,19.84,0,0,1,.81,2.17c.25.72.49,1.43.73,2.15a126.24,126.24,0,0,1,3.77,16.68c.89,5.41,1.58,10.65,2.08,15.69,1,10.1,1.52,19.41,1.71,27.68-2.3-7.23-4.79-17.83-7.18-27.76s-4.69-19.15-5.68-24l-.36-1.82-.43-1.78c-.28-1.19-.56-2.38-.92-3.5l-.52-1.71c-.16-.57-.39-1.08-.59-1.62L281,155l-.73-1.45a36.81,36.81,0,0,0-8.73-10.36,66.22,66.22,0,0,0-11.42-7.62,97.45,97.45,0,0,0-12.34-5.53,147.15,147.15,0,0,0-25.09-6.74,181.49,181.49,0,0,0-24.29-2.69,140.6,140.6,0,0,0-22.76.81,62.67,62.67,0,0,0-10.39,2.19,40.89,40.89,0,0,0-9.11,4.3,69.35,69.35,0,0,0-14.66,12.8,134.16,134.16,0,0,0-11.24,14.65c-3.13,4.73-7.33,11.29-10.66,17.31S113.7,184.11,112.94,185.92Z" transform="matrix(-1, 0, 0, 1, 380, 0)" /><g class="cls-2" transform="matrix(-1, 0, 0, 1, 380, 0)"><path d="M246.71,146.73c-.32.72-7.3,1.38-10,2-2.35.57-4.84,1-7.45,1.43a33,33,0,0,1-8.09.25,24.22,24.22,0,0,1-3.41-.64c-1.08-.27-2.1-.57-3.12-.88-2-.62-4-1.33-5.82-2.08a46.36,46.36,0,0,1-9.18-4.94c3.06-.61,7.95-.13,9.46.7a49.22,49.22,0,0,0,9,4,20.39,20.39,0,0,0,4.23,1,23.24,23.24,0,0,0,4.08.06c2.65-.17,5.16-.6,7.52-.89a63.42,63.42,0,0,1,6.63-.6A32.72,32.72,0,0,1,246.71,146.73Z" /></g><path class="cls-3" d="M219.64,188.84c-60.49-7-93.86-21.44-93.86-27.92,0-4.7-13.3,22-9.55,25.63,25.81,25.33,127.4,37.18,182.68,31.2l-5.22-27.92C273.13,191.8,241.32,191.34,219.64,188.84Z" transform="matrix(-1, 0, 0, 1, 380, 0)" /><path d="M219.65,188.79c.87-.13,5.32.24,11.91.59s15.3.69,24.64.76,19.33-.14,28.42-.73c1.13-.06,2.25-.16,3.35-.24l1.65-.13,1.67-.16,2.26-.21c.37,0,.76-.08,1.11-.08l.21,1.08c.25,1.26.49,2.5.73,3.7.78,3.87,1.49,7.34,2.08,10.24q.79,3.84,1.61,7.74c.29,1.45.59,2.92.89,4.38.21,1.05.42,2.1.62,3.16l0,.19s.08.18,0,.16l-.4,0-.79.08-1.6.17-4.81.52-4.09.36c-2.74.21-5.5.4-8.27.54-11.09.56-22.4.58-33.74.15s-22.72-1.24-33.93-2.46-22.27-2.8-33-4.82c-9.36-1.76-18.64-3.87-27.74-6.53-4.53-1.39-9.05-2.8-13.45-4.54-2.22-.8-4.38-1.79-6.56-2.71s-4.29-2-6.36-3.17a67.24,67.24,0,0,1-6.1-3.73L117.1,191l-1.37-1.21-.68-.61-.34-.31-.22-.19a3.17,3.17,0,0,1-.26-.26,5.25,5.25,0,0,1-1.31-3,10.28,10.28,0,0,1,0-2.28,24.28,24.28,0,0,1,.69-3.75,57.35,57.35,0,0,1,2.24-6.67q1.28-3.19,2.77-6.25c.5-1,1-2,1.57-3l.5-.9q.39-.69.81-1.35a12.9,12.9,0,0,1,1.75-2.32,3.47,3.47,0,0,1,1.87-1,2.14,2.14,0,0,1,.52-.05,1.25,1.25,0,0,1,.43.07l.36.15a2,2,0,0,1,.35.21l.43.27c.07,0,.16.2.24.31l.23.36.47.74c.3.48.48,1,.72,1.44l.17.35.08.18a.45.45,0,0,0,.07.07l.24.22a26,26,0,0,0,4.78,3.3,90.74,90.74,0,0,0,11.17,5.1c3.82,1.47,7.65,2.78,11.47,4,7.64,2.38,15.17,4.33,22.47,6,14.6,3.35,28.26,5.66,40.43,7.47A285.37,285.37,0,0,1,177.25,184c-7.6-1.3-14.94-2.92-21.27-4.64a120.65,120.65,0,0,1-15.19-5.13,79,79,0,0,1-10.49-5.34c-.85-.52-1.68-1.1-2.51-1.72-.41-.33-.82-.65-1.22-1l-.6-.57-.28-.27-.08-.11-.16-.19-.06-.13a.82.82,0,0,1-.08-.29c0-.05,0-.12,0-.15s-.08,0-.11,0a1.14,1.14,0,0,0-.19.19,5.27,5.27,0,0,0-.39.53c-.44.76-.87,1.55-1.29,2.34q-1.25,2.38-2.33,4.83a50.77,50.77,0,0,0-3.42,9.87,11.24,11.24,0,0,0-.25,2.27,2.15,2.15,0,0,0,.1.68c.08.19.11.23.45.52l1.88,1.72c.65.55,1.35,1.05,2,1.57l1,.78,1.07.7,2.16,1.4c1.5.85,3,1.73,4.5,2.51a132.69,132.69,0,0,0,18.85,7.69c6.38,2.11,12.78,3.83,19.12,5.33s12.65,2.79,18.88,3.87c12.46,2.21,24.63,3.68,36.44,4.77,23.62,2,45.86,2.47,66.49,1,1.29-.11,2.58-.19,3.85-.32l2.61-.26.22,0c.05,0,.2,0,.14-.08l-.08-.43-.17-.86c-.23-1.23-.47-2.46-.7-3.69q-1.39-7.4-2.74-14.56l-.66-3.56-.21-1.14-.07-.4,0-.19a.6.6,0,0,0-.19,0l-2.4.2-3.55.22c-4.7.26-9.33.4-13.87.45-8.64.15-20.42-.27-30.73-1.09-5.16-.39-9.95-.9-13.81-1.36S221.09,189,219.65,188.79Z" transform="matrix(-1, 0, 0, 1, 380, 0)" /><path class="cls-4" d="M238.56,175c-4.64-4.95-12.42-5.32-19.06-3.92A48.33,48.33,0,0,0,195,184.53a113.17,113.17,0,0,0,17.51,9,32.68,32.68,0,0,0,10.2,2.76c5.77.35,11.46-2,16.05-5.49S247,182.73,250.37,178" transform="matrix(-1, 0, 0, 1, 380, 0)" /><path d="M250.4,178.06c.07.61-2.21,4.38-5.55,8.31a43,43,0,0,1-5.64,5.49,39.19,39.19,0,0,1-5.49,3.62,22.73,22.73,0,0,1-8.9,2.78,25.09,25.09,0,0,1-9.73-1.28,84.34,84.34,0,0,1-8.77-3.4c-2.84-1.26-5.59-2.62-8.22-4.06l-1.16-.64-2.08-1.23L190.57,185c1.61-1.61,3.25-3.21,4.91-4.77.19-.19.46-.42.55-.5l.35-.3.7-.59,1.44-1.13a46,46,0,0,1,6-3.89,46.62,46.62,0,0,1,12.81-4.69,30.07,30.07,0,0,1,12.51-.2,15.52,15.52,0,0,1,9.25,5.52,18.31,18.31,0,0,0-5.23-1.78,23.25,23.25,0,0,0-5.83-.23c-3.85.31-7.27,1.31-9.2,1.57a39.94,39.94,0,0,0-12.8,4,40.92,40.92,0,0,0-5.5,3.35c-.43.31-.86.61-1.26.94l-1,.81a17.73,17.73,0,0,0-1.39,1.23c.6.4,1.19.79,1.88,1.2,1,.64,2.11,1.24,3.16,1.81q3.15,1.72,6.29,3.13c4.18,1.84,8.27,3.55,12.18,4.2a20,20,0,0,0,11-1.41,33.38,33.38,0,0,0,8.76-5.45c1.71-1.45,4-3.51,6-5.48S249.84,178.62,250.4,178.06Z" transform="matrix(-1, 0, 0, 1, 380, 0)" /><path class="cls-4" d="M257.3,159.6c-2.12.12-2.76-2.85-2.55-5a92.27,92.27,0,0,1,12-37.22c3.6,4.6,5.21,10.4,6.73,16,1.17,4.34,2.36,8.78,2.14,13.28s-2.09,9.15-5.86,11.62" transform="matrix(-1, 0, 0, 1, 380, 0)" /><path d="M269.7,158.33c0-.3.74-.92,1.58-2a15.05,15.05,0,0,0,2.36-4.42,16.6,16.6,0,0,0,.86-5.69,20,20,0,0,0-.63-4.74c-.55-2.1-1.27-4.24-2-6.47s-1.48-4.53-2.29-6.72c-.41-1.1-.83-2.18-1.3-3.21-.24-.52-.47-1-.73-1.53-.12-.25-.25-.5-.39-.74a.23.23,0,0,0-.06-.07.42.42,0,0,0-.19-.13s0,.07,0,.11l0,.13,0,.11v0l-.13.29-.31.66c-.43.88-.84,1.77-1.23,2.66-.8,1.78-1.54,3.57-2.24,5.34-1.38,3.56-2.57,7.1-3.58,10.52s-1.82,6.73-2.49,9.84c-.16.78-.32,1.54-.48,2.29a7.41,7.41,0,0,0-.2,1.9,4.19,4.19,0,0,0,.3,1.6,1.25,1.25,0,0,0,1,.77,1.7,1.7,0,0,1-1.85-.06,4.53,4.53,0,0,1-1.54-2,7,7,0,0,1-.45-1.31,10.53,10.53,0,0,1-.24-1.38c-.1-.85-.2-1.72-.25-2.57a23.8,23.8,0,0,1,.68-8.23,165.9,165.9,0,0,1,7.26-17.5c.65-1.31,1.29-2.61,2-3.87l.24-.47.13-.24.17-.31.68-1.25c.45-.84.9-1.65,1.37-2.38l.69-1.13.34-.57c0-.09.06,0,.09.05l.11.13.2.27c.54.72,1,1.41,1.53,2.13A28.32,28.32,0,0,1,271,122.4a58.49,58.49,0,0,1,2.71,7.06c.73,2.32,1.39,4.51,2,6.69,1.2,4.35,2,8.81,1.06,13a14,14,0,0,1-3.08,6.29A10.7,10.7,0,0,1,269.7,158.33Z" transform="matrix(-1, 0, 0, 1, 380, 0)" /><path class="cls-4" d="M266.72,195.38c7.08,1.89,13.87,4.82,21,6.47s14.95,2,21.53-1.3c-3.3-10.21-16.64-13.18-23-21.84" transform="matrix(-1, 0, 0, 1, 380, 0)" /><path d="M286.31,178.69c.28,0,.9.52,1.75,1.32l1.52,1.3c.6.45,1.19,1,1.88,1.45a75.24,75.24,0,0,0,7.91,4.93,37.78,37.78,0,0,1,5.17,3.16,21.87,21.87,0,0,1,4.77,4.66,6.07,6.07,0,0,1,.49.72l.62,1.05c.47.83.77,1.69,1.16,2.57l.55,1.31a5,5,0,0,1,.26.66l-.62.3c-.84.4-1.67.82-2.54,1.19l-1.3.57c-.23.1-.45.18-.66.25l-.43.15c-.53.19-1.06.34-1.6.49a28,28,0,0,1-3.19.69c-7.47,1.17-14.72-.6-20.59-2.78s-10.86-4.68-14.95-6.53a24.35,24.35,0,0,1,8.21-.38,22.9,22.9,0,0,1,6.63,1.43,41,41,0,0,0,14.48,4.57,26.4,26.4,0,0,0,6.85-.22,21.19,21.19,0,0,0,3.14-.78c.29-.1.4-.13.57-.2l.46-.19c.31-.12.59-.28.87-.41a6.89,6.89,0,0,0-.8-1.66l-.37-.6-.44-.57a12,12,0,0,0-.9-1.1A27.07,27.07,0,0,0,301,192.4c-3-2.14-6-3.93-8.6-6.05a23.37,23.37,0,0,1-4-4.1A20.44,20.44,0,0,1,286.31,178.69Z" transform="matrix(-1, 0, 0, 1, 380, 0)" /><path class="cls-3" d="M271.41,177.08c8.48-6.79,21-17.41,32.92-14.57,3.29.78,6.35,3.42,6.62,6.79.17,2.08-.7,4.25,0,6.21.31.9.94,1.67,1.16,2.59a5.91,5.91,0,0,1-.82,3.81c-3.18,6.43-7.74,13.19-15.27,13.07a130.2,130.2,0,0,1-15.65-1.19c6,4.17,11.45,11.59,8.23,18.93-1.91,4.37-4.34,9.22-8.91,10.57-1.46.44-3,.46-4.47,1-1.82.63-3.31,1.94-5,3s-3.69,1.73-5.48,1a6.48,6.48,0,0,1-3.06-3.33c-3-5.94-4.37-16.06-3.32-22.63,1-6.27,3.46-11.39,3.69-18.05" transform="matrix(-1, 0, 0, 1, 380, 0)" /><path d="M262.14,184.19a15.76,15.76,0,0,1-.21,5.63c-.46,3.1-1.72,7-2.49,11.26a38,38,0,0,0,.21,12.94,34.3,34.3,0,0,0,3.15,10,7.26,7.26,0,0,0,1.69,2.26,2.61,2.61,0,0,0,2.07.6,6.39,6.39,0,0,0,2.52-1c.84-.53,1.74-1.25,2.78-2a14.78,14.78,0,0,1,1.72-1,9.73,9.73,0,0,1,2-.76c1.34-.34,2.52-.45,3.4-.74a8.62,8.62,0,0,0,4.45-3.58,32.49,32.49,0,0,0,3.09-6,9.23,9.23,0,0,0,.44-5.66,14.33,14.33,0,0,0-2.75-5.43l-.24-.31-.23-.28c-.09-.12-.19-.22-.28-.33l-1.27-1.28a26.31,26.31,0,0,0-3.17-2.65c-2.5-1.88-5.54-4.07-8-5.86,1.35.13,3.31.4,5.1.63l5.4.68c2.24.29,4.47.51,6.56.66l1.75.11,1.61.09c1.08.05,2.16.08,3.23.11.52,0,1.13,0,1.56,0a8.82,8.82,0,0,0,1.27-.11c3.34-.43,6.21-3,8.42-6.29a44.19,44.19,0,0,0,3-5.2,5.21,5.21,0,0,0,.66-1.86.94.94,0,0,0-.11-.47c-.11-.28-.37-.72-.67-1.36a7.19,7.19,0,0,1-.63-2.26,9.81,9.81,0,0,1,0-2c.11-1.2.29-2.15.29-2.88a4.18,4.18,0,0,0-.38-1.85,5.7,5.7,0,0,0-1.27-1.67,7.2,7.2,0,0,0-1.87-1.25,6.74,6.74,0,0,0-1.06-.39c-.37-.11-.82-.17-1.22-.25a16.63,16.63,0,0,0-5.08-.18,31.07,31.07,0,0,0-9.75,3.12c-6.11,3-11.29,7-16,10.26,3.35-4.06,8.54-9.69,14.88-13.7a29.62,29.62,0,0,1,9.95-4.17,18.76,18.76,0,0,1,8.34.22,12.23,12.23,0,0,1,4.57,2.51,10,10,0,0,1,3,4.35,8.33,8.33,0,0,1,.44,2.69,15.51,15.51,0,0,1-.22,2.32,7.19,7.19,0,0,0-.12,3.08c.12.39.46.95.79,1.76a5.61,5.61,0,0,1,.38,1.4,5.75,5.75,0,0,1,0,1.44,12.83,12.83,0,0,1-1.73,4.15,38.1,38.1,0,0,1-4.51,6.62,18.82,18.82,0,0,1-2.92,2.79,14.19,14.19,0,0,1-3.52,2,12.54,12.54,0,0,1-3.94.9c-1.39.07-2.54,0-3.77-.06s-2.43-.13-3.63-.22l-1.77-.13-1.09-.1-2.15-.24-1.07-.14-.27,0h-.2l.05,0,.42.32a16.41,16.41,0,0,1,2.42,2.21c.19.21.34.38.55.64s.57.71.82,1.1a20.53,20.53,0,0,1,1.42,2.34,14.48,14.48,0,0,1,1.61,5.23,12.23,12.23,0,0,1-.65,5.41,24.85,24.85,0,0,1-1,2.37c-.35.76-.7,1.52-1.1,2.26a20.73,20.73,0,0,1-2.85,4.22,11,11,0,0,1-4.28,3,37.73,37.73,0,0,1-4.61,1.08,11.87,11.87,0,0,0-3.53,1.95,14.06,14.06,0,0,1-4.29,2.32,6.7,6.7,0,0,1-2.74.24,5.55,5.55,0,0,1-2.66-1.12,10.16,10.16,0,0,1-2.82-4,36.31,36.31,0,0,1-2.48-8.18,45.67,45.67,0,0,1-.83-8.07,29.35,29.35,0,0,1,.66-7.08,71.25,71.25,0,0,1,2.18-7.25,61.61,61.61,0,0,0,1.86-6.16A36.08,36.08,0,0,0,262.14,184.19Z" transform="matrix(-1, 0, 0, 1, 380, 0)" /><path class="cls-3" d="M263.34,178.8c.78-7.18,2.16-16.34-1.73-22.9-2.46-4.15-8.06-12.46-12.62-13.91-2.19-.7-5,0-6,2.06a6.66,6.66,0,0,1-1.06,2,4.17,4.17,0,0,1-2.55.74c-5.13.5-9.54,4.12-12.28,8.48s-4.11,9.42-5.43,14.4c-.49,1.87-.75,4.34.94,5.29,1.06.59,2.45.24,3.5.85,2.21,1.28,1.3,4.95,3.14,6.74,1.59,1.54,5.68,2.18,7.89,2.32,6.42.41,12.34-4.5,18.58-3.71,2.83.35,5.59,3.15,4.63,5.85" transform="matrix(-1, 0, 0, 1, 380, 0)" /><path d="M260.33,187c-.07-.17,0-.6-.11-1.2a4,4,0,0,0-1.07-2.1,5.67,5.67,0,0,0-2.82-1.67,10.8,10.8,0,0,0-4,.08c-2.88.55-5.83,2-8.77,2.92a22.6,22.6,0,0,1-4.35,1,17.86,17.86,0,0,1-2,.12c-.62,0-1.18,0-1.69-.07a22.06,22.06,0,0,1-3.69-.54,11.12,11.12,0,0,1-1.93-.63,6,6,0,0,1-2.05-1.35,6.08,6.08,0,0,1-1.3-2.21c-.26-.72-.41-1.38-.56-2a7,7,0,0,0-.46-1.39,1,1,0,0,0-.2-.28c-.06-.07-.15-.09-.21-.14a.86.86,0,0,0-.23,0l-.68-.06-.5,0-.29,0-.39-.07a5,5,0,0,1-1.51-.54,4.59,4.59,0,0,1-2-2.43,6.44,6.44,0,0,1-.35-1.52,8.89,8.89,0,0,1,0-1.25,12.62,12.62,0,0,1,.31-2.23l.44-1.85c.3-1.21.61-2.42,1-3.65a45.25,45.25,0,0,1,2.66-7.28,25.71,25.71,0,0,1,4.43-6.63,19.7,19.7,0,0,1,6.5-4.7,16,16,0,0,1,4-1.16c.34,0,.72-.11,1-.13L240,144h0l.23-.58A7.14,7.14,0,0,1,241,142a6.73,6.73,0,0,1,1.06-1.19,7.87,7.87,0,0,1,5.24-1.86,8.27,8.27,0,0,1,2.64.45c.4.16.81.32,1.18.5l1,.58a20.4,20.4,0,0,1,3.19,2.65,41.5,41.5,0,0,1,4.66,5.77,65.05,65.05,0,0,1,3.63,5.93,20.09,20.09,0,0,1,2.11,6.8,32,32,0,0,1,.14,6.38,83.27,83.27,0,0,1-1.72,10.85c-.78-3.72-1-9.21-2-13.88a24.18,24.18,0,0,0-2-6,9.86,9.86,0,0,0-.61-1.12l-.29-.51c-.12-.18-.23-.36-.34-.54-.44-.71-.82-1.34-1.11-1.87A37.35,37.35,0,0,0,250.6,145a8.66,8.66,0,0,0-2.11-1.4,4.24,4.24,0,0,0-2.18-.21,3.07,3.07,0,0,0-1.78.93,3,3,0,0,0-.54,1,9,9,0,0,1-.44.91,3.5,3.5,0,0,1-.67.85,3.72,3.72,0,0,1-2,.9c-.7.12-1.16.1-1.61.16a11.75,11.75,0,0,0-2.62.55,14.52,14.52,0,0,0-4.64,2.63,21.63,21.63,0,0,0-6.06,8.54,65.41,65.41,0,0,0-3,9.8,10.68,10.68,0,0,0-.39,2.23,4.85,4.85,0,0,0,.05,1,1.72,1.72,0,0,0,.24.63,1.39,1.39,0,0,0,1.13.6c.32,0,.73.06,1.21.12a5.27,5.27,0,0,1,.8.17,4.75,4.75,0,0,1,.81.33,4.35,4.35,0,0,1,1.74,1.92,9.08,9.08,0,0,1,.64,2,8.05,8.05,0,0,0,.9,2.73,4.35,4.35,0,0,0,2.09,1.19,19,19,0,0,0,3,.66,14.69,14.69,0,0,0,5.77-.09,57.24,57.24,0,0,0,5.67-1.64,26,26,0,0,1,4.87-1.16,13.51,13.51,0,0,1,2.85-.09,13.78,13.78,0,0,1,1.42.18,6.52,6.52,0,0,1,1.4.44,6.25,6.25,0,0,1,3.35,3.52A3.48,3.48,0,0,1,260.33,187Z" transform="matrix(-1, 0, 0, 1, 380, 0)" /><path class="cls-3" d="M260.58,183.4c-.87-2.41-3.88-3.17-6.44-3.24-7.56-.22-15,2.48-21.4,6.49-3.55,2.22-6.93,5-8.93,8.64s-2.37,8.47-.05,12c2.5,3.77,7.71,5.64,8.9,10,.3,1.1.36,2.37,1.21,3.13s2.5.6,3.75.22a42.73,42.73,0,0,0,29.28-34.42" transform="matrix(-1, 0, 0, 1, 380, 0)" /><path d="M266.94,186.19a9.83,9.83,0,0,1-.14,3.58,35,35,0,0,1-2,7.13,49.42,49.42,0,0,1-8.13,13.32,40.48,40.48,0,0,1-9.76,8.6c-1,.57-2,1.14-3,1.68s-2.05,1-3.12,1.42l-1.61.61a16.85,16.85,0,0,1-1.74.58,10.72,10.72,0,0,1-1.07.2,6.16,6.16,0,0,1-1.44,0,4.72,4.72,0,0,1-2.71-1.12,5.54,5.54,0,0,1-1.62-2.73c-.21-.75-.3-1.31-.42-1.64a5.72,5.72,0,0,0-1.24-2c-1.19-1.33-3-2.57-4.88-4.19a14.4,14.4,0,0,1-3.24-3.93,12.64,12.64,0,0,1-1.44-5,16,16,0,0,1,2.39-9.47,23.88,23.88,0,0,1,6.17-6.5,44.38,44.38,0,0,1,7-4.17,38.56,38.56,0,0,1,14.43-3.95,30.4,30.4,0,0,1,3.44,0,17.71,17.71,0,0,1,3.36.45,9,9,0,0,1,3.12,1.36,5.74,5.74,0,0,1,1.25,1.21,4.87,4.87,0,0,1,.74,1.52,4.76,4.76,0,0,0-2.47-1.72,8.68,8.68,0,0,0-3-.29,33.37,33.37,0,0,0-6.33,1.28c-4.14,1.16-7.7,2.9-9.7,3.57a36.23,36.23,0,0,0-11.15,6,16.33,16.33,0,0,0-3.78,4.43,11.76,11.76,0,0,0-1.48,5.32,8.72,8.72,0,0,0,1.34,5,19.45,19.45,0,0,0,3.88,3.86,18.46,18.46,0,0,1,4.14,4.26,8.62,8.62,0,0,1,1.14,2.86c.22,1,.31,1.4.72,1.78a1.41,1.41,0,0,0,.68.31,2.67,2.67,0,0,0,.79,0,11.23,11.23,0,0,0,2.17-.66,45.72,45.72,0,0,0,4.35-1.83,44.64,44.64,0,0,0,7.49-4.91,50.32,50.32,0,0,0,6-5.87,55.1,55.1,0,0,0,4.58-6.35,63.84,63.84,0,0,0,4.11-7.8c.34-.68.54-1.38.8-2s.5-1.23.64-1.78C266.55,187.45,266.81,186.61,266.94,186.19Z" transform="matrix(-1, 0, 0, 1, 380, 0)" /><path class="cls-3" d="M263.72,175.06c-4.21-6.82-5.64-12.18-4.44-20.25.54-3.62,1.54-7.3,3.86-10.13s6.24-4.58,9.73-3.48c1.36.43,2.59,1.25,4,1.47,2.81.43,5.48-1.66,8.32-1.54,3,.12,5.43,2.79,6.15,5.69s.1,6-.79,8.84a50.83,50.83,0,0,1-4.85,10.89c-4.15,7-12.26,9.89-17.16,16.38" transform="matrix(-1, 0, 0, 1, 380, 0)" /><path d="M268.51,182.9a6.89,6.89,0,0,1,1.68-2.71,37.3,37.3,0,0,1,4.77-4.48c1.89-1.56,3.94-3.16,5.59-4.77a18.86,18.86,0,0,0,3.57-4.52,53.1,53.1,0,0,0,3.19-7.47,36.53,36.53,0,0,0,2-7.94,9.81,9.81,0,0,0-.27-3.55,5.88,5.88,0,0,0-1.56-2.62,3.55,3.55,0,0,0-2.23-1.09,8.87,8.87,0,0,0-3.1.74,13.48,13.48,0,0,1-4.44,1A8.13,8.13,0,0,1,275,145c-.78-.26-1.41-.56-1.93-.78a6.94,6.94,0,0,0-1.26-.46,4.14,4.14,0,0,0-1.12-.13,6,6,0,0,0-2.4.52,8.25,8.25,0,0,0-2.24,1.42,9.76,9.76,0,0,0-1.75,2.09,18.82,18.82,0,0,0-2.21,5.51,41,41,0,0,0-1,6,26.26,26.26,0,0,0,.14,5.63,35.7,35.7,0,0,0,3.21,9.8,20.71,20.71,0,0,1-3.84-3.76,19.8,19.8,0,0,1-3.13-5.58,20.78,20.78,0,0,1-1.22-6.05,16.71,16.71,0,0,1,.32-4.43,36.73,36.73,0,0,1,1.94-6.08,18.27,18.27,0,0,1,3.49-5.4,12.9,12.9,0,0,1,5.36-3.34,9.58,9.58,0,0,1,6.17.08c.94.36,1.72.8,2.43,1.09a4.31,4.31,0,0,0,2,.41,25.65,25.65,0,0,0,4.66-1.2,8.7,8.7,0,0,1,2.78-.32,6.81,6.81,0,0,1,2.75.81,8.85,8.85,0,0,1,3.64,3.89,11.16,11.16,0,0,1,1.07,5,19.73,19.73,0,0,1-.6,4.68,49.72,49.72,0,0,1-2.81,8.2,33.42,33.42,0,0,1-4.1,7.13,29.2,29.2,0,0,1-5.64,5.18c-1.83,1.4-4.47,2.92-6.68,4.41A36.54,36.54,0,0,0,268.51,182.9Z" transform="matrix(-1, 0, 0, 1, 380, 0)" /><path class="cls-5" d="M270.62,176.27c-2.41-2.09-5.1-4.3-8.31-4.3a8,8,0,0,0-7.14,5.2,5.74,5.74,0,0,0-.41,2.83,6.83,6.83,0,0,0,.91,2.38,16.33,16.33,0,0,0,8.29,7.06,7.83,7.83,0,0,0,4,.58c3-.5,5.1-3.72,5.15-6.78s-1.49-5.89-3.4-8.23" transform="matrix(-1, 0, 0, 1, 380, 0)" /><path d="M269.72,175c.37,0,2,1.6,3.17,4.08a10.77,10.77,0,0,1,1,4,9.82,9.82,0,0,1-.56,3.52,7.52,7.52,0,0,1-3.15,4.08,6.52,6.52,0,0,1-2.78.9,9,9,0,0,1-2.81-.23,17.51,17.51,0,0,1-8.64-5.3,16.43,16.43,0,0,1-2.49-3.63,7.25,7.25,0,0,1-.71-2.53,7.34,7.34,0,0,1,.28-2.57,9.88,9.88,0,0,1,5.91-6.43,8.2,8.2,0,0,1,4.19-.46,9.39,9.39,0,0,1,3.5,1.33,18.83,18.83,0,0,1,4.37,4.05c-1.69-.37-3.87-1.33-5.73-1.7a11.85,11.85,0,0,0-3.95-.1,6,6,0,0,0-4.26,2.23,6.39,6.39,0,0,0-1.18,2.19,3.64,3.64,0,0,0,0,2.26A9.93,9.93,0,0,0,257,183a14.63,14.63,0,0,0,1.57,2,14.43,14.43,0,0,0,3.84,2.88,11,11,0,0,0,4.17,1.3,4.36,4.36,0,0,0,3.32-1.21,6.73,6.73,0,0,0,1.81-3,8,8,0,0,0,.24-3.33,18.23,18.23,0,0,0-1-3.83A28.21,28.21,0,0,0,269.72,175Z" transform="matrix(-1, 0, 0, 1, 380, 0)" /><path d="M289.19,189.24c-.34.25-2.9-.19-5.83-.84s-6.22-1.46-8.09-1.77l-.89-.15-.45-.07-.52-.1-3-.62L267,185l-1.79-.37-.91-.19a5.61,5.61,0,0,1-.81-.2l5.64-2.46c1-.43,1.93-.89,2.8-1.37l.64-.36.08,0h0l0,0,.09-.08a1.52,1.52,0,0,0,.14-.18s0-.07-.13,0h-.05l-.17,0h0l-1.33-.18a12.66,12.66,0,0,0-2.82,0l-.41,0c-.27,0-.53.08-.8.13l-1.59.34-3.08.68c.39-1.76.83-3.53,1.16-5.17.18-.94.37-1.86.55-2.77.32-1.65.64-3.25.95-4.78a65.49,65.49,0,0,1,2.1-8.28,43.54,43.54,0,0,1,.93,7,22.43,22.43,0,0,1-.27,6l-.39,1.46-.19.73-.1.36,0,.18,0,.09,0,0a4.49,4.49,0,0,0-.43.86,3.79,3.79,0,0,0,.52,0h.34l.4,0,.47,0a16.5,16.5,0,0,1,3.69.27l.87.16c.41.06.79.14,1.19.19a18.2,18.2,0,0,0,2.53.17c1.83,0,3.81-.06,5.46-.15v.23s0,0-.06.05l-1.08.61L279,179.2c-1.41.81-2.72,1.62-4,2.41l-1.46.86-.77.43q-.74.39-1.35.66s-.09,0-.06,0l.13,0,.25.05.5.09.9.18c.64.14.78.15,2.12.49q3.21.83,6.06,1.72C283.91,187,288.31,188.86,289.19,189.24Z" transform="matrix(-1, 0, 0, 1, 380, 0)" /><path class="cls-5" d="M271.47,163.56c-2.61-.13-6.27-1.38-6.17-4.56a4.46,4.46,0,0,1,3.05-3.92c3.62-1.18,9.82,2.44,7.06,6.69A4.43,4.43,0,0,1,271.47,163.56Z" transform="matrix(-1, 0, 0, 1, 380, 0)" /><path d="M271.48,163.53c.13-.31,1.29-.39,2.28-1.08a2.67,2.67,0,0,0,1.08-1.28,2.09,2.09,0,0,0,.23-1.3,2.48,2.48,0,0,0-.75-1.4,5,5,0,0,0-1.45-1.05,5.72,5.72,0,0,0-3.5-.6,3,3,0,0,0-1.81,1.32,2.2,2.2,0,0,0-.27,1.85,3.86,3.86,0,0,0,1.69,1.77A13.62,13.62,0,0,0,271.5,163a5,5,0,0,1-3.57,1.27,4,4,0,0,1-3.22-1.52,5.75,5.75,0,0,1-.81-2.34,5.69,5.69,0,0,1,.23-2.21,5.91,5.91,0,0,1,2.23-3,5.69,5.69,0,0,1,3.16-1.07,8.91,8.91,0,0,1,3,.41A6.91,6.91,0,0,1,276.8,158a4.46,4.46,0,0,1,.38,1.41,4.11,4.11,0,0,1-.14,1.41c-.06.22-.12.44-.2.65l-.31.56a3.54,3.54,0,0,1-.8,1,3.69,3.69,0,0,1-2.51.91A4.14,4.14,0,0,1,271.48,163.53Z" transform="matrix(-1, 0, 0, 1, 380, 0)" /><path class="cls-5" d="M285.64,178.42c-3.56,3.08-11-3.47-5.83-6.83C283.23,169.35,288.58,175.87,285.64,178.42Z" transform="matrix(-1, 0, 0, 1, 380, 0)" /><path d="M285.62,178.39a1.1,1.1,0,0,1,.16-.74c0-.18.08-.35.11-.55a2.47,2.47,0,0,0,0-.66,3.82,3.82,0,0,0-1.3-2.31,5.75,5.75,0,0,0-2.78-1.29c-.21-.05-.36,0-.51,0s-.25.07-.34.19a2.19,2.19,0,0,0-.42.34,2.13,2.13,0,0,0-.32.42,1.17,1.17,0,0,0-.14.57,1.88,1.88,0,0,0,.16.71,5.11,5.11,0,0,0,1.3,1.73,4,4,0,0,0,3.76,1.16,2.2,2.2,0,0,1-.47,1.56,3.67,3.67,0,0,1-4.63.79,9.89,9.89,0,0,1-2.17-2.67,6.18,6.18,0,0,1-.84-3.06,4.15,4.15,0,0,1,1.14-2.74,6.24,6.24,0,0,1,1-.87c.17-.12.41-.22.61-.33l.31-.16.34-.08a4.26,4.26,0,0,1,2.59.16,6.68,6.68,0,0,1,2,1.14,5.87,5.87,0,0,1,2.17,3.46,3.22,3.22,0,0,1-.42,2.27A2.53,2.53,0,0,1,285.62,178.39Z" transform="matrix(-1, 0, 0, 1, 380, 0)" /><path class="cls-5" d="M293.27,190c-.78,4.3-8.89.31-6-3.85C289.82,182.46,293.86,186.8,293.27,190Z" transform="matrix(-1, 0, 0, 1, 380, 0)" /><path d="M293.24,190c-.15-.07-.24-.31-.31-.61-.05-.15-.1-.32-.15-.5l-.21-.57a3.77,3.77,0,0,0-1.44-1.76,3.33,3.33,0,0,0-1.14-.33,1,1,0,0,0-.64.19c-.22.2-.8,1-.74,1.38a1.68,1.68,0,0,0,.38,1,4.81,4.81,0,0,0,1.27,1.13,3.85,3.85,0,0,0,1.29.53,1.19,1.19,0,0,0,1.16-.57,1.79,1.79,0,0,1,.67,1.35,2.3,2.3,0,0,1-.8,1.73,3.43,3.43,0,0,1-1.68.79,2.09,2.09,0,0,1-1.21-.13,8.13,8.13,0,0,1-2.36-1.93,6.48,6.48,0,0,1-1.31-2.34,4.19,4.19,0,0,1,.05-2.53,5.66,5.66,0,0,1,1.18-1.91,3.73,3.73,0,0,1,2-1.11,3.94,3.94,0,0,1,2.19.42,4.85,4.85,0,0,1,2.31,2.71,3.33,3.33,0,0,1,0,1.86A3.12,3.12,0,0,1,293.24,190Z" transform="matrix(-1, 0, 0, 1, 380, 0)" /><path class="cls-6" d="M262.15,214.37c4.75-1.09,10-2.58,16.14-4.52C273.4,211.4,268,212.92,262.15,214.37Z" transform="matrix(-1, 0, 0, 1, 380, 0)" /><path class="cls-3" d="M278.29,209.85a299.75,299.75,0,0,1,46.3-10.65C312.27,199.71,297.55,203.76,278.29,209.85Z" transform="matrix(-1, 0, 0, 1, 380, 0)" /><path d="M278.27,209.79c.33-1.5,13.64-5.59,18.67-7.67a89.31,89.31,0,0,1,27.48-6.87l.73,7.87-2.41.44c-16.59,3.1-32.8,6.23-44.09,7.43a30.51,30.51,0,0,1,8.07-6.74c3.12-1.88,6.23-3.15,8-3.27,11.08-.81,20.81-2.1,29.65-3.36l.29,3.18A84.6,84.6,0,0,0,306,204.14c-5.65,1.53-10.8,3.15-15.67,4.23A74.28,74.28,0,0,1,278.27,209.79Z" transform="matrix(-1, 0, 0, 1, 380, 0)" /><path class="cls-1" d="M324.59,199.2a299.75,299.75,0,0,0-46.3,10.65c-6.1,1.94-11.39,3.43-16.14,4.52-41.61,10.39-103.92,17.82-144.06,15.15C83.7,227.24,51.55,209.13,50,192a29.76,29.76,0,0,0,1.12,8.91c3.1,11.74,17.27,24.84,35.1,30.17,33.2,9.95,70.72,10.37,115.66,6s83.18-.33,106.9,8.39,17.69,28.07,17.69,28.07a112.73,112.73,0,0,0,25.31-17.95c11.64-11.23,26.5-25.81,6.66-44C348.2,202.15,337.77,198.65,324.59,199.2Z" transform="matrix(-1, 0, 0, 1, 380, 0)" /><path d="M324.59,199.17a36.21,36.21,0,0,1,4.58-.19,45.51,45.51,0,0,1,9.52,1.13,42.69,42.69,0,0,1,6.08,1.93,46,46,0,0,1,6.47,3.35,51.17,51.17,0,0,1,6.44,4.8,43.24,43.24,0,0,1,6.05,6.24,24.73,24.73,0,0,1,4.33,8.21,18.31,18.31,0,0,1,.09,9.72,28.22,28.22,0,0,1-4.33,9,63.73,63.73,0,0,1-6.44,7.68c-2.33,2.41-4.69,4.72-7.14,7s-5,4.34-7.67,6.31-5.3,3.8-8,5.5c-1.36.86-2.65,1.63-4.09,2.47-1,.52-1.89,1.06-2.82,1.53l-1.39.73-.7.35c-.16.1-.14,0-.19,0l-.16-.06c.16-.62.31-1.25.47-1.86s.23-1.19.35-1.78a10.34,10.34,0,0,0,.2-1.69,10.86,10.86,0,0,0,0-1.13,17.82,17.82,0,0,0-.1-2.2l-.1-1.08c-.06-.36-.14-.71-.21-1.06a20.35,20.35,0,0,0-3.14-7.53,27.22,27.22,0,0,0-11-8.69l-3.07-1.28c-1.05-.39-2.14-.72-3.21-1.08l-1.62-.54-1.64-.47-3.29-.95c-4.44-1.12-9-2.17-13.54-2.95a239.92,239.92,0,0,0-28.12-3.22A361.64,361.64,0,0,0,199.17,239c-19.6,1.9-39.42,3-59.06,2.31s-39.05-3.43-57.3-9.27A66,66,0,0,1,70.08,226a58.9,58.9,0,0,1-11-8.71,41.9,41.9,0,0,1-8.29-11.47L50,204.17c-.24-.55-.39-1.15-.59-1.73a27.64,27.64,0,0,1-.89-3.44,29.51,29.51,0,0,1-.62-7.11l4.16-.1a16.18,16.18,0,0,0,1.17,4.45,23.6,23.6,0,0,0,2.36,4.16,40.57,40.57,0,0,0,6.83,7.17A76.07,76.07,0,0,0,79.72,218a115.13,115.13,0,0,0,38.77,9.54,357.14,357.14,0,0,0,39.4,0c12.92-.64,25.57-1.76,37.89-3.16a576.62,576.62,0,0,0,69.31-12c5.33-1.3,10.46-2.86,15.57-4.4s10.16-2.85,15.12-4a287.37,287.37,0,0,1,28.72-5.34c-9.46,1.81-21,4.45-33.24,8.09-3.06.9-6.16,1.87-9.27,2.9s-6.26,2.14-9.46,3.14-6.46,2-9.73,2.81-6.51,1.71-9.76,2.48A492.88,492.88,0,0,1,188.79,229c-13.55,1.3-26.93,2.18-40.13,2.49-3.3.07-6.59.15-9.87.11h-4.9l-4.89-.14c-3.25,0-6.49-.28-9.71-.46s-6.47-.52-9.65-1a115.39,115.39,0,0,1-36.09-11.44A70,70,0,0,1,58.26,208a37,37,0,0,1-6-7.1,20.36,20.36,0,0,1-3.18-8.8l1.84,0a26.1,26.1,0,0,0,.41,5.64c.16.94.37,1.87.6,2.79s.53,1.8.87,2.67a34.83,34.83,0,0,0,5.93,9.56,57.14,57.14,0,0,0,17.71,13.6,65.7,65.7,0,0,0,10.28,4.09l5.34,1.49c1.78.48,3.57.88,5.35,1.32A215.3,215.3,0,0,0,118.85,237c7.13.84,14.23,1.37,21.25,1.67s14,.29,20.87.15c13.76-.32,27.2-1.32,40.32-2.61,26.31-2.59,51.76-2.69,75.77.61,12,1.77,23.64,4.14,34.5,8.58.67.3,1.36.57,2,.89l1.94,1.1,1,.54a6.23,6.23,0,0,1,.94.6l1.78,1.32c.3.23.61.43.88.68l.81.77c.53.51,1.08,1,1.59,1.55a25.63,25.63,0,0,1,2.63,3.59,21.59,21.59,0,0,1,3,8.26c.09.72.15,1.45.22,2.17s0,1.46,0,2.18l-.05.81c0,.15,0,.31-.05.46,0,.31-.1.61-.17.92l0,.2.18-.09.38-.2.75-.4,1.17-.67,1.59-.94c2.11-1.27,4.16-2.59,6.17-4a105.06,105.06,0,0,0,11.27-8.87c2.71-2.52,5.68-5.35,8.56-8.45a42,42,0,0,0,7.54-10.69,20.16,20.16,0,0,0,1.71-6.42,17,17,0,0,0-.8-6.62,28.87,28.87,0,0,0-7.4-11.13,52.16,52.16,0,0,0-10-7.88,40.67,40.67,0,0,0-10.22-4.34,44.61,44.61,0,0,0-8.64-1.42c-1.22-.12-2.31-.11-3.25-.15Z" transform="matrix(-1, 0, 0, 1, 380, 0)" /><g class="cls-2" transform="matrix(-1, 0, 0, 1, 380, 0)"><path d="M324.59,199.2a299.75,299.75,0,0,0-46.3,10.65c-6.1,1.94-11.39,3.43-16.14,4.52-41.61,10.39-103.92,17.82-144.06,15.15C83.7,227.24,51.55,209.13,50,192a29.76,29.76,0,0,0,1.12,8.91c3.1,11.74,17.27,24.84,35.1,30.17,33.2,9.95,70.72,10.37,115.66,6s83.18-.33,106.9,8.39,17.69,28.07,17.69,28.07a112.73,112.73,0,0,0,25.31-17.95c11.64-11.23,26.5-25.81,6.66-44C348.2,202.15,337.77,198.65,324.59,199.2Z" /></g></svg>