<svg xmlns="http://www.w3.org/2000/svg" id="outfits_springbreak" viewBox="0 0 380 600"><defs transform="matrix(-1, 0, 0, 1, 380, 0)"><style>.cls-1{fill:#7eed56;}.cls-2{fill:#51e9f4;}.cls-3{fill:#ffd635;}.cls-4{fill:#f9a;}</style></defs><path class="cls-1" d="M292.74,208.23c-14.48,26.38,27.32,21.17,2.18-4.56" transform="matrix(-1, 0, 0, 1, 380, 0)" /><path d="M295,203.64c.18,0,.62.28,1.23.81a19.64,19.64,0,0,1,2.13,2.1,43.23,43.23,0,0,1,3.87,5,16.68,16.68,0,0,1,1.89,3.67,15,15,0,0,1,.55,2.17,10.29,10.29,0,0,1,.08,2.36,8.27,8.27,0,0,1-1.79,4.65,8.81,8.81,0,0,1-8.4,3,7.94,7.94,0,0,1-6.14-5.38,11,11,0,0,1-.45-1.89c-.06-.62-.06-1.23-.07-1.82A18.81,18.81,0,0,1,292.24,208a15.51,15.51,0,0,1-.05,2.62c-.06.92-.1,1.88-.21,2.75a30.76,30.76,0,0,1-.36,4,6.71,6.71,0,0,0,.06,4.39,4.84,4.84,0,0,0,2.95,2.77,5.73,5.73,0,0,0,4.06-.11,5.6,5.6,0,0,0,2.83-2.54,6.28,6.28,0,0,0,.68-3.55,11.32,11.32,0,0,0-.82-3.43,36.22,36.22,0,0,0-3.17-5.83c-.58-.81-1.26-2-1.9-3.09S295.12,204,295,203.64Z" transform="matrix(-1, 0, 0, 1, 380, 0)" /><path class="cls-1" d="M281.16,203.71c-20.57,5.93-29.13-15.13-3-6" transform="matrix(-1, 0, 0, 1, 380, 0)" /><path d="M278.18,197.71c-.26.26-1.75-.13-3.49-.48a24.92,24.92,0,0,0-4.79-.67l-1.46.07-1.45.12a9.39,9.39,0,0,0-2.55.67l-.41.27c-.07.11-.22.17-.24.26s-.06.24-.09.35a3.07,3.07,0,0,0,.92,1.42,11.08,11.08,0,0,0,3.77,2.19,21.73,21.73,0,0,0,4.42,1.07,46,46,0,0,0,8.19.19,9,9,0,0,1-1.54,1.55,12,12,0,0,1-2.08,1.24,7.22,7.22,0,0,1-3.77.76,25.47,25.47,0,0,1-8.33-3A11,11,0,0,1,262.2,201a5,5,0,0,1-.56-.87,4.56,4.56,0,0,1-.4-1,3.2,3.2,0,0,1,.18-2.23,3.47,3.47,0,0,1,.64-.91,4.72,4.72,0,0,1,.82-.63,7,7,0,0,1,1.74-.72,12.82,12.82,0,0,1,3.3-.36,19.54,19.54,0,0,1,5.69.92,13.41,13.41,0,0,1,2.73,1.26C277.22,197,278,197.53,278.18,197.71Z" transform="matrix(-1, 0, 0, 1, 380, 0)" /><path class="cls-2" d="M286.83,196.5c-28.77-18.52.89-30.81,6.28-4.68,8.94-16.25,36.15,19.61-1.1,9.09" transform="matrix(-1, 0, 0, 1, 380, 0)" /><path d="M292,200.88c.46-.23,4.07.75,8.29,1.16a19.52,19.52,0,0,0,6.27-.23,6,6,0,0,0,2.34-1.08,2.75,2.75,0,0,0,1-1.52c.38-1.5-.42-3.36-1.56-4.9a14.26,14.26,0,0,0-4.42-3.86,7.91,7.91,0,0,0-5.24-1.1,4.92,4.92,0,0,0-2.16,1.06c-1.21.94-2.84,4.12-4.14,6.24-.16-.53-.35-1.31-.53-2s-.36-1.42-.53-2.11-.36-1.42-.54-2.12c-.09-.37-.2-.69-.31-1l-.26-.77a21.51,21.51,0,0,0-2.73-5.21,12.68,12.68,0,0,0-4.06-3.63,7.09,7.09,0,0,0-4.66-.91,3.61,3.61,0,0,0-1.73.84,3,3,0,0,0-.8,1.59,7.37,7.37,0,0,0,1.09,4.4,20.7,20.7,0,0,0,3,4,57.81,57.81,0,0,0,6.85,6.26,26.92,26.92,0,0,1-9-4.56,22.5,22.5,0,0,1-2.06-1.82,18,18,0,0,1-1.67-2l-.65-1a10.62,10.62,0,0,1-.49-1,7.3,7.3,0,0,1-.55-1.83,7.41,7.41,0,0,1,1.08-5.49,6.66,6.66,0,0,1,4.62-2.61,9.73,9.73,0,0,1,4.66.62,12.53,12.53,0,0,1,3.74,2.24,18.86,18.86,0,0,1,4.82,6.44c.28.59.5,1.19.75,1.77.13.3.23.6.33.9l.21.68a8.11,8.11,0,0,1,.3,1.07l.14.54.06.27s.09-.13.13-.19a5.81,5.81,0,0,1,.93-1.21,1.76,1.76,0,0,1,.28-.26,3.62,3.62,0,0,1,.52-.41,6.41,6.41,0,0,1,1.16-.68,8.05,8.05,0,0,1,5.14-.52,14.73,14.73,0,0,1,7.91,5,12.36,12.36,0,0,1,2.28,3.95,6.11,6.11,0,0,1-.2,4.77,6,6,0,0,1-3.66,2.77,13,13,0,0,1-4,.49,25.82,25.82,0,0,1-7.11-1.24A47.26,47.26,0,0,1,292,200.88Z" transform="matrix(-1, 0, 0, 1, 380, 0)" /><path class="cls-2" d="M289.19,200.41c-30.4-3.72-3.19,30.38,8.32,16.53,2.63-4.27-10.59-13.91-3.81-15.25" transform="matrix(-1, 0, 0, 1, 380, 0)" /><path d="M293.71,201.72c-.08.23-.83.35-1.3,1a1.5,1.5,0,0,0-.06,1.33,8.63,8.63,0,0,0,.87,1.71c.75,1.19,1.71,2.41,2.56,3.57s1.62,2.24,2.15,3.08a7.45,7.45,0,0,1,1.1,2.65,4,4,0,0,1-.08,1.83c-.06.17-.14.33-.21.49a1.17,1.17,0,0,1-.25.45l-.52.6a9.9,9.9,0,0,1-5.12,3.22,11.89,11.89,0,0,1-6.08-.21,19.11,19.11,0,0,1-5.18-2.43,20.52,20.52,0,0,1-6.54-6.95,12.77,12.77,0,0,1-1.57-4.68,7.33,7.33,0,0,1,1.2-5.14,7.69,7.69,0,0,1,4-2.73,10.46,10.46,0,0,1,2.05-.44,11.74,11.74,0,0,1,1.94-.14,25.23,25.23,0,0,1,6.6.88c-1.83.66-4.38,1.09-6.53,1.82a18.6,18.6,0,0,0-2.76,1.1,7.42,7.42,0,0,0-.92.51,6.19,6.19,0,0,0-.63.39,2.83,2.83,0,0,0-1.48,1.73,5.21,5.21,0,0,0-.08,2.73,12.77,12.77,0,0,0,2.71,5.35A15.87,15.87,0,0,0,289,219.3a8.15,8.15,0,0,0,4.76-.61c.33-.2.68-.36,1-.56l.89-.71c.28-.25.51-.55.77-.81a1,1,0,0,0,.35-.59,3.16,3.16,0,0,0-.28-1.7,13.27,13.27,0,0,0-1-1.88c-.74-1.24-1.56-2.44-2.31-3.65a17.3,17.3,0,0,1-1.14-2.06,8.26,8.26,0,0,1-.8-2.63,2.7,2.7,0,0,1,.24-1.36,1.85,1.85,0,0,1,.86-.75A3.57,3.57,0,0,1,293.71,201.72Z" transform="matrix(-1, 0, 0, 1, 380, 0)" /><path class="cls-2" d="M291.92,201.66c7.81,36.37,43.81,7.06.13-3.13" transform="matrix(-1, 0, 0, 1, 380, 0)" /><path d="M292.06,198.5a4,4,0,0,1,1.8.09,30,30,0,0,1,3.61.81l2.07.58,2,.7c1.32.42,2.45,1,3.3,1.27a23.67,23.67,0,0,1,4.45,2.32l.55.36.52.43,1,.86c.33.31.64.67,1,1l.47.52.41.6a8.86,8.86,0,0,1,1.8,5.77,7.76,7.76,0,0,1-2.93,5.53,9,9,0,0,1-4.86,2,11.09,11.09,0,0,1-4.92-.72,15,15,0,0,1-6.78-5.69,27.08,27.08,0,0,1-4.2-13.11,20.83,20.83,0,0,1,1.81,2.56c.61.94,1.29,1.91,1.84,2.86s1.18,1.82,1.69,2.55a14,14,0,0,1,1.09,1.85,13.37,13.37,0,0,0,3.55,4.79,8.41,8.41,0,0,0,5.06,2.05,7.05,7.05,0,0,0,2.6-.4,5.77,5.77,0,0,0,2.08-1.39,5,5,0,0,0,1.21-2.06,9.19,9.19,0,0,0,.19-1.15,8.92,8.92,0,0,0-.09-1.16,8,8,0,0,0-2.2-4,18,18,0,0,0-3.48-2.85,55.47,55.47,0,0,0-7.5-3.72c-1.17-.43-2.72-1.19-4.13-1.81S292.46,198.7,292.06,198.5Z" transform="matrix(-1, 0, 0, 1, 380, 0)" /><path class="cls-2" d="M287.33,200.29c-23.06,13.26-29.68-32.56,2.84-2.5" transform="matrix(-1, 0, 0, 1, 380, 0)" /><path d="M290.15,197.81c-.38.09-2-1.22-3.92-2.66a37.76,37.76,0,0,0-5.51-3.59,22.67,22.67,0,0,0-7.43-2.5c-2.55-.16-3.56,1-3.47,3.15a9.6,9.6,0,0,0,2.25,5.31,10,10,0,0,0,4.64,3.19,12,12,0,0,0,5.42.37,24.4,24.4,0,0,0,4.92-1.29,10.37,10.37,0,0,1-4.44,4,10.49,10.49,0,0,1-3,.92,6.3,6.3,0,0,1-2.37-.09,13.58,13.58,0,0,1-5.73-3.13,14.15,14.15,0,0,1-3.39-4.76,10.68,10.68,0,0,1-.94-5.37,5.63,5.63,0,0,1,.9-2.61,4.61,4.61,0,0,1,2.14-1.75,8.17,8.17,0,0,1,4.9-.16,19.2,19.2,0,0,1,4.11,1.51,29.57,29.57,0,0,1,6.4,4.26A30.14,30.14,0,0,1,290.15,197.81Z" transform="matrix(-1, 0, 0, 1, 380, 0)" /><path class="cls-3" d="M286.58,201.05c23.07,11.55-9.33-20.1.54.7" transform="matrix(-1, 0, 0, 1, 380, 0)" /><path d="M287.09,201.77c-.33,0-1-1-1.6-2.22-.15-.31-.3-.64-.44-1s-.27-.66-.4-1.07a7,7,0,0,1-.36-2.31,2.08,2.08,0,0,1,.58-1.46,2.28,2.28,0,0,1,1.49-.62,4.27,4.27,0,0,1,1.86.33,9,9,0,0,1,.93.41c.24.11.47.23.66.34a20.2,20.2,0,0,1,4.16,3.19q.4.39.78.81a11,11,0,0,1,.85,1.07,6.37,6.37,0,0,1,1.42,3.27,2.76,2.76,0,0,1-.25,1.4,2.52,2.52,0,0,1-1,1.09,4,4,0,0,1-2.91.3,10.77,10.77,0,0,1-1.59-.47c-.34-.15-.75-.32-1-.46a16.93,16.93,0,0,1-1.54-.91,19.06,19.06,0,0,1-2.44-1.93,11.47,11.47,0,0,1,3.59-.52,11.67,11.67,0,0,1,1.55.09c.24.05.36.05.48.09a.49.49,0,0,1,.17.06s0,0,0,0a.63.63,0,0,0,.3.47.94.94,0,0,0,.74.22c.42-.2.25-.69,0-1.14a6.82,6.82,0,0,0-.64-1c-.28-.35-.57-.69-.87-1a15.09,15.09,0,0,0-1.92-1.7,10.39,10.39,0,0,0-1-.68,7.8,7.8,0,0,0-.93-.52,1.74,1.74,0,0,0-1.08-.19c-.38.11-.36.57-.34.84l.06.47.06.34.1.45A30.25,30.25,0,0,1,287.09,201.77Z" transform="matrix(-1, 0, 0, 1, 380, 0)" /><path class="cls-1" d="M260,215.1c-33.33,12.71,13.54,34.29,5.54-2.52" transform="matrix(-1, 0, 0, 1, 380, 0)" /><path d="M265.53,212.57c.17.08.39.64.64,1.49.12.42.25.92.39,1.47s.19,1.15.29,1.77a27.53,27.53,0,0,1,.34,3.84c0,.62,0,1.21,0,1.76a12.45,12.45,0,0,1-.07,1.45,12.79,12.79,0,0,1-1.1,4.5,10,10,0,0,1-3.17,4,9.88,9.88,0,0,1-4.92,1.92,12,12,0,0,1-5.11-.49,11.36,11.36,0,0,1-3.9-2.16,8.76,8.76,0,0,1-2.64-3.87,7.7,7.7,0,0,1,.11-4.73,7.1,7.1,0,0,1,.46-1,6.43,6.43,0,0,1,.53-.93,12.53,12.53,0,0,1,1.28-1.56,17.8,17.8,0,0,1,5.77-3.78,29,29,0,0,1,2.79-1q1.36-.37,2.58-.66a19.48,19.48,0,0,1-2,2.05c-.76.67-1.49,1.44-2.25,2.07s-1.39,1.32-2,1.83a8.28,8.28,0,0,1-1.41,1.19,6.77,6.77,0,0,0-3,3.69,4.71,4.71,0,0,0,1.26,4.19,8.15,8.15,0,0,0,4,2.37,8.75,8.75,0,0,0,4.43,0,7,7,0,0,0,3.48-2.05,3.49,3.49,0,0,0,.63-.75,8.57,8.57,0,0,0,.55-.79l.43-.85c.07-.15.15-.28.21-.43l.15-.45a10.43,10.43,0,0,0,.52-1.79,14.12,14.12,0,0,0,.31-1.8c.06-.61.12-1.2.18-1.79s0-1.17.06-1.75,0-1.2,0-1.89.09-1.41.07-2.09C265.48,214.18,265.51,213,265.53,212.57Z" transform="matrix(-1, 0, 0, 1, 380, 0)" /><path class="cls-1" d="M260.47,201.9c-22.56-16.74-6.07-32.07,4-4.66" transform="matrix(-1, 0, 0, 1, 380, 0)" /><path d="M264.46,197.25c-.18,0-.47-.44-.82-1.07s-.75-1.49-1.23-2.38-1-1.82-1.51-2.66a16.62,16.62,0,0,0-1.45-2,21.92,21.92,0,0,0-4.9-4.42,4.2,4.2,0,0,0-2.4-.66,1,1,0,0,0-.57.3,2.1,2.1,0,0,0-.19.27c0,.15-.13.23-.14.42a4.85,4.85,0,0,0,0,2.11,11.85,11.85,0,0,0,.3,1.21c.15.4.3.81.46,1.21a24.13,24.13,0,0,0,2.67,4.58,86.36,86.36,0,0,0,6.11,7.3,10.66,10.66,0,0,1-2.39-.42,16.15,16.15,0,0,1-2.5-1,16.37,16.37,0,0,1-2.11-1.34,6.45,6.45,0,0,1-1.26-1.32,38.65,38.65,0,0,1-2.49-4.56,18.94,18.94,0,0,1-1.54-4.63,7.31,7.31,0,0,1,.49-4.75,3.6,3.6,0,0,1,1.87-1.69,1.81,1.81,0,0,1,.6-.18c.2,0,.41-.09.61-.1a4.88,4.88,0,0,1,1.16.09,9.16,9.16,0,0,1,3.75,1.79,17.78,17.78,0,0,1,2.67,2.59,21.41,21.41,0,0,1,3.44,5.59,15.74,15.74,0,0,1,1,3.29C264.3,195.93,264.43,196.92,264.46,197.25Z" transform="matrix(-1, 0, 0, 1, 380, 0)" /><path class="cls-4" d="M272.78,205.21c-3.58-33.89,33.28-7.24,10.12,4.65,25.66,5.13,6.57,39.12-10.6,1.66" transform="matrix(-1, 0, 0, 1, 380, 0)" /><path d="M272.33,211.5c.5.24,2.24,3.91,4.87,7.71.32.49.66,1,1,1.42l1.09,1.4a28.18,28.18,0,0,0,2.4,2.47,12.6,12.6,0,0,0,4.62,2.87,6.64,6.64,0,0,0,3.29.25,5,5,0,0,0,2.68-1.55,6.77,6.77,0,0,0,1.21-6.29,8.11,8.11,0,0,0-1.57-3.06,10.51,10.51,0,0,0-1.2-1.3c-.45-.38-.93-.75-1.42-1.09a15.34,15.34,0,0,0-1.58-.9l-.83-.38-.42-.19-.9-.26-1.83-.53c-.62-.18-1.21-.36-1.91-.52l-4.05-1,1.31-.77c1-.62,2.15-1.23,3.14-1.86l2.92-1.91a.89.89,0,0,0,.21-.17l.13-.13.27-.26.55-.53c.33-.36.6-.76.91-1.14a7.22,7.22,0,0,0,1.26-5.17,10.52,10.52,0,0,0-6.94-8,5.06,5.06,0,0,0-4.49.55,8.26,8.26,0,0,0-2.63,4.1,33,33,0,0,0-1.11,9.87,24.21,24.21,0,0,1-1.35-4.86,23.08,23.08,0,0,1-.28-2.94c0-.51,0-1,.05-1.55a9.33,9.33,0,0,1,.18-1.56c.12-.51.19-1,.36-1.55s.38-1,.58-1.51.55-.94.83-1.39.72-.82,1.07-1.2a10.64,10.64,0,0,1,1.24-.91,8.11,8.11,0,0,1,1.28-.59,4.68,4.68,0,0,1,1.19-.29,3.82,3.82,0,0,1,1-.09,10.1,10.1,0,0,1,4.79,1.29,13.57,13.57,0,0,1,3.59,2.76,13.75,13.75,0,0,1,2.47,3.57,14.26,14.26,0,0,1,.8,2,12.57,12.57,0,0,1,.38,2.09,10.05,10.05,0,0,1-.45,4.13,10.35,10.35,0,0,1-.84,1.85l-.51.86c-.18.27-.41.51-.61.77l-.62.75-.7.65-.7.64c-.18.15-.32.24-.49.36a16.15,16.15,0,0,1-1.89,1.17c.24.08.58.15.86.23a6.35,6.35,0,0,1,.93.27l1,.33,1.39.66a15.33,15.33,0,0,1,4.78,3.65,11.06,11.06,0,0,1,2.53,5.32,9.61,9.61,0,0,1-.78,5.72,7.3,7.3,0,0,1-4.23,3.82,8.31,8.31,0,0,1-5.45-.19,18,18,0,0,1-7.42-5.94,31.49,31.49,0,0,1-3.95-6.75c-.26-.59-.52-1.17-.75-1.71l-.57-1.53C272.7,212.56,272.45,211.85,272.33,211.5Z" transform="matrix(-1, 0, 0, 1, 380, 0)" /><path class="cls-4" d="M270.54,208.65c-18.1-29.21-36.55,4-10.86,13,6.1,1.49,7-14.7,13.16-8.23" transform="matrix(-1, 0, 0, 1, 380, 0)" /><path d="M272.82,213.4c-.23,0-.83-.54-1.79-.93a1.74,1.74,0,0,0-1.54.05A4.27,4.27,0,0,0,268,214c-.88,1.28-1.61,2.87-2.4,4.3a12.39,12.39,0,0,1-2.63,3.56,4.41,4.41,0,0,1-1.55.87,4.18,4.18,0,0,1-1.93.13,6.73,6.73,0,0,1-.84-.24l-.71-.23c-.47-.17-1-.3-1.43-.51a22.33,22.33,0,0,1-5.43-3.17,17.44,17.44,0,0,1-4.2-5,14.72,14.72,0,0,1-1.82-6.31A12.21,12.21,0,0,1,249.53,197a9.67,9.67,0,0,1,5.47-2,11.17,11.17,0,0,1,5.26,1.14,19.7,19.7,0,0,1,6.93,5.86,30.18,30.18,0,0,1,2.21,3.25c.62,1.07,1.13,2.13,1.63,3.1a35.75,35.75,0,0,1-2.87-2.22c-1-.81-2.07-1.71-3.12-2.47-2.07-1.58-4-2.8-4.93-3.44a11.37,11.37,0,0,0-1.45-1,13,13,0,0,0-1.54-.66,7.48,7.48,0,0,0-3.18-.25,7.08,7.08,0,0,0-2.88,1.29,8.47,8.47,0,0,0-2.06,2.47,10.39,10.39,0,0,0-1.1,6.19,12,12,0,0,0,2.21,5.6,16.89,16.89,0,0,0,4.12,3.94,22.88,22.88,0,0,0,2.4,1.35l1.21.58,1.24.46a5.92,5.92,0,0,0,1.05.36,2,2,0,0,0,.85-.06,3.84,3.84,0,0,0,1.56-1.15,32.73,32.73,0,0,0,2.62-3.9,16.05,16.05,0,0,1,1.55-2.18,5.28,5.28,0,0,1,2.57-1.84,2.66,2.66,0,0,1,1.55.12,5.21,5.21,0,0,1,.58.32l.45.36A9.44,9.44,0,0,1,272.82,213.4Z" transform="matrix(-1, 0, 0, 1, 380, 0)" /><path class="cls-4" d="M271.42,211.66c-32,17.57,27.86,45.17,3.45-.82" transform="matrix(-1, 0, 0, 1, 380, 0)" /><path d="M274.89,210.83c.39.09,1.74,2.25,3.05,4.9a64.49,64.49,0,0,1,3.15,7.61,19.68,19.68,0,0,1,1.18,5.2,10.05,10.05,0,0,1-1.19,6,6.78,6.78,0,0,1-2.5,2.4,8,8,0,0,1-3.23.94,12.88,12.88,0,0,1-5.91-1,16.45,16.45,0,0,1-7.54-6.21,12.35,12.35,0,0,1-1.82-4.62,10.54,10.54,0,0,1,.29-4.85,13.72,13.72,0,0,1,4.91-6.74,22.59,22.59,0,0,1,5.87-3.23c-1.14,1.57-2.89,3.49-4.18,5.35a38.35,38.35,0,0,0-2.61,4.4,7.21,7.21,0,0,0-.87,5.61,10.8,10.8,0,0,0,3,5.09,13.68,13.68,0,0,0,4.88,3.07,8.12,8.12,0,0,0,5.16.31,4.57,4.57,0,0,0,3-3.21,11.49,11.49,0,0,0,.18-4.6,29.63,29.63,0,0,0-1-4.4c-.41-1.42-.87-2.77-1.32-4.09C276.56,216.21,275.17,211.73,274.89,210.83Z" transform="matrix(-1, 0, 0, 1, 380, 0)" /><path class="cls-4" d="M269.15,206.82c-31.93-16,9.74-40.08,5,2" transform="matrix(-1, 0, 0, 1, 380, 0)" /><path d="M274.1,208.81a3.73,3.73,0,0,1-.22-1.71c0-.94.05-2.16,0-3.48a29.93,29.93,0,0,0-.82-7.13c-.82-2.72-1.94-5.62-3.93-7.46a6.44,6.44,0,0,0-3.26-1.78,5.6,5.6,0,0,0-3.43.49,6.65,6.65,0,0,0-2.28,1.89,6,6,0,0,0-1.08,2.67c0,.24-.05.49-.08.73l0,.74v.37l.09.36.16.75c.17.48.36,1,.56,1.45s.5.93.77,1.39a24.86,24.86,0,0,0,4.25,4.7c.81.63,1.55,1.31,2.32,1.88s1.52,1.11,2.21,1.65a16.48,16.48,0,0,1-3-.35,21,21,0,0,1-3.28-1.08,18.09,18.09,0,0,1-2.83-1.69,7.77,7.77,0,0,1-1.73-1.74,14.8,14.8,0,0,1-2.65-6.56,9.17,9.17,0,0,1,1.51-6.41,9.06,9.06,0,0,1,4.85-3.58,8.29,8.29,0,0,1,5.65.3,9.7,9.7,0,0,1,4.09,3.35c.25.35.52.67.73,1s.39.73.58,1.09a5.93,5.93,0,0,1,.5,1.09c.14.37.29.74.42,1.1a25.14,25.14,0,0,1,1.25,8.44,15.55,15.55,0,0,1-.18,2.13,21.28,21.28,0,0,1-.4,2.28C274.58,207.18,274.23,208.41,274.1,208.81Z" transform="matrix(-1, 0, 0, 1, 380, 0)" /><path class="cls-3" d="M267.72,206.33c4.12,25.36,15.95-14.36-.31.72" transform="matrix(-1, 0, 0, 1, 380, 0)" /><path d="M267.39,207c-.23-.62,3.1-3.84,5.4-4.44a3.08,3.08,0,0,1,1.73-.1,3.19,3.19,0,0,1,1.68,1.07,5.76,5.76,0,0,1,1.17,3.12,13.31,13.31,0,0,1-.75,5.67,9.85,9.85,0,0,1-1.11,2.29,6.57,6.57,0,0,1-.94,1.14,4.42,4.42,0,0,1-1.72,1,3.82,3.82,0,0,1-3.9-1.31l-.24-.31a5.81,5.81,0,0,1-.36-.58,8,8,0,0,1-.5-1.09,13.83,13.83,0,0,1-.78-3.88,17.74,17.74,0,0,1,.09-3.23,12.57,12.57,0,0,1,2.56,2.69A6,6,0,0,1,271,211.4a6.17,6.17,0,0,0,.54,2.19.62.62,0,0,0,.64.22,1.14,1.14,0,0,0,.36-.16,2.58,2.58,0,0,0,.43-.4,8.83,8.83,0,0,0,1.89-4.85,7.27,7.27,0,0,0-.11-2.31,1.92,1.92,0,0,0-.76-1.34.93.93,0,0,0-.52-.12,3.21,3.21,0,0,0-.74.13,12.17,12.17,0,0,0-1.66.71C270,206,267.85,206.86,267.39,207Z" transform="matrix(-1, 0, 0, 1, 380, 0)" /><path class="cls-1" d="M134.92,184.08c20.64-12.71,16.54,8.82-.64,5.66" transform="matrix(-1, 0, 0, 1, 380, 0)" /><path d="M134.29,189.71c.2-.3,1.5-.2,3-.27a11.79,11.79,0,0,0,3.93-.8,14.84,14.84,0,0,0,4-2.65,8.06,8.06,0,0,0,1.33-1.74,2.84,2.84,0,0,0,.41-1.56c-.06-.32-.11-.3-.24-.4a2.35,2.35,0,0,0-1.06-.26,13.39,13.39,0,0,0-3.57.47c-2.49.65-4.83,1.51-6.82,2.07a8.92,8.92,0,0,1,2.08-3.45A5.66,5.66,0,0,1,140,179.3a29.19,29.19,0,0,1,4-.42,7.26,7.26,0,0,1,3.93.82,3.4,3.4,0,0,1,1.42,1.62,4,4,0,0,1,.2,2,6.87,6.87,0,0,1-1.37,3.1,11.95,11.95,0,0,1-9.56,4.67,8.78,8.78,0,0,1-1.27-.14c-.45-.11-.91-.25-1.33-.39A13.59,13.59,0,0,1,134.29,189.71Z" transform="matrix(-1, 0, 0, 1, 380, 0)" /><path class="cls-1" d="M118.45,194.39c-9.23,17.68-7.63,26.91,5.42,6.49" transform="matrix(-1, 0, 0, 1, 380, 0)" /><path d="M123.89,200.9c.39.59-2.49,4.93-3.47,6.74a25.07,25.07,0,0,1-1.45,2.43c-.27.4-.58.79-.88,1.19l-.51.59-.25.3-.42.38a6.32,6.32,0,0,1-.91.76l-.53.36-.27.18-.27.1a3,3,0,0,1-2.15.23,2.75,2.75,0,0,1-1.61-1.37,3.78,3.78,0,0,1-.36-1.09,4.59,4.59,0,0,1-.11-1.25v-.57a3.63,3.63,0,0,1,0-.51l.1-.8c.08-.49.15-.88.25-1.31a22.26,22.26,0,0,1,.69-2.4,30.71,30.71,0,0,1,1.83-4.3,30.13,30.13,0,0,1,4.35-6.43c.57,2.43.12,6.09-.61,7.12a23.11,23.11,0,0,0-3.36,6.32,10.57,10.57,0,0,0-.58,2.68,1.53,1.53,0,0,0,.21.93.64.64,0,0,0,.86.08,5.52,5.52,0,0,0,1.49-1.35c.6-.66,1.14-1.37,1.66-2,1-1.38,2-2.69,2.94-3.85A24.61,24.61,0,0,1,123.89,200.9Z" transform="matrix(-1, 0, 0, 1, 380, 0)" /><path class="cls-4" d="M126,193.61c15.72,11.85-17.73,32.93-8.12,7-17.94,20.63-19.67-11.5,5.9-10.2" transform="matrix(-1, 0, 0, 1, 380, 0)" /><path d="M123.75,190.41a7.58,7.58,0,0,1-2.4.34c-.65.11-1.41.17-2.23.3a25.32,25.32,0,0,0-2.57.59,16.91,16.91,0,0,0-5,2.26,13.71,13.71,0,0,0-3.26,3A12.05,12.05,0,0,0,106,202.2a5.17,5.17,0,0,0,.19,2.55c.06.19.17.3.23.46s.2.21.28.32a1.51,1.51,0,0,0,.71.29,4,4,0,0,0,2.23-.54,12.07,12.07,0,0,0,1.25-.71c.21-.13.41-.3.61-.45l.31-.22.15-.12.18-.12.15-.14,2.5-2.38c.41-.36.88-.91,1.33-1.4l1.36-1.5,5.14-5.69-.28.84c-.71,2.16-1.42,4.3-2.13,6.44l-.58,1.75a15.84,15.84,0,0,0-.51,1.66c-.26,1-.51,2-.77,3a4.82,4.82,0,0,0-.14.74l0,.43,0,.6c0,.4,0,.74,0,1.12a2.7,2.7,0,0,0,.49,1.44,1.3,1.3,0,0,0,1,.38,5.39,5.39,0,0,0,1.9-.41,12.64,12.64,0,0,0,3.76-2.53,10.62,10.62,0,0,0,3.63-7.43,7.11,7.11,0,0,0-1-3.64,10.38,10.38,0,0,0-1.05-1.56c-.39-.48-.84-.91-1.25-1.36a14.28,14.28,0,0,1,1.76.74,8.75,8.75,0,0,1,1.8,1.34,8.15,8.15,0,0,1,2.46,4.56,10.57,10.57,0,0,1-2.24,8.26,17.55,17.55,0,0,1-5.84,4.33,9.28,9.28,0,0,1-3.58.86,4.15,4.15,0,0,1-1-.06,3.33,3.33,0,0,1-1-.27,4.13,4.13,0,0,1-1.68-1.21,5.32,5.32,0,0,1-.9-1.71,8.79,8.79,0,0,1-.24-1.71,9.65,9.65,0,0,1,0-1.62l.08-.7a2.7,2.7,0,0,1,.08-.41,24,24,0,0,1,1-3.4c0-.11,0,0-.06,0l-.13.14-.25.27-.51.55c-.36.35-.71.71-1.07,1.05l-.55.47a6.85,6.85,0,0,1-.7.54,16.27,16.27,0,0,1-2.05,1.32c-.37.18-.75.34-1.13.5a12.26,12.26,0,0,1-1.22.36,8.21,8.21,0,0,1-1.32.09,4.09,4.09,0,0,1-1.36-.32,3.94,3.94,0,0,1-1.2-.78,4.19,4.19,0,0,1-.78-1.12,6.08,6.08,0,0,1-.62-2.44,12.34,12.34,0,0,1,3.09-8.05,16.12,16.12,0,0,1,6.33-4.5,17.83,17.83,0,0,1,6.33-1.19A27.93,27.93,0,0,1,123.75,190.41Z" transform="matrix(-1, 0, 0, 1, 380, 0)" /><path class="cls-4" d="M126,190.08c22.85-3.19,21-34.41,1.56-15.45-4.38,4.78,1.51,12.8-4.87,15.4" transform="matrix(-1, 0, 0, 1, 380, 0)" /><path d="M122.67,190c0-.1.17-.25.4-.44s.26-.2.42-.31a6.08,6.08,0,0,0,.44-.44,4.53,4.53,0,0,0,1.26-3,26.29,26.29,0,0,0-.17-4.13,21.16,21.16,0,0,1-.08-3.67l.06-.65.14-.66a7.35,7.35,0,0,1,2.07-3.65,23.22,23.22,0,0,1,1.87-1.84l1-.87,1.07-.82a15.51,15.51,0,0,1,5.05-2.56c.52-.08,1-.2,1.56-.24a7.49,7.49,0,0,1,1.69.1,5.81,5.81,0,0,1,3.14,1.64,7.8,7.8,0,0,1,2,5.11,13.38,13.38,0,0,1-.7,4.78,17.39,17.39,0,0,1-4.82,7.32,18.37,18.37,0,0,1-6.68,3.94,20.92,20.92,0,0,1-6.34,1c1.55-1.08,3.68-2.28,5.43-3.58.43-.34.86-.63,1.25-.95s.76-.62,1.11-.88a18.57,18.57,0,0,1,1.66-1.31,13,13,0,0,0,6.21-9.6,4.86,4.86,0,0,0-1.7-4.49,4.12,4.12,0,0,0-2.23-.49,10.1,10.1,0,0,0-1.2.22,11.33,11.33,0,0,0-1.16.4,17.75,17.75,0,0,0-4.14,2.63c-.6.53-1.23,1-1.77,1.57l-.83.8-.4.4-.27.39a6.76,6.76,0,0,0-1.12,3.62c-.09,1.32,0,2.7,0,4.09a8.29,8.29,0,0,1-1.25,4.76,7.88,7.88,0,0,1-.86.87l-.89.53C123.31,189.83,122.88,189.94,122.67,190Z" transform="matrix(-1, 0, 0, 1, 380, 0)" /><path class="cls-4" d="M124.25,189.53C137,153.18,89,194.36,122.43,193" transform="matrix(-1, 0, 0, 1, 380, 0)" /><path d="M122.44,193c-.2.3-2.18.61-4.54.47a16.25,16.25,0,0,1-3.58-.55,10.12,10.12,0,0,1-2.89-1.3,5.51,5.51,0,0,1-2.45-4.13,9.56,9.56,0,0,1,.91-4.72,20.16,20.16,0,0,1,5.52-7,16.58,16.58,0,0,1,3.21-2.13,10,10,0,0,1,4-1.13,5.51,5.51,0,0,1,2.49.49,4.68,4.68,0,0,1,2,1.75,7.39,7.39,0,0,1,1,4A19.07,19.07,0,0,1,127,185a31.46,31.46,0,0,1-2.17,4.7,31.48,31.48,0,0,1-.42-5.49,26,26,0,0,1,.14-4.26c.37-1.58.33-3.19-.36-3.86a2.17,2.17,0,0,0-1.63-.54,6.43,6.43,0,0,0-2.15.46,16.08,16.08,0,0,0-6.82,5.52,12.56,12.56,0,0,0-1.82,3.49,5.34,5.34,0,0,0-.15,3.26c.59,1.86,2.69,2.72,4.65,3.28,1,.23,2.3.59,3.53.87Z" transform="matrix(-1, 0, 0, 1, 380, 0)" /><path class="cls-4" d="M127.58,189.65c26.14-21.41,10,26.49-3.88,3.56" transform="matrix(-1, 0, 0, 1, 380, 0)" /><path d="M123.73,193.2c.38,0,1.35,1.43,2.75,2.79a11.11,11.11,0,0,0,2.28,1.77,4.84,4.84,0,0,0,2.09.69c3.86.35,7.09-3.95,8.21-7.8a10.26,10.26,0,0,0,.43-2.47,3.55,3.55,0,0,0-.28-1.78c-.18-.29-.26-.41-.83-.49a5.5,5.5,0,0,0-2.06.26,27.4,27.4,0,0,0-4.47,1.87l-3.91,2.05a12.29,12.29,0,0,1,2.52-4.37,8.48,8.48,0,0,1,3.49-2.6,16,16,0,0,1,2.79-.52,6.61,6.61,0,0,1,3,.36,4,4,0,0,1,2.22,2.22,6.44,6.44,0,0,1,.39,2.6,14.31,14.31,0,0,1-1,4.42,18.14,18.14,0,0,1-1.95,3.68,10.45,10.45,0,0,1-6.19,4.66,6.74,6.74,0,0,1-3.77-.31,8.3,8.3,0,0,1-2.85-1.84,9.59,9.59,0,0,1-2-2.87A15.89,15.89,0,0,1,123.73,193.2Z" transform="matrix(-1, 0, 0, 1, 380, 0)" /><path class="cls-3" d="M128.66,188.6c-12.66-7.59-4.15,20.61-.1-.6" transform="matrix(-1, 0, 0, 1, 380, 0)" /><path d="M128.59,188c.28.16.25,1.14.1,2.26s-.45,2.4-.57,3.16a6.77,6.77,0,0,1-.64,2.14,4,4,0,0,1-2.45,2.09,3.26,3.26,0,0,1-3.13-1.22,7.86,7.86,0,0,1-1.41-2.47,8.63,8.63,0,0,1-.4-4.14,5.92,5.92,0,0,1,.81-2.19,4.29,4.29,0,0,1,2-1.69,4.1,4.1,0,0,1,2.28-.2,5.71,5.71,0,0,1,1.68.59,9.9,9.9,0,0,1,1.21.86,12.59,12.59,0,0,1,.89.92,11.39,11.39,0,0,1-1.56.44l-1.44.34c-.88.2-1.17.51-1.33.35l-.24-.13c-.06,0-.18-.06-.27,0a1,1,0,0,0-.6.42,3.53,3.53,0,0,0-.61,1.92,5.44,5.44,0,0,0,.29,2.07,2.34,2.34,0,0,0,.19.46c.07.14.14.3.2.39a1.8,1.8,0,0,0,.44.5.76.76,0,0,0,1,0,1.81,1.81,0,0,0,.33-.43l.14-.25.16-.36c.45-1,.77-2,1.17-3A14.08,14.08,0,0,1,128.59,188Z" transform="matrix(-1, 0, 0, 1, 380, 0)" /><path class="cls-1" d="M138.53,211.11c-37.64,11.92,4.4,34.18,6.23-2.26" transform="matrix(-1, 0, 0, 1, 380, 0)" /><path d="M144.79,208.85a3.71,3.71,0,0,1,.21,1.68c0,.47,0,1,0,1.6l-.23,1.88a13.9,13.9,0,0,1-.33,2c-.16.67-.29,1.34-.46,2-.41,1.25-.73,2.4-1.08,3.19a14.75,14.75,0,0,1-6.15,7.67A12.37,12.37,0,0,1,126.26,230a8.89,8.89,0,0,1-4-2.95,6.7,6.7,0,0,1-1.21-5.14,8.13,8.13,0,0,1,.85-2.34,9.9,9.9,0,0,1,.59-1l.7-.86a14.41,14.41,0,0,1,3.08-2.68,11.84,11.84,0,0,1,1.62-1c.54-.28,1.06-.6,1.61-.82a31.51,31.51,0,0,1,3.16-1.23,39.57,39.57,0,0,1,5.7-1.38,38.91,38.91,0,0,1-4.78,3.93c-.87.59-1.63,1.24-2.36,1.69a11.27,11.27,0,0,1-1.72,1.07,12.05,12.05,0,0,0-4.47,3.23,4.17,4.17,0,0,0-.71,4.41A6,6,0,0,0,128,227.7a9.07,9.07,0,0,0,4.68.06,10.15,10.15,0,0,0,4-1.93l.43-.32.38-.37.76-.72c.44-.54.89-1.06,1.28-1.61a24.75,24.75,0,0,0,3.16-7c.38-1.09.79-2.63,1.25-4S144.66,209.25,144.79,208.85Z" transform="matrix(-1, 0, 0, 1, 380, 0)" /><path class="cls-1" d="M138.34,200.37c-20.26-16.4-2.91-33.5,4.63-5.52" transform="matrix(-1, 0, 0, 1, 380, 0)" /><path d="M142.94,194.86c-.18-.05-.42-.47-.71-1.12s-.61-1.5-1-2.4-.83-1.86-1.24-2.72a16.83,16.83,0,0,0-1.26-2.06,15.72,15.72,0,0,0-4.48-4.37,2.58,2.58,0,0,0-2.06-.34,1.88,1.88,0,0,0-1.09,1.34,8.51,8.51,0,0,0,.18,4.61,20.77,20.77,0,0,0,2,4.66,56.61,56.61,0,0,0,5.39,7.47,11,11,0,0,1-2.32-.5,15.43,15.43,0,0,1-2.41-1.12,14.76,14.76,0,0,1-2-1.47,6.71,6.71,0,0,1-1.14-1.39A24.18,24.18,0,0,1,128,186a8.7,8.7,0,0,1,.91-4.51,4.6,4.6,0,0,1,1.61-1.73,4.26,4.26,0,0,1,2.29-.59,6.7,6.7,0,0,1,3.83,1.59,14.46,14.46,0,0,1,2.55,2.66,19.76,19.76,0,0,1,3,5.72,15.43,15.43,0,0,1,.67,3.29C142.91,193.56,142.94,194.54,142.94,194.86Z" transform="matrix(-1, 0, 0, 1, 380, 0)" /><path class="cls-1" d="M154.27,211.81c16.32-6.4,26.55-19.66,2.3-14.95" transform="matrix(-1, 0, 0, 1, 380, 0)" /><path d="M156.57,196.83c.09-.32,1.49-.78,3.16-1.13s3.6-.61,4.7-.81a13,13,0,0,1,3.11-.24,6.45,6.45,0,0,1,3.65,1.1,3.85,3.85,0,0,1,1.45,2.21,4.71,4.71,0,0,1-.15,2.4,10.4,10.4,0,0,1-1.79,3.19,24.74,24.74,0,0,1-8.3,6.29,27,27,0,0,1-7.92,2.5c1.3-2.25,4.06-4.89,5.32-5.3a21.43,21.43,0,0,0,6.75-3.35,13.14,13.14,0,0,0,2.43-2.32,4.88,4.88,0,0,0,1.19-2.54,1.35,1.35,0,0,0-.31-.89,2.36,2.36,0,0,0-.93-.56,8.31,8.31,0,0,0-2.52-.4c-1.75,0-3.44.09-5,.15A34.78,34.78,0,0,1,156.57,196.83Z" transform="matrix(-1, 0, 0, 1, 380, 0)" /><path class="cls-2" d="M150,202.14c1.16-34.81,34.27-13.65,9.29,3.51,23.69.49,2.54,42-10.67,3.26" transform="matrix(-1, 0, 0, 1, 380, 0)" /><path d="M148.64,208.9c.48.28,1.83,4.18,4.19,8.23a22.25,22.25,0,0,0,4.35,5.43,6.79,6.79,0,0,0,4.79,1.85,6.55,6.55,0,0,0,4.87-3.46,10.78,10.78,0,0,0,1.25-3.08,11.53,11.53,0,0,0,.28-3.3,8.49,8.49,0,0,0-.86-3,6.41,6.41,0,0,0-2-2.27,7,7,0,0,0-1.33-.78,5.94,5.94,0,0,0-.74-.28l-.38-.13-.19-.06-.19-.07-.11,0-.24,0-4.12-.46-4.08-.29,5.59-4.23a14.82,14.82,0,0,0,1.37-1.15l.8-.72,1.12-1.2a11.86,11.86,0,0,0,1-1.26c.16-.21.34-.42.48-.64l.4-.67a10.71,10.71,0,0,0,1.68-5.58A7.69,7.69,0,0,0,166,189a7.27,7.27,0,0,0-.62-1.17,6.72,6.72,0,0,0-.85-1,5.48,5.48,0,0,0-2.13-1.35,5.1,5.1,0,0,0-2.41-.31,7,7,0,0,0-4.36,2.41,16.46,16.46,0,0,0-2.77,4.63,41.87,41.87,0,0,0-2.32,9.9,25,25,0,0,1-.13-11.11,16.47,16.47,0,0,1,2.45-5.52,9.5,9.5,0,0,1,3.67-3.06,9.08,9.08,0,0,1,10.22,2,10,10,0,0,1,2.48,4.3,11,11,0,0,1,.22,4.7,16.07,16.07,0,0,1-3.88,7.69c-.46.52-1,1-1.42,1.49a9.47,9.47,0,0,1-.73.69l-.53.45a8.16,8.16,0,0,1-.93.74l-.48.36-.24.17-.11.09s0,0,0,0h.07a11,11,0,0,1,1.74.2l.43.09a.8.8,0,0,1,.21,0l.27.09c.46.17.94.31,1.39.52a9.33,9.33,0,0,1,4.32,3.91,10.52,10.52,0,0,1,1.3,5.45,13.34,13.34,0,0,1-1.2,5.21,11.09,11.09,0,0,1-3.18,4.16,7.49,7.49,0,0,1-5,1.67,8.61,8.61,0,0,1-4.63-1.8L156,224a8.63,8.63,0,0,1-.8-.8l-.77-.82-.65-.88a22.72,22.72,0,0,1-2-3.29,38.5,38.5,0,0,1-1.56-3.83l-.6-1.81c-.17-.57-.3-1.11-.43-1.59Z" transform="matrix(-1, 0, 0, 1, 380, 0)" /><path class="cls-2" d="M147.29,206.12c-16.62-29.55-35,11.73-12.56,15.3,6.42.39,8.18-16.13,14.14-10.61" transform="matrix(-1, 0, 0, 1, 380, 0)" /><path d="M148.85,210.84c-.23.06-.86-.54-1.85-.7a2,2,0,0,0-1.53.41,6.12,6.12,0,0,0-1.44,1.57c-.89,1.3-1.67,2.87-2.45,4.29a30.26,30.26,0,0,1-2.23,3.63,7.24,7.24,0,0,1-2.44,2.18,4.88,4.88,0,0,1-1.83.5,5.27,5.27,0,0,1-.57,0l-.42-.07-.78-.13a13.15,13.15,0,0,1-6-2.58,12.33,12.33,0,0,1-4-5.53,16,16,0,0,1-.89-6.47,17.32,17.32,0,0,1,1.16-5.39,16.26,16.26,0,0,1,2.77-4.76,12,12,0,0,1,4.5-3.36,8.94,8.94,0,0,1,5.57-.48,5.42,5.42,0,0,1,1.28.38,9.16,9.16,0,0,1,1.2.5,13.14,13.14,0,0,1,2,1.33l.91.74c.29.25.53.53.79.8a14.18,14.18,0,0,1,1.41,1.63,29.34,29.34,0,0,1,3.7,6.5c-1.74-1.27-3.76-3.34-5.85-4.85-.48-.43-1-.72-1.5-1.07a11.16,11.16,0,0,0-1.37-.85l-.6-.37a5.85,5.85,0,0,1-.56-.26c-.34-.15-.62-.38-.87-.46a6.19,6.19,0,0,0-1.46-.61,6.1,6.1,0,0,0-1.53-.24A6.74,6.74,0,0,0,131,198a11.36,11.36,0,0,0-4.42,4.95c-2,4.05-2,8.8-.1,12.19a9.68,9.68,0,0,0,3.91,3.86,11.18,11.18,0,0,0,1.21.58l1.25.42c.42.13.86.18,1.29.28l.62.12a2.92,2.92,0,0,0,.42,0c1.27-.16,2.4-1.37,3.33-2.66s1.74-2.72,2.61-4.07a17.52,17.52,0,0,1,1.57-2.16,6.87,6.87,0,0,1,2.41-1.93,2.76,2.76,0,0,1,1.51-.21,2.79,2.79,0,0,1,1.16.46A5.07,5.07,0,0,1,148.85,210.84Z" transform="matrix(-1, 0, 0, 1, 380, 0)" /><path class="cls-2" d="M147.72,209.18c-34.57,24.16,21.36,43.08,3.51-1.35" transform="matrix(-1, 0, 0, 1, 380, 0)" /><path d="M151.26,207.82c.2.07.55.7,1,1.68a28.92,28.92,0,0,1,1.48,3.73,49.62,49.62,0,0,1,2,8.27c.11.86.18,1.76.26,2.68s0,1.87-.15,2.83a12.76,12.76,0,0,1-2.23,5.67,9.54,9.54,0,0,1-5.46,3.51,11.35,11.35,0,0,1-6.29-.39,12.94,12.94,0,0,1-2.44-1.15,12.42,12.42,0,0,1-2.1-1.72,6.21,6.21,0,0,1-.89-1c-.26-.38-.55-.73-.77-1.13a10.56,10.56,0,0,1-1-2.51,11.32,11.32,0,0,1-.4-2.63,9.36,9.36,0,0,1,.07-1.3,6.58,6.58,0,0,1,.16-1.26,15.17,15.17,0,0,1,1.73-4.44,23,23,0,0,1,5.47-6.2c1-.74,1.94-1.51,2.92-2.09s1.91-1.13,2.79-1.63a25,25,0,0,1-1.85,2.82c-.72,1-1.41,2.05-2.15,3s-1.32,1.94-1.86,2.74a15,15,0,0,1-1.34,1.89,11.18,11.18,0,0,0-2.7,5.67,7.57,7.57,0,0,0,1.48,5.62,8.62,8.62,0,0,0,10.07,2.73,7.49,7.49,0,0,0,3.48-3.42,12.72,12.72,0,0,0,.78-2.3c.08-.39.18-.77.25-1.16s.07-.8.1-1.19a36.05,36.05,0,0,0-.79-8.95c-.1-.67-.32-1.45-.46-2.28s-.25-1.72-.46-2.52C151.6,209.73,151.34,208.3,151.26,207.82Z" transform="matrix(-1, 0, 0, 1, 380, 0)" /><path class="cls-2" d="M146.18,204.37c-29.8-14.7,15.91-42.22,4.62,1.41" transform="matrix(-1, 0, 0, 1, 380, 0)" /><path d="M150.77,205.77a3.68,3.68,0,0,1,0-1.72c.11-.93.37-2.13.5-3.43.08-.65.16-1.32.25-2s.08-1.33.13-2a18.08,18.08,0,0,0-.06-3.21,17.08,17.08,0,0,0-.31-2.13c-.07-.35-.11-.72-.2-1.07l-.29-1a12.77,12.77,0,0,0-.74-2,8,8,0,0,0-.51-.85l-.25-.42-.32-.34a4.35,4.35,0,0,0-3-1.59,6,6,0,0,0-3.44.78,9.25,9.25,0,0,0-4.19,4.68,7.56,7.56,0,0,0,.09,5.85A15.27,15.27,0,0,0,142,200.3c.74.68,1.5,1.31,2.22,1.92s1.49,1.11,2.18,1.64a15.54,15.54,0,0,1-3-.34c-.54-.13-1.08-.33-1.63-.52a10.56,10.56,0,0,1-1.62-.7c-.51-.29-1-.59-1.49-.9a8.72,8.72,0,0,1-1.26-1,6.6,6.6,0,0,1-1.57-2,12.17,12.17,0,0,1-1.18-7.09,11.58,11.58,0,0,1,2.76-5.84,12.23,12.23,0,0,1,4.85-3.4,8,8,0,0,1,5.65-.15c.42.2.86.39,1.27.63l1.1.85.89,1a7.55,7.55,0,0,1,.7,1.1l.32.56c.09.19.16.39.24.59l.44,1.16c.22.78.38,1.56.54,2.32a26.81,26.81,0,0,1-.19,8.49,25.74,25.74,0,0,1-1.25,4.23C151.47,204.23,151,205.39,150.77,205.77Z" transform="matrix(-1, 0, 0, 1, 380, 0)" /><path class="cls-3" d="M147.9,202.34c-20.17,15.94,20.71,6.59-.82,0" transform="matrix(-1, 0, 0, 1, 380, 0)" /><path d="M147.09,202.32c.43-.51,4.88.77,6.58,2.39a3,3,0,0,1,1,1.43,3.09,3.09,0,0,1,0,2,5.74,5.74,0,0,1-2.15,2.62,13.81,13.81,0,0,1-5.31,2.16,10.36,10.36,0,0,1-2.52.19,7.26,7.26,0,0,1-1.4-.2,4.94,4.94,0,0,1-1.81-.89,3.27,3.27,0,0,1-1.09-1.6,3.64,3.64,0,0,1-.05-1.91,6,6,0,0,1,1.34-2.51,13.47,13.47,0,0,1,3-2.59,17.38,17.38,0,0,1,2.88-1.5,12.87,12.87,0,0,1-1.12,3.55,6.25,6.25,0,0,1-1.39,2.22,6.76,6.76,0,0,0-1.09.89c-.29.32-.4.35-.5.59a.6.6,0,0,0,.17.65,1.36,1.36,0,0,0,.33.22,3.5,3.5,0,0,0,.6.17,9.25,9.25,0,0,0,5.18-.79,7.62,7.62,0,0,0,2-1.24,3,3,0,0,0,.61-.73,1,1,0,0,0,.15-.58.88.88,0,0,0-.17-.5,3.23,3.23,0,0,0-.51-.57,11.28,11.28,0,0,0-1.48-1.08C149.32,204.07,147.47,202.63,147.09,202.32Z" transform="matrix(-1, 0, 0, 1, 380, 0)" /><path class="cls-1" d="M173.4,219.84c-42.35-7-8.44,34,7.12.89" transform="matrix(-1, 0, 0, 1, 380, 0)" /><path d="M180.54,220.74c.16.35-.65,2.61-2.12,5a26.52,26.52,0,0,1-5,6,15,15,0,0,1-4.26,2.73,14,14,0,0,1-5.32,1.05,14.45,14.45,0,0,1-10.06-4.11,9.9,9.9,0,0,1-2.61-4.32,6.87,6.87,0,0,1-.19-2.8,6.4,6.4,0,0,1,1-2.69,8.42,8.42,0,0,1,4-3,15.52,15.52,0,0,1,4.15-1,28.52,28.52,0,0,1,7.37.29,40.56,40.56,0,0,1,6,1.42,44,44,0,0,1-6.33,1.26,37.21,37.21,0,0,1-5.17.55,12.46,12.46,0,0,0-5.72.83,4.48,4.48,0,0,0-1.9,1.56,3.42,3.42,0,0,0-.53,2.27,7.1,7.1,0,0,0,2.52,4.34,11.33,11.33,0,0,0,4.39,2.39,12.14,12.14,0,0,0,8.79-.87,21.1,21.1,0,0,0,6.18-5c.78-.92,1.9-2.15,2.84-3.32Z" transform="matrix(-1, 0, 0, 1, 380, 0)" /><path class="cls-1" d="M183.19,209.46c-9.51-26.7,15.66-30.28,7.16-1.64" transform="matrix(-1, 0, 0, 1, 380, 0)" /><path d="M190.32,207.81a2.63,2.63,0,0,1,0-1.38c.05-.37.13-.79.21-1.25s.15-1,.22-1.47c.19-1,.27-2.13.38-3.12a17.45,17.45,0,0,0,0-2.55,17.21,17.21,0,0,0-1.66-6.47,3.61,3.61,0,0,0-1.8-1.75,1.84,1.84,0,0,0-1.79.32,7.64,7.64,0,0,0-2.39,4.08,20.39,20.39,0,0,0-.64,5.34,63.92,63.92,0,0,0,.9,9.71,11.49,11.49,0,0,1-1.76-1.74,16.49,16.49,0,0,1-1.51-2.32,15.38,15.38,0,0,1-1-2.4,6.75,6.75,0,0,1-.28-1.87,23.67,23.67,0,0,1,2.47-10.07,7.73,7.73,0,0,1,3.5-3.4,4.57,4.57,0,0,1,4.69.65,8.11,8.11,0,0,1,2.41,3.56,15.47,15.47,0,0,1,.85,3.77,20.1,20.1,0,0,1-.43,6.76,15.74,15.74,0,0,1-1.17,3.34C191,206.62,190.5,207.52,190.32,207.81Z" transform="matrix(-1, 0, 0, 1, 380, 0)" /><path class="cls-1" d="M191.34,229.64c18.16,5.3,34.56.77,10.18-11.17" transform="matrix(-1, 0, 0, 1, 380, 0)" /><path d="M201.53,218.44c.28-.19,1.76.33,3.41,1.11s3.46,1.78,4.53,2.29c.47.24.95.48,1.42.75s.94.58,1.4.93a9.5,9.5,0,0,1,2.6,2.76l.27.5a5.1,5.1,0,0,1,.2.59,4,4,0,0,1,.17,1.37,4.06,4.06,0,0,1-1.2,2.56,8,8,0,0,1-3.64,1.91,19.88,19.88,0,0,1-5.84.6,29.81,29.81,0,0,1-5.32-.63,30.16,30.16,0,0,1-8.35-3c2.54-.94,6.62-1.28,7.95-.82a22.86,22.86,0,0,0,7.93,1.51,12.66,12.66,0,0,0,3.55-.44,3.48,3.48,0,0,0,2.3-1.55,2.45,2.45,0,0,0-.79-2.19,13,13,0,0,0-2.13-1.92c-1.53-1.13-3.08-2.08-4.49-3.05A36.29,36.29,0,0,1,201.53,218.44Z" transform="matrix(-1, 0, 0, 1, 380, 0)" /><path class="cls-4" d="M192.73,218.62c19.89-28.77,38.25,10.95,6.47,9.08,21.06,16-20.46,37.32-11.38-4.24" transform="matrix(-1, 0, 0, 1, 380, 0)" /><path d="M187.85,223.46c.27.52-.65,4.75-.71,9.68a25.68,25.68,0,0,0,.91,7.28,9.06,9.06,0,0,0,3,4.7,6.36,6.36,0,0,0,3.06,1.2,8,8,0,0,0,3.37-.44,10.46,10.46,0,0,0,3-1.81,9.94,9.94,0,0,0,2.15-2.78,8.15,8.15,0,0,0,.82-3.29,8.34,8.34,0,0,0-.71-3.3c-.24-.52-.55-1-.84-1.53l-.54-.72-.27-.35a2.24,2.24,0,0,0-.28-.33l-.4-.36c-1.08-1-2.15-2-3.25-2.92l-3.34-2.78,5.48.07h.89l.83,0,1.67-.05,1.64-.05.84-.15a17.11,17.11,0,0,0,3.26-.83,9.48,9.48,0,0,0,4.81-3.57,2.47,2.47,0,0,0,.35-.61c.1-.22.23-.42.31-.64a8,8,0,0,0,.36-1.36,7.24,7.24,0,0,0-.07-2.82,8.41,8.41,0,0,0-1.07-2.61,7.63,7.63,0,0,0-1.9-2,7.08,7.08,0,0,0-5.12-1.26,12.79,12.79,0,0,0-5.2,1.93,34.91,34.91,0,0,0-7.78,7.2,24.9,24.9,0,0,1,2.37-4.8,23.61,23.61,0,0,1,1.85-2.53c.35-.42.74-.79,1.12-1.18a9.94,9.94,0,0,1,1.22-1.12,13.3,13.3,0,0,1,5.73-2.91,10.39,10.39,0,0,1,2.83-.23,8.61,8.61,0,0,1,2.2.47,10.63,10.63,0,0,1,4.57,3.2,11.34,11.34,0,0,1,2.29,4.72,11,11,0,0,1,0,5,10.7,10.7,0,0,1-2.31,4.26A14.45,14.45,0,0,1,207.2,228c-.69.14-1.39.22-2.08.33l-.5.07-.36,0-.71,0-.72,0-.61,0-.62,0h-.53l.06.05a14.08,14.08,0,0,1,1.41,1.26c.21.24.42.42.64.7l.94,1.27a11.48,11.48,0,0,1,1.93,5.87,10.15,10.15,0,0,1-1.66,5.78,11.72,11.72,0,0,1-4.23,3.94,10.32,10.32,0,0,1-5.48,1.34,8.38,8.38,0,0,1-5.13-2.09,10.87,10.87,0,0,1-1.75-2,13.06,13.06,0,0,1-1.1-2.3c-.14-.39-.27-.79-.41-1.17s-.17-.79-.26-1.18-.17-.78-.23-1.17-.07-.77-.11-1.16a24.5,24.5,0,0,1,0-4,36.9,36.9,0,0,1,.65-4.29q.23-1,.42-2c.16-.61.33-1.17.48-1.67C187.51,224.6,187.73,223.84,187.85,223.46Z" transform="matrix(-1, 0, 0, 1, 380, 0)" /><path class="cls-4" d="M188.14,220.22c1-36-37.89-13.08-19.6,4.73,5.57,4.54,16.11-8.31,18.48.29" transform="matrix(-1, 0, 0, 1, 380, 0)" /><path d="M187,225.25c-.22-.08-.47-.93-1.23-1.73a2.35,2.35,0,0,0-1.57-.76,5.5,5.5,0,0,0-2.21.34,43.27,43.27,0,0,0-4.77,2.1,24.51,24.51,0,0,1-4.26,1.61,6.65,6.65,0,0,1-3.49,0,5.67,5.67,0,0,1-.91-.35c-.3-.15-.52-.32-.87-.54l-1.22-1.19a16,16,0,0,1-3.71-5.71,13.56,13.56,0,0,1-.62-7.09,15.31,15.31,0,0,1,2.83-6.36,15.75,15.75,0,0,1,9.85-6.16,11.35,11.35,0,0,1,5.94.49,11.61,11.61,0,0,1,4.69,3.33,17.62,17.62,0,0,1,3.45,9.1,32.35,32.35,0,0,1-.18,7.9c-.83-2.1-1.51-5.08-2.52-7.64a49.82,49.82,0,0,0-2.64-5.69,8.54,8.54,0,0,0-2.12-2.79,6.89,6.89,0,0,0-3.06-1.54l-.86-.18-.88,0a3.72,3.72,0,0,0-.88,0c-.29,0-.59.05-.88.09a11.71,11.71,0,0,0-3.36,1.14,12.55,12.55,0,0,0-7,10.6,11.4,11.4,0,0,0,1.44,5.73c.26.41.47.84.74,1.23l.87,1.14a9.38,9.38,0,0,0,1,1.05l.48.5.23.24c.05.07.1.07.17.13,1.2.86,2.85.69,4.45.2s3.18-1.2,4.77-1.81a18.12,18.12,0,0,1,2.71-.86,6.54,6.54,0,0,1,3.29,0,3.24,3.24,0,0,1,2,2A6.19,6.19,0,0,1,187,225.25Z" transform="matrix(-1, 0, 0, 1, 380, 0)" /><path class="cls-4" d="M186.87,223.11c-44.21-2.25-4.09,50.59,3.9,1.16" transform="matrix(-1, 0, 0, 1, 380, 0)" /><path d="M190.8,224.27c.25.33,0,3-.69,6.15a45.56,45.56,0,0,1-2.77,8.42,16.85,16.85,0,0,1-3.11,4.85,10.57,10.57,0,0,1-5.54,3.26,10.23,10.23,0,0,1-6.61-.93,14,14,0,0,1-4.86-4.1,12.89,12.89,0,0,1-2.5-10.42,10.71,10.71,0,0,1,2.57-4.84,13.18,13.18,0,0,1,4.12-2.9,17.55,17.55,0,0,1,4.33-1.35,23.92,23.92,0,0,1,4.1-.43,34.55,34.55,0,0,1,7.06.56c-1.91.73-4.59,1.41-7,2.15s-4.43,1.53-5.53,1.81a9.55,9.55,0,0,0-5.48,3.27,7.61,7.61,0,0,0-1.41,5.87,10.91,10.91,0,0,0,7.24,8.66,7.12,7.12,0,0,0,5-.35,10.56,10.56,0,0,0,3.77-3.11,30.87,30.87,0,0,0,4.24-8.29C188.79,230,190.46,225.22,190.8,224.27Z" transform="matrix(-1, 0, 0, 1, 380, 0)" /><path class="cls-4" d="M188.09,218c-18.87-32.07,37.18-25.36,3.39,4.23" transform="matrix(-1, 0, 0, 1, 380, 0)" /><path d="M191.46,222.22c0-.21.4-.74,1-1.47s1.56-1.63,2.43-2.69a29,29,0,0,0,4.33-6.1c.32-.68.56-1.39.86-2.08s.41-1.43.63-2.14a9.77,9.77,0,0,0,0-4.17,6.12,6.12,0,0,0-2.13-3.15,8.15,8.15,0,0,0-3.6-1.52,10.75,10.75,0,0,0-3.4.1,8.42,8.42,0,0,0-2.94,1.29,7.34,7.34,0,0,0-2.81,5.33,20.07,20.07,0,0,0,.74,6.46c.35,1,.61,2,.95,2.95s.7,1.83,1,2.69a16.83,16.83,0,0,1-2.37-2,21.81,21.81,0,0,1-2.19-2.86c-1.21-2.1-2-4.44-1.81-5.75a12.23,12.23,0,0,1,2.37-7.11,10.21,10.21,0,0,1,5.77-3.62,12.28,12.28,0,0,1,6.18.14,10,10,0,0,1,4.95,3.1,8.86,8.86,0,0,1,2,5.19c0,.46,0,.9,0,1.35a7.88,7.88,0,0,1-.2,1.29,11.65,11.65,0,0,1-.67,2.42,23.49,23.49,0,0,1-4.81,7.53,16.22,16.22,0,0,1-1.62,1.52,18.82,18.82,0,0,1-1.9,1.49C193,221.28,191.84,222,191.46,222.22Z" transform="matrix(-1, 0, 0, 1, 380, 0)" /><path class="cls-3" d="M190.72,215.32c-25.46,8.78,20.38,13.46-.88-.27" transform="matrix(-1, 0, 0, 1, 380, 0)" /><path d="M189.86,215c.28-.19,1.47.38,2.77,1.23a16.47,16.47,0,0,1,3.38,2.92,3.79,3.79,0,0,1,.82,1.58,2.88,2.88,0,0,1-.29,2.1,4.14,4.14,0,0,1-1.53,1.48,7.93,7.93,0,0,1-1.58.68,15.42,15.42,0,0,1-6,.38,13,13,0,0,1-2.55-.56,10.64,10.64,0,0,1-1.29-.53,6.89,6.89,0,0,1-1.4-1,3.58,3.58,0,0,1-1.11-3.81,4.64,4.64,0,0,1,1.06-1.67,7.15,7.15,0,0,1,1.06-.86,13.66,13.66,0,0,1,4-1.67,19.71,19.71,0,0,1,3.42-.56,14.47,14.47,0,0,1-2.42,3.08,7.66,7.66,0,0,1-2.17,1.73,6.79,6.79,0,0,0-1.31.55.71.71,0,0,0-.49.4.73.73,0,0,0,.21.7,4.13,4.13,0,0,0,1.13.76,11.21,11.21,0,0,0,5.64.87,7.61,7.61,0,0,0,2.43-.58c.73-.34,1-.64,1-1a1.32,1.32,0,0,0-.15-.59,5.74,5.74,0,0,0-.49-.77,17.71,17.71,0,0,0-1.35-1.54C191.69,217.41,190.16,215.44,189.86,215Z" transform="matrix(-1, 0, 0, 1, 380, 0)" /><path class="cls-1" d="M229.16,209.47c40.56-16.28-10.63-34.08-6.67,3" transform="matrix(-1, 0, 0, 1, 380, 0)" /><path d="M222.46,212.46c-.31-.21-.8-2.61-.76-5.45a26.85,26.85,0,0,1,1.22-7.83,15.15,15.15,0,0,1,2.27-4.62,14,14,0,0,1,4.07-3.71,14.67,14.67,0,0,1,10.9-1.73,10,10,0,0,1,4.54,2.38,7.11,7.11,0,0,1,1.64,2.32,6.52,6.52,0,0,1,.52,2.88,8.68,8.68,0,0,1-1.89,4.72,16.31,16.31,0,0,1-3.1,3,29.41,29.41,0,0,1-6.56,3.64,40.9,40.9,0,0,1-5.94,1.92,44.82,44.82,0,0,1,4.86-4.4,38.29,38.29,0,0,1,4.22-3.21,12.53,12.53,0,0,0,4.54-3.76,4.7,4.7,0,0,0,.84-2.38,3.52,3.52,0,0,0-.75-2.26,7.2,7.2,0,0,0-4.5-2.45,11.6,11.6,0,0,0-5.09.24,12.38,12.38,0,0,0-7.21,5.4,21.61,21.61,0,0,0-2.75,7.61c-.2,1.2-.51,2.87-.71,4.38S222.52,212,222.46,212.46Z" transform="matrix(-1, 0, 0, 1, 380, 0)" /><path class="cls-1" d="M237.81,219.85c28.3,5.69,18.23,29.54-2.32,7.11" transform="matrix(-1, 0, 0, 1, 380, 0)" /><path d="M235.51,226.94c.18,0,.62.25,1.21.73.29.24.62.52,1,.84l1.17,1c.79.71,1.71,1.35,2.53,2a17.17,17.17,0,0,0,2.23,1.33,17.6,17.6,0,0,0,6.53,1.94,3.62,3.62,0,0,0,2.49-.65,1.89,1.89,0,0,0,.67-1.76,7.81,7.81,0,0,0-2.32-4.25,20.52,20.52,0,0,0-4.33-3.36,63.71,63.71,0,0,0-9-4.28,11.17,11.17,0,0,1,2.44-.6,17.57,17.57,0,0,1,2.82-.1,17.29,17.29,0,0,1,2.6.41,7.51,7.51,0,0,1,1.77.74,24.06,24.06,0,0,1,7.51,7.41A7.94,7.94,0,0,1,256,233.1a4.64,4.64,0,0,1-3,3.74,8.18,8.18,0,0,1-4.36.23,15.41,15.41,0,0,1-3.73-1.23,20.81,20.81,0,0,1-5.68-3.91,16.28,16.28,0,0,1-2.31-2.76C236.2,228.14,235.67,227.24,235.51,226.94Z" transform="matrix(-1, 0, 0, 1, 380, 0)" /><path class="cls-2" d="M224.81,223.37c14.7,32.45-29.61,27.67-11.32.89-25,10-21.86-37.42,9.67-7.71" transform="matrix(-1, 0, 0, 1, 380, 0)" /><path d="M223.14,216.57c-.59,0-3.8-3-8.07-5.69a25.79,25.79,0,0,0-6.84-3,9.18,9.18,0,0,0-5.71.2,6.32,6.32,0,0,0-2.66,2,8,8,0,0,0-1.39,3.17,10.67,10.67,0,0,0,0,3.61,10.31,10.31,0,0,0,1.31,3.34,8.14,8.14,0,0,0,2.45,2.44,8.62,8.62,0,0,0,3.26,1.13,17.84,17.84,0,0,0,1.79.06l.91-.1.46-.05h.2l.14,0h0l.53-.16c1.4-.43,2.83-.83,4.23-1.29l4.17-1.45c-1,1.66-2,3.2-2.93,4.73a33,33,0,0,0-2,3.41l-.5,1-.32.82a18.36,18.36,0,0,0-1,3.28,9.75,9.75,0,0,0,.6,6.1,2.63,2.63,0,0,0,.36.63,5.81,5.81,0,0,0,.4.61,8.09,8.09,0,0,0,1,1,7.42,7.42,0,0,0,2.51,1.42,8.65,8.65,0,0,0,2.85.43,7.66,7.66,0,0,0,2.74-.62,7.26,7.26,0,0,0,3.8-3.83,13.07,13.07,0,0,0,1-5.56,35.29,35.29,0,0,0-2.22-10.57,25.71,25.71,0,0,1,2.93,4.59,25.15,25.15,0,0,1,1.23,2.94c.18.52.3,1.06.44,1.6a10,10,0,0,1,.33,1.65,13.41,13.41,0,0,1-.47,6.51,10.88,10.88,0,0,1-1.27,2.58,8.54,8.54,0,0,1-1.56,1.67,10.75,10.75,0,0,1-5.17,2.31,11.54,11.54,0,0,1-5.31-.46,11.21,11.21,0,0,1-4.36-2.66,11,11,0,0,1-2.51-4.24,14.68,14.68,0,0,1,.48-9c.24-.69.53-1.34.8-2a6.47,6.47,0,0,1,.45-1l.32-.61a11.68,11.68,0,0,1,.63-1.08l.33-.52.17-.26.08-.13,0-.07-.06,0a15.6,15.6,0,0,1-1.84.57c-.33.06-.56.15-1,.2l-1.59.15a11.64,11.64,0,0,1-6.14-1.39,10.35,10.35,0,0,1-4.18-4.47,12.06,12.06,0,0,1-1.22-5.74,10.53,10.53,0,0,1,1.7-5.48,8.46,8.46,0,0,1,4.51-3.38,10.91,10.91,0,0,1,2.69-.46l1.31.07a5.89,5.89,0,0,1,1.27.17l1.24.26c.4.11.78.26,1.16.39s.77.26,1.14.41l1.07.51a24.62,24.62,0,0,1,3.55,2.08,41,41,0,0,1,3.4,2.82l1.48,1.39c.45.45.85.89,1.21,1.28Z" transform="matrix(-1, 0, 0, 1, 380, 0)" /><path class="cls-2" d="M225.82,218.53c30.26,19.81,31.77-26,6.14-19.59-6.89,2.48-1.18,18.42-9.94,16" transform="matrix(-1, 0, 0, 1, 380, 0)" /><path d="M222,214.89c.18-.15,1.06.08,2.16-.16a2.37,2.37,0,0,0,1.48-1,5.66,5.66,0,0,0,.87-2.1,47.28,47.28,0,0,0,.68-5.28,24.17,24.17,0,0,1,.81-4.55,6.79,6.79,0,0,1,1.82-3,5.17,5.17,0,0,1,.77-.61,8.82,8.82,0,0,1,.93-.48l1.69-.42.81-.2.85-.11c.56-.06,1.13-.15,1.71-.18l1.76,0a15.31,15.31,0,0,1,1.77.23,13.7,13.7,0,0,1,6.51,3.11,15,15,0,0,1,4.08,5.79,16,16,0,0,1,.14,11.8A11.44,11.44,0,0,1,242,225a17.32,17.32,0,0,1-9.76-1.7,31.59,31.59,0,0,1-6.77-4.32c2.25.41,5.19,1.42,7.94,1.88.68.18,1.36.21,2,.32.32,0,.62.12.92.14l.85.05a11.67,11.67,0,0,0,1.48.09,8.63,8.63,0,0,1,1.12.08,8.93,8.93,0,0,0,3.54-.45,8.64,8.64,0,0,0,1.6-.75,9.22,9.22,0,0,0,1.35-1.15,9.45,9.45,0,0,0,1.93-3,11.3,11.3,0,0,0,.53-1.74c.06-.29.13-.59.18-.88l.09-.9A12.58,12.58,0,0,0,243.47,201a11.88,11.88,0,0,0-5.78-1.71c-.5,0-1-.05-1.48,0l-1.45.15a11,11,0,0,0-1.41.27l-.7.15-.32.07a.84.84,0,0,0-.2.08c-1.38.6-2.1,2.14-2.52,3.8s-.62,3.41-.91,5.12a18.5,18.5,0,0,1-.66,2.8,6.67,6.67,0,0,1-1.71,2.88,3.34,3.34,0,0,1-2.77.75A6.56,6.56,0,0,1,222,214.89Z" transform="matrix(-1, 0, 0, 1, 380, 0)" /><path class="cls-2" d="M224,215.91c25.13-37.43-42-30.09-3.05,2.79" transform="matrix(-1, 0, 0, 1, 380, 0)" /><path d="M220.89,218.73c-.41,0-2.66-1.61-5-3.83a46,46,0,0,1-5.89-6.84,17,17,0,0,1-2.6-5.25,10.72,10.72,0,0,1,.06-6.53,10.44,10.44,0,0,1,4.26-5.27,14.09,14.09,0,0,1,6.12-2.08,13.08,13.08,0,0,1,10.38,3.27,10.74,10.74,0,0,1,2.87,4.76,13.35,13.35,0,0,1,.38,5.1,18.34,18.34,0,0,1-1.09,4.49,25.22,25.22,0,0,1-1.77,3.81,36.7,36.7,0,0,1-4.17,5.87c.36-2,1.19-4.74,1.81-7.21s1-4.67,1.33-5.78a9.78,9.78,0,0,0,0-6.52,7.8,7.8,0,0,0-4.4-4.31,11.12,11.12,0,0,0-11.37,1.79,7.24,7.24,0,0,0-2.35,4.6,10.67,10.67,0,0,0,.74,4.92,31.79,31.79,0,0,0,5,8.05C217,214,220.23,217.94,220.89,218.73Z" transform="matrix(-1, 0, 0, 1, 380, 0)" /><path class="cls-2" d="M227.77,219.64c37.9.33,2.66,45.76-5.47.75" transform="matrix(-1, 0, 0, 1, 380, 0)" /><path d="M222.33,220.39a4.14,4.14,0,0,1,.73,1.68c.3,1,.6,2.22,1.07,3.53a29.33,29.33,0,0,0,3.06,7c.42.63.91,1.21,1.35,1.84s1,1.11,1.54,1.68a9.87,9.87,0,0,0,3.66,2.19,6.13,6.13,0,0,0,3.88-.21,8.2,8.2,0,0,0,3.23-2.34,11,11,0,0,0,1.7-3,8.4,8.4,0,0,0,.42-3.26,7.47,7.47,0,0,0-3.2-5.26,20.45,20.45,0,0,0-6-2.74c-1.06-.23-2.08-.53-3.08-.72s-2-.34-2.88-.52a18.63,18.63,0,0,1,3-1,22.42,22.42,0,0,1,3.64-.39c2.46,0,4.89.63,6,1.44a12.43,12.43,0,0,1,5,5.77,10.43,10.43,0,0,1,.14,6.92,12.5,12.5,0,0,1-3.36,5.32,10.21,10.21,0,0,1-5.29,2.69,9,9,0,0,1-5.57-1l-1.16-.72a12.14,12.14,0,0,1-1-.84,12.83,12.83,0,0,1-1.76-1.86,23.82,23.82,0,0,1-4-8.14,16.23,16.23,0,0,1-.49-2.21,20.61,20.61,0,0,1-.31-2.44C222.37,222.19,222.33,220.83,222.33,220.39Z" transform="matrix(-1, 0, 0, 1, 380, 0)" /><path class="cls-3" d="M229.32,219.35c-14.85-23-8.34,23.4.05-.93" transform="matrix(-1, 0, 0, 1, 380, 0)" /><path d="M229.4,218.43c.25.23,0,1.55-.55,3a16.37,16.37,0,0,1-2.07,4,3.74,3.74,0,0,1-1.35,1.19,3,3,0,0,1-2.14.22,4.22,4.22,0,0,1-1.81-1.15,7.06,7.06,0,0,1-1-1.39,15.55,15.55,0,0,1-1.84-5.86,12.29,12.29,0,0,1-.06-2.65,9,9,0,0,1,.21-1.4,6.54,6.54,0,0,1,.59-1.58,3.58,3.58,0,0,1,3.49-2,4.46,4.46,0,0,1,1.88.63,7.88,7.88,0,0,1,1.1.83,13.78,13.78,0,0,1,2.61,3.49,19.59,19.59,0,0,1,1.39,3.24,14.86,14.86,0,0,1-3.6-1.67,8,8,0,0,1-2.23-1.73,6.74,6.74,0,0,0-.88-1.16,2.28,2.28,0,0,0-.23-.27.62.62,0,0,0-.31-.13.74.74,0,0,0-.63.4,4.21,4.21,0,0,0-.48,1.31,11.44,11.44,0,0,0,.51,5.79,8,8,0,0,0,1.16,2.26c.52.64.89.84,1.3.76a1.31,1.31,0,0,0,.56-.29,6.1,6.1,0,0,0,.65-.68,17.87,17.87,0,0,0,1.19-1.71C227.51,220.83,229.07,218.83,229.4,218.43Z" transform="matrix(-1, 0, 0, 1, 380, 0)" /></svg>