<svg xmlns="http://www.w3.org/2000/svg" style="enable-background:new 0 0 380 600;" version="1.1" viewBox="0 0 380 600" x="0px" y="0px" xml:space="preserve">
<style transform="matrix(-1, 0, 0, 1, 380, 0)" type="text/css">
  .st0{display:none;}
  .st1{display:inline;fill:#F2F6F7;}
  .st2{opacity:0.3;}
  .st3{fill:#F2DDC8;}
  .st4{fill:#EAD49D;}
  .st5{fill:#51E9F4;}
  .st6{fill:none;stroke:#000000;stroke-width:0.25;stroke-linecap:round;stroke-linejoin:round;stroke-miterlimit:10;}
  .st7{fill:#FF99AA;}
  .st8{fill:#FFD635;}
  .st9{fill:#FF4500;}
  .st10{fill:#FFFFFF;}
  .st11{fill:#1E2A3E;}
  .st12{fill:none;}
  .st13{opacity:0.5;}
  .st14{fill:#FFFFFE;}
  .st15{fill:#ffffff;}
  .st16{fill:#006489;}
  .st17{fill:#787C7E;}
  .st18{fill:#74675C;}
  .st19{fill:#1B2426;}
  .st20{fill:#F2F6F7;}
  .st21{fill:#B8C7CC;}
  .st22{fill:#3690EA;}
  .st23{fill:#2450A4;}
  .st24{fill:#A07E67;}
  .st25{opacity:0.4;}
  .st26{fill:#FFA800;}
  .st27{fill:#FF3881;}
  .st28{fill:#00CCC0;}
  .st29{fill:#F8E1FF;}
  .st30{fill:#C08D41;}
  .st31{fill:#C4A783;}
  .st32{fill:#7EED56;}
  .st33{fill:#00F4CB;}
  .st34{fill:#FFF9F3;}
  .st35{fill:#FFFDE1;}
  .st36{fill:#9C6926;}
  .st37{opacity:0.6;fill:#51E9F4;}
  .st38{fill:#242424;}
  .st39{fill:#FF6600;}
  .st40{fill:#3A200E;}
  .st41{fill:#D4D7D9;}
  .st42{fill:#634E3F;}
  .st43{fill:#D5B06F;}
  .st44{fill:#FFFF00;}
  .st45{fill:none;stroke:#232323;stroke-miterlimit:10;}
  .st46{fill:#121212;}
  .st47{fill:#464748;}
  .st48{fill:#FFF8B8;}
  .st49{fill:#009EAA;}
  .st50{fill:none;stroke:#000000;stroke-width:0.5;stroke-miterlimit:10;}
  .st51{fill:#FF9999;}
  .st52{opacity:0.8;fill:#51E9F4;}
  .st53{fill:#B9BDC0;}
  .st54{fill:#6D482F;}
  .st55{fill:#FFFFFB;}
  .st56{fill:#7A9299;}
  .st57{fill:#46D160;}
  .st58{fill:#232020;}
  .st59{fill:#BE0039;}
  .st60{fill:#E9EBED;}
  .st61{fill:#636769;}
  .st62{fill:#989CA0;}
  .st63{fill:#737577;}
  .st64{fill:#14D8C3;}
  .st65{fill:#6A5CFF;}
  .st66{fill:none;stroke:#000000;stroke-miterlimit:10;}
  .st67{display:inline;}
  .st68{fill:#E4ABFF;}
  .st69{fill:none;stroke:#000000;stroke-linecap:round;stroke-linejoin:round;stroke-miterlimit:10;}
  .st70{fill:#5349DA;}
  .st71{fill:#00CC78;}
  .st72{fill:#B44AC0;}
  .st73{fill:#811E9F;}
  .st74{fill:#FFE0C4;}
  .st75{fill:#94B3FF;}
  .st76{fill:#DEE6FF;}
  .st77{fill:#FCF0FF;}
  .st78{display:inline;fill:#FFE0C4;}
  .st79{fill:#FFFFFD;}
  .st80{fill:#FFB470;}
  .st81{fill:#FB133A;}
  .st82{fill:#866651;}
  .st83{fill:#CCFFEF;}
  .st84{fill:#EF4923;}
  .st85{fill:#3690EA;stroke:#000000;stroke-width:0.75;stroke-miterlimit:10;}
  .st86{fill:#231F20;}
  .st87{fill:none;stroke:#000000;stroke-width:1.4254;stroke-linecap:round;stroke-linejoin:round;stroke-miterlimit:10;}
  .st88{fill:none;stroke:#000000;stroke-width:0.75;stroke-miterlimit:10;}
  .st89{fill:none;stroke:#000000;stroke-width:1.1128;stroke-miterlimit:10;}
  .st90{fill:#FF4F00;}
  .st91{fill:none;stroke:#A3F0E7;stroke-miterlimit:10;}
  .st92{fill:none;stroke:#FF9A75;stroke-miterlimit:10;}
  .st93{opacity:0.6;}
  .st94{opacity:0.2;}
  .st95{fill:none;stroke:#000000;stroke-width:0.75;stroke-linecap:round;stroke-linejoin:round;stroke-miterlimit:10;}
  .st96{fill:#172E35;}
  .st97{opacity:0.8;}
  .st98{fill:#BA027D;}
  .st99{fill:#303030;}
  .st100{fill:#FFFFFF;stroke:#000000;stroke-linecap:round;stroke-linejoin:round;stroke-miterlimit:10;}
  .st101{fill:#515252;}
  .st102{fill:#F4F8F9;}
  .st103{fill:#00A368;}
  .st104{fill:#DEE5E8;}
  .st105{fill:#FF5F0E;}
  .st106{fill:#1B934B;}
  .st107{fill:#F2DE66;}
  .st108{opacity:0.7;}
  .st109{fill:#D7F7FF;}
  .st110{fill:#17945B;}
  .st111{fill:#282828;}
  .st112{fill:#353535;}
  .st113{fill:#00756F;}
  .st114{fill:none;stroke:#000000;stroke-width:0.7265;stroke-linecap:round;stroke-linejoin:round;stroke-miterlimit:10;}
  .st115{fill:none;stroke:#000000;stroke-width:0.7738;stroke-linecap:round;stroke-linejoin:round;stroke-miterlimit:10;}
  .st116{fill:#CCF5F6;}
  .st117{fill:#3A2619;}
  .st118{fill:#FF585B;}
  .st119{fill:#FFF2E9;}
  .st120{fill:#0C3744;}
  .st121{fill:#F0F4FF;}
  .st122{fill:#FFFAEE;}
  .st123{fill:none;stroke:#000000;stroke-width:0.45;stroke-miterlimit:10;}
  .st124{display:inline;fill:#FF99AA;}
  .st125{fill:#0000FF;}
  .st126{display:inline;opacity:0.8;}
  .st127{fill:none;stroke:#14D8C3;stroke-width:1.2124;stroke-linecap:round;stroke-linejoin:round;stroke-miterlimit:10;}
  .st128{fill:none;stroke:#14D8C3;stroke-width:1.38;stroke-linecap:round;stroke-linejoin:round;stroke-miterlimit:10;}
  .st129{fill:none;stroke:#14D8C3;stroke-width:1.4545;stroke-linecap:round;stroke-linejoin:round;stroke-miterlimit:10;}
  .st130{fill:none;stroke:#14D8C3;stroke-width:1.0129;stroke-linecap:round;stroke-linejoin:round;stroke-miterlimit:10;}
  .st131{display:inline;fill:none;stroke:#14D8C3;stroke-miterlimit:10;}
</style>
<g id="outfits_x5F_springbreak" transform="matrix(-1, 0, 0, 1, 380, 0)">
  <g>
    <g>
      <g>
        <path class="st27" d="M97.1,226.3c6.6-8.7,15.3-16.1,25.3-22.2c3-12.5,0.3-16-14.8-18.7c-10.8-1.7-23.9-2-33.2,4.6      c-6.5,5.3-2.3,9.4-2.1,15.7c-0.2,14.4-0.3,51.7,1.2,54.2c1.3,2.3,3.8,4.2,6.9,5.5C85,250.4,92,233.1,97.1,226.3z"></path>
        <g>
          <g>
            <path d="M97.2,226.3c-0.1,0.5-1.4,2.4-3,5.5c-1.6,3.1-3.4,7.2-5.3,11.8c-1.8,4.5-3.6,9.5-5.1,14c-0.4,1.1-0.7,2.2-1.1,3.3        c-0.4,1.2-0.7,2.3-1.1,3.4c-0.2,0.7-0.4,1.3-0.6,1.9l-0.1,0.5c-0.1,0-0.3-0.1-0.4-0.2c-0.3-0.1-0.6-0.3-0.9-0.4        c-0.6-0.3-1.2-0.5-1.7-0.8c-0.5-0.3-0.8-0.4-1.2-0.7c-1.5-1-3-2.1-4.2-4c-0.5-1-0.5-1.6-0.6-2.3c-0.1-0.7-0.2-1.3-0.2-2        c-0.1-1.3-0.2-2.6-0.3-3.9c-0.2-2.6-0.3-5.3-0.4-8c-0.2-5.4-0.3-10.8-0.4-16.3c-0.1-5.5-0.1-10.9-0.1-16.4c0-1.4,0-2.7,0-4.1        l0-2c0-0.6-0.1-1.1-0.2-1.7c-0.2-1.2-0.5-2.4-0.8-3.8c-0.3-1.3-0.6-2.8-0.5-4.5c0.1-1.6,0.7-3.2,1.6-4.4        c0.4-0.7,0.9-1.2,1.4-1.7c0.5-0.5,1.1-1,1.6-1.4c2.3-1.6,4.6-2.7,7.1-3.6c4.9-1.7,10.1-2.3,15-2.3c2.5,0,4.9,0.2,7.4,0.4        c2.4,0.3,4.8,0.6,7.1,1.1c2.3,0.5,4.7,1,7,1.9c1.1,0.5,2.3,1,3.4,1.7c0.6,0.3,1.1,0.8,1.6,1.2c0.5,0.5,1,1,1.4,1.6l0.6,0.9        c0.2,0.3,0.3,0.6,0.4,0.9c0.3,0.6,0.4,1.3,0.6,1.9c0.2,1.3,0.3,2.5,0.2,3.7c-0.1,1.2-0.2,2.3-0.5,3.4        c-0.1,0.6-0.2,1.1-0.3,1.6c-0.2,0.7-0.3,1.4-0.5,2.1c0,0.1,0,0.1-0.1,0.2l-0.2,0.1l-0.3,0.2l-0.6,0.4l-0.8,0.5        c-0.4,0.3-0.9,0.5-1.3,0.8c-0.9,0.5-1.7,1.1-2.6,1.6c-1.7,1.1-3.3,2.2-4.9,3.4c-6.3,4.6-11.5,9.7-15.6,14.6        c1.4-2.5,3.4-5.5,5.9-8.5c2.5-3,5.4-6,8.5-8.6c1.5-1.3,3.1-2.6,4.7-3.7c0.8-0.6,1.5-1.1,2.3-1.7c0.4-0.3,0.8-0.5,1.1-0.8        l0.6-0.4c0,0,0,0,0,0c0,0,0,0,0,0c0,0,0,0.1,0-0.2c0.1-0.4,0.2-0.8,0.2-1.1c0.1-0.7,0.2-1.4,0.3-2.1c0.1-0.6,0.1-1.2,0.2-1.8        c0-0.5,0.1-1,0.1-1.5c0-1.4-0.3-2.6-0.9-3.6c-0.6-1-1.6-1.9-2.8-2.6c-2.5-1.4-5.5-2.1-8.4-2.8c-5.9-1.3-11.8-1.9-17.5-1.7        c-5.7,0.3-11.3,1.6-15.8,4.4c-2.3,1.3-4.2,3.3-4.5,5.7c-0.4,2.4,0.7,5,1.1,7.6c0.2,1.3,0.3,2.8,0.2,4c0,1.3,0,2.6,0,3.9        c0,2.6,0,5.1,0,7.6c0,5,0.1,9.8,0.1,14.6c0.1,4.7,0.2,9.3,0.3,13.8c0.1,2.2,0.2,4.4,0.3,6.6c0.1,1.1,0.1,2.1,0.2,3.2        c0,0.5,0.1,1,0.2,1.5c0.1,0.5,0.2,1,0.3,1.2c0.9,1.6,2.5,2.9,4.1,3.8l0.4,0.2l0.3,0.2l0.3,0.1c0,0,0.1,0.1,0.1,0l0.1-0.2        c0.2-0.6,0.4-1.2,0.6-1.8c1.3-3.8,2.6-7.5,3.9-11c1.6-4.2,4.1-9.9,6.7-14.7C93.4,231.3,96.1,227.4,97.2,226.3z"></path>
          </g>
        </g>
      </g>
      <g>
        <path class="st83" d="M97.1,226.3c7.6-10.1,18.1-18.5,30.1-25c0.4-11.8,0.7-21.1,1-22.2c4-15.9,0.7-20.4-18.3-23.7      c-13.5-2.1-29.8-2.5-41.3,5.7c-8.1,6.6-2.8,11.7-2.6,19.6c-0.3,17.9-0.4,64.4,1.5,67.5c2.6,4.5,8.5,7.5,15.6,9.2      C87.4,244.7,92.9,231.9,97.1,226.3z"></path>
        <g>
          <g>
            <path d="M97.2,226.3c-0.1,0.6-1.7,3.1-3.6,7.2c-1.9,4-4.1,9.4-6.3,15.3c-0.5,1.5-1.1,3-1.6,4.5c-0.3,0.8-0.6,1.7-0.9,2.5        c-0.4,1-0.7,2.1-1.1,3.1c-1-0.2-2.1-0.5-3.1-0.8c-1.2-0.3-1.8-0.5-2.6-0.8c-1.6-0.5-3.1-1.2-4.5-1.9c-2.9-1.5-5.4-3.5-7.1-6        c-0.3-0.4-0.4-0.8-0.6-1.3c-0.1-0.4-0.2-0.8-0.2-1.1c-0.1-0.7-0.2-1.3-0.3-1.9c-0.2-1.2-0.3-2.3-0.4-3.3        c-0.7-7.1-1-14.4-1.3-21.8c-0.3-7.4-0.4-15-0.5-22.6c0-3.8-0.1-7.6-0.1-11.4c0-1.9,0-3.9,0-5.6c-0.1-1.5-0.5-3.2-0.9-5        c-0.4-1.8-1-3.8-1-6.3c0-0.6,0-1.2,0.2-1.9c0.1-0.3,0.1-0.6,0.2-1l0.3-0.9c0.4-1.2,1.1-2.3,1.7-3.3c0.3-0.5,0.7-0.9,1.1-1.3        c0.4-0.4,0.8-0.8,1.2-1.2c0.8-0.8,1.7-1.4,2.6-2c0.9-0.6,1.8-1.1,2.6-1.5c0.9-0.5,1.8-0.9,2.7-1.3c6.4-2.7,13.2-3.8,19.8-3.9        c3.3-0.1,6.6,0.1,9.8,0.4c1.6,0.1,3.2,0.3,4.8,0.6l2.4,0.4l2.4,0.5c3.1,0.6,6.2,1.3,9.4,2.5c0.8,0.3,1.6,0.7,2.4,1        c0.8,0.4,1.6,0.9,2.4,1.3c0.4,0.3,0.8,0.6,1.1,0.9c0.4,0.3,0.8,0.6,1.1,1l1,1.1c0.3,0.4,0.6,0.8,0.9,1.3        c0.6,0.8,0.9,1.8,1.3,2.7c0.2,0.5,0.2,0.9,0.3,1.4c0.1,0.5,0.2,0.9,0.2,1.4c0.2,1.8,0.1,3.5-0.1,5.1c-0.1,0.8-0.2,1.6-0.3,2.4        c-0.2,0.8-0.3,1.5-0.5,2.3c-0.2,0.7-0.4,1.5-0.5,2.2l-0.1,0.5l0,0.1l0,0.1l0,0c-3.9-1-0.7-0.2-1.5-0.3        c0.4,0.1,0.8,0.2,1.2,0.3c0.3,0.1,0.2,0,0.2,0l0,0l0,0c0,0.2-0.1,0.6-0.1,0.9c-0.2,2.7-0.4,5.6-0.5,8.4        c-0.2,2.8-0.3,5.5-0.5,8.3c-0.1,1.8-0.2,3.6-0.3,5.4c0,0.1-0.1,0.1-0.1,0.1l-0.2,0.1l-0.4,0.2l-0.8,0.4l-1.5,0.8        c-0.6,0.3-1.1,0.6-1.7,0.9c-2.3,1.2-4.4,2.5-6.5,3.8c-8.4,5.3-15.3,11.4-20.6,17.7c1.7-3.3,4.2-7.3,7.4-11.1        c3.2-3.9,7.2-7.6,11.3-10.9c2.1-1.6,4.2-3.2,6.3-4.5l0.8-0.5l0.4-0.2l0,0c0-0.1,0.1-0.1,0.1-0.2c0-0.1,0-0.2-0.1-0.3        c0-0.5,0-1.1,0-1.6c0-4.4,0.1-8.1,0.3-10.6c0.1-1.3,0.2-2.6,0.3-3.9l0.2-1.9l0.1-1c0-0.3,0.1-0.7,0.2-1.2l0.1-0.5l0.1-0.2        l0.1-0.4l0.2-0.9c0.2-0.6,0.3-1.2,0.5-1.7l0.4-1.7c0.1-0.6,0.2-1.1,0.3-1.7c0.3-2.2,0.3-4.4-0.3-6.1c-0.6-1.7-1.9-3.1-3.8-4.2        c-1.8-1.1-4-1.9-6.2-2.5c-2.2-0.7-4.5-1.2-6.7-1.6c-4.5-0.8-9.1-1.4-13.5-1.6c-4.5-0.1-8.9,0.1-13.1,0.9        c-4.2,0.8-8.2,2.2-11.8,4.2c-3.5,1.9-6.4,5-6.2,8.6c0.1,1.8,0.6,3.8,1.1,5.8c0.2,1,0.5,2,0.6,3.1c0.1,0.5,0.1,1.1,0.2,1.6        l0.1,0.8l0,0.8c-0.1,16,0.1,30.9,0.5,44.9c0.1,3.5,0.2,6.9,0.4,10.3c0.1,1.7,0.2,3.3,0.3,5c0.1,1.6,0.2,3.3,0.5,4.7        c0,0.4,0.1,0.7,0.2,0.9c0,0.2,0.1,0.3,0.4,0.6c0.4,0.6,0.8,1.1,1.3,1.6c1,1,2.1,1.9,3.4,2.6c1.2,0.8,2.6,1.4,3.9,1.9        c0.7,0.3,1.4,0.5,2.1,0.8l0.7,0.2l0.5,0.2c0.2,0,0.4,0.1,0.5,0.1c0.1,0.1,0.1-0.1,0.2-0.2l0.1-0.3c0.2-0.4,0.3-0.8,0.5-1.3        c0.6-1.6,1.3-3.2,2-4.8c1.4-3.3,3-6.7,4.6-9.8c1.6-3.1,3.2-5.9,4.6-8.2C95.3,228.6,96.5,227.1,97.2,226.3z"></path>
          </g>
        </g>
      </g>
      <g>
        <circle class="st83" cx="85.4" cy="213.7" r="4.9"></circle>
        <g>
          <g>
            <path class="st10" d="M90.3,213.7c-0.2-0.1-0.2-1.3-1-2.4c-0.4-0.5-0.9-1-1.4-1.3c-0.5-0.3-1.1-0.5-1.4-0.5        c-1.4-0.2-2.8,0.3-3.8,1.2c-1,1-1.4,2.4-1.1,3.7c0.2,1.1,0.9,2.1,1.8,2.6c0.9,0.6,2,0.8,3,0.6c1-0.2,1.9-0.7,2.5-1.4        c0.6-0.7,1-1.6,1.1-2.5c0.2,0.4,0.4,0.9,0.3,1.5c0,0.6-0.2,1.2-0.4,1.8c-0.6,1.2-1.7,2-2.3,2.1c-2.6,0.7-5.2-0.4-6.4-2.2        c-1.3-1.8-1.3-4-0.5-5.7c0.8-1.7,2.5-2.8,4.2-2.9c1.7-0.2,3.3,0.5,4.3,1.6c0.5,0.5,0.9,1.4,1.1,2.2        C90.4,212.8,90.3,213.5,90.3,213.7z"></path>
          </g>
        </g>
      </g>
      <g>
        <path class="st33" d="M97.1,226.3c6.3-8.4,14.6-15.5,24.1-21.4c0-5.1,0-8.9,0-9.9c0-4.5-11.2-8.1-25-8.1c-13.8,0-25,3.6-25,8.1      c0,3.7,0,46.7,0,50.4c0,3.1,5.5,5.9,13.5,7.2C88.8,241.5,93.4,231.2,97.1,226.3z"></path>
        <g>
          <g>
            <path class="st28" d="M97.2,226.3c-0.1,0.4-1.2,2.1-2.6,4.8c-1.4,2.7-3.1,6.3-4.7,10.3c-0.8,2-1.6,4-2.4,6.1        c-0.4,1-0.8,2.1-1.1,3.1c-0.2,0.6-0.5,1.3-0.7,1.9l-0.2,0.5l-0.1,0.2l0,0.1c0,0-0.1,0-0.1,0c-0.4-0.1-0.7-0.1-1.1-0.2        c-0.4-0.1-0.7-0.1-1.1-0.2c-0.3-0.1-0.5-0.1-0.8-0.2c-0.5-0.1-1-0.2-1.5-0.3c-1-0.2-1.9-0.5-2.8-0.8c-1.8-0.6-3.4-1.3-4.6-2        c-0.3-0.2-0.6-0.3-0.8-0.6c-0.3-0.2-0.5-0.4-0.8-0.7c-0.3-0.2-0.5-0.5-0.7-0.8c-0.2-0.3-0.4-0.7-0.5-1.1        c-0.2-0.4-0.2-0.8-0.3-1.3l0-0.9c0-0.6,0-1.2-0.1-1.9c-0.1-2.5-0.1-5-0.2-7.5c-0.1-5.1-0.2-10.3-0.3-15.5        c-0.1-5.2-0.1-10.4-0.2-15.6c0-2.6,0-5.1-0.1-7.7l0-1c0-0.2,0-0.3,0-0.5c0-0.3,0-0.5,0.1-0.8c0.2-1,0.7-1.9,1.3-2.5        c1.1-1.3,2.4-2,3.6-2.7c2.2-1.1,4.4-1.8,6.5-2.3c2.2-0.5,4.4-0.9,6.6-1.2c4.4-0.5,8.8-0.6,13.1-0.4c4.3,0.3,8.6,0.9,12.7,2.1        c2.1,0.6,4.1,1.4,6,2.6c1,0.6,1.9,1.4,2.7,2.5c0.4,0.6,0.7,1.3,0.8,2.1c0,0.2,0,0.4,0,0.6l0,0.4l0,0.7c0,2-0.1,3.9-0.1,5.8        c0,1.2,0,2.4-0.1,3.6c0,0.1,0,0.2,0,0.3l-0.3,0.2l-0.5,0.3l-1,0.6l-1.2,0.7c-3.1,1.9-6,4-8.7,6.1c-5.4,4.2-9.9,8.7-13.5,13        c2.3-4.5,7-10.6,12.3-15.4c2.6-2.4,5.4-4.6,7.8-6.4c0.5-0.4,1-0.7,1.5-1.1c0,0,0,0,0,0l0,0l0,0c0,0,0,0,0-0.1        c0-1.2,0-2.3,0-3.2c0.1-1.8,0.1-3.5,0.2-5.2l0-0.3c0,0,0-0.1,0-0.1c0-0.1,0-0.2,0-0.3c0-0.2-0.2-0.4-0.3-0.6        c-0.3-0.5-0.9-0.9-1.5-1.4c-1.2-0.8-2.7-1.5-4.2-2c-1.5-0.5-3.1-1-4.7-1.3c-6.3-1.4-12.7-1.6-18.9-1.2        c-3.1,0.2-6.1,0.7-8.9,1.4c-1.4,0.4-2.8,0.8-4.2,1.3c-1.3,0.5-2.6,1.2-3.6,2.1c-0.5,0.4-0.9,0.9-1.1,1.4        c-0.1,0.3-0.1,0.5-0.1,0.8l0,1.1c0,1.4,0,2.9,0,4.3c0,2.8,0,5.6,0,8.3c0.1,10.9,0.2,21.2,0.3,30.7c0,1.2,0,2.4,0,3.6        c0,0.6,0,1.2,0,1.8c0,0.7,0,0.9,0.2,1.3c0.3,0.7,1.1,1.4,2,2c0.9,0.6,1.8,1,2.8,1.4c2,0.8,4.1,1.3,6.1,1.8        c0.2,0,0.5,0.1,0.7,0.1l0.3-0.9c0.4-0.9,0.7-1.8,1.1-2.7c1.5-3.7,3.8-8.6,6.1-12.8c1.1-2.1,2.3-4,3.3-5.5        C95.8,227.9,96.7,226.8,97.2,226.3z"></path>
          </g>
        </g>
      </g>
      <g>
        <g>
          <g>
            <path class="st28" d="M121.2,167.9c-0.1-0.1-0.1-0.5-0.4-0.9c-0.2-0.4-0.6-1-1.3-1.5c-1.3-1.1-3.4-2-5.7-2.7        c-4.6-1.4-10.2-1.9-13.3-1.9c-5.4,0-11.3,0.4-16.9,1.7c-2.8,0.6-5.6,1.5-7.9,2.7c-1.1,0.6-2.1,1.5-2.4,2.1        c-0.2,0.3-0.1,0.5-0.1,0.7c0.1,0.2,0.3,0.6,0.7,0.9c0.6,0.6,1.6,1.2,2.6,1.6c1,0.5,2.1,0.9,3.2,1.2c2.2,0.7,4.5,1.1,6.9,1.5        c4.6,0.7,9.3,0.9,13.7,0.8c4.4-0.1,8.6-0.6,12.3-1.4c1.9-0.4,3.6-1,5.1-1.7c1.5-0.7,2.8-1.8,3-3.1c0.2,0.6,0.1,1.4-0.3,2.2        c-0.4,0.8-1.1,1.5-1.9,2.2c-1.6,1.3-3.5,2.3-5.5,3.1c-3.9,1.6-7.8,2.2-9.9,2.3c-4.2,0.1-8.1-0.1-12-0.6        c-3.8-0.4-7.5-1.1-11-2.1c-1.7-0.5-3.5-1.1-5.1-1.9c-0.8-0.4-1.6-0.9-2.3-1.5c-0.7-0.6-1.4-1.3-1.8-2.2        c-0.2-0.5-0.3-1-0.3-1.5c0-0.5,0.2-1.1,0.4-1.5c0.4-0.9,1.1-1.6,1.8-2.1c1.4-1.1,2.9-1.8,4.4-2.4c3-1.2,6-1.8,9-2.3        c2.9-0.5,5.8-0.7,8.6-0.8c5.6-0.2,10.8,0.2,15.5,1.4c2.3,0.5,5.3,1.6,7.7,3.1c1.2,0.8,2.2,1.7,2.8,2.6        C121.2,166.6,121.2,167.5,121.2,167.9z"></path>
          </g>
        </g>
      </g>
      <g>
        <g>
          <g>
            <path class="st10" d="M71.3,194.9c0.1,0.1,0.2,0.7,0.7,1.3c0.4,0.7,1.3,1.4,2.3,2c2.1,1.2,4.8,1.9,6.3,2.2        c5.3,0.9,11.5,1.3,17.1,1.1c4.9-0.2,9.7-0.7,14-1.6c2.1-0.5,4.1-1.1,5.8-1.8c1.7-0.8,3.1-1.8,3.3-3.2c0.3,0.6,0.2,1.7-0.3,2.6        c-0.5,0.9-1.3,1.8-2.2,2.4c-1.7,1.3-3.6,2.1-4.7,2.3c-4.1,0.8-8,1-11.6,1.2c-3.6,0.2-7,0.2-10.1,0c-3.2-0.1-6.1-0.4-8.9-0.9        c-2.7-0.5-5.3-1.2-7.5-2.3c-1.1-0.5-2.4-1.4-3.4-2.6c-0.5-0.6-0.8-1.2-0.9-1.7C71.2,195.5,71.3,195,71.3,194.9z"></path>
          </g>
        </g>
      </g>
      <g>
        <circle class="st83" cx="83" cy="213" r="2.7"></circle>
        <g>
          <g>
            <path class="st10" d="M85.7,213c-0.2-0.1-0.2-0.7-0.6-1.2c-0.4-0.6-1.1-0.9-1.5-0.9c-0.7,0-1.4,0.3-1.8,0.7        c-0.4,0.5-0.6,1.1-0.4,1.7c0.2,1,1.2,1.6,2.1,1.5c0.9-0.1,1.7-0.9,2-1.8c0.4,0.4,0.6,1.3,0.3,2c-0.3,0.8-1,1.3-1.4,1.4        c-1.7,0.3-3.2-0.4-3.8-1.5c-0.7-1.1-0.8-2.4-0.3-3.4c0.5-1,1.5-1.7,2.5-1.8c1-0.1,2,0.3,2.6,0.9c0.3,0.3,0.5,0.8,0.5,1.3        C85.9,212.5,85.7,212.8,85.7,213z"></path>
          </g>
        </g>
      </g>
      <g>
        <circle class="st83" cx="82.8" cy="236.2" r="4.1"></circle>
        <g>
          <g>
            <path class="st10" d="M86.9,236.2c-0.2-0.1-0.2-1.1-0.8-2c-0.6-0.9-1.7-1.5-2.3-1.5c-1.1-0.1-2.3,0.3-3.1,1.1        c-0.8,0.8-1.1,2-0.9,2.9c0.2,0.9,0.7,1.6,1.4,2.1c0.7,0.5,1.6,0.6,2.4,0.5c1.7-0.2,2.8-1.7,3.1-3.1c0.4,0.6,0.6,1.8,0.1,2.9        c-0.5,1-1.4,1.7-2,1.9c-2.3,0.6-4.4-0.4-5.5-1.9c-1.1-1.5-1.1-3.4-0.4-4.9c0.7-1.4,2.1-2.4,3.6-2.5c1.4-0.2,2.8,0.4,3.7,1.3        c0.4,0.4,0.8,1.2,0.9,1.9C87,235.5,86.9,236.1,86.9,236.2z"></path>
          </g>
        </g>
      </g>
      <g>
        <circle class="st83" cx="101.6" cy="196.7" r="2.7"></circle>
        <g>
          <g>
            <path class="st10" d="M104.3,196.7c-0.2-0.1-0.2-0.7-0.6-1.2c-0.4-0.6-1.1-0.9-1.5-0.9c-0.7,0-1.4,0.3-1.8,0.7        c-0.4,0.5-0.6,1.1-0.4,1.7c0.2,1,1.2,1.6,2.1,1.5c0.9-0.1,1.7-0.9,2-1.8c0.4,0.4,0.6,1.3,0.3,2c-0.3,0.8-1,1.3-1.4,1.4        c-1.7,0.3-3.2-0.4-3.8-1.5c-0.7-1.1-0.8-2.4-0.3-3.4c0.5-1,1.5-1.7,2.5-1.8c1-0.1,2,0.3,2.6,0.9c0.3,0.3,0.5,0.8,0.5,1.3        C104.5,196.2,104.4,196.6,104.3,196.7z"></path>
          </g>
        </g>
      </g>
      <g>
        <g>
          <g>
            <path class="st10" d="M79.3,252.1c-0.3,0-1.4-0.6-3.1-1.7c-0.8-0.6-1.7-1.3-2.5-2.4c-0.8-1.1-1.2-2.7-1.2-4.1        c-0.3-5.4-0.3-11.6-0.6-15.1c-0.8-12.1-0.8-26-1.6-38.4c-0.2-2.7-0.4-5.4-0.7-8c-0.1-0.7-0.1-1.2-0.2-1.8        c-0.1-0.6-0.2-1.1-0.4-1.7c-0.3-1.2-0.7-2.5-1.1-3.9c-0.3-1.4-0.6-3-0.6-4.7c0-0.9,0.2-1.8,0.4-2.6c0.1-0.4,0.3-0.8,0.4-1.3        c0.1-0.3,0.3-0.5,0.4-0.8c0.1-0.2,0.3-0.4,0.5-0.7c1.2-1.5,2.5-2.3,3.8-3.1c1.2-0.7,2.5-1.3,3.7-1.8c5-1.9,9.9-2.7,14.5-2.8        c4.6-0.1,8.8,0.6,12.3,1.9c-3.5,0.4-8.1,1.1-12.3,2.2c-4.2,1.1-7.8,2.5-9.8,2.9c-2,0.5-4,1.1-5.7,2c-0.8,0.4-1.6,0.9-2.2,1.4        c-0.3,0.2-0.5,0.5-0.6,0.6c-0.2,0.3-0.3,0.7-0.4,1.1c-0.4,1.5-0.2,3.4,0.3,5.3c0.4,1.9,1,3.9,1.3,6c0.6,8,0.8,15.3,1,22.2        c0.3,13.8,0.5,25.8,0.1,36.3c0,1.2-0.1,2.7-0.2,4.3c-0.1,0.8-0.1,1.5-0.1,2.1c0.1,0.6,0.3,1.3,0.6,1.9c0.6,1.2,1.6,2.2,2.4,3        C78.4,251.2,79,251.8,79.3,252.1z"></path>
          </g>
        </g>
      </g>
      <g>
        <g class="st2">
          <g>
            <path d="M117.6,203.9c-1.4-0.2-1.3-4.5-2.1-6.1c-1.4-2.9-1.7-6.2-2-9.2c-0.6-5.2,0.7-10.3,3.1-13.7c3.6,1.5,6.1,4.5,5.5,5.5        c-5.2,8.4-1,14.8-2.2,19.8C119.8,201.5,118.1,203.5,117.6,203.9z M114.8,191.5L114.8,191.5"></path>
          </g>
        </g>
      </g>
      <g>
        <path class="st32" d="M97.1,226.3c2.2-2.9,4.6-5.7,7.3-8.3c-15.3,1.7-33.5-2.4-40.6-13c0.2,5.2,0.1,15.9,0.3,21      c7.1,5.7,17.4,8.9,27.7,9.7C93.6,231.7,95.5,228.5,97.1,226.3z"></path>
        <g>
          <g>
            <path d="M97.2,226.3c0,0.3-0.7,1.3-1.5,2.9c-0.4,0.8-0.9,1.7-1.4,2.8c-0.3,0.5-0.5,1.1-0.8,1.6c-0.3,0.6-0.6,1.3-0.9,1.9        l-0.3,0.6c0,0,0,0.1-0.1,0.1l-0.2,0l-0.3,0c-0.4,0-0.9-0.1-1.3-0.1c-0.7,0-1.3-0.1-2-0.2c-1.3-0.1-2.7-0.3-4-0.5        c-2.5-0.4-4.8-1-6.5-1.4c-2.9-0.7-5.8-1.7-8.7-3.1c-1.4-0.7-2.9-1.5-4.2-2.4c-0.3-0.2-0.7-0.4-1-0.7l-0.7-0.6l-0.4-0.3        l-0.2-0.2c-0.1-0.1-0.2-0.1-0.1-0.2l-0.1-3.1c-0.1-3.2-0.2-6.3-0.2-9.4c0-1.9-0.1-3.7-0.1-5.6c-0.1-3-0.3-6.2-0.4-9.2        c0-0.1,0-0.3,0-0.4c1.3,1.7,2.6,3.5,4.1,5.2l2.2,2.6c0.2,0.2,0.3,0.4,0.6,0.6l0.3,0.3l0.5,0.4c1.4,1.2,3,2.2,4.6,3.1        c3.2,1.8,6.8,3,10.3,3.9c3.5,0.9,7,1.4,10.4,1.7c0.8,0.1,1.7,0.1,2.5,0.2c0.4,0,0.8,0,1.2,0.1c0.2,0,0.4,0,0.6,0l0.8,0        c1.4,0,2.9-0.1,4.2-0.2c1.3-0.1,2.6-0.1,3.8-0.2c-1.3,1.2-2.5,2.4-3.8,3.6c-0.5,0.5-1.1,1.1-1.6,1.6c-0.4,0.4-0.8,0.8-1.2,1.2        c-1.3,1.3-2.5,2.6-3.5,3.8c0.6-1.4,1.4-3,2.4-4.6c0.6-0.9,0.8-1.4,1-1.8c0.2-0.4,0.2-0.6,0.2-0.7c-0.7,0.2-1.1,0.3-1.4,0.4        c-0.1,0.1-0.2,0.1-0.3,0.1l0,0l-0.1,0l-0.2,0l-0.4,0c-0.3,0-0.5,0-0.8,0c-1,0-2,0.1-2.8,0.1c-0.8,0-1.6-0.1-2.1-0.2        c-6.1-0.9-11.9-2.4-17-4.7c-2.5-1.2-5-2.5-7.1-4.2c-0.6-0.4-1.1-0.8-1.6-1.3l-0.7-0.6c-0.1-0.1-0.3-0.3-0.4-0.4        c-0.3-0.3-0.5-0.6-0.8-0.9c-0.2-0.3-0.5-0.6-0.7-0.9l-0.1-0.1c0,0,0-0.1,0,0l0,0.1l0,0.3l0,0.5c0,0.4,0,0.7,0,1.1        c0,0.8,0,1.7,0,2.5c0,2.2,0.1,4.4,0.1,6.6c0,2.1,0.1,4.2,0.1,6.3c0,0.4,0,0.8,0,1.1c0,0.1,0.2,0.2,0.3,0.3l0.5,0.3        c0.8,0.6,1.6,1.1,2.4,1.6c3.3,2,6.7,3.3,10.1,4.3c3.4,1,6.7,1.7,9.8,2.3c0.6,0.1,1.2,0.2,1.9,0.3c0.2,0,0.3,0,0.5,0.1l0.3,0.1        l0.3,0.1c0.1,0,0.2,0.1,0.3,0l0.3-0.5l0.6-1c0.4-0.6,0.8-1.3,1.2-1.9C95,228.8,96.6,226.9,97.2,226.3z"></path>
          </g>
        </g>
      </g>
      <g>
        <g>
          <g>
            <path class="st10" d="M123.3,163.8c0.2,0,0.5,0.3,0.8,0.9c0.3,0.6,0.6,1.4,0.6,2.4c0.2,1.9-0.6,4-1.1,5.1        c-0.4,1-1.1,2-1.8,2.8c-0.8,0.8-1.7,1.6-2.7,2.2c-2,1.2-4.2,2-6.2,2.5c-3.5,1-7.2,1.4-10.4,1.3c-3.3-0.1-6.2-0.6-8.5-1.4        c1.1-0.7,2.7-1.3,4.1-1.7c1.4-0.4,2.7-0.7,3.4-0.5c2.8,0.5,5.4,0.5,7.9,0.2c2.5-0.3,4.8-0.8,6.7-1.7c2-0.8,3.6-2,4.7-3.3        c1.1-1.3,1.8-2.8,2.2-4.2c0.2-0.7,0.4-1.6,0.5-2.6C123.6,165,123.4,164.1,123.3,163.8z"></path>
          </g>
        </g>
      </g>
    </g>
    <g>
      <path class="st22" d="M294.9,286.9c-1.7,27.2-11.3,54.1-26.9,75.8c-2.2,3.1-4.6,6.1-7.4,8.7c-7.5,6.9-17.2,9.9-26.6,12.1     c-8.5,1.9-17,3.4-25.6,3.5c-7.1,0.1-14.1-0.7-21.1-1.4c-8.5-0.9-17-1.9-25.5-3.2c-13.8-2.1-27.5-5.3-40.3-11     c-11.8-5.3-23.6-14-26.8-27.6c-0.3-1.4-0.5-2.8-0.7-4.2c-2.1-2.4-4-5.1-5.9-7.8c-2.5-3.7-4.6-8.2-6.3-12.9c0,1.3,0,2.7,0,4     c-0.1,7.9-0.2,15.9,1.6,23.4c4.1,17.2,17.5,30,32.4,36.8c14.9,6.9,31.3,8.8,47.4,11c20.1,2.8,40.4,6.4,60.7,4.2     c20.3-2.2,41.2-10.8,54.5-28.2c6.1-8,10.4-17.4,13.9-27.1c6.4-17.7,10.4-36.4,11.9-55.2L294.9,286.9z"></path>
      <g>
        <g>
          <path d="M294.9,286.9c0.4,0,1.5,0.1,3.1,0.2c1.7,0.1,3.9,0.3,6.6,0.6c-0.1,0.9-0.1,1.8-0.2,2.8c-0.1,0.9-0.2,1.8-0.2,2.8       c-0.2,2-0.4,4.1-0.7,6.3c-0.6,4.5-1.3,9.5-2.4,14.8c-2.1,10.6-5.5,22.6-10,34.2c-2.3,5.8-5,11.6-8.3,16.8       c-1.6,2.6-3.4,5.1-5.4,7.4c-1.9,2.3-4,4.5-6.1,6.4c-4.2,3.9-8.8,7.1-13.1,9.5c-4.4,2.5-8.5,4.2-12.1,5.6       c-3.8,1.5-7.8,2.6-11.9,3.5c-4.1,0.9-8.2,1.6-12.5,1.9c-8.4,0.8-17,0.6-25.6-0.1c-8.6-0.7-17.2-1.9-25.8-3.1       c-8.6-1.2-17.3-2.2-26-3.7c-8.7-1.5-17.5-3.5-25.8-6.9c-8.3-3.3-16.1-8.3-22.5-14.6c-6.4-6.3-11.3-14.2-13.7-22.8       c-1.3-4.3-1.8-8.7-2.1-13c-0.3-4.3-0.2-8.6-0.2-12.8c0-1.3,0-2.7,0-3.9l3.8-0.6c1.2,3.3,2.6,6.6,4.3,9.6c1.7,3,3.8,5.9,6,8.7       l0.8,1l0.5,0.6l0.4,0.5l0.1,0.1l0,0.2l0.1,0.3l0.5,2.9l0.2,1.3l0.3,1.2c0.1,0.4,0.2,0.8,0.4,1.2l0.4,1.2c1.2,3.2,3,6.1,5.1,8.7       c4.4,5.2,10.2,9.2,16.3,12.4c6.2,3.1,12.8,5.5,19.5,7.4c13.4,3.8,27.1,5.7,40.6,7.3c6.8,0.8,13.5,1.6,20.1,2.1       c6.6,0.5,13.1,0.4,19.5-0.4c6.4-0.8,12.7-2.1,18.8-3.6c6.1-1.6,11.9-3.6,16.9-6.9c2.5-1.6,4.8-3.5,6.8-5.6       c2-2.1,3.8-4.5,5.6-6.9c3.5-4.8,6.6-9.7,9.3-14.8c2.8-5,5.2-10.1,7.3-15.2c2.1-5.1,3.8-10.2,5.3-15.2c1.5-5,2.6-10.1,3.5-15       c0.9-4.9,1.5-9.7,1.9-14.4c-0.1,4.3-0.3,9.1-1,14.2c-0.7,5.1-1.6,10.5-3,16.1c-2.8,11.1-7.1,22.7-12.9,33.3       c-2.9,5.3-6.1,10.3-9.4,15c-1.7,2.3-3.5,4.5-5.5,6.5c-2,2-4.2,3.7-6.4,5.1c-4.4,2.9-9,4.6-13,5.9c-4,1.3-7.6,2.1-10.5,2.7       c-8.1,1.7-16.4,2.9-24.6,2.9c-8.2,0-16.2-1.1-24-2c-15.6-1.9-31.1-3.9-45.7-8.1c-7.3-2.1-14.4-4.7-21-8.1       c-6.6-3.4-12.8-7.9-17.3-13.8c-2.3-2.9-4.1-6.2-5.2-9.7c-0.3-0.9-0.5-1.8-0.8-2.6c-0.2-0.9-0.3-1.8-0.5-2.7l-0.2-1.3l-0.1-0.4       l-0.3-0.3c-0.6-0.7-1.1-1.4-1.7-2.1c-2.2-2.8-4.2-5.7-5.9-8.8c-1.7-3.1-3.1-6.3-4.3-9.6l1.5-0.3c-0.1,6.6-0.3,13.1,0.3,19.4       c0.3,3.2,0.8,6.3,1.6,9.3c0.4,1.5,0.9,3,1.4,4.4c0.3,0.7,0.6,1.4,0.9,2.1l0.5,1.1l0.5,1c2.8,5.5,6.6,10.4,11,14.6       c4.4,4.2,9.4,7.6,14.7,10.3c10.7,5.4,22.3,7.9,33.6,9.8c5.7,0.9,11.3,1.6,16.9,2.4c5.6,0.8,11.1,1.6,16.6,2.3       c10.9,1.4,21.6,2.5,32.1,2.3c10.5-0.2,20.7-1.6,30.1-4.7c9.5-3.1,18.2-7.8,25.4-14c3.6-3.1,6.8-6.5,9.7-10.2       c2.8-3.7,5.2-7.6,7.2-11.7c5.2-10.2,10.2-24.5,13.5-37.9c1.7-6.7,2.9-13.1,3.8-18.6c0.4-2.7,0.8-5.3,1.1-7.5       c0.1-1.1,0.3-2.1,0.4-3.1c0.1-0.9,0.2-1.7,0.3-2.4C298.1,287.2,296.1,287,294.9,286.9z"></path>
        </g>
      </g>
    </g>
    <g>
      <path class="st22" d="M105.6,223.4c9.6-27.9,35.6-64.6,82.1-67.2c54.8-4.3,97.9,18.7,111.9,67.2c-49.9,30.5-33,32.6-91.5,9.1     C174.3,224.5,140.4,216.8,105.6,223.4z"></path>
      <g>
        <g>
          <path d="M105.6,223.4c0.9-0.4,5.6-1.6,12.9-2.6c7.2-0.9,16.9-1.3,27.2-0.7c10.3,0.6,21.2,2.1,31.1,3.9c9.9,1.8,18.8,3.7,25.1,5       c1.4,0.3,2.8,0.6,4.2,0.9l2.1,0.4c0.2,0,0.5,0.1,0.8,0.2l0.6,0.2l1,0.4c2.7,1,5.5,2.1,8.2,3.1c5.5,2.1,11.1,4.3,16.7,6.4       c2.8,1,5.6,2,8.4,2.9c2.8,0.9,5.6,1.6,8.3,1.8c2.7,0.2,5.2-0.1,7.7-1.1c2.5-0.9,5.1-2.4,7.6-4c5.1-3.2,10.2-6.8,15.3-10.3       c2.6-1.7,5.2-3.5,7.8-5.1l3.9-2.5l0.4-0.3l0,0l0.1-0.1l0.1-0.1c0,0,0-0.1,0-0.1l0-0.1l0,0c0,0,0,0-0.1-0.2       c-0.2-0.7-0.4-1.4-0.7-2.1c-0.5-1.4-1-2.8-1.6-4.1c-1.1-2.7-2.3-5.4-3.7-8c-2.7-5.1-5.9-10-9.4-14.3       c-6.3-7.7-13.9-14.1-22.3-19.1c-8.5-5-17.7-8.5-27.1-10.8c-4.7-1.1-9.5-1.9-14.3-2.5c-4.8-0.6-9.6-0.8-14.3-0.9       c-4.7-0.1-9.5,0.1-14.2,0.4c-4.7,0.2-9.1,0.8-13.5,1.7c-4.4,0.9-8.6,2.2-12.7,3.8c-4.1,1.6-8,3.5-11.6,5.7       c-7.3,4.3-13.9,9.6-19.4,15.4c-11.2,11.6-18.8,24.9-23.7,37.3c1.2-5.9,3.4-13.1,6.9-20.5c3.5-7.4,8.2-14.9,13.8-21.5       c2.8-3.3,5.8-6.4,8.9-9.1c3.1-2.8,6.3-5.1,9.4-7.2c6.2-4.1,12.1-6.7,16.2-8c4.2-1.3,8.4-2.4,12.6-3.1c4.2-0.7,8.5-1.1,12.6-1.3       c8.2-0.4,16.4-0.3,24.4,0.5c16,1.5,31.2,5.7,44.6,12.8c6.6,3.6,12.8,7.8,18.2,12.7c5.4,4.9,10.2,10.3,14.1,16.2       c3.9,5.9,7.1,12.1,9.7,18.4c0.6,1.6,1.2,3.2,1.8,4.8c0.3,0.9,0.6,1.9,0.9,2.8l0.5,1.7l0.3,0.8l0.1,0.2l0,0.1c0,0-0.1,0-0.1,0.1       l-0.4,0.2c-1.7,1.1-3.4,2.1-5.1,3.2c-1.4,0.9-2.8,1.8-4.1,2.6c-5.5,3.5-10.7,7.1-16,10.7c-2.6,1.8-5.3,3.5-8,5.1       c-2.8,1.6-5.7,3.1-8.9,3.8c-3.3,0.8-6.7,0.7-9.8,0.1c-3.1-0.6-6-1.4-8.9-2.4c-5.7-1.9-11-4.1-16.3-6.2       c-5.3-2.1-10.5-4.2-15.6-6.3l-0.9-0.4c-0.1,0-0.1,0-0.3-0.1l-0.5-0.1l-2-0.5c-1.3-0.3-2.6-0.6-4-0.9c-2.6-0.6-5.2-1.2-7.8-1.8       c-10.3-2.3-20.3-4.4-30.1-6c-9.2-1.4-21.9-3.1-33.2-3.2c-1.4,0-2.8,0-4.1,0c-1.3,0-2.7,0.1-3.9,0.1c-1.3,0-2.5,0-3.7,0.1       c-1.2,0.1-2.3,0.2-3.4,0.2c-2.1,0.1-4,0.3-5.5,0.5C107.6,223.2,106.4,223.3,105.6,223.4z"></path>
        </g>
      </g>
    </g>
    <g>
      <path class="st10" d="M119,210.2c2.1-57.9,90.3-67.3,122.1-27.5c12.9,18.3,10.4,42.6,8.2,63.7c-40.4-21.7-87.4-21.1-131.9-25.7"></path>
      <g>
        <g>
          <path d="M117.4,220.7c0.7-0.1,4.5,0.2,10.1,0.6c5.6,0.4,13,0.9,21,1.5c7.9,0.6,16.4,1.2,24.2,2.1c3.9,0.4,7.6,0.8,10.9,1.2       c3.3,0.4,6.3,0.9,8.8,1.2c8.8,1.3,17.9,3.1,27,5.6c9.1,2.5,18.2,5.9,26.9,10.2c1.5,0.7,1.1,0.6,1.4,0.7l0.1,0c0,0,0,0,0-0.1       l0-0.2l0-0.1l0-0.3c0.2-2.4,0.4-4.8,0.6-7.2c0.4-4.8,0.7-9.5,0.7-14.2c0-9.4-0.9-18.7-4.1-27.1c-0.3-0.9-0.7-1.8-1.1-2.7       l-0.6-1.3l-0.7-1.3c-0.5-0.8-0.9-1.7-1.4-2.5l-1.5-2.4l-0.4-0.6c-0.1-0.2-0.3-0.4-0.5-0.5l-0.9-1.1c-0.6-0.7-1.2-1.4-1.9-2.1       l-2.1-2c-0.4-0.3-0.7-0.7-1.1-1l-1.1-0.9c-5.9-4.9-12.8-8.6-20-11.1c-7.2-2.5-14.6-4-22-4.6c-7.4-0.6-14.7-0.2-21.7,1.1       c-14,2.5-26.7,8.6-35.4,17.6c-4.4,4.5-7.6,9.6-9.8,15c-2.1,5.3-3.2,10.8-3.6,16c-0.1-4.6,0.2-10.5,2.2-16.5       c1.9-6,5.4-12.1,10-17c4.5-5,9.9-8.8,14.9-11.5c2.5-1.4,4.9-2.4,7.1-3.3c1.1-0.4,2.1-0.7,3.1-1.1c1-0.3,1.8-0.6,2.6-0.8       c12.9-3.5,26-3.8,38.2-1.7c6.1,1,12,2.6,17.6,4.9c5.6,2.2,10.8,5,15.5,8.5c2.3,1.8,4.6,3.6,6.6,5.6c0.5,0.5,1.1,1,1.5,1.5       l1.4,1.6l1.4,1.6c0.4,0.6,0.8,1.2,1.2,1.8c3.1,4.8,5.2,10,6.6,15.3c2.7,10.6,2.7,21.3,2.1,31.4c-0.2,2.5-0.3,5-0.6,7.5       c-0.3,2.7-0.5,5.5-0.8,8.2l-0.1,1.3c0.1,0.4-0.2,0.1-0.4,0l-0.6-0.3l-2.4-1.2c-1.1-0.6-2.2-1.1-3.4-1.7c-2.1-1.1-4.3-2-6.5-2.9       c-8.7-3.6-17.4-6.4-25.9-8.4c-17.1-4.1-33.5-6-48.8-7.5c-7.3-0.7-17.2-1.7-26-2.6C127.4,222,119.9,221,117.4,220.7z"></path>
        </g>
      </g>
    </g>
    <g>
      <path class="st84" d="M170.4,206.6c0.5-6.4,3-17,2-16.5c-1.5-0.2-8.1-0.9-10.1-1.4c-5.1-1.4,19.5-19.3,22.3-17.1     c6.8,5.2,16,17.3,16.9,21.5c0,0.2,0,0.3,0,0.5c0,0.2,0,0.4-0.2,0.5c-0.1,0.1-0.4,0.2-0.6,0.2c-1.4,0.1-8.4-1.2-10.5-1     c-0.3,0-0.7,0.1-0.9,0.3c-0.2,0.2-0.3,0.9-0.4,1.2c-0.3,1.3-1.6,15.7-1.9,15.7c-6.8-0.8-9.3-1.5-15.5-2.3"></path>
    </g>
    <g>
      <path class="st22" d="M103.3,228.3c0,0-41.7-24.1-17.9-32.2c23.8-8.1,64.7-5.9,93,0.6c34.7,8.1,52.3,25,68.1,49.8     c0,0-42.9-15.9-91.2-20.4C98.7,220.7,103.3,228.3,103.3,228.3z"></path>
      <g>
        <g>
          <path d="M103.3,228.3c-0.2-0.1-0.3-0.7,0-1.2c0.3-0.6,1-1.1,1.9-1.5c1.7-0.8,4.2-1.3,7.2-1.7c5.9-0.7,13.8-0.7,22.2-0.4       c4.2,0.2,8.5,0.4,12.8,0.7c4.3,0.3,8.6,0.7,12.6,1.1c8.2,0.8,15.5,1.9,20.8,2.6c10.7,1.6,21.7,3.7,32.9,6.4       c5.6,1.4,11.2,2.8,16.8,4.4c2.8,0.8,5.6,1.6,8.4,2.5l1.4,0.4c0.1,0,0,0,0-0.1l-0.1-0.1l-0.2-0.2l-0.3-0.4l-0.1-0.2       c-0.1-0.1,0,0.1-0.4-0.5c-0.6-0.9-1.2-1.7-1.9-2.5l-1.9-2.5l-2-2.4c-1.3-1.6-2.7-3.1-4.1-4.7c-5.6-6.1-11.9-11.3-18.7-15.4       c-6.9-4.3-14.5-7.6-22.3-10c-7.8-2.5-15.8-4.2-23.8-5.5c-16-2.6-31.8-3.8-46.9-3.4c-7.5,0.2-14.8,0.8-21.8,2.1       c-1.7,0.4-3.4,0.7-5.1,1.1c-1.6,0.5-3.3,0.9-4.9,1.4c-1.5,0.5-2.9,1.1-4,2c-1.1,0.8-1.7,1.8-1.8,2.9c-0.1,1.1,0.3,2.5,0.9,3.8       c0.7,1.3,1.5,2.6,2.5,3.8c1.9,2.4,4.2,4.5,6.4,6.5c4.6,4,9.3,7.4,13.9,10.4c-4.5-2-9.9-4.8-15.4-8.6c-2.7-1.9-5.4-4.1-7.9-6.7       c-1.2-1.3-2.4-2.8-3.3-4.6c-0.4-0.9-0.8-1.9-1-2.9c-0.2-1.1-0.2-2.3,0.1-3.4c0.6-2.4,2.2-4.2,3.9-5.3c1.6-1.2,3.4-1.9,5-2.5       c1.6-0.5,3.2-1.1,4.7-1.6c1.5-0.4,3-0.8,4.5-1.2c2.9-0.6,5.6-1.2,8-1.5c1.2-0.2,2.3-0.3,3.4-0.4c1-0.1,2-0.1,2.9-0.2       c15.3-0.9,29.9,0.1,43.9,1.9c14,1.8,27.4,4.5,39.9,8.9c12.5,4.4,23.7,11,32.9,19.2c4.6,4.1,8.7,8.6,12.4,13.2       c1,1.1,1.8,2.3,2.7,3.5c0.4,0.6,0.9,1.2,1.3,1.8l1.4,2c1.2,1.7,2.3,3.3,3.4,5c0.6,0.8,1.1,1.7,1.7,2.5l0.8,1.3l0.4,0.6l0.2,0.3       c0,0.1,0,0.1,0,0.1c-3.2-1.1-6.5-2.3-9.6-3.3l-2.3-0.7l-1.6-0.5c-1.1-0.3-2.2-0.7-3.3-1c-4.4-1.3-8.7-2.5-12.9-3.7       c-8.5-2.3-16.8-4.2-24.9-5.9c-8.1-1.7-16-3-23.6-4.2c-3.8-0.5-7.6-1.1-11.3-1.5c-3.7-0.5-7.4-0.8-11-1.2       c-7.6-0.7-18.1-1.8-27.2-2.1c-4.6-0.2-8.9-0.1-12.3,0.3c-1.7,0.2-3.2,0.5-4.3,1c-0.6,0.2-1,0.5-1.4,0.9       C103.2,227.5,103.1,228,103.3,228.3z"></path>
        </g>
      </g>
    </g>
    <g>
      <g>
        <path class="st27" d="M322.1,286.1c0.7-16,3.8-55.2,4.3-57.4c3.3-13.3,0.6-17.1-15.4-19.9c-11.3-1.8-24.9-2.1-34.6,4.8      c-6.8,5.5-2.4,9.8-2.2,16.4c-0.2,15-0.3,53.9,1.2,56.6C282.4,298.6,317.8,298,322.1,286.1z"></path>
        <g>
          <g>
            <path d="M322.1,286.1c-0.1,0.2-0.2,1-0.9,2.1c-0.7,1-1.9,2.3-3.5,3.3c-3.3,2.2-8.4,3.7-13.9,4.2c-5.5,0.6-11.6,0.2-16.9-1.1        c-2.7-0.7-5.2-1.6-7.3-2.9c-2.1-1.3-3.8-2.8-4.9-4.6c-0.1-0.3-0.2-0.5-0.3-0.7c-0.2-0.9-0.3-1.7-0.4-2.5        c-0.1-0.8-0.2-1.6-0.3-2.4c-0.1-1.6-0.2-3.2-0.3-4.8c-0.2-3.2-0.3-6.5-0.4-9.8c-0.2-6.6-0.3-13.3-0.4-20.1c0-3.4,0-6.8,0-10.1        c0-1.7,0-3.4,0-5.1c0-0.8,0-1.7,0-2.4c-0.1-0.7-0.2-1.5-0.3-2.3c-0.3-1.5-0.8-3.1-1.1-5c-0.1-0.5-0.1-1-0.1-1.4        c0-0.5,0-1,0.1-1.5c0.1-0.5,0.2-1,0.4-1.5c0.1-0.5,0.4-1,0.6-1.4c0.5-0.9,1.1-1.7,1.7-2.4c0.3-0.4,0.7-0.7,1-1        c0.4-0.3,0.7-0.6,1.1-0.9c1.5-1,3-1.9,4.6-2.6c5.5-2.5,11.4-3.4,17.2-3.5c2.9,0,5.7,0.1,8.6,0.4c2.8,0.3,5.6,0.7,8.4,1.3        c2.7,0.6,5.5,1.3,8.2,2.5c0.7,0.3,1.3,0.7,2,1.1c0.3,0.2,0.6,0.5,1,0.7c0.3,0.3,0.6,0.5,0.9,0.8c1.2,1.1,2,2.7,2.6,4.2        c0.8,3.1,0.4,6,0,8.7c-0.1,0.7-0.2,1.3-0.4,2l-0.2,1l-0.1,0.5c0,0.2-0.1,0.3-0.1,0.4c-0.1,0.4-0.2,1.1-0.2,1.7        c-0.1,0.6-0.1,1.3-0.2,1.9c-1.1,10.1-1.9,19.8-2.8,28.7c-0.8,8.9-1.6,17.2-2.2,24.5c-1.1-13.2-0.3-38.7,0.8-47.8        c0.2-1.9,0.5-3.8,0.7-5.7c0.1-1,0.3-1.9,0.4-2.9c0.1-0.4,0.2-1.1,0.3-1.6l0.3-1.3c0.5-1.8,0.8-3.5,1-5.3        c0.2-1.7,0-3.4-0.6-4.8c-0.6-1.4-1.8-2.5-3.2-3.3c-0.3-0.2-0.7-0.4-1.1-0.6c-0.4-0.2-0.8-0.4-1.2-0.5        c-0.8-0.3-1.6-0.6-2.4-0.8c-3.3-1-6.8-1.7-10.2-2.1c-6.8-0.9-13.6-1-19.9,0.4c-3.2,0.7-6.2,1.8-8.9,3.4        c-0.6,0.4-1.3,0.8-1.9,1.3l-0.8,0.7c-0.3,0.3-0.5,0.5-0.8,0.8c-0.9,1.1-1.6,2.4-1.7,3.8c-0.2,2.8,1.2,5.8,1.5,9l0.1,1.2        c0,0.4,0,0.8,0,1.2c0,0.8,0,1.5,0,2.3c0,1.5,0,3,0,4.5c0,5.9,0,11.7,0.1,17.2c0.1,5.6,0.2,11,0.3,16.3        c0.1,2.6,0.2,5.2,0.3,7.8c0.1,1.3,0.2,2.5,0.3,3.8c0.1,0.6,0.1,1.2,0.2,1.8c0,0.3,0.1,0.6,0.1,0.9l0.1,0.4        c0,0.1,0,0.1,0.1,0.2c0.8,1.3,2,2.5,3.4,3.4c1.4,0.9,2.9,1.7,4.4,2.3c3.1,1.2,6.3,1.8,9.5,2.2c5,0.6,12,0.6,17.9-0.9        c2.9-0.7,5.6-1.9,7.4-3.3C320.9,288.5,321.8,286.9,322.1,286.1z"></path>
          </g>
        </g>
      </g>
      <g>
        <path class="st83" d="M327.8,274.2c3.5-18.3,4.1-69.3,4.7-72c4.2-16.6,0.7-21.2-19.1-24.7c-14.1-2.2-31-2.6-43.1,6      c-8.4,6.9-2.9,12.2-2.7,20.4c-0.3,18.7-0.4,67.1,1.5,70.4C277.8,289.3,322.5,289,327.8,274.2z"></path>
        <g>
          <g>
            <path d="M327.9,274.2c0,0.3-0.2,1.4-1.1,2.7c-0.9,1.3-2.4,2.9-4.6,4.2c-4.3,2.7-10.9,4.6-17.9,5.1c-7.1,0.6-14.7,0.1-21.5-1.7        c-3.4-0.9-6.5-2.2-9.2-3.8c-0.7-0.4-1.3-0.9-1.9-1.3c-0.6-0.5-1.1-1-1.7-1.4c-0.5-0.5-1-1-1.4-1.6c-0.2-0.3-0.4-0.6-0.6-0.8        c-0.1-0.2-0.2-0.3-0.3-0.5c-0.1-0.2-0.2-0.4-0.3-0.6c-0.3-0.7-0.4-1.3-0.5-1.8c-0.1-0.5-0.2-1-0.2-1.5c-0.1-1-0.2-2-0.4-3        c-0.2-2-0.3-4-0.5-6c-0.3-4-0.5-8.1-0.6-12.2c-0.3-8.2-0.5-16.6-0.6-25.1c0-4.2-0.1-8.4-0.1-12.7c0-2.1,0-4.2,0-6.3        c0-1,0-2.1-0.1-2.9c-0.1-0.8-0.2-1.8-0.4-2.7c-0.4-1.9-1-3.9-1.4-6.3c-0.1-0.6-0.1-1.3-0.2-1.9c0-0.7,0-1.4,0.1-2        c0.1-0.7,0.2-1.4,0.5-2.1c0.1-0.3,0.2-0.7,0.4-1l0.5-0.9c0.6-1.2,1.4-2.3,2.3-3.2c0.4-0.5,0.9-0.9,1.3-1.3        c0.5-0.4,0.9-0.8,1.4-1.1c1-0.6,1.9-1.3,2.9-1.8c1-0.5,1.9-1.1,2.9-1.5c7-3.2,14.6-4.3,21.8-4.4c3.6,0,7.2,0.2,10.8,0.5        c3.5,0.4,7.1,0.9,10.5,1.6c3.5,0.8,6.9,1.6,10.5,3.3c0.4,0.2,0.9,0.4,1.3,0.7l1.3,0.8c0.4,0.3,0.8,0.6,1.3,1        c0.4,0.3,0.8,0.7,1.2,1.1l1.1,1.2c0.3,0.5,0.6,0.9,0.9,1.4c0.3,0.5,0.5,1,0.7,1.5c0.2,0.5,0.4,1,0.5,1.5c0.2,1,0.5,2.1,0.5,3        c0,0.5,0.1,1,0.1,1.5l-0.1,1.4c0,1-0.2,1.8-0.3,2.7c-0.1,0.9-0.3,1.7-0.4,2.6c-0.2,0.9-0.3,1.7-0.5,2.5l-0.3,1.2l-0.1,0.6        l0,0.3c0,0.1,0,0.1,0,0.4l0,0.6l-0.1,1.1c0,0.8-0.1,1.6-0.1,2.4c-0.7,12.7-1.3,24.8-2.3,36c-1,11.2-2,21.6-4.1,30.7        c0.1-8.4-0.2-20.4-0.4-31.9c-0.2-11.4-0.2-22.2,0.2-27.8c0.2-2.9,0.5-5.7,0.7-8.5c0.1-0.7,0.1-1.4,0.2-2.1l0.1-1.1        c0.1-0.5,0.1-1,0.2-1.5c0.3-1.3,0.7-2.6,1-3.9c0.6-2.6,1-5.1,0.8-7.4c-0.2-2.3-1.2-4.1-2.9-5.5c-1.7-1.4-4-2.4-6.4-3.3        c-2.4-0.8-4.9-1.4-7.4-1.9c-5-1-10-1.6-15-1.9c-4.9-0.2-9.8,0-14.5,0.9c-4.6,0.9-9.1,2.5-12.9,4.9l-1.4,0.9l-1.2,1.1        c-0.4,0.4-0.7,0.8-1.1,1.2c-0.3,0.4-0.6,0.8-0.9,1.3c-0.5,0.9-0.8,1.8-1,2.8c-0.1,1-0.1,2,0.1,3.1c0.3,2.1,1,4.3,1.4,6.6        c0.1,0.6,0.2,1.2,0.3,1.8c0,0.6,0.1,1.2,0.1,1.8c0,1.1,0,2.2,0,3.4c-0.1,17.7,0.1,34.3,0.7,49.7c0.1,3.9,0.3,7.7,0.6,11.3        c0.1,0.9,0.2,1.8,0.3,2.7c0.1,0.4,0.1,0.9,0.2,1.3c0.1,0.4,0.1,0.8,0.2,0.9c0,0.1,0.1,0.2,0.2,0.3l0.3,0.5        c0.2,0.3,0.5,0.6,0.7,0.9c0.3,0.3,0.5,0.6,0.8,0.9c0.3,0.3,0.6,0.6,0.9,0.8c2.6,2,5.7,3.4,8.9,4.5c3.2,1,6.5,1.7,9.7,2.1        c6.2,0.8,14.9,1,22.2-0.7c3.7-0.8,7-2.2,9.3-3.8c1.1-0.9,2.1-1.7,2.7-2.5C327.3,275.5,327.6,274.7,327.9,274.2z"></path>
          </g>
        </g>
      </g>
      <g>
        <circle class="st83" cx="287.9" cy="238.3" r="5.1"></circle>
        <g>
          <g>
            <path class="st10" d="M293,238.3c-0.2-0.1-0.2-1.4-1-2.5c-0.4-0.6-0.9-1.1-1.4-1.4c-0.5-0.3-1.1-0.5-1.5-0.6        c-1.4-0.2-3,0.3-4,1.3c-1,1-1.5,2.5-1.2,3.8c0.2,1.1,0.9,2.2,1.9,2.8c0.9,0.6,2.1,0.8,3.2,0.6c1.1-0.2,2-0.8,2.7-1.5        c0.7-0.8,1-1.7,1.2-2.6c0.2,0.4,0.3,0.9,0.3,1.6c0,0.6-0.2,1.3-0.5,1.9c-0.6,1.2-1.8,2-2.4,2.2c-2.7,0.8-5.4-0.4-6.6-2.3        c-1.3-1.8-1.4-4.2-0.5-5.9c0.9-1.8,2.6-2.9,4.4-3.1c1.7-0.2,3.4,0.5,4.5,1.6c0.5,0.5,1,1.4,1.1,2.2        C293.1,237.3,293,238,293,238.3z"></path>
          </g>
        </g>
      </g>
      <g>
        <path class="st33" d="M325.2,218.7c0-4.7-11.7-8.5-26-8.5c-14.4,0-26,3.8-26,8.5c0,3.8,0,48.7,0,52.5c0,4.7,11.7,8.5,26,8.5      c14.4,0,26-3.8,26-8.5C325.2,267.4,325.2,222.5,325.2,218.7z"></path>
        <g>
          <g>
            <path class="st28" d="M325.3,218.7c0.6,1.8,0.6,34,1,46.4c0,1.4,0.1,2.8,0.1,4.1c0,0.7,0,1.3,0,2.2c0,1-0.5,1.9-1,2.6        c-1.1,1.4-2.4,2.2-3.8,3c-1.4,0.7-2.8,1.3-4.2,1.7c-5.7,1.8-11.8,2.5-17.8,2.6c-6,0.1-12.2-0.4-18.1-2c-1.5-0.4-3-0.9-4.4-1.6        c-1.4-0.7-2.9-1.5-4.2-2.8c-0.6-0.7-1.3-1.6-1.5-2.8c-0.1-0.3-0.1-0.6-0.1-0.9l0-0.6l0-1.1c0-1.4,0-2.9,0-4.3        c-0.1-9.9-0.1-19.8-0.1-29.4c0-4.8,0.1-9.6,0.1-14.2l0-1.7l0-0.9l0-0.5c0-0.2,0-0.5,0.1-0.7c0.2-0.9,0.6-1.7,1.1-2.4        c0.5-0.6,1-1.1,1.6-1.5c2.2-1.6,4.5-2.4,6.7-3.1c4.5-1.3,9-1.8,13.3-2c4.3-0.2,8.5,0,12.5,0.4c4,0.5,7.8,1.3,11.3,2.5        c1.7,0.6,3.4,1.4,4.9,2.4c0.7,0.5,1.5,1.1,2,1.8c0.6,0.7,1,1.7,1,2.7c-0.1-0.9-0.6-1.7-1.2-2.3c-0.6-0.6-1.3-1.1-2.1-1.5        c-1.6-0.8-3.3-1.3-5.2-1.7c-3.7-0.8-7.8-1.2-11.7-1.3c-7.9-0.2-15.3,0.8-19.1,1.4c-1.9,0.3-3.8,0.7-5.6,1.2        c-1.8,0.5-3.5,1.2-4.9,2.2c-0.6,0.5-1.2,1-1.4,1.5c-0.1,0.1-0.1,0.2-0.1,0.4l0,0.2l0,0.4l0,1.4c0,1.9-0.1,3.8-0.1,5.7        c-0.2,7.5-0.3,14.9-0.4,22s-0.1,14-0.1,20.6c0,0.8,0,1.6,0,2.5c0,0.6,0.3,1.2,0.8,1.7c0.9,1.1,2.3,1.9,3.7,2.5        c2.9,1.2,5.9,2,9,2.5c6.1,1,12.1,1,17.9,0.6c2.9-0.3,5.7-0.7,8.4-1.3c2.7-0.6,5.3-1.4,7.5-2.7c1.1-0.6,2.1-1.4,2.6-2.2        c0.1-0.2,0.2-0.4,0.3-0.6c0-0.1,0.1-0.2,0-0.3l0-0.2l0-0.2c0-0.7,0-1.3,0-2c0-2.6,0-5.2,0-7.8c0-5.1,0-10,0.1-14.8        C324.3,237.4,325.1,221.8,325.3,218.7z"></path>
          </g>
        </g>
      </g>
      <g>
        <g>
          <g>
            <path class="st28" d="M325.2,190.5c-0.1-0.1-0.1-0.5-0.4-0.9c-0.2-0.5-0.7-1-1.3-1.6c-1.3-1.1-3.5-2.1-5.9-2.8        c-4.8-1.5-10.7-2-13.9-2c-5.7,0-11.8,0.4-17.7,1.7c-2.9,0.7-5.9,1.5-8.3,2.8c-1.2,0.6-2.3,1.5-2.6,2.2        c-0.2,0.4-0.1,0.5-0.1,0.8c0.1,0.3,0.3,0.6,0.7,1c0.7,0.6,1.7,1.2,2.7,1.7c1.1,0.5,2.2,0.9,3.4,1.2c2.3,0.7,4.8,1.2,7.2,1.5        c4.8,0.7,9.7,0.9,14.2,0.8c4.6-0.1,8.9-0.6,12.8-1.5c1.9-0.5,3.8-1,5.4-1.8c1.6-0.8,3-1.9,3.1-3.2c0.2,0.6,0.1,1.5-0.4,2.3        c-0.5,0.8-1.2,1.6-2,2.3c-1.6,1.4-3.7,2.4-5.7,3.2c-4.1,1.6-8.2,2.3-10.3,2.3c-4.3,0.1-8.5-0.1-12.5-0.6        c-4-0.4-7.8-1.1-11.5-2.2c-1.8-0.5-3.6-1.2-5.3-2c-0.8-0.4-1.7-0.9-2.4-1.5c-0.7-0.6-1.5-1.3-1.9-2.3c-0.2-0.5-0.3-1-0.3-1.6        c0-0.6,0.2-1.1,0.4-1.6c0.5-0.9,1.1-1.6,1.9-2.2c1.4-1.1,3-1.9,4.6-2.5c3.1-1.2,6.3-1.9,9.4-2.4c3.1-0.5,6.1-0.7,9-0.8        c5.8-0.2,11.2,0.3,16.2,1.4c2.3,0.5,5.5,1.6,8,3.2c1.2,0.8,2.3,1.7,2.9,2.7c0.3,0.5,0.5,0.9,0.6,1.3        C325.2,190,325.2,190.3,325.2,190.5z"></path>
          </g>
        </g>
      </g>
      <g>
        <g>
          <g>
            <path class="st10" d="M273.2,218.6c0.1,0.1,0.2,0.7,0.7,1.4c0.5,0.7,1.3,1.5,2.4,2.1c2.2,1.3,5,2,6.5,2.3        c5.6,1,12,1.4,17.9,1.2c5.1-0.2,10.1-0.7,14.6-1.7c2.2-0.5,4.3-1.1,6.1-1.9c1.7-0.8,3.3-1.9,3.5-3.4c0.1,0.3,0.2,0.8,0.2,1.2        c-0.1,0.5-0.2,1-0.5,1.5c-0.5,1-1.4,1.8-2.3,2.5c-1.8,1.4-3.8,2.2-4.8,2.4c-4.3,0.8-8.3,1.1-12,1.3c-3.7,0.2-7.3,0.2-10.5,0        c-3.3-0.1-6.4-0.4-9.2-0.9c-2.9-0.5-5.5-1.2-7.8-2.4c-1.1-0.5-2.5-1.5-3.5-2.7c-0.5-0.6-0.8-1.2-0.9-1.8        C273.1,219.3,273.1,218.8,273.2,218.6z"></path>
          </g>
        </g>
      </g>
      <g>
        <g>
          <ellipse class="st49" cx="299.2" cy="273.3" rx="16.4" ry="5.3"></ellipse>
          <g>
            <g>
              <path d="M315.5,273.3c-0.1-0.1-0.1-0.3-0.2-0.6c-0.2-0.3-0.4-0.7-0.8-1c-0.8-0.7-2.2-1.3-3.7-1.8c-3.1-1-6.7-1.3-8.7-1.3         c-3.6,0-7.4,0.2-11.1,1c-1.8,0.4-3.7,0.9-5.3,1.8c-0.8,0.4-1.5,1-1.7,1.5c0,0.1-0.1,0.1-0.1,0.2c0,0.1,0,0.1,0,0.2         c-0.1,0.1,0,0.2,0,0.3c0.1,0.1,0.1,0.2,0.2,0.4c0.1,0.1,0.2,0.3,0.3,0.4c1,0.9,2.5,1.5,3.9,1.9c1.5,0.4,3,0.8,4.5,1         c3.1,0.4,6.1,0.6,9,0.5c2.9-0.1,5.6-0.4,8.1-1c1.2-0.3,2.4-0.7,3.4-1.2c1-0.5,1.8-1.2,2-2.1c0.1,0.4,0,0.9-0.3,1.4         c-0.1,0.3-0.4,0.5-0.6,0.7c-0.2,0.2-0.5,0.4-0.7,0.6c-1,0.8-2.3,1.4-3.6,1.9c-2.6,1-5.1,1.3-6.5,1.4         c-5.4,0.2-10.4-0.3-15-1.6c-1.1-0.3-2.2-0.7-3.3-1.3c-1-0.5-2.1-1.2-2.7-2.3c-0.2-0.3-0.2-0.6-0.2-0.9c0-0.3,0.1-0.7,0.2-0.9         c0.3-0.6,0.7-1,1.1-1.4c0.9-0.7,1.9-1.1,2.9-1.5c3.9-1.4,7.9-1.8,11.5-2c3.6-0.1,7,0.2,10.1,0.9c1.5,0.3,3.5,1,5,1.9         c0.8,0.5,1.5,1,1.8,1.6c0.2,0.3,0.3,0.6,0.4,0.8C315.5,273,315.5,273.2,315.5,273.3z"></path>
            </g>
          </g>
        </g>
      </g>
      <g>
        <circle class="st83" cx="307.6" cy="268.6" r="2.8"></circle>
        <g>
          <g>
            <path class="st10" d="M310.4,268.6c-0.2-0.1-0.2-0.7-0.7-1.3c-0.4-0.6-1.1-1-1.6-0.9c-0.7,0-1.5,0.3-1.9,0.8        c-0.5,0.5-0.6,1.2-0.5,1.8c0.2,1,1.3,1.7,2.3,1.6c1-0.1,1.8-0.9,2.1-1.9c0.4,0.4,0.6,1.3,0.3,2.1c-0.3,0.8-1,1.4-1.4,1.4        c-1.7,0.4-3.3-0.4-4-1.5c-0.7-1.1-0.8-2.5-0.3-3.5c0.5-1,1.5-1.7,2.6-1.8c1-0.1,2.1,0.3,2.6,1c0.3,0.3,0.5,0.9,0.6,1.4        C310.5,268.1,310.4,268.5,310.4,268.6z"></path>
          </g>
        </g>
      </g>
      <g>
        <circle class="st83" cx="292.9" cy="262.9" r="4.3"></circle>
        <g>
          <g>
            <path class="st10" d="M297.2,262.9c-0.2-0.1-0.2-1.1-0.9-2.1c-0.6-1-1.8-1.6-2.5-1.6c-1.2-0.1-2.4,0.3-3.2,1.1        c-0.8,0.8-1.2,2.1-0.9,3.1c0.2,0.9,0.7,1.7,1.5,2.2c0.7,0.5,1.7,0.7,2.5,0.5c1.8-0.3,3-1.8,3.2-3.3c0.4,0.6,0.5,1.9,0,3        c-0.5,1.1-1.5,1.8-2.1,1.9c-2.4,0.6-4.6-0.4-5.7-2c-1.1-1.6-1.2-3.6-0.4-5c0.7-1.5,2.2-2.5,3.7-2.6c1.5-0.2,2.9,0.4,3.8,1.4        c0.4,0.4,0.8,1.2,0.9,1.9C297.3,262.1,297.2,262.7,297.2,262.9z"></path>
          </g>
        </g>
      </g>
      <g>
        <circle class="st83" cx="308" cy="228.2" r="2.8"></circle>
        <g>
          <g>
            <path class="st10" d="M310.8,228.2c-0.2-0.1-0.2-0.7-0.7-1.3c-0.4-0.6-1.1-1-1.6-0.9c-0.7,0-1.5,0.3-1.9,0.8        c-0.5,0.5-0.6,1.2-0.5,1.8c0.2,1,1.3,1.7,2.3,1.6c1-0.1,1.8-0.9,2.1-1.9c0.4,0.4,0.6,1.3,0.3,2.1c-0.3,0.8-1,1.4-1.4,1.4        c-1.7,0.4-3.3-0.4-4-1.5c-0.7-1.1-0.8-2.5-0.3-3.5c0.5-1,1.5-1.7,2.6-1.8c1-0.1,2.1,0.3,2.6,1c0.3,0.3,0.5,0.9,0.6,1.4        C311,227.7,310.9,228.1,310.8,228.2z"></path>
          </g>
        </g>
      </g>
      <g>
        <g>
          <g>
            <path class="st10" d="M281.5,278.4c-0.3,0-1.5-0.7-3.2-1.8c-0.8-0.6-1.8-1.4-2.6-2.5c-0.8-1.1-1.2-2.8-1.2-4.3        c-0.3-5.7-0.3-12.1-0.6-15.7c-0.8-12.7-0.7-27.1-1.7-40c-0.2-2.8-0.4-5.6-0.7-8.4c-0.1-0.8-0.1-1.3-0.2-1.8        c-0.1-0.6-0.2-1.2-0.4-1.8c-0.3-1.3-0.8-2.6-1.1-4.1c-0.4-1.5-0.7-3.1-0.6-4.9c0-0.9,0.2-1.8,0.4-2.7c0.1-0.4,0.3-0.9,0.5-1.3        c0.1-0.3,0.3-0.6,0.4-0.8c0.2-0.2,0.3-0.5,0.5-0.7c1.3-1.6,2.6-2.4,3.9-3.2c1.3-0.8,2.6-1.4,3.9-1.9c5.2-2,10.3-2.8,15-3        c4.8-0.1,9.1,0.6,12.8,1.9c-3.6,0.3-8.5,1-12.8,2.2c-4.4,1.1-8.2,2.5-10.3,3c-2.1,0.5-4.1,1.2-5.9,2.1c-0.9,0.4-1.7,1-2.3,1.5        c-0.3,0.3-0.5,0.5-0.6,0.7c-0.2,0.4-0.3,0.8-0.4,1.2c-0.4,1.6-0.2,3.6,0.3,5.6c0.5,2,1.1,4.1,1.3,6.3c0.6,8.3,0.8,15.9,1,23.2        c0.3,14.4,0.5,26.9,0.1,37.9c0,1.3-0.1,2.8-0.2,4.4c-0.1,0.8-0.1,1.5-0.1,2.2c0.1,0.7,0.3,1.3,0.6,2c0.7,1.2,1.7,2.3,2.5,3.1        C280.6,277.4,281.3,278,281.5,278.4z"></path>
          </g>
        </g>
      </g>
      <g>
        <g class="st2">
          <g>
            <path d="M316.8,277.4c0-0.4,0.6-1,1.2-1.9c0.6-0.9,1.1-2.3,1.4-4c0.3-1.6,0.3-3.5,0.2-5.2c-0.1-1.7-0.2-3.4-0.4-4.5        c-1.3-8.1-1.6-17.3-1.9-25.6c-0.5-14.6,0.8-28.9,3.2-38.4c3.6,4.3,6.1,12.5,5.4,15.5c-2.6,11.8-2.9,22.2-2.7,31.3        c0.1,4.6,0.3,8.9,0.5,12.9c0.1,2,0.1,3.9,0.1,5.8c0,0.9,0,1.8-0.1,2.8c0,0.9-0.1,1.9-0.3,2.8c-0.2,1.8-1.1,4.3-2.6,6.1        c-0.7,0.9-1.6,1.5-2.4,1.9C317.7,277.3,317.1,277.4,316.8,277.4z"></path>
          </g>
        </g>
      </g>
      <g>
        <path class="st32" d="M331,251.9c-11.2,12.3-47.7,13.5-65.4-0.8c-0.1-5.3,0-16.5-0.3-21.9c12.5,18.7,57.8,18.2,65.9,1.5      C331.2,230.7,332.1,247.1,331,251.9z"></path>
        <g>
          <g>
            <path d="M331,251.8c-0.1-0.3,0-1.1,0.1-2.4c0-1.3,0.1-3,0-5.1c0-2-0.1-4.4-0.2-6.9c0-1-0.1-2-0.1-3c0-0.4-0.1-0.8-0.1-1.3        l0-0.6c0-0.1,0,0-0.1,0l-0.1,0.1l-0.2,0.3c-0.3,0.5-0.6,0.9-0.9,1.4c-0.2,0.2-0.4,0.4-0.5,0.6c-0.2,0.2-0.3,0.4-0.7,0.7        c-0.6,0.6-1.2,1.1-1.9,1.6c-0.3,0.2-0.6,0.5-1,0.7c-0.3,0.2-0.7,0.4-1,0.6c-2.6,1.6-5.2,2.5-7.2,3.2        c-4.2,1.4-8.8,2.3-13.5,2.6c-4.7,0.3-9.5,0.1-14.3-0.6c-4.8-0.8-9.5-2-13.9-4.2c-2.2-1.1-4.4-2.3-6.3-3.8        c-0.5-0.4-1-0.8-1.4-1.2l-0.2-0.2l0,0l0,0c-0.1,0-0.1-0.1-0.1-0.1c0,0,0,0.1,0,0.2l0,0.1l0,0l0,0l0,0.2l0,0.8l0,3.2        c0,2.1,0,4.2,0.1,6.3c0,1.7,0,3.4,0.1,5.1l0.6,0.4c0.4,0.3,0.8,0.6,1.2,0.8c0.8,0.6,1.6,1,2.5,1.5c6.8,3.8,14.5,5.7,21.8,6.5        c7.4,0.8,14.5,0.5,20.9-0.7c6.4-1.2,12.2-3.5,16-7.2c-1.3,2-3.6,4.2-6.4,5.9c-2.9,1.7-6.2,3.1-9.6,4.1        c-6.8,1.9-13.4,2.2-16.9,1.9c-5.3-0.4-10.4-1.3-15.3-2.8c-4.8-1.4-9.4-3.4-13.5-5.9c-1-0.7-2-1.3-2.9-2.1l-0.9-0.7l-0.3-0.2        c0,0-0.1-0.1-0.1-0.1l0-0.2l0-0.6c0-0.7,0-1.3,0-2c0-2.3,0-4.6,0-6.8c0-2.2,0-4.5,0-6.6c0-0.7,0-1.4,0-2c0-0.8,0-1.5,0-2.3        c0-0.8,0-1.5-0.1-2.3l0-1.1l0-0.6c0-0.1,0.1-0.1,0.1-0.1c0.8,1,1.5,2.1,2.4,3.1l1.3,1.5c0.2,0.2,0.4,0.4,0.6,0.6l0.6,0.5        c1.2,1.1,2.6,2.1,4,2.9c2.8,1.7,5.8,3,8.8,3.9c6,1.9,12.2,2.6,18,2.6c5.8,0,11.4-0.8,16.5-2.4c2.5-0.8,4.9-1.8,7.1-3.1        c0.6-0.3,1.1-0.7,1.6-1c0.5-0.3,1-0.7,1.4-1.1l0.3-0.3l0.2-0.1l0.2-0.3l1-1.2c0.6-0.6,1.3-1.8,2-2.9c0.2-0.3,0.4-0.7,0.7-1.1        c0.2-0.3,0.4-0.7,0.7-1.2c0.1,0.1,0.1,0.2,0.2,0.3c0,0,0,0,0,0.1l0,0.3l0,0.6c0,0.8,0,1.5,0.1,2.3c0,1.6,0.1,3.2,0.1,4.8        c0,0.6,0,1.2,0,1.8c0,0.6,0,1.1,0,1.7c0,1.1-0.1,2.2-0.1,3.3C331.9,247,331.4,250.7,331,251.8z"></path>
          </g>
        </g>
      </g>
      <g>
        <g>
          <g>
            <path class="st10" d="M327.5,186.3c0.2,0,0.5,0.3,0.8,0.9c0.3,0.6,0.6,1.5,0.6,2.5c0.2,2-0.6,4.2-1.1,5.3        c-0.4,1-1.1,2.1-1.9,2.9c-0.8,0.9-1.8,1.6-2.8,2.3c-2.1,1.3-4.3,2-6.4,2.6c-3.7,1-7.5,1.4-10.9,1.4c-3.4-0.1-6.5-0.6-8.8-1.4        c1.2-0.7,2.8-1.3,4.2-1.7c1.5-0.4,2.8-0.7,3.5-0.5c2.9,0.5,5.7,0.5,8.3,0.2c2.6-0.3,5-0.9,7-1.8c2-0.9,3.7-2.1,5-3.5        c1.2-1.4,1.9-2.9,2.3-4.4c0.2-0.7,0.4-1.7,0.5-2.7C327.7,187.5,327.5,186.6,327.5,186.3z"></path>
          </g>
        </g>
      </g>
    </g>
    <g>
      <path class="st32" d="M169.9,396.7c-3.5-3.6-3-11.3,3.4-14.1c-2.7-2-10.1-3.3-13.3-3.7c-0.5-0.1-0.9-0.3-1.4-0.4     c-0.6-0.1,0-2.5,0.2-4c0.3-1.5,0.7-3.1,0.3-4.1c-0.9-1.9-5.6-4.7-7.5-5.1c-2.4-0.5-4.5-0.2-6.7,0.7c-1.3,3.6-1.1,5.6-1.9,9.4     c-1.8-0.2-3-1-4.7-0.8c-1.3,0.1-4.2,1.9-5.1,4.6c-1,3.3-0.3,6.1,0.9,7.9c0.5,0.7,0.8,1.5,1.4,2c0.6,0.4,1.2,0.6,1.9,0.9     c10.6,3.5,21.5,6.7,32.5,6.9"></path>
      <g>
        <g>
          <path d="M169.9,396.9c-0.5,0.3-5.4,0.4-10.9-0.5c-5.5-0.8-11.7-2.4-15.1-3.3c-2.5-0.6-4.9-1.3-7.5-2.1       c-0.7-0.2-1.5-0.6-2.3-1.3c-0.6-0.7-0.9-1.3-1.3-1.8c-1-1.3-1.5-2.9-1.7-4.4c-0.2-1.6,0-3.2,0.4-4.7c0.5-1.7,1.6-3.1,2.8-4.1       c0.6-0.5,1.3-1,2.1-1.3c0.4-0.2,0.8-0.3,1.4-0.4c0.6-0.1,0.9-0.1,1.4,0c0.4,0,0.9,0.1,1.3,0.2l0.6,0.1l0.3,0.1l0,0       c0.1,0,0.1,0,0.2,0l0-0.1c0.1-0.6,0.2-1.1,0.2-1.6c0.2-1.2,0.3-2.5,0.6-3.7c0.1-0.3,0.2-0.6,0.2-1l0.2-0.6l0.3-0.8l0.1-0.4       l0.1-0.2c0-0.1,0-0.1,0.1-0.2l0.8-0.3l0.8-0.3l0.6-0.2c1.3-0.4,2.8-0.6,4.2-0.6c0.7,0,1.4,0.1,2.1,0.3c0.9,0.2,1.5,0.5,2.1,0.8       c1.2,0.6,2.3,1.2,3.4,2c0.5,0.4,1,0.8,1.6,1.2c0.5,0.5,1,0.9,1.5,1.7c0.3,0.4,0.5,1,0.6,1.5c0.1,0.5,0.1,0.9,0,1.3       c-0.1,0.8-0.2,1.4-0.3,2c-0.1,0.6-0.2,1.1-0.3,1.7c-0.1,0.5-0.2,1-0.3,1.4c0,0,0,0.1,0,0.1c0,0,0.1,0,0.1,0.1l0.9,0.1l1,0.2       c0.6,0.1,1.3,0.2,1.9,0.4c1.3,0.3,2.5,0.6,3.7,0.9c1.3,0.4,2.1,0.6,4.2,1.5c0.9,0.4,1.7,0.9,2.4,1.3l1.1,0.7l0.3,0.2       c0.1,0.1,0.1,0.1,0.1,0.2l0.2,0.3c-0.7,0.3-1.4,0.6-2.1,1c-0.7,0.4-1.5,0.7-2,1.1c-0.1,0.1-0.2,0.2-0.4,0.3l-0.3,0.2       c-0.1,0.1-0.2,0.2-0.3,0.3c-0.2,0.2-0.5,0.4-0.6,0.7c-0.8,1-1.3,2.1-1.5,3.3c-0.5,2.4,0.1,4.8,1.4,6.5       c-0.8-0.5-1.7-1.4-2.3-2.6c-0.6-1.2-1-2.7-1-4.3c0-1.6,0.5-3.2,1.4-4.7c0.2-0.4,0.5-0.7,0.7-1c0.1-0.1,0.1-0.2,0.2-0.2       c0.1-0.1,0.2-0.2,0.2-0.2c0-0.1,0.1-0.1,0.1-0.1c0.1-0.1,0.1-0.2,0.1-0.2c0,0,0,0,0,0l-0.1,0c-0.1,0-0.1,0-0.2,0       c0,0-0.1,0-0.1,0c0,0,0,0,0,0l-0.1,0c-0.1,0,0,0-0.1,0c-0.1,0-0.3-0.1-0.4-0.1c-0.3-0.1-0.5-0.1-0.8-0.2       c-0.5-0.1-0.9-0.3-1.3-0.4c-1.1-0.4-2.2-0.7-3.4-0.9c-0.6-0.1-1.1-0.3-1.7-0.4c-0.3-0.1-0.5-0.1-0.8-0.2l-0.4-0.1l-0.5-0.1       c-0.4,0-0.7-0.1-1-0.3c-0.3-0.1-0.7-0.2-1-0.4c-0.3-0.2-0.5-0.3-0.6-0.6c-0.2-0.3-0.2-0.6-0.3-0.9c-0.1-0.6,0.1-1.4,0.2-1.9       l0.3-1.2c0.2-0.8,0.4-1.5,0.5-2.3c0.2-0.7,0.3-1.5,0.2-1.8c0-0.3-0.5-0.9-1-1.3c-0.5-0.5-1.1-0.9-1.6-1.4       c-1.2-0.8-2.5-1.6-3.7-2.1c-0.3-0.1-0.6-0.2-0.9-0.2c-0.3-0.1-0.7-0.1-1-0.1c-0.7,0-1.3,0-2,0.1c-0.3,0.1-0.7,0.1-1,0.2       c-0.2,0-0.3,0.1-0.5,0.1l-0.4,0.1l-0.3,0.1l-0.2,0.1c0,0,0,0.1-0.1,0.1c-0.1,0.2-0.1,0.3-0.2,0.7c-0.4,1.3-0.6,2.6-0.8,4       c-0.1,0.7-0.2,1.4-0.3,2.1c-0.2,0.9-0.3,1.8-0.5,2.7c-0.3,0.1-0.7-0.1-1-0.1c-0.3-0.1-0.7-0.1-1-0.2c-0.3-0.1-0.7-0.2-1-0.3       c-0.2-0.1-0.5-0.1-0.7-0.2c-0.4-0.1-0.9-0.2-1.3-0.1l-0.3,0c-0.1,0-0.2,0-0.3,0.1c-0.2,0-0.4,0.1-0.6,0.2       c-1.6,0.7-2.9,2.1-3.4,3.6c-0.5,1.7-0.6,3.4-0.2,5c0.2,0.8,0.6,1.5,1,2.1c0.6,0.9,0.9,1.6,1.4,1.8c0.5,0.3,1.3,0.6,2.2,0.8       c0.8,0.3,1.6,0.5,2.4,0.8c1.6,0.5,3.2,1,4.8,1.4c3.1,0.9,6.1,1.7,9,2.5c2.5,0.6,5.8,1.4,8.8,2       C166.4,396.5,169.1,396.7,169.9,396.9z"></path>
        </g>
      </g>
    </g>
  </g>
</g>
</svg>