<svg xmlns="http://www.w3.org/2000/svg" id="uniforms_1" viewBox="0 0 380 600"><defs transform="matrix(-1, 0, 0, 1, 380, 0)"><style>.cls-1{fill:#0c3744;}.cls-2{fill:#e4ffca;}.cls-3{fill:#7eed56;}.cls-4{fill:#fff;}</style></defs><path class="cls-1 color-headpiece" d="M247.87,238.17c11.08-4.59,23.84-16.36,38.16-16h.34c.56-.56,1.11-1.13,1.63-1.71-6.07-3.94-10.7-6.81-17.64-9.58-46.76,18.51-124.58,11.44-145.2-5.84-1.47-1.23-17.81,10.15-23,17.89C123.42,240,204.71,256,247.87,238.17Z" transform="matrix(-1, 0, 0, 1, 380, 0)"></path><path d="M247.89,238.21a24.15,24.15,0,0,1-3.24,1.56c-.88.41-2,.75-3.17,1.19l-1.92.67-2.15.62a122.4,122.4,0,0,1-22.92,4.08,208.15,208.15,0,0,1-26.85.5c-8.6-.38-16.37-1.18-21.91-1.82-7.71-.9-15.61-2.2-23.57-3.95a174.5,174.5,0,0,1-23.87-6.93,89,89,0,0,1-11.64-5.27c-1-.49-1.89-1.08-2.82-1.66l-.87-.55c-.39-.26-.75-.55-1.12-.83l-2.24-1.69-.56-.42-.28-.22-.07-.05s0-.05,0-.07l.1-.14.81-1.15c.52-.75,1-1.51,1.65-2.25.29-.37.59-.75.9-1.1l.57-.65c.37-.41.74-.81,1.12-1.2a82.74,82.74,0,0,1,9.68-8.45c1.7-1.27,3.44-2.5,5.27-3.65.93-.57,1.87-1.13,2.93-1.65l.53-.24a4.85,4.85,0,0,1,.69-.26,5.62,5.62,0,0,1,1.38-.36A4,4,0,0,1,127,203l1.72,1.29c.43.3.9.57,1.34.85.88.58,1.84,1.07,2.78,1.57a58.8,58.8,0,0,0,5.85,2.6,107,107,0,0,0,12.14,3.79,209.66,209.66,0,0,0,36.92,5.29A260.6,260.6,0,0,0,224.1,218a188.42,188.42,0,0,0,34-5.68c2.68-.7,5.28-1.53,7.85-2.39l1.9-.67,1.26-.45.88-.32.43-.16a1.49,1.49,0,0,1,.4.15l1.59.67,1,.45c.64.29,1.27.58,1.9.89a105.87,105.87,0,0,1,13.82,8.27l2,1.39-1.63,1.66-1,1c-.47.47-.91,1-1.36,1.38l-1.24-.07h-2.37c-.89.09-1.78.16-2.67.28s-1.76.3-2.62.52-1.73.43-2.57.72a63.94,63.94,0,0,0-9.7,4.16c-6.18,3.17-11.83,6.83-17.79,9.1,4.91-2.74,10.16-7,16.33-11a60.67,60.67,0,0,1,10.09-5.46c.91-.39,1.87-.68,2.8-1s1.94-.53,2.92-.79,2-.37,3-.51l1.53-.11a1.08,1.08,0,0,0,.34,0l.18,0a1.84,1.84,0,0,0,.17-.25l.68-.79.48,3.53c-2.71-1.6-5.34-3.14-7.87-4.47s-5-2.47-7.3-3.43l-.87-.35-.19-.07h0l-.07,0c-.13,0-.06,0-.1,0L267,215.34c-2.1.69-4,1.3-5.52,1.72a196.2,196.2,0,0,1-37.62,5.84,271.8,271.8,0,0,1-35.78-.07,228.2,228.2,0,0,1-33.42-4.64,127.8,127.8,0,0,1-15.56-4.47c-1.27-.43-2.48-1-3.72-1.46s-2.42-1.09-3.62-1.65l-1.75-.94a18.35,18.35,0,0,1-1.72-1l-1.68-1.06-1.4-1.05c-.2-.12-.37-.37-.63-.32a2.75,2.75,0,0,0-.69.21l-.36.16-.49.24-1,.54c-1.32.76-2.61,1.6-3.86,2.47a91.09,91.09,0,0,0-7.21,5.6c-1.14,1-2.24,2-3.3,3-.53.52-1.05,1-1.55,1.58l-.74.81-.32.37-.21.25a12.39,12.39,0,0,0-.77,1c-.25.19.1.29.23.42l.52.37c.17.12.33.25.52.36l.82.51c.62.37,1.2.78,1.85,1.11a98.31,98.31,0,0,0,15.63,6.82c5.31,1.84,10.62,3.36,15.88,4.67a259.79,259.79,0,0,0,30.79,5.65,272.06,272.06,0,0,0,28.91,2,199,199,0,0,0,28.51-1.54A102.2,102.2,0,0,0,247.89,238.21Z" transform="matrix(-1, 0, 0, 1, 380, 0)"></path><path class="cls-1 color-headpiece" d="M233.14,240.68c9.82,15,17.54,60.3,16.52,62.25S219,313.79,218.4,315.13c-.33.79,1.78,21.09,3,31.51,23.63-7.37,43.45-16.26,57.94-26.94-2.91-31.22-8.9-62-25.16-86.64" transform="matrix(-1, 0, 0, 1, 380, 0)"></path><path d="M254.27,233a12.4,12.4,0,0,1,1.63,2l1.41,2c.53.77,1,1.67,1.62,2.63a109.66,109.66,0,0,1,7.55,15.08,166.36,166.36,0,0,1,6.35,18.41c1.67,6,3,11.52,3.83,15.47,1.56,7,2.82,14.26,3.84,21.73.26,1.87.51,3.74.72,5.63l.42,3.64.07.62,0,.32,0,.15c0,.06-.07.07-.1.11l-1,.73-1.75,1.27c-3.14,2.29-6.4,4.44-9.75,6.43-13.43,8-28,13.83-42.06,18.58l-7.85,2.54-.25.09c-.06,0,0-.06-.05-.1l0-.14-.07-.59-.15-1.18-.29-2.35-.45-3.76q-.54-4.78-1.08-9.54t-1-9.48c-.14-1.58-.28-3.16-.4-4.76l-.08-1.21,0-1.05a4.14,4.14,0,0,1,0-1.12c.15-.7.09-1.5.74-1.93l.32-.4.41-.34a3.23,3.23,0,0,1,1-.58,9,9,0,0,1,1-.49l.68-.28,1.14-.44L223,310l4.41-1.53L236,305.5c2.84-1,5.66-1.93,8.35-3,.67-.26,1.33-.52,2-.79l.45-.2.09,0,.1,0c.07-.05.05-.12.06-.22,0-.55-.09-1.32-.15-2-.6-5.6-1.53-11.18-2.5-16.52s-2-10.53-3.2-15.47-2.4-9.65-3.8-14.06a63.52,63.52,0,0,0-4.95-12.07,47.35,47.35,0,0,1,7.11,11.34,127.6,127.6,0,0,1,5.78,14.61A144,144,0,0,1,251.45,292c.32,2.62.61,5.21.78,7.89l.05,1c0,.54,0,1.16,0,1.73a6.45,6.45,0,0,1-.46,1.57,4.53,4.53,0,0,1-1.17,1.14,10.87,10.87,0,0,1-1.5.83l-1,.41c-.62.25-1.24.48-1.85.7-4.86,1.72-9.59,3.15-14.25,4.64l-6.91,2.22c-1.13.38-2.26.76-3.35,1.16l-1.25.47-.38.17a.59.59,0,0,0-.18.13l0,.2v1l.1,1.74q.12,1.75.24,3.48.28,3.48.57,6.91.62,6.84,1.34,13.47c.07.67.14,1.35.22,2,0,.07,0,.2.05.22l.26-.08.54-.17,1.08-.33,1.08-.34,1.53-.5,3.06-1q6.09-2.08,11.89-4.38t11.24-4.84q5.45-2.56,10.55-5.36c3.38-1.88,6.64-3.86,9.75-5.93l2.31-1.57,1.81-1.32c.09-.08.22-.13.26-.23l0-.35-.1-.9-.3-2.73c-.42-3.61-.85-7.17-1.35-10.65a256.55,256.55,0,0,0-8.18-38.41,192.21,192.21,0,0,0-7-19.45c-.72-1.58-1.34-3.16-2.05-4.57L257,238Z" transform="matrix(-1, 0, 0, 1, 380, 0)"></path><path class="cls-1 color-headpiece" d="M112.19,226.45c-10.68,12.45-21.91,34.71-25.67,53.87,2.12,7,8.29,14,11.53,18.41-2.38,9.79-4,19.91-5.67,29.85-9.41-7.17-18.44-23-19.57-28-3-13.32,17.66-66.22,33.79-81" transform="matrix(-1, 0, 0, 1, 380, 0)"></path><path d="M106.63,219.62a8.85,8.85,0,0,1-1.31,1.71c-.35.45-.77,1-1.25,1.57l-1.53,2a111.88,111.88,0,0,0-7.36,11.64,182.65,182.65,0,0,0-12,26.36c-1.92,5.48-3.75,11.2-5.31,17.09-.79,2.94-1.48,5.92-2,8.92a44.06,44.06,0,0,0-.89,8.85,10,10,0,0,0,.79,3.79,40.38,40.38,0,0,0,1.91,4,82.81,82.81,0,0,0,4.77,7.79A78.32,78.32,0,0,0,88,320.47c.5.54,1,1.11,1.49,1.62l.7.71.06,0c.06,0,.11.06.13.05v-.11a.37.37,0,0,1,0-.14v-.13l.14-.86.32-2q.65-3.94,1.36-7.85T93.76,304l.87-3.86.18-.77h0l-.16-.21c-3.09-4.05-6.4-8.22-8.82-13.06a31.59,31.59,0,0,1-1.6-3.77l-.48-1.48a3.38,3.38,0,0,1-.13-.42l.1-.44.19-.85.45-1.95q.88-3.69,2-7.19a130,130,0,0,1,11.29-25.2,101.41,101.41,0,0,1,13.85-18.94,217,217,0,0,0-10.61,21.49c-3.37,7.82-6,15.33-7.56,19.2-1.11,2.78-2.16,5.56-3,8.35-.44,1.4-.86,2.8-1.2,4.2l-.14.52-.07.27a.35.35,0,0,1,0,.11.37.37,0,0,0,0,.28l0,.07.05.21c0,.16.09.32.15.48l.34.95a40.6,40.6,0,0,0,3.88,7.33c1.52,2.35,3.19,4.59,4.86,6.87l.8,1.1.47.64c.14.22.39.41.23.69L99,301.28c-.34,1.33-.67,2.66-1,4-.62,2.66-1.18,5.3-1.7,7.92s-1,5.22-1.46,7.79c-.56,3.27-1.11,6.49-1.66,9.68-.07.09-.25-.12-.4-.23l-.45-.37-.92-.75c-.61-.49-1.19-1-1.76-1.53s-1.17-1-1.72-1.56l-1.38-1.42c-1.58-1.71-3.07-3.45-4.43-5.25a90.15,90.15,0,0,1-7.26-11.09,46.77,46.77,0,0,1-2.8-5.89c-.2-.5-.36-1.08-.52-1.63s-.2-1.14-.28-1.71l-.1-1.66,0-1.61a69.28,69.28,0,0,1,2-12.11,170.78,170.78,0,0,1,6.92-21.59,178.67,178.67,0,0,1,8.6-18.85A106.05,106.05,0,0,1,98,228.73a70.29,70.29,0,0,1,5.13-6c.78-.77,1.47-1.44,2.07-2Z" transform="matrix(-1, 0, 0, 1, 380, 0)"></path><path class="cls-2 color-headpiece2" d="M145.61,220.3c-2.68,6.22-8.66,22.67-7.83,24.62,1.8,4.27,6.82,11.46,8.86,14.25,1.37,1.88,19.08,5.3,21.79,3.56,3.87-2.5,11.37-7.84,14.26-10.94,2.16-2.32,2.09-19.43,2.09-24.77C172.08,225.5,156.9,223.72,145.61,220.3Z" transform="matrix(-1, 0, 0, 1, 380, 0)"></path><path class="cls-3" d="M145.62,220.27a27.76,27.76,0,0,1,4.14.77c2.27.47,5.27,1.07,8.51,1.62,6.49,1.1,13.91,2,18.06,2.33l4,.34,2,.17,2.89.28.43,0,.22,0h.16v0l0,.86,0,1.73c0,.74,0,1.48.05,2.23,0,1.41,0,2.83.05,4.26,0,2.86,0,5.74-.2,8.65-.09,1.45-.2,2.91-.4,4.39-.11.74-.23,1.49-.42,2.28a8.34,8.34,0,0,1-.37,1.22A4.66,4.66,0,0,1,184,253a32.85,32.85,0,0,1-2.6,2.47c-.86.75-1.73,1.46-2.61,2.16-1.74,1.38-3.48,2.68-5.22,3.93-1.34,1-2.65,1.87-4.07,2.8a5.25,5.25,0,0,1-2.17.7,14.17,14.17,0,0,1-1.67.11c-1.06,0-2.07,0-3.07-.12-2-.17-3.92-.45-5.82-.78s-3.78-.74-5.64-1.23c-.93-.25-1.86-.52-2.8-.85-.47-.17-.94-.35-1.45-.59a8.34,8.34,0,0,1-.82-.43l-.53-.4c-.14-.17-.32-.31-.45-.49l-1.31-1.87c-.41-.61-.81-1.21-1.22-1.8-.79-1.2-1.56-2.4-2.3-3.6s-1.44-2.4-2.11-3.61c-.33-.61-.65-1.23-1-1.85l-.44-.94-.22-.49-.24-.57a3.86,3.86,0,0,1-.17-.82,3.11,3.11,0,0,1,0-.75,10.06,10.06,0,0,1,.15-1.08c.14-.67.29-1.29.46-1.89.33-1.21.71-2.36,1.09-3.49.76-2.24,1.57-4.37,2.38-6.41,1.63-4.07,3.25-7.77,4.9-11-.7,3.49-1.84,8.29-3,13-.57,2.35-1.13,4.67-1.61,6.78-.23,1-.45,2-.6,2.93a9.52,9.52,0,0,0-.19,1.54l.76,1.68a98,98,0,0,0,7.14,12.29.61.61,0,0,0,.2.19c.14.09.32.19.51.29.39.18.81.36,1.25.52.87.32,1.78.61,2.69.87,1.83.51,3.67.93,5.49,1.28s3.65.63,5.43.8c.9.08,1.78.13,2.64.12A5.41,5.41,0,0,0,168,262c2.6-1.66,5.11-3.42,7.49-5.19a56.23,56.23,0,0,0,6.58-5.57,3.47,3.47,0,0,0,.53-1.17,14.61,14.61,0,0,0,.33-1.52c.19-1,.31-2.08.4-3.13.19-2.1.28-4.19.34-6.24s.08-4.07.08-6.05c0-1,0-2,0-2.95l0-2.12s0-.15,0-.14h-.17l-.34,0-1.08-.11-2.79-.32-5.43-.67c-3.55-.46-7-1-10.26-1.56a103.09,103.09,0,0,1-10.57-2.47C149.53,221.77,146.57,220.65,145.62,220.27Z" transform="matrix(-1, 0, 0, 1, 380, 0)"></path><path class="cls-4" d="M176.56,252.32c-.28-.25-.15-2.29,0-4.63s.26-5,.17-6.5c-.07-1.32-.13-2.67-.2-4.05,0-.69-.06-1.38-.08-2.08l0-1.05a4.11,4.11,0,0,0,0-.41l0-.09-.05-.15c0-.05-.13,0-.18,0l-.18,0h-1c-1.43,0-2.85-.06-4.24-.13-9.7-.44-18.95-3.15-24.57-6,3.16-.73,8.53-.59,10.31.05a53.11,53.11,0,0,0,10.42,2.77c1.66.28,3.29.45,4.87.58.79.06,1.57.1,2.34.14l2.39.06,1.57,0h.78a3.52,3.52,0,0,1,0,.74c0,.94,0,1.86.05,2.77,0,1.41,0,2.77,0,4.09a55.85,55.85,0,0,1-.55,7.37A33.46,33.46,0,0,1,176.56,252.32Z" transform="matrix(-1, 0, 0, 1, 380, 0)"></path></svg>