<svg xmlns="http://www.w3.org/2000/svg" viewBox="0 0 380 600"><defs><style>.cls-1{isolation:isolate;}.cls-2,.cls-6{opacity:0.3;}.cls-3{fill:#ce1141;}.cls-4{fill:#13274f;}.cls-5{mix-blend-mode:multiply;}</style></defs><g class="cls-1"><g data-name="Layer 14" id="Layer_14"><g class="cls-2"><path d="M264.26,233.47c-.44-.47-1.48-1.86-3-4l.55-.15a3.2,3.2,0,0,0,1.56,2.81l-.52.57a39.48,39.48,0,0,0-6-6.19,38.3,38.3,0,0,0-9.19-5.65l.76-1L260,232.64l-1.16,1.08a62.49,62.49,0,0,0-15.87-11.31,187.23,187.23,0,0,0-19.23-8.25l.77-1.87c10.3,4.45,19.94,10.85,27.06,19l7,8L250,233a107.75,107.75,0,0,0-20.21-11.64,114.59,114.59,0,0,0-17.89-6.24,118.9,118.9,0,0,0-14.46-2.81L198,209a121.14,121.14,0,0,1,22.22,7.44,92.25,92.25,0,0,1,20.46,12.8l15.76,13-18.09-9.48a164.92,164.92,0,0,0-24.82-10.49c-8.59-2.86-17.46-5.11-26.42-7.14l1-4.78a93.92,93.92,0,0,1,21.44,6.56,74.35,74.35,0,0,1,18.83,12.41l16.09,14.45-19.1-10.17a178.13,178.13,0,0,0-21.79-10.17,88,88,0,0,0-22.54-5.27l1-5.48c5.9,1.67,11.67,3.39,17.22,5.58a85.09,85.09,0,0,1,15.71,8.1c1.35.88,2.66,1.81,4,2.74L231.51,238l-14.92-3.76c-7.47-1.89-15-3.66-22.49-5.89a141.32,141.32,0,0,1-21.85-8.43l2.75-5.32c2.61,1.41,5.26,2.68,8,3.83s5.55,2.19,8.43,3.35a65.52,65.52,0,0,1,8.54,4.11,63.75,63.75,0,0,1,7.75,5.41l9.4,7.59-11.86-2.32a171.18,171.18,0,0,1-22-5.51,173.57,173.57,0,0,1-20.37-8.73l2.56-5.25c5.3,2.61,10.59,5.16,15.76,7.93s10.13,5.77,14.92,8.85l14.34,9.22L194,238.92a124.15,124.15,0,0,1-15.88-4.79,90,90,0,0,1-14.29-7.42l2.83-4.46c7.72,5.09,14.64,10.3,21.19,15.46l8,6.34-10-1.94a88.1,88.1,0,0,1-13.93-3.64,58.22,58.22,0,0,1-12.16-6.3l2.46-3.79a37.52,37.52,0,0,1,8.16,7.81,87.43,87.43,0,0,0,6.35,7.26l-2.63,3.18c-1.66-1.24-3.14-2.51-4.53-3.71l-1.13-1c-.23-.2-.48-.39-.73-.58a8.11,8.11,0,0,0-1.7-1l-.48-.18c-.06,0-.2-.07-.21-.05l.12.17a7.55,7.55,0,0,1,.43.74c.44.8.81,1.61,1.21,2.42l.58,1.12.74,1.37a22.23,22.23,0,0,0,1.54,2.46l5.69,7.6-7.9-5.11a24.45,24.45,0,0,1-4.1-3.52c-1.15-1.18-2.19-2.35-3.19-3.46a35.53,35.53,0,0,0-5.93-5.69l1.81-2.24a16.94,16.94,0,0,1,2.37,3.91c.58,1.24,1.06,2.44,1.51,3.61.88,2.35,1.6,4.56,2.24,6.79l.83,2.88-2.57-1.4a14.59,14.59,0,0,1-3.46-2.83c-.93-1-1.75-1.89-2.54-2.78s-1.55-1.72-2.32-2.48a10.44,10.44,0,0,0-2.35-1.82l1.18-1.62a7.09,7.09,0,0,1,1,1.58c.23.49.42,1,.6,1.44.35.93.63,1.82.88,2.69s.46,1.71.62,2.56a9.73,9.73,0,0,1,.23,2.72,9.14,9.14,0,0,0-.43-2.73c-.23-.84-.5-1.69-.81-2.54s-.66-1.72-1.06-2.6a10.89,10.89,0,0,0-1.54-2.61l-.31.42c4,1.91,6.75,6.68,11.08,9.11l-.56.48c-.8-2.25-1.69-4.54-2.69-6.8-.51-1.13-1.05-2.26-1.64-3.35a14.12,14.12,0,0,0-2-3l-4.92-5.1,6.16,3.57a21.41,21.41,0,0,1,3.76,2.89c1.14,1.06,2.23,2.15,3.3,3.24s2.15,2.17,3.24,3.18a19.4,19.4,0,0,0,3.37,2.63l-2.1,2.36a28.4,28.4,0,0,1-2-3l-.87-1.48-.46-.79-.64-1.18-1.32-2.4c-.46-.82-.88-1.61-1.49-2.53s-1.3-1.94-2.05-3L156,232.58c.87,0,1.21-.17,1.36-.34l0-.07s0,0,0,0l.22.06.86.22,1.64.45c1,.3,2,.56,3,.91l.76.27.79.35a15.09,15.09,0,0,1,1.66.83c.56.28,1.17.71,1.76,1.06s1.22.85,1.83,1.31,1.24.95,1.83,1.43l1,.84c1.36,1.1,2.68,2.15,4,3.07l-3.15,3.82a95.66,95.66,0,0,1-7.36-8,31.65,31.65,0,0,0-6.78-6.15l3.08-4.75a53.36,53.36,0,0,0,12.7,6.06,104.18,104.18,0,0,0,11.6,2.77L184.5,242l-4.2-3.29c-5.54-4.38-11.16-8.47-16.54-12.11l2.8-4.42a84.2,84.2,0,0,0,14,7.35,124.59,124.59,0,0,0,14.65,4.49l-1.7,4c-4.94-3.24-9.92-6.28-15-9s-10.15-5.24-15.09-7.72L165,218a163.52,163.52,0,0,0,20.31,8.82,168.53,168.53,0,0,0,20.79,5.29l-1.22,2.61a57.19,57.19,0,0,0-7.38-5.2,60.66,60.66,0,0,0-8.08-3.89c-2.78-1.13-5.62-2.19-8.4-3.39s-5.47-2.52-8.07-3.93l1.19-2.3a136.44,136.44,0,0,0,21.53,8.39c7.31,2.2,14.68,4,21.93,5.82l-1,2.08a81.26,81.26,0,0,0-17.13-9.76,161.25,161.25,0,0,0-18.43-6.15l.43-2.25a92.19,92.19,0,0,1,24.08,5.76,185.93,185.93,0,0,1,21.68,10.21l-1.39,2a70.11,70.11,0,0,0-18.14-11.92A90.84,90.84,0,0,0,187.43,214l.56-2.63a278.81,278.81,0,0,1,27.07,7.4,168.77,168.77,0,0,1,25,10.71l-1.7,2.53a89.49,89.49,0,0,0-19.68-12.45,119.39,119.39,0,0,0-21.49-7.36l.64-3.24a122.22,122.22,0,0,1,28.76,7.74,111.92,111.92,0,0,1,25,14l-2.2,2.37a69.19,69.19,0,0,0-16.94-13.87,85,85,0,0,0-9-4.64l1.12-2.72A188.71,188.71,0,0,1,242.88,220,64.5,64.5,0,0,1,260,232.54l-1.33,1.23-11.17-13.14-1.68-2,2.33,1.08a38.46,38.46,0,0,1,9.41,6.23,37.37,37.37,0,0,1,5.68,6.41l.44.62-.63-.41a3.63,3.63,0,0,1-1.65-3.29l0-.19.1.15Z"></path></g><path class="cls-3" d="M176.38,138.22c.59.16,1.17-.72,1.16-1.5a3.48,3.48,0,0,0-.77-2c-3.4-5-8.65-8.34-14-7s-10.3,8.48-9.34,15.16"></path><path d="M153.33,142.9c-.3,0-.56-.44-.8-1.11a8.6,8.6,0,0,1-.29-2.55,25.68,25.68,0,0,1,1-5.41,13.09,13.09,0,0,1,7.06-8.92,13.3,13.3,0,0,1,4.21-1.15,12.78,12.78,0,0,1,7,1.35,14.83,14.83,0,0,1,4.88,3.92,16.13,16.13,0,0,1,2.69,4.68,6.2,6.2,0,0,1,.44,1.58,4.14,4.14,0,0,1-.11,1.58,3.21,3.21,0,0,1-.71,1.28,1.3,1.3,0,0,1-1.11.54c-.21-.14-.28-.51-.45-.82a2.12,2.12,0,0,0-.62-.85,2.29,2.29,0,0,0-.94-.46,8,8,0,0,1-.92-.15c-1.42-.54-2.47-1.09-2.66-1.71a8.38,8.38,0,0,0-4.63-5.26,6.62,6.62,0,0,0-5.93.47,11.41,11.41,0,0,0-3.71,4.08,46.22,46.22,0,0,0-2.1,4.36,5.63,5.63,0,0,1-.55,1.15c-.19.42-.51.86-.71,1.31C153.83,141.7,153.5,142.59,153.33,142.9Z"></path><g class="cls-2"><path d="M263,214.58c-.43-.47-1.47-1.85-3-4l.55-.15a3.19,3.19,0,0,0,1.56,2.8l-.52.58a39.07,39.07,0,0,0-6-6.19,37.86,37.86,0,0,0-9.19-5.65l.76-1,11.53,12.83-1.16,1.08a62,62,0,0,0-15.87-11.31,185,185,0,0,0-19.23-8.25l.77-1.87c10.3,4.45,19.94,10.85,27.06,19l7,8-8.6-6.29a108.37,108.37,0,0,0-20.21-11.65,116.71,116.71,0,0,0-17.89-6.24,120.62,120.62,0,0,0-14.47-2.81l.64-3.26A121.09,121.09,0,0,1,219,197.54a92.66,92.66,0,0,1,20.46,12.81l15.76,13-18.09-9.49a166,166,0,0,0-24.82-10.49c-8.6-2.86-17.46-5.1-26.42-7.14l1-4.78A94.45,94.45,0,0,1,208.38,198a74.31,74.31,0,0,1,18.83,12.4l16.09,14.46-19.11-10.18a178.8,178.8,0,0,0-21.78-10.17,88.85,88.85,0,0,0-22.54-5.27l1-5.47c5.9,1.67,11.67,3.38,17.22,5.57a85.3,85.3,0,0,1,15.7,8.1c1.36.88,2.67,1.81,4,2.75l12.47,8.93-14.91-3.77c-7.47-1.88-15-3.65-22.49-5.88A140,140,0,0,1,171,201l2.75-5.31c2.61,1.41,5.26,2.67,8,3.82s5.55,2.19,8.42,3.35a63.16,63.16,0,0,1,8.54,4.12,61,61,0,0,1,7.76,5.41l9.4,7.59L204,217.65a167.93,167.93,0,0,1-22-5.51,171.86,171.86,0,0,1-20.37-8.72l2.56-5.25c5.3,2.61,10.59,5.16,15.76,7.93s10.13,5.76,14.92,8.84l14.34,9.23L192.77,220a123.63,123.63,0,0,1-15.88-4.78,91.69,91.69,0,0,1-14.29-7.42l2.83-4.47c7.72,5.1,14.64,10.31,21.19,15.47l8,6.34-10-1.95a87,87,0,0,1-13.93-3.63,57.77,57.77,0,0,1-12.16-6.31l2.46-3.79a37.75,37.75,0,0,1,8.16,7.81,82.61,82.61,0,0,0,6.35,7.26l-2.63,3.19c-1.66-1.24-3.14-2.52-4.54-3.72l-1.12-1a8.61,8.61,0,0,0-.74-.58,8,8,0,0,0-1.69-1,4.68,4.68,0,0,0-.48-.18c-.07,0-.2-.08-.21-.06l.12.17c.15.24.3.49.43.75.43.8.81,1.61,1.21,2.42l.58,1.12c.25.46.5.91.74,1.37a23.21,23.21,0,0,0,1.54,2.46l5.69,7.59-7.9-5.11a24,24,0,0,1-4.1-3.51c-1.15-1.19-2.19-2.35-3.19-3.46a35.17,35.17,0,0,0-5.94-5.69l1.82-2.24a16.69,16.69,0,0,1,2.37,3.9c.58,1.25,1.06,2.45,1.51,3.62.88,2.34,1.6,4.55,2.24,6.79l.83,2.88-2.57-1.41A14.33,14.33,0,0,1,156,230.1c-.93-1-1.75-1.9-2.54-2.78s-1.55-1.73-2.32-2.48a10.15,10.15,0,0,0-2.35-1.82L150,221.4a7.5,7.5,0,0,1,1,1.58c.23.49.42,1,.6,1.43.35.94.63,1.83.88,2.7s.46,1.71.62,2.56a9.69,9.69,0,0,1,.23,2.72,9.76,9.76,0,0,0-.43-2.73c-.23-.85-.5-1.69-.82-2.54s-.65-1.72-1-2.6a11.49,11.49,0,0,0-1.54-2.62l-.31.43c4,1.91,6.75,6.68,11.08,9.11l-.56.48c-.8-2.26-1.69-4.54-2.7-6.81-.5-1.13-1-2.25-1.63-3.34a13.86,13.86,0,0,0-2-3l-4.92-5.11,6.16,3.57a22.34,22.34,0,0,1,3.76,2.9c1.14,1,2.23,2.15,3.3,3.23s2.15,2.17,3.24,3.19a19.73,19.73,0,0,0,3.36,2.63l-2.09,2.35a27.29,27.29,0,0,1-2-3l-.87-1.48-.46-.8-.64-1.17-1.32-2.4c-.47-.82-.88-1.62-1.49-2.53s-1.3-1.94-2.05-3l-2.55-3.56c.87,0,1.21-.17,1.36-.34l0-.06s0,0,.05,0l.22,0,.86.23,1.63.44c1,.31,2,.57,3,.92l.76.27.79.34c.52.21,1.09.53,1.66.83s1.17.71,1.76,1.06,1.22.85,1.83,1.31,1.24,1,1.83,1.44l1,.83c1.36,1.1,2.68,2.16,4,3.08l-3.15,3.82a95.66,95.66,0,0,1-7.36-8,31.42,31.42,0,0,0-6.79-6.15l3.08-4.75a53.55,53.55,0,0,0,12.71,6.05,102,102,0,0,0,11.6,2.77l-2.38,5.31-4.2-3.29c-5.54-4.38-11.16-8.47-16.54-12.11l2.8-4.42a84.05,84.05,0,0,0,13.95,7.34A123.44,123.44,0,0,0,194,215.17l-1.7,4c-4.94-3.23-9.92-6.28-15-9s-10.15-5.25-15.09-7.72l1.6-3.29A165,165,0,0,0,184.09,208a166.81,166.81,0,0,0,20.79,5.3l-1.22,2.6a56.53,56.53,0,0,0-7.39-5.19,58.77,58.77,0,0,0-8.07-3.89c-2.79-1.13-5.63-2.2-8.4-3.4s-5.47-2.51-8.07-3.93l1.19-2.3a134.53,134.53,0,0,0,21.53,8.39c7.31,2.2,14.68,4,21.92,5.83l-1,2.08a81.31,81.31,0,0,0-17.13-9.77,163.16,163.16,0,0,0-18.43-6.14l.43-2.26a92.2,92.2,0,0,1,24.08,5.77A188.31,188.31,0,0,1,226,211.25l-1.39,2a69.9,69.9,0,0,0-18.15-11.92,90.79,90.79,0,0,0-20.27-6.2l.56-2.63a276,276,0,0,1,27.07,7.41,167.72,167.72,0,0,1,25,10.71l-1.7,2.53a89.59,89.59,0,0,0-19.69-12.46A120.08,120.08,0,0,0,196,193.32l.64-3.23a121.74,121.74,0,0,1,28.76,7.74,111.92,111.92,0,0,1,25,14l-2.2,2.37a69.23,69.23,0,0,0-16.94-13.88,85.22,85.22,0,0,0-9-4.63l1.12-2.73a187.53,187.53,0,0,1,18.28,8.12,64.29,64.29,0,0,1,17.14,12.58l-1.33,1.22L246.3,201.74l-1.68-2,2.33,1.09a38.73,38.73,0,0,1,9.41,6.22,38.13,38.13,0,0,1,5.68,6.41l.44.62-.63-.4a3.63,3.63,0,0,1-1.65-3.3l0-.19.1.16Z"></path></g><path class="cls-3" d="M161.79,137.68C84.17,147.1,94,219.93,94,219.93s28.56,11,54.33,8.06c35.75-15,41.15-43.56,100.37-40.3C247.07,164.59,239.79,128.21,161.79,137.68Z"></path><path d="M161.79,137.62a19,19,0,0,1,3.58-.8l3.42-.53,4.33-.47a139.79,139.79,0,0,1,23.81-.39c1.13.06,2.27.16,3.41.31l3.45.41c2.3.39,4.63.73,6.91,1.3a64.85,64.85,0,0,1,13.14,4.41,47.53,47.53,0,0,1,10.73,6.89,44.2,44.2,0,0,1,11.09,14.54,58.12,58.12,0,0,1,2.87,7.51,75.06,75.06,0,0,1,1.83,7.88c.23,1.33.43,2.66.6,4l.33,3.17.31,3.34.08.85,0,.42c0,.1-.1,0-.15.06h-1.86l-3.37,0-4.85,0c-1.31,0-2.63-.06-3.93,0l-3.92.25-3.93.24c-1.31.09-2.59.34-3.89.5l-3.88.54c-.33,0-.65.08-1,.14l-.95.22-1.91.44a75.44,75.44,0,0,0-28.23,12.48c-1.07.76-2.14,1.48-3.2,2.26l-3.16,2.38c-2.1,1.58-4.19,3.24-6.31,4.85s-4.22,3.26-6.43,4.8c-1.1.78-2.17,1.58-3.28,2.33l-3.38,2.19c-.67.42-1.3.87-2,1.26l-2.06,1.15c-1.37.76-2.71,1.58-4.12,2.28l-4.27,2-1.06.5-.83.38a3.27,3.27,0,0,1-.51.22l-.56.05-2.65.22a100.53,100.53,0,0,1-18.63-.34,140.52,140.52,0,0,1-17.84-3.13c-2.89-.7-5.75-1.46-8.57-2.31-3.06-1-4.62-1.37-10.6-3.63-.17-1.4-.34-2.79-.46-4.2l-.1-1.61,0-1.13c0-1.51-.06-3,0-4.51.06-3,.27-5.94.58-8.86a89.44,89.44,0,0,1,3.65-17,72.68,72.68,0,0,1,7-15.36,65.4,65.4,0,0,1,10.07-12.72,69.14,69.14,0,0,1,5.88-5.16,72,72,0,0,1,6.31-4.26,69.15,69.15,0,0,1,6.49-3.48c1.07-.56,2.21-1,3.3-1.42s2.18-.93,3.28-1.3a99.77,99.77,0,0,1,25.34-5.19c-5.18,1.61-11.53,3.28-17.95,6.07a85.15,85.15,0,0,0-18.56,10.52,65.09,65.09,0,0,0-13.64,14,86.3,86.3,0,0,0-7.23,12.23,67.39,67.39,0,0,0-4,9.72,75,75,0,0,0-2.58,10.14,88,88,0,0,0-1.25,10.3c-.11,1.71-.15,3.43-.15,5.13,0,.84,0,1.73,0,2.51a7.82,7.82,0,0,0,0,1,26.69,26.69,0,0,0,2.64,1c1.39.47,2.78.95,4.17,1.38,2.79.89,5.59,1.66,8.39,2.38A131,131,0,0,0,128.34,226a95.65,95.65,0,0,0,16.52.57l2-.14.87-.06c.2,0,.36-.14.63-.23l3.68-1.68,1.83-.84,1.76-1,3.49-1.92c9.19-5.36,17.11-12.19,25.48-18.17,2.13-1.46,4.19-3,6.4-4.27,1.1-.66,2.16-1.35,3.27-2l3.37-1.75,1.68-.87c.55-.3,1.15-.51,1.73-.76l3.46-1.45a29.94,29.94,0,0,1,3.51-1.25l3.53-1.12c9.48-2.68,19-3.46,28.21-3.64l5.63.07h1c.06,0,0-.12,0-.17l0-.41-.18-1.61A71,71,0,0,0,243.82,171a44.76,44.76,0,0,0-4.87-11,38.4,38.4,0,0,0-7.51-8.75,45.77,45.77,0,0,0-9.44-6.2,68.33,68.33,0,0,0-10.41-3.93,115.61,115.61,0,0,0-13.51-2.72c-5-.65-10.19-1.05-15.11-1.21C173.13,136.89,164.59,137.54,161.79,137.62Z"></path><path d="M140.46,204.43c-.45-.65-2.85-7.69-3.65-16.24a60.35,60.35,0,0,1,.1-13,51.54,51.54,0,0,1,2.37-10.48,42.5,42.5,0,0,1,7.16-13.14,48.79,48.79,0,0,1,5.44-5.61,49.66,49.66,0,0,1,6.41-4.62c9.1-5.49,19.82-7.91,29.86-8.07a69.79,69.79,0,0,1,25.59,4.5,63.49,63.49,0,0,1,21,13,56.68,56.68,0,0,1,13,18.17,59,59,0,0,1,4.84,18.28,85.65,85.65,0,0,0-7.52-17.61,74,74,0,0,0-5.35-7.84c-1.79-2.21-3.36-4-4.47-5.27a56.5,56.5,0,0,0-15.2-12.29,64,64,0,0,0-17.38-6.61,62.5,62.5,0,0,0-33.61,1.56,53.68,53.68,0,0,0-7.18,3.08,49.84,49.84,0,0,0-6.38,4,47.49,47.49,0,0,0-5.42,4.83,41.58,41.58,0,0,0-4.35,5.49,42.23,42.23,0,0,0-5.54,12.05,53.8,53.8,0,0,0-2,12.29,83.8,83.8,0,0,0,.53,13.71c.13,1.15.27,2.27.46,3.3s.31,2,.48,2.88C140.06,202.47,140.33,203.78,140.46,204.43Z"></path><path d="M210.8,190.52c-.32-.22-.5-2.21-.65-4.48a36.92,36.92,0,0,0-1.26-6.18,97.45,97.45,0,0,0-6.14-14.79c-4.23-8.07-9.18-15.58-12.41-20.75,3.06.82,7.34,4.42,8.17,6.17,3.49,7,6.58,12.84,8.92,18.31s3.92,10.51,4.12,15.1c0,.54,0,1.19,0,1.86s-.16,1.37-.26,2C211.11,189.07,210.88,190.17,210.8,190.52Z"></path><path class="cls-4" d="M270.62,227.69c28.26,11.38,54.8-29,22.54-41.72-26.24-10.33-68.3,14.17-85.33,32.57A134.84,134.84,0,0,1,270.62,227.69Z"></path><path d="M270.6,227.74c-1.1.17-9.59-3.06-19.82-5.21a138.21,138.21,0,0,0-15.67-2.41,104.55,104.55,0,0,0-12.94-.44c-1.09,0-2.18.06-3.29.14l-1.67.11-1.27.06-1.39.1-5.9.52-6.35.62.17-.35.46-.5.95-1,1.92-2.08c.65-.69,1.3-1.39,2-2.08l2.12-2.15c.7-.72,1.47-1.45,2.28-2.18l1.79-1.62c1-.85,1.94-1.71,2.94-2.52a128.46,128.46,0,0,1,12.64-9.21,125,125,0,0,1,28-13.59,77.41,77.41,0,0,1,16.16-3.55,46.93,46.93,0,0,1,16.71,1.15,41.23,41.23,0,0,1,4,1.32l1.92.87a15.62,15.62,0,0,1,1.88.93l1.84,1.06c.6.36,1.17.82,1.75,1.22l.87.63c.28.22.54.48.81.71.53.49,1.08.95,1.58,1.48a21.5,21.5,0,0,1,4.64,7.33,19.83,19.83,0,0,1,1.21,8.4,24.84,24.84,0,0,1-1.89,7.81,28.84,28.84,0,0,1-3.91,6.54,30.9,30.9,0,0,1-5.16,5.13,31.89,31.89,0,0,1-5.93,3.65,28.54,28.54,0,0,1-12.63,2.71,27.07,27.07,0,0,1-11.16-2.7,33.29,33.29,0,0,0,11.13.1,28,28,0,0,0,11.11-4.56,29.08,29.08,0,0,0,4.4-3.68c.61-.69,1.27-1.3,1.78-2l.81-1,.7-1a31.55,31.55,0,0,0,3.54-6.81,16.22,16.22,0,0,0,1.14-7.8,14.57,14.57,0,0,0-3-7.16,20.38,20.38,0,0,0-6.2-5.25,30.47,30.47,0,0,0-7.67-3.15,41,41,0,0,0-8.17-1.15,55.56,55.56,0,0,0-8.17.39,77.56,77.56,0,0,0-15.51,3.75,120.31,120.31,0,0,0-26.66,13.5,128.51,128.51,0,0,0-11.15,8.29c-.85.74-1.72,1.44-2.54,2.19-.41.38-.83.76-1.21,1.14s-.75.75-1.1,1.12c-.18.18-.34.37-.51.55l-.25.28s-.13.11-.08.11l.21,0c.76-.07,1.48-.16,2.18-.2l1-.07.5,0,.61,0c1.48,0,2.95-.08,4.41-.05s2.91,0,4.34.1A115.55,115.55,0,0,1,242.38,218a98.85,98.85,0,0,1,16.76,4.69A111.6,111.6,0,0,1,270.6,227.74Z"></path><g class="cls-5"><path class="cls-6" d="M270.62,227.69c28.26,11.38,54.8-29,22.54-41.72-26.24-10.33-68.3,14.17-85.33,32.57A134.84,134.84,0,0,1,270.62,227.69Z"></path></g><path class="cls-3" d="M264.39,184.27c-17.87,4.53-34.36,15.35-49.92,27.14-21.47,16.28-70.8,54.12-99,15.29C140.53,205,213.92,189.54,264.39,184.27Z"></path><path d="M264.39,184.32c-1.26.68-13.75,2.23-28.08,4.68-7.17,1.21-14.8,2.62-21.74,4.05s-13.19,2.89-17.63,4c-7.83,2-15.91,4.27-24.07,6.76s-16.39,5.25-24.46,8.42a146.57,146.57,0,0,0-23.15,11.23l-2.62,1.72L120.19,227a1.09,1.09,0,0,0-.19.19s0,.07.08.11l.12.15.25.3.13.15.06.07.18.19,1,1.07a23,23,0,0,0,2.11,2.08c.74.63,1.46,1.3,2.22,1.9l2.35,1.67a35.08,35.08,0,0,0,9.05,4.08,38.13,38.13,0,0,0,9.89,1.22A48.48,48.48,0,0,0,157.54,239a69.7,69.7,0,0,0,9.84-2.9,122,122,0,0,0,18.47-8.85c5.87-3.4,11.47-7.08,16.85-10.85s10.53-7.65,15.75-11.28,10.39-6.94,15.55-9.87c10.31-5.87,20.61-10,30.14-11.94a138.8,138.8,0,0,0-13.77,6.89,174.24,174.24,0,0,0-14.81,9.54c-9.6,6.82-18.07,13.94-23,17.32a248.55,248.55,0,0,1-29.88,18.21,112.33,112.33,0,0,1-15.52,6.45A68,68,0,0,1,151.1,245a19.38,19.38,0,0,1-2,.09l-2,0c-1.35,0-2.69-.15-4-.23s-2.65-.35-3.95-.63l-1.94-.47-1-.24-.94-.32a38.05,38.05,0,0,1-13.42-7.68l-1.43-1.26c-.48-.42-.88-.91-1.32-1.35l-1.29-1.38c-.22-.24-.42-.42-.66-.72l-.74-.93L114.9,228l-.74-.94c-.19-.3-.73-.64-.16-.88l1.93-1.57,1-.78c.32-.27.66-.5.88-.66A91,91,0,0,1,130,215.72a202.63,202.63,0,0,1,24.9-10.48c8.22-2.86,16.27-5.29,24.1-7.42a430.17,430.17,0,0,1,44.45-9.53c6.62-1.12,15.72-2.19,23.74-2.87S262.12,184.4,264.39,184.32Z"></path></g></g></svg>