<svg xmlns="http://www.w3.org/2000/svg" id="Layer_18" data-name="Layer 18" viewBox="0 0 380 600">
  <defs>
    <style>
      .cls-1 {
        fill: #fffffe;
        opacity: .5;
      }

      .cls-1, .cls-2, .cls-3, .cls-4, .cls-5 {
        stroke-width: 0px;
      }

      .cls-3 {
        fill: #2b1d0a;
      }

      .cls-4 {
        fill: #6d5c5a;
      }

      .cls-5 {
        fill: blue;
      }
    </style>
  </defs>
  <g>
    <g>
      <path class="cls-3" d="M67.94,246.77c2.11-7.25,7.36-13.63,14.3-16.65-.92.4-35.25-14.07-52.19,16.05-14.65,26.05,1.69,36.52,3.39,48.56,2.63,18.73-17.01,22.47-20.64,24.22,7.87,2.77,17.75,3.06,23.02-2.54,2.04-2.17,3.05-1.16,1.53,1.4-4.03,6.81-9.02,11.83-13.71,15.14,20.33-1.51,29.89-6.39,39.91-15.62,8.14-7.51,12.09-24.36,10.97-35.38-.9-8.86-6.45-16.72-7.45-25.57-.36-3.23-.04-6.49.87-9.6"></path>
      <path class="cls-2" d="M68,246.79c.06.37-.12,1.43-.27,3.04-.14,1.61-.25,3.8.12,6.34.37,2.55,1.2,5.44,2.41,8.53,1.17,3.1,2.69,6.41,3.93,10.06.61,1.83,1.14,3.74,1.47,5.73.34,2,.41,4,.45,5.99-.02,3.98-.49,7.91-1.25,11.59-1.51,7.38-4.33,13.8-7.4,17.92-.32.42-.63.86-.98,1.27l-1.1,1.21c-.74.81-1.47,1.44-2.22,2.18-1.53,1.39-3.09,2.77-4.8,4.04-1.68,1.3-3.49,2.47-5.36,3.57-1.9,1.05-3.85,2.05-5.89,2.85-2.02.85-4.11,1.51-6.22,2.12-1.06.29-2.12.54-3.18.81l-2.08.43c-.92.2-1.81.33-2.71.48-1.78.24-3.56.48-5.35.71-1.76.18-3.51.36-5.27.54-1.83.18-3.66.36-5.5.54l-1.39.13c-.14.02-.17.01-.23,0h-.16s-.33,0-.33,0h-.35s-.53,0-.53,0l-1.12.03,6.93-5.15,1.67-1.25c.53-.4,1.15-.85,1.61-1.22.96-.77,2.02-1.55,2.74-2.27,1.66-1.47,2.95-2.94,4.16-4.34l.12-.13.06-.08.12-.15.23-.3.46-.59c.3-.41.61-.8.9-1.21.58-.82,1.15-1.65,1.68-2.5.27-.42.53-.86.78-1.29.3-.49.41-.72.48-.9,0-.02.04-.09.02-.06.24.08.49.14.74.18.26.04.44.11.68.14.49.04.83.09,1.17,0,.11,0,.28-.07.34-.1.04,0,.14-.12.1-.06,0,0,0,.02,0,.02-.01.03-.03.09-.04.13,0,.05,0,.07,0,.14,0,.08,0,.16.01.23.01.08.04.15.06.21.02.1.05.21.08.3.06.21.16.36.26.58.1.23.22.46.35.67l.21.31c.05.1.2.32.16.26-.01.02,0,0-.06.05-.07.06-.17.16-.28.28l-.72.7c-.49.5-1.03.92-1.58,1.33-1.1.83-2.3,1.45-3.51,1.99-.61.26-1.22.45-1.84.68l-.93.25c-.39.1-.93.26-1.41.31-.98.12-1.99.32-2.95.38-.94.02-1.93.1-2.83.06-.88-.06-1.83-.05-2.66-.17-.82-.12-1.69-.19-2.46-.35-1.58-.28-3.04-.63-4.43-1.04-1.37-.43-2.74-.86-4.11-1.29-1.45-.47-2.9-.93-4.35-1.4-.79-.28-1.58-.56-2.36-.84,1.73-.77,3.39-1.51,5.02-2.24.97-.43,1.94-.86,2.89-1.29.52-.22.96-.45,1.53-.67l1.73-.67,2.86-1.06c.91-.35,1.7-.71,2.56-1.07l2.24-1.13,2.01-1.25.91-.68.75-.62c.48-.43.94-.87,1.36-1.33,1.7-1.85,2.77-3.99,3.22-6.38.23-1.19.32-2.44.25-3.73,0-.64-.11-1.3-.17-1.95l-.37-1.76c-.67-2.4-2.03-5.02-3.41-7.8-1.39-2.78-2.81-5.77-3.88-8.97-1.05-3.24-1.62-6.67-1.72-10.1.06-3.41.45-6.8,1.39-9.92l.69-2.34c.22-.79.58-1.49.86-2.24.61-1.46,1.16-2.97,1.92-4.3.74-1.37,1.39-2.75,2.19-4.08.82-1.33,1.64-2.65,2.59-3.89.88-1.28,1.94-2.43,2.94-3.61,1.09-1.11,2.16-2.22,3.35-3.21,2.34-2,4.9-3.71,7.6-5.04,2.7-1.32,5.51-2.28,8.32-2.91,5.64-1.28,11.22-1.28,16.4-.62,1.3.17,2.58.38,3.83.62l.94.19.47.1.71.16c.94.21,1.88.42,2.78.67.92.23,1.79.49,2.65.74l.32.09c.09.04.02.15.04.22v.48s0,.47,0,.47v.12s.04.04.06.07l.13.12c.69.65,1.33,1.21,1.94,1.48-.75.63-1.34,1.42-1.58,3.14-.73.34-1.22.72-1.81,1.07-.28.18-.57.35-.82.53l-.7.56-.69.55-.17.14-.11.1-.2.19c-.27.25-.54.48-.79.74-1.03,1-1.92,2.07-2.73,3.15-1.61,2.18-2.77,4.47-3.62,6.81.23-2.33.87-4.99,2.15-7.67.64-1.34,1.42-2.69,2.38-3.99.46-.62,1.07-1.38,1.38-1.75.36-.46.72-.84,1.04-1.19.69-.73,1.28-1.23,1.74-1.54-1.53-.13-2.74-.33-3.7-.35-.48-.02-.89-.02-1.27-.01-.03.01-.35-.02-.58-.04l-.72-.06c-.48-.05-.96-.06-1.44-.1-3.83-.23-7.54-.09-10.89.42-6.74.95-11.82,3.48-14.82,5.31-3.57,2.04-6.62,4.92-9.17,8.24-.67.81-1.23,1.7-1.81,2.57-.61.85-1.09,1.82-1.62,2.74-.5.94-1.08,1.85-1.52,2.8-.42.96-.84,1.92-1.27,2.87-1.52,3.85-2.49,7.84-2.45,11.82,0,3.98,1.05,7.87,2.62,11.62.76,1.88,1.69,3.75,2.59,5.64.45.97.9,1.93,1.34,2.89l.62,1.51c.22.49.41,1.01.57,1.55l.51,1.58c.13.55.23,1.11.34,1.67l.16.83.08.82c.05.55.11,1.09.11,1.64.08,2.19-.13,4.42-.74,6.55-.6,2.13-1.58,4.16-2.88,5.91-1.3,1.75-2.85,3.25-4.53,4.51l-.64.46c-.2.15-.27.18-.41.28-.25.17-.5.32-.76.47-.52.3-1.05.58-1.59.84-1.08.52-2.21.95-3.33,1.34l-.99.34-.49.18-.24.1-.12.05s-.11.04-.03.05c.65.22,1.31.42,1.98.59,1.34.33,2.7.52,4.05.56.68.02,1.35,0,2.02-.07.33-.03.66-.07.99-.14l.49-.09.55-.15c1.9-.51,3.67-1.34,5.08-2.55l1.05-1.01c.47-.45.87-.9,1.82-1.32.22-.09.58-.2,1.02-.19.29.03.52.04.83.2.32.16.59.37.75.62.09.12.18.26.24.39.04.1.08.2.11.31.03.11.06.21.07.32l.02.23c.02.34-.02.55-.05.79-.17.86-.46,1.4-.76,1.96-1.11,1.94-2.27,3.69-3.55,5.41-.32.42-.64.86-.97,1.27l-.83,1.03c-.41.5-.77.89-1.16,1.32-.77.82-1.57,1.57-2.38,2.23l-.55.44-.28.21s-.14.09-.09.08l.19-.02c.51-.05,1.01-.11,1.52-.16.99-.13,1.96-.24,2.88-.41.46-.08.92-.15,1.36-.24.59-.12,1.18-.24,1.77-.37.82-.2,1.64-.4,2.46-.59.81-.23,1.61-.46,2.41-.69,6.37-1.92,11.98-5.06,16.81-9.1.6-.51,1.2-1.02,1.8-1.53.58-.53,1.17-1.05,1.75-1.58.5-.53,1.01-1.01,1.48-1.56.44-.58.93-1.11,1.33-1.72,1.68-2.38,3.01-5.05,4.08-7.78,2.13-5.48,3.3-11.24,3.69-16.8.09-1.65.13-3.46.02-5.33-.1-1.85-.42-3.78-.91-5.77-.97-3.98-2.6-8.13-3.76-12.19-1.19-4.04-1.75-8.06-1.45-11.23.27-3.18,1.07-5.45,1.47-6.55Z"></path>
    </g>
    <path class="cls-4" d="M41.29,283.84c-.33,0-.72-.44-1.16-1.16-.44-.72-.93-1.71-1.34-2.83-.21-.56-.43-1.13-.64-1.7-.19-.58-.37-1.16-.55-1.72-.39-1.1-.65-2.14-.95-2.86-1.02-2.56-1.64-5.51-1.74-8.57-.1-3.05.3-6.19,1.06-9.09,1.31-5.1,4.25-9.68,7.72-12.79,1.73-1.58,3.58-2.81,5.4-3.73,1.83-.92,3.58-1.5,5.33-1.78-.59,2.15-1.32,4.33-2.12,6.14-.79,1.79-1.57,3.17-2.36,3.57-1.58.79-2.99,1.8-4.2,2.95-1.2,1.16-2.2,2.45-3.01,3.8-1.6,2.73-2.39,5.67-2.64,8.44-.26,2.79-.02,5.4.32,7.81.31,2.42.82,4.63,1.03,6.78.19,1,.14,2.46.08,3.79-.04,1.32-.15,2.53-.21,2.93Z"></path>
    <path class="cls-2" d="M43.59,295.19c.47.1.68,1.16.83,2.42.09,1.25.11,2.69.24,3.51.59,2.94-.04,6.28-.91,9.16-.76,2.54-2.03,4.87-3.6,6.72-.78.92-1.64,1.72-2.53,2.38-.46.32-.9.61-1.4.86l-.35.17-.41.17-.42.15c-.22.08-.45.12-.65.14.14-.21.24-.43.29-.63.05-.2,0-.38,0-.56-.02-.35-.06-.68-.09-1.03-.06-.65-.11-1.31-.1-1.85,0-1.14.19-2,.62-2.26,1.72-1.04,2.98-2.44,3.9-3.88.88-1.46,1.45-2.97,1.77-4.44.66-2.94.59-5.53,1.12-7.73.12-.53.45-1.24.8-1.89.36-.65.73-1.23.88-1.42Z"></path>
  </g>
  <g>
    <g>
      <path class="cls-3" d="M97.42,218.55c2.71-2.23,3.71-5.93,2.46-9.21-4.41-11.55-15.73-36.96-30.01-36.58-18.47.49-34.56,16.29-30.78,32.56,4.71,20.28,45.18,24.28,45.18,24.28,0,0,5.89-5.09,13.15-11.06Z"></path>
      <path class="cls-2" d="M97.46,218.59c-.08.48-1.42,1.91-3.48,3.88-1.03.99-2.25,2.12-3.59,3.33-1.38,1.23-2.86,2.57-4.4,3.96l-.76.66-.38.33c-.07.05-.13.12-.2.16l-.25-.02c-.67-.06-1.34-.12-2.03-.2-1.07-.12-2.1-.25-3.15-.39-2.09-.29-4.16-.63-6.13-1.01-3.94-.75-7.48-1.62-10.03-2.27-4.48-1.15-9.11-2.72-13.57-5.16-2.23-1.22-4.43-2.65-6.45-4.44-2.02-1.78-3.88-3.92-5.29-6.45-2.85-5.18-3.33-11.17-2.06-16.67,1.28-5.5,4.26-10.32,7.88-14.09,6.36-6.64,15.11-10.59,23.96-11.31,1.13-.07,2.11-.16,3.52-.07,1.31.07,2.58.34,3.79.68,2.41.73,4.49,1.94,6.29,3.26,3.61,2.69,6.21,5.91,8.47,9.11,4.43,6.46,7.37,13.08,9.71,19.3.58,1.56,1.11,3.09,1.6,4.61.24.76.47,1.51.71,2.25l.17.56.19.68c.1.46.19.92.22,1.38.37,3.72-1.52,7.07-4.05,8.75.79-1.19,1.37-2.58,1.57-4.05.21-1.46.02-2.97-.53-4.26-.28-.68-.62-1.16-1.09-1.91-.44-.7-.88-1.4-1.32-2.11-.88-1.41-1.77-2.82-2.64-4.22-3.47-5.58-6.81-10.56-8.27-13.31-1.45-2.79-3.08-5.41-4.94-7.72-1.86-2.28-3.95-4.3-6.28-5.53-1.16-.62-2.37-1.06-3.6-1.24l-.93-.08c-.3-.04-.7,0-1.04-.01-.71-.01-1.42.05-2.13.09-2.83.22-5.59.85-8.2,1.8-5.21,1.92-9.82,5.12-13.12,9.16-1.68,2-2.98,4.22-3.93,6.52-.91,2.32-1.45,4.72-1.51,7.1-.05,2.36.28,4.76,1.06,6.84.78,2.1,2.02,3.98,3.51,5.62,3.02,3.27,6.86,5.64,10.77,7.47,3.92,1.85,7.94,3.22,11.88,4.37,3.94,1.15,7.83,2.06,11.6,2.84.9.18,1.88.37,2.91.58.26.05.52.1.78.15l.47.11.47.11c.09.04.15,0,.22-.05l.2-.13.41-.26.11-.07.18-.13.36-.25,1.44-1.01c.97-.66,1.92-1.32,2.85-1.96,3.72-2.53,6.99-4.63,8.07-5.3Z"></path>
    </g>
    <path class="cls-2" d="M43.89,183.3s1.51,28.24,36.89,33.88l-2.64,4.45s-44.41-6.71-34.25-38.33Z"></path>
  </g>
  <g>
    <g>
      <path class="cls-5 color-hair" d="M67.94,246.77c2.11-7.25,7.36-13.63,14.3-16.65-.92.4-35.25-14.07-52.19,16.05-14.65,26.05,1.69,36.52,3.39,48.56,2.63,18.73-17.01,22.47-20.64,24.22,7.87,2.77,17.75,3.06,23.02-2.54,2.04-2.17,3.05-1.16,1.53,1.4-4.03,6.81-9.02,11.83-13.71,15.14,20.33-1.51,29.89-6.39,39.91-15.62,8.14-7.51,12.09-24.36,10.97-35.38-.9-8.86-6.45-16.72-7.45-25.57-.36-3.23-.04-6.49.87-9.6"></path>
      <path class="cls-2" d="M68,246.79c.05.37-.14,1.42-.29,3.04-.15,1.61-.26,3.8.1,6.35.37,2.55,1.2,5.45,2.39,8.54,1.17,3.1,2.69,6.42,3.91,10.06.61,1.82,1.13,3.73,1.46,5.72.34,2,.41,3.99.44,5.98-.02,3.97-.5,7.89-1.26,11.58-1.51,7.37-4.34,13.77-7.41,17.86l-.92,1.21-1.05,1.14c-.35.4-.7.74-1.06,1.07l-1.06,1.01c-1.44,1.33-2.94,2.64-4.53,3.87-3.19,2.45-6.75,4.64-10.58,6.28-7.69,3.31-16.04,4.68-24.28,5.45l-10.74,1,8.78-6.46c1.64-1.21,3.2-2.55,4.67-4,.69-.67,1.6-1.65,1.77-1.86.11-.14.2-.28.29-.4.17-.26.29-.49.38-.7.04-.1.11-.21.03-.31-.16-.03-.28.16-.39.25-.22.21-.46.35-.67.43l-.08.03s-.07.02-.01.01h.05s.03,0,.02,0l-.37.07c-.5.1-1.02.12-1.53.16-1.01.06-2.07.2-3.02.12-.97-.03-1.97-.04-2.85-.16-.91-.1-1.84-.18-2.64-.36-.84-.15-1.68-.3-2.43-.51-1.6-.36-2.92-.83-4.39-1.28-1.52-.48-3.03-.97-4.53-1.45l-1.21-.39-.68-.24-1.39-.49c1.89-.84,3.71-1.65,5.49-2.44.52-.23,1.04-.47,1.56-.7.56-.24,1.03-.48,1.66-.72.61-.24,1.21-.49,1.82-.73l1.95-.7c.9-.32,1.63-.64,2.45-.96.8-.32,1.46-.67,2.2-1.01.71-.35,1.33-.74,2-1.1.17-.09.33-.19.49-.29l.31-.21.41-.27c1.06-.74,2.03-1.56,2.87-2.45,1.68-1.78,2.83-3.83,3.38-6.12.26-1.15.39-2.35.41-3.58-.04-.62-.01-1.24-.1-1.88l-.1-.95-.19-.86c-.47-2.27-1.62-4.75-2.92-7.35-1.3-2.59-2.72-5.38-3.85-8.35-.27-.76-.58-1.48-.8-2.26l-.66-2.34c-.23-.78-.32-1.6-.48-2.4-.15-.8-.3-1.6-.33-2.42l-.16-2.44c-.02-.81.06-1.62.09-2.43.01-1.63.33-3.19.6-4.75.61-3.1,1.59-6.04,2.79-8.79.53-1.43,1.25-2.71,1.93-4.02.68-1.3,1.34-2.61,2.16-3.85,1.53-2.53,3.38-4.87,5.39-7.02,4.05-4.27,9.06-7.56,14.36-9.38,5.28-1.88,10.72-2.48,15.82-2.29,2.56.09,5.05.37,7.45.78.6.1,1.2.21,1.79.33l.88.18,1.07.24c.91.2,1.78.43,2.65.65.44.11.85.23,1.27.35l.62.18.31.09.15.04.08.02h.04c.06-.02.08-.02-.46.35.3.33.61.69.87.95.25.24.51.5.74.68.46.38.89.75,1.3.9-.71.58-1.23,1.39-1.48,2.95-.33.18-.66.35-.99.53-.3.18-.56.37-.84.55-.54.37-1.11.71-1.56,1.09-.24.19-.45.37-.67.56-.17.14-.3.24-.44.37-.27.25-.54.5-.81.75-1.05,1.03-1.97,2.1-2.8,3.21-1.64,2.22-2.84,4.56-3.69,6.95.26-2.36.95-5.06,2.29-7.77.67-1.35,1.49-2.71,2.47-4.02.26-.32.51-.64.77-.97l.7-.82c.38-.45.74-.85,1.08-1.18.66-.67,1.24-1.14,1.69-1.43-1.25-.1-2.27-.29-3.12-.34-.46-.03-.87-.05-1.22-.05h-.26s-.12,0-.12,0l-.32-.04-1.3-.13c-1.73-.14-3.45-.25-5.13-.24-3.36-.03-6.56.29-9.44.84-5.8,1.09-10.16,3.35-12.89,4.99-3.63,2.09-6.72,5.05-9.28,8.42-1.3,1.68-2.43,3.5-3.45,5.41l-.79,1.41c-.27.47-.54.94-.73,1.43-.43.97-.85,1.94-1.28,2.91-1.5,3.92-2.42,7.98-2.32,12.01.08,4.04,1.19,7.97,2.83,11.76,1.59,3.81,3.78,7.48,5.14,11.76.39,1.03.54,2.2.78,3.3.14,1.1.23,2.19.24,3.3.02,2.21-.28,4.44-.97,6.56-.69,2.12-1.8,4.08-3.16,5.78-1.35,1.71-2.99,3.12-4.7,4.33-.21.16-.44.29-.65.44l-.33.21-.18.11c-.26.15-.52.31-.78.45-.53.29-1.07.56-1.62.81-1.1.5-2.24.91-3.38,1.3-.34.12-.68.23-1.01.36-.08.03-.17.07-.25.1-.04.02-.09.04-.11.05l.13.04.51.17c.68.22,1.36.39,2.06.54,1.38.29,2.79.45,4.18.42.7-.02,1.38-.07,2.06-.19l1.12-.23c.41-.06.82-.31,1.23-.45l1.23-.51,1.5-.88.75-.44.37-.21.24-.05.95-.22.47-.11.33-.09.66-.18c.39-.14.67-.32.99-.49.24-.22.5-.44.73-.67.23-.23.5-.44.9-.47.19-.02.51.09.64.38.14.26.16.51.17.74,0,.47-.09.9-.21,1.32-.15.44-.28.86-.45,1.31-.62,1.82-2.22,4.24-3.95,6.53-.86,1.15-1.86,2.33-2.83,3.4-.82.88-1.55,1.65-2.34,2.39-1.56,1.5-3.22,2.88-4.95,4.14l-1.12-3.12c3.46-.31,6.85-.71,10.15-1.28,3.29-.6,6.49-1.37,9.54-2.4,6.12-2.02,11.46-5.28,16.12-9.27.59-.49,1.17-.99,1.73-1.51.57-.51,1.16-1.03,1.61-1.53l.73-.75c.23-.26.45-.55.67-.83l.66-.83.6-.89c1.59-2.37,2.85-4.99,3.87-7.67,2.04-5.36,3.15-10.97,3.53-16.4.09-1.66.13-3.47.01-5.35-.11-1.86-.43-3.79-.93-5.79-.99-3.99-2.63-8.13-3.79-12.18-1.2-4.04-1.77-8.04-1.48-11.21.26-3.17,1.04-5.45,1.44-6.55Z"></path>
    </g>
    <path class="cls-1" d="M41.29,283.84c-.33,0-.72-.44-1.16-1.16-.44-.72-.93-1.71-1.34-2.83-.21-.56-.43-1.13-.64-1.7-.19-.58-.37-1.16-.55-1.72-.39-1.1-.65-2.14-.95-2.86-1.02-2.56-1.64-5.51-1.74-8.57-.1-3.05.3-6.19,1.06-9.09,1.31-5.1,4.25-9.68,7.72-12.79,1.73-1.58,3.58-2.81,5.4-3.73,1.83-.92,3.58-1.5,5.33-1.78-.59,2.15-1.32,4.33-2.12,6.14-.79,1.79-1.57,3.17-2.36,3.57-1.58.79-2.99,1.8-4.2,2.95-1.2,1.16-2.2,2.45-3.01,3.8-1.6,2.73-2.39,5.67-2.64,8.44-.26,2.79-.02,5.4.32,7.81.31,2.42.82,4.63,1.03,6.78.19,1,.14,2.46.08,3.79-.04,1.32-.15,2.53-.21,2.93Z"></path>
    <path class="cls-2" d="M43.59,295.19c.46.11.72,1.3.8,2.71.08,1.4-.02,2.99.08,3.91.38,3.28-.54,6.93-1.69,10.04-.99,2.74-2.49,5.23-4.22,7.21-.87.99-1.8,1.86-2.76,2.58-.48.36-.97.68-1.48.96-.51.26-1,.56-1.72.68.23-.81.07-1.54.07-2.25-.03-.71-.02-1.39.03-2.01.1-1.23.37-2.2.84-2.49,3.79-2.45,5.68-5.99,6.62-9.17.97-3.23,1.02-6.11,1.69-8.52.26-1.14,1.46-3.19,1.73-3.65Z"></path>
  </g>
  <g>
    <g>
      <path class="cls-5 color-hair" d="M97.46,218.52c2.69-2.21,3.68-5.88,2.44-9.13-4.39-11.53-15.73-37-30.03-36.63-18.47.49-34.56,16.29-30.78,32.56,4.71,20.28,45.18,24.28,45.18,24.28,0,0,5.91-5.11,13.19-11.09Z"></path>
      <path class="cls-2" d="M97.47,218.54c-.38.7-5.65,5.32-11.78,10.62l-.63.54-.39.33-.19.16c-.06.07-.16,0-.24.01-.58-.06-1.17-.13-1.76-.19-1.04-.13-2.08-.27-3.11-.43-2.07-.31-4.12-.68-6.07-1.09-3.9-.8-7.39-1.73-9.88-2.46-4.38-1.29-8.87-2.96-13.14-5.41-4.24-2.42-8.4-5.73-10.97-10.42-2.56-4.73-2.99-10.31-1.78-15.39,1.22-5.1,4.02-9.59,7.45-13.13,6.03-6.23,14.32-9.96,22.67-10.67,1.06-.07,2.04-.16,3.22-.09,1.14.05,2.25.28,3.32.57,2.14.62,4.03,1.7,5.71,2.91,3.36,2.45,5.91,5.5,8.15,8.57,4.4,6.2,7.47,12.66,9.98,18.73.62,1.52,1.2,3.02,1.74,4.5.26.74.53,1.47.78,2.2.25.68.53,1.56.62,2.37.47,3.32-1.11,6.47-3.39,8.14.86-.96,1.59-2.18,1.97-3.57.4-1.38.41-2.93,0-4.36-.2-.73-.52-1.37-.9-2.12-.37-.73-.73-1.47-1.11-2.21-.76-1.47-1.53-2.96-2.28-4.42-3.05-5.84-6.27-11.07-7.92-13.81-1.63-2.78-3.44-5.4-5.48-7.73-2.04-2.3-4.33-4.35-6.94-5.6-1.3-.63-2.66-1.06-4.05-1.22-1.35-.12-2.9-.02-4.34.11-2.91.31-5.75,1-8.42,2.02-5.32,2.06-10,5.38-13.39,9.54-1.72,2.06-3.06,4.36-4.05,6.74-.94,2.4-1.53,4.9-1.59,7.38-.06,2.47.25,4.95,1.06,7.18.81,2.23,2.1,4.23,3.65,5.96,3.12,3.44,7.06,5.91,11.03,7.82,3.98,1.92,8.06,3.33,12.05,4.49,4,1.15,7.92,2.04,11.74,2.77.91.16,1.9.34,2.95.52.52.09,1.06.17,1.6.26l.53.09c.16.02.26-.16.39-.22,1.81-1.4,3.7-2.85,5.46-4.21,3.56-2.71,6.66-5.02,7.69-5.76Z"></path>
    </g>
    <path class="cls-2" d="M43.89,183.3s1.85,30.05,47.76,39.99l-3.62,2.89s-54.31-11.26-44.15-42.88Z"></path>
  </g>
</svg>