<svg xmlns="http://www.w3.org/2000/svg" id="outfits_springbreak" viewBox="0 0 380 600"><defs transform="matrix(-1, 0, 0, 1, 380, 0)"><style>.cls-1{fill:blue;}.cls-2{opacity:0.4;}</style></defs><path class="cls-1 color-hair" d="M255.11,236.75c-15.42,9.36,10.59,20.23,8.38,30-1.86,8.18-19.94,15.42-15.36,24.6,1.12,2.24,3.12,3.88,5.06,5.45-4.12-3.33-9.58-6.89-10.66-12.78-1.1-6.06,6.14-9.54,8.06-14.74,2.43-6.57-.7-11.66-4-17.42-1.79-3.11-5.07-9.19-3.61-12.89.81-2,2.49-3.59,3.77-5.37a15.59,15.59,0,0,0,2.82-7.48" transform="matrix(-1, 0, 0, 1, 380, 0)" /><path d="M249.6,226.12c.19.32.27,2.07-.55,4.49a15.13,15.13,0,0,1-2,3.87,36.25,36.25,0,0,0-2.79,4,5.2,5.2,0,0,0-.64,2.12,9.21,9.21,0,0,0,.25,2.36,21.27,21.27,0,0,0,1.78,4.65c1.47,2.92,3.24,5.43,4.39,7.39a25.82,25.82,0,0,1,2.67,5.59,15,15,0,0,1,.58,6.77,16.62,16.62,0,0,1-.37,1.7,10.71,10.71,0,0,1-.57,1.71,14.88,14.88,0,0,1-1.78,3.09c-1.33,1.83-2.75,3.33-3.86,4.83a12.19,12.19,0,0,0-1.28,2.16,5.12,5.12,0,0,0-.4,2,4,4,0,0,0,.06.47,2.27,2.27,0,0,0,.09.52,7.75,7.75,0,0,0,.35,1.13,9.74,9.74,0,0,0,1.14,2.16,19.64,19.64,0,0,0,3.69,3.86c1.44,1.22,3,2.37,4.66,3.64L251.37,299l-.53-.42a22.15,22.15,0,0,1-4.29-4.19,11.76,11.76,0,0,1-1.63-3.09,9.51,9.51,0,0,1-.48-3.75,12.48,12.48,0,0,1,2.5-6.23,32,32,0,0,1,3.76-4.22c2.56-2.47,5.17-4.57,7.25-6.75a14.27,14.27,0,0,0,2.46-3.21,4.25,4.25,0,0,0,.48-1.37,4.4,4.4,0,0,0,0-.64,5.5,5.5,0,0,0-.13-.74,11.28,11.28,0,0,0-1.65-3.38c-.78-1.17-1.68-2.31-2.6-3.45a84.16,84.16,0,0,1-5.45-7,16.9,16.9,0,0,1-2-4.11,7.48,7.48,0,0,1,2.43-8.38,13.68,13.68,0,0,1,1.56-1.16c.54-.34,1.08-.61,1.6-.9l-1.14,1.3c-.35.51-.76,1-1.08,1.5a6.9,6.9,0,0,0-1.25,3.44c-.08,2.37,1.64,4.39,3.46,6.3s3.92,3.68,5.65,5.43a23.37,23.37,0,0,1,3.94,4.89,16.83,16.83,0,0,1,1.47,3.39,9.28,9.28,0,0,1,.33,4.13,9.4,9.4,0,0,1-1.41,3.64,19,19,0,0,1-2.07,2.65c-2.92,3.08-6,5.29-8.72,7.76a25.27,25.27,0,0,0-3.55,3.82,7.18,7.18,0,0,0-1.6,4.2,6.59,6.59,0,0,0,1.65,4,24,24,0,0,0,3.57,3.37l-1.46,1.8a73.57,73.57,0,0,1-6.91-5.88,14.8,14.8,0,0,1-4.29-8.11,8.41,8.41,0,0,1,.8-4.72,18.29,18.29,0,0,1,2.42-3.64c1.75-2.13,3.55-4,4.45-6a11.11,11.11,0,0,0,.55-1.57,12,12,0,0,0,.31-1.65,11.06,11.06,0,0,0-.08-3.25,20.87,20.87,0,0,0-2.34-6.21c-1.06-2-2.27-4-3.34-6a28,28,0,0,1-2.52-6.48,12.09,12.09,0,0,1-.34-2.9,8.58,8.58,0,0,1,.21-1.69,7.37,7.37,0,0,1,.66-1.66c1.12-2,2.78-3.33,4-4.7a16,16,0,0,0,2.65-4.19A16.39,16.39,0,0,0,249.6,226.12Z" transform="matrix(-1, 0, 0, 1, 380, 0)" /><path d="M164.24,218.93a1.92,1.92,0,0,1-1.77-.25,5.07,5.07,0,0,1-2.25-3,7,7,0,0,1-.31-2.19,9,9,0,0,1,.35-2.14,30.39,30.39,0,0,1,1.21-3.19,43.66,43.66,0,0,0,1.55-4.11c.44-1.42.83-2.95,1.44-4.54a12.13,12.13,0,0,1,2.9-4.61,8.74,8.74,0,0,1,5.31-2.31,9,9,0,0,1,3.22.33,8,8,0,0,1,.78.27c.05,0,0,0,0,0h0s0,.06.07-.13.26-.54.41-.79a21.44,21.44,0,0,1,6.69-7.34A19.14,19.14,0,0,1,194,181.54c-1.43,1.09-3.33,2.38-4.9,3.7s-2.9,2.58-3.74,3.09A16.79,16.79,0,0,0,181.2,192a19.3,19.3,0,0,0-1.55,2.19,16.8,16.8,0,0,0-.82,1.65l-.4.92-.19.45c-.07.16-.12.33-.22.33-.44-.36-.91-.72-1.38-1.05-.23-.15-.45-.31-.68-.44l-.34-.16-.22-.1a6.26,6.26,0,0,0-1.81-.41,6,6,0,0,0-3.46.76c-2,1.2-3,3.46-3.79,5.64-.38,1.1-.71,2.21-1.11,3.31a24.24,24.24,0,0,1-1.39,3.13,19.34,19.34,0,0,0-2.2,5.23,6.38,6.38,0,0,0,.47,3.64,3.51,3.51,0,0,0,1.11,1.37A3.71,3.71,0,0,0,164.24,218.93Z" transform="matrix(-1, 0, 0, 1, 380, 0)" /><path d="M140.07,214.67c-.17,0-.54-.29-1-.84a10.86,10.86,0,0,1-.63-1.07,7.92,7.92,0,0,1-.46-1.4,9.58,9.58,0,0,1-.18-3.15c.06-.5.14-1,.22-1.41s.19-.81.26-1.13a12.67,12.67,0,0,1,3.91-6.29,12.5,12.5,0,0,1,1.59-1.2,17.27,17.27,0,0,1,1.72-.92,8.06,8.06,0,0,0,1.25-.67,1.64,1.64,0,0,0,.57-.62,8.24,8.24,0,0,0,.61-2.13,13.86,13.86,0,0,1,1-3.11,13.17,13.17,0,0,1,4-4.84,13,13,0,0,1,5-2.33,10.43,10.43,0,0,1,4.6,0,43.06,43.06,0,0,0-3.85,2.58,21.25,21.25,0,0,1-2.7,2,9.19,9.19,0,0,0-5.11,5.83,9.23,9.23,0,0,1-1.75,4c-1.15,1.16-2.55,1.45-3.49,2a11.61,11.61,0,0,0-4.45,4.43,13.22,13.22,0,0,0-1.69,5.1,15.16,15.16,0,0,0,0,2.87A12.71,12.71,0,0,0,140.07,214.67Z" transform="matrix(-1, 0, 0, 1, 380, 0)" /><path class="cls-1 color-hair" d="M282.32,207.11c2.69-3.68,2.33-9,.13-13s-6-6.91-9.83-9.31c-6.95-4.31-15.34-12.14-22.32-8.86-.41-.51-.84-1-1.28-1.52-5.56-6.26-9.75-6.49-17.51-2.48.07-4.32-3.54-6.19-7.32-6.94-9-1.8-15.86.75-24.28,3.28-7,2.1-11.53-1.29-18.58-2.12a42.54,42.54,0,0,0-15,.86c-7.31,1.77-25.76,9.86-24.33,19.48-5,1.18-10.13,1.53-14.77,4.14a15,15,0,0,0-7.82,12.51,6.25,6.25,0,0,0-11,5.37c-.83-1.35-2.94-1.35-4.2-.39C97.9,213,103.6,222.72,101,229c-2.79,6.76-10.35,7.17-16.6,7.53a10.92,10.92,0,0,0,20.7-5.27,7.47,7.47,0,0,0,10-8.46c.93,1.92,4.13,1.3,5.15-.57s.54-4.17,0-6.24a2.35,2.35,0,0,0,3.06-.28,17.06,17.06,0,0,0,11.4,6.77,13.2,13.2,0,0,0,13.09-6.78,18.78,18.78,0,0,0,33.79.93c-2.68,5.17,16.23,8.92,18.57,8.92a78.77,78.77,0,0,0,17.17-2.22,7.41,7.41,0,0,0,7.85-1.82c-.67,2.73-1.33,5.71-.19,8.29a5.15,5.15,0,0,0,5.1,3,3.64,3.64,0,0,0-.58,3.35c.63,1.78,2.29,3,3.85,4s3,2,4.69,2,3.54-1.52,3.16-3.2a4.13,4.13,0,0,0,.59.41c-1.52,2.32-1,6,.49,8.54,3.7,6.36,12,9.09,19,7.37a10.62,10.62,0,0,1-4.81-2.86,13.92,13.92,0,0,1-4.34-10.92,10.57,10.57,0,0,1,6.28-8.78l-3.1,1.08c.5-.53,1-1.05,1.53-1.54a38.62,38.62,0,0,1,17.95-9.31c5.64-1.21,12.11,2,17.28.46C306.72,219.12,289.19,197.7,282.32,207.11Z" transform="matrix(-1, 0, 0, 1, 380, 0)" /><path d="M282.28,207.08a5.22,5.22,0,0,1,1.81-1.88,6,6,0,0,1,5.24-.36,13.79,13.79,0,0,1,6.05,4.52,14.75,14.75,0,0,1,2.3,3.94,9.06,9.06,0,0,1,.6,5.08,6.87,6.87,0,0,1-3.26,4.55c-.41.26-.85.45-1.29.68l-1.36.5a11.78,11.78,0,0,1-2.94.46c-4,.15-7.87-1.08-11.77-1a13.22,13.22,0,0,0-2.87.32c-1,.23-2,.49-2.94.81a37.62,37.62,0,0,0-5.72,2.35,35.22,35.22,0,0,0-10,7.47L255,232.81l3.1-1.1.73,2a9.56,9.56,0,0,0-5.6,8.69,12,12,0,0,0,1.24,5.26c.2.41.42.8.66,1.19l.37.57c.1.15.3.43.51.7s.46.52.69.78.57.51.85.77l.11.1a.32.32,0,0,0,.17.1l.53.22,1.07.45.54.22,1.11.35,1.13.36,1.66.49a3.78,3.78,0,0,0-1.42.85.62.62,0,0,0-.21.55c.09.31.43.52.9.66l.37.08s0,0,0,0l-.08,0-.17,0-.34.07c-.44.08-.9.2-1.32.26-.86.16-1.7.28-2.52.38a21.13,21.13,0,0,1-5.31-.09c-.47-.06-1-.19-1.42-.28a10.94,10.94,0,0,1-1.39-.37,18.79,18.79,0,0,1-2-.74,17.44,17.44,0,0,1-6.49-4.84,13.83,13.83,0,0,1-1.12-1.55,10.27,10.27,0,0,1-.91-1.66,12.21,12.21,0,0,1-.94-3.46,8.23,8.23,0,0,1,1-5.35l.49,2.18-.78-.54,2.54-1.56a3.78,3.78,0,0,1-.11,2.06,4.45,4.45,0,0,1-1,1.58,5.21,5.21,0,0,1-3.07,1.53,6.59,6.59,0,0,1-3.14-.49A14.07,14.07,0,0,1,233,242a16,16,0,0,1-4.19-3.47,6.9,6.9,0,0,1-.83-1.4l-.16-.39a4,4,0,0,1-.13-.46,5.18,5.18,0,0,1-.15-.92,2.45,2.45,0,0,1,0-.43,2,2,0,0,1,0-.24,1.22,1.22,0,0,1,.18-.42c-.44-.12-.6.25-2.55-1.16a6.79,6.79,0,0,1-1.82-2.2,8.59,8.59,0,0,1-.81-2.55,7.81,7.81,0,0,1-.13-1.26l0-.28v-.38c0-.24,0-.48.07-.71s.08-.45.13-.67l0-.08s0,0-.06,0l-.13.13a2.09,2.09,0,0,1-.29.23,2.51,2.51,0,0,1-.8.33l-.1,0-.38.05c-.23,0-.52,0-.79,0a10,10,0,0,1-1.64-.09c-.27,0-.54-.08-.81-.14l-.32-.08a4.15,4.15,0,0,0-.69.15c-.87.2-1.75.39-2.63.56a81,81,0,0,1-10.76,1.49c-.91,0-1.83.1-2.76.1a17.45,17.45,0,0,1-3-.3c-1.83-.31-3.61-.69-5.4-1.14a51.93,51.93,0,0,1-5.34-1.65,25.47,25.47,0,0,1-2.67-1.14,14.88,14.88,0,0,1-1.35-.73c-.22-.13-.45-.27-.68-.43l-.34-.24c-.12-.08-.14-.11-.22-.17a.77.77,0,0,1-.28-.34.37.37,0,0,1,0-.31,3.48,3.48,0,0,1-.3.5l-.14.19-.08.11c-.12.12-.3.33-.45.49l-1,1-1.05.9a22.2,22.2,0,0,1-4.7,2.88,20.86,20.86,0,0,1-10.88,1.81,21.55,21.55,0,0,1-10.26-4,22.38,22.38,0,0,1-4.05-3.79l-.53-.65-.08-.12c-.06-.07-.1-.2-.15-.22a1.59,1.59,0,0,1-.13.22.73.73,0,0,1-.08.09c-.06.06.07,0-.34.33a16.13,16.13,0,0,1-8.65,4.1,15.14,15.14,0,0,1-4.85-.1,19.19,19.19,0,0,1-8.45-3.72c-.31-.24-.61-.47-.9-.72l-.26-.23-.11-.11s0-.06,0,0l-.07.05a.22.22,0,0,1-.14,0,1.07,1.07,0,0,0,0,.21v.22l0,.29a7.72,7.72,0,0,1-.83,2.6,6.13,6.13,0,0,1-1.69,1.93,6.63,6.63,0,0,1-2.08,1,3.5,3.5,0,0,1-.56.13l-.29.06a.28.28,0,0,1-.12,0l-.16,0s0,0-.07,0l0,0v0a.17.17,0,0,1,0,.1.84.84,0,0,1,0,.13s-.07.23-.13.41a5.1,5.1,0,0,1-.19.55,10.15,10.15,0,0,1-1,2.08,10,10,0,0,1-3.36,3.18,10.43,10.43,0,0,1-4.25,1.35l-.55.05h-.51s0,.05,0,.07v0h0l0,.07-.07.23a13.44,13.44,0,0,1-1.44,3.49,14.32,14.32,0,0,1-5.44,5.4A13.16,13.16,0,0,1,93,245.47a15.08,15.08,0,0,1-3.76-.91l-.49-.2a6.14,6.14,0,0,1-.69-.32l-1.3-.74a14.7,14.7,0,0,1-2.23-1.74,14.1,14.1,0,0,1-2.87-3.86l-2.12-3.83,5.84-.35c1-.07,1.95-.12,2.87-.24l1.4-.16.34-.05.28,0,.3-.06a14.14,14.14,0,0,0,4.36-1.41,7.38,7.38,0,0,0,2.81-2.67c.17-.28.29-.61.45-.9s.18-.58.29-.86l.18-1,.07-1.1a42.24,42.24,0,0,0-.35-5.13,32.32,32.32,0,0,1-.18-6.07c0-.55.17-1.14.26-1.71s.34-1.17.51-1.75.55-1.16.84-1.72.76-1,1.16-1.56.92-.86,1.4-1.28a6.27,6.27,0,0,1,2.29-1.12c.21-.05.41-.1.62-.13l.28,0h.1l.06-.19a9.88,9.88,0,0,1,.45-1.18,10.6,10.6,0,0,1,1.34-2.11,9.1,9.1,0,0,1,4.21-2.88,8.91,8.91,0,0,1,5.11-.07l.53.17h0s0,0,0,0h0l.09-.25a11.65,11.65,0,0,1,.42-1.12,18.5,18.5,0,0,1,1.06-2.14,17.9,17.9,0,0,1,6.71-6.54,28.76,28.76,0,0,1,8.2-3c2.44-.53,6.31-1.21,5.32-1a.13.13,0,0,1,0-.06h0c0,.08,0,.12,0,.08v-.11l.05-.29c0-.19.06-.39.1-.58l.31-1.1a13.68,13.68,0,0,1,2-3.77,25.54,25.54,0,0,1,5.47-5.3,56,56,0,0,1,12.46-6.65,47,47,0,0,1,6.72-2.11,44.25,44.25,0,0,1,6.93-1,45.63,45.63,0,0,1,6.92.11c1.12.11,2.3.26,3.45.48s2.26.5,3.33.78c2.14.59,4.12,1.22,6,1.54a13.51,13.51,0,0,0,5.34,0c.81-.19,1.86-.5,2.85-.8l3-.88c2-.58,4.09-1.14,6.21-1.56a34.83,34.83,0,0,1,12.95-.33,16.78,16.78,0,0,1,6.47,2.23,8.47,8.47,0,0,1,2.73,2.76,2.77,2.77,0,0,1,.39.82,2.22,2.22,0,0,1,0,.45c0,.23.13.07.24,0l.36-.16.38-.14c.45-.16.86-.34,1.33-.48a14.12,14.12,0,0,1,5.89-.74,11.48,11.48,0,0,1,5.52,2.28,10.87,10.87,0,0,1,1.1.88,12.77,12.77,0,0,1,1,.93c.32.31.64.62.93.95l.44.49.34.38.32.41c.06.05.09.18.17.16l.23-.08.23-.07c.06,0,0,0,0,0l.36-.07a8.2,8.2,0,0,1,1.46-.18,13.26,13.26,0,0,1,5.41,1,27.32,27.32,0,0,1,4.53,2.25c1.41.84,2.73,1.74,4,2.65L271,182c1.24.88,2.45,1.65,3.76,2.54a30.35,30.35,0,0,1,6.86,6.18,16.26,16.26,0,0,1,3.54,8.35,11.88,11.88,0,0,1-2.12,8.51,11.61,11.61,0,0,0,1.49-7.79,15.24,15.24,0,0,0-3.55-7.63,27.9,27.9,0,0,0-6.93-5.66c-1.3-.79-2.73-1.53-4.1-2.4l-4.12-2.56c-1.37-.85-2.76-1.68-4.18-2.41a22,22,0,0,0-4.32-1.81,10,10,0,0,0-4.25-.4l-.49.11-.24.06h-.06l-.14,0-.31.1-1.88.69a1,1,0,0,1-.23.08l-.16-.18-.33-.37-.65-.74-.65-.75-.31-.35-.21-.21a17.39,17.39,0,0,0-3.46-2.86,7.13,7.13,0,0,0-3.66-1.08,10.85,10.85,0,0,0-3.94.87l-1.25.53-2,1-2,1a15.78,15.78,0,0,1-1.87.89c-.08-1.31-.15-2.6-.23-3.9a7.5,7.5,0,0,0-.15-.87l-.08-.42,0-.21,0-.06a2.13,2.13,0,0,0-.3-.47,4.62,4.62,0,0,0-1.7-1.27,10.93,10.93,0,0,0-2.5-.8,27,27,0,0,0-2.88-.41,31.89,31.89,0,0,0-10.94,1c-3.47.85-6.7,2-9.78,2.86a17.63,17.63,0,0,1-5.17.73,21.89,21.89,0,0,1-4.36-.52c-2.73-.62-5.07-1.48-7.32-2a26,26,0,0,0-3.38-.61c-1.16-.14-2.33-.23-3.5-.27a37.61,37.61,0,0,0-13.68,2,53.73,53.73,0,0,0-12.5,6.11A22.3,22.3,0,0,0,145.8,181a9.2,9.2,0,0,0-1.46,2.53c-.09.22-.13.43-.21.65a2,2,0,0,0-.06.32l0,.16,0,.09v0c0,.11,0,.08,0,.11v0c0,1,.07,2.08.15,3.07a3,3,0,0,1-.76.22l-.83.18-1.64.34-1.35.26-1,.18c-1.33.24-2.63.47-3.89.75a22.87,22.87,0,0,0-6.94,2.52,13.13,13.13,0,0,0-4.88,4.85,11,11,0,0,0-.75,1.54,7.1,7.1,0,0,0-.3.81,10.33,10.33,0,0,0-.37,1.48,12.91,12.91,0,0,0-.24,1.59l-.19,1.63-.15,1.58,0,.38c0,.1-.06.1-.09.16l-.09.13-.11.24c-.88-1-1.92-2.08-2.8-3a6.27,6.27,0,0,0-1.27-1c-.19-.09-.47-.23-.58-.27l-.35-.11a4.3,4.3,0,0,0-2.54,0,4.55,4.55,0,0,0-2.07,1.48,5.91,5.91,0,0,0-.7,1.11,5.05,5.05,0,0,0-.23.61l0,.08,0,.08,0,.07a1.13,1.13,0,0,0,0,.32l0,.67a4.13,4.13,0,0,0-1.12,1.25,1.46,1.46,0,0,0-.15.48l0,.06,0,0-.06-.08a.81.81,0,0,0-.18-.12,2.14,2.14,0,0,0-1.24,0l-.43.09-.23.06-.2.2c-.16.19-.19.13-.27.16a1.42,1.42,0,0,0-.2,0,2.5,2.5,0,0,0-.38.15,1.1,1.1,0,0,0-.35.25c-.27.27-.59.49-.84.78a7.21,7.21,0,0,0-1.6,4.33c-.27,3.41.65,7.1.47,11.06a12.32,12.32,0,0,1-.51,3,9.42,9.42,0,0,1-.57,1.46,8.81,8.81,0,0,1-.75,1.34,11.5,11.5,0,0,1-4.53,4,19.25,19.25,0,0,1-5.54,1.7,4.25,4.25,0,0,1-.49.08l-.4,0c-.26,0-.52.06-.79.09l-1.59.11-.59,0c-.16,0,0,.1,0,.17l.14.26a6.15,6.15,0,0,0,.68.93,6.74,6.74,0,0,0,1.83,1.44c.17.08.34.18.52.25s.53.23.8.31a7.88,7.88,0,0,0,.83.24,5.12,5.12,0,0,0,.85.17,9.13,9.13,0,0,0,3.42-.09,9.69,9.69,0,0,0,5.59-3.69,10.43,10.43,0,0,0,1.57-3c.08-.3.16-.49.23-.86s.14-.87.18-1.33,0-.93.06-1.38v-.67c0-.19,0-.52.09-.55a24.51,24.51,0,0,0,2.48.72,3.41,3.41,0,0,0,.61.11,2.35,2.35,0,0,0,.59.05,5.53,5.53,0,0,0,.71,0,6.57,6.57,0,0,0,2.68-.91,6,6,0,0,0,2-1.95,6.44,6.44,0,0,0,.6-1.24c0-.11.07-.22.11-.33l0-.17.06-.26a4.9,4.9,0,0,0,.1-1.13,3,3,0,0,0,.91-1.34,1.37,1.37,0,0,0,.07-.29l0-.14s0-.12,0,0a.72.72,0,0,0,.36.37,2.31,2.31,0,0,0,1.26.13l.41-.06c.12-.09.23-.2.35-.3s.31-.07.47-.15a2.3,2.3,0,0,0,1.35-1,4,4,0,0,0,.41-1.31,5.7,5.7,0,0,0,0-1.11,11.53,11.53,0,0,0-.17-1.28,4.22,4.22,0,0,0,.49-1.35,4,4,0,0,0,.07-.57c0-.14-.06-.47.17-.29a1.68,1.68,0,0,0,.87,0,4.58,4.58,0,0,0,.54-.16s.1,0,.13-.07l.1-.19c0-.16.17-.14.26-.21a7.29,7.29,0,0,1,1.1-.57c.15,0,.27.11.41.16a1.64,1.64,0,0,1,.42.25,20.86,20.86,0,0,1,2,1.94c.17.18.33.34.52.51l.37.32.75.59a15.29,15.29,0,0,0,6.87,2.9,11.67,11.67,0,0,0,7.07-1.12,12.47,12.47,0,0,0,3-2.07,5.09,5.09,0,0,0,.42-.45l.47-.53a15,15,0,0,0,.86-1.24c.57-.88,1.11-1.78,1.59-2.62a.25.25,0,0,1,.11,0l.1.21.21.41.41.82c.27.55.59,1.12.88,1.67a18.24,18.24,0,0,0,1.8,2.67,18,18,0,0,0,3.44,3.15,17.71,17.71,0,0,0,8.53,3.22,17.07,17.07,0,0,0,8.8-1.6,19.06,19.06,0,0,0,3.8-2.37,21.14,21.14,0,0,0,1.63-1.5l.4-.45c.19-.2.38-.42.56-.65.36-.48.69-1,1-1.5a1.89,1.89,0,0,0,.69-.09l.59-.13a7.66,7.66,0,0,0,.76-.48.63.63,0,0,0-.08.89,7,7,0,0,0,2,1.58h.25a.25.25,0,0,1,.19,0l.24.17a4.39,4.39,0,0,0,.51.32,11.51,11.51,0,0,0,1.1.6c.75.37,1.56.7,2.37,1a50.43,50.43,0,0,0,5,1.54c1.7.43,3.42.8,5.12,1.09l1.25.18.55,0h.6c.86,0,1.72-.05,2.58-.1a80.85,80.85,0,0,0,10.21-1.39c.84-.17,1.68-.34,2.51-.53l.8-.19.48-.1c.16-.06.32.06.47.08l.5.14.29.06.51.09a6.15,6.15,0,0,0,1.05,0,3.44,3.44,0,0,0,.54,0,1.09,1.09,0,0,0,.32,0l.48-.12.25-.06.26-.16.52-.31c.18-.12.42-.36.63-.54s.4-.35.68-.62c1-.92,2.24-2.13,3.64-3.53,0,.19-.05.46-.05.58v.35c0,.1,0,.26,0,.31l0,.14s0,.11,0,.12h.06s.07,0,.05.06l-.1.42c-.27,1.14-.54,2.28-.8,3.41a30,30,0,0,0-.64,3.42,5.4,5.4,0,0,0-.06.77v.35c0,.11,0,.16,0,.24a8.08,8.08,0,0,0,.08.86,5.5,5.5,0,0,0,.47,1.5,3.27,3.27,0,0,0,.9,1.08,4,4,0,0,0,.61.4l.17.09.33.11.16.06h.71c.67,0,1.4,0,2.14-.08l1.06-.08c.3,0,.7-.1.8,0-.45.63-1,1.51-1.5,2.3-.24.4-.46.77-.65,1.13a1.62,1.62,0,0,0-.29.82,1.53,1.53,0,0,0,.05.32,1.69,1.69,0,0,0,.11.31,3.75,3.75,0,0,0,.42.72,13.29,13.29,0,0,0,3.3,2.69,5.8,5.8,0,0,0,3.36,1.3,2,2,0,0,0,1.11-.55c.28-.3.31-.5.28-.62l-.94-4,3.62,2.36.4.28,1.37,1-.85,1.31a5.12,5.12,0,0,0-.59,3.33,8.8,8.8,0,0,0,1.25,3.61,13.87,13.87,0,0,0,5.95,5.26,18.12,18.12,0,0,0,1.89.75l.55.17.48.12a8.69,8.69,0,0,0,2,.16,8.26,8.26,0,0,0,1-.08l.49-.09.13,0c.06,0-.05,0-.07,0l-.23-.07a4.76,4.76,0,0,1-1.64-1,7.17,7.17,0,0,1-.83-.91l-.2-.29c-.15-.2-.28-.42-.42-.63-.26-.42-.51-.85-.73-1.3a14.78,14.78,0,0,1-1.62-5.75,12.42,12.42,0,0,1,4.68-10.66,10.55,10.55,0,0,1,2.65-1.52l1,2.84-3.12,1.06-5.67,1.92,4.11-4.36a38.65,38.65,0,0,1,18.44-10.54,24,24,0,0,1,2.85-.56,16.21,16.21,0,0,1,2.95-.07,50.85,50.85,0,0,1,5.57.77,30.26,30.26,0,0,0,5.24.59,11,11,0,0,0,2.46-.29c.39-.1.78-.25,1.18-.37s.73-.33,1.1-.49A5.71,5.71,0,0,0,297,218.4a7.94,7.94,0,0,0-.21-4.45,15.18,15.18,0,0,0-4.73-6.81,8.45,8.45,0,0,0-6.07-2.24A5.54,5.54,0,0,0,282.28,207.08Z" transform="matrix(-1, 0, 0, 1, 380, 0)" /><path class="cls-1 color-hair" d="M258.46,232.7l.73-.25C258.94,232.52,258.7,232.61,258.46,232.7Z" transform="matrix(-1, 0, 0, 1, 380, 0)" /><path d="M258.45,232.66c-.34-.88-.09-.93-.17-1.47a2.19,2.19,0,0,1,.11-1.46l9-19.5-7.27,24.9,0,.07c-.13.47-.65-.2-1.36-1.69-.73-2.37-1.15-4.07-1-3.68.62,1.25.9,1.57,1,1.53l.7,2.19c-.2,0-.06.94-.34.52C259.1,234,258.58,232.91,258.45,232.66Z" transform="matrix(-1, 0, 0, 1, 380, 0)" /><path class="cls-1 color-hair" d="M268.18,251.64a15,15,0,0,1-6.85,3.62,6.77,6.77,0,0,0,1.48.21C265.2,255.53,267.72,254,268.18,251.64Z" transform="matrix(-1, 0, 0, 1, 380, 0)" /><path d="M268.23,251.65c.44.13.55.94.21,1.79a11.81,11.81,0,0,1-1.32,2.21,5.21,5.21,0,0,1-2.78,2.16,7.84,7.84,0,0,1-3.69.26L251,256.65l9.62-4.2h0A18.3,18.3,0,0,1,267.6,251a6,6,0,0,1,.57,3.4c-.14,1-.57,1.63-1,1.62a25.31,25.31,0,0,0-5.57.35v-2.26a3.16,3.16,0,0,0,2.74-.39c.73-.44,1.18-.93,1.76-1.23a6.93,6.93,0,0,1,1.07-.37A6.77,6.77,0,0,0,268.23,251.65Z" transform="matrix(-1, 0, 0, 1, 380, 0)" /><path d="M207.07,220.93c.22-.34,2.62-.74,5.26-1.63a27.4,27.4,0,0,0,6.89-3.28c.63-.44,1.25-.92,1.87-1.4a3.69,3.69,0,0,0,.66-.63.72.72,0,0,0,.11-.39.49.49,0,0,0-.15-.33l-.23-.25-.38-.39-1.82-1.8-.45-.45-.73-.76-1.66-1.74-1.68-1.78s-.09-.07-.1-.1l.14-.05.28-.09.56-.19,1.13-.38,2.28-.76c.37-.11.81-.28,1.12-.4l.57-.22c.76-.27,1.48-.61,2.21-.92a70.9,70.9,0,0,0,13.68-8.12,89.53,89.53,0,0,0,9.88-8.85,18.75,18.75,0,0,1-2.56,6.26,16.11,16.11,0,0,1-3.79,4.45,89.09,89.09,0,0,1-11.58,6.73c-1.88.88-3.7,1.71-5.52,2.4-.45.19-.9.35-1.36.51l-1.07.39-.79.27-.38.12a1.71,1.71,0,0,0-.18.07l.15.15,2.87,2.93.88.92a6.46,6.46,0,0,1,.46.54,4,4,0,0,1,.46.78,2.61,2.61,0,0,1,.13,1.76,3.33,3.33,0,0,1-.94,1.48,13.82,13.82,0,0,1-2.06,1.49c-.66.41-1.33.8-2,1.14a24.46,24.46,0,0,1-4.05,1.68,19.78,19.78,0,0,1-4.68.86A23.3,23.3,0,0,1,207.07,220.93Z" transform="matrix(-1, 0, 0, 1, 380, 0)" /><g class="cls-2" transform="matrix(-1, 0, 0, 1, 380, 0)"><path d="M151.7,213.87c3.63.91,7.08-7.25,11.42-7.32a11.51,11.51,0,0,1,1.09-8.91,10.62,10.62,0,0,1,6.14-4.61c3.45-.93,5.54,1.06,8.57-1.69,3.54-3.22,2.52-7.15-2.53-7.66a7.25,7.25,0,0,0-7,3.76c.57-1.1-7,1.37-8.35,3.35-1.76,2.56-2.32,5.44-4.23,8.07C155,201.33,143.84,211.89,151.7,213.87Z" /><path d="M151.69,213.9a2.12,2.12,0,0,1-.92-.09,3.34,3.34,0,0,1-1.72-1.1,3.52,3.52,0,0,1-.5-2.86,10.94,10.94,0,0,1,1.2-3,39.73,39.73,0,0,1,3.89-5.46l1.88-2.31a7.55,7.55,0,0,0,.7-1,9.72,9.72,0,0,0,.51-.92c.56-1.12,1-2.36,1.49-3.68.26-.65.53-1.33.86-2,.17-.34.35-.68.54-1,.11-.18.18-.31.32-.52a3.66,3.66,0,0,1,.52-.61,9.85,9.85,0,0,1,2-1.47,22.08,22.08,0,0,1,2.06-1c.71-.3,1.41-.58,2.16-.82a11.61,11.61,0,0,1,1.17-.33l.33-.07.3-.05a.12.12,0,0,1,.08,0s0,0,0,0l0-.12,0-.05.32-.4a8,8,0,0,1,.7-.73,8.47,8.47,0,0,1,1.6-1.2,9,9,0,0,1,3.8-1.22,7.77,7.77,0,0,1,2,.07,8,8,0,0,1,1.92.46,5.92,5.92,0,0,1,3.42,2.87,5.13,5.13,0,0,1,.41,3.31,7.58,7.58,0,0,1-1.19,2.69,10.37,10.37,0,0,1-1.82,1.92,7.25,7.25,0,0,1-2.49,1.39,8,8,0,0,1-2.74.31c-.8,0-1.45-.1-2-.11a6.11,6.11,0,0,0-1.57.15,7.6,7.6,0,0,0-1.54.53A8.79,8.79,0,0,0,165,200a9.63,9.63,0,0,0-.69,3.1,11.17,11.17,0,0,0,0,1.63c.13,1.07.4,2.16.55,3.12-.61.08-1.25.1-1.8.23l-.85.16a.56.56,0,0,0-.27.08l-.17.07-.34.16-.34.21a5.91,5.91,0,0,0-.69.46,32.72,32.72,0,0,0-2.64,2.27,21.71,21.71,0,0,1-2.74,2.21,6.38,6.38,0,0,1-1.65.77,5,5,0,0,1-.94.13,5.8,5.8,0,0,1-.93-.14,3.83,3.83,0,0,0,2.84-1.62,35.26,35.26,0,0,0,2.08-2.91,21,21,0,0,1,2.47-3.1,8.74,8.74,0,0,1,1.73-1.34c.21-.13.17-.11.21-.15l.06-.06a.07.07,0,0,0,0-.07c-.09-.22-.11.29-.23-1a9.07,9.07,0,0,1,.06-2.26,12.37,12.37,0,0,1,2.7-6,12.53,12.53,0,0,1,5-3.56,10.4,10.4,0,0,1,2.94-.67,16.71,16.71,0,0,1,2.8.12,6.29,6.29,0,0,0,2.23-.07,4.86,4.86,0,0,0,1.85-1.05,4.62,4.62,0,0,0,1.89-3.57,3.15,3.15,0,0,0-2.64-2.47,6.33,6.33,0,0,0-4,.16,6.59,6.59,0,0,0-1.73,1,5.67,5.67,0,0,0-.71.67,2.74,2.74,0,0,0-.32.36l-.07.1-.12.16-.21.33a2.25,2.25,0,0,0-1,0c.09,0,.07-.09-.06-.13l-.24-.08-.12,0a1.71,1.71,0,0,0-.06.41c0,.14,0,.34-.07.45h-.09l-.18,0c-.25.05-.51.12-.78.2-.52.15-1,.33-1.56.53a19.54,19.54,0,0,0-2.91,1.39,6.43,6.43,0,0,0-1.16.84l-.2.2-.16.23c-.13.21-.26.43-.38.65a24.26,24.26,0,0,0-1.3,2.77,18.78,18.78,0,0,1-3.16,5.52c-1.32,1.51-2.58,2.87-3.74,4.26-.62.75-1.35,1.63-2,2.59a10.56,10.56,0,0,0-1.64,3,2.89,2.89,0,0,0-.11,1.47,2.48,2.48,0,0,0,.65,1.15A5.61,5.61,0,0,0,151.69,213.9Z" /></g><g class="cls-2" transform="matrix(-1, 0, 0, 1, 380, 0)"><path d="M229.3,225.37a2.85,2.85,0,0,0,.68.1c3.62.13,5.64-5.94,11.64-4.86a4.47,4.47,0,0,0,.85,4.18,7.29,7.29,0,0,0,4.11,2,5.51,5.51,0,0,0,4.21-.52c1.19-.84,1.62-2.82.5-3.75,4.28.53,9.39.64,12-2.79,1.26-1.66,1.26-4.62-.7-5.33a11.66,11.66,0,0,0,2.88-8.6,4.57,4.57,0,0,0-.66-2.23,3.92,3.92,0,0,0-4.18-1.26,11.54,11.54,0,0,0-4,2.31c1.05-2.32-1-5.11-3.51-5.67-6-1.37-9.35,4.09-13.74,6.61s-9.63,2.05-11,7.76C227.69,216.2,225.75,224.35,229.3,225.37Z" /><path d="M229.29,225.4a1.23,1.23,0,0,1-.39-.06,1.9,1.9,0,0,1-.34-.11l-.36-.25a3.84,3.84,0,0,1-1.21-2.19,19.81,19.81,0,0,1,.27-7.31c.13-.68.27-1.37.42-2a10.4,10.4,0,0,1,.7-2.13,7.46,7.46,0,0,1,3.09-3.24,23,23,0,0,1,3.54-1.58,24.12,24.12,0,0,0,2.71-1.16,20.36,20.36,0,0,0,4.3-3.22,24.8,24.8,0,0,1,4.92-3.73,9.5,9.5,0,0,1,6.88-.85,6.81,6.81,0,0,1,3.29,2.09,6.7,6.7,0,0,1,.59.81c.09.14.18.28.26.43l.18.37a.42.42,0,0,1,.05.17c-.08.26.14,0,.24-.09s-.1,0,.38-.2a8,8,0,0,1,1.13-.44,6.62,6.62,0,0,1,2.59-.25,5.58,5.58,0,0,1,2.61.93A4.86,4.86,0,0,1,267,203.7a7.82,7.82,0,0,1,.44,2.35,11.87,11.87,0,0,1,0,2.15,13.34,13.34,0,0,1-1.12,4.2c-.15.33-.31.66-.48,1-.09.16-.18.32-.28.47l-.16.28s0,0,0,0l.08.1a5,5,0,0,1,.67,1.7,6.39,6.39,0,0,1-.22,3.18,6.19,6.19,0,0,1-.69,1.45,8.89,8.89,0,0,1-.93,1.16,9.36,9.36,0,0,1-2.24,1.66,12.56,12.56,0,0,1-4.88,1.3,22.64,22.64,0,0,1-2.32,0l-.56,0-.28,0h-.06l-.05,0s-.14-.05-.09,0a.15.15,0,0,1,0,.09,4.69,4.69,0,0,1-1.64,2.81,5.43,5.43,0,0,1-2.73,1.09,8.37,8.37,0,0,1-2.47-.08,13.44,13.44,0,0,1-2.16-.56,7.72,7.72,0,0,1-3.82-2.77,5.38,5.38,0,0,1-.82-2.39,1.61,1.61,0,0,1,0-.41v-.14a1.92,1.92,0,0,1,.08-.3l0-.08s0,0,0,0l-.15,0a1.44,1.44,0,0,0-.31-.05,1.09,1.09,0,0,0-.41,0,3.82,3.82,0,0,0-.75.14,9.22,9.22,0,0,0-2.87,1.44,33.6,33.6,0,0,1-2.87,2,4.48,4.48,0,0,1-3.6.54,4.07,4.07,0,0,0,3-1.21c.82-.75,1.52-1.68,2.39-2.61a9.91,9.91,0,0,1,3.31-2.44,5.52,5.52,0,0,1,1.06-.36,5.46,5.46,0,0,1,1.52-.17,10.7,10.7,0,0,1,1.6,0,10.54,10.54,0,0,1,1.53.14l-.24,1.4a6.75,6.75,0,0,0-.15,1.37,1.31,1.31,0,0,0,.05.35q0,.12.06.21a2.44,2.44,0,0,0,.15.36,1.51,1.51,0,0,0,.38.47,3.72,3.72,0,0,0,.63.49,9.72,9.72,0,0,0,2.78,1,4.6,4.6,0,0,0,2.2.12,2,2,0,0,0,.37-.14.83.83,0,0,0,.23-.15,1.09,1.09,0,0,0,.21-.26c.09-.11,0-.18.19-.35a8.48,8.48,0,0,0,.6-1.65q0-.17,0-.21s0,0,0,0l.07-.07.15-.15a2.85,2.85,0,0,0,.31-.34l.39-.48c.67.09,1.31.15,1.94.22l.63.06.53,0a18.24,18.24,0,0,0,2.09,0,9.12,9.12,0,0,0,3.74-1,5.42,5.42,0,0,0,1.43-1.12,3.11,3.11,0,0,0,.52-.67,3.24,3.24,0,0,0,.33-.76,3.46,3.46,0,0,0,.09-1.62,1.79,1.79,0,0,0-.11-.35c0-.06-.05-.1-.07-.16l0-.07a.75.75,0,0,0-.13-.11,3.42,3.42,0,0,0-.28-.22l-.39-.24c-.25-.15-.54-.3-.79-.42v-.16s0-.1.06-.17l.35-.42.7-.84.31-.43.15-.21.1-.15c.12-.19.24-.39.35-.59a10.85,10.85,0,0,0,1.33-5.22,5.41,5.41,0,0,0-.44-2.41c-.64-1.24-2.55-1.54-4-1a4.49,4.49,0,0,0-.56.24l-.14.06-.2.12c-.14.07-.28.16-.41.24-.54.34-1.08.76-1.61,1.16l-1.57,1.22c-.13,0,0-.19-.14-.15s-.09,0-.2,0l-.48.2c.13-.4.22-.74.33-1.11s.23-.77.29-1a5,5,0,0,0,.24-1.37,4.38,4.38,0,0,0,0-.51c-.07-.18-.08-.17-.12-.27a4.49,4.49,0,0,0-.24-.42,4.71,4.71,0,0,0-1.42-1.32,4.26,4.26,0,0,0-1.83-.55,7,7,0,0,0-2,0c-2.63.46-4.75,2.42-6.9,4.22a24,24,0,0,1-3.49,2.57,23.53,23.53,0,0,1-3.87,1.65,25.33,25.33,0,0,0-3.45,1.35,6.07,6.07,0,0,0-2.39,2.07,4.26,4.26,0,0,0-.4.73,6.7,6.7,0,0,0-.34.86c-.21.6-.41,1.38-.61,2.09a37.67,37.67,0,0,0-1,4.44,9.49,9.49,0,0,0,.06,3.86l.11.37c.05.12.12.22.17.32a1.42,1.42,0,0,0,.39.52l.2.21.21.13Z" /></g><g class="cls-2" transform="matrix(-1, 0, 0, 1, 380, 0)"><path d="M159.2,184.51c-.31-.06-.55-1-.33-2.13a8.31,8.31,0,0,1,1.31-2.9,5.55,5.55,0,0,1,3.64-2.43,6.73,6.73,0,0,1,2.37-.06,5,5,0,0,1,.58.1s0,0,0,0a.05.05,0,0,0,0,0v0l0-.06h0l.06-.11a4.17,4.17,0,0,1,.3-.4,4.89,4.89,0,0,1,.65-.71,7,7,0,0,1,3.11-1.73,5.59,5.59,0,0,1,5.4,1.25,13.42,13.42,0,0,0-2.5,1.4c-.63.45-1.05.77-1.37.73a3.48,3.48,0,0,0-2.46.53,3.19,3.19,0,0,0-.5.39,1.1,1.1,0,0,0-.21.22,2.69,2.69,0,0,0-.29.41c-.32.66-.56,1.32-.77,1.88a12.46,12.46,0,0,0-1.77-1,2.14,2.14,0,0,0-.44-.16l-.27-.06a3.55,3.55,0,0,0-.56-.06,4.38,4.38,0,0,0-2,.39,6.33,6.33,0,0,0-2.5,2.32c-.19.32-.57.74-.87,1.21A8,8,0,0,0,159.2,184.51Z" /></g><g class="cls-2" transform="matrix(-1, 0, 0, 1, 380, 0)"><path d="M217.87,202c-.28-.15-.61-1.61-.28-3.44a5.38,5.38,0,0,1,1.3-2.61,4.77,4.77,0,0,1,2.21-1.39,2.62,2.62,0,0,1,.57-.12c.2,0,.41,0,.43,0a1,1,0,0,0,.34-.15.73.73,0,0,0,.17-.42l.45-1.12a17.35,17.35,0,0,1,1.23-2.49,8.27,8.27,0,0,1,2.14-2.4,6.91,6.91,0,0,1,3.21-1.31,5.33,5.33,0,0,1,2,.14l.5.16.24.1.12.06.06,0h0s0,0,0,0,0,0,0,0h0l0,0,.09-.16a3.72,3.72,0,0,1,.38-.64,10.19,10.19,0,0,1,.86-1.18,11.6,11.6,0,0,1,2.08-1.85,9.72,9.72,0,0,1,8.73-1.34,35.5,35.5,0,0,0-3.51,2.2,13.74,13.74,0,0,1-2.35,1.64,7,7,0,0,0-2.27,1.31,6.08,6.08,0,0,0-.9.93,4.09,4.09,0,0,0-.39.55,9.94,9.94,0,0,1-.56.93,2,2,0,0,1-1.62.94,3.61,3.61,0,0,1-1.76-.73,2.63,2.63,0,0,0-2-.23,5.28,5.28,0,0,0-3.16,2.83c-.36.65-.67,1.33-1,2l-.24.52c-.08.16-.15.33-.3.6a2.66,2.66,0,0,1-1.1,1.15,2.45,2.45,0,0,1-1,.22c-.33,0-.75,0-.82,0a2.37,2.37,0,0,0-.76.17,3.74,3.74,0,0,0-1.34,1.12,9.83,9.83,0,0,0-1.12,2.15C218.18,200.88,218,201.7,217.87,202Z" /></g><g class="cls-2" transform="matrix(-1, 0, 0, 1, 380, 0)"><path d="M233.06,232.51c-.1.11-.54.05-.87-.44a3.16,3.16,0,0,1-.37-1.89,26.52,26.52,0,0,1,.64-3.66,5.19,5.19,0,0,1,1.73-2.92,4.63,4.63,0,0,1,2.94-1,3.15,3.15,0,0,1,.53,0l.38.06.13,0s0,0,0,0l0-.12a.16.16,0,0,0,0-.06v0s0,0,0,0l.08-.22c.06-.16.12-.32.19-.48a13.44,13.44,0,0,1,1-1.79,11.16,11.16,0,0,1,2.67-2.76,9.2,9.2,0,0,1,5.93-1.88c-.59,1-1.3,2-1.86,2.83s-1,1.49-1.47,1.65a7.06,7.06,0,0,0-2.69,1.92,8.16,8.16,0,0,0-.93,1.3l-.18.35-.1.23-.11.28c-.11.39-.22.78-.32,1.16a2.74,2.74,0,0,0-.51.4,1,1,0,0,0-.31.42l-.11.21s0,.11,0,.06l0-.1a.63.63,0,0,0-.19-.37,2.63,2.63,0,0,0-1.57-.46,2.88,2.88,0,0,0-.49-.06,1.88,1.88,0,0,0-.41,0,1.94,1.94,0,0,0-.73.21,2.81,2.81,0,0,0-1,1,15,15,0,0,0-1.23,3c-.16.57-.54,1.17-.72,1.76a1.81,1.81,0,0,0-.09.81A1.28,1.28,0,0,0,233.06,232.51Z" /></g><path class="cls-1 color-hair" d="M321.82,350.85a5.14,5.14,0,0,0-.6-7.68c3.64-2.85,2.94-9.52-1.2-11.55,3.42-3.2,5.8-8,4.83-12.54s-6.15-8.24-10.49-6.46a19.63,19.63,0,0,0,1.83-18c-.9,1.76-2.29,2.44-3.94,3.3-1.83.94-3.48,2.06-5.4,2.84a53.85,53.85,0,0,1-7.42,2.28c-4.54,1.09-9.14,1.92-13.56,3.46-8.6,3-9.35,16.09-3.66,22.63a8.21,8.21,0,0,0-4.15,15.59c-6.91,6.09-1.43,12.2,3.91,16" transform="matrix(-1, 0, 0, 1, 380, 0)" /><path d="M282,360.74a8,8,0,0,1-1.84-1.1,18.74,18.74,0,0,1-3.4-3.13A11.74,11.74,0,0,1,275,354a7.59,7.59,0,0,1-.77-3.37,7.1,7.1,0,0,1,1-3.56,3.68,3.68,0,0,1,.51-.79l.45-.6c.13-.15.27-.28.4-.42l.2-.21.1-.11s.09-.07,0-.09a4.84,4.84,0,0,1-.67-.38,2.26,2.26,0,0,1-.31-.23l-.15-.12-.22-.21a8.69,8.69,0,0,1-1.57-1.91,9.52,9.52,0,0,1-1.42-4.49,8.45,8.45,0,0,1,.88-4.22,9.56,9.56,0,0,1,2.17-2.86,9.67,9.67,0,0,1,2.78-1.76,8.75,8.75,0,0,1,1-.35,2.7,2.7,0,0,1,.62-.08c.15,0,0-.1-.05-.17l-.2-.23a4.36,4.36,0,0,1-.4-.55c-.07-.12-.11-.15-.21-.33l-.34-.71a10.25,10.25,0,0,1-.61-1.46,18.2,18.2,0,0,1-1.16-6.27,17.14,17.14,0,0,1,1.15-6.47,12.49,12.49,0,0,1,4.11-5.52,10.34,10.34,0,0,1,1.51-.95c.53-.25,1.1-.52,1.61-.72,1-.36,2-.68,3-1,2-.59,4-1.07,6-1.54a81.8,81.8,0,0,0,11.2-3.14,32.34,32.34,0,0,0,4.67-2.44c.84-.48,1.73-.91,2.38-1.29l.24-.15c.08-.06.1-.06.34-.24a3.84,3.84,0,0,0,1-1.11l2.27-4.09,1.59,4.31.41,1.13.33,1.22c.1.4.23.83.3,1.21l.12.74a21.55,21.55,0,0,1,.15,5.61,21.77,21.77,0,0,1-1.28,5.35c-.45,1.18-.29.73-.34.85s-.08.07,0,.05h0l.13,0c.38.08.77.16,1.14.26a10.5,10.5,0,0,1,3.87,2.13,11.21,11.21,0,0,1,2.65,3.33,10.31,10.31,0,0,1,1.11,4,13.78,13.78,0,0,1-1.63,7.33,17.87,17.87,0,0,1-1.92,2.91c-.17.22-.36.43-.54.64l-.08.08,0,0-.08.07c-.09.1-.28.21-.32.3s.16.11.23.18l.11.11.21.23a7.7,7.7,0,0,1,1.25,1.9,8.88,8.88,0,0,1,.83,3.94,8.45,8.45,0,0,1-.84,3.53,4.37,4.37,0,0,1-.43.76l-.24.36a1.07,1.07,0,0,1-.15.18c-.16.21-.45.37-.56.54a2.09,2.09,0,0,1,.49.53c.05.06.21.34.32.54s.2.45.29.66a6.2,6.2,0,0,1,.38,2.53,5.46,5.46,0,0,1-1.82,3.82,5.43,5.43,0,0,0,.24-6.07,2.83,2.83,0,0,0-.32-.45,3.24,3.24,0,0,0-.46-.48,9.69,9.69,0,0,0-1.38-1c0-.06.05-.13.1-.19l.18-.19.37-.4c.24-.28.46-.59.7-.89a4.13,4.13,0,0,0,.35-.7c.09-.23.15-.47.23-.7a6.85,6.85,0,0,0,.06-2.92,6.42,6.42,0,0,0-1.1-2.54l-.42-.5-.23-.21-.11-.1,0,0-.1-.1-.16-.12-1.46-.87-1.46-.81c.64-.69,1.37-1.42,2.05-2.15l.51-.55a5.5,5.5,0,0,0,.38-.47c.14-.18.27-.36.39-.55a14.63,14.63,0,0,0,1.26-2.13,15.17,15.17,0,0,0,1.22-3.53,8.32,8.32,0,0,0,0-3.65,7.13,7.13,0,0,0-1.7-3.1,7.4,7.4,0,0,0-2.87-2,5.61,5.61,0,0,0-.8-.23,2.57,2.57,0,0,0-.7,0h-.83l-2.26.62-2.21.66.11-.31.05-.15,0-.08.08-.12.64-1,1.27-2c.43-.67.7-1.3,1.05-1.94a2.24,2.24,0,0,0,.16-.36l.13-.29.24-.58a18.76,18.76,0,0,0,1-9.49,2.93,2.93,0,0,0-.07-.42l-.06-.33c0-.22-.11-.44-.17-.66s-.14-.44-.21-.66l0-.16-.08.14-.18.27a3.63,3.63,0,0,1-.89.81,20.72,20.72,0,0,1-1.89,1c-1.21.61-2.38,1.32-3.62,2a37.7,37.7,0,0,1-7.72,2.78c-5.15,1.34-10.16,2.19-14.72,3.77a9.32,9.32,0,0,0-5.17,3.94,13.29,13.29,0,0,0-1.92,6.13,16.85,16.85,0,0,0,.7,6.23,11.06,11.06,0,0,0,.53,1.43l.31.69.16.34a5,5,0,0,0,.3.48c.46.67.83,1.33,1.36,2l.78,1,.39.51c.05.08.16.19.16.23l0,.17a17.68,17.68,0,0,0-4.73.29,8,8,0,0,0-2.08,1.07,7.34,7.34,0,0,0-2.66,3.58,7,7,0,0,0,.05,4.28,8.16,8.16,0,0,0,.94,1.95,7.53,7.53,0,0,0,.65.84,4.45,4.45,0,0,0,1,.87,9.16,9.16,0,0,0,1.08.7l1.11.63,0,.08-.09.09-.19.18-.38.36-.77.74a9.22,9.22,0,0,0-.76.77l-.48.58a8.51,8.51,0,0,0-.73,1.11,7.33,7.33,0,0,0-.49,1.23,6.15,6.15,0,0,0-.09,2.67,9,9,0,0,0,1,2.56,17.84,17.84,0,0,0,3.06,3.87C280.71,359.7,281.54,360.38,282,360.74Z" transform="matrix(-1, 0, 0, 1, 380, 0)" /><path d="M290.33,356.26c-.51-.46.32-3.87,1.06-7l.32,1.12c-.14-.06-.12,0-.31,0a4.07,4.07,0,0,0-.75.34,12.3,12.3,0,0,1-2.21,1.1,4.16,4.16,0,0,1-.86.21,3.65,3.65,0,0,1-2.78-.8,5.07,5.07,0,0,1-1.57-2.77,8.3,8.3,0,0,1-.14-.87c0-.29,0-.6-.06-.8a10.24,10.24,0,0,1,.06-1.36,9.22,9.22,0,0,1,.27-1.35c.06-.23.14-.46.22-.69l.19-.54a31.29,31.29,0,0,1,4.38-7.84c.48-.63,1-1.23,1.48-1.79l4.66-5.21.46,7a4.68,4.68,0,0,1,0,.53,2.59,2.59,0,0,1-.09.63,3.66,3.66,0,0,1-.3.8,3.58,3.58,0,0,1-.7.89,3.26,3.26,0,0,1-.92.58,3.34,3.34,0,0,1-.82.23l-.39,0h-.27l-.52-.05a4.89,4.89,0,0,1-3.44-2.73,3.84,3.84,0,0,1-.24-.66c0-.12-.06-.24-.08-.37l0-.13-.06-.54a13,13,0,0,1,.22-4.19,14.2,14.2,0,0,1,3.66-6.63,13.07,13.07,0,0,1,5.66-3.46,10.37,10.37,0,0,1,5.53-.15l-1.2.93-1.16,1-1.05,1c-.31.39-.64.68-.91,1-1.12,1.36-1.84,2.57-2.53,3a8.61,8.61,0,0,0-3.44,4.44l-.19.67c-.06.23-.08.45-.12.68a7,7,0,0,0-.06,1.37v.21h0l-.34.06h0l.1,0,.19-.07s0,0,0,0a.61.61,0,0,0,.15.22l.1.09h0s0,0,0,.07a2.65,2.65,0,0,0-.09.44.77.77,0,0,0,.05.43s-.11-.07-.2-.06a1,1,0,0,0-.46,0l1.88.76a23.55,23.55,0,0,0-5.28,7.91c-.14.33-.29.7-.39,1a5.13,5.13,0,0,0-.21.88,4.93,4.93,0,0,0,0,1.57,1.74,1.74,0,0,0,.41.9,1,1,0,0,0,.86.26,2.51,2.51,0,0,0,.55-.17l.9-.4a5.16,5.16,0,0,1,1.67-.43,5.66,5.66,0,0,1,.58,0,4.26,4.26,0,0,1,.62.13,3.1,3.1,0,0,1,1.07.65l.81.73-.35.88-.09.23A31.33,31.33,0,0,1,290.33,356.26Z" transform="matrix(-1, 0, 0, 1, 380, 0)" /><g class="cls-2" transform="matrix(-1, 0, 0, 1, 380, 0)"><path d="M302.85,368.52a.47.47,0,0,1-.08.51,1.1,1.1,0,0,1-1,.36,1.41,1.41,0,0,1-.7-.26,1.61,1.61,0,0,1-.48-.73,3.46,3.46,0,0,1,0-1.75c.49-2.19,1.19-5,1.9-7.83l1.22.8A14.27,14.27,0,0,1,301.9,361l-.51.31c-.21.11-.43.23-.65.33-.43.22-.87.4-1.32.58a1.74,1.74,0,0,1-1.08-.37,3,3,0,0,1-.85-.82,4.49,4.49,0,0,1-.71-2.24,8.62,8.62,0,0,1,.1-1.83,9.5,9.5,0,0,1,.34-1.46,38.21,38.21,0,0,1,1.9-5c.19-.42.39-.83.6-1.25l.32-.62c.08-.16.07-.16.11-.25l.3-.66.18-.39.08-.15,0-.06-.15.12a5.49,5.49,0,0,1-.89.57l-.13.06a.9.9,0,0,1-.19,0,5,5,0,0,1-.93,0,6.72,6.72,0,0,1-1.29-.31,5.61,5.61,0,0,1-2.26-1.45,5.71,5.71,0,0,1-1.38-2.34,6.79,6.79,0,0,1-.22-2.54,9.75,9.75,0,0,1,.49-2.19,15.92,15.92,0,0,1,1.8-3.57,24.81,24.81,0,0,1,1.5-2l1.44-1.74,2.88-3.43c1.92-2.26,3.81-4.48,5.66-6.6L310,325c-.6.39-1.19.75-1.8,1.09l-.9.49-1.31.66c-2.24,1.07-4.23,1.67-6.28,2.44.11-1.17.2-2.34.32-3.45s.21-2.18.44-3.3l.34-1.38c.07-.32.19-.63.29-.94a15.63,15.63,0,0,1,.67-1.81,25,25,0,0,1,3.75-6.25,23.08,23.08,0,0,1,10-7.18,52.07,52.07,0,0,0-3.67,3.72,30.61,30.61,0,0,0-3.31,4.64,34.91,34.91,0,0,0-2.26,4.64c-.56,1.42-.95,2.65-1.27,3.48a6.44,6.44,0,0,0-.24.61c-.06.2-.14.49-.15.41s-.09.08-.14.15a2.83,2.83,0,0,0-.28.66,1.85,1.85,0,0,0,.87-.12,5.56,5.56,0,0,0,.66-.29l.79-.39c.52-.27,1-.55,1.48-.82l1.76,2c-4,4.31-7.78,8.51-11.12,12.48a13.82,13.82,0,0,0-1.88,3.15,5.29,5.29,0,0,0-.45,3.18A2.58,2.58,0,0,0,297,344a2.78,2.78,0,0,0,1.15.78,3.45,3.45,0,0,0,.67.16,3.76,3.76,0,0,0,.87,0,5.7,5.7,0,0,0,1.3-.34c.24-.1.52-.26.79-.39l.4-.2.47-.3a3.15,3.15,0,0,0,1.83,0,5.07,5.07,0,0,0,1.19-.58l.28-.21-.16.31a4,4,0,0,0-.28.64,3.28,3.28,0,0,0-.11,1.59c-.42.53-.76,1-1.14,1.54s-.67,1-1,1.49-.62,1-.88,1.47c-.18.31-.35.63-.52,1-.68,1.27-1.28,2.56-1.81,3.83a10.58,10.58,0,0,0-1,3.56c0,.16,0,.23,0,.3a1.79,1.79,0,0,0,0,.23,1.62,1.62,0,0,0,.12.43,1.07,1.07,0,0,0,.27.36c.11.09.25.2.39.11l.6-.24.16-.08.28-.14.54-.3c.39-.24.8-.53,1.17-.79l2.79-2-1,3.14c-.71,2.17-1.66,4.7-2.5,6.84a10.82,10.82,0,0,0-.51,1.47,1.28,1.28,0,0,0,.17,1.1,1,1,0,0,0,.9.26A.57.57,0,0,0,302.85,368.52Z" /></g><g class="cls-2" transform="matrix(-1, 0, 0, 1, 380, 0)"><path d="M310.62,375.77c.06.06.09.21,0,.4a1,1,0,0,1-.73.4,1.6,1.6,0,0,1-1.56-.84,2.54,2.54,0,0,1-.24-.65,7.13,7.13,0,0,1,.11-2.28,12.73,12.73,0,0,0,.14-1.66,52.39,52.39,0,0,1,1.07-9.12l3.61,2.07-.27.27-.34.3-.4.32a11.45,11.45,0,0,1-1.14.72,9.34,9.34,0,0,1-2.38.85,9.69,9.69,0,0,1-2.15.19c-.66,0-1.4,0-2,0a32.06,32.06,0,0,1,.55-4.44,13.78,13.78,0,0,1,.67-2.06,5.1,5.1,0,0,1,.35-.73l.33-.55a9.38,9.38,0,0,1,3.16-3.08c.14,1.25.16,2.58.19,3.66,0,.54,0,1,0,1.42l0,.27s0,0,0,0h-.05c-.36,0-.76.52-1,1.13l0,.12,0,.05.09.08a.7.7,0,0,0,.23.1,1.52,1.52,0,0,0,.64,0,3.15,3.15,0,0,0,1.56-.87L313,360l-.69,2.75c-1.12,4.45-1.3,8.36-2.39,11.37a4.59,4.59,0,0,0-.38,1.3.79.79,0,0,0,.51.48A.59.59,0,0,0,310.62,375.77Z" /></g></svg>