<svg xmlns="http://www.w3.org/2000/svg" id="new" viewBox="0 0 380 600"><defs transform="matrix(-1, 0, 0, 1, 380, 0)"><style>.cls-1{fill:#ff0;}.cls-2{fill:none;}.cls-3{opacity:0.7;}.cls-4{fill:#ff4500;}.cls-5{fill:#d7dfe2;}.cls-6{opacity:0.6;}</style></defs><g id="default" transform="matrix(-1, 0, 0, 1, 380, 0)"><path class="cls-1 color-eyes" d="M123,273.48c-2.17,10.83-9,18.59-15.25,17.34s-9.56-11.05-7.39-21.88a31.45,31.45,0,0,1,3.6-9.7c.4-.69,18.63.89,19.12,1.84a10.84,10.84,0,0,1,.5,3.56A32.39,32.39,0,0,1,123,273.48Z" style="" /><path d="M123,273.47a30.28,30.28,0,0,1,.13-4.18,32.16,32.16,0,0,0-.08-3.75c0-.65-.13-1.4-.17-2.08,0-.35-.06-.68-.11-1a2.63,2.63,0,0,0-.18-.67c0-.25-.32-.29-.52-.34l-.32-.06-.48-.09c-.65-.1-1.29-.19-1.91-.25-1.22-.13-2.33-.21-3.2-.24l-6.18-.2c-1.06,0-2.13-.05-3.2,0-.53,0-1.1,0-1.55,0-.11,0-.27,0-.29.17l0,.1-.2.41-.4.88c-.26.59-.5,1.2-.72,1.81a32.16,32.16,0,0,0-1.1,3.78,32.81,32.81,0,0,0-.82,7.7,25,25,0,0,0,.68,5.71,15.49,15.49,0,0,0,2.06,4.95,6.47,6.47,0,0,0,3.53,2.76,5.86,5.86,0,0,0,4.27-.56,13.58,13.58,0,0,0,3.81-3,22.28,22.28,0,0,0,2.89-3.89,36.5,36.5,0,0,0,3.56-8.08,20.73,20.73,0,0,1-1.3,9.6c-1.23,3.36-3.5,6.22-5.13,7.26a11.6,11.6,0,0,1-6.78,2.19,8.64,8.64,0,0,1-6.1-2.93,14.41,14.41,0,0,1-3-5.31,25.61,25.61,0,0,1-1.12-5.53,36.41,36.41,0,0,1,.66-10.42,37.36,37.36,0,0,1,1.31-4.73c.27-.75.56-1.49.88-2.21.16-.36.32-.71.49-1.06l.26-.52.38-.72a1.78,1.78,0,0,1,1.67-.85l.5,0h1.07c.93,0,1.84,0,2.74.07,1.78.08,3.51.19,5.18.34s3.3.31,4.88.53c.79.12,1.57.24,2.35.4l.58.12a8.05,8.05,0,0,1,.79.22,2.25,2.25,0,0,1,.75.35c.12.07.18.2.31.26a3.87,3.87,0,0,1,.21.34,5.35,5.35,0,0,1,.25.81,8.51,8.51,0,0,1,.17,1.83c0,.54,0,1.11,0,1.7a25.09,25.09,0,0,1-.3,3.6A27.26,27.26,0,0,1,123,273.47Z" /><path class="cls-1 color-eyes" d="M235.09,281.76a20.5,20.5,0,0,1-41-.08c0-4.09,1.27-9.25,4.15-12.35.68-.73,1.37-.55,2.35-.56s28.38,2.85,29.84,3.2c1,.23,2.1.12,2.73,1C234.72,275.31,235.1,279.07,235.09,281.76Z" style="" /><path d="M235.06,281.76c-.16-.24-.24-1.55-.57-3.41a17.74,17.74,0,0,0-.81-3.09,9.45,9.45,0,0,0-.78-1.6,1.47,1.47,0,0,0-1.18-.85c-2.6-.45-5.54-.64-8.18-.9s-5-.42-6.76-.51c-3-.17-6.18-.37-9.39-.58l-4.84-.34-1.21-.08-.55,0h-1.12l-.14,0-.1.07,0,0-.14.17a13,13,0,0,0-2.07,3.74,20.44,20.44,0,0,0-1.06,4.38c-.09.75-.15,1.5-.17,2.24s.06,1.47.09,2.2.22,1.44.32,2.16.35,1.4.58,2.07a19.06,19.06,0,0,0,23.13,12.18,19.92,19.92,0,0,0,10.51-7.27,20.39,20.39,0,0,0,2.78-5.24,22.11,22.11,0,0,0,1.16-5.37,15.83,15.83,0,0,1,.3,5.8,19.07,19.07,0,0,1-2.22,6.65,19.58,19.58,0,0,1-4.3,5.23l-1.16.93-1.14.72a11.31,11.31,0,0,1-2,1,23.13,23.13,0,0,1-6.94,1.55,24.14,24.14,0,0,1-6.77-.57,22.18,22.18,0,0,1-10.95-6.31,24.71,24.71,0,0,1-3.52-4.89,23.08,23.08,0,0,1-2-5.47,22.78,22.78,0,0,1,.32-11,18.08,18.08,0,0,1,2.09-4.91c.23-.38.5-.73.76-1.09a5.74,5.74,0,0,1,1.07-1.1,2.8,2.8,0,0,1,1.65-.44c.49,0,.75,0,1.28,0,3.28.25,6.37.52,9.4.8,6,.55,11.64,1.12,16.87,1.86.63.08,1.3.18,2,.3.36.07.72.12,1.16.22s.64.16,1.07.24a4.51,4.51,0,0,1,1.37.48,2.71,2.71,0,0,1,1,1.15,9.77,9.77,0,0,1,.84,2.31A20.77,20.77,0,0,1,235.06,281.76Z" /></g><g id="sunglasses" transform="matrix(-1, 0, 0, 1, 380, 0)"><path d="M160.24,267.1c-8.19-1.31-16.37-.36-17.94,3.88l1.12-10.88c6.17-3.76,9.61-4.48,16.46-3.45s10.48,3.92,13.25,7.08l-.72,10.93S166.2,268,160.24,267.1Z" /><path class="cls-2" d="M160.24,267.1c-8.19-1.31-16.37-.36-17.94,3.88l1.12-10.88c6.17-3.76,9.61-4.48,16.46-3.45s10.48,3.92,13.25,7.08l-.72,10.93S166.2,268,160.24,267.1Z" /><path d="M160.25,267.07a3.61,3.61,0,0,1,1.7.11,13.63,13.63,0,0,1,3.38,1.27,26.74,26.74,0,0,1,3.9,2.46l.83.63.58.47c.37.3.71.58,1,.85.12.17.07-.1.09-.21v-1.1c0-.43,0-.8,0-1.08,0-2,0-4.11,0-6.23a1.07,1.07,0,0,0-.19-.18l-.58-.55c-.41-.37-.82-.73-1.25-1.07a17.94,17.94,0,0,0-2.73-1.77,20.9,20.9,0,0,0-6.23-2,31.15,31.15,0,0,0-6.51-.46,15.19,15.19,0,0,0-4.48.95c-.72.26-1.43.59-2.14.93l-1.06.55-1,.55-.24.14h0l0,.25c-.09.82-.18,1.62-.28,2.42,0,.4-.09.79-.14,1.18l-.07.59,0,.29c0,.05,0,0,0,0a1,1,0,0,0-.07.18c0,.1-.16.5-.09.34a.59.59,0,0,1,.21-.1l.17,0c.41-.14.82-.3,1.23-.41a17.86,17.86,0,0,1,2.37-.49,26.55,26.55,0,0,1,4.4-.17,35.37,35.37,0,0,1,7.4,1.15c-2.3.43-5.47.77-8.34,1.41A31.55,31.55,0,0,0,148.1,269c-.54.22-1,.4-1.46.61l-.16.07-.08,0,0,0-.16.08-.71.57-.67.53-.31.25-.16.12-.18.37-1.09-.3a5.47,5.47,0,0,0-.78-.25c-.12,0-.08,0-.1,0s0,0,0,0l-.15-.07-.27-.16a4.14,4.14,0,0,1-.89-.73c.16-1.19.33-2.38.5-3.55l.11-.84.09-.53.16-1q.15-1,.3-1.95l.15-1,.17-1.26a2.82,2.82,0,0,1,.13-.69l.6-.33,1.12-.62c.57-.3,1.14-.59,1.73-.86a24.58,24.58,0,0,1,3.56-1.4,19.54,19.54,0,0,1,7.3-.7,37,37,0,0,1,6.75,1.08,21.19,21.19,0,0,1,6,2.64,19.23,19.23,0,0,1,2.5,1.92c.38.35.76.7,1.11,1.06l.68.72.37.41a4.78,4.78,0,0,1,0,.53q-.17,3-.31,5.82l-.23,3.65-.14,2-.07,1c0,.3,0,.73-.13.79-1.4-1.47-2.63-2.78-3.74-3.78l-1.34-1.19c-.38-.34-.79-.68-1.2-1a32.86,32.86,0,0,0-2.62-2A16.76,16.76,0,0,0,160.25,267.07Z" /></g><path d="M172.23,301.11c.24.18.63.91,1.43,1.81a11,11,0,0,0,3.81,2.72,32.84,32.84,0,0,0,6.49,1.94c2.49.53,5.22,1,8.06,1.51a269.11,269.11,0,0,0,31.6,3.54c2.91.09,5.87.13,8.79,0a38.24,38.24,0,0,0,4.26-.35,3.91,3.91,0,0,0,2.67-1.18c1.39-1.37,2.15-4,2.65-7,.26-1.48.48-3.05.84-4.76.33-1.54.65-3.09,1-4.64l2-9.3c.3-1.38.52-2.95.88-4.66a24.78,24.78,0,0,1,.73-2.69c.16-.45.37-1,.53-1.35l.2-.44c.08-.17.15-.34.24-.5a10,10,0,0,1,.55-1,5.34,5.34,0,0,1,1.58-1.49,6.55,6.55,0,0,1,1-.47l.91-.33a16,16,0,0,0,1.72-.78,3.14,3.14,0,0,0,.88-.65,3.66,3.66,0,0,0,.51-.94c0-.12.09-.24.13-.38l.17-.49.35-1.09a13.75,13.75,0,0,0,.48-1.81,5.11,5.11,0,0,0,.08-.68.73.73,0,0,0,0-.2.44.44,0,0,0-.08-.11l-.05,0h0l-.23-.1a10.23,10.23,0,0,0-1.29-.43c-1-.28-2-.5-3.2-.74-.73-.15-1.46-.29-2.4-.56l-2.08-.58c-1.37-.39-2.74-.75-4.12-1.1-2.75-.69-5.51-1.33-8.28-1.89-5.52-1.13-11.07-2-16.61-2.65a150.1,150.1,0,0,0-31.93-1c-1.26.13-2.51.26-3.75.44l-.92.12-.65.1a.81.81,0,0,0-.34.08.48.48,0,0,0-.21.25,2,2,0,0,0-.09.3l-.2.88c-.25,1.24-.5,2.47-.76,3.69-1,4.88-2,9.61-3,14.12s-1.89,8.85-2.61,13-1.53,8.09-.62,11.36a12.14,12.14,0,0,1-1.87-5.16,54.51,54.51,0,0,1-.52-6.59,135.41,135.41,0,0,1,.43-14.32c.39-4.76.85-9.33,1.34-13.31l.39-2.86.19-1.34.12-.66.07-.38.11-.54a7.12,7.12,0,0,1,2.08-3.89,7.52,7.52,0,0,1,3.39-1.62,10.82,10.82,0,0,1,1.07-.19l.77-.09,1.44-.14c.95-.11,1.91-.17,2.86-.24q2.85-.19,5.64-.24c3.74-.06,7.4,0,11,.26,7.19.44,14.12,1.33,20.82,2.4s13.21,2.38,19.46,4c3.11.8,6.22,1.7,9.15,2.59,1.37.37,3,.67,4.5,1.08a21.36,21.36,0,0,1,2.36.75,8,8,0,0,1,2.53,1.51,5.52,5.52,0,0,1,1.41,4.42,16.38,16.38,0,0,1-.86,3.75l-.57,1.68a10.93,10.93,0,0,1-.83,1.83,7.58,7.58,0,0,1-3.08,2.88c-.57.31-1.12.55-1.67.79-.28.12-.6.24-.85.33l-.52.19a1.18,1.18,0,0,0-.72.66c-.08.15-.14.31-.21.46l-.29.69a38.11,38.11,0,0,0-1.42,6.15q-1.41,6.4-2.75,12.57c-.46,2.09-.86,3.94-1.2,6a31.59,31.59,0,0,1-1.64,6.27,12.93,12.93,0,0,1-1.75,3.09,9.45,9.45,0,0,1-2.87,2.45,5.86,5.86,0,0,1-1,.44,8.81,8.81,0,0,1-.92.26,16.15,16.15,0,0,1-1.68.3c-1.06.12-2.08.19-3.08.22a108.72,108.72,0,0,1-11.55-.41c-7.44-.62-14.49-1.6-21.21-2.79a138.37,138.37,0,0,1-18.55-4.52,22.17,22.17,0,0,1-7.82-4A8.69,8.69,0,0,1,172.23,301.11Z" transform="matrix(-1, 0, 0, 1, 380, 0)" /><g class="cls-3" transform="matrix(-1, 0, 0, 1, 380, 0)"><path class="cls-4 color-glasses" d="M175.22,256.85l-1.66,20.06c-.73,8.76-4.9,23,3.1,29.29,3.57,2.8,8.15,3.9,12.6,4.75a163.31,163.31,0,0,0,32.28,2.82c4.54,0,7.71.63,12,1.36,3.84.66,7.54-.44,9.76-3.77a19.78,19.78,0,0,0,2.41-6.59c2.92-12.51,5.24-24.91,7.45-37.55a4,4,0,0,0-3.34-4.66l-70.19-9.38A4,4,0,0,0,175.22,256.85Z" style="" /></g><path d="M172.22,301.1a2.5,2.5,0,0,1,.64.44,14.08,14.08,0,0,0,1.08.92l.73.58.9.6c.61.45,1.39.82,2.18,1.29a45.86,45.86,0,0,0,5.9,2.44,75.12,75.12,0,0,0,7.36,2,147.45,147.45,0,0,0,29.49,3c3,0,6.05-.08,9.12-.2,1.54-.05,3.09-.14,4.63-.24l2.3-.18,1.12-.11.35-.07c.06,0,.13,0,.17-.05l.1-.16.07-.12a.76.76,0,0,1,.12-.19,5,5,0,0,0,.55-.87l.52-.93a17.1,17.1,0,0,0,.94-2l.46-1,.39-1.07a70.73,70.73,0,0,0,2.61-8.95,136.15,136.15,0,0,0,2.82-18.84c.26-3.14.4-6.29.36-9.32V267a.5.5,0,0,0,0-.11.1.1,0,0,0-.08-.08l-.14,0-.62-.23c-.66-.26-1.36-.5-2.06-.74a152.6,152.6,0,0,0-15.34-4c-5.2-1.13-10.41-2.07-15.56-2.87s-10.26-1.42-15.24-1.77c-2.49-.2-4.95-.28-7.35-.29a44.63,44.63,0,0,0-6.88.44c-.55.07-1,.21-1.54.3s-.91.27-1.38.39l-.27.12h0a.34.34,0,0,0-.12,0s-.1,0-.13.07l0,.14c-.52,2.14-1,4.25-1.52,6.33-1.08,4.54-2.11,8.9-3,13.11-1.74,8.41-2.77,16.24-2.54,23.25a44.38,44.38,0,0,1-2.49-11.3,85.89,85.89,0,0,1-.2-13.54c.26-4.51.78-8.86,1.34-12.58.28-1.86.57-3.57.86-5.08.2-1,.39-1.87.56-2.7.12-.66.32-1.23.48-1.8l.06-.21a.19.19,0,0,1,.11-.17l.37-.24.69-.46,1.36-.87c.24-.13.52-.24.78-.36l.39-.18.28-.12c.7-.28,1.34-.41,2-.61a27.4,27.4,0,0,1,3.73-.59,52.28,52.28,0,0,1,6.92-.18,124.17,124.17,0,0,1,13,1.15c8.38,1.12,16.36,2.66,24,4.4q5.78,1.31,11.3,2.84c1.84.53,3.66,1.07,5.46,1.67.91.29,1.8.61,2.69.94.45.15.89.34,1.33.52.23.09.42.15.69.28l.84.39c.56.24,1.12.52,1.67.82l.42.22.21.1.11.06v.12l.05.94.09,1.87,0,.47v1c0,1.85-.06,3.67-.14,5.47-.19,3.59-.56,7.11-1,10.56a114.77,114.77,0,0,1-4.16,19.84,39.61,39.61,0,0,1-4,9.12,7.93,7.93,0,0,1-.71,1.07l-1.06,1.34c-.55,1.26-1.93,1-3,1.16l-1.28.1-1.17.08-2.31.09a176.2,176.2,0,0,1-17.63-.34,146.48,146.48,0,0,1-16.35-2,71.91,71.91,0,0,1-17.27-5.24,31.35,31.35,0,0,1-7-4.32A14.3,14.3,0,0,1,172.22,301.1Z" transform="matrix(-1, 0, 0, 1, 380, 0)" /><path d="M254.2,264.05c1.2.43.48,3.95.93,5.44a14.37,14.37,0,0,1,.56,3.83l-3.07-3.84a1.42,1.42,0,0,1,.15-.42,3.24,3.24,0,0,0,.25-.56c.08-.31.29-.81.51-1.47.12-.38.25-.76.37-1.13a2.94,2.94,0,0,1,.19-.54c0-.05,0-.07.09-.07.55,0,.9,0,1.17-.07a3,3,0,0,0,.54-.12l.08,0h0c-.08,0,.19-.07-.18.08h0l.09-.05c.09,0,.06-.05-.06.1a2.75,2.75,0,0,0-.38.76c0,.07,0-.06,0-.09a.56.56,0,0,0-.07-.16,6,6,0,0,0-1.8-1.31,4.93,4.93,0,0,1,2.75-4,3.65,3.65,0,0,1,3,.2,3.54,3.54,0,0,1,1.85,2.18,5.21,5.21,0,0,1,0,2.19,5.53,5.53,0,0,1-.47,1.28l-.91,1.62a30.32,30.32,0,0,1-1.79,3.06,9.58,9.58,0,0,1-2.35,2.44,6.13,6.13,0,0,1-3.23,1.19l-1.82.1.11-2.23c.11-2.16.1-4.09.84-5.69C251.89,265.74,253.77,264.32,254.2,264.05Z" transform="matrix(-1, 0, 0, 1, 380, 0)" /><path class="cls-5" d="M258.11,267a.57.57,0,0,1-.48.66,14.81,14.81,0,0,1-5,.64.46.46,0,0,1-.34-.1.5.5,0,0,1-.09-.36V264a1,1,0,0,1,.17-.7,1,1,0,0,1,.61-.28c1.2-.22,3.64-.42,4.66.45S258.18,265.75,258.11,267Z" style="" transform="matrix(-1, 0, 0, 1, 380, 0)" /><path class="cls-5" d="M252.52,263.63a13.92,13.92,0,0,1,1.88-.55,14.26,14.26,0,0,1,3.19.2.63.63,0,0,1,.46.2.48.48,0,0,1,.09.26,3.53,3.53,0,0,1-.08,1.41,1.39,1.39,0,0,1-.28.57,1.47,1.47,0,0,1-.86.35,11.82,11.82,0,0,1-3.13.28c-1.06-.11-.87-.85-1-1.84" style="" transform="matrix(-1, 0, 0, 1, 380, 0)" /><path class="cls-5" d="M252.79,264.51c.08,0,.16.17.23.39a6.58,6.58,0,0,0,.2.74.56.56,0,0,0,.53.31,3.08,3.08,0,0,0,.71-.06l2.12-.59a3.58,3.58,0,0,0,.47-.14c.09-.05.05-.05.07-.08a.7.7,0,0,1,0-.14,2.71,2.71,0,0,0,0-.41,1.44,1.44,0,0,0,0-.3h0s0,0,0,0l-1.7-.29a7.9,7.9,0,0,0-1.43-.14,11.45,11.45,0,0,1-1.47.1,4.9,4.9,0,0,1,1.15-1.42,2.12,2.12,0,0,1,1.48-.41c.58.15,1.1.32,1.59.47l.36.11.43.11a1.16,1.16,0,0,1,.84.48,2.16,2.16,0,0,1,.15.94,4.53,4.53,0,0,1-.08.75,3.42,3.42,0,0,1-.21.73,1.36,1.36,0,0,1-.6.61,6.77,6.77,0,0,1-1.26.36c-.38.09-.75.17-1.12.23a6,6,0,0,1-1.11.08,4,4,0,0,1-.57-.06,1.59,1.59,0,0,1-.66-.27,1,1,0,0,1-.39-.61,1.63,1.63,0,0,1,0-.7C252.67,264.93,252.76,264.62,252.79,264.51Z" style="" transform="matrix(-1, 0, 0, 1, 380, 0)" /><g class="cls-6" transform="matrix(-1, 0, 0, 1, 380, 0)"><path class="cls-4 color-glasses" d="M141.61,297.26c.06-.16.11-.32.16-.48a31.24,31.24,0,0,0,1.4-8.18c0-3.68-1-7.28-.45-11a58.09,58.09,0,0,0,.57-10.14c-.11-5.25-.24-10.5-.33-15.76a3.92,3.92,0,0,0-3.61-3.92l-48.11-.72a3.88,3.88,0,0,0-4,3.67l-3.28,45.71a4,4,0,0,0,3.66,4.32l27.12,1.14c8.08.34,15.13.84,23-1.42a6.53,6.53,0,0,0,2.82-1.34A4.64,4.64,0,0,0,141.61,297.26Z" style="" /></g><path d="M141.41,297.43a2.79,2.79,0,0,1-.44,2.05,6.33,6.33,0,0,1-3.61,2.71,13.63,13.63,0,0,1-2.86.62c-1,.1-2,.13-3.12.19-2.16.11-4.5.18-6.92.22-4.85.07-10,0-14.72-.06l-3.44,0h-1.55l-1.49.13c-2.06.16-3.92.28-5.51.32a28.06,28.06,0,0,1-6.12-.36,12.08,12.08,0,0,1-3.35-1.08,8.6,8.6,0,0,1-3.12-2.56A10,10,0,0,1,83.52,296a20.46,20.46,0,0,1-.54-3.4c-.17-2.15-.16-4.19-.17-6.19s0-4-.09-5.91c0-1-.09-1.94-.16-3a17.05,17.05,0,0,1,0-1.76l.08-1.61c.13-2,.27-4,.22-5.72a13.29,13.29,0,0,0-.26-2.36c0-.16-.07-.33-.12-.47s-.09-.26-.13-.39-.11-.21-.16-.27a.4.4,0,0,0-.2-.09h0l-.17,0-.5-.14a9.83,9.83,0,0,1-1.77-.64,6.24,6.24,0,0,1-2.68-2.48,7.64,7.64,0,0,1-1-3.55c0-.3,0-.65,0-.93s0-.45,0-.67c0-.43.09-.82.14-1.19.09-.82.2-1,.33-2.6.07-.3.12-.62.19-.9a6,6,0,0,1,.29-.81,5.22,5.22,0,0,1,1-1.45,5.56,5.56,0,0,1,3.07-1.66L84.1,247l2.56-.51A155.64,155.64,0,0,1,116.05,244c4.8,0,9.52.14,14.13.37,2.31.12,4.58.25,6.88.41l.85.06c.35,0,.89.1,1.31.18a9,9,0,0,1,2.64,1,9.12,9.12,0,0,1,3.57,3.9,18.43,18.43,0,0,1,1.61,7.76,53.21,53.21,0,0,1-.33,6.7c-.2,2.06-.39,4.08-.58,6.08s-.4,4-.6,5.91c-.82,7.75-1.82,14.88-3.05,21.16-1-5.86-1.8-14.22-2.31-22.12-.12-2-.22-3.92-.3-5.79l-.08-2.73c0-.95,0-1.84,0-2.66,0-3.28,0-5.81-.06-7.45a11.91,11.91,0,0,0-.46-3.32,2.53,2.53,0,0,0-1-1.53,1.74,1.74,0,0,0-.41-.19l-.23-.07-.53-.06-2.16-.23-4.34-.41c-5.76-.51-11.39-.83-16.88-.93a156.18,156.18,0,0,0-16,.51c-1.3.11-2.59.23-3.87.39s-2.54.32-3.79.51-2.49.41-3.73.63c-.61.11-1.22.22-1.83.36l-1.58.34c-.39.1-.86.11-1.13.46a1,1,0,0,0-.25.55,6.18,6.18,0,0,1-.07.62l-.27,1.75a8.57,8.57,0,0,0-.1,1.55,1.92,1.92,0,0,0,1.27,1.84c.2.07.35.1.59.17s.66.18,1.11.35a4.69,4.69,0,0,1,2.14,1.52,10,10,0,0,1,1.73,5.33,33.94,33.94,0,0,1,0,4.84c-.09,1.54-.23,3.05-.28,4.46,0,.35,0,.59,0,1l.06,1.1c0,.75,0,1.5.08,2.24.07,3,0,5.92,0,8.7s.09,5.53,1,7.18a4.12,4.12,0,0,0,2,1.77,11.58,11.58,0,0,0,3.22.86,43.9,43.9,0,0,0,7.37.26l1.86-.07.92,0,.56,0a2.14,2.14,0,0,1,.36,0h.24l3.72.18,7.22.4c4.41.2,10.41.74,15.71,1.09a28.41,28.41,0,0,0,3.71.14,9.43,9.43,0,0,0,3.06-.65A4.81,4.81,0,0,0,141.41,297.43Z" transform="matrix(-1, 0, 0, 1, 380, 0)" /><path d="M141.41,297.43a2.76,2.76,0,0,1-.38,2,5.29,5.29,0,0,1-1.26,1.51,7.62,7.62,0,0,1-2.13,1.19,12.31,12.31,0,0,1-2.72.67c-1,.14-2,.16-3,.22-2.06.11-4.3.19-6.61.23-4.62.09-9.56,0-14.06,0l-6.34-.06c-1.85,0-3.56.15-5,.27a36.68,36.68,0,0,1-7.37.09,13,13,0,0,1-4.15-1.11,8.84,8.84,0,0,1-3.77-3.28,10.78,10.78,0,0,1-1.5-4.61L83,293.41l0-.9-.07-1.82q-.14-3.66-.28-7.35c-.33-9.85-.42-20,.75-29.82l0,.74a12.59,12.59,0,0,1,.08-1.84,8.59,8.59,0,0,1,.6-1.88,7.13,7.13,0,0,1,1-1.59q.29-.33.6-.66c.2-.2.41-.34.61-.51a13.06,13.06,0,0,1,4.6-2.18,28.55,28.55,0,0,1,3.92-.78l3.43-.43a7.11,7.11,0,0,1,.73-.07l.45,0,.89,0,1.77-.09,3.52-.12c4.67-.12,9.29-.11,13.83,0s9,.26,13.42.48l3.29.18,1.67.1H138l.33,0,.67.1a11.83,11.83,0,0,1,1.3.34,8.79,8.79,0,0,1,4.29,3.2,11.88,11.88,0,0,1,1.83,4,26.1,26.1,0,0,1,.66,7.11c-.06,2.2-.28,4.3-.48,6.25-.36,3.87-.73,7.79-1.14,11.46-.81,7.4-1.8,14.21-3,20.21a205.28,205.28,0,0,1-2.36-21.14c-.13-1.89-.23-3.75-.31-5.54q0-1.33-.09-2.61l0-1.25v-1.28c0-3.25.09-5.69.15-7.36a18.52,18.52,0,0,0-.16-3.72,5.33,5.33,0,0,0-.86-2.38,1.69,1.69,0,0,0-.62-.53,3.57,3.57,0,0,0-.46-.16l-.13,0-.27,0-.53-.06-4.3-.4c-5.73-.51-11.34-.87-16.8-1.09s-10.79-.29-15.93-.09l-.49,0c-.19,0-.19,0-.36,0l-1,.11-1.91.19a27.87,27.87,0,0,0-3.58.58A7.84,7.84,0,0,0,89.57,252a2.06,2.06,0,0,0-.93,1.92v.16l0,.15a154.3,154.3,0,0,0-1.1,21c0,3.38.09,6.71.17,10,0,1.63.09,3.25.13,4.85l0,2.4c0,.38,0,.82,0,1.16a7.61,7.61,0,0,0,.09,1,4.7,4.7,0,0,0,1.34,2.91,6.46,6.46,0,0,0,3,1.4,38,38,0,0,0,8.28.32c1.44,0,2.94-.08,4.43,0l4.2.2,8.11.43c4.21.19,9.94.7,15,1.05a21.16,21.16,0,0,0,3.51.1,8.64,8.64,0,0,0,2.9-.69A4.74,4.74,0,0,0,141.41,297.43Z" transform="matrix(-1, 0, 0, 1, 380, 0)" /><path d="M84.11,251.71a18,18,0,0,1-.35,6.07c-.22.93-.63,2-1.55,2.26a2.07,2.07,0,0,1-2.35-1.66,6,6,0,0,1,.4-3.16l1-3.3" transform="matrix(-1, 0, 0, 1, 380, 0)" /><path class="cls-5" d="M80.42,251.33a4.19,4.19,0,0,1,2-.17c.91.19,1,1.11,1,1.9a1.62,1.62,0,0,1,0,.22l-.18,2.15a2,2,0,0,1-.68,1.67,2.92,2.92,0,0,1-1.63.22c-.72-.05-.73,0-.93-.77a14.7,14.7,0,0,1-.32-3.57c0-2.09,2.06-2,3.71-1.95a1,1,0,0,1,1.19,1.12,17,17,0,0,1,.06,3.42A2,2,0,0,1,84,257c-.61.43-1.45.15-2.19.24L82,257" style="" transform="matrix(-1, 0, 0, 1, 380, 0)" /></svg>