<svg xmlns="http://www.w3.org/2000/svg" id="outfits_1" viewBox="0 0 380 600"><defs transform="matrix(-1, 0, 0, 1, 380, 0)"><style>.cls-1{fill:blue;}.cls-2{opacity:0.3;}</style></defs><path class="cls-1 color-hair" d="M313.5,328.636c-1.382-23.976.128-53.738-6.869-76.754-25.224-92.524-196.8-93.132-220.781,3.354-4.41,19.319-21.047,34.815-17.242,55.369,1.922,11.136,8.593,21.94,6.163,32.976-9.688,23.108-20.659,30.275-3.728,56.331,4.366,6.115,11.295,9.323,12.6,17.135,2.223,7-4.859,14.214-8.856,17.915,4.9,15.409,27.147,18.513,36.079,5.039-.942,1.421-.214,7-.86,9.1-1.127,3.653-4.009,5.924-5.426,9.158-1.1,2.506-1.814.775-.257,3.36,13.747,11.509,30.067-1.287,41.652-9.712,11.332-4.729,28.261-10.58,39.27-3.333,9.9,14.332,14.418,18.857,32.878,15.435,11.179,3.905,18.983,15.419,21.8,26.6,9.936-.957,13.775-2.761,22.582-10.981,11.857-11.067,24.11-50.591,16.615-74.819,20.933,23.042,2.64,23.334,2.45,49.3-.093,12.87,11.764,21.171,27.589,21.923-3.968-4.31-7.92-11.029-.666-18.523,8.951-.015,15.083-3.856,17.529-10.28.908-2.383-1.491-3.284-2.76-4.628-5.346-5.664-9.148-17.266-3.842-26.213C347.132,369.671,308.616,375.807,313.5,328.636Z" transform="matrix(-1, 0, 0, 1, 380, 0)"></path><path d="M313.564,328.643c.157,1.376-.481,6.179.294,13.481a52.418,52.418,0,0,0,2.789,12.431,79.537,79.537,0,0,0,7.222,14.306,69.853,69.853,0,0,1,4.316,8.179,28.711,28.711,0,0,1,2.335,9.73,33.305,33.305,0,0,1-1.227,10.433,60.355,60.355,0,0,1-3.77,10.157c-.723,1.688-1.631,3.289-2.456,4.953-.87,1.627-1.831,3.255-2.711,4.872a17.807,17.807,0,0,0-1.837,4.882,20.481,20.481,0,0,0-.342,5.307,24.513,24.513,0,0,0,3.162,10.342c.21.407.464.784.712,1.167a11.47,11.47,0,0,0,.778,1.117,11.618,11.618,0,0,0,.846,1.057,9.29,9.29,0,0,0,.868.927,11.714,11.714,0,0,1,2.471,2.386,3.4,3.4,0,0,1,.544,1.787,4.812,4.812,0,0,1-.4,1.843,15.78,15.78,0,0,1-1.341,2.651,11.12,11.12,0,0,1-.786,1.146,10.8,10.8,0,0,1-.884,1.074,16.541,16.541,0,0,1-4.339,3.415,20.482,20.482,0,0,1-5.089,1.933l-1.32.279-1.326.2c-.443.062-.886.087-1.329.131-.2.015-.5.049-.607.049l-.41.014c-.627-.152-.892.451-1.262.825-.164.188-.414.576-.628.866l-.334.467-.269.493a9.194,9.194,0,0,0-1.289,4.12c.01.356,0,.711.014,1.066.054.354.08.709.148,1.061.1.35.156.7.273,1.05.055.141.141.413.246.676a4.579,4.579,0,0,0,.379.8l.451.794a5.027,5.027,0,0,0,.526.809c.423.558.789,1.093,1.269,1.674.9,1.132,1.875,2.312,2.8,3.382l-.218.3-.025.3-.014.149a.108.108,0,0,1-.005.036l-.113-.008-.226-.017-.9-.068c-1.2-.1-2.431-.157-3.6-.3l-1.764-.189a14.368,14.368,0,0,1-1.786-.258c-1.194-.249-2.442-.4-3.589-.73a32.817,32.817,0,0,1-10.159-4.443,22.856,22.856,0,0,1-7.433-8,20.849,20.849,0,0,1-2.342-10.269A49.64,49.64,0,0,1,280.9,443.9a52.526,52.526,0,0,1,2.634-8.615c1.041-2.663,2.156-5.111,2.879-7.4a18.112,18.112,0,0,0,.719-3.3,13.066,13.066,0,0,0-.082-3.06,20.46,20.46,0,0,0-3.436-7.751,64.35,64.35,0,0,0-6.1-7.514l3.7-2.115a62.664,62.664,0,0,1,2.517,17.54c-.019,1.474.062,2.962-.043,4.434q-.132,2.211-.265,4.428c-.325,2.936-.6,5.895-1.153,8.81a112.976,112.976,0,0,1-4.288,17.362,88.81,88.81,0,0,1-7.309,16.688l-1.2,2c-.4.669-.911,1.3-1.363,1.948-.485.638-.9,1.3-1.446,1.919l-1.678,1.832c-.567.65-1.116,1.106-1.673,1.638s-1.13,1.027-1.7,1.54c-1.151,1.019-2.342,2.025-3.619,2.985a28.081,28.081,0,0,1-8.743,4.639,33.282,33.282,0,0,1-4.771,1.108l-.591.1-.923.118-1.935.242-1.948.215c-.607.008-1.494.432-1.479-.492l-1.129-3.748c-.089-.322-.208-.628-.311-.943l-.179-.524c-.109-.332-.224-.662-.361-.985-.5-1.306-1.067-2.59-1.694-3.841a39.466,39.466,0,0,0-4.5-7.034,31.541,31.541,0,0,0-5.906-5.693,25.066,25.066,0,0,0-3.425-2.115,17.371,17.371,0,0,0-1.811-.832l-.443-.174c-.066-.045-.154,0-.215,0l-2.039.35c-.777.125-1.578.2-2.366.308s-1.59.18-2.407.223-1.615.131-2.46.1a23.964,23.964,0,0,1-10.209-1.907,25.2,25.2,0,0,1-8.252-6.254,81.708,81.708,0,0,1-5.867-7.467l-1.077-1.523c-.027-.057-.081-.071-.179-.121l-.731-.409a16.31,16.31,0,0,0-3.54-1.327,25.959,25.959,0,0,0-7.954-.64,45.406,45.406,0,0,0-8.345,1.348,83.481,83.481,0,0,0-8.317,2.556c-1.375.506-2.749,1.029-4.118,1.582l-2,.824c-.033.016-.052.018-.069.035l-.028.023-.188.137-.911.669c-2.436,1.79-4.916,3.61-7.51,5.336a72.02,72.02,0,0,1-8.187,4.807,38.11,38.11,0,0,1-9.356,3.315,26.944,26.944,0,0,1-5.2.524,22.633,22.633,0,0,1-5.324-.689,21,21,0,0,1-5-1.977,23.041,23.041,0,0,1-2.252-1.389c-.373-.236-.7-.52-1.046-.779l-.806-.629c-.129-.121-.31-.194-.4-.353l-.28-.457-.836-1.365-.173-.33-.1-.209a4.933,4.933,0,0,1-.169-.464,3.434,3.434,0,0,1-.141-.654,4.213,4.213,0,0,1,.008-1.088,4.1,4.1,0,0,1,.378-1.17,3.561,3.561,0,0,1,.395-.627,3.741,3.741,0,0,1,.406-.459l.058-.059.015-.018a.993.993,0,0,0,.1-.2l.214-.456c.106-.221.208-.451.323-.655a34.009,34.009,0,0,1,2.75-4.164l.582-.828.261-.394.085-.134a1.044,1.044,0,0,0,.071-.152.756.756,0,0,0,.03-.315,1.008,1.008,0,0,1,.018-.365,1.484,1.484,0,0,1-.328.358,1.186,1.186,0,0,1-.133.089l-.034.019-.584.261c-.435.189-.852.392-1.321.549a23.732,23.732,0,0,1-5.586,1.381,25.984,25.984,0,0,1-11.082-1.036,24.207,24.207,0,0,1-9.5-5.623,22.467,22.467,0,0,1-3.511-4.345c-.249-.394-.462-.81-.691-1.215a15.667,15.667,0,0,1-.818-1.811c-.6-1.367-1.076-2.789-1.587-4.183l3.354-3.178.888-.9.705-.754a32.361,32.361,0,0,0,2.452-3.039,14.872,14.872,0,0,0,2.139-4.22,6.056,6.056,0,0,0,.074-3.565l-.077-.248-.052-.287a12.6,12.6,0,0,0-3.428-6.371c-1.867-2.073-4.374-4.17-6.729-6.853l-.875-1.038-.883-1.162c-.491-.738-.9-1.437-1.347-2.158-.867-1.44-1.8-2.84-2.544-4.353a49.791,49.791,0,0,1-2.249-4.548l-1.008-2.369c-.342-.785-.557-1.659-.838-2.486a31.182,31.182,0,0,1-1.6-10.64,32.492,32.492,0,0,1,2.113-10.478,86.912,86.912,0,0,1,3.994-9.08c1.4-2.859,2.831-5.644,4.119-8.431.676-1.39,1.283-2.791,1.894-4.191l.461-1.049.033-.075.035-.232a13.729,13.729,0,0,0,.255-1.922,27.461,27.461,0,0,0-.717-8.143c-1.266-5.649-3.7-11.463-5.233-17.981-.209-.806-.341-1.643-.513-2.463-.156-.829-.237-1.711-.354-2.564a23.829,23.829,0,0,1-.259-2.587l-.036-2.611a18.512,18.512,0,0,1,.139-2.592c.088-.858.143-1.725.265-2.574l.477-2.516c.084-.417.153-.841.252-1.252l.335-1.216c1.742-6.528,4.62-12.352,7.418-17.869s5.6-10.847,7.474-16.269l.7-2.03.557-2.063,1.242-4.493a87.04,87.04,0,0,1,3.146-9.025,88.617,88.617,0,0,1,21.3-30.88,108.294,108.294,0,0,1,30.627-20.054,137.224,137.224,0,0,1,34.2-9.921,155.054,155.054,0,0,1,34.605-1.44,145.626,145.626,0,0,1,33.117,6.122A122.578,122.578,0,0,1,269.7,199.427,96.7,96.7,0,0,1,293.327,220.5,83.41,83.41,0,0,1,307.6,247.38,129.725,129.725,0,0,1,311.13,261.6c.91,4.744,1.425,9.466,1.884,14.122,1.642,18.647.944,36.311,1.626,52.845-.84-7.522-1.4-15.991-2.023-25.072s-1.332-18.788-2.737-28.728A151.825,151.825,0,0,0,307,259.817c-.336-1.237-.617-2.486-1-3.719l-1.143-3.7-1.226-3.679c-.422-1.221-.931-2.4-1.391-3.605a80.829,80.829,0,0,0-16.875-25.566,95.577,95.577,0,0,0-23.935-17.706A123.711,123.711,0,0,0,235.777,191.8a157.253,157.253,0,0,0-41.79-5.171A146.59,146.59,0,0,0,173.26,188.2a137.7,137.7,0,0,0-20.058,4.562,115.692,115.692,0,0,0-18.838,7.627,99.924,99.924,0,0,0-16.9,10.8,89.865,89.865,0,0,0-14.053,13.94,82.165,82.165,0,0,0-13.8,25.745c-.511,1.537-.9,3.1-1.363,4.645L87.555,258c-.228.834-.451,1.67-.758,2.476-2.207,6.56-5.393,12.5-8.38,18.314-3.011,5.806-5.772,11.587-7.306,17.6l-.451,2.265-.224,1.132-.113,1.141L70.1,303.21l.02,2.279.006,1.139.134,1.133.272,2.266c.113.757.281,1.52.423,2.278.183.756.346,1.511.546,2.266,1.562,6.05,4.063,12.04,5.169,18.62a28.878,28.878,0,0,1-.007,10.093l-.132.753a7.906,7.906,0,0,1-.31.743l-.486,1.1-.972,2.188c-.664,1.447-1.364,2.871-2.043,4.3-1.395,2.831-2.837,5.628-4.174,8.4a56.177,56.177,0,0,0-3.429,8.387,24.1,24.1,0,0,0-1.137,8.593c.059.719.073,1.441.164,2.158l.413,2.14c.076.355.116.716.222,1.067l.329,1.051.653,2.1c.545,1.372,1.135,2.734,1.717,4.093l2.066,3.966q1.156,1.911,2.309,3.817c.2.312.38.646.582.94l.626.825c.448.548.9,1.1,1.4,1.634,1.957,2.149,4.282,4.117,6.373,6.524a19.874,19.874,0,0,1,2.778,4.007,16.771,16.771,0,0,1,1.583,4.716l-.052-.215a11.217,11.217,0,0,1,.125,6.121,18.049,18.049,0,0,1-2.339,5.274,32.842,32.842,0,0,1-3.33,4.345c-.595.667-1.207,1.308-1.827,1.927-.365.367-.746.727-1.124,1.079a5.99,5.99,0,0,0,.495,1.375l.153.34.256.464a11.034,11.034,0,0,0,.558.959,16.283,16.283,0,0,0,2.824,3.4,19,19,0,0,0,7.675,4.3,20.372,20.372,0,0,0,8.722.611,19.111,19.111,0,0,0,4.179-1.1l1-.436.249-.11.348-.2.706-.409c.235-.142.47-.257.706-.422l.709-.585a9.063,9.063,0,0,0,1.447-1.341,5,5,0,0,0,4.2-2.167,3.1,3.1,0,0,0,.079,1.985,13.909,13.909,0,0,0,.865,2.306l.074.036a.659.659,0,0,1,0,.1l-.007.2-.014.409-.02.8c-.013.533-.03,1.06-.064,1.588a10.045,10.045,0,0,1-.671,3.111,15.143,15.143,0,0,1-.717,1.524c-.259.469-.614,1.055-.827,1.368-.485.732-.99,1.413-1.469,2.071s-.935,1.3-1.327,1.932c-.2.318-.373.637-.539.956l-.227.482c-.113.229-.2.442-.339.684a5.328,5.328,0,0,1-.983,1.3c-.215-.189.448.453-.488-.417a1.609,1.609,0,0,0-.39-.335c-.185-.1-.081-.06-.148-.087s.041.013.072,0a2.627,2.627,0,0,1,.277-.065,1.725,1.725,0,0,0,.4-.167,4.19,4.19,0,0,1,.5-.214l.006.012.268.442.239.387a.643.643,0,0,0,.25.272l.8.622a16.826,16.826,0,0,0,8.242,3.215,21.522,21.522,0,0,0,8.911-1.141c5.855-1.93,11.179-5.448,16.306-9.086l3.84-2.791,1-.732a5,5,0,0,1,1.355-.69l2.222-.9c2.972-1.18,5.984-2.267,9.053-3.187a64.674,64.674,0,0,1,9.408-2.087,37.558,37.558,0,0,1,9.743-.181c.816.139,1.633.259,2.445.42l2.407.666,2.33.945c.381.172.739.4,1.108.6l1.262.717c.118.07.245.13.355.209l.237.338.476.678.66.939q.654.943,1.328,1.853c.883,1.235,1.8,2.419,2.725,3.587a27.247,27.247,0,0,0,6.174,5.93,16.4,16.4,0,0,0,7.709,2.552,38.685,38.685,0,0,0,8.57-.389c.722-.1,1.445-.239,2.166-.356l1.513-.254c.132,0,.273-.091.4-.022l.38.151.76.3,1.195.473c.372.147.719.345,1.079.515a19.937,19.937,0,0,1,2.1,1.13A37.666,37.666,0,0,1,236.771,478a46.622,46.622,0,0,1,3.872,8.283l.284.839c.063.177.121.356.169.536l.154.539.077.268a1.454,1.454,0,0,0,.272-.019c.372-.041.743-.082,1.115-.137l.277-.038.41-.065,1.024-.171a28.731,28.731,0,0,0,3.922-.988,22.776,22.776,0,0,0,3.6-1.614,40.36,40.36,0,0,0,6.548-4.89c.521-.468,1.046-.924,1.56-1.407a19.492,19.492,0,0,0,1.478-1.436l1.326-1.44a15.892,15.892,0,0,0,1.218-1.585l1.185-1.627,1.055-1.75c.348-.585.712-1.157,1.047-1.75l.937-1.829a107.081,107.081,0,0,0,9.732-31.077c.243-1.324.348-2.662.53-3.988l.245-1.991c.068-.664.094-1.329.143-1.993.078-1.327.2-2.653.242-3.975q.007-1.98.016-3.955a59.56,59.56,0,0,0-2.188-15.29l-2.771-9.363,6.509,7.229a60.171,60.171,0,0,1,7.7,10.145,22.364,22.364,0,0,1,2.519,6.22,16.494,16.494,0,0,1,.056,6.927,34.449,34.449,0,0,1-2.021,6.108c-.782,1.88-1.561,3.668-2.235,5.466a44.034,44.034,0,0,0-2.675,10.95c-.124.927-.158,1.868-.234,2.8l-.042,1.406a10.38,10.38,0,0,0,.008,1.359l.063,1.3c.02.433.136.849.2,1.275a14.925,14.925,0,0,0,.627,2.483A17.857,17.857,0,0,0,290.8,467.9a28.83,28.83,0,0,0,9.544,4.554c.519.145.64.2.869.239l.64.14c.424.105.861.153,1.3.222s.875.1,1.316.141l.331.028c.043,0,.14.024.137,0l-.106-.121c-.145-.16-.284-.324-.417-.5a7.711,7.711,0,0,1-1.335-2.343l-.1-.3a3.23,3.23,0,0,1-.123-.406l-.2-.835a13.665,13.665,0,0,1-.249-1.711c-.027-.578-.024-1.165,0-1.744a15.565,15.565,0,0,1,.267-1.717,15,15,0,0,1,2.975-5.923c1-.958,1.692-2.615,3.333-2.192l1.065-.029.655-.053c.437-.034.874-.063,1.3-.135a17.9,17.9,0,0,0,6.63-2.149,13.405,13.405,0,0,0,3.035-2.438,7.011,7.011,0,0,0,.677-.8,7.418,7.418,0,0,0,.627-.884,7.979,7.979,0,0,0,.57-.971c.082-.157.2-.37.246-.464l.14-.318a1.459,1.459,0,0,0,.165-1.082,2.031,2.031,0,0,0-.687-.892l-.715-.594c-.157-.129-.334-.29-.506-.452a5.815,5.815,0,0,1-.472-.5l-.805-.942c-.257-.321-.489-.659-.735-.989a27.544,27.544,0,0,1-4.138-8.964,24.5,24.5,0,0,1-.524-10.169l.241-1.286.36-1.266a20.453,20.453,0,0,1,.92-2.474c.38-.777.831-1.6,1.233-2.3l1.22-2.077c3.215-5.551,6.18-11.356,7.781-17.419a31.04,31.04,0,0,0,1.137-9.122,26.526,26.526,0,0,0-1.885-8.729,65.669,65.669,0,0,0-3.89-7.911c-1.408-2.535-2.8-5.018-4.008-7.49a53.431,53.431,0,0,1-4.8-14.351A66.441,66.441,0,0,1,313.564,328.643Z" transform="matrix(-1, 0, 0, 1, 380, 0)"></path><g class="cls-2" transform="matrix(-1, 0, 0, 1, 380, 0)"><path d="M108.8,375.746c-.025.2-.494.743-.983,1.679a9.853,9.853,0,0,0-1.1,3.818l-.083,1.151-.8-.88c-.634-.7-1.443-1.686-1.79-2.119-.439-.549-.839-1.088-1.189-1.586l-.082-.117-.04-.058a.324.324,0,0,0-.014.074l-.048.334c-.033.218-.056.432-.077.638-.045.413-.068.8-.078,1.151-.012.33-.007.711,0,1.037.018.483.023.948.063,1.347.046.627.114,1.259.2,1.894l.066.477.1.634c.1.537.141,1.037.3,1.639a36.535,36.535,0,0,0,1.175,4.132q.912,2.7,1.85,5.472l-.486-.353-.254-.126a.844.844,0,0,1-.144-.087l-.343-.346-.684-.695-2.745-2.814c-.939-.974-1.942-2.079-2.955-3.3l-.759-.927-.646-.811-.828-1.069a20.528,20.528,0,0,1-2.85-4.891,22.038,22.038,0,0,1-1.232-5.416c-.137-1.176-.216-2.33-.289-3.445l3.474.446a51.807,51.807,0,0,0-2.153,11.378,53.822,53.822,0,0,0-.143,5.553l.025.677.026.526c.01.219.026.441.046.662.077.888.2,1.8.3,2.677.221,1.78.5,3.632.716,5.2l-.557-.408-.758-.665-1.418-1.26-1.319-1.208c-.438-.457-.867-.848-1.282-1.338A20.087,20.087,0,0,1,87,391.835c-.419-.634-.791-1.279-1.132-1.922a26.66,26.66,0,0,1-2.624-7.459,55.821,55.821,0,0,0,5.072,7.054c.248.286.5.567.754.835.127.135.246.274.377.4l.1.1c.018.014.02.009.031.014l.049.014c.135.043.2.012.227-.04.051-.109-.051-.276-.01-.2l.04.067c.1.146.166.146.225.03a.743.743,0,0,0,.044-.109c0-.023.008,0,.008-.061v-.573q.015-.764.032-1.517c.067-2.01.233-3.97.484-5.875a57.436,57.436,0,0,1,2.46-10.732l1.266-3.778.165,3.962a34.646,34.646,0,0,0,.677,6.354,14.853,14.853,0,0,0,2.464,5.359c.279.4.569.8.865,1.186l.8,1.019c.355.435.7.837,1.034,1.207s.654.7.961,1.011l.228.224c.057.043.207.24.109.025-.089-.249-.174-.492-.246-.73a15.755,15.755,0,0,1-.488-1.978c-.028-.149-.051-.3-.072-.459l-.032-.229-.045-.48c-.066-.654-.1-1.3-.121-1.947-.019-.667-.017-1.231.01-1.963q.039-.657.078-1.308.076-.68.152-1.351c.125-.863.267-1.69.42-2.5q.119-.609.235-1.214l.121-.6c.047-.154.119-.139.177-.212l.828,1.325c.669,1.043,1.426,2.29,2.18,3.4l1.793,2.606-1.067.327a9.5,9.5,0,0,1,1.539-3.676A7.321,7.321,0,0,1,108.8,375.746Z"></path></g><g class="cls-2" transform="matrix(-1, 0, 0, 1, 380, 0)"><path d="M321.047,395.334c.3.313.508,3.555-.371,7.188a29.5,29.5,0,0,1-1.82,5.363,39.737,39.737,0,0,1-2.2,4.121c-.2.317-.407.636-.624.977l-1.277,2-.643-2.56a4.62,4.62,0,0,0-.581-1.444,1.5,1.5,0,0,0-.284-.326c-.057-.123-.059.15-.077.277l-.05.411c-.054.388-.1.667-.154.889l-.059.208c.019-.025-.1.226-.153.357l-.208.466c-.282.619-.585,1.23-.919,1.822a26.475,26.475,0,0,1-4.917,6.366c-.349.337-.721.65-1.079.972l-3.534,3.173.35-4.878c.038-.542.071-1.083.071-1.624l0-.164,0-.019,0-.033H302.5c-.008,0-.009.011-.007,0s.016-.173-.007-.179-.041,0-.1.05l-.355.566-.112.178-.21.305-.417.606a13.675,13.675,0,0,1-.846,1.1,10.605,10.605,0,0,1-.841.945c-1.118,1.148-2.126,1.966-3.208,2.923l-.827.711a.512.512,0,0,1-.158-.042c-.095.019-.241.078-.35.1-.028-.013-.2.1-.3.154l-.348.187q.6-2.472,1.193-4.875c.073-.331.185-.731.224-.993l.111-.768.108-.75c.018-.226.014-.425.022-.636.008-.412.032-.825.006-1.2q-.024-.4-.049-.789-.047-.641-.14-1.258a16.577,16.577,0,0,0-1.362-4.51,10.722,10.722,0,0,1,3.2,4.122,14.335,14.335,0,0,1,.564,1.426l.111.37.079.131a2.042,2.042,0,0,0,.134.192c.161.2.264.2.351.1a1.764,1.764,0,0,0,.228-.45c.042-.114.016-.077.011.029-.009.134.026.209.089.228a.173.173,0,0,0,.114-.011.26.26,0,0,0,.073-.042l.253-.419.126-.209.063-.105.09-.2.364-.822.179-.4c.058-.141.1-.336.155-.5l.3-1.007.073-.246.036-.123.032-.2.125-.808.246-1.567q.288-2.007.574-3.993.308.733.567,1.287a4.315,4.315,0,0,0,.284.467c.05.034.115.089.151.068l.039-.068.02-.039c.006,0,0-.035.015,0l.051.154c.55,1.656.977,3.051,1.338,4.455a24.676,24.676,0,0,1,.714,4.509c.02.395.038.8.042,1.186s0,.808-.016,1.056c-.019.578-.072,1.15-.129,1.717l-1.287-.689a22.6,22.6,0,0,0,5.363-6.269c.34-.572.637-1.16.921-1.745l.4-.9q.252-.656.5-1.3a22.594,22.594,0,0,0,.825-3.17l.182-.914.18-1q.177-1.01.351-2.01l.256.038c.038,0,.094.033.119.008l.073-.078.146-.144.037-.033c.014,0,.052.1.076.145l.167.354c.436.933.823,1.813,1.19,2.7a22.645,22.645,0,0,1,.988,2.884,21.721,21.721,0,0,1,.613,3.362l-1.973-.577a32.714,32.714,0,0,0,3.86-6.658,48.094,48.094,0,0,0,1.969-5.455A38.781,38.781,0,0,0,321.047,395.334Z"></path></g><g class="cls-2" transform="matrix(-1, 0, 0, 1, 380, 0)"><path d="M308.106,328.05c.389.5.626,5.391-.122,11-.19,1.4-.415,2.845-.7,4.272-.3,1.489-.537,2.614-1.113,4.655-.239.932-.548,1.766-.811,2.633-.28.836-.574,1.6-.847,2.367l-1.592,4.04-1.12,2.725a3.7,3.7,0,0,0-.741.935c-.3-2.772-.582-6.352-.984-9.334-.223-1.471-.5-2.855-.846-4.262l-.13-.528-.111-.415-.172-.589-.365-1.175,3.74-.365a58.121,58.121,0,0,1-2.263,13.243c-.322,1.088-.683,2.166-1.069,3.233l-.306.8-.153.4c-.053.128-.086.242-.209.514l-1.282,2.8-1.395,2.56q-.714,1.121-1.422,2.235-1.439,2.056-2.856,4.084l-2.736,3.853q.23-4.792.458-9.558c.016-.72.054-1.487.051-2.171l-.03-2.009-.1-1.917-.067-.945-.072-.767a57.135,57.135,0,0,0-1.131-6.986l4.953-.445c-.531,7.737-2.845,15.068-7.042,20.663l-5.382,7.177,1.762-8.668a42.677,42.677,0,0,0-.512-19.444,24.223,24.223,0,0,1,4.292,9.363,31,31,0,0,1,.667,10.832L281.831,371c.7-1.093,1.216-2.033,1.664-2.7a35.959,35.959,0,0,0,5.144-15.58l.958-9.546,1.826,9.3a62.8,62.8,0,0,1,1.011,7.745c.066,1.376.071,2.9,0,4.418l-.034.631-.02.315c0,.039-.017.134,0,.127l.085-.114c.227-.3.461-.61.67-.936a21.215,21.215,0,0,0,1.191-2.019q.257-.528.511-1.049l.232-.528c.086-.2.131-.289.248-.592.456-1.123.872-2.248,1.232-3.379a56.285,56.285,0,0,0,2.511-13.341l.479-6.868,1.931,6.632c.122.422.245.841.366,1.258l.273,1.012q.162.6.283,1.16a20.522,20.522,0,0,1,.347,2.1c.024.266.049.53.073.793.106-.211.236-.524.344-.771.217-.524.416-1.022.6-1.516a37.786,37.786,0,0,0,1.283-4.161c.615-2.437,1.475-5.786,2.032-8.8C307.653,331.576,307.977,328.922,308.106,328.05Z"></path></g><path class="cls-1 color-hair" d="M101.812,245.73c-1.1-26.922,25.375-45.775,47.646-56.557-31.516,13.986-66.277,34.675-69.145,73.386-1.606,7.328-5.789,11.516-10.074,17.429-12.2,16.831,1.413,29.062-1.289,46.77-6.985,20.4-10.628,24.981.794,45.166,4.442,9.8-1.233,15.425-6.124,24.2-27.245,46.245,23.263,51.737,11.371,76.136,14.6-7.8,13.276-27.916,5.322-40.3-2.849-4.947-6.479-9.843-6.714-15.546-.5-12.015,9.345-24.241,12.734-35.347,7.089-19.97-11.977-28.394-9.166-45.482,6.236-20.3,8.789-22.654,4.753-44.407C83.528,274.83,102.709,263.535,101.812,245.73Z" transform="matrix(-1, 0, 0, 1, 380, 0)"></path><path d="M101.857,245.728a18.465,18.465,0,0,1-.137,5.977,35.04,35.04,0,0,1-4.669,11.876c-2.586,4.511-6.275,9.275-9.575,14.809a36.423,36.423,0,0,0-3.987,9.049,25.326,25.326,0,0,0-.528,2.488l-.148,1.181a3.543,3.543,0,0,0,.078.5l.121.662q.506,2.647.918,5.379a68.019,68.019,0,0,1,.893,11.216,44.785,44.785,0,0,1-1.767,11.33c-1,3.667-2.18,7.218-3.271,10.741q-.409,1.322-.815,2.632l-.4,1.31-.2.652a1.78,1.78,0,0,0-.114.5,19.089,19.089,0,0,0-.083,5.089,28.566,28.566,0,0,0,3.084,9.437c1.469,2.946,3.125,5.742,4.515,8.563a35.687,35.687,0,0,1,3.086,8.514,25.451,25.451,0,0,1,.329,8,33.237,33.237,0,0,1-1.594,6.651,57.182,57.182,0,0,1-2.441,6.315c-1.836,4.107-3.9,8.066-5.684,12.1a58.321,58.321,0,0,0-2.366,6.119,29.3,29.3,0,0,0-1.37,6.244,22.666,22.666,0,0,0-.117,3.12,14.049,14.049,0,0,0,.458,2.947,25.324,25.324,0,0,0,2.546,5.807c1.077,1.9,2.37,3.891,3.526,5.854a39.978,39.978,0,0,1,3.377,6.475A39.418,39.418,0,0,1,88.5,451.706a30.224,30.224,0,0,1-.832,7.524,24.321,24.321,0,0,1-2.94,7.164l-.255.42-.064.1-.111.15-.224.3-.894,1.206c-.291.407-.669.754-1,1.134a13.8,13.8,0,0,1-1.033,1.074,23.822,23.822,0,0,1-2.11,1.754l-1.05.762-1.033.631-2.122,1.276-2.3,1.353a.35.35,0,0,1-.143.065l-.088.026-.175.052-.353.108-.177.056a1.356,1.356,0,0,0-.339.146l-1.25.616,1.086-2.64.545-1.323.433-1.138L73.785,468l.108-.284a.606.606,0,0,0,.066-.233l.032-.343.063-.686.126-1.373.063-.687.029-.336-.025-.157-.1-.63A14.351,14.351,0,0,0,72.4,458.31a61.992,61.992,0,0,0-7.04-9.473,78.137,78.137,0,0,1-7.585-10.208,40.544,40.544,0,0,1-2.923-5.906,33.626,33.626,0,0,1-1.723-6.443,35.6,35.6,0,0,1,.458-13.116,52.644,52.644,0,0,1,1.742-6.185c.774-1.967,1.5-3.958,2.446-5.818.852-1.923,1.87-3.7,2.856-5.5s2.014-3.56,3.056-5.264c2.055-3.4,4.034-6.613,4.565-9.719a11.612,11.612,0,0,0-.618-6.156l-.541-1.336-.958-1.745-.956-1.744-.9-1.8c-.3-.6-.605-1.193-.889-1.805l-.818-1.867c-.576-1.22-1-2.558-1.485-3.846a28.975,28.975,0,0,1-.763-16.834c.607-2.7,1.452-5.2,2.27-7.685l2.543-7.278.625-1.8.24-.692.053-.556a25.016,25.016,0,0,0,.22-3.465c-.006-.583.017-1.161-.008-1.746l-.148-1.76-.072-.879-.134-.887-.269-1.775c-.446-2.387-1-4.771-1.6-7.257-.592-2.462-1.178-5.029-1.556-7.7l-.244-2.022c-.072-.676-.067-1.38-.1-2.068a30.714,30.714,0,0,1,.159-4.19c.072-.7.245-1.391.367-2.086a13.147,13.147,0,0,1,.49-2.056,24.407,24.407,0,0,1,1.494-3.918l.91-1.87c.325-.606.722-1.155,1.082-1.734l1.108-1.71c.376-.541.759-1.041,1.139-1.551,3.078-4.057,6.093-7.639,7.623-11.687a23.644,23.644,0,0,0,.946-3.076q.181-1.7.363-3.4.3-1.886.6-3.762c.273-1.24.523-2.482.818-3.711a65.266,65.266,0,0,1,5.314-14.051,78.742,78.742,0,0,1,18.029-22.654,131.675,131.675,0,0,1,22.573-15.8,240.77,240.77,0,0,1,23.452-11.459l1.752,3.777c-13.061,6.185-24.817,13.6-33.715,22.8a53.6,53.6,0,0,0-10.5,15.1,39.244,39.244,0,0,0-3.486,16.748,38.034,38.034,0,0,1,1.9-16.575,52.848,52.848,0,0,1,10.092-16.979,90.965,90.965,0,0,1,15.735-14.213,140.328,140.328,0,0,1,18-10.963l2.064,4.449c-8.693,4.107-16.7,8.309-23.406,12.334a172.253,172.253,0,0,0-15.9,10.762q-3.924,3.024-7.524,6.349a86.926,86.926,0,0,0-6.685,7.055,65,65,0,0,0-10.019,16.2,60.684,60.684,0,0,0-2.991,8.943,66,66,0,0,0-1.561,9.252c-1.332,7.477-6,12.567-9.748,17.476-.991,1.237-1.737,2.489-2.573,3.729a5.474,5.474,0,0,0-.546.963l-.488.988a11.837,11.837,0,0,0-.882,2,21.287,21.287,0,0,0-1.388,8.555,44.531,44.531,0,0,0,1.281,8.869c.665,2.978,1.413,5.98,1.968,9.054a45.769,45.769,0,0,1,.688,9.39c-.039.787-.152,1.57-.226,2.354l-.132,1.232a4.043,4.043,0,0,1-.221.722l-.189.534q-.759,2.131-1.514,4.254c-1.013,2.825-2.027,5.618-2.893,8.41a36.6,36.6,0,0,0-1.771,8.379,24.322,24.322,0,0,0,.885,8.282,41.835,41.835,0,0,0,1.328,4.011c.581,1.3,1.077,2.624,1.733,3.893.628,1.278,1.244,2.557,1.945,3.8l1.017,1.876a8.133,8.133,0,0,1,.493,1.118l.419,1.055a15.781,15.781,0,0,1,.5,9.073,29.6,29.6,0,0,1-3.634,8c-1.467,2.439-2.939,4.766-4.262,7.195a59.013,59.013,0,0,0-6.371,14.9l-.438,1.941c-.07.323-.154.644-.212.969l-.133.979-.267,1.953-.091,1.958-.044.977.046.973c.039.648.053,1.3.11,1.941a30.574,30.574,0,0,0,.685,3.8c1.178,5.032,3.9,9.527,7,13.642,1.573,2.058,3.245,4.047,4.915,6.054a76.711,76.711,0,0,1,4.831,6.251,23.375,23.375,0,0,1,3.45,7.33c.7,3.23.474,4.232.128,5.665a9.249,9.249,0,0,1-.549,1.51l-.077.184-.038.092c.01,0,.054-.029.079-.042l.354-.21a7.7,7.7,0,0,0,.688-.445,11.223,11.223,0,0,0,2.346-2.183,18.447,18.447,0,0,0,2.314-4.016,22.915,22.915,0,0,0,1.485-5.123,30.98,30.98,0,0,0-.158-10.66,37.23,37.23,0,0,0-3.353-10.036c-.763-1.568-1.744-3.027-2.675-4.624-.927-1.537-1.895-3.082-2.8-4.7a30.817,30.817,0,0,1-2.357-5.126,16.965,16.965,0,0,1-.99-5.707,32.142,32.142,0,0,1,1.994-10.859,87.109,87.109,0,0,1,4.208-9.7c1.519-3.1,3.071-6.124,4.407-9.158.33-.759.668-1.515.952-2.277.308-.756.592-1.521.839-2.3a38.221,38.221,0,0,0,1.337-4.607,21.76,21.76,0,0,0-.048-9.158,36.016,36.016,0,0,0-3.342-8.7c-1.439-2.828-3.056-5.638-4.416-8.64a28.469,28.469,0,0,1-2.641-9.646,22.306,22.306,0,0,1,.2-5.031,3.177,3.177,0,0,1,.167-.8l.179-.567.354-1.113L76.944,331q1.426-4.4,2.833-8.733a59.335,59.335,0,0,0,2.416-10.3,51.311,51.311,0,0,0-.131-11.7c-.1-1.014-.22-2.034-.37-3.058s-.27-2.052-.443-3.08l-.244-1.545-.124-.782-.088-.541a3.616,3.616,0,0,1,.059-.527,24.6,24.6,0,0,1,.654-3.255,39.76,39.76,0,0,1,5.514-11.365c2.247-3.391,4.622-6.471,6.7-9.439a61.449,61.449,0,0,0,5.2-8.518,29.97,29.97,0,0,0,2.513-7.4A26.3,26.3,0,0,0,101.857,245.728Z" transform="matrix(-1, 0, 0, 1, 380, 0)"></path></svg>