<svg xmlns="http://www.w3.org/2000/svg" id="braid-lowbun" viewBox="0 0 380 600">
  <defs>
    <style>
      .cls-1 {
        fill: blue;
      }

      .cls-2 {
        fill: #fff;
      }

      .cls-3 {
        opacity: .15;
      }

      .cls-4 {
        opacity: .25;
      }
    </style>
  </defs>
  <g id="back-14" data-name="back">
    <g>
      <path class="cls-1 color-hair" d="m103.65,370.71c1.82.49,6.21,1.02,7.72-4.29,5.91-3.31,3.16-10.5-5.9-14.6"></path>
      <path d="m103.65,370.68c.2-.28,1.33-.1,2.54-.31.6-.1,1.21-.29,1.69-.56.47-.29.83-.63,1.01-.94.32-.53.57-1.09.73-1.74.04-.16.1-.3.12-.48,0-.05.06-.24.1-.39l.14-.5c.01-.41.42-.53.67-.76l.39-.3.19-.15c.97-.85,1.35-1.82,1.3-2.76-.07-1.68-1.37-3.66-2.84-5.25-1.49-1.61-3.13-2.97-4.46-4.2,1.03-.41,2.43-.54,3.65-.31,1.23.21,2.31.71,2.67,1.23,1.49,1.98,2.73,3.91,3.36,6,.3,1.04.42,2.12.29,3.16-.19,1.02-.53,2.03-1.15,2.78-.26.43-.62.72-.95,1.06-.16.18-.34.31-.52.44l-.2.15-.13.1c-.1.05-.12.16-.14.27l-.04.17-.08.29c-.16.4-.3.81-.51,1.18-.39.77-.97,1.44-1.64,1.97-.67.53-1.46.83-2.21.96-.72.17-1.71.03-2.47-.27-.77-.29-1.33-.69-1.51-.83Z"></path>
    </g>
    <g>
      <path class="cls-1 color-hair" d="m77.89,298.87c2.25-5.9-6.15-9.43-12.14-6.35-2.66-2.6-10.3-4.54-13.21-1.7-4.13-2.22-9.74-1.07-13.27,3.81-4.09,1.16-7.31,9.92-3.87,14.32,1.47,1.87,6.12,1.87,8.73-6.74,5.44,0,7.56-1.22,10.49-3.89,4.56,3.8,7.64,2.66,11.6.82,4.96,3.06,10.69,2.29,11.67-.28Z"></path>
      <path d="m77.86,298.86c-.13.07-.31.37-.7.7-.41.32-1.02.65-1.84.85-1.63.42-3.98.29-6.24-.57-.57-.22-1.1-.47-1.68-.77l-1.09-.64c-.39.06-.79.32-1.19.46-1.22.51-2.37.94-3.49,1.08-2.25.37-4.09-.65-5.27-1.58-.43-.31-.84-.68-1.27-1.03l-.32-.27-.16-.14c-.05-.05-.1.06-.16.08l-.63.52-.65.53c-.2.17-.48.39-.58.46-.27.2-.55.39-.83.57-1.12.71-2.31,1.15-3.63,1.38-.66.1-1.35.17-2.05.2-.17.01-.35,0-.53.01h-.4s-.5.01-.5.01h-1s-.5,0-.5,0c-.04,0-.09-.01-.12.01l-.04.11-.08.22-.62,1.75c-.05.13-.11.33-.15.41l-.11.24-.21.48c-.13.33-.29.63-.46.93-.16.3-.32.6-.51.87-.71,1.09-1.63,2.06-2.51,2.33-.43.16-.82.16-1.09.06-.15-.04-.24-.13-.34-.19-.03-.07-.04-.02-.12-.16l-.21-.34c-1.11-1.86-.88-4.73.04-7.02.41-1.01.96-1.96,1.6-2.69.16-.18.32-.37.49-.5.17-.15.33-.3.5-.38.08-.05.16-.11.24-.15l.12-.04.38-.16c.29-.12.62-.19.78-.49l.5-.63c1.34-1.68,3.13-2.92,5.07-3.41.97-.25,1.96-.31,2.92-.19.48.06.95.16,1.4.32l.17.06.08.03h.04c.13.06.12.06.16.08l.81.38.8.38c.07.06.12-.02.18-.06l.18-.14.35-.27.35-.27.17-.14.25-.18c.12-.09.08-.05.12-.08l.06-.03.12-.07c.13-.11.36-.15.54-.23.4-.13.85-.22,1.33-.26.96-.09,1.99-.01,3,.16,1.01.18,2.01.45,2.94.82.46.19.9.39,1.31.62.11.05.2.12.29.18l.16.1c.11.07.22.15.31.23l1.14.9c.41-.12.83-.37,1.24-.54l.61-.28c.18-.08.24-.09.36-.13l.65-.23c.22-.07.45-.1.67-.16.89-.21,1.82-.25,2.71-.21,1.78.13,3.51.72,4.61,1.81,1.16,1.05,1.43,2.64,1.02,4.11.18-.29.39-.61.57-.98.06-.19.12-.39.19-.59l.09-.32.02-.33c.14-.93-.19-1.97-.77-2.9-1.22-1.9-3.52-3.07-5.8-3.52-.58-.08-1.16-.19-1.75-.18-.29,0-.58-.02-.87-.01-.29.03-.57.05-.86.08-.57.03-1.12.2-1.65.32-.36.09-.3.06-.36.07h-.11c-.06-.02.02-.02-.07-.09-.4-.31-.79-.52-1.15-.74-.74-.4-1.4-.67-1.95-.84-2.22-.66-4.46-.97-6.77-.73-1.15.12-2.35.44-3.45,1.12-.23.13-.05.04-.12.1l-.08.09c-.05.1-.13.06-.2.03l-.12-.04s-.08-.02-.02,0l-.2-.06c-.27-.08-.53-.18-.8-.23-2.15-.53-4.38-.35-6.33.36-1.95.7-3.65,1.9-4.96,3.34-.33.36-.66.74-.92,1.11-.08.09-.12.24-.26.27l-.2.08c-.1.04-.25.1-.36.16-.93.53-1.63,1.25-2.24,2-1.15,1.54-1.88,3.27-2.3,5.03-.42,1.76-.51,3.6-.07,5.38.11.44.23.88.44,1.3.16.43.4.82.66,1.21.2.38.65.82,1.07,1.09.45.26.95.45,1.45.51,1.01.14,1.99-.13,2.8-.56.83-.42,1.46-1.05,2.05-1.67,1.11-1.3,1.87-2.75,2.46-4.2l.11-.25.06-.16.12-.32.11-.31.03-.08s.05,0,.07,0h.15s.29,0,.29,0h.36c.38-.01.76-.05,1.14-.07,1.52-.13,3.07-.45,4.49-1.1.7-.33,1.36-.73,1.97-1.15.3-.21.6-.44.87-.66l.35-.29c.06-.05.11-.11.17-.14l.18.14c.12.1.23.19.36.27.59.42,1.23.78,1.91,1.07,1.34.62,2.92.83,4.35.65,1.43-.2,2.7-.69,3.84-1.21.14-.06.27-.13.42-.19l.2-.1.22-.12c.08,0,.16.07.25.1l.27.12.46.19c.34.14.69.29,1.06.39,1.45.47,3.04.69,4.51.61,1.47-.09,2.81-.48,3.75-1.07.95-.6,1.33-1.39,1.42-1.75Z"></path>
    </g>
    <g>
      <path class="cls-1 color-hair" d="m57.72,314.92c-4.4-1.95-10.17.22-12.19,4.58-.14.3-.28.64-.58.8-.29.16-.64.11-.96.07-1.46-.21-2.98-.3-4.37.19-2.01.71-3.45,2.57-4.12,4.59s-.7,4.2-.62,6.32c0,.23.02.48-.1.69-.13.24-.4.37-.65.49-2.66,1.38-3.96,4.93-2.81,7.7-1.71,4.08-.51,9.19,2.83,12.08.59.51,1.28.97,2.06.99,1.51.04,2.54-1.56,2.9-3.03.61-2.45.27-5.12-.93-7.34,2.58-2.96,4.2-6.74,4.57-10.65,2.72-.2,5.31-1.76,6.76-4.07"></path>
      <path d="m49.48,328.32c-.25.06-.84.86-1.98,1.7-.57.42-1.27.84-2.08,1.17-.41.16-.84.3-1.29.41-.19.04-.57.13-.9.15-.34.04-.68.07-1.03.1-.12.61-.19,1.31-.31,1.94-.1.49-.22.97-.36,1.45-.28.96-.64,1.88-1.04,2.72-.41.85-.86,1.62-1.32,2.28-.23.33-.46.64-.69.91-.11.14-.22.27-.34.4-.16.19-.33.38-.49.56-.23.25-.47.5-.72.8.88,1.81.96,2.49,1.1,3.55.11,1.01.04,2.04-.18,3.02-.12.51-.25.93-.46,1.31-.2.38-.46.71-.69.88-.24.16-.36.17-.5.14-.13-.02-.42-.16-.76-.45-1.47-1.26-2.53-3.15-2.89-5.11-.19-.98-.22-1.98-.09-2.94.06-.48.17-.95.31-1.39.01-.12.27-.74.43-1.17l.13-.35c0-.13-.08-.26-.11-.4l-.13-.4c-.04-.12-.11-.31-.1-.32-.45-1.66.29-3.59,1.56-4.54.08-.05.15-.12.24-.17l.57-.32c.53-.3.94-.69,1.21-1.21.27-.51.34-1.09.3-1.7l-.03-1.06c-.02-1.13.02-2.2.18-3.19.16-1,.44-1.88.88-2.65.44-.78,1.01-1.43,1.65-1.85.63-.42,1.35-.63,2.26-.68.44-.02.91-.01,1.4.02l.51.05c.24.03.48.06.71.05.46,0,.9-.11,1.3-.34.55-.32.9-.85,1.16-1.44l.27-.57c.05-.14.12-.26.2-.39.29-.51.64-.98,1.04-1.4.8-.85,1.77-1.54,2.81-2,2.08-.94,4.36-1.07,6.27-.46-.71-.69-1.82-1.33-3.18-1.63-1.35-.32-2.93-.28-4.46.13-1.53.41-3.01,1.19-4.16,2.27-.57.54-1.08,1.13-1.48,1.75-.09.15-.18.3-.27.45.03-.07,0-.02,0-.04-.01,0-.02-.01-.03-.02,0-.01,0-.02,0-.01.08.01-.17-.02-.34-.03-.17-.01-.34-.02-.49-.02-1.55-.02-3.37.2-4.91,1.14-1.5.91-2.52,2.23-3.19,3.59-1.35,2.78-1.23,5.74-1.08,8.11.01.16.05.32,0,.48-.05.16-.21.24-.35.32l-.31.2c-.15.09-.29.21-.43.32-.28.22-.54.46-.77.72-.95,1.03-1.53,2.3-1.79,3.6-.12.65-.16,1.32-.1,1.98.05.65.27,1.39.35,1.61l-.21.6c-.08.3-.17.59-.24.89-.13.6-.21,1.2-.25,1.8-.14,2.41.45,4.76,1.59,6.74.57.99,1.29,1.89,2.13,2.65.42.38.89.76,1.51,1.03.61.27,1.4.37,2.1.15.71-.2,1.26-.64,1.67-1.1.41-.47.71-.98.94-1.5.46-1.09.61-2.11.69-3.16.06-1.05-.02-2.08-.24-3.08-.11-.5-.25-.99-.42-1.46l-.17-.42c-.04-.09-.08-.18-.13-.27.09-.13.21-.25.31-.38l.14-.18.17-.23.33-.47c.43-.64.82-1.29,1.16-1.95.68-1.33,1.19-2.69,1.52-4.06.13-.48.24-1.01.32-1.59.06-.35.05-.47.06-.66.02-.18-.01-.38.02-.55.21-.05.44-.11.69-.22.39-.13.86-.32,1.25-.51.81-.41,1.53-.93,2.1-1.46,1.16-1.08,1.72-2.2,1.92-2.63Z"></path>
    </g>
    <g>
      <path class="cls-1 color-hair" d="m97.84,374.54c3.59,1.05,7.28-1.4,6.88-7.82,3.35-3.04,3.6-8.34.91-12.47s-20.32-40.98-35.89-48.4c-4.84-2.31-9.06,2.78-9.92,7.88-5.16,1.25-7.7,7.45-6.47,11.66-4.73,2.74-6.98,11.87-2.55,15.85-2.59,3.55-.99,12.76,4.15,12.61"></path>
      <path d="m97.85,374.52c.17-.05.64.03,1.34.02.69-.03,1.65-.18,2.55-.8.91-.59,1.66-1.67,2.06-3.01.18-.67.31-1.4.34-2.16.01-.41.04-.71,0-1.22l-.03-.8c.09-.23.34-.39.5-.59,2.31-2.4,2.6-6.05,1.52-8.91-.27-.71-.58-1.38-.97-1.98-.21-.33-.41-.65-.61-.96-.19-.32-.38-.64-.57-.95-.72-1.22-1.36-2.32-1.89-3.23-3.81-6.41-7.88-13.26-12.33-19.91-4.47-6.6-9.27-13.16-14.79-18.12-1.78-1.58-3.67-3.01-5.65-4.02-.25-.14-.5-.27-.68-.32-.2-.07-.39-.17-.58-.18-.19-.04-.38-.09-.57-.08l-.28-.02-.28.04c-.74.09-1.51.48-2.2,1.1-.7.61-1.31,1.43-1.79,2.32-.24.45-.46.91-.63,1.4-.1.24-.17.48-.24.73l-.12.41-.2.92-.19.88c-.03.06,0,.17-.07.2l-.21.07-.43.13-.86.26c-.12.04-.34.1-.37.12l-.17.07c-.47.18-.85.41-1.23.66-.75.52-1.4,1.22-1.92,2.02-1.04,1.6-1.56,3.62-1.38,5.39.05.5.21,1.06.3,1.58l.08.39.04.2c0,.06-.1.08-.14.12l-.67.45-.67.45-.25.17-.08.07-.12.11c-.16.15-.34.28-.5.44-.64.65-1.17,1.44-1.64,2.27-.86,1.7-1.37,3.62-1.32,5.43,0,.91.17,1.77.45,2.56l.24.58c.1.18.21.35.31.52l.15.26.5.55c.27.31.56.62.82.92-.32.52-.65,1.01-.94,1.53l-.13.3-.09.19c-.07.12-.09.28-.14.41-.09.28-.18.56-.22.87-.07.3-.12.59-.13.9-.12,1.22-.04,2.46.22,3.61.26,1.15.71,2.23,1.38,3.05.66.82,1.57,1.31,2.58,1.35-.85.23-2,.09-3-.64-1.01-.72-1.82-1.87-2.39-3.16-.57-1.3-.92-2.76-.98-4.3-.03-.38-.02-.77.01-1.17,0-.39.07-.79.15-1.19.04-.2.06-.4.13-.6l.1-.3.05-.15s0,0,0-.02c0-.12.04-.2.06-.28-.08-.07-.18-.12-.25-.16h-.01s0-.01,0-.01h0s0,0,0,0h0s-.03-.05.07.1l-.09-.12-.19-.24-.37-.49c-.44-.67-.82-1.38-1.05-2.11-.49-1.44-.68-2.89-.61-4.19.08-2.63.94-4.72,1.71-6.05.39-.68.87-1.32,1.39-1.93.28-.29.54-.59.83-.87l.47-.4.24-.2.12-.1.06-.05.03-.02c.05-.05-.04.04-.07.06l.16-.05s.01-.09.02-.15c.01.07-.01-.22-.03-.4-.02-.2-.02-.4-.01-.59,0-.39.01-.78.07-1.16.36-3.04,1.78-5.8,4.02-7.72.28-.24.59-.44.88-.66.31-.2.63-.37.95-.56.32-.16.65-.28.98-.42.23-.08.29-.08.45-.12.11-.06.09-.24.14-.35l.26-.83c.23-.64.49-1.27.8-1.86.62-1.2,1.4-2.31,2.38-3.25.98-.93,2.19-1.7,3.58-2.01,1.38-.33,2.86-.09,4.06.5.57.29,1.09.59,1.63.88.51.33,1.02.67,1.52,1,1.97,1.39,3.7,2.97,5.33,4.6,3.24,3.26,6,6.73,8.54,10.16,5.06,6.89,9.23,13.69,12.95,20.15,1.86,3.23,3.58,6.39,5.23,9.43.41.75.83,1.52,1.23,2.19.44.72.94,1.58,1.24,2.43.67,1.71.93,3.55.74,5.33-.16,1.68-.85,3.7-2.29,5.24-.2.24-.3.31-.41.41l-.18.15c-.04.06-.02.14-.03.21-.01.21-.02.8-.1,1.3-.11,1.01-.35,2.01-.76,2.91-.4.9-.97,1.71-1.66,2.28-.68.59-1.47.91-2.18,1.06-1.44.3-2.49-.12-2.97-.27Z"></path>
    </g>
    <g>
      <path class="cls-1 color-hair" d="m67.08,370.69c-7.6.49-13.2-8.26-9.57-14.95-5-1.45-3.66-9.07-1.49-12.66-1.32-3.74-.91-8.41,2.73-10.77-.47-4.4,1.13-9.54,6.35-9.54,1.57-3.08,6.66-4.83,11.86-1.02"></path>
      <path d="m76.98,321.72c-.04-.19-.6-.8-1.64-1.43-1.03-.61-2.58-1.28-4.38-1.32-1.78-.11-3.76.5-5.17,1.68-.17.16-.34.31-.5.46-.14.15-.32.38-.41.47-.17.14-.19.44-.46.35-.11,0-.21,0-.31,0-.03,0-.11,0-.21.02l-.27.04c-.35.04-.68.1-.98.19-1.05.27-2.09.85-2.91,1.67-.82.82-1.41,1.83-1.82,2.87-.41,1.05-.65,2.15-.76,3.25-.02.28-.06.55-.06.83,0,.25-.01.66-.02.6l-.02.14-.13.07s.05-.06,0,0l-.18.15-.35.3c-.23.21-.43.45-.64.67-.4.47-.75.99-1.05,1.53-.59,1.08-.95,2.26-1.11,3.43-.17,1.17-.15,2.33,0,3.46.08.57.19,1.11.32,1.61.02.09.02.1.02.09h0s0,.02,0,.02c0,.01-.03.03-.04.04,0,.01,0-.01-.02.03l-.11.23-.22.46c-.15.31-.26.62-.39.93-.23.62-.44,1.25-.6,1.89-.32,1.28-.51,2.6-.48,3.98.04,1.37.28,2.84,1.08,4.23.23.34.45.68.7.99l.44.44.22.21c.06.06.18.17.18.16l.3.18h.04s.01.03.02.06h0s.04-.13.02-.07v.06s-.07.22-.07.22l-.11.44c-.07.3-.17.59-.18.89-.16,1.2-.17,2.39.04,3.52.38,2.26,1.4,4.26,2.74,5.81,1.33,1.55,3,2.67,4.7,3.26,1.71.61,3.43.67,4.91.43-2.15-.67-4.63-2.1-6.04-4.06-1.51-1.88-2.07-3.95-2.47-4.95-.11-.24-.2-.48-.25-.72-.06-.25-.14-.49-.2-.74-.05-.5-.17-1.01-.11-1.52.02-.25-.01-.51.04-.76l.14-.75c.28-.96.75-1.89,1.01-2.73-.47-.17-.94-.33-1.41-.49l-1.11-.51c-.2-.14-.31-.26-.49-.39l-.39-.49c-.48-.72-.72-1.67-.8-2.63-.16-1.95.28-3.97,1-5.73l.3-.66.49-.9c0-.32-.19-.66-.27-.98l-.19-.71c-.2-.9-.29-1.81-.25-2.7.07-1.77.67-3.43,1.75-4.6.14-.14.26-.3.42-.42.18-.14.22-.21.57-.46l.79-.56c.09-.27,0-.62,0-.93l-.02-.49v-.33c0-.2,0-.4.02-.6.02-.4.07-.79.13-1.18.25-1.54.84-2.94,1.74-3.91.45-.47.98-.81,1.55-1.06.3-.1.58-.22.9-.26l.23-.05.11-.02s.14,0,.2-.02l.86-.06c.13-.03.31.02.4-.07l.23-.37c.15-.24.3-.51.47-.73.16-.24.38-.45.58-.67.44-.4.95-.73,1.5-.99,1.17-.53,3.06-.89,4.79-.55,1.73.27,3.17,1.03,3.65,1.23Z"></path>
    </g>
    <g>
      <path class="cls-1 color-hair" d="m63.69,339.53c-.31,1.84-.09,3.77.63,5.49-2.97,3.61-2.83,10.46,1.05,13.24-1.65,5.21-2.09,13.5,4.44,15.17-.57,5.36,1.17,8.86,7.26,10,.61,4.09,5.52,6.34,9.08,5.65,6.46-1.25,4.31-10.25-1.45-7.78-.25-4.38-1.93-4.93-3.56-6.18"></path>
      <path d="m81.11,375.15c.02.11.2.34.52.64.31.3.75.66,1.16,1.14.42.47.75,1.11.97,1.88.05.2.09.38.14.62.04.27.09.53.12.84.02.31.05.62.07.94l.03.48v.24c.02.08.01.18.07.18.59-.15,1.23-.42,1.81-.46l.45-.07.22-.03.14.03c.19.04.39.05.57.11.73.22,1.28.82,1.57,1.49.29.68.35,1.42.23,2.04-.16.61-.4,1.12-.73,1.44-.55.59-1.29,1-2.19,1.13-.86.19-1.81.12-2.73-.09-1.83-.46-3.6-1.61-4.35-3.11-.08-.19-.19-.37-.24-.57l-.06-.18c-.07-.16-.07-.27-.1-.41l-.18-.77-.09-.39c-.05-.11,0-.32-.18-.3l-.77-.18-.78-.18-.37-.09-.18-.06c-1.01-.29-1.86-.69-2.56-1.21-1.39-1.01-1.95-2.55-2.01-4.43v-.51s.02-.67.02-.67l.2-2.39v-.15s-.07-.04-.11-.06l-.28-.1-.56-.2-1.13-.39-.14-.05h-.04c-.16-.07-.19-.08-.17-.07h0s-.02-.02-.02-.02l-.09-.05-.18-.1-.37-.2c-.91-.6-1.54-1.54-1.95-2.71-.79-2.37-.61-5.33-.05-7.98l.05-.25.05-.22.07-.26.28-1.02.14-.51.07-.25-.2-.17-.81-.67-.4-.33-.1-.08-.11-.11-.07-.07-.28-.28c-.15-.23-.35-.42-.49-.66-.6-.93-.97-2.07-1.14-3.22-.16-1.15-.12-2.33.11-3.42.07-.27.14-.54.2-.8.09-.26.18-.51.27-.77.12-.25.24-.5.36-.75.26-.4.52-.78.74-1.15-.17-.37-.35-.76-.48-1.09-.14-.37-.2-.52-.28-.74-.14-.42-.25-.85-.34-1.26-.16-.84-.22-1.65-.18-2.44-.39.65-.71,1.5-.87,2.49-.08.49-.11,1.02-.1,1.56l.04.75v.45c-.12.11-.27.2-.38.28-.04,0-.15.16-.24.26l-.27.34c-.34.46-.68.98-.93,1.51-.53,1.06-.87,2.2-1.02,3.29-.34,2.19.12,4.2.69,5.32.41.86.98,1.65,1.63,2.36l.52.5s.06.01.1.02c.04.01.09.03.12.05v.1s.01.11.03.1l-.1.59c-.07.39-.12.79-.17,1.18-.09.78-.16,1.56-.17,2.34-.04,1.56.07,3.1.44,4.61.36,1.5,1.01,2.97,2.05,4.14.52.59,1.13,1.08,1.79,1.47l.51.26.25.13.13.06.03.02c-.1-.06-.03-.02-.05-.03h0s.04.01.04.01l.58.18s.05.01.07.03v.07s-.01.15-.01.15l-.02.3v.8c0,.69.05,1.39.18,2.07.25,1.37.81,2.73,1.73,3.8.93,1.06,2.12,1.79,3.31,2.28.3.12.6.25.9.33l.45.14.22.07.13.03.49.12c.05.15.06.33.11.49l.12.37c.05.16.12.31.2.46.15.3.29.6.49.87.35.56.8,1.03,1.26,1.47,1.91,1.7,4.33,2.5,6.73,2.44.61-.01,1.21-.12,1.8-.3.6-.12,1.15-.45,1.7-.73,1.06-.71,1.87-1.79,2.21-2.99.34-1.2.26-2.47-.22-3.58-.48-1.1-1.42-2.06-2.57-2.45-.14-.05-.28-.1-.42-.16-.15-.02-.3-.04-.46-.06-.3-.03-.7-.09-.81-.03-.17.04-.4.05-.56.12-.16.07-.33.14-.51.22-.12-.08-.11-.36-.2-.56-.03-.11-.07-.22-.12-.37l-.17-.48c-.29-.8-.73-1.55-1.27-2.09-.54-.54-1.12-.86-1.57-1.11-.45-.24-.8-.42-1-.53Z"></path>
    </g>
    <g>
      <path class="cls-1 color-hair" d="m98.85,373.48c-5.36,4.17-10.91,4.74-14.41,1.12-4.37,1.33-11.21-2.66-9.62-8.29-3.34-1.63-3.32-7.21-2.81-10.39"></path>
      <path d="m72.05,355.93c.29.22.16,1.84.34,3.67.08.91.25,1.87.51,2.68.26.82.64,1.47.98,1.83.21.25.46.44.7.62.07.04.11.05.25.16.13.09.3.17.45.26.32.17.65.34.98.51-.01.33-.08.7-.12,1.06-.05.36-.13.81-.08.91l.04.55c.03.17.09.33.12.49.19.64.49,1.24.97,1.77.45.53,1.01,1.01,1.65,1.37.62.38,1.32.66,2,.82.74.2,1.45.25,2.15.19l.26-.02c.07-.01.04,0,.18-.03l.35-.08.69-.15.34-.08c.11-.01.24-.1.32.03l1.03.96.25.23.1.08.21.16c1.09.84,2.42,1.24,3.83,1.28,1.41.07,2.87-.27,4.22-.68,1.35-.43,2.6-.98,3.74-1.5-.35,1.31-1.35,2.87-2.69,4-1.32,1.15-2.98,1.8-3.91,1.78-1.38,0-2.73-.21-3.96-.65-1.23-.44-2.32-1.11-3.21-1.91-.09-.08-.27-.22-.29-.26l-.13-.16-.14-.16c-.05-.05-.12,0-.19-.01-.14.03-.84.06-1.38.05-1.12-.04-2.16-.31-3.14-.66-1.93-.73-3.59-1.93-4.71-3.55-.5-.84-.96-1.74-1.07-2.71-.13-.48-.05-.93-.08-1.39,0-.14,0-.15,0-.21l.02-.14c0-.09.04-.19.01-.26-.12-.07-.24-.11-.34-.19-.04-.02-.42-.31-.59-.54-.23-.23-.42-.48-.58-.74-.18-.25-.31-.52-.44-.78-.51-1.06-.72-2.13-.79-3.14-.1-.94.06-2.2.35-3.26.28-1.06.66-1.92.79-2.2Z"></path>
    </g>
    <g>
      <path class="cls-1 color-hair" d="m90.63,366.41c-3.58.47-10.69-2.43-11.19-8.35-4.74-1.66-7.28-6.42-5.52-11.38-3.77-2.48-5.77-7.71-3.34-11.99"></path>
      <path d="m70.57,334.69c-.19.07-1.19,1.55-1.33,3.57-.23,2.01.56,4.23,1.15,5.35.49,1.01,1.19,1.99,2.07,2.82l.47.44.13.11-.05.11s-.15.41-.2.69c-.06.31-.16.61-.18.93-.4,2.51.37,5.22,1.93,7.13.67.85,1.49,1.57,2.39,2.13.44.3.92.52,1.4.74l.2.08s0,0,0,0h0l.02.11c.34,2.13,1.63,3.91,3.04,5.14,2.95,2.4,6.43,3.18,9.06,2.67-1.24-.27-2.76-.83-4.09-1.57-1.33-.71-2.41-1.54-3.02-1.9-1.23-.75-2.25-1.76-2.88-2.96-.18-.29-.29-.61-.4-.93-.05-.16-.13-.31-.15-.48l-.12-.6-.07-.4c-.02-.06,0-.15-.06-.18l-.19-.07-.68-.25c-.32-.1-.61-.27-.91-.41-2.37-1.22-3.89-3.52-4.21-5.82-.17-1.15-.08-2.29.21-3.34.03-.15.07-.22.13-.43l.19-.59c.02-.1.08-.21.08-.29l-.23-.17-.46-.34-.23-.17-.15-.13-.29-.26c-.2-.16-.36-.37-.54-.55-1.35-1.51-2.17-3.28-2.46-5-.14-.82-.24-1.97-.1-2.99.05-.52.19-.98.28-1.37.13-.37.22-.66.27-.81Z"></path>
    </g>
    <g>
      <path class="cls-1 color-hair" d="m88.86,328.98c-2.05,1.81-2.47,4.64-2.1,7.19-2.95,2.19-4.47,6.14-2.31,9.43-1.08,3.05-1.83,5.79,1.52,9.62.27,3.91,2.15,7.58,5.57,9.65.39,5.48,5.09,9.9,8.36,9.88"></path>
      <path d="m88.87,328.99c-.02.14-.44.54-.86,1.26-.43.71-.84,1.74-.97,2.91-.07.58-.09,1.19-.05,1.79,0,.15.02.3.04.45l.02.23.04.31.04.31c.02.06-.01.09-.06.12l-.11.09-.44.37c-.87.79-1.43,1.63-1.74,2.28-.56,1.14-.82,2.45-.63,3.7.1.62.3,1.23.6,1.79l.37.61c.28.28.05.55-.01.83l-.13.39-.08.25c-.05.17-.1.34-.14.51-.38,1.35-.5,2.66-.16,3.87.17.61.44,1.19.77,1.74.17.28.34.55.55.81.1.13.19.27.3.39l.36.42.29.35c.06.13.04.29.07.44l.06.53c.04.28.08.56.14.84.11.55.25,1.1.43,1.63.35,1.07.86,2.06,1.47,2.95.61.9,1.37,1.67,2.2,2.32.24.19.31.23.87.61.1.09.26.13.31.25l.05.41.07.62c.01.26.06.51.11.76.05.25.09.51.17.75.51,1.98,1.59,3.72,2.83,5.07,1.27,1.32,2.76,2.33,4.25,2.48-.66.21-1.61.18-2.56-.13-.96-.3-1.91-.84-2.75-1.49-1.69-1.3-2.77-3.1-3.1-4.11-.36-1.01-.56-2.06-.65-3.09-.07-.52.18-.2-.34-.61-.39-.32-.77-.64-1.12-.99-1.4-1.4-2.37-3.06-2.98-4.77-.31-.85-.52-1.72-.66-2.58l-.09-.65-.05-.58c-.01-.18-.4-.52-.63-.87-1.01-1.34-1.76-2.93-1.83-4.58-.05-.82.06-1.62.22-2.37.08-.38.18-.74.29-1.1.09-.29.18-.58.27-.87,0-.1-.08-.15-.14-.27-.11-.16-.19-.33-.26-.51-.17-.34-.28-.71-.4-1.07-.18-.73-.24-1.49-.19-2.21.13-1.46.71-2.79,1.49-3.87.4-.54.84-1.03,1.33-1.45.14-.13.18-.15.26-.21.05-.06.18-.1.18-.17l-.04-.66c-.07-1.16.17-2.79.83-4.03.63-1.27,1.59-2.01,1.89-2.22Z"></path>
    </g>
    <path d="m65.28,333.64c.27.18,1.05-.66,1.46-.9.75-.41,1.34-1.14,1.83-1.83.86-1.2,1.15-2.7.88-3.73-.91.17-1.7.64-1.66.93.14,1.2-.3,2.11-.81,2.78-.52.68-1.1,1.14-1.42,1.7-.17.25-.26.91-.27,1.05Z"></path>
    <g>
      <path class="cls-1 color-hair" d="m78.2,344.18c-.87-2-.41-4.28,1.19-5.64-1.15-3.69-1.02-7.99,3.29-9.73"></path>
      <path d="m78.18,344.18c-.16,0-.54-.62-.69-1.45-.17-.82-.05-1.8.06-2.34.08-.48.25-.98.52-1.45l.22-.34c.08-.1.19-.25.17-.24.03-.05.04-.08-.02-.18l-.06-.12s-.06-.21-.09-.31c-.07-.24-.14-.48-.19-.73-.12-.49-.2-.99-.25-1.48-.21-1.71.18-3.6,1.19-4.95,1.04-1.34,2.46-1.94,3.54-2.07-.14.29-.32.59-.51.86-.17.31-.36.57-.51.84-.31.53-.56.94-.76,1.12-.89.65-1.38,1.74-1.54,2.8-.17,1.07-.03,2.11.21,3.05l.09.35.05.17.07.23.15.46.08.23c-.03.07-.11.12-.16.18-.12.12-.24.24-.35.37-.09.11-.14.16-.2.25-.12.16-.22.33-.31.5-.35.69-.52,1.39-.59,2.07-.1.62-.14,1.87-.09,2.15Z"></path>
    </g>
    <g>
      <path class="cls-1 color-hair" d="m66.22,328.03c3.3,1.52,10.23-.96,11.67-4.3"></path>
      <path d="m66.21,328.04c-.01.14.45.47,1.06.62.6.19,1.31.23,1.71.31,1.42.28,3.05-.03,4.44-.5,1.22-.41,2.35-1.06,3.21-1.89.86-.82,1.44-1.85,1.52-2.74-1.06.4-2.21.73-2.46,1.11-.46.78-1.15,1.39-1.87,1.81-.71.44-1.46.7-2.17.87-1.44.33-2.7.28-3.76.3-.26.02-.6.02-.94.08-.32,0-.63.02-.74.03Z"></path>
    </g>
    <g>
      <path class="cls-1 color-hair" d="m93.35,346.31c1.49,2.04,2.14,4.69,1.77,7.19-.02.13-.04.28,0,.4.08.23.33.34.55.44,2.67,1.19,4.44,4.15,4.22,7.06"></path>
      <path d="m99.9,361.4c.15-.05.3-.75.22-1.56-.05-.82-.33-1.71-.49-2.22-.25-.91-.77-1.81-1.48-2.58-.35-.38-.76-.73-1.2-1.03-.22-.15-.44-.29-.68-.41l-.17-.09c-.06-.03.02,0,0,0h0s0-.02,0-.02c0-.01,0-.02.02-.02,0-.02,0,.04.01-.04l.04-.32c.04-.43.06-.85.04-1.27-.04-.84-.19-1.65-.44-2.38-.49-1.47-1.35-2.62-2.19-3.3-.05.63-.01,1.36.03,1.99.05.63.11,1.17.26,1.42.61,1.02.88,2.16.87,3.23,0,.13,0,.27-.01.4,0,.1-.04.37-.04.53-.02.38.25.7.57.86l.43.21c.11.06.22.11.32.17.2.13.41.25.59.4,1.49,1.16,2.13,2.72,2.6,4.01.23.61.64,1.78.7,2.05Z"></path>
    </g>
    <g>
      <path class="cls-1 color-hair" d="m73.24,307.97c1.15,2.37-1.05,5.73-3.38,6.19-.07,1.44-.57,3.04-2.08,3.62"></path>
      <path d="m67.79,317.8c.09.12.62.02,1.11-.36.5-.37.86-.98,1.07-1.31.2-.29.36-.62.47-.97.03-.09.05-.17.08-.26.02-.04.03-.04.04-.06.03-.02.03-.07.08-.05.05,0,.06.02.11.01.19-.07.39-.13.57-.23.36-.17.69-.39.99-.62,1.04-.81,1.71-1.98,1.92-3.16.24-1.17-.14-2.35-.74-2.93-.4,1.06-1.05,1.85-1,2.21.14.76-.11,1.56-.5,2.18-.4.62-.97,1.08-1.55,1.3l-.24.09c-.12.04-.24.06-.36.09l-.36.08c-.11.04-.05.21-.09.31-.03.21-.06.51-.1.66-.03.14-.07.28-.11.41-.16.53-.37.97-.58,1.36-.11.18-.23.46-.4.71-.16.25-.35.46-.42.54Z"></path>
    </g>
    <g id="Layer_124_copy-2" data-name="Layer 124 copy" class="cls-4">
      <path d="m54.59,343.31c-.16,0-.58-.3-.99-.93-.44-.61-.83-1.55-1.01-2.62-.19-1.07-.15-2.24.05-3.28.18-1.05.55-1.95.79-2.6.23-.57.51-1.14.86-1.69.19-.26.35-.55.57-.8l.32-.38c.05-.05.14-.16.09-.11l.04-.06c.03-.08.13-.12.06-.22-.04-.1-.07-.13-.12-.36-.09-.34-.07-.7-.08-1.06,0-.36-.04-.73.02-1.09.13-1.49.75-2.93,1.56-4.14.83-1.21,1.87-2.11,2.88-2.93,1.69-1.27,3.48-2.16,5.2-2.93.43-.18.86-.36,1.28-.54l.56-.22h.03s.06.02.12.02c.04,0,.16,0,.13-.02,0-.02,0-.06,0-.12,0-.03-.07-.15-.1-.23-.12-.25-.24-.51-.36-.76-.45-1.09-.62-2.2-.57-3.23.07-2.09,1.07-3.89,2.33-4.85-.29,1.55-.14,3.26.41,4.53.25.64.56,1.18.82,1.6.3.46.34.59.94,1.35.09.11.14.22.25.33l.45.35c.29.23.57.46.84.68.52.41,1.01.81,1.46,1.17l-.4.18-.19.09-.26.1-1.02.38c-.64.24-1.27.47-1.89.7-.58.21-1.15.42-1.72.63-.35.11-.69.23-1.03.34-1.36.45-2.63.97-3.8,1.56-2.32,1.17-4.3,2.81-5.02,4.81-.42.98-.43,2.02-.36,3.01.06.36.11.72.17,1.07l.1.62c-.06.17-.28.28-.41.42l-.45.41c-.2.18-.26.26-.34.34-.16.18-.33.34-.47.54-1.18,1.46-1.84,3.13-2.12,4.72-.12.8-.27,1.92-.15,2.97.04.53.17,1.01.26,1.42.13.4.23.71.28.86Z"></path>
      <path d="m77.38,325.9c.14.08.17.42.12.94-.07.24-.15.54-.28.85-.18.28-.35.63-.64.88-.53.58-1.28.95-1.95,1.19-.67.26-1.28.39-1.7.53-.75.25-1.53.41-2.26.57-.36.08-.72.16-1.08.24l-.5.13-.22.08-.04.03c-.06.05-.1.09-.09.17v.05s.02-.01-.04.12l-.23.57c-.31.76-.66,1.52-1.06,2.26-.35.65-.77,1.29-1.26,1.89-.24.3-.51.59-.79.87-.14.14-.27.25-.41.38-.09.07-.1.1-.12.12l-.06.07c-.17.18-.33.38-.42.74-.1.36-.17.81-.18,1.34-.05,1.04.01,2.26-.14,3.43-.14,1.17-.53,2.35-1.22,3.11-.35-1.18-.98-2.17-1.49-3.08-.51-.9-.88-1.86-.79-2.46.18-1.17.29-2.46.91-3.7.15-.31.32-.59.54-.85.19-.27.44-.5.68-.71.13-.12.24-.21.32-.26l.27-.2c.17-.13.34-.27.49-.42,1.27-1.21,2.03-2.77,2.67-4.3.12-.27.23-.53.34-.8.07-.12.09-.29.2-.37l.4-.15c.52-.21,1.13-.36,1.49-.43.83-.18,1.6-.25,2.32-.34,1.44-.15,2.68-.3,3.63-.58.43-.17,1.03-.32,1.56-.73.51-.41.87-.99,1.02-1.17Z"></path>
      <path d="m88.98,366.04c0,.17-.35.46-.95.83-.31.14-.69.28-1.12.42-.43.07-.92.19-1.42.18-1.02.04-2.09-.24-3.01-.61-.45-.2-.87-.42-1.24-.63-.36-.23-.69-.43-.96-.61-1.3-.86-2.44-2.1-3.28-3.56-.2-.37-.39-.76-.58-1.14-.16-.4-.31-.81-.46-1.22-.3-1.18-.25-.88-.31-1-.05.01-.1.03-.13.03-.02,0,0,.02-.13-.01l-.38-.1c-.23-.09-.46-.2-.69-.31-.92-.43-1.59-1.06-2.19-1.68-1.48-1.72-2.29-3.66-2.67-5.64-.21-.98-.25-2.01-.21-3.03l.1-.78c.02-.11.04-.3.05-.34l.05-.13c.07-.24.1-.22.15-.28,0-.03-.04-.09-.04-.13-.42-.37-.79-.78-1.08-1.21-.6-.86-.97-1.79-1.16-2.7-.37-1.83.06-3.58.9-4.73.23,1.47.88,2.93,1.69,3.89.79,1,1.6,1.47,1.87,1.87.75.6,1.53,1.01,2.07,1.39l-.45.92-.22.44-.16.37-.3.71c-.1.23-.09.29-.13.45-.08.26-.13.54-.16.82-.05.28-.05.57-.05.86,0,1.16.22,2.32.62,3.37.4,1.04.97,2,1.7,2.66l.57.44c.2.11.41.2.61.3.11.04.19.04.34.08.16.05.38.05.57.07.39,0,.78,0,1.17,0,.11.33.11.8.17,1.19.02.2.04.41.08.61.05.25.08.37.11.49.1.51.31.99.48,1.47.41.93.92,1.77,1.5,2.51,1.18,1.44,2.55,2.5,3.96,3.03.67.27,1.62.53,2.58.6.96.05,1.84-.17,2.15-.19Z"></path>
      <path d="m84.15,381.99c-.31.09-.98-.66-1.57-1.66-.6-.97-1.11-2.24-1.46-2.85-.11-.11-.22-.23-.34-.35-.14.02-.26.05-.37.08l-.16.04s-.08,0-.16,0h-.23c-.61-.07-1.25-.23-1.88-.37-1.27-.42-2.64-1.02-3.69-2.21-1.08-1.2-1.53-2.76-1.69-3.92-.17-1.19-.21-2.11-.36-2.67-.08-.28-.16-.51-.3-.74-.04-.14-.19-.22-.28-.34l-.16-.18c-.05-.06-.28-.19-.39-.29-.53-.45-.87-.97-1.06-1.6-.17-.6-.04-1.22.34-1.58.21.4.56.81,1.02.93.42.1.86.08,1.13-.03.03-.12.49.03.76.09.3.1.61.17.85.36.51.34.89.72,1,1.06.45,1.04.43,1.93.47,2.69-.01.74-.04,1.4-.02,1.98.03,1.18.37,2.16,1.07,2.84.69.69,1.62,1.09,2.55,1.31.48.1.91.24,1.39.27.58.08,1.4.19,2.09.3.11.44.21.87.32,1.29.05.2.11.39.16.59l.11.37c.14.49.27.97.4,1.43.26.9.41,2.78.47,3.18Z"></path>
      <path d="m83.16,345.19c.18.32-.56,1.45-.61,2.91-.11,1.45.48,3.05,1.05,3.77.24.33.5.64.78.95.38.4.76.8,1.14,1.2.09.06.09.15.1.25l.04.27.08.55c.03.22.05.27.07.39l.07.33c.1.43.2.86.32,1.27.47,1.66,1.22,3.13,2.21,3.89.31.26.66.43,1,.6.51.15,1.01.29,1.5.44.55.14,1.1.27,1.63.4-.14.61-.28,1.22-.42,1.82l-.18.89-.09.44v.17c-.03.44-.04.89.03,1.34.11.89.37,1.77.74,2.57.75,1.61,1.91,2.84,3.17,3.67l.19.12-.19.3c-.05.08-.02.06-.03.02,0-.04-.03-.05.04.02.06.08.23.08.18.08-.04.02-.12.24-.11.44-.02-.21.07-.43.11-.44.03-.01-.02.01-.06-.01-.06-.01-.11-.07-.07-.02.05.1-.06.32-.32.27h.02c-1.12.35-2.64.14-3.83-.5-1.21-.62-2.06-1.58-2.28-2.24-.51-1.38-.75-2.75-.78-4.06,0-.66.04-1.29.13-1.91.08-.28.19-.56.3-.85-.19-.08-.41-.15-.67-.29-.07-.04-.1-.04-.21-.11l-.32-.19c-.22-.12-.43-.25-.62-.4-.79-.57-1.44-1.27-1.93-2.03-.98-1.51-1.47-3.12-1.79-4.63-.08-.38-.15-.75-.2-1.13l-.07-.44c-.02-.1-.02-.21-.06-.3l-.2-.21c-.07-.07-.22-.28-.32-.41-.23-.29-.43-.61-.62-.92-.75-1.26-1.2-2.66-1.2-4.03-.05-.84.29-2.01.84-2.83.53-.84,1.22-1.3,1.43-1.45Z"></path>
      <path d="m101.04,362.41c-.33-.02-.6-.63-.89-1.32-.17-.33-.33-.69-.5-1-.2-.3-.38-.56-.55-.72-.65-.54-1.21-1.06-1.88-1.55-.65-.5-1.38-1.05-2.12-1.65-1.32-1.06-2.46-2.64-2.95-4.17-.28-.76-.37-1.52-.43-2.21-.02-.7.05-1.34.16-1.91.94.24,1.79.66,2.41,1.06.66.37,1.01.78,1.02,1.07-.09,1.25.29,2.32.86,3.21.58.89,1.37,1.56,2.14,2.22.78.65,1.53,1.35,2.11,2.12.56.78.97,1.61,1.08,2.42.22.77-.33,2.2-.46,2.45Z"></path>
      <path d="m104.02,369.48c-.21-.25-.03-.69.03-1.2.08-.5.08-1.08-.09-1.41-.29-.6-.52-1.1-.73-1.9l-.19-.94c-.03-.09,0-.16.04-.23l.1-.22.21-.45.1-.22.04-.11.08-.22c.05-.14.1-.29.14-.43.27-.83.54-1.64.79-2.4.22-.64.34-1.35.29-2.25.8-.32,1.77-.26,2.44.18.7.41,1.05,1.11.94,1.46-.45,1.46-1.04,2.35-1.49,3.18-.23.41-.44.79-.63,1.17-.09.19-.18.37-.27.55-.05.11-.08.16-.09.21l-.06.16c-.07.1.02.21.04.32l.05.17.06.26c.08.36.15.71.19,1.07.09.71.05,1.46-.26,2.1-.11.31-.49.67-.86.88-.38.21-.76.28-.88.3Z"></path>
      <path d="m112.84,361.07c.02.17-.13.37-.35.58-.21.24-.47.53-.7.88-.47.7-.82,1.68-.89,2.29-.12,1-.3,2.09-.78,3.27-.26.59-.56,1.2-1.06,1.78-.46.59-1.13,1.09-1.84,1.46l-1.87.98-.69-2.12c-.07-.23-.15-.44-.2-.66-.18-.81-.11-1.62.06-2.29.17-.68.44-1.24.72-1.74.57-.99,1.22-1.74,1.84-2.38.61-.64,1.21-1.17,1.68-1.62.24-.22.44-.43.59-.59.15-.13.27-.37.28-.61.49.03.98.33,1.22.89.24.54.29,1.15.26,1.67-.07,1.06-.38,1.82-.73,2.05-1.08.72-1.96,1.4-2.56,2.18-.6.76-.85,1.6-.63,2.25l-1.03-.46c1.2-.53,1.73-1.86,2.15-3.08.42-1.23.81-2.52,1.66-3.54.15-.2.39-.41.64-.61.3-.17.58-.36.9-.44.61-.22,1.17-.14,1.32-.13Z"></path>
      <path d="m114.25,363.62c-.29.13-2.04-.27-4.26-1.01-1.1-.39-2.32-.86-3.44-1.65-.55-.41-1.11-.89-1.46-1.63-.09-.18-.14-.38-.2-.58l-.04-.31s0-.06,0-.09c0-.16.03-.31.07-.44.19-.22-.14-.17-.31-.2-.17-.01-.33-.03-.47-.04-.08-.01-.1,0-.23-.03l-.4-.1c-.27-.06-.53-.13-.8-.22-.55-.17-1.08-.39-1.61-.62-1.06-.49-2.07-1.14-3-1.91-.93-.77-1.77-1.68-2.49-2.7-.18-.25-.36-.51-.52-.78l-.24-.4c-.05-.09-.04-.05-.06-.09-.06-.05-.08-.14-.13-.13-.03.03-.07.06-.1.08-.06.03.1.01-.48.13-.43.09-1.05.07-1.58-.06-.53-.15-1.01-.38-1.39-.65-.77-.54-1.24-1.14-1.65-1.68-.41-.55-.73-1.06-1.05-1.55-.67-1.07-1.32-2.04-1.9-2.51-.29-.24-.49-.32-.69-.36-.06,0-.1-.02-.16-.02-.01-.01-.45.02-.75.14-.63.19-1.26.38-1.89.57-.36-.94-.73-1.93-1.06-2.88l-.21-.69-.11-.38-.21-.73c-.27-.95-.53-1.82-.86-2.54-.32-.72-.69-1.25-1.1-1.57-.1-.08-.2-.17-.33-.22l-.09-.05s-.01-.01-.14-.06l-.16-.04c-.2-.07-.46-.06-.69-.09-.88-.08-1.74-.17-2.59-.25.23-.49.46-.97.69-1.45.21-.48.52-1.04.59-1.38l.18-.57c.06-.19.03-.21.05-.32.03-.18.04-.37.03-.55,0-.75-.2-1.5-.51-2.17-.63-1.35-1.73-2.33-2.99-2.72.67-.27,1.64-.32,2.63.03.99.34,1.99,1.06,2.72,2.03.73.96,1.22,2.15,1.34,3.36.01.15.02.3.04.45.01.16.02.12.02.18.01.08.02.17.05.15.04,0,.06-.01.07-.02.01,0,0,0-.02.04,0,.01-.01.03-.01.04.02.03-.08-.01.14.1.31.15.59.32.84.54.27.19.51.41.72.65.23.23.42.46.58.71.68.97,1.03,1.95,1.32,2.86.28.92.46,1.79.64,2.61l.13.57.05.29c.02.1.04.2.06.3l.04.16.02.08s.04,0,.07,0c.14-.03.3-.05.47-.06l.43.02c.21.03.42.05.62.11.83.21,1.51.68,2.03,1.19,1.04,1.04,1.63,2.18,2.26,3.21.61,1.01,1.23,2.02,1.96,2.48.37.21.66.27,1.1.17.06-.02.1-.02.18-.05l.28-.14c.18-.09.37-.19.55-.3.37-.22.72-.45,1.06-.68.03.02.07.03.1.05l.07.17.13.34.27.68c.2.44.39.9.61,1.33.31.54.64,1.06,1.02,1.54.75.96,1.61,1.77,2.53,2.44.92.67,1.9,1.19,2.89,1.58.24.11.5.19.76.27.15.04.22.08.42.13l.66.15c.44.1.87.19,1.31.26l.65.12c.18.05.23.15.34.22-.28.54-.6,1.15-.81,1.67l-.11.25v.04s0,.06.02.09c0,.06.03.13.06.2.12.29.43.63.79.94,1.71,1.43,5.95,3.45,6.63,4.01Z"></path>
      <path d="m36.12,352.44c0-.09.09-.23.24-.4.14-.18.38-.34.55-.62.45-.49.75-1.25.72-2.15-.02-.9-.32-1.91-.63-2.83-.34-.96-.66-1.83-.88-2.46-.21-.58-.38-1.23-.44-1.97-.03-.37,0-.76.08-1.24l.23-.71.12-.36.29-.24.48-.42c.08-.05.13-.14.18-.22.1-.17.23-.3.3-.52.09-.19.18-.39.24-.64.08-.22.14-.47.2-.74.24-1.05.35-2.28.72-3.68.07-.33.24-.73.37-1.1.16-.37.4-.78.64-1.15.33-.36.62-.77,1.06-1.04.42-.28.86-.56,1.3-.66.37-.11.79-.26,1.12-.25l.52-.03c.13-.01,0,.01.03,0h0s0-.02,0-.03c0-.03-.02.05.01-.06v-.03s.09-.21.09-.21l.18-.46c.14-.28.28-.58.45-.82.66-1.02,1.42-1.73,2.08-2.33.31-.28.63-.56.94-.84l.4-.38.08-.08h.01s.03-.01.03-.01c.03,0,.04-.02.05-.04l.02-.03.02-.28c.03-.42.07-.84.12-1.26.19-1.68.58-3.42,1.47-4.87.87-1.47,2.28-2.39,3.52-2.75-.39.68-.8,1.41-1.04,2.17-.24.76-.32,1.52-.33,2.24,0,1.44.17,2.84,0,3.63l-.13.64-.06.33-.03.16-.03.29-.07.6c-.03.19,0,.41-.18.54-.28.3-.53.6-.82.87-.77.68-1.49,1.17-2.12,1.67-.63.5-1.17.99-1.53,1.53-.09.14-.18.27-.24.42-.03.09-.08.1-.1.26l-.08.41c-.1.57-.11,1.21-.12,1.76-.03.01-.05.03-.09.04l-.15-.02-.29-.05-.58-.09c-.39-.06-.76-.14-1.14-.16h-.77s-.58.15-.58.15c-.72.25-1.17.9-1.45,1.74-.56,1.68-.57,3.65-1.41,5.52l-.37.69c-.15.22-.33.43-.5.64-.09.1-.16.22-.27.3l-.26.2c-.09.09-.2.11-.21.23-.14.29-.16,1.02-.02,1.7.23,1.38.8,2.86,1.01,4.4.08.51.11,1.14.03,1.81-.06.34-.15.69-.26,1.01-.17.32-.28.65-.51.91-.4.55-.92.85-1.32,1.07-.43.16-.75.26-.9.31Z"></path>
      <path d="m36.56,307.54s-.09-.03-.02-.03c.01,0,0,0,0,.02-.01.03,0,.1,0,.1,0,.02-.02.06-.01.07,0,0-.07-.06-.1-.06-.03,0,0,0,.04-.04l-.18-.17c.64-.3,1.83-.93,2.76-1.93.95-.97,1.56-2.25,1.5-2.94.01-.18-.03-.38-.04-.64,0-.38.05-.77.19-1.13.27-.74.91-1.33,1.69-1.67,1.37-.56,2.44-.57,3.52-.66,1.05-.07,2.05-.1,2.92-.22.87-.12,1.62-.35,1.95-.65.17-.14.28-.26.36-.43.17-.27.28-.94.47-1.3.21-.35.41-.76.64-.94.23-.22.5-.41.84-.54.33-.14.74-.19,1.03-.17.15.02.26,0,.42.08l.49.26.48.25.24.13.24.25.59.51.29.25c.07.05.1.06.15.1.2.11.37.25.58.33.4.2.82.37,1.25.48.86.24,1.75.3,2.56.19.81-.11,1.54-.38,2.16-.82.61-.45,1.07-1.06,1.46-1.73.13.26.24.57.33.93.07.35.05.73.03,1.15-.13.79-.5,1.69-1.13,2.35-1.23,1.42-3.05,1.92-3.91,1.78-1.21-.15-2.31-.47-3.27-.95-.48-.25-.94-.48-1.35-.79-.19-.14-.45-.31-.57-.42l-.28-.3c-.09-.1-.17-.22-.26-.34-.1-.11-.18-.27-.32-.32-.32-.06-.43.27-.51.5-.04.13-.12.25-.19.38l-.22.32c-.08.13-.2.24-.3.36-.42.45-.94.79-1.45,1.02-1.04.44-2.06.57-3.01.65-.95.08-1.85.09-2.7.13-.84.04-1.66.09-2.3.26-.34.1-.49.17-.63.29-.14.12-.24.29-.26.46-.01.04,0,.09-.01.13v.22c-.02.21-.04.42-.1.67-.09.47-.26.9-.45,1.29-.39.78-.9,1.42-1.47,1.94-.55.56-1.46,1.09-2.34,1.35-.88.28-1.69.25-2,.18h-.05s0-.02,0-.02c-.1-.13.02-.24.07-.26.06-.04.12-.04.16-.04.1.02.04.09.04.1Z"></path>
    </g>
    <g id="Layer_125_copy-2" data-name="Layer 125 copy" class="cls-3">
      <path class="cls-2" d="m48.86,294.32c.18.29-.81,1.05-1.18,1.41-.15.17-.33.33-.52.47-.1.07-.2.14-.3.2-.16.09-.35.17-.54.24-.76.31-1.55.45-2.25.54-.38.05-.75.09-1.11.12.22-.94.35-1.81.94-2.58.54-.77,1.46-1.25,1.86-1.2,0,.24,0,.47,0,.68.02.2.09.33.17.42.16.18.35.14.24.14-.21.01-.44.13-.64.3-.1.08-.18.18-.26.28-.04.05-.07.1-.1.15-.04.05.01.04.02.06.25.14.88-.08,1.15-.27.47-.25.96-.59,1.4-.77.27-.13.95-.18,1.1-.19Z"></path>
      <path class="cls-2" d="m39,326.64c-.32-.06-.22-.63-.31-.9-.19-.49-.05-1,.12-1.43.3-.78,1.15-1.19,1.83-1,.3.8.5,1.41.32,1.38-.72-.11-1.05.28-1.16.64-.11.38-.04.72-.23.96-.06.11-.49.3-.58.35Z"></path>
      <path class="cls-2" d="m79.97,353.81c-.12.1-.49-.08-.83-.41-.35-.33-.64-.79-.83-1.05-.17-.22-.32-.48-.42-.8l.96.52-.3.25c-.15.11-.43.32-.64.55-.45.49-1.06,1.37-1.68,2.19-.08-.28-.13-.44-.16-.53-.15-.66-.32-1.38-.4-2.12-.04-.38-.04-.79,0-1.19.01-.2.03-.39.07-.6.02-.14.06-.23.09-.34.25-.87.73-1.56,1.24-1.97.48.87.81,1.8.63,2.07-.09.12-.16.24-.23.36-.06.11-.11.08-.15.16-.09.11-.15.29-.19.47-.04.19-.05.38-.04.56v.13s.05-.03.07-.04l.15-.17c.15-.16.3-.31.44-.44.08-.07.1-.1.23-.19.14-.09.28-.17.41-.25l.52-.28.19.66c.14.48.34.88.51,1.27.13.3.32,1.03.4,1.19Z"></path>
      <path class="cls-2" d="m100.23,371.95c-.13.09-.52-.15-.89-.5-.38-.35-.75-.81-.99-1.05-.63-.6-1.12-1.47-1.4-2.38l1.63.28c-.05.09-.11.18-.16.27-.06.09-.18.25-.28.36-.21.24-.43.45-.66.63-.56.43-1.11.63-1.65.9-.3-.7-.6-1.3-.75-2.03-.16-.84-.1-1.17-.04-1.59.14-.82.51-1.48.93-1.91.48.93.97,1.83.85,2.14-.06.13-.1.35-.15.41-.05.05-.08.12-.11.2-.05.17-.04.4,0,.62.13.07.33-.06.49-.18.17-.14.27-.25.43-.52l.47-.77.26.9c.35,1.23,1.04,2.07,1.49,2.87.21.35.47,1.17.53,1.34Z"></path>
      <path class="cls-2" d="m58.56,351.11c-.25.22-.77-.37-1.05-.56-.56-.32-.88-.97-1.02-1.57-.31-1.08.3-2.24,1.09-2.51.58.66,1.05,1.14.88,1.22-.7.4-.72,1.11-.52,1.55.2.47.54.74.64,1.1.07.15,0,.65,0,.77Z"></path>
      <path class="cls-2" d="m87.17,384.23c.11.1.04.35-.14.58-.17.24-.43.46-.56.61-.47.6-1.35.83-2.09.79-.67-.01-1.33-.3-1.76-.75-.44-.45-.62-1.05-.54-1.5.92-.03,1.55-.26,1.54-.07.09.82.92,1.1,1.45.98.58-.11.92-.44,1.3-.55.15-.07.68-.07.82-.1Z"></path>
    </g>
  </g>
</svg>