<svg xmlns="http://www.w3.org/2000/svg" id="braid-lowbun" viewBox="0 0 380 600">
  <defs>
    <style>
      .cls-1 {
        fill: blue;
      }

      .cls-2 {
        fill: #fff;
      }

      .cls-3 {
        fill: #172e35;
      }

      .cls-4 {
        opacity: .15;
      }

      .cls-5 {
        opacity: .25;
      }
    </style>
  </defs>
  <g id="front-13" data-name="front">
    <g id="Layer_74-2" data-name="Layer 74">
      <g>
        <path class="cls-1 color-hair" d="m184.71,195.91c-3.3-1.41-5.75-2.55-4.83-5.18,2.19-6.25,14.54-6.09,19.67-4.08,5.01-2.33,13.12-1.69,17.88.64,5.36-2.05,17.93,0,20.89,9.22"></path>
        <path d="m238.35,196.49c.05-.17-.1-.96-.56-2.04-.14-.26-.28-.55-.44-.85-.08-.15-.16-.3-.25-.46-.1-.15-.21-.29-.32-.45-.22-.3-.45-.62-.69-.94-.28-.29-.57-.59-.86-.89-2.4-2.43-6.05-3.89-8.08-4.47-1.8-.58-3.76-.89-5.8-.91-1.02-.01-2.06.09-3.12.29l-.4.11-.19.05h-.04c-.05.02-.1.02-.15-.02l-.04-.02h-.02s-.09-.05-.09-.05l-.36-.17-.73-.3c-3.93-1.48-8.12-1.93-12.13-1.52-.88.09-1.75.25-2.62.46-.44.09-.87.25-1.3.38-.22.06-.43.16-.64.24-.06.03-.03.01-.04.01h0c-.2-.07-.43-.16-.64-.21-.43-.11-.86-.23-1.28-.32l-1.27-.24-1.26-.16c-3.36-.34-6.67-.13-9.76.81-1.54.5-3.02,1.23-4.26,2.31-.29.3-.61.54-.86.88-.24.34-.47.67-.71,1-.33.75-.7,1.44-.76,2.35-.04.44.03.91.16,1.35.16.43.39.82.66,1.11.54.61,1.15.96,1.72,1.26,1.16.58,2.26.91,3.29,1.24-.74-.69-1.75-1.42-2.67-2.29-.45-.43-.86-.91-1.05-1.36-.17-.47-.11-.81.05-1.22l.15-.31c.06-.1.15-.21.22-.32.16-.2.24-.43.44-.6.18-.17.35-.34.5-.5.17-.15.38-.27.55-.41.72-.52,1.46-.86,1.97-1.14,2.06-1.13,4.57-1.6,6.96-1.77,2.4-.12,4.81.05,6.96.66l.53.17.3.1s.1.04.15.04l.14-.06.97-.42c.52-.18,1.03-.38,1.57-.5,1.06-.29,2.14-.45,3.21-.53,2.14-.17,4.25-.02,6.23.34.99.18,1.96.42,2.88.71.46.14.91.31,1.35.49.22.08.44.18.64.28l.47.22c.16.05.32.22.49.11.79-.22,1.08-.34,1.55-.4.44-.08.87-.16,1.32-.17.44-.04.88-.07,1.32-.05.44,0,.87,0,1.31.04,1.73.11,3.39.43,4.93.91,1.54.48,2.99,1.07,4.27,1.84,1.21.72,2.86,1.8,3.99,3.14.33.3.53.67.79.98.23.32.49.61.63.91.33.59.58,1.04.71,1.26Z"></path>
      </g>
      <g>
        <path class="cls-1 color-hair" d="m208.96,199.98c-16.8.24-15.95-7.83-8.61-9.79,2.46-.65,7.13-.75,13.8,1.9,5.67-2.82,12.21-2.29,17.11,1.52,6.73-2.36,14.61.53,19.67,4.51,5.33-.78,14.32,5.46,15.78,12.5"></path>
        <path d="m266.73,210.62c.05-.21-.04-1.28-.63-2.75-.6-1.45-1.74-3.24-3.28-4.86-1.55-1.61-3.47-3.06-5.42-4.08-1.94-1.03-3.93-1.6-5.46-1.67h-.48s-.22,0-.22,0c-.07,0-.12-.09-.17-.12l-.09-.08-.19-.15c-.49-.41-1.02-.78-1.55-1.16-1.07-.74-2.23-1.39-3.43-1.98-1.21-.58-2.48-1.06-3.79-1.47-1.32-.38-2.69-.65-4.09-.8-1.4-.12-2.83-.1-4.25.08-.69.13-1.46.24-2.06.44-.05,0-.08.04-.11,0l-.05-.05c-.06-.04-.26-.2-.39-.28-2.36-1.6-5.11-2.57-7.86-2.86-2.41-.24-4.85.03-7.12.76-.57.18-1.12.39-1.67.62l-.32.15h0c-.99-.39-2.1-.74-3.16-1.04-2.16-.59-4.36-.99-6.6-1.03-2.2-.05-4.58.29-6.6,1.4-1.01.56-1.98,1.26-2.7,2.29-.74.97-1.16,2.46-.78,3.79.39,1.32,1.3,2.21,2.18,2.78.89.59,1.81.96,2.72,1.24,3.63,1.01,6.94.86,9.83.65-2.57-.64-6.41-1.3-9.37-2.79-.73-.37-1.38-.79-1.85-1.25-.48-.45-.72-.92-.79-1.26-.13-.64.29-1.28.7-1.79.83-1,2.31-1.75,3.77-2.1,1.51-.35,3.15-.39,4.74-.26,1.6.12,3.18.44,4.71.85.77.2,1.52.44,2.26.7l.76.27c.28.2.54-.03.8-.14l.64-.31c.17-.09.35-.15.52-.22,2.78-1.16,5.82-1.46,8.6-.93,1.39.26,2.73.72,3.95,1.34.61.31,1.19.67,1.75,1.05l.54.39.3.22.15.11c.06,0,.12-.03.17-.05.41-.12.82-.24,1.23-.36,1.29-.31,2.59-.45,3.88-.45,1.29.03,2.55.18,3.77.44,2.44.55,4.72,1.47,6.75,2.63,1.02.57,1.99,1.2,2.89,1.88l.48.36c.18.14.35.31.59.24l1.04-.06c.51.05,1.02.06,1.53.19,2.04.41,3.95,1.38,5.63,2.48,1.59,1.07,3.71,2.71,5.15,4.57.37.46.72.91.99,1.37.31.44.54.88.74,1.28.22.39.37.76.47,1.07.12.31.21.55.27.71Z"></path>
      </g>
      <g>
        <path class="cls-1 color-hair" d="m298.61,323.57c5.88-.42,5.27-8.36,4.62-12.35,1.62-3.73,1.23-11.67-.35-15.36,1.61-4.6,2.61-10.63-.58-15.34.35-4.09.27-9.99-2.16-13.54.91-7.34-1.24-11.48-3.66-14.49.16-4.41-1.13-8.85-5.08-11.13.49-4.83-1.42-9.77-5.69-12.04-3.52-6.02-6.05-6.57-9.17-7.53-2.29-.71-5.65-2.28-8.26-2.42,1.9,2.92,5.65,9.85,10.29,12.55-.89,4.19,3.95,8.71,6.27,10.36-1.56,6.63.9,9.23,4.89,13.18-1.74,3.62-1.37,9.45,2.65,14.09-1.57,5.34-1.44,10.34,2.36,14.81-2.43,4.89-1.67,9.29.88,13.47-2.17,3.07-3.48,10.24-.86,13.4-1.94,2.92-1.8,11.93,3.85,12.35Z"></path>
        <path d="m298.61,323.54c.22-.14,1.01-.2,1.98-.77.95-.57,1.94-1.82,2.28-3.64.41-1.78.36-3.98.07-6.32-.04-.29-.09-.59-.13-.89-.02-.31-.22-.76,0-1.11l.17-.48.12-.44c.09-.29.15-.59.2-.9.23-1.22.33-2.52.35-3.83.01-2.63-.25-5.41-1.02-7.94-.06-.17-.08-.29-.16-.49l-.24-.62c-.14-.21-.03-.41.04-.62l.2-.62c.21-.69.38-1.3.54-1.96.3-1.29.51-2.58.58-3.84.16-2.52-.29-4.91-1.27-6.77-.12-.23-.23-.47-.38-.68-.13-.24-.45-.63-.55-.95.02-.36.04-.71.07-1.05,0-.25.02-.51.03-.75.03-.98,0-1.9-.03-2.72-.17-2.78-.61-5.62-1.97-7.96-.24-.47-.74-.84-.53-1.5l.06-.74c.01-.18.04-.36.04-.53.03-.71.04-1.43.02-2.13-.06-1.42-.25-2.82-.64-4.16-.39-1.34-.95-2.62-1.71-3.8-.18-.3-.39-.59-.59-.88l-.32-.43-.56-.71c-.08-.13-.26-.24-.24-.4v-.46s0-.86,0-.86c-.02-.35-.03-.71-.06-1.06-.24-2.8-1.29-5.48-3.33-7.06l-.5-.37-.9-.57-.45-.29-.06-.04v-.07s.01-.13.01-.13l.02-.27.07-1.06.02-.27v-.22s0-.26,0-.26c0-.17,0-.35-.01-.52-.02-.34-.04-.69-.09-1.03-.17-1.36-.58-2.68-1.2-3.85-.63-1.17-1.48-2.19-2.51-2.95l-.39-.28c-.06-.05-.13-.09-.2-.13l-.28-.16-.47-.27c-.08-.05-.17-.08-.23-.15l-.14-.23-.46-.75c-.39-.63-.79-1.23-1.22-1.79-.85-1.14-1.79-2.11-2.84-2.78-1.03-.68-2.28-1.04-3.81-1.49-.8-.25-1.54-.52-2.26-.77l-1.02-.36-.06-.02c-.07,0-.18-.04-.15.01.03.04.06.08.09.12l.02.02h0s0,0,.01.03l.11.16c.29.43.58.86.88,1.28.59.85,1.21,1.65,1.85,2.43.64.77,1.32,1.48,2.01,2.15.36.31.71.63,1.08.9l.27.21s.23.16.31.21l.33.22.67.43.33.22c.1.08.28.12.21.27l-.16,1.58-.02.21v.15s.01.13.01.13c0,.08,0,.17.01.25l.1.53.17.56c.26.75.72,1.53,1.26,2.26.54.74,1.17,1.45,1.85,2.11.34.33.69.66,1.05.96l.31.26.6.46,1.24.93-.32,1.55-.16.78-.06.38c-.08.47-.12.93-.14,1.38-.03.9.04,1.74.27,2.53.43,1.57,1.54,3,2.93,4.46l.53.55.99.99.55.55c.14.19.51.34.29.6l-.58,1.43c-.05.12-.11.24-.14.36l-.09.26c-.03.1-.07.2-.09.3-.05.21-.11.41-.15.62-.08.42-.14.85-.18,1.29-.1,1.75.19,3.56.87,5.2.32.83.75,1.62,1.24,2.36.14.2.22.34.4.58l.84,1.05.21.26.1.13.05.07s-.01.06-.02.09l-.19.69-.34,1.23c-.47,1.81-.72,3.62-.6,5.35.11,1.73.58,3.37,1.42,4.85.2.38.44.73.67,1.08l.04.07.02.03.08.1.2.26.4.52.4.52c.04.09.19.16.14.26l-.14.3-.55,1.19c-.05.11-.08.16-.15.33l-.06.15-.12.29c-.17.39-.28.79-.4,1.19-.44,1.6-.52,3.24-.21,4.84.15.8.39,1.59.69,2.36.16.38.32.77.51,1.14l.16.32.28.51.56,1s.01.08-.02.12l-.08.12-.15.24-.31.48c-.21.31-.43.72-.48.81-.18.34-.36.71-.51,1.08-.32.74-.54,1.53-.74,2.31-.36,1.57-.54,3.19-.37,4.68.07.75.24,1.46.52,2.07l.1.23c.1.18.2.32.28.45.17.26.37.52.51.78l-.47.83c-.08.14-.15.26-.22.43l-.11.26c-.52,1.31-.68,2.85-.63,4.29.06,1.45.37,2.88,1.06,4,.67,1.13,1.75,1.89,3.03,2.03-.69-.01-1.51-.05-2.22-.5-.73-.39-1.41-1.06-1.88-1.89-.5-.82-.87-1.77-1.09-2.79-.23-1.01-.35-2.09-.31-3.2,0-.55.07-1.12.17-1.68.08-.54.32-1.26.39-1.45l.08-.21c-.03-.07-.1-.13-.15-.19l-.16-.18s-.12-.2-.19-.31c-.17-.27-.3-.56-.41-.85-.13-.29-.23-.58-.31-.88-.67-2.39-.58-4.84-.12-7.17.24-1.17.57-2.32,1.07-3.44.19-.38.14-.32.17-.39,0-.05.05-.09,0-.13-.03-.03-.07-.08-.09-.1l-.4-.7c-1.09-2.02-1.75-4.27-1.84-6.44-.08-2.18.39-4.17,1.03-5.78l.06-.15c-.03.09,0,.02-.02.04h0,0s0,0,0,0h0s-.03-.05.03.05l-.04-.06-.15-.23c-.1-.15-.2-.3-.29-.44-.2-.28-.34-.58-.5-.85-1.04-1.91-1.63-4.07-1.75-6.17-.14-2.11.16-4.15.64-6.05l.19-.71.07-.18.03-.09s-.04-.06-.06-.09l-.13-.2-.37-.56c-.13-.21-.29-.41-.4-.64-.24-.44-.5-.87-.71-1.33-.88-1.8-1.38-3.76-1.52-5.73-.05-.99-.03-1.98.11-2.96.09-.49.17-.98.31-1.45.06-.24.13-.48.22-.71.05-.14.07-.18.11-.27.02-.08.11-.17.08-.23l-.17-.19-.69-.74c-.61-.66-1.22-1.35-1.78-2.1-.56-.75-1.06-1.57-1.46-2.45-.39-.89-.63-1.84-.76-2.78-.12-.95-.09-1.88,0-2.79.04-.45.13-.89.19-1.34.05-.25.11-.45.15-.67-.26-.2-.43-.34-1.01-.85-.48-.43-.94-.88-1.38-1.34-.88-.93-1.69-1.94-2.36-3.06-.66-1.12-1.2-2.36-1.36-3.74-.03-.17-.02-.35-.02-.52v-.26s0-.07,0-.11l.04-.26c0-.08.07-.2-.04-.23l-.43-.28-.72-.56c-1.93-1.6-3.45-3.5-4.83-5.42-1.18-1.61-3.03-4.68-4.69-7.31l.1-.2c-.02-.05.11-.02.2-.02l.27.02c.36.03.71.07,1.05.12.69.1,1.34.2,2.06.36,1.38.31,3.13.98,4,1.29,1.07.4,2.06.73,3.16,1.06,1.08.34,2.22.75,3.23,1.4,2.05,1.29,3.47,3.17,4.68,5.01l.43.7c.08.14.16.28.32.34l.31.18c.13.07.25.15.36.24.23.17.48.32.7.52.91.72,1.69,1.59,2.31,2.54,1.26,1.91,1.94,4.11,2.14,6.3.04.55.07,1.1.05,1.65,0,.2-.01.3-.02.46,0,.07-.02.15,0,.21l.18.11.18.11.23.17c.22.17.45.34.65.53.42.37.81.78,1.16,1.21,1.41,1.74,2.18,3.86,2.51,5.94.08.52.14,1.04.18,1.56.03.26.03.52.04.78v.37s.01.22.01.22v.22c.02.07.08.11.11.17l.13.16.22.3c.31.41.6.84.87,1.28,1.1,1.75,1.84,3.71,2.24,5.69.38,1.98.45,3.98.32,5.91l-.1,1.07c.05.12.14.24.21.36.03.04.09.15.15.27l.17.34c.45.91.78,1.85,1.02,2.79.48,1.88.68,3.76.74,5.6.02.92.02,1.84-.02,2.74l-.07,1.19c0,.12-.05.26.03.33l.23.38c.96,1.66,1.47,3.52,1.68,5.34.18,1.83.05,3.63-.24,5.35-.16.86-.34,1.71-.58,2.53-.11.41-.24.82-.37,1.23-.07.24-.09.27-.14.42-.02.12-.15.25-.07.36.08.2.35,1.03.5,1.69.17.69.29,1.4.39,2.13.19,1.46.28,3,.25,4.57-.04,1.57-.17,3.17-.53,4.75-.1.39-.18.79-.32,1.17-.11.39-.29.81-.38,1-.05.12,0,.26,0,.39l.06.56c.04.38.07.76.09,1.14.17,3-.11,5.95-1.37,7.94-.62.99-1.48,1.6-2.23,1.91-.77.3-1.42.31-1.83.36Z"></path>
      </g>
      <g>
        <path class="cls-1 color-hair" d="m282.8,224.56c-2.55-6.88-15.92-16.62-21.24-15.16-4.7-5.27-10.57-9.06-19.49-6.78-6.83-3.66-12.87-5.94-19.05-2.48-28.24-10.4-19.93,12.01,2.62,7.68,8.33,3.68,14.92,3.76,18.63,1.93,10.9,9.19,14.6,5.67,18.1,6.08,10.62,7.46,9.2,2.43,20.44,8.73"></path>
        <path d="m282.77,224.57c-.21-.2-.69-1.21-1.7-2.57-1.01-1.35-2.54-3.05-4.5-4.76-1.95-1.71-4.31-3.46-6.89-4.9-1.29-.71-2.64-1.35-4-1.8-.68-.22-1.37-.39-2.03-.48-.33-.05-.66-.06-.98-.06-.12.01-.37.03-.63.07l-.74.15c-.43-.4-.83-.86-1.23-1.27-.32-.31-.63-.61-.93-.9-.63-.57-1.25-1.09-1.86-1.56-1.23-.93-2.43-1.59-3.47-2.05-1.88-.81-3.9-1.29-5.99-1.28-.52,0-1.04,0-1.57.06-.52.04-1.05.1-1.57.2-.53.07-1.05.19-1.57.33l-.68.16-.35.08c-.12.03-.24.07-.34-.02l-1.15-.58c-2.02-1-4.08-1.92-6.17-2.57-2.09-.64-4.22-.97-6.25-.69-1.01.15-2,.38-2.94.81-.24.09-.47.2-.7.33-.45.21-.94.52-1.43.69l-2.32-.78c-2.17-.7-4.36-1.32-6.54-1.67-1.08-.18-2.16-.29-3.2-.32-1.02,0-2.05.05-2.83.32-.81.26-1.22.64-1.21.84-.07.21.06.87.58,1.52.89,1.14,2.33,2.16,3.91,2.84,1.58.7,3.31,1.16,5.08,1.42,1.77.25,3.57.26,5.36.14l1.34-.12,1.33-.21.6-.09c.24-.03.48-.09.71-.1l1.18.5c.42.18.84.36,1.27.52,3.38,1.33,6.89,2.21,10.24,2.22.83,0,1.65-.05,2.43-.19.4-.05.77-.15,1.14-.24l.62-.2,1.22-.5c.2-.07.4-.2.59-.21l.51.41,1.01.82,1.11.92c.68.52,1.36,1.04,2.05,1.52,2.77,1.91,5.67,3.33,8.58,3.26.74-.01,1.51-.09,2.36-.18l.67-.06.72-.02c.28,0,.69.04,1.02.06.08.02.18-.01.25.04l.22.15.44.3c.73.51,1.3.96,1.97,1.39.64.44,1.28.85,1.93,1.22,1.29.75,2.57,1.36,3.92,1.75,1.33.39,2.85.64,4.28,1.11,2.86.93,5.27,2.33,7.46,3.69-2.22-.74-4.93-1.77-7.89-2.24-1.47-.25-3.02-.26-4.71-.56-1.69-.29-3.34-.92-4.83-1.64-.77-.34-1.46-.76-2.19-1.13-.35-.2-.69-.41-1.03-.6l-.51-.3c-.12-.07-.06-.03-.09-.04h-.04c.1,0-.72.08-1.35.2-.68.12-1.44.25-2.2.31-1.53.15-3.04-.03-4.26-.35-1.24-.3-2.24-.74-3.01-1.14-.75-.35-1.41-.8-2.1-1.21-.66-.44-1.3-.89-1.93-1.34-.6-.48-1.21-.95-1.81-1.42l-.86-.74-.11-.09-.02-.02-.04-.04-.08-.09c-.05-.08-.13,0-.21,0h-.02s0,0,0,0l-.07.02-.3.09c-.2.07-.4.11-.59.16-.79.2-1.58.3-2.36.36-1.56.12-3.08.03-4.55-.16-2.95-.4-5.72-1.25-8.33-2.3-.63-.24-1.35-.56-1.88-.8-.07-.03-.15-.08-.22-.09l-.23.03-1.03.14c-1.38.17-2.77.25-4.15.25-2.75-.01-5.48-.44-8.02-1.33-1.27-.44-2.5-1.01-3.63-1.74-1.13-.73-2.2-1.59-3.02-2.72-.39-.58-.77-1.19-.95-1.93-.22-.71-.19-1.57.13-2.32l.28-.54.39-.45c.25-.32.59-.47.88-.7.31-.17.64-.3.96-.45l.98-.27c2.61-.49,5.1-.16,7.46.29,2.36.49,4.65,1.12,6.83,1.9l.53.18c.08.05.15-.03.22-.05l.23-.12c.42-.24,1.07-.48,1.6-.7,1.14-.38,2.31-.68,3.5-.75,2.37-.19,4.69.24,6.8.92,2.12.68,4.1,1.58,5.99,2.53l.69.35c.11.05.22.14.34.15l1.21-.28c.53-.08,1.06-.16,1.59-.24.53-.06,1.07-.08,1.6-.12,2.13-.09,4.27.23,6.24.92,1.97.68,3.76,1.72,5.33,2.92.79.6,1.52,1.25,2.22,1.91l1.01,1.02c.19.2.36.42.55.59.1-.02.21-.05.31-.04l.3-.02h.4c.53.03,1.03.11,1.51.21.95.21,1.83.52,2.66.86,3.48,1.43,7.53,4.44,10.53,7.6,1.51,1.57,2.76,3.18,3.61,4.58.87,1.39,1.29,2.56,1.46,3.14Z"></path>
      </g>
      <g>
        <path class="cls-3 color-tie-1" d="m303.04,322.83c-1.08-.92-4.21-1.78-6.5-1.34-5.43,1.47-3.16,5.44,2.8,4.6,2.68-.38,4.87-2.15,3.7-3.26Z"></path>
        <path d="m303.03,322.85c-.23.11-.97-.26-1.98-.47-.98-.23-2.13-.33-2.75-.21-.52.1-1.14.23-1.51.4-.19.11-.48.24-.72.35-.21.14-.45.27-.63.41-.4.3-.53.54-.47.56,0,.03.03.06.06.07.05.03-.01-.03.14.06.38.26,1.24.52,2.07.57.83.06,1.79.07,2.54-.02.78-.09,1.55-.3,2.14-.57.29-.13.53-.29.67-.4.13-.09.25-.16.15-.43.18-.04.4-.04.61.09.19.13.36.42.38.73.06.64-.21,1.26-.52,1.74-.65.98-1.57,1.49-2.09,1.55-.53.05-1.04.05-1.54.04-.48-.04-.93-.08-1.37-.11-.9-.13-1.74-.25-2.56-.53-.8-.29-1.59-.61-2.22-1.32-.69-.73-.75-1.86-.2-2.64.52-.73,1.17-1.16,1.78-1.46.31-.18.62-.28.93-.41.16-.05.29-.13.52-.18.18-.03.34-.07.5-.09,1.31-.19,2.5-.04,3.54.31.5.14,1.14.51,1.63.93.5.41.82.88.89,1.04Z"></path>
      </g>
    </g>
    <g id="Layer_72-2" data-name="Layer 72">
      <g>
        <path class="cls-1 color-hair" d="m121.96,329.05c-3.16-.69-5.17,5.29-1.89,6.47,1.38.42-.05,2.25,1.62,2.83,5.97,1.06,9.8-8.58,1.76-8.73"></path>
        <path d="m121.96,329.07c-.08.14-.39.13-.76.27-.38.09-.81.38-1.17.79-.76.81-1.03,2.19-.83,2.81.07.39.26.71.44.95.23.22.41.37.73.45.42.13.81.32,1.12.63.3.32.48.73.56,1.17.03.2.07.5.08.63.01.08.02.07.03.1.02.03.04.06.07.07.03.01.06.02.09.01h.04s.02-.02.02-.02h.11c.36,0,.7-.09,1.02-.18,1.71-.51,3.1-2.42,3.11-3.87.02-.7-.25-1.29-.89-1.78-.62-.5-1.48-.81-2.27-1.04.72-.63,1.96-1.14,3.34-.84.67.15,1.35.5,1.81.99.46.49.72,1.03.77,1.41.16,1.04-.02,1.96-.31,2.74-.3.78-.71,1.44-1.18,2.01-.94,1.13-2.1,1.93-3.35,2.35-.63.2-1.27.3-1.9.31-.16,0-.3,0-.48-.01-.19-.02-.38-.05-.56-.08-.36-.09-.71-.27-.96-.54-.25-.27-.4-.62-.47-.98-.04-.18-.06-.37-.07-.54-.01-.14-.02-.17-.03-.25-.02-.14-.07-.28-.17-.37-.1-.09-.25-.11-.36-.16l-.44-.2c-.13-.09-.26-.2-.39-.3-.28-.19-.44-.48-.64-.73-.32-.55-.5-1.14-.53-1.7-.07-1.12.25-2.14.79-2.95.36-.59,1.16-1.25,2-1.41.41-.11.8-.04,1.08,0,.28.11.47.19.56.24Z"></path>
      </g>
      <g>
        <path class="cls-1 color-hair" d="m125.01,327.4c3.68-1.14,5.57-10.25,1.79-15.07,2.05-2.54,2.66-10.55-.42-13.55,2.87-3.66,3.95-10.74.67-13.95,3.28-3.42,5.24-11.24,3.14-16.02,2.71-4.35,3.95-8.06,2.29-13.44,2.37-3.17,4.97-9.54,2.8-13.42,2.65-3.38,5.5-5.6,4.23-11.82,3.36-2.26,7.01-5.03,7.76-9.04,1.25-6.67-6.29-4.38-9.46-2.12-3.04,2.16-7.18,4.22-8.47,8.38-3.95,3.17-5.32,8.72-4.11,13.35-2.11,2.7-4.81,9.94-2.3,13.83-2.49,3.55-4.45,10.18-1.2,15.55-3.25,5.22-5.1,9.74-2.46,16.21-2.64,5.39-2.01,10.47-.34,12.73-2.84,5.2-1.52,11.63,0,13.77-2.21,9.29,1.65,15.98,6.07,14.61Z"></path>
        <path d="m125,327.37c.09-.08.26-.19.5-.33.13-.06.24-.19.38-.31.13-.12.3-.24.43-.43.59-.66,1.19-1.73,1.59-3.14.4-1.4.62-3.12.47-4.98-.07-.93-.26-1.9-.58-2.85-.17-.47-.35-.95-.61-1.39-.14-.4-.72-1.07-1.03-1.64.19-.3.41-.59.58-.92.19-.35.26-.52.36-.8.1-.25.19-.51.25-.77.08-.26.15-.53.2-.81.23-1.1.34-2.25.33-3.41,0-1.16-.14-2.33-.44-3.43-.36-1.15-.6-1.94-1.93-3.34,1.19-1.65,1.59-2.55,2.03-3.77.4-1.18.65-2.4.72-3.59.08-1.19-.01-2.36-.31-3.41-.09-.25-.17-.51-.26-.76-.11-.23-.22-.46-.34-.69l-.24-.36c-.1-.16-.25-.33-.38-.49-.28-.31-.55-.62-.82-.92.26-.35.59-.7.87-1.05.14-.18.29-.36.41-.54l.26-.37c.29-.49.57-.97.79-1.46.45-.97.8-1.92,1.02-2.79.39-1.43.62-2.93.66-4.42.02-.75-.02-1.49-.11-2.21-.05-.36-.13-.72-.2-1.07l-.15-.52-.07-.26c-.01-.07-.1-.27-.15-.39l-.34-.87-.08-.22.12-.21.25-.42.45-.78.28-.51c.36-.69.7-1.38.97-2.09.56-1.41.9-2.86.91-4.33.02-.73-.05-1.48-.17-2.22-.06-.37-.14-.74-.23-1.11l-.07-.28-.14-.47-.28-.98c-.11-.17.04-.31.14-.46l.31-.45.31-.45.18-.29c.21-.32.39-.66.58-1,.35-.69.7-1.39.97-2.12.57-1.45.95-2.96,1.05-4.42.02-.72.01-1.44-.15-2.07-.02-.17-.09-.31-.13-.46l-.04-.11-.04-.14-.06-.13-.23-.53-.23-.52-.12-.26c-.03-.09-.12-.18-.02-.25l.72-.9,1.84-2.29c.49-.63.91-1.25,1.24-1.88.33-.63.56-1.26.7-1.93.12-.67.17-1.37.13-2.1,0-.18-.03-.37-.05-.55l-.03-.28c-.01-.09,0-.15-.06-.42l-.21-1.17c-.03-.37-.31-.86.19-1.01l1.79-1.24.97-.72c1.27-.97,2.42-2.02,3.3-3.16.86-1.15,1.44-2.39,1.54-3.66.12-.67-.02-1.15-.12-1.36-.05-.1-.1-.13-.18-.19-.07-.01-.12-.05-.18-.08-.1-.01-.2-.03-.3-.06-.47-.06-1.11,0-1.77.14-.66.17-1.34.37-1.99.67-.65.28-1.3.62-1.84,1-.67.46-1.35.92-2.02,1.38-1.59,1.06-3.06,2.09-4.16,3.29-.55.59-1,1.22-1.33,1.88-.07.17-.17.33-.23.5l-.17.47c-.1.21-.12.48-.29.64l-.84.74c-.15.12-.28.28-.42.42-2.18,2.29-3.17,5.75-2.8,8.95l.09.6.02.15s.04.2.06.29l.15.66.15.66c.07.12-.07.2-.12.3l-.2.29-.41.58-.1.14-.08.13-.08.13c-.42.67-.81,1.43-1.13,2.22-.65,1.56-1.12,3.23-1.26,4.81-.09.8-.04,1.56.06,2.25l.1.5.16.45.04.11.21.41.32.61.32.61c.05.05.02.1-.02.15l-.09.14-.19.29-.76,1.16-.34.58c-.18.36-.38.71-.53,1.09-.34.74-.6,1.51-.81,2.29-.41,1.56-.59,3.17-.42,4.7.06.77.24,1.51.46,2.22.11.36.28.69.4,1.05l.57,1.08.29.54.14.27-.17.27-1.15,1.88c-.22.36-.43.73-.63,1.09-.41.73-.76,1.46-1.08,2.19-.6,1.46-1.01,2.94-1.07,4.42-.07,1.48.16,2.98.61,4.44.05.19.12.34.19.57l.39,1.07.1.27c0,.09-.07.17-.11.26l-.24.52-.37.8c-.29.7-.57,1.41-.76,2.13-.41,1.44-.6,2.91-.54,4.34.04.71.13,1.4.3,2.05.09.32.19.63.32.92.04.1.04.1.12.25.06.13.16.28.25.43l.55.87c-.28.57-.57,1.13-.85,1.7-.13.32-.27.63-.39.96-.22.65-.41,1.32-.54,1.99-.25,1.35-.31,2.74-.2,4.09.11,1.34.4,2.68.88,3.81l.09.2.02.05c.04.08.04.08.06.12l.1.18.21.36c.06.12.17.23.1.37-.1.46-.2.93-.31,1.39-.17.65-.23,1.3-.35,1.95-.31,2.58-.19,5.18.67,7.39.43,1.09,1.04,2.09,1.87,2.75.82.66,1.85.92,2.85.65-.83.41-1.94.46-2.98-.1-1.04-.53-1.92-1.53-2.59-2.69-1.31-2.36-1.81-5.36-1.69-8.36.04-.75.09-1.51.21-2.27.03-.2.02-.21.03-.32.02-.09.02-.18-.07-.24l-.09-.1s-.03-.05-.03-.04l-.08-.14c-.1-.18-.21-.37-.3-.56-.72-1.49-1.1-3.05-1.31-4.63-.21-1.58-.2-3.18.04-4.76.12-.79.3-1.56.53-2.32.12-.35.24-.7.36-1.04.02-.07.05-.15.05-.21l-.06-.06s-.03-.02-.17-.3c-.21-.43-.38-.86-.52-1.29-.27-.86-.45-1.7-.54-2.53-.18-1.65-.07-3.2.19-4.61.26-1.41.67-2.66,1.12-3.76l.14-.32s.01-.02.01-.02h0s.02.04-.09-.28c-.09-.23-.14-.46-.2-.68-.33-1.08-.5-2.23-.61-3.38-.08-1.15-.02-2.31.15-3.45.37-2.27,1.24-4.32,2.25-6.16.26-.45.51-.91.78-1.35l.4-.66.11-.15.06-.08s-.03-.07-.04-.1l-.09-.21-.28-.71c-.1-.26-.21-.51-.28-.78-.66-2.11-.76-4.31-.47-6.39.28-2.08.94-4.06,1.88-5.88.12-.23.23-.46.37-.68l.2-.33.12-.2.17-.24c.07-.08-.05-.17-.07-.26-.01-.03-.06-.13-.05-.09l-.14-.4c-.09-.26-.19-.53-.23-.79-.05-.27-.11-.53-.15-.8l-.07-.79c-.1-2.09.3-4.06.92-5.91.3-.93.68-1.82,1.1-2.7.21-.44.45-.86.69-1.29l.39-.63c.07-.11.14-.2.22-.3.06-.04.04-.11.02-.17l-.04-.19-.04-.19-.05-.36c-.08-.48-.12-.97-.15-1.45-.04-.97,0-1.94.14-2.89.28-1.9.92-3.74,1.92-5.36.5-.81,1.08-1.57,1.75-2.24.31-.34.76-.7.89-.81.08-.12.08-.2.17-.41.08-.23.19-.44.29-.66.84-1.74,2.19-3.11,3.59-4.22,1.41-1.12,2.9-2.03,4.28-2.98,1.41-1.04,3.07-1.85,4.78-2.32.85-.26,1.76-.39,2.71-.38.92,0,2.03.25,2.81,1.1.76.84.93,1.92.93,2.84-.02.46-.09.9-.14,1.35-.1.44-.19.88-.35,1.3-.58,1.7-1.63,3.13-2.8,4.34-1.18,1.21-2.48,2.22-3.79,3.16l-.61.43c-.15.04-.03.2-.04.3l.06.34v.07s.03.16.03.16l.03.31.06.62c0,.42.04.84,0,1.26-.02.85-.19,1.69-.42,2.51-.25.82-.63,1.58-1.05,2.29-.42.71-.92,1.35-1.4,1.96-.42.52-.84,1.04-1.26,1.56l-.19.25.14.28.07.14.06.19.19.62c.17.83.28,1.66.23,2.47-.04,1.63-.4,3.17-.89,4.63-.5,1.46-1.14,2.85-1.92,4.16l-.3.49-.1.17-.08.11c-.03.08-.14.14-.12.24l.09.3.04.15.02.07.03.14.13.56c.09.37.14.75.21,1.12.24,1.51.2,3.07-.07,4.57-.27,1.5-.81,2.91-1.44,4.22-.31.64-.69,1.33-.99,1.85l-.12.21c-.03.07-.11.13-.05.22l.1.26.05.13s.05.17.07.25c.83,2.93.58,5.84-.06,8.55-.33,1.36-.79,2.67-1.39,3.93l-.48.93-.55.9-.42.59c-.09.11-.2.22-.27.32.09.11.19.21.27.32l.14.21c.1.16.2.31.27.48.33.65.56,1.32.72,2,.31,1.35.34,2.7.22,4-.12,1.3-.42,2.56-.86,3.76-.22.6-.46,1.19-.76,1.75-.14.29-.3.56-.47.84-.07.12-.15.24-.24.35-.03.05-.09.1-.12.18l.24.29c.11.18.22.35.33.53.28.55.52,1.13.69,1.73.34,1.2.49,2.46.51,3.74,0,1.28-.12,2.59-.41,3.89-.15.65-.33,1.3-.59,1.93l-.2.48c-.06.15-.18.35-.22.42-.1.19-.23.35-.36.53.02.13.14.26.21.4.08.15.15.23.27.5.2.46.44.9.56,1.37l.22.69.15.7c.11.46.15.93.2,1.39.16,1.83-.05,3.57-.47,5.05-.41,1.48-1.04,2.72-1.75,3.58-.71.87-1.51,1.25-2,1.4Z"></path>
      </g>
      <g>
        <path class="cls-1 color-hair" d="m137.81,190.78c-4.89-1.93-15.06,1.27-17.93,4.54-5.26-.17-12.1,3.89-14.42,9.53-8.45.86-14.71,7.41-16.69,15.44,11.86,0,25.69,2.34,36.05,12.14"></path>
        <path d="m137.8,190.81c-.13.04-.45.01-.92-.07-.48-.04-1.12-.13-1.89-.11-1.53,0-3.58.23-5.7.8-2.11.57-4.34,1.39-6.15,2.45-.46.25-.87.54-1.27.82-.2.13-.36.3-.54.44l-.26.21-.33.34-.33.34-.16.17h-.22c-.29.03-.58.04-.85.06-.32,0-.43.05-.63.08-.18.03-.34.06-.5.09-2.25.52-4.48,1.61-6.41,3.11-.96.75-1.85,1.6-2.63,2.54l-.56.72-.5.75c-.33.57-.49.81-1.06,2.09l-.18.4-.09.2c-.04.06-.04.16-.13.15l-.91.15-1.36.22c-.59.17-1.2.27-1.77.5-1.17.36-2.25.93-3.31,1.52-2.05,1.29-3.85,2.95-5.19,4.88-.29.42-.59.84-.84,1.29-.27.43-.52.88-.74,1.35-.25.45-.44.93-.64,1.4l-.15.35c-.05.13-.03.07-.05.12l-.04.13c-.03.11,0,.03-.01.05h0s0,0,0,0c0,0-.05,0,.06,0l.42.02c.57.03,1.13.04,1.69.08,4.5.3,8.88,1,12.93,2.21,4.05,1.19,7.77,2.84,10.91,4.84,3.15,1.99,5.73,4.27,7.72,6.52-2.52-1.25-5.96-3.03-9.3-4.31-3.32-1.31-6.51-2.2-8.14-2.84-3.27-1.33-6.64-2.23-9.97-2.81-1.67-.27-3.33-.49-4.97-.63-.41-.03-.82-.06-1.23-.09l-.82-.05-.9-.04c-.59-.03-1.17-.05-1.75-.08-.91.22-.29-.68-.22-1.17.17-.56.33-1.12.52-1.62.18-.49.37-1.07.54-1.48.34-.75.68-1.5,1.08-2.21.8-1.42,1.68-2.76,2.74-3.93,2.06-2.38,4.59-4.24,7.34-5.39.67-.32,1.39-.51,2.08-.76.69-.16,1.45-.4,2.09-.47.2-.04.41-.05.57-.12l.26-.58c.31-.57.68-1.25,1.09-1.81,1.63-2.33,3.77-4.1,6.07-5.38,1.15-.65,2.36-1.14,3.6-1.5.62-.19,1.25-.31,1.88-.42l.96-.11c.24-.02.37-.01.56-.02.1.02.16-.03.21-.1l.18-.17s.05-.05.1-.09l.19-.15.38-.29c.51-.38,1.03-.7,1.55-.99,1.04-.59,2.11-1.01,3.17-1.41,2.01-.73,4.89-1.31,7.44-1.28,1.27-.02,2.46.16,3.38.37.93.23,1.57.56,1.89.7Z"></path>
      </g>
      <g>
        <path class="cls-1 color-hair" d="m187.5,190.52c-2.92-6.14-17.51-6.14-23.71-3.08-7.67-1.94-12.3-.46-17.43,3.55-6.59-1.68-13.78,1.07-17.06,7.17-8.13-1.38-14.37,2.02-17.53,9.56-6.85-.46-11.63,5.04-13.91,11.05"></path>
        <path d="m97.89,218.79c.24-.14.71-1.15,1.56-2.53.84-1.38,2.05-3.17,3.74-4.66,1.65-1.52,3.82-2.64,5.93-2.94.26-.06.52-.07.78-.08.28-.01.46-.05.81-.04.38.01.75.03,1.11.04.17-.01.39.05.52-.02.07-.15.15-.3.22-.45.15-.3.29-.59.43-.87.07-.14.14-.28.21-.42.06-.12.11-.19.17-.28.22-.35.42-.69.62-.97.72-1,1.53-1.95,2.45-2.78.94-.81,1.97-1.5,3.08-2.04,2.24-1.05,4.81-1.43,7.38-1.18l.48.04.24.02.43.06,1.78.26.22.03.11.02s.05-.06.07-.08l.25-.41.5-.82.25-.41c.08-.13.18-.3.21-.33l.28-.37c.75-.98,1.62-1.87,2.63-2.58,2-1.42,4.36-2.3,6.73-2.48,1.03-.1,2.07-.07,3.09.07.25.04.51.06.76.12l1.48.32.43.09.3-.23.61-.45.61-.45.15-.11.08-.06.17-.12c1.78-1.25,3.62-2.23,5.55-2.71,1.92-.5,3.95-.55,5.99-.3.51.04,1.02.15,1.53.22.25.03.51.1.76.15l1.39.3c.24-.07.46-.21.69-.31.21-.1.51-.25.57-.27.22-.09.43-.19.66-.27.45-.17.91-.33,1.38-.47,3.8-1.09,7.8-1.36,11.34-1.04,1.77.18,3.47.51,4.94,1.1,1.47.59,2.72,1.46,3.44,2.64-.13-1.3-1.19-2.89-2.79-4.01-1.58-1.16-3.56-1.94-5.53-2.46-3.94-1.02-7.85-.86-9.81-.37-.99.24-1.97.52-2.93.86-.48.17-.96.36-1.43.56l-.7.33c-.09.05-.11.08-.17.12-.05,0-.09,0-.16,0l-.71-.12c-.48-.06-.96-.12-1.43-.19-.96-.09-1.92-.15-2.87-.15-1.91.02-3.82.31-5.59.9-1.77.6-3.37,1.47-4.81,2.45-.37.24-.71.51-1.06.76-.2.14-.27.21-.4.3l-.34.27s-.06.05-.09.06l-.09-.02-.18-.03-.45-.09c-.43-.08-.86-.11-1.28-.16-1.71-.15-3.42-.04-5.04.3-3.25.69-6.18,2.34-8.33,4.63-.26.29-.53.58-.77.88l-.7.93c-.16.24-.24.38-.37.57-.03.04-.06.09-.09.13l-.18-.03-.35-.05c-.33-.08-1.24-.13-1.94-.19-.74,0-1.48-.03-2.21.05-2.93.19-5.76,1.25-7.98,2.94-1.1.85-2.1,1.81-2.9,2.89-.44.51-.76,1.09-1.14,1.63l-.48.85-.23.42c-.09.16-.09.18-.13.27l-.21.45-.05.11s-.07,0-.1,0h-.21c-.12-.03-.96.07-1.56.13-1.27.22-2.48.61-3.57,1.18-1.04.54-2.16,1.34-3.15,2.33-.99,1-1.83,2.18-2.49,3.33-1.35,2.3-1.9,4.51-2.09,5.21Z"></path>
      </g>
      <g>
        <path class="cls-1 color-hair" d="m199.55,198.83c-.71-8.21-17.98-10.69-24.89-5.84-5.71-2.38-15.67-2.13-21.18,3.5-8.5-.44-15.86,1.57-19.65,8.12-7.49-.73-14,2.54-17.67,9.56-3.73.69-7.36,3.19-8.71,6.73"></path>
        <path d="m107.48,220.91c.24-.13.71-1.17,1.81-2.36,1.08-1.2,2.85-2.49,5-3.23.27-.08.54-.18.82-.25l.42-.1c.2-.05.4-.08.6-.12l.3-.06.15-.03s.06-.08.09-.12l.31-.52.51-.86c.67-.97,1.36-1.93,2.15-2.71,1.53-1.62,3.25-2.69,4.55-3.25,2.29-.99,4.86-1.48,7.47-1.38l.49.02h.25s.41.04.41.04l1.67.14c.17.07.2-.14.29-.23l.23-.34.47-.69.23-.35.12-.18.08-.1.31-.37c.81-.99,1.75-1.86,2.83-2.56,1.07-.71,2.23-1.28,3.46-1.73,1.24-.42,2.53-.72,3.84-.93,1.32-.19,2.65-.28,3.98-.31.67,0,1.33,0,2,.03.57.02,1.15.05,1.72.07.19.06.3-.1.42-.21l.38-.34.65-.58c1.55-1.37,3.5-2.31,5.55-2.91,2.05-.61,4.23-.87,6.37-.82,1.07,0,2.13.12,3.16.28.51.09,1.02.19,1.52.31l.74.2c.08.01.33.11.57.19l.69.25.69.25c.11.09.23-.01.35-.09l.35-.22c.43-.28,1.04-.67,1.13-.7.4-.23.83-.44,1.28-.61.9-.36,1.85-.63,2.83-.83,3.92-.75,7.97-.51,11.41.47,1.72.5,3.3,1.2,4.54,2.18,1.27.96,2.09,2.24,2.36,3.64.13-.65.16-1.44-.06-2.28-.21-.84-.67-1.7-1.29-2.49-1.24-1.6-3.09-2.84-4.99-3.72-3.83-1.77-7.89-2.05-9.94-1.76-2.08.28-4.12.76-6.04,1.6-.48.2-.95.45-1.41.7l-.34.2-.17.1-.08.05s.02,0,.03-.01h0s-.16.15-.16.15c-.08.02-.2-.04-.3-.05l-.4-.1c-.48-.11-.96-.25-1.44-.33-3.82-.7-7.58-.53-11.05.37-1.73.45-3.39,1.1-4.91,1.96l-1.11.69-1.04.78c-.18.12-.33.27-.49.42l-.37.34c-.1.06-.16.22-.29.2h-.37c-3.2-.12-6.48.12-9.49.93-1.51.42-2.97.99-4.32,1.73-1.35.74-2.57,1.69-3.63,2.75-.54.52-1,1.11-1.46,1.7-.17.22-.25.37-.38.55-.07.06-.09.22-.2.21l-.31-.03-.31-.03h-.15s-.26-.02-.26-.02h-1.06c-.71.02-1.41.03-2.1.14-2.78.33-5.41,1.32-7.59,2.81-2.2,1.47-3.92,3.41-5.17,5.48-.16.24-.32.49-.46.77l-.11.2-.05.11-.1.23c-.02.1-.11.11-.19.13-.07.02-.18.05-.23.08-.33.11-.67.22-1,.36-1.34.53-2.61,1.35-3.63,2.26-1.02.93-1.8,1.95-2.27,2.84-.49.89-.68,1.64-.78,1.99Z"></path>
      </g>
      <g>
        <path class="cls-1 color-hair" d="m118.18,225.86c2.71-6.14,7.24-9.38,13.27-11.59,2.64-4.87,7.91-7.02,16.52-7.43,4.31-5.49,12.45-7.58,18.88-4.84,5.49-4.92,13.57-5.22,20.33-3.31,20.99-6.68,31.03,13.95,1.6,8.98-6.07,4.22-13.28,4.28-20.32,2.62-3.79,3.54-10.31,6.28-16.67,5.28-3.39,4.38-9.6,6.58-15.11,6.58-3.1,4.41-5.7,7.98-11.22,10.7-2.61-3.22-5.01-5.42-7.28-7.01Z"></path>
        <path d="m118.16,225.89c.17.26,1.07.98,2.34,2.19.64.6,1.36,1.34,2.13,2.19.39.43.79.88,1.19,1.37.23.28.47.56.7.86.26.33.53.66.8.99.67-.3,1.49-.73,2.12-1.09.6-.34,1.2-.72,1.79-1.13,1.19-.82,2.34-1.81,3.4-2.91,1.06-1.1,2.05-2.3,2.97-3.53l1.26-1.7c.08-.08.12-.24.24-.25h.39c.19,0,.66-.03,1.03-.05,3.11-.22,6.08-1.07,8.54-2.33,1.23-.62,2.34-1.35,3.29-2.12.48-.39.91-.79,1.3-1.19l.15-.15.07-.08.14-.15c.09-.09.15-.23.32-.15l.55.1,1.01.08c.68.03,1.36.05,2.05,0,1.37-.06,2.74-.26,4.08-.61,2.69-.68,5.3-1.83,7.65-3.5l1.15-.87c.09,0,.19.05.29.07.29.07.67.15,1,.22,1.38.29,2.78.5,4.21.61,2.85.25,5.81.09,8.7-.64,1.44-.38,2.85-.9,4.19-1.55l.99-.53c.17-.09.33-.18.49-.28l.37-.23c.16-.07-.1-.05.87.09,2.79.43,5.63.73,8.54.62,1.46-.07,2.92-.19,4.42-.57,1.48-.4,3.04-.92,4.45-2.23.36-.29.65-.74.95-1.16.14-.21.24-.48.35-.73.11-.25.2-.5.24-.78.28-1.1.03-2.2-.32-3.09-.8-1.78-2.1-2.89-3.39-3.74-2.3-1.47-4.84-2.12-7.34-2.44-2.51-.27-5-.12-7.41.32l-1.79.38-1.5.42s0,0,.01,0l-.87-.22c-.59-.12-1.18-.27-1.78-.35-2.38-.4-4.81-.56-7.23-.33-2.41.23-4.83.77-7.06,1.81-1.12.5-2.18,1.13-3.18,1.85l-.19.13c-.07.05-.13.09-.13.09l-.08.07-.16.14c-.05,0-.11-.03-.17-.04-.09-.03,0-.01-.41-.12-4.72-1.39-9.7-.64-13.75,1.51-1,.57-1.97,1.18-2.84,1.92-.44.36-.87.74-1.26,1.15-.2.21-.41.39-.59.61l-.22.27-.05.07s-.05.07-.1.06h-.07s-.32.04-.32.04c-.52.03-1.03.1-1.55.16-1.03.12-2.05.28-3.06.49-2.02.4-4.02,1.02-5.87,1.98-1.86.93-3.51,2.32-4.73,3.96l-.43.63c-.07.11-.15.21-.2.32l-.14.26c-.06.09-.07.18-.14.23l-.29.13c-.86.36-1.69.75-2.5,1.17-1.62.85-3.14,1.84-4.47,2.99-2.71,2.27-4.54,5.19-5.65,8.05,1.49-2.35,3.65-5.01,6.62-6.88,1.46-.95,3.08-1.74,4.79-2.37.42-.16.85-.31,1.29-.45l1.58-.51c.43-.04.56-.46.79-.75.25-.37.3-.47.45-.64.27-.32.52-.64.83-.92,2.31-2.34,5.59-3.25,8.49-3.72,1.46-.23,2.85-.35,4.09-.45.39-.02.78-.05,1.14-.07.3-.02.6-.04.89-.06h.22s.07-.02.11-.02l.07-.08.28-.32c.3-.35.58-.69.85-1.01.13-.18.29-.32.43-.47,2.2-2.39,5.33-3.95,8.58-4.42,1.62-.24,3.28-.22,4.86.09l1.18.28,1.91.67c.52-.41,1.03-.86,1.53-1.29l1-.74c2.69-1.81,5.95-2.67,9.2-2.82,1.63-.08,3.26.01,4.86.24.8.11,1.59.27,2.38.45l.7.17.44.11.43-.13,1.27-.38c.77-.23,1.55-.37,2.32-.55.78-.11,1.56-.27,2.34-.31,1.56-.16,3.12-.12,4.63.08,1.51.2,2.99.58,4.33,1.2,1.33.61,2.55,1.49,3.29,2.59.34.55.57,1.15.55,1.72-.03.57-.3,1.09-.71,1.55-.89.9-2.25,1.43-3.62,1.75-2.78.64-5.72.54-8.54.29-.71-.08-1.41-.16-2.12-.24-.76-.12-1.51-.23-2.26-.35-.53-.23-.92.21-1.35.45-.33.21-.58.38-.89.54-.59.34-1.19.62-1.81.9-2.47,1.05-5.11,1.54-7.72,1.59-2.62.06-5.19-.27-7.72-.83l-1.43-.32c-.37.3-.73.63-1.1.95-.5.4-.98.75-1.49,1.09-1.02.67-2.1,1.25-3.21,1.73-2.21.97-4.55,1.53-6.85,1.67-.57.02-1.15.05-1.72.01l-.43-.02c-.17-.01-.23,0-.48-.04l-1.32-.16-.16-.02c-.05,0-.11-.03-.14.04l-.22.27-.45.53c-.34.42-.49.55-.69.76-.37.4-.8.75-1.22,1.1-1.72,1.37-3.73,2.35-5.8,3.01-1.04.32-2.09.58-3.14.75-.53.07-1.06.16-1.59.19-.27.02-.48.05-.95.06l-.61.02h-.3s-.15.02-.15.02c-.04.02-.06.08-.1.12-.4.58-.82,1.18-1.26,1.81-.34.49-.7.99-1.07,1.51-.74,1.02-1.54,2.06-2.43,3.04-.89.98-1.86,1.89-2.9,2.7-.51.41-1.05.78-1.58,1.13-.29.18-.41.28-.64.41-.2.12-.42.27-.62.36-.33-.35-.65-.69-.96-1.01-.4-.42-.8-.82-1.19-1.2-.78-.75-1.53-1.41-2.21-1.97-1.37-1.11-2.48-1.82-3.05-2.17Z"></path>
      </g>
      <g>
        <path class="cls-3 color-tie-1" d="m128.43,326.65c-1.08-.92-4.21-1.78-6.5-1.34-5.43,1.47-3.16,5.44,2.8,4.6,2.68-.38,4.87-2.15,3.7-3.26Z"></path>
        <path d="m128.42,326.67c-.23.11-.97-.26-1.98-.47-.98-.23-2.13-.33-2.75-.21-.52.1-1.14.23-1.51.4-.19.11-.48.24-.72.35-.21.14-.45.27-.63.41-.4.3-.53.54-.47.56,0,.03.03.06.06.07.05.03-.01-.03.14.06.38.26,1.24.52,2.07.57.83.06,1.79.07,2.54-.02.78-.09,1.55-.3,2.14-.57.29-.13.53-.29.67-.4.13-.09.25-.16.15-.43.18-.04.4-.04.61.09.19.13.36.42.38.73.06.64-.21,1.26-.52,1.74-.65.98-1.57,1.49-2.09,1.55-.53.05-1.04.05-1.54.04-.48-.04-.93-.08-1.37-.11-.9-.13-1.74-.25-2.56-.53-.8-.29-1.59-.61-2.22-1.32-.69-.73-.75-1.86-.2-2.64.52-.73,1.17-1.16,1.78-1.46.31-.18.62-.28.93-.41.16-.05.29-.13.52-.18.18-.03.34-.07.5-.09,1.31-.19,2.5-.04,3.54.31.5.14,1.14.51,1.63.93.5.41.82.88.89,1.04Z"></path>
      </g>
      <g>
        <path class="cls-1 color-hair" d="m302.72,331.58c.52-2.02-.63-3.12-2.11-4.2-2.9-2.95-6.85.18-8.04,3.28-.99,2.54,2.5,2.58,3.31,4.15.11,1.08.9,1.66,2.02,1.51,2.9.18,4.5-2.09,4.81-4.75Z"></path>
        <path d="m302.7,331.57c-.22-.17.03-1.41-.8-2.34-.39-.47-.96-.89-1.53-1.25-.11-.06-.37-.28-.45-.32-.12-.08-.22-.17-.33-.22-.23-.09-.41-.21-.6-.22-1.2-.25-2.39.38-3.39,1.38-.49.5-.92,1.09-1.25,1.7-.16.3-.29.62-.39.92-.06.25-.04.24-.01.25.03.02-.03-.03.17.11.18.13.45.28.79.46.34.19.72.38,1.15.69.4.25.99.91,1.34,1.54.1.71.05.43.06.5,0,.01,0,.02,0,.04,0,.02,0,.03.03.05.03,0,.07.02.11.02.03,0,.04,0,.09,0,.14-.01.19,0,.38,0,.68.09,1.28,0,1.83-.26,1.12-.55,1.91-1.88,2.37-3.09.56.84.84,2.31.3,3.7-.26.69-.72,1.32-1.25,1.75-.53.45-1.1.65-1.5.71-.53.05-1.03.06-1.5,0l-.35-.05s0-.02,0-.02c-.02,0,.02,0-.02,0h-.1c-.28-.01-.54-.04-.85-.13-.6-.16-1.13-.52-1.47-.98-.17-.23-.3-.49-.38-.76-.04-.13-.08-.27-.09-.4,0-.08,0-.09,0-.14-.01-.1-.06-.19-.12-.28-.08-.09-.21-.23-.36-.34-.29-.23-.66-.45-1.03-.69-.38-.24-.77-.49-1.14-.89-.38-.4-.62-.97-.61-1.52.02-.57.21-1.02.37-1.39.16-.39.36-.76.58-1.11.43-.7.93-1.33,1.5-1.87,1.11-1.08,2.62-1.89,4.27-1.75.82.06,1.54.44,2.14.86l.4.36s.1.09.06.06l.04.04.17.14c.24.19.47.4.69.62.52.46,1.15,1.43,1.18,2.38.04.94-.37,1.56-.48,1.75Z"></path>
      </g>
    </g>
    <g id="Layer_124-2" data-name="Layer 124" class="cls-5">
      <path d="m123.08,326.51c0-.41-.84-1.31-1.23-2.99-.4-1.69-.24-4.09-.03-6.89.08-1.4.16-2.92-.09-4.56-.26-1.56-.63-2.96-.84-4.32-.21-1.34-.25-2.61,0-3.54.09-.21.13-.45.26-.61l.15-.27.41-.38c.21-.23.7-.55,1.07-.83.39-.29.79-.51,1.17-.76v-.19c0-.06-.07-.14-.1-.21-.08-.14-.17-.29-.25-.43-.16-.28-.32-.55-.47-.83-.3-.56-.6-1.1-.73-1.52-.3-.7-.32-1.01-.42-1.44-.06-.42-.13-.84-.15-1.26-.05-.85-.02-1.71.12-2.56.15-.85.39-1.69.73-2.48.09-.2.16-.4.27-.58l.15-.28c.05-.09.08-.17.22-.37.23-.35.45-.7.68-1.05.28-.4.57-.81.85-1.22-.17-.55-.36-1.12-.55-1.69l-.28-.86-.19-.66c-.15-.62-.29-1.24-.4-1.86-.22-1.24-.33-2.48-.27-3.62.05-1.14.29-2.16.68-2.92.09-.2.23-.35.32-.53.13-.18.32-.36.47-.54l1.73-1.31,1.8-1.26-1.51-3.18-.38-.81-.21-.65c-.08-.2-.1-.4-.13-.6-.18-.79-.14-1.59-.04-2.48.21-1.77,1.06-3.87,1.72-6.57.44-1.8.7-4.01.32-6.24-.18-.34.06-1.76.4-3.02.34-1.32.81-2.72,1.31-4.25.48-1.53,1.01-3.13,1.34-4.98.31-1.83.54-3.9,0-6.18-.54-2.27-1.88-4.33-3.44-5.78-.4-.34-.82-.64-1.23-.96-.41-.31-.86-.64-1.16-.79-.67-.38-1.35-.76-2.01-1.14-1.32-.73-2.65-1.43-3.98-2.1-5.32-2.66-10.84-4.7-16.29-5.41-2.73-.33-5.42-.29-7.93.14-2.52.46-4.77,1.44-6.67,2.59,2.18-.06,4.57-.06,6.96.43,2.39.48,4.75,1.29,6.96,2.23,4.42,1.88,8.3,4.27,10.62,5.09,2.32.83,4.58,1.8,6.79,2.87.54.26,1.09.53,1.63.79.25.13.57.27.77.39l.56.35c.79.44,1.32,1.06,1.79,1.69.83,1.31.9,3.31.52,5.43-.38,2.13-1.1,4.32-1.7,6.6-.15.57-.3,1.14-.42,1.74-.14.58-.25,1.18-.32,1.8-.11.61-.13,1.22-.15,1.89l-.02.56.12.58.09.42.08.34c.26,1.82-.12,3.75-.7,5.79-.56,2.02-1.22,4.22-1.24,6.57-.05.58.06,1.17.09,1.76.08.58.21,1.15.34,1.72l.22.65c.05.14.08.29.15.43.1.27.3.55.32.79l-.57.4c-.18.18-.31.26-.53.51-.27.36-.57.67-.81,1.06-.22.4-.5.78-.66,1.2-.75,1.66-1.01,3.39-1.04,5.02-.02,1.64.18,3.19.49,4.68.15.74.34,1.47.54,2.18l.18.64c.04.16.11.33.14.48-.1.15-.2.26-.3.43l-.17.29c-.06.11-.1.15-.2.36-.34.7-.64,1.42-.86,2.15-.45,1.46-.66,2.97-.66,4.45,0,1.49.23,2.95.67,4.34.25.8.4,1.1.53,1.39.06.12.12.24.19.35l.11.17.05.08s-.05.04-.07.06c-.33.22-.47.3-.98,1.19-.59,1.08-.75,2.21-.8,3.21-.06,2.03.39,3.67.81,5.18.19.72.43,1.48.65,2.23.23.74.38,1.38.5,2.23.24,1.65.33,3.53.59,5.33.23,1.79.72,3.53,1.48,4.72.74,1.22,1.67,1.75,2.07,2.01Z"></path>
      <path d="m121.73,233.86c.25-.05.92-.83,2.27-1.44.66-.32,1.5-.59,2.42-1.02.93-.41,1.86-1.08,2.7-1.83,1.69-1.51,3.12-3.39,4.47-5,.35-.41.65-.76,1.02-1.17.15-.21.3-.42.44-.62.12-.17.28-.29.4-.43.56-.53,1.18-.82,1.74-.99,1-.28,2.14-.35,3.38-.4,1.24-.06,2.59-.08,4.05-.47l.68-.22c.29-.04.45-.3.67-.45.31-.26.55-.45.81-.69.51-.45,1-.93,1.47-1.4.93-.95,1.79-1.85,2.6-2.31.8-.45,1.67-.56,2.78-.45.55.07,1.11.17,1.69.32l.41.09c.15.05.31.02.45.02l.65-.02c.4-.04.8-.08,1.19-.16,1.55-.3,2.9-.9,4.11-1.51,1.21-.61,2.3-1.22,3.35-1.7.46-.21.9-.4,1.34-.55.11-.05.22-.07.33-.11l.26-.08s0,0,.03,0l.18-.02.39-.05c1.03-.14,2.07-.23,3.11-.28,2.07-.13,4.17-.08,6.38-.14,2.2-.04,4.52-.32,6.66-.92,1.08-.29,2.11-.65,3.1-1.06.5-.19.99-.41,1.46-.64.14-.04.05-.15.29-.02l.25.12.7.29c.51.23,1.03.4,1.55.54,1.04.31,2.08.47,3.11.57,2.05.17,4.02-.03,5.84-.48,3.63-.9,6.65-2.78,8.62-5.05-1.26.63-2.75,1.26-4.38,1.69-1.62.44-3.36.7-5.02.75-1.66.06-3.22-.1-4.53-.33-1.32-.23-2.34-.6-3.08-.77-.36-.1-.71-.24-1.08-.35-.03,0-.1-.04-.19-.09l-.24-.12-.47-.24-.93-.48c-.07-.08-.17.02-.26.05l-.28.14-.55.27-.54.26-.2.1-.14.07c-.37.2-.74.38-1.11.54-1.49.69-3,1.24-4.54,1.58-3.08.71-6.33.57-9.52.79-1.59.11-3.16.26-4.69.51-.93.12-1.61.47-2.34.77-.72.32-1.39.68-2.04,1.03-1.31.71-2.54,1.42-3.8,1.91-.63.25-1.26.42-1.88.53-.31.04-.63.08-.94.08-.13.01-.24,0-.32-.02l-.52-.11c-1.4-.29-2.91-.47-4.43-.06-.76.21-1.45.59-2.05,1.01-.59.44-1.1.92-1.56,1.4-.93.95-1.76,1.85-2.66,2.64l-.33.28c-.07.05-.11.12-.19.13-.1.02-.41.14-.67.19-.52.14-1.09.2-1.66.27-1.15.12-2.36.16-3.6.37-1.23.2-2.58.61-3.65,1.49-.27.21-.53.44-.74.7-.24.25-.44.51-.61.79l-.19.3-.23.28-.52.66c-.65.87-1.3,1.72-1.93,2.56-1.21,1.53-2.74,3.72-4.69,4.87-.99.6-2.05,1.14-2.74,1.77-.71.61-1.07,1.22-1.25,1.51Z"></path>
      <path d="m296.21,325.85c.62-.42,1.21-4.71,1.55-9.71.09-1.25.18-2.54.27-3.82.06-1.29.12-2.56.18-3.79.07-1.22.14-2.39.2-3.44.05-1.06.11-2.01.18-2.8,1.07-11.21.4-24.21-1.63-35.83-1.68-10.17-4.82-20.09-9.18-28.45-4.31-8.39-9.88-15.04-15.02-19.38.31,1.71.84,3.61,1.5,5.52.17.47.34.95.52,1.43.15.5.3,1,.45,1.5.31,1,.65,1.98,1,2.92.75,1.85,1.32,3.72,1.96,5.25.61,1.54,1.32,2.75,1.81,3.59,4.55,6.47,7.45,13.53,9.54,20.3,1.09,3.38,1.79,6.77,2.47,10.04.32,1.64.53,3.27.78,4.87.24,1.6.47,3.18.59,4.74,1.27,12.5.81,23.42,1.23,32.98.02,2.27.38,5.39.74,8.15.33,2.75.71,5.15.87,5.93Z"></path>
      <path d="m282.77,224.59c-.36.03-1.31-.72-2.89-1.5-1.57-.81-3.78-1.59-6.23-2.37-2.44-.81-5.19-1.69-7.44-3.38-.58-.38-1.05-.91-1.54-1.35-.19-.23-.37-.45-.55-.67-.11-.12-.21-.24-.29-.37-.22-.8-.87-.06-1.22.01-.11.05-.66.28-1.05.35-.43.09-.86.21-1.3.28-.44.05-.89.11-1.33.16-.45,0-.9.02-1.35.03-1.81-.05-3.65-.4-5.41-1.07-1.76-.67-3.45-1.65-4.93-2.95-.36-.34-.74-.66-1.07-1.03l-.92-1.05-.35-.43c-.11.08-.2.16-.3.22-.04.02,0,.02-.11.06l-.58.22c-.39.14-.78.31-1.18.41-1.59.5-3.25.73-4.9.76-3.31.09-6.6-.74-9.49-2.3l-1.31-.8-.62-.46c-.09-.07-.01,0-.04-.03h0s-.03.01-.03.03h0s0,0,0,0c0,0,.01,0-.06.03l-.64.29c-.44.18-.84.39-1.3.55l-1.4.47c-.47.15-.97.24-1.45.36-1.96.41-4.04.51-6.08.15-2.04-.37-3.95-1.21-5.57-2.31-.83-.53-1.53-1.18-2.23-1.8-.63-.68-1.29-1.33-1.79-2.05-.56-.7-1.01-1.43-1.46-2.15-.41-.64-.96-1.77-.81-1.55-.03-.04-.02-.06-.12-.12-.22-.13-.5-.28-.79-.42-.58-.28-1.22-.56-1.85-.85-.65-.29-1.3-.58-1.99-.93-.17-.09-.34-.18-.55-.3-.25-.13-.5-.3-.74-.47-.46-.35-.86-.78-1.13-1.28l-.16-.29-.08-.15-.18-.29c-.11-.2-.25-.37-.38-.55-.26-.35-.56-.67-.86-.97-.62-.59-1.32-1.06-2.04-1.42-.72-.37-1.46-.63-2.21-.8-.18-.05-.37-.07-.56-.11l-.14-.03c-.11-.01-.21-.01-.28-.01l-.49-.02c-.32-.02-.63-.02-.94-.02-.29-.02-.65.06-.81-.12-.11-.44-.25-.9-.39-1.29l-.05-.15s-.03-.14-.04-.16v-.02s-.05-.07-.05-.07c-.03-.05-.07-.09-.11-.13-.17-.18-.5-.35-.87-.51-.76-.32-1.64-.7-2.3-1.29.93.28,1.85.25,2.78.25.47.01.98.05,1.51.31.6.35.79.53.99.78l.07.08s.1-.03.15-.05l.29-.11c.19-.07.36-.12.53-.18l.12-.04s.1-.02.15-.03l.43-.05c.29-.04.58-.03.88-.05,1.18-.02,2.41.16,3.59.53,1.18.38,2.3.95,3.28,1.69.49.37.94.77,1.35,1.2.21.21.39.44.58.66.17.18.41.56.4.51.05,0,.08-.02.11-.04.34.13.65.25.95.37.69.26,1.35.53,1.86.79.55.28,1.12.57,1.71.9.34.19.52.3,1.05.62.46.31.89.65,1.27,1.03.13.24.27.46.4.71l.19.37.1.21.32.73c.25.46.49.92.73,1.37,1.04,1.77,2.39,3.27,4,4.29,1.61,1.02,3.48,1.54,5.39,1.53,1.92,0,3.82-.51,5.64-1.31l.35-.14.49-.25.96-.5.48-.25.24-.12c.08-.03.16-.12.22-.02l.79.72c1.2,1.13,1.8,1.47,2.6,1.99,1.59.92,3.35,1.5,5.11,1.76,1.76.26,3.53.2,5.19-.15.42-.08.82-.22,1.22-.32.4-.12.78-.29,1.17-.42.52-.25,1.13-.57,1.7-.86.56-.33,1.12-.65,1.68-.98.47.89.92,1.81,1.45,2.6l.38.62c.13.21.21.26.31.39.2.23.39.47.6.68.85.87,1.82,1.58,2.84,2.18,1.04.56,2.11,1,3.21,1.3,1.1.26,2.2.47,3.29.44.54.04,1.07-.06,1.6-.08.51-.11,1.04-.14,1.53-.31.41-.09.86-.26,1.3-.43.43-.17.86-.34,1.29-.51l.64-.25c.12.18.22.4.33.59l.66,1.2c.22.38.47.84.71,1.12.15.18.25.39.43.55.34.33.63.69,1.03.97.71.63,1.59,1.12,2.46,1.61,1.95,1.01,4.97,2.26,7.52,3.75,1.26.76,2.39,1.55,3.19,2.32.83.72,1.3,1.43,1.57,1.72Z"></path>
    </g>
    <g id="Layer_125-2" data-name="Layer 125" class="cls-4">
      <path class="cls-2" d="m301.04,319.44c-.16-.06-.22-.76-.12-1.54.09-.78.28-1.63.31-2.12.06-.86.19-1.76.26-2.62.07-.85.05-1.7-.18-2.23-.1-.23-.23-.4-.39-.54l-.05-.06-.21-.13-.44-.27-.22-.13-.11-.07s0-.09,0-.13l.06-.56.07-.55.05-.31c.03-.19.07-.38.11-.57.08-.37.18-.73.29-1.08.44-1.39,1.09-2.55,1.76-3.37.35,1.18.4,2.89.14,3.42-.29.53-.51,1.08-.68,1.63-.04.14-.08.27-.12.41l-.07.2-.03.11s.05.05.08.08l.2.16c.44.44.82,1,.92,1.57.15.56.15,1.1.16,1.61-.11,2.03-.53,3.69-.97,5.06-.21.65-.75,1.74-.82,2.01Z"></path>
      <path class="cls-2" d="m249,199.46c-.26.17-1.56-.79-2.2-.92-1.1-.27-2.23-.69-3.3-.94-1.86-.46-3.65-.87-4.97-1.38.55-.85,1.82-1.37,2.24-1.17,1.66.78,3.02,1.22,4.27,1.64,1.23.42,2.34.83,3.11,1.5.39.29.8,1.1.86,1.27Z"></path>
      <path class="cls-2" d="m127.47,211.16c-.04.17-.65.34-1.33.59-.29.11-.79.29-1.29.52-.49.22-1.01.53-1.47.83-.7.44-1.41.88-2.18,1.37,0-.07-.02-.08-.01-.13,0-.03-.02-.03.02-.09l.13-.24.56-1.05.64-1.17.35-.62.04-.08.02-.04-.67,1.12h0s0,0,0,0h0s.03-.06.03-.06l.06-.11c.16-.31.32-.62.48-.92l.06-.12.61-1.04c.26-.44.13-.22.15-.25l-.04.05-.07.11-.3.46-.34.54-.07.11h0s-.01.02-.01.02c0,0,0,0,0,0,0-.01,0-.03,0-.04-.03,0,.03-.08-.33.15-1.05.68-1.99,1.43-2.83,1.98-.1-1.19.73-2.88,1.36-3.18.22-.11.44-.22.65-.33.25-.15.65-.34.94-.47.61-.25,1.13-.42,1.56-.47.44-.08.83-.11,1.29-.16.11,0,.24-.03.32-.01l-.2.39c-.13.25-.26.5-.38.75-.12.24-.24.48-.36.72,0,0-.03.06,0,.02l.09-.15.14-.24-.06.11-.12.22c-.16.28-.31.56-.46.83l-.1.16-.26.43h0s0,0,0,0h0s0,.02,0,.02c0,0,0,.01,0,.02,0,0,.01.01.03,0,.01,0,.03-.02.05-.04,0-.01.15-.1.21-.13.46-.27.71-.39,1.07-.44.05-.01.1-.02.18-.03.1-.01.21-.02.32-.04.22-.02.45-.02.67,0,.43.02.8.08.92.11Z"></path>
      <path class="cls-2" d="m144.77,214.06c.02.35-2.15,1.32-3.16,1.58-.19.06-.39.1-.63.11-.24,0-.59,0-.95-.38-.34-.43-.27-.89-.21-1.14.05-.25.22-.58.18-.55.02-.15.01-.17-.04-.17-.02,0-.04.01-.07.03-.12.07-.1.07-.09.05,0,0,0-.02-.01-.04,0,0,0,0-.02,0,0,0-.13.05-.19.07l-.43.17c-1.14.46-2.14,1-2.99,1.45-.03-1.18,1.11-2.75,1.77-2.9.62-.17,1.19-.34,1.75-.49.74-.21,1.33-.3,1.85-.37.52-.07,1.01-.13,1.49-.19l.38-.05s.16-.03.16-.01l-.02.06c-.03.08-.03.15.02.21-.64.63-1.29,1.27-1.81,1.89-.25.31-.49.61-.65.92-.11.18-.09.38-.14.39-.16.03-.09.06,0-.08,0-.03.06,0,.12,0,.14,0,.33-.01.51-.04.38-.06.76-.16,1.14-.25.61-.16,1.81-.26,2.05-.27Z"></path>
      <path class="cls-2" d="m111.63,211.41c.04.16-.33.48-.83.77-.51.3-1.05.53-1.47.73-.73.34-1.72.56-2.62.62-.46.04-.94.07-1.46.1-.39.01-.77.02-1.15.03.58-.48,1.14-.95,1.69-1.41.77-.61,1.11-1.04,1.37-1.52.04-.06.07-.11.1-.18l.03-.07.06-.14c.04-.1.08-.19.11-.28l1.18,1.28c-1.38.29-2.59.88-3.58,1.41-.12-.5-.01-1.11.24-1.61.24-.49.61-.85.87-.91.78-.19,1.48-.3,2.12-.36l1-.1-.38.77c-.1.19-.2.38-.3.56-.11.18-.14.2-.22.32-.14.18-.28.36-.42.51-.09.09-.17.18-.24.24l-.06.05h.1s.21-.04.21-.04c.27-.04.51-.1.7-.16.17-.05.33-.11.49-.16.29-.08.58-.18.87-.24.45-.13,1.38-.19,1.58-.21Z"></path>
      <path class="cls-2" d="m101.88,208.48c.06.31-.72.62-.91.94-.34.54-.8.95-1.17,1.37-.65.72-1.39,1.25-2.22,1.55-.56-.68-.62-1.59-.35-1.69,1.06-.37,1.65-.82,2.18-1.3.53-.47.99-.94,1.55-1.05.25-.08.81.12.91.18Z"></path>
    </g>
  </g>
</svg>