<svg xmlns="http://www.w3.org/2000/svg" id="art" viewBox="0 0 380 600"><defs transform="matrix(-1, 0, 0, 1, 380, 0)"><style>.cls-1{fill:blue;}.cls-2{opacity:0.5;}.cls-3{fill:#fffffe;}.cls-4{opacity:0.4;}</style></defs><path class="cls-1 color-hair" d="M317.977,353.07c-.969-17.109,3.587-36.316-9.8-49.9-8.477-8.6-34.184-72.483-59.744-81.789-47.613-23.68-89.6-23.158-132.585,9.648-26.555,15.924-47.092,39.6-50.814,70.924-3.427,15.832-5.268,31.912-7.136,47.984-1.732,14.908-6.474,27-3.612,42.557,1.9,14.717,10.989,26.428,9.537,41.306a17.4,17.4,0,0,1-11.34,14.951c10.37,12.172,27.976.187,29.765-13.311,5.335,13.308,20.345,21.752,35.2,20.747,13.488-.912,22.191-4.594,34.045-8.779,21.787-7.084,43.448-13.488,66.383-11.069,17.332,1.827,17.958,20.3,32,28.684,19.886,11.866,48.016-20.616,43.976-41.044,15.262,6.867,10.212,27.905.109,36.783C346.224,440.678,324.017,393.969,317.977,353.07Z" transform="matrix(-1, 0, 0, 1, 380, 0)" /><path d="M318.022,353.063c.347,1.213,1.1,5.649,2.587,12.42.75,3.386,1.632,7.366,2.622,11.839s2.089,9.452,3.079,14.871a139.781,139.781,0,0,1,2.2,17.528,64.326,64.326,0,0,1-1.645,19.494,45.916,45.916,0,0,1-3.782,9.654,45.1,45.1,0,0,1-6.225,8.591l-1.918,1.873-.967.934-1.039.851-2.083,1.7-2.211,1.536a24.619,24.619,0,0,1-2.257,1.468l-1.2.7c-.508.291-1.021.614-1.528.882-2.032,1.083-4.074,1.964-6.124,2.961-.78.091-1.531.214-2.294.314l-1.136.155-.283.037.189-.188.376-.375a7.092,7.092,0,0,0,1.854-3.884l.736-.856a7.358,7.358,0,0,0,.565-.776c.321-.5.743-1.021.981-1.5l.806-1.457.336-.7.244-.523a31.019,31.019,0,0,0,1.534-4.327,24.053,24.053,0,0,0,.8-8.9,15.26,15.26,0,0,0-3.069-7.877,9.865,9.865,0,0,0-.671-.8l-.47-.481a10.081,10.081,0,0,0-1.05-.842,9.8,9.8,0,0,0-1.131-.684l-.587-.286c-.021-.008-.055-.033-.066-.027l.012.083.025.164.05.328a13.136,13.136,0,0,1,.158,1.928l-.027,1.023c.006.121-.04.47-.065.725l-.088.821a33.154,33.154,0,0,1-1.368,6.283,46.638,46.638,0,0,1-5.088,10.9,51.192,51.192,0,0,1-14.047,14.978,30.865,30.865,0,0,1-12.439,5.269,21.825,21.825,0,0,1-7.043-.052,20.955,20.955,0,0,1-6.64-2.586,35.093,35.093,0,0,1-9.946-9.566c-2.707-3.648-4.966-7.489-7.672-10.768a19.371,19.371,0,0,0-9.861-6.915,12.471,12.471,0,0,0-1.481-.354,15.231,15.231,0,0,0-1.518-.241c-1.022-.136-2.177-.18-3.259-.276-1.1-.1-2.2-.14-3.308-.166s-2.209-.094-3.317-.058a103.884,103.884,0,0,0-13.311.875q-6.651.831-13.259,2.337c-8.805,1.962-17.528,4.636-26.229,7.472-8.575,2.765-17.186,6.583-26.537,8.506-2.321.506-4.675.871-7.031,1.166a64.158,64.158,0,0,1-7.2.51,41.339,41.339,0,0,1-14.4-2.8,40.006,40.006,0,0,1-12.418-7.84c-.851-.9-1.786-1.717-2.549-2.7l-1.191-1.43-.892-1.264c-.084-.109-.146-.229-.215-.339l-.086-.173c-.024-.034-.063-.18-.066-.054a2.4,2.4,0,0,1-.162.575l-.028.065,0,.008s0,.007,0,0,.04-.075.029-.055l-.021.04-.084.16-.168.319c-.222.426-.447.852-.7,1.256a24.446,24.446,0,0,1-1.6,2.374,25.775,25.775,0,0,1-8.621,7.353A18.21,18.21,0,0,1,60,456.268a14.966,14.966,0,0,1-2.946-.841,14.041,14.041,0,0,1-1.39-.634,5.576,5.576,0,0,1-.666-.366l-.938-.576a23.285,23.285,0,0,1-3.4-3.025L49.14,449.2l-.77-.829c-.256-.276-.408-.478-.617-.721,1.244-.5,2.741-1.067,4.02-1.616a19.265,19.265,0,0,0,1.9-.863,8.83,8.83,0,0,0,.8-.49l.251-.163a1.969,1.969,0,0,0,.173-.119,14.657,14.657,0,0,0,5.6-8.041,15.114,15.114,0,0,0,.555-3.324l.1-1.783c.023-.6-.025-1.192-.032-1.786a35.6,35.6,0,0,0-.99-7.119A127.455,127.455,0,0,0,55.5,408.161c-.869-2.391-1.686-4.854-2.4-7.357a76.856,76.856,0,0,1-2.615-18.815,78.985,78.985,0,0,1,.929-11.09c1.084-7.252,2.717-14.153,3.5-21.03,1.632-14.134,3.247-28.337,5.927-42.346.341-1.75.686-3.5,1.06-5.241.086-.425.209-.959.21-1.038l.208-1.352.416-2.7c.223-1.81.722-3.568,1.1-5.347.355-1.786.9-3.52,1.433-5.258a87.394,87.394,0,0,1,8.878-19.718,107.942,107.942,0,0,1,28.89-30.794c1.379-1.072,2.835-2.025,4.266-3.01l2.154-1.464,2.2-1.376,2.2-1.373.275-.172.137-.085-.028.017.421-.3,1.05-.751,4.2-3A146.052,146.052,0,0,1,137.5,214.034a107.375,107.375,0,0,1,38.553-11.291,112.322,112.322,0,0,1,38.712,3.226,173.894,173.894,0,0,1,34.7,13.34l-.238-.1a34.787,34.787,0,0,1,10.008,6.13,74.172,74.172,0,0,1,7.889,7.921A150.8,150.8,0,0,1,279.745,250.6c7.5,11.821,13.737,23.772,19.791,35.194,1.516,2.853,3.017,5.677,4.561,8.421.771,1.371,1.554,2.721,2.361,4.031a27.914,27.914,0,0,0,2.55,3.61l1.551,1.8a16.827,16.827,0,0,1,1.517,1.89l1.368,1.992c.431.676.776,1.4,1.165,2.1l.565,1.053c.165.361.308.731.462,1.1.3.733.616,1.456.888,2.193a42.691,42.691,0,0,1,1.252,4.493c1.367,6.037,1.361,12.031,1.272,17.781-.127,5.76-.429,11.343-.218,16.77-.507-4.939-.546-10.4-.689-16.2-.1-2.9-.178-5.886-.5-8.924a52.425,52.425,0,0,0-1.6-9.173,32.141,32.141,0,0,0-3.716-8.783l-.618-1.039-.727-.971c-.5-.634-.93-1.327-1.493-1.918l-1.67-1.785a25.186,25.186,0,0,1-1.754-1.988,88.439,88.439,0,0,1-5.689-8.72c-1.773-2.981-3.5-6-5.232-9.034-6.917-12.114-13.937-24.385-21.675-35.374a124.456,124.456,0,0,0-12.222-15.106c-4.3-4.423-9-8.149-13.8-9.917l-.073-.027-.224-.1c-3.436-1.542-6.694-3.136-9.869-4.472l-4.67-1.884c-1.516-.611-2.977-1.239-4.442-1.7l-4.216-1.457c-1.36-.462-2.656-.963-3.942-1.288l-7-2.015-5.774-1.284c-.963-.2-1.918-.457-2.886-.612l-2.909-.431-2.906-.432a28.318,28.318,0,0,0-2.908-.356l-5.83-.42c-.485-.028-.97-.088-1.455-.089l-1.456.011-2.908.021-2.906.019c-.968,0-1.927.149-2.89.215l-5.763.523-5.687.981a49.768,49.768,0,0,0-5.612,1.27l-2.783.717-1.39.358c-.462.124-.907.3-1.362.453l-5.419,1.871-1.353.468L147.5,215l-2.624,1.139-2.62,1.137-1.31.568-1.265.66-5.05,2.646c-1.71.829-3.29,1.89-4.912,2.868l-4.832,2.979-4.63,3.268-2.311,1.63c-.394.266-.7.524-1.34.92l-1.2.74q-4.824,2.907-9.354,6.193a114.7,114.7,0,0,0-16.647,14.6,92.791,92.791,0,0,0-12.94,17.514,81.887,81.887,0,0,0-8.062,19.867c-.385,1.738-.837,3.46-1.167,5.2q-.431,2.7-.859,5.381c-.769,3.5-1.457,7-2.086,10.5-1.259,7-2.272,14.006-3.175,20.979q-.65,5.236-1.3,10.435c-.424,3.46-.781,6.937-1.337,10.41-1.081,6.919-2.68,13.627-3.445,20.333a63.79,63.79,0,0,0-.411,10.02c.058,1.664.227,3.307.44,4.959q.389,2.475.777,4.942c1.213,6.492,3.78,12.649,5.947,18.978a68.126,68.126,0,0,1,2.661,9.729,36.94,36.94,0,0,1,.526,10.117,19.341,19.341,0,0,1-3.524,9.643,18.4,18.4,0,0,1-3.587,3.721c-.35.252-.678.534-1.047.759-.249.158-.428.29-.654.408a9.291,9.291,0,0,1-1.334.642l-.185.073c-.065.024-.15.043-.061.1l.271.292a5.835,5.835,0,0,0,.564.559,8.067,8.067,0,0,0,1.253.959l.422.258a4.949,4.949,0,0,0,.522.269,7.846,7.846,0,0,0,1.072.47,7.228,7.228,0,0,0,1.111.358,7.388,7.388,0,0,0,1.142.243,14.5,14.5,0,0,0,9.129-1.813,22.007,22.007,0,0,0,7.163-6.3,23.723,23.723,0,0,0,1.311-2c.213-.335.378-.7.57-1.043l.142-.269.186-.436.346-.823a12.456,12.456,0,0,0,.58-1.83c.187-.6.33-1.361.487-2.069.3-1.406.6-2.958.8-4.219.088.054.158,0,.259.143l.354.773.708,1.547c.448,1.029.987,2.069,1.522,3.108l.8,1.559a14.584,14.584,0,0,0,.87,1.4l.712,1.021a7.662,7.662,0,0,0,.665.867,30.962,30.962,0,0,0,6.308,6,35.934,35.934,0,0,0,7.582,4.218,38.625,38.625,0,0,0,8.315,2.268,36.5,36.5,0,0,0,8.556.238,77.83,77.83,0,0,0,8.585-1.161,110.314,110.314,0,0,0,16.526-4.806c2.709-.962,5.4-1.971,8.136-2.914l8.179-2.628c5.441-1.7,10.886-3.3,16.361-4.658A130.841,130.841,0,0,1,209.22,434.3l4.133.137c1.374.08,2.743.21,4.111.313a22.39,22.39,0,0,1,8.293,2.249,23.457,23.457,0,0,1,6.721,5.258,56.577,56.577,0,0,1,4.939,6.51c2.956,4.408,5.729,8.746,9.435,12a21.873,21.873,0,0,0,6.031,3.91,16.2,16.2,0,0,0,6.844,1.214c4.72-.169,9.287-2.207,13.279-4.875a41.587,41.587,0,0,0,5.616-4.581,50.764,50.764,0,0,0,8.825-11.357,42.4,42.4,0,0,0,3.026-6.42,35.064,35.064,0,0,0,1.808-6.725l.2-1.7a3.708,3.708,0,0,0,.04-.472l0-.692-.008-1.385a20.822,20.822,0,0,0-.264-3.055l-.2-1.591-.218-1.5.371-.059a.531.531,0,0,1,.51.1l1.513.758c.97.518,1.911.981,2.847,1.595l.7.436c.232.158.458.359.687.537.452.376.926.7,1.352,1.131.218.2.436.45.654.672a6.51,6.51,0,0,1,.463.512l.807,1.024a18.675,18.675,0,0,1,3.306,9.537,27.556,27.556,0,0,1-1.127,9.68,34.4,34.4,0,0,1-1.695,4.489l-.349.726-.26.484c-.184.319-.368.64-.577.948a13.655,13.655,0,0,1-1.243,1.627c-.169.2-.359.39-.645.684l-.258.24-.132.122-.06.057.08-.032.672-.275,1.626-.67,1.746-.839c.305-.134.592-.313.891-.48l1.374-.786a52.694,52.694,0,0,0,6.655-4.695,16.084,16.084,0,0,0,1.565-1.378l1.53-1.445c.52-.476.949-1.04,1.432-1.558.461-.537.964-1.045,1.4-1.609l1.277-1.723.639-.868.564-.921,1.135-1.849.979-1.947a47.428,47.428,0,0,0,4.412-17.016,92.49,92.49,0,0,0-.439-17.469c-1.267-11.324-3.576-21.678-5.153-30.077C319.425,362.8,318.438,356.351,318.022,353.063Z" transform="matrix(-1, 0, 0, 1, 380, 0)" /><path class="cls-1 color-hair" d="M286.456,326.433q.559-10.447.436-20.917c3.423-.626,29.282-7.929,28.338-13.478,10.064,77.87,51.61,58.878,47.895,93.339-1.254,11.635-12.554,13.835-13.067,25.109-.4,8.772,10.5,8.711,18.534,4.465-4.977,21.251-44.722,23.713-54.13,4.012-5.213-10.251,1.306-23.535-5.681-32.169C276.631,371.282,284.831,357.023,286.456,326.433Z" transform="matrix(-1, 0, 0, 1, 380, 0)" /><path d="M286.5,326.435c.187.79.15,4.919-.3,10.98-.213,3.029-.533,6.539-.78,10.353-.125,1.907-.217,3.89-.227,5.921a44.513,44.513,0,0,0,.334,6.19,24.9,24.9,0,0,0,4.447,11.723,36.053,36.053,0,0,0,9.263,8.469c1.728,1.116,3.456,2.148,5.175,3.068.867.447,1.7.915,2.549,1.32l1.254.607.689.334.447.219c.138.083.324.11.393.271l.977,1.369c.136.2.288.39.408.6l.327.629.632,1.237.455,1.251a23.183,23.183,0,0,1,1.049,4.639,108.688,108.688,0,0,1,.364,11.094,41.322,41.322,0,0,0,.4,5.314c.088.879.344,1.693.5,2.541l.394,1.209.2.6.266.577a18.843,18.843,0,0,0,2.618,4.371,21.392,21.392,0,0,0,3.747,3.522,27.336,27.336,0,0,0,9.686,4.23,36.9,36.9,0,0,0,21.388-1.493,29.512,29.512,0,0,0,4.731-2.4,22.721,22.721,0,0,0,3.971-3.28c.307-.294.545-.641.823-.956l.4-.478a.55.55,0,0,0,.065-.1,1.8,1.8,0,0,0,.143-.274,1.658,1.658,0,0,0,.081-.262l.022-.123-.139.074a3.072,3.072,0,0,1-.358.156l-.082.027-.02.007c-.025,0,.037,0-.089.019l-.527.1-1.052.193c-.36.053-.738.083-1.106.124a17.265,17.265,0,0,1-4.594-.112,10.98,10.98,0,0,1-4.742-1.942,8.446,8.446,0,0,1-3.089-4.6q-.156-.648-.287-1.3c-.047-.42-.052-.827-.072-1.242a12.289,12.289,0,0,1,.119-2.3,18.353,18.353,0,0,1,3.075-8.168,79.085,79.085,0,0,1,5.52-6.737,17.431,17.431,0,0,0,3.623-6.2,9.526,9.526,0,0,0,.4-1.674,12.94,12.94,0,0,0,.229-1.795l.133-1.928c.025-.638-.012-1.262-.011-1.892a19.923,19.923,0,0,0-1.368-7.042c-1.729-4.317-5.638-7.638-9.88-10.944-2.114-1.661-4.293-3.331-6.421-5.1a80.44,80.44,0,0,1-6.129-5.641,66.032,66.032,0,0,1-9.947-13.075,81.377,81.377,0,0,1-6.6-14.367c-.469-1.2-.843-2.429-1.218-3.647s-.788-2.42-1.1-3.639c-.62-2.438-1.313-4.836-1.779-7.249q-.382-1.8-.763-3.586-.309-1.791-.615-3.564-.279-1.673-.554-3.325-.063-.633-.126-1.261c-.022-.256-.043-.5-.063-.732l-.016-.188a.678.678,0,0,1,0,.118.6.6,0,0,1-.114.259,2.027,2.027,0,0,1-.564.479c-.073.051-.155.093-.234.139l-.607.35c-.581.343-1.163.634-1.741.929-1.157.582-2.31,1.078-3.453,1.558-2.288.937-4.543,1.743-6.767,2.467s-4.412,1.374-6.573,1.963c-1.081.294-2.153.576-3.225.836l-.8.193-.262.057-.195.039c-.263.05-.532.1-.812.142-.057.472-.05.9-.081,1.731q-.041,1.447-.08,2.841c-.062,1.859-.14,3.648-.233,5.382-.185,3.467-.423,6.711-.7,9.84-.4-6.049-.908-13.651-1.453-21.825,1.386-.347,3.2-.887,4.07-1.216q1.62-.566,3.251-1.174c2.17-.807,4.34-1.663,6.473-2.557s4.23-1.833,6.214-2.842c1-.5,1.952-1.027,2.871-1.561.451-.274.9-.544,1.315-.829l.382-.256.625-.481c.421-.289.82-.755,1.285-.73a26.866,26.866,0,0,0,2.843-.723,1.192,1.192,0,0,0,.2-.1c.029-.029,0-.044-.012-.07l-.093-.053-.046-.025h0c1.513-5.217.42-1.445.758-2.61h0v0l.006.008.013.015.024.03.05.06.394.478,1.576,1.855q.372,2.3.729,4.507l.352,2.208q.123.59.241,1.165c.307,1.535.6,2.993.871,4.359.586,2.717,1.094,5.068,1.5,6.946,2.755,12.464,7.3,24.3,14.9,33.624a78.74,78.74,0,0,0,12.883,12.361c2.332,1.872,4.715,3.719,6.954,5.8a26.5,26.5,0,0,1,5.748,7.258,21.978,21.978,0,0,1,2.335,8.863c.088.752.032,1.495.053,2.24l0,1.115-.084,1.1c-.062.734-.1,1.461-.183,2.2-.134.748-.243,1.5-.406,2.239a20.458,20.458,0,0,1-4.078,7.881c-1.8,2.265-3.783,4.19-5.363,6.288a14.8,14.8,0,0,0-3.122,6.839c-.051.619-.164,1.255-.174,1.854a6.946,6.946,0,0,0,.166,1.719,5.359,5.359,0,0,0,.564,1.522c.165.208.324.417.478.632a5.5,5.5,0,0,0,.589.538c1.715,1.341,4.312,1.612,6.722,1.356a15.4,15.4,0,0,0,1.842-.273l.467-.086.664-.191,1.326-.383c.908-.312,1.868-.75,2.8-1.131.948-.438,1.956-.882,2.854-1.317l.457.241.114.061a2.366,2.366,0,0,1-.083.322l-.2.689-.4,1.376-.445,1.3c-.16.431-.276.858-.471,1.29l-.616,1.3a17.354,17.354,0,0,1-1.523,2.563c-.136.2-.281.455-.409.606l-.374.447-.747.888c-.518.57-1.084,1.091-1.626,1.634-.59.483-1.165.988-1.769,1.447-.625.425-1.227.89-1.871,1.278a36.667,36.667,0,0,1-16.65,5.127,38.627,38.627,0,0,1-16.67-2.378,27.887,27.887,0,0,1-7.273-4.139,22.045,22.045,0,0,1-5.436-6.311,22.573,22.573,0,0,1-1.724-3.768c-.193-.661-.432-1.316-.579-1.98l-.4-1.992a48.716,48.716,0,0,1-.413-7.769c.037-4.992.378-9.853-1.129-13.9a8.368,8.368,0,0,0-.636-1.454c-.12-.234-.226-.475-.352-.7l-.448-.64-.313-.462c-.057-.126-.222-.139-.312-.206l-1.566-.789q-3.192-1.627-6.2-3.508a54.918,54.918,0,0,1-5.726-4.136,36.689,36.689,0,0,1-4.936-5,25.978,25.978,0,0,1-3.486-5.8,26.905,26.905,0,0,1-1.939-7.177,61.2,61.2,0,0,1,.377-14.915c.582-4.728,1.238-9.091,1.687-12.63C286.076,330.477,286.351,327.772,286.5,326.435Z" transform="matrix(-1, 0, 0, 1, 380, 0)" /><g class="cls-2" transform="matrix(-1, 0, 0, 1, 380, 0)"><path class="cls-3" d="M330.48,407.466c-.625-.778,1.648-5.783,3.386-9.955l1.108-2.658,1.6,2.642a15.376,15.376,0,0,1,1.8,4.794,9.667,9.667,0,0,1,.174,1.075L335,401.7a16.325,16.325,0,0,0,2.853-5.81,13.689,13.689,0,0,0,.218-6.22l-1.553-7.305,6.951,3.661q1.447.762,2.764,1.628c.158.105.087.049.117.064h.023l.041-.006a.107.107,0,0,0,.055-.029.134.134,0,0,0,.019-.134c-.033-.1,0,.051.13.088.062.015.137,0,.206-.107.019-.021.03-.065.05-.08l.013-.016.007-.009-.017-.094-.076-.4q-.206-.793-.407-1.571a28.652,28.652,0,0,0-5.676-10.425,10.247,10.247,0,0,1,1.9-.08,12.982,12.982,0,0,1,2.077.355,15.352,15.352,0,0,1,2.092.791,13.9,13.9,0,0,1,1.965,1.156c2.506,1.73,4.172,4.2,4.456,5.676.122.833.306,1.622.372,2.432l.017.153.044.243.086.482c.065.321.093.625.128.927.058.6.073,1.178.112,1.742a25.1,25.1,0,0,1-.346,5.714q-.516,2.275-1.009,4.457-.135.559-.267,1.112l-.065.273-.106-.043-.213-.092a2.478,2.478,0,0,0-.458-.079,1.766,1.766,0,0,0-.5.1,54.082,54.082,0,0,0-5.765-6.648c-.443-.385-.876-.761-1.326-1.093-.222-.165-.449-.346-.665-.5l-.469-.326q-.945-.633-1.915-1.169l2.345-1.582a18.048,18.048,0,0,1-5.345,16.044l-3.65,3.329-.015-5.047a10.339,10.339,0,0,0-.877-4.074l3.818-.023q-.394.687-.8,1.345A40.207,40.207,0,0,1,330.48,407.466Z" /></g><g class="cls-4" transform="matrix(-1, 0, 0, 1, 380, 0)"><path d="M131.881,310.752c-17.429-6.156-30.679-1.626-44.639,8.391-16.068,11.528.562,34.077-3.979,51.724-1.513,5.879-5.117,11.229-5.513,17.286-.38,5.829,2.267,11.379,4.849,16.618,5.514,11.19,14.044,33.559,29.359,32.516,7.665-.521,12.012-9.079,18.69-11.254,9.208-3,12.14,3.269,20.462,5.467,3.212.849,6.607.258,9.876-.336l39.626-7.208c22.455-4.084,35.326-1.947,48.484,16.5,17.02,23.853,31.748-.92,33.6-21.224,1.339-14.69-3.135-28.828,6.442-41.276,4.261,8.116,7.51,20.7,6.1,29.887a207.033,207.033,0,0,0-2.541-76.25c-2.107-9.459-5.937-19.988-14.963-23.518-4.582-1.792-9.686-1.385-14.6-1.057a339.844,339.844,0,0,1-95.7-7.213" /><path d="M167.449,299.74c1.422-.053,8.525,1.4,19.1,2.893a367.357,367.357,0,0,0,39.723,3.6c7.556.26,15.374.275,23.135.016,3.88-.129,7.747-.319,11.559-.584,3.789-.214,7.628-.691,11.546-.355a21.618,21.618,0,0,1,5.765,1.255,20.578,20.578,0,0,1,5.038,2.891,24.5,24.5,0,0,1,3.836,3.989,31.233,31.233,0,0,1,2.756,4.414,49.338,49.338,0,0,1,3.446,8.748c.848,2.8,1.421,5.414,1.958,7.763a204.765,204.765,0,0,1,2.891,73.927l-5.93-.912a40.643,40.643,0,0,0-.991-14.049c-.277-1.187-.578-2.372-.921-3.548-.162-.59-.363-1.17-.542-1.756-.088-.293-.186-.584-.29-.872l-.156-.434a9.224,9.224,0,0,0-.611-1.278,4.048,4.048,0,0,0-.61,1.092c-.036.1-.075.177-.106.289l-.408,1.266a14.4,14.4,0,0,0-.4,1.519c-.108.517-.273,1.011-.336,1.546a64.141,64.141,0,0,0-.616,13.289,138.848,138.848,0,0,1-.017,14.38,58.791,58.791,0,0,1-2.966,14.549,43.415,43.415,0,0,1-7.073,13.4,21.815,21.815,0,0,1-6.311,5.406,14.241,14.241,0,0,1-9.012,1.6,17.593,17.593,0,0,1-7.86-3.565,34.917,34.917,0,0,1-5.462-5.456l-4.118-5.374-2.061-2.395-2.174-2.214a32.046,32.046,0,0,0-8.345-5.817,29.532,29.532,0,0,0-9.731-2.579c-.868-.052-1.719-.166-2.6-.176l-2.643-.025c-1.786.086-3.568.149-5.379.364-1.8.142-3.624.455-5.437.7-1.83.317-3.62.6-5.5.959l-22.289,4.062-11.067,2-5.535,1a34.135,34.135,0,0,1-6.271.633,18.109,18.109,0,0,1-3.542-.37c-.3-.07-.617-.139-.891-.217l-.789-.24a16.221,16.221,0,0,1-1.554-.529,37.6,37.6,0,0,1-5.532-2.712,29.137,29.137,0,0,0-4.292-2.191,7.613,7.613,0,0,0-3.65-.415l-.991.163-1.036.28a6.844,6.844,0,0,0-.907.317,7.723,7.723,0,0,0-.879.418,23.164,23.164,0,0,0-3.772,2.73c-1.321,1.114-2.7,2.37-4.288,3.6a22.549,22.549,0,0,1-5.592,3.313l-.821.314-.871.238-.875.223c-.3.052-.6.089-.9.131a11.319,11.319,0,0,1-1.757.143,13.756,13.756,0,0,1-1.686-.032,18.791,18.791,0,0,1-6.467-1.618,27.63,27.63,0,0,1-9.579-7.579,59.648,59.648,0,0,1-6.308-9.282c-1.793-3.173-3.351-6.383-4.828-9.551l-2.168-4.7q-1.1-2.334-2.2-4.653a41.334,41.334,0,0,1-3.523-10.471,21.746,21.746,0,0,1-.2-5.892A26.061,26.061,0,0,1,75.8,381.76c1.169-3.445,2.669-6.4,3.706-9.257a24.6,24.6,0,0,0,1.175-4.188,28.089,28.089,0,0,0,.414-4.336,54.564,54.564,0,0,0-.757-9.036c-.916-6.1-2.475-12.228-2.769-18.724a25.988,25.988,0,0,1,1.3-9.866,18.08,18.08,0,0,1,5.874-8.106c1.322-1.058,2.522-1.771,3.761-2.618,1.266-.775,2.489-1.592,3.786-2.3a59.434,59.434,0,0,1,7.873-3.825,45.024,45.024,0,0,1,8.255-2.409,41.626,41.626,0,0,1,8.354-.676,48.025,48.025,0,0,1,15.486,3.256,50.253,50.253,0,0,0-14.881-1.647,40.984,40.984,0,0,0-16.141,4.313,63.456,63.456,0,0,0-7.635,4.5c-1.225.871-2.469,1.72-3.664,2.666-.588.464-1.236.927-1.777,1.391a15.837,15.837,0,0,0-1.518,1.426,12.907,12.907,0,0,0-2.327,3.293,13.2,13.2,0,0,0-1.252,3.8,19.114,19.114,0,0,0-.306,4.142,33.5,33.5,0,0,0,.37,4.308c.836,5.815,2.624,11.682,3.683,17.7a50.547,50.547,0,0,1,.91,9.184,31.289,31.289,0,0,1-.331,4.65,28.923,28.923,0,0,1-1.024,4.457c-.866,2.783-1.909,5.164-2.728,7.312a29.534,29.534,0,0,0-1.719,5.758,18.512,18.512,0,0,0,1.024,8.979,102.168,102.168,0,0,0,4.125,9.7c1.49,3.344,2.908,6.6,4.457,9.737a74,74,0,0,0,5.073,8.934,30.578,30.578,0,0,0,6.412,7.166,13.278,13.278,0,0,0,7.972,3.03,9.607,9.607,0,0,0,2-.161c.317-.091.64-.137.96-.25s.64-.227.96-.366a18.21,18.21,0,0,0,3.837-2.435c2.582-1.99,5.086-4.593,8.616-6.5a15.588,15.588,0,0,1,2.826-1.157l1.411-.37c.476-.111.981-.169,1.47-.252a14.211,14.211,0,0,1,6.065.473,24.045,24.045,0,0,1,5.083,2.383c1.493.872,2.866,1.693,4.269,2.345a19.742,19.742,0,0,0,2.119.863l1.077.344q.495.132,1.01.223a16.275,16.275,0,0,0,4.428.03c1.549-.168,3.169-.469,4.818-.747l4.908-.841,9.745-1.68,19.214-3.342a130.292,130.292,0,0,1,19.216-2.441c6.45-.2,13.169.748,19,3.761a20.63,20.63,0,0,1,2.122,1.194,18.359,18.359,0,0,1,2.031,1.321l1.944,1.43,1.8,1.577c.3.266.6.52.891.794l.829.849,1.653,1.695c1,1.2,2.067,2.361,3,3.6a77.171,77.171,0,0,0,5.556,6.962,16.462,16.462,0,0,0,6.749,4.512,8.829,8.829,0,0,0,7.329-1.03,14.549,14.549,0,0,0,3.112-2.517,23.9,23.9,0,0,0,2.6-3.208,46.146,46.146,0,0,0,6.349-15.444,64.676,64.676,0,0,0,1.319-16.552c-.113-5.572-.466-11.233.225-16.935a38.78,38.78,0,0,1,.785-4.243,18.129,18.129,0,0,1,.574-2.088l.339-1.031a8.765,8.765,0,0,1,.51-1.324l1.222-2.6c.409-.863.936-1.56,1.4-2.348l.716-1.151.791-1.149.793-1.148.4-.575c.131-.17.271-.46.383-.414.831,1.638,1.619,3.218,2.372,4.839.765,1.6,1.465,3.334,2.117,5.091l.4,1.167c.112.314.213.631.31.949.191.637.409,1.266.578,1.908.366,1.276.687,2.561.978,3.85a44.982,44.982,0,0,1,.969,15.788l-3.844-.591a207.425,207.425,0,0,0-1.231-67.733c-.474-2.657-1.039-5.283-1.6-7.887a67.333,67.333,0,0,0-2.107-7.481c-1.688-4.774-4.076-9.28-7.679-12.129a15.18,15.18,0,0,0-6.048-2.9,28.549,28.549,0,0,0-7.078-.507c-2.442.084-4.994.276-7.516.384-2.521.146-5.031.213-7.524.29-7.01.212-15.309.145-23.934-.334s-17.57-1.347-25.884-2.516A316.7,316.7,0,0,1,167.449,299.74Z" /></g></svg>