<svg xmlns="http://www.w3.org/2000/svg" id="Art" viewBox="0 0 380 600"><defs transform="matrix(-1, 0, 0, 1, 380, 0)"><style>.cls-1{opacity:0.3;}.cls-2{fill:#172e35;}.cls-3{fill:#5a5c5e;}.cls-4{fill:#51e9f4;}.cls-5{fill:#f6f8f9;}.cls-6{fill:#6a5cff;}.cls-10,.cls-7{fill:#fff;}.cls-7{opacity:0.5;}.cls-8{fill:#ff3881;}.cls-9{opacity:0.6;}.cls-11{fill:#ea4b81;}.cls-12{opacity:0.4;}.cls-13{fill:#00ccc0;}.cls-14{fill:#00f4cb;}.cls-15{fill:#d4d7d9;}.cls-16{fill:#94b3ff;}.cls-17{fill:#ff4500;}.cls-18{fill:#00cc78;}.cls-19{fill:#ffd635;}.cls-20{fill:#f9a;}.cls-21{fill:#9c3cac;}.cls-22{fill:#ffb470;}.cls-23{fill:#898d90;}</style></defs><g class="cls-1" transform="matrix(-1, 0, 0, 1, 380, 0)"><path d="M365.961,563.283c-.535,4.693-4.945,7.795-9.071,10.26-30.4,18.274-69.423,24.336-104.959,16.667-5.571-1.2-11.017-.907-8.568-6.072,5.56-9.428,33.21-13.752,3.205-15.911-5.417-1.276-7.885-6.541-4.778-10.762,7.883-12.423,24.918-13.244,38.868-15.86,15.468-2.814,67.387-26.025,76.916-12.913,3.824,7.891-12.346,15.866-5.982,23.561C356.149,556.212,367.431,554.94,365.961,563.283Z" /><path d="M365.9,563.273a9.168,9.168,0,0,1-.106-1.09,6.014,6.014,0,0,0-.431-1.933,4.71,4.71,0,0,0-1.732-2.046,12.372,12.372,0,0,0-3.283-1.49c-1.292-.42-2.748-.779-4.314-1.25a24.57,24.57,0,0,1-2.423-.851,10.7,10.7,0,0,1-2.524-1.442,2.319,2.319,0,0,1-.574-.619,5.21,5.21,0,0,1-.458-.647c-.131-.228-.272-.45-.392-.688l-.315-.75a6.93,6.93,0,0,1-.289-3.284,15.294,15.294,0,0,1,2.488-5.763c1.1-1.717,2.306-3.338,3.324-5a10.635,10.635,0,0,0,1.891-4.983,3.947,3.947,0,0,0-.5-2.089,4.122,4.122,0,0,0-.334-.373c-.145-.128-.278-.29-.444-.41a7.39,7.39,0,0,0-1.023-.706,13.079,13.079,0,0,0-5.061-1.415,41.676,41.676,0,0,0-10.43.583c-3.225.534-6.107,1.217-8.493,1.853-8.429,2.27-17.031,5.258-25.82,8.357-4.4,1.55-8.838,3.144-13.386,4.663-2.28.755-4.578,1.5-6.987,2.149-1.177.322-2.514.633-3.7.853l-3.568.671c-4.746.855-9.4,1.623-13.836,2.75a40.274,40.274,0,0,0-12.1,4.908,23.442,23.442,0,0,0-2.413,1.87c-.364.345-.773.648-1.106,1.018l-.991,1.111a9.083,9.083,0,0,0-.932,1.223c-.281.41-.64.892-.861,1.237a4.786,4.786,0,0,0-.281.462c-.043.128-.128.247-.161.37a2.813,2.813,0,0,0-.142.7,2.906,2.906,0,0,0,1.456,2.515,1.948,1.948,0,0,0,.405.242,2.519,2.519,0,0,0,.444.209,3.637,3.637,0,0,0,.48.174l.221.058c.017,0,.031.016.034.012l1.432.1,1.758.138,1.554.141c.792.091,1.4.142,2.472.293a29.234,29.234,0,0,1,5.481,1.14,6.981,6.981,0,0,1,3.325,2.2,4.741,4.741,0,0,1,.8,1.539,4.215,4.215,0,0,1,.187,1.034,4.324,4.324,0,0,1-.029.895,5.552,5.552,0,0,1-1.588,3.143,19.87,19.87,0,0,1-4.421,3.1l-3.923,2.2c-.828.473-1.633.948-2.4,1.434a23.075,23.075,0,0,0-3.979,3.037c-.111.119-.272.279-.338.362l-.114.129-.012.013h0v0c.006,0-.06-.011.2.047l.478.1.664.123,2.94.522,2.9.575c1.856.34,3.692.765,5.547,1.041l5.55.822,5.542.571c1.838.218,3.684.238,5.515.371a155.121,155.121,0,0,0,21.593-.4A167.935,167.935,0,0,0,318.75,585.9a163.674,163.674,0,0,0,18.635-5.518c1.474-.525,2.894-1.144,4.325-1.7l2.129-.848c.7-.288,1.38-.622,2.067-.928l4.064-1.846,3.884-1.989a41.951,41.951,0,0,0,7.049-4.189,9.642,9.642,0,0,0,3.927-5.729c.235,2.056-.781,4.57-2.642,6.715a37.077,37.077,0,0,1-6.87,5.86,106.355,106.355,0,0,1-16.943,10.065l-4.485,2.062c-1.5.618-3,1.194-4.468,1.768l-2.184.841-2.167.712-4.163,1.331c-2.714.736-5.243,1.383-7.5,1.877-2.275.428-4.271.762-5.906.983-1.648.2-3.3.315-4.938.476l-2.452.227-2.45.126-4.866.234-4.83.033c-1.6.04-3.2-.019-4.786-.084s-3.169-.087-4.741-.189c-3.141-.271-6.26-.419-9.331-.859a163.332,163.332,0,0,1-17.967-3.153c-1.363-.314-2.79-.547-4.3-.862-.171-.032-.4-.086-.637-.145l-.694-.168a12.148,12.148,0,0,1-1.516-.523,5.2,5.2,0,0,1-2.408-1.814,4.071,4.071,0,0,1-.641-2.87l.129-.745a5.647,5.647,0,0,1,.24-.729l.265-.723.388-.671a9.9,9.9,0,0,1,.912-1.261c.3-.352.59-.654.869-.933a20.5,20.5,0,0,1,1.775-1.548,36.545,36.545,0,0,1,3.722-2.516q.944-.564,1.887-1.09l1.757-.96c.72-.383,1.457-.763,2.18-1.181a10.569,10.569,0,0,0,1.054-.687c.3-.253.716-.56.665-1-.13-.409-.575-.571-.935-.718a9.157,9.157,0,0,0-1.182-.332c-.8-.171-1.622-.294-2.445-.4l-1.781-.2-2-.186-2.164-.179-1.2-.353-1.087-.451a9.375,9.375,0,0,1-3.638-3.051,7.681,7.681,0,0,1-1.437-4.639,8.206,8.206,0,0,1,1.507-4.493c.4-.6.8-1.124,1.2-1.688.2-.275.393-.558.606-.827l.7-.771a25.683,25.683,0,0,1,6.32-5.184,38,38,0,0,1,7.2-3.311,94.4,94.4,0,0,1,14.692-3.512l7.125-1.253c1.172-.226,2.336-.422,3.421-.683,1.108-.261,2.224-.568,3.334-.891,4.447-1.307,8.822-2.822,13.13-4.28s8.56-2.914,12.769-4.274a188.368,188.368,0,0,1,24.952-6.594,53.823,53.823,0,0,1,12.583-.89,19.783,19.783,0,0,1,6.435,1.456,10.925,10.925,0,0,1,3.013,1.915c.23.212.429.427.663.666.23.256.455.564.681.843a7.213,7.213,0,0,1,.747,1.98,8.14,8.14,0,0,1-.054,3.719,12.9,12.9,0,0,1-1.351,3.3,51.463,51.463,0,0,1-3.891,5.525,17.228,17.228,0,0,0-3.076,5.34,4.472,4.472,0,0,0,.041,2.6,2.852,2.852,0,0,0,.251.623,3.29,3.29,0,0,0,.332.594,2.71,2.71,0,0,0,.869.866,24.973,24.973,0,0,0,5.462,2.5,22.012,22.012,0,0,1,5.049,2.386,6.587,6.587,0,0,1,1.709,1.713,5,5,0,0,1,.751,1.9A7.2,7.2,0,0,1,365.9,563.273Z" /></g><path d="M270.489,592.344c.331-.364,3.858-.917,7.961-1.314s8.777-.662,11.38-.879c1.149-.1,2.321-.179,3.51-.251,1.165-.072,2.319-.157,3.478-.3a29.442,29.442,0,0,0,3.412-.625,11.8,11.8,0,0,0,3.016-1.15,2.693,2.693,0,0,0,.813-.66.25.25,0,0,0,0-.256.314.314,0,0,0-.039-.048l-.021-.021-.07-.061a2.537,2.537,0,0,0-.431-.334,6.941,6.941,0,0,0-1.306-.647,11.193,11.193,0,0,0-1.537-.477,14.051,14.051,0,0,0-1.553-.266,21.976,21.976,0,0,0-3.3-.08c-3.922.187-7.981.942-12.073,1.327a41.233,41.233,0,0,1-6.218.2,15.926,15.926,0,0,1-6.237-1.446,6.592,6.592,0,0,1-2.857-2.236,4.463,4.463,0,0,1-.716-2.017,4.965,4.965,0,0,1,.214-1.941,8.692,8.692,0,0,1,1.561-2.727,16.882,16.882,0,0,1,1.9-1.958,36.1,36.1,0,0,1,7.767-5.091c-1.644,2-4.149,4.609-6.043,7.19a10.079,10.079,0,0,0-1.821,3.451,1.349,1.349,0,0,0,.028.759c.006.071.073.133.09.211a2.316,2.316,0,0,1,.163.245c.081.083.153.174.235.268l.334.271c.257.175.581.33.869.5a4.249,4.249,0,0,0,.96.425,7.587,7.587,0,0,0,1.023.345,15.453,15.453,0,0,0,2.194.412,20.534,20.534,0,0,0,2.268.175,69.345,69.345,0,0,0,9.046-.524,71.326,71.326,0,0,1,8.716-.546,18.651,18.651,0,0,1,4.254.549,11.192,11.192,0,0,1,3.883,1.782,3.358,3.358,0,0,1,1.342,2.142,2.894,2.894,0,0,1-.97,2.375,9.237,9.237,0,0,1-3.637,1.918,29.516,29.516,0,0,1-7.232,1.11l-12.757.288C278.343,592.538,271.789,592.34,270.489,592.344Z" transform="matrix(-1, 0, 0, 1, 380, 0)" /><path class="cls-2" d="M265.682,592.651c1.659-1.925-.782-8.994-7.039-12.513s-20.139-7.625-25.027,1.564.977,11.927,5.474,13.3S260.794,598.322,265.682,592.651Z" transform="matrix(-1, 0, 0, 1, 380, 0)" /><path d="M265.716,592.681c.055.262-.458,1.2-1.692,2.04a14.589,14.589,0,0,1-5.017,2.057,57.864,57.864,0,0,1-11.133,1.046,43.754,43.754,0,0,1-7.035-.277,21.294,21.294,0,0,1-3.764-.8,15.422,15.422,0,0,1-3.8-1.684,9.034,9.034,0,0,1-3.3-3.561,8.939,8.939,0,0,1-.83-4.856,15.139,15.139,0,0,1,1.014-4.173c.24-.632.53-1.206.8-1.806a19.462,19.462,0,0,1,1.085-1.843,12.766,12.766,0,0,1,5.957-4.646,17.039,17.039,0,0,1,6.878-1.019,26.2,26.2,0,0,1,6.249,1.008,33.121,33.121,0,0,1,5.559,2.087,24.143,24.143,0,0,1,4.941,3.056,17.1,17.1,0,0,1,3.64,4.212,14.87,14.87,0,0,1,1.907,4.73,8.872,8.872,0,0,1,.161,2.475,3.839,3.839,0,0,1-1,2.484,3.139,3.139,0,0,0-.19-2.376,9.443,9.443,0,0,0-1.15-1.918,19.146,19.146,0,0,0-3.142-3.19,23.127,23.127,0,0,0-3.233-2.168c-.478-.3-.948-.5-1.335-.74a9.323,9.323,0,0,1-1.1-.661,26.564,26.564,0,0,0-7.872-3.736,16.047,16.047,0,0,0-8-.446,8.552,8.552,0,0,0-5.656,4.239c-.278.56-.561,1.127-.811,1.689a13.918,13.918,0,0,0-.573,1.7,6.651,6.651,0,0,0-.171,3.229c.4,1.976,2.156,3.237,4.139,4.012a19.741,19.741,0,0,0,3.064.924c1.033.215,2.107.367,3.157.5a86.109,86.109,0,0,0,11.875.537,49.44,49.44,0,0,0,6.169-.465A9.822,9.822,0,0,0,265.716,592.681Z" transform="matrix(-1, 0, 0, 1, 380, 0)" /><path class="cls-3" d="M270.765,589.839c-3.062-.646-5.411-.154-5.083.978.369,1.277,1.977,2.425,4.3,2.737,2.358.317,4.8.033,5.279-.977C275.848,591.351,273.287,590.371,270.765,589.839Z" transform="matrix(-1, 0, 0, 1, 380, 0)" /><path d="M270.771,589.809c.153-.284,1.048-.262,2.08-.057a7.182,7.182,0,0,1,3,1.233,1.778,1.778,0,0,1,.5.655,1.858,1.858,0,0,1,.141,1.05,2.492,2.492,0,0,1-.959,1.553,5.617,5.617,0,0,1-2.243.983,12.27,12.27,0,0,1-4.151.146,7.16,7.16,0,0,1-3.606-1.509,4.969,4.969,0,0,1-1.405-1.809,3.826,3.826,0,0,1-.215-.605,2.992,2.992,0,0,1-.1-.506,2.062,2.062,0,0,1,.017-.656,2.5,2.5,0,0,1,1.257-1.774,3.924,3.924,0,0,1,2.039-.451,6.99,6.99,0,0,1,1.489.216,7.55,7.55,0,0,1,2.261,1,18.253,18.253,0,0,1-2.418,1.7c-.733.436-1.186.746-1.323.651-.037-.025-.095-.049-.1-.078l-.031-.055-.112-.184a1.778,1.778,0,0,0-.172-.283c-.178-.2-.2-.272-.361-.36-.028-.044-.15-.068-.081-.055l.085,0a.4.4,0,0,0,.08-.014l.036-.011.016-.008.008,0,0,0c1.173-.339.325-.093.587-.169a.733.733,0,0,0-.034.129.813.813,0,0,0,.029.321,2.441,2.441,0,0,0,1.11,1.282,6.3,6.3,0,0,0,3.605.73,7.005,7.005,0,0,0,1.643-.278c.469-.13.891-.429.853-.485a.383.383,0,0,0,.07.051l.042.021.011,0,.006,0h0l-.094-.045.019.013a.443.443,0,0,0,.2.066c.011,0,.006.007.026.006a.349.349,0,0,0-.135.036,1.724,1.724,0,0,0-.2.1c.01.006-.008-.008-.025-.022a1.017,1.017,0,0,0-.128-.118,9.151,9.151,0,0,0-1-.645A19.45,19.45,0,0,1,270.771,589.809Z" transform="matrix(-1, 0, 0, 1, 380, 0)" /><path class="cls-4" d="M248.037,584.435c3.186,1.034,5.567,2.162,5.152,3.062a32.146,32.146,0,0,0-1.378,4.135s2.22,1.225,6.814.536c2.908-.437,5.292-2.468,6.975-4.066a15.814,15.814,0,0,0-6.957-7.964,31.513,31.513,0,0,0-3.873-1.815A17.572,17.572,0,0,0,248.037,584.435Z" transform="matrix(-1, 0, 0, 1, 380, 0)" /><path d="M248.011,584.418c-.136-.28.517-1.676,1.786-3.113a16.792,16.792,0,0,1,2.2-2.086c.4-.322.81-.624,1.21-.9l.31-.212.405-.254.791-.487.969.327.43.144.293.089a20.688,20.688,0,0,1,3.262,1.258,15.429,15.429,0,0,1,3.153,2.075,16.7,16.7,0,0,1,3.688,4.447l.331.633c.122.247.224.5.333.746q.32.758.637,1.51l-1.472,1.416-.674.62-.414.365a15.131,15.131,0,0,1-3.215,2.167,11.341,11.341,0,0,1-1.908.723,9.422,9.422,0,0,1-1.019.221c-.346.061-.618.08-.93.12a16.263,16.263,0,0,1-3.657-.011c-.152-.017-.3-.035-.456-.062s-.259-.037-.537-.094a11.985,11.985,0,0,1-1.446-.367,10.871,10.871,0,0,1-2.31-1.18c.339-1.139.665-2.232,1.043-3.265.14-.364.245-.6.377-.906l.194-.429.081-.1c.05-.076.162-.159.168-.268a.5.5,0,0,0-.105-.279,1.268,1.268,0,0,0-.258-.277c-.211-.155-.44-.305-.67-.449-.924-.581-1.872-1.083-2.739-1.563a10.251,10.251,0,0,1,3.617-.207,7.062,7.062,0,0,1,1.051.2,5.432,5.432,0,0,1,1.388.7,2.478,2.478,0,0,1,.917,1.2,2.505,2.505,0,0,1-.022,1.444q-.119.376-.232.733c-.028.128-.056.252-.083.372q-.083.348-.153.649c-.079.286-.042.185-.053.2a.207.207,0,0,0-.047.006.484.484,0,0,0-.2.118c-.112.119-.039.23.09.345-.019.042.356.14.644.2s.6.114.9.16a13.516,13.516,0,0,0,1.844.1c.308,0,.615-.025.921-.038a7.353,7.353,0,0,0,.839-.113,8.988,8.988,0,0,0,3.131-1.338,15.192,15.192,0,0,0,1.378-1.016l.482-.412.391-.363a4.318,4.318,0,0,0-.251-.6l-.15-.288c-.072-.147-.16-.287-.241-.429A13.341,13.341,0,0,0,262.932,585a14.625,14.625,0,0,0-2.623-2.56,16.424,16.424,0,0,0-2.932-1.765c-.507-.247-1.014-.477-1.517-.695l-1.012-.427c-.212.089-1.225.671-1.93,1.131-.805.54-1.939,1.25-2.9,1.992A25.566,25.566,0,0,0,248.011,584.418Z" transform="matrix(-1, 0, 0, 1, 380, 0)" /><path class="cls-5" d="M242.164,582.789c2.107.526,4.136,1.082,5.873,1.646a17.572,17.572,0,0,1,6.733-6.112c-6.939-2.727-17.1-4.209-21.144,3.362A34.956,34.956,0,0,1,242.164,582.789Z" transform="matrix(-1, 0, 0, 1, 380, 0)" /><path d="M242.16,582.8a23.442,23.442,0,0,1-3.208-.393,35.632,35.632,0,0,0-6.07-.3c.273-.565.675-1.177.93-1.652a6.262,6.262,0,0,1,.663-.963c.2-.247.376-.518.6-.749a10.165,10.165,0,0,1,1.487-1.288,11.307,11.307,0,0,1,3.643-1.709,19.85,19.85,0,0,1,7.851-.282,27.955,27.955,0,0,1,3.682.786c.3.084.6.161.891.261l1.288.428,3.218,1.206-2.044,1.109c-.336.184-.673.366-.969.557s-.668.41-.741.464a19.387,19.387,0,0,0-1.623,1.193,16.8,16.8,0,0,0-2.662,2.735c-.033.036-.133.177-.208.287l-.235.339c-.165.2-.263.565-.574.352l-.782-.245-.508-.169-1.674-.584c-1.082-.386-2.093-.761-3.02-1.122a27.982,27.982,0,0,1,4.9.339l.326.047.161.025c.062.011.109.017.1.009l.078-.049a.3.3,0,0,0,.007-.1l0-.017.079-.13.156-.252a7.808,7.808,0,0,1,1.181-1.472,20.4,20.4,0,0,1,2.624-2.06,8.115,8.115,0,0,1,1.708-.93c.035-.055-.152-.1-.234-.155-.11-.052-.228-.113-.359-.163l-.2-.081-.384-.139c-.264-.1-.532-.182-.8-.262a24.309,24.309,0,0,0-3.168-.789,19.571,19.571,0,0,0-6.022-.234,11.4,11.4,0,0,0-5,1.807,5.577,5.577,0,0,0-.974.766l-.455.4-.388.459-.344.407a1.3,1.3,0,0,0-.161.23,2.877,2.877,0,0,0-.253.438c.2,0,.387.011.584.028l1.09.105a20.943,20.943,0,0,1,3.432.7C240.905,582.319,241.852,582.681,242.16,582.8Z" transform="matrix(-1, 0, 0, 1, 380, 0)" /><path class="cls-5" d="M258.625,592.168c-4.594.689-6.814-.536-6.814-.536a43.243,43.243,0,0,0,1.378-4.135c.223-.966-1.966-2.028-5.152-3.062a15.092,15.092,0,0,0-1.739,3.981,19.041,19.041,0,0,0-.551,7.734c6.921.705,16.488.5,19.935-3.5.7-.814.662-2.552-.082-4.549C263.917,589.7,261.533,591.731,258.625,592.168Z" transform="matrix(-1, 0, 0, 1, 380, 0)" /><path d="M258.623,592.152a26.088,26.088,0,0,0,2.533-1.045,14.646,14.646,0,0,0,2.078-1.369c.361-.29.682-.553,1.074-.906.466-.421.942-.875,1.412-1.332.051-.021.074.079.1.155l.086.232.164.462c.106.309.207.621.289.946.092.357.128.586.169.83a6.816,6.816,0,0,1,.069.734,4.05,4.05,0,0,1-.18,1.407,2.349,2.349,0,0,1-.321.619c-.134.179-.252.282-.368.415a10.452,10.452,0,0,1-4.365,2.659,24.77,24.77,0,0,1-5.1,1.11,44.389,44.389,0,0,1-5.2.294c-.861,0-1.717-.022-2.565-.057l-1.264-.07-.626-.045-1.072-.092-.6-.061c-.069.015-.054-.057-.065-.1l-.021-.15-.041-.3c-.048-.373-.117-.859-.141-1.145q-.065-.649-.079-1.3a18.8,18.8,0,0,1,.109-2.582,19.246,19.246,0,0,1,1.194-4.937q.237-.588.517-1.15l.291-.554.227-.4.292-.486c.251-1.026,1.155-.292,1.817-.156.454.163.761.28,1.143.434a16.72,16.72,0,0,1,2.146,1.022,5.718,5.718,0,0,1,1.051.778,2.275,2.275,0,0,1,.52.736,1.7,1.7,0,0,1,.124.469,4.067,4.067,0,0,1-.038.481l-.1.354-.085.278-.179.534-.375,1.023-.388.978c-.087.2-.108.216-.174.351.021.079.155.112.248.163a.751.751,0,0,0,.1.038l.208.066.423.111a11.764,11.764,0,0,0,1.7.277,18.666,18.666,0,0,0,3.22.018,11.722,11.722,0,0,1-3.208.8,10.388,10.388,0,0,1-1.946.036l-.5-.053-.253-.039c-.117-.018-.25-.057-.376-.089a6.328,6.328,0,0,1-1.442-.565q.165-.508.326-1l.165-.513.088-.305q.153-.557.295-1.064l.447-1.676s.009,0,.017-.014a3.762,3.762,0,0,0-1.046-.819,15.082,15.082,0,0,0-1.43-.727l-.746-.324-.377-.152-.12-.061-.124-.061a.484.484,0,0,0-.081.09l-.082.109-.186.315a16,16,0,0,0-1.857,5.773,17.233,17.233,0,0,0-.149,2.929c.008.241.021.48.041.718l.045.475.014.111c.022.018.069.011.1.018l.219.022.6.058a50.75,50.75,0,0,0,5.5.174,27.522,27.522,0,0,0,9.674-1.7,9.5,9.5,0,0,0,1.911-1.055,4.773,4.773,0,0,0,.794-.666l.359-.355a1.292,1.292,0,0,0,.189-.325,3.709,3.709,0,0,0,.12-1.834,5.675,5.675,0,0,0-.112-.624c-.043-.137-.073-.382-.152-.442l-.053.045c-.115.1-.243.207-.395.321l-.344.263-.49.359a14.054,14.054,0,0,1-2.134,1.247A8.915,8.915,0,0,1,258.623,592.152Z" transform="matrix(-1, 0, 0, 1, 380, 0)" /><path class="cls-4" d="M234.469,583.018c-.73,2.435,1.493,3.216,5.628,4.25s5.857,1.148,6.661-.23.459-2.986-4.594-4.249S235.158,580.721,234.469,583.018Z" transform="matrix(-1, 0, 0, 1, 380, 0)" /><path d="M234.455,583.014a1.281,1.281,0,0,1,.232-.9,1.646,1.646,0,0,1,.706-.632,2.672,2.672,0,0,1,1.068-.22,26.926,26.926,0,0,1,3.867.549,23.068,23.068,0,0,1,4.862,1.114,5.047,5.047,0,0,1,2.425,1.734,2.483,2.483,0,0,1,.349,1.85,3.4,3.4,0,0,1-.741,1.52,2.843,2.843,0,0,1-1.306.843,4.483,4.483,0,0,1-1.311.184,11.575,11.575,0,0,1-2.221-.254,37.906,37.906,0,0,1-3.875-1.033,11.958,11.958,0,0,1-3.439-1.588,2.8,2.8,0,0,1-1.1-1.594,2.691,2.691,0,0,1,.228-1.647c-.037,2.5,3.162,2.3,4.133,2.847A23.408,23.408,0,0,0,244.3,587.6c.946.1,1.79-.076,2.153-.8a1.539,1.539,0,0,0,.231-1.059,1.693,1.693,0,0,0-.6-.876,6.846,6.846,0,0,0-2.131-1.053c-.757-.251-1.506-.424-2.254-.6-1.5-.339-2.885-.718-4.14-1.023a4.975,4.975,0,0,0-2.021-.2C234.885,582.146,234.571,582.852,234.455,583.014Z" transform="matrix(-1, 0, 0, 1, 380, 0)" /><path class="cls-2" d="M250.841,462.032V545.6a2.55,2.55,0,0,0,2.253,2.558l41,11.354a2.437,2.437,0,0,0,.957-.087l57.328-23.987a2.564,2.564,0,0,0,1.813-2.471V450.152a2.547,2.547,0,0,0-2.377-2.569L313.093,445a2.425,2.425,0,0,0-.705.064l-59.606,14.465A2.561,2.561,0,0,0,250.841,462.032Z" transform="matrix(-1, 0, 0, 1, 380, 0)" /><path d="M250.8,462.032a2.05,2.05,0,0,1,.124-1.244,2.73,2.73,0,0,1,1.868-1.628c1.814-.534,4.275-1.211,7.215-2,5.879-1.568,13.672-3.563,22.035-5.683l25.451-6.435,3.02-.767,1.478-.376c.326-.069.7-.079,1.041-.121a1.1,1.1,0,0,1,.262,0l.187.01.372.02,5.706.307,9.619.463,13.5.6,6.886.328,1.734.085.568.03a5.783,5.783,0,0,1,.71.086,4.5,4.5,0,0,1,3.224,2.548,4.6,4.6,0,0,1,.388,1.381,6.281,6.281,0,0,1,.043.728l.007.512c.123,9.34.248,18.852.374,28.414.083,9.563.166,19.175.249,28.713q.048,7.153.095,14.235.021,3.536.043,7.046.01,1.8.021,3.6a5.409,5.409,0,0,1-3.541,5.182l-8.885,3.777c-15.255,6.487-30.459,12.878-45.327,19.06l-2.955,1.228a5,5,0,0,1-2.91.27l-1.769-.486-5.756-1.617-11.377-3.216-22.117-6.324.434.082a5.243,5.243,0,0,1-4.6-4.8l-.016-.389v-.219l.009-.776.018-1.55q.037-3.093.074-6.144.087-6.1.17-12.023c.142-7.891.281-15.527.414-22.863.308-14.671.681-28.139,1.111-40.041,2.48,20.341,4.224,59.623,3.787,73.614-.071,2.351-.142,4.69-.212,6.982q-.026.859-.051,1.71l-.024.847-.012.414-.011,0c-.034.009-.022,0-.064.036s-.059.12-.043.038l.015-.074.4.122q13.766,4.216,26.981,8.148l13.081,3.868.264.08a.793.793,0,0,0,.186.047,1.113,1.113,0,0,0,.385-.031l1.313-.522,3.1-1.247,6.154-2.483q24.465-9.892,46.675-19.2a1.586,1.586,0,0,0,1.08-1.137,4.092,4.092,0,0,0,.048-.969v-1.323q0-2.642,0-5.258-.012-5.232-.023-10.358-.045-10.256-.087-20.1-.129-19.692-.246-37.808-.015-2.267-.029-4.509-.007-1.122-.014-2.237l0-.34a1.373,1.373,0,0,0-.034-.264,1.265,1.265,0,0,0-.228-.476,1.2,1.2,0,0,0-.909-.463l-2-.122-4.362-.268-16.992-1.079-8.228-.549-4.048-.278-2.007-.14-.5-.035-.237-.017a.523.523,0,0,0-.112,0,2.49,2.49,0,0,0-.636.113l-15.224,3.567c-7.715,1.821-18.306,4.059-27.63,5.967l-12.519,2.52c-1.744.361-3.329.623-4.55.928a2.508,2.508,0,0,0-1.26,1.075A2.7,2.7,0,0,0,250.8,462.032Z" transform="matrix(-1, 0, 0, 1, 380, 0)" /><polygon class="cls-4" points="332.263 447.481 347.324 448.381 294.577 464.74 279.683 462.682 332.263 447.481" transform="matrix(-1, 0, 0, 1, 380, 0)" /><path d="M332.267,447.5c-1,.617-20.662,6.287-28.185,8.65l-10.743,3.317-5.555,1.682-2.8.841-.581.176-.126.043-.224.079-.289.1.394.036.221.019.155.016.8.105,3.162.416,6.007.795,3.61-1.141c8.272-2.614,16.5-5.163,24.34-7.55l11.436-3.444,5.423-1.607,2.568-.754.752-.186,1.027-.267-.776-.1-.617-.072-.347-.039-.686-.06-3.155-.268-5.827-.521c1.629-.085,3.589-.139,5.708-.166l3.278-.02.94.006,1.307.03,2.852.081a3.173,3.173,0,0,1,1.127.668,1.823,1.823,0,0,0-.253.951l-7.044,2.319c-1.429.465-2.654.843-3.575,1.1q-11.588,3.232-22.038,6.344l-10.193,3.061-9.746,2.991-13.615-1.85-1.4-.593,1.237-.794,18.659-5.5c5.549-1.628,10.772-3.137,15.716-4.507C320.727,450.322,330.37,447.947,332.267,447.5Z" transform="matrix(-1, 0, 0, 1, 380, 0)" /><polygon class="cls-4" points="312.574 445.101 322.363 445.358 272.775 461.297 259.345 459.626 312.574 445.101" transform="matrix(-1, 0, 0, 1, 380, 0)" /><path d="M312.578,445.116c-.937.581-19.342,5.591-26.385,7.7l-11.867,3.477-6.14,1.756-3.087.875-.669.19-.113.038-.195.067-.234.084.341.024.15.01.066,0h.03l.295.035,2.753.326,5.159.611h0l12.5-4.052,12.241-3.884,11.508-3.567,5.376-1.633,2.358-.7.956-.249,1.431-.39-1.071-.1-.913-.072-.495-.038-.8-.046-3.209-.191c.951-.089,2.025-.17,3.182-.244,1.065-.075,2.7-.13,4.671-.169a7.618,7.618,0,0,1,2.032.374,2.054,2.054,0,0,0-.753.947l-8.49,3.009c-1.986.692-3.687,1.25-4.86,1.588q-9.719,2.8-18.567,5.5l-8.648,2.671-8.321,2.627-12-1.486-1.549-.575,1.392-.8,19.609-5.475c5.8-1.614,11.229-3.1,16.337-4.429C301.772,447.556,310.8,445.5,312.578,445.116Z" transform="matrix(-1, 0, 0, 1, 380, 0)" /><path class="cls-6" d="M256.459,464.94l33.272,6.327a1.759,1.759,0,0,1,1.478,1.753l.091,74.03a1.746,1.746,0,0,1-1.939,1.76l-32.885-10.092a1.757,1.757,0,0,1-1.522-1.747l-.477-70.265A1.744,1.744,0,0,1,256.459,464.94Z" transform="matrix(-1, 0, 0, 1, 380, 0)" /><path d="M256.456,464.955a2.27,2.27,0,0,0-.662.092,1.683,1.683,0,0,0-.957.777,3.284,3.284,0,0,0-.193,1.8c.016.724.033,1.532.053,2.409.053,3.515.123,8.158.2,13.138.136,9.961.291,21.263.377,27.562.1,5.555.207,11.31.314,17.177q.064,4.4.131,8.878a1.614,1.614,0,0,0,.032.4.95.95,0,0,0,.118.294.989.989,0,0,0,.462.4,3.647,3.647,0,0,0,.466.117l.537.161,1.075.323,4.311,1.294,17.243,5.205,8.512,2.578,1.054.32c.029.007-.008,0,.022,0a.8.8,0,0,0,.121-.008.708.708,0,0,0,.23-.072.809.809,0,0,0,.352-.35.781.781,0,0,0,.082-.241,1.847,1.847,0,0,0,.014-.373q-.011-2.183-.02-4.341c-.091-20.117-.082-40.022.015-58.175q.019-3.4.04-6.722.011-1.659.023-3.294l.006-.816,0-.407a1.289,1.289,0,0,0-.016-.255.988.988,0,0,0-.508-.7,9.375,9.375,0,0,0-1.339-.306l-1.562-.313-3.084-.62-6-1.214-21.5-4.45c5.847.691,14.365,1.952,22.407,3.247l5.894.969,2.788.474,1.338.231.653.114c.22.044.395.055.754.148a2.7,2.7,0,0,1,1.535,1.168,2.769,2.769,0,0,1,.354.876,3.82,3.82,0,0,1,.067.8c0,.791.011,1.544.015,2.252-.006,1.416-.012,2.652-.016,3.664q-.411,24.389-.475,45.919-.02,10.785-.037,20.9c-.006.439.013.8-.012,1.3a2.176,2.176,0,0,1-.66,1.343,2.082,2.082,0,0,1-1.382.579,1.435,1.435,0,0,1-.412-.037l-.318-.1-.6-.182-4.723-1.446-9.222-2.812L256.789,539.3c-.153-.043-.408-.131-.476-.137a2.2,2.2,0,0,1-.665-.228,2.255,2.255,0,0,1-.947-1,2.74,2.74,0,0,1-.228-1.273l-.011-1.094q-.024-2.183-.047-4.328-.045-4.293-.087-8.441c-.11-11.064-.191-21.376-.189-31.009-.015-4.577.05-10.825.128-16.318.044-2.745.085-5.3.118-7.37.01-.516.02-1,.029-1.453a1.829,1.829,0,0,1,.473-1.154A1.714,1.714,0,0,1,256.456,464.955Z" transform="matrix(-1, 0, 0, 1, 380, 0)" /><polygon class="cls-6" points="254.965 540.887 290.601 550.508 290.601 555.063 254.965 544.079 254.965 540.887" transform="matrix(-1, 0, 0, 1, 380, 0)" /><path d="M254.98,540.887a4.686,4.686,0,0,1,.122,1.013c.022.52.052,1.207.087,2.013l3.158.9,3.732,1.089c2.5.731,4.906,1.431,6.462,1.845,3.535.94,7.285,2,11.068,3.094l10.05,2.949-.012-.087c0-.443-.008-.876-.012-1.307l-.008-.951c0-.223,0-.165,0-.175l0-.008-4.355-1.156-4.983-1.36c-3.28-.906-6.466-1.808-9.5-2.69-6.066-1.762-11.521-3.44-15.893-4.891A94.438,94.438,0,0,1,270.263,544q5.508,1.782,10.622,3.3l5.012,1.465L291,550.2c-.006,1.833-.011,3.63-.016,5.379l-8.626-2.614-7.511-2.231c-4.805-1.427-9.21-2.752-13.239-4.078-1.008-.322-2.238-.75-3.438-1.184l-3.384-1.264q.07-1.359.115-2.212C254.938,541.471,254.965,541.1,254.98,540.887Z" transform="matrix(-1, 0, 0, 1, 380, 0)" /><polygon class="cls-7" points="290.868 473.111 254.772 507.905 254.949 527.793 291.222 493 290.868 473.111" transform="matrix(-1, 0, 0, 1, 380, 0)" /><path class="cls-7" d="M291.237,498.618l-36.3,35.124.012,3.5a.344.344,0,0,0,.58.256l35.7-34.242Z" transform="matrix(-1, 0, 0, 1, 380, 0)" /><path class="cls-7" d="M257.8,492.425l-3.024,2.915,0,4.852,3.918-3.828a2.925,2.925,0,0,0,.875-2.036l.021-1.087A1.062,1.062,0,0,0,257.8,492.425Z" transform="matrix(-1, 0, 0, 1, 380, 0)" /><ellipse class="cls-4" cx="272.118" cy="486.52" rx="12.049" ry="14.382" transform="matrix(-1, 0, 0, 1, 380, 0)" /><path d="M284.151,486.52c-.2-.311-.158-3.6-1.8-6.894a13.732,13.732,0,0,0-3.308-4.343,10.417,10.417,0,0,0-3.848-2.135,9.757,9.757,0,0,0-5.92.135,11.194,11.194,0,0,0-5,3.549,14.907,14.907,0,0,0-2.778,5.616,16.527,16.527,0,0,0-.31,6.152,14.275,14.275,0,0,0,4.7,8.963,9.693,9.693,0,0,0,8.989,2.026,11.968,11.968,0,0,0,6.778-5.537,16.984,16.984,0,0,0,2.233-7.532,13.491,13.491,0,0,1,.108,3.921,14.733,14.733,0,0,1-1.279,4.5,13.289,13.289,0,0,1-2.616,3.685,10.158,10.158,0,0,1-2.74,1.962,11.417,11.417,0,0,1-9.2.193,13.369,13.369,0,0,1-6.252-5.733,16.89,16.89,0,0,1-2.178-7.59,17.207,17.207,0,0,1,1.171-7.309,14.511,14.511,0,0,1,3.979-5.722,11.52,11.52,0,0,1,5.987-2.739,11.043,11.043,0,0,1,6.107,1.046,12.409,12.409,0,0,1,4.391,3.727,14.472,14.472,0,0,1,2.509,5.657A16.757,16.757,0,0,1,284.151,486.52Z" transform="matrix(-1, 0, 0, 1, 380, 0)" /><path class="cls-8" d="M264.692,494.494l4.832-5.86,3.347-2.742,9.873,4.135s-2.4,6.919-7.7,8.377S266.7,497.386,264.692,494.494Z" transform="matrix(-1, 0, 0, 1, 380, 0)" /><g class="cls-9" transform="matrix(-1, 0, 0, 1, 380, 0)"><path class="cls-10" d="M280.737,493.431c-.362-.162-.4-1.149-.4-2.269a14.76,14.76,0,0,0-.238-3.07c-.691-2.418-1.161-5.075-2.247-6.712a6.215,6.215,0,0,0-3.414-2.7,22.966,22.966,0,0,0-4.792-.862A5.159,5.159,0,0,1,271.7,474.9a3.324,3.324,0,0,1,2.669-.707,11.672,11.672,0,0,1,5.206,3.764,14.821,14.821,0,0,1,2.177,4.571,16.476,16.476,0,0,1,.621,7.851A8.6,8.6,0,0,1,280.737,493.431Z" /></g><path class="cls-6" d="M271.03,487.006l-6.338,7.488c2.008,2.892,5.062,5.366,10.354,3.91a9.612,9.612,0,0,0,4.309-2.657l-6.769-8.111Z" transform="matrix(-1, 0, 0, 1, 380, 0)" /><path class="cls-8" d="M269.112,483.976c2.359-4.244,6.9-.022,6.9,2.544s-1.742,4.646-3.892,4.646-3.893-2.08-3.893-4.646" transform="matrix(-1, 0, 0, 1, 380, 0)" /><path d="M268.24,486.52c.169.092.217.985.648,1.875a3.6,3.6,0,0,0,1.768,1.864,2.894,2.894,0,0,0,2.8-.3,4.14,4.14,0,0,0,1.524-3.7,3.586,3.586,0,0,0-.441-1.082,5.254,5.254,0,0,0-1.668-1.779,2.412,2.412,0,0,0-1.9-.419,3.72,3.72,0,0,0-1.607,1.142,2.7,2.7,0,0,1,1.149-2.411,2.745,2.745,0,0,1,2.637-.229,6.468,6.468,0,0,1,2.111,1.937,6.388,6.388,0,0,1,1.082,2.317,5.016,5.016,0,0,1-.163,2.371,5.79,5.79,0,0,1-.994,1.962,3.887,3.887,0,0,1-6.6-.479,3.9,3.9,0,0,1-.477-1.781A4.431,4.431,0,0,1,268.24,486.52Z" transform="matrix(-1, 0, 0, 1, 380, 0)" /><ellipse class="cls-4" cx="272.118" cy="519.924" rx="12.049" ry="14.382" transform="matrix(-1, 0, 0, 1, 380, 0)" /><path d="M284.151,519.924c-.2-.311-.158-3.6-1.8-6.894a13.72,13.72,0,0,0-3.308-4.343,10.417,10.417,0,0,0-3.848-2.135,9.749,9.749,0,0,0-5.92.135,11.191,11.191,0,0,0-5,3.548,14.918,14.918,0,0,0-2.778,5.617,16.527,16.527,0,0,0-.31,6.152,14.27,14.27,0,0,0,4.7,8.962,9.693,9.693,0,0,0,8.989,2.027,11.968,11.968,0,0,0,6.778-5.537,16.984,16.984,0,0,0,2.233-7.532,13.491,13.491,0,0,1,.108,3.921,14.74,14.74,0,0,1-1.279,4.5,13.289,13.289,0,0,1-2.616,3.685,10.151,10.151,0,0,1-2.74,1.961,11.421,11.421,0,0,1-9.2.194,13.369,13.369,0,0,1-6.252-5.733,16.89,16.89,0,0,1-2.178-7.59,17.2,17.2,0,0,1,1.171-7.309,14.5,14.5,0,0,1,3.979-5.722,11.529,11.529,0,0,1,5.987-2.74,11.043,11.043,0,0,1,6.107,1.047,12.417,12.417,0,0,1,4.391,3.726,14.476,14.476,0,0,1,2.509,5.658A16.757,16.757,0,0,1,284.151,519.924Z" transform="matrix(-1, 0, 0, 1, 380, 0)" /><path class="cls-8" d="M264.754,527.765l4.832-5.86,3.347-2.742,8.974-6.02a12.337,12.337,0,0,1,.837,10.2c-1.673,5.056-5.1,7.635-7.635,8.334C269.817,533.132,266.763,530.657,264.754,527.765Z" transform="matrix(-1, 0, 0, 1, 380, 0)" /><g class="cls-9" transform="matrix(-1, 0, 0, 1, 380, 0)"><path class="cls-10" d="M270.077,531.59c-.022-.4.827-.85,1.775-1.375a10.758,10.758,0,0,0,2.464-1.641c1.688-1.741,3.347-3.507,3.854-5.269a10.985,10.985,0,0,0,.206-4.773c-.116-.839-.3-1.68-.48-2.492-.094-.4-.187-.8-.278-1.194l-.136-.57-.065-.273-.028-.125c0-.023-.01-.044,0-.047.047-.061-.142.164.343-.4-.446.52-.248.289-.256.315a.161.161,0,0,1,.091-.036l.214-.026a3.669,3.669,0,0,1,.445,0,5,5,0,0,1,.9.139,5.74,5.74,0,0,1,1.639.695,3.147,3.147,0,0,1,1.636,2.008,20.464,20.464,0,0,1-.516,5.971,13.077,13.077,0,0,1-2.132,4.489,14.168,14.168,0,0,1-3.02,3.022,9.867,9.867,0,0,1-3.24,1.656A7.877,7.877,0,0,1,270.077,531.59Z" /></g><path class="cls-6" d="M272.4,519.924l-9.9-3.267c-.92,3.47-.376,13.068,8.378,15.377l2.01-10.47Z" transform="matrix(-1, 0, 0, 1, 380, 0)" /><path class="cls-8" d="M268.225,519.924c0-2.566,1.743-4.647,3.893-4.647s3.892,2.081,3.892,4.647-1.742,4.646-3.892,4.646a4.465,4.465,0,0,1-3.515-2.814" transform="matrix(-1, 0, 0, 1, 380, 0)" /><path d="M268.617,521.75c.186.03.6.885,1.435,1.531a4.231,4.231,0,0,0,1.356.748,1.786,1.786,0,0,0,1.142.006,3.651,3.651,0,0,0,2.233-2.217,4.762,4.762,0,0,0,.054-3.237,3.743,3.743,0,0,0-1.546-1.99,2.54,2.54,0,0,0-2.183-.208,3.658,3.658,0,0,0-1.766,1.467,5.817,5.817,0,0,0-.832,2.074,3.515,3.515,0,0,1-.34-2.752,3.4,3.4,0,0,1,1.536-2.137,4.422,4.422,0,0,1,3.175-.309,4.514,4.514,0,0,1,2.3,1.585,6.13,6.13,0,0,1,1.156,4.585,5.138,5.138,0,0,1-2.181,3.622,3.788,3.788,0,0,1-1.954.606,3.254,3.254,0,0,1-1.839-.61,3.924,3.924,0,0,1-1.307-1.464A4.128,4.128,0,0,1,268.617,521.75Z" transform="matrix(-1, 0, 0, 1, 380, 0)" /><path class="cls-11" d="M317.357,485.934l.025-19.46a1.664,1.664,0,0,0-2.118-1.63l-12.334,3.682a1.691,1.691,0,0,0-1.192,1.627v20.3a1.661,1.661,0,0,0,2.214,1.6l12.309-4.521A1.693,1.693,0,0,0,317.357,485.934Z" transform="matrix(-1, 0, 0, 1, 380, 0)" /><path class="cls-4" d="M312.419,485.412l.025-19.689-10.706,2.859v22.44l9.071-3.251A2.515,2.515,0,0,0,312.419,485.412Z" transform="matrix(-1, 0, 0, 1, 380, 0)" /><path d="M306.827,487.5c-.314-.171-.3-3.244-.482-4.428a60.605,60.605,0,0,1-.469-6.65,42.929,42.929,0,0,1,.681-9.96,7.194,7.194,0,0,1,1.263,4c-1.173,6.12-.2,10.767-.469,14.393A14.088,14.088,0,0,1,306.827,487.5Zm-.658-8.983h0" transform="matrix(-1, 0, 0, 1, 380, 0)" /><path d="M312.517,485.956c-.314-.171-.3-3.269-.482-4.463a61.347,61.347,0,0,1-.469-6.7,43.626,43.626,0,0,1,.681-10.041,7.285,7.285,0,0,1,1.262,4.032c-1.172,6.17-.2,10.856-.469,14.511A14.222,14.222,0,0,1,312.517,485.956Zm-.659-9.055h0" transform="matrix(-1, 0, 0, 1, 380, 0)" /><path d="M301.723,488.255c-.314-.43-.3-8.186-.482-11.175-.079-1.319-.144-2.686-.2-4.08q-.036-1.048-.072-2.109l-.015-.531a2.84,2.84,0,0,1,.049-.7,2.614,2.614,0,0,1,.727-1.34,2.578,2.578,0,0,1,.638-.459,2.682,2.682,0,0,1,.368-.151l.261-.085,1.02-.327,2.036-.647,3.994-1.256,3.41-1.051.848-.255a6.246,6.246,0,0,1,1.028-.257,2.721,2.721,0,0,1,2.428,1.027,2.773,2.773,0,0,1,.548,1.211,3.11,3.11,0,0,1,.05.617l0,.43q-.014.857-.027,1.7-.039,1.685-.077,3.306c-.126,4.312-.336,8.207-.614,11.32a40.272,40.272,0,0,1-1.247-10.1q.225-2.895.355-5.62l.032-.678c.01-.222.023-.475.018-.6a1.237,1.237,0,0,0-.389-.818,1.212,1.212,0,0,0-.845-.333,7.508,7.508,0,0,0-1.146.271c-3.294.9-6.36,1.821-9.229,2.71l-2.1.659a1.336,1.336,0,0,0-.88,1.228q.032,2.1.061,4.055c.035,2.628.045,5.077-.022,7.365C302.213,483.755,301.816,487.516,301.723,488.255Z" transform="matrix(-1, 0, 0, 1, 380, 0)" /><g class="cls-12" transform="matrix(-1, 0, 0, 1, 380, 0)"><path class="cls-10" d="M352.914,448.065c-.612.869-15.283,5.8-20.818,8.049-9.771,3.972-21.156,7.976-31.437,11.611l-5.925,2.062-6.75-1.173-6.113-1.12c-4.02-.755-7.916-1.526-11.626-2.3-7.419-1.545-14.089-3.1-19.5-4.54,5.769-.67,16.559.036,20.281.982q6.324,1.608,12.252,2.907l5.826,1.243,5.409,1.085,3.208-1.032,3.327-1.1,6.4-2.177,11.886-4.19c7.54-2.688,14.346-5.122,20.624-7.04C344.092,450.01,351.458,448.359,352.914,448.065Z" /></g><path d="M294.907,465.661c.628.742.6,14.12.963,19.274.636,9.1.785,19.53.939,28.955a402.967,402.967,0,0,1-1.363,43.359c-1.653-4.812-2.816-14.1-2.524-17.414,2.345-26.643.4-46.876.938-62.662C293.927,473.423,294.72,466.935,294.907,465.661Zm1.316,39.105h0" transform="matrix(-1, 0, 0, 1, 380, 0)" /><g class="cls-9" transform="matrix(-1, 0, 0, 1, 380, 0)"><path class="cls-10" d="M274.109,507.747c.044.384-.6.807-1.348,1.226a9.027,9.027,0,0,0-1.939,1.345c-1.312,1.481-2.77,2.71-3.393,4.022a20.122,20.122,0,0,0-1.381,3.651,23.692,23.692,0,0,1-1.448,3.916,6.309,6.309,0,0,1-2.449-1.927,2.175,2.175,0,0,1-.593-1.9c.808-1.548,1.484-2.951,2.233-4.165a18.429,18.429,0,0,1,2.389-3.11,11.083,11.083,0,0,1,5.156-3.361A5.921,5.921,0,0,1,274.109,507.747Z" /></g><g class="cls-9" transform="matrix(-1, 0, 0, 1, 380, 0)"><path class="cls-10" d="M263.8,482.918c.735.208.531,2.849,1.041,3.814a36.2,36.2,0,0,0,2.067,4.586,10.321,10.321,0,0,0,2.2,2.218c.907.675,2.058,1.271,3.06,1.986a4.907,4.907,0,0,1-2.14,2.186,2.089,2.089,0,0,1-2.06.156,15.65,15.65,0,0,1-3.151-3.61,17.617,17.617,0,0,1-1.579-3.366,11.309,11.309,0,0,1-.814-5.7A5.6,5.6,0,0,1,263.8,482.918Z" /></g><path class="cls-6" d="M375.288,547.794l.49-68.2s-29.465,1.827-52.663,7.351a316.153,316.153,0,0,0-42.913,14.1v76.108s26.813-12.569,46.3-19.065c20.706-6.9,43.615-9.137,48.023-9.518" transform="matrix(-1, 0, 0, 1, 380, 0)" /><path d="M374.531,548.618c-1.329.584-14.44,1.966-29.244,5.366-3.7.831-7.492,1.829-11.233,2.9s-7.391,2.324-10.868,3.587c-6.937,2.57-13.124,5.179-17.507,7.133-3.924,1.753-7.909,3.568-11.993,5.469l-15.567,7.359c-.17-14.207-.346-28.967-.522-43.722-.053-6.828-.107-13.654-.16-20.415q-.035-5.071-.068-10.084-.01-3.384-.022-6.741v-.3c.031-.081.169-.09.248-.138l.556-.235,1.108-.465,2-.826,2.313-.932a273.806,273.806,0,0,1,43.977-13.656,341,341,0,0,1,43.326-5.6l3.6-.237,2.386-.145,1.183-.068.295-.017a1.689,1.689,0,0,1,.007.288l0,.6q-.029,2.38-.057,4.745-.03,1.367-.058,2.722-.123,5.072-.241,10c-.187,6.567-.368,12.93-.543,19.053-.388,12.245-.827,23.525-1.309,33.547-2.351-17.955-3.845-52.735-3.32-64.976a.37.37,0,0,0,.11-.194.208.208,0,0,0-.076-.051l-.06-.023-.036-.011-.021,0a.113.113,0,0,0-.019,0l-.1,0c-2.161.095-4.313.218-6.452.351q-6.42.407-12.689,1.018c-8.355.814-16.5,1.892-24.382,3.373q-5.906,1.114-11.608,2.579c-3.807.957-7.545,2.027-11.223,3.147-7.357,2.243-14.466,4.736-21.325,7.387l-2.448.963-.842.34-.2.08-.1.041v.1l0,.421q0,2.513,0,5,.006,5.411.013,10.7.045,10.573.088,20.658.151,18.91.288,36.065l1.746-.833,2.958-1.366,6.762-3.041q6.708-2.969,13.207-5.644a229.6,229.6,0,0,1,25.478-9.045,171.5,171.5,0,0,1,24.636-4.749C364.9,549.041,372.152,548.675,374.531,548.618Z" transform="matrix(-1, 0, 0, 1, 380, 0)" /><path class="cls-4" d="M285.408,565.2a1.718,1.718,0,0,0,2.4,1.579c6.652-2.86,25.818-10.938,40.5-15.528,18.1-5.66,38.021-7.708,43.64-8.2a1.713,1.713,0,0,0,1.563-1.7l.119-15.526a1.725,1.725,0,0,0-2.282-1.642,732,732,0,0,0-84.993,35.7,1.706,1.706,0,0,0-.943,1.534Z" transform="matrix(-1, 0, 0, 1, 380, 0)" /><path class="cls-4" d="M285.408,537.005v3.6a1.522,1.522,0,0,0,2.259,1.353c19.115-10.757,50.638-27.069,85.106-39.518l.016-2.076a781.4,781.4,0,0,0-86.521,35.255A1.535,1.535,0,0,0,285.408,537.005Z" transform="matrix(-1, 0, 0, 1, 380, 0)" /><path class="cls-4" d="M324.688,492.289c-15.43,3.488-30.607,9.915-36.6,12.6a4.569,4.569,0,0,0-2.679,4.178v18.335a.877.877,0,0,0,1.253.805,782.249,782.249,0,0,1,85.586-34.884.888.888,0,0,0,.6-.836l.037-4.866a.881.881,0,0,0-.908-.9C367.092,486.915,343.612,488.01,324.688,492.289Zm-28.535,23.987h0a3.353,3.353,0,0,1,1.864-3.008c8.012-3.935,25.29-8.569,25.29-6.039,0,1.78-17.593,9.093-22.195,11.164C299.442,519.144,296.573,519.25,296.153,516.276Z" transform="matrix(-1, 0, 0, 1, 380, 0)" /><path class="cls-4" d="M285.408,553.821a1.217,1.217,0,0,0,1.808,1.067c19.28-10.742,38.5-22.581,73.634-35.128h0c-35.839,12.139-55.633,19.568-74.772,29.064a1.211,1.211,0,0,0-.67,1.091Z" transform="matrix(-1, 0, 0, 1, 380, 0)" /><path d="M310.4,540.12c.173-.4,5.471-2.453,7.45-3.415,3.537-1.586,7.705-3.116,11.493-4.474a69.178,69.178,0,0,1,18.189-3.286,25.2,25.2,0,0,1-7.038,2.516,53.335,53.335,0,0,0-14.535,3.37l-10.819,4.006A45.815,45.815,0,0,1,310.4,540.12Z" transform="matrix(-1, 0, 0, 1, 380, 0)" /><path class="cls-5" d="M304.22,532.706v33.243s1.981-.929,4.9-2.217l-.158-32.9C306.083,531.937,304.22,532.706,304.22,532.706Z" transform="matrix(-1, 0, 0, 1, 380, 0)" /><path d="M304.214,532.692a11.51,11.51,0,0,1,1.954-.971l2.04-.873.691-.288c.11-.035.26-.129.34-.118l.008.381c.01.513.02,1.041.03,1.578.075,3.415.136,7.291.236,9.447.177,3.806.3,7.891.383,12.009.037,2.061.075,4.129.113,6.173q.022,1.536.046,3.049l.007.733,0,.367c-.009.055.023.136-.02.17l-.166.075-1.152.53-1.344.624-3.329,1.528-.584.266-.147.067c-.046.019-.114.071-.094-.014v-.319l0-1.277,0-1.994q0-2.561,0-5.073c.014-3.346.053-6.607.112-9.718.119-6.222.322-11.844.6-16.338a82.681,82.681,0,0,1,1.262,14.57c-.293,5.573-.452,10.811-.53,15.739q-.013.829-.026,1.644l-.01.538c.007.034-.018.117.015.11l.119-.052.241-.1,2.91-1.3.66-.3c.233-.027.143-.261.159-.425q0-.839-.011-1.663-.016-1.678-.033-3.3c-.1-8.67-.317-16.2-.214-22.807,0-.785.031-1.713.069-2.68l.016-.364.016-.232.036-.49.019-.266c-.047-.012-.133.031-.2.045l-.459.136Z" transform="matrix(-1, 0, 0, 1, 380, 0)" /><path class="cls-13" d="M322.9,525.893c-5.141,1.624-10.333,3.545-13.934,4.934l.158,32.9c4.172-1.841,10.262-4.418,15.251-6.081,10.022-3.341,25.9-6.99,25.9-6.99l.216-29.992S335.418,521.939,322.9,525.893Z" transform="matrix(-1, 0, 0, 1, 380, 0)" /><path d="M322.892,525.879a74.441,74.441,0,0,1,12.559-3.374c3.265-.651,6.772-1.228,9.99-1.666l2.351-.308,2.47-.28.374-.037.187-.019c.067-.011.135-.023.111.064l0,.72c0,.417,0,.822,0,1.212.007.621.014,1.2.019,1.722.041,4.237.082,8.643.125,13.13.01,4.713.02,9.51.031,14.295l-3.167.762-2.5.625L340.481,554c-3.287.864-6.524,1.749-9.666,2.673-2.394.708-4.773,1.448-7.1,2.249s-4.626,1.709-6.9,2.627l-3.383,1.4-4.144,1.783-.822.359-.206.09-.1.045c-.031.01-.009-.062-.016-.089v-.45l-.006-1.792q0-1.071,0-2.136V557.2c.019-4.719.037-9.312.054-13.727.045-4.565.087-8.944.128-13.085l2.306-.839,1.857-.652,3.6-1.214c2.352-.77,4.6-1.457,6.726-2.058l-6.3,2.7-3.611,1.554-1.845.8-.923.4-.231.1-.088.046-.151.081a3.458,3.458,0,0,1,.046.554c.015.344.03.687.045,1.026q.04,1.023.081,2.011c.042,1.32.083,2.583.12,3.757.061,2.354.081,4.357.05,5.729q-.2,8.96-.288,17.332l-.013.719c.008.127-.036.338.014.41l1.144-.467,3.783-1.551c2.509-1.006,4.987-1.965,7.452-2.834,4.943-1.721,9.8-3.045,14.48-4.311l6.915-1.793,6.358-1.564c.012-7.3.023-14.156.034-20.6q.01-2.456.02-4.834.008-1.191.014-2.361l.007-.938,0-.257c.017-.061-.028-.055-.074-.046l-.127.011-1.9.2-2.228.261c-1.474.179-2.922.374-4.346.576-3.01.442-7.117,1.073-10.7,1.783C326.951,524.8,323.9,525.625,322.892,525.879Z" transform="matrix(-1, 0, 0, 1, 380, 0)" /><path d="M312.034,535.124a8.113,8.113,0,0,1,2.793-1.574c1.5-.651,3.234-1.3,4.181-1.709a75.126,75.126,0,0,1,10.986-3.719,65.459,65.459,0,0,1,17.195-2.317,23.273,23.273,0,0,1-6.687,2.172,59.2,59.2,0,0,0-13.814,2.422c-3.938,1.171-7.281,2.475-10.26,3.414C315.021,534.281,312.5,534.89,312.034,535.124Z" transform="matrix(-1, 0, 0, 1, 380, 0)" /><path d="M312.169,540.513a8.107,8.107,0,0,1,2.793-1.575c1.5-.65,3.234-1.3,4.181-1.708a75.126,75.126,0,0,1,10.986-3.719,65.417,65.417,0,0,1,17.195-2.317,23.283,23.283,0,0,1-6.687,2.172,59.216,59.216,0,0,0-13.815,2.422c-3.937,1.171-7.28,2.475-10.259,3.414C315.156,539.67,312.639,540.279,312.169,540.513Z" transform="matrix(-1, 0, 0, 1, 380, 0)" /><path d="M312.484,546.146c.172-.382,4.948-1.829,6.736-2.56,3.155-1.292,6.858-2.491,10.2-3.575a89.835,89.835,0,0,1,15.759-3.834,19.353,19.353,0,0,1-5.93,2.945c-9.86,1.67-16.8,4.816-22.51,6.27A35.967,35.967,0,0,1,312.484,546.146Z" transform="matrix(-1, 0, 0, 1, 380, 0)" /><path d="M313.125,550.745c-.075-.308.756-.622,1.007-.915a5.474,5.474,0,0,1,1.616-1.141,4,4,0,0,1,2.928-.422c0,.89-.363,1.657-.619,1.6-2.065-.447-2.956.949-4.024,1.082A2.054,2.054,0,0,1,313.125,550.745Z" transform="matrix(-1, 0, 0, 1, 380, 0)" /><path d="M322.289,546.932c-.015-.325,1.65-.842,2.23-1.216a19.676,19.676,0,0,1,3.446-1.589,14.142,14.142,0,0,1,5.6-1.068c-.349.978-1.318,1.9-1.772,1.889-3.662-.065-5.863,1.655-7.9,2.023A5.3,5.3,0,0,1,322.289,546.932Z" transform="matrix(-1, 0, 0, 1, 380, 0)" /><path d="M336.121,542.585c-.038-.313.64-.453.858-.687a3.527,3.527,0,0,1,1.36-.787,2.6,2.6,0,0,1,2.336.171c-.076.865-.419,1.538-.614,1.433-1.583-.845-2.39.333-3.238.249A1.679,1.679,0,0,1,336.121,542.585Z" transform="matrix(-1, 0, 0, 1, 380, 0)" /><path class="cls-14" d="M350.463,524.384l.027-3.715s-15.072,1.27-27.593,5.224c-5.141,1.624-10.333,3.545-13.934,4.934-2.88,1.11-4.743,1.879-4.743,1.879v5.1a109.576,109.576,0,0,1,20.551-8.458C333,526.766,343.728,525.191,350.463,524.384Z" transform="matrix(-1, 0, 0, 1, 380, 0)" /><path d="M350.465,524.4c-.4.21-4.424.75-9.04,1.559a124.109,124.109,0,0,0-12.64,2.769c-2.5.715-5.045,1.6-7.64,2.532s-5.2,1.94-7.771,3.069q-1.928.843-3.821,1.769l-1.882.943q-1.067.55-2.127,1.1l-1.789.931-.449.233,0-.5,0-1q-.007-1.442-.015-2.873-.007-1.287-.015-2.561v-.314l.058-.024.116-.046.464-.186.756-.3.949-.384c4.4-1.812,8.833-3.451,13.21-4.93a100.354,100.354,0,0,1,12.979-3.525c4.219-.855,8.268-1.442,12.031-1.861q2.823-.315,5.423-.491l.9-.064.451-.03.222-.014c.033,0,.08-.012.1,0l0,.115c-.019.568-.038,1.13-.056,1.683q-.062,1.227-.117,2.386c-.1-.692-.192-1.464-.281-2.294q-.065-.557-.13-1.138c-.015-.031.01-.1-.037-.1l-.152.03-.289.06-.546.119-5.619,1.117c-3.755.751-7.272,1.506-9.139,1.8a97.411,97.411,0,0,0-10.821,2.316c-3.452.967-6.764,2.072-9.952,3.191q-2.391.845-4.689,1.716l-4.35,1.7c-.043.032-.145.023-.139.088v1.827q0,.981,0,1.945v.351c-.025.1.078-.009.115-.012l.156-.082.617-.321,2.01-1.026a110.043,110.043,0,0,1,15.542-6.34,92.851,92.851,0,0,1,14.238-3.494C341.543,525.053,349,524.456,350.465,524.4Z" transform="matrix(-1, 0, 0, 1, 380, 0)" /><path class="cls-15" d="M314.867,495.847v45.945a233.8,233.8,0,0,1,27.58-8.008c10.341-2.162,21.23-4.169,21.23-4.169l.216-42.695s-11.39.6-22.921,2.4A134.108,134.108,0,0,0,314.867,495.847Z" transform="matrix(-1, 0, 0, 1, 380, 0)" /><path d="M314.861,495.833c.64-.458,7.516-2.98,15.754-4.849,4.111-.954,8.545-1.777,12.616-2.391s7.772-1.052,10.419-1.355q3.108-.361,6.318-.649l1.61-.139,1.89-.142.658-.043.335-.021c.024,0,.063-.011.076,0v.248l0,1.34.01,1.7c.019,4.379.037,8.837.056,13.319,0,9.226,0,18.553,0,27.536l-7.46,1.491-10.983,2.188c-3.659.69-7.222,1.482-10.739,2.4s-6.969,1.908-10.35,2.945c-1.692.516-3.363,1.051-5.015,1.589l-2.461.818-3.657,1.284c.035-4.87.069-9.614.1-14.207.049-4.167.1-8.2.141-12.061.107-7.727.238-14.792.391-20.988.827,9.931,1.408,29.109,1.262,35.939-.035,1.72-.07,3.427-.1,5.1q-.024,1.256-.047,2.486-.01.526-.023,1.045l-.021.266.187-.051.128-.038.27-.086,1.622-.53,3.225-1.021q3.214-.995,6.38-1.9c4.223-1.2,8.384-2.287,12.492-3.2,4.117-.887,8.154-1.58,12.1-2.365L363.3,529.3c.022-13.316.043-25.595.062-36.951q0-2.147,0-4.251l0-.553v-.061l-.062,0-.123.008-.264.018-1.958.14q-4.1.312-8.029.717c-5.236.538-10.241,1.18-15.011,1.981-3.8.653-8.98,1.635-13.48,2.754C319.926,494.2,316.1,495.393,314.861,495.833Z" transform="matrix(-1, 0, 0, 1, 380, 0)" /><path class="cls-14" d="M363.823,491.6c-17.828-.5-48.879,8.8-48.879,8.8v-4.808a213.517,213.517,0,0,1,23.727-5.747c11.975-2.076,25.222-2.922,25.222-2.922Z" transform="matrix(-1, 0, 0, 1, 380, 0)" /><path d="M363.808,491.6a23.236,23.236,0,0,1-.136-3.1c-.005-.366-.01-.76-.015-1.179l0-.139a.47.47,0,0,0-.138.005l-.3.028-.664.061-3.456.329c-4.837.472-10.31,1.15-13.334,1.658-5.344.868-11.023,1.983-16.7,3.4-2.837.7-5.675,1.447-8.467,2.239q-2.1.59-4.148,1.216l-.511.156a.3.3,0,0,0-.045.018c-.012,0-.011.012-.008.022l0,.015v.11q.007,1.065.015,2.119l0,.467c0,.1,0,.034,0,.058l0,.019s.032-.013.066-.024l.4-.118,1.714-.488,3.421-.932c2.274-.606,4.54-1.17,6.78-1.705,4.483-1.062,8.88-1.971,13.1-2.708,8.429-1.477,16.2-2.19,22.432-1.808-2.9.365-7.044.914-10.946,1.608-3.9.718-7.559,1.419-9.5,1.713-5.189.737-10.146,1.686-14.867,2.732q-3.54.79-6.906,1.643l-3.322.866-1.627.446-2.111.605q0-1.961.008-3.879v-1.723a.926.926,0,0,1,.254-.095l1.767-.532c2.08-.613,4.121-1.182,6.124-1.721q6.007-1.615,11.57-2.8a173.679,173.679,0,0,1,20.558-2.989c2.231-.209,5.276-.379,7.97-.459l1.207-.041c.137-.046.1.089.1.187l-.015.294c-.01.189-.02.376-.029.56-.039.62-.075,1.2-.107,1.716C363.887,490.448,363.834,491.215,363.808,491.6Z" transform="matrix(-1, 0, 0, 1, 380, 0)" /><path class="cls-8" d="M363.823,491.6c-18.52.212-39.052,6.077-39.052,6.077V530.11s21.294-7.428,38.627-8.171Z" transform="matrix(-1, 0, 0, 1, 380, 0)" /><path d="M363.838,491.6c.149.577.148,6.05.118,12.378-.017,3.164-.035,6.541-.052,9.628,0,3.173,0,6.046-.006,8.108v.673c-.013.062-.13.027-.19.046l-.9.071-1.292.109c-.791.063-1.587.132-2.386.243l-2.413.3-2.43.375c-3.25.541-6.548,1.172-9.837,1.948s-6.58,1.615-9.826,2.54q-2.433.7-4.829,1.44l-2.378.757-1.3.429-2.293.787c-.009-2.157-.017-4.164-.025-6.149-.009-6.39-.018-12.743-.027-18.942q.007-2.325.015-4.618.006-1.147.011-2.284l.007-1.264.006-1.1c.008-.04-.017-.105.018-.124l.134-.037.266-.074.53-.147,2.429-.626,2.172-.522q2.165-.5,4.291-.944a138.957,138.957,0,0,1,30.163-3.281c-3.739.455-9.152,1.161-14.227,2.086-5.08.894-9.831,1.9-12.348,2.338-2.032.357-4.038.729-6.009,1.145l-2.935.636-2.7.639c-.071.02-.189.009-.161.113l-.014.4-.026,1.466q-.026,1.463-.049,2.905-.039,2.889-.079,5.7-.048,5.632-.094,10.971-.012,5.068-.023,9.869l1.3-.432,1.791-.574,3.545-1.077c2.347-.687,4.655-1.336,6.933-1.918,4.551-1.175,8.963-2.152,13.244-2.882,1.068-.2,2.132-.35,3.187-.5s2.1-.293,3.137-.4,2.064-.227,3.087-.282l1.263-.085.167-.012c.079.019.023-.091.041-.13l0-.394q.078-5.975.209-11.461C363.179,503.623,363.717,493.571,363.838,491.6Z" transform="matrix(-1, 0, 0, 1, 380, 0)" /><path class="cls-8" d="M292.585,513l-2.208.9a1.745,1.745,0,0,1-2.591-1.836l.123-2.98a5.01,5.01,0,0,1,2.835-4.062l2.208-.906a1.745,1.745,0,0,1,2.59,1.837l-.123,2.98A5.013,5.013,0,0,1,292.585,513Z" transform="matrix(-1, 0, 0, 1, 380, 0)" /><path d="M292.579,512.984a10.308,10.308,0,0,0,1.67-1.766,4.748,4.748,0,0,0,.692-1.682A7.142,7.142,0,0,0,294.96,508c-.037-.733-.075-1.463-.112-2.2-.054-.614-.346-.981-.7-1.029a1.329,1.329,0,0,0-.674.076l-.192.079-.265.119-.532.237a13.174,13.174,0,0,0-1.876.907,4.537,4.537,0,0,0-1.661,2.537,2.662,2.662,0,0,0-.052.341l-.03.447q-.032.466-.062.927-.072.892-.14,1.76c-.039.86.3,1.275,1.127,1.211a13.217,13.217,0,0,0,1.358-.347c.462-.125.9-.238,1.324-.336a8.572,8.572,0,0,1-1.041,1.039,5.448,5.448,0,0,1-1.447.987,2.322,2.322,0,0,1-2.141-.231,2.2,2.2,0,0,1-.923-1.4,3.751,3.751,0,0,1-.012-1.061q.063-.395.123-.776c.073-.519.144-1.018.212-1.5.031-.25.061-.5.091-.737a4.611,4.611,0,0,1,.173-.816,5.8,5.8,0,0,1,.66-1.411,5.737,5.737,0,0,1,2.1-2l2.37-1.012a3.2,3.2,0,0,1,1.342-.319,2.018,2.018,0,0,1,1.365.548,3.058,3.058,0,0,1,.7,2.446c-.02.72-.04,1.411-.059,2.08a5.638,5.638,0,0,1-.114,1.069,4.689,4.689,0,0,1-.361,1,4.594,4.594,0,0,1-1.485,1.713A3.757,3.757,0,0,1,292.579,512.984Z" transform="matrix(-1, 0, 0, 1, 380, 0)" /><path class="cls-8" d="M292.546,527.268l-2.208.906a1.745,1.745,0,0,1-2.591-1.836l.123-2.98a5.012,5.012,0,0,1,2.835-4.062l2.208-.906a1.745,1.745,0,0,1,2.59,1.837l-.123,2.979A5.009,5.009,0,0,1,292.546,527.268Z" transform="matrix(-1, 0, 0, 1, 380, 0)" /><path d="M292.54,527.254a10.2,10.2,0,0,0,1.67-1.765,4.748,4.748,0,0,0,.692-1.682,7.142,7.142,0,0,0,.019-1.532c-.037-.733-.074-1.463-.112-2.2-.054-.615-.346-.981-.7-1.029a1.33,1.33,0,0,0-.674.076l-.191.079-.266.119-.532.237a13.119,13.119,0,0,0-1.876.907A4.533,4.533,0,0,0,288.913,523a2.468,2.468,0,0,0-.051.341l-.031.447q-.032.466-.062.927-.072.893-.14,1.759c-.039.86.3,1.276,1.127,1.212a13.481,13.481,0,0,0,1.358-.347q.693-.189,1.324-.336a8.572,8.572,0,0,1-1.041,1.039,5.448,5.448,0,0,1-1.447.987,2.322,2.322,0,0,1-2.141-.231,2.2,2.2,0,0,1-.923-1.4,3.751,3.751,0,0,1-.012-1.061c.042-.264.083-.522.123-.776.073-.519.144-1.019.212-1.5.031-.25.061-.5.091-.738a4.619,4.619,0,0,1,.173-.815,6.028,6.028,0,0,1,2.765-3.413l2.37-1.012a3.2,3.2,0,0,1,1.342-.319,2.013,2.013,0,0,1,1.365.548,3.058,3.058,0,0,1,.7,2.446c-.02.72-.04,1.411-.059,2.08a5.638,5.638,0,0,1-.114,1.069,4.735,4.735,0,0,1-.361,1,4.588,4.588,0,0,1-1.485,1.714A3.749,3.749,0,0,1,292.54,527.254Z" transform="matrix(-1, 0, 0, 1, 380, 0)" /><path class="cls-8" d="M292.507,541.539l-2.208.906a1.745,1.745,0,0,1-2.591-1.836l.124-2.98a5.009,5.009,0,0,1,2.834-4.062l2.208-.906a1.744,1.744,0,0,1,2.59,1.836l-.123,2.98A5.009,5.009,0,0,1,292.507,541.539Z" transform="matrix(-1, 0, 0, 1, 380, 0)" /><path d="M292.5,541.525a10.242,10.242,0,0,0,1.67-1.765,4.748,4.748,0,0,0,.692-1.682,7.142,7.142,0,0,0,.019-1.532c-.037-.733-.074-1.464-.112-2.2-.054-.615-.346-.981-.7-1.029a1.33,1.33,0,0,0-.674.076l-.192.078-.265.12-.532.237a13.013,13.013,0,0,0-1.876.907,4.533,4.533,0,0,0-1.661,2.537,2.468,2.468,0,0,0-.051.341l-.031.447q-.031.466-.062.927-.072.892-.14,1.759c-.038.86.3,1.276,1.127,1.211a13.457,13.457,0,0,0,1.358-.346q.693-.189,1.324-.336a8.632,8.632,0,0,1-1.04,1.039,5.472,5.472,0,0,1-1.448.987,2.322,2.322,0,0,1-2.141-.231,2.2,2.2,0,0,1-.923-1.4,3.751,3.751,0,0,1-.012-1.061c.042-.264.083-.522.123-.777.073-.518.144-1.018.212-1.5.031-.25.061-.5.091-.738a4.71,4.71,0,0,1,.173-.815,6.028,6.028,0,0,1,2.765-3.413l2.371-1.013a3.206,3.206,0,0,1,1.341-.318,2.013,2.013,0,0,1,1.365.548,3.057,3.057,0,0,1,.7,2.446c-.02.72-.04,1.411-.058,2.08a5.726,5.726,0,0,1-.115,1.069,4.68,4.68,0,0,1-.361,1,4.6,4.6,0,0,1-1.485,1.714A3.749,3.749,0,0,1,292.5,541.525Z" transform="matrix(-1, 0, 0, 1, 380, 0)" /><path class="cls-10" d="M333.742,516.228a4.724,4.724,0,0,1-.213-.826c-.627-3.8,3.482-7.647,9.178-8.585S353.528,508.2,354.154,512s-3.483,7.647-9.178,8.585a12.71,12.71,0,0,1-8.557-1.3c-2.006-1.224-3.726-3.88-2.156-6.188-.578,0-1.267-.073-1.543-.581a1.609,1.609,0,0,1,.092-1.317,4.612,4.612,0,0,1,1.625-2.392,3.369,3.369,0,0,1,2.679-.262,9.976,9.976,0,0,1,2.477,1.224" transform="matrix(-1, 0, 0, 1, 380, 0)" /><path d="M339.585,509.782a5.451,5.451,0,0,1-1-.437,6.429,6.429,0,0,0-2.139-.683,2.635,2.635,0,0,0-2.476.993,5.526,5.526,0,0,0-.726,1.389c-.2.524-.372,1.006-.192,1.285a.543.543,0,0,0,.186.192.819.819,0,0,0,.118.06.97.97,0,0,0,.124.037l.151.028a11.914,11.914,0,0,0,1.3.059c-1.093,1.79-.859,2.527-.631,3.272a5.081,5.081,0,0,0,1.356,1.939,6.772,6.772,0,0,0,2.116,1.293,12.008,12.008,0,0,0,5.159.76,14.893,14.893,0,0,0,5.157-1.22,11.187,11.187,0,0,0,2.238-1.282,8.1,8.1,0,0,0,1.767-1.7,4.248,4.248,0,0,0-1.107-6.633,9.619,9.619,0,0,0-3.815-1.416,14.241,14.241,0,0,0-4.074-.06,13.3,13.3,0,0,0-6.929,2.865c-1.785,1.5-2.746,3.708-2.159,5.613a4.332,4.332,0,0,1-.529-3.21,7.285,7.285,0,0,1,1.936-3.54,11.41,11.41,0,0,1,5.727-3.229,16.155,16.155,0,0,1,7.214.153,8.8,8.8,0,0,1,5.588,3.817,5.317,5.317,0,0,1,.645,3.276,6.38,6.38,0,0,1-1.233,2.95,11.525,11.525,0,0,1-4.727,3.578,16.12,16.12,0,0,1-5.413,1.293,13.383,13.383,0,0,1-5.236-.64,7.623,7.623,0,0,1-4.074-3,4.761,4.761,0,0,1-.805-2.422,3.094,3.094,0,0,1,.033-.652,1.818,1.818,0,0,1,.057-.32l.041-.157.026-.092c.035-.149.165-.32.191-.425a1.387,1.387,0,0,1-.378-.054,1.676,1.676,0,0,1-.412-.222,1.411,1.411,0,0,1-.406-.471,1.82,1.82,0,0,1-.035-1.411,6.516,6.516,0,0,1,1.282-2.3,3.017,3.017,0,0,1,1.282-.814,3.462,3.462,0,0,1,1.439-.12,5.393,5.393,0,0,1,2.222.857C339,509.333,339.388,509.636,339.585,509.782Z" transform="matrix(-1, 0, 0, 1, 380, 0)" /><path d="M344,507.888c-.331.043-1.247-1.777-1.764-2.394a16.6,16.6,0,0,1-1.285-1.8l-.3-.48c-.109-.182-.156-.248-.363-.628l-1.043-1.906-.114-.211-.058-.106c-.011-.03.061-.016.088-.026l.45-.055.915-.1,1.622-.157c.6-.045,1.192-.066,1.759-.063a14.559,14.559,0,0,1,3.022.3,3.614,3.614,0,0,1-2.48,1.516,15.192,15.192,0,0,0-1.518-.2l-1.155-.07c-.137-.006-.28-.006-.423,0l-.106,0a.241.241,0,0,0-.05,0l.018.042.08.169c.059.115.118.229.176.34l.211.376a30.708,30.708,0,0,1,1.983,3.649A6.642,6.642,0,0,1,344,507.888Z" transform="matrix(-1, 0, 0, 1, 380, 0)" /><ellipse class="cls-10" cx="349.845" cy="500.422" rx="2.986" ry="2.917" transform="matrix(-1, 0, 0, 1, 380, 0)" /><path d="M352.815,500.422c-.16-.074-.227-.771-.69-1.366a2.326,2.326,0,0,0-1.672-.978,2.665,2.665,0,0,0-2.057.792,2.038,2.038,0,0,0-.54,1.877,2.246,2.246,0,0,0,2.47,1.654,2.655,2.655,0,0,0,2.22-1.979,2.086,2.086,0,0,1,.253,2.176,2.409,2.409,0,0,1-1.521,1.452,4.05,4.05,0,0,1-4.136-1.558,3.477,3.477,0,0,1,2.39-5.5,3.213,3.213,0,0,1,2.753.982,2.527,2.527,0,0,1,.53,2.45Z" transform="matrix(-1, 0, 0, 1, 380, 0)" /><path d="M324.785,503.317c-.006.324-1.437.66-1.944.971a14.627,14.627,0,0,1-2.971,1.224,12.835,12.835,0,0,1-2.546.573,10.739,10.739,0,0,1-1.167.074c-.18,0-.367,0-.528-.012l-.247-.017a.543.543,0,0,1-.089-.017l-.045-.009-.023,0-.013,0c0-.006,0,.013-.014-.014l-.072-.1.064.089c.017.022.008,0,.008,0l0-.019,0-.04,0-.082a.718.718,0,0,1,.042-.175,2.413,2.413,0,0,1,.157-.334,3.168,3.168,0,0,1,.414-.573,1.233,1.233,0,0,1,.805-.5c3.146.375,5.057-1.085,6.814-1.243A3.866,3.866,0,0,1,324.785,503.317Z" transform="matrix(-1, 0, 0, 1, 380, 0)" /><path d="M324.785,509.269c-.006.324-1.437.66-1.944.971a14.627,14.627,0,0,1-2.971,1.224,12.906,12.906,0,0,1-2.546.573,10.739,10.739,0,0,1-1.167.074c-.18,0-.367,0-.528-.012l-.247-.017a.543.543,0,0,1-.089-.017l-.045-.009-.023,0-.013,0c0-.006,0,.013-.014-.014l-.072-.1.064.089c.017.022.008,0,.008,0l0-.019,0-.04,0-.082a.718.718,0,0,1,.042-.175,2.413,2.413,0,0,1,.157-.334,3.168,3.168,0,0,1,.414-.573,1.233,1.233,0,0,1,.805-.5c3.146.375,5.057-1.085,6.814-1.243A3.866,3.866,0,0,1,324.785,509.269Z" transform="matrix(-1, 0, 0, 1, 380, 0)" /><path d="M324.785,515.237c-.006.324-1.437.66-1.944.971a14.688,14.688,0,0,1-2.971,1.225,12.9,12.9,0,0,1-2.546.572,10.493,10.493,0,0,1-1.167.074c-.18,0-.367,0-.528-.012l-.247-.017a.543.543,0,0,1-.089-.017l-.045-.009-.023,0-.013,0c0-.006,0,.013-.014-.014l-.072-.1.064.089c.017.022.008,0,.008,0l0-.019,0-.04,0-.082a.718.718,0,0,1,.042-.175,2.413,2.413,0,0,1,.157-.334,3.168,3.168,0,0,1,.414-.573,1.233,1.233,0,0,1,.805-.5c3.146.376,5.057-1.085,6.814-1.243A3.866,3.866,0,0,1,324.785,515.237Z" transform="matrix(-1, 0, 0, 1, 380, 0)" /><path d="M324.785,521.694c-.006.324-1.437.66-1.944.97a14.574,14.574,0,0,1-2.971,1.225,12.906,12.906,0,0,1-2.546.573,10.739,10.739,0,0,1-1.167.074c-.18,0-.367,0-.528-.012l-.247-.017a.543.543,0,0,1-.089-.017l-.045-.01-.023,0-.013,0c0-.006,0,.012-.014-.015l-.072-.1.064.088c.017.023.008,0,.008,0l0-.02,0-.039,0-.082a.718.718,0,0,1,.042-.175,2.413,2.413,0,0,1,.157-.334,3.133,3.133,0,0,1,.414-.573,1.233,1.233,0,0,1,.805-.5c3.146.375,5.057-1.085,6.814-1.243A3.866,3.866,0,0,1,324.785,521.694Z" transform="matrix(-1, 0, 0, 1, 380, 0)" /><path d="M324.785,528.139c-.006.323-1.437.659-1.944.97a14.688,14.688,0,0,1-2.971,1.225,12.906,12.906,0,0,1-2.546.573,10.739,10.739,0,0,1-1.167.074c-.18,0-.367-.006-.528-.013l-.247-.017a.553.553,0,0,1-.089-.016l-.045-.01-.023,0-.013,0c0-.007,0,.012-.014-.015l-.072-.1.064.088c.017.022.008,0,.008,0l0-.019,0-.039,0-.083a.74.74,0,0,1,.042-.175,2.527,2.527,0,0,1,.157-.334,3.168,3.168,0,0,1,.414-.573,1.235,1.235,0,0,1,.805-.5c3.146.375,5.057-1.086,6.814-1.244A3.863,3.863,0,0,1,324.785,528.139Z" transform="matrix(-1, 0, 0, 1, 380, 0)" /><path d="M318.192,505.357c-.314-.045-.3-.858-.482-1.171a4.7,4.7,0,0,1-.469-1.758,3.435,3.435,0,0,1,.681-2.633c.827.292,1.408.856,1.263,1.058-1.173,1.617-.2,2.846-.469,3.805A1.879,1.879,0,0,1,318.192,505.357Zm-.658-2.375h0" transform="matrix(-1, 0, 0, 1, 380, 0)" /><path d="M321.42,510.406c-.314-.045-.3-.857-.482-1.17a4.7,4.7,0,0,1-.469-1.759,3.437,3.437,0,0,1,.682-2.633c.826.293,1.408.857,1.262,1.058-1.173,1.618-.2,2.846-.469,3.805A1.852,1.852,0,0,1,321.42,510.406Zm-.658-2.375h0" transform="matrix(-1, 0, 0, 1, 380, 0)" /><path d="M318.192,517.138c-.314-.045-.3-.857-.482-1.17a4.7,4.7,0,0,1-.469-1.758,3.435,3.435,0,0,1,.681-2.633c.827.292,1.408.856,1.263,1.057-1.173,1.618-.2,2.847-.469,3.8A1.863,1.863,0,0,1,318.192,517.138Zm-.658-2.374h0" transform="matrix(-1, 0, 0, 1, 380, 0)" /><path d="M318.192,529.433c-.314-.044-.3-.857-.482-1.17a4.7,4.7,0,0,1-.469-1.758,3.435,3.435,0,0,1,.681-2.633c.827.292,1.408.856,1.263,1.057-1.173,1.618-.2,2.847-.469,3.805A1.863,1.863,0,0,1,318.192,529.433Zm-.658-2.374h0" transform="matrix(-1, 0, 0, 1, 380, 0)" /><path d="M321.42,522.974c-.314-.051-.3-.978-.482-1.336a5.965,5.965,0,0,1-.469-2.007,4.337,4.337,0,0,1,.682-3c.826.334,1.408.978,1.262,1.207-1.173,1.847-.2,3.249-.469,4.343A2.113,2.113,0,0,1,321.42,522.974Zm-.658-2.71h0" transform="matrix(-1, 0, 0, 1, 380, 0)" /><path class="cls-16" d="M351.59,527.577c-1.789.308-4.069.788-6.542,1.361v4.237c3.77-.811,6.542-1.352,6.542-1.352Z" transform="matrix(-1, 0, 0, 1, 380, 0)" /><path d="M351.605,527.577a4.811,4.811,0,0,1,.291,1.9c.027.488.056,1,.083,1.481.017.331.033.647.048.941.139.4-.284.332-.455.431l-1.833.58c-.55.167-1.113.326-1.68.478l-1.776.452-1.648.373-.415.093-.1.024c-.029,0-.009-.059-.016-.085l0-.2c0-.275-.009-.547-.014-.819q-.015-1.058-.031-2.1,0-.764,0-1.513.007-.7.016-1.4c-.022-.076.042-.082.1-.089l.172-.033.342-.066.666-.125.478-.084.341-.053.672-.1a33.525,33.525,0,0,1,4.695-.367,7.81,7.81,0,0,1-3.818,2.083l-1.181.046-.554.033a2.064,2.064,0,0,0-.23-.024c-.114-.028-.123.041-.138.114a1.492,1.492,0,0,0-.05.277c-.026.368-.051.724-.075,1.07s-.029.7-.044,1.038c-.006.212-.013.419-.019.623a.752.752,0,0,0,0,.146l.147-.03.293-.064.732-.169,3.379-.827.732-.173a1.58,1.58,0,0,0,.312-.088c0-.111.009-.22.012-.328l.037-.7A15.025,15.025,0,0,1,351.605,527.577Z" transform="matrix(-1, 0, 0, 1, 380, 0)" /><path class="cls-17" d="M340.269,530.1v-4.53c-1.751.453-3.627.969-5.288,1.439v4.487C336.676,531.026,338.472,530.552,340.269,530.1Z" transform="matrix(-1, 0, 0, 1, 380, 0)" /><path d="M340.273,530.112c-.086.348-2.884,1.073-3.952,1.541l-1.152.416c-.372.089-1.039.528-.881-.127-.044-.78-.086-1.548-.129-2.311-.028-.542-.056-1.079-.083-1.608q-.017-.657-.032-1.3l-.007-.386c.025-.108.213-.091.313-.142l.72-.211,1.48-.435,1.282-.345,1.565-.384,1.159-.282.555-.131c.018,0,.055-.024.058,0l0,.076,0,.152-.011.3-.048,1.15-.028.543-.014.259-.015.145c-.045.374-.09.744-.135,1.113-.1.715-.219,1.374-.356,1.959a6.717,6.717,0,0,1-1-2.021,6.985,6.985,0,0,1-.247-1.025,1.166,1.166,0,0,0-.028-.176h-.013a.081.081,0,0,0,.022-.012c.058-.031.182-.233.124-.253-.053-.045-.094-.086-.317-.07-.679.1-1.332.212-1.961.343l-.925.206-.7.171-.135.036c-.026.026-.007.086-.013.127l0,.273q.009.413.018.814.032.843.061,1.64c.012.14.023.277.035.412l.016.173a.614.614,0,0,0,.009.079l.091-.032.332-.109.152-.045.324-.087c.448-.117.883-.217,1.308-.3A12.616,12.616,0,0,1,340.273,530.112Z" transform="matrix(-1, 0, 0, 1, 380, 0)" /><path class="cls-18" d="M345.048,528.938v-4.48c-1.072.218-2.2.464-3.313.739-.472.116-.965.241-1.466.37v4.53C341.889,529.688,343.5,529.295,345.048,528.938Z" transform="matrix(-1, 0, 0, 1, 380, 0)" /><path d="M345.052,528.953c-.039.171-.727.415-1.528.67l-1.22.382-1.143.387c-.593.128-1.873.982-1.585-.248-.024-.425-.048-.845-.071-1.264l-.057-.78c-.029-.512-.056-1.018-.084-1.518q-.015-.62-.031-1.229l-.008-.364c.009-.053-.025-.139.019-.165l.171-.047.684-.188.9-.25c.2-.056.409-.114.617-.16l1.232-.27,1.7-.339,1.1-.212.133-.025c.049-.015.094-.025.075.046l-.01.289-.021.565a20.633,20.633,0,0,1-.24,2.856c-.1.675-.22,1.3-.356,1.849a6.165,6.165,0,0,1-1-1.907,6.257,6.257,0,0,1-.247-.967c-.024-.127-.038-.319-.041-.359,0,0,0,0,.022-.007a.4.4,0,0,0,.171-.259c-.019-.055-.1-.087-.221-.105a2.042,2.042,0,0,0-.385.025l-.469.053-.913.127c-.586.083-1.245.249-1.5.3-.033.018-.107,0-.106.048v.13l0,.257c.006.259.011.515.017.767q.032.795.062,1.547c.011.3.023.354.034.486.01.109.02.215.03.319a4.78,4.78,0,0,0,.589-.142c.424-.1.837-.187,1.24-.25A11.285,11.285,0,0,1,345.052,528.953Z" transform="matrix(-1, 0, 0, 1, 380, 0)" /><path class="cls-19" d="M351.59,527.577v-4.249s-2.969.4-6.542,1.13v4.48C347.521,528.365,349.8,527.885,351.59,527.577Z" transform="matrix(-1, 0, 0, 1, 380, 0)" /><path d="M351.592,527.592c-.122.346-3.269.988-4.442,1.416l-.8.278-1.415.384-.377.1-.192.05c-.072.026-.026-.1-.044-.136l-.034-.737-.057-1.422q-.042-.9-.083-1.776l-.016-.44-.016-.84a3.507,3.507,0,0,1,.026-.817l.814-.155,1.82-.347,1.453-.246,1.422-.206,1.987-.269c1.165-.528.689.834.732,1.5l-.031.561-.032.321-.072.6c-.1.79-.219,1.517-.356,2.164a13.946,13.946,0,0,1-1.262-3.088c.075-.089.041-.148-.063-.188-.3-.006-.747.02-1.1.038-.752.043-1.479.108-2.182.19l-1.035.134-.731.108c-.071-.008-.072.041-.066.1v.152l0,.314q.009.481.018.951c.009.311.019.617.028.92l.016.449.017.261a2.985,2.985,0,0,0,.044.4l.411-.116.195-.053.39-.09.764-.166c.5-.1.988-.189,1.461-.254A15.044,15.044,0,0,1,351.592,527.592Z" transform="matrix(-1, 0, 0, 1, 380, 0)" /><path class="cls-20" d="M334.981,527.006c-2.739.775-4.885,1.419-4.885,1.419s-.066,2.316-.1,4.518c1.462-.453,3.155-.946,4.98-1.45Z" transform="matrix(-1, 0, 0, 1, 380, 0)" /><path d="M335,527.006c.157.078.233.821.291,1.68.028.432.057.886.084,1.308.04.462.077.883.107,1.229l.056.581c.048.13-.065.141-.149.175l-.263.1-.563.213c-.215.077-.26.105-.4.159-.47.192-.952.376-1.437.552l-.73.261-.365.126-.649.208-1.431.45-.36.112c-.052.008-.139.062-.162.032v-.9q.007-1.086.014-2.148.015-.646.031-1.28.039-.872.076-1.728l.014-.293a.457.457,0,0,1,.015-.138l.145-.039.572-.148.553-.14.336-.076a26.627,26.627,0,0,1,4.12-.576,6.217,6.217,0,0,1-3.166,2.234c-.339.022-.8.089-.79.026-.145-.057-.2.015-.234.141a.6.6,0,0,0-.035.173l-.034.244c-.02.163-.04.324-.06.481-.033.325-.064.637-.094.941-.055.723-.078.949-.092,1.346.009.032-.026.122.02.1l.128-.037.253-.077.538-.174,2.841-.959c.082-.052.239-.044.252-.137l-.007-.318c0-.445.016-.875.049-1.29A11.894,11.894,0,0,1,335,527.006Z" transform="matrix(-1, 0, 0, 1, 380, 0)" /><path class="cls-21" d="M330,532.943a22.1,22.1,0,0,0,.1,3.893c1.479-.441,3.148-.89,4.885-1.33v-4.013C333.156,532,331.463,532.49,330,532.943Z" transform="matrix(-1, 0, 0, 1, 380, 0)" /><path d="M330,532.928c.048-.34,2.605-1.072,3.54-1.532.283-.123.647-.267,1.01-.406l.574-.216.3-.11.153-.055c.051-.018.118-.057.1.016.044.8.086,1.579.128,2.353.029.494.056.983.084,1.464.01.376.021.749.031,1.119a3.309,3.309,0,0,1-.014.68l-.655.193-1.381.407-.991.272-2.472.6-.435-.083-.212-.04-.105-.019-.052-.01h-.009c-.025.035.207-.3.108-.157h0l-.013-.007-.024-.013a1.649,1.649,0,0,1-.31-.216c-.032-.067-.068-.129-.1-.2l-.03-.264a10.3,10.3,0,0,1,.01-1.086l.071-.605a16.777,16.777,0,0,1,.409-2.07,6.191,6.191,0,0,1,.983,1.842c.058.164.108.326.151.479s.079.358.1.3c.047,0,.055-.024.02.012a.322.322,0,0,0-.089.153.1.1,0,0,0,.038.093c-.066.125.809-.032,1.3-.108.561-.093,1.1-.2,1.619-.32l.581-.136.116-.029.056-.015v-.292c-.012-.46-.023-.906-.035-1.343-.01-.235-.019-.466-.029-.7-.011-.127-.022-.253-.032-.377-.011-.1-.021-.2-.031-.3-.051-.037-.2.059-.279.077l-.272.1-.487.145c-.373.106-.737.2-1.1.268A10.728,10.728,0,0,1,330,532.928Z" transform="matrix(-1, 0, 0, 1, 380, 0)" /><path class="cls-16" d="M329,528.3c-2.739.775-4.884,1.419-4.884,1.419s-.067,2.316-.1,4.518c1.462-.453,3.156-.946,4.98-1.45Z" transform="matrix(-1, 0, 0, 1, 380, 0)" /><path d="M329.011,528.3c.157.078.232.821.291,1.681.027.431.056.886.083,1.307.041.462.077.883.107,1.229l.057.581c.048.13-.066.141-.15.176l-.262.1-.564.213c-.214.077-.259.1-.4.159-.469.192-.951.376-1.436.552l-.73.261-.366.127-.648.207-1.432.45-.36.112c-.051.008-.139.062-.161.032v-.9q.006-1.086.013-2.148.016-.646.032-1.28.039-.871.076-1.727l.013-.294a.429.429,0,0,1,.016-.138l.145-.038.572-.149.553-.14.336-.076a26.627,26.627,0,0,1,4.12-.576,6.214,6.214,0,0,1-3.166,2.234c-.339.022-.8.089-.791.026-.145-.056-.195.015-.233.141a.6.6,0,0,0-.035.173l-.034.244c-.021.163-.041.324-.06.481-.033.325-.064.638-.095.941-.054.723-.077.949-.091,1.346.009.032-.027.122.02.105l.127-.037.254-.078.537-.174,2.842-.959c.082-.052.238-.044.252-.137l-.007-.317c0-.446.015-.876.049-1.291A11.894,11.894,0,0,1,329.011,528.3Z" transform="matrix(-1, 0, 0, 1, 380, 0)" /><path class="cls-17" d="M324.015,534.237a22.152,22.152,0,0,0,.1,3.893c1.479-.441,3.147-.89,4.884-1.33v-4.013C327.171,533.291,325.477,533.784,324.015,534.237Z" transform="matrix(-1, 0, 0, 1, 380, 0)" /><path d="M324.011,534.223c.048-.341,2.6-1.073,3.54-1.532.282-.124.647-.268,1.01-.407l.574-.216.3-.11.153-.055c.051-.018.118-.057.1.017.043.8.086,1.578.128,2.352.028.494.056.983.083,1.464q.017.564.032,1.119a3.3,3.3,0,0,1-.015.68l-.655.193-1.38.407-.991.272-2.472.6-.435-.083-.212-.04-.105-.019-.052-.01h-.01c-.024.034.208-.3.109-.158h0l-.013-.007-.024-.013a1.6,1.6,0,0,1-.309-.216c-.032-.067-.068-.129-.095-.2l-.031-.264a10.3,10.3,0,0,1,.011-1.086l.07-.605a16.566,16.566,0,0,1,.41-2.069,6.165,6.165,0,0,1,.982,1.842c.058.164.109.325.152.479s.079.358.1.3c.047,0,.055-.024.02.012a.339.339,0,0,0-.089.153.1.1,0,0,0,.039.093c-.066.125.809-.032,1.3-.107.561-.094,1.1-.2,1.619-.321l.58-.135.116-.03.057-.015v-.292q-.018-.689-.035-1.343c-.01-.235-.02-.466-.029-.695-.011-.127-.022-.253-.033-.377-.01-.1-.02-.2-.031-.3-.051-.037-.2.06-.278.077l-.273.1-.486.145c-.373.106-.737.2-1.1.268A10.808,10.808,0,0,1,324.011,534.223Z" transform="matrix(-1, 0, 0, 1, 380, 0)" /><path class="cls-20" d="M340.269,530.1v4.139c1.677-.385,3.3-.743,4.779-1.061v-4.237C343.5,529.295,341.889,529.688,340.269,530.1Z" transform="matrix(-1, 0, 0, 1, 380, 0)" /><path d="M340.266,530.083c.033-.17.7-.409,1.471-.657l1.18-.372.531-.178.513-.186,1.067-.37.594-.192.076-.024c.016,0,.008.04.012.058l.011.136.02.279c.044.719.086,1.423.129,2.122q.042.741.083,1.465c.011.4.021.808.032,1.206l.007.352,0,.176c.018.072-.09.043-.129.07l-.665.162-1.546.376-1.173.255-1.5.294-1.07.2-.509.093c-.06-.1,0-.346-.012-.509l.048-1.05.027-.5c.01-.158.019-.344.029-.4l.135-1.014c.1-.651.22-1.251.357-1.785a5.906,5.906,0,0,1,1,1.841,5.819,5.819,0,0,1,.247.934c.024.2.038.087.041.118,0,0,0,0-.021.012-.058.03-.181.218-.132.245.028.053.111.085.231.1.626-.051,1.23-.124,1.81-.213l.854-.144.57-.108c.12.012.077-.106.085-.183l0-.249q-.009-.372-.018-.733-.032-.768-.061-1.494c-.012-.123-.024-.244-.035-.363l-.016-.157c-.012-.041.016-.13-.063-.082l-.31.1-.356.093c-.407.1-.8.18-1.192.239A10.713,10.713,0,0,1,340.266,530.083Z" transform="matrix(-1, 0, 0, 1, 380, 0)" /><path class="cls-22" d="M334.981,531.493v4.013c1.735-.439,3.537-.869,5.288-1.27V530.1C338.472,530.552,336.676,531.026,334.981,531.493Z" transform="matrix(-1, 0, 0, 1, 380, 0)" /><path d="M334.977,531.478c.065-.342,2.763-1.041,3.757-1.489l.175-.076.263-.1.56-.2c.383-.131.814-.289,1.231-.407.043.818.086,1.621.128,2.419q.042.777.083,1.536c.011.4.022.8.032,1.2l.007.369c-.016.107.066.294-.1.281l-.694.182-1.579.412-1.223.289-3.421.706c-.123.065-.079-.081-.081-.168l.011-.281.025-.547.057-1.032c.02-.389.041-.5.064-.687l.071-.522c.1-.683.219-1.312.356-1.871a6.3,6.3,0,0,1,1,1.929c.058.174.108.345.149.51s.075.372.1.312c.047,0,.056-.024.019.013-.089.092-.119.189-.061.225a.267.267,0,0,0,.111.056l.039.009.119-.01.247-.025c.657-.069,1.286-.159,1.893-.265l.891-.168.609-.127c.127.011.065-.126.08-.2l0-.26c-.006-.269-.012-.533-.018-.795s-.018-.534-.028-.8-.022-.565-.033-.647c-.012-.123-.023-.244-.034-.363-.021-.036.023-.153-.051-.115l-.175.061-.316.105-.556.154c-.426.11-.839.205-1.244.277A11.687,11.687,0,0,1,334.977,531.478Z" transform="matrix(-1, 0, 0, 1, 380, 0)" /><path class="cls-23" d="M336.065,563.295l9.342,3.813c1.6.653,1.564,3.816-.051,4.4L309.082,584.57a1.208,1.208,0,0,1-.881-.021l-7.986-3.291c-1.581-.651-1.564-3.767.024-4.384l34.919-13.587" transform="matrix(-1, 0, 0, 1, 380, 0)" /><path d="M335.169,563.316c-.574.9-15.047,6.5-20.489,9-4.328,1.993-9.1,4.049-13.733,6a.346.346,0,0,0-.163.193,1.611,1.611,0,0,0-.076.549,1.289,1.289,0,0,0,.129.537.269.269,0,0,0,.156.113l4.471,1.75,2.227.877.956.376a.083.083,0,0,0,.072-.016l3.153-1.186c5.777-2.173,11.542-4.252,17.092-6.174,2.776-.961,5.5-1.882,8.139-2.756l3.9-1.274,3.7-1.176a.444.444,0,0,0,.3-.2,1.513,1.513,0,0,0,.185-.665,1.862,1.862,0,0,0-.079-.681.657.657,0,0,0-.287-.355c-3.244-1.534-6.322-3.04-8.976-4.407a67.729,67.729,0,0,1,10.039,2.044,3.184,3.184,0,0,1,1.8,1.556,4.622,4.622,0,0,1,.538,2.066,4.273,4.273,0,0,1-.478,2.149,3.557,3.557,0,0,1-1.766,1.631l-1.369.578-1.182.471c-.744.283-1.4.506-1.927.652-11.971,3.315-22.488,6.835-32.079,10.29a2.044,2.044,0,0,1-1.657-.057l-1.178-.481-2.251-.913-4.408-1.764a2.633,2.633,0,0,1-1.386-1.32,3.887,3.887,0,0,1-.379-1.717,3.768,3.768,0,0,1,.4-1.716,2.685,2.685,0,0,1,1.38-1.283c8.324-3.393,15.629-6.418,22.4-8.826C326.421,565.667,333.723,563.677,335.169,563.316Z" transform="matrix(-1, 0, 0, 1, 380, 0)" /><path class="cls-3" d="M322.353,555.588s-6.554,12.082-7.422,18.626l13.451-4.531s6.554-16.361,10.46-19.633Z" transform="matrix(-1, 0, 0, 1, 380, 0)" /><path d="M322.343,555.559c.167-.357,2.376-1.258,5.1-2.291l9.5-3.532c.348-.006.656,0,.92.01a5.281,5.281,0,0,1,.68.073l.324.067a.674.674,0,0,1,.146.043l-.064.1c-.059.1-.114.2-.161.3-.017.144-.029.287-.035.43l0,.213a2.941,2.941,0,0,0,.069.324c.055.227.118.458.187.692l-.4.446-.253.4-.518.819c-.334.55-.747,1.123-1.043,1.686l-.567,1.112-.481.99c-.646,1.324-1.257,2.695-1.868,4.064s-1.2,2.755-1.77,4.132l-.843,2.057-.866,2.18c-.182.461-.363.922-.539,1.367l-5.453,1.891-4.556,1.516-3.564,1.165c-.751.264-1.382.4-2.052.585l-.985.26-.488.129c-.064,0-.2.086-.2.02l.05-.269q.4-2.163.834-4.153a17.354,17.354,0,0,1,.548-2.028l.225-.679c.06-.185.134-.36.2-.539a58.762,58.762,0,0,1,3.629-7.706,67.754,67.754,0,0,1,3.817-6.118,52.255,52.255,0,0,1-1.528,7.583,41.631,41.631,0,0,1-1.973,6.158l-.565,1.2c-.094.2-.186.4-.265.6a2.426,2.426,0,0,1-.11.252l-.045.039a2.275,2.275,0,0,0-.409.7l-.1.256c.04,0,.085.006.136.006a3.27,3.27,0,0,0,.362-.025l.469-.071.132-.024.3-.08.612-.169q2.441-.677,4.757-1.379l4.171-1.3,1.855-4.331q.979-2.27,1.954-4.412c.652-1.429,1.3-2.817,1.978-4.155.166-.336.333-.669.511-1q.226-.429.451-.853c.171-.322.331-.624.5-.9a5.361,5.361,0,0,1,.846-1.15c.18-.146-.084-.016-.184.013l-.377.134-.712.245c-.36.119-.706.227-1.064.331l-2.044.609A83.023,83.023,0,0,1,322.343,555.559Z" transform="matrix(-1, 0, 0, 1, 380, 0)" /><path d="M353.061,492.468c-.314-.04-.3-.763-.481-1.042a3.809,3.809,0,0,1-.47-1.564,2.812,2.812,0,0,1,.682-2.343c.826.26,1.407.762,1.262.941-1.173,1.44-.2,2.533-.469,3.386C353.551,492.048,353.155,492.4,353.061,492.468Zm-.658-2.113h0" transform="matrix(-1, 0, 0, 1, 380, 0)" /><path class="cls-10" d="M349.257,507.5a2.343,2.343,0,0,1,1.672-1.337,3.447,3.447,0,0,1,2.167.292,1.937,1.937,0,0,1,.811.618,1.9,1.9,0,0,1,.274,1.018,4.368,4.368,0,0,1-2.616,4.071" transform="matrix(-1, 0, 0, 1, 380, 0)" /><path d="M351.559,512.147c-.017-.169.356-.391.7-.739a2.931,2.931,0,0,0,.756-1.077,6.132,6.132,0,0,0,.293-1.548,1.96,1.96,0,0,0-.193-1.158,2.675,2.675,0,0,0-.773-.4,3.632,3.632,0,0,0-1.043-.232,2.422,2.422,0,0,0-1.778.615,1.475,1.475,0,0,1,.046-1.592,1.555,1.555,0,0,1,1.147-.806,5.466,5.466,0,0,1,2.743.926,2.245,2.245,0,0,1,.913.983,3.076,3.076,0,0,1,.213,1.166,4.136,4.136,0,0,1-1.449,3.449,2.076,2.076,0,0,1-.881.377A2.6,2.6,0,0,1,351.559,512.147Z" transform="matrix(-1, 0, 0, 1, 380, 0)" /><path d="M358.413,491.7c-.314-.04-.3-.763-.481-1.041a3.8,3.8,0,0,1-.469-1.565,2.814,2.814,0,0,1,.681-2.342c.826.26,1.408.762,1.262.94-1.173,1.44-.2,2.533-.469,3.386C358.9,491.284,358.507,491.634,358.413,491.7Zm-.658-2.113h0" transform="matrix(-1, 0, 0, 1, 380, 0)" /><path class="cls-14" d="M281.85,568.126,281.18,577s6.029-3.317,16.595-7.829l-.28-7.072C289.959,565.216,286.584,565.847,281.85,568.126Z" transform="matrix(-1, 0, 0, 1, 380, 0)" /><path d="M281.844,568.113a16.823,16.823,0,0,1,4-2.012c2.124-.854,4.56-1.713,5.873-2.295l6.5-2.827c.167,2.928.337,5.9.5,8.789l-3.365,1.508-7.174,3.3-3.4,1.6-1.737.831c-.852.416-1.9.969-2.782,1.425q.111-1.164.22-2.3.052-.525.105-1.042l.073-.6q.153-1.188.3-2.305c.2-1.48.406-2.845.614-4.079a31.089,31.089,0,0,1,.566,4.556c.051.833.08,1.66.088,2.419,0,.266.016.183.027.211a.04.04,0,0,0,.032.007.065.065,0,0,0,.032-.024.083.083,0,0,0-.008.029c-.012.042.042.048.266-.035l1.111-.472,2.173-.922,4.158-1.773,7.366-3.178q-.087-1.731-.169-3.37-.048-.883-.1-1.741c-.023-.343-.046-.68-.069-1.013l-.7.31-1.244.515q-1.263.512-2.477.968c-1.619.606-3.175,1.13-4.657,1.6-.989.332-2.36.713-3.557,1.085S282.187,568,281.844,568.113Z" transform="matrix(-1, 0, 0, 1, 380, 0)" /><path class="cls-2" d="M298.909,560.64v8.188c8.615-3.679,18.841-6.907,27.6-9.825,23.028-7.676,47.866-10.493,47.866-10.493l.046-6.479C347.257,544.227,319.931,551.95,298.909,560.64Z" transform="matrix(-1, 0, 0, 1, 380, 0)" /><path d="M298.9,560.626a135.391,135.391,0,0,1,13.853-5.546c7.189-2.571,15.505-5.034,20.158-6.309a227.9,227.9,0,0,1,23.456-5.307c4.063-.723,8.18-1.276,12.274-1.767,1.023-.129,2.05-.21,3.071-.317l1.538-.152,1.447-.139.364-.034.182-.018.09-.007v.091l0,.728q-.014,3.78-.026,7.5l-2.245.279-1.378.19-2.68.395a278.183,278.183,0,0,0-43.179,9.944c-6.618,2.129-12.919,4.095-18.689,6.118q-2.164.758-4.225,1.524l-2.032.77-1.355.542-.687.276-.339.136c-.021,0-.071.046-.069.011v-.1l0-.2q.048-2.419.093-4.718.051-2,.1-3.878c.1,1.123.2,2.378.3,3.725.045.676.091,1.373.139,2.085q.033.514.066,1.04c.021.259.043.52.064.784-.047.2.173.018.29-.024l.393-.2.368-.188c.1-.052.263-.13.448-.215l2.128-.972c1.434-.644,2.9-1.258,4.345-1.853,5.8-2.359,11.375-4.284,14.33-5.191,4.737-1.455,9.408-2.887,14-4.083s9.1-2.226,13.512-3.157,8.728-1.733,12.948-2.442q3.166-.53,6.257-.991l3.074-.438,2.707-.351q.014-2.135.028-4.228l.006-1V542.6c-.014-.041.034-.15-.033-.134l-.17.016-1.918.184c-2.938.259-5.806.633-8.614,1-5.618.756-10.969,1.753-16.084,2.81-10.232,2.129-19.485,4.7-27.936,7.3-3.34,1.035-7.888,2.485-11.868,3.831S300.024,560.223,298.9,560.626Z" transform="matrix(-1, 0, 0, 1, 380, 0)" /></svg>