<svg xmlns="http://www.w3.org/2000/svg" id="Art" viewBox="0 0 380 600"><defs transform="matrix(-1, 0, 0, 1, 380, 0)"><style>.cls-1{fill:#172e35;}.cls-2{opacity:0.4;}.cls-3{fill:#fff;}.cls-4{opacity:0.6;}.cls-5{fill:#006dc6;}.cls-6{fill:#51e9f4;}</style></defs><path class="cls-1" d="M145.954,225.932c1.232-9.788,7.673-19.183,16.253-26.849,10.856-9.7,22.37-14.085,32.189-17.051a3.6,3.6,0,0,1,1.192-.138l19.417.9c1.925.089,2.813,1.486,1.452,2.292-5.09,3.016-14.314,9.124-20.182,16.809-7.169,9.39-11.26,18.223-11.716,25.041S145.334,230.859,145.954,225.932Z" style="" transform="matrix(-1, 0, 0, 1, 380, 0)" /><path d="M146,225.937a1.91,1.91,0,0,0,1.035,1.08,13.936,13.936,0,0,0,3.309,1.144,68.976,68.976,0,0,0,10.853,1.5,85.39,85.39,0,0,0,12.646-.008,35.168,35.168,0,0,0,5.525-.855,13.053,13.053,0,0,0,2.169-.732,5.646,5.646,0,0,0,.813-.442,2.4,2.4,0,0,0,.244-.188,1.551,1.551,0,0,0,.177-.188,1.069,1.069,0,0,0,.256-.788,2.894,2.894,0,0,1,.011-.3l.022-.409c.009-.275.041-.544.073-.814.059-.541.12-1.086.222-1.62q.126-.81.314-1.606c.112-.537.248-1.065.4-1.59a44.544,44.544,0,0,1,2.237-6.188A71.13,71.13,0,0,1,192.9,202.4a54.181,54.181,0,0,1,4.18-5.378,58.014,58.014,0,0,1,4.823-4.795c1.679-1.5,3.415-2.9,5.183-4.235q1.325-1,2.677-1.939c.639-.442.416-.3.494-.358l.063-.064a.386.386,0,0,0,.085-.1c.006-.051-.1-.069-.149-.056l-.129.029-.038.012-1.514-.057-6.33-.26-6.282-.285c-.694-.037-.6-.024-.691-.013l-1.325.4c-.973.3-1.938.6-2.893.922a98.774,98.774,0,0,0-11,4.325,77.785,77.785,0,0,0-9.861,5.562,71.737,71.737,0,0,0-8.521,6.659,61.33,61.33,0,0,0-6.974,7.389,38.345,38.345,0,0,0-7.9,15.877,24.116,24.116,0,0,1,.744-8.93,37.818,37.818,0,0,1,4.216-9.811,45.764,45.764,0,0,1,11.6-13.011,81.961,81.961,0,0,1,14.653-8.2,114.99,114.99,0,0,1,14.86-5.154l.914-.256c.123-.034.354-.1.582-.145a5.171,5.171,0,0,1,.656-.08,5.262,5.262,0,0,1,.641,0l.465.033.93.064,3.686.248,7.232.446,4.04.223c.807.052,1.658.061,2.4.163a13.634,13.634,0,0,1,1.87.415,3.143,3.143,0,0,1,1.474.849,1.84,1.84,0,0,1,.458.835,1.29,1.29,0,0,1-.114.9,7.673,7.673,0,0,1-1.031,1.126l-.716.627c-.123.1-.229.207-.366.313l-.472.322q-1.074.659-2.1,1.336l-1.025.675-.722.493c-.958.661-1.893,1.339-2.811,2.025-1.832,1.378-3.576,2.813-5.213,4.308a53.616,53.616,0,0,0-4.553,4.673,58.179,58.179,0,0,0-3.812,5.075,69.234,69.234,0,0,0-6.022,10.554,41.892,41.892,0,0,0-2,5.361c-.262.893-.485,1.785-.655,2.672-.1.443-.149.886-.221,1.326a6.453,6.453,0,0,0-.08.658l-.073.77a3.977,3.977,0,0,1-1.736,3,7.948,7.948,0,0,1-1.323.766,11.867,11.867,0,0,1-1.233.486,24.753,24.753,0,0,1-4.705.983,57.647,57.647,0,0,1-8.86.3,67.456,67.456,0,0,1-13.85-1.937,32.594,32.594,0,0,1-6-2.04,7.628,7.628,0,0,1-1.956-1.267A1.428,1.428,0,0,1,146,225.937Z" transform="matrix(-1, 0, 0, 1, 380, 0)" /><path d="M178.644,222.647c-.308-.255-.183-2.489.449-4.965a57.95,57.95,0,0,1,2.244-6.713,33.568,33.568,0,0,1,4.293-8.039,53.317,53.317,0,0,1,6.2-6.874,59.792,59.792,0,0,1,5.945-4.9,54.23,54.23,0,0,1,6.246-3.84,31.678,31.678,0,0,1,11.762-3.716c-1.282,1.189-3.076,2.444-4.7,3.693a23.732,23.732,0,0,1-4.1,2.615,41.846,41.846,0,0,0-9.961,5.45,47.072,47.072,0,0,0-7.45,6.754,37.777,37.777,0,0,0-5,7.155,72.057,72.057,0,0,0-3.267,6.865c-.414,1.042-1.08,2.439-1.606,3.714S178.767,222.26,178.644,222.647Z" transform="matrix(-1, 0, 0, 1, 380, 0)" /><g class="cls-2" transform="matrix(-1, 0, 0, 1, 380, 0)"><path class="cls-3" d="M191.029,194.24c-.141.339-1.47.462-2.98.718-.756.115-1.56.242-2.284.419a10.366,10.366,0,0,0-1.828.517,80.522,80.522,0,0,0-9.747,4.215c-2.628,1.424-5.135,2.952-7.4,4.45s-4.278,2.955-6.022,4.107a8.861,8.861,0,0,1,1.009-3.942,6.232,6.232,0,0,1,2.04-2.555c4.84-2.435,8.814-4.416,12.528-5.985,3.694-1.538,7.1-2.645,10.2-2.731a11.525,11.525,0,0,1,2.62.273C190.048,193.93,190.788,194.153,191.029,194.24Z" /></g><path class="cls-1" d="M303.322,327.936c-7.525,3.119-28.034-.279-39.638-5.416-10.64-4.711-19.773-12.789-26.694-21.592l-2.175-28.045s15.5,14.422,34.869,22.238c16.114,6.5,28.411,6.163,39.749,4.523C314.313,298.938,310.989,324.759,303.322,327.936Z" style="" transform="matrix(-1, 0, 0, 1, 380, 0)" /><path d="M303.305,327.894a13.5,13.5,0,0,0,2.419-2.554,25.3,25.3,0,0,0,3.078-6.926,48.2,48.2,0,0,0,1.806-9.817,27.723,27.723,0,0,0-.05-5.214l-.1-.616c-.03-.2-.091-.411-.114-.524a3.537,3.537,0,0,0-.3-.8,1.09,1.09,0,0,0-.58-.569,1.625,1.625,0,0,0-.813.029c-.293.047-1.06.176-1.675.254l-1.883.253c-1.239.147-2.435.282-3.579.376-2.284.2-4.344.295-6.042.332a64.733,64.733,0,0,1-16.794-1.8,85.407,85.407,0,0,1-16.545-5.906,119.411,119.411,0,0,1-15.325-8.749q-3.648-2.432-7.094-5.054l-.86-.654-.384-.3-.033-.019-.095-.05a.416.416,0,0,0-.113-.042c-.009-.009,0,.023,0,.033l.047.155.018.045.008.016.063.738q.3,3.639.6,7.257.284,3.618.565,7.206.135,1.793.27,3.577c.039.522.11,1.462.088,1.2v.006c.017.023-.036-.042.04.053l.268.335a74.869,74.869,0,0,0,19.718,17.491,58.253,58.253,0,0,0,11.22,5.133,101.276,101.276,0,0,0,11.4,3.182,84.913,84.913,0,0,0,10.825,1.7,27.678,27.678,0,0,0,9.627-.523c-2.241,1.537-5.9,2.417-9.735,2.8a63.6,63.6,0,0,1-12.095-.106,72.607,72.607,0,0,1-11.3-1.99,39.593,39.593,0,0,1-8.008-2.941c-10.613-5.594-18.76-13.543-25.232-21.874l-.759-.982c-.132-.2-.346-.37-.408-.6l-.045-.737-.119-2.131q-.107-1.923-.213-3.824-.23-3.8-.453-7.515-.248-3.755-.49-7.423-.183-2.523-.362-5.017l-.181-2.468-.091-1.225-.045-.611-.02-.3.089-.068,3.2,2.882c1.064.933,2.1,1.824,3.145,2.676,1.169.946,1.77,1.42,2.554,2.017.75.586,1.509,1.151,2.269,1.708,3.036,2.233,6.109,4.289,9.191,6.186s6.206,3.573,9.308,5.121a97.48,97.48,0,0,0,9.366,3.948,69.577,69.577,0,0,0,27.4,4.226c1.456-.061,2.9-.163,4.323-.3.713-.054,1.423-.142,2.129-.215l1.057-.119,1.408-.179c.326-.019.651-.026.969-.025a3.4,3.4,0,0,1,.9.234,3.173,3.173,0,0,1,1.354,1.249,8.023,8.023,0,0,1,.98,3.3,28.016,28.016,0,0,1-.477,7.939,43.957,43.957,0,0,1-2.322,8.125,24.743,24.743,0,0,1-3.56,6.379,10.533,10.533,0,0,1-1.925,1.843c-.315.2-.592.373-.845.5Z" transform="matrix(-1, 0, 0, 1, 380, 0)" /><g class="cls-4" transform="matrix(-1, 0, 0, 1, 380, 0)"><path d="M301.611,322.345c-3.718,2.553-34.7-4.007-47.915-13.734,4.088-2.775,3.793-1.665,5.579-4.014,3.4.4,24.9,10.685,46.117,8.174C305.507,318.877,303.8,320.844,301.611,322.345Z" /><path d="M301.585,322.307c.028-.346,1.061-1.1,1.847-2.572a8.445,8.445,0,0,0,.862-2.728,10.3,10.3,0,0,0,.136-1.428c.019-.435.009-.87-.012-1.3l-.017-.32-.009-.16-.185.021-.745.093-1.449.181-.351.044a3.224,3.224,0,0,1-.415.035l-1,.046-1.958.093c-1.282.087-2.5.008-3.609.033s-2.105-.028-2.937-.042a78.474,78.474,0,0,1-16.931-2.254c-2.845-.689-5.677-1.482-8.447-2.343l-4.089-1.312-1.819-.574-.15-.025c-.028,0-.042,0-.054.015-.022.039,0,.032-.051.095l-.01.012-.1.093-.221.2c-.133.114-.36.282-.438.339-.125.087-.081.063-.094.076-.023.041-.015.063,0,.073a.158.158,0,0,0,.066.006l0,0s0,0,.007,0l.333.179c.5.266.993.546,1.507.8,2.028,1.038,4.111,1.981,6.2,2.858,4.184,1.745,8.383,3.231,12.428,4.535,4.051,1.288,7.954,2.413,11.606,3.288,1.825.436,3.589.816,5.267,1.09.837.136,1.655.242,2.428.291a6.192,6.192,0,0,0,1.943-.1,1.7,1.7,0,0,1-.721.7,7.189,7.189,0,0,1-1.232.569,17.194,17.194,0,0,1-2.954.741,36.745,36.745,0,0,1-6.551.45,35.049,35.049,0,0,1-10.43-1.513c-4.96-1.89-9.641-3.845-14.051-5.934-2.2-1.047-4.336-2.127-6.38-3.287l-1.525-.889-2.035-1.274c-1.28-.866-2.5-1.739-3.706-2.618,1.357-.9,2.658-1.732,4.01-2.5l1.04-.561c.181-.1.347-.188.484-.274a1.787,1.787,0,0,0,.259-.189c.042-.039.064-.049.124-.11l.192-.2c.129-.135.253-.3.38-.445l.727-.919c.131-.083.334.017.506.04l.533.115c.361.068.688.187,1.032.278l.986.286.754.253,2.952,1c1.94.645,3.84,1.26,5.716,1.8,3.75,1.089,7.38,1.983,10.891,2.636a99.268,99.268,0,0,0,10.137,1.388c1.621.192,3.21.194,4.765.307.778.054,1.546.017,2.307.039l1.136.017.564.012.281.007.391-.014c.827-.042,1.723-.072,2.637-.091l1.377-.021.687,0h.171c.05.008.141-.031.11.067l-.023.407c-.069,1.09-.129,2.135-.282,3.143a13.763,13.763,0,0,1-.268,1.44,10.31,10.31,0,0,1-.344,1.159,8.013,8.013,0,0,1-2.211,3.407A8.211,8.211,0,0,1,301.585,322.307Z" /></g><g class="cls-2" transform="matrix(-1, 0, 0, 1, 380, 0)"><path class="cls-3" d="M307.876,306.641c-.27.374-3.325.909-6.89,1.142-3.564.253-7.624.207-9.89.217a71.64,71.64,0,0,1-12.61-1,58.43,58.43,0,0,1-12.492-3.715c-13.557-5.581-24.952-15.1-29.944-23.274,1.994,1.135,4.483,2.928,6.9,4.5,1.187.805,2.353,1.56,3.317,2.266a17.738,17.738,0,0,1,2.3,1.792A64.322,64.322,0,0,0,274.7,303.538a72.638,72.638,0,0,0,12.3,2.043c3.879.363,7.5.507,10.893.629,1.611.041,3.815.182,5.768.281S307.314,306.636,307.876,306.641Z" /></g><path class="cls-5" d="M272.86,325.111c6.6-5.683,10.98-13.89,9.976-23.771-.628-6.177-6-9.326-6.627-2.178-1.06,11.981-9.092,21.777-9.092,21.777C261.744,324.946,266.265,330.793,272.86,325.111Z" transform="matrix(-1, 0, 0, 1, 380, 0)" /><path d="M272.88,325.134a1.623,1.623,0,0,1-.441.6,6.084,6.084,0,0,1-1.2,1.015,4.985,4.985,0,0,1-.9.542,5.679,5.679,0,0,1-1.107.463,4.918,4.918,0,0,1-2.8.13,3.2,3.2,0,0,1-2.288-2.256,4.139,4.139,0,0,1,.483-3.1,7.426,7.426,0,0,1,1.725-2.089,1.014,1.014,0,0,0,.211-.261l.276-.409c.176-.266.334-.52.472-.755a58.5,58.5,0,0,0,5.082-10.893,36.612,36.612,0,0,0,1.522-5.876c.2-.983.283-1.967.382-2.939a10.926,10.926,0,0,1,.787-3.635,4.753,4.753,0,0,1,1.431-1.843,3.581,3.581,0,0,1,2.435-.721,4.177,4.177,0,0,1,1.268.3c.2.082.384.178.571.276l.442.283a6.833,6.833,0,0,1,1.341,1.289,11.193,11.193,0,0,1,2.232,5.873,26.677,26.677,0,0,1-1.132,10.6,25.974,25.974,0,0,1-4.566,8.4,27.714,27.714,0,0,1-5.88,5.411c1.077-1.995,2.632-4.643,3.8-7.154,1.19-2.514,1.966-4.885,2.551-6.074a21.7,21.7,0,0,0,2.114-7.545,25.7,25.7,0,0,0,.035-3.8,8.508,8.508,0,0,0-1-3.314c-.537-.967-1.393-1.8-2.063-1.764a1.119,1.119,0,0,0-.917.556,4.264,4.264,0,0,0-.566,1.39,12.3,12.3,0,0,0-.254,1.646l-.215,1.774c-.2,1.162-.376,2.314-.671,3.416a41.617,41.617,0,0,1-2.028,6.3,49.217,49.217,0,0,1-2.675,5.578,40.715,40.715,0,0,1-3.183,4.859,2.686,2.686,0,0,1-.309.36l-.338.292-.445.375a7.274,7.274,0,0,0-.709.829,2.837,2.837,0,0,0-.578,1.733,1.7,1.7,0,0,0,.9,1.415,3.814,3.814,0,0,0,2.448.283,13.025,13.025,0,0,0,1.274-.34l1.1-.462Z" transform="matrix(-1, 0, 0, 1, 380, 0)" /><path class="cls-5" d="M73.742,226.211c-8.9,10.041-13.919,52.494-7.638,62.671,7.382,11.962,48.591,16.835,55.2,12.632,6.974-4.435,22.473-2.016,26.4,2.486,5.936,6.8,25.256,7.582,38.718,8.665,15.732,1.266,21.137,1.193,27.31.808,7.876-.492,30.591-1.418,36.27-18.674,5.78-17.566,10.119-49.389-6.666-58.536s-49.88-18.066-93.147-21.078C118.738,212.994,86.156,212.205,73.742,226.211Z" transform="matrix(-1, 0, 0, 1, 380, 0)" /><path d="M73.708,226.181a15.155,15.155,0,0,1,3.165-3.31,31.4,31.4,0,0,1,8.518-4.814c7.432-2.991,17.952-4.535,29.149-4.928,11.218-.425,23.174.129,34.058.775,10.9.645,20.754,1.638,27.785,2.466a286.624,286.624,0,0,1,38.1,6.9,171.863,171.863,0,0,1,19.217,6.042,100.131,100.131,0,0,1,9.405,4.155,24.171,24.171,0,0,1,4.712,2.927,23.527,23.527,0,0,1,3.856,4.159,30.426,30.426,0,0,1,4.479,10,50.81,50.81,0,0,1,1.532,10.508,91.627,91.627,0,0,1-1.559,20.66c-.607,3.374-1.383,6.7-2.29,9.993l-.716,2.458c-.254.813-.494,1.615-.838,2.513a23.37,23.37,0,0,1-2.521,4.979,26.16,26.16,0,0,1-7.861,7.608,38.939,38.939,0,0,1-9.556,4.3,74.223,74.223,0,0,1-17.294,2.787c-2.793.192-5.716.341-8.586.342s-5.721-.094-8.539-.242c-5.634-.284-11.21-.773-16.7-1.182-5.528-.426-11.083-.869-16.645-1.736a69.1,69.1,0,0,1-8.351-1.773,27.764,27.764,0,0,1-8.29-3.707,9.43,9.43,0,0,1-.992-.744l-.945-.9-.464-.457-.232-.206c-.157-.124-.221-.269-.455-.4l-.588-.412-.706-.38a15.563,15.563,0,0,0-1.537-.7,30.761,30.761,0,0,0-14.21-1.606,15.574,15.574,0,0,0-3.243.783l-.74.274-.649.346-.948.493c-.224.109-.477.248-.681.32l-.614.213a20.568,20.568,0,0,1-4.431.831c-1.4.128-2.758.176-4.1.182-2.689.007-5.32-.143-7.919-.38a115.375,115.375,0,0,1-15.207-2.464,77.5,77.5,0,0,1-14.366-4.7,34.522,34.522,0,0,1-6.623-3.855,17.973,17.973,0,0,1-2.93-2.762,15.162,15.162,0,0,1-1.213-1.743l-.49-.951c-.15-.317-.253-.627-.38-.941a29.436,29.436,0,0,1-1.55-7.28c-.242-2.369-.322-4.7-.329-6.99a128,128,0,0,1,2.928-25.964A95.1,95.1,0,0,1,67.6,235.95a48.747,48.747,0,0,1,2.293-5.426,21.035,21.035,0,0,1,3.208-4.879,21.183,21.183,0,0,0-2.487,4.787,46.849,46.849,0,0,0-1.739,5.469,103.767,103.767,0,0,0-2.335,12.281,138.011,138.011,0,0,0-1.051,26.884,57.221,57.221,0,0,0,.8,6.471,18.974,18.974,0,0,0,1.754,5.5,11.126,11.126,0,0,0,3.585,3.539,32.406,32.406,0,0,0,4.816,2.571,71.5,71.5,0,0,0,9.587,3.246c2.965.8,5.6,1.381,7.76,1.837a107.005,107.005,0,0,0,13.07,1.979c2.171.182,4.337.292,6.46.275,1.058-.009,2.115-.043,3.121-.147a14.939,14.939,0,0,0,2.8-.478,3.969,3.969,0,0,0,.526-.18l.191-.088.1-.038.22-.117a18.549,18.549,0,0,1,1.776-.872c.6-.209,1.2-.462,1.8-.62s1.2-.307,1.793-.431a30.238,30.238,0,0,1,7.041-.427,36.4,36.4,0,0,1,6.81.945,26.3,26.3,0,0,1,6.547,2.4,11.6,11.6,0,0,1,3.059,2.347c.316.3.625.6.932.916.339.29.743.539,1.109.816a22.376,22.376,0,0,0,5.334,2.438,69.2,69.2,0,0,0,11.99,2.536c4.071.56,8.159.939,12.229,1.288l12.13,1.019c4,.3,7.977.56,11.9.641,3.927.1,7.793-.1,11.69-.351a73.827,73.827,0,0,0,11.324-1.52,40.007,40.007,0,0,0,10.419-3.752,23.372,23.372,0,0,0,8.043-6.952,20.557,20.557,0,0,0,2.42-4.657c.608-1.647,1.123-3.44,1.6-5.17a103.994,103.994,0,0,0,3.561-21.029c.388-6.952.008-13.927-2.136-20.18a27.965,27.965,0,0,0-2.016-4.433,19.95,19.95,0,0,0-2.845-3.795,16.4,16.4,0,0,0-3.66-2.86c-.634-.411-1.437-.752-2.145-1.13-.735-.361-1.445-.76-2.2-1.08a139.876,139.876,0,0,0-18.13-6.754c-6.091-1.846-12.17-3.391-18.2-4.68-24.135-5.215-47.142-7.174-68.643-8.328-10.195-.464-24.177-1.051-36.3.6a55.5,55.5,0,0,0-15.745,4.239A26.437,26.437,0,0,0,73.708,226.181Z" transform="matrix(-1, 0, 0, 1, 380, 0)" /><path d="M191.788,309.989c.276-.354,3.324-.956,6.719-2.044a36.445,36.445,0,0,0,5-1.963,14.844,14.844,0,0,0,3.552-2.332c2.695-2.585,4.166-6.473,5.19-10.536,1.021-4.081,1.666-8.38,2.274-12.473,1.054-7.17,2.09-14.184,2.166-20.549a39.577,39.577,0,0,0-.759-8.862,17.322,17.322,0,0,0-2.989-6.851,16.85,16.85,0,0,1,1.562.936,19.357,19.357,0,0,1,1.57,1.44c.459.576.957,1.192,1.389,1.856a21.939,21.939,0,0,1,1.124,2.095,18.171,18.171,0,0,1,1.728,7.351,126.747,126.747,0,0,1-2.036,16.8c-.915,5.15-1.684,9.946-2.567,14.479-.929,4.5-1.988,8.8-4.254,12.428a13.825,13.825,0,0,1-4.339,4.432,22.285,22.285,0,0,1-5.132,2.346,29.011,29.011,0,0,1-5.892,1.208A35.857,35.857,0,0,1,191.788,309.989Z" transform="matrix(-1, 0, 0, 1, 380, 0)" /><path d="M213.318,244.211c.048-.325,1.385-.922,2.988-1.44.8-.241,1.664-.513,2.455-.729s1.509-.41,2.015-.6a55.8,55.8,0,0,1,11.7-2.385,52.145,52.145,0,0,1,17.786.679c-1.984,1.633-5.687,2.863-7.031,2.624a44.31,44.31,0,0,0-14.345-.218c-4.163.566-7.682,1.473-10.817,1.888A34.6,34.6,0,0,1,213.318,244.211Z" transform="matrix(-1, 0, 0, 1, 380, 0)" /><g class="cls-4" transform="matrix(-1, 0, 0, 1, 380, 0)"><path d="M229.329,258c-3.243,1.435-7.669,6.721-8.789,11.437-1.149,4.84-.232,11.441-5,25.935-.956,2.9,21.488,6.3,25.87-.038s6.008-18.813,6.5-25.948,2.843-10.619-3.355-11.759C238.732,256.558,233.05,256.357,229.329,258Z" /><path d="M229.317,257.975a7.566,7.566,0,0,1,3.385-1.31,27.614,27.614,0,0,1,7.5-.279c1.417.111,2.873.3,4.312.529a12.875,12.875,0,0,1,2.224.556,4.672,4.672,0,0,1,2.028,1.436,4.616,4.616,0,0,1,.8,2.27,13.21,13.21,0,0,1-.02,2l-.3,3.147c-.143,1.552-.185,3.049-.246,4.712-.071,1.632-.194,3.284-.354,4.951a74.572,74.572,0,0,1-1.655,10.111,43.018,43.018,0,0,1-1.516,5.046,24.533,24.533,0,0,1-2.366,4.888,5.954,5.954,0,0,1-.433.644,6.238,6.238,0,0,1-.569.646,7.761,7.761,0,0,1-1.261,1.022,11.9,11.9,0,0,1-2.657,1.279,23.29,23.29,0,0,1-5.237,1.086,42.734,42.734,0,0,1-9.939-.246,33.031,33.031,0,0,1-4.873-1.023c-.409-.124-.818-.258-1.237-.421a9.521,9.521,0,0,1-1.5-.717,3.937,3.937,0,0,1-1.547-1.506,2.607,2.607,0,0,1-.184-2.046l.593-1.839c.152-.456.3-.913.431-1.371.273-.914.557-1.821.8-2.73.52-1.812.941-3.616,1.337-5.4.775-3.574,1.2-7.041,1.649-10.516a21.711,21.711,0,0,1,1.215-5.231,19.109,19.109,0,0,1,2.525-4.411,17.323,17.323,0,0,1,6.882-5.774,17.922,17.922,0,0,0-3.876,4.584,24.126,24.126,0,0,0-2.724,5.946,26.256,26.256,0,0,0-.676,5.963,36.572,36.572,0,0,1-.451,4.754c-.547,2.958-1.237,5.83-2.023,8.581-.384,1.379-.811,2.725-1.242,4.047q-.332.988-.657,1.964l-.344.965-.17.48-.086.213a1.8,1.8,0,0,0-.1.284.382.382,0,0,0,.1.273,1.691,1.691,0,0,0,.5.373,13.478,13.478,0,0,0,2.263.859,33.386,33.386,0,0,0,4.9,1,36.736,36.736,0,0,0,9.637.085c3.04-.465,6.109-1.346,7.263-3.994a33.029,33.029,0,0,0,3.051-8.042,91.909,91.909,0,0,0,2.325-15.9c.108-2.578.612-5.167.831-7.409a3.578,3.578,0,0,0-.447-2.608,4.454,4.454,0,0,0-2.448-1.193,59.534,59.534,0,0,0-8.9-1.365,22.78,22.78,0,0,0-4.084.105A14.434,14.434,0,0,0,229.317,257.975Z" /></g><path class="cls-5" d="M255.182,260.774c-13.827,1.775-24-.452-22.915-5.039.925-3.928,20.7-3.642,21.824-3.632A24.268,24.268,0,0,1,255.182,260.774Z" transform="matrix(-1, 0, 0, 1, 380, 0)" /><path d="M255.151,260.772a13.963,13.963,0,0,1-.489-3.1c-.122-.822-.291-1.74-.512-2.666l-.177-.694c-.063-.228-.13-.483-.177-.619a4.379,4.379,0,0,0-.315-.817l-1.185.091c-.539.037-1.022.081-1.424.131-2.812.356-5.821.664-8.8,1.084-1.484.214-2.966.451-4.364.773-.7.159-1.37.347-1.994.556a5.753,5.753,0,0,0-1.472.71c-.167.131-.073.07-.095.1,0,.015,0,0,.016.034a.743.743,0,0,0,.186.451,5.544,5.544,0,0,0,2.242,1.34,29.589,29.589,0,0,0,6.547,1.383c4.441.5,8.6.553,11.967.683a17.913,17.913,0,0,1-5.612,2.507,14.027,14.027,0,0,1-5.22.587,55.47,55.47,0,0,1-5.875-1.292,15.485,15.485,0,0,1-5.319-2.429,4.2,4.2,0,0,1-1.675-2.7,3.12,3.12,0,0,1,.224-1.683,2.848,2.848,0,0,1,1.1-1.225,9.452,9.452,0,0,1,2.447-1.057c.8-.246,1.593-.417,2.372-.578a76.914,76.914,0,0,1,8.782-1.125q2.061-.156,3.993-.21l1.9-.024,1.244.013,1.386.033a18.489,18.489,0,0,1,.644,2.365,15.51,15.51,0,0,1,.215,4.333A14.559,14.559,0,0,1,255.151,260.772Z" transform="matrix(-1, 0, 0, 1, 380, 0)" /><path class="cls-5" d="M251.355,282.816c-.564.182-18.355,2.423-19.723,4.883-1.6,2.876,13.267,4.43,17.02,3.9" transform="matrix(-1, 0, 0, 1, 380, 0)" /><path d="M248.657,291.631c-.11.355-1.662.622-3.424.653-1.766.052-3.761-.066-4.891-.029a24.458,24.458,0,0,1-6.35-.588l-.216-.054c-.107-.027-.219-.058-.335-.1l-.682-.234a8.069,8.069,0,0,1-1.274-.587,3.416,3.416,0,0,1-1.617-1.711,2.546,2.546,0,0,1,.169-2.207,4.271,4.271,0,0,1,1.8-1.63c.365-.188.761-.354,1.145-.531.2-.083.4-.158.6-.23l.34-.126c.445-.153.889-.3,1.327-.423.878-.253,1.745-.463,2.6-.645a49.68,49.68,0,0,1,4.979-.77c1.6-.168,3.122-.253,4.539-.275.709-.01,1.391,0,2.042.018l.95.042.453.027.215.015.1.007a.22.22,0,0,1,.021.009l.01,0,.006,0,.132.394-.128-.382,0,.009,0,.02-.011.042a.858.858,0,0,1-.075.091c-.054.061-.112.122-.174.182-.123.121-.255.24-.392.357-.274.234-.572.461-.884.679a16.782,16.782,0,0,1-1.961,1.172,8.416,8.416,0,0,1-3.308,1.087,34.867,34.867,0,0,0-7.941.588q-.906.18-1.752.429l-.331.1-.261.088a4.916,4.916,0,0,0-.51.209c-.315.158-.674.352-.749.706-.038.375.325.616.609.766a4.352,4.352,0,0,0,.913.34l.6.155.733.162c.977.2,1.943.336,2.879.456,1.875.239,3.634.4,5.27.654C245.376,290.779,248.07,291.577,248.657,291.631Z" transform="matrix(-1, 0, 0, 1, 380, 0)" /><g class="cls-4" transform="matrix(-1, 0, 0, 1, 380, 0)"><path d="M90.112,262.488c-5.316,5.966-11.506,13.485-9.328,13.551,1.339.041,8.8-8.383,14.492-14.606,5.119-5.594,10.541-11.554,10.5-13.025C105.678,245.405,95.414,256.538,90.112,262.488Z" /><path d="M90.09,262.468c-.072-.9,7.431-9.2,10.469-12.376a27.27,27.27,0,0,1,2.146-2.119,8.558,8.558,0,0,1,1.385-1.016,2.532,2.532,0,0,1,1.4-.386,1.721,1.721,0,0,1,1.37.814,2.181,2.181,0,0,1,.179.359l.06.241a1.885,1.885,0,0,1,.054.482,4.248,4.248,0,0,1-.048.446l-.043.22-.045.137-.2.526c-.135.265-.273.573-.416.8-.284.5-.582.95-.885,1.4-.606.888-1.246,1.716-1.892,2.546-2.6,3.281-5.381,6.384-7.973,9.344-2.269,2.589-4.56,5.15-6.891,7.589-1.168,1.22-2.341,2.408-3.567,3.551-.619.572-1.238,1.129-1.95,1.682a7.428,7.428,0,0,1-1.368.873,2.655,2.655,0,0,1-.943.244,2.06,2.06,0,0,1-.585-.043c-.089-.017-.178-.038-.264-.061a2.507,2.507,0,0,1-.366-.159,1.938,1.938,0,0,1-.663-.543,2.484,2.484,0,0,1-.255-.384,2.564,2.564,0,0,1-.125-.332,2.815,2.815,0,0,1-.082-.344,1.974,1.974,0,0,1-.018-.245,2.936,2.936,0,0,1,.018-.435,4.961,4.961,0,0,1,.618-1.668c.226-.4.457-.757.69-1.1.468-.678.947-1.29,1.428-1.879.964-1.175,1.936-2.248,2.892-3.258,1.914-2.015,3.765-3.768,5.465-5.269-1.465,4.084-5.6,10.785-6.964,12.734-.188.242-.343.472-.468.666l-.081.128a.51.51,0,0,1-.049.072l0-.009a2.22,2.22,0,0,0-.234-.05c-.155-.035-.386-.032-.488-.058a1.192,1.192,0,0,0-.363,0c-.15.032-.15,0-.236.034a.631.631,0,0,0-.086.042.039.039,0,0,0-.012,0,.059.059,0,0,0-.019.015.253.253,0,0,0,.042-.054,1.156,1.156,0,0,0,.089-.477c-.01.261.015-.635-.023.575l.006-.052a.868.868,0,0,0,0-.1.741.741,0,0,0-.038-.195.794.794,0,0,0-.038-.089l-.037-.155a2.75,2.75,0,0,0-.1-.3,2.808,2.808,0,0,0-.13-.284.9.9,0,0,0-.063-.109l.009,0,.038-.01a3.36,3.36,0,0,0,.647-.359,30.89,30.89,0,0,0,2.991-2.408c1.938-1.727,3.745-3.514,5.466-5.272q5.136-5.3,9.395-10.2c1.413-1.632,2.754-3.235,3.956-4.824a20.938,20.938,0,0,0,1.587-2.354l.144-.276.086-.227c.013-.034.038-.087.022-.073h-.005c.005,0-.039,0,.126.009l.175,0,.088-.007.044,0c.413-.014-.508.012-.418.011.008,0-.033.018.021.017a1.206,1.206,0,0,0,.263-.049c.085-.023.191-.077.2-.065.055.01.178-.1.161-.095a.066.066,0,0,0-.016.038c0,.011.01,0-.021.085a.745.745,0,0,0,.008.38c.025.318.009.168,0,.207a2.535,2.535,0,0,0-.389.2,31.307,31.307,0,0,0-3.968,3.4l-3.65,3.541C95.152,258.3,90.935,261.789,90.09,262.468Z" /></g><g class="cls-4" transform="matrix(-1, 0, 0, 1, 380, 0)"><path d="M105.259,259.607c-8.235,9.543-20.409,23.645-15.112,23.5,3.5-.1,17.338-15.574,24.074-23.1,7.966-8.906,16.642-18.317,15.356-21.142C127.65,234.624,114.445,248.963,105.259,259.607Z" /><path d="M105.236,259.587c.093-.579,3.071-4.3,6.718-8.44a135.964,135.964,0,0,1,10.689-11.008,21.533,21.533,0,0,1,3.115-2.379l.59-.32c.228-.116.468-.186.7-.281a2.676,2.676,0,0,1,.722-.2,2.279,2.279,0,0,1,.724-.07,2.635,2.635,0,0,1,1.37.379,3.137,3.137,0,0,1,.934,1.13,4.16,4.16,0,0,1-.085,2.892,8.788,8.788,0,0,1-.476,1.181c-.149.328-.314.631-.477.941a35.748,35.748,0,0,1-2.2,3.427c-1.563,2.185-3.251,4.265-4.964,6.316-3.444,4.091-6.951,8.045-10.314,11.9-3.18,3.608-6.409,7.154-9.719,10.513-1.658,1.678-3.33,3.312-5.072,4.862-.873.775-1.759,1.531-2.7,2.251-.242.179-.47.36-.722.534l-.53.37c-.223.15-.45.28-.676.409a6.034,6.034,0,0,1-2.618.955,4.179,4.179,0,0,1-1.529-.268,2.712,2.712,0,0,1-1.2-1.021,3.579,3.579,0,0,1-.134-3.114,7.008,7.008,0,0,1,.356-.9,8.934,8.934,0,0,1,.418-.89l.371-.657.3-.482c.4-.638.814-1.236,1.23-1.824,1.679-2.327,3.429-4.4,5.135-6.358,3.424-3.9,6.714-7.279,9.635-10.2a118.6,118.6,0,0,1-6.546,10.807c-2.487,3.75-4.792,7.224-6,8.932-.175.234-.333.468-.492.7l-.231.35-.053.083H91.5a.052.052,0,0,0-.019.006.637.637,0,0,0-.2.19.431.431,0,0,0-.1.36.267.267,0,0,0,.269.151,1.436,1.436,0,0,0,.5-.163,1.6,1.6,0,0,0,.151-.093l.211-.138.42-.293c.28-.192.555-.407.832-.609,1.1-.839,2.166-1.739,3.2-2.653,2.071-1.834,4.033-3.729,5.918-5.621,3.77-3.789,7.232-7.573,10.508-11.237s6.406-7.178,9.243-10.638c1.417-1.729,2.764-3.448,3.954-5.181a24.731,24.731,0,0,0,1.592-2.61c.105-.218.219-.435.3-.649a3.7,3.7,0,0,0,.144-.387,1.364,1.364,0,0,0,.054-.725.667.667,0,0,0-.923-.4,2.419,2.419,0,0,0-.506.211c-.21.1-.591.336-.876.511a33.709,33.709,0,0,0-3.509,2.73c-2.228,1.952-4.284,3.974-6.267,5.924C112.84,252.34,106.492,258.4,105.236,259.587Z" /></g><g class="cls-4" transform="matrix(-1, 0, 0, 1, 380, 0)"><path d="M146.909,236.492c-4.676,2.624-15.6,12.093-23.1,20.071s-19.581,20.154-20.158,26.9c-.333,3.889-.169,9.241,7.206,10.917s13.97-1.376,20.571-2.916c4.914-1.147,16.837,1.908,19.908,5.332,4.8,5.356,13.9,7.454,23,8.233s24.133,1.21,29.524-7.1c6.856-10.569,11.075-30.951,7.6-43.368-3.449-12.31-30.262-17.892-43.934-20.108S151.351,234,146.909,236.492Z" /><path d="M146.894,236.466A15.778,15.778,0,0,1,149.142,235a14.821,14.821,0,0,1,5.484-1.806c4.714-.6,10.873.3,17.341,1.4a144.29,144.29,0,0,1,19.514,4.66,73.577,73.577,0,0,1,8.5,3.309,39.662,39.662,0,0,1,6.482,3.786,19.654,19.654,0,0,1,4.18,4.067c.311.392.556.845.836,1.269.246.448.474.913.689,1.384a15.433,15.433,0,0,1,.5,1.464l.359,1.428a45.128,45.128,0,0,1,.986,11.739,72.82,72.82,0,0,1-4.876,23.446c-.354.953-.8,1.876-1.2,2.816-.432.929-.914,1.841-1.382,2.758l-.79,1.343a9.9,9.9,0,0,1-.886,1.351,13.874,13.874,0,0,1-1.064,1.326l-1.215,1.175a20.174,20.174,0,0,1-5.671,3.208,34.549,34.549,0,0,1-6.068,1.533,63.213,63.213,0,0,1-12.051.54,92.062,92.062,0,0,1-11.694-1.154,43.022,43.022,0,0,1-9.971-2.87,23.135,23.135,0,0,1-4.658-2.681,13.226,13.226,0,0,1-1.072-.863,10.523,10.523,0,0,1-1.013-.949l-.488-.5-.327-.3a5.506,5.506,0,0,0-.732-.571,19.2,19.2,0,0,0-3.977-1.916,37.653,37.653,0,0,0-8.968-2.084,13.424,13.424,0,0,0-4.174.122c-3,.7-6.051,1.728-9.266,2.46a27.611,27.611,0,0,1-10.046.689,17.341,17.341,0,0,1-5.032-1.412,9.8,9.8,0,0,1-4.21-3.72,11.094,11.094,0,0,1-1.4-5.225,19.726,19.726,0,0,1,.065-2.473,9.787,9.787,0,0,1,.19-1.3,6.413,6.413,0,0,1,.33-1.294,29.79,29.79,0,0,1,4.678-8.151c1.8-2.388,3.713-4.588,5.629-6.709,3.848-4.237,7.714-8.106,11.427-11.889,3.779-3.752,7.572-7.159,11.307-10.266,1.869-1.551,3.723-3.026,5.576-4.406a49.089,49.089,0,0,1,5.65-3.739,107.511,107.511,0,0,0-10.263,9.318c-3.639,3.627-7.441,7.615-10.943,11.618-3.52,4.057-7,7.942-9.9,11.367s-5.234,6.4-6.719,8.475a18.781,18.781,0,0,0-3.316,6.336,9.16,9.16,0,0,0-.22,1.725,13.538,13.538,0,0,0-.005,1.755,7.433,7.433,0,0,0,.818,3.07,5.97,5.97,0,0,0,2.16,2.175,11.305,11.305,0,0,0,3.165,1.217,19.623,19.623,0,0,0,3.526.477,24.942,24.942,0,0,0,3.587-.165,51.524,51.524,0,0,0,7.165-1.531l3.6-.958,1.824-.437a12.282,12.282,0,0,1,2.007-.236,30.026,30.026,0,0,1,7.475.867,38.48,38.48,0,0,1,6.969,2.285,16.54,16.54,0,0,1,3.243,1.835,4.958,4.958,0,0,1,.753.628c.249.236.487.469.661.653a12.1,12.1,0,0,0,1.2,1.144A20.614,20.614,0,0,0,159.141,301a49.121,49.121,0,0,0,12.945,3.024,88.424,88.424,0,0,0,12.984.56,43.136,43.136,0,0,0,6.259-.652c1.027-.157,2.016-.433,3.01-.674a24.851,24.851,0,0,0,2.844-1.034,14.146,14.146,0,0,0,4.806-3.276,14.457,14.457,0,0,0,1.675-2.347l.751-1.282.674-1.323a59.34,59.34,0,0,0,4.078-10.966,65.855,65.855,0,0,0,2.3-22.046l-.116-1.325-.2-1.3c-.072-.432-.126-.868-.21-1.294l-.3-1.262a10.257,10.257,0,0,0-.76-2.34,7.276,7.276,0,0,0-.569-1.061l-.315-.516-.368-.487a23.989,23.989,0,0,0-7.7-6.115,85.13,85.13,0,0,0-18.211-6.713c-2.9-.749-6.347-1.578-9.969-2.346s-7.409-1.528-10.967-2a27.1,27.1,0,0,0-9.542.028,16.259,16.259,0,0,0-3.3,1.2C148.039,235.875,147.353,236.237,146.894,236.466Z" /></g><path class="cls-3" d="M116.513,284.486c.281,2.65,4.336,5.029,16.323,5.886,9.8.7,20.966,1.541,22.131-1.675,1.2-3.316-11.451-5.726-21.19-6.563S116.2,281.481,116.513,284.486Z" transform="matrix(-1, 0, 0, 1, 380, 0)" /><path class="cls-6" d="M116.483,284.489a.93.93,0,0,1-.081-.832,2.4,2.4,0,0,1,1.206-1.314,13.132,13.132,0,0,1,4.89-1.177c3.75-.335,7.968-.105,10.321-.108a78.391,78.391,0,0,1,12.23.994,45.308,45.308,0,0,1,6.3,1.438,16.115,16.115,0,0,1,3.207,1.366l.209.131c.085.054.2.121.289.19l.562.466a4.228,4.228,0,0,1,.887,1.09,3.427,3.427,0,0,1,.414,1.285,4,4,0,0,1-.165,1.333,4.433,4.433,0,0,1-2.172,2.307l-.527.247-.42.161c-.279.1-.547.18-.816.257a15.285,15.285,0,0,1-1.557.33,27.315,27.315,0,0,1-2.966.3c-1.934.1-3.81.07-5.649-.006-3.682-.163-7.191-.5-10.557-.872a48.753,48.753,0,0,1-9.606-1.924,16.81,16.81,0,0,1-4.128-1.937,4.837,4.837,0,0,1-2.407-3.671,4.544,4.544,0,0,0,3.182,2.366,23.967,23.967,0,0,0,4.276.685c2.894.26,5.671.313,7.109.613,2.2.434,4.465.766,6.636,1.066s4.3.534,6.375.681a44.14,44.14,0,0,0,6.035.074c1.864-.145,4.048-.488,4.484-1.434a.992.992,0,0,0-.431-1.217,2.617,2.617,0,0,0-.291-.207,4.8,4.8,0,0,0-.433-.257,9.417,9.417,0,0,0-.938-.448,26.119,26.119,0,0,0-4.025-1.257,73.371,73.371,0,0,0-7.964-1.358c-5.141-.611-9.907-.9-14.243-1.13-1.666-.043-3.944-.227-5.913-.086a6.338,6.338,0,0,0-2.51.592A1.5,1.5,0,0,0,116.483,284.489Z" transform="matrix(-1, 0, 0, 1, 380, 0)" /><g class="cls-2" transform="matrix(-1, 0, 0, 1, 380, 0)"><path class="cls-3" d="M118.8,232.548c-1.115,4.367-13.509,2.7-23.125,8.773a76.7,76.7,0,0,0-17.983,15.473c-2.6,3.113-9.125,2.846-8.433-5.321s.6-17.341,11.417-21.583S120.478,225.988,118.8,232.548Z" /></g><g class="cls-2" transform="matrix(-1, 0, 0, 1, 380, 0)"><path class="cls-3" d="M75.8,271.918c.111,3.1.452,8.17-2.586,7.593s-4.08-5.639-3.9-9.61S75.567,265.58,75.8,271.918Z" /></g><path d="M223.3,297.855c.294-.059.558.21.59.689a2.719,2.719,0,0,1-.433,1.334,2.037,2.037,0,0,1-1.729,1.093,2.692,2.692,0,0,1-2.362-1.258,2.844,2.844,0,0,1-.529-1.662,2.6,2.6,0,0,1,.832-1.915,1.992,1.992,0,0,1,1.37-.523,2.091,2.091,0,0,1,1.072.348,6.739,6.739,0,0,0,.187,2.044,2.48,2.48,0,0,0,.109.282.5.5,0,0,0,.056.1l.026.038-.029-.039a2.346,2.346,0,0,0-.232-.262,1.18,1.18,0,0,0-.275-.208c.141.024-.072-.012-.087.035a.2.2,0,0,0-.122.144c-.068.1.009.331.019.36.012.051.065.056.117.05a.453.453,0,0,0,.294-.245c.047-.11,0-.093.116-.031a.672.672,0,0,0,.482-.027A1.874,1.874,0,0,0,223.3,297.855Z" transform="matrix(-1, 0, 0, 1, 380, 0)" /><path d="M233.222,297.7c.294-.059.558.211.59.69a2.719,2.719,0,0,1-.433,1.333,2.035,2.035,0,0,1-1.729,1.093,2.692,2.692,0,0,1-2.362-1.258,2.844,2.844,0,0,1-.529-1.662,2.593,2.593,0,0,1,.832-1.914,1.988,1.988,0,0,1,1.37-.524,2.087,2.087,0,0,1,1.072.348,6.739,6.739,0,0,0,.187,2.044,2.581,2.581,0,0,0,.109.283.5.5,0,0,0,.056.1l.026.038-.029-.038a2.256,2.256,0,0,0-.232-.262,1.065,1.065,0,0,0-.275-.208c.141.023-.072-.013-.087.034a.2.2,0,0,0-.122.145c-.068.1.009.33.019.359.012.051.065.056.117.051a.459.459,0,0,0,.294-.245c.047-.11,0-.094.116-.032a.672.672,0,0,0,.482-.027A1.874,1.874,0,0,0,233.222,297.7Z" transform="matrix(-1, 0, 0, 1, 380, 0)" /><path d="M187.794,311.67c4.776.324,19.619,1.488,29.724.712,11.658-.895,18.232-3.28,25.972-9.395C213.716,310.5,202.158,308.707,187.794,311.67Z" transform="matrix(-1, 0, 0, 1, 380, 0)" /><path d="M246.146,300.766c-.027.326-1.426,1.123-3.138,1.832-.863.325-1.784.693-2.637.988-.857.275-1.633.537-2.179.767a53.957,53.957,0,0,1-12.8,2.953,55.24,55.24,0,0,1-19.531-.691c2.219-1.575,6.279-2.76,7.747-2.519a46.822,46.822,0,0,0,15.688.012c4.544-.723,8.347-1.865,11.717-2.591.78-.237,1.944-.292,2.928-.482C244.941,300.883,245.843,300.787,246.146,300.766Z" transform="matrix(-1, 0, 0, 1, 380, 0)" /><path d="M122.5,293.683c.009.616-.369.691-.453,1.131a1.272,1.272,0,0,1-.693.923,2.547,2.547,0,0,1-1.224.329c-.7.074-1.608-.569-1.436-.731a1.866,1.866,0,0,0-.12-1.166,3.51,3.51,0,0,1,.668-1.967c.343-.415.712-.526.813-.326a3.571,3.571,0,0,1,.271.9.823.823,0,0,0,.035.427.271.271,0,0,0,.412.141,1.051,1.051,0,0,0,.288-.344.662.662,0,0,1,.6-.192C121.927,292.781,122.463,293.493,122.5,293.683Z" transform="matrix(-1, 0, 0, 1, 380, 0)" /><path d="M149.505,295.026a.526.526,0,0,1,.389.611c-.011.3-.163.6-.187.855a1.678,1.678,0,0,1-.625,1.134,2.91,2.91,0,0,1-1.084.532,1.977,1.977,0,0,1-1.881-.459,1.618,1.618,0,0,1-.448-1.773,6.978,6.978,0,0,0,1.577-1.22c.3-.319.381-.62.278-.393a.953.953,0,0,0,.052,1.03.348.348,0,0,0,.485.04.634.634,0,0,0,.207-.365c.03-.1.016-.134.161-.09a3.159,3.159,0,0,0,.478.1A3.036,3.036,0,0,0,149.505,295.026Z" transform="matrix(-1, 0, 0, 1, 380, 0)" /><g class="cls-2" transform="matrix(-1, 0, 0, 1, 380, 0)"><path class="cls-3" d="M213.331,244a5.328,5.328,0,0,1-1.121-.736c-.286-.21-.6-.481-.979-.754l-1.308-.854c-.914-.67-2.121-1.242-3.358-1.968l-2.022-.973-1.058-.506-1.112-.458a95.354,95.354,0,0,0-17.127-5.241,319.96,319.96,0,0,0-45.694-5.524c-13.123-.757-26.11-1.339-37.928-1.341-5.905.017-11.523.169-16.676.658a60.373,60.373,0,0,0-7.316,1.1,16.246,16.246,0,0,0-6.023,2.373,9.489,9.489,0,0,1,2.321-2.112,20.769,20.769,0,0,1,3.316-1.727,44.516,44.516,0,0,1,7.792-2.374,64.873,64.873,0,0,1,13.1-1.531c10.762.225,20.775.854,30.2,1.464,9.418.637,18.232,1.239,26.509,2.046s15.98,1.861,23.141,3.235a116.938,116.938,0,0,1,19.741,5.361,53.591,53.591,0,0,1,9.68,4.827l2.15,1.491,1.746,1.461C212.312,242.839,212.974,243.647,213.331,244Z" /></g></svg>