<svg xmlns="http://www.w3.org/2000/svg" data-name="Snoo Base" id="Snoo_Base" viewBox="0 0 380 600"><defs><style>.cls-1{fill:#ffffff;}.cls-2{fill:#02315c;}.cls-3{fill:#ffd635;}.cls-4{fill:#fb133a;}</style></defs><g id="default"><path class="cls-1 color-body" d="M219.59,391.44c7.58,9.52,14.23,22.32,22.21,41.3,8.86,21.06,18.83,37.36,29.71,32.7,13.62-5.83,9.48-36.62,4.49-51.09-6.05-17.58-19.42-51-47.78-60C217.34,350.92,214,365.93,214,365.93" style="fill:#ffffff;--backup-fill:#ffffff"></path><path d="M213.93,365.91c-.15-.55.16-3.31,2.09-6.94a12.8,12.8,0,0,1,4.94-5.18,9.37,9.37,0,0,1,4.2-1.07,12.47,12.47,0,0,1,4.38.8,52,52,0,0,1,15.39,8,78.46,78.46,0,0,1,10.54,9.56c8.76,9.34,15.52,21.48,20.69,34.12.65,1.58,1.27,3.17,1.88,4.77s1.19,3.16,1.77,4.87a97,97,0,0,1,4.74,30.55,49.3,49.3,0,0,1-1,9.09,25.72,25.72,0,0,1-3.76,9.11,16.31,16.31,0,0,1-3.82,3.92l-1.18.79-1.27.65a13.56,13.56,0,0,1-2.71.94,12.93,12.93,0,0,1-5.87,0,15.94,15.94,0,0,1-5-2.12,28.84,28.84,0,0,1-6.87-6.4,61.22,61.22,0,0,1-4.81-7.06,123.22,123.22,0,0,1-7.1-14.36c-1-2.36-2-4.76-2.85-7.05l-2.68-6.76c-1.78-4.42-3.57-8.68-5.39-12.72a140,140,0,0,0-11.49-21.29,56.47,56.47,0,0,1,8.53,8.31,102.18,102.18,0,0,1,8.14,11.24,112.87,112.87,0,0,1,10.24,20c3,8.45,6.27,16.56,10.74,23.44a36.18,36.18,0,0,0,3.65,4.73,16.66,16.66,0,0,0,4.31,3.44,9.27,9.27,0,0,0,2.36.84,8,8,0,0,0,2.4,0,9.21,9.21,0,0,0,4.45-2.2c2.57-2.31,4-5.94,4.74-9.55a49.81,49.81,0,0,0,.92-11.09A90.93,90.93,0,0,0,276,420.07c-.46-1.67-.95-3.32-1.52-4.91s-1.16-3.24-1.77-4.83q-1.8-4.75-3.81-9.24a131.45,131.45,0,0,0-8.88-16.69c-6.51-10.23-14.28-18.61-23.15-24a61.81,61.81,0,0,0-7.49-3.83l-1.06-.45c-.36-.15-.71-.3-1-.4a9.51,9.51,0,0,0-2-.47,7.19,7.19,0,0,0-3.92.69,13.94,13.94,0,0,0-5.37,5.51A26.89,26.89,0,0,0,213.93,365.91Z"></path></g><g data-name="default" id="default-2"><path class="cls-1 color-body" d="M140.36,463.37c.82-7.14,2.46-16.13,4.76-22.34,13.64-36.84-9-78.79,30.64-91.82,29.14-9.57,59.41,5.74,75.67,54.17,5.89,17.56,7.77,42.31,3.48,60" style="fill:#ffffff;--backup-fill:#ffffff"></path><path d="M254.85,463.36c-.2-.66.35-3.71.75-8.24a127.21,127.21,0,0,0,.37-17,132.06,132.06,0,0,0-2.31-19.43,90.35,90.35,0,0,0-4.33-15.31,147.25,147.25,0,0,0-9.42-19.89,86.45,86.45,0,0,0-13.45-17.95,53.27,53.27,0,0,0-18.15-12.25,43.23,43.23,0,0,0-20.8-2.7,51.31,51.31,0,0,0-8.91,1.86,45.68,45.68,0,0,0-8.29,3.37,26.29,26.29,0,0,0-11.62,11.75c-2.46,5-3.53,10.88-4.06,16.8s-.61,11.95-.79,17.89-.44,11.83-1.1,17.54a87.58,87.58,0,0,1-3.41,16.41c-.21.64-.41,1.28-.62,1.92s-.47,1.26-.71,1.88l-1.37,3.52c-.85,2.25-1.55,4.55-2.18,6.81-1.25,4.54-2.19,9-3,13.14a75.88,75.88,0,0,1,0-13.84,61.15,61.15,0,0,1,1.21-8l.9-3.91c.33-1.25.49-2.55.74-3.8,1.74-10.11,1.48-19.89,2-25.08s.65-10.45,1-15.64A127.19,127.19,0,0,1,149,377.75a44.88,44.88,0,0,1,5.16-14.61,32.29,32.29,0,0,1,10.59-10.74A49.08,49.08,0,0,1,178,346.85,55.77,55.77,0,0,1,191.64,345a49.78,49.78,0,0,1,25.23,6.71,65.58,65.58,0,0,1,18.38,16.17,87.07,87.07,0,0,1,6.67,9.53c1,1.61,1.9,3.28,2.83,4.9s1.76,3.29,2.52,5l1.17,2.48c.37.83.73,1.66,1.09,2.49.74,1.65,1.36,3.32,2,5s1.2,3.32,1.79,4.95,1.11,3.32,1.55,5a108.24,108.24,0,0,1,3.54,19.55,96.35,96.35,0,0,1,.44,10.34,108.56,108.56,0,0,1-.75,11.22A79.59,79.59,0,0,1,254.85,463.36Z"></path><path class="cls-1 color-body" d="M145.12,441c13.64-36.84-9-78.79,30.64-91.82,29.14-9.57,59.41,5.74,75.67,54.17,5.89,17.56,7.77,42.31,3.48,60h0s-6,10.25-50.16,13c-42.25,2.63-64.39-13-64.39-13h0C141.18,456.23,142.82,447.24,145.12,441Z" style="fill:#ffffff;--backup-fill:#ffffff"></path></g><path class="cls-2" d="M147,470.66c1.1-3.07,3.74-46.86,3.88-48.22,8.34,2.74,24.19-10.87,25.63-22.57,1.75-14.28-3.83-28.76-24.11-29.15q2.87-5.21,5.74-10.41c13.51,3.71,19.81,11.92,30.63,19.74,7.83,5.25,21.3,5.37,23.12,5.07,5.91-1,14.94-13.28,8-28.15,22,14.42,45.88,59.5,34.67,110C234.06,490.17,168.18,489.13,147,470.66Z"></path><path d="M147.05,470.63c.9.38,4.77,3.64,11.66,6.26a99,99,0,0,0,26.7,6A132.13,132.13,0,0,0,217,482a95.89,95.89,0,0,0,13.88-3.12,67.92,67.92,0,0,0,10.64-4.25l1.74-1a18.52,18.52,0,0,0,1.72-1l1.68-1.07c.54-.38,1.06-.79,1.6-1.19a39.06,39.06,0,0,0,3-2.55l1.36-1.44c.11-.14.25-.23.29-.36l.09-.63q.68-4.09,1.35-8.24c.24-2.79.49-5.59.73-8.41a122,122,0,0,0-3-34.07,114.15,114.15,0,0,0-12.81-31.94c-1.38-2.51-3.05-4.81-4.65-7.15l-.6-.88-.66-.82L232,372.29c-.9-1.08-1.71-2.25-2.7-3.23l-2.85-3a2.76,2.76,0,0,0-.39-.39l-.2-.17-.4-.35-.2-.17-.1-.09h0l-.09-.06-.08,0s0,.07,0,.1a1.24,1.24,0,0,1,.1.26v0h0v0s0-.09,0-.05v.08l.05.7.09,1.38c0,.46,0,.92,0,1.38s0,1.1-.08,1.66l-.23,1.64-.12.82-.2.81-.41,1.61a25.39,25.39,0,0,1-2.83,6,18.85,18.85,0,0,1-4.8,5l-.78.52c-.26.16-.58.3-.87.45s-.59.28-.91.41-.7.21-1.05.3a5.4,5.4,0,0,1-1.09.21c-.21,0-.36,0-.5,0l-.43,0c-.55,0-1.08,0-1.6,0a56.25,56.25,0,0,1-12.19-1.51,36.17,36.17,0,0,1-6-1.95c-.5-.19-1-.45-1.47-.68a16.17,16.17,0,0,1-1.46-.79c-.47-.3-1-.59-1.41-.89l-1.22-.91c-6.39-4.76-11.78-10.12-17.84-13.79a41.59,41.59,0,0,0-4.67-2.45c-.79-.36-1.6-.7-2.42-1l-1.12-.42c-.05,0-.05,0-.07,0l-1.08,1.92-1.29,2.32-.07.1c-.11.11,0,.08.12.11l2.25.38c1,.17,1.93.52,2.9.78a23.08,23.08,0,0,1,15.95,16.69,35.1,35.1,0,0,1,1,11.2c-.09.91-.19,1.81-.28,2.72-.06.47-.15,1-.24,1.46s-.22.95-.36,1.41a25,25,0,0,1-2.19,5.18,36.59,36.59,0,0,1-6.54,8.42,35.43,35.43,0,0,1-8.4,6.11,21,21,0,0,1-5,1.83,13.79,13.79,0,0,1-2.75.33c.07,0,.05,0,0,0h-.15l-.2,0-.41-.1c-.14-.09-.09.08-.12.16l0,.28-.07.59-.27,3.24q-.28,3.27-.55,6.47-.59,6.39-1.13,12.46t-1.2,11.82q-.33,2.86-.66,5.65c-.13.93-.26,1.85-.38,2.77-.08.46-.16.92-.23,1.38s-.23,1-.34,1.48c.06-.45.13-.92.16-1.35s0-.83,0-1.25c.05-.85,0-1.71.07-2.59,0-1.76,0-3.6.06-5.5,0-3.8.07-7.86.11-12.07s.12-8.57.18-13c0-2.19.09-4.4.13-6.61,0-1.13,0-2.26.08-3.39l.12-2.79.07-1.42a6,6,0,0,1,.14-1.31c.89.21,1.94.47,2.91.64l.72.1.36.05a2.22,2.22,0,0,0,.44,0l.61-.06a13.92,13.92,0,0,0,2.48-.68,23.09,23.09,0,0,0,4.73-2.62,35.09,35.09,0,0,0,7.46-7.26,26.71,26.71,0,0,0,4.18-7.57c.19-.59.35-1.16.47-1.71a13.43,13.43,0,0,0,.25-1.64c.12-1.16.24-2.23.26-3.19.32-6-1-12.09-4.78-16.3a17.33,17.33,0,0,0-6.9-4.76,13.39,13.39,0,0,0-2.05-.7,12.43,12.43,0,0,0-2.12-.54l-1.08-.2-.65-.12a8.13,8.13,0,0,0-1-.13l-4-.34-1.95-.17-.24,0s.06-.13.08-.19l.25-.44.49-.87,1.94-3.44q1.38-2.4,2.73-4.79l1.42-2.49.92-1.64.23-.4c.05,0,.05-.19.14-.15l.22.07.89.28,1.77.56.88.28c.28.09.4.15.61.22.74.3,1.5.56,2.23.88,5.91,2.47,10.95,6.33,15.52,10.2,2.3,1.93,4.53,3.87,6.81,5.7,1.13.91,2.28,1.79,3.42,2.64a22.51,22.51,0,0,0,3.61,1.91A46.13,46.13,0,0,0,209.64,384c.67,0,1.42,0,2,0a5.86,5.86,0,0,0,1.62-.55,10.38,10.38,0,0,0,3-2.29,18.33,18.33,0,0,0,3.95-6.72,21.09,21.09,0,0,0,1-7.72l-.07-1a4.82,4.82,0,0,0-.06-.67l-.17-.75-.72-3c-.36-1.09-.81-2.27-1.21-3.4-.21-.56-.42-1.17-.62-1.68l-.62-1.51.35-.4s0-.08.08,0l.22.16.43.33.88.64,3.5,2.58c1.13.87,2.1,1.79,3.15,2.68L227.9,362l.77.67c.12.11.27.23.37.33l.28.3,2.22,2.38c.72.81,1.51,1.55,2.15,2.42,1.31,1.7,2.71,3.32,3.94,5.05a104.58,104.58,0,0,1,12,21.81c.4.94.79,1.87,1.18,2.81s.67,1.91,1,2.86c.63,1.91,1.36,3.78,1.91,5.7s1.05,3.84,1.56,5.75l.39,1.42.29,1.45c.19,1,.39,1.93.58,2.88.88,3.82,1.25,7.68,1.76,11.48a27.36,27.36,0,0,1,.23,2.85c.06.95.11,1.9.16,2.85s.11,1.89.16,2.83l.08,1.42,0,1.41c0,1.87-.08,3.74-.11,5.6,0,.93,0,1.86-.1,2.78s-.18,1.84-.26,2.75c-.18,1.83-.36,3.65-.53,5.47s-.61,3.58-.9,5.35c-.16.89-.31,1.78-.47,2.66l-.25,1.39-.17,1c0,.19-.18.27-.28.4l-.35.36-1.07,1.11c-.33.32-.63.68-1,1l-2.08,1.79a51.94,51.94,0,0,1-9.12,5.57,76.44,76.44,0,0,1-9.66,3.71,97.44,97.44,0,0,1-9.79,2.38,116,116,0,0,1-19.31,2,118.53,118.53,0,0,1-34.34-4.1,71,71,0,0,1-14.5-5.78A39.37,39.37,0,0,1,147.05,470.63Z"></path><path class="cls-3" d="M148.15,471.1s104.81-5.22,105-4.86c-6.11,6.2-21.45,16.3-48.46,17.13C180.16,484.13,159.56,480.08,148.15,471.1Z"></path><path class="cls-4" d="M253.19,466.24c-27.2,20.14-78.7,18.22-105,4.86.24-4.55.37-6.16.61-10.69,30.7,9.52,78.19,12,106-7.73C254.33,458.16,254,460.56,253.19,466.24Z"></path><path class="cls-2" d="M254.77,452.29c-27.79,19.71-75.42,15.84-106,7.51.25-4.52.37-6.79.62-11.5,31.12,6.7,77.78,9.61,105.78-9.55A116.36,116.36,0,0,1,254.77,452.29Z"></path><path class="cls-3" d="M255.16,438.75c-28,19.16-74.66,16.25-105.78,9.55.24-4.71.37-7.12.63-12.24,31,5.24,76.31,7.69,104.11-10.62A94,94,0,0,1,255.16,438.75Z"></path><path class="cls-4" d="M254.12,425.44C226.32,443.75,181,441.3,150,436.06c.26-5.12.39-7.78.67-13.52,29.25,3.85,74.63,7.59,100.69-10.36A85.65,85.65,0,0,1,254.12,425.44Z"></path><g data-name="default" id="default-3"><path class="cls-1 color-body" d="M169.21,402.43c-4.77,11.19-7.75,25.3-10.38,45.72-2.91,22.66-8.17,41-19.89,39.46-14.69-2-18.92-32.77-18-48,1.14-18.56,3.92-46,22.5-62.52,15.91-14.11,23,0,23,0" style="fill:#ffffff;--backup-fill:#ffffff"></path><path d="M166.37,377.05a19.84,19.84,0,0,1-1.56-1.57,13.8,13.8,0,0,0-3.59-2.66,10,10,0,0,0-5.86-.92,12.88,12.88,0,0,0-1.68.35l-1.69.59c-.56.26-1.11.56-1.67.84-.28.15-.57.27-.84.45l-.81.55-1.62,1.11-1.55,1.3a31.18,31.18,0,0,0-3,2.8c-.47.49-1,1-1.42,1.46l-1.29,1.57-1.27,1.54c-.41.52-.75,1.08-1.13,1.61a55.78,55.78,0,0,0-3.78,6.23,54.71,54.71,0,0,0-2.37,5.43c-4.18,11.12-6,23.85-6.67,36.82l-.25,4.88c-.07,1.59-.08,3.13,0,4.72.07,3.16.3,6.34.68,9.47a77.51,77.51,0,0,0,4.11,17.89,34.65,34.65,0,0,0,3.26,6.63,14,14,0,0,0,4.39,4.53,7,7,0,0,0,2.46.91,5.69,5.69,0,0,0,2.37,0,8,8,0,0,0,4.18-3.17,28.52,28.52,0,0,0,3.31-6.07,66.93,66.93,0,0,0,2.37-7c1.35-4.78,2.34-9.68,3.19-14.49s1.53-9.68,2.41-14.34,1.82-9.19,2.9-13.51a106,106,0,0,1,8.22-23c-.52,3.33-1.14,7.32-1.67,11.57s-1,8.8-1.4,13.21c-.81,8.82-1.46,17.15-2.32,21.47-1.76,8.87-3.62,17.52-6.71,25.69a48.61,48.61,0,0,1-2.72,6,25.59,25.59,0,0,1-3.87,5.48,15.47,15.47,0,0,1-2.68,2.27,12.22,12.22,0,0,1-3.28,1.5,12,12,0,0,1-3.56.4,13.68,13.68,0,0,1-3.39-.67,14.81,14.81,0,0,1-5.58-3.54,23.79,23.79,0,0,1-3.74-4.92,46.72,46.72,0,0,1-4.43-10.78,98.86,98.86,0,0,1-3.49-21.53,86,86,0,0,1,0-10.41c.17-3.37.42-6.69.71-9.95a130.91,130.91,0,0,1,3.07-18.86A77,77,0,0,1,129.35,392a54.4,54.4,0,0,1,10-13.73c1-.89,2-1.88,3.13-2.84.61-.45,1.24-.91,1.87-1.39l1-.7,1.07-.61a18.08,18.08,0,0,1,9.47-3l1.22.11a5.7,5.7,0,0,1,1.18.19,9.73,9.73,0,0,1,2.15.74,11.51,11.51,0,0,1,3.24,2.24A12.94,12.94,0,0,1,166.37,377.05Z"></path></g></svg>