<svg xmlns="http://www.w3.org/2000/svg" id="outfits_3" viewBox="0 0 380 600"><defs transform="matrix(-1, 0, 0, 1, 380, 0)"><style>.cls-1{fill:none;}.cls-2{fill:#ffffff;}.cls-3{fill:#fff;}.cls-4{clip-path:url(#clip-path);}.cls-5{fill:#ff4500;}.cls-6{fill:#ff8717;}.cls-7{fill:#ffd635;}.cls-8{fill:#46d160;}.cls-9{fill:#24a0ed;}.cls-10{fill:#7e53c1;}</style><clipPath id="clip-path"><path class="cls-1" d="M160.839,414.135c-8.969-28.571-41.313-12.8-28.018,19.612,6.456,15.74,12.394,23.2,19.54,38.439,9.628-5.368,28.677-16.319,38.2-32.745,15.244-26.35-16.205-45.709-29.822-24.9" /></clipPath></defs><g id="default" transform="matrix(-1, 0, 0, 1, 380, 0)"><path class="cls-2 color-body" d="M160.412,391.943c-7.582,9.513-14.229,22.312-22.211,41.293-8.856,21.061-18.834,37.366-29.709,32.709-13.624-5.834-9.478-36.627-4.5-51.1,6.055-17.583,19.428-51.04,47.782-59.992,10.883-3.436,14.227,11.569,14.227,11.569" style="fill:#ffffff;--backup-fill:#ffffff" /><path d="M165.947,366.439c-.44-.388-1.22-2.975-3.311-6.14a11.794,11.794,0,0,0-4.514-4.164,7.363,7.363,0,0,0-3.27-.648,9.3,9.3,0,0,0-1.766.244l-.889.259-.948.349a49.192,49.192,0,0,0-14.275,8.128,57.522,57.522,0,0,0-9.412,9.669c-7.36,9.662-13.088,21.508-17.59,33.918-.567,1.551-1.111,3.116-1.646,4.685s-1.071,3.182-1.519,4.674a90.747,90.747,0,0,0-2.2,9.4,85.485,85.485,0,0,0-1.432,18.768,43.512,43.512,0,0,0,1.008,7.616,18.355,18.355,0,0,0,2.6,6.285,7.5,7.5,0,0,0,4.289,3.11,5.092,5.092,0,0,0,2.314.024,8.1,8.1,0,0,0,2.521-1.071,21.852,21.852,0,0,0,5.02-4.608,57.042,57.042,0,0,0,4.348-6.074,136.894,136.894,0,0,0,7.2-13.3c1.09-2.257,2.1-4.48,3.139-6.745s2.078-4.494,3.133-6.677c2.11-4.365,4.264-8.554,6.487-12.514a107.486,107.486,0,0,1,14.292-20.4c-1.433,3.123-3.134,6.869-4.826,10.906s-3.376,8.382-4.98,12.609c-3.2,8.461-6.094,16.462-8.124,20.507-4.173,8.251-8.377,16.247-13.84,23.355a43.511,43.511,0,0,1-4.532,5.019,21.321,21.321,0,0,1-5.745,3.963,13.429,13.429,0,0,1-3.535,1.017,11.7,11.7,0,0,1-3.722-.137,13.029,13.029,0,0,1-6.187-3.367,16.82,16.82,0,0,1-3.674-5.521,28.679,28.679,0,0,1-1.772-5.985,56.261,56.261,0,0,1-.838-11.806,103.886,103.886,0,0,1,3.1-22.037c.441-1.747.922-3.472,1.482-5.172.553-1.673,1.107-3.311,1.686-4.94q1.719-4.882,3.638-9.529a131.2,131.2,0,0,1,8.694-17.45A84.1,84.1,0,0,1,127.418,368a65.533,65.533,0,0,1,6.521-5.92,55.826,55.826,0,0,1,7.131-4.7,42.653,42.653,0,0,1,8.363-3.512l1.184-.341c.39-.115.789-.228,1.25-.317a11.946,11.946,0,0,1,2.732-.274,9.474,9.474,0,0,1,5.1,1.661,12.084,12.084,0,0,1,3.247,3.459,18.746,18.746,0,0,1,1.755,3.551A22.679,22.679,0,0,1,165.947,366.439Z" /></g><g id="shirt_short_red" transform="matrix(-1, 0, 0, 1, 380, 0)"><path class="cls-3" d="M166.006,366.426s-3.344-15-14.227-11.569C133.829,360.524,121.5,376.5,114.5,391.5c-3.061,6.56,9,24,27.959,28.931,6.186-13.742,11.758-20.715,17.953-28.488" /><path d="M160.46,391.981c.139.892-3.408,5.573-7.027,11.2-1.8,2.822-3.58,5.907-5.045,8.814-.729,1.456-1.39,2.859-1.957,4.147-.661,1.58-1.254,3-1.749,4.184q-.417,1.014-.836,2.034l-.217.522c-.015.133-.121.068-.2.055l-.256-.058-1.041-.239c-.7-.158-1.419-.326-2.142-.527l-1.1-.293c-.361-.1-.791-.21-.983-.275a41.627,41.627,0,0,1-5.867-2.2,45.262,45.262,0,0,1-10.831-7.023,38.437,38.437,0,0,1-8.5-10.316,23.362,23.362,0,0,1-1.471-3.254,15.61,15.61,0,0,1-.9-3.787,10,10,0,0,1,.568-4.7l.123-.316.089-.2.162-.349.323-.7.645-1.388a89.192,89.192,0,0,1,5.2-9.291,82.115,82.115,0,0,1,6.34-8.435,69.381,69.381,0,0,1,7.41-7.251c.65-.553,1.344-1.054,2.01-1.575s1.34-1.029,2.051-1.484l2.085-1.392,2.153-1.242,1.069-.607,1.1-.535,2.186-1.045,2.228-.872a20.6,20.6,0,0,1,2.222-.775l2.218-.66c.335-.112.809-.207,1.235-.3a12.072,12.072,0,0,1,1.33-.2,10.978,10.978,0,0,1,5.361.742,11.287,11.287,0,0,1,4.067,2.9,16.017,16.017,0,0,1,2.438,3.625,23.453,23.453,0,0,1,2.169,7.268,38.915,38.915,0,0,0-4.77-5.706,14,14,0,0,0-2.989-2.224,6.763,6.763,0,0,0-2.978-.855,6.931,6.931,0,0,0-2.611.514,5.718,5.718,0,0,0-.626.268l-.317.142-.393.195-1.516.723c-.991.415-1.86.911-2.663,1.274l-2.1.911a46.122,46.122,0,0,0-13.026,7.712,61.54,61.54,0,0,0-9.961,10.745,74.938,74.938,0,0,0-7.121,11.95c-.056.12-.138.269-.173.363l-.1.267a4.011,4.011,0,0,0-.151.581c-.031.208-.042.429-.066.644l.017.686a10.675,10.675,0,0,0,.667,2.857,22.754,22.754,0,0,0,2.925,5.363,38.834,38.834,0,0,0,8.421,8.4,43.674,43.674,0,0,0,9.7,5.43c.8.342,1.709.646,2.442.91.406.119.8.242,1.188.335l.29.075c.059.036.074-.023.093-.072l.062-.14.244-.551.246-.534.533-1.1a80.787,80.787,0,0,1,5.116-9,59.194,59.194,0,0,1,7.118-8.742C157.253,394.877,159.661,392.7,160.46,391.981Z" /></g><g data-name="default" id="default-2" transform="matrix(-1, 0, 0, 1, 380, 0)"><path class="cls-2 color-body" d="M239.64,463.371c-.822-7.144-2.461-16.135-4.759-22.342-13.642-36.838,9.04-78.792-30.636-91.823-29.145-9.571-59.413,5.745-75.671,54.174-5.9,17.562-7.776,42.306-3.484,59.991" style="fill:#ffffff;--backup-fill:#ffffff" /><path d="M125.031,463.385c-.41-.5-1.421-3.49-2.2-8.059a99.615,99.615,0,0,1-1.25-17.25,134.814,134.814,0,0,1,1.693-19.911,131.447,131.447,0,0,1,11.94-37.3A86.133,86.133,0,0,1,148.808,361a58.643,58.643,0,0,1,20.166-14.4,50.59,50.59,0,0,1,24.3-3.677,57.2,57.2,0,0,1,10.347,1.977,52.19,52.19,0,0,1,9.832,3.9,35.63,35.63,0,0,1,8.75,6.428,31.624,31.624,0,0,1,6.249,8.889c3.08,6.5,4.087,13.306,4.518,19.666.422,6.4.282,12.522.227,18.43s-.077,11.588.243,17.051a91.2,91.2,0,0,0,2.165,15.6q.219.921.435,1.833.26.9.517,1.787.549,1.857,1.085,3.675a74.043,74.043,0,0,1,1.621,7.379,119.041,119.041,0,0,1,1.5,13.7c-1.269-3.742-2.722-8.309-4.474-13.089-.876-2.387-1.833-4.827-2.918-7.167-.548-1.11-1.134-2.421-1.7-3.691-.6-1.268-1.024-2.59-1.531-3.886a78.5,78.5,0,0,1-4.271-26.328c.289-10.761,1.225-20.984.12-30.554a37.964,37.964,0,0,0-3.806-13.33,27.291,27.291,0,0,0-8.9-9.8,43.034,43.034,0,0,0-12.118-5.436,49.83,49.83,0,0,0-12.837-1.91,44.984,44.984,0,0,0-23.579,6.427,60.728,60.728,0,0,0-17.071,15.672,84.4,84.4,0,0,0-6.165,9.285c-.952,1.563-1.759,3.2-2.62,4.778-.783,1.627-1.623,3.2-2.327,4.836l-1.093,2.416q-.506,1.221-1.007,2.431c-.691,1.6-1.276,3.238-1.893,4.842s-1.138,3.231-1.708,4.822c-.521,1.6-1.037,3.168-1.47,4.762a134.581,134.581,0,0,0-3.788,18.792c-.389,2.918-.748,6.381-1.077,10-.268,3.625-.505,7.416-.505,10.973A101.722,101.722,0,0,0,125.031,463.385Z" /><path class="cls-2 color-body" d="M234.881,441.029c-13.642-36.838,9.04-78.792-30.636-91.823-29.144-9.571-59.413,5.745-75.671,54.174-5.9,17.562-7.776,42.306-3.484,59.991h0s6.034,10.253,50.162,13c42.248,2.629,64.388-13,64.388-13h0C238.818,456.227,237.179,447.236,234.881,441.029Z" style="fill:#ffffff;--backup-fill:#ffffff" /></g><path class="cls-3" d="M234.881,441.529c-11.024-29.769,1.667-62.877-13.994-81.364-2.473,9.2-11.581,18.319-24.291,23.067-17.707,6.616-35.7,2.251-40.18-9.75a15.247,15.247,0,0,1-.579-1.936,27.609,27.609,0,0,1,.759-12.8c-11.168,9.2-20.93,24.013-28.022,45.138-5.9,17.562-7.776,52.306-3.484,69.991,0,0,6.034,19.253,50.162,22,42.248,2.629,64.388-19,64.388-19C238.818,469.727,237.179,447.736,234.881,441.529Z" transform="matrix(-1, 0, 0, 1, 380, 0)" /><path d="M234.938,441.508a7.738,7.738,0,0,1,.644,1.313c.232.678.543,1.58.81,2.691.568,2.219,1.141,5.25,1.688,8.875s1.077,7.844,1.6,12.444c.256,2.3.523,4.689.8,7.15q.12,1.085.242,2.184c.031.4.109.813.1,1.2l-.892.829c-1.325,1.2-2.213,1.875-3.3,2.709A85.1,85.1,0,0,1,207.806,494.5a113.486,113.486,0,0,1-25.941,3.551,128.781,128.781,0,0,1-17.894-.94,87.789,87.789,0,0,1-18.177-3.975,50,50,0,0,1-17.088-9.391c-.617-.59-1.266-1.138-1.855-1.771-.574-.654-1.187-1.258-1.722-1.963a23.262,23.262,0,0,1-1.558-2.184,11.649,11.649,0,0,1-.7-1.2,12.593,12.593,0,0,1-.672-1.411,4.741,4.741,0,0,1-.272-.924l-.134-.6-.266-1.2c-.175-.8-.369-1.607-.482-2.406-.26-1.6-.555-3.207-.717-4.8a152.107,152.107,0,0,1-1.008-19.155q.057-9.547,1.014-19a141.539,141.539,0,0,1,3.073-18.743c.2-.774.362-1.547.584-2.32l.687-2.318c.443-1.568.992-2.971,1.482-4.458.511-1.464,1.074-2.909,1.607-4.357.583-1.433,1.143-2.869,1.749-4.284a109.529,109.529,0,0,1,11.118-20.261q.822-1.2,1.715-2.347c.588-.771,1.165-1.548,1.795-2.289l.926-1.123.231-.281c.077-.088.151-.193.328-.379l.928-1,1.855-1.991.927-.994c.309-.331.62-.582.93-.876,1.236-1.118,2.491-2.314,3.709-3.366l3.68-3.177,6.992-6.032-3.808,12.064-.681,2.29a6.163,6.163,0,0,0-.232,1l-.163.908a14.8,14.8,0,0,0-.223,1.7,15.31,15.31,0,0,0-.111,1.594c-.008.506-.054,1.056-.018,1.509l.028.709.014.354.007.166.008.075c.035.4.084.79.143,1.164a17.569,17.569,0,0,0,.576,2.109,14.291,14.291,0,0,0,5.926,6.793,25.169,25.169,0,0,0,9.482,3.157,38.093,38.093,0,0,0,10.4-.054,47.267,47.267,0,0,0,19.23-7.331,38.2,38.2,0,0,0,7.448-6.542c.508-.625,1.031-1.242,1.489-1.891l.684-.975a8.551,8.551,0,0,0,.464-.8l.519-.94.516-.937c.043-.081.087-.147.128-.242l.12-.33.238-.66.949-2.624,1.782-5.452.629.651a3.631,3.631,0,0,1,.328.358l.4.518,1.58,2.06,1.5,1.985a19.909,19.909,0,0,1,1.434,2.041,33.592,33.592,0,0,1,2.559,4.566c.5,1.032.821,2.016,1.207,3.027a54.2,54.2,0,0,1,2.5,12.035c.767,7.884.475,15.316.386,22.4a193.781,193.781,0,0,0,.424,20.213,92.508,92.508,0,0,0,1.252,9.3,78.429,78.429,0,0,0,2.2,8.652,68.218,68.218,0,0,1-6.439-19.288,197.78,197.78,0,0,1-2.548-23.742c-.525-7.958-1.093-15.686-2.721-22.019a41.516,41.516,0,0,0-1.37-4.463c-.231-.709-.554-1.346-.81-2-.125-.331-.291-.63-.439-.936l-.056-.113c-.008-.015,0-.006,0-.006l0,.006s-.006.006-.006.006c-.051.007-.026.059-.038,0a.09.09,0,0,0-.048-.061l-.023-.007a1.225,1.225,0,0,0-.115.147l-.314.431c-.634.874-1.241,1.769-1.936,2.573a39.532,39.532,0,0,1-4.357,4.536,48.733,48.733,0,0,1-10.051,6.84,52.714,52.714,0,0,1-22.555,5.833,40.23,40.23,0,0,1-11.454-1.3,26.926,26.926,0,0,1-10.335-5.209,19.1,19.1,0,0,1-6.289-9.784,14.412,14.412,0,0,1-.493-2.871l-.032-.355-.01-.2-.013-.36.007-.67a17.59,17.59,0,0,1,.306-2.759c.075-.4.165-.8.28-1.2l.09-.3.048-.148a.488.488,0,0,0,.02-.067l-.054.044-.433.354c-.591.464-1.151.989-1.731,1.512-.554.551-1.131,1.1-1.67,1.7l-.413.446c-.076.085-.121.124-.223.249l-.339.4-1.351,1.6a91.842,91.842,0,0,0-9.164,13.835,125.281,125.281,0,0,0-6.755,14.822q-.735,1.878-1.384,3.776l-.662,1.888-.576,1.884c-.4,1.244-.726,2.517-1.035,3.792-.337,1.264-.6,2.548-.86,3.83a173.647,173.647,0,0,0-3.134,30.515c-.1,4.994.026,9.923.357,14.758a85.268,85.268,0,0,0,2,14.079,1.867,1.867,0,0,0,.188.544,7.264,7.264,0,0,0,.34.677c.221.461.549.907.824,1.36a22.073,22.073,0,0,0,2.05,2.544,12,12,0,0,0,1.16,1.173c.406.374.8.76,1.211,1.125.887.669,1.709,1.405,2.635,2.017.941.592,1.825,1.255,2.8,1.788l2.918,1.583a62.657,62.657,0,0,0,6.123,2.522,98.032,98.032,0,0,0,25.412,4.953,113.205,113.205,0,0,0,24.6-.605,93.289,93.289,0,0,0,22.442-6.024,83.109,83.109,0,0,0,14.061-7.3c.6-.384,1.2-.781,1.782-1.2.573-.4,1.217-.863,1.7-1.24.186-.135.371-.269.553-.417l.278-.219c.076-.081.232-.135.181-.265l-.082-1.528c-.176-2.972-.352-5.924-.521-8.779-.332-5.7-.683-11-1.105-15.27A54.422,54.422,0,0,0,234.938,441.508Z" transform="matrix(-1, 0, 0, 1, 380, 0)" /><g data-name="default" id="default-3" transform="matrix(-1, 0, 0, 1, 380, 0)"><path class="cls-2 color-body" d="M210.791,402.926c4.209,10.074,7.753,25.3,10.376,45.725,2.91,22.661,8.17,41.038,19.9,39.455,14.687-1.984,18.915-32.765,17.977-48.04-1.139-18.561-3.924-46.029-22.5-62.515-15.9-14.111-22.106-3.869-24.321-.71" style="fill:#ffffff;--backup-fill:#ffffff" /><path class="cls-2 color-body" d="M210.791,402.926c4.766,11.192,7.753,25.3,10.376,45.725,2.91,22.661,8.17,41.038,19.894,39.455,14.687-1.984,18.916-32.765,17.978-48.04-1.139-18.561-3.924-46.029-22.5-62.515-15.9-14.111-24.321-.71-24.321-.71" style="fill:#ffffff;--backup-fill:#ffffff" /><path d="M212.163,376.809a4.751,4.751,0,0,1,1.129-2.015,12.819,12.819,0,0,1,10.682-4.683,19.8,19.8,0,0,1,7.878,2.5,31.055,31.055,0,0,1,3.614,2.394l1.727,1.341c.569.456,1.068.978,1.606,1.465a36.32,36.32,0,0,1,3.058,3.045l1.414,1.585.7.784.627.825a69.022,69.022,0,0,1,7.46,11.874c5.769,11.243,8.546,24.7,9.841,38,.173,1.668.321,3.334.456,5s.25,3.463.275,5.164a98.609,98.609,0,0,1-.362,10.251,85.588,85.588,0,0,1-3.941,19.875,43.34,43.34,0,0,1-3.783,8.28,26.328,26.328,0,0,1-2.873,3.895,18.251,18.251,0,0,1-3.919,3.376,14.721,14.721,0,0,1-5.079,2.1,13.243,13.243,0,0,1-10.892-2.289,17.757,17.757,0,0,1-3.651-3.626,32.965,32.965,0,0,1-4.335-7.95,64.54,64.54,0,0,1-2.53-7.962,130.476,130.476,0,0,1-2.827-15.476c-.642-5.077-1.041-9.863-1.6-14.526-.534-4.66-1.115-9.159-1.78-13.464a139.334,139.334,0,0,0-5.314-23.2,54.861,54.861,0,0,1,5.944,10.1,98.283,98.283,0,0,1,4.82,12.781,109.657,109.657,0,0,1,4.5,21.66c.275,4.421.663,8.74,1.259,12.952a83.864,83.864,0,0,0,2.535,12.18,40.966,40.966,0,0,0,2.069,5.552,19.428,19.428,0,0,0,2.946,4.7A9.678,9.678,0,0,0,235.709,485a6.947,6.947,0,0,0,2.153,1.041,8.1,8.1,0,0,0,4.8-.173c3.185-1.026,5.715-3.861,7.544-6.956a43.264,43.264,0,0,0,4.168-10.067,88.117,88.117,0,0,0,3.1-20.923q.079-2.567.006-5.078c-.038-1.666-.188-3.316-.318-5-.264-3.34-.588-6.609-1-9.806a128.055,128.055,0,0,0-3.57-18.237,79.522,79.522,0,0,0-6.245-15.941,58.107,58.107,0,0,0-9.166-12.837l-1.325-1.349c-.23-.233-.454-.485-.7-.714l-.767-.666-1.581-1.4c-.542-.471-1.148-.848-1.731-1.294a17.28,17.28,0,0,0-7.869-3.387,11.891,11.891,0,0,0-7.352,1.539A14.682,14.682,0,0,0,212.163,376.809Z" /></g><g data-name="shirt_short_red" id="shirt_short_red-2" transform="matrix(-1, 0, 0, 1, 380, 0)"><path class="cls-3" d="M248.5,389.5c-3.9-6.5-10.094-15.866-17.5-17.5s-15.842-.675-18.785,4.841c-2.2,3.132-5.57,15.789-1.526,25.823,0,0,8.412,23.935,9.116,24.434.662.468,10.695.4,21.592-2.971,5.665-1.754,12.1-6.627,14.681-9.548C259.434,410.775,251.5,394.5,248.5,389.5Z" /><path class="cls-3" d="M210.662,403.124c2.606,7.266,8.439,23.475,9.143,23.974.662.468,10.695.4,21.592-2.971,5.664-1.754,12.1-6.627,14.681-9.548,3.356-3.8-4.578-20.079-7.578-25.079-3.9-6.5-10.094-15.866-17.5-17.5s-15.842-.675-18.785,4.841" /><path d="M212.174,376.82a2.983,2.983,0,0,1,.431-1.246,11.312,11.312,0,0,1,.712-1.02,8.772,8.772,0,0,1,1.126-1.1,15.014,15.014,0,0,1,7.882-2.987,28.9,28.9,0,0,1,9.7.614,15.425,15.425,0,0,1,2.265.781,21.455,21.455,0,0,1,1.942,1.027l.87.527.776.545c.512.342.951.694,1.357,1.011a42.585,42.585,0,0,1,7.581,8.021c1.119,1.5,2.186,3.041,3.214,4.608,1.058,1.584,2.026,3.278,2.927,4.943a83.165,83.165,0,0,1,4.78,10.443,37.912,37.912,0,0,1,1.662,5.695,16.114,16.114,0,0,1,.341,3.255c0,.294-.028.62-.047.928-.033.323-.1.672-.158,1.007a6.148,6.148,0,0,1-1.011,2.266l-.271.366a32.2,32.2,0,0,1-4.209,3.928,45.546,45.546,0,0,1-4.5,3.156,35.589,35.589,0,0,1-4.928,2.548,26.952,26.952,0,0,1-2.669.94c-.844.235-1.678.493-2.522.692a70.6,70.6,0,0,1-10,1.794c-1.649.176-3.282.3-4.914.335-.816.022-1.634.022-2.463,0a13.829,13.829,0,0,1-1.836-.147,5.617,5.617,0,0,1-1.847-.606c-.336-.4-.637-.835-.943-1.253-.253-.448-.419-.936-.63-1.395-.12-.271-.144-.363-.2-.521l-.159-.438-.31-.866c-.4-1.146-.776-2.269-1.134-3.375q-1.076-3.318-1.988-6.422c-1.225-4.137-2.265-7.975-3.13-11.456a85.155,85.155,0,0,1,7.325,11.649c1.166,2.158,2.245,4.289,3.146,6.172l1.2,2.595.128.289a.567.567,0,0,0,.04.08l.042.089c.011.032-.006.017-.012.042l-.011.039c.006.039-.027.077.053.115.386.044.8.072,1.2.1.821.045,1.653.068,2.486.067,1.668,0,3.334-.079,4.978-.223a61.619,61.619,0,0,0,9.577-1.581,27.668,27.668,0,0,0,8.318-3.585,33.97,33.97,0,0,0,6.833-5.415c.545-.546.629-1.829.529-3.03a20.692,20.692,0,0,0-.726-3.706,54.687,54.687,0,0,0-2.612-7.1c-1-2.274-2.085-4.463-3.216-6.556-.566-1.044-1.146-2.071-1.744-3.039s-1.242-1.964-1.869-2.911c-5.04-7.471-10.581-14.161-17.971-14.524a26.316,26.316,0,0,0-9.522.143,10.883,10.883,0,0,0-3.948,1.787,4.184,4.184,0,0,0-.678.557c-.2.189-.4.352-.55.525Z" /></g><g class="cls-4" transform="matrix(-1, 0, 0, 1, 380, 0)"><path class="cls-5" d="M109.887,411.342c43.608-31.318,57.728,24.652,105.673,3.025q1.978-5.783,3.783-11.508c-49.117,20.032-64.958-36.1-113.662,3.837A32.786,32.786,0,0,1,109.887,411.342Z" /><path class="cls-6" d="M113.414,416.968c38.794-23.427,51.3,32.09,98.015,9.027q2.154-5.85,4.131-11.628c-47.945,21.626-62.065-34.342-105.673-3.025A41.631,41.631,0,0,1,113.414,416.968Z" /><path class="cls-7" d="M116.294,423.5c34.246-16.231,45.24,38.583,90.643,14.281q2.339-5.935,4.492-11.781c-46.712,23.063-59.221-32.454-98.015-9.027A54.727,54.727,0,0,1,116.294,423.5Z" /><path class="cls-8" d="M118.554,430.849c29.951-9.693,39.511,44.207,83.517,18.9q2.658-6.35,5.107-12.581c-45.473,24.245-56.543-30.612-91.017-14.027A72.289,72.289,0,0,1,118.554,430.849Z" /><path class="cls-9" d="M120.222,438.958c25.894-3.775,34.088,49.036,76.592,22.986q2.729-6.165,5.257-12.2c-44.006,25.311-53.566-28.589-83.517-18.9Q119.535,434.721,120.222,438.958Z" /><path class="cls-10" d="M121.323,447.758c22.061,1.558,28.942,53.14,69.828,26.658q2.935-6.31,5.663-12.472c-42.5,26.05-50.7-26.761-76.592-22.986Q120.912,443.191,121.323,447.758Z" /></g></svg>