<svg xmlns="http://www.w3.org/2000/svg" id="outfits_1" viewBox="0 0 380 600"><defs transform="matrix(-1, 0, 0, 1, 380, 0)"><style>.cls-1{fill:#ffffff;}.cls-2{fill:#222;}.cls-3{fill:#d7dfe2;}</style></defs><g id="default" transform="matrix(-1, 0, 0, 1, 380, 0)"><path class="cls-1 color-body" d="M160.412,391.443c-7.582,9.513-14.229,22.312-22.211,41.293-8.856,21.061-18.834,37.366-29.709,32.709-13.624-5.834-9.478-36.627-4.5-51.1,6.055-17.583,19.428-51.04,47.782-59.992,10.883-3.436,14.227,11.569,14.227,11.569" style="fill:#ffffff;--backup-fill:#ffffff" /><path d="M165.947,365.939c-.44-.388-1.22-2.975-3.311-6.14a11.8,11.8,0,0,0-4.514-4.165,7.376,7.376,0,0,0-3.27-.647,9.385,9.385,0,0,0-1.766.244l-.889.258-.948.349a49.238,49.238,0,0,0-14.275,8.128,57.561,57.561,0,0,0-9.412,9.67c-7.36,9.662-13.088,21.508-17.59,33.918-.567,1.551-1.111,3.116-1.646,4.685s-1.071,3.182-1.519,4.674a90.747,90.747,0,0,0-2.2,9.4,85.489,85.489,0,0,0-1.432,18.768,43.512,43.512,0,0,0,1.008,7.616,18.355,18.355,0,0,0,2.6,6.285,7.5,7.5,0,0,0,4.289,3.11,5.106,5.106,0,0,0,2.314.024,8.1,8.1,0,0,0,2.521-1.071,21.852,21.852,0,0,0,5.02-4.608,57.042,57.042,0,0,0,4.348-6.074,136.894,136.894,0,0,0,7.2-13.3c1.09-2.256,2.1-4.48,3.139-6.746s2.078-4.493,3.133-6.676c2.11-4.365,4.264-8.554,6.487-12.514a107.486,107.486,0,0,1,14.292-20.4c-1.433,3.123-3.134,6.869-4.826,10.907s-3.376,8.381-4.98,12.608c-3.2,8.461-6.094,16.461-8.124,20.507-4.173,8.251-8.377,16.247-13.84,23.355a43.419,43.419,0,0,1-4.532,5.018,21.3,21.3,0,0,1-5.745,3.964,13.467,13.467,0,0,1-3.535,1.017,11.727,11.727,0,0,1-3.722-.137,13.029,13.029,0,0,1-6.187-3.367,16.82,16.82,0,0,1-3.674-5.521,28.7,28.7,0,0,1-1.772-5.985,56.261,56.261,0,0,1-.838-11.806,103.9,103.9,0,0,1,3.1-22.038c.441-1.746.922-3.471,1.482-5.171.553-1.673,1.107-3.311,1.686-4.94q1.719-4.882,3.638-9.529a131.2,131.2,0,0,1,8.694-17.45A84.1,84.1,0,0,1,127.418,367.5a65.41,65.41,0,0,1,6.521-5.92,55.826,55.826,0,0,1,7.131-4.7,42.653,42.653,0,0,1,8.363-3.512l1.184-.341c.39-.115.789-.228,1.25-.317a11.89,11.89,0,0,1,2.732-.274,9.482,9.482,0,0,1,5.1,1.661,12.084,12.084,0,0,1,3.247,3.459,18.716,18.716,0,0,1,1.755,3.551A22.694,22.694,0,0,1,165.947,365.939Z" /></g><g data-name="default" id="default-2" transform="matrix(-1, 0, 0, 1, 380, 0)"><path class="cls-1 color-body" d="M239.64,463.371c-.822-7.144-2.461-16.135-4.759-22.342-13.642-36.838,9.04-78.792-30.636-91.823-29.145-9.571-59.413,5.745-75.671,54.174-5.9,17.562-7.776,42.306-3.484,59.991" style="fill:#ffffff;--backup-fill:#ffffff" /><path d="M125.031,463.385c-.41-.5-1.421-3.49-2.2-8.059a99.615,99.615,0,0,1-1.25-17.25,134.8,134.8,0,0,1,1.693-19.911,131.447,131.447,0,0,1,11.94-37.3A86.133,86.133,0,0,1,148.808,361a58.633,58.633,0,0,1,20.166-14.4,50.59,50.59,0,0,1,24.3-3.677,57.2,57.2,0,0,1,10.347,1.977,52.19,52.19,0,0,1,9.832,3.9,35.63,35.63,0,0,1,8.75,6.428,31.61,31.61,0,0,1,6.249,8.889c3.08,6.5,4.087,13.306,4.518,19.666.422,6.4.281,12.522.227,18.43-.07,5.9-.077,11.587.243,17.051a91.2,91.2,0,0,0,2.165,15.6q.219.921.435,1.833l.517,1.787q.549,1.857,1.085,3.674a74.079,74.079,0,0,1,1.621,7.381,119,119,0,0,1,1.5,13.7c-1.269-3.742-2.722-8.309-4.474-13.089-.876-2.387-1.833-4.827-2.918-7.167-.548-1.11-1.134-2.421-1.7-3.691-.6-1.268-1.024-2.59-1.531-3.886a78.5,78.5,0,0,1-4.271-26.328c.289-10.761,1.225-20.984.12-30.554a37.982,37.982,0,0,0-3.806-13.331,27.3,27.3,0,0,0-8.9-9.8,43.034,43.034,0,0,0-12.118-5.436,49.786,49.786,0,0,0-12.837-1.91,44.984,44.984,0,0,0-23.579,6.427,60.713,60.713,0,0,0-17.071,15.672,84.493,84.493,0,0,0-6.165,9.285c-.952,1.563-1.759,3.2-2.62,4.778-.783,1.626-1.623,3.2-2.327,4.836l-1.093,2.416q-.506,1.221-1.007,2.431c-.691,1.6-1.276,3.238-1.893,4.842s-1.138,3.231-1.708,4.822c-.521,1.6-1.037,3.167-1.47,4.762a134.552,134.552,0,0,0-3.788,18.792c-.389,2.918-.748,6.381-1.077,10-.268,3.625-.505,7.416-.506,10.973A101.817,101.817,0,0,0,125.031,463.385Z" /><path class="cls-1 color-body" d="M234.881,441.029c-13.642-36.838,9.04-78.792-30.636-91.823-29.144-9.571-59.413,5.745-75.671,54.174-5.9,17.562-7.776,42.306-3.484,59.991h0s6.034,10.253,50.162,13c42.248,2.629,64.388-13,64.388-13h0C238.818,456.227,237.179,447.236,234.881,441.029Z" style="fill:#ffffff;--backup-fill:#ffffff" /></g><path class="cls-2 color-dress" d="M210.028,368.274c-7.774,6.737-7.39,23.5-7.39,23.5l22.011-20.765,2.592-4.146S217.8,361.536,210.028,368.274Z" transform="matrix(-1, 0, 0, 1, 380, 0)" /><path d="M210.008,368.25a5.25,5.25,0,0,1,1.614-1.628,13.111,13.111,0,0,1,4.336-2.025,15.923,15.923,0,0,1,5.551-.343,23.592,23.592,0,0,1,2.488.417l1.067.267,1.2.384c.734.272,1.468.585,2.209.946.082.047.215.084.259.144l-.124.255-.251.521c-.174.352-.327.706-.561,1.091l-.671,1.169q-.213.382-.428.773c-.139.252-.28.5-.423.761l-.53.93-3.278,3.357-3.252,3.26-6.515,6.408-3.809,3.68L206.375,391l-1.892,1.779-.471.441-.433.361-.863.717-1.708,1.418c-.406.515-.259-.23-.29-.552l0-1.158c0-1.53-.028-3.022.081-4.646.037-.791.08-1.581.172-2.389l.09-.819.086-.63c.119-.838.251-1.665.417-2.477a33.613,33.613,0,0,1,2.947-8.955,16.9,16.9,0,0,1,5.149-6.247,30.07,30.07,0,0,0-2.76,7.523c-.626,2.682-.958,5.232-1.359,6.544-.3.92-.527,1.857-.757,2.786-.1.47-.2.936-.293,1.4-.052.232-.084.466-.126.7a.419.419,0,0,1-.043.159l-.037.1a7.837,7.837,0,0,0-.261,1.133c-.036.228-.071.474-.1.732-.021.1.015.065.046.042l.093-.062.2-.139a28.473,28.473,0,0,0,2.631-2.2q1.976-1.763,3.828-3.483c2.473-2.292,4.792-4.52,6.988-6.662l6.152-6.059,1.482-2.5.195-.336.1-.163a1.64,1.64,0,0,0-.173-.086c-.251-.112-.439-.192-.732-.3-.182-.074-.809-.266-1.267-.4-.494-.123-.979-.263-1.469-.345a18.071,18.071,0,0,0-2.882-.35,16.81,16.81,0,0,0-5.367.659,7.707,7.707,0,0,0-1.269.459,8.494,8.494,0,0,0-1.091.488Z" transform="matrix(-1, 0, 0, 1, 380, 0)" /><path class="cls-2 color-dress" d="M159.866,352.872c-15.166,10.027-20.19,23.706-21.7,24.973-1.039.869,5.2,3.847,5.137,4.671,0,0,9.341-25.221,32.115-36.382Z" transform="matrix(-1, 0, 0, 1, 380, 0)" /><path d="M159.853,352.844c.417-.7,8.871-4.474,15.247-7.433l.66,1.431-2.629,1.542a16.842,16.842,0,0,0-2.073,1.35A68.136,68.136,0,0,0,158.941,360.8a82.927,82.927,0,0,0-9.545,13.664c-.682,1.251-1.367,2.5-1.977,3.766-.315.629-.623,1.256-.906,1.887l-.218.471-.109.234-.185.426-.827,1.966-1.934-.428-.974-.217-.158-.035-.079-.018c-.026-.008-.048-.027-.1.056l-.572.681a9.082,9.082,0,0,1-.825-.544l-1.772-1.2-.428-.307-.308-.232-.376-.3a5.065,5.065,0,0,1-1.21-1.33,2.75,2.75,0,0,1-.293-.756,2.428,2.428,0,0,1-.033-.777l.239-.727a8.134,8.134,0,0,1,.582-.744q1.294-2.152,2.551-4.242c.822-1.342,1.691-2.641,2.58-3.885a58.7,58.7,0,0,1,5.651-6.764,50.481,50.481,0,0,1,11.841-9.045c-1.909,2.28-4.726,5.3-7.111,8.31-2.419,2.982-4.449,5.9-5.693,7.314-1.36,1.582-2.626,3.213-3.773,4.851-.566.823-1.117,1.64-1.641,2.454l-.78,1.216-.4.61-.2.3-.112.142a2.471,2.471,0,0,1-.3.32c-.086.141.043.271.12.375a3.152,3.152,0,0,0,.312.31c.028.029.182.149.3.241l.38.286,1.426,1.031a5.785,5.785,0,0,1,.749.646.548.548,0,0,1,.077.111c.025.037.017.114.04.042l.1-.217.2-.415c.188-.384.83-1.73,1.359-2.752q.816-1.6,1.68-3.125c1.136-2.041,2.336-3.977,3.55-5.841a87.81,87.81,0,0,1,7.742-10.078,57.1,57.1,0,0,1,17.354-13.371l.911,1.974-3.214,1.316C168.578,350.131,161.3,352.423,159.853,352.844Z" transform="matrix(-1, 0, 0, 1, 380, 0)" /><path class="cls-2 color-dress" d="M127.186,395.593c1.225-4.729,8.589-21.433,10.742-17.047,19.122,17.413,80.142,17.748,93.23,3.392,1.477,16.947,6.218,62.6,9.678,78.533.294,9.392,10.207,40.373,5.27,47.751-7.816,9.953-20.855,14.335-33.048,15.7-13.672,1.468-37.064-1.742-55.327-5.713-10.575-2.3-22.688-8.291-31.86-14.034-4.377-2.741-12.943-7.577-12.578-13.489,4.512-19.044,5.035-38.806,6.392-58.3C120.648,420.379,121.224,406.384,127.186,395.593Z" transform="matrix(-1, 0, 0, 1, 380, 0)" /><path d="M127.239,395.623c-.075.525-.728,1.935-1.535,4.17a65.411,65.411,0,0,0-2.456,9.065c-1.52,7.494-2.037,17.7-2.673,28.624-.58,10.934-1.1,22.656-2.285,33.357-.581,5.349-1.316,10.438-2.168,15.034-.2,1.15-.424,2.268-.654,3.351q-.158.771-.31,1.518a1.018,1.018,0,0,0,0,.415,2.438,2.438,0,0,0,.05.527,8.016,8.016,0,0,0,2.281,3.865,35.235,35.235,0,0,0,6.983,5.142c2.659,1.577,5.318,3.162,8.047,4.614a120.871,120.871,0,0,0,17.1,7.608,68.121,68.121,0,0,0,9,2.493c3.164.628,6.347,1.225,9.551,1.765,6.4,1.092,12.878,1.987,19.364,2.671a160.386,160.386,0,0,0,19.374.95,62.643,62.643,0,0,0,9.347-.9,61.74,61.74,0,0,0,9.048-2.235,38.844,38.844,0,0,0,15.307-8.929c.485-.527,1.022-1.01,1.469-1.566l.684-.821.258-.307c.01-.018-.016-.017.018-.063a8.593,8.593,0,0,0,.6-3.116,48.877,48.877,0,0,0-.605-8.771c-.668-4.652-1.639-9.364-2.646-14.087-1-4.742-2.1-9.45-2.96-14.425-.2-1.262-.4-2.534-.513-3.934l-.033-.547-.008-.137c0-.03,0,.031,0,.031h0c0-.007,0,0,.011.055l-.045-.226-.093-.459-.368-1.837q-.687-3.653-1.241-7.244c-.754-4.8-1.405-9.563-2.01-14.3-1.21-9.478-2.255-18.853-3.2-28.1q-.672-6.937-1.335-13.763-.153-1.707-.307-3.407l-.151-1.7-.028-.448c-.053-.561.012-.789-.058-.824a1.287,1.287,0,0,1-.206.129l-.13.059-.066.028-.825.4a45.091,45.091,0,0,1-6.63,2.531,81.544,81.544,0,0,1-13.161,2.609,129.733,129.733,0,0,1-25.3.417,121.159,121.159,0,0,1-23.388-4.007,76.294,76.294,0,0,1-10.652-3.872,48.584,48.584,0,0,1-4.923-2.574c-.777-.506-1.579-.94-2.316-1.5l-1.11-.815-.55-.406c-.191-.138-.287-.246-.435-.371l-.678-.618c-.139-.083-.165-.264-.286-.367a.467.467,0,0,0-.41-.159,2.807,2.807,0,0,0-1.357,1.086c-.1.114-.184.235-.276.355l-.139.19-.2.3q-.41.611-.793,1.239c-.512.837-.994,1.684-1.453,2.53-.915,1.7-1.744,3.382-2.5,5.047a47.534,47.534,0,0,0-1.972,4.914,37.124,37.124,0,0,1,1.145-5.079c.51-1.785,1.12-3.636,1.84-5.528.363-.945.754-1.9,1.19-2.86a22.862,22.862,0,0,1,1.593-3,5.388,5.388,0,0,1,2.777-2.516,1.287,1.287,0,0,1,.885.168c.248.144.376.334.686.543l1.657,1.286c.194.1.416.188.592.285l.5.292,1.007.586c.652.414,1.389.721,2.087,1.079s1.432.666,2.169.968,1.467.618,2.233.871A68.134,68.134,0,0,0,158,385.624c3.179.7,6.394,1.229,9.578,1.615,3.178.416,6.33.663,9.384.852a178.514,178.514,0,0,0,29.231-.835,72.042,72.042,0,0,0,12.321-2.224c.947-.314,1.944-.553,2.841-.922l1.372-.511,1.3-.586.323-.146.2-.091a1.94,1.94,0,0,0,.227-.117l.157-.091c.42-.279.84-.608,1.256-.907.84-.63,1.648-1.172,2.491-1.855q2.475-2.266,4.913-4.5c.062.342.139.611.19,1l.1,1.389.207,2.751q.2,2.6.4,5.183.281,3.732.558,7.437.48,6.009.953,11.931,1,11.843,2.211,23.318c.814,7.646,1.691,15.175,2.766,22.537.258,1.845.565,3.663.863,5.479.148.909.334,1.8.5,2.694l.127.67.087.45a4.522,4.522,0,0,1,.041.515c.014.42.045.842.091,1.28.369,3.5,1.135,7.1,1.838,10.637,1.442,7.1,3,14.119,3.934,21.212a45.987,45.987,0,0,1,.374,10.853,13.288,13.288,0,0,1-.682,2.866,7.729,7.729,0,0,1-.722,1.482c-.36.5-.627.763-.923,1.13-.294.341-.576.694-.88,1.024l-.942.964c-.61.66-1.292,1.239-1.957,1.833a47.17,47.17,0,0,1-18.434,9.437,71.47,71.47,0,0,1-9.887,2,77.281,77.281,0,0,1-9.91.564,181.567,181.567,0,0,1-19.121-1.255q-9.35-1.062-18.316-2.667-4.485-.789-8.878-1.7a70.532,70.532,0,0,1-8.761-2.374,113.918,113.918,0,0,1-16.111-7.015q-3.821-2-7.452-4.207c-2.38-1.468-4.775-2.871-7.128-4.568a22.1,22.1,0,0,1-6.326-6.443,11.049,11.049,0,0,1-1.013-2.348c-.1-.438-.191-.88-.273-1.321l-.03-.688-.014-.782a3.8,3.8,0,0,1,.139-.784l.112-.5.215-.961.425-1.918a259.175,259.175,0,0,0,4.122-30.245c.84-9.984,1.887-23.732,3.519-35.768a86.869,86.869,0,0,1,3.542-15.942A44.417,44.417,0,0,1,127.239,395.623Z" transform="matrix(-1, 0, 0, 1, 380, 0)" /><path d="M159.888,519.721c-.186-.573.571-5.508,1.056-11.264.533-5.75.818-12.3.773-15.947-.07-6.436-.272-13.326-.728-20.254-.081-1.734-.246-3.466-.376-5.2s-.264-3.458-.456-5.171c-.339-3.46-.674-6.884-1-10.218-.473-5.883-.708-11.757-.594-17.481.057-5.725.43-11.3.986-16.586.541-5.29,1.315-10.295,2.223-14.9a115.807,115.807,0,0,1,3.1-12.472c-.02,3.543-.242,8.549-.484,13.273-.138,2.358-.236,4.647-.4,6.626-.119,1.986-.286,3.666-.478,4.816A164.283,164.283,0,0,0,161.5,441.4c.007,8.335.888,16.079,1.527,23.444,1.163,14.7,1.236,27.588.03,38.782a94.264,94.264,0,0,1-1.5,9.414C160.9,516.185,160.164,518.857,159.888,519.721Z" transform="matrix(-1, 0, 0, 1, 380, 0)" /><ellipse class="cls-3" cx="150.454" cy="426.509" rx="4.219" ry="4.93" transform="matrix(-1, 0, 0, 1, 380, 0) translate(-1.381 0.49) rotate(-0.186)" /><path d="M154.641,426.605c-.322-.122-.433-1.193-1.033-2.177a4.132,4.132,0,0,0-1.108-1.242,2.266,2.266,0,0,0-1.166-.457,2.867,2.867,0,0,0-2.554,1.293,3.908,3.908,0,0,0-.583,2.929,3.783,3.783,0,0,0,1.075,2.038,2.193,2.193,0,0,0,1.677.617,3.069,3.069,0,0,0,1.879-.957A5.934,5.934,0,0,0,154.1,426.6a3.638,3.638,0,0,1,1,3.522,3.7,3.7,0,0,1-2.238,2.736,5.73,5.73,0,0,1-4.266-.52,6.027,6.027,0,0,1-2.392-2.593,7.242,7.242,0,0,1-.246-5.795,5.223,5.223,0,0,1,4.084-3.408A4.492,4.492,0,0,1,154.4,422.6a4.055,4.055,0,0,1,.621,2.366A4.43,4.43,0,0,1,154.641,426.605Z" transform="matrix(-1, 0, 0, 1, 380, 0)" /><ellipse class="cls-3" cx="151.324" cy="460.764" rx="4.219" ry="4.93" transform="matrix(-1, 0, 0, 1, 380, 0) translate(-1.492 0.493) rotate(-0.186)" /><path d="M155.512,460.86c-.322-.121-.433-1.193-1.034-2.176a4.122,4.122,0,0,0-1.108-1.243,2.278,2.278,0,0,0-1.165-.457,2.87,2.87,0,0,0-2.555,1.294,3.911,3.911,0,0,0-.582,2.929,3.79,3.79,0,0,0,1.075,2.038,2.2,2.2,0,0,0,1.677.617,3.064,3.064,0,0,0,1.878-.957,5.922,5.922,0,0,0,1.276-2.053,3.636,3.636,0,0,1,1,3.522,3.7,3.7,0,0,1-2.238,2.735,5.725,5.725,0,0,1-4.266-.519A6.024,6.024,0,0,1,147.075,464a7.244,7.244,0,0,1-.247-5.794,5.224,5.224,0,0,1,4.085-3.408,4.487,4.487,0,0,1,4.355,2.066,4.045,4.045,0,0,1,.62,2.366A4.408,4.408,0,0,1,155.512,460.86Z" transform="matrix(-1, 0, 0, 1, 380, 0)" /><ellipse class="cls-3" cx="152.098" cy="492.244" rx="4.93" ry="4.219" transform="matrix(-1, 0, 0, 1, 380, 0) translate(-353.694 590.287) rotate(-83.8)" /><path d="M156.249,492.805c-.307-.156-.3-1.234-.785-2.278a4.123,4.123,0,0,0-.963-1.358,2.283,2.283,0,0,0-1.108-.584,2.868,2.868,0,0,0-2.682,1,3.9,3.9,0,0,0-.9,2.846,3.776,3.776,0,0,0,.841,2.145,2.2,2.2,0,0,0,1.6.8,3.065,3.065,0,0,0,1.973-.742,5.906,5.906,0,0,0,1.5-1.9,3.635,3.635,0,0,1,.6,3.611,3.7,3.7,0,0,1-2.528,2.469,5.726,5.726,0,0,1-4.182-.99,6.029,6.029,0,0,1-2.089-2.844,7.248,7.248,0,0,1,.4-5.786,5.222,5.222,0,0,1,4.438-2.932,4.486,4.486,0,0,1,4.1,2.538,4.044,4.044,0,0,1,.354,2.419A4.435,4.435,0,0,1,156.249,492.805Z" transform="matrix(-1, 0, 0, 1, 380, 0)" /><ellipse class="cls-3" cx="154.537" cy="398.53" rx="4.219" ry="4.93" transform="matrix(-1, 0, 0, 1, 380, 0)" /><path d="M158.724,398.639c-.321-.122-.428-1.194-1.026-2.18a4.118,4.118,0,0,0-1.1-1.245,2.28,2.28,0,0,0-1.164-.462,2.872,2.872,0,0,0-2.559,1.286,3.908,3.908,0,0,0-.592,2.927,3.78,3.78,0,0,0,1.069,2.041,2.2,2.2,0,0,0,1.674.623,3.065,3.065,0,0,0,1.882-.951,5.926,5.926,0,0,0,1.282-2.049,3.635,3.635,0,0,1,.986,3.525,3.7,3.7,0,0,1-2.247,2.728,5.722,5.722,0,0,1-4.264-.533,6.023,6.023,0,0,1-2.384-2.6,7.245,7.245,0,0,1-.228-5.8,5.223,5.223,0,0,1,4.1-3.395,4.486,4.486,0,0,1,4.348,2.08,4.049,4.049,0,0,1,.613,2.367A4.428,4.428,0,0,1,158.724,398.639Z" transform="matrix(-1, 0, 0, 1, 380, 0)" /><g data-name="default" id="default-3" transform="matrix(-1, 0, 0, 1, 380, 0)"><path class="cls-1 color-body" d="M259.039,439.566c-1.139-18.561-3.924-46.029-22.5-62.515-15.9-14.111-22.106-3.869-24.321-.71s-5.633,16.01-1.424,26.085,7.753,25.3,10.376,45.725c2.91,22.661,8.17,41.038,19.9,39.455C255.749,485.622,259.977,454.841,259.039,439.566Z" style="fill:#ffffff;--backup-fill:#ffffff" /><path class="cls-1 color-body" d="M210.791,402.426c4.766,11.192,7.753,25.3,10.376,45.725,2.91,22.661,8.17,41.038,19.894,39.455,14.687-1.984,18.916-32.765,17.978-48.04-1.139-18.561-3.924-46.029-22.5-62.515-15.9-14.111-24.321-.71-24.321-.71" style="fill:#ffffff;--backup-fill:#ffffff" /><path d="M212.163,376.309a4.751,4.751,0,0,1,1.129-2.015,12.819,12.819,0,0,1,10.682-4.683,19.817,19.817,0,0,1,7.878,2.5,31.192,31.192,0,0,1,3.614,2.395l1.727,1.341c.569.456,1.068.978,1.606,1.465a36.46,36.46,0,0,1,3.058,3.044l1.414,1.586.7.784.627.825a69.022,69.022,0,0,1,7.46,11.874c5.769,11.243,8.546,24.7,9.841,38,.173,1.668.321,3.334.456,5s.25,3.463.275,5.164a98.609,98.609,0,0,1-.362,10.251,85.588,85.588,0,0,1-3.941,19.875,43.312,43.312,0,0,1-3.783,8.28,26.328,26.328,0,0,1-2.873,3.895,18.251,18.251,0,0,1-3.919,3.376,14.721,14.721,0,0,1-5.079,2.1,13.243,13.243,0,0,1-10.892-2.289,17.757,17.757,0,0,1-3.651-3.626,32.965,32.965,0,0,1-4.335-7.95,64.54,64.54,0,0,1-2.53-7.962,130.5,130.5,0,0,1-2.827-15.475c-.642-5.078-1.041-9.864-1.6-14.527-.534-4.66-1.115-9.159-1.78-13.464a139.357,139.357,0,0,0-5.314-23.2,54.861,54.861,0,0,1,5.944,10.1,98.283,98.283,0,0,1,4.82,12.781,109.657,109.657,0,0,1,4.5,21.66c.275,4.421.663,8.74,1.259,12.952a83.864,83.864,0,0,0,2.535,12.18,40.966,40.966,0,0,0,2.069,5.552,19.448,19.448,0,0,0,2.946,4.7,9.716,9.716,0,0,0,1.887,1.71,6.966,6.966,0,0,0,2.153,1.04,8.1,8.1,0,0,0,4.8-.173c3.185-1.026,5.715-3.861,7.544-6.956a43.247,43.247,0,0,0,4.168-10.067,88.118,88.118,0,0,0,3.1-20.924q.079-2.565.006-5.077c-.038-1.666-.188-3.316-.318-5-.264-3.34-.588-6.609-1-9.806a128.055,128.055,0,0,0-3.57-18.237,79.522,79.522,0,0,0-6.245-15.941,58.107,58.107,0,0,0-9.166-12.837l-1.325-1.35c-.23-.232-.454-.484-.7-.713l-.767-.666-1.581-1.4c-.542-.471-1.148-.848-1.731-1.294a17.28,17.28,0,0,0-7.869-3.387,11.891,11.891,0,0,0-7.352,1.539A14.682,14.682,0,0,0,212.163,376.309Z" /></g></svg>