<svg xmlns="http://www.w3.org/2000/svg" id="bodytop" viewBox="0 0 380 600"><defs><style>.cls-1{fill:#fff;}.cls-2{fill:#eb5528;}.cls-3{fill:#f1ab3c;}.cls-4{fill:#fcf4fb;}.cls-5{fill:#ffffff;}.cls-6{fill:none;}</style></defs><g id="default"><path class="cls-5 color-body" d="m219.59,391.44c7.58,9.51,14.23,22.31,22.21,41.29,8.86,21.06,18.83,37.37,29.71,32.71,13.62-5.83,9.48-36.63,4.49-51.1-6.05-17.58-19.43-51.04-47.78-59.99-10.88-3.44-14.23,11.57-14.23,11.57" style="fill:#ffffff;--backup-fill:#ffffff"></path><path d="m213.93,365.91c-.16-.55.15-3.31,2.08-6.94.99-1.77,2.47-3.83,4.94-5.19,1.23-.65,2.7-1.05,4.21-1.07,1.48-.04,3.07.33,4.38.8,5.47,1.69,10.93,4.63,15.4,7.98,4.51,3.31,8.06,6.94,10.54,9.56,8.76,9.34,15.52,21.48,20.69,34.12.65,1.58,1.27,3.17,1.88,4.77.61,1.61,1.19,3.16,1.77,4.87,1.11,3.35,1.98,6.72,2.69,10.11,1.39,6.77,2.2,13.6,2.05,20.44-.08,2.99-.37,6.03-1.04,9.09-.68,3.05-1.76,6.19-3.76,9.11-.99,1.46-2.31,2.81-3.82,3.92l-1.18.79-1.27.65c-.86.41-1.75.73-2.71.95-1.9.46-3.99.46-5.87.03-1.89-.42-3.56-1.21-5-2.12-2.9-1.84-5.01-4.11-6.87-6.39-1.85-2.3-3.39-4.68-4.81-7.06-2.82-4.78-5.07-9.61-7.1-14.36-1.01-2.37-1.95-4.76-2.85-7.06-.91-2.28-1.8-4.54-2.68-6.76-1.78-4.42-3.57-8.68-5.39-12.72-3.62-8.09-7.42-15.29-11.5-21.29,2.67,2.02,5.64,4.9,8.53,8.31,2.89,3.4,5.66,7.32,8.15,11.24,4.96,7.86,8.74,15.73,10.24,20.01,2.97,8.45,6.27,16.57,10.73,23.44,1.12,1.7,2.33,3.31,3.65,4.73,1.31,1.43,2.77,2.63,4.31,3.44.77.38,1.56.69,2.36.84.8.14,1.6.16,2.4.04,1.61-.28,3.18-1.07,4.45-2.2,2.57-2.31,3.97-5.94,4.74-9.55.78-3.64.98-7.41.92-11.1-.17-7.39-1.36-14.58-3.15-21.29-.45-1.68-.95-3.32-1.51-4.92-.57-1.62-1.16-3.24-1.77-4.82-1.21-3.17-2.48-6.26-3.82-9.25-2.68-5.97-5.63-11.56-8.88-16.69-6.51-10.22-14.28-18.61-23.15-23.99-2.11-1.26-4.68-2.63-7.48-3.83l-1.06-.44c-.36-.15-.72-.3-1.03-.4-.66-.25-1.33-.37-2-.47-1.34-.14-2.7.09-3.92.69-2.47,1.22-4.22,3.58-5.37,5.51-1.16,1.97-1.8,3.63-2.09,4.45Z"></path></g><path class="cls-2" d="m210.95,350.91c24.93-2.69,57.8,28.96,67.88,48.98-4.43,11.37-16.23,15.45-26.1,14.06-1.61-.23-2.73.55-3.24-.99-9.44-19.54-20.25-38.42-32.33-56.46"></path><path d="m217.21,356.47c.94.29,5.25,6.15,9.88,13.18,4.64,7.02,9.55,15.22,12.43,19.72,2.11,3.29,4.22,6.72,6.28,10.29,1.04,1.78,2.05,3.6,3.07,5.44.94,1.75,1.9,3.51,2.85,5.29.1.12.13.28.29.32.07.02.15,0,.23-.02l.11-.02h.05s.02-.01.02-.01h.22s2.2.18,2.2.18c.65,0,1.29.03,1.94,0,2.58-.11,5.14-.62,7.5-1.51,2.36-.89,4.52-2.18,6.27-3.82.87-.82,1.67-1.7,2.36-2.67.31-.5.7-.94.96-1.48l.42-.77.21-.37v-.04s.03-.11.03-.11c-.02-.04-.06-.08-.08-.12l-.02-.03s.02.05-.07-.11l-.38-.64-.76-1.28c-1.07-1.69-2.17-3.36-3.36-4.98-2.35-3.26-4.89-6.38-7.53-9.36-5.29-5.95-10.95-11.34-16.72-15.97-5.77-4.64-11.68-8.5-17.53-11.24-5.84-2.74-11.65-4.29-16.99-4.29,2.26-1.06,5.39-1.8,8.84-1.88,3.45-.1,7.19.43,10.69,1.36,3.51.93,6.79,2.24,9.52,3.59,2.71,1.38,4.9,2.75,6.26,3.89,6.91,5.66,12.86,11.68,18.18,17.78,5.29,6.12,9.98,12.32,13.74,18.84.47.84.87,1.52,1.5,2.75l.43.82.21.41.11.21c.02.07-.05.14-.07.21l-.77,1.7-.38.84c-.12.25-.24.43-.36.65l-.72,1.24c-.53.79-1.07,1.58-1.67,2.31-2.42,2.91-5.44,5.21-8.75,6.66-3.29,1.49-6.77,2.3-10.22,2.46-1.72.12-3.44,0-5.13-.16h-.19s-.3-.02-.3-.02l-.86.03c-.57,0-1.11-.02-1.62-.2-.52-.17-.96-.56-1.24-.99-.3-.43-.58-.95-.8-1.47-.89-1.71-1.77-3.4-2.63-5.07-.85-1.6-1.68-3.18-2.51-4.74-1.68-3.1-3.32-6.12-4.95-9.05-3.27-5.85-6.37-11.4-9.32-16.67-1.9-3.33-4.29-8.01-6.39-12.15-2.09-4.14-3.9-7.72-4.47-8.92Z"></path><path class="cls-3" d="m251.28,412.77c9.67-.5,20.47-7.33,26.24-16.56.32-.51,1.04-.54,1.38-.05,1.91,2.71,4.94,8.65,4.73,10.56-4.7,6.18-21.75,17.68-29.9,15.99-.18-2.52-.68-5.01-1.5-7.39"></path><path d="m252.25,415.31c.2.12.62.94,1.05,2.25.21.65.42,1.42.6,2.28.09.41.18.91.24,1.3.05.33.1.65.14.97.63.18,1.28.12,2.34.01.96-.12,1.92-.34,2.82-.62,1.8-.54,3.38-1.25,4.47-1.83,3.77-2.02,7.63-4.55,11.26-7.4,1.81-1.43,3.56-2.94,5.12-4.53.39-.4.76-.8,1.11-1.21l.26-.3c.08-.1.03-.05.05-.07.01-.02.02-.04,0-.06v-.03s-.02-.02-.06-.15c-.04-.2-.14-.45-.21-.67-.17-.47-.36-.96-.58-1.44-.68-1.54-1.5-3.08-2.34-4.51l-.31-.52s0,0,0,0h0s0,0,0,0l-.21.3-.73.95c-.48.64-1,1.23-1.52,1.81-1.04,1.17-2.15,2.24-3.28,3.23-2.28,1.98-4.71,3.6-7.15,4.86-4.89,2.55-9.9,3.61-14,3.41,2.34-.92,5.41-2.31,8.08-3.87,2.69-1.54,5-3.22,6.32-3.95,2.15-1.17,4.14-2.56,5.9-4.1.43-.4.86-.79,1.28-1.18.4-.42.8-.83,1.19-1.23.77-.88,1.38-1.55,2.34-2.94.26-.29.53-.57.8-.83.25-.22.62-.36,1-.35.82.02,1.25.62,1.72,1.25.22.34.44.68.65,1.03l.45.79c.28.5.54,1,.8,1.51.51,1.01.99,2.01,1.42,3.03.43,1.05.82,2,1.08,3.23.05.36.09.72.07,1.07.05.2-.14.31-.23.46l-.32.43c-.42.51-.72.84-1.1,1.25-.72.76-1.46,1.48-2.22,2.16-1.5,1.36-3.04,2.6-4.57,3.75-3.07,2.3-6.14,4.24-9.22,5.81-3.08,1.54-6.2,2.75-9.41,3.11-.31.03-.64.05-.97.07-.37,0-.62,0-1.1-.03-.88-.11-1.74-.23-2.26-.47-.02-.62-.04-1.23-.06-1.83-.02-.45-.04-.88-.06-1.3-.05-.79-.12-1.53-.2-2.19-.16-1.31-.35-2.3-.43-2.71Z"></path><path class="cls-1" d="m180.76,409.71c-12.63-6.29-21.21,6.32-21.12,18.03-1.72,12.69-5.23,25.13-10.4,36.84-11.27,23.37,5.37,22.25,23.21,22.2,13.51.37,27.05.75,40.52-.34,21.79-1.69,43.48-7.09,40.63-33.87-.79-10.9,2.45-23.99-4.16-33.36-11.31-10.45-31.16-10.53-45.5-15.79"></path><path d="m203.95,403.37c.34-.05,1.29.13,2.71.48,1.44.31,3.36.76,5.67,1.23,4.61.98,10.8,1.95,17.41,3.52,3.3.8,6.72,1.73,10.02,3.06,3.3,1.32,6.48,3.02,9.21,5.15.34.27.67.54,1.01.81l.62.5c.19.21.31.46.46.67.49.76.97,1.43,1.33,2.2.19.37.38.74.57,1.11.18.37.31.75.46,1.12.15.37.29.74.44,1.1.11.37.22.74.33,1.1.87,2.91,1.2,5.57,1.43,7.76.36,3.87.32,7.78.34,11.61,0,1.92.05,3.82.15,5.69.08.92.13,1.75.25,2.82l.16,1.53.08,1.58c.08,1.05.02,2.13.02,3.21-.09,1.08-.11,2.16-.3,3.25-.28,2.18-.84,4.37-1.68,6.49-.84,2.12-1.97,4.16-3.37,6-1.41,1.84-3.08,3.46-4.87,4.86-3.61,2.8-7.7,4.68-11.8,6.03-4.11,1.36-8.27,2.21-12.39,2.85-4.12.63-8.19,1.01-12.22,1.32-4.03.3-8.03.47-11.96.57-6.88.17-13.7.08-20.44-.07-1.66-.04-3.32-.08-4.98-.13-1.65,0-3.3,0-4.95.01-3.37,0-6.78-.03-10.34-.4-1.78-.19-3.6-.47-5.49-1-1.88-.54-3.88-1.33-5.76-2.8-.47-.33-.9-.81-1.34-1.23-.41-.46-.81-.96-1.15-1.48-.31-.54-.66-1.07-.87-1.65l-.34-.85c-.09-.28-.16-.57-.24-.85-.58-2.3-.46-4.41-.18-6.31.61-3.8,1.97-6.99,3.35-9.96.74-1.52,1.27-2.73,1.89-4.16.6-1.38,1.18-2.77,1.72-4.16,2.2-5.55,4-11.11,5.42-16.6.71-2.74,1.34-5.47,1.87-8.16.13-.67.27-1.34.39-2.02.1-.58.21-1.15.31-1.72l.06-1.07.11-1.13c.09-.75.21-1.49.36-2.22.6-2.92,1.64-5.67,3.1-8.14,1.46-2.46,3.39-4.65,5.77-6.2,2.36-1.56,5.2-2.34,7.86-2.2,2.67.13,5.05,1.04,7.08,2.19-2.06-.54-4.42-.95-6.81-.59-2.38.32-4.66,1.41-6.41,3.11-3.53,3.4-5.2,8.68-5.38,13.55-.02.61-.02,1.22,0,1.82,0,.3.04.6.06.89.01.32.02.63-.02.9l-.04.54c-.09,1.38-.22,2.74-.35,4.07-.29,2.66-.67,5.2-1.11,7.56-.89,4.7-1.99,8.64-2.98,11.27-1.99,5.28-4.21,10.4-6.68,15.23-1.17,2.29-2.16,4.54-2.77,6.79-.32,1.12-.5,2.22-.54,3.24-.06,1.03.08,1.96.4,2.74.32.78.83,1.44,1.57,2.02.74.58,1.69,1.04,2.73,1.42,2.1.74,4.5,1.08,6.9,1.31,2.41.21,4.86.3,7.31.35,1.23.02,2.45.04,3.67.06,1.25,0,2.48.05,3.7.11,9.7.42,19.06.7,28.11.43,9.03-.33,17.83-.96,25.96-2.85,4.04-.98,7.93-2.29,11.35-4.2,3.42-1.9,6.33-4.43,8.33-7.49,1.97-3.08,3.06-6.61,3.38-10.22.21-1.79.16-3.62.09-5.42-.08-.92-.16-1.84-.24-2.75-.06-.99-.13-2-.14-2.95-.09-3.85.1-7.53.13-11.08.04-3.54-.07-6.96-.7-10.13-.27-1.6-.77-3.09-1.32-4.53-.33-.69-.63-1.4-1.01-2.04l-.56-.92c-.11-.24-.21-.28-.5-.53-.6-.49-1.15-1.03-1.79-1.47-.64-.44-1.27-.89-1.91-1.33-.67-.39-1.35-.78-2.01-1.17-.67-.39-1.39-.7-2.08-1.05-2.67-1.24-5.99-2.51-9.57-3.64-3.57-1.14-7.39-2.17-10.97-3.18-3.58-1-6.91-2.01-9.56-2.93-2.65-.94-4.6-1.8-5.56-2.23Z"></path><path d="m156.98,368.01c-.02.46-.42,1.74-1.1,3.66-.33.97-.79,2.07-1.21,3.36-.4,1.29-.86,2.73-1.35,4.29-1.9,6.27-3.86,14.72-4.96,23.95-2.32,18.46-1.39,39.69-.71,51.46.31,5.2.63,10.51.89,15.9.06,1.35.12,2.71.18,4.06l.04,1.02c0,.36.04.6.02,1.17,0,.4.05.74.18,1.04.24.58.74,1.12,1.54,1.55.39.21.84.39,1.33.52l.37.09c.35.08.63.19.75.22l.95.3c2.54.81,5.14,1.52,7.78,2.12,2.64.61,5.31,1.13,8.01,1.55,5.4.87,10.89,1.41,16.4,1.62,11.01.46,22.13-.37,32.75-2.63,10.59-2.31,20.73-6.09,29.33-11.69.94-.61,1.88-1.21,2.77-1.89l.34-.25.07-.05h0s.02-.03.02-.03c.01-.01,0-.03,0-.05l.28-1.52c.11-.56.21-1.12.29-1.69.17-1.13.36-2.25.51-3.38.62-4.52.96-9.06,1.09-13.59.13-4.53.03-9.06-.28-13.55-.33-4.49-.88-8.94-1.64-13.32-1.49-8.77-3.88-17.27-7.06-25.25-3.16-7.99-7.22-15.44-12.07-22.01-2.43-3.28-5.06-6.34-7.89-9.11-.72-.67-1.44-1.34-2.16-2.01-.75-.63-1.49-1.26-2.23-1.89-.22-.19-.19-.18-.26-.22l-.62-.37-1.3-.76c-.87-.49-1.73-.99-2.59-1.48-6.89-3.87-13.83-7.11-20.77-8.99-6.91-1.84-13.94-2.19-19.94.09-6.06,2.15-10.7,6.77-14.07,11.7,1.08-2.49,2.55-5.19,4.66-7.78,1.04-1.31,2.29-2.52,3.65-3.7,1.41-1.11,2.94-2.21,4.67-3.05,3.4-1.8,7.41-2.78,11.47-3.08,4.07-.28,8.19.1,12.12.9,7.89,1.6,15.04,4.61,20.98,7.53,1.49.74,2.9,1.47,4.23,2.19.33.18.66.36.99.54.17.11.6.29.83.51l.53.42c.59.47,1.16.92,1.71,1.36,1.1.89,2.05,1.8,2.95,2.62.88.84,1.64,1.66,2.32,2.38,2.7,2.98,5.14,6.12,7.36,9.34,2.2,3.24,4.16,6.58,5.94,9.95,1.78,3.38,3.31,6.84,4.73,10.3,1.38,3.47,2.6,6.97,3.67,10.48,4.2,14.06,6.02,28.22,5.91,41.89-.07,6.84-.58,13.57-1.63,20.11-.27,1.63-.52,3.26-.87,4.87l-.28,1.43-.16.83c-.07.27-.04.6-.34.71l-2.44,1.73c-2.71,1.86-5.5,3.55-8.38,5.03-5.72,3-11.68,5.24-17.66,6.96-5.98,1.74-12.01,2.85-17.98,3.62-11.94,1.47-23.64,1.34-34.82-.01-5.59-.68-11.06-1.69-16.36-3.06-1.32-.35-2.64-.71-3.94-1.12-.65-.19-1.3-.39-1.94-.62l-.97-.32-.48-.16s-.09-.02-.32-.08c-1.52-.4-3.05-1.09-4.35-2.3-.64-.6-1.22-1.33-1.63-2.16-.41-.84-.64-1.76-.7-2.65-.01-.22-.04-.45-.02-.67v-.42s-.01-.97-.01-.97l-.05-1.93c-.03-1.28-.07-2.56-.1-3.83-.08-2.55-.17-5.08-.25-7.58-.17-5.02-.34-9.95-.45-14.82-.22-9.72-.2-19.16.41-28.26.16-2.16.27-4.52.59-7,.28-2.48.56-5.08,1.03-7.72.22-1.32.44-2.65.66-3.99l.85-3.99c.51-2.66,1.28-5.26,1.95-7.77.32-1.26.72-2.48,1.12-3.66.4-1.18.78-2.33,1.16-3.45.34-1.12.82-2.16,1.22-3.16.41-1,.8-1.96,1.17-2.86.18-.45.36-.89.54-1.31.2-.41.39-.81.58-1.19.37-.76.72-1.46,1.03-2.1.63-1.26,1.12-2.25,1.44-2.9Z"></path><g id="default-2"><path d="m254.85,463.36c-.2-.66.35-3.7.75-8.24.42-4.53.66-10.54.37-16.98-.26-6.44-1.11-13.28-2.31-19.43-1.18-6.16-2.86-11.57-4.33-15.31-2.63-6.66-5.67-13.43-9.42-19.89-3.75-6.45-8.15-12.67-13.45-17.95-5.27-5.29-11.42-9.64-18.15-12.25-6.71-2.64-13.92-3.49-20.8-2.7-3.01.35-5.99.98-8.91,1.86-2.93.87-5.71,2.01-8.29,3.37-5.14,2.76-9.21,6.7-11.62,11.75-2.46,5.03-3.53,10.88-4.06,16.79-.54,5.93-.61,11.95-.79,17.89-.17,5.94-.44,11.83-1.11,17.54-.66,5.71-1.77,11.25-3.41,16.41-.21.64-.41,1.29-.62,1.92-.22.63-.47,1.25-.71,1.87-.46,1.19-.92,2.36-1.37,3.52-.85,2.25-1.55,4.55-2.18,6.82-1.25,4.54-2.2,8.96-2.96,13.14-.38-3.87-.45-8.67.01-13.84.23-2.59.6-5.27,1.2-7.99.3-1.3.6-2.6.91-3.91.32-1.25.48-2.55.74-3.8,1.74-10.11,1.48-19.89,1.95-25.08.43-5.22.66-10.44.98-15.64.32-5.19.77-10.39,1.72-15.49.92-5.09,2.55-10.13,5.16-14.6,2.64-4.47,6.42-8.12,10.59-10.74,4.18-2.65,8.72-4.3,13.21-5.55,4.52-1.2,9.12-1.83,13.67-1.88,9.1-.09,17.87,2.46,25.23,6.71,7.39,4.26,13.46,10,18.37,16.17,2.46,3.09,4.71,6.27,6.67,9.53,1.03,1.61,1.9,3.28,2.84,4.9.85,1.66,1.75,3.29,2.51,4.96.39.83.79,1.66,1.18,2.48.36.83.72,1.66,1.08,2.49.74,1.65,1.37,3.32,2.02,4.97.66,1.65,1.2,3.31,1.8,4.95.55,1.65,1.1,3.32,1.55,4.98,1.85,6.64,2.97,13.19,3.54,19.55.33,3.02.45,6.61.44,10.34-.08,3.74-.29,7.61-.75,11.22-.82,7.22-2.63,13.22-3.27,15.14Z"></path><path class="cls-6" d="m145.12,441.03c13.64-36.84-9.04-78.79,30.64-91.82,29.14-9.57,59.41,5.74,75.67,54.17,5.9,17.56,7.78,42.31,3.48,59.99h0s-6.03,10.25-50.16,13c-42.25,2.63-64.39-13-64.39-13h0c.82-7.14,2.46-16.13,4.76-22.34Z"></path></g><g id="default-3"><path class="cls-5 color-body" d="m169.21,402.43c-4.77,11.19-7.75,25.3-10.38,45.73-2.91,22.66-8.17,41.04-19.89,39.45-14.69-1.98-18.92-32.76-17.98-48.04,1.14-18.56,3.92-46.03,22.5-62.52,15.9-14.11,24.32-.71,24.32-.71" style="fill:#ffffff;--backup-fill:#ffffff"></path><path d="m167.73,376.37c-.27-.11-.8-.67-1.71-1.42-.9-.74-2.16-1.68-3.83-2.4-1.66-.72-3.74-1.14-6-.89-2.26.27-4.58,1.26-6.82,2.56-1.07.76-2.23,1.41-3.23,2.34l-1.56,1.31c-.51.44-.97.97-1.46,1.44-.95.98-1.96,1.91-2.78,2.99-.43.52-.85,1.04-1.27,1.55l-.63.76-.56.81c-3.1,4.18-5.09,8.5-6.32,11.62-4.31,11.12-6.18,23.89-6.91,36.9-.1,1.63-.18,3.26-.26,4.9-.08,1.64-.12,3.15-.09,4.76.04,3.17.27,6.36.63,9.51.73,6.29,1.99,12.48,4.02,18,.89,2.4,1.95,4.7,3.21,6.72.64.98,1.31,1.94,2.05,2.72.72.81,1.51,1.48,2.3,1.97.79.53,1.61.84,2.45,1.01.85.2,1.69.2,2.41.05,1.43-.28,2.89-1.32,4.21-3.02,1.32-1.67,2.43-3.79,3.36-6.03.95-2.23,1.72-4.61,2.41-7,1.37-4.8,2.37-9.71,3.23-14.54.84-4.8,1.54-9.71,2.42-14.39.86-4.69,1.82-9.23,2.89-13.56,2.14-8.67,4.88-16.55,8.24-23.07-.53,3.34-1.15,7.34-1.68,11.62-.55,4.27-.99,8.83-1.41,13.26-.81,8.85-1.47,17.21-2.33,21.55-.87,4.45-1.79,8.85-2.88,13.16-1.08,4.31-2.31,8.54-3.9,12.63-.8,2.04-1.7,4.05-2.78,5.99-1.07,1.94-2.34,3.82-3.98,5.47-.81.83-1.73,1.59-2.76,2.21-1.01.64-2.17,1.12-3.35,1.4-2.4.59-4.81.26-6.96-.52-2.16-.8-4-2.16-5.48-3.7-1.49-1.54-2.66-3.26-3.65-5.01-1.99-3.52-3.29-7.2-4.34-10.85-2.03-7.32-2.99-14.58-3.37-21.64-.09-1.77-.12-3.52-.11-5.27,0-1.76.12-3.5.2-5.17.18-3.38.42-6.71.74-9.99.65-6.55,1.64-12.89,3.18-18.92,1.54-6.03,3.63-11.75,6.4-16.94,2.76-5.19,6.23-9.83,10.23-13.62.48-.45.98-.91,1.5-1.4.26-.24.52-.49.8-.72.3-.22.6-.45.9-.68.61-.45,1.24-.91,1.88-1.39.65-.46,1.39-.83,2.1-1.25,2.86-1.6,6.28-2.79,9.59-2.65,3.31.1,6.14,1.5,7.89,3.03,1.78,1.54,2.73,3.04,3.13,3.79Z"></path></g><path class="cls-2" d="m164.35,414.87c8.83,6.53,16.55,12.88,25.38,19.4-3.28,4.13-6.41,7.5-9.93,11.47,5.85,6.59,12.14,12.59,19.04,19.25,5.8-7.57,11.03-15.58,15.61-23.94,7.79,7.49,11.53,12.55,12.89,13.85,2.16-2.91,4.58-5.75,10.71-15.55,3.16,2.96,6.06,6.19,8.65,9.65,3.53-7.5,3.99-8.74,6.27-17.17-3.99-43.91-29.34-79.62-63.29-86-33-1.97-40.26,43.39-29.51,67.03"></path><path d="m160.15,412.89c-.41-.63-2.26-4.22-3.59-9.99-1.33-5.74-2.07-13.61-1.1-21.96.95-8.3,3.69-17.14,8.59-23.88,2.44-3.35,5.39-6.1,8.46-8.02,3.07-1.94,6.19-3.01,8.83-3.62,1.18-.21,2.36-.49,3.56-.55l1.81-.16h1.82s.91,0,.91,0c.12,0,.38-.02.58.04l.46.09,1.78.36c1.19.21,2.35.58,3.54.87,4.71,1.29,9.3,3.23,13.66,5.67,8.74,4.88,16.48,11.8,22.76,19.84,6.31,8.03,11.25,17.12,14.89,26.55,3.64,9.44,6.02,19.22,7.28,28.87.12.77.18,1.55.27,2.33l.29,2.66-1.32,4.83c-.43,1.5-.89,3.01-1.43,4.51-.54,1.5-1.16,2.96-1.79,4.38l-1.38,3.01-1.93,4.12-2.48-3.26c-.42-.55-.83-1.06-1.24-1.57l-.74-.9c-.84-1-1.71-1.97-2.59-2.92l-1.35-1.4-.28-.28h0s0,0,0,0h0s0,0,0,0l-.07.11-.27.42c-1.44,2.25-2.9,4.47-4.43,6.65-.76,1.09-1.54,2.17-2.34,3.23-1.26,1.67-2.52,3.34-3.77,5.01-.99-1.03-1.96-1.94-2.91-3.08l-1.64-1.92c-.94-1.1-1.89-2.18-2.85-3.24-.96-1.06-1.94-2.11-2.92-3.14l-1.49-1.53-.75-.76-.04-.04s-.05-.09-.06-.04l-.03.04-.02.02h0s-.07.13-.07.13c-.71,1.25-1.45,2.48-2.19,3.71-1.48,2.45-3.01,4.84-4.58,7.18-1.57,2.34-3.17,4.62-4.82,6.85l-1.24,1.66c-.67.88-1.34,1.76-2.01,2.63l-.57.75-.29.37c-.04.12-.11-.04-.16-.07l-.17-.17-1.35-1.32c-.69-.68-1.38-1.35-2.07-2.02-3.84-3.77-7.6-7.5-11.16-11.27-.88-.95-1.76-1.9-2.63-2.84-1.08-1.21-2.15-2.41-3.21-3.61l-.27-.3-.13-.15s-.03-.05,0-.08l.07-.08.54-.6,1.04-1.15c.48-.53.96-1.05,1.44-1.58.84-.91,1.67-1.82,2.49-2.72.81-.91,1.62-1.81,2.42-2.7.62-.71,1.24-1.42,1.85-2.13.07-.09.17-.18.22-.27l-.27-.22-.84-.67c-.93-.72-1.84-1.44-2.75-2.16-7.25-5.74-13.87-11.27-20.11-16.12,4.18,2.57,9.2,5.97,14.54,9.7,2.67,1.87,5.44,3.8,8.24,5.75l2.19,1.52,1.67,1.18.43.3.21.15.11.08s.08.05.03.09l-.61.81-2.11,2.74c-.54.68-1.07,1.35-1.6,2.02-1.08,1.33-2.16,2.64-3.24,3.91-.52.62-1.03,1.23-1.55,1.84-.07.1-.17.23-.19.26l-.04.07s.05.04.07.06l.14.11.81.84c.54.56,1.08,1.11,1.61,1.65,1.08,1.08,2.12,2.12,3.13,3.13,4.07,4,7.6,7.37,9.97,9.76l.59.59.15.15s0,0,0,.02v.02s.03.06.06.1c.02,0,.05-.02.08-.05l.03-.02s0,0,.02-.02l.13-.16.5-.64c1.33-1.72,2.62-3.46,3.87-5.21,2.5-3.5,4.86-7.06,7.06-10.65.54-.9,1.08-1.8,1.62-2.7l1.3-2.27.65-1.14.16-.28.08-.14s.08.06.11.08l.47.47,1.88,1.86,1.38,1.4c.72.76,1.44,1.52,2.16,2.28,1.42,1.53,2.8,3.08,4.14,4.64.66.79,1.32,1.57,1.98,2.35l.6.72c.14.15.29.39.44.47l.56-.7,1.12-1.46c.81-1.07,1.6-2.14,2.37-3.23,1.54-2.17,3.01-4.38,4.45-6.6l1.51-2.34.39-.61c.07-.09.13-.22.2-.28l.26.25,1.04,1,1.03,1.01.78.79,1.36,1.45c.89.97,1.76,1.96,2.59,2.98l.88,1.1.67.89c.2-.33.39-.78.58-1.17l.81-1.74c.63-1.4,1.23-2.8,1.74-4.22.51-1.42.96-2.85,1.38-4.3.39-1.4.78-2.79,1.17-4.17-.09-.9-.19-1.79-.28-2.69-.09-.94-.21-1.87-.34-2.8-.23-1.86-.54-3.7-.86-5.53-.67-3.65-1.44-7.24-2.42-10.74-1.89-7.01-4.44-13.67-7.48-19.91-6.09-12.46-14.46-23.16-24.45-30.88-2.49-1.93-5.07-3.69-7.76-5.2-1.32-.8-2.7-1.45-4.05-2.16-1.39-.61-2.74-1.29-4.16-1.8-2.78-1.14-5.64-1.96-8.49-2.64-.72-.15-1.43-.31-2.14-.46-.2-.05-.2-.05-.4-.04h-.54s-1.07-.02-1.07-.02h-1.07s-1.06.07-1.06.07c-.7.07-1.42.07-2.1.2-5.56.77-10.67,3.31-14.51,7.06-1.93,1.87-3.6,3.96-5.03,6.19-1.39,2.25-2.56,4.61-3.55,7.02-1.38,3.47-2.59,7.77-3.34,12.35-.78,4.58-1.03,9.45-.84,13.99.17,4.54.82,8.76,1.64,12.09.78,3.35,1.8,5.78,2.25,7Z"></path><path class="cls-3" d="m206.24,378.74c2.97,12.72,4.82,25.64,5.52,38.59l8.07-.29c-1.1-12.98-2.72-25.93-4.86-38.82-.48-2.32-6.84.63-8.96.54"></path><path d="m206.01,378.74c.2-.12,1.14-.35,2.57-.84.71-.23,1.55-.51,2.49-.76.47-.12.97-.24,1.51-.32.25-.04.57-.07.92-.07.34,0,.68.04,1,.15.32.11.63.29.83.58.21.28.28.62.35.97.11.58.22,1.16.32,1.73.2,1.08.4,2.15.59,3.18.38,2.05.72,3.91,1,5.23.94,4.4,1.74,9.14,2.43,13.94.34,2.4.65,4.82.94,7.22.14,1.2.27,2.4.41,3.59.08.78.16,1.55.24,2.32.1,1.07.21,2.14.31,3.21-1.2.05-2.33.1-3.46.15-1.2.06-2.39.11-3.55.17-1.73.07-3.42.14-5.01.2-.1-1.59-.19-3.17-.29-4.75-.06-.92-.13-1.85-.19-2.76-.14-1.83-.28-3.64-.44-5.41-.31-3.56-.67-7-1.05-10.28-.75-6.56-1.58-12.46-2.23-17.33,1.38,2.25,2.85,5.72,3.95,9.09,1.11,3.37,1.84,6.62,1.95,8.37.24,3.75.45,7.37.62,10.87.08,1.75.16,3.46.23,5.14.03.84.06,1.67.1,2.5.01.54.02,1.07.03,1.6.42,0,.84,0,1.25,0,.69-.01,1.38-.03,2.05-.04,1.07-.03,2.12-.06,3.11-.08-.06-.63-.11-1.25-.16-1.86-.09-.88-.17-1.75-.26-2.6-.19-1.71-.38-3.39-.57-5.04-.4-3.28-.83-6.42-1.26-9.42-.86-6-1.74-11.46-2.38-16.52-.07-.48-.14-1.01-.2-1.57-.03-.26-.02-.33-.04-.53,0-.17-.08-.34-.22-.44-.14-.11-.31-.16-.49-.2-.19-.04-.33-.05-.65-.05-.56,0-1.16.07-1.73.15-2.3.34-4.38.69-5.04.51Z"></path><path class="cls-2" d="m177.4,349.15c-28.61,9.09-54.5,37.87-59.6,67.7,4.55,10.26,26.14,10.78,36.25,11.07,5.18.34,10.33-4.48,10.81-9.74,3.01-11.8,11.89-22.21,11.48-34.38-1.89-11.19-4.39-22.24.25-33.27"></path><path d="m177.26,348.67c-7,2.23-13.63,5.53-19.75,9.58-6.35,4.2-12.19,9.18-17.38,14.75s-9.84,11.82-13.6,18.51c-3.64,6.47-6.51,13.4-8.26,20.62-.21.87-.4,1.73-.58,2.61-.15.72-.56,1.78-.27,2.48.44,1.07,1.2,2.06,1.98,2.9,1.74,1.85,4,3.15,6.32,4.13,5.48,2.32,11.56,3.14,17.45,3.64,2.74.23,5.5.36,8.25.46,1.24.04,2.53.17,3.77.07,1.71-.13,3.35-.74,4.78-1.67s2.77-2.27,3.73-3.78c.47-.75.86-1.55,1.15-2.39s.36-1.7.57-2.56c.98-3.94,2.71-7.69,4.42-11.35,3.3-7.06,7.11-14.36,7.01-22.36-.01-1.06-.28-2.12-.46-3.16-.2-1.15-.4-2.29-.59-3.44-.39-2.31-.74-4.62-.99-6.95-.48-4.49-.57-9.06.29-13.51.43-2.26,1.1-4.46,1.98-6.57.25-.59-.72-.85-.96-.27-2.03,4.86-2.78,10.09-2.65,15.34.13,5.15,1.02,10.25,1.9,15.32.22,1.28.5,2.54.49,3.84-.01,1.14-.1,2.29-.27,3.42-.32,2.19-.9,4.33-1.62,6.41-1.52,4.38-3.64,8.52-5.58,12.73-.96,2.08-1.88,4.18-2.66,6.33-.39,1.08-.76,2.17-1.07,3.27-.29,1.01-.37,2.06-.7,3.07-1.25,3.82-4.98,7.16-9.1,7.3-1.38.04-2.79-.07-4.17-.12-1.54-.06-3.09-.13-4.63-.22-3.45-.21-6.9-.54-10.31-1.13s-6.61-1.35-9.69-2.67c-2.58-1.1-5.17-2.65-6.82-4.98-.38-.54-.71-1.12-.98-1.72l.05.39c2.06-11.97,7.29-23.25,14.28-33.13s16.32-18.97,26.81-25.62c5.67-3.6,11.75-6.55,18.16-8.6.61-.19.35-1.16-.27-.96h0Z"></path><path class="cls-3" d="m182.75,348.31c-10.15,9.58,10.56,29.91,22.26,31.4-10.82,4.56-17.82,11.06-20.42,18.65-8.94-12.08-19.36-39.45-3-50.35"></path><path d="m181.63,348.06c-.02.43-1.04,1.34-2.31,2.81-1.27,1.47-2.65,3.62-3.53,6.17-.93,2.53-1.25,5.45-1.22,8.11.03,2.66.46,5.07.92,6.75,1.16,4.3,2.87,8.69,4.97,12.95.52,1.07,1.07,2.12,1.65,3.16.28.52.58,1.04.88,1.55.15.26.29.52.45.77l.22.36.05.05c.14.15.25.26.35.34.05.04.1.07.14.1l.06.03s.02-.08.04-.12c.03-.14.06-.26.09-.35l.04-.13.02-.06v-.03s0,0,0,0c0,0,.02-.02-.04.05l.1-.15c1.19-1.8,2.56-3.39,4-4.83,1.18-1.2,2.46-2.27,3.76-3.28.67-.48,1.31-.99,2-1.43l1.02-.67c-.09.06-.03.01-.05.02-.02-.01,0,0,.07-.01.03,0,.06-.03.02-.11,0,0-.02-.03,0-.02l-.68-.42c-.47-.3-.92-.61-1.38-.92-.9-.63-1.77-1.28-2.59-1.96-3.31-2.71-6.11-5.75-8.35-9.04-2.19-3.3-3.91-6.89-4.3-10.74-.19-1.91.03-3.88.76-5.59.72-1.71,1.91-3.05,3.17-3.98-.84,1.89-1.22,4.21-.75,6.21.24,1.02.64,1.98,1.1,2.9.52.92,1.05,1.79,1.7,2.62,2.49,3.32,5.55,5.96,6.81,7.67,1.8,2.4,3.9,4.57,6.16,6.39l.86.67.44.31c.16.11.23.17.57.39.54.35,1.13.63,1.69.92l.84.44c.27.15.69.23,1.02.35l1.04.33c.34.11.66.22,1.1.31.81.2,1.62.4,2.42.59,1.63.37,3.25.74,4.85,1.1l-.28.18-.14.11-.27.22-.13.11s-.05.07-.22.13l-.79.32c-1.02.42-2.04.83-3.05,1.25-2.04.84-3.92,1.68-5.71,2.5-.82.43-1.63.87-2.44,1.3l-.29.16-.26.16-.38.23-.76.46c-1,.64-1.96,1.32-2.87,2.03-1.81,1.44-3.44,3.03-4.76,4.77-.54.69-1.55,2.2-2.25,3.73-.35.81-.72,1.59-1.04,2.43-.34.83-.67,1.66-.95,2.45l-.43.04s-.08-.05-.13-.12l-.14-.19-.29-.39c-.38-.52-.75-1.03-1.12-1.55-.74-1.03-1.46-2.05-2.17-3.13-.35-.55-.7-1.1-1.05-1.65-.3-.51-.6-1.02-.9-1.53-.46-.82-.93-1.63-1.35-2.45-1.73-3.26-3.14-6.55-4.27-9.83-1.1-3.29-1.93-6.56-2.29-9.83-.37-3.26-.35-6.5.3-9.57.22-1.4.79-3.03,1.53-4.62.77-1.59,1.85-3.1,2.98-4.35,2.34-2.5,4.96-3.66,5.76-4.02Z"></path><path class="cls-3" d="m210.43,378.88c7.46-3.6,10.98,6.23,16.08,13.81,9.86-14.47-6.49-35.78-22.63-41.79,6.66,9.42,8.9,17.45,6.82,28.28-.06-.24-.21.86-.27.62"></path><path d="m210.49,379.79s.02,0,.02-.01c-.05.04-.07.05-.07.04-.1-.11-.11-.06-.11-.11-.02-.06-.03-.13-.05-.21-.01-.08-.03-.17-.03-.27,0-.05,0-.1,0-.15,0-.04.03-.02.02,0v-.08c-.1-1.8.34-5.85-.27-9.96-.13-1.03-.35-2.05-.6-3.05-.14-.49-.24-.99-.42-1.46-.08-.24-.16-.47-.24-.7l-.12-.35c-.02-.08-.12-.35-.18-.48-.28-.67-.56-1.33-.82-1.96-.3-.65-.68-1.31-1.02-1.94-.18-.32-.33-.62-.52-.94-.23-.35-.45-.68-.66-1.01-.46-.68-.88-1.32-1.28-1.9-1.79-2.51-3.61-5.06-5.64-7.92.45-.35.92-.59.9-.96.02-.04.03-.08.05-.11.04-.02-.04-.11.23,0l1.15.39c.75.26,1.51.52,2.26.79,1.48.53,2.93,1.06,4.46,1.65.8.37,1.57.66,2.42,1.1l1.29.67.65.34.68.42c.91.57,1.82,1.09,2.76,1.8.94.67,1.88,1.32,2.82,2.11l1.13.94.78.69c.52.45,1.02.93,1.52,1.41,1.98,1.92,3.79,3.98,5.38,6.17,3.17,4.34,5.61,9.46,6.27,15.08.1.69.12,1.41.15,2.11.02.35.01.71,0,1.06l-.05,1.29c-.16,1.13-.32,2.26-.53,3.34l-.46,1.51c-.15.5-.29,1.02-.51,1.43-.75,1.83-1.67,3.22-2.59,4.64-.47.72-.94,1.44-1.41,2.15l-.72,1.08-.61.72c-1.04-1.72-2.06-3.42-3.07-5.1-.98-1.61-1.91-3.33-2.78-4.91-.41-.75-.81-1.49-1.21-2.23-.22-.42-.44-.84-.65-1.26-.22-.4-.44-.8-.66-1.19-.22-.37-.45-.74-.67-1.11-.9-1.41-1.84-2.58-2.87-3.13-1.01-.6-2.32-.65-3.7-.31.4-.58.93-1.29,1.73-1.76.79-.53,1.85-.79,3.04-.77.56.07,1.19.15,1.76.33.55.2,1.18.4,1.67.7.53.28,1.07.59,1.52.93.49.33.95.69,1.36,1.05.44.36.85.74,1.22,1.11.38.37.76.75,1.08,1.12.17.19.33.37.5.55l.24.27c.07.08.06.03.09.05.09.02.16.03.22.03.16-.09.1-.26.1.02,0,.2.02.44.07.71l.05.22c.02.09.04.15.06.17.04.07.09.12.14.16.1.08.22.1.35.07.25-.06.5-.33.71-.75l.14-.35c.05-.14.08-.21.11-.48.09-.61.11-1.22.12-1.84,0-1.24-.11-2.48-.36-3.7-.97-4.92-3.56-9.34-6.56-12.94-1.5-1.8-3.19-3.47-4.83-4.86-1.05-.87-2.12-1.59-3.08-2.12-.97-.54-1.87-.91-2.68-1.15l-.6-.16h-.04s.03.04.03.04l.07.09.13.18.26.36c.34.47.64.92.92,1.35.63.98,1.09,1.85,1.42,2.72.09.22.16.44.22.66l.1.34.18.7c.29,1.07.47,2.15.61,3.21.35,2.15.16,5.09-.41,7.56-.54,2.49-1.42,4.53-1.81,5.37-.01.02-.02.11-.04.08-.02-.05-.05.03-.06.04-.03.06-.03.12-.06.17-.04.1-.07.18-.09.24-.03.06-.05.11-.07.14,0,.03-.04,0,0,.05,0,0,.03-.01.04-.03h0Z"></path><path d="m209.84,379.98c2.86,12.13,4.34,24.48,5.21,36.9.05.67.43,1.55,1.19,1.62.72.07,1.17-.69,1.13-1.34-.89-12.68-2.39-25.31-5.31-37.69-.43-1.82-2.65-1.31-2.22.52h0Z"></path><path class="cls-1" d="m134.32,380.63c5.45,6.22,15.54,7.64,23.79,8.85-1.14,2.59-4.67,6.91-6.69,8.94-7.61-.54-16.13-4.36-21.82-9.35,1.31-3.47,3.48-6.06,4.78-9.35"></path><path d="m134.4,379.73c.09.19-.08.96-.52,2.02-.43,1.06-1.15,2.4-1.89,3.8-.37.7-.73,1.43-1.05,2.16-.09.21-.14.33-.18.44l-.13.36c-.04.12-.09.24-.11.34l.3.23.29.21c.12.08.23.16.34.24.29.2.58.4.85.59.56.35,1.06.67,1.49.9,3.06,1.67,6.49,3.14,10.04,4.17,1.78.51,3.58.91,5.38,1.15.45.05.89.13,1.34.15.16.01.09,0,.11,0,0,0,0,0,.02,0,.02,0,.03,0,.04-.03.02-.03-.02,0,.05-.07l.44-.51c.29-.35.57-.69.86-1.03.98-1.21,1.92-2.45,2.77-3.7l.08-.12s0,0,0,0c0,0,0,0,0,0h0s0,0,0,0c0,0,.01,0,.01-.01l-.18-.04-.15-.03-.58-.1c-.77-.13-1.54-.28-2.29-.44-1.52-.31-3.01-.66-4.45-1.08-2.89-.82-5.61-1.91-7.92-3.34-2.32-1.41-4.2-3.15-5.43-4.98,1.9.97,4.44,2,6.85,2.67,2.4.7,4.69,1.16,5.85,1.63,2.33.96,4.73,1.66,7.1,2.22l.89.21.44.1.61.12c.87.18,1.72.31,2.51.52l1.18.28c.32-.02.09.24,0,.43l-.3.57c-.39.74-.8,1.46-1.26,2.15-.52.78-.82,1.16-1.18,1.64-.36.45-.71.9-1.06,1.35-.71.88-1.44,1.73-2.17,2.55-.37.41-.69.77-1.26,1.36l-.38.4c-.17.02-.36-.02-.54-.03l-1.02-.09c-1.07-.11-2.11-.28-3.13-.47-4.08-.81-7.74-2.18-10.98-3.83-1.62-.83-3.13-1.74-4.51-2.75-.35-.24-.68-.51-1.01-.77l-.52-.41-.7-.61-.69-.6c-.09-.11-.28-.18-.28-.31l.18-.42c.23-.56.48-1.1.73-1.62.69-1.45,1.92-3.05,2.99-4.45,1.08-1.39,1.91-2.67,2.17-3.11Z"></path><path class="cls-1" d="m126.35,394.33c5.32,8.99,16.25,9.72,23.85,10.35-1.27,3.38-4.37,11.65-5.3,14.26-5.83,2.02-19.14-3.58-24.03-7.35-3.48-2.76,4.77-14.56,4.9-18.37"></path><path d="m125.81,393.22c.17.18.15,1.2-.28,2.54-.41,1.35-1.12,3.04-1.89,4.84-.76,1.8-1.58,3.71-2.13,5.48-.56,1.74-.75,3.47-.38,4.19.05.07.09.14.12.21.05.05.1.1.14.15.06.03.11.07.16.11l.33.2c.44.28.9.55,1.38.81.94.52,1.95,1.01,2.96,1.48,2.04.93,4.18,1.76,6.35,2.47,2.17.7,4.39,1.29,6.55,1.6,1.08.17,2.14.21,3.13.19.25-.01.47-.05.71-.08.22-.03.55-.06.46-.06.03,0,.04-.04.03-.05.64-1.78,1.28-3.55,1.91-5.32.69-1.83,1.37-3.66,2.04-5.45.03-.08.03-.08.03-.07h0s0,0,0,0h.01s.02-.03.03-.04c-.01,0,.01-.01-.04-.03l-.38-.06c-1.82-.21-3.72-.49-5.52-.88-3.62-.76-7.06-2.05-9.82-3.98-2.76-1.92-4.75-4.41-5.84-6.84.51.39,1.04.82,1.57,1.28.61.4,1.17.88,1.82,1.28,1.27.84,2.69,1.53,4.07,2.11,2.8,1.1,5.55,1.62,6.98,2.1,1.43.5,2.91.86,4.4,1.17.74.15,1.48.29,2.23.41l.28.05.14.02.21.03.84.11c.56.07,1.13.14,1.69.21.58.07,1.16.14,1.74.21.02,0,.04,0,.05,0l-.02.05-.04.11-.09.21-.17.43-.34.84c-.39.96-.78,1.91-1.17,2.86-.55,1.35-1.1,2.67-1.64,3.98-.52,1.31-1.03,2.6-1.53,3.87-.25.64-.49,1.27-.73,1.9l-.45,1.18-.12.32c-.05.1-.05.25-.19.24l-.67.16c-.97.29-1.56.26-2.28.35-.68-.03-1.37.02-2.03-.07-.66-.06-1.32-.12-1.96-.25-.64-.09-1.27-.22-1.89-.37-4.95-1.15-9.34-2.91-13.26-5.03-.98-.53-1.92-1.11-2.82-1.77-.19-.12-.55-.41-.79-.72-.25-.32-.42-.67-.54-1.02-.23-.7-.23-1.34-.2-1.93.09-1.18.38-2.21.71-3.18.34-.97.72-1.88,1.13-2.76.74-1.68,2-3.8,3.08-5.66,1.1-1.85,1.89-3.52,1.96-4.16Z"></path><path d="m171.38,400.96c.14.45-.47,2.07-1.27,4.5-.8,2.42-1.79,5.64-2.67,9.15-.89,3.5-1.69,7.29-2.33,10.77-.35,2.02-.69,3.95-.99,5.7-.86.61-1.79,1.19-2.65,1.62-.66.38-1.31.63-1.88.91-4.16,1.77-8.84,2.21-13.4,1.93-4.58-.29-9.13-1.29-13.52-2.74-4.39-1.46-8.64-3.36-12.66-5.73l-.75-.46-.43-.27-.64-.43-2.56-1.78-.64-.45-.32-.23c-.02-.11.03-.25.04-.37l.26-1.52c.19-1.02.38-2.03.57-3.05.2-1.1.4-2.2.6-3.29.24-1.08.52-2.15.77-3.21,3.63-14.88,10.94-28.69,20.3-38.96,4.68-5.13,9.84-9.38,15.12-12.51,5.27-3.14,10.65-5.1,15.53-5.99-.93.76-1.96,1.53-3.04,2.31-.27.19-.55.38-.82.58-.27.22-.54.44-.81.67-.54.44-1.1.89-1.66,1.34-1.15.84-2.23,1.87-3.33,2.84-.55.49-1.12.94-1.65,1.45-.52.51-1.04,1.03-1.56,1.54-4.14,4.01-7.61,8.01-9.71,9.91-.53.48-1.06.95-1.59,1.42-.54.47-1.05.95-1.53,1.47-.98,1.02-1.95,2.04-2.91,3.05-1.78,2.15-3.59,4.25-5.11,6.53-1.64,2.2-2.95,4.56-4.34,6.83-.63,1.17-1.22,2.35-1.82,3.52-.3.59-.59,1.17-.89,1.75-.26.6-.52,1.19-.77,1.79-.51,1.19-1.01,2.38-1.5,3.55-.42,1.2-.84,2.4-1.25,3.58-.2.59-.41,1.19-.61,1.78-.17.6-.33,1.2-.5,1.79-.32,1.19-.64,2.38-.96,3.55-.29,1.18-.5,2.37-.74,3.55l-.23,1.17-.1.54c.06.14.28.22.41.34.3.22.61.41.91.61.42.26.95.61,1.43.88.98.59,1.98,1.13,2.98,1.65,4.02,2.06,8.15,3.6,12.21,4.68,4.06,1.07,8.09,1.68,11.9,1.65,1.9-.01,3.75-.19,5.48-.56.87-.19,1.7-.43,2.51-.71.39-.16.79-.32,1.17-.47.46-.23.53-.25.74-.36l.27-.16c.1-.05.19-.1.19-.22l.13-.61c.2-.89.39-1.76.58-2.63.41-1.8.86-3.56,1.35-5.28.86-3.28,2.48-7.67,4.27-11.37,1.75-3.72,3.74-6.66,4.43-7.57Z"></path><path class="cls-3" d="m120.39,418.93c13.47,8.06,27.06,12.45,44.77,3.86.45,4.38,1.46,10.15.37,14.04-20.29,7.33-40.05,2.33-51.99-7.68.28-4.5.45-7.75,1.51-12.29.96.31,2.6.82,3.57,1.61"></path><path d="m118.6,418.49c-.16-.02-.54-.23-1.16-.47-.59-.22-1.33-.46-2.1-.6-.12.67-.22,1.3-.34,2.11-.14.92-.26,1.92-.36,2.96-.1,1.04-.17,2.12-.23,3.23-.05,1-.09,2.02-.14,3.04-.04.11.11.13.16.19l.22.16.58.43c.44.32.86.67,1.31.96.91.57,1.76,1.17,2.62,1.66.87.47,1.68.93,2.45,1.32.78.35,1.49.67,2.11.95,2.99,1.22,6.18,2.25,9.49,2.96,3.32.69,6.76,1.1,10.21,1.23,3.46.05,6.93-.17,10.32-.68.85-.14,1.68-.32,2.52-.48l1.25-.24,1.23-.32c.82-.22,1.63-.43,2.44-.65.79-.27,1.58-.53,2.36-.8l.23-.08c.07-.02.03-.01.05-.02,0,0,.03-.01.03-.01,0,0,0-.01,0-.02-.04.24.1-.64.12-1.17.08-1.19.05-2.44-.04-3.68-.08-1.25-.22-2.5-.36-3.74l-.11-.93c-.01-.11,0-.03,0-.05h0c-.27.11-.55.22-.82.34-1.08.39-2.15.77-3.21,1.15-1.12.34-2.25.63-3.36.94-1.14.22-2.26.46-3.38.65-4.52.67-8.99.47-13.06-.37-4.08-.84-7.75-2.27-10.99-3.88-3.24-1.62-6.07-3.41-8.57-5.13,3.42,1.1,8.24,2.91,12.81,4.09,4.56,1.27,8.87,1.62,11.12,1.93,3.67.49,7.35.33,10.85-.37,1.74-.37,3.46-.77,5.09-1.35.41-.14.82-.27,1.23-.4.11-.04.19-.06.32-.11l.43-.18.84-.35c1.09-.46,2.17-.91,3.23-1.36.21,2.22.42,4.41.62,6.57.14,1.73.25,3.45.2,5.17-.02.86-.1,1.73-.24,2.59-.07.51-.23,1.1-.36,1.64,0,.18-.17.19-.29.23l-.4.13-.8.26c-.79.25-1.57.5-2.35.75-.77.26-1.57.41-2.34.62-3.1.84-6.21,1.28-9.23,1.63-1.52.1-3.02.23-4.5.25-1.48-.02-2.95.04-4.39-.1-5.77-.36-11.21-1.5-16.05-3.42-1.2-.51-2.41-.95-3.53-1.54-.57-.28-1.13-.56-1.69-.84-.55-.3-1.08-.62-1.61-.93-1.08-.6-2.08-1.3-3.06-1.99-.5-.33-.98-.69-1.43-1.07-.55-.44-1.09-.88-1.64-1.32l-.23-.18c-.06-.07-.2-.1-.15-.22.02-.2.03-.41.05-.61.03-.37.06-.75.09-1.14.06-.58.12-1.17.19-1.78.14-1.22.32-2.48.55-3.68.22-1.21.49-2.29.76-3.28.3-1.1.58-1.93.76-2.39,2.79.9,3.36,1.57,3.7,1.85Z"></path><path class="cls-4" d="m230.23,411.53c16.15-19.86,15.92,4.63,2.48,12.32-11.16,5.93-5.65-9.35-1.35-13.26"></path><path d="m231.38,410.61c0,.36-1.4,2.07-2.46,4.45-1.11,2.31-1.9,5.2-1.77,6.69.03.65.16,1.29.4,1.66.26.34.39.39.82.39.43-.01,1.04-.15,1.66-.43.62-.25,1.26-.6,1.87-.95,2.37-1.54,4.46-3.73,5.87-6.12,1.26-2.08,2.19-4.37,2.64-6.58.22-1.09.29-2.2.13-3.01-.05-.44-.22-.66-.28-.81-.06-.11-.11-.12-.33-.19-.52-.06-1.51.28-2.37.76-.88.5-1.73,1.1-2.54,1.71-1.63,1.23-3.04,2.57-4.36,3.71.35-1.7,1.29-3.94,2.65-5.81.35-.47.72-.91,1.08-1.33.39-.41.8-.79,1.19-1.12.44-.32.83-.61,1.24-.82.44-.2.8-.38,1.16-.45.38-.07.73-.15,1.12-.18.43,0,.8-.04,1.26.06.88.13,1.79.63,2.35,1.3.27.33.47.69.64,1.03.11.34.27.69.32,1.01.14.65.17,1.26.16,1.85-.1,2.32-.76,4.29-1.52,6.13-1.56,3.65-3.76,6.7-6.38,9.01-1.31,1.14-2.73,2.14-4.26,2.82-.75.36-1.57.63-2.46.78-.45.07-.93.08-1.44,0-.5-.1-1.07-.31-1.48-.7-.89-.78-1.13-1.81-1.22-2.63-.09-.85,0-1.62.12-2.36.25-1.47.73-2.78,1.29-3.99.5-1.16,1.47-2.61,2.47-3.74,1-1.15,2.06-1.91,2.43-2.11Z"></path><path class="cls-1" d="m247.94,366.06c-10.44-5.17,1.74,19.28,9.82,21.12,11.56,4.51,2-12.4-1.99-15.2"></path><path d="m247.93,366.09c-.08.05-.27.04-.53,0-.26-.05-.59-.14-.97-.19-.19-.05-.38-.06-.56-.05-.18-.02-.37.03-.56.07-.38.12-.66.49-.72.91-.05.2-.04.43-.03.65.02.24.06.54.11.81.11.56.27,1.11.46,1.63.36,1.05.84,1.97,1.2,2.6,1.34,2.22,2.89,4.53,4.62,6.68,1.72,2.12,3.67,4.2,5.65,5.37.59.36,1.16.55,1.6.67l.17.05.11.04c.91.33,1.86.59,2.47.6.19.02.2,0,.3,0h0s.02.05.05-.08c.09-.47,0-1.38-.23-2.22-.22-.87-.53-1.75-.87-2.6-.68-1.71-1.48-3.33-2.27-4.8-.81-1.45-1.62-2.82-2.49-3.78.75.02,1.67.4,2.55.91.88.52,1.74,1.18,2.5,1.9,1.52,1.43,2.65,3.07,2.96,4.07.38,1.19.7,2.37.92,3.59.11.61.18,1.24.2,1.89,0,.67,0,1.31-.31,2.11-.29.77-.88,1.43-1.61,1.73-.77.31-1.46.28-2.06.22-1.19-.15-2.17-.55-3.12-.92l.12.04c-1.35-.37-2.42-1.06-3.38-1.79-.95-.74-1.79-1.53-2.57-2.33-1.55-1.62-2.86-3.29-4.03-4.94-1.16-1.66-2.14-3.32-2.94-5-.79-1.68-1.42-3.35-1.64-5.14-.05-.29-.06-.64-.06-1,0-.16.02-.4.05-.62.04-.22.06-.44.15-.67.14-.45.38-.86.72-1.16.18-.14.34-.29.57-.34.21-.08.41-.14.63-.12.42-.05.81.09,1.15.18.32.13.57.28.81.4.44.28.74.52.89.64Z"></path><path d="m253.64,429.36c.08.47-.45,3.24-1.5,7.05-.53,1.9-1.18,4.07-1.94,6.33-.38,1.13-.79,2.29-1.21,3.45-.28.73-.56,1.47-.84,2.21-.3.76-.61,1.59-.93,2.31-.56-.65-1.12-1.31-1.67-1.95-.53-.6-1.05-1.2-1.57-1.79-.82-.92-1.64-1.8-2.43-2.64-.79-.84-1.56-1.62-2.28-2.35-.13-.13-.26-.26-.39-.38-.1-.09-.19-.18-.29-.27-.18-.17-.36-.34-.51-.45-.1.19-.2.36-.28.52-.21.37-.23.47-.69,1.21-.38.6-.75,1.21-1.13,1.82-.77,1.21-1.59,2.42-2.44,3.64-.85,1.21-1.75,2.43-2.69,3.64l-.71.91-.78.97c-.87,1.02-1.74,2.04-2.63,3.08-.81-.99-1.62-1.99-2.43-2.99-.5-.59-1.01-1.18-1.51-1.77-.97-1.11-1.96-2.22-2.97-3.31-1.01-1.09-2.04-2.17-3.1-3.24l-.79-.8-.4-.4c-.09-.09-.06-.06-.1-.09-.07-.05-.15-.16-.2-.13l-.12.25-1.14,1.92c-.79,1.31-1.59,2.61-2.41,3.9-1.63,2.57-3.31,5.08-5,7.51-.88,1.26-1.77,2.5-2.68,3.73l-1.44,1.92-1.37,1.78-.69.89-.34.45-.17.22c-.06,0-.13-.11-.2-.16-2.68-2.57-5.34-5.12-7.96-7.63-4.76-4.63-9.39-9.14-13.8-13.43.85-.68,1.69-1.35,2.53-2.02l.62-.51.37-.32.58-.52c.77-.69,1.5-1.41,2.21-2.15,1.4-1.49,2.67-3.06,3.79-4.68.1-.14.09-.12.1-.14l.04-.05.09-.11c.11-.09-.02-.13-.07-.2l-.1-.1-.58-.45c-.39-.31-.79-.62-1.18-.93-1.56-1.23-3.09-2.44-4.58-3.62-5.96-4.74-11.33-9.1-15.93-12.96,4.07,2.01,9.73,5.37,14.96,8.71,2.62,1.67,5.13,3.33,7.28,4.83.54.38,1.05.74,1.54,1.08.75.55,1.47,1.08,2.14,1.57.42.32.83.64,1.23.94l.15.11c.08.03-.03.1-.04.15l-.19.31c-.13.21-.25.41-.37.61-.48.79-.96,1.51-1.36,2.13-1.42,1.96-2.97,3.76-4.58,5.36-.81.8-1.62,1.55-2.45,2.25l-.62.51c-.07.05-.09.07-.09.07l-.04.03-.09.06c-.13.08-.26.17-.39.25.05.09.14.18.22.28l.13.16.07.08.22.23c.6.61,1.2,1.22,1.79,1.83,1.19,1.21,2.37,2.4,3.54,3.59,2.36,2.36,4.67,4.67,6.93,6.93,1.06,1.05,2.11,2.09,3.15,3.12l.49.49s.08.09.12.11l.1-.13.21-.26c.36-.46.73-.93,1.09-1.39,1.87-2.44,3.64-4.87,5.32-7.3,1.67-2.43,3.26-4.85,4.75-7.26.37-.6.74-1.21,1.1-1.8.4-.67.8-1.34,1.19-2l.74-1.26.37-.63.18-.31.09-.16s.08.06.12.09c.69.68,1.38,1.35,2.06,2.02.52.53,1.05,1.05,1.56,1.57.47.49.94.97,1.41,1.46.93.97,1.83,1.95,2.71,2.93.88.98,1.73,1.96,2.56,2.94.57.68,1.13,1.35,1.69,2.02.29-.32.54-.63.82-.97.51-.63,1.02-1.25,1.52-1.87.99-1.25,1.94-2.5,2.84-3.75.91-1.25,1.77-2.5,2.6-3.74.44-.67.87-1.34,1.3-2,.61-.98,1.22-1.96,1.82-2.92.63.64,1.26,1.28,1.89,1.91.51.53,1.01,1.06,1.51,1.58.78.83,1.55,1.67,2.29,2.5.74.83,1.47,1.66,2.17,2.5l.54.66.5.63.07.09c.17-.33.35-.77.57-1.23l.2-.44c.1-.23.2-.47.3-.71.2-.48.4-.96.6-1.45.81-1.95,1.62-3.99,2.34-5.92,1.46-3.84,2.57-7.21,2.94-8.32Z"></path></svg>