<svg xmlns="http://www.w3.org/2000/svg" viewBox="0 0 380 600">
  <defs>
    <style>
      .cls-1 {
        fill: none;
      }

      .cls-1,
      .cls-2,
      .cls-3,
      .cls-4,
      .cls-5,
      .cls-6,
      .cls-7,
      .cls-8,
      .cls-9,
      .cls-10,
      .cls-11,
      .cls-12,
      .cls-13 {
        stroke-width: 0px;
      }

      .cls-2,
      .cls-14 {
        opacity: .4;
      }

      .cls-4 {
        fill: #f7f7f7;
      }

      .cls-5 {
        fill: #4fb031;
      }

      .cls-6 {
        fill: #383838;
      }

      .cls-7 {
        fill: #2e2e2e;
      }

      .cls-8 {
        fill: #43962a;
      }

      .cls-9 {
        fill: #1f1f1f;
      }

      .cls-10 {
        fill: #c4c4c4;
      }

      .cls-11 {
        fill: #c7443a;
      }

      .cls-12 {
        fill: #ae3126;
      }

      .cls-13 {
        fill:#ffffff;
      }
    </style>
  </defs>
  <g id="bodytop">
    <g>
      <g id="default">
        <g>
          <path class="cls-13 color-body" d="m219.59,391.44c7.58,9.51,14.23,22.31,22.21,41.29,8.86,21.06,18.83,37.37,29.71,32.71,13.62-5.83,9.48-36.63,4.49-51.1-6.05-17.58-19.43-51.04-47.78-59.99-10.88-3.44-14.23,11.57-14.23,11.57" style="fill:#ffffff;--backup-fill:#ffffff"></path>
          <path class="cls-3" d="m213.93,365.91c-.16-.55.15-3.31,2.08-6.94.99-1.77,2.47-3.83,4.94-5.19,1.23-.65,2.7-1.05,4.21-1.07,1.48-.04,3.07.33,4.38.8,5.47,1.69,10.93,4.63,15.4,7.98,4.51,3.31,8.06,6.94,10.54,9.56,8.76,9.34,15.52,21.48,20.69,34.12.65,1.58,1.27,3.17,1.88,4.77.61,1.61,1.19,3.16,1.77,4.87,1.11,3.35,1.98,6.72,2.69,10.11,1.39,6.77,2.2,13.6,2.05,20.44-.08,2.99-.37,6.03-1.04,9.09-.68,3.05-1.76,6.19-3.76,9.11-.99,1.46-2.31,2.81-3.82,3.92l-1.18.79-1.27.65c-.86.41-1.75.73-2.71.95-1.9.46-3.99.46-5.87.03-1.89-.42-3.56-1.21-5-2.12-2.9-1.84-5.01-4.11-6.87-6.39-1.85-2.3-3.39-4.68-4.81-7.06-2.82-4.78-5.07-9.61-7.1-14.36-1.01-2.37-1.95-4.76-2.85-7.06-.91-2.28-1.8-4.54-2.68-6.76-1.78-4.42-3.57-8.68-5.39-12.72-3.62-8.09-7.42-15.29-11.5-21.29,2.67,2.01,5.64,4.9,8.53,8.31,2.89,3.4,5.66,7.32,8.15,11.24,4.96,7.86,8.74,15.73,10.24,20.01,2.97,8.45,6.27,16.57,10.73,23.44,1.12,1.7,2.33,3.31,3.65,4.73,1.31,1.43,2.77,2.63,4.31,3.44.77.38,1.56.69,2.36.84.8.14,1.6.16,2.4.04,1.61-.28,3.18-1.07,4.45-2.2,2.57-2.31,3.97-5.94,4.74-9.55.78-3.64.98-7.41.92-11.09-.17-7.4-1.36-14.58-3.15-21.29-.45-1.68-.95-3.32-1.51-4.92-.57-1.62-1.16-3.24-1.77-4.82-1.21-3.17-2.48-6.26-3.82-9.25-2.68-5.97-5.63-11.56-8.88-16.69-6.51-10.22-14.28-18.61-23.15-23.99-2.11-1.26-4.68-2.63-7.48-3.83l-1.06-.44c-.36-.15-.72-.3-1.03-.4-.66-.25-1.33-.37-2-.47-1.34-.14-2.7.09-3.92.69-2.47,1.22-4.22,3.58-5.37,5.51-1.16,1.97-1.8,3.63-2.09,4.45Z"></path>
        </g>
      </g>
      <g>
        <path class="cls-8" d="m210.95,350.91c24.93-2.69,57.8,28.96,67.88,48.98-4.43,11.37-16.23,15.45-26.1,14.06-1.61-.23-2.73.55-3.24-.99-9.44-19.54-20.25-38.42-32.33-56.46"></path>
        <path class="cls-3" d="m217.21,356.47c.94.29,5.25,6.15,9.88,13.18,4.64,7.02,9.55,15.22,12.43,19.72,2.11,3.29,4.22,6.72,6.28,10.29,1.04,1.78,2.05,3.6,3.07,5.44.94,1.75,1.9,3.51,2.85,5.29.1.12.13.28.29.32.07.02.15,0,.23-.02l.11-.02h.05s.02-.01.02-.01h.22s2.2.18,2.2.18c.65,0,1.29.03,1.94,0,2.58-.11,5.14-.62,7.5-1.51,2.36-.89,4.52-2.18,6.27-3.82.87-.82,1.67-1.7,2.36-2.67.31-.5.7-.94.96-1.48l.42-.77.21-.37v-.04s.03-.11.03-.11c-.02-.04-.06-.08-.08-.12l-.02-.03s.02.05-.07-.11l-.38-.64-.76-1.28c-1.07-1.69-2.17-3.36-3.36-4.98-2.35-3.26-4.89-6.38-7.53-9.36-5.29-5.95-10.95-11.34-16.72-15.97-5.77-4.64-11.68-8.5-17.53-11.24-5.84-2.74-11.65-4.29-16.99-4.29,2.26-1.06,5.39-1.8,8.84-1.88,3.45-.1,7.19.43,10.69,1.36,3.51.93,6.79,2.24,9.52,3.59,2.71,1.38,4.9,2.75,6.26,3.89,6.91,5.66,12.86,11.68,18.18,17.78,5.29,6.12,9.98,12.32,13.74,18.84.47.84.87,1.52,1.5,2.75l.43.82.21.41.11.21c.02.07-.05.14-.07.21l-.77,1.7-.38.84c-.12.25-.24.43-.36.65l-.72,1.24c-.53.79-1.07,1.58-1.67,2.31-2.42,2.91-5.44,5.21-8.75,6.66-3.29,1.49-6.77,2.3-10.22,2.46-1.72.12-3.44,0-5.13-.16h-.19s-.3-.02-.3-.02l-.86.03c-.57,0-1.11-.02-1.62-.2-.52-.17-.96-.56-1.24-.99-.3-.43-.58-.95-.8-1.47-.89-1.71-1.77-3.4-2.63-5.07-.85-1.6-1.68-3.18-2.51-4.74-1.68-3.1-3.32-6.12-4.95-9.05-3.27-5.85-6.37-11.4-9.32-16.67-1.9-3.33-4.29-8.01-6.39-12.15-2.09-4.14-3.9-7.72-4.47-8.92Z"></path>
      </g>
      <g>
        <path class="cls-5" d="m251.28,412.77c9.73-.5,20.6-7.41,26.35-16.73.26-.42.85-.46,1.14-.06,1.89,2.62,5.08,8.79,4.86,10.74-4.7,6.18-21.75,17.68-29.9,15.99-.18-2.52-.68-5.01-1.5-7.39"></path>
        <path class="cls-3" d="m252.25,415.31c.2.12.62.94,1.04,2.25.21.65.42,1.42.6,2.28.09.41.18.91.24,1.3.05.33.1.65.14.97.63.18,1.28.12,2.34.01.97-.12,1.93-.34,2.83-.62,1.81-.54,3.39-1.26,4.48-1.84,3.78-2.02,7.64-4.57,11.28-7.42,1.81-1.43,3.57-2.94,5.12-4.54.39-.4.76-.8,1.1-1.21l.25-.29s.02-.03.03-.04c.01-.02.01-.04,0-.06-.01-.05,0,.07-.07-.23-.05-.21-.15-.46-.21-.68-.18-.48-.37-.96-.59-1.45-.69-1.53-1.5-3.07-2.34-4.5l-.26-.44-.02-.02h0s0,0,0,0c-.3.39-.59.78-.89,1.17-.47.65-1,1.23-1.52,1.82-1.04,1.18-2.15,2.25-3.29,3.25-2.28,1.99-4.71,3.62-7.17,4.89-4.91,2.56-9.93,3.63-14.04,3.44,2.34-.92,5.42-2.31,8.1-3.88,2.7-1.54,5.01-3.22,6.33-3.96,2.16-1.17,4.15-2.58,5.92-4.13.43-.4.86-.8,1.29-1.19.4-.42.8-.83,1.19-1.25.4-.41.73-.86,1.1-1.28l.27-.32.13-.16.17-.24c.23-.33.46-.66.7-.99l.79-.79c.23-.27.57-.38.96-.38.4.01.7.19.93.45.13.12.25.23.38.36l.35.5c.24.32.43.68.64,1.02l.15.25.11.19.21.38c.28.5.54,1,.8,1.51.51,1.01.99,2.01,1.43,3.03.43,1.04.82,2.01,1.08,3.21.05.36.1.72.08,1.07-.01.09.03.19-.03.26l-.16.21-.32.43c-.24.31-.38.46-.57.67-.17.21-.36.39-.54.59-.72.77-1.46,1.49-2.22,2.17-1.5,1.37-3.04,2.6-4.57,3.76-3.07,2.3-6.14,4.25-9.22,5.82-3.09,1.55-6.2,2.76-9.42,3.12-.31.03-.64.05-.97.07-.17,0-.34,0-.51,0l-.59-.02c-.88-.11-1.75-.23-2.27-.47-.02-.62-.04-1.24-.06-1.83-.02-.45-.04-.88-.06-1.3-.05-.79-.12-1.53-.2-2.19-.16-1.31-.36-2.29-.43-2.71Z"></path>
      </g>
      <g>
        <path class="cls-12" d="m159.69,361.38c15.29-24.81,41.87-13.84,62.12-2.22,28.37,21.79,42,70.27,33.1,112.49-30.21,22.69-77.75,20.32-103.22,11.15-3.17-.74-5.76-2.86-5.45-6.31-.54-35.97-4.84-75.17,10.68-108.5"></path>
        <path class="cls-3" d="m156.98,368.01c-.02.46-.42,1.74-1.1,3.66-.33.97-.79,2.07-1.21,3.36-.4,1.29-.86,2.73-1.35,4.29-1.9,6.27-3.86,14.72-4.96,23.95-2.32,18.46-1.39,39.69-.71,51.46.31,5.2.63,10.51.89,15.9.06,1.35.12,2.71.18,4.06l.04,1.02c0,.36.04.6.02,1.17,0,.4.05.74.18,1.04.24.58.74,1.12,1.54,1.55.39.21.84.4,1.33.52l.37.09c.35.08.63.19.75.22l.95.3c2.54.81,5.14,1.52,7.78,2.12,2.64.61,5.31,1.13,8.01,1.55,5.4.87,10.89,1.41,16.4,1.62,11.01.46,22.13-.37,32.75-2.63,10.59-2.31,20.73-6.09,29.33-11.69.94-.61,1.88-1.21,2.77-1.89l.34-.25.07-.05h0s.02-.03.02-.03c.01-.01,0-.03,0-.05l.28-1.52c.11-.56.21-1.12.29-1.69.17-1.13.36-2.25.51-3.38.62-4.52.96-9.06,1.09-13.59.13-4.53.03-9.06-.28-13.55-.33-4.49-.88-8.94-1.64-13.32-1.49-8.77-3.88-17.27-7.06-25.25-3.16-7.99-7.22-15.44-12.07-22.01-2.43-3.28-5.06-6.34-7.89-9.11-.72-.67-1.44-1.34-2.16-2.01-.75-.63-1.49-1.26-2.23-1.89-.22-.19-.19-.18-.26-.22l-.62-.37-1.3-.76c-.87-.49-1.73-.99-2.59-1.48-6.89-3.87-13.83-7.11-20.77-8.99-6.91-1.84-13.94-2.19-19.94.09-6.06,2.15-10.7,6.77-14.07,11.7,1.08-2.49,2.55-5.19,4.66-7.78,1.04-1.3,2.29-2.52,3.65-3.7,1.41-1.11,2.94-2.21,4.67-3.05,3.4-1.8,7.41-2.78,11.47-3.08,4.07-.28,8.19.1,12.12.9,7.89,1.6,15.04,4.61,20.98,7.53,1.49.74,2.9,1.47,4.23,2.19.33.18.66.36.99.54.17.11.6.29.83.51l.53.42c.59.47,1.16.92,1.71,1.36,1.1.89,2.05,1.8,2.95,2.62.88.84,1.64,1.66,2.32,2.38,2.7,2.98,5.14,6.12,7.36,9.34,2.2,3.24,4.16,6.58,5.94,9.95,1.78,3.38,3.31,6.84,4.73,10.3,1.38,3.47,2.6,6.97,3.67,10.48,4.2,14.06,6.02,28.22,5.91,41.89-.07,6.84-.58,13.57-1.63,20.11-.27,1.63-.52,3.26-.87,4.87l-.28,1.43-.16.83c-.07.27-.04.6-.34.71l-2.44,1.73c-2.71,1.86-5.5,3.55-8.38,5.03-5.72,3-11.68,5.24-17.66,6.96-5.98,1.74-12.01,2.85-17.98,3.62-11.94,1.47-23.64,1.34-34.82-.01-5.59-.68-11.06-1.69-16.36-3.06-1.32-.35-2.64-.71-3.94-1.12-.65-.19-1.3-.39-1.94-.62l-.97-.32-.48-.16s-.09-.02-.32-.08c-1.52-.4-3.05-1.09-4.35-2.3-.64-.6-1.22-1.33-1.63-2.17-.41-.84-.64-1.76-.7-2.65-.01-.22-.04-.45-.02-.67v-.42s-.01-.97-.01-.97l-.05-1.93c-.03-1.28-.07-2.56-.1-3.83-.08-2.55-.17-5.08-.25-7.58-.17-5.02-.34-9.95-.45-14.82-.22-9.72-.2-19.16.41-28.26.16-2.16.27-4.52.59-7,.28-2.48.56-5.08,1.03-7.72.22-1.32.44-2.65.66-3.99l.85-3.99c.51-2.66,1.28-5.26,1.95-7.77.32-1.26.72-2.48,1.12-3.66.4-1.18.78-2.33,1.16-3.45.34-1.12.82-2.16,1.22-3.16.41-1,.8-1.96,1.17-2.86.18-.45.36-.89.54-1.31.2-.41.39-.81.58-1.19.37-.76.72-1.46,1.03-2.1.63-1.26,1.12-2.25,1.44-2.9Z"></path>
      </g>
      <path class="cls-8" d="m229.75,383.08s10.01,21.52,13.27,48.87c1.68,14.09.39,30.34-2.52,44.71-.36.01,10.78-7.3,10.78-7.3,0,0,4.77-18.72.13-48.12-3.16-20.03-12.08-37.36-23.39-53.31,1.07,2.67,1.74,15.14,1.74,15.14Z"></path>
      <path class="cls-6" d="m184.02,395.7s-5.1,53.04,4.29,90.29c-10.79,1.23-37.93-4.61-37.61-8.06-.55-35.97-9.3-76.61,6.22-109.95l2.76-6.61c6.51-10.57,9.96-11.51,19.21-11.8l5.12,46.12Z"></path>
      <g id="default-2" data-name="default">
        <path class="cls-3" d="m254.85,463.36c-.2-.66.35-3.7.75-8.24.42-4.53.66-10.54.37-16.98-.26-6.44-1.11-13.28-2.31-19.43-1.18-6.16-2.86-11.57-4.33-15.31-2.63-6.66-5.67-13.43-9.42-19.89-3.75-6.45-8.15-12.67-13.45-17.95-5.27-5.29-11.42-9.64-18.15-12.25-6.71-2.64-13.92-3.49-20.8-2.7-3.01.35-5.99.98-8.91,1.86-2.93.87-5.71,2.01-8.29,3.37-5.14,2.76-9.21,6.7-11.62,11.75-2.46,5.03-3.53,10.88-4.06,16.79-.54,5.93-.61,11.95-.79,17.89-.17,5.94-.44,11.83-1.11,17.54-.66,5.71-1.77,11.25-3.41,16.41-.21.64-.41,1.29-.62,1.92-.22.63-.47,1.25-.71,1.87-.46,1.19-.92,2.36-1.37,3.52-.85,2.25-1.55,4.55-2.18,6.82-1.25,4.54-2.2,8.96-2.96,13.14-.38-3.87-.45-8.67.01-13.84.23-2.59.6-5.27,1.2-7.99.3-1.3.6-2.6.91-3.91.32-1.25.48-2.55.74-3.8,1.74-10.11,1.48-19.89,1.95-25.08.43-5.22.66-10.44.98-15.64.32-5.19.77-10.39,1.72-15.49.92-5.09,2.55-10.13,5.16-14.6,2.64-4.47,6.42-8.12,10.59-10.74,4.18-2.65,8.72-4.3,13.21-5.55,4.52-1.2,9.12-1.83,13.67-1.88,9.1-.09,17.87,2.46,25.23,6.71,7.39,4.26,13.46,10,18.37,16.17,2.46,3.09,4.71,6.27,6.67,9.53,1.03,1.61,1.9,3.28,2.84,4.9.85,1.66,1.75,3.29,2.51,4.96.39.83.79,1.66,1.18,2.48.36.83.72,1.66,1.08,2.49.74,1.65,1.37,3.32,2.02,4.97.66,1.65,1.2,3.31,1.8,4.95.55,1.66,1.1,3.32,1.55,4.98,1.85,6.64,2.97,13.19,3.54,19.55.33,3.02.45,6.61.44,10.34-.08,3.74-.29,7.61-.75,11.22-.82,7.22-2.63,13.22-3.27,15.14Z"></path>
        <path class="cls-1" d="m145.12,441.03c13.64-36.84-9.04-78.79,30.64-91.82,29.14-9.57,59.41,5.74,75.67,54.17,5.9,17.56,7.78,42.31,3.48,59.99h0s-6.03,10.25-50.16,13c-42.25,2.63-64.39-13-64.39-13h0c.82-7.14,2.46-16.13,4.76-22.34Z"></path>
      </g>
      <g id="default-3" data-name="default">
        <g>
          <path class="cls-13 color-body" d="m169.21,402.43c-4.77,11.19-7.75,25.3-10.38,45.73-2.91,22.66-8.17,41.04-19.89,39.45-14.69-1.98-18.92-32.76-17.98-48.04,1.14-18.56,3.92-46.03,22.5-62.52,15.9-14.11,24.32-.71,24.32-.71" style="fill:#ffffff;--backup-fill:#ffffff"></path>
          <path class="cls-3" d="m167.73,376.37c-.27-.11-.8-.67-1.71-1.42-.9-.74-2.16-1.68-3.83-2.4-1.66-.72-3.74-1.14-6-.89-2.26.27-4.58,1.26-6.82,2.56-1.07.76-2.23,1.41-3.23,2.34l-1.56,1.31c-.51.44-.97.97-1.46,1.44-.95.98-1.96,1.91-2.78,2.99-.43.52-.85,1.04-1.27,1.55l-.63.76-.56.81c-3.1,4.18-5.09,8.5-6.32,11.62-4.31,11.12-6.18,23.89-6.91,36.9-.1,1.63-.18,3.26-.26,4.9-.08,1.65-.12,3.15-.09,4.76.04,3.17.27,6.36.63,9.51.73,6.29,1.99,12.48,4.02,18,.89,2.4,1.95,4.7,3.21,6.72.64.98,1.31,1.94,2.05,2.72.72.81,1.51,1.48,2.3,1.97.79.53,1.61.84,2.45,1.01.85.2,1.69.2,2.41.05,1.43-.28,2.89-1.32,4.21-3.02,1.32-1.67,2.43-3.79,3.36-6.03.95-2.23,1.72-4.61,2.41-7,1.37-4.8,2.37-9.71,3.23-14.54.84-4.8,1.54-9.71,2.42-14.39.86-4.69,1.82-9.23,2.89-13.56,2.14-8.67,4.88-16.55,8.24-23.07-.53,3.34-1.15,7.34-1.68,11.62-.55,4.27-.99,8.83-1.41,13.26-.81,8.85-1.47,17.21-2.33,21.55-.87,4.45-1.79,8.85-2.88,13.16-1.08,4.31-2.31,8.54-3.9,12.63-.8,2.04-1.7,4.05-2.78,5.99-1.07,1.94-2.34,3.82-3.98,5.47-.81.83-1.73,1.59-2.76,2.21-1.01.64-2.17,1.12-3.35,1.4-2.4.59-4.81.26-6.96-.52-2.16-.8-4-2.16-5.48-3.7-1.49-1.54-2.66-3.26-3.65-5.01-1.99-3.52-3.29-7.2-4.34-10.85-2.03-7.32-2.99-14.58-3.37-21.64-.09-1.77-.12-3.52-.11-5.27,0-1.76.12-3.5.2-5.17.18-3.38.42-6.71.74-9.99.65-6.55,1.64-12.89,3.18-18.92,1.54-6.03,3.63-11.75,6.4-16.94,2.76-5.19,6.23-9.82,10.23-13.62.48-.45.98-.91,1.5-1.4.26-.24.52-.49.8-.72.3-.22.6-.45.9-.68.61-.45,1.24-.91,1.88-1.39.65-.46,1.39-.83,2.1-1.25,2.86-1.6,6.28-2.79,9.59-2.65,3.31.1,6.14,1.5,7.89,3.03,1.78,1.54,2.73,3.04,3.13,3.79Z"></path>
        </g>
      </g>
      <g>
        <path class="cls-6" d="m168.18,355.65c-23.27,6.68-44.12,34.3-49.48,66.15,10.36,7.76,32.02,15.73,43.88,8.19,1.73-8.85,4.44-20.81,8.75-29.06"></path>
        <path class="cls-3" d="m171.38,400.96c.14.45-.47,2.07-1.27,4.5-.8,2.42-1.79,5.64-2.67,9.15-.89,3.5-1.69,7.29-2.33,10.77-.35,2.02-.69,3.95-.99,5.7-.86.61-1.79,1.19-2.65,1.62-.66.38-1.31.63-1.88.91-4.16,1.77-8.84,2.21-13.4,1.93-4.58-.29-9.13-1.29-13.52-2.74-4.39-1.46-8.64-3.36-12.66-5.73l-.75-.46-.43-.27-.64-.43-2.56-1.78-.64-.45-.32-.23c-.02-.11.03-.25.04-.37l.26-1.52c.19-1.02.38-2.03.57-3.05.2-1.1.4-2.2.6-3.29.24-1.08.52-2.15.77-3.21,3.63-14.88,10.94-28.69,20.3-38.96,4.68-5.13,9.84-9.38,15.12-12.51,5.27-3.14,10.65-5.1,15.53-5.99-.93.76-1.96,1.53-3.04,2.31-.27.19-.55.38-.82.58-.27.22-.54.44-.81.67-.54.44-1.1.89-1.66,1.34-1.15.84-2.23,1.87-3.33,2.84-.55.49-1.12.94-1.65,1.45-.52.51-1.04,1.03-1.56,1.54-4.14,4.01-7.61,8.01-9.71,9.91-.53.48-1.06.95-1.59,1.42-.54.47-1.05.95-1.53,1.47-.98,1.02-1.95,2.04-2.91,3.05-1.78,2.15-3.59,4.25-5.11,6.53-1.64,2.2-2.95,4.56-4.34,6.83-.63,1.17-1.22,2.35-1.82,3.52-.3.59-.59,1.17-.89,1.75-.26.6-.52,1.2-.77,1.79-.51,1.19-1.01,2.38-1.5,3.55-.42,1.2-.84,2.4-1.25,3.58-.2.59-.41,1.19-.61,1.78-.17.6-.33,1.2-.5,1.79-.32,1.19-.64,2.38-.96,3.55-.29,1.18-.5,2.37-.74,3.55l-.23,1.17-.1.54c.06.14.28.22.41.34.3.22.61.41.91.61.42.26.95.61,1.43.88.98.59,1.98,1.13,2.98,1.65,4.02,2.06,8.15,3.6,12.21,4.68,4.06,1.07,8.09,1.68,11.9,1.65,1.9-.01,3.75-.19,5.48-.56.87-.19,1.7-.43,2.51-.71.39-.16.79-.32,1.17-.47.46-.23.53-.25.74-.36l.27-.16c.1-.05.19-.09.19-.22l.13-.61c.2-.89.39-1.76.58-2.63.41-1.8.86-3.56,1.35-5.28.86-3.28,2.48-7.67,4.27-11.37,1.75-3.72,3.74-6.66,4.43-7.57Z"></path>
      </g>
      <g>
        <path class="cls-11" d="m206.24,378.74c2.97,12.72,4.82,25.64,5.52,38.59,2.69-.1,5.38-.19,8.07-.29-1.1-12.98-2.72-25.93-4.86-38.82-.48-2.32-6.84.63-8.96.54"></path>
        <path class="cls-3" d="m206.01,378.74c.2-.12,1.14-.35,2.57-.84.71-.23,1.55-.51,2.49-.76.47-.12.97-.24,1.51-.32.25-.04.57-.07.92-.07.34,0,.68.04,1,.15.32.11.63.29.83.58.21.28.28.62.35.97.11.58.22,1.16.32,1.73.2,1.08.4,2.15.59,3.18.38,2.05.72,3.91,1,5.23.94,4.4,1.74,9.14,2.43,13.94.34,2.4.65,4.82.94,7.22.14,1.2.27,2.4.41,3.59.08.78.16,1.55.24,2.32.1,1.07.21,2.14.31,3.21-1.2.05-2.33.1-3.46.15-1.2.06-2.39.11-3.55.17-1.73.07-3.42.14-5.01.2-.1-1.59-.19-3.17-.29-4.75-.06-.93-.13-1.85-.19-2.76-.14-1.83-.28-3.64-.44-5.41-.31-3.56-.67-7-1.05-10.28-.75-6.56-1.58-12.46-2.23-17.33,1.38,2.25,2.85,5.72,3.95,9.09,1.11,3.37,1.84,6.62,1.95,8.37.24,3.75.45,7.37.62,10.87.08,1.75.16,3.46.23,5.14.03.84.06,1.67.1,2.5.01.54.02,1.07.03,1.6.42,0,.84,0,1.25,0,.69-.01,1.38-.03,2.05-.04,1.07-.03,2.12-.06,3.11-.08-.06-.63-.11-1.25-.16-1.86-.09-.88-.17-1.75-.26-2.6-.19-1.71-.38-3.39-.57-5.04-.4-3.28-.83-6.42-1.26-9.42-.86-6-1.74-11.46-2.38-16.52-.07-.48-.14-1.01-.2-1.57-.03-.26-.02-.33-.04-.53,0-.17-.08-.34-.22-.44-.14-.11-.31-.16-.49-.2-.19-.04-.33-.05-.65-.05-.56,0-1.16.07-1.73.15-2.3.34-4.38.69-5.04.51Z"></path>
      </g>
      <g>
        <path class="cls-10" d="m210.95,379.72c2.98,12.58,4.37,24.49,5.26,37.29"></path>
        <path class="cls-3" d="m209.84,379.98c2.86,12.13,4.34,24.48,5.21,36.9.05.67.43,1.55,1.19,1.62.72.07,1.17-.69,1.13-1.34-.89-12.68-2.39-25.31-5.31-37.69-.43-1.82-2.65-1.31-2.22.52h0Z"></path>
      </g>
      <g>
        <path class="cls-11" d="m182.75,348.31c-10.15,9.58,10.56,29.91,22.26,31.4-10.82,4.56-17.82,11.06-20.42,18.65-8.94-12.08-19.36-39.45-3-50.35"></path>
        <path class="cls-3" d="m181.63,348.06c-.02.43-1.04,1.34-2.31,2.81-1.27,1.47-2.65,3.62-3.53,6.17-.93,2.53-1.25,5.45-1.22,8.11.03,2.66.46,5.07.92,6.75,1.16,4.3,2.87,8.69,4.97,12.95.52,1.07,1.07,2.12,1.65,3.16.28.52.58,1.04.88,1.55.15.26.29.52.45.77l.22.36.05.05c.14.15.25.26.35.34.05.04.1.07.14.1l.06.03s.02-.08.04-.12c.03-.14.06-.26.09-.35l.04-.13.02-.06v-.03s0,0,0,0c0,0,.02-.02-.04.05l.1-.15c1.19-1.8,2.56-3.39,4-4.83,1.18-1.2,2.46-2.27,3.76-3.28.67-.48,1.31-.99,2-1.43l1.02-.67c-.09.06-.03.01-.05.02-.02-.01,0,0,.07-.01.03,0,.06-.03.02-.11,0,0-.02-.03,0-.02l-.68-.42c-.47-.3-.92-.61-1.38-.92-.9-.63-1.77-1.28-2.59-1.96-3.31-2.71-6.11-5.75-8.35-9.04-2.19-3.3-3.91-6.89-4.3-10.74-.19-1.91.03-3.88.76-5.59.72-1.71,1.91-3.05,3.17-3.98-.84,1.89-1.22,4.21-.75,6.21.24,1.02.64,1.98,1.1,2.9.52.92,1.05,1.79,1.7,2.62,2.49,3.32,5.55,5.96,6.81,7.67,1.8,2.4,3.9,4.57,6.16,6.39l.86.67.44.31c.16.11.23.17.57.39.54.35,1.13.63,1.69.92l.84.44c.27.15.69.23,1.02.35l1.04.33c.34.11.66.22,1.1.31.81.2,1.62.4,2.42.59,1.63.37,3.25.74,4.85,1.1l-.28.18-.14.11-.27.22-.13.11s-.05.07-.22.13l-.79.32c-1.02.42-2.04.83-3.05,1.25-2.04.84-3.92,1.68-5.71,2.5-.82.43-1.63.87-2.44,1.3l-.29.16-.26.16-.38.23-.76.46c-1,.64-1.96,1.32-2.87,2.03-1.81,1.44-3.44,3.03-4.76,4.77-.54.69-1.55,2.2-2.25,3.73-.35.81-.72,1.59-1.04,2.43-.34.83-.67,1.66-.95,2.45l-.43.04s-.08-.05-.13-.12l-.14-.19-.29-.39c-.38-.52-.75-1.03-1.12-1.55-.74-1.03-1.46-2.05-2.17-3.13-.35-.55-.7-1.1-1.05-1.65-.3-.51-.6-1.02-.9-1.53-.46-.82-.93-1.63-1.35-2.45-1.73-3.26-3.14-6.55-4.27-9.83-1.1-3.29-1.93-6.56-2.29-9.83-.37-3.26-.35-6.5.3-9.57.22-1.4.79-3.03,1.53-4.62.77-1.59,1.85-3.1,2.98-4.35,2.34-2.5,4.96-3.66,5.76-4.02Z"></path>
      </g>
      <g class="cls-14">
        <path class="cls-3" d="m229.75,385.07c2.15-2.99-.34-8.88,1.81-11.88,8.22,10.6,13.97,24.37,17.45,35.34"></path>
      </g>
      <g>
        <path class="cls-11" d="m210.43,378.88c7.46-3.6,10.98,6.23,16.08,13.81,9.86-14.47-6.49-35.78-22.63-41.79,6.66,9.42,8.9,17.45,6.82,28.28-.06-.24-.21.86-.27.62"></path>
        <path class="cls-3" d="m210.49,379.79s.02,0,.02-.01c-.05.04-.07.05-.07.04-.1-.11-.11-.06-.11-.11-.02-.06-.03-.13-.05-.21-.01-.08-.03-.17-.03-.27,0-.05,0-.1,0-.15,0-.04.03-.02.02,0v-.08c-.1-1.8.34-5.85-.27-9.96-.13-1.03-.35-2.05-.6-3.05-.14-.49-.24-.99-.42-1.46-.08-.24-.16-.47-.24-.7l-.12-.35c-.02-.08-.12-.34-.18-.48-.28-.67-.56-1.33-.82-1.96-.3-.65-.68-1.31-1.02-1.94-.18-.32-.33-.62-.52-.94-.23-.35-.45-.68-.66-1.01-.46-.68-.88-1.32-1.28-1.9-1.79-2.51-3.61-5.06-5.64-7.92.45-.35.92-.59.9-.96.02-.04.03-.08.05-.11.04-.02-.04-.11.23,0l1.15.39c.75.26,1.51.52,2.26.79,1.48.53,2.93,1.06,4.46,1.65.8.37,1.57.66,2.42,1.1l1.29.67.65.34.68.42c.91.57,1.82,1.09,2.76,1.8.94.67,1.88,1.32,2.82,2.11l1.13.94.78.69c.52.45,1.02.93,1.52,1.41,1.98,1.92,3.79,3.98,5.38,6.17,3.17,4.34,5.61,9.46,6.27,15.08.1.69.12,1.41.15,2.11.02.35.01.71,0,1.06l-.05,1.29c-.16,1.13-.32,2.26-.53,3.34l-.46,1.51c-.15.5-.29,1.02-.51,1.43-.75,1.83-1.67,3.22-2.59,4.64-.47.72-.94,1.44-1.41,2.15l-.72,1.08-.61.72c-1.04-1.72-2.06-3.42-3.07-5.1-.98-1.61-1.91-3.33-2.78-4.91-.41-.75-.81-1.49-1.21-2.23-.22-.42-.44-.84-.65-1.26-.22-.4-.44-.8-.66-1.19-.22-.37-.45-.74-.67-1.11-.9-1.41-1.84-2.58-2.87-3.14-1.01-.6-2.32-.65-3.7-.31.4-.58.93-1.29,1.73-1.76.79-.53,1.85-.79,3.04-.77.56.06,1.19.15,1.76.33.55.2,1.18.4,1.67.7.53.28,1.07.59,1.52.93.49.33.95.69,1.36,1.05.44.36.85.74,1.22,1.11.38.37.76.75,1.08,1.12.17.19.33.37.5.55l.24.27c.07.08.06.03.09.05.09.02.16.03.22.03.16-.09.1-.26.1.02,0,.2.02.44.07.7l.05.22c.02.09.04.15.06.17.04.07.09.12.14.16.1.08.22.1.35.07.25-.06.5-.33.71-.75l.14-.35c.05-.14.08-.21.11-.48.09-.61.11-1.22.12-1.84,0-1.24-.11-2.48-.36-3.7-.97-4.92-3.56-9.34-6.56-12.94-1.5-1.8-3.19-3.47-4.83-4.86-1.05-.87-2.12-1.59-3.08-2.12-.97-.54-1.87-.91-2.68-1.15l-.6-.16h-.04s.03.04.03.04l.07.09.13.18.26.36c.34.47.64.92.92,1.35.63.98,1.09,1.85,1.42,2.72.09.22.16.44.22.66l.1.34.18.7c.29,1.07.47,2.15.61,3.21.35,2.15.16,5.09-.41,7.56-.54,2.49-1.42,4.53-1.81,5.37-.01.02-.02.11-.04.08-.02-.05-.05.03-.06.04-.03.06-.03.12-.06.17-.04.1-.07.18-.09.24-.03.06-.05.11-.07.14,0,.03-.04,0,0,.05,0,0,.03-.01.04-.03h0Z"></path>
      </g>
      <g>
        <path class="cls-7" d="m120.39,418.93c13.47,8.06,27.06,12.45,44.77,3.86.45,4.38,1.46,10.15.37,14.04-20.29,7.33-40.05,2.33-51.99-7.68.28-4.5.45-7.75,1.51-12.29.96.31,2.6.82,3.57,1.61"></path>
        <path class="cls-3" d="m118.6,418.49c-.16-.02-.54-.23-1.16-.47-.59-.22-1.33-.46-2.1-.6-.12.67-.22,1.3-.34,2.11-.14.92-.26,1.92-.36,2.96-.1,1.04-.17,2.12-.23,3.23-.05,1-.09,2.02-.14,3.04-.04.11.11.13.16.19l.22.16.58.43c.44.32.86.67,1.31.96.91.57,1.76,1.17,2.62,1.66.87.47,1.68.93,2.45,1.32.78.35,1.49.67,2.11.95,2.99,1.22,6.18,2.25,9.49,2.96,3.32.69,6.76,1.1,10.21,1.23,3.46.05,6.93-.17,10.32-.68.85-.14,1.68-.32,2.52-.48l1.25-.24,1.23-.32c.82-.22,1.63-.43,2.44-.65.79-.27,1.58-.53,2.36-.8l.23-.08c.07-.02.03-.01.05-.02h.03s0-.03,0-.04c-.04.24.1-.64.12-1.17.08-1.19.05-2.44-.04-3.68-.08-1.25-.22-2.5-.36-3.74l-.11-.93c-.01-.11,0-.03,0-.05h0c-.27.11-.55.22-.82.34-1.08.39-2.15.77-3.21,1.15-1.12.34-2.25.63-3.36.94-1.14.22-2.26.46-3.38.65-4.52.67-8.99.47-13.06-.37-4.08-.84-7.75-2.27-10.99-3.88-3.24-1.62-6.07-3.41-8.57-5.13,3.42,1.1,8.24,2.91,12.81,4.09,4.56,1.27,8.87,1.62,11.12,1.93,3.67.49,7.35.33,10.85-.37,1.74-.37,3.46-.77,5.09-1.35.41-.14.82-.27,1.23-.4.11-.04.19-.06.32-.11l.43-.18.84-.35c1.09-.46,2.17-.91,3.23-1.36.21,2.22.42,4.41.62,6.57.14,1.73.25,3.45.2,5.17-.02.86-.1,1.73-.24,2.59-.07.51-.23,1.1-.36,1.64,0,.18-.17.19-.29.23l-.4.13-.8.26c-.79.25-1.57.5-2.35.75-.77.26-1.57.41-2.34.62-3.1.84-6.21,1.28-9.23,1.63-1.52.1-3.02.23-4.5.25-1.48-.02-2.95.04-4.39-.1-5.77-.36-11.21-1.5-16.05-3.42-1.2-.51-2.41-.95-3.53-1.54-.57-.28-1.13-.56-1.69-.84-.55-.3-1.08-.62-1.61-.93-1.08-.6-2.08-1.3-3.06-1.99-.5-.33-.98-.69-1.43-1.07-.55-.44-1.09-.88-1.64-1.32l-.23-.18c-.06-.07-.2-.1-.15-.22.02-.2.03-.41.05-.61.03-.37.06-.75.09-1.14.06-.58.12-1.17.19-1.78.14-1.22.32-2.48.55-3.68.22-1.21.49-2.29.76-3.28.3-1.1.58-1.93.76-2.39,2.79.9,3.36,1.57,3.7,1.85Z"></path>
      </g>
      <g>
        <path class="cls-9" d="m136.8,383.08c5.45,6.22,14.49,7.19,22.74,8.4-1.14,2.59-4.67,6.91-6.69,8.94-7.61-.54-16.13-4.36-21.82-9.35,1.31-3.47,3.34-5.55,5.78-7.98h0Z"></path>
        <path class="cls-3" d="m136.83,383.1c.01.21-.44.82-1.13,1.67-.69.85-1.61,1.95-2.4,3.23-.39.62-.78,1.36-1.05,1.99-.1.24-.19.48-.26.71,0,.05-.07.12-.03.16l.15.11.29.22c.24.17.47.34.7.5.29.2.56.4.83.57.55.34,1.03.65,1.47.87,3,1.61,6.35,3.03,9.82,4.04,1.73.5,3.5.9,5.25,1.14l1.31.15.31.02h.01s.03,0,.04-.02c-.22.21.67-.78,1.16-1.39.96-1.18,1.89-2.39,2.74-3.6l.3-.44h0s.01,0,.02-.01c.01,0,0,0-.07-.02l-.08-.02h-.04s.01-.01-.12-.03c-.75-.13-1.5-.27-2.24-.4-1.48-.27-2.94-.6-4.36-.98-2.84-.77-5.53-1.79-7.8-3.2-2.27-1.39-4.08-3.13-5.27-4.92,1.86.93,4.35,1.97,6.69,2.61,2.33.67,4.56,1.07,5.69,1.52,2.27.91,4.64,1.53,6.97,2.06l.87.19c.44.08.87.17,1.31.25.87.15,1.66.35,2.43.53l.57.13c.16-.01.04.12,0,.21l-.15.29-.59,1.1c-.38.7-.84,1.45-1.28,2.05-.24.35-.4.57-.57.79l-.52.68c-.35.44-.7.88-1.05,1.31-.7.86-1.41,1.68-2.13,2.48l-.56.61-.75.78c-.07.05-.11.17-.2.16l-.27-.02-.54-.05-.92-.08c-.52-.07-1.04-.14-1.55-.21-.51-.09-1.01-.18-1.51-.27-3.98-.81-7.55-2.14-10.72-3.74-1.59-.8-3.06-1.7-4.42-2.66-.34-.24-.68-.48-1-.74-.34-.28-.58-.43-1.09-.89-.44-.39-.88-.78-1.32-1.17.21-.54.45-1.08.69-1.59.1-.23.25-.54.35-.71.1-.18.21-.36.33-.55.23-.37.5-.75.79-1.11.58-.73,1.25-1.42,1.92-2.01,1.33-1.17,2.57-2.01,2.97-2.3Z"></path>
      </g>
      <g>
        <path class="cls-9" d="m127.9,396.22c5.32,8.99,16.25,9.72,23.85,10.35-1.27,3.38-4.37,11.65-5.3,14.26-5.83,2.02-19.14-3.58-24.03-7.35-3.48-2.76,2.86-13.66,5.48-17.25"></path>
        <path class="cls-3" d="m127.93,396.24c.04.46-1.77,3.28-3.38,6.77-.81,1.74-1.57,3.64-1.98,5.41-.45,1.74-.34,3.42.19,3.96.12.13.21.2.37.31l.66.41c.43.28.93.52,1.39.78.96.5,1.95.98,2.97,1.43,2.04.9,4.17,1.72,6.33,2.41,2.16.68,4.37,1.24,6.51,1.52.54.07,1.06.09,1.58.15.51,0,1.03.02,1.5-.02l.7-.08.17-.02c.07,0,.02,0,.04,0h.02s.02-.04.02-.08c.67-1.85,1.33-3.69,1.99-5.52.67-1.78,1.33-3.55,1.98-5.3,0,0,.04-.02.04-.04.05,0-.1-.04-.56-.1-1.87-.21-3.72-.5-5.52-.89-3.59-.77-7.01-2.06-9.74-3.99-2.74-1.92-4.7-4.4-5.79-6.81.51.39,1.03.82,1.56,1.27.6.4,1.17.87,1.81,1.27,1.27.82,2.66,1.53,4.04,2.09,2.77,1.11,5.51,1.62,6.93,2.11,1.42.5,2.89.86,4.36,1.18.74.15,1.47.29,2.21.41l.55.09.83.11c.55.07,1.1.14,1.65.21.58.07,1.16.14,1.73.21l.21.03h.1s-.02.07-.02.1l-.17.42-.34.83c-.4.99-.81,1.97-1.2,2.95-.55,1.34-1.09,2.65-1.63,3.95-.52,1.3-1.02,2.58-1.52,3.85-.24.63-.49,1.26-.73,1.88l-.4,1.06-.24.64c-.05.09-.05.25-.15.28l-.33.08c-.44.1-.9.23-1.31.31l-1.04.1c-.69.06-1.36.02-2.03,0-1.32-.11-2.6-.29-3.83-.56-4.93-1.1-9.3-2.82-13.21-4.88-.97-.53-1.92-1.07-2.82-1.71l-.68-.48c-.3-.25-.56-.53-.76-.84-.4-.63-.57-1.3-.64-1.91-.13-1.24.09-2.31.34-3.32.26-1.01.61-1.95,1-2.84.7-1.71,2-3.85,3.29-5.6,1.28-1.76,2.53-3.15,2.97-3.58Z"></path>
      </g>
      <g>
        <path class="cls-11" d="m175.38,406.72c8.09.63,17.03.46,25.45-.43.32,1.56.3,1.77-.05,4.09-5.6,2.43-22.1,1.77-25.61.3-.18-1.09.02-3.06.4-4.1"></path>
        <path class="cls-3" d="m175.38,406.69c.27-.3,2.56-.26,5.21-.29,2.65-.02,5.65-.1,7.32-.32,2.65-.32,5.47-.65,8.32-.99l2.13-.27.71-.08c.34-.05.66-.06.98-.08l1.94-.11h.24c.05-.03.06.01.06.05l.03.12.1.47.21.94c.14.62.25,1.27.25,1.94,0,.32-.03.73-.05.94-.02.23-.03.31-.08.72-.09.68-.19,1.36-.28,2.04-.56.21-1.12.42-1.66.62-.25.09-.59.23-.77.28l-.48.13c-2.87.79-5.61,1.01-8.29,1.11-2.68.08-5.27-.03-7.74-.27-2.47-.26-4.79-.6-6.99-1.25l-.56-.17c-.21-.05-.4-.13-.59-.2-.36-.16-.71-.31-1.07-.47-.24-.02-.18-.28-.2-.47l-.02-.58c0-.38,0-.75.05-1.12.04-.4.09-.64.15-.88.06-.25.12-.5.19-.74.14-.48.31-.94.54-1.39.04.49.14.97.25,1.46.06.24.12.49.18.75.07.25.13.53.21.68.08.18.16.33.25.45.1.11.13.26.37.2.19-.02.34-.03.48-.07.07-.02.12-.04.17-.06.02-.03.23-.01.33-.02,2.09-.08,4.09-.15,5.13.07,3.33.7,6.61,1.01,9.68,1.02,1.54.02,3.03-.09,4.46-.24.7-.12,1.41-.19,2.07-.37.3-.08.73-.16.89-.23.2-.07.41-.14.61-.22l.07-.5.08-.62c.04-.38.04-.67-.02-.99-.03-.15-.06-.3-.1-.45,0-.11-.09-.07-.17-.06l-.23.03c-.32.04-.64.08-.95.12-2,.23-3.91.43-5.76.57-3.68.29-7.06.39-10.17.18-2.47-.09-6.67-1.13-7.47-1.4Z"></path>
      </g>
      <g>
        <path class="cls-11" d="m230.23,398.46c16.15-19.86,15.92,4.63,2.48,12.32-11.16,5.93-5.65-9.35-1.35-13.26"></path>
        <path class="cls-3" d="m231.38,397.54c0,.36-1.4,2.07-2.46,4.45-1.11,2.31-1.9,5.2-1.77,6.69.03.65.16,1.29.4,1.66.26.34.39.39.82.39.43-.01,1.04-.15,1.66-.43.62-.25,1.26-.6,1.87-.95,2.37-1.54,4.46-3.73,5.87-6.12,1.26-2.08,2.19-4.37,2.64-6.58.22-1.09.29-2.2.13-3.01-.05-.44-.22-.66-.28-.81-.06-.11-.11-.12-.33-.19-.52-.06-1.51.28-2.37.76-.88.5-1.73,1.1-2.54,1.71-1.63,1.23-3.04,2.57-4.36,3.71.35-1.7,1.29-3.94,2.65-5.81.35-.47.72-.91,1.08-1.33.39-.41.8-.79,1.19-1.12.44-.32.83-.61,1.24-.82.44-.2.8-.38,1.16-.45.38-.07.73-.15,1.12-.18.43,0,.8-.04,1.26.06.88.13,1.79.63,2.35,1.3.27.33.47.69.64,1.03.11.34.27.69.32,1.01.14.65.17,1.26.16,1.85-.1,2.32-.76,4.29-1.52,6.13-1.56,3.65-3.76,6.7-6.38,9.01-1.31,1.14-2.73,2.14-4.26,2.82-.75.36-1.57.63-2.46.78-.45.07-.93.08-1.44,0-.5-.1-1.07-.31-1.48-.7-.89-.78-1.13-1.81-1.22-2.63-.09-.85,0-1.62.12-2.36.25-1.47.73-2.78,1.29-3.99.5-1.16,1.47-2.61,2.47-3.74,1-1.15,2.06-1.91,2.43-2.11Z"></path>
      </g>
      <g>
        <path class="cls-5" d="m247.06,366.36c-10.44-5.17,1.74,19.28,9.82,21.12,11.56,4.51,2-12.4-1.99-15.2l-7.83-5.91Z"></path>
        <path class="cls-3" d="m247.04,366.38c-.19.11-.85-.14-1.73-.27-.39,0-.87-.06-1.25.25-.38.32-.46.84-.42,1.37.07,1.22.56,2.66,1.08,3.87.53,1.23,1.11,2.3,1.59,3.03,1.45,2.22,3.12,4.49,4.99,6.56.93,1.03,1.92,2.01,2.96,2.82,1.02.81,2.14,1.45,3.04,1.64h.06s.21.08.21.08c.8.26,1.58.5,2.2.54.21,0,.47.02.54-.01.07-.01.09-.02.08-.02h0c0-.07-.01.12.02-.36,0-.85-.36-2.12-.81-3.26-.94-2.34-2.22-4.63-3.57-6.61-.68-.99-1.39-1.91-2.1-2.53-.93-.8-1.82-1.59-2.66-2.35-1.7-1.53-3.22-2.99-4.54-4.33,1.83.35,4.19,1.25,6.3,2.27,1.06.51,2.05,1.05,2.88,1.56,1.04.63,1.72,1.39,2.07,1.89,1.2,1.77,2.1,3.49,2.92,5.22.81,1.73,1.5,3.44,1.98,5.22.23.9.41,1.81.4,2.79,0,.48-.08,1.01-.28,1.56-.25.52-.6,1.01-1.11,1.28-.23.17-.52.22-.78.32-.26.05-.51.07-.77.1-.47,0-.93-.03-1.35-.13-.86-.15-1.62-.43-2.37-.7l.11.03c-1.25-.29-2.28-.91-3.19-1.55-.92-.65-1.74-1.37-2.49-2.11-1.51-1.48-2.78-3.04-3.89-4.6-2.21-3.14-3.92-6.28-4.7-9.57-.16-.68-.3-1.49-.25-2.42.03-1,.44-2.27,1.41-2.6.94-.33,1.87.04,2.37.32.55.28.9.58,1.08.69Z"></path>
      </g>
      <path class="cls-2" d="m266.03,465.58c-3.02-.97-5.9-2.41-8.49-4.24-.88-.62-1.75-1.32-2.25-2.27-.73-1.38-.57-3.03-.4-4.58,2.17-19.67,5.45-51.61-8.85-67.69,3.76,12.83,11.45,24.45,14.92,37.72,3.51,13.38,5.24,27.23,5.06,41.07Z"></path>
      <path class="cls-2" d="m165.31,433.76c-.6,17.1-1.2,34.19-1.79,51.29-2.88-1.15-5.66-2.54-8.31-4.15-.79-.48-1.61-1.02-1.99-1.86-.42-.91-.25-1.98-.06-2.96,1.98-10.62,3.97-21.23,5.95-31.85.18-.98.38-1.98.92-2.82.58-.89,1.49-1.5,2.29-2.2,3.87-3.34,4.96-9.29,3.22-13.99-.84-2.26-3.14-3.91-3.02-6.06.1-1.88,3.12-5.32,4.47-6.63-.84,7.08-1.41,14.11-1.66,21.24Z"></path>
    </g>
  </g>
  <g id="accessory">
    <g>
      <path class="cls-4" d="m206.63,413.5c5.07-.62,10-1.37,15.05-1.69-.12.52-.18.89-.29,1.24-.68,2.31-1.37,4.63-2.07,6.94-.32,1.06-.43,1.13-1.42,1.02-2.69-.29-5.4-.01-8.11.67-.56.14-.9.06-1.06-.52-.68-2.48-1.36-4.96-2.11-7.66Z"></path>
      <path class="cls-4" d="m197.74,450.44c.59-.91,1.06-1.75,1.64-2.48.46-.58,1.09-.89,1.85-.97,8.46-.82,16.92-1.68,25.38-2.51.31-.03.66.05.92.2.9.53,1.65,1.23,2.13,2.39-10.63,1.12-21.18,2.24-31.93,3.37Z"></path>
      <path class="cls-4" d="m201.06,424.09c8.66-.98,17.32-1.93,26.01-2.59-.36,1.45-1.3,2.37-2.53,2.5-7.16.77-14.33,1.52-21.49,2.3-.6.06-1.03-.1-1.32-.61-.26-.45-.52-.9-.78-1.35.04-.08.08-.16.11-.24Z"></path>
      <path class="cls-4" d="m232.85,426.03c1.42.87,2.05,2.09,2.15,3.62.07,1.16-.02,2.35-.03,3.53,0,.23-.02.46.01.69.12,1.04-.81,2.67-1.87,3.17-.07-.64-.13-1.27-.2-1.9-.11-1.15-.48-2.08-1.6-2.51-.55-.21-1.04-.6-1.5-.98-.16-.13-.26-.59-.16-.75,1.03-1.63,2.11-3.23,3.19-4.87Z"></path>
      <path class="cls-4" d="m244.61,451.21c.13,4.37-5.13,10.06-9.76,10.56.76-.95,1.53-1.8,2.18-2.74,1.08-1.56,2.15-3.13,3.1-4.77.96-1.64,2.5-2.26,3.99-3.02.13-.07.3-.02.49-.03Z"></path>
      <path class="cls-4" d="m195.33,440.64c-.85-.85-1.63-1.58-2.34-2.38-.15-.16-.08-.57-.06-.87.11-1.27.31-2.55.35-3.82.03-.96.2-1.8.89-2.54.24-.26.4-.59.71-1.04.5.51.99.97,1.45,1.47.6.66,1.2,1.32,1.72,2.04.16.22.22.79.07.97-1.4,1.67-1.97,3.65-2.56,5.64-.03.09-.07.17-.22.53Z"></path>
      <path class="cls-4" d="m182.21,447.33c1.23,1.31,2.71,2.07,3.37,3.73.59,1.48,1.33,2.89,1.97,4.35.24.54.43,1.12.56,1.71.1.42-.07.71-.59.66-2.06-.19-3.63-.95-4.26-3.17-.57-2.03-1.27-4.01-1.16-6.24.01-.27.06-.54.11-1.04Z"></path>
      <path class="cls-4" d="m246.17,428.66c2.59,2.81,1.6,10.97-1.58,13.18,0-.33,0-.6,0-.86-.09-2.18-.21-4.37-.29-6.55-.08-2.07.73-3.92,1.87-5.77Z"></path>
      <path class="cls-4" d="m183.19,435.95c.69,1.14,1.92,1.78,1.86,3.48-.08,2.65.05,5.28.09,7.92,0,.24-.04.48-.06.77-3.07-1.49-4.27-9.07-1.9-12.16Z"></path>
      <path class="cls-4" d="m220.19,471.24c.12-.09.18-.17.26-.21,2.03-.91,4.06-1.84,6.1-2.71.37-.16.84-.11,1.24-.06,1.18.13,2.34.31,3.51.48.1.01.19.08.28.12-.92,3.01-8.89,4.69-11.4,2.37Z"></path>
      <path class="cls-4" d="m185.45,458.48c1.29,0,2.29.14,3.11,1.08,1.59,1.83,3.31,3.52,4.98,5.28.16.17.3.35.4.62-2.01,0-4.08.19-5.7-1.07-1.78-1.39-2.44-3.52-2.8-5.91Z"></path>
      <path class="cls-4" d="m191.2,466.82c1.89-.31,3.56-.55,5.08.48,1.34.9,2.81,1.58,4.22,2.37.27.15.51.36.83.6-1.27.99-2.54,1.23-3.87,1.15-1.53-.09-2.84-.63-3.87-1.75-.65-.7-1.3-1.39-1.94-2.1-.16-.18-.27-.43-.46-.75Z"></path>
      <path class="cls-4" d="m228.52,467.2c3.4-2.72,6.85-4.67,10.97-5.45-1,1.77-1.91,3.41-3.49,4.44-2.38,1.55-4.85,1.45-7.49,1.01Z"></path>
      <path class="cls-4" d="m207.98,444.92c.34-.08.67-.2,1.01-.24.85-.12,1.7-.17,2.55-.31,1.03-.16,1.07-.23,1.09-1.29.02-1.21,0-2.41.02-3.62,0-.21.04-.41.16-.66.07.77.04,1.52,1.11,1.38,1.34-.18,1.54-.25,1.83-1.05,0,1.28,0,2.57,0,3.85,0,.24.05.53.2.67.15.14.49.22.65.12.15-.09.25-.45.25-.68.02-1.83.01-3.67.01-5.5,0-.3,0-.6,0-.96,1.09-.12,2.14-.23,3.29-.35,0,1.03,0,2.02,0,3.01,0,1.35-.02,2.69,0,4.04,0,.38-.12.57-.49.61-3.75.39-7.51.79-11.26,1.18-.14.01-.28-.04-.42-.07v-.14Zm10.98-7.09c0,.24,0,.49,0,.75.01,1.32,0,2.64.06,3.95.01.31.24.6.37.89.12-.32.33-.65.34-.96.04-1.23.03-2.46,0-3.68,0-.5-.08-.99-.13-1.51-.59.06-1.11.08-1.61.19-.17.04-.44.31-.45.45-.03,1.69-.02,3.38,0,5.07,0,.38.18.59.64.35,0-.26,0-.51,0-.76.02-1.39.05-2.78.07-4.18,0-.47.17-.71.71-.56Zm-5.94,4.87c0,.11.01.23.02.34.04,1.16.05,1.17,1.15,1.05,1.09-.11,1.1-.12,1.29-1.38.24-1.62.23-1.64-1.27-1.48q-1.27.14-1.19,1.46Z"></path>
      <path class="cls-4" d="m233.99,457.07c-.51,2.34-.48,4.81-2.8,6.44-1.08.76-2.1,1.63-3.15,2.43-.23.17-.51.27-.79.42-.03-2.98,4.1-8.68,6.74-9.29Z"></path>
      <path class="cls-4" d="m210.18,452.18c.28.07.41.09.53.13,2.29.83,4.58,1.66,6.87,2.49.43.16.56.43.32.9-.17.34-.3.7-.45,1.05-.43.97-.5,1.01-1.41.62-1.98-.85-3.95-1.72-5.93-2.58-.87-.38-.92-.51-.52-1.52.16-.39.4-.76.59-1.1Z"></path>
      <path class="cls-4" d="m247.19,441.54c.42,3.2-1.64,8.51-5.69,9.49.56-2.07,1.26-4.04,2.18-5.88.74-1.48,2.04-2.63,3.51-3.62Z"></path>
      <path class="cls-4" d="m194.03,463.48c-1.63-1.44-3.45-2.7-4.28-4.92-.44-1.18-.39-2.47-.05-3.75.2-.75.42-.81.96-.31,1.39,1.31,2.47,2.81,2.76,4.89.18,1.34.53,2.64.8,3.96-.06.04-.12.09-.18.13Z"></path>
      <path class="cls-4" d="m243.86,430.36c-.64-1.71-1.31-3.37-1.88-5.09-.18-.55-.21-1.23-.09-1.83.2-1,.56-1.98.87-3.01,2.68,1.66,3.27,7.85,1.1,9.93Z"></path>
      <path class="cls-4" d="m186.35,426.49c.43,1.32.99,2.5.64,3.96-.47,1.95-.9,3.9-1.36,5.86-.03.13-.1.26-.15.4-2.57-2.09-2.2-7.26.87-10.22Z"></path>
      <path class="cls-4" d="m206.83,431.53c-.43-.88-.14-2.45.73-3.18.66-.54,1.36-1.03,2.06-1.51.22-.15.51-.2.77-.23,2.57-.26,5.13-.51,7.7-.75.28-.03.59,0,.83.11.52.25,1,.59,1.5.87,1.2.69,1.22,1.82.79,3.26-.34-.37-.64-.69-.94-1.01-1.63-1.76-3.59-2.81-6.14-2.52-2.17.25-3.94,1.44-5.5,3.09-.6.64-1.22,1.26-1.8,1.85Z"></path>
      <path class="cls-4" d="m209.2,472.08c-1.52,2.8-7.72,3.2-9.31.6,1.45-.56,2.64-1.85,4.36-1.38,1.37.37,2.84.44,4.27.65.21.03.42.08.68.13Z"></path>
      <path class="cls-4" d="m187.66,444.54c1.8,1.78,2.26,7.71.76,9.96-2.23-1.79-2.71-8.07-.76-9.96Z"></path>
      <path class="cls-4" d="m226.67,463.89c-.36,1.1-.68,2.14-1.05,3.16-.08.21-.34.42-.55.52-2.09.94-4.19,1.85-6.29,2.77-.04.02-.08,0-.13-.01,0-1.96,5.25-6.26,8.02-6.44Z"></path>
      <path class="cls-4" d="m208.82,470.78c-2.73.75-6.54-1.75-6.98-4.59,2.47-1.02,6.51,1.63,6.98,4.59Z"></path>
      <path class="cls-4" d="m195.31,460.57c1.43,1.02,3.05,1.83,3.91,3.53.67,1.34,1.27,2.72,1.9,4.08.04.09.06.2.14.46-.32-.13-.54-.18-.72-.29-1.01-.61-2-1.26-3.02-1.86-1.57-.92-1.93-2.6-2.25-4.3-.09-.48-.12-.98-.17-1.47.07-.05.14-.09.21-.14Z"></path>
      <path class="cls-4" d="m239.09,449.29c.41,1.28.7,2.61-.06,3.89-1.2,2.04-2.57,3.98-3.88,5.96-.06.08-.17.13-.27.19-.61-2.49,1.95-8.63,4.21-10.05Z"></path>
      <path class="cls-4" d="m222.41,439.16c0-1.92-.01-3.67.02-5.43,0-.16.29-.46.46-.49.55-.12,1.12-.2,1.66-.17.22.01.55.31.56.53.09,1.58.13,3.17.15,4.77,0,.16-.24.49-.39.51-.84.13-1.68.2-2.47.28Z"></path>
      <path class="cls-4" d="m240.75,449.19c-1.5-1.71-1.15-6.48.64-8.8.73,1.14,1.58,2.23,1.19,3.76-.4,1.55-1,3.06-1.53,4.58-.05.15-.17.27-.3.46Z"></path>
      <path class="cls-4" d="m237.39,415.34c1.39,1,3.1,1.61,3.53,3.55.29,1.3.22,2.65-.01,4.12-.21-.13-.32-.16-.38-.24-.93-1.17-1.96-2.27-2.75-3.55-.67-1.09-.53-2.51-.4-3.89Z"></path>
      <path class="cls-4" d="m205.53,438.09c0,.74-.02,1.49,0,2.22.02.48-.17.7-.61.74-.6.05-1.21.13-1.8.12-.17,0-.44-.3-.43-.47.09-1.6.22-3.21.35-4.82.01-.14.13-.39.21-.4.66-.13,1.33-.24,1.99-.27.11,0,.27.37.28.59.03.76.01,1.53.01,2.29Z"></path>
      <path class="cls-4" d="m237.99,424.52c1.1-.22,2.54.43,2.96,1.32.49,1.04,1.04,2.05,1.42,3.15.32.91.43,1.92.66,2.97-1.91-.76-4.96-5.32-5.03-7.43Z"></path>
      <path class="cls-4" d="m243.24,441.06c-1.97-1.62-2.92-6.55-1.68-8.51,1.39.86,2.53,6.51,1.68,8.51Z"></path>
      <path class="cls-4" d="m189.08,428.83c.4-2.69,3.57-5.9,6.06-6.23-.03.88-.36,1.66-.91,2.32-.47.57-1,1.11-1.58,1.53-1.12.81-2.29,1.53-3.57,2.37Z"></path>
      <path class="cls-4" d="m190.7,429.16c0,2.53-1.79,5.71-4.09,7.37-.25-2.75,2.26-7.32,4.09-7.37Z"></path>
      <path class="cls-4" d="m188.35,427.92c-1.46-2.39-.76-5.24,1.48-6.96.36-.27.62-.22.7.19.08.43.24.94.1,1.32-.71,1.83-1.51,3.63-2.27,5.45Z"></path>
      <path class="cls-4" d="m224.9,428.05c0,.65.04,1.29-.02,1.94-.02.21-.27.55-.47.62-1.63.54-1.88.33-1.8-1.39.06-1.16.13-2.32.17-3.48.02-.43.23-.57.59-.62,1.15-.16,1.36.02,1.39,1.21.01.58.05,1.15.07,1.73h.06Z"></path>
      <path class="cls-4" d="m205.53,430.06c0,.69,0,1.39,0,2.08,0,.4-.17.62-.56.66-.04,0-.09,0-.13.02-1.54.22-1.59.17-1.46-1.44.1-1.21.2-2.41.28-3.62.05-.75.57-.61.98-.69.43-.08.81-.11.82.5.02.83.07,1.65.11,2.48-.01,0-.02,0-.04,0Z"></path>
      <path class="cls-4" d="m203.85,445.62c-.74.08-1.47.16-2.21.23-.36.03-.76.08-.7-.49.06-.54,0-1.28.68-1.39,1.42-.25,2.85-.35,4.28-.47.5-.04,1.14.94.92,1.44-.09.2-.41.39-.63.43-.78.13-1.56.18-2.34.26h0Z"></path>
      <path class="cls-4" d="m233.6,419.4c1.36-.24,2.47-.19,3.32.72.81.86,1.61,1.75,2.4,2.64.17.2.28.46.51.85-2.74-.58-4.72-1.9-6.23-4.21Z"></path>
      <path class="cls-4" d="m218.34,457.95c.34-.79.66-1.56,1.02-2.31.05-.1.33-.17.46-.13.66.2,1.32.43,1.97.66.39.14.51.42.32.87-.28.66-.51,1.34-.83,1.98-.1.19-.51.41-.67.35-.67-.25-1.3-.58-1.92-.91-.14-.08-.21-.3-.34-.5Z"></path>
      <path class="cls-4" d="m221.14,443.81c-.15-1.34.26-1.94,1.45-2.11.93-.13,1.86-.25,2.79-.27.31,0,.68.2.86.45.21.28.25.72.37,1.09-.32.12-.64.32-.96.36-1.51.19-3.02.33-4.52.49Z"></path>
      <path class="cls-4" d="m188.19,436.29c.75,1.17-.33,5.98-1.72,7.75-.95-1.82.04-6.4,1.72-7.75Z"></path>
      <path class="cls-4" d="m235.66,418.33c-2.22-.56-4.66-.66-6.2-2.75,1.68-.97,5.24.58,6.2,2.75Z"></path>
      <path class="cls-4" d="m231.93,411.91c2.31.05,4.11,2.13,4.09,4.64-1.13.11-3.8-2.9-4.09-4.64Z"></path>
      <path class="cls-4" d="m231.08,450.85c-.04.14-.06.54-.26.8-.17.23-.63.48-.79.4-.23-.12-.32-.52-.43-.82-.03-.1.13-.27.12-.4-.01-.24,0-.57-.14-.67-.17-.11-.54-.13-.72,0-.63.45-1.22.98-1.83,1.46-.26.21-.52.55-.86.18-.32-.36-.04-.62.19-.9.72-.89,1.51-1.62,2.64-1.88,1.15-.26,2.09.41,2.06,1.82Z"></path>
      <path class="cls-4" d="m214.76,469.44c.08-.84.76-1.75,1.65-2.48.45-.37.95-.14,1.34.16.5.4.53,1.01.34,1.62-.25.78-.73,1.39-1.47,1.76-.17.08-.34.16-.51.23-1.24.53-1.35.46-1.35-1.28Zm.73.76c.78-.37,1.4-.78,1.72-1.5.1-.22-.03-.55-.12-.79-.03-.08-.38-.1-.45-.03-.55.64-1.08,1.3-1.15,2.32Z"></path>
      <path class="cls-4" d="m212.8,457.41c-.87.52-1.74,1.07-2.63,1.55-.13.07-.46-.1-.56-.25-.28-.44-.51-.92-.72-1.4-.27-.62-.02-1.12.65-1.32.17-.05.38-.11.53-.05.93.36,1.84.76,2.76,1.14,0,.11-.01.22-.02.33Z"></path>
      <path class="cls-4" d="m223.54,418.07c.62-.03,1.24-.08,1.86-.09.3,0,.81-.13.72.39-.07.4-.39,1.07-.65,1.12-1.07.24-2.17.31-3.25.39-.36.03-.93-.86-.8-1.21.06-.16.33-.33.51-.37.53-.1,1.07-.13,1.6-.18,0-.02,0-.03,0-.05Z"></path>
      <path class="cls-4" d="m208.71,459.61c-.09.18-.13.31-.21.42-.07.09-.17.17-.26.24-1.34,1.05-1.44,1.03-2.14-.37,0-.02-.02-.04-.03-.06-.72-1.46-.58-1.81,1-2.45.16-.06.46-.05.52.05.4.7.75,1.44,1.11,2.16Z"></path>
      <path class="cls-4" d="m190.87,439.81c.27-.27.54-.54.81-.81-.07-.12-.14-.24-.21-.36.26.16.55.29.78.5,2.32,2.1,4.62,4.21,6.93,6.32.08.07.2.14.21.24.03.18,0,.38-.01.57-.17-.01-.39.04-.51-.05-.31-.23-.59-.51-.86-.78-1.64-1.6-3.27-3.2-4.91-4.8-.66-.64-1.17-1.62-2.23-.84Z"></path>
      <path class="cls-4" d="m197.5,453.9c-.02-1.4.97-2.18,2.25-1.77.65.21,1.22.69,1.75,1.15.15.13.15.66.02.9-.25.45-.54.09-.77-.06-.48-.32-.93-.7-1.44-.97-.19-.1-.52.05-.78.08.01.25-.05.55.05.75.21.43.64.92,0,1.29-.66.39-.71-.42-.94-.79-.12-.19-.13-.47-.15-.58Z"></path>
      <path class="cls-4" d="m217.31,459.17c-3.49,2.03-6.77,4.41-10.72,4.89.34-.16.67-.33,1.01-.47,2.87-1.16,5.66-2.53,8.27-4.35.77-.54.86-.53,1.44-.06Z"></path>
      <path class="cls-4" d="m228.96,443.95c2.62-3.37,5.24-6.76,8.15-10.02.22.53.26,1.19.92.86.39-.2.7-.6,1.04-.9.05.05.1.1.15.14-.34.35-.66.73-1.03,1.03-.15.12-.49.16-.64.07-.56-.35-.94-.16-1.37.38-2.1,2.72-4.22,5.42-6.34,8.11-.18.23-.45.39-.68.59-.07-.09-.13-.18-.2-.26Z"></path>
      <path class="cls-4" d="m208.97,476.68c-.11.01-.22.04-.33.03-.43,0-1.05.23-1.07-.46-.02-.68.61-1.15,1.27-1.1,1.1.07,2.17-.04,3.16-.79.07-.06.16-.12.24-.14.22-.05.44-.07.66-.1-.08.23-.1.56-.26.68-.76.57-1.54,1.14-2.35,1.6-.39.22-.87.22-1.31.32,0-.01,0-.02,0-.03Z"></path>
      <path class="cls-4" d="m195.04,416.23c.3,1.88-.99,4.17-2.97,5.33,0-1.75,1.68-4.79,2.97-5.33Z"></path>
      <path class="cls-4" d="m211.85,471.03c-.67.02-1.41-.17-1.82-.9-.44-.78-.32-1.68.04-2.54.23-.55,1.02-.78,1.43-.31.67.77,1.26,1.64,1.73,2.56.29.59-.27,1.08-1.37,1.18Zm-1.55-2.15c.17.31.29.66.51.89.29.31.65.56,1.02.79.17.1.41.09.61.13.06-.26.24-.61.14-.76-.38-.6-.81-1.17-1.29-1.69-.11-.12-.48-.11-.67-.01-.15.07-.2.38-.33.65Z"></path>
      <path class="cls-4" d="m215.12,452.62c.85-.48,1.69-.97,2.55-1.42.15-.08.47-.08.54.02.32.51.59,1.06.85,1.62.04.09-.07.37-.17.41-.41.19-.88.52-1.24.46-.88-.17-1.7-.53-2.55-.81.01-.09.02-.18.03-.27Z"></path>
      <path class="cls-4" d="m196.12,417.84c-.13-1.73,1.18-2.84,3.94-3.16.24,1.27-2.08,2.63-3.94,3.16Z"></path>
      <path class="cls-4" d="m227.55,411.88c1.62-.42,3.03.19,3.68,1.56.14.29.22.55-.22.71-1.32.48-3.29-.78-3.46-2.27Z"></path>
      <path class="cls-4" d="m198.35,418.5c-.39,1.36-3.74,3.67-5.32,3.71.84-1.52,3.54-3.76,5.32-3.71Z"></path>
      <path class="cls-4" d="m204.55,420.08c.51-.05,1.03-.15,1.54-.15.25,0,.48.17.72.26-.2.38-.36,1.04-.59,1.1-1.01.24-2.05.39-3.06.38-.29,0-.52-.66-.75-1.04-.01-.02.25-.32.4-.35.58-.1,1.16-.14,1.74-.2,0,0,0,0,0,0Z"></path>
      <path class="cls-4" d="m225.46,449.39c-.14.22-.22.4-.34.53-.48.53-.51,1.06-.11,1.54.49.6,1.04,1.15,1.52,1.77.4.51.79,1.04,1.06,1.63.16.35.22.9-.31,1.15-.23.11-.59.11-.77-.01-.14-.1-.21-.56-.11-.71.55-.79.17-1.21-.3-1.7-.88-.92-1.81-1.83-2.03-3.22-.05-.34.06-.77.23-1.11.08-.15.47-.22.7-.21.16,0,.29.2.47.34Z"></path>
      <path class="cls-4" d="m219.81,474.05c.06.99-.52,1.67-1.41,1.63-1.37-.07-2.39-.83-3.34-1.68-.11-.1-.13-.3-.21-.5.86.29,1.6.7,2.41.78.82.09,1.7-.14,2.56-.23Z"></path>
      <path class="cls-4" d="m193.74,446.82c-.43-1.8-.86-3.59-1.29-5.39.09-.06.17-.12.26-.18.54.62,1.09,1.24,1.62,1.87.05.06.09.17.08.25-.15,1.15-.31,2.29-.46,3.44-.07,0-.14.01-.21.02Z"></path>
      <path class="cls-4" d="m195.28,428.33c2.27,2.44,4.54,4.89,6.82,7.33-.73.05-6.94-6.53-7.01-7.14.06-.06.13-.13.19-.19Z"></path>
      <path class="cls-4" d="m221.77,451.37c-.29.25-.5.51-.76.64-.35.18-.78.47-1.06,0-.26-.43-.63-.88-.63-1.35,0-.38.47-.83.8-1.19.29-.32.61-.17.77.13.29.53.54,1.08.88,1.77Z"></path>
      <path class="cls-4" d="m209.07,451.72c-.29.7-.45,1.35-.81,1.86-.41.57-.88.09-1.31-.03-.36-.1-.36-.39-.22-.71.23-.52.46-1.05.69-1.57.18-.4.44-.48.75-.25.3.22.58.45.9.7Z"></path>
      <path class="cls-4" d="m232.7,424.9c-2.17,2.99-4.34,5.98-6.52,8.97-.08-.06-.16-.12-.24-.17,1.99-3.13,4.28-6.03,6.42-9.05.11.09.22.17.33.26Z"></path>
      <path class="cls-4" d="m203.94,452.34c-.26.54-.45,1.13-.79,1.62-.44.63-.98,1.18-1.49,1.74-.39.42-.5.81-.29,1.33.1.24.02.6-.07.88-.04.11-.44.26-.5.2-.21-.21-.51-.52-.47-.77.08-.48.31-.99.61-1.39.34-.45.86-.76,1.21-1.2.39-.49.71-1.05.98-1.62.09-.19-.08-.49-.15-.73-.06-.23-.23-.46-.19-.67.03-.16.43-.44.47-.41.2.16.36.39.5.62.05.08.04.22.05.33.04.02.09.04.13.06Z"></path>
      <path class="cls-4" d="m205.29,457.09c-.13-.05-.39-.1-.6-.23-.48-.29-.95-.59-1.38-.94-.14-.11-.28-.45-.21-.54.14-.21.5-.51.61-.45.85.4,1.68.84,2.45,1.36.3.2-.16.73-.87.8Z"></path>
      <path class="cls-4" d="m215.42,461.41c.22-.06.45-.19.65-.18,1.8.1,3.6.21,5.4.34.13,0,.26.1.37.23-2.23.58-4.35.41-6.41-.15v-.24Z"></path>
      <path class="cls-4" d="m219.76,472.4c-.75.88-2.23,1-3.07.45-.02-.01-.04-.02-.05-.04-.17-.28-.34-.55-.51-.83.31-.07.65-.23.94-.19.86.15,1.71.38,2.69.61Z"></path>
      <path class="cls-4" d="m221.43,455c.66-.91,1.51-1.45,2.37-1.96.29-.17.69.26.62.6-.15.7-2.08,1.81-2.7,1.55-.08-.03-.14-.09-.3-.19Z"></path>
      <path class="cls-4" d="m234.1,443.06c-.17-.9-.49-1.79-.46-2.71.02-.56.57-1.16.89-1.75l.3.09c-.13,1.45-.26,2.9-.39,4.35l-.33.02Z"></path>
      <path class="cls-4" d="m208.95,473.86c.66-.83,1.35-1.45,2.27-1.66.2-.05.49.05.62.19.07.07-.07.43-.19.61-.58.83-1.66,1.19-2.7.87Z"></path>
      <path class="cls-4" d="m223.09,417.33c.15-1.02.28-1.92.42-2.82.08-.02.17-.03.25-.05.22.78.46,1.55.65,2.34.02.1-.19.37-.32.41-.27.09-.57.08-.99.12Z"></path>
      <path class="cls-4" d="m222.2,459.99c.43-1.16.82-2.2,1.24-3.31.77,1.08.1,2.96-1.24,3.31Z"></path>
      <path class="cls-4" d="m204.71,416.63c.26.8.51,1.6.78,2.45-.26.08-.41.14-.55.16-.76.12-.82.06-.73-.74.07-.6.15-1.2.23-1.8.09-.02.18-.04.27-.06Z"></path>
      <path class="cls-4" d="m222,440.57c.16-.11.33-.29.49-.32.95-.14,1.91-.26,2.87-.36.13-.01.26.14.39.21-.12.12-.23.33-.35.35-1.11.14-2.21.25-3.32.36-.03-.08-.05-.16-.08-.25Z"></path>
      <path class="cls-4" d="m202.22,442.47c1.15-.12,2.31-.24,3.52-.37-.43.52-2.49.8-3.52.37Z"></path>
      <path class="cls-4" d="m203.77,461.57c-.41.39-.65.62-.89.85-.24-.29-.58-.54-.69-.89-.04-.14.46-.72.64-.7.29.03.52.39.93.74Z"></path>
      <path class="cls-4" d="m234.15,423.44c0,.3-.23.64-.64.56-.26-.06-.55-.37-.62-.65-.1-.38.19-.66.6-.67.4-.01.68.13.67.76Z"></path>
      <path class="cls-4" d="m210.78,459.99c.46-.64,1.21-.56,1.9.2-.55.6-1.14.54-1.9-.2Z"></path>
      <path class="cls-4" d="m213.02,472.22c.35-.39.54-.76.76-.8.58-.11.53.46.56.84.04.35-.14.71-.54.63-.25-.05-.43-.35-.79-.67Z"></path>
      <path class="cls-4" d="m204.55,459.26c.35.75.69,1.51,1.07,2.33-.89-.16-1.39-1.22-1.07-2.33Z"></path>
      <path class="cls-4" d="m194.19,426.61c.31.4.62.61.6.82-.03.24-.34.63-.55.67-.2.04-.57-.26-.6-.48-.03-.23.27-.53.54-1.01Z"></path>
      <path class="cls-4" d="m225.77,459.17c-.34.34-.54.68-.78.73-.17.04-.59-.37-.55-.47.12-.31.4-.57.62-.85.19.16.38.31.71.59Z"></path>
      <path class="cls-4" d="m222.47,431.91c.83-.09,1.66-.18,2.65-.28-.62.56-2.19.74-2.65.28Z"></path>
      <path class="cls-4" d="m208.04,427.07l-1.17.91-.19-.09c.05-.31.02-.84.15-.9.35-.16.77-.12,1.16-.17.01.08.03.16.04.24Z"></path>
      <path class="cls-4" d="m202.99,434.01l2.58-.27c-.55.54-2.06.68-2.58.27Z"></path>
      <path class="cls-4" d="m220.27,425.84c.89-.54,1.21-.36,1.15.63-.39-.22-.72-.4-1.15-.63Z"></path>
      <path class="cls-4" d="m205.49,422.8c-.58.06-1.16.12-1.73.18,0-.06,0-.12,0-.19.58-.06,1.16-.12,1.73-.18,0,.06,0,.12,0,.19Z"></path>
    </g>
  </g>
</svg>