<svg xmlns="http://www.w3.org/2000/svg" id="new" viewBox="0 0 380 600"><defs transform="matrix(-1, 0, 0, 1, 380, 0)"><style>.cls-1{fill:#00cc78;}.cls-2{fill:#ff4500;}.cls-3{fill:#6d482f;}.cls-4{fill:#b8c7cc;}.cls-5{fill:#9c6926;}.cls-6{fill:none;}</style></defs><g id="default" transform="matrix(-1, 0, 0, 1, 380, 0)"><path class="cls-1" d="M160.412,391.443c-7.582,9.513-14.229,22.312-22.211,41.293-8.856,21.061-18.834,37.366-29.709,32.709-13.624-5.834-9.478-36.627-4.5-51.1,6.055-17.583,19.428-51.04,47.782-59.992,10.883-3.436,14.227,11.569,14.227,11.569" /><path d="M165.947,365.939c-.44-.388-1.22-2.975-3.311-6.14a11.8,11.8,0,0,0-4.514-4.165,7.376,7.376,0,0,0-3.27-.647,9.385,9.385,0,0,0-1.766.244l-.889.258-.948.349a49.238,49.238,0,0,0-14.275,8.128,57.561,57.561,0,0,0-9.412,9.67c-7.36,9.662-13.088,21.508-17.59,33.918-.567,1.551-1.111,3.116-1.646,4.685s-1.071,3.182-1.519,4.674a90.747,90.747,0,0,0-2.2,9.4,85.489,85.489,0,0,0-1.432,18.768,43.512,43.512,0,0,0,1.008,7.616,18.355,18.355,0,0,0,2.6,6.285,7.5,7.5,0,0,0,4.289,3.11,5.106,5.106,0,0,0,2.314.024,8.1,8.1,0,0,0,2.521-1.071,21.852,21.852,0,0,0,5.02-4.608,57.042,57.042,0,0,0,4.348-6.074,136.894,136.894,0,0,0,7.2-13.3c1.09-2.256,2.1-4.48,3.139-6.746s2.078-4.493,3.133-6.676c2.11-4.365,4.264-8.554,6.487-12.514a107.486,107.486,0,0,1,14.292-20.4c-1.433,3.123-3.134,6.869-4.826,10.907s-3.376,8.381-4.98,12.608c-3.2,8.461-6.094,16.461-8.124,20.507-4.173,8.251-8.377,16.247-13.84,23.355a43.419,43.419,0,0,1-4.532,5.018,21.3,21.3,0,0,1-5.745,3.964,13.467,13.467,0,0,1-3.535,1.017,11.727,11.727,0,0,1-3.722-.137,13.029,13.029,0,0,1-6.187-3.367,16.82,16.82,0,0,1-3.674-5.521,28.7,28.7,0,0,1-1.772-5.985,56.261,56.261,0,0,1-.838-11.806,103.9,103.9,0,0,1,3.1-22.038c.441-1.746.922-3.471,1.482-5.171.553-1.673,1.107-3.311,1.686-4.94q1.719-4.882,3.638-9.529a131.2,131.2,0,0,1,8.694-17.45A84.1,84.1,0,0,1,127.418,367.5a65.41,65.41,0,0,1,6.521-5.92,55.826,55.826,0,0,1,7.131-4.7,42.653,42.653,0,0,1,8.363-3.512l1.184-.341c.39-.115.789-.228,1.25-.317a11.89,11.89,0,0,1,2.732-.274,9.482,9.482,0,0,1,5.1,1.661,12.084,12.084,0,0,1,3.247,3.459,18.716,18.716,0,0,1,1.755,3.551A22.694,22.694,0,0,1,165.947,365.939Z" /></g><path class="cls-2" d="M149.721,369.747a54.826,54.826,0,0,0-22.143,18.16,4.008,4.008,0,0,1-1.8,1.68c-1.551.514-2.97-1-3.906-2.342-2.4-3.441-4.839-6.943-6.17-10.924s-1.426-8.579.729-12.181c3.332-5.57,10.635-7.045,17.1-7.637,8.106-.742,16.86-.8,23.657,3.684,1.392.917,2.8,2.625,1.969,4.068A3.635,3.635,0,0,1,157.6,365.5l-14.291,7.568" transform="matrix(-1, 0, 0, 1, 380, 0)" /><path d="M143.285,373.023c.166-.457,2.264-1.8,5.192-3.531l4.876-2.811,2.645-1.5,1.151-.658a2.246,2.246,0,0,0,.723-.61,1.323,1.323,0,0,0-.1-1.516,3.832,3.832,0,0,0-1.2-1.076,17.087,17.087,0,0,0-3.421-1.586c-5.7-1.919-12.355-1.608-19.052-.808a37.494,37.494,0,0,0-9.389,2.085,10.917,10.917,0,0,0-6.044,5.054,11.337,11.337,0,0,0-.778,6.644,21.145,21.145,0,0,0,2.566,6.92c.62,1.133,1.322,2.253,2.046,3.374l1.115,1.685.568.848c.165.247.3.441.453.636l.215.258c.055.066.021.033.037.055a.265.265,0,0,0,.036.056.179.179,0,0,0,.134.067.277.277,0,0,0,.16-.068l1.176-1.494a51.393,51.393,0,0,1,11.341-10.381,47.877,47.877,0,0,1,11.628-5.7c-2.639,2.528-6.354,5.825-9.463,9.156-3.155,3.292-5.729,6.561-7.3,8.1-.783.747-1.524,1.529-2.236,2.328l-.531.6c-.187.206-.3.351-.687.819a5.637,5.637,0,0,1-2.313,1.731,4.365,4.365,0,0,1-2.742.08,5.708,5.708,0,0,1-2.345-1.443,15.191,15.191,0,0,1-2.221-3.106c-2.253-3.692-4.5-7.521-5.495-11.756a18.91,18.91,0,0,1-.432-6.375,13.283,13.283,0,0,1,2.083-5.933,13.887,13.887,0,0,1,4.385-4.194,22.271,22.271,0,0,1,5.26-2.273,53.919,53.919,0,0,1,10.453-1.755,56.654,56.654,0,0,1,9.945-.144,28.452,28.452,0,0,1,9.28,2.285,22.076,22.076,0,0,1,2.078,1.081l.988.608a8.422,8.422,0,0,1,1.073.846,5.953,5.953,0,0,1,1.715,2.634,3.478,3.478,0,0,1-.4,2.884,5.034,5.034,0,0,1-2.031,1.639l-.581.3c-.155.074-.312.151-.473.229l-1,.468-2.163.961c-1.494.643-3.063,1.286-4.539,1.872C146.72,371.78,144.141,372.729,143.285,373.023Z" transform="matrix(-1, 0, 0, 1, 380, 0)" /><g data-name="default" id="default-2" transform="matrix(-1, 0, 0, 1, 380, 0)"><path class="cls-1" d="M239.64,463.371c-.822-7.144-2.461-16.135-4.759-22.342-13.642-36.838,9.04-78.792-30.636-91.823-29.145-9.571-59.413,5.745-75.671,54.174-5.9,17.562-7.776,42.306-3.484,59.991" /><path d="M125.031,463.385c-.41-.5-1.421-3.49-2.2-8.059a99.615,99.615,0,0,1-1.25-17.25,134.8,134.8,0,0,1,1.693-19.911,131.447,131.447,0,0,1,11.94-37.3A86.133,86.133,0,0,1,148.808,361a58.633,58.633,0,0,1,20.166-14.4,50.59,50.59,0,0,1,24.3-3.677,57.2,57.2,0,0,1,10.347,1.977,52.19,52.19,0,0,1,9.832,3.9,35.63,35.63,0,0,1,8.75,6.428,31.61,31.61,0,0,1,6.249,8.889c3.08,6.5,4.087,13.306,4.518,19.666.422,6.4.281,12.522.227,18.43-.07,5.9-.077,11.587.243,17.051a91.2,91.2,0,0,0,2.165,15.6q.219.921.435,1.833l.517,1.787q.549,1.857,1.085,3.674a74.079,74.079,0,0,1,1.621,7.381,119,119,0,0,1,1.5,13.7c-1.269-3.742-2.722-8.309-4.474-13.089-.876-2.387-1.833-4.827-2.918-7.167-.548-1.11-1.134-2.421-1.7-3.691-.6-1.268-1.024-2.59-1.531-3.886a78.5,78.5,0,0,1-4.271-26.328c.289-10.761,1.225-20.984.12-30.554a37.982,37.982,0,0,0-3.806-13.331,27.3,27.3,0,0,0-8.9-9.8,43.034,43.034,0,0,0-12.118-5.436,49.786,49.786,0,0,0-12.837-1.91,44.984,44.984,0,0,0-23.579,6.427,60.713,60.713,0,0,0-17.071,15.672,84.493,84.493,0,0,0-6.165,9.285c-.952,1.563-1.759,3.2-2.62,4.778-.783,1.626-1.623,3.2-2.327,4.836l-1.093,2.416q-.506,1.221-1.007,2.431c-.691,1.6-1.276,3.238-1.893,4.842s-1.138,3.231-1.708,4.822c-.521,1.6-1.037,3.167-1.47,4.762a134.552,134.552,0,0,0-3.788,18.792c-.389,2.918-.748,6.381-1.077,10-.268,3.625-.505,7.416-.506,10.973A101.817,101.817,0,0,0,125.031,463.385Z" /><path class="cls-1" d="M234.881,441.029c-13.642-36.838,9.04-78.792-30.636-91.823-29.144-9.571-59.413,5.745-75.671,54.174-5.9,17.562-7.776,42.306-3.484,59.991h0s6.034,10.253,50.162,13c42.248,2.629,64.388-13,64.388-13h0C238.818,456.227,237.179,447.236,234.881,441.029Z" /><path class="cls-3" d="M234.881,441.029a84.47,84.47,0,0,1-4.662-23.047c-27.415,10.751-59.35,8.247-87.943,2.414a81.952,81.952,0,0,1-16.913-4.824c-3.195,15.694-3.636,31.19-.267,45.072,0,0,9.346,16.747,53.474,19.493,27.936,1.739,43.753-8.271,53.518-12.7,3.352-2.369,5.552-4.754,5.753-6.9q.43-1.929.859-3.858A89.943,89.943,0,0,0,234.881,441.029Z" /><path d="M234.909,441.019a40.147,40.147,0,0,1,2.837,8.636c.3,1.224.6,2.553.882,3.968q.206,1.065.422,2.187a2.661,2.661,0,0,1,.066,1.315q-.122.574-.245,1.162-.245,1.161-.5,2.367a5.184,5.184,0,0,1-.329,1.305,7.345,7.345,0,0,1-.639,1.214,16.907,16.907,0,0,1-3.761,3.875c-.364.284-.707.545-1.1.831a1.645,1.645,0,0,1-.381.215l-.3.145-.6.29-2.436,1.192c-1.628.812-3.278,1.625-4.934,2.42a103.524,103.524,0,0,1-10,4.177,88.961,88.961,0,0,1-17.354,4.282l-3,.394c-1.006.121-2.021.174-3.039.264-2.035.207-4.093.2-6.167.274-2.071.012-4.161-.055-6.256-.13l-6.292-.452a118.622,118.622,0,0,1-25.341-4.887,70.695,70.695,0,0,1-12.114-5.258c-.948-.585-1.9-1.155-2.842-1.757-.9-.667-1.847-1.262-2.71-1.991l-1.3-1.078-1.243-1.172a21.015,21.015,0,0,1-2.3-2.659c-.074-.11-.215-.294-.347-.522a1.578,1.578,0,0,1-.272-.691l-.2-.89-.365-1.592c-.2-1.068-.427-2.132-.605-3.2-.351-2.137-.653-4.274-.841-6.411a101.8,101.8,0,0,1-.385-12.7c.114-3.575.4-7.133.833-10.642.2-1.755.467-3.5.746-5.221l.217-1.291c.077-.45.117-.732.3-1.641q.44-2.295.877-4.574c1.454.615,2.9,1.227,4.38,1.817.732.276,1.421.523,2.144.764,1.433.478,2.888.906,4.355,1.3,2.941.781,5.911,1.4,8.932,1.99,6.006,1.234,11.962,2.237,17.862,3.047s11.732,1.409,17.468,1.691a156.818,156.818,0,0,0,16.851.07,122.831,122.831,0,0,0,15.929-1.754c2.574-.381,5.047-1.036,7.513-1.554l3.607-1,1.782-.5,1.734-.586q1.1-.375,2.187-.748l1.355-.467.668-.23.333-.115.165-.057.083-.028a.3.3,0,0,1,.01.084q.194,2.523.381,5c.2,2.338.464,4.623.812,6.842a75.169,75.169,0,0,0,2.993,12.493,63.66,63.66,0,0,1-4.77-14.175c-.3-1.374-.569-2.781-.814-4.209-.258-1.627-.407-2.461-.522-3.02-.329.112-.683.308-.966.437l-.108.052a1.576,1.576,0,0,1-.165.073l-.515.212-1.033.423c-1.366.6-2.795,1-4.187,1.5a95.557,95.557,0,0,1-16.17,3.909,90.852,90.852,0,0,1-12.113,1.14,182.53,182.53,0,0,1-18.482-.6c-6.029-.525-11.922-1.282-17.683-2.195s-11.377-2.056-16.872-3.211c-2.757-.587-5.486-1.231-8.162-2.006-1.338-.388-2.663-.808-3.968-1.271l-.975-.355-.823-.316c-.354-.143-.709-.3-1.065-.453-.133.554-.242,1.165-.365,1.752q-.235,1.329-.471,2.649c-.3,1.812-.569,3.618-.788,5.42q-.666,5.4-.819,10.723a89.355,89.355,0,0,0,1.706,20.615q.269,1.185.535,2.361a5,5,0,0,0,.585.847,12.047,12.047,0,0,0,.778.922,29.077,29.077,0,0,0,3.576,3.3,49.8,49.8,0,0,0,8.248,5.018A82.35,82.35,0,0,0,156.8,476.24c1.49.346,3,.566,4.484.853l2.225.4c.742.122,1.489.2,2.23.3l4.421.571c1.465.181,2.936.252,4.389.383a98.578,98.578,0,0,0,17,.225,88.577,88.577,0,0,0,30.329-7.808c1.485-.654,3.09-1.406,4.79-2.2l2.617-1.217,1.361-.614.69-.307a1.9,1.9,0,0,0,.516-.274,18.922,18.922,0,0,0,4.356-3.88,6.946,6.946,0,0,0,.707-1.179,4.615,4.615,0,0,0,.217-.616,2.832,2.832,0,0,0,.065-.309,4.048,4.048,0,0,1,.094-.427c.247-.978.492-1.946.733-2.9.062-.262.12-.437.149-.605l-.084-.625q-.1-.713-.2-1.409c-.148-.925-.293-1.828-.433-2.7-.3-1.743-.614-3.36-.929-4.8C235.9,444.232,235.253,442.077,234.909,441.019Z" /></g><path class="cls-4" d="M141.244,371.037c-8.893,8.856-14.092,20.039-17.618,32.084-2.939,10.043-1.937,16.383,7.228,22.015,8.57,5.266,23.14,9.481,33.154,10.42,0,0,18.062.656,23.682,0,12.221-1.426,20.14-5.037,29.563-12.949a6.928,6.928,0,0,0,2.365-2.941,7.314,7.314,0,0,0,.066-3.184l-3.9-30.676a5.635,5.635,0,0,0-1.065-3.138c-1.224-1.367-3.365-1.209-5.185-.987a112.084,112.084,0,0,1-54.022-6.774c-3.516-1.369-7.034-2.934-10.791-3.273s-7.907.808-10.079,3.892" transform="matrix(-1, 0, 0, 1, 380, 0)" /><path d="M134.6,375.5a5.173,5.173,0,0,1,1.578-2.055,10.594,10.594,0,0,1,5.065-2.292,17.216,17.216,0,0,1,7.709.527c2.756.728,5.531,1.947,8.429,2.943A111.431,111.431,0,0,0,175.45,379.4a100.317,100.317,0,0,0,15.192,1.465c3.413.061,6.887-.034,10.392-.3,1.754-.105,3.511-.311,5.277-.5l2.65-.348a17.767,17.767,0,0,1,3.072-.243,6.111,6.111,0,0,1,3.859,1.357,5.338,5.338,0,0,1,1.361,1.847,8.25,8.25,0,0,1,.55,1.8c.2,1.1.291,1.906.437,2.853l.4,2.752q.786,5.514,1.581,11.08.775,5.561,1.554,11.13l.383,2.78.193,1.4a14.081,14.081,0,0,1,.137,1.712,7.33,7.33,0,0,1-.28,2.151,6.868,6.868,0,0,1-1,2.038,13.35,13.35,0,0,1-2.426,2.484,67.161,67.161,0,0,1-9.342,6.771,48.664,48.664,0,0,1-10.541,4.656,62.51,62.51,0,0,1-9.617,2.043l-1.2.163-1.292.125c-.828.054-1.651.106-2.448.13-1.608.063-3.181.078-4.755.089-3.139.011-6.247-.034-9.338-.105l-4.622-.13-1.153-.041-.666-.026-.622-.069c-.833-.09-1.665-.184-2.432-.306a97.241,97.241,0,0,1-17.951-4.521,80.8,80.8,0,0,1-8.375-3.472,42.581,42.581,0,0,1-7.815-4.764,17.938,17.938,0,0,1-5.858-7.636,16.248,16.248,0,0,1-.963-4.733,22.723,22.723,0,0,1,.266-4.508,46.135,46.135,0,0,1,2.121-8q1.276-3.743,2.771-7.265a73.287,73.287,0,0,1,7.007-12.864,57.393,57.393,0,0,1,8.686-9.971,80.884,80.884,0,0,0-6.789,11.227,90.045,90.045,0,0,0-5.432,13.873c-.735,2.374-1.359,4.747-1.93,7.032a47.979,47.979,0,0,0-1.239,6.323,16.977,16.977,0,0,0,.076,4.946,12.225,12.225,0,0,0,1.135,3.3,14.853,14.853,0,0,0,4.178,4.724,39.5,39.5,0,0,0,5.935,3.68,82.683,82.683,0,0,0,13.123,5.286,84.016,84.016,0,0,0,13.42,3.064l.816.108a2.974,2.974,0,0,0,.375.035l.429.022,1.715.086,3.413.15q3.4.135,6.745.21c2.229.046,4.442.075,6.623.044,1.09-.017,2.17-.049,3.23-.11,1.026-.066,2.1-.217,3.162-.345,2.112-.3,4.189-.68,6.218-1.174a45.149,45.149,0,0,0,16.414-7.86c1.611-1.166,3.178-2.446,4.65-3.7a5.349,5.349,0,0,0,1.512-1.886,4.805,4.805,0,0,0,.121-2.339q-1.584-11.7-3.064-22.649-.375-2.74-.743-5.433-.185-1.347-.367-2.683a8.566,8.566,0,0,0-.47-2.208,1.551,1.551,0,0,0-1.015-.9,5.483,5.483,0,0,0-2.016-.14c-.759.063-1.652.191-2.532.283s-1.746.217-2.618.283a106.259,106.259,0,0,1-38.818-3.462,84.535,84.535,0,0,1-9.333-3.176c-3.336-1.293-6.562-3.022-9.724-4.017a17.875,17.875,0,0,0-4.636-.886,12.9,12.9,0,0,0-4.092.483,9.888,9.888,0,0,0-2.95,1.422A9.01,9.01,0,0,0,134.6,375.5Z" transform="matrix(-1, 0, 0, 1, 380, 0)" /><path class="cls-5" d="M167.561,349.515C124.679,370.8,199.436,463.9,225.606,461.038l-1.463,14.687c-40.065-4.332-85.711-47.581-74.745-105.676,2.276-10.994,7.8-22,16.255-24.517,1.5-.983,4.182,1.07,2.448,2.919" transform="matrix(-1, 0, 0, 1, 380, 0)" /><path d="M168.079,348.431a5.121,5.121,0,0,0,.288-.551,1.432,1.432,0,0,0,.071-1.021,1.851,1.851,0,0,0-.941-1.062,1.668,1.668,0,0,0-1.676-.007l-.031.021-.05.016a15.52,15.52,0,0,0-5.216,3.065,25,25,0,0,0-4.85,5.96,48.95,48.95,0,0,0-5.921,17.231,90.5,90.5,0,0,0-1.128,18.683,84.249,84.249,0,0,0,11.636,38.927,87.292,87.292,0,0,0,7.546,11.073,90.534,90.534,0,0,0,9.165,9.974,91.362,91.362,0,0,0,22.156,15.487,78.675,78.675,0,0,0,12.391,4.922c1.051.331,2.1.645,3.171.887s2.114.567,3.187.742c1.069.194,2.129.43,3.2.589l1.291.171h.052q.452-4.722.9-9.429l.069-.717.033-.338v0l0-.014c0-.006-.012,0-.012,0l-.008,0h-.039l-.412-.023a22.875,22.875,0,0,1-6.078-1.522,50.9,50.9,0,0,1-10.4-5.7,95.066,95.066,0,0,1-9.055-7.141,149.578,149.578,0,0,1-15.572-16.136A168.167,168.167,0,0,1,169.087,415.1a130.148,130.148,0,0,1-9.71-18.166,74.186,74.186,0,0,1-5.532-18.64c-.88-6.21-.547-12.567,1.882-17.957a21.45,21.45,0,0,1,4.956-6.914,25.619,25.619,0,0,1,6.625-4.414,27.905,27.905,0,0,0-5.845,4.77,21.234,21.234,0,0,0-4.361,7.2,27,27,0,0,0-1.455,8.813,41.858,41.858,0,0,0,1.04,9.091,79.986,79.986,0,0,0,5.681,16.235c2.167,4.72,4.32,8.6,5.771,11.29a158.988,158.988,0,0,0,20.741,29.306,133.7,133.7,0,0,0,12.209,12.1,71.769,71.769,0,0,0,13.548,9.517,27.268,27.268,0,0,0,7.447,2.706l.954.147c.159.02.317.021.476.033.194.008.452.035.689.033l1.436-.025.7-.017.174,0-.018.178-.036.356q-.247,2.388-.492,4.759-.409,3.99-.813,7.915-.13,1.3-.263,2.6l-.034.339-.017.169a.493.493,0,0,1-.011.082l-.084-.012-.676-.094-1.348-.187-2.16-.3c-.651-.091-1.29-.243-1.934-.362a83.794,83.794,0,0,1-28.045-11.221,94.763,94.763,0,0,1-36.065-40.611,86.7,86.7,0,0,1-6.986-23.847,88.607,88.607,0,0,1-.16-23.184c.121-1.5.446-3.1.724-4.775a40.645,40.645,0,0,1,1.151-5.182,48.033,48.033,0,0,1,4.114-10.227,28.236,28.236,0,0,1,6.136-7.856,15.577,15.577,0,0,1,6.126-3.3l-.024.011a1.735,1.735,0,0,1,1.25-.221,2.424,2.424,0,0,1,.971.409,1.966,1.966,0,0,1,.835,1.289,1.5,1.5,0,0,1-.189.977A2.538,2.538,0,0,1,168.079,348.431Z" transform="matrix(-1, 0, 0, 1, 380, 0)" /><path class="cls-5" d="M161.575,433.407c4.862,11.324,14.908,25.745,24.089,18.322,8.445-6.827-2.652-16.4-7.015-24.579" transform="matrix(-1, 0, 0, 1, 380, 0)" /><path d="M178.676,427.136c.387.089,1.692,2.095,3.415,4.309,1.706,2.221,3.64,4.787,4.727,6.26a20.579,20.579,0,0,1,2.612,4.4,9.8,9.8,0,0,1,.716,5.8,8.761,8.761,0,0,1-1.234,2.9,11.651,11.651,0,0,1-2,2.237,10.7,10.7,0,0,1-5.369,2.578,10.283,10.283,0,0,1-5.13-.661,15.313,15.313,0,0,1-4.073-2.434,28.836,28.836,0,0,1-5.612-6.368,43.675,43.675,0,0,1-5.671-12.528,47.191,47.191,0,0,1,4.571,4.83,30.869,30.869,0,0,1,3.3,4.363,28.222,28.222,0,0,0,3.49,5.395,15.141,15.141,0,0,0,4.5,3.805,7.179,7.179,0,0,0,5.161.748,8.226,8.226,0,0,0,2.317-1.061,10.211,10.211,0,0,0,1.883-1.665,6.681,6.681,0,0,0,1.208-1.989,5.992,5.992,0,0,0,.336-2.174,10.535,10.535,0,0,0-1.194-4.227,79.266,79.266,0,0,0-4.459-7.285,33.189,33.189,0,0,1-2.239-4.079A24.7,24.7,0,0,1,178.676,427.136Z" transform="matrix(-1, 0, 0, 1, 380, 0)" /><path class="cls-4" d="M183.45,424.544c-3.09-5.051-8.832-14.544-12.34-20.984-.859-1.578-2.5-2.014-3.749-.989-5.859,4.792-13.522,10.207-17.265,12.849A4.253,4.253,0,0,0,148.815,420c3.75,12.389,9.1,19.7,11.7,22.734a2.3,2.3,0,0,0,3.183.51L182.575,430.1A4.358,4.358,0,0,0,183.45,424.544Zm-7.981,4.006-10.69,7.023a2.321,2.321,0,0,1-3.228-.681,51.373,51.373,0,0,1-6.567-11,4.309,4.309,0,0,1,1.107-4.848c2.783-2.1,7.682-5.5,10.437-7.4a2.38,2.38,0,0,1,3.472.944l6.391,10.353C177.52,424.767,177.071,427.5,175.469,428.55Z" transform="matrix(-1, 0, 0, 1, 380, 0)" /><path class="cls-6" d="M183.45,424.544c-3.09-5.051-8.832-14.544-12.34-20.984-.859-1.578-2.5-2.014-3.749-.989-5.859,4.792-13.522,10.207-17.265,12.849A4.253,4.253,0,0,0,148.815,420c3.75,12.389,9.1,19.7,11.7,22.734a2.3,2.3,0,0,0,3.183.51L182.575,430.1A4.358,4.358,0,0,0,183.45,424.544Zm-7.981,4.006-10.69,7.023a2.321,2.321,0,0,1-3.228-.681,51.373,51.373,0,0,1-6.567-11,4.309,4.309,0,0,1,1.107-4.848c2.783-2.1,7.682-5.5,10.437-7.4a2.38,2.38,0,0,1,3.472.944l6.391,10.353C177.52,424.767,177.071,427.5,175.469,428.55Z" transform="matrix(-1, 0, 0, 1, 380, 0)" /><path d="M175.452,428.525a9.827,9.827,0,0,0,.857-1.662,4.353,4.353,0,0,0-.388-3.507c-1.7-2.559-3.653-5.542-4.832-7.114l-1.574-2.138-.395-.548-.2-.276-.145-.175a1.464,1.464,0,0,0-.592-.405.752.752,0,0,0-.483,0,1.16,1.16,0,0,0-.218.116l-.409.316-2.212,1.708-4.467,3.37-2.215,1.647-.549.407-.273.2-.128.1-.041.042a1.579,1.579,0,0,0-.329.488,2.8,2.8,0,0,0-.21,1.307,2.7,2.7,0,0,0,.135.634c.022.068.093.24.169.412l.214.5c.6,1.325,1.277,2.63,2.01,3.9s1.5,2.506,2.293,3.706l1.2,1.77.3.433c.078.111.1.144.153.209a.979.979,0,0,0,.25.214.465.465,0,0,0,.488.011l1.769-1.028,3.4-1.911c2.2-1.206,4.259-2.273,6.121-3.168a33.087,33.087,0,0,1-4.815,5.546c-.938.891-1.879,1.712-2.727,2.382-.424.334-.825.631-1.191.88q-.274.188-.521.336a3.932,3.932,0,0,1-.826.394,4.079,4.079,0,0,1-3.351-.34,5.023,5.023,0,0,1-1.778-1.912q-.992-1.619-1.9-3.21a65,65,0,0,1-3.208-6.35c-.226-.531-.437-1.065-.639-1.6a5.48,5.48,0,0,1-.332-1.911,5.043,5.043,0,0,1,1.334-3.486,3.425,3.425,0,0,1,.368-.332c.126-.1.22-.159.331-.241l.639-.452,1.259-.9,2.443-1.775q2.388-1.77,4.622-3.427l1.106-.826a3.272,3.272,0,0,1,1.793-.626,3.611,3.611,0,0,1,3.075,1.71c1.909,2.944,3.595,5.646,5.069,8.286.362.617.753,1.369,1.142,2.165a4.9,4.9,0,0,1,.5,2.984,4.607,4.607,0,0,1-.973,2.286A3.116,3.116,0,0,1,175.452,428.525Z" transform="matrix(-1, 0, 0, 1, 380, 0)" /><path d="M183.476,424.528a1.929,1.929,0,0,1,.616.887,4.543,4.543,0,0,1,.291,2.313,4.062,4.062,0,0,1-1.655,2.89l-2.92,2.152c-4.095,3-8.772,6.357-11.3,8.337L165.1,443.75l-.436.334-.219.166-.326.221a3.551,3.551,0,0,1-1.643.5,3.86,3.86,0,0,1-3.017-1.352,48.809,48.809,0,0,1-5.555-7.539,66.415,66.415,0,0,1-4.267-8.374c-.612-1.432-1.171-2.876-1.687-4.319-.273-.717-.491-1.447-.738-2.165a11.834,11.834,0,0,1-.371-1.247,6.579,6.579,0,0,1,.492-4.2,5.318,5.318,0,0,1,.821-1.235,5.978,5.978,0,0,1,1.055-.911l3.091-2.219,6.073-4.4c1.992-1.46,3.95-2.91,5.842-4.36l1.407-1.087.348-.271c.116-.088.207-.166.446-.335a4.136,4.136,0,0,1,1.419-.655,4.012,4.012,0,0,1,3.081.494,4.928,4.928,0,0,1,1.781,1.981c4.227,8.138,8.249,15.485,11.243,21.466-4.545-4.22-11.468-13.582-13.221-17.368l-1.246-2.655c-.265-.474-.519-.626-.778-.623-.125-.139-1.175.747-1.947,1.269l-2.42,1.718c-3.208,2.255-6.332,4.394-9.357,6.47l-4.445,3.053a2.91,2.91,0,0,0-1.036,1.735,3.946,3.946,0,0,0,.142,2.174,70.147,70.147,0,0,0,3.517,9.224,59.831,59.831,0,0,0,4.5,8.036q1.232,1.851,2.576,3.515l.679.815.344.4a2.476,2.476,0,0,0,.272.272,1.247,1.247,0,0,0,1.09.312,1.37,1.37,0,0,0,.546-.269l.85-.605,1.679-1.193,3.286-2.305q3.238-2.253,6.309-4.278c1.921-1.3,4.688-2.955,7.068-4.35a3.732,3.732,0,0,0,1.514-2.9A4.443,4.443,0,0,0,183.476,424.528Z" transform="matrix(-1, 0, 0, 1, 380, 0)" /><g data-name="default" id="default-3" transform="matrix(-1, 0, 0, 1, 380, 0)"><path class="cls-1" d="M259.039,439.566c-1.139-18.561-3.924-46.029-22.5-62.515-15.9-14.111-22.106-3.869-24.321-.71s-5.633,16.01-1.424,26.085,7.753,25.3,10.376,45.725c2.91,22.661,8.17,41.038,19.9,39.455C255.749,485.622,259.977,454.841,259.039,439.566Z" /><path class="cls-1" d="M210.791,402.426c4.766,11.192,7.753,25.3,10.376,45.725,2.91,22.661,8.17,41.038,19.894,39.455,14.687-1.984,18.916-32.765,17.978-48.04-1.139-18.561-3.924-46.029-22.5-62.515-15.9-14.111-24.321-.71-24.321-.71" /><path d="M212.163,376.309a4.751,4.751,0,0,1,1.129-2.015,12.819,12.819,0,0,1,10.682-4.683,19.817,19.817,0,0,1,7.878,2.5,31.192,31.192,0,0,1,3.614,2.395l1.727,1.341c.569.456,1.068.978,1.606,1.465a36.46,36.46,0,0,1,3.058,3.044l1.414,1.586.7.784.627.825a69.022,69.022,0,0,1,7.46,11.874c5.769,11.243,8.546,24.7,9.841,38,.173,1.668.321,3.334.456,5s.25,3.463.275,5.164a98.609,98.609,0,0,1-.362,10.251,85.588,85.588,0,0,1-3.941,19.875,43.312,43.312,0,0,1-3.783,8.28,26.328,26.328,0,0,1-2.873,3.895,18.251,18.251,0,0,1-3.919,3.376,14.721,14.721,0,0,1-5.079,2.1,13.243,13.243,0,0,1-10.892-2.289,17.757,17.757,0,0,1-3.651-3.626,32.965,32.965,0,0,1-4.335-7.95,64.54,64.54,0,0,1-2.53-7.962,130.5,130.5,0,0,1-2.827-15.475c-.642-5.078-1.041-9.864-1.6-14.527-.534-4.66-1.115-9.159-1.78-13.464a139.357,139.357,0,0,0-5.314-23.2,54.861,54.861,0,0,1,5.944,10.1,98.283,98.283,0,0,1,4.82,12.781,109.657,109.657,0,0,1,4.5,21.66c.275,4.421.663,8.74,1.259,12.952a83.864,83.864,0,0,0,2.535,12.18,40.966,40.966,0,0,0,2.069,5.552,19.448,19.448,0,0,0,2.946,4.7,9.716,9.716,0,0,0,1.887,1.71,6.966,6.966,0,0,0,2.153,1.04,8.1,8.1,0,0,0,4.8-.173c3.185-1.026,5.715-3.861,7.544-6.956a43.247,43.247,0,0,0,4.168-10.067,88.118,88.118,0,0,0,3.1-20.924q.079-2.565.006-5.077c-.038-1.666-.188-3.316-.318-5-.264-3.34-.588-6.609-1-9.806a128.055,128.055,0,0,0-3.57-18.237,79.522,79.522,0,0,0-6.245-15.941,58.107,58.107,0,0,0-9.166-12.837l-1.325-1.35c-.23-.232-.454-.484-.7-.713l-.767-.666-1.581-1.4c-.542-.471-1.148-.848-1.731-1.294a17.28,17.28,0,0,0-7.869-3.387,11.891,11.891,0,0,0-7.352,1.539A14.682,14.682,0,0,0,212.163,376.309Z" /></g><path class="cls-2" d="M222.268,367.328a39.1,39.1,0,0,0-21.559,28.3c-.568,3.315-.606,7.022,1.44,9.69,2.287,2.983,6.6,3.751,10.263,2.9s6.857-3,10.033-5.014c8.443-5.343,18.112-10.069,28.015-8.746,2.12.284,4.43.809,6.281-.263,1.912-1.109,2.61-3.659,2.137-5.818a12.709,12.709,0,0,0-3.365-5.623,43.212,43.212,0,0,0-42.425-12.248" transform="matrix(-1, 0, 0, 1, 380, 0)" /><path d="M213.076,370.461a4.492,4.492,0,0,1,1.39-.647c.386-.136.843-.289,1.365-.45l1.766-.394a38.368,38.368,0,0,1,9.861-.666,45.343,45.343,0,0,1,11.255,2.154,57.048,57.048,0,0,1,8.683,3.735,40.659,40.659,0,0,1,10.491,8.113,11.909,11.909,0,0,1,3.42,7.109,8.157,8.157,0,0,1-1.015,4.48,6.7,6.7,0,0,1-1.672,1.952,6.807,6.807,0,0,1-2.316,1.172,11.265,11.265,0,0,1-4.268.22l-1.7-.2c-.517-.057-1-.078-1.505-.121a26,26,0,0,0-6,.4,40.8,40.8,0,0,0-11.442,4.119c-1.583.8-3.135,1.705-4.675,2.627s-3.028,1.9-4.63,2.914c-3.178,1.983-6.846,4.173-11.433,4.507a13.988,13.988,0,0,1-6.661-1.146,10.919,10.919,0,0,1-3-2,10.15,10.15,0,0,1-2.151-2.936,13.571,13.571,0,0,1-1.23-6.37,25.99,25.99,0,0,1,.845-5.582,39.235,39.235,0,0,1,9.562-17.539,37.434,37.434,0,0,1,13.885-9.349,74.093,74.093,0,0,0-5.734,5.461,50.379,50.379,0,0,0-5.369,6.9,52.2,52.2,0,0,0-3.8,7.019c-.939,2.175-1.659,4.032-2.171,5.315-.293.635-.512,1.291-.743,1.944-.249.65-.431,1.314-.613,1.979a18.97,18.97,0,0,0-.754,3.886c-.219,2.52.335,4.762,1.969,6.13a8.715,8.715,0,0,0,6.583,1.654,19.589,19.589,0,0,0,7.028-2.633c2.247-1.277,4.484-2.742,6.762-4.017,2.271-1.29,4.563-2.481,6.9-3.513a38.886,38.886,0,0,1,14.43-3.638,27.932,27.932,0,0,1,3.641.122c1.218.094,2.328.318,3.347.361a4.772,4.772,0,0,0,2.573-.433,3.077,3.077,0,0,0,1.393-1.765,5.66,5.66,0,0,0-.887-4.916,16.158,16.158,0,0,0-1.773-2.26c-.676-.726-1.409-1.4-2.1-2.1A44.525,44.525,0,0,0,233.334,371.7a56.625,56.625,0,0,0-11.606-1.766A49.743,49.743,0,0,0,213.076,370.461Z" transform="matrix(-1, 0, 0, 1, 380, 0)" /></svg>