<svg xmlns="http://www.w3.org/2000/svg" id="new" viewBox="0 0 380 600"><defs transform="matrix(-1, 0, 0, 1, 380, 0)"><style>.cls-1{fill:#ffffff;}.cls-2{fill:#ffce00;}.cls-3{fill:#be0039;}.cls-4{fill:#6d001a;}.cls-5{fill:#42160b;}.cls-6{fill:#6d482f;}.cls-7{fill:#ffd635;}.cls-8{fill:#3a200e;}.cls-9{fill:#511313;}</style></defs><g id="default" transform="matrix(-1, 0, 0, 1, 380, 0)"><path class="cls-1 color-body" d="M160.41,391.44c-7.58,9.52-14.23,22.32-22.21,41.3-8.86,21.06-18.83,37.36-29.71,32.7C94.87,459.61,99,428.82,104,414.35c6-17.58,19.42-51,47.78-60,10.88-3.44,14.23,11.57,14.23,11.57" style="fill:#ffffff;--backup-fill:#ffffff" /><path d="M166,365.94c-.44-.39-1.22-3-3.31-6.14a11.88,11.88,0,0,0-4.52-4.17,7.33,7.33,0,0,0-3.27-.64,9,9,0,0,0-1.76.24l-.89.26-.95.35A49.18,49.18,0,0,0,137,364a57.36,57.36,0,0,0-9.41,9.67c-7.36,9.66-13.09,21.5-17.59,33.91-.57,1.56-1.11,3.12-1.64,4.69s-1.07,3.18-1.52,4.67a91,91,0,0,0-2.21,9.4,85.68,85.68,0,0,0-1.43,18.77,44.3,44.3,0,0,0,1,7.62,18.39,18.39,0,0,0,2.6,6.28,7.48,7.48,0,0,0,4.29,3.11,5,5,0,0,0,2.32,0,8.35,8.35,0,0,0,2.52-1.07,22.12,22.12,0,0,0,5-4.61,57.9,57.9,0,0,0,4.35-6.08,135.52,135.52,0,0,0,7.19-13.29c1.09-2.26,2.1-4.48,3.14-6.75s2.08-4.49,3.13-6.67c2.11-4.37,4.27-8.56,6.49-12.52a107.9,107.9,0,0,1,14.29-20.4c-1.43,3.13-3.13,6.87-4.82,10.91s-3.38,8.38-5,12.61c-3.2,8.46-6.1,16.46-8.13,20.5-4.17,8.26-8.37,16.25-13.84,23.36a43.7,43.7,0,0,1-4.53,5,21.48,21.48,0,0,1-5.74,4,13.34,13.34,0,0,1-3.54,1,11.6,11.6,0,0,1-3.72-.14,13,13,0,0,1-6.19-3.36,16.85,16.85,0,0,1-3.67-5.53,29,29,0,0,1-1.78-6,56.61,56.61,0,0,1-.83-11.81,103.66,103.66,0,0,1,3.1-22c.44-1.75.92-3.48,1.48-5.18s1.11-3.31,1.68-4.94q1.72-4.87,3.64-9.53a131.88,131.88,0,0,1,8.7-17.44,83.69,83.69,0,0,1,11.07-14.67,64.55,64.55,0,0,1,6.52-5.92,56.56,56.56,0,0,1,7.13-4.7,43.08,43.08,0,0,1,8.36-3.51l1.19-.34a12,12,0,0,1,1.25-.32,11.77,11.77,0,0,1,2.73-.27,9.47,9.47,0,0,1,5.1,1.66,12.14,12.14,0,0,1,3.25,3.46,18.73,18.73,0,0,1,1.75,3.55A23.3,23.3,0,0,1,166,365.94Z" /><path class="cls-2" d="M120.78,378.18c-3.74,3.3-7.55,7.73-8.62,12.69a91.27,91.27,0,0,0,20.93,13.84c-.74,2-.51,5.82-3.26,6.1a6.67,6.67,0,0,1-3.3-.79c-5.53-2.46-10.45-6.1-15.18-9.89a2.07,2.07,0,0,0-1.56-.65c-.59.1-1,.67-1.26,1.2-2.94,5.25-6.64,9.23-1.45,13,1.22.9,15.79,7.42,16.07,6.69l-3,7.86a3.45,3.45,0,0,1-1,1.68,3.26,3.26,0,0,1-2.69.17c-6-1.53-9.92-5.17-12.84-10.56-1.52,2.76-3.06,5.6-3.45,8.73-.93,7.65,7.48,12.17,13.62,14,4.84,1.48,17.81,3.27,21.74-1.12a5.84,5.84,0,0,0,1.06-2.3c4.3-14.44,11.29-27.3,17.75-40.81a59.89,59.89,0,0,1-21.41-9.71C131.57,387.46,119.91,379,120.78,378.18Z" /><path d="M120.8,378.2c-.1.22.61.87,1.61,1.71s2.45,2,4.19,3.27c3.5,2.55,8,6.13,13.42,8.92a57.66,57.66,0,0,0,8.56,3.65c.74.25,1.48.49,2.23.7.37.1.74.22,1.12.31l1.47.38,1.55.37.39.1c0,.08-.09.22-.13.33l-.33.68c-.42.89-.83,1.78-1.25,2.65-2.58,5.42-4.93,10.32-6.51,13.86-2.61,5.87-5.22,12-7.36,18.35-.53,1.59-1,3.2-1.52,4.82a25.3,25.3,0,0,1-.85,2.64,6.56,6.56,0,0,1-.42.77,3.39,3.39,0,0,1-.59.69,6.64,6.64,0,0,1-1.25,1,13.84,13.84,0,0,1-5.51,1.87,31.49,31.49,0,0,1-5.47.27,46.11,46.11,0,0,1-5.38-.46,40.89,40.89,0,0,1-5.35-1.08,29.51,29.51,0,0,1-9.91-4.89,15.21,15.21,0,0,1-3.87-4.39,10.87,10.87,0,0,1-1.39-5.94,16.11,16.11,0,0,1,1.36-5.56c.18-.42.36-.84.55-1.24l.5-1,.57-1.09c.77-1.42,1.55-2.83,2.32-4.24l1.36,2.4c.46.81.92,1.61,1.4,2.32l.35.55a4.81,4.81,0,0,0,.29.43l.37.5c.24.34.5.61.75.93a16.87,16.87,0,0,0,5.09,4,17.66,17.66,0,0,0,3,1.19l.78.22a4.44,4.44,0,0,0,.61.11,1.28,1.28,0,0,0,.35,0h0c.2-.24,2.42-6.27,2.52-6.48h0l-.22-.08c-.73-.26-1.43-.54-2.12-.82-1.39-.55-2.75-1.13-4.09-1.72s-2.66-1.18-4-1.79l-2-.94-1-.5-.52-.28a4.68,4.68,0,0,1-.66-.41,9,9,0,0,1-2.73-3.09,6.47,6.47,0,0,1-.45-4.4,13.64,13.64,0,0,1,1.39-3.41c.54-1,1.1-1.89,1.64-2.78l.79-1.3.49-.84a4.41,4.41,0,0,1,.92-1.12,3,3,0,0,1,2.57-.71,3.86,3.86,0,0,1,1.3.54,11.29,11.29,0,0,1,1,.74c1.56,1.27,3.12,2.5,4.68,3.65a56.54,56.54,0,0,0,9.59,5.87,7.14,7.14,0,0,0,2.13.74,1.89,1.89,0,0,0,.41,0,1.73,1.73,0,0,0,.27,0,.63.63,0,0,0,.36-.26A4.91,4.91,0,0,0,131,407c.09-.39.18-.78.26-1.18a2.44,2.44,0,0,1,.11-.32,3,3,0,0,0-.32-.19l-1.27-.68c-.9-.48-1.77-1-2.63-1.47q-2.57-1.5-4.91-3.08a90.13,90.13,0,0,1-8.56-6.54l-1-.84-1.29-1.16-.32-.29c-.08,0,0-.12,0-.19l.06-.23.23-.89c.07-.28.19-.62.26-.81s.13-.41.22-.61a20.83,20.83,0,0,1,2.38-4.31,35.24,35.24,0,0,1,6.19-6.49,40.16,40.16,0,0,0-5.4,7.32,19.06,19.06,0,0,0-1.86,4.68,7.5,7.5,0,0,0-.14.85c.23.2.52.38.75.56l2.13,1.54a102.39,102.39,0,0,0,9.13,5.82c1.54.86,3.07,1.68,4.57,2.43.75.38,1.49.75,2.22,1.09l3.58,1.69c-.18.59-.35,1.17-.52,1.75-.07.28-.16.57-.22.85l-.1.54a18,18,0,0,1-.37,1.83,7.29,7.29,0,0,1-.84,2,4.42,4.42,0,0,1-2.07,1.75,5.08,5.08,0,0,1-1.25.31,6.13,6.13,0,0,1-1,0,7.3,7.3,0,0,1-1.74-.36,17.67,17.67,0,0,1-2.33-1,58.27,58.27,0,0,1-8.23-5.14q-1.91-1.41-3.7-2.87L111.18,402l-.44-.37-.22-.18-.06-.06a.6.6,0,0,0-.24-.16c-.21-.08-.38.1-.49.27-.37.61-.74,1.21-1.12,1.81-.78,1.25-1.56,2.45-2.14,3.63a5.07,5.07,0,0,0-.67,3.29,4.72,4.72,0,0,0,2,2.61,7,7,0,0,0,.83.49l1,.51,2,1q2,1,4,1.86c1.33.59,2.63,1.16,3.92,1.68q1,.4,1.89.75l.7.23.09,0s0,.13,0,.19L122,420c-.09.2,0,.15,0,.17l.12.05a5,5,0,0,0,.93.25s.05,0,.05,0c.22.32.44.63.62.91l-1.94,4.95-.83,2.14a11,11,0,0,1-.48,1.11,3.3,3.3,0,0,1-.93,1.1,3.05,3.05,0,0,1-1.68.53,5.86,5.86,0,0,1-1.5-.19,23.66,23.66,0,0,1-2.55-.81,19.24,19.24,0,0,1-4.6-2.54,20,20,0,0,1-3.64-3.54c-.27-.32-.5-.65-.74-1l-.18-.24-.1-.15-.2-.3c-.27-.4-.51-.82-.74-1.23l0-.07,0,.07-.08.13-.14.27-.29.53-.27.53-.3.62a19.35,19.35,0,0,0-1.31,3.48,9.85,9.85,0,0,0-.31,3.52,8.17,8.17,0,0,0,.34,1.69,8.59,8.59,0,0,0,.71,1.58,14.37,14.37,0,0,0,5,4.87,29.4,29.4,0,0,0,6.41,2.93,38.16,38.16,0,0,0,6.78,1.41,41.67,41.67,0,0,0,6.76.31,16.87,16.87,0,0,0,6.22-1.27c.23-.1.42-.25.63-.36a2.45,2.45,0,0,0,.57-.41l.49-.46a2.62,2.62,0,0,0,.33-.49c.36-.76.63-1.94,1-3a170.62,170.62,0,0,1,9.39-23.33c1.71-3.61,3.44-7.1,5.13-10.51l2-4.14.08-.16c0-.06.09-.13,0-.13l-.31-.08-.63-.17-.57-.16-.67-.21c-.45-.14-.89-.27-1.33-.42a55.42,55.42,0,0,1-9-3.91,60.77,60.77,0,0,1-8.83-5.88c-2.67-2.11-5.11-4.12-7-5.82-1-.84-1.78-1.61-2.43-2.28a12.19,12.19,0,0,1-.82-.92C120.91,378.69,120.67,378.38,120.8,378.2Z" /><path class="cls-3" d="M126.58,386.6c.35.23.33.68.13,1.13s-.57.88-.74,1.24c-.54,1.35-2.4,2.08-4.19,1.57a3.74,3.74,0,0,1-2.76-3.11,2.56,2.56,0,0,1,1.51-2.84,6,6,0,0,0,2.44,1.06c.6.11.94-.06.68,0a1,1,0,0,0-.78,1.19.56.56,0,0,0,.74.36,1.57,1.57,0,0,0,.71-.48.92.92,0,0,1,.63-.34,3.09,3.09,0,0,1,.77.12A8.36,8.36,0,0,0,126.58,386.6Z" /><path class="cls-3" d="M126.23,411.94a.83.83,0,0,1,0,1,9.71,9.71,0,0,0-.59,1.06,3.78,3.78,0,0,1-5.78,1.32A2.82,2.82,0,0,1,119,413c.88-.58,1.62-1.07,2.09-1.45s.69-.56.66-.35a1.53,1.53,0,0,0,.54,1.49,1,1,0,0,0,1,0c.64-.32.84-1,1.42-1A8.1,8.1,0,0,1,126.23,411.94Z" /><path class="cls-3" d="M104.38,435.51c.13-.58,1.35-.51,1.73-.94a12.1,12.1,0,0,0,1.47-1.49,3.31,3.31,0,0,1,.68-.84,3,3,0,0,0,.9-1.2,2.18,2.18,0,0,1,2.13.29c.54.42.72,1,.55,1.25a10.85,10.85,0,0,1-1.89,2,16,16,0,0,1-1.57,1.16,3.91,3.91,0,0,1-2.87.86C105.08,436.51,104.47,435.7,104.38,435.51Z" /><path class="cls-4" d="M126,387.71c-.32-.07-.45-.35-.65-.59a1.07,1.07,0,0,0-.69-.48,8.34,8.34,0,0,0-1.83.05,5.22,5.22,0,0,1-1.6,0,6.83,6.83,0,0,1-2-.55c-.22-1.71.32-3.16.8-3a22.12,22.12,0,0,0,4.19,1,4.55,4.55,0,0,1,1.63.68,2.15,2.15,0,0,1,.95,1.34,1.28,1.28,0,0,1-.22,1A1.65,1.65,0,0,1,126,387.71Z" /><path class="cls-4" d="M124,390.5c.33.56-.58,1.07-.87,1.53a2.72,2.72,0,0,1-2.83,1.14,2.89,2.89,0,0,1-1.55-.74A2.78,2.78,0,0,1,118,391a2,2,0,0,1,1-2.28,4.19,4.19,0,0,0,1.81.65c.44,0,.64-.09.51,0-.55.24-.64.71-.52.94a.55.55,0,0,0,.67.23c.55-.15.89-.64,1.39-.59A5.84,5.84,0,0,1,124,390.5Z" /><path class="cls-4" d="M122.11,415.23c0-.47.83-.56,1.06-.91a6.73,6.73,0,0,1,1.21-1.23,1.6,1.6,0,0,1,.72-.48c.12,0,.25,0,.41-.07a1.16,1.16,0,0,0,.48-.35,1.6,1.6,0,0,1,1.53.61c.3.45.28.93.09,1a9.84,9.84,0,0,1-1.71.78,9.3,9.3,0,0,0-1.1.56,3,3,0,0,1-1.81.72C122.71,415.91,122.19,415.36,122.11,415.23Z" /><path class="cls-4" d="M118.52,415.1c-.56.2-.77-.54-1.11-.81a2.2,2.2,0,0,1-.79-1.84,2,2,0,0,1,.69-1.53,1.85,1.85,0,0,1,1.72-.38c.63,1.46,1.6,2,1.32,2a1.11,1.11,0,0,0-1.11.15.68.68,0,0,0-.19.65c.08.45.43.73.24,1.05A9.25,9.25,0,0,1,118.52,415.1Z" /><path class="cls-4" d="M109.14,431.32c.22.4-.57.95-.73,1.37a4.64,4.64,0,0,1-1.3,1.77,4,4,0,0,1-.7.54,4.46,4.46,0,0,1-.87.41,2.63,2.63,0,0,1-1.23.09,1.16,1.16,0,0,1-.87-.67,2.12,2.12,0,0,0,.6-1.27c0-.33-.05-.5,0-.43a1,1,0,0,0,.72.13,2.91,2.91,0,0,0,.69-.17,3.12,3.12,0,0,0,1-.64c.56-.51.94-1.09,1.51-1.27A2.37,2.37,0,0,1,109.14,431.32Z" /><path class="cls-4" d="M108.41,436.46c-.07-.44.54-.61.63-1a4,4,0,0,1,.65-1.22c.35-.55,1-.73,1.89-.86,1,.7,1.39,1.71,1.08,1.77a3.35,3.35,0,0,0-2.11.93c-.42.41-.8.89-1.31.88C109,437,108.49,436.58,108.41,436.46Z" /><path class="cls-3" d="M129.21,432.64a27.35,27.35,0,0,0-1.88,6.68" /><path class="cls-3" d="M127.29,439.32c-.81-.18-.61-1.2-1-1.7a3.68,3.68,0,0,1-.64-2.58,2.94,2.94,0,0,1,2.86-2.69c1.85,1.21,3.06,2.34,2.62,2.42-1.77.33-2.17,1.17-2.19,1.94s.29,1.5-.16,2C128.66,438.94,127.55,439.25,127.29,439.32Z" /><path class="cls-5" d="M131.21,435.39c.27-.06.48.19.61.54s.17.76.27,1a2.78,2.78,0,0,1-.93,2.93,2.92,2.92,0,0,1-2.55.75,2.16,2.16,0,0,1-1.67-1.36,9.35,9.35,0,0,0,1.11-1.47c.21-.36.28-.56.34-.43a1,1,0,0,0,1,.71.83.83,0,0,0,.72-.48c.28-.55.08-1,.32-1.4C130.48,436.06,131.09,435.56,131.21,435.39Z" /><path class="cls-5" d="M131.48,433.7c-.35.42-1.63-.3-2.27-.21-1,.15-2.57-.17-2.19.1v0c0,.05,0,0,0,0-.11.18-.27.47-.41.71-.29.52-.59,1.11-.89,1.75a2.78,2.78,0,0,1-1.91-.78c-.45-.44-.61-1-.45-1.2a20,20,0,0,1,1.22-1.64,3.27,3.27,0,0,1,1.48-1.19,3.08,3.08,0,0,1,1.65,0l1.16.22a4.2,4.2,0,0,1,1.88.77A3,3,0,0,1,131.48,433.7Z" /></g><g data-name="default" id="default-2" transform="matrix(-1, 0, 0, 1, 380, 0)"><path class="cls-6" d="M239.64,463.37c-.82-7.14-2.46-16.13-4.76-22.34-13.64-36.84,9-78.79-30.64-91.82-29.14-9.57-59.41,5.74-75.67,54.17-5.89,17.56-7.77,42.31-3.48,60" /><path d="M125,463.39c-.41-.51-1.42-3.5-2.2-8.06a101.05,101.05,0,0,1-1.25-17.25,135.41,135.41,0,0,1,1.69-19.92,126.12,126.12,0,0,1,3.64-16,124.81,124.81,0,0,1,8.31-21.25A85.92,85.92,0,0,1,148.81,361,58.59,58.59,0,0,1,169,346.6a50.6,50.6,0,0,1,24.31-3.68,58,58,0,0,1,10.35,2,52.39,52.39,0,0,1,9.83,3.9,35.9,35.9,0,0,1,8.75,6.43,31.75,31.75,0,0,1,6.25,8.89c3.08,6.5,4.08,13.3,4.51,19.66s.29,12.53.23,18.43-.08,11.59.24,17.06a92.11,92.11,0,0,0,2.17,15.59c.14.61.29,1.23.43,1.83s.35,1.2.52,1.79l1.09,3.68a75.53,75.53,0,0,1,1.62,7.38,118.51,118.51,0,0,1,1.5,13.7c-1.27-3.74-2.72-8.31-4.47-13.09-.88-2.39-1.84-4.83-2.92-7.17-.55-1.11-1.14-2.42-1.7-3.69s-1-2.59-1.53-3.88a78.46,78.46,0,0,1-4.27-26.33c.28-10.76,1.22-21,.11-30.55a38.06,38.06,0,0,0-3.8-13.34,27.37,27.37,0,0,0-8.9-9.79A43.05,43.05,0,0,0,201.17,350a50.4,50.4,0,0,0-12.84-1.91,45,45,0,0,0-23.58,6.43,60.85,60.85,0,0,0-17.07,15.67,84.41,84.41,0,0,0-6.16,9.29c-1,1.56-1.76,3.19-2.62,4.78s-1.63,3.2-2.33,4.83c-.37.81-.73,1.62-1.09,2.42s-.68,1.62-1,2.43c-.69,1.6-1.28,3.24-1.89,4.84s-1.14,3.23-1.71,4.82-1,3.17-1.47,4.76a135,135,0,0,0-3.79,18.8c-.39,2.91-.75,6.38-1.08,10s-.5,7.42-.5,11A102.18,102.18,0,0,0,125,463.39Z" /><path class="cls-1 color-body" d="M234.88,441c-13.64-36.84,9-78.79-30.64-91.82-29.14-9.57-59.41,5.74-75.67,54.17-5.89,17.56-7.77,42.31-3.48,60h0s6,10.25,50.16,13c42.25,2.63,64.39-13,64.39-13h0C238.82,456.23,237.18,447.24,234.88,441Z" style="fill:#ffffff;--backup-fill:#ffffff" /></g><g data-name="default" id="default-3" transform="matrix(-1, 0, 0, 1, 380, 0)"><path class="cls-1 color-body" d="M259,439.57c-1.14-18.56-3.92-46-22.5-62.52-15.91-14.11-22.11-3.87-24.33-.71s-5.63,16-1.42,26.09,7.75,25.3,10.38,45.72c2.91,22.66,8.17,41,19.89,39.46C255.75,485.62,260,454.84,259,439.57Z" style="fill:#ffffff;--backup-fill:#ffffff" /><path class="cls-1 color-body" d="M210.79,402.43c4.77,11.19,7.75,25.3,10.38,45.72,2.91,22.66,8.17,41,19.89,39.46,14.69-2,18.92-32.77,18-48-1.14-18.56-3.92-46-22.5-62.52-15.91-14.11-24.32-.71-24.32-.71" style="fill:#ffffff;--backup-fill:#ffffff" /><path d="M212.16,376.31a4.94,4.94,0,0,1,1.13-2,12.7,12.7,0,0,1,3.82-3.15,12.86,12.86,0,0,1,6.86-1.53,19.83,19.83,0,0,1,7.88,2.5,31.52,31.52,0,0,1,3.62,2.4l1.72,1.34c.57.45,1.07,1,1.61,1.46a35.24,35.24,0,0,1,3.06,3.05l1.41,1.58.7.78.63.83a69.55,69.55,0,0,1,7.46,11.87c5.77,11.25,8.54,24.7,9.84,38,.17,1.67.32,3.34.45,5s.25,3.47.28,5.17a99.71,99.71,0,0,1-.36,10.25,85.88,85.88,0,0,1-3.94,19.87,43.24,43.24,0,0,1-3.79,8.28,26.74,26.74,0,0,1-2.87,3.9,18.17,18.17,0,0,1-3.92,3.37,14.73,14.73,0,0,1-5.08,2.1,13.2,13.2,0,0,1-10.89-2.29,17.9,17.9,0,0,1-3.65-3.62,33.33,33.33,0,0,1-4.34-7.95,66.49,66.49,0,0,1-2.53-8,131.54,131.54,0,0,1-2.82-15.48c-.65-5.08-1-9.86-1.6-14.53s-1.12-9.16-1.78-13.46a138.87,138.87,0,0,0-5.32-23.2,55.42,55.42,0,0,1,5.95,10.1,97.72,97.72,0,0,1,4.82,12.78,110,110,0,0,1,4.5,21.66c.28,4.42.67,8.74,1.26,12.95a83.65,83.65,0,0,0,2.54,12.18,40.69,40.69,0,0,0,2.07,5.55,19.3,19.3,0,0,0,2.94,4.7,9.76,9.76,0,0,0,1.89,1.71,7,7,0,0,0,2.15,1,8.13,8.13,0,0,0,4.8-.17c3.19-1,5.71-3.86,7.54-7a42.65,42.65,0,0,0,4.17-10.07,88,88,0,0,0,3.1-20.92c.06-1.71.06-3.4,0-5.08s-.19-3.31-.32-5q-.39-5-1-9.8a126.4,126.4,0,0,0-3.57-18.24,78.93,78.93,0,0,0-6.24-15.94,57.68,57.68,0,0,0-9.17-12.84l-1.32-1.35c-.23-.23-.46-.48-.7-.71l-.77-.67-1.58-1.4c-.54-.47-1.15-.85-1.73-1.3a17.21,17.21,0,0,0-7.87-3.38,11.86,11.86,0,0,0-7.35,1.54A14.85,14.85,0,0,0,212.16,376.31Z" /></g><path class="cls-7" d="M137.61,370.71c-17.19,25.1-16.16,58.11-14.32,60.38,5.74,7.09,12.45,10.11,32.32,4,9.93,2.85,23.22,11.09,34.39,11.38,13.46.87,24-3.52,34.63-11.29.19-4.34-.75-9.71-1.44-14-25.78-6.38-26.14-52.82,3.95-51.18-1-12.16-16.54-5.5-22.66-.29-8.11,7.21-11.79,20.75-20.78,27.42-30,16.1-57-15.21-25.77-41.39C149.56,357.78,142.55,363.56,137.61,370.71Z" transform="matrix(-1, 0, 0, 1, 380, 0)" /><path d="M137.59,370.7a29.27,29.27,0,0,1,4.19-5.59,36.37,36.37,0,0,1,5-4.52c.25-.19.51-.39.78-.58l1-.64c.65-.45,1.36-.82,2.08-1.25a31.46,31.46,0,0,1,4.44-2c.54-.12,1.11-.21,1.67-.3l.84-.12.43-.05H158l0,0-.08.07-.14.15-1.4,1.44a4.23,4.23,0,0,0-.62.85l-.58.91-1,1a12.67,12.67,0,0,0-.87,1c-.57.64-1.13,1.29-1.7,1.95l-.44.49c-.13.16-.2.27-.3.41l-.56.79c-.36.54-.77,1.05-1.11,1.61a32.79,32.79,0,0,0-3.37,7.1,23,23,0,0,0-1.05,7.75,19.53,19.53,0,0,0,1.78,7.41,20.54,20.54,0,0,0,9.93,9.74,25.32,25.32,0,0,0,11.17,2.23,33.24,33.24,0,0,0,7.69-1.23,38.9,38.9,0,0,0,7.34-3l.36-.18.31-.27.76-.63a18.29,18.29,0,0,0,1.43-1.36,30.71,30.71,0,0,0,2.6-3.05,74.85,74.85,0,0,0,4.51-6.92c2.88-4.79,5.54-10,9.83-14.35a17,17,0,0,1,1.71-1.56c.6-.47,1.21-.93,1.84-1.34a33.71,33.71,0,0,1,3.89-2.27,26,26,0,0,1,8.77-2.78,11.13,11.13,0,0,1,5,.54,7.37,7.37,0,0,1,4,3.65l.29.61c.09.22.12.35.26.74a11.69,11.69,0,0,1,.41,1.91c.11.63.18,1.28.27,1.92.38.91-.58.6-1.12.68l-1.81,0-.91,0-.45,0h-.22l-.12,0-2,.2a18.58,18.58,0,0,0-7.34,2.73,17.87,17.87,0,0,0-5.39,5.59,26.22,26.22,0,0,0-3.47,15.32,29,29,0,0,0,4.93,14.76,21.63,21.63,0,0,0,10.19,8.18,5.54,5.54,0,0,0,.78.27l1.1.33,1.71.52s.08,0,.1,0l0,.11,0,.22.07.45.15.88.63,4a67.91,67.91,0,0,1,.77,7.36l0,.95v.48c0,.24,0,.57,0,.86l0,.89v.23c0,.07,0,.15-.08.18l-.36.26-1.32.95c-1,.72-2,1.39-3,2.07a69.13,69.13,0,0,1-6.36,3.68,49.63,49.63,0,0,1-13.94,4.64,46.9,46.9,0,0,1-7.27.66h-1.82l-1.78-.07c-.58,0-1.19-.06-1.81-.11s-1.22-.07-1.83-.18a58.36,58.36,0,0,1-13.64-4c-4.28-1.72-8.38-3.62-12.45-5.29-1-.4-2-.82-3-1.17-.5-.18-1-.37-1.51-.52l-.71-.23s-.06,0-.09,0l-2.93.84-3.24.81A44.8,44.8,0,0,1,136.05,440a19.45,19.45,0,0,1-6.65-1.75,18.77,18.77,0,0,1-5.44-4c-.37-.4-.76-.8-1.09-1.22l-.52-.62a2.3,2.3,0,0,1-.32-.42c-.11-.19-.23-.39-.32-.58a6.53,6.53,0,0,1-.3-1c-.07-.3-.12-.57-.16-.85-.09-.56-.14-1.08-.19-1.61a56.45,56.45,0,0,1-.15-6.21A95.35,95.35,0,0,1,122,409.8c2.32-15.4,7.75-29.07,15.17-39.41a91.71,91.71,0,0,0-8.1,18.4,109.91,109.91,0,0,0-4.56,22.67,96.5,96.5,0,0,0-.45,11.28,47.84,47.84,0,0,0,.37,5.22c0,.41.11.8.19,1.17a5.59,5.59,0,0,0,.23.86l.46.52c.27.3.52.61.79.87a15.16,15.16,0,0,0,6.71,4.28,20.87,20.87,0,0,0,6.34.72,51.66,51.66,0,0,0,11.08-1.62c.92-.21,1.83-.44,2.74-.7l1.37-.38,1.09-.3c.21-.12.42,0,.62.07l.61.19c1.92.6,3.7,1.33,5.49,2.06,7.06,3,13.68,6.37,20.61,8.3a36.4,36.4,0,0,0,5.2,1.08c1.73.16,3.53.29,5.31.31a45.53,45.53,0,0,0,10.44-1.08,54.59,54.59,0,0,0,18.66-8.64l1-.71c.17-.15.49-.23.41-.51v-1l0-1.25c-.08-1.68-.26-3.36-.48-5l-.35-2.5-.37-2.35-.06-.37c0-.05,0-.16-.06-.16l-.18-.05-.88-.28a17.81,17.81,0,0,1-2.42-.94,23.9,23.9,0,0,1-8.18-6.14,29.26,29.26,0,0,1-5.1-8.62,33.24,33.24,0,0,1-1.38-19.27,25.29,25.29,0,0,1,3.86-8.77,20,20,0,0,1,7.14-6.23,22.45,22.45,0,0,1,9-2.35h1.81l0-.32a3.19,3.19,0,0,0-.12-.63,3.38,3.38,0,0,0-.18-.62,7.25,7.25,0,0,0-.4-.9,5.34,5.34,0,0,0-1.19-1.43A6,6,0,0,0,220.6,364a14,14,0,0,0-4,.46,29.21,29.21,0,0,0-7.65,3.26c-4.92,2.65-8,7.24-10.91,11.87s-5.39,9.5-8.88,13.74l-1.36,1.54c-.46.5-1,1-1.46,1.45s-1,.88-1.57,1.33c-.14.1-.26.22-.48.37l-.51.25-.9.45a38.33,38.33,0,0,1-7.47,2.82,34.64,34.64,0,0,1-7.82,1.06,29.92,29.92,0,0,1-7.73-1,23.57,23.57,0,0,1-12.56-8.35,21.62,21.62,0,0,1-3.37-6.67,21.18,21.18,0,0,1-.83-7.27A25.8,25.8,0,0,1,145.9,369l.66-1.3c.26-.42.51-.84.78-1.26l.78-1.27L149,364l.91-1.22c.24-.3.42-.47.64-.73.42-.47.85-1,1.35-1.44.93-1,2-1.89,3.05-2.76l.19-.15.09-.08c.05,0,0,0-.05,0l-.35.08c-.23.05-.47.08-.69.15-.45.12-.88.23-1.24.36a22.38,22.38,0,0,0-5,2.53,37.85,37.85,0,0,0-4.95,3.92A45.38,45.38,0,0,0,137.59,370.7Z" transform="matrix(-1, 0, 0, 1, 380, 0)" /><path class="cls-3" d="M203.31,413.42a1.09,1.09,0,0,0-1.42-.33,4.68,4.68,0,0,0-1.41,1.12,5.51,5.51,0,0,0-1.67,2.52c-.2,1,.54,2,1.43,1.64" transform="matrix(-1, 0, 0, 1, 380, 0)" /><path class="cls-3" d="M200.26,418.41a.47.47,0,0,1-.19.55,1.15,1.15,0,0,1-1,.12,3.42,3.42,0,0,1-1.55-1.29,2.36,2.36,0,0,1-.55-1.34,3.68,3.68,0,0,1,.06-1.29,6.27,6.27,0,0,1,.86-2,4.39,4.39,0,0,1,.91-1.06,4.64,4.64,0,0,1,1.53-.88,2.24,2.24,0,0,1,3.09,1.34l-.26.69a4.29,4.29,0,0,0-.19.5,3.18,3.18,0,0,0-.17,1,2.08,2.08,0,0,0,.09.68.85.85,0,0,0-.81-.52,2.05,2.05,0,0,0-.92.23,1.93,1.93,0,0,0-1,1,1.51,1.51,0,0,0-.09.53c0,.15,0,.3.1.3s.08.07.08.09,0,0,0,0l-.18.14a.78.78,0,0,0-.16.2.63.63,0,0,0,0,.09.44.44,0,0,0,0,.15A.9.9,0,0,0,200.26,418.41Z" transform="matrix(-1, 0, 0, 1, 380, 0)" /><path class="cls-3" d="M166.23,414.2a3.16,3.16,0,0,1-1.22,3.14,6.57,6.57,0,0,1-3.3,1.22c-.67.09-1.64-.15-1.54-.82" transform="matrix(-1, 0, 0, 1, 380, 0)" /><path class="cls-3" d="M160.21,417.75c.2.05.36.14.48.09s0,0,.12-.08a.74.74,0,0,1,.12-.09c.17-.07.52-.16.58-.41a18,18,0,0,1,1.62-1.73c.14-.18.23-.29.32-.32a1.75,1.75,0,0,1,.45-.13,2.75,2.75,0,0,0,1.6-.7,3.05,3.05,0,0,1,2.66.94c.55.64.63,1.35.33,1.55a15.1,15.1,0,0,1-2.79,1.43c-.71.3-1.28.57-1.82.86a13.77,13.77,0,0,1-1.53.72,2.35,2.35,0,0,1-.85.18,1.85,1.85,0,0,1-1-.25,1.54,1.54,0,0,1-.78-1.16.93.93,0,0,1,.16-.69A.62.62,0,0,1,160.21,417.75Z" transform="matrix(-1, 0, 0, 1, 380, 0)" /><path class="cls-3" d="M145.18,407.61v5.74" transform="matrix(-1, 0, 0, 1, 380, 0)" /><path class="cls-3" d="M145.14,413.35c-.83,0-.79-.88-1.27-1.21a3,3,0,0,1-1.23-1.81,1.62,1.62,0,0,1,.22-1.49,2.79,2.79,0,0,1,.63-.66,2.83,2.83,0,0,1,.44-.3l.24-.14.13-.06.06,0h.27l.2,0,.39.07.71.14c.44.1.82.21,1.13.31.6.21.89.41.7.51-3.09,1.67-.53,2.94-1.24,3.93C146.43,412.86,145.39,413.27,145.14,413.35Z" transform="matrix(-1, 0, 0, 1, 380, 0)" /><path class="cls-3" d="M132,422.07a2.17,2.17,0,0,1-1.21,1.76,6.29,6.29,0,0,1-2.15.58,2.53,2.53,0,0,1-2.27-.42" transform="matrix(-1, 0, 0, 1, 380, 0)" /><path class="cls-3" d="M126.42,424a3.1,3.1,0,0,1,.77-.38,1,1,0,0,0,.54-.42,2.47,2.47,0,0,1,.74-.92,8.85,8.85,0,0,0,.76-.53c.15-.13.24-.19.31-.18s.1.11.23.2a2.14,2.14,0,0,0,1.54.17,3.83,3.83,0,0,1,2.21,1.71c.36.67.26,1.28-.05,1.33a13.2,13.2,0,0,1-2.68.18,4.2,4.2,0,0,0-1.45.25c-.4.15-.73.36-1.16.49a1.64,1.64,0,0,1-1.37-.15,1.28,1.28,0,0,1-.52-.89A1.51,1.51,0,0,1,126.42,424Z" transform="matrix(-1, 0, 0, 1, 380, 0)" /><path class="cls-3" d="M198.76,386.89a2.28,2.28,0,0,0,.31,2.17,6.64,6.64,0,0,0,1.67,1.54" transform="matrix(-1, 0, 0, 1, 380, 0)" /><path class="cls-3" d="M200.72,390.63c-.44.54-1,.13-1.45.24a2.12,2.12,0,0,1-2.1-.78,2.17,2.17,0,0,1-.51-2.06,1.84,1.84,0,0,1,1.5-1.36,7.87,7.87,0,0,0,2,.87c.5.11.75.08.59.09a1.05,1.05,0,0,0-1,.6.44.44,0,0,0,.23.53c.37.23.9.15,1,.6A4.08,4.08,0,0,1,200.72,390.63Z" transform="matrix(-1, 0, 0, 1, 380, 0)" /><path class="cls-3" d="M135.38,384.07a.74.74,0,0,1,.87.7,1.55,1.55,0,0,1-.57,1.09,5.62,5.62,0,0,1-3.21,1.55" transform="matrix(-1, 0, 0, 1, 380, 0)" /><path class="cls-3" d="M132.46,387.37c0-.82.72-.94.81-1.5a6.55,6.55,0,0,1,.48-1.69c.05-.16.13-.28.12-.21a.73.73,0,0,0,.27.09c.3.07.67-.1.81,0l.61,0a9.81,9.81,0,0,1,1,.07,4.66,4.66,0,0,1,1.48.35c.74.33,1,.82.73,1a15.24,15.24,0,0,1-2.17,1.18,3.28,3.28,0,0,0-1.12.78c-.58.59-1.16,1.32-1.9,1.16C133.23,388.56,132.56,387.61,132.46,387.37Z" transform="matrix(-1, 0, 0, 1, 380, 0)" /><path class="cls-3" d="M163.62,430.28c.72-.94,2.27-.81,3.35-.26a18.1,18.1,0,0,0,3.16,1.75" transform="matrix(-1, 0, 0, 1, 380, 0)" /><path class="cls-3" d="M170.12,431.81a.83.83,0,0,1-.92.48,4.48,4.48,0,0,0-1.14,0,8.32,8.32,0,0,1-2.32,0c-.28.07-.45,0-.55-.34s-.46-.81-1.1-1.1a3.71,3.71,0,0,1-.68-2.73c.13-.75.66-1.19,1-1a16.61,16.61,0,0,1,2.23,1.53,6.37,6.37,0,0,0,1.41.78c.86.34,1.64.33,1.89.85A13.38,13.38,0,0,1,170.12,431.81Z" transform="matrix(-1, 0, 0, 1, 380, 0)" /><path class="cls-3" d="M131.74,408.15a27.1,27.1,0,0,0-1.88,6.68" transform="matrix(-1, 0, 0, 1, 380, 0)" /><path class="cls-3" d="M129.82,414.82c-.81-.17-.61-1.2-1-1.7a3.7,3.7,0,0,1-.64-2.58,2.93,2.93,0,0,1,2.86-2.68c1.85,1.21,3.06,2.33,2.62,2.41-1.77.34-2.16,1.18-2.19,1.94s.29,1.5-.16,2C131.19,414.45,130.08,414.76,129.82,414.82Z" transform="matrix(-1, 0, 0, 1, 380, 0)" /><path class="cls-3" d="M183.08,405a10.36,10.36,0,0,0,5.21-1.16" transform="matrix(-1, 0, 0, 1, 380, 0)" /><path class="cls-3" d="M188.31,403.85c.34.76-.43,1.09-.58,1.65a2.71,2.71,0,0,1-1.57,1.76c-1.13.62-2.53,0-3.12-1.53.44-2.17.76-3.73.91-3.35.69,1.52,1.47,1.52,1.93,1.21s.75-.9,1.26-.73C187.35,402.87,188.12,403.66,188.31,403.85Z" transform="matrix(-1, 0, 0, 1, 380, 0)" /><path class="cls-3" d="M179.6,423.69A9.57,9.57,0,0,1,183,427" transform="matrix(-1, 0, 0, 1, 380, 0)" /><path class="cls-3" d="M183,427c-.72.39-1.05-.15-1.58,0a3.1,3.1,0,0,1-1.73-.05c-.69-.15-.69-1-.45-2.54,1.25-1.82,2.65-2.76,2.62-2.31-.18,1.77.14,2.25.7,2.58s1.25.45,1.24,1.05C183.86,425.92,183.17,426.8,183,427Z" transform="matrix(-1, 0, 0, 1, 380, 0)" /><path class="cls-3" d="M145.49,429.59a9.56,9.56,0,0,1-5.89,3" transform="matrix(-1, 0, 0, 1, 380, 0)" /><path class="cls-3" d="M139.6,432.56c0-.82.86-.94,1-1.5a4.6,4.6,0,0,1,1.13-1.77c.61-.73,1.59-.64,3.17-.2,1.42,1.69,1.76,3.47,1.26,3.38-1.93-.43-2.7-.17-3.42.34s-1.33,1.17-2.06,1C140.37,433.76,139.7,432.8,139.6,432.56Z" transform="matrix(-1, 0, 0, 1, 380, 0)" /><path class="cls-5" d="M164.7,419.21c.13,0,.26.06.38.22a1,1,0,0,1,.18.78,1.24,1.24,0,0,1-.81.93c-.33.12-.61.17-.79.23a3.93,3.93,0,0,1-1.92.07,7.79,7.79,0,0,1-1.72-.54,3.14,3.14,0,0,1-.46-.25l-.29-.2a5.17,5.17,0,0,1-.59-.48,4.14,4.14,0,0,1-1-1.46,2.83,2.83,0,0,1-.11-1.81,2,2,0,0,1,.84-1.17,3.72,3.72,0,0,0,1.54,1.09c.42.13.62,0,.53.16-.39.44-.12,1.14.25,1.59a3.14,3.14,0,0,0,.31.32,1.45,1.45,0,0,0,.29.21,3.41,3.41,0,0,0,.73.33,5.92,5.92,0,0,0,1.38.26l.49,0a.13.13,0,0,1,.11,0h0a.58.58,0,0,0,.05.14,1,1,0,0,0,.08.14s0,0,0,0a.1.1,0,0,0,0,.07.31.31,0,0,0-.15-.08s.13,0,.22-.1A3.62,3.62,0,0,0,164.7,419.21Z" transform="matrix(-1, 0, 0, 1, 380, 0)" /><path class="cls-5" d="M167.22,418.44c0-.28.29-.48.47-.71s.06-.33-.1-.4a11.69,11.69,0,0,1-1.89-1.14,6.82,6.82,0,0,1-1.07-.77c-.3-.27-.59-.54-.62-.74a1,1,0,0,0-.28-.32.25.25,0,0,0-.22,0,2.84,2.84,0,0,1-.28-.84,1.6,1.6,0,0,1,.13-.89,1.7,1.7,0,0,1,1.15-.84.85.85,0,0,1,.72.13c.71.85,1,1.44,1.5,1.94a13.77,13.77,0,0,0,1.29,1.26,5.16,5.16,0,0,1,1.18,1.31,2.12,2.12,0,0,1,.26,1.05,1.51,1.51,0,0,1-.54,1.12,1.1,1.1,0,0,1-1,.21A1.77,1.77,0,0,1,167.22,418.44Z" transform="matrix(-1, 0, 0, 1, 380, 0)" /><path class="cls-5" d="M187.26,406.76c.26-.09.57.26.62.78a4.3,4.3,0,0,1-.22,1.43,2.32,2.32,0,0,1-1.39,1.61,3.75,3.75,0,0,1-2.15.24,3.49,3.49,0,0,1-2.6-1.9,3,3,0,0,1-.29-1.54,1.73,1.73,0,0,1,.62-1.2,2.87,2.87,0,0,0,1.71.64c.42,0,.61-.07.54.05a1.1,1.1,0,0,0,.19,1.36,1.19,1.19,0,0,0,1.08.32c.71-.19.71-.75,1-1,.06-.08.26-.15.46-.32A1.77,1.77,0,0,0,187.26,406.76Z" transform="matrix(-1, 0, 0, 1, 380, 0)" /><path class="cls-5" d="M200.79,418.79c.11.25-.14.56-.52.8s-.87.43-1.16.61a2.59,2.59,0,0,1-2,.32,3.56,3.56,0,0,1-2-1.22,3.61,3.61,0,0,1-.71-3.19,3.48,3.48,0,0,1,1.28-1.93c1.33.77,2.26,1.62,2,1.82a1.88,1.88,0,0,0-.76,1.43,1,1,0,0,0,.61.91c.68.28,1.28-.1,1.9,0A8.31,8.31,0,0,1,200.79,418.79Z" transform="matrix(-1, 0, 0, 1, 380, 0)" /><path class="cls-5" d="M202.75,413.84c-.24-.16-.25-.42-.32-.66a.84.84,0,0,0-.35-.59,2.88,2.88,0,0,0-1.26-.42,2.17,2.17,0,0,1-.86-.29l-1.36-.69a3,3,0,0,1,.08-1.92c.21-.49.55-.74.75-.64a28,28,0,0,1,3.28,1.95,2.46,2.46,0,0,1,1.18,2.45,1,1,0,0,1-.53.61A1.32,1.32,0,0,1,202.75,413.84Z" transform="matrix(-1, 0, 0, 1, 380, 0)" /><path class="cls-5" d="M200.55,390.74c.11,0,.23.05.3.22a.84.84,0,0,1-.06.65,3.24,3.24,0,0,1-.87.92,3.11,3.11,0,0,1-3.06.33,3.26,3.26,0,0,1-1.88-1.6,2.47,2.47,0,0,1-.13-2.06c1.32.1,2.27,0,2.19.21a1.42,1.42,0,0,0,.29,1.32,1.53,1.53,0,0,0,1,.5,2,2,0,0,0,.89-.09,2.07,2.07,0,0,1,.53-.18c.06,0,.21.07.4.05A.62.62,0,0,0,200.55,390.74Z" transform="matrix(-1, 0, 0, 1, 380, 0)" /><path class="cls-5" d="M200.86,389.06c-.43-.06-.53-.91-.93-1.08a5,5,0,0,0-1.33-.55c-.27,0-.22,0-.48-.15a1.38,1.38,0,0,0-1-.06,1.49,1.49,0,0,1-.89-1.39c0-.54.31-.94.55-.94a4.92,4.92,0,0,1,2.18.43,7.44,7.44,0,0,1,1.3.78,2.6,2.6,0,0,1,1.3,2C201.56,388.41,201,389,200.86,389.06Z" transform="matrix(-1, 0, 0, 1, 380, 0)" /><path class="cls-3" d="M214.63,427.84a4.68,4.68,0,0,0,1.52,4.83" transform="matrix(-1, 0, 0, 1, 380, 0)" /><path class="cls-3" d="M216.13,432.7c-.55.64-1.22,0-1.81-.06a2.63,2.63,0,0,1-2.14-1.6,2.25,2.25,0,0,1-.05-2.12,2.42,2.42,0,0,1,1.78-1.29c2,1,3.54,1.3,3.14,1.34a1.78,1.78,0,0,0-1.34.74.64.64,0,0,0,.1.75c.35.39.92.39.85.84C216.67,431.45,216.2,432.44,216.13,432.7Z" transform="matrix(-1, 0, 0, 1, 380, 0)" /><path class="cls-5" d="M212.9,431.58c-.07.26-.44.34-.86.25a8.48,8.48,0,0,1-1.16-.42,2.77,2.77,0,0,1-1.62-3.35,3,3,0,0,1,2.59-2.27,2.48,2.48,0,0,1,1.51.33,1.67,1.67,0,0,1,.76,1,3,3,0,0,0-1.2,1.34c-.13.39-.07.59-.12.47a.75.75,0,0,0-1-.41.6.6,0,0,0-.27.76,1.41,1.41,0,0,0,.49.65,1.9,1.9,0,0,1,.48.5,2.82,2.82,0,0,1,.18.56A5.32,5.32,0,0,0,212.9,431.58Z" transform="matrix(-1, 0, 0, 1, 380, 0)" /><path class="cls-5" d="M216.22,431.35c.56-.17.66.47.89.78a1.52,1.52,0,0,1-.16,1.93,1.71,1.71,0,0,1-1.77.57,1.59,1.59,0,0,1-1.23-1.37l.39-.65a1.24,1.24,0,0,0,.15-.4c0-.23,0-.36,0-.28a.73.73,0,0,0,.49.59.26.26,0,0,0,.34-.15c.07-.25-.21-.4,0-.53A6.66,6.66,0,0,0,216.22,431.35Z" transform="matrix(-1, 0, 0, 1, 380, 0)" /><path class="cls-5" d="M182.84,426.07c-.1-.27.11-.56.2-.93a1.19,1.19,0,0,0-.09-1,1.57,1.57,0,0,0-.79-.56,1.94,1.94,0,0,0-.75-.12c-.22,0-.42,0-.59.06a5,5,0,0,0-.68.16,7.75,7.75,0,0,0-1.74.86,2.55,2.55,0,0,1-1.11-1.79c-.09-.66.16-1.22.46-1.33a7.46,7.46,0,0,1,3.1-.47,5.71,5.71,0,0,1,2.32.66,3.18,3.18,0,0,1,1.49,1.72,2.41,2.41,0,0,1-.14,2,1.51,1.51,0,0,1-.88.68A1.46,1.46,0,0,1,182.84,426.07Z" transform="matrix(-1, 0, 0, 1, 380, 0)" /><path class="cls-5" d="M182.75,427.32c.23.53-.61.88-.91,1.24a2.57,2.57,0,0,1-2.29.89,2.46,2.46,0,0,1-2.13-1.49,1.69,1.69,0,0,1,.6-2.09,5.86,5.86,0,0,0,.9.24,2.41,2.41,0,0,0,.7,0c.39-.05.55-.18.44-.11-.43.3-.47.7-.3.9a.69.69,0,0,0,.71.2c.56-.1.9-.49,1.33-.39A5.7,5.7,0,0,1,182.75,427.32Z" transform="matrix(-1, 0, 0, 1, 380, 0)" /><path class="cls-5" d="M168,429.42c-.49.21-1.13-.65-1.66-.64-.88,0-1.52-.18-2.12-.19a4.51,4.51,0,0,1-.65-.06c-.17,0-.12-.09-.22-.16a.48.48,0,0,0-.39-.1.42.42,0,0,0-.33.25,2.83,2.83,0,0,1-.46-.16,2.24,2.24,0,0,1-.57-.31,1.78,1.78,0,0,1-.62-1c-.18-.7.14-1.31.45-1.37a3.79,3.79,0,0,1,1.64,0,6.41,6.41,0,0,1,1.06.33c.58.22,1.09.37,1.59.52a3.59,3.59,0,0,1,2.34,1.43C168.31,428.32,168.1,429.25,168,429.42Z" transform="matrix(-1, 0, 0, 1, 380, 0)" /><path class="cls-5" d="M169.81,431.46c.27.06.36.43.23.85a6,6,0,0,1-.57,1.08,2.94,2.94,0,0,1-3,1.37,3.22,3.22,0,0,1-2.2-1.08,3,3,0,0,1-.71-1.81c1.21-.91,2.34-1.35,2.35-1,.12,1.34,1,1.77,1.59,1.6a1.68,1.68,0,0,0,.72-.41,1.15,1.15,0,0,1,.49-.33,4.73,4.73,0,0,1,.52-.06A2.67,2.67,0,0,0,169.81,431.46Z" transform="matrix(-1, 0, 0, 1, 380, 0)" /><path class="cls-5" d="M145,432.45c-.09-.26.07-.49.14-.74a.86.86,0,0,0,0-.72c-.42-.62-.7-.89-1-1a3.83,3.83,0,0,1-.84-.6l-1.25-1.08a3.07,3.07,0,0,1,.75-1.79c.37-.4.8-.53,1-.37a14.46,14.46,0,0,1,2.71,3.11,2.57,2.57,0,0,1,0,3,1.15,1.15,0,0,1-.83.32A1.28,1.28,0,0,1,145,432.45Z" transform="matrix(-1, 0, 0, 1, 380, 0)" /><path class="cls-5" d="M141.16,434c.17.21,0,.57-.33.84a5.79,5.79,0,0,1-1.13.58,2.17,2.17,0,0,1-1.9,0,3.25,3.25,0,0,1-1.54-1.52,3,3,0,0,1,.43-3.33,2.2,2.2,0,0,1,2.22-.64,16,16,0,0,1,.44,1.83c.1.44.23.61.11.55a.62.62,0,0,0-1,.32.72.72,0,0,0,.28.81,1,1,0,0,0,.7.12,1.51,1.51,0,0,1,.6,0,4.06,4.06,0,0,1,.51.23A2.76,2.76,0,0,0,141.16,434Z" transform="matrix(-1, 0, 0, 1, 380, 0)" /><path class="cls-5" d="M132.22,424.16c.21.16.18.51,0,.85s-.48.68-.6,1a3.36,3.36,0,0,1-2.61,1.66,3.26,3.26,0,0,1-2.6-.7,2.79,2.79,0,0,1-.44-.47,3.1,3.1,0,0,1-.27-.35,3.39,3.39,0,0,1-.18-.39,1.92,1.92,0,0,1-.07-.91.94.94,0,0,1,.65-.8.76.76,0,0,0,.22.53.57.57,0,0,0,.42.12,1.49,1.49,0,0,0,.58-.26s0,0,0,0l-.08.09,0,0h0l.43-.61h0c.1,0,.14,0,.14,0a1.22,1.22,0,0,0,.66,1.16,1.4,1.4,0,0,0,1.1,0c.68-.27,1-.81,1.45-.94a1.74,1.74,0,0,1,.6,0Z" transform="matrix(-1, 0, 0, 1, 380, 0)" /><path class="cls-5" d="M130.91,422.39c-.26-.12-.4-.16-.5-.09a.66.66,0,0,0-.37.15c-.25.47-.78.59-1.1.75-.6.28-1.2,0-2.14-.61-.49-1.4-.21-2.62.11-2.44a3.19,3.19,0,0,0,2.42.63,5.42,5.42,0,0,1,1-.13,1.27,1.27,0,0,1,1,.51.89.89,0,0,1,.08.83A.64.64,0,0,1,130.91,422.39Z" transform="matrix(-1, 0, 0, 1, 380, 0)" /><path class="cls-5" d="M133.74,410.89c.27-.05.49.19.61.54s.17.77.27,1a2.8,2.8,0,0,1-.93,2.94,2.91,2.91,0,0,1-2.55.74,2.18,2.18,0,0,1-1.67-1.36,8.91,8.91,0,0,0,1.11-1.46c.21-.37.29-.57.34-.44a1,1,0,0,0,1,.71.83.83,0,0,0,.73-.48c.27-.54.07-1,.31-1.39C133,411.57,133.62,411.07,133.74,410.89Z" transform="matrix(-1, 0, 0, 1, 380, 0)" /><path class="cls-5" d="M134,409.21c-.34.41-1.62-.3-2.27-.21-1,.14-2.57-.18-2.19.09v0c0,.06,0,.05,0,0-.11.17-.27.46-.41.71-.29.52-.59,1.1-.88,1.75a2.83,2.83,0,0,1-1.92-.78c-.45-.45-.6-1-.45-1.21a17.92,17.92,0,0,1,1.23-1.64,3.26,3.26,0,0,1,1.47-1.19,3.19,3.19,0,0,1,1.65,0l1.16.23a4.19,4.19,0,0,1,1.88.76A2.89,2.89,0,0,1,134,409.21Z" transform="matrix(-1, 0, 0, 1, 380, 0)" /><path class="cls-5" d="M146.25,408.3c-.26.1-.51-.08-.8-.21a1.14,1.14,0,0,0-.82-.13c-.75.3-1.13.58-1.22.81-.13.4-.84.78-1.28,2a2.09,2.09,0,0,1-2-.25c-.5-.36-.69-.88-.55-1.11a8.23,8.23,0,0,1,1.7-2,5.34,5.34,0,0,1,1.68-1,2.81,2.81,0,0,1,3.11.43,1.25,1.25,0,0,1,.28.84A1.79,1.79,0,0,1,146.25,408.3Z" transform="matrix(-1, 0, 0, 1, 380, 0)" /><path class="cls-5" d="M147.07,408.17c.19-.2.49-.13.76.07s.5.5.72.66a2.43,2.43,0,0,1,.59,2.82,2.53,2.53,0,0,1-1.88,1.65,1.89,1.89,0,0,1-1.92-.65,5.89,5.89,0,0,0,.39-1.76c0-.41,0-.6,0-.5a.86.86,0,0,0,1,.38.57.57,0,0,0,.35-.58c0-.49-.44-.71-.37-1.06a2.82,2.82,0,0,1,.16-.48A3.42,3.42,0,0,0,147.07,408.17Z" transform="matrix(-1, 0, 0, 1, 380, 0)" /><path class="cls-5" d="M133.37,388.84c.15-.52.93-.44,1.17-.82a8.25,8.25,0,0,1,1.09-1.21c.5-.56,1.17-.61,2.34-.79,1.24.84,1.55,2.22,1.14,2.29a6.73,6.73,0,0,0-2.94.92c-.68.39-1.39.82-2,.59C133.8,389.76,133.4,389,133.37,388.84Z" transform="matrix(-1, 0, 0, 1, 380, 0)" /><path class="cls-5" d="M137.29,384.78c-.28,0-.42-.21-.6-.35a.75.75,0,0,0-.58-.21,4.45,4.45,0,0,0-1.22.44,2.57,2.57,0,0,1-1.1.24,5.39,5.39,0,0,1-1.66-.2c-.55-1.39-.45-2.67,0-2.6a13.66,13.66,0,0,0,3.41.18,3.73,3.73,0,0,1,1.38.28,1.61,1.61,0,0,1,.92.94,1,1,0,0,1-.09.8A1.3,1.3,0,0,1,137.29,384.78Z" transform="matrix(-1, 0, 0, 1, 380, 0)" /><path class="cls-5" d="M187.6,403.52c-.31.44-1,.1-1.33.33a5,5,0,0,1-1.5.6c-.71.23-1.35-.08-2.34-.69-.44-1.42,0-2.68.33-2.49a4.25,4.25,0,0,0,2.68.79c.71,0,1.45-.15,1.89.29C187.57,402.52,187.63,403.34,187.6,403.52Z" transform="matrix(-1, 0, 0, 1, 380, 0)" /><path class="cls-3" d="M194.09,433a5.19,5.19,0,0,0,3,3.14,2.66,2.66,0,0,0,3-.73" transform="matrix(-1, 0, 0, 1, 380, 0)" /><path class="cls-3" d="M200.06,435.42c.24.23.15.61-.14,1a10.51,10.51,0,0,1-1,.88,2.63,2.63,0,0,1-1.79.71,4.65,4.65,0,0,1-1.86-.4,3.43,3.43,0,0,1-1.92-2,2.86,2.86,0,0,1,.17-2.34c1.83-.17,3.15-.4,3-.1-.63,1.35.18,2.16.84,2.21a1.56,1.56,0,0,0,.84-.16,1,1,0,0,1,.59-.12,5,5,0,0,1,.6.21C199.64,435.34,200,435.39,200.06,435.42Z" transform="matrix(-1, 0, 0, 1, 380, 0)" /><path class="cls-8" d="M198.92,434c-.54.36-1.46-.58-2.08-.5a3.21,3.21,0,0,0-.59.09.9.9,0,0,0-.25.18.39.39,0,0,0-.12.32.08.08,0,0,0,0,.05c0,.08.06.07,0,.06s-.08.09-.14.19l-.21.32c-.3.47-.69.94-1.05,1.54a2.7,2.7,0,0,1-2.33-.44c-.56-.42-.78-.93-.61-1.17,1.06-1.39,1.89-2.68,3-3.26a3.37,3.37,0,0,1,2.6-.17,3.76,3.76,0,0,1,1,.46,2.21,2.21,0,0,1,.65.64C199.12,432.63,199,433.75,198.92,434Z" transform="matrix(-1, 0, 0, 1, 380, 0)" /><path class="cls-8" d="M194.83,438.38a2.11,2.11,0,0,1,.42.06.79.79,0,0,0,.28,0,1.76,1.76,0,0,0,.68-.31,5.93,5.93,0,0,1,1-.77c.29-.19.47-.34.47-.45s0-.08,0,0,0,0,0,0l0,0h0l.64.34-.08-.05-.17-.07-.34-.09s.09,0,.15-.06a1.7,1.7,0,0,0,.43-.37,1.18,1.18,0,0,0,.23-.68,3.1,3.1,0,0,1,1.2-.64,2,2,0,0,1,1.18.07c.7.24,1.06.88.92,1.15a6.87,6.87,0,0,1-.86,1.5,4.31,4.31,0,0,1-1,1,7.8,7.8,0,0,1-1.81.93,12.55,12.55,0,0,1-1.49.47,2.2,2.2,0,0,1-1.5-.15,1.25,1.25,0,0,1-.67-1A.83.83,0,0,1,194.83,438.38Z" transform="matrix(-1, 0, 0, 1, 380, 0)" /><path class="cls-7" d="M216.91,419.14c2.7,11.49,1.73,22.74,3.09,34.21a11.47,11.47,0,0,0,.89,3.81,9.17,9.17,0,0,0,3.18,3.37c6.89,4.79,16.61,5.65,24.53,3.32,4.08-1.21,9.82-4.06,12-8,2.39-4.37,1.56-11.38.94-16.09-5.17,5.08-10.44,9-18.09,8.94.93,0-2.85-10.89-3.26-11.78.81,1.76,14.26-4.13,15.61-5.07,1.82-1.27,3.76-2.79,4.39-4.92.4-1.37-1.77-15-2.6-14.44a50.64,50.64,0,0,1-22.28,8.95,54,54,0,0,0-2.9-10,36.92,36.92,0,0,0,13.14-5c2.31-1.49,8.81-5.79,7.72-8.93s-2.79-7.85-5.33-10.1c-1.65-1.47-1.33-1-3.22.67a49.27,49.27,0,0,1-4.25,3.35A56,56,0,0,1,220,400.22c-1,.22-10.47,3.65-11,2.76,1.84,3.31,4.78,5.95,6,9.53C215.76,414.71,216.38,416.91,216.91,419.14Z" transform="matrix(-1, 0, 0, 1, 380, 0)" /><path d="M216.88,419.15a48.38,48.38,0,0,1-1.72-5,19.37,19.37,0,0,0-.75-2.22,14.78,14.78,0,0,0-1.27-2.31c-.52-.78-1.12-1.58-1.76-2.41-.32-.43-.66-.87-1-1.31s-.8-1.12-1.17-1.7c0-.22,0-.42,0-.63s-.09-.39-.12-.58c0,.07.11.09.2.09a4.53,4.53,0,0,0,1.31-.26l.09,0,0-.09.08-.19c0-.17.23-.14.37-.19.29-.06.64-.16.86-.22.93-.25,1.88-.55,2.83-.85l2.9-1,1.48-.49c.23-.08.54-.17.8-.23l.76-.17a55.69,55.69,0,0,0,11.68-4.2A51.29,51.29,0,0,0,242.2,389c.68-.56,1.34-1.13,2-1.69l.45-.42.61-.59a2,2,0,0,1,1.43-.72,2.78,2.78,0,0,1,1.42.69,13.53,13.53,0,0,1,1.05,1,14,14,0,0,1,1.4,1.73,36.9,36.9,0,0,1,3.7,7.84l.1.26c0,.09.06.25.09.37a2.85,2.85,0,0,1,.11.8,6.48,6.48,0,0,1-.07.77l-.19.69a8.28,8.28,0,0,1-1.29,2.2,21.15,21.15,0,0,1-3.35,3.22,44.17,44.17,0,0,1-3.73,2.65,32.86,32.86,0,0,1-4.12,2.26,39.55,39.55,0,0,1-4.44,1.71q-1.14.36-2.31.66l-.62.16.12.27.05.14.1.27c.29.82.58,1.65.84,2.52s.52,1.75.75,2.65l.3,1.21.25-.05.85-.17c.88-.19,1.77-.39,2.65-.63a48.25,48.25,0,0,0,5.26-1.73,48.82,48.82,0,0,0,5.1-2.34c.83-.44,1.65-.91,2.46-1.39.39-.25.8-.49,1.19-.75l.93-.61,1.15-.8,1.16-.25a3.11,3.11,0,0,1,.58-.11,1.94,1.94,0,0,1,.54.26,4.28,4.28,0,0,1,1.33,2.47l.21.8.15.63.2.89.35,1.77c.43,2.35.8,4.67,1,7.07a14.86,14.86,0,0,1,.1,2,3.88,3.88,0,0,1-.33,1.45,7.12,7.12,0,0,1-.5,1,11.52,11.52,0,0,1-2.73,3.06c-.49.4-1,.77-1.47,1.12a14.09,14.09,0,0,1-1.76,1c-1.07.52-2.12,1-3.18,1.45-1.79.77-3.59,1.5-5.45,2.15-.92.32-1.86.63-2.85.89l-.8.2h0v0s0,0,0,0l.44,1.28c.28.87.55,1.73.83,2.58s.52,1.73.76,2.62l.17.68.1.42v0h0l.11,0a8.67,8.67,0,0,0,1.14-.15,10.55,10.55,0,0,0,1.12-.22c.37-.08.73-.18,1.09-.29a19.28,19.28,0,0,0,4.13-1.82,28.13,28.13,0,0,0,3.73-2.62l.45-.36.24-.21.43-.38c.57-.53,1.11-1,1.71-1.56l3.48-3.37c.3,2.38.63,4.69.88,7.08l.09.87,0,.47.07.94c0,.62.06,1.25.08,1.88a24,24,0,0,1-.93,7.72,11.58,11.58,0,0,1-2,3.7,15.47,15.47,0,0,1-2.87,2.75,27.41,27.41,0,0,1-6.5,3.56,32.35,32.35,0,0,1-14,2.08,29.21,29.21,0,0,1-13-3.89,23.07,23.07,0,0,1-2.77-1.94,9.75,9.75,0,0,1-2.32-2.78,9.94,9.94,0,0,1-1-3.4c-.14-1.06-.2-2-.3-3.06-.32-4-.4-7.93-.47-11.68-.11-7.49-.37-14.44-1.66-20.69a59.21,59.21,0,0,1,1.77,6.4c.5,2.36.91,4.92,1.24,7.58.67,5.32,1,11.05,1.71,16.51.17,1.36.37,2.72.58,4a7,7,0,0,0,1,3.08c1.13,1.57,3.38,2.83,5.29,3.73a30.16,30.16,0,0,0,10.32,2.49,29,29,0,0,0,10.19-1,24.26,24.26,0,0,0,8.8-4.51,11,11,0,0,0,1.56-1.66,8.11,8.11,0,0,0,1.05-1.95,15.6,15.6,0,0,0,.92-4.58,34.81,34.81,0,0,0,0-4.79c0-.49-.07-1-.1-1.46l-.05-.54,0-.27,0-.14s0-.14,0-.07c-.27.24-.55.5-.85.75l-.51.43-1,.82a29.32,29.32,0,0,1-4.35,2.89,21.44,21.44,0,0,1-4.73,1.89,18.72,18.72,0,0,1-2.41.49c-.4.07-.79.1-1.2.14-.56.06-1.09.07-1.63.08-.18-.31-.37-.61-.52-.88,0,0,.06,0,.07-.07a5.84,5.84,0,0,0,0-.72l0-.19c-.09,0-.28,0-.41,0h-.44c0-.07,0-.15-.05-.23-.07-.36-.11-.5-.16-.74l-.16-.65c-.23-.87-.48-1.74-.73-2.59l-.79-2.48c-.14-.42-.27-.83-.41-1.24s-.38-1.1-.57-1.63a2,2,0,0,0,.42-1.21.22.22,0,0,0,.21.16,3.62,3.62,0,0,0,1.21-.21l.24-.37c0-.05.07-.14.14-.15l.22,0a6.73,6.73,0,0,0,.68-.15c.8-.19,1.59-.43,2.39-.69,1.58-.53,3.14-1.13,4.68-1.75s3.06-1.29,4.51-2a8.63,8.63,0,0,0,1-.54l1-.71A13.56,13.56,0,0,0,258.1,429a6.23,6.23,0,0,0,1.17-1.81,1.77,1.77,0,0,0,.15-.89c0-.37,0-.76-.07-1.15-.14-1.57-.37-3.15-.61-4.71s-.52-3.1-.85-4.61l-.21-.87c-.06-.23-.12-.46-.19-.68s-.08-.22-.13-.33-.15-.25-.25-.12l-.58.41-.85.56c-.42.28-.86.53-1.28.8-.86.51-1.73,1-2.61,1.46a49.7,49.7,0,0,1-5.38,2.44,52.62,52.62,0,0,1-5.5,1.79c-.92.24-1.85.45-2.77.65l-.7.13c-.27.06-.63.12-.95.17-.66.1-1.33.23-2,.31l-.35-1.93-.2-.88-.15-.64c-.21-.84-.44-1.67-.69-2.5s-.52-1.63-.8-2.42q-.3-.84-.6-1.65l-.66-1.75c1-.21,2.07-.42,3.08-.66l.56-.14.5-.14,1-.28a37.45,37.45,0,0,0,3.81-1.37,34.5,34.5,0,0,0,6.87-3.92,29,29,0,0,0,3-2.42,9.33,9.33,0,0,0,2.15-2.72,1.71,1.71,0,0,0,.16-1.17,2.56,2.56,0,0,0-.12-.4l-.17-.45-.32-.9c-.44-1.19-.91-2.35-1.43-3.46a19.87,19.87,0,0,0-1.78-3.1,9.51,9.51,0,0,0-1.06-1.23l-.13-.12-.07-.07-.16-.13a.65.65,0,0,0-.36-.18c-.14,0-.24.13-.34.21l-.38.38c-.48.44-.95.84-1.43,1.24-.95.8-1.94,1.57-2.94,2.29a54.87,54.87,0,0,1-12.7,6.68,49.25,49.25,0,0,1-5.05,1.6c-.9.24-1.81.45-2.72.64l-.69.14-.28.06-.31.08-1.29.38c-1.73.52-3.41,1-4.94,1.39l-1.13.27-.43.09-.37.07a5.42,5.42,0,0,1-1.44.09.33.33,0,0,1-.22-.1c.28.54.61,1.06.52,1q.36.58.75,1.14l.95,1.34c.62.87,1.19,1.71,1.67,2.53a14.9,14.9,0,0,1,1.17,2.38c.29.78.42,1.51.6,2.17C216.24,416.56,216.66,418.25,216.88,419.15Z" transform="matrix(-1, 0, 0, 1, 380, 0)" /><path class="cls-3" d="M223.63,407.12c-.21.93-1.39.67-2.2.83A2.37,2.37,0,0,1,219,407a3.62,3.62,0,0,1-.72-1.58,4.86,4.86,0,0,1,0-1.45,3.17,3.17,0,0,1,.4-1.41,3.07,3.07,0,0,1,.73-.84,4.11,4.11,0,0,1,2.32-.83c2.06,1.48,3.37,2.84,2.87,2.89a3.79,3.79,0,0,0-2.06.75c-.38.31-.4.62-.29.65s.57-.32.92.22A10.41,10.41,0,0,1,223.63,407.12Z" transform="matrix(-1, 0, 0, 1, 380, 0)" /><path class="cls-3" d="M250.05,423.33a1.91,1.91,0,0,1-.17,1.85,2.83,2.83,0,0,1-1.41,1.06,4.82,4.82,0,0,1-4.3-.44" transform="matrix(-1, 0, 0, 1, 380, 0)" /><path class="cls-3" d="M244.2,425.76c.52-.67,1.41-.21,1.85-.67.74-.76,1.1-1,1.39-1.35s.11-.12.47,0a1.72,1.72,0,0,0,1.45-.33,5.44,5.44,0,0,1,.8.09,4.79,4.79,0,0,1,.81.24,3.21,3.21,0,0,1,1.19.84c.58.66.62,1.4.31,1.56a9.65,9.65,0,0,1-3,1,12.92,12.92,0,0,0-1.82.47c-1.08.36-2.31.65-3.07,0a1.35,1.35,0,0,1-.4-.9A3.12,3.12,0,0,1,244.2,425.76Z" transform="matrix(-1, 0, 0, 1, 380, 0)" /><path class="cls-3" d="M223.54,423.26a1.49,1.49,0,0,0,.76,1.69,3.66,3.66,0,0,0,2.55.39" transform="matrix(-1, 0, 0, 1, 380, 0)" /><path class="cls-3" d="M226.85,425.38c.13.75-.69.82-1,1.2a2.19,2.19,0,0,1-2.41.48,2.4,2.4,0,0,1-1.65-1.92,1.8,1.8,0,0,1,1.15-2.1,4.82,4.82,0,0,0,1.25.53,3.32,3.32,0,0,0,.51.07h0a.67.67,0,0,0,.19-.05l.15-.08.07,0a.43.43,0,0,0-.12.11.57.57,0,0,0-.18.42.34.34,0,0,0,.41.32c.43,0,.74-.42,1-.11C226.32,424.29,226.72,425.18,226.85,425.38Z" transform="matrix(-1, 0, 0, 1, 380, 0)" /><path class="cls-3" d="M246.41,397.66c.16.94-.69,1-1.06,1.52a2.49,2.49,0,0,1-2.44.92,1.93,1.93,0,0,1-1.61-1.17,2.61,2.61,0,0,1,.17-2.26c2.13-1.33,3.34-2.63,3.09-2.26a2.15,2.15,0,0,0-.38,1.62.44.44,0,0,0,.54.34c.46-.08.75-.59,1-.2C245.83,396.26,246.26,397.4,246.41,397.66Z" transform="matrix(-1, 0, 0, 1, 380, 0)" /><path class="cls-3" d="M252.63,451.91a7.46,7.46,0,0,0,1.67,2.5A2.54,2.54,0,0,0,257,455" transform="matrix(-1, 0, 0, 1, 380, 0)" /><path class="cls-3" d="M257.05,455a.71.71,0,0,1-.35.94c-.35.24-.8.33-1.09.53a2.93,2.93,0,0,1-3.27-.3,2.4,2.4,0,0,1-1.18-1.91,3,3,0,0,1,.77-2c2.17-.67,3.8-.94,3.52-.64-1.08,1.34-.67,2.06-.21,2.14a1.29,1.29,0,0,0,.64-.07c.16-.06.23-.08.33.09s.14.33.32.6A4.53,4.53,0,0,0,257.05,455Z" transform="matrix(-1, 0, 0, 1, 380, 0)" /><path class="cls-3" d="M234.33,455.32a1.31,1.31,0,0,1-.32,1.51,2.61,2.61,0,0,1-1.41.56,9.51,9.51,0,0,1-3.68-.21" transform="matrix(-1, 0, 0, 1, 380, 0)" /><path class="cls-3" d="M228.93,457.15c.26-.74,1.16-.52,1.54-.95a4.75,4.75,0,0,1,1.73-1.2l.24-.12a.06.06,0,0,1,.05,0h0l.05.12v0h0c.06.15-.08-.19-.07-.16h0v0l0,0a.94.94,0,0,0,.14.12,1.29,1.29,0,0,0,1.12.11,4.67,4.67,0,0,1,.61.28,4,4,0,0,1,.7.43,3.05,3.05,0,0,1,.9,1c.36.7.25,1.33,0,1.38a9.13,9.13,0,0,1-2.66.08,3.93,3.93,0,0,0-1.45.09c-.83.21-1.68.58-2.31.14C229.24,458.49,229,457.4,228.93,457.15Z" transform="matrix(-1, 0, 0, 1, 380, 0)" /><path class="cls-9" d="M251.11,425.27a1.27,1.27,0,0,1-1-.36,1.32,1.32,0,0,0-.91-.39c-1.07.14-1.47.32-1.54.53s-.19.11-.64,0a6.7,6.7,0,0,0-2,0,4.32,4.32,0,0,1-1.86-2.3c-.23-.79,0-1.42.31-1.46a21.77,21.77,0,0,1,3.22-.08,14,14,0,0,1,2.27.22c1.36.24,2.7.89,3,2a1.44,1.44,0,0,1-.2,1.05A3,3,0,0,1,251.11,425.27Z" transform="matrix(-1, 0, 0, 1, 380, 0)" /><path class="cls-9" d="M248.54,427.91c.43.78-.32,1.14-.49,1.72a2.47,2.47,0,0,1-1.88,1.7,2.26,2.26,0,0,1-1.29,0,2.77,2.77,0,0,1-1.28-.79,2.49,2.49,0,0,1-.69-1.5,1.58,1.58,0,0,1,.51-1.34,4.58,4.58,0,0,0,1.58-.18l.16-.06.08,0h0l0,0a.92.92,0,0,0,.22-.25,1.64,1.64,0,0,0,.16-.29l.07-.16,0,.15a.75.75,0,0,0,.07.54.47.47,0,0,0,.64.08c.43-.25.56-.82,1-.6A14,14,0,0,1,248.54,427.91Z" transform="matrix(-1, 0, 0, 1, 380, 0)" /><path class="cls-5" d="M226.5,425.51c0-.19,0-.33,0-.45s.05.05.05,0a.41.41,0,0,0-.26,0,1.21,1.21,0,0,0-.28.07l-.06,0h0l-.38.37h0l-.06,0a3.3,3.3,0,0,1-.34.11,3.67,3.67,0,0,1-.52.08c-.29,0-.49-.11-.71-.43-.06-.08-.11-.18-.17-.28l0,0v0h0c0,.16.15-1.41.08-.74h0l0,.2v.06a3.14,3.14,0,0,0-.17-.76.93.93,0,0,0-.18-.31c-.05,0-.07,0,0,0h0a.35.35,0,0,1-.12-.1,1,1,0,0,1-.11-.67,2.58,2.58,0,0,1,.43-1.12,1.62,1.62,0,0,1,.34-.35,1.43,1.43,0,0,1,.21-.12l.1-.08c.13-.1.23-.11.29,0,.82,1.55,1.32,1.91,2.06,2.19a3.92,3.92,0,0,1,1.08.51,1.51,1.51,0,0,1,.48,1.69,1,1,0,0,1-1,.66A.92.92,0,0,1,226.5,425.51Z" transform="matrix(-1, 0, 0, 1, 380, 0)" /><path class="cls-9" d="M224.52,426.3a.68.68,0,0,1-.2.87,6.46,6.46,0,0,0-.76.67,2.67,2.67,0,0,1-2.76.83,2.84,2.84,0,0,1-2.2-2.11,2.38,2.38,0,0,1,.19-1.65,1.49,1.49,0,0,1,1.09-.81,3.81,3.81,0,0,0,1.12.77,1.25,1.25,0,0,0,.27.1l.18,0h0a.56.56,0,0,0,.23-.05,1.18,1.18,0,0,0,.19-.1l.05,0h0l-.12.12a.5.5,0,0,0-.09.47.49.49,0,0,0,.59.31c.53-.08.83-.54,1.19-.32a3.29,3.29,0,0,1,.47.43A5.44,5.44,0,0,0,224.52,426.3Z" transform="matrix(-1, 0, 0, 1, 380, 0)" /><path class="cls-9" d="M252.46,453.12c.11.84-.67,1-.77,1.59a4,4,0,0,1-.35,1.11l-.21.37c-.11.13,0,.13,0,.19s0,0-.14,0-.32.06-.23.16h-.34a7.25,7.25,0,0,1-1.06,0,5.58,5.58,0,0,1-1.71-.51c-.9-.46-1.24-1-1-1.11a6.71,6.71,0,0,0,1.72-1c.34-.33.89-.64,1.15-.87.58-.52,1.09-1.24,1.79-1.07C251.62,452,252.34,452.89,252.46,453.12Z" transform="matrix(-1, 0, 0, 1, 380, 0)" /><path class="cls-9" d="M253.15,456.87a1.78,1.78,0,0,1,.94-.45,1.06,1.06,0,0,0,.73-.54c.18-.48.3-.85.4-1.15s.1-.29.07-.36a.05.05,0,0,0,0,0l.27.19a3.18,3.18,0,0,0,.59.29.89.89,0,0,0,.43.08l-.12.05a2.24,2.24,0,0,0-.3.14c-.12.07-.29.16-.52.32l-.41.29-.05,0h0s-.17-.29-.24-.45a3,3,0,0,1-.19-.52,19.64,19.64,0,0,1-.22-2.15,3.67,3.67,0,0,1,2.31-1.77c.8-.18,1.38,0,1.39.28.05.62.07,1.11.12,1.54s.26.85.39,1.53a2.77,2.77,0,0,1-.29,1.74,6.34,6.34,0,0,1-.69,1,6,6,0,0,1-1.54,1.41,2.41,2.41,0,0,1-1.95.31,1.52,1.52,0,0,1-.91-.83A2,2,0,0,1,253.15,456.87Z" transform="matrix(-1, 0, 0, 1, 380, 0)" /><path class="cls-9" d="M234.12,454.65a1.13,1.13,0,0,1-.82.36,1,1,0,0,0-.7.28,10.55,10.55,0,0,0-.87,1.24c0,.12-.1.18-.19.2a.7.7,0,0,1-.16,0h-.13l-.33-.26h0l.05,0,.06.05a2.11,2.11,0,0,0-.77-.25,1.07,1.07,0,0,0-.52,0,1.5,1.5,0,0,1-1.37.32,1.94,1.94,0,0,1-1.08-.8c-.49-.7-.46-1.37-.17-1.5A4.65,4.65,0,0,1,228,454l.64-.14c.4-.09.73-.16,1-.24a9.79,9.79,0,0,0,1.51-.54c.89-.38,2-.72,2.69-.09a1.18,1.18,0,0,1,.33.82A2.52,2.52,0,0,1,234.12,454.65Z" transform="matrix(-1, 0, 0, 1, 380, 0)" /><path class="cls-9" d="M235.1,457.15a.37.37,0,0,1,.44-.29,1,1,0,0,1,.64.45,2.41,2.41,0,0,1,.27,1.62,2.54,2.54,0,0,1-1.11,1.86,4.79,4.79,0,0,1-1.31.7,2.59,2.59,0,0,1-3.51-2.07c1.17-1.76,1.77-3.13,1.81-2.75.29,1.55,1.22,1.64,1.68,1.32a.62.62,0,0,0,.27-.26.19.19,0,0,0,0-.11s-.06-.1,0,0a.54.54,0,0,0,.12.11h0l.3.16,0,0a.89.89,0,0,0-.21,0,.66.66,0,0,0,.34-.14.59.59,0,0,0,.2-.26A.65.65,0,0,0,235.1,457.15Z" transform="matrix(-1, 0, 0, 1, 380, 0)" /><path class="cls-9" d="M244.7,400.84a.55.55,0,0,1,.38.5,1.23,1.23,0,0,1-.32.81c-.44.5-1,.72-1.3,1a3.35,3.35,0,0,1-.85.63,3,3,0,0,1-.87.33,3.23,3.23,0,0,1-1.3,0,4.2,4.2,0,0,1-1.57-.72,3.78,3.78,0,0,1-1.37-4.27,2.86,2.86,0,0,1,2.19-1.78c1.13.56,2.05,1.17,2.67,1.55s.93.51.71.53a3.47,3.47,0,0,0-1,.24.87.87,0,0,0-.44.43c-.09.31,0,.39.26.36a3.32,3.32,0,0,0,.45-.13,3.77,3.77,0,0,0,.51-.17c.28-.11.44-.18.56,0a1.91,1.91,0,0,0,.46.54A1.19,1.19,0,0,0,244.7,400.84Z" transform="matrix(-1, 0, 0, 1, 380, 0)" /><path class="cls-9" d="M245.63,399.75c-.86-.39-.44-1.45-.92-1.87-.81-.83-1.14-.81-1.34-.73s0,.07,0-.24a.84.84,0,0,0-.34-.81,5.78,5.78,0,0,1,0-.63,6.11,6.11,0,0,1,0-1.06,4.12,4.12,0,0,1,.56-1.64c.54-.85,1.26-1.11,1.46-.85a13,13,0,0,1,1.51,2.52c.31.69.56,1.25.79,1.84.46,1.18.68,2.38.07,3C247.24,399.63,245.93,399.75,245.63,399.75Z" transform="matrix(-1, 0, 0, 1, 380, 0)" /><path class="cls-9" d="M218.57,406.23c0,.46-.43.67-.91.66s-1-.21-1.37-.24a2.42,2.42,0,0,1-1.85-1.13,3.82,3.82,0,0,1-.56-2.5,3.38,3.38,0,0,1,2.5-3,2.49,2.49,0,0,1,2.86,1.15,6.64,6.64,0,0,0-.45,1.67,4.35,4.35,0,0,0,0,.71,2.83,2.83,0,0,0,0,.3l0,.18a1.13,1.13,0,0,0,.07.22.14.14,0,0,0,0,.05,1.27,1.27,0,0,0-.3-.31.77.77,0,0,0-.54-.19c-.28,0-.32.23-.19.36a.82.82,0,0,0,.49.2c.15,0,.2,0,.17.24a4.29,4.29,0,0,0-.09.73A3.87,3.87,0,0,0,218.57,406.23Z" transform="matrix(-1, 0, 0, 1, 380, 0)" /><path class="cls-9" d="M221.31,402.11c.11-.29.49-.35.91-.25s.85.31,1.17.39a3.38,3.38,0,0,1,1.82,4.84,3.81,3.81,0,0,1-.29.41l-.16.19-.26.23a2.44,2.44,0,0,1-1,.5,2.62,2.62,0,0,1-1.77-.14,1.53,1.53,0,0,1-1-1.39,1.36,1.36,0,0,0,1-.49.92.92,0,0,0,.13-.21l0-.12a2.16,2.16,0,0,0,.05-.27,1.31,1.31,0,0,0-.06-.61,1.24,1.24,0,0,0,.15.25,1.21,1.21,0,0,0,.18.23l.1.11.06.05h0c.06,0-.43-.35-.22-.19h0a.58.58,0,0,0,.48-.16.78.78,0,0,0,0-.91,1.93,1.93,0,0,0-.64-.66,1.71,1.71,0,0,1-.53-.54,2.4,2.4,0,0,1-.16-.63C221.42,402.5,221.34,402.22,221.31,402.11Z" transform="matrix(-1, 0, 0, 1, 380, 0)" /><path class="cls-3" d="M234,436a5.52,5.52,0,0,0,1.21,4.88" transform="matrix(-1, 0, 0, 1, 380, 0)" /><path class="cls-3" d="M235.2,440.87c-.56.51-1.13-.21-1.65-.33a2.6,2.6,0,0,1-1.78-1.65,2.22,2.22,0,0,1,1.59-3.08c1.84.79,3.2,1.16,2.84,1.24-1.41.43-1.43,1.21-1.14,1.61s.83.56.74,1A13.58,13.58,0,0,1,235.2,440.87Z" transform="matrix(-1, 0, 0, 1, 380, 0)" /><path class="cls-9" d="M232.64,439.74c-.09.36-.5.47-.94.35s-.83-.41-1.16-.51a3,3,0,0,1-1.78-3.17,3.13,3.13,0,0,1,2.38-2.84,2.56,2.56,0,0,1,1.94.28,1.57,1.57,0,0,1,.79,1.34,3,3,0,0,0-1.07.86,3.47,3.47,0,0,0-.2.33s0,0,0,0a.69.69,0,0,0,.05.34,1.33,1.33,0,0,0,.11.24l0,0-.05,0a.42.42,0,0,0-.13-.11.5.5,0,0,0-.49-.06.47.47,0,0,0-.19.65,1.29,1.29,0,0,0,.47.53c.16.13.26.21.26.42s-.07.32-.09.61A2.34,2.34,0,0,0,232.64,439.74Z" transform="matrix(-1, 0, 0, 1, 380, 0)" /><path class="cls-9" d="M235.29,439.5c.74-.17.81.41,1.19.67A1.52,1.52,0,0,1,237,442a1.11,1.11,0,0,1-1.14.86,2.65,2.65,0,0,1-1.73-1.19l-.95-1.25a3.38,3.38,0,0,0-.24-.28,1.8,1.8,0,0,0,1,.55c.24,0,.33-.07.31-.18s-.44-.36-.12-.49C234.2,440,235.1,439.64,235.29,439.5Z" transform="matrix(-1, 0, 0, 1, 380, 0)" /></svg>