<svg xmlns="http://www.w3.org/2000/svg" id="Art" viewBox="0 0 380 600"><defs transform="matrix(-1, 0, 0, 1, 380, 0)"><style>.cls-1{fill:#ff3881;}.cls-2{fill:#ffffff;}.cls-3{fill:#fff8b8;}</style></defs><path class="cls-1" d="M226.273,370.613c13.007-1.132,26.584-2.052,39.5-.526,4.436,14.153-13.667,26.794-30.483,26.919" transform="matrix(-1, 0, 0, 1, 380, 0)" /><path d="M235.288,396.945c.347-.655,3.6-.926,7.181-1.978a30.661,30.661,0,0,0,9.291-4.136,33.786,33.786,0,0,0,8.6-8.659,15.078,15.078,0,0,0,2.14-5.123,10.97,10.97,0,0,0,.186-2.538,3.892,3.892,0,0,0-.042-.62l-.02-.153c0-.026,0-.007-.007-.013s-.006,0-.012,0a.165.165,0,0,0-.067-.043c-.032-.018-.081.017-.1.035l-.013.013s0,0-.012.006l-.015,0-.147-.01-1.385-.1q-2.771-.175-5.508-.3l-10.666-.4c-6.881-.234-13.206-.515-18.322-1.176a28.281,28.281,0,0,1,8.382-4.664c3.087-1.14,6.073-1.741,7.666-1.51,6.408.9,12.367,1.528,17.949,2.227l2.076.262,1.238.148,1.376.208,1.354.2c.207.052.485.021.632.139l.166.667c.243.88.411,1.76.572,2.631a9.469,9.469,0,0,1,.15,1.328,8.081,8.081,0,0,1,.038,1.065,15.752,15.752,0,0,1-.124,2.1,17.756,17.756,0,0,1-.976,3.964,25.969,25.969,0,0,1-9.008,11.42,30.765,30.765,0,0,1-11.337,5.352,20.919,20.919,0,0,1-6.573.46A23.886,23.886,0,0,1,235.288,396.945Z" transform="matrix(-1, 0, 0, 1, 380, 0)" /><g id="default" transform="matrix(-1, 0, 0, 1, 380, 0)"><path class="cls-2 color-body" d="M160.412,391.443c-7.582,9.513-14.229,22.312-22.211,41.293-8.856,21.061-18.834,37.366-29.709,32.709-13.624-5.834-9.478-36.627-4.5-51.1,6.055-17.583,19.428-51.04,47.782-59.992,10.883-3.436,14.227,11.569,14.227,11.569" style="fill:#ffffff;--backup-fill:#ffffff" /><path d="M165.947,365.939c-.44-.388-1.22-2.975-3.311-6.14a11.794,11.794,0,0,0-4.514-4.164,7.363,7.363,0,0,0-3.27-.648,9.3,9.3,0,0,0-1.766.244l-.889.259-.948.349a49.192,49.192,0,0,0-14.275,8.128,57.522,57.522,0,0,0-9.412,9.669c-7.36,9.662-13.088,21.508-17.59,33.918-.567,1.551-1.111,3.116-1.646,4.685s-1.071,3.182-1.519,4.674a90.747,90.747,0,0,0-2.2,9.4,85.485,85.485,0,0,0-1.432,18.768,43.512,43.512,0,0,0,1.008,7.616,18.355,18.355,0,0,0,2.6,6.285,7.5,7.5,0,0,0,4.289,3.11,5.092,5.092,0,0,0,2.314.024,8.1,8.1,0,0,0,2.521-1.071,21.852,21.852,0,0,0,5.02-4.608,57.042,57.042,0,0,0,4.348-6.074,136.894,136.894,0,0,0,7.2-13.3c1.09-2.257,2.1-4.48,3.139-6.745s2.078-4.494,3.133-6.677c2.11-4.365,4.264-8.554,6.487-12.514a107.486,107.486,0,0,1,14.292-20.4c-1.433,3.123-3.134,6.869-4.826,10.906s-3.376,8.382-4.98,12.609c-3.2,8.461-6.094,16.462-8.124,20.507-4.173,8.251-8.377,16.247-13.84,23.355a43.511,43.511,0,0,1-4.532,5.019,21.321,21.321,0,0,1-5.745,3.963,13.429,13.429,0,0,1-3.535,1.017,11.7,11.7,0,0,1-3.722-.137,13.029,13.029,0,0,1-6.187-3.367,16.82,16.82,0,0,1-3.674-5.521,28.679,28.679,0,0,1-1.772-5.985,56.261,56.261,0,0,1-.838-11.806,103.886,103.886,0,0,1,3.1-22.037c.441-1.747.922-3.472,1.482-5.172.553-1.673,1.107-3.311,1.686-4.94q1.719-4.882,3.638-9.529a131.2,131.2,0,0,1,8.694-17.45A84.1,84.1,0,0,1,127.418,367.5a65.533,65.533,0,0,1,6.521-5.92,55.826,55.826,0,0,1,7.131-4.7,42.653,42.653,0,0,1,8.363-3.512l1.184-.341c.39-.115.789-.228,1.25-.317a11.946,11.946,0,0,1,2.732-.274,9.474,9.474,0,0,1,5.1,1.661,12.084,12.084,0,0,1,3.247,3.459,18.746,18.746,0,0,1,1.755,3.551A22.679,22.679,0,0,1,165.947,365.939Z" /></g><path class="cls-1" d="M158.015,353.132c-9-2.32-18.9-5.008-28.145-3.277-11.048,10.059.263,27.386,8.4,36" transform="matrix(-1, 0, 0, 1, 380, 0)" /><path d="M138.222,385.9c-.644.228-2.743-1.54-4.866-3.9s-4.24-5.291-5.53-6.908a27.627,27.627,0,0,1-5.417-10.5,20.119,20.119,0,0,1-.608-6.626,17.147,17.147,0,0,1,1.978-6.672,11.832,11.832,0,0,1,.781-1.3,10.943,10.943,0,0,1,.887-1.208l.5-.616.8-.818.819-.827c.138-.134.269-.282.413-.406l.57-.1,2.207-.362c.432-.078.86-.1,1.289-.149.859-.1,1.707-.128,2.549-.152a38.784,38.784,0,0,1,9.458,1.053,54.605,54.605,0,0,1,14.244,5.61,23.945,23.945,0,0,1-7.77,2.152c-2.64.316-4.946.314-6.07-.168a32.494,32.494,0,0,0-6.753-2.142q-.839-.174-1.666-.27c-.554-.079-1.1-.134-1.649-.159a16.152,16.152,0,0,0-1.626-.046l-.8.01c-.248,0-.59.047-.684.038l-.465.018-.122.007-.09.073-.181.148c-.122.1-.244.195-.368.315l-.478.516a11.569,11.569,0,0,0-.882,1.123,12.9,12.9,0,0,0-.694,1.215,11.252,11.252,0,0,0-1.1,5.269,23.322,23.322,0,0,0,2.887,9.768c1.484,2.91,3.142,5.5,4.593,8.018a42.442,42.442,0,0,1,2.275,4.5C137.378,384.005,138.028,385.41,138.222,385.9Z" transform="matrix(-1, 0, 0, 1, 380, 0)" /><path class="cls-3" d="M136.172,366.454c-2.64-5.822-1.558-13.6,4.274-16.8-25.435-5.141-13.2,26.893-2.18,36.194l5.805-9.618A28.011,28.011,0,0,1,136.172,366.454Z" style="" transform="matrix(-1, 0, 0, 1, 380, 0)" /><path d="M136.2,366.441c.307.146,1.09,1.674,2.545,3.51a30.272,30.272,0,0,0,2.6,2.894c.493.491,1.017.974,1.553,1.448l.966.833,1.145.956c-.8,1.407-1.577,2.775-2.28,4.011-.6,1.078-1.127,2.045-1.527,2.822l-.407.786-.206.4-.275.51c-.45.821-.923,1.667-1.42,2.5l-.377.632-.54-.456-1.107-.941-1.028-.95-.522-.485c-.206-.185-.25-.252-.383-.385a39.041,39.041,0,0,1-4.829-6.162,44.437,44.437,0,0,1-6.092-14.383,21.6,21.6,0,0,1-.356-7.575,10.559,10.559,0,0,1,4.016-7.058,12.567,12.567,0,0,1,7.353-2.087l.992,0c.488.006.973.111,1.449.164l2.815.389,2.7.493.657.121c.194.04.491.081.587.12l.784.236-2.963,1.828c-.24.153-.526.317-.723.458l-.6.424-1.176.833-.29.205-.211.208a3.678,3.678,0,0,0-.391.424l-.232.278-.175.2q-.307.44-.612.871a11.9,11.9,0,0,0-1.5,3.931,15.769,15.769,0,0,0,.549,7.772,11.1,11.1,0,0,1-2.283-3.926,13.345,13.345,0,0,1-.67-5.49,11.839,11.839,0,0,1,1.754-5.235l.182-.264.091-.129c.033-.048.007-.016.014-.028l-.015-.017a.063.063,0,0,0-.025-.01c-.01,0,0,0,.083-.021l.033-.009c.442-.119.325-.272.02-.408a.424.424,0,0,0-.168-.043l-.534-.032a7.8,7.8,0,0,0-1.109-.027l-1.086.067c-.357.036-.691.131-1.039.191a6.863,6.863,0,0,0-3.494,1.9,7.466,7.466,0,0,0-1.826,3.572,18.7,18.7,0,0,0,.288,8.251,37.578,37.578,0,0,0,2.652,7.536,46.318,46.318,0,0,0,3.74,6.508c.686.994,1.393,1.95,2.143,2.836a24.716,24.716,0,0,0,1.986,2.17c.235.228.415.362.613.531l.39-.686q.743-1.247,1.458-2.452l1.657-2.717.777-1.242.405-.609-.267-.261c-.252-.253-.527-.53-.819-.822-.394-.412-.8-.856-1.191-1.324a25.21,25.21,0,0,1-2.165-2.987A18.927,18.927,0,0,1,136.2,366.441Z" transform="matrix(-1, 0, 0, 1, 380, 0)" /><path class="cls-1" d="M121.529,388.365c-2.578-3.087-2.588-10.365.1-13.356L94.654,416.038c-1.928,2.145.379,4.609,3.007,4.379,1.791-.119,3.519-.962,5.306-.795-22.726,31.68,14.631,34.011,22.354,16.853,2.276,10.671,10.375,12.778,20.845,9.706a245.992,245.992,0,0,1,6.058-53.115c-9.231,4.779-21.832,5.112-30.695-4.7" transform="matrix(-1, 0, 0, 1, 380, 0)" /><path d="M121.574,388.324a3.942,3.942,0,0,1,1.041.641c.245.185.523.406.831.66s.694.49,1.085.778a23.45,23.45,0,0,0,16.382,4.617c.878-.111,1.767-.186,2.646-.387.44-.094.888-.15,1.321-.284l.656-.177c.31-.077.619-.162.925-.258.617-.2,1.243-.471,1.87-.706l.944-.367.964-.438,1.935-.89,1.865-.919.159.123c.044,0,.016.091,0,.166l-.047.227-.185.909-.37,1.818q-.363,1.839-.716,3.632l-.348,1.805c-.12.594-.229,1.256-.286,1.6q-.207,1.257-.4,2.457c-.485,3.2-.863,6.064-1.067,8.341-.923,9.613-1.474,19.787-1.446,30.089q-.015,2.947-.03,5.9l-.006.852c.06.188-.15.174-.277.223l-.42.117-1.684.47-1.692.468c-.276.081-.575.145-.873.21l-.815.18a23.45,23.45,0,0,1-9.074.354l-1.2-.242c-.4-.106-.8-.245-1.2-.371a15.8,15.8,0,0,1-2.346-1.007,14.389,14.389,0,0,1-3.985-3.266,7.7,7.7,0,0,1-.788-.993c-.323-.468-.262-.4-.3-.433s-.074-.1-.107-.15c-.058-.089-.093-.2-.127-.234a2.161,2.161,0,0,1-.176.36l-.043.067a1,1,0,0,1-.134.154c-.594.6-1.27,1.085-1.9,1.622a25.35,25.35,0,0,1-8.635,4.13,21.382,21.382,0,0,1-12.747-.323,14.033,14.033,0,0,1-5.96-4.09,12.9,12.9,0,0,1-2.915-6.758,18.274,18.274,0,0,1,.368-6.562,28.774,28.774,0,0,1,1.907-5.637,55.675,55.675,0,0,1,5.622-9.46l2.809,6.163a2.631,2.631,0,0,0-.7.04c-.183.028-.4.07-.644.123-.5.112-1.091.257-1.629.359a10.2,10.2,0,0,1-3.173.184,7.859,7.859,0,0,1-2.718-.86,6.55,6.55,0,0,1-3.374-4.222,5.651,5.651,0,0,1-.014-2.57,7.263,7.263,0,0,1,.415-1.285,7.906,7.906,0,0,1,.843-1.361,12.389,12.389,0,0,0,.907-1.315l.426-.663.162-.247.116-.17.928-1.352q.927-1.349,1.846-2.682l3.649-5.268,7.1-10.11c4.637-6.536,9.063-12.647,13.2-18.214l3.2,2.465a6.3,6.3,0,0,0-1.395,2.557,12.712,12.712,0,0,0-.525,3.142,9.646,9.646,0,0,0,1.187,5.575c-1.392-.891-2.543-3.027-3.054-5.419a13.422,13.422,0,0,1-.27-3.909A8.787,8.787,0,0,1,120.508,374l2.385,1.84c-5.319,11.343-12.29,23.8-16.082,28.826l-4.543,6.062q-1.113,1.5-2.2,2.965l-1.079,1.459-.267.362-.077.074-.161.157c-.186.225-.556.454-.578.833a.878.878,0,0,0,.543.817,2.04,2.04,0,0,0,1.1.073l.15-.018a2.281,2.281,0,0,0,.255-.041c.3-.057.627-.111.965-.157a9.32,9.32,0,0,1,2.28-.041l4.157.485-2.415,3.34c-.739,1.022-1.519,2.023-2.217,3.057-.659,1.049-1.394,2.069-1.947,3.15a25.373,25.373,0,0,0-2.725,6.545,11.146,11.146,0,0,0,.045,6.333,7.574,7.574,0,0,0,4.04,4.242,14.187,14.187,0,0,0,6.292,1.1,19.412,19.412,0,0,0,6.364-1.356,18.4,18.4,0,0,0,5.428-3.3l.679-.663c.267-.276.546-.568.8-.887q.734-1.118,1.464-2.228l1.408-2.462,1.2-2.323a67.181,67.181,0,0,0,2.721,8.378,7.893,7.893,0,0,0,.513.834l.346.518.806.916c.294.274.607.524.9.791.317.24.666.435.992.66,2.778,1.587,6.3,1.632,9.612,1.053.209-.032.417-.062.625-.114l.513-.115c.224-.056.475-.1.705-.176l.694-.2c.047-.025.135-.015.149-.069l0-.2,0-.39q-.008-.843-.014-1.677.015-1.327.029-2.644.094-5.265.386-10.335.611-10.135,2.013-19.467c.469-3.108.988-6.148,1.585-9.115l.222-1.11.119-.547.233-1,.257-1.03.137-.528.07-.269a.4.4,0,0,0,.014-.064l-.054.023-.11.048c-.277.112-.535.243-.816.332a10.48,10.48,0,0,1-1.928.537c-.087.009-.612.122-.968.192-.386.091-.79.125-1.192.181l-1.215.15c-.411.033-.826.045-1.242.066a24.434,24.434,0,0,1-9.79-1.517,23.3,23.3,0,0,1-7.192-4.365c-.433-.392-.807-.8-1.168-1.15a10.092,10.092,0,0,1-.941-1.02Z" transform="matrix(-1, 0, 0, 1, 380, 0)" /><path class="cls-3" d="M138.391,436.006c-2.909-3.75-2.038-9.084-1.025-13.72-4.534,7.458-14.556,10.78-22.87,13.071-13.93,2.595-6.294-17.341-.915-22.657-5.09,1.082-11.783-1.181-12.13-7-4.1,6.962-14.782,17.326,1.516,13.923-22.726,31.679,14.631,34.01,22.354,16.852,2.276,10.671,10.375,12.778,20.845,9.706q.015-3.159.115-6.316C143.256,439.537,140.237,438.387,138.391,436.006Z" style="" transform="matrix(-1, 0, 0, 1, 380, 0)" /><path d="M138.415,435.987a18.379,18.379,0,0,0,2.227,1.7,11.931,11.931,0,0,0,2.416,1.075,15,15,0,0,0,1.532.391c.609.121,1.377.223,2.14.3.048.671.01,1.494.019,2.239q0,.95,0,1.951c0,.76-.008,1.538-.012,2.33a3.682,3.682,0,0,1-.029.657l-.618.172-1.26.349c-.455.135-.786.2-1.15.28l-1.09.239c-.738.122-1.485.254-2.244.334a20.5,20.5,0,0,1-4.638-.014,13.537,13.537,0,0,1-4.478-1.377,11.64,11.64,0,0,1-3.528-2.885,16.54,16.54,0,0,1-1.253-1.77l-.477-.925-.216-.419a2.142,2.142,0,0,1-.105-.238c-.124-.333-.274-.636-.359-.937l-.128-.433-.061-.2-.029-.1c-.01-.031-.017-.087-.038-.023a11.27,11.27,0,0,1-.652,1.262l-.217.366c-.1.138-.094.14-.328.432a11.518,11.518,0,0,1-1.163,1.334,12.669,12.669,0,0,1-1.293,1.223,13.912,13.912,0,0,1-1.408,1.105,22.135,22.135,0,0,1-6.495,3.166,21.369,21.369,0,0,1-7.368.9,14.146,14.146,0,0,1-7.408-2.387,10.886,10.886,0,0,1-2.9-2.96,11.359,11.359,0,0,1-1.491-3.866,17.342,17.342,0,0,1,.532-7.8l.566-1.81c.219-.587.466-1.156.7-1.734.437-1.176,1.063-2.224,1.591-3.335.281-.544.607-1.054.908-1.581l.4-.68.025-.054a1.065,1.065,0,0,0,.1-.206l-.22.057-.046.01-.022,0c-.006,0,0,0,0,0,.031,0-.1.007-.148.01-.512.045-1.065.036-1.61.028l-.867-.083c-.3-.041-.624-.122-.932-.191a5.528,5.528,0,0,1-1.093-.461c-.19-.116-.377-.242-.556-.372a5.967,5.967,0,0,1-.472-.469,3.839,3.839,0,0,1-.873-2.451,6.335,6.335,0,0,1,.358-1.969,17.235,17.235,0,0,1,1.756-3.513c.645-1.041,1.316-2.018,1.981-2.976l.993-1.422.751-1.087c.287-.407.616-.922.934-1.409.639-.98,1.269-2.074,1.911-3.115l1.712-2.823.4,3.053.108.819c.035.281.071.549.109.758l.223,1.356.111.679a2.8,2.8,0,0,0,.133.616,4.162,4.162,0,0,0,.442.838,2.945,2.945,0,0,0,.426.561,6.592,6.592,0,0,0,2.344,1.645,4.817,4.817,0,0,0,.714.275,5.757,5.757,0,0,0,.745.218,6.99,6.99,0,0,0,.766.162l.389.06.194.031.449.009.939.013a4.619,4.619,0,0,0,1-.038l2.3-.348,4.6-.768-3.258,3.442-.836.884c-.265.289-.464.55-.7.826l-.679.816-.475.71-.471.707-.233.39c-.157.257-.31.518-.454.786-.3.528-.574,1.07-.84,1.614a29.062,29.062,0,0,0-2.356,6.72c-.473,2.209-.488,4.579.356,5.856a2.784,2.784,0,0,0,1.87,1.192,8.114,8.114,0,0,0,2.937.008l.173-.02a.354.354,0,0,0,.091-.019l.426-.112.849-.224,1.677-.459q1.663-.469,3.271-.983a53.294,53.294,0,0,0,6.133-2.362,30.327,30.327,0,0,0,5.347-3.126l.3-.219c.123-.1.306-.278.455-.412l.931-.856a15.127,15.127,0,0,0,1.955-2.309l.492-.635.244-.314.27-.377,1.065-1.484,1.009-1.407.8-1.147-.019.436-.007.209-.106.461q-.212.918-.418,1.821-.4,1.8-.79,3.552c-.247,1.144-.464,2.216-.605,3.186-.088.5-.108.95-.164,1.414-.01.12-.026.217-.031.354l-.012.224-.024.446a10.017,10.017,0,0,0,1.579,6.3,9.706,9.706,0,0,1-2.7-6.14c-.027-.317-.055-.635-.082-.957l-.046-.749q-.027-.708-.022-1.253l.014-.929,0-.348v-.075l-.107.178-.205.343a17.771,17.771,0,0,1-1.225,1.823c-.157.223-.367.439-.509.622a2.565,2.565,0,0,1-.282.257l-.372.319-.746.634a34.617,34.617,0,0,1-6.317,3.9,53.856,53.856,0,0,1-10.412,3.73c-.368.073-.57.168-1.191.258l-1.147.126a13.184,13.184,0,0,1-2.414-.069c-.41-.047-.841-.171-1.254-.262a9.254,9.254,0,0,1-1.247-.506,6.192,6.192,0,0,1-2.1-1.791,8.229,8.229,0,0,1-1.407-4.675,17.271,17.271,0,0,1,.49-4.268,33.476,33.476,0,0,1,2.828-7.519c.307-.581.617-1.157.949-1.72.16-.284.34-.558.509-.836l.129-.208.083-.124.152-.22c.2-.291.341-.462.538-.7.091-.114.195-.22.294-.334l.16-.162.082-.082c.029-.028.069-.063.013-.045a5.7,5.7,0,0,1-1.775.013,13.157,13.157,0,0,1-3.878-1.1,9.407,9.407,0,0,1-3.278-2.474c-.11-.135-.226-.264-.329-.4l-.243-.387a2.188,2.188,0,0,1-.239-.463,3.6,3.6,0,0,1-.287-1.01l-.029-.238-.015-.12c-.005-.042-.006-.1-.032-.037l-.243.384-.519.765-1.519,2.13a38.962,38.962,0,0,0-3.333,5.224,3.759,3.759,0,0,0-.524,2.383,1.154,1.154,0,0,0,.648.666,2.565,2.565,0,0,0,.565.173,3.683,3.683,0,0,0,.662.1,9.138,9.138,0,0,0,1.418.025l.377-.021c.183-.01.353-.023.532-.046l1.062-.142c1.431-.208,2.877-.5,4.263-.767,0,.026.032.032.009.075l-.1.147-.2.3-.4.59-.8,1.177c-.525.79-1.07,1.553-1.575,2.361q-.553.933-1.1,1.859c-.353.558-.626,1.152-.924,1.73A25.943,25.943,0,0,0,96.9,433.9a11.477,11.477,0,0,0,.538,6.944,8.523,8.523,0,0,0,4.862,4.335,15.043,15.043,0,0,0,6.625.835,20.675,20.675,0,0,0,6.4-1.617,19.084,19.084,0,0,0,5.354-3.429c.363-.371.758-.712,1.093-1.1l.492-.592c.051-.065.237-.27.364-.443a5.044,5.044,0,0,0,.369-.561l1.409-2.432q.63-1.21,1.255-2.412c.045.028.074.216.11.334l.1.4.206.8.411,1.584c.326,1.045.642,2.11.984,3.12l.442.9a4.934,4.934,0,0,0,.432.786,9.537,9.537,0,0,0,1.029,1.426,9.822,9.822,0,0,0,2.614,2.2,10.961,10.961,0,0,0,1.553.706l.806.286.84.191a22,22,0,0,0,8.456-.15c.426-.067.649-.119.928-.177l.841-.176c.1.006.049-.093.071-.142l.016-.182.031-.37c.022-.331.045-.659.067-.983.049-.744.1-1.468.143-2.164l.067-.835a5.329,5.329,0,0,0,.04-.771c-.44-.072-.873-.168-1.324-.285a14.427,14.427,0,0,1-1.487-.478,11.193,11.193,0,0,1-2.342-1.212A8.529,8.529,0,0,1,138.415,435.987Z" transform="matrix(-1, 0, 0, 1, 380, 0)" /><g data-name="default" id="default-2" transform="matrix(-1, 0, 0, 1, 380, 0)"><path class="cls-2 color-body" d="M239.64,463.371c-.822-7.144-2.461-16.135-4.759-22.342-13.642-36.838,9.04-78.792-30.636-91.823-29.145-9.571-59.413,5.745-75.671,54.174-5.9,17.562-7.776,42.306-3.484,59.991" style="fill:#ffffff;--backup-fill:#ffffff" /><path d="M125.031,463.385c-.41-.5-1.421-3.49-2.2-8.059a99.615,99.615,0,0,1-1.25-17.25,134.814,134.814,0,0,1,1.693-19.911,131.447,131.447,0,0,1,11.94-37.3A86.133,86.133,0,0,1,148.808,361a58.633,58.633,0,0,1,20.166-14.4,50.6,50.6,0,0,1,24.3-3.676,57.112,57.112,0,0,1,10.347,1.976,52.19,52.19,0,0,1,9.832,3.9,35.63,35.63,0,0,1,8.75,6.428,31.624,31.624,0,0,1,6.249,8.889c3.08,6.5,4.087,13.306,4.518,19.666.422,6.4.281,12.522.227,18.43-.07,5.9-.077,11.588.243,17.051a91.2,91.2,0,0,0,2.165,15.6q.219.921.435,1.833.26.9.517,1.787.549,1.857,1.085,3.675a74.043,74.043,0,0,1,1.621,7.379,119.041,119.041,0,0,1,1.5,13.7c-1.269-3.742-2.722-8.309-4.474-13.089-.876-2.387-1.833-4.827-2.918-7.167-.548-1.11-1.134-2.421-1.7-3.691-.6-1.268-1.024-2.59-1.531-3.886a78.5,78.5,0,0,1-4.271-26.328c.289-10.761,1.225-20.984.12-30.554a37.964,37.964,0,0,0-3.806-13.33,27.291,27.291,0,0,0-8.9-9.8,43.034,43.034,0,0,0-12.118-5.436,49.83,49.83,0,0,0-12.837-1.91,44.984,44.984,0,0,0-23.579,6.427,60.728,60.728,0,0,0-17.071,15.672,84.4,84.4,0,0,0-6.165,9.285c-.952,1.563-1.759,3.2-2.62,4.778-.783,1.627-1.623,3.2-2.327,4.836l-1.093,2.416q-.506,1.221-1.007,2.431c-.691,1.6-1.276,3.238-1.893,4.842s-1.138,3.231-1.708,4.822c-.521,1.6-1.037,3.168-1.47,4.762a134.581,134.581,0,0,0-3.788,18.792c-.389,2.918-.748,6.381-1.077,10-.268,3.625-.505,7.416-.506,10.973A101.817,101.817,0,0,0,125.031,463.385Z" /><path class="cls-2 color-body" d="M234.881,441.029c-13.642-36.838,9.04-78.792-30.636-91.823-29.144-9.571-59.413,5.745-75.671,54.174-5.9,17.562-7.776,42.306-3.484,59.991h0s6.034,10.253,50.162,13c42.248,2.629,64.388-13,64.388-13h0C238.818,456.227,237.179,447.236,234.881,441.029Z" style="fill:#ffffff;--backup-fill:#ffffff" /></g><path class="cls-1" d="M183.292,343.515c-22.393,5.443-26.05,20.646-4.617,31.626,3.814,8.766-1.34,18.458-4.907,26.823-10.514,20.3-13.344,43.641-22.684,64.172-8.6,12.7-14.958-10.292-24.044-11.59-1.631-.644-2.619-.664-2.766-2.412a185.58,185.58,0,0,1,1.5-43.6c4.51-28.066,20.574-47.41,40.234-61.575,6.792-4.932,17.2-8.487,24.173-2.19l-1.532-.132" transform="matrix(-1, 0, 0, 1, 380, 0)" /><path d="M188.658,344.575a6.223,6.223,0,0,1,1.557-.149l-.26.6a15.652,15.652,0,0,0-4-2.085,14.5,14.5,0,0,0-6.675-.517,24.719,24.719,0,0,0-8.034,2.68,30.574,30.574,0,0,0-4,2.467c-1.3.947-2.63,2.014-3.97,3.032a110.8,110.8,0,0,0-14.546,13.811,84.538,84.538,0,0,0-9.4,13.095,86.762,86.762,0,0,0-7.285,16.737c-.448,1.483-.848,2.988-1.281,4.485-.387,1.511-.691,3.05-1.047,4.577-.584,3.084-1.1,6.191-1.453,9.4a184.08,184.08,0,0,0-1.178,19.324q-.05,4.85.136,9.68c.068,1.608.148,3.211.251,4.809l.171,2.392.1,1.193.052.6.013.085a.209.209,0,0,0,.18.214l.071.016a.481.481,0,0,0,.1.033l.017,0h0s-.066-.026-.017-.013l.163.034a7.193,7.193,0,0,1,1.24.356,7.625,7.625,0,0,1,1.127.47,21.165,21.165,0,0,1,6.171,5c1.573,1.737,2.931,3.46,4.253,5.013.661.779,1.31,1.516,1.946,2.157a11.55,11.55,0,0,0,1.8,1.556,2.455,2.455,0,0,0,.9.419c.087-.02-.012.045.223-.088a4.439,4.439,0,0,0,1.011-.938,7.189,7.189,0,0,0,.611-.791c.044-.059.04-.05.04-.06l.192-.453c1.422-3.244,2.691-6.57,3.869-9.935,2.355-6.733,4.31-13.649,6.352-20.52s4.161-13.738,6.74-20.373c.65-1.656,1.34-3.3,2.032-4.925.757-1.608,1.428-3.237,2.251-4.8q.6-1.179,1.2-2.352l.149-.293.037-.073.019-.036-.028.057s.013-.023,0,0l.264-.586.529-1.17,2.049-4.518a46.069,46.069,0,0,0,3-8.627,16.642,16.642,0,0,0,.016-7.876c-.066-.159-.036-.425-.231-.487l-.13-.087a.943.943,0,0,0-.111-.068l-.267-.153c-.359-.2-.705-.429-1.055-.645-.7-.432-1.39-.878-2.061-1.361-.681-.456-1.334-.967-1.983-1.474s-1.264-1.07-1.887-1.6c-.592-.592-1.207-1.135-1.754-1.778a20.332,20.332,0,0,1-2.964-4.1,14.754,14.754,0,0,1-1.7-4.933,11.926,11.926,0,0,1,.421-5.235,15.223,15.223,0,0,1,5.662-7.5,28.233,28.233,0,0,1,7.381-3.865,47.335,47.335,0,0,1,7.387-1.98,69.037,69.037,0,0,0-6.5,3.333,29.56,29.56,0,0,0-6.39,4.894,11.457,11.457,0,0,0-3.493,6.746,9.085,9.085,0,0,0,2.341,6.528,23.819,23.819,0,0,0,5.856,4.9c1.086.683,2.206,1.3,3.316,1.867q.408.224.833.416l1.521.769.85.434c.125.086.319.113.387.247l.171.432q.34.869.676,1.721l.335.855c.1.26.12.392.183.593l.306,1.1a19.48,19.48,0,0,1,.405,2.159,21.772,21.772,0,0,1,.133,3.978,25.48,25.48,0,0,1-1.115,6.042,62.369,62.369,0,0,1-3.326,8.147L177.7,401.3l-.878,1.808c-.284.6-.41.786-.568,1.088l-.469.863a117.24,117.24,0,0,0-6.48,14.2c-3.719,9.667-6.472,19.5-9.611,28.95-1.565,4.727-3.194,9.376-5.077,13.864-.439,1.132-.971,2.227-1.448,3.336l-.366.828a4.046,4.046,0,0,1-.538,1.012l-.612.821c-.188.262-.437.505-.653.757a8.126,8.126,0,0,1-3.578,2.439,6.082,6.082,0,0,1-4.554-.516,13.181,13.181,0,0,1-3.128-2.381c-.881-.87-1.669-1.768-2.427-2.664-1.5-1.8-2.885-3.585-4.335-5.219a16.193,16.193,0,0,0-4.64-3.912,3.571,3.571,0,0,0-.613-.252,2.739,2.739,0,0,0-.608-.169l-.554-.124-.511-.191c-.362-.128-.723-.256-1.07-.407a3.563,3.563,0,0,1-1.72-1.361,4.877,4.877,0,0,1-.581-2.134l-.173-2.126-.13-1.9c-.088-1.263-.147-2.521-.211-3.773q-.168-3.757-.2-7.453-.06-7.389.4-14.514t1.478-13.952A94.384,94.384,0,0,1,126.9,394.9a85.044,85.044,0,0,1,11.248-23.281,97.415,97.415,0,0,1,24.806-24.528c.83-.56,1.627-1.131,2.5-1.686s1.785-1.08,2.7-1.566a29.927,29.927,0,0,1,5.7-2.272,23.762,23.762,0,0,1,5.687-.912,17.524,17.524,0,0,1,5.012.645,13.4,13.4,0,0,1,5.616,3.476l0-.007C189.1,344.649,188.859,344.609,188.658,344.575Z" transform="matrix(-1, 0, 0, 1, 380, 0)" /><path class="cls-3" d="M166.449,353.092c6.295-7.2,19.179-12.513,28.333-8.992-10.774-4.144-28.525,1.82-36.793,9.124-9.656,14.758,6.112,32.941,21.689,31.909.69-4.757.764-11.068-4.958-12.511C168.133,369.493,160.142,359.875,166.449,353.092Z" style="" transform="matrix(-1, 0, 0, 1, 380, 0)" /><path d="M166.472,353.113a6.013,6.013,0,0,1-.7,1.233,9.523,9.523,0,0,0-1.026,2.713,8.787,8.787,0,0,0,.255,3.966,14.936,14.936,0,0,0,2.148,4.274,21.371,21.371,0,0,0,7.8,6.559.484.484,0,0,0,.168.066l.334.1c.221.073.446.126.659.216a7.619,7.619,0,0,1,1.224.635,6.944,6.944,0,0,1,1.914,1.8,10.189,10.189,0,0,1,1.576,3.99,16.945,16.945,0,0,1,.276,3.123c.009.523-.016,1.041-.037,1.563-.065.733-.136,1.536-.234,2.343l-.069.61a4.454,4.454,0,0,1-.585.045l-1.214.057a11.7,11.7,0,0,1-1.2.024l-.814-.015a23.58,23.58,0,0,1-3.25-.381,26,26,0,0,1-11.815-5.839,25.409,25.409,0,0,1-7.629-11.041,19.471,19.471,0,0,1,.262-13.4,13.634,13.634,0,0,1,.628-1.42,11.792,11.792,0,0,1,.73-1.363l.456-.771c.054-.086.111-.2.178-.289l.259-.213.374-.31,1.155-.953a40.465,40.465,0,0,1,4.906-3.207,52.362,52.362,0,0,1,10.509-4.4,45.545,45.545,0,0,1,10.934-1.906A26.366,26.366,0,0,1,195.4,342.5l-1.232,3.2a18.136,18.136,0,0,0-7.834-1.091,28.63,28.63,0,0,0-7.6,1.608,32.113,32.113,0,0,0-11.856,7.248,22.042,22.042,0,0,1,4.821-5.619,29.676,29.676,0,0,1,7.5-4.652,26.112,26.112,0,0,1,8.282-2.1,16.924,16.924,0,0,1,6.44.683l1.54.571-1.35,3.508a20.724,20.724,0,0,0-7.489-1.585,35.176,35.176,0,0,0-7.75.545,48.194,48.194,0,0,0-14.215,4.894,33.9,33.9,0,0,0-5.936,3.953c-.177.1-.208.284-.4.551l-.447.738c-.255.512-.522,1.019-.75,1.538a16.418,16.418,0,0,0-1,3.218,17.927,17.927,0,0,0,2.328,12.522c4.335,7.3,12.116,11.713,19.375,11.865.463-.024,1.048.137.941-.475l.031-.343.041-.589c.038-.449.037-.89.052-1.332a11.254,11.254,0,0,0-.882-4.833,5.706,5.706,0,0,0-1.326-1.731,5.633,5.633,0,0,0-1.923-1.008l-.392-.132a2.543,2.543,0,0,1-.369-.181l-.6-.328a11.709,11.709,0,0,1-1.158-.705,20.613,20.613,0,0,1-2.125-1.589,20.275,20.275,0,0,1-3.824-4.243,14.779,14.779,0,0,1-2.407-5.73,8.842,8.842,0,0,1,.687-5.273A10.962,10.962,0,0,1,166.472,353.113Z" transform="matrix(-1, 0, 0, 1, 380, 0)" /><path class="cls-1" d="M134.853,442.274c.621-18.208,2.773-37.917,11.25-54.133,9.626-1.708,19.295,3.925,29.042,4.69-.416-6.451.416-13.247,0-19.7,9.332,5.732,37.426.315,41.486-11.1,1.808-9.016-7.757-16.871-16.231-16.915,17.6-1.615,31.585,14.674,30.336,31.7,2.013,22.419.3,45.557,4.934,67.589,1.609,4.742,4.43,9.316,4.122,14.314a26.347,26.347,0,0,0-30.381,3.738c-7.8,7.459-6.74,20.732-9.469,30.759-3.758,12.82-9.638,27.655-22.365,33.785-33.978,2.888-45.06-64.154-42.955-89.77" transform="matrix(-1, 0, 0, 1, 380, 0)" /><path d="M134.683,437.245c.135.546.116,2.21.191,4.769s.22,6.009.577,10.111a177.335,177.335,0,0,0,5.287,30.266,124.663,124.663,0,0,0,5.761,16.794,68.531,68.531,0,0,0,8.695,14.968c3.464,4.3,7.556,7.724,11.824,9.439a19.657,19.657,0,0,0,3.178,1l1.552.349,1.535.136c.5.03.992.12,1.479.1l1.433-.065.56-.026c.149-.024.273.023.379-.063l.879-.516a28.62,28.62,0,0,0,4.637-3.413,35.193,35.193,0,0,0,3.927-4.367,49.537,49.537,0,0,0,6-10.512,98.908,98.908,0,0,0,4.162-11.853,45.032,45.032,0,0,0,1.368-6.031c.343-2.066.595-4.218.887-6.4s.592-4.418,1.042-6.687a38.819,38.819,0,0,1,1.916-6.869,24.637,24.637,0,0,1,3.761-6.588,25.6,25.6,0,0,1,5.739-4.978,27.541,27.541,0,0,1,6.755-3.179,30.019,30.019,0,0,1,7.306-1.411,31.532,31.532,0,0,1,7.458.417l1.693.373a2.612,2.612,0,0,1,.395.136c.209.175.126-.147.1-.292a2.55,2.55,0,0,0-.149-.476l-1.021-2.479c-.51-1.212-1.051-2.48-1.544-3.844l-.258-.732-.137-.691-.2-1-.4-1.99c-.269-1.325-.454-2.655-.684-3.98-.414-2.652-.769-5.3-1.044-7.937-1.133-10.553-1.383-20.91-1.734-30.932-.211-6.034-.442-12.02-.9-17.928l-.184-2.211-.092-1.1-.027-.327a4.006,4.006,0,0,1-.012-.575l.008-.762.032-1.947c-.026-.648-.117-1.3-.167-1.942l-.088-.971-.2-.957c-.142-.635-.226-1.283-.4-1.91a27.989,27.989,0,0,0-1.291-3.686A30.605,30.605,0,0,0,222.93,361a30.118,30.118,0,0,0-2.277-3.148,17.354,17.354,0,0,0-1.271-1.457L218,355.044c-.462-.445-1-.8-1.484-1.21l-.747-.6-.8-.506a22.113,22.113,0,0,0-6.836-3.036l-1.815-.407c-.612-.089-1.232-.119-1.846-.189l-.923-.1-.929.028-1.857.043-.342-7.919a21.248,21.248,0,0,1,5.789.953,22.758,22.758,0,0,1,5.133,2.384,24.313,24.313,0,0,1,2.3,1.625,22.724,22.724,0,0,1,2.075,1.939,18.659,18.659,0,0,1,3.332,4.749,16.061,16.061,0,0,1,1.612,5.83,14.65,14.65,0,0,1-.106,3.079l-.123.9a2.9,2.9,0,0,1-.095.531l-.218.512-.363.847a5.533,5.533,0,0,1-.362.7,17.237,17.237,0,0,1-3.693,4.536A27.849,27.849,0,0,1,211.4,372.8a43.072,43.072,0,0,1-9.056,3.83,57.422,57.422,0,0,1-9.261,1.951,48.807,48.807,0,0,1-9.409.314c-.793-.056-1.589-.136-2.39-.249l-1.2-.188-.607-.124-.138-.028-.009,0a.073.073,0,0,0-.029-.011,2.511,2.511,0,0,1-.564-.254c-.083-.075-.074,0-.073.06l-.009.175-.028.378q-.088,2.189-.174,4.32c-.075,1.663-.149,3.282-.187,4.863l-.012,1.913.057,2.19q.093,2.205.185,4.4a2.854,2.854,0,0,1-.624-.037l-.67-.078-1.337-.156c-.893-.1-1.761-.224-2.633-.339s-1.733-.228-2.618-.41l-1.2-.258c-.263-.055-.522-.115-.774-.182-2.059-.5-4-1.088-5.909-1.645a61.245,61.245,0,0,0-10.855-2.55c-.435-.063-.861-.079-1.287-.1a12.044,12.044,0,0,0-1.27-.033l-.62.014h-.268l-.482.035c-.037.008-.09,0-.115.02l-.058.1-.117.2-.115.2-.058.1-.147.283c-.433.791-.788,1.619-1.169,2.43a81.553,81.553,0,0,0-3.8,9.9,127.116,127.116,0,0,0-4.416,19.774c-.975,6.456-1.518,12.718-1.954,18.7a155.358,155.358,0,0,1-.443-19.494A110.036,110.036,0,0,1,138.767,400l.81-2.895c.284-.962.615-1.912.923-2.87s.682-1.893,1.031-2.837l.54-1.409.682-1.544c.794-1.4,1.026-3.586,3.059-3.3.809-.111,1.67-.3,2.448-.336.6-.043,1.1-.106,1.649-.121a35.2,35.2,0,0,1,6.19.386c3.945.591,7.488,1.57,10.732,2.341.806.185,1.6.382,2.371.541l1.144.24c.19.044.373.07.559.1l.115.019v0l0-.006c.047-.028.079-.052.069-.084a.357.357,0,0,0-.031-.05l-.011-.012c0,.013-.006-.125-.009-.177q.007-.885.014-1.723.024-.988.047-1.921.069-1.825.129-3.428.033-.784.063-1.514l.029-.707.03-1.383c0-.927-.009-1.854-.013-2.776l-.1-2.784q-.05-1.362-.1-2.688-.024-.648-.047-1.284c-.019-.438-.006-.738-.009-1.1l5.047,2.794c.414.217.861.5,1.243.659l1.138.477,1.13.469c.357.1.741.2,1.094.269a24.881,24.881,0,0,0,4.077.584,43.608,43.608,0,0,0,8.609-.334,48.736,48.736,0,0,0,8.425-1.872,32.6,32.6,0,0,0,7.557-3.44,16.693,16.693,0,0,0,2.963-2.424,9.542,9.542,0,0,0,1.1-1.374,6.543,6.543,0,0,0,.637-1.215l.11-.74a3.594,3.594,0,0,0,.044-.854,7.021,7.021,0,0,0-.016-.858l-.125-.856a10.109,10.109,0,0,0-1.277-3.312,15.758,15.758,0,0,0-12.451-7.384l-.185-4.289a30.263,30.263,0,0,1,9.739.96,23.362,23.362,0,0,1,2.3.775l1.139.415c.372.155.726.351,1.089.525.716.367,1.451.7,2.143,1.1l2.014,1.3A32.316,32.316,0,0,1,230.1,362.577a36.189,36.189,0,0,1,1.446,4.371l.437,2.253.206,1.126.1,1.14c.057.76.142,1.517.171,2.276l-.053,2.277-.015.568a1.776,1.776,0,0,0,0,.29l.08,1.079.16,2.153c.395,5.732.585,11.394.741,16.977.3,11.162.49,22.032,1.612,32.532.132,1.313.279,2.619.463,3.916.169,1.3.334,2.594.557,3.874s.4,2.567.662,3.829l.371,1.9.169.858.281.783c.438,1.17.939,2.344,1.44,3.544l.743,1.824c.1.258.3.773.435,1.171.138.425.3.85.419,1.274a19.288,19.288,0,0,1,.846,4.918c.04.791.059,1.58.041,2.414l-.013.624c.016.14-.048.118-.086.15l-.127.068-.5.275c-1.142-.6-2.485-1.189-3.725-1.785-.62-.259-1.224-.467-1.837-.7a12,12,0,0,0-1.856-.611,20.372,20.372,0,0,0-2.413-.45,22.264,22.264,0,0,0-2.43-.217,25.673,25.673,0,0,0-9.5,1.466,23.267,23.267,0,0,0-8,4.846,18.629,18.629,0,0,0-4.717,7.668c-2.009,5.912-2.281,12.416-3.48,18.874-.163.814-.3,1.618-.514,2.443l-.3,1.229-.343,1.165c-.454,1.558-.93,3.078-1.438,4.6a87.722,87.722,0,0,1-3.467,8.925c-2.666,5.766-6.071,11.306-10.855,15.6a31.692,31.692,0,0,1-3.8,2.924l-1,.663-1.051.573-1.265.684a2.583,2.583,0,0,1-1.615.315l-2.5.056c-.8-.028-1.6-.149-2.391-.224-.4-.048-.8-.077-1.189-.142l-1.165-.278a21.721,21.721,0,0,1-2.3-.617,29.334,29.334,0,0,1-8.2-4.4,37.779,37.779,0,0,1-3.381-3.007c-.517-.537-1.071-1.044-1.552-1.605l-1.425-1.687c-.961-1.114-1.745-2.334-2.615-3.491-.758-1.22-1.574-2.4-2.267-3.643a75.178,75.178,0,0,1-3.782-7.5,104.216,104.216,0,0,1-5.927-17.734,153.656,153.656,0,0,1-3.447-19.9,148.922,148.922,0,0,1-.905-17.421A90.9,90.9,0,0,1,134.683,437.245Z" transform="matrix(-1, 0, 0, 1, 380, 0)" /><path class="cls-3" d="M195.033,472.625c-5.624,38.613-26.994,67.43-44.607,14.06-6.179-23.946-8.74-57.673,2.318-89.219,10.625,5.374,19.011,6.473,30.918,6.556.119-5.154,1.24-11.649,1.359-16.8,18.449,6.256,39.945-6.378,42.91-25.762-4.707-10.29-11.186-18.6-38.122-19.015,8.474.042,28.632,10.58,26.822,19.592-4.067,11.411-31.215,15.426-41.99,9.412-2.007,5.33-.416,12.594,0,19.045-9.742-.766-19.545-5.263-27.564-8.27-7.768,11.527-11.6,41.839-12.224,60.053l-.23-5.034c-2.146,25.464,9.008,92.729,42.953,89.772,12.731-6.134,18.6-20.964,22.366-33.787,2.729-10.027,1.667-23.3,9.469-30.759a26.346,26.346,0,0,1,30.381-3.738c.345-5.971-3.671-11.3-4.912-17.1C216.789,442.747,199.7,454.691,195.033,472.625Z" style="" transform="matrix(-1, 0, 0, 1, 380, 0)" /><path d="M195,472.617a35.34,35.34,0,0,1,2.382-7.024,40.4,40.4,0,0,1,9.416-12.7,45.474,45.474,0,0,1,19.387-10.388,30.151,30.151,0,0,1,3.034-.684c1.033-.168,2.065-.417,3.132-.491l1.813-.186,1.016-.1c.037,0,.1-.026.115,0l.032.123.062.247.125.5c.082.33.165.664.266,1l.242.792c.174.5.341,1.007.538,1.508.753,2.012,1.691,4.014,2.467,6.142a24.889,24.889,0,0,1,.991,3.3c.05.253.154.645.189,1l.138,1.081c.037.71.074,1.4.054,2.131l-.006.542v.2l-.06-.027-.237-.108-.953-.433-2-.9-.926-.374a6.091,6.091,0,0,0-.792-.278c-.537-.16-1.068-.345-1.612-.486a26.343,26.343,0,0,0-19.735,2.833,20.945,20.945,0,0,0-5.212,4.279,20.279,20.279,0,0,0-3.375,5.747,35.756,35.756,0,0,0-1.824,6.459c-.437,2.2-.765,4.4-1.069,6.6s-.611,4.379-.992,6.53a50.921,50.921,0,0,1-1.556,6.284,101.809,101.809,0,0,1-4.169,11.415,56.963,56.963,0,0,1-5.347,9.658,37.505,37.505,0,0,1-6.466,7.173l-1.39,1.131-1.486,1.015-.747.5-.789.44-1.743.958a9.821,9.821,0,0,1-1.112.065l-.912.029a15.909,15.909,0,0,1-1.827.01l-1.829-.18-.917-.093-.9-.2a27.466,27.466,0,0,1-12.9-6.866A50.336,50.336,0,0,1,148.5,509.2a88.572,88.572,0,0,1-6.256-13.333,148.262,148.262,0,0,1-7.415-28.727c-.788-4.919-1.375-9.887-1.724-14.891a107.75,107.75,0,0,1-.08-15.145l3.2.061.247,5.033-3.242.02a248.613,248.613,0,0,1,2.559-27.8c.7-4.6,1.532-9.192,2.576-13.746a87.086,87.086,0,0,1,4.139-13.477c.436-1.1,1.006-2.179,1.5-3.267.122-.273.3-.532.45-.8l.668-1.125.836-1.408.208-.351c.075-.1.113-.306.265-.185l.762.289,7.408,2.854a104.161,104.161,0,0,0,12.779,4.208c1.074.257,2.149.5,3.226.682.538.108,1.077.184,1.616.259l.248.035.065.005c.129.051.044-.116.054-.179l-.348-3.314a68.044,68.044,0,0,1-.468-6.943,28.74,28.74,0,0,1,.225-3.62l.174-1.026c.09-.527.273-1.022.408-1.53.275-1.007.633-2.034.955-3a35.23,35.23,0,0,0,5.006,2.26,25.846,25.846,0,0,0,3.136.738,38.556,38.556,0,0,0,6.437.535,49.541,49.541,0,0,0,12.572-1.6,36.377,36.377,0,0,0,6.195-2.2,20.355,20.355,0,0,0,5.285-3.413,10.72,10.72,0,0,0,1.88-2.237l.349-.607c.1-.207.178-.421.272-.629.044-.1.053-.111.05-.118l0-.06.018-.143a2.486,2.486,0,0,0,.019-.58,8.62,8.62,0,0,0-2.409-4.912,26.9,26.9,0,0,0-4.8-4.223,44.332,44.332,0,0,0-5.645-3.374,44.947,44.947,0,0,0-6.047-2.54,21.512,21.512,0,0,0-6.06-1.236l.04-3.991a106.094,106.094,0,0,1,13.34,1.04,44.39,44.39,0,0,1,13.023,3.929,27.717,27.717,0,0,1,3,1.774c.476.341.983.634,1.43,1.015l1.35,1.127a27.691,27.691,0,0,1,4.518,5.294c.6.967,1.219,1.937,1.722,2.935.255.5.539.991.766,1.492l.955,2.007a.4.4,0,0,1,.021.379l-.083.385-.146.686-.181.837-.364,1.673a11.384,11.384,0,0,1-.5,1.633l-.561,1.613A35.561,35.561,0,0,1,210.09,387.33a36.4,36.4,0,0,1-12.736,3.305l-1.644.119c-.549,0-1.1-.032-1.648-.047a22.041,22.041,0,0,1-3.279-.245l-1.626-.247a10.568,10.568,0,0,1-1.609-.315l-.6-.166-.057-.019-.07-.023q-.084,1.008-.165,2l-.436,4.235q-.213,2.07-.423,4.119l-.16,2.022c-.059,1.12-.116,2.53-.159,3.855l-3.529-.05-2.173-.057c-1.3-.046-2.594-.1-3.892-.2a69.965,69.965,0,0,1-7.764-.954,54.6,54.6,0,0,1-7.57-1.955c-1.232-.411-2.449-.862-3.637-1.362-.6-.243-1.192-.492-1.774-.764l-.877-.4-.25-.115-.045-.023c-.051-.012-.139-.108-.164-.052l-.072.2q-.552,1.689-1.1,3.371c-.66,2.351-1.335,4.692-1.907,7.048-.5,2.372-1.129,4.711-1.5,7.092q-.318,1.778-.636,3.548c-.191,1.184-.33,2.374-.5,3.557-.682,4.732-1,9.469-1.247,14.163-.139,4.7-.179,9.365.064,13.979.163,4.618.636,9.174,1.153,13.674.611,4.487,1.28,8.925,2.217,13.261.416,2.189.965,4.284,1.447,6.408.671,2.029,1.364,4.105,2.136,6.125a82.167,82.167,0,0,0,5.284,11.6,38.67,38.67,0,0,0,3.428,5.122,19.226,19.226,0,0,0,4.275,4.062,8.8,8.8,0,0,0,5.18,1.634,9.381,9.381,0,0,0,5.1-1.854,27.171,27.171,0,0,0,7.328-8.774,67.538,67.538,0,0,0,4.713-10.417,116.809,116.809,0,0,0,5.312-21.25,115.215,115.215,0,0,1-3.206,17.452,83.455,83.455,0,0,1-3.133,9.47,49.637,49.637,0,0,1-4.867,9.374,25.588,25.588,0,0,1-3.543,4.234,14.132,14.132,0,0,1-4.827,3.113,9.735,9.735,0,0,1-5.969.243,14.02,14.02,0,0,1-5.2-2.9,34.469,34.469,0,0,1-7.161-9.089,83.9,83.9,0,0,1-4.957-10.261c-.705-1.753-1.376-3.484-2.011-5.266a46.855,46.855,0,0,1-1.565-5.408c-.472-1.805-.824-3.583-1.235-5.356-.377-1.775-.693-3.546-1.036-5.294a165.693,165.693,0,0,1-2.336-20.182,148.4,148.4,0,0,1,1.411-30.986q.618-3.682,1.356-7.326.417-1.81.833-3.616l.416-1.8.5-1.78q.5-1.777.993-3.549c.319-1.184.754-2.332,1.125-3.5l.775-2.348.521-1.589.26-.793.065-.2c.026-.055.025-.175.106-.1l.377.186,3,1.477,1.751.813a52.706,52.706,0,0,0,13.157,3.983c2.25.376,4.521.609,6.8.759,1.138.074,2.274.139,3.413.173l2,.067.055-.784q.094-1.093.187-2.182c.154-1.432.308-2.857.461-4.267q.224-2.091.443-4.135l.09-1.01.093-1.288q.073-1.709.145-3.387l4.76,1.318c1.035.231,2.095.345,3.139.527a31.384,31.384,0,0,0,6.347.05,33.178,33.178,0,0,0,12.076-3.588,33.561,33.561,0,0,0,9.845-7.7c.641-.82,1.335-1.6,1.934-2.449l1.676-2.621,1.364-2.783c.407-.947.7-1.938,1.058-2.9a8.227,8.227,0,0,0,.408-1.485l.333-1.5.137-.614c.063-.138,0-.246-.063-.368l-.625-1.328a36.665,36.665,0,0,0-3.164-5.266,24.677,24.677,0,0,0-4.225-4.294,25.662,25.662,0,0,0-5.188-3.052,45.23,45.23,0,0,0-11.678-3.19,98.673,98.673,0,0,0-12.08-.933l.018-1.736a21.3,21.3,0,0,1,5.465.942,42.665,42.665,0,0,1,5.082,1.849,48.836,48.836,0,0,1,9.3,5.285,30.447,30.447,0,0,1,4.052,3.518,15.616,15.616,0,0,1,3.114,4.486,8.469,8.469,0,0,1,.693,2.763l.013.731c-.009.244-.053.485-.08.731a2.442,2.442,0,0,1-.073.425l-.155.365-.277.643a13.168,13.168,0,0,1-3.4,4.242,28.15,28.15,0,0,1-9.237,4.906,49.23,49.23,0,0,1-10.02,2.184,48.641,48.641,0,0,1-10.14.152,34.747,34.747,0,0,1-5-.826c-.821-.215-1.635-.456-2.436-.748a11.877,11.877,0,0,1-1.511-.671.325.325,0,0,0-.061-.028l-.021.067-.044.133-.087.266a5.239,5.239,0,0,0-.145.54,4.909,4.909,0,0,0-.117.572c-.043.285-.11.565-.133.856a24.941,24.941,0,0,0-.172,3.5c.031,2.354.286,4.721.534,7.094.131,1.249.235,2.164.386,4l.091,1.228.022.307.012.153c-.01.037.041.137-.036.105l-.612-.062c-.813-.089-1.635-.151-2.441-.262l-.979-.142c-.3-.043-.6-.084-.891-.143-.59-.114-1.184-.209-1.77-.337-1.173-.247-2.333-.531-3.485-.836a130.548,130.548,0,0,1-13.339-4.621l-3.239-1.261-1.1-.418c-.195-.157-.239.121-.337.243l-.263.444-.382.646a5.6,5.6,0,0,0-.4.742l-.725,1.527c-.517,1-.862,2.088-1.3,3.128a98.075,98.075,0,0,0-3.7,13.007c-.978,4.385-1.727,8.794-2.363,13.185a244.058,244.058,0,0,0-2.361,26.119l-1.8.01c-.082-1.7-.163-3.4-.241-5.034l1.819.035a128.693,128.693,0,0,0,1.118,25.236,162.389,162.389,0,0,0,5.055,24.1,109.921,109.921,0,0,0,3.956,11.366,78.611,78.611,0,0,0,5.206,10.6,49.774,49.774,0,0,0,6.93,9.211,28.01,28.01,0,0,0,9.1,6.417l1.288.488a7.015,7.015,0,0,0,1.305.42l1.332.318a7.239,7.239,0,0,0,1.342.255c.908.071,1.808.24,2.717.237l1.365-.035.681-.017c.215-.016.315.021.408-.035l1.076-.586a12.248,12.248,0,0,0,1.185-.677c.744-.527,1.544-.969,2.239-1.558a26.1,26.1,0,0,0,2.082-1.758,24.648,24.648,0,0,0,1.921-1.931c4.919-5.39,8.106-12.1,10.571-18.848.613-1.7,1.181-3.406,1.722-5.12l.774-2.566c.2-.852.437-1.685.6-2.558.717-3.455,1.126-7,1.691-10.53a48.745,48.745,0,0,1,2.6-10.463,20.615,20.615,0,0,1,6.317-8.784,27.018,27.018,0,0,1,5.789-3.543,27.675,27.675,0,0,1,6.957-2.018,28.169,28.169,0,0,1,7.6-.145l1.931.3,1.918.449,1.89.6c.312.1.626.251.915.365l.518.22c.342.149.669.346,1.012.52l.128.068c.038.015.1.077.088,0l.009-.279a4.411,4.411,0,0,0,0-.563,8.879,8.879,0,0,0-.125-1.146l-.174-.848-.238-.914c-.7-2.436-1.776-4.816-2.713-7.286-.229-.621-.459-1.242-.66-1.878-.109-.314-.2-.635-.292-.957-.068-.238-.12-.424-.166-.646l-.073-.321c-.016-.048-.017-.119-.045-.15l-.161.014-.649.054-1.757.154c-1.257.18-2.508.383-3.745.611-1.217.312-2.452.538-3.633.914a46.371,46.371,0,0,0-12.851,6.029,43.062,43.062,0,0,0-9.18,8.335,39.144,39.144,0,0,0-5.2,8.271l-.762,1.78-.348.811-.258.781Z" transform="matrix(-1, 0, 0, 1, 380, 0)" /><path class="cls-1" d="M134.148,434.414c-5.937,18.038-22.724,21.242-33.251,34.111-1.069,10.64,11.809,11.928,18.853,8.229-3.032,5.282-13.967,16.764-5.6,21.686,20,5.081,30.406-16.083,30.041-38.53" transform="matrix(-1, 0, 0, 1, 380, 0)" /><path d="M144.254,459.909c.608.6,1.142,6.731-.01,13.767a51.369,51.369,0,0,1-2.8,10.5,42.036,42.036,0,0,1-4.191,8.086,22.144,22.144,0,0,1-10.107,8.5,21.03,21.03,0,0,1-6.974,1.485,15.515,15.515,0,0,1-1.791.01,14.394,14.394,0,0,1-1.78-.119c-.589-.066-1.186-.114-1.759-.237l-.992-.188-.689-.14a1.729,1.729,0,0,1-.345-.088l-.3-.191c-.393-.257-.828-.507-1.189-.773-.355-.287-.627-.478-.93-.77a8.911,8.911,0,0,1-1.574-1.96,9.184,9.184,0,0,1-1.22-4.812,13.9,13.9,0,0,1,.747-4.122,24.369,24.369,0,0,1,1.424-3.38c.264-.522.535-1.034.815-1.525l.422-.734.214-.361.053-.09c-.02.031-.011.014-.011.014l0-.015.054-.191c.021-.1.011-.147-.037-.152l-.179.1a.557.557,0,0,0-.113.071l0,0-.649-.029c-.517-.033-1.034-.077-1.555-.154a17.049,17.049,0,0,1-3.136-.726,13.223,13.223,0,0,1-5.881-3.8,11.732,11.732,0,0,1-2.8-6.672c-.026-.285-.06-.574-.057-.847,0-.384-.031-.905.009-1.27l.083-1.194.042-.6.02-.3a2.317,2.317,0,0,1,.184-.23c.5-.611,1.034-1.2,1.563-1.786l.945-1.033c.587-.661,1.249-1.211,1.868-1.814l.944-.878.975-.808a78.854,78.854,0,0,1,7.8-5.66c2.557-1.681,5.03-3.211,7.29-4.781,1.165-.763,2.2-1.584,3.28-2.36.985-.841,2.05-1.6,2.926-2.483a34.818,34.818,0,0,0,8.223-11.126,33.69,33.69,0,0,1-.092,3.55c-.1.63-.224,1.28-.362,1.956a14.286,14.286,0,0,1-.525,2.058,29.158,29.158,0,0,1-4.152,8.116A41.642,41.642,0,0,1,122.153,456a30.562,30.562,0,0,1-4.8,3.585,91.479,91.479,0,0,0-9.032,5.6,40.106,40.106,0,0,0-3.866,3.163l-.436.429c-.13.126-.334.336-.365.35a4.458,4.458,0,0,0-.4.35,5.1,5.1,0,0,0-.095.5l-.015.1a2.145,2.145,0,0,0-.007.252l.018.492a5.483,5.483,0,0,0,1.366,3.381,7.648,7.648,0,0,0,3.354,2.09,12.672,12.672,0,0,0,2.08.489c.357.051.716.094,1.078.116a6.967,6.967,0,0,0,.771.018c.289-.009.566.013.862-.021a12.059,12.059,0,0,0,3.949-.956c1.623-.63,3.484-1.4,5.486-2.281-.109.8.088,1.059.38,1.1l.243-.025c.09-.058-.041.125-.1.229l-.212.351-.837,1.337c-1.125,1.736-2.171,3.417-3.425,5.226-.618.895-1.239,1.791-1.827,2.688l-.435.676-.355.57-.563.953a21.8,21.8,0,0,0-1.773,3.833,7.263,7.263,0,0,0-.388,3.542,3.654,3.654,0,0,0,.586,1.348,4.549,4.549,0,0,0,1.073,1.041c.18.084.321.252.527.262l.793.148c.644.15,1.293.175,1.932.264.639.063,1.275.061,1.9.087.624-.048,1.252-.021,1.858-.119a17.765,17.765,0,0,0,11.856-6.769,39.323,39.323,0,0,0,6.3-11.74c.5-1.446,1.063-3.182,1.63-5.016s1.058-3.788,1.5-5.639C143.615,464.311,144.073,461,144.254,459.909Z" transform="matrix(-1, 0, 0, 1, 380, 0)" /><path class="cls-3" d="M132.87,480.64c-18.909,23.572-9.689-4.432-3.206-13.968-7.58,4.815-26.419,5.543-17.7-7.83-3.7,2.95-8.776,5.177-11.065,9.684-1.073,10.642,11.811,11.925,18.852,8.227-3.032,5.283-13.967,16.766-5.6,21.687,19.811,5.068,30.22-15.756,30.052-37.949A113.013,113.013,0,0,1,132.87,480.64Z" style="" transform="matrix(-1, 0, 0, 1, 380, 0)" /><path d="M132.845,480.622c.136-.518,1.779-2.979,3.888-6.651a130.364,130.364,0,0,0,6.862-13.748l1.23-2.889.044,3.152c.029,2.088-.026,4.192-.164,6.252-.159,2.058-.4,4.068-.7,5.97a59.146,59.146,0,0,1-2.422,9.6,31.968,31.968,0,0,1-8.028,12.993,20.526,20.526,0,0,1-6.945,4.291,20.3,20.3,0,0,1-8.232,1.146,24.448,24.448,0,0,1-4.108-.585l-.735-.155c-.238-.129-.541-.342-.695-.435a7.52,7.52,0,0,1-.956-.712,8.593,8.593,0,0,1-.879-.871,7.486,7.486,0,0,1-.727-1.053,7.735,7.735,0,0,1-.865-4.825,15.624,15.624,0,0,1,1.233-4.2,44.585,44.585,0,0,1,4.055-6.953l.306-.453a.964.964,0,0,0,.068-.109l.059-.109c.028-.061.092-.153-.038-.067a1.824,1.824,0,0,1-.183.078l-.107.024-.751.1c-.578.067-1.155.116-1.733.135a15.1,15.1,0,0,1-9.464-2.53,9.628,9.628,0,0,1-3.276-4.224,10.088,10.088,0,0,1-.644-2.565,9.563,9.563,0,0,1-.087-1.278c0-.21-.017-.425,0-.631l.045-.731.033-.532c-.009-.184.148-.318.214-.48l.406-.725c.2-.367.455-.7.684-1.045a16.651,16.651,0,0,1,1.581-1.845,26.678,26.678,0,0,1,3.527-2.912l3.366-2.289c.6-.434,1.167-.825,1.785-1.29l1.9-1.458,6.709-5.124q-2.072,3.4-4.131,6.778L114,459.276l-.75,1.3-.747,1.293a1.956,1.956,0,0,0-.218.52l-.159.472-.317.942a2.281,2.281,0,0,0-.116.452.613.613,0,0,0-.018.125l0,.119,0,.073a2,2,0,0,0,0,.554,2.375,2.375,0,0,0,.26.9,3.542,3.542,0,0,0,1.74,1.311,9.976,9.976,0,0,0,2.818.613,21.786,21.786,0,0,0,6.176-.438c.255-.049.508-.1.758-.168l.375-.092.188-.046.362-.115,1.485-.48,1.565-.689c2.231-1.191,5.332-3.038,7.616-4.348l-.3.486c-.1.156-.191.313-.348.539l-.853,1.266-1.762,2.628-1.65,2.5c-.474.776-.905,1.526-1.3,2.261l-.894,1.716-.6,1.2q-.584,1.2-1.114,2.412a47.752,47.752,0,0,0-3.23,9.526c-.07.377-.127.771-.156,1.111l-.03.363a2.384,2.384,0,0,0,0,.267.994.994,0,0,0,.158.521.516.516,0,0,0,.492.175,2.971,2.971,0,0,0,1.266-.634,20.65,20.65,0,0,0,1.728-1.387,75.97,75.97,0,0,0,6-6.24,47.52,47.52,0,0,1-5.7,7.924c-.319.337-.651.672-1.011.994a8.015,8.015,0,0,1-1.346,1,3.28,3.28,0,0,1-1.812.5,1.9,1.9,0,0,1-1.521-1.011,4.388,4.388,0,0,1-.512-1.98,11.881,11.881,0,0,1,.017-1.679,25.268,25.268,0,0,1,.422-2.98,56.063,56.063,0,0,1,3.351-10.531l.5-1.134.252-.548-.006-.017a.025.025,0,0,0-.034-.015c-.024.011-.016.013.035-.038l.029-.033c.052-.063.033-.093-.054-.107a.539.539,0,0,0-.081-.008l-.886.2c-.592.12-1.182.237-1.777.318a23.189,23.189,0,0,1-7.183.03,11.122,11.122,0,0,1-3.585-1.2,6.008,6.008,0,0,1-2.763-3.083,8.925,8.925,0,0,1-.26-1.03,8.664,8.664,0,0,1-.069-1.019l.03-.492.009-.106c0,.045,0,0,0,0a.36.36,0,0,1,.013-.073l.073-.3a6.57,6.57,0,0,1,.572-1.25c.1-.185.224-.362.339-.551l.084-.135-.1.07-.209.145c-.287.192-.6.386-.935.592l-1.044.653-.446.307-.523.371c-.346.249-.683.5-1.008.768a13.667,13.667,0,0,0-3.275,3.576l-.22.373c-.022.139-.017.175-.038.412a11.655,11.655,0,0,0-.017,1.181,8.721,8.721,0,0,0,.436,2.248,6.958,6.958,0,0,0,2.764,3.449,11.113,11.113,0,0,0,4.3,1.581,16.516,16.516,0,0,0,4.63.074l.6-.08.8-.149c.257-.036.554-.14.83-.208a6.108,6.108,0,0,0,.876-.279c1.173-.422,2.7-1.129,4.041-1.741l.064.149.033.074.061.015.123.032.062.016c.019.006-.066.12-.093.175l-.979,1.6c-.648,1.033-1.318,2.079-2.08,3.162l-1.894,2.735c-.52.772-1.026,1.545-1.5,2.327a25.265,25.265,0,0,0-2.357,4.792,7.147,7.147,0,0,0-.236,4.739A4.646,4.646,0,0,0,113.5,496.9l.449.367.451.291c.106.09.2.075.4.125l.622.131a20.285,20.285,0,0,0,4.957.449,17.488,17.488,0,0,0,9.023-2.766,23.215,23.215,0,0,0,6.456-6.535,37.037,37.037,0,0,0,3.986-8.05,60.314,60.314,0,0,0,3.266-16.725c.058-1.032.1-2.155.129-3.684l1.846.381a102.978,102.978,0,0,1-6.733,12.112A90.214,90.214,0,0,1,132.845,480.622Z" transform="matrix(-1, 0, 0, 1, 380, 0)" /><path class="cls-1" d="M192.234,468.253c.963,13.912,51.312,70.458,45.466,29.816,12.042,9.943,50.647,13.8,27.371-9.852,7.536-.246,16.055-1.577,20.322-7.794,4.081-13.234-61.929-20.311-65.379-36.125" transform="matrix(-1, 0, 0, 1, 380, 0)" /><path d="M220.074,444.285c.223.19.484.865,1.125,1.738a13.944,13.944,0,0,0,3.04,3,51.684,51.684,0,0,0,11.9,6.1C240.921,457,246.174,458.7,251,460.19s9.243,2.774,12.421,3.667c3.926,1.1,7.947,2.3,12.016,3.854a50.265,50.265,0,0,1,6.131,2.772,24.058,24.058,0,0,1,3.07,1.983,14.74,14.74,0,0,1,1.51,1.34,10.659,10.659,0,0,1,.727.829,7.541,7.541,0,0,1,.713,1.046,7.692,7.692,0,0,1,.964,2.649,7.222,7.222,0,0,1-.159,2.8c-.026.115-.045.233-.077.345l-.195.3-.392.592-.792,1.189-.7.786a8.136,8.136,0,0,1-.7.717,20.741,20.741,0,0,1-6.527,4.128,31.139,31.139,0,0,1-3.5,1.15c-.585.149-1.172.305-1.755.416l-.852.177c.06-.008-.046.016-.059.022l-.655.169c.2.173.371.32.5.446l.1.094.182.256.23.333.447.685a20.29,20.29,0,0,1,1.6,3.061,11.8,11.8,0,0,1,.9,3.96,8.3,8.3,0,0,1-1.3,4.805,9.2,9.2,0,0,1-3.425,3.068,14.525,14.525,0,0,1-3.466,1.291,29.266,29.266,0,0,1-8.886.532,50.639,50.639,0,0,1-8.215-1.337,51.53,51.53,0,0,1-7.833-2.587l-.892-.391c-.01-.008,0,0,0,0l0-.008-.024-.033c-.016-.017-.023-.01-.041.011l-.013.022c0,.015,0-.023,0,.009l-.027.418c-.015.278-.036.558-.079.851a16.882,16.882,0,0,1-.791,3.614,9.909,9.909,0,0,1-2.457,3.893,8.072,8.072,0,0,1-4.68,2.126,11.333,11.333,0,0,1-4.135-.383,19.861,19.861,0,0,1-3.192-1.233,44.4,44.4,0,0,1-9.547-6.774,94.611,94.611,0,0,1-7.538-7.619A118.161,118.161,0,0,1,197.806,484.5a72.894,72.894,0,0,1-4.305-7.892,36.525,36.525,0,0,1-1.59-4.013,15.135,15.135,0,0,1-.813-4.262,18.186,18.186,0,0,0,2.634,4.74c1.095,1.516,2.337,3.042,3.654,4.587,2.638,3.086,5.606,6.231,8.533,9.216,5.849,5.992,11.629,11.167,14.436,14.032a53.3,53.3,0,0,0,6.439,5.763,23.438,23.438,0,0,0,3.358,2.1,7.873,7.873,0,0,0,2.956.907,1.836,1.836,0,0,0,.837-.138,1.518,1.518,0,0,0,.688-.616,7.335,7.335,0,0,0,1.013-3.052,4.045,4.045,0,0,0,.062-.467l.05-.528a15.906,15.906,0,0,0,.023-1.733c.014-1.129-.1-2.328-.2-3.493q-.164-1.729-.325-3.446l-.171-1.632-.084-.806a.344.344,0,0,1,.029-.264l.074-.179c1.668,1.366,3.564,2.843,5.245,4.1.414.295.831.609,1.236.881.4.24.793.494,1.186.719l1.172.622.972.47a43.82,43.82,0,0,0,6.245,2.347,39.524,39.524,0,0,0,12.766,1.758,11.611,11.611,0,0,0,5.485-1.426,3.064,3.064,0,0,0,1.315-1.666,4.235,4.235,0,0,0-.085-2.315,11.256,11.256,0,0,0-1.1-2.541,19.784,19.784,0,0,0-1.923-2.8c-1.824-2.267-4.081-4.555-6.133-6.674,2.266-.161,4.871-.252,7.256-.481.6-.057,1.209-.1,1.785-.2l.876-.127.438-.063.229-.038.145-.03c.776-.146,1.537-.321,2.285-.518a17.474,17.474,0,0,0,7.691-4.015c.258-.23.466-.5.7-.749a4.014,4.014,0,0,0,.444-.557l.181-.251c.028-.1.042-.2.064-.3a2.192,2.192,0,0,0-.014-.611,2.493,2.493,0,0,0-.539-1.124,7.254,7.254,0,0,0-1.282-1.3,31.833,31.833,0,0,0-7.351-4.068c-5.3-2.233-10.714-3.968-15.918-5.71s-10.273-3.415-15.1-5.273a79.511,79.511,0,0,1-15.479-7.643,24.948,24.948,0,0,1-5.926-5.208A8.422,8.422,0,0,1,220.074,444.285Z" transform="matrix(-1, 0, 0, 1, 380, 0)" /><path class="cls-3" d="M286.179,477.688c-4.006-4.765-11.176-6.546-16.692-9.313,1.939,2.456,3.828,4.941,5.692,7.409a31.325,31.325,0,0,1-25.916,2.633c31.107,24.59-9.367,20.565-19.729,3.9,11.646,40.551-29.129-5.049-33.642-17.222l-3.658,3.154c.963,13.912,51.312,70.459,45.466,29.816,12.042,9.943,50.647,13.8,27.371-9.852C272.893,487.875,284.633,486.34,286.179,477.688Z" style="" transform="matrix(-1, 0, 0, 1, 380, 0)" /><path d="M286.209,477.693a7.3,7.3,0,0,1-.135.906c-.047.219-.081.481-.167.761l-.363.911a10.279,10.279,0,0,1-3.693,4.272,21.615,21.615,0,0,1-7.342,3.026,44.681,44.681,0,0,1-4.536.806c-.89.1-1.343.16-1.947.207l-1.715.133a34.652,34.652,0,0,1,3.33,3.784,17.854,17.854,0,0,1,3.144,5.771,6.374,6.374,0,0,1,.069,3.536,5.249,5.249,0,0,1-.858,1.642,6.428,6.428,0,0,1-1.329,1.219,13.538,13.538,0,0,1-6.324,1.862,41.393,41.393,0,0,1-11.787-1.02,51.506,51.506,0,0,1-9.113-2.877q-.789-.334-1.572-.713l-.785-.39-.637-.335a9.713,9.713,0,0,1-1.345-.839l-.051-.037c-.013-.006,0,.041,0,.058l.024.147.046.289.083.56.068.538.067.973a21.33,21.33,0,0,1-.352,5.418,9.314,9.314,0,0,1-1.079,2.785,5.755,5.755,0,0,1-2.44,2.231,6.579,6.579,0,0,1-3.2.546,12.126,12.126,0,0,1-2.9-.615,34.548,34.548,0,0,1-9.459-5.605,91.746,91.746,0,0,1-8.062-7.251,129.378,129.378,0,0,1-13.939-16.627,67.451,67.451,0,0,1-5.628-9.393,27.92,27.92,0,0,1-1.092-2.613c-.16-.455-.311-.92-.437-1.408a13.32,13.32,0,0,1-.372-2.154l-.075-.624a2.672,2.672,0,0,1,.426-.433c.3-.284.621-.558.939-.834l1.159-1.007,3.824-3.307c.522,1.3,1.076,2.706,1.653,3.94.382.745.442.846.628,1.174.162.287.327.573.5.857.681,1.138,1.412,2.248,2.163,3.334,1.5,2.172,3.086,4.246,4.711,6.259a127.992,127.992,0,0,0,8.585,9.609,57.462,57.462,0,0,0,9.568,8.049,14.155,14.155,0,0,0,2.511,1.262,5.356,5.356,0,0,0,1.118.289,1.835,1.835,0,0,0,.688-.037c.127-.035.169-.094.3-.248a2.588,2.588,0,0,0,.338-.787,9.44,9.44,0,0,0,.193-2.609,24.33,24.33,0,0,0-.3-2.934l-.1-.62c-.037-.258-.1-.524-.145-.785l-.357-1.607-.365-1.61-.461-1.719-3.56-13.012,4.785,7.281,1.963,2.985.47.711.368.475.735.949a13.237,13.237,0,0,0,1.38,1.539,14.325,14.325,0,0,0,1.266,1.186l.6.52.331.262c.219.176.439.35.668.515a34.431,34.431,0,0,0,5.795,3.481,37.366,37.366,0,0,0,6.273,2.36,23.611,23.611,0,0,0,6.338.942,7.736,7.736,0,0,0,2.705-.434,2.113,2.113,0,0,0,.774-.478.927.927,0,0,0,.257-.549,4.24,4.24,0,0,0-.589-2.207,15.407,15.407,0,0,0-1.648-2.5,30.38,30.38,0,0,0-2.072-2.365l-.551-.57-.789-.77c-.712-.689-1.506-1.369-2.274-2.045-.736-.667-1.624-1.368-2.439-2.048L246.17,478q-1.2-.978-2.391-1.951l-1.131-.928-.713-.666,5.988,1.9,2.909.9,1.414.428,1.131.231c.745.145,1.511.323,2.223.438.35.055.7.09,1.041.117l.579.057c.746.065,1.492.092,2.233.1a30.582,30.582,0,0,0,8.627-1.152,27.922,27.922,0,0,0,3.973-1.436l.456-.212.2-.085c.131-.057.258-.128.391-.193l.2-.1c.024-.019.089-.03.081-.056l-.06-.085-.245-.351-.322-.452-1.029-1.372-2-2.663-1.911-2.556-.923-1.236c-.286-.392-.714-.9-.605-.954,2.688,1.328,5.507,2.707,7.726,3.691l3.162,1.4c.74.341,1.466.684,2.173,1.049a21.753,21.753,0,0,1,7.265,5.463,22.5,22.5,0,0,0-7.544-4.586c-3.263-1.325-5.612-1.912-7.09-2.472l-.117-.042-.028-.009.038.042.074.085.29.328.546.613.95,1.05.771.823.084.087.02.021.069.085.144.176.582.715,1.167,1.461.295.373c.019.03.062.065.061.091l-.1.058-.195.117-.788.472-1.612.955-1.313.7c-.364.19-.741.351-1.111.527a29.379,29.379,0,0,1-4.589,1.671,32.321,32.321,0,0,1-9.314,1.186c-2.117-.084-1.478-.043-1.654-.024-.036.018-.023.038,0,.057a.621.621,0,0,0,.13.067s-.008,0-.008.008c-.11-.1.28.271.509.519l.714.75a26.562,26.562,0,0,1,3.756,5.034,9.422,9.422,0,0,1,1.155,3.373,5.173,5.173,0,0,1-.2,2.154,4.354,4.354,0,0,1-1.245,1.919,6.735,6.735,0,0,1-3.419,1.535,14.7,14.7,0,0,1-3.193.174,27.684,27.684,0,0,1-5.889-.987,41.272,41.272,0,0,1-10.52-4.545c-.8-.5-1.595-1.013-2.356-1.569-.384-.274-.756-.563-1.128-.851s-.8-.64-.89-.735a11.255,11.255,0,0,1-1.611-1.763c-.1-.147-.211-.289-.306-.445l-.149-.231c-.023-.018.024.12.033.173l.22.91c.146.628.275,1.3.381,2.009l.139.97.128,1.145c.064.768.105,1.542.093,2.328a11.473,11.473,0,0,1-.276,2.4,5.125,5.125,0,0,1-1.205,2.4,3.67,3.67,0,0,1-2.631,1.093,7.079,7.079,0,0,1-2.459-.476,18.681,18.681,0,0,1-4.007-2.164,55.769,55.769,0,0,1-6.7-5.554,125.152,125.152,0,0,1-11.268-12.434c-1.705-2.153-3.341-4.329-4.859-6.568-.758-1.119-1.489-2.253-2.172-3.417l-.5-.88-.385-.721a12.078,12.078,0,0,1-.5-1.107c-.008-.057-.035-.04-.066,0l-.085.073-.17.148-.34.294-.733.634-.933.807-.168.146-.083.072.013.11a3.983,3.983,0,0,0,.064.438l.047.225a2.769,2.769,0,0,0,.078.327l.184.656c.144.435.29.87.465,1.3.337.861.727,1.709,1.147,2.541a73.26,73.26,0,0,0,5.875,9.442,127.718,127.718,0,0,0,13.982,16.3,80.681,80.681,0,0,0,7.745,6.741,26.413,26.413,0,0,0,8.484,4.619,4.554,4.554,0,0,0,3.884-.425,4.247,4.247,0,0,0,1.172-1.524,8.672,8.672,0,0,0,.62-2.069,20.76,20.76,0,0,0,.228-4.564l-.034-.672c-.017-.312-.041-.616-.078-.933l-.21-1.886-.232-1.871-.12-.933c-.024-.28-.126-.709-.045-.79,1,.789,2.158,1.691,3.216,2.458a22.346,22.346,0,0,0,2.76,1.7,38.669,38.669,0,0,0,4.115,1.841,50.535,50.535,0,0,0,8.542,2.41,38.438,38.438,0,0,0,8.531.739,17.293,17.293,0,0,0,4.02-.579,6.182,6.182,0,0,0,3.121-1.772,3.686,3.686,0,0,0,.719-2.874,10.572,10.572,0,0,0-1.32-3.623,26.983,26.983,0,0,0-2.446-3.628c-.129-.162-.2-.271-.379-.479l-.509-.6c-.329-.4-.675-.8-1.063-1.212l-2.213-2.4c1.939-.089,3.951-.126,5.7-.282,1.358-.1,2.694-.259,4-.456a25.886,25.886,0,0,0,7.067-2.082,11.391,11.391,0,0,0,4.533-3.687l.351-.489.25-.5c.157-.329.323-.628.441-.916C285.947,478.555,286.1,478.063,286.209,477.693Z" transform="matrix(-1, 0, 0, 1, 380, 0)" /><path class="cls-3" d="M126.182,409.053c17.372,46.772,91.9,38.878,114.007,4.686-12.929,31.851,14.889,29.875-20.694,51.425-22.926,13.885-79.184,8.019-93.968-19.545-1.749-3.261,2-6.766.744-36.906" style="" transform="matrix(-1, 0, 0, 1, 380, 0)" /><path d="M126.3,408.712a85.968,85.968,0,0,1,.615,9.582,147.829,147.829,0,0,1-.694,19.9q-.162,1.4-.324,2.828a17.906,17.906,0,0,0-.173,2.757,4.326,4.326,0,0,0,.907,2.377,23.73,23.73,0,0,0,1.546,2.383,39.2,39.2,0,0,0,7.751,7.989,60.47,60.47,0,0,0,16.212,8.721,98.87,98.87,0,0,0,25.008,5.3A93.5,93.5,0,0,0,203.57,469.2a52.988,52.988,0,0,0,12.484-4.147c.977-.484,1.883-1.02,2.839-1.578l2.851-1.79,2.792-1.846c.9-.641,1.829-1.26,2.711-1.918a53.59,53.59,0,0,0,5.014-4.129,16.194,16.194,0,0,0,3.609-4.739,8.456,8.456,0,0,0,.708-2.6,13.251,13.251,0,0,0-.121-2.843c-.311-2-.884-4.141-1.29-6.359a36.106,36.106,0,0,1-.191-12.547,52.871,52.871,0,0,1,3.363-11.718l3.526,1.835a55.264,55.264,0,0,1-14.089,14.365,74.523,74.523,0,0,1-17.329,8.986,85.875,85.875,0,0,1-36.45,5c-11.79-.979-22.889-4.737-31.416-10.977A47.3,47.3,0,0,1,131.9,421.5a52.284,52.284,0,0,1-6.251-12.253,55.017,55.017,0,0,0,8.814,13.08,49.908,49.908,0,0,0,14.364,10.7A63.849,63.849,0,0,0,164.8,438.3a104.108,104.108,0,0,0,12.257,1.464,82.407,82.407,0,0,0,35.7-5.923,67.864,67.864,0,0,0,15.134-8.508,49.586,49.586,0,0,0,11.564-12.065l1.548.805c-3.058,7.269-4.628,15.049-3.211,22.447.313,1.853.768,3.679,1.121,5.573a15.044,15.044,0,0,1,.109,5.891,13.26,13.26,0,0,1-2.664,5.214,31.375,31.375,0,0,1-3.967,4,85.3,85.3,0,0,1-8.822,6.377c-.744.5-1.508.949-2.257,1.424s-1.493.945-2.292,1.372a25.845,25.845,0,0,1-2.378,1.241c-.8.379-1.6.769-2.433,1.071a69.3,69.3,0,0,1-20.013,4.386,102.818,102.818,0,0,1-19.471-.348,97.4,97.4,0,0,1-18.161-3.725,72.267,72.267,0,0,1-16.186-7.11,49.843,49.843,0,0,1-6.935-5.026,39.4,39.4,0,0,1-5.76-6.087c-.512-.728-1.076-1.469-1.6-2.278-.486-.855-.992-1.648-1.5-2.632a6.612,6.612,0,0,1-.387-3.472c.106-1.083.279-2.112.426-3.169.625-4.195,1.051-8.582,1.283-12.717C126.371,418.232,126.276,411.062,126.3,408.712Z" transform="matrix(-1, 0, 0, 1, 380, 0)" /><g data-name="default" id="default-3" transform="matrix(-1, 0, 0, 1, 380, 0)"><path class="cls-2 color-body" d="M259.039,439.566c-1.139-18.561-3.924-46.029-22.5-62.515-15.9-14.111-22.106-3.869-24.321-.71s-5.633,16.01-1.424,26.085,7.753,25.3,10.376,45.725c2.91,22.661,8.17,41.038,19.9,39.455C255.749,485.622,259.977,454.841,259.039,439.566Z" style="fill:#ffffff;--backup-fill:#ffffff" /><path class="cls-2 color-body" d="M210.791,402.426c4.766,11.192,7.753,25.3,10.376,45.725,2.91,22.661,8.17,41.038,19.894,39.455,14.687-1.984,18.916-32.765,17.978-48.04-1.139-18.561-3.924-46.029-22.5-62.515-15.9-14.111-24.321-.71-24.321-.71" style="fill:#ffffff;--backup-fill:#ffffff" /><path d="M212.163,376.309a4.751,4.751,0,0,1,1.129-2.015,12.819,12.819,0,0,1,10.682-4.683,19.8,19.8,0,0,1,7.878,2.5,31.055,31.055,0,0,1,3.614,2.394l1.727,1.341c.569.456,1.068.978,1.606,1.465a36.32,36.32,0,0,1,3.058,3.045l1.414,1.585.7.784.627.825a69.022,69.022,0,0,1,7.46,11.874c5.769,11.243,8.546,24.7,9.841,38,.173,1.668.321,3.334.456,5s.25,3.463.275,5.164a98.609,98.609,0,0,1-.362,10.251,85.588,85.588,0,0,1-3.941,19.875,43.34,43.34,0,0,1-3.783,8.28,26.328,26.328,0,0,1-2.873,3.895,18.251,18.251,0,0,1-3.919,3.376,14.721,14.721,0,0,1-5.079,2.1,13.243,13.243,0,0,1-10.892-2.289,17.757,17.757,0,0,1-3.651-3.626,32.965,32.965,0,0,1-4.335-7.95,64.54,64.54,0,0,1-2.53-7.962,130.476,130.476,0,0,1-2.827-15.476c-.642-5.077-1.041-9.863-1.6-14.526-.534-4.66-1.115-9.159-1.78-13.464a139.334,139.334,0,0,0-5.314-23.2,54.861,54.861,0,0,1,5.944,10.1,98.283,98.283,0,0,1,4.82,12.781,109.657,109.657,0,0,1,4.5,21.66c.275,4.421.663,8.74,1.259,12.952a83.864,83.864,0,0,0,2.535,12.18,40.966,40.966,0,0,0,2.069,5.552,19.428,19.428,0,0,0,2.946,4.7,9.678,9.678,0,0,0,1.887,1.709,6.947,6.947,0,0,0,2.153,1.041,8.1,8.1,0,0,0,4.8-.173c3.185-1.026,5.715-3.861,7.544-6.956a43.264,43.264,0,0,0,4.168-10.067,88.117,88.117,0,0,0,3.1-20.923q.079-2.567.006-5.078c-.038-1.666-.188-3.316-.318-5-.264-3.34-.588-6.609-1-9.806a128.055,128.055,0,0,0-3.57-18.237,79.522,79.522,0,0,0-6.245-15.941,58.107,58.107,0,0,0-9.166-12.837l-1.325-1.349c-.23-.233-.454-.485-.7-.714l-.767-.666-1.581-1.4c-.542-.471-1.148-.848-1.731-1.294a17.28,17.28,0,0,0-7.869-3.387,11.891,11.891,0,0,0-7.352,1.539A14.682,14.682,0,0,0,212.163,376.309Z" /></g><path class="cls-1" d="M212.918,415.351a46.615,46.615,0,0,0,41.509-10.261,266.834,266.834,0,0,0,24.955,55.772,24.917,24.917,0,0,1-12.284,1.683c4.268,31.383-31.7,21.407-34.457-1.6a22.854,22.854,0,0,1-15.857,12.211L210.816,415.4" transform="matrix(-1, 0, 0, 1, 380, 0)" /><path d="M210.877,415.394c.732.971,2.051,10.809,3.464,22.2.7,5.7,1.444,11.774,2.126,17.328.354,2.776.692,5.42,1,7.821.163,1.2.318,2.336.463,3.4q.114.8.22,1.535l.053.356.035.182q.035.174.069.342c.262.824.057,2.2,1.272,1.373a9.58,9.58,0,0,0,1.179-.569c.091-.057.569-.325.954-.533.379-.246.771-.47,1.143-.729a20.479,20.479,0,0,0,2.152-1.677c.351-.293.672-.62,1-.942.089-.09.149-.139.262-.262l.389-.437.783-.88c.266-.33.543-.766.816-1.147l.413-.594.207-.3.2-.37,1.661-3.074c1.151-2.158,2.32-4.429,3.314-6.389l.09.291.075.408.149.82.3,1.653q.337,1.793.676,3.593l.358,1.887.413,1.724.419,1.725c.075.281.128.6.223.85l.289.748a6.367,6.367,0,0,0,.316.713l.26.536a7.08,7.08,0,0,0,.357.686l.8,1.331.908,1.269c.311.417.667.8.994,1.207a22.322,22.322,0,0,0,10.273,6.7,13.649,13.649,0,0,0,5.607.5,7.213,7.213,0,0,0,4.254-2.059,9.142,9.142,0,0,0,2.285-4.42,7.9,7.9,0,0,0,.265-1.383,10.161,10.161,0,0,0,.161-1.442l.075-1.482-.072-2.115c-.265-2.541-.531-5.081-.792-7.58l5.085.48,1.259.094,1.219,0c.212,0,.386,0,.626-.012l.3-.019c.17-.01.34-.022.51-.042.34-.028.678-.073,1.017-.118l.5-.079c.179-.029.08-.015.109-.021a.047.047,0,0,0,.011-.016c0-.009,0-.016-.013-.02h-.006l-.929-1.641c-3.175-5.665-6.059-11.4-8.688-17.124s-4.958-11.444-7.029-17.081c-1.042-2.816-1.995-5.621-2.9-8.389l-.658-2.074-.161-.517a.507.507,0,0,1-.029-.129l-.029-.173c-.043-.23-.08-.549-.156-.818l-.489.282-.329.18-.194.109-.709.425c-.944.562-1.867,1.14-2.838,1.611-.954.5-1.907.982-2.885,1.386a48.037,48.037,0,0,1-11.648,3.444,45.5,45.5,0,0,1-21.042-1.468,68.509,68.509,0,0,0,10.44-.685,55.7,55.7,0,0,0,11.292-2.9,53.249,53.249,0,0,0,10.016-5.055c.725-.489,1.457-.926,2.112-1.439l.99-.721.244-.175a3.634,3.634,0,0,0,.324-.251l.98-.808c1.3-1.086,2.582-2.089,3.813-3.153s2.424-2.069,3.551-3.029c1.13,3.42,2.078,6.434,2.774,8.837l.659,2.187.3,1.115.629,2.215q.63,2.209,1.316,4.378c.9,2.9,1.869,5.743,2.862,8.549q3.026,8.4,6.584,16.211c1.175,2.606,2.4,5.153,3.652,7.657q.959,1.869,1.9,3.715c.69,1.293,1.154,2.179,2.257,4.165q.654,1.257,1.3,2.508l.646,1.237.322.615.08.154c0,.042-.1.048-.138.074l-.335.126a39.4,39.4,0,0,1-5.34,1.707c-.456.116-.931.182-1.394.274-.463.072-.737.113-1.116.157-.706.084-1.424.14-2.12.167a15.878,15.878,0,0,1-2.393-.11c-.02,0-.066-.019-.066,0l.007.078.014.155.028.31.056.623a11.409,11.409,0,0,1,.061,1.26l.019.988a9.533,9.533,0,0,1-.038,1.08c-.061.722-.06,1.44-.176,2.158a16.677,16.677,0,0,1-3.106,8.178,12.436,12.436,0,0,1-3.32,3.035,13.282,13.282,0,0,1-4.13,1.579,17.517,17.517,0,0,1-8.345-.43,27.229,27.229,0,0,1-13.082-8.527c-.4-.5-.834-.984-1.2-1.508l-1.095-1.582-.966-1.655c-.164-.273-.283-.571-.426-.855l-.241-.5a10.925,10.925,0,0,1-.628-1.677,6.61,6.61,0,0,1-.21-.828l-.077-.41-.038-.2-.019-.1a.69.69,0,0,0-.05.093,11.905,11.905,0,0,1-1.737,2.641l-.326.349c-.134.135-.158.184-.407.41-.411.376-.8.772-1.238,1.117a23.95,23.95,0,0,1-2.658,1.969c-.452.313-.94.566-1.41.846-.233.143-.484.254-.725.381l-.366.185c-.159.081-.313.16-.493.239-.7.275-1.407.6-2.111.834-.7.207-1.413.467-2.11.625-.7.178-1.392.357-2.115.52l-1.072.251-.179-1.032q-.176-1.038-.349-2.071c-.125-.675-.171-1.471-.259-2.2q-.621-6.117-1.215-11.965-.523-5.492-.941-10.751C211.169,437.3,210.872,418.994,210.877,415.394Z" transform="matrix(-1, 0, 0, 1, 380, 0)" /><path class="cls-1" d="M204.009,396.537c3.641-30.244,37.909-34.765,59.338-27.6,17.2,5.755-31.785,24.294-47.874,33.519-6.81,4.541-12.027-.18-11.951-7.793" transform="matrix(-1, 0, 0, 1, 380, 0)" /><path d="M203.583,394.667c.368.308.425,2.041,1.357,4.2a7.685,7.685,0,0,0,2.191,3.074,4.725,4.725,0,0,0,3.871,1.01l.546-.092.547-.18a5.669,5.669,0,0,0,1.084-.453,7.043,7.043,0,0,0,1.075-.619l.544-.344.629-.38c1.612-.961,3.206-1.845,4.743-2.685,3.069-1.671,5.855-3.142,7.806-4.274,6.887-3.993,14.439-7.912,21.765-12.106a92.942,92.942,0,0,0,10.352-6.663,21.831,21.831,0,0,0,2.042-1.794,2.469,2.469,0,0,0,.369-.42.356.356,0,0,0,.027-.1.142.142,0,0,0-.08-.151.212.212,0,0,0-.08-.023c-.045-.01.009.019-.169-.036l-2.181-.628c-.812-.192-1.607-.428-2.428-.586-1.624-.365-3.268-.651-4.915-.874a62.27,62.27,0,0,0-9.858-.579,51.2,51.2,0,0,0-18.273,3.522,31.368,31.368,0,0,0-13.235,9.823,32.59,32.59,0,0,0-3.881,6.575,42.711,42.711,0,0,0-2.291,6.786,22.824,22.824,0,0,1-.58-7.767A26.277,26.277,0,0,1,207.1,379.9a26.707,26.707,0,0,1,5.331-7.389,20.8,20.8,0,0,1,5.409-3.895,52.383,52.383,0,0,1,17.494-4.5,71.167,71.167,0,0,1,16.413.488,69.984,69.984,0,0,1,7.634,1.525c1.233.337,2.456.673,3.651,1.077l.919.3a11.369,11.369,0,0,1,1.108.452,7.836,7.836,0,0,1,2.061,1.318,4.27,4.27,0,0,1,1.244,1.983,4.13,4.13,0,0,1-.125,2.318,7.709,7.709,0,0,1-1.155,2.079,14.262,14.262,0,0,1-1.467,1.613,41.518,41.518,0,0,1-5.7,4.35c-3.865,2.518-7.718,4.651-11.461,6.673s-7.4,3.877-10.938,5.645c-7.066,3.544-13.756,6.634-19.808,9.6l-2.368,1.227a14.7,14.7,0,0,1-1.558.618,13.144,13.144,0,0,1-1.756.384,8.261,8.261,0,0,1-3.748-.418,7.588,7.588,0,0,1-2.913-2.15,9.779,9.779,0,0,1-1.935-5.321A14.052,14.052,0,0,1,203.583,394.667Z" transform="matrix(-1, 0, 0, 1, 380, 0)" /><path class="cls-3" d="M263.949,373.271c-2.981-2.626-8.287-2.219-12.132-3.249-15.021,9.116-30.211,20.838-47.713,24.063a20.846,20.846,0,0,0,1.159,6.323s3.361,6.609,10.209,2.049C231.557,393.236,250.261,385.163,263.949,373.271Z" style="" transform="matrix(-1, 0, 0, 1, 380, 0)" /><path d="M263.969,373.294a17.878,17.878,0,0,1-2.876,2.842c-1.705,1.445-4.027,3.285-6.64,5.081-5.182,3.666-11.426,7.245-14.838,9.326-6.027,3.682-12.678,7.282-19.245,11.056l-2.434,1.411-2.513,1.486a10.671,10.671,0,0,1-3.176,1.218,7.985,7.985,0,0,1-3.675-.219,8.163,8.163,0,0,1-3.093-1.846,10.155,10.155,0,0,1-1.154-1.279c-.174-.226-.339-.465-.5-.714a5.452,5.452,0,0,1-.271-.484l-.195-.462a18.41,18.41,0,0,1-.789-3.023c-.09-.491-.164-.951-.235-1.466a14.518,14.518,0,0,1-.148-2.54l.017-.547.009-.279c.011-.088-.029-.217.094-.215l1.035-.335a8.076,8.076,0,0,1,1.1-.288l1.04-.23c.749-.168,1.5-.322,2.234-.55l2.213-.624,2.179-.733a80.776,80.776,0,0,0,8.446-3.487c5.482-2.579,10.632-5.6,15.546-8.532s9.582-5.819,14.034-8.311l1.137-.655.326-.19.369.1.729.195c.657.17,1.179.285,1.777.4l3.514.655c2.3.473,4.684,1.167,6.335,2.793-1.822-1.066-4.142-1.27-6.588-1.3-1.231-.02-2.513,0-3.849-.057-.334-.022-.675-.032-1.009-.067l-.5-.048a1.87,1.87,0,0,0-.226,0c-.128-.034-.207.111-.292.188a2.213,2.213,0,0,1-.287.23l-.388.29a116.593,116.593,0,0,1-10.332,7.176c-9.016,5.054-17.63,9.812-26.353,12.847-1.084.391-2.187.7-3.265,1.059-1.084.333-2.184.589-3.261.886-.536.158-1.09.241-1.631.363l-1.127.232-.245.05c-.085.014-.031.145-.046.212,0,.165.016.329.029.493l.057.53.109.774a17.669,17.669,0,0,0,.673,2.958,3.389,3.389,0,0,0,.124.32,1.447,1.447,0,0,0,.133.258c.119.2.255.392.4.581a7.16,7.16,0,0,0,.952,1.035,5.036,5.036,0,0,0,4.94,1.179,8.775,8.775,0,0,0,2.477-1.159l2.55-1.478,5-2.816,9.548-5.224c6.157-3.338,11.845-6.488,17.078-9.556,2.459-1.5,5.884-3.441,8.8-5.323,1.456-.94,2.811-1.828,3.885-2.575Z" transform="matrix(-1, 0, 0, 1, 380, 0)" /><path class="cls-3" d="M254.974,438.221c4.428,7.176,6.34,18.825.321,25.516-10.244,2.711-17.438-13.763-18.411-22.15-3.136,6.614-13.548,19.863-21.8,15.149q.849,8.21,1.7,16.419a22.853,22.853,0,0,0,15.858-12.211c2.778,23.037,38.728,32.959,34.457,1.6a24.917,24.917,0,0,0,12.284-1.683q-4.753-8.01-8.915-16.353A19.682,19.682,0,0,1,254.974,438.221Z" style="" transform="matrix(-1, 0, 0, 1, 380, 0)" /><path d="M255,438.2c.339.163,1.363,1.217,3.207,2.433a20.524,20.524,0,0,0,7.859,3.1,18.267,18.267,0,0,0,2.57.241l.665.008.9-.032c.745-.269.857.543,1.167,1.038l1.387,2.635q.692,1.284,1.4,2.591c.946,1.736,1.923,3.481,2.908,5.2l1.484,2.545,1.955,3.274c-.679.333-1.486.618-2.23.894-.375.124-.8.28-1.131.372-.286.086-.571.172-.857.244a26.491,26.491,0,0,1-6.476.883h-.956l-.648-.028a3.16,3.16,0,0,0,.057.54l.154,1.053c.006.048.013.072.018.139l.011.229.023.459.045.921a13.908,13.908,0,0,1,.017,1.861c-.034.625-.026,1.254-.1,1.884a17.071,17.071,0,0,1-2.377,7.457,12.145,12.145,0,0,1-6.506,5.034,16.1,16.1,0,0,1-8.2.318,26.094,26.094,0,0,1-13.776-8.034,26.893,26.893,0,0,1-4.505-6.684,15.372,15.372,0,0,1-.791-1.861l-.362-.983c-.043-.1-.06-.211-.084-.256a2.588,2.588,0,0,1-.14.276l-.017.026-.011.017-.07.093q-.294.4-.62.761c-.417.5-.86.977-1.317,1.435a25.126,25.126,0,0,1-6.114,4.521,24.1,24.1,0,0,1-2.883,1.281l-.742.27-1.282.347c-.842.242-1.768.453-2.693.665l-.691.16-.087.02c-.036.018-.055.01-.05-.031l-.023-.173-.045-.344-.183-1.38-.293-2.709-.307-2.874q-.773-7.41-1.534-14.712l1.99,1,1.055.529.972.4a8.435,8.435,0,0,0,.958.366l.115.029.151.016.084.011.167.021a4.97,4.97,0,0,0,.682.034,7.735,7.735,0,0,0,2.852-.633,18.854,18.854,0,0,0,5.413-3.661,38.136,38.136,0,0,0,4.529-5.056c.338-.452.671-.907.989-1.369l.15-.215.235-.364.465-.727c.315-.467.607-1,.9-1.524,1.151-2.132,2.422-4.794,3.476-6.866q.318,2.413.634,4.812a40.792,40.792,0,0,0,.758,4.46c.072.341.153.67.24.993l.2.691.288.958q.3.954.647,1.887a35.787,35.787,0,0,0,3.441,6.972,17.265,17.265,0,0,0,4.917,5.218,8.224,8.224,0,0,0,3,1.2,6.83,6.83,0,0,0,1.563.092,5.734,5.734,0,0,0,.755-.078c.047-.018.182.019.231-.079l.37-.437a3.879,3.879,0,0,0,.493-.668,10.519,10.519,0,0,0,.842-1.429,9.912,9.912,0,0,0,.662-1.521l.285-.779.2-.805a20.937,20.937,0,0,0,.519-6.526,28.757,28.757,0,0,0-3.468-11.75,25.491,25.491,0,0,1,4.8,9.835,23.876,23.876,0,0,1,.731,6.477,17.341,17.341,0,0,1-1.509,6.715c-.249.531-.551,1.039-.829,1.557a6.778,6.778,0,0,1-.493.731l-.694.934-.212.283c-.039.042-.065.1-.113.132l-.17.04-.7.166-.607.144c-.148.041-.3.049-.454.075a10.827,10.827,0,0,1-1.833.124,11.682,11.682,0,0,1-6.317-2.283,18.971,18.971,0,0,1-3.92-3.823,23.922,23.922,0,0,1-2.24-3.435,41.643,41.643,0,0,1-2.975-7.117c-.194-.6-.365-1.2-.53-1.806a1.717,1.717,0,0,1-.093-.417l-.022-.184c-.029-.26-.063-.579-.083-.949-.114.157-.283.414-.491.682l-.165.214-.393.536q-.562.772-1.152,1.516a40.159,40.159,0,0,1-5.174,5.463,20.774,20.774,0,0,1-6.386,3.937,10.523,10.523,0,0,1-3.8.642,5.832,5.832,0,0,1-.977-.084,2.956,2.956,0,0,1-.3-.049l-.217-.058a3.806,3.806,0,0,1-.849-.348l-.149-.076.013.157.025.319.053.649q.092,1.011.181,2.013.229,2.431.455,4.829t.455,4.736l.066.7.034.354.016.177c.009.055-.008.146.071.1l.687-.152.726-.207a21.953,21.953,0,0,0,10.689-7.491,11.113,11.113,0,0,0,.9-1.306c.285-.477.582-.9.856-1.418l.829-1.5.761-1.452c.043-.02.061.125.082.255l.063.376.127.75.254,1.5c.2,1,.447,1.993.668,2.989a4.631,4.631,0,0,0,.213.714l.172.472.343.941c.258.615.558,1.21.832,1.813a24.593,24.593,0,0,0,4.634,6.3A22.763,22.763,0,0,0,253.5,481.3a12,12,0,0,0,6.725-1.039,9.959,9.959,0,0,0,4.506-4.61,17.059,17.059,0,0,0,1.532-6.4,26.146,26.146,0,0,0,.023-3.312l-.011-.412c0-.114-.035-.385-.051-.57l-.126-1.227c-.076-.81-.186-1.648-.231-2.429l2.533.237,1.153.052h.76a24.392,24.392,0,0,0,5.918-.822c.588-.163.643-.18.9-.263a3.549,3.549,0,0,0,.634-.249l-.957-1.7-1.541-2.8c-1.161-2.109-2.462-4.643-3.751-7.314l-.963-2.024-.227-.486-.143-.324-.147-.335c-.07-.078-.22-.026-.328-.046-.24,0-.44-.01-.885-.041-.386-.016-.769-.053-1.148-.105a17.394,17.394,0,0,1-2.22-.4,19.969,19.969,0,0,1-7.09-3.3A18.981,18.981,0,0,1,255,438.2Z" transform="matrix(-1, 0, 0, 1, 380, 0)" /></svg>