<svg xmlns="http://www.w3.org/2000/svg" id="Art" viewBox="0 0 380 600"><defs transform="matrix(-1, 0, 0, 1, 380, 0)"><style>.cls-1{fill:#ffffff;}.cls-2{fill:#ff3881;}.cls-3{fill:blue;}.cls-4{fill:#fff;}</style></defs><g id="default" transform="matrix(-1, 0, 0, 1, 380, 0)"><path class="cls-1 color-body" d="M160.412,391.443c-7.582,9.513-14.229,22.312-22.211,41.293-8.856,21.061-18.834,37.366-29.709,32.709-13.624-5.834-9.478-36.627-4.5-51.1,6.055-17.583,19.428-51.04,47.782-59.992,10.883-3.436,14.227,11.569,14.227,11.569" style=";fill:#ffffff;--backup-fill:#ffffff" /><path d="M165.947,365.939c-.44-.388-1.22-2.975-3.311-6.14a11.8,11.8,0,0,0-4.514-4.165,7.376,7.376,0,0,0-3.27-.647,9.385,9.385,0,0,0-1.766.244l-.889.259-.948.349a49.192,49.192,0,0,0-14.275,8.128,57.522,57.522,0,0,0-9.412,9.669c-7.36,9.662-13.088,21.508-17.59,33.918-.567,1.551-1.111,3.116-1.646,4.685s-1.071,3.182-1.519,4.674a90.7,90.7,0,0,0-2.2,9.4,85.476,85.476,0,0,0-1.432,18.767,43.512,43.512,0,0,0,1.008,7.616,18.355,18.355,0,0,0,2.6,6.285,7.5,7.5,0,0,0,4.289,3.11,5.092,5.092,0,0,0,2.314.024,8.1,8.1,0,0,0,2.521-1.071,21.852,21.852,0,0,0,5.02-4.608,57.042,57.042,0,0,0,4.348-6.074,136.894,136.894,0,0,0,7.2-13.3c1.09-2.257,2.1-4.48,3.139-6.746s2.078-4.493,3.133-6.676c2.11-4.365,4.264-8.554,6.487-12.514a107.486,107.486,0,0,1,14.292-20.4c-1.433,3.123-3.134,6.869-4.826,10.907s-3.376,8.381-4.98,12.608c-3.2,8.461-6.094,16.462-8.124,20.507-4.173,8.251-8.377,16.247-13.84,23.355a43.511,43.511,0,0,1-4.532,5.019,21.321,21.321,0,0,1-5.745,3.963,13.429,13.429,0,0,1-3.535,1.017,11.7,11.7,0,0,1-3.722-.137,13.036,13.036,0,0,1-6.187-3.366,16.834,16.834,0,0,1-3.674-5.522,28.7,28.7,0,0,1-1.772-5.985,56.257,56.257,0,0,1-.838-11.805,103.905,103.905,0,0,1,3.1-22.039c.441-1.746.922-3.471,1.482-5.171.553-1.673,1.107-3.311,1.686-4.94q1.719-4.882,3.638-9.529a131.2,131.2,0,0,1,8.694-17.45A84.1,84.1,0,0,1,127.418,367.5a65.533,65.533,0,0,1,6.521-5.92,55.826,55.826,0,0,1,7.131-4.7,42.653,42.653,0,0,1,8.363-3.512l1.184-.341c.39-.115.789-.228,1.25-.317a11.946,11.946,0,0,1,2.732-.274,9.474,9.474,0,0,1,5.1,1.661,12.084,12.084,0,0,1,3.247,3.459,18.716,18.716,0,0,1,1.755,3.551A22.679,22.679,0,0,1,165.947,365.939Z" /></g><path class="cls-2 color-shirt" d="M130.662,409.964c-5.023-1.395-15.235-7.309-21.209-18.558-1.289-2.427-4.977,16.512-7.209,23.489s-4.186,14.232-1.4,17.86-.279,3.349-1.116,6.977-.558,6.7,5.86,9.209,22.047,3.349,28.186-1.395S130.662,409.964,130.662,409.964Z" style="" transform="matrix(-1, 0, 0, 1, 380, 0)" /><path d="M130.709,409.951c.66.49,2.545,6.406,4.133,13.418s2.834,15.106,2.395,20.028a10.916,10.916,0,0,1-.762,3.435,4.659,4.659,0,0,1-.475.919c-.1.154-.182.308-.3.459l-.407.445a5.469,5.469,0,0,1-.42.409l-.366.268-.743.535a20.427,20.427,0,0,1-6.424,2.576,37.384,37.384,0,0,1-6.684.94,50.348,50.348,0,0,1-6.76-.044,42.375,42.375,0,0,1-6.832-1.026,22.012,22.012,0,0,1-3.476-1.135,16.868,16.868,0,0,1-3.392-1.849,9.143,9.143,0,0,1-3-3.5,8.931,8.931,0,0,1-.747-4.616,15.446,15.446,0,0,1,.287-1.922,9.794,9.794,0,0,1,.7-2.154,11.058,11.058,0,0,1,1.091-1.814l.092-.127a.479.479,0,0,0,.052-.074l0-.015,0-.028a.071.071,0,0,0-.027-.049l-.02-.014-.24-.318-.327-.474-.355-.548a11.692,11.692,0,0,1-.55-1.126,10.911,10.911,0,0,1-.633-2.225,21.4,21.4,0,0,1,.31-7.7A61.612,61.612,0,0,1,98.56,416l.967-3.041c.3-.971.575-1.973.851-2.975,1.1-4.026,2.116-8.056,3.245-11.972q.217-.738.432-1.468c.252-.87.527-1.794.807-2.655a11.531,11.531,0,0,1,2.033-4.224,3.994,3.994,0,0,1,1.222-.88,2.56,2.56,0,0,1,.753-.218.879.879,0,0,1,.37.025c.09.037.2.1.293.156q.587.338,1.168.673l.287.171c.1.082.175.054.308.263l.721.96c.586,1,1.132,2.024,1.715,2.942L115,395.648c.666.9,1.312,1.8,2.023,2.629a42.982,42.982,0,0,0,4.4,4.583,34.879,34.879,0,0,0,9.477,6.227c-3.357.138-8.088-1.352-12.282-3.878a34.462,34.462,0,0,1-5.858-4.4,32.274,32.274,0,0,1-2.4-2.5l-.269-.316c-.04-.038-.03-.01-.046-.018a.381.381,0,0,0-.055.008.114.114,0,0,0-.063.044c-.049.1,0,.127-.056-.051s-.183-.21-.324-.094l-.054.05-.028.03c-.012.02-.01-.013-.047.1l-.344,1q-.333,1.005-.664,2c-.867,2.677-1.675,5.349-2.481,7.989q-.62,1.987-1.228,3.944c-.41,1.307-.9,2.643-1.331,3.857a56.243,56.243,0,0,0-2.132,7.355c-.459,2.388-.679,4.874.068,6.762a3.364,3.364,0,0,0,.326.655l.188.305c.063.1.2.286.294.425a8.414,8.414,0,0,1,.625,1.029,4.26,4.26,0,0,1,.422,1.188,3.053,3.053,0,0,1-.51,2.377c-.223.354-.506.707-.678.937a7.65,7.65,0,0,0-.453.659,4.785,4.785,0,0,0-.562,1.332,11.116,11.116,0,0,0-.294,1.589,4.753,4.753,0,0,0,.39,2.759c.838,1.581,2.828,2.654,4.8,3.426a27.534,27.534,0,0,0,6.2,1.433,50.866,50.866,0,0,0,6.277.38,42.39,42.39,0,0,0,6.027-.409,23.8,23.8,0,0,0,5.491-1.349,7.635,7.635,0,0,0,1.2-.533l.578-.286c.179-.106.337-.229.508-.34l.5-.335c.15-.11.16-.182.262-.256a3.108,3.108,0,0,0,.443-.788,8.76,8.76,0,0,0,.559-2.291,21.183,21.183,0,0,0,.178-2.583,78.621,78.621,0,0,0-.733-10.4c-.411-3.226-.974-7.642-1.471-11.539C131.336,414.446,130.865,411.065,130.709,409.951Z" transform="matrix(-1, 0, 0, 1, 380, 0)" /><path d="M107.149,419.721a12.853,12.853,0,0,1,1.215,1.393,34.381,34.381,0,0,0,2.659,2.7,44.244,44.244,0,0,0,6.3,4.879c.342.2.689.405,1.034.592.173.093.346.182.511.26l.234.1a.59.59,0,0,0,.091.03c.016.006.022,0,.022,0h0l-.035.123-.071.236a1.614,1.614,0,0,0-.039.231.508.508,0,0,0-.02.158c.01.065.005.089.012.111s.019.028.011.028-.083-.008-.214.023a.878.878,0,0,0-.168.071,2.269,2.269,0,0,0-.237.1,2.568,2.568,0,0,0-.221.131c-.031.017-.014,0-.023,0l-.017-.018-.068-.075-.393-.4c-.307-.331-.647-.664-.921-1.01a44.833,44.833,0,0,1-3.168-4.328c-.974-1.5-1.9-3.033-2.772-4.576l-.646-1.16-.756-1.437-1.053-2.217a9.43,9.43,0,0,1-.438-1.051l-.379-1.01c-.628-2.208-.244-2.867.893-3.326a1.6,1.6,0,0,1,.654-.051,2.3,2.3,0,0,1,1,.378,10.345,10.345,0,0,1,1.415,1.124c.5.454,1.021.951,1.531,1.445q1.932,1.9,3.81,3.749l2.894,2.8a62.353,62.353,0,0,0,10.687,8.545,17.247,17.247,0,0,1-6.555-1.981,20.409,20.409,0,0,1-4.937-3.327c-1.692-1.75-3.276-3.467-4.807-5.122l-1.13-1.22-.542-.636c-.375-.428-.811-.91-1.3-1.379-.247-.2-.489-.529-.814-.561a1.253,1.253,0,0,0,.078.789,14.187,14.187,0,0,0,.655,1.638l.393.814.589,1.143c.449.837.9,1.657,1.359,2.452a51.16,51.16,0,0,0,5.8,8.406,5.243,5.243,0,0,1,.465.559,1.845,1.845,0,0,1,.143.246,1.2,1.2,0,0,1,.089.256.985.985,0,0,1,.014.318.771.771,0,0,1-.047.207.962.962,0,0,1-.179.3.938.938,0,0,1-.71.309,1.107,1.107,0,0,1-.269-.032,1.857,1.857,0,0,1-.27-.086,7.9,7.9,0,0,1-1.184-.645c-.691-.439-1.327-.9-1.943-1.36a39.647,39.647,0,0,1-3.394-2.875,24.2,24.2,0,0,1-3.19-3.669A11.186,11.186,0,0,1,107.149,419.721Z" transform="matrix(-1, 0, 0, 1, 380, 0)" /><g data-name="default" id="default-2" transform="matrix(-1, 0, 0, 1, 380, 0)"><path class="cls-1 color-body" d="M239.64,463.371c-.822-7.144-2.461-16.135-4.759-22.342-13.642-36.838,9.04-78.792-30.636-91.823-29.145-9.571-59.413,5.745-75.671,54.174-5.9,17.562-7.776,42.306-3.484,59.991" style=";fill:#ffffff;--backup-fill:#ffffff" /><path d="M125.031,463.385c-.41-.5-1.421-3.491-2.2-8.059a99.615,99.615,0,0,1-1.25-17.25,134.814,134.814,0,0,1,1.693-19.911,131.447,131.447,0,0,1,11.94-37.3A86.16,86.16,0,0,1,148.808,361a58.644,58.644,0,0,1,20.166-14.4,50.6,50.6,0,0,1,24.3-3.676,57.027,57.027,0,0,1,10.347,1.976,52.19,52.19,0,0,1,9.832,3.9,35.63,35.63,0,0,1,8.75,6.428,31.624,31.624,0,0,1,6.249,8.889c3.08,6.5,4.087,13.306,4.518,19.666.422,6.4.281,12.522.227,18.43-.07,5.9-.077,11.587.243,17.051a91.2,91.2,0,0,0,2.165,15.6q.219.921.435,1.833.26.9.517,1.787.549,1.857,1.085,3.674a74.122,74.122,0,0,1,1.621,7.38,119.041,119.041,0,0,1,1.5,13.7c-1.269-3.742-2.722-8.309-4.474-13.089-.876-2.387-1.833-4.827-2.918-7.167-.548-1.11-1.134-2.421-1.7-3.691-.6-1.268-1.024-2.59-1.531-3.886a78.5,78.5,0,0,1-4.271-26.328c.289-10.761,1.225-20.984.12-30.554a37.976,37.976,0,0,0-3.806-13.331,27.3,27.3,0,0,0-8.9-9.8,43.034,43.034,0,0,0-12.118-5.436,49.83,49.83,0,0,0-12.837-1.91,44.984,44.984,0,0,0-23.579,6.427,60.728,60.728,0,0,0-17.071,15.672,84.4,84.4,0,0,0-6.165,9.285c-.952,1.563-1.759,3.2-2.62,4.778-.783,1.626-1.623,3.2-2.327,4.836l-1.093,2.416q-.506,1.221-1.007,2.431c-.691,1.6-1.276,3.238-1.893,4.842s-1.138,3.231-1.708,4.822c-.521,1.6-1.037,3.168-1.47,4.762a134.581,134.581,0,0,0-3.788,18.792c-.389,2.918-.748,6.381-1.077,10-.268,3.625-.505,7.416-.506,10.973A101.817,101.817,0,0,0,125.031,463.385Z" /><path class="cls-1 color-body" d="M234.881,441.029c-13.642-36.838,9.04-78.792-30.636-91.823-29.144-9.571-59.413,5.745-75.671,54.174-5.9,17.562-7.776,42.306-3.484,59.991h0s6.034,10.253,50.162,13c42.248,2.629,64.388-13,64.388-13h0C238.818,456.227,237.179,447.236,234.881,441.029Z" style=";fill:#ffffff;--backup-fill:#ffffff" /></g><path class="cls-2 color-shirt" d="M184.011,446.011c17.86-2.233,48.537-.154,49.7,6.309,2.483,13.835-26.936,19.411-26.936,19.411-19.047,3.123-37.8.459-52.245-3.215-15.8-4.02-26.625-9.445-31.832-14.644-7.893-14.605,3.828-22.931,3.828-22.931s22.325,13.4,42.976,15.07" style="" transform="matrix(-1, 0, 0, 1, 380, 0)" /><path d="M169.5,446.057a7.559,7.559,0,0,1-1.821.068,29.609,29.609,0,0,1-3.814-.32,72.966,72.966,0,0,1-11.643-2.555,123.17,123.17,0,0,1-13.765-5.04c-2.282-.965-4.489-2.013-6.6-3.025-1.046-.522-2.073-1.023-3.055-1.538l-2.05-1.067c-.073-.083-.135.06-.2.089l-.184.166c-.117.115-.235.221-.339.338s-.2.2-.319.351l-.475.556c-.309.372-.57.759-.84,1.113l-.673,1.084a14.793,14.793,0,0,0-1.928,8.068,20.986,20.986,0,0,0,.27,2.112c.191.7.279,1.406.539,2.091s.489,1.378.778,2.055l.966,1.9a.322.322,0,0,0,.126.164l.088.071.208.184c.269.251.56.488.86.719.575.48,1.212.913,1.831,1.361a46.651,46.651,0,0,0,4.012,2.416,72.509,72.509,0,0,0,8.755,3.943,131.819,131.819,0,0,0,18.721,5.421,144.74,144.74,0,0,0,18.879,2.872,123.642,123.642,0,0,0,16.492.334c2.725-.108,5.426-.367,8.1-.672.671-.067,1.333-.184,2-.273l1.894-.274c1.25-.25,2.562-.563,3.834-.895a57.725,57.725,0,0,0,14.284-5.557,22.86,22.86,0,0,0,2.911-2,12.94,12.94,0,0,0,2.286-2.3,7.511,7.511,0,0,0,1.324-2.515,4.776,4.776,0,0,0,.143-.652,2.442,2.442,0,0,0,.076-.66,3.421,3.421,0,0,0,.013-.672c-.02-.2-.05-.513-.046-.6a.337.337,0,0,0-.026-.116l-.026-.056a.669.669,0,0,1-.1-.107,4.114,4.114,0,0,0-.9-.691,16.342,16.342,0,0,0-2.814-1.269,49.561,49.561,0,0,0-6.512-1.682,124.8,124.8,0,0,0-13.121-1.742,164.185,164.185,0,0,0-23.526-.392c6.231-2.052,15.839-3.424,24.99-3.575s17.893.833,22.66,3.355a12.782,12.782,0,0,1,1.282.754,10.11,10.11,0,0,1,1.293.984,5.942,5.942,0,0,1,.642.659l.331.382c.1.145.2.305.294.459a6.656,6.656,0,0,1,.766,1.972l.084,1.011a5.863,5.863,0,0,1,.027.929,10.654,10.654,0,0,1-.195,1.857l-.19.911c-.09.294-.194.582-.293.87a10.925,10.925,0,0,1-.73,1.645,16.2,16.2,0,0,1-4.321,4.963,38.759,38.759,0,0,1-10.363,5.531,80.21,80.21,0,0,1-10.635,3.114c-.9.2-1.745.374-2.706.546l-2.685.338c-1.768.219-3.533.366-5.283.5a142.024,142.024,0,0,1-39.49-3.147,147.1,147.1,0,0,1-17.58-4.852,72.216,72.216,0,0,1-15.718-7.408,34.969,34.969,0,0,1-3.446-2.568c-.277-.231-.534-.484-.8-.728l-.555-.515a4.38,4.38,0,0,1-.341-.644q-.476-.984-.947-1.96a21.639,21.639,0,0,1-1.853-8.316,17.236,17.236,0,0,1,2.037-8.15,19.559,19.559,0,0,1,2.284-3.413,17.784,17.784,0,0,1,3.789-3.394c.856.5,1.714,1.016,2.562,1.486l1.681.927c1.083.581,2.157,1.161,3.237,1.7,2.148,1.113,4.294,2.138,6.414,3.131a165.515,165.515,0,0,0,16.558,6.682c2.86.954,5.576,1.688,7.795,2.2S168.65,445.863,169.5,446.057Z" transform="matrix(-1, 0, 0, 1, 380, 0)" /><path d="M210.854,468.58c-.488-.146-.281-1.628-.494-2.236a9.7,9.7,0,0,1-.338-3.309,7.048,7.048,0,0,1,1.691-4.676c1.245.7,2.037,1.849,1.759,2.187-2.236,2.722-.978,5.163-1.625,6.861A3.423,3.423,0,0,1,210.854,468.58Zm-.5-4.473h0" transform="matrix(-1, 0, 0, 1, 380, 0)" /><path d="M194.423,470.762c-.493-.12-.349-1.442-.586-1.979a7.754,7.754,0,0,1-.471-2.94,6.23,6.23,0,0,1,.377-2.355,5.552,5.552,0,0,1,.5-1.023,3.15,3.15,0,0,1,.184-.344c.017-.023.036-.059.056-.07l.019.092.046.183.014.044s0,.006.008.013l.01,0,0,0c-.141-.023,1.324.231.661.116l-.327-.052-.329-.041s0,.01,0,.01l0,.016.041-.045.083-.1.173-.194a7.708,7.708,0,0,1,.858.466c.266-.122.459.112.639.205.327.354.467.68.333.827-2.142,2.421-.78,4.591-1.356,6.1C195.277,470.068,194.584,470.65,194.423,470.762Z" transform="matrix(-1, 0, 0, 1, 380, 0)" /><path d="M176.23,471.187c-.5-.107-.394-1.5-.65-2.054a8.519,8.519,0,0,1-.57-3.061,6.231,6.231,0,0,1,1.356-4.453c1.291.58,2.162,1.6,1.909,1.934-2.038,2.665-.611,4.865-1.137,6.484A3.182,3.182,0,0,1,176.23,471.187Zm-.809-4.137h0" transform="matrix(-1, 0, 0, 1, 380, 0)" /><path d="M159.4,468.256c-.5-.113-.377-1.5-.625-2.061a8.519,8.519,0,0,1-.533-3.067,6.231,6.231,0,0,1,1.41-4.436c1.283.595,2.142,1.629,1.885,1.957-2.07,2.639-.67,4.856-1.216,6.469A3.165,3.165,0,0,1,159.4,468.256Zm-.759-4.145h0" transform="matrix(-1, 0, 0, 1, 380, 0)" /><path d="M143.59,464.655c-.5-.106-.411-1.613-.673-2.206a9.812,9.812,0,0,1-.6-3.3,7.151,7.151,0,0,1,1.306-4.837c1.3.6,2.18,1.689,1.931,2.052-2.008,2.919-.557,5.267-1.064,7.027A3.444,3.444,0,0,1,143.59,464.655Zm-.856-4.453h0" transform="matrix(-1, 0, 0, 1, 380, 0)" /><path d="M130.5,457.533c-.506-.048-.554-1.378-.868-1.876a7.808,7.808,0,0,1-.9-2.839,5.727,5.727,0,0,1,.867-4.366c1.345.411,2.321,1.287,2.106,1.628-1.738,2.744-.082,4.675-.43,6.266A3.025,3.025,0,0,1,130.5,457.533Zm-1.251-3.832h0" transform="matrix(-1, 0, 0, 1, 380, 0)" /><path class="cls-2 color-shirt" d="M127.094,392.963c-2.037,6.391-11.472,38.821-4.4,51.909,6.759,13.319,44.2,22.4,84.077,15.859,0,0,29.419-4.576,26.936-18.411-1.16-6.463-18.247-22.1-17.667-29.972l-1.507-4.751c-2.615-8.243,17.652-11.384-19.049-13.289-15.065-.781-21.092-4.2-29.682-6.961-15.065-4.839-19.667-6.307-23.932-10.824-2.266-2.4-6.418-10.884-6.418-10.884-9.133,3.5-17.5,9.75-20.505,14.619,1.217,4.574,7.342,17.311,8.458,25.265" style="" transform="matrix(-1, 0, 0, 1, 380, 0)" /><path d="M123.361,405.529c-.254-.494-.668-2.507-1.7-5.5-1-3-2.557-6.964-4.454-11.526q-.7-1.719-1.453-3.547l-.733-1.87q-.186-.473-.357-.966c-.126-.352-.283-.8-.4-1.215l-.194-.634-.049-.159.089-.139.183-.277c.249-.366.481-.753.755-1.1.487-.665.924-1.17,1.422-1.741a37.519,37.519,0,0,1,3.192-3.081,53.307,53.307,0,0,1,7.348-5.209,56.474,56.474,0,0,1,9-4.323l1.2,2.353q.518.975,1.03,1.937c.6,1.1,1.205,2.168,1.823,3.2s1.246,2.034,1.9,2.927c.166.21.33.436.494.63s.311.367.52.56q.575.584,1.175,1.093c3.191,2.7,6.989,3.929,9.982,4.963,4.359,1.441,8.876,2.716,13.5,4.134,4.66,1.478,9.107,3.192,13.739,4.217a77.51,77.51,0,0,0,14.289,1.765c5.008.218,10.021.433,15.167,1.052,1.3.174,2.587.35,3.956.668l.511.116c.194.051.489.153.728.228a7.883,7.883,0,0,1,1.514.583,4.645,4.645,0,0,1,2.345,2.051,3.8,3.8,0,0,1,.253,3.007,7.5,7.5,0,0,1-.674,1.5l-.469.728-.39.565-.551.8c-.153.23-.3.459-.424.671a5.365,5.365,0,0,0-.557,1.185,2.725,2.725,0,0,0-.149.952,2.26,2.26,0,0,0,.071.441c.02.075.038.15.052.227l.141.439,1.164,3.574.185.571a2.1,2.1,0,0,1,.174.859,4.766,4.766,0,0,0,.035.931,3.269,3.269,0,0,0,.113.624,5.242,5.242,0,0,0,.192.681,17.778,17.778,0,0,0,1.327,2.934,101.5,101.5,0,0,0,8.37,11.723c1.514,1.949,3.038,3.9,4.494,6a33.817,33.817,0,0,1,2.09,3.391c.164.307.325.628.475.979a10.533,10.533,0,0,1,.43,1.094,9.459,9.459,0,0,1,.334,1.28l.14,1.171a11.936,11.936,0,0,1-2.186,7.829,20.464,20.464,0,0,1-5.35,5.028,47.881,47.881,0,0,1-12.16,5.454c-2.071.641-4.154,1.182-6.252,1.649-1.052.234-2.1.444-3.185.633l-3.132.48c-4.148.6-8.306,1.046-12.444,1.337-16.545,1.067-32.9-.1-47.894-4.508a67.882,67.882,0,0,1-10.86-4.2,44.806,44.806,0,0,1-5.049-2.906,29.971,29.971,0,0,1-4.547-3.8,17.374,17.374,0,0,1-3.376-5.065,24.013,24.013,0,0,1-1.614-5.539,48.234,48.234,0,0,1-.42-10.654,113.043,113.043,0,0,1,3.084-19.265,169.646,169.646,0,0,1,4.963-16.816c-.886,4.9-1.911,10.879-2.748,17.339a129.678,129.678,0,0,0-1.28,20,41.866,41.866,0,0,0,1.209,9.317,16.3,16.3,0,0,0,1.472,3.826,11.738,11.738,0,0,0,2.16,2.919,25.847,25.847,0,0,0,5.627,4.173c1.909,1.074,3.67,1.917,5.124,2.591a84.013,84.013,0,0,0,18.04,5.654A133.748,133.748,0,0,0,174.4,460.88a155.15,155.15,0,0,0,18.2-.052c2.988-.193,5.951-.44,8.88-.8,1.467-.154,2.923-.382,4.376-.58,1.435-.189,2.839-.464,4.254-.761a54.422,54.422,0,0,0,15.847-5.7,15.7,15.7,0,0,0,5.692-5.279,7.672,7.672,0,0,0,1.008-3.448,8.58,8.58,0,0,0-.115-1.8,7.938,7.938,0,0,0-.6-1.671,45.138,45.138,0,0,0-4.374-6.653l-4.907-6.411c-1.62-2.143-3.2-4.307-4.63-6.592a32.876,32.876,0,0,1-1.949-3.582,13.32,13.32,0,0,1-1.218-4.093,3.166,3.166,0,0,1-.033-.573l0-.325c-.019-.095-.056-.184-.084-.278l-.149-.46-.591-1.836-.589-1.829c-.1-.285-.195-.737-.282-1.1a7.191,7.191,0,0,1-.073-1.19,8.24,8.24,0,0,1,1.449-4.166c.183-.283.37-.57.555-.833l.489-.7a4.969,4.969,0,0,0,.558-.947.832.832,0,0,0-.172-.986,2.834,2.834,0,0,0-.939-.5l-.565-.167-.817-.19c-.566-.132-1.163-.223-1.746-.327-2.371-.363-4.786-.593-7.185-.775-4.807-.4-9.533-.462-14.32-.9a69.41,69.41,0,0,1-13.868-2.7c-4.458-1.358-8.546-3.021-12.718-4.268-4.189-1.338-8.316-2.614-12.372-4.145a40.314,40.314,0,0,1-5.981-2.765,21.963,21.963,0,0,1-2.76-1.946c-.439-.353-.843-.742-1.249-1.121-.39-.4-.77-.754-1.178-1.255a39.884,39.884,0,0,1-3.422-5.41c-.493-.9-.968-1.8-1.432-2.7l-.378-.758-.307-.64a12.269,12.269,0,0,0-1.187.448l-.509.219q-.293.123-.576.259l-1.133.533a57.3,57.3,0,0,0-10.721,6.76c-.892.714-1.73,1.494-2.549,2.294-.38.419-.8.819-1.145,1.259-.2.247-.284.318-.413.493l-.352.468a2.666,2.666,0,0,0,.108.554c.053.21.088.325.177.623.16.553.359,1.111.536,1.664.385,1.109.766,2.208,1.14,3.288,1.533,4.324,2.915,8.4,3.823,11.739A42.734,42.734,0,0,1,123.361,405.529Z" transform="matrix(-1, 0, 0, 1, 380, 0)" /><g data-name="default" id="default-3" transform="matrix(-1, 0, 0, 1, 380, 0)"><path class="cls-3" d="M259.039,439.566c-1.139-18.561-3.924-46.029-22.5-62.515-15.9-14.111-22.106-3.869-24.321-.71s-5.633,16.01-1.424,26.085,7.753,25.3,10.376,45.725c2.91,22.661,8.17,41.038,19.9,39.455C255.749,485.622,259.977,454.841,259.039,439.566Z" style="" /><path class="cls-1 color-body" d="M210.791,402.426c4.766,11.192,7.753,25.3,10.376,45.725,2.91,22.661,8.17,41.038,19.894,39.455,14.687-1.984,18.916-32.765,17.978-48.04-1.139-18.561-3.924-46.029-22.5-62.515-15.9-14.111-24.321-.71-24.321-.71" style=";fill:#ffffff;--backup-fill:#ffffff" /><path d="M212.163,376.309a4.751,4.751,0,0,1,1.129-2.015,12.819,12.819,0,0,1,10.682-4.683,19.8,19.8,0,0,1,7.878,2.5,31.055,31.055,0,0,1,3.614,2.394l1.727,1.341c.569.456,1.068.978,1.606,1.465a36.32,36.32,0,0,1,3.058,3.045l1.414,1.585.7.784.627.825a69.06,69.06,0,0,1,7.46,11.874c5.769,11.243,8.546,24.7,9.841,38,.173,1.668.321,3.334.456,5s.25,3.463.275,5.164a98.609,98.609,0,0,1-.362,10.251,85.588,85.588,0,0,1-3.941,19.875,43.312,43.312,0,0,1-3.783,8.28,26.328,26.328,0,0,1-2.873,3.895,18.251,18.251,0,0,1-3.919,3.376,14.721,14.721,0,0,1-5.079,2.1,13.243,13.243,0,0,1-10.892-2.289,17.757,17.757,0,0,1-3.651-3.626,32.965,32.965,0,0,1-4.335-7.95,64.54,64.54,0,0,1-2.53-7.962,130.476,130.476,0,0,1-2.827-15.476c-.642-5.077-1.041-9.863-1.6-14.526-.534-4.66-1.115-9.159-1.78-13.464a139.334,139.334,0,0,0-5.314-23.2,54.861,54.861,0,0,1,5.944,10.1,98.283,98.283,0,0,1,4.82,12.781,109.657,109.657,0,0,1,4.5,21.66c.275,4.42.663,8.74,1.259,12.952a83.864,83.864,0,0,0,2.535,12.18,40.966,40.966,0,0,0,2.069,5.552,19.448,19.448,0,0,0,2.946,4.7,9.647,9.647,0,0,0,1.887,1.709,6.947,6.947,0,0,0,2.153,1.041,8.1,8.1,0,0,0,4.8-.173c3.185-1.026,5.715-3.861,7.544-6.956a43.264,43.264,0,0,0,4.168-10.067,88.117,88.117,0,0,0,3.1-20.923q.079-2.565.006-5.078c-.038-1.666-.188-3.316-.318-5-.264-3.34-.588-6.609-1-9.806a128.055,128.055,0,0,0-3.57-18.237,79.522,79.522,0,0,0-6.245-15.941,58.107,58.107,0,0,0-9.166-12.837l-1.325-1.349c-.23-.233-.454-.485-.7-.714l-.767-.667-1.581-1.4c-.542-.471-1.148-.848-1.731-1.294a17.28,17.28,0,0,0-7.869-3.387,11.891,11.891,0,0,0-7.352,1.539A14.682,14.682,0,0,0,212.163,376.309Z" /></g><path class="cls-2 color-shirt" d="M215.306,419.454c15.733.931,32.891,1.092,39.588-11.42,2.7-5.043-7.247-9.586-3.73-16.4,4.634-8.985-11.826-12.654-11.826-12.654-.195,15.251-33.42,14.849-44.164,16.8" style="" transform="matrix(-1, 0, 0, 1, 380, 0)" /><path d="M195.163,395.718c.2-.35,1.578-.835,3.634-1.243s4.781-.808,7.689-1.224,6-.875,8.785-1.411a53.32,53.32,0,0,0,6.981-1.747,41.934,41.934,0,0,0,9.235-4.193,12.053,12.053,0,0,0,3.313-3.045,5.515,5.515,0,0,0,.506-.848l.21-.427c.018-.051.035-.036.056-.14l.06-.274.121-.548.243-1.1.118-1.542.208-3.019c.282.026.533.029.848.079l1.027.214,2.058.439a33.763,33.763,0,0,1,4.281,1.252l.848.313.641.252c.428.17.854.361,1.281.555a23.381,23.381,0,0,1,2.548,1.373,13.648,13.648,0,0,1,4.723,4.655,9.263,9.263,0,0,1,1.187,3.85,9.628,9.628,0,0,1-.488,3.862,12.282,12.282,0,0,1-.615,1.525l-.128.312a1.154,1.154,0,0,0-.081.235,2.228,2.228,0,0,0-.1.8,5.509,5.509,0,0,0,.878,2.3c.582,1.016,1.419,2.152,2.314,3.635a14.629,14.629,0,0,1,1.294,2.7,8.4,8.4,0,0,1,.412,4.014,7.531,7.531,0,0,1-.614,2.051l-.231.484-.177.29-.348.552a24.341,24.341,0,0,1-1.453,2.148l-1.686,1.946c-.625.578-1.267,1.133-1.9,1.684a26.261,26.261,0,0,1-8.442,4.349,46.479,46.479,0,0,1-16.068,1.53,93.6,93.6,0,0,1-13.09-1.763c3.572-1.443,8.723-2.588,13.348-3.655,4.655-1.028,8.673-2.085,10.772-2.37a22.473,22.473,0,0,0,6.87-1.773,16.593,16.593,0,0,0,5.368-3.979q.495-.677.987-1.345a3.183,3.183,0,0,0,.6-.973,1.879,1.879,0,0,0,.044-.938,5.576,5.576,0,0,0-.449-1.316c-.906-1.943-2.56-3.967-3.48-6.6a8.437,8.437,0,0,1-.38-4.3,8.216,8.216,0,0,1,.668-2.034l.36-.763a3.491,3.491,0,0,0,.253-.634,3.99,3.99,0,0,0,.1-2.432,5.438,5.438,0,0,0-1.357-2.165,15.21,15.21,0,0,0-4.922-3.064,16.686,16.686,0,0,0-2.054-.731q-.426-.121-.84-.217l-.41-.088-.1-.02c-.016.019-.008.07-.013.1l-.011.224a5.322,5.322,0,0,1-.209,1.368c-.1.28-.169.516-.3.824l-.648,1.218a14.778,14.778,0,0,1-3.526,3.814,28.513,28.513,0,0,1-8.243,4.172,65.527,65.527,0,0,1-15.739,3.007C206.446,396.471,197.041,395.644,195.163,395.718Z" transform="matrix(-1, 0, 0, 1, 380, 0)" /><path class="cls-2 color-shirt" d="M239.691,427.964c-18.2.163-23.145-4.7-23.145-4.7s1.787,6.883,2.827,12.186.192,13.442-.588,16.79-.152,8.047,5.828,10.559,24.7,7.255,30.676,4.744,1.82-8.372,3.639-11.163,6.76-6.7,5.72-10.047-4.68-5.86-2.08-11.72,4.979-8.373,3.159-12.838c-1.437-3.526-8.76-6.071-12.2-6.638-.377-.062,1.471,6.964.951,11.15C251.209,427.406,246.46,427.9,239.691,427.964Z" style="" transform="matrix(-1, 0, 0, 1, 380, 0)" /><path d="M239.69,427.916a22.771,22.771,0,0,1,4.785-.691c1.319-.139,2.851-.309,4.507-.571.827-.134,1.685-.288,2.554-.488l.564-.14.484-.137q.483-.144.952-.319a5.672,5.672,0,0,0,.05-1.149l-.028-.577-.058-.76q-.074-.81-.187-1.633l-.271-1.773a19.342,19.342,0,0,1-.517-4.318,2.32,2.32,0,0,1,.172-.743,1.417,1.417,0,0,1,.071-.169.172.172,0,0,1,.066-.08l.014-.007c.088.1-.115-.137-.093-.112h.009l.023,0,.048-.008.378-.065a6.213,6.213,0,0,1,.845-.052,7.762,7.762,0,0,1,.972.108c.722.159,1.439.324,2.166.546.363.1.721.215,1.076.339s.753.249.973.337a26.775,26.775,0,0,1,2.972,1.285,11.779,11.779,0,0,1,4.593,3.684,7.812,7.812,0,0,1,.5.943c.116.291.247.571.346.878a9.344,9.344,0,0,1,.436,1.934,9.852,9.852,0,0,1-.432,3.959c-.772,2.408-1.813,4.323-2.643,6.342a14.065,14.065,0,0,0-.93,2.741,5.192,5.192,0,0,0,.072,2.358,10.314,10.314,0,0,0,1.153,2.47,18.734,18.734,0,0,1,1.785,3.533,8.142,8.142,0,0,1,.254,1.308,6.734,6.734,0,0,1-.272,2.41,6.736,6.736,0,0,1-.36,1,15.418,15.418,0,0,1-1.865,3.1c-.662.885-1.339,1.681-1.967,2.433L262,456.915c-.266.334-.54.719-.678.935a.079.079,0,0,1-.027.08c.019.029,0,.041-.013.12,0,.113-.012.2-.017.33l.014.463c.044.7.178,1.61.249,2.643a10.615,10.615,0,0,1-.273,3.61,7.666,7.666,0,0,1-2.3,3.651,11.538,11.538,0,0,1-6.565,2.453l-1.486.093c-.483.012-.949,0-1.424,0-.956.012-1.849-.081-2.766-.128a91.7,91.7,0,0,1-16.765-3.206c-1.353-.389-2.7-.8-4.048-1.265a25.551,25.551,0,0,1-4.241-1.8,12.86,12.86,0,0,1-3.992-3.421,10.877,10.877,0,0,1-2.112-5.029,11.63,11.63,0,0,1-.106-2.626,12.331,12.331,0,0,1,.146-1.27c.026-.211.079-.414.12-.621l.117-.534c.256-1.086.459-2.309.623-3.506a58.176,58.176,0,0,0,.543-7.165,31.831,31.831,0,0,0-.124-3.394c-.044-.566-.118-1.03-.207-1.613l-.3-1.743q-.33-1.743-.653-3.451-.312-1.446-.621-2.876-.337-1.483-.669-2.95a8.675,8.675,0,0,0,1.309-1.258,3.765,3.765,0,0,0,.324-.46c.047-.054.074-.182.124-.169a.944.944,0,0,0,.191.044,3.93,3.93,0,0,0,.992-.015l.68-.1.886-.237c.226-.211.756.2,1.171.385.434.221.867.457,1.288.658.413.161.822.322,1.216.45l.766.273a45.792,45.792,0,0,0,5.616,1.453,93.327,93.327,0,0,0,10.7,1.345,45.711,45.711,0,0,1-11.109,1.507,37.47,37.47,0,0,1-6.543-.5l-.415-.081a.934.934,0,0,0-.167-.006l-.243.012c-.144,0-.264.023-.356.034-.186.03-.273.072-.288.122a.058.058,0,0,0,0,.026l.073.131.136.233a3.066,3.066,0,0,0,.211.307.613.613,0,0,0,.182.172l.027.01q.071.258.139.507.147.576.283,1.116a36.057,36.057,0,0,1,.739,3.737c.061.426.117.957.171,1.455s.07.985.1,1.473c.031.963.037,1.908,0,2.834-.06,1.853-.218,3.651-.436,5.422s-.5,3.507-.863,5.248c-.088.434-.194.873-.3,1.316l-.293,1.135a7.355,7.355,0,0,0-.176,1.955,6.561,6.561,0,0,0,.352,1.856,6.837,6.837,0,0,0,.912,1.648,9.138,9.138,0,0,0,3.218,2.455,61.868,61.868,0,0,0,8.716,3.028c2.96.823,5.914,1.507,8.835,2.017a43.844,43.844,0,0,0,8.593.778,10.769,10.769,0,0,0,3.775-.666,3.772,3.772,0,0,0,2.234-2.211,9.215,9.215,0,0,0,.088-3.64,19.258,19.258,0,0,1-.137-2.222,5.924,5.924,0,0,1,.163-1.29,4.726,4.726,0,0,1,.542-1.327,26.993,26.993,0,0,1,1.991-2.554c.654-.773,1.291-1.517,1.85-2.266,1.132-1.461,1.937-3.131,1.564-4.064-.423-1.312-1.517-2.712-2.311-4.49a9.153,9.153,0,0,1-.651-5.93,15.337,15.337,0,0,1,.9-2.669c.339-.781.692-1.549,1.048-2.3.71-1.5,1.443-2.925,1.919-4.246a5.888,5.888,0,0,0,.273-3.627,6.4,6.4,0,0,0-.286-.892,1.543,1.543,0,0,0-.164-.35,1.281,1.281,0,0,0-.181-.3,6.231,6.231,0,0,0-1.22-1.242,17.846,17.846,0,0,0-3.509-2.019c-.312-.149-.637-.274-.956-.409l-.588-.235c-.315-.119-.632-.229-.961-.331l-.532-.153-.272-.069-.138-.033c-.041-.011-.111-.036-.105.027a9.092,9.092,0,0,0,.088,1.025c.041.3.077.612.106.958q.034.387.072.791c.029.372.059.752.089,1.137s.038.786.057,1.189l.011.613,0,.7a17.907,17.907,0,0,1-.332,3.313,30.359,30.359,0,0,1-3.21.735c-.886.135-1.656.2-2.466.254-1.592.1-3.11.1-4.477.069C242.717,428.207,240.585,428,239.69,427.916Z" transform="matrix(-1, 0, 0, 1, 380, 0)" /><path d="M260.315,461.872c-.319.259-3.628.73-7.484.66a84.058,84.058,0,0,1-10.63-.865,45.074,45.074,0,0,1-6.584-1.322l-.836-.258a8.548,8.548,0,0,1-.98-.343l-1.29-.52a10.461,10.461,0,0,1-1.183-.641l-.583-.339c-.1-.119-.18-.239-.27-.359-.167-.259-.4-.443-.41-.774a1.382,1.382,0,0,1,.281-.9,2.437,2.437,0,0,1,.717-.677,9.634,9.634,0,0,1,2.693-1.007l1.134-.28.863-.2c1.148-.252,2.29-.474,3.426-.684,2.269-.417,4.511-.785,6.689-1.144l5.67-.923,2.764-.485c.451-.086.9-.175,1.324-.273a8.054,8.054,0,0,0,1.052-.3c.011.012.015-.039.026.026a3.883,3.883,0,0,0,.265.486c.125.172.156.268.241.372s.187.195.216.232c.191.113.121.018.047.124a.709.709,0,0,0-.185.252c-.045.1-.157.277-.208.421l-.186.527c-.029.074-.014.019-.024.034s-.05-.012-.072-.019c-.06-.015-.152-.031-.239-.045-.372-.059-.81-.1-1.245-.132-.876-.064-1.776-.1-2.669-.127-1.789-.055-3.562-.078-5.294-.1-6.935-.067-13.234-.12-18.271-.321,4.428-1.552,13.114-2.8,16.236-2.614s6.172.3,9.148.54c.748.066,1.485.133,2.256.257.2.034.391.068.608.123a3.452,3.452,0,0,1,.356.107,1.359,1.359,0,0,1,.631.426.959.959,0,0,1,.2.49,1,1,0,0,1-.1.564,1.246,1.246,0,0,1-.2.277l-.139.113a1.837,1.837,0,0,1-.411.221,5.152,5.152,0,0,1-.609.2c-1.484.365-2.855.54-4.235.751-5.481.778-10.6,1.442-15.344,2.36l-1.752.363-.857.2-.506.133a7.379,7.379,0,0,0-.9.306,1.146,1.146,0,0,0-.379.239c-.144.129.042.3.178.343a10.528,10.528,0,0,0,1.777.748c1.012.346,2.026.648,3.035.911,2.016.531,4,.923,5.93,1.24s3.8.569,5.616.772c1.725.184,4.085.432,6.18.6C257.888,461.8,259.713,461.838,260.315,461.872Z" transform="matrix(-1, 0, 0, 1, 380, 0)" /><path class="cls-4" d="M162.639,418.941s-5.861-5.86-6.419-12,.837-8.93,4.186-9.488,4.744,5.581,4.465,7.814c0,0,5.024-7.256,9.768-5.582s3.628,7.535-.558,10.884S162.639,418.941,162.639,418.941Z" style="" transform="matrix(-1, 0, 0, 1, 380, 0)" /><path d="M162.622,418.916c.07-.431,2.358-2.2,4.994-4.255,1.318-1.025,2.723-2.121,3.98-3.149.629-.514,1.219-1.011,1.744-1.472a8.909,8.909,0,0,0,1.19-1.253,7.951,7.951,0,0,0,1.8-4.528,2.865,2.865,0,0,0-2.19-3,3.35,3.35,0,0,0-1.941.069,6.887,6.887,0,0,0-2.1,1.155,12.189,12.189,0,0,0-1,.838l-.248.237c-.18.162-.35.334-.518.509l-1,1.119c-1.283,1.608-2.787,3.865-4.135,5.756l-.724,1.023.271-4.369.065-1.039.033-.521.013-.434.023-.853.012-.427.006-.214-.027-.161-.212-1.3c-.051-.2-.092-.412-.158-.6l-.107-.338a8.181,8.181,0,0,0-.374-.914,3.589,3.589,0,0,0-.866-1.224c-.06-.05-.116-.1-.155-.1a.176.176,0,0,1-.055-.041.113.113,0,0,1-.048,0c-.022-.025-.062-.019-.106-.009-.026,0-.029-.013-.077-.009l-.2.042a2.528,2.528,0,0,0-2.051,1.73,11.154,11.154,0,0,0-.6,3.825c-.01.678,0,1.427.046,2.055a12.234,12.234,0,0,0,.276,1.866,18.283,18.283,0,0,0,1.261,3.585,35.517,35.517,0,0,0,3.6,6.021,16.484,16.484,0,0,1-6.129-5.037,14.814,14.814,0,0,1-2.076-3.687,9.231,9.231,0,0,1-.6-3.155,19.569,19.569,0,0,1,.892-6.021,6.94,6.94,0,0,1,1.767-2.792,5.705,5.705,0,0,1,2.922-1.384l.373-.063c.136-.015.3-.014.45-.018l.454,0,.451.1a3.557,3.557,0,0,1,1.519.811,6.556,6.556,0,0,1,1.617,2.4,10.192,10.192,0,0,1,.445,1.253c.092.317.12.486.174.744a7.659,7.659,0,0,1,.131,1.471c0,.1-.035.287-.008.309l.205-.268c.139-.177.283-.353.434-.524.3-.345.611-.675.935-.984l.351-.326c.135-.131.288-.246.431-.368a10.436,10.436,0,0,1,.895-.695,10.706,10.706,0,0,1,1.973-1.141c.347-.162.733-.26,1.1-.387a10.106,10.106,0,0,1,1.175-.183,5.649,5.649,0,0,1,2.345.389,5.19,5.19,0,0,1,3.2,3.26,6.8,6.8,0,0,1-.16,4.311,10.635,10.635,0,0,1-2,3.413,12.573,12.573,0,0,1-1.363,1.322c-.467.393-.905.721-1.358,1.064-.9.677-1.788,1.309-2.671,1.909A68.588,68.588,0,0,1,162.622,418.916Z" transform="matrix(-1, 0, 0, 1, 380, 0)" /><path class="cls-4" d="M179.03,425.174s-4.012-6.928-1.616-8.544c1.9-1.285,3.55,1.559,3.2,3.233,0,0,2.194-3.493,3.926-1.963C186.388,419.529,183.88,422.4,179.03,425.174Z" style="" transform="matrix(-1, 0, 0, 1, 380, 0)" /><path d="M179.015,425.147c-.052-.339.883-1.031,1.9-1.876a19.332,19.332,0,0,0,1.47-1.328l.3-.327a1.634,1.634,0,0,0,.152-.214,1.011,1.011,0,0,0,.158-.345.911.911,0,0,0-.045-.654.554.554,0,0,0-.5-.265.647.647,0,0,0-.55.348.61.61,0,0,0-.069.164l0,.03v.022h0l-.6-.24-2.328-.932,0,0,0,0-.007-.008-.015-.012c-.076-.031-.06.046-.067-.012a.138.138,0,0,0-.246-.015.3.3,0,0,0-.038.057c-.006.045-.041-.025-.015.155.029.254.062.513.106.773.084.52.188,1.042.295,1.552q.326,1.509.621,2.873a6.923,6.923,0,0,1-3.148-1.909,4.55,4.55,0,0,1-1.458-2.723c-.248-2.78.8-4.489,2.55-4.923a2.639,2.639,0,0,1,2.329.527,4.34,4.34,0,0,1,1.355,1.966,4.81,4.81,0,0,1,.268,1.189,5.837,5.837,0,0,1,0,.606l-.038.3-.011.074s0,.034.008-.036a.686.686,0,0,0-.055-.429.781.781,0,0,0-.65-.454.745.745,0,0,0-.479.13.686.686,0,0,0-.166.154l.086-.124a7.948,7.948,0,0,1,1.6-1.708,3.863,3.863,0,0,1,1.7-.8,2.2,2.2,0,0,1,1.727.464,2.541,2.541,0,0,1,1,1.841,3.562,3.562,0,0,1-.5,2,6.73,6.73,0,0,1-.641.962c-.265.3-.549.593-.828.875l-.372.319c-.106.087-.21.177-.319.255l-.651.449A10.4,10.4,0,0,1,179.015,425.147Z" transform="matrix(-1, 0, 0, 1, 380, 0)" /><path class="cls-4" d="M152.132,422.049s-6.336-3.518-4.854-5.869c1.177-1.869,3.777-.425,4.139,1.03,0,0,.551-3.71,2.7-3.322C156.409,414.3,155.331,417.677,152.132,422.049Z" style="" transform="matrix(-1, 0, 0, 1, 380, 0)" /><path d="M152.108,422.031c-.191-.281.326-1.224.866-2.318.271-.534.553-1.15.743-1.65a1.653,1.653,0,0,0,.113-.808.75.75,0,0,0-.359-.512.629.629,0,0,0-.622.086.732.732,0,0,0-.295.486.563.563,0,0,0-.008.152.231.231,0,0,0,.009.047l0,.009,0,0-2.878.139c-.013,0-.01,0-.017,0-.08,0-.042.054-.066.01a.148.148,0,0,0-.234.091.312.312,0,0,0,0,.154c-.024.006.089.139.144.222l.2.281c.293.372.595.744.91,1.1q.935,1.06,1.791,2.03a6.191,6.191,0,0,1-3.491.076,5.572,5.572,0,0,1-1.542-.642,4.066,4.066,0,0,1-.562-.438l-.11-.109-.137-.182q-.131-.181-.222-.339c-1.333-2.025-.821-4.043.52-5.026a3.374,3.374,0,0,1,4.242.486,3.921,3.921,0,0,1,.718.844,3.463,3.463,0,0,1,.239.49l.084.258.01.032,0,.008,0,0-.094,0-.424-.023-.848-.044-.106-.006c-.01,0,0,0,0,0l0-.009,0-.019.032-.15a7.121,7.121,0,0,1,.787-2.036,2.948,2.948,0,0,1,2.611-1.733,2.521,2.521,0,0,1,.531.1,1.759,1.759,0,0,1,.507.184,2.182,2.182,0,0,1,.779.677,3.081,3.081,0,0,1,.432,1.864,6.062,6.062,0,0,1-.159,1.054,9.143,9.143,0,0,1-.372,1.081c-.164.347-.314.721-.5,1.019-.135.222-.266.446-.415.648A9.557,9.557,0,0,1,152.108,422.031Z" transform="matrix(-1, 0, 0, 1, 380, 0)" /><path d="M171.987,455.849a9.217,9.217,0,0,1,2.422-.332c1.335-.139,3.095-.315,4.97-.6a56.439,56.439,0,0,0,10.159-2.513c1.979-.723,4-1.547,5.979-2.5a26.159,26.159,0,0,0,2.843-1.561,4.324,4.324,0,0,0,.59-.422c.062-.057.228-.164.208-.177,0-.01,0-.015.012-.018s-.017-.016.028.014c.084.054.171.106.259.154s.179.094.272.136c0-.011.066.057.1.073a.625.625,0,0,0,.3.082c.007.016.054.013.062,0a.182.182,0,0,0-.109.136,1.427,1.427,0,0,0-.164.375,1.2,1.2,0,0,0-.031.2c0,.068-.051.212-.069.314-.011.03-.013.011-.02.017h-.1c-.179,0-.452.031-.706.06-2.162.3-4.5.767-6.773,1.1-2.285.352-4.563.64-6.791.853a83.144,83.144,0,0,1-11.619.325,91.034,91.034,0,0,1-10.966-1.178A99.614,99.614,0,0,1,145,445.751c2.366-.015,5.684.211,8.8.481a67.428,67.428,0,0,1,7.511.936,78.782,78.782,0,0,0,17.3,2.154,91.948,91.948,0,0,0,15.384-1.3l3.542-.574c.59-.087,1.168-.177,1.8-.221a4.717,4.717,0,0,1,.5-.012,1.835,1.835,0,0,1,.707.139,1.02,1.02,0,0,1,.331.255.833.833,0,0,1,.205.49.785.785,0,0,1-.047.4.842.842,0,0,1-.113.246,6.184,6.184,0,0,1-.42.5,15.051,15.051,0,0,1-3.03,1.866c-1.008.5-2.014.943-3.015,1.346a53.784,53.784,0,0,1-11.6,3.229c-.874.166-1.927.249-3.016.358-1.1.045-2.234.126-3.3.093A45.043,45.043,0,0,1,171.987,455.849Z" transform="matrix(-1, 0, 0, 1, 380, 0)" /><path d="M252.146,400.352c.091.248-.71,1.288-1.755,2.406l-1.757,1.521c-.579.471-1.155.823-1.528,1.144a25.884,25.884,0,0,1-9.935,4.429,31.874,31.874,0,0,1-16.068-.132c1.9-1.137,5.154-2.034,6.334-1.871a26.327,26.327,0,0,0,12.571-.963,35.494,35.494,0,0,0,8.551-4.362C249.694,401.874,251.664,400.58,252.146,400.352Z" transform="matrix(-1, 0, 0, 1, 380, 0)" /><path d="M247.4,395.77c.158.195-.119.72-.51,1.291-.414.544-.936,1.124-1.191,1.5a11.338,11.338,0,0,1-3.691,3.277,10.454,10.454,0,0,1-7.071,1.619c.434-1.481,1.445-2.805,2-2.775a8.271,8.271,0,0,0,5.358-1.5c1.355-.92,2.269-1.979,3.269-2.644A8.28,8.28,0,0,1,247.4,395.77Z" transform="matrix(-1, 0, 0, 1, 380, 0)" /><path class="cls-2 color-shirt" d="M218.444,429.962a200.322,200.322,0,0,0-5.866-19.32" style="" transform="matrix(-1, 0, 0, 1, 380, 0)" /><path d="M212.606,410.63c.65-.082,1.674,2.717,2.354,3.695a24.946,24.946,0,0,1,2.815,5.868A19.269,19.269,0,0,1,219,429.824c-1.862-.633-3.5-2.293-3.413-3.069.731-6.274-2.452-10-3.081-13.393A8.518,8.518,0,0,1,212.606,410.63Z" transform="matrix(-1, 0, 0, 1, 380, 0)" /></svg>