<svg xmlns="http://www.w3.org/2000/svg" id="halloween" viewBox="0 0 380 600"><defs><style>.cls-1{fill:#fff;}.cls-2{opacity:0.3;}.cls-3{fill:#14d8c3;}.cls-4{fill:#fff1b6;}.cls-5{fill:#ff4500;}.cls-6{fill:#02315c;}</style></defs><g id="default"><path d="M219.588,391.443c7.582,9.513,14.229,22.312,22.211,41.293,8.856,21.061,18.834,37.366,29.709,32.709,13.624-5.834,9.478-36.627,4.5-51.1-6.055-17.583-19.428-51.04-47.782-59.992-10.883-3.436-14.227,11.569-14.227,11.569"></path><path d="M213.934,365.913c-.157-.551.152-3.313,2.081-6.94a12.8,12.8,0,0,1,4.94-5.186,9.387,9.387,0,0,1,4.206-1.067,12.363,12.363,0,0,1,4.375.8,52.055,52.055,0,0,1,15.4,7.981,78.563,78.563,0,0,1,10.535,9.565c8.758,9.339,15.524,21.478,20.689,34.115.653,1.582,1.275,3.175,1.884,4.77s1.191,3.159,1.769,4.871a93.162,93.162,0,0,1,2.69,10.106,91.376,91.376,0,0,1,2.049,20.442,49.111,49.111,0,0,1-1.038,9.09,25.587,25.587,0,0,1-3.765,9.112,16.351,16.351,0,0,1-3.819,3.924l-1.18.787-1.265.646a13.27,13.27,0,0,1-2.715.948,13.065,13.065,0,0,1-5.871.034,15.9,15.9,0,0,1-5-2.12,28.748,28.748,0,0,1-6.869-6.394,60.817,60.817,0,0,1-4.814-7.061,124.089,124.089,0,0,1-7.1-14.36c-1.01-2.368-1.955-4.765-2.851-7.056s-1.8-4.538-2.678-6.757c-1.784-4.423-3.571-8.677-5.387-12.717a139.587,139.587,0,0,0-11.5-21.291,55.869,55.869,0,0,1,8.528,8.306,101.206,101.206,0,0,1,8.146,11.242,113.419,113.419,0,0,1,10.24,20.007c2.972,8.45,6.27,16.566,10.735,23.443A36.075,36.075,0,0,0,260,459.878a16.525,16.525,0,0,0,4.309,3.441,9.175,9.175,0,0,0,2.359.836,7.643,7.643,0,0,0,2.4.041,9.157,9.157,0,0,0,4.448-2.2c2.571-2.306,3.971-5.944,4.739-9.546a49.4,49.4,0,0,0,.922-11.1,90.875,90.875,0,0,0-3.15-21.286c-.454-1.675-.95-3.323-1.514-4.917-.574-1.62-1.165-3.239-1.772-4.822q-1.809-4.762-3.815-9.246a132.022,132.022,0,0,0-8.878-16.691c-6.509-10.222-14.279-18.61-23.151-23.99a63.7,63.7,0,0,0-7.483-3.832l-1.062-.44a11.049,11.049,0,0,0-1.033-.4,9.432,9.432,0,0,0-2-.474,7.2,7.2,0,0,0-3.919.691,13.935,13.935,0,0,0-5.371,5.508A26.474,26.474,0,0,0,213.934,365.913Z"></path></g><path class="cls-1" d="M140.36,463.371c.822-7.144,2.461-16.135,4.759-22.342,13.642-36.838-9.04-78.792,30.636-91.823,29.145-9.571,59.413,5.745,75.671,54.174,5.9,17.562,7.776,42.306,3.484,59.991"></path><path d="M254.865,463.36c-.122-.638.481-3.678.931-8.214a122.945,122.945,0,0,0,.479-17.013,132.016,132.016,0,0,0-2.236-19.488,93.269,93.269,0,0,0-4.243-15.406,143.771,143.771,0,0,0-9.279-20.063,86.485,86.485,0,0,0-13.469-18.189,53.9,53.9,0,0,0-18.4-12.518,44.273,44.273,0,0,0-21.238-2.82,52.269,52.269,0,0,0-9.087,1.874,46.878,46.878,0,0,0-8.484,3.435,27.216,27.216,0,0,0-12.043,12.2c-2.534,5.213-3.6,11.183-4.115,17.154s-.565,12.023-.716,17.957-.377,11.8-1,17.48a87.7,87.7,0,0,1-3.252,16.309l-.6,1.912q-.343.936-.684,1.863-.675,1.789-1.337,3.54c-.832,2.284-1.5,4.606-2.108,6.887-1.2,4.571-2.079,9.012-2.78,13.208a85.021,85.021,0,0,1,.57-13.747,65.31,65.31,0,0,1,1.417-7.891l1.007-3.88c.359-1.252.551-2.556.839-3.812,1.989-10.163,1.841-20.033,2.243-25.235.352-5.24.52-10.465.789-15.651a123.12,123.12,0,0,1,1.563-15.406,43.744,43.744,0,0,1,4.993-14.445,31.617,31.617,0,0,1,10.376-10.625,47.986,47.986,0,0,1,13.075-5.533,54.994,54.994,0,0,1,13.564-1.881,49.214,49.214,0,0,1,25.027,6.677,64.982,64.982,0,0,1,18.212,16.1,87.624,87.624,0,0,1,6.6,9.5c1.02,1.6,1.887,3.268,2.809,4.887.84,1.659,1.737,3.277,2.491,4.942l1.166,2.471,1.072,2.484c.734,1.641,1.355,3.309,2,4.95,1.25,3.292,2.4,6.572,3.327,9.886a110.864,110.864,0,0,1,3.569,19.455,101.762,101.762,0,0,1,.518,10.3,110.641,110.641,0,0,1-.591,11.185A81.727,81.727,0,0,1,254.865,463.36Z"></path><path d="M145.119,441.029c13.642-36.838-9.04-78.792,30.636-91.823,29.144-9.571,59.413,5.745,75.671,54.174,5.9,17.562,7.776,42.306,3.484,59.991h0s-6.034,10.253-50.162,13c-42.248,2.629-64.388-13-64.388-13h0C141.182,456.227,142.821,447.236,145.119,441.029Z"></path><path d="M145.176,441.051c-.009.883-1.242,5.057-2.3,11.4-.273,1.582-.538,3.3-.787,5.121q-.175,1.37-.36,2.815-.122,1.148-.246,2.348c-.047.11.057.152.139.2l.247.151.5.3.507.284.566.308c.919.488,1.86.975,2.84,1.426,1.943.93,4,1.784,6.109,2.581a105.41,105.41,0,0,0,13.257,3.953,119.152,119.152,0,0,0,13.5,2.2c2.2.213,4.338.459,6.421.512,2.08.074,4.079.251,5.991.192l5.41-.043,4.683-.3c2.512-.133,5.057-.421,7.621-.694,2.568-.236,5.137-.59,7.721-.938,2.594-.3,5.164-.8,7.765-1.2,1.3-.216,2.579-.507,3.873-.756l1.941-.387,1.92-.461a70.934,70.934,0,0,0,14.788-4.972c.559-.286,1.09-.6,1.638-.891.533-.3,1.014-.644,1.519-.962a15.508,15.508,0,0,0,1.273-1.026.953.953,0,0,0,.138-.131l.07-.082a.294.294,0,0,0,.08-.193l.021-.134.087-.438.195-.968c.141-.64.248-1.293.341-1.95.205-1.308.413-2.615.537-3.945a122.223,122.223,0,0,0-1.014-32.068,109.125,109.125,0,0,0-3.565-15.405,140.966,140.966,0,0,0-5.577-14.563,99.565,99.565,0,0,0-13.764-22.6,56.218,56.218,0,0,0-19.785-15.559,43.635,43.635,0,0,0-23.81-3.378,50.409,50.409,0,0,0-11.63,2.973,33.511,33.511,0,0,0-9.809,5.712,25.233,25.233,0,0,0-6.509,8.676,42.234,42.234,0,0,0-3.17,10.662c-1.265,7.44-1.373,15.065-1.653,22.427a187,187,0,0,1-1.645,21.345,78.974,78.974,0,0,1-5.061,18.836,104.025,104.025,0,0,0,2.054-19.244c.156-7.141-.338-14.748-.745-22.245s-.679-14.926.109-21.6a39.452,39.452,0,0,1,4.951-16.031,32.467,32.467,0,0,1,8.379-9.24,42.584,42.584,0,0,1,10.5-5.6,56.358,56.358,0,0,1,22.183-3.449,50.16,50.16,0,0,1,20.831,5.809,56.7,56.7,0,0,1,8.767,5.808,63.286,63.286,0,0,1,7.494,7.031c1.178,1.222,2.218,2.55,3.3,3.829,1.017,1.332,2.072,2.628,3,4,1.953,2.686,3.65,5.5,5.3,8.305a131.472,131.472,0,0,1,8.111,17.336l.844,2.19.776,2.2.772,2.194.7,2.224c.938,2.96,1.673,5.945,2.345,8.914a136.708,136.708,0,0,1,2.606,17.748,128.206,128.206,0,0,1,.261,17.382c-.105,1.426-.2,2.848-.334,4.262-.178,1.412-.294,2.823-.522,4.219s-.411,2.793-.726,4.168l-.215,1.034a13.99,13.99,0,0,1-.332,1.394,4.211,4.211,0,0,1-.87,1.186,8.847,8.847,0,0,1-.964.929,30.312,30.312,0,0,1-7.471,4.358,70.252,70.252,0,0,1-7.742,2.7c-1.3.344-2.583.747-3.879,1.035l-3.868.883-3.854.727-1.916.354-1.913.283-3.8.561c-1.263.177-2.525.3-3.779.444l-3.749.421-3.722.3-3.691.294c-1.227.089-2.463.111-3.686.167-2.45.095-4.878.225-7.291.143a124.372,124.372,0,0,1-27.747-3.185,89.538,89.538,0,0,1-13.941-4.421c-1.224-.5-2.437-1.065-3.662-1.6-1.2-.6-2.421-1.161-3.6-1.813-1.194-.635-2.322-1.29-3.5-2.015-.707-.467-1.423-.9-2.073-1.373l-.491-.349c-.069-.064-.19-.105-.214-.189l.043-.306.169-1.208q.095-.583.189-1.161l.184-1.063q.178-.919.352-1.818c.237-1.2.491-2.358.745-3.478.511-2.24,1.054-4.31,1.588-6.144A61.738,61.738,0,0,1,145.176,441.051Z"></path><g data-name="default" id="default-2"><path d="M120.961,439.566c1.139-18.561,3.924-46.029,22.5-62.515,15.9-14.111,22.106-3.869,24.321-.71s5.633,16.01,1.424,26.085-7.753,25.3-10.376,45.725c-2.91,22.661-8.17,41.038-19.9,39.455C124.251,485.622,120.023,454.841,120.961,439.566Z"></path><path d="M121.022,439.57c.293.574.32,3.476.676,7.733a114.069,114.069,0,0,0,2.319,15.743c1.33,5.834,3.339,12.044,6.535,16.685a15.116,15.116,0,0,0,5.466,5.105,8.561,8.561,0,0,0,5.449.778c2.595-.542,4.712-2.688,6.3-5.421a40.059,40.059,0,0,0,3.7-9.247,140.97,140.97,0,0,0,3.818-21c.8-7.279,1.765-14.751,3.09-22.031a162.239,162.239,0,0,1,5.209-21.463c.5-1.521,1.03-3.036,1.628-4.543l.427-1.1.317-.9a17.014,17.014,0,0,0,.543-1.854,27.585,27.585,0,0,0,.678-7.97,35.063,35.063,0,0,0-1.3-8.022c-.172-.642-.391-1.247-.6-1.823a10.1,10.1,0,0,0-.647-1.42c-.057-.087-.046-.1-.149-.255l-.323-.469-.581-.821-.555-.714-.558-.634a6.263,6.263,0,0,0-4.9-2.2,14.519,14.519,0,0,0-6.352,2.247,40.786,40.786,0,0,0-6.226,4.756,50.226,50.226,0,0,0-5.376,5.7,58.592,58.592,0,0,0-7.9,13.139,94.264,94.264,0,0,0-4.864,13.938c-1.257,4.626-2.159,9.186-2.9,13.568s-1.319,8.593-1.839,12.573a98.793,98.793,0,0,1-.359-28.162,74.729,74.729,0,0,1,3.4-14.212,50.88,50.88,0,0,1,2.4-5.632c.414-.823.812-1.589,1.189-2.29.41-.686.824-1.3,1.194-1.842a56.381,56.381,0,0,1,10.359-11.713,33.227,33.227,0,0,1,2.981-2.407c.514-.378,1-.777,1.531-1.133l1.627-1.04a25.876,25.876,0,0,1,7.16-3.255,17.693,17.693,0,0,1,2.016-.415c.7-.052,1.4-.144,2.1-.136a19.28,19.28,0,0,1,2.138.218l1.051.261a4.785,4.785,0,0,1,1.019.34,14.2,14.2,0,0,1,6.212,5.026,21.817,21.817,0,0,1,2.021,3.195,22.946,22.946,0,0,1,1.27,3.472,41.306,41.306,0,0,1,1.29,6.862,39.114,39.114,0,0,1,.115,6.849,29.715,29.715,0,0,1-1.184,6.7,13.825,13.825,0,0,1-.542,1.613c-.2.523-.4,1.089-.6,1.545q-.6,1.431-1.134,2.883-1.075,2.9-1.944,5.838a181.294,181.294,0,0,0-5.083,23.246q-.909,5.7-1.566,11.263c-.443,3.707-.9,7.418-1.482,11.027-1.192,7.224-2.62,14.24-5.474,20.788a22.779,22.779,0,0,1-6.372,8.9,11.45,11.45,0,0,1-5.421,2.37,12.422,12.422,0,0,1-5.743-.541,14.324,14.324,0,0,1-4.788-2.727,22.066,22.066,0,0,1-3.451-3.831,35.856,35.856,0,0,1-4.248-8.532c-2.052-5.484-3.264-13.268-3.472-20.07A78.949,78.949,0,0,1,121.022,439.57Z"></path><path d="M169.209,402.426c-4.766,11.192-7.753,25.3-10.376,45.725-2.91,22.661-8.17,41.038-19.894,39.455-14.687-1.984-18.916-32.765-17.978-48.04,1.139-18.561,3.924-46.029,22.5-62.515,15.9-14.111,24.321-.71,24.321-.71"></path><path d="M167.733,376.374a18.562,18.562,0,0,1-1.705-1.418,15.767,15.767,0,0,0-3.832-2.4,11.884,11.884,0,0,0-6-.888,18.286,18.286,0,0,0-6.824,2.562,29.25,29.25,0,0,0-3.232,2.342l-1.559,1.309c-.514.444-.973.966-1.461,1.444a33.331,33.331,0,0,0-2.775,2.987l-1.274,1.549-.628.763-.558.807a51.438,51.438,0,0,0-6.323,11.624c-4.307,11.117-6.177,23.892-6.912,36.9-.1,1.627-.183,3.263-.255,4.9s-.116,3.15-.087,4.757c.041,3.167.27,6.358.625,9.506a79.505,79.505,0,0,0,4.017,18,37.406,37.406,0,0,0,3.212,6.716,19.058,19.058,0,0,0,2.054,2.717,10.526,10.526,0,0,0,2.305,1.969,6.839,6.839,0,0,0,2.453,1.011,5.666,5.666,0,0,0,2.413.053,7.5,7.5,0,0,0,4.212-3.022,26.326,26.326,0,0,0,3.362-6.025,61.494,61.494,0,0,0,2.407-7A146.6,146.6,0,0,0,154.6,453c.843-4.8,1.54-9.7,2.425-14.387.863-4.691,1.816-9.227,2.9-13.562a106.412,106.412,0,0,1,8.245-23.074c-.527,3.342-1.147,7.342-1.684,11.616-.552,4.272-.994,8.833-1.406,13.261-.809,8.854-1.466,17.211-2.329,21.553-.87,4.453-1.794,8.853-2.876,13.159a105.639,105.639,0,0,1-3.9,12.628,49.349,49.349,0,0,1-2.776,5.994,24.543,24.543,0,0,1-3.979,5.466,13.946,13.946,0,0,1-2.761,2.209,10.947,10.947,0,0,1-3.353,1.395,11.949,11.949,0,0,1-6.959-.522,14.919,14.919,0,0,1-5.476-3.7,24.773,24.773,0,0,1-3.655-5.008,49.32,49.32,0,0,1-4.339-10.847A100.911,100.911,0,0,1,119.3,447.55q-.129-2.651-.111-5.274c0-1.758.118-3.5.2-5.169.183-3.379.419-6.711.743-9.987a127.442,127.442,0,0,1,3.176-18.918,75.42,75.42,0,0,1,6.4-16.94,53.392,53.392,0,0,1,10.232-13.623l1.5-1.4c.264-.237.519-.489.805-.723l.9-.678,1.877-1.386c.647-.458,1.391-.832,2.1-1.251a18.653,18.653,0,0,1,9.593-2.647,12.9,12.9,0,0,1,7.894,3.029A13.6,13.6,0,0,1,167.733,376.374Z"></path></g><path class="cls-1" d="M269.644,442.682c-25.436-5.34-8.424,19.195,7.215,7.893,8.333-11.774-9.895-6.9-15.718-9.874"></path><path d="M261.162,440.66c.233-.158.872-.016,1.845.061.967.1,2.264.157,3.683.163,2.834.008,6.123-.055,8.108.024a10.094,10.094,0,0,1,2.82.414,5.062,5.062,0,0,1,3.054,2.414,5.792,5.792,0,0,1,.255,4.059,13.3,13.3,0,0,1-1.209,2.921c-.116.224-.244.42-.367.632l-.592.949c-.085.192-.308.249-.453.38l-.47.328-.631.449a10.511,10.511,0,0,1-1.277.8,11.715,11.715,0,0,1-1.345.7,16.277,16.277,0,0,1-11.092,1,15.742,15.742,0,0,1-4.712-2.207,12.655,12.655,0,0,1-3.686-3.857,8.645,8.645,0,0,1-1.083-2.811,6.168,6.168,0,0,1,.4-3.517,5.557,5.557,0,0,1,2.262-2.514,5.728,5.728,0,0,1,1.276-.608,6.75,6.75,0,0,1,1.214-.342c.387-.066.773-.133,1.147-.179l1.071-.034a15.937,15.937,0,0,1,2,.119,24.592,24.592,0,0,1,6.444,1.85c-1.944.887-4.548,1.5-6.642,2.211-.511.191-1.024.325-1.433.527l-.612.241c-.169.1-.329.182-.483.253l-.228.1-.158.112a1.641,1.641,0,0,1-.3.155.479.479,0,0,1-.31.135c-.037,0-.188-.022-.2-.018l-.1-.014c-.031,0-.038.016-.072.023-.14.025-.213.177-.273.447a3.555,3.555,0,0,0,.722,2.147,9.462,9.462,0,0,0,4.348,3.414,11.2,11.2,0,0,0,5.389.774,12.148,12.148,0,0,0,4.9-1.659,8.28,8.28,0,0,0,1.06-.682c.364-.265.517-.318.635-.585a12.831,12.831,0,0,0,1.066-2.05,3.663,3.663,0,0,0,.354-1.685,1.274,1.274,0,0,0-.64-.946,5.848,5.848,0,0,0-1.572-.542c-.643-.147-1.348-.229-2.038-.316-1.4-.153-2.816-.257-4.2-.424a20.65,20.65,0,0,1-4.735-1.082,12.734,12.734,0,0,1-2.059-.93A6.64,6.64,0,0,1,261.162,440.66Z"></path><path class="cls-1" d="M265.468,453.355c-13.465-4.61-4.683,9.982,3.255,10.461,5.121.576,9.717-4.712,10.183-9.367-4.265-3.045-11.72-.1-16.952-.7"></path><path d="M261.959,453.7c.294-.433,2.312-.5,4.72-.99,2.4-.443,5.215-.93,6.915-1.146a12,12,0,0,1,1.506-.143,7.845,7.845,0,0,1,1.807.117,14.016,14.016,0,0,1,4.406,1.8c-.07.787-.152,1.6-.266,2.412A6.944,6.944,0,0,1,280.78,457a9.779,9.779,0,0,1-.381,1.263,13.62,13.62,0,0,1-1.718,3.263,13.192,13.192,0,0,1-2.5,2.7,11.33,11.33,0,0,1-3.292,1.933,7.233,7.233,0,0,1-1.224.383,6.94,6.94,0,0,1-1.288.225,6.577,6.577,0,0,1-1.283.049,10.284,10.284,0,0,1-1.232-.085,11.683,11.683,0,0,1-4.491-1.563,16.225,16.225,0,0,1-5.86-5.9c-.17-.329-.316-.568-.491-.965l-.243-.557c-.078-.191-.159-.464-.237-.689a6.163,6.163,0,0,1-.345-2.745,4.11,4.11,0,0,1,.953-2.272,4.254,4.254,0,0,1,2.025-1.177,6.473,6.473,0,0,1,2.294-.06c.363.068.751.128,1.055.2l.739.265a14.868,14.868,0,0,1,2.489,1.281c-.915.354-1.946.629-2.939.949l-.724.241a3,3,0,0,0-.409.3,1.125,1.125,0,0,0-.368.631.766.766,0,0,0,.4.807c.167.075.168-.013.086.074a3.9,3.9,0,0,0,.379,1.372,9.7,9.7,0,0,0,.811,1.482,10.907,10.907,0,0,0,2.266,2.5,8.065,8.065,0,0,0,2.771,1.473,6.1,6.1,0,0,0,2.941.109,8.11,8.11,0,0,0,4.643-3.276,9.643,9.643,0,0,0,1.286-2.38,4.733,4.733,0,0,0,.266-1.493,3.456,3.456,0,0,0-1.3-.46,3.207,3.207,0,0,0-.359-.045c-.19-.02-.37-.054-.563-.066-.393-.008-.761-.058-1.16-.042-1.56-.005-3.138.136-4.7.18a18.353,18.353,0,0,1-4.152-.31A12.245,12.245,0,0,1,261.959,453.7Z"></path><path class="cls-1" d="M258.29,402.433c-10.581,2.2,6.125,54.6,12.811,36.7,2.436-7.164-1.8-46.164-13.748-36.194"></path><path d="M257.324,402.9a3.975,3.975,0,0,1,2.2-1.9,4.345,4.345,0,0,1,1.353-.345,4.4,4.4,0,0,1,.79-.029l.827.143a6.7,6.7,0,0,1,2.944,1.858,19.848,19.848,0,0,1,3.567,5.9c.843,2,1.466,3.855,1.924,5.175a64.727,64.727,0,0,1,3.192,15.19,47.936,47.936,0,0,1,.13,8.221c-.037.364-.06.715-.131,1.109a9.952,9.952,0,0,1-.239,1.216c-.057.219-.115.451-.18.658l-.212.558c-.134.373-.31.738-.48,1.1a10.674,10.674,0,0,1-.651,1.146c-.156.223-.317.444-.483.658-.19.225-.408.451-.623.663a5.438,5.438,0,0,1-3.185,1.5,6.244,6.244,0,0,1-3.724-1.025,6.674,6.674,0,0,1-.6-.419,9.932,9.932,0,0,1-.85-.739,17.125,17.125,0,0,1-2.44-3.029,37.717,37.717,0,0,1-3.146-6.143,62.45,62.45,0,0,1-3.558-12.224,46.2,46.2,0,0,1-.808-11.583,17.923,17.923,0,0,1,1.138-5.348,7.327,7.327,0,0,1,1.5-2.369,4.128,4.128,0,0,1,2.531-1.253,3.75,3.75,0,0,0-1.556,1.94,6.621,6.621,0,0,0-.305,2.36,26.888,26.888,0,0,0,.748,4.932,75.107,75.107,0,0,1,1.737,7.983,53.362,53.362,0,0,0,1.583,9.808,40.151,40.151,0,0,0,3.264,8.712,14.187,14.187,0,0,0,2.424,3.428l.349.31c.106.087.19.141.286.214a2.119,2.119,0,0,0,.614.28,1.366,1.366,0,0,0,1.262-.292,6.439,6.439,0,0,0,1.607-2.983,19.485,19.485,0,0,0,.385-3.888,75.695,75.695,0,0,0-1.536-14.966,62.99,62.99,0,0,0-3.553-12.4c-.773-1.63-1.825-4-3.6-4.8a3.724,3.724,0,0,0-2.743-.072,4.557,4.557,0,0,0-1.068.411Z"></path><path class="cls-1" d="M228.78,370.813c12.2-14.971,24.83,11.363,32.107,19.62,7.5,4.812,4.012,14.8-4.613,14.418-11.624-1.292-7.461-18.246-18.036-22.248-6-1.394-14.578-11.12-6.729-14.208"></path><path d="M231.526,368.438c-.057.169-.372.375-.789.725a4.585,4.585,0,0,0-1.319,1.5,3.334,3.334,0,0,0-.331,1.161,4.567,4.567,0,0,0,.149,1.386,8.87,8.87,0,0,0,1.573,2.949,16.118,16.118,0,0,0,5.73,4.564,9.74,9.74,0,0,0,1.545.553,4.749,4.749,0,0,1,.963.286c.3.122.6.216.874.357a13.065,13.065,0,0,1,2.78,1.754,14.926,14.926,0,0,1,3.179,3.771,32.221,32.221,0,0,1,2.129,4.307c1.214,2.869,2.218,5.8,3.75,7.8a6.336,6.336,0,0,0,2.593,2.108c.245.109.513.182.771.271.275.047.559.149.819.167a6.61,6.61,0,0,0,1.578,0,5.129,5.129,0,0,0,4.369-3.485,4.661,4.661,0,0,0-1.154-4.414q-.237-.23-.46-.469a4.545,4.545,0,0,0-.542-.422l-.366-.28a3.665,3.665,0,0,1-.766-.66l-.76-.9c-.872-1.082-1.648-2.153-2.4-3.215-2.965-4.239-5.567-8.344-8.35-11.933a40.246,40.246,0,0,0-4.284-4.839,13.549,13.549,0,0,0-4.606-3.048,6.817,6.817,0,0,0-2.349-.4,7.028,7.028,0,0,0-2.315.52,13.973,13.973,0,0,0-4.092,2.8,10.49,10.49,0,0,1,3.044-4.818,8.173,8.173,0,0,1,3.2-1.73,9.811,9.811,0,0,1,3.926-.2,15.675,15.675,0,0,1,6.379,2.769,16.573,16.573,0,0,1,3.49,3.238c2.734,3.61,4.864,7.205,6.969,10.625,1.046,1.709,2.069,3.38,3.115,4.972q.782,1.2,1.6,2.306c.134.19.274.363.412.541l.2.252a.733.733,0,0,0,.128.152l1.074.863a9.7,9.7,0,0,1,3.1,5.455,8.636,8.636,0,0,1-1.209,5.96,8.967,8.967,0,0,1-4.553,3.653l-.682.246c-.229.067-.466.1-.7.15a7.521,7.521,0,0,1-1.408.206c-.476.014-.953.051-1.425.035a14.033,14.033,0,0,1-1.4-.233,9.693,9.693,0,0,1-4.819-2.625A15.165,15.165,0,0,1,247,398.918c-1.387-2.942-2.225-5.818-3.373-8.3a12.414,12.414,0,0,0-4.463-5.706l-.733-.409-.729-.325-.394-.112c-.192-.052-.366-.125-.549-.187a11.209,11.209,0,0,1-1.036-.436,15.9,15.9,0,0,1-3.509-2.329,14.676,14.676,0,0,1-2.911-3.307,9.728,9.728,0,0,1-1.669-4.607,4.744,4.744,0,0,1,.432-2.328,3.868,3.868,0,0,1,1.286-1.509A5.969,5.969,0,0,1,231.526,368.438Z"></path><path class="cls-1" d="M272.531,442.038c-4.77.936-6.186,16.093-.737,15.444,11.17-2.414,7.442-24.944-2.225-13"></path><path d="M269.533,444.458c-.195-.4.612-2.11,2.533-3.51a4.061,4.061,0,0,1,.786-.481l.433-.215c.155-.059.324-.1.488-.154a4.269,4.269,0,0,1,2.111-.084,4.809,4.809,0,0,1,1.775.892,8.549,8.549,0,0,1,1.1,1.071,9.258,9.258,0,0,1,1.872,3.941,13.338,13.338,0,0,1-1.092,8.815,11.158,11.158,0,0,1-3.063,3.757,6.8,6.8,0,0,1-.891.618,6.233,6.233,0,0,1-.95.522l-.494.222a4.023,4.023,0,0,1-.559.218,12.446,12.446,0,0,1-1.458.357,5.342,5.342,0,0,1-2.945-.438,5.756,5.756,0,0,1-2.227-1.977c-.14-.211-.274-.424-.4-.643-.119-.235-.232-.5-.3-.652a9.852,9.852,0,0,1-.349-1.04,11,11,0,0,1-.333-1.925,14.852,14.852,0,0,1,.114-3.453,15.371,15.371,0,0,1,2.048-5.807,8.858,8.858,0,0,1,1.92-2.235,4.341,4.341,0,0,1,2.711-1.057,4.092,4.092,0,0,0-1,2.556,17.567,17.567,0,0,0,.049,2.443,9.514,9.514,0,0,1-.079,3.56,9.79,9.79,0,0,0-.915,4.126,5.994,5.994,0,0,0,.094.909,2.07,2.07,0,0,1,.06.315,1.924,1.924,0,0,0,.092.271,1.168,1.168,0,0,0,.907.724,3.217,3.217,0,0,0,1.459-.321,8.543,8.543,0,0,0,.816-.413q.376-.256.731-.536a7.3,7.3,0,0,0,1.981-2.934,10.746,10.746,0,0,0,.276-6.454,5.682,5.682,0,0,0-1.084-2.228,1.89,1.89,0,0,0-.6-.481c-.1-.061-.226-.061-.338-.124a2,2,0,0,0-.377-.035,7.883,7.883,0,0,0-2.65.718C270.768,443.76,269.861,444.308,269.533,444.458Z"></path><g class="cls-2"><path d="M257.19,402.074c-.639.047-1.319-1.019-2.232-2.18a19.9,19.9,0,0,0-2.8-3.151c-2.884-2.17-5.29-5.158-7.592-7.769-4.007-4.559-6.96-9.717-8.042-14.167,3.656-.9,7.781.32,8.142,1.689a31.763,31.763,0,0,0,6.412,12.152c2.466,3.085,4.914,5.574,6.046,8.467a6.6,6.6,0,0,1,.423,2.8A7.718,7.718,0,0,1,257.19,402.074Z"></path></g><g class="cls-2"><path d="M266.584,438.438c-1.267-.078-1.885-4.48-2.927-6.021-1.792-2.723-2.806-5.975-3.871-8.879-1.834-5.07-2.438-10.322-1.614-14.437,3.657.348,6.895,2.664,6.684,3.936a25.15,25.15,0,0,0,1,12.259c1.033,3.357,2.3,6.248,2.216,8.987C268.148,435.571,266.9,437.971,266.584,438.438Z"></path></g><g class="cls-2"><path d="M268.043,462.176c-.308.541-1.135.52-2,.173-.878-.329-1.731-.96-2.377-1.2a6.243,6.243,0,0,1-2.9-2.268,10.866,10.866,0,0,1-1.589-3.378,8.191,8.191,0,0,1,.371-5.678,6.962,6.962,0,0,1,3.3-3.431,24.874,24.874,0,0,1,3.329,2.766c.75.769,1.1,1.3.764,1.493-2.69,1.592-2.788,4.023-1.992,5.475a6.873,6.873,0,0,0,1.444,1.815,4.731,4.731,0,0,1,1.16,1.451,4.329,4.329,0,0,1,.268,1.371C267.884,461.356,268.01,461.945,268.043,462.176Z"></path></g><path class="cls-3" d="M179.57,457.943c-.486-1.854,2.026-3.536,1.5-5.38a.8.8,0,0,0-.269-.441.989.989,0,0,0-.581-.132,12.235,12.235,0,0,0-3.675.538,3.994,3.994,0,0,0-1.368-2.688,1.827,1.827,0,0,0-1.583-.513,1.959,1.959,0,0,0-1.165,1.275,5.669,5.669,0,0,0-.379,1.628,13.651,13.651,0,0,1-.148,2.106,1.787,1.787,0,0,1-1.36,1.446c-.287.034-.578-.035-.865,0s-.6.213-.619.5a.746.746,0,0,0,.092.361,6.2,6.2,0,0,0,3.025,2.645,13.628,13.628,0,0,1,3.507,2.081"></path><path d="M175.675,461.376c-.2-.006-1.189-.744-2.567-1.3a22.578,22.578,0,0,1-2.08-.985,7.915,7.915,0,0,1-1.6-1.163,3.946,3.946,0,0,1-.578-.687,2.385,2.385,0,0,1-.382-.89,1,1,0,0,1,.32-.867,1.566,1.566,0,0,1,.915-.4,2.988,2.988,0,0,1,.4-.015,2.414,2.414,0,0,0,.331,0,.541.541,0,0,0,.184-.075,1.026,1.026,0,0,0,.34-.4,3.164,3.164,0,0,0,.2-1.52,7.368,7.368,0,0,1,.216-2.2,3.689,3.689,0,0,1,1.342-2.183,2.155,2.155,0,0,1,1.106-.368,2.494,2.494,0,0,1,1.051.186,3.866,3.866,0,0,1,1.4,1.018,4.874,4.874,0,0,1,.867,1.348c.053.122.1.246.143.372.023.066.019.065.019.065l-.006.015.006.009.008,0c.027,0-.054.015.09-.013a11.566,11.566,0,0,1,1.18-.163q.587-.051,1.159-.046c.219.006.3,0,.689.025a1.624,1.624,0,0,1,.866.31,1.885,1.885,0,0,1,.628,1.39,3.087,3.087,0,0,1-.179,1.125,6.706,6.706,0,0,1-.872,1.576,3.779,3.779,0,0,0-1.026,2.337,1.866,1.866,0,0,1-.372-1.526,9.995,9.995,0,0,1,.464-1.818,3.937,3.937,0,0,0,.248-1.332c-.007-.074-.026-.134-.027-.195-.032-.1-.01.008-.017-.01-.006,0,0,0,.008-.012l0-.007a.066.066,0,0,0-.01-.067c-.093-.021-.32-.039-.473-.051a9.816,9.816,0,0,0-2.029.063c-.561.089-1.129.272-1.6.347a8.212,8.212,0,0,0-.187-1.513,3.428,3.428,0,0,0-.3-.74,3.056,3.056,0,0,0-1.04-1.127.956.956,0,0,0-1.159,0,2.547,2.547,0,0,0-.7,1.227,13.843,13.843,0,0,0-.28,3.058,2.755,2.755,0,0,1-.742,1.578,1.868,1.868,0,0,1-.825.488,1.976,1.976,0,0,1-.432.061h-.172c-.224-.04-.53.157-.386.4a1.892,1.892,0,0,0,.171.281,4,4,0,0,0,.322.374,8.959,8.959,0,0,0,2,1.44A17.284,17.284,0,0,1,174.4,460.1,6.053,6.053,0,0,1,175.675,461.376Z"></path><path class="cls-3" d="M170.137,461.44a17.626,17.626,0,0,1,3.249-3.79,4.535,4.535,0,0,1,1.785-1.08,5.229,5.229,0,0,1,2.864.362c1.846.6,3.787,1.261,5.063,2.725a10.531,10.531,0,0,1,1.639,2.976q1.763,4.262,3.333,8.6a2.216,2.216,0,0,1,.188.88,2.262,2.262,0,0,1-.5,1.105l-2.508,3.576c-.966,1.378-2.1,2.868-3.756,3.168a6.552,6.552,0,0,1-4.024-1.064c-1.554-.8-3.193-1.682-4.058-3.2a9.118,9.118,0,0,1-.828-2.438l-2.666-11.236"></path><path d="M169.929,462.02a38.843,38.843,0,0,1,1.564,5.331c.354,1.375.732,2.84,1.078,4.181a24.142,24.142,0,0,0,.985,3.319,6.477,6.477,0,0,0,3.286,2.933c1.466.709,3.019,1.58,4.322,1.395,1.294-.157,2.337-1.421,3.254-2.78l1.427-2.089.705-1.033c.221-.329.5-.72.638-.955a.811.811,0,0,0,.094-.229.3.3,0,0,0-.009-.135,7.186,7.186,0,0,0-.312-.857l-.778-1.976q-.763-1.974-1.512-3.913c-.5-1.273-.952-2.629-1.5-3.723a5.482,5.482,0,0,0-2.3-2.474,19.483,19.483,0,0,0-3.31-1.418,3.312,3.312,0,0,0-2.867-.137,12.83,12.83,0,0,0-2.413,1.94,19.1,19.1,0,0,0-1.911,2.192,11.576,11.576,0,0,1,1.355-2.708,14.179,14.179,0,0,1,1.072-1.406,6.515,6.515,0,0,1,1.417-1.3,3.623,3.623,0,0,1,2.043-.544,7.431,7.431,0,0,1,1.746.281,14.381,14.381,0,0,1,2.337.8,8.082,8.082,0,0,1,4.8,5.274c.738,2.072,1.449,4.064,2.136,5.992q.537,1.445,1.054,2.841a6.853,6.853,0,0,1,.249.739,1.722,1.722,0,0,1,0,.931,5.282,5.282,0,0,1-.8,1.355l-1.626,2.323c-.534.758-1.034,1.532-1.637,2.251a5.929,5.929,0,0,1-2.222,1.757,4.275,4.275,0,0,1-2.808.1,13.166,13.166,0,0,1-2.378-.994,18.292,18.292,0,0,1-2.151-1.217,6.111,6.111,0,0,1-2.751-3.965c-.355-1.453-.656-2.823-.944-4.17C170.7,467.383,170.042,462.9,169.929,462.02Z"></path><g class="cls-2"><path d="M171.469,462.643a9.649,9.649,0,0,1,2.5-2.986,1.387,1.387,0,0,1,1.116-.4c.457.111.69.608.859,1.047l3.885,10.092a.8.8,0,0,1,.08.4.706.706,0,0,1-.232.377c-.459.457-1.06.761-1.478,1.255a1.305,1.305,0,0,0-.1,1.748,1.935,1.935,0,0,0,1.028.341,7.442,7.442,0,0,1,2.769,1.03,4.779,4.779,0,0,1-6.027-.23c-1.743-1.619-1.974-4.246-2.148-6.619s-.547-5.022-2.43-6.475"></path><path d="M171.3,462.21a2.4,2.4,0,0,1,1.074.851,6.823,6.823,0,0,1,1.227,2.562,19.718,19.718,0,0,1,.52,3.195,18.232,18.232,0,0,0,.391,2.53,5.563,5.563,0,0,0,2.58,3.908,4.137,4.137,0,0,0,1.1.358,3.073,3.073,0,0,0,.839.042c.127-.033.22-.1.2-.155a.763.763,0,0,0-.206-.049h-.083c-.146-.02-.328-.042-.542-.091a2.3,2.3,0,0,1-.775-.327,1.854,1.854,0,0,1-.783-1.283,2.409,2.409,0,0,1,.2-1.326,3.978,3.978,0,0,1,1.382-1.517l.285-.219.117-.1h0c-.145-.385-.291-.768-.435-1.149-.723-1.92-1.406-3.8-2.035-5.6q-.464-1.349-.9-2.638c-.145-.42-.289-.909-.39-1.094a.284.284,0,0,0-.337-.185,2.968,2.968,0,0,0-.81.506,10.075,10.075,0,0,0-2.2,2.348,6.377,6.377,0,0,1,.79-2.122,8.067,8.067,0,0,1,.768-1.094,2.772,2.772,0,0,1,1.318-1.009,1.673,1.673,0,0,1,1.867.82,9.638,9.638,0,0,1,.594,1.149,12.7,12.7,0,0,1,.652,1.64q.672,2.316,1.371,4.478.358,1.085.7,2.126l.354,1.036.089.257a3.7,3.7,0,0,1,.124.378.933.933,0,0,1-.091.738,2.288,2.288,0,0,1-.515.544c-.152.121-.3.228-.446.331a4.712,4.712,0,0,0-.745.6,1.293,1.293,0,0,0-.339.692.586.586,0,0,0,.189.564,1.567,1.567,0,0,0,.741.22,7.707,7.707,0,0,1,1.281.314,11.6,11.6,0,0,1,2.128,1.037c0,.03.027.057-.008.088l-.132.1-.263.191c-.173.11-.344.235-.517.331a5.116,5.116,0,0,1-1.133.517,5.355,5.355,0,0,1-2.523.148,5.036,5.036,0,0,1-3.426-2.353,9.181,9.181,0,0,1-1.173-3.613c-.167-1.184-.182-2.312-.269-3.351a14.424,14.424,0,0,0-.564-3.258A5.348,5.348,0,0,0,171.3,462.21Z"></path></g><path class="cls-3" d="M182.277,473.962a30.333,30.333,0,0,1,5.461,2.942,7.28,7.28,0,0,1,2.491,2.459c.561,1.058.513,2.472-.352,2.856-.748.333-1.873-.157-2.445.432a2.352,2.352,0,0,0-.405.87,4.571,4.571,0,0,1-2.248,2.373c-1.2.326-2.068-1.213-2.839-2.567-.5-.886-.648-2.044-1.441-2.63-.577-.427-2.115,1.044-2.745.989a1.746,1.746,0,0,1-1.595-1.125,1.326,1.326,0,0,1,.711-1.331c1.872-1.382,3.914-2.9,4.288-5.49"></path><path d="M181.173,473.742a2.248,2.248,0,0,1-.117,1.185,6.03,6.03,0,0,1-1.207,2.164,14.712,14.712,0,0,1-2.059,1.94c-.336.28-.716.551-.924.768-.222.239-.263.408-.234.555a.8.8,0,0,0,.5.532,1.655,1.655,0,0,0,.463.137.329.329,0,0,0,.278-.037c.281-.137.672-.419,1.088-.671.112-.065.216-.13.345-.193a3.2,3.2,0,0,1,.534-.209,1.369,1.369,0,0,1,1.148.168,3.031,3.031,0,0,1,.574.568,3.888,3.888,0,0,1,.323.5c.18.333.305.647.427.935a6.6,6.6,0,0,0,.357.755l.47.773a5.11,5.11,0,0,0,.974,1.218.6.6,0,0,0,.322.156.543.543,0,0,0,.278-.118,4.35,4.35,0,0,0,1.346-1.615c.047-.1.106-.342.232-.643a1.979,1.979,0,0,1,.84-.976,2.169,2.169,0,0,1,.614-.232,3.273,3.273,0,0,1,.493-.058c.294-.012.532,0,.732.008a2.253,2.253,0,0,0,.44-.018c.088-.021.067-.017.088-.026a.755.755,0,0,0,.145-.513,2.689,2.689,0,0,0-.68-1.725,17.1,17.1,0,0,0-3.419-2.786c-1.188-.8-2.332-1.484-3.375-2.061a12.649,12.649,0,0,1,4.163.955,10.132,10.132,0,0,1,3.28,1.917,5.8,5.8,0,0,1,1.595,2.747,3.468,3.468,0,0,1-.04,1.652,2.122,2.122,0,0,1-.438.816,1.654,1.654,0,0,1-.837.511,4.879,4.879,0,0,1-1.426.027c-.405-.012-.6.01-.749.188-.134.135-.236.636-.473,1.041a5.9,5.9,0,0,1-.766,1.042,5.107,5.107,0,0,1-.959.842,1.787,1.787,0,0,1-1.376.322,2.252,2.252,0,0,1-1.144-.7,6.458,6.458,0,0,1-.724-.93c-.209-.316-.4-.633-.58-.942a6.609,6.609,0,0,1-.5-1c-.137-.332-.259-.647-.4-.923a2.609,2.609,0,0,0-.23-.376.976.976,0,0,0-.2-.216.3.3,0,0,0-.3-.055,1.734,1.734,0,0,0-.358.163l-1.011.6a2.339,2.339,0,0,1-.69.281,1.809,1.809,0,0,1-.791-.06,2.417,2.417,0,0,1-1.225-.73,1.6,1.6,0,0,1-.325-1.552,2.313,2.313,0,0,1,.883-1.062c.566-.41,1.111-.8,1.618-1.194a11.439,11.439,0,0,0,2.055-1.969A6.2,6.2,0,0,0,181.173,473.742Z"></path><path d="M188.267,481.648c-.057-.066-.042-.23-.1-.444a1.521,1.521,0,0,0-.382-.671,1.928,1.928,0,0,0-.582-.382c-.092-.032-.164-.085-.243-.061-.088.042-.074.184-.061.265l.068.4.02.147a.527.527,0,0,1-.028.243,2.221,2.221,0,0,1-1.174,1.509,2.016,2.016,0,0,1-1.116.192,2.04,2.04,0,0,1-1.065-.47,2.983,2.983,0,0,1-.942-1.639,5.1,5.1,0,0,1-.094-.564c-.019-.156-.038-.414-.036-.342h0a.041.041,0,0,0,0-.027.031.031,0,0,0-.016-.013l-.013,0h-.009l-.081.056c-.477.334-.947.643-1.4.923l-.686.405a2.056,2.056,0,0,1-.965.311c-.643-.025-.777-.23-1.014-.175,0-.4.667-.564.871-.788a2.666,2.666,0,0,0,.2-.389,3.352,3.352,0,0,1,.311-.484,2.081,2.081,0,0,1,.65-.623c.283-.133.556-.269.822-.409.193-.067.726-.489,1.081-.6a1.215,1.215,0,0,1,1.1.065,1.285,1.285,0,0,1,.515.937,10.019,10.019,0,0,0,.141,1.683,1.223,1.223,0,0,0,.664.848.794.794,0,0,0,.816-.228,1.107,1.107,0,0,0,.238-.384,1.756,1.756,0,0,0,.075-.236,2.821,2.821,0,0,0,.075-.428,3.036,3.036,0,0,1,.144-.9.979.979,0,0,1,.311-.507c.246-.131.418-.034.632.031a2.358,2.358,0,0,1,.644.409,2.192,2.192,0,0,1,.893,1.4A1.11,1.11,0,0,1,188.267,481.648Z"></path><path class="cls-1" d="M184.931,472.114c-.163-.036-.282-.495-.457-1.01a7.378,7.378,0,0,0-.576-1.4,22.557,22.557,0,0,1-1.7-3.572c-.9-2.192-1.044-4.052-2.236-4.653a1.452,1.452,0,0,1,1.623-.335,1.728,1.728,0,0,1,1.073.886c.3,1.071.37,1.951.564,2.726a15.867,15.867,0,0,0,.688,2.152,16.948,16.948,0,0,1,1.251,3.537A3.772,3.772,0,0,1,184.931,472.114Z"></path><ellipse class="cls-4" cx="230.844" cy="465.333" rx="11.432" ry="12.575" transform="translate(-238.54 242.841) rotate(-38.253)"></ellipse><path d="M238.62,475.2c.049-.18.674-.686,1.388-1.608a11.337,11.337,0,0,0,1.93-3.843,11.906,11.906,0,0,0-.992-8.744,13.208,13.208,0,0,0-8.6-6.672,10.058,10.058,0,0,0-10,3.153,10.653,10.653,0,0,0-2.227,8.626,13.073,13.073,0,0,0,4.242,7.62,12.206,12.206,0,0,0,7.38,3.1,11.02,11.02,0,0,0,3.654-.392,11.732,11.732,0,0,0,3.054-1.45,9.18,9.18,0,0,1-2.818,2.17,10.4,10.4,0,0,1-4.161,1.019,12.1,12.1,0,0,1-4.088-.567,10.38,10.38,0,0,1-2.719-1.354,14.477,14.477,0,0,1-5.958-14.228,11.513,11.513,0,0,1,3.466-6.3,11.2,11.2,0,0,1,6.113-2.854,13.269,13.269,0,0,1,11.211,4.2A13.449,13.449,0,0,1,243.213,467a11.425,11.425,0,0,1-.487,2.692,11.063,11.063,0,0,1-1.287,2.66A10.582,10.582,0,0,1,238.62,475.2Z"></path><path class="cls-1" d="M219.182,467.771,208,470.705a1.646,1.646,0,0,0-1.266,1.937l.113.331a1.17,1.17,0,0,0,1.514.638l11.077-3.217a1.669,1.669,0,0,0,1.25-1.836l-.012-.047A1.145,1.145,0,0,0,219.182,467.771Z"></path><path d="M219.178,467.757a.957.957,0,0,1,.976-.123,1.194,1.194,0,0,1,.744.71,1.581,1.581,0,0,1-.035,1.208,2.159,2.159,0,0,1-.836.965,2.409,2.409,0,0,1-.58.259l-.509.17c-.663.223-1.262.431-1.684.6-1.491.6-3.112,1.171-4.754,1.718l-2.466.8-1.221.388a2.889,2.889,0,0,1-.872.17,2.219,2.219,0,0,1-1.066-.24,2,2,0,0,1-.77-.713,2.37,2.37,0,0,1-.2-.434l-.092-.255a2.3,2.3,0,0,1,.153-1.827A2.832,2.832,0,0,1,207.109,470a2.921,2.921,0,0,1,.724-.278l.513-.13c1.362-.342,2.7-.653,3.975-.927,2.558-.548,4.893-.951,6.788-1.165a15.42,15.42,0,0,1-5.6,2.774c-1.169.155-2.295.334-3.382.53l-1.6.306-.391.081a1.319,1.319,0,0,0-.276.086,1.407,1.407,0,0,0-.474.342.946.946,0,0,0-.226,1.017c.087.282.113.357.237.476a.751.751,0,0,0,.444.179A4.61,4.61,0,0,0,209.1,473l1.328-.4,4.877-1.547,2.21-.67,1.993-.549a1.314,1.314,0,0,0,.873-1.37.877.877,0,0,0-.582-.619A1.607,1.607,0,0,0,219.178,467.757Z"></path><path class="cls-5" d="M233.637,471.587c-1.031-.585-3.491-2.933-3.2-3.987.132-.479.645-.858,2.445-.388a5.382,5.382,0,0,1,2.423,1.582c1.924,1.8-.077,3.838-3.384,3.872a8.537,8.537,0,0,1-5.959-2.015c-2.417-2.052-2.846-3.619-2.835-4.952.029-3.789,6.66-5.274,6.66-5.274l-1.431,3.618S220.615,467.288,233.637,471.587Z" style=""></path><path class="cls-5" d="M233.632,471.6a16,16,0,0,1-4.672-1.592,6.784,6.784,0,0,1-3.073-2.539,2.132,2.132,0,0,1,.07-2.031A4.19,4.19,0,0,1,227,464.256a5.653,5.653,0,0,1,.517-.376l.391-.243.08-.259.161-.471.164-.475.083-.238a1.008,1.008,0,0,0,.035-.117l.077-.3.03-.126c-.007-.025.057-.111-.029-.064a5.814,5.814,0,0,0-.556.247,13.6,13.6,0,0,0-1.747.907,4.178,4.178,0,0,0-2.127,2.592,3.955,3.955,0,0,0,1.019,3.074,11.318,11.318,0,0,0,1.9,1.8,7.249,7.249,0,0,0,2.228,1.123,8.957,8.957,0,0,0,2.5.349,5.8,5.8,0,0,0,2.3-.375c1.459-.706,1.507-1.249.085-2.5a3.673,3.673,0,0,0-1.8-.977,5.081,5.081,0,0,0-.513-.109c-.158-.029-.351-.035-.371-.039a.3.3,0,0,0-.33.184.462.462,0,0,0,.01.272,3.062,3.062,0,0,0,.244.5,7.877,7.877,0,0,0,.734,1.027,10.377,10.377,0,0,0,1.694,1.673,6.862,6.862,0,0,1-2.164-1.133,7.418,7.418,0,0,1-1.094-.978,3.673,3.673,0,0,1-.5-.686,2.015,2.015,0,0,1-.221-1.1,1.409,1.409,0,0,1,.777-1.025,2.864,2.864,0,0,1,1.244-.24,6.436,6.436,0,0,1,1.738.255,5.081,5.081,0,0,1,2.238,1.479l.208.234.258.308a3.3,3.3,0,0,1,.431.732,2.343,2.343,0,0,1,.044,1.827,3.553,3.553,0,0,1-2.272,1.883,7.264,7.264,0,0,1-2.517.35,11.7,11.7,0,0,1-2.363-.279,8.9,8.9,0,0,1-4.025-2.125,8.556,8.556,0,0,1-2.56-3.465,4.614,4.614,0,0,1-.212-2.142,3.768,3.768,0,0,1,.857-1.943,8.751,8.751,0,0,1,3.141-2.306c.305-.141.518-.24.9-.39.4-.156.806-.3,1.213-.422s.8-.223,1.193-.329l.3-.076c.037,0,.133-.052.123-.012l-.046.139-.181.552c-.2.676-.6,1.629-.837,2.267q-.342.883-.674,1.741c-.176.078-.4.185-.528.253-.106.057-.209.117-.309.181a4.582,4.582,0,0,0-.56.409,2.151,2.151,0,0,0-.7.95c-.228.629.289,1.358.933,1.927C229.212,469.618,232.935,471.275,233.632,471.6Z" style=""></path><path class="cls-5" d="M227.514,461.319a10.574,10.574,0,0,1,3.828-1.2,9.642,9.642,0,0,1,5.283,1.026c10.315,5.583,3.789,18.531-7.506,15.423,19.769-8.189,3.412-14.543-.766-12.523" style=""></path><path class="cls-5" d="M228.347,464.029a2.972,2.972,0,0,1,1.7-.547,10.63,10.63,0,0,1,3.687.394,10.122,10.122,0,0,1,3.863,1.943,3.985,3.985,0,0,1,1.532,3.38,4.677,4.677,0,0,1-1.012,2.4,10.819,10.819,0,0,1-1.785,1.843l-1.017.771-1.066.7-1.669.97c-.217.126-.272.161-.331.2l-.016.014.055.006.1.01.164,0a1.015,1.015,0,0,0,.118-.011c-.068,0,.236-.007.4-.014l.555-.062a8.588,8.588,0,0,0,2.12-.528,7.792,7.792,0,0,0,4.823-5.13,6.805,6.805,0,0,0-1.641-6.4,11.221,11.221,0,0,0-2.64-2.134,9.1,9.1,0,0,0-2.99-1.064,8.035,8.035,0,0,0-2.978,0,10.646,10.646,0,0,0-2.657.778,7.605,7.605,0,0,1,2.5-1.519,8.594,8.594,0,0,1,1.688-.486,8.787,8.787,0,0,1,1.824-.089,9.047,9.047,0,0,1,3.366.811,9.4,9.4,0,0,1,5.326,7.577,8.557,8.557,0,0,1-2.048,6.087,9.7,9.7,0,0,1-5.061,3.13,10.076,10.076,0,0,1-1.416.265l-.708.07-.8.012c-.615-.012-1.2-.094-1.775-.16-.549-.108-1.075-.19-1.648-.33l-.846-.192c-.063,0,0-.023.02-.037l.085-.043.169-.087.34-.174,1.348-.7,1.591-.766.4-.193.2-.1.133-.074.53-.3a17.221,17.221,0,0,0,3.734-2.69c1.021-1.006,1.753-2.271,1.435-3.41a4.816,4.816,0,0,0-2.431-2.65A14.078,14.078,0,0,0,231.534,464,6.358,6.358,0,0,0,228.347,464.029Z" style=""></path><path class="cls-5" d="M239.158,458.262s-14.934-7.7-19.082,8.5c0,0-2.632-9.738,7.133-12.586C234.284,452.11,239.158,458.262,239.158,458.262Z" style=""></path><path class="cls-5" d="M239.146,458.271a27.263,27.263,0,0,0-3.768-2.733,11.42,11.42,0,0,0-3.34-1.2,9.393,9.393,0,0,0-1.586-.127l-.689.012-.591.091a11.134,11.134,0,0,0-1.888.476,17.039,17.039,0,0,0-1.833.815,9,9,0,0,0-3.038,2.527,9.869,9.869,0,0,0-1.563,7.541c.049.287.11.6.171.832l-1.892.012a17.482,17.482,0,0,1,3.065-6.652,10.637,10.637,0,0,1,5.928-3.86,13.636,13.636,0,0,1,6.281.071,17.674,17.674,0,0,1,4.886,1.934,38.534,38.534,0,0,0-5.464-.669,24.186,24.186,0,0,0-4.5.278,8.792,8.792,0,0,0-5.966,3.258,15.819,15.819,0,0,0-2.9,5.981l-.425,1.559-.339-1.554a13.088,13.088,0,0,1,.213-6.614,9.471,9.471,0,0,1,3.616-4.9,8.279,8.279,0,0,1,1.251-.749,6.821,6.821,0,0,1,1.3-.578,11,11,0,0,1,2.655-.721,10.091,10.091,0,0,1,5.085.616,11.14,11.14,0,0,1,3.436,2.175A11.663,11.663,0,0,1,239.146,458.271Z" style=""></path><path class="cls-5" d="M241.654,469.453c-.206-.2-.013-2.478-1.258-4.6a7.3,7.3,0,0,0-2.524-2.591,8.634,8.634,0,0,0-2.764-1.118,13.017,13.017,0,0,0-8.165.875,5.187,5.187,0,0,0-2.7,2.644,3.112,3.112,0,0,0-.117,1.745,5.134,5.134,0,0,0,.6,1.757,7.66,7.66,0,0,0,5.466,3.36,9.338,9.338,0,0,0,3.259.038,3.686,3.686,0,0,0,1.289-.465c.316-.238.366-.34.352-.575a2.381,2.381,0,0,0-.593-1.014l-.529-.514-.588-.481a5.022,5.022,0,0,0-1.185-.679,1.329,1.329,0,0,0-.914-.107c-.175.086-.24.272-.169.653a3.094,3.094,0,0,0,.519,1.083,9.557,9.557,0,0,0,1.768,1.775,6.83,6.83,0,0,1-2.362-1.3,3.683,3.683,0,0,1-1-1.383,4.41,4.41,0,0,1-.114-.5,4.656,4.656,0,0,1,.049-.6,1.588,1.588,0,0,1,.8-.953,2.771,2.771,0,0,1,2.052-.11,8.013,8.013,0,0,1,.8.294l.677.369a6.425,6.425,0,0,1,1.806,1.559,3.278,3.278,0,0,1,.749,1.95,2.22,2.22,0,0,1-.347,1.172,2.669,2.669,0,0,1-.763.744,6.256,6.256,0,0,1-3.209.807,12.133,12.133,0,0,1-5.684-1.32,7.554,7.554,0,0,1-3.7-4,6.665,6.665,0,0,1-.385-2.637,4.5,4.5,0,0,1,1-2.421,8.479,8.479,0,0,1,4.06-2.595,13.955,13.955,0,0,1,4.432-.629,10.6,10.6,0,0,1,7.464,2.938,7.312,7.312,0,0,1,1.216,1.7,8.048,8.048,0,0,1,.692,2.128,10.14,10.14,0,0,1,.131,1.895C241.712,468.853,241.673,469.252,241.654,469.453Z" style=""></path><path class="cls-1" d="M241.535,468.317a4.45,4.45,0,0,1-.876,2.58,10.687,10.687,0,0,1-2.708,2.828,9.5,9.5,0,0,1-4.712,1.9,11.277,11.277,0,0,1-5.2-.7,13.489,13.489,0,0,1-6.491-5.309,9.911,9.911,0,0,1-1.479-3.466,5.529,5.529,0,0,1,.254-3.217,9.146,9.146,0,0,0,1.071,2.93c.508.9,1.086,1.664,1.3,2.135a11.421,11.421,0,0,0,3.827,4.562,10.3,10.3,0,0,0,4.978,1.829,9.238,9.238,0,0,0,4.518-.81,11.222,11.222,0,0,0,3.286-2.261,15.383,15.383,0,0,0,1.4-1.614A12.456,12.456,0,0,0,241.535,468.317Z"></path><path class="cls-1" d="M238.213,459.464c-.17.043-.634-.434-1.191-.951a9.471,9.471,0,0,0-1.633-1.3,11.106,11.106,0,0,0-4.7-1.639,15.38,15.38,0,0,0-7.249,1.878,3.877,3.877,0,0,1,.846-1.856,2.933,2.933,0,0,1,1.328-1.018,13.713,13.713,0,0,1,7.048.035,9.673,9.673,0,0,1,4.485,2.849A6.7,6.7,0,0,1,238.213,459.464Z"></path><path class="cls-5" d="M198.456,471.691c-1.568-.482-1.659-3.067-3.236-3.517a.683.683,0,0,0-.442,0,.851.851,0,0,0-.357.363,10.455,10.455,0,0,0-1.265,2.915,3.414,3.414,0,0,0-2.572-.216,1.56,1.56,0,0,0-1.086.92,1.675,1.675,0,0,0,.4,1.421,4.85,4.85,0,0,0,1.013,1.01,11.608,11.608,0,0,1,1.465,1.057,1.53,1.53,0,0,1,.439,1.64c-.105.224-.286.4-.394.627a.551.551,0,0,0,.086.676.629.629,0,0,0,.3.095,5.3,5.3,0,0,0,3.286-1.007,11.743,11.743,0,0,1,3.094-1.613" style=""></path><path d="M199.2,476.073c-.088.162-1.06.559-2.077,1.317a19.2,19.2,0,0,1-1.653,1.081,6.359,6.359,0,0,1-1.64.669,2.8,2.8,0,0,1-1.561-.016.883.883,0,0,1-.506-.526,1.279,1.279,0,0,1-.039-.729,2.367,2.367,0,0,1,.374-.806.727.727,0,0,0,.059-.1l0-.02c0-.016,0-.027,0-.043a.535.535,0,0,0-.01-.1,1.108,1.108,0,0,0-.31-.529c-.334-.351-1.08-.639-1.814-1.236a5.7,5.7,0,0,1-.937-.982,2.817,2.817,0,0,1-.6-1.544,2,2,0,0,1,.245-1.04,2.28,2.28,0,0,1,.646-.726,3.444,3.444,0,0,1,1.427-.59,4.3,4.3,0,0,1,1.413-.027l.174.028c.048.01.144.03.115.025l0,0,.009.012c.007,0,.009.013.029-.015l.174-.407.221-.463c.154-.3.321-.593.5-.871.064-.1.23-.36.4-.581a1.482,1.482,0,0,1,.617-.459,2.117,2.117,0,0,1,2.15.837,5.68,5.68,0,0,1,.758,1.378c.345.84.612,1.512,1.174,1.809a1.565,1.565,0,0,1-1.326-.359,8.621,8.621,0,0,1-1.172-1.135,3.044,3.044,0,0,0-.85-.716c-.054.023-.019.054-.039.016l0-.006c.052-.27-.466.432-.731.886l-.21.374a3.926,3.926,0,0,0-.223.478c-.184.44-.31.952-.474,1.3-.313-.169-.644-.339-.947-.48a3.087,3.087,0,0,0-.409-.137c-.083-.022-.166-.041-.251-.055a2.78,2.78,0,0,0-1.013.014,1.688,1.688,0,0,0-.827.378.667.667,0,0,0-.2.662,3.1,3.1,0,0,0,1.108,1.485c.486.4,1.135.657,1.7,1.182a2.38,2.38,0,0,1,.641,1,1.807,1.807,0,0,1,.085.637,1.494,1.494,0,0,1-.056.336,1.174,1.174,0,0,1-.056.164l-.02.047c-.066.137-.176.245-.177.39-.021.156.144.249.283.229a1.737,1.737,0,0,0,.393-.029l.1-.021.179-.045c.119-.031.238-.07.355-.111a10.017,10.017,0,0,0,1.367-.627,13.386,13.386,0,0,1,1.913-.889A5.061,5.061,0,0,1,199.2,476.073Z"></path><path class="cls-5" d="M196.747,480.127a15.1,15.1,0,0,1-1.292-4.071,3.879,3.879,0,0,1,.02-1.784,4.45,4.45,0,0,1,1.554-1.92,9.314,9.314,0,0,1,4.263-2.454,9.012,9.012,0,0,1,2.9.15q3.894.639,7.757,1.452a1.442,1.442,0,0,1,1.3,1.125l1.47,3.435c.567,1.324,1.139,2.82.611,4.16a5.6,5.6,0,0,1-2.588,2.446,5.868,5.868,0,0,1-6.3,1.012l-9.372-3.126" style=""></path><path d="M197.075,480.537a28.566,28.566,0,0,1,4.6,1.226l3.53,1.09a20.007,20.007,0,0,0,2.852.762,5.5,5.5,0,0,0,3.552-1.085c1.174-.749,2.491-1.5,2.905-2.478.438-.949.01-2.24-.568-3.517l-1.719-3.836a.5.5,0,0,0-.1-.138c-.015-.01,0,0-.054-.023a6.819,6.819,0,0,0-.742-.152q-.9-.161-1.787-.323l-3.524-.664c-1.147-.213-2.345-.5-3.367-.6a4.568,4.568,0,0,0-2.763.531,16.516,16.516,0,0,0-2.511,1.742c-.811.636-1.335,1.166-1.372,1.94a10.953,10.953,0,0,0,.3,2.608A16.736,16.736,0,0,0,197,480a9.428,9.428,0,0,1-1.435-2.177,11.745,11.745,0,0,1-.574-1.411,5.544,5.544,0,0,1-.333-1.636,3.2,3.2,0,0,1,.528-1.8,6.385,6.385,0,0,1,1-1.173,11.2,11.2,0,0,1,1.638-1.351,8.4,8.4,0,0,1,3.008-1.267,8.261,8.261,0,0,1,3.091.174l5.318,1.174,2.54.52a5.7,5.7,0,0,1,.656.155,1.543,1.543,0,0,1,.7.439,4.583,4.583,0,0,1,.633,1.21c.625,1.533,1.313,2.925,1.86,4.439a5.145,5.145,0,0,1,.282,2.437,3.73,3.73,0,0,1-1.211,2.124,11.35,11.35,0,0,1-1.8,1.293,15.356,15.356,0,0,1-1.862,1.024,5.292,5.292,0,0,1-4.177.22c-1.22-.4-2.349-.8-3.457-1.2C201.3,482.463,197.764,480.866,197.075,480.537Z"></path><g class="cls-2"><path d="M198.223,479.7a8.233,8.233,0,0,1-1.044-3.165,1.184,1.184,0,0,1,.208-.994,1.282,1.282,0,0,1,1.148-.152l9.091,1.723a.7.7,0,0,1,.329.123.614.614,0,0,1,.17.339c.125.54.075,1.114.246,1.64s.7,1.018,1.228.859a1.665,1.665,0,0,0,.711-.594,6.365,6.365,0,0,1,2-1.549,4.088,4.088,0,0,1-2.884,4.279c-1.963.538-3.978-.478-5.781-1.421s-3.9-1.866-5.805-1.151"></path><path d="M197.832,479.623a1.925,1.925,0,0,1,1.1-.423,5.8,5.8,0,0,1,2.432.248,17.122,17.122,0,0,1,2.57,1.054,14.887,14.887,0,0,0,2.017.84,4.71,4.71,0,0,0,3.89-.123,3.35,3.35,0,0,0,1.569-3.182l1.294.7a5.488,5.488,0,0,0-1.679,1.365,2.664,2.664,0,0,1-1.03.854,1.926,1.926,0,0,1-2.264-.828,3.521,3.521,0,0,1-.506-1.756l-.031-.3c-.006-.049,0-.014,0-.025h0l-.283-.055-.647-.127c-1.721-.341-3.4-.7-4.987-1.059l-2.322-.547-.845-.209a.249.249,0,0,0-.3.151.54.54,0,0,0-.04.221c0,.154.014.323.028.482a8.442,8.442,0,0,0,.136.942,8.916,8.916,0,0,0,.533,1.712,5.192,5.192,0,0,1-1.261-1.5,6.7,6.7,0,0,1-.485-1.051,4.333,4.333,0,0,1-.178-.611,1.964,1.964,0,0,1,.039-.908,1.511,1.511,0,0,1,1.406-1.021,3.482,3.482,0,0,1,.461,0l.293.023.481.048a9.46,9.46,0,0,1,1.486.262q2,.589,3.894,1.075l1.873.466.918.217c.373.074.923.171,1.075.612a2.264,2.264,0,0,1,.15.64l.036.486a3.514,3.514,0,0,0,.109.793,1.016,1.016,0,0,0,.141.286.8.8,0,0,0,.179.189.482.482,0,0,0,.5.068c.236-.094.646-.726,1.1-1.079a6.923,6.923,0,0,1,1.448-.982l.5-.255.067.562a4.545,4.545,0,0,1-1.215,3.589,4.484,4.484,0,0,1-1.526,1.074,4.634,4.634,0,0,1-1.773.331c-2.381-.072-4.142-1.31-5.7-2.1a13.094,13.094,0,0,0-2.6-1.087A4.638,4.638,0,0,0,197.832,479.623Z"></path></g><path class="cls-5" d="M211.325,476.943a25.948,25.948,0,0,1,4.6-2.646,6.229,6.229,0,0,1,2.911-.7c1.021.068,2.028.74,1.918,1.543-.1.694-.959,1.291-.789,1.972a2.024,2.024,0,0,0,.451.687,3.912,3.912,0,0,1,.712,2.7c-.3,1.021-1.814.957-3.146.907-.872-.033-1.778-.45-2.562-.138-.57.228-.194,2.009-.518,2.442a1.5,1.5,0,0,1-1.537.653,1.134,1.134,0,0,1-.647-1.117c-.162-1.984-.342-4.151-2.06-5.592" style=""></path><path d="M210.669,477.645a1.764,1.764,0,0,1,.83.6,5.111,5.111,0,0,1,1.049,1.857,12.586,12.586,0,0,1,.5,2.379c.054.369.083.774.148,1.01a.482.482,0,0,0,.286.354.5.5,0,0,0,.095.022.55.55,0,0,0,.383-.111,1.253,1.253,0,0,0,.376-.366c.041-.09.019-.1.028-.33l-.015-.663,0-.387a3.245,3.245,0,0,1,.089-.594,1.278,1.278,0,0,1,.719-.891,3.015,3.015,0,0,1,1.265-.177c.325.022.613.071.873.11a5.079,5.079,0,0,0,.685.072l.77,0a4.148,4.148,0,0,0,1.268-.159c.142-.055.191-.109.188-.118a.742.742,0,0,0,.009-.174,3.715,3.715,0,0,0-.455-1.479,2.392,2.392,0,0,0-.311-.414,1.989,1.989,0,0,1-.5-1.168,1.919,1.919,0,0,1,.086-.66,2.693,2.693,0,0,1,.239-.534c.15-.257.287-.442.378-.589s.127-.247.12-.212c-.006-.012.025.005-.007-.04a.929.929,0,0,0-.283-.245,1.938,1.938,0,0,0-1.007-.256,7.056,7.056,0,0,0-2.507.617,39.273,39.273,0,0,0-4.477,2.067,10.039,10.039,0,0,1,2.5-2.721,8.059,8.059,0,0,1,2.88-1.566,5.208,5.208,0,0,1,2.722.086,3.244,3.244,0,0,1,1.2.746,1.75,1.75,0,0,1,.533,1.5,2.41,2.41,0,0,1-.47.963,4.724,4.724,0,0,0-.378.56.424.424,0,0,0,.008.406c.042.1.279.349.434.619a5.172,5.172,0,0,1,.574,1.583,3.578,3.578,0,0,1,.07.85,1.532,1.532,0,0,1-.34.911,2.317,2.317,0,0,1-1.568.672,11.891,11.891,0,0,1-1.46.037,7.93,7.93,0,0,1-1.413-.154,4.549,4.549,0,0,0-.6-.063,1.028,1.028,0,0,0-.382.051.3.3,0,0,0-.208.283,1.534,1.534,0,0,0-.016.186l-.008.323c0,.223,0,.454-.01.7a1.664,1.664,0,0,1-.246.9,2.4,2.4,0,0,1-.876.732,1.668,1.668,0,0,1-1.238.113,1.4,1.4,0,0,1-.874-.841,3.088,3.088,0,0,1-.173-.971c-.036-.521-.068-1.02-.117-1.5a10.394,10.394,0,0,0-.467-2.374A5.363,5.363,0,0,0,210.669,477.645Z"></path><path d="M219.612,476.052a2.213,2.213,0,0,0-1.066-.105,2.872,2.872,0,0,0-.791.345l-.191.114c-.036.007-.027.056-.055.008a.553.553,0,0,0-.161-.183c-.049-.018,0,.021.142-.088.192-.175.106-.092.162-.106a3.191,3.191,0,0,1,1.084.678,1.994,1.994,0,0,1,.607,1.615,1.832,1.832,0,0,1-1.265,1.568,2.686,2.686,0,0,1-1.7-.049,4.42,4.42,0,0,1-.468-.189c-.038-.014-.015,0-.024,0s0,0,0,0a.042.042,0,0,0-.068,0l-.013.015.006.183.007.364,0,.7q-.015.342-.03.688a1.826,1.826,0,0,1-.236.876c-.34.49-.527.434-.616.647a.64.64,0,0,1-.225-.494,1.485,1.485,0,0,0-.052-.531c-.056-.145-.148-.179-.23-.3a2.128,2.128,0,0,1-.239-.436,1.533,1.533,0,0,1-.173-.754c.04-.282.079-.5.1-.82a3.733,3.733,0,0,1,.1-1.163,1.1,1.1,0,0,1,.567-.707,1.134,1.134,0,0,1,.886.025,6.47,6.47,0,0,1,.842.446,2.538,2.538,0,0,0,.532.24.965.965,0,0,0,.862-.093.609.609,0,0,0,.175-.64,1.3,1.3,0,0,0-.457-.612c-.111-.093-.235-.181-.363-.268l-.208-.138a.866.866,0,0,1-.38-.517.7.7,0,0,1,.132-.581.83.83,0,0,1,.27-.219c.126-.062.163-.073.252-.112a3.9,3.9,0,0,1,.489-.167,1.749,1.749,0,0,1,1.25.1A.956.956,0,0,1,219.612,476.052Z"></path><path class="cls-1" d="M201.234,472.2c.174-.272,1.845.161,2.533.111a31.755,31.755,0,0,1,3.727.162c.58.039,1.154.094,1.707.169l.814.122a3.361,3.361,0,0,1,1.077.307,1.675,1.675,0,0,1,.722.83,1.855,1.855,0,0,1,.12.838,2.825,2.825,0,0,1-.361,1.146,14.324,14.324,0,0,0-.957-1.091c-.316-.256-.348.026-.318-.078l0,0c.059-.064-.054-.157-.271-.226s-.414-.139-.616-.2c-.4-.121-.794-.219-1.173-.3a20.912,20.912,0,0,0-2.149-.331,15.449,15.449,0,0,1-3.526-.582A4.638,4.638,0,0,1,201.234,472.2Z"></path><ellipse class="cls-3" cx="204.723" cy="457.486" rx="14.1" ry="12.873" transform="translate(-46.71 23.912) rotate(-6.001)"></ellipse><path d="M218.737,456.075c-.131-.157-.226-1.056-.662-2.3a12.756,12.756,0,0,0-2.457-4.174,13.4,13.4,0,0,0-8.892-4.4,14.786,14.786,0,0,0-11.576,4.12,12.049,12.049,0,0,0-3.186,5.429,10.87,10.87,0,0,0,.1,6.069,12.073,12.073,0,0,0,6.871,7.42,14.667,14.667,0,0,0,9.855.576,13.729,13.729,0,0,0,7.41-5.2,12.479,12.479,0,0,0,1.818-3.733,13.289,13.289,0,0,0,.447-3.789,10.63,10.63,0,0,1,.287,3.977,11.791,11.791,0,0,1-1.575,4.518,13.712,13.712,0,0,1-2.993,3.5,12.016,12.016,0,0,1-2.9,1.75,16.044,16.044,0,0,1-16.98-2.891,12.889,12.889,0,0,1-3.849-7.065,12.6,12.6,0,0,1,.98-7.487,14.831,14.831,0,0,1,10.7-8.067,15.019,15.019,0,0,1,11.589,2.474,12.974,12.974,0,0,1,2.247,2.078,12.427,12.427,0,0,1,1.743,2.811A12.017,12.017,0,0,1,218.737,456.075Z"></path><path class="cls-1" d="M200,470.035l-3.966,12.39A1.856,1.856,0,0,0,197.1,484.8l.381.093A1.312,1.312,0,0,0,199,483.842l3.637-12.465a1.882,1.882,0,0,0-.982-2.3l-.052-.018A1.284,1.284,0,0,0,200,470.035Z"></path><path d="M199.983,470.031a1.105,1.105,0,0,1,.485-.982,1.313,1.313,0,0,1,1.1-.264,1.739,1.739,0,0,1,1.1.76,2.381,2.381,0,0,1,.392,1.355,2.638,2.638,0,0,1-.1.7l-.149.584c-.192.763-.36,1.457-.46,1.958-.351,1.772-.8,3.652-1.278,5.54-.246.945-.493,1.89-.737,2.823q-.187.7-.373,1.392a3.136,3.136,0,0,1-.353.9,2.358,2.358,0,0,1-.829.826,2.117,2.117,0,0,1-1.085.283,2.62,2.62,0,0,1-.5-.069l-.3-.068a2.469,2.469,0,0,1-1.559-1.2,3.072,3.072,0,0,1-.385-1.717,3.184,3.184,0,0,1,.168-.822l.186-.565c.5-1.5,1-2.957,1.507-4.339,1.009-2.764,2.013-5.232,2.921-7.171a19.241,19.241,0,0,1-.9,6.942q-.811,1.815-1.5,3.545-.339.876-.662,1.71l-.158.421a1.615,1.615,0,0,0-.087.329,1.649,1.649,0,0,0,.043.681,1.122,1.122,0,0,0,.863.866,1.034,1.034,0,0,0,.619.061.9.9,0,0,0,.463-.331,5.278,5.278,0,0,0,.489-1.383l.42-1.5q.795-2.963,1.491-5.56.364-1.3.7-2.5l.357-1.18c.107-.366.278-.816.323-1.057a1.515,1.515,0,0,0-.822-1.7,1,1,0,0,0-.951.2A1.8,1.8,0,0,0,199.983,470.031Z"></path><path class="cls-6" d="M212.319,458.621c-1.174.624-4.877,1.538-5.7.626-.374-.414-.423-1.131,1.107-2.556a6.034,6.034,0,0,1,2.956-1.343c2.861-.736,3.581,2.4,1.62,5.558a9.584,9.584,0,0,1-5.5,4.438c-3.4,1.052-5.137.51-6.391-.306-3.564-2.322-.97-9.518-.97-9.518L202,459.069S200.405,468.382,212.319,458.621Z"></path><path class="cls-6" d="M212.329,458.633a18.987,18.987,0,0,1-4.341,3.44,12.211,12.211,0,0,1-1.979.985,4.955,4.955,0,0,1-2.257.378,2.343,2.343,0,0,1-1.832-1.282,4.66,4.66,0,0,1-.472-1.683,6.389,6.389,0,0,1-.039-.71l.012-.537c-.052-.055-.331-.406-.557-.7l-.7-.893-.257-.29-.1-.11c-.029-.01-.071-.126-.079-.017-.028.125-.048.238-.064.341l-.02.145a.727.727,0,0,1-.014.1l-.051.277a15.377,15.377,0,0,0-.206,2.219,8.065,8.065,0,0,0,.25,2.1,3.464,3.464,0,0,0,.935,1.582l.341.272a4.734,4.734,0,0,0,.425.246,4.134,4.134,0,0,0,.892.33,5.54,5.54,0,0,0,1.948.091,12.619,12.619,0,0,0,2.883-.714,8.229,8.229,0,0,0,2.442-1.453,10.094,10.094,0,0,0,1.854-2.18,6.671,6.671,0,0,0,1.054-2.458,1.883,1.883,0,0,0-.359-1.827,1.215,1.215,0,0,0-.8-.169c-.3.035-.889.166-1.266.26a4.184,4.184,0,0,0-2.051,1.144,4.437,4.437,0,0,0-.735.851c-.121.18-.143.311-.045.457.082.09.116.106.321.168a4.012,4.012,0,0,0,.671.076,8.762,8.762,0,0,0,1.428-.085,11.43,11.43,0,0,0,2.623-.624,7.921,7.921,0,0,1-2.411,1.311,8.35,8.35,0,0,1-1.59.418,4.566,4.566,0,0,1-.911.048,2.068,2.068,0,0,1-1.138-.45,1.52,1.52,0,0,1-.436-1.412,3.222,3.222,0,0,1,.5-1.168,7.176,7.176,0,0,1,1.278-1.455,5.723,5.723,0,0,1,2.7-1.2c.194-.038.488-.082.786-.118a3.516,3.516,0,0,1,.928.035,2.52,2.52,0,0,1,1.686,1.031,3.958,3.958,0,0,1,.389,3.208,8.154,8.154,0,0,1-1.165,2.575,12.991,12.991,0,0,1-1.672,2.067,9.886,9.886,0,0,1-4.411,2.53,9.419,9.419,0,0,1-4.805.327,5.106,5.106,0,0,1-2.133-1.1,4.227,4.227,0,0,1-1.292-1.974,9.861,9.861,0,0,1-.271-4.344c.045-.347.1-.689.162-1.028l.134-.645.18-.7c.125-.463.267-.9.408-1.34l.11-.332c.022-.033.03-.162.064-.119l.1.129.413.514c.273.326.557.709.843,1.1l.717.976q.62.848,1.222,1.672c-.035.217-.07.5-.077.629s-.015.272-.015.406a5.2,5.2,0,0,0,.048.788,2.507,2.507,0,0,0,.487,1.279c.489.635,1.522.573,2.452.3C207.826,461.68,211.606,459.105,212.329,458.633Z"></path><path class="cls-6" d="M198.922,458.216a11.938,11.938,0,0,1,1.17-4.362,10.852,10.852,0,0,1,4.156-4.395c11.5-6.413,19.8,7.624,10.053,16.466,4.178-23.728-11.69-12.045-12.3-6.856"></path><path class="cls-6" d="M201.987,459.067a3.473,3.473,0,0,1,.529-1.935,12,12,0,0,1,2.6-3.247,11.318,11.318,0,0,1,4.16-2.476,4.383,4.383,0,0,1,4.075.605,5.252,5.252,0,0,1,1.622,2.395,12.154,12.154,0,0,1,.647,2.788q.054.71.11,1.424l.015,1.429c-.008.476-.04.95-.06,1.427-.013.239-.019.479-.047.714l-.034.356-.016.168v.033l-.007.369a.106.106,0,0,0,0,.027l.038-.046.068-.083.1-.144L216,462.5a8.968,8.968,0,0,0,.611-1.12,9.755,9.755,0,0,0,.792-2.355,8.921,8.921,0,0,0-1.954-7.795,7.7,7.7,0,0,0-7.15-2.352,12.6,12.6,0,0,0-3.642,1.24,10.276,10.276,0,0,0-2.823,2.231,9.081,9.081,0,0,0-1.785,2.861,11.993,11.993,0,0,0-.846,3.009,8.84,8.84,0,0,1,.135-3.273,9.84,9.84,0,0,1,.578-1.874,9.988,9.988,0,0,1,1.024-1.761,10.235,10.235,0,0,1,2.789-2.661,10.717,10.717,0,0,1,2.545-1.158,10.2,10.2,0,0,1,7.762.662,9.538,9.538,0,0,1,4.49,5.586,10.9,10.9,0,0,1-.095,6.656,12.289,12.289,0,0,1-1.374,2.881,6.843,6.843,0,0,1-.548.768c-.211.265-.413.562-.63.8-.442.468-.85.938-1.334,1.4l-.7.7c-.045.062-.009-.039-.014-.059l.013-.113.025-.226.052-.452q.1-.909.2-1.805l.134-1.032.1-.906c.057-.461.075-.919.1-1.373a19.55,19.55,0,0,0-.282-5.185,6.993,6.993,0,0,0-.827-2.185,3,3,0,0,0-1.567-1.3,5.4,5.4,0,0,0-4.029.71,15.534,15.534,0,0,0-3.892,2.989A7.132,7.132,0,0,0,201.987,459.067Z"></path><path class="cls-6" d="M203.051,445.309s-16.278,9.52-3.471,23.264c0,0-10.792-3.4-7.6-14.394C194.3,446.213,203.051,445.309,203.051,445.309Z"></path><path class="cls-6" d="M203.053,445.324a27.545,27.545,0,0,0-4.883,1.9,12.887,12.887,0,0,0-3.167,2.45,10.761,10.761,0,0,0-1.082,1.433l-.408.664-.275.618a12.441,12.441,0,0,0-.7,2.086c-.066.37-.133.743-.2,1.116a5.575,5.575,0,0,0-.145,1.126,10.232,10.232,0,0,0,.55,4.453,11.187,11.187,0,0,0,6.239,6.128c.3.128.637.263.895.345l-1.009,1.6a19.69,19.69,0,0,1-4.415-6.895,11.944,11.944,0,0,1-.089-7.881,15.351,15.351,0,0,1,3.806-5.9,20.033,20.033,0,0,1,4.741-3.5,39.379,39.379,0,0,0-4.01,4.7,24.59,24.59,0,0,0-1.572,2.536c-.4.786-.717,1.451-.921,1.916a10.085,10.085,0,0,0-.47,7.7,18.02,18.02,0,0,0,3.934,6.389l1.082,1.2-1.49-.549a14.558,14.558,0,0,1-6.1-4.2,10.622,10.622,0,0,1-2.425-6.36,9.309,9.309,0,0,1,.047-1.63,7.667,7.667,0,0,1,.235-1.569,12.538,12.538,0,0,1,.912-2.939,11.37,11.37,0,0,1,3.618-4.437,12.664,12.664,0,0,1,4.107-1.972A13.209,13.209,0,0,1,203.053,445.324Z"></path><path class="cls-6" d="M215.136,449.715a15.411,15.411,0,0,1-1.627-.747,9.317,9.317,0,0,0-3.487-.883,8.182,8.182,0,0,0-4,.827,9.85,9.85,0,0,0-2.744,1.95,14.686,14.686,0,0,0-4.142,8.306,5.975,5.975,0,0,0,.877,4.242,3.614,3.614,0,0,0,1.617,1.21,5.85,5.85,0,0,0,2.064.509c2.462.148,4.874-1.315,6.573-3.191a10.579,10.579,0,0,0,2.018-3.109,4.277,4.277,0,0,0,.345-1.554c-.031-.47-.132-.644-.4-.781a2.718,2.718,0,0,0-1.372-.055l-.816.195-.815.274a5.7,5.7,0,0,0-1.379.735,1.5,1.5,0,0,0-.682.9c-.027.2.161.447.574.6a3.518,3.518,0,0,0,1.363.157,10.619,10.619,0,0,0,2.755-.631,7.858,7.858,0,0,1-2.68,1.385,4.1,4.1,0,0,1-1.891.085c-.173-.052-.351-.126-.528-.2a2.971,2.971,0,0,1-.5-.385,1.723,1.723,0,0,1-.405-1.311,3.135,3.135,0,0,1,1.123-1.919c.245-.219.5-.383.751-.566l.75-.41a7.308,7.308,0,0,1,2.536-.758,3.525,3.525,0,0,1,2.235.453,2.386,2.386,0,0,1,.854,1,2.953,2.953,0,0,1,.231,1.129,7.012,7.012,0,0,1-1.146,3.481,13.486,13.486,0,0,1-4.634,4.585,8.373,8.373,0,0,1-5.984,1.1,7.378,7.378,0,0,1-2.707-1.23,5.006,5.006,0,0,1-1.661-2.395,9.533,9.533,0,0,1,.005-5.379,15.655,15.655,0,0,1,2.069-4.56,11.882,11.882,0,0,1,7.233-5.292,8.229,8.229,0,0,1,2.327-.14,9.035,9.035,0,0,1,2.426.609,11.435,11.435,0,0,1,1.876,1Z"></path><path class="cls-1" d="M213.988,449.143a5.248,5.248,0,0,1,1.877,2.405,11.9,11.9,0,0,1,1.016,4.258,10.756,10.756,0,0,1-1.064,5.563,12.6,12.6,0,0,1-3.767,4.467,15.15,15.15,0,0,1-8.88,2.953,11.125,11.125,0,0,1-4.15-.661,6.2,6.2,0,0,1-2.888-2.137,9.752,9.752,0,0,0,3.37.87c1.168.1,2.251.022,2.83.1a13.107,13.107,0,0,0,6.653-.953,11.742,11.742,0,0,0,4.74-3.649,10.475,10.475,0,0,0,1.972-4.8,12.478,12.478,0,0,0-.164-4.507,16.152,16.152,0,0,0-.711-2.306A13.528,13.528,0,0,0,213.988,449.143Z"></path><path class="cls-1" d="M204.224,446.535c-.1.142-.765.1-1.517.23a7.022,7.022,0,0,0-2.017.615,17.4,17.4,0,0,0-4.386,2.89,13.784,13.784,0,0,0-2.306,3.5,10.215,10.215,0,0,0-1.263,3.281,2.42,2.42,0,0,1-.878-1.891,3.2,3.2,0,0,1,.258-1.67,27.026,27.026,0,0,1,2.247-3.155,12.253,12.253,0,0,1,2.518-2.221,15.45,15.45,0,0,1,2.567-1.384,8.265,8.265,0,0,1,2.47-.683,3.881,3.881,0,0,1,1.38.125A4,4,0,0,1,204.224,446.535Z"></path><path class="cls-1" d="M188.954,352.282a144.808,144.808,0,0,1,1.6,28.506,9.886,9.886,0,0,0,.188,3.121,6.733,6.733,0,0,0,2,3c2.912,2.707,7.843,3.558,10.844.95,2.4-2.083,2.9-5.564,3.105-8.733a114.054,114.054,0,0,0-.449-20.046c-.353-3.193-1.047-6.724-3.656-8.6-2.154-1.549-5.045-1.524-7.678-1.188a9.52,9.52,0,0,0-4.038,1.218,3.8,3.8,0,0,0-1.859,3.569"></path><path d="M188.961,354.088a1.3,1.3,0,0,1-.292-1,3.681,3.681,0,0,1,.756-2.091,5.6,5.6,0,0,1,2.479-1.85,14.654,14.654,0,0,1,3.367-.827,17.212,17.212,0,0,1,3.713-.187,9.189,9.189,0,0,1,3.778,1.063,8.173,8.173,0,0,1,2.709,2.518,13.408,13.408,0,0,1,1.357,2.573,21.528,21.528,0,0,1,1.151,4.046c.254,1.347.475,2.674.662,4.045.378,2.73.629,5.535.751,8.36s.119,5.669.009,8.481a27.055,27.055,0,0,1-.5,4.514,12.442,12.442,0,0,1-1.988,4.752,9.212,9.212,0,0,1-3.872,3.132,10.163,10.163,0,0,1-4.721.771,12.378,12.378,0,0,1-7.975-3.655,9.249,9.249,0,0,1-2.458-4.17,12.988,12.988,0,0,1-.179-4.144c.146-2.132.254-4.229.336-6.28.336-8.207.181-15.676.069-21.73a36.264,36.264,0,0,1,4.2,10.033,30.611,30.611,0,0,1,1.276,9.256q-.3,2.864-.583,5.63-.161,1.38-.319,2.736c-.1.919-.239,1.795-.257,2.46a3.457,3.457,0,0,0,.326,1.742,5.874,5.874,0,0,0,1.221,1.64,7.94,7.94,0,0,0,3.707,2.042,6.284,6.284,0,0,0,4-.289,5.48,5.48,0,0,0,2.668-2.763c1.158-2.5,1.149-5.544,1.267-8.414a108.986,108.986,0,0,0-.842-16.124,20.047,20.047,0,0,0-1.544-6.551,5.473,5.473,0,0,0-4.13-3.068,19.456,19.456,0,0,0-3.241-.271,16.738,16.738,0,0,0-3.645.252,4.357,4.357,0,0,0-2.567,1.536A3.141,3.141,0,0,0,188.961,354.088Z"></path><g class="cls-2"><path d="M195.54,383.756c-.571-.327-.468-1.483-.372-2.79.057-.652.129-1.339.134-1.976a5.559,5.559,0,0,0-.12-1.635c-.771-2.977-.9-6.05-1.409-8.82a43.789,43.789,0,0,1-.54-13.442,9.5,9.5,0,0,1,4.836,1.382c1.282.783,2,1.777,1.9,2.42a44.448,44.448,0,0,0-.784,6.855c-.048,2.025.023,3.875.142,5.634.2,3.491.446,6.727-.707,9.26a5.838,5.838,0,0,1-1.517,1.94A11.435,11.435,0,0,1,195.54,383.756Z"></path></g><path class="cls-1" d="M152.259,404.308c5.3,19.84-9.684,29.6-5.9,49.753,24.355,20.859,45.087,13.456,60.128-9.235,9.289-10.826,39.536,20.758,43.8,4.415,6.769-25.979-1.481-79.474-41.373-78.425,8.048,17.5-16.2,12.507-21.789,2.074a1.811,1.811,0,0,0-2.253-1.054c-19.025,1.767-25.96,7.189-32.608,32.472"></path><path d="M152.214,404.3a34.941,34.941,0,0,1,1.236-5.92c.224-.8.469-1.677.73-2.612.286-.929.627-1.91.972-2.95a53.615,53.615,0,0,1,2.8-6.663,28.876,28.876,0,0,1,4.72-6.865,23.219,23.219,0,0,1,7.389-5.233,38.568,38.568,0,0,1,8.874-2.551l2.256-.37,2.245-.276,1.189-.143a3.643,3.643,0,0,1,1.476-.044,2.805,2.805,0,0,1,1.3.666,4.466,4.466,0,0,1,.872,1.187,1.95,1.95,0,0,0,.151.244l.1.159c.067.1.124.214.2.315l.451.6a14.52,14.52,0,0,0,.991,1.127,17.929,17.929,0,0,0,2.27,1.936,22.091,22.091,0,0,0,5.017,2.69c3.365,1.313,6.771,1.636,8.915.907a3.277,3.277,0,0,0,2.452-3.17,7.781,7.781,0,0,0-.089-1.286,9.741,9.741,0,0,0-.391-1.711c-.238-.847-.684-1.743-1.027-2.639q-.57-1.323-1.154-2.68c.156-.14.672-.067,1.037-.085l1.193,0,2.418.006c.811.01,1.64-.02,2.438.057l1.787.155a24.367,24.367,0,0,1,3.226.458l1.616.3,1.591.443a35.849,35.849,0,0,1,11.946,5.915,43.154,43.154,0,0,1,9.308,9.747,59.6,59.6,0,0,1,6.37,11.841,87.809,87.809,0,0,1,5.881,25.887,84.214,84.214,0,0,1-1.749,26.069c-.142.558-.394,1.254-.605,1.868a13.257,13.257,0,0,1-1.055,1.93,8.194,8.194,0,0,1-3.831,2.91,10.44,10.44,0,0,1-4.235.5l-.962-.082-.894-.159a16.091,16.091,0,0,1-1.722-.392,72.252,72.252,0,0,1-11.745-4.874,106.1,106.1,0,0,0-10.679-4.752,19.389,19.389,0,0,0-4.975-1.13,6.905,6.905,0,0,0-1.991.149c-.259.1-.513.178-.744.291-.187.173-.453.213-.612.441a2.57,2.57,0,0,1-.258.235c-.045.026-.038.038-.014,0l-.2.29-.873,1.265c-.585.84-1.211,1.656-1.816,2.48-1.268,1.614-2.557,3.208-3.966,4.7a49.343,49.343,0,0,1-9.361,8.019,34.975,34.975,0,0,1-11.365,4.869,29.483,29.483,0,0,1-6.115.746,31.115,31.115,0,0,1-6.043-.435A39.036,39.036,0,0,1,158.106,465a57.287,57.287,0,0,1-9.343-5.95c-.7-.566-1.431-1.1-2.1-1.686l-1.117-.952-.858-.723-.429-.362c-.1-.045-.066-.162-.089-.25l-.035-.279q-.2-1.658-.4-3.3a20.253,20.253,0,0,1-.133-2.7,38.955,38.955,0,0,1,.266-5.31,47.917,47.917,0,0,1,1.022-5.062,83.444,83.444,0,0,1,3.1-9.241c1.095-2.912,2.179-5.708,2.928-8.487a32.95,32.95,0,0,0,.488-16.164c.39,1.1.813,2.271,1.219,3.526l.429,1.966a13.6,13.6,0,0,1,.351,2.08l.207,2.191c.045.745,0,1.5,0,2.275q-.011.581-.021,1.168-.059.584-.119,1.172c-.1.783-.132,1.6-.29,2.388-1,6.421-3.568,12.9-4.465,19.112-.165.775-.173,1.552-.269,2.318l-.116,1.144c-.017.381-.01.761-.018,1.138,0,.754-.048,1.5-.008,2.238q.089,1.1.176,2.188a15.458,15.458,0,0,0,.307,2.124l.093.522c.027.153.07.414.071.38.023.067.033.1.059.118l.1.037.834.644c.544.437,1.111.815,1.652,1.21a63.849,63.849,0,0,0,11.076,6.443,29.526,29.526,0,0,0,13.58,2.81,27.865,27.865,0,0,0,13.038-4.108,45.35,45.35,0,0,0,10.592-9.031,64.008,64.008,0,0,0,4.339-5.466l.5-.71.276-.391a2.251,2.251,0,0,1,.427-.491l.822-.766a7.248,7.248,0,0,1,.926-.619,8.594,8.594,0,0,1,2.015-.87,11.125,11.125,0,0,1,2.067-.3,20.033,20.033,0,0,1,7.419,1.353,66.507,66.507,0,0,1,6.491,2.767c4.167,1.986,8.134,4.149,12.16,5.828a23.835,23.835,0,0,0,6.028,1.789,7.355,7.355,0,0,0,2.769-.135,4.021,4.021,0,0,0,1.983-1.42,3.959,3.959,0,0,0,.335-.569,3.061,3.061,0,0,0,.3-.606c.139-.469.33-.85.442-1.386.236-1.03.512-2.047.686-3.088.208-1.032.39-2.068.526-3.109.168-1.036.276-2.079.383-3.118a90.334,90.334,0,0,0-.987-24.394,71.6,71.6,0,0,0-7.327-21.853c-3.546-6.547-8.373-12.229-14.36-15.771a33.668,33.668,0,0,0-9.442-3.853l-2.477-.475c-.822-.162-1.666-.184-2.493-.284l-.762-.074-.6,0-.591,0h-.293c-.091,0-.244-.034-.146.1a10.074,10.074,0,0,1,.4,1,3.814,3.814,0,0,1,.152.506l.092.373a4.189,4.189,0,0,1,.118.651,8.136,8.136,0,0,1-.9,5.62,7.236,7.236,0,0,1-4.887,3.047,14.868,14.868,0,0,1-5.043-.032,24.569,24.569,0,0,1-8.752-3.328,23.027,23.027,0,0,1-3.695-2.8,19.719,19.719,0,0,1-1.593-1.722c-.256-.3-.473-.635-.708-.951a4.473,4.473,0,0,1-.328-.5l-.233-.4a1.082,1.082,0,0,0-.647-.663.925.925,0,0,0-.473,0l-.776.077c-1.323.129-2.64.248-3.923.452a35.447,35.447,0,0,0-11.583,3.4,24.458,24.458,0,0,0-9.083,9.347,65.744,65.744,0,0,0-4.9,10.772c-.588,1.566-1.08,2.958-1.448,4.115Z"></path><path d="M160.257,385.574c14.148,14.655,27.094,9.478,39.8,8.085,2.472-.271,3.519,2.815,1.3,3.843-15.29,7.091-54.459,4.276-41.937-11.8"></path><path d="M159.47,385.739a1.8,1.8,0,0,1-.195,1.005c-.089.237-.214.5-.345.8-.1.309-.224.645-.361,1-.5,1.422-.865,3.386.184,4.927a6.525,6.525,0,0,0,2.114,2.039,14.256,14.256,0,0,0,2.841,1.392,21.5,21.5,0,0,0,5.314,1.163,84.8,84.8,0,0,0,15.6-.323,68.249,68.249,0,0,0,7.808-1.3,34.586,34.586,0,0,0,6.964-2.317l.168-.078.085-.038.042-.019.021-.01c-.419-.913.583,1.236.481,1.022l0,.013a1.5,1.5,0,0,0,.234.41,1.012,1.012,0,0,0,.193.228c.019.032.125.093.108.086.09.019-.188-.023-.251.032s.007-.047-.073.111a1.666,1.666,0,0,0-.042.176.675.675,0,0,0-.008.115c0,.043-.011.126-.009.183a1.107,1.107,0,0,0,.017.177l0,.021.119,1.089-.013,0-.051.007-.1.014-.409.056c-2.16.263-4.412.639-6.676.949a48.983,48.983,0,0,1-14.061.379,27.291,27.291,0,0,1-12.272-4.882,33.182,33.182,0,0,1-7.473-7.794c3.187.827,7.01,2.383,10.455,3.228,3.435.909,6.377,1.214,7.934,1.737a27.57,27.57,0,0,0,9.993,1.49c3.454-.045,6.9-.446,10.3-.731l1.272-.1.317-.027.157-.014.248-.007a4.024,4.024,0,0,1,2.924,1.077,3.79,3.79,0,0,1,1.052,1.866,3.556,3.556,0,0,1-.19,2.189,3.608,3.608,0,0,1-1.4,1.591l-.425.234c-.129.064-.2.087-.309.132l-.584.24c-.388.158-.773.328-1.163.454a54.2,54.2,0,0,1-9.14,2.319,72.773,72.773,0,0,1-16.929.937,41.608,41.608,0,0,1-7.711-1.229,20.562,20.562,0,0,1-6.956-3.143,9.583,9.583,0,0,1-2.893-3.322,6.624,6.624,0,0,1-.365-4.847A10.329,10.329,0,0,1,159.47,385.739Z"></path><path d="M151.717,404.328c15.071,16.41,32.565,6.266,47.6,3.432,2.372-.447,3.748,2.382,1.771,3.657-12.633,8.148-31.623,13.1-44.871,5.623-3.8-1.789-5.743-13.868-3.328-9.7"></path><path d="M152.836,407.373a1.131,1.131,0,0,1-.459-.239,2.088,2.088,0,0,0-.3-.185c-.023-.011-.054-.034-.058-.016l-.009.009a1.578,1.578,0,0,0,.068-.175.121.121,0,0,0,.033-.073c.007-.02-.019-.1,0-.043s.03.028.17.151c.166.1.156.036.154.082l.007.073c.013.082.011.146.03.246.026.183.064.4.117.625.1.456.242.973.413,1.527a23.1,23.1,0,0,0,1.447,3.61,11.316,11.316,0,0,0,1.088,1.751,3.433,3.433,0,0,0,1.261,1.1l.09.046a25.06,25.06,0,0,0,10.471,2.628,52.79,52.79,0,0,0,8.462-.8,63.194,63.194,0,0,0,8.54-2.252,64.694,64.694,0,0,0,8.2-3.473l1.951-1.023,1.885-1.1c.629-.357,1.213-.774,1.817-1.153l.448-.289.223-.145.112-.072.007,0,.65,1.006.009.016.017.031.039.062a1.3,1.3,0,0,0,.2.239.717.717,0,0,0,.137.139l.112.083c.029.02.083.04.069.036.079.025-.056-.015-.131.01a.52.52,0,0,0-.212.085.09.09,0,0,0-.03.035.59.59,0,0,0-.053.261,2.134,2.134,0,0,0,.021.32l.019.084c.4,2.145.1.6.189,1.076l-.014,0-.028.006-.056.012-.224.049-.9.193-1.806.432c-2.419.6-4.874,1.295-7.371,1.955a66,66,0,0,1-15.387,2.6,31.551,31.551,0,0,1-7.672-.763,25.213,25.213,0,0,1-6.794-2.635,26.818,26.818,0,0,1-8.917-8.418c1.714.578,3.57,1.4,5.56,2.053a39.953,39.953,0,0,0,5.913,1.557c3.822.684,7.167.512,9.035.813a36.786,36.786,0,0,0,11.606-.2c3.887-.59,7.681-1.507,11.43-2.3l2.81-.563,1.4-.249.349-.061c.147-.022.357-.042.533-.056a3.842,3.842,0,0,1,1.133.093,3.748,3.748,0,0,1,2.941,3.319,3.4,3.4,0,0,1-.7,2.336,3.822,3.822,0,0,1-.826.775,2.9,2.9,0,0,1-.339.221l-.292.176a69.024,69.024,0,0,1-9.328,4.9,57.2,57.2,0,0,1-18.569,4.875c-.755.093-1.518.055-2.268.084a20.138,20.138,0,0,1-2.24-.032l-2.208-.153-2.161-.343a14.856,14.856,0,0,1-2.1-.472c-.687-.2-1.379-.352-2.04-.6a24.7,24.7,0,0,1-3.79-1.7l-1.478-.813.13.067a5.538,5.538,0,0,1-1.961-1.841,9.908,9.908,0,0,1-1.047-2.085,17.69,17.69,0,0,1-.934-4.162,13.066,13.066,0,0,1,.04-3.565,1.59,1.59,0,0,1,.317-.765.384.384,0,0,1,.51-.036.775.775,0,0,1,.21.244A3.681,3.681,0,0,1,152.836,407.373Z"></path><path d="M151.55,423.25c9.979,10.359,32.285,5.145,47.539.154,2.274-.744,4.077,1.876,2.323,3.39-12.667,10.931-37.584,16.61-51.608,8.257-1.576-1.227-2.266-6.607.239-5.6"></path><path d="M150.02,429.5c-.148.121-.6.112-.753.36a2.637,2.637,0,0,0-.07,1.635,7.482,7.482,0,0,0,.35,1.263,4.337,4.337,0,0,0,.623,1.107c.262.374.7.476,1.181.694l1.673.753a31.235,31.235,0,0,0,7.428,1.692l1.78.17,1.675,0,1.5-.016c.472-.036.91-.092,1.307-.14a68.27,68.27,0,0,0,17.051-4.293l1.046-.41.524-.2.127-.049.038-.022.076-.044.562-.325a.721.721,0,0,0,.275-.21.672.672,0,0,0,.1-.135c.085-.16,0-.244-.211-.228a.909.909,0,0,0-.475.116c-.073.041-.053.036-.035.015s.03-.052-.018-.085l-.021-.013-.668.122-1.5.266c-1,.17-1.994.313-2.984.447a58.591,58.591,0,0,1-11.687.421,32.079,32.079,0,0,1-10.635-2.455,18.17,18.17,0,0,1-7.561-5.9,28.857,28.857,0,0,0,5.764,1.454,35.573,35.573,0,0,0,6.1.256c3.97-.145,7.636-.724,9.642-.539a53.244,53.244,0,0,0,9.594-.075c.788-.067,1.57-.158,2.347-.252.141-.009.506-.075.819-.132l.942-.169c.622-.113,1.229-.215,1.836-.348,2.395-.468,4.71-1.048,6.95-1.634a22.126,22.126,0,0,1,4.239-.226c.5-.012,1.016-.025,1.476-.074a2.635,2.635,0,0,1,1.535.107,3.036,3.036,0,0,1,1.477,1.63,2.315,2.315,0,0,1-.113,2.091c-.351.483-.771.917-1.147,1.372l-.575.671a10.077,10.077,0,0,1-.766.687q-.793.69-1.578,1.369a6.727,6.727,0,0,1-.944.676l-1.018.671c-.7.441-1.3.905-2.061,1.324l-2.289,1.259a50.4,50.4,0,0,1-4.711,2.251c-.377.163-.841.391-1.147.5l-.932.347-1.847.689a57.571,57.571,0,0,1-14.535,3.178,36.034,36.034,0,0,1-13.456-1.283,19.723,19.723,0,0,1-4.057-1.676,20.07,20.07,0,0,1-2.032-1.307l-.562-.38a6.732,6.732,0,0,1-.583-.417,3.566,3.566,0,0,1-.8-1.166,5.844,5.844,0,0,1-.4-1.287,6.719,6.719,0,0,1-.121-1.15,5.761,5.761,0,0,1,.26-2c.183-.577.585-1.128,1.072-1.2A1.307,1.307,0,0,1,150.02,429.5Z"></path><path d="M148.033,440.33c17.248,18.587,36.318,6.421,50.816-2.07,2.063-1.209,4.462,1.034,3.069,2.871-19.169,25.283-72.313,6.722-52.043-.131"></path><path d="M149.9,441.058c-.066.2-.435.46-.939.8a10.413,10.413,0,0,0-1.666,1.313,2.731,2.731,0,0,0-.676,1.074,1.814,1.814,0,0,0,.152,1.389,3.9,3.9,0,0,0,.973,1.157,10.561,10.561,0,0,0,1.37.931,29.806,29.806,0,0,0,7.991,2.9,37.479,37.479,0,0,0,7.02.934,60.427,60.427,0,0,0,19.394-2.387c6.26-1.929,11.794-5.485,15.208-10.253l.073-.1.018-.024c.516.385-1.142-.879,1.16.86l.011.011.049.042a1.1,1.1,0,0,0,.239.146,1.584,1.584,0,0,0,.161.078c.027.009.057.017.088.024l.024.008c.131.014-.011-.009-.167.069a.862.862,0,0,0-.306.242c-.034.054,0,.015,0-.024.011,0-.013-.058.032.105l.048.122.036.072.671,1.149-.472.284-1.894,1.133c-2.534,1.51-5.128,3-7.786,4.358a51.821,51.821,0,0,1-16.91,5.689,29.126,29.126,0,0,1-8.729-.165,25.568,25.568,0,0,1-7.74-2.671,29.954,29.954,0,0,1-10.132-9.22c1.85.706,3.876,1.695,6.073,2.49a39.7,39.7,0,0,0,6.584,1.9c4.294.832,8.017.467,10.1.6a32.073,32.073,0,0,0,12.665-1.971,80.753,80.753,0,0,0,11.729-5.308l2.769-1.5a11.069,11.069,0,0,1,1.714-.843,3.965,3.965,0,0,1,4.562,1.683,3.378,3.378,0,0,1,.384,2.73,5.613,5.613,0,0,1-.258.637c-.109.186-.225.368-.346.545l-.5.62c-.327.416-.671.815-1.028,1.2a33.409,33.409,0,0,1-9.619,7.327,43.364,43.364,0,0,1-10.63,3.741,52.941,52.941,0,0,1-10.435,1.178,46.974,46.974,0,0,1-18.652-3.258,19.967,19.967,0,0,1-4.333-2.4c-.36-.26-.754-.583-1.137-.914a12.013,12.013,0,0,1-1.2-1.226,5.278,5.278,0,0,1-1.276-2.774,3.119,3.119,0,0,1,.892-2.538,5.919,5.919,0,0,1,1.969-1.286A11.162,11.162,0,0,1,149.9,441.058Z"></path><path class="cls-1" d="M138.322,432.091c-15.59-13.672-13.513,32.434-1.829,33.121,7.462-4.9,5.77-18.847,8.96-26.9,2.621-7.733-8.079-8.061-13.181-8.48"></path><path d="M132.276,429.786a6.291,6.291,0,0,1,2.744-.329,26.4,26.4,0,0,1,5.71.585,12.152,12.152,0,0,1,3.305,1.225,5.919,5.919,0,0,1,2.632,2.828c1.037,2.557-.094,4.946-.25,5.989-.864,4.39-.826,9.431-1.695,14.726a25.926,25.926,0,0,1-2.529,8.1c-.407.655-.8,1.321-1.276,1.944l-.786.9c-.126.138-.283.329-.462.5l-.714.526-1.436,1.045-.36.262c-.117.1-.283,0-.422.009-.29-.035-.585-.055-.871-.1a7.811,7.811,0,0,1-3.283-1.154,11.256,11.256,0,0,1-3.1-2.963,19.006,19.006,0,0,1-1.895-3.245,32.1,32.1,0,0,1-2.154-6.56,43.7,43.7,0,0,1-.862-12.775,29.723,29.723,0,0,1,1.1-6.03,13.27,13.27,0,0,1,3-5.515,6.061,6.061,0,0,1,3.084-1.7,5.6,5.6,0,0,1,3.209.369,8.434,8.434,0,0,1,2.256,1.394,14.544,14.544,0,0,1,1.654,1.633,15.953,15.953,0,0,0-4.584-.855,2.806,2.806,0,0,0-1.811.621,3.461,3.461,0,0,0-.889,1.375,16.471,16.471,0,0,0-.841,3.793c-.16,1.262-.278,2.375-.467,3.141a33.48,33.48,0,0,0-.818,9.5,31.278,31.278,0,0,0,1.673,8.914,15.526,15.526,0,0,0,1.89,3.734,5.592,5.592,0,0,0,2.576,2.157,1.837,1.837,0,0,0,.645.095l.516-.407a10.639,10.639,0,0,0,1.161-1.212A13.537,13.537,0,0,0,139.712,459a34.032,34.032,0,0,0,1.661-7.342c.335-2.462.565-4.891.917-7.272.171-1.19.384-2.372.654-3.538.157-.582.276-1.17.467-1.731l.285-.838c.094-.273.206-.584.246-.75a4.251,4.251,0,0,0,.171-2.233,3.062,3.062,0,0,0-1.152-1.659,18.845,18.845,0,0,0-5.8-2.531C134.934,430.458,132.918,429.993,132.276,429.786Z"></path><path class="cls-1" d="M153.658,399.65c20.048-22.6-20.763-35.655-16.88,4.485-1.438,8.043-6.611,16.084-4.114,24.393,2.552,8.724,12.391,8.51,15.623.485,6.663-8.684-.322-22.764,5.92-30.5"></path><path d="M154.242,398.543c.056.4-.771,1.607-1.332,3.626a26.66,26.66,0,0,0-.639,7.88c.091,3.059.37,6.379.258,9.5a21.286,21.286,0,0,1-1.635,8.044,7.462,7.462,0,0,1-.65,1.3l-.367.64c-.048.087-.156.258-.155.277a.074.074,0,0,0,.023,0q-.291.694-.585,1.394c-.237.454-.517.9-.785,1.345a10.665,10.665,0,0,1-5.077,4.093,9.392,9.392,0,0,1-7-.211,10.546,10.546,0,0,1-5.068-4.879,17.379,17.379,0,0,1-1.778-6.32,23.1,23.1,0,0,1,.337-6.263,108.514,108.514,0,0,1,2.993-10.842c.2-.723.41-1.44.577-2.145l.249-1.054.187-.972-.122-1.659c-.051-.818-.142-1.626-.121-2.454a38.238,38.238,0,0,1,.974-9.881A21.894,21.894,0,0,1,139,380.768a15.258,15.258,0,0,1,4.082-3.4,14.153,14.153,0,0,1,5.075-1.64,13.452,13.452,0,0,1,5.2.553,12.44,12.44,0,0,1,4.363,2.6,11.8,11.8,0,0,1,2.717,4.076,11.676,11.676,0,0,1,.688,4.523,15.538,15.538,0,0,1-2.485,7.528,26.332,26.332,0,0,1-4.339,5.208c.352-.94.807-1.9,1.22-2.954a33.165,33.165,0,0,0,1.11-3.322,14.373,14.373,0,0,0,.434-6.747,7.217,7.217,0,0,0-2.707-4.325,9.206,9.206,0,0,0-3.218-1.532,7.461,7.461,0,0,0-5.456.428,11.056,11.056,0,0,0-4.465,4.1,21.905,21.905,0,0,0-2.477,5.976,34.736,34.736,0,0,0-.851,6.481c-.023,1.086-.092,2.164-.01,3.24q.037.805.075,1.606l.05.982a3.759,3.759,0,0,1-.1.549l-.093.426a63.963,63.963,0,0,1-1.818,6.271c-1.324,3.986-2.613,7.8-2.748,11.515-.146,3.631.886,7.4,3.268,9.318a5.633,5.633,0,0,0,4.042,1.293,6.485,6.485,0,0,0,3.813-1.648l.4-.346.346-.408a4.555,4.555,0,0,0,.646-.848,6.3,6.3,0,0,0,.547-.92l.227-.49.115-.243.074-.157c.045-.1.09-.194.143-.286l.7-1.1a4.647,4.647,0,0,0,.526-.936,11.594,11.594,0,0,0,.784-2.006,32.028,32.028,0,0,0,1.046-8.706,51.576,51.576,0,0,1,.875-10.265,18.218,18.218,0,0,1,.763-2.438q.231-.555.445-1.068c.16-.333.364-.63.528-.916s.331-.545.479-.791c.188-.217.361-.418.517-.6Z"></path><path class="cls-1" d="M140.158,465.144c-25.076-6.834-9.544,18.663,6.736,8.305,9.015-11.26-9.47-7.475-15.107-10.786"></path><path d="M131.81,462.624c.242-.145.872.035,1.839.17.959.153,2.25.29,3.666.381,2.829.175,6.117.306,8.093.5a10.08,10.08,0,0,1,2.791.58,5.063,5.063,0,0,1,2.906,2.59,5.8,5.8,0,0,1,.014,4.067,13.285,13.285,0,0,1-1.38,2.844c-.129.217-.268.4-.4.609l-.647.913c-.1.187-.322.231-.475.352l-.488.3-.657.41a10.494,10.494,0,0,1-1.321.718,11.529,11.529,0,0,1-1.385.616,16.27,16.27,0,0,1-11.131.343,15.762,15.762,0,0,1-4.574-2.482,12.677,12.677,0,0,1-3.451-4.068,8.609,8.609,0,0,1-.914-2.87,6.156,6.156,0,0,1,.6-3.487,5.57,5.57,0,0,1,2.407-2.377,5.707,5.707,0,0,1,1.309-.531,6.849,6.849,0,0,1,1.233-.27c.39-.042.78-.087,1.155-.11l1.071.029a15.741,15.741,0,0,1,1.986.237,24.6,24.6,0,0,1,6.324,2.228c-1.994.77-4.629,1.225-6.761,1.814-.523.161-1.042.264-1.462.441l-.626.2c-.174.087-.339.162-.5.224l-.233.085-.164.1a1.586,1.586,0,0,1-.312.138.483.483,0,0,1-.318.116c-.037,0-.186-.033-.195-.03l-.1-.019c-.03,0-.038.014-.073.019-.141.016-.222.163-.3.429a3.564,3.564,0,0,0,.593,2.187,9.467,9.467,0,0,0,4.139,3.664,11.2,11.2,0,0,0,5.334,1.091,12.152,12.152,0,0,0,4.993-1.365,8.451,8.451,0,0,0,1.1-.619c.378-.243.535-.286.669-.546a12.919,12.919,0,0,0,1.185-1.984,3.681,3.681,0,0,0,.453-1.661,1.277,1.277,0,0,0-.583-.982A5.867,5.867,0,0,0,145.69,467c-.632-.185-1.332-.309-2.015-.436-1.39-.236-2.8-.424-4.169-.672a20.663,20.663,0,0,1-4.663-1.361,12.719,12.719,0,0,1-2-1.05A6.66,6.66,0,0,1,131.81,462.624Z"></path><path class="cls-1" d="M135.358,475.551c-13.169-5.4-5.265,9.688,2.631,10.635,5.078.878,9.979-4.129,10.72-8.748-4.078-3.292-11.694-.792-16.881-1.707"></path><path d="M131.836,475.687c.319-.416,2.337-.366,4.77-.709,2.419-.3,5.261-.622,6.971-.736a11.856,11.856,0,0,1,1.511-.054,7.85,7.85,0,0,1,1.8.224,14.018,14.018,0,0,1,4.292,2.057c-.116.781-.246,1.588-.408,2.392a6.863,6.863,0,0,1-.341,1.232,9.638,9.638,0,0,1-.455,1.237,13.575,13.575,0,0,1-1.908,3.157,13.245,13.245,0,0,1-2.66,2.547,11.341,11.341,0,0,1-3.4,1.734,7.152,7.152,0,0,1-1.245.31,6.975,6.975,0,0,1-1.3.148,6.569,6.569,0,0,1-1.283-.026,10.37,10.37,0,0,1-1.225-.158,11.682,11.682,0,0,1-4.391-1.826,16.225,16.225,0,0,1-5.5-6.239c-.15-.338-.281-.585-.433-.992l-.209-.57c-.067-.2-.132-.474-.2-.7a6.173,6.173,0,0,1-.181-2.761,4.114,4.114,0,0,1,1.085-2.212,4.259,4.259,0,0,1,2.091-1.055,6.474,6.474,0,0,1,2.293.076c.359.09.743.172,1.042.266l.722.308a14.8,14.8,0,0,1,2.408,1.426c-.933.3-1.979.513-2.989.774l-.737.2a2.945,2.945,0,0,0-.426.277,1.124,1.124,0,0,0-.405.608.765.765,0,0,0,.349.829c.163.085.169,0,.082.079a3.925,3.925,0,0,0,.3,1.392,9.654,9.654,0,0,0,.723,1.527,10.909,10.909,0,0,0,2.114,2.625,8.065,8.065,0,0,0,2.679,1.634,6.1,6.1,0,0,0,2.93.283,8.111,8.111,0,0,0,4.828-3,9.656,9.656,0,0,0,1.425-2.3,4.74,4.74,0,0,0,.353-1.474,3.447,3.447,0,0,0-1.273-.537,3.291,3.291,0,0,0-.356-.066c-.188-.031-.366-.076-.558-.1-.392-.031-.756-.1-1.155-.11-1.557-.1-3.141-.05-4.7-.1a18.294,18.294,0,0,1-4.126-.555A12.288,12.288,0,0,1,131.836,475.687Z"></path><path d="M238.442,383.057c-3.982,5.416-10.544,7.773-16.886,8.478a.138.138,0,0,0-.081.222c4.708,5.744,15.424,3.841,20.757-.664"></path><path d="M242.262,391.129c.087.234-.166.652-.637,1.188a11.152,11.152,0,0,1-2.062,1.622,35.377,35.377,0,0,1-5.016,2.4,13.02,13.02,0,0,1-1.66.627l-.882.249-.226.06-.325.037-.665.071-1.381.133-1.429-.063a12.228,12.228,0,0,1-2.759-.429,6.226,6.226,0,0,1-1.232-.392l-1.167-.461-.993-.575a5.187,5.187,0,0,1-.927-.622l-.832-.679a6.668,6.668,0,0,1-.688-.747l-.326-.38a.763.763,0,0,1-.238-.391c-.077-.271-.154-.539-.23-.806l-.1-.369a2.823,2.823,0,0,1,.011-.322l.017-.221a3.431,3.431,0,0,1,.133-.6,4.387,4.387,0,0,1,.242-.442l.135-.227.068-.113.181-.138.747-.551.188-.136a.5.5,0,0,1,.254-.125l.807-.2,1.341-.178.667-.088c.213-.032.386-.077.58-.114l2.24-.461,1.941-.572a8.776,8.776,0,0,0,.911-.3l.414-.135a32.215,32.215,0,0,0,3.129-1.195,33.32,33.32,0,0,0,5.25-2.943,7.8,7.8,0,0,1-.863,5.288,6.153,6.153,0,0,1-3.054,3.065c-.6.176-1.2.29-1.778.434-.554.108-1.3.294-1.312.177a6.73,6.73,0,0,0-1.583-.032c-.766.05-1.633.143-2.466.217l-1.215.111c-.091,0-.226.025-.2.126a1.594,1.594,0,0,0,.133.179l.3.354a5.517,5.517,0,0,0,3.527,1.372,8.5,8.5,0,0,0,1.593-.059l.779-.118,1.166-.2c1.527-.316,2.931-.729,4.29-1.093.757-.261,1.891-.43,2.915-.669C241.019,391.491,241.922,391.189,242.262,391.129Z"></path><path d="M246.292,398.467c-5.945,6.1-14.6,7.553-22.619,8.294a.135.135,0,0,0-.093.214c5.8,7.769,19.795,4.884,25.763-1.71"></path><path d="M249.382,405.3c.124.258-.144.806-.668,1.544a13.216,13.216,0,0,1-2.425,2.278,34.483,34.483,0,0,1-6.173,3.4,15.563,15.563,0,0,1-2.074.844l-.568.175c-.271.067-.544.145-.827.2-.572.118-1.137.143-1.73.214l-1.812.17-1.706-.111a15.052,15.052,0,0,1-3.236-.557,7.12,7.12,0,0,1-1.426-.48l-1.344-.558-1.154-.7a6.182,6.182,0,0,1-1.082-.756l-.978-.83a8.488,8.488,0,0,1-.846-.918l-.4-.471c-.123-.158-.308-.308-.318-.48l-.277-1-.126-.48a.723.723,0,0,1-.007-.277l.01-.106.025-.268a3.5,3.5,0,0,1,.179-.691l.267-.478.142-.237.346-.3.7-.584c.026-.051.2-.089.332-.131l.412-.123.823-.243a71.689,71.689,0,0,0,10.822-1.581l1.353-.306c.356-.076.706-.155,1.044-.25.693-.165,1.353-.361,2.008-.551a38.241,38.241,0,0,0,6.918-2.88,9.8,9.8,0,0,1-2.274,6.153c-1.436,1.813-3.266,3.027-4.361,3.152-.725.12-1.44.172-2.132.261-.069,0-.214.034-.219.017l-.075-.033c-.052-.02-.108-.039-.167-.056-.114-.036-.259-.057-.384-.087a10.119,10.119,0,0,0-1.99-.155c-1.011,0-2.159.042-3.256.1l-1.6.087a3.282,3.282,0,0,0-.377.033c-.124.089.014.178.046.25.109.156.227.313.351.469a6.48,6.48,0,0,0,4.481,1.909,10.7,10.7,0,0,0,2.083-.081l.855-.154c.147-.036.228-.064.438-.11l.737-.148a51.654,51.654,0,0,0,5.391-1.713c.925-.406,2.314-.769,3.539-1.241C247.93,406.008,248.973,405.44,249.382,405.3Z"></path><path d="M251.276,415.692c-7.419,6.592-18.852,5.415-28.045,6.621a.139.139,0,0,0-.095.2c5.277,10.793,27.6,8.074,31.354-2.97"></path><path d="M254.535,419.558c.162.192.144.98-.288,2.023a11.06,11.06,0,0,1-2.363,3.465,24.044,24.044,0,0,1-7.4,4.719,22.224,22.224,0,0,1-11.239,1.928,20.712,20.712,0,0,1-3.045-.5c-.506-.128-1.011-.283-1.514-.439l-.748-.281-.417-.162c-.177-.072-.37-.19-.555-.283a14.336,14.336,0,0,1-2.156-1.268l-.992-.71-.824-.78a14,14,0,0,1-2.5-3.243c-.146-.46-.334-.936-.439-1.386.036-.408.046-.806.113-1.221a.855.855,0,0,1,.122-.285l.131-.192.262-.384.261-.384c.052-.062.069-.132.15-.188l.381-.141c1.677-.933,4.99-1.022,7.843-1.219l4.464-.192c1.381-.058,2.72-.121,4.01-.211a42.478,42.478,0,0,0,7.11-1.016,24.581,24.581,0,0,0,5.772-2.188,8.943,8.943,0,0,1-1.469,3.284,12.991,12.991,0,0,1-2.914,2.953,12.1,12.1,0,0,1-6.031,2.523c-2.662,0-5.115-.147-7.455-.245l-1.732-.069-.851-.026-.21-.006-.1-.013-.2-.023a18.4,18.4,0,0,0-1.876-.1c-.337,0-.683,0-1.03.018l-.522.026-.261.016c-.1.032-.062.133-.03.187a5.076,5.076,0,0,0,.973,1.5,6.52,6.52,0,0,0,1.45,1.13,8.216,8.216,0,0,0,.8.407l.563.221a6.433,6.433,0,0,0,.619.224,20.255,20.255,0,0,0,9.85.383,28.277,28.277,0,0,0,8.064-2.862,27.719,27.719,0,0,0,3.821-2.434A13.77,13.77,0,0,0,254.535,419.558Z"></path><path d="M253.01,433.552c-7.251,5.2-16.67,4.89-25.169,4.365a.134.134,0,0,0-.113.213c5.538,7.231,26.9,11.418,26-2.055"></path><path d="M253.771,436.072a2.6,2.6,0,0,1,.462,1.738,7.175,7.175,0,0,1-.83,3.7,7.932,7.932,0,0,1-3.219,3.16,15.94,15.94,0,0,1-3.406,1.336,20.052,20.052,0,0,1-10.06-.035,18.675,18.675,0,0,1-3.05-.967,23.715,23.715,0,0,1-3.834-1.889l-.836-.528c-.278-.177-.489-.36-.736-.54l-.712-.543-.6-.545a10.6,10.6,0,0,1-1.052-1.086,2.96,2.96,0,0,1-.226-.269l-.136-.257-.269-.514A5.963,5.963,0,0,1,225.1,438l.031-.384a1.614,1.614,0,0,1,.071-.436.885.885,0,0,1,.059-.158l.043-.09.087-.18.085-.18.043-.091.108-.114.436-.456.11-.113.056-.057c.041-.014.1-.024.157-.037l.658-.14,1.318-.274c.639.008,1.385.07,2.068.1,1.419.1,2.723.12,4.029.164.657.02,1.291.046,1.925.03l.994.007c1.2,0,2.374-.027,3.511-.09a33.524,33.524,0,0,0,11.675-2.57,12.383,12.383,0,0,1-9.6,7.295c-1.183-.014-2.326-.053-3.436-.115L237.892,440l-.8-.068-.4-.035a1.464,1.464,0,0,1-.156-.039,28.3,28.3,0,0,0-3.359-.558l-.986-.115-.493-.054-.245-.025c-.09-.018-.147.09-.095.132a4.956,4.956,0,0,0,1.028,1.137,10.767,10.767,0,0,0,2.816,1.587l.71.252.964.3q1.129.319,2.24.531a23.335,23.335,0,0,0,4.3.412,12.481,12.481,0,0,0,6.922-1.707,7.371,7.371,0,0,0,2.444-2.732,11.559,11.559,0,0,0,.7-1.772C253.614,436.7,253.718,436.282,253.771,436.072Z"></path><g class="cls-2"><path d="M139.18,428.415c-1.18-.51-.388-6.577-.872-9.019a54.729,54.729,0,0,1-.317-13.561A39.47,39.47,0,0,1,140.3,394.77a24.186,24.186,0,0,1,4.905-8.237,18.017,18.017,0,0,1,2.447,5.263c.46,1.667.56,3.093.1,3.729a25.082,25.082,0,0,0-3.689,7.864,36.412,36.412,0,0,0-1.193,7.484c-.3,4.745-.008,8.944-.956,12.519A15.838,15.838,0,0,1,139.18,428.415Z"></path></g><g class="cls-2"><path d="M133.728,459.978c-1.278.014-1.563-2.943-2.32-4.059a13.089,13.089,0,0,1-1.893-6.607,10.346,10.346,0,0,1,4.021-9.366c2.982,1.789,4.949,4,4.277,4.56a7.731,7.731,0,0,0-2.9,7.089c.22,2.2,1.012,4.027.622,5.709C135.471,458.084,134.06,459.64,133.728,459.978Z"></path></g><g class="cls-2"><path d="M138.986,482.863c-.208.564-1,.7-1.887.515a6.642,6.642,0,0,1-1.342-.417c-.432-.169-.848-.319-1.176-.416a5.762,5.762,0,0,1-3.123-2.1,10.471,10.471,0,0,1-1.665-3.292,7.761,7.761,0,0,1,.313-5.621,6.236,6.236,0,0,1,3.506-3.322c1.291,1.177,2.366,2.212,3.117,2.942.721.722,1.1,1.182.75,1.331a4.031,4.031,0,0,0-2.267,2.55,3.388,3.388,0,0,0,.343,2.534,5.172,5.172,0,0,0,1.427,1.537,5.152,5.152,0,0,1,.645.528,1.756,1.756,0,0,1,.506.609c.187.147.253.733.429,1.27Z"></path></g><g class="cls-2"><path d="M203.03,385.726c.022.628-1.327,1.349-2.986,1.919-1.654.589-3.6,1.029-4.666,1.5-3.787,1.688-8.509,1.956-12.686,1.69a26.831,26.831,0,0,1-10.212-2.624,16.154,16.154,0,0,1-2.469-1.4,7.6,7.6,0,0,1-1.34-1.213,5.153,5.153,0,0,1-.911-1.533,3.868,3.868,0,0,1,.162-3.119A2.279,2.279,0,0,1,170,379.492a1.532,1.532,0,0,1,.579.579.971.971,0,0,0,.275.616,1.558,1.558,0,0,0,1.428.446c.526-.067.635-.451.925-.485a.818.818,0,0,1,.792.24,17.316,17.316,0,0,0,6.6,3.9,20.778,20.778,0,0,0,6.591.959c4.2-.026,7.677-1.024,10.827-1.033a10.386,10.386,0,0,1,2.819.407A22.545,22.545,0,0,1,203.03,385.726Z"></path></g><g class="cls-2"><path d="M175.248,406.622c.1.589-.519,1.068-1.321,1.443a22.773,22.773,0,0,0-2.311.974c-1.945,1.3-4.513,1.288-6.735.87a8.974,8.974,0,0,1-2.778-1.021,10.415,10.415,0,0,1-1.286-.9,6.278,6.278,0,0,1-1.649-1.99,4.355,4.355,0,0,1-.278-3.344,3.534,3.534,0,0,1,1.354-1.8,3.851,3.851,0,0,1,2.562-.629c.557,1.544.933,3.057,1.6,3.68a.586.586,0,0,0,.126.1l.02.013-.063-.039-.128-.075a3.089,3.089,0,0,0-.438-.231,2.013,2.013,0,0,0-.338-.139,1.492,1.492,0,0,0-.244-.067c-.266-.045-.25,0-.151-.036l.028-.01.013-.006.006,0-.093.035h0l0,0,.067-.029a1.8,1.8,0,0,0,.22-.133,4.442,4.442,0,0,0,.723-.67c.232-.266.111-.13.106-.094a.428.428,0,0,0-.029.162.92.92,0,0,0,.089.368,4.059,4.059,0,0,0,1.044,1.3,4.688,4.688,0,0,0,2.709.994c1.872.118,3.35-.584,4.713-.243a3.6,3.6,0,0,1,1.313.695C174.592,406.132,175.076,406.478,175.248,406.622Z"></path></g><g class="cls-2"><path d="M170.88,423.23c.242,1.206-2.133,1.779-2.983,2.569a8.908,8.908,0,0,1-5.475,2.1,8.034,8.034,0,0,1-2.447-.1,7.338,7.338,0,0,1-2.6-1.039,6.135,6.135,0,0,1-2.082-2.192,3.227,3.227,0,0,1-.227-2.694,5.954,5.954,0,0,0,3.61-1.2c.645-.614.88-.97.9-.658a2.49,2.49,0,0,0,.645,1.551,3.318,3.318,0,0,0,1.274.874,4.828,4.828,0,0,0,2.69.257c1.708-.284,3-1.154,4.329-.914C169.106,421.793,170.542,422.961,170.88,423.23Z"></path></g><g class="cls-2"><path d="M165.816,443.522c-.006,1.2-2.107,1.348-2.926,2.068a7.535,7.535,0,0,1-5.185,1.6,6.668,6.668,0,0,1-4.481-1.678,5.145,5.145,0,0,1-1.818-4.055c1.459-.757,2.68-1.479,3.472-2s1.213-.758,1.232-.435a3.273,3.273,0,0,0,1.429,2.648,3.473,3.473,0,0,0,2.291.489c1.526-.147,2.8-.9,4.031-.477C164.435,441.769,165.583,443.184,165.816,443.522Z"></path></g><g class="cls-2"><path d="M178.68,459.329c-.106.952-3.161,1.117-4.342,1.693a15.562,15.562,0,0,1-6.96,1.257,12.341,12.341,0,0,1-5.869-1.477,7.876,7.876,0,0,1-3.641-3.845c2.507-1.176,4.575-2.192,5.03-1.574a6.9,6.9,0,0,0,3.367,2.478,9.622,9.622,0,0,0,3.611.477c2.312-.1,4.289-.718,6.09-.414A7.225,7.225,0,0,1,178.68,459.329Z"></path></g><g class="cls-2"><path d="M171.659,467.456c.1,1.268-2.763,1.79-3.882,2.62a9.377,9.377,0,0,1-7.6,1.324,8.959,8.959,0,0,1-5.54-3.664,8.339,8.339,0,0,1-1.478-4.873,15.54,15.54,0,0,1,4.252-1.287c1.132-.154,1.837-.085,1.858.33a5.11,5.11,0,0,0,1.45,3.629,4.054,4.054,0,0,0,2.826,1.014c2-.027,3.644-.964,5.322-.694C169.634,465.865,171.309,467.145,171.659,467.456Z"></path></g><path d="M205.66,370.188c.412-.076.959.842.856,2.036a8.227,8.227,0,0,1-1.059,3.061,5.244,5.244,0,0,1-1.319,1.748,6.16,6.16,0,0,1-.98.687,7.769,7.769,0,0,1-1.048.486,10.327,10.327,0,0,1-4.311.521,11.677,11.677,0,0,1-3.246-.706,10.363,10.363,0,0,1-2.865-1.58,7.132,7.132,0,0,1-2.053-2.509,4.341,4.341,0,0,1-.371-2.809,8.507,8.507,0,0,0,3.224.473c.8-.039,1.313-.054,1.434.27a5.4,5.4,0,0,0,2.922,2.734,6.132,6.132,0,0,0,3.464.512c2.206-.354,3.03-1.8,3.864-2.8.158-.263.554-.574.872-1A4.612,4.612,0,0,0,205.66,370.188Z"></path><path d="M204.585,360.77c.422-.067.9.755.879,1.825a8.81,8.81,0,0,1-.69,2.877,5.736,5.736,0,0,1-2.625,3.065,10.036,10.036,0,0,1-3.763,1.227,9.245,9.245,0,0,1-6-1.244,7.028,7.028,0,0,1-3.143-3.847,28.909,28.909,0,0,1,3.135-1.017c.838-.213,1.4-.269,1.574.021a4.757,4.757,0,0,0,2.88,2.213,5.139,5.139,0,0,0,3.125-.128,5.022,5.022,0,0,0,2.072-1.427c.455-.53.757-1.073,1.118-1.573.133-.25.5-.558.81-.959A5.477,5.477,0,0,0,204.585,360.77Z"></path><path d="M202.639,352.565c.2-.048.458.1.655.44a2.619,2.619,0,0,1,.282,1.412,6.636,6.636,0,0,1-1.067,2.884,5.571,5.571,0,0,1-3.31,2.473,12.7,12.7,0,0,1-3.705.466,11.72,11.72,0,0,1-5.466-1.289,8.794,8.794,0,0,1-3.516-3.159c2-1.5,4.147-2.36,4.611-1.813a7.354,7.354,0,0,0,6.563,2.6,4.936,4.936,0,0,0,2.347-.911,9.9,9.9,0,0,0,1.227-1.245c.144-.211.515-.445.822-.816A3.117,3.117,0,0,0,202.639,352.565Z"></path></svg>