<svg xmlns="http://www.w3.org/2000/svg" viewBox="0 0 380 600"><defs><style>.cls-1{fill:#fff;}.cls-2,.cls-5{fill:#ff635f;}.cls-3,.cls-4,.cls-6{fill:#ffd04d;}.cls-4,.cls-5,.cls-6{stroke:#000;}.cls-4,.cls-5{stroke-miterlimit:10;}.cls-4,.cls-6{stroke-width:3px;}.cls-5{stroke-width:2.19px;}.cls-6{stroke-linecap:round;stroke-linejoin:round;}</style></defs><g id="Designs"><g id="default"><path class="cls-1 color-body" d="M247.33,444.48c7.52,15.12,15.74,25.11,24.55,21.34,7.86-3.36,9.8-15,9.08-27.08C269.82,441.06,258.59,442.84,247.33,444.48Z" style="fill:#ffffff;--backup-fill:#ffffff"></path><path d="M247.33,444.43c.67-1,15.09-3.15,20.51-4.7,2.39-.66,4.88-1.31,7.41-2l2-.5,3.42-.79,1.75-.39.44-.09.22-.05c.08,0,.18-.07.15,0l.06.87.24,3.55c.05.6.06,1.22.09,1.84l.05,1.07,0,2.09c0,1.41-.07,2.81-.18,4.22a37,37,0,0,1-1.6,8.35,19.73,19.73,0,0,1-3.74,6.85,13.63,13.63,0,0,1-7,4.37,21.25,21.25,0,0,1-2.12.33,19.05,19.05,0,0,1-2.14-.06,17.33,17.33,0,0,1-2.05-.43,19,19,0,0,1-1.87-.71,20.42,20.42,0,0,1-5.74-4.27,43.46,43.46,0,0,1-6.79-10,71.38,71.38,0,0,1-3.85-9.21,77,77,0,0,1,7.46,7.33,83.67,83.67,0,0,1,5.61,6.35,20.82,20.82,0,0,0,3.12,3.67,9.94,9.94,0,0,0,3.71,2.29,8.13,8.13,0,0,0,2,.39,8,8,0,0,0,2-.27,9.67,9.67,0,0,0,2-.74,11.13,11.13,0,0,0,1.73-1.24,12.87,12.87,0,0,0,1.48-1.56,14.49,14.49,0,0,0,1.16-1.83,20.32,20.32,0,0,0,1.64-4,36.66,36.66,0,0,0,1.26-8.4c.06-1.38.05-2.74,0-4.08l0-.74,0-.55a9.54,9.54,0,0,0-.12-1l-1,.27-.49.13-.68.16-3.7.8c-4.86,1-9.41,1.81-13.7,2.3A91.47,91.47,0,0,1,247.33,444.43Z"></path></g><path class="cls-2 color-shirt" d="M287.56,443a100.29,100.29,0,0,1-53,11.27s-10.81-28.68-13.43-49.09c-3.85-30,15.49-42,25.66-36.61C261.42,376.31,282.59,407.06,287.56,443Z"></path><path d="M287.47,443c-.55-.43-1.31-3-2.24-6.69-.56-1.85-1.15-4-1.8-6.33l-1.16-3.59c-.4-1.24-.78-2.52-1.28-3.78s-.94-2.57-1.42-3.87-1.07-2.57-1.59-3.86c-1-2.58-2.28-5-3.42-7.43-.56-1.19-1.22-2.3-1.8-3.39s-1.15-2.15-1.76-3.12c-1.22-1.92-2.26-3.67-3.27-5a114,114,0,0,0-11.66-14.09c-1.06-1.12-2.22-2.11-3.32-3.18-.56-.52-1.16-1-1.73-1.45s-1.15-1-1.76-1.39a30.18,30.18,0,0,0-3.61-2.33l-.9-.5-.22-.13-.17-.06-.3-.12c-.21-.08-.44-.12-.65-.19l-.69-.12a10.33,10.33,0,0,0-6.23,1.6,17.63,17.63,0,0,0-5.39,5.23c-2.95,4.36-4.36,9.92-4.61,15.47a55.85,55.85,0,0,0,.22,7.41c.15,1.24.28,2.47.51,3.77s.39,2.57.65,3.86c1,5.16,2.2,10.32,3.54,15.41s2.78,10.12,4.27,15.05c.76,2.45,1.51,4.89,2.26,7.3l.29.9.07.22c0,.07,0,0,0,.06v.24c0,.06,0,.2.05.2l.17.07.08,0,0,0s0,0,.17,0c.58,0,1.17.13,1.75.12l3.49.09c1.16.07,2.31,0,3.45,0s2.29,0,3.41-.11a120.62,120.62,0,0,0,13.12-1.49c4.2-.73,8.22-1.68,12-2.73a98.48,98.48,0,0,0,10.62-3.56,41.75,41.75,0,0,1-9,7.83,70.16,70.16,0,0,1-12.44,6.52,68.32,68.32,0,0,1-12.83,3.73,39.24,39.24,0,0,1-9.8.72c-1.19-.11-2.38-.14-3.55-.32l-.45-.06-.22,0-.41,0-1.6-.15-3.11-.29-1.49-.15-.74-.07c-.16,0-.16-.13-.21-.25l-.12-.38c-.31-1-.63-2-.94-2.94l-.9-2.86-.22-.71-.11-.42-.21-.8q-1.69-6.42-3.23-12.64c-2-8.31-3.86-16.39-5.25-24.34A118.31,118.31,0,0,1,218.35,402a57.07,57.07,0,0,1,.49-11.85A39.5,39.5,0,0,1,222.25,379a28.73,28.73,0,0,1,7-9.21,20.55,20.55,0,0,1,10.52-4.9,14.64,14.64,0,0,1,6.05.44,10.72,10.72,0,0,1,1.47.53l.72.32c.21.11.39.23.59.34l2.34,1.36a53.08,53.08,0,0,1,7.89,6.45c1.18,1.15,2.35,2.3,3.39,3.53s2.15,2.38,3.1,3.64a99.71,99.71,0,0,1,10.11,15.13c1.48,2.53,2.64,5.16,3.89,7.69.54,1.31,1.08,2.6,1.61,3.87.27.64.53,1.28.79,1.92s.45,1.29.68,1.93a85.78,85.78,0,0,1,4.29,17.86c.16,1.54.31,3,.45,4.41.07.69.13,1.36.19,2s0,1.26.07,1.84C287.43,440.4,287.47,442.15,287.47,443Z"></path><path class="cls-3" d="M264.66,391.6c-.23-.3-.46-.6-.7-.89a3.92,3.92,0,0,0-.25-.32l-.2-.25-.21-.23c-1-.06-2.06-.75-2.63-2.72-1.08-1.13-2.13-2.28-3.13-3.48a9.89,9.89,0,0,0,0,2.77c.4,2.77,1,4.71,3.1,6a5,5,0,0,0,4.89.4C265.25,392.43,265,392,264.66,391.6Z"></path><path class="cls-3" d="M267.78,396.06c-.25-.29-.48-.59-.71-.88a6.49,6.49,0,0,0-.36,1.34c-.07.92.26,2,1,2.09.53.11.91-.25,1.11-.79C268.45,397.24,268.11,396.66,267.78,396.06Z"></path><path class="cls-3" d="M266,396.93c-.19.56-.6.9-1.05.63a1.33,1.33,0,0,1-.32-1.55,13.45,13.45,0,0,1,1.58-2.15A20.4,20.4,0,0,1,266,396.93Z"></path><path class="cls-3" d="M267.62,437.32l3.41-1.58c-1.13-.33-2.22-1.56-2.48-4.66a10,10,0,0,1,.9-4.31c1-2.42,2.32-3.94,3.41-6.3a11.75,11.75,0,0,0,1-8.11c-.33,2.23-.16,2.76-4.79,9.73-2,3-3.83,6.51-3.27,10.3C266.09,434.49,266.53,436.11,267.62,437.32Z"></path><path class="cls-3" d="M273.53,428.31a1.83,1.83,0,0,0-1.79.83,2.13,2.13,0,0,0,.12,2.27,1.15,1.15,0,0,0,1.92-.12,3.15,3.15,0,0,1,.37,2.91c.68-.35,1.35-.7,2-1.07l.46-.27c0-.16,0-.32-.05-.48C276.25,430.55,275.24,428.59,273.53,428.31Z"></path><path class="cls-3" d="M279.53,427.67a5.47,5.47,0,0,0-.73,4l1.17-.6C279.77,429.94,279.64,428.8,279.53,427.67Z"></path><path class="cls-3" d="M276.64,416.75c-.1-.41-.17-.81-.23-1.2a12.63,12.63,0,0,0-1.4-1.81,2.76,2.76,0,0,1-.45-.68,11.18,11.18,0,0,0,2.84,5.55A11.17,11.17,0,0,1,276.64,416.75Z"></path><path class="cls-3" d="M274.19,419.62s-2.18,3.54-2.13,5.37,2.1,2.59,2.34-.68A14.32,14.32,0,0,0,274.19,419.62Z"></path><path class="cls-3" d="M279,423.68a29.79,29.79,0,0,0-.86-3.21c-.83-.76-1.55-1.31-1.55-1.31A14.15,14.15,0,0,0,278,423.6a3,3,0,0,0,1.25,1.58Q279.14,424.43,279,423.68Z"></path><path class="cls-3" d="M275.46,419.84a38,38,0,0,0-.16,4.4c.13.77.59,1.5,1.2,1.38s.8-.86.66-1.63A41.64,41.64,0,0,0,275.46,419.84Z"></path><path class="cls-3" d="M282.29,430.34c.12.64-3.49,2.45-4.79,3.37a33.44,33.44,0,0,1-7.9,4,28.18,28.18,0,0,1-13.22,2c1.16-1.8,3.57-3.45,4.59-3.4a23.88,23.88,0,0,0,10.39-2c2.86-1.19,5.15-2.56,7.38-3.34A14.61,14.61,0,0,1,282.29,430.34Z"></path><path class="cls-3" d="M266.46,446.55a2.77,2.77,0,0,1-2,3.65,3.12,3.12,0,0,1-3.67-2.52c-.41-1.57.91-8,.91-8S266.05,445,266.46,446.55Z"></path><path class="cls-3" d="M272.59,444.61a2.76,2.76,0,0,1-1.79,3.77,3.13,3.13,0,0,1-3.84-2.27c-.53-1.54.34-8,.34-8S272.06,443.07,272.59,444.61Z"></path><path class="cls-3" d="M278.36,441.94a2.76,2.76,0,0,1-1.59,3.85,3.16,3.16,0,0,1-4-2.09c-.6-1.52-.07-8-.07-8S277.75,440.42,278.36,441.94Z"></path><path class="cls-3" d="M284.22,438.18a2.74,2.74,0,0,1-1.59,3.85,3.15,3.15,0,0,1-3.95-2.09c-.6-1.52-.07-8-.07-8S283.62,436.66,284.22,438.18Z"></path><ellipse class="cls-3" cx="282.65" cy="432.63" rx="0.88" ry="1.18" transform="translate(-152.44 153.78) rotate(-24.19)"></ellipse><ellipse class="cls-3" cx="276.3" cy="436.08" rx="0.88" ry="1.18" transform="translate(-154.41 151.48) rotate(-24.19)"></ellipse><ellipse class="cls-3" cx="259.08" cy="442.18" rx="0.97" ry="1.31" transform="translate(-158.42 144.96) rotate(-24.19)"></ellipse><ellipse class="cls-3" cx="265.14" cy="440.54" rx="0.97" ry="1.31" transform="translate(-157.22 147.3) rotate(-24.19)"></ellipse><ellipse class="cls-3" cx="270.62" cy="438.41" rx="0.97" ry="1.31" transform="translate(-155.86 149.36) rotate(-24.19)"></ellipse><path class="cls-2 color-shirt" d="M216.56,381.38c-4.54-2.62-11.62-3.75-15.45-4.69-5.3-1.3-18.48-1.92-29.85-2.91-7.65-.67-14.6-.78-14.93-.71-1.57.33-.2,3.31-.53,3.29-6.24-.41-8.61,9.77-12.57,15.16,0,0-9.53,104.57-9.06,110.75s38.64,24.09,66.46,24A58.88,58.88,0,0,0,221.87,522s6.12,2.75,16.25,1.33,24.87-12.83,26.77-17.59S264,415,244.1,378.3c-1.51-2.78-.34-10.9-3.54-9.73-7.18,2.64-14.84,4.37-17.94,6.29C215.62,379.19,218.15,382.3,216.56,381.38Z"></path><path d="M216.59,381.33a1.68,1.68,0,0,0,.36.06c.06,0,0,0,.05-.05a2.71,2.71,0,0,0,.05-.27,5.82,5.82,0,0,1,.47-1.81,11.44,11.44,0,0,1,4-4.44,13.07,13.07,0,0,1,1.63-1,18.8,18.8,0,0,1,1.87-.87c1.3-.55,2.7-1,4.17-1.54l4.64-1.54,2.45-.83,2.87-1,1.38-.39a2.17,2.17,0,0,1,1.38-.05,2.07,2.07,0,0,1,1.09.91,5.69,5.69,0,0,1,.61,1.32,16.54,16.54,0,0,1,.58,3.09c.1.85.19,1.7.32,2.52a8.92,8.92,0,0,0,.55,2.21l1.21,2.33c.88,1.59,1.58,3.29,2.37,5a154.39,154.39,0,0,1,7.17,21.15A369.31,369.31,0,0,1,263.32,443c1.59,9.94,2.85,20.23,3.76,30.75.46,5.26.83,10.57,1.07,15.94.12,2.69.21,5.39.24,8.11,0,1.37,0,2.73,0,4.14,0,.68-.07,1.43-.1,2.14,0,.38-.08.8-.12,1.2,0,.11,0,.2-.05.33L268,506l-.22.87a11.53,11.53,0,0,1-1.07,1.94,13.69,13.69,0,0,1-1.09,1.45,32.12,32.12,0,0,1-2.27,2.47,61.37,61.37,0,0,1-4.85,4.19,65.44,65.44,0,0,1-10.81,6.76,38.83,38.83,0,0,1-6.2,2.37,12.79,12.79,0,0,1-1.7.4,16.49,16.49,0,0,1-1.7.3c-1.07.16-2.16.26-3.24.34a42.71,42.71,0,0,1-6.59-.1c-1.1-.12-2.2-.26-3.3-.48-.55-.1-1.11-.23-1.66-.37-.28-.08-.56-.14-.84-.23l-.4-.11-.09,0a.12.12,0,0,0-.08,0h-.06l-.18.07-.78.29c-.53.2-1,.37-1.57.55-1.05.34-2.1.67-3.15,1a64,64,0,0,1-6.39,1.43,61.29,61.29,0,0,1-6.5.76,63.07,63.07,0,0,1-6.45,0,114.45,114.45,0,0,1-24.31-4,154.28,154.28,0,0,1-22-7.75,104.1,104.1,0,0,1-10.43-5.28,46.64,46.64,0,0,1-5.07-3.39c-.42-.31-.84-.67-1.27-1.05a16.47,16.47,0,0,1-1.28-1.25,7,7,0,0,1-.68-.82l-.43-.56c-.12-.2-.21-.41-.31-.61l-.3-.62a2.1,2.1,0,0,1-.24-.63l-.16-.67,0-.16s0-.06-.05-.08v-.08l-.05-.34v-2.4c0-.7.06-1.23.09-1.85.07-1.2.12-2.42.21-3.6q.24-3.54.5-7.06.56-7,1.12-14,1.17-13.87,2.44-27.38c1.67-18,3.41-35.42,5.16-52l.16-1.55.12-1.11a6,6,0,0,1,.18-1.29l.7-1,.35-.5.2-.32c.25-.39.49-.77.73-1.2,1-1.65,1.87-3.48,2.91-5.34a24.1,24.1,0,0,1,4-5.64,10.5,10.5,0,0,1,3.52-2.33c.37-.12.75-.21,1.13-.3l.57-.12.57,0c.39,0,.77,0,1.15,0-.37,5.61-.09,1.58-.2,2.8-5.13-2.14-1.66-.32-2.91-.68-.08.08,0,0,0,0v-.09l0-.32c0-.21,0-.41,0-.61a5.51,5.51,0,0,1,.36-2.08,3.18,3.18,0,0,1,1.35-1.6,5.21,5.21,0,0,1,2-.56c.79,0,1.64,0,2.43,0l1.9.09,1.47.09,2.92.21q2.89.22,5.75.52l5.57.59c7.38.77,14.5,1.34,21.43,2.47.87.15,1.73.31,2.61.52l2.48.64c1.62.4,3.25.8,4.85,1.25a36.91,36.91,0,0,1,9.23,3.67,43.51,43.51,0,0,0-11-2.53l-6.18-.81c-2.09-.21-4.26-.29-6.48-.35-4.44-.11-9-.12-13.73-.18l-7.05-.14c-2.37-.08-4.64-.14-6.95-.16h-5.13a4.87,4.87,0,0,0-1,0l-.31.06c-.08,0-.19,0-.22.15a.59.59,0,0,0,.06.32l.06.13v0h0l-.09.37a2,2,0,0,1-.37.86,3.42,3.42,0,0,1-1.44,1.24,4,4,0,0,1-1.69.32h-.07l-.07,0a1.81,1.81,0,0,0-1.08.49,7.78,7.78,0,0,0-1.35,1.51,37.86,37.86,0,0,0-2.6,4.78c-.85,1.73-1.68,3.51-2.71,5.28l-.51.85-.1.17v.24l-.05.63c0,.42-.07.82-.1,1.23-.28,3.21-.56,6-.84,8.31q-3.18,26.18-5.8,50.89-1.29,12.36-2.45,24.34-.54,6-1.07,11.9c-.16,2-.31,3.92-.47,5.87l-.19,2.9c0,.48-.06,1-.06,1.4l0,1.2a1.5,1.5,0,0,0,.25.79,6.22,6.22,0,0,0,.7.84,18.61,18.61,0,0,0,2.12,1.85,47.43,47.43,0,0,0,5,3.24,104.18,104.18,0,0,0,10.74,5.34,146.24,146.24,0,0,0,22.26,7.6,99.42,99.42,0,0,0,22.36,3.26,51.45,51.45,0,0,0,10.82-1q2.66-.51,5.24-1.25c.85-.25,1.71-.51,2.55-.8l1.25-.44.62-.23.86-.34c.4-.06.79-.16,1.14-.18s.75.13,1.14.18l.53.18.36.11.7.19c.48.11,1,.23,1.44.32a28.29,28.29,0,0,0,2.93.41,36.44,36.44,0,0,0,5.91,0c1-.06,2-.19,2.93-.31a22.17,22.17,0,0,0,2.74-.64,33.5,33.5,0,0,0,5.35-2.13,59.73,59.73,0,0,0,9.77-6.18A51.21,51.21,0,0,0,260,509c.64-.66,1.29-1.32,1.83-2a9.71,9.71,0,0,0,1.27-1.89,2.63,2.63,0,0,0,.11-.51l.08-.79.1-1.73c0-1.17.06-2.36.06-3.55q0-3.57-.12-7.11c-.15-4.73-.41-9.4-.72-14-.63-9.21-1.5-18.18-2.56-26.89s-2.33-17.17-3.81-25.36S253,409,250.92,401.45a154.63,154.63,0,0,0-5.55-16.61c-.31-.73-.61-1.46-.91-2.2s-.67-1.43-1-2.15l-.51-1.08a9.56,9.56,0,0,1-.56-1.38,14.77,14.77,0,0,1-.46-2.68c-.08-.82-.13-1.69-.18-2.4a16.17,16.17,0,0,0-.18-1.66c-.12-.52-.27-1.2-.84-1.39a1.3,1.3,0,0,0-.8.09l-.79.24L235,371.39l-4.26,1.15a48.39,48.39,0,0,0-7.39,2.37,14.94,14.94,0,0,0-4.81,3.61,6.51,6.51,0,0,0-1.1,2c-.12.31-.18.62-.29.87S216.76,381.42,216.59,381.33Z"></path><path class="cls-3" d="M153.4,394.6c-3.33,2.31-6.63,5.16-7.07,9-.33,2.79-.13,4.84,2,6.64a7.43,7.43,0,0,0,7.54,1.39,5.64,5.64,0,0,0,3.67-4.93c.15-1.86-.5-4-2.51-4.8a2.71,2.71,0,0,0-2.44.29,1.79,1.79,0,0,0-.54,2.22,1.68,1.68,0,0,0,2.4.43,2.68,2.68,0,0,1-2,3.8c-1.9.41-5.4-.3-4.38-5.5a8.67,8.67,0,0,1,2.39-3.89c1.94-2,4-3.12,6.05-5.08,1.76-1.7,3.83-4.36,3.62-7.53C161.1,388.67,161.15,389.23,153.4,394.6Z"></path><path class="cls-3" d="M170.39,395.92c2.94,2.79,5.76,6.11,5.61,9.95-.1,2.8-.61,4.8-3,6.25a7.45,7.45,0,0,1-7.66.21,5.63,5.63,0,0,1-2.87-5.43c.14-1.87,1.11-3.92,3.22-4.36a2.68,2.68,0,0,1,2.36.66,1.79,1.79,0,0,1,.2,2.27,1.68,1.68,0,0,1-2.44.07,2.67,2.67,0,0,0,1.36,4c1.82.7,5.38.53,5.18-4.76a8.83,8.83,0,0,0-1.77-4.21c-1.61-2.32-3.49-3.7-5.19-5.95-1.49-1.95-3.12-4.9-2.43-8C163.7,388.87,163.55,389.42,170.39,395.92Z"></path><path class="cls-3" d="M160.44,393.71s-3.74,2.77-4.21,4.55,1.8,3.09,3.06,0A11.54,11.54,0,0,0,160.44,393.71Z"></path><path class="cls-3" d="M163.47,393.94s3.26,3.32,3.46,5.15-2.25,2.78-3-.46A11.53,11.53,0,0,1,163.47,393.94Z"></path><path class="cls-3" d="M162.77,398.77c-.06.78-.52,1.43-1.3,1.37s-1.12-.89-1.06-1.67a31.13,31.13,0,0,1,1.52-4.19A33.87,33.87,0,0,1,162.77,398.77Z"></path><path class="cls-3" d="M162,416.81c-.09,1.17-.78,2.15-1.94,2.06s-1.69-1.34-1.6-2.51,2.2-5.27,2.2-5.27S162.06,415.64,162,416.81Z"></path><path class="cls-3" d="M157.15,417.08a1.55,1.55,0,0,1-2,1.1,1.67,1.67,0,0,1-.6-2.3,23.15,23.15,0,0,1,3-3.49A25.82,25.82,0,0,1,157.15,417.08Z"></path><path class="cls-3" d="M153.57,416.07a1,1,0,0,1-1.48.3,1.12,1.12,0,0,1,.07-1.58,15.66,15.66,0,0,1,2.58-1.62A17.58,17.58,0,0,1,153.57,416.07Z"></path><path class="cls-3" d="M163.2,417.55c.21.91.88,1.6,1.79,1.39a1.68,1.68,0,0,0,.95-2.18,23.25,23.25,0,0,0-2.39-3.91A25.26,25.26,0,0,0,163.2,417.55Z"></path><path class="cls-3" d="M166.89,417.1a1,1,0,0,0,1.42.52,1.12,1.12,0,0,0,.16-1.57,15.4,15.4,0,0,0-2.29-2A17,17,0,0,0,166.89,417.1Z"></path><path class="cls-3" d="M149.79,441.3c-3.33,2.31-6.63,5.16-7.07,9-.33,2.79-.13,4.84,2,6.64a7.41,7.41,0,0,0,7.53,1.39,5.63,5.63,0,0,0,3.67-4.93c.15-1.86-.49-4-2.51-4.8a2.71,2.71,0,0,0-2.44.29,1.78,1.78,0,0,0-.54,2.21,1.68,1.68,0,0,0,2.4.44,2.68,2.68,0,0,1-2,3.8c-1.9.41-5.4-.31-4.38-5.5a8.7,8.7,0,0,1,2.39-3.89c2-2,4-3.12,6.05-5.08,1.76-1.7,3.83-4.36,3.62-7.53C157.49,435.37,157.54,435.93,149.79,441.3Z"></path><path class="cls-3" d="M166.78,442.62c2.94,2.79,5.76,6.11,5.61,9.95-.1,2.8-.61,4.79-3,6.24a7.43,7.43,0,0,1-7.66.22,5.63,5.63,0,0,1-2.87-5.43c.14-1.87,1.11-3.92,3.22-4.36a2.65,2.65,0,0,1,2.36.66,1.79,1.79,0,0,1,.2,2.27,1.69,1.69,0,0,1-2.44.06,2.68,2.68,0,0,0,1.36,4.06c1.82.7,5.39.53,5.18-4.77a8.73,8.73,0,0,0-1.77-4.2c-1.61-2.32-3.49-3.71-5.19-5.95-1.49-1.95-3.12-4.9-2.43-8C160.09,435.57,160,436.11,166.78,442.62Z"></path><path class="cls-3" d="M156.83,440.4s-3.73,2.78-4.21,4.56,1.8,3.09,3.06,0A11.57,11.57,0,0,0,156.83,440.4Z"></path><path class="cls-3" d="M159.86,440.64s3.27,3.32,3.46,5.15-2.25,2.77-3-.46A11.46,11.46,0,0,1,159.86,440.64Z"></path><path class="cls-3" d="M159.16,445.47c-.06.77-.52,1.43-1.3,1.37s-1.12-.89-1.06-1.67a31.35,31.35,0,0,1,1.52-4.2A34.07,34.07,0,0,1,159.16,445.47Z"></path><path class="cls-3" d="M158.36,463.51c-.09,1.16-.78,2.15-1.94,2.06s-1.69-1.34-1.6-2.51,2.2-5.28,2.2-5.28S158.45,462.34,158.36,463.51Z"></path><path class="cls-3" d="M153.54,463.78a1.55,1.55,0,0,1-2,1.1,1.68,1.68,0,0,1-.6-2.3,23.15,23.15,0,0,1,3-3.49A25.82,25.82,0,0,1,153.54,463.78Z"></path><path class="cls-3" d="M150,462.77a1,1,0,0,1-1.48.3,1.12,1.12,0,0,1,.08-1.58,15.24,15.24,0,0,1,2.57-1.62A16.72,16.72,0,0,1,150,462.77Z"></path><path class="cls-3" d="M159.59,464.25c.21.91.88,1.6,1.79,1.39a1.68,1.68,0,0,0,1-2.18,22.84,22.84,0,0,0-2.39-3.91A25.26,25.26,0,0,0,159.59,464.25Z"></path><path class="cls-3" d="M163.28,463.8a1,1,0,0,0,1.42.52,1.12,1.12,0,0,0,.16-1.57,14.91,14.91,0,0,0-2.29-2A17,17,0,0,0,163.28,463.8Z"></path><path class="cls-3" d="M173.19,422.43c-3.33,2.31-6.63,5.16-7.08,9-.32,2.79-.13,4.84,2,6.64a7.43,7.43,0,0,0,7.54,1.39,5.65,5.65,0,0,0,3.67-4.93c.14-1.86-.5-4-2.51-4.8a2.71,2.71,0,0,0-2.44.29,1.78,1.78,0,0,0-.54,2.21,1.67,1.67,0,0,0,2.39.44,2.67,2.67,0,0,1-2,3.8c-1.91.41-5.4-.31-4.38-5.5a8.62,8.62,0,0,1,2.39-3.89c1.94-2,4-3.12,6-5.08,1.77-1.7,3.83-4.36,3.63-7.53C180.88,416.5,180.94,417.06,173.19,422.43Z"></path><path class="cls-3" d="M190.18,423.75c2.94,2.79,5.75,6.11,5.61,9.95-.11,2.8-.61,4.79-3,6.24a7.44,7.44,0,0,1-7.67.22,5.67,5.67,0,0,1-2.87-5.44c.15-1.86,1.12-3.91,3.23-4.35a2.66,2.66,0,0,1,2.36.66,1.77,1.77,0,0,1,.19,2.27,1.68,1.68,0,0,1-2.43.06,2.68,2.68,0,0,0,1.36,4.06c1.82.69,5.38.53,5.17-4.77a8.68,8.68,0,0,0-1.76-4.2c-1.61-2.32-3.49-3.71-5.2-5.95-1.48-2-3.11-4.9-2.42-8C183.49,416.7,183.34,417.24,190.18,423.75Z"></path><path class="cls-3" d="M180.23,421.53s-3.74,2.78-4.21,4.56,1.8,3.09,3.06,0A11.57,11.57,0,0,0,180.23,421.53Z"></path><path class="cls-3" d="M183.26,421.77s3.26,3.32,3.46,5.15-2.26,2.77-3-.46A11.53,11.53,0,0,1,183.26,421.77Z"></path><path class="cls-3" d="M182.56,426.59c-.06.78-.52,1.44-1.3,1.38s-1.12-.89-1.06-1.67a31.54,31.54,0,0,1,1.51-4.2A34,34,0,0,1,182.56,426.59Z"></path><path class="cls-3" d="M181.76,444.64c-.09,1.16-.78,2.15-1.95,2.06s-1.68-1.34-1.59-2.51,2.2-5.28,2.2-5.28S181.85,443.47,181.76,444.64Z"></path><path class="cls-3" d="M176.94,444.91c-.36.87-1.12,1.45-2,1.1a1.67,1.67,0,0,1-.6-2.3,23.15,23.15,0,0,1,3-3.49A25.82,25.82,0,0,1,176.94,444.91Z"></path><path class="cls-3" d="M173.36,443.9a1,1,0,0,1-1.48.29,1.11,1.11,0,0,1,.07-1.57,15.65,15.65,0,0,1,2.57-1.62A17.37,17.37,0,0,1,173.36,443.9Z"></path><path class="cls-3" d="M183,445.37c.22.92.89,1.61,1.8,1.4a1.68,1.68,0,0,0,.95-2.18,23.5,23.5,0,0,0-2.39-3.91A26,26,0,0,0,183,445.37Z"></path><path class="cls-3" d="M186.68,444.92a1,1,0,0,0,1.41.53,1.11,1.11,0,0,0,.17-1.57,15.4,15.4,0,0,0-2.29-2A16.7,16.7,0,0,0,186.68,444.92Z"></path><path class="cls-3" d="M196.56,397.94c-3.33,2.31-6.63,5.16-7.08,9-.32,2.78-.13,4.84,2,6.64a7.43,7.43,0,0,0,7.54,1.39,5.66,5.66,0,0,0,3.67-4.93c.14-1.86-.5-4-2.51-4.8a2.68,2.68,0,0,0-2.44.29,1.78,1.78,0,0,0-.54,2.21,1.67,1.67,0,0,0,2.39.44,2.67,2.67,0,0,1-2,3.8c-1.91.41-5.4-.31-4.38-5.51a8.64,8.64,0,0,1,2.39-3.88c1.94-2,4-3.13,6.05-5.08,1.76-1.7,3.83-4.36,3.62-7.53C204.25,392,204.31,392.57,196.56,397.94Z"></path><path class="cls-3" d="M213.55,399.25c2.94,2.79,5.75,6.12,5.61,9.95-.11,2.8-.61,4.8-3,6.25a7.43,7.43,0,0,1-7.66.22,5.66,5.66,0,0,1-2.88-5.44c.15-1.86,1.12-3.91,3.23-4.36a2.69,2.69,0,0,1,2.36.67,1.78,1.78,0,0,1,.2,2.27,1.69,1.69,0,0,1-2.44.06,2.67,2.67,0,0,0,1.36,4.05c1.82.7,5.38.53,5.17-4.76a8.71,8.71,0,0,0-1.76-4.21c-1.61-2.31-3.49-3.7-5.2-5.95-1.48-1.95-3.11-4.89-2.42-8C206.86,392.2,206.71,392.75,213.55,399.25Z"></path><path class="cls-3" d="M203.6,397s-3.74,2.78-4.21,4.56,1.8,3.09,3.06,0A11.57,11.57,0,0,0,203.6,397Z"></path><path class="cls-3" d="M206.63,397.28s3.26,3.31,3.46,5.14-2.26,2.78-3-.46A11.48,11.48,0,0,1,206.63,397.28Z"></path><path class="cls-3" d="M205.93,402.1c-.06.78-.52,1.44-1.3,1.38s-1.12-.89-1.06-1.67a31.54,31.54,0,0,1,1.51-4.2A33.63,33.63,0,0,1,205.93,402.1Z"></path><path class="cls-3" d="M205.13,420.14c-.09,1.17-.78,2.16-1.95,2.07s-1.68-1.34-1.59-2.51,2.2-5.28,2.2-5.28S205.22,419,205.13,420.14Z"></path><path class="cls-3" d="M200.31,420.41c-.36.87-1.12,1.46-2,1.1a1.67,1.67,0,0,1-.6-2.3,23.15,23.15,0,0,1,3-3.49A25.76,25.76,0,0,1,200.31,420.41Z"></path><path class="cls-3" d="M196.73,419.4a1,1,0,0,1-1.48.3,1.12,1.12,0,0,1,.07-1.58,15.66,15.66,0,0,1,2.58-1.62A17.58,17.58,0,0,1,196.73,419.4Z"></path><path class="cls-3" d="M206.35,420.88c.22.92.89,1.61,1.8,1.39s1.17-1.26.95-2.18a23.76,23.76,0,0,0-2.39-3.9A26,26,0,0,0,206.35,420.88Z"></path><path class="cls-3" d="M210.05,420.43a1,1,0,0,0,1.41.53,1.11,1.11,0,0,0,.17-1.57,15.4,15.4,0,0,0-2.29-2A16.7,16.7,0,0,0,210.05,420.43Z"></path><path class="cls-3" d="M193,444.64c-3.33,2.3-6.63,5.16-7.07,9-.33,2.78-.13,4.83,2,6.63a7.46,7.46,0,0,0,7.54,1.4,5.66,5.66,0,0,0,3.67-4.93c.15-1.87-.5-4-2.51-4.81a2.71,2.71,0,0,0-2.44.3,1.78,1.78,0,0,0-.54,2.21,1.68,1.68,0,0,0,2.4.44,2.67,2.67,0,0,1-2,3.79c-1.9.41-5.4-.3-4.38-5.5a8.73,8.73,0,0,1,2.39-3.88c1.95-2,4-3.13,6-5.09,1.76-1.7,3.83-4.36,3.62-7.52C200.65,438.7,200.7,439.26,193,444.64Z"></path><path class="cls-3" d="M209.94,446c2.94,2.79,5.76,6.12,5.61,9.95-.1,2.8-.61,4.8-3,6.25a7.45,7.45,0,0,1-7.66.22,5.65,5.65,0,0,1-2.87-5.44c.14-1.86,1.11-3.91,3.22-4.36a2.68,2.68,0,0,1,2.36.67,1.77,1.77,0,0,1,.2,2.26,1.68,1.68,0,0,1-2.44.07,2.67,2.67,0,0,0,1.36,4.05c1.82.7,5.38.53,5.18-4.76a8.83,8.83,0,0,0-1.77-4.21c-1.61-2.31-3.49-3.7-5.19-5.95-1.49-1.95-3.12-4.9-2.43-8C203.25,438.9,203.1,439.45,209.94,446Z"></path><path class="cls-3" d="M200,443.74s-3.73,2.78-4.21,4.55,1.8,3.1,3.06,0A11.54,11.54,0,0,0,200,443.74Z"></path><path class="cls-3" d="M203,444s3.26,3.32,3.46,5.15-2.25,2.78-3-.46A11.53,11.53,0,0,1,203,444Z"></path><path class="cls-3" d="M202.32,448.8c-.06.78-.52,1.44-1.3,1.38s-1.12-.9-1.06-1.68a31.65,31.65,0,0,1,1.52-4.19A33.87,33.87,0,0,1,202.32,448.8Z"></path><path class="cls-3" d="M201.52,466.84c-.09,1.17-.78,2.15-1.94,2.06s-1.69-1.33-1.6-2.5,2.2-5.28,2.2-5.28S201.61,465.67,201.52,466.84Z"></path><path class="cls-3" d="M196.7,467.11a1.54,1.54,0,0,1-2,1.1,1.67,1.67,0,0,1-.6-2.3,23.15,23.15,0,0,1,3-3.49A25.82,25.82,0,0,1,196.7,467.11Z"></path><path class="cls-3" d="M193.12,466.1a1,1,0,0,1-1.48.3,1.12,1.12,0,0,1,.07-1.58,15.66,15.66,0,0,1,2.58-1.62A17.58,17.58,0,0,1,193.12,466.1Z"></path><path class="cls-3" d="M202.75,467.58c.21.91.88,1.61,1.79,1.39s1.17-1.27,1-2.18a23.09,23.09,0,0,0-2.39-3.9A25.22,25.22,0,0,0,202.75,467.58Z"></path><path class="cls-3" d="M206.44,467.13a1,1,0,0,0,1.42.52,1.12,1.12,0,0,0,.16-1.57,15.83,15.83,0,0,0-2.29-2A16.7,16.7,0,0,0,206.44,467.13Z"></path><path class="cls-3" d="M146.19,487.86c-3.33,2.31-6.62,5.16-7.07,9-.33,2.79-.13,4.84,2,6.64a7.42,7.42,0,0,0,7.53,1.39,5.66,5.66,0,0,0,3.68-4.93c.14-1.86-.5-4-2.52-4.8a2.71,2.71,0,0,0-2.44.29,1.78,1.78,0,0,0-.54,2.21,1.68,1.68,0,0,0,2.4.44,2.67,2.67,0,0,1-2,3.8c-1.91.41-5.41-.31-4.39-5.51a8.82,8.82,0,0,1,2.39-3.88c2-2,4-3.12,6.05-5.08,1.77-1.7,3.83-4.36,3.62-7.53C153.89,481.93,154,482.49,146.19,487.86Z"></path><path class="cls-3" d="M163.19,489.17c2.93,2.8,5.75,6.12,5.6,10-.1,2.8-.61,4.79-3,6.24a7.42,7.42,0,0,1-7.66.22,5.66,5.66,0,0,1-2.87-5.44c.14-1.86,1.11-3.91,3.22-4.35a2.67,2.67,0,0,1,2.37.66,1.78,1.78,0,0,1,.19,2.27,1.69,1.69,0,0,1-2.44.06,2.68,2.68,0,0,0,1.36,4.06c1.82.69,5.39.53,5.18-4.77a8.77,8.77,0,0,0-1.76-4.2c-1.62-2.32-3.5-3.71-5.2-5.95-1.48-2-3.12-4.9-2.43-8C156.49,482.13,156.35,482.67,163.19,489.17Z"></path><path class="cls-3" d="M153.23,487s-3.73,2.78-4.21,4.56,1.8,3.09,3.06,0A11.57,11.57,0,0,0,153.23,487Z"></path><path class="cls-3" d="M156.27,487.2s3.26,3.31,3.46,5.15-2.26,2.77-3-.47A11.48,11.48,0,0,1,156.27,487.2Z"></path><path class="cls-3" d="M155.56,492c-.06.78-.52,1.44-1.29,1.38s-1.13-.89-1.07-1.67a31.35,31.35,0,0,1,1.52-4.2A34.2,34.2,0,0,1,155.56,492Z"></path><path class="cls-3" d="M154.77,510.06c-.09,1.17-.78,2.16-2,2.07s-1.69-1.34-1.6-2.51,2.2-5.28,2.2-5.28S154.86,508.9,154.77,510.06Z"></path><path class="cls-3" d="M149.94,510.34a1.55,1.55,0,0,1-2,1.1,1.69,1.69,0,0,1-.61-2.3,23.15,23.15,0,0,1,3-3.49A24.94,24.94,0,0,1,149.94,510.34Z"></path><path class="cls-3" d="M146.36,509.32a1,1,0,0,1-1.48.3,1.1,1.1,0,0,1,.08-1.57,15.65,15.65,0,0,1,2.57-1.62A16.69,16.69,0,0,1,146.36,509.32Z"></path><path class="cls-3" d="M156,510.8c.21.92.88,1.61,1.79,1.39s1.17-1.26.95-2.17a22.92,22.92,0,0,0-2.38-3.91A25.06,25.06,0,0,0,156,510.8Z"></path><path class="cls-3" d="M159.68,510.35a1,1,0,0,0,1.42.53,1.12,1.12,0,0,0,.17-1.57,15.38,15.38,0,0,0-2.3-2A17.59,17.59,0,0,0,159.68,510.35Z"></path><path class="cls-3" d="M169.59,469c-3.33,2.31-6.63,5.16-7.07,9-.33,2.79-.13,4.84,2,6.64a7.43,7.43,0,0,0,7.54,1.39,5.65,5.65,0,0,0,3.67-4.93c.15-1.86-.5-4-2.51-4.8a2.68,2.68,0,0,0-2.44.29,1.78,1.78,0,0,0-.54,2.21,1.68,1.68,0,0,0,2.4.44,2.68,2.68,0,0,1-2,3.8c-1.9.41-5.4-.31-4.38-5.51a8.73,8.73,0,0,1,2.39-3.88c1.95-2,4-3.12,6.05-5.08,1.76-1.7,3.83-4.36,3.62-7.53C177.29,463.06,177.34,463.62,169.59,469Z"></path><path class="cls-3" d="M186.58,470.3c2.94,2.8,5.76,6.12,5.61,9.95-.1,2.81-.61,4.8-3,6.25a7.43,7.43,0,0,1-7.66.22,5.64,5.64,0,0,1-2.87-5.44c.14-1.86,1.11-3.91,3.22-4.35a2.65,2.65,0,0,1,2.36.66,1.78,1.78,0,0,1,.2,2.27,1.69,1.69,0,0,1-2.44.06,2.68,2.68,0,0,0,1.36,4.06c1.82.69,5.38.53,5.18-4.77a8.87,8.87,0,0,0-1.77-4.21c-1.61-2.31-3.49-3.7-5.19-5.94-1.49-2-3.12-4.9-2.43-8C179.89,463.26,179.74,463.8,186.58,470.3Z"></path><path class="cls-3" d="M176.63,468.09s-3.73,2.78-4.21,4.56,1.8,3.09,3.06,0A11.57,11.57,0,0,0,176.63,468.09Z"></path><path class="cls-3" d="M179.66,468.33s3.26,3.31,3.46,5.15-2.25,2.77-3-.47A11.41,11.41,0,0,1,179.66,468.33Z"></path><path class="cls-3" d="M179,473.15c-.06.78-.52,1.44-1.3,1.38s-1.12-.89-1.06-1.67a31.35,31.35,0,0,1,1.52-4.2A33.87,33.87,0,0,1,179,473.15Z"></path><path class="cls-3" d="M178.16,491.19c-.09,1.17-.78,2.16-1.94,2.07s-1.69-1.34-1.6-2.51,2.2-5.28,2.2-5.28S178.25,490,178.16,491.19Z"></path><path class="cls-3" d="M173.34,491.47a1.54,1.54,0,0,1-2,1.09,1.67,1.67,0,0,1-.6-2.3,23.68,23.68,0,0,1,3-3.49A25.92,25.92,0,0,1,173.34,491.47Z"></path><path class="cls-3" d="M169.76,490.45a1,1,0,0,1-1.48.3,1.11,1.11,0,0,1,.07-1.57,15.66,15.66,0,0,1,2.58-1.62A17.54,17.54,0,0,1,169.76,490.45Z"></path><path class="cls-3" d="M179.39,491.93c.21.92.88,1.61,1.79,1.39s1.17-1.26.95-2.18a23.09,23.09,0,0,0-2.39-3.9A25.22,25.22,0,0,0,179.39,491.93Z"></path><path class="cls-3" d="M183.08,491.48a1,1,0,0,0,1.42.53,1.12,1.12,0,0,0,.16-1.57,14.91,14.91,0,0,0-2.29-2A16.7,16.7,0,0,0,183.08,491.48Z"></path><path class="cls-3" d="M166.14,518.12c1.41-1.15,2.86-2.1,4.28-3.47,1.77-1.7,3.83-4.36,3.63-7.53-1.08,2.05-1,2.62-8.78,8-.76.53-1.53,1.1-2.26,1.69C164,517.28,165.08,517.72,166.14,518.12Z"></path><path class="cls-3" d="M182.45,521.12a15.59,15.59,0,0,1,.83,1.35l2.06.4c.66.11,1.32.21,2,.28a19.63,19.63,0,0,0-5-6.73c-6.84-6.5-6.7-7-7.44-9.24-.69,3.1.94,6,2.42,8C179,517.42,180.84,518.81,182.45,521.12Z"></path><path class="cls-3" d="M171.17,518.78a11.39,11.39,0,0,0,1.14-4.57s-3.73,2.78-4.21,4.56v0c.87.28,1.75.55,2.63.8A4.55,4.55,0,0,0,171.17,518.78Z"></path><path class="cls-3" d="M177.2,521.2l.25.06a1.38,1.38,0,0,0,1.36-1.67c-.2-1.83-3.46-5.14-3.46-5.14a11.48,11.48,0,0,0,.43,4.68C176.08,520.4,176.64,521,177.2,521.2Z"></path><path class="cls-3" d="M174,520.48a1.57,1.57,0,0,0,.62-1.21,33.63,33.63,0,0,0-.85-4.49,31.54,31.54,0,0,0-1.51,4.2,2,2,0,0,0,.22,1.11Z"></path><path class="cls-3" d="M189.35,491.2c-3.33,2.3-6.63,5.15-7.07,9-.33,2.78-.13,4.83,2,6.63a7.44,7.44,0,0,0,7.53,1.4,5.65,5.65,0,0,0,3.67-4.94c.15-1.86-.49-4-2.51-4.8a2.68,2.68,0,0,0-2.44.3A1.78,1.78,0,0,0,190,501a1.68,1.68,0,0,0,2.4.44,2.67,2.67,0,0,1-2,3.79c-1.9.41-5.4-.3-4.38-5.5a8.85,8.85,0,0,1,2.39-3.89c2-2,4-3.12,6.05-5.08,1.76-1.7,3.83-4.36,3.62-7.52C197.05,485.26,197.11,485.82,189.35,491.2Z"></path><path class="cls-3" d="M203.89,494.14c.28-1.08.54-2.15.79-3.23-5.14-5-5.1-5.65-5.78-7.64-.69,3.09.94,6,2.43,8A33.3,33.3,0,0,0,203.89,494.14Z"></path><path class="cls-3" d="M201.3,503.42a2.36,2.36,0,0,1,.29-1c.32-1.1.64-2.2.95-3.31a2.78,2.78,0,0,0-.91,0c-2.11.45-3.08,2.5-3.22,4.36a5.67,5.67,0,0,0,1.54,4.4Z"></path><path class="cls-3" d="M196.39,490.3s-3.73,2.77-4.21,4.55,1.8,3.09,3.06,0A11.54,11.54,0,0,0,196.39,490.3Z"></path><path class="cls-3" d="M199.42,490.53s3.27,3.32,3.47,5.15-2.26,2.78-3-.46A11.7,11.7,0,0,1,199.42,490.53Z"></path><path class="cls-3" d="M198.72,495.36c-.06.78-.52,1.43-1.3,1.37s-1.12-.89-1.06-1.67a31.13,31.13,0,0,1,1.52-4.19A33.87,33.87,0,0,1,198.72,495.36Z"></path><path class="cls-3" d="M197.92,513.4c-.09,1.17-.77,2.15-1.94,2.06s-1.69-1.34-1.6-2.5,2.2-5.28,2.2-5.28S198,512.23,197.92,513.4Z"></path><path class="cls-3" d="M193.1,513.67a1.55,1.55,0,0,1-2,1.1,1.69,1.69,0,0,1-.6-2.3,23.15,23.15,0,0,1,3-3.49A24.94,24.94,0,0,1,193.1,513.67Z"></path><path class="cls-3" d="M189.52,512.66a1,1,0,0,1-1.48.3,1.12,1.12,0,0,1,.08-1.58,15.24,15.24,0,0,1,2.57-1.62A16.72,16.72,0,0,1,189.52,512.66Z"></path><path class="cls-3" d="M242.53,399c-.31-3.83-3-6.8-5.77-9.23-.69-.61-1.29-1.16-1.84-1.66l-2.21,1.28c1.59,1.86,3.21,3,4.72,5a9.44,9.44,0,0,1,1.94,4c.76,5.23-2.19,5.81-3.77,5.33a2.85,2.85,0,0,1-1.58-3.87,1.26,1.26,0,0,0,2-.35,2,2,0,0,0-.41-2.23,2,2,0,0,0-2-.38,2.91,2.91,0,0,0-1.29,1.06c.26,1.8.49,3.62.62,5.44,0,.48,0,1,.06,1.44,0,.28.07.56.1.84a5,5,0,0,0,1.31,1,5.4,5.4,0,0,0,6.34-1.1C242.55,403.81,242.75,401.77,242.53,399Z"></path><path class="cls-3" d="M231.68,393.19c1,3.12,2.93,1.9,2.56.11a9.43,9.43,0,0,0-2.2-3.43c-.22.12-.43.25-.63.38.05,1,.15,1.94.26,2.91Z"></path><path class="cls-3" d="M235.38,411a18,18,0,0,0-2.07-3.15c.19,1.76.36,3.52.53,5.28a.91.91,0,0,0,1,.14C235.57,412.91,235.66,411.84,235.38,411Z"></path><path class="cls-3" d="M236.21,411.18c.32.5.82.74,1.23.36a1.26,1.26,0,0,0,0-1.58,13,13,0,0,0-2.12-1.72A18.67,18.67,0,0,0,236.21,411.18Z"></path><path class="cls-3" d="M224,440.35c-2.51,2.68-4.93,5.89-4.88,9.73,0,2.8.43,4.81,2.41,6.35a5.4,5.4,0,0,0,6.41.51,5.83,5.83,0,0,0,2.51-5.32c-.09-1.87-.87-3.95-2.62-4.48a2,2,0,0,0-2,.58,2,2,0,0,0-.2,2.25,1.26,1.26,0,0,0,2,.16,2.85,2.85,0,0,1-1.21,4c-1.54.63-4.52.32-4.25-5a9.43,9.43,0,0,1,1.55-4.13c1.39-2.25,3-3.57,4.46-5.75,1.28-1.89,2.7-4.77,2.18-7.89C229.76,433.56,229.87,434.11,224,440.35Z"></path><path class="cls-3" d="M238.28,439.68c2.75,2.44,5.46,5.41,5.76,9.24.23,2.79,0,4.83-1.81,6.55a5.4,5.4,0,0,1-6.33,1.1,5.83,5.83,0,0,1-3-5.06c-.09-1.87.49-4,2.19-4.7a2,2,0,0,1,2,.38,2,2,0,0,1,.41,2.23,1.26,1.26,0,0,1-2,.35,2.84,2.84,0,0,0,1.57,3.86c1.59.49,4.53-.09,3.77-5.33a9.33,9.33,0,0,0-1.93-4c-1.59-2.11-3.3-3.27-5-5.3-1.45-1.77-3.13-4.51-2.9-7.66C231.94,433.46,231.88,434,238.28,439.68Z"></path><path class="cls-3" d="M229.77,438.64s-2.79,3.19-3,5,1.84,2.86,2.55-.34A13.62,13.62,0,0,0,229.77,438.64Z"></path><path class="cls-3" d="M232.32,438.52s3.07,2.92,3.44,4.71-1.56,3-2.56-.1A13.65,13.65,0,0,1,232.32,438.52Z"></path><path class="cls-3" d="M232.27,443.4c0,.78-.27,1.48-.92,1.51s-1-.75-1.07-1.53a35.66,35.66,0,0,1,.79-4.34A39.86,39.86,0,0,1,232.27,443.4Z"></path><path class="cls-3" d="M233.61,461.4c0,1.17-.41,2.23-1.39,2.28s-1.55-1.14-1.6-2.31a32.69,32.69,0,0,1,1.24-5.49A37,37,0,0,1,233.61,461.4Z"></path><path class="cls-3" d="M229.63,462.23c-.19.91-.76,1.57-1.52,1.32s-1-1.31-.76-2.21a24.15,24.15,0,0,1,2.07-3.81A30.17,30.17,0,0,1,229.63,462.23Z"></path><path class="cls-3" d="M226.55,461.64c-.28.52-.75.81-1.2.47a1.26,1.26,0,0,1-.11-1.57,13.26,13.26,0,0,1,2-1.91A20.15,20.15,0,0,1,226.55,461.64Z"></path><path class="cls-3" d="M234.71,462c.28.88.91,1.49,1.64,1.17s.83-1.39.55-2.28a23.74,23.74,0,0,0-2.42-3.6A30.77,30.77,0,0,0,234.71,462Z"></path><path class="cls-3" d="M237.73,461.12c.32.5.82.73,1.23.36a1.26,1.26,0,0,0,0-1.58,13,13,0,0,0-2.12-1.72A18.67,18.67,0,0,0,237.73,461.12Z"></path><path class="cls-3" d="M236.72,415.42c-2.51,2.67-4.93,5.89-4.88,9.72,0,2.81.43,4.82,2.41,6.36a5.4,5.4,0,0,0,6.41.51,5.8,5.8,0,0,0,2.5-5.32c-.08-1.87-.86-3.95-2.62-4.48a2,2,0,0,0-2,.57,2,2,0,0,0-.2,2.26,1.27,1.27,0,0,0,2,.16,2.85,2.85,0,0,1-1.21,4c-1.54.63-4.52.32-4.25-5a9.43,9.43,0,0,1,1.55-4.13c1.39-2.25,3-3.57,4.46-5.75,1.28-1.89,2.7-4.77,2.17-7.89C242.45,408.63,242.56,409.18,236.72,415.42Z"></path><path class="cls-3" d="M251,414.75c2.75,2.43,5.46,5.41,5.76,9.23.23,2.8,0,4.84-1.81,6.55a5.4,5.4,0,0,1-6.33,1.11,5.83,5.83,0,0,1-3-5.07c-.09-1.86.49-4,2.19-4.7a2,2,0,0,1,2,.39,2,2,0,0,1,.41,2.23,1.25,1.25,0,0,1-2,.34,2.85,2.85,0,0,0,1.57,3.87c1.59.48,4.53-.1,3.77-5.33a9.33,9.33,0,0,0-1.93-4c-1.59-2.11-3.31-3.27-5-5.31-1.45-1.76-3.13-4.5-2.9-7.65C244.63,408.53,244.57,409.09,251,414.75Z"></path><path class="cls-3" d="M242.46,413.71s-2.79,3.19-3,5,1.84,2.86,2.55-.34A13.62,13.62,0,0,0,242.46,413.71Z"></path><path class="cls-3" d="M245,413.59s3.07,2.92,3.44,4.71-1.56,3-2.56-.1A13.65,13.65,0,0,1,245,413.59Z"></path><path class="cls-3" d="M245,418.47c0,.78-.27,1.48-.93,1.51s-1-.75-1.06-1.54a35.66,35.66,0,0,1,.79-4.34A39.5,39.5,0,0,1,245,418.47Z"></path><path class="cls-3" d="M246.3,436.47c0,1.17-.41,2.23-1.39,2.27s-1.55-1.13-1.6-2.3a32.69,32.69,0,0,1,1.24-5.49A37,37,0,0,1,246.3,436.47Z"></path><path class="cls-3" d="M242.32,437.3c-.19.9-.76,1.57-1.52,1.32s-1-1.31-.76-2.21a23.7,23.7,0,0,1,2.07-3.81A30.17,30.17,0,0,1,242.32,437.3Z"></path><path class="cls-3" d="M239.24,436.71c-.28.52-.75.81-1.2.47a1.28,1.28,0,0,1-.11-1.58,13.62,13.62,0,0,1,2-1.9A20.15,20.15,0,0,1,239.24,436.71Z"></path><path class="cls-3" d="M247.4,437.06c.28.88.91,1.5,1.64,1.18s.83-1.4.55-2.28a23.74,23.74,0,0,0-2.42-3.6A30.6,30.6,0,0,0,247.4,437.06Z"></path><path class="cls-3" d="M250.41,436.19c.33.49.83.73,1.24.35a1.25,1.25,0,0,0,0-1.57,13,13,0,0,0-2.12-1.72A19.9,19.9,0,0,0,250.41,436.19Z"></path><path class="cls-3" d="M257.43,447.71a1.33,1.33,0,0,0,1.68.42c-.06-1.12-.12-2.25-.17-3.38a2,2,0,0,0-1.39.69A2,2,0,0,0,257.43,447.71Z"></path><path class="cls-3" d="M259.32,451.11a2.34,2.34,0,0,1-.91.72c-1.51.69-4.5.49-4.43-4.79a9.4,9.4,0,0,1,1.4-4.19,34.17,34.17,0,0,1,3-4.09c-.09-1.21-.22-2.41-.34-3.62-.68.83-1.52,1.82-2.56,3-2.4,2.77-4.7,6.07-4.51,9.9.14,2.8.6,4.8,2.64,6.26a5.42,5.42,0,0,0,6.16.43C259.57,453.53,259.43,452.32,259.32,451.11Z"></path><path class="cls-3" d="M260.55,461.12l0-.19a13.88,13.88,0,0,0-.24-2.95c0-.21-.07-.41-.11-.62a7.67,7.67,0,0,0-.69,1.64c-.17.91.07,2,.84,2.19l.16,0S260.54,461.15,260.55,461.12Z"></path><path class="cls-3" d="M258.75,459.34c-.26.53-.72.83-1.18.51a1.29,1.29,0,0,1-.17-1.57,13.74,13.74,0,0,1,1.89-2A19.32,19.32,0,0,1,258.75,459.34Z"></path><path class="cls-3" d="M230,477.8c.14.45.3.89.45,1.33a8.68,8.68,0,0,0,.18-3.57,11.53,11.53,0,0,1-.71,2C229.93,477.64,230,477.72,230,477.8Z"></path><path class="cls-3" d="M244.23,493.07c-.31-3.82-3-6.8-5.76-9.23-6.4-5.66-6.34-6.22-7.21-8.31-.22,3.15,1.46,5.89,2.9,7.65,1.67,2,3.38,3.2,5,5.31a9.57,9.57,0,0,1,1.93,4c.76,5.23-2.18,5.81-3.77,5.33a2.84,2.84,0,0,1-1.58-3.86,1.27,1.27,0,0,0,2-.35,2,2,0,0,0-.41-2.23,2,2,0,0,0-2-.39,3,3,0,0,0-.84.55c.56,2.18,1.08,4.36,1.61,6.54l.72,3a5.47,5.47,0,0,0,5.64-1.39C244.25,497.91,244.45,495.87,244.23,493.07Z"></path><path class="cls-3" d="M236,487.39c-.37-1.79-3.45-4.71-3.45-4.71a13.65,13.65,0,0,0,.88,4.61C234.38,490.41,236.32,489.19,236,487.39Z"></path><path class="cls-3" d="M239.11,504.06a11.59,11.59,0,0,0-2-1.63c.16.67.31,1.34.46,2a4.85,4.85,0,0,0,.34.84c.32.49.82.73,1.23.35A1.26,1.26,0,0,0,239.11,504.06Z"></path><path class="cls-3" d="M242.38,463.39c-2.51,2.68-4.93,5.89-4.88,9.73,0,2.8.43,4.81,2.41,6.35a5.39,5.39,0,0,0,6.41.51,5.8,5.8,0,0,0,2.5-5.32c-.08-1.86-.86-4-2.62-4.47a2,2,0,0,0-2,.57A2,2,0,0,0,244,473a1.26,1.26,0,0,0,2,.15,2.85,2.85,0,0,1-1.21,4c-1.54.63-4.52.33-4.25-4.95a9.42,9.42,0,0,1,1.55-4.14c1.39-2.25,3-3.57,4.46-5.74,1.28-1.9,2.7-4.78,2.17-7.9C248.11,456.61,248.22,457.16,242.38,463.39Z"></path><path class="cls-3" d="M256.63,462.73c2.75,2.43,5.46,5.4,5.76,9.23.23,2.79,0,4.83-1.81,6.55a5.38,5.38,0,0,1-6.33,1.1,5.81,5.81,0,0,1-3-5.06c-.09-1.87.49-4,2.19-4.7a2,2,0,0,1,2,.38,2,2,0,0,1,.41,2.23,1.26,1.26,0,0,1-2,.35,2.85,2.85,0,0,0,1.57,3.87c1.59.48,4.53-.1,3.77-5.33a9.31,9.31,0,0,0-1.93-4c-1.59-2.11-3.31-3.27-5-5.3-1.45-1.77-3.13-4.5-2.9-7.66C250.29,456.5,250.23,457.06,256.63,462.73Z"></path><path class="cls-3" d="M248.12,461.68s-2.79,3.19-3,5,1.84,2.85,2.55-.35A13.62,13.62,0,0,0,248.12,461.68Z"></path><path class="cls-3" d="M250.67,461.57s3.07,2.91,3.44,4.71-1.56,3-2.56-.11A13.62,13.62,0,0,1,250.67,461.57Z"></path><path class="cls-3" d="M250.62,466.44c0,.78-.27,1.48-.93,1.51s-1-.75-1.06-1.53a35.66,35.66,0,0,1,.79-4.34A39.86,39.86,0,0,1,250.62,466.44Z"></path><path class="cls-3" d="M252,484.45c0,1.17-.41,2.22-1.39,2.27s-1.55-1.13-1.6-2.31a32.69,32.69,0,0,1,1.24-5.49A36.77,36.77,0,0,1,252,484.45Z"></path><path class="cls-3" d="M248,485.27c-.19.91-.76,1.58-1.52,1.32s-1-1.3-.76-2.21a24.15,24.15,0,0,1,2.07-3.81A30.17,30.17,0,0,1,248,485.27Z"></path><path class="cls-3" d="M244.9,484.68c-.28.53-.75.81-1.2.47a1.26,1.26,0,0,1-.11-1.57,13.26,13.26,0,0,1,2-1.91A20.15,20.15,0,0,1,244.9,484.68Z"></path><path class="cls-3" d="M253.06,485c.28.88.91,1.49,1.64,1.17s.83-1.39.55-2.27a23.23,23.23,0,0,0-2.42-3.6A30.6,30.6,0,0,0,253.06,485Z"></path><path class="cls-3" d="M256.07,484.16c.33.5.83.74,1.24.36a1.26,1.26,0,0,0,0-1.58,13,13,0,0,0-2.12-1.72A19.54,19.54,0,0,0,256.07,484.16Z"></path><path class="cls-3" d="M262.05,493.94a1.3,1.3,0,0,0,1.24.59v-.28c0-.62,0-1.24-.07-1.86,0-.28,0-.57-.07-.86,0,0,0-.23,0-.39a1.88,1.88,0,0,0-1.06,2.8Z"></path><path class="cls-3" d="M263.19,497.92a1.87,1.87,0,0,1-.31.17c-1.54.63-4.52.33-4.25-4.95a9.42,9.42,0,0,1,1.55-4.14,27.22,27.22,0,0,1,2.68-3.46c0-1.29-.09-2.58,0-3.86-.67.75-1.46,1.61-2.42,2.63-2.51,2.68-4.93,5.89-4.88,9.73,0,2.8.43,4.81,2.41,6.35a5.54,5.54,0,0,0,5,1.12C263.05,500.31,263.13,499.12,263.19,497.92Z"></path><path class="cls-3" d="M262.94,505.6c-.28.53-.75.81-1.2.47a1.28,1.28,0,0,1-.11-1.57,13.8,13.8,0,0,1,2-1.91A19,19,0,0,1,262.94,505.6Z"></path><path class="cls-4" d="M239.79,523a198.92,198.92,0,0,0-17.12-60.09c-9.1,19.49-17.95,32.24-25.57,63.44,1.21,0,2.39,0,3.53-.06A89.46,89.46,0,0,0,222,522s6,2.75,16.09,1.33C238.66,523.22,239.22,523.12,239.79,523Z"></path><path class="cls-5 color-shirt" d="M234.74,517.73a188.84,188.84,0,0,0-12.07-46.08c-6.29,15-16,39-17.8,48.65a13.34,13.34,0,0,0,1.91,0,60.84,60.84,0,0,0,15.09-3.31,39.28,39.28,0,0,0,7.31,1.41A16.26,16.26,0,0,0,234.74,517.73Z"></path><path class="cls-3" d="M222.48,516.64c-.38.5-2.33-.45-3.25-.42a21.58,21.58,0,0,1-4.66-.72,16.4,16.4,0,0,1-6.4-2.78c.87-1.61,2.76-2.48,3.26-2.07a13.92,13.92,0,0,0,5.47,2.74,14.24,14.24,0,0,1,4.3,1.49A4.59,4.59,0,0,1,222.48,516.64Z"></path><path class="cls-3" d="M222.46,511.51c-.44.46-2-.62-2.86-.67a17.68,17.68,0,0,1-4-1.09,12.74,12.74,0,0,1-5.25-3.23c1-1.5,2.76-2.22,3.16-1.77a11.86,11.86,0,0,0,4.52,3.14,11.18,11.18,0,0,1,3.61,1.82A4.34,4.34,0,0,1,222.46,511.51Z"></path><path class="cls-3" d="M222.71,506.57c-.48.39-1.82-.71-2.6-.79a13.73,13.73,0,0,1-3.7-1.21,9.09,9.09,0,0,1-4.45-3.81c1.24-1.27,2.94-1.74,3.22-1.27a8.23,8.23,0,0,0,3.71,3.36c1.27.63,2.51,1,3.24,1.91A3.44,3.44,0,0,1,222.71,506.57Z"></path><path class="cls-3" d="M222.56,500.21c-.47.42-1.5-.47-2.15-.48a8.51,8.51,0,0,1-2.94-.81,5.71,5.71,0,0,1-3.3-3.25c1.14-1.29,2.57-1.89,2.77-1.46a5.39,5.39,0,0,0,2.79,2.88,6.26,6.26,0,0,1,2.55,1.53A2.94,2.94,0,0,1,222.56,500.21Z"></path><path class="cls-3" d="M221.86,494.11c-.53.32-1.12-.48-1.65-.51a5,5,0,0,1-2.11-.77,3.34,3.34,0,0,1-1.67-3.11c1.33-1.05,2.6-1.53,2.62-1.14a3.1,3.1,0,0,0,1.42,2.7c.69.47,1.46.8,1.66,1.47C222.28,493,222,493.92,221.86,494.11Z"></path><path class="cls-3" d="M222.44,487.61c-.57.27-.93-.42-1.39-.48a3.87,3.87,0,0,1-1.59-.65,1.36,1.36,0,0,1-.65-.87,3.78,3.78,0,0,1-.13-1.59c1.19-1.19,2.38-1.74,2.38-1.37a2.88,2.88,0,0,0,.87,2.53c.49.46,1.08.77,1.09,1.32C223.08,486.74,222.57,487.46,222.44,487.61Z"></path><path class="cls-3" d="M222.22,516.59c-.19-.61,1.41-1.39,1.86-2a9.23,9.23,0,0,1,3.24-2.53,7.23,7.23,0,0,1,3.34-.89,5.43,5.43,0,0,1,2.93.75c-.57,1.7-1.42,3-1.85,2.81a4.84,4.84,0,0,0-4.54.35c-1.18.67-2.07,1.53-3.13,1.77A4,4,0,0,1,222.22,516.59Z"></path><path class="cls-3" d="M222.24,511.46c-.27-.57,1-1.45,1.34-2.1a7.74,7.74,0,0,1,2.5-2.78,6,6,0,0,1,3-1.19,4.74,4.74,0,0,1,2.73.49c-.28,1.74-.88,3.11-1.28,2.95a3.77,3.77,0,0,0-4,.7c-.94.76-1.6,1.68-2.54,2A3.55,3.55,0,0,1,222.24,511.46Z"></path><path class="cls-3" d="M222,506.52c-.35-.53.8-1.49,1-2.13a7,7,0,0,1,2.13-2.76,5.36,5.36,0,0,1,5.08-1.28c.14,1.74-.17,3.19-.6,3.1a4,4,0,0,0-3.79,1c-.84.77-1.38,1.65-2.21,2A3.56,3.56,0,0,1,222,506.52Z"></path><path class="cls-3" d="M222.13,500.17c-.36-.52.62-1.33.8-1.91a5.25,5.25,0,0,1,1.82-2.4,4.2,4.2,0,0,1,4.35-.75c.28,1.7.05,3.1-.34,3a3.11,3.11,0,0,0-3.3.58c-.71.62-1.13,1.38-1.84,1.62A3.33,3.33,0,0,1,222.13,500.17Z"></path><path class="cls-3" d="M222.82,494.07c-.47-.42.24-1.29.27-1.86a4.34,4.34,0,0,1,1.13-2.44,3.51,3.51,0,0,1,3.65-1.25c.74,1.53.87,2.91.49,2.85a2.69,2.69,0,0,0-2.86.95c-.51.65-.7,1.39-1.29,1.68A3.45,3.45,0,0,1,222.82,494.07Z"></path><path class="cls-3" d="M223.75,487.35c-.53-.33-.15-1-.3-1.39a2.38,2.38,0,0,1,.33-2c.52-.94,1.39-1,2.6-.76,1.06,1.28,1.55,2.47,1.21,2.4-1.36-.26-1.87.08-2.07.54s-.12,1-.56,1.23A3.08,3.08,0,0,1,223.75,487.35Z"></path><path class="cls-6" d="M227.91,441.69c6.45.9,6.61-7.93,1.93-9.05s-7.45,5.34-7.45,5.34a9.59,9.59,0,0,0-4-4.54c-1.29-.76-6.17-1.34-7.28,3.45-1.22,5.3,5.12,6.52,5.95,5.27,0,0-2.1,17.25,5.28,18C222.29,460.21,228.94,461.32,227.91,441.69Z"></path><path d="M216.05,437.06c0-.14.31-.2.62-.11a3.82,3.82,0,0,1,.83.36,2.71,2.71,0,0,1,1.39,1.86,3,3,0,0,1-.08,1.89,1.92,1.92,0,0,1-1.15,1.18c-.38-.84-.88-1.3-.7-1.43a1.54,1.54,0,0,0,.44-1.94,5.13,5.13,0,0,0-.91-1.11c-.08,0-.13-.21-.22-.35Z"></path><path d="M228.9,436.3c0,.16-.2.31-.44.46s-.48.36-.54.54a3,3,0,0,0-.31,1.51,4.8,4.8,0,0,0,.8,2.19,1.42,1.42,0,0,1-1.11.55c-.4,0-.75-.17-.79-.35a6.36,6.36,0,0,1-.13-3.26,2.46,2.46,0,0,1,1.48-1.79A1.49,1.49,0,0,1,228.9,436.3Z"></path><path class="cls-2 color-shirt" d="M203.69,395.93l-.78.18c-.16,6.74,1.91,14.64,4,21.05s9.91,12.34,16.5,13.8l.15-.17c11.64-4.71,9.66-23.53,9.23-27.8-.49-4.91-1.38-6.66-1.54-11.69h0"></path><path d="M231.31,391.3a9.42,9.42,0,0,1,.52,2.46c.21,1.35.59,3.1,1,5a82,82,0,0,1,1.36,10.9A33.63,33.63,0,0,1,233,422.22a18.12,18.12,0,0,1-3.15,6.08,13.82,13.82,0,0,1-2.54,2.47l-.72.52-.76.46a6.47,6.47,0,0,1-.78.41l-.42.2-.32.15c-.09.1-.15.42-.24.55a31,31,0,0,1-4.19-1.18,27.72,27.72,0,0,1-10.2-6.79,21.18,21.18,0,0,1-3.54-4.95,11.87,11.87,0,0,1-.63-1.41c-.17-.48-.37-1-.48-1.4-.26-.87-.51-1.74-.74-2.6-1.86-6.86-2.69-13.43-2-18.63l.07-.54.42-.07.8-.12a6.91,6.91,0,0,1-.73.42l-.3.15.05.16c.7,2.39,1.6,5.46,2.55,8.29s1.8,5.43,2.06,6.89c.23,1.27.48,2.51.77,3.74.14.6.29,1.24.45,1.8a11.5,11.5,0,0,0,.55,1.59,18.11,18.11,0,0,0,3.87,5.57,24.34,24.34,0,0,0,5.24,4,21,21,0,0,0,2.83,1.37,6.73,6.73,0,0,0,2.5.68l.89-.42.94-.55c.29-.21.59-.41.87-.63s.55-.46.81-.71a13,13,0,0,0,2.48-3.35,22.87,22.87,0,0,0,2.3-7.64,67,67,0,0,0,0-14.36c-.14-1.76-.42-4.17-.56-6.38A29.13,29.13,0,0,1,231.31,391.3Z"></path><g id="default-2" data-name="default"><path class="cls-1 color-body" d="M143.74,456.43c-7.56-1.63-15.08-3.61-22.65-5.26,1.21,15.6,6.3,34.85,17.81,36.41,9.81,1.32,15.09-11.34,18.26-28.78C152.67,458.13,148.19,457.4,143.74,456.43Z" style="fill:#ffffff;--backup-fill:#ffffff"></path><path d="M143.75,456.39c.34-.22,2.11,0,4.61.28l10,1.27c-.23,1.38-.46,2.77-.69,4.12-.19,1-.37,2.05-.55,3l-1,4.89a47.4,47.4,0,0,1-2.61,8.94,21.42,21.42,0,0,1-5.83,8.55,11.67,11.67,0,0,1-5.28,2.6l-1.5.23c-.5,0-1,0-1.49,0a8.93,8.93,0,0,1-1.47-.13,9.84,9.84,0,0,1-1.43-.31,14.66,14.66,0,0,1-5.08-2.56,20.75,20.75,0,0,1-3.73-3.77,33.35,33.35,0,0,1-4.25-7.45,55.44,55.44,0,0,1-2.58-7.75,74.47,74.47,0,0,1-1.53-7.68c-.18-1.27-.34-2.52-.46-3.77l-.24-2.55c-.1-1-.16-2.17-.24-3.24l-.1-1.62,0-.79,0-.4v-.2s0-.18.05-.12l3.16.77,3.06.78,1.34.36.81.23c2.17.63,4.27,1.26,6.28,1.88,4,1.24,7.72,2.47,11,3.65a60.36,60.36,0,0,1-12.19.23c-2.16-.14-4.23-.37-6-.64l-1.18-.18,0,0s0,0-.07-.08-.26-.21-.35-.13a.28.28,0,0,0-.06.08l0,.21a1.6,1.6,0,0,0,0,.29l0,.76q.14,3,.51,6a55.5,55.5,0,0,0,2.54,11.1,27.8,27.8,0,0,0,5,9.16,10.7,10.7,0,0,0,8.08,4c.18,0,.36,0,.54,0l.53-.09a7.07,7.07,0,0,0,1-.19l1-.35a6.78,6.78,0,0,0,.92-.49,10.19,10.19,0,0,0,1.69-1.24,21.24,21.24,0,0,0,1.43-1.58,29.56,29.56,0,0,0,4-7.54c1-2.62,1.71-5.27,2.41-7.84.32-1.29.65-2.55.94-3.81l.42-1.74c.08-.32.17-.64.25-.95l.14-.58-.87-.25-.52-.17-.41-.11-.5-.13c-1.35-.35-2.72-.74-4-1.14C146.57,457.46,144.46,456.68,143.75,456.39Z"></path></g><path class="cls-2 color-shirt" d="M152.85,371.17c-25.1,4.92-36.49,73.16-38.49,95.45,0,0,21.34,16.3,46.08,5.24,0,0,5.8-43.12,8.89-65.24"></path><path d="M169.39,406.63c1,1.94-3.45,34-4.44,46.43-.44,5.51-.95,11.12-1.55,17-.14,1.23-.28,2.48-.43,3.72a12.9,12.9,0,0,1-1.68.74l-1.75.71-2.25.93a18.9,18.9,0,0,1-2.24.73,33,33,0,0,1-4.6,1.17,34.3,34.3,0,0,1-4.73.67,49.7,49.7,0,0,1-18.88-2.09,60.16,60.16,0,0,1-8.72-3.51c-.69-.36-1.38-.71-2.06-1.09l-1-.58-.52-.3-.84-.56c-.56-.38-1.13-.71-1.69-1.13l-.84-.61-.42-.3a1.75,1.75,0,0,1-.2-.16l0-.26c.09-1.38.19-2.77.29-4.14.48-5.16,1.11-10.07,1.89-15s1.67-9.8,2.69-14.59A214.2,214.2,0,0,1,123.09,407a102.88,102.88,0,0,1,11.48-23.47,41.13,41.13,0,0,1,8.05-8.88,20.23,20.23,0,0,1,10-4.51l-2.18,1.21c-.7.49-1.4,1-2.11,1.54s-1.32,1.22-2,1.86-1.25,1.38-1.82,2.12a51.93,51.93,0,0,0-5.89,10c-3.26,7.06-5.46,14.12-7.09,17.68s-3.07,7.22-4.35,10.85-2.46,7.27-3.51,10.88c-2.09,7.22-3.74,14.35-5.06,21.3-.67,3.48-1.23,6.93-1.73,10.32-.25,1.7-.47,3.39-.67,5.06l-.24,2.13-.08.77c.11.2.39.31.58.47l.68.44,1,.6c.68.42,1.4.78,2.1,1.16,1.42.73,2.86,1.41,4.32,2a45.17,45.17,0,0,0,8.86,2.66,42,42,0,0,0,17.37-.08c1.36-.35,2.7-.75,4-1.12.66-.17,1.28-.49,1.92-.72l1.38-.57.49-.2.06-.52c.05-.49.11-1,.16-1.45.17-1.39.34-2.76.51-4.12,1.34-10.88,2.68-21,4.23-30.43C165,425,168.61,409.63,169.39,406.63Z"></path><path class="cls-3" d="M145.16,382.68c-.73-1-1.35-1.79-1.9-2.53-.46.33-.94.63-1.41.94-.19.29-.36.6-.55.9a51.89,51.89,0,0,1,3.43,5.37,9.15,9.15,0,0,1,1.12,4.41c-.49,5.27-3.89,5-5.52,4a2.73,2.73,0,0,1-.76-4.2,1.56,1.56,0,0,0,2.31.26,1.82,1.82,0,0,0,.11-2.27,2.51,2.51,0,0,0-2.15-1c-2.06.15-3.24,2.06-3.62,3.88a5.81,5.81,0,0,0,2,5.78,6.87,6.87,0,0,0,7.29.82c2.47-1.11,3.21-3,3.67-5.78C149.83,389.52,147.59,385.84,145.16,382.68Z"></path><path class="cls-3" d="M139,385.87c.76,1.67,2.43,1,2.47-.52a5.89,5.89,0,0,0-.73-2.43C140.15,383.9,139.57,384.88,139,385.87Z"></path><path class="cls-3" d="M131.8,399.89l-.61,1.38a.09.09,0,0,0,0,.05c-.24,1.14.09,2.45,1.18,2.69s1.88-.63,2.11-1.78-.53-5.85-.53-5.85S132.62,398.36,131.8,399.89Z"></path><path class="cls-3" d="M136.49,398.53a26.14,26.14,0,0,0-1,4.6c.08.94.63,1.71,1.52,1.62s1.27-1.09,1.18-2A23.68,23.68,0,0,0,136.49,398.53Z"></path><path class="cls-3" d="M138.82,400.08a18,18,0,0,0,.28,3.11c.23.57.72.95,1.27.71a1.15,1.15,0,0,0,.37-1.54A15.81,15.81,0,0,0,138.82,400.08Z"></path><path class="cls-3" d="M145.89,405.25c-3.46,1.83-6.95,4.21-7.87,7.93-.67,2.71-.75,4.77,1,6.84a6.92,6.92,0,0,0,7,2.4,5.55,5.55,0,0,0,4.12-4.38c.37-1.83.05-4.07-1.76-5.1a2.48,2.48,0,0,0-2.35,0,1.82,1.82,0,0,0-.8,2.12,1.58,1.58,0,0,0,2.21.76,2.65,2.65,0,0,1-2.35,3.49c-1.86.15-5.08-1-3.44-6a8.66,8.66,0,0,1,2.76-3.53c2.12-1.76,4.22-2.55,6.4-4.21,1.89-1.45,4.19-3.81,4.41-7C154,400.41,153.94,401,145.89,405.25Z"></path><path class="cls-3" d="M161.83,408.85c2.42,3.16,4.66,6.84,4,10.62-.46,2.76-1.2,4.67-3.66,5.78a6.87,6.87,0,0,1-7.29-.82,5.8,5.8,0,0,1-2-5.78c.38-1.82,1.56-3.72,3.62-3.88a2.52,2.52,0,0,1,2.15,1,1.82,1.82,0,0,1-.11,2.27,1.55,1.55,0,0,1-2.31-.26A2.73,2.73,0,0,0,157,422c1.63.94,5,1.25,5.52-4a9.07,9.07,0,0,0-1.12-4.41c-1.23-2.51-2.83-4.14-4.16-6.6-1.15-2.13-2.31-5.27-1.26-8.25C156.39,401,156.19,401.48,161.83,408.85Z"></path><path class="cls-3" d="M152.68,405.31s-3.9,2.25-4.59,3.94,1.31,3.31,2.91.43A11.94,11.94,0,0,0,152.68,405.31Z"></path><path class="cls-3" d="M155.52,406s2.67,3.73,2.62,5.57-2.5,2.45-2.81-.86A12,12,0,0,1,155.52,406Z"></path><path class="cls-3" d="M154.23,410.64c-.16.76-.68,1.35-1.41,1.19s-.95-1-.79-1.8a31.72,31.72,0,0,1,2-3.95A34.87,34.87,0,0,1,154.23,410.64Z"></path><path class="cls-3" d="M151.14,428.41c-.24,1.14-1,2-2.12,1.78s-1.42-1.56-1.18-2.7,2.76-4.93,2.76-4.93S151.37,427.26,151.14,428.41Z"></path><path class="cls-3" d="M146.53,428c-.45.82-1.25,1.29-2,.82a1.73,1.73,0,0,1-.27-2.36,23.12,23.12,0,0,1,3.26-3.06A26.28,26.28,0,0,1,146.53,428Z"></path><path class="cls-3" d="M143.26,426.53a1,1,0,0,1-1.44.1,1.15,1.15,0,0,1,.28-1.55,14.78,14.78,0,0,1,2.65-1.26A17.09,17.09,0,0,1,143.26,426.53Z"></path><path class="cls-3" d="M152.2,429.31c.09.93.63,1.71,1.52,1.62s1.27-1.1,1.19-2a24.17,24.17,0,0,0-1.76-4.2A26.08,26.08,0,0,0,152.2,429.31Z"></path><path class="cls-3" d="M155.76,429.36c.23.57.73.95,1.27.71s.6-1,.37-1.53a15.45,15.45,0,0,0-1.92-2.29A17.93,17.93,0,0,0,155.76,429.36Z"></path><path class="cls-3" d="M123.65,424.58c-.49,1.46-1,2.92-1.43,4.38,2-1.61,4-2.41,6.13-4,1.89-1.44,4.19-3.8,4.41-7C131.49,419.86,131.44,420.44,123.65,424.58Z"></path><path class="cls-3" d="M125.91,432.41a2.46,2.46,0,0,0-2.34,0,1.81,1.81,0,0,0-.8,2.12,1.57,1.57,0,0,0,2.21.75,2.66,2.66,0,0,1-2.35,3.5,4.06,4.06,0,0,1-2.09-.42c-.17.75-.36,1.51-.54,2.27-.09.36-.17.73-.25,1.1a6.56,6.56,0,0,0,3.81.2,5.55,5.55,0,0,0,4.12-4.38C128.05,435.68,127.73,433.44,125.91,432.41Z"></path><path class="cls-3" d="M139.35,428.32c2.42,3.16,4.66,6.84,4,10.62-.46,2.76-1.2,4.67-3.66,5.78a6.87,6.87,0,0,1-7.29-.82,5.8,5.8,0,0,1-2-5.78c.38-1.82,1.56-3.72,3.62-3.88a2.52,2.52,0,0,1,2.15,1,1.82,1.82,0,0,1-.11,2.27,1.55,1.55,0,0,1-2.31-.26,2.73,2.73,0,0,0,.76,4.2c1.63.94,5,1.25,5.52-4a9.07,9.07,0,0,0-1.12-4.41c-1.23-2.51-2.83-4.14-4.16-6.6-1.15-2.13-2.32-5.27-1.26-8.25C133.91,420.43,133.71,421,139.35,428.32Z"></path><path class="cls-3" d="M130.2,424.78s-3.9,2.24-4.59,3.94,1.31,3.31,2.91.43A11.94,11.94,0,0,0,130.2,424.78Z"></path><path class="cls-3" d="M133,425.42s2.66,3.73,2.62,5.57-2.5,2.45-2.82-.86A12,12,0,0,1,133,425.42Z"></path><path class="cls-3" d="M131.75,430.11c-.16.76-.68,1.35-1.41,1.19s-1-1-.79-1.8a31.72,31.72,0,0,1,2-3.95A34.87,34.87,0,0,1,131.75,430.11Z"></path><path class="cls-3" d="M128.66,447.88c-.24,1.14-1,2-2.12,1.78s-1.42-1.56-1.18-2.7,2.76-4.94,2.76-4.94S128.89,446.73,128.66,447.88Z"></path><path class="cls-3" d="M124.05,447.49c-.45.82-1.25,1.29-2,.82a1.72,1.72,0,0,1-.27-2.36,23.12,23.12,0,0,1,3.26-3.06A26.28,26.28,0,0,1,124.05,447.49Z"></path><path class="cls-3" d="M120.78,446a1,1,0,0,1-1.44.1,1.15,1.15,0,0,1,.28-1.55,14.78,14.78,0,0,1,2.65-1.26A17.09,17.09,0,0,1,120.78,446Z"></path><path class="cls-3" d="M129.72,448.77c.09.94.63,1.72,1.52,1.63s1.27-1.1,1.18-2a23.52,23.52,0,0,0-1.75-4.2A26.14,26.14,0,0,0,129.72,448.77Z"></path><path class="cls-3" d="M133.28,448.83c.23.57.72.95,1.27.71s.6-1,.37-1.53a15.45,15.45,0,0,0-1.92-2.29A17.93,17.93,0,0,0,133.28,448.83Z"></path><path class="cls-3" d="M143.66,460.93a4.13,4.13,0,0,0-1.89-3.84,2.45,2.45,0,0,0-2.35,0,1.81,1.81,0,0,0-.8,2.12,1.57,1.57,0,0,0,2.21.75,3,3,0,0,1,.13.71C141.85,460.75,142.76,460.85,143.66,460.93Z"></path><path class="cls-3" d="M134.61,459.5a8.36,8.36,0,0,1,.43-2.13,8.58,8.58,0,0,1,2.77-3.52c2.11-1.76,4.21-2.55,6.39-4.22,1.89-1.44,4.2-3.8,4.41-7-1.28,1.89-1.3,2.45-9.35,6.72-3.46,1.84-6.95,4.22-7.87,7.93-.11.48-.21.93-.28,1.37C132.27,459,133.44,459.25,134.61,459.5Z"></path><path class="cls-3" d="M147.16,461.16a42.73,42.73,0,0,0,5.19-.2,1.66,1.66,0,0,0-.32-1.06,2.55,2.55,0,0,0-2.16-1,3.76,3.76,0,0,0-3,2.22Z"></path><path class="cls-3" d="M154.76,457.68a12.42,12.42,0,0,1,1,2.88l3.28-.44A20.42,20.42,0,0,0,155.2,453c-5.64-7.37-5.43-7.89-5.86-10.17-1.05,3,.11,6.12,1.27,8.25C151.93,453.54,153.53,455.17,154.76,457.68Z"></path><path class="cls-3" d="M146.05,449.46s-3.9,2.24-4.58,3.94,1.31,3.31,2.9.43A11.94,11.94,0,0,0,146.05,449.46Z"></path><path class="cls-3" d="M148.9,450.1s2.66,3.73,2.61,5.57-2.5,2.45-2.81-.86A12,12,0,0,1,148.9,450.1Z"></path><path class="cls-3" d="M147.6,454.79c-.15.76-.67,1.35-1.4,1.19s-.95-1-.79-1.8a30.62,30.62,0,0,1,2-4A35.32,35.32,0,0,1,147.6,454.79Z"></path><path class="cls-3" d="M207.94,393.48c-.66-.09-2.37-4.93-3.35-6.68-.6-1.06-1.17-2.19-1.71-3.36a6.58,6.58,0,0,1-.39-1.16,5.11,5.11,0,0,1-.07-1.71,3.06,3.06,0,0,1,2-2.53,3.58,3.58,0,0,1,3,.36,6.45,6.45,0,0,1,.69.47c.18.15.31.26.45.4a9.25,9.25,0,0,1,.71.75,23.52,23.52,0,0,1,4.76,8.4,16.46,16.46,0,0,1,.66,7.87,27.16,27.16,0,0,1-2.33-3.21,8.54,8.54,0,0,1-1.31-2.66,17.54,17.54,0,0,0-2.2-6.51,20.4,20.4,0,0,0-1.8-2.59,3.72,3.72,0,0,0-.48-.49,2.37,2.37,0,0,0-.39-.28,1.1,1.1,0,0,0-.88-.11.81.81,0,0,0-.54.63,1.79,1.79,0,0,0,0,.83,24.65,24.65,0,0,0,.93,2.43,41.71,41.71,0,0,1,1.63,4.68A20.81,20.81,0,0,1,207.94,393.48Z"></path><path class="cls-3" d="M198.91,390.64c-.32,0-1-1.07-1.69-2.39s-1.34-2.88-1.79-3.72a21.16,21.16,0,0,1-1.11-2.35c-.16-.42-.33-.81-.48-1.34a5.39,5.39,0,0,1-.16-.87,3.61,3.61,0,0,1,.07-1.18,3.17,3.17,0,0,1,1.35-1.93,4,4,0,0,1,2.23-.62,5.83,5.83,0,0,1,1.84.33,5.23,5.23,0,0,1,.84.37,7.1,7.1,0,0,1,.7.41,9.78,9.78,0,0,1,3.33,4,24.55,24.55,0,0,1,1.42,4.14,41.56,41.56,0,0,1,1.31,7c-2.05-1.1-4.2-3.87-4.34-5.08a16.27,16.27,0,0,0-1.67-6.28,5.79,5.79,0,0,0-1.9-2,2.89,2.89,0,0,0-2.15-.42,1,1,0,0,0-.6.5,1.24,1.24,0,0,0-.06.77,20.75,20.75,0,0,0,.69,2.24c.51,1.51,1,2.9,1.42,4.24A28.58,28.58,0,0,1,198.91,390.64Z"></path><path class="cls-3" d="M191.28,389.83c-.31.05-1.15-.95-1.88-2.26a32.9,32.9,0,0,1-1.73-3.83,13.6,13.6,0,0,1-.83-2.55,7.81,7.81,0,0,1-.16-3.11,4.46,4.46,0,0,1,.77-1.84,4,4,0,0,1,1.73-1.35A5.13,5.13,0,0,1,193,375a5.64,5.64,0,0,1,2.45,1.94,8.65,8.65,0,0,1,1.21,2.41c.26.77.42,1.45.59,2.12s.32,1.34.46,2a41.44,41.44,0,0,1,1,7c-2-1.2-4-4.06-4.08-5.27s-.22-2.39-.39-3.51a9.24,9.24,0,0,0-.78-2.91,3.09,3.09,0,0,0-1.84-1.61,2.07,2.07,0,0,0-2,.3,2.49,2.49,0,0,0-.63,1.87,12.34,12.34,0,0,0,.28,2.3c.29,1.51.71,2.88,1.09,4.17S191.14,389.35,191.28,389.83Z"></path><path class="cls-3" d="M184.58,387.85c-.3.07-1.15-.8-1.9-2a27.77,27.77,0,0,1-1.75-3.53,11.8,11.8,0,0,1-.82-2.39c-.09-.43-.17-.87-.22-1.31a5.88,5.88,0,0,1,0-1.57,4.89,4.89,0,0,1,.22-.9,3.83,3.83,0,0,1,.55-1,3.37,3.37,0,0,1,1.92-1.2,3.68,3.68,0,0,1,1.14-.08,4.67,4.67,0,0,1,1,.2,4.57,4.57,0,0,1,1.65,1A7.83,7.83,0,0,1,188,377.1c.35.62.68,1.25,1,1.89a22.54,22.54,0,0,1,1.4,3.81,18.41,18.41,0,0,1,.65,6.75c-1.77-1.38-3.59-3.87-3.7-4.92a17.67,17.67,0,0,0-1.54-5.91,5,5,0,0,0-1.39-2.06,1.88,1.88,0,0,0-.92-.34,1,1,0,0,0-.75.22,1.09,1.09,0,0,0-.39.64,3.09,3.09,0,0,0-.09,1,15.43,15.43,0,0,0,.29,2.15,32.45,32.45,0,0,0,1.07,3.83c.2.55.38,1.36.58,2.09Z"></path><path class="cls-3" d="M178.2,386.63c-.28.12-1.16-.62-1.94-1.65s-1.52-2.32-2-3a9.85,9.85,0,0,1-1.07-2.1,6.26,6.26,0,0,1-.44-2.75,3.72,3.72,0,0,1,.15-.84,3.83,3.83,0,0,1,.42-.95,3.36,3.36,0,0,1,1.61-1.32,3.62,3.62,0,0,1,2.08-.16,4.49,4.49,0,0,1,1.66.69,7.36,7.36,0,0,1,1.73,1.7,16.53,16.53,0,0,1,1.16,1.66,19.08,19.08,0,0,1,1.61,3.45,21.2,21.2,0,0,1,1.19,6.08c-2-.89-4-3.1-4.11-4.06a13.41,13.41,0,0,0-1.83-5.25,4.53,4.53,0,0,0-1.51-1.69,1.21,1.21,0,0,0-1.47.1,1.16,1.16,0,0,0-.3.63,2.92,2.92,0,0,0,0,.89,8.6,8.6,0,0,0,.47,1.86c.43,1.21,1,2.32,1.42,3.38a19.88,19.88,0,0,1,.69,1.89Z"></path><path class="cls-3" d="M171.39,384.74c-.29.11-1.06-.56-1.77-1.5a31.89,31.89,0,0,1-1.76-2.8,10.28,10.28,0,0,1-.94-1.91,5.58,5.58,0,0,1-.3-1.22,4.32,4.32,0,0,1,0-.73,3.55,3.55,0,0,1,.16-.9,3.34,3.34,0,0,1,2.78-2.29,4.61,4.61,0,0,1,3.1.67,6.1,6.1,0,0,1,1.71,1.63,14.48,14.48,0,0,1,1,1.59,19.49,19.49,0,0,1,1.36,3.1,15.24,15.24,0,0,1,.85,5.63c-1.84-.93-3.7-2.79-3.81-3.68a14,14,0,0,0-1.45-4.87A3.33,3.33,0,0,0,171,376a1.76,1.76,0,0,0-1.51-.08,1,1,0,0,0-.52,1,6.32,6.32,0,0,0,.37,1.62c.36,1.11.79,2.1,1.16,3.06S171.26,384.35,171.39,384.74Z"></path><path class="cls-3" d="M165,382.69c-.28.11-.92-.5-1.48-1.36a22.68,22.68,0,0,1-1.32-2.55,7.79,7.79,0,0,1-.66-1.77,4.7,4.7,0,0,1-.14-1.11,3.84,3.84,0,0,1,.32-1.52,3,3,0,0,1,2.45-1.77,4.12,4.12,0,0,1,3,.88,5.16,5.16,0,0,1,1.35,1.69,12.35,12.35,0,0,1,.63,1.46c.33.89.62,1.77.85,2.63a19.3,19.3,0,0,1,.72,4.72c-1.88-.47-3.72-2.1-3.77-2.93a18.49,18.49,0,0,0-.76-4.47,2.5,2.5,0,0,0-.86-1.32,1.17,1.17,0,0,0-1.12-.13.91.91,0,0,0-.5.83,7.76,7.76,0,0,0,.16,1.31c.19,1,.46,1.82.68,2.66S164.92,382.33,165,382.69Z"></path><path class="cls-3" d="M158.18,376.69c-.28.09-.52-.12-.65-.46a7.46,7.46,0,0,1-.18-1,1.9,1.9,0,0,1,.33-1.51,3,3,0,0,1,1.39-1,2.51,2.51,0,0,1,2.55.47,1.8,1.8,0,0,1,.55,2,4.87,4.87,0,0,0-1.74.74c-.33.28-.43.48-.37.35a.82.82,0,0,0-.15-1,.4.4,0,0,0-.55.07.77.77,0,0,0-.15.48c0,.15,0,.23-.14.3s-.24.1-.44.23A2.12,2.12,0,0,0,158.18,376.69Z"></path><path class="cls-3" d="M222.58,388.85c-.61-.27-.29-4.29-.65-5.82a1.73,1.73,0,0,0-.39-.81.32.32,0,0,0-.32-.15.45.45,0,0,0-.32.32.59.59,0,0,0,0,.32c0,.05,0,.07,0,.12-.13.5-.29,1.07-.41,1.59-.26,1.07-.47,2.13-.64,3.16-.36,2.05-.54,4-.75,5.64a6.39,6.39,0,0,1-2.38-2.53,4.07,4.07,0,0,1-.61-2.62c.65-2.17,1.29-4.05,1.95-5.79a21,21,0,0,1,1.32-3.08,4.63,4.63,0,0,1,.78-1.11,2.24,2.24,0,0,1,1.12-.66,1.7,1.7,0,0,1,1.29.19,2.19,2.19,0,0,1,.77.84,6,6,0,0,1,.62,2.46,19.08,19.08,0,0,1-.12,4.52A12.19,12.19,0,0,1,222.58,388.85Z"></path><path class="cls-3" d="M228.16,385.69c-.3-.13-.37-1.21-.46-2.44a19.6,19.6,0,0,0-.41-3.39l-.27-1-.06-.26,0-.12,0-.05-.09-.15c-.13-.18-.2-.27-.32-.28a.3.3,0,0,0-.31.22.41.41,0,0,0,0,.26s0,0,0,0,0,0,0,.16-.17.5-.24.76c-.15.51-.28,1-.39,1.55a31.1,31.1,0,0,0-.48,3.17c-.23,2.11-.36,4.18-.71,5.87a8,8,0,0,1-2.3-2.61,4.26,4.26,0,0,1-.7-2.56,47.7,47.7,0,0,1,1.73-6c.17-.44.35-.88.55-1.3a13.1,13.1,0,0,1,.8-1.53,3.78,3.78,0,0,1,2.11-2,1.8,1.8,0,0,1,1.34.3,2.62,2.62,0,0,1,.81,1,8.94,8.94,0,0,1,.62,2.89,17.32,17.32,0,0,1,.08,4A10.6,10.6,0,0,1,228.16,385.69Z"></path><path class="cls-3" d="M235.08,383.5c-.63-.2-.74-4.26-1.32-5.71-.23-.64-.47-1.3-.7-2l-.36-1a2.7,2.7,0,0,0-.17-.38l-.09-.06c-.25-.19-.43.1-.35.18a2.56,2.56,0,0,1-.14.46l-.23.8c-.14.54-.28,1.07-.39,1.6q-.35,1.61-.54,3.15c-.26,2.05-.32,4-.39,5.66a6.06,6.06,0,0,1-2.56-2.37,4.18,4.18,0,0,1-.76-2.63,53.39,53.39,0,0,1,1.79-5.92c.15-.44.33-.86.49-1.29.09-.22.16-.4.3-.68a4.66,4.66,0,0,1,.45-.75,2.6,2.6,0,0,1,2.84-1.08,3.51,3.51,0,0,1,2,2.26,18.13,18.13,0,0,1,.62,2.19A15.84,15.84,0,0,1,236,380,12.07,12.07,0,0,1,235.08,383.5Z"></path><path class="cls-3" d="M241.09,380.17c-.3-.15-.32-1-.44-2a8.42,8.42,0,0,0-.64-2.63l-.8-1.48-.42-.72c-.1-.17-.09-.1-.13-.14l-.08,0c-.21-.12-.37.12-.32.21l0,0s0,0,0,0l-.05.16-.11.31c-.15.42-.28.84-.4,1.26-.24.84-.43,1.67-.59,2.49-.32,1.65-.47,3.22-.62,4.63a5.06,5.06,0,0,1-2.45-1.94,3.14,3.14,0,0,1-.66-2.26,42.47,42.47,0,0,1,1.92-4.93l.25-.53.29-.6a4.54,4.54,0,0,1,.84-1.16,2.44,2.44,0,0,1,2.44-.66,3.32,3.32,0,0,1,1.75,1.8l.26.51.2.44c.13.29.24.58.35.87a8.61,8.61,0,0,1,.55,3.39A6.11,6.11,0,0,1,241.09,380.17Z"></path><path class="cls-3" d="M208.73,407.18c2.12.61,3.33.46,5.1.94a13.3,13.3,0,0,1,5.3,3.38c.51-4.12-1.41-6.66-5.11-7.4-1.21-.24-4.05-.84-5.29-1a6.33,6.33,0,0,1-3.46-1.2C205.48,402.49,204.79,406.05,208.73,407.18Z"></path><path class="cls-3" d="M208.53,401.63c2.11.61,3.33.47,5.1.94a13.32,13.32,0,0,1,5.3,3.39c.51-4.13-1.42-6.66-5.11-7.4-1.22-.25-4.06-.85-5.29-1a6.32,6.32,0,0,1-3.46-1.19C205.27,397,204.59,400.5,208.53,401.63Z"></path><path class="cls-3" d="M208.93,412.72c2.12.61,3.33.47,5.1.94a13.32,13.32,0,0,1,5.3,3.39c.51-4.13-1.41-6.66-5.11-7.4-1.21-.25-4.05-.85-5.28-1a6.33,6.33,0,0,1-3.47-1.19C205.68,408,205,411.59,208.93,412.72Z"></path><path class="cls-3" d="M209.52,418.84c2,.61,3.14.47,4.82,1a12.8,12.8,0,0,1,5,3.41c.46-4.12-1.36-6.67-4.86-7.42-1.14-.25-3.83-.86-5-1a5.8,5.8,0,0,1-3.27-1.21C206.42,414.14,205.79,417.69,209.52,418.84Z"></path><path class="cls-3" d="M212.71,424.67c1.53.58,2.4.46,3.68.92a10.15,10.15,0,0,1,3.86,3.17c.31-3.77-1.1-6.12-3.77-6.84-.88-.24-2.93-.83-3.82-.95a4.17,4.17,0,0,1-2.51-1.14C210.31,420.33,209.86,423.58,212.71,424.67Z"></path><path class="cls-3" d="M229,405.9c-1.58.84-2.55.83-3.88,1.5a11,11,0,0,0-3.76,4c-.86-4,.35-6.77,3.16-7.92.92-.38,3.08-1.3,4-1.55a4.53,4.53,0,0,0,2.57-1.58C231.05,400.88,232,404.33,229,405.9Z"></path><path class="cls-3" d="M228.57,400.37c-1.59.84-2.55.83-3.88,1.5a11.07,11.07,0,0,0-3.77,4c-.86-4,.36-6.77,3.17-7.92.92-.38,3.07-1.3,4-1.55a4.59,4.59,0,0,0,2.58-1.58C230.59,395.35,231.53,398.8,228.57,400.37Z"></path><path class="cls-3" d="M229.5,411.42c-1.58.85-2.55.84-3.88,1.51a11.07,11.07,0,0,0-3.77,4c-.86-4,.36-6.77,3.17-7.92.92-.38,3.07-1.3,4-1.56a4.52,4.52,0,0,0,2.57-1.57C231.52,406.4,232.46,409.85,229.5,411.42Z"></path><path class="cls-3" d="M229.73,417.56c-1.49.84-2.41.83-3.66,1.49a10.76,10.76,0,0,0-3.54,3.95c-.83-4,.31-6.77,3-7.91.87-.38,2.9-1.29,3.8-1.54a4.2,4.2,0,0,0,2.43-1.57C231.62,412.55,232.52,416,229.73,417.56Z"></path><path class="cls-3" d="M229,423.61c-1.23.82-2,.8-3,1.45a10.07,10.07,0,0,0-2.9,3.9c-.73-4,.19-6.76,2.38-7.87a34.38,34.38,0,0,1,3.13-1.5,3.36,3.36,0,0,0,2-1.54C230.55,418.62,231.33,422.08,229,423.61Z"></path><path class="cls-3" d="M157.87,460.83a28.59,28.59,0,0,0-3.46-.16c-4,0-8.66.36-14,0A43.94,43.94,0,0,1,123,455.79a13.11,13.11,0,0,0-4.08-.91c-.78-.07-1.59-.12-2.38-.14,0,.59-.12,1.19-.22,1.78a44.55,44.55,0,0,0,6.59,3.13,53.6,53.6,0,0,0,12.25,3.06,55.67,55.67,0,0,0,15.3.13c.68-.09,1.62-.19,2.66-.31s2.17-.24,3.23-.39c2.12-.3,3.92-.73,4.06-1.05C160.08,461,159.05,460.92,157.87,460.83Z"></path><path class="cls-3" d="M132.9,470a2.85,2.85,0,0,1-3.21,2.75c-1.87-.23-2.63-2-2.42-3.69s3.77-7.28,3.77-7.28S133.1,468.33,132.9,470Z"></path><path class="cls-3" d="M126.86,468.27a2.86,2.86,0,0,1-3.22,2.76c-1.86-.24-2.62-2-2.41-3.7s3.77-7.28,3.77-7.28S127.06,466.63,126.86,468.27Z"></path><path class="cls-3" d="M139.21,471.11a2.91,2.91,0,0,1-3.29,2.81c-1.9-.23-2.68-2.09-2.47-3.78s3.87-7.45,3.87-7.45S139.42,469.42,139.21,471.11Z"></path><path class="cls-3" d="M145.66,471.42a2.91,2.91,0,0,1-3.09,3c-1.92-.1-2.82-1.9-2.73-3.6s3.35-7.7,3.35-7.7S145.75,469.72,145.66,471.42Z"></path><path class="cls-3" d="M152.05,470.89a2.92,2.92,0,0,1-2.94,3.18c-1.92,0-2.91-1.76-2.9-3.46s3-7.86,3-7.86S152.06,469.19,152.05,470.89Z"></path><path class="cls-3" d="M158.94,469.34a2.92,2.92,0,0,1-2.94,3.18c-1.92,0-2.9-1.76-2.89-3.46s3-7.86,3-7.86S159,467.64,158.94,469.34Z"></path><path class="cls-3" d="M121.34,465.52a2.85,2.85,0,0,1-3.21,2.75c-1.86-.23-2.62-2-2.42-3.69s3.78-7.29,3.78-7.29S121.55,463.87,121.34,465.52Z"></path><ellipse class="cls-3" cx="116.9" cy="458.57" rx="0.88" ry="1.23"></ellipse><ellipse class="cls-3" cx="159.56" cy="463.36" rx="0.88" ry="1.23"></ellipse><ellipse class="cls-3" cx="122.15" cy="460.85" rx="0.88" ry="1.23"></ellipse><ellipse class="cls-3" cx="152.35" cy="464.43" rx="0.88" ry="1.23"></ellipse><ellipse class="cls-3" cx="127.85" cy="462.98" rx="0.98" ry="1.36"></ellipse><ellipse class="cls-3" cx="133.98" cy="464.17" rx="0.98" ry="1.36"></ellipse><ellipse class="cls-3" cx="140.25" cy="464.76" rx="0.98" ry="1.36"></ellipse><ellipse class="cls-3" cx="146.16" cy="464.66" rx="0.98" ry="1.36"></ellipse><path d="M219.79,399.23a10.3,10.3,0,0,1-1.81-1,23.67,23.67,0,0,0-3.83-1.69,48.8,48.8,0,0,0-8.67-2c-1.8-.22-3.67-.44-5.6-.74s-3.83-.65-5.77-1c-3.87-.72-7.76-1.5-11.46-2.24-3.22-.64-6.43-1.33-9.54-2.05a40.69,40.69,0,0,1-9.18-3,17.58,17.58,0,0,1-4-2.67,13.7,13.7,0,0,1-2.8-3.53,9.86,9.86,0,0,1-1-7.63,12,12,0,0,0,3.42,6.34,28.47,28.47,0,0,0,4.55,3.42,22.91,22.91,0,0,0,6.59,3.15c2.34.75,4.72,1.36,7,1.95,4.56,1.17,8.87,2.12,12.92,2.95s7.88,1.58,11.4,2.23a65.39,65.39,0,0,1,10,2.33,20.82,20.82,0,0,1,4.93,2.43,13.28,13.28,0,0,1,1.92,1.58A11.6,11.6,0,0,1,219.79,399.23Z"></path><path d="M220.1,398.74c-.25-.21,0-1.54.66-2.92A32.54,32.54,0,0,1,223,392.2c1.87-3,5.06-5.42,8-7.3,1.27-.83,2.69-1.57,3.85-2.17s2.34-1.3,3.38-2a13.82,13.82,0,0,0,4.67-4.2c.73.86.69,2.61.18,3.92a5.09,5.09,0,0,1-1.91,2.68c-2.39,1.23-4.57,2.09-6.53,2.94a26.35,26.35,0,0,0-5.09,2.94,38.87,38.87,0,0,0-6.74,6.58c-.39.5-1,1.12-1.56,1.73S220.29,398.55,220.1,398.74Z"></path><path d="M221.69,522.8c-.3-.52-.17-5.31,0-10.84s.33-11.81.26-15.31c-.18-12.35-.07-26.47-.4-39.21-.26-11.15-.72-22.11-1.34-32.19s-.79-19.19-.79-26.49c2.14,6.38,4.24,18.88,4.28,23.38.42,18.1.59,34.05.63,48.11s-.06,26.31-.79,37C223.23,512.33,222,521.08,221.69,522.8Z"></path><path d="M219.46,397.35c-.62-.16-.55-2.88-.93-3.92a34.55,34.55,0,0,1-1.15-5.76,36.63,36.63,0,0,1-.32-8.56c1.92.2,3.62,2,3.45,2.77a24.34,24.34,0,0,0-.28,7.53,21.76,21.76,0,0,1,.31,5.6A6.73,6.73,0,0,1,219.46,397.35Z"></path></g></svg>