<svg xmlns="http://www.w3.org/2000/svg" id="outfits_2" viewBox="0 0 380 600"><defs transform="matrix(-1, 0, 0, 1, 380, 0)"><style>.cls-1{fill:#ffffff;}.cls-2{fill:#172e35;}.cls-3{fill:#b8c7cc;}.cls-4{fill:#0c3744;}</style></defs><g id="default" transform="matrix(-1, 0, 0, 1, 380, 0)"><path class="cls-1 color-body" d="M160.412,391.443c-7.582,9.513-14.229,22.312-22.211,41.293-8.856,21.061-18.834,37.366-29.709,32.709-13.624-5.834-9.478-36.627-4.5-51.1,6.055-17.583,19.428-51.04,47.782-59.992,10.883-3.436,14.227,11.569,14.227,11.569" style="fill:#ffffff;--backup-fill:#ffffff" /><path d="M165.947,365.939c-.44-.388-1.22-2.975-3.311-6.14a11.8,11.8,0,0,0-4.514-4.165,7.376,7.376,0,0,0-3.27-.647,9.385,9.385,0,0,0-1.766.244l-.889.259-.948.349a49.192,49.192,0,0,0-14.275,8.128,57.522,57.522,0,0,0-9.412,9.669c-7.36,9.662-13.088,21.508-17.59,33.918-.567,1.551-1.111,3.116-1.646,4.685s-1.071,3.182-1.519,4.674a90.7,90.7,0,0,0-2.2,9.4,85.476,85.476,0,0,0-1.432,18.767,43.512,43.512,0,0,0,1.008,7.616,18.355,18.355,0,0,0,2.6,6.285,7.5,7.5,0,0,0,4.289,3.11,5.092,5.092,0,0,0,2.314.024,8.1,8.1,0,0,0,2.521-1.071,21.852,21.852,0,0,0,5.02-4.608,57.042,57.042,0,0,0,4.348-6.074,136.894,136.894,0,0,0,7.2-13.3c1.09-2.257,2.1-4.48,3.139-6.746s2.078-4.493,3.133-6.676c2.11-4.365,4.264-8.554,6.487-12.514a107.486,107.486,0,0,1,14.292-20.4c-1.433,3.123-3.134,6.869-4.826,10.907s-3.376,8.381-4.98,12.608c-3.2,8.461-6.094,16.462-8.124,20.507-4.173,8.251-8.377,16.247-13.84,23.355a43.511,43.511,0,0,1-4.532,5.019,21.321,21.321,0,0,1-5.745,3.963,13.429,13.429,0,0,1-3.535,1.017,11.7,11.7,0,0,1-3.722-.137,13.036,13.036,0,0,1-6.187-3.366,16.834,16.834,0,0,1-3.674-5.522,28.7,28.7,0,0,1-1.772-5.985,56.257,56.257,0,0,1-.838-11.805,103.905,103.905,0,0,1,3.1-22.039c.441-1.746.922-3.471,1.482-5.171.553-1.673,1.107-3.311,1.686-4.94q1.719-4.882,3.638-9.529a131.2,131.2,0,0,1,8.694-17.45A84.1,84.1,0,0,1,127.418,367.5a65.533,65.533,0,0,1,6.521-5.92,55.826,55.826,0,0,1,7.131-4.7,42.653,42.653,0,0,1,8.363-3.512l1.184-.341c.39-.115.789-.228,1.25-.317a11.946,11.946,0,0,1,2.732-.274,9.474,9.474,0,0,1,5.1,1.661,12.084,12.084,0,0,1,3.247,3.459,18.716,18.716,0,0,1,1.755,3.551A22.679,22.679,0,0,1,165.947,365.939Z" /></g><g data-name="default" id="default-2" transform="matrix(-1, 0, 0, 1, 380, 0)"><path class="cls-2 color-jacket" d="M160.412,391.443c-7.582,9.513-14.229,22.312-22.211,41.294-2.848,6.773-4.877,20.342-13.611,20.7-10.588.439-21.232-5.846-27.674-14.261-1.481-1.571-1.754-5.847-.25-7.378,8.8-13.964,10.036-30.7,19.173-44.611,7.1-15.715,42.579-51.372,50.167-21.264" /><path d="M165.947,365.941c-.493-.339-1.153-2.781-3.047-5.72a10.794,10.794,0,0,0-4.146-3.9,10.144,10.144,0,0,0-6.522-.682c-4.755.911-9.431,3.9-13.273,6.923a66.08,66.08,0,0,0-9.091,8.737,86.794,86.794,0,0,0-9.587,13.426c-.349.6-.649,1.2-.956,1.81-.161.3-.3.605-.431.908l-.491,1.084-1.162,2.031c-.358.594-.673,1.22-.984,1.849a70.415,70.415,0,0,0-3.389,7.816c-2.018,5.4-3.615,11.118-5.539,16.848-.943,2.866-2.024,5.735-3.22,8.554a70.013,70.013,0,0,1-4.209,8.214l-1.69-.519a1.994,1.994,0,0,0,.473.383,3.171,3.171,0,0,0,.665.38c.376.195.248.125.264.14a.3.3,0,0,1-.019.089,4.05,4.05,0,0,0-.065.7,4.5,4.5,0,0,0,.166,1.189,1.8,1.8,0,0,0,.141.367.3.3,0,0,1,.021.044l0-.006-.21.133-.25.183c-.074.044-.147.091-.218.143a2.871,2.871,0,0,0-.4.358l1.247-.625a35.869,35.869,0,0,0,10.122,8.767,27.941,27.941,0,0,0,12.175,3.9c.518.067,1.03.026,1.543.044a5.374,5.374,0,0,0,1.149-.056,3.79,3.79,0,0,0,1.674-.709,11.66,11.66,0,0,0,3.184-4.185,50.921,50.921,0,0,0,2.477-6.012c.769-2.132,1.462-4.313,2.44-6.631,1.907-4.26,3.779-8.2,5.728-12.083,1.941-3.86,3.926-7.561,5.972-11.056a101.27,101.27,0,0,1,13.032-18.044c-2.623,5.86-6.075,14.066-9.014,21.943-2.977,7.855-5.7,15.287-7.61,19.006-.614,1.22-1.293,2.5-1.777,3.555-.52,1.146-1.012,2.4-1.51,3.661-1,2.54-2.009,5.17-3.326,7.751a27.342,27.342,0,0,1-2.322,3.8,14.815,14.815,0,0,1-3.367,3.384,10.362,10.362,0,0,1-4.7,1.857c-.415.058-.838.067-1.241.088l-1.053-.033-1.048-.035-1.037-.108a34.954,34.954,0,0,1-14.889-5.368,42.434,42.434,0,0,1-10.972-10.1l.105.124a6.068,6.068,0,0,1-1.271-2.4,9.8,9.8,0,0,1-.374-2.338,9,9,0,0,1,.21-2.361,5.158,5.158,0,0,1,1.241-2.444l-.2.259c4.588-7.281,7.034-15.364,9.53-23.085,1.247-3.874,2.509-7.695,4.008-11.378.743-1.843,1.561-3.645,2.437-5.4.464-.867.891-1.747,1.38-2.592l1.384-2.337.586-1.247c.213-.447.454-.863.68-1.294.444-.868.96-1.66,1.439-2.484,1.013-1.593,2.048-3.143,3.148-4.608a87.5,87.5,0,0,1,6.911-8.215,64.28,64.28,0,0,1,15.841-12.54,25.558,25.558,0,0,1,8.166-2.883l1.2-.161c.405-.04.826-.025,1.238-.037a12.76,12.76,0,0,1,2.489.193,6.8,6.8,0,0,1,1.221.3,8.358,8.358,0,0,1,1.181.4,10.231,10.231,0,0,1,2.113,1.213,13.5,13.5,0,0,1,4.555,6.6A28.1,28.1,0,0,1,165.947,365.941Z" /></g><g data-name="default" id="default-3" transform="matrix(-1, 0, 0, 1, 380, 0)"><path class="cls-1 color-body" d="M239.64,463.371c-.822-7.144-2.461-16.135-4.759-22.342-13.642-36.838,9.04-78.792-30.636-91.823-29.145-9.571-59.413,5.745-75.671,54.174-5.9,17.562-7.776,42.306-3.484,59.991" style="fill:#ffffff;--backup-fill:#ffffff" /><path d="M125.031,463.385c-.41-.5-1.421-3.491-2.2-8.059a99.615,99.615,0,0,1-1.25-17.25,134.814,134.814,0,0,1,1.693-19.911,131.447,131.447,0,0,1,11.94-37.3A86.16,86.16,0,0,1,148.808,361a58.644,58.644,0,0,1,20.166-14.4,50.6,50.6,0,0,1,24.3-3.676,57.027,57.027,0,0,1,10.347,1.976,52.19,52.19,0,0,1,9.832,3.9,35.63,35.63,0,0,1,8.75,6.428,31.624,31.624,0,0,1,6.249,8.889c3.08,6.5,4.087,13.306,4.518,19.666.422,6.4.281,12.522.227,18.43-.07,5.9-.077,11.587.243,17.051a91.2,91.2,0,0,0,2.165,15.6q.219.921.435,1.833.26.9.517,1.787.549,1.857,1.085,3.674a74.122,74.122,0,0,1,1.621,7.38,119.041,119.041,0,0,1,1.5,13.7c-1.269-3.742-2.722-8.309-4.474-13.089-.876-2.387-1.833-4.827-2.918-7.167-.548-1.11-1.134-2.421-1.7-3.691-.6-1.268-1.024-2.59-1.531-3.886a78.5,78.5,0,0,1-4.271-26.328c.289-10.761,1.225-20.984.12-30.554a37.976,37.976,0,0,0-3.806-13.331,27.3,27.3,0,0,0-8.9-9.8,43.034,43.034,0,0,0-12.118-5.436,49.83,49.83,0,0,0-12.837-1.91,44.984,44.984,0,0,0-23.579,6.427,60.728,60.728,0,0,0-17.071,15.672,84.4,84.4,0,0,0-6.165,9.285c-.952,1.563-1.759,3.2-2.62,4.778-.783,1.626-1.623,3.2-2.327,4.836l-1.093,2.416q-.506,1.221-1.007,2.431c-.691,1.6-1.276,3.238-1.893,4.842s-1.138,3.231-1.708,4.822c-.521,1.6-1.037,3.168-1.47,4.762a134.581,134.581,0,0,0-3.788,18.792c-.389,2.918-.748,6.381-1.077,10-.268,3.625-.505,7.416-.506,10.973A101.817,101.817,0,0,0,125.031,463.385Z" /><path class="cls-1 color-body" d="M234.881,441.029c-13.642-36.838,9.04-78.792-30.636-91.823-29.144-9.571-59.413,5.745-75.671,54.174-5.9,17.562-7.776,42.306-3.484,59.991h0s6.034,10.253,50.162,13c42.248,2.629,64.388-13,64.388-13h0C238.818,456.227,237.179,447.236,234.881,441.029Z" style="fill:#ffffff;--backup-fill:#ffffff" /></g><path class="cls-2 color-jacket" d="M161.129,350.694a184.985,184.985,0,0,0-24.313,126.859c-12.549-1.416-15.189-16.413-14.875-26.938-3.488-35.328,9.443-68.8,33.133-95.08" transform="matrix(-1, 0, 0, 1, 380, 0)" /><path d="M155.1,355.555c-.223.532-2.06,2.738-4.671,6.056a151.482,151.482,0,0,0-9.027,12.936,121.769,121.769,0,0,0-13.628,29.971,128.846,128.846,0,0,0-4.059,20.072,122.844,122.844,0,0,0-.461,21.218l.213,2.67.105,1.336.058.818,0,.724a52.549,52.549,0,0,0,.217,5.254,36.033,36.033,0,0,0,2.314,10,15.359,15.359,0,0,0,5.833,7.369,10.744,10.744,0,0,0,2.06.96l.329.116a.125.125,0,0,0,.043.013l.062,0c.058.023.019-.051.015-.079l-.007-.021,0-.01a.664.664,0,0,1-.02-.124l-.2-1.3a178.757,178.757,0,0,1,3.357-70.333A173.534,173.534,0,0,1,147.874,373.7,176.009,176.009,0,0,1,160.643,350.4c-1.4,3.3-3.388,7.2-5.175,11.559q-.705,1.615-1.433,3.28l-1.346,3.4c-.893,2.288-1.865,4.563-2.639,6.882-.412,1.147-.821,2.287-1.224,3.411s-.815,2.225-1.147,3.331c-.713,2.193-1.4,4.3-2.034,6.251-.58,1.973-1.117,3.8-1.594,5.419-.251.807-.487,1.562-.7,2.26l-.554,1.926c-.667,2.33-1.394,4.631-1.992,6.946q-.843,3.489-1.674,6.926l-1.339,6.894c-.238,1.139-.4,2.286-.559,3.428s-.327,2.28-.49,3.413a176.215,176.215,0,0,0-1.544,26.607c.047,2.155.188,4.291.28,6.412.063,2.124.293,4.219.494,6.3.217,2.078.355,4.15.7,6.181q.224,1.525.445,3.041l.294,2,.265,2.045.016.127c0,.019.01.047,0,.059l-.064-.012-.255-.049-.511-.1-1.02-.192a12.268,12.268,0,0,1-2-.466l-1.579-.559-1.4-.755a14.909,14.909,0,0,1-4.574-4.211,9.024,9.024,0,0,1-.853-1.275c-.253-.441-.543-.864-.764-1.318a25.957,25.957,0,0,1-1.207-2.756,33.877,33.877,0,0,1-1.571-5.682,48.085,48.085,0,0,1-.7-5.726c-.08-.95-.078-1.9-.114-2.843l.008-1.414c0-.235.011-.5,0-.593l-.053-.695-.419-5.513c-.069-1.826-.081-3.64-.123-5.437a122.194,122.194,0,0,1,1.768-20.779,128.922,128.922,0,0,1,5.026-18.839c1.162-2.918,2.184-5.837,3.507-8.57.645-1.372,1.214-2.767,1.911-4.083s1.375-2.629,2.053-3.926a117.532,117.532,0,0,1,10.933-16.476c1-1.331,2.086-2.516,3.039-3.674.975-1.141,1.854-2.225,2.728-3.12Z" transform="matrix(-1, 0, 0, 1, 380, 0)" /><path class="cls-2 color-jacket" d="M143.867,384.152c-4.394,1.989-8.88,4.8-13.585,5.66-4.338-6.246-6.1-14.364-6.662-21.913,2.749-11.191,45.295-14.53,55.907-12.272-14.333,4.875-31.558,12.337-34.885,28.694" transform="matrix(-1, 0, 0, 1, 380, 0)" /><path d="M144.613,384.315a4.968,4.968,0,0,1,.134-1.321,14.3,14.3,0,0,1,.688-2.746l.622-1.762c.272-.6.6-1.227.92-1.887.17-.324.317-.673.518-1s.415-.647.627-.978a18.409,18.409,0,0,1,1.378-1.986c.522-.633,1.013-1.318,1.587-1.934l1.755-1.829a46.934,46.934,0,0,1,3.8-3.2,64.3,64.3,0,0,1,6.824-4.464,76.622,76.622,0,0,1,7.408-3.769c2.607-1.144,5.331-2.224,8.166-3.26l.174,2.932a44.413,44.413,0,0,0-6.856-.467c-2.367-.013-4.766.065-7.161.2-4.792.268-9.573.768-14.153,1.461a88.6,88.6,0,0,0-18.25,4.463,27.307,27.307,0,0,0-3.908,1.925,9.8,9.8,0,0,0-2.856,2.492,4.44,4.44,0,0,0-.5.961l.072,1.041.1,1.1c.142,1.454.318,2.889.549,4.294a46.964,46.964,0,0,0,2.012,8.021,33.316,33.316,0,0,0,1.517,3.622c.263.58.6,1.146.877,1.676l.154.3c.032.041.045.13.094.136l.163-.015a3.178,3.178,0,0,0,.385-.054c.3-.057.588-.143.881-.215.584-.154,1.161-.332,1.731-.523,1.139-.384,2.248-.826,3.331-1.279,2.166-.909,4.233-1.859,6.245-2.621-1.585,1.167-3.463,2.588-5.609,4a35.71,35.71,0,0,1-3.452,2.013,18.875,18.875,0,0,1-4.747,1.717c-.066.007-.151.062-.2.029l-.122-.164-.246-.331-.5-.675-.506-.687-.324-.463c-.4-.557-.767-1.12-1.1-1.689a29.887,29.887,0,0,1-1.733-3.332,26.845,26.845,0,0,1-1.764-5.4c-.343-1.753-.594-3.491-.779-5.211-.095-.859-.163-1.715-.229-2.565l-.077-1.272-.062-1.326-.031-.528c.047-.171.122-.329.176-.486.128-.351.2-.526.31-.786a10.255,10.255,0,0,1,.779-1.281c.3-.383.629-.713.943-1.064.331-.321.687-.593,1.029-.887a22.138,22.138,0,0,1,4.407-2.54,55.606,55.606,0,0,1,9.026-2.9c2.985-.717,5.929-1.266,8.817-1.723,5.78-.9,11.341-1.466,16.677-1.765,2.669-.146,5.281-.225,7.842-.2a45.079,45.079,0,0,1,7.57.577l3.54.64-3.431,1.208c-10.225,3.6-18.9,7.652-25.355,13.183a35.379,35.379,0,0,0-6.753,7.716,16.143,16.143,0,0,0-1.231,2.187c-.331.719-.686,1.379-.932,2C145.12,382.879,144.78,383.84,144.613,384.315Z" transform="matrix(-1, 0, 0, 1, 380, 0)" /><path class="cls-3" d="M130.57,366.945c-3.666-.744-3.861,4.87-.389,5.269,6.986.74,3.307-10.172-1.358-4.734" transform="matrix(-1, 0, 0, 1, 380, 0)" /><path d="M128.8,367.46c-.156-.244.22-1.095,1.206-1.74a3.036,3.036,0,0,1,1.82-.513,3.819,3.819,0,0,1,1.615.493,4.529,4.529,0,0,1,2.253,3.964,4.391,4.391,0,0,1-.833,2.646,4.6,4.6,0,0,1-2.319,1.643,5.877,5.877,0,0,1-2.082.275l-.486-.026c-.2-.031-.4-.073-.6-.118a4.212,4.212,0,0,1-1.156-.443,4.287,4.287,0,0,1-1.7-1.719,4.592,4.592,0,0,1-.562-2.1,3.956,3.956,0,0,1,1.75-3.451,2.831,2.831,0,0,1,1.7-.4,3.112,3.112,0,0,1,1.277.409,5.167,5.167,0,0,0-1.047,1.09,1.282,1.282,0,0,0-.216.984c.174.5.415.643.232.791a1.214,1.214,0,0,0-.282,1.212,1.336,1.336,0,0,0,1.028.867,2.938,2.938,0,0,0,1.659-.056,1.675,1.675,0,0,0,.962-.908,2.774,2.774,0,0,0-.38-2.471,2.284,2.284,0,0,0-.7-.68,1.584,1.584,0,0,0-.692-.22,4.95,4.95,0,0,0-1.259.1C129.467,367.217,128.977,367.413,128.8,367.46Z" transform="matrix(-1, 0, 0, 1, 380, 0)" /><path class="cls-3" d="M133.731,378.614c-4.724,3.281.469,8.268,3.838,4.321,2-4.58-2.276-6.677-5.393-2.855" transform="matrix(-1, 0, 0, 1, 380, 0)" /><path d="M132.152,380.061c-.174-.246.24-1.063,1.083-1.772a4.931,4.931,0,0,1,3.052-1.122,3.119,3.119,0,0,1,2.331.949,4.262,4.262,0,0,1,1.1,2.414,6.49,6.49,0,0,1-.206,2.357l-.079.267-.132.4-.131.4-.285.305-.5.539a2.7,2.7,0,0,1-.441.409,4.862,4.862,0,0,1-4.367,1.01,4.557,4.557,0,0,1-3.19-3.016,4.975,4.975,0,0,1-.175-1.072,5.809,5.809,0,0,1,.11-1.027,3.933,3.933,0,0,1,.833-1.586,2.251,2.251,0,0,1,.552-.532q.293-.221.57-.4a8.532,8.532,0,0,1,1.13-.437c-.008.538-.041,1.058-.066,1.519a4.534,4.534,0,0,0,.144,1.227c.172.655.467.711.335.831a.876.876,0,0,0,.021,1.129,1.48,1.48,0,0,0,1.266.6,2.232,2.232,0,0,0,.759-.144,3.72,3.72,0,0,0,.68-.439l.26-.25a.375.375,0,0,0,.15-.246,3.928,3.928,0,0,0,.2-.743,3,3,0,0,0-.051-1.4,1.65,1.65,0,0,0-.591-.789,2.426,2.426,0,0,0-1.8-.1c-.164.037-.372.082-.61.14a6.255,6.255,0,0,0-.765.188C132.807,379.8,132.338,380.019,132.152,380.061Z" transform="matrix(-1, 0, 0, 1, 380, 0)" /><path d="M186.992,335.215c-12.74,1.011-38.231,4.658-39.617,21.982,2.464,3.885,4.917,7.251,1.084,11.158-7.853,31.16-14.927,70.391-10.859,102.925,10.353,15.1,47.913,14.97,56.419,6.8,26.2-25.151-6.786-86.356,12.911-118.5C225.605,333.688,186.992,335.215,186.992,335.215Z" transform="matrix(-1, 0, 0, 1, 380, 0)" /><path d="M186.99,335.184a40.7,40.7,0,0,1,11.181.5,35.527,35.527,0,0,1,4.9,1.194,19.245,19.245,0,0,1,5.154,2.49,10.217,10.217,0,0,1,3.885,4.976,11.1,11.1,0,0,1-.029,6.681,26.546,26.546,0,0,1-2.808,6.2c-.567.962-1.294,1.946-1.834,2.826l-1.575,2.917a46.05,46.05,0,0,0-3.742,12.448,76.085,76.085,0,0,0-.937,11.862c-.023,1.831.041,3.573.083,5.2.092,1.625.144,3.134.259,4.5.7,9.691,2.217,19.687,3.369,29.979.574,5.147,1.067,10.373,1.243,15.676a81.093,81.093,0,0,1-.877,16.064,40.111,40.111,0,0,1-5.7,15.422l-1.235,1.7-.62.846c-.222.27-.468.52-.7.78l-1.422,1.544-.361.385-.447.383a7.765,7.765,0,0,1-.913.714,24.292,24.292,0,0,1-7.827,3.305,61.556,61.556,0,0,1-16,1.658,68.267,68.267,0,0,1-15.633-2.023,45.853,45.853,0,0,1-6.553-2.163,33.517,33.517,0,0,1-6.185-3.3A22.5,22.5,0,0,1,136.416,473l-.421-.554c-.159-.214-.377-.415-.346-.709l-.124-1.194-.173-1.659-.344-3.315a188.8,188.8,0,0,1-.262-26.28,327.373,327.373,0,0,1,7.018-49.605c.825-3.921,1.718-7.776,2.629-11.57.469-1.894.905-3.782,1.394-5.642q.359-1.4.715-2.783l.382-1.49c.054-.2.094-.412.162-.606l.422-.47.281-.311a1.923,1.923,0,0,0,.19-.221,3.861,3.861,0,0,0,.77-3.879,11.716,11.716,0,0,0-1.012-2.236c-.208-.378-.441-.76-.67-1.143l-.911-1.464-.145-.231a.987.987,0,0,1-.068-.117l.02-.145L146,356.8l.123-.91a11.688,11.688,0,0,1,.288-1.445,9.9,9.9,0,0,1,.4-1.413,11.09,11.09,0,0,1,.518-1.368,18.211,18.211,0,0,1,3.067-4.834,27.343,27.343,0,0,1,8.739-6.288,51.325,51.325,0,0,1,9.529-3.328,98.964,98.964,0,0,1,18.28-2.566A120.471,120.471,0,0,0,169,338.693a50.564,50.564,0,0,0-9.553,4.11,23.359,23.359,0,0,0-7.69,6.66,15.056,15.056,0,0,0-2.089,4.339,14.831,14.831,0,0,0-.491,2.3l-.055.579v.107a1.043,1.043,0,0,0,.1.144l.067.091.179.269a17.844,17.844,0,0,1,2.539,4.889,7.051,7.051,0,0,1-.959,6.01,8.369,8.369,0,0,1-.816,1.07c-.011.012-.01.014-.01.021a.094.094,0,0,1,0,.014c0,.007,0,0,0,.018l-.031.133-.485,2.072c-.32,1.349-.625,2.633-.911,3.84-.554,2.419-1.076,4.525-1.5,6.244a365.884,365.884,0,0,0-7.819,40.693q-1.329,9.963-1.815,19.7a179.713,179.713,0,0,0-.053,19.161c.1,1.568.141,3.136.3,4.687s.3,3.1.452,4.636l.04.41c0,.117.114.186.175.292l.647.855a21.645,21.645,0,0,0,1.528,1.606,17.78,17.78,0,0,0,1.7,1.432,21.308,21.308,0,0,0,1.831,1.27,35.381,35.381,0,0,0,8.1,3.667,56.29,56.29,0,0,0,8.61,2,69.479,69.479,0,0,0,17.269.474,47.1,47.1,0,0,0,8.256-1.522,17.027,17.027,0,0,0,7.069-3.606,32.155,32.155,0,0,0,7.96-13.668,60.7,60.7,0,0,0,2.12-15.451c.192-10.317-1.079-20.3-2.184-29.96s-2.237-19.045-2.3-28.221a87.157,87.157,0,0,1,.84-13.522,50.119,50.119,0,0,1,3.583-12.671q.31-.71.636-1.449c.229-.487.52-.957.786-1.449l.834-1.488.214-.381.275-.4.48-.693a28.821,28.821,0,0,0,3.4-6.1,11.516,11.516,0,0,0,.765-6.88,8.667,8.667,0,0,0-1.591-3.048,11.516,11.516,0,0,0-2.628-2.287A22.436,22.436,0,0,0,200.58,337a44.633,44.633,0,0,0-5.861-1.221A59.143,59.143,0,0,0,186.99,335.184Z" transform="matrix(-1, 0, 0, 1, 380, 0)" /><path class="cls-2 color-jacket" d="M212.733,348.749c-.057,11.984-14.024,15.91-21.661,22.555-24.2,32.241-17.378,80.927-7.5,117.77,13.927-3.808,31-2.26,41.969-12.823,4.581-6.232,17.023-10.532,15.609-19.143a398.6,398.6,0,0,1-10.566-63.844c-.919-15.916-3.278-36.654-20.223-43.132" transform="matrix(-1, 0, 0, 1, 380, 0)" /><path d="M210.375,350.1a26.547,26.547,0,0,1,2.9,1.1c.753.365,1.583.9,2.55,1.463a10.945,10.945,0,0,1,1.428,1.042c.484.389,1,.782,1.521,1.222a31.2,31.2,0,0,1,5.68,7.326,46.507,46.507,0,0,1,3.951,10.207,82.773,82.773,0,0,1,2.126,11.493c.219,1.947.413,3.889.564,5.808s.262,3.8.459,5.632c.7,7.34,1.581,13.973,2.316,18.691,1.3,8.33,2.866,16.928,4.758,25.629q1.415,6.526,3.05,13.115l.837,3.289.1.412c.009.042.054.195.075.315l.024.273.08,1.014a8.627,8.627,0,0,1-.131,2.042,13.844,13.844,0,0,1-.555,1.961c-.3.587-.569,1.209-.916,1.755a17.949,17.949,0,0,1-2.367,2.94c-3.435,3.464-7.482,5.833-10.476,8.849l-.549.561-.477.583-.238.291a3.234,3.234,0,0,1-.478.519l-.685.6-1.374,1.2-1.478,1.061a33.469,33.469,0,0,1-6.323,3.442,64.64,64.64,0,0,1-13.452,3.574c-4.471.759-8.868,1.305-13.1,2.083-.931.154-1.837.361-2.752.549-.457.094-.914.188-1.359.308l-2.572.642a13.628,13.628,0,0,1-1.356.308l-.362-1.368-.678-2.561-.725-2.785q-1.434-5.571-2.636-11.169c-1.615-7.456-2.9-14.936-3.794-22.379-1.79-14.87-1.92-29.687.5-43.532,2.332-13.833,7.6-26.59,15.145-36.467l.37-.506c.134-.255.474-.445.586-.555l.931-.73c.618-.486,1.265-.9,1.891-1.344,1.274-.843,2.547-1.627,3.806-2.38,2.516-1.506,4.964-2.929,7.175-4.522a21.818,21.818,0,0,0,5.572-5.464,13.306,13.306,0,0,0,2.22-6.9,13.245,13.245,0,0,1-1.4,7.056,21.666,21.666,0,0,1-5.526,6.551c-2.3,1.952-4.906,3.678-7.446,5.45-1.265.889-2.539,1.773-3.719,2.724-.61.459-1.167.958-1.723,1.452l-.2.179a.584.584,0,0,0-.088.089c-.014.033-.135.216-.24.378l-.625.957a78.439,78.439,0,0,0-7.74,15.193,113.438,113.438,0,0,0-3.778,11.906,103.753,103.753,0,0,0-3.162,17.695,143.726,143.726,0,0,0-.562,17.548,207.774,207.774,0,0,0,3.9,33.443c1.037,5.354,2.223,10.594,3.514,15.722l.489,1.9a9.578,9.578,0,0,0,.318,1.12l1.18-.287c.642-.169,1.291-.29,1.936-.422,2.58-.543,5.154-.922,7.7-1.3a141.2,141.2,0,0,0,14.839-2.623,35.292,35.292,0,0,0,12.963-5.923c.461-.358.884-.761,1.326-1.137l.657-.572a1.607,1.607,0,0,0,.229-.215l.295-.362.6-.73.65-.663c.424-.456.885-.85,1.337-1.257,1.822-1.6,3.736-2.982,5.546-4.413a29.571,29.571,0,0,0,4.891-4.583,8.011,8.011,0,0,0,1.959-5.652l-.053-.714-.195-.778-.409-1.633q-.4-1.63-.794-3.248c-.526-2.157-1.01-4.305-1.492-6.434-.95-4.262-1.8-8.47-2.588-12.618a368.977,368.977,0,0,1-5.768-46.9A100.779,100.779,0,0,0,227.289,374a45.676,45.676,0,0,0-4.2-11.986,27.12,27.12,0,0,0-6.96-8.5c-.61-.484-1.244-.858-1.8-1.251a10.237,10.237,0,0,0-1.6-.975Z" transform="matrix(-1, 0, 0, 1, 380, 0)" /><g data-name="default" id="default-4" transform="matrix(-1, 0, 0, 1, 380, 0)"><path class="cls-1 color-body" d="M210.791,402.426c4.766,11.192,7.753,25.3,10.376,45.725,2.91,22.661,8.17,41.038,19.894,39.455,14.687-1.984,18.916-32.765,17.978-48.04-1.139-18.561-3.924-46.029-22.5-62.515-15.9-14.111-24.321-.71-24.321-.71" style="fill:#ffffff;--backup-fill:#ffffff" /><path d="M212.163,376.309a4.751,4.751,0,0,1,1.129-2.015,12.819,12.819,0,0,1,10.682-4.683,19.8,19.8,0,0,1,7.878,2.5,31.055,31.055,0,0,1,3.614,2.394l1.727,1.341c.569.456,1.068.978,1.606,1.465a36.32,36.32,0,0,1,3.058,3.045l1.414,1.585.7.784.627.825a69.06,69.06,0,0,1,7.46,11.874c5.769,11.243,8.546,24.7,9.841,38,.173,1.668.321,3.334.456,5s.25,3.463.275,5.164a98.609,98.609,0,0,1-.362,10.251,85.588,85.588,0,0,1-3.941,19.875,43.312,43.312,0,0,1-3.783,8.28,26.328,26.328,0,0,1-2.873,3.895,18.251,18.251,0,0,1-3.919,3.376,14.721,14.721,0,0,1-5.079,2.1,13.243,13.243,0,0,1-10.892-2.289,17.757,17.757,0,0,1-3.651-3.626,32.965,32.965,0,0,1-4.335-7.95,64.54,64.54,0,0,1-2.53-7.962,130.476,130.476,0,0,1-2.827-15.476c-.642-5.077-1.041-9.863-1.6-14.526-.534-4.66-1.115-9.159-1.78-13.464a139.334,139.334,0,0,0-5.314-23.2,54.861,54.861,0,0,1,5.944,10.1,98.283,98.283,0,0,1,4.82,12.781,109.657,109.657,0,0,1,4.5,21.66c.275,4.42.663,8.74,1.259,12.952a83.864,83.864,0,0,0,2.535,12.18,40.966,40.966,0,0,0,2.069,5.552,19.448,19.448,0,0,0,2.946,4.7,9.647,9.647,0,0,0,1.887,1.709,6.947,6.947,0,0,0,2.153,1.041,8.1,8.1,0,0,0,4.8-.173c3.185-1.026,5.715-3.861,7.544-6.956a43.264,43.264,0,0,0,4.168-10.067,88.117,88.117,0,0,0,3.1-20.923q.079-2.565.006-5.078c-.038-1.666-.188-3.316-.318-5-.264-3.34-.588-6.609-1-9.806a128.055,128.055,0,0,0-3.57-18.237,79.522,79.522,0,0,0-6.245-15.941,58.107,58.107,0,0,0-9.166-12.837l-1.325-1.349c-.23-.233-.454-.485-.7-.714l-.767-.667-1.581-1.4c-.542-.471-1.148-.848-1.731-1.294a17.28,17.28,0,0,0-7.869-3.387,11.891,11.891,0,0,0-7.352,1.539A14.682,14.682,0,0,0,212.163,376.309Z" /></g><path class="cls-2 color-jacket" d="M210.088,402.182a140.8,140.8,0,0,1,8.989,31.586c1.117,6.706,1.266,13.934,3.06,20.483.53,1.936,1.6,3.673,2.052,5.629.735,3.208-.585,7.02.595,10.071a5.473,5.473,0,0,0,1.961,2.287c4.395,3.264,10.214,3.74,15.688,3.8,7.109.082,14.656-.471,20.463-4.572-.117-17.334-3.127-35.275-6.013-52.369-2.625-15.548-8.258-31.324-20.347-42.05-15.9-14.111-24.321-.71-24.321-.71" transform="matrix(-1, 0, 0, 1, 380, 0)" /><path d="M212.163,376.309a4.569,4.569,0,0,1,1.083-1.967,12.948,12.948,0,0,1,3.672-3.116,12.3,12.3,0,0,1,6.635-1.625,18.88,18.88,0,0,1,7.741,2.188,45.014,45.014,0,0,1,12.632,10.86,72.431,72.431,0,0,1,7.476,11.4,67.425,67.425,0,0,1,3.878,8.475,85.955,85.955,0,0,1,2.933,9.1c.828,3.09,1.512,6.34,2.1,9.438.612,3.132,1.218,6.287,1.792,9.464a269.105,269.105,0,0,1,4.608,38.288l.059,2.477,0,1.353,0,.677v.169c.009.061,0,.113-.064.135l-.283.188c-.751.488-1.51,1.029-2.26,1.476l-1.127.684-.564.341-.367.185a28.526,28.526,0,0,1-6,2.237,49.3,49.3,0,0,1-11.823,1.307,50.812,50.812,0,0,1-11.634-.983,23.149,23.149,0,0,1-5.957-2.225,19.737,19.737,0,0,1-2.776-1.868,10.484,10.484,0,0,1-1.465-1.456,7.885,7.885,0,0,1-1.269-2.169,15.444,15.444,0,0,1-.648-6.585,18.065,18.065,0,0,0,.054-3.979,29.636,29.636,0,0,0-1.442-4.086c-.161-.457-.319-.944-.454-1.466l-.3-1.282c-.183-.848-.348-1.69-.487-2.524-1.089-6.694-1.083-12.789-1.909-18.4a165.823,165.823,0,0,0-6.951-30.393,61.118,61.118,0,0,1,6.013,9.688,91.808,91.808,0,0,1,5.12,12.266,85.643,85.643,0,0,1,3.21,12.219,87.632,87.632,0,0,1,1.11,8.891c.119,2.021.3,3.98.595,5.866.07.474.155.939.245,1.4l.121.623q.06.27.144.566c.225.793.6,1.727.972,2.831a17.672,17.672,0,0,1,.508,1.793,12.687,12.687,0,0,1,.271,2,22.46,22.46,0,0,1-.143,3.431,13.705,13.705,0,0,0-.039,4.793,1.381,1.381,0,0,0,.222.47,4.007,4.007,0,0,0,.586.626,12.653,12.653,0,0,0,1.819,1.294,16.653,16.653,0,0,0,4.345,1.735A43.951,43.951,0,0,0,244,474.178a45.767,45.767,0,0,0,9.708-.677,25.016,25.016,0,0,0,4.46-1.289c.355-.14.709-.28,1.046-.45s.736-.34.909-.446c.219-.126.463-.241.662-.377l.312-.2c.088-.075.26-.106.212-.253q-.006-.8-.011-1.589c0-.794-.042-1.586-.063-2.375-.039-1.578-.139-3.145-.218-4.7-.206-3.11-.462-6.175-.8-9.192-.656-6.035-1.53-11.877-2.472-17.545S255.8,423.91,254.8,418.6a101.443,101.443,0,0,0-3.985-14.968,71.545,71.545,0,0,0-6.055-13.074,54.432,54.432,0,0,0-8.164-10.651l-1.306-1.29-1.464-1.28c-.51-.425-1-.935-1.553-1.331l-1.7-1.234a17.008,17.008,0,0,0-7.7-3.061,11.658,11.658,0,0,0-7.119,1.623A14.545,14.545,0,0,0,212.163,376.309Z" transform="matrix(-1, 0, 0, 1, 380, 0)" /><path class="cls-2 color-jacket" d="M212.438,352.751c-4.013,20.832-37.527,17.4-30.2,47.645,4.472.946,26.261-6.644,30.232-9.227C202.644,371.6,219.57,371.023,212.438,352.751Z" transform="matrix(-1, 0, 0, 1, 380, 0)" /><path d="M212.466,352.74a14.55,14.55,0,0,1,1.5,3.5,19.184,19.184,0,0,1,.64,7.919c-.423,3.057-1.849,6.019-2.865,8.648-.276.659-.478,1.309-.673,1.935a11.96,11.96,0,0,0-.454,1.816l-.172.847-.053.807c-.022.52-.081,1-.063,1.438.089.774.121,1.551.241,2.328q.269,1.155.54,2.329a33.751,33.751,0,0,0,1.866,4.579c.293.635.633,1.338.917,2.006l.223.51.112.257.056.128a.826.826,0,0,1-.114.072l-.954.568-.964.566c-.156.1-.336.176-.5.265l-.44.224c-.413.22-.822.406-1.233.6-1.644.778-3.306,1.458-4.981,2.135-3.354,1.324-6.758,2.529-10.183,3.6-1.715.532-3.427,1.042-5.166,1.475a37.721,37.721,0,0,1-5.366,1.042l-.932.071c-.361.014-.7-.042-1.062-.061l-1.071-.085-.537-.043c-.109-.1-.114-.314-.176-.465-.094-.337-.2-.661-.285-1.011l-.231-1.088-.288-1.344a34.7,34.7,0,0,1-.542-4.681,23.325,23.325,0,0,1,1.405-9.412,22.212,22.212,0,0,1,5.2-7.707,42.075,42.075,0,0,1,6.782-5.283c4.6-2.978,9.047-5.372,12.51-8.352a22.353,22.353,0,0,0,4.325-4.826,19.918,19.918,0,0,0,2.415-5.4,15.458,15.458,0,0,1-1.109,6.174,20.977,20.977,0,0,1-4.1,6.316,38.659,38.659,0,0,1-5.265,4.687,42.942,42.942,0,0,1-4.168,2.8c-4.16,2.364-8.055,4.769-10.845,8.045a17.954,17.954,0,0,0-4.284,11.479,11.975,11.975,0,0,0,.006,1.539c.026.513.024,1.024.074,1.533.146,1.013.193,2.03.421,3.02l.211,1.081c-.05.43.392.3.673.362l.465-.029c.238-.02.472-.022.713-.056l1.448-.218a89.158,89.158,0,0,0,11.11-3.017c3.538-1.18,6.929-2.444,10.129-3.8.8-.331,1.579-.694,2.352-1.045l.88-.443c.194-.1.368-.217.548-.322.016-.16-.155-.378-.221-.559l-.392-.841-.534-1.164c-.156-.4-.279-.809-.418-1.211-.252-.815-.58-1.595-.756-2.423s-.322-1.661-.481-2.481q-.061-1.266-.123-2.509c.047-.83.15-1.653.23-2.467.568-3.255,2.041-5.987,3.137-8.535.261-.61.552-1.273.789-1.977.125-.352.272-.71.393-1.08q.148-.561.3-1.139a17.156,17.156,0,0,0,.527-4.8,13.964,13.964,0,0,0-.195-2.279,11.811,11.811,0,0,0-.329-1.987C212.785,354.1,212.572,353.191,212.466,352.74Z" transform="matrix(-1, 0, 0, 1, 380, 0)" /><path class="cls-3" d="M188.468,385.911a3.2,3.2,0,0,1,3.647,3.632c-1.916,5.493-9.2-.268-4.3-3.4" transform="matrix(-1, 0, 0, 1, 380, 0)" /><path d="M187.828,386.169a.757.757,0,0,1-.168.6,3.475,3.475,0,0,1-.264.358c-.067.145-.14.292-.219.435a1.37,1.37,0,0,0,.021,1.5,3.309,3.309,0,0,0,1.52.915c.13.029.257.025.369.06a1.727,1.727,0,0,1,.3-.025c.07-.056.141-.051.193-.086.036-.068.084-.058.119-.113a5.589,5.589,0,0,0,.491-.8c.011-.01.024.005.029-.013a.538.538,0,0,0,.036-.152,1.568,1.568,0,0,0-.036-.468,2.818,2.818,0,0,0-1.62-1.907,2.212,2.212,0,0,1,2.242-1.628A2.384,2.384,0,0,1,193,385.887a5.752,5.752,0,0,1,.428,2.883,4.228,4.228,0,0,1-.152.7,1.646,1.646,0,0,1-.27.623c-.231.346-.384.619-.612.905a8.566,8.566,0,0,1-.758.765,3.964,3.964,0,0,1-.922.546,3.046,3.046,0,0,1-1.007.256c-.169.014-.34.038-.5.038l-.483-.057a4.536,4.536,0,0,1-3.017-1.812,3.42,3.42,0,0,1-.633-1.641,2.33,2.33,0,0,1,.043-.876,3.172,3.172,0,0,1,.095-.417c.06-.126.124-.248.191-.366a2.355,2.355,0,0,1,1.294-1.09A4.774,4.774,0,0,1,187.828,386.169Z" transform="matrix(-1, 0, 0, 1, 380, 0)" /><path class="cls-3" d="M200.019,383.314c-4.66-.473-2.518,6.188,1.525,5.292,5.045,0,2.882-7.03-1.45-5.731" transform="matrix(-1, 0, 0, 1, 380, 0)" /><path d="M200.085,382.846c-.022-.283.795-.762,1.911-.629a2.777,2.777,0,0,1,.821.2,3.026,3.026,0,0,1,.759.378,3.4,3.4,0,0,1,.628.463,5.97,5.97,0,0,1,.486.433,3.919,3.919,0,0,1,1.1,1.81,3.7,3.7,0,0,1-.157,2.54,3.842,3.842,0,0,1-.822,1.207,4.8,4.8,0,0,1-1.163.775,4.642,4.642,0,0,1-1.182.367l-.543.081-.272.04c-.07.008-.051.01-.023.011l.061,0a5.3,5.3,0,0,1-1.051.12,5.776,5.776,0,0,1-1.108-.134,5,5,0,0,1-1.929-.961,5.147,5.147,0,0,1-1.869-3.355,4.034,4.034,0,0,1-.039-.485l.049-.556a2.967,2.967,0,0,1,.261-1.031,3.448,3.448,0,0,1,.537-.844,4.454,4.454,0,0,1,.739-.575,6.408,6.408,0,0,1,.829-.283c.281-.023.551-.018.8-.017a3.381,3.381,0,0,1,1.169.339,9.543,9.543,0,0,0-.916,1.144,1.265,1.265,0,0,0-.165.96c.176.529.52.432.344.464-.083-.011-.112.106-.164.2a.751.751,0,0,0-.085.326.919.919,0,0,0,0,.362,1.233,1.233,0,0,0,.08.365,1.832,1.832,0,0,0,.924,1.1,2.026,2.026,0,0,0,.682.214c.119.009.241-.011.362-.014l.521-.04a2.159,2.159,0,0,0,1.31-.386c.183-.091.247-.271.361-.392.042-.174.145-.3.133-.487a2.245,2.245,0,0,0-.154-1.029,4.22,4.22,0,0,0-1.189-1.543,1,1,0,0,1-.183-.161l-.224-.17a2.411,2.411,0,0,0-.559-.384A6.151,6.151,0,0,0,200.085,382.846Z" transform="matrix(-1, 0, 0, 1, 380, 0)" /><path class="cls-4" d="M176.957,369.821a5.692,5.692,0,0,1-2.525.865c-1.324.291-2.852.5-3.7.687a23.725,23.725,0,0,1-9.842.023,15.788,15.788,0,0,1-7.509-3.677,12.655,12.655,0,0,1-3.616-5.739,25.366,25.366,0,0,1,2.9,1.663c.226.146.437.293.63.439s.411.251.584.376a2.8,2.8,0,0,1,.746.7,11.315,11.315,0,0,0,4.592,3.532,15.868,15.868,0,0,0,5.142,1.234,64.584,64.584,0,0,0,8.771-.283A25.975,25.975,0,0,1,176.957,369.821Z" transform="matrix(-1, 0, 0, 1, 380, 0)" /><path d="M205.662,442.736c.437.771-3.048,11.2-3.5,15.356-.246,1.826-.451,3.708-.564,5.623l-.042.719-.014.361,0,.165,0,.048a.737.737,0,0,0,.028.18l.155.113,2.117,1.974c1.465,1.345,2.944,2.667,4.456,3.871.377.3.759.594,1.14.882l.573.424.145.1.072.051c.013.008.01,0,.01,0l.018,0c.059.017.094.017.107,0,.013-.054-.046-.06-.076-.349l-.27-2.044q-.172-1.211-.342-2.409c-.476-3.189-1.019-6.29-1.579-9.252-1.123-5.922-2.288-11.3-3.008-15.673,2.728,3.28,5.906,10.37,6.228,13.134.729,5.5,1.347,10.654,1.788,15.495q.1,1.169.208,2.316c.081.8.132,1.578.176,2.348l.074,1.149.038.568c-.106,0-.322-.178-.477-.258l-1.966-1.217a47.5,47.5,0,0,1-5.944-4.486c-1.622-1.41-3.13-2.83-4.565-4.221l-1.24-1.221-.387-.385a3.428,3.428,0,0,1,.019-.532l.069-1c.067-.978.166-1.938.287-2.878a53.322,53.322,0,0,1,2.447-10.256A74.1,74.1,0,0,1,205.662,442.736Z" transform="matrix(-1, 0, 0, 1, 380, 0)" /></svg>