<svg xmlns="http://www.w3.org/2000/svg" viewBox="0 0 380 600">
  <defs>
    <style>
      .cls-1, .cls-2 {
        fill: #1a5906;
        opacity: .2;
      }

      .cls-1, .cls-3, .cls-4, .cls-5, .cls-6, .cls-7, .cls-8, .cls-9, .cls-10, .cls-11 {
        stroke-width: 0px;
      }

      .cls-2 {
        stroke: #fff;
        stroke-miterlimit: 10;
        stroke-width: .5px;
      }

      .cls-4 {
        fill: #fff;
        opacity: .6;
      }

      .cls-5 {
        fill: #a2d111;
      }

      .cls-6 {
        fill: #568c00;
      }

      .cls-7 {
        fill: #c7d638;
      }

      .cls-8 {
        fill: #adee11;
      }

      .cls-9 {
        fill: #65b101;
      }

      .cls-10 {
        fill: #e4fe46;
      }

      .cls-11 {
        fill:#ffffff;
      }
    </style>
  </defs>
  <g id="funky">
    <g id="top-5" data-name="top">
      <g>
        <path class="cls-11 color-body" d="M270.79,394.13c7.82,17.33,16.02,36.59,13.93,55.92-4.07,21.69-22.75,20.89-31.15-1.71" style="fill:#ffffff;--backup-fill:#ffffff"></path>
        <path class="cls-3" d="M253.62,448.32c.78.16,2.37,3.97,5.13,7.68,1.36,1.85,3.01,3.66,4.73,4.97,1.71,1.32,3.47,2.07,4.73,2.31,2.24.47,4.42.12,6.2-.94,1.81-1.04,3.25-2.88,4.34-5.02,1.1-2.14,1.79-4.65,2.24-7.18l.09-.48.02-.13s0-.03,0-.1l.04-.98c.03-.66.06-1.33.09-1.98,0-1.32-.02-2.63-.07-3.92-.46-9.05-2.63-17.97-5-26.14-2.36-8.17-4.85-15.63-6.41-21.81,2.66,1.88,5.63,5.08,8.02,8.36,2.38,3.28,4.16,6.65,4.55,8.62,1.66,7.89,3.07,15.29,3.75,22.32.22,1.75.26,3.49.41,5.19.01,1.71.15,3.39.07,5.05-.02.83-.03,1.65-.05,2.47-.06.82-.11,1.62-.17,2.43-.03.42-.06.84-.09,1.26-.08.42-.17.83-.25,1.24-.14.79-.35,1.56-.55,2.34-.81,3.07-2.07,6.02-3.97,8.56-1.89,2.51-4.64,4.59-7.82,5.26-1.57.34-3.18.35-4.69.1-1.52-.23-2.9-.78-4.18-1.41-2.52-1.32-4.53-3.13-6.08-5.08-1.55-1.81-2.98-4.71-3.81-7.32-.44-1.3-.71-2.54-.93-3.53-.18-1.01-.3-1.77-.35-2.15Z"></path>
      </g>
      <path class="cls-10" d="M259.91,431.64s-.07.03-.11.05c1.75,15.39,2.65,31.02,3.04,42.66.04,1.07.07,2.11.1,3.11-35.24,16.06-95.31,22.22-136.05,9.98-.03-8.78-.1-17.09-.15-26.05-.02-4.48-.04-9.12-.04-14.07-.04-26.71,15.98-72.25,40.21-91.22,30.59-23.95,85.46-15.03,117.79,59.54-4.63,5.29-13.14,10.88-24.79,16Z"></path>
      <path class="cls-8" d="M270.26,426.52c-.95-10.11-9.29-10.11-9.29-18.7,0-7.71,5.36-13.13,13.27-12.81,3.68,6.23,7.19,13.1,10.46,20.64-3.12,3.57-8.01,7.27-14.44,10.87ZM190.6,393.71c13.18-14.94.98-35.27-15.73-42.8-2.8,1.5-5.46,3.23-7.96,5.19-9.77,7.65-18.19,19.61-24.78,32.92,3.49,5.8,10.82,10.77,16.34,15.73,3.01,3.01,5.02,9.04,2.01,11.05-9.04,8.03-29.12,8.03-27.12,24.1,2.01,10.04,13.06,13.06,15.06,22.09s-10.04,13.06-11.05,22.09c-.18,1.97-.26,3.96-.21,5.95,9.36,1.99,19.44,3.18,29.81,3.63-4.51-3.75-7.94-8.38-8.51-14.61-1-8.03,4.02-15.06,11.05-15.06,9.04,0,22.09,0,23.1-11.05,3.01-15.06-15.06-24.1-17.07-38.16-1-10.04,10.04-14.06,15.06-21.09ZM216.35,346.11c16.06,3.96,30.88,13.12,45.61,32.03,0,4.02-3.89,11.61-12.75,12.18,2.67,7.3,4.35,10.58,6.05,17.49-6.05,2.35-12.44-5.13-17.73-4.08-11.62,2.32-8.84,14.64-18.9,17.58-9.15,2.67-17.98-1.5-17.98-9.53,1-15.06,20.07-21.94,25.81-26.2,4.85-3.59,5.07-8.02,1.05-12.03-8.21-5.48-19.97-18.35-11.16-27.45ZM254.69,480.88c-16.57,6.71-29.32,9.61-51.01,11.55-10.19-3.65-10.95-21.58,1.99-27.41,12.94-5.83,21.62,1.87,25.11-9.04,2.6-8.12-7.8-16.44-5.02-25.11,2.53-7.89,12.05-8.03,18.08-5.02,16.07,10.04,4.02,28.12-6.03,38.16-5.19,6.27-2.85,11.22,4.02,10.04,9.89-1.69,14.97,2.47,12.87,6.83Z"></path>
      <path class="cls-1" d="M262.94,477.46c-35.24,16.06-95.31,22.22-136.05,9.98-.03-8.78-.1-17.09-.15-26.05l35.95-13.54,5.47-37.92s3.08,60.84,10.93,67.3c7.86,6.47,60.38,5.66,78.87-1.62,1.74-.68,3.36-1.09,4.88-1.26.04,1.07.07,2.11.1,3.11Z"></path>
      <path class="cls-3" d="M166.88,356.07c.7-.74,4.83-4.47,12.23-7.85,3.71-1.63,8.21-3.12,13.28-3.97,5.07-.86,10.68-1.08,16.42-.44,11.51,1.2,23.19,6.12,32.43,12.48,4.64,3.17,8.77,6.59,12.31,9.91.9.81,1.7,1.68,2.53,2.48.8.82,1.62,1.58,2.34,2.38,1.43,1.6,2.82,3.04,3.99,4.43,8.38,9.73,15.48,21.08,21.43,33.23.76,1.62,1.52,3.24,2.28,4.86l.89,1.96.22.49c-.03.15-.22.27-.32.41l-.72.8c-.46.52-1,1.11-1.45,1.54-.31.33-.63.64-.96.94-2.6,2.45-5.44,4.53-8.39,6.42-2.94,1.9-5.99,3.6-9.11,5.16-.78.4-1.56.78-2.35,1.15l-1.32.63c-.3.07-.14.27-.15.42l.25,2.19c.77,6.85,1.36,13.73,1.85,20.6.24,3.44.45,6.87.63,10.3.08,1.72.17,3.43.25,5.14.08,2.2.16,4.39.24,6.58l.02.58v.29c.03.06-.03.07-.07.09l-.14.06-1.12.47-2.21.93-2.41,1.02-2.39,1.02c-.8.33-1.62.6-2.42.9-1.62.59-3.23,1.17-4.85,1.76-1.62.56-3.26,1.03-4.89,1.54-6.5,2.06-13.07,3.59-19.57,4.97-11.39,2.32-22.9,3.78-34.37,4.46-11.47.68-22.92.58-34.18-.45-2.81-.31-5.62-.49-8.4-.96-1.39-.21-2.78-.42-4.17-.62l-2.08-.31-2.06-.42c-1.37-.28-2.74-.56-4.1-.84l-2.05-.42c-.68-.16-1.35-.36-2.02-.53-1.38-.37-2.77-.75-4.14-1.12l-3.8-1.02-.24-.06c-.01-.07,0-.16,0-.24v-.5s0-.99,0-.99v-1.98c.02-10.93.04-21.66.06-32.15,0-1.29.01-2.59.02-3.87.01-1.29-.01-2.55.07-3.89.06-1.32.12-2.64.17-3.95.14-1.3.27-2.59.41-3.88l.21-1.93.3-1.9c.21-1.26.41-2.52.62-3.77.5-2.48,1.01-4.94,1.59-7.37,2.38-9.67,5.59-18.77,9.35-27.21,3.78-8.44,8.13-16.23,13.04-23.14,4.91-6.89,10.41-12.93,16.52-17.47-4.97,4.71-10.15,11.22-14.69,18.82-4.57,7.59-8.56,16.2-11.76,24.8-3.21,8.6-5.62,17.19-7.24,24.73-1.64,7.54-2.42,14.01-2.88,18.45-.07,1.11-.13,2.23-.2,3.33l-.1,1.67-.03,1.72c-.04,2.3-.08,4.59-.12,6.88-.07,4.57-.14,9.1-.21,13.6-.06,4.5-.12,8.96-.18,13.39l-.02,1.66v.72s-.02.26-.02.26v.27s-.02.14-.02.14c0,.04.07.03.1.06l.53.17c.98.28,1.96.55,2.94.83,1.04.28,2.07.61,3.12.85,8.38,2.01,16.83,3.2,25.18,3.99,4.19.24,8.35.62,12.49.63,2.07.03,4.13.12,6.19.09,2.05-.04,4.1-.08,6.14-.12,2.04,0,4.07-.16,6.09-.27,2.02-.13,4.04-.2,6.04-.38,4-.41,7.98-.68,11.89-1.27,7.86-.93,15.5-2.47,22.97-4.13,1.85-.48,3.7-.95,5.54-1.42.92-.24,1.84-.46,2.75-.72.9-.28,1.81-.55,2.71-.82,1.79-.56,3.6-1.06,5.37-1.67,1.75-.63,3.5-1.26,5.24-1.88,1.76-.58,3.42-1.38,5.12-2.07l2.06-.87.39-.16c0-.14,0-.3,0-.44l-.03-.89c-.07-1.8-.14-3.59-.21-5.38-.09-1.81-.18-3.62-.27-5.42-.39-7.19-.9-14.25-1.55-21.19-.17-1.73-.34-3.46-.51-5.18-.2-1.85-.41-3.7-.61-5.54-.05-.61-.18-1.26-.17-1.83l1.65-.75,1.56-.71,1.14-.54c1.52-.72,3.01-1.48,4.49-2.26,2.94-1.57,5.77-3.26,8.45-5.11,1.33-.93,2.62-1.9,3.85-2.92.6-.52,1.21-1.03,1.78-1.58.29-.27.58-.54.85-.82.19-.19.3-.3.45-.47l.2-.23.1-.11s-.03-.09-.05-.14l-.26-.56-.91-1.96c-.69-1.45-1.31-2.93-2.05-4.34-1.44-2.84-2.84-5.67-4.41-8.38-1.47-2.76-3.14-5.37-4.73-8-.82-1.3-1.69-2.55-2.53-3.82l-1.27-1.89-1.34-1.83c-3.5-4.91-7.33-9.43-11.37-13.6-8.04-8.37-17.22-15.05-27.03-19.49-4.66-2.09-10.41-4.07-16.63-5.13-1.55-.33-3.14-.43-4.72-.64-.79-.11-1.6-.1-2.4-.16-.8-.03-1.6-.12-2.4-.09-1.6.04-3.2-.01-4.78.16-.79.06-1.58.13-2.36.19-.78.11-1.55.22-2.31.33-6.13.88-11.63,2.86-15.84,4.9-1.04.54-2.05.99-2.93,1.51-.88.52-1.7,1-2.43,1.43-1.43.92-2.53,1.7-3.27,2.19Z"></path>
      <path class="cls-3" d="M246.09,383.59c-.18.39.7,3.16,1.82,6.33,1.12,3.17,2.46,6.73,3.05,8.76,1.05,3.59,2.26,7.38,3.31,11.22,1.03,3.85,1.89,7.76,2.55,11.51,1.1,6.57,1.87,13.15,2.55,19.18.37,3.01.65,5.9,1.02,8.56.31,2.67.65,5.14,1.01,7.33.75-2,1.33-4.92,1.68-7.69.3-2.77.36-5.39.14-6.74-1.02-5.45-1.77-10.56-2.66-15.35-.87-4.79-1.73-9.27-2.77-13.43-2.1-8.32-4.68-15.34-7.29-21.26-1.21-2.83-3.86-7.51-4.4-8.42Z"></path>
      <g>
        <path class="cls-11 color-body" d="M127.79,401.72c-3.96,7.82-5.25,33.5-2.96,54.74,1.83,16.97,9.56,31.6,21.49,24.82,12.48-7.09,15.42-50.9,21.84-71.35" style="fill:#ffffff;--backup-fill:#ffffff"></path>
        <path class="cls-3" d="M168.22,409.95c.21.43-.12,2.21-.6,4.83-.49,2.62-1.12,6.08-1.76,9.81-1.26,7.46-2.63,15.97-3.23,20.75-.52,4.23-1.18,8.6-2.07,13.06-.9,4.46-2.01,9-3.7,13.54-.85,2.27-1.85,4.55-3.25,6.78-.34.56-.76,1.11-1.14,1.66-.41.55-.9,1.08-1.35,1.61-.54.51-1.05,1.03-1.66,1.5-.63.44-1.32.96-1.92,1.24-1.2.68-2.57,1.23-4.05,1.59-1.47.36-3.09.49-4.68.27-3.22-.41-6.02-2.1-7.95-4.01-1.76-1.67-3.05-3.54-4.14-5.42-1.08-1.89-1.94-3.83-2.65-5.77-1.42-3.89-2.28-7.82-2.83-11.71-.14-.97-.25-1.95-.34-2.91-.08-.94-.16-1.88-.23-2.81-.16-1.87-.24-3.72-.34-5.55-.13-3.67-.2-7.27-.11-10.78.13-7.02.69-13.7,1.65-19.85.48-3.08,1.07-6.02,1.84-8.8.78-2.78,1.63-5.41,3.07-7.76-.34,2.55-.2,5.34-.1,8.35.12,2.99.32,6.16.52,9.23.38,6.13.72,11.86.42,14.88-.61,6.08-.84,12.03-.72,17.78.09,2.89.16,5.72.5,8.42.32,2.72.83,5.37,1.55,7.91.72,2.53,1.66,4.96,2.88,7.13,1.23,2.15,2.76,4.08,4.63,5.29,1.86,1.21,4.01,1.55,6.08.99,1.04-.27,2.04-.72,3.01-1.26.84-.56,1.66-1.19,2.34-2.05,1.4-1.64,2.48-3.63,3.39-5.66.91-2.04,1.66-4.14,2.31-6.25,1.31-4.21,2.26-8.42,3.13-12.5,1.72-8.17,3.04-15.9,4.69-23.06.72-3.42,2.06-8.03,3.44-12.03,1.37-4.01,2.85-7.35,3.39-8.42Z"></path>
      </g>
      <path class="cls-10" d="M169.69,394.95c-2.78,21.55-3.71,33.87-5.89,49.29-14.3,3.08-41.02,5.72-57.1,1.18,0,0,2.37-13.76,8.4-30.23,6.93-18.94,18.68-41.47,37.17-50.87l17.42,30.63Z"></path>
      <path class="cls-8" d="M124.32,443.92c-.52,1.37-1.16,2.62-1.89,3.78-5.75-.29-11.16-.99-15.72-2.28,4.38-20.78,10.93-42.68,23.34-60.31,5.74,3.26,7.67,11.36,5.32,17.63-4.02,11.05-20.09,11.05-22.09,22.09-2.01,8.03,13.06,10.04,11.05,19.08ZM168.85,382.95c-2-8.36-4.89-14.73-9.02-17.45-9.46,2.57-17.43,10.38-17.43,20.18,1,9.04,8.03,13.06,14.06,20.09,1,2.01,1,4.02,0,6.03-6.03,10.04-24.1,12.05-20.09,27.12,1,3.01,2.26,6.01,4.01,8.52,8.88-.63,17.29-1.87,23.42-3.19,1.32-9.33,2.31-18.71,3.35-28.08,1.2-10.77,4.25-22.53,1.7-33.22Z"></path>
      <path class="cls-2" d="M255.86,370.35c-8.85,6.76-36.49,22.37-93.63,11.48-4.61-.88-9.41-1.93-14.41-3.18-3.38-.83-6.85-1.76-10.41-2.78,4.38-4.73,9.32-8.73,14.86-11.55l2.44,4.3c3.77-4.85,7.85-9.11,12.2-12.52,22.67-17.75,58.67-17.45,88.95,14.25Z"></path>
      <path class="cls-3" d="M152.29,364.37c-.13.21-.64.61-1.45,1.17-.41.28-.89.6-1.44.95-.52.39-1.11.82-1.74,1.29-1.3.89-2.67,2.11-4.2,3.38-.73.68-1.48,1.39-2.26,2.12-.76.75-1.5,1.56-2.28,2.36-6.11,6.54-11.37,15.32-13.72,20.46-4.29,9.01-7.97,19.08-10.96,29.44-1.48,5.18-2.81,10.44-3.9,15.66l-.39,1.95v.17s-.03.05.01.06l.16.03.29.05,1.82.31c.63.1,1.24.24,1.88.3,1.27.13,2.51.34,3.78.41,8.82.76,17.8.38,26.48-.35,4.34-.38,8.63-.88,12.8-1.52,1.04-.17,2.08-.34,3.11-.5l.77-.14c.18-.03.14-.02.15-.02h.02s.09.01.12,0l.04-.11v-.03s.07-.34.07-.34l.12-.77c.16-1.03.31-2.04.46-3.06,1.21-8.11,2.26-15.88,3.38-23.08,1.11-7.2,2.27-13.82,3.44-19.68.54,5.45.65,13.33.52,20.75-.13,7.42-.57,14.41-1.23,18.05-.33,1.83-.66,3.64-.99,5.44-.17.9-.33,1.8-.5,2.69l-.13.67-.2,1.18-.39,2.35-.02.14s0,.11-.07.1l-.3.05-.6.1-1.18.21-2.03.35c-.89.12-1.79.25-2.67.37-1.77.23-3.53.44-5.28.62-6.98.73-13.76,1.12-20.35,1.21-6.58.09-12.97-.16-19.13-1-1.54-.17-3.06-.52-4.57-.77-.97-.24-1.94-.48-2.9-.71-.48-.13-1-.23-1.44-.38l.27-1.51.29-1.5.27-1.34c.15-.72.31-1.45.46-2.16.31-1.43.64-2.85.98-4.26,2.71-11.23,6.03-21.54,10-30.89,3.98-9.33,8.69-17.68,14.3-24.62,2.6-3.34,6.76-7.45,10.91-10.37,1.06-.71,2.06-1.4,3.03-2.01.99-.56,1.92-1.08,2.75-1.54,1.7-.84,3.02-1.39,3.66-1.69Z"></path>
      <path class="cls-3" d="M159.46,435.33c-.12.17-1.72.84-3.66,1.27-.96.26-2.01.4-2.96.6-.95.16-1.82.27-2.44.39-4.37.78-9.46.89-14.03.79-8-.18-15.83-1.53-20.71-3.5,2.47-.11,6.89.1,8.44.44,6.22,1.51,11.9,1.82,16.87,1.8,4.98-.07,9.28-.54,13.01-1.01.88-.11,2.09-.26,3.18-.4,1.07-.18,1.99-.33,2.3-.38Z"></path>
      <path class="cls-3" d="M277.84,413.07c.03.37-2.71,2.17-3.71,2.97-1.74,1.44-3.96,2.76-6.01,3.88-3.58,1.97-7.41,3.23-10.07,3.6.84-1.17,2.7-2.54,3.49-2.71,3.2-.7,5.81-1.92,8-3.17,2.19-1.25,3.98-2.53,5.66-3.45.78-.46,2.32-1.01,2.63-1.11Z"></path>
      <g id="bracelet">
        <g>
          <path class="cls-9" d="M126.65,463.3c3.32-7.49-8.46-9.86-8.38-1.83.31,4.54,6.4,5.77,8.38,1.83Z"></path>
          <path class="cls-3" d="M126.67,463.31c.07.1,0,.41-.21.86-.13.2-.29.44-.49.68-.24.2-.46.48-.78.64-.58.43-1.34.63-2.03.74-.7.08-1.35.05-1.81-.04-1.66-.15-3.44-1.47-4.06-3.37-.17-.45-.26-.98-.3-1.46-.02-.48,0-.95.06-1.4.13-.93.45-1.88,1.02-2.7,1-1.47,2.8-2.29,4.42-2.28,1.64-.02,3.19.61,4.27,1.7,1.11,1.08,1.55,2.62,1.43,3.85-.09,1.26-.62,2.22-1.15,2.95-.24-.98-.45-2.15-.88-2.93-.39-.79-.85-1.15-.97-1.48-.24-.67-.88-1.25-1.62-1.55-.75-.31-1.6-.35-2.34-.11-.75.23-1.36.74-1.75,1.38-.38.65-.55,1.41-.57,2.14-.05,1.45.71,2.65,1.7,3.25,1,.63,2.15.75,3.15.61.47-.1,1.13-.25,1.73-.56.57-.32,1.02-.77,1.19-.91Z"></path>
        </g>
        <g>
          <path class="cls-8" d="M153.17,456.31c-1.94,7.96,10.07,8.2,8.57.31-1.11-4.41-7.32-4.54-8.57-.31Z"></path>
          <path class="cls-3" d="M153.15,456.31c-.09-.09-.07-.41.06-.88.1-.22.21-.48.37-.76.2-.24.37-.55.65-.77.5-.52,1.21-.86,1.87-1.09.67-.2,1.32-.29,1.79-.29,1.66-.15,3.64.84,4.59,2.6.25.42.43.92.56,1.38.1.46.17.93.19,1.39.04.93-.11,1.93-.53,2.84-.72,1.63-2.35,2.75-3.95,3.03-1.61.31-3.25-.04-4.5-.91-1.28-.86-1.99-2.3-2.09-3.54-.13-1.25.22-2.29.61-3.1.41.92.83,2.04,1.39,2.72.52.71,1.04.98,1.22,1.29.35.62,1.09,1.07,1.87,1.24.79.17,1.64.06,2.33-.31.69-.36,1.21-.97,1.48-1.67.26-.71.29-1.48.19-2.21-.2-1.43-1.17-2.48-2.25-2.89-1.09-.45-2.25-.35-3.21-.04-.45.18-1.07.45-1.6.86-.51.42-.87.94-1.01,1.11Z"></path>
        </g>
        <g>
          <path class="cls-8" d="M134.62,459.32c-2.24-8.58-14-2.27-8.46,4.37,3.35,3.57,9.44.31,8.46-4.37Z"></path>
          <path class="cls-3" d="M134.65,459.32c.12.04.26.36.38.88.02.26.04.57.03.91-.07.33-.07.71-.23,1.07-.21.75-.72,1.43-1.21,2-.53.54-1.1.96-1.53,1.21-1.47.99-3.83,1.22-5.68.07-.24-.12-.46-.28-.66-.46-.2-.18-.44-.35-.61-.54-.34-.39-.65-.79-.91-1.22-.53-.87-.89-1.9-.95-2.97-.13-1.91.84-3.75,2.16-4.84,1.32-1.12,3.01-1.69,4.64-1.58,1.64.1,3.12,1,3.89,2.12.81,1.11,1.03,2.28,1.09,3.25-.81-.69-1.76-1.56-2.64-1.94-.86-.43-1.53-.41-1.88-.59-.72-.36-1.68-.36-2.54-.07-.86.3-1.61.87-2.09,1.6-.49.72-.67,1.6-.56,2.42.11.82.5,1.59.98,2.23.96,1.27,2.47,1.74,3.75,1.51,1.31-.18,2.38-.92,3.14-1.76.34-.42.8-1.02,1.08-1.7.26-.67.32-1.36.36-1.59Z"></path>
        </g>
        <g>
          <path class="cls-10" d="M144.27,459.27c.57,4.18,5.33,4.83,7.57,3.42,3.45-2.17,2.28-6.35.41-7.83-3.9-3.09-8.49.67-7.98,4.41Z"></path>
          <path class="cls-3" d="M144.25,459.27c-.11-.04-.25-.37-.29-.89-.03-.51.05-1.21.34-1.9.29-.68.73-1.37,1.26-1.88.52-.53,1.09-.91,1.52-1.17,1.48-.97,3.88-.94,5.54.18.41.23.89.6,1.23,1,.36.39.64.82.88,1.27.47.9.75,1.89.78,2.91.03.89-.14,1.82-.54,2.66-.4.84-1.02,1.53-1.69,2.06-.63.51-1.55.95-2.34,1.09-.81.16-1.6.18-2.36.06-1.5-.23-2.86-.97-3.7-2.05-.87-1.06-1.09-2.31-1.02-3.28.19.19.38.39.58.59.19.2.43.38.62.55.45.33.87.6,1.31.75.84.34,1.58.37,1.95.58.76.38,1.72.53,2.53.34.21-.03.38-.11.58-.19.19-.11.39-.21.57-.33.34-.25.67-.54.89-.89.98-1.38.64-3.35-.25-4.56-.22-.32-.48-.57-.75-.78-.32-.18-.61-.43-.95-.53-.64-.3-1.31-.37-1.92-.32-.62.05-1.2.25-1.71.55-.52.28-.97.65-1.35,1.07-.36.39-.87.97-1.18,1.61-.17.31-.28.64-.37.91-.07.28-.12.5-.14.61Z"></path>
        </g>
        <g>
          <path class="cls-10" d="M133.78,461.03c1.13,3.89,6.52,5,9.61,1.68,2.92-3.14.54-7.91-2.13-8.71-5.07-1.51-8.49,3.56-7.48,7.03Z"></path>
          <path class="cls-3" d="M133.75,461.04c-.11-.04-.34-.38-.43-.96-.13-.57-.09-1.36.11-2.16.37-1.65,1.65-3.17,2.5-3.86.74-.64,1.71-1.12,2.78-1.32.27-.04.54-.09.81-.1h.82c.28.01.54.08.81.12.26.04.54.09.86.22,1.21.44,2.08,1.27,2.74,2.17.66.91,1.11,1.95,1.32,3.05.18.95.17,1.98-.12,2.96-.29.97-.82,1.85-1.47,2.56-1.29,1.35-3.08,2.17-4.8,2.23-1.72.1-3.34-.48-4.47-1.43-1.14-.96-1.75-2.25-1.85-3.36.85.82,2.03,1.49,3.05,1.73,1.04.25,1.91.19,2.38.31.94.24,2.01.16,2.91-.31.91-.45,1.67-1.18,2.06-2.05.83-1.78.09-3.94-1.1-5.19-.31-.3-.64-.58-1-.76-.34-.2-.7-.27-1.13-.34-.81-.13-1.6-.1-2.29.13-1.41.42-2.45,1.43-3.19,2.52-.32.53-.78,1.29-1.02,2.06-.14.38-.19.76-.25,1.08-.02.32-.03.57-.03.7Z"></path>
        </g>
      </g>
      <path class="cls-1" d="M284.7,415.64c-4.63,5.29-13.14,10.88-24.79,16l-10.7-41.32,1.44,3.81s12.86,32.66,34.05,21.51Z"></path>
      <path class="cls-1" d="M163.8,444.24c-14.3,3.08-41.02,5.72-57.1,1.18,0,0,2.37-13.76,8.4-30.23l.41-.24s-8.45,34.96,48.29,29.29Z"></path>
    </g>
    <g id="beanie">
      <path class="cls-3" d="M135.88,238.69c-.02.29-.27.18-.27.18l.27-.18Z"></path>
    </g>
  </g>
  <g id="Layer_52" data-name="Layer 52">
    <circle class="cls-4" cx="140.39" cy="457.68" r="2.23"></circle>
    <circle class="cls-4" cx="149.81" cy="457.01" r="2.23"></circle>
    <circle class="cls-4" cx="158.37" cy="457.01" r="2.23"></circle>
    <circle class="cls-4" cx="128.2" cy="459.92" r="2.23"></circle>
    <path class="cls-6" d="M118.95,460.4s1.06,2.24,4.61,1.44c0,0,.87,1.96,1.53,2.56,0,0-.84.46-2.05.5-2.42.09-4.45-2.04-4.1-4.44v-.06Z"></path>
    <path class="cls-5" d="M125.56,461.44s1.85,1.99,4.08,1.62c2.45-.4,3.73-1.82,3.73-1.82l.19.9s-1.1,2.3-4.27,2.27-3.73-2.97-3.73-2.97Z"></path>
    <path class="cls-7" d="M134.64,457.96s.72,3.19,4.65,3.51c3.15.25,4.83-2.54,4.83-2.54,0,0,.32,4.65-5.05,4.5-2.16-.06-3.17-.66-4.52-1.31-.59-.29-.69-.74-.75-1.25-.13-1.06.84-2.91.84-2.91Z"></path>
    <path class="cls-7" d="M146.16,458.88c-.03-.09.96,1.63,2.96,1.78,3.28.24,4.45-1.57,4.36-1.57s.14,2.9-3.34,3.12c-2.96.19-4.16-1.17-4.16-1.17,0,0,.3-1.77.18-2.16Z"></path>
    <path class="cls-5" d="M155.53,458.79s.82,1.09,2.2,1.1c2.68.03,3.51-1.36,3.51-1.36,0,0,.29,2.62-3.05,3.02,0,0-2.03.15-2.85-1.23l.18-1.53Z"></path>
  </g>
</svg>