<svg xmlns="http://www.w3.org/2000/svg" viewBox="0 0 380 600">
  <defs>
    <style>
      .cls-1 {
        fill: none;
      }

      .cls-1, .cls-2, .cls-3, .cls-4, .cls-5, .cls-6, .cls-7, .cls-8, .cls-9, .cls-10, .cls-11, .cls-12, .cls-13, .cls-14, .cls-15, .cls-16 {
        stroke-width: 0px;
      }

      .cls-2 {
        opacity: .5;
      }

      .cls-2, .cls-5 {
        fill: #08bc99;
      }

      .cls-4 {
        fill: #70fce1;
      }

      .cls-6 {
        fill: #087a6f;
      }

      .cls-7 {
        fill: #aaa;
      }

      .cls-8 {
        fill: #666;
      }

      .cls-9 {
        fill: #fff;
      }

      .cls-10 {
        fill: #fff0ca;
      }

      .cls-11 {
        fill: #fedc56;
      }

      .cls-12 {
        fill: #e5e5e5;
      }

      .cls-13 {
        fill: #eabe32;
      }

      .cls-14 {
        fill: #00bf9a;
      }

      .cls-15 {
        fill:#ffffff;
      }

      .cls-16 {
        fill: #01e2b7;
      }
    </style>
  </defs>
  <g id="tracksuit">
    <g id="bottom-3" data-name="bottom">
      <path class="cls-6" d="M189.49,483.32s20.41,1.27,34.83-.47c12.63-1.53,19.59-4.65,19.59-4.65l3.21-1.45c2.48-1.13,5.22-2.67,7.51-4.23.36-.25.7-.5,1.03-.78.67-.54,1.82-1.52,2.86-2.58.38-.39.6-.9.61-1.45l.06-3.07c-2.77,3.38-6.07,6.01-9.92,8.09l-6.49,3.5s-11.19,3.8-16,3.47-3.5-.93-3.5-.93c0,0-.65,1.97-3.13,2.22s-30.73.37-30.73.37l.08,1.96Z"></path>
      <path class="cls-6" d="M153.45,477.25s7.07,2.08,15.15,3.02l.17-.94-14.92-3.32-.4,1.24Z"></path>
      <path class="cls-6" d="M166.84,479.98s15.66,3.17,22.82,3.3l.18-2.01s-15.36-.97-22.66-2.08l-.34.8Z"></path>
    </g>
    <g id="top-3" data-name="top">
      <g id="jacket">
        <g>
          <path class="cls-9" d="M174.43,355.11c-30.32,7,56,72.9,51.17,14.08-3.01-24.15-34.38-17.6-51.17-14.08Z"></path>
          <g>
            <path class="cls-1" d="M174.43,355.11c-30.32,7,56,72.9,51.17,14.08-3.01-24.15-34.38-17.6-51.17-14.08Z"></path>
            <path class="cls-3" d="M174.43,355.12c-.25.22-2.04.44-4.01,1.93-.95.74-1.89,1.91-2.09,3.43-.25,1.51.06,3.2.72,4.81,1.31,3.25,3.67,6.27,5.99,8.79,2.35,2.52,4.72,4.56,6.48,5.94,3.11,2.42,6.5,4.71,10.14,6.69,3.64,1.98,7.53,3.7,11.59,4.78,2.03.54,4.1.91,6.17,1.01,2.06.1,4.13-.07,6.03-.69,1.9-.61,3.61-1.65,4.95-3.07,1.33-1.43,2.28-3.17,2.94-5,.58-1.61.91-3.31,1.17-5.02.19-1.72.31-3.46.28-5.2-.01-.87-.01-1.74-.08-2.6-.05-.86-.08-1.73-.25-2.54-.22-1.66-.75-3.28-1.33-4.81-.68-1.5-1.5-2.92-2.55-4.15-1.07-1.21-2.28-2.28-3.63-3.14-2.72-1.7-5.83-2.71-8.94-3.23-3.12-.55-6.24-.71-9.27-.66-3.03.05-5.98.28-8.8.59-5.65.64-10.83,1.6-15.44,2.42,4.01-1.27,9.97-2.87,15.75-3.83,5.77-1,11.39-1.16,14.32-.82,2.94.3,5.85.84,8.58,1.84,2.72.99,5.28,2.43,7.34,4.39,2.04,1.98,3.52,4.42,4.41,6.99.9,2.56,1.27,5.24,1.32,7.82.06,2.59-.03,5.14-.41,7.64-.38,2.49-1.06,4.92-2.23,7.1-1.15,2.18-2.84,4.07-4.93,5.28-2.07,1.25-4.43,1.81-6.72,1.96-4.62.29-9-.86-12.98-2.33-3.99-1.5-7.66-3.42-11.03-5.54-3.37-2.11-6.45-4.44-9.23-6.91-2.78-2.47-5.26-5.11-7.29-7.94-.97-1.34-2.02-3.02-2.79-4.94-.4-.95-.68-1.98-.85-3.02-.13-1.05-.11-2.12.16-3.12.26-1,.85-1.84,1.48-2.49.34-.31.66-.61,1.02-.82.34-.25.69-.43,1.03-.58,1.35-.64,2.47-.82,3.01-.96Z"></path>
          </g>
        </g>
        <g>
          <path class="cls-15 color-body" d="M213.04,356.2c12.61,5.04,13.64,22.16,3.4,26.68-11.34,5.01-31.86-5.01-40.03-15.83-10.62-14.07,31.25-13.01,36.64-10.85Z" style="fill:#ffffff;--backup-fill:#ffffff"></path>
          <path class="cls-3" d="M213.04,356.18c.25.04,1.55.44,3.24,1.5,1.68,1.06,3.7,2.87,5.15,5.33,1.47,2.44,2.31,5.46,2.33,8.25.05,2.8-.7,5.31-1.57,6.92-.73,1.44-1.79,2.78-3.13,3.82-1.33,1.06-2.92,1.8-4.57,2.27-3.32.93-6.87.82-10.25.24-3.4-.58-6.7-1.65-9.82-2.99-3.13-1.34-6.08-2.97-8.81-4.79-2.39-1.59-4.65-3.37-6.7-5.37-1.03-.99-1.99-2.05-2.88-3.17-.89-1.11-1.77-2.39-2.17-3.96-.2-.78-.24-1.66-.04-2.49.2-.83.63-1.58,1.14-2.19,1.05-1.21,2.35-1.92,3.62-2.51,2.58-1.12,5.2-1.66,7.75-2.06,5.11-.76,10-.84,14.51-.7,2.26.08,4.42.23,6.48.47,2.06.27,4,.49,5.81,1.17-6.68-1.02-19.26.07-23.69.5-2.24.18-4.43.48-6.54.96-2.09.49-4.15,1.16-5.77,2.31-.8.58-1.46,1.31-1.74,2.16-.3.85-.19,1.81.15,2.71.34.9.88,1.73,1.5,2.53.6.8,1.26,1.56,1.94,2.29,2.72,2.91,5.82,5.29,8.99,7.28,3.18,1.99,6.46,3.6,9.77,4.79,3.3,1.18,6.63,2,9.89,2.2,3.24.21,6.45-.19,9.1-1.54,2.66-1.33,4.49-3.77,5.36-6.39.89-2.63.9-5.43.34-7.98-.27-1.21-.74-2.62-1.44-3.99-.7-1.37-1.63-2.7-2.67-3.8-1.04-1.11-2.17-1.97-3.13-2.6-.98-.61-1.78-.98-2.17-1.18Z"></path>
        </g>
        <g>
          <g>
            <path class="cls-15 color-body" d="M258.86,451.68c-2.82,28.42,28.31,20.27,24.35-6.24" style="fill:#ffffff;--backup-fill:#ffffff"></path>
            <path class="cls-3" d="M283.18,445.44c-.31.27-.13,2.36-.23,4.74-.12,2.39-.68,5.03-1.27,6.4-1.01,2.41-2.4,4.79-4.22,6.75-.94.95-1.94,1.82-3.03,2.49-1.1.65-2.24,1.16-3.39,1.44-2,.44-4,.27-5.61-.63-1.65-.82-2.85-2.42-3.71-4.16-.84-1.76-1.37-3.68-1.67-5.53-.18-.92-.24-1.83-.39-2.7-.06-.88-.13-1.72-.22-2.52-.46.67-.9,1.52-1.3,2.48-.31.96-.66,2.03-.78,3.1-.36,2.13-.04,4.26.43,5.27.96,2.03,2.24,3.88,3.87,5.24,1.62,1.38,3.59,2.2,5.51,2.43,1.92.24,3.78-.07,5.43-.65,1.66-.59,3.12-1.44,4.43-2.42,2.54-2.03,4.43-4.53,5.6-7.12,1.2-2.59,1.77-5.23,1.86-7.67.01-.58-.02-1.27-.07-1.98-.08-.71-.24-1.45-.37-2.12-.31-1.35-.73-2.47-.85-2.83Z"></path>
          </g>
          <g>
            <path class="cls-15 color-body" d="M126.43,463.37c-.07,37.04,28.85,28.28,27.19,2.69" style="fill:#ffffff;--backup-fill:#ffffff"></path>
            <path class="cls-3" d="M153.59,466.06c-.33.27-.29,2.57-.69,5.17-.35,2.61-1.28,5.44-2.09,6.85-1.42,2.47-3.27,4.93-5.67,6.51-1.18.79-2.47,1.37-3.77,1.63-1.3.28-2.59.17-3.74-.21-2.04-.64-3.76-2.21-5.08-4.09-1.32-1.9-2.25-4.13-2.95-6.32-.41-1.08-.62-2.21-.94-3.28-.21-1.1-.49-2.15-.68-3.19-.17-1.04-.4-2.04-.53-3.01-.14-.97-.29-1.89-.45-2.76-.4.78-.76,1.76-1.07,2.84-.31,1.07-.47,2.24-.63,3.38-.12,1.14-.11,2.26-.08,3.24.09.97.24,1.79.43,2.33,1.59,4.34,3.66,8.33,6.82,11.08,1.58,1.35,3.46,2.29,5.41,2.63,1.95.34,3.9.08,5.61-.55,3.43-1.31,5.95-3.8,7.65-6.41,1.7-2.64,2.66-5.46,3.03-8.13.13-.63.16-1.39.16-2.17.03-.78-.06-1.6-.14-2.36-.15-1.51-.52-2.77-.6-3.19Z"></path>
          </g>
        </g>
        <path class="cls-16" d="M149.74,364.22c6.38-4.79,12.86-7.96,20.9-8.02-1.79,3-1.59,5.8,1.46,7.78,10.71,8.43,24.13,12.27,35.66,19.27,4.62,3.2,6.74,7.51,9.07,12.45-1.09-2.31-.22-7.22.16-9.67.45-2.88,1.55-5.54,2.89-8.11,5.31-10.24,1.23-18.45-8.19-25.31,12.07-2.2,23.4,1.04,30.49,12.45-.18-.21.07-.27.49-.25,3.03.43,4.22.88,6.55,1.47,7.63,2.11,12.46,8.8,16.16,15.36,3.81,5.63,6.17,12.93,7.82,19.45.66,2.61,1.22,5.32,2.64,7.61,3.67,5.14,7.93,9.73,7.21,16.61-.13,3.68-1.24,6.17.87,9.51,2.44,3.27,5.11,7.11,1.39,10.66,5,12.22-23.72,16.38-22.91,7.48-.81,1.51-1.1,3.34-2.3,4.64-2.21,2.39.54,5.58-1.82,8.35-8.46,8.87-31.59,15.35-35.64,12.61-.56,1.6-10.94,2.55-16.57,2.71-16.24.17-26.04.38-52.37-5.17-.09.82.84-4.43-.24-3.78-7.56,4.58-35.6,4.66-30.06-6.39.74-1.84-2.22-3.69-2.67-5.77-.28-1.28,1.06-7.09.82-7.42-4.63-6.35-6.13-7.76-.02-14.88,4.24-6.49,2.56-12.81,2.02-20.54-1.44-17.22,8.91-30.96,22.21-40.59-5.26-4.41-.23-9.35,3.98-12.51Z"></path>
        <path class="cls-9" d="M135.97,468.39c-3.77,0-7.26-.12-8.99-3.28-2.76-5.36,5.07-8.56.92-14.58-5.94-8.62,1.08-9.71,2.48-18.08.81-4.86-.13-6.49-.65-10.59-.51-4.06-.51-8.2.07-12.26.32-11.17,16.52-36.17,29.11-26.81-15.86,5.49-24.48,23.09-22.71,39.07.43,3.93.71,5.98.31,9.94-.99,9.76-5.94,12.83-.12,21.97,2.64,6.41-6,8.85-.42,14.62Z"></path>
        <g>
          <path class="cls-3" d="M152.66,475.78c.34.01,1.34.22,2.86.57.77.15,1.67.34,2.69.54,1.02.18,2.16.38,3.4.6,4.97.8,11.61,1.51,18.75,1.9,7.14.38,14.78.47,21.76.35,3.49-.06,6.81-.17,9.83-.3,1.51-.08,2.94-.15,4.27-.22.33-.02.66-.04.98-.05h.27s.29-.01.29-.01h.45c.3.01.58,0,.85-.03.28,0,.53-.04.77-.09.22-.02.42-.07.6-.14.2-.04.34-.13.49-.2.26-.18.44-.31.54-.61.25-.58.25-1.59.25-2.57v-1.53s0-.79,0-.79l.04-1,.74-1.62c.19-.45.45-.85.57-1.33,1.32-3.68,1.67-7.77,1.62-11.88-.15-8.27-1.88-16.69-3.41-25.2-.39-2.13-.75-4.29-1.08-6.46l-.81-6.48-.38-3.2-.46-3.18c-.16-1.06-.3-2.12-.48-3.17l-.57-3.13-.28-1.56-.35-1.53c-.24-1.02-.48-2.04-.71-3.05-.29-.99-.59-1.98-.88-2.96-.28-.99-.71-1.9-1.05-2.85-1.53-3.71-3.65-6.96-6.77-9.15-3.24-2.38-7.21-4.07-11.13-5.87-3.95-1.8-7.86-3.62-11.68-5.58-3.81-1.96-7.53-4.07-11-6.45-.87-.59-1.72-1.21-2.56-1.83-.85-.64-1.83-1.4-2.63-2.58-.39-.59-.73-1.3-.88-2.07-.16-.76-.14-1.53-.02-2.2.02-.16.07-.36.09-.47,0,.02,0,0,0,0h0s.02-.04.02-.04c0-.01-.02,0-.02,0h-.02s-.01,0-.01,0l-.23.03c-1.15.12-2.28.37-3.39.62-2.22.58-4.38,1.4-6.42,2.46-2.05,1.05-4.01,2.28-5.89,3.63-1.88,1.32-3.59,2.76-4.97,4.36-.66.8-1.23,1.64-1.52,2.42-.3.8-.29,1.39,0,1.91.11.28.41.54.67.82l.54.37c.09.06.16.13.17.12l.33.15c1.04.47,2.08.94,3.12,1.4,4.12,1.9,8.09,3.89,11.88,6.02,3.79,2.12,7.39,4.36,10.77,6.72.85.6,1.66,1.17,2.51,1.82.87.68,1.58,1.36,2.3,1.93,1.44,1.17,2.8,1.62,4.16.86,1.45-.75,2.76-2.12,4.18-3.38,1.47-1.25,2.96-2.37,4.68-3.24.86-.41,1.76-.74,2.7-.94.94-.18,1.89-.21,2.82-.12,1.84.22,3.51.89,4.99,1.69-2.01-.76-4.49-1.47-7-.89-2.5.56-4.64,2.26-6.63,4.18-.98.94-1.88,2.06-2.99,3.09-.56.52-1.16,1.02-1.88,1.45-.7.43-1.67.73-2.59.71-.94,0-1.84-.3-2.6-.69-.76-.39-1.42-.86-2.03-1.32-.61-.46-1.18-.92-1.72-1.28-.61-.39-1.21-.78-1.82-1.17-9.82-6.17-19.9-10.52-25.12-12.95l-1.22-.56-.36-.16c-.23-.09-.36-.2-.49-.29l-.69-.5-.34-.25-.32-.33-.63-.68c-.19-.25-.35-.56-.52-.84-.08-.15-.17-.29-.23-.44l-.15-.49c-.24-.65-.25-1.32-.25-1.98.09-.61.18-1.25.4-1.76.37-1.1.96-1.95,1.54-2.76,2.43-3.12,5.44-5.16,8.35-7.06,2.95-1.9,6.08-3.47,9.34-4.5,1.63-.51,3.27-.9,4.92-1.14l1.23-.15c.58-.08,1.23-.08,1.83-.12.61-.04,1.22-.06,1.82-.07l.9-.02h.45c.16-.02.18.05.28.07-.45.88-.91,1.8-1.33,2.69-.21.45-.37.88-.49,1.32-.06.23-.09.45-.11.66-.07.85.26,1.58.94,2.31.65.71,1.6,1.36,2.5,2.04.91.66,1.82,1.31,2.76,1.92,3.72,2.48,7.62,4.61,11.53,6.58,3.92,1.98,7.84,3.8,11.73,5.6,3.87,1.82,7.81,3.72,10.97,6.69,3.2,2.95,5.19,6.87,6.47,10.75.35.97.59,1.96.89,2.93l.42,1.46.33,1.47c.22.98.44,1.96.67,2.93.17.98.35,1.96.52,2.93.38,1.94.64,3.89.91,5.81.3,1.92.52,3.84.74,5.74.44,3.83.88,7.49,1.54,11.15,1.27,7.29,2.69,14.4,3.33,21.45.29,3.53.4,7.04.11,10.52-.26,3.47-1.06,6.93-2.64,10.05l-.26.53s-.08.15-.06.24l-.02.53v.6c-.03.8-.02,1.61-.06,2.47-.06.85-.07,1.81-.65,2.87-.13.26-.36.49-.55.72-.23.18-.47.39-.72.52-.5.27-.99.4-1.46.51-.92.16-1.79.18-2.63.15h-.32c-.06,0-.07,0-.2,0l-.6.02-1.19.05c-1.58.06-3.15.11-4.71.16-6.24.18-12.3.2-18.18.04-6.61-.15-15.63-.76-23.48-1.95-3.92-.59-7.55-1.29-10.45-2-1.45-.36-2.71-.71-3.75-1.01-1.03-.33-1.83-.58-2.37-.76Z"></path>
          <path class="cls-3" d="M221.65,389.57c.19-.23.57-1.52,1.34-3.33.4-.9.9-1.93,1.66-2.9.74-.96,1.86-1.79,3.17-1.71,2.89.19,6.05.62,9.04,1.23,2.99.61,5.81,1.42,8.1,2.21l-.08-.03c.59.27,1.24.45,1.89.4.66-.06,1.23-.35,1.66-.7.92-.8,1.35-1.89,1.52-2.97.09-.55.08-1.11,0-1.68l-.08-.43-.04-.3-.11-.74c-.33-1.98-.97-3.95-1.77-5.83-1.6-3.77-3.87-7.27-6.39-10.55-1.27-1.64-2.62-3.22-4.04-4.73l-1.16-1.19-1.35-.98c-.89-.59-1.8-1.15-2.74-1.64-3.78-1.97-7.98-2.93-12.02-3.13-.89-.05-1.77-.05-2.65-.05l-1.32.05c-.22,0-.44.03-.66.04l-.82.07c-1.66.17-3.23.42-4.87.65l-1.22.18-.3.05-.15.02s-.06,0-.06.02l.06.05.45.38,1.82,1.51c.31.26.58.49.94.76l1.04.8,1.41,1.2c.57.56,1.18,1.08,1.71,1.67,1.11,1.13,2.05,2.38,2.88,3.66.77,1.31,1.42,2.67,1.8,4.09.34,1.42.56,2.88.44,4.33,0,.36-.06.72-.11,1.09-.06.36-.08.72-.16,1.08-.2.71-.3,1.43-.58,2.11l-.36,1.04c-.13.34-.3.67-.44,1.01l-.46,1.01-.52,1.06c-.67,1.43-1.27,2.91-1.71,4.44-.43,1.53-.65,3.08-.77,4.6-.17,3.03.1,5.9.44,8.61.73,5.43,1.79,10.31,2.77,14.64-.08-4.02-.59-9.85-.8-15.31-.09-2.72-.07-5.34.17-7.53.23-2.2.71-3.95,1.1-5.17.62-2.19,1.77-4.2,2.67-6.59.86-2.33,1.34-4.82,1.23-7.28-.1-2.46-.8-4.82-1.88-6.9-1.08-2.09-2.52-3.89-4.08-5.48-.37-.42-.8-.78-1.2-1.16-.39-.37-.83-.76-1.22-1.07-.46-.39-.95-.75-1.46-1.12-.25-.12.05-.11.17-.14l.44-.07.9-.12,1.25-.12c.51-.03,1.02-.05,1.52-.08,4.04-.14,8,.45,11.52,1.85,1.76.7,3.41,1.59,4.93,2.64l.56.4c.17.13.41.28.49.37l.96.98c.63.67,1.25,1.34,1.84,2.03,2.38,2.73,4.46,5.57,6.18,8.49,1.71,2.91,3.08,5.92,3.76,8.95.09.38.14.77.21,1.16l.11.63c.03.16.07.31.08.48.06.65-.01,1.35-.25,1.94-.23.58-.6,1.09-1.04,1.26-.42.2-.94.16-1.5-.11l-.05-.02-.05-.02c-3.5-1.12-6.63-1.83-9.69-2.31-1.54-.25-3.39-.46-5.31-.58-.48-.02-.97-.05-1.45-.07-.5,0-.93-.06-1.52,0-1.12.09-2.11.72-2.77,1.44-1.32,1.5-1.88,3.2-2.31,4.53-.41,1.35-.61,2.39-.72,2.91Z"></path>
          <path class="cls-3" d="M146.38,376.71c-.13.27-1.19.96-2.74,1.99-.74.56-1.64,1.15-2.56,1.88-.9.76-1.92,1.5-2.85,2.43-1.97,1.73-3.78,3.86-5.34,5.87-1.5,2.06-2.7,4.02-3.41,5.5-1.33,2.57-2.35,5.39-3.19,8.3-.85,2.91-1.35,5.96-1.55,9.03-.15,1.53-.08,3.08-.08,4.61.06,1.54.21,3.07.4,4.63.18,1.56.41,3.13.53,4.79.12,1.65.1,3.44-.32,5.19-.36,1.53-1.04,2.99-1.87,4.26l-.63.92-.54.76c-.34.51-.68,1.02-.95,1.53-1.18,2.07-1.65,4.11-1.26,6.23.18,1.06.54,2.15,1.03,3.21.23.54.5,1.07.77,1.59l.43.79.51.98c.33.74.6,1.56.66,2.46.07.89-.08,1.75-.27,2.45-.41,1.42-.78,2.28-.77,3.12-.01.41.04.86.15,1.27.11.4.27.76.51,1.12.47.71,1.27,1.4,2.14,2.12l.66.55.57.43c.41.27.82.54,1.27.76.89.47,1.84.86,2.8,1.17,3.87,1.27,7.78,1.79,11.18,1.86-3,1.03-7.77,1.49-12.29.63-1.13-.23-2.25-.51-3.32-.96-.54-.21-1.06-.47-1.56-.76-.25-.16-.49-.31-.73-.46-.2-.13-.39-.27-.58-.4-.75-.52-1.51-1.08-2.17-1.72-.66-.65-1.19-1.39-1.49-2.06-.61-1.37-.8-2.76-.64-4.15.16-1.38.69-2.5.95-3.34.28-.85.32-1.46.11-2.23-.12-.39-.27-.72-.5-1.19-.24-.48-.5-.94-.71-1.43-.89-1.93-1.67-3.96-1.83-6.14-.22-2.17.32-4.35,1.23-6.16.44-.92.98-1.76,1.52-2.56.55-.76,1.09-1.51,1.63-2.25.94-1.47,1.48-3.1,1.65-4.78.14-1.69-.02-3.42-.21-5.14-.19-1.72-.41-3.44-.52-5.14-.14-1.71-.11-3.4-.1-5.06.11-1.66.19-3.29.46-4.88.46-3.19,1.23-6.23,2.31-9.04.48-1.43,1.16-2.76,1.75-4.09.71-1.28,1.33-2.57,2.13-3.74,1.47-2.41,3.23-4.51,5.02-6.43,1.72-1.81,4.38-3.96,6.92-5.51.64-.38,1.27-.71,1.86-1.04.58-.33,1.13-.62,1.64-.83,1.01-.45,1.78-.79,2.16-.95Z"></path>
          <path class="cls-3" d="M155.25,397.92c.11-.02.38.07.77.26.39.19.93.45,1.48.87,1.19.75,2.54,2.04,3.88,3.5,1.3,1.5,2.52,3.24,3.51,4.91.96,1.68,1.72,3.28,2.23,4.44.93,2.04,1.6,4.3,1.99,6.68.38,2.39.45,4.9-.07,7.45l-.08.48-.14.52c-.1.33-.21.65-.33.94-.23.6-.47,1.15-.69,1.68-.45,1.04-.79,2.01-.83,2.77,0,.19,0,.36.02.53l.05.24c0,.07.06.24.09.36.13.51.3,1.04.47,1.56.34,1.06.73,2.13,1.07,3.29.29,1.01.54,2.08.66,3.2.06.56.08,1.13.07,1.69-.02.29-.02.55-.05.87-.06.37-.09.72-.21,1.1-.22.75-.65,1.5-1.19,2.05-.53.55-1.1.94-1.6,1.21-1.01.56-1.82.91-2.22,1.25-.42.34-.49.49-.6,1.1-.09.69-.05,1.46.04,2.34.09.87.23,1.87.21,2.96-.02,1.09-.24,2.3-.72,3.3-.86,1.88-2.15,3.43-3.56,4.63-1.42,1.2-2.97,2.07-4.49,2.72-3.07,1.28-6.06,1.74-8.68,1.77,2.23-1.07,5.29-2.53,7.7-4.31,2.46-1.75,4.05-3.75,4.83-4.78.41-.5.79-1.1,1.07-1.62.25-.5.4-1.05.46-1.68.12-1.26-.17-2.83-.1-4.51.02-.42.06-.85.13-1.27.1-.45.2-.93.44-1.38.43-.91,1.2-1.59,1.92-2,1.43-.82,2.75-1.19,3.33-2.01.31-.4.42-.86.46-1.51.05-.64.04-1.28-.03-1.91-.12-1.27-.46-2.52-.84-3.76-.38-1.24-.8-2.49-1.12-3.77-.18-.66-.24-1.47-.14-2.16.09-.71.28-1.36.51-1.98.45-1.23,1.01-2.31,1.37-3.36.09-.27.17-.5.22-.77l.14-.83c.1-.55.19-1.09.2-1.64.19-2.19-.03-4.35-.47-6.37-.42-2.03-1.04-3.95-1.8-5.74-.73-1.8-1.61-3.47-2.55-5.02-.88-1.49-2.2-3.45-3.55-5.07-.65-.83-1.38-1.5-1.94-2.08-.61-.53-1.07-.93-1.3-1.14Z"></path>
          <path class="cls-3" d="M123.42,465.96c.12.14.1.62,0,1.25.03.32.01.69.05,1.07.12.37.13.79.36,1.16.66,1.59,2.6,2.61,3.67,2.94,3.9,1.15,8.71,1.48,12.97,1.15,3.7-.32,7.39-.9,10.27-2.12,1.43-.61,2.63-1.37,3.28-2.34.69-.94.83-2.18.67-3.4.52.36,1.16.92,1.5,1.77.24.41.26.89.34,1.41.06.51-.06,1.02-.14,1.55-.15.48-.35.97-.57,1.41-.25.4-.53.77-.79,1.11-.58.57-1.12,1.05-1.56,1.19-1.73.73-3.36,1.1-4.92,1.37-1.56.28-3.04.44-4.48.56-2.87.22-5.55.27-8.07.16-2.52-.12-4.89-.41-7.07-1.05-2.16-.64-4.23-1.64-5.6-3.4-.16-.21-.3-.47-.45-.73-.07-.13-.15-.27-.21-.41-.04-.16-.09-.32-.13-.48-.22-.63-.17-1.33-.12-1.92.24-1.21.85-1.99,1.01-2.25Z"></path>
          <path class="cls-3" d="M153.68,454.22c0,.16-.49.45-1.1.71-.61.25-1.33.47-1.73.63-1.39.61-3.08.84-4.57,1.02-2.62.31-5.18.15-6.9-.3.72-.87,2.16-1.52,2.69-1.4,4.27.96,7.41-.19,9.76-.58.56-.1,1.63-.09,1.86-.08Z"></path>
          <path class="cls-3" d="M135.96,468.4c-.08-.07-.24-.22-.46-.46-.22-.24-.53-.54-.79-1-.31-.42-.57-1-.72-1.69-.16-.7-.08-1.52.17-2.33.53-1.63,1.76-3.2,2.29-5.17.29-.98.23-2.05-.06-3.08-.08-.25-.17-.51-.25-.76l-.43-.72c-.3-.5-.61-1-.86-1.55-.27-.53-.53-1.08-.73-1.66-.24-.56-.39-1.16-.54-1.76-.26-1.21-.39-2.47-.24-3.71.24-2.49,1.1-4.77,1.67-6.98,1.22-4.39,1.41-8.56,1.13-11.47-.11-1.29-.29-2.6-.45-3.93-.07-.67-.12-1.35-.18-2.03-.06-.68-.12-1.36-.1-2.05,0-.69,0-1.38,0-2.07.02-.69.1-1.38.14-2.08.06-1.4.36-2.77.55-4.17,1.12-5.52,3.27-11.01,6.71-15.71.8-1.21,1.8-2.28,2.74-3.4.5-.53,1.03-1.03,1.55-1.54l.78-.76.85-.69c2.2-1.93,4.75-3.4,7.36-4.65l.76-.31.04-.02s-.03-.02-.04-.02l-.08-.04h-.04s-.42-.22-.42-.22c-.29-.14-.6-.2-.89-.31-.29-.12-.61-.16-.92-.21-.31-.06-.62-.12-.93-.11-1.25-.1-2.52.1-3.73.52-1.21.41-2.38.97-3.46,1.69-1.91,1.22-3.63,2.78-5.19,4.47-1.56,1.7-2.97,3.54-4.23,5.47-2.51,3.85-4.56,8.04-5.65,12.36-.24,1.07-.46,2.16-.5,3.22-.02.43-.08.64-.11.93l-.1.83c-.06.56-.11,1.11-.15,1.67-.16,2.22-.15,4.44,0,6.62.14,2.21.52,4.28.91,6.51.18,1.12.27,2.29.24,3.43-.04,1.15-.18,2.25-.38,3.35-.4,2.24-1.34,4.33-2.44,6.15-1.09,1.83-2.26,3.48-2.42,5.25-.14,1.77.66,3.56,1.64,5.16.25.41.49.78.76,1.27l.39.69c.11.24.19.5.29.75.22.49.25,1.04.35,1.57,0,.54.02,1.07-.11,1.58-.38,2.08-1.55,3.64-2.2,5.24-.72,1.57-.78,3.26.05,4.66.77,1.41,2.21,2.26,3.75,2.59,1.55.36,3.15.39,4.69.43-1.38.09-2.93.22-4.59,0-.82-.11-1.68-.33-2.48-.76-.8-.43-1.52-1.09-2.04-1.9-.26-.41-.45-.87-.62-1.34l-.18-.74c-.06-.25-.04-.51-.06-.76-.01-1.03.26-2.05.64-2.97.75-1.83,1.75-3.54,1.78-5.24.05-.85-.24-1.64-.57-2.4-.23-.36-.45-.73-.68-1.09-.27-.4-.53-.8-.8-1.2-.99-1.61-1.79-3.44-1.76-5.36,0-.47.1-.93.16-1.38.13-.42.23-.86.39-1.23.31-.77.67-1.43,1.02-2.03.7-1.19,1.3-2.14,1.72-2.95.88-1.61,1.43-3.3,1.72-5.1.3-1.81.35-3.58.06-5.37-.28-1.79-.64-3.68-.78-5.54-.16-1.86-.22-3.71-.17-5.54.05-1.83.2-3.65.46-5.43l.04-.27.03-.35.06-.69c.07-.45.13-.91.21-1.35.18-.89.4-1.76.66-2.61,1.04-3.42,2.6-6.56,4.34-9.51,1.77-2.94,3.8-5.66,6.11-8.06,2.33-2.36,4.93-4.5,7.99-5.7,1.52-.59,3.16-.93,4.79-.85.41.01.81.04,1.21.13.4.07.8.13,1.18.28.38.14.78.22,1.13.42.31.15.89.41,1.29.68l1.32.86s.13.07.14.11l-.18.08-.35.15-.7.3-1.41.57c-.35.15-.71.27-1.04.44-1.32.71-2.66,1.36-3.86,2.23-1.27.77-2.35,1.76-3.48,2.66-1.02,1.03-2.11,1.98-3,3.1-1.9,2.14-3.42,4.53-4.71,6.97-.31.62-.61,1.23-.92,1.85-.26.63-.52,1.27-.77,1.9l-.38.94-.31.96c-.2.64-.41,1.28-.61,1.92-.64,2.59-1.2,5.17-1.33,7.75-.15,1.28-.08,2.57-.11,3.83.05,1.27.15,2.51.27,3.77.29,2.5.57,5.03.42,7.52-.13,2.47-.5,4.91-1.12,7.21-.59,2.31-1.43,4.49-1.8,6.66-.42,2.06-.18,4.56.87,6.95.29.58.52,1.2.87,1.77l.49.87.13.23c.08.11.09.21.12.29l.15.51c.42,1.36.32,2.85-.16,4.1-.46,1.26-1.17,2.32-1.71,3.34-.55,1.02-.93,2.04-.89,3,.03.24.05.47.07.69.07.21.14.42.2.62.1.41.37.72.52,1.03.37.6.77,1,.98,1.3Z"></path>
          <path class="cls-3" d="M222.47,478.39c0,.07.02.21.14.37.07.07.15.16.25.25.11.07.23.14.37.22.56.26,1.36.42,2.29.49,1.88.15,4.35-.07,6.94-.53,2.59-.45,5.32-1.17,7.77-1.95,2.45-.79,4.62-1.65,6.16-2.3,3.12-1.29,6.26-2.99,9.15-5.29.74-.59,1.4-1.16,2.13-1.89.78-.79,1.41-1.93,1.65-3.04.25-1.1.26-2.06.41-2.74.14-.7.36-1.1.77-1.54l.05-.06.05-.06c.94-1.23,1.62-2.57,2.18-3.92.5-1.36.93-2.73,1.2-4.1.6-2.74.86-5.47,1-8.12.13-2.7.1-5.38-.04-8.03-.16-2.65-.4-5.22-.64-7.79-.54-5.12-1.32-10.11-2.41-14.8-.52-2.35-1.19-4.62-1.86-6.79-.69-2.16-1.42-4.21-1.97-6.14-1.17-3.81-.85-7.56-.38-10.94-.35.7-.71,1.49-1.07,2.36-.28.89-.67,1.83-.86,2.87-.5,2.05-.57,4.46-.25,6.66.31,2.21.76,4.22,1.15,5.96.38,1.73.74,3.19,1.04,4.18,2.72,8.8,3.82,17.53,4.46,25.59.25,4.03.23,7.94-.25,11.63-.49,3.65-1.35,7.25-3.33,9.82l.05-.06c-.59.62-1.05,1.44-1.26,2.26-.22.82-.26,1.58-.34,2.26-.12,1.37-.53,2.3-1.44,3.13-1.91,1.83-4.02,3.34-6.18,4.61-4.32,2.54-8.75,4.25-12.97,5.59-2.25.68-5.33,1.61-8.12,2.11-1.39.25-2.7.41-3.76.4-1.05,0-1.88-.27-2.08-.67Z"></path>
          <path class="cls-3" d="M228.93,471.69c.13-.18,1.5-.4,3.09-.69,1.59-.27,3.37-.64,4.35-.91,3.45-.98,7.37-2.09,10.73-3.52,2.94-1.24,5.71-2.72,7.99-4.41,2.3-1.67,4.09-3.54,5.4-5.2-.08.5-.25,1.09-.46,1.72-.22.63-.58,1.23-.92,1.85-.74,1.16-1.61,2.16-2.2,2.52-4.56,3.08-8.95,4.7-12.85,6.05-3.92,1.3-7.43,2.13-10.54,2.5-1.48.21-4.08.12-4.59.09Z"></path>
          <path class="cls-3" d="M181.45,472.78c-.13.14-1.32.19-2.7.15-1.38-.04-2.94-.16-3.81-.18-3.1-.05-6.6-.61-9.73-1.3-5.45-1.19-10.7-3.26-13.52-5.78,1.82.28,4.78.88,5.76,1.4,3.92,2.09,7.78,3.11,11.17,3.73,3.41.62,6.41.85,9.02,1.22,1.24.16,3.39.64,3.82.76Z"></path>
          <path class="cls-3" d="M190.38,472.55c.31-.26,5.19.34,7.1.28,3.35-.04,7.17.07,10.62.02,3.02-.04,5.99-.07,8.72-.1,2.7.01,5.04-.21,6.66-1.26-.35.87-1.46,1.86-2.7,2.37-1.23.54-2.45.73-3.07.7-4.98-.3-9.28-.35-13.12-.41-3.83-.06-7.17-.15-10.06-.58-1.38-.16-3.71-.86-4.16-1.02Z"></path>
          <g>
            <path class="cls-7" d="M215.62,389.8c-3.91.86-3.35,11.28,1.42,10.37,5.01-.95,2.49-11.23-1.42-10.37Z"></path>
            <path class="cls-3" d="M215.63,389.82c.08.11.37.13.73.25.36.12.78.38,1.14.78.75.8,1.19,2.09,1.25,2.8.12,1.26.07,2.64-.35,3.7-.42,1.08-1.17,1.47-1.97,1.41-.29-.04-.49-.13-.73-.35-.24-.22-.47-.56-.66-.97-.39-.82-.6-1.84-.68-2.79-.13-1.93.18-3.75,1.36-4.43-.35-.24-.92-.32-1.5-.12-.58.19-1.13.61-1.54,1.09-.83.97-1.13,2.12-1.07,2.69.13,1.18.39,2.25.76,3.24.38.99.88,1.92,1.63,2.67.75.75,1.9,1.16,2.88.98.96-.1,1.88-.6,2.48-1.31.59-.71.92-1.55,1.07-2.34.16-.8.19-1.58.12-2.32-.13-1.48-.59-2.84-1.43-3.9-.36-.52-1.12-1.11-1.92-1.29-.81-.2-1.43.12-1.59.21Z"></path>
          </g>
          <path class="cls-3" d="M280.31,448.97c.25.04,1.34-.29,2.82-1.13.73-.42,1.56-.98,2.35-1.75.79-.76,1.54-1.76,1.99-2.96.22-.61.36-1.29.35-1.98-.02-.69-.17-1.36-.4-1.98-.46-1.25-1.18-2.28-1.81-3.24-.65-.96-1.21-1.82-1.53-2.63-.33-.82-.43-1.59-.43-2.25-.01-1.15.25-2.41.45-3.77.21-1.38.32-2.83.3-4.29-.03-1.47-.21-2.98-.64-4.48-.41-1.51-1.11-2.93-1.9-4.23-1.59-2.57-3.51-4.72-4.71-6.9-1.14-2.11-1.6-4.76-2.27-7.45-1.14-4.66-2.59-9.28-4.63-13.6-.52-1.08-1.06-2.14-1.66-3.16-.29-.52-.62-1.02-.92-1.52-.31-.47-.65-.94-.93-1.41-1.14-1.84-2.4-3.76-3.72-5.51-1.33-1.76-2.79-3.43-4.43-4.84-1.63-1.42-3.45-2.54-5.28-3.33-3.68-1.59-7.27-2.05-10.37-2.23,2.64,1.2,6.48,2.71,9.43,4.79,2.99,2.02,5,4.63,6.25,5.93,1.26,1.29,2.38,2.76,3.46,4.22,1.07,1.45,2.11,3.06,3.13,4.47,1.95,2.89,3.41,6.02,4.6,9.13,1.19,3.12,2.1,6.25,2.86,9.31.39,1.54.77,3.09,1.35,4.59.29.75.63,1.48,1.04,2.17.41.68.83,1.32,1.27,1.93,1.76,2.46,3.62,4.63,4.59,7.05,1.01,2.39,1.18,5,1.04,7.49-.06,1.23-.27,2.46-.38,3.78-.13,1.3-.08,2.77.37,4.1.44,1.34,1.22,2.46,1.91,3.39.7.95,1.35,1.83,1.8,2.72.41.85.73,1.84.51,2.92-.2,1.12-.84,2.26-1.64,3.19-1.62,1.88-3.63,3.02-4.23,3.43Z"></path>
          <path class="cls-3" d="M275.24,450.63c.02.15-.39.46-.93.71-.53.27-1.16.49-1.5.66-1.21.63-2.74.9-4.12.98-2.42.18-4.85-.59-6.07-1.72.97-.47,2.24-.74,2.64-.53,1.62.92,3.32,1,4.71.82,1.42-.18,2.57-.61,3.61-.81.48-.12,1.45-.11,1.66-.11Z"></path>
          <path class="cls-3" d="M285.41,445.55c-.29.24,0,1.58-.15,3.07-.11,1.5-.88,3-1.54,3.63-2.3,2.22-5.88,3.56-9.27,4.02-2.94.4-5.96.42-8.37-.12-1.21-.27-2.15-.73-2.66-1.3-.56-.54-.58-1.57-.39-2.57-.53.21-1.16.58-1.59,1.25-.24.32-.35.75-.47,1.2-.02.44-.07.98.1,1.43.07.23.14.48.23.7.11.2.22.4.35.59.24.42.53.67.81.95.28.29.56.43.81.59.26.15.49.26.69.29,1.59.36,3,.42,4.34.39,1.33-.04,2.58-.12,3.78-.29,2.39-.29,4.58-.78,6.6-1.45,2.01-.68,3.87-1.57,5.34-2.9,1.48-1.29,2.5-3.07,2.7-4.83.03-.21.07-.43.07-.67-.01-.24-.04-.49-.07-.74-.03-.51-.21-1.01-.37-1.46-.13-.46-.37-.84-.55-1.15-.18-.31-.32-.53-.39-.64Z"></path>
        </g>
      </g>
      <g>
        <path class="cls-11" d="M211.69,413.06c14.78-11.16,20.71-24.6,24.06-30.91,3.12.42,5.66,1.07,8.58,2.26-8.99,25.63-36.09,53.16-76.55,54.25-1.23-3.28-3.11-6.3-.85-8.97,23.46-3.14,34.7-9.03,44.76-16.63Z"></path>
        <path class="cls-3" d="M211.68,413.05c.14-.16.63-.59,1.4-1.24.38-.32.83-.7,1.34-1.13.49-.45,1.05-.94,1.64-1.48,2.38-2.18,5.37-5.24,8.2-8.83,2.84-3.58,5.47-7.71,7.59-11.64,1.07-1.96,2.02-3.86,2.89-5.59.12-.23.23-.46.35-.68l.23-.45.12-.22.06-.11.12.02c.55.08,1.09.15,1.61.23.86.13,1.65.29,2.37.45,1.27.28,2.53.65,3.78,1.09l1.32.5.36.14c-.02.11-.08.23-.12.35l-.27.71c-.25.66-.51,1.33-.76,2-.87,2.52-2.11,4.93-3.27,7.4-2.54,4.83-5.61,9.5-9.09,13.88-.89,1.08-1.83,2.11-2.75,3.17l-1.39,1.58-1.49,1.48c-1,.98-1.97,1.98-2.99,2.94-1.06.91-2.12,1.81-3.17,2.72-.53.44-1.04.92-1.6,1.34l-1.67,1.23c-1.12.81-2.21,1.65-3.33,2.43-1.16.73-2.32,1.45-3.47,2.17-.58.36-1.15.72-1.72,1.08-.6.31-1.19.63-1.78.94-8.24,4.48-17.21,7.47-26.18,8.93-2.25.3-4.47.78-6.72.84-1.12.07-2.23.15-3.34.22l-1.89.12-.79.05c-.17.07-.16-.15-.22-.25l-.14-.37-.43-1.09c-.4-1-.84-2.02-1.17-3.14-.31-1.11-.52-2.4-.15-3.69.09-.31.21-.62.36-.91l.24-.42c.1-.16.14-.2.33-.46l.24-.31.11-.15c.05-.02.12-.02.18-.03l.69-.1.78-.11c1.04-.15,2.08-.29,3.11-.44,8.21-1.27,15.96-3.04,22.79-5.68,6.85-2.6,12.67-6.13,17.54-9.67-2.03,1.79-4.64,3.88-7.67,5.86-3.03,1.98-6.48,3.81-9.97,5.29-6.99,2.99-14.01,4.57-17.7,5.2-1.86.32-3.71.59-5.55.85-.92.12-1.84.24-2.75.35-.63.1-.46,0-.61.17-.22.31-.39.64-.5.99-.44,1.42.16,3.12.79,4.75l.49,1.25c.11.28.09.23.12.33,0,.1.08.08.16.08.81-.04,1.63-.09,2.43-.13,7.01-.21,13.72-1.56,20.03-3.41,1.57-.51,3.12-1.01,4.66-1.51,1.5-.62,2.98-1.24,4.46-1.86,1.5-.56,2.88-1.34,4.28-2.06,1.38-.75,2.82-1.37,4.11-2.23,1.31-.82,2.62-1.62,3.91-2.43,1.26-.85,2.46-1.78,3.67-2.65.6-.45,1.21-.88,1.8-1.33.57-.48,1.13-.96,1.69-1.44,1.11-.97,2.26-1.87,3.3-2.88,4.23-3.97,7.88-8.26,11.08-12.63.75-1.13,1.49-2.25,2.23-3.36.36-.56.75-1.1,1.08-1.67.32-.58.65-1.15.97-1.72.62-1.15,1.32-2.25,1.87-3.42.55-1.16,1.1-2.32,1.64-3.46.57-1.13.94-2.33,1.42-3.48.18-.47.37-.95.55-1.42l.04-.1.02-.05-.05-.02-.2-.08-.64-.24c-1.14-.41-2.29-.75-3.45-1.03-.58-.14-1.16-.26-1.74-.36-.54-.1-1.31-.22-1.43-.23-.08-.04-.08.07-.12.12l-.1.2-.41.78c-.27.52-.54,1.05-.81,1.57-.54,1.04-1.09,2.07-1.64,3.08-1.1,2.03-2.28,3.97-3.49,5.85-1.15,1.79-2.62,3.82-4.24,5.87-1.67,2.01-3.46,4.06-5.29,5.82-3.6,3.6-7.18,6.13-8.32,6.99Z"></path>
      </g>
      <g>
        <path class="cls-11" d="M210.33,435.35c-10.35,6.38-29.96,17.8-35.31-.89-2.46-8.61.92-12.21,8.16-15.34,5.55-2.76,11.02-5.58,17.05-7.18,7.9-2.71,12.29,3.9,13.99,10.64,1.29,4.65.44,10.02-3.9,12.77Z"></path>
        <path class="cls-3" d="M210.34,435.37c-.29.42-3.96,2.95-8.53,5.37-2.28,1.21-4.81,2.35-7.22,3.18-2.41.83-4.7,1.32-6.38,1.48-1.48.16-3.04.13-4.6-.2-1.56-.33-3.1-1-4.43-2-1.34-1-2.43-2.29-3.31-3.7-.84-1.42-1.48-2.94-1.97-4.49-.47-1.55-.85-3.15-.96-4.85-.1-1.69.09-3.51.85-5.15.74-1.65,1.96-3,3.26-4.03,1.31-1.04,2.71-1.83,4.09-2.51,3.1-1.46,6.17-3.13,9.3-4.52,3.12-1.41,6.28-2.61,9.41-3.4l-.1.03c1.77-.57,3.73-.84,5.62-.48,1.9.34,3.61,1.31,4.9,2.53,2.59,2.48,3.84,5.58,4.66,8.47.38,1.43.72,2.93.75,4.41.05,1.47-.11,2.91-.5,4.25-.74,2.7-2.58,4.86-4.64,5.98,1.17-1.11,2.31-2.69,2.87-4.56.56-1.87.58-3.94.23-5.86-.17-.97-.46-1.87-.78-2.77-.31-.91-.63-1.75-.98-2.51-.68-1.52-1.38-2.71-1.88-3.51-1.06-1.68-2.47-3.1-4.19-3.69-1.69-.64-3.59-.52-5.29,0l-.06.02h0c-6.62,1.54-12.41,4.61-18,7.25-2.73,1.26-5.35,2.83-6.66,5.24-1.32,2.39-1.1,5.26-.46,7.82.67,2.57,1.62,5.04,3.18,6.91,1.51,1.91,3.61,3.13,5.84,3.55,1.11.22,2.25.3,3.37.23,1.12-.04,2.23-.21,3.32-.43,2.17-.46,4.24-1.14,6.21-1.91,2.16-.86,5.09-2.14,7.63-3.38,2.54-1.24,4.71-2.37,5.43-2.73Z"></path>
      </g>
      <path class="cls-3" d="M210.54,416.22c-.52-.27-5.53,2.69-7.62,3.52-3.67,1.5-7.71,3.46-11.45,4.96-3.27,1.33-6.5,2.59-9.49,3.57-2.99,1-5.73,1.7-8.01,2.2,1.03.54,2.65,1.02,4.18,1.07,1.55.16,2.95-.1,3.65-.34,2.77-1.19,5.29-2.28,7.64-3.36,2.35-1.06,4.54-2.06,6.6-2.99,4.11-1.89,7.67-3.57,10.56-5.45,1.39-.86,3.52-2.78,3.94-3.17Z"></path>
      <path class="cls-3" d="M207.89,417.93c.05.08.24.12.46.19.22.11.48.27.67.58.41.57.57,1.44.56,1.91-.02.83-.14,1.72-.44,2.45-.06.2-.17.32-.25.48-.11.1-.19.26-.29.29-.08.09-.18.08-.26.11-.11,0-.26,0-.36,0-.16-.07-.28-.09-.4-.27-.07-.06-.13-.17-.19-.29-.07-.1-.11-.25-.16-.38-.19-.56-.26-1.23-.27-1.87.03-1.26.26-2.49.97-2.93-.1-.07-.24-.12-.42-.16-.17-.02-.34.02-.55.07-.37.13-.73.39-1,.69-.55.6-.81,1.31-.79,1.68.09,1.5.34,2.86,1.17,3.97.89,1.18,2.76,1.05,3.45,0,.73-.96.85-2.02.89-2.97,0-.95-.16-1.86-.61-2.62-.19-.37-.64-.82-1.14-1-.54-.17-.94.03-1.05.07Z"></path>
      <path class="cls-8" d="M215.61,390.27s-.54,2.07-.26,3.92,1.43,3.59,3.33,2.3c0,0-.21,2.17-1.92,2.27s-2.34-2.61-2.44-4.17.02-3.39,1.3-4.32Z"></path>
      <path class="cls-5" d="M156.16,471.03s6.56,4.91,20.31,1.84c0,0-12.15-.43-19.94-4.29l-.37,2.45Z"></path>
      <path class="cls-5" d="M191.95,473.05s1.88,2.73,13.88,3.1c13.21.4,15.85-.61,15.85-.61l.06-2.1s-1.43.82-3.43.93c-3.43.18-9.2-.2-13.41-.23-7.4-.06-12.95-1.07-12.95-1.07Z"></path>
      <path class="cls-5" d="M229.69,471.66s1.49.9,3.82,1.28c.72.12,1.82.08,3.01-.03,3.33-.32,8.01-1.88,11.11-3.15,0,0,3.13-1.4,5.25-2.59.79-.45,1.55-.94,2.29-1.48l1.6-1.18.15-.57.09-.65.03-.34-2.29,1.46-4.21,2.17c-.74.38-1.51.72-2.29,1l-4.68,1.71-4.15,1.14s-5.81,1.57-9.74,1.2Z"></path>
      <path class="cls-4" d="M246.43,369.57s6.38,1.65,15.54,15.5c5.28,7.98,6.66,19.56,8.01,22.96.98,2.45,2.74,4.55,3.64,5.53.44.47.86.96,1.25,1.46,0,0,3.88,3.44,6.36,8.77l.73,1.46.03-2.23-.19-1.75c-.08-.94-.3-1.86-.65-2.74l-.21-.52c-.34-.83-.75-1.62-1.23-2.37l-.62-.96-2.23-3.07s-.41-.57-.92-1.32c-.85-1.26-2.23-3.6-3.15-7.89-1.08-5-4.56-13.82-7.14-18.29-4.48-7.74-12.39-14.39-12.39-14.39l-1.48-1.04c-2.08-1.46-4.34-2.64-6.73-3.53l-1.69-.63,3.08,5.03Z"></path>
      <path class="cls-12" d="M129.83,453.45l6.34.84s1.49,2.71-1.21,6.67l-6.57-2.17s.79-1.66,1.26-3.25c.41-1.38.19-2.1.19-2.1Z"></path>
      <path class="cls-10" d="M207.41,418.89s.17,4.96,1.63,4.06c.61-.37.54-2.32.37-3.22-.26-1.4-1.07-1.54-1.07-1.54l-.93.7Z"></path>
    </g>
    <g id="hat">
      <path class="cls-14" d="M160.02,400.74s5.71,3.29,9.16,10.55,3.29,13.83,2.42,16.77l-3.29.52s1.83-7.76-.42-14.51-7.88-13.33-7.88-13.33Z"></path>
      <path class="cls-14" d="M171.67,439.35s1.58,5.47-.29,8.15c-1.88,2.68-4.45,2.23-4.99,5.04s1.28,5.33-1,9.62c-2.28,4.29-6.42,5.59-6.42,5.59l-3.22-1.27s6.55-3.78,7.62-7.93c1.07-4.15-.43-7.34.5-8.55s4.22-1.64,5.16-4.45c.94-2.81,0-6,0-6l2.64-.21Z"></path>
      <polygon class="cls-14" points="214.37 400.27 216.08 409.1 217.53 407.65 216.26 400.9 214.37 400.27"></polygon>
    </g>
    <g id="acc-3" data-name="acc">
      <path class="cls-5" d="M182.8,395.65s2.22.52,6.82-1.11c3.93-1.39,6.16-7.72,12.97-5.19,0,0-3.85-4.15-9.98-1.8-3.52,1.35-9.82,8.1-9.82,8.1Z"></path>
      <path class="cls-5" d="M222.34,387.89s2.44-3.22,4.68-4.23c2.24-1.01,7.09.76,7.09.76l.91-1.89s-6.66-1.49-8.28-.8c-1.62.7-3.04,2.28-4.4,6.16Z"></path>
      <path class="cls-13" d="M178.53,431.69s1.35,5.62,6.21,8.7c3.57,2.26,11.43,1.48,11.43,1.48,0,0-9.49,3.86-14.75.75-5.57-3.29-6.56-11.85-6.56-11.85l3.67.92Z"></path>
      <path class="cls-13" d="M178.11,429.44s-.14-5.73,4.74-9.5c0,0-5.16,2.03-6.79,4.85-1.63,2.83-1.2,5.49-1.2,5.49l3.25-.84Z"></path>
      <path class="cls-13" d="M212.11,414.67s8.18-6.04,13.71-12.83c5.53-6.79,11.67-18.82,11.67-18.82l-1.4-.27s-7.94,14.6-12.71,19.74-12.2,10.97-12.2,10.97l.93,1.2Z"></path>
      <path class="cls-13" d="M167.33,430.5s-.73.47-.73,1.76c0,0,4.91-.44,6.43-.91l-.06-1.7-5.64.85Z"></path>
      <polygon class="cls-13" points="167.5 436.16 173.97 435.33 174.84 437.54 168.17 438.06 167.5 436.16"></polygon>
      <path class="cls-13" d="M214.83,420.53s10-7.44,15.52-14.74c9.76-12.9,11.78-21.59,11.78-21.59l1.46.53s-3.76,11.17-11.06,20.41c-2.93,3.71-6.11,7.26-8.85,9.88-4.74,4.53-8.46,7.14-8.46,7.14l-.39-1.64Z"></path>
      <path class="cls-10" d="M209.38,425.15s3.25,6.43-.31,10.61c0,0,4.33-1.01,4.8-6.73.51-6.15-3.8-12.44-3.8-12.44l-1.27,1.18s3.76,2.92.58,7.39Z"></path>
      <path class="cls-10" d="M206.1,418s-3.33-4.8-10.08-3.9c0,0,4.23-1.63,6.83-1.79,2.6-.16,4.8,1.14,6.75,3.74,0,0-.81.73-3.5,1.95Z"></path>
      <path class="cls-2" d="M174.74,394.22s-17.26-4.91-24.86-6.08l7.09-4.1s7.53,3.22,17.77,10.17Z"></path>
      <path class="cls-5" d="M165.76,427.41s-5.13,4.27-11.58,7.15c-.39.17-.25.75.18.72,2.78-.23,7.07-.72,10.06-1.64,0,0-.24-1.22.24-2.56.49-1.34,1.1-3.66,1.1-3.66Z"></path>
      <path class="cls-5" d="M162.47,447.1s-5.91,3.66-11.08,3.22c-.27-.02-.4.32-.16.47,1.75,1.09,5.58,3.22,9.23,3.6,0,0-.32-3.06.2-4.55s1.81-2.74,1.81-2.74Z"></path>
      <path class="cls-5" d="M121.78,449.3s3.48,2.88,6.46,3.59l.09.51c.1.56.1,1.12,0,1.68l-.09.51-1.12,2.94-4.25-1.43s.71-2.9.31-4.39-1.41-3.41-1.41-3.41Z"></path>
      <path class="cls-5" d="M125.7,427.8s1.85,2.31,4.02,3.3c0,0-.73,4.29-2.18,6,0,0-2.9-.4-4.02-2.11,0,0,1.06-1.38,1.58-3.17.53-1.78.59-4.02.59-4.02Z"></path>
      <path class="cls-5" d="M257.29,392.78s1.71,6.9,3.83,11.17c3.85,7.77,5.33,14,6.42,25.68,0,0,.59,14.72-2.72,16.52l.1-3.08c.12-3.54.02-7.09-.3-10.62l-.51-5.63s-1.49-11.6-3.16-16.84-3.14-7.88-3.49-10.97c-.36-3.1-.17-6.23-.17-6.23Z"></path>
      <path class="cls-4" d="M177.77,393.39s1.91-3.66,7.68-6.26c7.45-3.36,12.3-.37,12.3-.37,0,0-3.52-2.24-9.53,1.95-2.19,1.53-3.4,2.74-4.29,3.59-.97.94-1.87,1.56-2.57,1.81-2.34.86-3.59-.73-3.59-.73Z"></path>
      <path class="cls-4" d="M221.98,387.94s-.49-1.97.62-4.92c1.11-2.94,2.84-3.95,4.8-4.47,1.96-.52,6.74.04,8.37.24s7.35,1.56,8.79,1.83c2.62.48,3.43-1.33,3.43-1.33,0,0,.83,2.37-.43,4.06-.14.19-.61.62-1.21.59-2.14-.14-3.65-1.34-8.03-2.17-2.04-.39-9.96-1.31-10.82-1.14-1.38.28-2.94,1.03-4.28,3.64-.84,1.64-1.24,3.68-1.24,3.68Z"></path>
      <path class="cls-5" d="M140.85,386.69l-4.55-1.8s3.55-4.35,8.31-6.62l5.27,2.41s-5.47,1.99-9.02,6Z"></path>
      <path class="cls-13" d="M205.28,421.6s-14.91,9.44-26.97,11.18l.23-1.09s3.13-.4,8.35-2.63c5.22-2.24,18.27-8.82,18.27-8.82l.12,1.37Z"></path>
      <path class="cls-5" d="M217.95,422.06s1.59,9.55,2.39,14.85c1.03,6.87,3.41,13.54,2.07,26.45-.41,3.88-2.65,9.26-2.65,9.26l1.96-.33s1.99-2.77,2.68-8.66c.65-5.51.63-8.23-1.36-22.13-1.59-11.13-2.66-15.09-3.37-21.07l-1.72,1.63Z"></path>
    </g>
  </g>
  <g id="funky">
    <path class="cls-9" d="M286.78,415.21s.46,2.19,2.35,3.92,4.74,3.4,4.74,3.4l.66-1.06s-4.31-4.32-7.74-6.25Z"></path>
  </g>
</svg>