<svg xmlns="http://www.w3.org/2000/svg" id="outfits_2" viewBox="0 0 380 600"><defs transform="matrix(-1, 0, 0, 1, 380, 0)"><style>.cls-1{fill:#ffffff;}.cls-2{fill:#14d8c3;}</style></defs><g id="default" transform="matrix(-1, 0, 0, 1, 380, 0)"><path class="cls-1 color-body" d="M160.412,391.943c-7.582,9.513-14.229,22.312-22.211,41.293-8.856,21.061-18.834,37.366-29.709,32.709-13.624-5.834-9.478-36.627-4.5-51.1,6.055-17.583,19.428-51.04,47.782-59.992,10.883-3.436,14.227,11.569,14.227,11.569" style="fill:#ffffff;--backup-fill:#ffffff" /><path d="M165.947,366.439c-.44-.388-1.22-2.975-3.311-6.14a11.8,11.8,0,0,0-4.514-4.165,7.376,7.376,0,0,0-3.27-.647,9.385,9.385,0,0,0-1.766.244l-.889.258-.948.349a49.238,49.238,0,0,0-14.275,8.128,57.561,57.561,0,0,0-9.412,9.67c-7.36,9.662-13.088,21.508-17.59,33.918-.567,1.551-1.111,3.116-1.646,4.685s-1.071,3.182-1.519,4.674a90.747,90.747,0,0,0-2.2,9.4,85.489,85.489,0,0,0-1.432,18.768,43.512,43.512,0,0,0,1.008,7.616,18.355,18.355,0,0,0,2.6,6.285,7.5,7.5,0,0,0,4.289,3.11,5.106,5.106,0,0,0,2.314.024,8.1,8.1,0,0,0,2.521-1.071,21.852,21.852,0,0,0,5.02-4.608,57.042,57.042,0,0,0,4.348-6.074,136.894,136.894,0,0,0,7.2-13.3c1.09-2.256,2.1-4.48,3.139-6.746s2.078-4.493,3.133-6.676c2.11-4.365,4.264-8.554,6.487-12.514a107.486,107.486,0,0,1,14.292-20.4c-1.433,3.123-3.134,6.869-4.826,10.907s-3.376,8.381-4.98,12.608c-3.2,8.461-6.094,16.461-8.124,20.507-4.173,8.251-8.377,16.247-13.84,23.355a43.419,43.419,0,0,1-4.532,5.018,21.3,21.3,0,0,1-5.745,3.964,13.467,13.467,0,0,1-3.535,1.017,11.727,11.727,0,0,1-3.722-.137,13.029,13.029,0,0,1-6.187-3.367,16.82,16.82,0,0,1-3.674-5.521,28.7,28.7,0,0,1-1.772-5.985,56.261,56.261,0,0,1-.838-11.806,103.9,103.9,0,0,1,3.1-22.038c.441-1.746.922-3.471,1.482-5.171.553-1.673,1.107-3.311,1.686-4.94q1.719-4.882,3.638-9.529a131.2,131.2,0,0,1,8.694-17.45A84.1,84.1,0,0,1,127.418,368a65.41,65.41,0,0,1,6.521-5.92,55.826,55.826,0,0,1,7.131-4.7,42.653,42.653,0,0,1,8.363-3.512l1.184-.341c.39-.115.789-.228,1.25-.317a11.89,11.89,0,0,1,2.732-.274,9.482,9.482,0,0,1,5.1,1.661,12.084,12.084,0,0,1,3.247,3.459,18.716,18.716,0,0,1,1.755,3.551A22.694,22.694,0,0,1,165.947,366.439Z" /></g><g id="shirt_short_red" transform="matrix(-1, 0, 0, 1, 380, 0)"><path class="cls-2 color-shirt-primary" d="M166.006,366.426s-3.344-15-14.227-11.569C133.829,360.524,121.5,376.5,114.5,391.5c-3.061,6.56,9,24,27.959,28.931,6.186-13.742,11.758-20.715,17.953-28.488" /><path d="M160.46,391.981c.139.892-3.408,5.574-7.027,11.2-1.8,2.821-3.58,5.906-5.045,8.813-.729,1.456-1.39,2.859-1.957,4.147-.661,1.58-1.254,3-1.749,4.185q-.417,1.012-.836,2.033l-.217.522c-.015.133-.121.068-.2.055l-.256-.058-1.041-.238c-.7-.159-1.419-.327-2.142-.528l-1.1-.293c-.361-.1-.791-.21-.983-.275a41.5,41.5,0,0,1-5.867-2.2,45.262,45.262,0,0,1-10.831-7.023,38.437,38.437,0,0,1-8.5-10.316,23.362,23.362,0,0,1-1.471-3.254,15.621,15.621,0,0,1-.9-3.787,10,10,0,0,1,.568-4.7l.123-.316.089-.2.162-.349.323-.7.645-1.388a89.192,89.192,0,0,1,5.2-9.291,82.115,82.115,0,0,1,6.34-8.435,69.381,69.381,0,0,1,7.41-7.251c.65-.553,1.344-1.054,2.01-1.575s1.34-1.028,2.051-1.485l2.085-1.391,2.153-1.242,1.069-.607,1.1-.534q1.1-.528,2.186-1.046l2.228-.872a20.38,20.38,0,0,1,2.222-.774l2.218-.661c.335-.111.809-.207,1.235-.3a11.837,11.837,0,0,1,1.33-.2,10.965,10.965,0,0,1,5.361.74,11.3,11.3,0,0,1,4.067,2.9,16.017,16.017,0,0,1,2.438,3.625,23.453,23.453,0,0,1,2.169,7.268,38.857,38.857,0,0,0-4.77-5.7,13.942,13.942,0,0,0-2.989-2.225,6.763,6.763,0,0,0-2.978-.855,6.931,6.931,0,0,0-2.611.514,5.718,5.718,0,0,0-.626.268l-.317.141-.393.2-1.516.723c-.991.415-1.86.911-2.663,1.274l-2.1.911a46.122,46.122,0,0,0-13.026,7.712,61.57,61.57,0,0,0-9.961,10.744,74.991,74.991,0,0,0-7.121,11.951c-.056.119-.138.269-.173.363l-.1.267a4.011,4.011,0,0,0-.151.581c-.031.208-.042.429-.066.644l.017.686a10.675,10.675,0,0,0,.667,2.857,22.754,22.754,0,0,0,2.925,5.363,38.856,38.856,0,0,0,8.421,8.4,43.674,43.674,0,0,0,9.7,5.43c.8.342,1.709.646,2.442.91.406.12.8.242,1.188.335l.29.075c.059.036.074-.023.093-.072l.062-.14.244-.551.246-.535.533-1.1a80.787,80.787,0,0,1,5.116-9,59.137,59.137,0,0,1,7.118-8.741C157.253,394.877,159.661,392.7,160.46,391.981Z" /></g><g data-name="default" id="default-2" transform="matrix(-1, 0, 0, 1, 380, 0)"><path class="cls-1 color-body" d="M239.64,463.371c-.822-7.144-2.461-16.135-4.759-22.342-13.642-36.838,9.04-78.792-30.636-91.823-29.145-9.571-59.413,5.745-75.671,54.174-5.9,17.562-7.776,42.306-3.484,59.991" style="fill:#ffffff;--backup-fill:#ffffff" /><path d="M125.031,463.385c-.41-.5-1.421-3.49-2.2-8.059a99.615,99.615,0,0,1-1.25-17.25,134.8,134.8,0,0,1,1.693-19.911,131.447,131.447,0,0,1,11.94-37.3A86.133,86.133,0,0,1,148.808,361a58.643,58.643,0,0,1,20.166-14.4,50.59,50.59,0,0,1,24.3-3.677,57.2,57.2,0,0,1,10.347,1.977,52.19,52.19,0,0,1,9.832,3.9,35.63,35.63,0,0,1,8.75,6.428,31.61,31.61,0,0,1,6.249,8.889c3.08,6.5,4.087,13.306,4.518,19.666.422,6.4.282,12.522.227,18.43s-.077,11.587.243,17.051a91.2,91.2,0,0,0,2.165,15.6q.219.921.435,1.833l.517,1.787q.549,1.857,1.085,3.674a74.079,74.079,0,0,1,1.621,7.381,119,119,0,0,1,1.5,13.7c-1.269-3.742-2.722-8.309-4.474-13.089-.876-2.387-1.833-4.827-2.918-7.167-.548-1.11-1.134-2.421-1.7-3.691-.6-1.268-1.024-2.59-1.531-3.886a78.5,78.5,0,0,1-4.271-26.328c.289-10.761,1.225-20.984.12-30.554a37.982,37.982,0,0,0-3.806-13.331,27.3,27.3,0,0,0-8.9-9.8,43.034,43.034,0,0,0-12.118-5.436,49.786,49.786,0,0,0-12.837-1.91,44.984,44.984,0,0,0-23.579,6.427,60.713,60.713,0,0,0-17.071,15.672,84.493,84.493,0,0,0-6.165,9.285c-.952,1.563-1.759,3.2-2.62,4.778-.783,1.626-1.623,3.2-2.327,4.836l-1.093,2.416q-.506,1.221-1.007,2.431c-.691,1.6-1.276,3.238-1.893,4.842s-1.138,3.231-1.708,4.822c-.521,1.6-1.037,3.167-1.47,4.762a134.552,134.552,0,0,0-3.788,18.792c-.389,2.918-.748,6.381-1.077,10-.268,3.625-.505,7.416-.505,10.973A101.722,101.722,0,0,0,125.031,463.385Z" /><path class="cls-1 color-body" d="M234.881,441.029c-13.642-36.838,9.04-78.792-30.636-91.823-29.144-9.571-59.413,5.745-75.671,54.174-5.9,17.562-7.776,42.306-3.484,59.991h0s6.034,10.253,50.162,13c42.248,2.629,64.388-13,64.388-13h0C238.818,456.227,237.179,447.236,234.881,441.029Z" style="fill:#ffffff;--backup-fill:#ffffff" /></g><path class="cls-2 color-shirt-primary" d="M234.881,441.529c-11.024-29.769,1.667-62.877-13.994-81.364-2.473,9.2-11.581,18.319-24.291,23.067-17.707,6.616-35.7,2.251-40.18-9.75a15.247,15.247,0,0,1-.579-1.936,27.609,27.609,0,0,1,.759-12.8c-11.168,9.2-20.93,24.013-28.022,45.138-5.9,17.562-7.776,42.306-3.484,59.991,0,0,6.034,17.253,50.162,20,42.248,2.629,64.388-20,64.388-20C238.818,456.727,237.179,447.736,234.881,441.529Z" transform="matrix(-1, 0, 0, 1, 380, 0)" /><path d="M234.938,441.508c.62.715,2.429,5.146,3.907,11.979.374,1.706.738,3.557,1.076,5.532q.122.741.247,1.5.123.811.249,1.645c.083.648.166,1.306.251,1.97a.765.765,0,0,1,.012.124l-.089.089-.176.178-.362.351-.738.7-1.389,1.227-1.338,1.092c-.905.729-1.863,1.415-2.822,2.13-.991.666-1.983,1.365-3.014,2.026l-3.174,1.926a88.926,88.926,0,0,1-13.9,6.339l-3.646,1.216c-1.208.418-2.456.677-3.673,1.021-1.227.3-2.427.692-3.652.913l-3.629.709a100.2,100.2,0,0,1-13.646,1.539c-1.054.044-2.081.166-3.078.145l-2.9-.021c-1.867-.033-3.618.033-5.187-.066l-4.179-.244c-1.4-.1-2.809-.129-4.217-.322-2.816-.343-5.671-.562-8.517-1.129a78.809,78.809,0,0,1-17.107-4.643A52.836,52.836,0,0,1,132,475.274a33.189,33.189,0,0,1-7.334-6.351,10.184,10.184,0,0,1-.789-1.018c-.251-.365-.515-.689-.745-1.1a12.908,12.908,0,0,1-.719-1.3,6.391,6.391,0,0,1-.512-1.608c-.345-1.5-.71-3.007-.953-4.523-.581-3.025-.912-6.072-1.191-9.122a122.913,122.913,0,0,1-.081-18.294,133.789,133.789,0,0,1,2.434-18.071,114.272,114.272,0,0,1,5.134-17.366,128.531,128.531,0,0,1,7.288-16.187,94.224,94.224,0,0,1,9.577-14.519l1.438-1.743,2.78-2.989c.464-.483.927-1.032,1.392-1.46l1.4-1.284c.927-.838,1.872-1.747,2.786-2.528l10.732-9.276q-1.893,6-3.782,11.994l-.68,2.286c-.051.184-.121.391-.158.555l-.081.451-.162.9a14.258,14.258,0,0,0-.226,1.7,15.782,15.782,0,0,0-.113,1.591,26.121,26.121,0,0,0,.035,2.844c.037.4.084.789.144,1.16a18.613,18.613,0,0,0,.566,2.1,14.243,14.243,0,0,0,5.889,6.77,24.808,24.808,0,0,0,9.44,3.171,37.6,37.6,0,0,0,10.385-.044,47.133,47.133,0,0,0,19.24-7.311,37.985,37.985,0,0,0,7.463-6.542c.513-.623,1.031-1.244,1.493-1.892l.684-.975a7.572,7.572,0,0,0,.462-.793l.524-.951.522-.948.13-.236.121-.334.241-.67.959-2.664q.906-2.775,1.806-5.536l.637.679a4.838,4.838,0,0,1,.332.369l.4.523,1.593,2.077,1.51,2a19.965,19.965,0,0,1,1.447,2.057,33.7,33.7,0,0,1,2.586,4.607c.5,1.039.824,2.02,1.211,3.034a54.3,54.3,0,0,1,2.5,12.059c.765,7.9.467,15.34.373,22.426a194.285,194.285,0,0,0,.406,20.22,93.364,93.364,0,0,0,1.238,9.29,79.172,79.172,0,0,0,2.175,8.628,67.7,67.7,0,0,1-6.592-19.623c-1.467-7.686-2.038-16.09-2.57-24.094s-1.163-15.647-2.751-21.742c-.386-1.526-.843-2.943-1.318-4.263-.239-.66-.52-1.273-.76-1.888-.116-.31-.277-.586-.409-.875-.05-.105-.024-.05-.03-.061l0,.007c0,.007,0,.008,0,.008a.525.525,0,0,0-.018-.182l-.013-.041a.068.068,0,0,0-.089-.039.164.164,0,0,0-.079.042l-.31.427-.8,1.109c-.325.454-.648.907-1.007,1.325l-1.052,1.273-1.112,1.2a46.292,46.292,0,0,1-10,7.837,53.325,53.325,0,0,1-11.282,4.892,51.136,51.136,0,0,1-11.853,2.211,42.114,42.114,0,0,1-11.9-.917,28.554,28.554,0,0,1-10.885-4.905,18.826,18.826,0,0,1-6.842-9.845,14.783,14.783,0,0,1-.59-2.963l-.067-.734-.017-.4c-.007-.26-.01-.491,0-.74a18.364,18.364,0,0,1,.313-3c.069-.376.155-.752.255-1.127.051-.187.1-.374.168-.558.074-.159-.046-.024-.1.017l-.206.17q-.836.669-1.639,1.424c-.546.492-1.06,1.031-1.589,1.564l-.768.833c-.143.161-.226.234-.418.467l-.611.727A84.584,84.584,0,0,0,140.383,381a127.7,127.7,0,0,0-11.416,26.817,121.713,121.713,0,0,0-4.35,27.411,102.053,102.053,0,0,0,1.858,26.223l.348,1.551a1.389,1.389,0,0,0,.146.461,5.1,5.1,0,0,0,.291.535,14.94,14.94,0,0,0,1.7,2.311,25.367,25.367,0,0,0,4.453,3.954,46.735,46.735,0,0,0,10.68,5.535c.914.408,1.9.645,2.845.976.956.3,1.891.643,2.856.9,1.945.467,3.847,1.032,5.79,1.415,1.95.355,3.872.773,5.808,1.074l5.8.78a133.253,133.253,0,0,0,22.58.629,100.616,100.616,0,0,0,20.978-3.9,91.175,91.175,0,0,0,14.034-5.52c1.242-.571,2.446-1.238,3.658-1.908,1.233-.637,2.394-1.395,3.585-2.1,1.162-.747,2.327-1.5,3.425-2.3.549-.4,1.11-.792,1.629-1.215l.641-.493.583-.479.144-.125.072-.063a.433.433,0,0,0,0-.088l-.022-.365-.047-.738-.071-.871c-.03-.325-.061-.649-.091-.971-.122-1.287-.263-2.541-.409-3.752-.3-2.422-.633-4.673-.986-6.676A73.729,73.729,0,0,0,234.938,441.508Z" transform="matrix(-1, 0, 0, 1, 380, 0)" /><g data-name="default" id="default-3" transform="matrix(-1, 0, 0, 1, 380, 0)"><path class="cls-1 color-body" d="M259.039,440.066c-1.139-18.561-3.924-46.029-22.5-62.515-15.9-14.111-22.106-3.869-24.321-.71s-5.633,16.01-1.424,26.085,7.753,25.3,10.376,45.725c2.91,22.661,8.17,41.038,19.9,39.455C255.749,486.122,259.977,455.341,259.039,440.066Z" style="fill:#ffffff;--backup-fill:#ffffff" /><path class="cls-1 color-body" d="M210.791,402.926c4.766,11.192,7.753,25.3,10.376,45.725,2.91,22.661,8.17,41.038,19.894,39.455,14.687-1.984,18.916-32.765,17.978-48.04-1.139-18.561-3.924-46.029-22.5-62.515-15.9-14.111-24.321-.71-24.321-.71" style="fill:#ffffff;--backup-fill:#ffffff" /><path d="M212.163,376.809a4.751,4.751,0,0,1,1.129-2.015,12.819,12.819,0,0,1,10.682-4.683,19.817,19.817,0,0,1,7.878,2.5,31.192,31.192,0,0,1,3.614,2.395l1.727,1.341c.569.456,1.068.978,1.606,1.465a36.46,36.46,0,0,1,3.058,3.044l1.414,1.586.7.784.627.825a69.022,69.022,0,0,1,7.46,11.874c5.769,11.243,8.546,24.7,9.841,38,.173,1.668.321,3.334.456,5s.25,3.463.275,5.164a98.609,98.609,0,0,1-.362,10.251,85.588,85.588,0,0,1-3.941,19.875,43.312,43.312,0,0,1-3.783,8.28,26.328,26.328,0,0,1-2.873,3.895,18.251,18.251,0,0,1-3.919,3.376,14.721,14.721,0,0,1-5.079,2.1,13.243,13.243,0,0,1-10.892-2.289,17.757,17.757,0,0,1-3.651-3.626,32.965,32.965,0,0,1-4.335-7.95,64.54,64.54,0,0,1-2.53-7.962,130.5,130.5,0,0,1-2.827-15.475c-.642-5.078-1.041-9.864-1.6-14.527-.534-4.66-1.115-9.159-1.78-13.464a139.357,139.357,0,0,0-5.314-23.2,54.861,54.861,0,0,1,5.944,10.1,98.283,98.283,0,0,1,4.82,12.781,109.657,109.657,0,0,1,4.5,21.66c.275,4.421.663,8.74,1.259,12.952a83.864,83.864,0,0,0,2.535,12.18,40.966,40.966,0,0,0,2.069,5.552,19.448,19.448,0,0,0,2.946,4.7,9.716,9.716,0,0,0,1.887,1.71,6.966,6.966,0,0,0,2.153,1.04,8.1,8.1,0,0,0,4.8-.173c3.185-1.026,5.715-3.861,7.544-6.956a43.247,43.247,0,0,0,4.168-10.067,88.118,88.118,0,0,0,3.1-20.924q.079-2.565.006-5.077c-.038-1.666-.188-3.316-.318-5-.264-3.34-.588-6.609-1-9.806a128.055,128.055,0,0,0-3.57-18.237,79.522,79.522,0,0,0-6.245-15.941,58.107,58.107,0,0,0-9.166-12.837l-1.325-1.35c-.23-.232-.454-.484-.7-.713l-.767-.666-1.581-1.4c-.542-.471-1.148-.848-1.731-1.294a17.28,17.28,0,0,0-7.869-3.387,11.891,11.891,0,0,0-7.352,1.539A14.682,14.682,0,0,0,212.163,376.809Z" /></g><g data-name="shirt_short_red" id="shirt_short_red-2" transform="matrix(-1, 0, 0, 1, 380, 0)"><path class="cls-2 color-shirt-primary" d="M248.5,389.5c-3.9-6.5-10.094-15.866-17.5-17.5s-15.842-.675-18.785,4.841c-2.2,3.132-5.57,15.789-1.526,25.823,0,0,8.412,23.935,9.116,24.434.662.468,10.695.4,21.592-2.971,5.665-1.754,12.1-6.627,14.681-9.548C259.434,410.775,251.5,394.5,248.5,389.5Z" /><path d="M212.174,376.82a2.983,2.983,0,0,1,.431-1.246,11.173,11.173,0,0,1,.712-1.02,8.772,8.772,0,0,1,1.126-1.1,15.014,15.014,0,0,1,7.882-2.987,28.9,28.9,0,0,1,9.7.614,15.425,15.425,0,0,1,2.265.781,21.455,21.455,0,0,1,1.942,1.027l.87.527.776.546c.512.341.951.693,1.357,1.01a42.585,42.585,0,0,1,7.581,8.021c1.119,1.5,2.186,3.04,3.214,4.609,1.058,1.583,2.026,3.277,2.927,4.942a83.165,83.165,0,0,1,4.78,10.443,37.912,37.912,0,0,1,1.662,5.695,16.114,16.114,0,0,1,.341,3.255c0,.294-.028.62-.047.928-.033.323-.1.672-.158,1.007a6.148,6.148,0,0,1-1.011,2.266l-.271.366a32.2,32.2,0,0,1-4.209,3.928,45.546,45.546,0,0,1-4.5,3.156,35.475,35.475,0,0,1-4.928,2.547,26.707,26.707,0,0,1-2.669.941c-.844.235-1.678.493-2.522.692a70.6,70.6,0,0,1-10,1.794c-1.649.176-3.282.3-4.914.335-.816.022-1.634.022-2.463,0a13.829,13.829,0,0,1-1.836-.147,5.617,5.617,0,0,1-1.847-.606c-.336-.4-.637-.835-.943-1.254-.253-.447-.419-.935-.63-1.394-.12-.271-.144-.363-.2-.521l-.159-.438-.31-.866c-.4-1.146-.776-2.269-1.134-3.375q-1.076-3.318-1.988-6.422c-1.225-4.137-2.265-7.975-3.13-11.456a85.155,85.155,0,0,1,7.325,11.649c1.166,2.158,2.245,4.289,3.146,6.172l1.2,2.595.128.289a.567.567,0,0,0,.04.08l.042.09c.011.031-.006.016-.012.041l-.011.039c.006.039-.027.077.053.115.386.043.8.072,1.2.1.821.045,1.653.068,2.486.067,1.668,0,3.334-.079,4.978-.223a61.619,61.619,0,0,0,9.577-1.581,27.668,27.668,0,0,0,8.318-3.585,33.97,33.97,0,0,0,6.833-5.415c.545-.546.629-1.829.529-3.03a20.692,20.692,0,0,0-.726-3.706,54.687,54.687,0,0,0-2.612-7.1c-1-2.274-2.085-4.463-3.216-6.556-.566-1.044-1.146-2.071-1.744-3.039s-1.242-1.964-1.869-2.911c-5.04-7.471-10.581-14.161-17.971-14.525a26.339,26.339,0,0,0-9.522.144,10.883,10.883,0,0,0-3.948,1.787,4.184,4.184,0,0,0-.678.557c-.2.189-.4.352-.55.525Z" /></g></svg>