<svg xmlns="http://www.w3.org/2000/svg" id="sports" viewBox="0 0 380 600"><defs transform="matrix(-1, 0, 0, 1, 380, 0)"><style>.cls-1{fill:#ffffff;}.cls-2{fill:#fff;}.cls-3{fill:#006dc6;}.cls-4{fill:#ffd635;}</style></defs><g id="default" transform="matrix(-1, 0, 0, 1, 380, 0)"><path class="cls-1 color-body" d="M160.412,391.443c-7.582,9.513-14.229,22.312-22.211,41.293-8.856,21.061-18.834,37.366-29.709,32.709-13.624-5.834-9.478-36.627-4.5-51.1,6.055-17.583,19.428-51.04,47.782-59.992,10.883-3.436,14.227,11.569,14.227,11.569" style="fill:#ffffff;--backup-fill:#ffffff" /><path d="M165.947,365.939c-.44-.388-1.22-2.975-3.311-6.14a11.8,11.8,0,0,0-4.514-4.165,7.376,7.376,0,0,0-3.27-.647,9.385,9.385,0,0,0-1.766.244l-.889.258-.948.349a49.238,49.238,0,0,0-14.275,8.128,57.561,57.561,0,0,0-9.412,9.67c-7.36,9.662-13.088,21.508-17.59,33.918-.567,1.551-1.111,3.116-1.646,4.685s-1.071,3.182-1.519,4.674a90.747,90.747,0,0,0-2.2,9.4,85.489,85.489,0,0,0-1.432,18.768,43.512,43.512,0,0,0,1.008,7.616,18.355,18.355,0,0,0,2.6,6.285,7.5,7.5,0,0,0,4.289,3.11,5.106,5.106,0,0,0,2.314.024,8.1,8.1,0,0,0,2.521-1.071,21.852,21.852,0,0,0,5.02-4.608,57.042,57.042,0,0,0,4.348-6.074,136.894,136.894,0,0,0,7.2-13.3c1.09-2.256,2.1-4.48,3.139-6.746s2.078-4.493,3.133-6.676c2.11-4.365,4.264-8.554,6.487-12.514a107.486,107.486,0,0,1,14.292-20.4c-1.433,3.123-3.134,6.869-4.826,10.907s-3.376,8.381-4.98,12.608c-3.2,8.461-6.094,16.461-8.124,20.507-4.173,8.251-8.377,16.247-13.84,23.355a43.419,43.419,0,0,1-4.532,5.018,21.3,21.3,0,0,1-5.745,3.964,13.467,13.467,0,0,1-3.535,1.017,11.727,11.727,0,0,1-3.722-.137,13.029,13.029,0,0,1-6.187-3.367,16.82,16.82,0,0,1-3.674-5.521,28.7,28.7,0,0,1-1.772-5.985,56.261,56.261,0,0,1-.838-11.806,103.9,103.9,0,0,1,3.1-22.038c.441-1.746.922-3.471,1.482-5.171.553-1.673,1.107-3.311,1.686-4.94q1.719-4.882,3.638-9.529a131.2,131.2,0,0,1,8.694-17.45A84.1,84.1,0,0,1,127.418,367.5a65.41,65.41,0,0,1,6.521-5.92,55.826,55.826,0,0,1,7.131-4.7,42.653,42.653,0,0,1,8.363-3.512l1.184-.341c.39-.115.789-.228,1.25-.317a11.89,11.89,0,0,1,2.732-.274,9.482,9.482,0,0,1,5.1,1.661,12.084,12.084,0,0,1,3.247,3.459,18.716,18.716,0,0,1,1.755,3.551A22.694,22.694,0,0,1,165.947,365.939Z" /></g><g data-name="default" id="default-2" transform="matrix(-1, 0, 0, 1, 380, 0)"><path class="cls-2" d="M239.64,463.371c-.822-7.144-2.461-16.135-4.759-22.342-13.642-36.838,9.04-78.792-30.636-91.823-29.145-9.571-59.413,5.745-75.671,54.174-5.9,17.562-7.776,42.306-3.484,59.991" /><path d="M125.031,463.385c-.41-.5-1.421-3.49-2.2-8.059a99.615,99.615,0,0,1-1.25-17.25,134.8,134.8,0,0,1,1.693-19.911,131.447,131.447,0,0,1,11.94-37.3A86.133,86.133,0,0,1,148.808,361a58.643,58.643,0,0,1,20.166-14.4,50.59,50.59,0,0,1,24.3-3.677,57.2,57.2,0,0,1,10.347,1.977,52.19,52.19,0,0,1,9.832,3.9,35.63,35.63,0,0,1,8.75,6.428,31.61,31.61,0,0,1,6.249,8.889c3.08,6.5,4.087,13.306,4.518,19.666.422,6.4.282,12.522.227,18.43s-.077,11.587.243,17.051a91.2,91.2,0,0,0,2.165,15.6q.219.921.435,1.833l.517,1.787q.549,1.857,1.085,3.674a74.079,74.079,0,0,1,1.621,7.381,119,119,0,0,1,1.5,13.7c-1.269-3.742-2.722-8.309-4.474-13.089-.876-2.387-1.833-4.827-2.918-7.167-.548-1.11-1.134-2.421-1.7-3.691-.6-1.268-1.024-2.59-1.531-3.886a78.5,78.5,0,0,1-4.271-26.328c.289-10.761,1.225-20.984.12-30.554a37.982,37.982,0,0,0-3.806-13.331,27.3,27.3,0,0,0-8.9-9.8,43.034,43.034,0,0,0-12.118-5.436,49.786,49.786,0,0,0-12.837-1.91,44.984,44.984,0,0,0-23.579,6.427,60.713,60.713,0,0,0-17.071,15.672,84.493,84.493,0,0,0-6.165,9.285c-.952,1.563-1.759,3.2-2.62,4.778-.783,1.626-1.623,3.2-2.327,4.836l-1.093,2.416q-.506,1.221-1.007,2.431c-.691,1.6-1.276,3.238-1.893,4.842s-1.138,3.231-1.708,4.822c-.521,1.6-1.037,3.167-1.47,4.762a134.552,134.552,0,0,0-3.788,18.792c-.389,2.918-.748,6.381-1.077,10-.268,3.625-.505,7.416-.505,10.973A101.722,101.722,0,0,0,125.031,463.385Z" /><path class="cls-1 color-body" d="M234.881,441.029c-13.642-36.838,9.04-78.792-30.636-91.823-29.144-9.571-59.413,5.745-75.671,54.174-5.9,17.562-7.776,42.306-3.484,59.991h0s6.034,10.253,50.162,13c42.248,2.629,64.388-13,64.388-13h0C238.818,456.227,237.179,447.236,234.881,441.029Z" style="fill:#ffffff;--backup-fill:#ffffff" /></g><g id="basketball_blue" transform="matrix(-1, 0, 0, 1, 380, 0)"><path class="cls-3 color-jersey" d="M231.881,447.529a79.957,79.957,0,0,1-4.319-19.305C225.056,437.95,220.371,444.5,215,444.5c-8.008,0-14.5-14.551-14.5-32.5s6.492-32.5,14.5-32.5c4.538,0,8.588,4.675,11.247,11.991C225.116,375.313,198.5,364.729,198.5,375c0,14.636-22.364,34.5-37,34.5s-17.6-29.477-12-43c1.456-3.518,4.433-6.912,6-10-10.072,9.3-23.4,33.925-29.926,53.38-5.895,17.562-9.776,59.306-5.484,76.991l.41,1.629s11,18,49.752,22.371c42.063,4.744,64.388-20,64.388-20l2-21C235.818,462.727,234.179,453.736,231.881,447.529Z" /><path d="M231.938,447.508a25.189,25.189,0,0,1,2.026,5.108,96.64,96.64,0,0,1,2.673,11.4c.205,1.173.409,2.394.594,3.663q.138.983.28,2a2.223,2.223,0,0,1-.009.6l-.042.518q-.041.5-.081,1.007c-.221,2.706-.456,5.569-.7,8.555s-.515,6.11-.786,9.317q-.07.769-.143,1.544c-.014.061,0,.137-.036.186l-.132.143-.267.284-.546.559c-.392.413-.676.663-.983.955s-.6.587-.926.856c-1.253,1.125-2.582,2.178-3.928,3.232A77.542,77.542,0,0,1,210.677,507.5a84.8,84.8,0,0,1-20.012,4.952l-4.916.473c-1.619.119-3.22.082-4.791.129a85.569,85.569,0,0,1-9.042-.309c-.718-.051-1.433-.07-2.128-.147l-2.05-.258-3.918-.491c-2.52-.362-4.845-.844-6.973-1.2-1.8-.386-3.6-.836-5.409-1.257-1.806-.447-3.585-1.048-5.393-1.573-1.794-.571-3.555-1.283-5.347-1.927l-2.628-1.153c-.877-.387-1.763-.76-2.612-1.225l-2.579-1.336c-.846-.476-1.676-.993-2.517-1.492-.85-.481-1.651-1.055-2.465-1.612l-1.22-.838-1.177-.915-1.178-.92-1.133-.994c-.769-.645-1.48-1.379-2.207-2.093-.707-.748-1.4-1.515-2.067-2.361l-.654-.912a2.086,2.086,0,0,1-.3-.509l-.163-.576-.236-.9c-.059-.237-.13-.453-.179-.707l-.631-2.977c-.228-1-.306-1.971-.465-2.961-.324-1.977-.443-3.934-.634-5.907-.146-1.966-.225-3.929-.314-5.9-.024-1.961-.1-3.932-.078-5.9.027-7.864.48-15.738,1.266-23.6a205.714,205.714,0,0,1,3.638-23.566A98.121,98.121,0,0,1,123.6,404.9c1.374-3.743,2.838-7.436,4.425-11.06A199.265,199.265,0,0,1,138.713,372.8q2.953-5.085,6.39-9.9a62.086,62.086,0,0,1,7.8-9.218l6.017,4.549a68.429,68.429,0,0,1-3.711,5.952,24.463,24.463,0,0,0-2.043,3.64,27.262,27.262,0,0,0-1.257,3.988,48.339,48.339,0,0,0,1.588,26.153,14.953,14.953,0,0,0,4.15,6.151,6.209,6.209,0,0,0,2.617,1.24,2.953,2.953,0,0,0,.71.1,5.448,5.448,0,0,0,.785.028c.307-.019.608-.016.92-.045l.946-.111a24.576,24.576,0,0,0,3.9-.974,36.05,36.05,0,0,0,3.9-1.641,48.229,48.229,0,0,0,7.381-4.583,51.084,51.084,0,0,0,11.9-12.446,26.549,26.549,0,0,0,3.411-7.222c.1-.3.139-.6.214-.9a6.113,6.113,0,0,0,.161-.888,7.947,7.947,0,0,0,.1-.879l.054-.954a8.21,8.21,0,0,1,1.254-4.224,7.586,7.586,0,0,1,3.39-2.75,7.414,7.414,0,0,1,1.011-.347,6.663,6.663,0,0,1,.971-.229,11.019,11.019,0,0,1,1.67-.163l.794-.013.745.049a12.639,12.639,0,0,1,1.441.169,24.817,24.817,0,0,1,5.149,1.46,34.348,34.348,0,0,1,8.66,5.091,30.345,30.345,0,0,1,6.759,7.447,23.91,23.91,0,0,1,2.269,4.687,21.249,21.249,0,0,1,1.067,5.22l-6.944,1.474a27.528,27.528,0,0,0-2.868-5.959,9.22,9.22,0,0,0-3.81-3.586,3.37,3.37,0,0,0-1.795-.207,4.5,4.5,0,0,0-1.938.861,13.99,13.99,0,0,0-3.691,4.437,41.112,41.112,0,0,0-4.234,12.377,67.323,67.323,0,0,0-1.145,13.123,63.925,63.925,0,0,0,1.331,12.695,35.527,35.527,0,0,0,4.178,11.188,12.252,12.252,0,0,0,3.514,3.81,4.746,4.746,0,0,0,4.058.656,7.261,7.261,0,0,0,2.037-1.048,12.515,12.515,0,0,0,1.844-1.757l.43-.5.469-.638a17.03,17.03,0,0,0,1.158-1.908c.178-.342.376-.622.537-1.009l.491-1.126c.161-.383.329-.724.483-1.134l.449-1.275a5.892,5.892,0,0,0,2.207-1.814c.212-.306.374-.613.557-.919.15-.31.274-.624.411-.941l.03-.074c.01-.035.02-.05.027,0l.046.157.09.308c.054.2.126.405.193.6.122.4.293.786.438,1.167a12.417,12.417,0,0,0,1.3,2.286c.252,1.911.507,3.623.813,5.147.286,1.508.656,3.092.86,3.921.487,1.985,1.013,3.806,1.6,5.58a59.572,59.572,0,0,1-2.385-5.536l-.273-.751-.287-.838q-.264-.817-.532-1.653c-.34-1.079-.638-2.114-.913-3.078s-.5-1.9-.707-2.781c-.094-.425-.189-.855-.287-1.294-.042-.206-.085-.415-.129-.625l-.061-.308-.031-.152c0-.057-.017.036-.026.066l-.031.129a50.387,50.387,0,0,1-2.06,6.954,21.835,21.835,0,0,1-.909,2.09c-.157.325-.31.624-.49.921-.076.133-.26.432-.4.636l-.481.663a12.084,12.084,0,0,1-5.458,4.353,8.928,8.928,0,0,1-3.909.416,9.832,9.832,0,0,1-3.689-1.279,16.978,16.978,0,0,1-5.171-4.975,32.356,32.356,0,0,1-3.266-5.936,47.709,47.709,0,0,1-2.171-6.215,68.736,68.736,0,0,1-.066-35.3,36.876,36.876,0,0,1,3.923-9.136,17.812,17.812,0,0,1,6.388-6.425,11.313,11.313,0,0,1,3.891-1.286,10.807,10.807,0,0,1,4.209.279,12.577,12.577,0,0,1,3.533,1.68,15.99,15.99,0,0,1,2.607,2.309,23.3,23.3,0,0,1,3.468,5.1,37.891,37.891,0,0,1,2.176,5.179l-6.53,1.387a15.267,15.267,0,0,0-3-8.009,26.4,26.4,0,0,0-6.761-6.38,22.968,22.968,0,0,0-8.355-3.564,9.022,9.022,0,0,0-1.938-.13,2.785,2.785,0,0,0-1.133.254,1.137,1.137,0,0,0-.549.673,1.79,1.79,0,0,0-.086.445l-.089,1.448a26.564,26.564,0,0,1-3.673,10.466,47.886,47.886,0,0,1-6.3,8.418,60.977,60.977,0,0,1-7.6,6.911,54.122,54.122,0,0,1-8.6,5.447,34.345,34.345,0,0,1-9.692,3.342,17.9,17.9,0,0,1-5.381.159,11.607,11.607,0,0,1-5.168-2.146,16.02,16.02,0,0,1-3.684-3.861,23.292,23.292,0,0,1-2.417-4.48,40.537,40.537,0,0,1-2.565-9.443,57.014,57.014,0,0,1-.648-9.534,52.51,52.51,0,0,1,.937-9.416,35.853,35.853,0,0,1,1.2-4.6,22.19,22.19,0,0,1,1.984-4.41c1.587-2.726,3.5-5.09,4.761-7.51l2.419,1.829a72.786,72.786,0,0,0-10.377,13.115c-3.034,4.7-5.768,9.539-8.283,14.425s-4.8,9.83-6.852,14.8a117.132,117.132,0,0,0-5.21,14.986,146.228,146.228,0,0,0-2.975,15.294q-1.136,7.653-1.754,15.22a204.364,204.364,0,0,0-.571,29.569q.151,1.787.3,3.563c.12,1.179.306,2.335.454,3.5a15.225,15.225,0,0,0,.291,1.713l.343,1.683c.1.556.229,1.122.39,1.7a3.559,3.559,0,0,0,.132.456l.28.387a34.944,34.944,0,0,0,4.655,4.752,52.607,52.607,0,0,0,5.46,3.959,64.11,64.11,0,0,0,12.016,5.919c2.05.857,4.194,1.451,6.286,2.138,2.112.635,4.263,1.115,6.374,1.675l6.418,1.244,6.418.9,6.354.482a26.371,26.371,0,0,0,3.153.087l3.137-.014a83.066,83.066,0,0,0,24.025-4.02,78.8,78.8,0,0,0,18.452-8.874c1.555-1.011,3.071-2.113,4.545-3.271.732-.586,1.464-1.174,2.155-1.8.405-.351.583-.516.816-.73.1-.113.271-.194.293-.345l.063-.457c.472-3.756.94-7.487,1.393-11.094q.351-2.755.688-5.4.171-1.322.335-2.606a3.686,3.686,0,0,0,.063-1.109q-.055-.632-.111-1.253c-.31-3.314-.714-6.395-1.154-9.134A80.536,80.536,0,0,0,231.938,447.508Z" /><path class="cls-4 color-jersey-accent" d="M228.616,444.644c.026.182-.132.488-.439.9A8.877,8.877,0,0,1,226.794,447a16.505,16.505,0,0,1-5.31,3.208,14.31,14.31,0,0,1-7.411.75,18.309,18.309,0,0,1-5.848-2.151c-4.948-2.7-8.722-7.573-11.159-12.844a49.141,49.141,0,0,1-4.3-16.586,81.427,81.427,0,0,1-.041-13.9,58.373,58.373,0,0,1,1.01-6.787c.232-1.108.508-2.2.808-3.275.3-1.053.622-2.071.958-3.081a51.652,51.652,0,0,1,5.1-11.018,23.147,23.147,0,0,1,7.319-7.642,68.561,68.561,0,0,0-2.607,10.3c-.656,3.472-1.24,6.659-2.025,8.223s-1.493,3.174-2.111,4.776a39.33,39.33,0,0,0-1.509,4.773,52.6,52.6,0,0,0-1.431,9.621,72.348,72.348,0,0,0,.033,9.219,40.967,40.967,0,0,0,1.578,8.358,33.868,33.868,0,0,0,7.134,13.195,19.372,19.372,0,0,0,4.944,3.992,12.366,12.366,0,0,0,5.341,1.523c.431.041.905-.033,1.415-.012.51-.008,1.047-.1,1.617-.127.554-.113,1.145-.184,1.727-.32.57-.17,1.178-.272,1.731-.482,1.137-.357,2.177-.819,3.043-1.186C227.628,445.116,228.284,444.8,228.616,444.644Z" /><path class="cls-4 color-jersey-accent" d="M197.351,383.05c.206.184.4,1.4-.229,3a18.182,18.182,0,0,1-3.461,5.033c-2.938,3.407-6.314,7.223-8.07,9.48-3.1,3.952-6.85,8.241-12.043,11.167a23.8,23.8,0,0,1-8.507,2.895,20.338,20.338,0,0,1-4.621.042,20.576,20.576,0,0,1-4.429-1.057,22.586,22.586,0,0,1-11.492-9.651,24.908,24.908,0,0,1-3.318-13.667,32.781,32.781,0,0,1,2.862-11.971,32.065,32.065,0,0,1,5.521-8.651c-.647,2.887-1.5,6.7-2.021,10.214-.545,3.515-.71,6.663-1.02,8.295a21.226,21.226,0,0,0,.176,9.725,18.345,18.345,0,0,0,4.573,8.03,17,17,0,0,0,7.478,4.567,15.248,15.248,0,0,0,8.181.046,22.852,22.852,0,0,0,7.1-3.3,40.527,40.527,0,0,0,5.692-4.834c1.725-1.721,3.32-3.49,4.908-5.194s3.148-3.325,4.695-4.853c.72-.741,1.615-1.575,2.57-2.424s1.962-1.68,2.81-2.523a10.85,10.85,0,0,0,1.975-2.5A6.994,6.994,0,0,0,197.351,383.05Z" /><path class="cls-2" d="M184.593,392.484a38.481,38.481,0,0,0-2.848,5.11c6.369,2.277,20.527,6.221,21.019,6.015.582-.244,1.829-3.884,2.236-5.108C204.407,397.228,184.593,392.484,184.593,392.484Z" /><path d="M184.6,392.458c.563-.442,8.317,1.507,11.374,2.04,1.591.266,3.239.6,4.914,1,.838.206,1.68.426,2.537.691l.324.1c.116.039.184.055.389.137a8.074,8.074,0,0,1,1.041.45,3.8,3.8,0,0,1,1.458,1.416q-.368,1.139-.731,2.268l-.453,1.317-.25.661-.133.333-.181.414a6.941,6.941,0,0,1-.618,1.085,3.4,3.4,0,0,1-.873.742,7.354,7.354,0,0,1-.831.056,3.046,3.046,0,0,1-.843-.033l-1.161-.24a117.519,117.519,0,0,1-13.759-4.037q-1.578-.57-3.06-1.165l-2.113-.835c-.666-.364-2.013-.417-1.087-1.356q.6-1.042,1.184-2.048c.3-.476.53-.81.8-1.2.261-.376.523-.74.793-1.09a6.882,6.882,0,0,1,.943-1.051,5.5,5.5,0,0,0-.323,1.358l-.255,1.415-.151.736-.082.373-.041.187v.105a.9.9,0,0,0,.121.511c.024.019.019.046.072.046l.166-.014a1.441,1.441,0,0,0,.236-.045.5.5,0,0,0,.133-.058l.021-.014.147.029.312.068a10.214,10.214,0,0,1,1.947.593,87.6,87.6,0,0,0,8.453,3.373q2.044.7,4.013,1.268c.655.187,1.3.369,1.943.53l.869.21a2.9,2.9,0,0,0,.6.1,1.7,1.7,0,0,0,.456-.7c.167-.363.338-.795.489-1.2s.3-.82.437-1.229c.078-.254.157-.5.234-.755l.04-.139a.227.227,0,0,0-.1-.105,1.747,1.747,0,0,0-.264-.138c-.18-.077-.362-.14-.559-.208-.615-.213-1.241-.4-1.858-.583-1.239-.358-2.456-.678-3.635-.988-2.361-.617-4.577-1.195-6.635-1.836A58.866,58.866,0,0,1,184.6,392.458Z" /><path class="cls-4 color-jersey-accent" d="M173.128,500.08c-.284-.264-.175-1.537,0-3.281.1-.862.218-1.832.336-2.831a28.24,28.24,0,0,0,.274-2.96,9.472,9.472,0,0,1,.183-1.256c-.011-.134.231-.16.273-.263l.09-.3a3.531,3.531,0,0,0,.119-.535.606.606,0,0,0-.018-.316c-.046-.038.033-.073.081-.109l.149-.107q.294-.216.548-.434l.591,0,.827-.009.577-.02,1.125-.029,2.212.027c1.486.039,2.994.088,4.517.056,1.521-.014,3.05-.05,4.568-.108l1.136-.047.6-.026,1.052-.03a4.237,4.237,0,0,1,1.918.406l.8.45.666.411c-.174.517-.341,1.014-.5,1.5l-.142.665-.038.518c-.01.575.032,1.214.075,1.913.021.351.043.714.049,1.111l.064.915.145,2.063.066,1.234a5.145,5.145,0,0,1-.13,1.913,1.857,1.857,0,0,1-.29.285l-.073.066-.038.034-.02.018-.01.009c.278.224.07.066.128.117l-.205.091-.819.361-.814.356a3.265,3.265,0,0,1-.811.224c-.683.144-1.366.258-2.044.359a36.357,36.357,0,0,1-4,.347A32.989,32.989,0,0,1,173,500.572c1.792-.334,4.214-.553,6.423-.78a38.116,38.116,0,0,1,5.295-.346,29.863,29.863,0,0,0,4.891.042l1.188-.113,1.1-.144c.168-.01.35-.031.545-.053.131.018.123-.1.136-.179l.027-.268c.084-2.316-.322-6.475.03-8.28.019-.065.034-.131.058-.194l.034-.1c.008-.031-.047-.04-.069-.058a1.189,1.189,0,0,0-.382-.115,4.737,4.737,0,0,0-.8-.01l-2.42.069c-1.657.037-3.266.05-4.827.03-1.562,0-3.073-.125-4.539-.208-.728-.038-1.467-.106-2.153-.127l-1.472-.054c-.184.026-.535-.129-.367.162a1.469,1.469,0,0,1-.065.459c-.055.22-.17.667-.176.77a11.559,11.559,0,0,1-.191,1.428C174.855,495.06,173.284,499.168,173.128,500.08Z" /><ellipse class="cls-4 color-jersey-accent" cx="153.299" cy="448.887" rx="24.516" ry="17.915" transform="translate(-306.863 564.002) rotate(-85.19)" /><path class="cls-4 color-jersey-accent" d="M171.094,450.385c-.623-.571-.267-5.762-2.159-11.239a22.781,22.781,0,0,0-4.074-7.519,13.97,13.97,0,0,0-5.3-4.027,12.979,12.979,0,0,0-4.214-.838,11.664,11.664,0,0,0-4.2.737,13.344,13.344,0,0,0-3.808,2.189,18.9,18.9,0,0,0-1.694,1.521l-.765.874a7.82,7.82,0,0,0-.732.907A27.981,27.981,0,0,0,139,450.864c.225,5.336,1.888,10.6,4.887,14.311a12.737,12.737,0,0,0,5.227,4.019,10.469,10.469,0,0,0,6.09.414,14.048,14.048,0,0,0,5.716-2.922,22.834,22.834,0,0,0,4.4-4.946,32.109,32.109,0,0,0,1.675-2.8c.447-.974.953-1.914,1.3-2.9a39,39,0,0,0,1.783-5.747,19.055,19.055,0,0,1,.966,6.539,22.616,22.616,0,0,1-1.483,7.769,21.827,21.827,0,0,1-4.02,6.717,17.417,17.417,0,0,1-2.528,2.251,12.692,12.692,0,0,1-1.2.8c-.4.209-.777.387-1.119.533A18.078,18.078,0,0,1,152,476.277a16.761,16.761,0,0,1-7.773-2.813,20.312,20.312,0,0,1-5.349-5.384,29.014,29.014,0,0,1-3.156-6.319,34.682,34.682,0,0,1-1.794-12.963,35.344,35.344,0,0,1,2.568-11.951,26.645,26.645,0,0,1,6.525-9.648,18.992,18.992,0,0,1,4.754-3.248,16.7,16.7,0,0,1,5.528-1.5,15.594,15.594,0,0,1,10.376,3.052,20.273,20.273,0,0,1,6.144,7.649A23.263,23.263,0,0,1,172,443.205c-.029.86-.029,1.68-.1,2.445-.091.758-.175,1.464-.25,2.1C171.418,449,171.2,449.927,171.094,450.385Z" /></g><g data-name="default" id="default-3" transform="matrix(-1, 0, 0, 1, 380, 0)"><path class="cls-1 color-body" d="M210.791,402.426c4.766,11.192,7.753,25.3,10.376,45.725,2.91,22.661,8.17,41.038,19.894,39.455,14.687-1.984,18.916-32.765,17.978-48.04-1.139-18.561-3.924-46.029-22.5-62.515-15.9-14.111-24.321-.71-24.321-.71" style="fill:#ffffff;--backup-fill:#ffffff" /><path d="M212.163,376.309a4.751,4.751,0,0,1,1.129-2.015,12.819,12.819,0,0,1,10.682-4.683,19.817,19.817,0,0,1,7.878,2.5,31.192,31.192,0,0,1,3.614,2.395l1.727,1.341c.569.456,1.068.978,1.606,1.465a36.46,36.46,0,0,1,3.058,3.044l1.414,1.586.7.784.627.825a69.022,69.022,0,0,1,7.46,11.874c5.769,11.243,8.546,24.7,9.841,38,.173,1.668.321,3.334.456,5s.25,3.463.275,5.164a98.609,98.609,0,0,1-.362,10.251,85.588,85.588,0,0,1-3.941,19.875,43.312,43.312,0,0,1-3.783,8.28,26.328,26.328,0,0,1-2.873,3.895,18.251,18.251,0,0,1-3.919,3.376,14.721,14.721,0,0,1-5.079,2.1,13.243,13.243,0,0,1-10.892-2.289,17.757,17.757,0,0,1-3.651-3.626,32.965,32.965,0,0,1-4.335-7.95,64.54,64.54,0,0,1-2.53-7.962,130.5,130.5,0,0,1-2.827-15.475c-.642-5.078-1.041-9.864-1.6-14.527-.534-4.66-1.115-9.159-1.78-13.464a139.357,139.357,0,0,0-5.314-23.2,54.861,54.861,0,0,1,5.944,10.1,98.283,98.283,0,0,1,4.82,12.781,109.657,109.657,0,0,1,4.5,21.66c.275,4.421.663,8.74,1.259,12.952a83.864,83.864,0,0,0,2.535,12.18,40.966,40.966,0,0,0,2.069,5.552,19.448,19.448,0,0,0,2.946,4.7,9.716,9.716,0,0,0,1.887,1.71,6.966,6.966,0,0,0,2.153,1.04,8.1,8.1,0,0,0,4.8-.173c3.185-1.026,5.715-3.861,7.544-6.956a43.293,43.293,0,0,0,4.169-10.067,88.166,88.166,0,0,0,3.1-20.924q.079-2.565.006-5.077c-.038-1.666-.188-3.316-.318-5-.264-3.34-.588-6.609-1-9.806a128.055,128.055,0,0,0-3.57-18.237,79.522,79.522,0,0,0-6.245-15.941,58.107,58.107,0,0,0-9.166-12.837l-1.325-1.35c-.23-.232-.454-.484-.7-.713l-.767-.666-1.581-1.4c-.542-.471-1.148-.848-1.731-1.294a17.28,17.28,0,0,0-7.869-3.387,11.891,11.891,0,0,0-7.352,1.539A14.682,14.682,0,0,0,212.163,376.309Z" /></g></svg>