<svg xmlns="http://www.w3.org/2000/svg" id="sports" viewBox="0 0 380 600"><defs transform="matrix(-1, 0, 0, 1, 380, 0)"><style>.cls-1{fill:#ffffff;}.cls-2{fill:#006dc6;}.cls-3{fill:#fff1b6;}.cls-4{fill:#fff;}</style></defs><g id="default" transform="matrix(-1, 0, 0, 1, 380, 0)"><path class="cls-1 color-body" d="M160.412,391.943c-7.582,9.513-14.229,22.312-22.211,41.293-8.856,21.061-18.834,37.366-29.709,32.709-13.624-5.834-9.478-36.627-4.5-51.1,6.055-17.583,19.428-51.04,47.782-59.992,10.883-3.436,14.227,11.569,14.227,11.569" style="fill:#ffffff;--backup-fill:#ffffff"></path><path d="M165.947,366.439c-.44-.388-1.22-2.975-3.311-6.14a11.794,11.794,0,0,0-4.514-4.164,7.363,7.363,0,0,0-3.27-.648,9.3,9.3,0,0,0-1.766.244l-.889.259-.948.349a49.192,49.192,0,0,0-14.275,8.128,57.522,57.522,0,0,0-9.412,9.669c-7.36,9.662-13.088,21.508-17.59,33.918-.567,1.551-1.111,3.116-1.646,4.685s-1.071,3.182-1.519,4.674a90.747,90.747,0,0,0-2.2,9.4,85.485,85.485,0,0,0-1.432,18.768,43.512,43.512,0,0,0,1.008,7.616,18.355,18.355,0,0,0,2.6,6.285,7.5,7.5,0,0,0,4.289,3.11,5.092,5.092,0,0,0,2.314.024,8.1,8.1,0,0,0,2.521-1.071,21.852,21.852,0,0,0,5.02-4.608,57.042,57.042,0,0,0,4.348-6.074,136.894,136.894,0,0,0,7.2-13.3c1.09-2.257,2.1-4.48,3.139-6.745s2.078-4.494,3.133-6.677c2.11-4.365,4.264-8.554,6.487-12.514a107.486,107.486,0,0,1,14.292-20.4c-1.433,3.123-3.134,6.869-4.826,10.906s-3.376,8.382-4.98,12.609c-3.2,8.461-6.094,16.462-8.124,20.507-4.173,8.251-8.377,16.247-13.84,23.355a43.511,43.511,0,0,1-4.532,5.019,21.321,21.321,0,0,1-5.745,3.963,13.429,13.429,0,0,1-3.535,1.017,11.7,11.7,0,0,1-3.722-.137,13.029,13.029,0,0,1-6.187-3.367,16.82,16.82,0,0,1-3.674-5.521,28.679,28.679,0,0,1-1.772-5.985,56.261,56.261,0,0,1-.838-11.806,103.886,103.886,0,0,1,3.1-22.037c.441-1.747.922-3.472,1.482-5.172.553-1.673,1.107-3.311,1.686-4.94q1.719-4.882,3.638-9.529a131.2,131.2,0,0,1,8.694-17.45A84.1,84.1,0,0,1,127.418,368a65.533,65.533,0,0,1,6.521-5.92,55.826,55.826,0,0,1,7.131-4.7,42.653,42.653,0,0,1,8.363-3.512l1.184-.341c.39-.115.789-.228,1.25-.317a11.946,11.946,0,0,1,2.732-.274,9.474,9.474,0,0,1,5.1,1.661,12.084,12.084,0,0,1,3.247,3.459,18.746,18.746,0,0,1,1.755,3.551A22.679,22.679,0,0,1,165.947,366.439Z"></path></g><g id="shirt_short_red" transform="matrix(-1, 0, 0, 1, 380, 0)"><path class="cls-2 color-jersey" d="M166.006,366.426s-3.344-15-14.227-11.569C133.829,360.524,121.5,376.5,114.5,391.5c-3.061,6.56,9,24,27.959,28.931,6.186-13.742,11.758-20.715,17.953-28.488"></path><path d="M160.46,391.981c.139.892-3.408,5.573-7.027,11.2-1.8,2.822-3.58,5.907-5.045,8.814-.729,1.456-1.39,2.859-1.957,4.147-.661,1.58-1.254,3-1.749,4.184q-.417,1.014-.836,2.034l-.217.522c-.015.133-.121.068-.2.055l-.256-.058-1.041-.239c-.7-.158-1.419-.326-2.142-.527l-1.1-.293c-.361-.1-.791-.21-.983-.275a41.627,41.627,0,0,1-5.867-2.2,45.262,45.262,0,0,1-10.831-7.023,38.437,38.437,0,0,1-8.5-10.316,23.362,23.362,0,0,1-1.471-3.254,15.61,15.61,0,0,1-.9-3.787,10,10,0,0,1,.568-4.7l.123-.316.089-.2.162-.349.323-.7.645-1.388a89.192,89.192,0,0,1,5.2-9.291,82.115,82.115,0,0,1,6.34-8.435,69.381,69.381,0,0,1,7.41-7.251c.65-.553,1.344-1.054,2.01-1.575s1.34-1.029,2.051-1.484l2.085-1.392,2.153-1.242,1.069-.607,1.1-.535,2.186-1.045,2.228-.872a20.6,20.6,0,0,1,2.222-.775l2.218-.66c.335-.112.809-.207,1.235-.3a12.072,12.072,0,0,1,1.33-.2,10.978,10.978,0,0,1,5.361.742,11.287,11.287,0,0,1,4.067,2.9,16.017,16.017,0,0,1,2.438,3.625,23.453,23.453,0,0,1,2.169,7.268,38.915,38.915,0,0,0-4.77-5.706,14,14,0,0,0-2.989-2.224,6.763,6.763,0,0,0-2.978-.855,6.931,6.931,0,0,0-2.611.514,5.718,5.718,0,0,0-.626.268l-.317.142-.393.195-1.516.723c-.991.415-1.86.911-2.663,1.274l-2.1.911a46.122,46.122,0,0,0-13.026,7.712,61.54,61.54,0,0,0-9.961,10.745,74.938,74.938,0,0,0-7.121,11.95c-.056.12-.138.269-.173.363l-.1.267a4.011,4.011,0,0,0-.151.581c-.031.208-.042.429-.066.644l.017.686a10.675,10.675,0,0,0,.667,2.857,22.754,22.754,0,0,0,2.925,5.363,38.834,38.834,0,0,0,8.421,8.4,43.674,43.674,0,0,0,9.7,5.43c.8.342,1.709.646,2.442.91.406.119.8.242,1.188.335l.29.075c.059.036.074-.023.093-.072l.062-.14.244-.551.246-.534.533-1.1a80.787,80.787,0,0,1,5.116-9,59.194,59.194,0,0,1,7.118-8.742C157.253,394.877,159.661,392.7,160.46,391.981Z"></path></g><path class="cls-2 color-jersey" d="M144.419,407.862c-32.631-14.61-33.532-39.113-23-49.647,6.548-6.548,15.96-6.548,24.423-4.568,14.581,3.412,18.731,16.135,15.382,28.829" transform="matrix(-1, 0, 0, 1, 380, 0)"></path><path d="M161.167,382.46a2.411,2.411,0,0,1-.149-1.215c.025-.623.11-1.446.142-2.429a31.517,31.517,0,0,0-.241-7.2,19.948,19.948,0,0,0-2.708-7.545,15.1,15.1,0,0,0-4.426-4.573,22.1,22.1,0,0,0-8.194-3.039,40.664,40.664,0,0,0-9.343-.675,19.948,19.948,0,0,0-8.354,2.189,13.88,13.88,0,0,0-3.267,2.389,14.38,14.38,0,0,0-2.492,3.1A20.13,20.13,0,0,0,119.717,377a30.136,30.136,0,0,0,5.629,12.9,54.777,54.777,0,0,0,9.559,9.83,110.671,110.671,0,0,0,9.979,7.093,32.046,32.046,0,0,1-13.333-2.841c-4.546-1.954-8.408-4.927-9.875-6.994a43.623,43.623,0,0,1-6.746-13.02,30.527,30.527,0,0,1-1.094-13.558,24.3,24.3,0,0,1,5.027-11.622,20.948,20.948,0,0,1,9.811-6.754,29.471,29.471,0,0,1,10.986-1.272,39.858,39.858,0,0,1,10.125,1.881,21.562,21.562,0,0,1,8.516,5.266,19.414,19.414,0,0,1,4.727,8.128c.183.69.368,1.448.526,2.247.089.81.193,1.657.229,2.519-.018.864.006,1.74-.085,2.6-.116.859-.171,1.707-.358,2.508s-.322,1.571-.544,2.272-.434,1.337-.62,1.914C161.724,381.222,161.353,382.052,161.167,382.46Z" transform="matrix(-1, 0, 0, 1, 380, 0)"></path><path class="cls-3 color-jersey-accent" d="M134.467,389.843a46.265,46.265,0,0,1-16.774-18.682c-2.029,11.62,2.716,24.791,23.366,35.105a21.236,21.236,0,0,0,.638-5.376,11.7,11.7,0,0,0-2.226-7.272A19.3,19.3,0,0,0,134.467,389.843Z" style="" transform="matrix(-1, 0, 0, 1, 380, 0)"></path><path d="M134.483,389.817a7.791,7.791,0,0,1,2.376,1.056,10.248,10.248,0,0,1,4.022,3.768,13.755,13.755,0,0,1,1.594,6.2c.024.511.027,1.011.015,1.493-.009.241-.019.478-.028.709-.016.253-.021.4-.055.748-.116,1.228-.34,2.3-.512,3.251l-.121.641c0,.089-.07,0-.1,0l-.133-.058-.269-.115-1.1-.474-2.311-1.109c-1.084-.471-2.123-1.072-3.188-1.653-.529-.3-1.072-.577-1.594-.9l-1.556-1c-.517-.342-1.048-.666-1.556-1.029l-1.5-1.135a41.2,41.2,0,0,1-5.582-5.13,32.7,32.7,0,0,1-4.337-6.167,26.563,26.563,0,0,1-3.049-9.541l-.148-1.347c-.023-.73.016-1.442.021-2.158l.04-2.127c.029-.683.151-1.239.222-1.858q.26-1.845.515-3.656.136-.924.27-1.838l.122-.748.118-.652q.931,1.851,1.848,3.677.909,1.776,1.8,3.525c.291.6.584,1.072.873,1.553l.857,1.436c.136.23.29.491.422.677l.223.343.443.684a51.6,51.6,0,0,0,3.778,4.979,56.252,56.252,0,0,0,7.873,7.5,24.744,24.744,0,0,1-8.484-4.115,23.7,23.7,0,0,1-5.889-5.9c-.185-.284-.349-.582-.52-.871l-.255-.434-.126-.217c.019.018.013,0,.015-.013a1.457,1.457,0,0,0-.071-.389c-.094-.331-.273-.8-.476-1.332l-.1-.253c-.032-.071-.08-.229-.088-.152a1.665,1.665,0,0,0-.1.193,2.236,2.236,0,0,0-.182.591,4.281,4.281,0,0,0-.111.815l-.028.474a1.556,1.556,0,0,0,0,.265l.033.45a21.885,21.885,0,0,0,1.708,7.359,25.478,25.478,0,0,0,3.646,6.187c.369.454.7.93,1.093,1.355l1.176,1.253a33.26,33.26,0,0,0,2.442,2.31,57.217,57.217,0,0,0,10.384,6.919l1.339.68a.308.308,0,0,0,.068.031l.018-.079.034-.158.062-.313c.038-.207.071-.412.1-.617l.062-.557.053-.654q.042-.651.045-1.292a17.406,17.406,0,0,0-.164-2.5,13.377,13.377,0,0,0-.719-2.8,8.5,8.5,0,0,0-1.682-2.675A41.668,41.668,0,0,0,134.483,389.817Z" transform="matrix(-1, 0, 0, 1, 380, 0)"></path><g data-name="default" id="default-2" transform="matrix(-1, 0, 0, 1, 380, 0)"><path class="cls-4" d="M239.64,463.371c-.822-7.144-2.461-16.135-4.759-22.342-13.642-36.838,9.04-78.792-30.636-91.823-29.145-9.571-59.413,5.745-75.671,54.174-5.9,17.562-7.776,42.306-3.484,59.991" style=""></path><path d="M125.031,463.385c-.41-.5-1.421-3.49-2.2-8.059a99.615,99.615,0,0,1-1.25-17.25,134.814,134.814,0,0,1,1.693-19.911,131.447,131.447,0,0,1,11.94-37.3A86.133,86.133,0,0,1,148.808,361a58.643,58.643,0,0,1,20.166-14.4,50.59,50.59,0,0,1,24.3-3.677,57.2,57.2,0,0,1,10.347,1.977,52.19,52.19,0,0,1,9.832,3.9,35.63,35.63,0,0,1,8.75,6.428,31.624,31.624,0,0,1,6.249,8.889c3.08,6.5,4.087,13.306,4.518,19.666.422,6.4.282,12.522.227,18.43s-.077,11.588.243,17.051a91.2,91.2,0,0,0,2.165,15.6q.219.921.435,1.833.26.9.517,1.787.549,1.857,1.085,3.675a74.043,74.043,0,0,1,1.621,7.379,119.041,119.041,0,0,1,1.5,13.7c-1.269-3.742-2.722-8.309-4.474-13.089-.876-2.387-1.833-4.827-2.918-7.167-.548-1.11-1.134-2.421-1.7-3.691-.6-1.268-1.024-2.59-1.531-3.886a78.5,78.5,0,0,1-4.271-26.328c.289-10.761,1.225-20.984.12-30.554a37.964,37.964,0,0,0-3.806-13.33,27.291,27.291,0,0,0-8.9-9.8,43.034,43.034,0,0,0-12.118-5.436,49.83,49.83,0,0,0-12.837-1.91,44.984,44.984,0,0,0-23.579,6.427,60.728,60.728,0,0,0-17.071,15.672,84.4,84.4,0,0,0-6.165,9.285c-.952,1.563-1.759,3.2-2.62,4.778-.783,1.627-1.623,3.2-2.327,4.836l-1.093,2.416q-.506,1.221-1.007,2.431c-.691,1.6-1.276,3.238-1.893,4.842s-1.138,3.231-1.708,4.822c-.521,1.6-1.037,3.168-1.47,4.762a134.581,134.581,0,0,0-3.788,18.792c-.389,2.918-.748,6.381-1.077,10-.268,3.625-.505,7.416-.505,10.973A101.722,101.722,0,0,0,125.031,463.385Z"></path><path class="cls-1 color-body" d="M234.881,441.029c-13.642-36.838,9.04-78.792-30.636-91.823-29.144-9.571-59.413,5.745-75.671,54.174-5.9,17.562-7.776,42.306-3.484,59.991h0s6.034,10.253,50.162,13c42.248,2.629,64.388-13,64.388-13h0C238.818,456.227,237.179,447.236,234.881,441.029Z" style="fill:#ffffff;--backup-fill:#ffffff"></path></g><path class="cls-2 color-jersey" d="M234.881,441.529c-11.024-29.769,1.667-62.877-13.994-81.364,2.1,2.485-.621,5.567-9.786,9.341-10.484,4.317-28.574,9.705-44.747,18.6-5.931-8.087-9.759-29.363-9.759-29.363-11.168,9.2-20.929,24.012-28.021,45.137-5.9,17.562-7.776,42.306-3.484,59.991,0,0,6.034,17.253,50.162,20,42.248,2.629,64.388-20,64.388-20C238.818,456.727,237.179,447.736,234.881,441.529Z" transform="matrix(-1, 0, 0, 1, 380, 0)"></path><path d="M234.938,441.508c.619.714,2.428,5.143,3.906,11.972.374,1.7.738,3.555,1.075,5.528q.121.741.248,1.5.121.808.248,1.64l.252,1.97.015.125c-.01.036-.053.061-.079.092l-.176.178-.362.351-.737.706-1.39,1.228-1.337,1.092c-.9.73-1.862,1.414-2.819,2.13-.991.665-1.983,1.363-3.012,2.026l-3.171,1.926a89.27,89.27,0,0,1-13.887,6.339l-3.644,1.215c-1.206.423-2.455.678-3.67,1.023-1.226.3-2.427.689-3.65.915l-3.627.709a99.94,99.94,0,0,1-13.637,1.543c-1.053.047-2.08.164-3.077.149l-2.9-.02c-1.866-.032-3.615.029-5.184-.063l-4.177-.244c-1.4-.1-2.807-.126-4.214-.318-2.814-.347-5.669-.558-8.513-1.125a79.06,79.06,0,0,1-17.1-4.626,52.437,52.437,0,0,1-8.247-4.154,33.206,33.206,0,0,1-7.346-6.32,18.75,18.75,0,0,1-1.541-2.1,14.147,14.147,0,0,1-.707-1.255,6.619,6.619,0,0,1-.38-.9c-.086-.313-.138-.6-.178-.755-.342-1.5-.716-3-.958-4.52l-.4-2.271-.309-2.278c-.233-1.52-.331-3.043-.49-4.567a122.26,122.26,0,0,1-.1-18.285A133.957,133.957,0,0,1,122.088,414a113.327,113.327,0,0,1,5.112-17.362,129.8,129.8,0,0,1,7.265-16.185,97.477,97.477,0,0,1,8.654-13.4,75.283,75.283,0,0,1,5.249-6.08l1.282-1.318c.452-.428.9-.866,1.357-1.276l2.726-2.411c1.8-1.6,3.721-3.23,5.524-4.8l1.133,6.116c.388,1.986.793,4.095,1.191,5.779l.527,2.309.345,1.412.728,2.805a92.408,92.408,0,0,0,3.534,10.737c.33.842.747,1.658,1.079,2.422l.028.068c0,.015.008.016.017.014l.016,0,.005,0c.016-.006-.033.016-.023.013l.168-.083.668-.333c3.558-1.792,7.149-3.416,10.74-4.917,7.176-3.014,14.36-5.563,21.312-8.012,3.465-1.229,6.9-2.438,10.085-3.747a43.719,43.719,0,0,0,4.486-2.126c.329-.195.687-.382.979-.584l.461-.3.64-.483a4.944,4.944,0,0,0,.463-.434c.17-.086.393,0,.587-.015l.6.032.3.016.149.007.092-.079.735-.63.617-.546c.453-.416.713-.688.65-.721a2.473,2.473,0,0,0-.682.269l1.24-.7.3-.164a3.456,3.456,0,0,0,.368-.223l.947-.62c.48.654.979,1.261,1.436,1.946l1.312,2.146a18.047,18.047,0,0,1,1.228,2.221l.77,1.7a43.518,43.518,0,0,1,1.869,5.815,64.227,64.227,0,0,1,1.659,11.442c.452,7.449.167,14.482.082,21.195a179.4,179.4,0,0,0,.51,19.175q.435,4.546,1.245,8.824a79.425,79.425,0,0,0,2.1,8.216,60.022,60.022,0,0,1-3.61-8.238,77.4,77.4,0,0,1-2.714-10.042,171.34,171.34,0,0,1-2.648-22.576c-.519-7.586-.953-14.959-2.167-21.139a48.366,48.366,0,0,0-2.3-8.253c-.249-.584-.468-1.167-.712-1.713l-.322-.664v.007s0,0,0-.024a.606.606,0,0,0-.018-.149l0-.01c.013-.065.025-.083-.008-.089a.315.315,0,0,0-.068.006l-.049.009c-.043.019.026-.038-.158.091a25.474,25.474,0,0,1-3.02,1.787,58.392,58.392,0,0,1-5.877,2.542c-3.851,1.427-7.624,2.655-11.349,3.9-7.444,2.469-14.677,4.982-21.616,7.875-1.732.727-3.447,1.471-5.138,2.246-.853.374-1.68.79-2.518,1.184l-3.339,1.64-1.906.947-.473.235-.237.117-.118.059c-.037.012-.051-.062-.079-.089l-.577-.9c-.378-.606-.782-1.194-1.132-1.805l-1.02-1.835c-.157-.29-.366-.64-.479-.879l-.3-.667-.588-1.332c-.359-.891-.7-1.783-1.035-2.672a111.522,111.522,0,0,1-3.173-10.706c-.222-.89-.439-1.78-.639-2.67l-.275-1.207-.176-.831c-.21-1.026-.394-1.986-.572-3.018l-.024-.14c-.022-.006-.065.047-.1.068l-.206.171-.415.345c-.28.228-.557.464-.824.715l-.815.745-.858.857c-.9.878-1.708,1.844-2.563,2.758-.8.969-1.634,1.9-2.389,2.893a91.344,91.344,0,0,0-8.152,12.39,118.212,118.212,0,0,0-6.193,13.176,113.535,113.535,0,0,0-8.465,40.551,98.9,98.9,0,0,0,2.185,25.816l.145.646a3.843,3.843,0,0,0,.2.431,11.089,11.089,0,0,0,.733,1.164,10.176,10.176,0,0,0,.875,1.135,11.518,11.518,0,0,0,.974,1.082l1.041,1.035,1.133.956a29.328,29.328,0,0,0,2.383,1.774,52.265,52.265,0,0,0,10.668,5.273,105.213,105.213,0,0,0,22.86,4.9,134.613,134.613,0,0,0,22.3.54,100.737,100.737,0,0,0,20.724-3.889,91.4,91.4,0,0,0,14.023-5.521c1.242-.571,2.444-1.24,3.656-1.908,1.232-.637,2.391-1.4,3.582-2.105,1.161-.748,2.326-1.5,3.422-2.3.549-.4,1.11-.792,1.628-1.215l.637-.49.583-.478.144-.125a.47.47,0,0,0,.068-.065l0-.09-.022-.364-.048-.739q-.081-.931-.162-1.843c-.122-1.287-.262-2.539-.408-3.75-.3-2.421-.633-4.67-.986-6.672A73.682,73.682,0,0,0,234.938,441.508Z" transform="matrix(-1, 0, 0, 1, 380, 0)"></path><path class="cls-3 color-jersey-accent" d="M215.133,378.6a68.471,68.471,0,0,0,11.35-8.355,30.9,30.9,0,0,0-5.6-10.077c2.1,2.485-.621,5.567-9.786,9.341-10.484,4.317-28.574,9.7-44.747,18.6-5.931-8.087-9.759-29.363-9.759-29.363a66.369,66.369,0,0,0-7.51,7.317,99.073,99.073,0,0,0,2.992,11.88c2.463,7.536,6.24,14.785,11.93,20.307l18.848-6.282C193.926,388.275,205.093,384.542,215.133,378.6Z" style="" transform="matrix(-1, 0, 0, 1, 380, 0)"></path><path d="M215.149,378.623a32.1,32.1,0,0,1-5.373,3.338,116.191,116.191,0,0,1-11.924,5.413c-4.618,1.823-9.619,3.561-14.18,5.14s-8.685,3.026-11.621,4.1l-6.151,2.232-1.041.367-.628.22-.316.111-.159.055-.079.027-.056-.055-1.725-1.7c-.8-.828-1.584-1.683-2.316-2.586a49.671,49.671,0,0,1-7.2-12.075,78.789,78.789,0,0,1-4.287-13.532l-.385-1.725-.234-1.117-.16-.8-.081-.4c-.035-.072,0-.125.057-.173l.135-.152,1.659-1.862,1.218-1.3,1.25-1.27.637-.621.733-.695c1.62-1.5,3.258-2.828,4.906-4.212q.357,1.887.713,3.763l.371,1.795.186.9.107.473q.42,1.884.88,3.735.909,3.7,1.994,7.25a74.279,74.279,0,0,0,3.5,9.426c.329.758.712,1.462,1.1,2.16l.284.527c.061.113.025.042.042.072l.026.035c.006.007,0,0,0,0h0l.535-.286c.758-.414,1.526-.8,2.294-1.182a193.163,193.163,0,0,1,18.376-7.979c6.043-2.308,11.949-4.307,17.474-6.285,2.758-1,5.425-1.975,7.883-3.077a38.2,38.2,0,0,0,3.482-1.79c.531-.329,1.04-.664,1.5-1.019.225-.179.431-.364.644-.544l.267-.28a2.836,2.836,0,0,0,.273-.332,3.521,3.521,0,0,0,.043-.624,17.178,17.178,0,0,0,1.251-1.193c.643-.712.124-.693-.145-.727a4.208,4.208,0,0,0,1.445-.2c.562.733,1.116,1.476,1.624,2.284.263.394.5.8.73,1.195l.166.285.107.2.211.4a32.884,32.884,0,0,1,1.43,3.144c.211.531.361.946.652,1.781q.191.561.377,1.114c.156.209-.112.309-.236.445l-.441.385-.863.741-.587.48-1.167.918a66.08,66.08,0,0,1-8.933,5.752,105.624,105.624,0,0,0,8.249-7.209l1.08-1.081c.208-.21.3-.317.4-.43l.28-.335a2.78,2.78,0,0,0-.36-.811c-.224-.462-.453-.923-.694-1.377-.481-.908-1-1.792-1.558-2.641a2.044,2.044,0,0,0-.267-.366c-.06-.073-.112-.122-.164-.176a2.76,2.76,0,0,0-.275-.243,1.219,1.219,0,0,0-.173-.111.477.477,0,0,0-.071-.032c-.02-.006-.059-.036-.01.047a.942.942,0,0,1,.116.582,1.008,1.008,0,0,1-.049.193l-.022.063-.406.473c-.278.267-.555.547-.835.791a19.085,19.085,0,0,1-1.671,1.273,30.469,30.469,0,0,1-3.18,1.858,43.018,43.018,0,0,1-5.112,2.219c-7,2.47-13.772,4.542-20.269,6.891A189.159,189.159,0,0,0,171.87,386.3l-2.177,1.064-2.505,1.3-.765.4a1.788,1.788,0,0,1-.374.173l-.233-.362-.924-1.434c-.137-.222-.341-.509-.423-.676l-.287-.542-.57-1.081a63.857,63.857,0,0,1-3.43-8.82c-.935-2.946-1.733-5.873-2.448-8.767q-.535-2.172-1.008-4.319-.182-.843-.363-1.68-.13-.649-.26-1.294c0-.014,0-.038-.011-.044l-.039.033-.079.066-.156.132-.31.266-.605.539c-.289.262-1.029.956-1.629,1.549q-.923.911-1.8,1.847l-.869.942-.6.675c-.055.1.029.241.036.359l.094.447.267,1.241.567,2.453q.591,2.432,1.3,4.777a55.617,55.617,0,0,0,8.048,16.81,38.589,38.589,0,0,0,2.8,3.418l.693.742.422.418c.065.11.15.045.23.021l.24-.083.874-.3,8.192-2.754,15.488-5.083c4.3-1.433,10.185-3.329,15.242-5.326,2.531-.99,4.855-2,6.717-2.857S214.456,378.969,215.149,378.623Z" transform="matrix(-1, 0, 0, 1, 380, 0)"></path><g data-name="default" id="default-3" transform="matrix(-1, 0, 0, 1, 380, 0)"><path class="cls-4" d="M259.039,440.066c-1.139-18.561-3.924-46.029-22.5-62.515-15.9-14.111-22.106-3.869-24.321-.71s-5.633,16.01-1.424,26.085,7.753,25.3,10.376,45.725c2.91,22.661,8.17,41.038,19.9,39.455C255.749,486.122,259.977,455.341,259.039,440.066Z" style=""></path><path class="cls-1 color-body" d="M210.791,402.926c4.766,11.192,7.753,25.3,10.376,45.725,2.91,22.661,8.17,41.038,19.894,39.455,14.687-1.984,18.916-32.765,17.978-48.04-1.139-18.561-3.924-46.029-22.5-62.515-15.9-14.111-24.321-.71-24.321-.71" style="fill:#ffffff;--backup-fill:#ffffff"></path><path d="M212.163,376.809a4.751,4.751,0,0,1,1.129-2.015,12.819,12.819,0,0,1,10.682-4.683,19.8,19.8,0,0,1,7.878,2.5,31.055,31.055,0,0,1,3.614,2.394l1.727,1.341c.569.456,1.068.978,1.606,1.465a36.32,36.32,0,0,1,3.058,3.045l1.414,1.585.7.784.627.825a69.022,69.022,0,0,1,7.46,11.874c5.769,11.243,8.546,24.7,9.841,38,.173,1.668.321,3.334.456,5s.25,3.463.275,5.164a98.609,98.609,0,0,1-.362,10.251,85.588,85.588,0,0,1-3.941,19.875,43.34,43.34,0,0,1-3.783,8.28,26.328,26.328,0,0,1-2.873,3.895,18.251,18.251,0,0,1-3.919,3.376,14.721,14.721,0,0,1-5.079,2.1,13.243,13.243,0,0,1-10.892-2.289,17.757,17.757,0,0,1-3.651-3.626,32.965,32.965,0,0,1-4.335-7.95,64.54,64.54,0,0,1-2.53-7.962,130.476,130.476,0,0,1-2.827-15.476c-.642-5.077-1.041-9.863-1.6-14.526-.534-4.66-1.115-9.159-1.78-13.464a139.334,139.334,0,0,0-5.314-23.2,54.861,54.861,0,0,1,5.944,10.1,98.283,98.283,0,0,1,4.82,12.781,109.657,109.657,0,0,1,4.5,21.66c.275,4.421.663,8.74,1.259,12.952a83.864,83.864,0,0,0,2.535,12.18,40.966,40.966,0,0,0,2.069,5.552,19.428,19.428,0,0,0,2.946,4.7A9.678,9.678,0,0,0,235.709,485a6.947,6.947,0,0,0,2.153,1.041,8.1,8.1,0,0,0,4.8-.173c3.185-1.026,5.715-3.861,7.544-6.956a43.264,43.264,0,0,0,4.168-10.067,88.117,88.117,0,0,0,3.1-20.923q.079-2.567.006-5.078c-.038-1.666-.188-3.316-.318-5-.264-3.34-.588-6.609-1-9.806a128.055,128.055,0,0,0-3.57-18.237,79.522,79.522,0,0,0-6.245-15.941,58.107,58.107,0,0,0-9.166-12.837l-1.325-1.349c-.23-.233-.454-.485-.7-.714l-.767-.666-1.581-1.4c-.542-.471-1.148-.848-1.731-1.294a17.28,17.28,0,0,0-7.869-3.387,11.891,11.891,0,0,0-7.352,1.539A14.682,14.682,0,0,0,212.163,376.809Z"></path></g><g data-name="shirt_short_red" id="shirt_short_red-2" transform="matrix(-1, 0, 0, 1, 380, 0)"><path class="cls-2 color-jersey" d="M210.662,403.124c2.606,7.266,8.439,23.475,9.143,23.974.662.468,10.695.4,21.592-2.971,5.664-1.754,12.1-6.627,14.681-9.548,3.356-3.8-4.578-20.079-7.578-25.079-3.9-6.5-10.094-15.866-17.5-17.5s-15.842-.675-18.785,4.841"></path><path d="M212.161,376.812a2.452,2.452,0,0,1,.349-1.309,9.893,9.893,0,0,1,.693-1.062,8.653,8.653,0,0,1,1.123-1.15,15.03,15.03,0,0,1,7.972-3.133,28.353,28.353,0,0,1,4.944-.142c.828.044,1.65.131,2.461.233a19.97,19.97,0,0,1,2.428.453,15.939,15.939,0,0,1,2.337.785,22.186,22.186,0,0,1,2,1.03l.9.529.8.545c.528.342.981.692,1.4,1a42.109,42.109,0,0,1,7.823,8c1.15,1.494,2.245,3.039,3.295,4.6,1.087,1.59,2.087,3.3,3.007,4.969a82.183,82.183,0,0,1,4.9,10.517,38.423,38.423,0,0,1,1.729,5.826,16.9,16.9,0,0,1,.37,3.441,9.987,9.987,0,0,1-.255,2.254,6.61,6.61,0,0,1-1.06,2.372c-.141.184-.253.389-.4.565l-.66.73-.528.543c-.353.355-.7.69-1.061,1.018-.713.648-1.431,1.266-2.168,1.846a45.683,45.683,0,0,1-4.587,3.211,35.707,35.707,0,0,1-5.063,2.595c-.461.175-.9.367-1.378.521s-.971.331-1.376.436c-.852.238-1.7.492-2.551.691a69.427,69.427,0,0,1-10.113,1.75c-1.667.164-3.316.271-4.972.294-.41.013-.832,0-1.245,0l-1.591-.036c-.353-.015-.7-.057-1.043-.083a3.624,3.624,0,0,1-1-.164,9.106,9.106,0,0,1-1.771-.684l-.944-1.214c-.265-.458-.484-.968-.724-1.443a7.7,7.7,0,0,1-.313-.748l-.217-.592-.3-.877c-.388-1.158-.746-2.289-1.087-3.4q-1.023-3.343-1.87-6.47c-1.138-4.167-2.077-8.04-2.829-11.56a66.591,66.591,0,0,1,8.229,11.3c1.273,2.114,2.432,4.21,3.379,6.065q.348.695.669,1.339c.184.382.361.746.528,1.092.035,0,.022-.02,0,.031l-.02.052a.236.236,0,0,0,0,.153.34.34,0,0,0,.038.073,1.282,1.282,0,0,0,.234.033l.3.03c.8.07,1.617.116,2.438.139,1.641.049,3.29.007,4.918-.1a58.217,58.217,0,0,0,9.5-1.379c.789-.175,1.487-.351,2.177-.571s1.39-.488,2.073-.781a33.051,33.051,0,0,0,3.968-2.047,38.625,38.625,0,0,0,3.643-2.483c.572-.445,1.131-.9,1.661-1.367.261-.237.53-.469.773-.712l.369-.361.294-.309a2.02,2.02,0,0,0,.517-1.11,6.651,6.651,0,0,0,.043-1.656,19.293,19.293,0,0,0-.7-3.641,52.509,52.509,0,0,0-2.61-7.058c-1.008-2.264-2.1-4.445-3.24-6.527-.57-1.037-1.154-2.06-1.752-3.015-.613-.972-1.252-1.953-1.882-2.892A54.308,54.308,0,0,0,237.063,378a19.086,19.086,0,0,0-4.5-3.145,12.311,12.311,0,0,0-2.37-.836c-.9-.214-1.794-.4-2.686-.535a28.1,28.1,0,0,0-9.373-.109,10.86,10.86,0,0,0-3.971,1.607,4.31,4.31,0,0,0-.7.526c-.2.18-.413.336-.572.5Z"></path><path class="cls-2 color-jersey" d="M262.4,387.067c.339-18.173-21.492-25.364-35.195-25.578-17.7-.277-24.51,21.058-21.755,35.9,3.276,17.652,20.981,25.179,38.038,17.3C255.7,409.055,262.626,399.734,262.4,387.067Z"></path><path d="M262.466,387.065c.28.356.615,2.307.386,5.221a25.7,25.7,0,0,1-3.277,10.434,29.7,29.7,0,0,1-3.8,5.187,36.591,36.591,0,0,1-4.724,4.237c-.811.623-1.651,1.16-2.442,1.711-.822.493-1.6,1-2.37,1.432-.777.414-1.5.839-2.2,1.19l-1.985.942a32.183,32.183,0,0,1-14.5,3.067,26.543,26.543,0,0,1-24.635-18.471c-.434-1.29-.72-2.612-1.071-3.918a39.037,39.037,0,0,1-.577-3.913,43.484,43.484,0,0,1-.057-7.709,40.768,40.768,0,0,1,3.161-12.944,28.417,28.417,0,0,1,8.167-11.015,22.1,22.1,0,0,1,6.173-3.476,22.445,22.445,0,0,1,6.807-1.326l1.686-.008,1.55.077q1.533.112,3.028.305a52.6,52.6,0,0,1,5.834,1.1,49.524,49.524,0,0,1,10.706,3.963,34.306,34.306,0,0,1,8.833,6.359,22.737,22.737,0,0,1,5.45,8.6,20.485,20.485,0,0,1,.942,8.971,26.618,26.618,0,0,0-3.744-7.807,23.649,23.649,0,0,0-6.65-6.1c-5.063-3.166-10.594-4.611-13.373-5.759a44.791,44.791,0,0,0-8.7-2.554,37.324,37.324,0,0,0-4.368-.558,15.784,15.784,0,0,0-4.024.221,15.431,15.431,0,0,0-7.149,3.393,21.76,21.76,0,0,0-5.092,6.3,34.639,34.639,0,0,0-4.025,15.466,33.211,33.211,0,0,0,.612,7.656,25.079,25.079,0,0,0,2.469,6.865,20.3,20.3,0,0,0,6.873,7.643c.471.3.93.62,1.4.91l1.49.732a23.871,23.871,0,0,0,12.477,2.092,33.622,33.622,0,0,0,11.569-3.294,38.771,38.771,0,0,0,9.46-6.248,29.987,29.987,0,0,0,7.289-9.93A34.023,34.023,0,0,0,262.466,387.065Z"></path><path class="cls-3 color-jersey-accent" d="M258.743,393.518c-10.415,10.318-31.351,15.123-49.207,13.969,6.933,10.114,20.642,13.352,33.957,7.2a30.428,30.428,0,0,0,17.769-23.573C260.377,391.884,259.539,392.73,258.743,393.518Z" style=""></path><path d="M258.722,393.5a14.982,14.982,0,0,1,2.283-2.676l.8-.841-.159,1.2a30.781,30.781,0,0,1-1.068,5.242,31.833,31.833,0,0,1-2.459,5.933,33.7,33.7,0,0,1-7.157,8.879,32.362,32.362,0,0,1-8.33,5.32,33.051,33.051,0,0,1-10,2.754,28.723,28.723,0,0,1-10.575-.793,25.208,25.208,0,0,1-9.375-4.754l-.859-.747a9.64,9.64,0,0,1-1.015-.955l-2.56-3-2.41-3.147-.151-.2c-.033-.058-.161-.163-.023-.133h.48l.961,0,1.923,0,1.924,0,.969.006,1.059.044,2.54,0c1.342.015,2.678-.078,4.006-.1a94.791,94.791,0,0,0,15.3-2.03c9.652-2.1,18.041-5.708,23.516-10.391-.452.684-.989,1.437-1.6,2.24-.656.745-1.387,1.533-2.184,2.321-.839.72-1.7,1.521-2.644,2.211-.957.665-1.9,1.416-2.92,1.984a36.8,36.8,0,0,1-10.44,4.5,99.332,99.332,0,0,1-13.307,1.92c-1.078.088-2.147.171-3.211.2s-2.114.113-3.161.1-2.082.045-3.111.011l-1.537-.039-.949-.037-1.754-.126-.112-.008c-.041,0,.022.046.028.067l.119.166.242.336a6.545,6.545,0,0,0,.515.669l.576.642a2.851,2.851,0,0,0,.354.351l.515.464a18.691,18.691,0,0,0,2.142,1.715,22.864,22.864,0,0,0,9.75,3.833,27.45,27.45,0,0,0,9.861-.321,34.7,34.7,0,0,0,8.7-3.169A31.224,31.224,0,0,0,256.338,402a40.361,40.361,0,0,0,3.031-5.9c.884-2.08,1.395-4.058,1.725-5.008l.279.153C259.614,392.8,259.029,393.261,258.722,393.5Z"></path></g><ellipse class="cls-3 color-jersey-accent" cx="159.299" cy="439.887" rx="24.516" ry="22.127" style="" transform="matrix(-1, 0, 0, 1, 380, 0) matrix(0.084, -0.996, 0.996, 0.084, -292.398, 561.735)"></ellipse><path class="cls-3 color-jersey-accent" d="M181.314,441.74a4.783,4.783,0,0,1-.179-1.334c-.015-.355-.033-.77-.052-1.238-.05-.467-.1-.987-.165-1.552a27.474,27.474,0,0,0-2.158-8.106,23.376,23.376,0,0,0-5.56-7.758,18.693,18.693,0,0,0-6.624-3.934,19.126,19.126,0,0,0-10.373-.537,19.655,19.655,0,0,0-5.018,1.856,21.478,21.478,0,0,0-2.285,1.451c-.36.274-.742.517-1.086.814l-1.018.905a23.606,23.606,0,0,0-5.956,9.008,25.271,25.271,0,0,0-1.47,10.482,23.3,23.3,0,0,0,7.425,15.71,19.151,19.151,0,0,0,7.347,4.085,18.577,18.577,0,0,0,8.112.5,21.387,21.387,0,0,0,13.032-7.857,26.993,26.993,0,0,0,3.626-6.182,29.585,29.585,0,0,0,1.805-6.368,20.82,20.82,0,0,1-.222,6.948,23.729,23.729,0,0,1-3.083,7.75c-2.974,4.944-7.988,8.055-10.8,8.809a22.9,22.9,0,0,1-16.446-1.265,23.8,23.8,0,0,1-6.326-4.594,27.382,27.382,0,0,1-2.466-2.878,28.726,28.726,0,0,1-1.935-3.169,25.907,25.907,0,0,1-2.46-6.759,31.933,31.933,0,0,1-.566-3.463,32.391,32.391,0,0,1-.084-3.448q.036-.854.073-1.7.108-.84.217-1.675l.109-.833.179-.817q.181-.816.361-1.625a28.276,28.276,0,0,1,2.432-6.047,25.357,25.357,0,0,1,8.349-9.155,22.256,22.256,0,0,1,11.167-3.545,21.447,21.447,0,0,1,10.715,2.571,21.865,21.865,0,0,1,7.6,6.876,21.209,21.209,0,0,1,2.5,4.711,24.2,24.2,0,0,1,1.435,5.556A26.391,26.391,0,0,1,181.314,441.74Z" style="" transform="matrix(-1, 0, 0, 1, 380, 0)"></path></svg>