<svg xmlns="http://www.w3.org/2000/svg" data-name="lounge_1 copy" id="lounge_1_copy" viewBox="0 0 380 600"><defs transform="matrix(-1, 0, 0, 1, 380, 0)"><style>.cls-1{fill:#ffffff;}.cls-2{fill:#ff4500;}.cls-3{fill:none;}.cls-4{fill:#353535;}</style></defs><g id="default" transform="matrix(-1, 0, 0, 1, 380, 0)"><path class="cls-1 color-body" d="M160.412,391.443c-7.582,9.513-14.229,22.312-22.211,41.293-8.856,21.061-18.834,37.366-29.709,32.709-13.624-5.834-9.478-36.627-4.5-51.1,6.055-17.583,19.428-51.04,47.782-59.992,10.883-3.436,14.227,11.569,14.227,11.569" style="fill:#ffffff;--backup-fill:#ffffff"></path><path d="M165.947,365.939c-.44-.388-1.22-2.975-3.311-6.14a11.794,11.794,0,0,0-4.514-4.164,7.363,7.363,0,0,0-3.27-.648,9.3,9.3,0,0,0-1.766.244l-.889.259-.948.349a49.192,49.192,0,0,0-14.275,8.128,57.522,57.522,0,0,0-9.412,9.669c-7.36,9.662-13.088,21.508-17.59,33.918-.567,1.551-1.111,3.116-1.646,4.685s-1.071,3.182-1.519,4.674a90.747,90.747,0,0,0-2.2,9.4,85.485,85.485,0,0,0-1.432,18.768,43.512,43.512,0,0,0,1.008,7.616,18.355,18.355,0,0,0,2.6,6.285,7.5,7.5,0,0,0,4.289,3.11,5.092,5.092,0,0,0,2.314.024,8.1,8.1,0,0,0,2.521-1.071,21.852,21.852,0,0,0,5.02-4.608,57.042,57.042,0,0,0,4.348-6.074,136.894,136.894,0,0,0,7.2-13.3c1.09-2.257,2.1-4.48,3.139-6.745s2.078-4.494,3.133-6.677c2.11-4.365,4.264-8.554,6.487-12.514a107.486,107.486,0,0,1,14.292-20.4c-1.433,3.123-3.134,6.869-4.826,10.906s-3.376,8.382-4.98,12.609c-3.2,8.461-6.094,16.462-8.124,20.507-4.173,8.251-8.377,16.247-13.84,23.355a43.511,43.511,0,0,1-4.532,5.019,21.321,21.321,0,0,1-5.745,3.963,13.429,13.429,0,0,1-3.535,1.017,11.7,11.7,0,0,1-3.722-.137,13.029,13.029,0,0,1-6.187-3.367,16.82,16.82,0,0,1-3.674-5.521,28.679,28.679,0,0,1-1.772-5.985,56.261,56.261,0,0,1-.838-11.806,103.886,103.886,0,0,1,3.1-22.037c.441-1.747.922-3.472,1.482-5.172.553-1.673,1.107-3.311,1.686-4.94q1.719-4.882,3.638-9.529a131.2,131.2,0,0,1,8.694-17.45A84.1,84.1,0,0,1,127.418,367.5a65.533,65.533,0,0,1,6.521-5.92,55.826,55.826,0,0,1,7.131-4.7,42.653,42.653,0,0,1,8.363-3.512l1.184-.341c.39-.115.789-.228,1.25-.317a11.946,11.946,0,0,1,2.732-.274,9.474,9.474,0,0,1,5.1,1.661,12.084,12.084,0,0,1,3.247,3.459,18.746,18.746,0,0,1,1.755,3.551A22.679,22.679,0,0,1,165.947,365.939Z"></path></g><g data-name="default" id="default-2" transform="matrix(-1, 0, 0, 1, 380, 0)"><path class="cls-1 color-body" d="M239.64,463.371c-.822-7.144-2.461-16.135-4.759-22.342-13.642-36.838,9.04-78.792-30.636-91.823-29.145-9.571-59.413,5.745-75.671,54.174-5.9,17.562-7.776,42.306-3.484,59.991" style="fill:#ffffff;--backup-fill:#ffffff"></path><path d="M125.031,463.385c-.41-.5-1.421-3.49-2.2-8.059a99.615,99.615,0,0,1-1.25-17.25,134.814,134.814,0,0,1,1.693-19.911,131.447,131.447,0,0,1,11.94-37.3A86.133,86.133,0,0,1,148.808,361a58.633,58.633,0,0,1,20.166-14.4,50.6,50.6,0,0,1,24.3-3.676,57.112,57.112,0,0,1,10.347,1.976,52.19,52.19,0,0,1,9.832,3.9,35.63,35.63,0,0,1,8.75,6.428,31.624,31.624,0,0,1,6.249,8.889c3.08,6.5,4.087,13.306,4.518,19.666.422,6.4.281,12.522.227,18.43-.07,5.9-.077,11.588.243,17.051a91.2,91.2,0,0,0,2.165,15.6q.219.921.435,1.833.26.9.517,1.787.549,1.857,1.085,3.675a74.043,74.043,0,0,1,1.621,7.379,119.041,119.041,0,0,1,1.5,13.7c-1.269-3.742-2.722-8.309-4.474-13.089-.876-2.387-1.833-4.827-2.918-7.167-.548-1.11-1.134-2.421-1.7-3.691-.6-1.268-1.024-2.59-1.531-3.886a78.5,78.5,0,0,1-4.271-26.328c.289-10.761,1.225-20.984.12-30.554a37.964,37.964,0,0,0-3.806-13.33,27.291,27.291,0,0,0-8.9-9.8,43.034,43.034,0,0,0-12.118-5.436,49.83,49.83,0,0,0-12.837-1.91,44.984,44.984,0,0,0-23.579,6.427,60.728,60.728,0,0,0-17.071,15.672,84.4,84.4,0,0,0-6.165,9.285c-.952,1.563-1.759,3.2-2.62,4.778-.783,1.627-1.623,3.2-2.327,4.836l-1.093,2.416q-.506,1.221-1.007,2.431c-.691,1.6-1.276,3.238-1.893,4.842s-1.138,3.231-1.708,4.822c-.521,1.6-1.037,3.168-1.47,4.762a134.581,134.581,0,0,0-3.788,18.792c-.389,2.918-.748,6.381-1.077,10-.268,3.625-.505,7.416-.506,10.973A101.817,101.817,0,0,0,125.031,463.385Z"></path><path class="cls-1 color-body" d="M234.881,441.029c-13.642-36.838,9.04-78.792-30.636-91.823-29.144-9.571-59.413,5.745-75.671,54.174-5.9,17.562-7.776,42.306-3.484,59.991h0s6.034,10.253,50.162,13c42.248,2.629,64.388-13,64.388-13h0C238.818,456.227,237.179,447.236,234.881,441.029Z" style="fill:#ffffff;--backup-fill:#ffffff"></path></g><path class="cls-2" d="M240.218,460.549c-1.348-8.637-2.287-17.35-3.412-26.167q-3.338-26.156-5.648-52.444c-3.942,4.324-12.241,7.309-22.426,8.9a21.43,21.43,0,0,1,3.487-14.5c.006-.011.081-.127.226-.326,1.691-2.445,5.329-7.7,12.712-5.812l2.084-3.333s-9.439-5.329-17.213,1.409c-7.335,6.357-7.407,21.633-7.392,23.34-20.12,1.951-45.14-.972-59.3-9.187.609-1.59,10.07-25.506,32.081-36.293l-15.549,6.738c-13.019,8.609-16.954,16.795-22.059,24.476-8.205,12.349-9.617,32.628-11.9,46.895-3.744,23.388-6.747,47.913-5.1,71.676.207,2.974,1.8,6.963,4.684,6.217a4.8,4.8,0,0,0,2.412-1.951,29.269,29.269,0,0,0,5.576-12.952,58.04,58.04,0,0,0-.87,18.046c.459,4.224,2.35,9.322,6.581,9.707,3.852.351,6.641-3.543,8.19-7.087a57.575,57.575,0,0,0,3.858-12.592c-1.638,8.608-3.038,18.364,2.171,25.41a9.035,9.035,0,0,0,5.053,3.681c5.112,1.139,9.276-4.2,11.058-9.128,1.818-5.022,2.637-15.718,2.637-15.718s.631,16.931,6.053,23.18c1.779,2.051,4.087,3.924,6.8,4.069,3.932.21,7.083-3.213,9.007-6.649a35.461,35.461,0,0,0,4.262-21.13c-.058,9.563,2.847,20.764,11.762,24.222a4.052,4.052,0,0,0,2.91.251c1.179-.467,1.766-1.768,2.18-2.966a40.566,40.566,0,0,0,1.34-21.491,33.272,33.272,0,0,0,2.317,11.558c1.572,3.974,4.551,8.043,8.814,8.352,4.706.341,8.548-4.356,9.044-9.048s-1.414-9.268-3.283-13.6a28.491,28.491,0,0,0,8.879,15.353,5.758,5.758,0,0,0,2.876,1.617c2.851.4,4.745-2.945,5.139-5.8.955-6.9-1.689-13.726-3.888-20.341A163.216,163.216,0,0,1,240.218,460.549Z" transform="matrix(-1, 0, 0, 1, 380, 0)"></path><path class="cls-3" d="M240.218,460.549c-1.348-8.637-2.287-17.35-3.412-26.167q-3.338-26.156-5.648-52.444c-3.942,4.324-12.241,7.309-22.426,8.9a21.43,21.43,0,0,1,3.487-14.5c.006-.011.081-.127.226-.326,1.691-2.445,5.329-7.7,12.712-5.812l2.084-3.333s-9.439-5.329-17.213,1.409c-7.335,6.357-7.407,21.633-7.392,23.34-20.12,1.951-45.14-.972-59.3-9.187.609-1.59,10.07-25.506,32.081-36.293l-15.549,6.738c-13.019,8.609-16.954,16.795-22.059,24.476-8.205,12.349-9.617,32.628-11.9,46.895-3.744,23.388-6.747,47.913-5.1,71.676.207,2.974,1.8,6.963,4.684,6.217a4.8,4.8,0,0,0,2.412-1.951,29.269,29.269,0,0,0,5.576-12.952,58.04,58.04,0,0,0-.87,18.046c.459,4.224,2.35,9.322,6.581,9.707,3.852.351,6.641-3.543,8.19-7.087a57.575,57.575,0,0,0,3.858-12.592c-1.638,8.608-3.038,18.364,2.171,25.41a9.035,9.035,0,0,0,5.053,3.681c5.112,1.139,9.276-4.2,11.058-9.128,1.818-5.022,2.637-15.718,2.637-15.718s.631,16.931,6.053,23.18c1.779,2.051,4.087,3.924,6.8,4.069,3.932.21,7.083-3.213,9.007-6.649a35.461,35.461,0,0,0,4.262-21.13c-.058,9.563,2.847,20.764,11.762,24.222a4.052,4.052,0,0,0,2.91.251c1.179-.467,1.766-1.768,2.18-2.966a40.566,40.566,0,0,0,1.34-21.491,33.272,33.272,0,0,0,2.317,11.558c1.572,3.974,4.551,8.043,8.814,8.352,4.706.341,8.548-4.356,9.044-9.048s-1.414-9.268-3.283-13.6a28.491,28.491,0,0,0,8.879,15.353,5.758,5.758,0,0,0,2.876,1.617c2.851.4,4.745-2.945,5.139-5.8.955-6.9-1.689-13.726-3.888-20.341A163.216,163.216,0,0,1,240.218,460.549Z" transform="matrix(-1, 0, 0, 1, 380, 0)"></path><path d="M240.251,460.544c.233.869.722,3.679,1.615,7.977a160.651,160.651,0,0,0,4.367,16.787c1.077,3.348,2.468,6.912,3.522,10.86,1.015,3.933,1.813,8.329.721,12.911a8.654,8.654,0,0,1-1.669,3.177,5.219,5.219,0,0,1-1.492,1.209,3.786,3.786,0,0,1-1.97.412,5.753,5.753,0,0,1-3.413-1.692,31.25,31.25,0,0,1-2.566-2.556,29.308,29.308,0,0,1-6.657-13.194l1.269-.4a60.7,60.7,0,0,1,2.412,6.194,20.325,20.325,0,0,1,1.032,6.761,12.114,12.114,0,0,1-2.218,6.623,9.35,9.35,0,0,1-5.842,3.986,8.242,8.242,0,0,1-6.786-2.034,16.233,16.233,0,0,1-4.051-5.588,33.7,33.7,0,0,1-2.883-12.922l1.642-.188a41.566,41.566,0,0,1,.451,14.73,40.731,40.731,0,0,1-1.623,6.853,7.1,7.1,0,0,1-1.845,3.307,3.424,3.424,0,0,1-2.027.836,5.342,5.342,0,0,1-1.939-.265,16.967,16.967,0,0,1-9.406-8.382,31.791,31.791,0,0,1-3.236-10.3,45.338,45.338,0,0,1-.5-6.626l2.23-.119a36.6,36.6,0,0,1-1.836,16.447,31.737,31.737,0,0,1-3.811,7.619,15.266,15.266,0,0,1-3.092,3.246,9.008,9.008,0,0,1-4.386,1.879,8.126,8.126,0,0,1-4.789-.9,14.024,14.024,0,0,1-3.642-2.8c-.258-.273-.511-.535-.751-.832l-.706-.933a18.106,18.106,0,0,1-1.193-1.946c-.324-.669-.637-1.344-.925-2.022-.248-.686-.532-1.368-.748-2.06a55.746,55.746,0,0,1-1.953-8.406,82.491,82.491,0,0,1-.922-8.575l3.04.059c-.213,2.688-.494,5.332-.882,8.006a46.724,46.724,0,0,1-1.755,8.086,19.84,19.84,0,0,1-4.533,7.383,10.945,10.945,0,0,1-3.911,2.568,8.3,8.3,0,0,1-4.964.188,9.821,9.821,0,0,1-4.1-2.489,16.2,16.2,0,0,1-2.69-3.584,21.663,21.663,0,0,1-2.6-8.284c-.649-5.712.285-11.243,1.256-16.567l3.487.654a58.774,58.774,0,0,1-4.264,13.709,20.1,20.1,0,0,1-1.948,3.3,11.758,11.758,0,0,1-2.907,2.87,7.385,7.385,0,0,1-4.313,1.337,7.123,7.123,0,0,1-4.328-1.545,10.177,10.177,0,0,1-2.629-3.319,16.823,16.823,0,0,1-1.346-3.66,23.637,23.637,0,0,1-.593-3.694c-.111-1.189-.2-2.38-.237-3.572a59.952,59.952,0,0,1,1.18-14.208l3.778.7a31.2,31.2,0,0,1-3.647,10.364c-.451.8-.934,1.577-1.458,2.329a17.257,17.257,0,0,1-1.8,2.292,6.018,6.018,0,0,1-1.513,1.132,4.734,4.734,0,0,1-2.1.517,4.5,4.5,0,0,1-2.192-.544,5.561,5.561,0,0,1-1.52-1.268,9.069,9.069,0,0,1-1.58-2.851,13.18,13.18,0,0,1-.668-2.915c-.06-.531-.075-.932-.1-1.363l-.076-1.283-.149-2.562c-.139-3.413-.229-6.815-.213-10.2a315.54,315.54,0,0,1,2.92-39.749c.638-4.9,1.352-9.787,2.1-14.657.786-4.868,1.433-9.65,2.111-14.544.689-4.872,1.446-9.762,2.483-14.624a78.238,78.238,0,0,1,4.328-14.38l.756-1.746.865-1.71c.543-1.154,1.267-2.234,1.924-3.339q1.968-3.066,3.931-6.124a63.544,63.544,0,0,1,9.369-11.652,58.747,58.747,0,0,1,5.689-4.852l1.491-1.11,1.526-1.051.838-.576a11.373,11.373,0,0,1,1.075-.5l1.65-.714,13.153-5.688,1.789,3.877a60.929,60.929,0,0,0-20.8,17.5,79.356,79.356,0,0,0-7.4,11.455q-.8,1.5-1.523,3.026l-.667,1.449c.01.016.039.026.048.034l.467.25c.246.125.477.272.736.378,1.016.448,2.01.934,3.04,1.353,8.265,3.357,17.183,5.038,25.978,6a131.189,131.189,0,0,0,13.206.747c1.1.026,2.19.013,3.282-.01s2.182-.024,3.268-.088,2.173-.082,3.253-.166l1.545-.114.1-1.833c.09-1.177.2-2.349.361-3.516a46.772,46.772,0,0,1,1.429-6.925,28.217,28.217,0,0,1,2.839-6.6,16.6,16.6,0,0,1,5.091-5.373,15,15,0,0,1,6.989-2.415,18.686,18.686,0,0,1,7.135.81,22.8,22.8,0,0,1,2.339.882c.849.4,1.633.82,2.422,1.264l-.62,1.182-.31.589c-.115.2-.26.418-.388.626l-1.556,2.474-.382.608-.191.3c-.038.036-.049.134-.11.119l-.176-.036-1.405-.289-.7-.145c-.187-.033-.251-.028-.382-.044l-.692-.072a8.545,8.545,0,0,0-2.647.274,9.345,9.345,0,0,0-4.47,2.96,23.408,23.408,0,0,0-1.806,2.352,16.885,16.885,0,0,0-1.488,2.49,19.808,19.808,0,0,0-1.757,5.5,21.26,21.26,0,0,0-.283,2.87c-.011.221,0,.254,0,.391v.332c.024.134-.019.356.061.424l.457-.066.96-.17c.985-.183,1.965-.381,2.933-.605a57.5,57.5,0,0,0,5.7-1.578,36.479,36.479,0,0,0,5.313-2.233l1.226-.694.586-.376c.054-.038.313-.2.455-.3.166-.11.328-.268.492-.4a49.716,49.716,0,0,0,3.863-3.613,1.039,1.039,0,0,1,.109.343l.047.556.093,1.108.185,2.2q.157,1.863.314,3.716.231,2.691.459,5.352.489,5.317.966,10.511.992,10.383,2.084,20.249c1.449,13.156,3.034,25.6,4.4,37.386-.849-5.126-1.787-10.794-2.792-16.861-.985-6.076-2.019-12.558-2.993-19.309s-1.934-13.765-2.823-20.9l-1.291-10.77-.606-5.417-.13-1.167-.069-.5-.065-.468-.031-.223-.016-.109c0-.037-.052.045-.076.061a6.452,6.452,0,0,1-.833.777c-.049.033-.046.039-.108.079l-.355.24c-.237.16-.473.323-.718.462-.486.289-.969.589-1.468.841a41.111,41.111,0,0,1-6.1,2.6c-2.067.7-4.151,1.277-6.233,1.764l-1.562.348-1.918.378-2.752.45-.69.112a.527.527,0,0,1-.083.011l-.008-.087-.014-.172-.029-.344-.114-1.38c-.09-.949-.088-1.717-.137-2.587l-.014-.317.007-.207.013-.414.03-.827a24.693,24.693,0,0,1,.444-3.262,22.942,22.942,0,0,1,2.173-6.116c.257-.477.522-.947.817-1.407.264-.416.6-.895.855-1.272a21.706,21.706,0,0,1,1.944-2.485,15.413,15.413,0,0,1,2.469-2.173,12.613,12.613,0,0,1,3.01-1.492,11.669,11.669,0,0,1,3.264-.555l.811-.015.784.066.692.064h.024c.063-.059,0-.009,0-.042l-.027,0h-.011l-.407-.122a15.56,15.56,0,0,0-2.107-.491,14.27,14.27,0,0,0-4.029-.093,12.3,12.3,0,0,0-3.517,1.051c-.514.3-1.033.562-1.5.892a14.7,14.7,0,0,0-1.32,1.06,16.022,16.022,0,0,0-3.5,5.075,35.133,35.133,0,0,0-2.371,8.128c-.246,1.4-.431,2.8-.554,4.182-.068.692-.112,1.38-.153,2.062l-.033.8-.018,1.01q-.006,1.008-.011,2l-5.362.4-3.631.155c-2.417.06-4.829.088-7.232.023q-7.209-.161-14.3-1.024a114.539,114.539,0,0,1-13.982-2.567,75.252,75.252,0,0,1-13.373-4.6c-.532-.257-1.083-.466-1.6-.764l-2.115-1.139-1.237-.688c-.337-.067-.081-.349-.026-.557l.268-.661.544-1.313.28-.643.187-.407c.985-2.119,2.034-4.19,3.2-6.187a81.491,81.491,0,0,1,7.8-11.344,73.5,73.5,0,0,1,9.588-9.676,64.108,64.108,0,0,1,11.332-7.3l.966,2.093-12.188,5.215-3.028,1.3-.274.119-.271.185-.669.456-1.336.914a64.214,64.214,0,0,0-5.041,4,54.468,54.468,0,0,0-8.508,9.484c-1.236,1.732-2.4,3.521-3.557,5.325-1.135,1.8-2.391,3.624-3.431,5.384a51.867,51.867,0,0,0-4.822,11.522,113.459,113.459,0,0,0-2.809,12.2c-1.47,8.2-2.366,16.469-3.743,24.573-2.537,16.2-4.515,32.173-4.927,47.9-.123,3.929-.105,7.84-.021,11.728.073,1.942.113,3.882.245,5.811.061.954.1,1.955.179,2.867a10.157,10.157,0,0,0,.609,2.606,5.312,5.312,0,0,0,1.3,2.093,1.761,1.761,0,0,0,1.847.407,4.317,4.317,0,0,0,1.772-1.562c.56-.74,1.088-1.509,1.576-2.3a28.541,28.541,0,0,0,3.854-10.321l1.687.312a57.264,57.264,0,0,0-1.123,13.9c.047,1.156.127,2.309.249,3.456a19.541,19.541,0,0,0,.59,3.3c.578,2.11,1.579,4.208,3.222,5.3a4.245,4.245,0,0,0,2.724.72,5.029,5.029,0,0,0,2.675-1.09,13.535,13.535,0,0,0,3.729-5.143,56.324,56.324,0,0,0,3.917-12.717l1.87.351c-1.006,5.395-1.861,10.819-1.213,16.044a19.231,19.231,0,0,0,2.391,7.285c1.287,2.167,3.126,4.1,5.342,4.588,2.236.523,4.509-.631,6.179-2.405a17.587,17.587,0,0,0,3.753-6.383,46.48,46.48,0,0,0,1.588-7.485c.37-2.548.652-5.123.858-7.66l2.176.043a80.9,80.9,0,0,0,.881,8.356,52.887,52.887,0,0,0,1.858,8.058c.213.644.463,1.268.691,1.9.282.6.532,1.223.84,1.8a12.582,12.582,0,0,0,1.016,1.636l.565.755c.218.247.439.488.666.722,1.79,1.87,4.068,3.23,6.331,2.855,2.268-.324,4.264-2.128,5.738-4.18a23.684,23.684,0,0,0,1.955-3.357,33.087,33.087,0,0,0,1.525-3.617,34.346,34.346,0,0,0,1.78-15.286l2.379-.126a36.744,36.744,0,0,0,2.418,13.9,18.9,18.9,0,0,0,3.575,5.753,13.848,13.848,0,0,0,5.417,3.593,3.2,3.2,0,0,0,1.265.194,1.316,1.316,0,0,0,.844-.413,6.874,6.874,0,0,0,1.26-2.676,38.751,38.751,0,0,0,1.524-6.66,39.568,39.568,0,0,0-.441-13.44l2.3-.262a32.235,32.235,0,0,0,2.029,10.691,18.126,18.126,0,0,0,2.464,4.641,9.155,9.155,0,0,0,3.787,3.1,5.9,5.9,0,0,0,5.41-.547,9.683,9.683,0,0,0,3.852-5.115,13.682,13.682,0,0,0,.1-7.245,45.667,45.667,0,0,0-2.761-7.873l1.757-.556a27.806,27.806,0,0,0,8.566,15.067,5.179,5.179,0,0,0,2.258,1.363,2.673,2.673,0,0,0,2.26-.617,6,6,0,0,0,1.587-2.179,8.781,8.781,0,0,0,.748-2.7,23.9,23.9,0,0,0,.016-5.763,57.292,57.292,0,0,0-2.654-10.863A144.377,144.377,0,0,1,242.161,472C241.139,466.811,240.57,462.8,240.251,460.544Z" transform="matrix(-1, 0, 0, 1, 380, 0)"></path><path class="cls-4" d="M236.807,434.382q-3.338-26.156-5.649-52.444c-3.942,4.324-12.241,7.309-22.426,8.9a21.43,21.43,0,0,1,3.487-14.5c.006-.011.081-.127.226-.326,1.691-2.445,5.329-7.7,12.712-5.812l2.084-3.333s-9.439-5.329-17.213,1.409c-7.335,6.357-7.407,21.633-7.392,23.34-20.12,1.951-45.14-.972-59.3-9.187.609-1.59,10.07-25.506,32.081-36.293l-15.549,6.738c-13.019,8.609-16.954,16.795-22.059,24.477-8.205,12.348-12.617,32.627-14.9,46.894-2.619,16.359-6.869,34.273-7.423,51.094,15.267-7.99,33.206-21.4,41.739-36.376a7.583,7.583,0,0,0,1.352-4.2,11.106,11.106,0,0,0-1.478-3.75c-3.129-6.511.087-15.3,6.68-18.258,5.975,3.79,6.96,13.438,1.873,18.356-2,1.934-4.86,3.443-5.331,6.184a7.932,7.932,0,0,0,.628,3.925c5.777,16.349,18.814,29.66,34.383,37.293s37.477,9.842,54.71,7.918c.035,0-.93-.009-.9-.013-2.789-8.562-7.568-17.175-8.924-25.865C238.87,451.912,237.931,443.2,236.807,434.382Z" transform="matrix(-1, 0, 0, 1, 380, 0)"></path><path d="M236.837,434.378c.312,1.275,1.253,7.637,2.582,17.155.33,2.379.687,4.956,1.067,7.7a43.086,43.086,0,0,0,2.033,8.456c1.918,5.811,4.922,11.83,7.179,18.545l-.49.763a1.54,1.54,0,0,0,.5,0c.09.018.114-.147.16-.212A.981.981,0,0,1,250,486.6l.066-.067.016-.014c-.041-.1.464.8.234.421l-.058.012-.234.047a2.827,2.827,0,0,1-.481.072l-1.628.161c-1.034.116-2.078.173-3.126.245s-2.1.124-3.161.157-2.122.075-3.189.071a123.7,123.7,0,0,1-12.914-.564,100.035,100.035,0,0,1-25.079-5.589A71.9,71.9,0,0,1,180.1,469.621c-1.417-1.142-2.707-2.359-3.974-3.521-1.208-1.223-2.408-2.381-3.463-3.6-1.1-1.17-2.055-2.393-3-3.533-.892-1.183-1.766-2.3-2.517-3.418a61.663,61.663,0,0,1-6.374-11.715c-.4-1.062-.852-2.058-1.208-3.192a7.294,7.294,0,0,1-.316-3.871,7.113,7.113,0,0,1,2-3.394c.864-.877,1.778-1.582,2.6-2.287a10.243,10.243,0,0,0,2.06-2.219,9.726,9.726,0,0,0,1.277-2.694,11.779,11.779,0,0,0,.122-6.044,10.3,10.3,0,0,0-2.931-5.2,3.475,3.475,0,0,0-.658-.554c-.071-.1-.159.035-.238.053l-.12.065a1.18,1.18,0,0,0-.174.108,11.467,11.467,0,0,0-2.349,1.953,13.164,13.164,0,0,0-3.2,11.536,12.562,12.562,0,0,0,1.109,2.881,9.187,9.187,0,0,1,1.336,3.872,8.1,8.1,0,0,1-1.11,4.078c-.577,1.106-1.228,2.071-1.84,3.114-5.155,8.1-12.053,14.851-19.452,20.809a135.025,135.025,0,0,1-11.609,8.3q-3,1.927-6.112,3.691l-.387.223-.63.354-1.438.779-2.883,1.561-.722.391-.181.1-.09.049a.438.438,0,0,1,0-.1l.018-.408.073-1.634.146-3.274.037-.819.043-.636.06-.89.122-1.779.324-3.545q.371-3.537.85-7.046c.642-4.678,1.415-9.316,2.225-13.923l2.453-13.736c.4-2.278.775-4.546,1.14-6.819.372-2.3.754-4.585,1.187-6.862a164.353,164.353,0,0,1,7.062-26.679c1.026-2.628,2.064-5.256,3.356-7.792.6-1.287,1.329-2.521,2.014-3.771.753-1.218,1.516-2.466,2.249-3.568,2.915-4.577,5.9-9.448,9.742-13.625a58.175,58.175,0,0,1,6.119-5.816c1.073-.9,2.191-1.732,3.308-2.562.56-.411,1.138-.792,1.705-1.189l.933-.642a2.176,2.176,0,0,1,.451-.223l.237-.1.463-.2,14.68-6.365,1.676,3.631A61.807,61.807,0,0,0,155.05,366a80.126,80.126,0,0,0-7.386,11.713c-.537,1.011-1.024,2.045-1.5,3.072l-.334.734c-.01.013-.01.023.006.028l.651.349c.48.277,1,.488,1.508.722,1.017.462,2.024.935,3.081,1.313a99.3,99.3,0,0,0,25.884,5.747c4.341.428,8.658.676,12.921.683,1.066.028,2.128-.009,3.187-.021s2.114-.032,3.163-.091,2.1-.074,3.139-.164l1.523-.111.013-.278c.023-.632.066-1.258.11-1.884.1-1.249.22-2.492.406-3.725a44.472,44.472,0,0,1,1.627-7.275,25.81,25.81,0,0,1,3.224-6.8l1.186-1.522,1.385-1.377c.49-.417,1.015-.786,1.522-1.175s1.1-.66,1.65-.987a15.049,15.049,0,0,1,7.332-1.68,18.667,18.667,0,0,1,3.645.421,20.273,20.273,0,0,1,4.015,1.331c.43.2.865.4,1.258.625l.606.326.3.164c.044.03.119.051.138.089l-.08.15a26.83,26.83,0,0,1-1.374,2.421l-1.457,2.313c-.331,1.262-1.486.488-2.349.422a5.5,5.5,0,0,0-.927-.141c-.234-.02-.468-.059-.7-.066a9.182,9.182,0,0,0-1.372.064,7.316,7.316,0,0,0-2.577.761,11.766,11.766,0,0,0-4.164,3.719c-.585.81-1.2,1.635-1.668,2.448a19.52,19.52,0,0,0-1.258,2.585,20.435,20.435,0,0,0-1.34,5.535c-.066.469-.061.943-.1,1.413l-.009.918.025.512a4.363,4.363,0,0,0,.487-.058l.258-.039.666-.12c.477-.084.952-.17,1.423-.27.946-.183,1.878-.4,2.806-.613,1.848-.451,3.657-.97,5.4-1.585a34.056,34.056,0,0,0,5-2.183c.384-.223.785-.425,1.147-.671l.556-.354c.277-.167.58-.453.867-.673l.868-.7.872-.833c.6-.562,1.116-1.086,1.648-1.615a.76.76,0,0,1,.1.2l.035.41.068.815q.068.81.135,1.612.133,1.579.264,3.13l.336,3.983q.345,3.912.666,7.553c.463,4.861.9,9.391,1.3,13.673.855,8.56,1.674,16.126,2.5,23.365-1.2-6.939-2.5-15.137-3.749-24.067-.626-4.465-1.243-9.113-1.837-13.878q-.432-3.574-.874-7.225-.2-1.729-.4-3.473l-.121-.891-.058-.418-.028-.2a.537.537,0,0,0-.016-.094l-.081.088a8.047,8.047,0,0,1-1.021.965c-.05.067-.642.451-1.034.723-.434.28-.879.536-1.32.8a38.328,38.328,0,0,1-5.554,2.534c-1.9.7-3.824,1.277-5.757,1.777-.965.257-1.936.472-2.9.692l-1.513.311c-.824.157-1.66.283-2.5.427l-1.259.21c-.07-.373-.081-.822-.124-1.232-.061-.849-.169-1.658-.178-2.533l-.021-.892.022-.77c.005-.513.054-1.023.1-1.533a23.127,23.127,0,0,1,1.379-5.923,22.814,22.814,0,0,1,1.255-2.745,26.255,26.255,0,0,1,1.563-2.477,17.276,17.276,0,0,1,4.066-4.365,11.573,11.573,0,0,1,5.714-2.171c.5-.042,1-.036,1.5-.049l1.453.125c.144.022.175.018.172-.022l0-.009.115-.189,0-.016.006-.026c0-.018-.017,0-.062-.021.1.037-.846-.286-1.434-.412a14.856,14.856,0,0,0-1.924-.355,12.4,12.4,0,0,0-6.752.959,12.18,12.18,0,0,0-2.541,1.583,7.959,7.959,0,0,0-1.016.923c-.156.157-.321.3-.466.46l-.4.512a16.932,16.932,0,0,0-1.49,2.188,25.342,25.342,0,0,0-1.159,2.465,31.354,31.354,0,0,0-1.607,5.24,46.979,46.979,0,0,0-.87,5.278c-.095.864-.17,1.718-.222,2.555l-.036.624c-.013.357-.025.713-.037,1.066q-.011,1.187-.02,2.346l-5.213.387-3.684.153c-2.453.056-4.9.077-7.331.009a143.611,143.611,0,0,1-14.46-1.081,112.267,112.267,0,0,1-14.066-2.637,73.675,73.675,0,0,1-13.352-4.715c-.541-.231-1.06-.515-1.578-.8l-2.263-1.229-.3-.164-.148-.082c-.03-.034-.145-.038-.089-.1l.255-.635.521-1.258c.4-.976.577-1.294.833-1.874q1.493-3.15,3.224-6.126a79.893,79.893,0,0,1,7.792-11.18,72.79,72.79,0,0,1,9.478-9.447,62.842,62.842,0,0,1,11.046-7.1l.777,1.684-12.059,5.175-2.991,1.285-.36.155a.892.892,0,0,0-.227.133l-.661.453-1.323.9c-1.726,1.252-3.421,2.537-5,3.943a54.134,54.134,0,0,0-8.452,9.316c-2.441,3.385-4.634,7.024-6.908,10.508a67.013,67.013,0,0,0-5.427,11.042,121.149,121.149,0,0,0-3.837,11.608,211.075,211.075,0,0,0-4.983,23.527c-2.564,15.706-6.011,30.833-7.007,45.82-.081,1.1-.1,1.462-.118,2.043l-.035.819c0,.055-.026.167.01.173l.182-.1.361-.2.719-.392.358-.194.466-.267,2.407-1.387q4.765-2.841,9.242-6a113.877,113.877,0,0,0,16.4-13.966,75.41,75.41,0,0,0,6.734-8.078l1.476-2.142,1.345-2.21c.9-1.474,1.677-2.961,1.489-4.269-.148-1.33-1.32-2.774-1.933-4.6a14.019,14.019,0,0,1-.725-5.485,15.752,15.752,0,0,1,4.288-9.838,8.849,8.849,0,0,1,1-.94,9.171,9.171,0,0,1,1.085-.838,9.387,9.387,0,0,1,1.334-.807l.852-.442c.14-.055.287-.189.422-.179l.387.282.774.564a4.877,4.877,0,0,1,.673.54,12.235,12.235,0,0,1,.981.978,13.03,13.03,0,0,1,1.578,2.242,14.021,14.021,0,0,1,1.167,10.466,11.847,11.847,0,0,1-2.58,4.716c-1.217,1.378-2.619,2.271-3.716,3.324a4.674,4.674,0,0,0-1.82,3.4,13.206,13.206,0,0,0,1.2,4.246,65.314,65.314,0,0,0,22.476,28.664,70.306,70.306,0,0,0,15.476,8.6,87.62,87.62,0,0,0,16.675,4.665c2.7.513,5.622.9,8.608,1.25,2.993.287,6.053.549,9.049.627,3,.123,5.921.082,8.636.01,1.356-.077,2.664-.109,3.9-.21l1.754-.136.285-.02.14-.009c.025,0,.149-.009.06-.007a1.885,1.885,0,0,1-.54-.025l-.578.9c-2.041-6.359-4.767-12.151-6.6-17.741a50.115,50.115,0,0,1-2.026-8.174c-.308-2.629-.6-5.112-.87-7.432C237.935,444,237.175,437.337,236.837,434.378Z" transform="matrix(-1, 0, 0, 1, 380, 0)"></path><path class="cls-2" d="M143.509,456.285c-2.106-6.578-7.557-14.965-3.217-21.555,7.778-13.472,8.451-4.215,10.323,5.434-1.925,6.986-6.9,4.915-7.3,16.85" transform="matrix(-1, 0, 0, 1, 380, 0)"></path><path d="M143.3,457.013a16.431,16.431,0,0,1,.4-5.629,12.194,12.194,0,0,1,1.753-4.114c.821-1.2,1.729-2.112,2.256-2.815a11.136,11.136,0,0,0,2.076-4.148c.06-.2.052-.185.028-.262l-.137-.611-.27-1.256q-.264-1.255-.531-2.522a36.544,36.544,0,0,0-1.282-4.859,4.106,4.106,0,0,0-1-1.7.41.41,0,0,0-.38-.083,2.005,2.005,0,0,0-.683.366,14.11,14.11,0,0,0-2.536,3.032c-.389.573-.754,1.165-1.122,1.759-.367.615-.737,1.234-1.035,1.772a8.495,8.495,0,0,0-1.092,3.533,13.225,13.225,0,0,0,.163,3.713,42.162,42.162,0,0,0,1.972,6.949c.756,2.166,1.479,4.188,1.923,6.049-.936-1.494-2.235-3.6-3.347-5.691a21.463,21.463,0,0,1-2.17-5.42,16.071,16.071,0,0,1-.036-7.133l.228-.845.336-.8a8.715,8.715,0,0,1,.795-1.5c.569-.941,1.122-1.8,1.711-2.68a29.6,29.6,0,0,1,1.866-2.485,6.523,6.523,0,0,1,2.467-1.961,1.869,1.869,0,0,1,1.743.247,3.515,3.515,0,0,1,1,1.242,13.2,13.2,0,0,1,.995,2.685c.483,1.783.815,3.518,1.152,5.188l.494,2.458.062.3a1.551,1.551,0,0,1,.062.453l-.219.7a7.656,7.656,0,0,1-.434,1.181,13.162,13.162,0,0,1-2.716,3.925,14.058,14.058,0,0,0-2.452,3.309,19.538,19.538,0,0,0-1.45,4.311C143.533,455.207,143.4,456.571,143.3,457.013Z" transform="matrix(-1, 0, 0, 1, 380, 0)"></path><path class="cls-2" d="M126.311,469.542c-2.4-14.775,8.5-13.594.029-31.438-4.921,2.154-6.42,9.435-7.746,14.3,2.606,5.576,6.569,10.976,6.234,17.6" transform="matrix(-1, 0, 0, 1, 380, 0)"></path><path d="M124.812,470a31.664,31.664,0,0,0-1.067-5.774,40.243,40.243,0,0,0-3.567-7.523l-1.3-2.247-.638-1.174a5.944,5.944,0,0,1-.4-.855l.217-.892c.4-1.739.821-3.54,1.38-5.331a22.294,22.294,0,0,1,2.315-5.235,11.359,11.359,0,0,1,1.893-2.279,4.861,4.861,0,0,1,.572-.488l.73-.519,1.132-.6.567-.3.142-.076c.057-.053.055.066.085.091l.135.282c.157.329.315.657.465,1l.384.861.478,1.069a21.569,21.569,0,0,1,.854,2.186,18.941,18.941,0,0,1,.713,2.236,18.693,18.693,0,0,1,.508,2.3,15.227,15.227,0,0,1,.228,2.343l.007,1.175c-.015.389-.083.777-.124,1.162a16.826,16.826,0,0,1-1.186,4.311c-.535,1.326-1.08,2.525-1.535,3.719-.207.6-.406,1.186-.582,1.771-.131.592-.3,1.171-.4,1.75a26.717,26.717,0,0,0-.2,6.533,17.187,17.187,0,0,1-1.217-6.942,17,17,0,0,1,1.5-6.079,31.494,31.494,0,0,0,1.392-3.289,13.248,13.248,0,0,0,.629-3.3,15.375,15.375,0,0,0,0-1.663q-.09-.831-.177-1.648c-.1-.542-.234-1.076-.35-1.609l-.182-.8-.25-.774a29.243,29.243,0,0,0-1.095-3.008l-.547-1.283c-.071-.127-.108-.347-.207-.393l-.422.218a4.88,4.88,0,0,0-.485.325,3.5,3.5,0,0,0-.564.453,8.884,8.884,0,0,0-1,1.036,13.209,13.209,0,0,0-1.522,2.406,28.478,28.478,0,0,0-1.893,5.172c-.24.863-.457,1.719-.669,2.566l-.318,1.262c-.024.117-.076.207,0,.3l.242.484a94.19,94.19,0,0,1,4.2,8.52,18.9,18.9,0,0,1,1.211,4.919A15.568,15.568,0,0,1,124.812,470Z" transform="matrix(-1, 0, 0, 1, 380, 0)"></path><path class="cls-2" d="M177.329,465.538c1.881-8.909-6.4-18.23-.74-26.113,1.5-1.4,2.486-6.713,5.029-4.932,11.416,9.575-2.614,20.6-3.7,31.038" transform="matrix(-1, 0, 0, 1, 380, 0)"></path><path d="M177.906,465.53a6.105,6.105,0,0,1,.146-1.973,22.23,22.23,0,0,1,1.217-3.9c1.166-2.875,2.837-5.945,3.57-7.725a37.929,37.929,0,0,0,1.791-4.871,12.906,12.906,0,0,0,.491-5.1,9.141,9.141,0,0,0-2.024-4.547,8.865,8.865,0,0,0-.847-.953,10.906,10.906,0,0,0-.934-.875l-.239-.212c-.087-.083-.064-.05-.132-.086a1.431,1.431,0,0,1-.161-.093.237.237,0,0,1-.1-.015c-.094,0-.157.007-.368.177a6.692,6.692,0,0,0-1.05,1.627c-.34.661-.654,1.367-1.088,2.108a5.914,5.914,0,0,1-.372.569,2.236,2.236,0,0,1-.238.3l-.136.149c.052-.065.014-.018.026-.032l-.01.017-.527.877-.269.437-.188.473c-.122.315-.263.623-.377.94a16.456,16.456,0,0,0,.152,8.1c.569,2.683,1.3,5.28,1.656,7.781a16.754,16.754,0,0,1-.262,6.909,25.272,25.272,0,0,0-1.21-6.843c-.721-2.354-1.515-4.573-1.743-5.825a29.471,29.471,0,0,1-.765-7.466,11.586,11.586,0,0,1,2.556-6.625,20.852,20.852,0,0,0,1.574-2.759,9.5,9.5,0,0,1,.911-1.411,2.306,2.306,0,0,1,1.6-.938,1.186,1.186,0,0,1,.5.054,1.247,1.247,0,0,1,.444.167,3.51,3.51,0,0,1,.408.242l.3.271a13.682,13.682,0,0,1,1.125,1.08,13.153,13.153,0,0,1,1.856,2.439,11.009,11.009,0,0,1,1.1,2.788,11.207,11.207,0,0,1,.254,2.892,17.689,17.689,0,0,1-1.184,5.3,81.631,81.631,0,0,1-4.182,8.642c-.635,1.248-1.542,2.925-2.176,4.475A20.142,20.142,0,0,0,177.906,465.53Z" transform="matrix(-1, 0, 0, 1, 380, 0)"></path><path class="cls-2" d="M198.914,479.951c-3.239-10.541-8.51-17.4.455-27.777,10.2,12.729.928,16.336-.712,27.767" transform="matrix(-1, 0, 0, 1, 380, 0)"></path><path d="M198.641,479.939a6.586,6.586,0,0,1,.124-1.708,13.947,13.947,0,0,1,.34-1.587,17.164,17.164,0,0,1,.545-1.843c.851-2.557,2.214-5.279,2.716-6.85a16.773,16.773,0,0,0,.921-4.284,10.858,10.858,0,0,0-.019-1.1l-.019-.549-.1-.544c-.075-.362-.123-.727-.213-1.086l-.365-1.064-.18-.532-.254-.512-.5-1.025c-.351-.676-.81-1.309-1.2-1.962a9.97,9.97,0,0,0-.675-.935l-.35-.458a.184.184,0,0,0-.035-.034c-.016-.008-.03-.041-.041,0l-.012.028,0,.01s.015-.015-.065.087a18.568,18.568,0,0,0-3.394,6.634,15.423,15.423,0,0,0-.012,7.035c.467,2.29,1.183,4.472,1.807,6.516s1.168,3.964,1.556,5.685a61.247,61.247,0,0,1-2.985-5.36,24.058,24.058,0,0,1-1.979-5.011,21.816,21.816,0,0,1-.493-6.555,16.514,16.514,0,0,1,1.755-5.877l.7-1.286c.254-.41.535-.8.8-1.193a11.873,11.873,0,0,1,.823-1.141q.533-.664,1.058-1.317l.291-.364.145-.182c.024-.019.049-.085.072-.065l.069.093.549.743.938,1.261a24.485,24.485,0,0,1,1.433,2.186l.339.546.278.578.548,1.143a9.39,9.39,0,0,1,.427,1.18,8.443,8.443,0,0,1,.348,1.189,12.158,12.158,0,0,1,.076,4.772,37.645,37.645,0,0,1-3.085,7.791c-.484,1.106-1.22,2.585-1.7,3.956l-.371.981-.255.875Z" transform="matrix(-1, 0, 0, 1, 380, 0)"></path><path class="cls-2" d="M221.846,485.646c-12.443-14.35-3.458-12.044-2.035-25.561,13.73,15.626,1.95,13.149,1.942,27.041" transform="matrix(-1, 0, 0, 1, 380, 0)"></path><path d="M221.736,487.126a13.606,13.606,0,0,1,.328-5.109c.56-2.609,2.12-5.248,2.776-6.7a7.533,7.533,0,0,0,.83-3.978,8.173,8.173,0,0,0-.508-2.016c-.319-.654-.619-1.321-1-1.96-.423-.629-.8-1.276-1.251-1.89q-.7-.912-1.4-1.817c-.22-.307-.491-.585-.734-.877l-.187-.216c-.027-.03-.016-.015-.026-.024l-.024-.017c-.029-.014-.056-.052-.045.036l0,.057c-.011.066.042-.138-.069.34-.157.663-.291,1.331-.474,1.983a26.327,26.327,0,0,1-1.431,3.748c-.552,1.2-1.16,2.285-1.613,3.342a5.847,5.847,0,0,0-.55,3.038,15.1,15.1,0,0,0,2.476,5.711c.585.846,1.1,1.693,1.666,2.458s1.077,1.513,1.574,2.209a26.341,26.341,0,0,1-2.215-1.7,32.411,32.411,0,0,1-2.319-2.265,12.386,12.386,0,0,1-2.828-4.67,8.913,8.913,0,0,1-.27-1.766,5.727,5.727,0,0,1,.042-.9,3.9,3.9,0,0,1,.125-.871l.226-.831c.08-.271.205-.51.305-.764a15.235,15.235,0,0,1,.686-1.415,31.286,31.286,0,0,0,2.444-5.181,24.2,24.2,0,0,0,.736-2.611c.1-.526.2-1.214.289-1.8l.138-.906.068-.45c.016-.059.013-.186.044-.189l.147.176,2.221,2.647c.57.638,1.052,1.339,1.561,2l.746.991.66,1.037L225.53,467c.178.365.353.727.528,1.086a11.533,11.533,0,0,1,.8,2.248,7.581,7.581,0,0,1,.066,2.374,11.808,11.808,0,0,1-1.582,4.061,35.619,35.619,0,0,0-1.748,3.408c-.115.265-.24.556-.372.862-.11.314-.225.645-.343.983a16.938,16.938,0,0,0-.605,2.088,14.209,14.209,0,0,0-.354,1.873C221.836,486.516,221.769,486.923,221.736,487.126Z" transform="matrix(-1, 0, 0, 1, 380, 0)"></path><g data-name="default" id="default-3" transform="matrix(-1, 0, 0, 1, 380, 0)"><path class="cls-1 color-body" d="M259.039,439.566c-1.139-18.561-3.924-46.029-22.5-62.515-15.9-14.111-22.106-3.869-24.321-.71s-5.633,16.01-1.424,26.085,7.753,25.3,10.376,45.725c2.91,22.661,8.17,41.038,19.9,39.455C255.749,485.622,259.977,454.841,259.039,439.566Z" style="fill:#ffffff;--backup-fill:#ffffff"></path><path class="cls-1 color-body" d="M210.791,402.426c4.766,11.192,7.753,25.3,10.376,45.725,2.91,22.661,8.17,41.038,19.894,39.455,14.687-1.984,18.916-32.765,17.978-48.04-1.139-18.561-3.924-46.029-22.5-62.515-15.9-14.111-24.321-.71-24.321-.71" style="fill:#ffffff;--backup-fill:#ffffff"></path><path d="M212.163,376.309a4.751,4.751,0,0,1,1.129-2.015,12.819,12.819,0,0,1,10.682-4.683,19.8,19.8,0,0,1,7.878,2.5,31.055,31.055,0,0,1,3.614,2.394l1.727,1.341c.569.456,1.068.978,1.606,1.465a36.32,36.32,0,0,1,3.058,3.045l1.414,1.585.7.784.627.825a69.022,69.022,0,0,1,7.46,11.874c5.769,11.243,8.546,24.7,9.841,38,.173,1.668.321,3.334.456,5s.25,3.463.275,5.164a98.609,98.609,0,0,1-.362,10.251,85.588,85.588,0,0,1-3.941,19.875,43.34,43.34,0,0,1-3.783,8.28,26.328,26.328,0,0,1-2.873,3.895,18.251,18.251,0,0,1-3.919,3.376,14.721,14.721,0,0,1-5.079,2.1,13.243,13.243,0,0,1-10.892-2.289,17.757,17.757,0,0,1-3.651-3.626,32.965,32.965,0,0,1-4.335-7.95,64.54,64.54,0,0,1-2.53-7.962,130.476,130.476,0,0,1-2.827-15.476c-.642-5.077-1.041-9.863-1.6-14.526-.534-4.66-1.115-9.159-1.78-13.464a139.334,139.334,0,0,0-5.314-23.2,54.861,54.861,0,0,1,5.944,10.1,98.283,98.283,0,0,1,4.82,12.781,109.657,109.657,0,0,1,4.5,21.66c.275,4.421.663,8.74,1.259,12.952a83.864,83.864,0,0,0,2.535,12.18,40.966,40.966,0,0,0,2.069,5.552,19.428,19.428,0,0,0,2.946,4.7,9.678,9.678,0,0,0,1.887,1.709,6.947,6.947,0,0,0,2.153,1.041,8.1,8.1,0,0,0,4.8-.173c3.185-1.026,5.715-3.861,7.544-6.956a43.264,43.264,0,0,0,4.168-10.067,88.117,88.117,0,0,0,3.1-20.923q.079-2.567.006-5.078c-.038-1.666-.188-3.316-.318-5-.264-3.34-.588-6.609-1-9.806a128.055,128.055,0,0,0-3.57-18.237,79.522,79.522,0,0,0-6.245-15.941,58.107,58.107,0,0,0-9.166-12.837l-1.325-1.349c-.23-.233-.454-.485-.7-.714l-.767-.666-1.581-1.4c-.542-.471-1.148-.848-1.731-1.294a17.28,17.28,0,0,0-7.869-3.387,11.891,11.891,0,0,0-7.352,1.539A14.682,14.682,0,0,0,212.163,376.309Z"></path></g></svg>