<svg xmlns="http://www.w3.org/2000/svg" id="outfits_springbreak" viewBox="0 0 380 600"><defs transform="matrix(-1, 0, 0, 1, 380, 0)"><style>.cls-1{fill:#ffffff;}.cls-2{fill:#f9a;}.cls-3{fill:#ff3881;}</style></defs><g id="default" transform="matrix(-1, 0, 0, 1, 380, 0)"><path class="cls-1 color-body" d="M160.41,391.44c-7.58,9.52-14.23,22.32-22.21,41.3-8.86,21.06-18.83,37.36-29.71,32.7C94.87,459.61,99,428.82,104,414.35c6-17.58,19.42-51,47.78-60,10.88-3.44,14.23,11.57,14.23,11.57" style="fill:#ffffff;--backup-fill:#ffffff"></path><path d="M166,365.94c-.44-.39-1.22-3-3.31-6.14a11.88,11.88,0,0,0-4.52-4.17,7.33,7.33,0,0,0-3.27-.64,9,9,0,0,0-1.76.24l-.89.26-.95.35A49.18,49.18,0,0,0,137,364a57.36,57.36,0,0,0-9.41,9.67c-7.36,9.66-13.09,21.5-17.59,33.91-.57,1.56-1.11,3.12-1.64,4.69s-1.07,3.18-1.52,4.67a91,91,0,0,0-2.21,9.4,85.68,85.68,0,0,0-1.43,18.77,44.3,44.3,0,0,0,1,7.62,18.39,18.39,0,0,0,2.6,6.28,7.48,7.48,0,0,0,4.29,3.11,5,5,0,0,0,2.32,0,8.35,8.35,0,0,0,2.52-1.07,22.12,22.12,0,0,0,5-4.61,57.9,57.9,0,0,0,4.35-6.08,135.52,135.52,0,0,0,7.19-13.29c1.09-2.26,2.1-4.48,3.14-6.75s2.08-4.49,3.13-6.67c2.11-4.37,4.27-8.56,6.49-12.52a107.9,107.9,0,0,1,14.29-20.4c-1.43,3.13-3.13,6.87-4.82,10.91s-3.38,8.38-5,12.61c-3.2,8.46-6.1,16.46-8.13,20.5-4.17,8.26-8.37,16.25-13.84,23.36a43.7,43.7,0,0,1-4.53,5,21.48,21.48,0,0,1-5.74,4,13.34,13.34,0,0,1-3.54,1,11.6,11.6,0,0,1-3.72-.14,13,13,0,0,1-6.19-3.36,16.85,16.85,0,0,1-3.67-5.53,29,29,0,0,1-1.78-6,56.61,56.61,0,0,1-.83-11.81,103.66,103.66,0,0,1,3.1-22c.44-1.75.92-3.48,1.48-5.18s1.11-3.31,1.68-4.94q1.72-4.87,3.64-9.53a131.88,131.88,0,0,1,8.7-17.44,83.69,83.69,0,0,1,11.07-14.67,64.55,64.55,0,0,1,6.52-5.92,56.56,56.56,0,0,1,7.13-4.7,43.08,43.08,0,0,1,8.36-3.51l1.19-.34a12,12,0,0,1,1.25-.32,11.77,11.77,0,0,1,2.73-.27,9.47,9.47,0,0,1,5.1,1.66,12.14,12.14,0,0,1,3.25,3.46,18.73,18.73,0,0,1,1.75,3.55A23.3,23.3,0,0,1,166,365.94Z"></path></g><g data-name="default" id="default-2" transform="matrix(-1, 0, 0, 1, 380, 0)"><path class="cls-1 color-body" d="M239.64,463.37c-.82-7.14-2.46-16.13-4.76-22.34-13.64-36.84,9-78.79-30.64-91.82-29.14-9.57-59.41,5.74-75.67,54.17-5.89,17.56-7.77,42.31-3.48,60" style="fill:#ffffff;--backup-fill:#ffffff"></path><path d="M125,463.39c-.41-.51-1.42-3.5-2.2-8.06a101.05,101.05,0,0,1-1.25-17.25,135.41,135.41,0,0,1,1.69-19.92,126.12,126.12,0,0,1,3.64-16,124.81,124.81,0,0,1,8.31-21.25A85.92,85.92,0,0,1,148.81,361,58.59,58.59,0,0,1,169,346.6a50.6,50.6,0,0,1,24.31-3.68,58,58,0,0,1,10.35,2,52.39,52.39,0,0,1,9.83,3.9,35.9,35.9,0,0,1,8.75,6.43,31.75,31.75,0,0,1,6.25,8.89c3.08,6.5,4.08,13.3,4.51,19.66s.29,12.53.23,18.43-.08,11.59.24,17.06a92.11,92.11,0,0,0,2.17,15.59c.14.61.29,1.23.43,1.83s.35,1.2.52,1.79l1.09,3.68a75.53,75.53,0,0,1,1.62,7.38,118.51,118.51,0,0,1,1.5,13.7c-1.27-3.74-2.72-8.31-4.47-13.09-.88-2.39-1.84-4.83-2.92-7.17-.55-1.11-1.14-2.42-1.7-3.69s-1-2.59-1.53-3.88a78.46,78.46,0,0,1-4.27-26.33c.28-10.76,1.22-21,.11-30.55a38.06,38.06,0,0,0-3.8-13.34,27.37,27.37,0,0,0-8.9-9.79A43.05,43.05,0,0,0,201.17,350a50.4,50.4,0,0,0-12.84-1.91,45,45,0,0,0-23.58,6.43,60.85,60.85,0,0,0-17.07,15.67,84.41,84.41,0,0,0-6.16,9.29c-1,1.56-1.76,3.19-2.62,4.78s-1.63,3.2-2.33,4.83c-.37.81-.73,1.62-1.09,2.42s-.68,1.62-1,2.43c-.69,1.6-1.28,3.24-1.89,4.84s-1.14,3.23-1.71,4.82-1,3.17-1.47,4.76a135,135,0,0,0-3.79,18.8c-.39,2.91-.75,6.38-1.08,10s-.5,7.42-.5,11A102.18,102.18,0,0,0,125,463.39Z"></path><path class="cls-1 color-body" d="M234.88,441c-13.64-36.84,9-78.79-30.64-91.82-29.14-9.57-59.41,5.74-75.67,54.17-5.89,17.56-7.77,42.31-3.48,60h0s6,10.25,50.16,13c42.25,2.63,64.39-13,64.39-13h0C238.82,456.23,237.18,447.24,234.88,441Z" style="fill:#ffffff;--backup-fill:#ffffff"></path></g><path class="cls-2 color-swim-background" d="M231.12,429.35a37.88,37.88,0,0,1-2-6.91c-8.34,2.74-24.19-10.87-25.63-22.57-1.75-14.28,3.83-28.76,24.11-29.15q-2.87-5.21-5.74-10.41c-13.51,3.71-21.1,12.87-31.92,20.69-20.57,12.46-41.08.08-29.84-24-22,14.42-33.45,42.09-36.35,69.56C141.07,450.83,208.06,446.43,231.12,429.35Z" transform="matrix(-1, 0, 0, 1, 380, 0)" style=""></path><path d="M231.15,429.39a18,18,0,0,1-2.79,2.22c-.81.51-1.74,1.16-2.88,1.75l-1.77,1-2,1a99.05,99.05,0,0,1-22.06,6.77,144.59,144.59,0,0,1-26.51,2.55,122.35,122.35,0,0,1-21.83-1.78,69.79,69.79,0,0,1-13.56-3.76,38.89,38.89,0,0,1-12.55-7.76c-.46-.45-.94-.88-1.37-1.36l-1.41-1.7-.48-.59-.24-.29c-.06-.11-.22-.18-.16-.32l.18-1.51.22-2c.23-2.43.64-4.85,1-7.28.2-1.21.46-2.41.69-3.63s.47-2.42.77-3.62l.87-3.61,1-3.58a103.34,103.34,0,0,1,5.21-14c1-2.31,2.2-4.5,3.33-6.73,1.29-2.15,2.49-4.36,4-6.41s2.92-4.07,4.44-6.06c.8-1,1.65-1.89,2.47-2.83.42-.46.82-.94,1.25-1.39l1.34-1.32,1.34-1.31.66-.66.19-.18.32-.25.65-.51,5.17-4.06c1.72-1.36,3.55-2.58,5.32-3.88l2.67-1.92,2.12-1.47c-.77,1.8-1.52,3.56-2.27,5.29l-1.15,2.71-1,2.52c-.32.81-.73,1.7-1,2.45s-.39,1.41-.58,2.1-.4,1.41-.55,2.08L160,367a15,15,0,0,0,1.84,10.11,12.59,12.59,0,0,0,8.22,5.4,21.78,21.78,0,0,0,10.74-.68,31,31,0,0,0,5.2-2.09c.43-.2.84-.43,1.25-.67l1-.59c.75-.56,1.58-1.15,2.35-1.76,6.3-4.79,12.25-10.53,19.59-14.64a49.7,49.7,0,0,1,5.64-2.74l1.47-.54.73-.27.37-.13.65-.2,2.68-.81,1.34-.41.08,0s0,0,.05.06l.08.16.17.31.34.62,3.54,6.53c.77,1.4,1.52,2.8,2.28,4.19l1.3,2.38.64,1.18.32.59s.05.06,0,.07h-.08l-.17,0-.34,0-5.37.38-1.34.09a4.49,4.49,0,0,0-.71.07l-.52.09-1.28.19a17,17,0,0,0-2.49.56c-.4.11-.82.2-1.22.33l-1.15.46a17.65,17.65,0,0,0-7.62,5.68,21,21,0,0,0-3.78,8.74,33.37,33.37,0,0,0-.38,9.67,19.92,19.92,0,0,0,3,8.47,34.7,34.7,0,0,0,5.71,7.06,29.85,29.85,0,0,0,7,5.11,15.64,15.64,0,0,0,3.8,1.41c.32,0,.64.14,1,.16a4.72,4.72,0,0,0,1.11,0c.23,0,.45,0,.69-.05l.76-.14c.51-.08,1-.22,1.44-.32.14,1,.25,2,.44,2.83.1.38.19.74.28,1.1l.24.86c.32,1.12.64,2.16,1,3.18-.49-1-1-2-1.48-3.11a27.7,27.7,0,0,1-1.31-3.61,9.16,9.16,0,0,1-4.22.58,16.72,16.72,0,0,1-4.37-1,30.66,30.66,0,0,1-8.21-4.78,36.28,36.28,0,0,1-6.89-7.2,24,24,0,0,1-4.26-9.46,38.93,38.93,0,0,1-.44-9.72c.09-.79.12-1.57.28-2.34l.45-2.29q.35-1.11.66-2.19a20.78,20.78,0,0,1,.83-2.07,21.08,21.08,0,0,1,4.6-6.73,13.58,13.58,0,0,1,1.31-1.23l1.35-1a17.12,17.12,0,0,1,2.54-1.53c.34-.18.68-.37,1-.53l1.07-.42c.71-.26,1.42-.57,2.14-.78a31.87,31.87,0,0,1,4.35-.94l1.08-.15.27,0,.14,0h0s0,0,0,0l.3,0,.18,0h.1s.05,0,0,0l-.09-.27-.12-.33,0,0v0l-.06-.11-.23-.44-.46-.89-.91-1.76-.46-.88-.1-.2,0-.06-.05-.11-.1-.23c0-.07,0-.22-.15-.16l-.52.11s-.43.14-.69.23l-.88.31c-.59.19-1.16.42-1.74.66A56.63,56.63,0,0,0,204.09,372c-4,3-7.84,6.33-11.92,9.29l-.77.55-.38.28a4.78,4.78,0,0,1-.5.32l-1.69.93c-1.14.57-2.29,1.13-3.48,1.6a33.18,33.18,0,0,1-7.36,2,25.15,25.15,0,0,1-7.6,0,18.33,18.33,0,0,1-7.13-2.64,15.62,15.62,0,0,1-5.25-5.44,17.58,17.58,0,0,1-2.18-7.09,14,14,0,0,1-.09-1.82,15.57,15.57,0,0,1,0-1.81l.07-.9.12-.89.13-.89c0-.12.07-.33.1-.49a20.53,20.53,0,0,1,1.28-4l.33-.77,0-.09-.08.05-.17.12-.34.24-1.35,1c-.91.63-1.71,1.39-2.56,2.08l-.32.27-.46.45-.94.91L149.79,367c-1.17,1.27-2.3,2.56-3.43,3.84a83.14,83.14,0,0,0-10.72,17,116.12,116.12,0,0,0-10.12,36.43l-.2,1.72c0,.17.22.3.32.45l.6.74a15.38,15.38,0,0,0,1.48,1.54l.76.75c.26.25.56.46.83.68a35.48,35.48,0,0,0,7.2,4.57,65.58,65.58,0,0,0,16,5.1,129.75,129.75,0,0,0,31.9,1.68,148.61,148.61,0,0,0,27.87-4.31A80,80,0,0,0,224.38,433c1.65-.71,3-1.47,4.19-2.09S230.56,429.74,231.15,429.39Z" transform="matrix(-1, 0, 0, 1, 380, 0)"></path><g data-name="default" id="default-3" transform="matrix(-1, 0, 0, 1, 380, 0)"><path class="cls-1 color-body" d="M259,439.57c-1.14-18.56-3.92-46-22.5-62.52-15.91-14.11-22.11-3.87-24.33-.71s-5.63,16-1.42,26.09,7.75,25.3,10.38,45.72c2.91,22.66,8.17,41,19.89,39.46C255.75,485.62,260,454.84,259,439.57Z" style="fill:#ffffff;--backup-fill:#ffffff"></path><path class="cls-1 color-body" d="M210.79,402.43c4.77,11.19,7.75,25.3,10.38,45.72,2.91,22.66,8.17,41,19.89,39.46,14.69-2,18.92-32.77,18-48-1.14-18.56-3.92-46-22.5-62.52-15.91-14.11-24.32-.71-24.32-.71" style="fill:#ffffff;--backup-fill:#ffffff"></path><path d="M212.16,376.31a4.94,4.94,0,0,1,1.13-2,12.7,12.7,0,0,1,3.82-3.15,12.86,12.86,0,0,1,6.86-1.53,19.83,19.83,0,0,1,7.88,2.5,31.52,31.52,0,0,1,3.62,2.4l1.72,1.34c.57.45,1.07,1,1.61,1.46a35.24,35.24,0,0,1,3.06,3.05l1.41,1.58.7.78.63.83a69.55,69.55,0,0,1,7.46,11.87c5.77,11.25,8.54,24.7,9.84,38,.17,1.67.32,3.34.45,5s.25,3.47.28,5.17a99.71,99.71,0,0,1-.36,10.25,85.88,85.88,0,0,1-3.94,19.87,43.24,43.24,0,0,1-3.79,8.28,26.74,26.74,0,0,1-2.87,3.9,18.17,18.17,0,0,1-3.92,3.37,14.73,14.73,0,0,1-5.08,2.1,13.2,13.2,0,0,1-10.89-2.29,17.9,17.9,0,0,1-3.65-3.62,33.33,33.33,0,0,1-4.34-7.95,66.49,66.49,0,0,1-2.53-8,131.54,131.54,0,0,1-2.82-15.48c-.65-5.08-1-9.86-1.6-14.53s-1.12-9.16-1.78-13.46a138.87,138.87,0,0,0-5.32-23.2,55.42,55.42,0,0,1,5.95,10.1,97.72,97.72,0,0,1,4.82,12.78,110,110,0,0,1,4.5,21.66c.28,4.42.67,8.74,1.26,12.95a83.65,83.65,0,0,0,2.54,12.18,40.69,40.69,0,0,0,2.07,5.55,19.3,19.3,0,0,0,2.94,4.7,9.76,9.76,0,0,0,1.89,1.71,7,7,0,0,0,2.15,1,8.13,8.13,0,0,0,4.8-.17c3.19-1,5.71-3.86,7.54-7a42.65,42.65,0,0,0,4.17-10.07,88,88,0,0,0,3.1-20.92c.06-1.71.06-3.4,0-5.08s-.19-3.31-.32-5q-.39-5-1-9.8a126.4,126.4,0,0,0-3.57-18.24,78.93,78.93,0,0,0-6.24-15.94,57.68,57.68,0,0,0-9.17-12.84l-1.32-1.35c-.23-.23-.46-.48-.7-.71l-.77-.67-1.58-1.4c-.54-.47-1.15-.85-1.73-1.3a17.21,17.21,0,0,0-7.87-3.38,11.86,11.86,0,0,0-7.35,1.54A14.85,14.85,0,0,0,212.16,376.31Z"></path></g><path class="cls-3 color-swim-detail" d="M143.55,397.51c-2.11-.72-3.17-3.12-3.41-5.35-.28-2.51.32-5.31,2.28-6.92,2.74-2.23,7.35-1,9.06,2.09s.67,7.25-1.94,9.63a8.46,8.46,0,0,1,11,1.81,6.33,6.33,0,0,1,1.32,3.17c.28,2.94-2.31,5.68-5.24,6a8.19,8.19,0,0,1-7.52-3.76,7,7,0,0,1-.53,6.37,7.47,7.47,0,0,1-5.46,3.39,5.46,5.46,0,0,1-4.41-1.31,5,5,0,0,1-1-5.18,7.87,7.87,0,0,1,3.65-4.05,3.45,3.45,0,1,1,1-4.44" transform="matrix(-1, 0, 0, 1, 380, 0)"></path><path class="cls-3 color-swim-detail" d="M142.33,399a4.51,4.51,0,0,0-1.36-1.15,3.43,3.43,0,0,0-3.53.21,3.34,3.34,0,0,0-.74,4.31,3.24,3.24,0,0,0,4.43.76l.41.63a8,8,0,0,0-2.84,2.68,5.1,5.1,0,0,0-.8,2.92,3.94,3.94,0,0,0,2,3.43,5.63,5.63,0,0,0,4.26.24,6.79,6.79,0,0,0,3.56-2.59,6,6,0,0,0,.89-2,6.8,6.8,0,0,0,.17-1.1,7.56,7.56,0,0,0,0-1,4.08,4.08,0,0,0-.12-.68,5.77,5.77,0,0,0-.23-.8c.6-.45.63-.58.66-.7s.28,0,.91-.24c.21.25.43.57.62.76l.59.58a5.41,5.41,0,0,0,.58.48,3.13,3.13,0,0,0,.3.2,6.93,6.93,0,0,0,1.26.67,6.23,6.23,0,0,0,2.7.5,5.34,5.34,0,0,0,4.29-2.64,4,4,0,0,0,.37-3.32,6.09,6.09,0,0,0-2.09-2.9,7.61,7.61,0,0,0-3.34-1.46,8,8,0,0,0-1.82-.09,2.15,2.15,0,0,0-.45,0l-.23,0h-.11l-.14,0-.12,0-1.08.38-.54.19c-.2.09-.45.25-.68.38l-.47-.6-.07-.09,0,0-.06-.06a7.71,7.71,0,0,0-.54-.81l1-1.19c.22-.34.38-.65.57-1a1.83,1.83,0,0,0,.16-.31l.11-.24c.07-.17.12-.34.18-.5a7.81,7.81,0,0,0,.39-2.06,5.83,5.83,0,0,0-1.09-3.77,5.66,5.66,0,0,0-6.84-1.72,5.16,5.16,0,0,0-2.27,2.73,9.16,9.16,0,0,0-.55,3.58,8.26,8.26,0,0,0,.81,3.35,4.23,4.23,0,0,0,2.21,2.16,4,4,0,0,1-2.08-1.18,7.15,7.15,0,0,1-1.47-2.51,9.68,9.68,0,0,1,.06-6.46,6.29,6.29,0,0,1,2.05-2.75,6,6,0,0,1,3-1.18,7.19,7.19,0,0,1,7,3.68,7.64,7.64,0,0,1,.86,3.12,9.08,9.08,0,0,1-.37,3.09,11.59,11.59,0,0,1-.55,1.42,3.65,3.65,0,0,1-.33.55,4.53,4.53,0,0,1-.6.65,2.41,2.41,0,0,1,.71-.3c.13-.05.27-.06.42-.1l.43,0a4.75,4.75,0,0,1,.53-.05,9.62,9.62,0,0,1,2.08.12,9.35,9.35,0,0,1,3.76,1.53,8.06,8.06,0,0,1,2.56,3,5.52,5.52,0,0,1,.39,3.89,6.62,6.62,0,0,1-5.52,4.63,7.49,7.49,0,0,1-3.58-.52,8.37,8.37,0,0,1-1.57-.82l-.37-.25-.23-.17-.37-.32a6.1,6.1,0,0,1-.7-.81,4.27,4.27,0,0,1,.3,1.11,4.87,4.87,0,0,1,0,.54,6.74,6.74,0,0,1-.08.93,7.63,7.63,0,0,1-.56,1.89,7.73,7.73,0,0,1-9.51,4.12,4.74,4.74,0,0,1-2.63-2.55A5.78,5.78,0,0,1,137,408a8,8,0,0,1,4.11-5l.57.89a3.84,3.84,0,0,1-2.4.69,4.2,4.2,0,0,1-2-.6,3.57,3.57,0,0,1-1.49-1.83A4,4,0,0,1,137,397.8a3.58,3.58,0,0,1,3.76-.34A3.36,3.36,0,0,1,142.33,399Z" transform="matrix(-1, 0, 0, 1, 380, 0)"></path><path class="cls-3 color-swim-detail" d="M175,412.26a6.61,6.61,0,0,0-8.31,1.55,6.26,6.26,0,0,0,.88,8.31,5.93,5.93,0,0,0,8.2-.94,6.77,6.77,0,0,0,2,9.33,6.62,6.62,0,0,0,9-2.84,6.46,6.46,0,0,0-4-8.51,11.57,11.57,0,0,0,6.84-11.57c-.28-2.67-2.08-5.57-4.77-5.61a5.16,5.16,0,0,0-3.18,1.23,8.44,8.44,0,0,0-3,8.15,4.17,4.17,0,0,0-3.1-2.82c-1.46-.18-3,1.21-2.65,2.62s2.12,1.8,3.55,2" transform="matrix(-1, 0, 0, 1, 380, 0)"></path><path class="cls-3 color-swim-detail" d="M176.42,413.15a3.78,3.78,0,0,1-1.18-.09,3.5,3.5,0,0,1-2.27-1.21,1.94,1.94,0,0,1-.3-1.75,2.68,2.68,0,0,1,1.26-1.5,2.72,2.72,0,0,1,2.1-.27,4.09,4.09,0,0,1,1,.45,3.39,3.39,0,0,1,.33.25,2.73,2.73,0,0,1,.25.23,3.28,3.28,0,0,1,.63,1l0,0v-.11l0-.16a2.91,2.91,0,0,1,0-.31,4,4,0,0,1,0-.6,5.83,5.83,0,0,1,.06-.72,9.64,9.64,0,0,1,.24-1.12,9.54,9.54,0,0,1,.84-2,8.89,8.89,0,0,1,2.39-2.72,5.5,5.5,0,0,1,3.14-1.15,4.65,4.65,0,0,1,3.22,1.36,8.44,8.44,0,0,1,2.35,6.36,12.42,12.42,0,0,1-4.45,9.1,5.89,5.89,0,0,1-.68.53l-.4.28s-.1.06-.1.08l.1,0,.13.08.08,0,.24.19a6.84,6.84,0,0,1,1.62,1.78,7.59,7.59,0,0,1,1.26,4.45,6.37,6.37,0,0,1-.88,3.05,7,7,0,0,1-2.17,2.26,7.92,7.92,0,0,1-5.9,1.15,6.64,6.64,0,0,1-2.79-1.34,7,7,0,0,1-1.88-2.36,8.09,8.09,0,0,1-.82-2.82,10,10,0,0,1,0-1.45l0-.3h0l0,0a.61.61,0,0,1,.07-.14.17.17,0,0,1-.09.06l-.06,0a5.5,5.5,0,0,1-1,.28,7.39,7.39,0,0,1-2,.14,6.42,6.42,0,0,1-3.69-1.49,6.88,6.88,0,0,1-2-6.84,6.2,6.2,0,0,1,1.71-3,6.73,6.73,0,0,1,2.79-1.6,6.94,6.94,0,0,1,5.62.73,7,7,0,0,0-4.93-.12,5.61,5.61,0,0,0-3.65,3.62,5.8,5.8,0,0,0,.59,4.6,4.66,4.66,0,0,0,2.5,2,5.08,5.08,0,0,0,2.15.29,6.3,6.3,0,0,0,1.07-.19l.27-.09a2.64,2.64,0,0,0,.55-.29l.52-.32.13-.08.16-.16.32-.33c.73.43.83.32.95.2-.08.16-.07.45.29,1a6.51,6.51,0,0,0-.68,1.91,5.69,5.69,0,0,0-.06.92,6.81,6.81,0,0,0,.26,1.8,5.91,5.91,0,0,0,1.93,3,6,6,0,0,0,6.62.21,5.22,5.22,0,0,0,2.61-5.72,6.5,6.5,0,0,0-1.4-2.93,7.81,7.81,0,0,0-.56-.59l-.31-.25a2,2,0,0,0-.38-.26l-.49-.28c-.17-.09-.41-.16-.61-.25-.43-.17-.82-.29-1.23-.43,0-.05.13-.11.25-.18l.39-.18c.25-.12.51-.23.76-.38a10.36,10.36,0,0,0,1.32-.77,11.27,11.27,0,0,0,1.68-1.48,11.54,11.54,0,0,0,2.28-3.69,9.07,9.07,0,0,0-.36-7.87,3.76,3.76,0,0,0-6-1.11,8,8,0,0,0-2.81,4.34,2.71,2.71,0,0,0-.09.41l0,.21,0,0v.28c0,.24,0,.46,0,.72l0,.82a2.71,2.71,0,0,0-.32.41,2,2,0,0,0-.1.35s0,.2,0,.2a1.38,1.38,0,0,0-.27-.37,1.28,1.28,0,0,0-.7-.34,3.5,3.5,0,0,0-.86-1.11,3.15,3.15,0,0,0-.63-.4,2.13,2.13,0,0,0-1.4-.2,2,2,0,0,0-1.7,2,2.41,2.41,0,0,0,1.74,1.75A9.9,9.9,0,0,0,176.42,413.15Z" transform="matrix(-1, 0, 0, 1, 380, 0)"></path><path class="cls-3 color-swim-detail" d="M202,436.65c-2,.15-4.12.28-5.86-.7a7.32,7.32,0,0,1-3-3.79,7.41,7.41,0,0,1-.55-3.74,4,4,0,0,1,2-3.06,4.42,4.42,0,0,1,3.85.14,13.15,13.15,0,0,1,3.17,2.39,7.07,7.07,0,0,1,.84-5.33,6.23,6.23,0,0,1,4.37-2.95,5.09,5.09,0,0,1,4.78,2c1.31,1.88,1,4.54-.18,6.52a18.12,18.12,0,0,1-4.84,4.84,1.92,1.92,0,0,1,2.77,2.54,3.05,3.05,0,0,1-1.29,1.09,7.69,7.69,0,0,1-7.15-.09" transform="matrix(-1, 0, 0, 1, 380, 0)"></path><path class="cls-3 color-swim-detail" d="M200.94,436.5a10,10,0,0,0,4.43.62,6.92,6.92,0,0,0,1.79-.45,5.16,5.16,0,0,0,1.61-.95,1.58,1.58,0,0,0,.11-2.17,1.22,1.22,0,0,0-.27-.24.78.78,0,0,0-.24-.11.36.36,0,0,0-.19,0h-.1a.22.22,0,0,0-.16,0,1.91,1.91,0,0,0-.73-.41.58.58,0,0,0-.51.12l-.08.07.06-.1a.66.66,0,0,0,.09-.19,1.16,1.16,0,0,0,0-.52c.49-.41,1-.86,1.51-1.3q.47-.44.9-.9a11.72,11.72,0,0,0,1.52-2,6.19,6.19,0,0,0,.78-4.66,3.91,3.91,0,0,0-3.25-2.77,4.79,4.79,0,0,0-4.1,1.48,6,6,0,0,0-1.62,3.24,4.22,4.22,0,0,0-.07,1.06,4.15,4.15,0,0,0,.09.95c0,.32.14.73.22,1.12.18.81.36,1.61.53,2.41l-2.93-2.72c-.25-.22-.5-.44-.75-.64l-.35-.28-.18-.13a6.86,6.86,0,0,0-.7-.45,4,4,0,0,0-2.88-.54,2.79,2.79,0,0,0-1.88,1.84,5.26,5.26,0,0,0-.08,2.95c.5,2,1.54,3.93,3.14,4.77s3.56.78,5.24.77a12.84,12.84,0,0,1-3.32.62,6,6,0,0,1-4-1.22,8.42,8.42,0,0,1-2.38-3.21,7.75,7.75,0,0,1-.71-2.87,5.75,5.75,0,0,1,1.26-3.82,4.2,4.2,0,0,1,3.58-1.53,6.41,6.41,0,0,1,3.34,1.26,5.26,5.26,0,0,1,.84.7l.31.3.16.15,0,0v0l0-.09a3.83,3.83,0,0,1,0-1.13,7.62,7.62,0,0,1,.53-2.06,7,7,0,0,1,2.57-3.19,6,6,0,0,1,3.8-1.08,5.58,5.58,0,0,1,3.51,1.57,5.27,5.27,0,0,1,1.46,3.41,7.67,7.67,0,0,1-.66,3.48,10.36,10.36,0,0,1-1.9,2.78c-.37.4-.76.77-1.15,1.13l-.37.33-.26.21-.43.34c-.07.05,0,0,0,0l.12-.06a1.09,1.09,0,0,1,.26-.05.92.92,0,0,1,.36.07l.09,0,0,0,.11.07a2.59,2.59,0,0,1,.42.39,2.52,2.52,0,0,1,.5,1,2.4,2.4,0,0,1-.43,2.07,4.67,4.67,0,0,1-2.34,1.4,7.89,7.89,0,0,1-2.8.31A7.58,7.58,0,0,1,200.94,436.5Z" transform="matrix(-1, 0, 0, 1, 380, 0)"></path><path class="cls-3 color-swim-detail" d="M132.42,432.26a11,11,0,0,1-5.26-5.62c-.89-2.47-.31-5.57,1.81-7.11a5.72,5.72,0,0,1,5.48-.52,6.63,6.63,0,0,1,3.4,8.35,5.73,5.73,0,0,1,5.63-1.18,4.46,4.46,0,0,1,2.87,4.76c-.41,2.2-2.71,3.64-4.94,3.83a15.6,15.6,0,0,1-6.51-1.37,13,13,0,0,1-5.25-2.91" transform="matrix(-1, 0, 0, 1, 380, 0)"></path><path class="cls-3 color-swim-detail" d="M129.66,430.48c.16,0,.64.5,1.47,1a17.58,17.58,0,0,0,3.34,1.45,31.38,31.38,0,0,0,4,1.22,8.25,8.25,0,0,0,3.29.09,5.35,5.35,0,0,0,3.28-2.06,3.16,3.16,0,0,0,.08-3.52,3.78,3.78,0,0,0-3.12-1.87,5,5,0,0,0-1.9.31,4.25,4.25,0,0,0-.83.4,8.52,8.52,0,0,0-1.1.8l-2.38,1.94c.24-.67.47-1.31.69-2l.37-1.06.25-.91a3.55,3.55,0,0,0,.19-1.07,3.23,3.23,0,0,0,0-.44,7,7,0,0,0-.13-.9,5.86,5.86,0,0,0-.65-1.67A5.26,5.26,0,0,0,134,419.9a5.1,5.1,0,0,0-3.31-.18,4.13,4.13,0,0,0-2.43,2,5.88,5.88,0,0,0-.7,3.13,6.62,6.62,0,0,0,.88,3,12.52,12.52,0,0,0,4.12,4.19,10.08,10.08,0,0,1-5.38-3.66,7.27,7.27,0,0,1-1.34-3.31,6.24,6.24,0,0,1,4.21-6.85,6.6,6.6,0,0,1,5.29.69,7.13,7.13,0,0,1,3,4,7.4,7.4,0,0,1,.33,2.38,3.68,3.68,0,0,1-.08.72c0,.21-.15.47-.19.63a4,4,0,0,1,.89-.57l.26-.11.42-.15a8.26,8.26,0,0,1,.86-.2,5.45,5.45,0,0,1,3.42.53,5.22,5.22,0,0,1,2.26,2.48,4.29,4.29,0,0,1,.08,3.28,5.14,5.14,0,0,1-2,2.4,6.64,6.64,0,0,1-2.79,1,11.52,11.52,0,0,1-5.31-.78,31.47,31.47,0,0,1-4.24-1.88A8.58,8.58,0,0,1,129.66,430.48Z" transform="matrix(-1, 0, 0, 1, 380, 0)"></path><path class="cls-3 color-swim-detail" d="M187.15,384.78a10.8,10.8,0,0,0-2.44,2.61,3.94,3.94,0,0,0-.41,3.43,3.79,3.79,0,0,0,2,1.92,5.32,5.32,0,0,0,6.79-7.59,4.32,4.32,0,0,0,5-1.94,2.86,2.86,0,0,0,.32-2.89,2.62,2.62,0,0,0-2.88-1,7.8,7.8,0,0,0-2.83,1.59l-3.85,2.95c-.41.31-1,.61-1.37.22" transform="matrix(-1, 0, 0, 1, 380, 0)"></path><path class="cls-3 color-swim-detail" d="M187.47,384.05a1,1,0,0,0,.36.07,1.51,1.51,0,0,0,.7-.31l2-1.69,2.39-1.93a7.48,7.48,0,0,1,2.31-1.34,3.31,3.31,0,0,1,3.35.66,2.73,2.73,0,0,1,.77,1.83,4.08,4.08,0,0,1-.39,1.82,5.45,5.45,0,0,1-2.49,2.57,5.22,5.22,0,0,1-1.76.53h-.12s0,0,0,0h-.09l0,.06a2.49,2.49,0,0,1,.14.62,6.48,6.48,0,0,1-.44,3.51,5.84,5.84,0,0,1-2.29,2.69,6.29,6.29,0,0,1-6.43.19,4.08,4.08,0,0,1-1.81-5.43,8.49,8.49,0,0,1,3.23-3.37c-.64,1.07-1.8,2.54-2,4a3.3,3.3,0,0,0,.15,1.77,3.79,3.79,0,0,0,.67,1,4,4,0,0,0,3.05,1.25,4.67,4.67,0,0,0,3.14-1.23,4.72,4.72,0,0,0,1.41-2.95,4.86,4.86,0,0,0-.11-1.65,5.06,5.06,0,0,0-.45-1.14c-.1-.19-.2-.4-.3-.58l-.15-.28-.07-.13v-.06a9,9,0,0,0,1.84.47,1.38,1.38,0,0,0,.4,0l.25,0a2.92,2.92,0,0,0,.49-.12,4.19,4.19,0,0,0,1.7-1c.93-.87,1.45-2.28,1-3.16a2.21,2.21,0,0,0-2.71-.71,12.52,12.52,0,0,0-2.83,1.76c-.75.55-1.82,1.23-2.77,1.82a6.88,6.88,0,0,1-1.35.72,1,1,0,0,1-.58,0A.51.51,0,0,1,187.47,384.05Z" transform="matrix(-1, 0, 0, 1, 380, 0)"></path></svg>