<svg xmlns="http://www.w3.org/2000/svg" id="Max" viewBox="0 0 380 600"><defs><style>.cls-1{fill:#e599a2;}.cls-2{fill:#fff;}.cls-3{fill:#90475f;}.cls-4{fill:#cb7a83;}.cls-5{fill:#d3504a;}.cls-6{opacity:.3;}.cls-7{opacity:.45;}.cls-8{opacity:.5;}</style></defs><g id="Vecna"><g><g><g><g><path class="cls-3" d="M100.31,484.37c-10.76,16.17-5.24,20.66-2.26,36.9,1.63,8.92-11.07,14.56-15.27,3.89-2.84-7.22-8.24-24.03,0-44.4,8.24-20.37,32.65-39.67,42.88-46.08,8.17-5.13,11.76,11.13,1.92,19.22s-19.56,18.89-27.26,30.46Z"></path><path d="M100.28,484.35c.17-1.04,5.13-8.99,12.26-17.12,3.55-4.07,7.58-8.21,11.51-11.74,.97-.89,1.97-1.73,2.88-2.55,.87-.75,1.6-1.58,2.22-2.42,1.24-1.69,1.96-3.46,2.35-4.96,.35-1.33,.5-2.71,.46-4.07-.03-1.36-.3-2.71-.8-3.84-.51-1.14-1.32-1.93-2.07-2.04-.38-.07-.81-.05-1.3,.14-.25,.11-.5,.19-.75,.36l-.39,.23-.48,.33c-2.55,1.72-5.08,3.62-7.55,5.59-2.49,1.96-4.9,4.04-7.3,6.15-4.75,4.26-9.28,8.8-13.36,13.59-4.07,4.78-7.71,9.83-10.44,15.09-4.7,9.16-6.91,19.6-6.2,29.57,.04,1.25,.23,2.49,.35,3.73,.2,1.23,.35,2.46,.62,3.67,.48,2.43,1.1,4.81,1.86,7.14l.6,1.73,.32,.86,.16,.43,.15,.35c.39,.94,.89,1.76,1.48,2.39,1.17,1.28,2.74,1.77,4.39,1.44,1.65-.32,3.19-1.48,3.99-2.97,.4-.75,.63-1.57,.68-2.42,.03-.43,0-.86-.06-1.3-.1-.56-.19-1.11-.29-1.67-.75-4.46-1.95-8.72-2.75-13.13-.39-2.21-.57-4.5-.4-6.72,.12-2.24,.74-4.35,1.45-6.3,1.53-3.87,3.68-7.07,5.78-9.95-1.24,2.99-2.88,6.64-3.78,10.67-.39,2.01-.63,4.08-.45,6.13,.18,2.05,.67,4.08,1.27,6.11,1.26,4.05,2.73,8.18,3.59,11.91,.11,.47,.21,.92,.32,1.37l.15,.67c.04,.28,.09,.56,.13,.84,.13,1.11,.11,2.21-.08,3.23-.38,2.04-1.3,3.66-2.25,4.74-1.9,2.2-4.59,3.6-7.46,3.78-1.43,.1-2.9-.13-4.22-.68-1.32-.55-2.48-1.4-3.38-2.38-.91-.99-1.6-2.09-2.11-3.21-.51-1.17-.82-2.15-1.16-3.18-.67-2.05-1.23-4.12-1.69-6.19-1.86-8.28-2-16.64-.56-24.42,.7-3.89,1.73-7.66,3.13-11.22,.61-1.81,1.49-3.51,2.26-5.23,.4-.85,.89-1.65,1.33-2.47,.46-.81,.87-1.65,1.39-2.41,3.88-6.28,8.43-11.79,13.14-16.79,4.72-5,9.65-9.46,14.62-13.55,2.48-2.04,4.99-3.97,7.54-5.78,1.29-.92,2.5-1.76,3.92-2.63,.76-.46,1.66-.81,2.64-.95,.98-.14,2.09,0,3.03,.47,.94,.46,1.66,1.17,2.2,1.91,.54,.75,.94,1.55,1.21,2.35,.57,1.61,.72,3.24,.7,4.83-.08,3.18-1.04,6.21-2.63,8.81-.8,1.3-1.75,2.49-2.84,3.52-1.16,1.06-2.13,1.8-3.16,2.69-2.03,1.71-3.96,3.47-5.83,5.23-3.54,3.36-8.27,8.08-12.19,12.49-3.94,4.39-7.08,8.43-8.12,9.75Z"></path></g><g><path class="cls-3" d="M275.63,478.37c9.61,11.67,5.24,20.66,2.26,36.9-1.63,8.92,11.07,14.56,15.27,3.89,2.84-7.22,8.24-24.03,0-44.4-8.24-20.37-32.65-34.67-42.88-41.08-8.17-5.13-10.63,10.13-.79,18.22,9.84,8.09,16.63,14.93,26.13,26.46Z"></path><path d="M275.6,478.4c-.97-.41-6.69-7.34-14.09-14.52-3.69-3.6-7.84-7.21-11.77-10.36-.96-.76-2.01-1.62-2.88-2.53-.88-.91-1.62-1.9-2.26-2.87-1.28-1.96-2.04-3.95-2.5-5.67-.39-1.52-.59-3.13-.48-4.8,.15-1.65,.5-3.47,1.93-5.08,.7-.78,1.76-1.42,2.89-1.6,1.13-.19,2.2,0,3.13,.32,.9,.32,1.76,.84,2.35,1.19,.65,.39,1.31,.77,1.97,1.16,5.28,3.1,10.63,6.45,15.76,10.21,5.13,3.75,10.07,7.89,14.44,12.59,4.37,4.68,8.2,9.92,10.86,15.7,4.54,9.97,6.33,21.15,4.97,31.73-.61,5.29-1.99,10.39-3.82,15.17-.42,1.11-1.03,2.59-1.89,3.83-.86,1.27-2,2.44-3.4,3.29-1.41,.84-3.06,1.31-4.68,1.35-1.62,.02-3.19-.34-4.57-1-2.77-1.31-4.87-3.79-5.68-6.67-.4-1.44-.47-2.94-.26-4.34,.11-.77,.24-1.21,.35-1.8,.12-.56,.24-1.11,.36-1.66,.99-4.41,2.13-8.58,2.9-12.56,.74-3.97,1.07-7.78,.24-11.27-.74-3.5-2.47-6.62-4.44-9.31,2.31,1.94,4.98,4.8,6.5,8.8,.43,.98,.66,2.04,.96,3.11,.18,1.08,.41,2.19,.46,3.31,.12,1.13,.09,2.24,.1,3.36-.06,1.1-.09,2.23-.21,3.31-.41,4.35-1.15,8.42-1.7,11.92-.14,.87-.28,1.71-.41,2.51-.03,.2-.07,.4-.1,.59l-.04,.41c-.04,.27-.02,.52-.03,.76,.04,.97,.27,1.77,.57,2.41,.57,1.27,1.72,2.39,3.07,2.92,1.35,.53,2.82,.5,4.08-.17,1.27-.66,2.31-2,3.03-3.58,.79-1.78,1.48-3.62,2.09-5.45,2.42-7.35,3.27-14.99,2.55-22.27-.36-3.64-1.01-7.21-2.07-10.6l-.37-1.28-.45-1.25c-.3-.83-.6-1.66-.9-2.48-.36-.79-.72-1.58-1.08-2.37l-.54-1.18c-.19-.39-.42-.75-.63-1.13-3.33-6.01-7.72-11.18-12.47-15.61-4.75-4.45-9.79-8.26-14.83-11.71-2.54-1.71-5.06-3.34-7.58-4.9-1.27-.78-2.52-1.55-3.77-2.31-.62-.38-1.24-.75-1.85-1.12-.53-.31-1.06-.54-1.56-.65-1-.18-1.65,.07-2.23,.85-.29,.38-.51,.88-.66,1.43-.16,.54-.26,1.13-.29,1.73-.16,2.42,.49,4.94,1.57,7.12,1.09,2.22,2.64,4.07,4.52,5.62,2,1.68,3.93,3.37,5.79,5.09,3.57,3.21,8.06,8.04,11.65,12.52,3.62,4.47,6.47,8.5,7.4,9.83Z"></path></g><g><path class="cls-3" d="M314.72,434.39c6.24,2.19,13.04,.93,15.1-4.88,1.85-5.23-.26-10.2-9.05-19.46-7.09-7.47-.77-18,12.68-13.03,11.65,4.31,21.01,19.24,16.72,33.93-3.13,10.7-12.68,21.15-32.81,21.15-18.01,0-36.62-13.55-43.19-21.03-6.36-7.25-10.8-26.24,0-19.48,12.12,7.59,26.46,17.84,40.55,22.8Z"></path><path d="M314.7,434.43c-.59,0-3.44-.79-7.44-2.51-4.01-1.69-9.11-4.35-14.42-7.46-5.31-3.11-10.82-6.66-15.89-9.81-1.26-.78-2.52-1.57-3.69-2.25-1.11-.65-2.35-1.1-2.98-1-.36,.03-.69,.24-.87,.52-.09,.14-.17,.28-.22,.44-.02,.08-.05,.15-.07,.24l-.06,.33c-.16,.9-.09,1.89,.03,2.76,.46,3.13,1.65,6.34,3.19,9.31,.77,1.49,1.68,2.9,2.69,4.16,1.01,1.21,2.32,2.43,3.59,3.59,5.26,4.6,11.38,8.55,17.85,11.59,3.23,1.54,6.59,2.79,10,3.69,3.41,.88,6.87,1.52,10.29,1.49,3.47,0,6.97-.3,10.27-1.02,3.29-.76,6.42-1.94,9.17-3.59,4.83-2.87,8.55-7.31,10.54-12.48,1.03-2.59,1.55-5.28,1.68-7.99,0-.68,.08-1.36,0-2.03l-.16-2.03-.35-2c-.12-.67-.34-1.31-.51-1.97-1.54-5.19-4.62-9.95-8.7-13.28-2.03-1.67-4.27-3-6.64-3.84-2.39-.88-4.88-1.29-7.02-.88-2.12,.4-3.87,1.54-4.51,3.27l-.15,.31-.07,.34c-.04,.23-.12,.45-.14,.68,.02,.47-.07,.95,.07,1.43,.09,.98,.58,1.92,1.1,2.84,.3,.44,.66,.86,.98,1.3,.44,.5,.88,.99,1.32,1.49,.87,1,1.73,2.01,2.55,3.04,1.63,2.08,3.18,4.2,4.35,6.64,1.18,2.38,1.89,5.29,1.37,8.03-.26,1.35-.71,2.58-1.39,3.77-.66,1.18-1.62,2.18-2.68,2.93-2.15,1.54-4.66,2.02-6.94,2.01-2.31-.02-4.46-.55-6.42-1.32,1.87,.35,3.98,.49,6.14,.22,1.08-.16,2.16-.43,3.19-.84,1.03-.43,1.98-1.03,2.77-1.78,.79-.76,1.4-1.67,1.8-2.67,.36-1.01,.59-2.15,.59-3.21,.02-2.14-.89-4.17-2.16-6.08-1.28-1.91-2.84-3.69-4.41-5.36-.78-.84-1.58-1.64-2.36-2.42-.39-.39-.78-.78-1.16-1.16-.44-.5-.87-1-1.29-1.48-1.59-2.07-2.51-4.61-2.49-6.99,0-2.38,.84-4.49,1.94-5.81,.23-.37,.55-.66,.86-.95,.31-.29,.61-.6,.94-.86l1.04-.68,.52-.33c.18-.09,.37-.16,.55-.24,.74-.31,1.47-.63,2.22-.75l1.12-.24c.37-.06,.74-.06,1.11-.09l1.1-.06c.36-.02,.71,.04,1.07,.06,.7,.07,1.43,.08,2.09,.26,.67,.15,1.35,.28,2,.45l1.89,.65c5.02,1.87,9.12,5.23,12.19,9.14,.82,.94,1.44,2.02,2.15,3.03l.91,1.61,.45,.8,.38,.83,.75,1.66,.61,1.71,.3,.85,.23,.88,.45,1.75c.97,4.7,.79,9.55-.5,14-.66,2.21-1.54,4.33-2.64,6.31-1.14,1.96-2.43,3.82-3.96,5.45-3.02,3.3-6.79,5.73-10.74,7.38-3.96,1.65-8.12,2.49-12.21,2.82-4.07,.34-8.18,.23-12.11-.49-3.94-.67-7.67-1.9-11.22-3.32-3.55-1.45-6.93-3.12-10.1-5.03-3.18-1.9-6.18-3.96-8.99-6.19-1.41-1.12-2.76-2.27-4.05-3.51-.65-.6-1.28-1.24-1.89-1.9-.62-.62-1.22-1.39-1.75-2.11-2.08-2.97-3.53-6.15-4.55-9.44-.5-1.65-.91-3.32-1.08-5.08-.1-.87-.11-1.78-.02-2.73,.04-.47,.14-.96,.28-1.47,.1-.29,.21-.58,.34-.86,.16-.26,.3-.54,.49-.78,.75-.98,1.97-1.5,3.19-1.46,.31,0,.61,.02,.87,.08,.26,.06,.57,.1,.78,.18,.45,.15,.91,.31,1.3,.51,1.65,.82,2.82,1.69,4.14,2.51,2.56,1.69,5.08,3.35,7.56,4.99,4.7,3.09,11.01,7.42,16.79,10.87,2.89,1.73,5.65,3.22,7.91,4.37,2.27,1.13,4.05,1.89,4.93,2.29Z"></path></g><g><path class="cls-3" d="M291.1,365.17c11.24-8.15,11.8-18.67,22.2-25.92,8.65-6.04,25.57-.63,33.47,8.25,6.03,6.78,4.05,14.78-6.18,13.17-4.03-.64-15.03-5.17-20.55-2.17-5.08,2.76-5.95,12.64-18.42,22.69-13.92,11.21-31.3,12.43-43.2,10.42-9.51-1.61-15.28-17.14-2.55-16.64s23.56-1.33,35.23-9.79Z"></path><path d="M291.13,365.2c-.3,.45-2.36,2.24-5.81,4.29-3.43,2.06-8.39,4.23-14.02,5.37-2.81,.58-5.75,.93-8.68,1.08-1.47,.07-2.93,.1-4.37,.11-.72,0-1.43-.02-2.14-.03-.69,0-1.31-.01-1.93,.07-1.22,.14-2.36,.5-3.11,1.15-.78,.62-1.15,1.51-1.27,2.44-.18,1.92,.65,3.8,1.49,5.11,1.54,2.35,3.92,4.28,6.56,4.93,.34,.08,.64,.13,1.01,.19l1.18,.14c.78,.11,1.57,.16,2.37,.22,1.58,.12,3.19,.18,4.79,.15,6.41-.07,12.96-1.08,19.05-3.36,3.04-1.13,5.98-2.54,8.74-4.22,2.73-1.73,5.28-3.69,7.62-5.89,2.33-2.19,4.39-4.61,6.18-7.21,1.82-2.59,3.27-5.36,5.01-8.32,.79-1.29,1.68-2.67,3.05-3.96,.34-.32,.7-.64,1.14-.91,.42-.29,.84-.56,1.3-.74,.91-.45,1.8-.66,2.69-.86,3.51-.58,6.56-.05,9.48,.52,2.89,.61,5.68,1.46,8.23,2.12,2.27,.57,4.83,.66,6.22-.07,.71-.35,1.09-.78,1.32-1.4,.23-.62,.26-1.51,0-2.45-.26-.94-.66-1.93-1.3-2.85-.58-.93-1.37-1.79-2.22-2.66-1.71-1.69-3.68-3.17-5.76-4.43-2.1-1.25-4.32-2.25-6.57-3.06-2.25-.82-4.57-1.31-6.84-1.56-2.27-.25-4.53-.19-6.55,.35-.53,.07-.98,.32-1.47,.47-.5,.14-.93,.4-1.36,.64l-.66,.35-.67,.48c-.44,.33-.91,.62-1.32,.98-1.72,1.35-3.2,2.94-4.57,4.61-2.72,3.36-4.91,7.19-7.54,10.54-2.61,3.37-5.63,6.2-8.82,8.26,2.43-2.45,4.99-5.72,7.11-9.53,2.15-3.8,3.97-8.17,6.71-12.21,1.38-2.01,3.01-3.86,4.76-5.46,.91-.76,1.74-1.52,2.88-2.18,.27-.17,.53-.33,.8-.49,.27-.14,.55-.25,.82-.37,.55-.23,1.09-.49,1.63-.67,4.38-1.37,8.15-1.04,10.58-.61,4.94,.92,9.4,2.85,13.43,5.31,1.98,1.29,3.91,2.64,5.59,4.29l.64,.6,.6,.65c.39,.44,.81,.85,1.18,1.31,.36,.49,.75,.94,1.08,1.45,.31,.52,.66,1.01,.93,1.57,.55,1.1,1.04,2.24,1.26,3.5,.27,1.23,.28,2.58-.04,3.9-.27,1.33-1.11,2.57-2.12,3.47l-.8,.62c-.29,.16-.58,.3-.87,.45-.58,.34-1.19,.42-1.79,.62-2.42,.54-4.67,.23-6.84-.27-2.08-.54-4-1.17-5.94-1.68-1.93-.52-3.85-.97-5.76-1.22-1.89-.25-3.8-.3-5.47,.13-.85,.19-1.56,.58-2.22,1.07-.63,.55-1.24,1.18-1.75,1.94-1.07,1.48-1.99,3.18-2.96,4.82-1.91,3.33-4.09,6.53-6.58,9.37-2.5,2.84-5.26,5.34-8.23,7.48-2.96,2.14-6.1,3.94-9.33,5.39-3.24,1.45-6.57,2.49-9.91,3.27-6.68,1.54-13.37,1.85-19.75,1.17-.8-.06-1.59-.2-2.38-.3-.74-.09-1.7-.28-2.51-.56-1.67-.56-3.15-1.48-4.44-2.57-2.51-2.23-4.39-5.11-4.86-8.56-.23-1.69,.06-3.68,1.24-5.25,.59-.76,1.34-1.37,2.14-1.79,.8-.4,1.63-.68,2.44-.81,1.62-.3,3.21-.17,4.51-.13,1.36,.05,2.71,.08,4.05,.07,2.54-.03,5.53-.15,8.62-.57,3.09-.41,6.27-1.13,9.17-2.1,2.9-.96,5.52-2.17,7.59-3.23,2.06-1.08,3.57-2.03,4.33-2.48Z"></path></g><g><path class="cls-3" d="M136.64,402.24c-3.38,.39-40.68-1.95-66.94-12.51-23.49-9.45-39.01-25.62-46.6-38.23-10.78-17.9-7.06-30.58,2.96-34.68,12.39-5.07,30.43,6.19,34.65,13.51,5.6,9.71,2.83,20.16-11.29,18.18,4.22,9.33,12.48,18.01,30.12,24.48,21.66,7.95,41.94,9.13,63.17,10.13,5.47,.26,.33,18.38-6.07,19.11Z"></path><path d="M136.64,402.2c.28-.14,1.1-.34,2.06-1.14,.96-.79,2.02-2.13,2.97-3.94,.95-1.81,1.82-4.08,2.33-6.67,.24-1.29,.42-2.68,.29-4.04-.03-.34-.08-.68-.17-.98-.07-.28-.17-.54-.32-.78-.14-.25-.35-.44-.59-.59-.26-.12-.54-.17-.83-.17-2.21-.09-4.5-.17-6.85-.26-2.37-.11-4.8-.22-7.24-.37-4.89-.29-9.87-.68-14.65-1.23-9.58-1.04-18.34-2.86-24.24-4.4-3.96-.99-7.92-2.2-11.89-3.63-3.98-1.44-7.94-3.18-11.75-5.37-1.92-1.07-3.76-2.32-5.57-3.64-1.77-1.38-3.52-2.81-5.1-4.47-1.58-1.64-3.1-3.39-4.39-5.31-.17-.23-.33-.47-.48-.72l-.62-.99c-.53-.83-.94-1.67-1.37-2.51-.43-.84-.87-1.67-1.29-2.54l-.64-1.3c-.21-.43-.46-.9-.54-1.21l3.78,.32c1.25,.08,2.45,.09,3.68,.14l.46,.02c.13,0,.36,.02,.39,0l.42-.07,.85-.13c.29-.02,.55-.11,.81-.2l.78-.24c.27-.07,.46-.23,.7-.33,.22-.13,.48-.21,.67-.36,.36-.32,.82-.55,1.09-.95,.69-.66,1.06-1.59,1.36-2.54,.48-2,.2-4.36-.59-6.6-.2-.56-.46-1.11-.68-1.67-.27-.54-.57-1.07-.85-1.61-.32-.49-.61-.92-.95-1.39-.4-.45-.75-.91-1.18-1.35-1.69-1.77-3.72-3.34-5.85-4.72-2.13-1.38-4.37-2.61-6.7-3.54-1.14-.53-2.34-.87-3.51-1.28-1.19-.3-2.37-.66-3.56-.82-1.19-.26-2.36-.27-3.53-.36l-1.72,.07h-.43l-.41,.09-.82,.14c-3.41,.6-6.56,2.45-8.34,5.23-.51,.66-.81,1.45-1.19,2.19-.24,.81-.58,1.59-.7,2.46-.39,1.68-.37,3.49-.26,5.28,.35,3.62,1.51,7.26,3.07,10.73l1.25,2.58,1.41,2.51c.96,1.66,2.02,3.27,3.12,4.85,2.22,3.15,4.67,6.12,7.27,8.92,2.59,2.81,5.34,5.44,8.23,7.86,1.41,1.25,2.92,2.37,4.38,3.54,1.52,1.08,2.99,2.23,4.55,3.23,3.04,2.11,6.24,3.92,9.41,5.65,6.41,3.39,13.04,5.94,19.65,8.01,6.61,2.06,13.17,3.68,19.54,4.99,6.37,1.31,12.54,2.36,18.45,3.2,2.95,.42,5.84,.77,8.65,1.09,1.41,.13,2.8,.3,4.16,.39,.68,.05,1.36,.12,2.03,.14l1,.05h.92c-.53,.1-1.11,.19-1.75,.24-.63,.07-1.27,.11-1.94,.15-1.33,.09-2.72,.12-4.17,.16-2.89,.04-5.98,.01-9.19-.12-6.42-.25-13.3-.86-19.96-1.79-13.33-1.78-25.75-5.36-31.91-8.25-15.25-6.85-28.21-16.89-38.04-28.69-2.45-2.97-4.7-6.04-6.7-9.25-1.02-1.59-1.89-3.27-2.79-4.91-.8-1.7-1.64-3.37-2.27-5.14-1.33-3.49-2.27-7.15-2.4-10.9-.12-3.71,.56-7.6,2.61-10.8l.8-1.17c.27-.39,.61-.71,.92-1.07,.59-.74,1.35-1.29,2.06-1.9,1.52-1.07,3.12-2.02,4.89-2.52,3.49-1.16,7.16-1.16,10.58-.59,6.88,1.21,13.04,4.35,18.28,8.39,.67,.49,1.27,1.07,1.91,1.6,.63,.54,1.2,1.16,1.79,1.74,.55,.64,1.12,1.25,1.61,1.95l.72,1.07c.23,.36,.4,.73,.6,1.1,1.53,2.92,2.58,6.2,2.34,9.63-.12,1.69-.56,3.44-1.56,4.92-.95,1.47-2.33,2.72-3.89,3.4-.75,.44-1.58,.6-2.37,.87-.8,.2-1.62,.28-2.42,.41l-1.33,.04-1.2-.1h-.09s-.07-.02-.04,.02l.09,.18,.17,.35c.11,.23,.23,.46,.36,.68l.37,.66,.47,.74c.98,1.51,2.06,2.95,3.25,4.28,2.36,2.67,5.05,4.99,7.95,6.95,5.79,3.96,12.2,6.62,18.57,8.77,12.77,4.35,25.44,6.46,37.52,7.74,3.09,.32,6.66,.65,10.45,.98,3.81,.31,7.83,.64,11.78,.96,.22,.01,.43,.06,.64,.11,.22,.03,.42,.11,.61,.21,.39,.18,.72,.48,.98,.81,.52,.65,.77,1.59,.85,2.27,.18,1.44,0,2.77-.24,4.03-.51,2.52-1.4,4.76-2.39,6.65-1,1.89-2.17,3.42-3.33,4.44-1.16,1.03-2.35,1.44-3.08,1.47Z"></path></g><g><path class="cls-3" d="M107.6,418.6c-8.57-7.38-13.83-9.56-17.9,3.33-3.44,10.89-11.92,19.46-24.14,18.32-14.04-1.31-20.54-2.42-36.64-3.2-18.03-.87-23.85-24.72-6.4-26.75,13.91-1.62,24.92,4.62,40.02,10.47,9.62,3.73,13.92-13.31,19.11-23.83,5.75-11.65,17.08-12.44,27.54-2.22,10.46,10.22,23.61,21.79,28.29,28.21,4.68,6.42,1.67,22.79-4.28,17.58-8.9-7.8-16.2-13.82-25.59-21.9Z"></path><path d="M107.63,418.57c1.34,.57,11.51,8.99,23.21,18.79,.73,.61,1.47,1.23,2.21,1.85,.37,.31,.76,.65,1.07,.87,.31,.23,.58,.36,.91,.44,.66,.15,1.31-.2,1.72-.73,.49-.61,.88-1.44,1.16-2.29,.56-1.73,.8-3.61,.81-5.45,.01-1.84-.21-3.66-.69-5.32-.24-.83-.56-1.61-.96-2.31-.19-.37-.4-.65-.66-1-.27-.34-.53-.67-.79-1-1.11-1.3-2.22-2.53-3.34-3.67-2.22-2.28-4.32-4.26-6.08-5.89-3.15-2.86-6.35-5.76-9.6-8.71-3.23-2.96-6.5-5.95-9.8-8.98-1.58-1.42-3.33-2.62-5.16-3.57-1.82-.98-3.78-1.6-5.71-1.78-1.93-.18-3.84,.12-5.54,.93-1.71,.81-3.22,2.08-4.46,3.67-2.38,3.16-3.93,7.6-5.73,11.83-.89,2.14-1.8,4.3-2.84,6.44-1.05,2.14-2.2,4.29-3.79,6.34-.8,1.02-1.73,2.02-2.89,2.89-1.15,.87-2.62,1.59-4.23,1.84-1.61,.26-3.25,0-4.61-.5-1.18-.43-2.16-.83-3.25-1.25-4.22-1.67-8.34-3.41-12.38-4.94-7.06-2.7-14.18-4.65-21.26-4.18l-1.32,.11c-.44,.03-.89,.07-1.26,.15-.8,.11-1.56,.3-2.27,.54-1.43,.49-2.63,1.26-3.51,2.25-1.77,1.98-2.18,5.1-1.3,8.03,.84,2.94,2.78,5.63,5.29,7.45,2.53,1.86,5.56,2.8,8.79,2.97,7.28,.4,14.45,1.03,21.38,1.85,3.45,.41,6.86,.81,10.22,1.21,1.67,.19,3.33,.37,4.98,.55,1.5,.12,3,.16,4.46-.04,2.91-.37,5.71-1.38,8.08-3.03,2.39-1.63,4.41-3.76,6.04-6.13,1.65-2.38,2.84-4.96,3.78-7.67,.5-1.44,1.07-2.85,1.78-4.21,.72-1.36,1.55-2.7,2.81-3.82,.63-.55,1.37-1.04,2.21-1.33,.83-.3,1.73-.39,2.56-.31,1.67,.18,3.03,.85,4.24,1.57,2.41,1.47,4.35,3.25,6.22,4.96-1.91-1.24-4.04-2.69-6.49-3.83-1.22-.55-2.57-1.04-3.91-1.05-1.35-.03-2.55,.57-3.42,1.58-.89,1-1.51,2.31-2.04,3.67-.53,1.38-.9,2.81-1.3,4.33-.83,3.16-2.11,6.28-3.9,9.11-1.78,2.83-4.08,5.37-6.8,7.25-2.7,1.9-5.75,3.12-8.68,3.65-.73,.13-1.46,.27-2.17,.3-.71,.03-1.41,.14-2.09,.09-.68-.02-1.34-.05-1.98-.07-.58-.05-1.14-.1-1.68-.15-2.17-.2-4.06-.41-5.6-.62-6.19-.86-12.23-1.72-18.2-2.33-2.99-.31-5.96-.57-8.91-.8l-2.22-.17c-.81-.1-1.61-.14-2.41-.32-1.6-.27-3.14-.79-4.61-1.43-5.89-2.62-10.27-8.17-11-14.44-.39-3.1,.31-6.48,2.33-9,.99-1.26,2.25-2.26,3.6-3,1.36-.76,2.83-1.16,4.27-1.47,5.73-.92,11.34-.33,16.64,.96,5.28,1.35,10.21,3.33,15,5.29,2.39,.98,4.76,1.96,7.11,2.92,1.16,.46,2.37,.95,3.49,1.37,1.04,.37,2.11,.47,3.11,.25,2.03-.44,3.72-2.2,5.06-4.08,1.36-1.91,2.44-4.06,3.45-6.22,2.01-4.34,3.64-8.82,5.7-13.13,1.09-2.18,2.41-4.29,4.17-6.06,1.76-1.76,3.97-3.12,6.39-3.78,2.42-.68,4.97-.63,7.31-.09,.58,.16,1.18,.26,1.74,.48l1.67,.63c1.05,.52,2.13,1,3.08,1.65,2,1.19,3.7,2.69,5.36,4.2,1.56,1.48,3.1,2.95,4.63,4.4,6.15,5.81,12.22,11.31,17.81,17.01,1.4,1.42,2.75,2.89,4.06,4.39,.65,.76,1.28,1.54,1.89,2.35,.65,.87,1.19,1.9,1.56,2.89,.75,2.01,1.03,4.04,1.11,6.04,.05,2-.12,3.98-.59,5.93-.22,.92-.52,1.89-1,2.87-.25,.49-.52,.99-.91,1.48l-.3,.37-.4,.38c-.27,.25-.58,.45-.9,.63-1.31,.75-3.05,.41-4.2-.49-.55-.43-.91-.77-1.31-1.13-.4-.36-.79-.72-1.19-1.08-3.19-2.92-6.5-5.95-9.6-8.8-6.18-5.71-11.47-10.69-13.19-12.34Z"></path></g><g class="cls-8"><path class="cls-2" d="M96.7,381.56c-.17,.29-1.75,.35-3.59,.35-.92,.02-1.89-.11-2.79-.15-.89-.07-1.71-.07-2.3-.11-4.16-.05-8.83-1.2-12.89-2.62-7.15-2.46-13.3-6.87-16.36-10.82,2.68,.25,6.57,1.46,7.66,2.42,4.35,3.95,9.22,6.06,13.57,7.3,.55,.15,1.09,.3,1.62,.45,.54,.11,1.07,.23,1.59,.34,1.04,.22,2.04,.44,3.03,.57,.98,.16,1.92,.32,2.83,.47,.92,.12,1.8,.26,2.65,.43,.81,.17,1.91,.41,2.88,.69,.98,.28,1.83,.56,2.11,.67Z"></path></g></g><g><path class="cls-5" d="M35.25,338.76c5.4,4.06,12.04,7.05,18.89,4.03-7.24-1.62-10.43-6.43-11.8-7.97-6.5-7.26-10.94-8.59-16.94-7.07-2.76,.7-4.17,4.19-1.07,5.2,6.4,2.07,9.32,4.61,10.91,5.81Z" style=""></path><path class="cls-5" d="M25.82,342.26c.25,.36,4.9,6.49,7.27,8.31,2.11,1.63,4.25,3.33,6.02,5.35,1.75,2.03,3.49,4.13,5.37,5.92,3.24,3.14,6.47,6.34,9.66,9.11,3.19,2.77,6.31,5.06,8.96,6.63-.64-.26-1.44-.54-2.33-.82-.9-.26-1.86-.54-2.8-.83-1.9-.53-3.68-1.13-4.5-1.65-3.25-2.11-6.1-4.4-8.69-6.63-2.58-2.27-4.97-4.39-7.23-6.39-2.27-2-4.42-3.92-6.02-6.05-1.65-2.09-2.81-4.31-3.63-6.51-.42-1.02-.74-2.56-1.12-3.82-.34-1.29-.78-2.31-.95-2.63Z" style=""></path><path class="cls-5" d="M24.6,430.08c.06-.07,.4-.37,.93-.85,.56-.41,1.34-1,2.27-1.41,1.85-.92,4.17-1.47,5.44-1.89,1.14-.44,2.34-.72,3.58-.92,1.21-.14,2.48-.19,3.68,0,1.22,.16,2.42,.43,3.58,.74,1.16,.3,2.31,.59,3.42,.88,3.88,1.03,7.5,2.71,10.7,4.36,3.21,1.65,6.02,3.26,8.35,4.3-1.11-.28-2.81-.47-4.44-.57-1.63-.08-3.17-.13-3.91-.39-2.96-1-5.72-2.06-8.38-2.81-2.65-.78-5.2-1.29-7.62-1.43-2.42-.13-4.67-.03-6.69-.1-2.04-.09-3.86-.26-5.64-.45-.84-.06-2.05-.28-3.11-.15-1.1,.06-1.9,.57-2.17,.71Z" style=""></path><path class="cls-5" d="M92.33,524.71c-.07-.08-.4-.51-.91-1.15-.26-.32-.56-.7-.88-1.1-.32-.41-.61-.89-.94-1.38-.33-.49-.68-.99-.99-1.51-.3-.53-.6-1.05-.88-1.55-.61-1-1.07-1.94-1.5-2.6-1.56-2.29-2.71-5.05-3.14-7.93-.33-2.89-.27-5.83-.17-8.59,.19-4.84,1.5-9.53,3.17-13.51,1.67-4,3.72-7.27,5.35-9.8-.26,.63-.53,1.42-.79,2.28-.28,.85-.39,1.84-.56,2.75-.18,.91-.21,1.84-.31,2.61-.09,.78-.21,1.41-.31,1.85-1.08,3.43-1.79,6.78-2.15,9.98-.38,3.2-.26,6.25,.21,9.03,.28,1.39,.55,2.73,.92,3.99,.16,.63,.32,1.26,.47,1.87,.18,.6,.34,1.2,.48,1.79,.56,2.36,1.04,4.54,1.35,6.7,.2,1,.34,2.46,.62,3.72,.33,1.23,.78,2.23,.95,2.54Z" style=""></path><path class="cls-5" d="M302.96,368.24c.21-.6,.82-2.33,1.6-4.56,.8-2.35,1.81-4.97,2.19-6.56,.67-2.8,1.64-5.79,3.83-8.4,1.08-1.3,2.44-2.52,4.05-3.48,1.61-.97,3.48-1.63,5.27-1.85,3.17-.4,5.96,.38,8.36,1.3,2.41,.95,4.53,2.15,6.49,3.34,3.91,2.39,7.19,4.8,9.94,6.49-1.32-.59-3.37-1.23-5.35-1.74-1.98-.5-3.85-.9-4.73-1.33-3.54-1.66-6.91-3.24-10.18-3.83-1.63-.3-3.22-.31-4.63,.06-1.42,.36-2.63,1.13-3.6,2.12-1.95,2.01-3.13,4.56-4.49,6.78-1.33,2.27-2.73,4.36-4.27,6.21-.69,.9-1.84,2.03-2.74,3.09-.91,1.05-1.55,2.03-1.73,2.36Z" style=""></path><path class="cls-5" d="M331.41,408.27c.18,.16,2.33,1.37,4.23,3.58,.96,1.08,1.87,2.37,2.57,3.63,.38,.62,.65,1.26,.95,1.82,.27,.57,.49,1.11,.72,1.55,.7,1.57,1.32,3.34,1.49,5.23,.18,1.88,.06,3.88-.55,5.78-.6,1.9-1.55,3.71-2.75,5.3-1.23,1.57-2.63,2.97-4.17,4.09-2.7,1.97-5.88,2.97-8.87,3.3-3.01,.32-5.88,.06-8.47-.51-.65-.11-1.29-.27-1.9-.45-.61-.17-1.22-.34-1.82-.5-1.17-.42-2.3-.76-3.35-1.19-1.05-.44-2.07-.81-3.01-1.23-.94-.43-1.83-.82-2.68-1.17,.79,.22,1.78,.44,2.86,.64,1.07,.2,2.26,.27,3.38,.38,1.13,.07,2.24,.06,3.17,.11,.94,0,1.73,0,2.26,.09,1.07,.17,2.13,.24,3.17,.34,1.04,.02,2.07,.11,3.07,.02,2.02-.06,3.94-.42,5.7-1.05,3.57-1.19,6.26-3.77,7.6-6.68,1.31-2.97,1.43-5.98,1.31-8.7-.18-2.73-.61-5.28-1.33-7.7-.33-1.15-.86-2.76-1.58-4.13-.74-1.34-1.71-2.27-2.03-2.56Z" style=""></path><path class="cls-5" d="M283.17,518.19c.12-.62,.44-2.2,.86-4.27,.43-2.19,.94-4.64,.95-6.08,.02-2.55,.15-5.13,.68-7.56,.59-2.43,1.16-4.85,1.36-7.21,.34-4.08,.46-8.18-.1-12.04-.49-3.88-1.8-7.3-3.06-9.91,.37,.53,.86,1.17,1.43,1.84,.58,.67,1.23,1.38,1.77,2.14,.57,.74,1.15,1.47,1.63,2.13,.41,.68,.73,1.29,.88,1.73,1.17,3.56,1.61,7.1,1.65,10.38,.06,3.28-.12,6.34-.37,9.21-.04,.73-.1,1.43-.18,2.13-.08,.69-.14,1.39-.23,2.06-.23,1.32-.45,2.63-.83,3.81-.7,2.41-1.73,4.5-2.93,6.34-.53,.89-1.49,2-2.2,3.03-.73,1.02-1.2,1.96-1.32,2.28Z" style=""></path></g><g><path d="M105.63,467.76c-.34-.53,2.19-4.74,2.82-6.56,1.14-3.2,2.87-6.65,4.66-9.72,1.55-2.69,3.43-5.2,5.48-7.19,2.04-2,4.23-3.44,6.11-4.29-.23,1.18-.81,2.46-1.37,3.6-.59,1.1-1.17,2.07-1.68,2.39-1.99,1.37-3.59,3.02-4.92,4.71-1.33,1.69-2.38,3.42-3.29,5.09-1.82,3.34-3.12,6.42-4.81,8.82-.75,1.18-2.62,2.85-3.01,3.16Z"></path><path d="M83.84,393.89c.22,.27-.25,1.78-.91,3.48-.65,1.71-1.47,3.6-1.81,4.71-1.2,3.92-3.14,8.13-4.78,11.95-1.43,3.34-2.96,6.56-4.29,9.48-1.31,2.93-2.48,5.54-2.89,7.76-.38-.45-.85-1.14-1.07-1.9-.24-.77-.41-1.64-.43-2.44-.02-.41-.03-.81-.02-1.2,.03-.37,.07-.73,.12-1.05,.11-.65,.25-1.21,.46-1.53,1.56-2.7,2.99-5.1,4.21-7.44,1.23-2.33,2.3-4.53,3.25-6.64,1.91-4.19,3.38-7.92,5.1-10.96,.77-1.46,2.65-3.76,3.04-4.22Z"></path><path d="M55.8,371.67c-.3,.17-1.46-.51-2.77-1.35-1.29-.87-2.72-1.91-3.58-2.43-3.05-1.79-6.12-4.53-8.47-7.47-2.08-2.54-3.65-5.52-4.46-8.4-.81-2.89-.92-5.59-.67-7.69,.96,.8,1.87,1.97,2.59,3.04,.74,1.07,1.26,2.06,1.32,2.65,.2,2.42,.96,4.64,1.98,6.55,1.02,1.92,2.32,3.53,3.66,4.91,2.68,2.78,5.46,4.69,7.59,6.73,1.03,.94,2.53,3.01,2.8,3.47Z"></path><path d="M296.7,371.21c.04,.18-.26,.6-.75,1.18-.5,.57-1.18,1.32-1.99,2.02-.8,.73-1.66,1.48-2.51,2.11-.82,.66-1.57,1.25-2.12,1.67-.48,.38-.97,.76-1.47,1.15-.52,.36-1.06,.7-1.6,1.05-1.08,.73-2.27,1.29-3.46,1.9-2.42,1.1-4.96,2.03-7.46,2.61-4.35,1.09-8.87,1.28-12.86,.72-4-.54-7.45-1.8-9.99-3.13,1.48-.46,3.38-.59,5.12-.76,.43-.03,.86-.04,1.26-.05,.4-.02,.79-.04,1.14-.04,.71,0,1.3,.06,1.7,.19,3.24,.91,6.45,1.14,9.45,.93,3.01-.18,5.75-.95,8.24-1.82,4.97-1.87,8.77-4.48,12.12-6.67,.75-.58,1.93-1.19,2.95-1.79,1.01-.61,1.92-1.11,2.23-1.27Z"></path><path d="M295.47,436.38c.37-.05,1.41,1.13,2.63,2.45,.64,.63,1.32,1.31,1.94,1.92,.67,.56,1.29,1.05,1.76,1.37,.81,.58,1.74,1.05,2.59,1.63,.89,.52,1.82,1.02,2.73,1.52,.96,.42,1.86,.94,2.84,1.27,.48,.19,.96,.37,1.43,.55,.48,.15,.97,.29,1.44,.43,6.64,1.99,13.58,1.84,18.45,1.92-.44,.5-1.02,1-1.67,1.47-.66,.46-1.4,.83-2.14,1.17-1.48,.62-2.96,.95-3.75,.8-3.15-.5-5.99-1.1-8.62-1.8-2.62-.74-4.98-1.63-7.17-2.58-4.3-2.03-7.77-4.56-10.02-7.42-1.18-1.29-2.26-4.17-2.46-4.71Z"></path><path d="M334.45,408.25c.31-.13,1.45,.71,2.59,1.88,1.15,1.16,2.26,2.66,2.91,3.49,2.43,2.86,3.99,7.11,4.24,11.14,.24,3.5-.69,7.3-2.98,9.88-1.12,1.29-2.5,2.22-3.87,2.73-1.37,.52-2.69,.64-3.81,.57,.84-.99,1.87-2.04,2.59-2.99,.74-.94,1.24-1.75,1.7-2.03,1.85-1.17,2.98-3.34,3.4-5.45,.44-2.13,.25-4.26-.2-6.14-.96-3.81-2.88-6.63-4.42-9.12-.39-.58-.83-1.46-1.25-2.24-.4-.79-.8-1.47-.91-1.72Z"></path><path d="M282.01,471.05c.32,.03,.76,1.05,1.13,2.26,.39,1.22,.7,2.63,.98,3.4,1.01,2.74,1.34,6.1,1.3,9.1,0,5.3-1.75,10.28-3.75,13.12-1.13-1.92-1.61-4.85-1.14-5.74,1.95-3.64,2.38-7.27,2.22-10.38-.15-3.14-.82-5.76-.99-8.13-.13-1.11,.17-3.2,.25-3.64Z"></path><path d="M27.84,337.41c.32-.12,1.08,.59,1.97,1.38,.88,.8,1.89,1.67,2.56,2.02,1.17,.63,2.36,1.31,3.56,1.93,1.22,.59,2.42,1.17,3.64,1.52,4.16,1.39,8.6,1.83,11.82,2.69-1.23,1.76-4.14,3-5.18,2.6-2.05-.71-3.89-1.33-5.59-1.95-1.69-.65-3.23-1.3-4.66-1.99-2.82-1.42-5.17-3.02-6.63-4.94-.75-.87-1.4-2.86-1.49-3.26Z"></path></g><g><g class="cls-8"><path class="cls-2" d="M57.57,337.18c-.35,0-.7-.74-1.27-1.48-.56-.75-1.28-1.52-1.82-1.83-1.84-1.08-3.81-2.33-5.77-3.34-3.38-1.76-6.65-3.81-8.58-5.87,1.72-1.05,4.3-1.15,4.91-.52,2.46,2.48,4.87,3.96,7.06,5.33,2.15,1.37,4.17,2.71,5.12,4.63,.12,.22,.24,.49,.31,.8,.07,.31,.11,.65,.13,.95,.02,.63-.07,1.16-.1,1.32Z"></path></g><g class="cls-8"><path class="cls-2" d="M55.37,426.01c-.3,.2-1.73-.41-3.42-1.03-1.68-.63-3.62-1.29-4.74-1.5-3.96-.78-8.37-1.89-12.4-2.52-3.51-.55-6.98-1.03-10.02-1.06-1.52,0-2.92,.11-4.08,.45-1.13,.36-1.98,.98-2.47,1.95-.12-.26-.26-.6-.3-.97-.01-.36-.02-.8,.13-1.2,.23-.87,.86-1.65,1.56-2.26,1.43-1.19,3.06-1.64,3.87-1.59,3.31,.23,6.07,.84,8.69,1.36,2.61,.54,5.03,1.05,7.3,1.56,4.53,1.04,8.49,2.04,11.68,3.66,1.56,.69,3.83,2.71,4.21,3.15Z"></path></g><g class="cls-8"><path class="cls-2" d="M287.58,517.6c-.14-.34,.64-1.32,1.34-2.57,.69-1.26,1.35-2.75,1.47-3.66,.6-3.15,.99-6.73,1.07-10.05,.1-5.79,.14-11.58,.86-15.57,1.82,1.56,3.25,4.91,3.01,6.15-.9,4.98-1.08,9.24-1.49,13.07-.21,1.91-.45,3.71-.91,5.37-.43,1.66-1.07,3.18-1.94,4.43-.2,.3-.47,.64-.77,.96-.33,.31-.69,.61-1.03,.88-.71,.52-1.39,.86-1.6,.97Z"></path></g><g class="cls-8"><path class="cls-2" d="M344.37,355.45c-.17-.02-.38-.28-.6-.67-.22-.39-.44-.93-.79-1.45-.16-.26-.32-.54-.48-.81-.18-.26-.39-.5-.57-.73-.19-.23-.37-.45-.54-.64-.2-.17-.38-.32-.53-.44-1.07-.86-2.32-1.59-3.54-2.33-1.28-.66-2.57-1.31-3.89-1.75-4.57-1.63-9.27-2.54-12.67-3.35,.67-.86,1.8-1.65,2.92-2.06,1.12-.44,2.22-.55,2.76-.35,4.3,1.69,7.78,3.02,10.82,4.59,2.98,1.58,5.53,3.59,6.66,6.1,.25,.59,.48,1.46,.51,2.24,.01,.79-.04,1.44-.07,1.65Z"></path></g></g></g><g><g><g><path class="cls-4" d="M219.59,391.44c7.58,9.51,14.23,22.31,22.21,41.29,8.86,21.06,18.83,37.37,29.71,32.71,13.62-5.83,10.88-33.28,2.89-55.14-2.47-20.53-6.36-55.63-46.18-55.94-11.41-.09-14.23,11.57-14.23,11.57"></path><path d="M213.95,365.92c-.05-.28,.07-1.11,.49-2.31,.42-1.2,1.14-2.79,2.4-4.46,1.25-1.65,3.09-3.4,5.57-4.48,.64-.22,1.27-.49,1.95-.67,.68-.12,1.38-.34,2.09-.39,.71-.04,1.46-.14,2.17-.12,.71,.01,1.42,.03,2.15,.04,5.78,.12,11.99,1.29,17.27,3.51,2.66,1.08,5.02,2.5,7.08,3.9,1,.74,1.97,1.42,2.8,2.17,.86,.7,1.6,1.41,2.27,2.06,4.76,4.62,8.3,10.69,10.74,17.16,2.47,6.48,3.92,13.38,4.97,20.25,.27,1.72,.5,3.44,.74,5.15l.17,1.28,.09,.64s.02,.08,.03,.09c.28,.76,.61,1.63,.89,2.45,1.16,3.31,2.18,6.67,3.06,10.06,1.71,6.77,2.9,13.64,3.07,20.53,.07,3.01-.05,6.05-.54,9.11-.52,3.05-1.32,6.16-2.96,9.08-1.55,2.92-4.16,5.61-7.38,7.06-1.6,.75-3.47,1.22-5.34,1.2-1.88,0-3.7-.47-5.27-1.19-3.15-1.47-5.48-3.64-7.46-5.86-1.99-2.23-3.62-4.6-5.12-6.99-2.96-4.78-5.32-9.67-7.45-14.48-1.06-2.41-2.05-4.81-2.99-7.18-.94-2.33-1.87-4.64-2.79-6.9-1.86-4.52-3.72-8.86-5.63-12.99-3.79-8.25-7.78-15.6-12.09-21.66,2.56,2.21,5.42,5.28,8.2,8.85,2.78,3.58,5.46,7.64,7.87,11.7,4.81,8.12,8.53,16.22,10.13,20.52,1.61,4.31,3.32,8.5,5.22,12.5,1.9,3.99,3.98,7.83,6.45,11.24,1.23,1.7,2.57,3.28,4.04,4.63,1.48,1.32,3.1,2.43,4.82,2.95,3.41,1.17,7.28-.61,9.62-3.45,2.41-2.88,3.56-6.74,4.14-10.52,.58-3.82,.57-7.7,.31-11.48-.56-7.59-2.19-14.86-4.29-21.7-.53-1.71-1.09-3.4-1.69-5.05l-.47-1.3c-.14-.27-.14-.66-.18-.87l-.08-.66c-.11-.87-.23-1.74-.34-2.61-.46-3.46-.98-6.83-1.62-10.12-1.27-6.56-3.06-12.79-5.72-18.33-2.64-5.54-6.23-10.33-10.6-13.88-2.16-1.8-4.56-3.23-7.01-4.42-1.21-.63-2.5-1.08-3.74-1.58-.64-.21-1.28-.41-1.92-.61-.63-.22-1.28-.39-1.93-.54-2.44-.67-5.43-1.11-8.56-1.5-1.56-.09-3.24-.33-4.72-.26-.19,0-.38,0-.57,0l-.56,.08-1.12,.15c-.36,.1-.72,.2-1.08,.3l-.54,.15-.51,.22c-2.77,1.08-4.84,3.2-6.18,5.08-1.34,1.91-2.04,3.6-2.33,4.44Z"></path></g><path class="cls-1" d="M268.25,453.69c-1.47-3.24-2.41-6.67-3.82-20.47-.74-7.21-1.11-14.45-2.13-21.62,3.25,7.31,7.84,15.96,11.96,22.82,.95-3.77,1.24-9.01,.73-13.77,4.47,7.18,5.05,25.71,3.82,31.65-1.47,7.09-6.75,9.81-10.57,1.39Z"></path><path class="cls-1" d="M256.08,370.02c4.39,3.2,8.58,10.87,9.51,20.47-2.63,1.34-3.91,1.38-4.73,1.17-7.1-4.58-2.38-8.08-10.94-17.65,1.38-1.08,4.38-1.68,6.16-3.99Z"></path></g><g><path class="cls-4" d="M145.12,441.03c13.64-36.84-9.04-78.79,30.64-91.82,29.14-9.57,59.41,5.74,75.67,54.17,5.9,17.56,8.33,50.67,4.04,68.35,0,0-3.05,8.2-22.25,13.87-24.98,7.37-32.35-3.51-50.08-7.2-41.44-8.62-42.77-15.03-42.77-15.03h0c.82-7.14,2.46-16.13,4.76-22.34Z"></path><path d="M145.15,441.04c-.17,.85-1.56,5.15-2.74,11.71-.3,1.64-.59,3.41-.87,5.3-.13,.95-.26,1.92-.39,2.92-.06,.5-.12,1-.18,1.52l-.07,.64c-.07,.2,.12,.36,.21,.52,.21,.28,.62,.65,1.01,.97,.41,.31,.84,.61,1.29,.9,.46,.27,.92,.56,1.4,.82,.49,.25,.98,.5,1.48,.75,2.02,.95,4.16,1.83,6.38,2.61,4.43,1.58,9.12,2.94,13.82,4.13,2.34,.62,4.7,1.17,7.03,1.7,2.32,.56,4.63,1.03,6.89,1.51,2.24,.47,4.48,.94,6.62,1.5,2.13,.59,4.14,1.25,6.03,1.95,3.78,1.39,7.07,2.8,9.86,3.76,4.91,1.71,10.06,2.87,15.37,2.64,5.29-.15,10.61-1.35,15.83-3.01l1.95-.64,1.92-.73c1.3-.46,2.53-1.06,3.79-1.59,2.46-1.18,4.86-2.52,7.02-4.13,1.09-.8,2.1-1.68,3-2.63,.46-.47,.88-.97,1.26-1.47,.19-.25,.37-.51,.52-.77,.09-.13,.16-.26,.22-.38,.08-.13,.13-.26,.13-.26l.38-1.86c.13-.68,.3-1.35,.38-2.05,.18-1.39,.45-2.75,.55-4.16,.6-5.58,.74-11.25,.63-16.9-.11-5.65-.5-11.3-1.13-16.88-.63-5.58-1.49-11.1-2.69-16.47l-.45-2.01-.52-1.98c-.32-1.33-.73-2.62-1.13-3.9-.37-1.29-.88-2.57-1.32-3.85-.44-1.29-.93-2.54-1.43-3.8-3.42-8.78-7.71-17.2-13.12-24.69-5.41-7.46-12.03-14.03-19.84-18.37-3.89-2.16-8.03-3.84-12.31-4.78-4.27-.95-8.65-1.34-12.96-1.03-4.31,.28-8.56,1.13-12.63,2.43-4.05,1.33-7.88,3.1-11.18,5.49-.85,.56-1.57,1.28-2.36,1.91-.75,.67-1.42,1.43-2.13,2.13-.61,.79-1.28,1.54-1.84,2.36l-.82,1.25-.41,.62-.35,.66c-1.93,3.48-3.13,7.32-3.9,11.21-1.5,7.81-1.53,15.73-1.73,23.32-.16,7.6-.34,14.97-1.25,21.94-.83,6.97-2.45,13.52-4.72,19.38,1.54-5.43,2.82-12.23,3.22-19.61,.49-7.38,.23-15.3,.06-23.04-.18-7.74-.18-15.38,.9-22.07,.52-3.34,1.39-6.41,2.41-9.06,.27-.66,.54-1.29,.8-1.91,.3-.6,.6-1.17,.89-1.72,.54-1.12,1.24-2.03,1.79-2.89,2.37-3.38,5.45-6.19,8.83-8.33,3.38-2.15,7.02-3.67,10.68-4.87,7.33-2.31,15.06-3.14,22.47-2.17,7.42,.93,14.42,3.68,20.44,7.57,3.02,1.94,5.82,4.16,8.41,6.55,2.58,2.4,4.91,5,7.09,7.68,2.18,2.69,4.1,5.52,5.93,8.37,1.76,2.9,3.45,5.81,4.92,8.8,2.99,5.95,5.45,12.04,7.51,18.14,2.06,6.15,3.31,12.39,4.28,18.54,.95,6.16,1.56,12.27,1.9,18.29,.33,6.02,.39,11.97,.08,17.81-.16,2.92-.4,5.82-.82,8.68l-.31,2.14c-.12,.71-.28,1.42-.42,2.12l-.22,1.06-.11,.56c-.05,.24-.2,.5-.27,.66-.37,.71-.8,1.31-1.26,1.91-1.86,2.33-4.16,4.11-6.53,5.65-2.4,1.51-4.89,2.81-7.45,3.85-1.26,.57-2.57,.99-3.84,1.49-1.3,.42-2.59,.86-3.89,1.24-1.31,.35-2.61,.69-3.91,1.04-1.31,.29-2.64,.52-3.95,.79-1.32,.23-2.66,.33-3.98,.5-1.33,.11-2.66,.12-3.99,.17-2.65-.09-5.29-.28-7.84-.87-5.14-1.04-9.81-3.1-14.33-4.91-1.13-.46-2.26-.88-3.39-1.32-1.13-.38-2.25-.82-3.39-1.16-2.27-.73-4.51-1.25-6.84-1.77-4.64-1-9.19-2.06-13.64-3.23-4.22-1.1-9.19-2.53-14.27-4.38-2.53-.93-5.1-1.97-7.56-3.2-.61-.31-1.22-.66-1.82-.98-.6-.35-1.18-.72-1.75-1.11l-.84-.62c-.27-.22-.53-.47-.79-.7-.23-.25-.55-.55-.75-.92-.12-.17-.21-.36-.27-.55,.01-.2,.02-.41,.05-.61,.38-2.71,.8-5.12,1.27-7.46,.46-2.32,.95-4.47,1.45-6.37,.98-3.81,2-6.63,2.56-8Z"></path></g><g><g><path class="cls-3" d="M155.47,468.74c16.71-1.5,33.24,7.01,49.9,11.99,12.93,3.87,35.86,2.73,50.9-12.99,2.44,1.26,3.75,4.47,2.84,7.86-1.48,5.55-12.77,8.92-22.35,14.32-9.72,5.47-20.17,6.69-31.92,2.61-7.82-2.71-17.88-6.82-32.82-5.32-11.83,1.18-15.7-1.6-18.93-6.7-2.14-3.38-.53-11.51,2.37-11.77"></path><path d="M155.47,468.77c-.11,.09-.37,.11-.64,.33-.14,.1-.31,.21-.46,.4-.16,.16-.32,.37-.46,.62-.62,.96-1.1,2.5-1.32,4.35-.09,.93-.11,1.95,.01,3,.13,1.06,.41,2.12,1.06,3.05,1.29,2,3.06,3.93,5.45,4.98,2.37,1.08,5.16,1.36,7.9,1.34,2.75,0,5.47-.4,8.17-.57,2.68-.17,5.24-.12,7.56,0,2.32,.14,4.4,.4,6.12,.67,3.04,.46,6.1,1.19,9.13,2.1,3.03,.87,6.06,2.01,9.04,2.89,5.98,1.76,12.44,2.18,18.58,.76,3.06-.72,6.04-1.82,8.84-3.29,1.36-.72,2.84-1.58,4.31-2.35,1.47-.78,2.95-1.5,4.42-2.22,2.94-1.43,5.86-2.8,8.56-4.34,1.33-.78,2.6-1.6,3.67-2.52,1.08-.93,1.84-1.92,2.06-2.96,.26-1.07,.23-2.17-.05-3.16-.14-.49-.37-.95-.64-1.34-.07-.1-.15-.19-.22-.28-.03-.05-.08-.09-.12-.13-.03-.03,0,0,0,0h-.01s-.02,.01,0,0l-1.48,1.42c-1.04,.96-2.19,1.79-3.28,2.69-4.52,3.4-9.63,5.88-14.89,7.52-5.26,1.64-10.67,2.46-15.99,2.58-5.32,.13-10.56-.51-15.52-1.94-9.6-2.97-18.24-6.72-26.52-9.33-4.13-1.32-8.15-2.38-12.04-3.03-3.89-.66-7.65-.9-11.19-.73,3.12-.63,7.11-.94,11.41-.62,4.3,.29,8.88,1.15,13.23,2.26,4.36,1.1,8.51,2.42,12.08,3.6,3.58,1.18,6.58,2.22,8.64,2.97,1.03,.38,2.06,.76,3.1,1.1,1.03,.36,2.06,.72,3.06,.99,2.01,.61,4.08,.99,6.15,1.3,4.15,.58,8.33,.63,12.41,.24,8.14-.8,15.93-3.3,22.39-7.54,.79-.55,1.64-1.01,2.38-1.63,.75-.59,1.5-1.18,2.25-1.77,.74-.61,1.37-1.27,2.1-1.94l.74-.7,.73-.62c.13-.02,.28,.14,.42,.2,.14,.08,.28,.17,.42,.26,.28,.17,.54,.36,.78,.59,.54,.48,.82,.85,1.12,1.31,.3,.44,.51,.92,.7,1.41,.35,.98,.5,2.02,.48,3.03-.04,1.03-.21,2-.65,2.98-.18,.49-.51,.89-.77,1.33-.32,.38-.64,.77-.98,1.12-1.4,1.37-2.98,2.39-4.58,3.31-1.6,.91-3.21,1.74-4.82,2.52-3.22,1.57-6.39,3.04-9.41,4.65-1.49,.8-3,1.69-4.56,2.43-1.55,.77-3.16,1.38-4.77,1.94-3.24,1.05-6.58,1.66-9.88,1.81-3.31,.13-6.57-.2-9.68-.86-3.13-.64-6.1-1.72-8.92-2.69-5.67-1.99-11.25-3.46-16.77-4.01-2.76-.3-5.49-.36-8.16-.28-1.34,.02-2.67,.15-3.98,.23-1.35,.11-2.7,.2-4.04,.22-.64,0-1.31,0-2-.02-.7-.06-1.41-.07-2.15-.18-1.47-.16-3.03-.51-4.54-1.12-1.51-.61-2.94-1.55-4.09-2.72-1.15-1.19-2.04-2.49-2.79-3.87-.73-1.49-.79-3.03-.73-4.41,.07-1.39,.33-2.65,.69-3.74,.36-1.08,.83-2,1.38-2.62,.54-.64,1.18-.88,1.59-.92Z"></path></g><g><path class="cls-3" d="M166.91,469.05c17.5,4.77,39.34-13.26,45.48,1.75-17.59-6.1-16.14,11.27-30.57,11.66"></path><path d="M181.83,482.44c.16-.16,1.05-.23,2.3-.53,1.25-.3,2.88-.81,4.4-1.79,3.1-1.87,5.67-5.27,7.35-7,.92-.99,1.95-1.98,3.19-2.81,1.23-.82,2.67-1.46,4.2-1.77,1.52-.32,3.1-.37,4.61-.19,.19,.01,.38,.04,.57,.07l.27,.04h.05c.07,0,.12,0,.17,.01,.1,0,.18,.02,.24,.02,.01,0,.04,.01,.04,0l-.06-.08c-.04-.05-.07-.1-.1-.14-.07-.08-.13-.13-.18-.17-.02-.01,0,.01-.05-.03l-.19-.16c-.12-.12-.25-.21-.39-.29-.28-.17-.53-.38-.84-.49-.3-.14-.58-.29-.91-.37-.31-.1-.62-.21-.96-.25-1.58-.32-3.33-.27-5.07-.07-1.75,.21-3.51,.57-5.26,.96-3.5,.79-6.96,1.71-10.34,2.37-3.37,.67-6.68,1.1-9.77,1.07-3.09-.03-5.94-.5-8.3-1.37,2.35-.02,5.53-.27,8.45-.79,2.93-.53,5.63-1.23,7.11-1.4,6.18-.75,11.93-2.46,17.56-3.09,2.8-.26,5.71-.28,8.25,.95,.64,.28,1.21,.69,1.75,1.1l.39,.35c.16,.15,.33,.29,.47,.45l.77,.99c.28,.33,.45,.67,.64,1.01,.19,.35,.39,.66,.56,1.03l.53,1.09,.13,.27,.07,.14s-.02,.03-.03,.04l-.14,.16c-.78-.24-1.55-.49-2.36-.7-.8-.22-1.62-.47-2.38-.58l-.46-.08c-.13-.02-.26-.05-.39-.06l-.77-.07c-.51-.07-1.02-.02-1.52-.04-.99,.06-1.96,.19-2.87,.48-.9,.29-1.75,.69-2.54,1.17-3.13,2.02-5.29,5.16-8.11,7.38-1.34,1.15-3.54,2.4-5.63,2.84-2.08,.5-3.89,.33-4.46,.3Z"></path></g><g><path class="cls-3" d="M152.12,460.74c11.05,4.73,23.16,3.1,27.3-1.04-.3,6.54-7.39,13.62-20.93,13.62"></path><path d="M158.49,473.3c.23-.28,2.37-.38,4.8-.79,2.43-.41,5.07-1.31,6.39-2.06,2.22-1.23,4.44-2.8,5.97-4.88,.41-.5,.72-1.06,1.06-1.6,.08-.14,.14-.28,.2-.43l.08-.18v-.03s.02-.08,.03-.11c0-.06,0-.11-.02-.14-.01-.01-.02-.03-.03-.02l-.07,.08-.05,.05s.01,.03-.09,.08c-.63,.26-1.27,.54-1.91,.72l-.96,.3-.97,.22c-.64,.16-1.29,.25-1.93,.35-2.56,.36-5.07,.34-7.42,.07-4.71-.5-8.75-2.08-11.63-3.77,1.65-.05,3.81,.18,5.83,.27,1,.09,1.97,.09,2.79,.19,.83,.05,1.53,.12,2,.24,2.89,.67,5.77,.83,8.48,.53,1.36-.13,2.65-.43,3.88-.82,.3-.11,.6-.22,.9-.33l.11-.04,.09-.03,.08-.04,.32-.18,.64-.37c.79-.39,1.79-1.25,2.65-1.91l.33,.04h.12s0,.09,0,.13l-.05,.49-.1,.97-.15,.91c-.06,.59-.31,1.23-.49,1.85-.15,.61-.56,1.31-.74,1.7-.96,1.81-2.29,3.29-3.73,4.48-2.89,2.39-6.19,3.63-9.21,4.18-.58,.1-1.28,.16-2,.22-.72,.05-1.48,0-2.18,0-1.4-.07-2.59-.28-2.98-.32Z"></path></g><path d="M206.26,481.33c.28-.11,1.82,.73,3.65,1.58,1.81,.9,3.92,1.77,5.14,2.12,1.06,.35,2.2,.59,3.32,.91,1.15,.22,2.29,.54,3.47,.69,2.33,.42,4.71,.54,6.96,.48,7.9-.26,15.35-3,20.44-4.67-.82,1-2.18,2.26-3.63,3.19-.72,.46-1.44,.88-2.08,1.21-.64,.33-1.23,.51-1.65,.6-3.34,.73-6.49,1.2-9.46,1.41-1.48,.15-2.93,.12-4.32,.16-1.39-.07-2.75-.09-4.05-.27-1.31-.1-2.55-.39-3.76-.58-1.19-.31-2.36-.54-3.44-.92-2.2-.66-4.15-1.56-5.9-2.5-.84-.44-1.9-1.18-2.81-1.86-.9-.7-1.64-1.33-1.88-1.55Z"></path></g><path d="M219.15,431.66c.05,.19-.23,.94-1.04,1.78-.79,.85-2.06,1.72-3.52,2.38-2.93,1.36-6.48,2.06-8.42,2.53-6.91,1.65-15.01,1.83-22.22,1.82-.77,.01-1.62-.03-2.46-.07-.84-.04-1.66-.17-2.49-.27-1.64-.29-3.25-.65-4.79-1.21-3.08-1.08-5.97-2.72-8.2-4.97-2.26-2.22-3.62-5.16-3.96-7.9-.34-2.77,.31-5.2,.98-7.19,.41,2.05,.75,4.73,1.72,6.84,.88,2.14,2.29,3.6,2.86,4.53,1.19,1.86,2.98,3.39,4.93,4.53,1.96,1.14,4.1,1.9,6.22,2.38,2.13,.5,4.22,.62,6.34,.65,2.1,.05,4.14,.05,6.1,0,7.86-.21,14.67-1,20.33-2.33,1.33-.36,3.17-.78,4.68-1.47,.77-.32,1.42-.74,1.93-1.12,.51-.38,.83-.76,1.02-.93Z"></path><g><path class="cls-3" d="M194.46,447.19c-4.84-21.12-10.9-28.21-26.32-33.03-11.5-3.6-20.77-5.15-20.69,2.73,.11,11.94,13.95,8.12,20.43,8.67,14.46,1.23,20.27,15.8,24.19,24.73"></path><path d="M192.04,450.31c-.22-.19-.86-1.44-1.77-3.3-.91-1.85-2.1-4.3-3.58-6.81-1.47-2.5-3.26-5.04-5.21-7.06-.95-1.03-1.98-1.87-2.92-2.62-.99-.67-1.87-1.3-2.69-1.66-2.78-1.46-6.02-2.19-9.27-2.25-3.33,.06-6.89,.59-10.62,.29-1.86-.18-3.82-.51-5.64-1.55-1.83-1.01-3.29-2.88-3.85-4.85-.3-.98-.47-1.97-.51-2.93-.08-.94-.05-2,.22-3.05,.26-1.05,.84-2.14,1.7-2.94,.86-.81,1.9-1.26,2.87-1.54,1.73-.47,3.36-.45,4.93-.35,1.57,.12,3.08,.38,4.56,.68,2.96,.62,5.78,1.45,8.55,2.34,2.79,.9,5.52,1.97,8.1,3.31,2.58,1.32,4.95,3.04,6.96,5.01,1.99,1.98,3.68,4.19,4.9,6.5,1.27,2.29,2.25,4.62,3.01,6.89,1.54,4.55,2.42,8.84,3.1,12.65-1.44-3.22-3.22-8-5.26-12.25-1.97-4.31-4.49-7.8-5.84-9.57-1.33-1.83-2.97-3.36-4.71-4.73-1.77-1.34-3.71-2.43-5.7-3.38-1-.46-2.02-.88-3.03-1.29-1.03-.37-2.04-.76-3.07-1.1-2.06-.69-4.1-1.31-6.13-1.82-2.03-.51-4.05-.92-6.03-1.06-1.96-.13-4-.01-5.43,1-1.44,.99-1.77,2.92-1.61,4.73,.1,1.83,.67,3.58,1.83,4.8,1.15,1.24,2.79,1.9,4.47,2.22,1.69,.33,3.43,.37,5.14,.34,1.72-.04,3.41-.16,5.11-.24,.85-.04,1.7-.07,2.57-.04,.88,0,1.71,.19,2.55,.29,3.35,.52,6.45,1.87,9,3.73,2.57,1.85,4.61,4.14,6.28,6.5,1.63,2.23,3.33,5.57,4.56,8.58,1.24,3.01,2.13,5.65,2.44,6.52Z"></path></g><g><path class="cls-3" d="M186.56,454.85c-5.26-10.53-10.86-1.87-14.28-7.57-6.21-10.33-14.83-21.16-14.76-13.27,.11,11.94,7.63,22.77,13,23.23,5.59,.48,10.69-5.51,15.02,1.09"></path><path d="M185.53,458.35c-.11-.04-.31-.22-.6-.53-.26-.33-.69-.69-1.18-1.11-1.01-.85-2.69-1.3-4.5-.86-1.81,.38-3.7,1.27-5.61,1.75-.96,.23-1.91,.39-2.81,.36-.9,0-1.76-.23-2.37-.48-.59-.18-1.06-.52-1.61-.79-.47-.34-.99-.66-1.44-1.05-.91-.76-1.75-1.61-2.51-2.53-1.53-1.84-2.8-3.92-3.84-6.12-1.02-2.21-1.79-4.54-2.32-6.9-.28-1.18-.44-2.38-.59-3.57-.06-.6-.08-1.19-.12-1.79-.04-.59-.08-1.18,.02-1.95,0-.27,.18-.79,.3-1.24,.09-.21,.2-.42,.32-.61,.12-.19,.29-.34,.44-.52,.65-.65,1.65-.77,2.54-.54,.48,.11,.86,.29,1.24,.5,.25,.16,.53,.32,.74,.49,.47,.34,.87,.69,1.26,1.05,1.53,1.44,2.78,2.96,3.97,4.5,2.35,3.09,4.36,6.24,6.15,9.33,.21,.36,.46,.84,.63,1.06l.27,.41c.09,.13,.21,.2,.31,.31,.19,.24,.44,.3,.67,.46,.28,.07,.54,.18,.89,.19,1.32,.15,3.15-.23,4.91,.13,1.8,.32,3.32,1.45,4.21,2.66,.5,.59,.84,1.24,1.22,1.83,.29,.63,.58,1.24,.86,1.84-.43-.44-.89-.92-1.35-1.43-.24-.25-.53-.48-.79-.73-.27-.24-.52-.51-.84-.7-.31-.2-.59-.44-.9-.62-.33-.15-.64-.32-.96-.45-.67-.2-1.31-.33-1.99-.29-1.35,.02-2.71,.51-4.39,.53-.42,0-.82,0-1.26-.12-.21-.05-.41-.1-.61-.14-.19-.09-.38-.18-.56-.26-.18-.09-.35-.18-.52-.27-.15-.11-.28-.22-.4-.33-.25-.22-.49-.43-.65-.63-.27-.41-.58-.86-.79-1.24l-.53-1.03c-.37-.68-.73-1.35-1.1-2.02-.74-1.33-1.51-2.61-2.3-3.85-1.58-2.48-3.24-4.82-5.09-6.82-.46-.5-.94-.96-1.44-1.37-.25-.21-.5-.39-.76-.55-.21-.12-.39-.22-.59-.26-.42-.15-.81,.21-.88,.61-.11,.36-.16,1.07-.12,1.69,.02,2.57,.47,5.04,1.12,7.36,1.33,4.61,3.55,8.7,6.4,11.67,1.4,1.47,3.08,2.67,4.7,2.94,.84,.12,1.75,.07,2.64-.12,.89-.16,1.78-.43,2.67-.69,.84-.26,1.88-.57,3.02-.74,1.14-.18,2.44-.18,3.53,.27,1.08,.46,1.86,1.2,2.35,1.86,.51,.64,.76,1.22,.93,1.46Z"></path></g><g><path class="cls-3" d="M201.96,436.3c-.4,3.63-26.82,13.59-39.33,3.72-3.34-2.63-6.81-6.63-6.81-10.28s4.48-10.03,6.89-6.52c11.59,16.87,21,13.66,39.25,13.08Z"></path><path d="M201.96,436.32c-.44,.26-4.7,.56-9.64,.93-2.47,.16-5.13,.29-7.58,.24-2.44-.11-4.68-.31-6.26-.71-2.79-.57-5.61-1.78-8.11-3.53-2.5-1.77-4.62-4.01-6.6-6.35l-1.39-1.83-.69-.92c-.23-.31-.31-.4-.43-.48-.11-.07-.15-.07-.23-.07-.08,0-.24,.04-.43,.15-.39,.2-.84,.62-1.23,1.09-.79,.96-1.42,2.18-1.77,3.35-.17,.59-.28,1.16-.24,1.66,0,.53,.16,1.1,.34,1.65,.71,1.96,2.21,3.83,3.86,5.44,1.69,1.65,3.48,2.96,5.51,3.86,4.11,1.77,8.75,2.13,13.08,1.93,4.36-.22,8.52-1.01,12.27-2.08,1.87-.54,3.65-1.15,5.27-1.86,.81-.35,1.59-.73,2.28-1.16,.68-.4,1.37-.96,1.53-1.39,.03,.19-.05,.56-.29,.88-.2,.33-.48,.67-.8,.98-.62,.64-1.38,1.23-2.2,1.79-1.64,1.12-3.54,2.12-5.45,2.93-3.82,1.64-7.71,2.49-9.77,2.62-4.16,.28-8.24,.14-12.09-.76-1.92-.45-3.77-1.09-5.49-1.97-1.71-.87-3.27-2.03-4.59-3.27-1.34-1.25-2.56-2.59-3.57-4.08-1.01-1.47-1.82-3.14-2.02-4.97-.11-.92,.05-1.87,.3-2.69,.25-.84,.6-1.63,1.01-2.38,.42-.74,.89-1.45,1.48-2.08,.58-.63,1.26-1.23,2.19-1.54,.46-.15,1.03-.19,1.54-.02,.52,.16,.94,.5,1.25,.85,.48,.63,.95,1.25,1.41,1.87,.87,1.23,1.86,2.32,2.8,3.41,1.98,2.09,4.07,3.93,6.36,5.25,4.62,2.63,9.72,3.04,14.43,3.05,2.25,.01,5.34,.03,8.08,.04,2.74,.03,5.1,.15,5.87,.19Z"></path></g><g><g><path class="cls-4" d="M169.21,402.43c-4.77,11.19-6.71,25.3-9.33,45.72-1.04,8.13-.81,20.9-1.76,29.68-1.06,9.74-5.16,14.06-7.39,16.19-1.76,1.69-5.16,5.81-15.49,8.51,2.44-8.77,2.32-13.39,2.79-18.61,0-.11-.14-.13-.17-.03-2.85,9.02-9.42,12.14-13.49,13.27,.54-4.36,2.05-16.15,1.39-23.36-4.25-10.71-5.74-25.18-5.8-34.23-.12-18.47-5.73-48.45,12.85-64.93,15.9-14.11,34.1-12.03,34.1-12.03"></path><path d="M166.91,362.65c-.65,.17-4,.09-8.84,.91-4.81,.84-11.12,2.66-17.02,6.28-1.5,.85-2.91,1.9-4.34,2.92-.71,.52-1.36,1.12-2.05,1.68-.69,.56-1.36,1.13-1.97,1.76-2.52,2.44-4.63,5.25-6.2,8.18-3.19,5.86-4.41,11.92-4.95,16.21-.92,7.44-.67,15.26-.16,23.26,.26,4.01,.58,8.06,.79,12.21,.05,1.04,.09,2.08,.12,3.13,.03,1.04,.05,2.01,.11,3.03,.1,2.01,.25,4.03,.45,6.05,.83,8.04,2.28,16.15,5.04,23.48l.27,.7,.27,.71c.05,.24,.05,.49,.07,.71,.05,.66,.1,1.14,.12,1.7,.06,1.09,.07,2.15,.07,3.21,0,2.12-.1,4.2-.23,6.27-.13,2.06-.31,4.1-.51,6.13l-.08,.76-.04,.38c0,.06,0,.03,0,.05v.18s.08-.03,.1-.04l.13-.09,.64-.43c.35-.22,.66-.5,.99-.75l.73-.64c.17-.15,.35-.35,.52-.52,.18-.17,.35-.36,.52-.59l1.01-1.33,.51-.67,.58-1.26c.77-1.58,1.6-3.91,2.23-4.04l1.02-.93,.25-.22,.13-.02,.27-.04,.53-.08,.13-.02h.06l.13,.02c.16,.02,.39,.04,.41,.05,.05,0,.17,.04,.16,.03,.02,0-.01-.01,.04,0l.17,.06,.06,.03,.12,.05c.08,.04,.15,.07,.25,.13,.09,.06,.18,.1,.27,.17l.3,.25c.1,.06,.2,.24,.31,.35,.1,.12,.21,.25,.29,.48,.08,.22,.19,.39,.26,.64l.09,1.03c-.15,2.02-.31,4.03-.46,6.04-.19,2.04-.45,4.17-.84,6.31l-.16,.87-.09,.42-.04,.21h0s0,.01,0,.02h0s-.13,.06,.29-.12c.58-.23,1.14-.47,1.69-.74,2.22-1.05,4.19-2.31,5.9-3.93l1.42-1.37c.45-.42,.86-.83,1.25-1.26,.77-.85,1.45-1.75,2.05-2.72,1.2-1.93,2.05-4.11,2.61-6.4,.3-1.14,.5-2.31,.66-3.49,.17-1.19,.28-2.45,.39-3.68,.21-2.48,.36-4.98,.49-7.46,.27-4.97,.47-9.89,.91-14.75,.11-1.22,.24-2.43,.41-3.65,.17-1.18,.35-2.35,.52-3.51,.36-2.31,.71-4.6,1.06-6.85,.72-4.5,1.47-8.88,2.32-13.1,1.68-8.43,3.83-16.28,7-22.94-.52,2.06-1.06,4.34-1.53,6.8-.46,2.46-.87,5.08-1.24,7.8-.71,5.45-1.22,11.31-1.7,17.03-.24,2.86-.47,5.68-.7,8.39-.24,2.69-.47,5.27-.68,7.68-.33,4.67-.41,8.81-.64,11.63-.35,4.62-.64,9.23-1.14,13.83-.25,2.27-.56,4.66-1.15,6.98-.59,2.32-1.41,4.59-2.56,6.71-1.14,2.11-2.62,4.07-4.31,5.69-.42,.42-.84,.79-1.2,1.13-.39,.37-.81,.77-1.24,1.15-.86,.77-1.79,1.48-2.74,2.12-1.9,1.29-3.94,2.26-5.98,3.07-.4,.17-1.31,.49-2.03,.73l-1.12,.38-1.1,.31-2.19,.61-1.09,.29-.54,.15-.27,.07-.14-.05c.46-1.65,.93-3.31,1.35-4.94,.2-.81,.41-1.61,.58-2.4l.18-.83,.14-.71c.24-1.13,.41-2.32,.54-3.53,.06-.66,.12-1.31,.18-1.97l.09-1,.03-.25c0-.06,.05-.22-.06-.2-.07,.12-.11,.28-.16,.42-.4,1.14-.98,2.26-1.76,3.26-.38,.51-.83,.97-1.3,1.41l-.4,.35c-.21,.19-.44,.36-.67,.53-.45,.35-.92,.67-1.39,.98-1.1,.67-2.49,1.41-3.77,1.86-.65,.24-1.28,.45-1.94,.66l-.99,.3-.5,.15c-.1,.05-.12,0-.16-.03l-.11-.08c.26-2.11,.51-4.2,.77-6.29,.08-.78,.17-1.56,.25-2.34l.21-2.22c.26-2.96,.46-5.89,.49-8.77,.02-1.44,0-2.87-.11-4.27-.05-.4,0-.59-.11-.79l-.36-.96c-.27-.69-.5-1.38-.73-2.07-.92-2.77-1.64-5.56-2.25-8.33-1.21-5.55-1.93-11.06-2.34-16.48-.21-2.69-.29-5.45-.34-8.03-.08-2.6-.23-5.18-.38-7.75-.64-10.25-1.18-20.26,.24-29.83,.69-4.77,1.91-9.42,3.8-13.71,.96-2.14,2.07-4.19,3.36-6.1,1.31-1.89,2.75-3.67,4.34-5.26,.59-.6,1.25-1.18,1.92-1.8,.71-.56,1.44-1.14,2.19-1.73,.38-.29,.75-.6,1.15-.88,.41-.27,.82-.54,1.24-.81,.84-.53,1.66-1.14,2.57-1.6,3.54-2.06,7.5-3.65,11.32-4.64,7.66-2.05,14.51-1.6,16.65-1.24Z"></path></g><path class="cls-1" d="M145.85,453.69c-3.06,3.39-4.12,8.75-3.79,16.32,.32,7.24-.16,18.21-1.17,25.39,7.57-4.5,5.32-22.02,9.45-28.88,2.11,3.8,.96,17.2,.44,21.96,4.47-7.18,5.74-28.81,5.08-34.84-.41-3.74-6.85-3.43-10.01,.06Z"></path><g><path class="cls-3" d="M165.1,439.39c-.4,3.63,.41,5.12-3.85,5.12s-13.51-8.77-13.51-12.42,5.09-12.42,9.34-12.42,9.15,9.27,8.01,19.71Z"></path><path d="M165.08,439.39c-.1-.15-.13-.85-.12-1.89-.02-.52-.04-1.12-.07-1.76-.04-.65-.12-1.35-.18-2.07-.34-2.9-1.31-6.07-2.19-7.65-.75-1.4-1.65-2.79-2.78-3.88-.28-.28-.59-.49-.88-.72-.32-.16-.62-.4-.93-.46-.62-.22-1.15-.2-1.79,.1-.62,.27-1.26,.72-1.84,1.28-.59,.53-1.12,1.17-1.62,1.82-1,1.31-1.84,2.77-2.48,4.23-.55,1.25-1.01,2.65-1.05,3.7,.05,.35,.16,.87,.5,1.44,.13,.28,.3,.55,.48,.83,.17,.28,.35,.55,.56,.82,.79,1.09,1.7,2.12,2.65,3.07,.94,.96,1.93,1.85,2.94,2.64,1,.81,2.04,1.5,3.06,2.02,1.06,.55,1.89,.73,3.06,.67,.52-.02,1-.1,1.25-.26,.26-.12,.42-.45,.54-.94,.21-.96,.3-2.06,.51-3.02,.17,.93,.45,1.96,.53,3.19,.01,.31-.01,.66-.11,1.03-.12,.37-.36,.77-.7,1.03-.68,.55-1.4,.72-2.05,.86-.34,.08-.65,.11-.97,.16-.32,.04-.74,0-1.1,0-.69-.09-1.34-.24-1.86-.46-1.09-.39-1.88-.88-2.39-1.27-2.04-1.56-3.73-3.28-5.25-5.06-1.48-1.81-2.92-3.57-3.57-5.91-.03-.32-.11-.65-.08-.95,.04-.29,.04-.6,.11-.87,.1-.56,.26-1.08,.43-1.59,.36-1.01,.77-1.97,1.26-2.87,.94-1.82,2.07-3.46,3.39-4.89,.66-.71,1.39-1.36,2.23-1.88,.81-.54,1.86-.88,2.91-.8,.54,.02,1.01,.22,1.48,.4,.41,.24,.86,.46,1.21,.77,.36,.3,.72,.59,1,.93,.31,.32,.6,.66,.85,1.01,2.05,2.81,3.01,5.9,3.47,8.78,.26,1.37,.29,3.28,.16,4.93-.13,1.65-.47,3.04-.55,3.49Z"></path></g><g><path class="cls-3" d="M141.73,452.32c25.35-38.03-.28-47.8-3.44-55.17-4.75-11.08-3.39-19.99,16.85-37.28,1.97-1.68-5.92-9.38-12.12-5.29-30.31,19.98-22.92,37.12-19.69,44.31,3.69,8.23,24.36,28.83,17.65,54.68"></path><path d="M140.96,453.55c-.07-.51,.53-2.95,.78-6.62,.29-3.66,.04-8.55-1.19-13.6-1.22-5.06-3.41-10.2-5.86-14.65-2.44-4.46-5.07-8.27-6.99-10.96-1.69-2.41-3.5-4.74-5.07-7.52-.4-.74-.7-1.43-1.03-2.13-.31-.72-.63-1.43-.91-2.18-.56-1.49-1.07-3.02-1.39-4.62-.69-3.18-.8-6.57-.21-9.87,.39-1.62,.72-3.28,1.39-4.81l.45-1.17c.14-.4,.31-.78,.52-1.14l1.17-2.21c.36-.76,.88-1.41,1.33-2.1l1.4-2.05c1.06-1.26,2.11-2.53,3.19-3.76,1.17-1.15,2.33-2.29,3.49-3.43,1.23-1.06,2.48-2.08,3.72-3.12l.93-.77,.98-.7,1.95-1.4,1.94-1.39,.49-.35,.63-.38c.43-.23,.88-.44,1.35-.6,1.87-.67,3.91-.62,5.68-.13,1.78,.49,3.36,1.35,4.75,2.48,.81,.67,1.56,1.42,2.2,2.44,.45,.75,.77,1.58,.74,2.4,0,.84-.37,1.6-.98,2.16l-3.09,2.74c-.93,.83-1.82,1.71-2.73,2.55-1.79,1.72-3.51,3.49-5.1,5.32-3.2,3.64-5.93,7.64-7.03,11.9-.57,2.12-.62,4.3-.26,6.46,.19,1.08,.42,2.16,.79,3.23,.16,.54,.33,1.07,.55,1.6l.31,.79,.15,.4c.05,.12,.1,.19,.14,.29,.37,.74,1.07,1.59,1.82,2.41,.75,.83,1.57,1.66,2.38,2.51,1.63,1.71,3.25,3.48,4.65,5.43,1.4,1.94,2.6,4.04,3.47,6.24,.88,2.2,1.42,4.49,1.67,6.77,.23,2.28,.13,4.52-.11,6.68-.18,1.07-.3,2.15-.58,3.17-.12,.52-.24,1.03-.36,1.54-.15,.5-.3,1-.45,1.5-2.49,7.92-6.59,14.32-10.43,19.74,1.33-2.85,3.1-6.26,4.63-10.08,1.54-3.8,2.96-7.95,3.67-12.05,.72-4.09,.74-8.08,.02-11.36-.66-3.29-1.96-5.85-2.9-7.59-1.25-2.27-2.85-4.36-4.63-6.34-.88-1-1.81-1.97-2.74-2.99-.92-1.03-1.88-2.06-2.7-3.39-.22-.31-.38-.73-.56-1.08l-.37-.98c-.24-.65-.49-1.29-.67-1.96-.42-1.32-.74-2.68-.93-4.05-.41-2.76-.2-5.6,.58-8.21,1.63-5.23,4.89-9.37,8.21-13.04l1.26-1.38,1.31-1.31c.86-.87,1.73-1.73,2.63-2.54,.9-.81,1.75-1.66,2.66-2.43,.86-.75,1.72-1.5,2.58-2.24,.14-.12,.3-.24,.34-.43,.04-.18,.01-.38-.06-.55-.03-.09-.07-.17-.11-.26-.04-.07-.08-.15-.16-.27-.14-.22-.31-.44-.49-.65-.73-.84-1.65-1.56-2.63-2.11-1.96-1.11-4.3-1.55-6.29-.82-.5,.16-.96,.43-1.42,.71l-1.43,1.01c-.95,.67-1.89,1.34-2.83,2.01-.96,.64-1.81,1.41-2.69,2.12-.87,.72-1.74,1.44-2.61,2.16-3.24,3.08-6.29,6.26-8.52,9.88-2.22,3.6-3.7,7.51-4.08,11.48-.44,3.97,.41,7.86,1.74,11.44,.36,.89,.72,1.78,1.13,2.66,.38,.88,.8,1.64,1.3,2.46,.98,1.61,2.06,3.17,3.12,4.74,4.28,6.22,8.17,12.46,10.74,18.97,.92,2.27,1.84,5.04,2.49,8,.65,2.96,1.02,6.1,1.03,9.04,.03,2.94-.3,5.66-.7,7.81-.42,2.15-.92,3.74-1.14,4.53Z"></path></g><g><path class="cls-3" d="M185.13,400.29c-9.81,.72-15.32-1.44-19.38-9.81-5.03-10.53-8.81-19.55,4.09-31.7,1.88-1.77-9.67-4.38-14.69,1.09-20.17,21.99,9.76,45.15,16.7,48.88,5.36,2.88,13.7,1.44,19.3,1.3,4.37-.11,7.85,.74,11.85,3.01"></path><path d="M202.98,413.08c-.36-.04-1.93-.91-4.41-1.69-1.24-.38-2.71-.69-4.34-.83-1.63-.14-3.4-.06-5.26,.08-3.7,.28-7.71,.69-11.43,.34-1.85-.17-3.63-.56-5.17-1.21-1.55-.66-2.72-1.47-3.75-2.1-3.54-2.3-6.94-5.08-10.1-8.25-3.14-3.18-6.04-6.79-8.25-10.91-2.16-4.11-3.66-8.82-3.41-13.63,.11-2.38,.56-4.76,1.4-6.95,.87-2.18,1.93-4.27,3.29-6.08,.52-.79,1.13-1.5,1.73-2.21,.32-.37,.55-.7,.95-1.09,.37-.38,.77-.73,1.19-1.04,1.69-1.25,3.64-1.93,5.56-2.27,1.93-.33,3.85-.35,5.77-.07,.48,.07,.96,.17,1.45,.29l.37,.1c.16,.04,.39,.13,.59,.2,.42,.14,.78,.34,1.14,.54,.7,.43,1.12,.99,1.28,1.69,.05,.38,.03,.69-.08,.99-.07,.16-.11,.31-.21,.47l-.38,.48-1.92,1.92c-.47,.48-.88,1-1.32,1.49l-.65,.75c-.2,.26-.38,.53-.58,.79-.36,.53-.8,1.03-1.11,1.59-1.4,2.15-2.33,4.5-2.67,6.9-.36,2.4-.08,4.85,.53,7.21,.61,2.37,1.54,4.66,2.51,6.89,.98,2.26,1.91,4.37,3.18,6.18,1.24,1.83,2.84,3.25,4.63,4.24,1.81,.98,3.82,1.45,5.78,1.71,1.97,.25,3.92,.27,5.78,.23-2.15,.48-4.86,.89-7.86,.66-1.49-.14-3.06-.46-4.57-1.09-1.51-.62-2.93-1.56-4.11-2.7-2.4-2.23-3.95-5.14-5.07-7.41-1.18-2.33-2.03-4.44-2.5-5.94-.69-2.3-1.17-4.69-1.2-7.1-.03-2.4,.37-4.81,1.23-6.97,.19-.55,.47-1.05,.71-1.58l.37-.77,.44-.73c.29-.48,.59-.96,.88-1.44l.99-1.33c.63-.91,1.4-1.67,2.1-2.49,.35-.41,.73-.79,1.11-1.15l.88-.84c.1-.1,.21-.19,.3-.29,.11-.11,.08-.28-.02-.37-.19-.2-.46-.31-.72-.41-.05-.02-.16-.05-.29-.09-.12-.04-.25-.07-.37-.1-.25-.07-.51-.11-.77-.16-.52-.09-1.04-.15-1.57-.19-2.1-.14-4.23,.09-6.12,.81-.95,.35-1.82,.85-2.58,1.48-.74,.6-1.37,1.47-2.05,2.23-.68,.77-1.21,1.64-1.81,2.45l-.76,1.3c-.26,.43-.51,.86-.7,1.32l-.62,1.35c-.18,.46-.32,.93-.49,1.39l-.24,.69-.17,.71c-.1,.47-.23,.94-.32,1.41-.31,1.9-.34,3.81-.17,5.68,.24,1.86,.65,3.68,1.27,5.41,.64,1.72,1.37,3.39,2.28,4.94,3.58,6.24,8.52,11.17,13.53,15.21,1.26,1.01,2.54,1.96,3.84,2.83,1.31,.88,2.58,1.67,3.93,2.12,2.75,.95,5.74,1.07,8.61,1.05,1.69-.02,3.7-.12,5.82-.19,2.11-.07,4.38-.09,6.45,.26,4.2,.66,7.26,2.7,8.22,3.3Z"></path></g><g><path class="cls-3" d="M190,421.81c-4.56-.91-8.82,1.42-12.15,.7-5.49-1.19-6.2-6.43-13.94-7.05-11.85-.94-38.33,12.8-43.59,19.57-8.41-3.95-7.24-12.9,0-18.9,9.97-8.27,23.78-13.06,32.65-13.63,16.89-1.09,20.21,9.28,38.18,14.81"></path><path d="M191.14,417.34c-.19,.02-.75-.1-1.59-.32-.85-.22-1.98-.54-3.29-1.05-2.65-.95-6.03-2.56-9.44-4.6-3.43-2.01-6.93-4.39-10.41-5.85-3.45-1.52-6.84-2.01-9.26-2.02-1.06-.07-2.15,.03-3.23,.09-.54,.02-1.09,.06-1.63,.14-.54,.06-1.09,.13-1.63,.23-2.18,.37-4.38,.89-6.56,1.56-2.18,.67-4.35,1.46-6.49,2.34-2.13,.91-4.23,1.91-6.29,3-2.04,1.12-4.03,2.33-5.94,3.65-.93,.68-1.89,1.33-2.77,2.07-.44,.36-.91,.72-1.32,1.08-.39,.38-.82,.72-1.18,1.12-1.49,1.54-2.67,3.34-3.3,5.22-.66,1.88-.57,3.8,.12,5.38,.35,.68,.77,1.32,1.34,1.88,.3,.26,.55,.57,.91,.79l.5,.36,.2,.15h0s-.02,.04,.05-.04l.21-.24,1.13-1.02c.4-.36,.8-.71,1.21-1.01,3.27-2.56,6.7-4.63,10.15-6.54,3.46-1.9,6.99-3.55,10.52-5.02,3.53-1.48,7.1-2.7,10.71-3.62,3.59-.88,7.28-1.56,11.06-1.05,1.85,.27,3.7,.91,5.27,1.89,1.56,.99,2.8,2.22,3.92,3.22,1.13,1.02,2.25,1.77,3.53,2.16,1.2,.45,2.56,.32,3.97,.16,1.41-.18,2.84-.43,4.28-.52,1.43-.09,2.87-.02,4.2,.32-1.25-.04-2.59,.13-3.96,.46-1.37,.32-2.77,.81-4.29,1.24-.76,.22-1.56,.41-2.43,.5-.86,.11-1.84,.02-2.7-.18-1.79-.38-3.44-1.43-4.75-2.42-1.33-1-2.5-1.88-3.7-2.41-1.19-.55-2.4-.83-3.59-.96-.3-.03-.59-.05-.88-.08-.29,0-.58,.01-.86,.02-.56,.03-1.07-.02-1.59,.05-1.04,.15-1.94,.17-2.69,.31-6.1,.84-12.03,2.95-17.54,5.29-5.53,2.36-10.71,5.14-15.35,8.31-.56,.42-1.12,.83-1.68,1.25-.56,.41-1.05,.88-1.57,1.32l-.39,.33-.47,.51-.94,1.02c-.08,.08-.15,.19-.24,.23l-.32-.18-.64-.36c-.41-.23-.91-.47-1.23-.7-1.23-.82-2.32-1.86-3.15-3.09-.79-1.27-1.27-2.7-1.41-4.16-.13-1.46,.13-2.89,.52-4.23,.45-1.33,1.07-2.57,1.83-3.7,1.48-2.29,3.57-4.04,5.56-5.58,2.04-1.54,4.12-2.92,6.25-4.18,2.14-1.23,4.29-2.34,6.46-3.33,4.35-1.95,8.74-3.43,13.13-4.36,2.19-.45,4.41-.78,6.6-.82,.55-.02,1.09-.03,1.63-.05,.54-.02,1.09,.05,1.63,.07,.54,.04,1.08,.06,1.61,.11,.53,.08,1.06,.17,1.59,.25,4.26,.65,8.03,2.57,11.31,4.6,3.15,1.93,7.09,4.87,10.87,6.99,.95,.51,1.87,1.02,2.74,1.47,.89,.42,1.71,.82,2.45,1.17,1.51,.63,2.67,1.12,3.24,1.35Z"></path></g><g><path class="cls-3" d="M190.08,401.7c-10.23,1.52-12.64,2.74-20.87,10.72-9.97,9.68-6.5,17.04-20.27,20.97-13.17,3.76-23.08,9.17-28.33,15.94-9.4-4.68-6.23-17.26,4.48-23.72,11.17-6.75,28.76-8.52,34.85-14.99,6.5-6.91,17.21-16.93,30.15-9.3"></path><path d="M190.06,401.36c-.44,0-2.2-1.02-5.02-1.76-2.82-.74-6.79-.72-10.61,.83-3.83,1.52-7.39,4.28-10.31,7.1-.73,.7-1.43,1.41-2.09,2.11-.34,.34-.65,.7-.97,1.04-.3,.34-.62,.67-.99,1.01-1.36,1.38-2.82,2.2-4,2.92-4.27,2.37-8.99,3.89-13.69,5.52-4.7,1.61-9.47,3.23-13.85,5.49-2.18,1.15-4.21,2.41-5.97,4-1.74,1.6-3.21,3.47-4.23,5.5-1.02,2.02-1.58,4.23-1.39,6.28,.21,2.04,1.18,3.8,2.73,5.03l.45,.38h.02s.03,.02,.03,0v-.02h.01l.12-.13,.29-.31c.39-.41,.75-.84,1.17-1.22,1.61-1.59,3.36-2.99,5.19-4.23,3.65-2.49,7.55-4.41,11.48-6,1.97-.79,3.95-1.5,5.93-2.13,1.95-.65,4.05-1.18,5.77-1.76,1.77-.61,3.46-1.33,4.85-2.36,1.41-1,2.55-2.25,3.53-3.74,.99-1.48,1.86-3.16,2.83-4.82,.98-1.66,2.04-3.29,3.24-4.78,.59-.75,1.23-1.44,1.85-2.15,.66-.65,1.32-1.32,1.97-1.94,1.31-1.2,2.61-2.37,3.95-3.48,1.34-1.1,2.72-2.15,4.19-3.03,1.46-.88,3.02-1.57,4.58-2.04,3.11-.94,6.09-1.21,8.87-1.52-2.39,.8-5.44,1.59-8.39,2.96-2.97,1.34-5.52,3.6-7.88,6.04-1.18,1.21-2.34,2.46-3.43,3.64-.51,.59-1.01,1.16-1.5,1.72-.45,.58-.88,1.15-1.3,1.7-1.61,2.23-2.72,4.31-3.6,5.77-.88,1.46-1.77,3.01-2.86,4.5-1.08,1.5-2.49,2.84-4,3.89l-1.15,.75-1.2,.61c-.79,.44-1.63,.69-2.43,1.02-1.64,.57-3.29,1-4.81,1.41-6.17,1.72-12.04,3.94-17.18,7.03-2.56,1.55-4.94,3.31-6.98,5.34l-.74,.78c-.14,.15-.22,.22-.4,.43l-.49,.59-.49,.59-.24,.29s-.08,.1-.12,.14l-.16-.1-1.3-.79-.65-.39c-.23-.13-.32-.25-.49-.38l-.89-.76c-.3-.24-.51-.58-.77-.87-.23-.31-.53-.58-.69-.93-.38-.68-.78-1.34-.98-2.09-.3-.72-.38-1.48-.5-2.23-.08-.37-.03-.75-.05-1.13,.01-.37-.03-.75,.03-1.12,.12-.73,.15-1.48,.38-2.17,.73-2.84,2.21-5.34,4.01-7.45,1.8-2.12,3.96-3.85,6.24-5.24,2.28-1.38,4.65-2.44,7-3.42,4.71-1.91,9.38-3.32,13.81-4.81,2.21-.75,4.38-1.49,6.41-2.36,2.03-.87,4-1.8,5.6-3.06,.41-.3,.74-.66,1.12-.98,.36-.31,.75-.77,1.13-1.14,.76-.78,1.52-1.55,2.31-2.28,1.56-1.48,3.2-2.85,4.91-4.06,1.6-1.18,3.68-2.38,6.01-3.26,2.32-.87,4.91-1.39,7.33-1.26,.6,0,1.19,.13,1.76,.19,.28,.04,.57,.06,.84,.12,.27,.07,.53,.14,.79,.21,.52,.14,1.02,.27,1.49,.42,.45,.19,.89,.38,1.3,.55,.4,.18,.8,.32,1.13,.51,.33,.2,.64,.38,.91,.54,.55,.33,.97,.58,1.26,.75Z"></path></g><path d="M135.08,482.88c2.27-4.04,3.28-8.29,4.32-12.79,.99,4.61,1.88,9.55,1.49,14.31-.07,1.7-1.49,3.02-3.19,2.95-2.2-.03-3.65-2.54-2.62-4.47h0Z"></path><g class="cls-6"><path d="M137.39,428.58c-.08,.24-1.17,.55-2.44,.87-1.25,.37-2.67,.76-3.41,1.13-2.62,1.23-5.61,2.52-7.76,4.33-1.89,1.54-3.44,3.33-4.38,5.3-.97,1.95-1.47,3.97-1.87,5.66-.55-.75-1.02-1.95-1.13-3.13-.12-1.17,.02-2.32,.34-2.82,1.17-2.08,2.59-3.72,4.06-5.04,1.46-1.33,3-2.32,4.48-3.16,2.97-1.66,5.79-2.71,8.33-3.12,1.2-.27,3.38-.05,3.79,0Z"></path></g><path d="M150.55,466.34c.36,.18,.48,1.76,.5,3.6,.02,1.83-.1,3.91-.01,5.09,.27,4.16-.41,8.93-1.59,13.17-1.03,3.7-2.75,7.28-5.11,10.03-1.16,1.38-2.49,2.52-3.82,3.38-.66,.43-1.33,.79-1.96,1.08-.61,.3-1.26,.53-1.38,.65-.09-.16-.18-.25-.2-.41-.01-.17,.02-.36,.07-.55,.1-.38,.26-.77,.41-1.14,.32-.75,.67-1.47,.99-2.13,.64-1.32,1.22-2.41,1.77-2.83,2.21-1.66,3.82-3.93,4.95-6.21,1.12-2.3,1.8-4.64,2.26-6.86,.89-4.46,.94-8.43,1.56-11.86,.23-1.63,1.32-4.44,1.57-5.01Z"></path></g><path d="M224.12,394.71c-.27,.13-1.93-.49-3.93-.94-1.99-.48-4.3-.83-5.61-.97-2.31-.23-4.81-.63-7.28-1.31-1.24-.35-2.44-.74-3.63-1.14-1.19-.4-2.37-.83-3.51-1.31-2-.83-3.86-1.83-5.64-2.81-1.78-.98-3.49-1.96-5.12-2.92-3.25-1.92-6.13-3.75-8.37-5.34,2.7,.1,7.26,1.57,8.65,2.54,2.8,1.95,5.48,3.67,8.07,5.15,2.57,1.51,5.13,2.53,7.62,3.36,4.92,1.78,9.44,2.12,13.37,3.21,.93,.24,2.18,.71,3.23,1.24,1.05,.52,1.89,1.07,2.16,1.25Z"></path><g><path class="cls-3" d="M210.28,397.47c-10.64-3.71-24.32-16.82-28.75-23.99-6.34-10.25-7.9-12.97-11.04-16.25-5.44-5.67-11.42,.2-7.8,7.21,9.6,18.58,25.02,27.63,30.6,30.96,9.72,5.8,18.31,5.83,21.98,13.82"></path><path d="M215.24,409.24c-.29-.18-.95-1.6-2.51-3.2-1.52-1.64-4.11-3.13-7.08-4.34-2.97-1.23-6.25-2.4-9.15-3.77-2.91-1.38-5.38-2.88-7.17-3.9-6.32-3.64-12.63-8.52-18.01-14.43-2.7-2.94-5.14-6.15-7.27-9.51-.54-.83-1.08-1.67-1.55-2.54-.48-.88-.98-1.68-1.45-2.61-.98-1.95-1.49-4.3-.99-6.65,.4-2.01,1.91-4.13,4.21-4.85,.57-.15,1.15-.28,1.73-.25,.59-.04,1.13,.1,1.67,.22,.55,.12,1,.38,1.49,.58,.45,.24,.86,.54,1.28,.81,.76,.62,1.46,1.29,2,1.89,.57,.63,1.12,1.28,1.65,1.95,1.04,1.34,1.96,2.71,2.83,4.06,1.73,2.71,3.34,5.4,4.93,8.04,.4,.66,.79,1.31,1.18,1.96,.39,.6,.76,1.21,1.2,1.79,.41,.59,.85,1.17,1.3,1.74,.44,.58,.9,1.13,1.37,1.68,3.74,4.4,7.78,8.25,11.74,11.51,1.99,1.63,3.98,3.08,5.94,4.38,1.97,1.27,3.93,2.33,5.85,3.17-1.88-.3-4.19-.97-6.56-2.01-2.36-1.05-4.79-2.41-7.06-3.88-4.52-2.97-8.35-6.4-10.1-8.43-1.77-2.05-3.44-4.13-4.94-6.33-1.52-2.26-2.64-4.47-3.92-6.62-2.53-4.29-4.79-8.56-7.91-11.88-.77-.74-1.57-1.5-2.52-1.82-.92-.36-1.92-.4-2.77-.03-.85,.36-1.53,1.11-1.92,1.99-.41,.89-.48,1.92-.42,2.91l.1,.75c.03,.25,.13,.49,.19,.73,.11,.49,.33,.95,.54,1.42,.43,.93,1.01,1.86,1.5,2.78,.49,.93,1.08,1.8,1.63,2.68,.28,.44,.55,.87,.83,1.31,.3,.42,.59,.84,.89,1.25,4.69,6.68,10.28,11.97,15.96,16.25,2.84,2.15,5.73,4.02,8.58,5.74,2.85,1.75,5.64,3.18,8.51,4.42,1.36,.59,2.97,1.28,4.65,2.08,1.67,.79,3.41,1.72,4.88,2.83,1.48,1.1,2.62,2.4,3.37,3.54,.75,1.15,1.09,2.13,1.3,2.59Z"></path></g><path d="M242.13,444.17c.12-.13,1.86-2.93,2.35-4.12,.41-1.08,.86-2.2,1.36-3.27,.47-1.07,.98-2.09,1.38-3.04,.76-1.68,1.48-3.3,2.18-4.85,.71-1.63,1.35-3.26,1.53-4.57-.21,1.14,1.24,3.52,1.06,4.39-.27,1.7-.91,3.24-1.55,4.6-.65,1.37-1.32,2.59-1.97,3.71-.67,1.11-1.32,2.13-2.02,3-.69,.88-1.43,1.62-2.19,2.25-.32,.25-.81,.65-1.31,1.05-.43,.36-.74,.72-.83,.84Z"></path><g><path class="cls-4" d="M242.74,380.92c9.8,8.79,13.93,29.95,12.87,37.11-1.05,7.09-7.81,13.14-22.4,11.1"></path><path d="M233.22,429.09c.32-.3,2.93-.04,5.92-.2,.74-.05,1.51-.08,2.27-.21,.38-.05,.75-.1,1.12-.16,.37-.07,.72-.16,1.07-.24,.71-.14,1.35-.35,1.93-.56,.59-.18,1.07-.44,1.48-.64,1.41-.75,2.78-1.65,3.87-2.83,1.1-1.16,1.95-2.54,2.46-4.05,.54-1.52,.68-3.08,.61-4.79,.01-.84-.11-1.72-.16-2.56-.12-.86-.2-1.71-.34-2.54-1.92-11.76-6.04-22.95-11.09-28.97,1.79,.59,4.24,2.12,5.97,4.1,.23,.24,.45,.48,.67,.72,.2,.25,.39,.5,.58,.74,.38,.49,.72,.97,1.04,1.43,.59,.93,1,1.77,1.22,2.38,1.63,4.92,2.65,9.55,3.48,13.92,.22,1.09,.35,2.18,.54,3.24,.12,1.07,.31,2.11,.4,3.16,.24,2.08,.34,4.11,.24,6.12-.12,2.03-.68,4-1.61,5.71-.93,1.71-2.22,3.15-3.67,4.25-1.45,1.12-3.07,1.83-4.64,2.38-1.6,.48-3.18,.8-4.7,.86-.36,.03-.76,.05-1.17,.06-.42-.01-.85-.04-1.3-.07-.89-.04-1.8-.2-2.64-.35-1.69-.29-3.09-.78-3.55-.9Z"></path></g><path d="M226.89,472.45c-.38-.42,.63-6.81,.73-9.31,.2-4.41,.69-9.36,.46-13.81-.18-3.89-.64-7.74-1.03-11.29-.39-3.55-.72-6.79-.83-9.41,1.58,2.06,3.19,6.36,3.24,7.99,.27,6.53,.68,12.23,.45,17.29-.22,5.05-.72,9.41-1.45,13.15-.32,1.79-1.34,4.8-1.57,5.39Z"></path><path d="M224.86,416.49c-.44-.15-.44-2.87-.79-3.88-.56-1.79-.89-3.82-1.46-5.53-.49-1.5-.99-2.94-1.53-4.29-.52-1.35-1.01-2.63-1.29-3.75,1.5,.14,3.23,1.41,3.39,2.15,.65,2.9,1.26,5.22,1.7,7.34,.45,2.1,.8,3.97,.67,5.6,0,.78-.57,2.11-.69,2.37Z"></path><g><path d="M263.74,398.45c4.74,8.88,7.58,18.3,9.08,28.13-2.97-8.98-7.44-17.94-13.22-25.32l4.14-2.8h0Z"></path><g><path class="cls-3" d="M253.07,398.81c5.52,3.83,6.48,11.46,3.01,14.3-9.72-12.35-15.1-7.22-33.67-29.55-14.17-17.04-23.4-24.06-36.12-37.06,3.99-1.99,9.62,1.49,17.87,5.55,10.89,5.36,41.02,25.5,48.3,28.62,20.99,8.99,29.15,16.73,24.13,33.69-5.31-5.56-14.34-10.81-23.52-15.55Z"></path><path d="M253.09,398.79c.62,.14,3.9,1.63,8.46,4.12,2.28,1.25,4.86,2.76,7.54,4.56,1.34,.9,2.7,1.86,4.04,2.93,.34,.26,.67,.53,1,.81l.49,.41c.11,.09,.22,.19,.33,.28,.44,.38,.85,.78,1.25,1.18,.05,.08,.04-.04,.06-.08l.04-.16,.08-.32,.15-.63,.15-.62c.06-.22,.07-.37,.13-.71l.29-1.87c.1-.62,.09-1.24,.14-1.86,.04-.62,.08-1.23,.01-1.84-.05-.6-.06-1.21-.13-1.8-.12-.58-.23-1.16-.34-1.73-.08-.58-.35-1.1-.51-1.64-.09-.27-.18-.53-.28-.79-.1-.26-.25-.5-.37-.74-.26-.48-.49-.98-.76-1.43-.64-.86-1.15-1.75-1.86-2.45-.33-.37-.65-.72-.97-1.07-.34-.33-.69-.62-1.02-.92-.33-.29-.65-.58-.96-.85-.34-.25-.66-.49-.97-.72-2.55-1.91-5.42-3.53-8.42-5-1.48-.77-3.04-1.43-4.58-2.14-1.57-.7-3.11-1.3-4.75-2.04-3.29-1.54-6.28-3.31-9.35-5.09-3.05-1.79-6.08-3.62-9.12-5.46-6.07-3.68-12.13-7.42-18.17-11.02-3.02-1.78-6.03-3.56-9.04-5.17-.75-.39-1.5-.77-2.25-1.15-.78-.38-1.56-.77-2.33-1.15-1.55-.76-3.07-1.53-4.57-2.25-1.31-.62-2.62-1.21-3.91-1.68-.32-.11-.64-.24-.96-.32l-.47-.14c-.08-.03-.16-.05-.23-.06l-.12-.02s0,0,0,0c.02,0-.01,0-.01,0-.02,0-.02,.02,0,.03h.02l1.24,1.23c4.17,4.1,8.43,8.07,12.58,12.11,4.15,4.04,8.16,8.15,11.92,12.35,3.77,4.17,7.25,8.54,10.67,12.53,3.49,3.97,7.08,7.66,10.97,10.72,1.92,1.57,3.94,2.91,5.98,4.24,2.04,1.32,4.15,2.61,6.08,4.12,.47,.39,.94,.78,1.41,1.17,.46,.4,.88,.83,1.32,1.24,.45,.4,.84,.85,1.24,1.29l.6,.65,.3,.33c.1,.11,.1,.12,.15,.19l.5,.67,.13,.17s.09,.19,.14,.1c.09-.08,.2-.16,.28-.25,.17-.19,.32-.41,.44-.66l.16-.42,.16-.68c.17-.94,.15-1.92,.02-2.88-.16-.96-.45-1.89-.83-2.77-.81-1.74-2.03-3.25-3.5-4.36,1.47,.77,2.96,2.04,4.1,3.8,1.11,1.76,1.9,4.01,1.7,6.49-.05,.31-.05,.6-.15,.95-.12,.35-.2,.73-.35,1.08-.18,.33-.33,.72-.55,1.03-.24,.3-.45,.62-.72,.91l-.42,.45-.21,.23c-.07-.04-.13-.12-.2-.18l-.82-.81c-.56-.55-1.13-1.11-1.7-1.66-1.69-1.64-3.52-3.11-5.46-4.37-1.94-1.26-4.02-2.33-6.03-3.49-2-1.17-3.93-2.35-5.61-3.61-.86-.6-1.65-1.23-2.39-1.84-.76-.6-1.45-1.19-2.08-1.78-.63-.58-1.23-1.12-1.77-1.63-.51-.53-.98-1.02-1.41-1.46l-1.26-1.33-1.2-1.37c-.79-.92-1.61-1.8-2.35-2.74-1.5-1.85-2.98-3.68-4.45-5.5-2.91-3.6-5.88-7.07-8.92-10.38-6.06-6.64-12.43-12.63-18.48-18.62-.75-.75-1.5-1.5-2.25-2.24l-1.17-1.17-.79-.79c-.24-.26-.42-.49-.63-.74l-1.21-1.45-.6-.72-.15-.18-.07-.09s.07-.03,.1-.05l.45-.18c1.2-.47,2.32-.75,3.7-.68l1.04,.1c.34,.05,.72,.14,1.04,.22,.52,.13,1.03,.29,1.53,.46,1,.35,1.96,.75,2.89,1.17,1.87,.85,3.66,1.77,5.44,2.67,1.78,.9,3.54,1.76,5.3,2.69,1.73,.94,3.44,1.9,5.1,2.88,3.34,1.95,6.6,3.91,9.78,5.86,6.37,3.89,12.54,7.66,18.5,11.3,2.99,1.79,5.94,3.57,8.87,5.19,.73,.41,1.47,.78,2.2,1.17,.74,.37,1.43,.69,2.2,1.03,1.53,.68,3.06,1.3,4.55,2.02,3,1.35,5.87,2.9,8.63,4.55,2.73,1.71,5.31,3.64,7.48,5.99,2.17,2.33,3.83,5.19,4.57,8.25,.78,3.06,.61,6.16,.13,9.04-.12,1.08-.81,3.81-1.59,6.44-.7-.71-1.4-1.46-2.13-2.17-.36-.35-.73-.71-1.09-1.07-.28-.25-.56-.51-.85-.76-1.03-.92-2.13-1.82-3.26-2.69-2.26-1.74-4.65-3.38-6.89-4.83-4.49-2.89-8.38-5.09-9.76-5.91Z"></path></g><g><path class="cls-3" d="M224.69,384.72c-9.62-1.18-11.64-4.73-21.16-16.17-7.26-8.73-5.16-11.88-.93-9.8,5.58,2.75,31.24,19.84,34.12,21.75,10.49,6.95,18.8,6.3,16.01,16.92-5.18-5.16-18.42-11.5-28.04-12.69Z"></path><path d="M224.69,384.69c.3-.1,1.81-.05,4,.36,2.19,.41,5.03,1.2,7.99,2.29,2.96,1.09,6.03,2.48,8.75,3.94,1.37,.72,2.63,1.48,3.77,2.2,.82,.55,1.56,1.04,2.18,1.45,.17,.11,.32,.24,.49,.36,.03,0,.08,.1,.08,.02l.02-.17,.04-.33c.02-.21,.06-.41,.05-.61,0-.19,0-.38,0-.55-.03-.12-.07-.61-.1-.95-.24-1.44-1.08-2.53-2.34-3.46-1.26-.92-2.84-1.67-4.46-2.43-1.63-.76-3.31-1.52-4.97-2.38-.83-.42-1.65-.89-2.48-1.34-.8-.49-1.64-.98-2.4-1.48-1.53-.99-3.06-1.97-4.59-2.95-3.05-1.95-6.06-3.88-9-5.77-5.32-3.38-10.59-6.78-15.76-9.96-1.28-.78-2.59-1.59-3.82-2.24-.15-.08-.32-.18-.45-.24l-.38-.17c-.14-.07-.22-.09-.32-.12l-.19-.06s-.06-.02-.09,0c-.01,.01-.02,.03-.02,.05v.13l.06,.25c.09,.26,.16,.54,.27,.82l.38,.86c.58,1.16,1.32,2.31,2.1,3.41,.79,1.1,1.64,2.17,2.52,3.28,.85,1.09,1.7,2.17,2.53,3.23,1.65,2.12,3.24,4.16,4.88,5.94,1.63,1.8,3.38,3.23,5.33,4.18,1.94,.97,4.04,1.47,6.03,1.87-1.84,.16-4.17,.22-6.64-.48-1.24-.32-2.47-.9-3.66-1.57-1.16-.71-2.27-1.53-3.27-2.4-2.02-1.74-3.74-3.58-5.21-5.19-1.46-1.61-2.63-3.02-3.39-4.04-1.25-1.71-2.56-3.49-3.6-5.42-.51-1-1.01-1.97-1.34-3.14l-.13-.43c-.04-.15-.07-.35-.09-.52-.06-.35-.12-.68-.06-1.14l.04-.63,.19-.58,.1-.29,.16-.25c.12-.16,.21-.35,.37-.47,.15-.13,.31-.25,.47-.37l.55-.23c.37-.14,.78-.17,1.18-.17,.87,.06,1.49,.24,2.03,.48,.26,.12,.54,.24,.77,.37l.67,.38c.45,.25,.87,.52,1.29,.78,1.69,1.04,3.3,2.1,4.91,3.15,6.37,4.2,12.41,8.18,18.14,11.96,2.87,1.88,5.66,3.7,8.38,5.48,2.69,1.77,5.42,3.2,8.21,4.49,1.39,.65,2.77,1.31,4.13,2.04,1.34,.76,2.7,1.64,3.76,2.95,1.06,1.3,1.64,3,1.62,4.63,.06,.52-.06,1.04-.11,1.55-.07,.52-.12,1.03-.21,1.54-.11,.51-.21,1.02-.32,1.52l-.16,.76-.08,.38c-.04,.07-.09,.11-.13,.17-.7-.63-1.37-1.27-2.09-1.88l-1.06-.92c-.18-.16-.35-.29-.53-.43l-.43-.31c-.88-.66-1.8-1.26-2.72-1.83-1.83-1.16-3.69-2.17-5.53-3.11-2.53-1.26-6.02-2.96-9.23-4.15-3.19-1.24-6.09-1.93-7.05-2.15Z"></path></g><g class="cls-7"><path class="cls-2" d="M246.28,381.25c.26-.13,1.53,.51,2.96,1.28,1.46,.74,3.09,1.61,4.06,1.97,3.42,1.32,7.19,3.05,10.62,4.8,2.98,1.52,5.93,3.46,7.97,6.05,.27,.3,.49,.64,.7,.99,.21,.34,.41,.68,.61,1.01,.32,.71,.63,1.4,.83,2.08,.15,.7,.34,1.36,.4,2,.04,.64,.06,1.25,.07,1.8-.43-.44-.85-.96-1.24-1.5-.41-.54-.89-1.05-1.25-1.56-.44-.47-.84-.91-1.13-1.31-.36-.36-.61-.7-.74-.97-1.08-2.18-2.99-3.87-4.88-5.18-1.92-1.32-3.87-2.36-5.73-3.27-3.72-1.82-7.08-3.26-9.72-5.07-1.3-.78-3.17-2.74-3.52-3.12Z"></path></g><g class="cls-7"><path class="cls-2" d="M241.21,392.27c.31-.19,2.86,1.48,3.91,2.05,1.87,.96,3.81,2.4,5.45,3.85,1.44,1.27,2.72,2.72,3.62,4.26,.91,1.53,1.38,3.18,1.28,4.49-.93-1.06-2.27-2.42-2.58-3.07-1.06-2.73-3.06-4.65-4.84-6.1-1.82-1.46-3.55-2.51-4.94-3.62-.67-.5-1.69-1.63-1.89-1.86Z"></path></g></g><path d="M244.11,456.07c.01-.12,1.13-2.01,1.41-2.86,.23-.76,.47-1.57,.81-2.29,.33-.73,.72-1.41,1.11-2.02,.67-1.08,1.61-1.9,2.58-2.63,.96-.72,1.94-1.44,2.29-2.27-.18,.35-.05,.97,.06,1.63,.17,.69,.16,1.3,.04,1.57-.64,.96-1.4,1.71-2.05,2.43-.65,.73-1.2,1.43-1.69,2.12-.5,.68-.95,1.33-1.45,1.86-.49,.54-1.04,.97-1.59,1.33-.27,.17-.67,.36-.97,.58-.31,.21-.5,.46-.55,.55Z"></path><path class="cls-1" d="M221.35,425.46c-.51,2.11-3.53,5.84-10.94,7.55-2.22,.51-3.98,.46-5.53-1.22-1.32-1.42-2.13-4.41-5.41-5.91,.31,2.15,1.06,7.3-2.68,7.3s-5.26-7.33-5.56-8.93l3.4,.4c-.61-2.14-1.17-4.87-1.04-7.34,2.14,1.4,3.85,2.01,6.46,3.19-.26-1.79-.51-3.19-1.5-4.9,2.16-.09,5.68-.13,7.64-1.5-1.34-5.34-3.26-7.33-6.09-9.23,2.25-.91,5.04-1.22,7.11,.1,.7,.45,3.11,2.41,5.89,5.95,5.32-1.67,3.77-1.23,4.32-4.66,3.2,5.23,4.35,17.44,3.92,19.21Z"></path><path class="cls-1" d="M230.13,421.1c.56,3.51,2.78,4.27,4.63,4.67,6.34,1.37,14.1-.93,14.44-1.07,3.38-1.36,5.22-10.82,2.45-14.19-3.05-2.03-4.67-2.94-7.01-3.96-.21,1.13-1.23,2.78-2.16,3.45-.13-1.38-1.7-3.11-4.13-2.47-.87-1.94-3.13-6.93-3.55-7.35-.42-.41-3.11-1.98-4.02-1.98-2.18,0-3.72,1.19-3.71,3.54s2.31,14.55,3.07,19.36Z"></path><path class="cls-1" d="M228.87,477.61c4.85-.48,15.92-4.63,20.76-10.51,2.95-3.59,3.14-8.62,3.13-13.26-2.98,1.41-6.65,3.61-9.28,5.6-2.37-7.35,6.12-16.14,7.51-18.31l-1.37-1.6c-3.22,3.28-5.66,5.63-8.8,7.39-.27-1.54,1.23-6.34,3.75-10.11-2.91-2.35-8.33,.56-12.24-3.32-.92,7.82,3.05,24.64-3.45,44.13Z"></path><path class="cls-1" d="M217.25,437.61c3.2-1.37,5.09-.69,5.36,2.73,.82,10.59,1.96,25.64,.67,37.85-2.88-1.16-3.74-1.16-6.75-.9-3.33,.29-6.48,.02-9.65-1.92,2.8-.54,6.95-1.06,8.72-3.14-1.88-7.54-6.08-10.4-8.4-10.63-7.46-.73-14.09,1.43-20.18,3.49-.45-.82-1.56-2.89-1.53-3.12,.03-.21,5.67-4.43,5-8.57l9.45,.91c-3.09-4.67-.51-5.67-3.01-9.51,4.25,.39,8.48,1.09,12.63,2.1-.4-1.79-1.17-3.5-1.77-5.17,1.87-.89,7.62-3.34,9.46-4.13Z"></path><g class="cls-6"><path d="M191.79,471.66c.01,.15-.31,.61-.84,1.26-.27,.32-.57,.7-.93,1.09-.39,.36-.82,.74-1.26,1.14-.85,.85-1.96,1.48-2.89,2.18-1.01,.58-1.92,1.12-2.59,1.48-2.36,1.29-5.17,2.15-8.04,2.61-2.88,.46-5.84,.5-8.61,.27-3.15-.27-6.23-.93-9.05-1.94l.45-2.65c2.9,0,5.78-.29,8.27-.82,1.25-.28,2.4-.65,3.44-1.09,1.03-.46,1.89-1.06,2.61-1.74-.1,.33-.24,.7-.42,1.1-.23,.35-.49,.76-.81,1.13-.66,.72-1.5,1.4-2.39,1.91-1.77,1.05-3.63,1.57-4.61,1.65-2.13,.15-4.12,.17-6.09,.08l.28-1.68c5.63,2.29,11.31,2.7,16.12,2.09,4.86-.59,8.84-2.34,12.06-4.33,.45-.27,.99-.57,1.5-.96,.54-.36,1.1-.74,1.64-1.09,.98-.8,1.88-1.49,2.18-1.71Z"></path></g><g class="cls-6"><path d="M127.43,399.7c-.27-.06-1.44-1.64-2.31-3.75-.92-2.09-1.41-4.66-1.58-6.11-.41-2.55-.21-5.36,.35-8.08,.6-2.72,1.56-5.36,2.66-7.76,1.92-4.21,4.44-8,6.93-11.24,2.51-3.25,5-5.96,7.1-8.04-.71,2.78-3.13,7.28-4.31,8.62-4.88,5.34-8.22,10.89-9.93,16.2-1.74,5.32-1.67,10.23-.74,14.25,.26,.95,.54,2.28,.93,3.44,.35,1.17,.8,2.14,.9,2.49Z"></path></g><g class="cls-7"><path class="cls-2" d="M236.51,482.81c.06-.17,.92-.42,1.9-.68,.98-.28,2.09-.61,2.68-.87,2.08-.91,4.44-1.9,6.41-3.07,1.73-1,3.35-2.11,4.8-3.2,1.45-1.08,2.72-2.19,3.91-2.94-.16,.72-.51,1.59-.95,2.35-.44,.76-.96,1.4-1.33,1.63-2.96,1.87-5.55,3.29-7.94,4.41-2.38,1.1-4.54,1.95-6.53,2.27-.93,.21-2.62,.11-2.95,.09Z"></path></g><g class="cls-6"><path d="M225.11,490.49c-.09,.21-.99,.31-2.04,.31-1.05,0-2.23-.13-2.91-.13-2.39,.02-5.04-.67-7.35-1.44-4.07-1.33-7.58-3.64-9.55-5.64,1.63-.4,4.04-.03,4.68,.5,2.58,2.21,5.3,3.42,7.78,4.12,2.49,.71,4.7,.94,6.59,1.35,.89,.18,2.47,.78,2.81,.92Z"></path></g><g class="cls-6"><path d="M132.27,413.79c.01,.49-2.97,1.78-3.92,2.63-1.74,1.4-3.76,2.81-5.38,4.29-2.85,2.53-5.19,5.3-5.99,7.62-.6-.47-.89-1.58-.88-2.52,0-.48,.07-.94,.2-1.31,.11-.38,.26-.67,.43-.83,1.28-1.33,2.49-2.37,3.65-3.3,.56-.49,1.13-.91,1.67-1.34,.53-.45,1.07-.83,1.58-1.22,1.01-.81,2.03-1.44,2.96-2.09,.97-.56,1.89-1.09,2.81-1.43,.87-.35,2.55-.5,2.88-.51Z"></path></g><g class="cls-6"><path d="M185.14,439.5c-.07,.22-.93,.35-1.92,.46-1,.14-2.13,.07-2.78,.19-2.27,.27-4.92-.08-7.22-.77-2.03-.58-3.91-1.59-5.39-2.81-1.48-1.24-2.55-2.63-3.07-3.98,1.65,.34,3.67,.97,4.17,1.55,1.96,2.43,4.69,3.58,7.06,4.06,2.41,.48,4.54,.37,6.39,.63,.88,.04,2.44,.54,2.77,.67Z"></path></g><g class="cls-6"><path d="M160.8,440.38c-.14,.17-.54,.05-.98-.14-.42-.21-.89-.48-1.19-.59-1.1-.34-2.05-1.17-2.84-1.95-1.4-1.37-2.12-3.18-2.05-4.63,1.28-.07,2.47,.3,2.5,.7,.1,1.63,.87,2.71,1.69,3.47,.83,.77,1.7,1.21,2.24,1.84,.27,.28,.57,1.1,.63,1.3Z"></path></g></g><path d="M93.87,486.8c.21,.23-.08,1.22-.31,2.4-.25,1.17-.4,2.53-.35,3.29,.18,2.69,.43,5.63,1.04,8.24,.48,2.28,1.21,4.47,1.79,6.54,.37,1,.62,2.02,.92,2.94,.31,.92,.56,1.8,.74,2.63-1-.22-2.1-.83-2.99-1.54-.87-.72-1.44-1.57-1.55-2.09-.72-4.27-1.42-7.74-1.8-10.94-.35-3.17-.36-6.07,.45-8.43,.32-1.16,1.69-2.81,2.04-3.04Z"></path><g class="cls-8"><path class="cls-2" d="M114.35,408.77c-.32,.09-1.11-.69-1.98-1.61-.43-.46-.88-.97-1.31-1.41-.45-.43-.86-.8-1.19-1.04-2.26-1.75-4.62-3.81-6.88-5.4-1.97-1.4-3.95-2.57-5.8-3.37-1.83-.76-3.68-1.14-5.14-.99,.08-1.02,1.25-2.09,2.44-2.55,1.21-.51,2.45-.49,2.99-.2,.57,.26,1.07,.57,1.56,.87,.24,.15,.48,.29,.72,.43,.22,.16,.44,.32,.66,.47,.89,.58,1.66,1.21,2.43,1.78,.77,.56,1.44,1.18,2.16,1.71,.68,.56,1.33,1.11,1.96,1.64,.66,.5,1.22,1.07,1.8,1.58,.56,.53,1.16,.99,1.64,1.53,.98,1.05,1.92,2.02,2.57,3.1,.68,.99,1.29,3.08,1.37,3.5Z"></path></g><g class="cls-8"><path class="cls-2" d="M347.11,425.37c-.35-.12-.62-1.55-1.02-3.17-.2-.81-.39-1.68-.65-2.45-.23-.78-.47-1.47-.72-1.93-1.57-3.35-3.51-6.95-6.05-9.41-2.18-2.16-4.75-3.74-7.37-4.75-2.6-1.03-5.25-1.55-7.39-1.82,.79-.96,2.34-1.72,3.84-2.06,1.51-.35,2.99-.27,3.68,.06,5.59,2.61,9.24,6.23,11.71,9.91,1.25,1.84,2.2,3.69,2.9,5.5,.73,1.8,1.16,3.56,1.38,5.22,.09,.79,.1,1.89-.01,2.85-.11,.96-.26,1.79-.32,2.06Z"></path></g><g class="cls-7"><path class="cls-2" d="M206.77,467.73c-.07,.06-.27,.05-.54,0-.14-.03-.29-.06-.45-.1-.18-.01-.36-.03-.55-.04-.38-.05-.79-.05-1.17-.03-.38,0-.72,.03-.96,.1-1.71,.36-3.65,.77-5.41,1.23-3.06,.81-6.1,1.51-8.25,1.7,.59-1.1,2.18-2.22,2.85-2.27,2.7-.2,4.93-.71,6.93-1.14,2-.42,3.8-.77,5.42-.5,.38,.04,.9,.26,1.31,.46,.41,.27,.72,.51,.81,.6Z"></path></g></g></g></svg>