<svg xmlns="http://www.w3.org/2000/svg" viewBox="0 0 380 600"><defs><style>.cls-1{fill:#feffe9;}.cls-2{fill:#ffffff;}.cls-3{fill:#fffde1;}.cls-4{fill:#fff;}.cls-5{fill:#f9ef18;}.cls-6{fill:#b14af3;}</style></defs><g data-name="Womens' Suffrage" id="Womens_Suffrage"><g data-name="Womens' Suffrage Separated" id="Womens_Suffrage_Separated"><g data-name="BODY UPPER" id="BODY_UPPER"><g data-name="BODY UPPER" id="BODY_UPPER-2"><g id="default"><path class="cls-1" d="M219.59,391.44c7.58,9.52,14.23,22.32,22.21,41.3,8.86,21.06,18.83,37.36,29.71,32.7,13.62-5.83,9.48-36.62,4.49-51.09-6.05-17.58-19.42-51-47.78-60C217.34,350.92,214,365.93,214,365.93"></path><path d="M213.93,365.91c-.15-.55.16-3.31,2.09-6.94a12.8,12.8,0,0,1,4.94-5.18,9.37,9.37,0,0,1,4.2-1.07,12.47,12.47,0,0,1,4.38.8,52,52,0,0,1,15.39,8,78.46,78.46,0,0,1,10.54,9.56c8.76,9.34,15.52,21.48,20.69,34.12.65,1.58,1.27,3.17,1.88,4.77s1.19,3.16,1.77,4.87a97,97,0,0,1,4.74,30.55,49.3,49.3,0,0,1-1,9.09,25.72,25.72,0,0,1-3.76,9.11,16.31,16.31,0,0,1-3.82,3.92l-1.18.79-1.27.65a13.56,13.56,0,0,1-2.71.94,12.93,12.93,0,0,1-5.87,0,15.94,15.94,0,0,1-5-2.12,28.84,28.84,0,0,1-6.87-6.4,61.22,61.22,0,0,1-4.81-7.06,123.22,123.22,0,0,1-7.1-14.36c-1-2.36-2-4.76-2.85-7.05l-2.68-6.76c-1.78-4.42-3.57-8.68-5.39-12.72a140,140,0,0,0-11.49-21.29,56.47,56.47,0,0,1,8.53,8.31,102.18,102.18,0,0,1,8.14,11.24,112.87,112.87,0,0,1,10.24,20c3,8.45,6.27,16.56,10.74,23.44a36.18,36.18,0,0,0,3.65,4.73,16.66,16.66,0,0,0,4.31,3.44,9.27,9.27,0,0,0,2.36.84,8,8,0,0,0,2.4,0,9.21,9.21,0,0,0,4.45-2.2c2.57-2.31,4-5.94,4.74-9.55a49.81,49.81,0,0,0,.92-11.09A90.93,90.93,0,0,0,276,420.07c-.46-1.67-.95-3.32-1.52-4.91s-1.16-3.24-1.77-4.83q-1.8-4.75-3.81-9.24a131.45,131.45,0,0,0-8.88-16.69c-6.51-10.22-14.28-18.61-23.15-24a61.81,61.81,0,0,0-7.49-3.83l-1.06-.45c-.36-.15-.71-.3-1-.4a9.51,9.51,0,0,0-2-.47,7.19,7.19,0,0,0-3.92.69,13.94,13.94,0,0,0-5.37,5.51A26.89,26.89,0,0,0,213.93,365.91Z"></path></g><g data-name="default" id="default-2"><path class="cls-2 color-body" d="M140.36,463.37c.82-7.14,2.46-16.13,4.76-22.34,13.64-36.84-9-78.79,30.64-91.82,29.14-9.57,59.41,5.74,75.67,54.17,5.89,17.56,7.77,42.31,3.48,60" style="fill:#ffffff;--backup-fill:#ffffff"></path><path d="M254.85,463.36c-.2-.66.35-3.71.75-8.24a127.21,127.21,0,0,0,.37-17,132.06,132.06,0,0,0-2.31-19.43,90.35,90.35,0,0,0-4.33-15.31,147.25,147.25,0,0,0-9.42-19.89,86.45,86.45,0,0,0-13.45-17.95,53.27,53.27,0,0,0-18.15-12.25,43.23,43.23,0,0,0-20.8-2.7,51.31,51.31,0,0,0-8.91,1.86,45.68,45.68,0,0,0-8.29,3.37,26.29,26.29,0,0,0-11.62,11.75c-2.46,5-3.53,10.88-4.06,16.8s-.61,11.95-.79,17.89-.44,11.83-1.1,17.54a87.58,87.58,0,0,1-3.41,16.41c-.21.64-.41,1.28-.62,1.92s-.47,1.26-.71,1.88l-1.37,3.52c-.85,2.25-1.55,4.55-2.18,6.81-1.25,4.54-2.19,9-3,13.14a75.88,75.88,0,0,1,0-13.84,61.15,61.15,0,0,1,1.21-8l.9-3.91c.33-1.25.49-2.55.74-3.8,1.74-10.11,1.48-19.89,2-25.08s.65-10.45,1-15.64A127.19,127.19,0,0,1,149,377.75a44.88,44.88,0,0,1,5.16-14.61,32.29,32.29,0,0,1,10.59-10.74A49.08,49.08,0,0,1,178,346.85,55.77,55.77,0,0,1,191.64,345a49.78,49.78,0,0,1,25.23,6.71,65.58,65.58,0,0,1,18.38,16.17,87.07,87.07,0,0,1,6.67,9.53c1,1.61,1.9,3.28,2.83,4.9s1.76,3.29,2.52,5l1.17,2.48c.37.83.73,1.66,1.09,2.49.74,1.65,1.36,3.32,2,5s1.2,3.32,1.79,4.95,1.11,3.32,1.55,5a108.24,108.24,0,0,1,3.54,19.55,96.35,96.35,0,0,1,.44,10.34,108.56,108.56,0,0,1-.75,11.22A79.59,79.59,0,0,1,254.85,463.36Z"></path><path class="cls-3" d="M153.22,370.59c-6.06,19,1,45.87-8.1,70.44-2.3,6.21-3.94,15.2-4.76,22.34h0s22.14,15.63,64.39,13c44.13-2.75,50.16-13,50.16-13h0c4.29-17.68,2.41-42.43-3.48-60-4.85-14.44-11-25.94-17.89-34.71,0,0-8.8,21.73-28.74,21.73s-29.07-6.92-40.65-17.64Z"></path></g><path class="cls-3" d="M257.25,431.72s-.82,33,0,44.95,6.92,48.24,10.25,56.67c0,0-11.9,20.66-47.38,9.43L249.54,449Z"></path><path d="M257.3,431.75c.06.54-.66,2.67-1.87,5.82-.61,1.57-1.34,3.39-2.17,5.4l-2.67,6.45c-1.83,6.25-3.91,13.32-5.83,19.86s-3.67,12.61-4.77,16.8c-3.44,13.06-7.4,27-11.51,41q-1.54,5.25-3.1,10.51l-.69,2.31-.05.3c-.07.12.08.12.18.13l.12,0H225l.24.07a53.31,53.31,0,0,0,19.79,1.44l1-.12c.34-.06.67-.15,1-.22l2-.46a14,14,0,0,0,1.94-.59c.64-.23,1.3-.41,1.91-.67a29.3,29.3,0,0,0,6.83-4,22.72,22.72,0,0,0,2.8-2.64l.46-.51h0v0l-.46-1.63c-.23-.77-.42-1.52-.6-2.26-.39-1.5-.72-3-1.05-4.46-2.54-11.78-4.29-23.23-5.66-34.27-.33-2.77-.63-5.5-.86-8.23s-.39-5.51-.41-8.16c0-5.32.13-10.38.34-15.27.42-9.76,1-18.71,1.78-26.67a276,276,0,0,1,3.62,27.51c.46,4.93.84,9.72,1.18,13.8.16,2.05.34,3.88.51,5.51s.3,3.12.39,4.33c.62,9.73,1.74,19.25,3.08,28.4.68,4.57,1.44,9.06,2.33,13.43.21,1.1.48,2.16.71,3.23.12.55.26,1.06.39,1.59l.21.78.1.39.05.19.09.29.69,2.29c.13.2,0,.36-.15.53l-.33.5a9.55,9.55,0,0,1-.7,1l-.73.94-.61.67c-.39.44-.81.85-1.24,1.25a32.41,32.41,0,0,1-11.56,7,41.39,41.39,0,0,1-12.73,2.29l-3.16,0a11.48,11.48,0,0,1-1.56-.08l-1.55-.14-3.09-.28-3-.55-3-.54-3.1-.83-4-1.06-.49-.14-.25-.06c-.06,0-.23,0-.15-.12l.29-1,.6-1.93,12.67-42.08C235.57,486,239.28,474,243,462.91c.67-2,1.47-4.32,2.35-6.75s1.88-5,2.84-7.63l2.93-5.55c1-1.75,1.85-3.41,2.65-4.91C255.44,435.08,256.72,432.76,257.3,431.75Z"></path><path class="cls-3" d="M141.83,505.8s-13.64,32.56-17.89,35.63c0,0,5.58,12.5,25.86,14.8,0,0,19.92,0,26.73-9.53s21.79-1.87,27.92,1,34,5.11,41.87-12.76c0,0,13.19-62.13,8.59-103.24C254.91,431.72,161,504.94,141.83,505.8Z"></path><path d="M141.82,505.67a25.12,25.12,0,0,1,3.43-1.54c1.81-.8,4.24-2,7.08-3.52,5.7-3.06,13.07-7.55,20.85-12.59,15.56-10.08,32.74-22.37,42-29.53L240.65,439l6.52-5.06,5.62-4.33,2.87-2.22,1.42-1.11c.33-.39.26.13.31.38l.08.87q.36,3.51.7,7l.36,3.56.09.9,0,.45,0,.29,0,1.06c.09,2.84.27,5.7.27,8.54.15,22.79-2.67,45.46-6.12,66.79-.56,3.5-1.18,7-1.82,10.48l-1,5.22-.52,2.61-.13.66-.11.5a1.63,1.63,0,0,1-.2.61l-.73,1.49a24.08,24.08,0,0,1-3.44,4.93,27.48,27.48,0,0,1-4.48,3.89A34,34,0,0,1,230,551.11a48.45,48.45,0,0,1-10.89,1.53,51.55,51.55,0,0,1-10.86-.73c-.91-.18-1.82-.37-2.76-.64-.46-.12-.95-.29-1.44-.47l-.78-.32-.61-.29c-1.53-.73-3-1.42-4.49-2.06a39.89,39.89,0,0,0-8.85-2.8c-2.9-.5-5.7-.36-7.74.74A8.07,8.07,0,0,0,179,548.4c-.6.71-1.24,1.53-1.91,2.21s-1.42,1.3-2.18,1.83a31.05,31.05,0,0,1-9.53,4.44,55.71,55.71,0,0,1-9.69,1.86c-1.61.18-3.2.29-4.82.34h-.62a4.1,4.1,0,0,1-.94,0l-1.21-.19-2.37-.37a45.47,45.47,0,0,1-9.12-2.82,35.36,35.36,0,0,1-8.07-4.88,21.52,21.52,0,0,1-1.75-1.55c-.58-.53-1.11-1.1-1.63-1.68-.27-.28-.51-.59-.76-.89l-.36-.46-.19-.22-.23-.34c-.32-.46-.64-.89-.94-1.36s-.59-1-.83-1.45c0-.41.07-.8.1-1.16a2.21,2.21,0,0,1,.07-.48l.19-.39c.15-.29.28-.64.41-.93l.39-1,.93-1.3.66-1c.43-.7.85-1.42,1.26-2.14.82-1.45,1.59-2.92,2.33-4.39,1.49-2.94,2.86-5.87,4.17-8.74,2.61-5.75,5-11.26,7.3-16.42-.13,5.32-1.61,11.28-3.74,17.51-1.08,3.11-2.31,6.3-3.69,9.5q-1,2.4-2.2,4.81c-.4.8-.81,1.61-1.24,2.41-.21.41-.46.81-.68,1.22l-.38.61a.64.64,0,0,0-.08.16l-.05.11a3.15,3.15,0,0,1-.23.41l-.07.09a.42.42,0,0,0,.08.12l.18.21.35.36.19.19.38.41c.57.63,1.2,1.22,1.83,1.79a29.23,29.23,0,0,0,4.09,3,34.34,34.34,0,0,0,8.87,3.64c.72.24,1.48.33,2.19.5a18,18,0,0,0,2.12.41l2,.31.44.06h.11l.95,0c2.56-.1,4.82-.34,6.63-.53a39.92,39.92,0,0,0,10.16-2.41c.79-.31,1.51-.7,2.26-1.05l1-.63a6.38,6.38,0,0,0,1-.67l.91-.73a7.53,7.53,0,0,0,.79-.81l.38-.41.19-.21.26-.31a13.39,13.39,0,0,1,1.13-1.26,13,13,0,0,1,5.82-3.31,17.77,17.77,0,0,1,6.24-.42,38.37,38.37,0,0,1,11,3.14c1.7.72,3.34,1.51,4.94,2.31l1.19.6a9.08,9.08,0,0,0,1,.45,18.58,18.58,0,0,0,2.32.68,45.45,45.45,0,0,0,10,1c6.69-.08,13.43-1.37,18.87-4.73a20.3,20.3,0,0,0,3.72-2.9,17.83,17.83,0,0,0,2.92-3.63c.19-.33.41-.65.59-1l.52-1.05a1.16,1.16,0,0,0,.14-.36l.12-.53.24-1.2c.32-1.61.63-3.2,1-4.8,1.2-6.38,2.28-12.68,3.19-18.91q2.82-18.66,4-36.31c.15-2.93.35-5.85.44-8.74s.18-5.76.18-8.6,0-5.66-.11-8.44c-.07-1.4-.13-2.78-.2-4.16l-.1-2.07-.05-1-.06-.57c-.07-.76-.15-1.51-.22-2.26l-.11-1.1,0-.27s0-.06,0-.05l0,0-.11.09-.43.34-4.1,3.26-12.45,9.74c-16.37,12.69-31.79,24.33-46.79,34.43a222.51,222.51,0,0,1-26.48,15.52A98.46,98.46,0,0,1,150,504.22a37,37,0,0,1-5,1.25A14,14,0,0,1,141.82,505.67Z"></path><g id="Sash"><path class="cls-4" d="M153.72,480.8,155,502.28s91.55-7.08,100.88-83.76c0,0-4.47-24.91-14.67-38.41C241.21,380.11,231.19,460.57,153.72,480.8Z"></path><path class="cls-5" d="M147.37,484.57s96.44-6.56,98.24-99.17c0,0-5.31-9.51-8.26-11.51,0,0,7,87.47-84.64,92.35C152.71,466.24,146.1,479.47,147.37,484.57Z"></path><path class="cls-6" d="M145.89,498.74s86.39,5.49,109-84.82l2.34,14.23s-15.36,79.4-114.78,80.63Z"></path><path d="M238,383.84c-.24-.76-.19-4.46,0-10l.08-2,1.27,1.6A69.09,69.09,0,0,1,248,388a130.37,130.37,0,0,1,6.7,19.31,182.33,182.33,0,0,1,4.12,19.8l.11.82.05.4a2.85,2.85,0,0,1-.11.39c-.12.44-.25.87-.38,1.3-.21.74-.43,1.46-.63,2.17-.42,1.42-.82,2.8-1.2,4.11-.82,2.61-1.71,4.94-2.39,7a112.16,112.16,0,0,1-14.35,27.33,98.3,98.3,0,0,1-23.12,22.64c-1.12.79-2.3,1.5-3.44,2.25l-1.73,1.12c-.59.36-1.19.68-1.79,1-1.2.67-2.38,1.36-3.59,2l-3.69,1.82a110.58,110.58,0,0,1-15.26,5.91,126.18,126.18,0,0,1-31.54,5.24q-3.47.13-7,.06l-.87,0-1.37-.06c-1.12,0-2.2-.13-3.28-.24s-2.15-.2-3.2-.33l-3.14-.36c.62-1.54,1.24-3.06,1.83-4.66l.89-2.38a11.35,11.35,0,0,0,.38-1.17l.22-.91c.37-1.42.65-2.94.93-4.44.55-3,1-6.12,1.37-9.22s.71-6.2,1-9.3l.42-4.64.19-2.32.33-4.65,10.95-5.06,2.2-1,1-.46,1.17-.21,1.14-.21,4.58-.81A113.74,113.74,0,0,0,183,455.1a92.85,92.85,0,0,0,15.64-7.92,78.62,78.62,0,0,0,13.13-10.55,85.07,85.07,0,0,0,17.71-26,92.64,92.64,0,0,0,7.5-26.85,66.07,66.07,0,0,1-1,18.48,82.07,82.07,0,0,1-6.82,20.85,80.5,80.5,0,0,1-5.41,9.52c-1,1.44-2,2.88-3.05,4.23s-2.08,2.62-3.15,3.8A63.86,63.86,0,0,1,205.92,451a98.85,98.85,0,0,1-14.25,7.9l-3.7,1.52c-.61.24-1.22.51-1.84.74l-1.86.64-3.72,1.27c-1.24.38-2.5.7-3.74,1.06-2.47.75-5,1.25-7.46,1.79l-1.86.4c-.62.12-1.24.21-1.86.31l-3.71.6-1.41.22-.62.27-.84.37-3.32,1.45c-2.08.92-4.91,2.18-5.44,2.38q-.45,4.31-.89,8.53-.54,4.84-1.19,9.58c-.45,3.17-1,6.3-1.54,9.4-.33,1.55-.64,3.09-1,4.63a16.6,16.6,0,0,1-.89,2.6l0,.11,0,.06h.06l.23,0,.47.05.94.08,1,.06,1.26.06c2.08.07,4.16.09,6.22,0a119.91,119.91,0,0,0,12.21-.89A116.09,116.09,0,0,0,190,501a101.17,101.17,0,0,0,20.3-9.66,94.83,94.83,0,0,0,16.75-13.29,105.58,105.58,0,0,0,12.77-15.9l2.6-4.23.64-1.05.57-1.09,1.14-2.16,1.14-2.15.56-1.07.5-1.1,2-4.37c.69-1.44,1.22-2.93,1.78-4.4s1.11-2.93,1.66-4.38.93-3,1.4-4.42l.69-2.19.35-1.09c.07-.29.17-.42.15-.59-.09-.63-.17-1.26-.25-1.89s-.22-1.49-.32-2.23c-.22-1.49-.48-3-.73-4.43-.53-2.93-1.07-5.82-1.72-8.65a175.22,175.22,0,0,0-5.7-20.25,92.84,92.84,0,0,0-4-9.42l-1-2c-.17-.33-.33-.64-.48-1l-.52-.86-1.82-3.05.69-.2C238.54,379.94,238.2,382.53,238,383.84Z"></path></g><path d="M193,400.93a3.11,3.11,0,0,1,.08,1.7,13.5,13.5,0,0,1-1.05,3.33,49.21,49.21,0,0,1-3.61,6.28,38.11,38.11,0,0,1-2.38,3.4c-.43.57-.89,1.12-1.36,1.68l-.18.21,0,.06-.06.11-.1.17a1.43,1.43,0,0,0,.22.15,3.84,3.84,0,0,1,.4.3c.29.24.58.49.88.72l.92.64a14.08,14.08,0,0,0,3.9,1.78,12.12,12.12,0,0,0,3.24.42c.27,0,.53,0,.79,0l.3,0h0s0,0,0,0a2.46,2.46,0,0,0,.39-.56,28.48,28.48,0,0,0,2.55-6.2c1.35-4.33,2.39-8.43,3.34-11.68,1.33,3.16,1.43,9.27.59,11.29a54.55,54.55,0,0,1-3.14,7,16.32,16.32,0,0,1-1,1.61c-.09.13-.22.25-.33.38l-.44.48-.22.22-.11.11-.16,0c-.2,0-.41.08-.61.11a7.41,7.41,0,0,1-1,.09c-.3,0-.6,0-.9,0a12.5,12.5,0,0,1-1.75-.17,16.33,16.33,0,0,1-6.13-2.32,14.54,14.54,0,0,1-1.29-.87,13.65,13.65,0,0,1-1.19-.94l-.57-.49c-.23-.19-.47-.46-.7-.69-.47-.48-1-1-1.4-1.45.63-.64,1.27-1.28,1.87-1.94.43-.47.79-.89,1.18-1.33.74-.87,1.46-1.73,2.12-2.58,1.33-1.68,2.52-3.3,3.59-4.86.62-1,1.54-2.21,2.22-3.41a17.2,17.2,0,0,0,.83-1.68C192.82,401.51,193,401.12,193,400.93Z"></path><path d="M249.65,518c.15-.27.62-.29,1.15-.34a3.68,3.68,0,0,0,1.43-.33c1.08-.69,2.14-1.16,3.06-1.78a15.52,15.52,0,0,1,5.06-2.38,4.82,4.82,0,0,1,.58,2.31c0,.69-.26,1.17-.54,1.24a23,23,0,0,0-5.2,1.84,6.26,6.26,0,0,1-4.06.77A2.81,2.81,0,0,1,249.65,518Z"></path><path d="M259.41,541.43c-.19,0-.78-.79-1.34-1.78s-1.09-2.17-1.44-2.81a26.92,26.92,0,0,1-2.49-7.73,28.52,28.52,0,0,1-.43-6.69c.1-1,.18-2,.34-2.94s.38-1.73.58-2.46a10.12,10.12,0,0,1,.77,2.63,7.31,7.31,0,0,1,.19,2.21,22.84,22.84,0,0,0,.36,9.58,58.21,58.21,0,0,0,2.43,7C258.76,539.36,259.27,541.1,259.41,541.43Z"></path><path d="M131.13,526.57c.45-.05,1.68.87,3.57,2a24.83,24.83,0,0,0,7.42,3.24,20.72,20.72,0,0,0,2.25.39,19.82,19.82,0,0,0,2.31.08,19.08,19.08,0,0,0,4.5-.63,27.86,27.86,0,0,0,7-2.91c6-3.5,12-8.3,19-12.33a40.3,40.3,0,0,1,11.81-4.66,12.76,12.76,0,0,1,1.66-.25c.57-.06,1.12-.16,1.69-.18a21.7,21.7,0,0,1,3.5.13,16.7,16.7,0,0,1,6.84,2.31,15.72,15.72,0,0,1,2.57,2,14.39,14.39,0,0,1,1.13,1.2c.18.21.33.43.54.7a10.09,10.09,0,0,1,.62,1l.35.9c0-.12,0,0,0,0l0,0,0,.1.15.25c.1.17.24.34.36.52s.28.35.45.51l.52.48a11.35,11.35,0,0,0,2.74,1.57,20.65,20.65,0,0,0,7.25,1.21,15.88,15.88,0,0,0,1.95,0c.66,0,1.31,0,2-.09l2-.21c.66-.07,1.33-.12,1.92-.23a25.55,25.55,0,0,0,12.8-5.79A32.41,32.41,0,0,0,244.8,513a41.86,41.86,0,0,0,6-10.9c.87,3.87.09,10-2.5,15.15a26.07,26.07,0,0,1-4.77,6.75,17.47,17.47,0,0,1-5,3.63,33.47,33.47,0,0,1-10.24,2.71c-.85.12-1.64.1-2.45.17s-1.6.11-2.41.11c-1.61,0-3.19,0-4.79-.15a26.44,26.44,0,0,1-9.21-2.25,12.91,12.91,0,0,1-6.75-6.75c0-.09-.05-.19-.09-.27a2.49,2.49,0,0,0-.19-.3,3.08,3.08,0,0,0-.28-.38,6.5,6.5,0,0,0-.65-.74,8.53,8.53,0,0,0-1.54-1.27,10.74,10.74,0,0,0-3.65-1.55,16.33,16.33,0,0,0-8,.34c-5.23,1.39-9.85,4.2-14.21,6.94s-8.53,5.58-12.91,7.8-9.09,3.86-13.87,3.76a17.81,17.81,0,0,1-5.46-.94,19.27,19.27,0,0,1-5.21-2.73A27.1,27.1,0,0,1,131.13,526.57Z"></path><path d="M232.82,526c.35.12.7,3.21,1,4.39a38.85,38.85,0,0,1,.89,6.71c.26,3.83-.22,7.78-1.62,10.07a11.56,11.56,0,0,1-.46-4.14,22.54,22.54,0,0,0,.62-8.07c-.19-2.39-.55-4.44-.61-6.26A15.83,15.83,0,0,1,232.82,526Z"></path><path d="M220.92,528.13c.32.22-.17,3.49-.26,4.77a31.82,31.82,0,0,1-1.31,7.12,19.68,19.68,0,0,1-2.53,5.51,7.91,7.91,0,0,1-3.9,3.22c.36-.66.79-1.43,1.13-2.14A8,8,0,0,1,215,545a13.35,13.35,0,0,0,2.44-3.77,24,24,0,0,0,1.29-3.83c.6-2.46.85-4.66,1.3-6.53A21.61,21.61,0,0,1,220.92,528.13Z"></path><path d="M211.36,526.93c.29.22-.27,3.25-.33,4.45a43.68,43.68,0,0,1-1,6.65,30.51,30.51,0,0,1-1.59,5.34,15.25,15.25,0,0,1-1.13,2.25,4.91,4.91,0,0,1-1.53,1.66,17.06,17.06,0,0,0,.33-2.29,5.55,5.55,0,0,1,.41-1.77,24.17,24.17,0,0,0,2.67-7.63c.45-2.33.68-4.39,1.15-6.15A14.74,14.74,0,0,1,211.36,526.93Z"></path><path d="M191,515.15c.34.21.44,4.11.62,5.61a60.78,60.78,0,0,1,.34,8.47,39.13,39.13,0,0,1-.72,7,17.12,17.12,0,0,1-.89,3,5.81,5.81,0,0,1-1.54,2.35,14.1,14.1,0,0,0,.27-2.81,10.17,10.17,0,0,1,.23-2.28,32.77,32.77,0,0,0,1.37-10.1c0-3-.19-5.62-.1-7.92A27.39,27.39,0,0,1,191,515.15Z"></path><path d="M178.66,519.43c.32.27-.08,4.87-.12,6.66a68.59,68.59,0,0,1-1,10,43.2,43.2,0,0,1-2,8.06,17.08,17.08,0,0,1-3.42,6,14.42,14.42,0,0,1,.33-1.55c.15-.54.22-1.15.37-1.69a13,13,0,0,1,.74-2.62,39.77,39.77,0,0,0,3.18-11.63c.48-3.52.65-6.61,1-9.29A34.6,34.6,0,0,1,178.66,519.43Z"></path><path d="M164.63,528.13c.28.27-.58,4-.78,5.47a57.89,57.89,0,0,1-1.78,8.12,44,44,0,0,1-2.37,6.45,22,22,0,0,1-3,4.82,14.33,14.33,0,0,1,1.06-5,34.24,34.24,0,0,0,3.78-9.28c.76-2.85,1.22-5.38,1.87-7.53A24.8,24.8,0,0,1,164.63,528.13Z"></path><path d="M153.74,533.73c.29.24-.52,3.11-.72,4.26a29.33,29.33,0,0,1-1.87,6.24,21.63,21.63,0,0,1-2.63,4.74,11.57,11.57,0,0,1-3.31,3,10.6,10.6,0,0,1,1.5-3.7,17.2,17.2,0,0,0,4-6.57c.79-2.14,1.23-4.08,1.85-5.7A17.17,17.17,0,0,1,153.74,533.73Z"></path><path d="M141.82,533.73c.26.25-.66,2.52-.87,3.46a28,28,0,0,1-1.75,5,20.65,20.65,0,0,1-2.15,3.88,8.51,8.51,0,0,1-2.72,2.6,7.84,7.84,0,0,1,.93-3.24,16.07,16.07,0,0,0,3.44-5.39c.73-1.74,1.2-3.32,1.86-4.6A10.44,10.44,0,0,1,141.82,533.73Z"></path><path d="M211.32,508.53c0-.38,1.32-1.85,2.94-3.49a54.31,54.31,0,0,0,4.09-4.9c1.48-2.11,3-4.37,4.63-6.64.76-1.16,1.53-2.31,2.29-3.46l2.15-3.45c4.79-7.93,9.08-16,11.74-21.52a28.17,28.17,0,0,1-2.34,9.81c-1.91,3.33-3.75,6.42-5.48,9.32l-2.56,4.18c-.86,1.33-1.63,2.66-2.46,3.89s-1.58,2.47-2.38,3.6l-2.35,3.3c-.81,1-1.6,2-2.38,2.95a33.14,33.14,0,0,1-2.45,2.55c-.38.38-.86.81-1.37,1.24s-1.13.79-1.67,1.15C212.62,507.78,211.65,508.35,211.32,508.53Z"></path><path class="cls-2 color-body" d="M261.06,461.15s3.05,3.25,7,3.17,6.6-3.33,7.41-4.58S261.26,459.85,261.06,461.15Z" style="fill:#ffffff;--backup-fill:#ffffff"></path><path class="cls-3" d="M274.49,411.59s6.51,15.21,12.68,18.35c8.09,4.11,14.72,17.44-2.55,23.23-14.34,4.8-19.92-.32-25.19,2.23"></path><path d="M259.4,455.35c0-.32.73-1,2.08-1.38a15.91,15.91,0,0,1,4.95-.31,52.9,52.9,0,0,0,5.31.09,19.7,19.7,0,0,0,4.19-.63c1.83-.5,3.67-1.19,5.52-1.88a38.88,38.88,0,0,0,5.27-2.48,12.55,12.55,0,0,0,3.79-3.22,5.27,5.27,0,0,0,1.08-3.53c-.09-2.1-1.48-4.61-3.39-6.49a14.07,14.07,0,0,0-1.5-1.31c-.26-.21-.53-.38-.79-.56l-1.11-.7a16.29,16.29,0,0,1-4.43-4.37,38.16,38.16,0,0,1-4.63-8.71,46.89,46.89,0,0,1-2.3-7.84,40.18,40.18,0,0,1,7.15,5.43c2.17,2,3.93,3.88,4.47,5.07a20,20,0,0,0,1.82,3.32,7.22,7.22,0,0,0,.52.66,3.82,3.82,0,0,0,.51.58c.19.17.3.32.57.53s.68.46,1,.71a21,21,0,0,1,5.78,6.87,13.69,13.69,0,0,1,1.64,8.29,12,12,0,0,1-3.87,7,23.07,23.07,0,0,1-6,3.83c-1,.45-2.07.86-3.08,1.19a31,31,0,0,1-3,.95,27.86,27.86,0,0,1-11.68.8,37.83,37.83,0,0,1-5.7-1.49,10.9,10.9,0,0,0-2.5-.44l-.52,0-.44,0Z"></path><path class="cls-3" d="M280.73,452.06s-9.05-8.54-8.37-14.48,8.51.91,7.66,8.29c0,0,.68-9.76,2.72-10.55s2.66,9.89,0,13a60.91,60.91,0,0,0,7.15-1.7A12.14,12.14,0,0,1,280.73,452.06Z"></path><path d="M280.73,452c.19-.22,1.74-.39,3.58-1.27a11.7,11.7,0,0,0,5.09-4.43l.68.81c-1,.37-1.94.64-2.8.88s-1.48.4-2.57.67-2.07.48-3.34.75l-.16-.05a3.1,3.1,0,0,0-.39,0c.56-.84,1.32-1.87,1.71-2.57a4.68,4.68,0,0,0,.47-1.05c.09-.28.11-.42.17-.64a19.62,19.62,0,0,0,.38-2.49,20.63,20.63,0,0,0-.16-5.15,5.58,5.58,0,0,0-.33-1.13l-.1-.2,0,0a.08.08,0,0,0-.08,0l0,0s0,0-.06.07a3.35,3.35,0,0,0-.31.46,7.5,7.5,0,0,0-.49,1.15,32.92,32.92,0,0,0-1.22,5.1c-.18,1-.33,2.07-.44,3h0l-.55-.05a11.24,11.24,0,0,0-3.06-8.3,6.07,6.07,0,0,0-1.63-1.25,2.13,2.13,0,0,0-.82-.25.76.76,0,0,0-.55.16,2.22,2.22,0,0,0-.55,1.46v.95c0,.32.11.64.15.95a21.06,21.06,0,0,0,3.48,6.84c1.44,2,2.91,3.8,4.26,5.35a20.25,20.25,0,0,1-6.08-5.08,14.72,14.72,0,0,1-3.29-6.35c-.08-.46-.09-.94-.13-1.4s.06-.95.09-1.41a5.22,5.22,0,0,1,.44-1.39,2.39,2.39,0,0,1,1.13-1.16,2.23,2.23,0,0,1,1.58-.07,4.6,4.6,0,0,1,1.21.62,8.43,8.43,0,0,1,1.76,1.77,12.8,12.8,0,0,1,2.05,4.2,11.07,11.07,0,0,1,.34,4.41l-.22,0h0a53.38,53.38,0,0,1,.81-6.73,12.17,12.17,0,0,1,1-3.14,2.42,2.42,0,0,1,.57-.74,1,1,0,0,1,1-.25,1.56,1.56,0,0,1,.74.69,3.53,3.53,0,0,1,.35.77,18.26,18.26,0,0,1,.7,6,18.5,18.5,0,0,1-.29,2.89c0,.23-.1.47-.15.7s-.06.23-.09.34a2.81,2.81,0,0,1-.25.56,1.25,1.25,0,0,1-.16.24l2.17-.47c1.17-.26,2.32-.54,3.36-.87l2.05-.67L290.59,447l-.22.33c-.07.11-.15.21-.22.3s-.3.37-.46.55a11.21,11.21,0,0,1-4.88,3.22A12.77,12.77,0,0,1,280.73,452Z"></path><path d="M282.08,455.43c.08.31-.77,1-1.8,1.69s-2.33,1.27-3,1.66a24.72,24.72,0,0,1-21.6.78c1.75-1.34,4.43-2.23,5.36-1.9a18.18,18.18,0,0,0,10.19.77,61.09,61.09,0,0,0,7.44-2.37,5.65,5.65,0,0,1,.9-.22l1-.2C281.24,455.52,281.87,455.44,282.08,455.43Z"></path><path class="cls-3" d="M220.91,400.3a95,95,0,0,0,10.26,14.83s1,7.32-12.6,8.51A99.21,99.21,0,0,1,209,403.36"></path><path d="M209.07,403.35c.38.13,1.17,2.18,2.22,4.49a55.24,55.24,0,0,0,3.18,6.24c1.52,2.39,3.11,5,4.77,7.5l.09.12,0,0,.06.06c0,.06.12,0,.16,0a4.39,4.39,0,0,1,.74-.13c.37-.05.71-.15,1.06-.23a16.17,16.17,0,0,0,2-.54,13.82,13.82,0,0,0,1.84-.73c2-.95,3.53-2.4,3.87-4a1.57,1.57,0,0,0,.06-.28s0,0,0,0v0c.09.1-.23-.29-.4-.51l-.57-.74c-.76-1-1.46-2-2.12-3a54.52,54.52,0,0,1-5.7-11c2.89,1.89,7,6,7.93,7.77a47.37,47.37,0,0,0,3.08,5.13l.22.3.35.47.3.47a3.44,3.44,0,0,1,0,.56l0,.56c0,.18-.06.4-.08.52-.06.29-.14.56-.22.83a7.53,7.53,0,0,1-1.66,2.73,12,12,0,0,1-4.84,3,12.57,12.57,0,0,1-1.27.42c-.43.11-.84.27-1.26.35-.85.16-1.67.41-2.5.49l-1.5.21a8.09,8.09,0,0,1-.83.09l-.45-.69-1.41-2.23q-1.2-2-2.24-3.83a52.2,52.2,0,0,1-3.41-7.27,24.53,24.53,0,0,1-1.11-4.1C209.23,405,209.12,403.75,209.07,403.35Z"></path><g data-name="default" id="default-3"><path class="cls-3" d="M169.21,402.43c-4.77,11.19-7.75,25.3-10.38,45.72-2.91,22.66-8.17,41-19.89,39.46-14.69-2-18.92-32.77-18-48,1.14-18.56,3.92-46,22.5-62.52,15.91-14.11,24.32-.71,24.32-.71"></path><path d="M167.73,376.37A17.89,17.89,0,0,1,166,375a15.59,15.59,0,0,0-3.83-2.4,11.9,11.9,0,0,0-6-.89,18.2,18.2,0,0,0-6.82,2.56,29.81,29.81,0,0,0-3.24,2.34l-1.55,1.31c-.52.45-1,1-1.47,1.45a32.37,32.37,0,0,0-2.77,3l-1.27,1.55-.63.77-.56.8a51,51,0,0,0-6.32,11.63c-4.31,11.11-6.18,23.89-6.92,36.89-.1,1.63-.18,3.27-.25,4.91s-.12,3.14-.09,4.75a94.5,94.5,0,0,0,.63,9.51,79.82,79.82,0,0,0,4,18,37.61,37.61,0,0,0,3.22,6.72,19.34,19.34,0,0,0,2.05,2.72,10.92,10.92,0,0,0,2.3,2,7.13,7.13,0,0,0,2.46,1,5.63,5.63,0,0,0,2.41,0,7.54,7.54,0,0,0,4.21-3,26.38,26.38,0,0,0,3.37-6,63.18,63.18,0,0,0,2.4-7A146.27,146.27,0,0,0,154.6,453c.84-4.8,1.54-9.7,2.42-14.39s1.82-9.22,2.9-13.56A106.27,106.27,0,0,1,168.16,402c-.52,3.34-1.14,7.34-1.68,11.62s-1,8.83-1.41,13.26c-.81,8.85-1.46,17.21-2.33,21.55s-1.79,8.85-2.87,13.16A106.14,106.14,0,0,1,156,474.2a49.15,49.15,0,0,1-2.78,6,24.27,24.27,0,0,1-4,5.47,13.91,13.91,0,0,1-2.76,2.2,10.54,10.54,0,0,1-3.35,1.4,12,12,0,0,1-7-.52,15,15,0,0,1-5.48-3.7,24.84,24.84,0,0,1-3.65-5,49.31,49.31,0,0,1-4.34-10.84,100.9,100.9,0,0,1-3.37-21.64c-.09-1.77-.12-3.52-.11-5.27s.12-3.5.2-5.17c.18-3.38.42-6.71.75-10a126.16,126.16,0,0,1,3.17-18.92,76,76,0,0,1,6.4-16.94,53.52,53.52,0,0,1,10.23-13.62l1.5-1.4c.27-.24.52-.49.81-.72s.59-.45.9-.68l1.87-1.39c.65-.46,1.4-.83,2.1-1.25a18.59,18.59,0,0,1,9.59-2.64,12.89,12.89,0,0,1,7.9,3A13.59,13.59,0,0,1,167.73,376.37Z"></path></g><path d="M170.6,376.42c.45.2,1.74,1.9,4.1,3.92a35.18,35.18,0,0,0,10,5.81,49.8,49.8,0,0,0,24,2.32,30.9,30.9,0,0,0,12.89-5.17l.74-.51.67-.58c.45-.39.91-.76,1.35-1.16a30.32,30.32,0,0,0,2.4-2.66l.56-.7.51-.75.26-.39c.17-.25.35-.49.5-.74.3-.5.56-1.08.84-1.62l.85-1.66a2.48,2.48,0,0,0,.2-.54l.21-.61.4-1.23c.57-1.76,1.15-3.52,1.72-5.28.2.36.27.63.42.95a1.77,1.77,0,0,0,.14.3.93.93,0,0,0,.1.17c.56,2,1,3.74,1.53,5.69a39,39,0,0,1,1.05,6.81,33.85,33.85,0,0,1-.44,8.57,24.7,24.7,0,0,1-3,8.22,22.3,22.3,0,0,1-5.91,6.5A29.23,29.23,0,0,1,215.41,407a53.65,53.65,0,0,1-11.65,1,67.79,67.79,0,0,1-11.33-.81,40.52,40.52,0,0,1-10.94-3.39,43.23,43.23,0,0,1-9.14-6.14c-1.31-1.19-2.63-2.35-3.77-3.61l-1.75-1.84-1.62-1.9c-1.09-1.24-2.07-2.52-3-3.78-.48-.63-1-1.25-1.42-1.88L159,382.21c-2.94-4.06-5.34-7.87-7.49-11.15,4.47.91,8.38,1.72,11.78,2.47l2.45.54,1.76.43,3.2.82c-1,.14-2.08.25-3.22.35l-1.74.13c-.58,0-1.11.09-1.59.14-1.93.21-3.07.51-3.48.87a30.74,30.74,0,0,0,3.25,2.88,3.38,3.38,0,0,0,.46.27.61.61,0,0,1,.21.11l.57.63c.74.83,1.51,1.59,2.22,2.37,1.4,1.57,2.77,2.91,3.9,4.17s2.16,2.23,2.86,3.11a39.45,39.45,0,0,0,8.92,7.75,33,33,0,0,0,10.7,4.14,68.06,68.06,0,0,0,11.46,1.22,43.68,43.68,0,0,0,11-.9,22.76,22.76,0,0,0,9.43-4.34,18.46,18.46,0,0,0,5.77-8,26.93,26.93,0,0,0,1.62-9.61c0-.41,0-.81,0-1.21l0-.54,0-.36c0-.48-.09-1-.16-1.4a18.22,18.22,0,0,0-.55-2.59c-.05.2-.11.4-.17.59l-.1.28a.91.91,0,0,1-.1.24,13.54,13.54,0,0,1-.77,1.71l-.43.76-.79,1.2a27.51,27.51,0,0,1-4.41,5,30,30,0,0,1-11.09,6.18,41.18,41.18,0,0,1-11.83,1.73l-2.86-.08-1.41,0-1.4-.15-2.77-.31c-.91-.15-1.82-.34-2.71-.52a33.82,33.82,0,0,1-13.93-6.25,25.87,25.87,0,0,1-4.86-4.86A15.58,15.58,0,0,1,170.6,376.42Z"></path><path class="cls-2 color-body" d="M133.38,480.11s4.26,4.34,7.71,3.66,6.68-5.66,8.08-9.2C149.17,474.57,133.3,477.13,133.38,480.11Z" style="fill:#ffffff;--backup-fill:#ffffff"></path><path class="cls-3" d="M131,393.59s-11.69,18.46-13.73,28.05-9,18.85-9,18.85-11.53,13.11,0,20.68,12,3.59,12.65,9.06c.48,4,21.12.23,24.18-1.32s9-3,11.37-3.74,10.1-1.62,9.93-11.82S160,439.28,159,438.2c0,0,1.8-18.82,2.3-23.17C162.45,404.94,155.82,357.2,131,393.59Z"></path><path d="M130.94,393.56c.05-.58,1.29-3,3.72-6.14a32.23,32.23,0,0,1,4.73-5,17.9,17.9,0,0,1,3.4-2.3,10.5,10.5,0,0,1,4.41-1.2,8.86,8.86,0,0,1,2.45.31,9.42,9.42,0,0,1,2.27,1,13.12,13.12,0,0,1,3.46,3.25,30,30,0,0,1,4.09,7.84,78.59,78.59,0,0,1,3.46,13.79c.26,1.58.49,3.17.64,4.81a34.08,34.08,0,0,1,.16,5.11q-.3,4.82-.61,9.75c-.23,3.26-.46,6.56-.69,9.88l-.1,1.25,0,.6v.41c0,.07.14.11.21.16l.15.12.08.07.27.25c.35.32.7.68,1,1a20.05,20.05,0,0,1,1.88,2.32,22.13,22.13,0,0,1,3.8,11.09,20.27,20.27,0,0,1-.34,6.05,13,13,0,0,1-3,6.05,14.14,14.14,0,0,1-5.54,3.66c-1,.37-1.91.63-2.68.85l-2.31.71c-1.6.48-3.14.93-4.62,1.41a32.77,32.77,0,0,0-4.06,1.53l-.37.18a8.43,8.43,0,0,1-.84.36c-.49.2-.88.32-1.28.45-.8.25-1.53.44-2.28.62-1.48.37-2.93.67-4.39.95a78.17,78.17,0,0,1-8.87,1.15,34.52,34.52,0,0,1-4.78,0,14.23,14.23,0,0,1-2.86-.47,7.82,7.82,0,0,1-2-.83l-.28-.17-.33-.25c-.22-.18-.44-.37-.64-.57a7.17,7.17,0,0,1-.65-.86,4.35,4.35,0,0,1-.49-1c-.06-.2-.11-.39-.16-.59l-.06-.3,0-.16,0-.17,0-.36v-.07h0c.44.15-1.7-.62-3-1.21a52.84,52.84,0,0,1-7.7-4.38,17.39,17.39,0,0,1-3.9-3.53,13.32,13.32,0,0,1-2.5-5,13.88,13.88,0,0,1-.25-5.38,19.11,19.11,0,0,1,1.3-4.7,28.45,28.45,0,0,1,4.7-7.54h0l.46-.61.51-.71,1-1.44c.65-1,1.28-1.95,1.87-2.94a58.39,58.39,0,0,0,3.14-6c.23-.5.44-1,.63-1.51s.41-1,.57-1.51.36-1,.49-1.51.31-1.08.47-1.61a41.48,41.48,0,0,1,2.6-6.68,112.43,112.43,0,0,1,6.3-11.24c2.17-3.44,4.33-6.62,6.49-9.57-1.06,3.25-2.46,7.11-4,11.24s-3.1,8.53-4.31,12.74c-.29,1.05-.57,2.09-.78,3.08a14.21,14.21,0,0,0-.27,1.46c-.09.52-.17,1-.26,1.54a35.61,35.61,0,0,1-1.71,6.52,39.34,39.34,0,0,1-4.48,8.93q-.75,1.08-1.53,2.1l-.77,1-.84,1-.1.11-.09.11c-2.55,2.71-4.67,6.3-4.93,9.46a6.59,6.59,0,0,0,1.08,4.33,9.68,9.68,0,0,0,1.64,1.84c.36.27.64.53,1.07.82l1.24.85a44.4,44.4,0,0,0,5,3c.87.43,1.68.78,2.68,1.18.31.14.59.23.93.4a5.55,5.55,0,0,1,1,.54,3.73,3.73,0,0,1,1.41,1.66,8.65,8.65,0,0,1,.55,2.11l.1.86V470c.69-.06-.92.15-.75.12h0s0,0,.1,0a.69.69,0,0,0,.13-.11s.13-.11.21-.2l.12-.13s0,0,0,0,0,0,.06,0a2,2,0,0,0,.35.16,6.5,6.5,0,0,0,1.13.26,28,28,0,0,0,5.51.1,74,74,0,0,0,11.13-1.59c.9-.2,1.79-.41,2.62-.67a8.83,8.83,0,0,0,1.08-.4c.47-.23.93-.43,1.39-.61,1.83-.72,3.62-1.26,5.39-1.79l2.64-.75,2.61-.78c.92-.24,1.7-.45,2.46-.73a9.68,9.68,0,0,0,2.09-1c2.59-1.57,3.69-4.55,3.66-7.69a21,21,0,0,0-.09-2.37,19.86,19.86,0,0,0-.38-2.31,16.38,16.38,0,0,0-1.55-4.27A15.69,15.69,0,0,0,160,441.6c-.12-.13-.26-.26-.4-.39l-.2-.19-.1-.09-.16-.14-1.29-1.15-.65-.59c-.16-.09-.09-.25-.09-.4l0-.43c0-.58.09-1.17.14-1.76q.84-9.7,1.62-18.79c.06-.75.13-1.5.19-2.24l.1-1.05c0-.32,0-.66,0-1,0-1.37,0-2.79-.13-4.19a76.69,76.69,0,0,0-1.06-8.26,64.83,64.83,0,0,0-1.89-7.77,31,31,0,0,0-3-6.85c-1.21-1.92-2.94-4-5.29-4.45s-5.33.85-7.69,2.57a42.36,42.36,0,0,0-6,5.43C132.64,391.53,131.52,392.9,130.94,393.56Z"></path><path d="M156.41,402.85c.21.19.19,1.95-.38,3.89a22.14,22.14,0,0,1-2.24,5.13,11.73,11.73,0,0,1-2.21,2.88,6.44,6.44,0,0,1-1.74,1.16,3.35,3.35,0,0,1-1.28.3,2.59,2.59,0,0,1-1.5-.42,2.8,2.8,0,0,1-.61-.53,3.83,3.83,0,0,1-.4-.62,5.21,5.21,0,0,1-.41-1.16,9.17,9.17,0,0,1-.15-2,30.66,30.66,0,0,1,.16-3.61,27.52,27.52,0,0,1,1.25-6,26.6,26.6,0,0,1,2.48-5.3,20.55,20.55,0,0,1,6.75-7c-.57,1.24-1.33,2.77-2,4.19a23.81,23.81,0,0,1-1.8,3.29,21.18,21.18,0,0,0-4,7.76,26.08,26.08,0,0,0-.87,7.72,3.23,3.23,0,0,0,.41,1.44.79.79,0,0,0,.88.35,5.22,5.22,0,0,0,2.37-1.61,20.76,20.76,0,0,0,3.19-4.82c.37-.78.91-1.85,1.31-2.84S156.3,403.15,156.41,402.85Z"></path><path d="M141.36,462.11c-.16-.29.47-2,1.06-4.08a23.49,23.49,0,0,0,1.06-5.72,10.33,10.33,0,0,0-.39-3.33,2.37,2.37,0,0,0-1.83-1.74,4.6,4.6,0,0,0-1.49,0,2.69,2.69,0,0,0-1.21.46A4.34,4.34,0,0,0,137,450a21.11,21.11,0,0,0-.82,5.86c-.05,2,0,4,.11,5.95.22,3.85.55,7.36.76,10.18-1.8-2.16-3.46-7-3.41-8.77a77.47,77.47,0,0,1,.54-10.13,17,17,0,0,1,1.22-4.53,5.41,5.41,0,0,1,3.34-3.14,6.55,6.55,0,0,1,2.23-.17,4.26,4.26,0,0,1,2.14.73,4.11,4.11,0,0,1,1.43,1.73,7,7,0,0,1,.52,2,16.68,16.68,0,0,1-.94,6.88A26,26,0,0,1,141.36,462.11Z"></path><path d="M123,462.32c-.26-.1-.86-1.64-1.22-3.52a22.41,22.41,0,0,1-.4-5.33,7.47,7.47,0,0,1,.89-3.52,3.33,3.33,0,0,1,1.84-1.55,3.11,3.11,0,0,1,2.59.47,8.16,8.16,0,0,1,2.53,3.1c.28.55.48,1.16.72,1.74s.31,1.17.47,1.75a27.58,27.58,0,0,1-.55,11.37,37,37,0,0,1-3.13,8.58,24.06,24.06,0,0,1,.21-8.15,26.44,26.44,0,0,0,1.66-8.27,12.6,12.6,0,0,0-1.61-7c-.56-.92-1.39-1.78-2.08-1.8s-1.19.67-1.51,1.52a15.27,15.27,0,0,0-.6,5.38c0,.83,0,2,.07,3S123,462,123,462.32Z"></path><path d="M138,396.06a4.14,4.14,0,0,1,.14-1.77c.16-.88.5-1.86.58-2.43a17.36,17.36,0,0,1,2.72-5.92,14.19,14.19,0,0,1,7.74-5.8,9.89,9.89,0,0,1-2.45,3.08,12.84,12.84,0,0,0-5.33,5.22,39.4,39.4,0,0,0-2.27,5.34A15,15,0,0,1,138,396.06Z"></path><path d="M144.32,390.4a9.84,9.84,0,0,1,.63-2.29,20.7,20.7,0,0,1,1.33-3.3,19,19,0,0,1,2.86-4.48,4.13,4.13,0,0,1-.51,2.15c-2.09,2.55-2.75,5-3.58,6.7A11.74,11.74,0,0,1,144.32,390.4Z"></path><path class="cls-3" d="M125.14,475.86l-.57,4.26s9.14,4,29.23-7.38a9.74,9.74,0,0,0,4.69-7.23S143.79,475.23,125.14,475.86Z"></path><path d="M125.13,475.83c.32-.36,3.35-.6,6.8-1.22a57.73,57.73,0,0,0,9.34-2.52c2.43-.95,4.94-2,7.45-3.23l1.88-.92.93-.48.47-.24c.32-.15.59-.31.89-.48,1.19-.66,2.32-1.21,3.68-2.1l2-1.27,2.18-1.42,0,.92v.3a2.24,2.24,0,0,1-.07.55l-.45,2.73a11.51,11.51,0,0,1-2.53,5.51,12.08,12.08,0,0,1-1.77,1.74c-.21.16-.43.32-.67.48s-.55.33-.71.42l-2.36,1.29c-.77.44-1.58.84-2.4,1.22s-1.61.78-2.43,1.13a51.43,51.43,0,0,1-9.87,3.22,28.84,28.84,0,0,1-9.54.56,10.45,10.45,0,0,1-1.12-.18l-.58-.11c-.26-.06-.52-.14-.77-.21a8.59,8.59,0,0,1-1.38-.49l-.32-.14-.16-.08s0-.11,0-.17l.08-.7c0-.45.16-.94.24-1.39l.07-.32,0-.23.11-.46c.15-.6.29-1.19.43-1.76.14.54.26,1.15.37,1.79,0,.32.1.64.15,1s.11.53.16.74l.09.28c.06.07.28,0,.39,0a3.55,3.55,0,0,0,.71-.07c.11,0,.16,0,.33,0l.52,0,1-.11c2.71-.33,5.19-1,6.56-1.1a46.38,46.38,0,0,0,15.24-4.53l3.35-1.7a6.06,6.06,0,0,0,1.94-1.65,5.53,5.53,0,0,0,1-1.92,3.21,3.21,0,0,0,.15-.95l-.91.58c-.61.36-1.19.7-1.75,1l-.82.44-1.44.72c-1.91.91-3.79,1.75-5.65,2.45a54.39,54.39,0,0,1-10.72,3c-.81.13-1.79.24-2.8.33s-2.08.06-3.07.07C127.38,476.06,125.69,475.87,125.13,475.83Z"></path><path class="cls-4" d="M175.64,431.64s-4.64,34.56-4.9,48.09c0,0,14.23-14.3,17.46-14.56,0,0,11.4,5.64,14.71,11.5,0,0-.11-36.43-3-45.59Z"></path><path d="M175.64,431.61c.64-.33,6.81-.62,13.93-.91l5.46-.21,2.73-.1,1.67-.06.92,0h.1l0,.11.06.2.11.41c.15.55.3,1.1.44,1.63.09.3.11.48.16.69l.12.62c.16.82.33,1.61.43,2.36.25,1.5.45,2.85.6,4,.82,5.83,1.3,12,1.66,18.27.18,3.14.31,6.3.42,9.47.09,1.78.27,9.95.22,14.66l-2.61-3.95c-.45-.67-.82-1.15-1.23-1.74l-.61-.84a6.86,6.86,0,0,0-.6-.78c-.39-.41-.78-.81-1.17-1.15l-.4-.37a3.88,3.88,0,0,0-.31-.26c-.41-.33-.8-.69-1.24-1a53.49,53.49,0,0,0-5.32-3.55c-.64-.38-1.28-.74-1.92-1.09l-1-.52-.24-.12-.06,0h0s-.13.06-.2.11c-.34.19-.72.43-1.09.68-.74.52-1.49,1.09-2.22,1.69-1.48,1.19-2.91,2.45-4.32,3.71s-2.77,2.53-4.11,3.8l-1.63,1.55-2,1.92-3.87,3.84c.09-2.31.18-4.59.27-6.87,0-.55,0-1.11.09-1.69l.11-1.61c0-.58.09-1.17.13-1.74.2-2.32.43-4.58.67-6.8.49-4.43,1-8.69,1.62-12.74,1.14-8.09,2.37-15.37,3.56-21.58a216.49,216.49,0,0,1-1.07,30.5c-.48,3.14-.91,6.24-1.26,9.22-.09.75-.17,1.49-.25,2.22l-.12,1.09v.25l0,.18c0,.23-.08.5-.12.79l0,.45,0,.23v.12s0,.1,0,.06L173,476c.34-.29.49-.41,1.4-1.23q2.19-2,4.36-3.87c1.46-1.26,2.91-2.47,4.39-3.62.75-.57,1.5-1.12,2.29-1.64.39-.26.81-.5,1.24-.73a4.42,4.42,0,0,1,1.72-.52c1.1.56,1.63.86,2.35,1.27s1.35.78,2,1.18q2,1.2,3.84,2.53a38.24,38.24,0,0,1,3.5,2.79,11.24,11.24,0,0,1,1.75,1.93,3.82,3.82,0,0,0,.29.41v-.57l0-1.1-.06-2.45q-.12-3.54-.22-6.93c-.18-4.54-.39-8.9-.67-13.09s-.6-8.21-1.06-12.05c-.13-1-.23-1.91-.38-2.84l-.24-1.37-.12-.69-.09-.41-.19-.78a6.12,6.12,0,0,0-.62,0l-2.63,0C189.23,432.28,177.87,431.75,175.64,431.61Z"></path><path class="cls-5" d="M193.72,429.51v37.91s5.52,3.25,8.39,7.14c0,0-.9-33.2-2.25-40.16S193.72,429.51,193.72,429.51Z"></path><path class="cls-6" d="M180.69,469.22l2.4-36.31s-4.92-18.87-7.62.47S171,478.67,171,478.67Z"></path><path class="cls-4" d="M187.6,395.34s-1.29-5.51-6.2-4.8-4.53,5.93-3.63,7.22c0,0-7.49-4.18-10.32,0-2.93,4.34-4.2,8.92,2.44,12.28,0,0-6.68-.4-6.68,5.34s6.64,5.49,9.19,4.73c0,0-9.19,3.77-6.51,9,2.15,4.21,7.41,3.23,11.24,0,0,0-4,7,5,10s7.82-7.41,7.82-7.41,1.26,7.37,6.75,5.86,8.65-6.51,5.35-11.47c0,0,6.39,2.82,9.33-2.23s-1.28-9.77-3.7-9.77c0,0,8.13-1.79,4.7-8.68s-8.15-4-9-3.32c0,0,3-8.23-3.44-10.6C194,389.33,188,390.23,187.6,395.34Z"></path><path d="M187.57,395.34a4.23,4.23,0,0,1,.86-3,5.48,5.48,0,0,1,2.42-1.83,9.88,9.88,0,0,1,3.7-.62,16.41,16.41,0,0,1,4.22.65,8.14,8.14,0,0,1,4.2,2.35,7.8,7.8,0,0,1,1.67,4.81c0,.41,0,.91,0,1.23s-.05.53-.09.79-.09.52-.15.76l-.1.37,0,.09s0,0,.06,0l.16-.11a4.07,4.07,0,0,1,1.57-.6,4.47,4.47,0,0,1,.64-.05,6,6,0,0,1,.73,0,3.43,3.43,0,0,1,.71.14,2.78,2.78,0,0,1,.69.22,6.8,6.8,0,0,1,1.25.67,9.62,9.62,0,0,1,1,.88,10.91,10.91,0,0,1,1.52,2,8.76,8.76,0,0,1,1.49,4.47,5.58,5.58,0,0,1-1.55,3.91l-.58.57c-.18.15-.46.36-.58.45a4.39,4.39,0,0,1-.56.36,4.8,4.8,0,0,1-.57.26l-.15,0h.11a2.37,2.37,0,0,1,.36.09,3.27,3.27,0,0,1,.49.27c.07.06.15.11.21.17l.11.1.23.24a8.38,8.38,0,0,1,1.55,2.59,7.87,7.87,0,0,1-.28,6.18,8,8,0,0,1-1.91,2.67,7.23,7.23,0,0,1-3.05,1.57,8.66,8.66,0,0,1-1.66.25h-1.13a2.55,2.55,0,0,1-.6-.12,3.67,3.67,0,0,1,.27.52s0,.08,0,.13a2.29,2.29,0,0,1,0,.24l.06.41a7.6,7.6,0,0,1,0,1.65,7.85,7.85,0,0,1-1.05,3.13,9.21,9.21,0,0,1-2.08,2.47,11.54,11.54,0,0,1-2.66,1.7,11.39,11.39,0,0,1-3.1,1,6.17,6.17,0,0,1-3.71-.71c-.26-.17-.54-.33-.79-.53l-.34-.3-.17-.15c.08.06,0,0,0,0l-.09-.11a.74.74,0,0,1-.13-.27,2.28,2.28,0,0,1,0,.37l0,.06s0,0,0,0l-.07.16-.07.15s0,.1-.1.17l-.14.22a4.92,4.92,0,0,1-.61.85c-.26.26-.5.53-.78.76s-.61.41-.93.61a6.14,6.14,0,0,1-1,.4l-.51.16-.5.07-1,.1c-.31,0-.61,0-.92-.06a8.44,8.44,0,0,1-.91-.1l-.84-.2-.83-.22c-.27-.08-.53-.19-.79-.28a12.83,12.83,0,0,1-1.54-.67,10.26,10.26,0,0,1-2.54-1.76,6.91,6.91,0,0,1-1.07-1.26,6.81,6.81,0,0,1-1.07-2.3,4.19,4.19,0,0,1-.17-.81l-.09-.7h0v0l0,0h0s.06,0-.08,0-.55.19-.83.28a9.62,9.62,0,0,1-3.63.41,6.87,6.87,0,0,1-3.68-1.47,7.39,7.39,0,0,1-1.35-1.45l-.49-.8a8.27,8.27,0,0,1-.38-.91,6.42,6.42,0,0,1-.4-2,6.64,6.64,0,0,1,.36-2,8.07,8.07,0,0,1,1.91-3l.4-.4h0l.12,0h0s0,0-.07,0,0,0,0,0h0l-.17-.06a4.76,4.76,0,0,1-.7-.3,6.11,6.11,0,0,1-2.4-2,6.17,6.17,0,0,1-1.07-2.83,8.87,8.87,0,0,1,.16-2.72,6.06,6.06,0,0,1,1.22-2.51,6.43,6.43,0,0,1,2.13-1.62l.57-.24.28-.1h0a.9.9,0,0,1,.16,0h.33l-.19-.12-.11-.1-.21-.18-.61-.65a6.49,6.49,0,0,1-.59-.79,6.35,6.35,0,0,1-.84-1.81,7.3,7.3,0,0,1,0-3.77,13.24,13.24,0,0,1,1.27-3.12c.26-.46.53-.92.82-1.35l.21-.32c.08-.11.19-.24.29-.36a4.64,4.64,0,0,1,.64-.69,5.47,5.47,0,0,1,3.28-1.32,9.74,9.74,0,0,1,3.09.24c.24,0,.47.12.71.18l.34.1c.12,0,.14.05.21.07a4.54,4.54,0,0,1,.59.25,5.46,5.46,0,0,1,.77.41l-.06-.12a2.09,2.09,0,0,1-.11-.79,2.66,2.66,0,0,1,0-.28l0-.28a2.29,2.29,0,0,1,.07-.36,5.92,5.92,0,0,1,.44-1.37,5.07,5.07,0,0,1,1.78-2.12,5.82,5.82,0,0,1,2.32-.92,6.78,6.78,0,0,1,2.29,0,5.69,5.69,0,0,1,3.51,2.19,8.79,8.79,0,0,1,1.52,3.31,8.87,8.87,0,0,0-2-3,4.83,4.83,0,0,0-3.43-1.42,5,5,0,0,0-3.45,1.35,3.53,3.53,0,0,0-.88,1.55,4.67,4.67,0,0,0-.15.91l0,.59c0,.28.09.59.13.9a3.87,3.87,0,0,0-.45,1.7l0,.16a2.62,2.62,0,0,0-1.42.64l-1.29-.54-1.13-.38c-.47-.11-.94-.2-1.39-.27a6.19,6.19,0,0,0-2.47.12,2.71,2.71,0,0,0-1.52,1.11,20.58,20.58,0,0,0-1.3,2.26,9.59,9.59,0,0,0-.72,2.11,4.78,4.78,0,0,0,0,1.77,3.76,3.76,0,0,0,.24.74,3,3,0,0,0,.36.66,3.62,3.62,0,0,0,.44.59c.09.1.11.16.25.3l.56.47.56.49.28.24.44.24,1.69.93,3.07,1.65.08,0-2.86,0-1.55,0-.75,0c-.24,0-.42.05-.63.07a4.65,4.65,0,0,0-1.15.2l-.5.14-.24.07-.11,0a4.72,4.72,0,0,0-.81.41,3.8,3.8,0,0,0-1.15,1.18,4.13,4.13,0,0,0-.42,1.63,3.39,3.39,0,0,0,2.23,3.86l.2.07.12,0,.22.06c.29.06.62.07.93.11a8.89,8.89,0,0,0,2.4-.16,1.38,1.38,0,0,0,.26.41c.09.1.19.25.26.32a2,2,0,0,0,.43.31.84.84,0,0,0,.37.12,1,1,0,0,0,.34,0l.21-.05a2.2,2.2,0,0,0-.62.66,1.87,1.87,0,0,0-.25.51,2.7,2.7,0,0,0-.18.67l-.68.34-.57.35a10.45,10.45,0,0,0-1.07.71l-.92.73-.46.47a5.14,5.14,0,0,0-1.22,2.06,3.42,3.42,0,0,0,.3,2.16,4.07,4.07,0,0,0,1.53,1.72,5.6,5.6,0,0,0,4.65.14c.16-.07.47-.17.77-.32a8.09,8.09,0,0,0,.9-.5c.58-.31,1.25-.84,1.86-1.26s1.25-.93,1.77-1.35c.76-.65.53-.28,1-.49-.54,1.14-1.1,2.38-1.51,3.37a13,13,0,0,0-.49,1.36,3.27,3.27,0,0,0-.2,1.11,4.73,4.73,0,0,0,0,.49l0,.31a2.44,2.44,0,0,0,.11.61,5,5,0,0,0,.43,1.13,7.48,7.48,0,0,0,3.92,3,7.34,7.34,0,0,0,4.76.57,3.11,3.11,0,0,0,1.71-1.25l.31-.48.3-.76a3.62,3.62,0,0,0,.22-.94,5.1,5.1,0,0,0,.14-1.12,2.9,2.9,0,0,0,.52-.65l.17-.32.09-.31a2.58,2.58,0,0,0,.12-.59c0-.18,0-.42,0-.52a3,3,0,0,0,.19.58,2.06,2.06,0,0,0,.3.54,2.25,2.25,0,0,0,.44.49,4.07,4.07,0,0,0,.69.42c.17.38.33.86.52,1.18s.4.59.61.86l.08.09.09.08.11.1.22.19.48.31a3.51,3.51,0,0,0,2.17.34l.58-.12a5.16,5.16,0,0,0,.6-.19,11.84,11.84,0,0,0,1.17-.46,9.33,9.33,0,0,0,2.05-1.35,6.16,6.16,0,0,0,2.19-4,5.14,5.14,0,0,0,0-1.11l0-.27,0-.14a1.58,1.58,0,0,0,0-.25,8.44,8.44,0,0,0-.38-1,19.62,19.62,0,0,0-1-2c-.19-.36-.37-.64-.55-1s-.41-.65-.52-.9c.74.3,1.61.63,2.44.93l1.21.42c.39.12.73.17,1.1.26a6.88,6.88,0,0,0,1,.11h.62a6.56,6.56,0,0,0,1.19-.17,4.61,4.61,0,0,0,2-1,6,6,0,0,0,1.62-6.2,5.93,5.93,0,0,0-1.09-1.91,1.88,1.88,0,0,0-.2-.21,3.8,3.8,0,0,0-.35-.34,1.31,1.31,0,0,0-.57-.28l-.69-.25c-1.07-.33-2.9-.68-5.19-1.14l.34-.11.14-.06.28-.12.29-.12c.07,0,0,0,0,0l0,0h0l.16,0,.75-.19c1-.28,2.15-.58,3.11-.88a8.19,8.19,0,0,0,1.31-.49l.56-.29a1.82,1.82,0,0,0,.27-.15l.19-.13a4.78,4.78,0,0,0,.93-.85,3.35,3.35,0,0,0,.88-2.08,3.75,3.75,0,0,0,0-.58v-.3l-.08-.3-.14-.61-.25-.6a8.15,8.15,0,0,0-3.06-3.93,3.68,3.68,0,0,0-2.12-.47,6.63,6.63,0,0,0-1,.25c-.4.21-.75.35-1.21.64-.85.49-1.83,1.12-2.63,1.64a1.1,1.1,0,0,0,0-.26c0-.05,0,0,0-.13l.08-.24c.31-.91.64-2,.94-2.95.15-.5.23-1,.33-1.44,0-.23.07-.47.09-.69a4.7,4.7,0,0,0,0-.47,7.61,7.61,0,0,0-.51-3.47,5,5,0,0,0-2.45-2.52,16.22,16.22,0,0,0-3.71-1.25c-2.5-.55-5.05-.38-6.67.72a4.67,4.67,0,0,0-1.63,1.89A7,7,0,0,0,187.57,395.34Z"></path><circle class="cls-5" cx="188.32" cy="412.61" r="12.68"></circle><path d="M201,412.61a10.9,10.9,0,0,1-.56-2.18,13.82,13.82,0,0,0-1.79-4.09,12.16,12.16,0,0,0-3.61-3.57,10.21,10.21,0,0,0-3.81-1.48,11.92,11.92,0,0,0-10.28,3.15,11,11,0,0,0,1.68,17.19,11.31,11.31,0,0,0,8.22,1.6,11.67,11.67,0,0,0,6.8-4,12.76,12.76,0,0,0,1.93-3.2,14.16,14.16,0,0,0,.89-3.39,9.24,9.24,0,0,1,.56,3.84,11.24,11.24,0,0,1-1.34,4.53,11.66,11.66,0,0,1-2.95,3.57,9.38,9.38,0,0,1-3,1.67,14.42,14.42,0,0,1-4.83.61,14.73,14.73,0,0,1-4.52-.86,14.42,14.42,0,0,1-6.77-5.08A13.84,13.84,0,0,1,181,401.18a13.62,13.62,0,0,1,6.13-2.25A13.13,13.13,0,0,1,198,402.88a11.75,11.75,0,0,1,2.85,5.44A12.08,12.08,0,0,1,201,412.61Z"></path></g></g></g></g></svg>