<svg xmlns="http://www.w3.org/2000/svg" id="new" viewBox="0 0 380 600"><defs transform="matrix(-1, 0, 0, 1, 380, 0)"><style>.cls-1{fill:#ffd635;}.cls-2{fill:#fffffe;}.cls-3{fill:#172e35;}.cls-4{fill:#fff8b8;}.cls-5{opacity:0.4;}</style></defs><g id="default" transform="matrix(-1, 0, 0, 1, 380, 0)"><path class="cls-1" d="M160.25,391.07c-7.58,9.51-14.23,22.31-22.21,41.29-8.86,21.06-18.84,37.36-29.71,32.71-13.63-5.84-16.27-35.9-15.28-55.79,1.15-23,12.26-51.31,38.87-58.08,17.73-4.51,27,11,27,11" style="" /><path d="M158.87,362.21c-.54-.26-2.21-2.49-5.34-5a28.72,28.72,0,0,0-5.74-3.59,22.87,22.87,0,0,0-7.64-1.89,24.52,24.52,0,0,0-8.37,1,39.49,39.49,0,0,0-7.89,3.15,40.83,40.83,0,0,0-6.45,4.2,40.13,40.13,0,0,0-4.54,4.27c-8.39,9.29-13.53,22.23-15.51,35.58A83.28,83.28,0,0,0,96.5,410c-.11,3.43-.1,6.87,0,10.28a124.72,124.72,0,0,0,2.17,19.85,73.7,73.7,0,0,0,2.08,8.06,36.72,36.72,0,0,0,3.15,7.23,15.83,15.83,0,0,0,4.49,5.16l.64.41.67.33a6,6,0,0,0,1.25.44,5,5,0,0,0,2.41,0,12.36,12.36,0,0,0,5.32-3.39,40.18,40.18,0,0,0,4.83-5.87,114.14,114.14,0,0,0,7.79-13.63c1.15-2.33,2.26-4.67,3.32-7s2.15-4.7,3.23-7c2.18-4.57,4.39-9,6.69-13.11s4.67-8.06,7.13-11.66a88.77,88.77,0,0,1,7.67-9.74c-1.53,3.24-3.33,7.14-5.1,11.35s-3.54,8.75-5.21,13.17c-3.35,8.87-6.31,17.19-8.48,21.5s-4.45,8.54-6.89,12.6a75.56,75.56,0,0,1-8.26,11.54,29.13,29.13,0,0,1-5.41,4.82,16,16,0,0,1-3.36,1.77,11.93,11.93,0,0,1-3.86.81,11.33,11.33,0,0,1-3.9-.53,13.76,13.76,0,0,1-3.35-1.65,18.84,18.84,0,0,1-5-4.93A39.88,39.88,0,0,1,95.22,449a86.83,86.83,0,0,1-2.52-12,154.2,154.2,0,0,1-1.42-23.11c0-15,3.31-29.2,9.86-40.88a53,53,0,0,1,12.38-15,43.16,43.16,0,0,1,16.22-8.34c.68-.17,1.36-.41,2.13-.53l2.38-.38a17.36,17.36,0,0,1,2.53-.16l1.3,0c.44,0,.88.08,1.32.12a23,23,0,0,1,9.93,3.31,27,27,0,0,1,6.65,5.83A23.93,23.93,0,0,1,158.87,362.21Z" /><path class="cls-2" d="M93.32,430.71a49.57,49.57,0,0,1-.67,12.05,3.75,3.75,0,0,0,.13,2.63,3.62,3.62,0,0,0,1,.95c8.17,6.2,21.45,7.22,31,4.33a8.1,8.1,0,0,0,2.73-1.26,9.17,9.17,0,0,0,2.23-3l7-12.84" style="" /><path d="M136.71,433.56c.28.8-4.64,9.74-6.22,13.37a11.65,11.65,0,0,1-1.39,2.53,6.6,6.6,0,0,1-2.59,2,21.15,21.15,0,0,1-2.8,1c-.93.29-1.88.52-2.84.73A41,41,0,0,1,115,454a44,44,0,0,1-5.75-.09,34,34,0,0,1-9.56-2.12,27.63,27.63,0,0,1-4.34-2.11l-1-.62-.95-.7c-.32-.24-.63-.45-1-.71a5.6,5.6,0,0,1-1.1-1.18,3.72,3.72,0,0,1-.59-1.81,5.33,5.33,0,0,1,.1-1.44c.15-.8.31-1.35.44-2,.28-1.27.5-2.52.69-3.73.38-2.42.6-4.68.73-6.72a19.57,19.57,0,0,1,2,7.14,23.84,23.84,0,0,1,.08,3.74c0,.56-.1,1.07-.17,1.52s-.13.72-.17.9-.07.31-.09.35a.11.11,0,0,0,0,.14,5.09,5.09,0,0,0,1.05,1,11.55,11.55,0,0,0,1.36,1.06,13.68,13.68,0,0,0,1.44.94,25,25,0,0,0,6.17,2.63,34.57,34.57,0,0,0,12.3,1.1,35.31,35.31,0,0,0,5.52-.94c1.71-.47,3.54-.92,4.57-1.76s1.7-2.35,2.51-3.78,1.55-2.76,2.33-4.05A76.58,76.58,0,0,1,136.71,433.56Z" /><path class="cls-3" d="M162.85,386.52c-9.83,14.4-17.37,29.3-22.24,46a16.86,16.86,0,0,1-2.29,5.47c-3.94,5.32-16.49,6.62-22.59,6.25-7.52-.46-15.88-2.53-22-7a6,6,0,0,1-2-2.09c-.65-1.35-.33-2.93,0-4.39,4.85-23.1.81-46.86,15.88-67,5.76-7.72,14.18-13.89,23.77-15.34s22.23,2.49,27,10.8" style="" /><path d="M158.33,359.14a13.74,13.74,0,0,1-1.47-1.62c-.42-.4-.83-.94-1.42-1.43l-.9-.81-1-.81a30.76,30.76,0,0,0-20.67-5.27,28.73,28.73,0,0,0-7.56,2,34.37,34.37,0,0,0-10.73,7.09,49.57,49.57,0,0,0-10.15,14.61,68.84,68.84,0,0,0-5.22,17.86c-2.06,12.5-1.9,25.71-4.19,38.3l-.37,2.06a15.7,15.7,0,0,0-.28,1.71,2.1,2.1,0,0,0,0,.88c0,.11.06.17.33.44a9.22,9.22,0,0,0,1.23.95c.49.35,1,.67,1.52,1a31.31,31.31,0,0,0,3.26,1.68,45.17,45.17,0,0,0,14.49,3.45,44.41,44.41,0,0,0,14.41-1.37,26.58,26.58,0,0,0,3.19-1.13,11.6,11.6,0,0,0,2.53-1.56,2.23,2.23,0,0,0,.47-.44c.13-.16.29-.29.41-.46a6.58,6.58,0,0,0,.7-1.17A21.65,21.65,0,0,0,138,432a141.3,141.3,0,0,1,11-25.92,155,155,0,0,1,13.1-20c-2.59,6-6.6,14.36-9.83,22.46s-5.82,15.79-7.35,19.79c-.8,2-1.48,4-2.21,6.08a21.75,21.75,0,0,1-1.45,3.38,11.23,11.23,0,0,1-1.13,1.68l-.71.77-.36.37-.38.31a18.62,18.62,0,0,1-6.42,3.24,39.52,39.52,0,0,1-6.44,1.35,54.65,54.65,0,0,1-6.35.44,43.2,43.2,0,0,1-6.27-.37,51.31,51.31,0,0,1-11.82-2.87A37.7,37.7,0,0,1,96,440.11a29.67,29.67,0,0,1-2.5-1.62,10.16,10.16,0,0,1-2.38-2.15,5.26,5.26,0,0,1-.93-3.42,19.48,19.48,0,0,1,.48-2.93c.32-1.8.72-3.57,1-5.37,1.11-7.14,1.56-14.16,2.16-21a132.19,132.19,0,0,1,2.92-19.8,59.09,59.09,0,0,1,7.17-17.53,45.28,45.28,0,0,1,12-13.17,33.78,33.78,0,0,1,15.53-6.34,31.06,31.06,0,0,1,17.74,3.45,24,24,0,0,1,6.44,4.93,20.12,20.12,0,0,1,1.79,2.33C157.83,358.21,158.13,358.77,158.33,359.14Z" /></g><g data-name="default" id="default-2" transform="matrix(-1, 0, 0, 1, 380, 0)"><path class="cls-1" d="M239.48,465c-5-30.75,35-64.11-1.65-98.8C210,339.86,172,336.6,139.3,357.1c-34.39,21.54-37,63.55-15.11,107" style="" /><path d="M124.14,464.14c-1.08-.92-7.48-12.22-11.56-26.64A105.4,105.4,0,0,1,110,426.34c-.37-1.9-.58-3.81-.85-5.69s-.4-3.76-.48-5.59a84.08,84.08,0,0,1,1-18.79,60,60,0,0,1,18.8-34.88,66.9,66.9,0,0,1,11.19-8.28,89,89,0,0,1,25.51-10.75,80.1,80.1,0,0,1,27.25-1.91l2.92.37a28.75,28.75,0,0,1,2.91.43L204,342.5l5.61,1.72a26.42,26.42,0,0,1,2.74,1l2.7,1.1a86.52,86.52,0,0,1,19.68,11.86c1.46,1.2,2.85,2.48,4.27,3.72a55.77,55.77,0,0,1,4.06,3.94c.32.34.66.67,1,1l.92,1.08,1.83,2.17c.58.76,1.13,1.54,1.69,2.3l.83,1.15c.27.39.5.81.75,1.21l1.48,2.44,1.27,2.55a23.34,23.34,0,0,1,1.13,2.61c.32.88.73,1.74,1,2.66a41.59,41.59,0,0,1,2,10.94,48.64,48.64,0,0,1-.63,10.65,70.6,70.6,0,0,1-2.33,9.86c-1.89,6.3-4.28,12.06-6.44,17.58A132,132,0,0,0,242,450a43.19,43.19,0,0,0-1.4,14.82A36,36,0,0,1,239,449.3a106.36,106.36,0,0,1,3.66-18c1.61-5.87,3.27-11.44,4.4-16.24s1.79-8.82,2.21-11.57a42.48,42.48,0,0,0,.46-8.25,34,34,0,0,0-.46-4c-.12-.67-.19-1.34-.37-2l-.51-1.95a41.08,41.08,0,0,0-7.6-14.23,73.29,73.29,0,0,0-11.6-11.36c-1.07-.82-2.12-1.65-3.18-2.47s-2.22-1.46-3.32-2.19l-1.67-1.08-.83-.53-.87-.46-3.47-1.85a30.61,30.61,0,0,0-3.53-1.65l-3.56-1.52c-1.21-.41-2.43-.8-3.64-1.19a32.33,32.33,0,0,0-3.65-1.08,64,64,0,0,0-7.39-1.48l-3.68-.51c-1.24-.09-2.47-.13-3.69-.2a75.26,75.26,0,0,0-28.06,4.15l-6.37,2.52-6.06,3-5.71,3.37c-1.83,1.19-3.61,2.4-5.29,3.73a58.28,58.28,0,0,0-15.79,18.68,63.41,63.41,0,0,0-6.6,21.9,84.58,84.58,0,0,0-.51,11,105.44,105.44,0,0,0,.79,10.63c.47,3.3,1.1,7.2,2,11.24s2,8.22,3.14,12.1C120.59,455.46,123.29,462,124.14,464.14Z" /></g><path class="cls-1" d="M234.72,440.65c-13.64-36.84,9-78.79-30.64-91.82-29.14-9.57-59.41,5.74-75.67,54.17-5.89,17.56-7.78,42.31-3.48,60h0s6,10.26,50.16,13c42.25,2.63,64.39-13,64.39-13h0C238.65,455.85,237,446.86,234.72,440.65Z" style="" transform="matrix(-1, 0, 0, 1, 380, 0)" /><path class="cls-4" d="M209.45,421.11c0,33.69-14.85,82-36.11,82s-57.84-54-57.84-87.7,25.57-31.3,46.84-31.3S209.45,392.07,209.45,421.11Z" style="" transform="matrix(-1, 0, 0, 1, 380, 0)" /><path class="cls-4" d="M209.42,421.11a72.23,72.23,0,0,0-1.43-9.48,33.34,33.34,0,0,0-3.39-8.34,30.74,30.74,0,0,0-6.89-8c-5.74-4.79-13.45-7.65-20.61-9a72.39,72.39,0,0,0-10.23-1.16c-3.14-.15-6,0-8.42,0-4.22,0-8.51.09-12.8.41A51,51,0,0,0,133,387.86a21,21,0,0,0-13.45,12.58,33.15,33.15,0,0,0-1.7,6.27,51.83,51.83,0,0,0-.38,13.23A75,75,0,0,0,120,433a126,126,0,0,0,10,24.39,153.51,153.51,0,0,0,12,19.07,104.48,104.48,0,0,0,14.75,16.36,45.92,45.92,0,0,0,8.65,6.08,16.56,16.56,0,0,0,9.35,2.18,16.93,16.93,0,0,0,8.53-4.09,38.59,38.59,0,0,0,6.54-7.52,67,67,0,0,0,5-8.64c1.45-3,2.76-6,3.89-9a149.08,149.08,0,0,0,5.5-17.94,162.49,162.49,0,0,0,4.59-32.81,109.13,109.13,0,0,1,.15,15.95,144.89,144.89,0,0,1-2.33,18.49,130.75,130.75,0,0,1-4.49,17.08,81.28,81.28,0,0,1-5.12,12,68.27,68.27,0,0,1-5,8,39.46,39.46,0,0,1-6.4,7,20.76,20.76,0,0,1-8.43,4.44,14.87,14.87,0,0,1-2.39.38,12.94,12.94,0,0,1-2.41,0l-1.2-.11c-.39-.06-.77-.17-1.15-.25l-1.15-.27c-.37-.11-.73-.25-1.09-.38a32.8,32.8,0,0,1-7.92-4.22,62,62,0,0,1-6.7-5.52A103.49,103.49,0,0,1,142,481.12a156.24,156.24,0,0,1-16.7-27.21,112.84,112.84,0,0,1-9.67-28.35,57.83,57.83,0,0,1-.84-14.34,45.57,45.57,0,0,1,1-7,32.85,32.85,0,0,1,2.3-6.62,22.76,22.76,0,0,1,9.38-9.91A36.27,36.27,0,0,1,140,383.78a97.56,97.56,0,0,1,12.52-.79c4.11,0,8.05,0,12,.05a66.41,66.41,0,0,1,22.63,4.27,44,44,0,0,1,5.22,2.46,40.13,40.13,0,0,1,5.3,3.58,31.26,31.26,0,0,1,8.25,10.21,32.89,32.89,0,0,1,3.19,10.83c.22,1.56.24,3,.31,4.09Z" style="" transform="matrix(-1, 0, 0, 1, 380, 0)" /><g class="cls-5" transform="matrix(-1, 0, 0, 1, 380, 0)"><path d="M181,486c-.72-.66-.14-11.81-.22-16.17a61.82,61.82,0,0,1,.79-12.23,24.19,24.19,0,0,1,2-6.39,15.8,15.8,0,0,1,4.34-5.43,21.79,21.79,0,0,1,4.89-2.93,44.6,44.6,0,0,1,5-1.85c3.28-1,6.47-1.78,9.51-2.47,6.08-1.34,11.59-2.36,16.08-3-3.27,3.08-10.44,6.51-13.2,6.89a78.57,78.57,0,0,0-15.22,3.32A17.49,17.49,0,0,0,189,449a12.83,12.83,0,0,0-3.42,5.2,29.05,29.05,0,0,0-1.4,5.9c-.3,2-.45,3.89-.62,5.76-.28,3.74-.47,7.25-.82,10.53A76.53,76.53,0,0,1,181,486Z" /></g><g class="cls-5" transform="matrix(-1, 0, 0, 1, 380, 0)"><path d="M140.14,476.63a2.52,2.52,0,0,1-1.17-.89,9.72,9.72,0,0,1-1.54-2.61,35.56,35.56,0,0,1-1.47-6.08c-.53-2.43-.79-5.09-1.46-7.41l-.44-2c-.11-.62-.31-1.22-.46-1.84a29.77,29.77,0,0,0-1.17-3.49c-3-7.87-9.11-14-12.73-18.57a16.51,16.51,0,0,1,4.94,2,12,12,0,0,1,3.5,2.88,51.84,51.84,0,0,1,8.1,17.78c.17.69.27,1.38.41,2.06l.1.49.11.43c.08.34.17.68.23,1,.27,1.33.42,2.61.55,3.83.27,2.45.43,4.67.75,6.67a25.71,25.71,0,0,0,.7,3.37,5.63,5.63,0,0,0,.29.79,5.74,5.74,0,0,0,.29.69C139.89,476.16,140.06,476.47,140.14,476.63Z" /></g><g class="cls-5" transform="matrix(-1, 0, 0, 1, 380, 0)"><path d="M182.82,464.51c-.18,0-.66-.27-1.31-.76s-1.44-1.19-2.38-1.84-1.87-1.43-2.83-2a19.69,19.69,0,0,0-2.45-1.41,60.54,60.54,0,0,0-14.92-5.24,59.75,59.75,0,0,0-12.85-1,79,79,0,0,0-10.71,1.15,14.48,14.48,0,0,1,4.57-3.21,13.36,13.36,0,0,1,2.62-1,7.65,7.65,0,0,1,2-.32,75.58,75.58,0,0,1,10.9,1.11c1.68.25,3.26.66,4.81,1l2.26.61,1.1.3,1.06.36c5.64,1.84,10.38,4.23,13.83,7.21a21.69,21.69,0,0,1,2.66,2.79C182,463.29,182.62,464.2,182.82,464.51Z" /></g><g class="cls-5" transform="matrix(-1, 0, 0, 1, 380, 0)"><path d="M160.84,424.37c.33-.25,2.66.3,5.39.76,1.36.24,2.81.49,4.15.65a33.59,33.59,0,0,0,3.42.33l2.34.1,2.4.06c1.62.08,3.27.05,4.92.08,3.3,0,6.62-.11,9.75-.41,5.49-.47,10.88-1.24,15.78-2.15s9.3-1.94,12.9-2.72a22.94,22.94,0,0,1-5.41,3.78,21.69,21.69,0,0,1-3,1.34,11.91,11.91,0,0,1-2.3.65,238.3,238.3,0,0,1-24.29,1.85,77.11,77.11,0,0,1-18.62-1.58,37.26,37.26,0,0,1-4.38-1.41C162.46,425.11,161.23,424.56,160.84,424.37Z" /></g><g class="cls-5" transform="matrix(-1, 0, 0, 1, 380, 0)"><path d="M153,422.37c-.38.57-6.63.19-9.08.28a61.47,61.47,0,0,1-13.69-1.11,35.3,35.3,0,0,1-10.9-3.78,18.35,18.35,0,0,1-4.17-3.2,11.23,11.23,0,0,1-2.46-3.78c1.28.63,2.78,1.37,4.16,1.93a17,17,0,0,1,3.2,1.53,23.86,23.86,0,0,0,7.54,3.95,43.22,43.22,0,0,0,7.48,1.68c4.77.65,9,.69,12.61,1.2A34.72,34.72,0,0,1,153,422.37Z" /></g><path class="cls-2" d="M225.67,444.05c-9.24-24.95,4.5-57.72-8.3-71.58-16.56-17.91-52.33,15.95-56.68,19.82-.9-2.74-8.5-15.77-12.4-27.27-13.57,10.5-21.95,24.66-28.93,41.38-12.71,30.47-8.16,66.9,12.6,92a56.76,56.76,0,0,0,15.22-16.56,79.83,79.83,0,0,0,14,20.65,9.59,9.59,0,0,0,3.52,2.69c1.84.66,3.88.21,5.76-.33,16.73-4.79,30.84-15.4,43.72-26.72,3.16-2.77,13.82-8.08,15.48-11.43C232.25,461.4,227.58,449.22,225.67,444.05Z" style="" transform="matrix(-1, 0, 0, 1, 380, 0)" /><path d="M225.73,444a22.59,22.59,0,0,1,1.84,3.86,61.53,61.53,0,0,1,2.88,8.7,28.15,28.15,0,0,1,.87,6.07,16.83,16.83,0,0,1-.07,1.72c0,.29-.11.59-.16.89a4.19,4.19,0,0,1-.23.91c-.11.3-.22.61-.34.92s-.36.62-.56.88l-.63.74-.67.66a49.7,49.7,0,0,1-6,4.41c-2.1,1.38-4.31,2.73-6.38,4.2l-.74.56-.7.58-1.49,1.33c-1,.89-2,1.76-3,2.64-2.05,1.75-4.14,3.49-6.28,5.16a130.93,130.93,0,0,1-13.1,9.18,94.08,94.08,0,0,1-13,6.65q-3.14,1.29-6,2.21a15.63,15.63,0,0,1-6,1.11,7.66,7.66,0,0,1-2.44-.6,9,9,0,0,1-2-1.25,31.34,31.34,0,0,1-2.9-2.81c-1.76-1.87-3.46-3.85-5.08-5.94s-3.15-4.3-4.61-6.62c-.42-.7-.86-1.4-1.29-2.1-.24-.38-.45-.81-.65-1.11-.21.38-.42.74-.63,1.07l-.31.49-.15.23-.51.68a59.92,59.92,0,0,1-5,5.71c-.9.9-1.83,1.78-2.79,2.62-.17.17-.65.55-1,.87l-1.21,1-2.52,1.92c-.43.32-.86.66-1.28.95l-1-1.21c-.66-.81-1.33-1.63-2-2.5l-1.76-2.26c-.39-.51-.81-1-1.16-1.52a91.15,91.15,0,0,1-13.27-27.65,98.27,98.27,0,0,1-3.47-30.53,96.09,96.09,0,0,1,6.13-29.56c.8-2.25,1.69-4.35,2.62-6.47s1.89-4.21,2.91-6.29a117.25,117.25,0,0,1,6.83-12.16,88.64,88.64,0,0,1,8.47-11.12c.78-.87,1.6-1.7,2.4-2.55s1.67-1.62,2.5-2.43l4.49-3.83,5-4.07c.86,2.41,1.73,4.82,2.59,7.22l.66,1.8.34.88.27.64.69,1.68c.94,2.24,2,4.45,3,6.64s2.13,4.38,3.22,6.55l.82,1.64.18.37h0v0l0,.12s0,0,.06,0l.17-.13,1.51-1.28,2-1.63c2.64-2.14,5.33-4.2,8.08-6.15a86.79,86.79,0,0,1,17.59-9.87,41.26,41.26,0,0,1,9.93-2.69c.86-.13,1.77-.14,2.64-.21s1.8,0,2.69.05,1.81.19,2.7.39l1.34.33.67.18.65.25a15.39,15.39,0,0,1,2.52,1.13l1.21.68c.37.26.74.54,1.1.81s.74.53,1.08.83l1,.94c.31.31.65.61.94.95l.84,1a23.61,23.61,0,0,1,4.15,9.2,45.72,45.72,0,0,1,1.08,9.2c.07,3,0,5.87-.19,8.7-.33,5.65-.87,11.05-1.19,16.27-.69,10.4-.5,20.23,2.27,28.74a43.6,43.6,0,0,1-3.64-9.49,75.64,75.64,0,0,1-2-11.7c-.81-8.28-.56-17.22-.8-25.64a72.3,72.3,0,0,0-1.17-11.91,29.15,29.15,0,0,0-1.51-5,17.52,17.52,0,0,0-2.3-3.88l-.68-.78a9.73,9.73,0,0,0-.75-.69c-.26-.22-.48-.47-.74-.66l-.78-.53a10.8,10.8,0,0,0-1.57-.89c-.52-.26-1.08-.4-1.59-.61a17.16,17.16,0,0,0-6.07-.55,26.48,26.48,0,0,0-5.53.95,42.91,42.91,0,0,0-5.55,1.92,77.15,77.15,0,0,0-10.64,5.59c-3.42,2.13-6.73,4.45-9.91,6.89-1.6,1.21-3.16,2.46-4.7,3.73l-1.65,1.41-1.86,1.62L161.45,395l-.91.81-.46.4-.23.2-.19.08c-.79-2-1.62-4.22-2.49-6l-2-4.11c-1.09-2.27-2.18-4.55-3.22-6.82s-2-4.56-3-6.86l-.68-1.72-.3-.83c-.21-.56-.39-1.14-.58-1.74,0-.11-.08,0-.12,0l-.15.12-.3.22-.6.46-1.36,1.15-.18.14-.27.26-.53.5-1.08,1c-.71.67-1.37,1.4-2.06,2.09a78.22,78.22,0,0,0-7.37,9,118.71,118.71,0,0,0-11.09,20.06c-.76,1.73-1.54,3.46-2.17,5.2l-1,2.6-.49,1.3c-.15.43-.27.88-.41,1.32-.51,1.77-1.11,3.5-1.55,5.28s-.81,3.55-1.21,5.32A91.27,91.27,0,0,0,114,445.77a92.67,92.67,0,0,0,3.21,20.32,86.31,86.31,0,0,0,7.55,18.31l1.2,2.11.59,1.05.67,1,2.67,4c.7.89,1.39,1.78,2.09,2.66l.19.25.1.12,0,.06s.05,0,.07,0l.5-.38c.32-.26.65-.52,1-.8l.71-.62.86-.77c.56-.52,1.11-1.06,1.66-1.59,1.08-1.09,2.1-2.21,3.08-3.37.5-.57,1-1.16,1.43-1.75l.87-1.15c.35-.48.69-1,1-1.47,1.34-2,2.67-4.17,3.93-6.22l3.29,6.59.87,1.59.45.8.29.5c.38.67.79,1.31,1.19,2a81.11,81.11,0,0,0,5.23,7.35q1.41,1.74,2.88,3.39a22.46,22.46,0,0,0,2.88,2.85,3.28,3.28,0,0,0,1.25.61,4.37,4.37,0,0,0,1.48.09,19.46,19.46,0,0,0,3.85-.94c11-3.33,20.58-9.16,29.27-15.47,3.82-2.82,8.23-6.3,12.8-10.08a36.92,36.92,0,0,1,3.94-2.59l3.91-2.28c1.29-.75,2.56-1.51,3.77-2.3A22.27,22.27,0,0,0,228,467l.32-.34a3.43,3.43,0,0,0,.24-.33,3.08,3.08,0,0,0,.39-.77,4.11,4.11,0,0,0,.28-.88l.12-.45.06-.48a17.61,17.61,0,0,0,.06-3.84,48,48,0,0,0-1.22-7C227.25,448.74,226.19,445.59,225.73,444Z" transform="matrix(-1, 0, 0, 1, 380, 0)" /><path d="M147.45,478.67a10.19,10.19,0,0,1,1,2.72l-.75.25a33.14,33.14,0,0,1-2.5-9.07c-.54-3.43-.81-6.81-1-8.92-1.07-10-.53-21.53.66-31.84a132.71,132.71,0,0,1,5.5-25.71,68.88,68.88,0,0,1,9.5-19.38c-.68,2.71-1.81,6.39-2.76,9.88s-1.82,6.74-2.52,8.39a106.9,106.9,0,0,0-5.75,19.52,147,147,0,0,0-2.34,17.88,189.75,189.75,0,0,0,.39,29.53c.16,1.46.33,3.32.57,5.06a34.16,34.16,0,0,0,.85,4.4l-.43.14C147.56,479.85,147.48,479.05,147.45,478.67Z" transform="matrix(-1, 0, 0, 1, 380, 0)" /><path class="cls-3" d="M107.78,405a153.24,153.24,0,0,1,3.75-15c2-6.49,4.45-12.93,8.45-18.25,3.45-4.6,10.1-10.61,16-9.71,1.91.29-2.79,21.13-2.95,23.17-.65,8,.85,16.54,1.78,24.48,2.19,18.68,7.72,36.51,10.6,54.95,1,6.2-1.81,13.87-2.9,20.2s-5.27,14.41-11.83,16.34c-4.55,1.33-5-.39-7.7-3.95-4.86-6.34-10.44-12.69-12.88-20.45a107.88,107.88,0,0,1-4.93-30.61A159.75,159.75,0,0,1,107.78,405Z" style="" transform="matrix(-1, 0, 0, 1, 380, 0)" /><path d="M107.82,405c.21,1.3-1.95,13-2.06,26.62-.05,3.4,0,6.92.2,10.42.06,1.73.28,3.51.29,5.25s.14,3.4.29,5.05a100.45,100.45,0,0,0,2.9,16.6q.74,2.73,1.6,5.46a37.09,37.09,0,0,0,2,5.25,54.37,54.37,0,0,0,6.32,9.67c1.22,1.57,2.5,3.13,3.78,4.72.65.8,1.28,1.58,1.94,2.43s1.25,1.7,1.77,2.26a2.3,2.3,0,0,0,.62.53,1,1,0,0,0,.49.11,7.51,7.51,0,0,0,2.19-.45,11.19,11.19,0,0,0,4.2-2.77,22.77,22.77,0,0,0,5.19-9.72c.11-.45.24-.9.31-1.36l.27-1.48c.19-1.06.41-2.1.63-3.12.45-2.05.92-4,1.31-6a39.36,39.36,0,0,0,.79-5.7,18.37,18.37,0,0,0,0-2.68c-.05-.44-.09-.8-.17-1.3l-.26-1.47c-.68-3.94-1.46-7.83-2.29-11.67-2.93-13.42-6.41-26.86-8-40.44-.75-6.63-1.82-13.22-2-20,0-1.69,0-3.4.1-5.1l.05-.63,0-.32,0-.16,0-.26c.08-.55.16-.92.23-1.34l.48-2.39c.64-3.13,1.28-6.2,1.84-9.23.28-1.51.54-3,.75-4.49.11-.73.2-1.46.27-2.17l0-.26a1.27,1.27,0,0,0,0-.2c0-.06,0-.15-.05-.18l-.19,0h-.2l-.39.05a12.44,12.44,0,0,0-3.49,1.38,26.84,26.84,0,0,0-6.26,5,34.18,34.18,0,0,0-4.74,6.38,75.39,75.39,0,0,0-6.11,14.2c-1.59,4.73-2.88,9.32-3.94,13.68a96.48,96.48,0,0,1,1.85-14.36,64,64,0,0,1,5.26-16.28,35.13,35.13,0,0,1,4.84-7.27,29.72,29.72,0,0,1,6.17-5.48,19.07,19.07,0,0,1,3.54-1.81,16.27,16.27,0,0,1,1.88-.58c.23,0,.92-.17,1.39-.23a11.25,11.25,0,0,1,1.42,0,6.37,6.37,0,0,1,1.34.09l1.08.4.52.2a3,3,0,0,1,.41.39,3.59,3.59,0,0,1,.57.88,9,9,0,0,1,.33,4.29c-.36,3.06-.93,5.73-1.5,8.49s-1.19,5.4-1.78,8l-.44,2a17.27,17.27,0,0,0-.33,1.76c-.13,1.27-.21,2.56-.24,3.85a77.36,77.36,0,0,0,.24,7.76c.19,2.59.47,5.17.74,7.74s.55,5.13.82,7.66c.6,5,1.43,9.95,2.36,14.78,1.86,9.68,4.09,19,5.86,28.15.44,2.28.86,4.56,1.24,6.82.18,1.13.39,2.24.5,3.47a24.71,24.71,0,0,1,0,3.55c-.38,4.66-1.62,9-2.5,13.17l-.31,1.57-.3,1.6a26.9,26.9,0,0,1-.86,3.26,28.48,28.48,0,0,1-2.81,6,19.73,19.73,0,0,1-4.37,5,13.4,13.4,0,0,1-6.14,2.82,7.29,7.29,0,0,1-1.89.08,4.6,4.6,0,0,1-2-.72,10.47,10.47,0,0,1-2.39-2.53c-1.17-1.6-2.4-3.11-3.63-4.67a100.58,100.58,0,0,1-7-9.51,42.12,42.12,0,0,1-2.74-5.19c-.39-.9-.74-1.81-1-2.74s-.57-1.8-.83-2.7a106.09,106.09,0,0,1-2.53-10.7,104.87,104.87,0,0,1-1.4-10.53c-.14-1.73-.23-3.46-.26-5.18l0-2.51c0-.82-.07-1.65-.1-2.47a131.17,131.17,0,0,1,1.17-22.56A138.6,138.6,0,0,1,107.82,405Z" transform="matrix(-1, 0, 0, 1, 380, 0)" /><path class="cls-3" d="M227.61,446.05c-1.92-15.07-2.85-30.23-3.32-45.41-.19-5.94-1.12-10.42,1.34-15.9,2.73-6.06,6.76-11.86,10.59-17.26a5.23,5.23,0,0,0,1.14-2.34,4.81,4.81,0,0,0-1.55-3.41,36.62,36.62,0,0,0-18.13-11.36c-15.1,16.56-20,40-32.77,58.53a306.68,306.68,0,0,1-33.91,41c-2.41,2.44-4.92,4.94-6.18,8.13-6.13,15.49,2.57,38.5,16,47.33a15.46,15.46,0,0,0,5.59,2.46c2.77.5,5.6-.16,8.32-.84q13.59-3.37,27-7.4c13.51-4.07,23.18-10,27.7-23.95C232.46,466.17,228.9,456.11,227.61,446.05Z" style="" transform="matrix(-1, 0, 0, 1, 380, 0)" /><path d="M227.66,446.05a35.54,35.54,0,0,1,.83,3.58c.41,1.93,1,4.53,1.62,7.66a55,55,0,0,1,1.2,10.95,27.48,27.48,0,0,1-.81,6.38,39.76,39.76,0,0,1-2.34,6.37,36,36,0,0,1-3.68,6,35.08,35.08,0,0,1-5,5.1,41.23,41.23,0,0,1-5.93,3.9,56.88,56.88,0,0,1-6.25,2.84c-4.19,1.61-8.24,2.73-11.88,3.86l-9.68,2.87q-3.63,1.06-7.35,2.09a74.39,74.39,0,0,1-7.71,1.88,14.7,14.7,0,0,1-4.4,0A14.34,14.34,0,0,1,162,508.2a21.74,21.74,0,0,1-3.61-2.26,28.85,28.85,0,0,1-3.27-2.67,17.34,17.34,0,0,1-1.48-1.49c-.48-.51-1-1-1.44-1.54l-1.31-1.64a18.52,18.52,0,0,1-1.26-1.69,41.07,41.07,0,0,1-2.27-3.55l-1.05-1.83-.92-1.89a49.41,49.41,0,0,1-4.68-16.3l-.18-2.15c-.07-.72,0-1.44,0-2.17s0-1.44,0-2.17l.2-2.18a14.61,14.61,0,0,1,.34-2.17l.44-2.17.67-2.12.35-1.07c.15-.37.3-.75.48-1.11a27.69,27.69,0,0,1,5.4-7.09c1.9-1.95,3.74-3.88,5.58-5.85a305.77,305.77,0,0,0,20.33-24.25q4.06-5.41,7.9-11A113,113,0,0,0,189,396.51c4.08-7.86,7.5-16.11,11.41-24.17a132.13,132.13,0,0,1,6.39-11.82c.58-1,1.17-1.91,1.81-2.83s1.24-1.87,1.91-2.77l2-2.67c.33-.46.72-.87,1.08-1.29L215,349.4l1-1.18.51-.58.26-.29c.1,0,.24,0,.36.07,1,.3,2,.57,3,.88l.92.31.81.3c.53.2,1.06.42,1.58.64a39,39,0,0,1,6,3.21,40.13,40.13,0,0,1,5.28,4.14c.81.76,1.59,1.55,2.33,2.38a13.25,13.25,0,0,1,2.24,3.06,6.24,6.24,0,0,1,.44,1.2,5.31,5.31,0,0,1-.57,4,14.36,14.36,0,0,1-1,1.53l-.89,1.23c-1.18,1.64-2.34,3.26-3.44,4.89a78.44,78.44,0,0,0-5.87,9.9,16.91,16.91,0,0,0-1.61,4.89,26.92,26.92,0,0,0-.25,5.28c.05,1.84.16,3.74.18,5.63s.06,3.67.09,5.48c.28,14.47,1,27.79,2.11,39.59-1.25-5.19-2.49-11.66-3.51-18.69s-1.86-14.61-2.46-22q-.21-2.76-.42-5.46c-.15-1.76-.35-3.53-.47-5.36a27.81,27.81,0,0,1,.16-5.61,20.41,20.41,0,0,1,1.51-5.31A72.45,72.45,0,0,1,231.11,370c1.09-1.48,2.18-2.94,3.27-4.41a5,5,0,0,0,.39-.61.24.24,0,0,0,0-.14,2.56,2.56,0,0,0-.62-1.17,34.29,34.29,0,0,0-11.72-9.32c-.75-.37-1.51-.71-2.29-1-.39-.16-.77-.3-1.17-.44l-.46-.17-.19-.07c-.06,0-.1.08-.15.12l-.31.32c-.56.64-1.14,1.26-1.68,1.92-1,1.36-2.14,2.63-3.07,4.05a121.14,121.14,0,0,0-10,17.53c-2.92,6-5.62,12.07-8.55,17.94a120.76,120.76,0,0,1-9.9,16.68c-3.64,5.18-7.4,10.16-11.22,15a336.68,336.68,0,0,1-23.65,26.59,16.58,16.58,0,0,0-4.24,6.73c-.2.65-.42,1.28-.61,1.92l-.4,2-.19,1-.1,1-.19,2A43.61,43.61,0,0,0,146.48,483a46.06,46.06,0,0,0,7.15,13.52l1.16,1.48c.4.47.84.91,1.25,1.37a27.69,27.69,0,0,0,2.65,2.55,11.73,11.73,0,0,0,1.42,1.13l1.45,1.07a18.28,18.28,0,0,0,3.06,1.65c4,1.79,8.8-.15,13.5-1.24s9.26-2.45,13.76-3.72,9-2.5,13.12-3.92a47.39,47.39,0,0,0,11.57-5.62,33.41,33.41,0,0,0,4.86-4.19,29.69,29.69,0,0,0,4.22-5.73,35.9,35.9,0,0,0,3-6.85,26.8,26.8,0,0,0,1.16-7.29A78.32,78.32,0,0,0,228.65,454C228.09,450.29,227.77,447.45,227.66,446.05Z" transform="matrix(-1, 0, 0, 1, 380, 0)" /><path class="cls-2" d="M148.48,357.35c4.84,10.51,9.85,21.93,11.71,33.35.2,1.21.2,2.78-1,3.28a2.28,2.28,0,0,1-2.24-.49c-.62-.49-1.07-1.15-1.65-1.69-2.19-2.05-7-1.84-8.6-.71-1.11.79-4.82,5.72-6.7,8-1.17,1.45-4.73,6.89-6.3,4.77-3.5-4.71-3.07-21.5-3.4-27.16s6.48-29.63,15.7-23.38a5.68,5.68,0,0,1,1.76,2.5Z" style="" transform="matrix(-1, 0, 0, 1, 380, 0)" /><path d="M148.44,357.36a3.89,3.89,0,0,1-.74-1,11.84,11.84,0,0,0-1.39-2.11,2.7,2.7,0,0,0-.56-.45l-.73-.39c-.26-.12-.53-.19-.81-.3a8.11,8.11,0,0,0-.86-.14,5,5,0,0,0-3.5,1.37c-2.14,1.87-3.66,4.78-4.79,7.44a42.18,42.18,0,0,0-2.26,7.09,48.6,48.6,0,0,0-.83,5,18.7,18.7,0,0,0-.13,2.43c.07.87.13,1.75.2,2.63.22,3.62.37,7.25.67,10.87.15,1.81.34,3.6.59,5.36a31.71,31.71,0,0,0,1.07,5.05,6.56,6.56,0,0,0,.4,1.11l.13.3,0,0a.09.09,0,0,0,.16,0l.06-.06.31-.32.38-.44c.52-.6,1-1.26,1.53-2l.49-.67.54-.7,1-1.28,2-2.6c.68-.87,1.37-1.73,2.12-2.61a17.17,17.17,0,0,1,1.29-1.37,5.77,5.77,0,0,1,.55-.46c.21-.13.43-.27.64-.38l.59-.26.54-.18a11.58,11.58,0,0,1,4-.41,10.61,10.61,0,0,1,3.93.95,7,7,0,0,1,1.91,1.31,8.08,8.08,0,0,1,.66.7l.13.15.06.07h0a.08.08,0,0,0,.08.07s.07,0,.08-.08v0s0,0,0-.15l-.05-.33-.21-1.33c-.31-1.76-.66-3.5-1.07-5.2-.81-3.39-1.78-6.66-2.79-9.76-2-6.21-4.22-11.8-6-16.67a73.82,73.82,0,0,1,7.72,11.8,50.45,50.45,0,0,1,4.69,11.47c.49,2.27.94,4.51,1.25,6.74.09.56.15,1.12.22,1.67s.16.93.22,2a5.25,5.25,0,0,1-.47,2.51,3.22,3.22,0,0,1-1.7,1.57,4,4,0,0,1-4.25-1.3l-.41-.46-.27-.32a6.27,6.27,0,0,0-.44-.51,3.2,3.2,0,0,0-.89-.65,8.21,8.21,0,0,0-5.08-.59,3.47,3.47,0,0,0-1.05.36,4.51,4.51,0,0,0-.88.8c-.64.68-1.26,1.41-1.87,2.14-1.23,1.47-2.4,2.95-3.59,4.42a56,56,0,0,1-3.58,4.35,4.5,4.5,0,0,1-3.06,1.61,1.76,1.76,0,0,1-1.41-.9,7.67,7.67,0,0,1-.92-1.53,22.94,22.94,0,0,1-1.46-5.26c-.32-1.73-.51-3.44-.68-5.12-.32-3.36-.48-6.61-.61-9.76-.07-1.57-.13-3.11-.19-4.63l-.06-1.12c0-.38,0-.87,0-1.26a22.17,22.17,0,0,1,.24-2.36,48.51,48.51,0,0,1,2.16-8.56A36.92,36.92,0,0,1,135,357.2a16.18,16.18,0,0,1,3.32-3.87,8.42,8.42,0,0,1,2.56-1.43,5.18,5.18,0,0,1,2.94-.12,6.34,6.34,0,0,1,2.35,1.18,4.47,4.47,0,0,1,1.32,1.83C148,356,148.28,356.91,148.44,357.36Z" transform="matrix(-1, 0, 0, 1, 380, 0)" /><g data-name="default" id="default-3" transform="matrix(-1, 0, 0, 1, 380, 0)"><path class="cls-1" d="M210.63,402.05c4.76,11.19,7.75,25.3,10.37,45.72,2.91,22.66,8.17,41,19.9,39.46,14.69-2,26.8-32.1,30.26-47,3.79-16.27,9.08-47.8-11.49-68.07-15.15-14.93-32.88-1.66-32.88-1.66" style="" /><path d="M226.76,370.45c.24-.56,2.43-2.43,6.29-4.15a28.16,28.16,0,0,1,6.95-2.05,23.05,23.05,0,0,1,13.13,1.69,26.23,26.23,0,0,1,4.12,2.35c.66.43,1.25.95,1.88,1.42s1.17,1,1.73,1.56,1.07,1.07,1.6,1.6,1,1.11,1.49,1.65A53.68,53.68,0,0,1,272,387.14a61.17,61.17,0,0,1,5.26,20.11,96.72,96.72,0,0,1-.57,21.49c-.46,3.58-1.08,7.13-1.81,10.64a103.78,103.78,0,0,1-2.75,10.5,123.11,123.11,0,0,1-8.06,19.65,59.46,59.46,0,0,1-10.84,15.29c-.56.59-1.23,1.11-1.85,1.66s-1.31,1.06-2,1.53a20.31,20.31,0,0,1-4.79,2.42l-1.34.41-1.41.28a14.62,14.62,0,0,1-3,.17,13.12,13.12,0,0,1-5.84-1.71,16.24,16.24,0,0,1-4.27-3.61,25.51,25.51,0,0,1-2.84-4.12,46.74,46.74,0,0,1-3.53-8.42A108.71,108.71,0,0,1,218.8,457c-.39-2.67-.71-5.32-1-7.92s-.54-5.09-.8-7.58c-.55-5-1.14-9.74-1.83-14.32a141.77,141.77,0,0,0-5.61-24.67,58.45,58.45,0,0,1,6.15,10.8,108.84,108.84,0,0,1,4.92,13.63,125.53,125.53,0,0,1,4.58,23c.36,4.67.87,9.24,1.64,13.67a62.57,62.57,0,0,0,3.36,12.61,23.69,23.69,0,0,0,2.89,5.31,11.08,11.08,0,0,0,1.89,2,7.35,7.35,0,0,0,2.19,1.33,7.27,7.27,0,0,0,2.46.48,10,10,0,0,0,2.63-.38,15.31,15.31,0,0,0,5-2.59,37.1,37.1,0,0,0,8-8.73,77.94,77.94,0,0,0,5.89-10.21A115.67,115.67,0,0,0,269,442.22c3.45-14.17,4.8-28,2.79-40.42a55.3,55.3,0,0,0-5.54-17.07,47.09,47.09,0,0,0-4.59-7.12,43.07,43.07,0,0,0-5.57-5.9,23.85,23.85,0,0,0-7.25-4.17,22.35,22.35,0,0,0-9.21-1.1,30.83,30.83,0,0,0-8.19,1.85A31.7,31.7,0,0,0,226.76,370.45Z" /></g><g class="cls-5" transform="matrix(-1, 0, 0, 1, 380, 0)"><path d="M251.17,432.75c.12-.35,1.82-.85,3.69-1.63a24.2,24.2,0,0,0,4.9-2.69,40.77,40.77,0,0,0,9.66-10.08,36.77,36.77,0,0,0,4.64-10.28,16.77,16.77,0,0,0,.09-9.08,7.37,7.37,0,0,1,3.1,4.08,8.36,8.36,0,0,1,.39,4.5,41.55,41.55,0,0,1-4.13,9.11,45.3,45.3,0,0,1-5.06,6.92,28.67,28.67,0,0,1-11.36,8.26,14.25,14.25,0,0,1-1.61.48c-.59.12-1.22.21-1.8.29A24.73,24.73,0,0,1,251.17,432.75Z" /></g><g id="tux" transform="matrix(-1, 0, 0, 1, 380, 0)"><path class="cls-2" d="M223.54,458.7l0,8.72a5,5,0,0,0,.69,3.11,6.27,6.27,0,0,0,2.85,1.8,43.55,43.55,0,0,0,30.13.26c4.21-1.56,8.5-4.4,8.65-8.29.11-2.72-1.88-5.3-1.63-8" style="" /><path d="M264.25,456.29a12,12,0,0,1,.52,1.8c.29,1,.87,2.19,1.37,3.67a8.66,8.66,0,0,1,.46,2.45,7,7,0,0,1-.48,2.52,11.43,11.43,0,0,1-2.34,3.38,17.47,17.47,0,0,1-4.47,3.24,35.09,35.09,0,0,1-5.22,2.09,42.83,42.83,0,0,1-11,1.79,38.64,38.64,0,0,1-13.72-1.92c-.71-.23-1.41-.48-2.08-.77a20,20,0,0,1-2.06-.91,7,7,0,0,1-2.17-1.65,4.82,4.82,0,0,1-1.12-2.7,10.89,10.89,0,0,1,0-2.17c.05-.62.1-1.24.16-1.84.22-2.4.48-4.61.78-6.57a28.24,28.24,0,0,1,2.15,6.79c.26,1.18.39,2.55.59,3.13a2.5,2.5,0,0,0,.46.85,6.77,6.77,0,0,0,2.43,1.59c.5.26,1,.5,1.54.71s1,.43,1.56.61a31.79,31.79,0,0,0,6.31,1.56,35.5,35.5,0,0,0,6.12.34,38.79,38.79,0,0,0,5.73-.63,34.12,34.12,0,0,0,9.72-3.36c2.71-1.52,4.91-3.59,5.19-5.88a7.23,7.23,0,0,0-.05-2c-.1-.78-.29-1.64-.44-2.48a11.43,11.43,0,0,1-.19-2.29A5.21,5.21,0,0,1,264.25,456.29Z" /><path class="cls-3" d="M209,401.12c6.54,8.64,9.27,19.52,11.2,30.18,1.49,8.25,1.49,25.56,8.74,30.89,7.91,5.81,22.24,3,30.66.41,4.87-1.49,6.12-1.93,8.12-5.83,2.11-4.13,3.5-9.55,4.76-14a93.87,93.87,0,0,0-2.82-58.78c-2.71-6.95-6.55-13.87-12.88-17.79-9.82-6.09-23.11-3.17-32.46,3.61" style="" /><path d="M224.25,369.73a19.09,19.09,0,0,1,5.59-4,38.15,38.15,0,0,1,6.06-2.49,32.15,32.15,0,0,1,7.68-1.33,25.54,25.54,0,0,1,8.38.93,23.12,23.12,0,0,1,7.52,3.77,34.85,34.85,0,0,1,8.75,10.57,86.36,86.36,0,0,1,10,36.7,94.22,94.22,0,0,1-1,19.72,95.74,95.74,0,0,1-2,9.58c-.8,3-1.59,6.09-2.59,9.14-.44,1.33-.93,2.67-1.51,4a24.6,24.6,0,0,1-2.15,4.05,9.8,9.8,0,0,1-1.88,2.09,10.57,10.57,0,0,1-2.37,1.45,35,35,0,0,1-4.12,1.45,68.53,68.53,0,0,1-16.21,3.09,37.38,37.38,0,0,1-8.42-.44,21,21,0,0,1-8.21-3.21,12.82,12.82,0,0,1-1.85-1.53,5.87,5.87,0,0,1-.79-.88l-.72-.91c-.45-.62-.78-1.26-1.17-1.89s-.6-1.28-.91-1.92a39.71,39.71,0,0,1-2.18-7.6c-.94-5-1.27-9.78-1.69-14.3-.19-2.27-.47-4.36-.84-6.56s-.74-4.28-1.16-6.34c-1.68-8.23-4.32-15.56-8.16-21.28a36,36,0,0,1,7,8.83,62.67,62.67,0,0,1,5.27,12.21c.68,2.12,1.27,4.22,1.79,6.26a60.13,60.13,0,0,1,1.23,5.95c.57,3.7.93,6.75,1.12,8.85a46.19,46.19,0,0,0,2.29,11.9,11.81,11.81,0,0,0,2.75,4.47,12.92,12.92,0,0,0,4.6,2.63,25.53,25.53,0,0,0,5.54,1.09,42.43,42.43,0,0,0,5.75,0A63.27,63.27,0,0,0,256.9,462c1.81-.47,3.69-1,5.36-1.58a7.32,7.32,0,0,0,2.14-1.11,7.1,7.1,0,0,0,1.53-1.82,44.21,44.21,0,0,0,3.95-9.9c.51-1.71,1-3.44,1.45-5.15s.9-3.37,1.23-5.07a89,89,0,0,0,1.56-10.05A91.47,91.47,0,0,0,274,408a89.23,89.23,0,0,0-3.8-17.62,63.5,63.5,0,0,0-6.8-15.18,27.73,27.73,0,0,0-5-5.79,18.76,18.76,0,0,0-3-2.15,22,22,0,0,0-3.24-1.58,24.55,24.55,0,0,0-7.68-1.53,32.35,32.35,0,0,0-8.72.87A40.53,40.53,0,0,0,224.25,369.73Z" /><ellipse class="cls-1" cx="257.62" cy="451.01" rx="5.5" ry="7.5" style="" /><path d="M252.15,451c.33.16.43,1.72,1.18,3.28a6.47,6.47,0,0,0,1.44,2,3.57,3.57,0,0,0,1.64.93,3.61,3.61,0,0,0,3.85-2,7.9,7.9,0,0,0,.87-5.1,7,7,0,0,0-1.65-3.73,2.7,2.7,0,0,0-2.71-1,4.92,4.92,0,0,0-2.67,2.19,10.72,10.72,0,0,0-1.41,3.39,5.89,5.89,0,0,1-1-4.64,6.3,6.3,0,0,1,1-2.44,4.15,4.15,0,0,1,1.55-1.37,6.51,6.51,0,0,1,3-.6,5.73,5.73,0,0,1,2.71.84,7.7,7.7,0,0,1,3,3.66,11.48,11.48,0,0,1,.87,4.06,11.64,11.64,0,0,1-.48,3.84,8.65,8.65,0,0,1-1.79,3.27,5.76,5.76,0,0,1-3.24,1.88,5.19,5.19,0,0,1-3.55-.7,6.22,6.22,0,0,1-2.2-2.35,6.53,6.53,0,0,1-.79-3.19A7.85,7.85,0,0,1,252.15,451Z" /><ellipse class="cls-1" cx="154.1" cy="464.96" rx="5.5" ry="7.5" style="" /><path d="M148.63,465c.33.17.43,1.73,1.18,3.28a6.41,6.41,0,0,0,1.44,2.06,3.57,3.57,0,0,0,1.64.93,3.63,3.63,0,0,0,3.85-2.05,8,8,0,0,0,.87-5.1,7,7,0,0,0-1.65-3.73,2.69,2.69,0,0,0-2.72-1,4.92,4.92,0,0,0-2.66,2.18,10.91,10.91,0,0,0-1.41,3.39,5.87,5.87,0,0,1-1-4.63,6.24,6.24,0,0,1,1-2.44,4.15,4.15,0,0,1,1.55-1.37,6.39,6.39,0,0,1,3-.6,5.84,5.84,0,0,1,2.71.83,7.77,7.77,0,0,1,3,3.67,11.48,11.48,0,0,1,.87,4.06,11.64,11.64,0,0,1-.48,3.84,8.65,8.65,0,0,1-1.79,3.27,5.76,5.76,0,0,1-3.24,1.88,5.22,5.22,0,0,1-3.56-.7,6.34,6.34,0,0,1-2.19-2.35,6.53,6.53,0,0,1-.79-3.19A8,8,0,0,1,148.63,465Z" /></g><path class="cls-2" d="M154.79,398.5c-1-3.09,1.81-6.41,4.43-6.22s4.79,2.55,6.72,4.83c2.32,2.74,5.75,13.05,6.24,13.46.79.64,1.82.05,2.63-.55,8.68-6.47,18.34-15.79,23.79-25.25,2.44-4.23,10-18.76,7-22.61a5.19,5.19,0,0,0-2.75-1.62,14.17,14.17,0,0,0-10.11,1.51,42.29,42.29,0,0,0-8.32,6.3c-6.28,5.64-12.44,11.23-19,16.6a69,69,0,0,0-10.39,9.88" style="" transform="matrix(-1, 0, 0, 1, 380, 0)" /><path d="M155,394.81a14.34,14.34,0,0,1,2.68-3.65,77.86,77.86,0,0,1,6.81-6.41c5.37-4.54,11.25-9.93,14.42-13.06l4.28-4.2c1.45-1.41,3-2.87,4.64-4.24,3.3-2.72,7.64-5.17,12.66-5.06a12.52,12.52,0,0,1,3.75.67,5.94,5.94,0,0,1,3.58,3,6.25,6.25,0,0,1,.55,2.26,10.51,10.51,0,0,1,0,1.95,21.57,21.57,0,0,1-.65,3.47,67.68,67.68,0,0,1-4.76,12,64.47,64.47,0,0,1-5.88,9.91,83.67,83.67,0,0,1-7.32,8.58,103.52,103.52,0,0,1-8,7.35q-2.06,1.69-4.14,3.25l-1.05.77-.3.22-.48.34a7.94,7.94,0,0,1-1,.58,4.18,4.18,0,0,1-2.08.4,3.19,3.19,0,0,1-1.85-.8,8.12,8.12,0,0,1-1-1.67l-.36-.89-.22-.59c-.26-.71-.51-1.41-.77-2.11-.5-1.38-1-2.72-1.52-4a38.07,38.07,0,0,0-1.65-3.67c-.15-.25-.3-.55-.44-.75s-.13-.21-.23-.34l-.31-.39c-.41-.52-.82-1-1.23-1.49a10.74,10.74,0,0,0-2.59-2.23,4.06,4.06,0,0,0-1.37-.47,2.27,2.27,0,0,0-1.21.15,4.34,4.34,0,0,0-2.09,1.91,3.88,3.88,0,0,0-.42,2.72,4,4,0,0,1-.42-3.16,5.26,5.26,0,0,1,2.59-3.28,4.4,4.4,0,0,1,2.51-.42,7.24,7.24,0,0,1,2.42.74,16.38,16.38,0,0,1,3.83,2.82l.81.78a9.34,9.34,0,0,1,.85,1,22.85,22.85,0,0,1,1.28,1.92,39.62,39.62,0,0,1,1.9,3.58,51,51,0,0,1,2.29,5.53,1,1,0,0,1,0,.21.29.29,0,0,0,0,.09.15.15,0,0,0,.14.16c.13,0,0,.12.76-.42,1.13-.76,2.23-1.55,3.31-2.36,2.16-1.61,4.23-3.29,6.19-5a78.44,78.44,0,0,0,10.43-11.08A66.33,66.33,0,0,0,201.56,377a58.91,58.91,0,0,0,2.56-6.32,18.91,18.91,0,0,0,1.21-6.2,3.72,3.72,0,0,0-.25-1.27,2.22,2.22,0,0,0-.26-.46,2.72,2.72,0,0,0-.42-.41,5.91,5.91,0,0,0-2.52-1,11.92,11.92,0,0,0-5.68.47c-3.67,1.16-6.69,3.66-9.5,6.2-5.67,5.17-11,10.05-16.23,14.29-2.49,2.1-6.14,4.64-9.19,7A59.29,59.29,0,0,0,155,394.81Z" transform="matrix(-1, 0, 0, 1, 380, 0)" /></svg>