<svg xmlns="http://www.w3.org/2000/svg" id="outfits_2" viewBox="0 0 380 600"><defs transform="matrix(-1, 0, 0, 1, 380, 0)"><style>.cls-1{fill:#ffffff;}.cls-2{fill:#fffffe;}.cls-3{fill:#172e35;}.cls-4{fill:#ffd635;}</style></defs><g id="default" transform="matrix(-1, 0, 0, 1, 380, 0)"><path class="cls-1 color-body" d="M239.64,463.37c-.82-7.14-2.46-16.13-4.76-22.34-13.64-36.84,9-78.79-30.64-91.82-29.14-9.57-59.41,5.74-75.67,54.17-5.89,17.56-7.77,42.31-3.48,60" style="fill:#ffffff;--backup-fill:#ffffff" /><path d="M125,463.38c-.41-.5-1.42-3.49-2.2-8.05a101.05,101.05,0,0,1-1.25-17.25,135.41,135.41,0,0,1,1.69-19.92,126.12,126.12,0,0,1,3.64-16,124.81,124.81,0,0,1,8.31-21.25A85.92,85.92,0,0,1,148.81,361,58.59,58.59,0,0,1,169,346.6a50.6,50.6,0,0,1,24.31-3.68,58,58,0,0,1,10.35,2,52.39,52.39,0,0,1,9.83,3.9,35.9,35.9,0,0,1,8.75,6.43,31.75,31.75,0,0,1,6.25,8.89c3.08,6.5,4.08,13.3,4.51,19.66s.29,12.53.23,18.43-.08,11.59.24,17.06a92.11,92.11,0,0,0,2.17,15.59c.14.61.29,1.23.43,1.83s.35,1.2.52,1.79l1.09,3.68a75.53,75.53,0,0,1,1.62,7.38,118.51,118.51,0,0,1,1.5,13.7c-1.27-3.74-2.72-8.31-4.47-13.09-.88-2.39-1.84-4.83-2.92-7.17-.55-1.11-1.14-2.42-1.7-3.69s-1-2.59-1.53-3.88a78.46,78.46,0,0,1-4.27-26.33c.28-10.76,1.22-21,.11-30.55a38.06,38.06,0,0,0-3.8-13.34,27.37,27.37,0,0,0-8.9-9.79A43.05,43.05,0,0,0,201.17,350a50.4,50.4,0,0,0-12.84-1.91,45,45,0,0,0-23.58,6.43,60.85,60.85,0,0,0-17.07,15.67,84.41,84.41,0,0,0-6.16,9.29c-1,1.56-1.76,3.19-2.62,4.78s-1.63,3.2-2.33,4.83c-.37.81-.73,1.62-1.09,2.42s-.68,1.62-1,2.43c-.69,1.6-1.28,3.24-1.89,4.84s-1.14,3.23-1.71,4.82-1,3.17-1.47,4.76a135,135,0,0,0-3.79,18.8c-.39,2.91-.75,6.38-1.08,10s-.5,7.42-.5,11A101.89,101.89,0,0,0,125,463.38Z" /><path class="cls-1 color-body" d="M234.88,441c-13.64-36.84,9-78.79-30.64-91.82-29.14-9.57-59.41,5.74-75.67,54.17-5.89,17.56-7.77,42.31-3.48,60h0s6,10.25,50.16,13c42.25,2.63,64.39-13,64.39-13h0C238.82,456.23,237.18,447.24,234.88,441Z" style="fill:#ffffff;--backup-fill:#ffffff" /></g><path class="cls-1 color-body" d="M160.41,391.94c-7.58,9.52-14.23,22.32-22.21,41.3-8.86,21.06-18.83,37.36-29.71,32.7C94.87,460.11,99,429.32,104,414.85c6-17.58,19.42-51,47.78-60,10.88-3.44,14.23,11.57,14.23,11.57" transform="matrix(-1, 0, 0, 1, 380, 0)" style="fill:#ffffff;--backup-fill:#ffffff" /><path d="M166,366.44c-.44-.39-1.22-3-3.31-6.14a11.88,11.88,0,0,0-4.52-4.17,7.33,7.33,0,0,0-3.27-.64,9,9,0,0,0-1.76.24l-.89.26-.95.35A49.18,49.18,0,0,0,137,364.47a57.36,57.36,0,0,0-9.41,9.67c-7.36,9.66-13.09,21.5-17.59,33.91-.57,1.56-1.11,3.12-1.64,4.69s-1.07,3.18-1.52,4.67a91,91,0,0,0-2.21,9.4,85.68,85.68,0,0,0-1.43,18.77,44.3,44.3,0,0,0,1,7.62,18.3,18.3,0,0,0,2.6,6.28,7.48,7.48,0,0,0,4.29,3.11,5,5,0,0,0,2.32,0,8.35,8.35,0,0,0,2.52-1.07,22.12,22.12,0,0,0,5-4.61,57.9,57.9,0,0,0,4.35-6.08,135.52,135.52,0,0,0,7.19-13.29c1.09-2.26,2.1-4.48,3.14-6.75s2.08-4.49,3.13-6.67c2.11-4.37,4.27-8.56,6.49-12.52a107.9,107.9,0,0,1,14.29-20.4c-1.43,3.13-3.13,6.87-4.82,10.91s-3.38,8.38-5,12.61c-3.2,8.46-6.1,16.46-8.13,20.5-4.17,8.26-8.37,16.25-13.84,23.36a43.7,43.7,0,0,1-4.53,5,21.48,21.48,0,0,1-5.74,4,13.34,13.34,0,0,1-3.54,1,11.6,11.6,0,0,1-3.72-.14,13,13,0,0,1-6.19-3.36,16.85,16.85,0,0,1-3.67-5.53,29,29,0,0,1-1.78-6,56.57,56.57,0,0,1-.83-11.81,103.66,103.66,0,0,1,3.1-22c.44-1.75.92-3.48,1.48-5.18s1.11-3.31,1.68-4.94q1.72-4.87,3.64-9.52a132.15,132.15,0,0,1,8.7-17.46A84,84,0,0,1,127.42,368a64.55,64.55,0,0,1,6.52-5.92,56.56,56.56,0,0,1,7.13-4.7,43.08,43.08,0,0,1,8.36-3.51l1.19-.34a12,12,0,0,1,1.25-.32,11.77,11.77,0,0,1,2.73-.27,9.47,9.47,0,0,1,5.1,1.66,12.14,12.14,0,0,1,3.25,3.46,18.73,18.73,0,0,1,1.75,3.55A23.3,23.3,0,0,1,166,366.44Z" transform="matrix(-1, 0, 0, 1, 380, 0)" /><path class="cls-2" d="M102.83,427.23A49.26,49.26,0,0,1,99,438.69a3.77,3.77,0,0,0-.56,2.57,3.68,3.68,0,0,0,.68,1.17c4.6,6,13.9,9.91,23.43,10,3.08,0,6.41-.44,8.46-2.08a8.38,8.38,0,0,0,2.6-4.76l1.38-5" transform="matrix(-1, 0, 0, 1, 380, 0)" /><path d="M135.05,440.55c.24.33-.25,2.67-.87,5.37a10.22,10.22,0,0,1-1.74,4.13,8.72,8.72,0,0,1-3.07,2.32c-3.09,1.5-6.67,1.64-10.12,1.49a34.84,34.84,0,0,1-10.14-2.12,27.16,27.16,0,0,1-7.7-4.28c-.58-.44-1.1-1-1.65-1.45s-1-1-1.46-1.63a9.88,9.88,0,0,1-1.37-2,3.9,3.9,0,0,1-.34-1.78,4.62,4.62,0,0,1,.34-1.45,17.9,17.9,0,0,1,.9-1.81l.8-1.57c.51-1,1-2.06,1.43-3.05.87-2,1.59-3.88,2.21-5.59a17.24,17.24,0,0,1,.29,6.63,15.23,15.23,0,0,1-1.63,5.48c-.32.52-.59.93-.74,1.21s-.18.3-.19.46a3.9,3.9,0,0,0,.62,1.1,10.24,10.24,0,0,0,.89,1.19,19.4,19.4,0,0,0,4.43,3.88,27.44,27.44,0,0,0,10.18,3.87,31.36,31.36,0,0,0,9.52.23,12.16,12.16,0,0,0,3.85-1.17,5.48,5.48,0,0,0,2.39-2.42c.51-1,1.11-2.62,1.76-4S134.85,440.94,135.05,440.55Z" transform="matrix(-1, 0, 0, 1, 380, 0)" /><path class="cls-3" d="M160.41,391.94c-7.58,9.52-14.23,22.32-22.21,41.3-4,9.58-6,14.48-17.72,12.24a34.72,34.72,0,0,1-22.06-14.24,6,6,0,0,1-1.2-2.67c-.18-1.5.65-2.92,1.42-4.23,8.09-13.76,11.7-28.41,20.33-41.87,7.85-12.23,18.65-23.14,32.81-27.61,10.88-3.44,14.23,11.57,14.23,11.57" transform="matrix(-1, 0, 0, 1, 380, 0)" /><path d="M166,366.44c-.34-.36-1-2.59-2.7-5.46a14.53,14.53,0,0,0-3.61-4.18,8.36,8.36,0,0,0-2.73-1.33,7.78,7.78,0,0,0-3.16-.12l-.82.16-.81.24-1.7.62c-1.15.38-2.24.94-3.36,1.4a51.35,51.35,0,0,0-6.23,3.53,52.27,52.27,0,0,0-9,7.57,85.57,85.57,0,0,0-9.93,12.93,107,107,0,0,0-7.81,15.05c-2.29,5.29-4.39,10.75-6.71,16.14-1.15,2.7-2.39,5.37-3.7,8-.66,1.31-1.34,2.6-2.06,3.87a15.15,15.15,0,0,0-1.5,3,.93.93,0,0,0,0,.45,3.49,3.49,0,0,0,.41.82c.24.38.61.87.93,1.3s.68.87,1,1.3a30,30,0,0,0,4.78,4.57A33.4,33.4,0,0,0,119,442.08c4.19,1.07,8.76,1.63,11-.23a12.22,12.22,0,0,0,3.28-4.4c1-1.86,1.84-3.9,2.74-5.91A248.87,248.87,0,0,1,147.3,409a101.87,101.87,0,0,1,12.44-17.6c-1.31,2.64-2.89,5.83-4.47,9.28s-3.18,7.17-4.69,10.8c-3,7.25-5.67,14.15-7.43,17.64-.89,1.75-1.74,3.51-2.59,5.25s-1.68,3.54-2.66,5.32a19.77,19.77,0,0,1-3.79,5.17,10.91,10.91,0,0,1-6.1,2.84,21.55,21.55,0,0,1-6-.25,38.88,38.88,0,0,1-5.53-1.38,38.19,38.19,0,0,1-9.87-4.94,35.25,35.25,0,0,1-7.74-7.32c-.56-.68-1-1.41-1.54-2.13A7.37,7.37,0,0,1,96.09,429a5.52,5.52,0,0,1,.43-3.07,19.37,19.37,0,0,1,1.23-2.33,138.25,138.25,0,0,0,8.16-17c2.35-5.66,4.57-11.21,7.13-16.43a90.91,90.91,0,0,1,8.77-14.48c6.49-8.77,14.44-15.86,23.31-19.78,1-.52,2.21-.92,3.44-1.4l1.93-.6,1-.3c.37-.08.73-.17,1.11-.24a10.07,10.07,0,0,1,4.65.27,9.84,9.84,0,0,1,3.84,2.34,16.93,16.93,0,0,1,3.8,6.32A22.62,22.62,0,0,1,166,366.44Z" transform="matrix(-1, 0, 0, 1, 380, 0)" /><g id="tuxedo" transform="matrix(-1, 0, 0, 1, 380, 0)"><path class="cls-1 color-body" d="M234.88,441c-13.64-36.84,9-78.79-30.64-91.82-29.14-9.57-59.41,5.74-75.67,54.17-5.89,17.56-7.77,42.31-3.48,60h0s6,10.25,50.16,13c42.25,2.63,64.39-13,64.39-13h0C238.82,456.23,237.18,447.24,234.88,441Z" style="fill:#ffffff;--backup-fill:#ffffff" /><path class="cls-2" d="M234.88,441.53c-9.24-24.94,6.62-60-8.3-71.57-14.08-11.46-28.08-1.46-43.31,5.49a57.5,57.5,0,0,0-14.37,9.32C168,382,161.4,374,157.5,362.5c-13.57,10.5-21.95,24.66-28.93,41.38-12.71,30.47-8.16,66.91,12.6,92a56.92,56.92,0,0,0,15.22-16.57,79.83,79.83,0,0,0,14,20.66,9.45,9.45,0,0,0,3.51,2.68c1.84.67,3.88.21,5.77-.33,16.72-4.79,30.83-15.4,43.71-26.72,3.16-2.77,13.82-8.08,15.48-11.43C241.46,458.88,236.8,446.7,234.88,441.53Z" /><path d="M234.94,441.51a23.69,23.69,0,0,1,1.83,3.81,65,65,0,0,1,2.86,8.58,29.36,29.36,0,0,1,.9,6,13.14,13.14,0,0,1-.34,3.46,7,7,0,0,1-.8,1.81,8.23,8.23,0,0,1-1.26,1.46,42.09,42.09,0,0,1-5.88,4.43c-2.07,1.37-4.26,2.7-6.32,4.14-.51.36-1,.73-1.47,1.1s-1,.85-1.45,1.28c-1,.87-2,1.74-3,2.61-2,1.74-4.08,3.45-6.17,5.12A140.44,140.44,0,0,1,201,494.44a97.08,97.08,0,0,1-12.8,6.7c-1,.44-2,.86-3,1.22s-1.94.75-2.88,1.05-1.83.63-2.74.89a15.71,15.71,0,0,1-2.87.6,8.64,8.64,0,0,1-2.47-.09,7.38,7.38,0,0,1-2.47-.93,16.7,16.7,0,0,1-3.38-2.9,79.68,79.68,0,0,1-10.2-13l-1.44-2.32c-.25-.39-.46-.83-.67-1.13-.2.36-.39.7-.59,1l-.29.47c-.13.19-.09.14-.57.79a60.83,60.83,0,0,1-4.84,5.58c-.88.88-1.77,1.75-2.7,2.57l-.35.32-.17.15-.23.2-1.18,1c-.78.66-1.62,1.26-2.43,1.89l-1.25.95c-.41.24-.87.93-1.15.22l-1.95-2.39c-1.06-1.36-2.12-2.73-3.19-4.09a89,89,0,0,1-13.25-26.73,93.65,93.65,0,0,1-4-29.61,96,96,0,0,1,5-28.92l1.3-3.53c.43-1.18.87-2.35,1.36-3.46q1.41-3.37,3-6.71a123.23,123.23,0,0,1,7-13,90,90,0,0,1,8.84-11.89c1.62-1.86,3.36-3.62,5.15-5.31l.33-.32.58-.49,1.19-1,2.38-2,5.3-4.29,2.19,6c.37,1,.72,2,1.12,3l.82,1.91q1.23,2.69,2.64,5.29c.94,1.73,2,3.44,3,5.16l.8,1.3.05.09,0,0,0,0,0,.1.05,0,0,0h0l.18-.14c1.43-1,2.9-2,4.4-2.94s3-1.75,4.59-2.53c.78-.39,1.56-.75,2.35-1.11l2.17-1c5.79-2.67,11.56-5.75,18-7.86a34.52,34.52,0,0,1,10.2-1.82,24,24,0,0,1,10.35,2.15c.8.36,1.53.83,2.29,1.24.37.21.76.41,1.11.65l1,.74c.67.51,1.33,1,2,1.52a17.12,17.12,0,0,1,1.92,1.89,18.25,18.25,0,0,1,2.89,4.45,25.51,25.51,0,0,1,1.56,4.74,42.52,42.52,0,0,1,.92,9.17c0,3-.14,5.83-.36,8.63-.44,5.6-1.09,10.93-1.52,16.1-.88,10.28-.94,20,1.78,28.46a41.17,41.17,0,0,1-3.52-9.38,71.44,71.44,0,0,1-1.77-11.59c-.66-8.18-.23-17-.3-25.31a70.4,70.4,0,0,0-.88-11.77,27.19,27.19,0,0,0-1.4-4.9,13.61,13.61,0,0,0-2.25-3.62l-.66-.71-.76-.62a9.43,9.43,0,0,0-.85-.62l-.89-.61-.86-.6-.87-.45-.84-.45a3.83,3.83,0,0,0-.83-.38l-1.61-.62c-.52-.17-1-.25-1.54-.38l-.72-.19-.72-.08-1.34-.18a28.78,28.78,0,0,0-11,1.81c-3.75,1.27-7.49,3-11.26,4.7-1.88.86-3.78,1.73-5.71,2.56-1,.44-1.84.79-2.73,1.21s-1.76.85-2.61,1.31a50.81,50.81,0,0,0-5,3l-.59.41-.74.53c-.66.52-1.32,1-2,1.55l-1.93,1.62-.94.8-.47.39-.23.2a.83.83,0,0,1-.2.09c-.7-1.65-1.52-3.54-2.32-5.06-.66-1.14-1.33-2.27-2-3.4-1.08-1.83-2.14-3.68-3.12-5.56s-1.89-3.79-2.72-5.71l-.3-.72-.13-.33-.25-.68c-.18-.46-.32-.93-.48-1.41,0-.11-.06,0-.11,0l-.14.11-.29.22-.59.44-1.36,1.14L154,368l-.26.24-.54.51-1.07,1c-.72.67-1.38,1.39-2.07,2.09a78.29,78.29,0,0,0-7.39,9A119.22,119.22,0,0,0,131.54,401c-.75,1.73-1.54,3.46-2.17,5.2l-1,2.6-.49,1.3-.41,1.32c-.51,1.77-1.12,3.5-1.55,5.28s-.81,3.56-1.22,5.32a90.84,90.84,0,0,0-1.52,21.28,92.07,92.07,0,0,0,3.2,20.32,86.56,86.56,0,0,0,7.56,18.3,92.59,92.59,0,0,0,5.13,8.15l2.09,2.66.19.24.1.13,0,.06.06,0,.51-.39c.33-.26.65-.52,1-.81l.71-.62.86-.77c.57-.52,1.11-1.06,1.66-1.59,1.08-1.08,2.1-2.21,3.08-3.36.49-.58,1-1.17,1.43-1.76l.87-1.15c.35-.48.68-1,1-1.46,1.34-2,2.66-4.16,3.92-6.2,1.08,2.11,2.19,4.46,3.32,6.65l.88,1.61c.14.25.31.56.44.77l.3.5c.38.67.8,1.32,1.2,2a78.41,78.41,0,0,0,5.32,7.42c1,1.18,1.92,2.31,2.92,3.42a18.35,18.35,0,0,0,2.89,2.79,3.16,3.16,0,0,0,1.26.52,4.88,4.88,0,0,0,1.58,0,24.65,24.65,0,0,0,3.95-1,84.09,84.09,0,0,0,15.61-6.78,132.52,132.52,0,0,0,13.86-9c1.88-1.41,3.92-2.95,6-4.64l3.24-2.6,1.66-1.35c.57-.47,1.06-.89,1.76-1.42,1.31-1,2.59-1.7,3.88-2.47l3.85-2.24c1.26-.75,2.52-1.5,3.7-2.28a18.76,18.76,0,0,0,3.16-2.51,5.51,5.51,0,0,0,1.25-3.28,18,18,0,0,0,0-3.81,49.59,49.59,0,0,0-1.22-6.91C236.44,446.16,235.4,443.05,234.94,441.51Z" /><path class="cls-2" d="M167,388.66c-.94-2.27,1.7-4.72,4.16-4.58s4.49,1.88,6.29,3.56c2.17,2,4.37,4.16,5.5,6.91a2.77,2.77,0,0,0,.87,1.37c.74.48,1.7,0,2.46-.4a106.36,106.36,0,0,0,24.15-19.4c2.85-3.08,6.4-9.47,7.09-13.62-3.33-.84-5,0-9,0a39.45,39.45,0,0,0-6.69.62,12.47,12.47,0,0,0-3.7,1.85L177,378.69a61.32,61.32,0,0,0-9.73,7.27" /><path d="M167.22,385.94a11.7,11.7,0,0,1,2.58-2.75,67.41,67.41,0,0,1,6.25-4.64c4.86-3.29,10.41-7,13.42-9.16l5.85-4.14c1-.71,2-1.4,3.06-2.12a14.73,14.73,0,0,1,1.81-1,9,9,0,0,1,2.11-.63,38.17,38.17,0,0,1,3.88-.5c.65-.05,1.29-.1,2-.12s1.21,0,1.82-.08c1.18-.08,2.38-.27,3.75-.37.35,0,.7,0,1.06,0l.61,0,.87.08c1.15.15,2.22.42,3.35.66q-.27,1.41-.57,2.79a14.36,14.36,0,0,1-.38,1.39c-.08.27-.17.53-.26.79a31.3,31.3,0,0,1-1.22,3,42.34,42.34,0,0,1-3,5.4c-.49.71-1,1.42-1.55,2.11-.27.34-.59.7-.87,1l-.84.91c-1.13,1.21-2.29,2.37-3.47,3.51-2.36,2.27-4.81,4.41-7.31,6.38s-5.07,3.79-7.64,5.45q-1.94,1.25-3.87,2.37l-1,.55-.49.27a6.49,6.49,0,0,1-.59.31,4.81,4.81,0,0,1-1.87.5,3,3,0,0,1-1.8-.51,3.24,3.24,0,0,1-1-1.18,6.81,6.81,0,0,1-.33-.73l-.16-.41a9.56,9.56,0,0,0-.66-1.37,16.55,16.55,0,0,0-1.84-2.54c-.7-.81-1.45-1.59-2.21-2.35a24.9,24.9,0,0,0-2.24-2.08c-1.46-1.19-3.18-1.92-4.6-1.45s-2.74,1.9-2.28,3.22a2.11,2.11,0,0,1-.43-1.09,2.77,2.77,0,0,1,.29-1.42,4.61,4.61,0,0,1,2.59-2.3,6.11,6.11,0,0,1,4,.16,14,14,0,0,1,3.46,1.92,30.11,30.11,0,0,1,5.31,4.74,13.67,13.67,0,0,1,1.75,2.66c.57,1.26.33.81.36.93h0a.1.1,0,0,0,.06.1s0,0,.08,0l.29-.13.73-.38c1-.51,2-1.05,2.94-1.6,1.92-1.09,3.77-2.25,5.56-3.46a91.15,91.15,0,0,0,9.9-7.71q2.26-2,4.33-4.16a27.16,27.16,0,0,0,2-2.12,24.94,24.94,0,0,0,1.67-2.3,37,37,0,0,0,2.7-4.87c.37-.83.72-1.67,1-2.51.16-.49.22-.64.29-.94s.12-.53.17-.8a5.81,5.81,0,0,0-.85-.16,6.62,6.62,0,0,0-1-.05,26.64,26.64,0,0,0-2.76.21c-.94.11-1.9.19-2.85.21s-1.8.06-2.71.13-1.78.16-2.63.27a10.26,10.26,0,0,0-2.36.53,28.74,28.74,0,0,0-4.23,2.58c-5.65,3.75-10.91,7.2-15.91,10.28-2.27,1.45-5.51,3.22-8.27,4.87A49.06,49.06,0,0,0,167.22,385.94Z" /><path class="cls-2" d="M168.48,386.87c-1.19-.85-1.28-2.56-2-3.8-1.14-1.87-3.73-2.4-5.84-1.81a15.31,15.31,0,0,0-5.53,3.46l-5.94,5a104.85,104.85,0,0,1-5.18-32.59,2.73,2.73,0,0,1,2.23-3.38c3.45-1.12,7.08-2.25,10.63-1.57a3.35,3.35,0,0,1,1.78.78,4,4,0,0,1,.84,1.54l5.9,16.1c1.85,5.05,3.72,10.31,3.19,15.65" /><path d="M168.48,386.28a30.08,30.08,0,0,1-.31-3.12,33.6,33.6,0,0,0-1.38-6.24c-.72-2.33-1.68-4.76-2.57-7s-1.69-4.26-2.31-5.7c-1.1-2.52-2.2-5.16-3.3-7.85l-.41-1c-.14-.34-.27-.68-.39-.9a1.17,1.17,0,0,0-.29-.4,1.69,1.69,0,0,0-.45-.19,9.08,9.08,0,0,0-1.8-.23,11.88,11.88,0,0,0-2,.1,22.45,22.45,0,0,0-4.05.92c-.69.21-1.37.44-2.07.68-.35.12-.72.24-.94.33s-.31.17-.31.18a.49.49,0,0,0-.07.19,3.25,3.25,0,0,0-.07.67c0,.28,0,.64,0,1l0,1.07c0,1.43.11,2.85.21,4.24a119.76,119.76,0,0,0,1.89,14.37c.45,2.33,1,4.62,1.53,6.85.15.56.29,1.11.44,1.66l.11.41v.11l0,.2a.55.55,0,0,0,.13-.05l.08-.05.05,0h0l.07-.06.16-.13,1.3-1,2.55-2a15.26,15.26,0,0,1,5.89-3.24,7.48,7.48,0,0,1,3.46.05,5.69,5.69,0,0,1,2.89,1.72,4.88,4.88,0,0,1,.83,1.41,13.17,13.17,0,0,1,.42,1.32,3.77,3.77,0,0,0,.92,1.89,3.1,3.1,0,0,1-1.63-1.53,6.6,6.6,0,0,0-1.65-2.05,4.9,4.9,0,0,0-4.79-.12,16.89,16.89,0,0,0-4,3.11,36,36,0,0,1-3.14,2.71L153,389l-.31.22-.52.41L150,391.32l-1,.81-.51.39-.13.1s0-.1,0-.14l-.1-.34c-.25-.88-.49-1.76-.74-2.63l-.35-1.26-.29-1.14-.33-1.43c-.21-1-.42-1.9-.61-2.84-.77-3.77-1.32-7.44-1.76-11s-.67-7-.8-10.4c0-1.7-.11-3.3-.08-5a4.7,4.7,0,0,1,.28-1.42,2.84,2.84,0,0,1,1-1.3,5.08,5.08,0,0,1,1.28-.61l1.13-.38c3-1,6.09-1.86,9.27-1.54a6.53,6.53,0,0,1,2.46.63,3.11,3.11,0,0,1,1.13,1,6.1,6.1,0,0,1,.57,1.15l1.5,3.92c1.95,5.13,3.73,9.9,5.24,14.45a35.66,35.66,0,0,1,1.76,8A20.22,20.22,0,0,1,168.48,386.28Z" /><path d="M156.66,476.15a10.19,10.19,0,0,1,1,2.72l-.75.25a33.5,33.5,0,0,1-2.5-9.07c-.54-3.42-.81-6.81-1-8.92-1.07-10-.53-21.53.66-31.84a132.87,132.87,0,0,1,5.5-25.71A68.61,68.61,0,0,1,169,384.2c-.69,2.71-1.82,6.4-2.77,9.88s-1.82,6.75-2.51,8.39A106.17,106.17,0,0,0,158,422a145.19,145.19,0,0,0-2.33,17.88A188.63,188.63,0,0,0,156,469.4c.16,1.47.33,3.32.57,5.06a32,32,0,0,0,.86,4.4L157,479C156.77,477.33,156.69,476.53,156.66,476.15Z" /><path class="cls-3" d="M147.39,370.22c-3.17,6-1.6,17.87-2.45,24.58q-1.92,15.26-5.06,30.32A381.47,381.47,0,0,1,121.81,486c-9.53-21.86-2.55-57.22,3.69-79.45,3.86-13.75,10-29,21.26-38.49" /><path d="M146.79,368.05c-.2.52-2.12,2.28-4.51,5.24a65.24,65.24,0,0,0-7.65,11.92,99.49,99.49,0,0,0-6.06,15.24c-1.57,5-2.67,9.7-3.39,13.05a239.67,239.67,0,0,0-5.22,36,114.56,114.56,0,0,0,.3,18.45c.21,1.5.36,3,.61,4.49s.55,2.78.83,4.16l.21.61c0,.05.07.11.1.09l0-.18a1.39,1.39,0,0,1,0-.15v0l.31-.89.68-1.93q1.35-3.86,2.62-7.7,2.53-7.71,4.74-15.35c3-10.18,5.46-20.21,7.56-29.85s3.82-18.93,5.13-27.44c.5-4.12.44-8.42.78-12.47a50,50,0,0,1,.78-6,17.85,17.85,0,0,1,2-5.52c-1,3.4-.81,7.36-.48,11.6.21,2.13.42,4.34.63,6.57a54.57,54.57,0,0,1,.28,7,136.33,136.33,0,0,1-2.55,21.77c-3.06,13-6.44,25.2-10.06,36.75q-2.72,8.67-5.6,16.83c-1,2.73-1.93,5.4-2.91,8.05-1.37,3.66-2.74,7.21-4.1,10.71h-.1a1,1,0,0,1-.1-.25l-.21-.55-.41-1.1c-.27-.73-.54-1.45-.82-2.18a42.53,42.53,0,0,1-1.4-4.32c-.22-.71-.43-1.43-.64-2.14l-.32-1.07-.16-.85c-.22-1.13-.43-2.25-.65-3.37A94.27,94.27,0,0,1,115.92,460a155,155,0,0,1,1.73-24.82,221.24,221.24,0,0,1,4.46-22.37,137.53,137.53,0,0,1,6.36-20,75.39,75.39,0,0,1,3.8-7.81,63.92,63.92,0,0,1,5.24-7.86,48.43,48.43,0,0,1,5.52-6A45.22,45.22,0,0,1,146.79,368.05Z" /><path class="cls-3" d="M218.5,363.5c-6.34,11.88-26.18,25.24-28.67,39-2.67,14.63-4.9,29.38-5.09,44.28-.25,19.14,14.73,30.42,23.91,47.22,1.37,2.49,3.21,5.16,6,5.59s5.43-1.63,7.47-3.65c6.27-6.22,13.22-14.38,16.31-22.79,3.47-9.46-.55-19.52-2-29.57a359.79,359.79,0,0,1-3.29-67.85" /><path d="M233.2,375.69c.43,1.2.08,12.39.59,25.31.24,6.45.69,13.34,1.27,19.61s1.31,11.93,1.95,15.95q.42,2.67.89,5.37c.28,1.83.64,3.56,1,5.36.8,3.6,1.77,7.27,2.44,11.16a33.66,33.66,0,0,1,.12,12.27,24.77,24.77,0,0,1-.83,3.12c-.36,1-.73,2-1.15,2.89a50.42,50.42,0,0,1-2.87,5.45,76.44,76.44,0,0,1-7.2,9.75q-2,2.29-4,4.44a28.55,28.55,0,0,1-4.8,4.3,10.63,10.63,0,0,1-3.59,1.52,8,8,0,0,1-4.35-.32,9.36,9.36,0,0,1-3.38-2.23,16.39,16.39,0,0,1-2.16-2.72c-.29-.46-.57-.92-.82-1.37l-.71-1.21c-.47-.79-.91-1.59-1.41-2.36l-1.49-2.31-1.56-2.26c-3.65-5.27-7.8-10.33-11.41-16-.93-1.39-1.75-2.88-2.6-4.33s-1.58-3-2.2-4.63a48.4,48.4,0,0,1-1.74-4.86,42.13,42.13,0,0,1-1-5.07c-.09-.86-.27-1.7-.29-2.56l-.08-2.57c-.05-.88,0-1.63,0-2.44s0-1.6.08-2.39c.14-3.18.36-6.33.66-9.43.59-6.21,1.45-12.26,2.45-18.12.49-2.93,1-5.81,1.57-8.65.28-1.42.56-2.82.84-4.22a25.1,25.1,0,0,1,1.44-4.47,31.8,31.8,0,0,1,2-4c.82-1.19,1.56-2.44,2.44-3.53l1.28-1.66,1.33-1.56c.87-1.06,1.79-2,2.68-3,3.61-3.87,7.26-7.29,10.58-10.67a61.15,61.15,0,0,0,8.53-10.17c-1.21,3.56-3.82,7.65-6.88,11.74s-6.62,8.29-9.76,12.44-5.93,8.3-7.29,12l-.5,1.36c-.14.44-.2.88-.31,1.3s-.21.79-.29,1.27-.16.95-.24,1.4c-.32,1.81-.61,3.38-.88,4.66a234.82,234.82,0,0,0-4.71,30.14c-.21,2.45-.33,4.89-.44,7.32,0,1.16,0,2.32.06,3.48s.23,2.3.44,3.44a40.86,40.86,0,0,0,4.85,12.81,120,120,0,0,0,7.55,11.38c2.65,3.67,5.29,7.3,7.65,11.06.61.93,1.17,1.88,1.72,2.84s1.09,1.93,1.61,2.79c1,1.73,2.39,3.27,4,3.72s3.34-.19,4.86-1.35a21.15,21.15,0,0,0,2.2-2c.73-.73,1.44-1.46,2.14-2.2a89.23,89.23,0,0,0,7.64-9.19,47.09,47.09,0,0,0,5.57-9.93,26.83,26.83,0,0,0,.87-2.57,23.31,23.31,0,0,0,.51-2.62,25.64,25.64,0,0,0,.16-5.33,72.33,72.33,0,0,0-1.72-10.59c-.77-3.48-1.53-7.06-2-10.53s-.92-6.86-1.29-10.22c-.75-6.7-1.22-13.21-1.47-19.49-.29-6-.23-14.14.17-21.3S233,377.7,233.2,375.69Z" /><ellipse class="cls-4" cx="196.81" cy="405.96" rx="5.5" ry="7.5" /><path d="M202.28,406c-.34-.17-.43-1.73-1.18-3.28a6.57,6.57,0,0,0-1.44-2.06,3.32,3.32,0,0,0-5.49,1.12,7.92,7.92,0,0,0-.87,5.1,6.94,6.94,0,0,0,1.65,3.73,2.68,2.68,0,0,0,2.71,1,4.9,4.9,0,0,0,2.67-2.18,11.15,11.15,0,0,0,1.41-3.39,5.87,5.87,0,0,1,1,4.63,6.39,6.39,0,0,1-1,2.44,4.23,4.23,0,0,1-1.55,1.37,6.41,6.41,0,0,1-3,.6,5.91,5.91,0,0,1-2.72-.83,7.8,7.8,0,0,1-3-3.67,11.48,11.48,0,0,1-.87-4.06,11.64,11.64,0,0,1,.48-3.84,8.65,8.65,0,0,1,1.79-3.27,5.73,5.73,0,0,1,3.24-1.88,5.19,5.19,0,0,1,3.55.7,6.41,6.41,0,0,1,3,5.54A7.76,7.76,0,0,1,202.28,406Z" /></g><path class="cls-2" d="M191.49,416.89q12.06-.21,24.1.17a53.4,53.4,0,0,1-12.53,14.66,1.89,1.89,0,0,1-1.13.55,1.85,1.85,0,0,1-1.12-.52,44.08,44.08,0,0,1-11.39-13.15,1.4,1.4,0,0,1-.25-1.23c.17-.39.92-.4.93,0" transform="matrix(-1, 0, 0, 1, 380, 0)" /><path d="M190.08,417.4a.33.33,0,0,0-.4-.2.45.45,0,0,0-.35.21.75.75,0,0,0,0,.55,12.93,12.93,0,0,0,.87,1.49c.35.55.74,1.14,1.16,1.74a40,40,0,0,0,5.22,6.14c1.19,1.1,2.47,2.19,3.83,3.23.34.25.7.53,1,.75a1.21,1.21,0,0,0,.38.19.28.28,0,0,0,.2,0,3.59,3.59,0,0,0,.81-.61l1-.86a54.88,54.88,0,0,0,7-7.6c.89-1.16,1.72-2.36,2.5-3.57l.51-.8h0l-4.14-.07-4.1-.1c-5.35-.15-10.19-.39-14.07-.69A61.8,61.8,0,0,1,204.06,416q3.62.25,7,.4l1.69.07,1.93.06,1.21,0a2.7,2.7,0,0,1,.54,0l-.32.52-.63,1-.56.89a61.12,61.12,0,0,1-7.57,9.36c-1.32,1.34-2.66,2.57-4,3.71a2.21,2.21,0,0,1-1.47.64,2.54,2.54,0,0,1-1.41-.64c-.68-.52-1.34-1.05-2-1.59a38.36,38.36,0,0,1-6.29-6.78,29.48,29.48,0,0,1-2.52-4.17c-.18-.37-.36-.71-.51-1.06a1.5,1.5,0,0,1-.12-1.09.63.63,0,0,1,.73-.37A.33.33,0,0,1,190.08,417.4Z" transform="matrix(-1, 0, 0, 1, 380, 0)" /><g id="tux" transform="matrix(-1, 0, 0, 1, 380, 0)"><path class="cls-1 color-body" d="M221.17,448.65c2.91,22.66,8.17,41,19.89,39.46,14.69-2,18.92-32.77,18-48-1.14-18.56-3.92-46-22.5-62.52-15.91-14.11-24.32-.71-24.32-.71" style="fill:#ffffff;--backup-fill:#ffffff" /><path d="M212.16,376.81a3.58,3.58,0,0,1,.83-1.69,11.67,11.67,0,0,1,2.88-2.8,12,12,0,0,1,5.3-2.13,7.91,7.91,0,0,1,1.63-.15,8.69,8.69,0,0,1,1.69,0l1.73.24c.57.13,1.12.31,1.7.48,4.57,1.42,8.55,4.53,11.74,7.6l1.21,1.13c.39.37.73.79,1.09,1.17l2,2.24,3.19,4c6.15,8.25,10.16,18.78,12.45,29.5a148.41,148.41,0,0,1,2.48,16.19c.27,2.7.51,5.31.69,8s.18,5.47.1,8.13a96.8,96.8,0,0,1-1.45,13.82,68.63,68.63,0,0,1-3.72,13.42,39.14,39.14,0,0,1-3.22,6.4,24,24,0,0,1-4.91,5.73,15.68,15.68,0,0,1-7.35,3.44,12.77,12.77,0,0,1-8.2-1.21,16.19,16.19,0,0,1-5.57-5,29.8,29.8,0,0,1-3.11-5.72,60.15,60.15,0,0,1-3.24-11.16A126.52,126.52,0,0,1,220,448.8c2.31,5,4.82,12.36,7.5,18.93a89.82,89.82,0,0,0,4.05,8.79,42.14,42.14,0,0,0,3.36,5.3,8,8,0,0,0,2.67,2.49,6.14,6.14,0,0,0,1.57.57,6.8,6.8,0,0,0,1.81.05,10.46,10.46,0,0,0,6.89-4.17,30.43,30.43,0,0,0,4.67-8.1,59.38,59.38,0,0,0,2.83-9,87.28,87.28,0,0,0,2.22-18.12,84.38,84.38,0,0,0-.34-8.73c-.22-2.88-.49-5.71-.83-8.48-1.34-11.06-3.81-21.24-7.8-29.94A58,58,0,0,0,233,377.29l-.56-.47-.62-.43-1.3-.92a10.06,10.06,0,0,0-1.41-.87c-.49-.26-1-.58-1.49-.83a13.76,13.76,0,0,0-6.63-1.42,12.19,12.19,0,0,0-5.81,1.95A14.16,14.16,0,0,0,212.16,376.81Z" /><path class="cls-2" d="M223.36,457.69v8.72a5.77,5.77,0,0,0,.58,3.11,5.24,5.24,0,0,0,2.41,1.8,31.65,31.65,0,0,0,25.55.26c3.57-1.56,7.21-4.39,7.33-8.29.09-2.72-1.59-5.29-1.37-8" /><path d="M257.88,455.28a8.34,8.34,0,0,1,.44,1.67c.22.9.68,2.05,1.1,3.38a12.76,12.76,0,0,1,.48,2.15,7.56,7.56,0,0,1-.1,2.28,9.56,9.56,0,0,1-1.52,3.43c-1.88,2.83-5.12,4.69-8.3,5.88a31.39,31.39,0,0,1-10.06,2,29.55,29.55,0,0,1-8.58-.91,30,30,0,0,1-4-1.33c-.64-.27-1.25-.57-1.86-.86a9,9,0,0,1-2-1.26,4.92,4.92,0,0,1-1.5-2.31,7.2,7.2,0,0,1-.24-2.25c.07-1.27.17-2.34.27-3.45.21-2.19.45-4.21.72-6a25.59,25.59,0,0,1,2,6.19c.24,1.09.4,2.24.5,3.09s.24,1.22.27,1.42c0,.38.51,1,1.39,1.48l1.33.75c.46.23.92.44,1.37.65a24.67,24.67,0,0,0,5.63,1.69,27.11,27.11,0,0,0,15.34-1.86,18.07,18.07,0,0,0,3.88-2.17c2.28-1.68,3.73-3.85,3.72-6.08a36.43,36.43,0,0,0-.46-4.25A8.13,8.13,0,0,1,257.88,455.28Z" /><path class="cls-3" d="M210.79,402.93c6.54,15.34,10.41,33.53,8.84,50.06a9.85,9.85,0,0,0,.47,5.29,8.31,8.31,0,0,0,4.32,3.52c10.93,4.86,23.7,1.89,34.86-2.42a3.25,3.25,0,0,0,1.75-1.19,3.19,3.19,0,0,0,.27-1.73,245.92,245.92,0,0,0-5.44-42.24c-3-13.69-8.66-27.2-19.32-36.67-15.91-14.11-24.32-.71-24.32-.71" /><path d="M212.18,376.82a4.55,4.55,0,0,1,1-1.73,12.19,12.19,0,0,1,3.2-2.85,12.9,12.9,0,0,1,5.75-1.89,15.94,15.94,0,0,1,7.05,1.26,23.31,23.31,0,0,1,3.37,1.73l1.62,1c.51.38,1,.78,1.5,1.16l1.49,1.17c.48.41.93.83,1.39,1.25.94.81,1.76,1.72,2.62,2.56a65.76,65.76,0,0,1,7.39,9.7,70.55,70.55,0,0,1,7.17,15.29c.92,2.74,1.71,5.55,2.4,8.39s1.28,5.66,1.86,8.52c1.14,5.72,2.06,11.51,2.78,17.28q.53,4.32.9,8.61c.11,1.43.23,2.85.31,4.26l.12,2.13.06,1.05,0,.53v.93a5,5,0,0,1-1.18,3.21,5.34,5.34,0,0,1-1.35,1.1,7.31,7.31,0,0,1-.79.4l-.64.26c-1.16.45-2.31.89-3.49,1.3-2.34.82-4.72,1.58-7.15,2.17a59.51,59.51,0,0,1-7.4,1.37,44.7,44.7,0,0,1-7.59.22,33.72,33.72,0,0,1-7.52-1.34c-.61-.2-1.23-.37-1.82-.6l-1.77-.72a14.8,14.8,0,0,1-3.62-2.13,9.44,9.44,0,0,1-1.68-1.81,7.93,7.93,0,0,1-1.12-2.35,11.87,11.87,0,0,1-.3-4.33c.1-1.11.21-2.22.31-3.32s.14-2.12.21-3.17a105.41,105.41,0,0,0-1.88-24A138.75,138.75,0,0,0,210,403.26a74.8,74.8,0,0,1,9.52,19.89,79.46,79.46,0,0,1,2.63,11,47.79,47.79,0,0,1,.69,8.29c0,1-.07,2-.11,3s-.12,2-.21,3-.16,2-.3,3-.23,1.89-.35,2.83a9,9,0,0,0-.06,2.23,3.08,3.08,0,0,0,.63,1.55,9.4,9.4,0,0,0,3.81,2.47,27,27,0,0,0,4.88,1.58,32.24,32.24,0,0,0,5.08.65,43.1,43.1,0,0,0,10.15-.8,72.28,72.28,0,0,0,9.68-2.64c.78-.26,1.55-.55,2.32-.83l.58-.21.35-.15a1.58,1.58,0,0,0,.6-.45,1.27,1.27,0,0,0,.23-.7c0-.13,0-.25,0-.38l0-.56c0-.81-.07-1.62-.1-2.42-.3-6.45-.95-12.67-1.79-18.66s-1.9-11.76-3.09-17.3c-.6-2.77-1.22-5.46-2-8.06s-1.58-5.13-2.51-7.57c-3.7-9.75-9.15-18-15.89-23.9A31.12,31.12,0,0,0,229,374a14.26,14.26,0,0,0-7.28-2,12.22,12.22,0,0,0-6.36,2.06A13.62,13.62,0,0,0,212.18,376.82Z" /><ellipse class="cls-4" cx="251" cy="450" rx="5.5" ry="7.5" /><path d="M245.53,450c.34.16.43,1.73,1.18,3.28a6.68,6.68,0,0,0,1.44,2.06,3.58,3.58,0,0,0,1.64.92,3.62,3.62,0,0,0,3.85-2,7.92,7.92,0,0,0,.87-5.1,7,7,0,0,0-1.65-3.74,2.7,2.7,0,0,0-2.71-.95,4.86,4.86,0,0,0-2.67,2.18,11.05,11.05,0,0,0-1.41,3.39,5.89,5.89,0,0,1-1-4.64,6.34,6.34,0,0,1,1-2.43,4.14,4.14,0,0,1,1.55-1.37,6.44,6.44,0,0,1,3-.6,5.8,5.8,0,0,1,2.72.83,7.78,7.78,0,0,1,3,3.66,12,12,0,0,1,.39,7.9,8.62,8.62,0,0,1-1.79,3.28,5.71,5.71,0,0,1-3.24,1.87,5.08,5.08,0,0,1-3.55-.7,6.36,6.36,0,0,1-2.2-2.34,6.48,6.48,0,0,1-.78-3.2A7.67,7.67,0,0,1,245.53,450Z" /></g></svg>