<svg xmlns="http://www.w3.org/2000/svg" id="outfits_1" viewBox="0 0 380 600"><defs transform="matrix(-1, 0, 0, 1, 380, 0)"><style>.cls-1{fill:#ffffff;}.cls-2{fill:#fff1b6;}</style></defs><g id="default" transform="matrix(-1, 0, 0, 1, 380, 0)"><path class="cls-1 color-body" d="M160.412,391.443c-7.582,9.513-14.229,22.312-22.211,41.293-8.856,21.061-18.834,37.366-29.709,32.709-13.624-5.834-9.478-36.627-4.5-51.1,6.055-17.583,19.428-51.04,47.782-59.992,10.883-3.436,14.227,11.569,14.227,11.569" style="fill:#ffffff;--backup-fill:#ffffff" /><path d="M165.947,365.939c-.44-.388-1.22-2.975-3.311-6.14a11.8,11.8,0,0,0-4.514-4.165,7.376,7.376,0,0,0-3.27-.647,9.385,9.385,0,0,0-1.766.244l-.889.258-.948.349a49.238,49.238,0,0,0-14.275,8.128,57.561,57.561,0,0,0-9.412,9.67c-7.36,9.662-13.088,21.508-17.59,33.918-.567,1.551-1.111,3.116-1.646,4.685s-1.071,3.182-1.519,4.674a90.747,90.747,0,0,0-2.2,9.4,85.489,85.489,0,0,0-1.432,18.768,43.512,43.512,0,0,0,1.008,7.616,18.355,18.355,0,0,0,2.6,6.285,7.5,7.5,0,0,0,4.289,3.11,5.106,5.106,0,0,0,2.314.024,8.1,8.1,0,0,0,2.521-1.071,21.852,21.852,0,0,0,5.02-4.608,57.042,57.042,0,0,0,4.348-6.074,136.894,136.894,0,0,0,7.2-13.3c1.09-2.256,2.1-4.48,3.139-6.746s2.078-4.493,3.133-6.676c2.11-4.365,4.264-8.554,6.487-12.514a107.486,107.486,0,0,1,14.292-20.4c-1.433,3.123-3.134,6.869-4.826,10.907s-3.376,8.381-4.98,12.608c-3.2,8.461-6.094,16.461-8.124,20.507-4.173,8.251-8.377,16.247-13.84,23.355a43.419,43.419,0,0,1-4.532,5.018,21.3,21.3,0,0,1-5.745,3.964,13.467,13.467,0,0,1-3.535,1.017,11.727,11.727,0,0,1-3.722-.137,13.029,13.029,0,0,1-6.187-3.367,16.82,16.82,0,0,1-3.674-5.521,28.7,28.7,0,0,1-1.772-5.985,56.261,56.261,0,0,1-.838-11.806,103.9,103.9,0,0,1,3.1-22.038c.441-1.746.922-3.471,1.482-5.171.553-1.673,1.107-3.311,1.686-4.94q1.719-4.882,3.638-9.529a131.2,131.2,0,0,1,8.694-17.45A84.1,84.1,0,0,1,127.418,367.5a65.41,65.41,0,0,1,6.521-5.92,55.826,55.826,0,0,1,7.131-4.7,42.653,42.653,0,0,1,8.363-3.512l1.184-.341c.39-.115.789-.228,1.25-.317a11.89,11.89,0,0,1,2.732-.274,9.482,9.482,0,0,1,5.1,1.661,12.084,12.084,0,0,1,3.247,3.459,18.716,18.716,0,0,1,1.755,3.551A22.694,22.694,0,0,1,165.947,365.939Z" /></g><g id="shirt_short_red" transform="matrix(-1, 0, 0, 1, 380, 0)"><path class="cls-2 color-shirt" d="M165.5,367.125s-3.344-15-14.227-11.569a46.792,46.792,0,0,0-20.886,12.925c-10.277,11.419,17.482,41.492,22.235,33.688,2.149-3.529,4.781-6.387,7.284-9.527" /><path d="M159.953,392.68c.134.422-.608,1.747-1.811,3.5l-2.026,2.93c-.358.534-.729,1.081-1.083,1.648l-.531.858-.579.99a4.768,4.768,0,0,1-1.281,1.535,4.014,4.014,0,0,1-1.846.733,6.063,6.063,0,0,1-1.993-.06,10.437,10.437,0,0,1-1.723-.481,27.957,27.957,0,0,1-4.629-2.36,42.316,42.316,0,0,1-12.5-12.169,36.47,36.47,0,0,1-4.308-8.274,23.385,23.385,0,0,1-1.173-4.829,15.778,15.778,0,0,1,.2-5.389,12.534,12.534,0,0,1,2.107-4.659c.251-.318.572-.725.784-.955l.657-.72c.43-.487.9-.931,1.353-1.392a41.12,41.12,0,0,1,5.931-4.8,47.105,47.105,0,0,1,13.02-6.029l1.637-.447a15.642,15.642,0,0,1,1.99-.382,11.886,11.886,0,0,1,4.169.176,11.479,11.479,0,0,1,6.364,4.122,17.4,17.4,0,0,1,2.873,5.456,22.415,22.415,0,0,1,1.05,5.195c-1.16-1.268-2.429-2.6-3.8-3.905a19.26,19.26,0,0,0-4.2-3.186,6.7,6.7,0,0,0-3.382-.828c-.865.034-1.63.191-2.284.2l-.5.02-.656.105c-.443.075-.889.145-1.325.241-.879.17-1.742.381-2.6.606a37.343,37.343,0,0,0-4.938,1.711,34.455,34.455,0,0,0-8.554,5.177c-.633.51-1.223,1.059-1.809,1.605l-.845.844a6.8,6.8,0,0,0-.668.778,7.2,7.2,0,0,0-1.352,3.744,17.094,17.094,0,0,0,1.778,8.217,44.747,44.747,0,0,0,9.455,12.918,38.552,38.552,0,0,0,5.467,4.49,14.457,14.457,0,0,0,2.67,1.424,2.134,2.134,0,0,0,1.624.122,1.789,1.789,0,0,0,.625-.565l.153-.171.271-.336c.182-.227.377-.448.574-.673.4-.449.819-.892,1.253-1.325.87-.862,1.787-1.674,2.646-2.4C157.942,394.243,159.418,393.094,159.953,392.68Z" /></g><g data-name="default" id="default-2" transform="matrix(-1, 0, 0, 1, 380, 0)"><path class="cls-1 color-body" d="M239.64,463.371c-.822-7.144-2.461-16.135-4.759-22.342-13.642-36.838,9.04-78.792-30.636-91.823-29.145-9.571-59.413,5.745-75.671,54.174-5.9,17.562-7.776,42.306-3.484,59.991" style="fill:#ffffff;--backup-fill:#ffffff" /><path d="M125.031,463.385c-.41-.5-1.421-3.49-2.2-8.059a99.615,99.615,0,0,1-1.25-17.25,134.8,134.8,0,0,1,1.693-19.911,131.447,131.447,0,0,1,11.94-37.3A86.133,86.133,0,0,1,148.808,361a58.633,58.633,0,0,1,20.166-14.4,50.59,50.59,0,0,1,24.3-3.677,57.2,57.2,0,0,1,10.347,1.977,52.19,52.19,0,0,1,9.832,3.9,35.63,35.63,0,0,1,8.75,6.428,31.61,31.61,0,0,1,6.249,8.889c3.08,6.5,4.087,13.306,4.518,19.666.422,6.4.281,12.522.227,18.43-.07,5.9-.077,11.587.243,17.051a91.2,91.2,0,0,0,2.165,15.6q.219.921.435,1.833l.517,1.787q.549,1.857,1.085,3.674a74.079,74.079,0,0,1,1.621,7.381,119,119,0,0,1,1.5,13.7c-1.269-3.742-2.722-8.309-4.474-13.089-.876-2.387-1.833-4.827-2.918-7.167-.548-1.11-1.134-2.421-1.7-3.691-.6-1.268-1.024-2.59-1.531-3.886a78.5,78.5,0,0,1-4.271-26.328c.289-10.761,1.225-20.984.12-30.554a37.982,37.982,0,0,0-3.806-13.331,27.3,27.3,0,0,0-8.9-9.8,43.034,43.034,0,0,0-12.118-5.436,49.786,49.786,0,0,0-12.837-1.91,44.984,44.984,0,0,0-23.579,6.427,60.713,60.713,0,0,0-17.071,15.672,84.493,84.493,0,0,0-6.165,9.285c-.952,1.563-1.759,3.2-2.62,4.778-.783,1.626-1.623,3.2-2.327,4.836l-1.093,2.416q-.506,1.221-1.007,2.431c-.691,1.6-1.276,3.238-1.893,4.842s-1.138,3.231-1.708,4.822c-.521,1.6-1.037,3.167-1.47,4.762a134.552,134.552,0,0,0-3.788,18.792c-.389,2.918-.748,6.381-1.077,10-.268,3.625-.505,7.416-.506,10.973A101.817,101.817,0,0,0,125.031,463.385Z" /><path class="cls-1 color-body" d="M234.881,441.029c-13.642-36.838,9.04-78.792-30.636-91.823-29.144-9.571-59.413,5.745-75.671,54.174-5.9,17.562-7.776,42.306-3.484,59.991h0s6.034,10.253,50.162,13c42.248,2.629,64.388-13,64.388-13h0C238.818,456.227,237.179,447.236,234.881,441.029Z" style="fill:#ffffff;--backup-fill:#ffffff" /></g><path class="cls-2 color-shirt" d="M239.311,463.179c.295-7.241-2.354-15.158-4.429-22.15-10.181-27.49-.139-57.826-10.872-76.869-28.376,13.5-75.078,95.34-70.453-.376-12.08,9.74-22.409,29.5-26.78,46.429-4.24,14.816-1.614,23.973-8.5,37.569-1.231,3.246-2.083,6.728,1.211,7.7,3.588,1.283,6.985-.039,9.542,3.553,1.34,5.782,4.082,9.126,11.185,7.461,9.348-2.191,9.079,7,15.9,9.736,5.767,2.317,9.067-3.93,15-2.094,3.351,1.036,6.269,4,9.771,4.187,3.647.2,7.948-4.1,11.514-4.885,5.739-1.268,10.327,4.963,16.051,2.094,8.324-9.84,9.77-4.4,20.12-4.9,3.39-.9,4.828-4.955,8-6.368C237.293,463.9,238.9,464,239.311,463.179Z" transform="matrix(-1, 0, 0, 1, 380, 0)" /><path d="M239.352,463.2a1.253,1.253,0,0,1-.818.753c-.483.226-1.212.288-1.848.592a8.652,8.652,0,0,0-2.323,1.872c-.8.854-1.608,1.938-2.718,3.019a7.745,7.745,0,0,1-2.033,1.432,4.537,4.537,0,0,1-.66.259,1.647,1.647,0,0,1-.72.113l-1.312.043a33.136,33.136,0,0,1-5.578-.5c-1.919-.3-3.875-.738-5.648-.154a12.333,12.333,0,0,0-4.876,3.55c-.387.377-.729.819-1.1,1.228l-.676.773a5.939,5.939,0,0,1-1,.468,8.1,8.1,0,0,1-3.821.49c-2.569-.333-4.748-1.515-6.9-2.239a7.674,7.674,0,0,0-6.242.081c-2.041.942-3.985,2.4-6.279,3.48a8.908,8.908,0,0,1-3.922.966,10.168,10.168,0,0,1-3.8-1.008c-2.252-1.046-4.1-2.4-5.994-3.029a7.137,7.137,0,0,0-5.453.424c-1.815.748-3.685,1.922-5.995,2.195a7.76,7.76,0,0,1-3.329-.284c-.256-.082-.518-.154-.764-.247l-.7-.326c-.229-.111-.462-.213-.682-.333l-.623-.4a16.942,16.942,0,0,1-3.77-3.619,37.828,37.828,0,0,0-2.7-3.188,5.711,5.711,0,0,0-2.971-1.66,9.289,9.289,0,0,0-3.672.271,14.183,14.183,0,0,1-5.066.409,8.327,8.327,0,0,1-5.058-2.514,12.4,12.4,0,0,1-2.623-4.625c-.122-.4-.269-.8-.366-1.191l-.085-.3a.324.324,0,0,0-.1-.161,1.433,1.433,0,0,0-.156-.167l-.277-.271a4.391,4.391,0,0,0-.6-.42,9.275,9.275,0,0,0-3.616-.773,19.056,19.056,0,0,1-2.534-.4,12.577,12.577,0,0,1-1.31-.382,6.019,6.019,0,0,1-.794-.322,5.232,5.232,0,0,1-.838-.515,5.007,5.007,0,0,1-1.924-3.326,9.028,9.028,0,0,1,.154-3.058,19.828,19.828,0,0,1,.706-2.51l.207-.582a3.777,3.777,0,0,1,.206-.485l.116-.253.464-1.009q.483-1,.871-2.042c.273-.687.554-1.371.772-2.078a49.148,49.148,0,0,0,2.079-8.676c.461-2.987.738-6.074,1.1-9.225a95.717,95.717,0,0,1,1.5-9.529c.32-1.6.752-3.141,1.152-4.693.415-1.54.817-3.081,1.312-4.616a114.807,114.807,0,0,1,7.184-17.782,96.922,96.922,0,0,1,10.149-16.153l1.512-1.855c.245-.313.519-.606.786-.9l.942-1.043a32.919,32.919,0,0,1,3.054-3l3.086-2.79,3.192-2.775.4-.347.2-.173.1-.087c.026-.013.008.068.014.1l.006,1,.012,2q.012,2.007.025,4.007c.007,1.345-.112,2.964-.13,4.4l-.068,2.968-.012,1.94c-.011,1.294-.011,2.585.016,3.872.022,2.578.135,5.139.292,7.683a59.071,59.071,0,0,0,2.473,14.572,12.544,12.544,0,0,0,3.106,5.3,4.572,4.572,0,0,0,2.07,1.042,6.339,6.339,0,0,0,2.613-.064,20.123,20.123,0,0,0,6.053-2.7,58.828,58.828,0,0,0,5.9-4.255c3.832-3.105,7.485-6.526,11.091-9.967l10.753-10.372c3.6-3.425,7.24-6.788,11.094-9.923,1.93-1.564,3.915-3.071,6.014-4.459q.78-.526,1.6-1.015c.287-.164.454-.3,1.042-.611l1.472-.784c.973-.532,1.971-1.01,2.953-1.508l.369-.185c.074-.071.091.036.126.09l.095.184.382.737.761,1.471.75,1.46c.247.459.474,1.052.672,1.483.264.581.489,1.171.7,1.765.452,1.18.795,2.379,1.132,3.571a55.449,55.449,0,0,1,1.386,7.157,114.92,114.92,0,0,1,.811,13.9c.061,9.037-.254,17.656.289,25.876a101.852,101.852,0,0,0,1.411,11.969c.372,1.925.782,3.821,1.279,5.671.268.923.483,1.837.8,2.755.291.923.6,1.808.849,2.779,1.019,3.7,2.032,7.314,2.747,10.94a41.518,41.518,0,0,1,.9,10.764,44.638,44.638,0,0,0-1.97-10.095c-1.055-3.524-2.46-7.189-3.87-11-.322-.935-.76-1.894-1.147-2.855s-.736-1.976-1.109-2.976c-.676-2.025-1.3-4.1-1.815-6.212a98.67,98.67,0,0,1-2.229-12.861c-.94-8.59-1.03-16.926-1.322-24.03a129.811,129.811,0,0,0-1.511-16.92,44.2,44.2,0,0,0-1.377-5.771l-.474-1.379c-.073-.234-.173-.452-.263-.675l-.118-.291,0-.034a1.092,1.092,0,0,0-.044-.178l-.032-.1c-.009-.043-.023-.075-.055-.052a1.644,1.644,0,0,0-.18.052l-.1.036c-.066.031.019-.029-.256.136-.848.486-1.683,1.015-2.513,1.557-1.656,1.095-3.264,2.3-4.845,3.542-6.314,5.007-12.134,10.64-17.937,16.115s-11.522,10.965-17.878,15.677c-3.208,2.3-6.555,4.531-10.6,5.648a13.041,13.041,0,0,1-3.161.459,9.292,9.292,0,0,1-3.275-.55,9.989,9.989,0,0,1-4.911-4.093c-2.244-3.477-3.118-7.288-3.8-10.983a88.251,88.251,0,0,1-1.134-11.079c-.162-3.662-.218-7.292-.147-10.884l.018-1.347.034-1.2.048-1.637.072-1.634.035-.817.008-.2-.154.132-.306.264a32.237,32.237,0,0,0-2.358,2.212l-1.4,1.538c-.569.635-1.091,1.312-1.638,1.964a79.47,79.47,0,0,0-5.851,8.3,99.568,99.568,0,0,0-4.846,8.771c-1.477,2.97-2.79,5.992-3.964,9.035-1.2,3.035-2.2,6.112-3.093,9.192-.863,3.109-1.687,6.167-2.221,9.258-1.147,6.169-1.333,12.459-2.583,18.683a48.424,48.424,0,0,1-2.729,9.034c-.277.733-.606,1.439-.939,2.141l-.493,1.055-.083.18-.073.2-.18.508a9.041,9.041,0,0,0-.678,3.7,1.409,1.409,0,0,0,.522.957,1.509,1.509,0,0,0,.545.275c.2.079.607.2.894.281,1.226.327,2.626.365,4.239.618a9.1,9.1,0,0,1,2.517.77,7.389,7.389,0,0,1,2.206,1.654c.165.168.343.419.514.626a1.372,1.372,0,0,1,.4.707l.19.731c.042.165.082.331.135.487a14.4,14.4,0,0,0,.67,1.832,6.319,6.319,0,0,0,2.062,2.715,5.439,5.439,0,0,0,3.124.9l.91-.03.931-.116c.647-.112,1.186-.244,2.033-.384a10,10,0,0,1,4.929.157,9.437,9.437,0,0,1,4.147,2.725c1.061,1.137,1.852,2.3,2.672,3.325a15.587,15.587,0,0,0,2.532,2.647,7.627,7.627,0,0,0,2.938,1.363,5.894,5.894,0,0,0,3.1-.334c1.1-.378,2.267-.982,3.586-1.523a11.334,11.334,0,0,1,4.477-.978,10.616,10.616,0,0,1,4.444,1.162c2.542,1.246,4.57,2.817,6.6,3.289a5.28,5.28,0,0,0,1.405.144,6.156,6.156,0,0,0,1.453-.344,19.873,19.873,0,0,0,3.145-1.538c.955-.546,1.967-1.161,3.119-1.742a14.3,14.3,0,0,1,1.875-.805,10.381,10.381,0,0,1,1.078-.3q.563-.073,1.132-.151a11.149,11.149,0,0,1,4.395.674c1.36.464,2.606,1.059,3.823,1.558a11.635,11.635,0,0,0,3.574.981,5.412,5.412,0,0,0,1.718-.136,1.942,1.942,0,0,0,.421-.107l.351-.129a1.3,1.3,0,0,0,.29-.12l.222-.231a30.262,30.262,0,0,1,3.048-2.956,11.39,11.39,0,0,1,3.788-2.223,8.9,8.9,0,0,1,4.279-.217c1.33.214,2.537.526,3.726.736a28.516,28.516,0,0,0,3.457.448c.559.064,1.109.036,1.647.059a2.482,2.482,0,0,0,1.375-.276,8,8,0,0,0,2.3-1.622c.66-.625,1.246-1.258,1.81-1.816a9.447,9.447,0,0,1,3.092-2.226,6.017,6.017,0,0,1,1.279-.311,4.782,4.782,0,0,0,.824-.21A1.225,1.225,0,0,0,239.352,463.2Z" transform="matrix(-1, 0, 0, 1, 380, 0)" /><g data-name="default" id="default-3" transform="matrix(-1, 0, 0, 1, 380, 0)"><path class="cls-1 color-body" d="M259.039,439.566c-1.139-18.561-3.924-46.029-22.5-62.515-15.9-14.111-22.106-3.869-24.321-.71s-5.633,16.01-1.424,26.085,7.753,25.3,10.376,45.725c2.91,22.661,8.17,41.038,19.9,39.455C255.749,485.622,259.977,454.841,259.039,439.566Z" style="fill:#ffffff;--backup-fill:#ffffff" /><path class="cls-1 color-body" d="M210.791,402.426c4.766,11.192,7.753,25.3,10.376,45.725,2.91,22.661,8.17,41.038,19.894,39.455,14.687-1.984,18.916-32.765,17.978-48.04-1.139-18.561-3.924-46.029-22.5-62.515-15.9-14.111-24.321-.71-24.321-.71" style="fill:#ffffff;--backup-fill:#ffffff" /><path d="M212.163,376.309a4.751,4.751,0,0,1,1.129-2.015,12.819,12.819,0,0,1,10.682-4.683,19.817,19.817,0,0,1,7.878,2.5,31.192,31.192,0,0,1,3.614,2.395l1.727,1.341c.569.456,1.068.978,1.606,1.465a36.46,36.46,0,0,1,3.058,3.044l1.414,1.586.7.784.627.825a69.022,69.022,0,0,1,7.46,11.874c5.769,11.243,8.546,24.7,9.841,38,.173,1.668.321,3.334.456,5s.25,3.463.275,5.164a98.609,98.609,0,0,1-.362,10.251,85.588,85.588,0,0,1-3.941,19.875,43.312,43.312,0,0,1-3.783,8.28,26.328,26.328,0,0,1-2.873,3.895,18.251,18.251,0,0,1-3.919,3.376,14.721,14.721,0,0,1-5.079,2.1,13.243,13.243,0,0,1-10.892-2.289,17.757,17.757,0,0,1-3.651-3.626,32.965,32.965,0,0,1-4.335-7.95,64.54,64.54,0,0,1-2.53-7.962,130.5,130.5,0,0,1-2.827-15.475c-.642-5.078-1.041-9.864-1.6-14.527-.534-4.66-1.115-9.159-1.78-13.464a139.357,139.357,0,0,0-5.314-23.2,54.861,54.861,0,0,1,5.944,10.1,98.283,98.283,0,0,1,4.82,12.781,109.657,109.657,0,0,1,4.5,21.66c.275,4.421.663,8.74,1.259,12.952a83.864,83.864,0,0,0,2.535,12.18,40.966,40.966,0,0,0,2.069,5.552,19.448,19.448,0,0,0,2.946,4.7,9.716,9.716,0,0,0,1.887,1.71,6.966,6.966,0,0,0,2.153,1.04,8.1,8.1,0,0,0,4.8-.173c3.185-1.026,5.715-3.861,7.544-6.956a43.247,43.247,0,0,0,4.168-10.067,88.118,88.118,0,0,0,3.1-20.924q.079-2.565.006-5.077c-.038-1.666-.188-3.316-.318-5-.264-3.34-.588-6.609-1-9.806a128.055,128.055,0,0,0-3.57-18.237,79.522,79.522,0,0,0-6.245-15.941,58.107,58.107,0,0,0-9.166-12.837l-1.325-1.35c-.23-.232-.454-.484-.7-.713l-.767-.666-1.581-1.4c-.542-.471-1.148-.848-1.731-1.294a17.28,17.28,0,0,0-7.869-3.387,11.891,11.891,0,0,0-7.352,1.539A14.682,14.682,0,0,0,212.163,376.309Z" /></g><g data-name="shirt_short_red" id="shirt_short_red-2" transform="matrix(-1, 0, 0, 1, 380, 0)"><path class="cls-2 color-shirt" d="M247.994,390.2c-3.9-6.5-10.094-15.866-17.5-17.5s-15.842-.675-18.786,4.841c-2.195,3.132-5.569,15.789-1.525,25.824C210.183,403.364,250.994,395.2,247.994,390.2Z" /><path class="cls-2 color-shirt" d="M210.155,403.823c1,2.794,2.482,6.911,3.963,10.948,2.371,6.461,36.876-19.572,33.876-24.572-3.9-6.5-10.094-15.866-17.5-17.5s-15.842-.675-18.786,4.841" /><path d="M211.668,377.519a4.32,4.32,0,0,1,1.435-2.686,11.841,11.841,0,0,1,5.5-3.134,23.936,23.936,0,0,1,7.193-.829c1.16.018,2.261.116,3.261.221a25.022,25.022,0,0,1,2.7.42,16.715,16.715,0,0,1,5.876,2.642,30.692,30.692,0,0,1,4.88,4.23,50.872,50.872,0,0,1,4.09,4.927q.941,1.281,1.824,2.583l.868,1.3.424.652.586.928a4.639,4.639,0,0,1,.349,3.844,6.711,6.711,0,0,1-.352.941c-.1.239-.2.425-.307.637-.211.4-.428.765-.65,1.109a29.358,29.358,0,0,1-2.769,3.559,66.871,66.871,0,0,1-7.583,7.116,88.6,88.6,0,0,1-8.081,5.849,58.662,58.662,0,0,1-8.447,4.568,21.916,21.916,0,0,1-4.673,1.47,6.621,6.621,0,0,1-3.465-.187,3.6,3.6,0,0,1-2.145-2.391l-.189-.61-.089-.289-.051-.185-.2-.734-.386-1.442q-.368-1.426-.715-2.782-.677-2.713-1.2-5.137a34.94,34.94,0,0,1,3.445,4.234c.576.814,1.144,1.666,1.693,2.53l.8,1.3.388.653.095.162.05.037.093.064a.428.428,0,0,0,.542-.022.441.441,0,0,0,.123-.151c.016-.013-.021-.021.012-.033l.186-.069.388-.152c1.055-.426,2.082-.919,2.834-1.157a49.43,49.43,0,0,0,8.89-4.14,75.318,75.318,0,0,0,7.872-5.244,58.5,58.5,0,0,0,6.67-5.855,24.2,24.2,0,0,0,2.621-3.177c.181-.271.347-.545.491-.814.068-.133.145-.273.194-.4a2.205,2.205,0,0,0,.115-.293,1.2,1.2,0,0,0-.13-1.2l-1.171-1.84c-.42-.64-.839-1.272-1.267-1.886-.848-1.237-1.732-2.406-2.62-3.531a37.2,37.2,0,0,0-5.694-5.806,14.682,14.682,0,0,0-6.306-3.083,33.126,33.126,0,0,0-6.863-.694,21.527,21.527,0,0,0-6.889,1,9.582,9.582,0,0,0-2.814,1.55A11.724,11.724,0,0,0,211.668,377.519Z" /></g></svg>