<svg xmlns="http://www.w3.org/2000/svg" id="new" viewBox="0 0 380 600"><defs transform="matrix(-1, 0, 0, 1, 380, 0)"><style>.cls-1{fill:#ffffff;}.cls-2{fill:#403963;}.cls-3{fill:#f59154;}.cls-4{fill:#fff;}</style></defs><g id="default" transform="matrix(-1, 0, 0, 1, 380, 0)"><path class="cls-1 color-body" d="M160.31,391c-7.58,9.51-14.22,22.31-22.21,41.29-8.85,21.06-18.83,37.37-29.71,32.71-13.62-5.83-9.47-36.62-4.49-51.09,6-17.59,19.43-51,47.78-60,10.88-3.43,14.23,11.57,14.23,11.57" style="fill:#ffffff;--backup-fill:#ffffff" /><path d="M165.85,365.45c-.44-.39-1.22-3-3.31-6.14a11.73,11.73,0,0,0-4.52-4.17,7.44,7.44,0,0,0-3.27-.65,9.82,9.82,0,0,0-1.76.25l-.89.26-.95.35a49.2,49.2,0,0,0-14.27,8.12,58.23,58.23,0,0,0-9.42,9.67c-7.36,9.66-13.08,21.51-17.59,33.92-.56,1.55-1.11,3.12-1.64,4.69s-1.07,3.18-1.52,4.67a89.75,89.75,0,0,0-2.2,9.4,85.07,85.07,0,0,0-1.43,18.77,43.23,43.23,0,0,0,1,7.61,18.37,18.37,0,0,0,2.61,6.29A7.47,7.47,0,0,0,111,461.6a5.19,5.19,0,0,0,2.32,0,8.11,8.11,0,0,0,2.52-1.07,21.67,21.67,0,0,0,5-4.61,57.76,57.76,0,0,0,4.35-6.07,136.82,136.82,0,0,0,7.19-13.3c1.09-2.25,2.1-4.48,3.14-6.74s2.08-4.49,3.13-6.68c2.11-4.36,4.27-8.55,6.49-12.51a108,108,0,0,1,14.29-20.4c-1.43,3.12-3.13,6.87-4.82,10.91s-3.38,8.38-5,12.6c-3.2,8.47-6.1,16.47-8.13,20.51-4.17,8.25-8.37,16.25-13.84,23.36a43.7,43.7,0,0,1-4.53,5,21.48,21.48,0,0,1-5.74,4,13.61,13.61,0,0,1-3.54,1,11.6,11.6,0,0,1-3.72-.14,13.09,13.09,0,0,1-6.19-3.37,16.87,16.87,0,0,1-3.67-5.52,28.49,28.49,0,0,1-1.77-6,56,56,0,0,1-.84-11.81,103.76,103.76,0,0,1,3.1-22c.44-1.74.92-3.47,1.48-5.17s1.11-3.31,1.69-4.94q1.71-4.87,3.64-9.53a130.17,130.17,0,0,1,8.69-17.45A84,84,0,0,1,127.32,367a64.55,64.55,0,0,1,6.52-5.92,55.49,55.49,0,0,1,7.13-4.7,42.32,42.32,0,0,1,8.37-3.51l1.18-.34a12,12,0,0,1,1.25-.32,11.82,11.82,0,0,1,2.73-.27,9.39,9.39,0,0,1,5.1,1.66,11.88,11.88,0,0,1,3.25,3.46,19.44,19.44,0,0,1,1.76,3.55A22.31,22.31,0,0,1,165.85,365.45Z" /></g><g data-name="default" id="default-2" transform="matrix(-1, 0, 0, 1, 380, 0)"><path class="cls-1 color-body" d="M239.54,462.88c-.82-7.15-2.46-16.14-4.76-22.34-13.64-36.84,9-78.8-30.63-91.83-29.15-9.57-59.42,5.75-75.67,54.18-5.9,17.56-7.78,42.3-3.49,60" style="fill:#ffffff;--backup-fill:#ffffff" /><path d="M124.93,462.89c-.41-.5-1.42-3.49-2.2-8.06a100.89,100.89,0,0,1-1.25-17.25,135.16,135.16,0,0,1,1.7-19.91,131,131,0,0,1,11.94-37.3,86.13,86.13,0,0,1,13.59-19.87,58.51,58.51,0,0,1,20.17-14.39,50.54,50.54,0,0,1,24.3-3.68,56.32,56.32,0,0,1,10.35,2,51.72,51.72,0,0,1,9.83,3.9,35.65,35.65,0,0,1,8.75,6.43,31.84,31.84,0,0,1,6.25,8.88c3.08,6.51,4.09,13.31,4.52,19.67s.28,12.52.22,18.43-.07,11.59.25,17a91.23,91.23,0,0,0,2.16,15.6c.15.61.29,1.22.44,1.83l.51,1.79,1.09,3.67c.7,2.52,1.2,5,1.62,7.38a118.91,118.91,0,0,1,1.5,13.71c-1.27-3.75-2.72-8.31-4.47-13.09-.88-2.39-1.83-4.83-2.92-7.17-.55-1.11-1.13-2.42-1.7-3.69s-1-2.59-1.53-3.89a73.78,73.78,0,0,1-3.58-15.13,74.9,74.9,0,0,1-.69-11.19c.29-10.77,1.22-21,.12-30.56a38.23,38.23,0,0,0-3.81-13.33,27.29,27.29,0,0,0-8.9-9.79,43.05,43.05,0,0,0-12.12-5.44,49.89,49.89,0,0,0-12.84-1.91A45,45,0,0,0,164.65,354a60.84,60.84,0,0,0-17.07,15.67,84.29,84.29,0,0,0-6.16,9.28c-.95,1.57-1.76,3.2-2.62,4.78s-1.62,3.21-2.33,4.84c-.36.81-.73,1.61-1.09,2.41s-.67,1.63-1,2.44c-.69,1.6-1.27,3.23-1.89,4.84s-1.14,3.23-1.71,4.82-1,3.17-1.47,4.76a134.83,134.83,0,0,0-3.79,18.79c-.39,2.92-.75,6.38-1.07,10s-.51,7.41-.51,11A101.89,101.89,0,0,0,124.93,462.89Z" /><path class="cls-1 color-body" d="M234.78,440.54c-13.64-36.84,9-78.8-30.63-91.83-29.15-9.57-59.42,5.75-75.67,54.18-5.9,17.56-7.78,42.3-3.49,60h0s6,10.25,50.16,13c42.25,2.63,64.39-13,64.39-13h0C238.72,455.73,237.08,446.74,234.78,440.54Z" style="fill:#ffffff;--backup-fill:#ffffff" /></g><g id="basketball_blue" transform="matrix(-1, 0, 0, 1, 380, 0)"><path class="cls-2" d="M231.78,447a80.06,80.06,0,0,1-4.32-19.31C225,437.46,220.27,444,214.9,444c-8,0-14.5-14.55-14.5-32.5s6.49-32.5,14.5-32.5c4.54,0,8.59,4.67,11.25,12-1.13-16.18-27.75-26.76-27.75-16.49,0,14.63-22.36,34.5-37,34.5s-17.59-29.48-12-43c1.74-4.21,4.86-6.95,7.92-10.09-8.8,1.34-13.27,14.29-17.16,21.1a182.42,182.42,0,0,0-14.68,32.37c-5.9,17.56-9.78,59.3-5.49,77l.41,1.63s11,18,49.75,22.37c42.07,4.74,64.39-20,64.39-20l2-21C235.72,462.23,234.08,453.24,231.78,447Z" /><path d="M231.84,447a25.82,25.82,0,0,1,2,5.14,96.1,96.1,0,0,1,2.68,11.46q.31,1.77.6,3.69c.09.67.19,1.34.28,2s-.11,1.4-.16,2.11q-.33,4.1-.71,8.61c-.25,3-.52,6.18-.79,9.43l-.08.78,0,.38c0,.13,0,.27-.13.35-.35.39-.72.75-1.09,1.13s-.63.6-.95.91-.61.58-.93.85c-1.27,1.13-2.61,2.18-4,3.23a77.65,77.65,0,0,1-18.4,10.05A83.75,83.75,0,0,1,190,512l-4.94.48-4.82.09-2.35,0c-.78,0-1.54-.09-2.3-.13l-4.44-.27c-1.46-.05-2.84-.31-4.2-.45l-3.94-.5c-2.52-.45-4.87-.85-7-1.26a83.81,83.81,0,0,1-21.49-7.41,55.29,55.29,0,0,1-10-6.39c-.79-.63-1.53-1.32-2.29-2s-1.48-1.41-2.17-2.2a19,19,0,0,1-2.25-2.91c-.12-.37-.23-.78-.32-1.15l-.19-.7c-.12-.47-.22-1-.33-1.49-1.71-8-1.88-15.86-1.87-23.79s.56-15.85,1.39-23.78a187.85,187.85,0,0,1,3.89-23.74c.25-1,.45-2,.75-3l.88-3c.63-1.93,1.28-3.82,2-5.7,1.38-3.77,2.91-7.48,4.53-11.12s3.38-7.23,5.21-10.74c.93-1.75,1.86-3.5,2.83-5.22.49-.89.87-1.57,1.31-2.44l1.27-2.54a71.54,71.54,0,0,1,6-10.58,23.4,23.4,0,0,1,4.62-4.92,15.1,15.1,0,0,1,6.88-3.12l11.36-1.83-8,8.3c-1.6,1.65-3,3-4.15,4.35a18.53,18.53,0,0,0-2.33,3.31,21.29,21.29,0,0,0-1.44,3.78,42,42,0,0,0-1.35,8.79A47.09,47.09,0,0,0,153,396.48a17.14,17.14,0,0,0,3.94,6.65,6.83,6.83,0,0,0,2.58,1.58,7.79,7.79,0,0,0,3.16.22,24.74,24.74,0,0,0,7.85-2.34,45.33,45.33,0,0,0,7.51-4.49,51.57,51.57,0,0,0,12.21-12.42,33.2,33.2,0,0,0,2.12-3.6,21.84,21.84,0,0,0,1.49-3.68,13.77,13.77,0,0,0,.63-3.6l0-.63c0-.37.07-.75.12-1.13A6.94,6.94,0,0,1,195,372a5.49,5.49,0,0,1,.41-1,7.16,7.16,0,0,1,3.07-3.16c.33-.17.67-.34,1-.48s.68-.22,1-.31a6,6,0,0,1,.94-.19l.87-.11a15.35,15.35,0,0,1,3.07.12,23.76,23.76,0,0,1,5.28,1.39,34.75,34.75,0,0,1,8.81,5.07,31,31,0,0,1,6.89,7.49,24.68,24.68,0,0,1,2.31,4.73,21.54,21.54,0,0,1,1.09,5.29l2.12,26.88-9.06-25.41a27,27,0,0,0-3.06-6.26,8.2,8.2,0,0,0-4-3.43,3.37,3.37,0,0,0-1.91.06,6.47,6.47,0,0,0-2.12,1.3,17.67,17.67,0,0,0-3.68,5.2,46.27,46.27,0,0,0-3.93,13.4,70.09,70.09,0,0,0-.65,13.92,57.71,57.71,0,0,0,2.18,13.23,34.23,34.23,0,0,0,2.33,5.92,16.25,16.25,0,0,0,3.45,4.66,5.4,5.4,0,0,0,4.27,1.56,6.06,6.06,0,0,0,2.19-.82,10.71,10.71,0,0,0,2-1.7c.31-.35.62-.7.92-1.07l.56-.77c.22-.33.43-.67.63-1a17.54,17.54,0,0,0,1.13-2.21,24.07,24.07,0,0,0,1-2.57c1.31-3.76,2.69-8.23,3.76-11.78a4.18,4.18,0,0,0,.37.58l0,.07s0,0,0,.13l.06.62c.05.4.09.81.13,1.21.17,1.64.34,3.25.51,4.82.36,3.13.69,6.06,1.12,8.54.21,1.24.45,2.42.7,3.56l.33,1.41.3,1.21c.41,1.6.86,3.15,1.37,4.66a59,59,0,0,1-3.71-9.55c-.52-1.72-.95-3.28-1.29-4.74-.18-.72-.33-1.41-.46-2.06l-.1-.48,0-.23-.09.4c-.13.52-.26,1-.38,1.57A45.9,45.9,0,0,1,225,437a20.45,20.45,0,0,1-1,2.19,13,13,0,0,1-.65,1.13c-.35.47-.67,1-1.06,1.41a14.26,14.26,0,0,1-2.7,2.54,9.61,9.61,0,0,1-3.75,1.52,8.49,8.49,0,0,1-4.21-.38,11.86,11.86,0,0,1-3.53-2,21.26,21.26,0,0,1-4.78-5.8,38.1,38.1,0,0,1-3-6.51,59.86,59.86,0,0,1-3-13.42,67.44,67.44,0,0,1,1.59-24.8,37.78,37.78,0,0,1,4.17-9.95,17.07,17.07,0,0,1,7.17-6.78,10.64,10.64,0,0,1,8-.37,11.69,11.69,0,0,1,3.28,1.77,16.31,16.31,0,0,1,2.45,2.28,30.1,30.1,0,0,1,5.38,10l-6.56,1.39a15.24,15.24,0,0,0-3-8.05,26.65,26.65,0,0,0-6.84-6.41,22.74,22.74,0,0,0-8.43-3.51c-.34-.05-.67-.07-1-.1a6.54,6.54,0,0,0-.9,0c-.12,0-.3,0-.38,0l-.26.06a1.44,1.44,0,0,0-.4.18,1.19,1.19,0,0,0-.49.72c0,.07,0,.14,0,.22v.11l0,.36c0,.49,0,1-.11,1.47a21.88,21.88,0,0,1-1.44,5.55,30.79,30.79,0,0,1-2.42,4.92,47.85,47.85,0,0,1-6.43,8.41,59.89,59.89,0,0,1-7.72,6.9,53.83,53.83,0,0,1-8.74,5.4,33.34,33.34,0,0,1-9.87,3.16l-1.32.14-1.34,0a12.36,12.36,0,0,1-2.83-.33,12.16,12.16,0,0,1-5-2.54,20.85,20.85,0,0,1-5.73-8.63,42.27,42.27,0,0,1-2.35-9.56,55.57,55.57,0,0,1,.66-19.09,32.1,32.1,0,0,1,1.37-4.62,19.55,19.55,0,0,1,2.3-4.36,55.11,55.11,0,0,1,6.23-6.89l1.34,2.6a11.35,11.35,0,0,0-6.41,3.87,36.37,36.37,0,0,0-4.63,6.78c-1.35,2.44-2.55,5-3.86,7.53-.32.64-.67,1.28-1,1.91l-1,1.84c-.68,1.21-1.34,2.43-2,3.66q-3.88,7.33-7.05,14.83c-1.06,2.49-2,5-3,7.51s-1.76,5.05-2.47,7.54A140.9,140.9,0,0,0,123,428.28c-.82,5.13-1.38,10.25-1.86,15.32a210.49,210.49,0,0,0-.76,29.79c0,1.21.19,2.4.28,3.59s.23,2.37.4,3.54l.23,1.75c.1.58.23,1.14.34,1.7l.34,1.69c.12.55.32,1.28.36,1.42a1.7,1.7,0,0,0,.25.39l.47.59c.33.43.73.83,1.09,1.25.78.81,1.57,1.6,2.43,2.34s1.74,1.44,2.61,2.16,1.85,1.3,2.77,2c7.61,5,16.19,8,24.74,10,2.14.5,4.31.86,6.45,1.3s4.31.62,6.45.94a101.38,101.38,0,0,0,12.73.65,83,83,0,0,0,24.22-3.9,78.82,78.82,0,0,0,18.6-8.83c1.57-1,3.1-2.11,4.59-3.27.73-.59,1.48-1.17,2.17-1.8l.89-.79.34-.32c.12-.11.07-.29.11-.44.47-3.74.94-7.47,1.39-11.07q.36-2.77.69-5.43c.12-.89.23-1.76.34-2.62a4.77,4.77,0,0,0,.09-1.13c0-.42-.08-.84-.11-1.25-.31-3.33-.71-6.43-1.16-9.18A80.43,80.43,0,0,0,231.84,447Z" /><path class="cls-3" d="M228.52,444.15a1.64,1.64,0,0,1-.44.9,9.33,9.33,0,0,1-1.38,1.46,16.83,16.83,0,0,1-5.31,3.21,14.37,14.37,0,0,1-7.41.75,18.23,18.23,0,0,1-5.85-2.16c-4.95-2.7-8.73-7.57-11.16-12.84a48.88,48.88,0,0,1-4.3-16.59,80.55,80.55,0,0,1,0-13.89,58.46,58.46,0,0,1,1-6.79c.23-1.11.51-2.2.81-3.27s.62-2.07,1-3.08a51.45,51.45,0,0,1,5.1-11,23.09,23.09,0,0,1,7.32-7.64,69,69,0,0,0-2.61,10.3c-.65,3.47-1.24,6.66-2,8.22s-1.49,3.18-2.11,4.78a38.8,38.8,0,0,0-1.51,4.77,52.27,52.27,0,0,0-1.43,9.62,72.56,72.56,0,0,0,0,9.22,40.7,40.7,0,0,0,1.58,8.36,33.92,33.92,0,0,0,7.13,13.19,19.32,19.32,0,0,0,5,4,12.35,12.35,0,0,0,5.34,1.52c.43,0,.9,0,1.41,0s1-.1,1.62-.13,1.14-.18,1.73-.32,1.17-.27,1.73-.48c1.14-.36,2.17-.82,3-1.19S228.19,444.3,228.52,444.15Z" /><path class="cls-3" d="M197.25,382.56c.21.18.41,1.39-.23,3a18,18,0,0,1-3.46,5c-2.94,3.41-6.31,7.23-8.07,9.48-3.1,4-6.85,8.25-12,11.17a23.8,23.8,0,0,1-8.51,2.9,18.89,18.89,0,0,1-9.05-1,22.53,22.53,0,0,1-11.49-9.65,25,25,0,0,1-3.32-13.67,32.91,32.91,0,0,1,2.86-12,32.18,32.18,0,0,1,5.53-8.65c-.65,2.89-1.51,6.7-2,10.22s-.7,6.66-1,8.29a21.28,21.28,0,0,0,.18,9.73,18.44,18.44,0,0,0,4.57,8,17.09,17.09,0,0,0,7.48,4.56,15.26,15.26,0,0,0,8.18.05,22.76,22.76,0,0,0,7.1-3.3,41.34,41.34,0,0,0,5.7-4.84c1.72-1.72,3.32-3.49,4.9-5.19s3.15-3.33,4.7-4.86c.72-.74,1.61-1.57,2.57-2.42s2-1.68,2.81-2.52a10.83,10.83,0,0,0,2-2.51A6.7,6.7,0,0,0,197.25,382.56Z" /><path class="cls-4" d="M184.5,392a38.93,38.93,0,0,0-2.85,5.11c6.37,2.28,20.52,6.22,21,6s1.82-3.89,2.23-5.11C204.31,396.73,184.5,392,184.5,392Z" /><path d="M184.5,392c.56-.44,8.32,1.51,11.37,2,1.6.27,3.24.6,4.92,1,.84.2,1.68.42,2.54.69l.32.1.39.14a8,8,0,0,1,1,.45,3.82,3.82,0,0,1,1.46,1.41c-.25.76-.49,1.52-.73,2.27l-.46,1.32-.25.66-.13.33-.18.42a7.07,7.07,0,0,1-.62,1.08,3.23,3.23,0,0,1-.87.74,5.69,5.69,0,0,1-.83.06,3.06,3.06,0,0,1-.85,0l-1.16-.24a117.6,117.6,0,0,1-13.75-4c-1.06-.38-2.08-.77-3.07-1.16l-2.11-.84c-.66-.36-2-.42-1.08-1.36l1.18-2c.3-.48.53-.81.8-1.21s.52-.74.79-1.09a7.2,7.2,0,0,1,.94-1.05,6.06,6.06,0,0,0-.32,1.36c-.08.47-.17.94-.25,1.42l-.16.73-.08.37,0,.19v.11a.92.92,0,0,0,.12.51s0,0,.07,0h.17a1.11,1.11,0,0,0,.24,0,.32.32,0,0,0,.13-.05l0,0,.15,0,.31.07a10,10,0,0,1,1.95.59,88.5,88.5,0,0,0,8.45,3.38c1.36.46,2.7.88,4,1.26.66.19,1.31.37,1.95.53l.86.21a3.13,3.13,0,0,0,.6.1,1.75,1.75,0,0,0,.46-.7c.16-.37.33-.8.48-1.2s.3-.82.44-1.23l.24-.75,0-.14a.35.35,0,0,0-.1-.11l-.27-.14c-.18-.07-.36-.14-.56-.2-.61-.22-1.24-.4-1.85-.59-1.24-.35-2.46-.67-3.64-1-2.36-.62-4.58-1.2-6.63-1.84A58.2,58.2,0,0,1,184.5,392Z" /><path class="cls-3" d="M173,499.59c-.28-.27-.17-1.54,0-3.28l.33-2.83a27.41,27.41,0,0,0,.28-3,10.42,10.42,0,0,1,.18-1.25c0-.14.23-.16.27-.26l.09-.3a3.35,3.35,0,0,0,.12-.54.62.62,0,0,0,0-.31s0-.08.08-.11l.15-.11c.19-.14.37-.29.54-.43h1.42l.58,0,1.12,0,2.22,0c1.48,0,3,.09,4.51.06s3.05-.05,4.57-.11l1.14-.05.6,0,1.05,0a4.28,4.28,0,0,1,1.92.4l.8.45.66.41-.5,1.5-.15.67,0,.52c0,.57,0,1.21.07,1.91,0,.35,0,.71.05,1.11l.07.91.14,2.07.07,1.23a5.37,5.37,0,0,1-.13,1.91,2,2,0,0,1-.29.29l-.08.07,0,0,0,0h0c.28.22.07.06.13.11l-.2.09-.82.37-.82.35a3.28,3.28,0,0,1-.81.23c-.68.14-1.36.25-2,.35a34.88,34.88,0,0,1-4,.35,33.06,33.06,0,0,1-13.34-2.29c1.8-.34,4.22-.55,6.43-.78a37.41,37.41,0,0,1,5.29-.35,30.79,30.79,0,0,0,4.89.05l1.19-.12,1.1-.14.55-.06c.13,0,.12-.1.13-.17l0-.27c.09-2.32-.32-6.48,0-8.28a1.52,1.52,0,0,1,.06-.2l0-.09s0,0-.07-.06a1,1,0,0,0-.38-.11,4.27,4.27,0,0,0-.8,0l-2.42.06c-1.66,0-3.26.05-4.82,0s-3.08-.12-4.54-.2c-.73,0-1.47-.11-2.16-.13L176,489.2c-.18,0-.53-.13-.37.16a1.46,1.46,0,0,1-.06.46c-.06.22-.17.66-.18.77a10.36,10.36,0,0,1-.19,1.42C174.76,494.57,173.19,498.68,173,499.59Z" /><ellipse class="cls-3" cx="153.2" cy="448.39" rx="24.52" ry="22.13" transform="translate(-306.46 563.45) rotate(-85.19)" /></g><g data-name="default" id="default-3" transform="matrix(-1, 0, 0, 1, 380, 0)"><path class="cls-1 color-body" d="M210.69,401.93c4.77,11.19,7.76,25.3,10.38,45.73,2.91,22.66,8.17,41,19.89,39.45,14.69-2,18.92-32.76,18-48-1.14-18.56-3.92-46-22.5-62.51-15.91-14.11-24.32-.71-24.32-.71" style="fill:#ffffff;--backup-fill:#ffffff" /><path d="M212.07,375.82a4.69,4.69,0,0,1,1.12-2,13.13,13.13,0,0,1,3.82-3.16,12.9,12.9,0,0,1,6.87-1.52,19.63,19.63,0,0,1,7.87,2.5,29.79,29.79,0,0,1,3.62,2.39l1.72,1.34c.57.46,1.07,1,1.61,1.47a36.6,36.6,0,0,1,3.06,3c.47.53,1,1.06,1.41,1.59l.7.78.63.83A68.92,68.92,0,0,1,252,394.93c5.77,11.24,8.54,24.7,9.84,38,.17,1.67.32,3.34.46,5s.25,3.46.27,5.16a96.87,96.87,0,0,1-.36,10.25,86,86,0,0,1-3.94,19.88,43.52,43.52,0,0,1-3.79,8.28,25.45,25.45,0,0,1-2.87,3.89,17.93,17.93,0,0,1-3.92,3.38,14.65,14.65,0,0,1-5.08,2.1,13.2,13.2,0,0,1-10.89-2.29A17.69,17.69,0,0,1,228,485,32.57,32.57,0,0,1,223.7,477a62.55,62.55,0,0,1-2.53-8,129.8,129.8,0,0,1-2.83-15.47c-.64-5.08-1-9.87-1.6-14.53s-1.12-9.16-1.78-13.46a139.68,139.68,0,0,0-5.31-23.2,55,55,0,0,1,5.94,10.09,98.41,98.41,0,0,1,4.82,12.79,109.87,109.87,0,0,1,4.51,21.66c.27,4.42.66,8.74,1.25,12.95a83.65,83.65,0,0,0,2.54,12.18,40.69,40.69,0,0,0,2.07,5.55,19.81,19.81,0,0,0,2.94,4.7,9.76,9.76,0,0,0,1.89,1.71,7.12,7.12,0,0,0,2.15,1,8.13,8.13,0,0,0,4.8-.18c3.19-1,5.72-3.86,7.55-6.95a43.4,43.4,0,0,0,4.16-10.07,88.14,88.14,0,0,0,3.11-20.92c.05-1.71.05-3.41,0-5.08s-.19-3.32-.32-5c-.26-3.34-.58-6.61-1-9.81a129.45,129.45,0,0,0-3.57-18.24,80,80,0,0,0-6.25-15.94A58.14,58.14,0,0,0,237.09,380l-1.33-1.35c-.23-.23-.45-.49-.7-.72l-.76-.66-1.59-1.41c-.54-.47-1.14-.84-1.73-1.29a17.34,17.34,0,0,0-7.87-3.39,12,12,0,0,0-7.35,1.54A14.54,14.54,0,0,0,212.07,375.82Z" /></g></svg>