<svg xmlns="http://www.w3.org/2000/svg" data-name="lounge_1 copy" id="lounge_1_copy" viewBox="0 0 380 600"><defs transform="matrix(-1, 0, 0, 1, 380, 0)"><style>.cls-1{fill:#ffffff;}.cls-2{fill:#ffd635;}.cls-3{fill:none;}.cls-4{fill:#efefed;}</style></defs><g id="default" transform="matrix(-1, 0, 0, 1, 380, 0)"><path class="cls-1 color-body" d="M160.412,391.443c-7.582,9.513-14.229,22.312-22.211,41.293-8.856,21.061-18.834,37.366-29.709,32.709-13.624-5.834-9.478-36.627-4.5-51.1,6.055-17.583,19.428-51.04,47.782-59.992,10.883-3.436,14.227,11.569,14.227,11.569" style="fill:#ffffff;--backup-fill:#ffffff" /><path d="M165.947,365.939c-.44-.388-1.22-2.975-3.311-6.14a11.794,11.794,0,0,0-4.514-4.164,7.363,7.363,0,0,0-3.27-.648,9.3,9.3,0,0,0-1.766.244l-.889.259-.948.349a49.192,49.192,0,0,0-14.275,8.128,57.522,57.522,0,0,0-9.412,9.669c-7.36,9.662-13.088,21.508-17.59,33.918-.567,1.551-1.111,3.116-1.646,4.685s-1.071,3.182-1.519,4.674a90.747,90.747,0,0,0-2.2,9.4,85.485,85.485,0,0,0-1.432,18.768,43.512,43.512,0,0,0,1.008,7.616,18.355,18.355,0,0,0,2.6,6.285,7.5,7.5,0,0,0,4.289,3.11,5.092,5.092,0,0,0,2.314.024,8.1,8.1,0,0,0,2.521-1.071,21.852,21.852,0,0,0,5.02-4.608,57.042,57.042,0,0,0,4.348-6.074,136.894,136.894,0,0,0,7.2-13.3c1.09-2.257,2.1-4.48,3.139-6.745s2.078-4.494,3.133-6.677c2.11-4.365,4.264-8.554,6.487-12.514a107.486,107.486,0,0,1,14.292-20.4c-1.433,3.123-3.134,6.869-4.826,10.906s-3.376,8.382-4.98,12.609c-3.2,8.461-6.094,16.462-8.124,20.507-4.173,8.251-8.377,16.247-13.84,23.355a43.511,43.511,0,0,1-4.532,5.019,21.321,21.321,0,0,1-5.745,3.963,13.429,13.429,0,0,1-3.535,1.017,11.7,11.7,0,0,1-3.722-.137,13.029,13.029,0,0,1-6.187-3.367,16.82,16.82,0,0,1-3.674-5.521,28.679,28.679,0,0,1-1.772-5.985,56.261,56.261,0,0,1-.838-11.806,103.886,103.886,0,0,1,3.1-22.037c.441-1.747.922-3.472,1.482-5.172.553-1.673,1.107-3.311,1.686-4.94q1.719-4.882,3.638-9.529a131.2,131.2,0,0,1,8.694-17.45A84.1,84.1,0,0,1,127.418,367.5a65.533,65.533,0,0,1,6.521-5.92,55.826,55.826,0,0,1,7.131-4.7,42.653,42.653,0,0,1,8.363-3.512l1.184-.341c.39-.115.789-.228,1.25-.317a11.946,11.946,0,0,1,2.732-.274,9.474,9.474,0,0,1,5.1,1.661,12.084,12.084,0,0,1,3.247,3.459,18.746,18.746,0,0,1,1.755,3.551A22.679,22.679,0,0,1,165.947,365.939Z" /></g><path class="cls-2 color-dress" d="M132.153,436.376c-10.6,2.286-23.82,2.768-35.763,22.571-4.872,8.079-7.179,17.369-9.491,26.375-.8,3.121-1.244,6.919,1.748,9.141,2.838,2.109,7.185,1.578,10.71.665,11.244-2.911,21.2-8.229,30.437-14.067,6.166-3.9,12.171-8.136,16.275-13.555s6.132-12.215,3.858-18.534-9.52-11.786-17.506-11.887" transform="matrix(-1, 0, 0, 1, 380, 0)" /><path d="M132.421,437.054a12.687,12.687,0,0,1,5.429.523,20.183,20.183,0,0,1,9.578,6.032,16.156,16.156,0,0,1,3.368,5.8,17.12,17.12,0,0,1,.784,6.61,23.8,23.8,0,0,1-3.483,10.307,41.234,41.234,0,0,1-10.227,10.922,136.5,136.5,0,0,1-12.753,8.582,113.459,113.459,0,0,1-13.811,7.146q-3.572,1.53-7.229,2.739c-1.221.387-2.44.766-3.666,1.1a29.193,29.193,0,0,1-3.835.845,13.833,13.833,0,0,1-7.354-.618,7.731,7.731,0,0,1-4.832-6.432,18.635,18.635,0,0,1,.877-6.971c.525-2.035,1.055-4.07,1.62-6.091a97.329,97.329,0,0,1,4.018-11.852,55.479,55.479,0,0,1,5.919-10.668,53.1,53.1,0,0,1,7.647-8.777,37.392,37.392,0,0,1,9.186-6.022,42.622,42.622,0,0,1,9.582-2.994c3.107-.616,6.058-.963,8.794-1.413-2.337.934-5.344,1.806-8.472,2.9a48.124,48.124,0,0,0-9.208,4.195,40.935,40.935,0,0,0-7.341,5.724c-.968,1.012-1.88,1.929-2.642,2.8-.744.886-1.419,1.637-1.976,2.249-1.028,1.315-2.153,2.545-3.065,3.937L97.9,459.65c-.444.69-.89,1.37-1.292,2.079a59.456,59.456,0,0,0-4.147,8.76c-1.142,3-2.109,6.032-2.981,9.052q-.637,2.274-1.267,4.513a26.6,26.6,0,0,0-.974,4.362,6.673,6.673,0,0,0,.616,3.919,5.212,5.212,0,0,0,2.976,2.346c2.568.836,5.5.4,8.193-.263a83.009,83.009,0,0,0,15.48-5.733,132.941,132.941,0,0,0,13.523-7.619,93.877,93.877,0,0,0,11.71-8.454,31.908,31.908,0,0,0,8.149-10.255,17.775,17.775,0,0,0,1.491-11.678,15.687,15.687,0,0,0-2.643-5.622,20.13,20.13,0,0,0-14.316-8Z" transform="matrix(-1, 0, 0, 1, 380, 0)" /><g data-name="default" id="default-2" transform="matrix(-1, 0, 0, 1, 380, 0)"><path class="cls-1 color-body" d="M239.64,463.371c-.822-7.144-2.461-16.135-4.759-22.342-13.642-36.838,9.04-78.792-30.636-91.823-29.145-9.571-59.413,5.745-75.671,54.174-5.9,17.562-7.776,42.306-3.484,59.991" style="fill:#ffffff;--backup-fill:#ffffff" /><path d="M125.031,463.385c-.41-.5-1.421-3.49-2.2-8.059a99.615,99.615,0,0,1-1.25-17.25,134.814,134.814,0,0,1,1.693-19.911,131.447,131.447,0,0,1,11.94-37.3A86.133,86.133,0,0,1,148.808,361a58.633,58.633,0,0,1,20.166-14.4,50.6,50.6,0,0,1,24.3-3.676,57.112,57.112,0,0,1,10.347,1.976,52.19,52.19,0,0,1,9.832,3.9,35.63,35.63,0,0,1,8.75,6.428,31.624,31.624,0,0,1,6.249,8.889c3.08,6.5,4.087,13.306,4.518,19.666.422,6.4.281,12.522.227,18.43-.07,5.9-.077,11.588.243,17.051a91.2,91.2,0,0,0,2.165,15.6q.219.921.435,1.833.26.9.517,1.787.549,1.857,1.085,3.675a74.043,74.043,0,0,1,1.621,7.379,119.041,119.041,0,0,1,1.5,13.7c-1.269-3.742-2.722-8.309-4.474-13.089-.876-2.387-1.833-4.827-2.918-7.167-.548-1.11-1.134-2.421-1.7-3.691-.6-1.268-1.024-2.59-1.531-3.886a78.5,78.5,0,0,1-4.271-26.328c.289-10.761,1.225-20.984.12-30.554a37.964,37.964,0,0,0-3.806-13.33,27.291,27.291,0,0,0-8.9-9.8,43.034,43.034,0,0,0-12.118-5.436,49.83,49.83,0,0,0-12.837-1.91,44.984,44.984,0,0,0-23.579,6.427,60.728,60.728,0,0,0-17.071,15.672,84.4,84.4,0,0,0-6.165,9.285c-.952,1.563-1.759,3.2-2.62,4.778-.783,1.627-1.623,3.2-2.327,4.836l-1.093,2.416q-.506,1.221-1.007,2.431c-.691,1.6-1.276,3.238-1.893,4.842s-1.138,3.231-1.708,4.822c-.521,1.6-1.037,3.168-1.47,4.762a134.581,134.581,0,0,0-3.788,18.792c-.389,2.918-.748,6.381-1.077,10-.268,3.625-.505,7.416-.506,10.973A101.817,101.817,0,0,0,125.031,463.385Z" /><path class="cls-1 color-body" d="M234.881,441.029c-13.642-36.838,9.04-78.792-30.636-91.823-29.144-9.571-59.413,5.745-75.671,54.174-5.9,17.562-7.776,42.306-3.484,59.991h0s6.034,10.253,50.162,13c42.248,2.629,64.388-13,64.388-13h0C238.818,456.227,237.179,447.236,234.881,441.029Z" style="fill:#ffffff;--backup-fill:#ffffff" /></g><path class="cls-2 color-dress" d="M236.806,434.382q-3.338-26.156-5.648-52.444c-3.942,4.324-12.241,7.309-22.426,8.9-.884-11.139,5.782-23.138,16.425-20.642l2.084-3.333c-18.251-8.9-25.311,12.1-24.605,24.749-20.12,1.951-45.14-.972-59.3-9.187.609-1.59,10.07-25.506,32.081-36.293-20.39,7.169-28.994,16.427-37.607,31.215-8.206,12.348-9.618,32.627-11.9,46.9-1.719,10.74-3.254,21.518-4.272,32.35-.611,6.5-4,18.964.679,24.165,27.492,21.059,70.693,21.263,103.9,14.42,5.7-2.718,12.157-6.294,15.277-12.059C245.228,476.211,237.931,443.2,236.806,434.382Z" transform="matrix(-1, 0, 0, 1, 380, 0)" /><path class="cls-3" d="M236.806,434.382q-3.338-26.156-5.648-52.444c-3.942,4.324-12.241,7.309-22.426,8.9-.884-11.139,5.782-23.138,16.425-20.642l2.084-3.333c-18.251-8.9-25.311,12.1-24.605,24.749-20.12,1.951-45.14-.972-59.3-9.187.609-1.59,10.07-25.506,32.081-36.293-20.39,7.169-28.994,16.427-37.607,31.215-8.206,12.348-9.618,32.627-11.9,46.9-1.719,10.74-3.254,21.518-4.272,32.35-.611,6.5-4,18.964.679,24.165,27.492,21.059,70.693,21.263,103.9,14.42,5.7-2.718,12.157-6.294,15.277-12.059C245.228,476.211,237.931,443.2,236.806,434.382Z" transform="matrix(-1, 0, 0, 1, 380, 0)" /><path d="M236.839,434.378c.267,1.187,1.526,7.428,3.228,16.693.825,4.636,1.748,10.03,2.444,15.967a86.871,86.871,0,0,1,.639,9.309,25.653,25.653,0,0,1-.392,4.953,10.973,10.973,0,0,1-.334,1.27,7.625,7.625,0,0,1-.578,1.219,17.313,17.313,0,0,1-1.432,2.147,28.653,28.653,0,0,1-7.876,6.692c-1.481.9-3.009,1.723-4.555,2.5l-1.162.573-.374.182-.4.078-.634.123-2.536.49a188.682,188.682,0,0,1-20.062,2.791,170.692,170.692,0,0,1-33.368-.186l-2.8-.316c-.937-.1-1.874-.212-2.805-.385l-5.627-.943L152.6,496.26c-.946-.189-1.868-.483-2.8-.754l-2.793-.821a86.818,86.818,0,0,1-21.475-9.871l-2.487-1.7-1.246-.855L121.42,482a1.423,1.423,0,0,1-.405-.425l-.562-.744a13.344,13.344,0,0,1-2.036-6.322,53.49,53.49,0,0,1,.765-12.276c.287-1.983.609-3.955.785-5.85q.293-3,.585-6.012.639-6.01,1.447-12.017t1.728-11.992c.634-3.993,1.173-7.92,1.711-11.931,1.1-7.985,2.236-16.049,4.5-23.926a57.892,57.892,0,0,1,4.561-11.49l3.089-5.2c1.045-1.708,2.136-3.41,3.279-5.071a64.543,64.543,0,0,1,7.745-9.329,55.223,55.223,0,0,1,9.461-7.463,85.24,85.24,0,0,1,16.637-7.816l1.635,3.9a61.425,61.425,0,0,0-21.039,17.909,78.936,78.936,0,0,0-7.428,11.757c-.542,1.021-1.035,2.064-1.516,3.1l-.291.643h0v0l-.009,0,0,0,.159.085.372.2c.486.281,1.018.49,1.531.729,1.03.471,2.06.942,3.136,1.326a83.418,83.418,0,0,0,13.159,3.785,117.46,117.46,0,0,0,13.534,1.979c4.526.407,9.049.6,13.538.578l3.361-.056,3.344-.153c.557-.018,1.109-.075,1.663-.114l.612-.046h.05c.042.005.075,0,.062-.046l.006-.568a39.756,39.756,0,0,1,2.8-13.743,26.427,26.427,0,0,1,3.495-6.192,17.122,17.122,0,0,1,5.555-4.771,14.544,14.544,0,0,1,7.218-1.542,18.824,18.824,0,0,1,3.547.543,22.4,22.4,0,0,1,4.027,1.439l1.326.6.66.3.33.148.165.074c.036.031.161.034.09.1-.5.825-.971,1.633-1.5,2.464l-1.555,2.468-.386.613-.192.306c-.064.1-.114.237-.256.168l-1.423-.225-1.144-.18a2.5,2.5,0,0,0-.667-.042c-.441.019-.891-.033-1.325.027l-1.3.217-1.24.432a11.432,11.432,0,0,0-4.22,3.293,16.8,16.8,0,0,0-2.783,4.865,22.216,22.216,0,0,0-1.381,5.5,10.965,10.965,0,0,0-.14,1.41l-.058,1.028c.037.232-.123.718.271.535l.425-.061,1.4-.254c.952-.189,1.9-.385,2.835-.607,1.871-.441,3.709-.952,5.487-1.562a34.427,34.427,0,0,0,5.1-2.18c.389-.226.8-.431,1.172-.673l.591-.378a7.659,7.659,0,0,0,.959-.739,48.688,48.688,0,0,0,3.674-3.436,4,4,0,0,1,.187,1.267l.121,1.472q.118,1.458.238,2.908.165,2.025.327,4.025.3,3.561.592,7.033.631,6.942,1.232,13.534,1.257,13.182,2.576,24.981c-1.27-6.851-2.644-15.141-3.96-24.14-.659-4.5-1.3-9.177-1.918-13.939q-.447-3.575-.9-7.2l-.216-1.811-.107-.907-.039-.29-.029-.187-.11-.7-.051-.319c-.03-.07,0-.306-.115-.121a6.875,6.875,0,0,1-.636.64c-.106.089-.206.182-.307.258l-.911.621a32.556,32.556,0,0,1-4.24,2.239,54.783,54.783,0,0,1-8.788,2.943c-.733.193-1.468.348-2.2.521l-1.1.229-.791.16-.986.173-1.977.337-.991.169c-.03-.007-.107.044-.1-.009l-.006-.124-.012-.246-.023-.493c-.041-1.3-.167-2.671-.137-3.927a27.1,27.1,0,0,1,1.515-8.733,20.669,20.669,0,0,1,4.291-7.275,13.84,13.84,0,0,1,6.924-4.116,17.6,17.6,0,0,1,1.9-.3l1.847-.015a2.588,2.588,0,0,1,.442.047l.322.049c.025.006.079.018.065.016l0,0c0,.009.05-.009.023-.039l-.014-.013-.537-.2c-.36-.148-.73-.22-1.094-.335a7.348,7.348,0,0,0-1.1-.261,8.228,8.228,0,0,0-1.1-.178,10.812,10.812,0,0,0-4.274.3,12.711,12.711,0,0,0-6.812,5.3,27.4,27.4,0,0,0-3.765,8.572,37.616,37.616,0,0,0-.92,4.666c-.1.785-.178,1.572-.236,2.359l-.058,1.18-.008.714c-.009.351.007.718.014,1.077l.02,1.064.01.53.005.265,0,.132v.066c-.007.015-.04.007-.059.012l-2.134.158-3.027.218c-1.656.061-3.307.157-4.954.172s-3.29.048-4.928,0c-1.638-.015-3.27-.078-4.9-.167a129.473,129.473,0,0,1-19.2-2.343,80.7,80.7,0,0,1-18.145-5.643c-.72-.324-1.438-.649-2.127-1.043l-1.436-.773-.75-.413-.373-.206-.187-.1c-.08-.027.024-.122.027-.18l.653-1.59c.21-.524.472-1.1.606-1.389.318-.714.665-1.41,1.007-2.108a86.786,86.786,0,0,1,4.584-8.037,78.2,78.2,0,0,1,11.547-14.039,59.032,59.032,0,0,1,14.577-10.225l.669,1.594c-2.993,1.091-5.965,2.2-8.8,3.559-1.441.632-2.81,1.39-4.2,2.1-1.343.788-2.716,1.525-3.99,2.4a53.317,53.317,0,0,0-13.379,12.436c-1.844,2.41-3.536,4.92-5.121,7.485-1.539,2.642-3.2,5.113-4.444,7.78a65.906,65.906,0,0,0-3.068,8.272c-.8,2.827-1.51,5.668-2.073,8.531-1.159,5.718-1.934,11.455-2.715,17.138-.742,5.7-1.7,11.308-2.486,16.84s-1.518,11.026-2.113,16.459q-.418,4.095-.833,8.144c-.354,2.724-.818,5.365-1.132,7.992a41.724,41.724,0,0,0-.34,7.754,14.4,14.4,0,0,0,.69,3.606,8.737,8.737,0,0,0,.706,1.59c.14.246.33.449.489.678a2.631,2.631,0,0,0,.191.251l.317.219a76.5,76.5,0,0,0,13.12,7.768,104.458,104.458,0,0,0,28.29,8.329,155.1,155.1,0,0,0,28.236,1.625,197.8,197.8,0,0,0,26.89-2.664l4.691-.863,1.173-.213a10.124,10.124,0,0,0,.967-.435q1.146-.552,2.3-1.148a35.221,35.221,0,0,0,8.756-6.074,19.5,19.5,0,0,0,1.772-2.058c.258-.371.54-.73.762-1.125l.354-.581.258-.55a17.774,17.774,0,0,0,.807-5.379,92.944,92.944,0,0,0-.575-11.2c-.752-7.3-1.814-14.07-2.655-19.537S237.045,436.45,236.839,434.378Z" transform="matrix(-1, 0, 0, 1, 380, 0)" /><path class="cls-2 color-dress" d="M131.162,449.674c-4.05-1.233-8.427-.487-12.4.964A70.991,70.991,0,0,0,81.31,482.716a4.031,4.031,0,0,0-.687,3.245c.659,1.738,3.087,1.751,4.913,1.4a109.355,109.355,0,0,0,36.248-13.911c4.252-2.58,8.506-5.655,10.64-10.148s3-11.067-1.262-13.633" transform="matrix(-1, 0, 0, 1, 380, 0)" /><path d="M131.178,449.648a3.009,3.009,0,0,1,1.15.638,5.6,5.6,0,0,1,1.677,2.289c.945,2.167.9,5.366-.034,8.451a17.638,17.638,0,0,1-2.03,4.536,20.268,20.268,0,0,1-3.147,3.772,46.469,46.469,0,0,1-6.322,4.864,98.557,98.557,0,0,1-19.847,10.2,106.584,106.584,0,0,1-10.984,3.482c-1.849.486-3.706.9-5.552,1.284a10.625,10.625,0,0,1-3.332.222,5.676,5.676,0,0,1-1.97-.569,4.1,4.1,0,0,1-2.241-3.889,5.7,5.7,0,0,1,.381-1.75,10.937,10.937,0,0,1,.608-1.311l.607-1.067c.409-.7.8-1.415,1.225-2.1l1.307-2.042a68.969,68.969,0,0,1,19.7-19.525,65.307,65.307,0,0,1,14.843-7.267c4.826-1.781,10.039-2.311,14.114-.736a19.345,19.345,0,0,0-6.626.615,32.646,32.646,0,0,0-6.912,2.8c-4.525,2.242-8.505,4.741-10.674,5.936a63.455,63.455,0,0,0-21.195,18.56,62.559,62.559,0,0,0-3.6,5.536,5.726,5.726,0,0,0-1.059,2.612,1.518,1.518,0,0,0,1.371,1.466,6.957,6.957,0,0,0,2.817-.053c1.016-.213,2.03-.395,3.024-.632,1.995-.441,3.94-.951,5.841-1.494a107.875,107.875,0,0,0,20.526-8.343c3.04-1.619,5.946-3.308,8.608-5.054a26.977,26.977,0,0,0,6.731-5.973,18.592,18.592,0,0,0,3.464-9.032,8.273,8.273,0,0,0-.71-4.345A6.145,6.145,0,0,0,131.178,449.648Z" transform="matrix(-1, 0, 0, 1, 380, 0)" /><path class="cls-2 color-dress" d="M226.932,449.831c3.663-1.544,7.622-.61,11.22,1.207,14.27,7.211,26.537,21.762,33.873,40.181a6.643,6.643,0,0,1,.622,4.065c-.6,2.176-2.793,2.193-4.445,1.759a84.732,84.732,0,0,1-32.788-17.424c-3.846-3.232-7.694-7.084-9.624-12.711s-2.713-13.863,1.142-17.077" transform="matrix(-1, 0, 0, 1, 380, 0)" /><path d="M226.951,449.855a10.973,10.973,0,0,0-1.79,3.584,19.931,19.931,0,0,0-.016,8.319,25.158,25.158,0,0,0,3.309,9.016,26.63,26.63,0,0,0,5.17,5.927,99.01,99.01,0,0,0,18.813,12.426,81.537,81.537,0,0,0,10.644,4.45c1.805.626,3.635,1.133,5.45,1.613a3.476,3.476,0,0,0,1.822.1.525.525,0,0,0,.279-.175,1.109,1.109,0,0,0,.168-.421c.175-.722-.274-2.085-.959-3.585-.624-1.482-1.257-2.955-1.957-4.39-.653-1.459-1.421-2.852-2.133-4.264-.774-1.378-1.507-2.773-2.333-4.1-1.581-2.7-3.358-5.221-5.141-7.668a82.959,82.959,0,0,0-5.743-6.788,65.361,65.361,0,0,0-12.629-10.458c-1.1-.635-2.178-1.345-3.24-1.868a17.458,17.458,0,0,0-3.235-1.275,10.44,10.44,0,0,0-6.277.053,9.679,9.679,0,0,1,6.627-1.528,17.385,17.385,0,0,1,4.03.9c1.335.467,2.569,1.042,3.839,1.6a42.081,42.081,0,0,1,11.031,7.551,92.457,92.457,0,0,1,17.149,25.183l1.45,3.226,1.321,3.219a10.774,10.774,0,0,1,.949,3.515,4.475,4.475,0,0,1-.337,1.984,3.26,3.26,0,0,1-1.442,1.588,5.37,5.37,0,0,1-3.77.189c-1.057-.3-2.114-.569-3.142-.9-2.071-.621-4.074-1.343-6.023-2.1a88.458,88.458,0,0,1-20.474-11.449,60.548,60.548,0,0,1-8.074-7,24.419,24.419,0,0,1-5.3-8.663,26.141,26.141,0,0,1-1.3-10.859,12.818,12.818,0,0,1,1.356-4.751A6.8,6.8,0,0,1,226.951,449.855Z" transform="matrix(-1, 0, 0, 1, 380, 0)" /><path class="cls-2 color-dress" d="M144.006,456.413c-8.358.191-15.165,6.454-21.109,12.332a157.869,157.869,0,0,0-12.891,13.806A79.282,79.282,0,0,0,94.777,514.42a2.005,2.005,0,0,0,.007,1.3,1.958,1.958,0,0,0,1.356.845c9.017,2.407,18.606-.721,26.868-5.063a93.609,93.609,0,0,0,32.649-28.56c1.327-1.868,2.641-4.011,2.347-6.283-.244-1.882-1.546-3.433-2.811-4.848q-6.8-7.608-14.308-14.542" transform="matrix(-1, 0, 0, 1, 380, 0)" /><path d="M140.905,457.245c.765.284,6.211,5.06,11.983,11.127l2.18,2.318a30.438,30.438,0,0,1,2.153,2.487,7.647,7.647,0,0,1,1.478,3.165,6.668,6.668,0,0,1-.358,3.452,23.094,23.094,0,0,1-3.034,5.106c-1.029,1.449-1.979,2.733-2.8,3.784a89.7,89.7,0,0,1-21.721,20.185,80.306,80.306,0,0,1-13.571,7.292,39.523,39.523,0,0,1-15.076,3.152c-.564,0-1.127-.011-1.691-.069s-1.129-.073-1.689-.172-1.126-.141-1.678-.278l-.832-.185-.417-.094a6.223,6.223,0,0,1-.7-.194,3.459,3.459,0,0,1-2.2-1.883,3.29,3.29,0,0,1-.247-1.449,5.127,5.127,0,0,1,.1-.762l.137-.61c.243-1.045.487-2.088.774-3.118a78.33,78.33,0,0,1,17.56-32.2c2.587-2.879,5.26-5.508,7.871-8,2.613-2.478,5.138-4.911,7.783-7.093a38.336,38.336,0,0,1,8.294-5.407,20.11,20.11,0,0,1,8.784-1.95,22.7,22.7,0,0,0-8.128,3.318,44.925,44.925,0,0,0-7.593,6.447c-2.336,2.393-4.532,4.874-6.517,6.966-1.97,2.094-3.645,3.849-4.84,5.017a76.683,76.683,0,0,0-12.267,15.066,74.134,74.134,0,0,0-7.615,16.694q-.677,2.127-1.2,4.266l-.237.95a1.235,1.235,0,0,0-.024.641.769.769,0,0,0,.441.449,3.281,3.281,0,0,0,.721.216,25.169,25.169,0,0,0,8.294.653,43.352,43.352,0,0,0,15.361-4.618,91.828,91.828,0,0,0,23.792-17.158,100.616,100.616,0,0,0,8.741-9.984,34.589,34.589,0,0,0,3.432-5.075,5.668,5.668,0,0,0,.624-2.511,4.834,4.834,0,0,0-.736-2.38,49.343,49.343,0,0,0-3.975-4.941c-1.531-1.789-3.144-3.638-4.675-5.351C144.539,461.078,141.8,458.2,140.905,457.245Z" transform="matrix(-1, 0, 0, 1, 380, 0)" /><path class="cls-2 color-dress" d="M186.172,465.139l20.171-3.949c2.374-.465,4.848-.927,7.184-.3,3.24.868,5.609,3.686,7.115,6.682,3.3,6.565,3.37,14.22,3.372,21.566,0,11.613-.227,24.022-6.787,33.6-1.476,2.156-3.488,4.244-6.083,4.548-2.977.349-5.683-1.763-7.584-4.08-3.746-4.567-5.787-10.259-7.759-15.828-4.778-13.494-9.612-27.28-9.864-41.593" transform="matrix(-1, 0, 0, 1, 380, 0)" /><path d="M185.968,465.788a43.082,43.082,0,0,1,.628,4.846c.326,2.672.869,6.189,1.706,9.911a149.557,149.557,0,0,0,6.221,20.184c1.565,3.963,3.1,8.169,4.84,12.242a46.554,46.554,0,0,0,3.023,5.885,22.083,22.083,0,0,0,4.031,4.963c1.547,1.33,3.347,2.078,4.889,1.686,1.568-.353,3.056-1.8,4.233-3.509a33.005,33.005,0,0,0,3.032-5.668,41.408,41.408,0,0,0,1.873-6.119c1.595-7.282,1.555-14.925,1.582-22.415a79.141,79.141,0,0,0-.529-10.813,27.692,27.692,0,0,0-2.926-9.536c-1.522-2.775-3.8-4.935-6.5-5.253a15.467,15.467,0,0,0-4.424.2L203,463.15c-6.092.988-11.714,1.846-16.722,2.547,4.28-1.68,10.651-3.645,16.722-5.3,1.53-.412,2.987-.816,4.5-1.173a16.52,16.52,0,0,1,4.682-.5,9.828,9.828,0,0,1,4.267,1.23,10.682,10.682,0,0,1,2.633,2.066,17.84,17.84,0,0,1,2.889,4.325,29.808,29.808,0,0,1,1.706,4.584,42.28,42.28,0,0,1,1.351,9.189c.149,3.006.085,5.934.029,8.794s-.122,5.685-.266,8.47a69.315,69.315,0,0,1-2.409,16.081,35.671,35.671,0,0,1-3,7.225,18.309,18.309,0,0,1-4.791,6.048,7.026,7.026,0,0,1-3.776,1.415,7.387,7.387,0,0,1-3.866-.905,16.093,16.093,0,0,1-5.305-5.015,50.263,50.263,0,0,1-5.971-12.049,226.366,226.366,0,0,1-7.423-22.79,78.8,78.8,0,0,1-2.1-12.485A67.429,67.429,0,0,1,185.968,465.788Z" transform="matrix(-1, 0, 0, 1, 380, 0)" /><path class="cls-2 color-dress" d="M186.345,465.722c-10.239-.727-19.7,5.543-26.954,12.8a9.18,9.18,0,0,0-2.17,2.876,9.621,9.621,0,0,0-.155,5.077c1.309,8.623,2.893,17.305,6.417,25.283s9.191,15.283,16.956,19.255c4.3,2.2,10.562,2.789,13.062-1.341a11.139,11.139,0,0,0,1.229-4.659,134.644,134.644,0,0,0-5.21-53.737c-.935-3.032-2.348-6.414-5.363-7.4" transform="matrix(-1, 0, 0, 1, 380, 0)" /><path d="M184.167,463.847a3.345,3.345,0,0,1,1.536.543,7.421,7.421,0,0,1,2.425,2.507,19.413,19.413,0,0,1,1.934,4.4c.532,1.663,1.1,3.467,1.616,5.357,1.049,3.773,1.974,7.856,2.67,11.617.718,3.758,1.146,7.2,1.5,9.655a122.684,122.684,0,0,1,.476,27.65,13.968,13.968,0,0,1-.831,3.9,7.69,7.69,0,0,1-2.8,3.494,9.3,9.3,0,0,1-4.06,1.45,13.9,13.9,0,0,1-4.012-.113,17.988,17.988,0,0,1-3.738-1.061,25.027,25.027,0,0,1-3.337-1.711,34.347,34.347,0,0,1-5.759-4.352c-6.1-5.676-10.029-13.161-12.4-20.614a89.591,89.591,0,0,1-2.746-11.192c-.34-1.847-.637-3.678-.907-5.489q-.194-1.356-.385-2.7a27.079,27.079,0,0,1-.295-2.852,8.6,8.6,0,0,1,.457-3.258,8.2,8.2,0,0,1,1.755-2.736c.668-.724,1.3-1.282,1.942-1.885s1.3-1.158,1.944-1.73a51.829,51.829,0,0,1,8.209-5.733,33.841,33.841,0,0,1,8.659-3.359,24.222,24.222,0,0,1,8.364-.479,29.462,29.462,0,0,0-8,1.951,37.351,37.351,0,0,0-8.093,4.49,63.841,63.841,0,0,0-6.668,5.575c-.945.9-1.806,1.754-2.566,2.517a18,18,0,0,0-1.679,1.807,3.39,3.39,0,0,0-.666,1.4,7.165,7.165,0,0,0-.111,1.889c.034.694.13,1.463.217,2.237s.181,1.534.271,2.3c.381,3.044.818,6.025,1.392,8.927a61.826,61.826,0,0,0,5.313,16.243,38.571,38.571,0,0,0,9.849,12.491,27.554,27.554,0,0,0,6.432,3.929,12.7,12.7,0,0,0,6.942.837,5.792,5.792,0,0,0,2.867-1.4,5.492,5.492,0,0,0,1.534-2.7,20,20,0,0,0,.478-3.376c.088-1.166.213-2.319.269-3.468.3-4.589.341-9.037.2-13.33a155.208,155.208,0,0,0-2.735-23.889c-.674-3.487-1.651-8.252-2.709-12.4a15.626,15.626,0,0,0-2.146-5.19A6.1,6.1,0,0,0,184.167,463.847Z" transform="matrix(-1, 0, 0, 1, 380, 0)" /><path class="cls-2 color-dress" d="M232.71,453.366c-1.439-1.491-3-2.966-4.9-3.478a10.275,10.275,0,0,0-4.266.018,79.484,79.484,0,0,0-34.773,14.646c-1.062,2.425-.816,5.6-.033,8.281,3.239,11.081,12.689,17.954,21.483,23.931,14.589,9.914,30.686,20.2,47.5,17.478C256.848,491.258,247.634,468.833,232.71,453.366Z" transform="matrix(-1, 0, 0, 1, 380, 0)" /><path d="M232.732,453.344c.753.412,6.634,6.1,11.562,14.114a91.474,91.474,0,0,1,6.642,12.613c.48,1.04.857,2.093,1.272,3.089q.3.751.593,1.474l.51,1.433c.333.933.65,1.818.946,2.645l.735,2.323a93.089,93.089,0,0,1,3.54,15.84c.159,1.381.382,2.764.462,4.167q.1,1.365.2,2.736c.028.6.117,1.245.1,1.8l-1.815.226-2.776.35-2.188.085-1.1.039-1.095-.052-2.192-.113a54.068,54.068,0,0,1-16.667-4.659,115.36,115.36,0,0,1-14.669-8.026c-4.013-2.549-7.9-5.128-11.761-7.852a64.517,64.517,0,0,1-10.77-9.3,32.923,32.923,0,0,1-7.137-12.275,16.849,16.849,0,0,1-.807-7.265,11.307,11.307,0,0,1,.415-1.9c.047-.128.108-.364.215-.611l.288-.711c.023-.138.156-.19.254-.269l.309-.223.523-.367c.9-.631,1.8-1.243,2.711-1.824a78.6,78.6,0,0,1,22.285-9.937,71.845,71.845,0,0,1,10.732-2.031,12.373,12.373,0,0,1,2.731-.032,6.9,6.9,0,0,1,2.634.861,15.012,15.012,0,0,1,3.706,3.272,17.954,17.954,0,0,0-3.9-2.48,6.215,6.215,0,0,0-2.429-.482,11.528,11.528,0,0,0-2.564.368,94.212,94.212,0,0,0-10.742,3.3,121.082,121.082,0,0,0-16.4,7.769c-1.644.861-3.233,1.8-4.787,2.771-.392.237-.776.485-1.155.74l-.57.378-.285.188a.507.507,0,0,1-.1.055.145.145,0,0,0-.089.084.419.419,0,0,0-.039.082c-.029.087-.068.17-.092.262a8.033,8.033,0,0,0-.263,1.118c-.493,3.154.549,6.638,1.972,9.72a32.057,32.057,0,0,0,5.745,8.383,57.43,57.43,0,0,0,7.507,6.7c2.641,2.024,5.363,3.888,8.046,5.723,2.69,1.818,5.342,3.6,8.02,5.233s5.34,3.19,8.046,4.544a68.761,68.761,0,0,0,8.162,3.561,51.5,51.5,0,0,0,8.268,2.228c1.389.156,2.756.438,4.131.456.685.029,1.368.088,2.046.093l2.028-.067a14.482,14.482,0,0,0,2-.172l.554-.071c.154-.04.394-.008.474-.107q-.114-1.584-.225-3.142-.221-1.972-.438-3.911c-.16-1.291-.394-2.56-.583-3.824a103.913,103.913,0,0,0-3.562-14.371,98.752,98.752,0,0,0-5.138-12.825,112.305,112.305,0,0,0-7.419-13.152c-1.4-2.139-2.843-4.029-4-5.577Z" transform="matrix(-1, 0, 0, 1, 380, 0)" /><g data-name="default" id="default-3" transform="matrix(-1, 0, 0, 1, 380, 0)"><path class="cls-1 color-body" d="M259.039,439.566c-1.139-18.561-3.924-46.029-22.5-62.515-15.9-14.111-22.106-3.869-24.321-.71s-5.633,16.01-1.424,26.085,7.753,25.3,10.376,45.725c2.91,22.661,8.17,41.038,19.9,39.455C255.749,485.622,259.977,454.841,259.039,439.566Z" style="fill:#ffffff;--backup-fill:#ffffff" /><path class="cls-1 color-body" d="M210.791,402.426c4.766,11.192,7.753,25.3,10.376,45.725,2.91,22.661,8.17,41.038,19.894,39.455,14.687-1.984,18.916-32.765,17.978-48.04-1.139-18.561-3.924-46.029-22.5-62.515-15.9-14.111-24.321-.71-24.321-.71" style="fill:#ffffff;--backup-fill:#ffffff" /><path d="M212.163,376.309a4.751,4.751,0,0,1,1.129-2.015,12.819,12.819,0,0,1,10.682-4.683,19.8,19.8,0,0,1,7.878,2.5,31.055,31.055,0,0,1,3.614,2.394l1.727,1.341c.569.456,1.068.978,1.606,1.465a36.32,36.32,0,0,1,3.058,3.045l1.414,1.585.7.784.627.825a69.022,69.022,0,0,1,7.46,11.874c5.769,11.243,8.546,24.7,9.841,38,.173,1.668.321,3.334.456,5s.25,3.463.275,5.164a98.609,98.609,0,0,1-.362,10.251,85.588,85.588,0,0,1-3.941,19.875,43.34,43.34,0,0,1-3.783,8.28,26.328,26.328,0,0,1-2.873,3.895,18.251,18.251,0,0,1-3.919,3.376,14.721,14.721,0,0,1-5.079,2.1,13.243,13.243,0,0,1-10.892-2.289,17.757,17.757,0,0,1-3.651-3.626,32.965,32.965,0,0,1-4.335-7.95,64.54,64.54,0,0,1-2.53-7.962,130.476,130.476,0,0,1-2.827-15.476c-.642-5.077-1.041-9.863-1.6-14.526-.534-4.66-1.115-9.159-1.78-13.464a139.334,139.334,0,0,0-5.314-23.2,54.861,54.861,0,0,1,5.944,10.1,98.283,98.283,0,0,1,4.82,12.781,109.657,109.657,0,0,1,4.5,21.66c.275,4.421.663,8.74,1.259,12.952a83.864,83.864,0,0,0,2.535,12.18,40.966,40.966,0,0,0,2.069,5.552,19.428,19.428,0,0,0,2.946,4.7,9.678,9.678,0,0,0,1.887,1.709,6.947,6.947,0,0,0,2.153,1.041,8.1,8.1,0,0,0,4.8-.173c3.185-1.026,5.715-3.861,7.544-6.956a43.264,43.264,0,0,0,4.168-10.067,88.117,88.117,0,0,0,3.1-20.923q.079-2.567.006-5.078c-.038-1.666-.188-3.316-.318-5-.264-3.34-.588-6.609-1-9.806a128.055,128.055,0,0,0-3.57-18.237,79.522,79.522,0,0,0-6.245-15.941,58.107,58.107,0,0,0-9.166-12.837l-1.325-1.349c-.23-.233-.454-.485-.7-.714l-.767-.666-1.581-1.4c-.542-.471-1.148-.848-1.731-1.294a17.28,17.28,0,0,0-7.869-3.387,11.891,11.891,0,0,0-7.352,1.539A14.682,14.682,0,0,0,212.163,376.309Z" /></g><path class="cls-2 color-dress" d="M185.811,467.2a4.506,4.506,0,0,0-1.885-2.085,55.675,55.675,0,0,0-44.827-8.4c-5.488,3.438-8.313,12.537-9.4,18.92-3.441,20.188-1.63,41.292,2.064,61.434a6.168,6.168,0,0,0,1.3,3.27c2.137,2.218,5.818.3,8.18-1.673,10.858-9.091,21.2-18.97,29.342-30.554S184.631,483.1,185.9,469A4.5,4.5,0,0,0,185.811,467.2Z" transform="matrix(-1, 0, 0, 1, 380, 0)" /><path d="M185.84,467.189a3.605,3.605,0,0,1,.264,2.124c-.059,1.139-.171,2.678-.426,4.5a69.527,69.527,0,0,1-3.306,13.354c-.883,2.46-1.9,4.966-3.027,7.4-1.146,2.43-2.376,4.8-3.639,7.019a121.381,121.381,0,0,1-7.119,10.9c-6.841,9.473-15.764,18.392-25.294,26.587l-.893.771c-.311.264-.659.548-1,.8a15.214,15.214,0,0,1-2.243,1.394,9.4,9.4,0,0,1-2.712.91,5.423,5.423,0,0,1-3.337-.457,5.228,5.228,0,0,1-2.35-2.529,11.559,11.559,0,0,1-.751-2.654q-.422-2.317-.842-4.626c-1.071-6.163-1.924-12.306-2.5-18.324a154.152,154.152,0,0,1,.015-31.39q.242-1.92.481-3.828.3-1.9.6-3.787a51.526,51.526,0,0,1,1.9-7.5,33.784,33.784,0,0,1,3.207-7.033,19.578,19.578,0,0,1,2.372-3.161l.7-.724.77-.67a7.342,7.342,0,0,1,.82-.62l.518-.358.334-.233.4-.085,1.91-.395c.593-.129,1.187-.242,1.785-.318,1.191-.178,2.373-.363,3.559-.444l1.767-.151,1.758-.062c1.168-.067,2.328-.008,3.477.007a55.73,55.73,0,0,1,24.452,6.568,53.142,53.142,0,0,1,4.842,2.948c.748.54,1.484,1.051,2.206,1.593a4.777,4.777,0,0,1,1.82,2.3,4.322,4.322,0,0,0-1.91-1.863c-.755-.425-1.557-.81-2.369-1.244-1.643-.831-3.422-1.648-5.3-2.393a62.084,62.084,0,0,0-11.96-3.443,64.386,64.386,0,0,0-11.546-1c-3.471-.017-6.392.351-8.411.515-1.009.139-2.027.225-3.024.406l-1.493.274-.373.068a.489.489,0,0,1-.134.016c-.016-.008-.061.026-.29.175a13.465,13.465,0,0,0-3.749,4.028,36.538,36.538,0,0,0-4.358,10.772,100.619,100.619,0,0,0-1.885,11.463c-.446,3.806-.663,7.58-.764,11.3a195,195,0,0,0,3.949,41.707,4.286,4.286,0,0,0,.837,1.864,2.342,2.342,0,0,0,1.585.8,6.844,6.844,0,0,0,3.962-1.327,15.617,15.617,0,0,0,1.8-1.362l1.787-1.531,3.484-3.071c4.567-4.1,8.826-8.232,12.7-12.445a115.6,115.6,0,0,0,18.456-25.981,93.791,93.791,0,0,0,6.28-15.585c.8-2.728,1.36-5.32,1.762-7.429C185.707,469.622,186.114,468,185.84,467.189Z" transform="matrix(-1, 0, 0, 1, 380, 0)" /><path class="cls-4" d="M163.054,353.817c-17.884,11.408-22.155,47.243,3.788,48.762,19.8,1.158,28.218-23.585,43.32-32.276,7.652-4.4,11.657-5.072,15.566-5.62,7.14-1-.679-5.938-18.229,2.81-17.787,8.866-24.526,35.2-45.06,28.475-12.949-4.239-11.124-32.058,8.163-47.356C174.106,346.084,163.054,353.817,163.054,353.817Z" transform="matrix(-1, 0, 0, 1, 380, 0)" /><path d="M163.045,353.805c.427-.393,2.872-2.18,6.518-4.765l1.429-1,.1-.065.052-.034.042-.024c.088,0-.025-.075.235.018.06.636-.018.211,0,.345l-.2.151-.372.276c-.244.181-.476.4-.721.6-.982.806-1.968,1.727-2.97,2.713a44.222,44.222,0,0,0-5.668,6.971,45.131,45.131,0,0,0-4.393,8.546,40.233,40.233,0,0,0-2.306,9.186c-.778,6.056.383,11.775,2.722,14.874a10.175,10.175,0,0,0,3.792,3.3,12.387,12.387,0,0,0,1.178.484c.406.142.845.239,1.267.362a21.521,21.521,0,0,0,2.594.529,16.8,16.8,0,0,0,10.31-1.93,35.591,35.591,0,0,0,8.508-7c2.576-2.733,5.006-5.67,7.556-8.541A69.531,69.531,0,0,1,201,370.671a36.051,36.051,0,0,1,4.849-3.3,53.677,53.677,0,0,1,5.232-2.517,43.572,43.572,0,0,1,11.073-3.219,20.1,20.1,0,0,1,2.925-.185,13.087,13.087,0,0,1,1.511.108,6.734,6.734,0,0,1,1.118.269,2.9,2.9,0,0,1,1.038.539,1.53,1.53,0,0,1,.522.809,1.284,1.284,0,0,1-.15.964,3.194,3.194,0,0,1-1.9,1.21,12.575,12.575,0,0,1-1.584.316l-1.341.205a32.192,32.192,0,0,0-8.854,2.781c-1.416.656-2.8,1.387-4.167,2.161-.7.377-1.326.793-1.982,1.192-.626.445-1.27.86-1.87,1.347-4.886,3.782-8.828,8.7-12.88,13.395s-8.189,9.442-13.44,12.818a24.547,24.547,0,0,1-8.538,3.533,23.927,23.927,0,0,1-9.047-.057,19.519,19.519,0,0,1-8.142-3.484,17.338,17.338,0,0,1-5.391-6.724,27.5,27.5,0,0,1-1.688-15.949,37.216,37.216,0,0,1,5.27-13.8,29.942,29.942,0,0,1,9.329-9.507,31.316,31.316,0,0,0-4.607,4.177,33.639,33.639,0,0,0-4.1,5.766,37.923,37.923,0,0,0-4.693,14.42,26.3,26.3,0,0,0,1.909,13.824,17.282,17.282,0,0,0,3.174,4.683,16.571,16.571,0,0,0,3.444,2.683,19.316,19.316,0,0,0,6.9,2.373,21.242,21.242,0,0,0,7.274-.065c4.779-.884,9.01-3.537,12.6-6.7,7.207-6.4,12.474-14.432,19.389-20.573a35.331,35.331,0,0,1,5.534-4.087,58.157,58.157,0,0,1,6-3.075,33.238,33.238,0,0,1,6.324-2.089c1.078-.236,2.162-.409,3.237-.562a13.08,13.08,0,0,0,1.48-.269,1.466,1.466,0,0,0,.848-.472.314.314,0,0,0-.161-.414A1.675,1.675,0,0,0,227,363a6.541,6.541,0,0,0-1.291-.194,17.628,17.628,0,0,0-3.1.106,34.514,34.514,0,0,0-6.061,1.321,53.666,53.666,0,0,0-5.745,2.152,44.967,44.967,0,0,0-5.368,2.731,45.871,45.871,0,0,0-9,7.528c-2.682,2.793-5.136,5.726-7.631,8.555a60.322,60.322,0,0,1-7.976,7.836,20.2,20.2,0,0,1-9.94,4.412,17.941,17.941,0,0,1-5.366-.162l-1.305-.25-1.269-.356a8.262,8.262,0,0,1-1.261-.422l-.627-.249-.592-.321a11.254,11.254,0,0,1-3.866-3.57,16.18,16.18,0,0,1-2.131-4.661,26.706,26.706,0,0,1-.712-9.809,38.269,38.269,0,0,1,2.113-9.219,42.808,42.808,0,0,1,4.455-8.982,44.132,44.132,0,0,1,7-8.319c.66-.581,1.279-1.182,1.949-1.7l.971-.784a5.387,5.387,0,0,1,.489-.368l.245-.171.119-.086.054-.04.008-.006c.008-.039.054.124.114.163.03-.1.01.089.052.112.086.037.01.018.023.03l-3.63,2.4Z" transform="matrix(-1, 0, 0, 1, 380, 0)" /><path class="cls-4" d="M159.925,354.772c-16.36,12.96-23.025,54.731,4.044,56.909,21.118,1.7,30.122-27.525,46.244-37.669,8.168-5.139,12.443-5.92,16.616-6.559,7.623-1.167-1.8-7.127-19.459,3.28-18.631,10.976-24.8,40.477-47.215,34.327-14.37-3.943-12.76-38.509,7.829-56.363C171.724,345.746,159.925,354.772,159.925,354.772Z" transform="matrix(-1, 0, 0, 1, 380, 0)" /><path d="M159.916,354.76c.462-.45,3.1-2.545,7.027-5.584L168.487,348l.054-.039.031-.021.017-.011a.244.244,0,0,1,.141-.039c.41.439-.013.393.124.382l-.017.016-.028.024-.051.043-.2.164-.4.321-.766.71c-1.051.944-2.093,2.026-3.146,3.18a49.267,49.267,0,0,0-5.871,8.088,53.69,53.69,0,0,0-6.865,20.009,40.8,40.8,0,0,0-.161,9.558,24.967,24.967,0,0,0,1.919,7.441,13.537,13.537,0,0,0,3.286,4.619,9.641,9.641,0,0,0,2.369,1.541c.427.2.891.317,1.334.483l1.442.327a19.7,19.7,0,0,0,5.9.366,17.6,17.6,0,0,0,5.711-1.6,30.478,30.478,0,0,0,9.474-7.652c2.775-3.108,5.287-6.514,7.888-9.881a99.909,99.909,0,0,1,8.336-9.788,45.694,45.694,0,0,1,4.9-4.258,40.758,40.758,0,0,1,5.5-3.414,42.5,42.5,0,0,1,12.024-4.424,17.484,17.484,0,0,1,6.548-.134,6,6,0,0,1,.94.3l.269.118.306.2c.1.067.209.127.3.2l.232.247a1.5,1.5,0,0,1,.4,1.2,1.759,1.759,0,0,1-.667,1.106,2.491,2.491,0,0,1-.606.39,2.312,2.312,0,0,1-.516.235,7.242,7.242,0,0,1-.848.251c-.277.065-.549.107-.822.16l-.747.118a33.744,33.744,0,0,0-5.047,1.165,35.674,35.674,0,0,0-4.783,1.965c-1.555.766-3.071,1.625-4.562,2.528a33.884,33.884,0,0,0-4.211,2.952,57.26,57.26,0,0,0-7.227,7.367c-2.232,2.639-4.332,5.394-6.455,8.118-4.244,5.426-8.532,10.92-14.068,15.061a25.253,25.253,0,0,1-9.255,4.409,22.292,22.292,0,0,1-10.052-.053,18.886,18.886,0,0,1-8.747-4.492,19.949,19.949,0,0,1-5.125-8.04c-2.086-5.942-2.021-12.114-1.175-17.755a51.725,51.725,0,0,1,5.062-15.594,35.14,35.14,0,0,1,9.17-11.607,36.545,36.545,0,0,0-8.515,11.991,53.451,53.451,0,0,0-4.516,16.353,35.957,35.957,0,0,0,1.466,15.639,19.246,19.246,0,0,0,3,5.6c.143.188.274.382.42.558l.459.492c.306.317.577.648.877.924s.605.521.888.763l.411.359.429.292a18.052,18.052,0,0,0,7.467,3.045,20.063,20.063,0,0,0,8.05-.119,22.539,22.539,0,0,0,7.349-3.147,39.362,39.362,0,0,0,6.189-5.106c7.571-7.6,13.035-16.76,20.431-23.9a36.365,36.365,0,0,1,6-4.735,61.62,61.62,0,0,1,6.573-3.6,32.808,32.808,0,0,1,7.017-2.355c1.189-.259,2.427-.422,3.567-.63a4.4,4.4,0,0,0,1.4-.489c.144-.1.3-.257.26-.45a.657.657,0,0,0-.359-.395,5.081,5.081,0,0,0-1.465-.429,12.087,12.087,0,0,0-1.716-.122,20.5,20.5,0,0,0-3.451.3,34.435,34.435,0,0,0-6.636,1.875,50.4,50.4,0,0,0-6.168,2.9,37.388,37.388,0,0,0-5.575,3.689,61.07,61.07,0,0,0-9.109,9.387c-2.716,3.35-5.229,6.783-7.861,10.057a50.54,50.54,0,0,1-8.7,8.882,19.657,19.657,0,0,1-11.286,4.219,21.142,21.142,0,0,1-5.907-.647,10.728,10.728,0,0,1-5.23-2.779,14.83,14.83,0,0,1-3.232-4.813,23.1,23.1,0,0,1-1.584-5.415,45.239,45.239,0,0,1,1.988-21.132,51.789,51.789,0,0,1,4.508-10.172,49.338,49.338,0,0,1,7.238-9.668,42.648,42.648,0,0,1,4.137-3.763l.023-.019c.014-.053.288.406.216.282l-.06.04-.132.092-.263.189-.518.375-1,.732-1.867,1.368Z" transform="matrix(-1, 0, 0, 1, 380, 0)" /></svg>