<svg xmlns="http://www.w3.org/2000/svg" id="new" viewBox="0 0 380 600"><defs transform="matrix(-1, 0, 0, 1, 380, 0)"><style>.cls-1{fill:#ffffff;}.cls-2{fill:#668bff;}.cls-3{fill:#c08d41;}.cls-4{fill:#f7f7f7;}.cls-5{fill:#172e35;}.cls-6{fill:#ff57b3;}.cls-7{fill:#2f323d;}</style></defs><g id="default" transform="matrix(-1, 0, 0, 1, 380, 0)"><path class="cls-1 color-body" d="M160.41,391.44c-7.58,9.52-14.23,22.32-22.21,41.3-8.86,21.06-18.83,37.36-29.71,32.7C94.87,459.61,99,428.82,104,414.35c6-17.58,19.42-51,47.78-60,10.88-3.44,14.23,11.57,14.23,11.57" style="fill:#ffffff;--backup-fill:#ffffff" /><path d="M166,365.94c-.44-.39-1.22-3-3.31-6.14a11.88,11.88,0,0,0-4.52-4.17,7.33,7.33,0,0,0-3.27-.64,9,9,0,0,0-1.76.24l-.89.26-.95.35A49.18,49.18,0,0,0,137,364a57.36,57.36,0,0,0-9.41,9.67c-7.36,9.66-13.09,21.5-17.59,33.91-.57,1.56-1.11,3.12-1.64,4.69s-1.07,3.18-1.52,4.67a91,91,0,0,0-2.21,9.4,85.68,85.68,0,0,0-1.43,18.77,44.3,44.3,0,0,0,1,7.62,18.3,18.3,0,0,0,2.6,6.28,7.48,7.48,0,0,0,4.29,3.11,5,5,0,0,0,2.32,0,8.35,8.35,0,0,0,2.52-1.07,22.12,22.12,0,0,0,5-4.61,57.9,57.9,0,0,0,4.35-6.08,135.52,135.52,0,0,0,7.19-13.29c1.09-2.26,2.1-4.48,3.14-6.75s2.08-4.49,3.13-6.67c2.11-4.37,4.27-8.56,6.49-12.52a107.9,107.9,0,0,1,14.29-20.4c-1.43,3.13-3.13,6.87-4.82,10.91s-3.38,8.38-5,12.61c-3.2,8.46-6.1,16.46-8.13,20.5-4.17,8.26-8.37,16.25-13.84,23.36a43.7,43.7,0,0,1-4.53,5,21.48,21.48,0,0,1-5.74,4,13.34,13.34,0,0,1-3.54,1,11.6,11.6,0,0,1-3.72-.14,13,13,0,0,1-6.19-3.36,16.85,16.85,0,0,1-3.67-5.53,29,29,0,0,1-1.78-6,56.61,56.61,0,0,1-.83-11.81,103.66,103.66,0,0,1,3.1-22c.44-1.75.92-3.48,1.48-5.18s1.11-3.31,1.68-4.94q1.72-4.87,3.64-9.52a132.15,132.15,0,0,1,8.7-17.46,84,84,0,0,1,11.07-14.66,64.55,64.55,0,0,1,6.52-5.92,56.56,56.56,0,0,1,7.13-4.7,43.08,43.08,0,0,1,8.36-3.51l1.19-.34a12,12,0,0,1,1.25-.32,11.77,11.77,0,0,1,2.73-.27,9.47,9.47,0,0,1,5.1,1.66,12.14,12.14,0,0,1,3.25,3.46,18.73,18.73,0,0,1,1.75,3.55A23.3,23.3,0,0,1,166,365.94Z" /><path class="cls-2 color-shirt2" d="M168.53,370c.2-6-5.19-15.3-11.11-17.27-4.43-1.48-9.25.33-13.38,2.52-17.42,9.26-30.56,26-37.69,44.16-4,10.33-8,22.85-5.17,34,2.53,10.07,20.37,23.9,30.46,15.76a16.17,16.17,0,0,0,3.81-5.36l11.23-21.46" style="" /><path d="M146.72,422.3c0,.94-3.32,7.86-7.29,15.82l-3,6.09a17,17,0,0,1-4.09,5.85,12.35,12.35,0,0,1-6.14,2.69,17.29,17.29,0,0,1-5.4-.12,25.07,25.07,0,0,1-7.59-2.71,33.56,33.56,0,0,1-6.69-4.76,30,30,0,0,1-5.5-6.5,18.49,18.49,0,0,1-1.93-4.11c-.28-.79-.37-1.44-.56-2.16s-.27-1.42-.39-2.13A47.24,47.24,0,0,1,99,413.37a108.23,108.23,0,0,1,4.8-15.41,91.28,91.28,0,0,1,13.55-23.8,79.06,79.06,0,0,1,19.27-17.58l2.68-1.62c.9-.52,1.82-1,2.72-1.47a34.21,34.21,0,0,1,5.7-2.48,18.75,18.75,0,0,1,6.31-1,13.6,13.6,0,0,1,3.24.51l.78.25.75.33a9.47,9.47,0,0,1,1.41.77,17.24,17.24,0,0,1,4.27,4,26,26,0,0,1,2.81,4.55,19.43,19.43,0,0,1,2.1,9.57,21.89,21.89,0,0,0-4.12-8.51,25.39,25.39,0,0,0-3.48-3.77,13.7,13.7,0,0,0-4.05-2.57c-2.67-1-5.57-.3-8.06.71s-4.65,2.3-6.21,3.07a60.63,60.63,0,0,0-8.86,5.32c-1.42,1-2.71,2.06-4,3.1L128.65,369c-.64.55-1.25,1.12-1.84,1.71a78.69,78.69,0,0,0-6.69,7.27,85.68,85.68,0,0,0-5.58,7.84,88.51,88.51,0,0,0-8.09,16.52,77.87,77.87,0,0,0-4.51,16.61,41.54,41.54,0,0,0-.37,8.07c.06.65.11,1.3.17,1.95s.2,1.28.29,1.92.28,1.25.42,1.87a12.21,12.21,0,0,0,.56,1.71,22.09,22.09,0,0,0,4,6.07,32.54,32.54,0,0,0,5.35,4.78c3.81,2.7,8.14,4.59,12.22,4.56a9.72,9.72,0,0,0,5.48-1.64,11.67,11.67,0,0,0,3.65-4.44C137.57,436.62,145.19,424.63,146.72,422.3Z" /></g><g data-name="default" id="default-2" transform="matrix(-1, 0, 0, 1, 380, 0)"><path class="cls-3" d="M239.64,463.37c-.82-7.14-2.46-16.13-4.76-22.34-13.64-36.84,9-78.79-30.64-91.82-29.14-9.57-59.41,5.74-75.67,54.17-5.89,17.56-7.77,42.31-3.48,60" style="" /><path d="M125,463.38c-.41-.5-1.42-3.49-2.2-8.05a101.05,101.05,0,0,1-1.25-17.25,135.41,135.41,0,0,1,1.69-19.92,126.12,126.12,0,0,1,3.64-16,124.81,124.81,0,0,1,8.31-21.25A85.92,85.92,0,0,1,148.81,361,58.59,58.59,0,0,1,169,346.6a50.6,50.6,0,0,1,24.31-3.68,58,58,0,0,1,10.35,2,52.39,52.39,0,0,1,9.83,3.9,35.9,35.9,0,0,1,8.75,6.43,31.75,31.75,0,0,1,6.25,8.89c3.08,6.5,4.08,13.3,4.51,19.66s.29,12.53.23,18.43-.08,11.59.24,17.06a92.11,92.11,0,0,0,2.17,15.59c.14.61.29,1.23.43,1.83s.35,1.2.52,1.79l1.09,3.68a75.53,75.53,0,0,1,1.62,7.38,118.51,118.51,0,0,1,1.5,13.7c-1.27-3.74-2.72-8.31-4.47-13.09-.88-2.39-1.84-4.83-2.92-7.17-.55-1.11-1.14-2.42-1.7-3.69s-1-2.59-1.53-3.88a78.46,78.46,0,0,1-4.27-26.33c.28-10.76,1.22-21,.11-30.55a38.06,38.06,0,0,0-3.8-13.34,27.37,27.37,0,0,0-8.9-9.79A43.05,43.05,0,0,0,201.17,350a50.4,50.4,0,0,0-12.84-1.91,45,45,0,0,0-23.58,6.43,60.85,60.85,0,0,0-17.07,15.67,84.41,84.41,0,0,0-6.16,9.29c-1,1.56-1.76,3.19-2.62,4.78s-1.63,3.2-2.33,4.83c-.37.81-.73,1.62-1.09,2.42s-.68,1.62-1,2.43c-.69,1.6-1.28,3.24-1.89,4.84s-1.14,3.23-1.71,4.82-1,3.17-1.47,4.76a135,135,0,0,0-3.79,18.8c-.39,2.91-.75,6.38-1.08,10s-.5,7.42-.5,11A101.89,101.89,0,0,0,125,463.38Z" /><path class="cls-1 color-body" d="M234.88,441c-13.64-36.84,9-78.79-30.64-91.82-29.14-9.57-59.41,5.74-75.67,54.17-5.89,17.56-7.77,42.31-3.48,60h0s6,10.25,50.16,13c42.25,2.63,64.39-13,64.39-13h0C238.82,456.23,237.18,447.24,234.88,441Z" style="fill:#ffffff;--backup-fill:#ffffff" /></g><g data-name="default" id="default-3" transform="matrix(-1, 0, 0, 1, 380, 0)"><path class="cls-1 color-body" d="M259,439.57c-1.14-18.56-3.92-46-22.5-62.52-15.91-14.11-22.11-3.87-24.33-.71s-5.63,16-1.42,26.09,7.75,25.3,10.38,45.72c2.91,22.66,8.17,41,19.89,39.46C255.75,485.62,260,454.84,259,439.57Z" style="fill:#ffffff;--backup-fill:#ffffff" /><path class="cls-1 color-body" d="M210.79,402.43c4.77,11.19,7.75,25.3,10.38,45.72,2.91,22.66,8.17,41,19.89,39.46,14.69-2,18.92-32.77,18-48-1.14-18.56-3.92-46-22.5-62.52-15.91-14.11-24.32-.71-24.32-.71" style="fill:#ffffff;--backup-fill:#ffffff" /><path d="M212.16,376.31a4.94,4.94,0,0,1,1.13-2,12.7,12.7,0,0,1,3.82-3.15,12.86,12.86,0,0,1,6.86-1.53,19.83,19.83,0,0,1,7.88,2.5,32.89,32.89,0,0,1,3.62,2.4l1.72,1.34c.57.45,1.07,1,1.61,1.46a35.24,35.24,0,0,1,3.06,3.05l1.41,1.58.7.78.63.83a69.55,69.55,0,0,1,7.46,11.87c5.77,11.25,8.54,24.7,9.84,38,.17,1.67.32,3.34.45,5s.25,3.47.28,5.17a99.71,99.71,0,0,1-.36,10.25,85.88,85.88,0,0,1-3.94,19.87,43.24,43.24,0,0,1-3.79,8.28,26.74,26.74,0,0,1-2.87,3.9,18.17,18.17,0,0,1-3.92,3.37,14.73,14.73,0,0,1-5.08,2.1,13.2,13.2,0,0,1-10.89-2.29,17.9,17.9,0,0,1-3.65-3.62,33.33,33.33,0,0,1-4.34-7.95,66.49,66.49,0,0,1-2.53-8,131.54,131.54,0,0,1-2.82-15.48c-.65-5.08-1-9.86-1.6-14.53s-1.12-9.16-1.78-13.46a138.87,138.87,0,0,0-5.32-23.2,55.42,55.42,0,0,1,5.95,10.1,97.72,97.72,0,0,1,4.82,12.78,110,110,0,0,1,4.5,21.66c.28,4.42.67,8.74,1.26,12.95a83.65,83.65,0,0,0,2.54,12.18,40.69,40.69,0,0,0,2.07,5.55,19.3,19.3,0,0,0,2.94,4.7,9.76,9.76,0,0,0,1.89,1.71,7,7,0,0,0,2.15,1,8.05,8.05,0,0,0,4.8-.17c3.19-1,5.71-3.86,7.54-7a42.65,42.65,0,0,0,4.17-10.07,88,88,0,0,0,3.1-20.92c.06-1.71.06-3.4,0-5.08s-.19-3.31-.32-5q-.39-5-1-9.8a126.4,126.4,0,0,0-3.57-18.24,78.93,78.93,0,0,0-6.24-15.94,57.68,57.68,0,0,0-9.17-12.84l-1.32-1.35c-.23-.23-.46-.48-.7-.71l-.77-.67-1.58-1.4c-.54-.47-1.15-.85-1.73-1.3a17.21,17.21,0,0,0-7.87-3.38,11.86,11.86,0,0,0-7.35,1.54A14.85,14.85,0,0,0,212.16,376.31Z" /></g><path class="cls-4 color-shirt1" d="M130.64,395.1c2.83-1.43,6.7-2.92,9.88-2.47a18.71,18.71,0,0,1,6.93,2.79,21.79,21.79,0,0,1,4.84,3.75c2.42,2.62,3.73,6.06,5,9.4,9.86-9.79,22.68-20.32,37.35-15.05,15,5.37,22,20.23,22.58,35.08a10.16,10.16,0,0,1-.54,4.56c-.93,2.06-3.09,3.24-5.16,4.16-21.6,9.65-45,5.38-67.33,1-5.16-1-19.85-2.87-21.2-9.32-1.47-7,0-14.3,1.53-21.32,1-5,1.85-10.32,6.62-13" style="" transform="matrix(-1, 0, 0, 1, 380, 0)" /><path d="M131.14,394.79c-.18.21-.89.65-1.77,1.54a11.82,11.82,0,0,0-2.57,4.17,41.87,41.87,0,0,0-1.67,6.77c-.51,2.57-1.08,5.32-1.5,8.19a45.3,45.3,0,0,0-.52,8.8,26,26,0,0,0,.54,4.33,5.07,5.07,0,0,0,2,3.16,20.52,20.52,0,0,0,7,3.22,57.57,57.57,0,0,0,6.27,1.4c12.87,2,26.6,4.91,40.52,5.09a79.44,79.44,0,0,0,20.52-2.15l2.47-.64c.82-.22,1.61-.53,2.41-.78s1.62-.5,2.39-.83l2.33-1a15.68,15.68,0,0,0,4.09-2.15,4.49,4.49,0,0,0,1.17-1.34,4.2,4.2,0,0,0,.46-1.69,20,20,0,0,0,0-2.77c-.09-1-.1-2-.25-2.92s-.22-1.94-.41-2.89-.35-1.91-.6-2.85a40.46,40.46,0,0,0-4.18-10.64,29.88,29.88,0,0,0-16.53-13.72,21.26,21.26,0,0,0-10.17-.83,29.91,29.91,0,0,0-9.5,3.39,55.57,55.57,0,0,0-8.2,5.59c-1.27,1-2.49,2.07-3.67,3.12l-.88.8-.47.42-.76.71-2.89,2.77c-.53-1.43-1.06-2.84-1.57-4.23-.19-.47-.37-.93-.55-1.39s-.32-.75-.49-1.11a18.55,18.55,0,0,0-2.33-3.91,23.31,23.31,0,0,0-6.74-5.2,11.71,11.71,0,0,0-7.26-1.77,23.51,23.51,0,0,0-6.89,2.12,21.48,21.48,0,0,1,6.9-3.14,10.92,10.92,0,0,1,2.17-.27,11.59,11.59,0,0,1,2.27.24,19.49,19.49,0,0,1,4.44,1.54,32.16,32.16,0,0,1,4.18,2.35,16.43,16.43,0,0,1,3.68,3.39,23.81,23.81,0,0,1,2.57,4.12l.51,1.05.12.26,0,.05.05.06a1.07,1.07,0,0,0,.15.18,1.85,1.85,0,0,0,.16-.26s0,0,0,0l.39-.38.81-.8c1.07-1,2.1-2,3.1-2.87s1.94-1.64,2.82-2.31,1.7-1.23,2.41-1.71a39.25,39.25,0,0,1,13.45-5.89,25.43,25.43,0,0,1,14.23,1.27,32.94,32.94,0,0,1,11.41,7.5,36,36,0,0,1,7.31,10.91A46.06,46.06,0,0,1,217.51,423c.11,1,.26,2,.33,3.08s.14,2.05.17,3.07a12.1,12.1,0,0,1-.26,3.19,6.33,6.33,0,0,1-1.64,2.92,14.9,14.9,0,0,1-5.29,3.13l-2.73,1.11c-.91.36-1.85.62-2.77.94-1.83.66-3.71,1.06-5.56,1.56-.92.23-1.86.37-2.79.56s-1.85.38-2.78.49a97.32,97.32,0,0,1-21.69.58c-7-.53-13.65-1.55-20.07-2.67L143,439.26c-3.08-.54-6.17-1.07-9.15-1.87a27.54,27.54,0,0,1-8.56-3.57,8.13,8.13,0,0,1-3.15-3.8,14.47,14.47,0,0,1-.47-2.3c-.1-.74-.18-1.47-.22-2.2a38.69,38.69,0,0,1,.58-9.34c.55-3.31,1.41-6.67,2.18-9.79s1.63-6.12,3-8.17A9.79,9.79,0,0,1,131.14,394.79Z" transform="matrix(-1, 0, 0, 1, 380, 0)" /><path class="cls-2 color-shirt2" d="M127.22,398.55c1.78.27,3.49-.91,5.26-1.17a15.84,15.84,0,0,1,5.78.3c9.75,2.23,13.88,11.2,19.5,18.61a49.38,49.38,0,0,1,11.17-10.38c8.75-5.62,20.66-6.41,30.36-3,3.13,1.11,11.65,4.5,12.74,8.07-3.18-10.46-15.2-18.75-25.8-20.15a30,30,0,0,0-26.92,10.76c-2.52-6.14-8.62-12.64-15.23-13.24C137.94,387.81,130,392.72,127.22,398.55Z" style="" transform="matrix(-1, 0, 0, 1, 380, 0)" /><path d="M127.19,398.54a11.94,11.94,0,0,1,2.94-4.6,20.77,20.77,0,0,1,9.84-5.82,12.64,12.64,0,0,1,6.92.16,18.13,18.13,0,0,1,6.06,3.4,26.08,26.08,0,0,1,4.42,4.74c.31.41.58.83.85,1.23s.47.75.69,1.12.46.82.63,1.18c.23-.26.45-.56.63-.8l.31-.35.64-.69,1.41-1.33,1.51-1.24,1.6-1.16a31.16,31.16,0,0,1,7.19-3.58,30.38,30.38,0,0,1,16.4-1,36.56,36.56,0,0,1,14.93,7.28,28.91,28.91,0,0,1,9.7,13.41l-3.66,1.11a4,4,0,0,0-1.16-1.45,25.89,25.89,0,0,0-6.15-3.61A45.88,45.88,0,0,0,196,404a36.2,36.2,0,0,0-14.26-.74,30.39,30.39,0,0,0-12.79,4.9,40.93,40.93,0,0,0-5.25,4.29c-.81.78-1.6,1.58-2.36,2.39l-.57.62-1,1.14-2,2.39c-.5-.69-1-1.38-1.5-2.07l-.74-1-.63-.9-1.53-2.29c-1-1.51-2-3-3-4.36a29,29,0,0,0-6.62-7,17.37,17.37,0,0,0-8.16-3.14,10.88,10.88,0,0,0-4.05.21c-1.29.33-2.74,1-4.34.71,1.62,0,2.89-.89,4.35-1.51a12.63,12.63,0,0,1,5.11-.77,15.66,15.66,0,0,1,2.78.35,18.78,18.78,0,0,1,2.8.77,20.28,20.28,0,0,1,5.16,2.89,29.05,29.05,0,0,1,4.18,3.92c1.22,1.37,2.3,2.75,3.26,4s1.83,2.49,2.59,3.56c.17.25.34.49.51.71h0v.06s0,0,0,0h0s0,.06.14-.13c.49-.52,1-1,1.5-1.54,1-1,2.08-2,3.17-2.89a38.32,38.32,0,0,1,7-4.81,35.75,35.75,0,0,1,15.73-3.91,39,39,0,0,1,15.1,2.64,51.68,51.68,0,0,1,6.7,3.12,21,21,0,0,1,3.07,2.05,7.15,7.15,0,0,1,2.4,3.11l-1.47.45a23,23,0,0,0-4.16-7.61,31.64,31.64,0,0,0-6.22-5.81A33,33,0,0,0,186,391.77a28.9,28.9,0,0,0-14.75,2.2,29.61,29.61,0,0,0-6.17,3.58,30.55,30.55,0,0,0-2.64,2.27l-.7.71c-.33.32-.64.7-1,1-.61.7-1.22,1.44-1.82,2.1-.44-1-.87-2-1.35-2.94l-.35-.73a3.24,3.24,0,0,0-.2-.36l-.12-.21c-.16-.27-.31-.55-.49-.82a26.3,26.3,0,0,0-2.24-3.05,21,21,0,0,0-5.56-4.67,14.13,14.13,0,0,0-2.95-1.23,10.15,10.15,0,0,0-3.47-.43,17.37,17.37,0,0,0-7.22,2.09,21.49,21.49,0,0,0-5.39,4A16.52,16.52,0,0,0,127.19,398.54Z" transform="matrix(-1, 0, 0, 1, 380, 0)" /><path class="cls-5" d="M213.74,428.53c-3.24,6.07-3.31,13.9-3.52,20.6q-.54,16.55-.36,33.1c0,1.47.25,3.28,1.63,3.82a3.55,3.55,0,0,0,2.37-.19,31,31,0,0,0,12.34-7.74,4.11,4.11,0,0,0,1.24-1.95,4.34,4.34,0,0,0-.27-2.13,95.62,95.62,0,0,0-6.39-15,18.77,18.77,0,0,1-1.1-14.34c1.17-3.63,1.72-6.35.92-10.29a58.81,58.81,0,0,0-2.93-9.1.86.86,0,0,0-.42-.54.8.8,0,0,0-.71.26A11.61,11.61,0,0,0,213.74,428.53Z" transform="matrix(-1, 0, 0, 1, 380, 0)" /><path d="M213.72,428.52a4.33,4.33,0,0,1,.7-1.61,10.43,10.43,0,0,1,1.13-1.48,6.07,6.07,0,0,1,.84-.76c.29-.21.67-.49,1.09-.29a3.13,3.13,0,0,1,.79,1.16c.22.49.45,1.08.66,1.6.36.9.73,1.86,1.08,2.86a30.07,30.07,0,0,1,1.61,6.44,18.06,18.06,0,0,1-.53,6.44c-.22.95-.51,1.88-.7,2.64a15.21,15.21,0,0,0-.4,2.12,18,18,0,0,0,1.52,9.65c.16.38.37.75.55,1.13l.64,1.21c.42.81.84,1.63,1.27,2.44.84,1.65,1.66,3.33,2.42,5.05s1.47,3.49,2.09,5.29l.45,1.37a7.21,7.21,0,0,1,.34,1.81,4.27,4.27,0,0,1-.57,2.24,7.49,7.49,0,0,1-1.1,1.44,32.68,32.68,0,0,1-9.18,6.81c-.74.37-1.49.7-2.25,1-.38.15-.76.31-1.15.44s-.75.28-1.25.42a5.9,5.9,0,0,1-1.75.21,4,4,0,0,1-2.11-.73,4.37,4.37,0,0,1-1.36-1.63,6.77,6.77,0,0,1-.51-1.59,12.09,12.09,0,0,1-.17-2.64c0-.76,0-1.52,0-2.28,0-1.52,0-3,.06-4.54.1-6,.24-11.87.42-17.46q.15-4.19.29-8.16c.16-2.62.32-5.21.61-7.69a45.81,45.81,0,0,1,1.36-7.12,24.61,24.61,0,0,1,2.61-6.05,37.26,37.26,0,0,0-1.14,6.42,69.15,69.15,0,0,0-.16,7.37c.05,2.46.17,4.88.19,7s.07,3.92,0,5.15c-.69,10-1.12,19.34-1.36,28.14a4.32,4.32,0,0,0,.58,2.58,1.21,1.21,0,0,0,.83.43,3.63,3.63,0,0,0,1.29-.22,29.31,29.31,0,0,0,10.46-5.93,26.46,26.46,0,0,0,2.07-2,3.07,3.07,0,0,0,.62-1,2.11,2.11,0,0,0,0-1,12.84,12.84,0,0,0-.38-1.3l-.45-1.34c-.31-.89-.64-1.76-1-2.62-.69-1.72-1.46-3.39-2.24-5s-1.59-3.21-2.39-4.78a21.83,21.83,0,0,1-2-5,19.3,19.3,0,0,1,.28-10.3,35.83,35.83,0,0,0,1.17-4.38,14.93,14.93,0,0,0,.18-4.21,37.8,37.8,0,0,0-1.14-5.73c-.27-1-.56-2-.83-3-.1-.37-.2-.73-.29-1.08a3,3,0,0,0-.39-1c-.27-.21-.55,0-.75.14a7,7,0,0,0-.6.48,9.31,9.31,0,0,0-1,1A13.86,13.86,0,0,0,213.72,428.52Z" transform="matrix(-1, 0, 0, 1, 380, 0)" /><path class="cls-2 color-shirt2" d="M218.3,443.14c-.41,4.76-.82,9.58-.13,14.31s2.59,9.44,6.15,12.65a20.61,20.61,0,0,0,12.4,4.77c6.92.5,17.6-.55,22.08-6.84a12.84,12.84,0,0,0,1.8-4.76c2.73-12.57,1.29-24.9-3-37a97.28,97.28,0,0,0-13.16,7.12c-4.75,3-10.32,3.91-15.57,5.85-1.12.42-10.3,5-10.73,4.6s-.95.49-.51.74" style="" transform="matrix(-1, 0, 0, 1, 380, 0)" /><path d="M217.63,444.64c-.08,0-.32-.17-.25-.48a.73.73,0,0,1,.26-.44.53.53,0,0,1,.33-.14.85.85,0,0,1,.23,0l.1.06h0c.11-.12-.14.17-.11.14h0s0,0,0-.05a.15.15,0,0,0,0-.11s.29-.09.47-.17l.63-.27,1.48-.7,3.71-1.82c1.39-.66,2.79-1.44,4.47-2.12,3.24-1.24,6.79-2.17,9.85-3.36a30,30,0,0,0,4.13-2c1.17-.7,2.28-1.48,3.18-2.06q2.4-1.6,5-3.12c.87-.5,1.75-1,2.64-1.46l.68-.35.79-.4,2.31-1.08.59-.27c.09,0,.22-.14.27-.09l.1.29.42,1.17.84,2.32c.31,1,.67,2,.95,3,.63,2,1.13,4,1.59,6.1a63.94,63.94,0,0,1,.4,25,21.5,21.5,0,0,1-1.51,5.46,11,11,0,0,1-.81,1.4l-.95,1.18a15.21,15.21,0,0,1-2.19,2,23.54,23.54,0,0,1-10.24,4,42.09,42.09,0,0,1-10.36.43,24.59,24.59,0,0,1-9.86-2.81,17.76,17.76,0,0,1-7-7,24.3,24.3,0,0,1-2.8-8.6c-.74-5.73.08-10.85.71-15.3.49,4.07.57,10.13,2,15.28a24.89,24.89,0,0,0,2.93,6.69,20.19,20.19,0,0,0,3.28,3.88,16.34,16.34,0,0,0,6.46,3.65,27.12,27.12,0,0,0,7.53,1.12,35.94,35.94,0,0,0,7.51-.52,21.4,21.4,0,0,0,6.79-2.32,13.05,13.05,0,0,0,1.46-.95,9.89,9.89,0,0,0,1.3-1.11,16.26,16.26,0,0,0,1.1-1.26,7.31,7.31,0,0,0,.8-1.42,17.71,17.71,0,0,0,.95-3.27c.23-1.14.47-2.27.63-3.4a55.49,55.49,0,0,0,.65-6.73,59,59,0,0,0-.12-6.53A66.45,66.45,0,0,0,259,433.93c-.24-1-.54-1.93-.81-2.88l-.45-1.4-.22-.7-.15-.41-.26-.72c0-.19-.15-.08-.26,0l-.32.15-2.07,1c-3.35,1.71-6.45,3.6-9.46,5.47a38.21,38.21,0,0,1-9.79,3.89L230,439.77l-.68.21-.32.1-.32.13-1.37.54-2.7,1.08c-1.76.69-3.41,1.31-4.77,1.76-.34.11-.67.2-1,.28l-.45.09a.7.7,0,0,1-.25,0c-.13,0-.1-.07-.17-.09C217.57,443.81,217.31,444.49,217.63,444.64Z" transform="matrix(-1, 0, 0, 1, 380, 0)" /><path class="cls-5" d="M244,432.9l-.48.21c-6.17,2.86-10.57,6.24-17.38,7.26-5.95.89-11.27,1.84-11-5.4.08-2.72-.55-2.66-2.16-4.66a4.15,4.15,0,0,1-.67-3.33c1.58-8.26,10-15.16,17.51-17.91,5.33-1.94,11.08-2.34,16.75-2.61,3.68-.17,7.54-.26,10.81,1.43,3.81,2,6.11,6,7.35,10.13C267.33,426.67,249.92,430.42,244,432.9Z" transform="matrix(-1, 0, 0, 1, 380, 0)" /><path d="M244,432.87a14.13,14.13,0,0,1,3.57-1.68c2-.79,4.73-1.74,7.51-3s5.71-2.77,7.54-4.88a5.25,5.25,0,0,0,1.45-3.3,3.46,3.46,0,0,0-.05-.79,3.16,3.16,0,0,0-.16-.74,13.73,13.73,0,0,0-.51-1.41c-1.25-3-3.18-6-5.95-7.58s-6.27-1.68-9.88-1.46a97.42,97.42,0,0,0-10.85,1.11,30.9,30.9,0,0,0-9.69,3.28,31.68,31.68,0,0,0-7,5.16,26.24,26.24,0,0,0-2.77,3.21,19.15,19.15,0,0,0-2,3.55,6.73,6.73,0,0,0-.36.94c-.1.31-.25.62-.32.94l-.24.95a3,3,0,0,0-.1.73,2,2,0,0,0,.23,1.06,7.39,7.39,0,0,0,.51.64l.72.84a5.56,5.56,0,0,1,.89,1.32,5.28,5.28,0,0,1,.44,1.65,10.16,10.16,0,0,1,0,1.33c0,.22,0,.37,0,.52v.46a4,4,0,0,0,.76,2.7,2.55,2.55,0,0,0,1,.62,7.19,7.19,0,0,0,1.62.23,24.59,24.59,0,0,0,3.78-.2l1.93-.23c.61-.08,1.22-.17,1.81-.29a27.75,27.75,0,0,0,3.48-.92,64.25,64.25,0,0,0,6.43-2.71c2.06-1,4-1.86,6-2.57l-5.29,3.92a40.84,40.84,0,0,1-6.57,4,23.55,23.55,0,0,1-3.65,1.39c-.61.19-1.23.31-1.82.46l-1.64.32a16.91,16.91,0,0,1-5.65.35,8.46,8.46,0,0,1-2.36-.71,5.67,5.67,0,0,1-2.06-1.77,7.55,7.55,0,0,1-1.19-4.47l0-1c0-.27,0-.54,0-.78a3.64,3.64,0,0,0,0-.62,1.3,1.3,0,0,0-.14-.42,11.44,11.44,0,0,0-1-1.26c-.21-.25-.38-.47-.6-.77a4.65,4.65,0,0,1-.58-1.1,5.5,5.5,0,0,1-.29-2.24,5.63,5.63,0,0,1,.16-1.05l.25-.91a18.13,18.13,0,0,1,1.37-3.41,24.45,24.45,0,0,1,4.12-5.69,34.54,34.54,0,0,1,10.79-7.53,40.35,40.35,0,0,1,11.94-3c2-.23,3.9-.37,5.79-.49s3.77-.24,5.66-.17a17.36,17.36,0,0,1,5.6,1,12.78,12.78,0,0,1,4.66,3.15,17.8,17.8,0,0,1,3,4.42,22.09,22.09,0,0,1,1,2.37c.15.4.28.8.4,1.2A7.68,7.68,0,0,1,266,419a6.84,6.84,0,0,1-1.65,5.16,14.68,14.68,0,0,1-3.77,3.09,40.09,40.09,0,0,1-9.56,3.73C247.77,431.88,244.93,432.56,244,432.87Z" transform="matrix(-1, 0, 0, 1, 380, 0)" /><path class="cls-6" d="M225.39,430.92a93.84,93.84,0,0,1,32.75-14.05,5.89,5.89,0,0,1,2.88-.17,3.9,3.9,0,0,1,2.39,2.31c2.83,6.53-3.84,10.23-9.31,11.95-11.45,3.6-22.7,6.89-33.94,11.11a7.66,7.66,0,0,1-4.21.77c-.64-3.64-2.06-4.67,1.38-7.12C219.88,433.9,222.8,432.66,225.39,430.92Z" transform="matrix(-1, 0, 0, 1, 380, 0)" /><path d="M225.41,430.94a5.66,5.66,0,0,1-1.5,1.27c-.89.62-2.14,1.35-3.55,2.2-.7.43-1.43.9-2.16,1.41a8.93,8.93,0,0,0-2,1.73,2.18,2.18,0,0,0-.3,2.19c.11.44.25.9.38,1.38.09.31.16.58.22.86s.16.09.26.12h.32a4.16,4.16,0,0,0,.63-.09,12.64,12.64,0,0,0,1.69-.59l3-1.26c5.38-2.3,11.29-4.43,17.26-6.45l9-3,4.42-1.45a26.31,26.31,0,0,0,4-1.6c2.12-1.07,4.05-2.55,4.7-4.21a4,4,0,0,0,.14-2.6,3.77,3.77,0,0,0-.22-.7l-.12-.36a2.24,2.24,0,0,0-.13-.27,2.35,2.35,0,0,0-.64-.78,1.16,1.16,0,0,0-.68-.23,6.22,6.22,0,0,0-1.4.19c-1.2.27-2.41.53-3.59.83-2.37.59-4.68,1.21-6.9,1.91a114.32,114.32,0,0,0-22.54,9.91,46.16,46.16,0,0,1,9.25-7.76,41.58,41.58,0,0,1,9.49-4.75q6-1.75,11.76-2.87c1-.18,1.84-.39,2.94-.53a5.61,5.61,0,0,1,1.77.06,4,4,0,0,1,1.71.79,5.39,5.39,0,0,1,1.85,2.76,7,7,0,0,1,.39,1.49,6.8,6.8,0,0,1,.11.77v.78a7.94,7.94,0,0,1-.22,1.54,7.42,7.42,0,0,1-.58,1.42,8.58,8.58,0,0,1-1.78,2.32,17.69,17.69,0,0,1-4.58,2.95,37.59,37.59,0,0,1-4.83,1.75l-4.66,1.48c-6.12,2-11.83,3.83-17.14,5.69q-4,1.38-7.69,2.75l-3.65,1.34c-.31.12-.64.22-1,.32a9.49,9.49,0,0,1-1.18.26,5.56,5.56,0,0,1-2.67-.25c-.13-.7-.26-1.38-.4-2-.11-.43-.2-.86-.3-1.28a4.93,4.93,0,0,1-.09-2.38,4.16,4.16,0,0,1,1.55-2.16,21.32,21.32,0,0,1,4-2.32l3.54-1.59C224.31,431.51,225.05,431.13,225.41,430.94Z" transform="matrix(-1, 0, 0, 1, 380, 0)" /><path class="cls-7" d="M133.71,363.88c-2.39-1-5.63-1.83-7.28,0a5.13,5.13,0,0,0-1,2.58,51.85,51.85,0,0,0-1.24,11.69,19.55,19.55,0,0,0,3.67,11.1c.87,1.14,2.16,2.27,3.67,2.09,1.67-.19,2.59-1.84,3.23-3.27l3.92-8.89a13.1,13.1,0,0,1,2.94-4.7c.83-.75,1.85-1.31,2.64-2.09a2.83,2.83,0,0,0,1-2.91,4,4,0,0,0-1.39-1.56c-4-3.19-8.82-6.6-14.05-5.75" transform="matrix(-1, 0, 0, 1, 380, 0)" /><path d="M129.77,362.18a4.5,4.5,0,0,1,2.39-.46,12.54,12.54,0,0,1,4.91,1.09,28.21,28.21,0,0,1,5,2.84c.76.52,1.47,1,2.11,1.49A6.19,6.19,0,0,1,146,368.8a3.06,3.06,0,0,1,.36,2.27,4.82,4.82,0,0,1-.91,1.89,20.86,20.86,0,0,1-2.56,2.32c-1.35,1.17-2.07,3-2.91,5.11s-1.71,4.14-2.55,6.2c-.22.51-.43,1-.64,1.53l-.32.76c-.12.28-.24.56-.39.85a8.64,8.64,0,0,1-1.1,1.74,5.33,5.33,0,0,1-2,1.52,4.5,4.5,0,0,1-2.35.32,5.14,5.14,0,0,1-2.08-.73A8.77,8.77,0,0,1,126,390.1a18.78,18.78,0,0,1-2.7-5.48,26.57,26.57,0,0,1-.7-11.19c.23-1.75.56-3.41.91-5,.19-.78.38-1.56.56-2.32a7.1,7.1,0,0,1,1-2.57,4.36,4.36,0,0,1,2.49-1.64,6.32,6.32,0,0,1,2.49,0,13,13,0,0,1,3.85,1.45,22.62,22.62,0,0,0-4,.06,4.4,4.4,0,0,0-1.82.61,1.82,1.82,0,0,0-.81,1.14,10.23,10.23,0,0,0-.19,1.75c0,.71-.11,1.39-.17,2a25.68,25.68,0,0,1-.44,3,28,28,0,0,0-.85,8.34,16.88,16.88,0,0,0,2.22,7.43,6.77,6.77,0,0,0,2.31,2.59,2,2,0,0,0,2.58-.38,9.46,9.46,0,0,0,1.67-3l1.41-3.3c.94-2.17,1.76-4.24,2.68-6.32a12.61,12.61,0,0,1,1.85-3,16.33,16.33,0,0,1,2.52-2.14,5,5,0,0,0,.9-.88,2.27,2.27,0,0,0,.44-.9.88.88,0,0,0-.1-.65,3.14,3.14,0,0,0-.71-.75c-1.46-1.17-2.91-2.31-4.33-3.29a24.91,24.91,0,0,0-5.08-2.82A11.82,11.82,0,0,0,129.77,362.18Z" transform="matrix(-1, 0, 0, 1, 380, 0)" /><path class="cls-6" d="M124.26,364.87c.32-1.62,2.58-2.4,4.28-1.89a7.33,7.33,0,0,1,3.81,3.36,9.31,9.31,0,0,1,1.51,3.68,11.44,11.44,0,0,1-.16,3.09l-2,14.13a4.3,4.3,0,0,1-1.45,3.19,3.45,3.45,0,0,1-3.72-.22,7.25,7.25,0,0,1-2.28-2.95,25.65,25.65,0,0,1,1-24.13" transform="matrix(-1, 0, 0, 1, 380, 0)" /><path d="M125.27,363.14c.15.41-1.08,2.71-1.82,5.6a22.55,22.55,0,0,0-.73,8.09,28.2,28.2,0,0,0,3,9.63,7.45,7.45,0,0,0,1.26,1.85,2.38,2.38,0,0,0,1.4.72,1.38,1.38,0,0,0,.62,0,.65.65,0,0,0,.3-.19,2.81,2.81,0,0,0,.44-1.37c.35-2.93.77-6,1.21-9,.23-1.47.47-2.92.69-4.35l.36-2.08a8.13,8.13,0,0,0,.13-1.7,7.28,7.28,0,0,0-1-3.09,8.31,8.31,0,0,0-1.91-2.56,3.24,3.24,0,0,0-2.43-.85,2.2,2.2,0,0,0-1.94,1.14,1.6,1.6,0,0,1,.2-1.37,3.34,3.34,0,0,1,1.43-1.25,4.33,4.33,0,0,1,2.19-.43,5.89,5.89,0,0,1,2.26.65,9.35,9.35,0,0,1,3.09,2.75,7.69,7.69,0,0,1,1.38,2.65,8.75,8.75,0,0,1,.28,2.35,11.77,11.77,0,0,1-.27,2.1l-.79,3.52c-.5,2.29-.93,4.51-1.32,6.67-.18,1.09-.36,2.15-.54,3.2a25.93,25.93,0,0,1-.6,3.21,4.15,4.15,0,0,1-1,1.62,3.34,3.34,0,0,1-1.7.91,4.59,4.59,0,0,1-3.41-.71,7.12,7.12,0,0,1-2.13-2.38,26.84,26.84,0,0,1-1.28-2.58,25.2,25.2,0,0,1-1.59-5.2,22.78,22.78,0,0,1,.16-9.79,17.37,17.37,0,0,1,1.94-4.77A21.88,21.88,0,0,1,125.27,363.14Z" transform="matrix(-1, 0, 0, 1, 380, 0)" /><path class="cls-7" d="M116.64,468.41c4,2.29,9.19,3,8.52-3.43-2.53-24.56-3.26-50.25,4.79-73.87-9,5-12.36,16.44-15.32,25.65a125.18,125.18,0,0,0-5.89,32c-.33,6.52.43,13.65,5.74,18.11A14.75,14.75,0,0,0,116.64,468.41Z" transform="matrix(-1, 0, 0, 1, 380, 0)" /><path d="M116.62,468.43a9.9,9.9,0,0,1-4.05-2.86,15.3,15.3,0,0,1-2.61-4,21.32,21.32,0,0,1-1.58-5.41,53.35,53.35,0,0,1-.11-11.84c.27-3.77.68-7.17,1-9.6a112.59,112.59,0,0,1,2.49-13.17c.55-2.22,1.2-4.47,1.87-6.67s1.36-4.45,2.14-6.68a44.24,44.24,0,0,1,6.58-12.83c.19-.24.36-.49.57-.72l.79-.88a15.32,15.32,0,0,1,1.14-1.14l1.16-.95,1.15-.94a11.52,11.52,0,0,1,1.12-.75l2.27-1.46,1.22-.77.61-.39.15-.1s0,.09,0,.12l-.08.32-.58,2.56-.57,2.57-.29,1.28a7.56,7.56,0,0,1-.21.75l-.25.81c-.16.48-.27.93-.4,1.4l-.27,1.05-.37,1.39c-.25.91-.45,1.85-.65,2.78l-.62,2.78-.51,2.8c-.68,3.73-1.16,7.46-1.55,11.16a211.59,211.59,0,0,0-.9,21.66c0,7,.37,13.6.74,19.76.09,1.55.19,3.06.28,4.55,0,.41,0,.81,0,1.23a8,8,0,0,1-.18,1.26,4.53,4.53,0,0,1-1.29,2.38,3.83,3.83,0,0,1-2.45,1,6.56,6.56,0,0,1-2.29-.25,13.58,13.58,0,0,1-3.73-1.72,15.49,15.49,0,0,0,3.75.91,6.2,6.2,0,0,0,2.06-.09,2.59,2.59,0,0,0,1.62-.94c.72-1,.63-2.45.33-3.89s-.59-3.15-.85-4.71a102.68,102.68,0,0,1-1.58-15.38,207.94,207.94,0,0,1,2.85-35.6c.28-1.38.54-2.74.81-4.09s.62-2.67.92-4,.68-2.62,1-3.9l.34-1.22.37-1.16.37-1.15.09-.29s0-.11,0-.12l-.13.08-.5.32a11.43,11.43,0,0,0-1.85,1.46,9.61,9.61,0,0,0-.81.86,15.56,15.56,0,0,0-1.15,1.4,17,17,0,0,0-1,1.47,16.85,16.85,0,0,0-1,1.52,63.65,63.65,0,0,0-5.33,12.91c-1.38,4.37-2.65,8.55-3.59,12.69a142.8,142.8,0,0,0-3.4,23.48c-.18,3.44-.2,8.24,1.37,12.08a14.57,14.57,0,0,0,3,4.68A14.4,14.4,0,0,0,116.62,468.43Z" transform="matrix(-1, 0, 0, 1, 380, 0)" /></svg>