<svg xmlns="http://www.w3.org/2000/svg" id="halloween" viewBox="0 0 380 600"><defs transform="matrix(-1, 0, 0, 1, 380, 0)"><style>.cls-1{fill:#ffffff;}.cls-2{fill:#94e044;}.cls-3{fill:#46d160;}.cls-4{fill:#fff;}.cls-5{fill:#6d482f;}</style></defs><g id="default" transform="matrix(-1, 0, 0, 1, 380, 0)"><path class="cls-1 color-body" d="M160.412,391.943c-7.582,9.513-14.229,22.312-22.211,41.293-8.856,21.061-18.834,37.366-29.709,32.709-13.624-5.834-9.478-36.627-4.5-51.1,6.055-17.583,19.428-51.04,47.782-59.992,10.883-3.436,14.227,11.569,14.227,11.569" style="fill:#ffffff;--backup-fill:#ffffff" /><path d="M165.947,366.439c-.44-.388-1.22-2.975-3.311-6.14a11.794,11.794,0,0,0-4.514-4.164,7.363,7.363,0,0,0-3.27-.648,9.385,9.385,0,0,0-1.766.244l-.889.259-.948.349a49.212,49.212,0,0,0-14.275,8.127,57.561,57.561,0,0,0-9.412,9.67c-7.36,9.662-13.088,21.508-17.59,33.918-.567,1.551-1.111,3.116-1.646,4.685s-1.071,3.182-1.519,4.674a90.7,90.7,0,0,0-2.2,9.4,85.471,85.471,0,0,0-1.432,18.767,43.512,43.512,0,0,0,1.008,7.616,18.355,18.355,0,0,0,2.6,6.285,7.5,7.5,0,0,0,4.289,3.11,5.092,5.092,0,0,0,2.314.024,8.1,8.1,0,0,0,2.521-1.071,21.852,21.852,0,0,0,5.02-4.608,57.042,57.042,0,0,0,4.348-6.074,136.894,136.894,0,0,0,7.2-13.3c1.09-2.257,2.1-4.48,3.139-6.746s2.078-4.493,3.133-6.676c2.11-4.365,4.264-8.554,6.487-12.514a107.445,107.445,0,0,1,14.292-20.4c-1.433,3.122-3.134,6.868-4.826,10.906s-3.376,8.381-4.98,12.608c-3.2,8.461-6.094,16.462-8.124,20.507-4.173,8.251-8.377,16.247-13.84,23.355a43.511,43.511,0,0,1-4.532,5.019,21.321,21.321,0,0,1-5.745,3.963,13.429,13.429,0,0,1-3.535,1.017,11.727,11.727,0,0,1-3.722-.137,13.036,13.036,0,0,1-6.187-3.366,16.834,16.834,0,0,1-3.674-5.522,28.7,28.7,0,0,1-1.772-5.985,56.257,56.257,0,0,1-.838-11.805,103.905,103.905,0,0,1,3.1-22.039c.441-1.746.922-3.471,1.482-5.171.553-1.673,1.107-3.311,1.686-4.94q1.719-4.882,3.638-9.529a131.2,131.2,0,0,1,8.694-17.45A84.1,84.1,0,0,1,127.418,368a65.533,65.533,0,0,1,6.521-5.92,55.826,55.826,0,0,1,7.131-4.7,42.653,42.653,0,0,1,8.363-3.512l1.184-.341c.39-.115.789-.228,1.25-.317a11.946,11.946,0,0,1,2.732-.274,9.474,9.474,0,0,1,5.1,1.661,12.084,12.084,0,0,1,3.247,3.459,18.746,18.746,0,0,1,1.755,3.551A22.679,22.679,0,0,1,165.947,366.439Z" /></g><g id="shirt_short_red" transform="matrix(-1, 0, 0, 1, 380, 0)"><path class="cls-2" d="M160.5,369.5s2.162-18.079-8.721-14.643C133.829,360.524,121.5,376.5,114.5,391.5c-3.061,6.56,9,24,27.959,28.931,6.186-13.742,11.758-20.715,17.953-28.488" /><path d="M160.46,391.981c.139.892-3.408,5.573-7.026,11.2-1.8,2.822-3.58,5.907-5.045,8.813-.728,1.456-1.39,2.858-1.957,4.147l-1.748,4.183q-.417,1.011-.836,2.033l-.217.521c-.016.132-.116.08-.2.061l-.256-.058-1.041-.238c-.7-.158-1.419-.327-2.142-.527l-1.1-.293c-.36-.1-.794-.211-.986-.275a41.615,41.615,0,0,1-5.866-2.2,45.274,45.274,0,0,1-10.831-7.021,38.431,38.431,0,0,1-8.5-10.314,23.224,23.224,0,0,1-1.472-3.252,15.6,15.6,0,0,1-.9-3.785,10.022,10.022,0,0,1,.562-4.7c.19-.509.257-.6.375-.869l.324-.7.645-1.388a89.059,89.059,0,0,1,5.195-9.29,82.106,82.106,0,0,1,6.339-8.435,69.28,69.28,0,0,1,7.408-7.252c.649-.553,1.343-1.053,2.009-1.575s1.34-1.029,2.05-1.485l2.085-1.391,2.153-1.243,1.069-.607,1.1-.535,2.185-1.045,2.229-.873a20.51,20.51,0,0,1,2.221-.775l2.218-.661c.329-.11.816-.21,1.256-.3a11.027,11.027,0,0,1,1.4-.192,7.9,7.9,0,0,1,5.83,1.766,9.22,9.22,0,0,1,2.741,4.521,18.2,18.2,0,0,1,.629,4.261,30.436,30.436,0,0,1-.73,7.433,72.047,72.047,0,0,0-2.284-7.083,16.149,16.149,0,0,0-1.752-3.34,2.719,2.719,0,0,0-3.9-1.278c-.635.248-1.826.875-2.783,1.3-.991.415-1.859.913-2.662,1.274-.4.185-.779.349-1.134.49-.347.159-.665.308-.962.423a46.08,46.08,0,0,0-13.022,7.713,61.5,61.5,0,0,0-9.96,10.745,74.924,74.924,0,0,0-7.119,11.95c-.056.118-.14.27-.171.36l-.1.267a4.3,4.3,0,0,0-.151.582c-.028.209-.042.429-.063.645l.017.686a10.64,10.64,0,0,0,.668,2.857,22.787,22.787,0,0,0,2.926,5.362,38.872,38.872,0,0,0,8.422,8.4,43.7,43.7,0,0,0,9.7,5.429c.8.341,1.711.646,2.44.909.406.119.8.241,1.188.334l.29.075c.06.037.073-.026.093-.073l.062-.141.244-.551.245-.534.535-1.1a80.625,80.625,0,0,1,5.115-9,59.119,59.119,0,0,1,7.118-8.74C157.254,394.877,159.661,392.7,160.46,391.981Z" /></g><path class="cls-3" d="M101.273,398.575c4.277-5.61,13.9-19.729,16.939-9.519,2.774,9.321,10.108,16.313,19.268,22.293a6.728,6.728,0,0,1,2.332,2.825c1.41,3.048-.228,9.828-4.156,9.908-1.766.037-3.373-.883-4.991-1.593-14.325-6.288-22.716-13.98-27.486-26.045" transform="matrix(-1, 0, 0, 1, 380, 0)" /><path d="M103.223,396.427c.656.234,2.388,4.3,5.409,8.3a36.652,36.652,0,0,0,10.038,9.312,73.772,73.772,0,0,0,7.594,3.975c1.343.594,2.691,1.2,4.085,1.747l2.14.874a16.33,16.33,0,0,0,1.891.7,2.779,2.779,0,0,0,1.269.127c.165-.02.285-.1.521-.337a5.326,5.326,0,0,0,1.168-2.639,5.9,5.9,0,0,0-.089-2.956,3.142,3.142,0,0,0-.272-.535,4.564,4.564,0,0,0-.4-.549,3.144,3.144,0,0,0-.426-.418,5.459,5.459,0,0,0-.585-.393,57.667,57.667,0,0,1-12.4-10.166,36.441,36.441,0,0,1-4.673-6.515,31.071,31.071,0,0,1-2.9-7.217l-.18-.626c-.073-.168-.134-.371-.2-.519a4.472,4.472,0,0,0-.235-.468.589.589,0,0,0-.256-.179c-.123-.026-.158-.048-.526.054a8.659,8.659,0,0,0-2.217,1.251,27.372,27.372,0,0,0-2.237,1.857c-2.894,2.677-5.384,5.553-7.766,7.994a37.231,37.231,0,0,1,4.989-11.1,14.667,14.667,0,0,1,4.971-4.826,9.246,9.246,0,0,1,.921-.4,8.815,8.815,0,0,1,1.17-.3,5.89,5.89,0,0,1,2.271.1,5.357,5.357,0,0,1,3.01,2.061,5.938,5.938,0,0,1,.679,1.128,7.388,7.388,0,0,1,.418,1.021,7.848,7.848,0,0,1,.286.965l.118.47.081.359.3,1.369q.2.673.4,1.342a26.792,26.792,0,0,0,2.3,5.077,36.412,36.412,0,0,0,7.023,8.42c1.325,1.224,2.729,2.329,4.131,3.392.713.517,1.413,1.04,2.136,1.523l1.1.753a6.975,6.975,0,0,1,1.171,1.041,8.137,8.137,0,0,1,1.575,2.559,8.406,8.406,0,0,1,.472,2.924,11.569,11.569,0,0,1-1.349,5.349,6.814,6.814,0,0,1-1.968,2.227,6.577,6.577,0,0,1-.7.4c-.255.1-.515.2-.775.286a6.085,6.085,0,0,1-1.579.147,14.615,14.615,0,0,1-4.856-1.513,85.721,85.721,0,0,1-8.114-3.832A42.225,42.225,0,0,1,109.4,409.781a29.194,29.194,0,0,1-4.35-7.47,37.711,37.711,0,0,1-1.27-3.651C103.506,397.613,103.311,396.821,103.223,396.427Z" transform="matrix(-1, 0, 0, 1, 380, 0)" /><path d="M133.11,414.328c.029-.05.165-.1.313.033a.613.613,0,0,1,.119.629.7.7,0,0,1-.31.389.894.894,0,0,1-.542.11,6.517,6.517,0,0,1-.732-.195c-1.421-.363-3.268-1.054-4.267-1.322a23.677,23.677,0,0,1-8.615-4.444,20.184,20.184,0,0,1-5.321-6.119,15.987,15.987,0,0,1-2.036-6.3,13.249,13.249,0,0,1,3.041,1.822,5.149,5.149,0,0,1,1.707,1.844,14.325,14.325,0,0,0,2.8,5.105,18.286,18.286,0,0,0,3.921,3.383c2.75,1.762,5.416,2.708,7.592,3.9a8.857,8.857,0,0,1,1.584,1.045c.509.359.482.545.631.562C133.216,414.722,133.277,414.392,133.11,414.328Z" transform="matrix(-1, 0, 0, 1, 380, 0)" /><g data-name="default" id="default-2" transform="matrix(-1, 0, 0, 1, 380, 0)"><path class="cls-4" d="M238.95,464.847c-.822-7.144-2.461-16.135-4.759-22.341-13.641-36.839,9.04-78.793-30.636-91.823-29.144-9.572-59.413,5.744-75.671,54.173-5.895,17.562-7.776,42.307-3.484,59.991" /><path d="M124.341,464.861c-.41-.5-1.42-3.49-2.2-8.059a99.615,99.615,0,0,1-1.25-17.25,134.814,134.814,0,0,1,1.693-19.911,131.447,131.447,0,0,1,11.94-37.3,86.107,86.107,0,0,1,13.594-19.867,58.629,58.629,0,0,1,20.165-14.4,50.6,50.6,0,0,1,24.3-3.676,57.2,57.2,0,0,1,10.347,1.976,52.19,52.19,0,0,1,9.832,3.9,35.611,35.611,0,0,1,8.75,6.428,31.624,31.624,0,0,1,6.249,8.889c3.08,6.5,4.087,13.306,4.518,19.666.422,6.4.282,12.523.227,18.43s-.077,11.588.243,17.051a91.3,91.3,0,0,0,2.165,15.6q.219.921.435,1.833.259.9.517,1.788.549,1.855,1.085,3.674a74.292,74.292,0,0,1,1.622,7.38,119.229,119.229,0,0,1,1.5,13.7c-1.269-3.743-2.722-8.31-4.474-13.09-.876-2.386-1.833-4.827-2.918-7.167-.548-1.11-1.134-2.421-1.7-3.691-.6-1.268-1.024-2.59-1.531-3.886a78.57,78.57,0,0,1-4.271-26.328c.289-10.761,1.225-20.984.12-30.553a37.97,37.97,0,0,0-3.806-13.331,27.291,27.291,0,0,0-8.9-9.8,43.01,43.01,0,0,0-12.117-5.435,49.839,49.839,0,0,0-12.838-1.911,44.984,44.984,0,0,0-23.579,6.427,60.728,60.728,0,0,0-17.071,15.672,84.588,84.588,0,0,0-6.165,9.285c-.952,1.563-1.759,3.2-2.62,4.778-.783,1.627-1.623,3.2-2.327,4.837l-1.093,2.415-1.006,2.432c-.692,1.6-1.277,3.237-1.894,4.841s-1.138,3.231-1.708,4.823c-.521,1.6-1.037,3.167-1.47,4.761a134.565,134.565,0,0,0-3.788,18.793c-.389,2.917-.748,6.38-1.077,10-.268,3.625-.5,7.416-.5,10.973A101.71,101.71,0,0,0,124.341,464.861Z" /><path class="cls-1 color-body" d="M234.191,442.506c-13.642-36.839,9.04-78.793-30.636-91.823-29.144-9.572-59.413,5.744-75.671,54.173-5.895,17.562-7.776,42.306-3.484,59.991h0s6.034,10.253,50.162,13c42.248,2.629,64.388-13,64.388-13h0C238.128,457.7,236.489,448.712,234.191,442.506Z" style="fill:#ffffff;--backup-fill:#ffffff" /></g><path class="cls-2" d="M235.4,439.858c-11.024-30,1.666-63.37-13.994-82,2.1,2.506-8.443,10.942-9.991,12.328-4.752,4.255-19.53,12.177-24.458,15.212-9.571,5.893-31.082,1.042-32.212-10.141-.009-.087-.857-16.152,2.368-18.831-11.167,9.277-20.928,24.2-28.02,45.49-5.9,17.7-7.776,42.638-3.484,60.461l1.274,21.144,7.529-9.083,3.639,21.118,10.482-17.716,6.829,23.932c9.747-13.837,16.451-21.593,16.451-21.593,2.021,3.37,10.206,25.729,10.206,25.729,3.262-1.8,15.971-19.675,20.413-22.326,0,0,9.543,14.941,11.629,21.093,4.694-6.435,7.151-13.973,10.91-19.713l18.088,21.187-2.9-43.772C239.336,455.175,237.7,446.114,235.4,439.858Z" transform="matrix(-1, 0, 0, 1, 380, 0)" /><path d="M235.456,439.837a30.986,30.986,0,0,1,2.466,6.668,113.633,113.633,0,0,1,3,14.965c.591,6.141,1.077,13.173,1.673,20.749.651,8.835,1.345,18.274,2.048,27.831l-19-21.943-.326-.371-.081-.092c-.025,0-.045.063-.067.092l-.133.216c-.179.286-.345.577-.507.866-.326.578-.623,1.159-.909,1.73q-1.327,2.752-2.606,5.4c-.444.922-.894,1.837-1.356,2.737-.1.195-.3.585-.455.867l-.5.918c-.327.62-.681,1.2-1.027,1.78-.694,1.169-1.412,2.228-2.131,3.311l-1.1,1.613-.554.8a1.935,1.935,0,0,1-.431.095c-.35-.922-.764-1.9-1.152-2.856s-.794-1.87-1.182-2.786q-.632-1.263-1.245-2.489-.53-.968-1.042-1.9c-1.169-2.063-2.313-3.964-3.381-5.694l-2.275-3.618-1.155-1.7-.06-.085c-.026,0-.058.041-.087.06l-.177.14a2.7,2.7,0,0,0-.334.3q-.324.3-.609.626l-.664.751c-.412.456-.819.929-1.225,1.412-1.626,1.914-3.231,3.91-4.846,5.936s-3.241,4.077-4.933,6.136l-.73.873c-.346.411-.7.828-1.059,1.218l-1.088,1.167a10.465,10.465,0,0,1-1.1,1.1c-.74.615-1.488,1.257-2.225,1.806-.362.283-.741.571-1.164.87a5.293,5.293,0,0,1-.6.406c-.148.041-.319.1-.492.159q-1.866-4.908-3.75-9.868-1.239-3.138-2.49-6.305c-.842-2.1-1.692-4.213-2.569-6.3-.171-.389-.266-.584-.4-.868l-.191-.381c-.034-.062-.063-.125-.1-.183l-.052-.088c-.018-.029-.033-.077-.06-.022l-5.147,6.8-1.984,2.7-2.717,3.765L154.091,509.2l-5.371-18.44-.878-2.992-.155-.462-.272-.794-.357.67-.162.306-.076.145-.813,1.39-9.834,16.742-3.534-20.156-.25-1.407-.1-.557-.014-.058-.052-.219-.094-.382-.29.4-.063.087-.03.041-.015.021-.466.566L123.7,493.24c-.49-7.778-.964-15.305-1.429-22.679q-.209-3.216-.414-6.372l-.086-1.3,0-.007.011.06c.009.037-.01-.048-.014-.066l-.089-.406-.178-.811c-.238-1.081-.484-2.159-.648-3.239a115.2,115.2,0,0,1-1.221-27.516,129.391,129.391,0,0,1,4.588-26.85l1.017-3.271,1.1-3.175c.354-1.059.768-2.1,1.158-3.147s.79-2.09,1.224-3.121a124.517,124.517,0,0,1,5.64-12.137,102.466,102.466,0,0,1,7.018-11.367c.627-.919,1.323-1.793,2-2.68l.506-.663.139-.177.228-.267.455-.535,1.82-2.137.908-1.066,1.025-1.05,2.053-2.1c.692-.74,1.351-1.309,2.014-1.9l1.985-1.77,1.6,1.833,1.006,1.091c-.273-.28-.193-.137-.046.089.319.472,1,1.379,2.421,3.2a36.963,36.963,0,0,0-.883,6.364c-.059.971-.1,1.945-.119,2.886l-.023,1.412q-.012,1.415.015,2.828l.037,1.4.012.308c-.005-.015.008.045.018.1l.059.415c.4,2.177,2.574,4.427,5.448,5.916a26.482,26.482,0,0,0,9.546,2.816,22.359,22.359,0,0,0,9.534-.826,11.194,11.194,0,0,0,1.92-.869l2.445-1.417,4.816-2.707c3.174-1.783,6.309-3.546,9.326-5.36,1.515-.9,2.984-1.826,4.409-2.759.694-.473,1.4-.943,2.031-1.423.341-.239.62-.476.912-.711l1.02-.847c1.354-1.119,2.644-2.2,3.885-3.323.618-.558,1.221-1.121,1.8-1.689l.84-.853.277-.3.374-.424.36-.445.18-.221.089-.111.023-.028c-.015-.044.015-.018.162.192l.656.909a32.485,32.485,0,0,0,2.776-2.645c.3-.352.317-.528-.024-.448l1.229-.458c.21-.084.355-.112.611-.235l.883-.463,1.356,1.841,1.215,2.052a19.145,19.145,0,0,1,1.142,2.083l.7,1.548a42.147,42.147,0,0,1,1.873,5.724,65.323,65.323,0,0,1,1.709,11.331c.5,7.4.247,14.441.194,21.194a181.1,181.1,0,0,0,.6,19.43c.307,3.1.737,6.118,1.314,9.055a79.916,79.916,0,0,0,2.243,8.507,65.448,65.448,0,0,1-3.1-7.7,83.249,83.249,0,0,1-2.367-9.019,155.809,155.809,0,0,1-2.443-20.552c-.484-7.159-.748-14.512-1.749-21.5a59.2,59.2,0,0,0-2.244-10.012,36.584,36.584,0,0,0-1.844-4.466l-.256-.5-.072-.108c-.042-.056-.089-.1-.13-.151a1.6,1.6,0,0,0-.233-.224,1,1,0,0,0-.234-.147.388.388,0,0,1,.014.267,2.261,2.261,0,0,1-.136.366l-.02.044c-.022.031.026-.011-.062.09l-.85.939c-.567.608-1.134,1.185-1.7,1.74-1.129,1.109-2.253,2.14-3.35,3.115l-1.562,1.38c-.49.425-1.222,1.08-1.776,1.486-1.191.939-2.318,1.706-3.42,2.452-4.392,2.917-8.22,5.076-11.258,6.744l-6.653,3.613c-1.146.612-1.934,1.129-3.53,1.929a20.252,20.252,0,0,1-4.307,1.441,25.692,25.692,0,0,1-4.255.586,30.742,30.742,0,0,1-4.163-.016,36.294,36.294,0,0,1-8.028-1.451,29.758,29.758,0,0,1-7.492-3.405,17.11,17.11,0,0,1-6.023-6.357,12.322,12.322,0,0,1-1.329-4.566l-.021-.573-.01-.469-.013-.93v-1.852l.031-1.847.028-.924.023-.326c.032-.389.073-.8.126-1.219a12.76,12.76,0,0,1,.4-2.035,2.738,2.738,0,0,1,.59-1.127c-.526.39-1.07.834-1.579,1.295a27.681,27.681,0,0,0-2.692,2.888c-1.751,2.2-3.421,4.466-4.949,6.82a107.393,107.393,0,0,0-8,14.708,138.684,138.684,0,0,0-5.9,15.439,111.588,111.588,0,0,0-3.544,15.82,122.535,122.535,0,0,0-.869,31.527c.157,1.278.286,2.559.516,3.817.2,1.264.407,2.523.693,3.759l.2.931.1.465.071.333a1.439,1.439,0,0,1,.048.332l.119,2.01.228,3.859q.343,5.733.681,11.355l-.514.618,2.549-3.08,5.149-6.224c1.2,6.84,2.377,13.589,3.522,20.135l10.186-17.37q2.31,7.983,4.58,15.833.738,2.528,1.468,5.031c.327,1.082.637,2.208.961,3.195l2.222-3.159,1.59-2.187,2.023-2.73q2.035-2.712,4.1-5.357l1.469-1.85,1.543-1.9,3.1-3.7c.115,0,.209.229.307.408l.295.548.56,1.078c.369.707.73,1.442,1.091,2.178.371.714.706,1.506,1.043,2.293l.508,1.176.47,1.138c.885,2.144,1.729,4.279,2.562,6.4l3.781,9.821.083.219c.037.041.122-.071.18-.1a2.506,2.506,0,0,0,.364-.31c.237-.213.447-.45.663-.679l.621-.7.86-1.015q2.5-3.031,4.959-6.027c1.646-2.013,3.3-4.015,5.019-5.98.426-.492.86-.981,1.311-1.465l.4-.437q.245-.27.5-.534c.343-.351.7-.665,1.05-1l1.053-.987L200.9,482c.355-.278.721-.555,1.109-.828l.572-.411c.094-.064.193-.147.283-.195l.245-.046q1.221,1.926,2.434,3.844l2.025,3.286q1.533,2.522,3,5.061L212,495.258l.7,1.286.448.838a22.74,22.74,0,0,1,1.068,2.3l.1.261c.047-.023.105-.136.157-.2.1-.152.216-.3.315-.456.206-.306.4-.619.592-.935l.547-.961.346-.648.559-1.076,2.181-4.385,1.13-2.244c.577-1.108,1.17-2.229,1.8-3.262.621-1.052,1.249-2.054,1.892-3.077l.486-.767.243-.383.061-.1c.021-.023.049.041.073.057l.15.166,1.2,1.326c.795.877,1.587,1.748,2.384,2.713l2.2,2.606,6.1,7.273,4.029,4.91c-.044-1.581-.09-3.24-.137-4.941q-.02-.729-.04-1.466-.054-1.26-.107-2.531c-.069-1.694-.139-3.4-.209-5.108-.253-6.837-.508-13.712-.742-20.05-.07-1.579-.073-3.154-.193-4.633s-.275-2.946-.44-4.342c-.322-2.8-.711-5.393-1.113-7.7A75.56,75.56,0,0,0,235.456,439.837Z" transform="matrix(-1, 0, 0, 1, 380, 0)" /><path class="cls-5" d="M127.37,454.881c-3.383-.339-9.836-2.2-8.762-7.63,5.616-29.743,8.331-65.648,31.3-86.952,3.545,10.349-.317,2.175,4.48,15.348C151.377,388.837,144.906,460.931,127.37,454.881Z" transform="matrix(-1, 0, 0, 1, 380, 0)" /><path d="M127.385,454.838c.244-.067.9.086,1.874.032a6.216,6.216,0,0,0,3.48-1.351c2.512-1.882,4.685-5.743,6.4-10.031,3.449-8.65,5.558-19.168,6.516-25,1.655-10.343,3.056-21.484,4.532-32.775.38-2.828.751-5.651,1.236-8.536l.195-1.092.025-.138c.011-.054,0,0,0-.027l0-.033c0-.022.011-.044,0-.064l-.029-.059a.316.316,0,0,1-.024-.056l-.094-.252-.378-1.007c-.5-1.355-.988-2.693-1.443-4.125a19.062,19.062,0,0,1-.632-2.385c-.047-.235-.076-.479-.1-.723l-.051-.516a5.36,5.36,0,0,0-.131-.712,1.1,1.1,0,0,0-.129-.287l-.026-.042a1.29,1.29,0,0,0-.114.125l-.23.266-.21.246-.845,1.061a81.5,81.5,0,0,0-13.231,23.6,193.219,193.219,0,0,0-7.177,25.373c-1.847,8.319-3.362,16.35-4.963,23.785-.387,1.857-.809,3.683-1.214,5.465q-.153.669-.305,1.329l-.15.656-.088.494a3.274,3.274,0,0,0,.169,1.813,5.86,5.86,0,0,0,2.942,2.781,15.8,15.8,0,0,0,4.261,1.382,13.466,13.466,0,0,1-4.558-.214,7.27,7.27,0,0,1-4.712-3,6.108,6.108,0,0,1-.669-1.546,7.067,7.067,0,0,1-.166-1.7c0-.617.045-1.04.072-1.534l.095-1.448c.146-1.937.293-3.889.438-5.811.624-7.7,1.494-14.965,2.448-18.714,3.7-15.051,7.733-29.3,14.294-41.517.817-1.523,1.737-2.978,2.585-4.452l.647-1.1.726-1.044q.721-1.043,1.439-2.076c.493-.679.919-1.4,1.459-2.036l1.581-1.922,1.566-1.907a12.526,12.526,0,0,1,1.01-1.072l1.124-1.13,2.231-2.246,1.107-1.118.138-.14.07-.069.034-.034.016.048.129.383.257.764q.505,1.525,1.007,3.039l.466,1.531c.134.491.3,1.1.369,1.467a9.629,9.629,0,0,1,.168,1.271,6.163,6.163,0,0,0,.158.982c.152.671.385,1.392.609,2.1q.71,2.13,1.492,4.23l.48,1.308c.155.243.013.5-.021.759l-.148.725c-.139.709-.259,1.432-.379,2.149q-.33,2.172-.654,4.308-.6,4.3-1.177,8.461c-.766,5.555-1.537,10.929-2.387,16.115-1.71,10.366-3.661,20.021-6.586,28.8-1.373,4.152-3.643,9.822-6.964,14.1a11.888,11.888,0,0,1-5.679,4.406,6.263,6.263,0,0,1-2.614.174A7.906,7.906,0,0,1,127.385,454.838Z" transform="matrix(-1, 0, 0, 1, 380, 0)" /><path class="cls-5" d="M228.253,376.439q-.232-1.24-.516-2.445c-1.594-1.667-2.233-3.068-1.611-4.084,1.067-1.741-34.383,8.814-39.85,12.076-19.519,11.65-14.705,48.46-8.625,70.363l1.887,6.8c1.67,6.015,10.464,10.655,30.568,3.43L237.122,449.2a66.716,66.716,0,0,0-2.241-7.671c-5.53-14.932-5-30.948-5.221-46.61-.049-3.485-.131-6.974-.4-10.45-.172-2.22.219-6.711-.878-8.661-3.051-5.429-12.9-2.288-16.221,1.011-4.515,4.482-5.794,11.373-5.268,17.714a21.277,21.277,0,0,0,1.688,7.177c3.966,8.609,15.03,11.483,20.681,19.092a18.779,18.779,0,0,1,3.573,12.9" transform="matrix(-1, 0, 0, 1, 380, 0)" /><path d="M232.788,433.7c-.1-.37-.063-1.5-.283-3.194a19.965,19.965,0,0,0-1.951-6.4,21.133,21.133,0,0,0-6.006-7.01c-2.7-2.189-6.012-4.115-9.274-6.5a31.713,31.713,0,0,1-4.68-4.1,17.635,17.635,0,0,1-3.431-5.476,23.708,23.708,0,0,1-1.357-6.211,32.6,32.6,0,0,1-.023-6.144,22.2,22.2,0,0,1,3.764-10.814q.417-.538.825-1.062c.3-.329.582-.656.887-.973a12.688,12.688,0,0,1,2.045-1.607,19.475,19.475,0,0,1,4.009-1.943,17.691,17.691,0,0,1,3.541-.866,11.69,11.69,0,0,1,3.86.047,9.189,9.189,0,0,1,2.006.606,7.436,7.436,0,0,1,1.845,1.239,4.093,4.093,0,0,1,.771.824,10.728,10.728,0,0,1,.654.943,7.377,7.377,0,0,1,.722,2.136,23.832,23.832,0,0,1,.364,3.721c.048,1.173.042,2.373.129,3.354q.2,3.507.4,7.052c.529,9.468.306,18.972,1.251,28.347a89.838,89.838,0,0,0,2.3,13.8l.435,1.679.5,1.654c.312,1.11.722,2.183,1.1,3.266l.622,1.73q.31.893.588,1.785l.531,1.783.276,1,.419,1.646.4,1.646.2.826c0,.062.067.153.016.191l-.187.1-.375.192-3.023,1.529-3.408,1.714-6.317,3.179-12.447,6.261-2.64,1.327-.391.2a3.414,3.414,0,0,1-.6.239l-.723.246-1.445.493c-.956.343-1.934.64-2.923.912s-1.96.585-2.975.8a41.209,41.209,0,0,1-12.553,1.293,20.03,20.03,0,0,1-6.644-1.556,12.5,12.5,0,0,1-5.73-4.856,10.968,10.968,0,0,1-.869-1.788l-.329-.94-.2-.711-.77-2.787q-.764-2.806-1.522-5.6a150.488,150.488,0,0,1-4.08-22.7,93.8,93.8,0,0,1,.238-22.464,50.463,50.463,0,0,1,2.752-10.761,31.477,31.477,0,0,1,5.593-9.548l.926-1.032c.318-.334.669-.639,1-.958a21.531,21.531,0,0,1,2.114-1.765c.711-.577,1.521-1.011,2.273-1.512a18.272,18.272,0,0,1,2.5-1.191c3.171-1.269,6.237-2.245,9.278-3.2,6.071-1.882,11.94-3.507,17.589-4.924q2.118-.528,4.2-1.006l2.076-.458,2.131-.427a14.592,14.592,0,0,1,2.747-.341,3.37,3.37,0,0,1,1.155.2c.08.025.215.113.193.18a1.648,1.648,0,0,1-.047.174,1.223,1.223,0,0,0,.032.438,10.206,10.206,0,0,1,.286,1.307,1.234,1.234,0,0,0,.225.992,7.173,7.173,0,0,0,.482.72c.174.235.489.6.761.9.109.587.2,1.1.294,1.58.07.41.135.787.2,1.163-.265-.763-.5-1.412-.849-2.561-.276-.241-.549-.485-.772-.7a8.175,8.175,0,0,1-.617-.644,2.75,2.75,0,0,1-.507-.764,4.565,4.565,0,0,1-.331-.929,1.242,1.242,0,0,1,.143-.844c-.034-.164-.3-.1-.455-.1-.179.025-.355.06-.528.1-.692.159-1.341.359-1.952.557-2.576.833-5.387,1.853-8.214,2.887-5.677,2.09-11.669,4.352-17.392,6.619-2.847,1.138-5.672,2.276-8.178,3.46a17.892,17.892,0,0,0-1.66.876L186.3,385.3c-.481.375-.92.789-1.373,1.165-.436.4-.823.837-1.229,1.236a31.19,31.19,0,0,0-5.736,9.827,55.766,55.766,0,0,0-3.3,17.929,111.415,111.415,0,0,0,.928,18.213,148.325,148.325,0,0,0,3.361,17.5l1.112,4.272.559,2.126.279,1.059c.1.334.2.577.29.873a8.459,8.459,0,0,0,5.517,4.627,22.577,22.577,0,0,0,7.965.772,49.286,49.286,0,0,0,8.066-1.312c1.314-.372,2.634-.7,3.927-1.115l1.932-.638.952-.315c.169-.05.51-.241.815-.383l7.3-3.595,14.24-7.057,3.112-1.551.527-.264.131-.065c.053-.018.091-.043.058-.1l-.07-.287-.3-1.156c-.329-1.219-.685-2.423-1.08-3.6q-.631-1.8-1.258-3.582c-3.3-9.771-4.177-19.747-4.542-29.21-.182-4.747-.222-9.4-.309-13.957-.013-2.286-.177-4.51-.259-6.737q-.151-3.385-.3-6.715c-.023-1.138-.018-2.214-.067-3.257a12.962,12.962,0,0,0-.374-2.843,3.026,3.026,0,0,0-.187-.477,4.108,4.108,0,0,0-.308-.445,3.69,3.69,0,0,0-.773-.8,5.627,5.627,0,0,0-2.24-.838,12.7,12.7,0,0,0-5.479.695,13.633,13.633,0,0,0-4.774,2.635,15.14,15.14,0,0,0-3.118,4.489,21.1,21.1,0,0,0-1.574,5.327,29.075,29.075,0,0,0-.321,5.574,26.34,26.34,0,0,0,.722,5.419,14.8,14.8,0,0,0,2.244,4.853,23.975,23.975,0,0,0,4.238,4.482c3.33,2.819,7.385,5.327,10.67,8.407a22.666,22.666,0,0,1,4.1,4.985,18.876,18.876,0,0,1,2.085,5.177A18.419,18.419,0,0,1,232.788,433.7Z" transform="matrix(-1, 0, 0, 1, 380, 0)" /><g data-name="default" id="default-3" transform="matrix(-1, 0, 0, 1, 380, 0)"><path class="cls-1 color-body" d="M259.039,440.066c-1.139-18.561-3.924-46.029-22.5-62.515-15.9-14.111-22.106-3.869-24.321-.71s-5.633,16.01-1.424,26.085,7.753,25.3,10.376,45.725c2.91,22.661,8.17,41.038,19.9,39.455C255.749,486.122,259.977,455.341,259.039,440.066Z" style="fill:#ffffff;--backup-fill:#ffffff" /><path class="cls-1 color-body" d="M210.791,402.926c4.766,11.192,7.753,25.3,10.376,45.725,2.91,22.661,8.17,41.038,19.894,39.455,14.687-1.984,18.916-32.765,17.978-48.04-1.139-18.561-3.924-46.029-22.5-62.515-15.9-14.111-24.321-.71-24.321-.71" style="fill:#ffffff;--backup-fill:#ffffff" /><path d="M212.163,376.809a4.751,4.751,0,0,1,1.129-2.015,12.819,12.819,0,0,1,10.682-4.683,19.8,19.8,0,0,1,7.878,2.5,31.055,31.055,0,0,1,3.614,2.394l1.727,1.341c.569.456,1.068.978,1.606,1.465a36.32,36.32,0,0,1,3.058,3.045l1.414,1.585.7.784.627.825a69.022,69.022,0,0,1,7.46,11.874c5.769,11.243,8.546,24.7,9.841,38,.173,1.668.321,3.334.456,5s.25,3.463.275,5.164a98.609,98.609,0,0,1-.362,10.251,85.588,85.588,0,0,1-3.941,19.875,43.312,43.312,0,0,1-3.783,8.28,26.328,26.328,0,0,1-2.873,3.895,18.251,18.251,0,0,1-3.919,3.376,14.721,14.721,0,0,1-5.079,2.1,13.243,13.243,0,0,1-10.892-2.289,17.757,17.757,0,0,1-3.651-3.626,32.965,32.965,0,0,1-4.335-7.95,64.54,64.54,0,0,1-2.53-7.962,130.476,130.476,0,0,1-2.827-15.476c-.642-5.077-1.041-9.863-1.6-14.526-.534-4.66-1.115-9.159-1.78-13.464a139.334,139.334,0,0,0-5.314-23.2,54.861,54.861,0,0,1,5.944,10.1,98.283,98.283,0,0,1,4.82,12.781,109.657,109.657,0,0,1,4.5,21.66c.275,4.42.663,8.74,1.259,12.952a83.864,83.864,0,0,0,2.535,12.18,40.966,40.966,0,0,0,2.069,5.552,19.448,19.448,0,0,0,2.946,4.7A9.647,9.647,0,0,0,235.709,485a6.947,6.947,0,0,0,2.153,1.041,8.1,8.1,0,0,0,4.8-.173c3.185-1.026,5.715-3.861,7.544-6.956a43.264,43.264,0,0,0,4.168-10.067,88.117,88.117,0,0,0,3.1-20.923q.079-2.565.006-5.078c-.038-1.666-.188-3.316-.318-5-.264-3.34-.588-6.609-1-9.806a128.055,128.055,0,0,0-3.57-18.237,79.522,79.522,0,0,0-6.245-15.941,58.107,58.107,0,0,0-9.166-12.837l-1.325-1.349c-.23-.233-.454-.485-.7-.714l-.767-.667-1.581-1.4c-.542-.471-1.148-.848-1.731-1.294a17.28,17.28,0,0,0-7.869-3.387,11.891,11.891,0,0,0-7.352,1.539A14.682,14.682,0,0,0,212.163,376.809Z" /></g><g data-name="shirt_short_red" id="shirt_short_red-2" transform="matrix(-1, 0, 0, 1, 380, 0)"><path class="cls-2" d="M248.5,389.31c-3.9-6.5-10.094-15.866-17.5-17.5s-15.842-.675-18.785,4.841c-2.2,3.132-5.57,15.789-1.526,25.823,0,0,8.412,23.935,9.116,24.433.661.469,10.7.4,21.592-2.97,5.664-1.754,12.1-6.627,14.68-9.548C259.431,410.585,251.5,394.31,248.5,389.31Z" /></g><path class="cls-2" d="M210.662,403.124c2.606,7.266,8.439,23.475,9.143,23.974.662.468,10.695.4,21.592-2.971,5.664-1.754,12.1-6.627,14.681-9.548,3.356-3.8-4.578-20.079-7.578-25.079-3.9-6.5-10.094-15.866-17.5-17.5s-15.842-.675-18.785,4.841" transform="matrix(-1, 0, 0, 1, 380, 0)" /><path d="M212.161,376.813a2.448,2.448,0,0,1,.349-1.309,9.8,9.8,0,0,1,.693-1.063,8.653,8.653,0,0,1,1.123-1.15,15.03,15.03,0,0,1,7.972-3.133,28.353,28.353,0,0,1,4.944-.142c.828.044,1.65.131,2.461.233a19.97,19.97,0,0,1,2.428.453,16.057,16.057,0,0,1,2.337.784,22.448,22.448,0,0,1,2,1.031l.9.529.8.545c.528.341.981.692,1.4,1a42.109,42.109,0,0,1,7.823,8c1.15,1.494,2.245,3.039,3.295,4.6,1.087,1.59,2.087,3.3,3.007,4.969a82.183,82.183,0,0,1,4.9,10.517,38.4,38.4,0,0,1,1.729,5.827,16.883,16.883,0,0,1,.37,3.44,9.987,9.987,0,0,1-.255,2.254,6.618,6.618,0,0,1-1.06,2.372c-.141.184-.253.389-.4.565l-.66.73-.528.543c-.353.355-.7.69-1.061,1.018-.713.648-1.431,1.266-2.168,1.846a45.683,45.683,0,0,1-4.587,3.211,35.707,35.707,0,0,1-5.063,2.595c-.461.175-.9.367-1.378.521s-.971.331-1.376.436c-.852.238-1.7.492-2.551.69a69.3,69.3,0,0,1-10.113,1.751c-1.667.164-3.316.271-4.972.294-.41.013-.832,0-1.245,0l-1.591-.037c-.353-.015-.7-.057-1.043-.083a3.624,3.624,0,0,1-1-.164,9.106,9.106,0,0,1-1.771-.684l-.944-1.214c-.265-.458-.484-.968-.724-1.443a7.7,7.7,0,0,1-.313-.748l-.217-.592-.3-.877c-.388-1.158-.746-2.289-1.087-3.4q-1.023-3.343-1.87-6.47c-1.138-4.167-2.077-8.04-2.829-11.56a66.591,66.591,0,0,1,8.229,11.3c1.273,2.114,2.432,4.21,3.379,6.065q.348.695.669,1.339c.184.382.361.746.528,1.092.035,0,.022-.02,0,.031l-.02.052a.236.236,0,0,0,0,.153.34.34,0,0,0,.038.073,1.346,1.346,0,0,0,.234.034l.3.029c.8.07,1.617.116,2.438.139,1.641.049,3.29.007,4.918-.1a58.217,58.217,0,0,0,9.5-1.379c.789-.175,1.487-.351,2.177-.571s1.39-.488,2.073-.781a33.051,33.051,0,0,0,3.968-2.047,38.808,38.808,0,0,0,3.643-2.482c.572-.446,1.131-.9,1.661-1.368.261-.237.53-.469.773-.712l.369-.361.294-.309a2.02,2.02,0,0,0,.517-1.11,6.651,6.651,0,0,0,.043-1.656,19.293,19.293,0,0,0-.7-3.641,52.559,52.559,0,0,0-2.61-7.058c-1.008-2.264-2.1-4.445-3.24-6.527-.57-1.037-1.154-2.059-1.752-3.015-.613-.972-1.252-1.953-1.882-2.892A54.308,54.308,0,0,0,237.063,378a19.115,19.115,0,0,0-4.5-3.145,12.311,12.311,0,0,0-2.37-.836c-.9-.214-1.794-.4-2.686-.535a28.1,28.1,0,0,0-9.373-.109,10.86,10.86,0,0,0-3.971,1.607,4.31,4.31,0,0,0-.7.526c-.2.18-.413.336-.572.5Z" transform="matrix(-1, 0, 0, 1, 380, 0)" /><path class="cls-3" d="M244.509,411.446c-8.286,2.511-18.05,2.538-26.546,2.636-9.251.106-6.441,8.309-3.59,15.268a2.1,2.1,0,0,0,2.291,1.68,7.757,7.757,0,0,1,3.605.691,26.091,26.091,0,0,0-2.139,5.131c-.114.442-.172,1,.2,1.272.271.2.638.057.974.069a70.025,70.025,0,0,0,27.747-4.749c5.423-2.148,13.205-5.712,15.23-11.563,1.224-3.537,2.785-10.074,2.021-13.737-.695-3.329-2.965-7.1-6.407-8.041a10.722,10.722,0,0,1-2.416,3.89C252.088,407.073,248.891,410.118,244.509,411.446Z" transform="matrix(-1, 0, 0, 1, 380, 0)" /><path d="M244.5,411.4c.267-.4,2.373-1.2,4.86-3.148a51.485,51.485,0,0,0,4.019-3.551,24.066,24.066,0,0,0,2.03-2.054,7.227,7.227,0,0,0,.407-.6,10.161,10.161,0,0,0,.5-.933c.305-.653.594-1.34.873-2.023.156-.058.246-.2.42-.2l.631.2a11.628,11.628,0,0,1,1.216.467,7.976,7.976,0,0,1,2.249,1.477c.167.154.355.306.5.469l.393.419c.234.286.481.563.685.86a13.556,13.556,0,0,1,1.114,1.8,14.269,14.269,0,0,1,1.32,3.654,17.746,17.746,0,0,1,.291,3.217,34.656,34.656,0,0,1-.557,6.025c-.173,1-.383,2-.624,3a21.376,21.376,0,0,1-.957,3.143,15.769,15.769,0,0,1-4.184,5.58,30.6,30.6,0,0,1-5.439,3.768,69.509,69.509,0,0,1-23.908,7.705c-1.625.209-3.254.385-4.885.48-.815.062-1.632.076-2.446.114l-1.473.017c-.39.008-.775,0-1.161-.009s-.713-.081-1.072-.119l-2.122-.267a2.517,2.517,0,0,1-.259-.038l-.167-.1c-.1-.068-.2-.122-.286-.189a3.641,3.641,0,0,1-.565-.533,4.008,4.008,0,0,1-.846-3.4,14.222,14.222,0,0,1,.6-2.106c.13-.355.266-.709.414-1.062l.417-.952c.351-.764.714-1.476,1.062-2.158l1.176,4.015a2.593,2.593,0,0,0-1.147-.225l-.611-.041-.48-.033c-.213-.015-.426-.03-.635-.058a5.084,5.084,0,0,1-2.306-.836,5.536,5.536,0,0,1-1.942-2.691l-.361-.926-.316-.836c-.418-1.119-.815-2.263-1.159-3.451a23.486,23.486,0,0,1-.808-3.746,11.479,11.479,0,0,1,.186-4.371,8.221,8.221,0,0,1,.408-1.2c.2-.4.42-.8.649-1.177.28-.357.591-.7.9-1.026a5.9,5.9,0,0,1,1.04-.794l.545-.347.543-.226c.362-.143.733-.294,1.091-.406a15.211,15.211,0,0,1,2.037-.34c.617-.024,1.328-.071,1.852-.055l1.572.043,3.078.086c8.081.231,15.337.146,21.4-1.093-3.354,2.406-9.208,4.388-14.806,5.367a78.008,78.008,0,0,1-7.885,1c-1.179.089-2.267.144-3.229.166l-.351.007-.26.022-.492.025-.455,0c-.12.022-.235.037-.346.048a2.935,2.935,0,0,0-.743.1c-.1.027-.207.049-.317.068s-.141.075-.224.1c-.34.095-.448.29-.7.558a6.275,6.275,0,0,0-.289,3.424,25.994,25.994,0,0,0,.994,4.32c.227.727.459,1.45.714,2.175l.094.271c.034.1.064.184.068.207l.066.226a.9.9,0,0,0,.248.41c.365.234.476.2,1.6.317a7.127,7.127,0,0,1,3.124.936l1.28.815-.675,1.249-.712,1.314-.535,1.047a7.013,7.013,0,0,0-.583,1.538.577.577,0,0,0,.064.405.36.36,0,0,0,.355.134,7.09,7.09,0,0,1,.806.028c.273.018.551.031.832.035l.629.009c.238,0,.475.005.712,0a63.146,63.146,0,0,0,11.045-1.069,62.119,62.119,0,0,0,10.151-2.774,57.443,57.443,0,0,0,9.01-4.153,18.3,18.3,0,0,0,6.545-5.877c.15-.3.322-.585.458-.882l.354-.915c.227-.7.427-1.409.62-2.116.373-1.42.685-2.838.925-4.234a28.3,28.3,0,0,0,.43-4.083,9.689,9.689,0,0,0-.5-3.6,11.428,11.428,0,0,0-1.61-3.176c-.16-.226-.368-.473-.516-.642a3.969,3.969,0,0,0-.333-.35,3.854,3.854,0,0,0-.792-.584,3.057,3.057,0,0,0-.327-.152l-.2-.079-.1.2a5.553,5.553,0,0,1-.667,1.008,8.565,8.565,0,0,1-1.018,1.144c-.423.389-.739.606-1.1.894a53.425,53.425,0,0,1-4.363,3.134,21.567,21.567,0,0,1-4.121,2.061A15.5,15.5,0,0,1,244.5,411.4Z" transform="matrix(-1, 0, 0, 1, 380, 0)" /><path d="M217.411,423.874c.238-.3,2.186-.229,4.43-.22a47.58,47.58,0,0,0,6.184-.251,98.22,98.22,0,0,0,15.308-3.088l.6-.185,6.519-2-4.537,5.188a21.086,21.086,0,0,1-5.549,4.492,24.274,24.274,0,0,1-6.221,2.391,44.573,44.573,0,0,1-10.681,1,20.406,20.406,0,0,1,4.687-2.837,16.916,16.916,0,0,1,4.134-1.479,19.858,19.858,0,0,0,6.557-1.758,16.946,16.946,0,0,0,5.059-3.667l.8,1.287c-8.1,2.17-15.13,3.156-20.987,2.618A28.49,28.49,0,0,1,217.411,423.874Z" transform="matrix(-1, 0, 0, 1, 380, 0)" /></svg>