<svg xmlns="http://www.w3.org/2000/svg" id="halloween" viewBox="0 0 380 600"><defs transform="matrix(-1, 0, 0, 1, 380, 0)"><style>.cls-1{fill:#ffffff;}.cls-2{fill:#ff4500;}.cls-3{fill:#fff;}</style></defs><g id="jacket_red" transform="matrix(-1, 0, 0, 1, 380, 0)"><path class="cls-1 color-body" d="M160.412,391.943c-7.582,9.513-14.229,22.312-22.211,41.293-8.856,21.061-18.834,37.366-29.709,32.709-13.624-5.834-9.478-36.627-4.5-51.1,6.055-17.583,19.428-51.04,47.782-59.992,10.883-3.436,14.227,11.569,14.227,11.569" style="fill:#ffffff;--backup-fill:#ffffff" /><path d="M165.947,366.439c-.44-.388-1.22-2.975-3.311-6.14a11.794,11.794,0,0,0-4.514-4.164,7.363,7.363,0,0,0-3.27-.648,9.385,9.385,0,0,0-1.766.244l-.889.259-.948.349a49.192,49.192,0,0,0-14.275,8.128,57.522,57.522,0,0,0-9.412,9.669c-7.36,9.662-13.088,21.508-17.59,33.918-.567,1.551-1.111,3.116-1.646,4.685s-1.071,3.182-1.519,4.673a90.783,90.783,0,0,0-2.2,9.4,85.471,85.471,0,0,0-1.432,18.767,43.512,43.512,0,0,0,1.008,7.616,18.355,18.355,0,0,0,2.6,6.285,7.5,7.5,0,0,0,4.289,3.11,5.092,5.092,0,0,0,2.314.024,8.1,8.1,0,0,0,2.521-1.071,21.852,21.852,0,0,0,5.02-4.608,57.042,57.042,0,0,0,4.348-6.074,136.894,136.894,0,0,0,7.2-13.3c1.09-2.257,2.1-4.48,3.139-6.745s2.078-4.494,3.133-6.677c2.11-4.365,4.264-8.554,6.487-12.514a107.445,107.445,0,0,1,14.292-20.4c-1.433,3.122-3.134,6.868-4.826,10.906s-3.376,8.381-4.98,12.608c-3.2,8.461-6.094,16.462-8.124,20.507-4.173,8.251-8.377,16.247-13.84,23.355a43.511,43.511,0,0,1-4.532,5.019,21.321,21.321,0,0,1-5.745,3.963,13.429,13.429,0,0,1-3.535,1.017,11.7,11.7,0,0,1-3.722-.137,13.029,13.029,0,0,1-6.187-3.367,16.82,16.82,0,0,1-3.674-5.521,28.7,28.7,0,0,1-1.772-5.985,56.257,56.257,0,0,1-.838-11.805,103.905,103.905,0,0,1,3.1-22.039c.441-1.746.922-3.471,1.482-5.171.553-1.673,1.107-3.311,1.686-4.94q1.719-4.882,3.638-9.529a131.2,131.2,0,0,1,8.694-17.45A84.1,84.1,0,0,1,127.418,368a65.533,65.533,0,0,1,6.521-5.92,55.826,55.826,0,0,1,7.131-4.7,42.713,42.713,0,0,1,8.363-3.513l1.184-.34c.39-.115.789-.228,1.25-.317a11.946,11.946,0,0,1,2.732-.274,9.482,9.482,0,0,1,5.1,1.661,12.084,12.084,0,0,1,3.247,3.459,18.746,18.746,0,0,1,1.755,3.551A22.679,22.679,0,0,1,165.947,366.439Z" /><path class="cls-2 color-sweater" d="M160.412,391.943c-7.582,9.513-14.229,22.312-22.211,41.293-4.03,9.584-6.042,14.488-17.724,12.243a34.721,34.721,0,0,1-22.061-14.237,6.2,6.2,0,0,1-1.2-2.671c-.176-1.5.65-2.921,1.418-4.226,8.092-13.764,11.7-28.411,20.334-41.87,7.847-12.238,18.649-23.147,32.809-27.618,10.883-3.436,14.227,11.569,14.227,11.569" /><path d="M165.962,366.436c-.34-.355-1.01-2.586-2.7-5.455a14.461,14.461,0,0,0-3.615-4.178,8.068,8.068,0,0,0-2.724-1.329,7.761,7.761,0,0,0-3.167-.125l-.814.163-.811.235-1.7.621c-1.15.385-2.244.94-3.366,1.405a50.711,50.711,0,0,0-6.221,3.529,51.954,51.954,0,0,0-9.006,7.57,86.064,86.064,0,0,0-9.928,12.927,106.483,106.483,0,0,0-7.812,15.055c-2.293,5.281-4.384,10.746-6.708,16.138-1.148,2.7-2.393,5.368-3.7,7.986-.663,1.307-1.339,2.6-2.06,3.871a14.874,14.874,0,0,0-1.5,3.021.841.841,0,0,0,0,.451,3.291,3.291,0,0,0,.412.818c.237.383.611.866.923,1.3.312.454.684.866,1.026,1.3a30.161,30.161,0,0,0,4.773,4.574A33.452,33.452,0,0,0,119,442.082c4.19,1.064,8.765,1.63,11.033-.23a12.289,12.289,0,0,0,3.28-4.4c.961-1.861,1.833-3.9,2.74-5.916a247.458,247.458,0,0,1,11.25-22.525,101.65,101.65,0,0,1,12.443-17.6c-1.317,2.639-2.9,5.825-4.477,9.28s-3.182,7.166-4.684,10.8c-3,7.253-5.676,14.156-7.435,17.643-.888,1.752-1.737,3.507-2.585,5.252s-1.688,3.534-2.662,5.317a20.012,20.012,0,0,1-3.788,5.171,10.918,10.918,0,0,1-6.1,2.84,21.255,21.255,0,0,1-6.055-.251,39.078,39.078,0,0,1-5.528-1.376,38.043,38.043,0,0,1-9.868-4.938,35.193,35.193,0,0,1-7.746-7.325c-.555-.683-1.031-1.413-1.535-2.133a7.3,7.3,0,0,1-1.192-2.721,5.6,5.6,0,0,1,.426-3.066,19.168,19.168,0,0,1,1.231-2.327,138.129,138.129,0,0,0,8.158-17.023c2.353-5.659,4.573-11.209,7.138-16.434a91.111,91.111,0,0,1,8.764-14.48c6.5-8.766,14.439-15.857,23.309-19.774,1.023-.517,2.215-.919,3.439-1.4l1.929-.6c.333-.1.65-.2,1-.3.369-.081.733-.175,1.109-.241a10.048,10.048,0,0,1,4.651.266,9.7,9.7,0,0,1,3.839,2.345,16.81,16.81,0,0,1,3.8,6.318A22.625,22.625,0,0,1,165.962,366.436Z" /><path class="cls-3" d="M121.305,383.729a4.473,4.473,0,0,1,.428,1.462c.182.8.488,1.829.837,2.968.688,2.278,1.421,4.877,1.958,6.29q.508,1.339.993,2.761l.121.356a.665.665,0,0,0,.073.165l.107.2a2.329,2.329,0,0,0,.18.286l.294-.253.114-.1.05-.045c.016-.011,0-.007.029-.024l.151-.088c.808-.472,1.632-.915,2.455-1.351,1.647-.865,3.293-1.664,4.85-2.451l3.225-1.657c1.976-1.034,4.01-2.225,5.919-3.27l-.327,2.786c-.093.925-.267,1.919-.295,2.756l-.084,1.288-.021.318,0,.162-.006.3c-.014.4-.018.8-.008,1.2a39.888,39.888,0,0,0,.347,4.652c.394,3.01.973,5.809,1.307,8.208a17.511,17.511,0,0,1-3.5-4.608,11.925,11.925,0,0,1-1.591-4.692,43.554,43.554,0,0,1,.143-4.583l.048-.55a1.02,1.02,0,0,1,.055-.252l.113-.447.251-1.078a5.44,5.44,0,0,0-.994.366l-.609.259-1.079.5-4.13,1.9c-1.323.623-2.588,1.248-3.789,1.89l-.89.484-1.1.62-2.547,1.489q-.935-3.428-1.778-6.521c-.442-1.691-.825-3.308-1.118-4.868a26.187,26.187,0,0,1-.458-3.921A9.316,9.316,0,0,1,121.305,383.729Z" /><path class="cls-3" d="M116.286,393.093c.116-.784,7.753-5.017,10.516-6.97l.421-.3.673-.434,1.439-.912c1-.621,2.1-1.312,3.248-1.991-.079,1.836-.231,3.941-.306,6.124-.017,1.273,0,2.434.015,3.667.041,2.432.135,4.886.208,7.271.036,1.232.061,2.464.054,3.694l0,.46v.1h0l-.007.011c-.008.012,0,.026.02.04.9-.328,1.874-.672,2.792-.971,1.857-.609,3.664-1.131,5.383-1.606,3.441-.937,6.533-1.755,9.177-2.431-2.189,2.8-7.65,5.962-9.762,6.374-1.674.344-3.283.717-4.829,1.14-1.16.259-4.014,1.305-5.928,2.021.117-1.664.214-3.215.28-4.645q.076-1.5.1-2.961c.032-1.943,0-3.827-.018-5.654s-.041-3.6-.014-5.309q.017-.972.032-1.91c.01-.38.019-.754.028-1.12-.35.19-.718.44-1.034.626l-.47.282-.982.556c-1.356.761-2.673,1.465-3.964,2.1A54.671,54.671,0,0,1,116.286,393.093Z" /><path class="cls-3" d="M136.112,401.727c.232.2.205.588-.089,1.059a1.989,1.989,0,0,1-.694.635,1.844,1.844,0,0,1-.489.195c-.17.044-.317.067-.442.091a1.931,1.931,0,0,1-1.412-.275,1.887,1.887,0,0,1-.709-.844,2.07,2.07,0,0,1-.025-1.5,2.955,2.955,0,0,1,.543-.889c.143-.168.237-.276.367-.406a6.1,6.1,0,0,1,.785-.657,4.2,4.2,0,0,1,2.382-.77l3.251-.006-1.168,2.518a2.872,2.872,0,0,1-1.98,1.629,2.179,2.179,0,0,1-1.791-.368,4.415,4.415,0,0,0,.32-2.069c-.074-.48-.273-.624-.163-.52a.8.8,0,0,0,.52.24l1.508,1.818a1.73,1.73,0,0,0-1.417-.159,1.77,1.77,0,0,0-.554.3c-.141.113-.336.315-.339.381.055.053-.121-.085-.184-.111a.415.415,0,0,0-.125-.051c-.06-.009.027.006.124-.049a1.173,1.173,0,0,0,.31-.251.1.1,0,0,1,.055-.022l.053-.011s.011-.027,0,.019a1.283,1.283,0,0,0,0,.165.8.8,0,0,0,.021.16l0,0v0c-.034-.151.078.338-.077-.337h0l0,0,.01.008a.291.291,0,0,0,.071.042,1.839,1.839,0,0,0,.6.074Z" /><path class="cls-3" d="M126.419,392.842c.291.349.024.768-.145,1.162l-.093.216-.631-.023a4.668,4.668,0,0,1-.77-.132,1.955,1.955,0,0,1-1.461-1.488,3.154,3.154,0,0,1,.35-2.152,3.078,3.078,0,0,1,.536-.761l3.106-3.182.362,4.309a2.686,2.686,0,0,1-.61,1.954,2.023,2.023,0,0,1-1.582.741,8.083,8.083,0,0,0-1.348-1.541c-.363-.305-.568-.394-.417-.389a1.076,1.076,0,0,0,1-.447l1.7.552c-.644.2-.745.666-.571.715a.312.312,0,0,0,.222.061c.048-.033-.029.033-.055.078a.266.266,0,0,0-.038.073l-.977.107a.84.84,0,0,1,.135-.057C125.357,392.509,126.226,392.768,126.419,392.842Z" /><path class="cls-3" d="M142.3,416.705c.61.162.467.635.746.93a1.656,1.656,0,0,1,.457,1.429c-.045.761-.909,1.137-2.029.822-1.244-1.105-2.114-1.908-1.823-1.827,1.192.29,1.475-.06,1.473-.394,0-.352-.25-.7.07-.855A4.946,4.946,0,0,1,142.3,416.705Z" /><path class="cls-3" d="M136.166,414.778c.573.254.412.627.719.873a2.035,2.035,0,0,1,.738.967c.2.439-.354.745-1.446,1.1-1.657-.114-2.808-.558-2.508-.682,1.2-.464,1.361-.8,1.315-1.207-.047-.389-.29-.825.06-1.026A2.687,2.687,0,0,1,136.166,414.778Z" /><path class="cls-3" d="M131.165,412.662c.592.21.424.675.712.963a1.845,1.845,0,0,1,.585,1.3c.078.661-.609,1.073-1.772,1.133-1.529-.654-2.54-1.322-2.226-1.354,2.531-.255.892-1.538,1.575-1.939A3.308,3.308,0,0,1,131.165,412.662Zm.836,1.766h0" /><path class="cls-3" d="M127,409.972c.627.082.533.685.831.993a1.949,1.949,0,0,1,.5,1.66c-.055.933-1.018,1.509-2.191,1.265-1.216-1.145-2.084-1.961-1.785-1.9,1.233.2,1.538-.265,1.525-.661,0-.418-.283-.793.024-1.03A4.546,4.546,0,0,1,127,409.972Z" /><path class="cls-3" d="M122.041,405.909c.509.366.2.832.414,1.191a2.311,2.311,0,0,1,.349,1.425c.007.665-.667,1.021-1.844,1.188-1.553-.606-2.525-1.414-2.193-1.487,1.323-.265,1.605-.68,1.7-1.18s-.014-1.041.408-1.234C121.024,405.687,121.856,405.851,122.041,405.909Z" /><path class="cls-3" d="M117.55,404.313c.565.271.407.605.714.842a2.151,2.151,0,0,1,.755.876c.21.376-.332.625-1.413.993-1.66-.039-2.824-.445-2.526-.576,1.193-.479,1.343-.787,1.294-1.178-.05-.371-.289-.8.062-.985A2.64,2.64,0,0,1,117.55,404.313Z" /><path class="cls-3" d="M114.483,401.209c.549.307.321.7.563,1.02a1.747,1.747,0,0,1,.391,1.3c-.014.62-.741.867-1.882.7-1.4-.895-2.294-1.7-1.983-1.671,2.5.255,1.079-1.238,1.8-1.473A3.467,3.467,0,0,1,114.483,401.209Zm.572,1.781h0" /></g><g data-name="jacket_red" id="jacket_red-2" transform="matrix(-1, 0, 0, 1, 380, 0)"><path class="cls-2 color-sweater" d="M234.881,441.529c-13.642-36.838,9.04-78.792-30.636-91.823-29.144-9.571-59.413,5.745-75.672,54.176a110.019,110.019,0,0,0-4.658,20.378c-.428,3.182-.139,6.355-.666,9.5-.567,3.375-1.853,6.582-2.518,9.937a28.26,28.26,0,0,0,3.693,20.206,9.3,9.3,0,0,1,1.187,2.281,7.98,7.98,0,0,1,.2,2.2l-.009,4.737a13.1,13.1,0,0,0,.871,5.8c1.233,2.535,4.654,3.151,6.919,4.579a86.286,86.286,0,0,0,8.9,4.876,94.026,94.026,0,0,0,19.144,6.681,96.257,96.257,0,0,0,40.359.733,88.455,88.455,0,0,0,21.884-7.361c4.882-2.4,9.673-5.346,12.938-9.7C243.888,469.3,238.6,451.56,234.881,441.529Z" /><path d="M234.938,441.508c.568.742,2.569,5.057,4.426,11.843a56.512,56.512,0,0,1,1.952,11.948c.018.565,0,1.139.007,1.718a14.618,14.618,0,0,1-.065,1.756q-.075.888-.152,1.791-.159.9-.319,1.814a19.021,19.021,0,0,1-3,7.094c-3.112,4.24-7.648,7.277-12.2,9.658a88.812,88.812,0,0,1-14,5.844,101.192,101.192,0,0,1-24.57,4.534,96.679,96.679,0,0,1-34.47-4.121,93.754,93.754,0,0,1-16.72-7.007c-1.333-.716-2.71-1.517-3.96-2.276-.844-.506-2.246-.988-3.842-1.791a11.292,11.292,0,0,1-2.556-1.733,8.333,8.333,0,0,1-1.209-1.408c-.175-.27-.335-.559-.489-.844-.117-.248-.236-.5-.332-.749a15.629,15.629,0,0,1-.919-5.528l-.046-4.508c-.011-.717,0-1.593-.037-2.014a1.4,1.4,0,0,0-.234-.766c-.1-.185-.253-.427-.452-.734s-.431-.694-.644-1.046c-.441-.714-.827-1.46-1.2-2.209a30.1,30.1,0,0,1-1.84-4.663,31.637,31.637,0,0,1-1.385-9.888,30.041,30.041,0,0,1,.494-5c.3-1.655.723-3.2,1.127-4.638s.8-2.8,1.073-4.08a20.589,20.589,0,0,0,.487-3.768q.067-2.2.136-4.391c.037-.792.1-1.616.2-2.463l.305-2.247a113.383,113.383,0,0,1,3.907-17.455c1.59-4.9,3.309-9.671,5.363-14.369a117.889,117.889,0,0,1,7.027-13.655c5.3-8.755,12-16.88,20.435-22.932a54.851,54.851,0,0,1,13.7-7.192,49.782,49.782,0,0,1,15.049-2.79,54.991,54.991,0,0,1,28.4,7.122,33.579,33.579,0,0,1,10.81,9.944,38.188,38.188,0,0,1,5.409,13,72.018,72.018,0,0,1,1.549,12.989c.165,4.213.115,8.3.054,12.278-.143,7.952-.32,15.493.175,22.629a84.016,84.016,0,0,0,3.566,19.93,68.021,68.021,0,0,1-6.591-19.694,204.218,204.218,0,0,1-2.57-24.173c-.532-8.027-1.18-15.692-2.787-21.8a34.169,34.169,0,0,0-6.38-13.108,28.163,28.163,0,0,0-8.14-6.715l-2.436-1.235c-.8-.434-1.693-.716-2.534-1.083l-1.28-.523-1.317-.443-1.317-.44-1.332-.373a45.2,45.2,0,0,0-21.548-.831,47.157,47.157,0,0,0-19.145,9.1,69.342,69.342,0,0,0-14.325,15.416,104.92,104.92,0,0,0-9.943,18.133l-1.01,2.345-.932,2.368c-.637,1.568-1.2,3.161-1.76,4.746a94.278,94.278,0,0,0-2.883,9.534c-.793,3.2-1.427,6.411-1.926,9.621l-.347,2.406c-.1.763-.165,1.528-.2,2.317-.081,1.574-.075,3.211-.192,4.9-.191,3.482-1.309,6.706-2.116,9.687a26.625,26.625,0,0,0,.763,17.423,25.219,25.219,0,0,0,1.922,3.866c.338.6.812,1.221,1.245,2.1a6.293,6.293,0,0,1,.51,1.47,8.443,8.443,0,0,1,.16,1.422q.017,2.3.033,4.585a27.79,27.79,0,0,0,.2,4.2,6.266,6.266,0,0,0,.5,1.665,2.95,2.95,0,0,0,.871,1.076,16.911,16.911,0,0,0,3.5,1.8c.35.157.71.323,1.08.514.347.172.8.438,1.08.614q.91.56,1.832,1.092,1.847,1.065,3.731,2.028c2.513,1.287,5.068,2.441,7.641,3.475a92.75,92.75,0,0,0,15.654,4.7,96.191,96.191,0,0,0,30.9,1.377,91.327,91.327,0,0,0,27.76-7.776c3.982-1.9,8.66-4.275,12.214-8.078a16.432,16.432,0,0,0,2.255-3.071c.266-.583.607-1.133.828-1.748.206-.621.448-1.232.635-1.866a28.939,28.939,0,0,0,.912-7.941,50.968,50.968,0,0,0-.639-7.646c-.347-2.411-.825-4.642-1.279-6.631C236.3,445.976,235.375,442.988,234.938,441.508Z" /><path class="cls-3" d="M129.407,450.3a3.07,3.07,0,0,1,.075,1.619,18.123,18.123,0,0,1-.978,3.263,18.59,18.59,0,0,0-.653,2.046,4.425,4.425,0,0,0-.131,1.071,10.743,10.743,0,0,0,.215,1.162c.408,1.911.641,2.972.99,4.262a3.267,3.267,0,0,0,.156.456c.014.05.061.061.072,0l.055-.12a2.137,2.137,0,0,1,.125-.231c.175-.3.365-.593.555-.877l.571-.836.713-.989c1.188-1.614,2.4-3.191,3.613-4.669l.459-.548.239-.283.323-.359.646-.706.661-.615c.219-.2.441-.371.659-.557.106-.091.227-.178.345-.266l.177-.131c.059-.041.126-.121.151-.019l.83,1.381q.37.78.72,1.519c.118.233.238.537.305.707l.214.527c.28.69.51,1.339.72,1.927.876,2.493,1.555,5.058,2.435,7.556a36.02,36.02,0,0,0,1.514,3.68l.452.892c.071.152.161.293.243.439l.093.147a3.071,3.071,0,0,0,.34.456l.443-.488c.522-.5,1.162-1.1,1.75-1.632,1.2-1.094,2.435-2.161,3.678-3.215l3.752-3.131,5.226-4.3,12.1,17.354,1.658,2.391c.03.024.036.046.048.019s-.018.009.038-.04l1.094-.927c.726-.62,1.44-1.251,2.146-1.885a93.939,93.939,0,0,0,7.907-8.017c.615-.7,1.21-1.406,1.8-2.118l.875-1.072.429-.541.841-1.082,1.68-2.2.209-.274.1-.136a.437.437,0,0,1,.052-.064l.057.065.458.518.911,1.033.909,1.034c.152.174.3.348.461.512l.381.407q.447.492.92.96a70.084,70.084,0,0,0,7.988,6.857c1.39,1.035,2.794,2.025,4.2,2.982l2.107,1.406,1.053.684a1.556,1.556,0,0,1,.144.1l.055.043.115.087.124.092c.042.03.063-.048.1-.068l.2-.221,1.437-1.889,2.839-3.8c3.687-5,6.977-9.684,9.869-13.884a116.9,116.9,0,0,1-7.948,15.86c-.813,1.374-1.632,2.719-2.444,3.994l-.606.945-.3.463-.149.228-.287.417-1.174,1.686-.585.834a8.9,8.9,0,0,1-.839-.461l-2.789-1.628-1.519-.919c-.948-.592-1.762-1.136-2.406-1.61a90.744,90.744,0,0,1-9.976-8.321q-1.141-1.119-2.209-2.293a7.551,7.551,0,0,1-.576-.682l-.176-.233-.092-.121-.047-.061-.044.049-.37.418-.234.266-.487.59c-.657.779-1.315,1.549-1.985,2.3a100.185,100.185,0,0,1-8.348,8.366c-.718.641-1.442,1.266-2.166,1.883l-2.281,1.889-1.526,1.224-.379.3-.094.075c-.032.029-.065.064-.085.006l-.137-.2-.545-.806-1.823-2.7q-3.083-4.53-6.028-8.862l-2.934-4.27q-.728-1.053-1.446-2.1l-.453-.65-.212-.3-.1-.151c-.035-.051-.093.055-.138.074l-6.94,5.726c-1.215,1.021-2.4,2.041-3.551,3.071l-1.745,1.6-2.478,2.406c-.557-.818-1.135-1.744-1.658-2.623l-.386-.7c-.085-.159-.181-.314-.258-.478l-.472-.972a35.592,35.592,0,0,1-1.545-3.937c-.869-2.629-1.478-5.214-2.236-7.626-.186-.6-.389-1.195-.6-1.778l-.3-.807-.163-.39c-.1-.261-.238-.506-.357-.761a3.711,3.711,0,0,0-.615.543l-.284.3-.519.586-1.166,1.365c-.768.913-1.51,1.836-2.241,2.75l-.848,1.089c-.414.533-.877,1.157-1.314,1.779l-.334.466-.336.4a4.091,4.091,0,0,1-.644.689,4.957,4.957,0,0,1-.537.4,1.164,1.164,0,0,0-.2.15c-.031.021-.045.055-.09.068a.356.356,0,0,1-.137-.112,5.041,5.041,0,0,1-.717-1.434,18.245,18.245,0,0,1-.478-2.2c-.293-1.66-.4-2.516-.552-3.635l-.052-.4-.023-.475a4.408,4.408,0,0,1,.124-.864,8.922,8.922,0,0,1,.511-1.478c.39-.905.8-1.7,1.127-2.432A7.728,7.728,0,0,0,129.407,450.3Z" /><path class="cls-3" d="M128,449.482c.4.247,2.1,2.6,3.713,6.259a53.711,53.711,0,0,1,2.311,6.241c.181.57.34,1.153.506,1.74q.217.842.439,1.695c.1.427.2.841.282,1.213l.119.568.055.28.027.138c.012.039.009.127.052.051.277-.324.546-.638.826-.926.135-.148.278-.284.418-.419l.206-.2.276-.244a26.862,26.862,0,0,1,2.886-2.2c1.921-1.268,3.682-2.234,5-3.061l1.307-.829,2.033-1.327.527-.346.348.5.7,1.025,1.167,1.695c1.23,1.782,2.446,3.627,3.595,5.553a59.5,59.5,0,0,1,3.169,6.028c.48,1.041.915,2.107,1.33,3.182l.3.708.31-.356.034-.039.017-.02.108-.109.476-.479.946-.957c1.254-1.274,2.476-2.549,3.626-3.854a48.615,48.615,0,0,0,3.208-4.024c.24-.351.49-.687.72-1.047l.348-.536c.124-.192.192-.279.455-.735.883-1.482,1.739-2.983,2.587-4.491l2.227,2.931c.364.476.723.964,1.1,1.411l.627.763a89.3,89.3,0,0,0,8.825,8.788c1.559,1.4,3.129,2.822,4.648,4.289.757.736,1.512,1.471,2.237,2.234l.273.283c.011.012,0,.006,0,.006l0,.01.014.028a.106.106,0,0,0,.024-.015l.008-.007c.017-.026-.037.066.082-.13l.5-.806c.667-1.068,1.351-2.109,2.041-3.135,1.379-2.05,2.791-4.027,4.211-5.947,2.853-3.834,5.7-7.443,8.658-10.777.386-.428.725-.8,1.166-1.262.318-.346.655-.656.984-.964l.514-.386.537-.167c.091-.025.17-.055.271-.075l.072-.017c.012-.017.025.024.035-.039l.035.009.137.038a2.467,2.467,0,0,1,.529.225,4.85,4.85,0,0,1,1.019.723,8.327,8.327,0,0,1,.847.786l.558.577c1.46,1.538,2.8,3.07,4.078,4.586a65.466,65.466,0,0,1,6.536,8.965c-1.532-1.613-3.447-3.422-5.547-5.345s-4.361-3.949-6.581-5.85l-.829-.7-.382-.308a.958.958,0,0,0-.112-.052.635.635,0,0,0-.177-.052c-.059-.01-.1.1-.122.143a.811.811,0,0,0-.057.146l-.592.747-1.156,1.507c-1.489,1.961-2.761,3.648-3.7,4.76q-3.469,4.123-6.562,8.295-1.541,2.082-2.963,4.168l-.7,1.044-.728,1.128c-.709,1.159-1.377,2.307-2.023,3.415l-2.026-2.259-1.566-1.7q-1.287-1.349-2.608-2.637c-1.763-1.716-3.565-3.36-5.322-5.019s-3.465-3.335-5.054-5.08c-.8-.868-1.56-1.758-2.294-2.658l-.455-.567-.323-.415c-.209-.276-.42-.572-.627-.829-.284.5-.578,1-.884,1.485-.49.758-1.034,1.553-1.578,2.3a53.736,53.736,0,0,1-3.492,4.259c-1.21,1.341-2.451,2.611-3.68,3.846q-2.354,2.343-4.642,4.621c-.4-1.254-.807-2.509-1.242-3.76l-.161-.469-.13-.342-.238-.621c-.154-.414-.33-.818-.5-1.225-.676-1.619-1.421-3.182-2.218-4.691-1.586-3.008-3.406-5.861-5.169-8.522l-.31-.459-.152-.226c-.06-.032-.15.078-.222.109l-.461.291-.958.57-4.087,2.308a31.487,31.487,0,0,0-3.665,2.433l-.414.339-.206.17-.143.118-.161.145-1.252,1.21q-1.244,1.319-2.361,2.548c-.033-.021-.05-.1-.062-.2l-.043-.265-.084-.522-.332-1.993-.175-1.046-.192-1-.33-1.666-.317-1.464c-.442-1.975-.994-4.015-1.6-5.9A46.367,46.367,0,0,0,128,449.482Z" /><path class="cls-3" d="M211.575,470.978c-.265.163-.6-.029-.872-.364s-.471-.771-.687-1.013a3.313,3.313,0,0,1-.329-3.507,2.034,2.034,0,0,1,.9-.981,2.195,2.195,0,0,1,1.348-.26,2.26,2.26,0,0,1,.962.361,2.4,2.4,0,0,1,.886,1.073,2.634,2.634,0,0,1,.2.822,2.517,2.517,0,0,1-.074.83,3.348,3.348,0,0,1-.2.6,2.951,2.951,0,0,1-1.643,1.594c-1.34-1.083-2.372-1.817-2.06-1.954a2.249,2.249,0,0,0,.749-.563.531.531,0,0,1,.219-.193,1.9,1.9,0,0,0,.361-.092l.191-.09-.006,0,.023-.019a.359.359,0,0,0,.092-.154c.021-.055-.019-.09.03-.013a.849.849,0,0,0,.157.156c.06.056.335.232.252.185a.636.636,0,0,0-.067.1,1.138,1.138,0,0,0-.147.5c-.047.732.373,1.245.265,1.76a2.054,2.054,0,0,1-.261.595C211.725,470.6,211.622,470.874,211.575,470.978Z" /><path class="cls-3" d="M174.446,474.061c-.274.15-.571-.022-.813-.312s-.424-.67-.639-.877a2.4,2.4,0,0,1-.683-1.4,3.43,3.43,0,0,1-.014-.83,4.223,4.223,0,0,1,.066-.427,2.049,2.049,0,0,1,.678-1.087,2.119,2.119,0,0,1,1.01-.478,2.178,2.178,0,0,1,1.138.1,2.4,2.4,0,0,1,.976.675,2.732,2.732,0,0,1,.591,1.08,2.84,2.84,0,0,1,.045,1.176,2.671,2.671,0,0,1-1.1,1.763c-1.62-.533-2.817-.871-2.553-1.063.543-.389.714-1.028.827-1.071l.091-.077a2.083,2.083,0,0,0,.15-.146.84.84,0,0,0,.168-.265c.02-.064,0-.075.021-.03a.2.2,0,0,0,.028.045c-.009-.009.043.049-.014-.018l.017.018a.712.712,0,0,0,.134.1,2.67,2.67,0,0,0,.285.147l-.008.022-.028.108a1.15,1.15,0,0,0-.025.226c0,.64.42,1.059.284,1.516C175.051,473.139,174.529,473.848,174.446,474.061Z" /><path class="cls-3" d="M160.083,472.582c-.646.1-.869-1.224-1.218-1.743a3.365,3.365,0,0,1-.6-1.555c-.02-.139-.032-.279-.04-.42a2.979,2.979,0,0,1,.049-.591,2.521,2.521,0,0,1,.32-.851,2.308,2.308,0,0,1,1.317-1.022,2.357,2.357,0,0,1,1.641.13,2.6,2.6,0,0,1,.891.679,2.821,2.821,0,0,1,.634,1.415,3.1,3.1,0,0,1-.15,1.513A3.512,3.512,0,0,1,161.52,472c-1.519-.813-2.611-1.592-2.314-1.821a3.657,3.657,0,0,0,.7-.749c.186-.217.2-.335.347-.408a.665.665,0,0,0,.213-.268c.066-.143,0-.208.064-.077a.758.758,0,0,0,.2.179c.082.054.057.036.059.044l-.006.024a1.009,1.009,0,0,0-.021.208c-.009.86.359,1.6.17,2.262C160.889,471.693,160.228,472.405,160.083,472.582Z" /><path class="cls-3" d="M146.524,466.953c-.633-.145-.389-.95-.48-1.433a1.75,1.75,0,0,1,.377-1.517l1.474-1.873,1.287,3.067a3.886,3.886,0,0,1,.235.871,2.026,2.026,0,0,1-2.152,2.346c-1.169-1.224-2.179-1.852-1.879-1.819a1.333,1.333,0,0,0,1.223-.429.715.715,0,0,0,.029-.737l1.356.587c-.146.311-.014.637-.33.752C147.56,466.827,146.723,466.892,146.524,466.953Z" /><path class="cls-3" d="M136.566,464.428c-.628-.069-.552-.468-.853-.719a1.337,1.337,0,0,1-.483-1.346c.078-.764,1.138-1.092,2.068-.391a15.168,15.168,0,0,0,1.465,2.066c-.945-.717-1.248-.441-1.186-.238.036.239.345.453.059.525C137.56,464.361,136.757,464.4,136.566,464.428Z" /><path class="cls-3" d="M128.947,461.519c-.584-.232-.455-.51-.753-.745a1.508,1.508,0,0,1-.654-.944c-.122-.445.508-.608,1.62-.463,1.515.671,2.534,1.27,2.234,1.241-2.412-.233-.745.868-1.373,1.023A4.579,4.579,0,0,1,128.947,461.519Zm-.929-1.292h0" /><path class="cls-3" d="M191.708,475.514c-.292.107-.6-.174-.816-.6s-.316-.961-.465-1.288a2.836,2.836,0,0,1-.109-1.977,3.682,3.682,0,0,1,.188-.514,3.161,3.161,0,0,1,.4-.61,2.8,2.8,0,0,1,1.527-.958,2.477,2.477,0,0,1,2.345.734,2.718,2.718,0,0,1,.709,1.629,3.039,3.039,0,0,1-.059.921,3.719,3.719,0,0,1-.227.728,2.993,2.993,0,0,1-1.894,1.746c-.571-.653-1.077-1.224-1.43-1.6s-.527-.579-.365-.645a1.827,1.827,0,0,0,.756-.544,3.048,3.048,0,0,1,.21-.251.326.326,0,0,1,.071-.061,1.392,1.392,0,0,0,.247-.124c.124-.1.065-.051.094-.1a.3.3,0,0,0,0,.106c0,.033.01.061.018.108.006.018,0,0,0,.008-.047,0-.175.117-.224.238a2.377,2.377,0,0,0-.154.993,2.3,2.3,0,0,1-.082.863,2.356,2.356,0,0,1-.36.588C191.916,475.149,191.767,475.416,191.708,475.514Z" /></g><path class="cls-3" d="M136.475,388.868c14.83,7.263,29.02,13.1,45.526,13.584s33.344-3.566,47.023-12.816c3.73,7.468,5.332,11.984,4.572,20.3a9.581,9.581,0,0,1-.963,3.843A9.4,9.4,0,0,1,229.065,417a62.6,62.6,0,0,1-31.144,9.141c-22.94.45-45.59-2.046-65.321-13.757-1.515-.9-3.158-2.079-3.348-3.831a5.936,5.936,0,0,1,.75-2.994c2.242-5,3.485-11,5.727-15.994" transform="matrix(-1, 0, 0, 1, 380, 0)" /><path class="cls-3" d="M135.757,389.574c-.076.531-1.026,3.035-2.118,6.857-.565,1.905-1.194,4.133-2.033,6.532-.4,1.186-.95,2.466-1.442,3.655a4.165,4.165,0,0,0-.334,1.753,2.851,2.851,0,0,0,.667,1.57,10.723,10.723,0,0,0,3.274,2.345c1.269.667,2.5,1.427,3.809,2.026,2.574,1.284,5.195,2.431,7.746,3.4a86.382,86.382,0,0,0,13.349,3.939c12.208,2.629,25.664,3.228,39.178,2.842a59.969,59.969,0,0,0,19.37-3.819,65.775,65.775,0,0,0,8.87-4.134c.705-.395,1.4-.816,2.091-1.22a12.3,12.3,0,0,0,1.746-1.246,4.53,4.53,0,0,0,1.6-3.117c.093-.594.144-1.278.189-1.962s.071-1.357.1-2.033a30.505,30.505,0,0,0-.188-3.981,27.687,27.687,0,0,0-2.13-7.614c-.264-.623-.537-1.246-.828-1.867l-.438-.932c-.034-.072-.009-.019-.017-.035l-.623.4a72.711,72.711,0,0,1-7.57,4.024,78.236,78.236,0,0,1-15.873,5.289,88.466,88.466,0,0,1-15.97,1.934A82.749,82.749,0,0,1,172.9,403.2a87.591,87.591,0,0,1-13.892-3.534,153.534,153.534,0,0,1-22.781-10.287c6.346,2.18,15.48,5.727,24.33,7.936a103.34,103.34,0,0,0,12.526,2.406c3.783.484,7.011.622,9.238.779a81.72,81.72,0,0,0,26.08-2.641,72.169,72.169,0,0,0,11.822-4.342c.938-.439,1.848-.925,2.768-1.384.908-.48,1.79-1,2.681-1.5.225-.122.439-.259.654-.395l.811-.511,1.9-1.2.235-.148.118-.074c.032,0,.044.073.067.107l.246.507.489,1.01.857,1.808a33.684,33.684,0,0,1,3.428,11.766,36.437,36.437,0,0,1-.059,6,16.121,16.121,0,0,1-.451,3.006,6.735,6.735,0,0,1-1.512,2.825,19.331,19.331,0,0,1-4.85,3.389c-1.669.911-3.342,1.786-5.051,2.551a65.23,65.23,0,0,1-10.4,3.718,62.468,62.468,0,0,1-10.548,1.818c-1.748.153-3.506.214-5.207.237s-3.407.06-5.091.049a168.7,168.7,0,0,1-19.532-1.042c-12.54-1.446-24.113-4.665-33.949-9.717l-1.829-.93-1.9-1.1-1.994-1.174a12.574,12.574,0,0,1-2.032-1.53,4.994,4.994,0,0,1-1.481-2.427,4.593,4.593,0,0,1,.322-2.818c.34-.82.709-1.5,1.025-2.22s.628-1.44.912-2.159c1.138-2.872,2.06-5.632,2.914-7.817A48.066,48.066,0,0,1,135.757,389.574Z" transform="matrix(-1, 0, 0, 1, 380, 0)" /><g data-name="jacket_red" id="jacket_red-3" transform="matrix(-1, 0, 0, 1, 380, 0)"><path class="cls-1 color-body" d="M210.791,402.926c4.766,11.192,7.753,25.3,10.376,45.725,2.91,22.661,8.17,41.038,19.894,39.455,14.687-1.984,18.916-32.765,17.978-48.04-1.139-18.561-3.924-46.029-22.5-62.515-15.9-14.111-24.321-.71-24.321-.71" style="fill:#ffffff;--backup-fill:#ffffff" /><path d="M212.163,376.809a4.751,4.751,0,0,1,1.129-2.015,12.819,12.819,0,0,1,10.682-4.683,19.817,19.817,0,0,1,7.878,2.5,31.192,31.192,0,0,1,3.614,2.395l1.727,1.341c.569.456,1.068.978,1.606,1.465a36.32,36.32,0,0,1,3.058,3.045l1.414,1.585.7.784.627.825a69.022,69.022,0,0,1,7.46,11.874c5.769,11.243,8.546,24.7,9.841,38,.173,1.668.321,3.334.456,5s.25,3.463.275,5.164a98.609,98.609,0,0,1-.362,10.251,85.588,85.588,0,0,1-3.941,19.875,43.312,43.312,0,0,1-3.783,8.28,26.328,26.328,0,0,1-2.873,3.895,18.251,18.251,0,0,1-3.919,3.376,14.721,14.721,0,0,1-5.079,2.1,13.243,13.243,0,0,1-10.892-2.289,17.757,17.757,0,0,1-3.651-3.626,32.965,32.965,0,0,1-4.335-7.95,64.54,64.54,0,0,1-2.53-7.962,130.476,130.476,0,0,1-2.827-15.476c-.642-5.077-1.041-9.863-1.6-14.526-.534-4.66-1.115-9.159-1.78-13.464a139.334,139.334,0,0,0-5.314-23.2,54.861,54.861,0,0,1,5.944,10.1,98.283,98.283,0,0,1,4.82,12.781,109.657,109.657,0,0,1,4.5,21.66c.275,4.42.663,8.74,1.259,12.952a83.864,83.864,0,0,0,2.535,12.18,40.966,40.966,0,0,0,2.069,5.552,19.448,19.448,0,0,0,2.946,4.7A9.678,9.678,0,0,0,235.709,485a6.947,6.947,0,0,0,2.153,1.041,8.1,8.1,0,0,0,4.8-.173c3.185-1.026,5.715-3.861,7.544-6.956a43.264,43.264,0,0,0,4.168-10.067,88.117,88.117,0,0,0,3.1-20.923q.079-2.567.006-5.078c-.038-1.666-.188-3.316-.318-5-.264-3.34-.588-6.609-1-9.806a128.055,128.055,0,0,0-3.57-18.237,79.522,79.522,0,0,0-6.245-15.941,58.107,58.107,0,0,0-9.166-12.837l-1.325-1.349c-.23-.233-.454-.485-.7-.714l-.767-.667-1.581-1.4c-.542-.471-1.148-.848-1.731-1.294a17.28,17.28,0,0,0-7.869-3.387,11.891,11.891,0,0,0-7.352,1.539A14.682,14.682,0,0,0,212.163,376.809Z" /><path class="cls-2 color-sweater" d="M259.039,440.066c-1.139-18.561-3.924-46.029-22.5-62.515-15.9-14.111-22.106-3.869-24.321-.71s-5.633,16.01-1.424,26.085,7.753,25.3,10.376,45.725C224.077,471.312,259.977,455.341,259.039,440.066Z" /><path class="cls-2 color-sweater" d="M210.791,402.926c6.535,15.346,10.412,33.535,8.838,50.068a9.788,9.788,0,0,0,.475,5.285,8.3,8.3,0,0,0,4.316,3.519c10.933,4.858,23.7,1.894,34.858-2.421a2.426,2.426,0,0,0,2.021-2.921,245.266,245.266,0,0,0-5.444-42.237c-2.957-13.689-8.651-27.2-19.319-36.668-15.9-14.111-24.321-.71-24.321-.71" /><path d="M212.176,376.817a4.58,4.58,0,0,1,1-1.73,12.452,12.452,0,0,1,3.2-2.848,12.852,12.852,0,0,1,5.749-1.886,15.778,15.778,0,0,1,7.053,1.258,22.316,22.316,0,0,1,3.362,1.733l1.622,1.008c.51.375,1,.774,1.5,1.16l1.493,1.166c.475.409.929.836,1.39,1.25.941.81,1.755,1.725,2.612,2.561a65.511,65.511,0,0,1,7.392,9.7,70.362,70.362,0,0,1,7.169,15.294c.919,2.739,1.715,5.547,2.4,8.391q1.007,4.223,1.858,8.52c1.141,5.721,2.069,11.512,2.783,17.273q.53,4.322.9,8.61c.113,1.429.229,2.851.313,4.269q.063,1.064.125,2.121l.054,1.056.027.527.015.427,0,.509a4.962,4.962,0,0,1-1.179,3.2,5.321,5.321,0,0,1-1.348,1.1,7.748,7.748,0,0,1-.793.4l-.64.261c-1.156.447-2.311.893-3.485,1.3-2.346.819-4.719,1.58-7.152,2.174A60.716,60.716,0,0,1,242.2,467a45.344,45.344,0,0,1-7.591.21,33.523,33.523,0,0,1-7.52-1.336c-.606-.2-1.222-.366-1.815-.6l-1.768-.719a14.857,14.857,0,0,1-3.623-2.137,9.156,9.156,0,0,1-1.676-1.805,7.845,7.845,0,0,1-1.12-2.354,11.959,11.959,0,0,1-.307-4.329q.158-1.665.315-3.313c.121-1.059.138-2.123.208-3.176a105.28,105.28,0,0,0-1.879-24.037,139.372,139.372,0,0,0-5.417-20.141,74.352,74.352,0,0,1,9.521,19.891,79.424,79.424,0,0,1,2.636,11,48.024,48.024,0,0,1,.687,8.291c0,1.009-.066,2.017-.112,3.018s-.115,2-.2,2.99c-.073.991-.167,1.977-.3,2.957q-.178,1.421-.355,2.83a9.083,9.083,0,0,0-.054,2.225,3.041,3.041,0,0,0,.625,1.554,9.338,9.338,0,0,0,3.812,2.468,26.716,26.716,0,0,0,4.875,1.584,32.014,32.014,0,0,0,5.084.643,42.532,42.532,0,0,0,10.149-.8,71.4,71.4,0,0,0,9.677-2.634c.785-.258,1.556-.555,2.329-.834l.573-.212c.13-.05.237-.093.354-.148a1.57,1.57,0,0,0,.6-.447,1.274,1.274,0,0,0,.233-.7,3.624,3.624,0,0,0,.006-.376l-.019-.557q-.048-1.218-.1-2.426c-.3-6.445-.954-12.668-1.791-18.662s-1.9-11.756-3.092-17.29c-.6-2.776-1.224-5.461-1.958-8.07s-1.585-5.128-2.507-7.568c-3.7-9.745-9.155-17.993-15.9-23.893a31.459,31.459,0,0,0-5.806-4.147,14.481,14.481,0,0,0-7.281-1.982,12.28,12.28,0,0,0-6.366,2.064A14.009,14.009,0,0,0,212.176,376.817Z" /><path class="cls-3" d="M251.131,406.341c.131.131.143.739-.076,1.585a18.083,18.083,0,0,1-1.159,2.981c-.993,2.164-2.163,4.6-2.695,6.012q-.505,1.341-1.083,2.727l-.145.347-.239.526-.552,1.186-1.191,2.5q-.882-.764-1.774-1.532l-.928-.8-.471-.405-.368-.3-2.133-1.647-4.325-3.243-1.36-1.054-1.1-.892c-.008.006,0,.013-.01-.012s-.018-.038-.047-.008l-.026.032-.007.01-.045.157-.1.333q-.185.668-.412,1.308a27.994,27.994,0,0,1-2.146,4.717,42.32,42.32,0,0,1-5.044,6.93,25.752,25.752,0,0,1,1.015-5.634,21.136,21.136,0,0,1,1.524-4.326,21.589,21.589,0,0,0,1.831-3.679l.177-.469a3.3,3.3,0,0,0,.1-.359l.1-.411c.134-.549.285-1.048.377-1.6.212-1.085.389-2.063.55-2.989L232.1,411l1.274,1.178.869.776c1.164,1.015,2.339,1.954,3.493,2.858l3.371,2.64,2.173,1.744q.33-.726.646-1.417l1.19-2.409c.788-1.561,1.571-3.026,2.384-4.39a36.067,36.067,0,0,1,2.189-3.225A14.181,14.181,0,0,0,251.131,406.341Z" /><path class="cls-3" d="M253.728,416.651c-.782.134-7.188-5.8-9.906-7.814l-.411-.306-.205-.12-.358-.2a2.957,2.957,0,0,0-.53-.251q.016.587.031,1.19c-.143,1.164-.358,2.458-.581,3.676-.455,2.469-1.014,4.895-1.521,7.2q-.392,1.779-.78,3.541-.692,3.294-1.369,6.527l-4.866-3.6-2.361-1.718-4.5-3.269a62.263,62.263,0,0,1-7.333-6.236c3.5.61,9.115,2.858,10.806,4.276l3.87,3.231c1.6,1.284,1.622,1.457,2.38,2.123.143-.4.293-.885.458-1.45l.76-2.893c.493-1.893.957-3.718,1.36-5.486s.746-3.479,1.02-5.136c.065-.416.131-.829.195-1.238.1-.6.185-1.21.264-1.829q.242-1.89.475-3.712c.9.767,1.848,1.635,2.766,2.453l2.285,2.071c1.146,1.051,2.227,2.082,3.232,3.11A54.637,54.637,0,0,1,253.728,416.651Z" /><path class="cls-3" d="M232.534,420.357c.309-.077.566.238.819.42a.5.5,0,0,0,.333.12c.01.021.074-.058.039.036.03-.056.034-.093.042-.1a1.079,1.079,0,0,0,.044-.113.618.618,0,0,0,.031-.218.193.193,0,0,0-.008-.047l.02.058a1.245,1.245,0,0,0,.087.188.933.933,0,0,0,.284.325c.087.054.1.016-.034.039a1.505,1.505,0,0,0-.357.129c-.091.043-.194.1-.34.182l-.251.152-.07.045h-.009a1.243,1.243,0,0,1-.182-.117,4.006,4.006,0,0,0-.392-.237,5.472,5.472,0,0,1-.979-.643l2.44-1.939a.389.389,0,0,0,.084-.019.216.216,0,0,0-.088.061.588.588,0,0,0-.127.3,2,2,0,0,0,.177,1.032,2.21,2.21,0,0,1-1.846,1.272c-.725.041-1.336-.389-1.367-.755a4.667,4.667,0,0,1,.076-1.575l.649-2.816,1.242,1.4c.533.6.972,1.075,1.4,1.506l.61.628a5.261,5.261,0,0,1,.595.7,1.455,1.455,0,0,1,.23.759,1.5,1.5,0,0,1-.283.871,1.979,1.979,0,0,1-1.054.734,1.927,1.927,0,0,1-1.134.006,1.623,1.623,0,0,1-.876-.641,1.185,1.185,0,0,1-.139-1.055A2.516,2.516,0,0,1,232.534,420.357Z" /><path class="cls-3" d="M244.025,413.966c.4-.211.757.138,1.106.387l-.659-.355a.319.319,0,0,0-.025-.231c-.1-.244-.292-.27-.013-.156a.831.831,0,0,0,.1.026l.056.011.031,0-.375-.036a.925.925,0,0,0-.176.007,2.684,2.684,0,0,0-.4.078.1.1,0,0,1-.067-.014.814.814,0,0,1-.247-.345l3.635-.287c-.11.23-.674.434-1.249,1.269a2.965,2.965,0,0,1-2.106.008c-.533-.228-.789-.618-.646-.811a18.484,18.484,0,0,1,1.2-1.465L245.94,410l.033,1.917c.012.7.507,1.334.357,2.32a2.078,2.078,0,0,1-.582,1.147,1.542,1.542,0,0,1-1.239.449l-.818-.1-.11-.4a.871.871,0,0,1-.027-.144C243.476,414.933,243.913,414.139,244.025,413.966Z" /><path class="cls-3" d="M223.024,433.5c.625.037.6.463.979.594a2.058,2.058,0,0,1,1.034.689c.343.364-.063.854-.953,1.585-1.592.478-2.832.451-2.6.223.958-.879.985-1.264.8-1.643-.181-.361-.561-.7-.305-1.016C222.043,433.777,222.836,433.535,223.024,433.5Z" /><path class="cls-3" d="M229.44,433.048c.627-.065.657.412,1.021.585a1.612,1.612,0,0,1,.927,1.142c.224.705-.447,1.328-1.6,1.415-1.557-.583-2.656-1.02-2.355-1.044,1.215-.134,1.356-.542,1.238-.842-.118-.317-.48-.544-.231-.786A5.24,5.24,0,0,1,229.44,433.048Z" /><path class="cls-3" d="M234.8,432.162c.629-.012.634.483,1,.651a1.843,1.843,0,0,1,1,1.01c.305.591-.193,1.219-1.261,1.682-1.661-.076-2.843-.347-2.559-.487,2.28-1.126.295-1.753.794-2.367C233.836,432.508,234.613,432.22,234.8,432.162Zm1.4,1.36h0" /><path class="cls-3" d="M239.476,430.53c.613.128.528.641.886.846a2.46,2.46,0,0,1,.974.942c.327.464-.078.991-.941,1.8-1.6.454-2.879.3-2.646.039.946-.988.989-1.451.826-1.941-.158-.466-.5-.929-.2-1.291C238.459,430.738,239.284,430.546,239.476,430.53Z" /><path class="cls-3" d="M245.241,427.707c.606-.177.773.416,1.179.558a2.057,2.057,0,0,1,1.22,1.181c.409.783-.068,1.7-1.154,2.206-1.657-.2-2.838-.453-2.557-.595,1.127-.6,1.147-1.152.939-1.536-.21-.4-.64-.65-.474-1.029C244.417,428.333,245.084,427.826,245.241,427.707Z" /><path class="cls-3" d="M249.983,427.211c.624-.088.665.365,1.031.523a1.532,1.532,0,0,1,.933,1.105c.221.695-.467,1.3-1.618,1.324-1.537-.634-2.632-1.066-2.334-1.069,1.21-.059,1.355-.445,1.234-.713-.12-.289-.483-.48-.238-.7A6.3,6.3,0,0,1,249.983,427.211Z" /><path class="cls-3" d="M253.688,424.905c.617-.122.7.326,1.089.413a1.743,1.743,0,0,1,1.141.739c.391.482,0,1.14-.983,1.749-1.646.225-2.85.188-2.593.011,2.071-1.426.021-1.643.418-2.289C252.8,425.389,253.516,424.99,253.688,424.905Zm1.589.986h0" /></g><path class="cls-2 color-sweater" d="M208.549,405.126a8.8,8.8,0,0,1-2.136-2.46l1.194-.1c-.48,1.76-1.218,4.108-2.089,6.756-.442,1.322-.91,2.721-1.391,4.161-.541,1.578-1.1,3.2-1.656,4.827l-1.057,3.015-1.085,2.975-.543,1.491c-.015.109-.064.008-.1-.03l-.12-.141-.241-.283-.479-.564-1.874-2.222c-1.232-1.448-2.409-2.932-3.5-4.327l-2.108-2.669q-1.846-2.325-3.605-4.859l-1.273-1.55c-.03-.088-.073.024-.112.094l-.115.212-.208.4c-.13.259-.243.5-.341.72l-.135.319a1.791,1.791,0,0,1-.116.246l-.288.547q-.573,1.095-1.1,2.217t-1.019,2.265l-.183.415-.229.554-.452,1.119c-.314.733-.584,1.537-.867,2.33-1.089,3.222-2.179,6.931-3.232,10.319-.347-.436-.773-1.158-1.186-1.828l-1.234-2.012-2.468-4.041c-.826-1.355-1.649-2.772-2.457-4.206l-1.791-3.242q-1.266-2.334-2.43-4.679l-.993-2.015a.284.284,0,0,0-.074-.058.091.091,0,0,0-.045-.012.307.307,0,0,0-.06.126s0,0-.006.014l-.355.345-.81.818q-.8.828-1.557,1.688c-.259.281-.5.58-.746.868-.275.318-.371.448-1,1.231a48.751,48.751,0,0,0-2.93,4.232c-1.88,3.1-3.885,6.639-5.677,9.672q-1.354-4.875-2.691-9.682c-.442-1.611-.869-3.245-1.269-4.888-.383-1.569-.849-3.611-.944-4.118q-.255-1.281-.506-2.551l-.234-1.268a.525.525,0,0,1,.009-.113c.018-.139.031-.332.039-.6-.068-.081-.241.01-.425.068l-.153.065c-.045.017-.176.111-.265.166a.917.917,0,0,0-.086.059l-.205.169-.409.337c-.275.221-.535.457-.8.684-3.318,2.8-7.195,8.206-10.175,11.932l-.2-.69a2.2,2.2,0,0,1-.094-.367l-.056-.59q-.108-1.158-.213-2.3-.18-2.185-.356-4.314c-.218-2.76-.3-5.479-.254-7.974l.012-.439.017-.315.036-.626q.045-.621.088-1.234.1-1.224.231-2.4c.176-1.572.4-3.082.654-4.53.386,1.32.768,2.792,1.162,4.354l.6,2.4.309,1.24.157.626a5.25,5.25,0,0,0,.156.563,4.875,4.875,0,0,0,1.136,2,.616.616,0,0,0,.469.168.5.5,0,0,0,.2-.078c.016-.013.029-.014.048-.04l.076-.166.139-.307c.524-1.161.591-1.545.563-1.7l.048-.1c.013-.021,0-.019.034-.057l.282-.286c.372-.378.735-.73,1.091-1.048l.262-.236.318-.275.85-.7c.525-.441,1.1-.856,1.616-1.22,1.47-1.055,2.9-1.909,4.234-2.725l1.969-1.2.962-.583a6.857,6.857,0,0,1,.889-.5c.457,3.523.863,6.875,1.323,9.91l.174,1.132.081.52.042.317.175,1.264q.193,1.258.384,2.5c.028.179.086.49.077.511l.015.232.042.5c.034.344.079.715.135,1.107l.2,1.237.12.658a1.7,1.7,0,0,0,.07.3l.134-.184c.385-.538.858-1.152,1.4-1.8.272-.327.56-.656.873-1l.385-.444.435-.482q.431-.486.878-.951.882-.941,1.8-1.821c.3-.295.609-.589.923-.871l.556-.511.644-.563c.854-.757,1.719-1.435,2.574-2.108l1.284-.991.646-.49.322-.244c.053-.038.109-.088.159-.116l.121.019,1.64,3.9.83,1.9.712,1.561q1.227,2.646,2.538,5.168l.66,1.253.531.982q.422.741.836,1.47l.834,1.387.412.66.205.322.05.08c.014,0,.021-.058.032-.084l.06-.2c.316-1.084.662-2.109,1.025-3.063l.275-.7.137-.343.216-.49q.551-1.243,1.152-2.442t1.238-2.36l.326-.589.481-.806c.324-.543.647-1.086.992-1.6.672-1.064,1.373-2.056,2.075-3.065l1.065-1.506.542-.757.271-.379c.047-.078.089-.113.128-.12l.123-.058,2.66,4.72c.443.795.907,1.548,1.36,2.32l.685,1.122.45.715q1.812,2.844,3.678,5.49.668.938,1.323,1.856l.863,1.182.451.609.231.313c.055-.039.092-.185.139-.273l.564-1.243c.132-.312.285-.639.463-1l.307-.619.524-1.155c.716-1.555,1.492-3.162,2.256-4.693,1.527-3.062,3.006-5.822,3.861-7.263l.246-.414.189.376C208.116,404.042,208.394,404.727,208.549,405.126Z" transform="matrix(-1, 0, 0, 1, 380, 0)" /></svg>