<svg xmlns="http://www.w3.org/2000/svg" id="uniforms_1" viewBox="0 0 380 600"><defs transform="matrix(-1, 0, 0, 1, 380, 0)"><style>.cls-1{fill:#f9a;}.cls-2{fill:#ffffff;}.cls-3{fill:#ff3881;}.cls-4{fill:#f2ddc8;}</style></defs><g id="cape_yellow" transform="matrix(-1, 0, 0, 1, 380, 0)"><path class="cls-1 color-suit0032" d="M196.5,366.5c12.14-.66,15.49-4.68,27.6-4.1,20.11,26.06,63.25,45.64,96.13,42.19-4.49,9.41-17.06,23-26.46,27.49-38,19.5-88,20.56-121.07-12.35" /><path d="M172.74,419.7c.63.24,3,2.44,6.77,5.39a92.74,92.74,0,0,0,15,9.49l2.29,1.12,2.35,1c1.57.73,3.21,1.3,4.82,1.93a89.56,89.56,0,0,0,9.74,2.92A88.62,88.62,0,0,0,230.28,444a124.49,124.49,0,0,0,57.38-11.84c.91-.41,1.82-.85,2.72-1.32s1.85-.91,2.67-1.36a37.28,37.28,0,0,0,4.81-3.08,78.14,78.14,0,0,0,15.94-16.73l.7-1c.21-.31.53-.82.43-.67l0-.05v0l-.38,0-.38,0H314l-1.32,0-5.29-.09a117.59,117.59,0,0,1-20.52-3.31,131.7,131.7,0,0,1-36.17-15.74,120,120,0,0,1-14.88-11c-1.09-1-2.19-2-3.27-3.05-.53-.51-1.09-1-1.6-1.52l-1.49-1.6c-1-1.06-2-2.11-2.94-3.17s-1.77-2.23-2.65-3.32l-.32-.42-.08-.09,0,0-.05-.07a1.39,1.39,0,0,0-.22-.29l-.37,0h-.1l-.23,0-.48,0-1.92,0-1.89.06a46.26,46.26,0,0,0-7.35,1.13c-2.42.55-4.86,1.12-7.26,1.47a50.76,50.76,0,0,1-7,.56c2-.44,4.23-1,6.55-1.67s4.69-1.64,7.22-2.57a40.89,40.89,0,0,1,8.18-2.18c.72-.11,1.45-.22,2.18-.27s1.41-.13,2.23-.15l1.74,0c.14,0,.32-.06.42,0l.29.32.58.64.62.68.35.37.71.74a110.19,110.19,0,0,0,11.27,10.28c1.79,1.43,3.53,2.65,5,3.83.73.59,1.46,1.09,2.13,1.56s1.27.92,1.8,1.32a121.12,121.12,0,0,0,27.63,15.53,109.71,109.71,0,0,0,29,7.4c1.2.11,2.4.29,3.6.35l3.58.11,1.79,0h.44c.15,0,.39,0,.57,0l1.2-.05,4.72-.21,1.17-.05.58,0s.13,0,.11,0l-.07.14-.14.27L320.86,406c-.79,1.4-1.52,2.78-2.45,4.15a67.88,67.88,0,0,1-4.23,5.73,86.66,86.66,0,0,1-9.51,10,59.37,59.37,0,0,1-5.28,4.24,38,38,0,0,1-5.76,3.45,126.32,126.32,0,0,1-46.88,13.56,97.38,97.38,0,0,1-42.36-5.52,78.65,78.65,0,0,1-19.75-10.88c-1.51-1.16-2.95-2.28-4.22-3.42-.65-.57-1.28-1.09-1.86-1.63l-1.62-1.55c-1-1-1.9-1.88-2.59-2.63Z" /></g><g id="hero_red" transform="matrix(-1, 0, 0, 1, 380, 0)"><path class="cls-2 color-body" d="M160.41,391.94c-7.58,9.52-14.23,22.32-22.21,41.3-8.86,21.06-18.83,37.36-29.71,32.7C94.87,460.11,99,429.32,104,414.85c6-17.58,19.42-51,47.78-60,10.88-3.44,14.23,11.57,14.23,11.57" style="fill:#ffffff;--backup-fill:#ffffff" /><path d="M166,366.44c-.44-.39-1.22-3-3.31-6.14a11.88,11.88,0,0,0-4.52-4.17,7.33,7.33,0,0,0-3.27-.64,9,9,0,0,0-1.76.24l-.89.26-.95.35A49.18,49.18,0,0,0,137,364.47a57.36,57.36,0,0,0-9.41,9.67c-7.36,9.66-13.09,21.5-17.59,33.91-.57,1.56-1.11,3.12-1.64,4.69s-1.07,3.18-1.52,4.67a91,91,0,0,0-2.21,9.4,85.68,85.68,0,0,0-1.43,18.77,44.3,44.3,0,0,0,1,7.62,18.39,18.39,0,0,0,2.6,6.28,7.48,7.48,0,0,0,4.29,3.11,5,5,0,0,0,2.32,0,8.35,8.35,0,0,0,2.52-1.07,22.12,22.12,0,0,0,5-4.61,57.9,57.9,0,0,0,4.35-6.08,135.52,135.52,0,0,0,7.19-13.29c1.09-2.26,2.1-4.48,3.14-6.75s2.08-4.49,3.13-6.67c2.11-4.37,4.27-8.56,6.49-12.52a107.9,107.9,0,0,1,14.29-20.4c-1.43,3.13-3.13,6.87-4.82,10.91s-3.38,8.38-5,12.61c-3.2,8.46-6.1,16.46-8.13,20.5-4.17,8.26-8.37,16.25-13.84,23.36a43.7,43.7,0,0,1-4.53,5,21.48,21.48,0,0,1-5.74,4,13.34,13.34,0,0,1-3.54,1,11.6,11.6,0,0,1-3.72-.14,13,13,0,0,1-6.19-3.36,16.85,16.85,0,0,1-3.67-5.53,29,29,0,0,1-1.78-6,56.61,56.61,0,0,1-.83-11.81,103.66,103.66,0,0,1,3.1-22c.44-1.75.92-3.48,1.48-5.18s1.11-3.31,1.68-4.94q1.72-4.87,3.64-9.53a131.88,131.88,0,0,1,8.7-17.44A83.69,83.69,0,0,1,127.42,368a64.55,64.55,0,0,1,6.52-5.92,56.56,56.56,0,0,1,7.13-4.7,43.08,43.08,0,0,1,8.36-3.51l1.19-.34a12,12,0,0,1,1.25-.32,11.77,11.77,0,0,1,2.73-.27,9.47,9.47,0,0,1,5.1,1.66,12.14,12.14,0,0,1,3.25,3.46,18.73,18.73,0,0,1,1.75,3.55A23.3,23.3,0,0,1,166,366.44Z" /><path class="cls-3 color-suit003" d="M160.41,391.94a99.86,99.86,0,0,0-6.7,9.64,11.54,11.54,0,0,1-1.57,2.36,3,3,0,0,1-2.1.91c-2.2.1-4.9-1.32-6.89-2.12a36.19,36.19,0,0,1-13.56-8.8A21.29,21.29,0,0,1,123.93,379c.1-2.27.54-5.16,2.24-6.8,7.59-7.33,15.31-14.09,25.61-17.34,10.88-3.44,14.23,11.57,14.23,11.57" /><path d="M166,366.44c-.36-.15-.87-1.28-1.69-2.86a21.06,21.06,0,0,0-3.66-5.29,8.76,8.76,0,0,0-2.84-1.92,6.54,6.54,0,0,0-3.16-.45,9.49,9.49,0,0,0-1.52.29l-.71.25c-.24.08-.5.2-.74.3a24.24,24.24,0,0,0-2.51,1.18,70.07,70.07,0,0,0-13.92,10.43c-2.21,2.06-4.37,4.23-6.51,6.43a4.93,4.93,0,0,0-.78,2.23,15.4,15.4,0,0,0-.11,3.59,18.4,18.4,0,0,0,2.87,8.16,23.91,23.91,0,0,0,6.17,6.33,37.92,37.92,0,0,0,3.84,2.45c.66.38,1.33.73,2,1.08l1,.51,1.09.51c1.57.76,2.81,1.43,3.9,1.83a6.27,6.27,0,0,0,1.24.34c.05,0,.08,0,.08,0,0,.21.1.32.08.26L150,402h0l.14-.06A2.88,2.88,0,0,0,151,401l.3-.43.33-.46.61-.8c.81-1.05,1.63-2.06,2.44-3a59.18,59.18,0,0,1,4.86-5,67.4,67.4,0,0,1-1.85,7.12c-.39,1.26-.8,2.54-1.22,3.79l-.32.93c-.06.23-.14.52-.26.86a7.4,7.4,0,0,1-1.39,2.48,6.16,6.16,0,0,1-1.85,1.47,6.75,6.75,0,0,1-2.3.69,10,10,0,0,1-3.19-.13,12,12,0,0,1-3.59-1.29c-1-.6-1.67-1-2.73-1.59s-1.92-1.13-2.85-1.71a51.31,51.31,0,0,1-5.28-3.84,35.92,35.92,0,0,1-4.48-4.5,25.65,25.65,0,0,1-3.34-5.2A23.46,23.46,0,0,1,122.39,379a16.16,16.16,0,0,1,1.15-5.62,8.57,8.57,0,0,1,.78-1.37,7.4,7.4,0,0,1,.51-.63l.28-.3.22-.22,1.79-1.76a83.13,83.13,0,0,1,14.56-12,42.27,42.27,0,0,1,7.86-3.79l1-.33c.33-.11.66-.22,1.06-.32a10.71,10.71,0,0,1,2.33-.39,10.09,10.09,0,0,1,4.68.78,9.93,9.93,0,0,1,3.81,3,15.06,15.06,0,0,1,2.32,4.25A20.63,20.63,0,0,1,166,366.44Z" /></g><g data-name="hero_red" id="hero_red-2" transform="matrix(-1, 0, 0, 1, 380, 0)"><path class="cls-4" d="M239.64,463.87h0c-.82-7.14-2.46-16.13-4.76-22.34-13.64-36.84,9-78.79-30.64-91.82-29.14-9.57-59.41,5.74-75.67,54.17-5.89,17.56-7.77,42.31-3.48,60h0" /><path d="M125,463.89c-.41-.51-1.42-3.5-2.2-8.06a101.05,101.05,0,0,1-1.25-17.25,135.41,135.41,0,0,1,1.69-19.92,126.12,126.12,0,0,1,3.64-16,124.81,124.81,0,0,1,8.31-21.25,85.92,85.92,0,0,1,13.59-19.87A58.59,58.59,0,0,1,169,347.1a50.6,50.6,0,0,1,24.31-3.68,58,58,0,0,1,10.35,2,52.39,52.39,0,0,1,9.83,3.9,35.9,35.9,0,0,1,8.75,6.43,31.75,31.75,0,0,1,6.25,8.89c3.08,6.5,4.08,13.3,4.51,19.66s.29,12.53.23,18.43-.08,11.59.24,17.06a92.11,92.11,0,0,0,2.17,15.59c.14.61.29,1.23.43,1.83s.35,1.2.52,1.79l1.09,3.68a75.53,75.53,0,0,1,1.62,7.38,118.51,118.51,0,0,1,1.5,13.7c-1.27-3.74-2.72-8.31-4.47-13.09-.88-2.39-1.84-4.83-2.92-7.17-.55-1.11-1.14-2.42-1.7-3.69s-1-2.59-1.53-3.88a78.46,78.46,0,0,1-4.27-26.33c.28-10.76,1.22-21,.11-30.55a38.06,38.06,0,0,0-3.8-13.34,27.37,27.37,0,0,0-8.9-9.79,43.05,43.05,0,0,0-12.12-5.44,50.4,50.4,0,0,0-12.84-1.91A45,45,0,0,0,164.75,355a60.85,60.85,0,0,0-17.07,15.67,84.41,84.41,0,0,0-6.16,9.29c-1,1.56-1.76,3.19-2.62,4.78s-1.63,3.2-2.33,4.83c-.37.81-.73,1.62-1.09,2.42s-.68,1.62-1,2.43c-.69,1.6-1.28,3.24-1.89,4.84s-1.14,3.23-1.71,4.82-1,3.17-1.47,4.76a135,135,0,0,0-3.79,18.8c-.39,2.91-.75,6.38-1.08,10s-.5,7.42-.5,11A102.18,102.18,0,0,0,125,463.89Z" /></g><g data-name="hero_red" id="hero_red-3" transform="matrix(-1, 0, 0, 1, 380, 0)"><path class="cls-2 color-body" d="M234.88,441.53c-13.64-36.84,9-78.79-30.64-91.82-29.14-9.57-59.41,5.74-75.67,54.17-5.89,17.56-7.77,42.31-3.48,60h0s6,17.25,50.16,20c42.25,2.63,64.39-20,64.39-20h0C238.82,456.73,237.18,447.74,234.88,441.53Z" style="fill:#ffffff;--backup-fill:#ffffff" /></g><path class="cls-3 color-suit003" d="M172.25,463.87c37.8,2.35,59.49-15.5,63.64-19.29-.32-1.07-.66-2.1-1-3.05-9.91-26.77-.65-56.23-10.06-75.34C202.46,376.8,162.46,397,162.46,397s-12-20.18-13.33-31c-8,9.1-15.1,21.62-20.56,37.88-4,12-6.16,27.25-5.77,41.38C125.32,449.4,135.74,461.6,172.25,463.87Z" transform="matrix(-1, 0, 0, 1, 380, 0)" /><path d="M172.25,463.93a17.41,17.41,0,0,1-3.57.12c-1,0-2.09,0-3.36-.12l-4.22-.38c-1.54-.11-3.19-.4-4.95-.64s-3.61-.62-5.53-1l-1.46-.3-1.48-.38-3-.79c-2-.65-4.11-1.27-6.16-2.13a44.54,44.54,0,0,1-11.92-6.75,29.09,29.09,0,0,1-2.59-2.39c-.39-.45-.8-.86-1.17-1.34l-.57-.74c-.22-.29-.42-.62-.63-.93a2,2,0,0,1-.29-.48l0-.56,0-1.09-.05-1.66c0-1.1,0-2.19,0-3.26a149.12,149.12,0,0,1,1.87-21.9,102.32,102.32,0,0,1,3.16-14,143.52,143.52,0,0,1,5-13.82,113,113,0,0,1,6.81-13.5c.67-1.09,1.33-2.18,2-3.25.35-.54.7-1.08,1.08-1.61L142,370c.32-.45.64-.9,1-1.32l2-2.59c.68-.87,1.37-1.66,2.06-2.49l2.11-2.52,1.07-1.27.27-.32.23-.22.44-.42.75,4,.41,2.13.2,1.07.11.53.12.48,1,3.82c.08.32.18.63.28.93l.26.7.35.92q1.44,3.69,3.2,7.34c1.17,2.42,2.39,4.84,3.68,7.22l1.95,3.55.23.41,0,0,.06.09.11.16,25.77-13,23.55-11.77,5.85-2.9,2.71-1.34c.95-.48,1.92-.94,2.88-1.4l1.45-.69.72-.35s0,0,.06,0l0,.1.08.18.15.37,1.25,3,1.24,3a12.24,12.24,0,0,1,.57,1.44l.3,1c.33,1.13.71,2.26,1,3.39l.69,3.38c.24,1.13.32,2.25.49,3.36.34,2.25.41,4.44.6,6.64s.19,4.35.2,6.47c.07,4.29,0,8.45.05,12.57a142.19,142.19,0,0,0,1.67,23.62l.23,1.41.31,1.38.63,2.75c.44,1.81,1.06,3.55,1.57,5.33l1.41,4.54.18.59.1.29a.19.19,0,0,0,0,.07l-.07.05-.12.11-1,.85c-.67.59-1.27,1.07-1.89,1.58l-.92.76a3.39,3.39,0,0,1-.35.27l-.3.22-1.21.89c-.81.57-1.63,1.11-2.45,1.67a83.83,83.83,0,0,1-10.09,5.52c-1.73.74-3.42,1.53-5.16,2.14l-2.57,1-2.6.81a92.55,92.55,0,0,1-20.24,3.84l-4.83.28-4.7,0c-.78,0-1.54,0-2.3-.05l-2.26-.16-4.41-.34a167.44,167.44,0,0,0,18.22-2.72A107.14,107.14,0,0,0,210.27,456,90.37,90.37,0,0,0,227,446.56c1.15-.85,2.26-1.65,3.26-2.47l.75-.6.12-.12.09-.09h0l-.06-.18-.07-.25c-.34-1.08-.64-2.08-.89-3a86.89,86.89,0,0,1-2.52-13c-.18-2.15-.42-4.29-.52-6.41s-.23-4.22-.22-6.3c-.16-8.34.28-16.41.15-24.2a95.14,95.14,0,0,0-.76-11.44c-.14-.93-.33-1.84-.49-2.75l-.26-1.37c-.1-.45-.24-.88-.36-1.33l-.66-2.38-.55-1.4-.14-.36a.67.67,0,0,0-.07-.17l-.17.07-.67.31-1.54.72-5.07,2.43-10,4.82q-19.77,9.57-37.95,18.64l-5.58,2.76-.78.39-.2.09s-.05,0-.07,0l-.05-.1-.23-.37-.87-1.5-1.65-2.9q-2.44-4.38-4.64-8.81c-1.45-2.95-2.83-5.91-4-8.94-.31-.75-.58-1.52-.87-2.28-.2-.5-.3-.87-.45-1.3a17.74,17.74,0,0,1-.64-2.48l0-.21s0-.21-.07-.09l-.29.34-.56.69c-.36.46-.72.91-1,1.37l-.5.68-.63.91c-.59.83-1.12,1.69-1.69,2.53A106.07,106.07,0,0,0,137.69,387c-1.73,3.55-3.26,7.14-4.63,10.74s-2.62,7.21-3.62,10.76a125.71,125.71,0,0,0-3.88,21.38c-.34,3.51-.55,7-.63,10.42l0,2.56v1.23c0,.2-.05.42,0,.6a5.27,5.27,0,0,0,.37.56c.23.3.44.62.7.91a23.14,23.14,0,0,0,1.58,1.72,42.53,42.53,0,0,0,10.76,7.21,78.93,78.93,0,0,0,13.71,5A160,160,0,0,0,172.25,463.93Z" transform="matrix(-1, 0, 0, 1, 380, 0)" /><g data-name="hero_red" id="hero_red-4" transform="matrix(-1, 0, 0, 1, 380, 0)"><path class="cls-3 color-suit003" d="M259,440.07c-1.14-18.56-3.92-46-22.5-62.52-15.91-14.11-22.11-3.87-24.33-.71s-5.63,16-1.42,26.09,7.75,25.3,10.38,45.72c2.91,22.66,8.17,41,19.89,39.46C255.75,486.12,260,455.34,259,440.07Z" /><path class="cls-2 color-body" d="M210.79,402.93c4.77,11.19,7.75,25.3,10.38,45.72,2.91,22.66,8.17,41,19.89,39.46,14.69-2,18.92-32.77,18-48-1.14-18.56-3.92-46-22.5-62.52-15.91-14.11-24.32-.71-24.32-.71" style="fill:#ffffff;--backup-fill:#ffffff" /><path d="M212.16,376.81a4.94,4.94,0,0,1,1.13-2,12.7,12.7,0,0,1,3.82-3.15,12.86,12.86,0,0,1,6.86-1.53,19.83,19.83,0,0,1,7.88,2.5,31.52,31.52,0,0,1,3.62,2.4l1.72,1.34c.57.45,1.07,1,1.61,1.46a35.24,35.24,0,0,1,3.06,3.05l1.41,1.58.7.78.63.83a69.55,69.55,0,0,1,7.46,11.87c5.77,11.25,8.54,24.7,9.84,38,.17,1.67.32,3.34.45,5s.25,3.47.28,5.17a99.71,99.71,0,0,1-.36,10.25,85.88,85.88,0,0,1-3.94,19.87,43.24,43.24,0,0,1-3.79,8.28,26.74,26.74,0,0,1-2.87,3.9,18.17,18.17,0,0,1-3.92,3.37,14.73,14.73,0,0,1-5.08,2.1,13.2,13.2,0,0,1-10.89-2.29,17.9,17.9,0,0,1-3.65-3.62,33.33,33.33,0,0,1-4.34-7.95,66.49,66.49,0,0,1-2.53-8,131.54,131.54,0,0,1-2.82-15.48c-.65-5.08-1-9.86-1.6-14.53s-1.12-9.16-1.78-13.46a138.87,138.87,0,0,0-5.32-23.2,55.42,55.42,0,0,1,5.95,10.1,97.72,97.72,0,0,1,4.82,12.78,110,110,0,0,1,4.5,21.66c.28,4.42.67,8.74,1.26,12.95A83.65,83.65,0,0,0,228.81,473a40.69,40.69,0,0,0,2.07,5.55,19.3,19.3,0,0,0,2.94,4.7,9.76,9.76,0,0,0,1.89,1.71,7,7,0,0,0,2.15,1,8.13,8.13,0,0,0,4.8-.17c3.19-1,5.71-3.86,7.54-7a42.65,42.65,0,0,0,4.17-10.07,88,88,0,0,0,3.1-20.92c.06-1.71.06-3.4,0-5.08s-.19-3.31-.32-5q-.39-5-1-9.8a126.4,126.4,0,0,0-3.57-18.24,78.93,78.93,0,0,0-6.24-15.94A57.68,57.68,0,0,0,237.18,381l-1.32-1.35c-.23-.23-.46-.48-.7-.71l-.77-.67-1.58-1.4c-.54-.47-1.15-.85-1.73-1.3a17.21,17.21,0,0,0-7.87-3.38,11.86,11.86,0,0,0-7.35,1.54A14.85,14.85,0,0,0,212.16,376.81Z" /></g><path class="cls-3 color-suit003" d="M210.79,402.93c.93,2.19,2.08,4.58,2.25,6.86a7.51,7.51,0,0,0,.15,1.94,5.56,5.56,0,0,0,2.72,3.17,11.5,11.5,0,0,0,6.5.86c6.88-.66,13.34-3.4,19.32-6.76,3.08-1.73,6.07-3.64,9-5.6,2.34-1.57,1.31-2.5.21-5.11a57,57,0,0,0-14.41-20.74c-15.91-14.11-24.32-.71-24.32-.71" transform="matrix(-1, 0, 0, 1, 380, 0)" /><path d="M212.16,376.81c-.13-.36.37-1.53,1.6-2.9a12.86,12.86,0,0,1,5.91-3.67,14.54,14.54,0,0,1,8.17.19,30,30,0,0,1,6.08,2.6,43,43,0,0,1,13.65,12.15,60.34,60.34,0,0,1,5,8c.37.68.7,1.39,1,2.08s.63,1.33.94,2l.34.7c.14.32.3.64.43,1a7.21,7.21,0,0,1,.56,1.94,5.28,5.28,0,0,1-.87,3.71,7,7,0,0,1-1.14,1.3c-.42.38-1,.77-1.4,1.07l-1.84,1.25c-1,.71-2.12,1.4-3.2,2.08-2.15,1.34-4.36,2.61-6.65,3.75a47.35,47.35,0,0,1-14.29,4.71,34.94,34.94,0,0,1-3.64.34,19.75,19.75,0,0,1-3.81-.14,11.9,11.9,0,0,1-4-1.23,8.59,8.59,0,0,1-3.22-3,8,8,0,0,1-.91-2.05,5,5,0,0,1-.19-1.14,5.42,5.42,0,0,1,0-.57c0-.2,0-.37,0-.48a7.29,7.29,0,0,0,0-2.24,44,44,0,0,0-1.08-4.87,17.7,17.7,0,0,1,4,4.08,9.93,9.93,0,0,1,.82,1.52,7.8,7.8,0,0,1,.32.9c.09.32.15.62.22.8a1.68,1.68,0,0,0,.53.56,5.18,5.18,0,0,0,.7.42,3,3,0,0,0,.75.27l.35.05.4,0a11.87,11.87,0,0,0,1.68,0c1.17-.08,2.41-.25,3.32-.22a31.82,31.82,0,0,0,10.77-1.57,55.41,55.41,0,0,0,9.83-4.27q2.31-1.26,4.49-2.62l1.72-1.08a1.27,1.27,0,0,0,.74-1.25,3,3,0,0,0-.24-.73l-.35-.77-1-2.22c-.66-1.44-1.38-2.81-2.13-4.14A51.57,51.57,0,0,0,236,380a43.62,43.62,0,0,0-6-4.41,19.64,19.64,0,0,0-6.06-2.34,18.57,18.57,0,0,0-3.29-.19,17.36,17.36,0,0,0-1.85.24,14.29,14.29,0,0,0-1.83.55A15.4,15.4,0,0,0,212.16,376.81Z" transform="matrix(-1, 0, 0, 1, 380, 0)" /><path class="cls-1 color-suit0032" d="M234.91,373.88c-17.06-21.9-55.78,7.28-72.12,19.88-10.29-13.32-9.88-26.16-5.4-37.46-19.44,10.85-11.29,32.34,5.35,41,24.22-6.36,46.89-20,72.19-22.61" transform="matrix(-1, 0, 0, 1, 380, 0)" /><path d="M234.93,374.76a10.24,10.24,0,0,1-2.2.6l-2.09.39c-.79.15-1.67.37-2.62.57a135.77,135.77,0,0,0-14.08,3.83c-10.53,3.42-22.14,8.41-28.64,11.15-5.61,2.41-11.5,4.79-17.71,6.8l-2.34.72-1.46.44c-.65.15-1.37.61-1.95.05-1.47-.78-2-1.05-2.76-1.54s-1.46-.93-2.18-1.41a35.56,35.56,0,0,1-7.6-7.26,32.9,32.9,0,0,1-2.9-4.5,28.57,28.57,0,0,1-2.05-5.05,21.68,21.68,0,0,1-.36-11.09,20.94,20.94,0,0,1,2.09-5.25l.74-1.19c.12-.2.26-.38.4-.57l.69-.91a15.36,15.36,0,0,1,1.53-1.66c.52-.51,1-1.06,1.57-1.53a49.25,49.25,0,0,1,6.21-4.26l3.3-2,2.39-1.41c-.46,1.28-.89,2.45-1.32,3.62l-.91,2.51-.85,2.41-.85,2.42-.52,2.12-.51,2.1c0,.18-.09.36-.12.53s0,.15-.06.33v.12l-.06.48c-.08.64-.19,1.28-.22,1.92a30.74,30.74,0,0,0,.3,7.61,33.61,33.61,0,0,0,2.14,7.26l.78,1.74c.28.57.6,1.12.9,1.68a16.08,16.08,0,0,0,1,1.65l.84,1.35s0,0,0,0h0l.16-.12,1.63-1.22c2.17-1.61,4.35-3.2,6.55-4.73,4.39-3.06,8.82-5.93,13.3-8.49a105.44,105.44,0,0,1,13.6-6.67,56.08,56.08,0,0,1,13.9-3.8,28.07,28.07,0,0,1,13.48,1.27,21,21,0,0,1,9.52,7.57,22.69,22.69,0,0,0-10.28-5.43,26.17,26.17,0,0,0-6.39-.39,36.68,36.68,0,0,0-6.42,1.1A68,68,0,0,0,201,373c-3.37,1.58-6.19,3.06-8.18,4a148.1,148.1,0,0,0-16.54,9.41c-2.62,1.7-5.17,3.45-7.67,5.22L166.75,393l-2.63,1.94-1.42,1.05-.17.13-.09.06-.06-.1-.26-.36-.51-.73-2-2.86A39.29,39.29,0,0,1,153.36,375a36,36,0,0,1,.16-8.81l.16-1.07c0-.22.08-.42.12-.63.09-.41.16-.83.28-1.24.21-.83.46-1.64.74-2.45l.39-1.06c.17-.29-.12,0-.25,0l-.47.28a15.28,15.28,0,0,0-1.79,1.28,12.61,12.61,0,0,0-1.58,1.52,8.27,8.27,0,0,0-.66.83,14.39,14.39,0,0,0-.9,1.35,16.73,16.73,0,0,0-1.82,12.32,25.83,25.83,0,0,0,5.77,10.92,33.37,33.37,0,0,0,4.39,4.19l1.2.9,1.24.84c.41.27.84.51,1.26.78.21.12.42.25.64.36l.4.22c.11,0,.22.16.34.13l.38-.11,1.28-.38c1-.29,1.93-.54,2.87-.86,1.88-.62,3.76-1.2,5.59-1.87,3.67-1.26,7.23-2.65,10.73-4,7-2.7,13.65-5.37,20.2-7.59a121.85,121.85,0,0,1,17.75-4.7c1.53-.24,3-.53,4.38-.7l3.83-.44C232.31,374.89,234.06,374.8,234.93,374.76Z" transform="matrix(-1, 0, 0, 1, 380, 0)" /><polygon class="cls-1 color-suit0032" points="160.92 403.14 149.83 415.19 136.84 412.65 143.49 426.59 139.06 439.58 153.32 434.2 168.21 444.97 165.04 428.18 178.03 417.72 163.46 416.45 160.92 403.14" transform="matrix(-1, 0, 0, 1, 380, 0)" /><path d="M161,403.14a23,23,0,0,1,1.19,4.27c.26,1.19.57,2.58.9,4.08s.61,2.86.93,4.39l16.28,1.17L175.57,421l-9,7.76.09.31.2.92c.15.69.29,1.38.44,2.08.29,1.38.58,2.78.88,4.18.32,1.59.65,3.19,1,4.79q.76,3.94,1.55,7.88L153,436.36l0,0-6.59,2.55-10.62,4,3.63-10.58c.67-1.91,1.34-3.8,2-5.67q-3.91-8.5-7.55-16.37l6.23,1.3,3.7.81,3.19.72,1.57.36.38.09.17.05.26.08.29-.26.79-.8,1.54-1.55,3-3,5.53-5.41c-1.11,1.85-2.61,4.06-4.27,6.38-.83,1.16-1.71,2.35-2.6,3.53l-1.35,1.77-.69.89-1.23,1.47-1.72-.26-1.07-.14-1.91-.24c-1.25-.17-2.45-.34-3.56-.52l-1.59-.26-.15,0h0l-.08-.06,0,0c-.1-.06-.14,0-.12.19.5,1.2,1,2.39,1.51,3.57l1.51,3.53.75,1.74.38.86.6,1.33q-1.33,3.56-2.61,7l-.6,1.6-.28.78-.16.4c-.22.57-.43,1.14-.65,1.7l2-.67,3.49-1.27,7.39-2.74,8,5.75,5.61,4q-1.6-8-3.07-15.3l11.25-9.18-6-.62-2.68-.29-3.77-.45-.23-1.48-.18-1.24c-.09-.7-.18-1.41-.28-2.11-.17-1.39-.34-2.76-.5-4C161.27,405.92,161,403.93,161,403.14Z" transform="matrix(-1, 0, 0, 1, 380, 0)" /></svg>