<svg xmlns="http://www.w3.org/2000/svg" id="uniforms_1" viewBox="0 0 380 600"><defs transform="matrix(-1, 0, 0, 1, 380, 0)"><style>.cls-1{fill:#fff8b8;}.cls-2{fill:#ffffff;}.cls-3{fill:#0c3744;}.cls-4{opacity:0.4;}</style></defs><path class="cls-1 color-bodyarmor" d="M97.29,420.17c8.11,5.54,2.76,15.67-3.93,15.67-3.68,0-8.31-2.92-12.47-11C83.87,424.08,91.14,417.38,97.29,420.17Z" transform="matrix(-1, 0, 0, 1, 380, 0)"></path><path d="M97.28,420.2c-.18.13-.76,0-1.6-.12a10.07,10.07,0,0,0-3.12.16A18.28,18.28,0,0,0,86.47,423l-2.25,1.58-.6.41a2.49,2.49,0,0,0-.35.24,2.22,2.22,0,0,1-.29.22c0,.1.18.24.24.33l.12.13.38.56c.55.82,1.13,1.6,1.73,2.35a16.91,16.91,0,0,0,4,3.7,8.72,8.72,0,0,0,2.8,1.17,4.46,4.46,0,0,0,1.35.09l.66-.06.65-.17a7.7,7.7,0,0,0,4.9-6.18,7.06,7.06,0,0,0,0-1.3l-.06-.64a4.71,4.71,0,0,0-.16-.62,9.9,9.9,0,0,0-2.64-4.2,6.68,6.68,0,0,1,2.71.91,8,8,0,0,1,.73.45c.21.19.43.39.64.6a4.92,4.92,0,0,1,.63.66c.17.25.35.5.51.77a7.39,7.39,0,0,1,1.09,3.36,5.9,5.9,0,0,1-.34,2.59,11.18,11.18,0,0,1-2.72,4,10.32,10.32,0,0,1-3.82,2.35,8.59,8.59,0,0,1-4.22.31,10.58,10.58,0,0,1-3.63-1.44,20.3,20.3,0,0,1-5.13-4.77c-.68-.87-1.31-1.75-1.88-2.64l-.45-.7c-.19-.31-.37-.63-.55-1l-.55-1-.28-.48c-.07-.16-.23-.35-.18-.45.66-.23,1.37-.51,2-.8.16-.08.32-.15.47-.24l.37-.2.58-.35c.76-.46,1.53-.92,2.3-1.36A21.35,21.35,0,0,1,90,419.21a9.38,9.38,0,0,1,4.39-.23,4.57,4.57,0,0,1,1,.28,7.69,7.69,0,0,1,.84.34C96.77,419.88,97.11,420.09,97.28,420.2Z" transform="matrix(-1, 0, 0, 1, 380, 0)"></path><g id="default" transform="matrix(-1, 0, 0, 1, 380, 0)"><path class="cls-2 color-body" d="M160.41,391.44c-7.58,9.52-14.23,22.32-22.21,41.3-8.86,21.06-18.83,37.36-29.71,32.7-13.62-5.83-16.27-35.89-15.27-55.78,1.15-23,12.25-51.32,38.87-58.08,17.73-4.51,27,11,27,11" style="fill:#ffffff;--backup-fill:#ffffff"></path><path d="M159,362.59c-.54-.26-2.21-2.49-5.33-5A29.1,29.1,0,0,0,148,354a22.88,22.88,0,0,0-7.64-1.9,24.94,24.94,0,0,0-8.36,1,40.56,40.56,0,0,0-7.9,3.15,42.67,42.67,0,0,0-6.44,4.2,41.24,41.24,0,0,0-4.55,4.28c-8.38,9.28-13.53,22.23-15.5,35.58a82.94,82.94,0,0,0-.9,10.09c-.1,3.43-.09,6.87,0,10.27a124.72,124.72,0,0,0,2.16,19.86,71.52,71.52,0,0,0,2.09,8.06,37.22,37.22,0,0,0,3.14,7.23,15.74,15.74,0,0,0,4.5,5.16l.64.41.66.33a7,7,0,0,0,1.25.44,5.3,5.3,0,0,0,2.41,0,12.48,12.48,0,0,0,5.33-3.39,41.33,41.33,0,0,0,4.82-5.87,112.78,112.78,0,0,0,7.79-13.63c1.16-2.34,2.26-4.67,3.32-7s2.15-4.69,3.24-7c2.17-4.57,4.39-9,6.69-13.11s4.66-8.07,7.12-11.67a90.72,90.72,0,0,1,7.67-9.74c-1.52,3.25-3.32,7.14-5.1,11.35s-3.54,8.75-5.21,13.18c-3.35,8.86-6.31,17.19-8.48,21.5s-4.45,8.54-6.89,12.6a76.19,76.19,0,0,1-8.25,11.54,29.19,29.19,0,0,1-5.42,4.82,15.32,15.32,0,0,1-3.36,1.76,11.88,11.88,0,0,1-3.85.82,11.63,11.63,0,0,1-3.91-.53,14.72,14.72,0,0,1-3.35-1.65,19,19,0,0,1-5-4.93,40.51,40.51,0,0,1-5.34-11.79,87.14,87.14,0,0,1-2.52-12,154.16,154.16,0,0,1-1.41-23.11c0-15,3.3-29.21,9.85-40.88a52.93,52.93,0,0,1,12.39-15,43.21,43.21,0,0,1,16.21-8.35c.68-.17,1.36-.4,2.13-.52l2.38-.38a16.06,16.06,0,0,1,2.53-.16l1.3,0c.44,0,.88.09,1.32.13a23,23,0,0,1,9.94,3.31,26.89,26.89,0,0,1,6.64,5.83A23.06,23.06,0,0,1,159,362.59Z"></path></g><path class="cls-3 color-bodyarmor2" d="M136.91,427.56c-14.4,6.57-27,2.42-40.57-5.79-.75,9.51.48,14,3,21.79,4.29,5.74,17.33,13.95,30.86,7.67,7.92-3.68,9.43-14.38,6.76-22.7" transform="matrix(-1, 0, 0, 1, 380, 0)"></path><path d="M136.94,428.52a10.68,10.68,0,0,1,1.19,3.39,23.3,23.3,0,0,1,.4,7.46,18,18,0,0,1-2.89,8.25,14.21,14.21,0,0,1-5.58,4.72,23.6,23.6,0,0,1-9.71,2.53A26.41,26.41,0,0,1,110,453.16a29.78,29.78,0,0,1-9.18-5.37,24.4,24.4,0,0,1-2-1.86l-1-1.14a2.07,2.07,0,0,1-.5-1l-.2-.59c-.51-1.57-1-3.15-1.46-4.75a41.16,41.16,0,0,1-1.52-8.64c-.09-1.45-.12-2.9-.08-4.33v-.27l0-.4.06-1,.11-2,.15-2,.07-1c0-.08,0-.19,0-.23l.22.12.43.26,3.48,2,1.56.91.86.48c1.14.67,2.31,1.25,3.45,1.86a64.35,64.35,0,0,0,6.9,3,35.17,35.17,0,0,0,25.18-.09c-.66.49-1.42,1-2.27,1.58s-1.81,1-2.83,1.49l-1.59.64-.82.32-.85.24-1.73.49-1.76.32a26.15,26.15,0,0,1-11.6-.61,66.4,66.4,0,0,1-12.35-5.71L99.48,425c-.43-.26-1-.62-1.1-.68l-.61-.41-.32-.22s-.12-.1-.16-.09l0,.16-.09.71,0,.39v.2a1.38,1.38,0,0,0,0,.27c0,1-.08,2-.07,3a40.12,40.12,0,0,0,1.83,11.3q.41,1.35.81,2.67l.21.66a.87.87,0,0,0,.19.41c.24.27.54.66.83,1a23.8,23.8,0,0,0,4,3.37,25.83,25.83,0,0,0,18.18,4.55c.72-.15,1.45-.22,2.15-.42l2.08-.6,2-.8a4.89,4.89,0,0,0,.92-.44c.29-.16.59-.31.87-.48a12.87,12.87,0,0,0,4.76-5.9,20.6,20.6,0,0,0,1.23-4,27.24,27.24,0,0,0,.53-4.58A31.13,31.13,0,0,0,136.94,428.52Z" transform="matrix(-1, 0, 0, 1, 380, 0)"></path><path class="cls-1 color-bodyarmor" d="M109.88,437.7c7.43-6.08,16.52,1,15,7-.82,3.33-7.84,8.65-17,10.59C107.85,452.46,105.68,442.63,109.88,437.7Z" transform="matrix(-1, 0, 0, 1, 380, 0)"></path><path d="M109.9,437.72a1.06,1.06,0,0,1-.15.56,9.76,9.76,0,0,0-.47,1,13.47,13.47,0,0,0-1,3.25,23.29,23.29,0,0,0,.06,7.19c.16.85.32,1.71.49,2.58l.06.34a1.48,1.48,0,0,0,.06.25l.07.22.12.35a4.89,4.89,0,0,0,.46-.19,1.1,1.1,0,0,1,.22-.11l.77-.27,1.52-.58,1.5-.66a30.45,30.45,0,0,0,5.49-3.22,19.07,19.07,0,0,0,2.68-2.41,7.27,7.27,0,0,0,.89-1.24,2.6,2.6,0,0,0,.15-.28l.08-.23c.06-.16.06-.4.11-.6a5.12,5.12,0,0,0-.55-2.64,8.28,8.28,0,0,0-7.16-4.36,10.29,10.29,0,0,0-5.11,1.44,7.19,7.19,0,0,1,1.8-2.43,8.1,8.1,0,0,1,3.29-1.73,7.89,7.89,0,0,1,6.19.9,12,12,0,0,1,3.49,3.88,8.57,8.57,0,0,1,1.15,4.82c-.06.41-.14.82-.22,1.22a5.13,5.13,0,0,1-.47,1.16,7.05,7.05,0,0,1-.63,1,7.32,7.32,0,0,1-.71.84,20.58,20.58,0,0,1-3.09,2.67,37.84,37.84,0,0,1-6.52,3.67c-1.09.47-2.17.89-3.25,1.26l-.83.26c-.38.12-.76.23-1.15.33-.77.19-1.59.44-2.31.57-.07-.73-.13-1.45-.19-2.16l-.21-1.81c-.12-.92-.22-1.83-.29-2.72a25,25,0,0,1,.09-5.2,12.66,12.66,0,0,1,1.43-4.39,10.4,10.4,0,0,1,1.2-1.7C109.43,438.14,109.74,437.86,109.9,437.72Z" transform="matrix(-1, 0, 0, 1, 380, 0)"></path><path class="cls-1 color-bodyarmor" d="M96.71,428.23c9.76-1.12,12.35,10,7.3,14.41-2.79,2.42-8.2,3.25-16.66-.17C89.13,440,90.24,430.16,96.71,428.23Z" transform="matrix(-1, 0, 0, 1, 380, 0)"></path><path d="M96.72,428.26c0,.22-.6.47-1.28,1a9.77,9.77,0,0,0-2.26,2.16,18.41,18.41,0,0,0-2.77,6.1c-.21.87-.44,1.76-.66,2.67l-.19.7a2.78,2.78,0,0,0-.11.41,2.3,2.3,0,0,1-.07.36,1.57,1.57,0,0,0,.4.09l.17,0,.65.18c1,.25,1.9.46,2.85.64a17.45,17.45,0,0,0,5.46.17,8.88,8.88,0,0,0,2.88-1,5,5,0,0,0,1.08-.82l.46-.48c.12-.19.24-.37.37-.55a7.28,7.28,0,0,0,.72-5.4,7.54,7.54,0,0,0-1.06-2.48,7.32,7.32,0,0,0-.84-1l-.47-.44a4.4,4.4,0,0,0-.52-.36,9.76,9.76,0,0,0-4.75-1.45,6.66,6.66,0,0,1,2.65-1.09,7.37,7.37,0,0,1,.84-.13l.88,0a5.49,5.49,0,0,1,.9.09l.9.24a7.54,7.54,0,0,1,3,1.84A5.76,5.76,0,0,1,107.4,432a11,11,0,0,1,.56,4.79,10.24,10.24,0,0,1-1.34,4.28,8.59,8.59,0,0,1-3,3,10.88,10.88,0,0,1-3.68,1.29,20.89,20.89,0,0,1-7-.24c-1.08-.22-2.13-.47-3.14-.77l-.8-.24-1-.36-1-.37-.52-.19c-.16-.07-.41-.11-.44-.22.35-.6.71-1.28,1-1.94.07-.16.14-.33.2-.49l.14-.4.22-.64c.27-.84.55-1.7.84-2.53a21.52,21.52,0,0,1,2.22-4.66,9.43,9.43,0,0,1,3.18-3.05,4.69,4.69,0,0,1,1-.46,8.12,8.12,0,0,1,.86-.3Z" transform="matrix(-1, 0, 0, 1, 380, 0)"></path><g data-name="default" id="default-2" transform="matrix(-1, 0, 0, 1, 380, 0)"><path class="cls-2 color-body" d="M239.64,465.34c-5-30.75,35-64.12-1.65-98.8-27.79-26.3-65.82-29.56-98.53-9.06-34.38,21.54-37,63.54-15.1,107" style="fill:#ffffff;--backup-fill:#ffffff"></path><path d="M124.3,464.52c-1.08-.92-7.47-12.22-11.56-26.65a104.82,104.82,0,0,1-2.58-11.16c-.37-1.89-.59-3.8-.86-5.68s-.4-3.76-.47-5.6a82.84,82.84,0,0,1,1-18.78,60.5,60.5,0,0,1,9.73-24.47,61.71,61.71,0,0,1,9.06-10.42,67.4,67.4,0,0,1,11.19-8.27,88.94,88.94,0,0,1,25.52-10.76,80.29,80.29,0,0,1,27.24-1.9l2.92.36c1,.15,2,.2,2.91.44l5.75,1.24,5.6,1.72a23.66,23.66,0,0,1,2.74,1l2.7,1.1a86.55,86.55,0,0,1,19.69,11.85c1.46,1.21,2.84,2.49,4.26,3.73a55.62,55.62,0,0,1,4.06,3.93c.33.35.66.67,1,1l.92,1.08,1.84,2.17c.57.75,1.12,1.53,1.68,2.3l.83,1.15c.27.39.5.81.76,1.21l1.47,2.44c.43.85.85,1.7,1.27,2.55a22.2,22.2,0,0,1,1.13,2.6c.33.89.73,1.75,1,2.66a42.09,42.09,0,0,1,2,10.95,48.64,48.64,0,0,1-.64,10.65,71.89,71.89,0,0,1-2.32,9.85c-1.89,6.31-4.29,12.07-6.44,17.58a131.05,131.05,0,0,0-5.45,15.9,43.16,43.16,0,0,0-1.4,14.82,35.9,35.9,0,0,1-1.56-15.48,105.35,105.35,0,0,1,3.65-18c1.61-5.87,3.28-11.44,4.4-16.24s1.8-8.82,2.21-11.57a43.3,43.3,0,0,0,.47-8.25,38.7,38.7,0,0,0-.46-4c-.13-.66-.2-1.34-.37-2l-.52-1.95A40.92,40.92,0,0,0,241,373.4,72.86,72.86,0,0,0,229.38,362l-3.17-2.47c-1.09-.76-2.23-1.46-3.33-2.19l-1.66-1.08c-.28-.18-.55-.37-.84-.53l-.87-.47-3.46-1.85a31.34,31.34,0,0,0-3.53-1.64L209,350.29c-1.22-.42-2.44-.8-3.65-1.2a37.08,37.08,0,0,0-3.65-1.08,68.35,68.35,0,0,0-7.38-1.48l-3.69-.51c-1.23-.09-2.47-.13-3.69-.19A75.37,75.37,0,0,0,158.85,350l-6.38,2.53-6.05,3-5.72,3.37c-1.83,1.19-3.61,2.4-5.29,3.73a58.07,58.07,0,0,0-15.79,18.68,63.41,63.41,0,0,0-6.6,21.9,88.28,88.28,0,0,0-.51,11,102.79,102.79,0,0,0,.8,10.63c.46,3.3,1.1,7.19,1.94,11.24s2,8.21,3.14,12.1C120.75,455.84,123.46,462.36,124.3,464.52Z"></path></g><path class="cls-2 color-body" d="M234.88,441c-13.64-36.84,9-78.79-30.64-91.82-29.14-9.57-59.41,5.74-75.67,54.17-5.89,17.56-7.77,42.31-3.48,60h0s6,10.25,50.16,13c42.25,2.63,64.39-13,64.39-13h0C238.82,456.23,237.18,447.24,234.88,441Z" transform="matrix(-1, 0, 0, 1, 380, 0)" style="fill:#ffffff;--backup-fill:#ffffff"></path><g class="cls-4" transform="matrix(-1, 0, 0, 1, 380, 0)"><path d="M181.14,486.33c-.73-.66-.14-11.82-.22-16.17a61,61,0,0,1,.78-12.23,25,25,0,0,1,2-6.4,16,16,0,0,1,4.34-5.42,20.92,20.92,0,0,1,4.9-2.93,43.88,43.88,0,0,1,5-1.85c3.28-1,6.46-1.79,9.5-2.47,6.08-1.35,11.59-2.36,16.08-3-3.27,3.08-10.43,6.51-13.19,6.88a78.66,78.66,0,0,0-15.23,3.33,17.54,17.54,0,0,0-5.88,3.35,12.82,12.82,0,0,0-3.43,5.19,29.83,29.83,0,0,0-1.4,5.91c-.3,2-.45,3.89-.61,5.76-.29,3.74-.47,7.25-.83,10.53A78.83,78.83,0,0,1,181.14,486.33Z"></path></g><g class="cls-4" transform="matrix(-1, 0, 0, 1, 380, 0)"><path d="M140.31,477c-.16,0-.64-.27-1.17-.89a9.25,9.25,0,0,1-1.54-2.6,35.72,35.72,0,0,1-1.48-6.08c-.53-2.43-.79-5.09-1.46-7.41l-.43-2c-.12-.63-.32-1.23-.46-1.84a31.24,31.24,0,0,0-1.18-3.5c-3-7.86-9.11-13.95-12.73-18.56a16.4,16.4,0,0,1,5,2A11.8,11.8,0,0,1,128.3,439a51.61,51.61,0,0,1,8.1,17.77c.17.7.28,1.39.42,2.07l.09.48.11.44c.09.34.17.68.23,1,.27,1.33.42,2.61.56,3.83.26,2.44.42,4.67.75,6.67a22.69,22.69,0,0,0,.7,3.36,4.42,4.42,0,0,0,.28.8c.11.24.19.49.29.69C140.05,476.53,140.22,476.85,140.31,477Z"></path></g><g class="cls-4" transform="matrix(-1, 0, 0, 1, 380, 0)"><path d="M183,464.88c-.18,0-.66-.26-1.3-.75s-1.45-1.2-2.39-1.85-1.87-1.42-2.83-2a18.47,18.47,0,0,0-2.44-1.41,60.76,60.76,0,0,0-14.93-5.24,59.71,59.71,0,0,0-12.84-1,80.41,80.41,0,0,0-10.71,1.14,14.63,14.63,0,0,1,4.57-3.2,12.54,12.54,0,0,1,2.62-1,7.13,7.13,0,0,1,2-.32,74,74,0,0,1,10.9,1.11c1.68.25,3.27.66,4.82,1l2.25.61,1.1.3,1.07.36c5.64,1.84,10.37,4.22,13.83,7.21a21.68,21.68,0,0,1,2.65,2.79C182.14,463.67,182.78,464.58,183,464.88Z"></path></g><g class="cls-4" transform="matrix(-1, 0, 0, 1, 380, 0)"><path d="M161,424.75c.33-.25,2.67.29,5.39.75,1.36.25,2.81.5,4.15.65a28.86,28.86,0,0,0,3.42.33l2.34.11,2.41.06c1.61.08,3.26,0,4.91.08,3.3,0,6.62-.11,9.76-.41,5.49-.47,10.87-1.24,15.77-2.15s9.31-1.94,12.9-2.72a23.16,23.16,0,0,1-5.4,3.78,21.78,21.78,0,0,1-3,1.34,12.85,12.85,0,0,1-2.29.65,238.26,238.26,0,0,1-24.3,1.85,78.14,78.14,0,0,1-18.62-1.58,35.62,35.62,0,0,1-4.38-1.42C162.62,425.49,161.4,424.94,161,424.75Z"></path></g><g class="cls-4" transform="matrix(-1, 0, 0, 1, 380, 0)"><path d="M153.12,422.75c-.38.57-6.63.19-9.07.28a61.44,61.44,0,0,1-13.69-1.12,34.85,34.85,0,0,1-10.9-3.77,18.48,18.48,0,0,1-4.18-3.2,11.14,11.14,0,0,1-2.45-3.78c1.27.63,2.77,1.37,4.16,1.93a16.21,16.21,0,0,1,3.19,1.53,24.18,24.18,0,0,0,7.54,3.95,43.53,43.53,0,0,0,7.49,1.68c4.77.65,9,.69,12.6,1.2A33.28,33.28,0,0,1,153.12,422.75Z"></path></g><path class="cls-3 color-bodyarmor2" d="M203.5,392c-23.3,24.38-57.07,37.66-89.11,46.5,2,5.71,3.22,10.53,5.75,15.6,41.6-2.33,78.1-25.35,109.66-58.39" transform="matrix(-1, 0, 0, 1, 380, 0)"></path><path d="M229.82,395.71a57.13,57.13,0,0,1-4.63,5.23c-1.3,1.43-2.94,3-4.67,4.7-.87.85-1.77,1.76-2.72,2.65l-3,2.73-3.08,2.81-3.22,2.74c-1.08.91-2.14,1.84-3.22,2.71l-3.22,2.54L199,424.24l-2.94,2.15c-1.87,1.37-3.53,2.63-5,3.59-2.53,1.73-5.08,3.54-7.81,5.16l-4.09,2.5L174.93,440l-2.15,1.17c-.72.39-1.47.72-2.2,1.09l-4.46,2.14c-1.49.71-3.05,1.29-4.58,1.95s-3.06,1.32-4.65,1.84c-3.16,1.1-6.3,2.26-9.54,3.1-1.62.44-3.21,1-4.84,1.32l-4.88,1.08c-1.62.4-3.26.62-4.9.88s-3.25.53-4.88.75l-4.87.45-3.4.31-.58.05c-.1-.16-.17-.34-.26-.51l-.51-1-.48-1-.26-.55a80.82,80.82,0,0,1-3-7.93c-.43-1.31-.87-2.63-1.3-3.95l-1.26-3.77c0-.07-.09-.18,0-.22l.25-.07.49-.15,1-.28,2-.56,4.07-1.16,3.88-1.17c2.59-.75,5.13-1.6,7.67-2.4A268.51,268.51,0,0,0,160,420.15a171.36,171.36,0,0,0,24.45-13.59,137.8,137.8,0,0,0,18.64-15c-1,1.27-2.13,2.67-3.38,4.17s-2.72,2.95-4.2,4.53-3.2,3-4.86,4.57-3.51,2.92-5.26,4.36A107.69,107.69,0,0,1,166.72,421c-16.35,7.69-32.45,12.86-47.69,17.12l-2.65.73-.81.21s-.09,0-.08,0l0,.1.07.2.13.41c.55,1.74,1.11,3.47,1.65,5.19s1.21,3.58,1.91,5.31c.18.43.35.85.54,1.28l.28.63.23.5.19.39a1.14,1.14,0,0,0,.1.19l.21,0,1-.09,5.46-.47c1.8-.21,3.57-.53,5.33-.78l2.64-.4,2.58-.56,5.1-1.11a146.36,146.36,0,0,0,35.79-14.67,216.84,216.84,0,0,0,27.85-19.23c1.92-1.6,4.28-3.4,6.6-5.43,1.19-1,2.39-2,3.59-3s2.34-2.07,3.48-3.06l3.24-2.86,2.76-2.57Z" transform="matrix(-1, 0, 0, 1, 380, 0)"></path><path class="cls-3 color-bodyarmor2" d="M146.2,352.37c-51,48,46.44,110.88,92.24,88.08-1.72,13.19-1.56,24.79-25.22,25.27-24.8.5-49.86-9.08-69.55-27.05C129,425.25,117.67,406.1,119,386c1.19-14.86,13.33-29.93,27-35.95.82-.36,2.29.5,1.46.87" transform="matrix(-1, 0, 0, 1, 380, 0)"></path><path d="M147.46,350.92c.07-.06.22-.16.16-.29a1,1,0,0,0-.55-.37,1.41,1.41,0,0,0-.91,0c-.33.15-.74.38-1.16.6l-1.4.72-1.54.94a18.81,18.81,0,0,0-1.71,1.1c-.58.41-1.21.81-1.82,1.28a51.22,51.22,0,0,0-14.82,17.55,37.54,37.54,0,0,0-3.86,12.7,49.09,49.09,0,0,0,.7,13.15A53.21,53.21,0,0,0,124,409.77l.51,1.27c.2.4.39.8.58,1.2.37.78.74,1.55,1.1,2.28.81,1.43,1.48,2.79,2.23,4a88.12,88.12,0,0,0,19.95,22.47,105.21,105.21,0,0,0,26.91,15.89,99.65,99.65,0,0,0,15.06,4.74,97.63,97.63,0,0,0,15.55,2.17,65.57,65.57,0,0,0,15.34-.67,25.54,25.54,0,0,0,3.54-.93,15.25,15.25,0,0,0,1.68-.62l1.58-.77a13,13,0,0,0,4.78-4.63,17.1,17.1,0,0,0,1.29-2.69,28.11,28.11,0,0,0,.84-3,58.32,58.32,0,0,0,1-6.41l0-.32h0s0,0,0,0h0l-.21.08-.81.32c-.54.22-1.1.37-1.65.56-1.09.39-2.22.66-3.33,1a67.52,67.52,0,0,1-27,.54,102.5,102.5,0,0,1-25-7.73,106.17,106.17,0,0,1-21.59-12.94,81.55,81.55,0,0,1-16.77-17.22,48.73,48.73,0,0,1-8.73-20.91,35.61,35.61,0,0,1,3.34-20.6,45.05,45.05,0,0,1,5.23-8.19,63.12,63.12,0,0,1,6.3-6.61,68,68,0,0,0-5.44,6.82,45.54,45.54,0,0,0-4.74,8.68,35.72,35.72,0,0,0-2.5,10.14,34,34,0,0,0,.7,10.51,47.72,47.72,0,0,0,8.37,17.73,84.54,84.54,0,0,0,9.63,10.89,101.83,101.83,0,0,0,35,21.83,94.63,94.63,0,0,0,19.22,5,66.24,66.24,0,0,0,19.17.09,46.75,46.75,0,0,0,9.05-2.31c.57-.21,1.83-.69,2.79-1.15l1.51-.67.75-.34.09,0s.05,0,0,0l0,.21-.05.41c-.25,2-.51,3.93-.76,5.89a38.89,38.89,0,0,1-2.11,9.16,15.72,15.72,0,0,1-5.79,7.39l-1,.66c-.33.21-.69.35-1,.53a15.37,15.37,0,0,1-2.12.94l-2.18.73-2.22.49c-.37.08-.74.18-1.11.24l-1.12.14-2.22.28c-1.49.12-3,.17-4.43.26A95.55,95.55,0,0,1,196,465.26a101,101,0,0,1-31.13-10.49A107,107,0,0,1,140,436.64a80.26,80.26,0,0,1-16.7-23.49c-3.87-8.5-5.9-17.61-5.31-26.39l0-.79c0-.27.07-.54.1-.81.08-.55.15-1.1.22-1.67.19-1.12.47-2.26.75-3.43a41,41,0,0,1,2.68-7,48.32,48.32,0,0,1,8.89-12.46,47.56,47.56,0,0,1,10.38-8.14l2.28-1.24,2-.91a4.44,4.44,0,0,1,.89-.35,1.75,1.75,0,0,1,.83.11,1.35,1.35,0,0,1,.57.41A.27.27,0,0,1,147.46,350.92Z" transform="matrix(-1, 0, 0, 1, 380, 0)"></path><g data-name="default" id="default-3" transform="matrix(-1, 0, 0, 1, 380, 0)"><path class="cls-2 color-body" d="M210.79,402.43c4.77,11.19,7.75,25.3,10.38,45.72,2.91,22.66,8.17,41,19.89,39.46,14.69-2,26.8-32.1,30.27-47,3.78-16.27,9.07-47.8-11.5-68.07-15.14-14.92-32.87-1.65-32.87-1.65" style="fill:#ffffff;--backup-fill:#ffffff"></path><path d="M226.92,370.83c.25-.56,2.44-2.43,6.29-4.15a28.58,28.58,0,0,1,6.95-2.06,23.21,23.21,0,0,1,13.14,1.7,25.37,25.37,0,0,1,4.11,2.35c.66.43,1.25.95,1.88,1.42s1.18,1,1.73,1.55l1.6,1.61c.52.54,1,1.11,1.49,1.65a53.36,53.36,0,0,1,8.09,12.62,61.18,61.18,0,0,1,5.26,20.1,96.19,96.19,0,0,1-.56,21.5c-.47,3.57-1.09,7.12-1.82,10.63a100.69,100.69,0,0,1-2.74,10.51,123.15,123.15,0,0,1-8.07,19.65,59.42,59.42,0,0,1-10.83,15.29c-.57.58-1.23,1.11-1.85,1.66s-1.31,1.06-2.06,1.52a19.94,19.94,0,0,1-4.79,2.42l-1.34.42-1.41.27a13.32,13.32,0,0,1-3,.17,13,13,0,0,1-5.84-1.71,16.34,16.34,0,0,1-4.27-3.6,25.87,25.87,0,0,1-2.83-4.12,46,46,0,0,1-3.53-8.42A107.82,107.82,0,0,1,219,457.36c-.39-2.68-.71-5.32-1-7.93s-.54-5.08-.8-7.57c-.55-5-1.14-9.75-1.83-14.33a140.74,140.74,0,0,0-5.61-24.66,58.12,58.12,0,0,1,6.15,10.8,107.28,107.28,0,0,1,4.92,13.63,125.83,125.83,0,0,1,4.59,23c.35,4.68.86,9.25,1.63,13.68a62.1,62.1,0,0,0,3.37,12.61,23.59,23.59,0,0,0,2.88,5.3,10.83,10.83,0,0,0,1.89,2,7.35,7.35,0,0,0,2.19,1.33,7,7,0,0,0,2.46.47,9.72,9.72,0,0,0,2.64-.37,15.46,15.46,0,0,0,5-2.59,37.56,37.56,0,0,0,8-8.73,78.46,78.46,0,0,0,5.88-10.22,113.87,113.87,0,0,0,7.83-21.18c3.45-14.18,4.8-28,2.8-40.43a55.59,55.59,0,0,0-5.54-17.06,47.93,47.93,0,0,0-4.6-7.12,43.07,43.07,0,0,0-5.57-5.9,23.79,23.79,0,0,0-7.24-4.17,22.59,22.59,0,0,0-9.22-1.11,32.48,32.48,0,0,0-12.87,4Z"></path></g><g class="cls-4" transform="matrix(-1, 0, 0, 1, 380, 0)"><path d="M251.33,433.13c.12-.35,1.82-.85,3.69-1.63a25.22,25.22,0,0,0,4.9-2.69,40.94,40.94,0,0,0,9.66-10.08,36.77,36.77,0,0,0,4.64-10.28,16.82,16.82,0,0,0,.1-9.09,7.49,7.49,0,0,1,3.1,4.09,8.33,8.33,0,0,1,.38,4.5,41,41,0,0,1-4.13,9.1,44.74,44.74,0,0,1-5.06,6.93,28.67,28.67,0,0,1-11.36,8.26c-.46.17-1,.33-1.6.48s-1.22.21-1.8.29A25,25,0,0,1,251.33,433.13Z"></path></g><g class="cls-4" transform="matrix(-1, 0, 0, 1, 380, 0)"><path d="M105,410.08c-.23.16-1.06-.25-1.89-.93a13.94,13.94,0,0,1-1.22-1.07l-1-.93a13.72,13.72,0,0,1-4-6.67,13.55,13.55,0,0,1-.32-6.51,10.26,10.26,0,0,1,2.28-4.79,12.9,12.9,0,0,1,1.06,2.73,3.22,3.22,0,0,1,.14,1.91,9.71,9.71,0,0,0,0,8.24,30.66,30.66,0,0,0,3.54,5.42,7.71,7.71,0,0,1,.85,1.43C104.65,409.41,104.89,409.91,105,410.08Z"></path></g><path class="cls-1 color-bodyarmor" d="M213,369.33c-23.68,25.21,4.28,52.56,23.52,69.73,13,11.63,34.67,3.72,49-3.33,16.25-10.6-4.9-56.69-16.62-67.32C253.93,351,228.52,357.94,213,369.33Z" transform="matrix(-1, 0, 0, 1, 380, 0)"></path><path d="M213,369.31a34.9,34.9,0,0,1,6.33-4.48,58,58,0,0,1,14.85-6.15,41.86,41.86,0,0,1,18.58-.78,31.23,31.23,0,0,1,8,2.85,31.92,31.92,0,0,1,5.79,3.88c.64.58,1.31,1.15,1.93,1.78l.91,1,.23.24c.06.06.05,0,0,0l.11.11.49.46a35.45,35.45,0,0,1,3.58,4,82.09,82.09,0,0,1,6,8.94,115.74,115.74,0,0,1,9.22,19.95,83.91,83.91,0,0,1,3,10.78,46.1,46.1,0,0,1,1.08,11.28l-.07,1.45-.19,1.44a24.23,24.23,0,0,1-.58,2.89,17.17,17.17,0,0,1-2.65,5.46c-.32.41-.69.78-1,1.16a7.2,7.2,0,0,1-1.16,1l-.62.48-.36.27c-.09.06-.19.1-.28.15l-.17.08-1.21.59c-1.61.79-3.24,1.53-4.87,2.25a83.11,83.11,0,0,1-17.78,5.72c-6.12,1.14-12.68,1.34-18.8-.78a24.36,24.36,0,0,1-8.23-4.86c-2.18-2-4.34-3.95-6.43-5.95a150.74,150.74,0,0,1-11.79-12.42,79,79,0,0,1-9.32-13.56,40.56,40.56,0,0,1-4.77-14.85,29.26,29.26,0,0,1,.22-7.44,26.93,26.93,0,0,1,2.06-6.79,34.67,34.67,0,0,1,7.44-10.54,39.43,39.43,0,0,0-6.06,11.16,27.12,27.12,0,0,0-.86,14.08c.19,1.17.55,2.3.84,3.42s.72,2.19,1.18,3.22a50.14,50.14,0,0,0,2.83,5.78c2,3.51,4.05,6.34,5.41,8.31,5.61,7.9,12.33,14.74,19.07,21.09.84.79,1.7,1.6,2.53,2.35a21.39,21.39,0,0,0,2.59,2A22.29,22.29,0,0,0,246,443a32.91,32.91,0,0,0,12.84.75,63.47,63.47,0,0,0,12.39-2.9,108,108,0,0,0,11.51-4.64l1.38-.66.68-.33.29-.14.26-.2c.37-.3.76-.57,1.11-.88l1-1a14,14,0,0,0,2.46-5.08,25.09,25.09,0,0,0,.73-5.66,43.14,43.14,0,0,0-.35-5.69,84.27,84.27,0,0,0-6.1-21.18,111.28,111.28,0,0,0-9.66-18.27,44.89,44.89,0,0,0-6-7.53c-.15-.15-.24-.22-.51-.51l-.4-.43-.79-.86c-.55-.55-1.11-1.08-1.68-1.6a29.74,29.74,0,0,0-3.67-2.72,31.16,31.16,0,0,0-16.76-4.51,49.18,49.18,0,0,0-9.24,1,59.65,59.65,0,0,0-9.79,2.88A66.93,66.93,0,0,0,213,369.31Z" transform="matrix(-1, 0, 0, 1, 380, 0)"></path><path class="cls-3 color-bodyarmor2" d="M265.72,367c-10.08-8.21-24.14-3.63-34.69,1.46-31.94,11.51-12.28,38.34,4.52,54.26,11.64,15.25,30.48,12.05,46,5.49,17.15-7.39-8.28-52.73-17.84-61.67" transform="matrix(-1, 0, 0, 1, 380, 0)"></path><path d="M263.77,366.47a22,22,0,0,1,4.48,4.66,101.57,101.57,0,0,1,7.45,11.11,131.16,131.16,0,0,1,7,13.76,90.4,90.4,0,0,1,4.34,11.94,39.48,39.48,0,0,1,1.52,8.69,15.81,15.81,0,0,1-2.1,9.27c-.26.35-.54.68-.81,1a5.15,5.15,0,0,1-.43.5l-.5.42a12.93,12.93,0,0,1-1,.81l-1.14.64a9.4,9.4,0,0,1-1.09.51l-1.06.44c-.71.3-1.42.6-2.14.86a71.49,71.49,0,0,1-8.87,2.81,54,54,0,0,1-9.34,1.41,38.28,38.28,0,0,1-9.54-.76,30.43,30.43,0,0,1-8.88-3.65A29.15,29.15,0,0,1,237.9,428c-.57-.54-1.19-1-1.71-1.62l-1.53-1.76-.33-.39-.16-.19,0,0,0,0s.1.11.07.07h0l-.66-.63-1.39-1.34c-.93-.9-1.83-1.83-2.73-2.75-1.78-1.87-3.5-3.79-5.15-5.78a68.29,68.29,0,0,1-8.59-12.81,37.6,37.6,0,0,1-2.76-7.26,23.23,23.23,0,0,1-.72-7.85,17.63,17.63,0,0,1,2.45-7.5,20.16,20.16,0,0,1,5.1-5.63,14,14,0,0,1,1.49-1.07c.51-.33,1-.69,1.53-1,1.05-.57,2.07-1.19,3.14-1.64l1.59-.72,1.61-.61,1.44-.54,1.52-.68a61.51,61.51,0,0,1,12.25-4.06,30.76,30.76,0,0,1,12-.34,20.34,20.34,0,0,1,9.78,4.68A21.74,21.74,0,0,0,256,363.32a26.14,26.14,0,0,0-2.94-.05c-1,.12-2,.12-3,.32a40.76,40.76,0,0,0-5.88,1.36,77.49,77.49,0,0,0-10.49,4.3l-1.12.57-.55.27-.14.06a1.92,1.92,0,0,1-.32.14l-.27.11-2,.83c-.64.26-1.2.56-1.74.8s-1,.45-1.46.69c-3.47,1.72-6.63,4-8.55,7.08a14.33,14.33,0,0,0-2,5,18.63,18.63,0,0,0-.1,5.43A32.23,32.23,0,0,0,219,400.63a63,63,0,0,0,5.94,9.18,95.71,95.71,0,0,0,6.95,8.1c1.21,1.27,2.43,2.51,3.68,3.71l.47.46c.06.05.1.11.15.16l.14.16.2.24.82,1a14.14,14.14,0,0,0,1.71,1.83,23.72,23.72,0,0,0,8.14,5.34,27.42,27.42,0,0,0,9.26,2,49.9,49.9,0,0,0,18-2.9c1.41-.45,2.78-1,4.15-1.51a28.22,28.22,0,0,0,3.81-1.73,9,9,0,0,0,3.71-6.47,26.14,26.14,0,0,0-.28-7.89,56.16,56.16,0,0,0-1.9-7.59,113.61,113.61,0,0,0-5.58-13.93c-2-4.15-4.84-9.78-7.71-14.53-1.43-2.38-2.84-4.54-4.06-6.24A35.92,35.92,0,0,0,263.77,366.47Z" transform="matrix(-1, 0, 0, 1, 380, 0)"></path><path class="cls-1 color-bodyarmor" d="M224.11,392.38c-4.91-4.51-5.1-10.36-1.73-14.9,4-5.42,11.66-10.08,16-13.43,3,8.65,4.87,15.42,3,23.72C239.79,394.84,228.57,396.49,224.11,392.38Z" transform="matrix(-1, 0, 0, 1, 380, 0)"></path><path d="M224.13,392.36a22.18,22.18,0,0,1,2.1.93,12.42,12.42,0,0,0,4.56.68,12.93,12.93,0,0,0,5.14-1.21,7.82,7.82,0,0,0,3.18-2.61l.37-.56.26-.61a5.63,5.63,0,0,0,.38-1.27c.18-.94.29-2,.38-3a29.76,29.76,0,0,0-.17-6.25A42.1,42.1,0,0,0,239,372.2c-.3-1-.62-2.05-1-3.06l-.51-1.51-.13-.37h0l0,0h0s0,0,0,.06l-2.15,1.56c-1.43,1-2.83,2-4.18,3.05a42.94,42.94,0,0,0-7.07,6.4,9.67,9.67,0,0,0-2.44,7.26,11.81,11.81,0,0,0,3,6.41,9.43,9.43,0,0,1-3.32-2.26,10,10,0,0,1-2.41-4.32,10.16,10.16,0,0,1,0-4.93,9.16,9.16,0,0,1,1.49-3.28,29.57,29.57,0,0,1,4.44-4.39c1.53-1.25,3.06-2.36,4.58-3.42s3-2,4.45-3l2.19-1.49c1-.7,1.94-1.39,2.86-2.08.39,1.11.77,2.25,1.13,3.35.27.84.54,1.66.8,2.48q.74,2.37,1.31,4.71a35.37,35.37,0,0,1,1.07,9.18,29.16,29.16,0,0,1-.41,4.34l-.19,1c-.08.35-.22.74-.32,1.1a4.34,4.34,0,0,1-.45,1.06,6.28,6.28,0,0,1-.57,1,9.6,9.6,0,0,1-3.2,2.85,12.55,12.55,0,0,1-3.73,1.36c-.45.1-.94.14-1.46.21s-1.06,0-1.61,0a12.17,12.17,0,0,1-3.26-.65l-.73-.26-.67-.34a6.21,6.21,0,0,1-1.11-.7,3.77,3.77,0,0,1-.77-.67Z" transform="matrix(-1, 0, 0, 1, 380, 0)"></path><path class="cls-1 color-bodyarmor" d="M249.84,382.86c-4.89-4.53-4.52-9.13-1.86-13.43,3.76-6.05,11.12-11.66,16.64-15.26,1.25,7.8,2.41,16.2,1.84,23.38S254.37,386.17,249.84,382.86Z" transform="matrix(-1, 0, 0, 1, 380, 0)"></path><path d="M249.86,382.84a20.66,20.66,0,0,1,2.17.69,14.75,14.75,0,0,0,4.58.41,13.5,13.5,0,0,0,5.05-1.29A6.5,6.5,0,0,0,264.6,380a5.44,5.44,0,0,0,.64-2.44c0-1,0-2,0-3.09-.08-2.08-.25-4.22-.48-6.36s-.52-4.29-.84-6.42q-.25-1.61-.51-3.18l-.13-.78c0-.19,0-.1,0-.13v0l0,0h0a.5.5,0,0,0-.05.07l-1.71,1.25c-1.39,1-2.74,2.09-4,3.17a48,48,0,0,0-6.85,6.81,18.39,18.39,0,0,0-2.34,3.6,8.54,8.54,0,0,0-.83,3.66,10.52,10.52,0,0,0,2.87,6.38,9.86,9.86,0,0,1-3.31-2.21,8.41,8.41,0,0,1-2.27-4.41,9.86,9.86,0,0,1,.4-4.87,10.22,10.22,0,0,1,1.59-3,51,51,0,0,1,8.75-8.27c1.49-1.15,3-2.23,4.45-3.25l2.41-1.63,3-1.91q.46,3.09.91,6c.22,1.58.44,3.13.65,4.65.39,3,.69,6,.81,8.79.06,1.41.06,2.8,0,4.16,0,.34,0,.68-.05,1s-.11.74-.17,1.11c0,.19-.06.38-.11.56l-.2.53a5.08,5.08,0,0,1-.47,1,8.26,8.26,0,0,1-3,3,12,12,0,0,1-3.62,1.38,13,13,0,0,1-6.24-.22,8.36,8.36,0,0,1-1.41-.5c-.22-.09-.43-.17-.62-.27l-.54-.31-.46-.28-.36-.29Z" transform="matrix(-1, 0, 0, 1, 380, 0)"></path><path class="cls-1 color-bodyarmor" d="M268.3,418.14c10.51,10.8,21.86-6.18,26.91-13.3-6.73.78-16.73-1.75-23.59-2.52C265.45,403.57,265,414,268.3,418.14Z" transform="matrix(-1, 0, 0, 1, 380, 0)"></path><path d="M268.27,418.15a3.9,3.9,0,0,1-1.42-1.77,12.55,12.55,0,0,1-1.16-4.56,13.65,13.65,0,0,1,.64-5.45,8.67,8.67,0,0,1,2.64-4c.22-.18.47-.32.71-.48a2.85,2.85,0,0,1,.77-.41l.42-.15.52-.19a4.77,4.77,0,0,1,1,0c1,.05,2,.15,3.05.25,2,.22,4.09.49,6.14.75s4.1.52,6.1.69c1,.08,2,.15,3,.17l.37,0h.56l1.4,0h.71c.23,0,.53,0,.79-.06l1.63-.15,3.09-.28-2.8,4-1.44,2L294,410c-1,1.35-2,2.68-3.14,3.95a34,34,0,0,1-7.32,6.62,16.35,16.35,0,0,1-4.42,2,10.39,10.39,0,0,1-4.69.24,9.8,9.8,0,0,1-3.91-1.7,13.17,13.17,0,0,1-2.63-2.58,26.24,26.24,0,0,0,3.51,1.36,9.72,9.72,0,0,0,3.79.31c2.37-.31,4.26-1.64,5.41-2.14a26.94,26.94,0,0,0,8-6.22c1.15-1.22,2.21-2.49,3.21-3.76l1-1.3.44-.58.23-.29.11-.15s0-.06,0-.07h-.08c-.46,0-.94.06-1.43.06s-.93,0-1.82-.06c-1.57-.08-3.09-.23-4.57-.4-3-.34-5.75-.77-8.41-1.15-1.33-.18-2.63-.37-3.89-.52l-1.69-.19a.63.63,0,0,0-.22.07l-.35.11a2.72,2.72,0,0,0-.66.33c-1.7,1-2.6,3.07-3,5.06a17.74,17.74,0,0,0-.31,5.31,10.25,10.25,0,0,0,.21,1.31l.12.59c.06.19.12.36.17.53a4.52,4.52,0,0,0,.34.86C268.13,417.84,268.21,418,268.27,418.15Z" transform="matrix(-1, 0, 0, 1, 380, 0)"></path><path class="cls-1 color-bodyarmor" d="M247.27,427.29c11.23,11.54,19.49-5.49,22.61-15-7.19.83-11.25-4.27-20-2.24C243.32,411.61,243.79,422.86,247.27,427.29Z" transform="matrix(-1, 0, 0, 1, 380, 0)"></path><path d="M247.25,427.31a4,4,0,0,1-1.42-1.66,14.4,14.4,0,0,1-1.46-4.26,16.82,16.82,0,0,1-.16-5.25,11.27,11.27,0,0,1,1.44-4.25l.43-.68c.17-.21.37-.41.56-.62a6.08,6.08,0,0,1,1.34-1.06,9.7,9.7,0,0,1,1.61-.71l1.51-.37a17.57,17.57,0,0,1,6.43-.13,55.62,55.62,0,0,1,6,1.48,23.71,23.71,0,0,0,2.67.57c.22,0,.43.05.64.07l.32,0,.16,0h.32c1-.05,2-.07,3-.14l2.06-.16c-.48,1.46-1,3-1.49,4.47l-.4,1.09-.24.64-.47,1.17a47.32,47.32,0,0,1-2.13,4.49,26.85,26.85,0,0,1-6,7.72,12.07,12.07,0,0,1-4.28,2.4,8.29,8.29,0,0,1-4.73.06,9.87,9.87,0,0,1-3.64-2,15.77,15.77,0,0,1-2.45-2.56c2,.86,4.73,2.13,7,2a9.9,9.9,0,0,0,4.79-1.94,14.75,14.75,0,0,0,3.69-3.14,28.66,28.66,0,0,0,2.89-4,41.55,41.55,0,0,0,2.23-4.28c.32-.69.67-1.54.81-1.88l.27-.66.12-.34.06-.16c0-.06.06-.13,0-.1a10.43,10.43,0,0,1-1.37,0h-.15l-.29,0-.58-.06c-.39,0-.76-.13-1.14-.19-1.49-.28-2.89-.72-4.23-1.11a20.75,20.75,0,0,0-7.59-1.14c-.6,0-1.19.13-1.77.2s-1.2.22-1.68.39a4.58,4.58,0,0,0-2.33,1.64,10.41,10.41,0,0,0-1.76,5.62,24,24,0,0,0,.26,5.17A12.83,12.83,0,0,0,247.25,427.31Z" transform="matrix(-1, 0, 0, 1, 380, 0)"></path><path class="cls-3 color-bodyarmor2" d="M221.33,453.13c1.88,36.11,42.35,33.32,46.77-.6-13.19,11.27-34.41,10.22-46.44-2.3a1.82,1.82,0,0,0-.08,2.75" transform="matrix(-1, 0, 0, 1, 380, 0)"></path><path d="M221.56,453a1.21,1.21,0,0,1-.72-.8,2,2,0,0,1,.61-2.26l.22-.19.26.23c.56.48,1.2,1,1.89,1.64l.53.46.6.43,1.24.9a34,34,0,0,0,5.84,3.23,31,31,0,0,0,11.57,2.58,37.44,37.44,0,0,0,9.7-1,34.65,34.65,0,0,0,9.25-3.8l1.39-.88c.67-.37,1.42-1.06,2.09-1.53l3.78-2.68.47-.34.12-.08s.11-.11.08,0l0,.29-.19,1.17-.38,2.35-.37,2.36c-.07.38-.12.76-.2,1.16l-.3,1.23-.38,1.6-.41,1.32a26.39,26.39,0,0,1-.92,2.58,24.34,24.34,0,0,1-1.11,2.5,23.83,23.83,0,0,1-1.3,2.38,27,27,0,0,1-14.18,11.92,22.53,22.53,0,0,1-9.14,1.23,20.8,20.8,0,0,1-14.89-8,24.65,24.65,0,0,1-3.78-6.74,34.84,34.84,0,0,1-2.13-13c.28.86.57,1.82.85,2.82s.69,2.06,1,3.15.82,2.17,1.3,3.24a33.6,33.6,0,0,0,1.59,3.11,30.5,30.5,0,0,0,1.78,2.8c.3.43.66.81,1,1.21a10.17,10.17,0,0,0,.95,1.09l.91,1c.29.31.61.56.88.82s.53.5.78.71l.69.57a16.82,16.82,0,0,0,5.54,3.2,18.66,18.66,0,0,0,12.43-.27,23.37,23.37,0,0,0,2.85-1.24,25.39,25.39,0,0,0,2.59-1.66,24.72,24.72,0,0,0,4.42-4.11,28.78,28.78,0,0,0,3.26-4.9c.22-.43.44-.86.67-1.29s.37-.88.56-1.32a22.51,22.51,0,0,0,1-2.67c.14-.45.31-.89.42-1.35l.26-1.09a14.28,14.28,0,0,0,.31-1.64l.12-.79c.08-.23-.12,0-.21.06l-.33.26a13.91,13.91,0,0,1-1.28,1l-.77.49c-.39.24-.77.51-1.17.73l-2.42,1.21a37.31,37.31,0,0,1-10,2.88,38.36,38.36,0,0,1-9.7,0,36.6,36.6,0,0,1-4.52-1c-.72-.23-1.45-.39-2.14-.67l-2.06-.82a32,32,0,0,1-3.18-1.62c-1.08-.68-2.18-1.44-3.19-2.22a33.81,33.81,0,0,1-2.63-2.41c-.73-.8-1.34-1.5-1.78-2l.23,0a1.71,1.71,0,0,0-.66,1.75A1.58,1.58,0,0,0,221.56,453Z" transform="matrix(-1, 0, 0, 1, 380, 0)"></path><path class="cls-1 color-bodyarmor" d="M271.26,401.57c-12.08,3.62-17.87-9.89-12.47-16.57,3-3.67,14.11-6.58,25.58-4.17C282.67,384.38,279,397.67,271.26,401.57Z" transform="matrix(-1, 0, 0, 1, 380, 0)"></path><path d="M271.24,401.54a2,2,0,0,1,.51-.55,13,13,0,0,0,1.16-.95,20.71,20.71,0,0,0,3-3.36,33.1,33.1,0,0,0,2.7-4.52,36.1,36.1,0,0,0,1.69-4c.42-1.23.83-2.5,1.25-3.8.11-.33.22-.66.32-1l.17-.51.08-.25,0-.09.12-.53c-.19,0-.4,0-.55,0h-.14l-.49,0-1-.09-2-.11h-2a37.7,37.7,0,0,0-7.9.95,24.67,24.67,0,0,0-4.68,1.53,14.4,14.4,0,0,0-2,1.08c-.26.21-.56.41-.77.62l-.31.31a4.62,4.62,0,0,0-.28.4,6,6,0,0,0-.54.84c-.13.31-.27.61-.41.92a9.11,9.11,0,0,0-.43,2,9.45,9.45,0,0,0,.44,4.09l.14.5.21.46c.15.31.27.63.43.92a10.45,10.45,0,0,0,1.14,1.62,9,9,0,0,0,3,2.32,12.24,12.24,0,0,0,7,.73,10,10,0,0,1-3.48,1.68l-.55.15a5.41,5.41,0,0,1-.58.07l-1.19.09a5.57,5.57,0,0,1-1.22-.09c-.41-.06-.83-.1-1.24-.2a10.2,10.2,0,0,1-4.16-2.26l-.77-.71-.57-.75a5.54,5.54,0,0,1-.78-1.31,13.51,13.51,0,0,1-1.22-6.32,12,12,0,0,1,1.76-5.81l.88-1.2a8.83,8.83,0,0,1,1.12-1,8.68,8.68,0,0,1,1.19-.78,9.42,9.42,0,0,1,1.22-.63,27.23,27.23,0,0,1,4.9-1.66,45.53,45.53,0,0,1,9.49-1.13l2.26,0,2.21.14,1.08.12.55.05c.24,0,.49.06.75.11,1,.17,2.05.32,3,.52-.4.93-.79,1.89-1.16,2.84l-.75,2.05c-.45,1.23-.92,2.44-1.41,3.61a37.91,37.91,0,0,1-3.4,6.46,18.4,18.4,0,0,1-4,4.4,14.61,14.61,0,0,1-2.26,1.46Z" transform="matrix(-1, 0, 0, 1, 380, 0)"></path><path class="cls-1 color-bodyarmor" d="M247.27,411.83c-13,3.91-19.28-10.66-13.45-17.86,3.2-4,10.38-6.42,22.75-3.82C254.74,394,255.63,407.63,247.27,411.83Z" transform="matrix(-1, 0, 0, 1, 380, 0)"></path><path d="M247.26,411.81a1.81,1.81,0,0,1,.49-.55,9.72,9.72,0,0,0,1.12-1,13.61,13.61,0,0,0,2.65-3.51,26.44,26.44,0,0,0,2.46-9c.12-1.25.24-2.52.36-3.83q.1-1,.27-2a4.35,4.35,0,0,1,.07-.58,3.82,3.82,0,0,0-.57,0h-.06l-.24,0-.51-.06-1-.11c-1.36-.14-2.72-.21-4.08-.23a24.43,24.43,0,0,0-7.68,1.07,12.71,12.71,0,0,0-4,2.11,7.92,7.92,0,0,0-2.39,3.31,10.83,10.83,0,0,0,.43,8.14,10.23,10.23,0,0,0,5.47,5.29,13.23,13.23,0,0,0,7,.52,10,10,0,0,1-3.42,1.74,10.12,10.12,0,0,1-4.67.24,10.52,10.52,0,0,1-4.27-1.82,9,9,0,0,1-2.37-2.49A14.64,14.64,0,0,1,231,397a10.72,10.72,0,0,1,3.15-4.69,14.24,14.24,0,0,1,4.56-2.64,27.63,27.63,0,0,1,9.47-1.37c1.52,0,3,.13,4.44.3l1.06.13c.39.05.63.07,1.2.17,1,.19,2.06.32,3,.56-.35.93-.64,1.88-.91,2.88-.11.62-.22,1.23-.31,1.85-.19,1.26-.37,2.48-.55,3.68a31.32,31.32,0,0,1-1.85,6.86,13.55,13.55,0,0,1-3.37,4.93l-.55.5-.58.4a10.1,10.1,0,0,1-1,.65C248,411.5,247.51,411.71,247.26,411.81Z" transform="matrix(-1, 0, 0, 1, 380, 0)"></path><path class="cls-1 color-bodyarmor" d="M258.24,474c-7.93-4.49-3.78-14.26,2.39-14.79,3.41-.28,10.49,4.07,15,11.25C272.9,471.38,264.14,476.11,258.24,474Z" transform="matrix(-1, 0, 0, 1, 380, 0)"></path><path d="M258.25,474c.17-.14.76,0,1.63,0a15.53,15.53,0,0,0,3.23-.15,24.4,24.4,0,0,0,6.56-2.07l2.55-1.31.33-.17.27-.14L273,470l.3-.22a2.87,2.87,0,0,0-.29-.31l-.13-.11-.06-.05-.23-.28c-.63-.73-1.29-1.44-2-2.13a27.94,27.94,0,0,0-4.41-3.54,17.78,17.78,0,0,0-3-1.6,9.82,9.82,0,0,0-1.46-.47,5.43,5.43,0,0,0-.63-.08,1.82,1.82,0,0,0-.55,0,4.63,4.63,0,0,0-2.4,1,6.5,6.5,0,0,0-1.82,2.08,7.4,7.4,0,0,0-.57,1.25,6,6,0,0,0-.29,1.3,6.29,6.29,0,0,0,.17,2.56,8.83,8.83,0,0,0,2.89,4,6.48,6.48,0,0,1-2.81-.73,6.12,6.12,0,0,1-1.44-1,8.1,8.1,0,0,1-1.21-1.44A7.41,7.41,0,0,1,252,466.9c0-.28,0-.55,0-.8s.06-.49.1-.71a3.53,3.53,0,0,1,.32-1.13,9.92,9.92,0,0,1,7-5.92l1.12-.13a7.06,7.06,0,0,1,1.15.09,6.21,6.21,0,0,1,1,.25c.34.1.65.22,1,.34a20.44,20.44,0,0,1,3.35,1.78,34.57,34.57,0,0,1,5.38,4.42c.78.8,1.51,1.6,2.19,2.43l.58.75c.24.3.44.59.66.9.4.6.9,1.24,1.22,1.82l-2.05.82-1.76.77c-.87.39-1.73.75-2.59,1.08a26.09,26.09,0,0,1-5.1,1.45,12.67,12.67,0,0,1-4.38,0,11,11,0,0,1-1.9-.54Z" transform="matrix(-1, 0, 0, 1, 380, 0)"></path><path class="cls-1 color-bodyarmor" d="M233.81,469.71c3.69-9.1,14.72-6,16.14.52.78,3.6-1.09,8.74-8.15,14.53C240.47,482,232.39,476.32,233.81,469.71Z" transform="matrix(-1, 0, 0, 1, 380, 0)"></path><path d="M233.84,469.72c.16.15.12.75.22,1.59a9.83,9.83,0,0,0,.82,3,18.39,18.39,0,0,0,4,5.36l2,1.86.52.5a2.13,2.13,0,0,0,.31.29,2.84,2.84,0,0,1,.29.24c.09,0,.19-.22.26-.31l.11-.14.46-.49c.68-.7,1.32-1.44,1.93-2.19a17.1,17.1,0,0,0,2.77-4.7,8.83,8.83,0,0,0,.55-3,4.53,4.53,0,0,0-.21-1.34l-.19-.63c-.11-.19-.21-.39-.31-.59A7.27,7.27,0,0,0,243,466a7.47,7.47,0,0,0-2.68-.25,6.76,6.76,0,0,0-1.28.26l-.61.2a5.07,5.07,0,0,0-.57.29,9.93,9.93,0,0,0-3.55,3.47,6.72,6.72,0,0,1,.32-2.85c.09-.26.17-.54.29-.8s.28-.5.44-.76a4.72,4.72,0,0,1,.51-.75c.21-.22.42-.45.64-.67a7.63,7.63,0,0,1,3.06-1.78,5.88,5.88,0,0,1,2.6-.21,11.17,11.17,0,0,1,4.48,1.81,10.36,10.36,0,0,1,3.1,3.23,8.57,8.57,0,0,1,1.21,4.06,10.73,10.73,0,0,1-.64,3.85,20.67,20.67,0,0,1-3.57,6c-.71.84-1.44,1.65-2.18,2.39l-.6.58c-.26.26-.54.51-.81.75l-.83.74-.42.37c-.14.11-.29.3-.4.28-.37-.59-.79-1.24-1.21-1.83-.11-.14-.22-.28-.34-.41l-.28-.32-.45-.49c-.62-.65-1.23-1.31-1.82-2a21.52,21.52,0,0,1-3-4.19,9.34,9.34,0,0,1-1.14-4.24,3.71,3.71,0,0,1,.05-1.06,6.48,6.48,0,0,1,.15-.9C233.63,470.28,233.76,469.9,233.84,469.72Z" transform="matrix(-1, 0, 0, 1, 380, 0)"></path><path class="cls-1 color-bodyarmor" d="M222,455.75c9.76,1.16,9.7,12.62,3.77,15.71-3.26,1.7-8.72,1.26-16.17-4C212,465.42,215.29,456.13,222,455.75Z" transform="matrix(-1, 0, 0, 1, 380, 0)"></path><path d="M222,455.78c-.1.2-.69.32-1.48.63a10.13,10.13,0,0,0-2.69,1.59,18.19,18.19,0,0,0-4.1,5.29c-.42.8-.83,1.61-1.26,2.44l-.35.64a1.65,1.65,0,0,0-.2.38,1.45,1.45,0,0,1-.16.33,1.41,1.41,0,0,0,.37.18l.17.06.59.32c.86.47,1.74.9,2.62,1.29a17.35,17.35,0,0,0,5.27,1.42,8.72,8.72,0,0,0,3-.26,4.56,4.56,0,0,0,1.25-.55l.55-.35c.16-.16.32-.31.49-.45a7.27,7.27,0,0,0,2-5.09,7.37,7.37,0,0,0-.46-2.66,6.65,6.65,0,0,0-.59-1.16l-.35-.53a4,4,0,0,0-.43-.48,9.93,9.93,0,0,0-4.28-2.5,6.68,6.68,0,0,1,2.83-.45,6.07,6.07,0,0,1,.84.07c.28.06.56.14.85.22a6.24,6.24,0,0,1,.86.3l.82.44a7.57,7.57,0,0,1,2.52,2.48,6,6,0,0,1,.89,2.46,11,11,0,0,1-.57,4.79,10.26,10.26,0,0,1-2.29,3.85,8.67,8.67,0,0,1-3.6,2.23,10.62,10.62,0,0,1-3.88.4,20.73,20.73,0,0,1-6.76-1.85c-1-.46-2-.95-2.89-1.47l-.72-.42c-.32-.19-.62-.39-.94-.59l-.93-.61-.47-.3c-.14-.11-.36-.2-.37-.31.48-.51,1-1.09,1.45-1.66.1-.14.21-.28.3-.43l.24-.35.35-.57c.47-.76.93-1.53,1.41-2.27a21.13,21.13,0,0,1,3.24-4,9.22,9.22,0,0,1,3.79-2.23,4.07,4.07,0,0,1,1-.23,6.21,6.21,0,0,1,.91-.09C221.44,455.73,221.84,455.76,222,455.78Z" transform="matrix(-1, 0, 0, 1, 380, 0)"></path><path class="cls-1 color-bodyarmor" d="M127.63,405.74c9.71-1.46,12.69,9.6,7.79,14.15-2.7,2.51-8.08,3.53-16.66.4C120.46,417.74,121.22,407.89,127.63,405.74Z" transform="matrix(-1, 0, 0, 1, 380, 0)"></path><path d="M127.64,405.77c0,.22-.58.49-1.26,1a10.13,10.13,0,0,0-2.17,2.24,18.35,18.35,0,0,0-2.56,6.19c-.19.88-.38,1.78-.57,2.69l-.17.71a1.67,1.67,0,0,0-.09.41,1.68,1.68,0,0,1-.06.37,1.67,1.67,0,0,0,.4.07h.18l.66.16c1,.22,1.91.4,2.86.54a17.2,17.2,0,0,0,5.46,0,8.63,8.63,0,0,0,2.85-1.05,4.43,4.43,0,0,0,1.05-.86l.44-.48c.11-.2.23-.38.35-.57a7.28,7.28,0,0,0,.54-5.43,7.36,7.36,0,0,0-1.15-2.43,6.67,6.67,0,0,0-.87-1l-.49-.43a6,6,0,0,0-.53-.34,10,10,0,0,0-4.8-1.29,6.79,6.79,0,0,1,2.61-1.18c.27-.05.55-.13.84-.16H132a4.59,4.59,0,0,1,.91.06q.45.09.9.21a7.68,7.68,0,0,1,3.1,1.72,5.89,5.89,0,0,1,1.5,2.13,10.88,10.88,0,0,1,.72,4.78,10.26,10.26,0,0,1-1.19,4.31,8.56,8.56,0,0,1-2.88,3.11,10.85,10.85,0,0,1-3.64,1.42,21.13,21.13,0,0,1-7,0c-1.09-.18-2.15-.4-3.17-.66l-.8-.21-1.06-.32-1.07-.34-.53-.17c-.16-.06-.4-.1-.44-.2.33-.62.67-1.31,1-2,.06-.17.13-.33.18-.5l.13-.4.19-.64c.25-.86.5-1.73.76-2.57a21.63,21.63,0,0,1,2.06-4.73,9.49,9.49,0,0,1,3.07-3.16,5,5,0,0,1,.94-.49,8.61,8.61,0,0,1,.85-.33C127.05,405.88,127.44,405.8,127.64,405.77Z" transform="matrix(-1, 0, 0, 1, 380, 0)"></path><path class="cls-1 color-bodyarmor" d="M153.65,435.38c8.73-4.51,15.1,5,11.93,10.89-1.75,3.25-6.52,5.94-15.65,5.74C150.72,449,148.28,439.47,153.65,435.38Z" transform="matrix(-1, 0, 0, 1, 380, 0)"></path><path d="M153.67,435.4c0,.22-.39.65-.87,1.35a10.16,10.16,0,0,0-1.33,2.82,18.3,18.3,0,0,0-.44,6.69q.16,1.33.33,2.73l.07.72a1.29,1.29,0,0,0,0,.42,3.19,3.19,0,0,1,.05.37,1.84,1.84,0,0,0,.4-.06l.18-.05.67-.06c1-.1,1.94-.24,2.89-.41a17.17,17.17,0,0,0,5.16-1.77,8.7,8.7,0,0,0,2.36-1.91,4.69,4.69,0,0,0,.72-1.15l.26-.61c0-.21.1-.43.15-.65a7.28,7.28,0,0,0-1.23-5.31,6.57,6.57,0,0,0-3-2.56l-.6-.25a4.31,4.31,0,0,0-.62-.15,9.86,9.86,0,0,0-5,.32,6.72,6.72,0,0,1,2.09-1.95c.24-.14.48-.3.74-.42l.83-.29a5.46,5.46,0,0,1,.88-.24l.92-.09a7.64,7.64,0,0,1,3.49.64,6,6,0,0,1,2.11,1.54,11.1,11.1,0,0,1,2.21,4.28,10.16,10.16,0,0,1,.26,4.47,8.6,8.6,0,0,1-1.73,3.87,10.56,10.56,0,0,1-3,2.51,20.78,20.78,0,0,1-6.63,2.26c-1.1.18-2.17.31-3.22.4l-.83.05c-.37,0-.73,0-1.11,0l-1.11,0h-.56c-.17,0-.41,0-.48-.05.11-.69.21-1.45.27-2.18a4.73,4.73,0,0,0,0-.53v-.42l0-.67c0-.9-.08-1.79-.1-2.68a21.26,21.26,0,0,1,.42-5.14,9.42,9.42,0,0,1,1.9-4,3.84,3.84,0,0,1,.73-.77,5.93,5.93,0,0,1,.7-.59C153.15,435.69,153.5,435.49,153.67,435.4Z" transform="matrix(-1, 0, 0, 1, 380, 0)"></path><path class="cls-1 color-bodyarmor" d="M191.62,452.21c6.7-7.18,15.91-.37,14.9,6.24-.55,3.64-4.14,7.79-12.8,10.67C193.47,466.07,187.94,457.88,191.62,452.21Z" transform="matrix(-1, 0, 0, 1, 380, 0)"></path><path d="M191.65,452.23c.1.2-.15.74-.36,1.56a10,10,0,0,0-.31,3.11,18.18,18.18,0,0,0,1.84,6.44l1.23,2.46.31.66a1.24,1.24,0,0,0,.19.38,3.5,3.5,0,0,1,.17.32,1.57,1.57,0,0,0,.36-.19l.15-.1.61-.29c.89-.42,1.75-.87,2.58-1.36a16.86,16.86,0,0,0,4.26-3.41,8.64,8.64,0,0,0,1.58-2.58,4.61,4.61,0,0,0,.29-1.33l0-.66c0-.22-.06-.44-.08-.66a7.33,7.33,0,0,0-3-4.59,7.58,7.58,0,0,0-2.42-1.19,7,7,0,0,0-1.28-.21l-.64,0c-.22,0-.43.05-.64.06a10,10,0,0,0-4.55,2,6.82,6.82,0,0,1,1.31-2.55,8.11,8.11,0,0,1,.55-.64c.22-.18.45-.37.69-.55a5,5,0,0,1,.75-.52l.83-.4a7.66,7.66,0,0,1,3.5-.57,6,6,0,0,1,2.5.74,10.86,10.86,0,0,1,3.53,3.29,10.06,10.06,0,0,1,1.75,4.12,8.67,8.67,0,0,1-.32,4.22,10.51,10.51,0,0,1-2,3.37,20.6,20.6,0,0,1-5.49,4.36c-1,.54-1.93,1-2.89,1.46l-.77.33c-.33.15-.68.28-1,.41l-1.05.4-.52.19c-.16.06-.38.18-.47.12-.13-.69-.29-1.44-.48-2.15-.05-.16-.1-.34-.16-.5l-.15-.39-.25-.63c-.34-.82-.69-1.65-1-2.48a21.13,21.13,0,0,1-1.33-5,9.37,9.37,0,0,1,.44-4.38,4.08,4.08,0,0,1,.43-1,7.9,7.9,0,0,1,.46-.79C191.26,452.68,191.52,452.38,191.65,452.23Z" transform="matrix(-1, 0, 0, 1, 380, 0)"></path><path class="cls-1 color-bodyarmor" d="M124.85,374.85c7.69,5.77,2.33,15.74-4.1,15.55-3.54-.1-7.94-3.15-11.77-11.39C111.87,378.38,119,371.9,124.85,374.85Z" transform="matrix(-1, 0, 0, 1, 380, 0)"></path><path d="M124.84,374.88c-.19.12-.74-.07-1.56-.17a9.07,9.07,0,0,0-3,.09,17.32,17.32,0,0,0-6,2.67c-.68.48-1.37,1-2.13,1.47-1,.64-.91.66-1.15.8a1.91,1.91,0,0,0,.24.34l.12.14.37.6c.52.83,1.07,1.63,1.64,2.41a16.84,16.84,0,0,0,3.84,3.84,8.14,8.14,0,0,0,2.65,1.21,4,4,0,0,0,1.28.09,5,5,0,0,0,1.24-.21,6.89,6.89,0,0,0,2.27-1.38,7.73,7.73,0,0,0,1.63-2.19,7.08,7.08,0,0,0,.63-5,10,10,0,0,0-2.4-4.23,6.51,6.51,0,0,1,2.63,1c.22.14.47.29.69.46s.41.39.61.6a6.37,6.37,0,0,1,.6.67c.16.24.32.5.48.76a7.54,7.54,0,0,1,1,3.29,5.59,5.59,0,0,1-.06,1.44,3,3,0,0,1-.27,1.07,11,11,0,0,1-2.65,4,9.68,9.68,0,0,1-3.77,2.36,7.92,7.92,0,0,1-4.19.25,10.31,10.31,0,0,1-3.53-1.57,20.7,20.7,0,0,1-4.84-4.93c-.63-.89-1.22-1.78-1.74-2.67l-.41-.71c-.18-.31-.34-.64-.51-1s-.34-.65-.5-1l-.26-.49c-.07-.15-.21-.35-.17-.45.64-.21,1.33-.46,2-.73.15-.07.31-.14.45-.22l.37-.2.56-.32,2.21-1.28a20.33,20.33,0,0,1,4.56-1.93,8.9,8.9,0,0,1,4.32-.13,4.39,4.39,0,0,1,1,.3,6.46,6.46,0,0,1,.82.36C124.36,374.54,124.68,374.77,124.84,374.88Z" transform="matrix(-1, 0, 0, 1, 380, 0)"></path><path class="cls-1 color-bodyarmor" d="M142.56,351.41c0,5.18-9.62,10.61-12.58,8.64-2.73-1.82-3.76-9.65-.71-17.19C131.48,344.46,140.85,345.65,142.56,351.41Z" transform="matrix(-1, 0, 0, 1, 380, 0)"></path><path d="M142.53,351.42c-.21,0-.44-.53-.9-1.14a9.71,9.71,0,0,0-2-2,17.23,17.23,0,0,0-5.56-2.46c-1.49-.33-4-1-3.9-.91-.06.05,0,.25-.07.34a.92.92,0,0,0,0,.16v.07s0,.18-.06.27c-.19.83-.36,1.67-.47,2.51a22.37,22.37,0,0,0-.16,5,16,16,0,0,0,.52,3,5.33,5.33,0,0,0,1,2.08.67.67,0,0,1,.15.14.77.77,0,0,0,.23.08,4,4,0,0,0,1,0,11.28,11.28,0,0,0,2.58-.73,17.2,17.2,0,0,0,4.57-2.75,7,7,0,0,0,2.48-3.6,3.72,3.72,0,0,1,.48,2.56,7.77,7.77,0,0,1-1.09,3,8.71,8.71,0,0,1-3.65,3.51,18.22,18.22,0,0,1-4,1.14,9.2,9.2,0,0,1-2.11.1,4.36,4.36,0,0,1-2.29-.76,6.69,6.69,0,0,1-2-3.4,16,16,0,0,1-.59-3.38,26.73,26.73,0,0,1,.27-6.25,28,28,0,0,1,.59-2.87l.23-.85c.1-.32.2-.63.32-.95s.21-.63.32-.94l.16-.48c.06-.16.11-.33.2-.36.56.31,1.22.67,1.82.93l.9.36.6.2c.8.26,1.6.51,2.38.79a20,20,0,0,1,4.37,2.07,8.61,8.61,0,0,1,2.79,2.89,4.39,4.39,0,0,1,.43.87,7.44,7.44,0,0,1,.27.79C142.46,350.88,142.51,351.24,142.53,351.42Z" transform="matrix(-1, 0, 0, 1, 380, 0)"></path></svg>