<svg xmlns="http://www.w3.org/2000/svg" id="uniforms_1" viewBox="0 0 380 600"><defs transform="matrix(-1, 0, 0, 1, 380, 0)"><style>.cls-1{fill:#ffffff;}.cls-2{opacity:0.4;}</style></defs><g id="default" transform="matrix(-1, 0, 0, 1, 380, 0)"><path class="cls-1 color-body" d="M160.41,391.44c-7.58,9.52-14.23,22.32-22.21,41.3-8.86,21.06-18.83,37.36-29.71,32.7-13.62-5.83-16.27-35.89-15.27-55.78,1.15-23,12.25-51.32,38.87-58.08,17.73-4.51,27,11,27,11" style="fill:#ffffff;--backup-fill:#ffffff"></path><path d="M159,362.59c-.54-.26-2.21-2.49-5.33-5A29.1,29.1,0,0,0,148,354a22.88,22.88,0,0,0-7.64-1.9,24.94,24.94,0,0,0-8.36,1,40.56,40.56,0,0,0-7.9,3.15,42.67,42.67,0,0,0-6.44,4.2,41.24,41.24,0,0,0-4.55,4.28c-8.38,9.28-13.53,22.23-15.5,35.58a82.94,82.94,0,0,0-.9,10.09c-.1,3.43-.09,6.87,0,10.27a124.72,124.72,0,0,0,2.16,19.86,71.52,71.52,0,0,0,2.09,8.06,37.22,37.22,0,0,0,3.14,7.23,15.74,15.74,0,0,0,4.5,5.16l.64.41.66.33a7,7,0,0,0,1.25.44,5.3,5.3,0,0,0,2.41,0,12.48,12.48,0,0,0,5.33-3.39,41.33,41.33,0,0,0,4.82-5.87,112.78,112.78,0,0,0,7.79-13.63c1.16-2.34,2.26-4.67,3.32-7s2.15-4.69,3.24-7c2.17-4.57,4.39-9,6.69-13.11s4.66-8.07,7.12-11.67a90.72,90.72,0,0,1,7.67-9.74c-1.52,3.25-3.32,7.14-5.1,11.35s-3.54,8.75-5.21,13.18c-3.35,8.86-6.31,17.19-8.48,21.5s-4.45,8.54-6.89,12.6a76.19,76.19,0,0,1-8.25,11.54,29.19,29.19,0,0,1-5.42,4.82,15.32,15.32,0,0,1-3.36,1.76,11.88,11.88,0,0,1-3.85.82,11.63,11.63,0,0,1-3.91-.53,14.72,14.72,0,0,1-3.35-1.65,19,19,0,0,1-5-4.93,40.51,40.51,0,0,1-5.34-11.79,87.14,87.14,0,0,1-2.52-12,154.16,154.16,0,0,1-1.41-23.11c0-15,3.3-29.21,9.85-40.88a52.93,52.93,0,0,1,12.39-15,43.21,43.21,0,0,1,16.21-8.35c.68-.17,1.36-.4,2.13-.52l2.38-.38a16.06,16.06,0,0,1,2.53-.16l1.3,0c.44,0,.88.09,1.32.13a23,23,0,0,1,9.94,3.31,26.89,26.89,0,0,1,6.64,5.83A23.06,23.06,0,0,1,159,362.59Z"></path></g><g data-name="default" id="default-2" transform="matrix(-1, 0, 0, 1, 380, 0)"><path class="cls-1 color-body" d="M239.64,465.34c-5-30.75,35-64.12-1.65-98.8-27.79-26.3-65.82-29.56-98.53-9.06-34.38,21.54-37,63.54-15.1,107" style="fill:#ffffff;--backup-fill:#ffffff"></path><path d="M124.3,464.52c-1.08-.92-7.47-12.22-11.56-26.65a104.82,104.82,0,0,1-2.58-11.16c-.37-1.89-.59-3.8-.86-5.68s-.4-3.76-.47-5.6a82.84,82.84,0,0,1,1-18.78,60.5,60.5,0,0,1,9.73-24.47,61.71,61.71,0,0,1,9.06-10.42,67.4,67.4,0,0,1,11.19-8.27,88.94,88.94,0,0,1,25.52-10.76,80.29,80.29,0,0,1,27.24-1.9l2.92.36c1,.15,2,.2,2.91.44l5.75,1.24,5.6,1.72a23.66,23.66,0,0,1,2.74,1l2.7,1.1a86.55,86.55,0,0,1,19.69,11.85c1.46,1.21,2.84,2.49,4.26,3.73a55.62,55.62,0,0,1,4.06,3.93c.33.35.66.67,1,1l.92,1.08,1.84,2.17c.57.75,1.12,1.53,1.68,2.3l.83,1.15c.27.39.5.81.76,1.21l1.47,2.44c.43.85.85,1.7,1.27,2.55a22.2,22.2,0,0,1,1.13,2.6c.33.89.73,1.75,1,2.66a42.09,42.09,0,0,1,2,10.95,48.64,48.64,0,0,1-.64,10.65,71.89,71.89,0,0,1-2.32,9.85c-1.89,6.31-4.29,12.07-6.44,17.58a131.05,131.05,0,0,0-5.45,15.9,43.16,43.16,0,0,0-1.4,14.82,35.9,35.9,0,0,1-1.56-15.48,105.35,105.35,0,0,1,3.65-18c1.61-5.87,3.28-11.44,4.4-16.24s1.8-8.82,2.21-11.57a43.3,43.3,0,0,0,.47-8.25,38.7,38.7,0,0,0-.46-4c-.13-.66-.2-1.34-.37-2l-.52-1.95A40.92,40.92,0,0,0,241,373.4,72.86,72.86,0,0,0,229.38,362l-3.17-2.47c-1.09-.76-2.23-1.46-3.33-2.19l-1.66-1.08c-.28-.18-.55-.37-.84-.53l-.87-.47-3.46-1.85a31.34,31.34,0,0,0-3.53-1.64L209,350.29c-1.22-.42-2.44-.8-3.65-1.2a37.08,37.08,0,0,0-3.65-1.08,68.35,68.35,0,0,0-7.38-1.48l-3.69-.51c-1.23-.09-2.47-.13-3.69-.19A75.37,75.37,0,0,0,158.85,350l-6.38,2.53-6.05,3-5.72,3.37c-1.83,1.19-3.61,2.4-5.29,3.73a58.07,58.07,0,0,0-15.79,18.68,63.41,63.41,0,0,0-6.6,21.9,88.28,88.28,0,0,0-.51,11,102.79,102.79,0,0,0,.8,10.63c.46,3.3,1.1,7.19,1.94,11.24s2,8.21,3.14,12.1C120.75,455.84,123.46,462.36,124.3,464.52Z"></path></g><path class="cls-1 color-body" d="M234.88,441c-13.64-36.84,9-78.79-30.64-91.82-29.14-9.57-59.41,5.74-75.67,54.17-5.89,17.56-7.77,42.31-3.48,60h0s6,10.25,50.16,13c42.25,2.63,64.39-13,64.39-13h0C238.82,456.23,237.18,447.24,234.88,441Z" transform="matrix(-1, 0, 0, 1, 380, 0)" style="fill:#ffffff;--backup-fill:#ffffff"></path><g class="cls-2" transform="matrix(-1, 0, 0, 1, 380, 0)"><path d="M181.14,486.33c-.73-.66-.14-11.82-.22-16.17a61,61,0,0,1,.78-12.23,25,25,0,0,1,2-6.4,16,16,0,0,1,4.34-5.42,20.92,20.92,0,0,1,4.9-2.93,43.88,43.88,0,0,1,5-1.85c3.28-1,6.46-1.79,9.5-2.47,6.08-1.35,11.59-2.36,16.08-3-3.27,3.08-10.43,6.51-13.19,6.88a78.66,78.66,0,0,0-15.23,3.33,17.54,17.54,0,0,0-5.88,3.35,12.82,12.82,0,0,0-3.43,5.19,29.83,29.83,0,0,0-1.4,5.91c-.3,2-.45,3.89-.61,5.76-.29,3.74-.47,7.25-.83,10.53A78.83,78.83,0,0,1,181.14,486.33Z"></path></g><g class="cls-2" transform="matrix(-1, 0, 0, 1, 380, 0)"><path d="M140.31,477c-.16,0-.64-.27-1.17-.89a9.25,9.25,0,0,1-1.54-2.6,35.72,35.72,0,0,1-1.48-6.08c-.53-2.43-.79-5.09-1.46-7.41l-.43-2c-.12-.63-.32-1.23-.46-1.84a31.24,31.24,0,0,0-1.18-3.5c-3-7.86-9.11-13.95-12.73-18.56a16.4,16.4,0,0,1,5,2A11.8,11.8,0,0,1,128.3,439a51.61,51.61,0,0,1,8.1,17.77c.17.7.28,1.39.42,2.07l.09.48.11.44c.09.34.17.68.23,1,.27,1.33.42,2.61.56,3.83.26,2.44.42,4.67.75,6.67a22.69,22.69,0,0,0,.7,3.36,4.42,4.42,0,0,0,.28.8c.11.24.19.49.29.69Z"></path></g><g class="cls-2" transform="matrix(-1, 0, 0, 1, 380, 0)"><path d="M183,464.88c-.18,0-.66-.26-1.3-.75s-1.45-1.2-2.39-1.85-1.87-1.42-2.83-2a18.47,18.47,0,0,0-2.44-1.41,60.76,60.76,0,0,0-14.93-5.24,59.71,59.71,0,0,0-12.84-1,80.41,80.41,0,0,0-10.71,1.14,14.63,14.63,0,0,1,4.57-3.2,12.54,12.54,0,0,1,2.62-1,7.13,7.13,0,0,1,2-.32,74,74,0,0,1,10.9,1.11c1.68.25,3.27.66,4.82,1l2.25.61,1.1.3,1.07.36c5.64,1.84,10.37,4.22,13.83,7.21a21.68,21.68,0,0,1,2.65,2.79C182.14,463.67,182.78,464.58,183,464.88Z"></path></g><g class="cls-2" transform="matrix(-1, 0, 0, 1, 380, 0)"><path d="M161,424.75c.33-.25,2.67.29,5.39.75,1.36.25,2.81.5,4.15.65a28.86,28.86,0,0,0,3.42.33l2.34.11,2.41.06c1.61.08,3.26,0,4.91.08,3.3,0,6.62-.11,9.76-.41,5.49-.47,10.87-1.24,15.77-2.15s9.31-1.94,12.9-2.72a23.16,23.16,0,0,1-5.4,3.78,21.78,21.78,0,0,1-3,1.34,12.85,12.85,0,0,1-2.29.65,238.26,238.26,0,0,1-24.3,1.85,78.14,78.14,0,0,1-18.62-1.58,35.62,35.62,0,0,1-4.38-1.42C162.62,425.49,161.4,424.94,161,424.75Z"></path></g><g class="cls-2" transform="matrix(-1, 0, 0, 1, 380, 0)"><path d="M153.12,422.75c-.38.57-6.63.19-9.07.28a61.44,61.44,0,0,1-13.69-1.12,34.85,34.85,0,0,1-10.9-3.77,18.48,18.48,0,0,1-4.18-3.2,11.14,11.14,0,0,1-2.45-3.78c1.27.63,2.77,1.37,4.16,1.93a16.21,16.21,0,0,1,3.19,1.53,24.18,24.18,0,0,0,7.54,3.95,43.53,43.53,0,0,0,7.49,1.68c4.77.65,9,.69,12.6,1.2A33.28,33.28,0,0,1,153.12,422.75Z"></path></g><g data-name="default" id="default-3" transform="matrix(-1, 0, 0, 1, 380, 0)"><path class="cls-1 color-body" d="M210.79,402.43c4.77,11.19,7.75,25.3,10.38,45.72,2.91,22.66,8.17,41,19.89,39.46,14.69-2,26.8-32.1,30.27-47,3.78-16.27,9.07-47.8-11.5-68.07-15.14-14.92-32.87-1.65-32.87-1.65" style="fill:#ffffff;--backup-fill:#ffffff"></path><path d="M226.92,370.83c.25-.56,2.44-2.43,6.29-4.15a28.58,28.58,0,0,1,6.95-2.06,23.21,23.21,0,0,1,13.14,1.7,25.37,25.37,0,0,1,4.11,2.35c.66.43,1.25.95,1.88,1.42s1.18,1,1.73,1.55l1.6,1.61c.52.54,1,1.11,1.49,1.65a53.36,53.36,0,0,1,8.09,12.62,61.18,61.18,0,0,1,5.26,20.1,96.19,96.19,0,0,1-.56,21.5c-.47,3.57-1.09,7.13-1.82,10.63a100.69,100.69,0,0,1-2.74,10.51,123.15,123.15,0,0,1-8.07,19.65,59.42,59.42,0,0,1-10.83,15.29c-.57.58-1.23,1.11-1.85,1.66s-1.31,1.06-2.06,1.52a19.94,19.94,0,0,1-4.79,2.42l-1.34.42-1.41.27a13.32,13.32,0,0,1-3,.17,13,13,0,0,1-5.84-1.71,16.34,16.34,0,0,1-4.27-3.6,25.87,25.87,0,0,1-2.83-4.12,46,46,0,0,1-3.53-8.42A107.82,107.82,0,0,1,219,457.36c-.39-2.68-.71-5.32-1-7.93s-.54-5.08-.8-7.57c-.55-5-1.14-9.75-1.83-14.33a140.74,140.74,0,0,0-5.61-24.66,58.12,58.12,0,0,1,6.15,10.8,107.28,107.28,0,0,1,4.92,13.63,125.83,125.83,0,0,1,4.59,23c.35,4.68.86,9.25,1.63,13.68a62.1,62.1,0,0,0,3.37,12.61,23.59,23.59,0,0,0,2.88,5.3,10.83,10.83,0,0,0,1.89,2,7.35,7.35,0,0,0,2.19,1.33,7,7,0,0,0,2.46.47,9.72,9.72,0,0,0,2.64-.37,15.46,15.46,0,0,0,5-2.59,37.56,37.56,0,0,0,8-8.73,78.46,78.46,0,0,0,5.88-10.22,113.87,113.87,0,0,0,7.83-21.18c3.45-14.18,4.8-28,2.8-40.43a55.59,55.59,0,0,0-5.54-17.06,47.93,47.93,0,0,0-4.6-7.12,43.07,43.07,0,0,0-5.57-5.9,23.79,23.79,0,0,0-7.24-4.17,22.59,22.59,0,0,0-9.22-1.11,32.48,32.48,0,0,0-12.87,4Z"></path></g><g class="cls-2" transform="matrix(-1, 0, 0, 1, 380, 0)"><path d="M247.33,434.13c.12-.35,1.82-.85,3.69-1.63a25.22,25.22,0,0,0,4.9-2.69,40.94,40.94,0,0,0,9.66-10.08,36.77,36.77,0,0,0,4.64-10.28,16.82,16.82,0,0,0,.1-9.09,7.49,7.49,0,0,1,3.1,4.09,8.33,8.33,0,0,1,.38,4.5,41,41,0,0,1-4.13,9.1,44.74,44.74,0,0,1-5.06,6.93,28.67,28.67,0,0,1-11.36,8.26c-.46.17-1,.33-1.6.48s-1.22.21-1.8.29A25,25,0,0,1,247.33,434.13Z"></path></g><g class="cls-2" transform="matrix(-1, 0, 0, 1, 380, 0)"><path d="M105,410.08c-.23.16-1.06-.25-1.89-.93a13.94,13.94,0,0,1-1.22-1.07l-1-.93a13.72,13.72,0,0,1-4-6.67,13.55,13.55,0,0,1-.32-6.51,10.26,10.26,0,0,1,2.28-4.79,12.9,12.9,0,0,1,1.06,2.73,3.22,3.22,0,0,1,.14,1.91,9.71,9.71,0,0,0,0,8.24,30.66,30.66,0,0,0,3.54,5.42,7.71,7.71,0,0,1,.85,1.43C104.65,409.41,104.89,409.91,105,410.08Z"></path></g></svg>