<svg xmlns="http://www.w3.org/2000/svg" id="art" viewBox="0 0 380 600"><defs transform="matrix(-1, 0, 0, 1, 380, 0)"><style>.cls-1{fill:#be0039;}.cls-2{fill:#ffffff;}.cls-3{fill:#fb133a;}.cls-4{fill:#f9a;}.cls-5{fill:#ffd635;}.cls-6{fill:#d7f7ff;}</style></defs><path class="cls-1" d="M75.985,489.979c-7.3,20.58-11.45,34.91-6.882,56.262C79.024,526.8,97.959,511.6,116.448,500s39.138-11.435,60.71-14.763a92.83,92.83,0,0,0-37.739-44.213,27.062,27.062,0,0,0-8.792-3.788c-6.337-1.194-12.763,1.567-18.176,5.072-23.189,15.014-34.271,42.686-43.227,68.82" transform="matrix(-1, 0, 0, 1, 380, 0)" /><path d="M69.2,511.115c.1-.734,1.206-4.389,3.045-9.72,1.861-5.322,4.473-12.32,7.824-19.6a125.772,125.772,0,0,1,12.2-21.139,81.457,81.457,0,0,1,13.613-14.729,67.234,67.234,0,0,1,5.425-4.162,41.2,41.2,0,0,1,6.053-3.555,27.583,27.583,0,0,1,6.888-2.273,18.862,18.862,0,0,1,7.509.128,26.706,26.706,0,0,1,6.909,2.822c1.074.586,2.095,1.222,3.123,1.864l1.546.958,1.509,1.02a92.518,92.518,0,0,1,11.433,9.139,94.458,94.458,0,0,1,18,23.112c1.18,2.136,2.267,4.316,3.28,6.521l1.138,2.626.683,1.577.341.789.085.2c.034.044-.012.043-.048.047l-.106.016-.423.063-5.628.834c-4.7.666-9.35,1.216-13.913,1.8-3.992.5-7.956,1.033-11.867,1.708a111.268,111.268,0,0,0-11.538,2.507,73.32,73.32,0,0,0-10.937,3.882c-.893.36-1.742.805-2.6,1.237s-1.727.826-2.536,1.332l-2.469,1.438c-.821.5-1.64,1.037-2.459,1.553-13.045,8.363-25.062,17.746-34.337,28.663a92.792,92.792,0,0,0-6.4,8.413q-.708,1.119-1.41,2.232c-.44.674-.848,1.384-1.243,2.108l-1.146,1.992-2.25,3.917-.139.242c-.031-.017-.039-.169-.06-.247l-.106-.572-.212-1.139-.42-2.258c-.273-1.5-.567-2.969-.8-4.425q-.209-1.519-.416-3.027c-.1-.856-.16-1.716-.241-2.567s-.153-1.7-.173-2.551a71.592,71.592,0,0,1,.179-9.99,83.078,83.078,0,0,1,1.439-9.469c.686-3.04,1.431-5.991,2.319-8.813,1.726-5.662,3.693-10.907,5.575-15.819-1.175,4.58-2.761,10.19-4.131,16.284a95.562,95.562,0,0,0-2.574,19.091,79.954,79.954,0,0,0,.377,9.365c.187,1.5.347,2.975.577,4.4q.091.534.181,1.06l.079.455.016.035a.18.18,0,0,0,.051.071c.055.061.076-.159.066-.123l-.006.006,0,0,.034-.056.437-.707.833-1.334c.549-.843,1.1-1.582,1.582-2.257a104.005,104.005,0,0,1,13-14.625,155.62,155.62,0,0,1,14.523-12.023c4.977-3.661,10.044-7.013,15.128-10.146a70.527,70.527,0,0,1,16.184-7.311c11.15-3.491,22.386-4.583,33.1-5.887q4.026-.478,7.973-1.01l3.031-.441.149-.023-.06-.14-.121-.28-.24-.556-.642-1.485a90.45,90.45,0,0,0-7.532-13.327,92.151,92.151,0,0,0-19.944-21.11,82.11,82.11,0,0,0-11.58-7.51,19.34,19.34,0,0,0-6.125-2.054,17.258,17.258,0,0,0-6.286.323,27.272,27.272,0,0,0-5.952,2.163,38.486,38.486,0,0,0-5.437,3.232,60,60,0,0,0-5.018,3.755c-.792.669-1.616,1.292-2.373,1.989l-2.23,2.113a91.706,91.706,0,0,0-14.551,18.643q-.7,1.17-1.466,2.44l-1.486,2.667c-1.046,1.815-2.032,3.786-3.065,5.784-2.02,4.021-4,8.279-5.718,12.323C72.761,501.666,70.113,508.8,69.2,511.115Z" transform="matrix(-1, 0, 0, 1, 380, 0)" /><g id="default" transform="matrix(-1, 0, 0, 1, 380, 0)"><path class="cls-2 color-body" d="M160.412,391.943c-7.582,9.513-14.229,22.312-22.211,41.293-8.856,21.061-18.834,37.366-29.709,32.709-13.624-5.834-9.478-36.627-4.5-51.1,6.055-17.583,19.428-51.04,47.782-59.992,10.883-3.436,14.227,11.569,14.227,11.569" style="fill:#ffffff;--backup-fill:#ffffff" /><path d="M165.947,366.439c-.44-.388-1.22-2.975-3.311-6.14a11.8,11.8,0,0,0-4.514-4.165,7.376,7.376,0,0,0-3.27-.647,9.385,9.385,0,0,0-1.766.244l-.889.258-.948.349a49.238,49.238,0,0,0-14.275,8.128,57.561,57.561,0,0,0-9.412,9.67c-7.36,9.662-13.088,21.508-17.59,33.918-.567,1.551-1.111,3.116-1.646,4.685s-1.071,3.182-1.519,4.674a90.747,90.747,0,0,0-2.2,9.4,85.489,85.489,0,0,0-1.432,18.768,43.512,43.512,0,0,0,1.008,7.616,18.355,18.355,0,0,0,2.6,6.285,7.5,7.5,0,0,0,4.289,3.11,5.106,5.106,0,0,0,2.314.024,8.1,8.1,0,0,0,2.521-1.071,21.852,21.852,0,0,0,5.02-4.608,57.042,57.042,0,0,0,4.348-6.074,136.894,136.894,0,0,0,7.2-13.3c1.09-2.256,2.1-4.48,3.139-6.746s2.078-4.493,3.133-6.676c2.11-4.365,4.264-8.554,6.487-12.514a107.486,107.486,0,0,1,14.292-20.4c-1.433,3.123-3.134,6.869-4.826,10.907s-3.376,8.381-4.98,12.608c-3.2,8.461-6.094,16.461-8.124,20.507-4.173,8.251-8.377,16.247-13.84,23.355a43.419,43.419,0,0,1-4.532,5.018,21.3,21.3,0,0,1-5.745,3.964,13.467,13.467,0,0,1-3.535,1.017,11.727,11.727,0,0,1-3.722-.137,13.029,13.029,0,0,1-6.187-3.367,16.82,16.82,0,0,1-3.674-5.521,28.7,28.7,0,0,1-1.772-5.985,56.261,56.261,0,0,1-.838-11.806,103.9,103.9,0,0,1,3.1-22.038c.441-1.746.922-3.471,1.482-5.171.553-1.673,1.107-3.311,1.686-4.94q1.719-4.882,3.638-9.529a131.2,131.2,0,0,1,8.694-17.45A84.1,84.1,0,0,1,127.418,368a65.41,65.41,0,0,1,6.521-5.92,55.826,55.826,0,0,1,7.131-4.7,42.653,42.653,0,0,1,8.363-3.512l1.184-.341c.39-.115.789-.228,1.25-.317a11.89,11.89,0,0,1,2.732-.274,9.482,9.482,0,0,1,5.1,1.661,12.084,12.084,0,0,1,3.247,3.459,18.716,18.716,0,0,1,1.755,3.551A22.694,22.694,0,0,1,165.947,366.439Z" /></g><path class="cls-3 color-coat1" d="M126.9,399.489c-4.477-.824-8.381-3.664-11.339-7.124s-5.087-7.537-7.19-11.574c-2.75-5.281-5.541-11.552-2.994-16.934,1.84-3.886,5.958-6.073,9.827-7.95,3.962-1.922,8.063-3.831,12.455-4.141,5.224-.369,10.347,1.571,14.961,4.047,2.449,1.314,5.067,3.168,5.37,5.932.222,2.027-.893,3.934-1.966,5.669l-17.744,28.679c-.411.664-.824,1.526-.389,2.175" transform="matrix(-1, 0, 0, 1, 380, 0)" /><path d="M127.862,398.285a1.169,1.169,0,0,1-.288-1.287,11.8,11.8,0,0,1,1.191-2.445c1.058-1.885,2.5-4.348,4.065-6.983,3.123-5.271,6.71-11.228,8.592-14.612l2.556-4.542a29.5,29.5,0,0,0,2.326-4.508,3.749,3.749,0,0,0-.585-3.8,11.6,11.6,0,0,0-3.853-2.837,33.051,33.051,0,0,0-9.859-3.479,17.846,17.846,0,0,0-4.938-.094,22.274,22.274,0,0,0-4.779,1.218c-1.368.5-2.725,1.1-4.086,1.741s-2.751,1.323-4.048,2c-2.593,1.356-4.955,2.907-6.347,4.932a9.53,9.53,0,0,0-1.329,7.065,29.517,29.517,0,0,0,2.566,7.574c2.4,4.969,4.649,9.735,7.587,13.415A20.078,20.078,0,0,0,127,398.929a13.951,13.951,0,0,1-6.335-1.345,21.893,21.893,0,0,1-6.363-4.5,34.671,34.671,0,0,1-4.568-5.751,37.525,37.525,0,0,1-2.555-4.59,68.057,68.057,0,0,1-2.871-7.036,20.764,20.764,0,0,1-1.19-7.565,11.8,11.8,0,0,1,2.771-7.033,19.433,19.433,0,0,1,5.612-4.289c2-1.077,3.977-1.966,5.947-2.864a41.144,41.144,0,0,1,6.044-2.236,20.809,20.809,0,0,1,6.288-.746,24.576,24.576,0,0,1,6.022,1.045,38.459,38.459,0,0,1,5.461,2.133,23.921,23.921,0,0,1,4.959,2.938,8.744,8.744,0,0,1,1.987,2.283,6,6,0,0,1,.8,3.044,10.959,10.959,0,0,1-1.938,5.316c-3.523,5.83-6.838,11.226-10.069,16.194-1.509,2.375-3.713,5.529-5.685,8.279l-2.669,3.676a5.1,5.1,0,0,0-.834,1.386A1.264,1.264,0,0,0,127.862,398.285Z" transform="matrix(-1, 0, 0, 1, 380, 0)" /><g data-name="default" id="default-2" transform="matrix(-1, 0, 0, 1, 380, 0)"><path class="cls-2 color-body" d="M239.64,463.371c-.822-7.144-2.461-16.135-4.759-22.342-13.642-36.838,9.04-78.792-30.636-91.823-29.145-9.571-59.413,5.745-75.671,54.174-5.9,17.562-7.776,42.306-3.484,59.991" style="fill:#ffffff;--backup-fill:#ffffff" /><path d="M125.031,463.385c-.41-.5-1.421-3.49-2.2-8.059a99.615,99.615,0,0,1-1.25-17.25,134.8,134.8,0,0,1,1.693-19.911,131.447,131.447,0,0,1,11.94-37.3A86.133,86.133,0,0,1,148.808,361a58.643,58.643,0,0,1,20.166-14.4,50.59,50.59,0,0,1,24.3-3.677,57.2,57.2,0,0,1,10.347,1.977,52.19,52.19,0,0,1,9.832,3.9,35.63,35.63,0,0,1,8.75,6.428,31.61,31.61,0,0,1,6.249,8.889c3.08,6.5,4.087,13.306,4.518,19.666.422,6.4.282,12.522.227,18.43s-.077,11.587.243,17.051a91.2,91.2,0,0,0,2.165,15.6q.219.921.435,1.833l.517,1.787q.549,1.857,1.085,3.674a74.079,74.079,0,0,1,1.621,7.381,119,119,0,0,1,1.5,13.7c-1.269-3.742-2.722-8.309-4.474-13.089-.876-2.387-1.833-4.827-2.918-7.167-.548-1.11-1.134-2.421-1.7-3.691-.6-1.268-1.024-2.59-1.531-3.886a78.5,78.5,0,0,1-4.271-26.328c.289-10.761,1.225-20.984.12-30.554a37.982,37.982,0,0,0-3.806-13.331,27.3,27.3,0,0,0-8.9-9.8,43.034,43.034,0,0,0-12.118-5.436,49.786,49.786,0,0,0-12.837-1.91,44.984,44.984,0,0,0-23.579,6.427,60.713,60.713,0,0,0-17.071,15.672,84.493,84.493,0,0,0-6.165,9.285c-.952,1.563-1.759,3.2-2.62,4.778-.783,1.626-1.623,3.2-2.327,4.836l-1.093,2.416q-.506,1.221-1.007,2.431c-.691,1.6-1.276,3.238-1.893,4.842s-1.138,3.231-1.708,4.822c-.521,1.6-1.037,3.167-1.47,4.762a134.552,134.552,0,0,0-3.788,18.792c-.389,2.918-.748,6.381-1.077,10-.268,3.625-.505,7.416-.505,10.973A101.722,101.722,0,0,0,125.031,463.385Z" /><path class="cls-2 color-body" d="M234.881,441.029c-13.642-36.838,9.04-78.792-30.636-91.823-29.144-9.571-59.413,5.745-75.671,54.174-5.9,17.562-7.776,42.306-3.484,59.991h0s6.034,10.253,50.162,13c42.248,2.629,64.388-13,64.388-13h0C238.818,456.227,237.179,447.236,234.881,441.029Z" style="fill:#ffffff;--backup-fill:#ffffff" /></g><g id="dress_pink" transform="matrix(-1, 0, 0, 1, 380, 0)"><path class="cls-4 color-coat2" d="M136.185,433.354c-32.4,10.491-59.859,40.259-55.521,49.027,23.657,47.813,78.891,54.885,126.467,49.175,27.38-3.285,69.059-20.863,79.293-47.575,6.666-22.967-69.412-51.351-88.536-52.123" /><path d="M197.889,431.827a19.848,19.848,0,0,1,3.888.2,76.654,76.654,0,0,1,8.154,1.539,199.486,199.486,0,0,1,24.031,7.582,217.246,217.246,0,0,1,26.48,12.053c8.212,4.463,15.238,9.337,19.68,13.605a33.261,33.261,0,0,1,5.332,6.345,19.281,19.281,0,0,1,1.881,3.895,13.083,13.083,0,0,1,.691,4.436,8.173,8.173,0,0,1-.085,1.146,7.531,7.531,0,0,1-.2,1.135l-.139.61-.224.545-.406.988a20.573,20.573,0,0,1-.874,1.953c-.323.637-.616,1.293-.967,1.916a52.491,52.491,0,0,1-4.769,7.162,68.8,68.8,0,0,1-5.837,6.387,86.188,86.188,0,0,1-6.6,5.647,107.656,107.656,0,0,1-14.675,9.413,142.215,142.215,0,0,1-32.506,12.486c-2.809.7-5.643,1.289-8.485,1.8s-5.716.833-8.52,1.151c-5.64.612-11.253,1.025-16.8,1.224-4.853.182-9.712.2-14.555,0s-9.673-.526-14.461-1.144-9.543-1.386-14.218-2.46a130.273,130.273,0,0,1-13.762-3.965,108.813,108.813,0,0,1-13-5.655,89.4,89.4,0,0,1-11.877-7.4A82.757,82.757,0,0,1,86.139,495l-1.848-2.753c-.611-.916-1.135-1.883-1.7-2.817-1.161-1.857-2.1-3.818-3.106-5.724a7.748,7.748,0,0,1-.376-.774c-.13-.347-.252-.7-.362-1.049a8.116,8.116,0,0,1-.142-2.012,12.722,12.722,0,0,1,.741-3.532,28.107,28.107,0,0,1,3.024-5.835,65.42,65.42,0,0,1,7.867-9.593,104.674,104.674,0,0,1,8.78-7.985,110.622,110.622,0,0,1,37-20.113c-2.619,1.1-5.508,2.357-8.518,3.883s-6.149,3.284-9.312,5.247a128.112,128.112,0,0,0-18.429,13.89,85.661,85.661,0,0,0-14.176,16.083c-1.655,2.643-2.98,5.307-3.281,7.451a3.809,3.809,0,0,0-.061.744,2.034,2.034,0,0,0,.034.639l.029.292a2.18,2.18,0,0,1,.09.221c.025.074.047.149.065.226l.2.38,1.438,2.8a79.935,79.935,0,0,0,30.08,31.943,96.361,96.361,0,0,0,19.4,8.88,123.188,123.188,0,0,0,20.2,4.914,181.958,181.958,0,0,0,39.717,1.633l4.8-.35,4.749-.447c3.156-.341,6.263-.69,9.318-1.238A135.731,135.731,0,0,0,261.524,510.5a82.038,82.038,0,0,0,12.788-10.412,55.5,55.5,0,0,0,5.237-6.048c.82-1.038,1.515-2.151,2.246-3.234.651-1.128,1.364-2.22,1.909-3.39.611-1.14,1.1-2.325,1.587-3.5l.087-.208a.526.526,0,0,0,.045-.151l.1-.424a4.8,4.8,0,0,0,.149-.866,8.682,8.682,0,0,0,.056-1.751,14.107,14.107,0,0,0-2.447-6.671,43.818,43.818,0,0,0-10.317-10.369,145.919,145.919,0,0,0-24.486-14.347,278.844,278.844,0,0,0-28.8-11.789c-4.962-1.7-9.649-3.092-13.484-4.026A52.815,52.815,0,0,0,197.889,431.827Z" /><path class="cls-3 color-coat1" d="M230.143,417.522c-1.6-.095-3.213-.1-4.815-.251-6-.56-9.6-3.272-13.6-7.587-5.345-5.763-10.522-13.318-18.295-15.907-6.026-2.007-12.9-.44-18.068,3.249s-8.758,9.286-10.937,15.252a166.28,166.28,0,0,0-6.142-16.134c-1.487-3.368-3.216-6.843-6.253-8.924-5.553-3.8-13.063-.8-18.148,3.613-9.79,8.49-10.983,42.038-11.1,49.083C128.1,454.982,142.777,472.69,158.5,483.5c19-9,51-24,75.381-42.971A232.682,232.682,0,0,1,230.143,417.522Z" /><path d="M230.173,417.519c.239.687.732,4.382,1.67,9.8.469,2.707,1.053,5.843,1.757,9.248q.274,1.294.558,2.641l.178.824.09.416.045.209.023.105a.808.808,0,0,1-.083.067l-1.361,1.042c-1.5,1.125-2.989,2.341-4.589,3.467-12.608,9.307-28.081,18.1-36.734,22.847-7.622,4.237-15.665,8.367-23.926,12.434l-6.229,3.048-1.708.829-1.371.659c-.057.016-.117.082-.17.056l-.155-.11-.309-.22-.618-.438-1.685-1.188c-.485-.341-.973-.678-1.439-1.045a108.617,108.617,0,0,1-28.476-31.819,70.383,70.383,0,0,1-3.229-6.411c-.262-.537-.46-1.108-.685-1.663l-.735-1.879c-.025-.066-.054-.13-.074-.2l0-.209.007-.419.008-.5.018-.876.049-1.747q.231-6.972.9-13.775a110.4,110.4,0,0,1,3.941-21.325,42.281,42.281,0,0,1,1.958-5.176,24.338,24.338,0,0,1,2.922-4.93c.33-.379.619-.777.989-1.135s.744-.754,1.1-1.033a27.418,27.418,0,0,1,2.241-1.708,24.658,24.658,0,0,1,4.994-2.66,17.467,17.467,0,0,1,5.686-1.224,12.42,12.42,0,0,1,5.922,1.218,13.425,13.425,0,0,1,4.552,3.779,24.615,24.615,0,0,1,2.84,4.683c1.481,3.161,2.716,6.221,3.919,9.347q.435,1.17.868,2.333.348.981.695,1.956c.029.1.064.282.108.395l.111-.215.659-1.2a34.893,34.893,0,0,1,3.525-5.11,29.753,29.753,0,0,1,4.428-4.287,25.039,25.039,0,0,1,5.256-3.114,22.108,22.108,0,0,1,11.7-1.744,21.281,21.281,0,0,1,10.32,4.673c5.708,4.608,9.36,10.39,13.747,14.757a18.385,18.385,0,0,0,7.344,4.788c2.7.939,5.655.9,8.437,1.169l-3.648.114a18.836,18.836,0,0,1-3.972-.224,16.5,16.5,0,0,1-4.125-1.242,20.457,20.457,0,0,1-3.91-2.4,63.734,63.734,0,0,1-6.9-6.588,81.361,81.361,0,0,0-6.78-6.616,23.074,23.074,0,0,0-7.5-4.416,16.539,16.539,0,0,0-7.664-.629,21.14,21.14,0,0,0-6.4,2.042,24.842,24.842,0,0,0-4.384,2.879,27.54,27.54,0,0,0-5.415,6.044c-.371.554-.717,1.117-1.051,1.68q-.24.427-.478.85c-.29.524-.548,1.13-.818,1.678-1.035,2.268-1.987,4.83-2.815,6.885q-1.227-3.817-2.446-7.607l-.915-2.692-.72-2.036q-1.464-4.054-3.124-7.97a24.4,24.4,0,0,0-4-6.992,9.1,9.1,0,0,0-6.565-3.14,15.347,15.347,0,0,0-7.407,1.867,22.143,22.143,0,0,0-3.323,2.065,18.263,18.263,0,0,0-1.507,1.221l-.668.645-.612.717a25.714,25.714,0,0,0-3.639,6.779,61.669,61.669,0,0,0-2.231,7.446,125.225,125.225,0,0,0-2.5,15.1c-.544,5.009-.881,9.968-1.045,14.852l-.05,1.828-.009.449a.867.867,0,0,0,.014.279l.291.747c.424,1.121.862,2.233,1.378,3.309.473,1.095,1.01,2.156,1.564,3.2.522,1.063,1.129,2.079,1.714,3.1a93.738,93.738,0,0,0,7.94,11.424A108.753,108.753,0,0,0,155.454,480.1c.836.67,1.728,1.254,2.587,1.878l.372.262.167.117c.057.024.123-.044.183-.062l1.074-.519q2.875-1.382,5.7-2.743c3.765-1.825,7.466-3.624,11.083-5.44,14.484-7.23,27.766-14.489,39.759-22.032,1.513-.949,3.16-1.992,4.869-3.128l2.64-1.72,2.693-1.839c1.835-1.219,3.65-2.539,5.463-3.843l1.051-.742c.058-.019.044-.07.032-.119l-.025-.145-.05-.291-.108-.625c-.188-1.092-.374-2.173-.556-3.235C230.965,427.359,230.332,419.948,230.173,417.519Z" /><ellipse class="cls-5" cx="162.071" cy="426.957" rx="5.623" ry="4.834" transform="translate(-267.933 580.759) rotate(-88.894)" /><path d="M166.881,427.049c-.246-.132-.3-1.39-.971-2.588a4.96,4.96,0,0,0-1.283-1.54,3.158,3.158,0,0,0-1.412-.65,3.7,3.7,0,0,0-3.533,1.434,5.042,5.042,0,0,0-.957,3.866,4.744,4.744,0,0,0,1.477,2.823,3.112,3.112,0,0,0,2.607.754,4.142,4.142,0,0,0,2.411-1.513,6.739,6.739,0,0,0,1.257-2.593,4.535,4.535,0,0,1-1.979,6.447,5.813,5.813,0,0,1-4.359-.329,6.207,6.207,0,0,1-2.635-2.67,7.566,7.566,0,0,1-.281-6.318,5.656,5.656,0,0,1,4.41-3.61,4.917,4.917,0,0,1,2.736.477,5.006,5.006,0,0,1,1.9,1.681,4.865,4.865,0,0,1,.825,2.513A5.437,5.437,0,0,1,166.881,427.049Z" /><ellipse class="cls-5" cx="159.893" cy="446.261" rx="5.623" ry="4.834" transform="translate(-289.37 597.513) rotate(-88.894)" /><path d="M164.7,446.354c-.246-.133-.3-1.391-.971-2.589a4.945,4.945,0,0,0-1.283-1.539,3.167,3.167,0,0,0-1.412-.651,3.7,3.7,0,0,0-3.533,1.434,5.042,5.042,0,0,0-.957,3.866,4.747,4.747,0,0,0,1.477,2.824,3.113,3.113,0,0,0,2.606.754,4.141,4.141,0,0,0,2.412-1.514,6.733,6.733,0,0,0,1.257-2.593,4.537,4.537,0,0,1-1.979,6.447,5.812,5.812,0,0,1-4.359-.329,6.2,6.2,0,0,1-2.635-2.669,7.571,7.571,0,0,1-.282-6.318,5.66,5.66,0,0,1,4.411-3.611,4.912,4.912,0,0,1,2.735.477,5,5,0,0,1,1.905,1.681,4.881,4.881,0,0,1,.825,2.514A5.446,5.446,0,0,1,164.7,446.354Z" /><ellipse class="cls-5" cx="158.681" cy="465.496" rx="5.623" ry="4.834" transform="translate(-309.79 615.165) rotate(-88.894)" /><path d="M163.491,465.589c-.245-.133-.3-1.391-.971-2.589a4.945,4.945,0,0,0-1.283-1.539,3.173,3.173,0,0,0-1.412-.651,3.7,3.7,0,0,0-3.533,1.434,5.048,5.048,0,0,0-.957,3.866,4.744,4.744,0,0,0,1.477,2.824,3.115,3.115,0,0,0,2.607.754,4.139,4.139,0,0,0,2.411-1.514,6.739,6.739,0,0,0,1.257-2.593,4.535,4.535,0,0,1-1.979,6.447,5.81,5.81,0,0,1-4.358-.328,6.209,6.209,0,0,1-2.636-2.67,7.569,7.569,0,0,1-.281-6.319,5.659,5.659,0,0,1,4.41-3.61,4.934,4.934,0,0,1,2.736.477,5.015,5.015,0,0,1,1.9,1.681,4.871,4.871,0,0,1,.825,2.513A5.44,5.44,0,0,1,163.491,465.589Z" /><polyline class="cls-3 color-coat1" points="95.156 493.949 102.615 474.678 121.815 470.845 117.062 488.918 95.517 494.013" /><path d="M95.512,493.994c.546-.544,12.073-3.254,16.46-4.53l4.4-1.255c-.015-.049.213-1.012.375-1.721l.526-2.252c.363-1.51.73-3.039,1.1-4.573s.756-3.07,1.133-4.6l.567-2.279.064-.256v-.02l0-.034v-.051a.7.7,0,0,0-.092.04l-4.293.895-4.421.888-4.316.833-2.1.394c-.638.117-1.643.306-1.415.248l-1.991,4.785-2.133,5c-1.384,3.189-2.687,6.073-3.873,8.571a72.307,72.307,0,0,1,4.049-14.961c.388-.847.773-1.685,1.142-2.49l.536-1.182.286-.643.406-.957,5.692-.917,4.947-.845,4.706-.861,5.231-1.018q-.753,2.894-1.469,5.646l-1.173,4.647q-1.182,4.737-2.24,8.981l-6.439,1.567c-1.934.457-3.791.878-5.588,1.257C102.343,493.027,96.637,493.852,95.512,493.994Z" /><polyline class="cls-3 color-coat1" points="117.406 512.251 120.011 490.67 140.848 484.344 138.815 506.014 117.53 512.352" /><path d="M117.526,512.337c.589-.5,12.84-4.138,17.508-5.715l3.208-1.079.005-.252.043-.64q.045-.657.09-1.32.1-1.329.192-2.681c.139-1.8.28-3.629.421-5.463.262-3.2.525-6.416.779-9.525l-.054.026-.01,0c-.006,0,.021,0-.095.031l-.489.153-9.649,2.962-4.679,1.4-2.282.67-1.123.327-.49.141-.045.006q-.393,2.821-.763,5.477c-.286,1.956-.562,3.845-.826,5.654-.544,3.614-1.075,6.9-1.578,9.775a107.473,107.473,0,0,1,.74-16.666c.148-.892.294-1.777.435-2.626.069-.425.137-.841.2-1.244.086-.573.17-1.129.25-1.662l6.11-1.669,5.376-1.512,5.107-1.485,5.373-1.609q-.565,6.355-1.071,12.035-.474,5.609-.895,10.579l-5.922,1.783-5.18,1.492C124.772,510.691,118.719,512.08,117.526,512.337Z" /><polyline class="cls-3 color-coat1" points="150.168 526.247 143.453 506.67 158.337 489.553 165.643 510.803 150.524 526.555" /><path d="M150.513,526.545c.265-.73,9.143-9.962,12.43-13.646l2.011-2.248-.118-.281-.237-.634q-.238-.636-.478-1.28l-.96-2.6-1.929-5.321c-.64-1.79-1.281-3.587-1.918-5.371q-.475-1.339-.945-2.667l-.234-.662-.117-.33-.012-.026-.033-.058-.029.046-.01.018c-.024.029.05-.054-.094.114l-6.981,8.074-3.41,3.877-1.67,1.882-.824.924-.409.458a.533.533,0,0,1-.062.059l1.619,5.038,1.629,5.181c1.028,3.323,1.939,6.371,2.705,9.065a107.942,107.942,0,0,1-6.6-15.361l-.593-2.016-.281-.954c-.143-.46-.282-.905-.414-1.331l4.447-4.816,3.915-4.308,3.685-4.131q2-2.283,3.89-4.437l4.142,11.864q1.93,5.455,3.637,10.274l-4.1,4.3-3.638,3.721C156.012,521.523,151.425,525.73,150.513,526.545Z" /><polyline class="cls-3 color-coat1" points="185.816 528.857 172.588 510.422 178.883 488.53 193.872 508.27 185.769 528.617" /><path d="M185.755,528.611c-.016-.809,4.976-13.31,6.727-18.195l.409-1.133.217-.6.111-.328-.1-.121-.163-.2-.467-.58-.94-1.173-1.9-2.393c-1.271-1.617-2.562-3.26-3.858-4.911s-2.582-3.32-3.865-4.972l-1.911-2.47-.473-.612-.194-.249-.016-.017-.052-.047-.011.092c-.977,3.434-1.949,6.852-2.9,10.186l-1.46,4.985q-.667,2.229-1.309,4.367l3.386,4.894,3.359,4.925c2.136,3.16,4.055,6.061,5.7,8.625a119.061,119.061,0,0,1-11.24-13.5c-.5-.765-1-1.525-1.479-2.253l-.7-1.066-.877-1.3,1.96-6.171,1.726-5.58q.82-2.733,1.6-5.33.869-2.979,1.691-5.8L187.2,498.74l7.3,9.446-2.081,5.247c-.649,1.588-1.276,3.12-1.886,4.61C189.1,521.537,186.316,527.455,185.755,528.611Z" /><polyline class="cls-3 color-coat1" points="218.422 524.637 199.498 507.886 201.891 485.822 222.095 500.143 218.55 524.382" /><path d="M218.535,524.379c-.2-.82,1.859-14.8,2.469-20.211.135-1.176.273-2.376.43-3.742l-.125-.076-.185-.12-.62-.417-1.249-.843-2.531-1.72-5.144-3.533-8.916-6.179,0,.08c-.371,3.519-.74,7.023-1.1,10.44-.375,3.255-.739,6.427-1.087,9.447l4.927,4.5q2.54,2.346,4.885,4.516c3.109,2.9,5.908,5.56,8.317,7.908A131.179,131.179,0,0,1,204,513.18l-2.589-2.48-1.231-1.172-1.44-1.35q.425-3.18.831-6.237.366-2.878.714-5.636.33-2.76.643-5.391.333-2.967.649-5.783l11.261,7.915,9.834,6.849-.956,6.667c-.313,2.026-.615,3.975-.907,5.863C220.206,516.339,218.823,523.062,218.535,524.379Z" /></g><path class="cls-3 color-coat1" d="M228.075,444.443a204.907,204.907,0,0,1-60.267,35.34c9.8-2.287,20.275.244,29.018,5.223s15.963,12.239,22.52,19.871c14.909,17.351,27.211,37.675,31.206,60.2,14.139-11.118,28.374-22.326,40.14-35.931,4.154-4.8,7.513-10.144,11.931-14.688a7.7,7.7,0,0,0,2.218-5.944c-.063-7.116-3.462-13.9-7.016-19.882A112.124,112.124,0,0,0,284.3,470c-10.026-10.935-23.472-19.77-37.853-23.725a10.485,10.485,0,0,0-4.657-.153,16.2,16.2,0,0,1-2.518.192c-5.718-.031-11.361-.426-17.091-.087" transform="matrix(-1, 0, 0, 1, 380, 0)" /><path d="M222.182,446.2a67.2,67.2,0,0,1,11.15-.4l4.97.046a20.207,20.207,0,0,0,2.666-.11,24.23,24.23,0,0,1,2.9-.317,9.9,9.9,0,0,1,3.089.441c.978.294,1.989.546,2.985.889,2,.655,4.046,1.386,6.069,2.262a84.731,84.731,0,0,1,22.587,14.285,95.642,95.642,0,0,1,14.637,16.341,127.19,127.19,0,0,1,8.044,12.67c2.413,4.487,4.509,9.468,4.906,14.942a13.224,13.224,0,0,1-.265,4.3,8.869,8.869,0,0,1-2.277,3.963,70.21,70.21,0,0,0-4.907,5.878c-1.572,2.06-3.117,4.192-4.766,6.291-1.649,2.117-3.43,4.12-5.214,6.09a225.256,225.256,0,0,1-23.279,21.718q-3.041,2.518-6.1,4.966l-7.066,5.623-2.9,2.29-.091.071c-.023,0-.018-.056-.028-.081l-.041-.2-.082-.4-.164-.8-.327-1.608-.656-3.218-.164-.805-.117-.466-.23-.911c-.579-2.438-1.3-4.826-2.049-7.186a121.53,121.53,0,0,0-13.042-27.019A177.3,177.3,0,0,0,214.5,502.368c-6.447-7.11-13.537-13.393-21.554-17.311a44.277,44.277,0,0,0-12.395-3.983,33.971,33.971,0,0,0-12.37.3l-.945-3.121a211.909,211.909,0,0,0,34.25-16.148,217.7,217.7,0,0,0,26.223-18.1,154.959,154.959,0,0,1-12.629,11.145A173.85,173.85,0,0,1,199,466.48a180.434,180.434,0,0,1-16.691,9.237c-5.287,2.569-10.1,4.552-13.8,5.936l-1.155-3.814a30.957,30.957,0,0,1,4.649-.7,42.888,42.888,0,0,1,21.329,4.337,65.336,65.336,0,0,1,16.988,12.057,147.867,147.867,0,0,1,13.338,14.89,173.53,173.53,0,0,1,11.206,15.758,119.107,119.107,0,0,1,14.88,33.659c.345,1.409.781,3.066.921,3.912l.309,1.538.077.383c.063.014.174-.118.258-.171l.542-.427,6.281-4.977c4.472-3.582,8.825-7.157,13-10.8,8.308-7.292,16.006-14.817,22.269-22.991,1.568-2.056,3.1-4.14,4.7-6.158q1.2-1.517,2.491-2.963c.425-.484.87-.951,1.311-1.42a7.223,7.223,0,0,0,1.014-1.311,6.626,6.626,0,0,0,.885-3.111,21.96,21.96,0,0,0-.183-3.52,30.531,30.531,0,0,0-1.8-6.854,74.179,74.179,0,0,0-6.574-12.465,118.24,118.24,0,0,0-7.877-11.213,87.953,87.953,0,0,0-18.927-17.62,90.538,90.538,0,0,0-11.736-6.776c-2.227-1.015-4.515-2.035-6.865-2.845-1.16-.451-2.355-.782-3.519-1.173a9.022,9.022,0,0,0-3.42-.361,27.557,27.557,0,0,1-3.579.239l-3.379-.138-6.014-.309C226.311,446.141,223.548,446.157,222.182,446.2Z" transform="matrix(-1, 0, 0, 1, 380, 0)" /><g data-name="default" id="default-3" transform="matrix(-1, 0, 0, 1, 380, 0)"><path class="cls-2 color-body" d="M259.039,440.066c-1.139-18.561-3.924-46.029-22.5-62.515-15.9-14.111-22.106-3.869-24.321-.71s-5.633,16.01-1.424,26.085,7.753,25.3,10.376,45.725c2.91,22.661,8.17,41.038,19.9,39.455C255.749,486.122,259.977,455.341,259.039,440.066Z" style="fill:#ffffff;--backup-fill:#ffffff" /><path class="cls-2 color-body" d="M210.791,402.926c4.766,11.192,7.753,25.3,10.376,45.725,2.91,22.661,8.17,41.038,19.894,39.455,14.687-1.984,18.916-32.765,17.978-48.04-1.139-18.561-3.924-46.029-22.5-62.515-15.9-14.111-24.321-.71-24.321-.71" style="fill:#ffffff;--backup-fill:#ffffff" /><path d="M212.163,376.809a4.751,4.751,0,0,1,1.129-2.015,12.819,12.819,0,0,1,10.682-4.683,19.817,19.817,0,0,1,7.878,2.5,31.192,31.192,0,0,1,3.614,2.395l1.727,1.341c.569.456,1.068.978,1.606,1.465a36.46,36.46,0,0,1,3.058,3.044l1.414,1.586.7.784.627.825a69.022,69.022,0,0,1,7.46,11.874c5.769,11.243,8.546,24.7,9.841,38,.173,1.668.321,3.334.456,5s.25,3.463.275,5.164a98.609,98.609,0,0,1-.362,10.251,85.588,85.588,0,0,1-3.941,19.875,43.312,43.312,0,0,1-3.783,8.28,26.328,26.328,0,0,1-2.873,3.895,18.251,18.251,0,0,1-3.919,3.376,14.721,14.721,0,0,1-5.079,2.1,13.243,13.243,0,0,1-10.892-2.289,17.757,17.757,0,0,1-3.651-3.626,32.965,32.965,0,0,1-4.335-7.95,64.54,64.54,0,0,1-2.53-7.962,130.5,130.5,0,0,1-2.827-15.475c-.642-5.078-1.041-9.864-1.6-14.527-.534-4.66-1.115-9.159-1.78-13.464a139.357,139.357,0,0,0-5.314-23.2,54.861,54.861,0,0,1,5.944,10.1,98.283,98.283,0,0,1,4.82,12.781,109.657,109.657,0,0,1,4.5,21.66c.275,4.421.663,8.74,1.259,12.952a83.864,83.864,0,0,0,2.535,12.18,40.966,40.966,0,0,0,2.069,5.552,19.448,19.448,0,0,0,2.946,4.7,9.716,9.716,0,0,0,1.887,1.71,6.966,6.966,0,0,0,2.153,1.04,8.1,8.1,0,0,0,4.8-.173c3.185-1.026,5.715-3.861,7.544-6.956a43.247,43.247,0,0,0,4.168-10.067,88.118,88.118,0,0,0,3.1-20.924q.079-2.565.006-5.077c-.038-1.666-.188-3.316-.318-5-.264-3.34-.588-6.609-1-9.806a128.055,128.055,0,0,0-3.57-18.237,79.522,79.522,0,0,0-6.245-15.941,58.107,58.107,0,0,0-9.166-12.837l-1.325-1.35c-.23-.232-.454-.484-.7-.713l-.767-.666-1.581-1.4c-.542-.471-1.148-.848-1.731-1.294a17.28,17.28,0,0,0-7.869-3.387,11.891,11.891,0,0,0-7.352,1.539A14.682,14.682,0,0,0,212.163,376.809Z" /></g><path class="cls-3 color-coat1" d="M211.284,412.205c-1.752-6.1-3.523-12.419-2.678-18.711a34.469,34.469,0,0,1,4.219-11.721c2.421-4.454,5.568-8.827,10.178-10.936a22.284,22.284,0,0,1,10.3-1.54,49.355,49.355,0,0,1,22.5,6.622c5.505,3.205,10.805,8.407,10.588,14.773a17.157,17.157,0,0,1-2.147,7.078c-7.721,15.187-25.758,24.391-42.586,21.731a14.824,14.824,0,0,1-6.9-2.557,6.635,6.635,0,0,1-2.676-6.5" transform="matrix(-1, 0, 0, 1, 380, 0)" /><path d="M212.115,410.45c.052.189-.037.729.085,1.534a6.587,6.587,0,0,0,1.2,2.916,8.2,8.2,0,0,0,3.428,2.706A18.123,18.123,0,0,0,222,418.924a37.176,37.176,0,0,0,11.49-.236,38.863,38.863,0,0,0,8.994-2.7,44.145,44.145,0,0,0,10.887-6.915,38.983,38.983,0,0,0,8.393-10.247,23.107,23.107,0,0,0,2.563-5.961,9.747,9.747,0,0,0-.334-5.82,14.649,14.649,0,0,0-3.367-5.055,25.7,25.7,0,0,0-4.94-3.879,48.653,48.653,0,0,0-20.915-6.727c-3.622-.3-7.184-.244-10.2.873a16.977,16.977,0,0,0-7.476,6.009,47.343,47.343,0,0,0-4.975,8.526,26.417,26.417,0,0,0-2.409,8.8,35.3,35.3,0,0,0,.484,8.6c.45,2.758,1.078,5.378,1.641,7.856a57.969,57.969,0,0,1-3.132-7.574,30.958,30.958,0,0,1-1.659-9.581,26.23,26.23,0,0,1,1.786-9.226,33.609,33.609,0,0,1,2.98-6.069,30.652,30.652,0,0,1,6.4-7.488,18.141,18.141,0,0,1,4.243-2.561,18.6,18.6,0,0,1,4.665-1.229,36.591,36.591,0,0,1,9.041.145,52.693,52.693,0,0,1,16.265,4.771,41.7,41.7,0,0,1,6.977,4.15,23.249,23.249,0,0,1,5.5,5.736,13.292,13.292,0,0,1,2.3,7.478,17.455,17.455,0,0,1-2.027,7.254c-.557,1.078-1.159,2.12-1.731,3.169-.67.986-1.3,1.992-1.992,2.94a42.153,42.153,0,0,1-9.769,9.418,41.4,41.4,0,0,1-23.084,7.56,33.65,33.65,0,0,1-6.181-.5,18.118,18.118,0,0,1-6.456-2.1,9.045,9.045,0,0,1-2.44-2.065,7.589,7.589,0,0,1-1.323-2.408A5.469,5.469,0,0,1,212.115,410.45Z" transform="matrix(-1, 0, 0, 1, 380, 0)" /><path class="cls-3 color-coat1" d="M155.2,479.925c-13.688-11.208-34.372-10.51-50.03-2.276S78.056,500.3,68.549,515.221c2.658-16.181,7.151-32.33,15.884-46.209s22.121-25.355,38.058-29.213c2.927,15.248,12.5,24.7,24.235,34.875" transform="matrix(-1, 0, 0, 1, 380, 0)" /><path d="M146.706,474.7a48.34,48.34,0,0,1-5.5-4.411,82.3,82.3,0,0,1-10.178-10.509,53.549,53.549,0,0,1-4.734-7.118,45.581,45.581,0,0,1-3.332-7.792l-.587-1.942q-.186-.759-.367-1.493l-.13-.526-.016-.065a.483.483,0,0,0-.065.017l-.131.039-.259.078-1.171.348c-1.095.331-2.1.737-3.061,1.068-.942.375-1.8.765-2.586,1.1-11.023,5.024-20.892,14.14-27.917,25.1a93.787,93.787,0,0,0-8.709,17.5,133.98,133.98,0,0,0-5.385,18.471c-.829,3.768-1.523,7.563-2.075,10.975l-3.631-1.388A140.3,140.3,0,0,1,85.5,490.109c7.056-7.044,15.125-12.825,23.841-16.235a52.7,52.7,0,0,1,25.867-3.3,39.956,39.956,0,0,1,11.339,3.174,37.752,37.752,0,0,1,9,5.735,43.457,43.457,0,0,0-10.584-4.75,45.419,45.419,0,0,0-13.02-1.755,62.071,62.071,0,0,0-20.768,4.084,59.209,59.209,0,0,0-13.443,7,80.721,80.721,0,0,0-11.277,9.565,136.769,136.769,0,0,0-17.218,22.036l-1.511-.578A156.734,156.734,0,0,1,75.9,484.274a87.465,87.465,0,0,1,14.622-25.082,65.076,65.076,0,0,1,20.695-16.455A53.968,53.968,0,0,1,117,440.292c.986-.315,1.942-.706,2.937-.947l2.142-.584,1.116-.3c.04,0,.107-.049.125-.015l.031.141.063.283.125.564.487,2.2a14.2,14.2,0,0,0,.351,1.39c.272.912.488,1.837.826,2.716.313.888.6,1.778.986,2.627.351.861.712,1.713,1.135,2.53a51.33,51.33,0,0,0,4.339,7.291,77.143,77.143,0,0,0,5.866,7.246C141.607,469.915,145.49,473.477,146.706,474.7Z" transform="matrix(-1, 0, 0, 1, 380, 0)" /><path class="cls-4 color-coat2" d="M164.476,382.177c-16.05-2.274-32.981-.663-45.353,9.811a41.529,41.529,0,0,1,19.432-57.373c5.421-2.467,11.3-3.737,17.147-4.868,24.142-4.672,50.649-6.906,71.955,5.372,4.886,2.816,9.46,6.449,12.351,11.291,5.632,9.432,3.789,21.871-1.759,31.352s-14.236,16.644-22.741,23.6c-5.391-7.01-11.919-13.381-19.938-17.108s-16.914-.963-25.656-.664c12.045-3.052,24.066-7.5,32.529-16.592,3.949-4.244,7.314-10.5,4.555-15.6-2.628-4.858-11.816-6.384-17.332-6.09-8.309.443-11.442,1.576-19.268,4.4-3.97,1.435-12.775,8.18-14.313,12.112-3.079,7.871,1.651,13.212,8.732,20.359" transform="matrix(-1, 0, 0, 1, 380, 0)" /><path d="M164.8,382.2a39.694,39.694,0,0,1-3.164-2.978,30.07,30.07,0,0,1-5.644-7.412,11.979,11.979,0,0,1-1.279-6.079,11.473,11.473,0,0,1,.229-1.686q.091-.422.183-.848c.078-.279.177-.553.266-.833a7.8,7.8,0,0,1,.707-1.679l.492-.781.551-.734a34.977,34.977,0,0,1,5.4-5.228,37.49,37.49,0,0,1,6.645-4.38c.307-.156.646-.279.969-.419l.946-.35,1.9-.693c1.276-.46,2.567-.913,3.881-1.331a42.434,42.434,0,0,1,8.137-1.783c1.377-.163,2.755-.289,4.124-.369a31.048,31.048,0,0,1,4.16,0,29.652,29.652,0,0,1,7.99,1.6,15.431,15.431,0,0,1,3.612,1.811,9.028,9.028,0,0,1,2.813,2.954,10.217,10.217,0,0,1,.758,7.476,19.4,19.4,0,0,1-2.823,6.028A29.044,29.044,0,0,1,202,368.861a50.205,50.205,0,0,1-14.265,9.914,97.254,97.254,0,0,1-17.485,6.137l-.382-2.69c4.538-.195,9.185-1.092,14.094-1.338a30.752,30.752,0,0,1,7.509.439,24.728,24.728,0,0,1,7.165,2.718,51.107,51.107,0,0,1,11.929,9.086c1.768,1.773,3.431,3.642,5.008,5.576l.181.214c.064.019.146-.1.215-.149l2.534-2.118a120.348,120.348,0,0,0,10.6-9.842,53.326,53.326,0,0,0,8.325-11.379,35.646,35.646,0,0,0,3.96-13.092,25.145,25.145,0,0,0-2.015-12.959c-2.052-4.5-5.805-8.1-10.069-10.919a65.769,65.769,0,0,0-6.763-3.771l-3.56-1.544c-1.205-.469-2.437-.869-3.652-1.309a88.24,88.24,0,0,0-30.587-3.729,196.424,196.424,0,0,0-30.31,3.833,73.022,73.022,0,0,0-14.119,3.915,39.554,39.554,0,0,0-11.767,7.632,40.624,40.624,0,0,0-8.336,10.924,38.932,38.932,0,0,0-4.058,12.747,40.77,40.77,0,0,0,.3,13.037,39.557,39.557,0,0,0,1.647,6.171c.184.494.348,1,.549,1.482l.574,1.364c.074.184.155.344.236.523.044.078.072.2.132.243l.307-.229c.48-.347.6-.491,1.74-1.219a31.769,31.769,0,0,1,2.774-1.71l1.411-.785c.476-.249.968-.462,1.448-.693l1.445-.676,1.476-.578a52.249,52.249,0,0,1,11.893-3.012,77.65,77.65,0,0,1,22.465.538,85.5,85.5,0,0,0-22.31.973,52.345,52.345,0,0,0-12.063,3.835c-.983.423-1.9.977-2.86,1.456-.93.528-1.828,1.111-2.738,1.665l-1.3.932-.649.463-.324.231-.467.375-1.976,1.6-1,.81c-.081.054-.174.168-.246.172l-.157-.3-.317-.608-1.279-2.464-.788-1.7c-.438-1.031-.883-2.059-1.229-3.112a41.322,41.322,0,0,1-1.69-6.332,43.415,43.415,0,0,1-.526-12.239,41.282,41.282,0,0,1,2.408-10.32,39.29,39.29,0,0,1,3.675-7.341,44.443,44.443,0,0,1,13.6-13.549,43.6,43.6,0,0,1,8.5-4.142,69.267,69.267,0,0,1,8.883-2.475,209.066,209.066,0,0,1,35.033-4.489,107.458,107.458,0,0,1,17.108.782,76.14,76.14,0,0,1,16.292,3.963c.648.245,1.312.444,1.944.724l1.9.834,1.889.831,1.822.959a47.057,47.057,0,0,1,6.977,4.281,32.7,32.7,0,0,1,5.92,5.6,24.644,24.644,0,0,1,4,7.041,29.5,29.5,0,0,1,.99,15.676,40.145,40.145,0,0,1-5.761,14.2,66.632,66.632,0,0,1-9.576,11.432c-1.753,1.715-3.561,3.343-5.384,4.924q-1.376,1.175-2.744,2.339l-2.864,2.381-.974.8-.486.4-.244.2c-.078.039-.171.215-.228.063l-1.564-1.976-1.162-1.406c-.381-.439-.75-.888-1.139-1.317a64.458,64.458,0,0,0-4.828-4.917,45.485,45.485,0,0,0-11.056-7.574c-3.9-1.918-8.3-2.2-12.6-1.892-4.322.289-8.63,1.051-13.019,1.218l-.289-2.03a92.978,92.978,0,0,0,18.845-6.731,43.7,43.7,0,0,0,14.744-11.547,16.745,16.745,0,0,0,3.586-7.878,7.564,7.564,0,0,0-.551-3.949,6.8,6.8,0,0,0-2.534-2.943,20.035,20.035,0,0,0-7.94-2.82,32.007,32.007,0,0,0-4.253-.4c-1.4-.04-2.831.059-4.266.162a45.416,45.416,0,0,0-7.669,1.18c-2.671.663-5.448,1.635-8.3,2.617a14.92,14.92,0,0,0-2.011.813c-.653.321-1.3.686-1.944,1.071-1.281.775-2.53,1.633-3.738,2.536a30.658,30.658,0,0,0-6.367,6.091,6.548,6.548,0,0,0-.921,1.826,13.65,13.65,0,0,0-.576,1.982,11.708,11.708,0,0,0-.078,3.942,14.333,14.333,0,0,0,1.179,3.54,22.9,22.9,0,0,0,1.8,2.958A75.338,75.338,0,0,0,164.8,382.2Z" transform="matrix(-1, 0, 0, 1, 380, 0)" /><path class="cls-6 color-coat3" d="M171.718,479.188c.9-4.376,2.435-9.02,6.126-11.537s9.985-1.306,10.946,3.058a10.628,10.628,0,0,1,19.413,5.854,8.259,8.259,0,0,1,10.689,11.184c6.805-1.92,14.616,3.976,14.634,11.048a11.962,11.962,0,0,1,11.745,10.417c6.013.983,9.992,8.385,7.5,13.943,6.325.94,9.167,10.434,4.4,14.694,5.339,2.154,6.637,10.516,2.2,14.186a6.816,6.816,0,0,1,3.1,7.528c-.785,2.816-2.672,4.558-5.594,4.479-.322,2.137-2.852,5.1-5.335,4.909s-4.276-2.084-5.131-4.423-.542-4.95-.98-7.4c-.778-4.36-2.737-8.406-4.675-12.388-7.379-15.163-14.875-30.508-25.831-43.326s-25.939-23.042-42.716-24.735" transform="matrix(-1, 0, 0, 1, 380, 0)" /><path d="M172.21,476.647a23.273,23.273,0,0,1,2.892.176,50.316,50.316,0,0,1,6.071,1.189,60.546,60.546,0,0,1,17.112,7.751,81.906,81.906,0,0,1,16.4,14.209,125.783,125.783,0,0,1,10.781,14.135c6.156,9.2,11.435,19.563,16.684,30.081a70.958,70.958,0,0,1,3.681,8.262,29.851,29.851,0,0,1,1.218,4.542c.284,1.652.283,3.183.429,4.55a8.031,8.031,0,0,0,1.054,3.536,4.3,4.3,0,0,0,2.4,2.01,3.553,3.553,0,0,0,.729.135,1.735,1.735,0,0,0,.523-.066,3.462,3.462,0,0,0,1.254-.718,5.6,5.6,0,0,0,1.1-1.281,4.907,4.907,0,0,0,.391-.76,5.77,5.77,0,0,0,.273-1.042l.226-1.072,1.988-.048a3.44,3.44,0,0,0,.573-.076l.326-.092a3.094,3.094,0,0,0,1.109-.666,5.018,5.018,0,0,0,1.348-2.617,4.929,4.929,0,0,0-.377-2.925,5.123,5.123,0,0,0-.812-1.267l-.127-.134a2.039,2.039,0,0,0-.158-.162,1.6,1.6,0,0,0-.2-.164l-.877-.613-1.856-1.17,1.311-1.281a8.205,8.205,0,0,0,.586-.61l.527-.584.263-.292.13-.144.039-.076.159-.3a2.658,2.658,0,0,0,.286-.618,6.692,6.692,0,0,0,.461-2.755,7.2,7.2,0,0,0-2.077-4.969l-.182-.173-.09-.087a.464.464,0,0,0-.053-.047l-.145-.082-1.162-.658c-.759-.444-1.65-.835-2.462-1.252l1.675-1.788c.416-.52.9-1.1,1.262-1.569.105-.271.239-.524.342-.8.065-.291.166-.567.221-.862a7.765,7.765,0,0,0-.268-3.676,7.6,7.6,0,0,0-1.851-3.112l-.65-.557-.7-.437-.187-.075-.288-.124a5.963,5.963,0,0,0-1.133-.32l-2.267-.54.678-1.833a10.7,10.7,0,0,0,.572-1.776,3.683,3.683,0,0,0,.1-.729,3.6,3.6,0,0,0,.034-.742,8.017,8.017,0,0,0-.572-2.975,9.9,9.9,0,0,0-1.536-2.648,8.56,8.56,0,0,0-2.271-1.9c-.219-.105-.409-.239-.649-.329l-.722-.266-1.728-.411-.446-.1c-.1.009-.073-.105-.094-.171l-.035-.227-.14-.9-.148-.944a1.22,1.22,0,0,0-.037-.177l-.024-.09-.046-.179a4.974,4.974,0,0,0-.21-.71,10.787,10.787,0,0,0-.589-1.37,10.6,10.6,0,0,0-4.2-4.19,10,10,0,0,0-2.726-1c-.117-.024-.235-.033-.353-.051l-.214-.03a3.544,3.544,0,0,0-.437-.051l-1.731-.07-.857-.037a5.966,5.966,0,0,1-.082-.836l-.117-1.712-.015-.214a1.282,1.282,0,0,0-.041-.288l-.035-.17-.068-.341a3.075,3.075,0,0,0-.175-.673l-.219-.664c-.092-.215-.2-.425-.3-.638a9.911,9.911,0,0,0-.7-1.227,14.02,14.02,0,0,0-.886-1.115,11.12,11.12,0,0,0-4.649-3.067,8.224,8.224,0,0,0-1.313-.338c-.22-.036-.439-.094-.659-.114l-.659-.039-.165-.012-.082-.006-.041,0h-.021l-.13.008-.83.128-1.6.252-3.061.6,1.279-2.957c.1-.245.221-.5.307-.735l.194-.669a5.613,5.613,0,0,0,.17-.659l.043-.381a6.963,6.963,0,0,0-.129-2.127,6.419,6.419,0,0,0-1.939-3.412,6.739,6.739,0,0,0-3.394-1.6,7.046,7.046,0,0,0-1.842-.065l-.278.03a3.331,3.331,0,0,0-.512.127c-.341.106-.671.185-1.017.312l-2.01.737c-.088-1.217-.1-2.544-.272-3.727l-.115-.531c-.032-.136-.079-.268-.117-.4a6.73,6.73,0,0,0-.273-.784,9.545,9.545,0,0,0-1.684-2.76,8.96,8.96,0,0,0-5.085-2.99,9.721,9.721,0,0,0-5.506.636,9.552,9.552,0,0,0-2.3,1.376l-.131.1a3.033,3.033,0,0,0-.243.244l-.422.444a9.349,9.349,0,0,0-.818.951l-.769.98-.364.475a2.166,2.166,0,0,1-.177.219l-.146.083a18.362,18.362,0,0,0-1.326-3.572l-.1-.193-.072-.08-.142-.153a3.088,3.088,0,0,0-.29-.293,4.982,4.982,0,0,0-.647-.475,6.83,6.83,0,0,0-3.073-.96,7.44,7.44,0,0,0-3.065.4c-.227.1-.46.185-.68.289l-.629.359a11.159,11.159,0,0,0-1.178.912,13.63,13.63,0,0,0-3.2,4.737,31.411,31.411,0,0,0-1.663,5.224,28.083,28.083,0,0,1,1.081-5.529,13.683,13.683,0,0,1,3.225-5.621,8.281,8.281,0,0,1,3.024-1.989,9.214,9.214,0,0,1,3.764-.544,8.154,8.154,0,0,1,3.837,1.178,6.782,6.782,0,0,1,.85.638l.386.361a1.449,1.449,0,0,1,.126.126l.069.077a1.754,1.754,0,0,1,.382.613c.012.015.017.069.034.053l.058-.094.112-.18.227-.321c.068-.086.178-.206.2-.249.262-.224.514-.466.789-.674a12.519,12.519,0,0,1,3.62-1.965,11.877,11.877,0,0,1,8.087.036,12.717,12.717,0,0,1,7.494,8.034,7.963,7.963,0,0,1,.219.8s.01.008.01.008a.012.012,0,0,0,.014,0c.035-.013-.045,0,.067-.024a9.849,9.849,0,0,1,2.315-.056A10.07,10.07,0,0,1,216,475.046a9.786,9.786,0,0,1,3.209,2.6,10.141,10.141,0,0,1,1.805,3.54,10.66,10.66,0,0,1,.355,3.725l-.052.452-.018.054-.042.117a2,2,0,0,1-.124.258c.023.052.171-.013.273.009l.089,0h.069c.01,0,.035,0-.061,0l1.063.072a12.764,12.764,0,0,1,4.015,1.078,15.657,15.657,0,0,1,1.812.948,16.055,16.055,0,0,1,1.631,1.207,14.129,14.129,0,0,1,2.688,2.99,13.25,13.25,0,0,1,1.675,3.659c.092.324.138.663.207.992l.047.249.023.124c-.025-.1,0-.006-.007-.018.007.053,0,.109.007.164l.011.34a1.842,1.842,0,0,0,.315.034.943.943,0,0,1,.166.021l.3.046a6.785,6.785,0,0,1,.97.2,12.308,12.308,0,0,1,1.862.616,13.555,13.555,0,0,1,7.53,8.2c.092.3.158.613.237.919l.055.226c-.008-.037,0,.036,0,.06l.027.208.027.21c.017.062.119.047.176.074a4.468,4.468,0,0,1,.458.131,10.735,10.735,0,0,1,3.259,1.815,12.232,12.232,0,0,1,3.924,6.058,11.861,11.861,0,0,1,.412,3.587l-.095.9a2.346,2.346,0,0,1-.075.447l-.081.343a7.1,7.1,0,0,1-.293.884c.22.058.445.106.665.171l.344.149a4.922,4.922,0,0,1,.613.292,12.121,12.121,0,0,1,1.113.753,10.279,10.279,0,0,1,.97.9,10.6,10.6,0,0,1,2.421,4.481,10.307,10.307,0,0,1,.116,4.934,10.418,10.418,0,0,1-.364,1.177c-.164.349-.345.807-.5,1.057-.151.218-.3.466-.45.656l-.454.479.6.306c.208.156.366.242.615.454a9.184,9.184,0,0,1,1.588,1.8,10.223,10.223,0,0,1,1.587,4.35,9.989,9.989,0,0,1-.432,4.481,8.736,8.736,0,0,1-.433,1.036l-.27.491a2.959,2.959,0,0,1-.254.42c-.149.187-.3.411-.443.564-.123.14-.346.29-.383.419a4.278,4.278,0,0,1,.541.381,5.562,5.562,0,0,1,.589.6,7.639,7.639,0,0,1,1.23,2.012,7.579,7.579,0,0,1-1.836,8.5,5.583,5.583,0,0,1-2.015,1.106c-.183.047-.364.112-.548.142l-.275.05a1.112,1.112,0,0,1-.147.022c-.188.032-.4.015-.567.044a3.041,3.041,0,0,1-.135.508,6.775,6.775,0,0,1-.361.771,8.5,8.5,0,0,1-1.124,1.571,6.231,6.231,0,0,1-3.356,2.049,4.314,4.314,0,0,1-1.077.059,6.856,6.856,0,0,1-.983-.163,6.072,6.072,0,0,1-1.81-.8,7.594,7.594,0,0,1-2.513-2.835,10.134,10.134,0,0,1-1.078-3.485c-.16-1.17-.195-2.3-.278-3.376a23.342,23.342,0,0,0-1.406-6.15,121.2,121.2,0,0,0-5.295-11.481c-1.852-3.735-3.687-7.384-5.55-10.926A183.96,183.96,0,0,0,220.7,510.767q-3.165-4.543-6.593-8.626a93.377,93.377,0,0,0-7.2-7.56,75.549,75.549,0,0,0-18.787-13.059,60.187,60.187,0,0,0-9.76-3.625c-1.428-.314-2.677-.671-3.73-.831Z" transform="matrix(-1, 0, 0, 1, 380, 0)" /><path class="cls-6 color-coat3" d="M148.617,476.647c-1.316-7.2-9.559-12.277-16.58-10.214a9.179,9.179,0,0,0-18.153-2.459c-7.177-4.834-18.577-.527-20.765,7.844a8.878,8.878,0,0,0-10.85,12.821c-6.769-.3-12.649,7.188-10.749,13.693a11.317,11.317,0,0,0-8.231,8.333,43.486,43.486,0,0,0-.244,7.568s-3.89,2.617-4.978,4.667a8.062,8.062,0,0,0,1.822,9.6c-1.505,2.313-3.05,4.733-3.378,7.472s.967,5.885,3.589,6.741c-1.591,3.906-.292,10.076,3.916,9.8,4.019-.26,4.781-5.811,4.382-9.819-.845-8.492-1.474-17.267,1.161-25.384a49.423,49.423,0,0,1,6.1-11.924c7.908-11.91,18.582-22.216,31.527-28.283s28.247-7.622,41.706-2.8" transform="matrix(-1, 0, 0, 1, 380, 0)" /><path d="M148.885,474.335c-.675-.011-3.882-1.2-8.832-1.846a55.551,55.551,0,0,0-18.5.611,60.849,60.849,0,0,0-19.822,7.813,70.792,70.792,0,0,0-13.654,10.908A92.326,92.326,0,0,0,76.066,507.2a50.033,50.033,0,0,0-4.5,8.821,36.062,36.062,0,0,0-2.1,9.659,65.817,65.817,0,0,0,.012,10.144c.118,1.707.273,3.42.447,5.138a25.537,25.537,0,0,1,.2,5.529,13.839,13.839,0,0,1-.555,2.909,8.319,8.319,0,0,1-1.531,2.9,5.547,5.547,0,0,1-3.189,1.887,6.226,6.226,0,0,1-1.871.066c-.32-.063-.641-.137-.956-.221-.3-.118-.6-.26-.9-.4a6.241,6.241,0,0,1-2.422-2.633,9.737,9.737,0,0,1-.944-3.02,12.8,12.8,0,0,1-.064-3.028l.109-.753.048-.3.02-.085c.03-.148.038-.136.036-.171a.332.332,0,0,1-.11-.054l-.1-.066-.049-.034-.137-.113a5.894,5.894,0,0,1-.537-.481,7.729,7.729,0,0,1-1.551-2.255,9.278,9.278,0,0,1-.748-5.073,14.136,14.136,0,0,1,1.462-4.472c.335-.668.7-1.3,1.063-1.907l.251-.414a.173.173,0,0,0,.015-.036c-.014-.007-.036-.032-.036-.025a10.554,10.554,0,0,1-.9-1.344,10.066,10.066,0,0,1-.441-8.86l.252-.532.341-.566a10.4,10.4,0,0,1,.708-.917,17.432,17.432,0,0,1,1.463-1.474c.495-.447,1-.86,1.506-1.26l.665-.508.005-.006v-.006c0-.027,0,.1-.007-.219L61,511.706c-.007-.873,0-1.746.038-2.636a17.714,17.714,0,0,1,.309-2.852,13.09,13.09,0,0,1,1-2.793,13.405,13.405,0,0,1,3.6-4.491,13.2,13.2,0,0,1,2.407-1.555c.21-.113.435-.2.652-.3l.164-.073.082-.036.041-.018.011,0,0,0-.064.029h0v.008c0,.105,0,.011-.007-.059l-.031-.4a7.56,7.56,0,0,1-.037-.794c.035-.522.033-1.052.115-1.562a14.359,14.359,0,0,1,.307-1.507,13.835,13.835,0,0,1,2.728-5.223,13.627,13.627,0,0,1,4.5-3.563,13.861,13.861,0,0,1,1.336-.553l1.2-.354a.512.512,0,0,1,.145-.01l-.011-.038,0-.024-.077-.305c-.037-.144-.055-.291-.083-.436a11.232,11.232,0,0,1-.076-3.463,10.617,10.617,0,0,1,2.843-6.006,10.853,10.853,0,0,1,5.55-3.021,11.14,11.14,0,0,1,3.071-.214c.255.027.511.04.764.082l.349.06c-.008,0,.015,0,.02.009a.845.845,0,0,1,.122.047c.019-.011.025-.049.039-.074l.018-.043.092-.184a15.556,15.556,0,0,1,.934-1.713,12.716,12.716,0,0,1,1.194-1.6A11.723,11.723,0,0,1,95.6,464.65a16.825,16.825,0,0,1,6.323-3.553,16.28,16.28,0,0,1,6.756-.622,13.568,13.568,0,0,1,3.215.785l.737.309c-.015,0,.085.039.118.07a1.719,1.719,0,0,0,.294.175,2.173,2.173,0,0,1,.192-.474,10.1,10.1,0,0,1,1.249-1.933,11.083,11.083,0,0,1,3.334-2.77,10.128,10.128,0,0,1,7.862-.907,10.736,10.736,0,0,1,5.681,4.335,10.849,10.849,0,0,1,1.4,3.09,6.86,6.86,0,0,1,.253,1.3,4.559,4.559,0,0,1-.009.709c.217.012.509-.1.771-.109l.649-.057a6.71,6.71,0,0,1,.885-.008c.291.009.581.007.866.027l.841.109a11.9,11.9,0,0,1,1.611.327,14.989,14.989,0,0,1,5.335,2.64,13.584,13.584,0,0,1,5.212,8.448,13.637,13.637,0,0,0-6.142-7.794,14.227,14.227,0,0,0-5.2-1.886,11.884,11.884,0,0,0-2.821-.1,4.262,4.262,0,0,0-.7.086l-.46.069c-.177.022-.365.075-.549.111-.722.165-1.5.419-2.224.557-.009-.853-.035-1.774-.131-2.706-.047-.277-.085-.381-.113-.506a2.816,2.816,0,0,0-.108-.379c-.1-.247-.158-.5-.28-.742a8.8,8.8,0,0,0-1.758-2.612,7.637,7.637,0,0,0-5.309-2.428,7.809,7.809,0,0,0-5.1,1.951,7.985,7.985,0,0,0-1.662,1.972,4.224,4.224,0,0,0-.288.537l-.208.446a5.66,5.66,0,0,0-.234.742c-.28,1.045-.534,2.052-.777,3.034l-3.129-1.764c-.134-.071-.255-.152-.4-.216l-.385-.148-.333-.129a3.89,3.89,0,0,0-.661-.229c-.456-.092-.88-.249-1.32-.3s-.86-.127-1.278-.137a13.986,13.986,0,0,0-4.3.482,13.509,13.509,0,0,0-5.582,3.006c-.393.335-.7.738-1.055,1.094-.308.389-.578.8-.869,1.187q-.18.344-.356.682l-.176.337-.088.168a1.116,1.116,0,0,0-.1.234c-.333.925-.644,1.855-.966,2.7-.849-.3-1.721-.619-2.577-.866l-.452-.09a2.046,2.046,0,0,0-.291-.045c-.2-.016-.391-.055-.591-.053a7.785,7.785,0,0,0-2.366.253,7.326,7.326,0,0,0-3.877,2.473,7.634,7.634,0,0,0-1.583,4.217,8,8,0,0,0,.157,2.215,19.023,19.023,0,0,0,1.722,3.8c-.661.062-1.47.04-2.188.063-.693.068-1.487.123-2.079.2-.369.117-.748.2-1.11.335-.352.165-.725.282-1.062.478a10.749,10.749,0,0,0-3.516,3.008,10.6,10.6,0,0,0-1.917,4.045,9.341,9.341,0,0,0-.225,2.128l.034.522.008.13c0,.023.007.188.02.234.023.145.046.289.078.43l.345,1.67c-.639.17-1.272.342-1.894.551l-.233.075-.059.019-.075.027-.068.03-.274.118a4.9,4.9,0,0,0-.538.256,9.98,9.98,0,0,0-1.977,1.317,10.479,10.479,0,0,0-2.8,3.712,8.922,8.922,0,0,0-.672,2.15,21.07,21.07,0,0,0-.2,2.319c-.031.784-.04,1.565-.037,2.336q.007.579.014,1.15l.047,1.58c-.43.29-.928.635-1.28.9l-.877.672a21.558,21.558,0,0,0-1.633,1.428,7.884,7.884,0,0,0-1.276,1.543,6.676,6.676,0,0,0-.671,1.825,7.453,7.453,0,0,0,2.721,7.344c-.2.409-.525.835-.78,1.251l-.67,1.068c-.363.6-.7,1.2-1,1.809a10.863,10.863,0,0,0-1.15,3.733,6.611,6.611,0,0,0,.659,3.538,4.576,4.576,0,0,0,3.122,2.49c-.049.393-.3.883-.4,1.3a8.749,8.749,0,0,0-.285,1.162,9.081,9.081,0,0,0-.12,1.841,7.572,7.572,0,0,0,.87,3.442,3.512,3.512,0,0,0,1.053,1.21,3,3,0,0,0,.66.358,2.968,2.968,0,0,0,.742.131,3.206,3.206,0,0,0,1.5-.266,3.56,3.56,0,0,0,1.169-.983,7.68,7.68,0,0,0,1.21-3.191,16.737,16.737,0,0,0,.176-3.595c-.2-2.425-.5-4.97-.654-7.427a59.942,59.942,0,0,1,.525-14.628,36.562,36.562,0,0,1,1.957-6.9,47.016,47.016,0,0,1,3.081-6.266,89.04,89.04,0,0,1,16.433-20.364,69.293,69.293,0,0,1,20.313-13,56.555,56.555,0,0,1,23.108-4.138A49.214,49.214,0,0,1,148.885,474.335Z" transform="matrix(-1, 0, 0, 1, 380, 0)" /><path class="cls-3 color-coat1" d="M166.564,393.111c-20.832-15.766-4.621-27.208.769-17.906,6.719-6.68,16.815.962,10.2,10.25-3.92,4.315-6.539,4.106-10.971,7.656" transform="matrix(-1, 0, 0, 1, 380, 0)" /><path d="M166.55,393.093a5.757,5.757,0,0,1,1.486-1.435,31.085,31.085,0,0,1,3.59-2.278,19.524,19.524,0,0,0,3.865-2.733,17.984,17.984,0,0,0,1.468-1.538c.117-.15.284-.5.413-.727.133-.249.256-.482.369-.693a9.01,9.01,0,0,0,.863-4.824,5.624,5.624,0,0,0-2.43-3.914,5.568,5.568,0,0,0-4.47-.763l-1.1.4c-.348.186-.68.41-1.022.6l-.127.074c-.049.032-.154.129-.229.19l-.489.419-.98.838-.49.42-.123.105-.061.053c-.018-.006-.033-.041-.05-.059l-.2-.269-.783-1.077a7.382,7.382,0,0,0-.7-.941,2.243,2.243,0,0,0-.332-.342l-.35-.311-.38-.255a4.113,4.113,0,0,0-4.89.3,4.926,4.926,0,0,0-1.677,3.04,8.55,8.55,0,0,0,.376,3.76,14.84,14.84,0,0,0,1.668,3.545,25.827,25.827,0,0,0,2.248,3.1,57.435,57.435,0,0,0,4.81,4.989A22.058,22.058,0,0,1,160.377,389a14.832,14.832,0,0,1-4.207-5.266,11.079,11.079,0,0,1-.4-8.305,6.69,6.69,0,0,1,6.338-4.231,6.427,6.427,0,0,1,3.521,1.233,4.8,4.8,0,0,1,.7.582,4.5,4.5,0,0,1,.6.633,2.837,2.837,0,0,1,.3.407l.138.212a.829.829,0,0,0,.069.1l.1-.085c.3-.236.5-.446.874-.7.5-.273.967-.594,1.481-.817a8.121,8.121,0,0,1,3.251-.66,7.461,7.461,0,0,1,5.648,2.682,7.7,7.7,0,0,1,1.621,5.714,11.944,11.944,0,0,1-1.993,5.105l-.182.294a1.966,1.966,0,0,1-.264.3l-.441.459c-.3.3-.61.584-.916.866a17.032,17.032,0,0,1-1.972,1.481,35.862,35.862,0,0,1-4.766,2.32A34.981,34.981,0,0,0,166.55,393.093Z" transform="matrix(-1, 0, 0, 1, 380, 0)" /></svg>