<svg xmlns="http://www.w3.org/2000/svg" viewBox="0 0 380 600"><defs><style>.cls-1{fill:#ffffff;}.cls-2{fill:#0078ef;}.cls-3{fill:#fff;}.cls-4{fill:#7a9299;}.cls-5{fill:#ead49d;}.cls-6{fill:#ff4500;}</style></defs><g data-name="Uncle Sam" id="Uncle_Sam"><path class="cls-1 color-body" d="M219.32,392.18c7.58,9.51,14.22,22.3,22.2,41.27,8.85,21.05,18.82,37.35,29.69,32.69,13.62-5.83,9.47-36.6,4.49-51.06-6.05-17.57-19.41-51-47.75-60-10.88-3.43-14.22,11.56-14.22,11.56" style="fill:#ffffff;--backup-fill:#ffffff"></path><path d="M213.67,366.67c-.16-.55.15-3.31,2.08-6.94a12.8,12.8,0,0,1,4.94-5.18,9.37,9.37,0,0,1,4.2-1.07,12.42,12.42,0,0,1,4.37.8,52,52,0,0,1,15.39,8,78.3,78.3,0,0,1,10.53,9.56c8.75,9.33,15.52,21.46,20.68,34.09.65,1.58,1.27,3.18,1.88,4.77s1.19,3.16,1.77,4.87a94.76,94.76,0,0,1,2.69,10.1,91.58,91.58,0,0,1,2.05,20.43,50,50,0,0,1-1,9.08,25.72,25.72,0,0,1-3.76,9.11,16.31,16.31,0,0,1-3.82,3.92l-1.18.79-1.26.64a13.37,13.37,0,0,1-8.59,1,15.89,15.89,0,0,1-5-2.12,28.77,28.77,0,0,1-6.86-6.39,60.82,60.82,0,0,1-4.81-7.06,122.3,122.3,0,0,1-7.1-14.35c-1-2.37-2-4.76-2.85-7.05s-1.8-4.54-2.67-6.76c-1.79-4.42-3.57-8.67-5.39-12.71a139,139,0,0,0-11.49-21.28A55.53,55.53,0,0,1,227,401.2a102.11,102.11,0,0,1,8.15,11.23,113,113,0,0,1,10.23,20c3,8.44,6.27,16.55,10.73,23.43a36.07,36.07,0,0,0,3.65,4.72A16.24,16.24,0,0,0,264,464a9.34,9.34,0,0,0,2.35.84,8,8,0,0,0,2.4,0,9.13,9.13,0,0,0,4.45-2.2c2.57-2.3,4-5.94,4.74-9.54a49.81,49.81,0,0,0,.92-11.09,90.76,90.76,0,0,0-3.15-21.27q-.68-2.52-1.51-4.92c-.58-1.61-1.17-3.23-1.77-4.81q-1.81-4.77-3.82-9.25a131.36,131.36,0,0,0-8.87-16.68c-6.51-10.21-14.27-18.6-23.14-24a63.88,63.88,0,0,0-7.48-3.83l-1.06-.44a8,8,0,0,0-1-.4,9,9,0,0,0-2-.48,7.28,7.28,0,0,0-3.92.69,13.94,13.94,0,0,0-5.37,5.51A27.08,27.08,0,0,0,213.67,366.67Z"></path><path class="cls-2" d="M219.32,392.18c7.58,9.51,14.22,22.3,22.2,41.27,4,9.58,6,14.48,17.71,12.24a34.66,34.66,0,0,0,22-14.23,6,6,0,0,0,1.2-2.67c.18-1.5-.65-2.92-1.42-4.22-8.09-13.76-11.69-28.4-20.32-41.85-7.84-12.23-18.64-23.13-32.79-27.6-10.88-3.43-14.22,11.56-14.22,11.56"></path><path d="M213.69,366.67c-.12-.47.21-2.84,1.75-6a14.47,14.47,0,0,1,3.7-4.83,9.69,9.69,0,0,1,3.2-1.74,9.37,9.37,0,0,1,3.88-.31c10,2,19.14,9,23.73,13.2a76.65,76.65,0,0,1,11.3,12.73,98.48,98.48,0,0,1,8.84,15.33c2.54,5.34,4.79,10.77,7.18,16,1.18,2.61,2.43,5.14,3.73,7.6.66,1.23,1.32,2.44,2,3.62a17.93,17.93,0,0,1,2.19,4.52,6.82,6.82,0,0,1,0,3.18,9,9,0,0,1-1.09,2.5c-.4.66-.77,1.14-1.16,1.7s-.81,1.06-1.21,1.59a35.16,35.16,0,0,1-5.66,5.52,38.13,38.13,0,0,1-13.9,6.81,33.33,33.33,0,0,1-7.69,1.08h-1l-1.05-.11a12.82,12.82,0,0,1-2.15-.39,11.25,11.25,0,0,1-4.08-2,12.5,12.5,0,0,1-1.64-1.51,20.09,20.09,0,0,1-1.26-1.65c-.37-.56-.73-1.12-1-1.67s-.59-1.11-.84-1.65c-1-2.18-1.84-4.28-2.66-6.32-6.48-16.29-12.89-30.75-20.15-41.09a53.19,53.19,0,0,1,7.24,7.3,95,95,0,0,1,7,9.72A105.42,105.42,0,0,1,242,427c1.41,3.71,2.66,7.5,4.07,10.82a15.43,15.43,0,0,0,2.53,4.25,6.69,6.69,0,0,0,3.77,2.1c3.09.56,6.77,0,10.05-.88a33.15,33.15,0,0,0,9.27-4.16,31,31,0,0,0,7.34-6.6c1-1.26,2.13-2.67,2.32-3.76s-.5-2.41-1.34-3.82a164.84,164.84,0,0,1-8.39-17.23c-2.45-5.64-4.77-11.08-7.4-16.11a90.24,90.24,0,0,0-8.8-13.82c-6.44-8.33-13.94-14.9-22.07-18.92-1-.51-2-.94-3.16-1.47l-1.77-.7c-.3-.11-.61-.25-.91-.35s-.57-.2-.86-.28a7.62,7.62,0,0,0-6.9,1.34,16.66,16.66,0,0,0-4.3,5.34A25.37,25.37,0,0,0,213.69,366.67Z"></path><g id="tuxedo"><path class="cls-1 color-body" d="M144.89,441.24c13.64-36.81-9-78.74,30.62-91.77,29.13-9.56,59.38,5.74,75.63,54.15,5.89,17.55,7.77,42.28,3.48,59.95h0s-6,10.25-50.13,13c-42.22,2.63-64.35-13-64.35-13h0C141,456.43,142.6,447.45,144.89,441.24Z" style="fill:#ffffff;--backup-fill:#ffffff"></path><path d="M144.92,441.25c-.15.83-1.5,5-2.66,11.33-.29,1.58-.58,3.29-.85,5.12q-.19,1.37-.39,2.82c-.1.87-.21,1.77-.32,2.68,0,.12.06.16.14.21l.24.15.51.31c.45.26.9.53,1.36.78.92.5,1.87,1,2.85,1.46,1.95.95,4,1.82,6.13,2.64a106.6,106.6,0,0,0,13.32,4.06,121.54,121.54,0,0,0,13.56,2.29c2.21.23,4.36.49,6.45.56s4.1.29,6,.25h5.44l4.72-.24c2.53-.09,5.08-.34,7.66-.58s5.16-.52,7.76-.84,5.21-.74,7.83-1.12c1.31-.2,2.6-.48,3.91-.72l2-.37,1.95-.44a72,72,0,0,0,15.15-4.95c.59-.29,1.15-.62,1.73-.92s1.09-.68,1.64-1,1-.74,1.45-1.14c.24-.2.41-.41.6-.59a.35.35,0,0,0,.09-.23,76.37,76.37,0,0,0,1.35-8,123,123,0,0,0-.85-32.53,111,111,0,0,0-3.56-15.67,145.39,145.39,0,0,0-5.6-14.79,100.54,100.54,0,0,0-14-23.08A57.83,57.83,0,0,0,210,352.62a45.38,45.38,0,0,0-24.87-3.45,52.18,52.18,0,0,0-12,3.15,35.21,35.21,0,0,0-10.3,6.11,26.84,26.84,0,0,0-6.84,9.3,43.41,43.41,0,0,0-3.19,11.1c-1.21,7.63-1.21,15.28-1.4,22.64a189.69,189.69,0,0,1-1.31,21.24,79.4,79.4,0,0,1-4.64,18.73,91,91,0,0,0,3.14-19c.5-7.14.3-14.8.12-22.28s-.27-14.86.58-21.33A40.34,40.34,0,0,1,154,363.52a30.64,30.64,0,0,1,7.76-8.83,41,41,0,0,1,10-5.51,54.5,54.5,0,0,1,21.55-3.63A48.57,48.57,0,0,1,213.71,351a55.42,55.42,0,0,1,8.65,5.64,61.48,61.48,0,0,1,7.43,6.88c1.17,1.19,2.2,2.5,3.28,3.76s2.06,2.59,3,3.94c1.94,2.65,3.63,5.44,5.28,8.21a128.87,128.87,0,0,1,8.09,17.2l.84,2.18L251,401l.77,2.18.7,2.21c.93,2.93,1.65,5.9,2.32,8.84a135.84,135.84,0,0,1,2.55,17.64,126.2,126.2,0,0,1,.21,17.26c-.11,1.41-.22,2.82-.35,4.22s-.3,2.79-.53,4.17-.42,2.76-.74,4.12l-.46,2.17a1.88,1.88,0,0,1-.4.62,5.5,5.5,0,0,1-.41.47,9.71,9.71,0,0,1-.82.76,29.42,29.42,0,0,1-7.23,4.17,71.9,71.9,0,0,1-7.64,2.63c-1.28.33-2.55.72-3.84,1l-3.83.86-3.83.71-1.9.34-1.91.28-3.78.54c-1.25.18-2.51.29-3.76.44l-3.73.4-3.7.3-3.68.28c-1.22.09-2.44.11-3.66.16-2.43.1-4.84.22-7.23.14a127.29,127.29,0,0,1-27.52-3.06,95.06,95.06,0,0,1-13.85-4.22c-1.22-.48-2.43-1-3.66-1.52s-2.41-1.11-3.59-1.73-2.34-1.24-3.47-1.91c-.58-.37-1-.63-1.8-1.14l-.5-.34c-.07-.06-.2-.1-.22-.19l0-.3.16-1.18A125.22,125.22,0,0,1,142.43,449,64.39,64.39,0,0,1,144.92,441.25Z"></path><path class="cls-3" d="M144.89,441.74c9.24-24.93-6.61-60,8.3-71.53,14.07-11.45,28.06-1.46,43.28,5.49A57.32,57.32,0,0,1,210.84,385c.9-2.75,7.49-10.77,11.39-22.26,13.57,10.49,21.94,24.65,28.91,41.35,7.13,17.09,7.77,42.29,3.48,60,0,0-6,17.25-50.13,20-42.22,2.63-64.35-20-64.35-20C141,456.93,142.6,448,144.89,441.74Z"></path><path d="M145,441.76c0,.91-1.29,5.2-2.36,11.72-.28,1.63-.55,3.39-.8,5.26-.12.94-.24,1.91-.36,2.9-.05.41-.09.83-.14,1.25s-.23.82.21,1c.29.26.58.52.9.76s.79.67,1.21,1l1.29,1,1.35.95a67,67,0,0,0,5.76,3.62,85.2,85.2,0,0,0,26.39,9.56A95.75,95.75,0,0,0,191,482.27l5.53.13c1.73,0,3.33-.16,4.79-.24,1.29-.1,2.58-.1,3.88-.27l3.91-.45c2.63-.24,5.23-.72,7.85-1.15l2-.32,1.95-.43,3.92-.87c2.56-.75,5.18-1.36,7.66-2.33a48.77,48.77,0,0,0,13.92-7.3,20.63,20.63,0,0,0,4.86-5.37l.19-.34.07-.15s0,0,0-.05a.35.35,0,0,0,0-.13l.09-.42.41-2c.26-1.34.46-2.7.68-4.05a115.84,115.84,0,0,0-.22-32.9,79.11,79.11,0,0,0-3.89-15.56c-.91-2.39-2-4.94-3.14-7.37s-2.3-4.84-3.53-7.18c-1.42-2.71-3-5.34-4.57-7.9s-3.37-5-5.21-7.35a77.85,77.85,0,0,0-5.91-6.63l-1.59-1.53-.34-.33-.08-.07-.17-.14-.16-.15s0,0,0,0h0l-.09.19-.33.76c-.91,2-1.9,3.94-2.94,5.82s-2.14,3.71-3.24,5.48l-.81,1.31-.73,1.2a12.52,12.52,0,0,0-.76,1.31c-.94,1.81-1.91,4.18-2.75,6l-3.81-3.33c-.64-.55-1.27-1.14-1.92-1.64l-1-.78c-.29-.24-.75-.58-.82-.63q-1.85-1.39-3.79-2.62t-4-2.27c-.68-.35-1.37-.69-2.06-1l-2.24-1.08c-6-2.88-11.5-5.95-17-7.9s-10.89-2.41-15.61-.38c-.59.25-1.15.59-1.73.88a7.1,7.1,0,0,0-.86.46l-.83.57c-.53.39-1.14.76-1.61,1.15a9.72,9.72,0,0,0-1.29,1.18,12.43,12.43,0,0,0-2,2.89,18.81,18.81,0,0,0-1.29,3.54,38.48,38.48,0,0,0-1.11,7.92c-.13,2.72-.1,5.47,0,8.2.16,5.46.52,10.87.64,16.14a108.23,108.23,0,0,1-.54,15.39A52.06,52.06,0,0,1,146,442.14a69,69,0,0,0,.89-19.85c-.56-7.32-1.9-15.05-2.88-22.77a103,103,0,0,1-.93-11.59,52.37,52.37,0,0,1,.24-5.74,30.63,30.63,0,0,1,1.15-5.62,18.84,18.84,0,0,1,5.95-9.2c.63-.56,1.21-.92,1.79-1.35s1.12-.82,1.69-1.17a37.06,37.06,0,0,1,3.34-1.67,24.64,24.64,0,0,1,4.25-1.26,18.34,18.34,0,0,1,2.18-.36l2.18-.14a29.79,29.79,0,0,1,8.28,1.1,70.89,70.89,0,0,1,14,5.9l6.34,3.31,3.11,1.57c1.1.54,2.19,1.11,3.25,1.7a61.16,61.16,0,0,1,6.12,3.91c.49.36,1,.71,1.44,1.08l.33.25.13.12.28.24.56.5.28.26.14.14c0,.05.1.11.12,0a9.13,9.13,0,0,1,.7-1.18l.49-.74.85-1.32c1.12-1.75,2.19-3.48,3.2-5.24s1.91-3.54,2.76-5.33l.3-.67.46-1c.29-.69.55-1.4.83-2.1.55-1.39,1-2.77,1.55-4.14h.11s.09.07.13.1l.28.23.56.46,1.1.9c.72.6,1.49,1.21,2.13,1.79,1.3,1.16,2.8,2.43,3.58,3.26,1.92,1.83,3.67,3.81,5.37,5.79A94.51,94.51,0,0,1,243.44,385a137.2,137.2,0,0,1,6.83,13.31c.5,1.12,1,2.24,1.47,3.36s1,2.24,1.39,3.4l.66,1.73c.2.57.38,1.16.57,1.74.38,1.16.75,2.32,1,3.49a108.89,108.89,0,0,1,3.54,27.91,119,119,0,0,1-.68,13.55c-.27,2.22-.56,4.42-1,6.61-.16,1.09-.42,2.17-.64,3.25l-.18.81a3.55,3.55,0,0,1-.35,1.09,8.68,8.68,0,0,1-.45.87c-.16.26-.3.55-.47.79A24.26,24.26,0,0,1,250.6,472a30.12,30.12,0,0,1-2.63,2.06,32.76,32.76,0,0,1-2.77,1.8,29.32,29.32,0,0,1-2.85,1.57,30.66,30.66,0,0,1-2.9,1.38l-2.94,1.24c-1,.36-2,.69-3,1a109.22,109.22,0,0,1-23.75,4.73,107,107,0,0,1-23,.06A87.24,87.24,0,0,1,165.5,481a80.37,80.37,0,0,1-13.64-6.45l-3.46-2.23c-1.12-.81-2.28-1.57-3.36-2.44l-1.62-1.28-1.56-1.34c-.26-.22-.5-.46-.75-.69l-.9-.84-.88-.89-.22-.22-.1-.11s0-.1,0-.15l.08-.62c.07-.41.13-.81.19-1.22l.18-1.08c.12-.64.24-1.26.35-1.88.25-1.23.49-2.42.75-3.57.52-2.31,1.07-4.44,1.61-6.32A63.11,63.11,0,0,1,145,441.76Z"></path><path class="cls-3" d="M212.75,388.9c.94-2.27-1.69-4.71-4.15-4.57s-4.49,1.88-6.29,3.55c-2.17,2-4.37,4.16-5.49,6.91a2.77,2.77,0,0,1-.87,1.37c-.74.48-1.7,0-2.46-.4a106.21,106.21,0,0,1-24.13-19.39c-2.86-3.08-6.41-9.47-7.09-13.61,3.33-.84,5,0,9,0a39.45,39.45,0,0,1,6.69.62,12.47,12.47,0,0,1,3.7,1.85l21.12,13.71a60.72,60.72,0,0,1,9.73,7.27"></path><path d="M212.47,386.23a33.43,33.43,0,0,1-3-2.17c-1.65-1.22-3.93-2.69-6.42-4.23-5-3.1-10.61-6.65-13.82-8.52L183,367.67l-3.12-1.88a10.93,10.93,0,0,0-1.47-.71,6.13,6.13,0,0,0-1.49-.36c-1.13-.15-2.36-.23-3.57-.29-.61,0-1.22,0-1.81,0s-1.31,0-1.95,0c-1.32,0-2.62-.2-3.75-.24h-1.2a.84.84,0,0,0-.19.07l.06.16,0,.06c.07.22.16.45.24.67a26,26,0,0,0,1.15,2.6,37.16,37.16,0,0,0,2.85,4.83c.45.62.9,1.24,1.38,1.8.24.29.46.53.73.82l.83.86q1.65,1.71,3.36,3.35c2.28,2.17,4.63,4.24,7,6.17s4.82,3.74,7.24,5.42q1.83,1.26,3.65,2.42l.91.57.46.29.35.21c.14.08.21.12.33.08a.32.32,0,0,0,.1-.1l.05-.07.18-.41a12.86,12.86,0,0,1,1-1.75,19,19,0,0,1,2.37-2.88c.84-.85,1.7-1.61,2.53-2.32a27.44,27.44,0,0,1,2.66-2.08,9.69,9.69,0,0,1,3.17-1.43,6.19,6.19,0,0,1,1.78-.17,5,5,0,0,1,1.74.43,5.26,5.26,0,0,1,2.47,2.18,3.85,3.85,0,0,1,.5,1.58,3.32,3.32,0,0,1-.3,1.6,3.14,3.14,0,0,0-1-2.91,4.42,4.42,0,0,0-2.79-1.24,5,5,0,0,0-2.87.93,14,14,0,0,0-2.47,2.2,46.05,46.05,0,0,0-4.13,4.91,14.27,14.27,0,0,0-1.18,2.06c-.18.37-.17.43-.56,1.25a3.55,3.55,0,0,1-1.23,1.42l-.09.06a3.52,3.52,0,0,1-3.13.17,5.33,5.33,0,0,1-.71-.32l-.47-.27-.74-.5c-1-.64-1.9-1.3-2.83-2-1.86-1.31-3.65-2.67-5.38-4-3.45-2.73-6.65-5.57-9.62-8.44-1.48-1.44-2.9-2.9-4.27-4.36-.67-.73-1.38-1.45-2-2.26s-1.2-1.61-1.73-2.44a42.82,42.82,0,0,1-2.8-5.07q-.6-1.31-1.08-2.64a15.28,15.28,0,0,1-.5-1.68c-.15-.6-.28-1.21-.4-1.82.62-.17,1.27-.31,1.92-.43a12.31,12.31,0,0,1,1.85-.17c1,0,2,.09,2.92.16s1.83.14,2.73.14,1.88,0,2.79.06,1.83.11,2.75.21a12,12,0,0,1,2.82.58,14.27,14.27,0,0,1,2.5,1.27l2.17,1.38c5.73,3.62,11,7,15.86,10.33,2.23,1.51,5.23,3.64,7.78,5.7A36.57,36.57,0,0,1,212.47,386.23Z"></path><path class="cls-3" d="M211.26,387.11c1.19-.84,1.28-2.56,2-3.8,1.15-1.86,3.74-2.39,5.85-1.81a15.41,15.41,0,0,1,5.52,3.46l5.94,5a105,105,0,0,0,5.18-32.57,3.67,3.67,0,0,0-.69-2.59,3.75,3.75,0,0,0-1.55-.79c-3.44-1.11-7.07-2.24-10.62-1.57a3.43,3.43,0,0,0-1.78.78,4.13,4.13,0,0,0-.84,1.54l-5.89,16.1c-1.85,5-3.73,10.29-3.19,15.64"></path><path d="M211.2,386.53a7.81,7.81,0,0,1-.42-3.17,27.07,27.07,0,0,1,1-6.53c.62-2.42,1.51-4.92,2.28-7.2s1.46-4.35,1.91-5.84c.8-2.64,1.66-5.36,2.56-8.12l.34-1c.11-.34.22-.7.41-1.15a4,4,0,0,1,.95-1.4,4.18,4.18,0,0,1,1.47-.86,7,7,0,0,1,1.32-.34c.42-.08.83-.12,1.25-.17a15.79,15.79,0,0,1,2.48,0,25.37,25.37,0,0,1,4.7.86c.74.2,1.47.42,2.19.63.36.12.69.2,1.17.38a4.5,4.5,0,0,1,1.57,1,4,4,0,0,1,1,1.72,6.66,6.66,0,0,1,.25,1.52c0,.45,0,.82,0,1.19v1.11c0,1.48,0,3-.1,4.4a94.93,94.93,0,0,1-1.85,14.92c-.5,2.41-1.09,4.77-1.75,7.07-.16.57-.33,1.14-.51,1.7l-.38,1.23-.51,1.56c-.33,1-.67,2-1,3.06,0,.11-.07,0-.12,0l-.16-.13-.31-.27-.61-.53-1.21-1-2.17-1.9L225.73,388l-2.4-2.18a13.72,13.72,0,0,0-4.56-3.13,4.55,4.55,0,0,0-4.29.61,5.23,5.23,0,0,0-1.19,1.94,4.8,4.8,0,0,1-1.7,2.29,4.37,4.37,0,0,0,.92-2.47,6,6,0,0,1,.88-2.82,5.44,5.44,0,0,1,2.86-1.93,7,7,0,0,1,3.61-.11,14.84,14.84,0,0,1,5.59,2.88,35.77,35.77,0,0,1,3.21,2.66l.54.53.27.26c.07.08,0,.05,0,.07a.6.6,0,0,0,.09.21l.09.14c0,.05.08.13.09.08a.8.8,0,0,0,.15-.16l.08-.13,0-.07a.61.61,0,0,0,.08-.19c.15-.45.31-.9.47-1.35.3-.9.59-1.8.85-2.7a85.76,85.76,0,0,0,2.44-10.63,90.15,90.15,0,0,0,1-10.21c.06-1.64.11-3.33.07-4.85a1.89,1.89,0,0,0-.63-1.54,8.87,8.87,0,0,0-2-.72c-3-.92-5.87-1.61-8.56-1.24a5.06,5.06,0,0,0-1.73.47,1.26,1.26,0,0,0-.44.42,4.52,4.52,0,0,0-.34.78c-.47,1.33-.93,2.64-1.38,3.94-1.81,5.16-3.57,10-5.31,14.39A77.94,77.94,0,0,0,212,380.8,24.14,24.14,0,0,0,211.2,386.53Z"></path><path d="M223.13,476.36a10.21,10.21,0,0,1-.26,2.87l-.75-.24a40.66,40.66,0,0,0,1.85-8.93,71.5,71.5,0,0,0,.42-8.81,262.47,262.47,0,0,0-2.5-31.24,232.71,232.71,0,0,0-5-25.19,108.62,108.62,0,0,0-7.1-19.78,33.51,33.51,0,0,1,6.35,8.18,35.1,35.1,0,0,1,3.62,8.3c1.67,7.22,2.83,14,3.79,20.39s1.65,12.4,2.18,18c1,11.3,1.35,21.25,0,29.9a34.65,34.65,0,0,1-1.18,5.12,20,20,0,0,1-1.85,4.26l-.43-.14C222.73,477.48,223,476.72,223.13,476.36Z"></path><path class="cls-2" d="M232.34,370.48c1.48,2.78.85,6.16.19,9.24-2.34,10.92-2,26.09-4.3,37-1.34,6.23-4.26,23.62-4,30a72.46,72.46,0,0,0,1.9,12.67c5.76,26.87,16.27,30.24,21.09,57.29,15-26,17.94-70.93,7-109.94-3.85-13.74-10-29-21.24-38.46"></path><path d="M233,368.23a15.59,15.59,0,0,1,2.29,1.65l2,1.81c.7.73,1.49,1.53,2.28,2.46a57.49,57.49,0,0,1,5,6.78,75.29,75.29,0,0,1,4.68,8.74,124.56,124.56,0,0,1,7,19.87c.43,1.63.89,3.22,1.27,4.76l1,4.47c.7,2.84,1.1,5.43,1.55,7.58A171.21,171.21,0,0,1,262.14,475a130.57,130.57,0,0,1-4.84,24.83c-.27,1-.63,2-1,3l-1,3c-.32,1-.73,2-1.15,2.94l-.7,1.64c-.39.89-.76,1.85-1.18,2.67L247,523.22l-.66,1.28-.09.16,0-.17-.08-.32-.16-.66-.64-2.6c-.42-1.75-.85-3.48-1.27-5.22L243,511.16l-.53-2.28-.13-.56-.09-.3-.19-.6c-.49-1.6-1-3.19-1.57-4.74s-1.22-3.1-1.85-4.64-1.38-3-2.15-4.53c-3-6-6.48-12.11-8.9-18.66-.66-1.61-1.16-3.28-1.72-4.91s-1-3.31-1.42-4.95-.77-3.32-1.15-5-.67-3.26-1-4.92-.53-3.34-.69-5a38.39,38.39,0,0,1-.19-5.18c.15-3.41.57-6.57,1-9.72.92-6.28,2-12.3,3.31-18.18a131.71,131.71,0,0,0,2.5-16.72c.58-5.49,1.08-10.81,2-15.87.23-1.27.45-2.51.75-3.74s.6-2.39.83-3.52a10,10,0,0,0-.28-6.25c1.14,1.42,1.6,3.73,1.5,6.17,0,1.22-.2,2.49-.3,3.77s-.19,2.6-.26,3.93c-.24,5.36-.15,11.11-.25,16.77a99.4,99.4,0,0,1-1.3,16.12c-.79,4.58-1.41,8.57-1.95,11.27A141.52,141.52,0,0,0,226.58,445c-.27,5,.69,10.29,1.73,15.4a84.78,84.78,0,0,0,4.23,14.69c1.8,4.69,4.11,9.12,6.34,13.57a103.77,103.77,0,0,1,5.87,13.59c.43,1.15.74,2.32,1.09,3.48l.26.86.13.44a2.1,2.1,0,0,1,.1.37l.3,1.2c.45,1.69.67,3,1,4.46l0,.13v.07s0,0,0-.05l.13-.24.24-.47.5-.94c.32-.64.7-1.25.95-1.9l1-2.4.67-1.54.56-1.58c.72-2.1,1.54-4.16,2.09-6.29s1.25-4.18,1.67-6.3A146.07,146.07,0,0,0,259,466.69a192.25,192.25,0,0,0-.25-23.47,207.33,207.33,0,0,0-2.84-21.74c-.75-3.45-1.35-6.87-2.24-10.16-.42-1.65-.79-3.3-1.24-4.91s-.9-3.21-1.38-4.78c-1.83-6-4.66-14-8.36-20.56a57,57,0,0,0-5.61-8.36c-.9-1.09-1.74-2-2.44-2.78Z"></path><path class="cls-2" d="M161.27,363.76c8,15,42.53,47.39,58,59,8,6,12.62,7.14,15,15,2.16,7.12-.51,7.93-3.08,14.92-12.91,35.05-18.9,40.05-32.42,70.22,1.08-2.29-17.91-11.74-24.35-18.19a4.63,4.63,0,0,0-1.9-1.43,4.26,4.26,0,0,0-3.24.88c-10,6.06-18.86,14-28.51,20.64S113,542.19,101.3,542.66c15.77-23.72,31.1-44.74,37.32-73a358.52,358.52,0,0,0,8-93.71"></path><path d="M146.67,375.94c.54,1.94,1.78,20.89.29,42.77-.33,5.46-.87,11.1-1.48,16.7s-1.39,11.14-2.22,16.42a264.75,264.75,0,0,1-5.45,26.81,150.8,150.8,0,0,1-15.13,34.88c-3.23,5.63-6.72,11.16-10.29,16.66l-5.26,8-.49.81-.11.18s-.06.07,0,.07h.13c.16,0,.32,0,.47-.08l.44-.11,1-.32c1.5-.44,3-1,4.47-1.57,3-1.17,5.87-2.57,8.74-4.05a157.29,157.29,0,0,0,16.57-10c5.29-3.64,10.32-7.69,15.47-11.65,2.57-2,5.17-3.93,7.84-5.8,1.33-.93,2.69-1.84,4.05-2.73l2.08-1.3a13.14,13.14,0,0,1,1.33-.72l.41-.17a4.29,4.29,0,0,1,.54-.19,6.16,6.16,0,0,1,1.13-.25,5.39,5.39,0,0,1,2.08.14,5.51,5.51,0,0,1,1.78.89,6.93,6.93,0,0,1,.74.63l.44.43c.44.44.85.82,1.32,1.24.94.8,2,1.59,3,2.35,2.12,1.54,4.37,3,6.63,4.45l6.85,4.37c1.14.75,2.29,1.51,3.44,2.35l.42.3h0l.54-1.19,1.49-3.17c1-2.14,2-4.24,3.08-6.36,2.08-4.21,4.23-8.36,6.37-12.45,4.31-8.18,8.35-16.22,11.86-24.42,1.78-4.09,3.44-8.2,5-12.3q1.19-3.09,2.36-6.16c.82-2.19,2-4.36,2.84-6.11a8.37,8.37,0,0,0,.77-2.32,7.8,7.8,0,0,0-.07-2.39,18.3,18.3,0,0,0-.71-2.73,15,15,0,0,0-1-2.52,13.36,13.36,0,0,0-3.47-4c-1.48-1.2-3.21-2.34-4.93-3.54s-3.48-2.46-5.11-3.77-3.25-2.6-4.82-3.92c-3.14-2.64-6.15-5.32-9.08-8q-8.79-8-16.57-16c-5.18-5.31-10-10.57-14.47-15.82s-8.49-10.45-11.47-16.06c3.79,5.44,9.28,11.15,15.38,17.15s12.9,12.13,19.6,18,13.3,11.44,19.14,16.1c2.93,2.3,5.65,4.44,8.09,6.16s4.73,3.19,6.62,4.65a20.4,20.4,0,0,1,5.31,5.71,20,20,0,0,1,1.66,3.55,28.27,28.27,0,0,1,1,3.64,13.93,13.93,0,0,1,.23,4.08,12.33,12.33,0,0,1-1.18,4c-.53,1.13-1.06,2.09-1.54,3s-.92,1.87-1.29,2.83c-3.21,8.17-6.55,16.28-10.22,24s-7.66,15.22-11.54,22.5c-1.93,3.64-3.82,7.26-5.63,10.89q-1.37,2.71-2.66,5.44l-.65,1.35-.72,1.52-1.61,3.48-1,1.25c-.16.21-.32.41-.49.61l0,0v0h0c.17,1.16-.24-1.58-.2-1.3h0l0-.05s.05-.06,0-.1a.47.47,0,0,0-.1-.2,2.81,2.81,0,0,0-.66-.6c-.12-.1-.27-.2-.42-.31l-.22-.15c-.09,0-.22.07-.33.09l-.33.13-.17.06c-.06,0-.11.06-.16,0l-.57-.48-.29-.23-.26-.2-.4-.3c-1.09-.79-2.21-1.55-3.35-2.3l-6.84-4.44c-2.28-1.48-4.54-3-6.72-4.59-1.1-.81-2.17-1.64-3.21-2.55-.51-.45-1-.95-1.5-1.43l-.32-.32-.23-.2a1.59,1.59,0,0,0-.53-.28,1.77,1.77,0,0,0-1.09.07,8.66,8.66,0,0,0-1.4.73c-1,.62-2,1.25-3,1.91-2,1.3-3.94,2.66-5.86,4.06-3.83,2.79-7.53,5.7-11.25,8.55a174.15,174.15,0,0,1-23,15.22,111.93,111.93,0,0,1-12.12,5.79c-1,.4-2.08.78-3.13,1.16l-1.59.5-.8.25c-.32.09-.73.17-1.09.26l-2.24.52c-.75.16-1.44.21-2.16.32-1.4.22-2.91.32-4.38.47H98.9s0-.07.06-.11l.14-.23.29-.46.57-.92,1.14-1.83c.78-1.24,1.47-2.43,2.37-3.74l3.66-5.54c2.32-3.5,4.57-7,6.76-10.42,8.77-13.77,16.11-27.61,20.47-41.79.51-1.78,1.06-3.54,1.52-5.31s.88-3.54,1.27-5.32.75-3.56,1.13-5.33.69-3.53,1-5.29q2-10.53,3.34-20.68c1.34-9.9,2.8-23.48,3.41-35.5S146.66,379.35,146.67,375.94Z"></path><ellipse class="cls-4" cx="224.23" cy="442.21" rx="5.5" ry="7.5"></ellipse><path d="M218.7,442.21c-.28-.14-.52-1.83.1-3.72a8.16,8.16,0,0,1,1.44-2.67,7.24,7.24,0,0,1,2-1.7,5.05,5.05,0,0,1,3.95-.41,6.71,6.71,0,0,1,3.34,2.41,10.78,10.78,0,0,1,2,7.39,9.63,9.63,0,0,1-2.66,6.11,6.67,6.67,0,0,1-3.18,1.8,5.82,5.82,0,0,1-3.61-.35,7,7,0,0,1-3.75-4.42,8.87,8.87,0,0,1-.22-4.44,24.77,24.77,0,0,0,2.73,3.43,12.75,12.75,0,0,0,1.28,1.09,4.5,4.5,0,0,1,.79.62,2.35,2.35,0,0,0,2.55.79A4.48,4.48,0,0,0,228,446a8.12,8.12,0,0,0,.47-6.6c-.7-2-2.29-3.44-3.8-3.56a4.35,4.35,0,0,0-3.73,2,15.28,15.28,0,0,0-1.45,2.33A16.65,16.65,0,0,0,218.7,442.21Z"></path></g><path class="cls-5" d="M181.05,446.39c-17.15,6-28.93,3.71-46.78,7.15-5.44,1-11.88,3.57-12.59,9.06-.31,2.44.66,4.84,1.58,7.12a222.47,222.47,0,0,1,12.54,43.6,131.23,131.23,0,0,1,34.2-7.2c5.46-.41,12.4-1.6,13.58-6.95.47-2.1-.19-4.27-.84-6.32C178,477.76,181.05,446.39,181.05,446.39Z"></path><path d="M181.1,446.39c.38.93-.17,9.44-.09,19.27,0,4.91.24,10.15.76,14.88a53.07,53.07,0,0,0,2.36,11.74,22.21,22.21,0,0,1,1.21,4.31,9.51,9.51,0,0,1,0,2.56,9.07,9.07,0,0,1-.82,2.57,9.22,9.22,0,0,1-3.69,3.76,17.7,17.7,0,0,1-4.52,1.82,61.28,61.28,0,0,1-9,1.35c-2.88.34-5.77.77-8.64,1.3a134.93,134.93,0,0,0-16.94,4.25l-1,.34-1.19.4-4,1.39-1,.35-.5.17-.25.09s-.1.06-.11,0l0-.13-.4-2.07c-.27-1.39-.53-2.77-.8-4.16-.6-2.92-1.22-5.62-1.89-8.37a245.7,245.7,0,0,0-8.64-27.81c-.43-1.12-.85-2.23-1.28-3.33s-.92-2.29-1.31-3.63a13.45,13.45,0,0,1-.57-4.51,10.56,10.56,0,0,1,1.48-4.65,11.86,11.86,0,0,1,3.09-3.31,17.53,17.53,0,0,1,3.55-2,30.32,30.32,0,0,1,7.16-2c9.1-1.6,17.82-1.65,25.63-2.06a108.58,108.58,0,0,0,11.17-1.11,90.92,90.92,0,0,0,10-2.16,52,52,0,0,1-9.52,4.4,78,78,0,0,1-11.91,3c-4,.71-7.93,1.2-11.27,1.64s-6.15.8-8.09,1-3.93.41-5.79.67a24.54,24.54,0,0,0-5.19,1.34,10.71,10.71,0,0,0-4,2.57,5.36,5.36,0,0,0-1.46,3.85,16.35,16.35,0,0,0,1.24,4.89c.65,1.76,1.28,3.52,1.89,5.26q1.82,5.25,3.36,10.39,3.1,10.29,5.23,20.14c.35,1.64.69,3.27,1,4.89l.3,1.55.07.36,0,.19s0,.17.08.11l.7-.25L139,511c.77-.26,1.54-.49,2.3-.74,1.54-.47,3.07-.91,4.59-1.33a137.38,137.38,0,0,1,18-3.63q2.21-.29,4.38-.51c1.47-.14,2.86-.25,4.2-.44a17.75,17.75,0,0,0,7.23-2.29,5.16,5.16,0,0,0,2.38-5.39,25.09,25.09,0,0,0-.92-3.54c-.18-.65-.36-1.31-.53-2l-.26-1-.19-1a84,84,0,0,1-1.44-15,130.13,130.13,0,0,1,.81-16.24C180.05,452.56,180.81,447.91,181.1,446.39Z"></path><g id="tux"><path class="cls-1 color-body" d="M169,403.16c-4.76,11.19-7.75,25.29-10.37,45.7-2.91,22.65-8.17,41-19.88,39.43-14.68-2-18.91-32.74-18-48,1.14-18.55,3.92-46,22.49-62.48,15.89-14.1,24.31-.71,24.31-.71" style="fill:#ffffff;--backup-fill:#ffffff"></path><path d="M167.5,377.12a17.49,17.49,0,0,1-1.71-1.41,15.59,15.59,0,0,0-3.83-2.4,11.85,11.85,0,0,0-6-.89,18.37,18.37,0,0,0-6.82,2.56,29.7,29.7,0,0,0-3.23,2.34l-1.56,1.31c-.51.45-1,1-1.46,1.44a33.82,33.82,0,0,0-2.77,3l-1.28,1.55-.62.76-.56.81a51.16,51.16,0,0,0-6.32,11.61c-4.31,11.12-6.18,23.88-6.91,36.88-.1,1.63-.18,3.26-.25,4.9s-.12,3.15-.09,4.75c0,3.17.27,6.36.62,9.51a79.32,79.32,0,0,0,4,18,36.81,36.81,0,0,0,3.21,6.71,18.78,18.78,0,0,0,2.05,2.72,11.17,11.17,0,0,0,2.3,2,7.13,7.13,0,0,0,2.46,1,5.63,5.63,0,0,0,2.41,0,7.54,7.54,0,0,0,4.21-3,26.66,26.66,0,0,0,3.36-6,61.34,61.34,0,0,0,2.4-7,145.89,145.89,0,0,0,3.23-14.53c.84-4.8,1.54-9.7,2.42-14.38s1.82-9.22,2.89-13.55a106.85,106.85,0,0,1,8.24-23.06c-.52,3.33-1.14,7.33-1.68,11.6s-1,8.83-1.4,13.26c-.81,8.85-1.47,17.2-2.33,21.54s-1.79,8.85-2.88,13.15a104.14,104.14,0,0,1-3.89,12.62,49.15,49.15,0,0,1-2.78,6,24.25,24.25,0,0,1-4,5.46,13.88,13.88,0,0,1-2.76,2.21,11.23,11.23,0,0,1-3.35,1.4,12,12,0,0,1-7-.53,14.82,14.82,0,0,1-5.47-3.69,24.73,24.73,0,0,1-3.66-5,49.17,49.17,0,0,1-4.33-10.84,100.71,100.71,0,0,1-3.37-21.63c-.09-1.77-.12-3.52-.11-5.27s.12-3.49.2-5.17c.18-3.37.42-6.7.74-10a127.31,127.31,0,0,1,3.18-18.91A74.91,74.91,0,0,1,129.5,392a53.43,53.43,0,0,1,10.22-13.61l1.5-1.4c.26-.24.52-.49.8-.72l.9-.68,1.88-1.39c.65-.45,1.39-.83,2.09-1.25a18.59,18.59,0,0,1,9.59-2.64,12.84,12.84,0,0,1,7.89,3A13.88,13.88,0,0,1,167.5,377.12Z"></path><path class="cls-2" d="M120.75,440.28c1.14-18.55,3.92-46,22.49-62.48,15.89-14.1,22.09-3.87,24.31-.71s5.63,16,1.42,26.07-7.75,25.29-10.37,45.7C155.69,471.51,119.81,455.55,120.75,440.28Z"></path><path class="cls-2" d="M169,403.16c-6.53,15.34-10.41,33.52-8.83,50,.17,1.79.32,3.68-.48,5.28a8.28,8.28,0,0,1-4.31,3.52c-10.93,4.86-23.69,1.89-34.84-2.42a2.43,2.43,0,0,1-2-2.92,245.58,245.58,0,0,1,5.44-42.21c3-13.68,8.65-27.19,19.31-36.65,15.89-14.1,24.31-.71,24.31-.71"></path><path d="M167.51,377.12c-.22-.12-.68-.62-1.45-1.3a15.45,15.45,0,0,0-3.27-2.3,12.26,12.26,0,0,0-5.23-1.37,14.69,14.69,0,0,0-6.25,1.4,21.8,21.8,0,0,0-3,1.71l-1.48,1c-.47.37-.92.76-1.38,1.14L144,378.54c-.43.4-.86.83-1.28,1.24-.87.8-1.62,1.71-2.41,2.53a49.42,49.42,0,0,0-6.53,9.61,77.57,77.57,0,0,0-5.78,15q-1.08,4-1.89,8.13t-1.49,8.42c-.92,5.65-1.67,11.35-2.23,17-.28,2.83-.52,5.64-.69,8.42-.08,1.39-.17,2.78-.22,4.16,0,.69-.05,1.37-.08,2.06l0,1,0,.51v.1h0s0,0,0,0h0l.19.07c1.1.41,2.2.81,3.31,1.18,2.21.74,4.42,1.43,6.65,2a60.05,60.05,0,0,0,6.65,1.22,41.06,41.06,0,0,0,6.54.22,28.45,28.45,0,0,0,6.23-1c.49-.15,1-.27,1.48-.45l1.44-.56a9.47,9.47,0,0,0,2.31-1.24,2.78,2.78,0,0,0,1-1.34,6.9,6.9,0,0,0,.19-2.35l-.21-3.32c-.08-1.14-.06-2.28-.09-3.4a95.12,95.12,0,0,1,3.42-25,105.46,105.46,0,0,1,7.59-19.94c-1.1,5.72-2.84,13.81-3.79,21.47-.5,3.83-.84,7.54-1.09,10.75s-.36,5.93-.53,7.8c-.11.95-.15,1.89-.21,2.82s-.09,1.88-.1,2.81,0,1.86,0,2.79,0,1.8.09,2.86a13.83,13.83,0,0,1-.27,3.42,7.58,7.58,0,0,1-1.81,3.44,10.1,10.1,0,0,1-2.79,2.06,19.31,19.31,0,0,1-2.81,1.17,31.42,31.42,0,0,1-5.63,1.43,38.46,38.46,0,0,1-5.63.4,49.21,49.21,0,0,1-10.76-1.31,81.9,81.9,0,0,1-9.94-3c-.8-.28-1.58-.59-2.36-.89l-.59-.23a7.75,7.75,0,0,1-.78-.35,3.67,3.67,0,0,1-1.3-1.07,3.19,3.19,0,0,1-.55-1.58,8,8,0,0,1,0-.85l0-.67c0-.82.08-1.63.11-2.45.34-6.51,1-12.8,1.7-18.86s1.68-11.89,2.75-17.51c.53-2.8,1.11-5.59,1.8-8.29s1.51-5.34,2.42-7.9,2-5,3.12-7.37a64.4,64.4,0,0,1,3.88-6.75,48.22,48.22,0,0,1,9.9-11,26.72,26.72,0,0,1,6.68-4.12,15.57,15.57,0,0,1,8.52-1.28,13.4,13.4,0,0,1,9.28,6.51Z"></path><ellipse class="cls-4" cx="128.78" cy="450.21" rx="5.5" ry="7.5"></ellipse><path d="M134.31,450.21c.29.15.52,1.84-.1,3.72a7.94,7.94,0,0,1-1.43,2.67,7.47,7.47,0,0,1-2,1.71,5.09,5.09,0,0,1-4,.4,6.76,6.76,0,0,1-3.34-2.41,10.87,10.87,0,0,1-2-7.38,9.6,9.6,0,0,1,2.67-6.11,6.52,6.52,0,0,1,3.17-1.8,5.74,5.74,0,0,1,3.61.34,7,7,0,0,1,3.75,4.42,8.76,8.76,0,0,1,.22,4.44,24.72,24.72,0,0,0-2.72-3.43,13.93,13.93,0,0,0-1.29-1.09,4.35,4.35,0,0,1-.78-.62,2.36,2.36,0,0,0-2.55-.79,4.54,4.54,0,0,0-2.5,2.17,8.08,8.08,0,0,0-.46,6.6c.7,2,2.29,3.44,3.8,3.56a4.35,4.35,0,0,0,3.72-2,13.86,13.86,0,0,0,1.45-2.33A14.57,14.57,0,0,0,134.31,450.21Z"></path></g><path class="cls-6" d="M208.78,372.55c5.45.18,10.72-3.66,16-2.41,3.76.89,6.54,4.26,7.78,7.92s1.19,7.62,1,11.48c-.11,3.17-.59,6.9-3.37,8.44s-6.33-.13-9.12-1.79l-10.6-6.33"></path><path d="M210.57,389.82c.49-.26,3,.95,5.77,2.43l4.27,2.25a21.5,21.5,0,0,0,3.48,1.59,7.61,7.61,0,0,0,4.27.38,3.27,3.27,0,0,0,2.11-2.44,17,17,0,0,0,.47-4.83c0-1.88,0-3.67-.2-5.33a23.19,23.19,0,0,0-.75-4.09,12.49,12.49,0,0,0-1.52-3.42,9.8,9.8,0,0,0-2.31-2.54,6.58,6.58,0,0,0-2.81-1.24c-2.07-.41-4.65.12-7.18.57a19.5,19.5,0,0,1-7.42.25c2.09-1.16,4.2-2.77,6.47-4.2a17.6,17.6,0,0,1,3.52-1.72,10.76,10.76,0,0,1,1.69-.43,6.5,6.5,0,0,1,1.42-.07,13,13,0,0,1,4.7,1.25,12.15,12.15,0,0,1,3.61,2.7,16.29,16.29,0,0,1,3.76,6.9,28.94,28.94,0,0,1,.91,6.92c0,1.1,0,2.18,0,3.23s0,2.08-.09,3.14a12.16,12.16,0,0,1-1.75,6.25,6.59,6.59,0,0,1-2.71,2.25,7,7,0,0,1-3.36.52,13.66,13.66,0,0,1-5.42-1.81c-1.53-.87-2.79-1.71-4.08-2.58A52.8,52.8,0,0,1,210.57,389.82Z"></path><path class="cls-6" d="M203,375.57c-5.18-2-11.12-3.67-16.1-1.24-6.3,3.07-8.08,11.84-5.3,18.27s8.88,10.8,15.13,13.95a41.45,41.45,0,0,0,11.66-15.25"></path><path d="M208.41,391.31c.3.47-.71,3.38-2.53,6.43a55.66,55.66,0,0,1-5.9,7.92c-.16.19-.32.39-.49.58l-.14.14-.2.21-.4.41L197,408.67l-.06.05-.06,0-.14-.06-.26-.12-.55-.23-1.11-.5-1.78-.84a38.09,38.09,0,0,1-5.67-3.32,25.14,25.14,0,0,1-8.72-10.56,18.26,18.26,0,0,1-.58-12.06,15.43,15.43,0,0,1,2.85-5.4,13.05,13.05,0,0,1,4.81-3.65,14.12,14.12,0,0,1,5.43-1.1,18.13,18.13,0,0,1,4.81.68,29.32,29.32,0,0,1,7.3,3.25c-2.37.41-5.54.42-8.19.71s-4.64.86-5.67,1a7.41,7.41,0,0,0-3,.95,8.74,8.74,0,0,0-2.46,2.21,11.87,11.87,0,0,0-1.59,3.06,14.31,14.31,0,0,0-.67,3.41c-.34,4.67,2,8.84,4.93,11.8a27.64,27.64,0,0,0,4.76,3.84c.83.55,1.68,1,2.51,1.52l1.27.68.56.29.31.14.3.13c.1,0,.2.15.28,0l.47-.44.79-.75c.32-.3.63-.6.93-.91,1.22-1.22,2.34-2.46,3.4-3.68s2.41-2.76,3.65-4.2S208.06,391.75,208.41,391.31Z"></path><path class="cls-6" d="M210,376.46c1.11-1.59,3.75-1.29,5,.14s1.55,3.51,1.51,5.44a10.86,10.86,0,0,1-1.7,6.27c-1.29,1.77-3.72,2.86-5.77,2.06l-3.73-7.2a7.3,7.3,0,0,1-1-2.71,3.83,3.83,0,0,1,5.19-3.57"></path><path d="M209.56,376.93c-.15.16-.48.15-.9.21a4.43,4.43,0,0,0-1.46.48,3.65,3.65,0,0,0-1.32,1.27,2,2,0,0,0-.25,1.47,2.9,2.9,0,0,0,.55,1.08c.57.7,1.32,1.67,2,2.58s1.31,1.9,1.93,2.88l.47.74c.1.17.09.14.11.16l.06,0,.09.05a.35.35,0,0,0,.11,0,.26.26,0,0,0,.14-.1s.16-.08.26-.14a1.92,1.92,0,0,0,.35-.23,4.27,4.27,0,0,0,.54-.5,3.42,3.42,0,0,0,.43-.61,7,7,0,0,0,.68-1.75,18.36,18.36,0,0,0,.5-4.36,5.79,5.79,0,0,0-.21-1.62,2.19,2.19,0,0,0-.54-1.05,2.07,2.07,0,0,0-2.42-.49,2.24,2.24,0,0,1,.91-2.4,4.35,4.35,0,0,1,3.37-.71,4.51,4.51,0,0,1,1.8.73,5.91,5.91,0,0,1,1.29,1.16,4.3,4.3,0,0,1,1,2.18,17,17,0,0,1-.54,5.07A18,18,0,0,1,217,387.3a8.51,8.51,0,0,1-2.88,3.32,7.5,7.5,0,0,1-1.94.92,6,6,0,0,1-2.36.21c-.75-.11-1.61-.23-1.89-1-.22-.29-.39-.65-.59-1l-.45-.78-1.6-2.68c-.51-.86-1-1.7-1.48-2.53a7.65,7.65,0,0,1-1.1-3.2,4.43,4.43,0,0,1,.86-2.86,4.35,4.35,0,0,1,3.57-1.8,3.72,3.72,0,0,1,1.66.41A2.81,2.81,0,0,1,209.56,376.93Z"></path></g></svg>