<svg xmlns="http://www.w3.org/2000/svg" viewBox="0 0 380 600"><defs transform="matrix(-1, 0, 0, 1, 380, 0)"><style>.cls-1{isolation:isolate;}.cls-2{mix-blend-mode:multiply;}.cls-3{opacity:0.3;}.cls-4{fill:#ffffff;}.cls-5{fill:blue;}.cls-6{fill:none;}</style></defs><g class="cls-1" transform="matrix(-1, 0, 0, 1, 380, 0)"><g id="outfits_2"><g id="default"><g class="cls-2"><g class="cls-3"><path d="M224.188,380.323a17.531,17.531,0,0,1,.364-3.074l.731.475a30.292,30.292,0,0,1-9.242,5.569l-3.132,1.217,2.12-2.677a45.6,45.6,0,0,0,6.987-12.38l2.008,1.356a269.235,269.235,0,0,1-24.432,21.059l-2.349-2.27a187.329,187.329,0,0,1,19.366-23.939l2.544,2.983c-11.7,8.445-22.351,16.177-29.729,21.686l-7.818,5.82-3.576-4.29A316.911,316.911,0,0,1,210.5,362.775l3.627,6.308a124.839,124.839,0,0,0-25.3,15.4c-8,6.1-15.605,12.909-23.254,19.764l-6.7-5.6a99.706,99.706,0,0,1,17.894-21.607c6.683-6.269,13.728-11.783,20.582-17.143l5.158,8.085A235.9,235.9,0,0,0,182.122,380.1,241.01,241.01,0,0,0,153.6,402.306l-7.362-7.078a231.576,231.576,0,0,1,40.948-38.515l4.66,8.855a101.922,101.922,0,0,0-24.979,12.555q-2.84,1.954-5.512,4.084c-1.8,1.436-3.771,3.038-5.759,4.5a47.694,47.694,0,0,1-13.657,7.436l-4.463-7.845c11.764-10.238,22.674-21.628,35.684-29.744l3.041,7.109a60.622,60.622,0,0,0-17.75,7.07c-5.436,3.144-10.5,6.8-15.543,10.292l-4.194-4.389c3.529-4.12,6.644-8.228,10.391-11.8a51.638,51.638,0,0,1,11.956-8.275l1.972,4c-8.26,3.248-14.949,5.814-21.341,8.239,5.66-3.35,12.481-7.137,20.091-11.179l.851,1.724a50.694,50.694,0,0,0-10.455,9.186c-3,3.609-5.674,7.868-8.654,12l-4.282-4.481A169.635,169.635,0,0,1,155.8,363.317a64.108,64.108,0,0,1,18.36-8.236l3.8,8.872c-7.646,5.347-13.606,10.916-17.883,14.532-5.667,4.85-11.221,9.935-16.68,14.485l-4.169-7.328c3.945-1.113,7.937-3.556,11.724-6.28q1.43-1.027,2.844-2.122l2.917-2.251c2.01-1.513,4.052-2.964,6.138-4.327a110.57,110.57,0,0,1,26.392-12.651l2.7,5.126a220.877,220.877,0,0,0-40.087,36.782l-3.162-3.04a250.624,250.624,0,0,1,50.691-34.915l2.111,3.308c-7.279,5.614-14.368,11.155-20.741,17.163a91.762,91.762,0,0,0-16.25,19.608l-3.269-2.732c8-7.124,15.9-14.124,24.2-20.353A128.236,128.236,0,0,1,211.7,363.315l2.562,4.455a342.436,342.436,0,0,0-32.287,28.112l-3.617-4.339q19.736-14.019,38.068-26.769l3.573,4.19q-5.144,5.192-9.769,10.619c-2.827,3.36-5.972,7.21-9.689,12.307l-3.351-3.238c8.34-5.872,17.473-12.986,25.137-19.645l2,1.347a44.739,44.739,0,0,1-8.144,12.446l-.639-.922a34.648,34.648,0,0,0,9.422-4.569l.151-.1-.05.169C224.632,378.827,224.379,379.679,224.188,380.323Z" /></g></g><circle class="cls-4 color-body" cx="117.4" cy="247.349" r="41.5" style="fill:#ffffff;--backup-fill:#ffffff" /><path d="M158.825,248.42a8.449,8.449,0,0,1-.471-2.344c-.091-.626-.116-1.364-.256-2.186s-.313-1.73-.492-2.722a43.484,43.484,0,0,0-5.325-13.869A40.722,40.722,0,0,0,140.7,214.914a35.678,35.678,0,0,0-12.6-5.56c-11.993-2.892-26.033.254-35.586,9.06a38.693,38.693,0,0,0-6.339,7.258,37.468,37.468,0,0,0-2.4,4.161c-.34.722-.74,1.416-1.035,2.155L81.9,234.22c-.133.373-.3.734-.407,1.116l-.306,1.148-.621,2.283-.381,2.327a15.221,15.221,0,0,0-.294,2.326,32.615,32.615,0,0,0-.124,4.651c.036.771.04,1.541.1,2.3q.16,1.138.319,2.268a38.288,38.288,0,0,0,30.259,31.7,39.086,39.086,0,0,0,38.11-13.682,42.693,42.693,0,0,0,6.443-10.9,46.7,46.7,0,0,0,2.756-11.369,34.035,34.035,0,0,1,.113,12.359,39.343,39.343,0,0,1-15.392,24.335,24.621,24.621,0,0,1-2.643,1.739,21.563,21.563,0,0,1-2.509,1.406c-.821.38-1.6.726-2.318,1.033-.361.152-.7.3-1.04.427l-.983.286c-1.259.328-2.485.734-3.744.982l-3.77.659c-1.261.126-2.522.2-3.768.3-.312.021-.622.052-.933.064l-.936-.019-1.861-.041a45.63,45.63,0,0,1-14.191-2.723,47.231,47.231,0,0,1-12.124-6.708,44.814,44.814,0,0,1-9.179-9.643c-.6-.915-1.27-1.775-1.8-2.722L79.107,267.3c-.5-.95-.876-1.955-1.316-2.923-.2-.491-.442-.967-.617-1.467l-.493-1.508-.49-1.5a10.382,10.382,0,0,1-.42-1.513l-.678-3.05c-.2-1.016-.273-2.051-.415-3.069l-.185-1.528c-.031-.51-.029-1.022-.045-1.531l-.061-3.045q.115-1.512.229-3.012c.047-.5.058-1,.134-1.5l.26-1.473c.187-.977.314-1.964.551-2.922a45.06,45.06,0,0,1,1.767-5.6l.528-1.357a9.688,9.688,0,0,1,.583-1.327l1.3-2.575a43.31,43.31,0,0,1,6.659-9.1,44.587,44.587,0,0,1,4.027-3.784c.692-.6,1.462-1.092,2.186-1.639a22.078,22.078,0,0,1,2.241-1.527,42.854,42.854,0,0,1,39.009-3.467,41.63,41.63,0,0,1,14.972,10.365c.924,1.05,1.892,2.235,2.873,3.5l1.344,2.063a17.753,17.753,0,0,1,1.285,2.19q.577,1.146,1.163,2.311a24.962,24.962,0,0,1,.978,2.405c.289.815.644,1.6.864,2.419l.64,2.431q.153.6.3,1.181.095.6.187,1.183c.117.776.232,1.532.343,2.263a15.579,15.579,0,0,1,.174,2.121l.085,1.934.036.883-.048.828c-.034.528-.065,1.016-.093,1.455C158.906,247.281,158.857,247.966,158.825,248.42Z" /><path class="cls-4 color-body" d="M287.581,221.215c-30.973-29.132-89.937-36.088-118.407-30.692S114.37,209.152,99.13,229.3c-8.322,11-21.471,49.746-21.864,61.624-.439,13.25,3.668,29.984,10.894,40.789,14.577,21.8,35.9,33.044,60.878,38.693,40.221,9.095,79.109,7.852,116.616-10.365C327.5,330,323.5,255,287.581,221.215Z" style="fill:#ffffff;--backup-fill:#ffffff" /><path d="M287.623,221.171a16.489,16.489,0,0,1,1.623,1.316,35.546,35.546,0,0,1,2.933,2.8l1.845,1.972c.664.708,1.285,1.541,1.991,2.387,1.434,1.679,2.817,3.714,4.343,5.911a90.079,90.079,0,0,1,13.7,37.338,93.027,93.027,0,0,1,.154,23.28,83.254,83.254,0,0,1-5.863,22.3,82.415,82.415,0,0,1-10.514,18.208A84.958,84.958,0,0,1,286.1,349.17a95.87,95.87,0,0,1-21.867,14.177,150.842,150.842,0,0,1-24.909,9.563,167.046,167.046,0,0,1-54.31,5.989,206.545,206.545,0,0,1-27.448-3.211c-2.275-.357-4.51-.891-6.766-1.328s-4.5-.983-6.757-1.518a134.466,134.466,0,0,1-13.305-4.065,99.746,99.746,0,0,1-24.59-12.906,83.866,83.866,0,0,1-10.5-9c-1.672-1.581-3.127-3.355-4.671-5.037-1.405-1.795-2.917-3.507-4.188-5.382l-1.728-2.416c-.558-.842-1.115-1.725-1.649-2.594-1.026-1.766-1.978-3.558-2.817-5.386a77.1,77.1,0,0,1-4.124-11.219,81.288,81.288,0,0,1-3.2-23.5c0-.994.149-2.126.227-3.181.126-1.034.3-2,.458-3s.383-1.926.572-2.892.406-1.907.642-2.836c.877-3.762,1.948-7.4,3.031-11.034q3.323-10.86,7.535-21.264l1.06-2.6,1.125-2.583c.725-1.724,1.561-3.426,2.357-5.131a63.42,63.42,0,0,1,5.911-10.1,87.973,87.973,0,0,1,16.04-15.844,122.05,122.05,0,0,1,38.5-19.32,152.393,152.393,0,0,1,20.24-4.714,123.976,123.976,0,0,1,20.221-1.086A184.925,184.925,0,0,1,229,190.646,157.307,157.307,0,0,1,262.2,202.291a99.359,99.359,0,0,1,26.165,18.1A112.042,112.042,0,0,0,260.821,205a171.791,171.791,0,0,0-34.966-9.491A205.13,205.13,0,0,0,192,192.7c-5.077.014-9.754.248-13.855.636l-2.966.315-2.735.359-2.489.394-2.309.432a133.625,133.625,0,0,0-33.619,10.584A94.835,94.835,0,0,0,106.177,224.9a72.633,72.633,0,0,0-5.435,6.293L99.6,232.82c-.362.57-.7,1.171-1.056,1.755-.724,1.151-1.343,2.409-2,3.626-2.546,4.943-4.743,10.1-6.783,15.25s-3.9,10.356-5.561,15.565-3.165,10.426-4.262,15.627c-.314,1.3-.46,2.587-.7,3.878a34.986,34.986,0,0,0-.263,3.824,63.729,63.729,0,0,0,.356,7.827A80.285,80.285,0,0,0,82.433,315.4a62.107,62.107,0,0,0,6.084,13.939A82.794,82.794,0,0,0,97.686,341.3a84.611,84.611,0,0,0,11.04,9.927,85.735,85.735,0,0,0,12.437,7.709,99.07,99.07,0,0,0,13.283,5.66,128.12,128.12,0,0,0,13.7,3.933c18.471,4.206,36.839,6.189,54.493,5.376a155.336,155.336,0,0,0,49.844-10.478c1.905-.782,3.818-1.521,5.693-2.326l5.539-2.554c.933-.4,1.805-.89,2.689-1.356l2.643-1.4c.892-.443,1.738-.96,2.576-1.486l2.522-1.55a83.9,83.9,0,0,0,17.607-14.938,79.436,79.436,0,0,0,18.628-39.188,91.394,91.394,0,0,0,1.036-23q-.138-1.562-.277-3.137c-.126-1.047-.29-2.092-.433-3.143-.243-2.111-.737-4.185-1.117-6.277a93.781,93.781,0,0,0-3.5-12.066,92,92,0,0,0-4.707-10.78c-.9-1.619-1.757-3.2-2.641-4.675-.938-1.436-1.772-2.857-2.671-4.119-.916-1.249-1.746-2.454-2.573-3.525-.858-1.049-1.648-2.016-2.362-2.888C289.651,223.316,288.407,222.047,287.623,221.171Z" /><path class="cls-4 color-body" d="M251.155,239.577a41.5,41.5,0,1,1,32.728,65.571" style="fill:#ffffff;--backup-fill:#ffffff" /><path d="M283.885,305.087c.353-.349,2.165-.541,4.772-.906a46.858,46.858,0,0,0,9.458-2.494l1.308-.485c.439-.161.85-.4,1.278-.6.847-.418,1.709-.818,2.549-1.248a42.507,42.507,0,0,0,4.64-3.05,33.71,33.71,0,0,0,6.5-6.319,45.455,45.455,0,0,0,6.024-10.78,39.92,39.92,0,0,0,2.569-12.337,38.659,38.659,0,0,0-6.394-23.592,44.15,44.15,0,0,0-6.867-7.776c-.65-.562-1.35-1.064-2.015-1.6l-1.007-.8-1.078-.69c-.723-.452-1.417-.948-2.15-1.371l-2.248-1.173a18.368,18.368,0,0,0-2.3-1.028c-.783-.295-1.53-.689-2.332-.912a38.218,38.218,0,0,0-4.788-1.281c-.808-.143-1.6-.373-2.412-.456l-2.425-.252c-.4-.037-.805-.1-1.207-.119l-1.206-.031c-.8-.043-1.6-.021-2.395.013a41.055,41.055,0,0,0-17.464,4.618,44.938,44.938,0,0,0-12.614,9.815,26.042,26.042,0,0,1,3.548-7.5,32.584,32.584,0,0,1,6.722-7.233,34,34,0,0,1,8.2-4.824,24.145,24.145,0,0,1,6.783-1.794,49,49,0,0,1,19.238,2.344,46.768,46.768,0,0,1,15.486,8.729,45.51,45.51,0,0,1,15.507,27.38q.13.934.259,1.859a13.619,13.619,0,0,1,.191,1.85l.149,3.678q-.1,1.824-.2,3.619l-.057.9-.14.883-.279,1.758a42.293,42.293,0,0,1-4.425,12.965,43.376,43.376,0,0,1-7.746,10.261c-.742.728-1.557,1.364-2.327,2.036l-1.169.978-1.245.859c-.836.555-1.633,1.153-2.487,1.643l-2.581,1.38a34.638,34.638,0,0,1-12.461,3.435c-1.069.14-2.129.071-3.095.1a18.58,18.58,0,0,1-2.671-.081C285.675,305.306,284.476,305.166,283.885,305.087Z" /><g class="cls-2"><g class="cls-3"><path d="M316.6,266.853a3.718,3.718,0,0,0-.7,1.047,1.928,1.928,0,0,0,.715,2.171l.558.4-.641.347a4.644,4.644,0,0,1-1.113.462,4.443,4.443,0,0,1-1.024.15,4.164,4.164,0,0,1-.524-.014l-.262-.03-.129-.021-.065-.012-.033-.006.036.016a4.609,4.609,0,0,1,1.757,1.3,4.33,4.33,0,0,1,.841,3.074l-.088.543-.554.075a15.086,15.086,0,0,1-1.628.117,9.342,9.342,0,0,1-1.012-.031,8.656,8.656,0,0,1-.907-.126l-.422-.093-.2-.053-.05-.014c-.012,0,.024.022.033.031l.093.077a4.412,4.412,0,0,1,1.127,1.353,3.43,3.43,0,0,1,.161.353l.035.087c0,.014.011.038.006.011s-.007-.036.012.038.091.317.113.442a6.028,6.028,0,0,1,.1,1.7,5.807,5.807,0,0,1-.327,1.467c-.077.224-.154.444-.244.662a2.1,2.1,0,0,1-.132.306l-.183.156-.012.011c-.79-.161-1.594-.322-2.44-.529l-1.167-.3-.876-.248a34.008,34.008,0,0,1-3.625-1.306l1.575-2.247a16.818,16.818,0,0,1,1.4,1.486c.226.27.443.554.658.846l.313.45.431.709a13.781,13.781,0,0,1,1.293,3.054c.277,1.014.432,1.963.632,3.037a5.932,5.932,0,0,1-1.97.549c-.175.027-.351.069-.529.084h-.537a4.174,4.174,0,0,1-1.116-.147,7.431,7.431,0,0,1-2.444-1.146,23.167,23.167,0,0,1-2.065-1.635,22.1,22.1,0,0,0-2.567-2.054,3.043,3.043,0,0,0-.574-.311,2.007,2.007,0,0,0-.5-.176c-.166-.08-.275,0-.41-.048-.127,0-.24.064-.367.057l.911-3.156a17.243,17.243,0,0,1,3.113,4.755,9.76,9.76,0,0,1,.376.99c.113.378.272.762.349,1.135a15.687,15.687,0,0,1,.395,2.2,36.183,36.183,0,0,1,.015,3.936c-.332.018-.579.045-1.03.044l-1.163.01a5.777,5.777,0,0,1-2.1-.313,7.844,7.844,0,0,1-3.109-2.327l-.721-.928-.519-.687-.682-.9a8.939,8.939,0,0,0-1.271-1.335,3.036,3.036,0,0,0-1.141-.528l2.255-3.224q.729,1.289,1.364,2.613c.211.441.416.883.608,1.33l.145.334.224.551c.161.4.327.786.477,1.22a38.719,38.719,0,0,1,1.462,4.822q.472,2.178.935,4.317l-2.55-.648-1.264-.338a5.4,5.4,0,0,1-1.173-.4l-.588-.27-.607-.383a5.329,5.329,0,0,1-.609-.413l-.631-.547a11.612,11.612,0,0,1-1.258-1.293c-.424-.432-.814-1.015-1.214-1.518l-1.414-1.884a12.973,12.973,0,0,0-1.11-1.246,4.177,4.177,0,0,0-2.3-1.21l1.689-2.949a16.216,16.216,0,0,1,2.615,5.812,13.4,13.4,0,0,1,.244,1.442,9.452,9.452,0,0,1,.085,1.04,9.016,9.016,0,0,1,.012,1.049,16.9,16.9,0,0,1-.184,1.913c-.092.583-.154,1.255-.291,1.774-1.347-.473-2.581-.868-3.76-1.391a15.475,15.475,0,0,1-2.583-1.383,18.68,18.68,0,0,1-3.487-2.916,13.786,13.786,0,0,1-3.628-6.856,16,16,0,0,0,5.206,5.708,19.545,19.545,0,0,0,3.657,1.966l.92.348a2.6,2.6,0,0,0,.3.013.52.52,0,0,0,.326-.1,1.07,1.07,0,0,0-.178-.491.28.28,0,0,0-.044-.046,1.168,1.168,0,0,1-.046-.195c-.015-.088-.042-.175-.064-.261-.083-.346-.184-.676-.287-.992a21.579,21.579,0,0,0-1.327-3.026c-.2-.391-.425-.773-.616-1.09l-2.579-4.284,4.436,1.043a14.068,14.068,0,0,1,1.417.364,8.357,8.357,0,0,1,1.3.617,7.438,7.438,0,0,1,1.117.794l.5.43.431.453a16.6,16.6,0,0,1,1.46,1.82c.209.285.434.625.584.846l.134.262a4.78,4.78,0,0,0,.92,1.239,3.555,3.555,0,0,0,.757.534l.22.1.112.049a.4.4,0,0,0,.053.022l0-.035-.022-.3a11.543,11.543,0,0,0-.585-2.378l-.134-.369-.249-.612-.525-1.2c-.359-.785-.737-1.539-1.124-2.262l-.927-1.728,1.907.327a6.124,6.124,0,0,1,3.339,1.943,14.564,14.564,0,0,1,1.116,1.349l.881,1.221a5.734,5.734,0,0,0,1.309,1.423,2.072,2.072,0,0,0,1.342.385c.033-.006.09.013.1-.013l0-.116.008-.23a7.054,7.054,0,0,0-.17-1.6c-.06-.259-.131-.514-.211-.763l-.132-.369-.191-.46a14.445,14.445,0,0,0-2.526-3.848l-1.083-1.2,1.5-.236a6.663,6.663,0,0,1,1.168-.158,4.427,4.427,0,0,1,1.141.156,4.476,4.476,0,0,1,1.021.383,5.641,5.641,0,0,1,.9.508,26.482,26.482,0,0,1,2.894,2.352l.328.288.225.189c.134.109.269.225.4.312a4.289,4.289,0,0,0,.784.486,1.7,1.7,0,0,0,.418.15,1.15,1.15,0,0,0,.431.054,1.115,1.115,0,0,0,.421-.061c.207.014.112-.183.09-.325a6.438,6.438,0,0,0-.782-1.942l-.137-.217-.234-.35c-.173-.25-.35-.5-.54-.73a14.736,14.736,0,0,0-1.2-1.337l1.312-1.871a32.421,32.421,0,0,0,5.376,1.9c.04.006.09.03.122.02l.051-.121a2.165,2.165,0,0,0,.082-.247,2.1,2.1,0,0,0,.058-.51,2.236,2.236,0,0,0-.054-.474c.023.1-.03-.118-.025-.1.025.088-.057-.187-.08-.241l-.219-.426a3.93,3.93,0,0,0-.669-.893c.268-1.23.069-1.683-.21-2.032-.171-.131.059-.086.181-.111a2.3,2.3,0,0,0,.437-.09,3.456,3.456,0,0,0,1.1-.591,11.869,11.869,0,0,0,1.694.316,15.856,15.856,0,0,0,2.428.037l-.92.886a2.691,2.691,0,0,0-.076-1.248,2.446,2.446,0,0,0-.118-.321,3.885,3.885,0,0,0-.239-.43l-.3-.381-.361-.311a2.062,2.062,0,0,0-.552-1.494,2.019,2.019,0,0,0-.571-.4c-.063-.027.016-.008.044-.007l.11.016.224.018a4.161,4.161,0,0,0,.447,0,4.556,4.556,0,0,0,.834-.135c.5-.13.871-.29.886-.223a4.316,4.316,0,0,0,1.353-.271c.133-.048.216-.081.269-.094h0l-.046.421h0l0,0,0,0-.006-.008-.008-.012a.031.031,0,0,1,0-.014.017.017,0,0,1,.012,0l.013.008.008,0,0,0,0,0h0l.041-.375-.041.374a2.478,2.478,0,0,1-.849-1.7,2.07,2.07,0,0,1,.306-1.239A1.96,1.96,0,0,1,316.6,266.853Z" /></g></g><path class="cls-5 color-facialhair" d="M271.374,284.14c-2.654-6.529-11.2,11.313-11.663,15.547-1.414,16.391-38.26,37.636-54.111,39.4-1.716.19-5.2-10.554-5.943-11.932a37.192,37.192,0,0,0-9.475-11.352c-4.056-3.234-11.771-2.588-16.862-3.34-7.058-1.042-14.139-1.929-21.221-2.8-10.169-1.254-29-7.55-37.349.283-4.889,4.586-5.457,11.191-6.8,17.132-16.025-3-27.641-28.844-30.306-43.727-5.077,26.219,14.131,82.763,40.759,92.961,19.325,6.85,49.186,12.667,66,12.667,14,0,52.5-11.076,70-22.669C278.9,348,286.613,310.65,271.374,284.14ZM165.081,348.383c-1.351-1.359-3.857-3.781-5.672-3.846-5.284-.188-14.387-2.654-19.787-3.425l-2.559,1.035c-12.775,5.337-18.713-12.1-16.1-20.709,17.174,9.179,39.577,12.778,65.142,9.179C189.953,346.9,172.752,354.9,165.081,348.383Z" /><path class="cls-6" d="M271.374,284.14c-2.654-6.529-11.2,11.313-11.663,15.547-1.414,16.391-38.26,37.636-54.111,39.4-1.716.19-5.2-10.554-5.943-11.932a37.192,37.192,0,0,0-9.475-11.352c-4.056-3.234-11.771-2.588-16.862-3.34-7.058-1.042-14.139-1.929-21.221-2.8-10.169-1.254-29-7.55-37.349.283-4.889,4.586-5.457,11.191-6.8,17.132-16.025-3-27.641-28.844-30.306-43.727-5.077,26.219,14.131,82.763,40.759,92.961,19.325,6.85,49.186,12.667,66,12.667,14,0,52.5-11.076,70-22.669C278.9,348,286.613,310.65,271.374,284.14ZM165.081,348.383c-1.351-1.359-3.857-3.781-5.672-3.846-5.284-.188-14.387-2.654-19.787-3.425l-2.559,1.035c-12.775,5.337-18.713-12.1-16.1-20.709,17.174,9.179,39.577,12.778,65.142,9.179C189.953,346.9,172.752,354.9,165.081,348.383Z" /><path d="M165.11,348.348c.421-.006,1.822,1.083,4.267,1.47a13.687,13.687,0,0,0,8.8-1.795,13.942,13.942,0,0,0,7.155-12.437,8.333,8.333,0,0,0-.047-1.045c-.033-.317-.059-.731-.092-.871a6.783,6.783,0,0,0-.234-.93l-.113-.333c-.012-.024-.012-.062-.033-.072l-.1.023-.2.046-.745.177-.368.086-.784.136c-.524.089-1.049.191-1.58.256-2.123.285-4.276.6-6.468.776a108.461,108.461,0,0,1-13.4.467,100.781,100.781,0,0,1-13.531-1.187,95.33,95.33,0,0,1-13.043-2.9c-1.636-.483-3.252-1.036-4.859-1.6-1.588-.621-3.193-1.19-4.734-1.908l-1.164-.516-.51-.225c.065.026.017.008.031.014v0s0-.008-.01,0l0,.008.009.441c0,.343.024.69.048,1.037.047.693.145,1.386.256,2.074a21.1,21.1,0,0,0,1.115,3.981,12.23,12.23,0,0,0,4.346,5.916,7.173,7.173,0,0,0,6.313.633c.3-.1.545-.167.9-.3l1.017-.372,1.329-.5.445-.17c.074-.027.148-.06.221-.081l.216.038.856.153.425.076.348.066.531.113,1.048.232,2.042.487c5.338,1.305,10.222,2.792,14.629,3.36a5.273,5.273,0,0,1,2.371.9,12.043,12.043,0,0,1,1.553,1.225,26.109,26.109,0,0,1,2.324,2.48c-.908-.51-1.9-1.1-2.987-1.629a12.956,12.956,0,0,0-1.691-.7,3.51,3.51,0,0,0-1.669-.2,39.42,39.42,0,0,1-7.066.14c-2.384-.126-4.738-.368-6.932-.618L142.2,344.4l-1.439-.174-.344-.041a1.829,1.829,0,0,0-.243-.025l-.145.006c-.064,0-.049.01-.051.016v.01h0l-.072.031-.144.062-1.1.454-.52.2-.585.2a8.418,8.418,0,0,1-1.078.316,13.444,13.444,0,0,1-5.592.19,11.976,11.976,0,0,1-5.038-2.249,17.529,17.529,0,0,1-5.5-7.992,25.947,25.947,0,0,1-1.545-8.779l0-.55.039-.735a12.044,12.044,0,0,1,.141-1.5,10.962,10.962,0,0,1,.254-1.412c.094-.459.213-.9.328-1.342s.249-.893.371-1.335c.017-.054.03-.115.049-.163l.162.077.323.154.641.305,2.521,1.2,3.971,1.882c1.166.539,2.361.989,3.528,1.479,1.177.465,2.372.856,3.544,1.28,1.18.4,2.374.731,3.547,1.093a91.128,91.128,0,0,0,14,2.763,102.219,102.219,0,0,0,13.353.738c2.157.03,4.277-.108,6.36-.172,2.081-.169,4.13-.245,6.134-.488l2.982-.306,3.455-.452c.763-.108,1.5-.17,2.237-.248l.554-.057.139-.014a1,1,0,0,1,.03.133l.056.274.222,1.1c.162.726.261,1.461.371,2.191.046.355.131.752.143,1.071l.04.793a17.69,17.69,0,0,1-.8,6.1,16.043,16.043,0,0,1-2.87,5.225,15.147,15.147,0,0,1-4.857,3.935,15.536,15.536,0,0,1-6.443,1.72,11.836,11.836,0,0,1-5.549-1.084A9.242,9.242,0,0,1,165.11,348.348Z" /><path d="M271.414,284.117c.383.494,1.355,2.177,2.8,4.82.616,1.368,1.274,3.01,2.042,4.858.4.919.627,1.958.971,3.014.307,1.067.679,2.175.971,3.353a69.784,69.784,0,0,1,1.733,16.526,71.334,71.334,0,0,1-3.323,19.389,66.565,66.565,0,0,1-9.491,18.852l-3.342,4.163c-1.195,1.31-2.46,2.55-3.678,3.817a21.161,21.161,0,0,1-1.967,1.756l-2.01,1.687-1,.838c-.354.248-.73.464-1.093.7l-2.182,1.363a128.98,128.98,0,0,1-17.038,8.224c-5.371,2.165-10.251,3.965-14.369,5.32a203.06,203.06,0,0,1-22.519,6.283l-2.929.6-2.973.5c-.987.186-2,.289-3.018.413l-1.523.183-1.566.088a98.744,98.744,0,0,1-12.249-.39,238.85,238.85,0,0,1-24.282-3.521q-12.121-2.334-24.129-5.816c-1.993-.615-3.984-1.2-5.987-1.893l-1.5-.5c-.5-.171-1.036-.432-1.552-.645-.517-.231-1.049-.443-1.551-.692l-1.463-.8a45.05,45.05,0,0,1-10.24-8.09A88.916,88.916,0,0,1,88.545,347.71a138.678,138.678,0,0,1-9.276-23.027,126.325,126.325,0,0,1-4.944-23.932,65.772,65.772,0,0,1,.418-17.965l5.8.041a73.64,73.64,0,0,0,3.8,12.953,80.628,80.628,0,0,0,5.889,12.137,50.082,50.082,0,0,0,8,10.343,26.793,26.793,0,0,0,4.91,3.782c.427.276.876.482,1.317.71a5.62,5.62,0,0,0,.67.311l.535.225.021.011,0,0,.151-.724c.27-1.3.549-2.622.916-3.974a24.581,24.581,0,0,1,3.561-8.03,17.006,17.006,0,0,1,3.164-3.423,15.82,15.82,0,0,1,4.093-2.378,24.986,24.986,0,0,1,8.534-1.59,74.681,74.681,0,0,1,15.751,1.73l7.376,1.439c1.213.223,2.36.4,3.559.564l3.715.51,14.705,2.028,3.528.481c1.116.13,2.309.206,3.517.294a50.988,50.988,0,0,1,7.575.925,17.542,17.542,0,0,1,4,1.393c.332.185.665.356.99.562l.959.682c.5.406.982.817,1.457,1.241a39.455,39.455,0,0,1,5.125,5.567q1.137,1.5,2.123,3.092c.329.529.642,1.067.946,1.61l.223.409c.083.157.124.215.261.5.191.407.287.669.408.97.857,2.248,1.606,4.367,2.467,6.417.213.508.431,1.009.656,1.488l.341.7.271.515a1.059,1.059,0,0,0,.227.314c.109.08.265,0,.4.007-.01.011.323-.055.575-.1l.779-.147c.52-.1,1.042-.239,1.562-.355,1.041-.264,2.082-.548,3.113-.883a88.818,88.818,0,0,0,12-4.879,115.853,115.853,0,0,0,11.094-6.158,95.2,95.2,0,0,0,9.987-7.139,53.712,53.712,0,0,0,8.3-8.273,26.848,26.848,0,0,0,2.974-4.694,16.194,16.194,0,0,0,.936-2.488,6.92,6.92,0,0,0,.285-1.269l.112-.639c.044-.274.094-.6.159-.847a32.72,32.72,0,0,1,2.077-5.53,55.122,55.122,0,0,1,2.639-5,26.574,26.574,0,0,1,3.317-4.556,5.865,5.865,0,0,1,2.63-1.763,2.192,2.192,0,0,1,2.011.5,3.677,3.677,0,0,1,.94,1.433,3.637,3.637,0,0,0-1.281-1.522,4.92,4.92,0,0,0-.569-.221,4.688,4.688,0,0,0-.6-.034c-.182.033-.364.074-.541.119l-.455.212a8.345,8.345,0,0,0-2.43,2.5,37.957,37.957,0,0,0-3.283,6.2,47.416,47.416,0,0,0-2.458,7,10.729,10.729,0,0,0-.306,1.811,14.3,14.3,0,0,1-.27,2.02l-.226,1.007c-.085.334-.21.653-.315.982a15.457,15.457,0,0,1-.762,1.931c-2.341,5.064-6.218,9.369-10.367,13.268a99.125,99.125,0,0,1-13.591,10.434,109.878,109.878,0,0,1-14.676,7.983,73.223,73.223,0,0,1-7.5,2.879c-1.261.4-2.528.755-3.821,1.036l-.967.208-.125.025-.21.013-.419.027-.837.054-.836.053a1.855,1.855,0,0,1-.815-.033,3.709,3.709,0,0,1-1.4-.825,6.968,6.968,0,0,1-1.091-1.268l-.458-.722-.286-.5c-.324-.587-.6-1.145-.861-1.7-.521-1.1-.968-2.158-1.391-3.188q-.608-1.53-1.184-2.984a18.331,18.331,0,0,0-1.01-2.362,37.716,37.716,0,0,0-5.463-7.417q-1.043-1.11-2.182-2.118a8.574,8.574,0,0,0-2.04-1.464,18.065,18.065,0,0,0-5.464-1.376c-2.043-.256-4.185-.377-6.43-.6-2.364-.256-4.425-.63-6.556-.928l-12.653-1.877c-2.1-.321-4.156-.588-6.35-.962-2.132-.383-4.2-.826-6.247-1.252a117.658,117.658,0,0,0-12.094-2.066c-3.958-.385-7.956-.4-11.428.731a10.959,10.959,0,0,0-4.458,2.735,14.6,14.6,0,0,0-3.009,4.491,30.015,30.015,0,0,0-1.731,5.41q-.807,3.681-1.607,7.333a31.362,31.362,0,0,1-5.073-1.4,18.057,18.057,0,0,1-1.763-.808,17.352,17.352,0,0,1-1.662-.931,31.9,31.9,0,0,1-5.82-4.651,55.812,55.812,0,0,1-8.617-11.543,85.57,85.57,0,0,1-5.967-12.706,77.418,77.418,0,0,1-3.753-13.27l2.366.017a49.889,49.889,0,0,0-.8,9.467,78.228,78.228,0,0,0,.586,9.479,121.249,121.249,0,0,0,3.688,18.393,127.688,127.688,0,0,0,14.387,33.213,70.561,70.561,0,0,0,10.869,13.539,44.325,44.325,0,0,0,6.673,5.145,34.242,34.242,0,0,0,7.619,3.281,256.157,256.157,0,0,0,32.274,7.968c5.331.974,10.626,1.793,15.873,2.4a112.075,112.075,0,0,0,15.509.885,91.511,91.511,0,0,0,14.919-2.316c4.909-1.09,9.725-2.387,14.439-3.809a214.12,214.12,0,0,0,27.011-9.985,88.2,88.2,0,0,0,12-6.575l2.568-2.114,1.283-1.049,1.176-1.181,2.347-2.348c.781-.78,1.423-1.683,2.14-2.514a65.092,65.092,0,0,0,10.444-18.022,68.841,68.841,0,0,0,4.514-22.363,63.669,63.669,0,0,0-2.417-19.776,16.01,16.01,0,0,0-.625-1.947q-.335-.933-.644-1.8a27.221,27.221,0,0,0-1.227-3.152C272.553,286.537,271.867,285.08,271.414,284.117Z" /><path d="M202.52,363.3c.315.1.563,1.272.6,2.656s-.114,2.945-.109,3.834a31.183,31.183,0,0,1-1.957,9.6,20.979,20.979,0,0,1-4,7.272,11.529,11.529,0,0,1-2.983,2.452,8.252,8.252,0,0,1-3.132,1.02c.546-1.155,1.077-2.279,1.5-3.183a5.584,5.584,0,0,1,1.261-2.027,12.856,12.856,0,0,0,3.837-4.439,25.565,25.565,0,0,0,2.016-4.978,86.063,86.063,0,0,0,1.851-8.527C201.629,365.837,202.381,363.761,202.52,363.3Z" /><path d="M234.437,345.768c.3.11.679,1.548.876,3.248.112.848.2,1.758.243,2.594.066.829.126,1.58.17,2.14a33.153,33.153,0,0,1-1.157,12.261,32.333,32.333,0,0,1-4.107,9.334,25.607,25.607,0,0,1-5.563,6.206,16.742,16.742,0,0,1,.637-4.238,8.368,8.368,0,0,1,1.269-3.022,25.786,25.786,0,0,0,6.111-12.787,82.858,82.858,0,0,0,.843-10.972,18.778,18.778,0,0,1,.319-2.733C234.211,346.868,234.371,346.042,234.437,345.768Z" /><path d="M241.867,322.049c.33.082.931,1.6,1.448,3.409.54,1.8.993,3.9,1.346,5.047a47.7,47.7,0,0,1,1.819,13.368,43.391,43.391,0,0,1-1.28,11.088,31.357,31.357,0,0,1-3.43,8.492,18.715,18.715,0,0,1-.69-4.6,10.507,10.507,0,0,1,.292-3.64,31.164,31.164,0,0,0,2.135-8.19,38.257,38.257,0,0,0,.2-7.481c-.3-4.682-1.193-8.647-1.641-12.173a22.24,22.24,0,0,1-.2-3.049C241.836,323.278,241.85,322.356,241.867,322.049Z" /><g class="cls-3"><path d="M269.989,327.4c.177-.034.534.111.886.563a2.951,2.951,0,0,1,.528,2.231l-.1.643-.831-.051c-.913-.057-2-.163-3.184-.3l1.288-.943c-.18,2.789-.485,6.274-.8,9.847a28.027,28.027,0,0,1-1.405,3.218l-.355.648-.176.3c-.028-.018-.021-.159-.033-.226-.029-.338-.053-.617-.082-.831a1.568,1.568,0,0,0-.384-.976c-.377-.337-.965-.544-3.4-.6-.091-.495-.179-.8-.269-1.217l-.134-.588a2.314,2.314,0,0,0-.138-.491l-.284-.686a3.382,3.382,0,0,0-.145-.329l-.157-.221-.315-.448c-.114-.112-.234-.2-.351-.309a1.907,1.907,0,0,0-.4-.3,1.1,1.1,0,0,0-.152-.064,2.1,2.1,0,0,0-.871-.1l3.191-4.08a34.134,34.134,0,0,1,1.193,19.992l-2.35,9.666-4.986-8.871a27.534,27.534,0,0,0-1.8-2.8q-.785-1.071-1.65-2.064l7.321-2.363a42.605,42.605,0,0,1-2.972,13.609l-2.983,7.459-4.315-6.567a17.169,17.169,0,0,0-3.39-3.781l6.313-3.493a23.438,23.438,0,0,1-4.488,14.917l-3.109,4.191-2.095-4.193c-1.168-2.337-2.187-4.5-3.1-6.555l4.107-.684a36.156,36.156,0,0,0-1.7,6.315,15.083,15.083,0,0,1-2.334-7.235l-.278-3.663,3.721,3.09a51.869,51.869,0,0,1,5.367,5.156l-6.356,0c.7-1.958,1.1-3.608,1.6-4.577a16.053,16.053,0,0,0,1.69-6.2l.424-6.732,4.418,4.052a24.43,24.43,0,0,1,4.582,5.676l-4.182.512a34.425,34.425,0,0,0,3.261-11.7l.4-4.226,2.584,3.262a37.865,37.865,0,0,1,3.913,6.036l-2.991.324a28.968,28.968,0,0,0-.774-17l-.991-2.79,3.073.129a7.406,7.406,0,0,1,2.873.72l.39.2c.076.039.148.082.218.127a3.312,3.312,0,0,1,1.354,1.739,6.85,6.85,0,0,1,.309,1.217l.1.634.023.163.012.082c0,.039.008.054.011.009l.043-.3a17.278,17.278,0,0,1,.452-2.184l.031-.123a32.562,32.562,0,0,1,1.433-4l.512-1.387.907.348c1.118.43,2.177.858,3.011,1.222l-.644.411a2.415,2.415,0,0,0,.245-1.473A2.828,2.828,0,0,0,269.989,327.4Z" /></g><g class="cls-3"><path d="M135.355,371.932c-.258.012-.592-.261-.978-.733-.193-.236-.4-.521-.616-.846-.2-.31-.416-.65-.649-1.012-.182.076.39-.271.428-.383.108-.128.042-.156.074-.032a1.281,1.281,0,0,0,.158.364l.092.152.059.09.016.022a.021.021,0,0,1-.006.034l-.011.01-.087.083-.34.355a14.066,14.066,0,0,0-1.392,1.747c-.942,1.379-2,3.079-2.953,4.737a1.1,1.1,0,0,0-.344,0,.5.5,0,0,0-.152.033l-.073.02c-.011,0-.024.012-.035,0l-.032-.075-.5-1.151c-.326-.735-.637-1.394-.919-1.921-.948-1.767-1.993-4.045-3.138-6.785l3.977,1.766c-.189.132-.344.248-.548.4s-.406.289-.613.457c-.208.2-.423.372-.631.6a9.056,9.056,0,0,0-.621.773c-.209.328-.4.684-.63,1a5.872,5.872,0,0,1-1.379,1.526,7.257,7.257,0,0,1-2.138,1.1l-1.045.35c-3.056-.421-4.577-3.247-4.818-7.86-.019-.681-.017-1.38,0-2.089.018-.691.014-1.467-.007-2.01l-.033-.347h0l.027,0,.239-.022.589-.055.835-.092c.38-.044.657-.091.846-.127a3.207,3.207,0,0,0,.7-.2.828.828,0,0,0,.125-.067l.016-.011c-.291.213-.076.056-.139.1l.008,0,.015-.01a.451.451,0,0,0,.06-.048l.075-.081c.018-.022.029-.049.021-.031a1.086,1.086,0,0,0,.027.529,1.3,1.3,0,0,0,.075.255l.012.03c1.858,5.11.523,1.423.941,2.567l.013.011.052.045.1.091c.017.034.109.052.064.1l-.092.135-.187.272-.775,1.129c-.511.712-1.078,1.671-1.327,1.716L115.872,370q-1.871,1.375-3.691,2.711l-.441.322-.219.159c-.071.038-.151.174-.2-.011q-.315-.633-.629-1.259c-.374-.777-.66-1.442-.915-2.1a12.415,12.415,0,0,1-.8-5.012c.021-1.061.16-2.2.287-3.265q.2-1.536.394-3.023.1-.7.2-1.379c.065-.28.13-.558.2-.832q.209-.809.41-1.586c.282-1.031.583-2.01.9-2.93a16.285,16.285,0,0,1,2.293,3.039c.338.564.65,1.148.935,1.737l.208.443.1.221c.033.069.068.071.1.106a1.874,1.874,0,0,0,.38.247c.957.454,1.45-.657,1.127-.121a5.751,5.751,0,0,0-.609,1.338,6.01,6.01,0,0,0-.2.824c-.024.143-.041.288-.053.434l-.015.3c.007.406.246.392.6.142a4.8,4.8,0,0,0,.609-.536,2.019,2.019,0,0,1,.387-.337,1.743,1.743,0,0,1,.254-.134,3.671,3.671,0,0,1,.852-.256,2.593,2.593,0,0,1,1.744.3,2.553,2.553,0,0,1,.689.608,2.449,2.449,0,0,1,.406.728,3.275,3.275,0,0,1,.176,1.018l.006.592c-.016.461-.053.857-.084,1.292a9.333,9.333,0,0,0,.049,2.453,3.445,3.445,0,0,0,.376,1.04.543.543,0,0,0,.44.287c.213-.011.33-.241.415-.418a8.369,8.369,0,0,1,1.3-1.906,7,7,0,0,1,.714-.68,4.2,4.2,0,0,1,.41-.3c.294-.177.594-.341.9-.5l1.9-.962,1.007,2.252c.356.794.654,1.466.9,2.131.126.334.24.668.347,1.024l.155.555c.075-.084.156-.207.241-.3a2.884,2.884,0,0,1,.408-.38,2.016,2.016,0,0,1,.837-.432l.673-.2.1-.027a.548.548,0,0,0,.189-.072,1.993,1.993,0,0,1,1.086-.18,1.626,1.626,0,0,1,1.031.569,1.657,1.657,0,0,1,.311.587,1.576,1.576,0,0,1,.069.365l.031.3.053.572.079,1.028C135.339,371.21,135.356,371.69,135.355,371.932Z" /></g><path d="M268.025,316.51c.321.119.7,1.647,1,3.439.313,1.79.547,3.84.78,4.977a54.274,54.274,0,0,1,.841,12.962c-.217,7.433-2.2,14.555-4.477,18.87-1.034-2.5-1.335-6.647-.8-8a40.388,40.388,0,0,0,2.752-15.2c0-4.548-.523-8.455-.56-11.908A32.109,32.109,0,0,1,268.025,316.51Z" /><path d="M91.385,325.724c.317.16.349,1.427.429,2.881a25.334,25.334,0,0,0,.384,4c.738,3.189,1.3,6.778,2.128,9.963,1.386,5.569,2.916,10.923,3.629,14.844-2.25-.78-4.667-3.555-4.808-4.821-.586-5.031-1.422-9.136-2.106-12.861-.669-3.7-1.191-7-.892-9.89A14.705,14.705,0,0,1,91.385,325.724Z" /><g data-name="default" id="default-2"><path d="M186.478,331.306c-.013.34-.631.823-1.624,1.393-.505.258-1.1.532-1.764.817-.665.267-1.4.515-2.159.782-3.06,1-6.654,1.618-8.648,2.134-7.07,1.884-15.539,1.639-22.981.381a48.621,48.621,0,0,1-18.043-6.638,31.439,31.439,0,0,1-6.693-5.616,19.93,19.93,0,0,1-3.909-6.4c2.466.732,5.173,1.642,7.548,2.4,2.362.779,4.417,1.491,5.256,2.343a33.121,33.121,0,0,0,11.809,7.11,46.9,46.9,0,0,0,12.14,2.554c7.787.621,14.45-.388,20.217-.9,1.369-.177,3.29-.184,5.033-.226S185.945,331.3,186.478,331.306Z" /></g><g class="cls-3"><path d="M225.606,369.615c.129.322-.255,1.121-1.225,1.963a8.868,8.868,0,0,1-4.39,1.924,9.625,9.625,0,0,1-1.432.1c-.483.009-1.012-.053-1.21-.056a1.5,1.5,0,0,0-.784.119,3.52,3.52,0,0,0-.627.448c-1.238.921-2.422,1.829-3.185,2.532-.472.433-.955.864-1.466,1.3l-1.728,1.49-1.682-2.385a9.789,9.789,0,0,1-1.759-5.809l5.638,1.688a16.919,16.919,0,0,1-1.164,2.258,19.379,19.379,0,0,1-2.326,2.873A18.992,18.992,0,0,1,202.6,382c-.978.448-1.952.872-3,1.322l-.8.339-.407.172-.2.086c-.04-.017-.027-.117-.043-.172l-.222-1.574c-.3-2.145-.606-4.269-.9-6.353-.27-1.96-.541-3.915-.806-5.834l8.079,1.391A26.416,26.416,0,0,1,196,382.827c-.221.18-.448.351-.677.518l-.341.251-.48.337a8.738,8.738,0,0,1-2.323,1.084,5.967,5.967,0,0,1-3.7-.019,4.954,4.954,0,0,1-1.15-.581l-.4-.329-.1-.082c-.021-.018-.007-.01-.012-.016l0-.017a.679.679,0,0,1-.016-.165,8.487,8.487,0,0,0,.058-.981c-.02-.2-.152-.378-.209-.328a1.5,1.5,0,0,0-.266.013,4.583,4.583,0,0,0-.625.145l-.4.129-.227.079a1.146,1.146,0,0,0-.307.145,30.443,30.443,0,0,1-3.4,1.734,29.541,29.541,0,0,1,1.153-4.14l.095-.266.164-.326.369-.691c.263-.479.56-.984.884-1.532.647-1.087,1.415-2.323,2.26-3.585.372-.121.768-.2,1.074-.27a2.72,2.72,0,0,1,.957-.1,9.226,9.226,0,0,1,1.785.391,2.9,2.9,0,0,1,1.283.952,4.355,4.355,0,0,1,.65,1.163,3.79,3.79,0,0,1,.223.724l.044.182.021.09c.013.03-.069.06-.1.089l-.486.344-.279.2-.017.012c1.357-2.106-1.87,2.885-1.536,2.369l0,0,0,0,0-.009a.114.114,0,0,0,.013-.029.9.9,0,0,0,.062-.2,2.519,2.519,0,0,0,.043-.351c0-.125,0-.29-.015-.464a5.761,5.761,0,0,0-.231-1.115c-.086-.283-.05-.175-.042-.167l.067.035a1.052,1.052,0,0,0,.433,0c.044.016.229-.093.368-.164l.437-.234a17.54,17.54,0,0,0,3.189-2.3,18.742,18.742,0,0,0,4.449-6.116l3.4.585c-.059,1.2-.064,2.463-.035,3.655l.066,1.728.023.409c0,.03,0,.075.011.093l.095-.042.19-.084c.25-.116.5-.24.729-.378a8.888,8.888,0,0,0,2.328-1.938,7.883,7.883,0,0,0,.772-1.065c.076-.141.314-.5.456-.775.167-.289.306-.588.451-.881l3.981,1.193a5.814,5.814,0,0,0,.811,3.084l-3.25-.853c1.2-.8,2.373-1.558,3.535-2.262l1.858-1.09a4.39,4.39,0,0,1,2.8-.722,7.639,7.639,0,0,1,1.5.307c.335.092.674.186,1.05.254a9.432,9.432,0,0,0,2.415.156A9.96,9.96,0,0,0,225.606,369.615Z" /></g></g><path d="M149.015,147.15c.393-.14,1.863.371,3.852,1.415,2.006,1.009,4.454,2.575,7.305,3.138a18.114,18.114,0,0,0,4.492.333l2.3-.137c.756-.085,1.5-.229,2.22-.337a29.213,29.213,0,0,0,7.148-2.239c6.159-2.808,12.209-7.125,19.412-10.576a45.778,45.778,0,0,1,11.619-3.865,28.547,28.547,0,0,1,12.644.421,26.139,26.139,0,0,1,5.229,1.942,15.654,15.654,0,0,1,4.967,3.839,15.091,15.091,0,0,1,2.883,5.648,21.068,21.068,0,0,1,.7,5.657,38.633,38.633,0,0,1-1.551,9.975,75.259,75.259,0,0,1-3.07,8.679c-1.141,2.725-2.363,5.308-3.535,7.743a41.265,41.265,0,0,1-1.954,3.773c-.7,1.192-1.421,2.317-2.16,3.4a57.7,57.7,0,0,1-4.608,5.989,27.548,27.548,0,0,1-2.558,2.556,13.532,13.532,0,0,1-1.451,1.113l-.829.485c-.335.141-.681.263-1.011.371.256-.224.5-.453.722-.679.195-.239.346-.494.514-.735a13.986,13.986,0,0,0,.813-1.548c.49-1.063.921-2.2,1.364-3.369.872-2.337,1.726-4.841,2.559-7.232.4-1.186.794-2.35,1.171-3.466.175-.537.357-1.088.47-1.528l.219-.764.247-.815a30.455,30.455,0,0,1,1.916-4.919,64.87,64.87,0,0,0,5.637-13.3,26.7,26.7,0,0,0,1.019-6.533,11.719,11.719,0,0,0-1.25-5.79,9.244,9.244,0,0,0-4.176-3.813,22,22,0,0,0-5.744-1.944,22.817,22.817,0,0,0-5.9-.36,20.411,20.411,0,0,0-2.88.407l-1.426.267c-.471.105-.933.251-1.4.374-7.437,2.05-13.667,6.164-20,9.381a54.763,54.763,0,0,1-9.713,4.005,30.61,30.61,0,0,1-9.929,1.337,16.533,16.533,0,0,1-5.3-.776,16.255,16.255,0,0,1-2.75-1.154,20.38,20.38,0,0,1-2.394-1.551c-1.446-1.095-2.644-2.182-3.657-3.025S149.4,147.469,149.015,147.15Z" /><path class="cls-4 color-body" d="M166.915,171.513c-10.667,7.075-24.326,7.3-30.766,4.346,0,0-15.662-5.731-20.006-22.743-2.986-11.693,4.587-23.945,14.6-30.744,8.985-6.1,26.715-8.564,38.762,3.405C185.914,142.077,180.9,162.24,166.915,171.513Z" style="fill:#ffffff;--backup-fill:#ffffff" /><path d="M166.881,171.462a4.97,4.97,0,0,1,1.166-1.379c.33-.337.765-.672,1.187-1.127l1.411-1.494a30.355,30.355,0,0,0,5.842-9.279A25.436,25.436,0,0,0,178.08,145.9a26.122,26.122,0,0,0-3.214-9.564c-.607-.963-1.281-1.9-1.909-2.857-.7-.918-1.487-1.79-2.218-2.7-.766-.884-1.67-1.672-2.492-2.522l-.632-.625-.677-.546-1.346-1.1a26.946,26.946,0,0,0-6.062-3.35,28.83,28.83,0,0,0-3.307-1.093c-.568-.132-1.146-.231-1.716-.351-.287-.055-.57-.124-.859-.17l-.874-.095a28.879,28.879,0,0,0-7.033-.027,29.554,29.554,0,0,0-6.827,1.548,24.777,24.777,0,0,0-6.009,2.985,36.536,36.536,0,0,0-5.177,4.47A30.938,30.938,0,0,0,120.5,141.67a19.773,19.773,0,0,0-1,6.385,20.234,20.234,0,0,0,1.124,6.273,12.58,12.58,0,0,0,.569,1.561c.21.511.4,1.031.618,1.534l.745,1.467.37.732.434.695.858,1.389.966,1.312a13.727,13.727,0,0,0,1.017,1.265c.36.4.678.842,1.067,1.217a34.35,34.35,0,0,0,4.8,4.243,30.817,30.817,0,0,0,2.612,1.744c.441.277.888.515,1.331.763.423.225.931.478,1.236.621l.234.1a17.857,17.857,0,0,0,3.559,1.258,29.123,29.123,0,0,0,3.93.611,37.86,37.86,0,0,0,7.8-.137,41.634,41.634,0,0,0,7.2-1.516,42.109,42.109,0,0,0,6.318-2.619,24.863,24.863,0,0,1-5.6,5.039,31.977,31.977,0,0,1-8.195,3.845c-6.026,1.846-12.7,2.156-17.994.01l.291.12c-.715-.256-1.141-.444-1.636-.664-.473-.213-.895-.433-1.3-.64a18.865,18.865,0,0,1-2.028-1.245,39.745,39.745,0,0,1-13.984-17.279l-.915-2.523c-.269-.845-.462-1.71-.693-2.556a19.234,19.234,0,0,1-.523-2.621,20.464,20.464,0,0,1-.236-2.664,26.277,26.277,0,0,1,1.716-10.1,38.448,38.448,0,0,1,10.994-15.338l1.769-1.441,1.834-1.33c.638-.417,1.3-.811,1.946-1.214l2.011-1.035a35.649,35.649,0,0,1,8.365-2.662,40.186,40.186,0,0,1,4.251-.575,38.106,38.106,0,0,1,4.233-.03,36.623,36.623,0,0,1,4.159.431,34.058,34.058,0,0,1,4.012.991,30.524,30.524,0,0,1,7.352,3.379l1.636,1.138c.268.193.549.371.8.577l.746.644,1.478,1.285c.482.434.886.917,1.329,1.372a35.656,35.656,0,0,1,8.016,12.368,27.782,27.782,0,0,1,1.477,13.842c-.212,1.051-.4,2.21-.744,3.388q-.306.869-.625,1.776-.165.448-.33.905c-.123.3-.283.586-.425.88l-.894,1.757a17.765,17.765,0,0,1-1.056,1.669c-.376.538-.7,1.1-1.117,1.6l-1.236,1.448a27.547,27.547,0,0,1-4.947,4.364,16.993,16.993,0,0,1-2.023,1.253Z" /></g></g></svg>