<svg xmlns="http://www.w3.org/2000/svg" viewBox="0 0 380 600"><defs><style>.cls-1{isolation:isolate;}.cls-2{mix-blend-mode:multiply;}.cls-3{opacity:0.3;}.cls-4{fill:#f2ddc8;}</style></defs><g class="cls-1"><g data-name="arcane art" id="arcane_art"><g id="Jinx"><g id="default"><g class="cls-2"><g class="cls-3"><path d="M155.66,380.36a17.538,17.538,0,0,1-1.108-2.89l-.4-1.223,1.129.748a37.251,37.251,0,0,0,9.292,4.563l-1.013,1.46a44.534,44.534,0,0,1-7.891-12.662L157.679,369a298.681,298.681,0,0,0,24.71,20.216l-2.35,2.27a182.678,182.678,0,0,0-19.467-23.079l2.544-2.983c11.88,8.187,22.738,15.629,30.4,20.731l8.1,5.413-3.576,4.29A355.739,355.739,0,0,0,165.09,368.63l3.628-6.308a128.288,128.288,0,0,1,27.346,15.591c8.5,6.169,16.419,12.981,24.2,19.7l-6.7,5.6a91.8,91.8,0,0,0-16.627-19.369c-6.362-5.8-13.255-11.059-20.165-16.317l5.158-8.084a246.972,246.972,0,0,1,21.387,12.353,238.283,238.283,0,0,1,29.952,22.919l-7.362,7.079a233.823,233.823,0,0,0-39.114-36.94l4.66-8.855a109.164,109.164,0,0,1,27.3,14.126q3.084,2.194,5.979,4.586c1.906,1.578,3.6,3.006,5.4,4.383a39.469,39.469,0,0,0,10.742,6.262l-4.463,7.845c-6.019-5.477-11.525-11.042-17.037-16.2a139.026,139.026,0,0,0-16.8-13.86l3.041-7.109a66.492,66.492,0,0,1,19.592,8.69c5.72,3.66,10.692,7.645,15.516,11.375l-4.194,4.39c-3.411-4.392-6.294-8.587-9.4-11.889a48.388,48.388,0,0,0-10.385-8.15l1.972-4c8.071,3.7,14.559,6.733,20.739,9.655-6.338-1.752-13.8-4.038-21.989-6.715l.851-1.724a48.674,48.674,0,0,1,12.544,7.9c3.864,3.477,7.1,7.392,10.478,11.036l-4.282,4.482c-5.832-3.769-11.5-7.583-17.1-10.493a62.208,62.208,0,0,0-16.38-5.974l3.795-8.872A114.63,114.63,0,0,1,226.72,371.08c5.475,5.378,10.641,10.748,15.607,15.444l-4.169,7.328c-5.532-1.975-9.849-5.14-13.831-8.3q-1.488-1.2-2.905-2.416l-2.746-2.351c-1.8-1.5-3.634-2.946-5.522-4.311a99.873,99.873,0,0,0-24.3-12.924l2.7-5.125A245.065,245.065,0,0,1,231.526,397.1l-3.162,3.04a229.57,229.57,0,0,0-49.558-34.68l2.11-3.308c7.291,5.612,14.507,11.19,21.108,17.32a97.459,97.459,0,0,1,17.169,20.344l-3.269,2.732c-8.077-7.027-15.984-13.83-24.172-19.784A123.49,123.49,0,0,0,166.3,368.09l2.562-4.455a327.892,327.892,0,0,1,33.136,28.2l-3.617,4.339q-19.827-13.888-37.988-26.882l3.572-4.189q5.217,5.43,9.83,11.138c2.859,3.5,5.951,7.572,9.546,12.954l-3.351,3.239a250.365,250.365,0,0,1-24-21.631l2-1.347a45.5,45.5,0,0,0,6.734,12.6l1.3,1.7-1.934-.781a32.021,32.021,0,0,1-9.112-5.563l.1-.066C155.356,378.83,155.529,379.7,155.66,380.36Z"></path></g></g><circle class="cls-4" cx="262.6" cy="247.349" r="41.5" style=""></circle><path d="M221.053,248.423a8.149,8.149,0,0,1-.356-2.376c-.029-.644-.115-1.408-.077-2.264l.211-2.853a40.375,40.375,0,0,1,4.765-14.854,43.55,43.55,0,0,1,11.88-13.693,44.9,44.9,0,0,1,13.352-6.855,41.84,41.84,0,0,1,20.922-1.461l2.7.543c.891.222,1.764.523,2.65.786a42.152,42.152,0,0,1,5.2,2c.868.348,1.656.86,2.489,1.288a24.962,24.962,0,0,1,2.435,1.41,41.536,41.536,0,0,1,4.558,3.339,44.279,44.279,0,0,1,7.747,8.276,43.52,43.52,0,0,1,2.991,4.841c.432.845.919,1.663,1.3,2.532l1.079,2.628c.17.442.376.871.515,1.322l.407,1.358.8,2.714q.267,1.386.532,2.768a20.16,20.16,0,0,1,.416,2.775,39.841,39.841,0,0,1,.28,5.567c-.019.925-.011,1.85-.06,2.769l-.314,2.739A44.544,44.544,0,0,1,253.43,291.4a43.22,43.22,0,0,1-26.081-17.661,43.69,43.69,0,0,1-5.962-12.779,44.409,44.409,0,0,1-1.411-12.5,64.34,64.34,0,0,0,4.3,11.592,47.134,47.134,0,0,0,7.86,11.032,44.245,44.245,0,0,0,9.638,7.63,25.83,25.83,0,0,0,2.3,1.265,23.376,23.376,0,0,0,2.113,1.078q1.026.446,1.9.867l.835.408.784.309c1,.389,1.972.864,2.992,1.191l3.082.916c1.044.219,2.1.4,3.148.6.264.047.526.105.79.143l.8.062,1.594.126a37.184,37.184,0,0,0,12.553-1.274,39.67,39.67,0,0,0,11.216-5.267,38.383,38.383,0,0,0,8.761-8.389c.576-.82,1.229-1.586,1.739-2.442s1.017-1.71,1.522-2.561c.484-.862.851-1.78,1.282-2.663.2-.449.433-.884.6-1.342l.482-1.384.48-1.379a8.771,8.771,0,0,0,.413-1.394q.336-1.413.67-2.816c.2-.939.27-1.9.412-2.842l.186-1.417c.032-.474.03-.949.047-1.422q.035-1.421.069-2.83-.108-1.406-.215-2.8c-.044-.464-.052-.931-.125-1.389l-.249-1.367c-.18-.906-.3-1.823-.525-2.71a40.272,40.272,0,0,0-1.693-5.177l-.5-1.25a8.292,8.292,0,0,0-.557-1.22l-1.239-2.364a38.938,38.938,0,0,0-6.317-8.271,40.338,40.338,0,0,0-3.784-3.387c-.648-.533-1.37-.964-2.045-1.448a18.964,18.964,0,0,0-2.087-1.342,39.725,39.725,0,0,0-18.064-5.451,41.039,41.039,0,0,0-17.324,2.936,41.866,41.866,0,0,0-13.715,9.048l-2.776,3.043q-.674.868-1.377,1.777a17.089,17.089,0,0,0-1.374,1.886c-.433.662-.87,1.332-1.308,2-.467.661-.774,1.409-1.174,2.11-.362.719-.8,1.409-1.1,2.146l-.917,2.188-.454,1.074-.34,1.087-.66,2.1a15.287,15.287,0,0,0-.493,2c-.138.649-.269,1.268-.393,1.852l-.184.854-.093.807c-.059.52-.114,1-.164,1.432Z"></path><path class="cls-4" d="M92.419,221.215c30.973-29.132,89.937-36.088,118.407-30.692s54.8,18.629,70.044,38.774c8.322,11,21.471,49.746,21.864,61.624.439,13.25-3.668,29.984-10.894,40.789-14.577,21.8-35.9,33.044-60.878,38.693-40.221,9.095-79.109,7.852-116.616-10.365C52.5,330,56.5,255,92.419,221.215Z" style=""></path><path d="M92.461,221.26a16.849,16.849,0,0,1-1.309,1.626c-.664.788-1.62,1.742-2.624,3.04l-1.689,2.058c-.612.733-1.181,1.588-1.835,2.451-1.328,1.713-2.606,3.77-4.027,5.973A89.44,89.44,0,0,0,73.238,252.6a91.573,91.573,0,0,0-4.689,43.224,79.778,79.778,0,0,0,5.971,21.441,77.178,77.178,0,0,0,10.4,17.274,75.371,75.371,0,0,0,11.542,11.6,94.138,94.138,0,0,0,21.347,12.827,150.88,150.88,0,0,0,24.338,8.6,165.439,165.439,0,0,0,52.469,4.774,204.067,204.067,0,0,0,26.544-3.471c2.2-.37,4.374-.919,6.561-1.368s4.333-1,6.476-1.53a128.639,128.639,0,0,0,12.544-3.976,92.766,92.766,0,0,0,22.675-12.161,76.339,76.339,0,0,0,9.52-8.3c1.515-1.45,2.822-3.09,4.222-4.631,1.265-1.659,2.638-3.223,3.784-4.957l1.565-2.225c.481-.743.93-1.47,1.384-2.217.865-1.522,1.683-3.083,2.412-4.7a70.115,70.115,0,0,0,3.633-10.094,74.37,74.37,0,0,0,2.815-21.161,53.961,53.961,0,0,0-1.7-10.249c-.823-3.527-1.861-7.054-2.9-10.557-2.136-7-4.573-13.914-7.253-20.627l-1.011-2.513-1.064-2.473c-.689-1.663-1.464-3.253-2.2-4.868a57.276,57.276,0,0,0-5.027-8.792,81.313,81.313,0,0,0-14.5-14.56c-10.807-8.473-23.274-14.482-35.95-18.627a149.762,149.762,0,0,0-19.152-4.854,120.416,120.416,0,0,0-19.124-1.455,186.971,186.971,0,0,0-36.776,3.692,160.072,160.072,0,0,0-32.674,10.092,100.216,100.216,0,0,0-26.215,16.3,78.076,78.076,0,0,1,10.736-9.926,103.682,103.682,0,0,1,14.294-9.166,148.987,148.987,0,0,1,34.765-13.019,173.184,173.184,0,0,1,34.9-4.9,122.678,122.678,0,0,1,14.689.34l3.2.334,2.985.42,2.749.5,2.415.547a145.6,145.6,0,0,1,34.836,12.647,102.819,102.819,0,0,1,28.744,21.63,78.576,78.576,0,0,1,5.63,6.919l1.273,1.927c.386.647.734,1.3,1.1,1.944.758,1.289,1.364,2.605,2.021,3.907,2.526,5.232,4.629,10.522,6.593,15.814,1.946,5.3,3.743,10.592,5.331,15.913s3.036,10.641,4.1,16.072c.3,1.34.451,2.752.68,4.121a38.755,38.755,0,0,1,.239,4.243,68.186,68.186,0,0,1-.47,8.221,84.873,84.873,0,0,1-3.37,15.831,65.986,65.986,0,0,1-6.5,14.613,86.985,86.985,0,0,1-9.581,12.408,88.787,88.787,0,0,1-11.461,10.293,90.051,90.051,0,0,1-12.855,8,103.371,103.371,0,0,1-13.654,5.881,133.166,133.166,0,0,1-14,4.109c-18.693,4.386-37.327,6.594-55.385,5.953A158.416,158.416,0,0,1,126,367.378c-1.963-.786-3.935-1.531-5.868-2.343l-5.707-2.581c-.954-.405-1.875-.909-2.8-1.389l-2.771-1.445c-.933-.46-1.823-1-2.7-1.541l-2.652-1.611a86.6,86.6,0,0,1-18.583-15.7,81.276,81.276,0,0,1-19.3-41.477,85.361,85.361,0,0,1-.411-24q.212-1.611.424-3.237c.178-1.077.394-2.152.592-3.23.351-2.166.959-4.287,1.458-6.418a92.02,92.02,0,0,1,4.241-12.192,90.246,90.246,0,0,1,5.434-10.7c1.02-1.592,1.982-3.14,2.97-4.573,1.043-1.4,1.975-2.773,2.966-3.988,1.007-1.2,1.92-2.355,2.824-3.375l2.569-2.733C90.279,223.24,91.614,222.067,92.461,221.26Z"></path><path class="cls-4" d="M128.845,239.577a41.5,41.5,0,1,0-32.728,65.571" style=""></path><path d="M96.118,305.209a3.731,3.731,0,0,1-1.554.376,22.726,22.726,0,0,1-3.363.17A37.055,37.055,0,0,1,81.084,304l-1.42-.433c-.477-.145-.926-.37-1.394-.554-.926-.391-1.869-.768-2.793-1.181a47.989,47.989,0,0,1-5.162-2.977,51.684,51.684,0,0,1-7.666-6.218,42.262,42.262,0,0,1-8.141-11.2,41.8,41.8,0,0,1-4.042-14.02,44.373,44.373,0,0,1,6.454-28.331A47.264,47.264,0,0,1,65,229.514c.781-.69,1.618-1.312,2.427-1.963l1.225-.96,1.3-.842c.876-.55,1.728-1.136,2.622-1.641q1.377-.7,2.744-1.393a23.481,23.481,0,0,1,2.81-1.195c.956-.342,1.877-.773,2.853-1.026a42.217,42.217,0,0,1,5.828-1.347c.978-.136,1.941-.351,2.916-.409l2.91-.155c.482-.017.961-.062,1.441-.053l1.433.046c.953.013,1.9.1,2.833.2a41.889,41.889,0,0,1,19.626,7.27,39.727,39.727,0,0,1,11.795,12.867c-2.035-1.382-4.381-3.027-6.952-4.536a57.249,57.249,0,0,0-8.075-3.978c-5.477-2.193-10.684-3.063-13.387-3.8a35.816,35.816,0,0,0-16.6-.492,36.415,36.415,0,0,0-14.574,6.64,37.462,37.462,0,0,0-10.015,11.482,38.106,38.106,0,0,0-4.54,13.583l-.193,1.724a11.447,11.447,0,0,0-.124,1.712l-.025,3.394q.161,1.674.317,3.32l.083.819.163.8q.16.8.322,1.6a39.307,39.307,0,0,0,4.471,11.605,44.686,44.686,0,0,0,7.14,9.115c.664.656,1.395,1.23,2.075,1.847l1.032.905,1.1.8c.737.522,1.43,1.1,2.177,1.578l2.254,1.389a56.3,56.3,0,0,0,10.943,4.9c.972.356,1.953.511,2.86.766a20.358,20.358,0,0,0,2.543.562Z"></path><g class="cls-2"><g class="cls-3"><path d="M63.436,266.793a1.6,1.6,0,0,1,1.167.876,2.343,2.343,0,0,1,.268,1.449,2.734,2.734,0,0,1-.9,1.65l-.083-.751a4.115,4.115,0,0,0,1.717.381,3.478,3.478,0,0,0,1.246.475,3.319,3.319,0,0,0,.6.049c.1,0,.2-.006.293-.014l.144-.017.072-.009.036,0-.031.016a2.411,2.411,0,0,0-1.4,1.88,2.927,2.927,0,0,0-1.039,1.52,2.757,2.757,0,0,0-.092,1.233l-.642-.618a12.739,12.739,0,0,0,1.57.044,11.221,11.221,0,0,0,2.271-.3,3.574,3.574,0,0,0,1.235.336,3.623,3.623,0,0,0,.519.006c.085,0,.163-.014.243-.02l.059-.007c.015,0-.019.024-.026.034l-.08.079a2.246,2.246,0,0,0-.561,2.065l-.376.482a3.94,3.94,0,0,0-.231.451l-.106.222a1.1,1.1,0,0,0-.049.143,1.143,1.143,0,0,0-.033.116l-.035.172a2.613,2.613,0,0,0-.017.657,1.976,1.976,0,0,0,.138.552,1.4,1.4,0,0,0,.112.226c.023.029.034.081.067.088l.126-.043.009,0c.3-.1.57-.2.825-.307l.188-.077.105-.043.2-.072.8-.3c1.063-.42,2.146-.9,3.261-1.467l1.575,2.246a15.315,15.315,0,0,0-1.065,1.319c-.17.233-.329.478-.487.725l-.228.379-.073.153a2.607,2.607,0,0,0-.245.993c-.064.152.194.108.314.083a1.035,1.035,0,0,0,.386-.172,1.892,1.892,0,0,0,.287-.241c.119-.115.077-.09.633-.609a24.1,24.1,0,0,1,2.954-2.519,6.407,6.407,0,0,1,.993-.579,5.929,5.929,0,0,1,2.557-.65,8.162,8.162,0,0,1,1.418.179l3.151.549-2.24,2.608a13.49,13.49,0,0,0-2.3,3.725c-.093.236-.051.135-.065.182l-.007.046a.543.543,0,0,0,0,.078.25.25,0,0,0,.025.109c.022.038.122-.041.14-.074a.3.3,0,0,0,.041-.083l0-.015c.007-.011-.014.017.017-.027l.175-.246.742-1.015a12.672,12.672,0,0,1,2-2.11,7.294,7.294,0,0,1,3.115-1.416l4.525-.838-2.27,4.062q-.653,1.167-1.222,2.358c-.19.4-.375.794-.548,1.194l-.193.438c-.006,0-.024.017-.058.08-.052.111.031.135.16.031.025-.027-.018.031.061-.064l.323-.409.684-.83a16.1,16.1,0,0,1,1.6-1.626,7.905,7.905,0,0,1,4.5-1.969l4.222-.3-2.533,3.25a13.49,13.49,0,0,0-2.324,4.437,10.706,10.706,0,0,0-.27,1.1c-.048.206-.064.241-.09.382a2.394,2.394,0,0,0-.045.77,6.036,6.036,0,0,0,2.279-.882,17.839,17.839,0,0,0,3.29-2.245,13.136,13.136,0,0,0,3.947-5.585,11.6,11.6,0,0,1-2.867,7.221,17.219,17.219,0,0,1-3.425,3.184c-.343.226-.622.428-1.024.669l-1.677.838c-1.128.464-2.319.924-3.549,1.376a25.324,25.324,0,0,1-.6-4.738c.018-.423.008-.844.062-1.265l.047-.449c.01-.126.033-.247.05-.369a13.348,13.348,0,0,1,.278-1.4,12.879,12.879,0,0,1,1.8-4.066c.332-.477.684-.932.989-1.3l1.856,3.241a4.224,4.224,0,0,0-2.71,1.168,12.457,12.457,0,0,0-1.319,1.328c-.229.255-.411.475-.682.8l-1.117,1.36c-.371.423-.745.789-1.107,1.177-.362.328-.717.609-1.067.911l-1,.641c-.328.15-.649.332-.971.458-.632.211-1.29.409-2.02.582l-.571.125-.282.061c-.045.009-.1.024-.136.027l-.048-.038c-.13-.1-.24-.214-.394-.315.35-1.386.676-2.655,1.049-3.94a39.173,39.173,0,0,1,1.364-3.867l.388-.9.295-.637q.309-.624.609-1.233c.414-.806.841-1.58,1.274-2.319l.98,1.4a4.2,4.2,0,0,0-2.36,1.328,12.323,12.323,0,0,0-1,1.16l-1.046,1.388a8.317,8.317,0,0,1-2.922,2.668,4.318,4.318,0,0,1-1.652.434,7.942,7.942,0,0,1-.89.017c-.068-.006-.165.012-.209-.014l-.089-.117-.176-.232a19.147,19.147,0,0,1,.159-3.2,15.694,15.694,0,0,1,.368-1.661l.275-.831.282-.713a16.633,16.633,0,0,1,2.768-4.349l.414,1.434a3.356,3.356,0,0,0-2.728.726,24.669,24.669,0,0,0-2.619,2.247l-.328.305-.443.383a9.778,9.778,0,0,1-.958.764,7.269,7.269,0,0,1-1.991,1.083,3.734,3.734,0,0,1-.982.236l-.487.059-.49-.032a6.139,6.139,0,0,1-1.011-.142c-.432-.018-.487-.233-.64-.4.144-.89.285-1.708.511-2.571a12.743,12.743,0,0,1,1.056-2.651l.363-.642c.124-.217.2-.32.3-.485.195-.3.4-.591.61-.87a16.655,16.655,0,0,1,1.359-1.588l1.312,1.872a36.1,36.1,0,0,1-8.1,2.752,1.861,1.861,0,0,1-.227-.219l-.168-.386c-.115-.259-.207-.508-.306-.763a5.737,5.737,0,0,1-.349-1.622,6.146,6.146,0,0,1,.147-1.77l.047-.18c.046-.181,0,0,.009-.032l.042-.119a2.261,2.261,0,0,1,.1-.233,3.044,3.044,0,0,1,.817-1.011c.182-.125-.018-.043-.107-.026l-.32.07a5.866,5.866,0,0,1-.662.085c-.157.013-.318.016-.482.016a13.533,13.533,0,0,1-1.92-.145l-.836-.144-.084-.742a4.443,4.443,0,0,1,.344-2.235c.067-.14.152-.33.2-.41s.095-.149.14-.206a2.422,2.422,0,0,1,.257-.282,5.211,5.211,0,0,1,1.946-1.281c.071-.028,0-.009-.022-.007l-.09.014-.181.021c-.12.011-.24.015-.356.015a3.612,3.612,0,0,1-.641-.06c-.372-.068-.609-.175-.545-.2a4.234,4.234,0,0,1-.9-.356,2.618,2.618,0,0,1-.263-.157h0l-.046-.422h0l0,0,.006,0,.011,0a.022.022,0,0,1,.012,0,.017.017,0,0,1,0,.012l-.007.011,0,.007,0,0v0h0l.041.375-.041-.375a2.179,2.179,0,0,0,.85-1.384,1.966,1.966,0,0,0-.148-1.14A2.231,2.231,0,0,0,63.436,266.793Z"></path></g></g><g data-name="default" id="default-2"><path d="M205.637,331.424c.1-.684,1.6-1.138,3.271-1.7a20.319,20.319,0,0,0,4.506-1.942,36.758,36.758,0,0,1,5.59-3.246,39.4,39.4,0,0,1,6.527-2.393,27.2,27.2,0,0,1,5.8-.85,26.436,26.436,0,0,1,5.638.233,13.574,13.574,0,0,1,5.429,2.049,8.533,8.533,0,0,1,3.169,3.823c-1.047.2-2.062.387-2.97.624a20.325,20.325,0,0,0-2.368.8c-1.312.538-2.25.9-2.8.54-2.214-1.413-5.242-1.747-7.795-1.843a18.556,18.556,0,0,0-6.906,1.24c-2.109.766-4.038,1.713-5.939,2.482a18.987,18.987,0,0,1-5.63,1.506,8.53,8.53,0,0,1-3.219-.411A13.919,13.919,0,0,1,205.637,331.424Z"></path></g><path class="cls-4" d="M73.518,127.339c12.476-3.489,25.255.348,30.172,5.037a31.64,31.64,0,0,1,10.369,27.315c-1.456,11.879-12.928,21.153-24.7,24.576-10.559,3.07-27.932.13-34.8-14.7C45.207,149.381,57.167,131.912,73.518,127.339Z" style=""></path><path d="M73.536,127.4a4.666,4.666,0,0,1-1.514.968c-.415.216-.921.414-1.465.7l-1.789.974a33.674,33.674,0,0,0-8.564,6.73A27.236,27.236,0,0,0,54.2,147.5q-.2.711-.4,1.4c-.088.471-.15.941-.224,1.4a15.117,15.117,0,0,0-.288,2.646c-.01.849-.071,1.65-.031,2.4l.231,2.069a31.244,31.244,0,0,0,1.706,6.561,26.052,26.052,0,0,0,1.371,3.188,14.552,14.552,0,0,0,.767,1.553l.871,1.451a10.405,10.405,0,0,0,.968,1.381c.351.439.653.916,1.035,1.329a23.681,23.681,0,0,0,2.4,2.363,24.32,24.32,0,0,0,2.7,2.036c.474.307.987.562,1.475.849.248.138.489.287.741.417l.783.35a26.725,26.725,0,0,0,6.545,2.086,28.515,28.515,0,0,0,6.855.523,25.862,25.862,0,0,0,6.538-1.041,40.025,40.025,0,0,0,6.269-2.609,34.9,34.9,0,0,0,10.809-8.614,23.445,23.445,0,0,0,3.332-5.536,19.372,19.372,0,0,0,.967-2.941l.284-1.5c.062-.531.094-1.09.147-1.632a27.81,27.81,0,0,0-.186-6.451,30.575,30.575,0,0,0-1.657-6.107,32.384,32.384,0,0,0-2.911-5.522,28.991,28.991,0,0,0-1.815-2.468c-.315-.4-.645-.767-.973-1.134-.311-.343-.707-.742-.92-.955l-.214-.187a15.456,15.456,0,0,0-2.838-2.216,26.063,26.063,0,0,0-3.452-1.742,36.089,36.089,0,0,0-7.32-2.174,42.125,42.125,0,0,0-7.2-.71,43.818,43.818,0,0,0-6.719.533,25,25,0,0,1,6.726-3.195,31.831,31.831,0,0,1,8.842-1.33,31.457,31.457,0,0,1,9.245,1.235,21.041,21.041,0,0,1,7.923,4.136l-.267-.233c.642.508.99.834,1.411,1.223.386.375.743.733,1.065,1.083a17.182,17.182,0,0,1,1.548,1.936,36.432,36.432,0,0,1,6.586,21.261,40.487,40.487,0,0,1-.452,5.286c-.18.883-.368,1.77-.584,2.634-.288.845-.523,1.7-.858,2.515a29.368,29.368,0,0,1-5.412,8.579,42.474,42.474,0,0,1-15.38,10.64l-2.11.809-2.136.689c-.724.207-1.471.373-2.2.559-.738.148-1.477.253-2.211.38a36.033,36.033,0,0,1-8.721.071,40.515,40.515,0,0,1-4.209-.7,36.954,36.954,0,0,1-4.031-1.24,33.908,33.908,0,0,1-3.819-1.682,30.871,30.871,0,0,1-3.493-2.209,27.806,27.806,0,0,1-9.6-12.472,33.294,33.294,0,0,1-2.711-14.45,28.289,28.289,0,0,1,3.984-13.239,20.582,20.582,0,0,1,1.937-2.831,22.248,22.248,0,0,1,2.556-2.782c.474-.439.944-.89,1.435-1.317l1.57-1.167a26.5,26.5,0,0,1,3.228-2.025,12.37,12.37,0,0,1,1.621-.8l1.566-.687c1.017-.421,2.021-.675,2.877-.962A7.8,7.8,0,0,1,71,127.891l1.066-.212Z"></path><path d="M178.087,203.847c-.621-.134-2.223-1.948-3.9-5.079a43.892,43.892,0,0,1-4.242-12.585,51.306,51.306,0,0,1-.3-15.473,59.693,59.693,0,0,1,3.1-12.477c1.9-5.425,4.576-10.49,6.293-15.481a45.579,45.579,0,0,0,2.709-15.416,31.263,31.263,0,0,0-.942-7.462,25.2,25.2,0,0,0-2.706-6.652,24.807,24.807,0,0,0-4.325-5.468,20.182,20.182,0,0,0-5.407-3.614c-6.519-2.994-14.971-1.232-21.685,3.074-6.824,4.341-12.381,11.161-17.508,18.115-2.583,3.5-5.153,7.116-7.975,10.532a57.255,57.255,0,0,1-9.371,9.254,35.034,35.034,0,0,1-11.056,5.74,24.487,24.487,0,0,1-11.213.764A32.249,32.249,0,0,0,99,146.375a41.8,41.8,0,0,0,7.6-8.1c2.121-2.931,3.926-6,5.562-8.711a53.58,53.58,0,0,1,4.4-6.589c5.132-6.11,10.329-12.537,16.4-17.791a53.59,53.59,0,0,1,9.789-6.851,40.453,40.453,0,0,1,10.939-3.986,31.014,31.014,0,0,1,11.37-.228,26.646,26.646,0,0,1,10.262,4.129,31.108,31.108,0,0,1,7.612,7.328,33.847,33.847,0,0,1,4.778,8.989,40.663,40.663,0,0,1,1.613,19.07,56.445,56.445,0,0,1-5.342,16.887c-2.425,5.026-4.962,9.45-6.487,13.831a51.261,51.261,0,0,0-2.841,13.251c-.08,2.088-.281,4.577-.192,7.2a57.468,57.468,0,0,0,.675,7.972A58.175,58.175,0,0,0,178.087,203.847Z"></path></g></g></g></g></svg>