<svg xmlns="http://www.w3.org/2000/svg" viewBox="0 0 380 600"><defs transform="matrix(-1, 0, 0, 1, 380, 0)"><style>.cls-1{isolation:isolate;}.cls-2{mix-blend-mode:multiply;}.cls-3{opacity:0.3;}.cls-4{fill:#ffffff;}.cls-5{fill:#ffd635;}</style></defs><g class="cls-1" transform="matrix(-1, 0, 0, 1, 380, 0)"><g id="outfits_2"><g id="default"><g class="cls-2"><g class="cls-3"><path d="M224.188,380.323a17.531,17.531,0,0,1,.364-3.074l.731.475a30.292,30.292,0,0,1-9.242,5.569l-3.132,1.217,2.12-2.677a45.6,45.6,0,0,0,6.987-12.38l2.008,1.356a269.235,269.235,0,0,1-24.432,21.059l-2.349-2.27a187.329,187.329,0,0,1,19.366-23.939l2.544,2.983c-11.7,8.445-22.351,16.177-29.729,21.686l-7.818,5.82-3.576-4.29A316.911,316.911,0,0,1,210.5,362.775l3.627,6.308a124.839,124.839,0,0,0-25.3,15.4c-8,6.1-15.605,12.909-23.254,19.764l-6.7-5.6a99.706,99.706,0,0,1,17.894-21.607c6.683-6.269,13.728-11.783,20.582-17.143l5.158,8.085A235.9,235.9,0,0,0,182.122,380.1,241.01,241.01,0,0,0,153.6,402.306l-7.362-7.078a231.576,231.576,0,0,1,40.948-38.515l4.66,8.855a101.922,101.922,0,0,0-24.979,12.555q-2.84,1.954-5.512,4.084c-1.8,1.436-3.771,3.038-5.759,4.5a47.694,47.694,0,0,1-13.657,7.436l-4.463-7.845c11.764-10.238,22.674-21.628,35.684-29.744l3.041,7.109a60.622,60.622,0,0,0-17.75,7.07c-5.436,3.144-10.5,6.8-15.543,10.292l-4.194-4.389c3.529-4.12,6.644-8.228,10.391-11.8a51.638,51.638,0,0,1,11.956-8.275l1.972,4c-8.26,3.248-14.949,5.814-21.341,8.239,5.66-3.35,12.481-7.137,20.091-11.179l.851,1.724a50.694,50.694,0,0,0-10.455,9.186c-3,3.609-5.674,7.868-8.654,12l-4.282-4.481A169.635,169.635,0,0,1,155.8,363.317a64.108,64.108,0,0,1,18.36-8.236l3.8,8.872c-7.646,5.347-13.606,10.916-17.883,14.532-5.667,4.85-11.221,9.935-16.68,14.485l-4.169-7.328c3.945-1.113,7.937-3.556,11.724-6.28q1.43-1.027,2.844-2.122l2.917-2.251c2.01-1.513,4.052-2.964,6.138-4.327a110.57,110.57,0,0,1,26.392-12.651l2.7,5.126a220.877,220.877,0,0,0-40.087,36.782l-3.162-3.04a250.624,250.624,0,0,1,50.691-34.915l2.111,3.308c-7.279,5.614-14.368,11.155-20.741,17.163a91.762,91.762,0,0,0-16.25,19.608l-3.269-2.732c8-7.124,15.9-14.124,24.2-20.353A128.236,128.236,0,0,1,211.7,363.315l2.562,4.455a342.436,342.436,0,0,0-32.287,28.112l-3.617-4.339q19.736-14.019,38.068-26.769l3.573,4.19q-5.144,5.192-9.769,10.619c-2.827,3.36-5.972,7.21-9.689,12.307l-3.351-3.238c8.34-5.872,17.473-12.986,25.137-19.645l2,1.347a44.739,44.739,0,0,1-8.144,12.446l-.639-.922a34.648,34.648,0,0,0,9.422-4.569l.151-.1-.05.169C224.632,378.827,224.379,379.679,224.188,380.323Z" /></g></g><circle class="cls-4 color-body" cx="117.4" cy="247.349" r="41.5" style="fill:#ffffff;--backup-fill:#ffffff" /><path d="M158.825,248.42a8.449,8.449,0,0,1-.471-2.344c-.091-.626-.116-1.364-.256-2.186s-.313-1.73-.492-2.722a43.484,43.484,0,0,0-5.325-13.869A40.722,40.722,0,0,0,140.7,214.914a35.678,35.678,0,0,0-12.6-5.56c-11.993-2.892-26.033.254-35.586,9.06a38.693,38.693,0,0,0-6.339,7.258,37.468,37.468,0,0,0-2.4,4.161c-.34.722-.74,1.416-1.035,2.155L81.9,234.22c-.133.373-.3.734-.407,1.116l-.306,1.148-.621,2.283-.381,2.327a15.221,15.221,0,0,0-.294,2.326,32.615,32.615,0,0,0-.124,4.651c.036.771.04,1.541.1,2.3q.16,1.138.319,2.268a38.288,38.288,0,0,0,30.259,31.7,39.086,39.086,0,0,0,38.11-13.682,42.693,42.693,0,0,0,6.443-10.9,46.7,46.7,0,0,0,2.756-11.369,34.035,34.035,0,0,1,.113,12.359,39.343,39.343,0,0,1-15.392,24.335,24.621,24.621,0,0,1-2.643,1.739,21.563,21.563,0,0,1-2.509,1.406c-.821.38-1.6.726-2.318,1.033-.361.152-.7.3-1.04.427l-.983.286c-1.259.328-2.485.734-3.744.982l-3.77.659c-1.261.126-2.522.2-3.768.3-.312.021-.622.052-.933.064l-.936-.019-1.861-.041a45.63,45.63,0,0,1-14.191-2.723,47.231,47.231,0,0,1-12.124-6.708,44.814,44.814,0,0,1-9.179-9.643c-.6-.915-1.27-1.775-1.8-2.722L79.107,267.3c-.5-.95-.876-1.955-1.316-2.923-.2-.491-.442-.967-.617-1.467l-.493-1.508-.49-1.5a10.382,10.382,0,0,1-.42-1.513l-.678-3.05c-.2-1.016-.273-2.051-.415-3.069l-.185-1.528c-.031-.51-.029-1.022-.045-1.531l-.061-3.045q.115-1.512.229-3.012c.047-.5.058-1,.134-1.5l.26-1.473c.187-.977.314-1.964.551-2.922a45.06,45.06,0,0,1,1.767-5.6l.528-1.357a9.688,9.688,0,0,1,.583-1.327l1.3-2.575a43.31,43.31,0,0,1,6.659-9.1,44.587,44.587,0,0,1,4.027-3.784c.692-.6,1.462-1.092,2.186-1.639a22.078,22.078,0,0,1,2.241-1.527,42.854,42.854,0,0,1,39.009-3.467,41.63,41.63,0,0,1,14.972,10.365c.924,1.05,1.892,2.235,2.873,3.5l1.344,2.063a17.753,17.753,0,0,1,1.285,2.19q.577,1.146,1.163,2.311a24.962,24.962,0,0,1,.978,2.405c.289.815.644,1.6.864,2.419l.64,2.431q.153.6.3,1.181.095.6.187,1.183c.117.776.232,1.532.343,2.263a15.579,15.579,0,0,1,.174,2.121l.085,1.934.036.883-.048.828c-.034.528-.065,1.016-.093,1.455C158.906,247.281,158.857,247.966,158.825,248.42Z" /><path class="cls-4 color-body" d="M287.581,221.215c-30.973-29.132-89.937-36.088-118.407-30.692S114.37,209.152,99.13,229.3c-8.322,11-21.471,49.746-21.864,61.624-.439,13.25,3.668,29.984,10.894,40.789,14.577,21.8,35.9,33.044,60.878,38.693,40.221,9.095,79.109,7.852,116.616-10.365C327.5,330,323.5,255,287.581,221.215Z" style="fill:#ffffff;--backup-fill:#ffffff" /><path d="M287.623,221.171a16.489,16.489,0,0,1,1.623,1.316,35.546,35.546,0,0,1,2.933,2.8l1.845,1.972c.664.708,1.285,1.541,1.991,2.387,1.434,1.679,2.817,3.714,4.343,5.911a90.079,90.079,0,0,1,13.7,37.338,93.027,93.027,0,0,1,.154,23.28,83.254,83.254,0,0,1-5.863,22.3,82.415,82.415,0,0,1-10.514,18.208A84.958,84.958,0,0,1,286.1,349.17a95.87,95.87,0,0,1-21.867,14.177,150.842,150.842,0,0,1-24.909,9.563,167.046,167.046,0,0,1-54.31,5.989,206.545,206.545,0,0,1-27.448-3.211c-2.275-.357-4.51-.891-6.766-1.328s-4.5-.983-6.757-1.518a134.466,134.466,0,0,1-13.305-4.065,99.746,99.746,0,0,1-24.59-12.906,83.866,83.866,0,0,1-10.5-9c-1.672-1.581-3.127-3.355-4.671-5.037-1.405-1.795-2.917-3.507-4.188-5.382l-1.728-2.416c-.558-.842-1.115-1.725-1.649-2.594-1.026-1.766-1.978-3.558-2.817-5.386a77.1,77.1,0,0,1-4.124-11.219,81.288,81.288,0,0,1-3.2-23.5c0-.994.149-2.126.227-3.181.126-1.034.3-2,.458-3s.383-1.926.572-2.892.406-1.907.642-2.836c.877-3.762,1.948-7.4,3.031-11.034q3.323-10.86,7.535-21.264l1.06-2.6,1.125-2.583c.725-1.724,1.561-3.426,2.357-5.131a63.42,63.42,0,0,1,5.911-10.1,87.973,87.973,0,0,1,16.04-15.844,122.05,122.05,0,0,1,38.5-19.32,152.393,152.393,0,0,1,20.24-4.714,123.976,123.976,0,0,1,20.221-1.086A184.925,184.925,0,0,1,229,190.646,157.307,157.307,0,0,1,262.2,202.291a99.359,99.359,0,0,1,26.165,18.1A112.042,112.042,0,0,0,260.821,205a171.791,171.791,0,0,0-34.966-9.491A205.13,205.13,0,0,0,192,192.7c-5.077.014-9.754.248-13.855.636l-2.966.315-2.735.359-2.489.394-2.309.432a133.625,133.625,0,0,0-33.619,10.584A94.835,94.835,0,0,0,106.177,224.9a72.633,72.633,0,0,0-5.435,6.293L99.6,232.82c-.362.57-.7,1.171-1.056,1.755-.724,1.151-1.343,2.409-2,3.626-2.546,4.943-4.743,10.1-6.783,15.25s-3.9,10.356-5.561,15.565-3.165,10.426-4.262,15.627c-.314,1.3-.46,2.587-.7,3.878a34.986,34.986,0,0,0-.263,3.824,63.729,63.729,0,0,0,.356,7.827A80.285,80.285,0,0,0,82.433,315.4a62.107,62.107,0,0,0,6.084,13.939A82.794,82.794,0,0,0,97.686,341.3a84.611,84.611,0,0,0,11.04,9.927,85.735,85.735,0,0,0,12.437,7.709,99.07,99.07,0,0,0,13.283,5.66,128.12,128.12,0,0,0,13.7,3.933c18.471,4.206,36.839,6.189,54.493,5.376a155.336,155.336,0,0,0,49.844-10.478c1.905-.782,3.818-1.521,5.693-2.326l5.539-2.554c.933-.4,1.805-.89,2.689-1.356l2.643-1.4c.892-.443,1.738-.96,2.576-1.486l2.522-1.55a83.9,83.9,0,0,0,17.607-14.938,79.436,79.436,0,0,0,18.628-39.188,91.394,91.394,0,0,0,1.036-23q-.138-1.562-.277-3.137c-.126-1.047-.29-2.092-.433-3.143-.243-2.111-.737-4.185-1.117-6.277a93.781,93.781,0,0,0-3.5-12.066,92,92,0,0,0-4.707-10.78c-.9-1.619-1.757-3.2-2.641-4.675-.938-1.436-1.772-2.857-2.671-4.119-.916-1.249-1.746-2.454-2.573-3.525-.858-1.049-1.648-2.016-2.362-2.888C289.651,223.316,288.407,222.047,287.623,221.171Z" /><path class="cls-4 color-body" d="M251.155,239.577a41.5,41.5,0,1,1,32.728,65.571" style="fill:#ffffff;--backup-fill:#ffffff" /><path d="M283.885,305.087c.353-.349,2.165-.541,4.772-.906a46.858,46.858,0,0,0,9.458-2.494l1.308-.485c.439-.161.85-.4,1.278-.6.847-.418,1.709-.818,2.549-1.248a42.507,42.507,0,0,0,4.64-3.05,33.71,33.71,0,0,0,6.5-6.319,45.455,45.455,0,0,0,6.024-10.78,39.92,39.92,0,0,0,2.569-12.337,38.659,38.659,0,0,0-6.394-23.592,44.15,44.15,0,0,0-6.867-7.776c-.65-.562-1.35-1.064-2.015-1.6l-1.007-.8-1.078-.69c-.723-.452-1.417-.948-2.15-1.371l-2.248-1.173a18.368,18.368,0,0,0-2.3-1.028c-.783-.295-1.53-.689-2.332-.912a38.218,38.218,0,0,0-4.788-1.281c-.808-.143-1.6-.373-2.412-.456l-2.425-.252c-.4-.037-.805-.1-1.207-.119l-1.206-.031c-.8-.043-1.6-.021-2.395.013a41.055,41.055,0,0,0-17.464,4.618,44.938,44.938,0,0,0-12.614,9.815,26.042,26.042,0,0,1,3.548-7.5,32.584,32.584,0,0,1,6.722-7.233,34,34,0,0,1,8.2-4.824,24.145,24.145,0,0,1,6.783-1.794,49,49,0,0,1,19.238,2.344,46.768,46.768,0,0,1,15.486,8.729,45.51,45.51,0,0,1,15.507,27.38q.13.934.259,1.859a13.619,13.619,0,0,1,.191,1.85l.149,3.678q-.1,1.824-.2,3.619l-.057.9-.14.883-.279,1.758a42.293,42.293,0,0,1-4.425,12.965,43.376,43.376,0,0,1-7.746,10.261c-.742.728-1.557,1.364-2.327,2.036l-1.169.978-1.245.859c-.836.555-1.633,1.153-2.487,1.643l-2.581,1.38a34.638,34.638,0,0,1-12.461,3.435c-1.069.14-2.129.071-3.095.1a18.58,18.58,0,0,1-2.671-.081C285.675,305.306,284.476,305.166,283.885,305.087Z" /><g class="cls-2"><g class="cls-3"><path d="M316.6,266.853a3.718,3.718,0,0,0-.7,1.047,1.928,1.928,0,0,0,.715,2.171l.558.4-.641.347a4.644,4.644,0,0,1-1.113.462,4.443,4.443,0,0,1-1.024.15,4.164,4.164,0,0,1-.524-.014l-.262-.03-.129-.021-.065-.012-.033-.006.036.016a4.609,4.609,0,0,1,1.757,1.3,4.33,4.33,0,0,1,.841,3.074l-.088.543-.554.075a15.086,15.086,0,0,1-1.628.117,9.342,9.342,0,0,1-1.012-.031,8.656,8.656,0,0,1-.907-.126l-.422-.093-.2-.053-.05-.014c-.012,0,.024.022.033.031l.093.077a4.412,4.412,0,0,1,1.127,1.353,3.43,3.43,0,0,1,.161.353l.035.087c0,.014.011.038.006.011s-.007-.036.012.038.091.317.113.442a6.028,6.028,0,0,1,.1,1.7,5.807,5.807,0,0,1-.327,1.467c-.077.224-.154.444-.244.662a2.1,2.1,0,0,1-.132.306l-.183.156-.012.011c-.79-.161-1.594-.322-2.44-.529l-1.167-.3-.876-.248a34.008,34.008,0,0,1-3.625-1.306l1.575-2.247a16.818,16.818,0,0,1,1.4,1.486c.226.27.443.554.658.846l.313.45.431.709a13.781,13.781,0,0,1,1.293,3.054c.277,1.014.432,1.963.632,3.037a5.932,5.932,0,0,1-1.97.549c-.175.027-.351.069-.529.084h-.537a4.174,4.174,0,0,1-1.116-.147,7.431,7.431,0,0,1-2.444-1.146,23.167,23.167,0,0,1-2.065-1.635,22.1,22.1,0,0,0-2.567-2.054,3.043,3.043,0,0,0-.574-.311,2.007,2.007,0,0,0-.5-.176c-.166-.08-.275,0-.41-.048-.127,0-.24.064-.367.057l.911-3.156a17.243,17.243,0,0,1,3.113,4.755,9.76,9.76,0,0,1,.376.99c.113.378.272.762.349,1.135a15.687,15.687,0,0,1,.395,2.2,36.183,36.183,0,0,1,.015,3.936c-.332.018-.579.045-1.03.044l-1.163.01a5.777,5.777,0,0,1-2.1-.313,7.844,7.844,0,0,1-3.109-2.327l-.721-.928-.519-.687-.682-.9a8.939,8.939,0,0,0-1.271-1.335,3.036,3.036,0,0,0-1.141-.528l2.255-3.224q.729,1.289,1.364,2.613c.211.441.416.883.608,1.33l.145.334.224.551c.161.4.327.786.477,1.22a38.719,38.719,0,0,1,1.462,4.822q.472,2.178.935,4.317l-2.55-.648-1.264-.338a5.4,5.4,0,0,1-1.173-.4l-.588-.27-.607-.383a5.329,5.329,0,0,1-.609-.413l-.631-.547a11.612,11.612,0,0,1-1.258-1.293c-.424-.432-.814-1.015-1.214-1.518l-1.414-1.884a12.973,12.973,0,0,0-1.11-1.246,4.177,4.177,0,0,0-2.3-1.21l1.689-2.949a16.216,16.216,0,0,1,2.615,5.812,13.4,13.4,0,0,1,.244,1.442,9.452,9.452,0,0,1,.085,1.04,9.016,9.016,0,0,1,.012,1.049,16.9,16.9,0,0,1-.184,1.913c-.092.583-.154,1.255-.291,1.774-1.347-.473-2.581-.868-3.76-1.391a15.475,15.475,0,0,1-2.583-1.383,18.68,18.68,0,0,1-3.487-2.916,13.786,13.786,0,0,1-3.628-6.856,16,16,0,0,0,5.206,5.708,19.545,19.545,0,0,0,3.657,1.966l.92.348a2.6,2.6,0,0,0,.3.013.52.52,0,0,0,.326-.1,1.07,1.07,0,0,0-.178-.491.28.28,0,0,0-.044-.046,1.168,1.168,0,0,1-.046-.195c-.015-.088-.042-.175-.064-.261-.083-.346-.184-.676-.287-.992a21.579,21.579,0,0,0-1.327-3.026c-.2-.391-.425-.773-.616-1.09l-2.579-4.284,4.436,1.043a14.068,14.068,0,0,1,1.417.364,8.357,8.357,0,0,1,1.3.617,7.438,7.438,0,0,1,1.117.794l.5.43.431.453a16.6,16.6,0,0,1,1.46,1.82c.209.285.434.625.584.846l.134.262a4.78,4.78,0,0,0,.92,1.239,3.555,3.555,0,0,0,.757.534l.22.1.112.049a.4.4,0,0,0,.053.022l0-.035-.022-.3a11.543,11.543,0,0,0-.585-2.378l-.134-.369-.249-.612-.525-1.2c-.359-.785-.737-1.539-1.124-2.262l-.927-1.728,1.907.327a6.124,6.124,0,0,1,3.339,1.943,14.564,14.564,0,0,1,1.116,1.349l.881,1.221a5.734,5.734,0,0,0,1.309,1.423,2.072,2.072,0,0,0,1.342.385c.033-.006.09.013.1-.013l0-.116.008-.23a7.054,7.054,0,0,0-.17-1.6c-.06-.259-.131-.514-.211-.763l-.132-.369-.191-.46a14.445,14.445,0,0,0-2.526-3.848l-1.083-1.2,1.5-.236a6.663,6.663,0,0,1,1.168-.158,4.427,4.427,0,0,1,1.141.156,4.476,4.476,0,0,1,1.021.383,5.641,5.641,0,0,1,.9.508,26.482,26.482,0,0,1,2.894,2.352l.328.288.225.189c.134.109.269.225.4.312a4.289,4.289,0,0,0,.784.486,1.7,1.7,0,0,0,.418.15,1.15,1.15,0,0,0,.431.054,1.115,1.115,0,0,0,.421-.061c.207.014.112-.183.09-.325a6.438,6.438,0,0,0-.782-1.942l-.137-.217-.234-.35c-.173-.25-.35-.5-.54-.73a14.736,14.736,0,0,0-1.2-1.337l1.312-1.871a32.421,32.421,0,0,0,5.376,1.9c.04.006.09.03.122.02l.051-.121a2.165,2.165,0,0,0,.082-.247,2.1,2.1,0,0,0,.058-.51,2.236,2.236,0,0,0-.054-.474c.023.1-.03-.118-.025-.1.025.088-.057-.187-.08-.241l-.219-.426a3.93,3.93,0,0,0-.669-.893c.268-1.23.069-1.683-.21-2.032-.171-.131.059-.086.181-.111a2.3,2.3,0,0,0,.437-.09,3.456,3.456,0,0,0,1.1-.591,11.869,11.869,0,0,0,1.694.316,15.856,15.856,0,0,0,2.428.037l-.92.886a2.691,2.691,0,0,0-.076-1.248,2.446,2.446,0,0,0-.118-.321,3.885,3.885,0,0,0-.239-.43l-.3-.381-.361-.311a2.062,2.062,0,0,0-.552-1.494,2.019,2.019,0,0,0-.571-.4c-.063-.027.016-.008.044-.007l.11.016.224.018a4.161,4.161,0,0,0,.447,0,4.556,4.556,0,0,0,.834-.135c.5-.13.871-.29.886-.223a4.316,4.316,0,0,0,1.353-.271c.133-.048.216-.081.269-.094h0l-.046.421h0l0,0,0,0-.006-.008-.008-.012a.031.031,0,0,1,0-.014.017.017,0,0,1,.012,0l.013.008.008,0,0,0,0,0h0l.041-.375-.041.374a2.478,2.478,0,0,1-.849-1.7,2.07,2.07,0,0,1,.306-1.239A1.96,1.96,0,0,1,316.6,266.853Z" /></g></g><g data-name="default" id="default-2"><path d="M196.872,323.442c.138.305-.23,1.258-1.063,2.508a19.265,19.265,0,0,1-1.675,1.939,19.936,19.936,0,0,1-2.325,1.941l-1.323.925c-.46.282-.938.539-1.41.81a29.655,29.655,0,0,1-2.851,1.43c-1.875.837-3.622,1.488-4.869,1.961a47.186,47.186,0,0,1-14.508,3.018,75.34,75.34,0,0,1-15.048-.695c-8.435-1.216-16.688-4.06-23.248-8.666a28.814,28.814,0,0,1-8-8.189,16.959,16.959,0,0,1-2.717-9.418c.547.562,1.09,1.15,1.611,1.739s1.2,1.127,1.752,1.684c.588.544,1.285,1.023,1.86,1.524.639.472,1.315.9,1.9,1.339,2.5,1.67,4.949,2.867,5.947,3.979a31.339,31.339,0,0,0,7.158,5.434,42.821,42.821,0,0,0,7.992,3.519,55.8,55.8,0,0,0,15.783,2.716,66.224,66.224,0,0,0,13.937-1.054,60.732,60.732,0,0,0,11.448-3.224c1.6-.656,3.8-1.509,5.725-2.519.471-.258.9-.553,1.325-.808a8.188,8.188,0,0,0,1.147-.771Z" /></g><path class="cls-5" d="M294.349,293.994c-16.117-4.2-11.738,21.757-1.491,25.912,19.044,9.614,28.622-11.723,22.584-27.289-9.5,9.077-6.174,1.254-6.317,14.567-1.874,7.976-9.971,5.443-11.885-1.321-2.241-3.188.709-9.248-3.661-10.736" /><path d="M293.589,295.1a1.33,1.33,0,0,1,.418.067,2.11,2.11,0,0,1,.762.33,3.627,3.627,0,0,1,1.562,2.2,16,16,0,0,1,.431,3.612,9.074,9.074,0,0,0,.76,3.818l.122.2c.062.12.131.209.18.323l.211.562a5.783,5.783,0,0,0,.414.965,8.71,8.71,0,0,0,1.144,1.755,6.754,6.754,0,0,0,3.258,2.211,3.7,3.7,0,0,0,3.171-.437,2.385,2.385,0,0,0,.552-.478c.084-.085.172-.161.249-.248s.13-.2.194-.3a5.357,5.357,0,0,0,.354-.568l.246-.589a5.269,5.269,0,0,0,.318-1.047l.109-.444-.014-.165-.015-.307c-.041-.819-.066-1.647-.141-2.469-.054-.827-.145-1.648-.242-2.473l-.173-1.248a9.858,9.858,0,0,1-.152-1.595,3,3,0,0,1,.2-1.06c.087-.158.181-.314.279-.467a5.191,5.191,0,0,1,.366-.407,14.162,14.162,0,0,1,1.231-1.009c.681-.52,1.322-1.052,1.966-1.605l2.808-2.544,1.74-1.566c.363-.541.406.17.558.464l.4,1.1c.279.731.511,1.483.759,2.235l.37,1.134c.069.213.086.342.116.448l.083.344c.238.912.4,1.841.545,2.771a28.975,28.975,0,0,1,.259,5.62,26.134,26.134,0,0,1-2.772,10.751,18.16,18.16,0,0,1-4.411,5.671,14.732,14.732,0,0,1-6.52,3.272,16.816,16.816,0,0,1-7.063-.037A25.308,25.308,0,0,1,292,321.615l.143.066a13.233,13.233,0,0,1-4.855-3.778,20.5,20.5,0,0,1-2.921-4.8,24.173,24.173,0,0,1-2.1-10.168,14.946,14.946,0,0,1,.9-4.925,8.25,8.25,0,0,1,2.965-3.959,7.7,7.7,0,0,1,4.393-1.305,13.187,13.187,0,0,1,3.972.7l-1.441.006c-.5.026-1.016.079-1.534.125a9.186,9.186,0,0,0-3.036.977,6.671,6.671,0,0,0-3.045,5.225,18.824,18.824,0,0,0,.44,6.079,44.173,44.173,0,0,0,1.258,4.367,18.325,18.325,0,0,0,2.425,5.02,10.158,10.158,0,0,0,3.8,3.424l.1.045c3.374,1.862,7.123,2.987,10.678,2.425a12.861,12.861,0,0,0,8.564-5.6,21.691,21.691,0,0,0,3.516-9.5,26.469,26.469,0,0,0-.521-9.633l-.127-.535-.1-.326c-.07-.214-.125-.429-.2-.633l-.228-.6-.029-.074c-.014,0-.038.034-.057.048l-.121.117-.237.23-.463.449-.567.511c-.581.529-1.2,1.021-1.8,1.511l-1.726,1.316c-.154.14-.294.258-.312.454a1.236,1.236,0,0,0-.007.272l.047.427c.189,1.431.351,2.969.4,4.414.042.731.051,1.454.056,2.17,0,.4.02.615,0,1.227l-.36,1.2a7.154,7.154,0,0,1-2.816,3.834,5.648,5.648,0,0,1-4.727.518,8.3,8.3,0,0,1-3.624-2.427,9.665,9.665,0,0,1-1.375-1.982c-.174-.389-.372-.779-.525-1.192-.113-.374-.227-.755-.343-1.14-.006-.015-.038-.083-.024-.054l-.086-.164-.171-.335c-.095-.228-.158-.463-.235-.694a7.127,7.127,0,0,1-.235-1.377,18.515,18.515,0,0,1,0-2.572,9.421,9.421,0,0,0-.339-4.156A3.564,3.564,0,0,0,293.589,295.1Z" /></g><path d="M287.87,159.512c-1.068.42-6.652-2.732-12.842-6.731-6.21-3.974-13.1-8.708-17.156-11.03-4.856-2.77-9.815-5.868-14.778-9.129-2.482-1.631-4.962-3.306-7.431-5l-3.69-2.567-1.836-1.3c-.059-.041-.191-.138-.19-.132l-.033-.014-.066-.025-.121-.044-.2-.069c-.057-.012-.116-.064-.172.03a1.291,1.291,0,0,0-.165.4l-.018.083a.324.324,0,0,1-.031.077l-.022.05-.113.2q-.468.833-.919,1.7c-.6,1.148-1.178,2.321-1.734,3.5-3,6.4-5.655,13.061-8.032,19.6s-4.431,13.039-6.179,19.272c-1.763,6.236-3.1,12.245-4.153,17.9-.512,2.828-.939,5.566-1.318,8.215q-.283,2.012-.554,3.921a34.255,34.255,0,0,1-.747,4c-.439-1.4-1.08-2.52-1.634-3.843-.571-1.3-1.127-2.677-1.614-4.139a51.812,51.812,0,0,1-2.178-9.287c-.885-6.32-.519-12.338.509-15.284,4.132-11.874,8.51-22.443,12.958-32.256,2.235-4.9,4.487-9.587,6.914-14.06.611-1.117,1.232-2.221,1.885-3.31.333-.555.826-1.358,1.281-2.03a23.778,23.778,0,0,1,1.466-1.981,10.867,10.867,0,0,1,1.642-1.616,3.57,3.57,0,0,1,1.975-.883,5.948,5.948,0,0,1,.9.328c.305.139.644.348.965.518l.975.535a10.476,10.476,0,0,1,.959.764q3.161,2.286,6.217,4.5l5.426,3.851,10.361,7.275c6.668,4.694,12.822,9.141,18.336,13.609a108.592,108.592,0,0,1,8.949,8.115C284.573,156.1,287.069,158.638,287.87,159.512Z" /><path class="cls-4 color-body" d="M303.279,134.413c-12.416-.564-23.587,6.087-27.215,11.778a32.937,32.937,0,0,0-4.011,29c3.843,11.255,16.526,17.69,28.266,18.35,10.533.592,26.195-6.229,29.535-22.252C334.4,149.47,319.551,135.153,303.279,134.413Z" style="fill:#ffffff;--backup-fill:#ffffff" /><path d="M303.282,134.352a4.486,4.486,0,0,1,1.75-.244,13.615,13.615,0,0,1,1.656.023l2.073.272a28.222,28.222,0,0,1,10.6,4.265,29.237,29.237,0,0,1,9.129,9.715,34.8,34.8,0,0,1,4.468,17.975,29.191,29.191,0,0,1-.3,3.885c-.09.651-.112,1.3-.263,1.962l-.441,1.991a13.051,13.051,0,0,1-.574,1.975c-.225.652-.442,1.311-.686,1.962l-.89,1.895c-.155.314-.292.639-.465.944l-.546.9a28.675,28.675,0,0,1-5.328,6.568,33.85,33.85,0,0,1-14.787,7.9,30.34,30.34,0,0,1-8.473.95,43.363,43.363,0,0,1-8.036-1.123,37.6,37.6,0,0,1-15.346-7.505,28.108,28.108,0,0,1-5.806-6.585,26.408,26.408,0,0,1-3.364-7.986,34.708,34.708,0,0,1-.335-16.061,37.882,37.882,0,0,1,2.409-7.261,34.023,34.023,0,0,1,1.7-3.31c.3-.534.637-1.057.972-1.574.36-.535.669-.987,1.15-1.6l-.149.214a23.591,23.591,0,0,1,7.288-6.456,35.541,35.541,0,0,1,7.843-3.469,37.235,37.235,0,0,1,7.691-1.492,35.865,35.865,0,0,1,7.112.2,70.914,70.914,0,0,0-6.908,2.284,47.016,47.016,0,0,0-7.13,3.594,38.207,38.207,0,0,0-6.11,4.612,20.842,20.842,0,0,0-3.8,4.544l-.186.268q-.309.51-.588.974l-.582,1.026c-.369.654-.687,1.239-.98,1.734a28.116,28.116,0,0,0-3.768,17.42c.114.735.161,1.485.327,2.21s.341,1.451.51,2.172.45,1.356.666,2.041c.265.66.594,1.291.885,1.941a22.416,22.416,0,0,0,5.408,6.562,32.72,32.72,0,0,0,15.179,6.869l2.023.3L300.3,192l1.961.026,1.953-.145a28.718,28.718,0,0,0,7.458-1.948,27.477,27.477,0,0,0,6.478-3.66,24.847,24.847,0,0,0,5.049-5.014l.535-.687c.169-.234.309-.488.465-.73l.911-1.455q.373-.77.745-1.53l.372-.758.288-.791q.287-.788.57-1.57c.171-.527.271-1.076.412-1.608.115-.542.3-1.051.361-1.611s.155-1.1.231-1.654a32.927,32.927,0,0,0-.54-12.582,27.805,27.805,0,0,0-5.081-10.418l-.912-1.067a10.471,10.471,0,0,0-1-1.126,28.8,28.8,0,0,0-2.355-2.242l-1.306-1.1c-.449-.356-.941-.655-1.411-.991a17.015,17.015,0,0,0-1.441-.954l-1.489-.829-.732-.411-.751-.326-1.455-.638c-.943-.423-1.88-.642-2.7-.939a18.339,18.339,0,0,0-2.2-.561Z" /></g></g></svg>