<svg xmlns="http://www.w3.org/2000/svg" viewBox="0 0 380 600">
  <defs>
    <style>
      .cls-1 {
        mix-blend-mode: multiply;
      }

      .cls-2 {
        fill: #000;
      }

      .cls-2, .cls-3, .cls-4 {
        stroke-width: 0px;
      }

      .cls-3 {
        fill:#ffffff;
      }

      .cls-5 {
        opacity: .3;
      }

      .cls-6 {
        isolation: isolate;
      }

      .cls-4 {
        fill: #7a9299;
      }
    </style>
  </defs>
  <g class="cls-6">
    <g id="HUNGARY">
      <g>
        <g id="default">
          <g class="cls-1">
            <g class="cls-5">
              <path class="cls-4" d="M156.06,380.72c-.24-.38-.61-1.37-1.11-2.89l-.4-1.22,1.13.75c1.97,1.31,5.06,3.2,9.29,4.56l-1.01,1.46c-2.83-3.18-5.75-7.43-7.89-12.66l2.01-1.36c7,6.38,15.49,13.49,24.71,20.22l-2.35,2.27c-5.84-8.23-12.56-16.17-19.47-23.08l2.54-2.98c11.88,8.19,22.74,15.63,30.4,20.73,2.65,1.77,5.32,3.55,8.1,5.41l-3.58,4.29c-10.12-9.44-21.16-18.63-32.96-27.23l3.63-6.31c9.76,3.92,18.87,9.43,27.35,15.59,8.5,6.17,16.42,12.98,24.2,19.7l-6.7,5.6c-4.45-7.22-10.27-13.58-16.63-19.37-6.36-5.8-13.25-11.06-20.17-16.32l5.16-8.08c7.69,3.96,14.69,8.02,21.39,12.35,10.62,6.86,20.66,14.57,29.95,22.92l-7.36,7.08c-11.75-14.01-25.02-26.41-39.11-36.94l4.66-8.86c9.88,3.45,19.08,8.27,27.29,14.13,2.06,1.46,4.05,2.99,5.98,4.59,1.91,1.58,3.6,3.01,5.4,4.38,3.54,2.71,7.18,5.06,10.74,6.26l-4.46,7.84c-6.02-5.48-11.52-11.04-17.04-16.2-5.5-5.16-11.01-9.94-16.8-13.86l3.04-7.11c7.31,1.84,13.9,5.03,19.59,8.69,5.72,3.66,10.69,7.64,15.52,11.38l-4.19,4.39c-3.41-4.39-6.29-8.59-9.4-11.89-3.09-3.33-6.66-5.86-10.38-8.15l1.97-4c8.07,3.7,14.56,6.73,20.74,9.65-6.34-1.75-13.8-4.04-21.99-6.71l.85-1.72c4.25,1.94,8.67,4.41,12.54,7.9,3.86,3.48,7.1,7.39,10.48,11.04l-4.28,4.48c-5.83-3.77-11.5-7.58-17.1-10.49-5.59-2.94-11.13-4.89-16.38-5.97l3.8-8.87c8.86,5.52,15.21,11.35,19.35,15.34,5.47,5.38,10.64,10.75,15.61,15.44l-4.17,7.33c-5.53-1.98-9.85-5.14-13.83-8.3-.99-.8-1.96-1.61-2.91-2.42-.92-.79-1.83-1.57-2.75-2.35-1.8-1.5-3.63-2.95-5.52-4.31-7.54-5.47-15.77-9.81-24.3-12.92l2.7-5.13c15.22,11.7,28.59,24.81,39.98,38.67l-3.16,3.04c-15.47-14.22-32.38-25.77-49.56-34.68l2.11-3.31c7.29,5.61,14.51,11.19,21.11,17.32,6.59,6.11,12.58,12.83,17.17,20.34l-3.27,2.73c-8.08-7.03-15.98-13.83-24.17-19.78-8.17-5.96-16.64-11.05-25.46-14.67l2.56-4.46c12.05,8.96,23.09,18.42,33.14,28.2l-3.62,4.34c-13.22-9.26-25.87-18.2-37.99-26.88l3.57-4.19c3.48,3.62,6.75,7.34,9.83,11.14,2.86,3.5,5.95,7.57,9.55,12.95l-3.35,3.24c-8.16-6.4-16.87-14.28-24-21.63l2-1.35c1.73,5.08,4.35,9.46,6.73,12.6l1.3,1.7-1.93-.78c-4.43-1.79-7.48-4.13-9.11-5.56l.1-.07c.29,1.49.47,2.36.6,3.02Z"></path>
            </g>
          </g>
          <g>
            <g>
              <circle class="cls-3 color-body" cx="263" cy="247.71" r="41.5" style="fill:#ffffff;--backup-fill:#ffffff"></circle>
              <path class="cls-2" d="M221.45,248.78c-.15-.26-.27-1.09-.36-2.38-.03-.64-.12-1.41-.08-2.26.06-.86.13-1.81.21-2.85.45-4.14,1.85-9.61,4.76-14.85,2.86-5.26,7.17-10.17,11.88-13.69,4.69-3.58,9.7-5.69,13.35-6.86,6.44-2.14,13.73-2.83,20.92-1.46.9.18,1.8.36,2.7.54.89.22,1.76.52,2.65.79,1.79.48,3.47,1.29,5.2,2,.87.35,1.66.86,2.49,1.29.81.47,1.68.85,2.43,1.41,1.56,1.05,3.15,2.07,4.56,3.34,2.96,2.36,5.48,5.24,7.75,8.28,1.04,1.59,2.17,3.13,2.99,4.84.43.84.92,1.66,1.3,2.53l1.08,2.63c.17.44.38.87.51,1.32l.41,1.36.8,2.71c.18.92.36,1.85.53,2.77.18.92.37,1.84.42,2.78.16,1.86.38,3.71.28,5.57-.02.93-.01,1.85-.06,2.77-.1.92-.21,1.83-.31,2.74-.81,6.36-3.04,12.53-6.42,17.92-3.38,5.4-7.93,9.97-13.12,13.42-5.19,3.45-11.04,5.75-16.98,6.77-5.94,1.03-11.93.83-17.53-.44-11.25-2.55-20.56-9.44-26.08-17.66-2.8-4.1-4.75-8.47-5.96-12.78-1.18-4.33-1.47-8.58-1.41-12.5,1.03,3.49,2.24,7.6,4.3,11.59,2.05,3.99,4.77,7.84,7.86,11.03,3.1,3.19,6.45,5.83,9.64,7.63.74.53,1.58.85,2.3,1.26.75.37,1.41.82,2.11,1.08.68.3,1.32.59,1.9.87.29.14.57.28.84.41.27.11.54.21.78.31,1,.39,1.97.86,2.99,1.19,1.03.31,2.06.61,3.08.92,1.04.22,2.1.4,3.15.6.26.05.53.1.79.14l.8.06,1.59.13c4.24.24,8.53-.09,12.55-1.27,4.02-1.16,7.81-2.96,11.22-5.27,3.42-2.3,6.31-5.23,8.76-8.39.58-.82,1.23-1.59,1.74-2.44.51-.86,1.02-1.71,1.52-2.56.48-.86.85-1.78,1.28-2.66.2-.45.43-.88.6-1.34l.48-1.38.48-1.38c.17-.46.32-.92.41-1.39.22-.94.45-1.88.67-2.82.2-.94.27-1.9.41-2.84l.19-1.42c.03-.47.03-.95.05-1.42.02-.95.05-1.89.07-2.83-.07-.94-.14-1.87-.22-2.8-.04-.46-.05-.93-.12-1.39l-.25-1.37c-.18-.91-.3-1.82-.53-2.71-.53-1.75-.94-3.53-1.69-5.18l-.5-1.25c-.16-.42-.33-.83-.56-1.22-.41-.79-.83-1.58-1.24-2.36-1.81-3.03-3.84-5.9-6.32-8.27-1.14-1.28-2.52-2.29-3.78-3.39-.65-.53-1.37-.96-2.04-1.45-.69-.46-1.34-.98-2.09-1.34-5.7-3.3-11.94-5.19-18.06-5.45-6.12-.29-12.05.8-17.32,2.94-5.28,2.13-9.92,5.29-13.72,9.05-.86.94-1.79,1.96-2.78,3.04-.45.58-.91,1.17-1.38,1.78-.48.6-.97,1.21-1.37,1.89-.43.66-.87,1.33-1.31,2-.47.66-.77,1.41-1.17,2.11-.36.72-.8,1.41-1.1,2.15-.31.74-.62,1.47-.92,2.19-.15.36-.3.72-.45,1.07-.11.37-.23.73-.34,1.09-.23.72-.45,1.42-.66,2.1-.25.68-.35,1.36-.49,2-.14.65-.27,1.27-.39,1.85-.06.29-.12.58-.18.85-.03.28-.06.55-.09.81-.06.52-.11,1-.16,1.43-.1.87-.19,1.56-.24,2.01Z"></path>
            </g>
            <g>
              <path class="cls-3 color-body" d="M92.82,221.57s49.18-41.49,118.41-30.69c28.63,4.47,54.8,18.63,70.04,38.77,8.32,11,21.47,49.75,21.86,61.62.44,13.25-3.67,29.98-10.89,40.79-14.58,21.8-35.9,33.04-60.88,38.69-40.22,9.1-79.11,7.85-116.62-10.36-61.85-30.04-57.85-105.04-21.93-138.82Z" style="fill:#ffffff;--backup-fill:#ffffff"></path>
              <path class="cls-2" d="M92.86,221.62c-.19.3-.63.85-1.31,1.63-.66.79-1.62,1.74-2.62,3.04-.52.63-1.08,1.32-1.69,2.06-.61.73-1.18,1.59-1.83,2.45-1.33,1.71-2.61,3.77-4.03,5.97-2.75,4.47-5.48,9.95-7.74,16.19-2.26,6.23-4.03,13.23-4.87,20.61-.86,7.36-.85,15.08.17,22.61.99,7.54,3.09,14.86,5.97,21.44,2.87,6.59,6.53,12.43,10.39,17.27,3.82,4.89,7.98,8.65,11.54,11.6,6.37,5.16,13.57,9.4,21.34,12.83,7.77,3.5,15.91,6.44,24.33,8.61,16.83,4.42,34.68,5.93,52.46,4.78,8.89-.54,17.77-1.76,26.54-3.47,2.2-.37,4.37-.92,6.56-1.37,2.2-.45,4.33-1,6.48-1.53,4.25-1.16,8.47-2.4,12.54-3.97,8.16-3.08,15.87-7.08,22.68-12.15,3.4-2.54,6.63-5.27,9.52-8.3,1.52-1.45,2.82-3.09,4.23-4.63l1.93-2.45c.32-.41.65-.81.96-1.23l.89-1.27,1.56-2.23c.49-.74.93-1.47,1.39-2.21.86-1.52,1.68-3.08,2.41-4.7,1.47-3.23,2.67-6.63,3.64-10.09,1.92-6.92,2.97-14.15,2.83-21.16-.07-3.15-.88-6.74-1.69-10.25-.82-3.53-1.86-7.05-2.9-10.56-2.13-7-4.57-13.91-7.25-20.63l-1.01-2.51-1.06-2.47c-.69-1.66-1.46-3.26-2.2-4.87-1.55-3.14-3.16-6.31-5.01-8.8-4.18-5.49-9.08-10.4-14.42-14.7-10.71-8.6-23.08-14.79-35.74-18.81-6.34-2.01-12.77-3.49-19.21-4.46-6.45-1.04-12.88-1.52-19.22-1.67-12.69-.33-25.02,1.13-36.62,3.7-11.61,2.59-22.47,6.42-32.42,10.94-4.98,2.27-9.73,4.71-14.22,7.32-4.48,2.6-8.79,5.34-12.63,8.26,3.1-3.03,6.97-6.2,11.28-9.3,4.32-3.11,9.14-6.19,14.34-9.06,10.39-5.76,22.32-10.67,34.42-13.9,6.04-1.64,12.13-2.83,18.03-3.62,2.95-.45,5.86-.66,8.69-.94,2.84-.14,5.6-.37,8.27-.34,10.68-.16,19.73.98,25.88,2.2,12.4,2.46,24.21,6.71,35.01,12.44,10.81,5.7,20.54,13.11,28.51,21.93,2.01,2.21,3.83,4.5,5.6,6.93l1.27,1.93,1.1,1.94c.76,1.29,1.36,2.61,2.02,3.91,2.52,5.23,4.62,10.52,6.58,15.81,1.94,5.3,3.74,10.59,5.33,15.91,1.58,5.32,3.03,10.64,4.1,16.07.3,1.34.45,2.75.68,4.12.12,1.43.26,2.88.23,4.24,0,2.77-.15,5.51-.48,8.22-.31,2.71-.74,5.39-1.32,8.03-.55,2.64-1.25,5.24-2.06,7.8-1.62,5.11-3.71,10.05-6.51,14.61-2.9,4.46-6.02,8.62-9.59,12.4-3.54,3.78-7.39,7.22-11.47,10.28-4.06,3.09-8.42,5.68-12.86,7.99-4.44,2.3-9.01,4.26-13.65,5.87-4.64,1.62-9.3,3.02-14,4.1-18.69,4.38-37.32,6.59-55.38,5.94-18.05-.56-35.4-4.25-51.21-10.25-1.96-.79-3.93-1.53-5.87-2.34-1.91-.86-3.81-1.72-5.71-2.58-1.9-.85-3.72-1.9-5.57-2.84-.93-.46-1.82-1-2.7-1.54-.89-.54-1.77-1.07-2.65-1.61-6.98-4.41-13.27-9.71-18.58-15.7-10.68-12-17.03-26.81-19.29-41.48-1.12-6.97-1.52-15.39-.41-24,.14-1.07.28-2.15.42-3.24.18-1.08.39-2.15.59-3.23.35-2.17.96-4.29,1.46-6.42,1.19-4.21,2.54-8.35,4.24-12.19,1.6-3.88,3.55-7.43,5.43-10.7,1.02-1.59,1.98-3.14,2.97-4.57,1.04-1.4,1.97-2.77,2.97-3.99,1.01-1.2,1.92-2.35,2.82-3.37.93-.99,1.79-1.91,2.57-2.73,1.6-1.6,2.94-2.77,3.78-3.58Z"></path>
            </g>
            <g>
              <path class="cls-3 color-body" d="M127.49,237.65c-7.74-10.84-18.8-15.49-33.12-15.12-22.91.59-41.01,19.65-40.41,42.56.59,22.91,19.65,41.01,42.56,40.41" style="fill:#ffffff;--backup-fill:#ffffff"></path>
              <path class="cls-2" d="M96.52,305.57c-.33.28-2.14.55-4.85.56-2.69-.12-6.3-.48-9.98-1.69-1.88-.48-3.69-1.35-5.54-2.1-.89-.44-1.76-.93-2.63-1.39-.43-.24-.87-.46-1.29-.7-.4-.27-.8-.53-1.2-.79-.79-.53-1.58-1.03-2.31-1.54-.7-.56-1.38-1.1-2.02-1.61-1.34-.98-2.34-2.08-3.28-2.9-3.17-3.03-6.04-6.69-8.22-10.9-2.13-4.22-3.59-8.9-4.27-13.73l-.37-3.65v-3.68c0-.31,0-.61.01-.92l.09-.91.19-1.83c.07-.61.12-1.22.21-1.83l.37-1.8c.96-4.79,2.69-9.4,5.12-13.47,2.1-3.56,4.62-6.9,7.64-9.69,1.42-1.49,3.11-2.67,4.7-3.94.84-.57,1.71-1.11,2.56-1.66l1.28-.81,1.35-.69c.9-.45,1.79-.92,2.7-1.34.93-.36,1.86-.71,2.79-1.07.47-.17.92-.36,1.39-.51l1.43-.39c.95-.25,1.89-.51,2.84-.74.96-.15,1.92-.31,2.87-.46l1.42-.22c.48-.05.95-.06,1.43-.09.95-.05,1.89-.09,2.83-.14.94-.04,1.84.03,2.74.04,7.24.28,14.29,2.1,19.87,5.51,2.79,1.68,5.19,3.7,7.17,5.85,1.98,2.15,3.55,4.42,4.82,6.62-2.02-1.35-4.34-2.98-6.89-4.41-2.55-1.43-5.32-2.64-8.03-3.48-2.71-.85-5.38-1.36-7.7-1.71-2.33-.33-4.33-.53-5.72-.78-5.65-1.05-11.25-1-16.52.32-5.26,1.3-10.1,3.81-14.12,7.08-4.03,3.28-7.23,7.31-9.49,11.65-2.26,4.34-3.58,8.98-4.05,13.52-.06.57-.13,1.13-.19,1.7-.02.57-.01,1.13-.02,1.7,0,.56,0,1.12-.01,1.68v.83s.08.83.08.83c.11,1.1.22,2.19.32,3.27.21,1.06.43,2.12.64,3.16,1.01,4.14,2.62,7.94,4.62,11.36,2.09,3.37,4.54,6.3,7.18,8.88,1.41,1.19,2.7,2.46,4.19,3.45l1.07.79.53.4.56.34c.75.46,1.49.92,2.22,1.37,2.87,1.55,6.9,3.63,10.81,4.78.96.33,1.93.5,2.82.75.9.23,1.74.47,2.51.55,1.54.26,2.72.45,3.3.55Z"></path>
            </g>
          </g>
          <g class="cls-1">
            <g class="cls-5">
              <path class="cls-2" d="M63.84,267.15c.15,0,.72.13,1.17.88.21.36.34.88.27,1.45-.07.57-.38,1.18-.9,1.65l-.08-.75c.36.15.95.39,1.72.38.43.26.84.4,1.25.47.2.03.4.05.6.05.1,0,.2,0,.29-.01l.14-.02h.07s.04-.01.04-.01l-.03.02c-.61.32-1.18.76-1.4,1.88-.69.53-.94,1.18-1.04,1.52-.12.41-.16.84-.09,1.23l-.64-.62c.53.04.95.06,1.57.04.72-.02,1.45-.1,2.27-.29.47.22.87.31,1.24.34.18.02.35.02.52,0,.08,0,.16-.01.24-.02h.06s-.02.02-.03.03l-.08.08c-.43.44-.69,1-.56,2.06l-.38.48c-.11.16-.15.3-.23.45l-.11.22s-.03.06-.05.14c-.02.07-.04.14-.03.12l-.04.17c-.03.23-.04.45-.02.66.02.2.07.39.14.55.03.08.07.16.11.23.02.03.03.08.07.09l.13-.04h0c.3-.1.57-.21.83-.31l.19-.08.11-.04.2-.07c.26-.1.53-.2.79-.3,1.06-.42,2.15-.9,3.26-1.47l1.58,2.25c-.37.41-.73.85-1.07,1.32-.17.23-.33.48-.49.73l-.23.38-.07.15c-.16.36-.24.7-.24.99-.06.15.19.11.31.08.15-.03.28-.1.39-.17.11-.07.2-.16.29-.24.12-.11.08-.09.63-.61.86-.8,1.75-1.7,2.95-2.52.29-.21.63-.4.99-.58.33-.19.76-.33,1.18-.45.4-.15.92-.15,1.37-.2.47,0,.95.1,1.42.18l3.15.55-2.24,2.61c-.97,1.13-1.76,2.39-2.3,3.72-.09.24-.05.14-.07.18v.04s-.01.06-.01.08c0,.05.01.08.02.11.02.04.12-.04.14-.07.02-.03.03-.06.04-.08h0s-.01,0,.02-.04l.18-.25.74-1.02c.55-.7,1.17-1.43,2-2.11.86-.67,1.95-1.2,3.12-1.42l4.53-.84-2.27,4.06c-.43.78-.84,1.56-1.22,2.36-.19.4-.37.79-.55,1.19l-.19.44s-.02.02-.06.08c-.05.11.03.14.16.03.03-.03-.02.03.06-.06l.32-.41.68-.83c.48-.56,1.01-1.11,1.6-1.63,1.18-1.05,2.86-1.85,4.5-1.97l4.22-.3-2.53,3.25c-1.13,1.45-1.89,2.96-2.32,4.44-.11.37-.2.74-.27,1.1-.05.21-.06.24-.09.38-.04.22-.09.54-.05.77.53-.11.68-.05,2.28-.88,1.24-.66,2.33-1.42,3.29-2.25,1.91-1.65,3.26-3.57,3.95-5.58.07,2.07-.92,4.87-2.87,7.22-.96,1.18-2.13,2.27-3.43,3.18-.34.23-.62.43-1.02.67-.56.28-1.12.56-1.68.84-1.13.46-2.32.92-3.55,1.38-.27-1.57-.61-3.03-.6-4.74.02-.42,0-.84.06-1.27l.05-.45c.01-.13.03-.25.05-.37.07-.49.17-.95.28-1.4.45-1.78,1.18-3.15,1.8-4.07.33-.48.68-.93.99-1.3l1.86,3.24c-.94.01-1.81.4-2.71,1.17-.45.37-.88.84-1.32,1.33-.23.25-.41.48-.68.8-.37.46-.75.91-1.12,1.36-.37.42-.74.79-1.11,1.18-.36.33-.72.61-1.07.91-.34.21-.67.43-1.01.64-.33.15-.65.33-.97.46-.63.21-1.29.41-2.02.58l-.57.12-.28.06s-.1.02-.14.03l-.05-.04c-.13-.1-.24-.21-.39-.31.35-1.39.68-2.65,1.05-3.94.38-1.29.84-2.61,1.36-3.87l.39-.9.3-.64c.21-.42.41-.83.61-1.23.41-.81.84-1.58,1.27-2.32l.98,1.4c-.87.12-1.66.62-2.36,1.33-.35.35-.68.75-1,1.16-.35.47-.7.93-1.05,1.39-.9,1.2-1.88,2.19-2.92,2.67-.52.27-1.08.38-1.65.43-.28.04-.6,0-.89.02-.07,0-.16.01-.21-.01l-.09-.12-.18-.23c-.01-1.1,0-2.1.16-3.2.09-.55.21-1.1.37-1.66l.28-.83.28-.71c.7-1.64,1.68-3.1,2.77-4.35l.41,1.43c-.89-.24-1.82.1-2.73.73-.9.62-1.74,1.44-2.62,2.25l-.33.3-.44.38c-.31.26-.62.54-.96.76-.66.49-1.34.86-1.99,1.08-.33.11-.66.22-.98.24l-.49.06-.49-.03c-.32,0-.66-.07-1.01-.14-.43-.02-.49-.23-.64-.4.14-.89.29-1.71.51-2.57.24-.86.58-1.77,1.06-2.65l.36-.64c.12-.22.2-.32.3-.49.2-.3.4-.59.61-.87.42-.56.88-1.09,1.36-1.59l1.31,1.87c-2.42,1.12-4.14,1.82-8.1,2.75-.08-.07-.16-.13-.23-.22l-.17-.39c-.11-.26-.21-.51-.31-.76-.18-.51-.32-1.05-.35-1.62-.04-.58,0-1.13.15-1.77l.05-.18c.05-.18,0,0,0-.03l.04-.12c.03-.08.06-.16.1-.23.19-.38.47-.73.82-1.01.18-.13-.02-.04-.11-.03l-.32.07c-.22.04-.44.07-.66.08-.16.01-.32.02-.48.02-.15.01-1.24-.03-1.92-.15l-.84-.14-.08-.74c-.09-.81.07-1.62.34-2.24.07-.14.15-.33.2-.41.05-.07.09-.15.14-.21.09-.11.17-.21.26-.28.58-.68,1.6-1.16,1.95-1.28.07-.03,0,0-.02,0h-.09s-.18.04-.18.04c-.12.01-.24.01-.36.01-.23,0-.45-.03-.64-.06-.37-.07-.61-.18-.55-.2-.36-.1-.67-.23-.9-.36-.12-.06-.22-.13-.26-.16h0s0,0,0,0l-.05-.42h0s0,0,0,0h0s0,0,0,0h0s.01,0,.01,0c0,0,.01,0,.01,0,0,0,0,0,0,.01,0,0,0,0,0,.01h0s0,.01,0,.01h0s0,0,0,0h0s0,0,0,0h0l.04.37-.04-.37c.52-.4.79-.92.85-1.38.08-.46-.02-.85-.15-1.14-.27-.58-.62-.78-.8-.93Z"></path>
            </g>
          </g>
        </g>
        <g>
          <path class="cls-3 color-body" d="M34.89,124.99c5.82-16.38,22.72-25.97,39.55-19.96,16.89,6.03,26.93,27.84,20.16,43.22-4.43,10.06-15.05,16.69-26.46,16.52-11.4-.17-25.38-6.88-31.36-17.1-3.69-6.3-4.8-14.49-1.89-22.68Z" style="fill:#ffffff;--backup-fill:#ffffff"></path>
          <path class="cls-2" d="M34.95,125.01c.2.49-.37,2.49-.62,5.48-.29,2.97-.18,6.97,1.11,10.94.64,1.98,1.51,3.95,2.66,5.73,1.13,1.79,2.54,3.39,3.96,4.82,2.95,2.79,6.14,4.73,8.52,5.83,4.2,1.98,8.86,3.34,13.59,3.87,4.73.5,9.45-.12,13.77-1.96,4.3-1.82,8.1-4.79,10.74-8.47,1.3-1.83,2.41-3.84,3.01-5.93.75-2.05.99-4.25,1.16-6.41.21-7.67-2.85-15.52-7.67-21.39-2.41-2.95-5.28-5.43-8.42-7.22-3.11-1.78-6.61-2.93-10.08-3.39-6.96-.94-13.89,1.03-19.19,4.72-2.66,1.83-4.96,4.02-6.9,6.36-1.94,2.35-3.38,4.91-4.64,7.4.14-2.58.68-5.87,2.18-9.15,1.47-3.28,3.75-6.57,6.6-9.26,2.84-2.69,6.2-4.8,9.41-5.95.78-.35,1.58-.55,2.34-.76.76-.19,1.48-.43,2.18-.52,1.4-.18,2.62-.38,3.63-.32,4.05,0,7.95.86,11.5,2.18,1.8.58,3.48,1.51,5.14,2.35.78.5,1.56.99,2.34,1.49l.58.37.54.42,1.07.84,1.06.84c.35.28.65.61.98.92.64.62,1.29,1.22,1.9,1.86,1.14,1.34,2.32,2.61,3.27,4.05,1.05,1.36,1.86,2.86,2.73,4.29.4.74.74,1.5,1.11,2.25l.54,1.12.45,1.16c1.29,3.04,2.01,6.23,2.49,9.38.08.8.16,1.59.23,2.38.09.79.02,1.59.04,2.37.07,1.58-.21,3.14-.36,4.69-.15.77-.34,1.52-.51,2.28l-.26,1.13-.39,1.09c-.27.72-.51,1.46-.8,2.16-.34.68-.65,1.38-1.01,2.04-1.45,2.66-3.31,5.03-5.42,7.05-4.23,4.06-9.47,6.72-14.85,7.9-2.69.61-5.44.79-8.09.67-2.66-.13-5.23-.54-7.7-1.15-2.46-.64-4.83-1.47-7.08-2.45-2.23-1.03-4.37-2.17-6.35-3.5-3.94-2.67-7.39-5.95-9.73-9.88-1.18-1.82-2.2-4.19-2.83-6.75-.62-2.56-.86-5.3-.67-7.8.32-5.05,2.15-8.94,2.77-10.13Z"></path>
        </g>
        <g class="cls-1">
          <g class="cls-5">
            <path class="cls-2" d="M40.66,125.49c.1-.04.4-.04.82.13.41.16,1,.47,1.42,1.15.44.66.58,1.7.21,2.64-.35.94-1.08,1.74-1.94,2.34l-.15-1.2c.33.1.67.19,1.02.26.18.03.35.07.53.1l.28.04c.13.02.26.03.39.05,1.03.12,2.09.14,3.49-.05.68.36,1.25.48,1.76.53.25.03.48.03.7.02.11,0,.21,0,.3-.02h.14s.07-.02.07-.02c.03,0,.04,0,0,.01-.23.11-.43.2-.56.32-.38.33-.67.61-.63,1.81-.3.15-.61.31-.92.46l-.67.46c-.21.16-.49.31-.66.47l-.54.5c-.38.3-.72.78-.81.9l-.2.3c-.05.08-.06.11-.08.15-.07.16-.11.32-.11.47,0,.07,0,.14.02.21.02.06.02.15.13.11.18-.02.33-.05.48-.08.14-.02.08-.02.51-.06l.98-.1,1.03-.13c.6-.09,1.14-.15,1.83-.28,1.3-.21,2.72-.56,4.27-.97.36.57.64.98.81,1.19.17.25.35.39.37.49-.01.18.02.34.58,1.58.06.14.13.28.19.42l-1.12.78-.75.69-.75.69c-.23.23-.34.44-.52.67l-.49.66-.06.08-.03.04-.06.09h0s0,.01,0,.01l-.03.07-.07.14c-.09.18-.18.36-.24.54-.08.18-.14.36-.18.53-.06.18-.09.35-.11.52-.04.17-.03.33-.04.49-.01.07,0,.18,0,.22,0-.02,0-.07,0-.06,0,0,0,0,0,0-.43.11,1.12-.26,1.97-.47,3.87-.98,7.54-2.08,10.88-3.21l1.76,3.1c-4.68,3.27-7.96,7.1-9.39,10.92-.41-2.15.33-5.44,1.89-8.16,1.52-2.74,3.67-4.91,5.08-5.91l2.13,3.74c-.31.11-.48.16-.63.21-4.27,1.17-8.37,2.11-12.27,2.89-.63.13-1.25.25-1.86.38-.36.09-.67.08-1,.13l-.49.05h-.12s-.06-.11-.06-.11l-.11-.23c-.15-.31-.3-.62-.42-.93-.13-.3-.25-.61-.31-.95-.08-.33-.16-.64-.16-1.01l-.02-.47.03-.41c.09-1.08.43-2.08.88-2.97l.18-.33.09-.16s.05-.09.03-.05l.03-.04.23-.34c.17-.21.33-.44.52-.63.61-.68,1.33-1.25,1.99-1.67.03-.02.13-.08.1-.07l-.16.05-.32.09c-.22.06-.43.11-.64.17-.42.11-.83.2-1.22.28-.44.09-.86.17-1.28.23l-.67.1c-.35.04-.7.08-1.05.12-1.16.15-3.36.22-5.23.19l-.14-.16s-.05-.05-.07-.09v-.15s-.05-.62-.05-.62c-.01-.4-.01-.79.04-1.19.11-.8.36-1.64.84-2.4.1-.2.22-.39.34-.55l.29-.41.27-.33c.04-.05.09-.11.13-.16.18-.2.36-.38.56-.54.54-.45,1.11-.74,1.72-.97-.57.11-1.24.18-1.85.13-.2-.01-.4-.04-.61-.08-.12-.02-.25-.04-.38-.08l-.64-.17c-.57-.16-1.11-.37-1.54-.58l-1.64-.8,1.45-.75c.66-.34,1.23-.8,1.6-1.34.38-.54.5-1.16.38-1.72-.13-.56-.48-1.01-.82-1.32-.35-.3-.66-.47-.84-.59Z"></path>
          </g>
        </g>
        <path class="cls-2" d="M92.74,120.43c.27-1.07,5.38-3.1,11.43-5.06,6.04-1.99,13.01-3.86,16.88-5.16,4.08-1.4,8.44-2.6,13.07-3.45,2.32-.42,4.71-.73,7.25-.85.63-.04,1.27-.05,1.94-.04h.99s1.04.09,1.04.09c.35.03.68.04,1.05.1l1.24.21c1.01.2,2.02.54,3.03.82l1.59,1.42,1.16,1.1c.6.57,1.18,1.15,1.75,1.74,1.15,1.16,2.22,2.36,3.29,3.56,2.1,2.41,4.05,4.88,5.86,7.38,7.9,10.9,13.14,23.61,15.04,35.65.99,6.01,1.2,11.82.8,17.13-.39,5.31-1.39,10.11-2.63,14.22-2.04-4.06-3.82-9.48-5.43-14.32-1.58-4.86-2.86-9.19-2.92-11.62-.02-5.26-.74-10.4-1.98-15.26-1.26-4.85-3.04-9.42-5.15-13.65-2.1-4.23-4.58-8.1-7.23-11.63-1.33-1.76-2.72-3.43-4.13-5-.71-.79-1.43-1.55-2.16-2.28-.36-.36-.73-.73-1.09-1.07-.23-.21-.46-.41-.69-.61-.26-.07-.52-.14-.77-.19l-.41-.06-.56-.09c-.79-.07-1.58-.13-2.4-.13-1.63,0-3.28.09-4.91.27-3.27.35-6.46.91-9.55,1.51-6.18,1.21-11.97,2.56-17.49,3.55-5.61,1.15-15.86,1.64-17.91,1.73Z"></path>
        <path class="cls-2" d="M210.95,306.54c.36-.55,2.15-.33,4.19-.09,2.04.26,4.34.49,5.65.33,4.62-.56,9.63-.64,13.96-1.43,3.76-.68,7.3-1.49,10.06-2.66,1.4-.58,2.58-1.24,3.58-2.05,1.01-.8,1.86-1.81,2.5-2.98.37.3.72.68,1.04,1.11.28.43.54.93.72,1.47.33,1.07.42,2.34.17,3.49-.45,2.37-1.94,4.16-2.96,4.51-2.09.78-3.98,1.17-5.75,1.48-1.77.3-3.41.5-4.99.66-3.14.31-6.01.55-8.73.7-5.41.29-10.25.31-14.2-1.06-1.92-.52-4.75-2.95-5.24-3.49Z"></path>
      </g>
    </g>
  </g>
</svg>