<svg xmlns="http://www.w3.org/2000/svg" viewBox="0 0 380 600"><defs transform="matrix(-1, 0, 0, 1, 380, 0)"><style>.cls-1{isolation:isolate;}.cls-2{fill:#ffd635;}.cls-3{mix-blend-mode:multiply;}.cls-4{opacity:0.3;}.cls-5{fill:#fff8b8;}</style></defs><g class="cls-1" transform="matrix(-1, 0, 0, 1, 380, 0)"><g id="animals_2"><path class="cls-2" d="M118.447,218.245c26.453-30.155,53.561-12.328,38.723-28.029a143.224,143.224,0,0,1-17.985-29.44c-4.592-10.006-24.443,19.683-26.261,27.774a40.625,40.625,0,0,0,1.121,26.342C114.653,216.829,116.019,220.031,118.447,218.245Z" /><path d="M118.484,218.294a1.644,1.644,0,0,1-1.45.938,2.358,2.358,0,0,1-1.7-.588,5.691,5.691,0,0,1-1.29-1.6,10.391,10.391,0,0,1-.5-.989l-.224-.53-.1-.273-.088-.2c-.314-.71-.655-1.461-.942-2.271a34.585,34.585,0,0,1-1.521-5.295,42.4,42.4,0,0,1-.713-11.721,46.673,46.673,0,0,1,.685-5.3c.135-.823.312-1.541.451-2.24.067-.344.139-.718.233-1.088q.137-.532.274-1a44.453,44.453,0,0,1,2.475-6.217c.957-2.011,2.016-3.992,3.158-5.952a78.3,78.3,0,0,1,7.995-11.4,32.68,32.68,0,0,1,5.471-5.2c.276-.2.578-.4.879-.591.335-.2.579-.358,1.069-.6a9.741,9.741,0,0,1,2.954-.942,6.687,6.687,0,0,1,3.031.3,6.329,6.329,0,0,1,2.528,1.69,7.008,7.008,0,0,1,.925,1.256c.061.1.157.244.19.315l.113.227.226.456.9,1.813c.5.966.981,1.934,1.494,2.883,1,1.906,2.052,3.769,3.116,5.588,1.865,3.179,3.809,6.3,5.842,9.308,1.009,1.512,2.052,2.985,3.1,4.436.531.721,1.057,1.442,1.6,2.143l.81,1.05.708.9.9.991.586.67c.26.308.5.568.774.916A12.783,12.783,0,0,1,165,194.469a5.5,5.5,0,0,1,.251,2.059,4.99,4.99,0,0,1-.586,2.036,5.732,5.732,0,0,1-3.211,2.579,13.993,13.993,0,0,1-2.394.617c-.836.144-1.727.268-2.449.36l-2.576.305c-1.672.206-3.285.444-4.863.743a53.651,53.651,0,0,0-17.015,6.277A74.174,74.174,0,0,0,119.3,219a38.014,38.014,0,0,1,10.3-14.34,38.758,38.758,0,0,1,7.577-5.254,25.57,25.57,0,0,1,6.333-2.423,73.489,73.489,0,0,1,9.464-1.283l2.248-.161.507-.032.19.012.346.023a4.287,4.287,0,0,0,.79-.028c.267-.032.613-.144.675-.413a2.341,2.341,0,0,0-.546-1.457,11.317,11.317,0,0,0-.9-1.165l-.72-.844-.676-.918c-1.681-2.3-3.244-4.612-4.728-6.914-2.962-4.607-5.622-9.175-8.038-13.691-1.2-2.252-2.356-4.52-3.426-6.719l-.718-1.5a5.194,5.194,0,0,0-.3-.569,2.148,2.148,0,0,0-.344-.427,1.857,1.857,0,0,0-2.024-.273,9.875,9.875,0,0,0-2.376,1.464,27.026,27.026,0,0,0-2.41,2.2,54.463,54.463,0,0,0-4.254,5,97.837,97.837,0,0,0-6.93,10.551c-1,1.764-1.938,3.525-2.747,5.262-.4.867-.777,1.732-1.078,2.563-.155.425-.274.8-.38,1.209q-.183.693-.362,1.378a46.715,46.715,0,0,0-1.476,10.57,50.952,50.952,0,0,0,1.013,11.718c.091.5.229.972.343,1.446l.192.763.138.667a7.649,7.649,0,0,0,.841,2.247,1.77,1.77,0,0,0,1.423.968A2.65,2.65,0,0,0,118.484,218.294Z" /><g class="cls-3"><g class="cls-4"><path d="M224.188,380.323a17.531,17.531,0,0,1,.364-3.074l.731.475a30.292,30.292,0,0,1-9.242,5.569l-3.132,1.217,2.12-2.677a45.6,45.6,0,0,0,6.987-12.38l2.008,1.356a269.235,269.235,0,0,1-24.432,21.059l-2.349-2.27a187.329,187.329,0,0,1,19.366-23.939l2.544,2.983c-11.7,8.445-22.351,16.177-29.729,21.686l-7.818,5.82-3.576-4.29A316.911,316.911,0,0,1,210.5,362.775l3.627,6.308a124.839,124.839,0,0,0-25.3,15.4c-8,6.1-15.605,12.909-23.254,19.764l-6.7-5.6a99.706,99.706,0,0,1,17.894-21.607c6.683-6.269,13.728-11.783,20.582-17.143l5.158,8.085A235.9,235.9,0,0,0,182.122,380.1,241.01,241.01,0,0,0,153.6,402.306l-7.362-7.078a231.576,231.576,0,0,1,40.948-38.515l4.66,8.855a101.922,101.922,0,0,0-24.979,12.555q-2.84,1.954-5.512,4.084c-1.8,1.436-3.771,3.038-5.759,4.5a47.694,47.694,0,0,1-13.657,7.436l-4.463-7.845c11.764-10.238,22.674-21.628,35.684-29.744l3.041,7.109a60.622,60.622,0,0,0-17.75,7.07c-5.436,3.144-10.5,6.8-15.543,10.292l-4.194-4.389c3.529-4.12,6.644-8.228,10.391-11.8a51.638,51.638,0,0,1,11.956-8.275l1.972,4c-8.26,3.248-14.949,5.814-21.341,8.239,5.66-3.35,12.481-7.137,20.091-11.179l.851,1.724a50.694,50.694,0,0,0-10.455,9.186c-3,3.609-5.674,7.868-8.654,12l-4.282-4.481A169.635,169.635,0,0,1,155.8,363.317a64.108,64.108,0,0,1,18.36-8.236l3.8,8.872c-7.646,5.347-13.606,10.916-17.883,14.532-5.667,4.85-11.221,9.935-16.68,14.485l-4.169-7.328c3.945-1.113,7.937-3.556,11.724-6.28q1.43-1.027,2.844-2.122l2.917-2.251c2.01-1.513,4.052-2.964,6.138-4.327a110.57,110.57,0,0,1,26.392-12.651l2.7,5.126a220.877,220.877,0,0,0-40.087,36.782l-3.162-3.04a250.624,250.624,0,0,1,50.691-34.915l2.111,3.308c-7.279,5.614-14.368,11.155-20.741,17.163a91.762,91.762,0,0,0-16.25,19.608l-3.269-2.732c8-7.124,15.9-14.124,24.2-20.353A128.236,128.236,0,0,1,211.7,363.315l2.562,4.455a342.436,342.436,0,0,0-32.287,28.112l-3.617-4.339q19.736-14.019,38.068-26.769l3.573,4.19q-5.144,5.192-9.769,10.619c-2.827,3.36-5.972,7.21-9.689,12.307l-3.351-3.238c8.34-5.872,17.473-12.986,25.137-19.645l2,1.347a44.739,44.739,0,0,1-8.144,12.446l-.639-.922a34.648,34.648,0,0,0,9.422-4.569l.151-.1-.05.169C224.632,378.827,224.379,379.679,224.188,380.323Z" /></g></g><path class="cls-2" d="M287.581,221.215c-60.934-48.977-165.16-45.485-196.266,21.88C-16.154,475.835,421.039,411.7,287.581,221.215Z" /><path d="M287.631,221.18a57.628,57.628,0,0,1,3.873,5.108l1.624,2.3c.286.416.6.838.891,1.291l.874,1.423,3.969,6.528c1.353,2.434,2.7,5.131,4.185,7.965a23.619,23.619,0,0,1,1.039,2.2l1,2.294q1.011,2.324,2.069,4.759.884,2.5,1.8,5.106.457,1.3.922,2.624c.3.886.506,1.808.765,2.721q.741,2.753,1.5,5.578l1.083,5.814a89.813,89.813,0,0,1,.679,24.343,80.029,80.029,0,0,1-6.469,23.243c-.4.893-.768,1.792-1.177,2.665q-.681,1.276-1.354,2.535a55.421,55.421,0,0,1-2.774,4.882c-1,1.542-1.932,3.1-2.943,4.549l-3.1,4.162a109.987,109.987,0,0,1-12.136,13.076c-13.116,12.116-29.4,21.545-47.024,28.127a181.729,181.729,0,0,1-56,11.177,160.61,160.61,0,0,1-29-1.455,127.315,127.315,0,0,1-28.192-7.3,94.851,94.851,0,0,1-25.247-14.457c-.989-.708-1.843-1.585-2.755-2.386L93.041,367.6c-1.694-1.737-3.331-3.532-4.95-5.325l-2.222-2.868-1.106-1.434a13.041,13.041,0,0,1-1.045-1.473l-1.941-3.044a28.892,28.892,0,0,1-1.829-3.095l-1.436-2.794-.716-1.4a11.028,11.028,0,0,1-.654-1.424l-2.332-5.818-1.785-5.989a28.319,28.319,0,0,1-.7-3.032l-.618-3.049a54.062,54.062,0,0,1-.885-6.132l-.347-3.074c-.126-1.025-.093-2.051-.146-3.076-.046-2.049-.169-4.1-.144-6.144q.141-3.057.284-6.107c.031-2.044.383-4.039.594-6.053l.363-3.012.183-1.5.274-1.485c.77-3.947,1.4-7.926,2.489-11.763l1.488-5.79q.9-2.836,1.8-5.664l.9-2.825.451-1.411.518-1.381q1.047-2.76,2.089-5.51c1.315-3.7,2.974-7.231,4.512-10.8a113.179,113.179,0,0,1,5.227-10.608,88.854,88.854,0,0,1,14.362-18.66A93.433,93.433,0,0,1,123.9,201.689a114.917,114.917,0,0,1,20.331-9.479,129.4,129.4,0,0,1,21.111-5.335l5.285-.8,5.273-.533c1.748-.206,3.5-.281,5.242-.36,1.744-.062,3.477-.221,5.208-.2h5.168c1.715-.014,3.419.134,5.118.194,3.4.092,6.749.508,10.073.8a163.529,163.529,0,0,1,19.33,3.452,155.473,155.473,0,0,1,34.534,12.652,142.971,142.971,0,0,1,27.725,18.245,167.012,167.012,0,0,0-29.139-15.559,171.355,171.355,0,0,0-17.749-6.255c-3.091-.8-6.146-1.744-9.282-2.379-1.56-.342-3.109-.72-4.668-1.037l-4.683-.848c-.779-.135-1.55-.3-2.329-.411l-2.333-.321-4.621-.637-4.579-.437-2.259-.22-2.244-.122-4.415-.24c-1.454-.061-2.894-.041-4.311-.069-2.834-.088-5.584.035-8.234.116a165.535,165.535,0,0,0-25.555,3.026,108.359,108.359,0,0,0-34.365,12.515l-3.836,2.375-.958.592-.911.657L120,212.386c-2.49,1.672-4.693,3.679-6.989,5.565-1.1.992-2.134,2.056-3.2,3.078l-1.591,1.546-1.466,1.655q-1.458,1.664-2.911,3.32l-2.64,3.52c-.432.591-.9,1.158-1.3,1.768L98.73,234.69c-.772,1.238-1.582,2.454-2.322,3.707l-2.034,3.859-1.009,1.931L92.46,246.2l-3.6,8.033c-1.1,2.7-2.127,5.425-3.187,8.123A159.777,159.777,0,0,0,77,295.329a96.329,96.329,0,0,0,.616,32.755,67,67,0,0,0,2.012,7.78,32.318,32.318,0,0,0,1.349,3.754c.492,1.234.959,2.476,1.469,3.695a69.862,69.862,0,0,0,8.134,13.435l1.185,1.549.6.77.658.717,2.627,2.862a34.272,34.272,0,0,0,2.778,2.693c.957.862,1.881,1.759,2.858,2.589a84.608,84.608,0,0,0,12.633,8.6,106.849,106.849,0,0,0,27.945,10.6,145.541,145.541,0,0,0,28.853,3.535,172.324,172.324,0,0,0,28.122-1.631,176.11,176.11,0,0,0,51.126-15.316c15.54-7.407,29.267-17.3,39.859-29.216a90.53,90.53,0,0,0,13.2-19.294,78.967,78.967,0,0,0,6.99-21.4,84.677,84.677,0,0,0,.712-24.017,114.164,114.164,0,0,0-6.243-25.669c-.783-2-1.552-3.974-2.3-5.9-.783-1.91-1.7-3.705-2.5-5.481-1.563-3.579-3.375-6.733-4.915-9.6-1.486-2.9-3.055-5.3-4.282-7.319Z" /><path class="cls-2" d="M289.371,259.932c13.182-1.158,20.078-13.957,21.872-25.948,2.883-16.847.216-55.01-7.993-60.183-11.73-7.39-40.727,26.133-50.79,32.492" /><path d="M252.427,206.241c.107-.45,1.381-1.548,3.186-3.3l6.786-6.561c5.133-5.02,11.119-10.615,14.484-13.766a78.863,78.863,0,0,1,9.822-8.1,38.876,38.876,0,0,1,6.024-3.391,16.547,16.547,0,0,1,7.745-1.581,10.454,10.454,0,0,1,4.538,1.379,11.647,11.647,0,0,1,3.335,3.317,29.191,29.191,0,0,1,3.155,6.7,81.863,81.863,0,0,1,3.08,12.954,140,140,0,0,1,1.748,21.951,94.339,94.339,0,0,1-2.028,21.09c-1.643,6.845-4.764,13.107-9.3,17.625a22.5,22.5,0,0,1-7.588,5.056,21.316,21.316,0,0,1-7.943,1.458,31.061,31.061,0,0,0,6.611-4.184,24.813,24.813,0,0,0,5.165-6.264c2.721-4.572,3.921-9.439,4.946-11.88a43.687,43.687,0,0,0,2.327-7.777,77.405,77.405,0,0,0,1.22-8.083,121.653,121.653,0,0,0,.508-15.831,114.407,114.407,0,0,0-1.4-14.825,51.936,51.936,0,0,0-3.659-13.178,13.864,13.864,0,0,0-1.567-2.58,3.015,3.015,0,0,0-.447-.507,2.7,2.7,0,0,0-.457-.424,4.229,4.229,0,0,0-.472-.325l-.556-.257a7.8,7.8,0,0,0-5.194.092c-3.675,1.122-7.085,3.371-10.229,5.595-6.291,4.578-11.761,9.551-17.085,13.975-2.488,2.152-6.088,4.9-9.381,7.188A46.916,46.916,0,0,1,252.427,206.241Z" /><path class="cls-5" d="M291.74,255.672a44.027,44.027,0,0,1-6.648-7.32l13.989-2.474c-10.979-5.27-22.635-12.75-28.524-23.661.271-11.4,8.689-24.927,16.2-33.159,30.009-36.533,37.8,52.977,8.779,68.9" /><path d="M295.523,257.931a52.341,52.341,0,0,0,4.383-3.712,31.283,31.283,0,0,0,3.439-4.177,41.091,41.091,0,0,0,3.169-5.574,60.93,60.93,0,0,0,4.3-12.98,74.208,74.208,0,0,0,1.535-11.111,91.515,91.515,0,0,0-.359-15.469,51.689,51.689,0,0,0-3.8-15.3,16.175,16.175,0,0,0-4.292-5.988,6.269,6.269,0,0,0-6.124-1.094,16.55,16.55,0,0,0-6.055,3.952c-1.828,1.715-3.459,3.809-5.179,5.772A75.223,75.223,0,0,0,276.4,208.042a45.83,45.83,0,0,0-3.071,8.537,28.915,28.915,0,0,0-.722,4.318l-.039.536-.02.265-.006.038c0,.016,0,.013,0,.02l.127.223c.365.632.709,1.273,1.128,1.869a48.929,48.929,0,0,0,11.931,12.274c2.254,1.678,4.572,3.2,6.9,4.6.581.352,1.16.7,1.747,1.029l1.423.791,1.589.833,6.082,3.116c-1.868.334-3.849.633-5.659.93l-4.944.784-3.136.458-.77.112-.383.055-.189.021-.758.083a4.338,4.338,0,0,0-.77.114l.388.609c.15.217.3.431.447.644l.122.166.2.263.439.544a46.027,46.027,0,0,0,3.657,3.969,32.833,32.833,0,0,1-4.179-3.175c-.367-.328-.7-.635-1.094-1.018-.4-.4-.826-.844-1.259-1.328s-.882-1-1.354-1.568c-.045-.065-.148-.153-.148-.2l.214-.059.439-.12.924-.25,6.956-1.753.39-.1.138-.052.244-.1c.148-.062.268-.118.364-.169.177-.1.312-.174.271-.242a7.243,7.243,0,0,0-.963-.262,17.942,17.942,0,0,1-2.519-1.266,47.518,47.518,0,0,1-5.374-3.377c-6.109-4.534-11.541-9.879-15.056-16.253l-.328-.594a6.915,6.915,0,0,1-.473-.909l.141-1.664c.05-.91.243-1.788.38-2.671s.395-1.732.586-2.592c.238-.846.5-1.679.756-2.51a58.277,58.277,0,0,1,4.154-9.3,82.144,82.144,0,0,1,11.248-15.625,32.231,32.231,0,0,1,6.82-6.306,13.532,13.532,0,0,1,4.269-1.925,8.943,8.943,0,0,1,4.74.089,10.14,10.14,0,0,1,3.958,2.424,16.484,16.484,0,0,1,2.727,3.506,32.935,32.935,0,0,1,3.265,7.808,67.5,67.5,0,0,1,2.372,15.725,80.384,80.384,0,0,1-3.768,28.327,43.366,43.366,0,0,1-7.076,13.345,27.114,27.114,0,0,1-4.891,4.747,24.1,24.1,0,0,1-2.064,1.367Z" /><g class="cls-3"><g class="cls-4"><path d="M299.737,208.4c.569.245.631,1.634.435,3.213-.174,1.585-.626,3.335-.659,4.41-.129,3.809-1.975,7.784-4.161,11.028a19.842,19.842,0,0,1-7.389,6.622,14.035,14.035,0,0,1-8.111,1.591,20.754,20.754,0,0,1,.678-2.7c.27-.819.529-1.644.819-2.284a9.056,9.056,0,0,1,.852-1.613,1.523,1.523,0,0,1,.887-.657,11.368,11.368,0,0,0,6.179-2.548A14.7,14.7,0,0,0,293,220.9c1.806-3.279,2.357-6.465,3.689-8.944a8.477,8.477,0,0,1,1.554-2.059A19.712,19.712,0,0,1,299.737,208.4Z" /></g></g><path class="cls-5" d="M261.4,366.75c3.876-2.872,25.659-15.128,32.086-33.875,13.737-40.066-25.523-67.21-63.3-41.73-52.363,35.317-53.246.618-85.33-7.646-26.653-6.865-55.03,23.556-54.618-8.3.155-12.053,2.249-33.672-7.075-5.174C40.491,400.459,192.712,411.618,261.4,366.75Z" /><path d="M109.193,304.823c-1.215,5.393-1.871,14.66,4.832,15.855,4.846-2.171,7.53-8.036,10.854-12.052a27.18,27.18,0,0,0,3.05,7.21c6.81,0,12.018-8.313,5.533-13.62-8.477-6.937-18.727-8.725-25.324-7.661-6.488,1.046-6.814,11.828-4.469,16.812.851-1.277,3.379-3.623,5.442-5.994" /><path d="M109.134,305.393a8.033,8.033,0,0,1-1.415,2.02c-.45.539-.92,1.079-1.572,1.811-.36.4-.744.827-1.142,1.325s-.835,1.075-1.264,1.672a.544.544,0,0,0-.167.053l-.079.037-.039.018-.032-.073-.264-.609c-.188-.413-.343-.834-.5-1.262a9.443,9.443,0,0,1-.42-1.367l-.19-.723c-.052-.234-.1-.532-.128-.714a20.577,20.577,0,0,1-.254-4.831c.222-3.155,1.348-6.188,3.116-7.689a4.9,4.9,0,0,1,1.029-.779,5,5,0,0,1,1.187-.568,12.339,12.339,0,0,1,2.416-.537,27.484,27.484,0,0,1,4.773-.2,34.294,34.294,0,0,1,9.569,1.846,36.763,36.763,0,0,1,8.8,4.443c.685.454,1.322.973,1.981,1.456a11.884,11.884,0,0,1,1.94,1.977,8.627,8.627,0,0,1,1.85,5.413,9.541,9.541,0,0,1-2.329,5.948,10.593,10.593,0,0,1-5.205,3.359l-.765.177a4.938,4.938,0,0,1-1.041.155l-1.253.09-.626.045c-.093-.014-.232.061-.289-.024l-.163-.268-.647-1.066-.312-.543-.253-.462c-.213-.4-.412-.8-.6-1.209s-.366-.812-.535-1.222l-.086-.219v-.012l0-.086c-.006-.026-.028-.006-.053,0-.008,0-.024.012-.095.1l-.043.052-.094.126-.362.5c-.965,1.346-1.953,2.715-3.074,4.007a18.856,18.856,0,0,1-3.845,3.479l-.57.339a6.415,6.415,0,0,1-.664.361l-.867.418c-.148.044-.275.2-.439.149l-.493-.142-.941-.271a2.818,2.818,0,0,1-.649-.256,7.032,7.032,0,0,1-1.216-.7,7.977,7.977,0,0,1-2.9-4.247,14.209,14.209,0,0,1-.558-4.424,27.7,27.7,0,0,1,1.269-7.581c.063,1.615.132,3.556.373,5.572a17.319,17.319,0,0,0,1.539,5.751,6.117,6.117,0,0,0,1.533,1.869,3.6,3.6,0,0,0,.444.275,1.489,1.489,0,0,0,.447.224c.158.055.31.112.456.173a.756.756,0,0,0,.238.058c.079.013.195.036.151.021-.069-.027.023-.079.683-.516.506-.354.943-.694,1.31-.979a25.437,25.437,0,0,0,4.221-4.462l2.349-3.065c.539-.676,1.063-1.33,1.577-1.934l.773-.92.384-.454c.061-.064.134-.176.184-.2l.15-.08c.385,1.493.761,3.045,1.173,4.366.109.315.22.675.324.945l.274.731c.145.383.3.76.466,1.132.153.35.364.785.493,1.048a3.224,3.224,0,0,0,.305.554l.638-.018,1.029-.209A7.484,7.484,0,0,0,135.6,308.5a5.879,5.879,0,0,0-.967-3.877,12.11,12.11,0,0,0-3.05-2.872,33.092,33.092,0,0,0-7.338-4.036A31.383,31.383,0,0,0,109.29,295.5l-.869.121c-.277.049-.487.136-.733.193a2.066,2.066,0,0,0-.671.277,2.48,2.48,0,0,0-.616.372,5.85,5.85,0,0,0-1.823,2.33,14.688,14.688,0,0,0-1.209,6.117c-.016.472.025.978.045,1.513s.107,1.172.119,1.415a10.423,10.423,0,0,0,.18,1.142,6.1,6.1,0,0,0,.165.651l.1.344c.055-.062.11-.126.173-.187.337-.337.767-.69,1.228-1.08l.789-.68.81-.707C108,306.426,108.78,305.717,109.134,305.393Z" /><path d="M100.281,325.125c.662-.062,1.122.708,1.72,1.513a6.116,6.116,0,0,0,1.839,2,33.9,33.9,0,0,0,5.311,2.622c1.316.354,2.344.577,3.7.871,1.345.324,2.951.392,4.637.753a8.165,8.165,0,0,1,.107,2.491,5.82,5.82,0,0,1-.622,2.167,4.944,4.944,0,0,1-1.108,1.445,1.428,1.428,0,0,1-1.135.338,32.651,32.651,0,0,1-6.052-2.227,38.837,38.837,0,0,1-4.271-2.4c-2.474-1.657-4.565-3.621-5.05-5.931a3.977,3.977,0,0,1,.2-2.1A7.811,7.811,0,0,1,100.281,325.125Z" /><path d="M196.643,332.364c.011.371-.769,1.177-2.026,2.244-.628.534-1.375,1.132-2.2,1.773-.815.656-1.805,1.207-2.783,1.852-1,.618-2.007,1.293-3.056,1.892l-3.167,1.637-1.492.783c-.493.23-.981.424-1.438.628-.918.4-1.741.775-2.422,1.111a47.453,47.453,0,0,1-16.445,4.13,70.59,70.59,0,0,1-17.192-1.179c-2.4-.371-4.692-.966-7-1.5-2.259-.621-4.532-1.215-6.695-1.918-4.376-1.352-8.508-2.85-12.435-4.316l-.764-.292q-.56-.236-1.1-.493a6.332,6.332,0,0,1-1.043-.632,5.834,5.834,0,0,1-.953-.756,9.355,9.355,0,0,1-2.454-3.725,16.035,16.035,0,0,1-.7-6.858,37.241,37.241,0,0,1,2.7-10.305c1.045,3.021,1.718,7.214,2.716,10.539a13.948,13.948,0,0,0,1.615,3.768c.536.764.813.88.977,1.176.052.061.071.163.147.22a2.669,2.669,0,0,1,.224.2c.019.065.279.179.488.279l.635.3,2.523,1.176c1.677.767,3.318,1.484,4.952,2.175q4.893,2.055,9.588,3.578a69.88,69.88,0,0,0,18.03,3.485,55.214,55.214,0,0,0,15.757-1.534l3.488-.973c1.141-.318,2.217-.792,3.305-1.15,2.2-.671,4.183-1.695,6.216-2.433.48-.182.99-.414,1.528-.664s1.118-.483,1.715-.721l1.831-.7a18.481,18.481,0,0,0,1.81-.719C193.836,333.437,195.935,332.615,196.643,332.364Z" /><path d="M118.644,334.1c-3.01,1.5-6.574,4.37-6.9,3.377,5.731,8.527,17.548,15.506,40.708,7.413C146.488,346.971,125.259,342.626,118.644,334.1Z" /><path d="M118.668,334.078a11.121,11.121,0,0,1,1.989,1.567,27.789,27.789,0,0,0,4.31,2.805,41.4,41.4,0,0,0,10.139,3.78,74.23,74.23,0,0,0,8.5,1.353l2.185.155c.722,0,1.454.047,2.168.031a18.681,18.681,0,0,0,2.089-.145,9.433,9.433,0,0,0,.976-.151c.285-.083.568-.16.854-.23l1.149,3.289a71.36,71.36,0,0,1-10.232,2.957,44.265,44.265,0,0,1-9.158.971,32.809,32.809,0,0,1-9-1.337,24.119,24.119,0,0,1-7.741-3.97,15.617,15.617,0,0,1-1.593-1.336l-.751-.69-.683-.74a15.12,15.12,0,0,1-1.273-1.5l-.407-.516c-.16-.2-.32-.4-.452-.6l-.811-1.193-.333-1.394-.011-.042,0-.021,0-.011v0c-1.045-.331,1.422.448,1.169.369v0l.034.07a.278.278,0,0,0,.117.1.272.272,0,0,0,.222,0,4.922,4.922,0,0,0,.541-.221l.289-.136.145-.071.073-.035c.029.009-.007-.039-.04-.085l-.091-.131-.355-.514c-.019-.035-.081-.1-.064-.11l.055-.025.11-.048c.149-.062.289-.13.425-.2l1.146-.577a42.219,42.219,0,0,1,4.037-1.9c-.921.931-1.954,2.036-3.14,3.174l-.456.426a5.464,5.464,0,0,0-.408.385l-.385.458a.917.917,0,0,1-.127.136c-.018.016-.036.021-.047.012,0,.009-.024-.086.045-.013.2.156.363.277.5.367a1.533,1.533,0,0,0,.338.18l.066.022.029.008.1.089.39.362c.523.469,1.061.868,1.52,1.279.988.741,1.788,1.4,2.364,1.838a21.055,21.055,0,0,0,8.12,4.216c.366.1.729.214,1.1.305l1.114.2a17.963,17.963,0,0,0,2.223.324l2.217.171,2.2-.024a17.654,17.654,0,0,0,2.163-.134l2.127-.214c1.394-.253,2.773-.465,4.11-.771,1.328-.35,2.645-.651,3.914-1.041l3.721-1.234.543,1.555a14.38,14.38,0,0,1-3.763.6,35.165,35.165,0,0,1-3.553-.048,53.877,53.877,0,0,1-6.63-.918,45.63,45.63,0,0,1-11.481-3.81,24.876,24.876,0,0,1-5.545-3.737,13.146,13.146,0,0,1-1.144-1.146,9.022,9.022,0,0,1-.921-1.053Z" /><g class="cls-3"><g class="cls-4"><path d="M176.651,216.117c.219.593-.958,1.821-2.443,3.043a42.205,42.205,0,0,0-4.016,3.457c-2.869,3.3-6.319,6.181-8.276,9.257a36.4,36.4,0,0,0-3.883,8.284c-.2.732-.541,1.422-.706,2.159-.193.728-.41,1.442-.646,2.142-.413,1.411-.775,2.777-1.286,4.033a10.934,10.934,0,0,1-4.114-4.251c-.84-1.693-1.225-3.406-.744-4.24a58.13,58.13,0,0,1,4.954-8.595,44.26,44.26,0,0,1,5.267-6.294,50.827,50.827,0,0,1,5.263-4.674,25.232,25.232,0,0,1,5.054-3.139,11.229,11.229,0,0,1,3.095-.863A23.262,23.262,0,0,1,176.651,216.117Z" /></g></g><path class="cls-5" d="M123.529,233.018a42.651,42.651,0,0,0-20.21,23.951c-1.818,5.436,11.815-23.487,22.152,5.647,1.685,4.748,14.015-9.195,14.015-15.839C139.486,241.13,133.645,227.652,123.529,233.018Z" /><path class="cls-5" d="M123.515,232.993a6.226,6.226,0,0,1,2.994-1.423,7.778,7.778,0,0,1,3.224-.091A9.123,9.123,0,0,1,133.257,233a16.577,16.577,0,0,1,5,6.237,22.941,22.941,0,0,1,2.066,6.263,8.586,8.586,0,0,1,.087,2.4,11.365,11.365,0,0,1-.516,2.339,22.984,22.984,0,0,1-1.919,4.278,34.4,34.4,0,0,1-5.765,7.561,19.727,19.727,0,0,1-1.907,1.633,11.717,11.717,0,0,1-1.124.734c-.2.116-.433.221-.65.328a6.068,6.068,0,0,1-.927.308,3.64,3.64,0,0,1-2.055-.118,3.136,3.136,0,0,1-1.453-1.428l-.98-2.4a27.344,27.344,0,0,0-4.191-7.3,8.762,8.762,0,0,0-2.433-2.026,4.519,4.519,0,0,0-2.646-.524c-1.831.194-3.755,1.531-5.384,3.124a30.545,30.545,0,0,0-2.349,2.6l-1.178,1.455-.2.228-.15.155-.136.124a2.174,2.174,0,0,1-.195.153,1.977,1.977,0,0,1-.767.313,1.879,1.879,0,0,1-1.6-.53,1.444,1.444,0,0,1-.258-.344,1.918,1.918,0,0,1-.254-.9l0-.136a2.444,2.444,0,0,1,.027-.27,3.936,3.936,0,0,1,.1-.419c.122-.41.228-.66.34-.967a41.75,41.75,0,0,1,11.789-17.142,38.553,38.553,0,0,1,9.647-6.16,77.625,77.625,0,0,0-8.172,8.209c-2.649,3.088-4.633,6.293-5.809,7.887a36.751,36.751,0,0,0-3.132,5.026c-.441.869-.873,1.742-1.234,2.634-.174.429-.394.926-.527,1.3l-.035.1-.005.011a1.375,1.375,0,0,1-.176-.024,1.341,1.341,0,0,1-.21-.047,1.982,1.982,0,0,0-.369-.047,1.638,1.638,0,0,1-.3-.007c-.167.009-.086.128-.159-.1-.038-.094-.074-.072-.166-.219a3.1,3.1,0,0,0-.274-.339l-.153-.153a.752.752,0,0,0-.076-.067l.013-.013.032-.028c.123-.123.286-.313.44-.493a37.465,37.465,0,0,1,4.094-4.315,13.49,13.49,0,0,1,5.163-2.989,7.27,7.27,0,0,1,5.835.863,13.535,13.535,0,0,1,3.89,3.935,31.228,31.228,0,0,1,2.529,4.563q.534,1.158.994,2.322c.166.4.3.746.423,1.087l.195.516a1.362,1.362,0,0,0,.179.338.7.7,0,0,0,.627.279,1.848,1.848,0,0,0,.724-.2,8.718,8.718,0,0,0,1.813-1.178,24.539,24.539,0,0,0,3.155-3.153,32.9,32.9,0,0,0,4.655-7.127,12.776,12.776,0,0,0,1.168-3.661,10.887,10.887,0,0,0-.367-3.622,21.887,21.887,0,0,0-2.873-6.666,14.927,14.927,0,0,0-2.416-2.854,8.269,8.269,0,0,0-3.5-1.937,8.087,8.087,0,0,0-3.591-.045A13.959,13.959,0,0,0,123.515,232.993Z" /><path class="cls-5" d="M208.619,238.041C194.605,229.477,172.3,240.52,169.6,248.8c-2.418,7.417,6.022,31.46,21.059,20.174,17.89-13.429,35.741,9.654,38.284,7.018C239.515,265.035,226.525,250.5,208.619,238.041Z" /><path class="cls-5" d="M208.634,238.02c.7.2,6.372,3.814,12.206,8.965a56.978,56.978,0,0,1,8.109,8.657,24.6,24.6,0,0,1,4.364,8.858,12.5,12.5,0,0,1-1.335,9.32l-.429.728-.492.69a7.457,7.457,0,0,1-.519.678l-.7.811a2.155,2.155,0,0,1-.867.565,2.32,2.32,0,0,1-1.049.043,4.38,4.38,0,0,1-1.026-.311c-.242-.1-.465-.211-.679-.323-.852-.45-1.6-.938-2.352-1.428-1.491-.982-2.938-1.979-4.421-2.924a44.743,44.743,0,0,0-9.284-4.73,20.627,20.627,0,0,0-9.885-1.124,19.1,19.1,0,0,0-8.842,3.953,15.966,15.966,0,0,1-5.795,2.864,11,11,0,0,1-6.74-.5,14.389,14.389,0,0,1-5.187-3.917,23.765,23.765,0,0,1-3.3-5.174,28.617,28.617,0,0,1-2.84-11.476,14.665,14.665,0,0,1,.288-3.094,9.3,9.3,0,0,1,1.284-2.977,18.344,18.344,0,0,1,3.957-4.252,35.472,35.472,0,0,1,9.284-5.267,38.951,38.951,0,0,1,9.635-2.452,29.355,29.355,0,0,1,9.184.3,21.378,21.378,0,0,1,7.673,3.127,24.766,24.766,0,0,0-7.912-1.853,31.488,31.488,0,0,0-9.123.794,49.069,49.069,0,0,0-13.645,5.589,24.024,24.024,0,0,0-5.1,3.782,10.988,10.988,0,0,0-1.827,2.331,6.383,6.383,0,0,0-.813,2.647,19.673,19.673,0,0,0,.46,6.081,26.832,26.832,0,0,0,1.946,5.794,19.335,19.335,0,0,0,3.226,4.963,10.588,10.588,0,0,0,4.638,3.113,8.758,8.758,0,0,0,5.387-.166,13.567,13.567,0,0,0,2.5-1.167c.807-.479,1.522-1,2.34-1.58a20.547,20.547,0,0,1,10.72-3.839,24.734,24.734,0,0,1,10.684,2,52,52,0,0,1,9.019,4.943l4.053,2.735a21.474,21.474,0,0,0,1.97,1.188,2.625,2.625,0,0,0,.7.275.447.447,0,0,0,.5-.2l.455-.523c.194-.209.34-.45.512-.673a13.267,13.267,0,0,0,.9-1.4,11.591,11.591,0,0,0,1.117-3.03,12.323,12.323,0,0,0-.475-6.248,23.139,23.139,0,0,0-2.785-5.622,44.856,44.856,0,0,0-3.754-4.886,100.391,100.391,0,0,0-8.913-8.814C212.477,241.042,209.57,238.783,208.634,238.02Z" /></g></g></svg>