<svg xmlns="http://www.w3.org/2000/svg" viewBox="0 0 380 600"><defs transform="matrix(-1, 0, 0, 1, 380, 0)"><style>.cls-1{isolation:isolate;}.cls-2{fill:#ffffff;}.cls-3{mix-blend-mode:multiply;}.cls-4{opacity:0.3;}.cls-5{fill:#010101;}</style></defs><g class="cls-1" transform="matrix(-1, 0, 0, 1, 380, 0)"><g id="holiday1"><g id="default"><path d="M287.369,160.548c-1.08.421-6.868-2.78-13.292-6.844-6.444-4.039-13.595-8.85-17.8-11.215-4.874-2.735-9.857-5.78-14.848-8.989-2.5-1.6-4.992-3.25-7.479-4.92l-3.72-2.528-1.852-1.275-.115-.08c-.014-.008-.007,0-.018-.007l-.035-.014-.069-.026-.127-.047-.233-.08c-.036-.007-.063-.028-.1-.024a.305.305,0,0,0-.088.112,1.818,1.818,0,0,0-.167.451l-.01.046,0,.014-.059.1-.132.228-.52.93-1.008,1.9c-.657,1.276-1.285,2.571-1.885,3.869a198.814,198.814,0,0,0-13.3,40.283,176.242,176.242,0,0,0-2.981,18.661c-.151,1.466-.283,2.934-.4,4.327-.11,1.359-.157,2.731-.188,4.1-.055,2.73-.039,5.436-.182,8.006a52.176,52.176,0,0,1-4.343-7.535,34.69,34.69,0,0,1-1.768-4.642c-.477-1.584-.9-3.2-1.229-4.812-1.358-6.443-1.364-12.683-.509-15.8a257.359,257.359,0,0,1,12.17-34.561c2.258-5.192,4.59-10.136,7.125-14.821.635-1.171,1.284-2.326,1.96-3.464l.512-.85.69-1.092c.475-.739.972-1.459,1.492-2.136a12.662,12.662,0,0,1,1.657-1.821,5.081,5.081,0,0,1,1.933-1.175.733.733,0,0,1,.52.061l.461.171c.31.119.674.339,1.008.5l1.023.528a11.394,11.394,0,0,1,1.016.78l6.345,4.484,5.51,3.824,10.519,7.232c6.771,4.672,13.028,9.1,18.66,13.548a115.618,115.618,0,0,1,9.348,8.235C283.913,157.09,286.528,159.664,287.369,160.548Z"></path><circle class="cls-2 color-body" cx="299.517" cy="164.945" r="31" style="fill:#ffffff;--backup-fill:#ffffff"></circle><path d="M284.647,192.077a4.944,4.944,0,0,1,1.763.393c.451.139.954.362,1.549.536l1.978.564a32.961,32.961,0,0,0,10.953,1.087,30.046,30.046,0,0,0,12.02-3.5,25.61,25.61,0,0,0,7.814-6.46,29.412,29.412,0,0,0,5.711-26.2,28.232,28.232,0,0,0-2.62-6.474,27.058,27.058,0,0,0-1.9-2.908c-.356-.456-.67-.942-1.051-1.374l-1.162-1.273a10.606,10.606,0,0,0-1.226-1.2l-1.266-1.148-1.374-1.006a10.786,10.786,0,0,0-1.4-.951,23.327,23.327,0,0,0-2.953-1.6c-.507-.229-1-.48-1.513-.694l-1.561-.535a27.556,27.556,0,0,0-21.93,1.961,28.248,28.248,0,0,0-13.418,16.321,28.857,28.857,0,0,0,.909,19.757,31.762,31.762,0,0,0,4.795,7.95,35.181,35.181,0,0,0,6.4,5.8,23.586,23.586,0,0,1-8.588-3.7,28.275,28.275,0,0,1-7.745-8.287,28.63,28.63,0,0,1-3.914-10.348,18.614,18.614,0,0,1-.284-2.416,16.056,16.056,0,0,1-.09-2.211,19.031,19.031,0,0,1,.354-3.581c.235-.975.408-1.952.695-2.9q.463-1.4.921-2.79c.371-.9.774-1.781,1.157-2.659a9.81,9.81,0,0,1,.644-1.279l.7-1.242a35.171,35.171,0,0,1,6.919-8.595,36.273,36.273,0,0,1,8.816-5.776,34.3,34.3,0,0,1,9.707-2.773,32.227,32.227,0,0,1,9.713.115,23.333,23.333,0,0,1,2.341.438l2.285.6c.753.216,1.472.529,2.205.787l1.091.406c.353.156.7.334,1.044.5l2.066,1.014,1.946,1.2c.319.2.653.386.958.608l.9.683c.593.464,1.213.89,1.775,1.38a34.525,34.525,0,0,1,3.16,3.123c.473.563,1.012,1.07,1.424,1.674l1.286,1.762a32.91,32.91,0,0,1,3.844,7.622,33.746,33.746,0,0,1,1.166,4.019c.166.673.235,1.362.355,2.039a16.838,16.838,0,0,1,.259,2.039,32.4,32.4,0,0,1-11.138,27.555,31.141,31.141,0,0,1-12.225,6.464c-1.03.255-2.168.487-3.364.695l-1.86.167a13.47,13.47,0,0,1-1.923.077,25.679,25.679,0,0,1-3.913-.264c-.646-.1-1.292-.147-1.919-.3l-1.844-.451-.892-.224-.851-.3-1.621-.592c-1.04-.382-1.942-.913-2.768-1.3a17.857,17.857,0,0,1-2.043-1.217Z"></path></g><g data-name="default" id="default-2"><g class="cls-3"><g class="cls-4"><path d="M224.188,380.323a17.531,17.531,0,0,1,.364-3.074l.731.475a30.292,30.292,0,0,1-9.242,5.569l-3.132,1.217,2.12-2.677a45.6,45.6,0,0,0,6.987-12.38l2.008,1.356a269.235,269.235,0,0,1-24.432,21.059l-2.349-2.27a187.329,187.329,0,0,1,19.366-23.939l2.544,2.983c-11.7,8.445-22.351,16.177-29.729,21.686l-7.818,5.82-3.576-4.29A316.911,316.911,0,0,1,210.5,362.775l3.627,6.308a124.839,124.839,0,0,0-25.3,15.4c-8,6.1-15.605,12.909-23.254,19.764l-6.7-5.6a99.706,99.706,0,0,1,17.894-21.607c6.683-6.269,13.728-11.783,20.582-17.143l5.158,8.085A235.9,235.9,0,0,0,182.122,380.1,241.01,241.01,0,0,0,153.6,402.306l-7.362-7.078a231.576,231.576,0,0,1,40.948-38.515l4.66,8.855a101.922,101.922,0,0,0-24.979,12.555q-2.84,1.954-5.512,4.084c-1.8,1.436-3.771,3.038-5.759,4.5a47.694,47.694,0,0,1-13.657,7.436l-4.463-7.845c11.764-10.238,22.674-21.628,35.684-29.744l3.041,7.109a60.622,60.622,0,0,0-17.75,7.07c-5.436,3.144-10.5,6.8-15.543,10.292l-4.194-4.389c3.529-4.12,6.644-8.228,10.391-11.8a51.638,51.638,0,0,1,11.956-8.275l1.972,4c-8.26,3.248-14.949,5.814-21.341,8.239,5.66-3.35,12.481-7.137,20.091-11.179l.851,1.724a50.694,50.694,0,0,0-10.455,9.186c-3,3.609-5.674,7.868-8.654,12l-4.282-4.481A169.635,169.635,0,0,1,155.8,363.317a64.108,64.108,0,0,1,18.36-8.236l3.8,8.872c-7.646,5.347-13.606,10.916-17.883,14.532-5.667,4.85-11.221,9.935-16.68,14.485l-4.169-7.328c3.945-1.113,7.937-3.556,11.724-6.28q1.43-1.027,2.844-2.122l2.917-2.251c2.01-1.513,4.052-2.964,6.138-4.327a110.57,110.57,0,0,1,26.392-12.651l2.7,5.126a220.877,220.877,0,0,0-40.087,36.782l-3.162-3.04a250.624,250.624,0,0,1,50.691-34.915l2.111,3.308c-7.279,5.614-14.368,11.155-20.741,17.163a91.762,91.762,0,0,0-16.25,19.608l-3.269-2.732c8-7.124,15.9-14.124,24.2-20.353A128.236,128.236,0,0,1,211.7,363.315l2.562,4.455a342.436,342.436,0,0,0-32.287,28.112l-3.617-4.339q19.736-14.019,38.068-26.769l3.573,4.19q-5.144,5.192-9.769,10.619c-2.827,3.36-5.972,7.21-9.689,12.307l-3.351-3.238c8.34-5.872,17.473-12.986,25.137-19.645l2,1.347a44.739,44.739,0,0,1-8.144,12.446l-.639-.922a34.648,34.648,0,0,0,9.422-4.569l.151-.1-.05.169C224.632,378.827,224.379,379.679,224.188,380.323Z"></path></g></g><path class="cls-2 color-body" d="M148.894,228.126c-.55-5.675-5.913-9.467-10.759-12.469L116.008,201.95a132.784,132.784,0,0,1-12.888-9.836,4.349,4.349,0,0,0-6.642,1.3c-4.693,8.874-14.4,27.631-16.734,35.2-4.909,15.954-5.683,33.8,2.767,48.7,7.669,13.524,22.918,19.531,37.249,12.54" style="fill:#ffffff;--backup-fill:#ffffff"></path><path class="cls-5" d="M119.785,289.906c-.26.377-2.078,1.6-5.138,2.64a25.89,25.89,0,0,1-12.017.915l-1.73-.3-1.714-.467a30.088,30.088,0,0,1-3.379-1.2,31.007,31.007,0,0,1-6.061-3.565,36.446,36.446,0,0,1-7.99-8.391c-6.036-8.5-8.931-19.913-8.59-31.1A76.955,76.955,0,0,1,75.4,231.873c.3-1.355.7-2.672,1.052-4,.192-.668.433-1.384.655-2.058l.719-1.957c.98-2.559,2.042-4.977,3.1-7.363,3.735-8.31,7.82-16.3,11.945-24.028l.387-.724a8.656,8.656,0,0,1,.8-1.22,7.888,7.888,0,0,1,2.248-1.949,7.978,7.978,0,0,1,5.7-.872,8.063,8.063,0,0,1,2.688,1.156l.579.435.211.173.15.129.6.515,2.4,2.032a107.784,107.784,0,0,0,9.508,7.337c6.78,4.456,13.187,8.772,19.078,12.852a54.135,54.135,0,0,1,8.372,6.588,17.724,17.724,0,0,1,3.081,4.238,11.337,11.337,0,0,1,1.26,4.869,11.918,11.918,0,0,0-2.42-3.979,18.365,18.365,0,0,0-3.822-3.1,95.635,95.635,0,0,0-9.6-4.727c-6.634-3.118-12.686-6.4-15.615-8.525L114.06,204.5c-1.577-1.138-2.987-2.3-4.376-3.467-2.759-2.336-5.359-4.688-7.9-7.024l-.307-.277c-.08-.062-.162-.122-.248-.177a2.126,2.126,0,0,0-.567-.234,2.217,2.217,0,0,0-2.316.861l-.1.14-.15.257-.31.54-.617,1.079q-2.456,4.313-4.733,8.547c-3.026,5.648-5.849,11.183-8.308,16.638a66.312,66.312,0,0,0-3.169,8.119c-.82,2.755-1.468,5.507-1.991,8.232A68.906,68.906,0,0,0,77.843,253.7,54.206,54.206,0,0,0,80.6,268.22a43.542,43.542,0,0,0,6.333,12.015,29.852,29.852,0,0,0,9.444,8.04,28.407,28.407,0,0,0,13.214,3.414l1.752-.032c.571-.03,1.122-.121,1.664-.175a21.64,21.64,0,0,0,2.975-.511,17.677,17.677,0,0,0,2.314-.616Z"></path><path class="cls-2 color-body" d="M287.581,221.215c-30.973-29.132-89.937-36.088-118.407-30.692S114.37,209.152,99.13,229.3c-8.322,11-21.471,49.746-21.864,61.624-.439,13.25,3.668,29.984,10.894,40.789,14.577,21.8,35.9,33.044,60.878,38.693,40.221,9.095,79.109,7.852,116.616-10.365C327.5,330,323.5,255,287.581,221.215Z" style="fill:#ffffff;--backup-fill:#ffffff"></path><path d="M287.623,221.171a16.489,16.489,0,0,1,1.623,1.316,35.546,35.546,0,0,1,2.933,2.8l1.845,1.972c.664.708,1.285,1.541,1.991,2.387,1.434,1.679,2.817,3.714,4.343,5.911a90.079,90.079,0,0,1,13.7,37.338,93.027,93.027,0,0,1,.154,23.28,83.254,83.254,0,0,1-5.863,22.3,82.415,82.415,0,0,1-10.514,18.208A84.958,84.958,0,0,1,286.1,349.17a95.87,95.87,0,0,1-21.867,14.177,150.842,150.842,0,0,1-24.909,9.563,167.046,167.046,0,0,1-54.31,5.989,206.545,206.545,0,0,1-27.448-3.211c-2.275-.357-4.51-.891-6.766-1.328s-4.5-.983-6.757-1.518a134.466,134.466,0,0,1-13.305-4.065,99.746,99.746,0,0,1-24.59-12.906,83.866,83.866,0,0,1-10.5-9c-1.672-1.581-3.127-3.355-4.671-5.037-1.405-1.795-2.917-3.507-4.188-5.382l-1.728-2.416c-.558-.842-1.115-1.725-1.649-2.594-1.026-1.766-1.978-3.558-2.817-5.386a77.1,77.1,0,0,1-4.124-11.219,81.288,81.288,0,0,1-3.2-23.5c0-.994.149-2.126.227-3.181.126-1.034.3-2,.458-3s.383-1.926.572-2.892.406-1.907.642-2.836c.877-3.762,1.948-7.4,3.031-11.034q3.323-10.86,7.535-21.264l1.06-2.6,1.125-2.583c.725-1.724,1.561-3.426,2.357-5.131a63.42,63.42,0,0,1,5.911-10.1,87.973,87.973,0,0,1,16.04-15.844,122.05,122.05,0,0,1,38.5-19.32,152.393,152.393,0,0,1,20.24-4.714,123.976,123.976,0,0,1,20.221-1.086A184.925,184.925,0,0,1,229,190.646,157.307,157.307,0,0,1,262.2,202.291a99.359,99.359,0,0,1,26.165,18.1A112.042,112.042,0,0,0,260.821,205a171.791,171.791,0,0,0-34.966-9.491A205.13,205.13,0,0,0,192,192.7c-5.077.014-9.754.248-13.855.636l-2.966.315-2.735.359-2.489.394-2.309.432a133.625,133.625,0,0,0-33.619,10.584A94.835,94.835,0,0,0,106.177,224.9a72.633,72.633,0,0,0-5.435,6.293L99.6,232.82c-.362.57-.7,1.171-1.056,1.755-.724,1.151-1.343,2.409-2,3.626-2.546,4.943-4.743,10.1-6.783,15.25s-3.9,10.356-5.561,15.565-3.165,10.426-4.262,15.627c-.314,1.3-.46,2.587-.7,3.878a34.986,34.986,0,0,0-.263,3.824,63.729,63.729,0,0,0,.356,7.827A80.285,80.285,0,0,0,82.433,315.4a62.107,62.107,0,0,0,6.084,13.939A82.794,82.794,0,0,0,97.686,341.3a84.611,84.611,0,0,0,11.04,9.927,85.735,85.735,0,0,0,12.437,7.709,99.07,99.07,0,0,0,13.283,5.66,128.12,128.12,0,0,0,13.7,3.933c18.471,4.206,36.839,6.189,54.493,5.376a155.336,155.336,0,0,0,49.844-10.478c1.905-.782,3.818-1.521,5.693-2.326l5.539-2.554c.933-.4,1.805-.89,2.689-1.356l2.643-1.4c.892-.443,1.738-.96,2.576-1.486l2.522-1.55a83.9,83.9,0,0,0,17.607-14.938,79.436,79.436,0,0,0,18.628-39.188,91.394,91.394,0,0,0,1.036-23q-.138-1.562-.277-3.137c-.126-1.047-.29-2.092-.433-3.143-.243-2.111-.737-4.185-1.117-6.277a93.781,93.781,0,0,0-3.5-12.066,92,92,0,0,0-4.707-10.78c-.9-1.619-1.757-3.2-2.641-4.675-.938-1.436-1.772-2.857-2.671-4.119-.916-1.249-1.746-2.454-2.573-3.525-.858-1.049-1.648-2.016-2.362-2.888C289.651,223.316,288.407,222.047,287.623,221.171Z"></path><path class="cls-2 color-body" d="M262.749,230.054c2.311-5.212,8.595-7.121,14.141-8.442l25.32-6.032a133.1,133.1,0,0,0,15.332-5.272,4.349,4.349,0,0,1,5.893,3.326c1.657,9.9,4.96,30.763,4.785,38.679-.37,16.688-5.263,33.872-17.979,45.35-11.541,10.417-27.906,11.31-39.3.158" style="fill:#ffffff;--backup-fill:#ffffff"></path><path class="cls-5" d="M270.976,297.781c.531.031,2.138,1.414,4.764,3a27.188,27.188,0,0,0,10.64,3.644l1.6.168,1.628.013a27.893,27.893,0,0,0,3.264-.206,27.96,27.96,0,0,0,15.065-7.186,47.431,47.431,0,0,0,8.917-11.541,56.035,56.035,0,0,0,3.235-6.817,65.08,65.08,0,0,0,2.334-7.291,76.078,76.078,0,0,0,2.286-15.242c.1-1.278.085-2.563.129-3.838.007-.63-.016-1.2-.029-1.807l-.112-1.864c-.183-2.511-.488-5.063-.8-7.571-1.141-8.8-2.549-17.6-3.906-26.174l-.128-.8c-.03-.092-.015-.114-.04-.162a.669.669,0,0,0-.117-.232.822.822,0,0,0-.481-.282,1,1,0,0,0-.274,0,.212.212,0,0,1-.075.023.43.43,0,0,0-.122.04l-.19.073-.758.288-3.033,1.117a96.308,96.308,0,0,1-12.309,3.708c-7.941,1.668-15.518,3.17-22.565,4.473a60.443,60.443,0,0,0-9.677,2.231c-2.842,1.034-5.23,2.62-6.518,4.937a8.2,8.2,0,0,1,1.583-3.928,14.971,14.971,0,0,1,3.825-3.555c3.087-2.063,6.859-3.395,10.237-4.642,6.888-2.508,13.481-4.489,17.054-5.066l5.325-.881c1.619-.277,3.3-.69,4.961-1.129,3.328-.894,6.612-1.944,9.82-3.044.15-.055.538-.177.829-.258a7.627,7.627,0,0,1,.958-.17,6.673,6.673,0,0,1,1.926.09,6.571,6.571,0,0,1,3.3,1.73,6.369,6.369,0,0,1,1.778,3.189l.087.445.045.326.081.621.161,1.238q.644,4.944,1.265,9.733c.814,6.392,1.618,12.576,2.2,18.624a77.436,77.436,0,0,1,.474,9.058c-.068,2.963-.282,5.876-.6,8.735a75.855,75.855,0,0,1-3.706,16.321,56.6,56.6,0,0,1-7.277,14.036,43.737,43.737,0,0,1-10.652,10.49,30.151,30.151,0,0,1-13.228,4.937,25.28,25.28,0,0,1-14.92-2.8l-1.628-.921c-.517-.319-.986-.687-1.454-1.011a20.871,20.871,0,0,1-2.425-1.981,16.416,16.416,0,0,1-1.715-1.728C271.561,298.435,271.21,298.041,270.976,297.781Z"></path><g class="cls-3"><g class="cls-4"><path d="M316.6,266.853a3.718,3.718,0,0,0-.7,1.047,1.928,1.928,0,0,0,.715,2.171l.558.4-.641.347a4.644,4.644,0,0,1-1.113.462,4.443,4.443,0,0,1-1.024.15,4.164,4.164,0,0,1-.524-.014l-.262-.03-.129-.021-.065-.012-.033-.006.036.016a4.609,4.609,0,0,1,1.757,1.3,4.33,4.33,0,0,1,.841,3.074l-.088.543-.554.075a15.086,15.086,0,0,1-1.628.117,9.342,9.342,0,0,1-1.012-.031,8.656,8.656,0,0,1-.907-.126l-.422-.093-.2-.053-.05-.014c-.012,0,.024.022.033.031l.093.077a4.412,4.412,0,0,1,1.127,1.353,3.43,3.43,0,0,1,.161.353l.035.087c0,.014.011.038.006.011s-.007-.036.012.038.091.317.113.442a6.028,6.028,0,0,1,.1,1.7,5.807,5.807,0,0,1-.327,1.467c-.077.224-.154.444-.244.662a2.1,2.1,0,0,1-.132.306l-.183.156-.012.011c-.79-.161-1.594-.322-2.44-.529l-1.167-.3-.876-.248a34.008,34.008,0,0,1-3.625-1.306l1.575-2.247a16.818,16.818,0,0,1,1.4,1.486c.226.27.443.554.658.846l.313.45.431.709a13.781,13.781,0,0,1,1.293,3.054c.277,1.014.432,1.963.632,3.037a5.932,5.932,0,0,1-1.97.549c-.175.027-.351.069-.529.084h-.537a4.174,4.174,0,0,1-1.116-.147,7.431,7.431,0,0,1-2.444-1.146,23.167,23.167,0,0,1-2.065-1.635,22.1,22.1,0,0,0-2.567-2.054,3.043,3.043,0,0,0-.574-.311,2.007,2.007,0,0,0-.5-.176c-.166-.08-.275,0-.41-.048-.127,0-.24.064-.367.057l.911-3.156a17.243,17.243,0,0,1,3.113,4.755,9.76,9.76,0,0,1,.376.99c.113.378.272.762.349,1.135a15.687,15.687,0,0,1,.395,2.2,36.183,36.183,0,0,1,.015,3.936c-.332.018-.579.045-1.03.044l-1.163.01a5.777,5.777,0,0,1-2.1-.313,7.844,7.844,0,0,1-3.109-2.327l-.721-.928-.519-.687-.682-.9a8.939,8.939,0,0,0-1.271-1.335,3.036,3.036,0,0,0-1.141-.528l2.255-3.224q.729,1.289,1.364,2.613c.211.441.416.883.608,1.33l.145.334.224.551c.161.4.327.786.477,1.22a38.719,38.719,0,0,1,1.462,4.822q.472,2.178.935,4.317l-2.55-.648-1.264-.338a5.4,5.4,0,0,1-1.173-.4l-.588-.27-.607-.383a5.329,5.329,0,0,1-.609-.413l-.631-.547a11.612,11.612,0,0,1-1.258-1.293c-.424-.432-.814-1.015-1.214-1.518l-1.414-1.884a12.973,12.973,0,0,0-1.11-1.246,4.177,4.177,0,0,0-2.3-1.21l1.689-2.949a16.216,16.216,0,0,1,2.615,5.812,13.4,13.4,0,0,1,.244,1.442,9.452,9.452,0,0,1,.085,1.04,9.016,9.016,0,0,1,.012,1.049,16.9,16.9,0,0,1-.184,1.913c-.092.583-.154,1.255-.291,1.774-1.347-.473-2.581-.868-3.76-1.391a15.475,15.475,0,0,1-2.583-1.383,18.68,18.68,0,0,1-3.487-2.916,13.786,13.786,0,0,1-3.628-6.856,16,16,0,0,0,5.206,5.708,19.545,19.545,0,0,0,3.657,1.966l.92.348a2.6,2.6,0,0,0,.3.013.52.52,0,0,0,.326-.1,1.07,1.07,0,0,0-.178-.491.28.28,0,0,0-.044-.046,1.168,1.168,0,0,1-.046-.195c-.015-.088-.042-.175-.064-.261-.083-.346-.184-.676-.287-.992a21.579,21.579,0,0,0-1.327-3.026c-.2-.391-.425-.773-.616-1.09l-2.579-4.284,4.436,1.043a14.068,14.068,0,0,1,1.417.364,8.357,8.357,0,0,1,1.3.617,7.438,7.438,0,0,1,1.117.794l.5.43.431.453a16.6,16.6,0,0,1,1.46,1.82c.209.285.434.625.584.846l.134.262a4.78,4.78,0,0,0,.92,1.239,3.555,3.555,0,0,0,.757.534l.22.1.112.049a.4.4,0,0,0,.053.022l0-.035-.022-.3a11.543,11.543,0,0,0-.585-2.378l-.134-.369-.249-.612-.525-1.2c-.359-.785-.737-1.539-1.124-2.262l-.927-1.728,1.907.327a6.124,6.124,0,0,1,3.339,1.943,14.564,14.564,0,0,1,1.116,1.349l.881,1.221a5.734,5.734,0,0,0,1.309,1.423,2.072,2.072,0,0,0,1.342.385c.033-.006.09.013.1-.013l0-.116.008-.23a7.054,7.054,0,0,0-.17-1.6c-.06-.259-.131-.514-.211-.763l-.132-.369-.191-.46a14.445,14.445,0,0,0-2.526-3.848l-1.083-1.2,1.5-.236a6.663,6.663,0,0,1,1.168-.158,4.427,4.427,0,0,1,1.141.156,4.476,4.476,0,0,1,1.021.383,5.641,5.641,0,0,1,.9.508,26.482,26.482,0,0,1,2.894,2.352l.328.288.225.189c.134.109.269.225.4.312a4.289,4.289,0,0,0,.784.486,1.7,1.7,0,0,0,.418.15,1.15,1.15,0,0,0,.431.054,1.115,1.115,0,0,0,.421-.061c.207.014.112-.183.09-.325a6.438,6.438,0,0,0-.782-1.942l-.137-.217-.234-.35c-.173-.25-.35-.5-.54-.73a14.736,14.736,0,0,0-1.2-1.337l1.312-1.871a32.421,32.421,0,0,0,5.376,1.9c.04.006.09.03.122.02l.051-.121a2.165,2.165,0,0,0,.082-.247,2.1,2.1,0,0,0,.058-.51,2.236,2.236,0,0,0-.054-.474c.023.1-.03-.118-.025-.1.025.088-.057-.187-.08-.241l-.219-.426a3.93,3.93,0,0,0-.669-.893c.268-1.23.069-1.683-.21-2.032-.171-.131.059-.086.181-.111a2.3,2.3,0,0,0,.437-.09,3.456,3.456,0,0,0,1.1-.591,11.869,11.869,0,0,0,1.694.316,15.856,15.856,0,0,0,2.428.037l-.92.886a2.691,2.691,0,0,0-.076-1.248,2.446,2.446,0,0,0-.118-.321,3.885,3.885,0,0,0-.239-.43l-.3-.381-.361-.311a2.062,2.062,0,0,0-.552-1.494,2.019,2.019,0,0,0-.571-.4c-.063-.027.016-.008.044-.007l.11.016.224.018a4.161,4.161,0,0,0,.447,0,4.556,4.556,0,0,0,.834-.135c.5-.13.871-.29.886-.223a4.316,4.316,0,0,0,1.353-.271c.133-.048.216-.081.269-.094h0l-.046.421h0l0,0,0,0-.006-.008-.008-.012a.031.031,0,0,1,0-.014.017.017,0,0,1,.012,0l.013.008.008,0,0,0,0,0h0l.041-.375-.041.374a2.478,2.478,0,0,1-.849-1.7,2.07,2.07,0,0,1,.306-1.239A1.96,1.96,0,0,1,316.6,266.853Z"></path></g></g><path d="M115.353,304.228c10.972,8.286,27.7,15,52.65,14.528a118.485,118.485,0,0,1,16.464.538c4.41.64,5.02.885,4.107,5.468-1.4,7.016-5.89,12.662-10.332,18.054-8.472,10.283-32.093,22.23-45.729.4-6.7-12.125-2.638-21.606-8.959-32.426"></path><path d="M123.593,310.771a13.8,13.8,0,0,1,2.741,4.724,30.436,30.436,0,0,1,1.488,4.991c.386,1.879.692,3.924.976,6.019a47.407,47.407,0,0,0,2.885,12.225,28.347,28.347,0,0,0,1.241,2.61l.643,1.2c.248.369.509.717.753,1.063a24.85,24.85,0,0,0,2.914,3.421,21.128,21.128,0,0,0,11.737,6.067,25.652,25.652,0,0,0,13.6-2.052,37.257,37.257,0,0,0,11.764-7.912c.415-.409.8-.841,1.18-1.266.362-.43.727-.859,1.127-1.369.78-.975,1.543-1.94,2.272-2.906a51.312,51.312,0,0,0,3.908-5.833,28.449,28.449,0,0,0,2.315-5.278,25.888,25.888,0,0,0,.657-2.741c.088-.471.16-.982.175-1.165.007-.082,0-.025,0-.044h-.009l-.276-.052c-.42-.083-.922-.157-1.424-.232s-.951-.134-1.446-.184c-1.947-.212-3.976-.311-6-.375s-4.052-.083-6.07-.085l-3.031.007-3.094-.034c-2.052-.016-4.09-.164-6.1-.278-2.01-.188-4-.336-5.956-.632a84.961,84.961,0,0,1-11.325-2.241,71.213,71.213,0,0,1-10.26-3.536,61.242,61.242,0,0,1-16.129-9.985,115.549,115.549,0,0,0,18.075,6.465c6.531,1.737,12.781,2.574,16.032,3.3a97.48,97.48,0,0,0,19.546,2.227c3.269.071,6.492.171,9.679.374,1.594.1,3.177.23,4.761.425.786.1,1.6.22,2.361.355.391.071.774.133,1.184.224.2.04.394.082.683.166a5.287,5.287,0,0,1,.78.25,3.094,3.094,0,0,1,2.111,2.208,4.928,4.928,0,0,1,.114,1.587,11.226,11.226,0,0,1-.166,1.329,27.064,27.064,0,0,1-1.186,4.524,35.507,35.507,0,0,1-4.167,7.982c-1.645,2.424-3.431,4.653-5.189,6.807a35.31,35.31,0,0,1-6.05,5.877,39.1,39.1,0,0,1-14.35,7.1,25.115,25.115,0,0,1-15.214-.757,25.847,25.847,0,0,1-11.164-8.952c-.356-.453-.658-.958-.985-1.433a10.311,10.311,0,0,1-.888-1.479A29.9,29.9,0,0,1,129.4,340.4a32.63,32.63,0,0,1-1.837-6.24c-.9-3.968-.827-9.33-1.363-13.862A31.992,31.992,0,0,0,123.593,310.771Z"></path></g></g></g></svg>