<svg xmlns="http://www.w3.org/2000/svg" viewBox="0 0 380 600"><defs transform="matrix(-1, 0, 0, 1, 380, 0)"><style>.cls-1{isolation:isolate;}.cls-2{fill:#fff;}.cls-3{mix-blend-mode:multiply;}.cls-4{opacity:0.3;}.cls-5{fill:#231f20;}.cls-6{fill:#d0dddf;}.cls-7{fill:none;}</style></defs><g class="cls-1" transform="matrix(-1, 0, 0, 1, 380, 0)"><g id="halloween"><g id="default"><g data-name="default" id="default-2"><circle class="cls-2" cx="300.207" cy="163.469" r="31" /><path d="M285.337,190.6a4.978,4.978,0,0,1,1.763.394c.451.139.953.361,1.549.535l1.978.565a32.934,32.934,0,0,0,10.953,1.086,30.061,30.061,0,0,0,12.02-3.5,25.611,25.611,0,0,0,7.814-6.461,29.41,29.41,0,0,0,5.711-26.2,28.214,28.214,0,0,0-2.62-6.474,27.179,27.179,0,0,0-1.9-2.909c-.355-.455-.67-.941-1.05-1.373L320.39,145a10.518,10.518,0,0,0-1.225-1.2l-1.266-1.148-1.374-1.006a10.786,10.786,0,0,0-1.4-.951,23.327,23.327,0,0,0-2.953-1.6c-.507-.229-1-.48-1.513-.694l-1.561-.535a27.545,27.545,0,0,0-21.93,1.961,28.248,28.248,0,0,0-13.418,16.321,28.857,28.857,0,0,0,.909,19.757,31.78,31.78,0,0,0,4.795,7.95,35.181,35.181,0,0,0,6.4,5.8,23.586,23.586,0,0,1-8.588-3.7,28.266,28.266,0,0,1-7.745-8.288,28.632,28.632,0,0,1-3.914-10.347,18.655,18.655,0,0,1-.284-2.416,16.056,16.056,0,0,1-.09-2.211,18.968,18.968,0,0,1,.354-3.582c.235-.974.407-1.951.695-2.9l.921-2.791c.371-.9.774-1.78,1.157-2.658a9.687,9.687,0,0,1,.644-1.279l.7-1.242a35.171,35.171,0,0,1,6.919-8.595,36.267,36.267,0,0,1,8.815-5.776,34.311,34.311,0,0,1,9.708-2.773,32.259,32.259,0,0,1,9.713.114,23.056,23.056,0,0,1,2.341.439l2.285.6c.753.216,1.472.528,2.205.787l1.09.406c.354.156.7.334,1.045.5l2.066,1.014,1.946,1.2c.319.2.653.386.958.607l.9.684c.593.464,1.212.89,1.775,1.38a34.525,34.525,0,0,1,3.16,3.123c.473.563,1.011,1.07,1.424,1.673l1.286,1.762a32.912,32.912,0,0,1,3.843,7.623,33.6,33.6,0,0,1,1.167,4.018c.166.673.235,1.363.355,2.04a16.788,16.788,0,0,1,.259,2.039,32.393,32.393,0,0,1-11.139,27.555,31.163,31.163,0,0,1-12.224,6.464c-1.03.255-2.168.487-3.365.695l-1.86.167a13.45,13.45,0,0,1-1.922.077,25.553,25.553,0,0,1-3.913-.265c-.646-.1-1.293-.146-1.919-.3l-1.844-.451-.892-.224-.852-.3-1.62-.591c-1.04-.382-1.943-.913-2.768-1.3a17.849,17.849,0,0,1-2.043-1.218Z" /><g class="cls-3"><g class="cls-4"><path d="M278.565,151.893c.137.48-1.61,3.564-1.956,7.5a15.162,15.162,0,0,0,.544,5.825,10.178,10.178,0,0,0,2.273,4.031,9.847,9.847,0,0,0,2.45,1.831,9.081,9.081,0,0,0,2.932.914,10.311,10.311,0,0,0,1.555.1,11.813,11.813,0,0,0,1.574-.17,12.524,12.524,0,0,0,3.075-.954,16.666,16.666,0,0,0,5.255-3.911,19.273,19.273,0,0,0,3.438-5.488,16,16,0,0,0,.818-10.473,9.433,9.433,0,0,0-2.419-4.152,8.514,8.514,0,0,0-4-2.193,12.394,12.394,0,0,0-8.854,1.7,20.7,20.7,0,0,0-6.22,5.707A14.851,14.851,0,0,1,284,144.036a14.592,14.592,0,0,1,4.483-2.579,10.023,10.023,0,0,1,3.883-.584,12.505,12.505,0,0,1,5.408,1.659,11.933,11.933,0,0,1,3.888,3.671,15.248,15.248,0,0,1,2.3,9.317,21.152,21.152,0,0,1-2.4,8.453,21.423,21.423,0,0,1-5.074,6.467,16.87,16.87,0,0,1-6.868,3.68,12.161,12.161,0,0,1-7.467-.356,11.343,11.343,0,0,1-5.382-4.613,13.717,13.717,0,0,1-1.838-6.248,15.668,15.668,0,0,1,1.2-6.792A18.925,18.925,0,0,1,278.565,151.893Z" /></g></g><path d="M288.059,159.072c-1.081.421-6.868-2.78-13.292-6.844-6.444-4.039-13.595-8.851-17.8-11.215-4.874-2.735-9.857-5.781-14.848-8.989-2.5-1.6-4.993-3.25-7.479-4.921l-3.72-2.527-1.852-1.275-.115-.08c-.014-.008-.008,0-.018-.007l-.036-.014-.068-.026-.127-.047-.233-.08c-.036-.008-.063-.028-.1-.024a.3.3,0,0,0-.088.112,1.862,1.862,0,0,0-.168.45l-.009.047,0,.014-.058.1-.132.228-.52.93q-.505.953-1.008,1.9c-.657,1.277-1.285,2.571-1.885,3.87a198.814,198.814,0,0,0-13.3,40.283,176.242,176.242,0,0,0-2.981,18.661c-.151,1.466-.284,2.934-.4,4.327-.11,1.359-.157,2.731-.188,4.095-.055,2.731-.04,5.437-.182,8.007a52.191,52.191,0,0,1-4.343-7.535,34.7,34.7,0,0,1-1.768-4.643c-.477-1.583-.9-3.2-1.229-4.811-1.358-6.444-1.364-12.683-.509-15.8a257.517,257.517,0,0,1,12.169-34.562c2.259-5.191,4.591-10.135,7.126-14.82.635-1.172,1.284-2.326,1.96-3.464l.512-.85.69-1.093c.475-.738.972-1.458,1.492-2.135a12.725,12.725,0,0,1,1.657-1.822,5.1,5.1,0,0,1,1.932-1.174.729.729,0,0,1,.521.061l.461.171c.31.119.674.339,1.008.5l1.023.527a11.753,11.753,0,0,1,1.016.781l6.345,4.484,5.51,3.824,10.519,7.232c6.771,4.672,13.028,9.1,18.66,13.548a115.618,115.618,0,0,1,9.348,8.235C284.6,155.614,287.218,158.188,288.059,159.072Z" /></g><circle class="cls-2" cx="117.4" cy="247.849" r="41.5" /><path d="M158.825,248.92a8.449,8.449,0,0,1-.471-2.344c-.091-.626-.116-1.364-.256-2.186l-.492-2.722a43.484,43.484,0,0,0-5.325-13.869A40.722,40.722,0,0,0,140.7,215.414a35.678,35.678,0,0,0-12.6-5.56c-11.993-2.891-26.033.254-35.586,9.06a38.693,38.693,0,0,0-6.339,7.258,37.377,37.377,0,0,0-2.4,4.161c-.34.722-.74,1.416-1.035,2.155L81.9,234.72c-.133.373-.3.734-.407,1.116l-.306,1.148-.621,2.283-.381,2.327a15.221,15.221,0,0,0-.294,2.326,32.615,32.615,0,0,0-.124,4.651c.036.771.04,1.541.1,2.305l.319,2.267a38.288,38.288,0,0,0,30.259,31.7,39.094,39.094,0,0,0,38.11-13.681,42.715,42.715,0,0,0,6.443-10.9,46.7,46.7,0,0,0,2.756-11.369,34.035,34.035,0,0,1,.113,12.359,39.335,39.335,0,0,1-15.392,24.335,24.621,24.621,0,0,1-2.643,1.739,21.417,21.417,0,0,1-2.509,1.406c-.821.38-1.6.726-2.318,1.033-.361.152-.7.3-1.04.427l-.983.286c-1.259.329-2.485.734-3.744.982l-3.77.659c-1.261.126-2.522.2-3.768.3-.312.021-.622.052-.933.064l-.936-.019-1.861-.041a45.6,45.6,0,0,1-14.191-2.723,47.261,47.261,0,0,1-12.124-6.708,44.814,44.814,0,0,1-9.179-9.643c-.6-.915-1.27-1.775-1.8-2.722L79.107,267.8c-.5-.95-.876-1.955-1.316-2.923-.2-.491-.442-.967-.617-1.467l-.493-1.508-.49-1.5a10.347,10.347,0,0,1-.42-1.513l-.678-3.05c-.2-1.016-.273-2.051-.415-3.069l-.185-1.528c-.031-.51-.029-1.022-.045-1.531l-.061-3.045.229-3.012c.047-.5.058-1,.134-1.5l.26-1.473c.187-.977.314-1.965.551-2.922a45.06,45.06,0,0,1,1.767-5.6l.528-1.357a9.688,9.688,0,0,1,.583-1.327l1.3-2.575a43.31,43.31,0,0,1,6.659-9.1,44.445,44.445,0,0,1,4.027-3.784c.692-.6,1.462-1.092,2.186-1.639a22.078,22.078,0,0,1,2.241-1.527,42.854,42.854,0,0,1,39.009-3.467,41.63,41.63,0,0,1,14.972,10.365c.924,1.05,1.892,2.235,2.873,3.5l1.344,2.063a17.753,17.753,0,0,1,1.285,2.19l1.163,2.311a24.876,24.876,0,0,1,.978,2.406c.289.814.644,1.6.864,2.418l.64,2.431.3,1.181.187,1.183c.117.776.232,1.532.343,2.263a15.579,15.579,0,0,1,.174,2.121l.085,1.934.036.883-.048.828-.093,1.455C158.906,247.781,158.857,248.466,158.825,248.92Z" /><path class="cls-2" d="M287.581,221.715c-30.973-29.132-89.937-36.088-118.407-30.692S114.37,209.652,99.13,229.8c-8.322,11-21.471,49.746-21.864,61.624-.439,13.25,3.668,29.984,10.894,40.789,14.577,21.8,35.9,33.044,60.878,38.693,40.221,9.095,79.109,7.852,116.616-10.365C327.5,330.5,323.5,255.5,287.581,221.715Z" /><path d="M287.623,221.671a16.489,16.489,0,0,1,1.623,1.316,35.546,35.546,0,0,1,2.933,2.8q.849.909,1.845,1.972c.664.708,1.285,1.541,1.991,2.387,1.434,1.678,2.817,3.714,4.343,5.911a90.079,90.079,0,0,1,13.7,37.338,93.027,93.027,0,0,1,.154,23.28,83.254,83.254,0,0,1-5.863,22.3,82.415,82.415,0,0,1-10.514,18.208A84.958,84.958,0,0,1,286.1,349.67a95.87,95.87,0,0,1-21.867,14.177,150.842,150.842,0,0,1-24.909,9.563,167.046,167.046,0,0,1-54.31,5.989,206.215,206.215,0,0,1-27.448-3.212c-2.275-.356-4.51-.89-6.766-1.327s-4.5-.983-6.757-1.518a134.466,134.466,0,0,1-13.305-4.065,99.779,99.779,0,0,1-24.59-12.906,83.866,83.866,0,0,1-10.5-9c-1.672-1.581-3.127-3.355-4.671-5.037-1.405-1.795-2.917-3.507-4.188-5.382l-1.728-2.416c-.558-.842-1.115-1.725-1.649-2.594-1.026-1.766-1.978-3.558-2.817-5.386a77.1,77.1,0,0,1-4.124-11.219,81.284,81.284,0,0,1-3.2-23.5c0-.994.149-2.126.227-3.181.126-1.034.3-2,.458-3s.383-1.926.572-2.892.406-1.907.642-2.836c.877-3.762,1.948-7.4,3.031-11.034q3.323-10.86,7.535-21.264l1.06-2.6,1.125-2.583c.725-1.724,1.561-3.426,2.357-5.131a63.472,63.472,0,0,1,5.911-10.1,88,88,0,0,1,16.04-15.843,122.05,122.05,0,0,1,38.5-19.32,152.393,152.393,0,0,1,20.24-4.714,123.976,123.976,0,0,1,20.221-1.086A185,185,0,0,1,229,191.146,157.307,157.307,0,0,1,262.2,202.791a99.359,99.359,0,0,1,26.165,18.1,112.042,112.042,0,0,0-27.54-15.39,171.791,171.791,0,0,0-34.966-9.491A205.13,205.13,0,0,0,192,193.2c-5.077.014-9.754.248-13.855.636l-2.966.315-2.735.359-2.489.394-2.309.432a133.666,133.666,0,0,0-33.619,10.584A94.835,94.835,0,0,0,106.177,225.4a72.633,72.633,0,0,0-5.435,6.293L99.6,233.32c-.362.57-.7,1.172-1.056,1.755-.724,1.151-1.343,2.409-2,3.626-2.546,4.943-4.743,10.1-6.783,15.25s-3.9,10.356-5.561,15.565-3.165,10.426-4.262,15.627c-.314,1.3-.46,2.587-.7,3.878a34.986,34.986,0,0,0-.263,3.824,63.729,63.729,0,0,0,.356,7.827A80.285,80.285,0,0,0,82.433,315.9a62.107,62.107,0,0,0,6.084,13.939A82.849,82.849,0,0,0,97.686,341.8a84.611,84.611,0,0,0,11.04,9.927,85.822,85.822,0,0,0,12.437,7.709,99.07,99.07,0,0,0,13.283,5.66,128.12,128.12,0,0,0,13.7,3.933c18.471,4.206,36.839,6.189,54.493,5.376a155.336,155.336,0,0,0,49.844-10.478c1.905-.782,3.818-1.521,5.693-2.326l5.539-2.554c.933-.4,1.805-.89,2.689-1.356l2.643-1.4a29.584,29.584,0,0,0,2.576-1.487l2.522-1.549a83.9,83.9,0,0,0,17.607-14.938,79.436,79.436,0,0,0,18.628-39.188,91.394,91.394,0,0,0,1.036-23q-.138-1.562-.277-3.138c-.126-1.046-.29-2.091-.433-3.142-.243-2.111-.737-4.185-1.117-6.277a93.781,93.781,0,0,0-3.5-12.066,92,92,0,0,0-4.707-10.78c-.9-1.619-1.757-3.2-2.641-4.675-.938-1.436-1.772-2.857-2.671-4.119-.916-1.249-1.746-2.454-2.573-3.525-.858-1.049-1.648-2.016-2.362-2.888C289.651,223.816,288.407,222.547,287.623,221.671Z" /><g class="cls-3"><g class="cls-4"><path d="M265.2,207.143a5.065,5.065,0,0,1-1.821-.367,25.19,25.19,0,0,0-3.646-.72,22.341,22.341,0,0,0-7.722.377,45.949,45.949,0,0,0-9.19,3.4,50.114,50.114,0,0,0-8.406,5.284,65.526,65.526,0,0,0-11.4,11.534,88.178,88.178,0,0,0-7.371,11.373,19.327,19.327,0,0,1,.9-6.842,23.285,23.285,0,0,1,1.235-3.241,12.791,12.791,0,0,1,1.313-2.154A74.963,74.963,0,0,1,238.5,209.24a42.121,42.121,0,0,1,9.673-4.133,25.258,25.258,0,0,1,9.226-.943,15.47,15.47,0,0,1,4.752,1.242,16.656,16.656,0,0,1,1.957,1.01C264.63,206.752,265.012,207.011,265.2,207.143Z" /></g></g><g class="cls-3"><g class="cls-4"><path d="M158.093,196.457c-.4.5-5.352,2.257-10.258,5.711A46.016,46.016,0,0,0,140.9,208a41.832,41.832,0,0,0-4.691,5.719l-.345.517a4.858,4.858,0,0,0-.282.441c-.013.028.009-.008,0,.013l-.037.079-.075.157-.15.314c-.1.216-.209.41-.32.606-.434.8-.912,1.542-1.384,2.284-.946,1.477-1.915,2.922-2.679,4.4a6.774,6.774,0,0,0-.982,4.149c.144.251.146.541.366.763.089.118.155.243.248.363l.37.333a7.72,7.72,0,0,0,.941.747l1.051.777c5.792,3.922,12.674,6.356,19.29,8.015a139.867,139.867,0,0,0,34.5,3.663c10.869-.186,20.7-1.512,28.165-4.051a41.076,41.076,0,0,1-12.732,5.642,51.653,51.653,0,0,1-12.117,1.964,164.758,164.758,0,0,1-28.075-2.337,95.333,95.333,0,0,1-23.761-6.989c-.884-.41-1.736-.875-2.595-1.3-.83-.487-1.672-.939-2.473-1.45-.786-.532-1.6-1.009-2.336-1.594l-1.118-.841a13.491,13.491,0,0,1-1.117-1.082,5.262,5.262,0,0,1-1.134-3.007,3.135,3.135,0,0,1,.018-.782,7.23,7.23,0,0,1,.091-.763,10.254,10.254,0,0,1,.4-1.405,23.216,23.216,0,0,1,2.568-4.707c.942-1.417,1.916-2.753,2.694-4.073.106-.165.184-.328.269-.491l.329-.618.754-1.029c.471-.666,1-1.284,1.49-1.915A45.009,45.009,0,0,1,142.646,204a38.934,38.934,0,0,1,8.625-5.2A44.05,44.05,0,0,1,158.093,196.457Z" /></g></g><path class="cls-2" d="M251.155,240.077a41.5,41.5,0,1,1,32.728,65.571" /><path d="M283.885,305.587c.353-.349,2.165-.541,4.772-.906a46.858,46.858,0,0,0,9.458-2.494l1.308-.485c.439-.161.85-.4,1.278-.6.847-.418,1.709-.818,2.549-1.248a42.507,42.507,0,0,0,4.64-3.05,33.71,33.71,0,0,0,6.5-6.319,45.455,45.455,0,0,0,6.024-10.78,39.914,39.914,0,0,0,2.569-12.337,38.658,38.658,0,0,0-6.394-23.592A44.15,44.15,0,0,0,309.722,236c-.65-.562-1.35-1.064-2.015-1.6l-1.007-.8-1.078-.69c-.723-.452-1.417-.948-2.15-1.371l-2.248-1.173a18.368,18.368,0,0,0-2.3-1.028c-.783-.295-1.53-.689-2.332-.912a38.218,38.218,0,0,0-4.788-1.281c-.808-.143-1.6-.373-2.412-.456l-2.425-.252c-.4-.037-.805-.1-1.207-.119l-1.206-.031c-.8-.043-1.6-.021-2.395.013a41.055,41.055,0,0,0-17.464,4.618,44.938,44.938,0,0,0-12.614,9.815,26.042,26.042,0,0,1,3.548-7.5,32.584,32.584,0,0,1,6.722-7.233,34,34,0,0,1,8.2-4.824,24.145,24.145,0,0,1,6.783-1.794,49,49,0,0,1,19.238,2.344,46.768,46.768,0,0,1,15.486,8.729,45.51,45.51,0,0,1,15.507,27.38q.13.933.259,1.859a13.619,13.619,0,0,1,.191,1.85q.075,1.854.149,3.678l-.2,3.619-.057.9-.14.883-.279,1.758a42.293,42.293,0,0,1-4.425,12.965,43.376,43.376,0,0,1-7.746,10.261c-.742.728-1.557,1.365-2.327,2.036l-1.169.978-1.245.859c-.836.555-1.633,1.153-2.487,1.643l-2.581,1.38a34.638,34.638,0,0,1-12.461,3.435c-1.069.14-2.129.071-3.095.1a18.58,18.58,0,0,1-2.671-.081C285.675,305.806,284.476,305.666,283.885,305.587Z" /><path class="cls-2" d="M224.2,186.309c.381,11.636-8.975,14.252-20.611,14.633s-21.143-1.617-21.524-13.252a21.079,21.079,0,1,1,42.135-1.381Z" /><path d="M224.14,186.312a2.337,2.337,0,0,1-.5-1.082c-.086-.289-.167-.629-.255-1.009-.124-.376-.252-.793-.383-1.245a23.178,23.178,0,0,0-2.9-6.274,19.82,19.82,0,0,0-5.538-5.5,15.8,15.8,0,0,0-5.8-2.424,20.073,20.073,0,0,0-8.415.148,19.653,19.653,0,0,0-7.592,3.628,19.021,19.021,0,0,0-5.156,6.494,17.448,17.448,0,0,0-1.653,7.791,11.518,11.518,0,0,0,1.432,5.827,8.38,8.38,0,0,0,4.391,3.162,27.344,27.344,0,0,0,6.765,1.277c2.405.193,4.9.232,7.292.2,4.752-.068,9.191-.576,12.284-2.329a8.674,8.674,0,0,0,3.51-3.615,16.525,16.525,0,0,0,1.444-5.013,11.19,11.19,0,0,1,1.4,6.063c-.083.6-.165,1.247-.317,1.892a15.625,15.625,0,0,1-.718,1.9,12.385,12.385,0,0,1-2.5,3.381,18.022,18.022,0,0,1-6.5,3.876,16.364,16.364,0,0,1-5.066.977c-2.465,0-4.779-.147-7.06-.344a65.072,65.072,0,0,1-6.787-.874,29.175,29.175,0,0,1-6.575-1.989A14.491,14.491,0,0,1,183.407,197a13.372,13.372,0,0,1-2.585-6.142,22.771,22.771,0,0,1-.318-3.113l.04-1.524a9.836,9.836,0,0,1,.109-1.506l.184-1.489.316-1.454a25.751,25.751,0,0,1,.832-2.819,24.069,24.069,0,0,1,2.661-5.079,23.031,23.031,0,0,1,18.067-10.058,22.1,22.1,0,0,1,9.581,1.768,20.991,20.991,0,0,1,7.374,5.3c.232.259.474.53.726.81.231.3.449.621.678.948s.461.662.675,1.017l.588,1.118A19.58,19.58,0,0,1,224,179.55,19.32,19.32,0,0,1,224.14,186.312Z" /><path class="cls-2" d="M224.327,185.929c7.691,2.821,12.477,6.694,12.217,10.645-.457,6.945-16.244,11.548-35.253,10.3s-34.055-7.884-33.6-14.829c.264-4,5.617-7.227,13.761-9-.2,1.45-.328,2.854-.418,4.211-.239,3.632,9.166,7.218,21.02,8s21.648-1.541,21.887-5.174C224.037,188.665,224.158,187.28,224.327,185.929Z" /><path d="M224.357,185.932a6.807,6.807,0,0,1,.066,1.539l-.048,1.435-.041.858a3.686,3.686,0,0,1-.15,1.043,4.053,4.053,0,0,1-1.455,1.846,10.483,10.483,0,0,1-2.191,1.223,25.261,25.261,0,0,1-5.266,1.485c-7.527,1.38-16.183.672-20.934-.049a45.463,45.463,0,0,1-6.384-1.37,27.567,27.567,0,0,1-3.207-1.163,13.981,13.981,0,0,1-3.144-1.839,6.288,6.288,0,0,1-1.425-1.572,4.178,4.178,0,0,1-.493-1.169,3.4,3.4,0,0,1-.1-.688l-.006-.353.017-.213.067-.854.028-.372,0-.111.008-.4v-.089c0-.034,0-.062-.042-.037l-.2.062-.417.139-1.344.437c-.5.19-1.017.359-1.508.566a16.332,16.332,0,0,0-5.23,3.111,4.9,4.9,0,0,0-1.356,2.06,3,3,0,0,0,.14,2.111,9.965,9.965,0,0,0,3.835,3.956A31.17,31.17,0,0,0,179.1,200.3a77.113,77.113,0,0,0,21.295,4.51,84.35,84.35,0,0,0,20.776-.7,37.018,37.018,0,0,0,9.122-2.662,12.784,12.784,0,0,0,3.531-2.335,4.23,4.23,0,0,0,1.435-3.086,5.53,5.53,0,0,0-1.451-3.251,15.746,15.746,0,0,0-2.942-2.642,37.653,37.653,0,0,0-6.733-3.669,27.64,27.64,0,0,1,7.581,2.41,15.512,15.512,0,0,1,3.932,2.718,8.857,8.857,0,0,1,1.588,2.123,6.311,6.311,0,0,1,.732,2.795,7.39,7.39,0,0,1-2.182,5.093,15.325,15.325,0,0,1-3.711,2.83,24.467,24.467,0,0,1-6.266,2.411,74.783,74.783,0,0,1-18.157,1.492,103.459,103.459,0,0,1-16.83-1.844,64.026,64.026,0,0,1-15.179-4.772,22.766,22.766,0,0,1-6.39-4.357,8.433,8.433,0,0,1-2.1-3.389,5.584,5.584,0,0,1,.308-4.067,8.728,8.728,0,0,1,2.46-2.993A16.986,16.986,0,0,1,173,184.947a28.031,28.031,0,0,1,3.252-1.382c.545-.206,1.1-.377,1.645-.549l.42-.132.577-.153,1.154-.307,2.37-.577c.15-.081.061.11.073.186l-.024.3-.049.595-.1,1.194-.2,2.215-.07.8-.017.195.007.106a.959.959,0,0,0,.03.215,3.754,3.754,0,0,0,1.59,1.827,14.574,14.574,0,0,0,2.58,1.387,45.785,45.785,0,0,0,11.388,2.834,76.042,76.042,0,0,0,11.06.658c3.363-.095,8.069-.275,11.849-1.617a7.155,7.155,0,0,0,2.412-1.364,2.376,2.376,0,0,0,.663-.981,11.728,11.728,0,0,0,.212-1.168C224.071,187.684,224.263,186.512,224.357,185.932Z" /><g class="cls-3"><g class="cls-4"><path d="M275.307,296.789c.19-.283.861-.39,1.793-.395.94-.042,2.151-.015,3.444-.074a20.9,20.9,0,0,0,6.954-1.252,52.068,52.068,0,0,0,7.725-4.039,30.071,30.071,0,0,0,6.417-5.47,41.089,41.089,0,0,0,7.037-11.726,56.344,56.344,0,0,0,3.128-11.6,11.873,11.873,0,0,1,4.212,6.077c.815,2.452.754,4.888.21,6.008a59.982,59.982,0,0,1-7.369,11.357,44.355,44.355,0,0,1-8.312,7.882,34.107,34.107,0,0,1-8.924,4.731,22.37,22.37,0,0,1-8.764,1.323,12.025,12.025,0,0,1-2.228-.35,16.484,16.484,0,0,1-2.335-.819A17.406,17.406,0,0,1,275.307,296.789Z" /></g></g><g class="cls-3"><g class="cls-4"><path d="M285.768,265.251a5.267,5.267,0,0,1,.5,1.25c.209.683.469,1.606.871,2.678.338,1.092.873,2.3,1.421,3.634l.993,2c.344.688.781,1.35,1.176,2.048a27.118,27.118,0,0,0,6.374,7.244,17.029,17.029,0,0,0,6.956,3.274,14.28,14.28,0,0,0,5.1-.06,13.182,13.182,0,0,0,4.713-2.072,18.415,18.415,0,0,0,6.3-8.6c2.692-6.944,2.363-14.963.271-21.786-1.827-5.964-5.184-11.54-9.862-15.069a15.514,15.514,0,0,0-7.642-3.207,12.325,12.325,0,0,0-7.567,1.8,16.542,16.542,0,0,0-5.411,5.664,26.487,26.487,0,0,0-2.9,7.16,32.909,32.909,0,0,0-1.027,7.23,43.072,43.072,0,0,0,.27,6.707c-.334-.9-.736-1.923-1.044-3.053a28.194,28.194,0,0,1-.743-3.662,32.185,32.185,0,0,1-.309-4.057,31.6,31.6,0,0,1,.309-4.191,25.246,25.246,0,0,1,2.328-7.651c.268-.551.6-1.051.879-1.541l.433-.709.481-.63.9-1.125c.31-.321.613-.6.884-.853a16.72,16.72,0,0,1,7.694-4.088,15.622,15.622,0,0,1,8.294.474,20.775,20.775,0,0,1,6.785,3.9,30.116,30.116,0,0,1,4.931,5.564,37.672,37.672,0,0,1,3.41,6.268,40.693,40.693,0,0,1,2.1,6.556,39.222,39.222,0,0,1,.863,13.045,30.7,30.7,0,0,1-.488,3.127c-.111.512-.2,1.027-.329,1.532l-.435,1.5c-.256,1-.707,1.939-1.049,2.9l-.672,1.375a9.973,9.973,0,0,1-.732,1.334l-.8,1.29-.919,1.2a8.839,8.839,0,0,1-.986,1.132c-.354.354-.68.733-1.055,1.06a16.682,16.682,0,0,1-5.032,3.077,15.134,15.134,0,0,1-11.061-.355,22.058,22.058,0,0,1-8.176-6.139c-.525-.577-1-1.281-1.545-1.99-.512-.729-.973-1.545-1.474-2.353-.428-.85-.88-1.707-1.27-2.582-.348-.9-.742-1.761-1.018-2.636s-.561-1.711-.752-2.514-.351-1.549-.5-2.217C285.974,266.783,285.839,265.756,285.768,265.251Z" /></g></g><g class="cls-3"><g class="cls-4"><path d="M121.558,209.184c-.222.04-.8-.4-1.78-.675a8.9,8.9,0,0,0-3.78-.162,20.764,20.764,0,0,0-7.592,3.007A75.1,75.1,0,0,0,92.681,225.53a72.673,72.673,0,0,0-9.6,14.375,27.1,27.1,0,0,0-2.427,7.017,10.588,10.588,0,0,0-.1,3.173,5.476,5.476,0,0,0,1.066,2.57,4.507,4.507,0,0,1-2.533-2.182,9.8,9.8,0,0,1-1.111-4A13.67,13.67,0,0,1,79.035,240a73.661,73.661,0,0,1,8.1-12.1,105.478,105.478,0,0,1,8.474-9.344,62.9,62.9,0,0,1,8.556-7.086,27.967,27.967,0,0,1,8.894-4.187,11.083,11.083,0,0,1,5.312-.068,6.316,6.316,0,0,1,2.188,1A5.341,5.341,0,0,1,121.558,209.184Z" /></g></g><g class="cls-3"><g class="cls-4"><path d="M270.657,226.848a23.355,23.355,0,0,1-2.644,1.264,19.781,19.781,0,0,0-4.833,3.408,23.8,23.8,0,0,0-4.131,5.423,25.577,25.577,0,0,0-2.2,5.152,50.384,50.384,0,0,0-1.975,15.628,61.552,61.552,0,0,0,2.523,15.821c2.562,8.673,6.931,16.73,12.585,22.465a28.444,28.444,0,0,0,9.211,6.435,18.273,18.273,0,0,0,9.488,1.31,12.524,12.524,0,0,1-4.73,1.52,16.959,16.959,0,0,1-5.967-.384,20.12,20.12,0,0,1-8.675-4.509,53.384,53.384,0,0,1-11.89-18.337,70.505,70.505,0,0,1-4.7-18.418,54.429,54.429,0,0,1,.583-16.732,31.589,31.589,0,0,1,5.965-13.484,18.6,18.6,0,0,1,2.641-2.707,18.289,18.289,0,0,1,3.424-2.249A16.393,16.393,0,0,1,270.657,226.848Z" /></g></g><g class="cls-3"><g class="cls-4"><path d="M207.683,172.134c.133-.284.472-.406.959-.418a5.2,5.2,0,0,1,.825.057,5.449,5.449,0,0,1,.91.29c.312.124.651.245.963.4l.883.525c.607.321,1.072.7,1.5.906a9.472,9.472,0,0,1,3.681,3.518,16.286,16.286,0,0,1,1.891,4.753,12.467,12.467,0,0,1-.83,8.3,8.629,8.629,0,0,1-5.2,4.7c-.711-1.748-1.287-3.234-1.782-4.326a9.926,9.926,0,0,1-.465-1.312.58.58,0,0,1,.186-.669,5.946,5.946,0,0,0,2.66-4.05,7.678,7.678,0,0,0-.517-4.25,11.3,11.3,0,0,0-2.019-3.05c-.706-.847-1.409-1.439-1.935-2.216a3.5,3.5,0,0,1-.432-.668c-.147-.273-.271-.664-.444-.964C208.147,172.986,207.805,172.357,207.683,172.134Z" /></g></g><path class="cls-2" d="M98.569,301.558c-17.067,1.24-15.8-27.185-13.636-38.473C-8.956,384.712,155.316,471.524,254.61,413.272c37.657-22.092,75.932-70.947,50.095-110.9-1.7-.7-22.628,10.613-37.389-6.318-5.776,16.255-22.85,31.579-46.7,26.17-21.335.282-42.291,19.152-65.8-.389-19.824-7.47-31.861,2.057-48.418-14.844-3.775-1.845-10.241-2.025-11.352-5.955" /><path class="cls-5" d="M95.086,301.027A4.953,4.953,0,0,0,96.4,302.8a10.92,10.92,0,0,0,3.9,1.816c.859.258,1.811.5,2.842.773a22.568,22.568,0,0,1,3.333,1.115,1.078,1.078,0,0,1,.429.3l.379.346.69.628,1.431,1.307c.99.876,2.137,1.655,3.267,2.545a32.461,32.461,0,0,0,8.265,4.05,44.1,44.1,0,0,0,10.271,1.631c3.665.227,7.544.3,11.534.771a53.058,53.058,0,0,1,12.075,2.792,4.933,4.933,0,0,1,.466.165l.408.317.638.494,1.212.939c.848.568,1.675,1.18,2.553,1.711s1.753,1.073,2.684,1.512a30.408,30.408,0,0,0,2.806,1.29,32.377,32.377,0,0,0,12.094,2.332A51.477,51.477,0,0,0,189.98,328c4.027-.974,7.958-2.214,11.844-3.376A104.331,104.331,0,0,1,213.4,321.7a46.266,46.266,0,0,1,5.715-.692l1.482-.068c.757.085,1.087.173,1.531.237l2.543.431a36.376,36.376,0,0,0,25.012-5.576c.588-.383,1.139-.827,1.713-1.237a18.916,18.916,0,0,0,1.678-1.3,36.716,36.716,0,0,0,3.134-2.936,40.173,40.173,0,0,0,7.564-10.917l.277-.573c.149-.3.3-.6.419-.911.261-.614.489-1.227.737-1.845.489-1.22.973-2.515,1.481-3.711,1.135,1.195,2.246,2.424,3.46,3.593l.9.89a6.517,6.517,0,0,0,.493.463l.273.219c.366.287.721.591,1.094.868a23.774,23.774,0,0,0,4.826,2.757,25.635,25.635,0,0,0,11.02,1.915,44.249,44.249,0,0,0,11.506-2.135l1.481-.451a11.394,11.394,0,0,1,2.552-.551,8.181,8.181,0,0,1,1.185.13l.153.027.1.1.211.2.422.407a2.887,2.887,0,0,1,.41.434l.347.578.656,1.1a59.39,59.39,0,0,1,3.043,5.706,57.711,57.711,0,0,1,3.892,12.427,58.435,58.435,0,0,1,.735,13.064,71.264,71.264,0,0,1-6.575,25.129,94.36,94.36,0,0,1-6.145,11.409,115.826,115.826,0,0,1-7.429,10.548c-2.639,3.389-5.5,6.582-8.42,9.7-2.968,3.075-6.038,6.036-9.229,8.847A144.9,144.9,0,0,1,257.224,415,129.777,129.777,0,0,1,234.7,425.83a146.071,146.071,0,0,1-42.127,8.71,160.079,160.079,0,0,1-42.358-3.18,151.887,151.887,0,0,1-39.26-14,121.275,121.275,0,0,1-32.488-24.432,96.289,96.289,0,0,1-12.04-15.917,84.837,84.837,0,0,1-8.067-17.857,83.363,83.363,0,0,1-2.876-37.385,101.567,101.567,0,0,1,4.305-17.462,115.219,115.219,0,0,1,6.8-15.946l1.965-3.75,2.106-3.623c1.352-2.432,2.93-4.69,4.376-7,.358-.579.76-1.126,1.147-1.682l1.453-2.081c1.206-1.769,2.355-3.288,3.545-4.882l3.535-4.674c1.1-1.393,2.555-3.6,2.824-3.248-.7,3.909-1.472,8.093-1.9,11.381-.206,1.66-.333,3.192-.418,4.7-.061.867-.056,1.2-.083,1.729-.026.494-.026.985-.038,1.474a53.487,53.487,0,0,0,.88,11.239c.718,3.518,1.908,6.893,4.046,9.354a9.686,9.686,0,0,0,3.831,2.724,11.585,11.585,0,0,0,4.651.684,12.09,12.09,0,0,1-4.482-.216,9.9,9.9,0,0,1-4.24-2.335c-2.539-2.326-4.147-5.826-5.174-9.512a53.435,53.435,0,0,1-1.672-11.84c-.014-.515-.043-1.032-.044-1.55l-.018-1.425q-.014-1.086.007-2.059.042-1.948.2-3.451l.047-.395.023-.19-.168.252-.645.974-1.174,1.786c-.372.554-.693,1.093-.99,1.6-.338.56-.4.721-1.183,1.925-1.252,1.942-2.356,3.979-3.542,5.958-1.142,2.006-2.178,4.066-3.269,6.081A121.409,121.409,0,0,0,62.8,311.041l-.4,1.511c-.119.5-.211,1.012-.318,1.514q-.312,1.506-.617,2.985c-.359,1.977-.631,3.926-.9,5.823a90.029,90.029,0,0,0-.61,10.829,87.287,87.287,0,0,0,1.778,16.884A79.273,79.273,0,0,0,72.98,377.624a96.57,96.57,0,0,0,8.913,11.535,103.406,103.406,0,0,0,10.458,10.018,112.742,112.742,0,0,0,11.577,8.514,125.277,125.277,0,0,0,12.37,7.066,146.6,146.6,0,0,0,26.175,10.066c35.721,9.881,73.294,6.685,103.544-8.258,1.885-.941,3.764-1.878,5.575-2.929.911-.515,1.833-1.008,2.731-1.539l2.67-1.625c3.516-2.226,6.945-4.55,10.213-7.051s6.446-5.079,9.444-7.823c1.534-1.335,2.963-2.772,4.435-4.153,1.405-1.449,2.864-2.839,4.2-4.333,2.767-2.907,5.3-5.987,7.757-9.089,2.394-3.148,4.678-6.352,6.718-9.677a92.109,92.109,0,0,0,5.5-10.218c.847-1.726,1.508-3.521,2.233-5.284.332-.892.623-1.8.936-2.692l.462-1.344.383-1.365a57.658,57.658,0,0,0,2.212-22.025,51.3,51.3,0,0,0-.9-5.378,47.757,47.757,0,0,0-1.435-5.22,50.829,50.829,0,0,0-4.529-9.714l-.406-.677c-.139-.16-.182-.509-.464-.413a5.016,5.016,0,0,0-.677.162l-1.009.3c-1.745.531-3.539,1.037-5.352,1.439a38.657,38.657,0,0,1-11.121.963,27.642,27.642,0,0,1-10.784-2.914,26.283,26.283,0,0,1-4.681-3.02l-.948-.775-.449-.418c-.305-.269-.563-.583-.844-.869-.206.406-.385.944-.576,1.4l-1.244,2.537-1.736,2.94-1.946,2.787a42.924,42.924,0,0,1-9.652,9.332,39.914,39.914,0,0,1-11.959,5.682,39.454,39.454,0,0,1-12.941,1.33c-1.072-.088-2.147-.146-3.21-.263l-3.149-.558-.785-.14a1.047,1.047,0,0,0-.371-.026l-1.466.056c-.978.083-1.955.144-2.93.29a80.342,80.342,0,0,0-11.568,2.563c-7.622,2.147-15.255,4.762-23.28,5.279a37.606,37.606,0,0,1-6.184-.055,32.263,32.263,0,0,1-6.541-1.233c-1.108-.286-2.18-.729-3.277-1.126-1.063-.481-2.158-.922-3.19-1.507a40.422,40.422,0,0,1-6.025-3.895l-1.411-1.137a.988.988,0,0,0-.438-.267l-.769-.27c-1.1-.358-2.167-.823-3.3-1.085a51.689,51.689,0,0,0-6.835-1.474c-4.628-.709-9.348-.819-13.948-1.307a35.194,35.194,0,0,1-12.777-3.609c-.466-.244-.935-.473-1.384-.724l-1.28-.841a20.72,20.72,0,0,1-2.409-1.72c-.745-.613-1.485-1.2-2.18-1.792l-1.908-1.873-.878-.864c-.121-.156-.326-.182-.483-.278a5.917,5.917,0,0,0-.545-.24c-.73-.31-1.472-.542-2.18-.776-1.425-.45-2.756-.842-3.919-1.31a9.235,9.235,0,0,1-2.87-1.669A4.373,4.373,0,0,1,95.086,301.027Z" /><path class="cls-6" d="M297.855,328.482c1.9-24.9-35.111-28.187-29.194-1.571,13.832,73.952-83.919,99.071-140.856,80.365C186.84,445.4,301.324,408.839,297.855,328.482Z" /><path class="cls-7" d="M297.855,328.482c1.9-24.9-35.111-28.187-29.194-1.571,13.832,73.952-83.919,99.071-140.856,80.365C186.84,445.4,301.324,408.839,297.855,328.482Z" /><path class="cls-6" d="M297.915,328.479c.283.935.928,6.016.169,13.51a72.451,72.451,0,0,1-2.454,12.649,76,76,0,0,1-5.711,14.169A89.124,89.124,0,0,1,269.634,394.1a122.612,122.612,0,0,1-21.907,15.129,136.481,136.481,0,0,1-59.742,16.282,122.959,122.959,0,0,1-32.229-2.882A95.783,95.783,0,0,1,125.8,410.388l3.166-6.631a118.559,118.559,0,0,0,24.171,4.815,148.016,148.016,0,0,0,30.918-.259,139.7,139.7,0,0,0,29.7-6.471,101.349,101.349,0,0,0,26.261-13.017l2.906-2.092,2.728-2.271,1.363-1.129,1.263-1.222,2.519-2.435c.782-.858,1.531-1.74,2.3-2.6l1.144-1.3c.375-.437.686-.918,1.033-1.374l2.032-2.759c.642-.938,1.183-1.935,1.781-2.894a53.7,53.7,0,0,0,3.106-5.97,10.351,10.351,0,0,0,.641-1.541l.571-1.565c.356-1.049.82-2.063,1.092-3.132s.55-2.136.823-3.2l.414-1.592.249-1.623q.253-1.622.5-3.231c.04-.269.091-.536.121-.805l.046-.814.093-1.624q.1-1.623.194-3.233c0-1.077-.067-2.153-.095-3.224s-.069-2.142-.1-3.205q-.193-1.581-.387-3.147t-.375-3.126c-.063-.523-.177-1.144-.261-1.708a14.994,14.994,0,0,1-.222-1.755,20.944,20.944,0,0,1,.494-7.27,14.4,14.4,0,0,1,3.608-6.568,13.878,13.878,0,0,1,6.329-3.653,18.2,18.2,0,0,1,13.066,1.685,18.946,18.946,0,0,1,8.4,8.917,21.582,21.582,0,0,1,1.6,11.2,22.655,22.655,0,0,0-2.832-10.13,17.343,17.343,0,0,0-8.581-7.307,14.614,14.614,0,0,0-11.155-.008,9.145,9.145,0,0,0-3.887,3.38,10.54,10.54,0,0,0-1.509,4.9,18.469,18.469,0,0,0,.019,2.711,25.2,25.2,0,0,0,.47,2.774l.325,1.406.306,1.615q.3,1.614.593,3.2a49.3,49.3,0,0,1,.761,6.251c.079,1.021.188,2.027.231,3.022l-.037,2.947q-.027,1.45-.054,2.844a27.09,27.09,0,0,1-.265,2.72q-.165,1.329-.324,2.59a18.464,18.464,0,0,1-.4,2.437c-.365,1.56-.72,3.02-1.061,4.363a12.761,12.761,0,0,1-.6,1.9q-.334.891-.638,1.694a64,64,0,0,1-12.045,19.676,80.607,80.607,0,0,1-16.9,14.238,104.838,104.838,0,0,1-19.012,9.467,132.165,132.165,0,0,1-19.656,5.892,161.139,161.139,0,0,1-19.657,3.032,168.856,168.856,0,0,1-19.3.568,155.134,155.134,0,0,1-18.687-1.768,129.449,129.449,0,0,1-17.769-4.237l1.316-2.757a88.12,88.12,0,0,0,20.843,9.639,108.514,108.514,0,0,0,21.747,4.362,136.634,136.634,0,0,0,77.836-16.251,106.32,106.32,0,0,0,27.847-21.889,90.763,90.763,0,0,0,9.623-12.976,78.787,78.787,0,0,0,7.435-16A82.265,82.265,0,0,0,297.915,328.479Z" /><g class="cls-3"><g class="cls-4"><path d="M204.282,430.869a24.4,24.4,0,0,1,1.069-3.505c.629-1.915,1.4-4.471,2.139-7.238,1.493-5.532,2.924-11.892,3.578-15.463,1.166-6.305,2.424-13.058,3.948-19.868.385-1.7.786-3.408,1.247-5.119.231-.856.472-1.711.753-2.577a16.667,16.667,0,0,1,1.079-2.7l.205-.373a5.1,5.1,0,0,1,.337-.459,3.309,3.309,0,0,1,.819-.743,5.514,5.514,0,0,1,.719-.439c.215-.116.445-.255.644-.344.826-.411,1.632-.764,2.434-1.112,1.6-.676,3.186-1.3,4.754-1.893q4.116-1.557,8.249-2.9c1.379-.448,2.756-.884,4.139-1.3l2.082-.6.941-.258.1-.02c.036-.007.014,0,.024-.009l0,0v0l.025-.123.1-.5c.145-.665.249-1.336.359-2,.242-1.331.391-2.665.57-3.984.282-2.648.455-5.261.5-7.82a85.745,85.745,0,0,0-3.94-26.671,43.942,43.942,0,0,1,5.6,12.025,42.238,42.238,0,0,1,1.971,11.565,91.257,91.257,0,0,1-1.3,13.89c-.221,1.1-.405,2.2-.649,3.279l-.434,1.962-.129.6c-.033.089-.019.224-.09.275l-.295.07-1.167.276-1.694.417-1.523.4q-1.515.414-3,.855-5.943,1.766-11.4,3.807c-1.81.68-3.591,1.387-5.233,2.186a7.958,7.958,0,0,0-1.039.614c-.146.1-.189.223-.3.358-.093.181-.193.347-.284.536a22.367,22.367,0,0,0-.914,2.489c-1.046,3.438-1.807,6.89-2.555,10.212q-1.085,5.005-2.1,9.681c-1.354,6.244-2.688,12.06-4.247,17.424a85.547,85.547,0,0,1-3.113,8.947A48.367,48.367,0,0,1,204.282,430.869Z" /></g></g><g class="cls-3"><g class="cls-4"><path d="M83.2,397.707c-.39-.368-1.65-4.554-2.508-9.532-.909-4.969-1.412-10.692-1.654-13.883a92.073,92.073,0,0,1,.25-17.852c.308-3.051.824-6.123,1.388-9.093.576-2.916.917-5.6.084-7.777-.7-1.976-2.2-3.96-3.539-6.19-1.337-2.188-2.562-4.421-3.67-6.676q-.829-1.69-1.573-3.4a38.166,38.166,0,0,1-1.4-3.553,10.462,10.462,0,0,1-.436-2.126,7.807,7.807,0,0,1,.138-2.3,12.591,12.591,0,0,1,1.554-3.7c4.782-7.873,9.237-14.788,13.007-20.256-1.515,5.954-6.2,16.44-8.48,19.824a19.542,19.542,0,0,0-2.735,4.772c-.441,1.387.073,3.061.772,4.853a74.971,74.971,0,0,0,4.68,10.039c.867,1.574,1.812,3.04,2.725,4.6a14.433,14.433,0,0,1,1.963,5.076,16.754,16.754,0,0,1-.163,5.238c-.276,1.665-.634,3.234-.9,4.791q-.844,4.667-1.207,9.093c-.269,2.944-.391,5.8-.423,8.56a150.181,150.181,0,0,0,.649,15.448c.211,2.268.5,5.382.757,8.139C82.786,394.547,83.118,396.921,83.2,397.707Z" /></g></g><g class="cls-3"><g class="cls-4"><path d="M322.308,158.083c.627.067,1.548,2.224,1.808,4.953a13.927,13.927,0,0,1,.1,2.094,17.448,17.448,0,0,1-.115,2.089c-.137,1.349-.367,2.578-.529,3.47a16.683,16.683,0,0,1-1.539,4.763,21,21,0,0,1-2.943,4.344,27.567,27.567,0,0,1-8.273,6.274,26.287,26.287,0,0,1-16.519,2.41,21.393,21.393,0,0,1-6.99-2.591,17.6,17.6,0,0,1-4.722-4.094c2.279-.44,4.751-.671,6.788-.912,2.037-.192,3.7-.384,4.529.07a17.1,17.1,0,0,0,10.643,1.371,19.542,19.542,0,0,0,8.824-4.075,19.434,19.434,0,0,0,5.188-6.5,27.231,27.231,0,0,0,2.228-6.683c.057-.522.281-1.131.411-1.8.079-.332.172-.676.272-1.024s.148-.7.23-1.045l.234-1.01.148-.9C322.173,158.738,322.257,158.3,322.308,158.083Z" /></g></g><g class="cls-3"><g class="cls-4"><path d="M198.138,200.326c.352-.557,1.775-.387,3.389-.24a16.668,16.668,0,0,0,4.467,0c3.613-.862,7.463-1.3,10.778-2.262a67.668,67.668,0,0,0,7.593-2.538,8.588,8.588,0,0,1,1.894-.789.634.634,0,0,0,.446-.641,3.965,3.965,0,0,0-.049-.666l-.223-.745a4.729,4.729,0,0,1,1.352-.369,3.534,3.534,0,0,1,3.846,2.99,5.584,5.584,0,0,1,.067,2.058,6.3,6.3,0,0,1-.5,1.631,3.54,3.54,0,0,1-1.432,1.705,21.614,21.614,0,0,1-4.886,1.487c-1.449.3-2.78.494-4.045.708-2.527.4-4.81.792-6.992,1.108-4.327.641-8.337,1-11.588-.187a5.653,5.653,0,0,1-1.27-.608,12.745,12.745,0,0,1-1.272-.975A12.941,12.941,0,0,1,198.138,200.326Z" /></g></g><path class="cls-2" d="M147.99,311.661c7.849-12.818,27.652-12.345,39.315-3.477,8.268,9.168,22.08,12.345,33.314,12.2,2.027.963-12.027,10.621-18.536,13.469-18.183,7.955-47.922,12.9-56.988-9.189-15.3,8.049-31.026,8.027-43.377-5.868-4.229-4.581-8.376-12.244-7.73-18.307a26.335,26.335,0,0,0,19.078-1.153c13.742-8.5,30.541-5.644,35.29,11.35" /><path class="cls-5" d="M148.312,310.7a14.056,14.056,0,0,1-1.163-2.452,28.642,28.642,0,0,0-2.853-4.886,19.5,19.5,0,0,0-5.746-5.158,19.706,19.706,0,0,0-8.7-2.5,25.38,25.38,0,0,0-9.657,1.452,18.761,18.761,0,0,0-2.305.908c-.738.368-1.516.643-2.211,1.079l-1.057.61-.526.3-.262.151a3.058,3.058,0,0,1-.4.211c-.794.361-1.579.687-2.378.979a27.149,27.149,0,0,1-9.433,1.648,28.579,28.579,0,0,1-4.17-.322c-.64-.085-1.232-.187-1.7-.293l-.019,0c-.038.01-.138-.067-.124.013l0,.187,0,.367c.023.241.038.477.075.7a13.8,13.8,0,0,0,.4,1.7,25.389,25.389,0,0,0,2.031,4.937,32.418,32.418,0,0,0,2.975,4.6,36.887,36.887,0,0,0,3.757,4.1,31.9,31.9,0,0,0,9.132,6.267,27.024,27.024,0,0,0,10.74,2.311,34.093,34.093,0,0,0,11.064-1.835l2.682-.979,2.628-1.141L146,321.215l.309-.154.038-.019.02.039.038.08.076.16.306.638.612,1.279c.427.853.778,1.7,1.27,2.6l.7,1.228.753,1.1a10.679,10.679,0,0,0,.8,1.047,11.342,11.342,0,0,0,.858,1,19.6,19.6,0,0,0,4.009,3.327A21.9,21.9,0,0,0,160.5,335.8a27.626,27.626,0,0,0,5.139,1.3,42.627,42.627,0,0,0,9.426.436,63.856,63.856,0,0,0,9.507-1.264,84.5,84.5,0,0,0,9.281-2.491c1.513-.516,3.018-1.042,4.492-1.634.742-.284,1.47-.6,2.2-.9s1.349-.6,2.049-.957a88.841,88.841,0,0,0,8.092-4.794l1.942-1.313.951-.669.453-.328.023-.011a1.2,1.2,0,0,0,.2-.117c.029-.019.108-.087.065-.1l-.1-.024a1.5,1.5,0,0,0-.191-.037l-1.085-.147a55.928,55.928,0,0,1-9.478-2.024,39.571,39.571,0,0,1-16.306-9.351l-.8-.848-.4-.424a2.022,2.022,0,0,1-.153-.172l-1.524-1.1a16.771,16.771,0,0,0-1.663-1.04,14.6,14.6,0,0,0-1.715-.934,31.5,31.5,0,0,0-7.247-2.583,33.222,33.222,0,0,0-7.4-.793,30.319,30.319,0,0,0-3.584.328c-.582.107-1.177.162-1.743.305l-1.684.455a19.625,19.625,0,0,0-10.537,7.536c.434-.831.84-1.788,1.423-2.692a17.3,17.3,0,0,1,2.13-2.647,19.85,19.85,0,0,1,6.282-4.368l1.91-.789c.659-.213,1.335-.4,2.015-.594a14.839,14.839,0,0,1,2.082-.461,19.411,19.411,0,0,1,2.134-.323,33.468,33.468,0,0,1,8.706.243,36.06,36.06,0,0,1,8.23,2.418c.636.292,1.252.617,1.869.925l.916.466.865.54,1.77,1.135,1.473,1.393a39.227,39.227,0,0,0,8.487,5.729,38.39,38.39,0,0,0,5.908,2.52,45.971,45.971,0,0,0,6.23,1.647c1.054.228,2.107.364,3.181.535,1.9.168,3.86.261,5.445.579l1.241.2.309.049c.095.018.095.058.148.087l.242.185.49.365.247.179c.081.082.172.064.243.239a2.155,2.155,0,0,1-.046,1.669,5.539,5.539,0,0,1-.914,1.6,21.938,21.938,0,0,1-3.777,3.366l-1.067.783-.685.474-1.375.925c-1.84,1.207-3.691,2.354-5.569,3.437s-3.77,2.116-5.773,3.027c-2.024.871-3.971,1.621-5.98,2.309a78.131,78.131,0,0,1-24.168,4.515,42.564,42.564,0,0,1-11.856-1.432,27.263,27.263,0,0,1-10.433-5.384,24.663,24.663,0,0,1-3.956-4.264,26.044,26.044,0,0,1-1.544-2.426l-.309-.55c-.059-.11-.141-.234-.193-.359l-.346-.745c-.063-.11-.1-.276-.183-.34l-.388.194-.769.386-.381.192c-.141.068-.211.113-.46.216l-1.263.542c-.838.366-1.675.727-2.541,1.014s-1.7.651-2.582.872a33.611,33.611,0,0,1-21.04.076,31.381,31.381,0,0,1-9.046-4.866c-.708-.469-1.3-1.073-1.944-1.6a19.758,19.758,0,0,1-1.827-1.693,41.5,41.5,0,0,1-3.341-3.638,35.471,35.471,0,0,1-4.959-8.366c-.3-.755-.581-1.511-.815-2.29-.133-.382-.221-.784-.327-1.176-.048-.2-.106-.393-.147-.594l-.138-.724a11.055,11.055,0,0,1-.2-1.714,12.015,12.015,0,0,1-.058-1.662c.017-.541.022-1.07.06-1.63l.047-.828a1.688,1.688,0,0,1,.039-.388l.133-.231c1.694.472,3.457.942,5.133,1.284l.88.142c.254.047.51.065.764.1.509.071,1.018.1,1.524.139a23.913,23.913,0,0,0,5.964-.4,26.828,26.828,0,0,0,5.544-1.749l1.286-.7c.473-.253.935-.521,1.413-.756.984-.417,1.945-.867,2.932-1.24a27.208,27.208,0,0,1,10.823-1.744,20.132,20.132,0,0,1,17.582,11.62A32.216,32.216,0,0,1,148.312,310.7Z" /><path class="cls-6" d="M209.745,324.244c.1.712-1.792,2.093-4.148,3.433-2.347,1.356-5.158,2.629-6.67,3.548-5.294,3.332-12.5,5.171-19.148,5.458a38.36,38.36,0,0,1-16.459-2.323,24.029,24.029,0,0,1-6.584-3.937,19.744,19.744,0,0,1-4.171-4.91,57.219,57.219,0,0,1,7.255-.137c2.171.076,3.9.239,4.693.833a22.443,22.443,0,0,0,10.714,4.2,36.965,36.965,0,0,0,5.438.362,32.376,32.376,0,0,0,5.022-.436c6.468-1.115,11.591-3.636,16.395-5.006A38.715,38.715,0,0,1,209.745,324.244Z" /></g></g></g></svg>