<svg xmlns="http://www.w3.org/2000/svg" viewBox="0 0 380 600"><defs transform="matrix(-1, 0, 0, 1, 380, 0)"><style>.cls-1{isolation:isolate;}.cls-2{mix-blend-mode:multiply;}.cls-3{opacity:0.3;}.cls-4{fill:#ffffff;}.cls-5{opacity:0.4;}</style></defs><g class="cls-1" transform="matrix(-1, 0, 0, 1, 380, 0)"><g id="uniforms_1"><g id="default"><g class="cls-2"><g class="cls-3"><path d="M224.19,380.32a16.68,16.68,0,0,1,.36-3.07l.73.47a30,30,0,0,1-9.24,5.57l-3.13,1.22,2.12-2.68a45.39,45.39,0,0,0,7-12.38l2,1.36a268.28,268.28,0,0,1-24.43,21.06l-2.35-2.27a186.67,186.67,0,0,1,19.37-23.94l2.54,3c-11.69,8.45-22.35,16.18-29.73,21.69l-7.81,5.82L178,391.86a315.61,315.61,0,0,1,32.46-29.08l3.63,6.3a125.37,125.37,0,0,0-25.3,15.4c-8,6.1-15.6,12.91-23.25,19.76l-6.7-5.59A99.7,99.7,0,0,1,176.77,377c6.68-6.27,13.72-11.78,20.58-17.14l5.16,8.08c-7.34,3.9-14,7.88-20.39,12.12a239.88,239.88,0,0,0-28.53,22.21l-7.36-7.08a231.64,231.64,0,0,1,41-38.52l4.66,8.86a102.28,102.28,0,0,0-25,12.55c-1.89,1.31-3.73,2.66-5.51,4.09s-3.77,3-5.76,4.5a47.7,47.7,0,0,1-13.66,7.43l-4.46-7.84c11.77-10.24,22.67-21.63,35.69-29.75l3,7.11a60.61,60.61,0,0,0-17.75,7.07c-5.44,3.15-10.51,6.8-15.55,10.29l-4.19-4.39c3.53-4.11,6.64-8.22,10.39-11.8a51.6,51.6,0,0,1,12-8.27l2,4c-8.26,3.25-14.95,5.82-21.34,8.24,5.66-3.35,12.48-7.13,20.09-11.18l.85,1.73a51,51,0,0,0-10.46,9.18c-3,3.61-5.67,7.87-8.65,12L139.24,376a168.17,168.17,0,0,1,16.56-12.72,64.08,64.08,0,0,1,18.36-8.24L178,364c-7.64,5.35-13.6,10.92-17.88,14.53-5.66,4.85-11.22,9.94-16.68,14.49l-4.17-7.33c3.95-1.11,7.94-3.55,11.73-6.28,1-.68,1.9-1.39,2.84-2.12l2.92-2.25c2-1.51,4-3,6.14-4.33A110.65,110.65,0,0,1,189.24,358l2.7,5.13a220.61,220.61,0,0,0-40.09,36.78l-3.16-3A250.79,250.79,0,0,1,199.38,362l2.11,3.31c-7.28,5.62-14.37,11.16-20.74,17.17A91.65,91.65,0,0,0,164.5,402l-3.27-2.73c8-7.12,15.9-14.12,24.2-20.35a128.56,128.56,0,0,1,26.27-15.65l2.56,4.46A343.24,343.24,0,0,0,182,395.88l-3.61-4.34q19.72-14,38.07-26.77L220,369q-5.15,5.21-9.77,10.62c-2.83,3.36-6,7.21-9.69,12.31l-3.35-3.24c8.34-5.87,17.47-13,25.14-19.64l2,1.34a44.58,44.58,0,0,1-8.14,12.45l-.64-.92a34.73,34.73,0,0,0,9.42-4.57l.15-.1-.05.16Z" /></g></g><circle class="cls-4 color-body" cx="117.4" cy="247.35" r="41.5" style="fill:#ffffff;--backup-fill:#ffffff" /><path d="M158.83,248.42a8,8,0,0,1-.48-2.34c-.09-.63-.11-1.37-.25-2.19l-.49-2.72a43.41,43.41,0,0,0-5.33-13.87,40.75,40.75,0,0,0-11.58-12.39,35.86,35.86,0,0,0-12.6-5.56,39.92,39.92,0,0,0-35.59,9.06,39.48,39.48,0,0,0-6.34,7.26,38.23,38.23,0,0,0-2.39,4.16c-.34.73-.74,1.42-1,2.16l-.84,2.23c-.13.37-.3.73-.41,1.12l-.3,1.14-.63,2.29-.38,2.32a15.3,15.3,0,0,0-.29,2.33,31.48,31.48,0,0,0-.12,4.65c0,.77,0,1.54.09,2.31l.32,2.26a38.28,38.28,0,0,0,30.26,31.7,39.06,39.06,0,0,0,38.11-13.68,42.6,42.6,0,0,0,6.44-10.9,46.85,46.85,0,0,0,2.76-11.37,34.21,34.21,0,0,1,.11,12.36,39.35,39.35,0,0,1-15.39,24.34,26,26,0,0,1-2.64,1.74,22.9,22.9,0,0,1-2.51,1.4c-.82.38-1.6.73-2.32,1-.36.16-.71.31-1,.43l-1,.29c-1.26.33-2.49.73-3.75,1l-3.77.66c-1.26.12-2.52.2-3.77.3l-.93.06-.93,0-1.87,0a45.3,45.3,0,0,1-14.19-2.72,47.14,47.14,0,0,1-12.12-6.71,44.76,44.76,0,0,1-9.18-9.64c-.6-.92-1.27-1.78-1.8-2.72l-1.56-2.83c-.5-.95-.88-2-1.32-2.93-.2-.49-.44-1-.62-1.46l-.49-1.51-.49-1.5a11.4,11.4,0,0,1-.42-1.52l-.68-3c-.2-1-.27-2.05-.41-3.06l-.19-1.53c0-.51,0-1,0-1.53l-.06-3.05.23-3c0-.5,0-1,.13-1.5l.26-1.47c.19-1,.31-2,.55-2.92a45.05,45.05,0,0,1,1.77-5.6l.53-1.36a9.23,9.23,0,0,1,.58-1.33l1.3-2.57a43,43,0,0,1,6.66-9.11,44.75,44.75,0,0,1,4-3.78c.7-.6,1.47-1.09,2.19-1.64a22.16,22.16,0,0,1,2.24-1.53,42.9,42.9,0,0,1,39-3.47,41.66,41.66,0,0,1,15,10.37c.93,1,1.89,2.24,2.88,3.5l1.34,2.06a18.19,18.19,0,0,1,1.28,2.19l1.17,2.31c.41.77.65,1.61,1,2.41s.64,1.6.86,2.42l.64,2.43.3,1.18.19,1.18.34,2.27a15.69,15.69,0,0,1,.18,2.12l.08,1.93,0,.89-.05.82-.09,1.46C158.91,247.28,158.86,248,158.83,248.42Z" /><path class="cls-4 color-body" d="M287.58,221.22c-31-29.14-89.94-36.09-118.41-30.7s-54.8,18.63-70,38.78c-4.26,5.63-9.78,18.53-14.21,31.38-5,12-9.14,25.17-9.76,34.18-1.16,16.75,9.32,53,14.23,58.71,8.91,10.29,35.46,20.25,60.94,25.94,21.87,4.89,46,8.91,61.38,7.32,18.46-1.9,37.81-12.75,55.59-23.36,14.24-8.5,25.31-15.26,33.86-29.37,4.2-6.92,7-11.57,9.64-23C317.34,284.6,309.5,241.83,287.58,221.22Z" style="fill:#ffffff;--backup-fill:#ffffff" /><path d="M287.62,221.17a41.8,41.8,0,0,1,4.64,4.32l1.8,2.13,1,1.2a11.34,11.34,0,0,1,1,1.31l2.05,3c.35.53.74,1,1.08,1.61l1,1.76a90.51,90.51,0,0,1,7.8,17.18,114.52,114.52,0,0,1,5.19,21.72,112.26,112.26,0,0,1,.88,23.95c0,.5-.05,1-.1,1.51l-.19,1.51c-.12,1-.25,2-.37,3s-.34,2-.52,3l-.59,2.95A76.91,76.91,0,0,1,309,322.56a67.47,67.47,0,0,1-5,10.1,77.83,77.83,0,0,1-5.73,8.76,65,65,0,0,1-6.33,7.12c-2.15,2.07-4.25,3.86-6.22,5.41-3.47,2.74-7.16,5.21-10.88,7.6s-7.51,4.7-11.34,7a237.28,237.28,0,0,1-24.06,13.06c-8.46,3.85-17.49,7.13-27.22,8.26a94.25,94.25,0,0,1-14.43.32c-4.76-.22-9.49-.66-14.19-1.25-9.4-1.17-18.71-2.81-27.93-4.71a277.66,277.66,0,0,1-27.46-6.89q-6.75-2.07-13.36-4.62a127.33,127.33,0,0,1-13-5.73,64,64,0,0,1-12.22-7.84,30.37,30.37,0,0,1-2.8-2.67l-.34-.36c-.11-.12-.23-.3-.35-.46l-.68-1a13.46,13.46,0,0,1-1-1.78,58.55,58.55,0,0,1-2.93-6.61,183.67,183.67,0,0,1-6.83-23,131.15,131.15,0,0,1-3.59-23.79c0-.51,0-1,0-1.55l0-1.59c0-1.06,0-2.12.16-3.17.22-2.1.53-4.13.93-6.12a116.17,116.17,0,0,1,3-11.58c1.17-3.77,2.48-7.46,3.88-11.09l1.07-2.72,1-2.58.93-2.61,1-2.72a169.92,169.92,0,0,1,9.31-21.22,49.83,49.83,0,0,1,3.22-5.19c.32-.46.63-.83.93-1.2l.93-1.14c.62-.76,1.22-1.53,1.87-2.26a90.73,90.73,0,0,1,8.23-8.18c11.62-10.1,25.14-17,38.81-21.7a149.46,149.46,0,0,1,20.68-5.44,92.18,92.18,0,0,1,10.5-1.42c3.48-.26,6.93-.37,10.34-.38A183.81,183.81,0,0,1,227,190.18a159.37,159.37,0,0,1,34.33,11.67,99.91,99.91,0,0,1,27.06,18.53,112.56,112.56,0,0,0-28.43-15.79,175.55,175.55,0,0,0-36.13-9.46,198.82,198.82,0,0,0-34.93-2.4,133.75,133.75,0,0,0-14.2,1c-2.11.28-4,.57-5.82,1s-3.5.65-5,1a129.92,129.92,0,0,0-34.22,12.06,88.1,88.1,0,0,0-27.36,21.69c-.44.55-1,1.11-1.35,1.65s-.79,1.1-1.17,1.68c-.76,1.17-1.48,2.4-2.16,3.65-1.38,2.52-2.64,5.13-3.83,7.76-2.39,5.28-4.5,10.6-6.47,16.05-.46,1.38-1.11,2.73-1.64,4.05s-1.06,2.64-1.58,4c-1,2.64-2,5.29-2.84,8a95.22,95.22,0,0,0-4,16.06,60.09,60.09,0,0,0,.42,16.11c.72,5.38,1.78,10.7,3,15.93S83.34,334.69,85,339.7c.4,1.26.86,2.49,1.28,3.73s.93,2.44,1.42,3.64,1,2.38,1.61,3.44l.43.82.48.69a4.92,4.92,0,0,0,.5.68l.65.66c3.43,3.55,7.88,6.23,12.35,8.6a126.69,126.69,0,0,0,13.86,6.17c4.71,1.8,9.45,3.4,14.2,4.85s9.52,2.7,14.27,3.85c9.52,2.21,19,4.13,28.35,5.63A199.21,199.21,0,0,0,202,385.27a68.69,68.69,0,0,0,13.29-.91A77.72,77.72,0,0,0,228,381a158.34,158.34,0,0,0,23.49-10.88c7.46-4.12,14.72-8.5,21.75-12.83s13.53-9,18.76-14.71a60,60,0,0,0,6.95-9.16,91.73,91.73,0,0,0,5.6-10,63.23,63.23,0,0,0,3.62-10.53c.48-1.83.85-3.64,1.23-5.43s.63-3.62.9-5.43a112.66,112.66,0,0,0,.24-23.81,122.08,122.08,0,0,0-5.13-25.59A88.92,88.92,0,0,0,296,232c-.42-.68-.81-1.35-1.22-2l-1.29-1.75c-.84-1.11-1.57-2.18-2.31-3.07Z" /><g class="cls-5"><path d="M261.55,302.92c.27.33-.21,2.44-1,4.83l-.6,1.83-.68,1.79c-.41,1.17-.89,2.19-1.17,3a20.46,20.46,0,0,1-5.15,7.79,25.93,25.93,0,0,1-8.35,4.85,47.45,47.45,0,0,1-14.83,2.38c-2.31.06-4.5-.05-6.52-.18s-3.88-.42-5.52-.71a20.52,20.52,0,0,1,5.56-2.57,13.4,13.4,0,0,1,4.86-.91,43.54,43.54,0,0,0,11.29-.19,24.05,24.05,0,0,0,9.18-3.23,19.29,19.29,0,0,0,5.8-6A72.3,72.3,0,0,0,258,309a33,33,0,0,1,2-3.55C260.65,304.27,261.32,303.25,261.55,302.92Z" /></g><g class="cls-5"><path d="M83.05,269.43c.53.65-2.26,6.46-2.63,8.92a56.25,56.25,0,0,0-1,6.53,14.85,14.85,0,0,0,.68,6c1.14,3.16,3.35,6.08,5.49,8.78s4.27,5.16,5.78,7.35a13.1,13.1,0,0,1-5-1.16,8.07,8.07,0,0,1-3.36-2.34,66.73,66.73,0,0,1-4.8-8.3,20.14,20.14,0,0,1-2-8.17,25.28,25.28,0,0,1,1-7.26A28.23,28.23,0,0,1,79.58,274,22.89,22.89,0,0,1,83.05,269.43Z" /></g><g data-name="default" id="default-2"><path d="M147.31,138.86c.49-1.25,8.46-5.06,17.23-10.25s18.29-11.69,23.11-15.92l2.3-2,2.3-2.06,7-6.19c2.79-2.67,5.68-5.34,8.8-8.36L217.53,85l0,.77c0,.1-.06.33-.09.51l-.12.58-.49,2.32q-.49,2.35-1,4.74-1.05,4.88-2.1,9.8l-1.15,5.11-1.25,5.25-.66,2.66-.51,2-.75,2.93c-1,3.9-2.16,7.78-3.39,11.6q-.92,2.86-1.91,5.67l-1,2.79-.51,1.38c-.13.34-.05.16-.07.21v0a.19.19,0,0,0,.05.12l.12,0a0,0,0,0,0,0,0h0l.47.05c.37,0,.75.06,1.12.08a85.57,85.57,0,0,0,9.07.15c1.51,0,3-.12,4.55-.23.76-.06,1.51-.1,2.27-.18l1.69-.16c.78-.08,1.56-.18,2.35-.29,1.58-.21,3.11-.38,4.7-.64l4.73-.75,9.19-1.46c-2.78,5.42-5.61,10.9-8.26,15.86l-2,3.65-.49.89-.23.43-.15.24-.57,1q-1.14,2-2.29,3.88c-3.07,5.1-6.18,9.94-9.28,14.48a242.91,242.91,0,0,1-18.08,23.43c1.4-6.41,4.49-14.92,7.65-22.73s6.46-14.91,8.83-18.29c1-1.45,2-2.9,3-4.35l1.44-2.17.18-.27.09-.13,0,0,.13-.12.27-.27c.4-.44.74-.77,1.14-1.25.2-.23.4-.49.62-.78l.32-.44.17-.23.09-.12s0,0,0,0a26.26,26.26,0,0,0-3.22-.17h-.27a2.89,2.89,0,0,0-.39,0l-1.27.06-2.51.08c-1.68,0-3.34.05-5,0a96.39,96.39,0,0,1-9.81-.59l-1.23-.15c-.55-.07-1.1-.14-1.64-.23l-3.18-.58-3-.7-1.51-.38-.76-.19-.37-.09c-.12,0-.11-.13-.17-.19,1.38-3.14,2.7-6.19,3.94-9.22.87-2.16,1.7-4.31,2.47-6.46,1.55-4.28,2.89-8.53,4.07-12.73l.86-3.14.69-2.7c.29-1.22.55-2.38.79-3.49s.42-2.12.63-3.16l.27-1.45.12-.69,0-.17,0-.08s0-.06,0,0l-.32.31c-1.73,1.72-3.3,3.22-4.75,4.52-.35.32-.73.65-1.09,1l-1.11,1c-1.54,1.21-3,2.43-4.58,3.57a149,149,0,0,1-18.35,11.91,102.26,102.26,0,0,1-15.6,6.86c-2.7,1-5.27,1.74-7.32,2.36S148.1,138.67,147.31,138.86Z" /><circle class="cls-4 color-body" cx="144.08" cy="138.1" r="31" style="fill:#ffffff;--backup-fill:#ffffff" /><path d="M159,165.34a4.68,4.68,0,0,1-1.41,1.15,15.94,15.94,0,0,1-1.47.87l-2,.88a30,30,0,0,1-11.58,2,32.9,32.9,0,0,1-13.33-3.17,34.81,34.81,0,0,1-9.31-6.53A31.53,31.53,0,0,1,111.5,147l-.59-2c-.17-.68-.28-1.37-.41-2.07a31.31,31.31,0,0,1-.5-4.23,33.54,33.54,0,0,1,.73-8.58,33.1,33.1,0,0,1,5.12-12c.42-.6.81-1.22,1.27-1.78l1.41-1.67a14.92,14.92,0,0,1,1.5-1.58l1.56-1.51,1.7-1.34A15.27,15.27,0,0,1,125,109a30.5,30.5,0,0,1,3.7-2.16c.64-.32,1.27-.65,1.91-.94l2-.76a34.11,34.11,0,0,1,44.74,23.72,31.87,31.87,0,0,1-17.84,37.42,53.54,53.54,0,0,0,5.87-7.3,36.44,36.44,0,0,0,4.17-9.1,34.46,34.46,0,0,0,1.45-8.8c.08-.66,0-1.29,0-1.89s0-1.17,0-1.71c-.11-1.07,0-2-.12-2.77s-.06-1.56-.17-2.32l-.37-2.3c-.2-.75-.41-1.49-.61-2.24a6.19,6.19,0,0,0-.37-1.1l-.42-1.08a27,27,0,0,0-4.87-7.79,28.53,28.53,0,0,0-7.11-5.63,27.67,27.67,0,0,0-8.4-3,26.74,26.74,0,0,0-8.69-.23c-.7.12-1.43.15-2.12.34l-2.07.51c-.68.18-1.33.46-2,.68l-1,.36c-.32.14-.63.3-1,.45l-1.88.9-1.76,1.09c-.29.19-.59.35-.87.55l-.81.63c-.53.42-1.09.81-1.59,1.26a29.25,29.25,0,0,0-2.82,2.86,16.67,16.67,0,0,0-1.25,1.53l-1.13,1.61a28.2,28.2,0,0,0-3.25,6.93,29.14,29.14,0,0,0-.93,3.62c-.13.6-.16,1.22-.25,1.82a16,16,0,0,0-.16,1.82,29.25,29.25,0,0,0,2.58,13.6,30.45,30.45,0,0,0,7.74,10.28,31.65,31.65,0,0,0,10.47,5.95,35.84,35.84,0,0,0,13.29,1.71l.87,0,.83-.12,1.62-.24c1.06-.15,2-.45,2.88-.64a18.69,18.69,0,0,0,2.23-.7Z" /></g><path class="cls-4 color-body" d="M251.16,239.58a41.5,41.5,0,1,1,32.72,65.57" style="fill:#ffffff;--backup-fill:#ffffff" /><path d="M283.88,305.09c.36-.35,2.17-.54,4.78-.91a46.94,46.94,0,0,0,9.45-2.49l1.31-.49c.44-.16.85-.4,1.28-.6.85-.41,1.71-.81,2.55-1.24a43.25,43.25,0,0,0,4.64-3.05,33.92,33.92,0,0,0,6.5-6.32,45.38,45.38,0,0,0,6-10.78A39.89,39.89,0,0,0,323,266.87a38.62,38.62,0,0,0-6.39-23.59,44.37,44.37,0,0,0-6.87-7.78c-.65-.56-1.35-1.06-2-1.6l-1-.8-1.08-.69c-.72-.45-1.41-.94-2.15-1.37l-2.25-1.17a19,19,0,0,0-2.3-1c-.78-.29-1.52-.69-2.33-.91a38.47,38.47,0,0,0-4.79-1.28c-.8-.14-1.6-.37-2.41-.46l-2.42-.25c-.41,0-.81-.1-1.21-.12l-1.21,0a23.79,23.79,0,0,0-2.39,0,41,41,0,0,0-17.46,4.61,44.88,44.88,0,0,0-12.62,9.82,26.34,26.34,0,0,1,3.55-7.5,32.47,32.47,0,0,1,6.72-7.23,33.64,33.64,0,0,1,8.2-4.82,24.12,24.12,0,0,1,6.79-1.8,49,49,0,0,1,19.24,2.35A46.67,46.67,0,0,1,312.06,230a45.47,45.47,0,0,1,15.51,27.38c.09.62.17,1.24.26,1.85a14.69,14.69,0,0,1,.19,1.85c.05,1.24.1,2.47.15,3.68l-.21,3.62,0,.9-.14.88c-.1.59-.19,1.18-.28,1.76a42.46,42.46,0,0,1-4.43,13,43.48,43.48,0,0,1-7.74,10.27c-.75.72-1.56,1.36-2.33,2l-1.17,1-1.25.86c-.83.55-1.63,1.15-2.48,1.64L305.51,302a34.8,34.8,0,0,1-12.46,3.44,30,30,0,0,1-3.1.1,19,19,0,0,1-2.67-.08C285.68,305.31,284.48,305.17,283.88,305.09Z" /><path d="M101.74,337.4c15.06,14.94,73.78,29.09,105.77,15.62,7.3-3.08-12.73-34.56-20.38-34.09-27,1.69-45-4.29-65.21-11.27-9.89-3.41-4.1,18.76-14.39,29.79" /><path d="M107.49,337.41c.09-.61,1.83-2.7,3.19-6.39a40.75,40.75,0,0,0,1.79-6.49c.49-2.46.86-5.16,1.27-8,.21-1.43.43-2.89.78-4.38a15.89,15.89,0,0,1,.68-2.28,11,11,0,0,1,.53-1.18,5.93,5.93,0,0,1,.85-1.2,4.4,4.4,0,0,1,2.48-1.5,3.46,3.46,0,0,1,.72-.09,2.62,2.62,0,0,1,.74,0l.74.07.67.17c.49.12.78.23,1.13.34l1,.32,2,.65c5.3,1.7,10.12,3.11,13.6,3.93a160.72,160.72,0,0,0,23.07,4c2,.23,4,.3,6,.44s4,.17,6,.14c1,0,2,0,3,0l3-.1c1,0,2-.08,3-.15l3.08-.2a7.91,7.91,0,0,1,3.54.67,13.7,13.7,0,0,1,2.42,1.34,27.27,27.27,0,0,1,3.65,3,58.58,58.58,0,0,1,5.75,6.59,71.93,71.93,0,0,1,8.66,14.57,27.57,27.57,0,0,1,1.93,6.3c0,.29.08.62.11.94a12.06,12.06,0,0,1,0,1.28,8.51,8.51,0,0,1-.46,2.67,6.39,6.39,0,0,1-3.5,3.79l-2.45,1c-.66.27-1.33.49-2,.7l-2,.64c-.67.21-1.34.37-2,.55s-1.34.36-2,.52l-2,.42c-1.35.31-2.7.51-4,.73a105.73,105.73,0,0,1-16,1.14A146.35,146.35,0,0,1,146.66,359a139,139,0,0,1-25.95-8.11,84.23,84.23,0,0,1-10.93-5.62,40.4,40.4,0,0,1-8.84-7.07c12.31,7.5,37.44,11.32,46.24,13.46A132.16,132.16,0,0,0,178.11,356a91.33,91.33,0,0,0,14.72-.89,66.12,66.12,0,0,0,7-1.37c1.15-.25,2.24-.65,3.36-1,.56-.16,1.1-.36,1.64-.56l1.42-.52a1.5,1.5,0,0,0,1.13-1.17,3,3,0,0,0,.1-.85c0-.12,0-.31,0-.53s0-.4-.08-.61a23.31,23.31,0,0,0-1.55-5.08,61,61,0,0,0-5.13-9.53,63.48,63.48,0,0,0-6.39-8.31,29.59,29.59,0,0,0-3.63-3.4c-1.23-.95-2.67-1.77-3.54-1.65a139.75,139.75,0,0,1-19.5.12,127.31,127.31,0,0,1-18.19-2.55,163.77,163.77,0,0,1-16.57-4.49q-3.93-1.28-7.69-2.61l-3.71-1.33a4.72,4.72,0,0,0-1.14-.32,1.82,1.82,0,0,0-.92.16,2.43,2.43,0,0,0-.72.71,7.92,7.92,0,0,0-.72,1.53,35.45,35.45,0,0,0-1.19,4.29c-.71,3.11-1.42,6.47-2.41,9.54a31.14,31.14,0,0,1-3.57,7.86A19.61,19.61,0,0,1,107.49,337.41Z" /><g class="cls-2"><g class="cls-3"><path d="M316.59,266.85a4,4,0,0,0-.7,1,1.94,1.94,0,0,0,.72,2.17l.55.41-.64.34a4.94,4.94,0,0,1-1.11.47,5.84,5.84,0,0,1-1,.15,4.7,4.7,0,0,1-.53,0l-.26,0-.13,0h-.1l0,0a4.65,4.65,0,0,1,1.76,1.3,4.35,4.35,0,0,1,.84,3.07l-.09.55-.55.07c-.54.07-1.18.11-1.63.12a8.6,8.6,0,0,1-1.92-.16l-.42-.09-.21-.06h-.05l0,0,.09.08a4.52,4.52,0,0,1,1.13,1.35c.06.12.11.24.16.36l0,.08s0,0,0,0,0,0,0,0a3.52,3.52,0,0,1,.11.44,6.23,6.23,0,0,1,.11,1.7,5.87,5.87,0,0,1-.33,1.47c-.08.23-.15.45-.24.66a1.8,1.8,0,0,1-.14.31l-.18.16h0c-.79-.16-1.59-.33-2.44-.53l-1.17-.31-.87-.24a34.11,34.11,0,0,1-3.63-1.31l1.58-2.25a16.7,16.7,0,0,1,1.4,1.49c.23.27.44.55.66.85l.31.45.43.7a13.92,13.92,0,0,1,1.3,3.06c.27,1,.43,2,.63,3a5.8,5.8,0,0,1-2,.55c-.18,0-.35.07-.53.09h-.54a4.41,4.41,0,0,1-1.11-.15,7.43,7.43,0,0,1-2.45-1.14,23.64,23.64,0,0,1-2.06-1.64,21.87,21.87,0,0,0-2.57-2.05,2.31,2.31,0,0,0-.57-.31,1.74,1.74,0,0,0-.51-.18c-.16-.08-.27,0-.41-.05a2.25,2.25,0,0,1-.36.06l.91-3.16a17.32,17.32,0,0,1,3.11,4.76,8.43,8.43,0,0,1,.38,1c.11.38.27.76.35,1.13a15.22,15.22,0,0,1,.39,2.2,37,37,0,0,1,0,3.94c-.34,0-.58,0-1,0H300a5.71,5.71,0,0,1-2.09-.31,7.78,7.78,0,0,1-3.11-2.33l-.72-.93-.52-.69-.68-.9a8.65,8.65,0,0,0-1.27-1.33,3,3,0,0,0-1.15-.53l2.26-3.23c.49.86.94,1.73,1.36,2.62.21.44.42.88.61,1.33l.15.33.22.55c.16.4.33.79.48,1.22a39.51,39.51,0,0,1,1.46,4.82c.31,1.45.63,2.89.93,4.32l-2.55-.65-1.26-.34a4.91,4.91,0,0,1-1.17-.4l-.59-.27-.61-.38a6.52,6.52,0,0,1-.61-.41l-.63-.55a13,13,0,0,1-1.26-1.29c-.42-.44-.81-1-1.21-1.52l-1.41-1.89a15.77,15.77,0,0,0-1.11-1.24,4.24,4.24,0,0,0-2.31-1.21l1.69-2.95a16.14,16.14,0,0,1,2.62,5.81,12.36,12.36,0,0,1,.24,1.44,10.35,10.35,0,0,1,.09,1,9.26,9.26,0,0,1,0,1.05,18.16,18.16,0,0,1-.19,1.91,17.89,17.89,0,0,1-.29,1.78c-1.34-.47-2.58-.87-3.76-1.39a15.5,15.5,0,0,1-2.58-1.39,18.4,18.4,0,0,1-3.49-2.91,13.91,13.91,0,0,1-3.63-6.86,16,16,0,0,0,5.21,5.71,19.29,19.29,0,0,0,3.66,2l.92.34a1.73,1.73,0,0,0,.3,0,.5.5,0,0,0,.32-.1,1.16,1.16,0,0,0-.17-.49l-.05-.05a1.26,1.26,0,0,1,0-.19c0-.09-.05-.18-.07-.27a10.31,10.31,0,0,0-.29-1,21.38,21.38,0,0,0-1.32-3c-.2-.39-.43-.78-.62-1.09l-2.58-4.29,4.44,1.05a13.41,13.41,0,0,1,1.42.36,8.18,8.18,0,0,1,1.3.62,7.62,7.62,0,0,1,1.11.79l.5.43.43.45a17.37,17.37,0,0,1,1.46,1.82c.21.29.44.63.59.85l.13.26a4.94,4.94,0,0,0,.92,1.24,3.22,3.22,0,0,0,.76.53l.22.1.11.05.05,0v0l0-.3a12.32,12.32,0,0,0-.58-2.38l-.14-.37-.25-.61-.52-1.2c-.36-.78-.74-1.54-1.13-2.26l-.92-1.73,1.9.33a6.13,6.13,0,0,1,3.34,1.94,15.1,15.1,0,0,1,1.12,1.35l.88,1.22a5.56,5.56,0,0,0,1.31,1.42,2,2,0,0,0,.87.37,2.47,2.47,0,0,0,.47,0s.09,0,.1,0v-.35a7.76,7.76,0,0,0-.17-1.6c-.06-.26-.13-.51-.21-.76l-.14-.37-.19-.46a14.33,14.33,0,0,0-2.52-3.85l-1.09-1.2,1.5-.23a6.72,6.72,0,0,1,1.17-.16,4.3,4.3,0,0,1,1.14.16,4.13,4.13,0,0,1,1,.38,5.25,5.25,0,0,1,.9.51,26.26,26.26,0,0,1,2.89,2.35l.33.29.22.19c.14.11.27.22.4.31a4,4,0,0,0,.78.48,1.32,1.32,0,0,0,.42.15,1,1,0,0,0,.43.06,1.19,1.19,0,0,0,.42-.06c.21,0,.11-.19.09-.33a6.36,6.36,0,0,0-.78-1.94l-.14-.22-.23-.35c-.17-.25-.35-.49-.54-.73a15.32,15.32,0,0,0-1.2-1.33l1.31-1.88a31.55,31.55,0,0,0,5.38,1.9.27.27,0,0,0,.12,0l.05-.12a1.13,1.13,0,0,0,.08-.24,2.24,2.24,0,0,0,.06-.52,2.07,2.07,0,0,0-.06-.47c0,.1,0-.12,0-.09s-.06-.19-.08-.25l-.22-.42a3.76,3.76,0,0,0-.67-.89c.27-1.23.07-1.69-.21-2-.17-.13.06-.08.18-.11a1.91,1.91,0,0,0,.44-.09,3.43,3.43,0,0,0,1.1-.59,12.09,12.09,0,0,0,1.69.32,15.53,15.53,0,0,0,2.43,0l-.92.89a2.67,2.67,0,0,0-.08-1.25,2.46,2.46,0,0,0-.11-.32c-.09-.15-.14-.29-.24-.43l-.3-.38-.36-.31a2,2,0,0,0-.56-1.49,2.06,2.06,0,0,0-.57-.41c-.06,0,0,0,.05,0h.11l.22,0h.45a4.23,4.23,0,0,0,.83-.14c.51-.13.87-.29.89-.22a4.19,4.19,0,0,0,1.35-.27l.27-.1h0l0,.43h0v0h0l.05-.37-.05.37a2.5,2.5,0,0,1-.85-1.7,2.18,2.18,0,0,1,.31-1.24A2,2,0,0,1,316.59,266.85Z" /></g></g></g></g></g></svg>