<svg xmlns="http://www.w3.org/2000/svg" id="a" viewBox="0 0 380 600"><defs><style>.c{opacity:.1;}.d{fill:#ffffff;}.e{fill:#fff;}.f{fill:#ffa525;}.g{fill:#158805;}.h{fill:#1e8f13;}.i{fill:#223f93;}.j{fill:#37ad4a;}</style></defs><path class="h" d="m198.39,78.97c-.68-.08-16.73-2.12-27.56-18.78-8.62-13.27-18.9-16.01-19-16.04l1.66-6.8c.53.13,12.97,3.27,23.22,19.03,8.97,13.8,21.97,15.58,22.52,15.65l-.82,6.95Z"></path><path d="m198.36,78.97c-.09-.21-.09-1.02-.02-2.26.04-1.17.27-3.14.28-4.29-1.03-.09-3.06-.6-4.84-1.24-1.82-.63-3.63-1.5-5.31-2.44-3.38-1.9-6.18-4.28-7.93-5.96-.61-.58-1.24-1.17-1.79-1.83-.56-.65-1.19-1.27-1.69-1.98-.53-.7-1.06-1.4-1.59-2.1-.5-.68-1.01-1.35-1.51-2.04-2.08-2.68-4.4-5.24-6.98-7.52-2.57-2.27-5.39-4.29-8.37-5.86-.74-.4-1.5-.75-2.26-1.09l-1.14-.47-.26-.09h-.05s-.05-.02-.07,0v.08s0,.03,0,.03c0,0,0,0,0,.01l-.04.16-.07.31-.29,1.25-.18.78-.09.39c-.03.11,0,.04-.01.07,0,.01,0,.02,0,.03h.03s.14.05.14.05l.07.03.26.12c.71.3,1.39.63,2.06.98,1.34.7,2.6,1.5,3.82,2.34,2.43,1.7,4.62,3.67,6.55,5.79,1.93,2.12,3.64,4.38,5.13,6.7.72,1.06,1.44,2.12,2.15,3.16.79.97,1.52,1.97,2.33,2.89,6.44,7.39,14.72,11.82,21.75,13.45-1.71.18-3.93.03-6.25-.43-2.33-.46-4.77-1.27-7.06-2.29-.57-.27-1.13-.54-1.68-.81-.55-.28-1.07-.6-1.59-.89-1.05-.57-1.97-1.25-2.85-1.87-.89-.59-1.6-1.29-2.27-1.85-.67-.57-1.2-1.13-1.6-1.61-2.21-2.42-3.96-5.12-5.6-7.73-1.5-2.51-3.18-4.84-5.04-6.94-1.86-2.09-3.9-3.94-6.07-5.48-1.07-.79-2.21-1.46-3.34-2.08-.57-.3-1.15-.59-1.72-.84-.34-.14-.76-.31-1.17-.46-.44-.15-.88-.29-1.32-.43.05-.43.22-.94.32-1.4l.33-1.32c.17-.67.33-1.34.5-2.01.14-.55.38-1.6.62-2.47l.18-.65c.07-.19.06-.55.35-.37.44.12.87.24,1.31.38.43.13.86.28,1.3.45.37.13.65.26.97.39.63.25,1.23.56,1.84.84,1.2.6,2.35,1.24,3.46,1.93,4.44,2.75,8.13,6.16,11.25,9.73.77.9,1.48,1.83,2.21,2.73.67.94,1.33,1.88,1.99,2.8.64.88,1.25,1.76,1.88,2.6.69.79,1.31,1.64,2.03,2.37,2.81,2.99,5.9,5.45,9.18,7.25,1.32.75,2.98,1.55,4.56,2.21.79.34,1.56.62,2.26.86.15.05.4.14.61.19.21.06.42.12.61.17.37.1.7.19.99.27-.01.58-.17,1.21-.24,1.74-.08.48-.16.92-.23,1.34-.14.78-.27,1.45-.37,2.02-.22,1.13-.37,1.85-.45,2.23Z"></path><path class="f" d="m182.12,85.86c-.48-.05-11.88-1.26-19.36-12.59-5.38-8.15-11.69-9.74-11.95-9.8l1.52-6.83c.37.08,9.24,2.11,16.28,12.78,5.57,8.45,13.85,9.44,14.2,9.48l-.69,6.97Z"></path><path d="m182.09,85.86c-.13-.19-.15-1.04-.12-2.3,0-1.19.21-3.22.16-4.2-.4-.04-.78-.11-1.17-.19-.57-.13-1.13-.29-1.69-.48-1.13-.36-2.21-.84-3.22-1.35-2.03-1.04-3.69-2.32-4.83-3.25-.44-.4-.91-.8-1.34-1.23-.42-.45-.86-.88-1.26-1.36-.74-.94-1.48-1.89-2.24-2.84-1.47-1.81-3.11-3.52-4.92-5.02-1.81-1.5-3.77-2.82-5.85-3.8-.51-.25-1.04-.47-1.56-.68l-.2-.07h-.01s-.03,0-.03,0h-.06s-.04.04-.03.08v.05s0,0,0,0l-.04.22-.09.44c-.15.71-.3,1.42-.44,2.12l-.03.13c-.01.06-.02.08-.01.07h0s0,.01,0,.01h0s.02,0,.02,0c.02,0-.03-.01.04.01l.18.08.36.17c.24.11.48.22.71.35.93.47,1.8,1.03,2.63,1.61,1.65,1.18,3.12,2.55,4.41,4.01.65.73,1.23,1.5,1.8,2.26.51.76,1.02,1.51,1.52,2.25.46.69.91,1.37,1.44,1.99.25.32.5.63.75.95.27.29.54.59.81.88,4.29,4.68,9.77,7.4,14.38,8.55-2.41.57-6.22.16-9.53-1.11-3.35-1.25-6.14-3.34-7.28-4.71-.34-.4-.68-.81-1.01-1.21-.31-.42-.61-.84-.92-1.26-.64-.81-1.12-1.71-1.66-2.55-.97-1.63-1.91-3.09-3.06-4.44-1.13-1.34-2.4-2.51-3.76-3.49-.67-.5-1.38-.93-2.1-1.32l-.54-.27-.27-.13-.41-.18c-.57-.21-1.16-.4-1.74-.56-.04-.05-.02-.14,0-.23l.06-.27.12-.53.25-1.05c.13-.54.25-1.07.37-1.6.26-1.13.51-2.25.77-3.35l.25-.94.06-.23.03-.12s.07,0,.11,0l.48.12c.63.15,1.25.35,1.88.56.7.26,1.04.4,1.52.62.46.19.88.42,1.32.63,3.45,1.77,6.36,4.1,8.76,6.66,1.22,1.26,2.28,2.62,3.25,3.97.47.64.93,1.27,1.39,1.89.5.56.95,1.17,1.48,1.67,2.05,2.11,4.39,3.7,6.82,4.82.64.29,1.38.59,2.1.87.19.07.38.14.57.2.26.07.52.15.77.21.47.12.9.23,1.28.32.04.03.03.11.01.19l-.04.23-.07.44c-.05.29-.09.57-.14.84-.04.26-.09.52-.13.77-.04.2-.07.39-.11.58-.15.76-.29,1.45-.41,2.05-.25,1.21-.45,2.07-.55,2.45Z"></path><path class="f" d="m29.28,166.26c-.88-.48-21.45-12-19.22-31.61,1.72-15.19-5.07-21.41-5.36-21.67l4.55-5.32c.41.34,9.93,8.64,7.76,27.77-1.69,14.91,15.47,24.59,15.64,24.69l-3.37,6.13Z"></path><path d="m29.25,166.24c0-.23.3-.98.83-2.09.49-1.07,1.41-2.79,1.88-3.87-.62-.34-1.04-.58-1.92-1.17-.79-.53-1.59-1.1-2.38-1.71-1.58-1.23-3.14-2.61-4.53-4.08-2.83-2.91-4.85-6.27-5.86-8.65-.71-1.63-1.23-3.41-1.48-5.26-.12-.93-.17-1.87-.17-2.83.04-.9.08-1.81.13-2.73.2-3.49.07-7.05-.6-10.5-.66-3.45-1.85-6.79-3.57-9.73l-.67-1.08-.73-1.03-.7-.89c-.05-.05-.11-.11-.12-.11-.04-.06-.07.03-.1.06v.02s-.02.01-.02.01l-.11.13-.43.51-.85,1.02-.45.54-.11.13h0s0,.01,0,.01c0,.01,0,.02,0,.03.02.02,0-.01.04.04l.11.14.34.46c.49.67.92,1.37,1.3,2.08.76,1.43,1.4,2.91,1.85,4.42.95,3.02,1.33,6.12,1.36,9.13-.02,1.5-.05,3-.22,4.46-.06.7-.13,1.39-.19,2.08-.08.65-.09,1.29-.1,1.93-.05,2.57.36,5.09,1.08,7.47,1.45,4.77,4.21,8.9,7.22,12.3,3.03,3.4,6.33,6.19,9.47,8.3-3.47-1.01-8.26-3.68-12.09-7.17-1.91-1.74-3.6-3.67-4.85-5.52-1.27-1.84-2.09-3.59-2.53-4.84-1.16-3.32-1.7-6.78-1.64-10.11.05-.83.05-1.66.17-2.47.09-.78.19-1.56.28-2.33.21-1.49.28-2.97.3-4.43.02-2.92-.36-5.77-1.17-8.41-.4-1.32-.92-2.58-1.56-3.75-.31-.59-.66-1.15-1.04-1.68-.14-.23-.49-.63-.75-.95-.34-.35-.68-.71-1.03-1.04-.03-.09.11-.19.18-.28l.25-.28.49-.57.89-1.03c.46-.54.93-1.07,1.38-1.6l.8-.93c.31-.37.63-.74.94-1.06l.47-.5.12-.13s.08-.1.12-.03l.26.23c.34.31.67.63,1,.95.32.33.61.68.92,1.02.26.32.45.57.67.85.41.56.82,1.13,1.18,1.72.36.59.72,1.17,1.03,1.78.33.6.63,1.2.89,1.82,2.2,4.93,3.03,10.09,3.06,14.95,0,.61,0,1.21,0,1.82-.01.6-.07,1.2-.11,1.79-.04.59-.08,1.18-.12,1.77-.03.57-.08,1.09-.09,1.63-.02,2.14.32,4.23,1,6.17,1.35,3.89,3.77,7.18,6.4,9.96,1.11,1.16,2.53,2.53,3.92,3.73.69.6,1.37,1.17,1.98,1.66.72.57,1.48,1.1,1.92,1.43-1.3,2.3-2.06,3.39-2.69,4.41-.62.96-1.02,1.56-1.24,1.88Z"></path><path class="h" d="m45.64,161.51c-16.75-12.11-20.9-33.41-21.07-34.31l6.88-1.28-3.44.64,3.44-.65c.04.19,3.84,19.49,18.28,29.93l-4.1,5.67Z"></path><path d="m45.62,161.49c-.01-.25.51-1.17,1.33-2.47.41-.62.88-1.35,1.4-2.14.19-.29.39-.59.59-.9.05-.04-.01-.07-.05-.1l-.12-.09-.23-.17-.47-.34c-.41-.31-.83-.62-1.25-.94-.43-.37-.85-.76-1.28-1.14-.42-.38-.85-.77-1.26-1.14-.39-.41-.77-.81-1.14-1.2-.37-.39-.74-.78-1.09-1.15-.33-.39-.64-.77-.94-1.13-.61-.72-1.16-1.35-1.58-1.92-2.24-2.77-4.23-5.99-5.88-9.44-.81-1.73-1.59-3.5-2.24-5.33-.34-.91-.64-1.83-.92-2.76l-.21-.7-.06-.19-.03-.08c-.04-.12-.05-.15-.07-.19-.06.02-.13.04-.18.06l-1.58.33-.68-3.64c1.17-.24,2.31-.47,3.43-.7l.7,3.75c-.6.12-1.17.24-1.73.35-1.03.21-2.06.41-3.09.62-.01.01,0,.02,0,.03,0,.02,0-.05.01.04.06.25.13.51.2.76.14.5.27,1.01.43,1.51.3,1,.62,2,.96,2.98,1.34,3.93,3.01,7.63,4.84,11.03,3.66,6.82,8.3,12.17,12.54,15.96-.62-.23-1.3-.51-2.02-.84-.71-.34-1.52-.68-2.24-1.17-.74-.47-1.51-.97-2.28-1.49-.75-.54-1.45-1.16-2.16-1.75-.35-.3-.71-.6-1.04-.91-.32-.32-.63-.64-.93-.96-.6-.64-1.19-1.24-1.69-1.85-.95-1.23-1.77-2.3-2.17-3.12-2.62-5.01-4.57-9.95-5.99-14.75-.36-1.2-.69-2.39-.98-3.57-.16-.61-.26-1.08-.47-2.01l-.24-1.21-.11-.6c0-.09-.08-.23-.02-.27l.3-.06c2.54-.46,5.01-.9,7.39-1.33l.28,1.51c-1.2.22-2.38.45-3.44.65l-.28-1.52c.63-.12,1.26-.24,1.86-.36.8-.15,1.61-.33,2.34-.44.21,1,.48,2.08.69,2.86.2.69.4,1.36.63,2.03.44,1.33.92,2.62,1.43,3.86,1.03,2.48,2.14,4.82,3.39,6.97,2.43,4.33,5.26,7.92,8.19,10.96.7.69,1.47,1.54,2.4,2.34.62.56,1.26,1.12,1.89,1.69-.53.69-1.1,1.35-1.58,1.93-1.62,1.85-3.02,3.36-3.5,3.87Z"></path><path d="m95.83,542.07c-.07-.2-.13-.63-.18-1.25-.06-.62-.1-1.45-.03-2.44.05-2,.43-4.7,1.33-7.81.9-3.1,2.37-6.6,4.48-10.11,2.14-3.49,4.87-7.03,8.15-10.25,1.64-1.61,3.39-3.15,5.3-4.59,1.91-1.42,3.99-2.68,6.19-3.67,4.39-2.01,8.95-3.04,13.01-4.42,3.89-1.33,7.31-3.57,9.64-6.12,2.37-2.55,3.48-5.42,3.54-7.8.17-4.29-2.18-8.61-5.19-12.41-3.05-3.84-7.04-7.5-10.05-12.54-1.51-2.51-2.59-5.46-3.1-8.36-.54-2.91-.65-5.83-.54-8.66.23-5.64,1.12-11.34,3.14-16.85,2.04-5.48,5.18-10.77,9.94-14.8,2.31-1.94,4.56-3.43,6.66-5.01,2.06-1.55,4.03-3.13,5.35-4.79.71-.82,1.12-1.64,1.42-2.41.05-.19.12-.38.19-.57.02-.22.05-.43.09-.64.12-.41.03-.89.07-1.34-.09-1.86-.85-3.98-1.92-6.03-1.08-2.07-2.47-4.1-3.97-6.08-1.52-1.99-3.16-3.92-4.85-5.97-2.89-3.53-5.75-7.09-8.56-10.7-2.79-3.63-5.5-7.32-8.09-11.1-5.14-7.58-9.84-15.47-13.55-23.76-3.74-8.26-6.62-16.85-8.31-25.53-1.73-8.67-2.38-17.38-2.08-25.81.29-8.44,1.53-16.59,3.35-24.3.86-3.87,2.03-7.59,3.12-11.25,1.28-3.6,2.44-7.16,3.88-10.54,5.49-13.61,12.18-25.33,18.73-35.24-.97,2.52-2.1,5.29-3.34,8.23-1.18,2.97-2.43,6.13-3.73,9.41-.61,1.65-1.22,3.33-1.85,5.03-.32.84-.64,1.69-.96,2.55-.29.86-.58,1.73-.87,2.6-.59,1.73-1.18,3.47-1.77,5.21-.53,1.75-1.05,3.5-1.57,5.24-4.23,13.89-6.09,27.25-7.02,34.23-2,14.07-1.18,28.13,2.26,41.19,3.4,13.09,9.25,25.09,16.11,35.93,6.88,10.89,14.73,20.61,22.41,30.13,1.88,2.45,3.7,4.98,5.17,7.75.35.71.73,1.39,1.02,2.14l.46,1.1.38,1.14c.28.75.4,1.57.59,2.35.08.82.25,1.63.19,2.47.04,1.66-.36,3.39-1.08,4.91-.71,1.53-1.71,2.83-2.78,3.95-2.13,2.29-4.56,4-6.87,5.7-2.32,1.67-4.63,3.27-6.46,5.07-1.86,1.88-3.42,4.02-4.7,6.31-2.58,4.58-3.99,9.7-4.71,14.8-.67,5.11-.89,10.31.3,14.9,1.13,4.57,4.15,8.36,7.37,12.11,3.21,3.72,6.72,7.72,8.64,12.7.98,2.46,1.52,5.23,1.29,8-.25,2.78-1.3,5.46-2.83,7.6-1.5,2.18-3.39,3.95-5.42,5.4-2.02,1.46-4.2,2.61-6.48,3.48-.56.23-1.15.4-1.73.6l-1.64.48c-1.08.3-2.15.6-3.22.9-2.12.59-4.18,1.17-6.11,1.89-1.83.7-3.76,1.56-5.67,2.73-1.92,1.15-3.82,2.6-5.72,4.2-3.76,3.2-7.27,7.04-9.94,11.1-2.71,4.03-4.51,8.25-5.52,11.8-1.03,3.56-1.21,6.41-1.35,7.81Z"></path><polygon class="f" points="133.95 199.51 130.37 239.9 167.24 222.3 133.95 199.51"></polygon><path class="i" d="m133.97,199.49c1.17.04,15.83,10.1,21.69,13.68,1.98,1.21,4,2.47,6.07,3.78,1.03.66,2.08,1.33,3.15,2.01,1.78,1.18,3.6,2.38,5.44,3.59-7.76,3.85-15.98,7.92-23.69,11.74-2.66,1.29-5.31,2.58-7.89,3.84-3.67,1.75-7.25,3.45-10.65,5.06.3-3.14.59-6.24.88-9.29.2-1.92.4-3.81.6-5.66.4-3.71.82-7.28,1.24-10.68.84-6.8,1.71-12.92,2.57-18.08,1.08,6.52,1.15,18.93.47,23.28-.48,3.05-.91,6.04-1.31,8.93-.19,1.44-.39,2.86-.57,4.25l-.07.52c-.02.16-.03.16-.04.25l-.08.44c-.05.33-.11.65-.16.97.4-.16.8-.32,1.2-.48l.37-.15.65-.29c.43-.19.86-.39,1.29-.58,1.7-.78,3.38-1.54,5.04-2.29,3.3-1.52,6.48-3.02,9.55-4.48,3.06-1.48,6.02-2.92,8.88-4.31,1.43-.7,2.83-1.39,4.2-2.07.52-.26,1.03-.51,1.54-.77.35-.18.69-.35,1.03-.53-.51-.33-1.02-.66-1.52-.98-.94-.62-1.86-1.24-2.78-1.85-1.83-1.23-3.6-2.42-5.33-3.57-3.45-2.33-6.68-4.57-9.72-6.76-4.08-2.87-10.75-8.4-12.04-9.51Z"></path><polygon class="j" points="104.92 295.93 90.46 310.14 110.2 315.4 104.92 295.93"></polygon><path d="m104.95,295.92c.74.31,3.04,8.9,4.28,12.11.42,1.09.83,2.21,1.24,3.37.08.2.26.78.41,1.28.16.52.32,1.04.48,1.56.33,1.1.67,2.21,1.01,3.34-4.64-1.1-9.55-2.27-14.16-3.36-1.44-.35-2.87-.7-4.26-1.07-2.54-.68-5.02-1.35-7.36-1.98,1.42-1.37,2.83-2.73,4.22-4.06l.92-.87.53-.48c.35-.32.7-.64,1.04-.95,1.38-1.25,2.73-2.44,4.04-3.56,2.61-2.23,5.04-4.16,7.18-5.7-1.12,3.42-4.71,8.58-6.49,9.91-1.24.93-2.44,1.87-3.58,2.79l-.42.34-.11.09s-.03.02-.05.03l-.08.05c-.11.06-.23.14-.36.23-.26.17-.55.39-.86.63.31.15.71.31,1.17.47l.38.13.66.2c.44.13.88.26,1.31.4,1.74.52,3.43.98,5.08,1.42,1.64.44,3.24.83,4.78,1.21.38.09.76.18,1.13.27.21.05.42.09.63.14.38.08.76.16,1.12.23-.19-.58-.38-1.15-.56-1.7-.3-1.04-.6-2.06-.89-3.04-.57-2-1.07-3.9-1.46-5.74-.59-2.42-.95-6.79-.99-7.66Z"></path><polygon class="j" points="141 414.53 134.4 433.7 154.42 429.59 141 414.53"></polygon><path d="m141.02,414.51c.8-.05,6.69,6.61,9.24,8.93.86.78,1.73,1.6,2.61,2.46.16.15.58.59.94.96.37.39.75.78,1.13,1.18.79.83,1.58,1.68,2.4,2.53-4.65,1.08-9.56,2.23-14.17,3.31-1.44.33-2.88.65-4.29.95-2.58.52-5.09,1.03-7.47,1.51.66-1.86,1.32-3.7,1.96-5.52l.43-1.19.25-.67c.17-.44.34-.88.51-1.32.68-1.74,1.35-3.41,2.03-4.99,1.34-3.16,2.65-5.97,3.88-8.31.52,3.56-.39,9.78-1.38,11.77-.69,1.39-1.35,2.76-1.96,4.09l-.23.5-.06.12s-.02.03-.03.04l-.05.08c-.07.11-.15.23-.22.37-.16.27-.32.59-.49.94.34,0,.77-.04,1.26-.1l.39-.05.69-.11c.45-.08.91-.16,1.35-.23,1.79-.32,3.51-.65,5.18-1,1.67-.34,3.27-.7,4.82-1.05.38-.09.76-.17,1.13-.26.21-.05.42-.11.63-.16.38-.1.75-.2,1.11-.29-.43-.44-.85-.86-1.26-1.27-.74-.8-1.46-1.57-2.15-2.33-1.4-1.54-2.7-3.02-3.87-4.48-1.61-1.91-3.88-5.65-4.31-6.41Z"></path><polygon class="f" points="132.96 356.77 145.49 372.7 152.89 353.66 146.11 354.72 132.96 356.77"></polygon><path d="m132.95,356.74c.39-.7,9.18-2.04,12.51-2.93,1.12-.3,2.28-.58,3.48-.86.21-.06.81-.17,1.32-.27.53-.1,1.06-.21,1.6-.31,1.13-.21,2.27-.42,3.43-.64-1.61,4.49-3.31,9.25-4.9,13.71-.5,1.39-1.02,2.77-1.53,4.11-.96,2.45-1.89,4.84-2.78,7.1-1.21-1.57-2.4-3.11-3.57-4.64l-.77-1.01-.42-.58c-.28-.38-.56-.76-.83-1.14-1.09-1.51-2.13-2.99-3.09-4.41-1.93-2.84-3.58-5.46-4.88-7.76,3.28,1.49,8.01,5.63,9.14,7.54.79,1.34,1.59,2.63,2.38,3.86l.29.46.07.11s.01.03.02.05l.04.09c.05.12.12.25.19.39.14.28.33.59.53.92.18-.29.38-.67.6-1.11l.17-.36.28-.64c.18-.42.36-.85.54-1.26.7-1.67,1.36-3.31,1.97-4.89.61-1.59,1.19-3.13,1.73-4.62.13-.37.26-.73.39-1.09.07-.21.14-.41.21-.61.12-.37.24-.73.35-1.09-.6.13-1.18.25-1.75.37-1.07.19-2.11.37-3.12.55-2.05.34-4,.63-5.86.82-2.47.32-6.86.2-7.72.14Z"></path><polygon class="f" points="118.07 230.8 97.84 232.13 109.37 249 118.07 230.8"></polygon><path d="m118.1,230.81c.35.72-3.51,8.73-4.66,11.97-.39,1.1-.81,2.21-1.26,3.36-.07.21-.32.76-.52,1.24-.22.5-.43,1-.65,1.5-.46,1.05-.93,2.11-1.41,3.19-2.8-3.87-5.76-7.95-8.53-11.79-.86-1.2-1.71-2.4-2.53-3.59-1.48-2.18-2.92-4.3-4.29-6.31,1.98-.11,3.93-.22,5.85-.33l1.27-.06.71-.02c.47-.01.95-.03,1.41-.04,1.87-.05,3.67-.07,5.38-.06,3.43.01,6.53.14,9.16.36-3.08,1.86-9.17,3.43-11.38,3.28-1.55-.1-3.07-.17-4.53-.22l-.55-.02h-.14s-.03-.01-.05-.01l-.09-.02c-.13-.02-.27-.05-.43-.06-.31-.04-.67-.07-1.06-.09.14.31.34.7.58,1.12l.2.34.37.59c.25.39.49.77.74,1.16.98,1.53,1.96,2.99,2.92,4.39.96,1.4,1.91,2.75,2.84,4.04.23.32.45.63.68.94l.39.52c.24.31.47.61.7.91.24-.57.46-1.12.69-1.65.45-.99.89-1.95,1.31-2.89.88-1.89,1.74-3.65,2.63-5.3,1.14-2.22,3.71-5.77,4.25-6.45Z"></path><polygon class="e" points="41.8 1.36 6.99 110.34 133.95 199.51 154.94 37.19 41.8 1.36"></polygon><path d="m41.82,1.3c2.32.08,22.69,6.21,46.21,13.41,11.76,3.61,24.31,7.46,35.78,10.98,5.74,1.75,11.21,3.41,16.17,4.92,5.11,1.53,9.71,2.9,13.54,4.04,1.16.35,2.32.7,3.68,1.11-1.49,13.35-3.03,27.16-4.6,41.22-1.58,13.48-3.19,27.21-4.81,41-1.67,13.79-3.36,27.64-5.02,41.37-1.97,15.85-3.92,31.56-5.83,46.92-4.16-2.9-8.07-5.63-11.96-8.35-20.96-14.56-41.75-29.12-61.9-43.35-10.06-7.14-19.98-14.17-29.69-21.06-10.4-7.43-20.58-14.71-30.48-21.79,1.12-3.42,2.24-6.81,3.35-10.18.85-2.56,1.7-5.1,2.54-7.63,1.69-5.05,3.36-10.02,5-14.91,3.32-9.77,6.52-19.23,9.61-28.32C29.61,32.51,35.42,15.84,40.71,1.01c-5.67,28.63-20.49,82.67-27.12,101.5-.56,1.58-1.11,3.16-1.64,4.67-.72,2.11-.55,1.42-.7,1.72.04.06.09.12.16.2l1.94,1.45c1.42,1.06,2.84,2.11,4.26,3.16,2.83,2.1,5.65,4.18,8.46,6.25,5.62,4.13,11.17,8.21,16.66,12.24,10.99,8.04,21.75,15.85,32.25,23.43,10.53,7.54,20.78,14.88,30.74,22.02,9.29,6.58,18.3,12.96,27.03,19.15,1.85-14.52,3.65-28.56,5.38-42.17,1.79-14.42,3.52-28.37,5.2-41.87,3.26-26.35,6.31-50.95,9.17-74.01-7.64-2.42-15.07-4.78-22.32-7.09-7.81-2.53-15.42-5.01-22.86-7.42C85.81,17.29,49.02,3.98,41.82,1.3Z"></path><polygon class="h" points="100.62 22.03 132.76 196.95 152.49 38.66 100.62 22.03"></polygon><polygon class="f" points="28.66 51.61 132.76 196.95 11.45 109.09 28.66 51.61"></polygon><polygon class="c" points="41.8 1.36 132.76 196.95 100.62 22.03 41.8 1.36"></polygon><path class="i" d="m61.42,81.52c-.11-.1-.27-.48-.49-1.09-.1-.3-.25-.66-.34-1.07-.09-.42-.18-.88-.28-1.39-.34-2.04-.41-4.84.27-7.73.65-2.89,2.05-5.82,3.82-8.14,1.76-2.34,3.86-4.02,5.45-5.07,2.78-1.89,6.17-3.21,9.79-3.52,3.61-.35,7.41.21,10.82,1.77,3.45,1.49,6.48,3.95,8.73,6.96,2.3,2.99,3.65,6.58,4.2,10.16.47,3.15.24,6.39-.65,9.42-.89,3.03-2.44,5.83-4.45,8.18-2.01,2.35-4.5,4.23-7.19,5.52-2.7,1.29-5.59,2.01-8.43,2.15-5.71.3-11.09-1.74-14.83-4.92-1.89-1.58-3.41-3.41-4.57-5.3-1.15-1.91-1.86-3.9-2.36-5.78.96,1.52,2.1,3.32,3.62,4.95,1.52,1.62,3.33,3.09,5.24,4.2,1.91,1.1,3.86,1.91,5.62,2.34,1.75.45,3.26.66,4.31.8,2.11.33,4.26.24,6.32-.22,2.06-.45,4.05-1.19,5.82-2.29,1.76-1.1,3.33-2.46,4.64-4.02,1.32-1.56,2.3-3.34,3.05-5.18.76-1.84,1.16-3.79,1.29-5.71.16-1.93-.04-3.85-.46-5.67-.37-1.85-1.16-3.55-1.99-5.15-.92-1.57-2-3-3.25-4.24-1.27-1.2-2.63-2.3-4.13-3.09-.72-.45-1.51-.75-2.26-1.1-.78-.28-1.55-.58-2.35-.77-3.16-.81-6.39-.86-9.35-.17-5.96,1.37-10.61,5.29-13.19,9.89-1.26,2.18-2.45,5.48-2.75,8.58-.17,1.54-.13,3-.03,4.19.11,1.18.31,2.07.36,2.53Z"></path><path class="i" d="m88.16,89.96c-.68.04-2.73-4.22-3.85-5.7-1.98-2.61-3.73-5.86-5.33-8.78-2.79-5.12-4.81-10.47-5.49-14.36,2.23.8,4.71,3.24,4.97,4.42,2.02,9.49,6.9,15.06,8.86,20.31.52,1.22.81,3.63.84,4.11Zm-7.24-11.84h0"></path><path class="i" d="m95.65,68.35c.04.68-4.22,2.73-5.7,3.85-2.61,1.98-5.86,3.73-8.78,5.33-5.12,2.79-10.47,4.81-14.36,5.49.8-2.23,3.24-4.71,4.42-4.97,9.49-2.02,15.06-6.9,20.31-8.86,1.22-.52,3.63-.81,4.11-.84Zm-11.84,7.24h0"></path><path class="i" d="m96.38,80.71c-.45.51-4.91-1.05-6.75-1.31-3.25-.45-6.78-1.5-9.98-2.44-5.59-1.64-10.81-4.01-14.04-6.28,2.15-1.01,5.63-1.04,6.64-.38,8.13,5.28,15.52,5.77,20.62,8.1,1.23.49,3.14,1.99,3.5,2.31Zm-13.49-3.25h0"></path><path class="i" d="m86.4,60.12c.51.45-1.05,4.91-1.31,6.75-.45,3.25-1.5,6.78-2.44,9.98-1.64,5.59-4.01,10.81-6.28,14.04-1.01-2.15-1.04-5.63-.38-6.64,5.28-8.13,5.77-15.52,8.1-20.62.49-1.23,1.99-3.14,2.31-3.5Zm-3.25,13.49h0"></path><path class="d color-body" d="m138.92,490c3.18.71,6.42,1.17,9.68,1.39,3.87.26,8.23-.03,10.86-2.88,2.15-2.33,2.54-5.8,2.28-8.96-.38-4.66-2.14-9.5-5.96-12.19-1.31-.92-2.8-1.55-4.27-2.17-7.91-3.33-20.48-5.57-24.03,5.22-2.36,7.17,4.5,18.05,11.44,19.59Z" style="fill:#ffffff;--backup-fill:#ffffff"></path><path d="m138.91,490.06c-.25.23-1.46.23-3.07-.43-1.6-.66-3.47-2.01-5.11-3.79-1.65-1.77-3.06-3.98-4.03-6.18-.97-2.2-1.52-4.4-1.65-6.1-.07-.36-.05-.75-.06-1.14,0-.39-.02-.78.03-1.17.11-.79.22-1.64.48-2.34.25-.74.42-1.5.84-2.22.36-.73.73-1.48,1.29-2.14.26-.34.51-.69.8-1.01l.96-.9c.62-.64,1.4-1.04,2.14-1.54.76-.41,1.56-.78,2.37-1.07.81-.24,1.64-.53,2.45-.64,3.28-.6,6.47-.38,9.45.17,1.48.3,2.94.65,4.35,1.1,1.41.43,2.8.96,4.06,1.47,1.16.47,2.44,1.05,3.73,1.91,1.29.87,2.43,1.93,3.37,3.09,1.89,2.34,3,4.98,3.64,7.56.62,2.61.86,5.1.65,7.78-.11,1.33-.38,2.7-.86,4.07-.49,1.36-1.23,2.72-2.25,3.87-1.02,1.15-2.27,2.04-3.53,2.63-1.27.6-2.54.92-3.74,1.1-2.4.33-4.54.13-6.48-.17-3.8-.63-7.17-1.66-10.04-2.85,3.03-1.01,7.08-1.79,10.65-2.53,1.74-.37,3.25-.79,4.33-1.21,1.09-.42,1.73-.77,2.2-.91.96-.27,1.76-.86,2.38-2,.61-1.13.93-2.63,1.02-4.18.16-3.13-.44-6.3-1.91-8.77-.74-1.23-1.69-2.27-2.82-3.05-1.14-.78-2.53-1.39-3.94-1.98-2.74-1.13-5.55-1.92-8.26-2.2-2.69-.27-5.35-.15-7.47.75-2.13.87-3.66,2.37-4.57,4.25-.25.45-.38.99-.59,1.47l-.14.36-.07.35-.15.68c-.08.96-.12,1.93.05,2.93.28,1.98.97,3.93,1.83,5.74.86,1.67,2.07,4.07,3.65,5.89.39.45.77.91,1.18,1.26.2.19.39.38.58.56.2.16.4.3.58.44.19.14.36.28.53.41.18.1.34.2.49.28.3.18.54.32.7.41Z"></path><polygon class="e" points="363.23 50.06 363.15 50.46 354.9 92.24 319.38 72.26 320.24 67.33 327.71 24.53 363.23 50.06"></polygon><path d="m363.21,50.08c-1.52-.32-22.38-15.34-30.63-20.83-.88-.59-1.76-1.18-2.69-1.8-.28-.19-.34-.22-.45-.29l-.3-.19c-.19-.12-.38-.23-.58-.36-.04.39-.08.78-.12,1.17-.13.91-.27,1.82-.4,2.75-.3,1.96-.6,3.94-.9,5.93-.63,3.98-1.27,8.03-1.91,12.08-1.25,7.65-2.51,15.34-3.72,22.7h.02c2.78,1.54,5.54,3.08,8.29,4.6,3.01,1.69,5.99,3.37,8.94,5.03,2.94,1.67,5.84,3.32,8.69,4.95,1.42.82,2.83,1.63,4.22,2.43.59.34,1.17.68,1.75,1.02l.16.12.04-.11.02-.06v-.04s.08-.33.08-.33c.21-1,.43-2,.64-2.99.43-1.97.85-3.92,1.27-5.83.85-3.81,1.68-7.5,2.46-11.02,1.61-7.05,3.14-13.46,4.56-19.07-.17,9.39-2.49,27.13-4,33.31-.4,1.64-.8,3.27-1.18,4.84-.09.39-.19.78-.28,1.16l-.14.57c-.07.34-.15.67-.22,1-.29,1.31-.57,2.59-.85,3.81-1.41-.83-2.81-1.66-4.21-2.48-.78-.47-1.56-.95-2.34-1.42-1.55-.93-3.09-1.86-4.61-2.77-3.06-1.81-6.05-3.58-8.98-5.31-2.94-1.71-5.82-3.38-8.62-5.01-2.98-1.7-5.89-3.36-8.72-4.98.81-4.67,1.6-9.2,2.36-13.6.71-4.23,1.39-8.33,2.06-12.31,1.42-8.56,2.75-16.59,4-24.12,3.65,2.61,7.15,5.12,10.53,7.53,2.91,2.1,5.71,4.15,8.4,6.15,5.81,4.26,15.47,12.18,17.35,13.76Z"></path><polygon class="h" points="357.94 70.61 338.45 80.76 353.74 89.41 357.94 70.61"></polygon><polygon class="f" points="363.23 50.06 341.3 56.53 320.93 69.05 328.4 26.25 363.23 50.06"></polygon><polygon class="g" points="354.9 92.24 353.13 108.2 368.76 100.22 354.9 92.24"></polygon><path d="m354.92,92.22c.66-.34,6.93,3.29,9.53,4.37.4.17.81.35,1.23.52l.31.14c.1.04.2.09.38.18.34.17.68.34,1.02.51,1.39.7,2.91,1.49,4.54,2.36-3.7,2.04-7.62,4.21-11.3,6.24-.57.31-1.13.61-1.69.91-.59.31-1.18.62-1.76.92-2.21,1.12-4.36,2.2-6.4,3.23.2-1.56.39-3.1.58-4.62.1-.74.19-1.48.29-2.21l.11-.79.09-.55c.24-1.46.49-2.86.76-4.19.54-2.67,1.12-5.06,1.74-7.07,1.35,2.77,1.95,7.9,1.47,9.65-.15.57-.31,1.14-.46,1.7-.07.28-.14.56-.21.83l-.05.21-.03.1-.02.02-.07.11c-.17.32-.35.84-.51,1.44.24-.05.57-.15.95-.29.2-.08.4-.15.59-.23.36-.16.71-.33,1.06-.49,1.42-.66,2.78-1.33,4.07-2s2.54-1.33,3.74-1.98c.2-.11.4-.22.59-.33l.46-.27c.27-.17.54-.33.8-.49-.43-.22-.86-.42-1.26-.63l-.27-.14-.36-.19c-.36-.2-.72-.4-1.08-.6-1.41-.79-2.73-1.57-3.95-2.38-1.73-1.07-4.38-3.51-4.88-4.02Z"></path><path d="m337.83,205.49c.18-.24,1.36-.9,2.97-2.07,1.6-1.17,3.63-2.87,5.41-5.03,1.82-2.12,3.35-4.72,4.36-7.24,1.03-2.52,1.5-4.94,1.73-6.67.73-6.16-.36-12.83-2.41-19.22-1.03-3.2-2.33-6.34-3.74-9.39-.71-1.52-1.49-3-2.23-4.49-.75-1.55-1.57-3.05-2.25-4.6-2.46-5.36-4.31-11.04-5.22-16.79-.87-5.75-.68-11.59.75-16.89,1.44-5.29,4.06-9.93,7.21-13.5,3.16-3.58,6.69-6.22,10.23-7.87-2.68,2.38-5.96,6.02-8.36,9.86-2.43,3.81-3.86,7.71-4.68,9.74-.82,2.04-1.5,4.14-1.86,6.28-.25,1.06-.31,2.14-.46,3.21-.05,1.07-.16,2.14-.14,3.21-.01,4.27.66,8.43,1.7,12.36,1.02,3.94,2.52,7.62,4.13,11.11,1.64,3.44,3.41,6.84,4.82,10.21,1.38,3.39,2.61,6.73,3.45,10.09.84,3.35,1.39,6.67,1.53,9.93.14,3.25-.13,6.44-.86,9.43-.73,2.99-1.92,5.76-3.45,8.18-.69,1.18-1.7,2.44-2.82,3.67-1.14,1.22-2.46,2.35-3.77,3.29-2.61,1.9-5.18,2.94-6.03,3.19Z"></path><line class="f" x1="327.71" y1="24.53" x2="354.9" y2="91.38"></line><path d="m354.87,91.39c-.8-.3-4.75-10.08-6.62-13.7-3.29-6.4-6.53-13.96-9.47-20.78-5.14-11.93-9.44-23.91-11.61-32.16,2.96,2.89,6.8,9.23,7.51,11.76,5.74,20.33,13.55,34.37,17.74,46.09,1.05,2.76,2.24,7.8,2.45,8.8Zm-12.83-28.05h0"></path><path d="m363.23,50.09c-.19.33-2.11.67-4.31,1.01-.28.04-.56.08-.84.12l-.84.19c-.56.13-1.11.26-1.64.39-1.05.26-2.01.47-2.67.73-4.67,1.72-9.86,3.84-14.23,6.36-7.66,4.36-14.45,9.77-18.85,13.69.1-1.53.9-3.51,1.89-5.17.49-.84,1.03-1.61,1.57-2.22.52-.62,1.01-1.11,1.42-1.35,6.47-4.12,12.17-7.22,17.44-9.65.66-.29,1.3-.63,1.95-.89.65-.25,1.3-.51,1.93-.75.63-.25,1.26-.49,1.87-.73.62-.22,1.25-.39,1.85-.58,1.23-.34,2.4-.75,3.57-.96,1.17-.21,2.31-.39,3.41-.52,1.04-.21,2.5-.07,3.77.02,1.27.11,2.35.25,2.71.3Z"></path><polygon class="e" points="357.16 305.9 354.06 321.6 350.65 338.86 334.64 329.85 322.89 323.25 326.08 304.95 329.4 285.95 346.57 298.29 357.16 305.9"></polygon><path d="m357.14,305.92c-1.27-.14-17.56-11.88-24.06-16.11-.35-.23-.69-.45-1.04-.68-.34-.22-.78-.51-.86-.55-.29-.17-.6-.35-.92-.54-.03.31-.05.63-.08.94l-.02.21v.1s-.04.25-.04.25l-.16,1.15c-.22,1.53-.45,3.08-.68,4.64-.48,3.12-.96,6.28-1.45,9.45-.94,5.88-1.89,11.8-2.8,17.45,0,0,.01,0,.01,0h.04s.86.48.86.48l1.78.98c1.19.66,2.37,1.31,3.55,1.97,2.35,1.32,4.68,2.63,6.99,3.93,2.29,1.31,4.56,2.61,6.78,3.88,1.11.64,2.21,1.28,3.29,1.91l.81.47c.05.03.04.03.06.05l.13.11s.05-.1.08-.18c.15-.68.3-1.36.45-2.03.34-1.54.68-3.06,1.01-4.55.69-2.98,1.35-5.85,1.99-8.6,1.3-5.5,2.55-10.5,3.73-14.87.23,7.41-1.33,21.32-2.58,26.14-.33,1.28-.65,2.55-.97,3.77-.08.34-.17.68-.25,1.01-.12.54-.25,1.08-.37,1.61-.23,1.02-.46,2-.68,2.94-1.11-.66-2.21-1.32-3.3-1.97l-1.29-.78-.91-.56c-1.21-.74-2.4-1.47-3.59-2.2-2.38-1.43-4.71-2.83-6.99-4.2-2.29-1.34-4.54-2.66-6.73-3.94-2.36-1.35-4.67-2.67-6.91-3.96.64-3.69,1.26-7.27,1.86-10.74.55-3.31,1.08-6.51,1.59-9.62.5-3.11.99-6.13,1.46-9.05.58-3.51,1.14-6.9,1.68-10.18,2.96,2.12,5.8,4.14,8.54,6.1,2.28,1.65,4.46,3.25,6.55,4.83,4.53,3.34,11.98,9.67,13.42,10.94Z"></path><polygon class="f" points="347.24 299.67 326.76 306.33 330.07 287.33 347.24 299.67"></polygon><polygon class="h" points="353.27 319.57 349.87 336.84 333.85 327.83 353.27 319.57"></polygon><polygon class="f" points="350.65 338.86 349.26 351.33 361.48 345.1 350.65 338.86"></polygon><path class="i" d="m350.67,338.84c.59-.39,5.48,2.46,7.55,3.23.49.15,1.69.73,2.78,1.26,1.12.55,2.34,1.17,3.65,1.85-.95.54-1.92,1.09-2.89,1.64-.99.55-2,1.1-3,1.65-1.16.66-2.32,1.31-3.45,1.94-.44.24-.88.48-1.32.72-.71.37-1.41.73-2.1,1.09-1.74.89-3.43,1.75-5,2.52.31-2.48.63-4.87.95-7.05.05-.33.06-.38.09-.55l.08-.42c.05-.28.11-.55.16-.83.12-.54.23-1.08.34-1.6.47-2.08,1-3.94,1.56-5.51,1.42,2.21,2.14,6.24,1.69,7.6-.14.45-.28.89-.41,1.32-.04.15-.05.1-.08.14-.02.02-.04.04-.07.07-.04.05-.09.12-.13.19-.17.3-.34.75-.48,1.26.36-.03.93-.22,1.65-.52,1.11-.51,2.18-1.03,3.19-1.55.51-.27,1-.53,1.49-.78.24-.13.48-.26.72-.39l.47-.27c.52-.31.96-.59,1.32-.82-.35-.17-.7-.33-1.03-.49-.15-.07-.29-.14-.43-.21-.15-.07-.2-.1-.55-.29-1.11-.61-2.14-1.23-3.08-1.88-1.34-.85-3.33-2.91-3.7-3.34Z"></path><path d="m373.53,397.67c-.44.25-4.24-.25-8.48-1.55-2.12-.65-4.34-1.52-6.28-2.54-1.95-1.01-3.61-2.21-4.7-3.23-.99-.86-1.82-2.02-2.45-3.32-.64-1.32-.8-2.88-.71-4.37.33-3.01,1.86-5.6,3.58-7.79,1.74-2.21,3.75-4.11,5.83-5.83,1.01-.83,2.02-1.66,3.02-2.48.99-.77,1.86-1.63,2.75-2.45.77-.72,1.45-1.51,2.16-2.26.61-.81,1.33-1.57,1.84-2.42.6-.81,1.02-1.68,1.47-2.53l.51-1.3c.15-.44.22-.88.35-1.31.35-1.75.22-3.48-.46-5.07-.66-1.59-1.78-3.03-3.09-4.25-2.66-2.46-5.98-4.12-9.15-5.15-1.59-.51-3.18-.87-4.68-1.01-1.49-.13-2.96-.05-4.04.51.64-.99,2.31-1.73,4.07-2.03,1.79-.32,3.76-.28,5.63-.01,1.88.27,3.68.78,5.18,1.4,1.5.63,2.72,1.34,3.46,1.96,3.03,2.38,5.55,5.68,6.21,9.45.05.47.18.93.17,1.4,0,.46,0,.93,0,1.39-.12.91-.21,1.81-.49,2.65-.19.87-.59,1.64-.91,2.43-.39.75-.8,1.49-1.23,2.19-1.82,2.75-4.02,5.01-6.3,6.97-1.11,1.02-2.31,1.88-3.43,2.81-1.09.9-2.23,1.72-3.21,2.67-2.05,1.8-3.83,3.77-5.13,5.87-1.31,2.08-2.07,4.38-1.64,6.43.04.52.29.99.43,1.48.27.45.44.93.79,1.34.57.87,1.38,1.58,2.16,2.28,1.65,1.33,3.51,2.36,5.36,3.25,1.77.83,4.24,1.92,6.49,2.76,2.25.85,4.24,1.47,4.9,1.68Z"></path><line class="f" x1="329.4" y1="287.33" x2="350.65" y2="339.57"></line><path d="m350.62,339.58c-.75-.19-3.84-7.83-5.36-10.63-2.7-4.95-5.26-10.84-7.59-16.16-4.07-9.3-7.32-18.71-8.8-25.25,2.65,2.12,5.88,6.98,6.38,8.98,4.01,16.08,10.51,26.89,13.67,36.1.81,2.16,1.58,6.16,1.7,6.96Zm-10.29-21.81h0"></path><path class="f" d="m363.06,321.45s-2.95-2.94-2.95-7.23-2.95-8.32-2.95-8.32"></path><path d="m357.18,305.88c.3-.13.81.34,1.3.96.49.62.95,1.38,1.32,1.77,1.3,1.37,2.08,3.47,2.24,5.57.14,1.23.36,2.37.63,3.54.27,1.15.58,2.31.79,3.33-1.77.61-3.94-.56-3.97-1.37-.12-1.55-.17-2.85-.18-4.06-.02-.58.03-1.22.01-1.68,0-.47-.07-.93-.18-1.36-.43-1.76-1.39-3.05-1.79-4.39-.23-.6-.18-2-.18-2.31Z"></path><path class="f" d="m327.69,339.57s-2.95-2.94-2.95-7.23-2.95-8.32-2.95-8.32"></path><path d="m321.82,324c.3-.13.81.34,1.3.96.49.62.95,1.38,1.32,1.77,1.3,1.37,2.08,3.47,2.24,5.57.14,1.23.36,2.37.63,3.54.27,1.15.58,2.31.79,3.33-1.77.61-3.94-.56-3.97-1.37-.12-1.55-.17-2.85-.18-4.06-.02-.58.03-1.22.01-1.68,0-.47-.07-.93-.18-1.36-.43-1.76-1.39-3.05-1.79-4.39-.23-.6-.18-2-.18-2.31Z"></path><polygon class="e" points="71.62 377.42 63.29 419.6 27.77 399.62 31.39 378.87 36.1 351.89 60.47 369.4 71.62 377.42"></polygon><path d="m71.6,377.44c-1.52-.32-22.37-15.34-30.63-20.83-.88-.59-1.76-1.18-2.69-1.79-.28-.19-.34-.22-.45-.29l-.3-.19c-.19-.12-.38-.23-.58-.36-.04.39-.08.78-.12,1.17-.13.91-.27,1.82-.4,2.75-.3,1.96-.6,3.93-.9,5.93-.63,3.98-1.27,8.03-1.91,12.08-1.25,7.65-2.51,15.34-3.72,22.7h.02c2.78,1.54,5.54,3.08,8.29,4.6,3.01,1.69,5.99,3.37,8.94,5.03,2.94,1.67,5.84,3.32,8.69,4.95,1.42.82,2.83,1.63,4.22,2.43.59.34,1.17.68,1.75,1.02l.16.12.04-.11.02-.06v-.04s.08-.33.08-.33c.21-1,.43-2,.64-2.99.43-1.97.85-3.92,1.27-5.83.85-3.81,1.68-7.5,2.47-11.02,1.61-7.05,3.14-13.46,4.56-19.07-.17,9.39-2.49,27.13-4,33.31-.4,1.64-.8,3.27-1.18,4.84-.09.39-.19.78-.28,1.16l-.14.57c-.07.34-.15.67-.22,1-.29,1.31-.57,2.59-.85,3.81-1.41-.83-2.81-1.66-4.21-2.48-.78-.47-1.56-.95-2.34-1.42-1.55-.93-3.09-1.86-4.61-2.77-3.06-1.81-6.05-3.58-8.97-5.31-2.94-1.71-5.82-3.38-8.62-5.01-2.98-1.7-5.89-3.36-8.72-4.98.81-4.67,1.6-9.2,2.36-13.6.71-4.23,1.39-8.33,2.06-12.31,1.42-8.56,2.75-16.59,4-24.12,3.65,2.61,7.16,5.11,10.53,7.53,2.91,2.1,5.71,4.15,8.4,6.15,5.81,4.26,15.47,12.18,17.34,13.76Z"></path><polygon class="h" points="69.34 384.32 37.79 402.94 61.81 416.86 69.34 384.32"></polygon><polygon class="f" points="57.34 367.81 46.83 370.49 33.2 378.87 36.1 351.89 57.34 367.81"></polygon><path d="m57.34,367.84c-.11.33-1.37.64-2.81.94-.72.15-1.46.44-2.14.64-.68.21-1.29.42-1.69.68-2.91,1.52-6.06,3.32-8.64,5.38-4.49,3.57-8.52,7.57-11.42,10.3-.3-1.15-.12-2.66.27-3.95.39-1.3,1.02-2.37,1.54-2.76,2.18-1.59,4.08-2.97,5.84-4.25,1.83-1.26,3.5-2.47,5.17-3.48,1.64-1.05,3.27-1.9,4.85-2.59.8-.31,1.58-.61,2.35-.86.78-.19,1.55-.34,2.29-.44.69-.17,1.7-.08,2.56.06.87.12,1.59.28,1.83.34Z"></path><path class="f" d="m62.92,419.58c.09-.02.25.05.46.19.22.13.49.36.76.67.56.6,1.16,1.55,1.56,2.64.85,2.18,1.11,4.76,1.4,6.15.5,2.46.78,5.09,1.42,7.47.62,2.39,1.74,4.36,3.44,5.44,1.45.99,3.35,1.49,5.29,1.77,1.08.18,2.21.35,3.28.57,1.09.29,2.15.51,3.19.95.52.2,1.02.37,1.52.67.5.29.99.48,1.45.88.46.35.92.69,1.3,1.2.42.42.69,1.04.94,1.59.4,1.25.11,2.49-.36,3.33-.48.87-1.08,1.47-1.76,1.98.22-.82.37-1.7.35-2.55-.02-.85-.36-1.49-.77-1.81-.84-.65-2.23-.99-2.85-1.44-1.37-.82-2.96-1.44-4.56-1.85-.82-.21-1.56-.39-2.43-.58-.85-.17-1.68-.41-2.49-.66-1.61-.53-3.12-1.32-4.34-2.4-1.23-1.08-2.12-2.42-2.73-3.79-1.2-2.77-1.48-5.51-1.75-7.96-.24-2.47-.37-4.71-.63-6.73-.15-.96-.28-2.25-.62-3.38-.3-1.14-.89-2.04-1.06-2.36Z"></path><path class="f" d="m67.84,428.67c.11-.12.63-.2,1.38-.06.75.12,1.72.48,2.64,1.07,1.86,1.16,3.41,3.04,4.34,3.95,1.65,1.62,3.21,3.51,4.95,4.62,1.72,1.11,3.57,1.22,5.51.63.84-.22,1.68-.6,2.52-.98.89-.45,1.77-.89,2.65-1.33.47-.23.94-.45,1.4-.68.49-.19.98-.38,1.46-.57.94-.4,1.99-.63,2.96-.89.52-.07,1.04-.15,1.55-.22.5-.08,1.07-.02,1.58-.02.52,0,1.09.18,1.6.27.26.08.53.21.78.33.26.11.5.24.72.43.95.64,1.5,1.67,1.69,2.56.2.92.15,1.71-.03,2.49-.36-.74-.83-1.42-1.39-1.97-.57-.54-1.17-.8-1.73-.81-1.06-.04-2.23.35-2.96.35-1.43-.06-2.98.32-4.42.76-.73.19-1.42.52-2.12.79-.68.28-1.38.58-2.09.9-1.41.6-2.82,1.1-4.28,1.37-1.45.27-2.96.25-4.36-.15-1.4-.39-2.59-1.17-3.58-2.01-.99-.85-1.81-1.76-2.55-2.65-1.48-1.79-2.68-3.45-3.92-4.81-.6-.63-1.38-1.52-2.25-2.17-.43-.33-.87-.59-1.24-.81-.39-.19-.69-.33-.83-.4Z"></path><polygon class="f" points="63.29 419.6 61.52 435.56 77.15 427.58 63.29 419.6"></polygon><path d="m63.31,419.58c.66-.34,6.93,3.29,9.53,4.37.4.17.81.35,1.23.53l.31.14c.1.04.2.09.38.18.34.17.68.34,1.02.51,1.39.7,2.91,1.49,4.54,2.36-3.7,2.04-7.62,4.21-11.3,6.24-.57.31-1.13.61-1.69.91-.59.31-1.18.62-1.76.92-2.21,1.12-4.36,2.2-6.4,3.23.2-1.56.39-3.1.58-4.62.1-.74.19-1.48.29-2.21l.11-.79.09-.55c.24-1.46.49-2.86.76-4.19.54-2.67,1.12-5.06,1.74-7.07,1.35,2.77,1.95,7.9,1.47,9.65-.15.57-.31,1.14-.46,1.7-.07.28-.14.56-.21.83l-.05.21-.03.1-.02.02-.07.11c-.17.32-.35.84-.51,1.44.24-.05.57-.15.95-.29.2-.08.4-.15.59-.23.36-.16.71-.33,1.06-.49,1.42-.66,2.78-1.33,4.07-2,1.3-.67,2.54-1.33,3.74-1.98.2-.11.39-.22.59-.33l.46-.27c.27-.17.54-.33.8-.49-.43-.22-.86-.42-1.26-.63l-.27-.14-.36-.19c-.36-.2-.72-.4-1.08-.6-1.41-.79-2.73-1.57-3.95-2.38-1.73-1.07-4.38-3.51-4.88-4.02Z"></path><line class="f" x1="36.1" y1="353.66" x2="63.29" y2="420.51"></line><path d="m63.27,420.52c-.8-.3-4.75-10.08-6.62-13.7-3.29-6.4-6.53-13.96-9.47-20.78-5.14-11.93-9.44-23.91-11.61-32.16,2.96,2.89,6.8,9.23,7.51,11.76,5.74,20.33,13.55,34.37,17.74,46.09,1.05,2.76,2.24,7.8,2.45,8.8Zm-12.83-28.05h0"></path><path class="f" d="m79.17,397.32s-3.77-3.76-3.77-9.25-3.77-10.64-3.77-10.64"></path><path d="m71.64,377.4c.31-.11.93.51,1.52,1.31.6.8,1.16,1.78,1.58,2.29,1.49,1.8,2.42,4.43,2.58,7.02.14,1.66.47,3.21.9,4.73.43,1.5.95,2.95,1.34,4.17-.95.21-2.08-.07-2.94-.53-.87-.46-1.47-1.12-1.54-1.58-.27-1.85-.43-3.48-.47-4.98-.04-.73,0-1.52-.02-2.12,0-.61-.09-1.21-.22-1.78-.52-2.29-1.68-4.01-2.26-5.71-.32-.78-.44-2.46-.49-2.82Z"></path><path class="f" d="m33.92,420.51s-3.77-3.76-3.77-9.25-3.77-10.64-3.77-10.64"></path><path d="m26.39,400.6c.31-.11.93.51,1.52,1.31.6.8,1.16,1.78,1.58,2.29,1.49,1.8,2.42,4.43,2.58,7.02.14,1.66.47,3.21.9,4.73.43,1.5.95,2.95,1.34,4.17-.95.21-2.08-.07-2.94-.53-.87-.46-1.47-1.12-1.54-1.58-.27-1.85-.43-3.48-.47-4.98-.04-.73,0-1.52-.02-2.12,0-.61-.09-1.21-.22-1.78-.52-2.29-1.68-4.01-2.26-5.71-.32-.78-.44-2.46-.49-2.82Z"></path></svg>