<svg xmlns="http://www.w3.org/2000/svg" id="accessories" viewBox="0 0 380 600"><defs><style>.cls-1{fill:#00ccc0;}.cls-2{fill:#fff;}.cls-3{opacity:.3;}.cls-4{opacity:.25;}</style></defs><g class="cls-3"><path d="M133.25,544.8c-12.36,.34-23.87,1.91-33.6,4.34-.13,1.29-.31,2.57-.59,3.84-.39,1.78-.92,3.53-1.62,5.2-.66,1.58-23.16,12.88-29.31,14.32,1.82,12.06,30.12,20.24,67.43,19.37,35.92-.84,64.7-13.78,63.98-25.51-.78-12.56-30.97-22.53-66.29-21.56Z"></path><path d="M133.25,544.76c1.17-.44,12.67-1.14,25.88,.47,6.6,.77,13.59,2.12,19.84,4.01,6.25,1.87,11.72,4.37,15.3,6.92,1.58,1.11,3.11,2.4,4.41,4.04,1.29,1.62,2.33,3.67,2.55,5.98,.21,2.38-.62,4.68-1.77,6.52-1.16,1.86-2.64,3.39-4.21,4.75-3.16,2.71-6.72,4.76-10.39,6.53-3.67,1.78-7.49,3.2-11.37,4.44-15.52,4.92-32.03,6.43-47.42,6.19-11.23-.15-22.45-1.1-33.28-3.58-5.4-1.28-10.72-2.89-15.74-5.42-2.5-1.28-4.93-2.8-7.11-4.83-1.07-1.05-2.08-2.21-2.89-3.58-1.16-2.06-1.6-4.45-2.04-6.62,.87-.23,1.8-.45,2.67-.7l1.3-.37,1.06-.37c.81-.29,1.63-.6,2.45-.93,1.63-.65,3.26-1.34,4.87-2.05,3.21-1.42,6.36-2.89,9.42-4.39,1.53-.75,3.04-1.51,4.51-2.29,1.44-.77,2.96-1.58,4.12-2.37,.09-.06,.18-.11,.22-.2l.03-.06s.06-.15,.09-.22l.21-.53c.27-.71,.51-1.44,.73-2.17,.22-.73,.41-1.47,.52-2.22,.18-1.07,.36-2.13,.54-3.19,.06-.33,.1-.67,.18-.98l.98-.22c.65-.15,1.3-.29,1.94-.44,.81-.16,1.62-.32,2.42-.48,1.55-.29,3.09-.56,4.62-.78,3.05-.46,6.02-.81,8.93-1.06,5.8-.51,11.29-.66,16.39-.58-7.78,1.35-19.05,3.28-29.31,6.21-.64,.18-1.28,.37-1.91,.55-.18,.09-.3,.14-.39,.22l.02,.23v.11s.02,.05,.02,.05c0,.01,0,0,0,.03v.13c-.09,.69-.17,1.38-.25,2.06-.24,1.35-.56,2.67-.95,3.94-.1,.32-.21,.63-.31,.94l-.12,.32c-.05,.14-.1,.27-.17,.4l-.19,.38c-.13,.09-.16,.23-.25,.34-.17,.22-.35,.44-.55,.64-.2,.18-.46,.39-.63,.52-.28,.21-.56,.41-.81,.58-2.06,1.39-3.91,2.41-5.6,3.34-1.68,.9-3.17,1.64-4.4,2.2-3.08,1.4-6.15,2.73-9.2,3.98-1.53,.62-3.05,1.22-4.58,1.79l-1.16,.41-.58,.2c-.18,.06-.46,.15-.44,.14-.18,.04-.38,.08-.61,.12h-.06s0,.04,0,.06v.11c.01,.08,.02,.15,.05,.23,.03,.15,.09,.32,.17,.5,0,.02,.08,.14,.14,.25l.2,.32c.13,.21,.25,.43,.42,.62l.47,.61,.53,.58c1.44,1.53,3.26,2.83,5.18,3.94,3.87,2.21,8.15,3.76,12.42,5,8.59,2.44,17.31,3.65,25.77,4.29,8.47,.62,16.77,.68,24.75,.24,7.99-.48,15.69-1.56,23.02-3.24,7.31-1.69,14.28-3.95,20.55-7.03,3.12-1.54,6.07-3.32,8.59-5.43,1.26-1.05,2.38-2.21,3.27-3.45,.88-1.24,1.5-2.59,1.66-3.92,.33-2.67-1.35-5.34-3.54-7.33-2.19-2.05-4.88-3.61-7.59-4.97-5.5-2.64-11.27-4.39-16.91-5.73-5.83-1.38-13.92-2.84-21.14-3.6-7.21-.81-13.5-1-15.56-1.09Z"></path></g><g><g><path class="cls-1" d="M187.03,544.08s2.7,9.42,14.42,17.23c0,0,7.11,4.42,5.1,8.03,0,0-4.05,7.43-20.83,5.21,0,0-17.15-2.28-15.96-13.6l17.27-16.87Z"></path><path d="M187.06,544.1c-.16,1.03-10.93,11.52-14.83,15.83-.4,.44-.8,.89-1.21,1.34l-.13,.16c-.02,.07,0,.17,0,.25v.25c.01,.07,.04,.27,.05,.39,.1,1.16,.44,2.26,1.01,3.26,1.14,2,3.21,3.52,5.5,4.64,2.31,1.11,4.88,1.87,7.43,2.34,.66,.13,1.21,.19,1.89,.24,.65,.06,1.31,.11,1.96,.17,1.29,.03,2.58,.12,3.83,.02,2.49-.1,4.94-.46,7.14-1.24,1.11-.36,2.12-.88,3.04-1.46,.46-.29,.88-.62,1.25-.96,.19-.17,.36-.35,.52-.52,.15-.16,.32-.4,.34-.43,.1-.23,.15-.41,.05-.82-.08-.39-.39-.92-.76-1.42-.76-1.01-1.84-1.98-2.94-2.82-.6-.45-1.2-.89-1.8-1.33-.63-.46-1.25-.93-1.82-1.44-1.17-.97-2.25-2-3.26-3.05-4.02-4.23-6.72-8.88-7.82-13.27,1.66,2.44,4.19,5.41,6.86,7.9,2.63,2.51,5.32,4.53,6.66,5.71,.83,.79,1.67,1.44,2.58,2.18,1.01,.77,1.92,1.58,2.77,2.48,.84,.9,1.64,1.88,2.21,3.11l.2,.46,.15,.52c.11,.33,.14,.72,.17,1.09,.05,.37-.07,.77-.12,1.14-.1,.37-.28,.71-.43,1.06-.56,.84-1.11,1.33-1.73,1.87-.62,.5-1.26,.93-1.93,1.31-1.32,.77-2.73,1.25-4.12,1.67-2.8,.75-5.58,.98-8.27,.98-1.34-.07-2.66-.06-3.95-.22-.65-.06-1.29-.13-1.93-.19-.67-.09-1.29-.21-1.92-.34-2.49-.53-4.87-1.28-7.08-2.33-2.2-1.05-4.26-2.43-5.78-4.35-.76-.95-1.36-2.04-1.74-3.19-.17-.58-.32-1.16-.39-1.75-.06-.29-.06-.59-.08-.88l-.02-.44c0-.15,.02-.37,.02-.56l.03-.57v-.29s.02-.14,.02-.14c.02-.04,.07-.07,.1-.11l.82-.81c.37-.36,.73-.72,1.1-1.08,.73-.71,1.45-1.42,2.16-2.11,1.42-1.38,2.82-2.7,4.2-3.97,3.06-2.9,8.84-7.43,9.99-8.29Z"></path></g><path class="cls-2" d="M199.92,565.3c-.2,.13-1.13-.35-2.18-.95-1.06-.59-2.15-1.42-2.85-1.77-2.38-1.37-4.73-3.52-6.58-5.7-3.3-3.79-5.12-8.6-5.11-11.95,1.42,1.19,3.14,3.19,3.37,4.11,.88,3.74,2.94,6.6,5,8.72,2.11,2.13,4.25,3.59,5.97,5.07,.84,.67,2.13,2.13,2.37,2.46Z"></path><g class="cls-4"><path d="M198.71,569.87c-.1,.24-1.45,.53-3.04,.84-.4,.07-.8,.17-1.22,.21-.41,.03-.83,.06-1.22,.09-.79,.06-1.5,.13-2.02,.2-.91,.12-1.86,.06-2.83,.06-.98,.03-1.96-.16-2.95-.32-.49-.09-1-.15-1.49-.27-.48-.15-.97-.3-1.44-.44-.48-.15-.96-.29-1.43-.46-.45-.2-.9-.4-1.34-.6-3.1-1.4-5.78-3.59-7.68-5.97-1.91-2.38-3.12-4.87-3.62-7.02,.9,.69,1.98,1.61,2.93,2.49,.94,.88,1.79,1.67,2.1,2.21,1.26,2.16,2.96,3.89,4.78,5.18,.46,.31,.91,.65,1.38,.92,.49,.24,.96,.49,1.43,.72,.92,.52,1.93,.74,2.86,1.07,3.83,1.08,7.29,.9,10.29,.93,1.42-.07,3.98,.07,4.51,.15Z"></path></g><g><path class="cls-1" d="M167.24,458.37c-55.45-13.3-87.39,33.25-91.06,39.73-.24,.43-.95,1.14-.69,.72,1.53-2.42,1.12-1.46,1.21-1.92,0-.04,.15-.28,.23-.46,9.03-20.47,2.74-34.93-.11-40.09-1.07-1.81-1.71-2.37-3.68-1.62-18.69,6.91-21.32,26.79-21.32,26.79-16.54-16.93-43.47-12.54-43.51-12.55-4.14,.46-5.44,1.72-4.43,6.39,6.63,29.49,30.46,33.19,43.09,35.63,1.06,41.14,42.45,56.25,42.45,56.25,97.9,28.64,113.75-42.91,113.75-42.91,11.22-56.68-35.94-65.96-35.94-65.96Z"></path><path d="M167.24,458.34c.62,.04,2.52,.4,5.32,1.36,2.8,.96,6.52,2.53,10.58,5.07,4.06,2.53,8.42,6.12,12.21,10.9,1.86,2.41,3.56,5.09,5.04,8.01,1.4,2.95,2.58,6.1,3.44,9.4,1.67,6.62,2.09,13.73,1.58,20.7-.13,1.74-.36,3.47-.54,5.2-.25,1.72-.56,3.42-.83,5.12-.75,3.46-1.99,6.6-3.32,9.66-1.36,3.04-2.87,5.92-4.54,8.57-.8,1.35-1.71,2.6-2.55,3.85-.92,1.19-1.74,2.42-2.7,3.51-3.64,4.47-7.48,7.99-10.88,10.66-6.04,4.67-13,8.39-20.48,10.91-7.5,2.48-15.45,3.8-23.49,4.19-8.05,.38-16.18-.25-24.23-1.43-2.01-.33-4.03-.6-6.04-.99-2-.42-3.99-.85-5.99-1.27-2.01-.38-3.97-.96-5.95-1.47l-2.97-.78-1.49-.39-.37-.1c-.11-.02-.43-.14-.51-.17l-.75-.3c-3.89-1.61-7.54-3.56-11.08-5.76-3.52-2.21-6.9-4.66-10.05-7.4-6.29-5.45-11.73-12.02-15.51-19.48-1.89-3.72-3.37-7.65-4.4-11.68-.55-2-.9-4.05-1.23-6.09l-.38-3.07-.15-2.29s0-.07-.04-.06l-.43-.08-2.94-.58-2.95-.64-2.94-.74c-3.9-1.06-7.74-2.46-11.36-4.31-.9-.5-1.84-.93-2.71-1.49l-2.6-1.68c-1.63-1.27-3.33-2.47-4.77-3.98-1.56-1.38-2.82-3.03-4.15-4.62-.63-.82-1.16-1.71-1.74-2.56l-.85-1.29c-.29-.43-.49-.9-.74-1.35l-1.41-2.74c-.48-.91-.77-1.89-1.16-2.83-.35-.96-.77-1.89-1.07-2.86l-.81-2.93-.4-1.47-.2-.73-.16-.81c-.16-1.1-.37-2.24-.05-3.76,.14-.73,.53-1.6,1.12-2.26,.59-.68,1.32-1.12,1.96-1.39,1.3-.55,2.41-.68,3.46-.81l.62,.02c-.07-.03-.14-.05-.21-.06-.05-.01-.22,0-.09,0l.39-.05,.78-.09c.51-.05,1.03-.11,1.54-.14,1.03-.08,2.05-.14,3.08-.16,2.05-.07,4.09-.02,6.13,.09,4.07,.24,8.12,.86,12.08,1.88,3.96,.97,7.79,2.54,11.37,4.49l2.65,1.54,2.48,1.8,1.1,.81,.18,.17,.35,.32v-.04s.18-.56,.18-.56c.13-.45,.27-.9,.43-1.35,.59-1.79,1.34-3.51,2.16-5.19,1.66-3.35,3.81-6.48,6.41-9.17,2.6-2.69,5.62-4.96,8.92-6.65,.82-.42,1.68-.75,2.52-1.12l1.26-.54c.25-.09,.5-.18,.8-.26,.33-.09,.77-.17,1.18-.19,.83-.03,1.66,.2,2.32,.69,.34,.23,.63,.53,.9,.85,.22,.27,.38,.5,.53,.72,.28,.43,.53,.87,.73,1.27,.22,.41,.43,.82,.62,1.23,3.13,6.53,4.37,13.73,3.98,20.66-.18,3.47-.71,6.88-1.62,10.15-.38,1.66-.97,3.24-1.49,4.83-.25,.8-.61,1.56-.91,2.33l-.47,1.15-.24,.58-.12,.29-.03,.07h-.03s-.06,.02-.06,.02c-.08,.31-.14,.63-.3,.85l-.37,.5c-.17,.25-.34,.5-.51,.75l-.25,.39-.03,.05-.02,.02h0s0,.02,0,.02h0s0,0,0,0c.03,.02-.27-.17-.15-.09l-.02-.02c-.24-.17-.5-.32-.76-.46l-.2-.1s-.08-.05-.12-.07c-.08-.04-.18-.07-.26-.09-.01-.02-.04-.03-.06-.02-.03,.03,.02-.02,0-.03-.03-.01-.06-.14-.11-.2-.09-.1-.27-.38-.42-.53l-.54-.6c-.06-.06-.02-.01-.02-.03,.09-.08,.29-.33,.29-.34,1.37-2.32,2.88-4.37,4.44-6.4,1.56-2.02,3.18-3.96,4.87-5.81,3.35-3.73,6.94-7.12,10.68-10.22,7.47-6.19,15.63-11.05,24.03-14.37,8.41-3.3,17.05-5.01,25.32-5.27,8.28-.26,16.18,.78,23.41,2.64-7.01-1.28-15.62-2-24.77-1.09-9.14,.96-18.71,3.71-27.35,8.15-17.38,8.82-30.67,23.72-37.17,34.36-.41,.65-.58,.84-1.08,1.33l-.17,.14s-.05,.04-.2,.14l-.19,.11-.1,.05-.04,.02c-.07,.03-.14,.06-.22,.08-.16,.05-.34,.09-.54,.1-.39,.03-.83-.07-1.14-.24-.33-.18-.51-.34-.73-.61-.21-.27-.39-.65-.44-1.03-.03-.19-.03-.37-.01-.54,0-.08,.02-.16,.03-.23l.03-.13c.03-.12,.08-.23,.13-.35,.07-.14,.08-.17,.09-.19l.05-.09,.17-.27,.28-.43c.18-.28,.37-.56,.58-.87l.14-.19h0s0,0,0,0c.36-.87,.69-1.69,1.01-2.46,.28-.72,.61-1.37,.81-2.02,1.11-3.03,1.97-6.13,2.52-9.27,.5-3.14,.71-6.31,.53-9.46-.17-3.14-.72-6.24-1.63-9.22-.43-1.5-1.02-2.94-1.64-4.35-.32-.71-.66-1.39-1.01-2.05-.16-.29-.37-.62-.51-.8-.09-.13-.14-.17-.24-.22-.09-.05-.2-.05-.31-.03-.03,0-.2,.05-.34,.09-.15,.05-.31,.11-.49,.19l-2.12,.89c-.72,.26-1.38,.65-2.04,1.02-.65,.39-1.35,.7-1.96,1.15-2.55,1.65-4.77,3.73-6.72,6.03-1.95,2.3-3.51,4.91-4.78,7.64-.63,1.36-1.17,2.76-1.65,4.18l-.33,1.07c-.19,.6-.3,1.22-.45,1.83l-.21,.92-.17,.98-.32,1.93c-.06-.02-.11-.03-.17-.07l-.21-.19-.41-.38-.83-.76-1.65-1.52-1.63-1.5-1.17-.86c-.79-.56-1.54-1.17-2.35-1.7l-2.5-1.47c-3.41-1.81-7-3.27-10.74-4.19-3.73-.93-7.53-1.5-11.33-1.73-1.9-.11-3.8-.15-5.69-.09-.95,.02-1.89,.07-2.82,.14l-1.4,.12-.69,.08-.35,.04c-.15,.02-.44,.05-.65,.04h.28c-1.73,.19-3.46,.58-3.75,1.74-.2,.61-.19,1.44-.08,2.26,.05,.41,.14,.83,.22,1.25l.35,1.28c.86,3.43,1.98,6.79,3.55,9.9l1.18,2.33c.43,.76,.94,1.46,1.4,2.19l.71,1.08,.36,.54,.41,.5,1.64,1.99c.51,.69,1.18,1.24,1.78,1.85,.63,.58,1.19,1.24,1.87,1.75,1.34,1.06,2.64,2.16,4.11,3.04,1.39,.98,2.93,1.72,4.42,2.53,1.55,.68,3.07,1.43,4.68,1.97,3.16,1.2,6.43,2.07,9.72,2.78,.82,.19,1.65,.35,2.47,.52l2.67,.52,.86,.16,.43,.08,.21,.04c.08,0,.16,.02,.13,.11l.1,1.74,.15,2.63c.36,3.28,.87,6.53,1.75,9.68,.89,3.13,1.97,6.2,3.39,9.09,1.41,2.9,3.04,5.66,4.86,8.27,3.71,5.18,8.15,9.72,13.03,13.59,4.88,3.86,10.18,7.1,15.67,9.65,.69,.32,1.38,.62,2.07,.91,.32,.13,.75,.31,.98,.38l1.1,.29c1.47,.39,2.93,.78,4.39,1.16,1.47,.36,2.9,.82,4.38,1.11,1.47,.31,2.93,.63,4.39,.94,11.66,2.39,23.31,3.63,34.55,2.78,11.22-.74,22.07-3.49,31.42-8.57,9.39-5,17.18-12.23,22.87-20.57,1.46-2.06,2.71-4.24,3.92-6.42,1.16-2.21,2.23-4.44,3.15-6.72,.89-2.27,1.76-4.61,2.2-6.9,.42-2.4,.88-4.78,1.11-7.17,.08-.76,.19-1.53,.26-2.33,.05-.79,.1-1.6,.15-2.43,.15-1.65,.12-3.35,.13-5.11,.02-.88-.03-1.76-.09-2.65-.06-.89-.1-1.8-.17-2.71-.25-1.8-.4-3.66-.82-5.49-1.34-7.38-4.65-14.68-9.27-20.37-4.59-5.74-10.28-9.83-15.17-12.45-4.91-2.63-9-3.91-11.04-4.4Z"></path></g><path class="cls-2" d="M188.87,472.53c-.4-.01-2.52-1.88-5.23-3.69-2.72-1.79-6-3.47-7.94-4.15-3.39-1.25-7.11-2.28-10.93-2.94-3.82-.66-7.74-.96-11.45-.96-13.03,.02-25.65,3.06-33.85,5.55,1.54-1.27,4.08-2.7,6.58-3.79,2.5-1.1,4.97-1.87,6.3-2.07,10.75-1.64,20.27-2.05,28.63-1.09,4.17,.49,8.05,1.32,11.55,2.5,3.5,1.18,6.63,2.71,9.34,4.46,.64,.42,1.38,.95,2.13,1.51,.72,.61,1.46,1.26,2.14,1.87,1.33,1.26,2.36,2.45,2.71,2.82Z"></path><path class="cls-2" d="M58.08,540.35s12.27,20.78,42.12,22.17c0,0,16.42,4.1,37.25-15.47,0,0,37.11-35.38,54.16-2.23,0,0-20.77,38.21-84.56,26.26,0,0-35.3-5.08-48.98-30.73Z"></path><g class="cls-4"><path d="M166.66,562.8c-.2,.2-1.43,.99-3.36,1.91-1.91,.96-4.57,1.97-7.46,2.89-5.81,1.83-12.68,2.75-16.5,3.1-6.75,.7-14.07,.57-21.37-.21-3.65-.4-7.3-.96-10.88-1.69-.9-.18-1.79-.37-2.68-.58l-1.33-.32-.57-.15-.66-.14c-1.77-.38-3.53-.73-5.23-1.22-3.01-.76-5.93-1.81-8.79-2.93-2.82-1.23-5.6-2.51-8.19-4.09-5.21-3.06-9.82-6.85-13.59-11-3.79-4.15-6.76-8.63-8.95-13.05-2.18-4.42-3.67-8.72-4.37-12.71,1.32,3.42,3.62,8.07,6.24,12.18,2.58,4.13,5.47,7.64,6.94,9.52,5.9,7.64,13.54,13.14,21.38,16.69,3.93,1.79,7.92,3.11,11.85,4.11,.99,.22,1.97,.44,2.95,.66l.73,.16,.76,.19c.48,.12,.96,.24,1.44,.35,1.91,.45,3.82,.83,5.69,1.17,15.04,2.61,28.48,2.29,39.81,.12,2.69-.54,6.35-1.38,9.5-2.41,1.59-.48,3.01-1.06,4.19-1.5,1.15-.49,2.03-.86,2.46-1.05Z"></path></g><g><path class="cls-2" d="M143.21,490.33c-.79,5.31-5.68,8.56-10.71,9.14-1.35,.16-2.71,.04-4-.4-4.99-1.71-8.21-6.7-7.43-12.02,.89-6.01,6.56-10.14,12.67-9.24,6.11,.9,10.34,6.51,9.45,12.51Z"></path><path d="M143.19,490.32c-.12-.16-.04-.89-.16-1.95-.1-1.05-.38-2.44-1.02-3.78-.62-1.35-1.6-2.63-2.69-3.56-1.09-.94-2.27-1.52-3.14-1.8-3.05-1.07-6.75-.71-9.52,1.2-2.82,1.84-4.46,5.16-4.34,8.29,.05,2.73,1.33,5.36,3.33,7.1,.99,.88,2.14,1.57,3.35,2,1.17,.41,2.41,.53,3.67,.37,2.56-.28,4.94-1.25,6.73-2.68,1.81-1.42,2.92-3.34,3.41-5.24,.14,.9,.12,2.08-.26,3.31-.37,1.23-1.1,2.47-2.03,3.5-1.87,2.09-4.41,3.15-5.75,3.38-.68,.11-1.36,.19-2.04,.23-.69,.04-1.39,.02-2.07-.07-1.37-.16-2.66-.66-3.77-1.26-2.26-1.21-4.03-3.06-5.11-5.16-1.1-2.09-1.53-4.42-1.3-6.6,.19-2.19,1.04-4.23,2.26-5.89,2.49-3.32,6.51-4.97,10.15-4.73,3.67,.19,6.91,2.11,8.75,4.7,.93,1.2,1.7,3.18,1.85,4.94,.2,1.77-.2,3.24-.31,3.7Z"></path></g><g><path class="cls-2" d="M194.23,483.82c1.88,3.85,2.02,7.86,.62,10.27-.85,1.46-2.55,2.19-4.23,2.03-2.97-.27-5.95-2.65-7.91-6.68-2.49-5.11-1.93-10.5,1.25-12.06s7.78,1.33,10.27,6.44Z"></path><path d="M194.21,483.82c-.31-.08-1.24-1.91-2.89-3.51-.81-.81-1.78-1.55-2.75-2.03-.97-.49-1.92-.67-2.56-.62-1.14,.05-2.14,.62-2.76,1.53-.62,.93-.9,2.16-.91,3.43-.05,2.55,.88,5.16,2.18,7.3,1.14,1.86,2.65,3.47,4.39,4.29,.85,.4,1.8,.63,2.58,.56,.81-.07,1.56-.42,2.06-.96,.47-.53,.86-1.42,1.05-2.27,.2-.87,.27-1.78,.23-2.67-.05-1.78-.47-3.44-.95-4.88,1.11,.96,2.33,2.79,2.84,4.85,.26,1.02,.36,2.08,.28,3.02-.08,.94-.34,1.75-.63,2.26-.29,.5-.65,1.04-1.12,1.47-.45,.43-.97,.76-1.51,.99-1.08,.47-2.22,.58-3.27,.4-2.06-.35-3.72-1.44-4.99-2.69-1.28-1.26-2.25-2.7-3-4.16-.75-1.47-1.32-2.98-1.63-4.5-.3-1.53-.4-3.07-.13-4.56,.14-.74,.37-1.47,.72-2.15,.37-.67,.85-1.29,1.47-1.76,.63-.45,1.34-.78,2.08-.9,.73-.11,1.47-.1,2.14,.07,1.36,.3,2.49,.97,3.43,1.74,.92,.71,1.9,1.95,2.54,3.13,.67,1.17,1,2.27,1.11,2.62Z"></path></g><g><path class="cls-1" d="M86.57,551.54s3.81,6.66-9.68,13.01c0,0-13.21,5.28-17.2,9.78-1.22,1.37-1.08,3.46,.31,4.66,2.5,2.15,7.25,6.16,22.19,6.91,0,0,37.74,1.84,30.4-28.81"></path><path d="M112.62,557.09c.18,.2,.6,1.39,.98,3.21,.35,1.83,.62,4.3,.39,6.98-.24,2.67-1.09,5.51-2.47,7.79-1.36,2.29-3.07,4.05-4.39,5.15-2.29,2.03-5.12,3.52-8.09,4.67-2.99,1.11-6.16,1.86-9.36,2.31-1.61,.22-3.22,.37-4.84,.45-.82,.04-1.62,.06-2.46,.05-.81-.04-1.62-.08-2.43-.12-3.19-.2-6.36-.59-9.43-1.28-2.68-.63-5.36-1.52-7.85-2.93-1.24-.7-2.43-1.55-3.48-2.43-.26-.22-.47-.38-.89-.8-.35-.38-.65-.81-.88-1.27-.46-.93-.63-1.99-.5-3,.13-1.02,.58-1.99,1.24-2.75,.55-.57,1.06-1.09,1.61-1.52,1.08-.9,2.19-1.6,3.29-2.3,2.21-1.33,4.44-2.44,6.64-3.44,2.19-1,4.38-1.9,6.5-2.68,1.88-.85,3.83-1.75,5.42-2.89,1.61-1.11,3-2.4,3.86-3.88,.4-.74,.73-1.52,.81-2.31,.11-.77,.03-1.63-.21-2.26,.45,.44,.86,1.28,1.01,2.19,.17,.93,.05,1.99-.26,3.05-.67,2.12-2.2,4.06-3.88,5.57-.83,.8-1.74,1.43-2.61,2.05-.89,.6-1.8,1.1-2.64,1.59-1.68,.8-2.99,1.4-3.99,1.77-3.91,1.48-7.68,3.12-10.88,5.21-.8,.52-1.53,1.09-2.16,1.7-.56,.5-.79,1.1-.76,1.78,.02,.33,.11,.66,.27,.95,.18,.32,.35,.49,.75,.83,.69,.62,1.39,1.19,2.13,1.7,2.97,2.04,6.45,3.11,9.83,3.82,3.4,.67,6.81,.97,10.04,1.07,3.24,0,6.4-.35,9.38-.92,2.98-.58,5.8-1.42,8.34-2.57,5.14-2.22,9.01-5.96,10.72-10.4,.84-2.08,1.52-5.18,1.56-8.02,.06-.71,0-1.39,0-2.03-.03-.64-.01-1.25-.09-1.78-.11-1.08-.19-1.9-.23-2.31Z"></path></g><ellipse class="cls-2" cx="124.45" cy="545.95" rx="5.39" ry="4.33" transform="translate(-143.92 54.5) rotate(-15.8)"></ellipse><ellipse class="cls-2" cx="67.41" cy="530.84" rx="2.22" ry="2.76" transform="translate(-439.13 358.34) rotate(-63.96)"></ellipse><ellipse class="cls-2" cx="77.54" cy="544.34" rx="5.11" ry="6.37" transform="translate(-445.57 375.02) rotate(-63.96)"></ellipse><g><path d="M180.05,491.17s-11.93,8.53-29.19,4.3c0,0-.36,10.86,7.12,16.63,4.75,3.67,14.02,4.17,19.01-.97,4.32-5.01,4.02-12.11,3.06-19.97Z"></path><path d="M180.07,491.17c.2,.34,.84,3.78,.95,7.85,.05,2.03-.08,4.23-.55,6.19-.44,1.97-1.21,3.68-1.9,4.81-.28,.52-.66,.99-1.01,1.49-.42,.44-.86,.9-1.34,1.28-.95,.79-2.05,1.41-3.21,1.91-2.34,.94-4.93,1.34-7.49,1.13-2.56-.18-5.12-.9-7.37-2.29-2.2-1.46-3.93-3.39-5.21-5.51-1.11-1.86-1.9-3.87-2.43-5.91-.26-1.02-.47-2.05-.6-3.08-.07-.52-.13-1.03-.17-1.55l-.03-.41-.04-.74c-.02-.49,0-.95,0-1.43v-.7c-.03-.18,.12-.11,.23-.1l.34,.06c.46,.08,.91,.14,1.39,.25,.63,.13,1.26,.26,1.89,.4,.92,.23,1.86,.28,2.78,.43,.92,.16,1.84,.17,2.75,.24,.91,.09,1.81,.05,2.71,.06,7.14-.09,13.56-2.11,18.09-4.65-1.64,1.72-4.7,3.65-7.84,4.89-3.15,1.24-6.34,1.87-8.03,1.88-3.39,.11-6.66-.15-9.76-.74-.39-.05-.77-.17-1.15-.25l-.57-.13-.28-.07-.12-.03-.51-.14c-.06-.03-.05,.03-.05,.06v.12s-.01,.26-.01,.26v.27s.03,.54,.03,.54c.02,.36,.05,.72,.1,1.08,.08,.72,.18,1.43,.33,2.13,.54,2.79,1.58,5.41,3.1,7.59,.4,.52,.77,1.08,1.23,1.54l.66,.71,.73,.63c.95,.86,2.03,1.49,3.18,1.96,1.14,.46,2.32,.81,3.51,.97,1.18,.19,2.37,.24,3.52,.16,2.31-.13,4.5-.77,6.32-1.86,.48-.24,.86-.6,1.29-.89,.38-.35,.77-.66,1.1-1.04,.63-.78,1.19-1.64,1.63-2.53,.89-1.78,1.34-3.7,1.6-5.57,.25-1.78,.36-4.28,.34-6.5-.01-2.21-.12-4.14-.13-4.77Z"></path></g><g><path class="cls-2" d="M148.76,463.01s9.7-16.84,27.76-37.91c.87-1.08,2.66-.31,2.66,1.08,.05,8.63-1.47,35.28-5.89,47.64-.04,.11-.13,.18-.19,.28-.73,1.39-5.49,4.76-14.26,2.24-2.59-.74-5.04-2-6.99-3.87-2.16-2.08-4.29-5.32-3.11-9.47Z"></path><path d="M148.78,463.02c.11,.29-.31,1.69,.11,3.67,.38,1.97,1.88,4.31,4.13,6.09,2.24,1.79,5.17,2.89,7.95,3.36,2.76,.53,5.31,.36,6.99-.11,1.46-.4,2.96-1.1,3.89-2.09,.09-.11,.2-.24,.23-.31l.02-.03h.01s.06-.12,.06-.12l.07-.11s.02-.06,.04-.13l.33-1.18c.25-.8,.44-1.63,.63-2.47,.77-3.34,1.36-6.81,1.83-10.32,.95-7.02,1.55-14.18,1.91-20.97,.14-2.73,.26-5.46,.33-8.16l.04-2.02v-1.25s0,0,0,0c-.64,.75-1.28,1.5-1.91,2.24-.72,.84-1.43,1.68-2.12,2.53-1.41,1.67-2.78,3.35-4.12,5-2.67,3.31-5.24,6.54-7.63,9.67-4.79,6.25-9.02,12.03-12.39,16.97,1.12-3.37,3.38-8.05,5.79-12.3,2.41-4.25,4.98-8.09,6.54-9.94,2.41-2.91,4.81-5.69,7.14-8.41,1.18-1.35,2.34-2.68,3.48-3.98,1.2-1.35,2.38-2.68,3.54-3.99,.44-.51,.96-.84,1.58-.92,.61-.07,1.23,.11,1.72,.47,.48,.36,.85,.89,.95,1.5,.07,.29,.06,.62,.05,.93l-.02,.74c-.04,1.75-.12,3.47-.2,5.16-.17,3.39-.4,6.69-.64,9.9-.51,6.42-1.1,12.49-1.96,18.23-.41,2.87-.94,5.65-1.54,8.35-.34,1.34-.65,2.68-1.08,3.97l-.31,.99c-.05,.2-.19,.49-.32,.62l-.44-.29c.21,.11-.51-.28,.46,.25v.02s-.06,.08-.06,.08l-.1,.15c-.07,.11-.14,.2-.2,.28-.55,.64-1.14,1.07-1.76,1.45-2.5,1.44-5.27,1.82-7.83,1.69-2.58-.14-4.99-.7-7.24-1.62-1.32-.53-2.83-1.36-4.18-2.5-1.35-1.15-2.53-2.57-3.32-4.1-.78-1.53-1.1-3.13-1.02-4.39,.05-1.26,.39-2.16,.53-2.59Z"></path></g><g><path class="cls-1" d="M165.73,441.15s.23,7.3,10.45,9.96l.89-8.32c-5.38-1.57-7.25-8.08-7.25-8.08l-4.1,6.43Z"></path><path d="M165.72,441.14c-.01-.18,.59-1.24,1.38-2.56,.4-.66,.84-1.38,1.26-2.09,.25-.42,.5-.83,.75-1.22,.15-.24,.29-.48,.43-.71,.07-.12,.14-.23,.21-.35,.07-.09,.15-.28,.19-.26,.23,.66,.46,1.34,.66,1.75,.07,.15,.17,.37,.23,.47l.19,.34c.12,.23,.27,.45,.4,.68,.28,.45,.58,.89,.91,1.32,.65,.85,1.42,1.64,2.28,2.27,.43,.31,.88,.6,1.36,.81,.24,.12,.47,.23,.73,.3l.73,.26,.39,.14c.06,.08,0,.25,0,.38-.12,1.27-.24,2.52-.35,3.74-.09,.96-.19,1.91-.28,2.85-.07,.62-.13,1.24-.2,1.85l-.08,.7c-.01,.11-.02,.24-.04,.34l-.34-.1-1.34-.41-.77-.24c-.23-.06-.45-.15-.67-.25-.44-.19-.88-.37-1.31-.56-.41-.23-.83-.45-1.23-.67-.4-.23-.77-.51-1.15-.76-1.47-1.08-2.65-2.41-3.41-3.82-.75-1.42-1.15-2.85-1.15-4.18,.41,1.16,1.19,2.57,2.13,3.72,.95,1.15,1.99,2.02,2.54,2.5,.46,.47,1,.84,1.52,1.24,.56,.33,1.09,.7,1.68,.97,.58,.26,1.15,.56,1.75,.74,.37,.13,.39,.14,.57,.21,.22,.15,.16-.12,.2-.25,.08-.57,.15-1.12,.22-1.67,.07-.6,.14-1.2,.21-1.78,.13-1.17,.25-2.31,.37-3.41l.03-.26v-.12s-.05-.04-.08-.06l-.62-.21c-.51-.24-1.01-.47-1.46-.78-.91-.59-1.71-1.3-2.36-2.08-.66-.78-1.21-1.6-1.67-2.43-.11-.21-.23-.42-.33-.63l-.25-.52c-.11-.25-.16-.38-.22-.59,0-.08-.04,.04-.06,.05l-.07,.11-.15,.22c-.17,.25-.34,.49-.5,.74-.96,1.46-2.85,3.84-3.23,4.29Z"></path></g><g><path class="cls-1" d="M153.86,456.77s3.7,12.68,19.54,14.42l1.24-8.02c-13.86-2.8-15.33-14.86-15.33-14.86l-5.46,8.46Z"></path><path d="M153.85,456.77c.03-.22,.78-1.48,1.8-3.15,.52-.83,1.1-1.77,1.69-2.73,.32-.51,.65-1.03,.97-1.55,.21-.33,.41-.66,.62-.98l.31-.49c.1-.14,.23-.41,.27-.34,.09,.55,.19,1.1,.3,1.61,.06,.23,.12,.46,.19,.68l.09,.33,.08,.23c.2,.6,.43,1.12,.63,1.55,1.38,2.92,3.6,5.71,6.53,7.56l1.09,.69,1.17,.57c.76,.42,1.6,.65,2.4,.96,.4,.17,.82,.25,1.24,.35,.54,.13,1.07,.27,1.61,.4l.62,.16c.08,0,.02,.08,.03,.12l-.02,.16-.05,.31-.15,1.04c-.06,.43-.12,.86-.19,1.28-.22,1.48-.44,2.96-.66,4.42l-.25,1.6-.08,.55c-.14,.03-.35-.04-.53-.06l-1.06-.17c-.74-.12-1.49-.22-2.22-.37-2.92-.65-5.66-1.79-8-3.32-4.7-3.07-7.56-7.52-8.63-11.34,.86,1.6,2.3,3.71,3.93,5.44,1.61,1.74,3.35,3.1,4.26,3.81,.41,.38,.88,.67,1.33,.98,.45,.31,.9,.63,1.38,.87,.48,.26,.95,.51,1.43,.77,.5,.21,.99,.41,1.48,.61l.74,.3,.76,.22c.51,.15,1.01,.29,1.5,.44,.5,.14,1.01,.2,1.52,.3l.73,.13c.13,.02,.29,.07,.4,.06,.15-.89,.3-1.76,.45-2.63,.16-.98,.31-1.94,.47-2.89,.07-.47,.15-.94,.22-1.41l.07-.43-.41-.11c-.89-.24-1.82-.42-2.67-.78-3.46-1.21-6.42-3.25-8.47-5.79-1.04-1.25-1.89-2.6-2.51-3.99-.32-.69-.59-1.39-.82-2.1-.21-.64-.23-.8-.29-1.17v-.06s-.03,.03-.04,.04l-.06,.09-.12,.17c-.08,.12-.16,.23-.24,.34-.37,.53-.8,1.17-1.26,1.84-.49,.68-1,1.39-1.48,2.06-.96,1.3-1.81,2.44-2.09,2.83Z"></path></g><g class="cls-4"><path d="M98.29,579.62c-.06,.25-1.36,.82-2.9,1.44-.78,.27-1.64,.48-2.42,.71-.39,.11-.76,.23-1.1,.31-.34,.07-.65,.14-.91,.21-3.6,1.05-7.98,1.14-11.82,.73-6.78-.69-13-3.32-16.55-5.95,2.27-.11,5.89,.4,7.07,.97,4.7,2.4,9.38,3.33,13.46,3.4,4.1,.09,7.6-.53,10.62-1.14,.36-.08,.8-.12,1.25-.18,.45-.09,.92-.17,1.36-.24,.89-.14,1.69-.23,1.95-.25Z"></path></g><g class="cls-4"><path d="M8.57,478.38c.25,.15,.83,1.95,1.75,3.93,.92,1.98,2.17,4.12,3.03,5.2,.69,.99,1.56,1.91,2.36,2.89,.85,.94,1.76,1.86,2.66,2.78l1.45,1.28c.48,.43,.94,.88,1.48,1.23,.51,.38,1.03,.76,1.53,1.13,.5,.38,1,.75,1.55,1.05,.92,.55,1.84,1.11,2.75,1.65,.96,.46,1.91,.92,2.86,1.37,.92,.51,1.91,.82,2.86,1.19,.96,.35,1.87,.77,2.81,1.06,.94,.27,1.86,.54,2.76,.8,.9,.26,1.75,.59,2.62,.73,1.71,.36,3.29,.74,4.71,1.12-1.33,.41-3.3,.65-5.18,.73-.94,.08-1.83-.1-2.61-.19-.78-.12-1.43-.26-1.87-.41-6.95-2.65-12.59-5.84-16.89-9.6-4.3-3.72-7.37-7.8-9.13-11.79-.41-.95-.85-2.3-1.11-3.52-.26-1.22-.38-2.28-.38-2.63Z"></path></g><path class="cls-2" d="M47.6,483.12c-.26,.08-1.43-.71-2.76-1.64-.64-.49-1.4-.91-2.08-1.31-.68-.4-1.3-.75-1.76-.97-3.31-1.44-7.05-2.97-10.61-3.75-6.18-1.46-12.47-1.48-16.68-1.01,.7-.84,2.04-1.63,3.35-2.13,.66-.27,1.32-.44,1.9-.55,.58-.13,1.08-.16,1.43-.11,2.78,.31,5.31,.73,7.65,1.28,2.35,.49,4.49,1.14,6.48,1.8,3.97,1.38,7.3,3.03,9.84,5,1.23,.91,2.91,3.01,3.23,3.4Z"></path><path class="cls-2" d="M76.52,467.13c-.25-.09-.49-1.19-.99-2.4-.47-1.21-1.15-2.53-1.66-3.18l-.68-.87c-.13-.12-.22-.19-.31-.24l-.17,.11-.07,.05s-.04,.03-.15,.07c-.34,.16-.7,.27-1.03,.46-.64,.39-1.34,.67-1.92,1.13-.3,.21-.6,.42-.9,.62-.28,.23-.55,.47-.82,.7-3.74,3.25-5.95,7.89-7.29,11.06-.46-.83-.64-2.12-.59-3.3,.06-1.18,.36-2.26,.7-2.73,1.36-1.91,2.74-3.54,4.17-4.93,1.43-1.4,2.94-2.47,4.43-3.4,.39-.2,.77-.4,1.14-.59,.37-.2,.74-.39,1.13-.53,.47-.18,.94-.35,1.4-.53l.4-.14c.13-.04,.29-.14,.35,.04,.17,.22,.33,.44,.5,.66,.15,.21,.34,.49,.44,.66l.3,.48c.19,.32,.37,.64,.53,.96,.33,.64,.59,1.28,.79,1.92,.22,.6,.34,1.47,.38,2.24,.03,.77-.05,1.43-.07,1.64Z"></path><path class="cls-2" d="M116.57,468.62c-.07,.37-1.08,.35-1.41,.63-.59,.46-1.13,.74-1.48,1.11-.6,.59-1.29,1.35-2.2,1.9-.82-.65-1.12-1.73-.79-1.92,1.2-.72,1.96-1.28,2.75-1.73,.78-.43,1.55-.74,2.22-.62,.32,.02,.83,.51,.92,.62Z"></path></g></svg>