<svg xmlns="http://www.w3.org/2000/svg" id="halloween" viewBox="0 0 380 600"><defs><style>.cls-1{opacity:0.3;}.cls-2{fill:#7eed56;}.cls-3{fill:#00cc78;}.cls-4{fill:#fff;}.cls-5{fill:#ffd635;}</style></defs><g class="cls-1"><ellipse cx="60.55" cy="568.904" rx="53.051" ry="26.525"></ellipse><path d="M7.438,568.9a5.524,5.524,0,0,1-.193-2.4,13.916,13.916,0,0,1,1.424-4.953,22.035,22.035,0,0,1,4.253-5.78,35.426,35.426,0,0,1,6.67-5.145,65.279,65.279,0,0,1,16.383-6.841,112.576,112.576,0,0,1,14.232-2.9,98.645,98.645,0,0,1,20.163-.836,87.626,87.626,0,0,1,20.874,3.734c6.848,2.232,13.708,5.319,19.346,10.725a26.6,26.6,0,0,1,3.784,4.605,19.6,19.6,0,0,1,2.48,5.742,17.432,17.432,0,0,1,.377,6.39,18.671,18.671,0,0,1-1.829,5.973,26.378,26.378,0,0,1-6.3,7.893,41.562,41.562,0,0,1-7.811,5.353,69.2,69.2,0,0,1-16.882,6.22,100.916,100.916,0,0,1-33.622,1.82c-10.712-1.223-20.812-4.027-29.266-8.749a37.236,37.236,0,0,1-10.868-8.808,20.848,20.848,0,0,1-3.347-5.784,15.2,15.2,0,0,1-.949-6.265,16.356,16.356,0,0,0,2.309,5.425,20.953,20.953,0,0,0,4.279,4.635,41.214,41.214,0,0,0,11.7,6.313c8.4,3.08,16.814,4.2,21.155,5.156a93,93,0,0,0,26.255,1.819,72.588,72.588,0,0,0,24.127-5.679,38.477,38.477,0,0,0,9.88-6.177,17.473,17.473,0,0,0,5.733-9,12.789,12.789,0,0,0-2.038-9.771,25.853,25.853,0,0,0-7.49-7.172,59.085,59.085,0,0,0-18.929-7.588,95.558,95.558,0,0,0-19.165-2.294,108.827,108.827,0,0,0-18,1.056,90.528,90.528,0,0,0-16.294,3.8c-4.8,1.667-11.334,4.333-15.968,8.328a19.5,19.5,0,0,0-5.1,6.335A15.246,15.246,0,0,0,7.438,568.9Z"></path></g><path class="cls-2" d="M24.224,528.237C29.6,534.428,32.067,543.1,29,550.5s-12.44,12.565-20.683,10.231c5.208,6.542,15.83,8.85,23.685,5.147a17.621,17.621,0,0,0,1.184,17.893,61.74,61.74,0,0,1,22.142-20.536"></path><path d="M55.348,563.272c-.2.667-4.3,3.124-8.437,6.7a61.247,61.247,0,0,0-5.937,5.774c-.877.994-1.679,1.969-2.376,2.874l-.956,1.308-.978,1.435c-1.059,1.626-2.177,3.484-3.413,5.5l-.215-.1a.5.5,0,0,1-.109-.061l-.116-.167-.474-.676L31.4,584.48c-.315-.45-.612-.94-.911-1.441-.148-.254-.311-.488-.448-.764l-.4-.852a12.583,12.583,0,0,1-.748-1.82c-.126-.389-.176-.492-.246-.734l-.18-.643a17.909,17.909,0,0,1-.523-2.639,18.654,18.654,0,0,1-.155-2.72c-.012-.458.04-.914.067-1.373a6.326,6.326,0,0,1,.07-.686l.046-.343a.66.66,0,0,0,0-.072,2.614,2.614,0,0,1,.081-.673c-.2.094-.42.223-.569.276l-.11.045c-.064.01.136-.012-.037.012l-.288.045-.574.087c-.765.133-1.534.135-2.3.2a25.057,25.057,0,0,1-4.542-.287l-1.113-.185-1.095-.261a11.145,11.145,0,0,1-1.082-.294L15,568.918c-1.055-.439-2.037-.95-3.063-1.425-.925-.527-1.726-1.118-2.586-1.68-.675-.591-1.428-1.181-2.036-1.776L5.666,562.23l-5.7-6.449,8.28,1.835,1.841.4c.283.056.663.157.867.176l.479-.008,1.907-.033a9.858,9.858,0,0,0,1.811-.108,5.555,5.555,0,0,0,.793-.179l.4-.1a11.384,11.384,0,0,0,1.277-.4,17.1,17.1,0,0,0,4.648-2.561,15.449,15.449,0,0,0,3.483-3.731,14.479,14.479,0,0,0,1.922-4.536,19.425,19.425,0,0,0-.308-9.632,27.6,27.6,0,0,0-1.618-4.33,32.1,32.1,0,0,0-2.175-3.773,16.8,16.8,0,0,1,4.682,3.82,19.735,19.735,0,0,1,3.685,6.274,18.516,18.516,0,0,1,1.123,7.1,13.705,13.705,0,0,1-1.233,5.28,20.7,20.7,0,0,1-8.6,8.816,22.965,22.965,0,0,1-5.339,2.1l-.647.141-.281.041-.617.049a10.352,10.352,0,0,1-1.364,0,11.753,11.753,0,0,1-2.464-.4,5.693,5.693,0,0,0,1.3,1.493,9.69,9.69,0,0,0,1.866,1.241c.346.166.7.329,1.059.473l.7.246a6.746,6.746,0,0,0,.855.262,19.966,19.966,0,0,0,6.914.674,6.392,6.392,0,0,0,.842-.089l.891-.129c.837-.166,1.676-.463,2.514-.69.863-.3,1.758-.67,2.638-1l1.241-.531.622-.266.312-.134.155-.066a.374.374,0,0,1,.073.011l-.81,1.79c-.267.638-.559,1.279-.81,1.918A17.884,17.884,0,0,0,31.73,570.9l-.092.626c-.03.187-.032.377-.05.564a10.575,10.575,0,0,0-.052,1.123,10.065,10.065,0,0,0,.025,1.113,9.78,9.78,0,0,0,.1,1.1,10.184,10.184,0,0,0,.17,1.077,10.378,10.378,0,0,0,.239,1.054l.137.517.124.366a5.173,5.173,0,0,0,.2.51,6.826,6.826,0,0,0,.478.939,4.551,4.551,0,0,0,.271.423l.14.2.035.049.036-.057.071-.113c.32-.52.639-1,.965-1.443l.3-.395c.189-.254.383-.5.583-.745.4-.485.783-.979,1.194-1.442a48.64,48.64,0,0,1,5.07-5.105,40.938,40.938,0,0,1,7.637-5.235A48.658,48.658,0,0,1,55.348,563.272Z"></path><path class="cls-2" d="M92.382,531.811c2.8,15.769,15.462,9.439,19.522,7.949-3.7,12.447-18.456,20.086-29.755,12.131"></path><path d="M82.175,551.854c.511-.281,2.573.956,5.18,1.59a13.547,13.547,0,0,0,7.221.007,22.894,22.894,0,0,0,7.819-4.281c.543-.534,1.122-1.018,1.644-1.559.482-.583,1.033-1.093,1.462-1.7l.625-.863c.065-.1.036-.092.043-.129,0-.053-.017-.083-.048-.1a.152.152,0,0,0-.145.042c-.012.011.006,0,.009-.023a.045.045,0,0,0-.011-.037l-.01-.01c-.016,0,.055-.02-.181.02-.332.054-.659.109-1,.142a15.014,15.014,0,0,1-4.128-.063,10.764,10.764,0,0,1-3.964-1.47,10.065,10.065,0,0,1-2.882-2.737,12.6,12.6,0,0,1-1.532-3.11,16.7,16.7,0,0,1-.737-5.614c1.5,1.475,3.172,3.527,4.74,4.8a27.68,27.68,0,0,0,3.394,2.108,7.3,7.3,0,0,0,5.1,1.248l.184-.01a.547.547,0,0,0,.141-.018l.162-.028.638-.112c.419-.061.837-.184,1.242-.273.817-.207,1.62-.454,2.393-.692,1.54-.463,2.908-.906,4.19-1.336a1.327,1.327,0,0,0,.112.293c.013.053.07.054.048.147l-.149.373-.575,1.456c-.189.472-.36.953-.551,1.4l-.579,1.287q-.28.635-.558,1.259c-.221.415-.49.827-.727,1.236a18.368,18.368,0,0,1-1.524,2.366,24.211,24.211,0,0,1-6,5.79,20.685,20.685,0,0,1-7.012,3.123,15.01,15.01,0,0,1-1.808.29l-.893.108c-.3.02-.6,0-.891,0-.59-.014-1.173-.021-1.743-.064q-.854-.146-1.672-.316a8.589,8.589,0,0,1-2.273-.785,11.022,11.022,0,0,1-2.215-1.344,9.724,9.724,0,0,1-1.654-1.459C82.63,552.361,82.322,552.025,82.175,551.854Z"></path><path class="cls-2" d="M31.354,537.958c-8.19-5.492-9.621-15.946-8.751-25.558,1.689-18.655,19.578-34.676,38.911-34.536s37.08,16.7,37.631,35.42c.31,10.541-4.139,20.933-2.96,31.416,1.266,11.258,9.56,21.5,20.546,25.371a35.3,35.3,0,0,1-29.1-6.488,51.217,51.217,0,0,0,.158,25.678c-9.814-3.278-21.552-10.407-24.934-20.834-5.919,4.791-9.115,11.913-12.692,20.549-7.78-4.356-8.553-14.6-8.6-23.307-.051-9.575.442-8.959-2.8-14.777"></path><path d="M38.8,550.87a17.571,17.571,0,0,1,2.363,3.816,11.313,11.313,0,0,1,.925,4.276c.094,1.626.1,3.4.145,5.32A64.82,64.82,0,0,0,43.384,577a20.767,20.767,0,0,0,2.488,6.44l.462.737.534.683a5.723,5.723,0,0,0,.558.663l.439.448c.291.3.64.531.954.8l.522.325.26.161.129.08c.04.015.045-.08.069-.114l.8-1.979.561-1.331.646-1.481c.876-1.968,1.806-3.9,2.842-5.752a38.342,38.342,0,0,1,3.46-5.2l.486-.588c.178-.224.422-.5.653-.735.47-.475.915-1,1.4-1.428s.941-.88,1.436-1.306l.731-.64.363-.319a1.093,1.093,0,0,1,.09-.074h.067l.133,0c2.33,6.253,4.027,7.931,6.074,10.1A39.555,39.555,0,0,0,78.3,583c.8.469,1.641.882,2.475,1.307.414.218.849.4,1.273.6.393.178.961.451,1.084.485l.641.251.495.168c.155.054.309.1.46.142l.223.064c.065.012.185.085.116-.049-.115-.373-.213-.729-.3-1.069l-.116-.5-.1-.566-.131-.826a52.906,52.906,0,0,1-.232-13.47l.105-.846.053-.423c.018-.143.028-.254.076-.51.16-.891.3-1.771.478-2.681l.616-2.779.323-1.407.161-.706a3.346,3.346,0,0,1,.181-.635c1.034.746,2.048,1.513,3.114,2.254l1.6,1.115a14.84,14.84,0,0,0,1.579,1.022,30.016,30.016,0,0,0,3.487,1.722,33.646,33.646,0,0,0,7.474,2.166c.638.117,1.286.175,1.928.268.322.041.646.052.969.081l.141,0a4.17,4.17,0,0,0,.516-.038,2.7,2.7,0,0,0,.417-.092l.09-.03c.056-.006-.062-.029-.083-.043-.087-.031-.171-.059-.248-.094a4.067,4.067,0,0,1-.421-.2c-.06-.036-.12-.065-.172-.1l-.04-.025-.378-.287c-.3-.227-.6-.451-.878-.7a35.19,35.19,0,0,1-6.053-6.523A32.573,32.573,0,0,1,93.2,543.767a53.427,53.427,0,0,1,.817-12.9c.668-4.11,1.465-8.047,1.877-11.883a45.735,45.735,0,0,0,.247-5.646l-.238-2.72c-.091-.905-.339-1.79-.494-2.686A33.233,33.233,0,0,0,91.2,497.873a36.05,36.05,0,0,0-7.145-8.255,36.68,36.68,0,0,0-9.059-5.852,37.075,37.075,0,0,0-10.129-2.932,36,36,0,0,0-10.308.38,38.628,38.628,0,0,0-9.63,3.332,41.159,41.159,0,0,0-8.282,5.615,41.907,41.907,0,0,0-6.474,7.273,38.6,38.6,0,0,0-4.252,8.38,36.171,36.171,0,0,0-1.782,8.91,40.316,40.316,0,0,0,.2,8.806,23.331,23.331,0,0,0,2.445,7.857,17.536,17.536,0,0,0,5.05,5.862,16.366,16.366,0,0,1-5.909-4.982,23.331,23.331,0,0,1-3.838-8.4,41.157,41.157,0,0,1-1.141-10.012c-.035-1.7.194-3.47.337-5.234l.508-2.6a17.927,17.927,0,0,1,.674-2.556,37.431,37.431,0,0,1,4.3-9.379l1.389-2.062c.443-.694,1-1.281,1.493-1.913.517-.607.98-1.253,1.528-1.8l1.6-1.634a37.753,37.753,0,0,1,12.091-8.111,39.621,39.621,0,0,1,19.726-2.884,19.169,19.169,0,0,1,2.435.377c.8.164,1.614.278,2.4.485l2.337.681c.386.12.779.215,1.157.354l1.123.445,2.233.888,2.133,1.077a42.278,42.278,0,0,1,16.8,15.642,36.07,36.07,0,0,1,5.259,16.967c.253,5.9-.982,11.475-1.944,16.83-.985,5.349-1.773,10.637-1.091,15.708a28.394,28.394,0,0,0,5.838,13.707,31.45,31.45,0,0,0,5.158,5.249c.4.3,1.167.933,1.934,1.4l2.464,1.438c2.051.961,4.255,1.926,6.53,2.861-.3.341.05.5.16.722.62.226-.879.386-1.653.57-1.772.346-3.456.6-5.182.831-.912.068-1.818.15-2.753.192-.973-.012-1.933.019-2.918-.028-1.112-.09-1.7-.106-2.443-.219-.718-.1-1.44-.175-2.147-.325a37.265,37.265,0,0,1-8.2-2.486,35.239,35.239,0,0,1-3.758-1.9,18.7,18.7,0,0,1-1.8-1.19c-.025-.01-.069-.069-.08-.038l-.024.111-.049.223-.1.441-.167.876-.153.965-.2,1.565a49.889,49.889,0,0,0,.157,12.534l.277,1.752q.247,1.2.493,2.389c.377,1.622.786,3.25,1.189,4.828a.761.761,0,0,1-.224.029l-.384-.135-.768-.268-1.536-.538-3.016-1.115-2.782-1.187c-.667-.324-1.339-.631-2-.967a49.373,49.373,0,0,1-7.448-4.637,35.357,35.357,0,0,1-6.261-6.021c-.444-.573-.862-1.167-1.291-1.748-.4-.6-.765-1.233-1.145-1.847a2.455,2.455,0,0,1-.171-.305l-.1-.208-.2-.416c-.126-.278-.216-.558-.326-.837-.023-.025-.022-.139-.064-.09l-.11.094-.22.186c-.151.121-.285.261-.426.391s-.274.272-.407.412l-.2.211-.306.358a33.759,33.759,0,0,0-2.871,3.942,73.521,73.521,0,0,0-4.487,8.7L50.9,591.083l-.162,0c-.053,0-.135-.079-.2-.116l-.422-.277-.85-.561c-.585-.361-1.1-.8-1.654-1.21a9.352,9.352,0,0,1-1.583-1.428c-.286-.31-.454-.481-.629-.7l-.487-.667a19.051,19.051,0,0,1-2.811-6,44.228,44.228,0,0,1-1.235-12.724c.046-2.014.138-3.934.217-5.726a31.493,31.493,0,0,0-.006-4.887,12.387,12.387,0,0,0-1.174-3.63Z"></path><g class="cls-1"><path d="M47.924,582.313c-.262-.062-.865-.81-1.478-2.073a17.516,17.516,0,0,1-1.517-5.044c-.66-4.026.2-8.563.342-10.942.058-1.059.134-2.125.1-3.13.011-.514-.056-.988-.085-1.474Q45.2,558.828,45.1,558a35.493,35.493,0,0,0-1.21-6.327c-1.165-3.9-3.84-7.253-6.8-10.416a78.293,78.293,0,0,1-7.73-9,25.006,25.006,0,0,1-2.919-5.5,22.52,22.52,0,0,1-1.1-11.618,21.354,21.354,0,0,1,1.459-5.071,19.787,19.787,0,0,1,5.258-7.356,48.98,48.98,0,0,0-1.468,8.822c-.206,2.934.069,5.487-.093,6.847a15.905,15.905,0,0,0,.013,4.119,17.891,17.891,0,0,0,.371,2.009,17.352,17.352,0,0,0,.644,1.927,27.712,27.712,0,0,0,4.265,7.008c3.4,4.29,7.3,7.994,9.793,12.54a25.512,25.512,0,0,1,1.583,3.483,25.139,25.139,0,0,1,.947,3.572,47.35,47.35,0,0,1,.716,6.829,32.019,32.019,0,0,1-.715,6.459c-.356,1.951-.676,3.763-.845,5.512a35.13,35.13,0,0,0-.113,5.993,12.463,12.463,0,0,0,.173,1.486c.081.466.125.918.217,1.306C47.722,581.407,47.857,582.011,47.924,582.313Z"></path></g><g class="cls-1"><path d="M81.729,582.123c-.206.233-1.1-.012-2.041-.491-.949-.463-1.929-1.132-2.558-1.412a19.234,19.234,0,0,1-5.867-4.726,17.564,17.564,0,0,1-3.291-5.3,11.826,11.826,0,0,1-.868-5.132c1.931.749,3.817,2.144,3.913,2.947a11.859,11.859,0,0,0,1.424,4.351,14.918,14.918,0,0,0,2.454,3.186c1.779,1.8,3.633,2.953,4.988,4.245a8.253,8.253,0,0,1,1.073,1.272C81.307,581.528,81.629,581.961,81.729,582.123Z"></path></g><g class="cls-1"><path d="M16.929,563.408c.2-.463,1.463-.539,2.888-.821a12.746,12.746,0,0,0,3.8-1.191c1.4-.858,2.828-1.72,4.128-2.661a13.726,13.726,0,0,0,3.214-3.027,17.1,17.1,0,0,0,.967-1.518c.316-.523.574-1.055.824-1.578a15.317,15.317,0,0,0,1.069-3.177,23.83,23.83,0,0,0,.334-6.452,6.539,6.539,0,0,1,4.018,2.328,4.477,4.477,0,0,1,1.238,3.462,23.4,23.4,0,0,1-3.573,7.331,25.053,25.053,0,0,1-2.187,2.673,22.135,22.135,0,0,1-2.411,2.128c-3.278,2.445-6.7,3.964-9.87,3.99a6.711,6.711,0,0,1-2.66-.547A8.8,8.8,0,0,1,16.929,563.408Z"></path></g><path class="cls-3" d="M47.7,490.161c-1.881,1.949-6.8,5.063-2.8,7.632,5.417,2.356,10.55-6.649,2.486-7.339a1,1,0,0,1,.446.9"></path><path class="cls-3" d="M47.8,491.356c-.1-.034-.175-.142-.279-.259s-.258-.255-.35-.238l.253-.861a6.564,6.564,0,0,1,2.485.327,4.72,4.72,0,0,1,2.151,1.475,3.747,3.747,0,0,1,.828,2.65,5.464,5.464,0,0,1-.876,2.632,6.616,6.616,0,0,1-4.565,2.99,5.863,5.863,0,0,1-2.485-.146,5.153,5.153,0,0,1-.619-.207l-.407-.155-.331-.245a5.224,5.224,0,0,1-.972-.84c-.153-.172-.3-.341-.441-.523-.136-.225-.262-.458-.376-.693a2.793,2.793,0,0,1-.246-.764,2.744,2.744,0,0,1-.086-.8,4.219,4.219,0,0,1,.862-2.484,8.745,8.745,0,0,1,2.614-2.267,22.547,22.547,0,0,1,2.329-1.179,7.261,7.261,0,0,1-.552,3.218,4.167,4.167,0,0,1-.98,1.809c-.179.1-.284.179-.438.277-.113.086-.23.178-.322.262a1.573,1.573,0,0,0-.2.218.422.422,0,0,0-.111.236c-.05.1.026.194.021.316a2.95,2.95,0,0,0,.2.379,3.226,3.226,0,0,0,.335.369.67.67,0,0,0,.295.227,3.32,3.32,0,0,0,3.642-.577,3.548,3.548,0,0,0,1.327-2.847,2.338,2.338,0,0,0-1.373-1.774c-.443-.246-1.211-.714-1.782-1.046l.21-.716a.987.987,0,0,1,.35.835A.944.944,0,0,1,47.8,491.356Z"></path><path class="cls-3" d="M58.02,500.928c-4.965,2.539-3.3,4.734.387,7.149,1.962,1.718,4.466-1.695,5.657-3.355,2.737-6.009-3.68-6.014-6.845-2.982"></path><path class="cls-3" d="M57.2,501.718c-.129-.28.633-1.292,1.917-1.944a7.51,7.51,0,0,1,4.032-.88c.243.034.494.078.749.132a8.228,8.228,0,0,1,.773.353,6.137,6.137,0,0,1,.7.606,6.207,6.207,0,0,1,.508.805,5.424,5.424,0,0,1,.189,3.251c-.047.249-.129.457-.195.688s-.134.424-.259.781a4.116,4.116,0,0,1-.286.456l-.167.262-.35.525a14.457,14.457,0,0,1-1.668,2.058A5.969,5.969,0,0,1,60.8,510.34a3.416,3.416,0,0,1-.919.185,3.5,3.5,0,0,1-1.036-.061,4.1,4.1,0,0,1-.981-.353,6.5,6.5,0,0,1-.767-.539l.22.167a14.465,14.465,0,0,1-2.456-2.067c-.192-.213-.38-.449-.56-.68a6.2,6.2,0,0,1-.5-.831l-.212-.472c-.061-.182-.112-.382-.156-.571a3.279,3.279,0,0,1,.853-3.015,4.538,4.538,0,0,1,1.225-.918,7.706,7.706,0,0,1,2.25-.763c-.32,1.1-.979,2.316-1.1,3.162a.516.516,0,0,0-.007.269c.017.071,0,.151.034.184a.343.343,0,0,0,.177.115c.08.028.089-.027.055.064a2.341,2.341,0,0,0,.633,1.491,10.763,10.763,0,0,0,1.435,1.486l.117.089c.143.152.263.3.436.331a1.115,1.115,0,0,0,.693-.09,4.632,4.632,0,0,0,1.545-1.158,12.983,12.983,0,0,0,1.258-1.589l.256-.385a1.219,1.219,0,0,0,.123-.326,5.334,5.334,0,0,0,.244-.848,2.869,2.869,0,0,0,.006-1.428.947.947,0,0,0-.573-.686c-.109-.1-.33-.1-.483-.177-.209,0-.386-.072-.607-.059a6.944,6.944,0,0,0-1.308.083c-.511.071-1.252.175-1.958.313S57.424,501.654,57.2,501.718Z"></path><path class="cls-3" d="M68.163,499.14c4.379,5.728,8.2,8.157,9.96-.268-1.2-3.723-10.142-2.228-10.038,1.138"></path><path class="cls-3" d="M68.054,500.011c-.144-.044-.3-.392-.189-.919a2.983,2.983,0,0,1,1.048-1.579,10.591,10.591,0,0,1,3.39-1.686,7.513,7.513,0,0,1,2.4-.482,6.255,6.255,0,0,1,2.784.5,4.952,4.952,0,0,1,.727.409,4.489,4.489,0,0,1,.778.683,4.169,4.169,0,0,1,.947,1.806l-.037.5-.106.523-.148.74c-.06.388-.2.794-.3,1.186a6.26,6.26,0,0,1-.362,1.046,6.085,6.085,0,0,1-.523,1.066,5.018,5.018,0,0,1-.8,1.072,6.921,6.921,0,0,1-.529.511c-.23.158-.469.307-.712.442a2.645,2.645,0,0,1-.8.3,3.073,3.073,0,0,1-.849.139c-.275,0-.55-.017-.819-.044a3.948,3.948,0,0,1-.7-.181,5.956,5.956,0,0,1-2.042-1.185,11.449,11.449,0,0,1-2.271-2.763,14.412,14.412,0,0,1-1.233-2.619,11.645,11.645,0,0,1,3.3.875,4.825,4.825,0,0,1,1.952,1.163,3.873,3.873,0,0,0,1.45,1.535.651.651,0,0,0,.331.09l.177.017.181-.068a1.058,1.058,0,0,0,.2-.072l.191-.15a1.329,1.329,0,0,0,.375-.364c.112-.15.238-.285.341-.45s.185-.352.277-.525a7.092,7.092,0,0,0,.442-1.11,4.076,4.076,0,0,0,.168-.571l.116-.5.071-.357a1.588,1.588,0,0,0-.173-.317,1.645,1.645,0,0,0-.53-.462,3.6,3.6,0,0,0-.818-.319,6.527,6.527,0,0,0-1.817-.144,14.191,14.191,0,0,0-3.316.64A11.407,11.407,0,0,0,69,499,2.07,2.07,0,0,0,68.054,500.011Z"></path><path class="cls-3" d="M65.906,511.674c-5.1,11.48,19.292-1.88-.285.054"></path><path class="cls-3" d="M65.618,511.7c.057-.316.885-.546,1.863-.726,1-.167,2.063-.268,2.829-.385.381-.039.792-.066,1.226-.084.435.037.895.111,1.372.187a2.955,2.955,0,0,1,1.946,1.539c.718,1.7-.621,3.375-2.468,4.58a9.227,9.227,0,0,1-1.7.9,8.971,8.971,0,0,1-1.7.489,6.4,6.4,0,0,1-1.912.072,6.1,6.1,0,0,1-1.17-.281,3.556,3.556,0,0,1-1.075-.639,3.189,3.189,0,0,1-1.074-2.025c-.01-.369.009-.725.02-1.061a7.88,7.88,0,0,1,.225-.766,6.2,6.2,0,0,1,.639-1.187,10.8,10.8,0,0,1,.752-.87,10.957,10.957,0,0,1,.683,1.361c.232.439.383.872.59,1.173a2.516,2.516,0,0,0,.252.367.639.639,0,0,0,.2.047c.1-.012.1-.045.046.006-.207.219-.237.564.431.716a3.978,3.978,0,0,0,1.864-.03,5.8,5.8,0,0,0,.9-.277l.4-.176c.113-.054.187-.1.28-.15a2.334,2.334,0,0,0,.831-.766.563.563,0,0,0-.225-.854,2.45,2.45,0,0,0-.916-.169c-.33-.009-.646-.018-.951-.025-.477-.006-.929-.06-1.389-.1A10.7,10.7,0,0,1,65.618,511.7Z"></path><path class="cls-3" d="M60.74,483.507c-5.939,4.527-7.232,5.69-.751,10.5,2.015.795,4.789-2.381,5.746-4.945-.921-2.776-3.914-6.11-6.644-4.7"></path><path class="cls-3" d="M59.077,484.336c-.006-.082.059-.183.192-.3a1.511,1.511,0,0,1,.607-.34,3.313,3.313,0,0,1,2.128.062,9.334,9.334,0,0,1,3.467,2.585,8.7,8.7,0,0,1,.867,1.047c.072.094.127.19.2.3.083.149.176.3.248.456.142.309.309.631.435.96l-.331,1c-.054.159-.152.375-.2.5s-.091.226-.141.338a10.317,10.317,0,0,1-.672,1.3,10.131,10.131,0,0,1-1.922,2.349,6.584,6.584,0,0,1-1.429.974,4.116,4.116,0,0,1-2.2.455,4.2,4.2,0,0,1-1.021-.188,3.555,3.555,0,0,1-.882-.541c-.347-.256-.614-.441-.92-.684l-.878-.724-.856-.813a7.618,7.618,0,0,1-1.554-2.231,4.169,4.169,0,0,1-.367-1.69,4.844,4.844,0,0,1,.107-.911c.085-.273.183-.541.289-.8a6,6,0,0,1,1.619-1.907,11.6,11.6,0,0,1,1.6-1.09,20.437,20.437,0,0,1,2.928-1.393,11.784,11.784,0,0,1-1.269,3.53,7.328,7.328,0,0,1-1.291,2.022,3.189,3.189,0,0,0-.582.418.924.924,0,0,0,.063.866,7.553,7.553,0,0,0,1.744,2.257c.329.337.773.7,1.063.949a.859.859,0,0,0,.819.228,3.817,3.817,0,0,0,1.875-1.231,9.109,9.109,0,0,0,1.363-1.962,5.646,5.646,0,0,0,.379-.862c.009-.1.1-.188.037-.279s-.083-.179-.133-.259c-.032-.038-.111-.224-.2-.366s-.165-.3-.262-.436c-.18-.285-.373-.552-.564-.813a11.417,11.417,0,0,0-1.221-1.364,7.054,7.054,0,0,0-1.549-1.17A3.177,3.177,0,0,0,59.077,484.336Z"></path><path class="cls-3" d="M71.587,484.611c-7.116,10.264,16.549,7.587-1.093-1.007"></path><path class="cls-3" d="M70.508,483.577c.215-.237,1.068.012,2.023.4s1.991.949,2.639,1.2c.285.117.574.246.864.386.286.156.569.345.856.534a8.726,8.726,0,0,1,.838.715,6.564,6.564,0,0,1,.438.56,2.749,2.749,0,0,1,.382.667,3.2,3.2,0,0,1-.149,3.132,4.558,4.558,0,0,1-2.577,1.8,6.447,6.447,0,0,1-4.093-.154,4.8,4.8,0,0,1-3.032-3.163,4.523,4.523,0,0,1,.643-3.553,7.074,7.074,0,0,1,.858-1.067,11.149,11.149,0,0,1,.921-.748,11.276,11.276,0,0,1,.4,1.493c.144.491.206.947.338,1.319.178.792.485,1.047.325,1.2a.873.873,0,0,0,.031,1.16,2.6,2.6,0,0,0,1.486.864,3.413,3.413,0,0,0,1.718-.042,1,1,0,0,0,.482-1.79,7.062,7.062,0,0,0-1.065-.959c-.8-.6-1.632-1.126-2.367-1.714A11.691,11.691,0,0,1,70.508,483.577Z"></path><path class="cls-4" d="M49.133,487.025c-.041-.25.386-.753,1.134-1.391.4-.274.875-.582,1.41-.9.561-.248,1.166-.561,1.823-.782a26.417,26.417,0,0,1,7.586-1.143,25.135,25.135,0,0,1,9.7,1.527,38.03,38.03,0,0,1,8.911,4.6,27.789,27.789,0,0,1,10.406,12.882,17.774,17.774,0,0,1,1.089,7.52,14.554,14.554,0,0,1-1.871,6.051c-.683-1.965-1.369-4.215-2.193-6.02-.377-.912-.814-1.729-1.094-2.443a6.577,6.577,0,0,1-.61-1.776,15.187,15.187,0,0,0-1.709-5.4,21,21,0,0,0-3.2-4.557,27.742,27.742,0,0,0-8.253-6.11,33,33,0,0,0-8.518-2.757,32.575,32.575,0,0,0-7.56-.44c-1.11.054-2.613.167-4.021.363A27.071,27.071,0,0,0,49.133,487.025Z"></path><path class="cls-4" d="M95.518,560.374c-.38.236-1.242-.294-2-1.135-.794-.815-1.489-1.882-2.041-2.4-1.981-1.859-3.062-4.623-3.889-7.046a17.019,17.019,0,0,1,.075-11.629c2.618.929,4.675,3.022,4.371,3.907a12.916,12.916,0,0,0,.165,9.06c.923,2.471,2.271,4.246,2.88,6.029a6.042,6.042,0,0,1,.306,1.738C95.467,559.521,95.514,560.151,95.518,560.374Z"></path><path class="cls-5" d="M57.486,528.3A19.957,19.957,0,0,0,44.6,522.977c-2.3-.072-4.771.333-6.457,1.9-1.861,1.731-2.361,4.519-2.1,7.047a13.664,13.664,0,0,0,8.037,11.133A11.528,11.528,0,0,0,57.154,539.9c2.993-3.76,2.77-9.824-.758-13.088"></path><path d="M56.413,526.8a4,4,0,0,1,1.551,1.407,9.474,9.474,0,0,1,1.661,4.038,11.16,11.16,0,0,1-.374,5.071,10.736,10.736,0,0,1-2.043,3.734,12.134,12.134,0,0,1-11.143,3.941,12.72,12.72,0,0,1-5.866-2.573,15.347,15.347,0,0,1-5.674-9.856,11.862,11.862,0,0,1,.4-5.412,8.516,8.516,0,0,1,1.345-2.527,7.472,7.472,0,0,1,2.2-1.861,10.46,10.46,0,0,1,5-1.184,19.551,19.551,0,0,1,8.512,1.985,18.612,18.612,0,0,1,5.815,4.408,36.869,36.869,0,0,0-6.841-2.49,50.078,50.078,0,0,0-5.87-.907c-2.349-.4-4.761-.21-6.321,1.118-1.583,1.323-2.144,3.7-2.033,5.838a12.718,12.718,0,0,0,6.142,10.205,10.984,10.984,0,0,0,10.265.256,9.548,9.548,0,0,0,3.568-2.993,9.682,9.682,0,0,0,1.629-4.03,11.7,11.7,0,0,0-.231-4.881A9.537,9.537,0,0,0,56.413,526.8Z"></path><path class="cls-5" d="M92.327,518.139c-.691-1.479-1.214-1.7-2.814-1.377-1.922.385-4.829,2.778-6.615,6.151a28.185,28.185,0,0,0-1.779,3.39c-1.1,3.053-.356,9.469,2.536,10.943,1.917.976,4.331.054,5.855-1.465,3.227-3.217,4.179-7.5,4.213-12.056A15.522,15.522,0,0,0,92.327,518.139Z"></path><path d="M92.349,518.129c.316.088,1.333,1.975,1.781,4.438a25.281,25.281,0,0,1-.259,6.849A13.192,13.192,0,0,1,89.65,537.4a6.848,6.848,0,0,1-5.049,1.64,5.184,5.184,0,0,1-1.442-.4,4.854,4.854,0,0,1-1.272-.842,6.819,6.819,0,0,1-1.573-2.154,12.706,12.706,0,0,1-1.143-3.937,14.873,14.873,0,0,1,0-3.971,9.511,9.511,0,0,1,.509-2.045,15.077,15.077,0,0,1,.866-1.72c.295-.519.594-1.014.9-1.507.281-.424.581-.962.929-1.445a13.993,13.993,0,0,1,5.005-4.48,7.189,7.189,0,0,1,1.555-.556,5.51,5.51,0,0,1,.793-.105,5.827,5.827,0,0,1,.8,0,2.141,2.141,0,0,1,1.6.8,4.056,4.056,0,0,1,.613,1.28,6.786,6.786,0,0,0-1.031-.795,1.324,1.324,0,0,0-1.182-.067,6.006,6.006,0,0,0-1.177.575,7.624,7.624,0,0,0-1,.821c-1.271,1.214-2.214,2.611-2.83,3.231a14.586,14.586,0,0,0-1.719,2.125c-.542.746-1.066,1.523-1.5,2.269a8.743,8.743,0,0,0-.895,4.762,9.783,9.783,0,0,0,1.223,4.523,3.4,3.4,0,0,0,1.458,1.371,3.263,3.263,0,0,0,1.924.184,5.779,5.779,0,0,0,3.308-2.051,12.252,12.252,0,0,0,2.058-3.28,22.277,22.277,0,0,0,1.506-6.941c.021-.267.043-.559.067-.87a8.426,8.426,0,0,0,.038-.9,18.154,18.154,0,0,0-.135-1.976A22.941,22.941,0,0,0,92.349,518.129Z"></path><path d="M45.33,531.686c-.913-.408-1.489-1.457-2.413-1.832a2.027,2.027,0,0,0-2.459.917,2.443,2.443,0,0,0,.353,2.8,3.5,3.5,0,0,0,2.99.664,5.857,5.857,0,0,1,3.115.078,12.856,12.856,0,0,1,2.2,1.741,2.892,2.892,0,0,0,2.878.5A2.108,2.108,0,0,0,53,533.846a2.2,2.2,0,0,0-2.1-1c-.8.036-1.586.317-2.389.382a4.855,4.855,0,0,1-4.48-2.474"></path><path d="M44.053,530.737c.332-.034,1.115,1.013,2.414,1.487a3.819,3.819,0,0,0,1.952.226,15.058,15.058,0,0,0,1.8-.532,3.48,3.48,0,0,1,3.669.771,3.126,3.126,0,0,1,.8,2.348,3.8,3.8,0,0,1-.878,2.174,3.639,3.639,0,0,1-2.179,1.239,4.5,4.5,0,0,1-2.251-.2,5.823,5.823,0,0,1-1.738-.973c-.45-.358-.783-.671-1.051-.873a2.11,2.11,0,0,0-.433-.273,1.258,1.258,0,0,0-.286-.063,6.476,6.476,0,0,0-1.337.085,8.951,8.951,0,0,1-2.31.065,4.469,4.469,0,0,1-2.742-1.328,4.093,4.093,0,0,1-.824-4.118,3.54,3.54,0,0,1,3.055-2.386,3.006,3.006,0,0,1,1.747.391,3.562,3.562,0,0,1,1.068.966,14.78,14.78,0,0,0,1.031,1.424,2.815,2.815,0,0,1-1.89-.065,3.72,3.72,0,0,0-.9-.154.781.781,0,0,0-.48.216.494.494,0,0,0-.142.525c.043.1.08.061-.012.115a.787.787,0,0,0-.281.731.838.838,0,0,0,.6.516,3.78,3.78,0,0,0,1.3.159,7.416,7.416,0,0,1,3.488.363,17.274,17.274,0,0,1,2.386,1.9,2.064,2.064,0,0,0,1.862.372,1.089,1.089,0,0,0,.548-.486,1.24,1.24,0,0,0,.18-.7c-.044-.4-.25-.562-.7-.682a4.292,4.292,0,0,0-1.716.161,5.529,5.529,0,0,1-2.5.041,4.428,4.428,0,0,1-3.248-3.446Z"></path><path d="M86.984,527.835a1.816,1.816,0,0,1-1.088.563,1.9,1.9,0,0,0-.618.124.613.613,0,0,0-.278.729,1.548,1.548,0,0,0,.525.675,1.858,1.858,0,0,0,2.053.421,1.761,1.761,0,0,0,.568-1.375c.065-.5.285-1.084.846-1.2.15-.032.309-.023.461-.048a1.192,1.192,0,0,0,.943-.965,2.9,2.9,0,0,0-.173-1.332,2.6,2.6,0,0,0-.634-1.243,1.211,1.211,0,0,0-1.418-.194c-.551.387-.291,1.136-.243,1.751a2.367,2.367,0,0,1-1.167,2.14"></path><path d="M86.745,527.853c-.092-.3.4-.811.491-1.472a2.055,2.055,0,0,0-.139-1,4,4,0,0,1-.143-.751,1.972,1.972,0,0,1,.162-.941,1.9,1.9,0,0,1,1.314-1.044,2.562,2.562,0,0,1,1.508.112,3.447,3.447,0,0,1,1.8,2,6.691,6.691,0,0,1,.337.907,3.478,3.478,0,0,1,.093,1.477,3.087,3.087,0,0,1-.871,1.68,2.962,2.962,0,0,1-.845.585,2.33,2.33,0,0,1-.239.1c-.058.022-.191.062-.158.054l0,.015h0a.072.072,0,0,0,.022.062l0,0c0,.009,0-.029-.012.05a4.8,4.8,0,0,1-.125.537,3.181,3.181,0,0,1-.839,1.4,2.89,2.89,0,0,1-1.609.765,3.389,3.389,0,0,1-2.324-.585,4.181,4.181,0,0,1-.722-.608,4.238,4.238,0,0,1-.61-.823,2.594,2.594,0,0,1-.256-.672,2.1,2.1,0,0,1-.019-.871,1.94,1.94,0,0,1,1.019-1.378,1.609,1.609,0,0,1,1.046-.149c.164.038.188.089.3.118a1.3,1.3,0,0,0,.634.041,1.382,1.382,0,0,1-.163,1.4,3.7,3.7,0,0,1-.584.589.37.37,0,0,0-.074.115.129.129,0,0,0-.009.053c.016.08-.032-.147-.045-.194a1.939,1.939,0,0,0-.106-.321l-.04-.079-.007-.012c.058.028.057.139.554-.15.211-.105.8-.685.663-.519.029.02.075.073.061.109a1.147,1.147,0,0,0,.085.379l.053.148a.494.494,0,0,1,.015.064v.122a1.027,1.027,0,0,0,.045.307c.021.052,0,.011.04.073a.87.87,0,0,0-.135-.1.143.143,0,0,0,.079-.05.662.662,0,0,0,.107-.193l.123-.463a3.163,3.163,0,0,1,.374-.865,1.816,1.816,0,0,1,1.446-.887l.33-.038a.23.23,0,0,0,.077-.033.4.4,0,0,0,.133-.154.762.762,0,0,0,0-.534,7.016,7.016,0,0,0-.313-.851.982.982,0,0,0-.336-.457.416.416,0,0,0-.225-.022c-.013-.018-.01.064-.017-.039a.731.731,0,0,0-.044-.179.36.36,0,0,0-.023-.051l-.009-.015,0,0h0c.147.209.04.057.073.1l0-.005-.013-.021a.51.51,0,0,0-.082-.088.583.583,0,0,0,.118.053c.043.024.31.07.24.063a1.052,1.052,0,0,0-.007.189,8.337,8.337,0,0,1,.013.907,2.18,2.18,0,0,1-1,1.676A2.113,2.113,0,0,1,86.745,527.853Z"></path><path class="cls-4" d="M48.623,527.213c3.855-1.942,8.687,4.379,6.885,6.393C53.594,535.118,47.67,529.225,48.623,527.213Z"></path><path class="cls-4" d="M48.63,527.217a2.591,2.591,0,0,0,.419,1.765,8.771,8.771,0,0,0,1.639,2.087,12.4,12.4,0,0,0,2.7,1.95,2.951,2.951,0,0,0,1.454.374.965.965,0,0,0,.266-.079c.106-.077.048-.014.13-.129a1.274,1.274,0,0,0,.168-.586,4.5,4.5,0,0,0-.866-2.424,8.255,8.255,0,0,0-1.771-1.924,4.194,4.194,0,0,0-4.083-.911,2.866,2.866,0,0,1,2.165-.788,3.879,3.879,0,0,1,2.01.643,9,9,0,0,1,2.885,3.686,3.6,3.6,0,0,1,.274,2.139,1.906,1.906,0,0,1-.217.509.828.828,0,0,1-.441.386,1.822,1.822,0,0,1-1.049.1,7.494,7.494,0,0,1-3.132-1.745,10.4,10.4,0,0,1-2.053-2.343,4.7,4.7,0,0,1-.632-1.536A1.582,1.582,0,0,1,48.63,527.217Z"></path><path class="cls-4" d="M87.872,520.537c2.092-3.825,5.477,3.009,3.9,4.906C90.078,526.858,87.051,522.445,87.872,520.537Z"></path><path class="cls-4" d="M87.879,520.54a1.709,1.709,0,0,1-.024.469,3.39,3.39,0,0,0,.113.933,5.269,5.269,0,0,0,.865,1.786,4.418,4.418,0,0,0,1.826,1.5.8.8,0,0,0,.79-.112,1.766,1.766,0,0,0,.239-.948,6.516,6.516,0,0,0-1.315-3.695,1.5,1.5,0,0,0-1.259-.723,1.99,1.99,0,0,0-1.117.859,1.715,1.715,0,0,1,1.009-1.529,1.544,1.544,0,0,1,1.118.039,1.774,1.774,0,0,1,.634.421,7.3,7.3,0,0,1,1.493,3.3,5.235,5.235,0,0,1,.09,1.627,2.372,2.372,0,0,1-.22.777,1.305,1.305,0,0,1-.243.36l-.365.225a1.733,1.733,0,0,1-1.5-.2,4.213,4.213,0,0,1-1.049-.864,5.761,5.761,0,0,1-1.2-2.082,3.284,3.284,0,0,1-.153-1.27A2.158,2.158,0,0,1,87.879,520.54Z"></path></svg>