<svg xmlns="http://www.w3.org/2000/svg" id="outfits_3" viewBox="0 0 380 600"><defs transform="matrix(-1, 0, 0, 1, 380, 0)"><style>.cls-1{fill:#ffb431;}.cls-2{fill:#fff;}.cls-3{fill:#6d482f;}.cls-4{opacity:0.75;}.cls-5{opacity:0.5;}.cls-6{fill:#1b2426;}</style></defs><path class="cls-1 color-envelope" d="M257.849,458.887c-38.734-.687-81.2-6.921-82.278-5.5s.606,73.72,1.556,74.412c.621.452,48.484-1.624,79.569-6.264C259.832,496.644,261.008,483.77,257.849,458.887Z" transform="matrix(-1, 0, 0, 1, 380, 0)" /><path d="M257.879,458.883c.385,1.162,2.313,12.615,2.436,26.045a199.511,199.511,0,0,1-.945,20.364c-.3,3.251-.618,6.344-.921,9.148-.151,1.4-.294,2.732-.427,3.974q-.1.95-.2,1.83-.071.642-.14,1.256c-.023.206-.045.41-.068.611a1.588,1.588,0,0,1-.043.292l-.291.046-5.329.849-4.757.7c-3.193.45-6.43.859-9.7,1.25-6.537.774-13.2,1.444-19.916,2.034s-13.477,1.1-20.213,1.528q-5.053.32-10.079.574l-5.018.22-2.511.078-.633.013-.978,0-1.13-.121a6.751,6.751,0,0,1-.976-.283l-.146-.117c.02-.12-.065-.132-.086-.2l-.216-.312a2.113,2.113,0,0,1-.35-.741,12.694,12.694,0,0,1-.249-1.8q-.077-1-.152-1.988-.115-1.952-.227-3.858c-.116-2.534-.229-5.018-.342-7.482-.535-13.5-.851-26.918-.98-40.026-.028-3.277-.043-6.534-.025-9.773q.03-2.436.062-4.852.039-1.221.078-2.438l.031-.618.03-.47.05-.578a6.2,6.2,0,0,1,.191-1.1,4.07,4.07,0,0,1,.472-.861c.322-.162.49-.435.825-.541a2.051,2.051,0,0,1,.5-.142,3.164,3.164,0,0,1,.546-.078,11.391,11.391,0,0,1,1.144-.041l.721.013c.83.03,1.633.082,2.43.139,1.593.117,3.16.259,4.716.407l9.2.942c24.188,2.641,46.038,4.712,63.588,5.537a279.718,279.718,0,0,1-30.415.549c-10.953-.318-21.261-1.072-26.642-1.726l-13.63-1.64c-2.239-.255-4.465-.5-6.662-.7l-1.638-.134-1.536-.085a1.652,1.652,0,0,0-.514.017,1.176,1.176,0,0,0-.115.5l-.091,1.519-.066,1.625q-.045,1.63-.089,3.251-.045,3.251-.09,6.457-.051,6.418,0,12.672.079,12.5.387,24.326.153,5.911.371,11.651.129,2.868.259,5.692.087,1.407.173,2.8l.1,1.188.05.428c.014.07.021.142.039.211s.037.151.123.142a5.728,5.728,0,0,0,.586.021l.692,0,1.884-.042,3.752-.134,7.4-.358q7.332-.4,14.377-.915,14.094-1.015,27.07-2.36,6.492-.675,12.711-1.447l6.15-.81,2.752-.393c.2-.06.539.026.478-.283l.114-.928c.99-7.981,1.915-15.632,2.472-23,.226-3.045.425-6.648.544-10.409s.083-7.683-.018-11.355C258.612,467.3,258.026,460.964,257.879,458.883Z" transform="matrix(-1, 0, 0, 1, 380, 0)" /><path class="cls-2" d="M211.69,488.935a88.91,88.91,0,0,1-12.209-.519c.919,5.509,0,17.494.306,17.69.125.079,17.1.663,25.337-.511" transform="matrix(-1, 0, 0, 1, 380, 0)" /><path d="M225.128,505.625c-.174.338-2.295.782-4.765,1.032-2.468.274-5.276.423-6.837.63a86.216,86.216,0,0,1-8.715.629l-2.249.042h-1.279l-1.023-.076a3.593,3.593,0,0,1-.963-.14c-.264-.1-.61-.132-.762-.32l-.036-.029-.009-.007c.033-.034-.079.072.072-.078l0-.006-.016-.022-.06-.083-.11-.157-.226-.323a3.744,3.744,0,0,1-.294-1.906q0-1.269,0-2.511c.019-2.385.038-4.751.057-7.064.006-1.146.006-2.272-.018-3.364l-.021-.813c0-.071-.025-.433-.045-.682l-.063-.807q-.2-1.6-.392-3.171l14.3,1.968a17.762,17.762,0,0,1-5.635,1.96,20.419,20.419,0,0,1-2.916.342c-.438.016-.842.014-1.2-.009-.253-.017-.166-.012-.182-.02a.165.165,0,0,0-.012-.039.689.689,0,0,0-.315-.272c-.058,0-.107.049-.153.137-.043.12-.095.069-.1.7q-.07,1.427-.139,2.8c-.107,1.82-.21,3.572-.31,5.269s-.172,3.337-.21,4.917l0,.734c.015.21-.056.577.276.49l1.68.019c5.954.019,11.143-.323,15.7-.254C220.4,505.147,224.326,505.575,225.128,505.625Z" transform="matrix(-1, 0, 0, 1, 380, 0)" /><path class="cls-3 color-mitten" d="M215.881,451.334c10.493-14.009,56.91-20.517,54.6,5.267-3.026,16.028,10.751,32.614-4.393,46.033-34.566,29.235-68.246,9.736-49.508-34.353-2.96-7.079-3.822-15.988,3.1-21.161" transform="matrix(-1, 0, 0, 1, 380, 0)" /><path d="M219.718,447.163a2.69,2.69,0,0,1-.434.618c-.231.279-.572.6-.9,1.062a12.927,12.927,0,0,0-2.2,3.773,14.958,14.958,0,0,0-.888,5.95,24.623,24.623,0,0,0,1.462,7.087l.329.9.491,1.2c.055.2.225.4.186.606l-.235.622-.456,1.2c-.458,1.256-.975,2.5-1.345,3.786a61.273,61.273,0,0,0-1.989,7.586,40.312,40.312,0,0,0-.631,12.659c.66,5.551,2.935,11.06,7.079,14.687a18.463,18.463,0,0,0,7.219,3.884,24.538,24.538,0,0,0,8.458.771,34.038,34.038,0,0,0,8.606-1.838c1.419-.439,2.788-1.057,4.164-1.631.683-.3,1.346-.663,2.019-.988s1.342-.662,1.985-1.055l1.949-1.122c.641-.391,1.26-.821,1.889-1.226,1.272-.789,2.459-1.715,3.663-2.6s2.3-1.864,3.453-2.778c.568-.468.97-.921,1.458-1.383.423-.5.908-.965,1.273-1.491,2.85-3.531,3.766-7.84,3.423-12.62-.311-4.782-1.657-9.831-2.491-15.167a48.362,48.362,0,0,1-.674-8.276,30.277,30.277,0,0,1,.36-4.273l.148-.864.029-.68a11.1,11.1,0,0,0,.033-1.552,10.45,10.45,0,0,0-1.544-5.427,11.46,11.46,0,0,0-4.2-3.819,22.293,22.293,0,0,0-5.855-2.142,34.21,34.21,0,0,0-6.374-.828,55.213,55.213,0,0,0-12.572.936,53.509,53.509,0,0,0-11.253,3.395,35.452,35.452,0,0,0-4.8,2.546,21.064,21.064,0,0,0-3.862,3.257,16.228,16.228,0,0,1,2.854-4.246,28.688,28.688,0,0,1,4.631-3.966,45.385,45.385,0,0,1,12.09-5.8,47.316,47.316,0,0,1,12.668-2.257,29.7,29.7,0,0,1,9.669,1.091,25,25,0,0,1,6.674,3.1,17.825,17.825,0,0,1,5.326,5.365,16.885,16.885,0,0,1,2.266,7.028l.093,1.77c0,.584-.062,1.153-.093,1.726l-.061.86a3.524,3.524,0,0,1-.081.6l-.068.34c-.092.454-.191.907-.242,1.371A39.209,39.209,0,0,0,272.8,470.3c.575,3.836,1.388,7.671,1.805,11.589a28.41,28.41,0,0,1-.845,11.792,22.246,22.246,0,0,1-6.383,9.6,75.709,75.709,0,0,1-8.654,6.464c-1.466.994-3.021,1.825-4.539,2.691-.767.417-1.564.776-2.34,1.165l-1.17.569-1.2.5a42.2,42.2,0,0,1-9.81,2.919,32.122,32.122,0,0,1-10.052.186,23.792,23.792,0,0,1-9.314-3.406,21.806,21.806,0,0,1-6.813-6.889,27.449,27.449,0,0,1-3.444-8.615q-.213-1.114-.424-2.218-.111-1.11-.223-2.212a17.954,17.954,0,0,1-.107-2.192c0-.727-.034-1.453-.012-2.171a54.618,54.618,0,0,1,3.252-16.067,40.121,40.121,0,0,1,1.454-3.758l.435-.991c.179-.414.209-.447.311-.66l.136-.278c.038-.094-.042-.2-.058-.305l-.21-.7a25.114,25.114,0,0,1-1.151-9.368,14.552,14.552,0,0,1,2.75-7.612A13.236,13.236,0,0,1,219.718,447.163Z" transform="matrix(-1, 0, 0, 1, 380, 0)" /><g class="cls-4" transform="matrix(-1, 0, 0, 1, 380, 0)"><path class="cls-2" d="M265.354,463.694c-.236-.134-.442-.707-.658-1.576-.111-.435-.224-.943-.346-1.509-.061-.27-.124-.555-.191-.851-.058-.233-.119-.476-.182-.726-.249-.977-.534-1.977-.851-2.907-.16-.465-.328-.913-.5-1.33l-.13-.307c-.012-.018-.02-.068-.034-.058l-.05.1-.1.2-.4.76c-.814,1.468-1.616,2.524-2.054,3.207l-.119.175-.261.3c-.175.2-.368.4-.568.609l-2.4,2.535-1.134-3.881a18.406,18.406,0,0,0-.811-2.226c-.16-.362-.33-.723-.513-1.071-.085-.1-.191-.245-.284-.343a3.09,3.09,0,0,0-.54-.485,2.08,2.08,0,0,0-.243-.144c-.04-.006-.077-.062-.113-.024l-.105.191-.326.627c-.137.235.073.059-.742,1.076l-6.832,8.306-3.439-5.743c-.57-.947-1.168-1.838-1.759-2.743-.422-.629-.257-.361-.309-.428l-.035-.007c-.085-.006-.094.056-.092.1,0,.014,0,.013,0,.013h0l-.435.641-.89,1.3-2.972,4.342-1.727,2.509-.851,1.23-.211.305a2.146,2.146,0,0,1-.277-.245l-.557-.53-4.326-4.148-1.042-1.007-.462-.451-.262-.267q-.52-.537-1.036-1.067l-.229-.241-.02-.05-.048-.108-.132-.258-.184-.316c-.07-.116-.155-.288-.218-.2a2.15,2.15,0,0,0-.493.3,2.864,2.864,0,0,0-.879,1.031,38.746,38.746,0,0,0-4.384,7.833,10.14,10.14,0,0,1-1.006-4.883,24.933,24.933,0,0,1,.728-5.71l.088-.346a2.971,2.971,0,0,1,.131-.417c.133-.367.28-.732.435-1.1.307-.731.629-1.481.991-2.186.708-1.442,1.49-2.776,2.245-4.078l.572-.957.071-.117c.024-.03.043-.106.078-.055l.187.139.372.279c.491.371.964.74,1.41,1.1a19.048,19.048,0,0,1,2.289,2.082q.819.882,1.63,1.759l.781.843.178.195.093.116.187.233.748.923.374.456c.058.09.032.1.056.162a3.4,3.4,0,0,0,.3.681c.071.128.151.264.241.406l.141.218c.05.089.081-.01.124-.01a4.071,4.071,0,0,0,.555-.415l.316-.287.167-.162.086-.086.164-.2,1.359-1.732.695-.909.931-1.273,3.458-4.711.2-.279.1-.14.051-.069c.017-.033.034-.049.052,0l.424.608.828,1.193,1.6,2.328,1.539,2.309q.426.665.845,1.319c.429.68.846,1.349,1.227,1.993.01.012.019.042.03.039l.039-.047.077-.093.152-.188.3-.372.587-.733,1.217-1.541,2.491-3.053a19.156,19.156,0,0,1,1.32-1.459q.663-.7,1.319-1.381l.33-.345a2.759,2.759,0,0,1,.314.334l.615.714,1.179,1.43a19.532,19.532,0,0,1,2.109,3.219l.437.9c.134.279.292.682.37.86q.273.681.5,1.37a19.256,19.256,0,0,1,.671,2.788l-3.6-1.371.649-.585.442-.425c.17-.162.34-.331.511-.519a17.383,17.383,0,0,0,1.953-2.437c1.236-1.924,2.581-4.2,3.756-6.143.1.13.206.285.3.388.083.082.172.183.248.245l.107.073.054.035c.017.012.035.006.054.1l.22.833a41.442,41.442,0,0,1,1.568,10.176,21.51,21.51,0,0,1-.256,3.585C265.574,462.664,265.432,463.354,265.354,463.694Z" /></g><g class="cls-5" transform="matrix(-1, 0, 0, 1, 380, 0)"><path class="cls-2" d="M265.277,468.334c-.238-.167-.392-.828-.592-1.8-.1-.486-.217-1.05-.364-1.67-.083-.333-.144-.586-.227-.844s-.161-.525-.251-.789a14.044,14.044,0,0,0-1.425-3.012,9.748,9.748,0,0,0-.929-1.24l-.06-.069c-.02-.025-.023.061-.036.087l-.061.235-.127.458c-.088.3-.179.589-.275.864a28.642,28.642,0,0,1-1.355,3.171,5.025,5.025,0,0,1-.349.581c-.142.227-.3.445-.456.669-.315.445-.658.882-1.026,1.321l-3.145,3.763-.8-5.373-.09-.6-.052-.3a1.946,1.946,0,0,0-.048-.239q-.085-.252-.176-.463a4.317,4.317,0,0,0-.369-.7,2.337,2.337,0,0,0-.366-.44,1.289,1.289,0,0,0-.173-.138c-.056-.034-.1-.12-.181.086a9.374,9.374,0,0,0-.612,1.427c.443-.632-1.318,2.246-2.26,4.084l-3.234,6.224-5.2-6.717-2.079-2.688.186.311c.1.154.05.1.057.121a.06.06,0,0,0,0,.022c0,.012,0,.008,0,.008l-.006-.006s0-.008-.011,0l-.013.013c-.009.013.011-.021-.023.032l-.1.164-.764,1.181-.817,1.229c-.547.811-1.1,1.6-1.649,2.367l-3.246,4.493-4.183-5.925c-.343-.46-.676-.932-1.023-1.366l-.975-1.246q-.5-.644-1-1.275l-.5-.624-.251-.308a.258.258,0,0,1-.034-.075,3.075,3.075,0,0,0-.124-.287,7.075,7.075,0,0,0-.45-.783c-.24-.028-.5.237-.807.519-.078.076-.157.161-.239.253a1.016,1.016,0,0,0-.139.175l-.242.414q-.481.827-.926,1.65a68.526,68.526,0,0,0-3.037,6.268,19.136,19.136,0,0,1-.829-8.09c.064-.75.161-1.5.29-2.251a6.074,6.074,0,0,1,.208-.77l.271-.87c.187-.587.421-1.152.646-1.743a31.821,31.821,0,0,1,1.618-3.267l.882-1.559c.3-.517.617-1.061.911-1.526a44.39,44.39,0,0,1,5.612,5.095c.536.621,1.055,1.256,1.545,1.855.314.427.514.73.77,1.1l.717,1.063.349.532c.086.121.052.1.06.131l.009.072a7.543,7.543,0,0,0,.592,1.66.347.347,0,0,0,.04.078l.04-.021.084-.048.177-.118a4.844,4.844,0,0,0,.391-.322c.138-.125.282-.267.432-.423l.227-.246.115-.13c.036-.038.136-.181.2-.266,1.712-2.467,3.18-4.965,4.532-7.226.026.013.05.009.077.036l.083.118.166.234.329.466.651.917,1.274,1.784,2.487,3.436.95,1.326.527.712.262.349.13.173c.042.036.091.179.121.059q.55-1.012,1.085-2l.54-.949.492-.813.661-1.048c1.795-2.8,3.655-5.276,5.589-7.9l.234.061c.038.025.08-.01.114.064l.1.211.408.837.768,1.643c.491,1.088.969,2.152,1.375,3.34a25.06,25.06,0,0,1,.978,3.783q.172,1,.272,2.019c.052.57.078.983.1,1.48l-3.711-1.515q.681-.705,1.282-1.454l.3-.377.446-.614a15.315,15.315,0,0,0,.884-1.418,16,16,0,0,0,.792-1.632c.244-.633.473-1.269.717-1.967q.724-2.109,1.435-4.173c.1.072.22.161.313.219l.25.133a1.345,1.345,0,0,0,.412.145c.122.035.191-.035.311.023l.6.969a28.968,28.968,0,0,1,2.248,4.349,19.214,19.214,0,0,1,1.269,5.174,14.4,14.4,0,0,1-.116,3.835A15.278,15.278,0,0,1,265.277,468.334Z" /></g><g class="cls-5" transform="matrix(-1, 0, 0, 1, 380, 0)"><path class="cls-6" d="M224.12,489.561c-1.256.029-1.312-1.207-2.08-1.6a4.667,4.667,0,0,1-2.171-2.38c-.726-1.383.1-2.941,2.067-4.323,3.332-.173,5.782.344,5.26.764-2.1,1.666-2.154,2.764-1.781,3.722s1.162,1.744.7,2.551C226.014,488.667,224.485,489.416,224.12,489.561Z" /></g><g class="cls-5" transform="matrix(-1, 0, 0, 1, 380, 0)"><path class="cls-6" d="M237.961,489.385c-1.186-.4-.879-1.473-1.538-2a5.057,5.057,0,0,1-1.689-2.294c-.529-1.121.395-2.186,2.32-3.591,3.31-.4,5.8.29,5.267.752-2.136,1.754-2.335,2.733-2.135,3.8.195,1.017.755,2.062.066,2.751C240.041,489.167,238.349,489.39,237.961,489.385Z" /></g><g class="cls-5" transform="matrix(-1, 0, 0, 1, 380, 0)"><path class="cls-6" d="M252.692,487.511c-1.223-.271-1.015-1.4-1.7-1.892a4.766,4.766,0,0,1-1.79-2.365c-.556-1.227.374-2.439,2.364-3.755,3.327-.2,5.775.49,5.233.912-2.181,1.629-2.356,2.637-2.119,3.657.233.988.864,1.95.24,2.663C254.739,487.093,253.079,487.47,252.692,487.511Z" /></g><g class="cls-5" transform="matrix(-1, 0, 0, 1, 380, 0)"><path class="cls-6" d="M263.449,483.588c-1.248-.135-1.151-1.194-1.871-1.606a4.209,4.209,0,0,1-1.914-2.156c-.594-1.175.345-2.393,2.385-3.569,3.327-.117,5.743.467,5.2.835-2.207,1.44-2.355,2.379-2.077,3.271.277.873.974,1.675.417,2.348C265.44,483.04,263.829,483.513,263.449,483.588Z" /></g><g class="cls-5" transform="matrix(-1, 0, 0, 1, 380, 0)"><path class="cls-2" d="M270.469,481.977c.428.343.471,2.627-.169,5.569a34.729,34.729,0,0,1-3.61,9.3l-1.3,2.314-1.436-2.433c-.8-1.356-1.55-2.592-2.194-3.567l3.292.144-.321.678q-.741,1.622-1.551,3.27-.408.82-.822,1.652l-.1.207-.14.262-.378.68-.779,1.387q-.815,1.431-1.635,2.875l-.852,1.481-.434.751-.219.378-.11.189a.842.842,0,0,1-.056.091l-.07-.07c-1.544-1.536-2.908-2.893-5.114-5.167l-.672-.685-.349-.34-.175-.17-.087-.085c-.015-.014.019.026.027.037l.167.214.175.221c.046.054.032.044.02.037l-.027-.013-.1-.045c-.03-.007-.059-.039-.085-.019l-.072.135-.11.225-.039.092c-.014.023.009.007-.035.062l-.308.359-1.225,1.426-1.217,1.411-.6.7-.917,1.041c-.826.92-1.656,1.879-2.5,2.769l-1.261,1.358-.316.339c-.107.1-.205.3-.335.122l-.736-.546L238.74,508.4l-1.466-1.146-1.047-.836-1.474-1.215-.279-.239c-.083-.072-.029-.029-.044-.046a.221.221,0,0,0-.025-.1.082.082,0,0,0-.082-.027c-.02,0-.049.012-.077.017l-.919,1.3-.977,1.311c-.54.729-1.084,1.449-1.649,2.165-1.121,1.41-2.214,2.711-3.271,3.959q-1.818-1.59-3.587-3.136c-1.088-.972-2.439-2.195-2.806-2.606q-1.745-1.773-3.292-3.514a50.223,50.223,0,0,1-5.239-6.85,58.337,58.337,0,0,1,9.672,3.7c.793.384,1.559.779,2.281,1.174l1.047.592c.153.086.366.225.459.266a.209.209,0,0,0,.069-.043c.142-.126.059-.241.1-.017l0,.02c.048.237.175.343.359.347a.346.346,0,0,0,.157-.028l.092-.037.048-.022a1.51,1.51,0,0,0,.112-.117q.5-.539.969-1.081l.466-.544a6.32,6.32,0,0,0,.55-.712l.706-1.013.639-1.046c.817-1.395,1.592-2.845,2.25-4.083.137.036.316.243.483.413l.5.511.986,1,1.9,1.9,1.763,1.675,1.26,1.178,1.747,1.6.729.635c.031.019.064.066.093.064l.079-.078.161-.159.322-.324.65-.664.844-.9,2.038-2.212,4.957-5.526.337-.374.339.352.678.7,1.419,1.466,1.46,1.5.239.24.113.113.039.034.153.13c.123.086.573.521.859.781l.233.214c.067-.034.12-.2.18-.288l.337-.625c.209-.387.414-.77.618-1.147l.144-.267.284-.487.629-1.064q1.256-2.113,2.491-4.1l2.066-3.3,1.8,3.471q.99,1.908,1.866,3.735l-3.782-.165c.554-.824,1.074-1.648,1.571-2.471.9-1.584,2.247-3.74,3.291-5.8C269.433,484.527,270.2,482.61,270.469,481.977Z" /></g><g class="cls-4" transform="matrix(-1, 0, 0, 1, 380, 0)"><path class="cls-2" d="M269.592,491.3c.466.627-1.236,5.5-3.9,9.687l-.727,1.145-.966-1.1a10.676,10.676,0,0,1-2.023-3.462l2.292.215c-.54,1.189-1.121,2.173-1.554,2.948a28.065,28.065,0,0,1-2.217,3.307l-.632.793-.327.391c-.1.125-.338.38-.512.561-.748.812-1.56,1.561-2.392,2.344a15.17,15.17,0,0,1-4.619-2.618c-.175-.146-.141-.107-.177-.13l-.07-.039-.122-.072c-.074-.046-.132-.087-.178-.122a4.052,4.052,0,0,0-.187.408l-.035.079a1.647,1.647,0,0,1-.156.2l-.246.3c-.333.385-.669.768-1.012,1.131-.684.732-1.382,1.42-2.076,2.076-.779.726-1.078,1.019-2.7,2.428q-1.669,1.455-3.329,2.906-2.468-3.048-4.9-6.055c-.707-.883-.436-.548-.488-.621a.106.106,0,0,0,0-.047c-.02,0,.007-.066-.113.022l-.017.012c-.006,0,0,0-.015.011l-.079.078-.316.31c-.213.2-.417.416-.636.607-.433.391-.866.773-1.315,1.127a27.186,27.186,0,0,1-2.747,1.944l-.709.422-.407.231c-.195.116-.4.225-.6.329-.795.442-1.587.772-2.356,1.113l-1.554-.942c-.254-.153-.5-.325-.744-.49s-.527-.355-.621-.436c-.557-.425-1.09-.855-1.6-1.3a34.228,34.228,0,0,1-2.788-2.705,26.62,26.62,0,0,1-3.949-5.582c2.047.9,4.483,2.154,6.833,3.238l3.331,1.556.743.351.35.169c.067.026.039-.01.06-.012a.135.135,0,0,0,.037-.075.143.143,0,0,0,.022.064.152.152,0,0,0,.077.079c.2-.083.4-.174.6-.268.4-.183.791-.384,1.175-.6a20.448,20.448,0,0,0,2.208-1.4c.348-.256.695-.514,1.019-.792l.247-.2a2.227,2.227,0,0,0,.3-.284l.753-.795c.5-.488.958-1.133,1.415-1.664l1.281-1.6c.093.028.194.2.291.328l.293.4.575.789,1.112,1.517q.925,1.266,1.832,2.5l1.967,2.721.813-.649.926-.769c.862-.736,1.686-1.474,2.454-2.23q.576-.565,1.107-1.148c.175-.195.353-.387.517-.586l.275-.324c.124-.145.236-.3.353-.448.472-.587.908-1.248,1.343-1.9l.642-.993.311-.494c.1-.155.209-.382.31-.364.474.689,1.009,1.42,1.55,2.125.275.34.537.7.828,1l.436.442.234.21.149.125a6.256,6.256,0,0,0,.868.615c.24.119.49.32.718.308l.506-.527.614-.673c.6-.657,1.173-1.324,1.709-1.989a27.791,27.791,0,0,0,2.733-4l1.982-3.585,1.078,3.871a8.642,8.642,0,0,0,1.264,2.656l-2.435.071.073-.092c.919-1.208,2.3-2.971,3.471-4.562S269.28,491.787,269.592,491.3Z" /></g></svg>