<svg xmlns="http://www.w3.org/2000/svg" id="halloween" viewBox="0 0 380 600"><defs transform="matrix(-1, 0, 0, 1, 380, 0)"><style>.cls-1{opacity:0.3;}.cls-2{fill:#fff;}.cls-3{fill:#c18d42;}.cls-4{fill:#9fb8bd;}.cls-5{fill:#ff8717;}</style></defs><g class="cls-1" transform="matrix(-1, 0, 0, 1, 380, 0)"><ellipse cx="304.879" cy="567.692" rx="59.725" ry="29.862" /><path d="M364.543,567.692c-.372-.554-.451-3.7-2.733-7.472a25.431,25.431,0,0,0-4.82-5.715,39.877,39.877,0,0,0-7.315-5.139,70.45,70.45,0,0,0-17.953-6.739,88.707,88.707,0,0,0-15.607-2.267,127.9,127.9,0,0,0-21.756.726,101.645,101.645,0,0,0-21.8,4.952,67.389,67.389,0,0,0-10.091,4.551,38.158,38.158,0,0,0-8.476,6.339,22.476,22.476,0,0,0-3.043,3.869,14.233,14.233,0,0,0-1.708,4.19,12.046,12.046,0,0,0,1.2,8.345,22.074,22.074,0,0,0,5.266,6.278,39.965,39.965,0,0,0,7.317,4.892,74.285,74.285,0,0,0,16.958,6.262,117.517,117.517,0,0,0,35.209,2.8c11.341-.8,22.106-3.119,31.144-7.246a39.9,39.9,0,0,0,11.683-7.756,17.278,17.278,0,0,0,5.444-10.871,13.394,13.394,0,0,1-.079,6.15,20.439,20.439,0,0,1-3.131,6.773,39.6,39.6,0,0,1-12.294,10.938,65.578,65.578,0,0,1-14.2,6.248,58.822,58.822,0,0,1-11.039,2.349,127.486,127.486,0,0,1-16.021.51,128.79,128.79,0,0,1-15.382-1.344,96.693,96.693,0,0,1-28.181-8.293,49.421,49.421,0,0,1-11.815-7.866c-3.429-3.207-6.342-7.252-7.337-11.99a16.732,16.732,0,0,1,.041-7.091,19.754,19.754,0,0,1,2.687-6.355,33.093,33.093,0,0,1,9.28-9.147,71.967,71.967,0,0,1,22.29-9.541,109.173,109.173,0,0,1,22.359-3.241,112.3,112.3,0,0,1,21.1,1,86.563,86.563,0,0,1,19.16,4.913,54.707,54.707,0,0,1,9.329,4.6,39.971,39.971,0,0,1,8.77,7.212,24.783,24.783,0,0,1,3.108,4.264,22.908,22.908,0,0,1,1.089,2.134,20.3,20.3,0,0,1,.733,2.052A16.06,16.06,0,0,1,364.543,567.692Z" /></g><path class="cls-2" d="M359.623,560.125c-.017-3,4.083-4.713,6.7-3.248s3.6,4.857,3.234,7.832a8.135,8.135,0,0,1-3.4,6c-2.016,1.259-5.027,1.01-6.4-.93" transform="matrix(-1, 0, 0, 1, 380, 0)" /><path d="M359.781,569.762c.33-.072,1.13.774,2.4.949a4.051,4.051,0,0,0,3.2-.707,7.191,7.191,0,0,0,2.044-3.489,9.012,9.012,0,0,0,.184-4.145,7.044,7.044,0,0,0-1.238-2.891,4.31,4.31,0,0,0-.976-.931,2.759,2.759,0,0,0-1.055-.43,4.308,4.308,0,0,0-2.542.315,2.955,2.955,0,0,0-1.609,1.689,2.219,2.219,0,0,1-.729-1.69,3.8,3.8,0,0,1,.756-2.2,4.9,4.9,0,0,1,1.708-1.442,3.272,3.272,0,0,1,1.593-.37,7.327,7.327,0,0,1,2.295.577,6.15,6.15,0,0,1,1.818,1.226,8.442,8.442,0,0,1,2.02,3.109,12.459,12.459,0,0,1,.588,6.19,9.565,9.565,0,0,1-2.27,5.083,6.153,6.153,0,0,1-2.238,1.55,5.542,5.542,0,0,1-2.525.337,4.169,4.169,0,0,1-2.469-1.138A3.468,3.468,0,0,1,359.781,569.762Z" transform="matrix(-1, 0, 0, 1, 380, 0)" /><path class="cls-2" d="M243.813,556.01c.326-.623-.533-1.2-1.227-1.312-4.425-.714-8.84,2.974-9.62,7.388s1.613,9.012,5.275,11.6,9.231,3.126,12.354-.094c1.967-2.028,2.53-5,3-7.78" transform="matrix(-1, 0, 0, 1, 380, 0)" /><path d="M253.629,565.813c.246.25.187,2.214-.437,4.493a10.329,10.329,0,0,1-1.583,3.311,9.064,9.064,0,0,1-2.3,2.148,10.377,10.377,0,0,1-8.725.939,13.287,13.287,0,0,1-4.143-2.118,15.339,15.339,0,0,1-3.149-3.273,12.892,12.892,0,0,1-2.449-7.389,10.358,10.358,0,0,1,2.7-7.071,9.9,9.9,0,0,1,5.858-3.259,7.469,7.469,0,0,1,3.006.128l.349.083a2.935,2.935,0,0,1,.416.152,2.889,2.889,0,0,1,.7.457,1.293,1.293,0,0,1,.513,1.352,1.232,1.232,0,0,0-.933-.678,2.125,2.125,0,0,0-.63-.018,3.619,3.619,0,0,0-.6.157,8.283,8.283,0,0,0-2.3,1.022c-1.346.839-2.248,1.856-2.871,2.261a6.88,6.88,0,0,0-2.758,3.459,8.032,8.032,0,0,0-.195,4.464,11.069,11.069,0,0,0,4.924,6.792,10.42,10.42,0,0,0,7.081,1.443,7.021,7.021,0,0,0,4.844-3.264,26.191,26.191,0,0,0,1.622-3.1Z" transform="matrix(-1, 0, 0, 1, 380, 0)" /><path class="cls-2" d="M250.876,569.645a5.389,5.389,0,0,0-5.381,7.907,7.292,7.292,0,0,0,4.621,3.325,8.8,8.8,0,0,0,7.995-1.577,6.373,6.373,0,0,0,1.545-7.679" transform="matrix(-1, 0, 0, 1, 380, 0)" /><path d="M259.683,571.605c.157-.013.47.255.748.779a5.161,5.161,0,0,1,.531,2.141,8.554,8.554,0,0,1-1.261,4.527,7.89,7.89,0,0,1-5.083,3.63,11.048,11.048,0,0,1-6.432-.429,8.178,8.178,0,0,1-4.443-3.767,6.985,6.985,0,0,1-.283-5.727,6.281,6.281,0,0,1,3.528-3.563,5.6,5.6,0,0,1,3.955-.116,8.7,8.7,0,0,0-2.709,2.519c-.6.882-.739,1.562-1.046,1.833a3.322,3.322,0,0,0-.968,2.436,3.766,3.766,0,0,0,1.056,2.522,7.018,7.018,0,0,0,5.143,2.009,7.381,7.381,0,0,0,4.539-1.541,7.057,7.057,0,0,0,2.228-3.27,10.97,10.97,0,0,0,.547-2.169A6.7,6.7,0,0,0,259.683,571.605Z" transform="matrix(-1, 0, 0, 1, 380, 0)" /><path class="cls-3" d="M268.432,498.074c-3.852-3.936-9.5-5.6-14.987-6.078s-11.013.07-16.514-.2c-1.137-.055-1.437-.628-1.946-1.647-1.633-3.265-1.615-2.982-.394-4.682.938-1.3,3.953-1.264,6.045-1.234q5.316.077,10.617.532a33.707,33.707,0,0,1-11.2-13.864c3.664-.662,6.646-2.963,10.275-3.8,1.531-.353,1.531,3.457,2.619,7.266.877,3.067,3.171,5.482,4.9,8.163,1.792,2.781,6.707,5.35,9.8,6.531,4.627,1.769,6.317,4.135,10.226,7.179" transform="matrix(-1, 0, 0, 1, 380, 0)" /><path d="M277.845,496.267a13.319,13.319,0,0,1-3.056-2.073,25.948,25.948,0,0,0-6.2-4.063c-1.257-.52-2.756-1.028-4.093-1.694a30.45,30.45,0,0,1-3.887-2.188,14.4,14.4,0,0,1-3.162-2.759c-.447-.578-.706-.98-1.04-1.414s-.633-.809-.911-1.163a35.458,35.458,0,0,1-2.279-3.067,14.97,14.97,0,0,1-.993-1.8,14.24,14.24,0,0,1-.719-1.98c-.381-1.3-.658-2.628-.953-3.883-.075-.311-.15-.623-.234-.9a1.013,1.013,0,0,0-.065-.187c-.016-.041-.037-.079-.056-.117a.375.375,0,0,0-.169-.178c-.083-.032-.169.021-.245.045l-.123.052c-.107.035-.335.119-.5.184-.356.132-.718.288-1.084.45-.733.324-1.487.695-2.277,1.077s-1.618.775-2.5,1.127l-.763.3a.832.832,0,0,0,.114.207l.031.046.023.036.107.189c.147.259.285.522.444.775a30.793,30.793,0,0,0,1.982,2.953,32.228,32.228,0,0,0,2.27,2.7l.609.627.153.156.3.288.671.621.671.622c.231.207.51.413.763.619.537.419,1,.814,1.6,1.251l5.324,3.926-14.923-.7c-1.425-.08-2.9-.16-4.167-.1a10.091,10.091,0,0,0-1.711.191,3.089,3.089,0,0,0-.543.176c-.117.066-.078.047-.1.048l-.383.52c-.052.071-.024.026-.038.047a.027.027,0,0,0-.008.019c.008.03-.033-.058.064.17.151.355.372.808.582,1.24s.452.948.588,1.2c.018.047.025.06.056.08l.022.009c.009,0-.006,0,.024,0l.169.009.677.039c.923.044,1.853.078,2.779.093,3.7.067,7.374,0,10.913.288a32.744,32.744,0,0,1,9.923,2.2,18.852,18.852,0,0,1,7.313,5.1,23.716,23.716,0,0,0-5.558-2.578,30.91,30.91,0,0,0-6.687-1.241c-4.488-.36-8.828.058-11.157-.086-2.9-.138-5.749-.213-8.631-.491a3.373,3.373,0,0,1-1.65-.561,3.573,3.573,0,0,1-1.067-1.283c-.363-.734-.573-1.257-.866-1.895-.139-.317-.271-.606-.415-.984a3.809,3.809,0,0,1-.311-1.461,2.654,2.654,0,0,1,.5-1.411c.3-.438.445-.594.658-.877a3.358,3.358,0,0,1,1.356-1.02,5.765,5.765,0,0,1,1.336-.384,14.1,14.1,0,0,1,2.436-.18c1.56-.01,3.011.135,4.481.232l3.42.245,1.269.09.64.042.32.021c.092.018.026-.022-.013-.052l-.118-.089a21.4,21.4,0,0,1-2.107-1.821l-.25-.247-.382-.4q-.4-.416-.784-.848-.772-.853-1.469-1.75a35.76,35.76,0,0,1-2.536-3.674c-.186-.316-.379-.626-.55-.948l-.263-.476c-.109-.19-.226-.427-.33-.643l-.644-1.323-.309-.666-.155-.334c-.057-.114-.117-.229-.067-.286.622-.131,1.26-.276,1.89-.437l.917-.27.663-.243c.786-.308,1.559-.669,2.335-1.037s1.557-.745,2.359-1.091c.4-.173.806-.342,1.222-.491.214-.078.4-.148.641-.223.3-.1.592-.182.89-.259a2.394,2.394,0,0,1,1.243-.007,1.888,1.888,0,0,1,.94.8,4.776,4.776,0,0,1,.533,1.191c.149.468.195.685.274,1.012.28,1.206.485,2.338.752,3.437a13.407,13.407,0,0,0,1.022,3.017,20.3,20.3,0,0,0,1.662,2.693l1.907,2.65c.313.446.634.958.871,1.273a9.235,9.235,0,0,0,.943,1.03,24.07,24.07,0,0,0,4.771,3.308c.568.3,1.187.63,1.852.951l2.141,1a18.226,18.226,0,0,1,4.208,2.852c1.211,1.084,2.212,2.171,3.056,3.017S277.521,495.95,277.845,496.267Z" transform="matrix(-1, 0, 0, 1, 380, 0)" /><path class="cls-2" d="M268.736,496.586c-27.861,4.533-32.637,48.363-17.819,68.667,16.151,24.165,53.732,27.416,81.028,18.82,52.848-16.643,36.2-95.708-10.238-88.712" transform="matrix(-1, 0, 0, 1, 380, 0)" /><path d="M321.7,495.316a26.937,26.937,0,0,1,8.569-.864l3.863.424c1.339.336,2.793.587,4.248,1.057a32.264,32.264,0,0,1,4.416,1.786c.73.375,1.489.727,2.224,1.138l2.144,1.39a16.952,16.952,0,0,1,2.085,1.546c.666.562,1.384,1.076,2.017,1.687a40.775,40.775,0,0,1,3.631,3.849,41.735,41.735,0,0,1,3.137,4.221c.518.7.885,1.485,1.33,2.215.407.751.891,1.456,1.221,2.226a56.533,56.533,0,0,1,5.145,16.249,51.745,51.745,0,0,1-1.613,23.666,49.308,49.308,0,0,1-5.291,11.314,49.024,49.024,0,0,1-8.351,9.583,52.646,52.646,0,0,1-16.564,9.383c-.989.4-1.982.691-2.974.992-.988.319-1.993.567-2.989.847a99.224,99.224,0,0,1-24.121,3.254,87.449,87.449,0,0,1-20.744-2.159,64.34,64.34,0,0,1-19.284-7.71,51.381,51.381,0,0,1-8.247-6.264,44.468,44.468,0,0,1-6.625-7.758,41.514,41.514,0,0,1-4.837-8.829,52.281,52.281,0,0,1-2.742-9.363,57.6,57.6,0,0,1-1.054-9.375,59.936,59.936,0,0,1,2.023-17.837,52.206,52.206,0,0,1,2.983-8.043,34.962,34.962,0,0,1,9.917-12.7,27.049,27.049,0,0,1,13.382-5.495,29.3,29.3,0,0,0-11.965,7.274,32.611,32.611,0,0,0-4.724,6.194,42.482,42.482,0,0,0-3.248,7.189,57.029,57.029,0,0,0-2.8,14.4,96,96,0,0,0-.01,10.74,49.262,49.262,0,0,0,2.943,15.019,33.518,33.518,0,0,0,3.3,6.68c.653,1.054,1.384,2.106,2.088,3.134.758.977,1.484,1.978,2.32,2.883,6.514,7.45,15.436,12.226,24.512,14.855a75.04,75.04,0,0,0,13.778,2.658,87.563,87.563,0,0,0,13.643.32,92.675,92.675,0,0,0,13.131-1.605c2.128-.427,4.232-.89,6.287-1.463a53.813,53.813,0,0,0,6.015-1.942,47.462,47.462,0,0,0,10.834-5.6,45.926,45.926,0,0,0,8.586-8,44.389,44.389,0,0,0,8.993-20.191,51.965,51.965,0,0,0,.677-5.313c.061-.883.052-1.767.083-2.645a22.257,22.257,0,0,0-.019-2.622q-.065-1.305-.129-2.6c-.083-.859-.208-1.711-.308-2.561-.148-1.709-.6-3.354-.888-5.01a51.671,51.671,0,0,0-3.195-9.36,46.029,46.029,0,0,0-2.188-4.288c-.364-.71-.852-1.336-1.268-2a23.28,23.28,0,0,0-1.328-1.94,44.617,44.617,0,0,0-6.955-7.327,36.845,36.845,0,0,0-9.607-5.435,34.164,34.164,0,0,0-5.013-1.336c-.809-.139-1.589-.324-2.345-.413l-2.174-.155c-.687-.035-1.339-.131-1.94-.109l-1.659.062Z" transform="matrix(-1, 0, 0, 1, 380, 0)" /><path class="cls-2" d="M280.222,474.9c-38.244,20.146-21.373,71.3,26.517,71.846,44.243.5,60.952-58.23,24.165-68.254" transform="matrix(-1, 0, 0, 1, 380, 0)" /><path d="M330.916,478.452a7.181,7.181,0,0,1,1.933.306c.508.134,1.124.246,1.782.484l2.173.858a25.935,25.935,0,0,1,10.028,7.875,28.9,28.9,0,0,1,5.274,13.837,42.079,42.079,0,0,1-.628,12.179,44.023,44.023,0,0,1-6.547,15.62,45.087,45.087,0,0,1-12.624,12.513,45.857,45.857,0,0,1-16.781,6.654c-1.482.258-2.977.4-4.461.6l-4.455.179-4.357-.151-4.3-.436a56.393,56.393,0,0,1-14.5-3.979,48.061,48.061,0,0,1-12.663-7.916c-7.487-6.5-12.6-15.511-13.795-24.771a35.016,35.016,0,0,1,.767-13.464,34.574,34.574,0,0,1,5.313-11.375,36.845,36.845,0,0,1,8-8.14,46.384,46.384,0,0,1,8.747-5.176,77.076,77.076,0,0,0-7.31,6.939,43.039,43.039,0,0,0-6.4,9.115,35.413,35.413,0,0,0-3.221,9.55q-.109.549-.216,1.077c-.061.353-.082.706-.126,1.045-.072.682-.176,1.324-.234,1.933-.024,1.226-.192,2.29-.181,3.168a31.113,31.113,0,0,0,1.27,10.453,34.838,34.838,0,0,0,4.525,9.412,37.928,37.928,0,0,0,6.85,7.668,43.568,43.568,0,0,0,8.381,5.59,51.7,51.7,0,0,0,18.6,5.229c1.567.166,3.136.17,4.684.26,1.545-.015,3.074-.059,4.587-.152a43.427,43.427,0,0,0,8.757-1.678c.7-.224,1.405-.4,2.082-.658l2.009-.806,1-.4.957-.482,1.9-.956c.62-.337,1.206-.728,1.806-1.087a20.516,20.516,0,0,0,1.755-1.132,38.508,38.508,0,0,0,3.26-2.523,42.124,42.124,0,0,0,9.874-12.2c4.856-8.909,6.214-18.884,3.838-27.227-.166-.486-.339-1-.518-1.522-.091-.263-.167-.538-.272-.805l-.358-.8c-.246-.537-.471-1.1-.741-1.659q-.461-.8-.934-1.634a23.951,23.951,0,0,0-4.99-5.89,27.626,27.626,0,0,0-5.7-3.821l-.625-.343-.61-.259-1.084-.456Z" transform="matrix(-1, 0, 0, 1, 380, 0)" /><path class="cls-2" d="M349.884,467.16c-.7-9.116-1.508-19.815-11.986-28.071s-26.355-9.653-37.243-8.395-20.808,5.556-27.108,12.739c-3.441,3.923-9.838,18.153-10.311,22.624-.528,4.986,1.564,13.2,2.994,15.686,4.95,8.6,12.64,13.448,21.909,16.262,14.926,4.531,29.678,5.244,44.279-.721a27.171,27.171,0,0,0,13.353-10.636C349.331,481.36,350.581,476.275,349.884,467.16Z" transform="matrix(-1, 0, 0, 1, 380, 0)" /><path d="M349.93,467.156a23.543,23.543,0,0,1,.636,7.229,24.552,24.552,0,0,1-1.176,6.886,28.765,28.765,0,0,1-10.2,13.622,35.684,35.684,0,0,1-7.8,4.032,62.618,62.618,0,0,1-13.858,3.717,63.481,63.481,0,0,1-19.925-.195,88.026,88.026,0,0,1-10.064-2.227,48.38,48.38,0,0,1-9.918-3.966,35.85,35.85,0,0,1-8.733-6.6,33.376,33.376,0,0,1-3.5-4.263c-.547-.739-1-1.536-1.491-2.306a16.876,16.876,0,0,1-1.226-2.793,44.182,44.182,0,0,1-2.254-10.534,27.1,27.1,0,0,1-.088-2.8c.035-.5.036-.963.118-1.5a13.616,13.616,0,0,1,.282-1.507,44.053,44.053,0,0,1,1.579-5.043c1.025-2.782,2.187-5.452,3.445-8.094A59.389,59.389,0,0,1,270.122,443l.34-.492.4-.513.409-.51.394-.43c.526-.568,1.047-1.14,1.614-1.66a34.127,34.127,0,0,1,3.5-2.956,40.209,40.209,0,0,1,7.77-4.485,53.157,53.157,0,0,1,16.7-4.19,66.147,66.147,0,0,1,16.4.6,58.752,58.752,0,0,1,7.755,1.821,48.212,48.212,0,0,1,7.237,2.935,38.727,38.727,0,0,1,6.4,4.172,33.581,33.581,0,0,1,5.142,5.308,30.309,30.309,0,0,1,3.556,6.135,32.45,32.45,0,0,1,1.948,6.392,66.513,66.513,0,0,1,1.039,11.972,117.965,117.965,0,0,0-3.257-11.466,34.635,34.635,0,0,0-2.855-5.936,27.01,27.01,0,0,0-4.056-5.091c-.734-.777-1.575-1.44-2.359-2.123l-1.253-.932a11.563,11.563,0,0,0-1.258-.865l-1.255-.8-1.283-.7c-.823-.487-1.7-.844-2.508-1.24a65.668,65.668,0,0,0-8.371-2.976,57.993,57.993,0,0,0-25.518-1.748,44.737,44.737,0,0,0-11.782,3.563,32.6,32.6,0,0,0-9.71,6.774,14.312,14.312,0,0,0-1.813,2.171c-.549.784-1.065,1.62-1.558,2.465-.987,1.695-1.893,3.44-2.749,5.191A74.986,74.986,0,0,0,264.867,464c-.139.442-.223.873-.339,1.309a10.1,10.1,0,0,0-.176,1.259,19.02,19.02,0,0,0,0,2.669,38.52,38.52,0,0,0,.78,5.367,36.336,36.336,0,0,0,1.474,5.113,10.4,10.4,0,0,0,1.139,2.219c.441.753.961,1.447,1.451,2.157a30.655,30.655,0,0,0,7.294,7.017,39.465,39.465,0,0,0,8.8,4.46,81.14,81.14,0,0,0,9.335,2.616,73.253,73.253,0,0,0,9.253,1.457,65.028,65.028,0,0,0,9,.234,62.427,62.427,0,0,0,8.606-1.043,60.691,60.691,0,0,0,8.075-2.209,39.445,39.445,0,0,0,7.285-3.267A28.3,28.3,0,0,0,348.1,480.146a28.45,28.45,0,0,0,1.656-7.991C349.942,469.831,349.909,468.04,349.93,467.156Z" transform="matrix(-1, 0, 0, 1, 380, 0)" /><path d="M275.541,465.4a8.9,8.9,0,0,1-1.661-1.185,11.943,11.943,0,0,1,.913-10.558c1.2-1.984,3.446-3.727,5.435-3.017,1.453.52,2.227,2.224,2.229,3.883a13.159,13.159,0,0,1-1.262,4.86C280.079,462.111,278.282,465.256,275.541,465.4Z" transform="matrix(-1, 0, 0, 1, 380, 0)" /><path d="M275.539,465.368c.069-.174.45-.3.928-.56a5.6,5.6,0,0,0,1.548-1.3,10.632,10.632,0,0,0,2.018-3.934c.43-1.815,1-3.775.774-5.255a2.947,2.947,0,0,0-.777-1.69.961.961,0,0,0-1.006-.191,5.482,5.482,0,0,0-2.546,2.268,12.747,12.747,0,0,0-1.561,3.766,13,13,0,0,0-.314,3.821c.013.307.058.6.092.9.029.183-.016.414.09.539a3.141,3.141,0,0,0,.456.576c.188.208.379.4.573.588a3.7,3.7,0,0,1-1,.085,3.552,3.552,0,0,1-1.163-.217c-.111-.042-.225-.089-.342-.142-.079-.076-.151-.161-.23-.249-.143-.163-.335-.406-.453-.557a7.156,7.156,0,0,1-.689-1.026,5.926,5.926,0,0,1-.808-3.828,17.251,17.251,0,0,1,1.722-4.268,12.305,12.305,0,0,1,2.612-3.31,6.062,6.062,0,0,1,3.735-1.672,3.632,3.632,0,0,1,2.057.591,4.306,4.306,0,0,1,1.353,1.492,6.4,6.4,0,0,1,.735,3.517,12.433,12.433,0,0,1-.641,3.112,15.354,15.354,0,0,1-2.486,4.972,5.858,5.858,0,0,1-2.5,1.833A3.772,3.772,0,0,1,275.539,465.368Z" transform="matrix(-1, 0, 0, 1, 380, 0)" /><path d="M323.555,462.636a10.217,10.217,0,0,0-.542-3.729,7.709,7.709,0,0,0-10.323-4.18,11.622,11.622,0,0,0-2.885,2.644c-2.436,3.616-1.839,9.091,1.625,11.782s9.342,1.649,11.261-2.263A9.946,9.946,0,0,0,323.555,462.636Z" transform="matrix(-1, 0, 0, 1, 380, 0)" /><path d="M323.585,462.637c.152.1.275.649.275,1.475a7.8,7.8,0,0,1-.635,3.075,7.081,7.081,0,0,1-2.416,2.877,10.409,10.409,0,0,1-2.8,1.365,8.267,8.267,0,0,1-8.67-1.983,9.589,9.589,0,0,1-2.453-4.205,11.06,11.06,0,0,1-.335-4.722,10.315,10.315,0,0,1,1.369-3.895,6.583,6.583,0,0,1,.624-.909,9.5,9.5,0,0,1,.707-.779,13.832,13.832,0,0,1,1.469-1.249l.381-.273.46-.309a6.941,6.941,0,0,1,1.118-.484,9.388,9.388,0,0,1,2-.428,9.03,9.03,0,0,1,3.85.482,8.809,8.809,0,0,1,5.076,4.538,7.65,7.65,0,0,1,.713,2.907,10.7,10.7,0,0,1-.2,2.524c-.785-1.4-1.7-3.233-2.913-4.183a21.424,21.424,0,0,0-2.929-1.906,5.388,5.388,0,0,0-4.051-1.044,7.33,7.33,0,0,0-1,.227,3.248,3.248,0,0,0-.425.233l-.5.316a8.03,8.03,0,0,0-1.675,1.453,7.4,7.4,0,0,0-1.508,3.936,8.147,8.147,0,0,0,.639,3.968,6.9,6.9,0,0,0,2.3,2.824,6.608,6.608,0,0,0,3.139,1.073,7.392,7.392,0,0,0,7.52-4.387A16.588,16.588,0,0,0,323.585,462.637Z" transform="matrix(-1, 0, 0, 1, 380, 0)" /><path d="M308.346,480.517c.105.1.1.538-.142,1.1a4.771,4.771,0,0,1-1.45,1.757,15.081,15.081,0,0,1-4.2,2.043c-3.567,1.355-7.937,1.29-11.73.694a20.457,20.457,0,0,1-9.2-3.659,9.419,9.419,0,0,1-3.015-3.689,5.131,5.131,0,0,1,.012-4.12l.49.888c.162.287.4.557.572.8.206.243.454.454.642.652.258.183.456.357.682.508a11.808,11.808,0,0,1,2.108,1.456,9.742,9.742,0,0,0,2.581,2.267,15.425,15.425,0,0,0,3.059,1.49,21.376,21.376,0,0,0,6.14,1.227,27.2,27.2,0,0,0,9.9-1.316,13.956,13.956,0,0,0,2.153-.906,2.442,2.442,0,0,0,.49-.326,3.1,3.1,0,0,0,.416-.338C308.081,480.8,308.258,480.613,308.346,480.517Z" transform="matrix(-1, 0, 0, 1, 380, 0)" /><path class="cls-4" d="M337.191,499.978a2.355,2.355,0,0,1-.825-.389l-.5-.306.632-.122a2.782,2.782,0,0,1,1.769.282,3.406,3.406,0,0,1,1.666,1.87c.791,1.929-1.031,4.62-3.609,4.4l.466-.3c-.069-.062-.065-.026.031-.022a.761.761,0,0,0,.131-.009l.014.024a.346.346,0,0,0,.161.139,2.036,2.036,0,0,0,.471.09,4.646,4.646,0,0,1,.871.152,2.365,2.365,0,0,1,1.558,1.622,3.19,3.19,0,0,1,.138,1.138,3.491,3.491,0,0,1-1.329,2.591c-.291.221-.283.221-.409.3a2.871,2.871,0,0,1-.275.156l-.258.115a4.48,4.48,0,0,1-.563.185c-.2.045.133-.015.24.011a1.326,1.326,0,0,1,.428.106,1.416,1.416,0,0,1,.547.416,1.123,1.123,0,0,1,.07.09,3.113,3.113,0,0,1,.184.381,4.588,4.588,0,0,1,.263.844,3.831,3.831,0,0,1-.128,1.956,4.168,4.168,0,0,1-1.091,1.674,5.166,5.166,0,0,1-.745.574l-.211.126a.688.688,0,0,1-.363.085.359.359,0,0,1-.13-.03.3.3,0,0,1-.053-.029l.1.072.363.259.241.178.025.02c.012.008,0,0,.075.071l.319.327a8.919,8.919,0,0,1,.709.8,3.759,3.759,0,0,1,.7,1.447,3.032,3.032,0,0,1-.285,2.086,3.132,3.132,0,0,1-1.505,1.347,4.362,4.362,0,0,1-1.438.346c-.21.023-.468.016-.617.017h-.078a.305.305,0,0,1-.062,0,.268.268,0,0,0-.083,0c-.036,0-.088.077.028.11l.086.052.029.017.014.016c.061.126.206.42.291.627a9.055,9.055,0,0,1,.68,2.856l.232,3.4-3.091-1.479c-.462-.221-.966-.43-1.417-.592-.006,0,0,0,0,0a.16.16,0,0,0-.049-.03l-.913-1.216-.5-.666-.061-.082-.031-.04,1.443,1.977c.052.072.014.022.025.039l0,.009a.231.231,0,0,0,.006.057l0,.01v0l.7.954.813,1.115.046.064,0,.008.01.018.02.034.319.547.632,1.08.62,1.061.306.524.152.26a1.916,1.916,0,0,1-.327-.036l-2.672-.4c-.848-.128-1.683-.262-2.536-.427-.868-.186-1.744-.4-2.616-.676-.435-.14-.866-.268-1.288-.429-.275-.1-.493-.193-.738-.3-.477-.2-.94-.411-1.392-.632a25.146,25.146,0,0,1-2.553-1.438l1.844-2.087a18.652,18.652,0,0,1,1.039,1.711q.229.431.429.857l.193.427c.1.2.189.428.274.637a20.6,20.6,0,0,1,.8,2.4q.156.563.307,1.112c-.362.059-.788.067-1.163.1-.751.065-1.535.076-2.264.089-.824.022-1.143.006-1.653,0l-2.7-.054c.788-.327,1.7-.65,2.686-.961a9.739,9.739,0,0,0,2.164-.819l.132-.084c.01-.047-.095-.168-.134-.241-.11-.166-.213-.311-.311-.437a3.22,3.22,0,0,0-.512-.543,21.563,21.563,0,0,0-1.849-2.285l2.3-2.606c.984.438,1.893.8,2.683,1.095l1.088.409.465.18c.018.014,0,.02.01.035.011.084.121.194.312.31a2.858,2.858,0,0,0,.348.178l.216.09c.054.016.211.09.181.052a.318.318,0,0,0,0-.152l-.03-.11-.022-.063-.012-.034-.006-.017.817,1.112.213.289c.015.02-.008-.013-.008-.013l-.038-.056-.075-.111-.15-.222-.3-.438-.583-.86-1.125-1.656-.017-.025.388.529.428.585.085.115,0-.008-.01-.016-.078-.131-.156-.26-.308-.514-.605-1-1.166-1.923c-.01-.03-.077-.1-.041-.1l.115.009.229.018.45.037.866.079c.567.056,1.109.114,1.654.186a18.262,18.262,0,0,1,3.329.747c.277.085.549.193.82.288l.586.241c.382.161.752.342,1.119.524l-1.253.842a6.188,6.188,0,0,0-.449-2.055,5.053,5.053,0,0,0-.72-1.228A7.036,7.036,0,0,0,330,524.151a1.4,1.4,0,0,0-.679-1.541l-.136-.079c.055-.066.132-.143.2-.213a2.206,2.206,0,0,1,.922-.558,4.395,4.395,0,0,1,2.01-.015,10.658,10.658,0,0,1,1.178.3c.438.122.945.3,1.393.39.1.01.24.033.3.032h.2a2.844,2.844,0,0,0,.369-.044,1.131,1.131,0,0,0,.51-.217c.14-.143.188-.342-.053-.715a4.41,4.41,0,0,0-.512-.609l-.716-.74c-.623-.627-1.272-1.234-1.985-1.847a2.908,2.908,0,0,0-.4-1.37c-.048-.088-.1-.166-.151-.246.047.017.13.1.2.121a.969.969,0,0,0,.5.09,2.673,2.673,0,0,0,1.493-.89,3.387,3.387,0,0,0,.689.016,1.477,1.477,0,0,0,.453-.154,1.529,1.529,0,0,0,.415-.289,1.8,1.8,0,0,0,.469-.68,1.365,1.365,0,0,0,.059-.736,2.079,2.079,0,0,0-.115-.4,1.031,1.031,0,0,0-.087-.192.945.945,0,0,0-.31-.377,4.129,4.129,0,0,0-.751-1.555c-.153-.133-.307-.211-.449-.156a.488.488,0,0,0-.126.039l-.07.027-.034.013-.009,0h-.006l-1.086-.154.018,0,.143.011,1.095.083.1-.064a1.563,1.563,0,0,0,.628-1.212,7.952,7.952,0,0,0,1.4-.378l.282-.14.071-.034.076-.049.056-.04a2.541,2.541,0,0,0,.212-.165,1.538,1.538,0,0,0,.283-.327,1.748,1.748,0,0,0,.17-.413,1.254,1.254,0,0,0,0-.747.749.749,0,0,0-.463-.481,1.948,1.948,0,0,0-.312-.072,4.4,4.4,0,0,1-.77-.176,2.016,2.016,0,0,1-1.145-.942,1.758,1.758,0,0,1-.227-.864,1.469,1.469,0,0,1,.412-1.007l.4-.386.41.091a2.113,2.113,0,0,0,1.807-.606,2.03,2.03,0,0,0,.631-1.949,2.817,2.817,0,0,0-2.438-2.121l.012-.038A7.807,7.807,0,0,1,337.191,499.978Z" transform="matrix(-1, 0, 0, 1, 380, 0)" /><path class="cls-4" d="M348.328,523.413a2.064,2.064,0,0,1,2.016.7,2.676,2.676,0,0,1,.44,3.34,3.214,3.214,0,0,1-.408.546,1.981,1.981,0,0,1-.364.307,1.737,1.737,0,0,1-.7.274c-.11.029-.284-.012-.343.035a1.558,1.558,0,0,0,.134.389,2.435,2.435,0,0,0,1.306,1l.848.328c.378.144.774.3,1.173.5a4.17,4.17,0,0,1,1.2.843,2.776,2.776,0,0,1,.726,1.438,2.5,2.5,0,0,1-.522,1.927,4.943,4.943,0,0,1-1.41,1.138c-1.073.6-1.374.713-1.84,1.033a2.406,2.406,0,0,0-.527.494c-.078.049.048.074.084.109l.16.1.306.18c.413.238.79.455,1.121.644l1.567.942a14.556,14.556,0,0,1,1.223.809,2.579,2.579,0,0,1,.859,1.119,2.152,2.152,0,0,1-.328,1.934,6.112,6.112,0,0,1-1.752,1.54,10.567,10.567,0,0,1-1.6.832,3.421,3.421,0,0,1-.492.2,1.76,1.76,0,0,1-.675.094c-.014,0-.057-.008-.048,0l.11.055.214.111.391.214c.176.1.311.173.475.277a7.187,7.187,0,0,1,1.309,1.178,3.588,3.588,0,0,1,.867,2.064,3.53,3.53,0,0,1-2.2,3.344,4.317,4.317,0,0,1-.5.208c-.138.055-.275.089-.413.132a6.439,6.439,0,0,1-.805.162,1.718,1.718,0,0,1-.19.022c-.161-.01-.4.072-.12.186a1.437,1.437,0,0,1,.163.127l.015.014c-.023-.034.018.022.051.067l.1.129c.132.171.247.353.369.531.238.358.454.73.656,1.108s.378.771.539,1.168l.114.3a4.364,4.364,0,0,1,.157.473,8.815,8.815,0,0,1,.265,1.011,3.4,3.4,0,0,1-.2,1.9,2.972,2.972,0,0,1-1.243,1.395,4.429,4.429,0,0,1-2.247.521l-.879-.008-.674-.025a25.462,25.462,0,0,1-2.671-.276l-.212-.031c-.02,0-.008,0-.013,0l0,0,0,.009s.019.027-.058-.078l-.02-.026,0-.006h0l.042.064.31.47,1.385,2.1a7.754,7.754,0,0,1,.543.948l.47.9c.192.537,1.085,1.408-.1,1.28-1.433.169-2.706.4-4.183.431a17.854,17.854,0,0,1-2.2-.083c-.423-.046-.847-.107-1.255-.185l-.308-.057c-.034-.008-.017-.006-.028-.01l-.03-.016-.073-.04-.206-.122c0,.031.019.094.028.169l.017.13c-.034-.088.1.41.209.893a18.3,18.3,0,0,1,.436,3.882q.007.87.016,1.721l0,.865a3.472,3.472,0,0,1-.082.608c-1.269-.8-2.547-1.621-3.627-2.244-.542-.3-1.059-.543-1.565-.767l-.831-.344a18.667,18.667,0,0,0-3.02-.878l1.446-.932a.587.587,0,0,0,0,.32,2.542,2.542,0,0,0,.11.33l.035.089.106.2.192.365a5.212,5.212,0,0,1,.855,2.558,2.061,2.061,0,0,1-1.159,1.86,2.949,2.949,0,0,1-2.154.008,11.821,11.821,0,0,1-2.118-1.063l-1.363-.818-2.548-1.557c.9.215,1.907.49,2.972.812l1.623.506a7.719,7.719,0,0,0,1.185.272.828.828,0,0,0,.854-.348.929.929,0,0,0-.2-1.019,6.466,6.466,0,0,0-.579-.615c0,.007-.037-.056-.012.01l-.073-.13-.145-.262a4.636,4.636,0,0,1-.254-.633,3.254,3.254,0,0,1-.077-1.678l.251-1.2,1.462.091a18.21,18.21,0,0,1,4.293.8l.244.079c.061.021.042.009.042.009l.008,0,.027-.015a.068.068,0,0,0,.025-.033.08.08,0,0,0-.011-.057c-.018-.029,0,.006.044.021s.079-.008.1-.06a1.928,1.928,0,0,0-.046-.289l-.039-.194-.06-.257c-.142-.535-.322-1.052-.516-1.572-.385-1.016-1.04-2.154-1.557-3.2l-1.442-2.81c1.582.781,3.461,1.692,5.02,2.4a14.928,14.928,0,0,0,3.541,1.113c.183.034.366.066.55.089l.225.042c.15.026.311.045.479.057s.345.02.527.018l.279-.008c.04-.006.112,0,.127-.015l-.053-.1-.456-.825-.12-.213-.087-.146-.218-.344-.935-1.466L338.42,559.6l-.847-1.321-.408-.642.076-.219c1.309.529,2.711,1.069,3.977,1.523.634.228,1.224.41,1.793.556.28.065.571.149.84.2l.747.145a22.265,22.265,0,0,0,2.283.282c.371.028.78.045,1.118.051a3.016,3.016,0,0,0,.709-.035.756.756,0,0,0,.565-.391,1.071,1.071,0,0,0,.022-.694c-.026-.115-.065-.226-.1-.338s-.081-.23-.147-.412c-.126-.33-.272-.649-.429-.963s-.335-.614-.526-.905a7.937,7.937,0,0,0-.729-.973,14.412,14.412,0,0,0-2.828-2.333,1.544,1.544,0,0,0-.013-.406,1.16,1.16,0,0,0-.153-.314l-.1-.137a1.839,1.839,0,0,1,.3-.18,5.874,5.874,0,0,1,.636-.288,6.951,6.951,0,0,1,2.764-.423c.542,0,1.192.075,1.688.022a3.122,3.122,0,0,0,.852-.242,1.049,1.049,0,0,0,.7-1.035,1.148,1.148,0,0,0-.319-.628,5.754,5.754,0,0,0-.745-.628c-.924-.7-1.927-1.4-3-2.06a3.508,3.508,0,0,0-.506-1.1,4.012,4.012,0,0,0-.293-.379l-.149-.165c-.026-.043.108-.01.152-.019a2.293,2.293,0,0,0,1.78-1,6.593,6.593,0,0,0,2.656-.432,7.9,7.9,0,0,0,1.245-.608,3.22,3.22,0,0,0,.6-.438.535.535,0,0,0,.176-.613c-.156-.257-.45-.364-.672-.53l-1.54-1.019-2.23-1.494-.875-.785-.433-.39-.108-.1.109-.117.218-.232a9.449,9.449,0,0,1,1.854-1.578c.7-.443,1.735-.9,2.083-1.077,1.051-.542,1.44-.808,1.4-1.419l-.005-.025c-.078-.394-.25-.655-.968-1.063-.317-.189-.707-.365-1.093-.55a11.361,11.361,0,0,1-1.558-.812,3.068,3.068,0,0,1-1.565-2.206q-.021-.156-.042-.306l.207,0a1.612,1.612,0,0,0,.4-.106,2.315,2.315,0,0,0,.69-.521,2.713,2.713,0,0,0,1.086-.321,2.3,2.3,0,0,0,.38-.436,1.975,1.975,0,0,0,.348-.945,2.342,2.342,0,0,0-.486-1.6A2.529,2.529,0,0,0,348.328,523.413Z" transform="matrix(-1, 0, 0, 1, 380, 0)" /><path class="cls-4" d="M339.411,464.137c.058-.111.661-.358,1.37.126a2.4,2.4,0,0,1,.849,1.105,2.428,2.428,0,0,1,.013,1.781,3,3,0,0,1-.365.643,3.382,3.382,0,0,1-.455.5,2.4,2.4,0,0,1-.772.451,2.88,2.88,0,0,1-.7.156l-.175.011c-.011.024.075.1.11.139a3.011,3.011,0,0,0,.307.27c.432.327.907.543,1.305.8a3.621,3.621,0,0,1,.865.788,3.954,3.954,0,0,1,.684,1.284,2.427,2.427,0,0,1-.48,2.409,3.125,3.125,0,0,1-1,.674,4.266,4.266,0,0,1-.792.228,7.825,7.825,0,0,1-.8.1l-1.189.062a2.6,2.6,0,0,0-.836.129c-.066-.018.021.095-.065-.038a1.01,1.01,0,0,1-.084-.147.388.388,0,0,0-.079-.092.207.207,0,0,0,.1.054,1,1,0,0,0,.236.1c.1.024.031,0,.048,0l-1.114-1.512a9.089,9.089,0,0,1,2.655.591,4.711,4.711,0,0,1,1.491.951,3.6,3.6,0,0,1,1.037,1.919,3.462,3.462,0,0,1-.231,1.991,4.184,4.184,0,0,1-1.145,1.543,4.868,4.868,0,0,1-1.588.905l-.282.095a.526.526,0,0,1-.078.017.515.515,0,0,1-.251-.022,2.584,2.584,0,0,1,.32.249l.065.061c.006.013-.006-.02.016.03l.094.253a4.418,4.418,0,0,1,.153.579,3.354,3.354,0,0,1-.049,1.49,3.117,3.117,0,0,1-.6,1.161,2.981,2.981,0,0,1-1.093.839,3.628,3.628,0,0,1-2.089.243,5.339,5.339,0,0,1-2.8-1.389,13.757,13.757,0,0,0-1.243-1.139,1.348,1.348,0,0,0-.264-.155c.105-.336.035-.5.087-.264l.824-3.21a8.239,8.239,0,0,1,2.744,3.423,4.6,4.6,0,0,1,.057,2.921,3.755,3.755,0,0,1-1.968,2.312,4.649,4.649,0,0,1-1.808.324,4.154,4.154,0,0,1-.889-.136,4.777,4.777,0,0,1-.664-.22,12.884,12.884,0,0,1-1.865-.983,7.938,7.938,0,0,0-1.168-.624c-.08-.042-.072-.015-.106-.041-.033.042.024-.166-.031-.3-.02-.067.012.006,0-.028a.963.963,0,0,0,.124.206c.057.068.016.006.022.011l.24-2.086.524.945c.25.462.557,1.034.794,1.543a30.151,30.151,0,0,1,1.2,2.913l.481,1.326.231.649.113.323.028.08c-.008.011-.054-.011-.079-.015l-.181-.048-2.753-.754c-.886-.258-1.829-.6-2.651-.87l-1.164-.4-.767-.3q-1.514-.588-2.87-1.153a26.486,26.486,0,0,1,3.62-.14l.5.013a2.72,2.72,0,0,0,.342-.026,3.445,3.445,0,0,0,.5-.093c.264-.074.4-.171.433-.281a.213.213,0,0,0-.018-.178c-.122-.147-.227-.264-.319-.356a1.646,1.646,0,0,0-.386-.313.4.4,0,0,0-.134-.039l-.009-.008-.078-.125c-.054-.091-.107-.178-.157-.263-.1-.171-.186-.33-.267-.475l-.856-1.523,1.14-.951a4.891,4.891,0,0,1,.5-.372,3.249,3.249,0,0,1,1-.418,3.906,3.906,0,0,1,1.024-.082,5.427,5.427,0,0,1,.818.164,6.167,6.167,0,0,1,.638.248,12.611,12.611,0,0,1,1.727,1.052,8.886,8.886,0,0,0,1.2.723,1.933,1.933,0,0,0,.284.124.588.588,0,0,0,.722-.418,1.165,1.165,0,0,0,.069-.427,1.513,1.513,0,0,0-.08-.489,5.687,5.687,0,0,0-1.693-2.1l-1.349-1.21,1.708-.44a2.783,2.783,0,0,1,1.993.294,5.925,5.925,0,0,1,1.262.981l.919.93a2.757,2.757,0,0,0,.865.517,1.463,1.463,0,0,0,.8.094.264.264,0,0,0,.168-.094.379.379,0,0,0,.1-.195.823.823,0,0,0-.017-.327,2.116,2.116,0,0,0-.229-.567,5.784,5.784,0,0,0-1.225-1.564,2.661,2.661,0,0,0-1.077-2.133,4.082,4.082,0,0,0,1.063.321,1.793,1.793,0,0,0,1.319-.4c.241.093.434.142.654.216.2.049.373.083.549.11a2.059,2.059,0,0,0,.8-.063,2.345,2.345,0,0,0,.749-.432,1.265,1.265,0,0,0,.516-1.2,1.083,1.083,0,0,0-.322-.56,2.451,2.451,0,0,0-.721-.454,7.476,7.476,0,0,0-2-.485l-1.146-.142.26-1.061a3.172,3.172,0,0,1,.207-.658,1.981,1.981,0,0,1,.475-.607,2.369,2.369,0,0,1,1.144-.531,7.989,7.989,0,0,1,1.645-.086,8.754,8.754,0,0,0,1.062-.017,1,1,0,0,0,.549-.221.869.869,0,0,0-.021-1.149,1.513,1.513,0,0,0-.1-.127c-.051-.054-.1-.112-.155-.159l-.038-.037-.1-.077-.205-.154-.436-.3a8.92,8.92,0,0,1-1.488-1.169,9.9,9.9,0,0,1-1.214-1.453,1.3,1.3,0,0,0,.384-.214,1.119,1.119,0,0,0,.262-.469c.861-.054,1.594-.119,2.12-.205l.353-.079c.1-.033.183-.076.271-.112a.957.957,0,0,0,.225-.125c.052-.037.087-.053.124-.084.3-.213.463-.426.556-.469a1.935,1.935,0,0,0-.306-2.158A1.407,1.407,0,0,0,339.411,464.137Z" transform="matrix(-1, 0, 0, 1, 380, 0)" /><path class="cls-5" d="M289.217,461.189Q274.7,467.772,260.2,474.413c8.572,2.687,17.759,2.347,26.734,1.981,1.973-.08,4.135-.237,5.56-1.6a6.729,6.729,0,0,0,1.691-4.434c.262-3.453-.939-7.5-4.173-8.733" transform="matrix(-1, 0, 0, 1, 380, 0)" /><path d="M290.027,461.6a3.185,3.185,0,0,1,2.151.983,8.119,8.119,0,0,1,2.4,4.3,12.632,12.632,0,0,1,.029,5.708,6.38,6.38,0,0,1-1.2,2.525,5.829,5.829,0,0,1-1.859,1.481,10.017,10.017,0,0,1-3.247.941c-1.089.148-2.1.225-3.156.326-2.1.187-4.25.34-6.425.425a69.288,69.288,0,0,1-13.038-.593c-1.78-.261-3.385-.707-5.039-1.094l-4.719-1.347-.6-.174-.3-.087-.15-.043c-.009-.018.071-.043.1-.065l1.028-.534,2.06-1.066c1.267-.7,3.02-1.439,4.575-2.151l3.405-1.518,2.35-1.019,4.591-1.932c6.007-2.477,11.514-4.539,16.006-5.985-3.14,3.248-10.037,7.669-12.786,8.6q-4.149,1.407-7.986,2.879l-1.9.736c-.389.157-.446.164-.611.221l-.469.161c-.649.229-1.384.509-2.145.814l-.143.057c-.012.017.058.027.084.041l.221.08.464.164c.322.1.659.2,1.008.286a25.264,25.264,0,0,0,2.627.5,55.521,55.521,0,0,0,6.9.555c4.481.093,8.681-.208,12.629-.434,1.932-.1,3.718-.335,4.739-1.251,1.033-.868,1.433-2.5,1.577-4.075a12.361,12.361,0,0,0-.609-5.337A6.009,6.009,0,0,0,290.027,461.6Z" transform="matrix(-1, 0, 0, 1, 380, 0)" /><path class="cls-3" d="M326.69,513.472c-2.815,6.412,6.93,6.524,10.26,7.381a32.845,32.845,0,0,1,14.08,7.893c5.783,5.406,9.738,12.543,12.337,20.02a2.517,2.517,0,0,1,1.266-2.684c.884-.6,1.942-.906,2.788-1.552,1.863-1.422,2.245-4.19,1.492-6.409a15.316,15.316,0,0,0-4.065-5.653,101.507,101.507,0,0,0-7.921-7.085,74.481,74.481,0,0,1,18.82-2.715q-.652-4.993-1.766-9.912a2.036,2.036,0,0,0-2.953-1.8,76.123,76.123,0,0,0-17.638,5.523,7.967,7.967,0,0,1-2.789.888,7.577,7.577,0,0,1-3.317-.852l-16.014-6.843" transform="matrix(-1, 0, 0, 1, 380, 0)" /><path d="M331.281,509.643c.726-.031,6.517,2.279,13.19,5l2.536,1.037a15.22,15.22,0,0,0,2.5.886,3.793,3.793,0,0,0,2.308-.22c.765-.3,1.6-.732,2.408-1.09,3.236-1.466,6.268-2.565,8.45-3.31q2.351-.806,4.827-1.461c.825-.215,1.657-.421,2.5-.61.432-.091.81-.192,1.329-.275.128-.02.26-.037.4-.049a4.578,4.578,0,0,1,.525-.014,3.386,3.386,0,0,1,1.034.183,2.837,2.837,0,0,1,1.562,1.356,4.755,4.755,0,0,1,.379.962l.177.68q.318,1.274.605,2.565t.541,2.6l.246,1.31.263,1.545.345,2.331.084.589.042.295.022.148c0,.047.034.115-.038.1l-1.166.053-2.273.1-.56.023-.352.023-.645.046q-2.582.194-5.145.569t-5.074.918l-1.124.254-.114.041a.605.605,0,0,0-.162.075l.175.115a.832.832,0,0,1,.109.079l.758.652q1.83,1.593,3.543,3.235a31.941,31.941,0,0,1,3.427,3.669,11,11,0,0,1,2.286,5.135A7.8,7.8,0,0,1,369.757,545a6.825,6.825,0,0,1-2.409,1.9l-1,.489a5.34,5.34,0,0,0-1.1.712l-1.887.652c-.166.058-.212.075-.159.058l.129-.041-.074.025-.151.05-1.62.535c-.447-1.236-.9-2.519-1.38-3.629-.23-.58-.491-1.144-.733-1.714-.517-1.124-1.039-2.236-1.619-3.3a46.194,46.194,0,0,0-3.8-6.052,35.9,35.9,0,0,0-9.723-9.145,31.164,31.164,0,0,0-5.585-2.794,22.972,22.972,0,0,0-2.822-.887l-2.975-.623a14.317,14.317,0,0,1-5.727-2.3,4.13,4.13,0,0,1-1.617-2.831,5.5,5.5,0,0,1,.66-2.869,7.521,7.521,0,0,0-.212,1.8,3.515,3.515,0,0,0,.53,1.821,5.185,5.185,0,0,0,3.3,1.876,28,28,0,0,0,4.208.524c.733.052,1.472.093,2.248.169.376.035.811.093,1.2.17s.765.139,1.141.232a29.288,29.288,0,0,1,8.128,3.185,25.476,25.476,0,0,1,5.138,3.827,45.517,45.517,0,0,1,7.269,9.551c.963,1.668,1.812,3.351,2.567,5.024.373.839.728,1.672,1.059,2.5l.243.622.1.282.184.561.274.871.035.11c0,.019-.016-.046-.022-.065a.714.714,0,0,1-.018-.184.847.847,0,0,1,.1-.35,1.542,1.542,0,0,1,.511-.551l.1-.063.152-.088c.155-.09.308-.169.46-.246l.862-.406a5.427,5.427,0,0,0,1.354-.806,4.129,4.129,0,0,0,1.294-2.637,7.781,7.781,0,0,0-2.151-5.874,57.785,57.785,0,0,0-4.746-4.8l-1.232-1.115-1.4-1.222c-1.155-.984-2.363-1.957-3.538-2.906-.021-.057.135-.078.238-.11l.333-.09.665-.181,1.322-.354c.875-.234,1.774-.452,2.665-.66,1.356-.311,2.614-.56,3.915-.787,2.579-.454,5.129-.761,7.639-.95l1.629-.1.538-.027.246-.011.121,0c.037,0,.1.012.072-.047q-.216-1.3-.427-2.572-.31-1.748-.668-3.45-.186-.849-.37-1.69l-.193-.837c-.061-.267-.14-.583-.181-.69a.8.8,0,0,0-.543-.567,1.22,1.22,0,0,0-.4-.03,5.933,5.933,0,0,0-.687.1c-1.087.214-2.16.442-3.217.692q-3.168.755-6.146,1.717c-1.985.636-3.9,1.342-5.762,2.091-.934.379-1.825.761-2.754,1.167a6.7,6.7,0,0,1-3.361.7,8.733,8.733,0,0,1-2.857-.882l-2.693-1.269-5.532-2.7C335.334,511.743,332.279,510.171,331.281,509.643Z" transform="matrix(-1, 0, 0, 1, 380, 0)" /><path class="cls-2" d="M357.929,581.393a6.2,6.2,0,0,1-6.58,3.265,9.743,9.743,0,0,1-6.311-4.381,13.281,13.281,0,0,1-.551-13.892,12.027,12.027,0,0,1,12.547-5.576,11,11,0,0,1,8.446,10.582,10.138,10.138,0,0,1-9.236,9.618" transform="matrix(-1, 0, 0, 1, 380, 0)" /><path d="M356.243,580.979a12.839,12.839,0,0,1,1.957-.711,10.44,10.44,0,0,0,3.46-2.215,9.861,9.861,0,0,0,2.487-3.934,7.373,7.373,0,0,0,.305-3.683,10.341,10.341,0,0,0-6.247-7.518,9.861,9.861,0,0,0-9.4,1.574,10.189,10.189,0,0,0-3.949,7,12.251,12.251,0,0,0,1.622,7.762,8.423,8.423,0,0,0,5.538,4.185,5.439,5.439,0,0,0,5.395-2.274,4.346,4.346,0,0,1-1.532,3.211,6.824,6.824,0,0,1-4.306,1.739,8.567,8.567,0,0,1-4.451-1.106,8.143,8.143,0,0,1-2.512-2.118,15.577,15.577,0,0,1-2.958-8.207,14.845,14.845,0,0,1,1.538-7.747,13.463,13.463,0,0,1,11.632-7.175,11.474,11.474,0,0,1,3.3.449,12.093,12.093,0,0,1,2.943,1.353,12.279,12.279,0,0,1,4.184,4.486,10.551,10.551,0,0,1,1.322,5.682,10.042,10.042,0,0,1-1.8,5.145,9.739,9.739,0,0,1-4.536,3.565A8.564,8.564,0,0,1,356.243,580.979Z" transform="matrix(-1, 0, 0, 1, 380, 0)" /></svg>