<svg xmlns="http://www.w3.org/2000/svg" viewBox="0 0 380 600"><defs><style>.cls-1{isolation:isolate;}.cls-2{fill:#eefbff;}.cls-3,.cls-7{fill:#51e9f4;}.cls-3{mix-blend-mode:multiply;}.cls-4{fill:#3690ea;}.cls-5{fill:#fff8b8;}.cls-6{fill:none;}.cls-8{fill:#0f3;}.cls-9{fill:#ffd635;}.cls-10{fill:#fff;}</style></defs><g class="cls-1"><g id="samples"><g id="accessories"><circle class="cls-2" cx="140.78" cy="363.05" r="37.39"></circle><path class="cls-3" d="M117.46,350.86a37.19,37.19,0,0,1,6.65-21.27,37.38,37.38,0,1,0,47.41,54.73,37.38,37.38,0,0,1-54.06-33.46Z"></path><rect class="cls-4" height="143.38" width="7.12" x="136.48" y="434.17"></rect><path d="M143.57,577.54c-.63-2.43-.6-46.4-1-63.34-.27-12.6-.45-26-.58-39.51-.1-12.92-.19-26-.29-38.67h-3.37v.09h0v.08c0,.68,0,1.35,0,2,0,1.33,0,2.63,0,3.92.13,25.45.08,50.65-.13,73.81-.1,11.58-.24,22.65-.41,33q-.15,7.75-.29,14.93c-.06,2.38-.11,4.72-.17,7,0,1.13,0,2.26-.08,3.37,0,.5,0,1-.05,1.5l0,1,6.36.2-3.38.32-3.81.31c-.15-2.09-.3-4.3-.46-6.58s-.28-4.61-.42-7c-.26-4.74-.48-9.6-.65-14.24-.34-9.29-.48-17.68-.36-22.38q.69-25.67.94-48.94.09-11.65.19-22.73,0-11.47.06-22.37h8.66q.06,15.75.1,30.34.09,14.22.16,27.35c.09,17.54.14,33.68,0,48.62C144.55,552,143.76,573.36,143.57,577.54Z"></path><path class="cls-4" d="M142.27,407.8l0-.36-2.2.08-2.2-.08,0,.36c-2.67,1.7-19.82,13.41-2,23.62h8.54C162.1,421.21,144.94,409.5,142.27,407.8Z"></path><path d="M142.28,407.77c.42-.1,3,1.34,5.56,3.68a20.65,20.65,0,0,1,3.46,4,13.75,13.75,0,0,1,1.83,4.11,9,9,0,0,1,.2,3.24,9.64,9.64,0,0,1-1,3.21,15.69,15.69,0,0,1-4.34,5c-.43.32-.86.66-1.3,1l-1.62,1c-.1.05-.19.16-.31.16h-1l-.76,0-1.52,0-3,.07-1.49,0h-1.57a.41.41,0,0,1-.33-.12l-.3-.18-1.17-.69a10.88,10.88,0,0,1-.95-.61l-.94-.65-.9-.72a15.38,15.38,0,0,1-3.2-3.51,10.63,10.63,0,0,1-1.67-4.69,10.23,10.23,0,0,1,.71-4.75,17.94,17.94,0,0,1,4.89-6.59,29.46,29.46,0,0,1,5.73-3.95l-.49.83.05-.36.18-1.06.9.1c.82.1,1.55.19,2.16.28.8.05,1.53.1,2.18.16l.64.05,0,.51v.35l-.16-.34-.2-.51-.25.11a19.9,19.9,0,0,1-2.18.8c-.72.18-1.45.34-2.23.48l.88-.78.05.36,0,.25-.47.46c-2.51,2.52-4.82,5.36-5.92,6.5a9.86,9.86,0,0,0-3.31,6,6.76,6.76,0,0,0,.53,3.22,10.14,10.14,0,0,0,1.87,2.81,15.33,15.33,0,0,0,1.23,1.19,15,15,0,0,0,1.34,1.07c.45.34.93.65,1.41.95l.54.33h.65q3.42,0,6.63,0l.66,0c.17,0,.28-.11.42-.18.42-.28.86-.54,1.26-.84s.81-.58,1.19-.89.74-.62,1.08-.94a10.92,10.92,0,0,0,2.94-4.35,7.47,7.47,0,0,0-.07-4.63,14.86,14.86,0,0,0-2.19-4.1,50,50,0,0,0-3.43-4.11C143.88,409.22,142.68,408.13,142.28,407.77Z"></path><path class="cls-5" d="M138,429.91c-.2.1-.77-.36-1.41-.93a6.75,6.75,0,0,1-.9-1,10.87,10.87,0,0,0-.74-.81,8.92,8.92,0,0,1-2.21-6,9.83,9.83,0,0,1,1.48-5.12,8.7,8.7,0,0,1,3-3c.13,1.54-.06,3.37-.49,3.82a7.18,7.18,0,0,0-1.88,3.07,6.63,6.63,0,0,0-.09,3.15,14.54,14.54,0,0,0,2.24,4.64A11.39,11.39,0,0,1,138,429.91Z"></path><path class="cls-5" d="M142.1,429.37c-.1-.21.3-.79.78-1.42a6.33,6.33,0,0,0,.65-1,7.91,7.91,0,0,0,.44-.87,14.1,14.1,0,0,0,.84-5.08,27,27,0,0,0-2.07-7.58,3.79,3.79,0,0,1,2.23.66,2.62,2.62,0,0,1,1.19,1.34,33.61,33.61,0,0,1,.52,4.07,15.5,15.5,0,0,1,0,1.8l0,.86-.12.82a9.58,9.58,0,0,1-2.32,5.18A6.71,6.71,0,0,1,142.1,429.37Z"></path><path class="cls-5" d="M140.48,323.77A39.2,39.2,0,1,0,179.68,363,39.2,39.2,0,0,0,140.48,323.77Zm0,73.32A34.13,34.13,0,1,1,174.61,363,34.13,34.13,0,0,1,140.48,397.09Z"></path><path class="cls-6" d="M140.48,323.77A39.2,39.2,0,1,0,179.68,363,39.2,39.2,0,0,0,140.48,323.77Zm0,73.32A34.13,34.13,0,1,1,174.61,363,34.13,34.13,0,0,1,140.48,397.09Z"></path><path d="M140.48,397.06a10.63,10.63,0,0,1,1.93-.31c.52-.07,1.13-.09,1.8-.2l2.25-.42a35.26,35.26,0,0,0,11.45-4.59,33.75,33.75,0,0,0,10.14-9.83,30.55,30.55,0,0,0,4.51-10.6,33.25,33.25,0,0,0-14.31-35.21,31.17,31.17,0,0,0-3.58-2c-.62-.28-1.22-.61-1.86-.85l-1.91-.68a13.2,13.2,0,0,0-2-.57l-2-.49-2-.28a12.11,12.11,0,0,0-2-.21,26.33,26.33,0,0,0-4,0c-.66.05-1.32.06-2,.13l-1.93.31a32.49,32.49,0,0,0-26.42,26.57,32.89,32.89,0,0,0,12.79,31.91,35.15,35.15,0,0,0,9.39,5,38.16,38.16,0,0,0,9.58,1.81,31.13,31.13,0,0,1-10-.36,33.17,33.17,0,0,1-11-4.63,32.4,32.4,0,0,1-8.38-7.87,21.2,21.2,0,0,1-1.41-2.08,19.6,19.6,0,0,1-1.15-2l-.87-1.82-.37-.81-.26-.77c-.31-1-.68-1.94-.92-2.93l-.66-3c-.14-1-.25-2-.37-3a9.25,9.25,0,0,1-.1-1.49l0-1.48a35.88,35.88,0,0,1,1.71-11.46,37.82,37.82,0,0,1,5-9.95,36.12,36.12,0,0,1,7.53-7.68,34.1,34.1,0,0,1,9.12-5c.81-.26,1.59-.63,2.42-.81l2.46-.62c.82-.19,1.65-.26,2.47-.4l1.24-.19,1.24-.07,2.46-.11,2.45.12c.41,0,.81,0,1.22.08l1.2.18c.79.13,1.59.21,2.37.39a36.54,36.54,0,0,1,4.58,1.32,23.09,23.09,0,0,1,2.19.85l2.11,1a35.23,35.23,0,0,1,7.49,5.23,34.85,34.85,0,0,1,3.13,3.19c.5.55.91,1.17,1.37,1.74a18.68,18.68,0,0,1,1.27,1.79,34.74,34.74,0,0,1,3.51,31.41,34.26,34.26,0,0,1-8,12.32c-.82.77-1.75,1.58-2.74,2.42l-1.62,1.15a15.89,15.89,0,0,1-1.72,1.12l-1.83,1a20.78,20.78,0,0,1-1.91.89c-.64.26-1.26.58-1.92.8l-1.94.62-.95.3-1,.2-1.83.38c-1.18.24-2.31.27-3.29.4l-.72.07h-3.53Z"></path><path d="M140.48,323.74a13.44,13.44,0,0,1,2.25-.1c.6,0,1.32,0,2.11.06l2.66.33a38.64,38.64,0,0,1,13.69,5,40.49,40.49,0,0,1,12.35,11.48,40,40,0,0,1,5.86,12.6,39,39,0,0,1,.53,19.29c-.2.81-.39,1.63-.59,2.44s-.54,1.6-.81,2.4a40.88,40.88,0,0,1-2,4.68c-.35.78-.85,1.49-1.26,2.23a22.19,22.19,0,0,1-1.37,2.18,36.64,36.64,0,0,1-3.19,4.05,40.71,40.71,0,0,1-7.77,6.81,39,39,0,0,1-4.48,2.57c-.78.37-1.54.79-2.34,1.11l-2.42.91c-.41.14-.8.31-1.21.43l-1.25.33-2.48.65-2.53.4a18,18,0,0,1-2.53.31,35.67,35.67,0,0,1-5.06.09c-.84,0-1.68-.06-2.51-.13l-2.48-.36a40.73,40.73,0,0,1-33-49.89A39.92,39.92,0,0,1,117.09,330a41,41,0,0,1,11.8-5.44,42.06,42.06,0,0,1,11.59-1.33A51.43,51.43,0,0,0,129.29,326a42.2,42.2,0,0,0-11.22,6.62,39.92,39.92,0,0,0-8.08,8.95,23.16,23.16,0,0,0-1.36,2.21,20.43,20.43,0,0,0-1.14,2.06c-.32.66-.63,1.29-.9,1.86l-.42.83c-.1.27-.21.53-.3.77-.38,1-.84,2-1.16,3s-.59,2-.89,3-.38,2.07-.57,3.1c0,.26-.1.51-.14.77l-.06.78-.12,1.57a37,37,0,0,0,1.2,12.25,39.38,39.38,0,0,0,5,10.93,37.73,37.73,0,0,0,8,8.58c.78.57,1.51,1.21,2.33,1.71l2.44,1.51c.82.49,1.7.86,2.54,1.29.43.2.84.43,1.28.61l1.32.49,1.32.49a8.57,8.57,0,0,0,1.33.42l2.7.71c.89.21,1.82.3,2.72.46l1.36.21c.45,0,.91.05,1.36.08l2.72.13,2.7-.13c.44,0,.89,0,1.34-.09l1.32-.2c.87-.15,1.76-.24,2.61-.44a39.45,39.45,0,0,0,5-1.48c.8-.33,1.64-.55,2.41-.95l2.3-1.13a37.52,37.52,0,0,0,8.16-5.83,41.69,41.69,0,0,0,3.38-3.54c.53-.61,1-1.29,1.46-1.93a20.29,20.29,0,0,0,1.36-2,38.33,38.33,0,0,0,5.83-17.29,39.13,39.13,0,0,0-10.86-30.32c-.88-.85-1.86-1.76-2.9-2.72L163,332a15.1,15.1,0,0,0-1.82-1.32l-1.92-1.26c-.64-.44-1.36-.74-2-1.12s-1.36-.75-2.07-1l-2.1-.86-1-.42-1-.31-2-.61a14,14,0,0,0-1.9-.44l-1.76-.35-.81-.16-.77-.08-1.35-.13Z"></path><path class="cls-7" d="M170.58,379.08a16.09,16.09,0,0,1-2.19-9.91.62.62,0,0,0-1-.52c-4.14,3.49-12.08,1.42-12.3-5.62.22-7,8.16-9.11,12.3-5.61a.62.62,0,0,0,1-.52,16.14,16.14,0,0,1,2.19-9.92l9.27,1.23L185.19,337l-12.38-.63-3.27,8.54a20,20,0,0,1-9.82-2.8.62.62,0,0,0-.93.67c1.43,5.51-5.15,11.19-9.76,8.76-7.33-3.33-5.73-11.94.15-13.86a.61.61,0,0,0,.09-1.15,16.13,16.13,0,0,1-7.42-7l5.8-7.34L140.78,312l-6.88,10.32,5.66,7.18a20,20,0,0,1-7.62,7.11.61.61,0,0,0,.11,1.12c6,1.87,8.36,9.75.46,13.89-4,2.34-11.39-2.61-9.73-8.76a.61.61,0,0,0-.9-.7,20.17,20.17,0,0,1-9.88,2.83l-3.27-8.54L96.34,337l5.35,11.18L111,347a16.09,16.09,0,0,1,2.18,9.91.62.62,0,0,0,1,.51c4.12-3.47,12.07-1.41,12.29,5.63-.22,7.05-8.17,9.1-12.29,5.63a.63.63,0,0,0-1,.52,16.07,16.07,0,0,1-2.18,9.9l-9.27-1.22L96.34,389l12.39.64,3.27-8.54a20.06,20.06,0,0,1,9.88,2.83.61.61,0,0,0,.9-.7c-1.66-6.15,5.75-11.11,9.73-8.76,7.9,4.14,5.59,12-.46,13.88a.62.62,0,0,0-.11,1.13,20,20,0,0,1,7.62,7.11c-2.61,3.7-7.56,5.49-12.83,6.41a.54.54,0,0,0-.08,1.05c5.75,1.9,11.12,5.29,14.13,10,2.47-4.42,7.37-7.29,13.23-9.56a.54.54,0,0,0-.12-1c-5.86-.9-10.65-2.64-12-7.06a16.16,16.16,0,0,1,7.42-6.95.61.61,0,0,0-.09-1.15c-5.88-1.92-7.48-10.53-.15-13.86,4.61-2.43,11.19,3.25,9.76,8.76a.62.62,0,0,0,.93.67,20,20,0,0,1,9.82-2.8l3.27,8.54,12.38-.64-5.34-11.17Z"></path><path class="cls-6" d="M170.58,379.08a16.09,16.09,0,0,1-2.19-9.91.62.62,0,0,0-1-.52c-4.14,3.49-12.08,1.42-12.3-5.62.22-7,8.16-9.11,12.3-5.61a.62.62,0,0,0,1-.52,16.14,16.14,0,0,1,2.19-9.92l9.27,1.23L185.19,337l-12.38-.63-3.27,8.54a20,20,0,0,1-9.82-2.8.62.62,0,0,0-.93.67c1.43,5.51-5.15,11.19-9.76,8.76-7.33-3.33-5.73-11.94.15-13.86a.61.61,0,0,0,.09-1.15,16.13,16.13,0,0,1-7.42-7l5.8-7.34L140.78,312l-6.88,10.32,5.66,7.18a20,20,0,0,1-7.62,7.11.61.61,0,0,0,.11,1.12c6,1.87,8.36,9.75.46,13.89-4,2.34-11.39-2.61-9.73-8.76a.61.61,0,0,0-.9-.7,20.17,20.17,0,0,1-9.88,2.83l-3.27-8.54L96.34,337l5.35,11.18L111,347a16.09,16.09,0,0,1,2.18,9.91.62.62,0,0,0,1,.51c4.12-3.47,12.07-1.41,12.29,5.63-.22,7.05-8.17,9.1-12.29,5.63a.63.63,0,0,0-1,.52,16.07,16.07,0,0,1-2.18,9.9l-9.27-1.22L96.34,389l12.39.64,3.27-8.54a20.06,20.06,0,0,1,9.88,2.83.61.61,0,0,0,.9-.7c-1.66-6.15,5.75-11.11,9.73-8.76,7.9,4.14,5.59,12-.46,13.88a.62.62,0,0,0-.11,1.13,20,20,0,0,1,7.62,7.11c-2.61,3.7-7.56,5.49-12.83,6.41a.54.54,0,0,0-.08,1.05c5.75,1.9,11.12,5.29,14.13,10,2.47-4.42,7.37-7.29,13.23-9.56a.54.54,0,0,0-.12-1c-5.86-.9-10.65-2.64-12-7.06a16.16,16.16,0,0,1,7.42-6.95.61.61,0,0,0-.09-1.15c-5.88-1.92-7.48-10.53-.15-13.86,4.61-2.43,11.19,3.25,9.76,8.76a.62.62,0,0,0,.93.67,20,20,0,0,1,9.82-2.8l3.27,8.54,12.38-.64-5.34-11.17Z"></path><path d="M170.57,379.06c.42-.1,1.46-.28,3-.53l6.4-.94,5.75,11.78-13.23.74c-.66-1.68-1.33-3.41-2-5.16-.32-.84-.65-1.67-1-2.52l-.18-.46-.09-.22-.05-.12s-.07,0-.11,0c-.34,0-.63,0-1.06.07a19.16,19.16,0,0,0-5.29,1.31c-.44.18-.81.34-1.31.58l-.81.41a4.69,4.69,0,0,1-.79.35,1.29,1.29,0,0,1-.75.13.94.94,0,0,1-.65-.48c-.14-.23-.07-.48-.08-.77s0-.54,0-.84a8.33,8.33,0,0,0,0-1.18l-.15-.92-.29-.9-.4-.86A8.3,8.3,0,0,0,155,375.7a5.71,5.71,0,0,0-7.08.06,7.29,7.29,0,0,0-2.54,2.81,6.37,6.37,0,0,0-.6,3.67,6.77,6.77,0,0,0,1.48,3.41,6.87,6.87,0,0,0,1.38,1.26,10.2,10.2,0,0,0,1.09.61l1.05.61a1,1,0,0,1,.44,1c-.05.43-.38.6-.66.85-.6.45-1.64,1-2.1,1.3a15.23,15.23,0,0,0-2.9,2.46,16.26,16.26,0,0,0-1.17,1.46c-.17.26-.35.51-.51.78s-.21.36-.31.55a5.85,5.85,0,0,0,.22.56,5.63,5.63,0,0,0,.42.76,6.71,6.71,0,0,0,1.1,1.33,13.85,13.85,0,0,0,6.25,3,16.09,16.09,0,0,1,4.1,1.16.76.76,0,0,1,.41.72,1,1,0,0,1-.11.44,1,1,0,0,1-.27.24l-.56.45c-.22.15-.57.33-.85.5l-1.26.54-.63.28c-.2.08-.43.2-.54.25q-.83.39-1.59.81a28.88,28.88,0,0,0-2.89,1.78,18.44,18.44,0,0,0-2.4,2c-.37.34-.68.72-1,1.07l-.52.66c-.22.3-.42.64-.62.95-.37.55-.68,1.11-1,1.68l-1.12-1.61-.59-.81c-.11-.14-.19-.26-.32-.4l-.2-.24a19.61,19.61,0,0,0-1.75-1.78,24.56,24.56,0,0,0-4.09-3c-.73-.44-1.49-.83-2.26-1.21l-.58-.26-.3-.14a5,5,0,0,0-.49-.2l-1-.4-.5-.19-.41-.21-.84-.41-.2-.1-.1-.09-.2-.18c-.26-.25-.62-.37-.59-1a1,1,0,0,1,.26-.64l.43-.3.21-.15c.07-.05.24-.1.36-.16l.77-.32c.84-.19,1.72-.36,2.53-.58l.43-.12.37-.12c.24-.08.49-.14.73-.23a19.45,19.45,0,0,0,2.82-1.17,13.55,13.55,0,0,0,2.51-1.6,10.23,10.23,0,0,0,1.08-1l.18-.2.09-.1c0-.08.13-.16.14-.23l-.17-.25-.29-.41c-.31-.41-.64-.79-1-1.18a18.47,18.47,0,0,0-2.23-2.1c-.4-.32-.81-.63-1.24-.92l-.32-.22-.58-.36c-.39-.23-.75-.49-1.12-.73-.19-.12-.23-.25-.36-.38a4.68,4.68,0,0,1-.29-.37,1.56,1.56,0,0,1-.11-1.06,1.12,1.12,0,0,1,.6-.77l.91-.64a9,9,0,0,0,.88-.39l.53-.29c.26-.18.51-.38.76-.56s.45-.44.68-.66l.56-.74a5.36,5.36,0,0,0,.87-3.47c-.2-2.42-2.32-4.49-4.71-5.58a4.3,4.3,0,0,0-3.41.15,7.41,7.41,0,0,0-3,2.28,5.72,5.72,0,0,0-1.29,3.41v.23a4.26,4.26,0,0,0,0,.5l.09.53c0,.16,0,.28,0,.42l0,.81,0,.41a.77.77,0,0,1-.11.3,1.78,1.78,0,0,1-1.24.82A3.39,3.39,0,0,1,121,385c-.3-.18-.6-.33-.91-.49l-.46-.23-.27-.12q-.48-.23-1-.42a20.09,20.09,0,0,0-2-.67,18.58,18.58,0,0,0-2.1-.42c-.34-.05-.74-.08-1-.11H113c-.06,0-.06.12-.1.18l-.35.93-.82,2.17-2,5.29-15.54-.76,6.69-14.08,6.63.86,2.6.33s.11,0,.13,0l.28-.58a14.47,14.47,0,0,0,1.2-4.84c0-.21,0-.42,0-.63s0-.21,0-.32,0-.41,0-.63l0-1.3v-.32l.08-.22.17-.43a1,1,0,0,1,.19-.38,2.61,2.61,0,0,1,.33-.34,2.16,2.16,0,0,1,.92-.41,1,1,0,0,1,.41,0l.48.15.48.16.24.07.13,0,.14.11a5.74,5.74,0,0,0,.92.58l.27.14a1.8,1.8,0,0,0,.21.08,5,5,0,0,0,.86.26,4.45,4.45,0,0,0,.89.13l.45,0,.46,0a6.42,6.42,0,0,0,3.34-1.16,5.49,5.49,0,0,0,2-2.76l.21-.85.09-.86a6.61,6.61,0,0,0-.26-1.7,5.7,5.7,0,0,0-5-4.06,6.29,6.29,0,0,0-3.34.53c-1.14.72-2.3,1.36-3.12,1.18a2.17,2.17,0,0,1-1.25-.85c-.1-.2-.18-.44-.28-.66s-.11-.18-.11-.37l0-.49c0-.32,0-.63,0-.94V355c0-.29,0-.57,0-.85,0-.57-.12-1.12-.21-1.66a13.82,13.82,0,0,0-1-3.08l-.27-.58,0,0h0l-.47.06-3.46.47-5.4.72-6.94-14.47,16.06-.84,2.43,6.32.85,2.22h0l.63-.06a17.91,17.91,0,0,0,4.86-1.29l.58-.26.34-.15.61-.32c.81-.4,1.68-.88,2.21-.75a2.15,2.15,0,0,1,1.67.9c0,.06.08.12.12.17l0,.08,0,.13.06.53.13,1.06a5,5,0,0,0-.16,1.18v.5l.14.83c.1.27.16.56.28.82a7.22,7.22,0,0,0,.41.78,7,7,0,0,0,2.65,2.43,4.73,4.73,0,0,0,3.21.6,2,2,0,0,0,.66-.24c.23-.1.57-.33.84-.48a4.51,4.51,0,0,0,.82-.55c.24-.2.51-.38.73-.6a5,5,0,0,0,1.38-6.14,6.09,6.09,0,0,0-2.37-2.46l-.37-.21a3,3,0,0,0-.51-.23,2.23,2.23,0,0,1-.51-.22l-.33-.26-.68-.52-.33-.26a2.87,2.87,0,0,1-.14-.3,2.38,2.38,0,0,1,0-1.58,2.92,2.92,0,0,1,1.06-1.24c.36-.2.69-.4,1-.61l.49-.3.25-.17c.3-.2.59-.42.88-.64a18.34,18.34,0,0,0,1.64-1.4,19.54,19.54,0,0,0,1.44-1.58l.33-.42.27-.37.05-.08-5.64-7.18,8.9-13.31c3,4.58,5.94,9,8.82,13.3q-2.16,2.71-4.26,5.38l-1.57,2s-.05.05,0,.08l.05.09.35.52a14.23,14.23,0,0,0,3.53,3.48l.53.35.94.56,1.1.65.14.08.06.09.14.17.27.36a2,2,0,0,1,.12,1.8c-.06.24-.38.42-.64.64l-.79.63a6.16,6.16,0,0,0-1,.49l-.47.28c-.23.21-.48.38-.7.59a6.66,6.66,0,0,0-1.07,1.47,5.85,5.85,0,0,0-.58,3.5,5.57,5.57,0,0,0,1.6,3.12l.32.33.37.28a5.61,5.61,0,0,0,.78.53l.87.48a8.15,8.15,0,0,0,.77.3c2,.57,4.63-.78,6-2.76a6.09,6.09,0,0,0,1.18-3.25v-.37a3.13,3.13,0,0,0-.05-.5,5,5,0,0,1-.07-.5l.05-.38.09-.75a.93.93,0,0,1,.23-.61,1.86,1.86,0,0,1,1.26-.71,3.36,3.36,0,0,1,1.46.32c.34.2.66.36,1,.52l.47.24.26.12c.35.16.7.31,1.06.44a16.89,16.89,0,0,0,2.12.69,16.32,16.32,0,0,0,2.15.42c.93.09.93.13,1.08.06,1.12-2.88,2.21-5.68,3.29-8.44L187,336l-6.53,13.45-6.71-.93-2.45-.35c-.22-.1-.28.11-.37.28l-.08.13-.14.29c-.09.19-.18.39-.26.58a14.61,14.61,0,0,0-1.16,4.91l0,.62v1c0,.34,0,.7,0,1l-.18.75a1.29,1.29,0,0,1-1.24.82,2.81,2.81,0,0,1-.73-.26,6.68,6.68,0,0,1-.77-.37,5.31,5.31,0,0,0-.82-.5,2.79,2.79,0,0,0-.51-.23,6.36,6.36,0,0,0-1-.3,7.33,7.33,0,0,0-2.14-.13,6.84,6.84,0,0,0-3.79,1.56,6.18,6.18,0,0,0-2,3.39,6.52,6.52,0,0,0,.28,3.86,6.62,6.62,0,0,0,5.9,4.13l.47,0,.47,0,.47,0,.46-.09a4.5,4.5,0,0,0,.89-.24l.44-.15.51-.26.6-.36.52-.26.52-.25a.86.86,0,0,1,.53,0,.94.94,0,0,1,.74.78,7.82,7.82,0,0,1,.09,1.16c0,.31,0,.62,0,.92s0,.47,0,.71a12.27,12.27,0,0,0,.09,1.23,15.49,15.49,0,0,0,.4,2.25,15.12,15.12,0,0,0,1.58,3.84,15.29,15.29,0,0,1-2.5-8.71v-1a.66.66,0,0,0-.55-.71c-.36-.07-.62.23-.9.42a4.86,4.86,0,0,1-.85.57,7.71,7.71,0,0,1-3.95,1,8.11,8.11,0,0,1-4.12-1.21,7.17,7.17,0,0,1-2.88-3.44,7.77,7.77,0,0,1,2.1-8.78,8.17,8.17,0,0,1,4.58-1.91,7.71,7.71,0,0,1,1.27,0l.64,0,.64.12a7.7,7.7,0,0,1,1.25.34,2.79,2.79,0,0,1,.57.24l.29.14a5.7,5.7,0,0,0,.57.34c.24.06.43-.22.35-.45s0-.45-.06-.67v-.56c0-.24,0-.49,0-.73a16.66,16.66,0,0,1,1.35-5.75l.16-.34.08-.17.13-.24c.17-.33.34-.66.53-1l.28-.5a2.08,2.08,0,0,1,.55,0l1.14.13,2.84.33,2.76.31,1.37.16.21,0h.27l.08-.19,0-.1.15-.33.65-1.43c.44-.95.88-1.89,1.31-2.83s.86-1.88,1.29-2.8a3.79,3.79,0,0,0,.27-.63l.08-.2h-.37l-.69,0-3.13-.12-3.07-.12-1.51-.07h-.36c0,.06,0,0,0,.14-.14.4-.29.79-.44,1.18-.29.79-.58,1.57-.87,2.33l-.85,2.27c-.22.59-.45,1.18-.67,1.76l-.21.54-.1.26s0,.12-.07.11h-.15l-1.14,0-1.08-.05-.39,0-.31,0c-.41,0-.82-.09-1.22-.16a21.37,21.37,0,0,1-2.33-.52c-.76-.22-1.48-.47-2.18-.75q-.51-.21-1-.45l-.13-.06h0s0,0,0,0v.29a2.58,2.58,0,0,1,0,.4l-.12.77a9.56,9.56,0,0,1-2.56,4.74,9.89,9.89,0,0,1-3.17,2.23,7.84,7.84,0,0,1-4,.71,6.78,6.78,0,0,1-2-.55,5.75,5.75,0,0,1-.86-.42l-.79-.44a13.49,13.49,0,0,1-1.51-1.13,9.62,9.62,0,0,1-1.27-1.43,8.63,8.63,0,0,1,.37-10.54l.62-.69c.21-.21.46-.39.69-.59a4.76,4.76,0,0,1,.74-.53l.1-.05h0l0,0,.06,0,.25-.1a.12.12,0,0,0-.06-.21l-.28-.17-.41-.28c-.22-.14-.43-.28-.63-.43a16.81,16.81,0,0,1-4.23-4.39l-.21-.32-.3-.52c-.2-.34-.4-.7-.6-1.05l-.14-.27c0-.08.11-.16.16-.24l.37-.48.73-.91c.58-.72,1.15-1.44,1.73-2.15l2.84-3.53c-1.85-2.84-3.7-5.65-5.4-8.27l-5.63,8.29,2.47,3.19,1.46,1.86.86,1.11.56.72.14.18c.05.06.12.12,0,.19l-.25.39-.49.74-.24.36-.12.18-.1.12q-.36.5-.75,1a21.19,21.19,0,0,1-1.65,1.76,21.68,21.68,0,0,1-1.82,1.53l-1,.68-.32.2-.22.14-.47.27a.29.29,0,0,0,0,.46,4.34,4.34,0,0,0,.5.2l.24.12.4.23a8.36,8.36,0,0,1,3.33,3.75,7.3,7.3,0,0,1,.33,5,8.79,8.79,0,0,1-2.76,4.07l-1,.74-1,.61-.51.3-.6.27a6,6,0,0,1-1.26.34,7.88,7.88,0,0,1-4.75-1.11,9.3,9.3,0,0,1-3.38-3.33c-.19-.35-.36-.72-.54-1.08s-.25-.77-.36-1.15-.13-.8-.17-1.2l0-.86a5.13,5.13,0,0,0,.12-.77.34.34,0,0,0-.26-.27.48.48,0,0,0-.36.1c-.23.13-.46.25-.7.36l-.54.25c-.22.11-.45.2-.67.29a20.21,20.21,0,0,1-5.6,1.41l-.35,0-.46,0-1,0-.49,0a4.48,4.48,0,0,1-.19-.44l-.35-.92c-.34-.88-.67-1.76-1-2.63l-1.74-4.56-10.88.53,4.69,9.85,4.24-.56,2.34-.3,1.19-.16.8-.11.4,0c.13,0,.3-.1.34.08.27.46.53.94.77,1.39s.34.73.5,1.1a16,16,0,0,1,.73,2.29,15.78,15.78,0,0,1,.39,2.35c0,.39.06.78.07,1.17v.82l0,.69a.37.37,0,0,0,.49.34,4.35,4.35,0,0,0,.57-.38,6.38,6.38,0,0,1,.7-.38,8.39,8.39,0,0,1,4.71-.57,8.21,8.21,0,0,1,4.27,2,7.52,7.52,0,0,1,2.34,4.07,7.84,7.84,0,0,1-3.29,8.28,8.6,8.6,0,0,1-4.4,1.37,8.17,8.17,0,0,1-2.31-.23,11,11,0,0,1-1.11-.35,3.88,3.88,0,0,1-.49-.23L115,370a5.38,5.38,0,0,0-.71-.46.35.35,0,0,0-.38.14.53.53,0,0,0-.06.41c0,.29,0,.57,0,.86,0,.1,0,.41,0,.63s0,.49,0,.73a16.22,16.22,0,0,1-1.46,5.61c-.1.22-.2.43-.37.74s-.31.56-.47.84l-.12.21-.07.1h-.12l-.47-.06-1-.12-2.74-.36-4.93-.64-4.64,9.77,10.78.53c.5-1.3,1-2.59,1.48-3.88l.82-2.17.45-1.18.31-.79.15-.38c0-.05,0-.18.11-.15h.21c.56,0,1.1,0,1.63.07l1.2.13a23.1,23.1,0,0,1,2.34.48,21.92,21.92,0,0,1,2.25.74c.37.15.73.3,1.09.47l.39.18.27.14.54.28a.32.32,0,0,0,.44-.29c0-.21-.07-.4-.11-.61a1.51,1.51,0,0,1,0-.3v-.51a7.85,7.85,0,0,1,1.82-4.64,9.56,9.56,0,0,1,4-2.89,8.13,8.13,0,0,1,2.46-.53,5.52,5.52,0,0,1,2.55.53,17.16,17.16,0,0,1,2.06,1.23l.94.75.85.87a7.85,7.85,0,0,1,2,4.48,7.41,7.41,0,0,1-1.26,4.72c-.25.32-.48.66-.75,1s-.57.58-.87.84-.64.49-1,.71l-.68.37-.37.15c-.12,0-.27.08-.32.22a.29.29,0,0,0,.11.35l.34.2.35.21.17.11.35.24c.47.32.93.67,1.37,1a20.18,20.18,0,0,1,2.45,2.35c.37.43.74.87,1.07,1.32.14.19.39.56.61.88s.44.69.66,1a8.76,8.76,0,0,1-.7,1,10.87,10.87,0,0,1-.73.85,14.1,14.1,0,0,1-1.28,1.16,16.58,16.58,0,0,1-2.86,1.81,23.94,23.94,0,0,1-3.08,1.25c-.25.09-.52.16-.78.24l-.39.12-.33.09-.71.18-.6.12c-.17,0-.46,0-.47.28s.27.27.44.34l.57.21.56.23,1.05.49c.82.4,1.62.82,2.39,1.29a26.06,26.06,0,0,1,4.37,3.22,21.87,21.87,0,0,1,1.89,2l.21.25.08.1.18.23c.12.15.22.34.33.46a5.1,5.1,0,0,1,.45-.69l.47-.59.66-.73a21.11,21.11,0,0,1,2.95-2.5,27.6,27.6,0,0,1,3.23-2c.55-.3,1.11-.58,1.67-.84l.43-.19.37-.16.52-.22c.16-.07.42-.11.41-.34a.25.25,0,0,0-.16-.21l-.28-.05-.56-.1-.55-.12-1-.26a20.76,20.76,0,0,1-2.51-.88,11.13,11.13,0,0,1-4.43-3.18,7.59,7.59,0,0,1-.78-1.16l-.32-.64-.34-.9-.09-.23c0-.07-.08-.15,0-.22l.23-.42c.14-.26.35-.61.45-.76.23-.38.48-.74.74-1.1a16.59,16.59,0,0,1,3.74-3.65l.53-.37c.17-.1.41-.27.48-.3l.56-.32c.16-.1.39-.13.45-.34s-.15-.35-.33-.4a3,3,0,0,1-.51-.24l-.45-.27c-.19-.12-.35-.29-.53-.43l-.52-.44-.45-.51a6.57,6.57,0,0,1-.8-1.1,7.93,7.93,0,0,1,1.43-10.08,9.78,9.78,0,0,1,2.4-1.63,9.32,9.32,0,0,1,1.43-.61,6.36,6.36,0,0,1,1.62-.2,7,7,0,0,1,3.17.75,9.57,9.57,0,0,1,4.55,4.8,4.8,4.8,0,0,1,.29.83,4.34,4.34,0,0,1,.21.88,8.85,8.85,0,0,1,.11.9v.61a7,7,0,0,0-.12.8.39.39,0,0,0,.65.18c.24-.13.47-.24.75-.37l.55-.25.67-.28a19.74,19.74,0,0,1,5.61-1.35l.35,0,.46,0,.92,0h.23c.07,0,.19-.06.19.05l.17.44.33.86,1,2.62q.89,2.39,1.72,4.67l11.62-.42c-1.94-4.23-3.65-7.93-5-10.78Z"></path><polygon class="cls-5" points="140.87 371.49 134.55 364.89 140.87 354.58 147.39 364.89 140.87 371.49"></polygon><path d="M140.86,371.48a18,18,0,0,1,2.41-2.85l2-2.12.88-1,.38-.42.15-.2.08-.11-.24-.27-.41-.56-.87-1.23-1.74-2.54-1.73-2.58-.8-1.21-.06-.05,0,.06v0s0,0-.07.12l-.37.61-.73,1.22-1.48,2.4-1.47,2.32-.73,1.13-.18.28c-.06.09-.14.21-.13.18l-.05.06,0,.07.14.16.21.24.83.94,1.56,1.82c1,1.18,1.88,2.28,2.65,3.28a26.24,26.24,0,0,1-6.53-5l-.18-.22-.32-.37-.61-.71.84-1.24.48-.66.93-1.31,1.74-2.55,1.62-2.48,1.82-2.91c.73,1.14,1.43,2.25,2.12,3.32l1.72,2.63c.56.84,1.11,1.66,1.63,2.46l1.76,2.7-1.72,1.74L145,368C143.76,369.25,141.35,371.12,140.86,371.48Z"></path><rect class="cls-5" height="4.33" rx="2.16" width="14.23" x="132.92" y="431.61"></rect><path d="M145,435.92c.07-.08.42-.12.84-.37a2,2,0,0,0,1-1.36,1.81,1.81,0,0,0-.6-1.71,1.7,1.7,0,0,0-.74-.36,2.34,2.34,0,0,0-.7,0c-1.66.16-3.44.26-5.24.33l-2.69.08-1.33,0a1.75,1.75,0,0,0-.89.13,1.24,1.24,0,0,0-.68,1,1.17,1.17,0,0,0,.43,1.05c.35.28.59.29,1.44.3l2.07.07c2.72.12,5.17.32,7.12.6a16.73,16.73,0,0,1-6.34,1.26c-1.22-.15-2.4-.26-3.54-.35a2.76,2.76,0,0,1-2.63-2.68,2.62,2.62,0,0,1,2.18-2.62,3.13,3.13,0,0,1,.44,0h1.11l1.44,0,5.3-.13,1.22,0a8.07,8.07,0,0,1,1.27,0,2.59,2.59,0,0,1,2,1.71,2.28,2.28,0,0,1,.06,1.4,2.34,2.34,0,0,1-.78,1.23A2.11,2.11,0,0,1,145,435.92Z"></path><path class="cls-4" d="M145.58,577.59H134.5s-4.84,12,5.47,12.08h.14C150.42,589.56,145.58,577.59,145.58,577.59Z"></path><path d="M145.61,577.58c.36,0,1.13,1.62,1.55,3.61a13.13,13.13,0,0,1,.29,3.13,9.29,9.29,0,0,1-.5,2.7,5.72,5.72,0,0,1-2.73,3.22,9.54,9.54,0,0,1-4.09,1.09l1.64-1.66h0l.09,1.66H140l-1.56.18-.1-1.84h0l1.64,1.67a10.17,10.17,0,0,1-4-.58,6.83,6.83,0,0,1-3.41-2.78,8.14,8.14,0,0,1-1.16-3.61,13.36,13.36,0,0,1,.14-3.37c.09-.53.2-1,.33-1.55l.22-.75.16-.52c.07-.21.14-.42.22-.63.15-.43.33-.82.49-1.22l.12-.29.07-.15s0-.11.1-.09l.65,0c.42,0,.85,0,1.29,0l.64,0,.38,0a69.76,69.76,0,0,1,9.35,1.19c-2.3,1.66-6.76,2.82-8.34,2.53l-1.31-.24a.89.89,0,0,0-.33-.2c-.1,0-.18.11-.27.22a.42.42,0,0,0-.08.13l-.11.28-.21.57a9.85,9.85,0,0,0-.6,4.48,4.22,4.22,0,0,0,2,3.23,6.94,6.94,0,0,0,3.68.78l.83,0,0,.89h0l-.87-.88h.14l-.88.88h0l0-.83.9-.05a6,6,0,0,0,4.4-1.77,6.83,6.83,0,0,0,1.19-4c0-.82.08-2,.05-3.07S145.64,577.9,145.61,577.58Z"></path><rect class="cls-5" height="4.33" rx="2.16" width="14.23" x="132.92" y="573.76"></rect><path d="M145,578.07c.07-.08.42-.12.84-.37a2,2,0,0,0,1-1.36,1.79,1.79,0,0,0-.6-1.71,1.6,1.6,0,0,0-.74-.36,2.05,2.05,0,0,0-.7,0c-1.66.16-3.44.26-5.24.32l-2.69.09-1.33,0a1.75,1.75,0,0,0-.89.13,1.24,1.24,0,0,0-.68.95,1.18,1.18,0,0,0,.43,1.06c.35.28.59.29,1.44.3l2.07.07c2.72.12,5.17.32,7.12.59a16.57,16.57,0,0,1-6.34,1.27c-1.22-.15-2.4-.26-3.54-.35a2.76,2.76,0,0,1-2.63-2.68,2.62,2.62,0,0,1,2.18-2.62,2.12,2.12,0,0,1,.44,0h1.11l1.44,0,5.3-.13,1.22,0a9.34,9.34,0,0,1,1.27,0,2.62,2.62,0,0,1,2,1.72,2.28,2.28,0,0,1,.06,1.4,2.34,2.34,0,0,1-.78,1.23A2.14,2.14,0,0,1,145,578.07Z"></path><ellipse class="cls-8 color-body" cx="137.19" cy="464.57" rx="22.1" ry="18.21" transform="translate(-347.21 465.26) rotate(-73.63)" style="fill:#ffffff;--backup-fill:#ffffff"></ellipse><path d="M154.6,469.68a2.4,2.4,0,0,1-.12-1.21c0-.31.05-.67.09-1.07s.05-.85.07-1.34a28.15,28.15,0,0,0-.37-7.13,20.19,20.19,0,0,0-3-7.42,13.54,13.54,0,0,0-4.55-4.33l-.92-.47c-.31-.15-.64-.25-1-.38a13,13,0,0,0-6.07-.78,15.62,15.62,0,0,0-7.71,3.11,21.56,21.56,0,0,0-5.63,6.56,23.71,23.71,0,0,0-2.66,8.12,20.35,20.35,0,0,0,2.59,13.46,12.36,12.36,0,0,0,10.11,6c4,.19,8.05-1.66,11.14-4.26a27.17,27.17,0,0,0,6.92-9.19,15.85,15.85,0,0,1-.23,6.33,20.09,20.09,0,0,1-3.13,7,19.19,19.19,0,0,1-5.52,5.19,13.49,13.49,0,0,1-5.42,2A20,20,0,0,1,131,489a19,19,0,0,1-6.74-3.91,19.7,19.7,0,0,1-4.41-5.74,23.53,23.53,0,0,1-2.26-6.38,28.5,28.5,0,0,1,.3-12.53,28.8,28.8,0,0,1,5-10.6,25.38,25.38,0,0,1,3.87-4.14A21.47,21.47,0,0,1,129,444c.39-.25.77-.51,1.17-.74l1.24-.64A18.34,18.34,0,0,1,142,440.87a17.37,17.37,0,0,1,9.2,4.48,19.22,19.22,0,0,1,5,8,20.27,20.27,0,0,1,.64,9.84A23.3,23.3,0,0,1,154.6,469.68Z"></path><path class="cls-5" d="M151,358.81a.11.11,0,0,0,.22,0c.21-1.4,1.11-5.78,5.13-6.69a.11.11,0,0,0,0-.22c-4.06-.46-5.13-5-5.39-6.49,0-.12-.21-.13-.22,0-.31,2.06-1.66,6.11-5.33,6.79a.11.11,0,0,0,0,.21C149.5,353.35,150.57,357.44,151,358.81Z"></path><path class="cls-9" d="M151,358.82c-.22-.09-.62-1.5-1.48-2.87a7.38,7.38,0,0,0-1.58-1.83,3.45,3.45,0,0,0-.45-.33,3,3,0,0,0-.5-.29c-.44-.2-.86-.39-1.23-.54l-.46-.19-.24-.14-.21-.15a.23.23,0,0,1-.13-.26c.07-.16.18-.21.26-.33s.19-.15.3-.23l.39-.27c.32-.12.61-.27.93-.41l.23-.1.1-.08.21-.16a5.37,5.37,0,0,0,.72-.71,7.62,7.62,0,0,0,1.1-1.75l.1-.24.17-.42.17-.46c0-.17.1-.38.15-.58.11-.4.21-.78.33-1.15l.09-.28c0-.1.05-.2.09-.21l.19-.18a1,1,0,0,1,.3-.21l.09-.05a.29.29,0,0,1,.15,0,1.12,1.12,0,0,1,.22,0l.09,0a1,1,0,0,1,.29.13l.12.06a2.19,2.19,0,0,1,.14.2,1.82,1.82,0,0,1,.27.47c.11.43.19.94.33,1.31s.25.78.42,1.14a7.28,7.28,0,0,0,.48.92,5.58,5.58,0,0,0,1.26,1.46l.38.26a2.66,2.66,0,0,0,.46.18l.58.2a4.44,4.44,0,0,1,.92.43l.39.23c.09,0,.07.06.09.08l0,.07.11.27a.66.66,0,0,1,0,.28l-.07.14-.07.14,0,.07s0,.05-.1.09l-.68.48a7.63,7.63,0,0,0-1.1.44l-.26.11a.73.73,0,0,0-.19.1l-.2.13a6,6,0,0,0-.73.6,6.84,6.84,0,0,0-1.15,1.48,11.64,11.64,0,0,0-.78,1.64c-.11.28-.21.55-.29.82l-.12.4,0,.1a.5.5,0,0,1-.2.3.41.41,0,0,1-.61-.24.36.36,0,0,0,.51.17.3.3,0,0,0,.14-.22.37.37,0,0,0,0-.12c0-.14-.05-.29-.07-.44a7.87,7.87,0,0,1,0-1,7.41,7.41,0,0,1,.37-2.14,5.44,5.44,0,0,1,2.21-3c.07,0,.08,0,.15,0l.39,0c.11,0,.14-.08.11-.08l-.08,0a3.17,3.17,0,0,1-.29-.2l-.41-.3a4.63,4.63,0,0,1-.48-.4,7.53,7.53,0,0,1-1.43-1.9l-.25-.51-.2-.46-.21-.61c-.07-.27-.14-.55-.2-.82l0-.21c0-.07-.14,0-.13,0s-.05.27-.08.4a5.77,5.77,0,0,1-.2.77c-.05.13-.08.24-.14.38s-.09.26-.2.48a8.38,8.38,0,0,1-1.37,2.12,5.54,5.54,0,0,1-.9.85l-.24.17-.18.13-.23.14c-.12,0-.22.1-.33.13l-.16,0c-.05,0-.12.06-.05.11a3.54,3.54,0,0,1,.65.21l.37.21c.21.15.42.3.62.46a7.27,7.27,0,0,1,1,1.06,7.62,7.62,0,0,1,1.26,2.57A15.79,15.79,0,0,1,151,358.82Z"></path><path class="cls-5" d="M95.23,367.27a.11.11,0,0,0,.22,0c.21-1.42,1.14-5.88,5.22-6.81a.11.11,0,0,0,0-.22c-4.14-.47-5.23-5.08-5.5-6.61a.11.11,0,0,0-.22,0c-.31,2.1-1.69,6.22-5.43,6.91a.11.11,0,0,0,0,.22C93.69,361.71,94.78,365.87,95.23,367.27Z"></path><path class="cls-9" d="M95.21,367.28c-.21-.09-.62-1.53-1.5-2.93a7.27,7.27,0,0,0-1.61-1.87,3.45,3.45,0,0,0-.45-.33,3.63,3.63,0,0,0-.51-.3c-.44-.2-.86-.39-1.25-.54l-.47-.19a2.52,2.52,0,0,1-.24-.15l-.21-.15a.23.23,0,0,1-.14-.26c.06-.17.18-.22.26-.34a1.35,1.35,0,0,1,.3-.23l.39-.27c.34-.11.62-.27,1-.41l.24-.11.11-.08.21-.16a5,5,0,0,0,.73-.72,7.41,7.41,0,0,0,1.12-1.79l.12-.24.12-.32a7.24,7.24,0,0,0,.36-1.11c.11-.41.22-.8.33-1.19l.09-.29c0-.1,0-.22.09-.23l.2-.19a.88.88,0,0,1,.3-.22.57.57,0,0,1,.25-.09c.15,0,.21,0,.22,0l.1,0a1.08,1.08,0,0,1,.3.14l.11.07s.09.13.14.19.18.28.26.47c.12.44.21.94.34,1.34s.26.79.42,1.14a7.6,7.6,0,0,0,.49.94,5.63,5.63,0,0,0,1.28,1.49l.39.27s0,0,.13.07l.29.11.57.2a4.61,4.61,0,0,1,1,.43l.41.22.1.06s0,0,0,0l0,.07.12.27a.94.94,0,0,1,0,.29.51.51,0,0,1-.07.15,1,1,0,0,1-.19.3l-.7.48a2.85,2.85,0,0,0-.59.21l-.52.23-.47.22-.2.14a6.16,6.16,0,0,0-.75.6A7.09,7.09,0,0,0,97,364.27a11.23,11.23,0,0,0-.81,1.68c-.1.28-.2.56-.29.83l-.12.41,0,.1a.46.46,0,0,1-.2.3.41.41,0,0,1-.61-.23.35.35,0,0,0,.51.17.32.32,0,0,0,.14-.22.33.33,0,0,0,0-.12c0-.15,0-.3-.06-.45a6.61,6.61,0,0,1,0-1,7.35,7.35,0,0,1,.38-2.18,5.55,5.55,0,0,1,2.25-3.05,1.15,1.15,0,0,1,.18,0l.4,0s.1,0,.11-.05,0,0,0,0l-.09,0-.31-.21L98,359.8a3.94,3.94,0,0,1-.49-.41A7.74,7.74,0,0,1,96,357.45a7.59,7.59,0,0,1-.46-1,6.45,6.45,0,0,1-.21-.62,8.52,8.52,0,0,1-.2-.84c0-.07,0-.14,0-.21a.07.07,0,0,0-.13.06c0,.13,0,.27-.08.4s-.13.54-.21.79a6.53,6.53,0,0,1-.36.89,9,9,0,0,1-1.39,2.16A6.28,6.28,0,0,1,92,360l-.25.18-.12.09-.06,0-.23.13a1.58,1.58,0,0,1-.34.13l-.16.05c-.06,0-.12.07,0,.11a2.64,2.64,0,0,1,.67.22l.38.22c.21.15.43.3.63.46a6.61,6.61,0,0,1,1,1.08,7.76,7.76,0,0,1,1.28,2.61A15.09,15.09,0,0,1,95.21,367.28Z"></path><path class="cls-5" d="M183.73,377.24a.13.13,0,0,0,.26,0c.25-1.67,1.34-6.94,6.17-8a.13.13,0,0,0,0-.26c-4.89-.55-6.17-6-6.49-7.79a.13.13,0,0,0-.26,0c-.37,2.47-2,7.33-6.4,8.15a.13.13,0,0,0,0,.26C181.91,370.68,183.2,375.59,183.73,377.24Z"></path><path class="cls-9" d="M183.72,377.25c-.23-.12-.7-1.81-1.73-3.48a8.91,8.91,0,0,0-1.9-2.23,6.85,6.85,0,0,0-1.08-.73l-.26-.13a2.76,2.76,0,0,0-.39-.18l-.76-.29-.54-.2a1.13,1.13,0,0,1-.3-.17c-.16-.12-.37-.19-.47-.39a.32.32,0,0,1,0-.2l.08-.08.18-.18.08-.09a.33.33,0,0,1,.15-.12l.48-.29a5.2,5.2,0,0,0,1.15-.45l.35-.21.25-.19a5.63,5.63,0,0,0,.92-.84,9.08,9.08,0,0,0,1.42-2.16c.09-.2.19-.39.27-.6l.12-.31a2.68,2.68,0,0,0,.09-.27l.11-.33a10.72,10.72,0,0,0,.38-1.42l.17-.79.24-.34a.87.87,0,0,1,.4-.39.73.73,0,0,1,.28-.12,1.06,1.06,0,0,1,.29,0l.12,0,.16.07a1.19,1.19,0,0,1,.22.16c.06.07.13.06.2.2l.2.44c.11.58.25,1,.39,1.53a7.36,7.36,0,0,0,.21.71l.21.51a11.18,11.18,0,0,0,.57,1.15,7,7,0,0,0,1.52,1.87,4.93,4.93,0,0,0,1,.65,10,10,0,0,0,1.26.5c.4.15.85.3,1.19.45l.17.34a.61.61,0,0,1,.08.21.67.67,0,0,1,0,.2.28.28,0,0,1,0,.11l-.21.35-.05.09-.22.14-.46.29-.75.22a6.45,6.45,0,0,0-.64.28l-.41.23a1.4,1.4,0,0,0-.26.16,7.29,7.29,0,0,0-.93.73,9.46,9.46,0,0,0-1.44,1.86,13.92,13.92,0,0,0-1,2c-.12.34-.23.68-.33,1l-.14.5,0,.12a.48.48,0,0,1-.19.32.44.44,0,0,1-.66-.24.39.39,0,0,0,.54.19.29.29,0,0,0,.15-.24.57.57,0,0,0,0-.14c0-.17,0-.34,0-.53a9,9,0,0,1,0-1.17,9.66,9.66,0,0,1,.52-2.53,6.74,6.74,0,0,1,2.64-3.51l.32-.16c.06,0,.05,0,.07,0h.11a3,3,0,0,0,.47-.07c.07-.11-.07-.07-.16-.15l-.19-.11-.12-.08c-.08-.05-.21-.11-.31-.18l-.62-.45c-.19-.16-.37-.33-.55-.5a9.48,9.48,0,0,1-1.64-2.31,10.21,10.21,0,0,1-.54-1.23c-.09-.24-.17-.48-.24-.74s-.16-.66-.22-1c0-.09-.09-.18-.16-.11a2,2,0,0,0-.05.24c0,.16-.06.32-.1.48-.08.32-.16.62-.26.91,0,.08,0,.14-.08.23l-.15.36c-.09.24-.21.46-.32.7a9.92,9.92,0,0,1-1.69,2.47,7.35,7.35,0,0,1-1.12,1c-.1.06-.19.14-.3.2l-.24.14a1.91,1.91,0,0,1-.28.15,2.14,2.14,0,0,1-.38.13,1.06,1.06,0,0,0-.19.06c-.07.05,0,.12.09.12a3.88,3.88,0,0,1,.75.26s.41.22.63.37.49.34.71.53a8.54,8.54,0,0,1,1.18,1.23,9.29,9.29,0,0,1,1.53,3A19.72,19.72,0,0,1,183.72,377.25Z"></path><path class="cls-5" d="M117.39,340.19a.17.17,0,0,0,.33,0c.38-2.08,1.93-8.59,8-9.77a.17.17,0,0,0,0-.33c-6.06-.86-7.46-7.68-7.78-9.94a.17.17,0,0,0-.33,0c-.54,3.06-2.76,9.05-8.27,9.9a.16.16,0,0,0,0,.32C115.38,332,116.8,338.11,117.39,340.19Z"></path><path class="cls-9" d="M117.38,340.19c-.25-.16-.75-2.29-1.95-4.43a11.28,11.28,0,0,0-2.28-2.87,8.64,8.64,0,0,0-1.32-1l-.64-.34c-.25-.12-.63-.25-.91-.36l-.63-.23a.69.69,0,0,1-.23-.11l-.16-.1c-.21-.14-.43-.29-.62-.44s-.08-.36,0-.39l.24-.2a1.86,1.86,0,0,1,.77-.49,10.25,10.25,0,0,0,1.47-.51c.24-.14.48-.24.7-.39a9.46,9.46,0,0,0,1.27-1,10.85,10.85,0,0,0,2-2.69,16.73,16.73,0,0,0,.71-1.55l.19-.49c.1-.26.18-.56.27-.85l.25-.89c.08-.3.18-.52.26-.78l.14-.38c0-.12.09-.29.13-.28l.25-.19a.94.94,0,0,1,.38-.18.82.82,0,0,1,.54.1l.22.13s.08.07.13.15l.14.23a1.66,1.66,0,0,1,.21.38l.19,1a7,7,0,0,0,.2.89c.15.51.33,1.18.4,1.32a12.71,12.71,0,0,0,.65,1.51,9.12,9.12,0,0,0,1.81,2.55,7.35,7.35,0,0,0,1.17.93l.33.18.16.09.08,0a1.39,1.39,0,0,0,.21.11l1.68.55c.75.19.63.34.77.5l.15.23c.06.08.08.12.08.34a.37.37,0,0,1-.11.31l-.18.23-.18.23,0,.06-.18.08-.35.16c-.59.19-1.21.35-1.76.57l-.76.39a8.75,8.75,0,0,0-1.25.92,10.74,10.74,0,0,0-1.94,2.33,15.24,15.24,0,0,0-1.29,2.59c-.16.44-.32.87-.45,1.29l-.18.63,0,.16a.52.52,0,0,1-.21.33.46.46,0,0,1-.71-.27.42.42,0,0,0,.58.23.35.35,0,0,0,.18-.25.81.81,0,0,0,0-.17c0-.21,0-.43,0-.66A12.25,12.25,0,0,1,118,338a11.69,11.69,0,0,1,.83-3.07,8.55,8.55,0,0,1,3.39-4.15l.46-.22.24-.11.11-.06s.08,0,0,0h.14l.26,0c.07,0,.28,0,.25-.1s-.19-.08-.36-.18l-.43-.26a4.22,4.22,0,0,1-.8-.52,8.52,8.52,0,0,1-1.36-1.25,11.21,11.21,0,0,1-1.86-3,16.64,16.64,0,0,1-.6-1.56c-.13-.43-.2-.71-.28-1l-.12-.62,0-.3c0-.09,0-.24-.14-.24s-.09.16-.12.25l-.07.29a5.66,5.66,0,0,1-.15.59c0,.19-.12.37-.18.56l-.28.73a15.9,15.9,0,0,1-.83,1.71,12,12,0,0,1-2.26,2.91l-.69.58-.75.5c-.24.15-.56.3-.75.4a3.88,3.88,0,0,1-.36.15,2.52,2.52,0,0,1-.47.13c-.06,0-.19,0-.15.12s.15.07.22.1.32.09.46.16l.21.09.1.05.22.13a9.52,9.52,0,0,1,3.07,2.72,11.77,11.77,0,0,1,1.83,3.78A23.2,23.2,0,0,1,117.38,340.19Z"></path><path class="cls-5" d="M99.49,324.75a.11.11,0,0,0,.22,0c.21-1.43,1.14-5.91,5.24-6.84a.11.11,0,0,0,0-.22c-4.16-.47-5.25-5.09-5.52-6.63a.11.11,0,0,0-.22,0c-.31,2.11-1.7,6.24-5.44,6.93a.11.11,0,0,0,0,.22C97.94,319.17,99,323.35,99.49,324.75Z"></path><path class="cls-9" d="M99.47,324.76c-.21-.09-.62-1.53-1.5-2.94A7.68,7.68,0,0,0,96.36,320a5,5,0,0,0-.46-.34,3.69,3.69,0,0,0-.51-.29c-.44-.21-.86-.39-1.25-.55l-.47-.19a1.7,1.7,0,0,1-.24-.14l-.22-.16c-.07,0-.16-.08-.14-.25s.18-.22.26-.35.18-.14.3-.22l.4-.28c.34-.11.62-.27,1-.41l.24-.11.11-.08.2-.16a5,5,0,0,0,.74-.72,7.65,7.65,0,0,0,1.13-1.79c.09-.19.13-.28.24-.56a8.21,8.21,0,0,0,.36-1.12l.33-1.19.08-.3c0-.09.06-.22.09-.22l.2-.2a1,1,0,0,1,.31-.22.57.57,0,0,1,.25-.09.48.48,0,0,1,.23,0l.09,0a1,1,0,0,1,.3.13l.12.07s.08.14.13.2a4,4,0,0,1,.26.46c.12.44.21.94.34,1.34s.26.8.42,1.15a9.1,9.1,0,0,0,.49.93,5.46,5.46,0,0,0,1.29,1.51l.39.27s0,0,.12.07l.29.1.57.21a4.61,4.61,0,0,1,1,.43l.42.22.1.06s0,0,0,0l0,.07.11.28a.7.7,0,0,1,0,.29.51.51,0,0,1-.07.15,1.2,1.2,0,0,1-.19.3l-.71.48-.32.1-.27.11-.51.23-.48.22-.2.14a5.41,5.41,0,0,0-.75.61,7.48,7.48,0,0,0-1.18,1.52,11.16,11.16,0,0,0-.8,1.68q-.17.43-.3.84l-.12.41,0,.1a.46.46,0,0,1-.2.31.42.42,0,0,1-.61-.24.36.36,0,0,0,.51.17.27.27,0,0,0,.14-.22c0-.07,0-.08,0-.12a3.5,3.5,0,0,1-.07-.45,6.67,6.67,0,0,1,0-1,7.76,7.76,0,0,1,.38-2.19,5.64,5.64,0,0,1,2.26-3.06,1.28,1.28,0,0,1,.19,0l.4,0s.09,0,.1-.05,0,0,0,0l-.08,0-.32-.21-.44-.32a3.9,3.9,0,0,1-.48-.42,7.61,7.61,0,0,1-1.46-1.94c-.17-.33-.36-.75-.46-1a6.45,6.45,0,0,1-.21-.62,8.52,8.52,0,0,1-.2-.84c0-.07,0-.14,0-.21a.07.07,0,0,0-.13.06c0,.14,0,.28-.08.41s-.13.54-.21.79a7.08,7.08,0,0,1-.36.9,8.71,8.71,0,0,1-1.4,2.16,6.28,6.28,0,0,1-.93.86l-.25.19-.12.08-.06,0c-.09,0-.16.1-.24.13a1.73,1.73,0,0,1-.33.13l-.17,0c-.06,0-.11.08,0,.11a3.93,3.93,0,0,1,.66.22l.39.22c.22.16.43.3.63.47a6.68,6.68,0,0,1,1.05,1.08,7.81,7.81,0,0,1,1.28,2.62A15.09,15.09,0,0,1,99.47,324.76Z"></path><path class="cls-5" d="M170.17,327.37a.09.09,0,0,0,.18,0c.18-1.19,1-4.94,4.39-5.72.11,0,.1-.17,0-.19-3.47-.39-4.39-4.25-4.61-5.54a.1.1,0,0,0-.19,0c-.26,1.76-1.42,5.22-4.55,5.8a.1.1,0,0,0,0,.19C168.87,322.7,169.79,326.19,170.17,327.37Z"></path><path class="cls-9" d="M170.15,327.37c-.21-.07-.56-1.27-1.3-2.43a6.28,6.28,0,0,0-1.35-1.54,2.47,2.47,0,0,0-.38-.28,2.18,2.18,0,0,0-.48-.26l-.62-.26-.48-.23-.37-.18-.21-.13c-.09-.1-.33-.14-.24-.39l.23-.27.27-.25a.74.74,0,0,1,.39-.26c.26-.11.56-.22.82-.34l.3-.21.16-.13a5.21,5.21,0,0,0,.56-.59,6.55,6.55,0,0,0,.87-1.47,6,6,0,0,0,.32-.84,5.74,5.74,0,0,0,.28-1,1.88,1.88,0,0,1,.13-.51l.18-.32c.13-.28.22-.26.32-.37a1.5,1.5,0,0,1,.23-.13l.07,0a.36.36,0,0,1,.15,0,.59.59,0,0,1,.17,0l.08,0a.79.79,0,0,1,.23.08.78.78,0,0,1,.29.22c0,.06.11.07.16.18l.15.37a8.73,8.73,0,0,0,.3,1.13,5.76,5.76,0,0,0,.34.93,3.4,3.4,0,0,0,.26.54c.07.13.15.24.22.36a4.61,4.61,0,0,0,1.07,1.16l.17.11a1.34,1.34,0,0,0,.5.22l1.09.32.48.43.12.1v.06l0,.11a.63.63,0,0,1,.06.34,1.45,1.45,0,0,1-.1.25l-.06.11c0,.05-.15.14-.22.21l-.25.2-.13.1-.07.05-.14.05-1,.37a2,2,0,0,0-.39.22l-.16.11a4.51,4.51,0,0,0-.59.49,5.89,5.89,0,0,0-.95,1.22,11.41,11.41,0,0,0-.67,1.36c-.09.22-.17.45-.25.67l-.11.34,0,.08a.43.43,0,0,1-.21.29.4.4,0,0,1-.57-.24.35.35,0,0,0,.49.17.27.27,0,0,0,.13-.21.27.27,0,0,0,0-.11c0-.12-.05-.25-.08-.38a5.87,5.87,0,0,1-.07-.86,6.12,6.12,0,0,1,.26-1.87,5.14,5.14,0,0,1,.84-1.67,5.52,5.52,0,0,1,.55-.6l.27-.21.11-.07s0,0,0,0a.13.13,0,0,0,.09,0,2.19,2.19,0,0,0,.33,0c.06,0,.19,0,.18-.06s0,0,0,0a2,2,0,0,1-.2-.15.69.69,0,0,1-.13-.11,3.57,3.57,0,0,1-.43-.34,6.61,6.61,0,0,1-1.84-2.91,5.71,5.71,0,0,1-.19-.71c0-.11,0-.25-.1-.33s-.08.07-.08.12l0,.17a6.73,6.73,0,0,1-.39,1.29l-.21.45-.26.48a7.94,7.94,0,0,1-.63.89,5.09,5.09,0,0,1-1.3,1.14c-.18.12-.4.14-.54.23.16.11.39.12.56.22l.25.13.49.36a5.47,5.47,0,0,1,.91,1,6,6,0,0,1,1,2.22A11.88,11.88,0,0,1,170.15,327.37Z"></path><path class="cls-5" d="M193,361.05a.09.09,0,0,0,.18,0c.18-1.19,1-4.94,4.39-5.72a.09.09,0,0,0,0-.18c-3.48-.4-4.39-4.26-4.62-5.55,0-.1-.17-.11-.18,0-.26,1.76-1.42,5.22-4.56,5.8a.1.1,0,0,0,0,.19C191.67,356.38,192.58,359.87,193,361.05Z"></path><path class="cls-9" d="M192.94,361.05c-.2-.07-.56-1.27-1.3-2.43a6,6,0,0,0-1.34-1.54,2.55,2.55,0,0,0-.39-.28,2,2,0,0,0-.48-.26l-.62-.26-.47-.23-.38-.18-.2-.13c-.1-.09-.34-.14-.25-.39l.23-.27.27-.25a.79.79,0,0,1,.39-.26c.27-.11.56-.22.82-.34a3.17,3.17,0,0,0,.31-.21l.16-.13a6.34,6.34,0,0,0,.56-.59,7.12,7.12,0,0,0,.87-1.47,7.53,7.53,0,0,0,.32-.84,6.77,6.77,0,0,0,.27-1,3.1,3.1,0,0,1,.13-.51l.18-.32c.13-.28.22-.26.33-.37a1.14,1.14,0,0,1,.23-.13l.07,0s0,0,.15,0a.42.42,0,0,1,.16,0l.08,0a.79.79,0,0,1,.23.08.78.78,0,0,1,.29.22c.06.06.11.07.16.18l.16.37a9.44,9.44,0,0,0,.29,1.14,5.94,5.94,0,0,0,.35.92,3.4,3.4,0,0,0,.26.54,2.16,2.16,0,0,0,.22.36,4.4,4.4,0,0,0,1.06,1.16l.17.11a1.41,1.41,0,0,0,.5.22l1.1.32.48.43.11.1,0,.06,0,.11a.67.67,0,0,1,.05.34.82.82,0,0,1-.1.25l-.06.11c0,.05-.15.14-.22.21l-.25.2-.13.11-.06.05-.14,0-1,.37a1.55,1.55,0,0,0-.39.22l-.16.11a4,4,0,0,0-.59.49,6,6,0,0,0-.95,1.23,8.47,8.47,0,0,0-.67,1.35c-.09.22-.18.45-.25.67l-.11.34,0,.08a.41.41,0,0,1-.2.29.4.4,0,0,1-.57-.23.34.34,0,0,0,.48.16.32.32,0,0,0,.14-.21c0-.07,0-.07,0-.11s-.06-.25-.08-.38a5.7,5.7,0,0,1-.08-.85,6.2,6.2,0,0,1,.27-1.88,5.24,5.24,0,0,1,.84-1.67,4.64,4.64,0,0,1,.54-.6l.27-.21.11-.07s0,0,0,0,.05,0,.09,0l.33,0c.06,0,.18,0,.18-.06l0,0a1.26,1.26,0,0,1-.2-.15.76.76,0,0,1-.14-.11,4.58,4.58,0,0,1-.43-.34,6.71,6.71,0,0,1-1.84-2.91c-.07-.23-.13-.47-.18-.71s0-.25-.1-.33-.08.07-.09.12l0,.17a6.36,6.36,0,0,1-.39,1.3l-.2.44-.27.48a7.94,7.94,0,0,1-.63.89,4.92,4.92,0,0,1-1.3,1.14c-.18.12-.4.14-.54.23.17.11.4.13.56.22l.25.13.5.36a6.32,6.32,0,0,1,.91,1,6.17,6.17,0,0,1,1.05,2.22A11.36,11.36,0,0,1,192.94,361.05Z"></path><path class="cls-5" d="M126.5,400.47a.09.09,0,0,0,.18,0c.18-1.19,1-4.94,4.39-5.72a.09.09,0,0,0,0-.18c-3.48-.39-4.39-4.26-4.62-5.55,0-.1-.17-.11-.18,0-.26,1.76-1.42,5.22-4.56,5.8a.1.1,0,0,0,0,.19C125.21,395.8,126.12,399.29,126.5,400.47Z"></path><path class="cls-9" d="M126.48,400.47c-.2-.07-.56-1.27-1.3-2.43a6,6,0,0,0-1.34-1.54,2.55,2.55,0,0,0-.39-.28A2,2,0,0,0,123,396l-.62-.26-.47-.23-.38-.18-.2-.13c-.1-.09-.34-.14-.25-.39l.23-.27.27-.25a.74.74,0,0,1,.39-.26c.27-.11.56-.22.82-.34a3.17,3.17,0,0,0,.31-.21l.15-.13a5.33,5.33,0,0,0,.57-.59,7.12,7.12,0,0,0,.87-1.47,7.53,7.53,0,0,0,.32-.84,6.77,6.77,0,0,0,.27-1,3.1,3.1,0,0,1,.13-.51l.18-.32c.13-.28.22-.26.33-.37a.93.93,0,0,1,.23-.13l.07,0s0,0,.15,0h.16l.08,0a.79.79,0,0,1,.23.08.78.78,0,0,1,.29.22c.05.06.11.07.16.18l.16.37a9.44,9.44,0,0,0,.29,1.14,7.25,7.25,0,0,0,.34.92,4.16,4.16,0,0,0,.27.54,2.16,2.16,0,0,0,.22.36A4.4,4.4,0,0,0,129.6,393l.17.11a1.41,1.41,0,0,0,.5.22l1.1.32.48.43.11.11,0,.05,0,.11a.67.67,0,0,1,0,.34.82.82,0,0,1-.1.25l-.06.12-.22.2-.25.2-.13.11-.06.05-.14,0-1,.37a1.55,1.55,0,0,0-.39.22l-.16.11a4,4,0,0,0-.59.49,6,6,0,0,0-.95,1.23,8.47,8.47,0,0,0-.67,1.35,6.93,6.93,0,0,0-.25.67l-.11.34,0,.08a.41.41,0,0,1-.2.29.4.4,0,0,1-.57-.23.34.34,0,0,0,.48.16.32.32,0,0,0,.14-.21c0-.07,0-.07,0-.11s-.06-.25-.08-.38a5.7,5.7,0,0,1-.08-.85,6.2,6.2,0,0,1,.27-1.88,5,5,0,0,1,.84-1.67,4.64,4.64,0,0,1,.54-.6l.27-.2.11-.08s0,0,0,0,.05,0,.09,0l.33,0c.06,0,.18,0,.18-.06l0,0a1.26,1.26,0,0,1-.2-.15.76.76,0,0,1-.14-.11,4.58,4.58,0,0,1-.43-.34,6.71,6.71,0,0,1-1.84-2.91c-.07-.23-.13-.47-.18-.71s0-.25-.1-.33-.08.07-.09.12l0,.17a7.06,7.06,0,0,1-.39,1.3l-.2.44-.27.48a7.94,7.94,0,0,1-.63.89,5.09,5.09,0,0,1-1.3,1.14c-.18.12-.4.14-.54.23.17.11.4.13.56.22l.25.13.5.36a6.32,6.32,0,0,1,.91,1,6.17,6.17,0,0,1,1,2.22A11.36,11.36,0,0,1,126.48,400.47Z"></path><path class="cls-10" d="M121.47,343.41c.28.1.47,2,.86,2.6a19.29,19.29,0,0,0,1.92,3.34,10.85,10.85,0,0,0,4.38,3.29,3.11,3.11,0,0,1-1.51.74,2.06,2.06,0,0,1-1.32-.2,15.41,15.41,0,0,1-3.39-4.26,9.47,9.47,0,0,1-1.29-3.8A4.35,4.35,0,0,1,121.47,343.41Z"></path><path class="cls-10" d="M97.55,337.81c.15-.32,3-.43,4.13-.66s2-.35,3.09-.47l1.58-.15.79-.07,1.42-.09h.11l.73,1.89.45,1.22c.28.81.53,1.61.75,2.38a28.8,28.8,0,0,1,.9,4.14A6.46,6.46,0,0,1,109,342.9c-.16-1-.36-2-.59-2.87-.12-.45-.24-.89-.37-1.31s-.21-.65-.31-1c-.34,0-1.31.06-2,.11l-2.07.18a34,34,0,0,1-3.63.18A12,12,0,0,1,97.55,337.81Z"></path><path class="cls-10" d="M146.66,352.18c-.28.18-1.4-.92-1.92-1.28a7.79,7.79,0,0,1-2.38-2.64,5.85,5.85,0,0,1-.83-2.94,4.12,4.12,0,0,1,.69-2.41c.65.78,1.23,1.65,1.12,2a4.14,4.14,0,0,0,.76,3.68c.68.95,1.47,1.59,2,2.32A4.85,4.85,0,0,1,146.66,352.18Z"></path><path class="cls-10" d="M147.27,337.05a5.42,5.42,0,0,1-2.41-1.05,15.78,15.78,0,0,1-2.85-2.46,10.75,10.75,0,0,1-1.46-1.9,8.87,8.87,0,0,1-.6-1.1,5,5,0,0,1-.29-.7c-.06-.17-.12-.34-.17-.51s-.1-.19,0-.25l.16-.21,3.11-4,1.32-1.63.67-.79.16-.2s0,0,0,0h0l-.35-.57-.73-1.18c-.47-.78-.92-1.54-1.33-2.27-.83-1.47-1.53-2.82-2.07-4a13.41,13.41,0,0,1,4.17,4c.33.68.66,1.33,1,2l.5.93.13.23.2.34c.14.22.27.44.4.66l-1.9,2.09c-.52.58-1,1.16-1.5,1.72s-.93,1.13-1.38,1.67l-.65.81-.52.66c-.09.07,0,.17,0,.25l.14.33c.12.29.26.56.4.83a11.78,11.78,0,0,0,.92,1.5,16.32,16.32,0,0,0,2.12,2.42c.42.4,1,1,1.56,1.42S147.12,336.9,147.27,337.05Z"></path><path class="cls-10" d="M180.47,342.73c-.23-.24.67-2,.86-2.76l.11-.45a1,1,0,0,0,0-.17c0-.1,0-.15-.06-.17-.35.06,0,.11-1.06.1a18,18,0,0,1-6.36-1,3.58,3.58,0,0,1,2.63-1.13,14.52,14.52,0,0,0,3.27.73l.75.06.79,0,2,0-1,2.14a11.3,11.3,0,0,1-.7,1.3A6.63,6.63,0,0,1,180.47,342.73Z"></path><path class="cls-10" d="M160.77,344.59c.13-.09.45.05.78.23a4.18,4.18,0,0,0,1,.34c.88.08,1.79.27,2.65.34a15.16,15.16,0,0,1,4,.82c-.34.88-1.33,1.5-1.67,1.34a14.75,14.75,0,0,0-3.53-1,5.72,5.72,0,0,1-2.62-1A2.38,2.38,0,0,1,160.77,344.59Z"></path><path class="cls-10" d="M102,378.66c.12-.3,1.47-.12,2-.23a12.54,12.54,0,0,1,3-.08,8.78,8.78,0,0,1,4.31,1.24c-.59.75-1.61,1.21-1.93,1-2.55-1.51-4.73-.81-6.3-1.28A3.53,3.53,0,0,1,102,378.66Zm4.05-.14h0"></path><path class="cls-10" d="M113.79,369.43c.13-.1.49.07.91.24a4.47,4.47,0,0,0,1.21.35,20,20,0,0,0,3.08.06c.84-.09,1.65-.25,2.43-.37.38-.1.77-.15,1.13-.22a8.23,8.23,0,0,1,1-.16,2.9,2.9,0,0,1-.48,1.39,1.42,1.42,0,0,1-.83.65c-1.78.05-3.14.09-4.4,0a6.4,6.4,0,0,1-3.19-.82A2.73,2.73,0,0,1,113.79,369.43Z"></path><path class="cls-10" d="M147.9,389.06c-.11.12-.64-.08-1.25-.35a7.61,7.61,0,0,1-.87-.51,7,7,0,0,1-.71-.45,7.19,7.19,0,0,1-2.95-3.88,8.64,8.64,0,0,1,.55-7.07,5.23,5.23,0,0,1,.88,2.81,6.3,6.3,0,0,0,.41,5.17,10.39,10.39,0,0,0,2.69,3A12.56,12.56,0,0,1,147.9,389.06Z"></path><path class="cls-10" d="M151.87,404.42c-.06.15-.63.16-1.3.15s-1.4-.16-1.84-.15a10,10,0,0,1-4.61-1.52,8.68,8.68,0,0,1-2.91-2.83,6.57,6.57,0,0,1-1.1-3.14,6.09,6.09,0,0,1,2.38,1.76,6.74,6.74,0,0,0,3.65,3.82,27.2,27.2,0,0,0,4,1.18A8.28,8.28,0,0,1,151.87,404.42Z"></path><path class="cls-10" d="M154.34,362.89c.14.08.11.48.13.95a4.06,4.06,0,0,0,.17,1.27,7.73,7.73,0,0,0,1.45,2.59,23.06,23.06,0,0,0,3.73,2.72,3,3,0,0,1-1.33.69,1.41,1.41,0,0,1-1.08-.12,13.09,13.09,0,0,1-3-3.45,5.09,5.09,0,0,1-.75-3.34A2.75,2.75,0,0,1,154.34,362.89Z"></path><path class="cls-10" d="M168.11,368.87a23.63,23.63,0,0,1,.08,2.62,13.09,13.09,0,0,0,.64,3.58A14.45,14.45,0,0,0,171,379c.1.11.06.08.23.05l1.22-.15,2.37-.28,2.07-.22,2.68-.23c.34.62.67,1.25,1,1.86l.64,1.28c.42.84.81,1.66,1.18,2.45.73,1.58,1.34,3,1.79,4.3a13.74,13.74,0,0,1-3.87-4.46q-.44-1.09-.87-2.13l-.45-1-.11-.25-.08-.18-.09-.24h-.28l-.6,0-1.21.06q-1.19.07-2.31.18l-2.18.21-1.14.12c-.57.27-.8-.4-1.06-.67a12.13,12.13,0,0,1-2.52-7,9.56,9.56,0,0,1,.21-2.26A8.68,8.68,0,0,1,168.11,368.87Z"></path></g></g></g></svg>