<svg xmlns="http://www.w3.org/2000/svg" id="halloween" viewBox="0 0 380 600"><defs transform="matrix(-1, 0, 0, 1, 380, 0)"><style>.cls-1{fill:#d0dddf;}.cls-2{fill:#a1000a;}.cls-3{fill:#ff4500;}.cls-4{fill:#f99;}</style></defs><path class="cls-1" d="M344.4,578.811l-8.261-5.553c7.748-38.08,17.171-93.72,22.353-129.593,2.9-20.1-.741-40.024-18.836-52.711-1.4-.864-.254-3.153,1.415-3.191a24.753,24.753,0,0,1,18.97,8.764c9.454,14.374,14.076,31.142,10.994,48.1C365.428,475.5,352.826,539.217,344.4,578.811Z" transform="matrix(-1, 0, 0, 1, 380, 0)" /><path d="M344.359,578.8c-.113-1.738,2.977-17.4,6.479-35.514s7.469-38.689,9.441-50.176c1.728-9.941,3.519-20.236,5.344-30.732q1.363-7.869,2.749-15.87c.235-1.338.462-2.67.627-3.943.214-1.286.3-2.589.417-3.888.1-1.3.12-2.608.145-3.913-.038-1.306-.013-2.614-.138-3.919a66.172,66.172,0,0,0-9.662-29.649c-.319-.572-.687-1.116-1.036-1.669l-.528-.827-.264-.414c-.1-.157-.054-.093-.11-.153a21.022,21.022,0,0,0-2.548-2.468,22.727,22.727,0,0,0-6.169-3.615,20.979,20.979,0,0,0-3.386-1.014l-.861-.167a1.238,1.238,0,0,0-.168-.022.6.6,0,0,0-.13,0c-.063,0-.129.023-.133.093s.087.093.124.124l.12.083.057.039.438.39a45.7,45.7,0,0,1,9.2,10.434,48.176,48.176,0,0,1,5.7,12.609c2.6,8.85,2.707,18.021,1.719,26.723-.14,1.082-.264,2.193-.42,3.246l-.471,3.146q-.477,3.14-.952,6.259-.986,6.23-1.958,12.368-2,12.26-4.063,24.049c-2.76,15.693-5.567,30.664-8.363,44.612-1.4,6.973-2.787,13.693-4.179,20.115l-2.07,9.41q-.52,2.293-1.03,4.53l-.513,2.219c-.119.483-.238.961-.356,1.437l7.464,5.369-4.2-2.222-2.255-1.227-2.415-1.343c.345-2.859.71-5.877,1.087-8.995.393-3.09.8-6.28,1.211-9.509.848-6.457,1.736-13.076,2.627-19.381,1.781-12.61,3.52-23.975,4.795-30.308q6.444-32.08,11.174-61.615c1.539-9.671,1.515-19.465-1.132-28.391a42.654,42.654,0,0,0-5.884-12.348c-.636-.935-1.37-1.795-2.047-2.693s-1.5-1.667-2.246-2.5a31.634,31.634,0,0,0-2.422-2.311l-.618-.562a7.57,7.57,0,0,0-.714-.608l-1.839-1.408-1.226-1.26c-.437-.453-.785-.734-.86-1.339a3.073,3.073,0,0,1,1.57-2.937,4.626,4.626,0,0,1,1.619-.4,7.474,7.474,0,0,1,1.877-.05,18.086,18.086,0,0,1,1.985.193l.494.061.38.076.76.152a26.36,26.36,0,0,1,10.9,5.272,23.638,23.638,0,0,1,2.236,2.03c.363.348.683.738,1.022,1.11a11.369,11.369,0,0,1,.9,1.318c1.056,1.621,2.019,3.29,2.95,4.964a73.284,73.284,0,0,1,4.692,10.368,64.687,64.687,0,0,1,4.017,21.678,61.281,61.281,0,0,1-.846,10.715q-.909,5.128-1.8,10.147c-4.843,26.729-9.55,51.087-14.278,73.356C352.98,544.74,345.862,573.234,344.359,578.8Z" transform="matrix(-1, 0, 0, 1, 380, 0)" /><path class="cls-1" d="M339.585,450.332q13.371-8.228,25.888-17.747l.639,6.093a3.124,3.124,0,0,1-1.573,3.7L338.408,461.33" transform="matrix(-1, 0, 0, 1, 380, 0)" /><path d="M338.39,461.306c.117-.861,8.9-7.2,12.064-9.94,2.8-2.419,5.879-4.9,9.025-7.348l2.368-1.83,1.186-.909c.4-.305.816-.611,1.018-.811.23-.234.219-.271.244-.368a2.95,2.95,0,0,0-.007-.81q-.177-1.428-.35-2.825l-.02-.156c0-.022,0-.009,0-.015l-.007-.007-.012-.011a.026.026,0,0,0-.019,0c-.009,0-.019.019-.022.027l0,0-.092.072-.206.153-1.874,1.362c-2.649,1.9-5.285,3.666-7.848,5.281a120.687,120.687,0,0,1-13.949,7.647c2.479-3.436,8.092-8.482,10.442-9.754,2.382-1.261,4.647-2.565,6.8-3.894q1.618-1,3.154-2.01l1.532-1.027,2-1.41,2-1.446.245-.178.061-.045.031-.022,0,.038.014.159.057.632.113,1.24q.205,2.149.406,4.232.085.841.169,1.671a4.891,4.891,0,0,1-.138,1.927,3.551,3.551,0,0,1-1.187,1.64c-.469.383-.878.666-1.3.989-6.716,5.026-12.41,9.59-17.739,13.124A83.31,83.31,0,0,1,338.39,461.306Z" transform="matrix(-1, 0, 0, 1, 380, 0)" /><path class="cls-1" d="M324.244,552.769c5.845.891,10.69,1.781,16.535,2.671a3.317,3.317,0,0,0,1.8-.06,3.253,3.253,0,0,0,1.5-2.277,52.133,52.133,0,0,0,1.541-7.2c-7.234-.212-13.468-.424-20.7-.637" transform="matrix(-1, 0, 0, 1, 380, 0)" /><path d="M324.925,545.231c.419-.615,7.643-.369,10.438-.643,2.466-.242,5.108-.357,7.771-.411l.7,0,.926,0,1.86.031.936.024c.115-.028.08.069.071.144l-.028.225-.056.453-.232,1.82q-.135.884-.268,1.764l-.168,1c-.118.664-.248,1.321-.388,1.966q-.183.846-.4,1.683a9.276,9.276,0,0,1-.686,1.948,5.272,5.272,0,0,1-.344.574,4.441,4.441,0,0,1-.52.62,3.825,3.825,0,0,1-1.374.866,3.9,3.9,0,0,1-.791.19c-.137.018-.267.031-.411.037-.122,0-.228,0-.336,0a7.8,7.8,0,0,1-1.061-.112c-2.139-.374-4.2-.785-6.167-1.223a86.493,86.493,0,0,1-10.236-2.861c2.816-1.22,7.947-1.568,9.669-1s3.421,1.079,5.067,1.519c.809.215,1.665.438,2.406.6a3.926,3.926,0,0,0,.469.074,1.144,1.144,0,0,0,.321,0,.965.965,0,0,0,.552-.316,5.159,5.159,0,0,0,.81-1.829q.333-1.089.59-2.163t.441-2.126c.082-.47.134-.872.178-1.279,0-.043.027-.114,0-.134l-.161,0-.317,0-.6.012-1.8.012-3.8.012c-2.45,0-4.732-.054-6.859-.254A38.1,38.1,0,0,1,324.925,545.231Z" transform="matrix(-1, 0, 0, 1, 380, 0)" /><path class="cls-1" d="M273.524,544.193c-5.135,7.768-12.813,5.558-12.83-.823-.022-8.332,6.519-21.288,8.922-30.01q7.827-28.41,13.348-56.809c4-19.991,3.1-36.149,1.527-54.857-.318-3.782-.637-7.568-1.284-11.237a54.7,54.7,0,0,0-12.767-26.908,2.327,2.327,0,0,1,1.855-3.769c7.18.079,7.685,1.505,12.346,5.857,14.529,13.567,13.582,39.122,11.215,60.028-2.935,25.93-2.217,53.553-9.636,79.719C283.032,516.632,280.467,533.688,273.524,544.193Z" transform="matrix(-1, 0, 0, 1, 380, 0)" /><path d="M273.5,544.176a72.778,72.778,0,0,0,4.678-10.545c1.056-3.015,2.094-6.583,3.086-10.512s1.946-8.219,3-12.657c1.025-4.467,2.436-8.946,3.339-13.514.527-2.269.9-4.565,1.329-6.816.352-2.268.75-4.5,1.02-6.694,1.2-8.772,1.781-16.783,2.125-22.514.606-10.119,1.028-20.64,1.979-31.376q.386-4,.774-8.046.165-2.01.331-4.028.129-2.016.258-4.04a126.77,126.77,0,0,0-.08-16.2,64.222,64.222,0,0,0-2.982-15.744,35.208,35.208,0,0,0-7.855-13.369c-.459-.466-.855-.923-1.362-1.4l-1.5-1.415a20.134,20.134,0,0,0-2.826-2.4,7.323,7.323,0,0,0-3.078-1.042c-.588-.085-1.208-.136-1.842-.165-.313-.021-.635-.028-.958-.033-.278-.007-.779-.015-.728-.006a.5.5,0,0,0-.326.224.429.429,0,0,0-.074.334c0,.013.01.023.016.035s.017.013.02.022-.015,0,.065.087l.677.786c.459.519.886,1.061,1.316,1.6a54.839,54.839,0,0,1,4.6,6.809,57.616,57.616,0,0,1,5.428,13.138,75.293,75.293,0,0,1,2.29,13.838c.8,9.088,1.529,18.141,1.581,27.166a147.873,147.873,0,0,1-2.125,26.6c-.769,4.328-1.648,8.508-2.521,12.676s-1.791,8.27-2.729,12.32q-2.808,12.153-5.881,23.574-1.524,5.7-3.1,11.191c-.5,1.812-1.088,3.7-1.721,5.468s-1.307,3.513-1.972,5.223c-1.335,3.414-2.655,6.731-3.78,10.014-.541,1.643-1.072,3.273-1.464,4.9a26.533,26.533,0,0,0-.824,4.831,7.475,7.475,0,0,0,.086,2.232l.113.52.2.483a4.232,4.232,0,0,0,.5.9,4.388,4.388,0,0,0,3.514,1.743A6.99,6.99,0,0,0,270.049,547a14.1,14.1,0,0,0,3-3.119,13.187,13.187,0,0,1-2.524,3.246,7.77,7.77,0,0,1-4.051,2.013,5.328,5.328,0,0,1-4.676-1.614,7.206,7.206,0,0,1-1.624-5.164,28.866,28.866,0,0,1,.633-5.523c.361-1.837.833-3.665,1.362-5.477,1.05-3.63,2.306-7.213,3.49-10.73.59-1.758,1.172-3.5,1.673-5.213.265-.858.476-1.7.7-2.548l.639-2.589c.835-3.421,1.635-6.7,2.38-9.755,1.48-6.108,2.722-11.307,3.639-14.875q2.775-10.767,5.115-21.3a206.655,206.655,0,0,0,3.881-20.805c1.719-13.775,1.044-27.325.025-40.4-.491-6.553-.974-12.965-2.827-18.981a52.9,52.9,0,0,0-8.149-16.534c-.889-1.232-1.86-2.394-2.843-3.536a2.937,2.937,0,0,1-.594-2.882,3.216,3.216,0,0,1,2.046-2.051,4.036,4.036,0,0,1,1.372-.133c.386.013.767.009,1.155.037a22.323,22.323,0,0,1,2.33.216,9.747,9.747,0,0,1,4.482,1.736,34.848,34.848,0,0,1,3.412,3.035c1.078.974,2.112,2.11,3.152,3.193a14.466,14.466,0,0,1,1.426,1.74l1.349,1.791,1.149,1.91a18.667,18.667,0,0,1,1.083,1.935,54.026,54.026,0,0,1,4.943,16.525,102.014,102.014,0,0,1,.911,16.6c-.105,5.445-.513,10.779-1.044,16s-1.038,10.293-1.385,15.337c-.743,10.069-1.24,19.834-2.1,29.263a224.076,224.076,0,0,1-3.9,27.19c-.487,2.049-.949,4.3-1.613,6.629-.648,2.315-1.328,4.747-2.023,7.229-1.335,4.96-2.606,10.188-4.029,15.019a95.523,95.523,0,0,1-4.565,12.716A45.676,45.676,0,0,1,273.5,544.176Z" transform="matrix(-1, 0, 0, 1, 380, 0)" /><path class="cls-2" d="M239.79,503.225l11.724-86.309c1.1-8.119,10.737-14.114,17.686-11l54.369,24.34c14.179,6.347,21.511,20.855,18.927,37.45l-14.729,94.582c-3.15,20.229-27.283,34.771-44.373,26.738h0C251.389,573.98,234.653,541.049,239.79,503.225Z" transform="matrix(-1, 0, 0, 1, 380, 0)" /><path d="M239.836,503.231a35.1,35.1,0,0,1-.121,4.3c-.23,2.294-.185,5.406-.23,9.1a89.083,89.083,0,0,0,4.63,27.078c3.428,9.836,9.054,19.687,16.135,26.971l2.608,2.7c.872.87,1.83,1.626,2.716,2.423.911.77,1.755,1.586,2.672,2.274l2.712,1.987a51.255,51.255,0,0,0,5.184,3.391c.833.494,1.614,1.008,2.4,1.43l2.307,1.144,1.944.962a19.537,19.537,0,0,0,1.941.9,22.729,22.729,0,0,0,3.978,1.2,25.777,25.777,0,0,0,8.416.161A35.219,35.219,0,0,0,323.614,568.5a28.24,28.24,0,0,0,1.338-4.171c.2-.7.292-1.427.43-2.143.126-.734.232-1.554.35-2.328q.691-4.708,1.387-9.433c3.773-25.179,7.578-50.565,11.189-74.665q.6-3.951,1.195-7.9c.187-1.309.315-2.484.436-3.732.032-1.232.159-2.466.075-3.691a33.976,33.976,0,0,0-.921-7.241,33.2,33.2,0,0,0-2.475-6.767,31.967,31.967,0,0,0-4-5.908,30.339,30.339,0,0,0-5.308-4.72,16.379,16.379,0,0,0-1.5-.963,17.11,17.11,0,0,0-1.542-.893l-1.6-.8c-.516-.268-1.166-.533-1.741-.8l-7.093-3.19-27.858-12.6-13.559-6.177-3.345-1.528-.834-.381c-.288-.135-.433-.158-.653-.248a6.1,6.1,0,0,0-1.262-.343,9.761,9.761,0,0,0-5.51.887A12.673,12.673,0,0,0,256.2,412.4a11.457,11.457,0,0,0-1.5,2.453c-.17.437-.329.879-.468,1.322l-.145.677a6.483,6.483,0,0,0-.144.755q-1.03,6.951-2.032,13.706-2.044,13.5-3.955,26.105c-2.581,16.771-5.039,32.212-7.316,45.918.447-12.495,1.854-30.706,3.493-47.906.819-8.6,1.7-16.947,2.539-24.2.422-3.627.835-6.98,1.228-9.955.205-1.486.4-2.879.574-4.165.063-.573.259-1.444.414-2.144a19.487,19.487,0,0,1,.67-1.991,16.91,16.91,0,0,1,4.558-6.166,17.86,17.86,0,0,1,6.547-3.615,14.059,14.059,0,0,1,7.657-.2c.636.173,1.253.444,1.869.676l1.426.674,2.838,1.343,22.348,10.5,21.714,10.082,5.331,2.458c.891.42,1.806.911,2.7,1.363.889.484,1.729,1.053,2.591,1.575a32.837,32.837,0,0,1,8.588,8.307,36.318,36.318,0,0,1,6.475,21.973q-.074,1.422-.148,2.838-.174,1.406-.345,2.805l-.849,5.41-1.682,10.674q-3.269,21.19-6.332,41.04-3.012,19.884-5.829,38.486a34.492,34.492,0,0,1-8.534,17.035,39.621,39.621,0,0,1-15.2,10.445,32.914,32.914,0,0,1-8.88,2.088,27.149,27.149,0,0,1-9.041-.62l-1.1-.28-1.077-.354a21.862,21.862,0,0,1-2.106-.822c-1.336-.619-2.557-1.3-3.832-1.948a76.451,76.451,0,0,1-7.273-4.3,16.254,16.254,0,0,1-1.716-1.192l-1.665-1.251-1.657-1.248a16.284,16.284,0,0,1-1.6-1.3,72.984,72.984,0,0,1-5.935-5.609c-.918-.99-1.866-1.945-2.743-2.953l-2.484-3.131-1.231-1.556-1.1-1.643-2.164-3.271a78.038,78.038,0,0,1-10.821-33.078c-.126-1.462-.25-2.9-.371-4.3-.016-1.4-.031-2.774-.046-4.1a71.277,71.277,0,0,1,.269-7.291,55.156,55.156,0,0,1,.616-5.679C239.547,505.28,239.721,504.047,239.836,503.231Z" transform="matrix(-1, 0, 0, 1, 380, 0)" /><path class="cls-3" d="M232.591,507.727l11.724-86.309c1.1-8.12,10.737-14.114,17.685-11l54.37,24.34c14.179,6.348,21.511,20.855,18.926,37.45l-14.728,94.582c-3.151,20.229-27.283,34.771-44.374,26.738l-23.309-11.146C232.113,567.146,227.454,545.55,232.591,507.727Z" transform="matrix(-1, 0, 0, 1, 380, 0)" /><path d="M232.636,507.733c.146.994-.43,6.052-.911,13.525-.428,7.455-.662,17.427,1.254,27.784a54.19,54.19,0,0,0,5.216,15.074,47.677,47.677,0,0,0,9.555,12.411l1.4,1.276a15.284,15.284,0,0,0,1.423,1.214l2.867,2.224a.78.78,0,0,0,.241.142l.39.181.82.383,1.617.752,3.129,1.454,10.8,4.967,4.072,1.85,2.048.932c.685.307,1.3.54,1.964.8a23.343,23.343,0,0,0,8.35,1.248,28.711,28.711,0,0,0,8.51-1.575,34.046,34.046,0,0,0,7.921-3.888,35.638,35.638,0,0,0,6.8-5.754,32.718,32.718,0,0,0,5.135-7.268,28.184,28.184,0,0,0,2.846-8.353c.138-.692.245-1.529.363-2.312l.35-2.379.7-4.763c3.809-25.411,7.65-51.03,11.3-75.352q.6-3.987,1.207-7.968c.2-1.322.425-2.685.542-3.891.061-.621.167-1.24.2-1.861l.08-1.864a17.712,17.712,0,0,0-.009-1.858c-.031-.617-.011-1.239-.08-1.851a36.592,36.592,0,0,0-1.35-7.211c-.178-.581-.406-1.144-.6-1.718l-.308-.856-.378-.825a28.738,28.738,0,0,0-8.784-11.221,32.8,32.8,0,0,0-6.15-3.69L308,434.269l-28.114-12.716L266.2,415.321l-3.376-1.543-1.681-.768a6.365,6.365,0,0,0-.683-.267,5.261,5.261,0,0,0-.618-.218,9.079,9.079,0,0,0-5.519.447,13.155,13.155,0,0,0-4.884,3.372,10.9,10.9,0,0,0-2.573,5.073l-.079.342-.064.438-.129.875-.258,1.745q-.256,1.741-.513,3.471-.514,3.459-1.021,6.865c-1.374,9.081-2.706,17.88-3.988,26.346-2.6,16.926-5.08,32.509-7.373,46.343.462-12.61,1.892-30.987,3.552-48.344.83-8.678,1.718-17.1,2.57-24.422.426-3.66.843-7.044,1.24-10.046.207-1.522.373-2.861.6-4.25a14.39,14.39,0,0,1,.571-2.28c.126-.349.249-.691.368-1.023s.3-.623.443-.92a17.833,17.833,0,0,1,11.767-9.176,13.417,13.417,0,0,1,7.776.515,16.146,16.146,0,0,1,1.6.7l1.437.68,2.864,1.354,22.555,10.591,21.916,10.173,2.695,1.243c.894.409,1.788.815,2.711,1.3l1.368.7c.453.238.876.531,1.315.794l1.3.809c.419.291.822.6,1.232.907a33.309,33.309,0,0,1,8.22,8.818,36.681,36.681,0,0,1,5.374,22.471c-.306,3.861-1.024,7.443-1.563,11.074q-.855,5.43-1.7,10.774-3.3,21.384-6.391,41.417-1.518,10.024-2.987,19.725-.73,4.851-1.448,9.622l-.714,4.752a39.564,39.564,0,0,1-.961,4.834,35.925,35.925,0,0,1-10.093,16.35,39.363,39.363,0,0,1-7.578,5.624,36.359,36.359,0,0,1-8.589,3.6,28.314,28.314,0,0,1-18.157-.667c-1.474-.589-2.658-1.214-3.965-1.819l-3.821-1.82-7.541-3.6-7.4-3.552-1.994-.96-1.725-1.371a39.58,39.58,0,0,1-3.157-2.653,48.719,48.719,0,0,1-10.173-12.54,52.535,52.535,0,0,1-5.756-16.075,87.786,87.786,0,0,1-1.321-18.323A189.8,189.8,0,0,1,232.636,507.733Z" transform="matrix(-1, 0, 0, 1, 380, 0)" /><path class="cls-4" d="M331.267,482.655a78.962,78.962,0,0,1-4.464,6.76l-4.416,6.28-5.4,7.6c-.974,2.658-3.222.389-3.98-1.4a12.837,12.837,0,0,1-.743-5.083c.032-3.306.566-6.587-.074-9.387l-.117-.413-.124-.324a3.385,3.385,0,0,0-.334-.592,2.572,2.572,0,0,0-.447-.483,1.46,1.46,0,0,0-.259-.192c-.087-.049-.193-.172-.223,0l-1.282,2.682c-1.155,2.418-2.193,4.589-3.058,6.4l-7.178,14.847c.5-8.291,1.015-16.829,1.539-25.5.036-.8.134-1.75.1-2.305a4.59,4.59,0,0,0-.152-.914.972.972,0,0,0-.178-.42.364.364,0,0,0-.5-.077.779.779,0,0,0-.13.1,3.068,3.068,0,0,0-.288.275,8.66,8.66,0,0,0-.648.828l-5.849,8.238-4.439,6.2-2.783,3.877-1.4,1.951-.087.122-.044.06,0-.073.017-.294.034-.586.067-1.176q.429-7.579.855-15.114.138-2.5.275-4.982l.063-1.218a5.381,5.381,0,0,0-.062-.928,3.713,3.713,0,0,0-.206-.8,2.6,2.6,0,0,0-.129-.278.107.107,0,0,0-.026-.029.093.093,0,0,0-.066-.025.128.128,0,0,0-.034.006l-.094.043a3.838,3.838,0,0,0-1.129,1.1c-.906,1.222-1.834,2.576-2.671,3.893a63.915,63.915,0,0,0-5.98,11.92l-4.406,11.835.565-12.621c.369-8.266.733-16.4,1.086-24.284a.017.017,0,0,0-.033-.006l-.01.009-.006.006c-.01.014.029-.047-.077.119l-.886,1.385-3.507,5.472-9.856,15.381q-.32-6.221-.631-12.269-.147-3.254-.291-6.412t-.271-6.219q-.066-1.531-.129-3.036l0-.783v-.512c-.01-.009-.037.028-.055.04l-.125.11c-.169.151-.347.323-.535.514l-.142.148-.363.418-.874,1.059q-.854,1.068-1.641,2.154t-1.5,2.192l-.7,1.107q-.48.846-.957,1.683l-.971,1.924-.932,2.138L246.2,479.1a1.318,1.318,0,0,0-.222-.293l-.106-.115c-.017-.041-.038.014-.051-.106l-.041-.288q-.155-1.122-.3-2.2c-.183-1.4-.329-2.691-.429-4.013-.084-1.339-.117-2.685-.073-3.992.012-.275.023-.548.035-.818.017-.226.033-.449.05-.671.028-.443.075-.878.12-1.307a47.867,47.867,0,0,1,1.926-9.16,59.251,59.251,0,0,0-.824,9.584c-.007.44.01.885.019,1.333,0,.219.012.458.025.664l.036.514q.086,1.007.228,1.784a9.8,9.8,0,0,0,.324,1.328c.054.185.126.348.184.5,0,.044.02-.013.034-.058l.042-.129.081-.251.156-.481c.345-1.039.647-1.841.883-2.448.058-.152.164-.376.237-.548l.06-.136.149-.278.3-.555c.4-.736.817-1.464,1.256-2.171.869-1.42,1.8-2.781,2.767-4.071l.37-.476.63-.782c.46-.55.93-1.064,1.4-1.6.943-1.076,1.862-2.016,2.825-3.055l.719-.764.359-.381.18-.191c.032.013.023.139.036.2q.1.95.192,1.88t.19,1.869q.071,1,.141,1.976c.125,1.859.244,3.626.355,5.279.159,2.41.267,4.489.312,6.111.072,2.458.144,4.9.212,7.24l.012.416-.008.059-.016.13-.027.313c-.014.278-.027.547-.04.805.109-.122.244-.286.4-.488l.253-.33.139-.186.438-.658,3.8-5.749,3.731-5.674.663-1.021c.243-.358.473-.77.724-1.079a4.162,4.162,0,0,1,.757-.715c.124-.091.241-.172.346-.236a2.135,2.135,0,0,1,2.409.572,4.055,4.055,0,0,1,.9,1.952,6.316,6.316,0,0,1,.1,1.2l-.027.634-.03.54-.1,1.647q-.093,1.646-.186,3.277-.181,3.264-.359,6.479-.338,6.429-.664,12.66l-1.608-.329a66.484,66.484,0,0,1,5.972-11.822q.872-1.377,1.8-2.7a29.356,29.356,0,0,1,1.98-2.624,5.211,5.211,0,0,1,1.451-1.143,3.042,3.042,0,0,1,2.07-.29,2.749,2.749,0,0,1,1.64,1.313,5.516,5.516,0,0,1,.612,1.712,8.118,8.118,0,0,1,.138,1.713l-.088,1.56q-.091,1.546-.182,3.082-.178,3.051-.353,6.052-.1,1.788-.194,3.546l-.023.43c-.012.063.018.008.039-.02l.065-.091.13-.182.515-.723,1-1.413,6.228-8.715,1.641-2.293a8,8,0,0,1,1.035-1.186,4.242,4.242,0,0,1,.766-.557,3.8,3.8,0,0,1,.935-.359,2.372,2.372,0,0,1,1.9.315,3.306,3.306,0,0,1,1.189,1.549,7,7,0,0,1,.408,3.135q-.518,8.029-1,15.5l1.85-3.771,3.683-7.391,1.292-2.58.185-.371.2-.263.391-.525.39-.523.195-.259.3.208a7.819,7.819,0,0,1,2.12,1.887,6.01,6.01,0,0,1,.738,1.351,5.6,5.6,0,0,1,.273.748c.074.285.114.409.157.62a18.027,18.027,0,0,1,.248,4.382c-.06,1.4-.186,2.754-.266,4.076a19.7,19.7,0,0,0,.122,4.469,5.83,5.83,0,0,0,.286,1.074,2.657,2.657,0,0,0,.158.395,2.026,2.026,0,0,0,.173.311,2.611,2.611,0,0,0,.484.562,3.849,3.849,0,0,0,.309.234c.061.079.086-.039.128-.068l.115-.145,6.177-7.964C326.274,488.946,330.025,484.2,331.267,482.655Z" transform="matrix(-1, 0, 0, 1, 380, 0)" /><path d="M283.5,592.057c-.458-1.315,2.538-23.547,3.326-32.161,1.391-15.209,3.559-32.563,5.5-48.248,3.4-27.431,7.51-54.176,10.98-71.885.57,8.217-.341,23.815-1.365,29.277C293.7,513.012,291.136,546.9,287.1,573.062,286.2,579.286,283.973,589.965,283.5,592.057Zm7.38-65.167h0" transform="matrix(-1, 0, 0, 1, 380, 0)" /><path d="M253,567.562c-.483-1.211,2.077-21.669,2.7-29.6,1.094-14,2.922-29.965,4.556-44.4,2.858-25.242,6.448-49.851,9.57-66.146.728,7.563.121,21.917-.8,26.943-7.377,40.46-9.283,71.644-12.807,95.72C255.446,555.811,253.429,565.636,253,567.562Zm6.105-59.968h0" transform="matrix(-1, 0, 0, 1, 380, 0)" /><path class="cls-1" d="M271.615,393.9l-1.637,14.315a2.47,2.47,0,0,0,1.6,3.024l6.163,3.671,1.5-21.558" transform="matrix(-1, 0, 0, 1, 380, 0)" /><path d="M279.277,393.357c.6.423.1,7.26.275,9.92.122,1.856.161,3.814.153,5.8l-.015,1.493-.013.748-.033.985c-.093,1.913-.187,3.821-.279,5.707l-5.154-2.953-2.864-1.632c-.464-.279-.85-.481-1.443-.878a5.317,5.317,0,0,1-.937-.8,3.827,3.827,0,0,1-.792-1.3,3.931,3.931,0,0,1-.182-.739,4.579,4.579,0,0,1-.045-.7,7.712,7.712,0,0,1,.085-.984q.109-.75.218-1.489.226-1.474.477-2.887a77.969,77.969,0,0,1,2.321-9.806c1.362,2.638,1.977,7.5,1.494,9.153q-.653,2.238-1.14,4.37a17.678,17.678,0,0,0-.369,1.824c-.015.342.12.6.618.986,1.047.742,2.22,1.486,3.292,2.158l1.151.709.963.561c.087-2.595.167-4.99.241-7.209.1-2.607.221-5.007.524-7.221A34.4,34.4,0,0,1,279.277,393.357Z" transform="matrix(-1, 0, 0, 1, 380, 0)" /><path class="cls-1" d="M312.414,411.808l-1.636,14.315a2.469,2.469,0,0,0,1.6,3.024l6.163,3.671,1.5-21.557" transform="matrix(-1, 0, 0, 1, 380, 0)" /><path d="M320.077,411.263c.6.422.1,7.259.275,9.919.122,1.857.161,3.815.153,5.8l-.015,1.493-.013.748-.033.984c-.093,1.913-.187,3.822-.279,5.708l-5.154-2.953-2.864-1.632c-.464-.279-.851-.481-1.444-.878a5.368,5.368,0,0,1-.936-.8,3.765,3.765,0,0,1-.974-2.041,4.461,4.461,0,0,1-.045-.7,7.516,7.516,0,0,1,.085-.984q.109-.751.218-1.49.225-1.474.477-2.886a77.926,77.926,0,0,1,2.321-9.806c1.362,2.637,1.977,7.5,1.5,9.152-.436,1.492-.813,2.949-1.141,4.37a17.731,17.731,0,0,0-.369,1.824c-.015.343.119.6.618.986,1.047.743,2.22,1.486,3.292,2.158l1.151.71.962.56c.087-2.594.168-4.989.242-7.209.094-2.607.221-5.007.523-7.22A34.456,34.456,0,0,1,320.077,411.263Z" transform="matrix(-1, 0, 0, 1, 380, 0)" /><path class="cls-2" d="M261.043,401.026c5.535-3.605,12.725-4.043,19.544-3.294,22.437,2.465,39.626,25.2,53.071,44.136,1.334,1.878,6.807-2.314,8.976-4.146,2.385-2.014,4.6-3.516,4.909-6.595,1.333-13.216-3.827-27.387-13.56-37.24-9.356-9.471-22.023-14.605-34.375-19.018-11.2-4-24.17-7.5-33.768-1.564-8.718,5.394-11.351,18.48-5.588,27.768" transform="matrix(-1, 0, 0, 1, 380, 0)" /><path d="M260.213,401.1a8.623,8.623,0,0,1-1.38-1.924,18.417,18.417,0,0,1-1.79-4.744,21.786,21.786,0,0,1-.46-7.089,21.444,21.444,0,0,1,2.465-8.092,18.748,18.748,0,0,1,6.162-6.776,22.138,22.138,0,0,1,8.47-3.179,33.2,33.2,0,0,1,8.149-.274,59.988,59.988,0,0,1,6.5.9,87.91,87.91,0,0,1,9.605,2.443c3.189,1,6.352,2.057,9.569,3.223a95.4,95.4,0,0,1,18.944,9.018,57.782,57.782,0,0,1,8.543,6.64,49.593,49.593,0,0,1,7.036,8.309,51.124,51.124,0,0,1,7.968,19.73c.265,1.365.393,2.753.549,4.135.077,1.392.179,2.781.14,4.177,0,.7-.006,1.393-.066,2.089l-.068,1.044c-.029.362-.028.642-.109,1.16a9.038,9.038,0,0,1-.859,2.749,10.39,10.39,0,0,1-1.542,2.241,29.821,29.821,0,0,1-3.186,2.9c-.992.846-2.1,1.729-3.224,2.523a23.494,23.494,0,0,1-3.8,2.261,7.335,7.335,0,0,1-3.59.753,4.287,4.287,0,0,1-1.7-.528,3.828,3.828,0,0,1-.709-.507,8.577,8.577,0,0,1-.614-.679l-4.135-5.787c-1.245-1.751-2.528-3.442-3.782-5.147-2.558-3.354-5.111-6.643-7.777-9.723-1.316-1.558-2.687-3.033-4.035-4.508-1.4-1.415-2.737-2.879-4.182-4.18a74.743,74.743,0,0,0-8.794-7.226c-6.107-4.127-12.632-6.965-19.2-7.7-6.559-.859-12.934-.383-17.807,2.416a21,21,0,0,1,10.842-5.053,39.464,39.464,0,0,1,7.108-.623,35.093,35.093,0,0,1,3.679.211l1.861.17c.614.085,1.213.234,1.82.351l1.811.381.9.2.866.278c1.149.374,2.293.74,3.4,1.13a51.135,51.135,0,0,1,6,2.895,44.754,44.754,0,0,1,8.205,5.83,122.781,122.781,0,0,1,14.654,16.313c1.079,1.4,2.136,2.789,3.148,4.195,1.035,1.392,2.03,2.792,3.012,4.185s1.944,2.779,2.9,4.154l2.626,3.844c.119.169.211.389.419.47a1.1,1.1,0,0,0,.629.023,3.36,3.36,0,0,0,.628-.2c.334-.142.677-.312,1.019-.5a30.909,30.909,0,0,0,3.985-2.693l1.924-1.55a19.326,19.326,0,0,0,1.738-1.541,5.231,5.231,0,0,0,1.657-3.61,42.614,42.614,0,0,0-2.269-18.234,46.326,46.326,0,0,0-8.724-15.175A52.252,52.252,0,0,0,322.5,386.612a96.207,96.207,0,0,0-14.385-6.912c-4.849-1.874-9.677-3.614-14.35-5.06a60.94,60.94,0,0,0-13.8-2.786c-4.47-.237-8.846.326-12.469,2.286a16.752,16.752,0,0,0-6.1,5.437,20.555,20.555,0,0,0-3.3,8.591,21.768,21.768,0,0,0,.372,8.2,23.049,23.049,0,0,0,.92,2.926C259.743,400.076,260.026,400.69,260.213,401.1Z" transform="matrix(-1, 0, 0, 1, 380, 0)" /><path class="cls-3" d="M253.889,403.911c5.536-3.606,12.725-4.043,19.545-3.294,22.436,2.465,43.419,16.892,56.864,35.829,1.333,1.879,2.955,4.017,5.182,4.161,3.116.2,4.6-3.516,4.909-6.6,1.333-13.216-3.827-27.387-13.56-37.24-9.356-9.471-22.023-14.606-34.375-19.018-11.2-4-24.17-7.5-33.768-1.564-8.718,5.394-11.351,18.48-5.588,27.768" transform="matrix(-1, 0, 0, 1, 380, 0)" /><path d="M253.072,403.974a11.76,11.76,0,0,1-1.268-1.925,19.039,19.039,0,0,1-1.692-4.635,21.623,21.623,0,0,1-.466-6.883,21.349,21.349,0,0,1,2.293-7.866,18.5,18.5,0,0,1,5.793-6.656,21.335,21.335,0,0,1,8.079-3.31,31.734,31.734,0,0,1,7.892-.435,51.394,51.394,0,0,1,6.336.8,122.136,122.136,0,0,1,18.729,5.542,103.513,103.513,0,0,1,18.515,8.569,53.5,53.5,0,0,1,15.534,13.885,50.494,50.494,0,0,1,8.556,18.619,44.961,44.961,0,0,1,1.162,8.766c.057.737.009,1.477.017,2.215s-.036,1.475-.092,2.211a16.069,16.069,0,0,1-.813,4.663,10.212,10.212,0,0,1-1.155,2.344,6.446,6.446,0,0,1-2.185,2.062,5.434,5.434,0,0,1-3.2.637,6.182,6.182,0,0,1-2.827-1.073,13.915,13.915,0,0,1-3.33-3.517q-1.215-1.642-2.422-3.277a93.654,93.654,0,0,0-22.808-21.219,76.583,76.583,0,0,0-26.036-10.951c-2.176-.377-4.318-.8-6.427-.987a40.782,40.782,0,0,0-6.184-.165,23.433,23.433,0,0,0-10.87,3,21.711,21.711,0,0,1,10.785-4.516,39.314,39.314,0,0,1,6.907-.436c1.18.009,2.356.1,3.531.215s2.362.172,3.515.39a62.3,62.3,0,0,1,21.633,7.31,86.377,86.377,0,0,1,11.366,7.841,98.563,98.563,0,0,1,17.979,19c1.289,1.691,2.321,3.519,3.713,4.64a2.788,2.788,0,0,0,4.171-.18,6.823,6.823,0,0,0,1.241-2.354,11.468,11.468,0,0,0,.536-2.759,39.961,39.961,0,0,0,.142-5.813,44.2,44.2,0,0,0-1.968-11.192,47.279,47.279,0,0,0-10.919-18.573,59.893,59.893,0,0,0-16.538-11.786,150.642,150.642,0,0,0-17.789-7.273,82.164,82.164,0,0,0-17.224-4.488c-5.606-.692-11.221-.16-15.7,2.448a18.108,18.108,0,0,0-1.588,1.036c-.54.373-1.022.859-1.566,1.3a18.562,18.562,0,0,0-2.759,3.41,20.432,20.432,0,0,0-3.012,8.676,21.613,21.613,0,0,0,.588,8.094,10.714,10.714,0,0,0,.483,1.55c.18.471.33.913.494,1.3Z" transform="matrix(-1, 0, 0, 1, 380, 0)" /></svg>