<svg xmlns="http://www.w3.org/2000/svg" id="outfits_springbreak" viewBox="0 0 380 600"><defs transform="matrix(-1, 0, 0, 1, 380, 0)"><style>.cls-1{opacity:0.3;}.cls-2{fill:#94b3ff;}.cls-3{fill:#fff;}.cls-4{opacity:0.4;}.cls-5{fill:#f9a;}</style></defs><g class="cls-1" transform="matrix(-1, 0, 0, 1, 380, 0)"><ellipse cx="267.69" cy="565.35" rx="95.47" ry="28.42" transform="matrix(0.99, -0.14, 0.14, 0.99, -78.67, 44.47)" /><path d="M362.1,551.6a5.94,5.94,0,0,1-.5-1.18,10.7,10.7,0,0,0-.48-1,5.09,5.09,0,0,0-.3-.56l-.4-.58a17.52,17.52,0,0,0-5.92-5c-5.63-3.09-14.06-5.25-23.2-6.44a185.65,185.65,0,0,0-28.09-1.32,228.56,228.56,0,0,0-23,1.64c-10.24,1.26-20.8,3-31.45,5.32a277.9,277.9,0,0,0-31.83,8.75c-5.23,1.8-10.4,3.8-15.39,6.08a95.85,95.85,0,0,0-14.19,7.77,44.39,44.39,0,0,0-6,4.81,16.75,16.75,0,0,0-3.92,5.43,5.46,5.46,0,0,0,.09,4.78,12.47,12.47,0,0,0,4.38,4.14,44.08,44.08,0,0,0,12,4.65,107.69,107.69,0,0,0,13.27,2.4,204.68,204.68,0,0,0,27.08,1.27,327.21,327.21,0,0,0,52.06-5.22c16.51-3,32.05-7,45.79-12.38a98.15,98.15,0,0,0,18.79-9.41,34.71,34.71,0,0,0,7.2-6.21,15.76,15.76,0,0,0,2.31-3.69,9.24,9.24,0,0,0,.66-4,8.82,8.82,0,0,1,.2,4,14.09,14.09,0,0,1-1.69,4.37,32.11,32.11,0,0,1-7,8A90,90,0,0,1,333,580.53a156.67,156.67,0,0,1-35.7,12.17,360,360,0,0,1-44.38,5.49,261,261,0,0,1-42-.58A121.69,121.69,0,0,1,191.11,594a54.27,54.27,0,0,1-9.34-3.52,22.16,22.16,0,0,1-8-6.28,11.74,11.74,0,0,1-2.05-5,11.56,11.56,0,0,1,.66-5.32,22.23,22.23,0,0,1,5.75-8,51.15,51.15,0,0,1,7.43-5.7,88.3,88.3,0,0,1,7.9-4.54,185.57,185.57,0,0,1,32.34-12.37,291.37,291.37,0,0,1,31.53-7.18c20.53-3.5,40-4.89,58.22-3.83,8.62.46,20.47,2,30.34,5.5,4.92,1.73,9.34,4,12.26,6.71a13.83,13.83,0,0,1,3.11,4,13.46,13.46,0,0,1,.64,1.77C362,550.79,362,551.24,362.1,551.6Z" /></g><path class="cls-2" d="M377.87,515.16a52.74,52.74,0,0,0-40.21-1.6c-30.15-59.87-129.28-45.66-163.35-1.19-11.17,14.77-24.25,50.47-16.68,67.38,7.17,16,31.65,18.21,53.87,16.44,40-2.87,63.16-28.81,92.42-52.77,6.39-4.91,14.94-9.53,22.89-8.21-.3,16.5,14.13,31.86,30.61,32.6,5.71.66-3.29-15.65,1.08-28C361.85,530.29,380.33,522.32,377.87,515.16Z" transform="matrix(-1, 0, 0, 1, 380, 0)" /><path d="M377.92,515.14a3.85,3.85,0,0,1,.32,2.24,9,9,0,0,1-1.95,4c-2.23,2.92-6.07,6-10.24,9.79a31.77,31.77,0,0,0-5.84,6.75,13,13,0,0,0-1,2.1c-.12.38-.23.77-.35,1.15s-.19.8-.28,1.19a25.85,25.85,0,0,0-.49,5,56,56,0,0,0,1.19,10.72c.33,1.85.72,3.7.95,5.67,0,.26,0,.47.07.79s0,.62,0,.93a4.88,4.88,0,0,1-.33,1.8,2.24,2.24,0,0,1-1.22,1.27l-.43.13-.44,0a5.79,5.79,0,0,1-.93,0c-13.24-.78-24.21-10.14-28.84-20.94-.29-.67-.52-1.37-.78-2l-.37-1c-.11-.34-.19-.69-.28-1l-.54-2.07-.33-2.08-.15-1c0-.31,0-.46-.05-.69l-.06-1.26v-.15s-.08,0-.12,0l-.28,0-.53,0h-.83l-.43,0a27,27,0,0,0-11.73,3.8,50.55,50.55,0,0,0-4.63,3c-.75.54-1.47,1.09-2.19,1.67l-2.16,1.85c-2.9,2.45-5.8,5-8.72,7.56-5.83,5.13-11.75,10.37-17.95,15.45a180.22,180.22,0,0,1-19.74,14.27,102.62,102.62,0,0,1-22.52,10.52c-2,.65-4,1.14-6,1.71-.5.14-1,.29-1.51.41l-1.55.3-3.08.59c-1,.18-2,.46-3.09.54l-3.12.36c-2.08.25-4.15.49-6.2.62a120.66,120.66,0,0,1-24.9-.55,60,60,0,0,1-12.3-3,33,33,0,0,1-11.2-6.64,24.29,24.29,0,0,1-6.94-11.32,40.9,40.9,0,0,1-1.24-12.57,88,88,0,0,1,3.65-20.76,127.78,127.78,0,0,1,7.4-19.42,102.65,102.65,0,0,1,5-9.17c.93-1.48,1.87-2.95,2.94-4.39s2.22-2.72,3.33-4.08a87.69,87.69,0,0,1,15.38-13.74,121,121,0,0,1,36.1-17.06,146.67,146.67,0,0,1,19-4,134.31,134.31,0,0,1,19-1.18,117.4,117.4,0,0,1,18.55,1.78,97.07,97.07,0,0,1,17.48,4.94A80.92,80.92,0,0,1,316,486a75.06,75.06,0,0,1,12.81,11.27l2.62,3.25,1.28,1.61,1.14,1.71c.76,1.14,1.51,2.27,2.25,3.4l1.84,3.41.4.77c0,.21.23,0,.36,0l.45-.14.46-.14,1-.26c.64-.16,1.27-.36,1.91-.49a55.22,55.22,0,0,1,7.66-1.23,53.74,53.74,0,0,1,28.08,5.18,57.48,57.48,0,0,0-12.93-3.15,60.71,60.71,0,0,0-7.35-.4,59.2,59.2,0,0,0-7.66.64,56.8,56.8,0,0,0-7.7,1.79l-1.9.64-2.67,1-.71.26c-.11,0-.26.14-.34.08l-.19-.32-.78-1.29-1.36-2.27a73.1,73.1,0,0,0-4.65-6.68c-.83-1.06-1.78-2-2.66-3.06L326,500.11c-.47-.47-1-.92-1.45-1.39-1-.91-1.92-1.85-2.91-2.73l-3.08-2.47a34.49,34.49,0,0,0-3.16-2.27l-1.59-1.08a14.83,14.83,0,0,0-1.6-1,72.65,72.65,0,0,0-6.53-3.49c-1.1-.49-2.13-1.06-3.23-1.48l-3.2-1.26a101.47,101.47,0,0,0-21.36-5.35c-2.63-.48-5.31-.64-8-.93-1.33-.11-2.67-.14-4-.21s-2.65-.13-4-.09l-4,0c-1.33,0-2.65.14-4,.21-2.65.09-5.26.45-7.87.71a131.13,131.13,0,0,0-30.09,7.54l-3.54,1.46-1.76.73-1.72.81-3.43,1.62-3.34,1.78c-2.24,1.14-4.32,2.54-6.47,3.81-1.05.67-2.05,1.41-3.08,2.11s-2.06,1.39-3,2.18l-2.91,2.28c-1,.79-1.84,1.63-2.76,2.44l-1.37,1.22c-.45.41-.86.87-1.29,1.3l-2.55,2.61L176.49,512c-.38.47-.79.92-1.16,1.39l-1.05,1.45a68.69,68.69,0,0,0-3.84,6.1,119.58,119.58,0,0,0-10.77,26.29A88.49,88.49,0,0,0,157,560.76a46.12,46.12,0,0,0,.19,13.44,22.33,22.33,0,0,0,2.06,6.14,20.64,20.64,0,0,0,3.8,5.14A29.68,29.68,0,0,0,174,592c8.18,2.83,16.91,3.5,25.38,3.49q6.38,0,12.64-.62l6.18-.7c2-.33,4-.76,6.06-1.13a94.1,94.1,0,0,0,22.63-8.18c14.16-7.2,26.08-17.19,37.43-26.91,5.69-4.88,11.22-9.74,16.86-14.4.71-.58,1.37-1.18,2.13-1.74s1.5-1.11,2.26-1.64a51.91,51.91,0,0,1,4.72-2.9,32.67,32.67,0,0,1,10.49-3.71l1.4-.17,1.42-.07h.18l.24,0,.5,0,1,.06c.65,0,1.32.14,2,.2l.49.06.25,0,.12,0a.41.41,0,0,1,0,.11l.05.94.09,1.86,0,.93c0,.31,0,.65.06.8l.18,1.21a28.7,28.7,0,0,0,2.92,9.19,35.52,35.52,0,0,0,5.51,7.81,33.56,33.56,0,0,0,7.37,5.84,25.87,25.87,0,0,0,2.52,1.31,23.68,23.68,0,0,0,2.84,1.15l1.56.52c.54.17,1.11.25,1.69.39a16.67,16.67,0,0,0,1.79.36l1.61.18c.38.06.85.14,1.14-.2a2,2,0,0,0,.29-1.18v-.32l0-.5c0-.36-.07-.72-.12-1.1-.09-.74-.21-1.5-.33-2.27-.49-3.08-1-6.3-1.22-9.57a30.32,30.32,0,0,1,.8-9.78,14.93,14.93,0,0,1,1.94-4.48,24.33,24.33,0,0,1,2.95-3.59c4.24-4.23,8.71-7.25,11.85-10.23a16.46,16.46,0,0,0,3.58-4.32A4.82,4.82,0,0,0,377.92,515.14Z" transform="matrix(-1, 0, 0, 1, 380, 0)" /><path class="cls-3" d="M317.39,528.43c-28.72-11.67-58.87,36.55-87.58,46.39-17.08,8.94-50.48,17.11-67.54,5.77,6.33,12.66,31.21,14,51.48,12,36.3-3.56,61.32-28.21,89.63-51.44,5.53-4.27,12.75-8.31,19.78-8.27A12.66,12.66,0,0,0,317.39,528.43Z" transform="matrix(-1, 0, 0, 1, 380, 0)" /><path class="cls-3" d="M317.4,528.4a8.59,8.59,0,0,1,2.41,1A11.47,11.47,0,0,1,322,531a16.18,16.18,0,0,1,1.11,1.19c.18.22.37.45.56.7,0,.05.14.15.08.15l-.13,0-.26.1a29,29,0,0,0-3.92.42,24.76,24.76,0,0,0-3.52,1,38.39,38.39,0,0,0-7.35,3.62c-1.24.78-2.48,1.62-3.7,2.54s-2.4,2-3.63,3L293.78,550c-9.92,8.47-20,16.77-26.53,21.5a136.59,136.59,0,0,1-23.73,14.36A93.81,93.81,0,0,1,215.69,594c-2.43.4-4.85.54-7.28.74s-4.87.28-7.31.33a108.51,108.51,0,0,1-14.64-.6,55.88,55.88,0,0,1-14.33-3.38,28.12,28.12,0,0,1-6.58-3.69,17.75,17.75,0,0,1-5-5.93l-3.13-6,5.92,3.57,1,.63a32.43,32.43,0,0,0,10.82,3.75,58.57,58.57,0,0,0,11.7.73,100.31,100.31,0,0,0,23.17-3.78,111.49,111.49,0,0,0,11-3.67q2.67-1,5.25-2.25c.86-.4,1.68-.81,2.55-1.25a9.32,9.32,0,0,1,.89-.36l.65-.24,1.29-.49c6.8-2.86,12.92-7.21,18.72-11.61,11.55-8.93,21.89-18.57,33-25.75,5.51-3.57,11.24-6.53,17.19-8a31.05,31.05,0,0,1,8.89-.82,27.58,27.58,0,0,1,8.17,2,28.1,28.1,0,0,0-7.89-1.18,30.25,30.25,0,0,0-8.84,1.47,45.69,45.69,0,0,0-8.73,4,79.61,79.61,0,0,0-8.2,5.42c-5.26,3.87-10.06,8.08-14.29,11.7s-7.83,6.76-10.41,8.8c-7.46,5.89-14.95,11.64-23.33,15.71-1.07.47-2.12,1-3.2,1.39l-1.63.6a8.38,8.38,0,0,0-1.41.59c-2.05,1-4.12,1.92-6.2,2.74a116.23,116.23,0,0,1-12.61,4.17A101.68,101.68,0,0,1,185.54,587a57.37,57.37,0,0,1-12.38-1.17,41.19,41.19,0,0,1-5.89-1.77,31.32,31.32,0,0,1-5.43-2.8l1.12-1a16.64,16.64,0,0,0,7.1,6.92,37.48,37.48,0,0,0,9.45,3.46,87.16,87.16,0,0,0,19.66,1.88c13-.1,25.41-1.69,36.47-6,11.16-4,20.91-10.07,29.81-16.31s16.93-13,24.68-19.34l7.58-6.19a91.27,91.27,0,0,1,8.57-6.44,40.39,40.39,0,0,1,8.94-4.3,27.36,27.36,0,0,1,4-1,20.21,20.21,0,0,1,3-.21h.45c.05,0,.18,0,.17,0l-.11-.16c-.15-.21-.31-.41-.46-.6a11.48,11.48,0,0,0-.92-1,12.75,12.75,0,0,0-1.7-1.37A14.49,14.49,0,0,0,317.4,528.4Z" transform="matrix(-1, 0, 0, 1, 380, 0)" /><path class="cls-3" d="M331.93,509.12a53.27,53.27,0,0,1-4.87-4.46,101.34,101.34,0,0,0-10.64-8.45l-1.59-1.13c-.55-.35-1.12-.67-1.69-1l-3.41-2a36.23,36.23,0,0,0-3.49-1.83l-3.44-1.69c-2.29-1-4.55-1.83-6.55-2.64-1-.43-2-.65-2.93-.95l-2.55-.76a106,106,0,0,0-35.66-3.51c-1.54,0-3.07.28-4.6.44s-3.07.3-4.59.57c-3,.58-6.08,1-9,1.82-1.48.38-3,.7-4.43,1.12L228.14,486c-.72.24-1.44.45-2.15.69l-2.09.82-4.14,1.6a104.8,104.8,0,0,0-25.92,15.79,92.46,92.46,0,0,0-19.05,21.58,90.45,90.45,0,0,0-10.61,24q-.74,3-1.42,5.88c-.41,1.93-.63,3.86-.95,5.72-.14.94-.31,1.86-.43,2.77s-.14,1.83-.2,2.72c-.15,1.8-.28,3.54-.42,5.23-.14-1.51-.27-3.22-.39-5.06-.05-.93-.1-1.88-.16-2.86s.06-2,.1-3,.1-2.08.15-3.13a24.67,24.67,0,0,1,.27-3.2c.32-2.14.65-4.3,1-6.43a71.49,71.49,0,0,1,7.18-19.8A98.49,98.49,0,0,1,202.5,495c3.16-2.08,6.5-3.72,9.72-5.45,3.33-1.49,6.57-3.07,9.92-4.23,3.27-1.35,6.64-2.24,9.9-3.29l5-1.21c.82-.19,1.63-.41,2.45-.58l2.46-.43a113.86,113.86,0,0,1,19.15-1.9l4.62.09,2.28,0,2.26.2,4.46.4c1.47.17,2.91.45,4.35.67A90,90,0,0,1,309.69,490l3.31,2.07a38.23,38.23,0,0,1,3.57,2.43,75.1,75.1,0,0,1,6.89,5.68l3,2.82c.94.9,1.69,1.86,2.43,2.65Z" transform="matrix(-1, 0, 0, 1, 380, 0)" /><path class="cls-3" d="M370,515.56c-.24.3-1.66.05-3.31-.09-.83-.09-1.7-.17-2.51-.18a12,12,0,0,0-2.06.05,71.31,71.31,0,0,0-11.32,2,81.61,81.61,0,0,0-8.84,3c-2.72,1.1-5.15,2.26-7.21,3.17a9.61,9.61,0,0,1,2-3.85,7.08,7.08,0,0,1,2.73-2.23,140,140,0,0,1,14.59-3.54c4.28-.71,8.15-1,11.43-.28a13.12,13.12,0,0,1,2.68,1C369,515,369.75,515.41,370,515.56Z" transform="matrix(-1, 0, 0, 1, 380, 0)" /><path class="cls-2" d="M271,482.31c5.42-11.36,15.72-20.95,22.82-26.72,2.52-2,2.79-5.65-.42-6.84-33.51-12.42-69.91,22.43-79.24,50.61" transform="matrix(-1, 0, 0, 1, 380, 0)" /><path d="M214.15,499.35c-.25-.69,1.33-6.26,4.47-12.13a108.9,108.9,0,0,1,10.06-15.39,80.8,80.8,0,0,1,16.78-16.53,65.34,65.34,0,0,1,21.9-10.61,50.67,50.67,0,0,1,10.39-1.5,45.5,45.5,0,0,1,10.38.95l2.5.62c.83.2,1.62.52,2.43.78l1.2.41a6.25,6.25,0,0,1,.8.34,5.54,5.54,0,0,1,.87.5,5.94,5.94,0,0,1,2.51,3.54,6.6,6.6,0,0,1-.3,4,8.09,8.09,0,0,1-2,2.89l-.61.53-.44.34-.88.69-1.72,1.39c-9.09,7.38-16.34,15.19-20.71,22.51a29.25,29.25,0,0,1,1.91-6.82,46.72,46.72,0,0,1,3.83-7.34,44.23,44.23,0,0,1,8.72-10.25c1.08-.85,2.17-1.67,3.25-2.48l3.08-2.23a2.73,2.73,0,0,0,1.09-1.69c.05-.51-.06-.87-.73-1.26a3.72,3.72,0,0,0-.72-.31l-.84-.32c-.56-.21-1.11-.44-1.68-.63-1.14-.31-2.27-.7-3.42-.94a37.14,37.14,0,0,0-6.9-.88,43,43,0,0,0-13.25,1.68,55.38,55.38,0,0,0-11.66,4.87,80,80,0,0,0-18.13,14.05,118.87,118.87,0,0,0-12.73,15.49c-1.65,2.46-4,5.8-5.79,8.9-.93,1.53-1.72,3-2.37,4.22Z" transform="matrix(-1, 0, 0, 1, 380, 0)" /><g class="cls-4" transform="matrix(-1, 0, 0, 1, 380, 0)"><path d="M353,564a12.39,12.39,0,0,1-5.81-1.23,24.85,24.85,0,0,1-9.61-7.73,38.21,38.21,0,0,1-6.38-12.77,32.47,32.47,0,0,1-.81-3.27c-.11-.53-.22-1.06-.32-1.57s-.14-1-.21-1.52a27.06,27.06,0,0,1-.28-2.83c0-.55-.06-.59-.08-.83a.78.78,0,0,0-.25-.51,1.68,1.68,0,0,0-.87-.36,9.65,9.65,0,0,0-1.58-.16,22.63,22.63,0,0,0-3.63.23,45.59,45.59,0,0,0-7.49,1.68,44.33,44.33,0,0,0-7.21,2.9,27.45,27.45,0,0,0-3.3,2c-1.1.74-2.19,1.53-3.27,2.34-4.31,3.26-8.51,6.85-12.64,10.44s-8.18,7.23-12.34,10.65a172,172,0,0,1-22.73,16.14,123.65,123.65,0,0,1-24.23,11.08,97.8,97.8,0,0,1-23.72,4.67,91.61,91.61,0,0,1-20.47-1c1.4-.21,2.93-.41,4.56-.58l1.24-.12,1.28-.19,2.63-.35c1.79-.18,3.62-.57,5.46-.85s3.68-.71,5.49-1.05c7.23-1.49,13.77-3.57,17.3-4.39a104.75,104.75,0,0,0,20.13-7.13,130.87,130.87,0,0,0,17.65-10c2.77-1.77,5.34-3.74,7.94-5.6s5-3.87,7.39-5.84c4.75-4,9.27-8,13.75-11.73a134.31,134.31,0,0,1,13.58-10.38,38.55,38.55,0,0,1,7.54-3.56,51.59,51.59,0,0,1,7.74-2.09,30.62,30.62,0,0,1,7.91-.58c.34,0,.69.09,1,.13a8.67,8.67,0,0,1,1.18.29,4.67,4.67,0,0,1,2.32,1.46,4.11,4.11,0,0,1,.72,2.61c0,.6,0,1.19.07,1.78a42,42,0,0,0,3,12.81c.4.93.88,1.93,1.39,3s1.11,2.12,1.81,3.15a36.33,36.33,0,0,0,2.21,3.09,27.79,27.79,0,0,0,2.59,2.71,10.62,10.62,0,0,0,1.37,1.17c.48.35.93.72,1.39,1l1.39.82c.22.13.44.27.66.38l.66.29a13.44,13.44,0,0,0,2.29.89Z" /></g><path class="cls-3" d="M218,499.87a6.36,6.36,0,0,1,.72-2.17c.25-.57.56-1.24.9-2s.8-1.44,1.23-2.22.89-1.59,1.37-2.36,1-1.54,1.47-2.26c.91-1.49,1.84-2.76,2.46-3.71a80.57,80.57,0,0,1,7.73-9.93c1.47-1.59,3-3.15,4.5-4.66s3.07-3,4.66-4.31a91.48,91.48,0,0,1,17.16-12,58.22,58.22,0,0,1,16.09-6,32.5,32.5,0,0,1-3.14,2.29c-1.17.78-2.39,1.68-3.6,2.43s-2.34,1.59-3.38,2.19-1.91,1.11-2.55,1.4c-1.29.59-2.6,1.12-3.81,1.77l-3.61,1.93c-2.29,1.4-4.53,2.77-6.56,4.29s-4,3-5.79,4.54c-.91.77-1.76,1.58-2.61,2.35s-1.69,1.54-2.46,2.35a142.58,142.58,0,0,0-14.93,18c-.49.64-1,1.44-1.6,2.23s-1.25,1.61-1.81,2.4C219.38,498,218.38,499.42,218,499.87Z" transform="matrix(-1, 0, 0, 1, 380, 0)" /><path d="M214.21,550.43l.22-.24c-3,2-6.09,6.22-4.21,9.94C218.74,570.57,227.54,545.33,214.21,550.43Z" transform="matrix(-1, 0, 0, 1, 380, 0)" /><path d="M214.2,550.41c0-.3,1.38-1.15,3.31-1.27a4.13,4.13,0,0,1,2.92,1,5.47,5.47,0,0,1,1.44,2.2,9.63,9.63,0,0,1-.47,6.83,11.08,11.08,0,0,1-1.94,3.1,7.33,7.33,0,0,1-3.36,2.2,5.88,5.88,0,0,1-3.69-.16,8,8,0,0,1-2.76-1.81l-.49-.55c-.13-.16-.38-.41-.63-.75l-.23-.55-.15-.39a7.86,7.86,0,0,1-.21-.8,7.14,7.14,0,0,1,.08-3.13,9.51,9.51,0,0,1,2.64-4.37,10.93,10.93,0,0,1,3.41-2.25l.84,1-.28.2a3.05,3.05,0,0,1,.05-.41l-.43-.49c-.45,1.23-1,2.6-1.42,3.78a16.15,16.15,0,0,1-.92,2.52,3.68,3.68,0,0,0-.74,2.91c.09.32,0,.32.16.53s.33.49.52.69.38.41.58.6.42.33.64.46a3.09,3.09,0,0,0,2.81.23,5.4,5.4,0,0,0,2.27-1.89A10,10,0,0,0,220,554.5a5.56,5.56,0,0,0-.3-2.24,2.34,2.34,0,0,0-1.09-1.29,6.23,6.23,0,0,0-2.3-.56C215.34,550.33,214.49,550.43,214.2,550.41Z" transform="matrix(-1, 0, 0, 1, 380, 0)" /><path class="cls-3" d="M213.47,552.29c-2.63,1.64-2.94,6,1,4.94a3.59,3.59,0,0,0,1.69-4.18c-1-1.77-3.44-.86-4.07.77" transform="matrix(-1, 0, 0, 1, 380, 0)" /><path class="cls-3" d="M212.08,553.81c-.12-.1.09-.9.81-1.46a3.16,3.16,0,0,1,1.23-.61,2.81,2.81,0,0,1,1.22,0,2.09,2.09,0,0,1,.82.37,2.26,2.26,0,0,1,.65.74,3.62,3.62,0,0,1,.31,1.81,4.54,4.54,0,0,1-1.64,3.09,2.52,2.52,0,0,1-.33.24,1.38,1.38,0,0,1-.51.23l-.74.16-.79,0a3.8,3.8,0,0,1-.85-.18,2.48,2.48,0,0,1-1.39-1.22,2.92,2.92,0,0,1-.24-1.58,4.14,4.14,0,0,1,2.69-3.36,14,14,0,0,0-.56,1.91,10.15,10.15,0,0,1-.24,1.26,1.37,1.37,0,0,0-.12,1.21,1.2,1.2,0,0,0,1.15.5,4.35,4.35,0,0,0,.75-.07,2.17,2.17,0,0,0,.56-.36,3.12,3.12,0,0,0,.79-1.16,3,3,0,0,0,.22-1.28,2.6,2.6,0,0,0-.1-.58,1.13,1.13,0,0,0-.23-.4,1.56,1.56,0,0,0-1.68-.34,4.78,4.78,0,0,0-1.06.45A3.13,3.13,0,0,0,212.08,553.81Z" transform="matrix(-1, 0, 0, 1, 380, 0)" /><path class="cls-5" d="M224.54,566.55a27.93,27.93,0,0,0-5.93,4.88c-1.61,1.59-2.05,4.27.44,5,3.6,1.5,7.74.18,11.19-1.65C239.94,570.28,232.11,560.71,224.54,566.55Z" transform="matrix(-1, 0, 0, 1, 380, 0)" /><path class="cls-5" d="M224.52,566.53c0-.31,1.3-1.73,3.52-2.28a7,7,0,0,1,3.45,0,7.3,7.3,0,0,1,2.65,1.35,5.24,5.24,0,0,1,2,3.94,6.29,6.29,0,0,1-1.72,4.37,11.63,11.63,0,0,1-3.44,2.57,25.91,25.91,0,0,1-3.52,1.67,14.85,14.85,0,0,1-4.48,1,10.41,10.41,0,0,1-4.67-.83l.17.06a4.51,4.51,0,0,1-2.27-1.62,4,4,0,0,1-.71-2.72,5.78,5.78,0,0,1,2-3.7l-.08.09a20.12,20.12,0,0,1,6.85-4.31,32.14,32.14,0,0,1-2.1,3.61c-.78,1.2-1.5,2.31-2,3l-.11.11a3.32,3.32,0,0,1-.42.49,2.21,2.21,0,0,0-.72,1.12.61.61,0,0,0,0,.42,1.43,1.43,0,0,0,.51.43l.11,0a8.77,8.77,0,0,0,6.91.3,18.47,18.47,0,0,0,3.19-1.37,10.66,10.66,0,0,0,2.62-1.74,4.59,4.59,0,0,0,1.39-2.25,3.15,3.15,0,0,0-.26-2.21,4.72,4.72,0,0,0-3.52-2.31,9.63,9.63,0,0,0-3,.06A12.81,12.81,0,0,0,224.52,566.53Z" transform="matrix(-1, 0, 0, 1, 380, 0)" /><path class="cls-2" d="M284.14,532.31c4.09,3.67,13.66,9.22,18.68,11.47,1.38.62,2.93,1.33,3.47,2.75.93,2.43-1.75,4.65-4.11,5.74-12.2,5.6-34.74,5.08-47.06-.23" transform="matrix(-1, 0, 0, 1, 380, 0)" /><path d="M255.14,552a4.93,4.93,0,0,1,2.36.33c1.25.27,2.87.71,4.66,1a52.73,52.73,0,0,0,9.92,1c4-.11,8.33-.31,12.59-.8a60.15,60.15,0,0,0,12.25-2.49c.92-.34,1.87-.61,2.72-1l1.31-.55a11,11,0,0,0,1-.57,5,5,0,0,0,1.39-1.24c.06-.07.09-.15.12-.17h0l0,0s.08,0-.16-.2a6.79,6.79,0,0,0-1.08-.67l-1.67-.84c-.57-.31-1.13-.61-1.67-.92-2.18-1.24-4.19-2.53-6.07-3.85a48,48,0,0,1-9.28-8.12,83.31,83.31,0,0,1,8.46,2.45,28,28,0,0,1,6.57,3c1.48,1.13,3,2.18,4.46,3.1.7.45,1.56.88,2.46,1.52a8,8,0,0,1,1.34,1.18,5,5,0,0,1,1,1.76,4.55,4.55,0,0,1,0,2.66,5.61,5.61,0,0,1-1.17,2.08,10.42,10.42,0,0,1-3.13,2.34,12,12,0,0,1-1.64.71l-1.59.59c-1.06.35-2.12.67-3.15,1a78.09,78.09,0,0,1-12,2.13c-7.63.7-14.54.51-20.5-1a26.4,26.4,0,0,1-5.78-2.15A28.15,28.15,0,0,1,255.14,552Z" transform="matrix(-1, 0, 0, 1, 380, 0)" /><g class="cls-4" transform="matrix(-1, 0, 0, 1, 380, 0)"><path d="M373.5,517.92c0,.51-1.05,1.07-2.25,1.78-.6.34-1.24.7-1.79,1.08a7,7,0,0,0-1.34,1.07c-2.16,2.29-4.68,4.46-6.61,6.78-3.43,4-6.5,7.93-9.29,10.79a8.05,8.05,0,0,1-1.47-4.16,4.07,4.07,0,0,1,.7-3c2-1.72,3.75-3.23,5.31-4.68l4.31-4.08c2.7-2.51,5.29-4.67,8.07-5.51a7.42,7.42,0,0,1,2.48-.26A14.11,14.11,0,0,1,373.5,517.92Z" /></g><g class="cls-4" transform="matrix(-1, 0, 0, 1, 380, 0)"><path d="M290.45,453.59c0,.25-.39.54-1,.86s-1.35.63-2.14,1.06l-1.23.61-1.16.69a9.12,9.12,0,0,0-1.78,1.31c-1.46,1.36-2.9,2.84-4.27,4.35a36.59,36.59,0,0,0-3.61,4.81,82.31,82.31,0,0,0-4.63,8.76c-1.33,2.88-2.47,5.61-3.67,7.84a10.56,10.56,0,0,1-2.14-4.7,6.1,6.1,0,0,1,.23-3.94c1.81-2.78,3.37-5.29,5-7.57a76.76,76.76,0,0,1,4.66-6.19c3.14-3.67,6.63-6.49,10.22-7.64a10.65,10.65,0,0,1,3.17-.44A18.4,18.4,0,0,1,290.45,453.59Z" /></g><path d="M208.12,558c-.3-.12-.29-.9-.21-1.81a22.53,22.53,0,0,1,.64-2.53,8.64,8.64,0,0,1,.24-.83c.13-.27.28-.53.43-.8a6.62,6.62,0,0,1,1.2-1.46,10.27,10.27,0,0,1,3.09-1.87,25.48,25.48,0,0,1,4.76-1.3,9.1,9.1,0,0,0,3.26-1.27,3.12,3.12,0,0,1,.44,1.37,3.32,3.32,0,0,1-.24,1.49c-.38.92-1.09,1.58-1.53,1.6-1.8.19-3.14.14-4.38.34A8,8,0,0,0,212.7,552c-1.72,1.12-2.29,2.65-3,4a4,4,0,0,1-.37.53,6.26,6.26,0,0,1-.45.6C208.56,557.5,208.24,557.86,208.12,558Z" transform="matrix(-1, 0, 0, 1, 380, 0)" /><path d="M238.68,574.74c-.1-.34.8-1.24,1.54-2.5a11.1,11.1,0,0,0,1.51-3.68,22.59,22.59,0,0,0-.29-9.77,9.52,9.52,0,0,0-4-5.72,12.51,12.51,0,0,0-6.22-1.32,6.17,6.17,0,0,1,3.25-2.46,4.9,4.9,0,0,1,3.61,0,11.89,11.89,0,0,1,5.13,6.11,21.14,21.14,0,0,1,1.36,6.33c.25,4-.47,7.66-2.29,10.26a6.94,6.94,0,0,1-.83,1,8.93,8.93,0,0,1-1.1.87A8.32,8.32,0,0,1,238.68,574.74Z" transform="matrix(-1, 0, 0, 1, 380, 0)" /><path d="M247.18,568.39c-.25-.23,0-1.14.29-2.22a13.25,13.25,0,0,0,.49-3,53.52,53.52,0,0,0-.33-7.47,13,13,0,0,0-1.71-5,7.31,7.31,0,0,0-1.55-1.64,14.63,14.63,0,0,0-2-1.19,4.24,4.24,0,0,1,3.07-1.28,3.42,3.42,0,0,1,2.64,1.07,13.59,13.59,0,0,1,2,5.71,37.49,37.49,0,0,1,.34,4.76,18.61,18.61,0,0,1-1.12,7.64A7.77,7.77,0,0,1,247.18,568.39Z" transform="matrix(-1, 0, 0, 1, 380, 0)" /></svg>