<svg xmlns="http://www.w3.org/2000/svg" id="uniforms_1" viewBox="0 0 380 600"><defs transform="matrix(-1, 0, 0, 1, 380, 0)"><style>.cls-1{fill:#0c3744;}.cls-2{opacity:0.5;}.cls-3{fill:#fffffe;}.cls-4{fill:#e4ffca;}.cls-5{fill:#7eed56;}.cls-6{fill:#fff;}</style></defs><path class="cls-1 color-glove" d="M216.33,457.24c-2.08,3.86-7.75,5.58-11.26,8.74a12.65,12.65,0,0,0-4.14,10.14,22.23,22.23,0,0,0,3.78,10.43c.94,1.5,2,3,2.2,4.7a20.72,20.72,0,0,1-.25,3.42c-.39,6.17,6.17,11.43,13.41,13.76,13.18,4.23,28.65,1.21,40.52-5,4.89-2.55,9.52-5.8,11.63-10.13,1.42-2.91,1.59-6.11,1.64-9.23.11-7.17-.42-14.61-4.55-21" transform="matrix(-1, 0, 0, 1, 380, 0)"></path><path d="M269.36,463.05c.41.11,1.59,1.37,2.72,3.62a29,29,0,0,1,2.67,9,71.76,71.76,0,0,1,.6,10.71,24.37,24.37,0,0,1-.57,5.07,16.66,16.66,0,0,1-1.53,4.1c-2.08,3.93-5.57,6.8-9.14,9.14a60.93,60.93,0,0,1-11.64,5.76,56.89,56.89,0,0,1-25.9,3.38,43.2,43.2,0,0,1-5.61-1,32.94,32.94,0,0,1-5.52-1.87,24.72,24.72,0,0,1-9.68-7.26,14.17,14.17,0,0,1-2.81-6.24,13.16,13.16,0,0,1-.1-3.59c.14-1.06.27-1.73.27-2a1.15,1.15,0,0,0,0-.32A2.93,2.93,0,0,0,203,491a14.41,14.41,0,0,0-.89-1.68c-.39-.66-.87-1.47-1.27-2.23s-.8-1.58-1.15-2.4A20.25,20.25,0,0,1,197.88,474a15.07,15.07,0,0,1,4.76-9.22c2.56-2.25,5.17-3.26,7.38-4.38s4.16-2.14,5.31-3.68a6.65,6.65,0,0,1-1.13,3.14,18.9,18.9,0,0,1-2.62,3.14c-2,2-4.28,3.92-5.32,5.83a11,11,0,0,0-1.46,5.64,28.11,28.11,0,0,0,.53,4.28,17.14,17.14,0,0,0,.9,3.42,29.82,29.82,0,0,0,1.58,3.45,14.51,14.51,0,0,1,1.83,4.87,9.41,9.41,0,0,1-.14,2.8c-.14.75-.29,1.3-.32,1.74a7.67,7.67,0,0,0,1.93,5.61,18.71,18.71,0,0,0,5.3,4.34,32.5,32.5,0,0,0,13.2,3.74,47.43,47.43,0,0,0,13.11-.81,57.45,57.45,0,0,0,11.78-3.7,52.42,52.42,0,0,0,10-5.56c2.89-2.12,5.21-4.6,6.19-7.38s1-6.2,1.16-9.49a70.79,70.79,0,0,0-.3-10.94A29.81,29.81,0,0,0,269.36,463.05Z" transform="matrix(-1, 0, 0, 1, 380, 0)"></path><path class="cls-1 color-glove" d="M219.82,443.16c4.48,23.94,54.95,23.37,52.84-4.27,10.2,3.07,5.57,19.81,2.38,28-4,10.15-3.86,12.88-9.5,18-12.49,11.39-44.12,7.7-51.1-10.61-2.78-10.89-6.74-31.11,6.26-35.6C219.51,440.16,219.67,441.68,219.82,443.16Z" transform="matrix(-1, 0, 0, 1, 380, 0)"></path><path d="M219.78,443.16a4.24,4.24,0,0,1-.37-1.51,4.55,4.55,0,0,1,.89-3.27l.57.81a12.75,12.75,0,0,0-3.49,2.12,11.77,11.77,0,0,0-2.92,3.92c-1.53,3.2-2,7.3-1.81,11.33a65.63,65.63,0,0,0,1.66,11.74c.4,1.81.85,3.52,1.28,5.07a3.66,3.66,0,0,0,.35.93c.16.32.31.64.45.95.33.59.66,1.15,1,1.64a26.4,26.4,0,0,0,13,9.57,41.57,41.57,0,0,0,16.94,2.42,35.6,35.6,0,0,0,8.4-1.54,22,22,0,0,0,7.2-3.76l.74-.63.75-.72c.5-.5,1-1,1.39-1.49a15.64,15.64,0,0,0,2.13-3.2,81.76,81.76,0,0,0,3-8c.52-1.47,1.1-3,1.62-4.4s1-2.81,1.4-4.23a47.31,47.31,0,0,0,1.78-8.48,24.15,24.15,0,0,0,.12-4.05,13.7,13.7,0,0,0-.23-1.86,7.54,7.54,0,0,0-.21-.85l-.12-.41c0-.07-.05-.13-.07-.19s0,0,0,0,0-.09-.05-.07l0,0,0,0-.28,1.16a7.88,7.88,0,0,1-.47,1.42l-.54,1.39c-.45.88-.91,1.76-1.43,2.59A22.84,22.84,0,0,1,264,459a31.89,31.89,0,0,1-9.9,3.22,39.47,39.47,0,0,1-9.8.31,34.69,34.69,0,0,1-17-5.95,21.55,21.55,0,0,1-5.73-6.07,18.83,18.83,0,0,1-2.61-7.23,20.29,20.29,0,0,0,6.4,8.52,27.28,27.28,0,0,0,10.67,4.77,40.14,40.14,0,0,0,10.86.92,57,57,0,0,0,7.82-.94A28.36,28.36,0,0,0,261,454.7a20,20,0,0,0,5.24-3.46,14,14,0,0,0,3.46-4.94,7.68,7.68,0,0,0,.52-1.41l.2-.73.16-.61.1-.7c.07-2,.23-4.05.19-5.88.26-.05.52-.11.76-.18.08,0,.09-.08.23,0l.4.15.78.3a14.14,14.14,0,0,1,2.82,1.44A9.34,9.34,0,0,1,278.2,441a11.83,11.83,0,0,1,.9,1.55c.13.27.23.58.35.87s.15.43.21.65a17.82,17.82,0,0,1,.65,5.16,31.81,31.81,0,0,1-.42,4.92,57.62,57.62,0,0,1-2.31,9.18c-.49,1.47-1,2.93-1.58,4.33s-1.08,2.77-1.58,4.16a59.21,59.21,0,0,1-3.41,8.28,19.79,19.79,0,0,1-2.7,3.66,29.91,29.91,0,0,1-3.23,3,31,31,0,0,1-15.85,5.7,45.26,45.26,0,0,1-15.82-1.27,34.8,34.8,0,0,1-13.56-6.77,24.67,24.67,0,0,1-4.93-5.58,15.88,15.88,0,0,1-.93-1.6,16.81,16.81,0,0,1-.79-1.66c-.11-.29-.24-.5-.38-.95l-.23-.89-.39-1.65a74,74,0,0,1-2-13.06c-.22-3.83,0-9,2-13.41a13.43,13.43,0,0,1,4.08-5.17,12.41,12.41,0,0,1,4.29-2l.67-.17-.44.5a4.35,4.35,0,0,0-1.08,2.86C219.75,442.42,219.78,442.85,219.78,443.16Z" transform="matrix(-1, 0, 0, 1, 380, 0)"></path><g class="cls-2" transform="matrix(-1, 0, 0, 1, 380, 0)"><path class="cls-3" d="M277,456.44a6.67,6.67,0,0,1-.65,2,22.76,22.76,0,0,1-2.28,3.77c-.48.69-1.1,1.3-1.65,2s-1.24,1.2-1.84,1.76-1.24,1-1.81,1.45l-1.54,1.09a30.74,30.74,0,0,1-11,4.51,43.81,43.81,0,0,1-12.1.65,41.2,41.2,0,0,1-18.7-6.18,30.6,30.6,0,0,1-6.65-5.75,24.11,24.11,0,0,1-3.94-6.31,72.57,72.57,0,0,0,5.72,4.89c2.07,1.57,4.11,2.83,5.11,3.62a30.44,30.44,0,0,0,6.38,4,35.38,35.38,0,0,0,6.75,2.45,39.12,39.12,0,0,0,6.68,1.11c1.09.11,2.17.09,3.23.13s2.11,0,3.13-.15a34.48,34.48,0,0,0,11.06-2.76,30.33,30.33,0,0,0,8.26-5.31l1.79-1.75c.58-.68,1.29-1.33,1.8-2.06C275.86,458.23,276.62,456.85,277,456.44Z"></path></g><path class="cls-4 color-stone" d="M271.75,488.07a5.77,5.77,0,0,1,5.81,2.65,6.74,6.74,0,0,1,1.13,5.27c-.61,6.08-6.21,11.51-11.37,13.31a4.87,4.87,0,0,1-3.75-.28,8,8,0,0,1-3.88-3.76c-1.21-2.49.3-6.58,2.94-10.5A15.54,15.54,0,0,1,271.75,488.07Z" transform="matrix(-1, 0, 0, 1, 380, 0)"></path><path class="cls-5 color-stone2" d="M271.76,488.1c-.17.37-2.48,1.06-4.59,2.77a15.74,15.74,0,0,0-2.85,2.92,16.2,16.2,0,0,0-1.73,2.89A23.73,23.73,0,0,0,261,501c-.32,1.45-.37,2.91.2,3.74a6.44,6.44,0,0,0,2.9,2.6,4.21,4.21,0,0,0,1.68.4,2,2,0,0,0,.63-.11c.09,0,.23-.09.42-.16l.51-.22c4.52-2.1,8.31-6.25,9.42-10.46.12-.56.24-1.12.35-1.67a4.83,4.83,0,0,0,0-1.37,6.1,6.1,0,0,0-1-2.63,5,5,0,0,0-4.34-2.44,3.93,3.93,0,0,1,3-.81,6.43,6.43,0,0,1,3.6,1.71,7.56,7.56,0,0,1,2.11,3.37,5.67,5.67,0,0,1,.12,3.08l-.08.28,0,.14a1.09,1.09,0,0,0,0-.12l-.13.49a9.29,9.29,0,0,1-.27.94,13.9,13.9,0,0,1-.71,1.77,17.32,17.32,0,0,1-1.87,3.07,22.59,22.59,0,0,1-4.71,4.62,20.53,20.53,0,0,1-5.41,2.89,5.32,5.32,0,0,1-3.23,0,8.49,8.49,0,0,1-2.68-1.32,9.17,9.17,0,0,1-2-2.06,7.31,7.31,0,0,1-.73-1.25,4.88,4.88,0,0,1-.42-1.45,10.88,10.88,0,0,1,.83-5.22,23.84,23.84,0,0,1,2.17-4.18,16.9,16.9,0,0,1,2.86-3.4,12.27,12.27,0,0,1,7.51-3.11Z" transform="matrix(-1, 0, 0, 1, 380, 0)"></path><path class="cls-6" d="M275.53,492.78c0,.35-.61.66-1.26,1.16a6.5,6.5,0,0,0-1.68,1.5c-1,1.56-2.28,3.1-3.13,4.66-.75,1.34-1.43,2.63-2,3.83a18.32,18.32,0,0,0-1.22,3.45,3.46,3.46,0,0,1-1.27-.64,3.88,3.88,0,0,1-.93-1.13,3.29,3.29,0,0,1-.41-1.2,1.25,1.25,0,0,1,.1-.86c.9-1.51,1.77-2.64,2.54-3.7s1.46-2,2.13-2.93c1.36-1.78,2.71-3.37,4.4-4.06a3.67,3.67,0,0,1,1.54-.25A6.18,6.18,0,0,1,275.53,492.78Z" transform="matrix(-1, 0, 0, 1, 380, 0)"></path><path class="cls-4 color-stone" d="M256.84,501.9a6.62,6.62,0,0,1,3.22,6.58,7.7,7.7,0,0,1-2.83,5.48c-5,4.94-13.88,5.67-19.75,3.51a5.57,5.57,0,0,1-3.12-3,9.14,9.14,0,0,1-.7-6.15c.74-3.09,5.05-5.61,10.24-7.16A17.77,17.77,0,0,1,256.84,501.9Z" transform="matrix(-1, 0, 0, 1, 380, 0)"></path><path class="cls-5 color-stone2" d="M256.83,501.93c-.39.16-2.94-.93-6.07-1a17.82,17.82,0,0,0-4.68.49,19.17,19.17,0,0,0-3.66,1.27,26.3,26.3,0,0,0-4.54,2.63c-1.36,1-2.53,2.31-2.66,3.57a7.64,7.64,0,0,0,.66,4.57,5.34,5.34,0,0,0,1.26,1.67,2.65,2.65,0,0,0,.71.42l.51.16.61.19c5.63,1.47,12.08.54,16.19-2.48l1.55-1.25a5.82,5.82,0,0,0,1.05-1.26,7.21,7.21,0,0,0,1-3.14,5.79,5.79,0,0,0-2.22-5.39A4.57,4.57,0,0,1,259.7,504a7.3,7.3,0,0,1,1.8,4.09,8.56,8.56,0,0,1-.62,4.4,6.65,6.65,0,0,1-2.07,2.73l-.26.18-.13.09.06-.06s0,0,0,0l-.45.33a9.21,9.21,0,0,1-.9.64,17.51,17.51,0,0,1-1.88,1,18.94,18.94,0,0,1-3.83,1.38,25.08,25.08,0,0,1-7.47.71,23,23,0,0,1-6.86-1.35,6,6,0,0,1-2.82-2.28,9.38,9.38,0,0,1-1.39-3.08,10.3,10.3,0,0,1-.28-3.26,8.28,8.28,0,0,1,.25-1.61,5.79,5.79,0,0,1,.69-1.56,12.41,12.41,0,0,1,4.48-3.94,27.17,27.17,0,0,1,4.94-2.11,19,19,0,0,1,5-.94,14.35,14.35,0,0,1,8.9,2.56Z" transform="matrix(-1, 0, 0, 1, 380, 0)"></path><path class="cls-6" d="M256.77,508.82c-.1.13-.36.16-.7.14-.18,0-.37,0-.57-.07l-.68-.05a8.07,8.07,0,0,0-2.59.05,56.06,56.06,0,0,0-6.24,1.72,43.82,43.82,0,0,0-4.61,2,18.49,18.49,0,0,0-3.51,2.35,3.87,3.87,0,0,1-.51-1.42,4.18,4.18,0,0,1,.08-1.58,4,4,0,0,1,.55-1.3,1.51,1.51,0,0,1,.7-.67,46.83,46.83,0,0,1,4.8-1.53c1.43-.41,2.75-.74,4-1,2.49-.58,4.82-.94,6.8-.37a4.77,4.77,0,0,1,1.55.82A8.49,8.49,0,0,1,256.77,508.82Z" transform="matrix(-1, 0, 0, 1, 380, 0)"></path><path class="cls-4 color-stone" d="M232.63,505.45a6.69,6.69,0,0,1-.21,7.41,7.81,7.81,0,0,1-5.12,3.59c-6.79,2.09-15.12-1.45-19.38-6.15a5.7,5.7,0,0,1-1.4-4.13,9.3,9.3,0,0,1,2.27-5.85c2.12-2.43,7.18-2.65,12.56-1.61A18.07,18.07,0,0,1,232.63,505.45Z" transform="matrix(-1, 0, 0, 1, 380, 0)"></path><path class="cls-5 color-stone2" d="M232.61,505.47c-.43,0-2.2-2.23-5-3.74a18.28,18.28,0,0,0-4.43-1.76,19.2,19.2,0,0,0-3.88-.59,27,27,0,0,0-5.32.21c-1.72.29-3.37.88-4.09,2a7.69,7.69,0,0,0-1.56,4.42,5.25,5.25,0,0,0,.35,2.11,2.38,2.38,0,0,0,.44.71,4.23,4.23,0,0,0,.38.39l.46.46c4.36,4,10.6,6.18,15.72,5.4l2-.39a6.05,6.05,0,0,0,1.54-.64,7.26,7.26,0,0,0,2.41-2.33,5.93,5.93,0,0,0,.54-5.91,4.72,4.72,0,0,1,2.06,2.88,7.48,7.48,0,0,1-.33,4.51,8.67,8.67,0,0,1-2.62,3.65,6.72,6.72,0,0,1-3.14,1.46l-.32,0-.16,0,.08,0s.05,0,0,0l-.56.09a10.56,10.56,0,0,1-1.11.15l-1.09.07c-.37,0-.73,0-1.08,0a19.21,19.21,0,0,1-4.08-.57,25.58,25.58,0,0,1-7-2.87,23.86,23.86,0,0,1-5.51-4.44,6.08,6.08,0,0,1-1.45-3.37,9.79,9.79,0,0,1,.2-3.42,10.84,10.84,0,0,1,1.28-3.05,8.27,8.27,0,0,1,1-1.32,5.94,5.94,0,0,1,1.34-1.08,12.55,12.55,0,0,1,5.88-1.42,27.12,27.12,0,0,1,5.42.44,19.53,19.53,0,0,1,4.9,1.49,14.53,14.53,0,0,1,6.79,6.48Z" transform="matrix(-1, 0, 0, 1, 380, 0)"></path><path class="cls-6" d="M229.31,511.62c-.15.07-.4,0-.7-.21s-.3-.2-.48-.33l-.57-.37a8.65,8.65,0,0,0-2.35-1.17,53.55,53.55,0,0,0-6.42-1.41,42.83,42.83,0,0,0-5.09-.36,18.71,18.71,0,0,0-4.26.47,3.85,3.85,0,0,1,.22-1.5,4.42,4.42,0,0,1,.82-1.37,4,4,0,0,1,1.1-.9,1.52,1.52,0,0,1,.95-.27,44.7,44.7,0,0,1,5,.88c1.47.3,2.81.63,4.08.94,2.5.66,4.76,1.43,6.26,2.88a4.5,4.5,0,0,1,1,1.46A7.52,7.52,0,0,1,229.31,511.62Z" transform="matrix(-1, 0, 0, 1, 380, 0)"></path><path class="cls-4 color-stone" d="M260.44,479.29a6.7,6.7,0,0,1,2.32,7,7.81,7.81,0,0,1-3.6,5.11c-5.67,4.27-14.71,3.77-20.32.79a5.6,5.6,0,0,1-2.71-3.41,9.27,9.27,0,0,1,.14-6.27c1.17-3,5.85-4.93,11.27-5.78A18.1,18.1,0,0,1,260.44,479.29Z" transform="matrix(-1, 0, 0, 1, 380, 0)"></path><path class="cls-5 color-stone2" d="M260.42,479.32c-.41.1-2.82-1.35-6-1.83a18.13,18.13,0,0,0-4.76-.15,19.93,19.93,0,0,0-3.85.76,26.84,26.84,0,0,0-4.93,2c-1.52.86-2.87,2-3.18,3.23a7.73,7.73,0,0,0,0,4.69,5.17,5.17,0,0,0,1,1.86,2.65,2.65,0,0,0,.66.53c.1.06.28.13.49.23l.59.27c5.45,2.26,12.06,2.22,16.62-.25l1.73-1.05a5.65,5.65,0,0,0,1.23-1.12,7.33,7.33,0,0,0,1.48-3,5.93,5.93,0,0,0-1.5-5.73,4.64,4.64,0,0,1,2.91,2,7.45,7.45,0,0,1,1.23,4.35,8.72,8.72,0,0,1-1.24,4.32,6.72,6.72,0,0,1-2.45,2.44l-.29.15-.14.07.07-.05s0,0,0,0l-.49.28c-.34.17-.65.38-1,.52l-1,.43c-.34.14-.68.24-1,.36a19.62,19.62,0,0,1-4,.86,25.19,25.19,0,0,1-7.6-.32,23.12,23.12,0,0,1-6.69-2.3,6,6,0,0,1-2.51-2.67,9.57,9.57,0,0,1-1-3.29,10.7,10.7,0,0,1,.16-3.3,8.46,8.46,0,0,1,.49-1.58,5.71,5.71,0,0,1,.89-1.47,12.6,12.6,0,0,1,5-3.33,26.53,26.53,0,0,1,5.25-1.43,19.65,19.65,0,0,1,5.11-.26,14.37,14.37,0,0,1,5.35,1.54A14,14,0,0,1,260.42,479.32Z" transform="matrix(-1, 0, 0, 1, 380, 0)"></path><path class="cls-6" d="M259.41,486.22c-.12.12-.38.11-.72,0-.18,0-.36-.09-.57-.14l-.67-.15a8.08,8.08,0,0,0-2.6-.31,55,55,0,0,0-6.52.85,42,42,0,0,0-4.91,1.39,18.56,18.56,0,0,0-3.84,1.89,3.7,3.7,0,0,1-.31-1.49,4.38,4.38,0,0,1,.31-1.56,3.76,3.76,0,0,1,.73-1.22,1.57,1.57,0,0,1,.8-.58,44.59,44.59,0,0,1,5-.88c1.49-.21,2.86-.36,4.15-.5,2.58-.23,5-.27,6.87.58a4.68,4.68,0,0,1,1.45,1A8.33,8.33,0,0,1,259.41,486.22Z" transform="matrix(-1, 0, 0, 1, 380, 0)"></path></svg>