<svg xmlns="http://www.w3.org/2000/svg" id="uniforms_1" viewBox="0 0 380 600"><defs transform="matrix(-1, 0, 0, 1, 380, 0)"><style>.cls-1{fill:#ffd635;}.cls-2{fill:#866651;}.cls-3{fill:#fff8b8;}.cls-4{fill:#d7f7ff;}.cls-5{fill:#3690ea;}.cls-6{fill:#51e9f4;}.cls-7{fill:#ffffff;}</style></defs><path class="cls-1 color-staff1" d="M231.9,562.84a9.86,9.86,0,0,0,3.22,4c.65.5,1.45,1.08,1.29,1.76a1.68,1.68,0,0,1-.42.66c-2.63,3-4.6,6.05-7.93,8.77a22.85,22.85,0,0,1-8.72-8.1,1.42,1.42,0,0,1-.27-.71,1.6,1.6,0,0,1,.58-1l3.08-3.27c.87-.92.12-2.41,1.68-2.61" transform="matrix(-1, 0, 0, 1, 380, 0)" /><path d="M224.42,562.36c0,.16-.55.27-.67.73a8.62,8.62,0,0,0-.15,1,2.76,2.76,0,0,1-.24.74,3.22,3.22,0,0,1-.47.64L221,567.69l-.82,1a.94.94,0,0,0-.22.5.53.53,0,0,0,.17.35l.13.13a2.71,2.71,0,0,1,.22.27c.32.4.65.79,1,1.17a24.78,24.78,0,0,0,2.27,2.19,26.05,26.05,0,0,0,2.55,1.91c.44.29.89.56,1.34.82.16.09.14.08.15.07h0s0,0,0,0v0h0L228,576l.24-.23.93-.93c.61-.64,1.2-1.3,1.79-2,1.16-1.34,2.31-2.72,3.51-4,.64-.56.71-.26-.86-1.88a8.89,8.89,0,0,1-2.11-3.93,21.43,21.43,0,0,0,3.72,2.34l.95.45.26.14a4.37,4.37,0,0,1,.38.26,4.42,4.42,0,0,1,.71.65,2.29,2.29,0,0,1,.3,2.71l-6.6,6.58q-.75.72-1.5,1.38l-1,.8-.51.43c-.08.12-.18,0-.28,0l-.28-.17c-.37-.21-.8-.45-1.09-.64s-.54-.34-.81-.51c-.52-.34-1-.69-1.52-1a23.31,23.31,0,0,1-4.93-4.82,11.85,11.85,0,0,1-1-1.57,1.79,1.79,0,0,1-.13-1.09,2.31,2.31,0,0,1,.51-1l.36-.4.25-.25.5-.51,1-1a14.22,14.22,0,0,1,1.1-1l.32-.25c.09-.08.15-.1.22-.17a1.79,1.79,0,0,0,.33-.54c.18-.42.36-1,.79-1.3A1.29,1.29,0,0,1,224.42,562.36Z" transform="matrix(-1, 0, 0, 1, 380, 0)" /><path class="cls-1 color-staff1" d="M243.44,357.59l-11.23-1.19c-.4,7.45-3.47,59.59-3.88,67l-2.8,51.65c-1.05,19.31-1,17.27-2.05,36.58l-2.23,41.12c-.21,4-2.36,9.12,5.6,9.34,5.06.14,7.91-.26,8.13-4,.05-.78.06-1.56.09-2.34l.27-6.82.8-20.74c.76-19.37.42-17.4,1.17-36.77l2.25-57.86C240,423.33,243.45,357.59,243.44,357.59Z" transform="matrix(-1, 0, 0, 1, 380, 0)" /><path d="M243.45,357.54c0,.08,0,.22.09.5s0,.55.05.89c0,.66,0,1.53,0,2.59,0,2.11-.1,5-.21,8.35-.22,6.8-.59,15.77-1,25.4s-.84,19.9-1.24,29.29-.56,17.89-.68,24c-.18,10.74-.42,21.87-.7,33.22-.15,5.67-.29,11.4-.44,17.16s-.2,11.56-.31,17.36c-.26,11.66-.69,23.3-1.05,34.85-.05,1.44-.1,2.88-.14,4.32l-.08,2.2,0,.55c0,.21,0,.49-.07.74a6.42,6.42,0,0,1-.14.8,5.23,5.23,0,0,1-.25.84,6,6,0,0,1-2.44,3,8.32,8.32,0,0,1-3,1.09A26.34,26.34,0,0,1,227,565a12.5,12.5,0,0,1-5.37-1.12,6.27,6.27,0,0,1-2.69-2.49,7.22,7.22,0,0,1-.94-3.26,28.69,28.69,0,0,1,.3-4.68l.07-.9.05-1,.11-2.08c.9-18.15,1.81-36.18,2.85-53.84s2.11-34.85,3.1-51.36,2.14-32.29,3.26-47q.87-11.06,1.66-21.3.9-10.86,1.7-20.73l4.36.54,2.86.38,2.66.36,1.28.17.63.09.32,0,.16,0h.15l-.09.85.09-.85h-2.6l-2.76,0-5.79-.1c0,1.42.07,2.88.1,4.37s0,3.14.06,4.75c0,3.23,0,6.56,0,9.92,0,6.73-.09,13.61-.22,20.16-.26,13.11-.75,24.91-1.29,31.55q-1.94,23.52-3.52,45.65c-1,14.77-2.1,29.07-2.95,43q-.63,10.41-1.24,20.5-.3,5-.58,10c-.09,1.66-.19,3.31-.28,4.95-.05.81-.08,1.64-.18,2.51s-.21,1.65-.27,2.41c-.17,1.56,0,2.88.82,3.57a6.33,6.33,0,0,0,3.83,1.07,22.42,22.42,0,0,0,4.53-.17,4.16,4.16,0,0,0,1.71-.64,2.23,2.23,0,0,0,.78-1.33,6.42,6.42,0,0,0,.12-1l0-1.17.09-2.34c0-1.57.11-3.13.17-4.68q.17-4.67.33-9.25c.43-12.23.83-24,1-35.48s.69-22.51,1-33.21c.74-21.38,1.37-41.34,2.6-59.94.5-8.84,1.45-20.89,2.35-31.48.47-5.3.9-10.23,1.25-14.21.19-2,.35-3.74.48-5.19S243.46,358.38,243.45,357.54Z" transform="matrix(-1, 0, 0, 1, 380, 0)" /><path class="cls-2" d="M217.61,561c1.38,2.16,5.94,3,8.79,3.19,8.75.53,12.37-3.83,11-9.74s-.69-11.7.61-17.42c.93-4.1,4.76-10.26,2.42-14.38-.44-.77-1-1.49-1.47-2.26a18.48,18.48,0,0,1-2.15-9.42s-9.35,2.69-14.47-1.34c-1.06-.83-2.27,9.48-2.77,10-2,2.34-3.46,3.73-2.7,6.45.85,3,1.79,6,2.44,9.09,1.2,5.76,1.62,11.7-.23,17.35-.75,2.31-2.94,5.87-1.58,8.28A1.09,1.09,0,0,0,217.61,561Z" transform="matrix(-1, 0, 0, 1, 380, 0)" /><path d="M217.57,561a1.89,1.89,0,0,1-.76-1.15,5.86,5.86,0,0,1,0-2.92,27.48,27.48,0,0,1,1.2-3.68,23.06,23.06,0,0,0,1-4.2,31.84,31.84,0,0,0-.12-9.25,44.42,44.42,0,0,0-1.8-7.44c-.34-1-.68-2-1-2.93-.17-.5-.35-1-.52-1.51l-.27-.76a8.66,8.66,0,0,1-.26-.84,6.19,6.19,0,0,1-.26-2.24,6.53,6.53,0,0,1,.63-2.28,17.13,17.13,0,0,1,2.15-3.08c.14-.19.13-.21.17-.51l.25-1.56.51-3.31.08-.43.11-.58c.09-.49.2-1,.32-1.46a7.52,7.52,0,0,1,1-2.57,3.13,3.13,0,0,1,.8-.82,2,2,0,0,1,.53-.28,1.54,1.54,0,0,1,.48,0h1c.06,0,.2.05.31.1l.36.16.7.31a8.1,8.1,0,0,0,1.42.76l.72.23a11.06,11.06,0,0,0,1.3.25,15.94,15.94,0,0,0,2.79.15c.48,0,.95,0,1.43-.1.24,0,.48,0,.72-.08l.79-.12a53.28,53.28,0,0,0,6.31-1.57c0,1.89-.05,3.91.08,5.69a11.49,11.49,0,0,0,.22,1.63c.07.38.16.74.26,1.1a13.33,13.33,0,0,0,.65,1.87c.13.3.26.59.41.88l.23.43c.08.15.12.2.2.34a21.12,21.12,0,0,1,1.42,2.17,9,9,0,0,1,1,3.39,15.47,15.47,0,0,1-.75,5.74c-.49,1.67-1.1,3.16-1.62,4.56-.27.71-.5,1.36-.69,2s-.34,1.29-.49,2c-.31,1.42-.57,2.83-.76,4.22a35.19,35.19,0,0,0-.27,8.1c.06.65.14,1.29.25,1.93l.18,1.08a10.83,10.83,0,0,1,.14,1.29,10,10,0,0,1-1,5.26,8.69,8.69,0,0,1-3.74,3.69,12.69,12.69,0,0,1-4.4,1.28,22.54,22.54,0,0,1-7.82-.69,17.92,17.92,0,0,1-3.43-1.29,6.72,6.72,0,0,1-2.81-2.47,6.13,6.13,0,0,0,3.16,1.32,20.43,20.43,0,0,0,3.53.21,26.46,26.46,0,0,0,3.66-.32,17.36,17.36,0,0,0,3.41-.83,7.66,7.66,0,0,0,2.53-1.41,4.23,4.23,0,0,0,1.19-1.67,7.77,7.77,0,0,0,.26-3.31c0-.31-.11-1-.17-1.55s-.12-1.14-.14-1.71c-.08-1.13-.07-2.25,0-3.35a45.11,45.11,0,0,1,.71-6.38c.38-2.06.85-4,1.4-6,.62-2.11,1.47-3.81,2.14-5.55a17.21,17.21,0,0,0,1.34-5,5.52,5.52,0,0,0-.28-2.18,10.68,10.68,0,0,0-1.25-2.12,17.57,17.57,0,0,1-2.12-5.3c-.11-.46-.19-.91-.26-1.37l-.1-.67,0-.39c0-.53,0-1.08-.06-1.57a18.77,18.77,0,0,1-2.06.41,28.28,28.28,0,0,1-3.43.26,19.61,19.61,0,0,1-3.42-.24c-.57-.09-1.13-.24-1.69-.38l-.75-.26A2.61,2.61,0,0,1,224,512a4.75,4.75,0,0,1-.67-.36l-.31-.2c-.13-.05-.2.13-.26.22a8.77,8.77,0,0,0-.38,1.44c-.13.74-.26,1.48-.39,2.2l-.42,2.53-.24,1.28a3.38,3.38,0,0,1-.7,1.68l-.88,1.05c-.24.3-.48.6-.68.89a3.83,3.83,0,0,0-.74,1.56,3.44,3.44,0,0,0,.2,1.63c.89,3,1.83,6,2.45,9a39.85,39.85,0,0,1,.92,8.89,23.13,23.13,0,0,1-2.54,10.41,20.32,20.32,0,0,0-1.9,4.14,4.82,4.82,0,0,0-.15,1.63A3.65,3.65,0,0,0,217.57,561Z" transform="matrix(-1, 0, 0, 1, 380, 0)" /><path class="cls-1 color-staff1" d="M218.91,523.48c-1.35-.75-3.53-2.45-3.06-3.86.38-1.11,2.21-1.88,3.31-2.55a8.84,8.84,0,0,0,3.8,2.5c2.78.71,7.1.54,10,.26a11.1,11.1,0,0,0,4.12-.93c.27-.15,2.3-1.77,1.44-2.07,7.13,2.55.16,7.3-4.5,8a40.19,40.19,0,0,1-8.64.27A15.89,15.89,0,0,1,218.91,523.48Z" transform="matrix(-1, 0, 0, 1, 380, 0)" /><path d="M218.91,523.47c.15,0,.73.27,1.63.55a19.62,19.62,0,0,0,3.45.66,36.14,36.14,0,0,0,7.41,0,23.78,23.78,0,0,0,3.75-.68,13.13,13.13,0,0,0,3.49-1.65,7.11,7.11,0,0,0,1.44-1.21,2.43,2.43,0,0,0,.73-1.38,1.32,1.32,0,0,0-.58-1.14,3.68,3.68,0,0,0-.71-.48l-.2-.11,0,0-.09,0h0s0,0,0,0,0,0-.09.14a4.75,4.75,0,0,1-.41.46,8.18,8.18,0,0,1-.82.75,6.49,6.49,0,0,1-2.72,1.06c-.88.16-1.74.24-2.58.32a47.51,47.51,0,0,1-5,.17,19.77,19.77,0,0,1-4.9-.63,6.89,6.89,0,0,1-2.23-1.18,11.09,11.09,0,0,1-.89-.76l-.35-.34-.08-.09a.68.68,0,0,0-.18.08l-.59.3c-.38.2-.74.4-1.06.61a2.79,2.79,0,0,0-.77.7.86.86,0,0,0-.15.76,4,4,0,0,0,1.12,1.67,10.93,10.93,0,0,0,1.59,1.27,7.93,7.93,0,0,1-1.94-.91,3.85,3.85,0,0,1-1.72-2.07,2,2,0,0,1,.39-1.61,4.89,4.89,0,0,1,1-1c.36-.27.71-.5,1-.71l1.45-.91.88.82.4.36.64.54a5.46,5.46,0,0,0,2,1.15,16.19,16.19,0,0,0,2.42.48,34.59,34.59,0,0,0,4.86.19,35.68,35.68,0,0,0,4.61-.38,5.35,5.35,0,0,0,2-.7,7.63,7.63,0,0,0,.8-.69,2.38,2.38,0,0,0,.34-.38c0-.07.21-.08.32-.11a1.31,1.31,0,0,0,.11-.29c.06-.17,0-.23-.12-.21l.41-.19c.33.13.63.27.93.41a7,7,0,0,1,.69.41,3.37,3.37,0,0,1,1.13,1.21,2.28,2.28,0,0,1,.12,1.7,4,4,0,0,1-.81,1.36,11.84,11.84,0,0,1-4.82,3,12.33,12.33,0,0,1-2.61.61c-.85.11-1.69.2-2.52.25a34.16,34.16,0,0,1-4.75,0,20.91,20.91,0,0,1-4.42-.76A11,11,0,0,1,218.91,523.47Z" transform="matrix(-1, 0, 0, 1, 380, 0)" /><path d="M222.55,522.57c.16-.23,2.06.12,2.82,0,1.32-.11,2.81-.08,4.15-.15a47.34,47.34,0,0,1,6.24,0,3.59,3.59,0,0,1-2.38,1.41,36.64,36.64,0,0,0-5.25-.31,17.46,17.46,0,0,1-4-.29A6.27,6.27,0,0,1,222.55,522.57Z" transform="matrix(-1, 0, 0, 1, 380, 0)" /><path d="M222.49,568.24c.12-.24,1.52,0,2.08-.13a19.82,19.82,0,0,1,3.08-.1,13,13,0,0,1,4.55.76c-.51.69-1.53,1.15-1.88,1-2.81-1.08-5-.5-6.67-.94A3.74,3.74,0,0,1,222.49,568.24Z" transform="matrix(-1, 0, 0, 1, 380, 0)" /><path class="cls-1 color-staff1" d="M200.48,403.18c-3-7.14-3.94-15.05-4.94-22.35-.38-2.84-4.45-1.79-7,.24a45.16,45.16,0,0,0-5.74,5.45,42.67,42.67,0,0,1,6.73-21.59c4.18-6.56,8.07-13.2,14.24-18.91-.87.8,0,5-.07,6.13-.1,2.36-.29,4.71-.55,7.05-.47,4.11-1.06,8.26-1.4,12.29.31.05,5.26.77,5.22,1-1.75,7.87-1,17,1.5,24.92a26.09,26.09,0,0,0,15,16.59c8.44,3.45,17.36,3.81,25.12-.14,17.24-8.77,16.76-27,15.69-41.08l5.49.43c.9.07,1.86-28.13,1.86-30.49,5.27,8.09,8.2,16.81,11.16,25.49,3.61,10.58-.41,21.91.85,23.9l-6.3-10.41a1.59,1.59,0,0,0-1.18-.92c-.77-.05-1.18.63-1.34,1.19-1.6,5.65-2,11.47-3.56,17.21-1.46,5.21-3.48,10.42-7.43,14.87-5.36,6-14.22,8.13-23.74,9.68-17.3,2.83-33.33-7.1-39-19C200.92,404.2,200.69,403.69,200.48,403.18Z" transform="matrix(-1, 0, 0, 1, 380, 0)" /><path d="M200.52,403.16a8.72,8.72,0,0,1,.71,1.19c.34.6.83,1.36,1.37,2.3a36.74,36.74,0,0,0,5.55,6.51,38.21,38.21,0,0,0,9.88,6.55,37.41,37.41,0,0,0,13.52,3.44l1.84.08c.62,0,1.24,0,1.86,0s1.24,0,1.86-.1l1.86-.24c2.49-.33,5-.85,7.52-1.4,4.94-1.12,9.79-2.75,13.53-5.52a20.82,20.82,0,0,0,4.64-4.88,30.17,30.17,0,0,0,3.07-5.59,51,51,0,0,0,3-10.46c.35-1.91.62-3.87.93-5.86.15-1,.31-2,.49-3l.19-1c.07-.36.13-.7.22-1.09a18.49,18.49,0,0,1,.6-2.23,6.57,6.57,0,0,1,.85-1.72,2.57,2.57,0,0,1,1.39-1,2.46,2.46,0,0,1,1.8.19,6.26,6.26,0,0,1,1.34,1.07,10.82,10.82,0,0,1,1.36,1.94l1.11,1.8a1.92,1.92,0,0,0,.17.19l.51.75.24.36.06.09,0,0,0-.06a1.31,1.31,0,0,1-.06-.27,12.29,12.29,0,0,1,.06-1.63l.06-.9.1-2.05A39.55,39.55,0,0,0,282,375a28,28,0,0,0-1.09-5.34c-.26-.81-.63-1.81-1-2.72l-1-2.79c-.67-1.85-1.35-3.68-2.07-5.5q-.54-1.37-1.11-2.7l-.57-1.34-.46-1c-.16-.31-.31-.59-.47-.84l-.23-.35c-.07-.08-.18-.31-.14,0v1.45l-.06,1.65-.15,3.88c-.11,2.59-.24,5.17-.4,7.76l-.14,1.94-.08,1-.14,1.44a7,7,0,0,1-.89,3.23c-.15.19-.26.4-.5.5l-.1,0h0s.09.13,0,.07h0l-.18.05-.36.1-1.41.39a20,20,0,0,0-2.32-.17l.23,0h-.07s0,.18,0,.24l.1,1.79.08,1.88c.06,1.26,0,2.52.05,3.77a50.19,50.19,0,0,1-2.15,15,31.1,31.1,0,0,1-3.83,7.94,30.77,30.77,0,0,1-2.75,3.51c-.5.54-1.06,1-1.6,1.55a13.45,13.45,0,0,1-1.67,1.45,28.48,28.48,0,0,1-3.63,2.49l-1.89,1.09c-.66.32-1.33.66-2,.94a29.46,29.46,0,0,1-8.57,2.14,36.17,36.17,0,0,1-16.85-2.68A28.48,28.48,0,0,1,209.35,406a30.1,30.1,0,0,1-3.66-7.68,57,57,0,0,1-1.82-7.84,51.76,51.76,0,0,1-.17-15.86c.11-.65.21-1.31.36-2l.1-.49.05-.24v-.09c-.58-.15,5.13,1.13,2.69.62a.85.85,0,0,0-.1.14c0,.06,0,.12-.1.22a3.37,3.37,0,0,0-.23.6c-.1.27-.2.55-.28.83l-.23.78h0l-.14,0-.38-.08-.85-.16-1.28-.22-3.49-.56-.86-.14-.22,0s0-.13,0-.2l0-.44.2-1.75c.13-1.08.25-2.16.38-3.23s.3-2.43.44-3.63l.45-3.6c.15-1.2.29-2.39.38-3.53l.3-3.41a2.49,2.49,0,0,0,.05-.53,2.69,2.69,0,0,1,0-.63.31.31,0,0,1,.06-.16l-.4.34a3.91,3.91,0,0,0-.36.35l-.19.2-.37.46-.44.56c-1.16,1.48-2.26,3-3.32,4.57s-2.09,3.13-3.12,4.7l-1.54,2.36q-.72,1.11-1.38,2.25A41.32,41.32,0,0,0,186,378l-.18.62c0,.15-.09.31-.12.47-.08.32-.15.65-.21,1s-.12.7-.16,1.08c0,.17-.05.41-.05.54l.32-.31c.38-.38.79-.74,1.23-1.1l.68-.52a12.92,12.92,0,0,1,1.51-1,10.35,10.35,0,0,1,2-.87,4,4,0,0,1,.55-.15,3.62,3.62,0,0,1,.7-.14l.68-.08h.68a3.67,3.67,0,0,1,2.36,1,3.93,3.93,0,0,1,1,2.32l.75,6.37c.25,2,.52,3.82.85,5.62a54.9,54.9,0,0,0,2.66,10,46.68,46.68,0,0,1-3.86-9.61c-.54-1.83-1-3.74-1.45-5.71-.21-1-.43-2-.64-3s-.4-1.93-.6-2.92a1.34,1.34,0,0,0-1.73-1.28,7.36,7.36,0,0,0-2.71,1.24c-.22.17-.45.33-.66.52s-.72.62-1.09,1c-.74.67-1.48,1.39-2.26,2.22-1.55,1.7-3.35,3.79-5.11,5.83a2.79,2.79,0,0,0-.23-.43c-.07-.12-.18,0-.14-.55l0-2.24c.05-1.5.05-2.92.17-4.51a37.69,37.69,0,0,1,.66-5.08l.13-.66.11-.53.18-.81.4-1.6a45.62,45.62,0,0,1,5-11.63c2-3.28,3.83-6.45,5.76-9.25.48-.7,1-1.39,1.44-2,.25-.33.49-.65.72-1l1-1.26a58.64,58.64,0,0,1,5.31-5.69c1.12,1.22,1.57,1.72,1.95,2.1l.09.09c-.1-.1-.05,0,0,0,.26.35.95,1.19,1.9,2.34l.48-.19s.06,0,0,0v.24l0,.63.1,1.19a14,14,0,0,1,.07,2.36c-.11,1.15-.23,2.31-.34,3.46-.18,1.79-.34,3.59-.6,5.27s-.47,3.42-.7,5.12l-.33,2.4-.13.64a2.7,2.7,0,0,0,.54.16l.08,0,.28.05.65.13c.46.09.84.16,1.44.33l.32.1.16.07a1.64,1.64,0,0,1,.3.15c.34.41-.08-.48.95,1.15.25,2.05,0,1,.09,1.27l-.07.29-.13.59c-.09.39-.16.78-.23,1.18-.15.78-.25,1.58-.36,2.38a46.46,46.46,0,0,0-.06,9.65,51.57,51.57,0,0,0,1.78,9.44,25.87,25.87,0,0,0,4,8.24,24.18,24.18,0,0,0,10.68,8.16,35.68,35.68,0,0,0,4.35,1.43,27.12,27.12,0,0,0,17.5-.93,34.24,34.24,0,0,0,3.88-2.05,15.22,15.22,0,0,0,1.81-1.24,13.82,13.82,0,0,0,1.71-1.34l1.58-1.47c.5-.52.94-1.09,1.41-1.63.22-.28.48-.54.68-.83l.6-.9a14.78,14.78,0,0,0,1.13-1.81c2.8-5,3.88-10.79,4.14-16.46a80.49,80.49,0,0,0-.07-8.51l-.16-2.61-.21-2.94v-.09s.05,0,.08,0l.18,0,.37,0,.73.06,1.54.12,2.06.16.61,0c.09,0,.23.07.27,0a1.67,1.67,0,0,0,.08-.3c.08-.4.12-.8.16-1.2l.16-1.8.13-1.95c.17-2.6.3-5.19.42-7.76q.17-4.39.34-8.72c.14-3.54.16-7.33.2-11.22.25.11.28-.3.74.55l1.09,1.73c.71,1.12,1.39,2.24,2.06,3.36a73.34,73.34,0,0,1,3.88,7.42c1.75,3.84,3.12,7.56,4.46,11.32l1,2.79c.32.92.65,1.84,1,2.85a32.05,32.05,0,0,1,1.12,6,45.79,45.79,0,0,1,.12,6l-.09,1.46-.07,1-.1,1.07-.22,2.11-.11,1.07,0,.56,0,.28,0,.14s0,.08,0,.05l-.09-.08a8.1,8.1,0,0,0-1.48,3.11.58.58,0,0,0,.06.35l.06.08h0l.38,1.52h0l0,0,0-.05-.22-.2-.87-.8L281.15,391c-1.1-1.81-2.2-3.62-3.3-5.41l-.5-.82c-.18-.25-.29-.57-.56-.74a.54.54,0,0,0-.77.3,7.06,7.06,0,0,0-.25.9c-.15.63-.24,1-.53,2.61-.47,2.62-.86,5.29-1.4,7.94-.27,1.33-.58,2.66-.95,4s-.76,2.58-1.21,3.85c-1.8,5.07-4.46,9.94-8.62,13.53a25.76,25.76,0,0,1-6.8,4.09,44.92,44.92,0,0,1-7.23,2.31c-2.3.56-4.81,1-7.45,1.43-1.3.23-2.74.33-4.16.48-.71.08-1.44,0-2.16.06a20.22,20.22,0,0,1-2.2,0,40.21,40.21,0,0,1-8.75-1.46,42.16,42.16,0,0,1-8-3.35,37.16,37.16,0,0,1-11.43-9.68A29.41,29.41,0,0,1,200.52,403.16Z" transform="matrix(-1, 0, 0, 1, 380, 0)" /><path class="cls-3" d="M253.49,430.66c-3.77-2.85-10.59-6.61-12.13-7.86-2.77,3.28-5,12.88-6.81,16.51a1.26,1.26,0,0,1-2,0c-1.88-3.2-5.53-14.82-7.31-17,0,0-8.3,3.85-13.69,5.56-.91.29-1.85-.43-1.44-1.1,2.21-3.68,3.94-7.54,6.75-11a1.82,1.82,0,0,1,.75-.61,2.63,2.63,0,0,1,1-.1c3,.07,11.8,1.7,12.57-1.09.59-2.16-1.43-4.72-2.08-6.79a1.28,1.28,0,0,1-.08-.58c.06-.28.42-.46.57-.72a48.37,48.37,0,0,1,5-7.36c2.13,2.88,3.71,5.94,5.77,8.39.32.37.68.77.65,1.21a1.49,1.49,0,0,1-.27.67c-.55.94-3.12,4-2.32,4.87,1.55,1.73,7.28,2.41,9.72,2.37,1.59,0,3.47-.16,4.51.76a2.82,2.82,0,0,1,.75,1.24,66.4,66.4,0,0,1,3,11.55C256.61,430.86,254.65,431.54,253.49,430.66Z" transform="matrix(-1, 0, 0, 1, 380, 0)" /><path d="M253.49,430.65a2.38,2.38,0,0,0,1.41.3,1.77,1.77,0,0,0,1.16-.56.89.89,0,0,0,.2-.69c-.06-.29-.11-.6-.17-.91a69.94,69.94,0,0,0-2.51-9.4c-.34-.85-.52-1.86-1.15-2.37a4.18,4.18,0,0,0-2.54-.65c-.92,0-1.88.06-2.84,0a27.86,27.86,0,0,1-2.78-.26,16.79,16.79,0,0,1-5-1.34,4.17,4.17,0,0,1-1-.72,1.3,1.3,0,0,1-.26-1.36,7.53,7.53,0,0,1,.88-1.82c.5-.83,1.12-1.62,1.57-2.38.11-.21.14-.31.12-.41a1,1,0,0,0-.22-.42c-.26-.33-.63-.73-.93-1.12-1.25-1.56-2.3-3.26-3.4-4.92l-.84-1.24-.4-.58-.13-.17c-.05-.1-.09,0-.13,0l-.18.23-.9,1.21a47.62,47.62,0,0,0-3.25,5.15,2.21,2.21,0,0,1-.41.48s-.05.05-.06.08a.14.14,0,0,0,0,.09l.12.35a16.19,16.19,0,0,0,.7,1.57,13.6,13.6,0,0,1,1.38,3.53,3.9,3.9,0,0,1-.18,2.21,3,3,0,0,1-1.86,1.41,12.89,12.89,0,0,1-3.8.42c-2.45,0-4.86-.35-7.15-.5-.27,0-.58,0-.79,0a.66.66,0,0,0-.4.13,3.25,3.25,0,0,0-.45.51c-.18.23-.36.45-.52.68-.68.91-1.31,1.86-1.9,2.83-1.1,1.81-2.09,3.71-3.15,5.59l-.81,1.4c0,.09,0,0,0,.06a.54.54,0,0,0,.31,0l.3-.09.38-.13,1.48-.51c2-.72,3.91-1.5,5.82-2.31l2.86-1.22,1.4-.63,2-.92.75,1.08c.12.2.16.28.22.39l.17.31c.21.41.41.82.59,1.23.37.82.71,1.64,1,2.46.66,1.63,1.26,3.26,1.86,4.86s1.2,3.18,1.82,4.71c.32.76.64,1.52,1,2.21l.13.26.1.17a.31.31,0,0,0,.16.11.72.72,0,0,0,.55,0l0,0,0,0,.06-.13.24-.53c.15-.36.31-.72.45-1.09.28-.74.55-1.48.81-2.23L237,430.6c.52-1.45,1.06-2.87,1.68-4.25.31-.68.63-1.36,1-2a10.65,10.65,0,0,1,.58-1c.07-.13.27-.38.44-.61l.52-.68.64.5.33.23.22.16.8.53,1.62,1,3.12,2c2,1.3,3.93,2.58,5.64,3.92-1.62-1-3.61-2.15-5.78-3.35l-3.35-1.85-1.73-1-1.3-.78a15.86,15.86,0,0,0-.94,1.73c-.36.75-.67,1.52-1,2.28-.58,1.54-1.07,3.06-1.53,4.48-.91,2.85-1.69,5.3-2.41,6.91l-.32.67-.14.25a2.88,2.88,0,0,1-.22.27,1.83,1.83,0,0,1-.53.34,2.16,2.16,0,0,1-2.12-.23,1.78,1.78,0,0,1-.43-.47l-.18-.34c-.11-.22-.23-.44-.32-.66-.2-.44-.39-.87-.57-1.31-.71-1.74-1.33-3.46-2-5.17s-1.23-3.39-1.87-5c-.32-.82-.65-1.63-1-2.42-.18-.39-.36-.78-.55-1.16l-.26-.49-.15-.23L222,424.28l-3.42,1.42c-2.28.91-4.53,1.78-6.82,2.51a1.84,1.84,0,0,1-1.07.05,1.39,1.39,0,0,1-.93-.73,1.14,1.14,0,0,1,.19-1.13l.45-.75,1.71-3a52.36,52.36,0,0,1,3.62-5.84c.34-.46.68-.89,1.06-1.34a1.75,1.75,0,0,1,.82-.56,3.37,3.37,0,0,1,.92-.09c1.14,0,2.22.17,3.31.26a34,34,0,0,0,6.35.19,3.55,3.55,0,0,0,2.56-1,2.34,2.34,0,0,0,.2-1.3,5.84,5.84,0,0,0-.34-1.4c-.34-.93-.82-1.82-1.25-2.75a10.85,10.85,0,0,1-.59-1.44,1.14,1.14,0,0,1,0-1,2.19,2.19,0,0,1,.32-.38.76.76,0,0,0,.18-.2,50.71,50.71,0,0,1,2.78-4.47c.5-.71,1-1.39,1.55-2.08l.57-.73.3-.37.15-.18c.05,0,.09.1.14.15l1,1.42c1,1.39,1.82,2.8,2.72,4.14.44.68.9,1.34,1.37,2,.24.31.48.62.73.92a5.2,5.2,0,0,1,.77,1.07,1.29,1.29,0,0,1,.08.87,2.48,2.48,0,0,1-.3.65c-.23.38-.46.68-.69,1-.44.64-.89,1.26-1.24,1.9a4.26,4.26,0,0,0-.41.95c-.08.34-.09.4.11.58a5.48,5.48,0,0,0,1.81,1,21,21,0,0,0,4.21.94,26.26,26.26,0,0,0,4.24.22A7.69,7.69,0,0,1,252,416a2.61,2.61,0,0,1,1.33,1.09,7.83,7.83,0,0,1,.61,1.51,58.74,58.74,0,0,1,1.66,6.13c.22,1,.41,2,.56,2.88.07.46.15.9.21,1.32l.09.62a1.12,1.12,0,0,1-.06.63,1.49,1.49,0,0,1-.83.74,2.37,2.37,0,0,1-.92.14A2,2,0,0,1,253.49,430.65Z" transform="matrix(-1, 0, 0, 1, 380, 0)" /><path d="M233.29,437.78c-.3-.28-.22-5.34-.25-7.29-.12-3.45.06-7.4.24-10.95.15-3.11.4-6.18.69-9,.07-.7.14-1.38.22-2,0-.35.07-.69.11-1l.15-1.54s0-.14,0-.16l.18.07.36.15.67.29c.5.2.71.3,1,.43l1.46.7a13.1,13.1,0,0,1-1.68-.11l-.47-.06a1,1,0,0,0-.29,0l-.16,0-.05,0a.61.61,0,0,0,0,.11,1.35,1.35,0,0,0,.1.28c0,.3,0,.59,0,.86a8.93,8.93,0,0,1-.07,1.3c-1.66,10-1.42,17.64-1.8,23.57C233.69,434.85,233.36,437.29,233.29,437.78Z" transform="matrix(-1, 0, 0, 1, 380, 0)" /><path class="cls-1 color-staff1" d="M244.41,359.18a3.31,3.31,0,0,0,1.21-.38c2-1.26,5.23-9.1,2.6-9.8-4.42-1.18-13.8-2.74-17.69.11-2.36,1.73-.27,8,2.64,9.82C235.46,360.35,241.86,359.62,244.41,359.18Z" transform="matrix(-1, 0, 0, 1, 380, 0)" /><path d="M244.41,359.2c-.16.3-2.18.78-4.58,1s-5.15.28-6.89-.47a6,6,0,0,1-1.89-1.39,9.31,9.31,0,0,1-1.4-1.84,10.57,10.57,0,0,1-1.5-4.54,5.32,5.32,0,0,1,.5-2.83,3.46,3.46,0,0,1,.49-.73,4.09,4.09,0,0,1,.64-.58,8.36,8.36,0,0,1,1.14-.68,13.8,13.8,0,0,1,4.57-1.18,30.13,30.13,0,0,1,7.45.28c1.19.19,2.35.4,3.48.68.57.14,1.13.28,1.68.45l.57.16a4.92,4.92,0,0,1,.69.34,2.62,2.62,0,0,1,1,1.15,4.32,4.32,0,0,1,.23.72,3.7,3.7,0,0,1,.07.65,6.69,6.69,0,0,1,0,1,10.34,10.34,0,0,1-.41,1.74,15,15,0,0,1-1.31,2.92,12,12,0,0,1-1.75,2.38,4.26,4.26,0,0,1-1.23.94,3.66,3.66,0,0,1-1.39.25,5.75,5.75,0,0,0,1-.81,3.83,3.83,0,0,0,.61-1.17,22.49,22.49,0,0,0,.76-2.7c.42-1.8.58-3.44.69-4.06l.07-.41s.05-.05.06-.08a.21.21,0,0,0,0-.13c0-.05,0-.05-.26-.15-.86-.32-1.72-.59-2.59-.82a32.74,32.74,0,0,0-5.1-1,21.8,21.8,0,0,0-4.84,0,8.1,8.1,0,0,0-4,1.41,2.18,2.18,0,0,0-.62,1.51,6.79,6.79,0,0,0,.2,1.9,10.12,10.12,0,0,0,1.58,3.4,6.62,6.62,0,0,0,1.14,1.26,3.51,3.51,0,0,0,1.29.69,16.93,16.93,0,0,0,3.29.44C239.85,359,243.65,359.21,244.41,359.2Z" transform="matrix(-1, 0, 0, 1, 380, 0)" /><path d="M231.94,350.7c.18-.21,2.36.26,3.24.22,1.54,0,3.26.07,4.81.05,2.73,0,5.37,0,7.22.21a4.44,4.44,0,0,1-2.83,1.35,56.87,56.87,0,0,0-6-.5,22.47,22.47,0,0,1-4.6-.5A7.63,7.63,0,0,1,231.94,350.7Z" transform="matrix(-1, 0, 0, 1, 380, 0)" /><path class="cls-4 color-staff2" d="M240.78,312.51c-6.91,4.17-16.87,18.18-16.44,26.72.21,4.17,5.69,7.9,9.85,11a2.23,2.23,0,0,0,.82.43,8.4,8.4,0,0,0,1.9.2l3.93.12a6.74,6.74,0,0,0,1.51-.06c.36-.08.55-.3.79-.35,5-.86,10.25-6.8,12.33-10.08C255.31,329.6,245.16,314.65,240.78,312.51Z" transform="matrix(-1, 0, 0, 1, 380, 0)" /><path class="cls-5" d="M240.8,312.47a1.93,1.93,0,0,1,1,.26,8.9,8.9,0,0,1,1.75,1.19,28.6,28.6,0,0,1,4.28,4.67,59.16,59.16,0,0,1,4,6.09c1.15,2.05,2.13,3.94,2.78,5.33a31.79,31.79,0,0,1,2.43,6.59c.12.6.28,1.2.37,1.82l.12.94.14,1.48c0,.12.06.26,0,.37l-.2.31-.4.64c-.12.21-.27.44-.39.61l-.26.4c-.35.52-.72,1-1.1,1.53a30.51,30.51,0,0,1-5.28,5.45,18.93,18.93,0,0,1-3.42,2.16,12.94,12.94,0,0,1-2,.78l-.56.14-.27.07-.14,0h0c-.79-4.52-.22-1.25-.39-2.26v.05a.93.93,0,0,0,0,.13l.09.23.21.41c-.11-.23,1.22,2.32.65,1.24h0l0,0-.09.05-.37.19a4.36,4.36,0,0,1-.77.26,6,6,0,0,1-.72.11l-.66,0h-.86l-1.46,0-2.89,0c-.34,0-.71,0-1.15-.08a5.88,5.88,0,0,1-1.68-.44,4.86,4.86,0,0,1-.77-.43l-.53-.38-.71-.52c-.95-.69-1.93-1.4-2.9-2.17a24.18,24.18,0,0,1-5.54-5.64,9.79,9.79,0,0,1-1.62-4.61c0-.77,0-1.43.06-2.14s.21-1.31.32-2a29.42,29.42,0,0,1,2.54-6.78,44.7,44.7,0,0,1,7.42-10.31,29.73,29.73,0,0,1,8.58-6.55,91.79,91.79,0,0,0-5.64,9.36c-1.8,3.29-3.28,6.37-4.29,7.84a23.87,23.87,0,0,0-3.91,7.94,9.47,9.47,0,0,0-.22,1l-.1,1,0,.24v.19a2.61,2.61,0,0,0,0,.39,4.35,4.35,0,0,0,.2.81,9.84,9.84,0,0,0,2.12,3.27,51.57,51.57,0,0,0,6.39,5.51,1.46,1.46,0,0,0,.56.3,5.37,5.37,0,0,0,.79.1c.63.05,1.35.06,2,.09l2,.07a11,11,0,0,0,1.69,0,.93.93,0,0,0,.37-.15,1.82,1.82,0,0,1,.61-.23l.28-.07a6.2,6.2,0,0,0,1.09-.33,11.37,11.37,0,0,0,2.08-1.07,21.18,21.18,0,0,0,3.65-3,28.8,28.8,0,0,0,3-3.51c.22-.29.45-.62.63-.89a1.85,1.85,0,0,0,.27-.52l-.08-.68a9.38,9.38,0,0,0-.12-1.05,36.44,36.44,0,0,0-2.38-8c-1-2.49-2.2-4.83-3.39-7.05-1-1.84-2.35-4.41-3.72-6.57l-1-1.52c-.35-.46-.65-.92-1-1.28A11.12,11.12,0,0,0,240.8,312.47Z" transform="matrix(-1, 0, 0, 1, 380, 0)" /><path class="cls-4 color-staff2" d="M240.67,315.89c2,7.58.79,26.53,1.12,26.66A20.21,20.21,0,0,0,253.44,340" transform="matrix(-1, 0, 0, 1, 380, 0)" /><path class="cls-6" d="M253.44,340a8.49,8.49,0,0,1-3,1.68,25.33,25.33,0,0,1-4.7,1.23,18.51,18.51,0,0,1-3,.32h-.52a3.21,3.21,0,0,1-.62-.1c-.06,0-.08,0-.13-.06l-.05,0,0,0h0c-.05,0,.06-.06,0-.05h0l-.15-.22a1.51,1.51,0,0,1-.15-.59l0-.92v-.79c0-2.09,0-4.19,0-6.19-.06-7,0-13.78-.58-18.26a16.62,16.62,0,0,1,2,7.21c-.17,5.72-.32,10.67-.33,15.08,0,1.09,0,2.15,0,3.18V342a.52.52,0,0,0,0,.18.68.68,0,0,0,.2,0h.54c.24,0,.48,0,.71,0a28.29,28.29,0,0,0,5.22-.74c.76-.18,1.79-.45,2.7-.73S253.19,340.09,253.44,340Z" transform="matrix(-1, 0, 0, 1, 380, 0)" /><path class="cls-4 color-staff2" d="M227.76,340.45c4.35,2.8,11.63,2.85,11.93,2.94s1,3.17.14,5.06" transform="matrix(-1, 0, 0, 1, 380, 0)" /><path class="cls-6" d="M239.81,348.44a11.4,11.4,0,0,1,.14-1.51,6.69,6.69,0,0,0-.19-2.08c-.12-.39-.3-.88-.38-.87s-.07,0-.11,0a.46.46,0,0,1-.17,0h-.71a26.58,26.58,0,0,1-2.86-.19c-3.22-.3-6.37-1.58-7.9-3.14a9.71,9.71,0,0,1,3.43.44,14.7,14.7,0,0,0,6.42,1.79l1.44.06h.35a4.23,4.23,0,0,1,.5.05,1,1,0,0,1,.6.69,6.15,6.15,0,0,1,.31,2.61,4,4,0,0,1-.36,1.31A3.62,3.62,0,0,1,239.81,348.44Z" transform="matrix(-1, 0, 0, 1, 380, 0)" /><path d="M254.16,429.66c-.35,0-2.5-2.67-3.38-3.66-1.61-1.73-3.22-3.87-4.81-5.64l-.1-.12h0l-.19.07-.74.22-1.43.36c-.93.22-1.84.4-2.71.57l-2.46.47a10.17,10.17,0,0,0-1.93.48c0-.26.37-.61.69-.87a8,8,0,0,1,1.14-.75,6.49,6.49,0,0,1,2-.77c1.08-.11,2.1-.25,3.07-.42.49-.08,1-.18,1.42-.28l.66-.17.41-.13.44-.18,1.12,1.33.9,1.12,1.67,2.08c1.05,1.34,2,2.55,2.77,3.7C253.2,427.87,254,429.36,254.16,429.66Z" transform="matrix(-1, 0, 0, 1, 380, 0)" /><path d="M211.64,426.71c-.06-.35,2.61-2.63,3.57-3.58s1.77-1.72,2.72-2.59l1.42-1.28.46-.42c.12-.1.23-.21.35-.3l.42.07.42.07.24,0,.47.1a45.46,45.46,0,0,1,6,1.76,28.16,28.16,0,0,1,4.71,2.11,12.23,12.23,0,0,1-4.64-.47,37,37,0,0,0-4.57-1.79,21.41,21.41,0,0,0-2.13-.59l-.46-.1-.17,0-.12.11-.74.65c-2,1.79-3.78,3.36-5.42,4.6C213.42,425.66,211.94,426.53,211.64,426.71Z" transform="matrix(-1, 0, 0, 1, 380, 0)" /><path class="cls-3" d="M271.53,351.75c.55,2.51.11,5.49,2.34,7.1a17.27,17.27,0,0,1,2.41,1.7c1.61,1.65.79,3.9.71,5.91-.1,2.51,1.07,5,2,7.39a56.76,56.76,0,0,1,3.14,14.93c2.2-6.87,1.88-17.15-.15-24.14s-6.46-13.39-10.28-20a30.85,30.85,0,0,0-.14,7.09" transform="matrix(-1, 0, 0, 1, 380, 0)" /><path d="M271.51,351.75a10.94,10.94,0,0,1-.29-2.66c0-.37,0-.78,0-1.2,0-.22,0-.44,0-.67s0-.56.05-.85c0-.6.1-1.21.15-1.85l.05-.49s0-.11,0-.09l.06.1.12.2.51.82,3.57,5.83c1.06,1.74,2,3.34,2.67,4.49a50.94,50.94,0,0,1,3.21,6.54,35.71,35.71,0,0,1,2,7.34,49.76,49.76,0,0,1,.26,15.15,31,31,0,0,1-1,4.63l-1.63-.23a54.89,54.89,0,0,0-1.88-10.89,45.7,45.7,0,0,0-1.65-5.08,19.5,19.5,0,0,1-1.42-5.21c-.17-1.89.45-3.55.3-4.95a3,3,0,0,0-.79-1.78,10.72,10.72,0,0,0-1.75-1.29,4.86,4.86,0,0,1-1.68-1.72,6.23,6.23,0,0,1-.7-2.15c-.22-1.42-.19-2.74-.41-3.94.45,1.13.62,2.71,1.11,4.24a4.54,4.54,0,0,0,1.2,2,13,13,0,0,0,2.11,1.3,4.45,4.45,0,0,1,2,2.09A5.88,5.88,0,0,1,278,364c0,.78-.14,1.43-.18,2a11.51,11.51,0,0,0,0,1.4,19.45,19.45,0,0,0,1.41,5.39,52.84,52.84,0,0,1,1.59,5.44,55.14,55.14,0,0,1,1.62,10.54l-.68-.1a37.87,37.87,0,0,0,1.52-11.87,47.89,47.89,0,0,0-1.4-10.84,43.37,43.37,0,0,0-3.7-9.19c-1.47-2.8-3-5.38-4.48-7.87l-.79-1.34c-.18-.35-.38-.71-.58-1.07l-.28-.53-.15-.28c0-.09,0,0,0,0l0,.12c-.05.33-.11.7-.16,1.1l0,.31,0,.41c0,.27-.05.54-.07.8q0,.78-.06,1.44C271.46,350.76,271.5,351.42,271.51,351.75Z" transform="matrix(-1, 0, 0, 1, 380, 0)" /><path class="cls-3" d="M202.48,359.72a20.31,20.31,0,0,0-1.65-8.15,89.69,89.69,0,0,0-15.59,23.83c-1.35,3.09-2.9,7.87-2.43,11.12,1.69-1,3.63-3.65,5-4.89-1-1.22-1.49-3.74,0-4.81.4-.29.93-.47,1.33-.76,1-.71,1-1.87,1.19-2.89a2.6,2.6,0,0,1,2.16-2.37,14.93,14.93,0,0,0,1.5-.06c1.11-.23,1.39-1.27,1.58-2.12.74-3.24,3.33-7.64,7.19-9.35" transform="matrix(-1, 0, 0, 1, 380, 0)" /><path d="M202.72,359.28c-.12.15-.95.53-2,1.37a14.56,14.56,0,0,0-3.17,3.77,15.33,15.33,0,0,0-1.24,2.58,11.21,11.21,0,0,0-.42,1.36,8.9,8.9,0,0,1-.41,1.41,2.09,2.09,0,0,1-1.05,1.16,3.12,3.12,0,0,1-1.38.22,2,2,0,0,0-1.66.58,2.5,2.5,0,0,0-.57,1.08,11.13,11.13,0,0,0-.21,1.39,4,4,0,0,1-.55,1.6,3.31,3.31,0,0,1-1.35,1.12,2.23,2.23,0,0,0-1,.73,2.18,2.18,0,0,0-.29,1.13,4,4,0,0,0,.49,1.9.88.88,0,0,0,.1.17l.2.29c.13.2.28.38.42.57-.36.35-.8.77-1,1l-.58.64-1.17,1.33c-.4.44-.81.88-1.26,1.31-.15.14-.4.34-.59.52s-.41.3-.62.46l-1.27.82q-.1-.93-.18-1.83a5.64,5.64,0,0,1,0-.93v-.63a20,20,0,0,1,.24-2.08,30.22,30.22,0,0,1,1-3.91,42.82,42.82,0,0,1,2.2-5.41c.81-1.74,1.69-3.44,2.62-5.08a82.06,82.06,0,0,1,6-9.15c1-1.4,2.12-2.73,3.19-4,.54-.63,1.08-1.24,1.61-1.83l.89-1,1.28-1.37c.25.51.46,1.14.67,1.68l.14.43.09.27.15.54c.2.73.35,1.45.47,2.15a19.49,19.49,0,0,1,.21,4.05,27.55,27.55,0,0,0-.84-3.94c-.21-.71-.46-1.43-.75-2.14l-.22-.54a2,2,0,0,0-.13-.24l-.1-.15-.05-.05-.06.09c-.09.14-.1.18-.2.32l-.68.89-1.28,1.65c-.8,1-1.48,1.92-2,2.51a76.85,76.85,0,0,0-9.33,14.15,44.8,44.8,0,0,0-3,7.12,25.93,25.93,0,0,0-.86,3.56c-.09.59-.15,1.19-.18,1.77a5.62,5.62,0,0,0,.05,1.12,1.75,1.75,0,0,0,.44-.29c.15-.12.24-.21.42-.38.42-.4.82-.83,1.21-1.26l1.16-1.31.59-.64.37-.39a1.89,1.89,0,0,1-.21-.33,4.73,4.73,0,0,1-.31-.64,5.12,5.12,0,0,1-.32-1.38,3,3,0,0,1,1-2.69,7.64,7.64,0,0,1,1.15-.67,1.81,1.81,0,0,0,.73-.69,6.33,6.33,0,0,0,.54-2.19,3.29,3.29,0,0,1,1.42-2.27,2.9,2.9,0,0,1,1.32-.4c.44,0,.81,0,1.12,0a1.39,1.39,0,0,0,1.18-1.11c.2-.62.37-1.42.63-2.09a15.1,15.1,0,0,1,3.43-5.33A10.85,10.85,0,0,1,202.72,359.28Z" transform="matrix(-1, 0, 0, 1, 380, 0)" /><path class="cls-7 color-body" d="M234.48,490.7c8.31,2.62,18.05-4.79,21.76-16.55s.17-21.47-7.13-26.32c-6.36-4.22-16-5.34-19.67,6.42S226.17,488.08,234.48,490.7Z" transform="matrix(-1, 0, 0, 1, 380, 0)" style="fill:#ffffff;--backup-fill:#ffffff" /><path d="M234.46,490.76a1.77,1.77,0,0,1-1.23-.1,6,6,0,0,1-2.2-1.39,16,16,0,0,1-3.68-6.7c-1.7-5.51-1.87-12-2-15.53a51.16,51.16,0,0,1,.49-9.88A29.17,29.17,0,0,1,227,452a18.18,18.18,0,0,1,2.69-5.3,13.29,13.29,0,0,1,5.08-4.13,14,14,0,0,1,6.45-1.22,19.13,19.13,0,0,1,5.94,1.3,22,22,0,0,1,5.07,2.75,21.69,21.69,0,0,1,6.55,7.48,23.79,23.79,0,0,1,2.72,9.24,29.51,29.51,0,0,1-.61,9.06,32.57,32.57,0,0,1-2.86,8,26.86,26.86,0,0,1-10.65,11.54,17.29,17.29,0,0,1-6.9,2.16,12.85,12.85,0,0,1-6.37-1.08,16.29,16.29,0,0,0,5.85-1.91A18.71,18.71,0,0,0,244.7,486c2.65-2.94,4.27-6.18,5.48-7.7a26.6,26.6,0,0,0,3.06-5.07,28.33,28.33,0,0,0,1.81-5.6,19.57,19.57,0,0,0-.83-11,16.4,16.4,0,0,0-2.71-4.57,16.17,16.17,0,0,0-3.95-3.35c-2.92-1.79-6.33-2.66-9.21-2s-4.93,2.91-6.1,5.56a33,33,0,0,0-2.15,8.6,81.59,81.59,0,0,0-.44,16.46,44.15,44.15,0,0,0,1.3,8.44,10.27,10.27,0,0,0,1.68,3.43A6.46,6.46,0,0,0,234.46,490.76Z" transform="matrix(-1, 0, 0, 1, 380, 0)" /></svg>