<svg xmlns="http://www.w3.org/2000/svg" id="outfits_1" viewBox="0 0 380 600"><defs transform="matrix(-1, 0, 0, 1, 380, 0)"><style>.cls-1{fill:#ff0;}</style></defs><g id="default" transform="matrix(-1, 0, 0, 1, 380, 0)"><ellipse class="cls-1 color-eyes" cx="111.719" cy="271.211" rx="20" ry="11.546" transform="translate(-176.161 327.441) rotate(-78.664)" /><path d="M123.01,273.475c-.274-.459.465-4.3-.009-8.693a22.117,22.117,0,0,0-1.557-6.413,10.491,10.491,0,0,0-2.977-4.193,6.328,6.328,0,0,0-2.922-1.347,6.444,6.444,0,0,0-3.174.361,12.9,12.9,0,0,0-5.395,4.565,29.916,29.916,0,0,0-5.073,14.067,25.46,25.46,0,0,0,1.372,12.206,9.513,9.513,0,0,0,3.169,4.211,5.323,5.323,0,0,0,4.47.652,11.157,11.157,0,0,0,4.345-2.692,21.718,21.718,0,0,0,3.306-4.074,36.2,36.2,0,0,0,3.917-8.756,21.836,21.836,0,0,1-1.725,10.359c-1.461,3.623-4.226,6.594-6.183,7.533a10.25,10.25,0,0,1-6.338,1.183,8.917,8.917,0,0,1-5.315-3.037,14.574,14.574,0,0,1-2.678-4.827,22.332,22.332,0,0,1-1.117-5.033,33.476,33.476,0,0,1,.328-9.639,36.491,36.491,0,0,1,2.583-8.649,24.9,24.9,0,0,1,4.718-7.137,11.242,11.242,0,0,1,7.436-3.7,8.041,8.041,0,0,1,4.079,1.011,9.927,9.927,0,0,1,2.958,2.649,15.947,15.947,0,0,1,2.805,6.578,22.8,22.8,0,0,1,.172,7.564,31.91,31.91,0,0,1-.63,3.316Z" /><circle class="cls-1 color-eyes" cx="214.594" cy="281.721" r="20.5" /><path d="M235.063,281.763a4.147,4.147,0,0,1-.263-1.152c-.052-.308-.073-.672-.153-1.076l-.276-1.338a21.491,21.491,0,0,0-2.794-6.784,20.112,20.112,0,0,0-5.863-5.976,17.6,17.6,0,0,0-6.287-2.593,19.693,19.693,0,0,0-17.451,4.9,18.822,18.822,0,0,0-5.048,7.923,18.58,18.58,0,0,0-.629,9.107,18.724,18.724,0,0,0,8.352,12.549,19.144,19.144,0,0,0,14.2,2.635,19.394,19.394,0,0,0,11.39-7.1,21.065,21.065,0,0,0,3.055-5.452,23.1,23.1,0,0,0,1.232-5.643,16.742,16.742,0,0,1,.214,6.1,19.415,19.415,0,0,1-7.308,12.215,16.252,16.252,0,0,1-4.635,2.53,21.817,21.817,0,0,1-7.4,1.135,22.587,22.587,0,0,1-7.046-1.182,23.413,23.413,0,0,1-6.069-3.174,22.156,22.156,0,0,1-4.647-4.658,21.816,21.816,0,0,1-4.241-11.587,22.2,22.2,0,0,1,.409-5.916,22.8,22.8,0,0,1,1.936-5.416,21.4,21.4,0,0,1,3.182-4.577,21.977,21.977,0,0,1,1.945-1.917,25.47,25.47,0,0,1,2.15-1.617,21.18,21.18,0,0,1,19.234-2.175,20.592,20.592,0,0,1,7.52,4.947,19.547,19.547,0,0,1,5.356,12.729C235.175,280.406,235.069,281.318,235.063,281.763Z" /><path d="M96.2,257.49c.634.1,1.142.951,2.263,1.213a3.137,3.137,0,0,0,1.631.042,1.915,1.915,0,0,0,.61-.279,4.1,4.1,0,0,0,.708-.452,1.5,1.5,0,0,0,.548-.671,2.243,2.243,0,0,0,.141-.586c.029-.114.1-.288.163-.455a4.512,4.512,0,0,1,.283-.63,13.542,13.542,0,0,1,.9-1.477,19.644,19.644,0,0,1,2.1-2.47c.362-.366.724-.714,1.081-1.047l.529-.485c.16-.152.5-.412.743-.605a10.493,10.493,0,0,1,6.424-2.028,10.054,10.054,0,0,1,6.013,2.092A10.22,10.22,0,0,1,123.4,253.7a12.289,12.289,0,0,1,.919,3.729,21.624,21.624,0,0,1-5.173-.391c-1.4-.246-2.2-.351-2.307-.787a3.4,3.4,0,0,0-1.423-2.1,4.181,4.181,0,0,0-2.524-.641,4.555,4.555,0,0,0-2.371.843,17.106,17.106,0,0,0-2.181,1.889,11.742,11.742,0,0,0-1.565,2,9.912,9.912,0,0,1-1.8,2.542,5.414,5.414,0,0,1-1.622,1,11.26,11.26,0,0,1-1.341.452l-.3.08-.449.092a5.309,5.309,0,0,1-2.512-.182,4.121,4.121,0,0,1-2.578-2.385,3.1,3.1,0,0,1-.224-1.532A2.286,2.286,0,0,1,96.2,257.49Z" /><path d="M244.858,277.659c.271.162.421.955,0,2.019a5.6,5.6,0,0,1-3.034,2.985,6.332,6.332,0,0,1-5.191-.265,7.56,7.56,0,0,1-3.254-3.172,15.561,15.561,0,0,1-1.085-2.533,18.089,18.089,0,0,0-.82-1.887,14.461,14.461,0,0,0-2.3-3.174,16.258,16.258,0,0,0-6.624-4.193,18.862,18.862,0,0,0-3.222-.8,20.011,20.011,0,0,0-3.269-.269,30.7,30.7,0,0,0-6.635.719,87.138,87.138,0,0,0-11.869,3.783,13.464,13.464,0,0,1,3.1-6.815c1.631-1.992,3.69-3.345,4.959-3.506a41.065,41.065,0,0,1,14.034.28,26.682,26.682,0,0,1,10.818,5.07,17.541,17.541,0,0,1,6.086,8.926,12.062,12.062,0,0,0,1.039,3.427,3.8,3.8,0,0,0,1.865,1.418,6.18,6.18,0,0,0,1.3.261,4.078,4.078,0,0,0,1.757-.3,4.885,4.885,0,0,0,1.556-1A5.716,5.716,0,0,0,244.858,277.659Z" /></g></svg>