<svg xmlns="http://www.w3.org/2000/svg" id="sports" viewBox="0 0 380 600"><defs transform="matrix(-1, 0, 0, 1, 380, 0)"><style>.cls-1{fill:#c08d41;}</style></defs><path class="cls-1 color-hair" d="M103.937,247.278c.055,34.373-.839,72.431-23.43,100.332a61.175,61.175,0,0,0,33.735,3.3,20.466,20.466,0,0,1-9.848,13.94c31.13,16.5,65.047-4.737,94.643-15.386,17.676,17.111,40.418,36.349,66.671,30.949a35.855,35.855,0,0,1-10.173-29.638c13.325,9.845,28.559,20.21,44.959,17.858-13.063-30.671,25.958-73.363,9.014-114.222C291.077,212.8,248.473,177.926,200.989,183.4c-23.327,2.443-47.72,6.96-68.823,17.524-13.547,10.244-30.723,30.189-27.322,48.046" transform="matrix(-1, 0, 0, 1, 380, 0)" /><path d="M104.8,248.982a21.356,21.356,0,0,1-.621-7.255,38.664,38.664,0,0,1,4.482-14.881,75.571,75.571,0,0,1,12.807-17.464,91.839,91.839,0,0,1,9.234-8.4l.638-.5.388-.3.429-.208,1.463-.71c.982-.464,1.951-.976,2.964-1.4l3.034-1.343,3.1-1.264c16.693-6.674,35.625-10.325,52.911-12.431,2.17-.259,4.284-.525,6.421-.727l3.176-.3,3.14-.143,1.551-.062,1.536.011c1.02.013,2.03,0,3.029.034,1.993.134,3.952.171,5.845.418a94.271,94.271,0,0,1,19.722,4.176,107.712,107.712,0,0,1,27.431,13.741,126.7,126.7,0,0,1,23.439,21.14,132.5,132.5,0,0,1,18,26.721c.632,1.2,1.225,2.426,1.8,3.672l.873,1.858c.266.64.5,1.305.755,1.958l.743,1.968c.231.661.408,1.334.613,2l.6,2.008c.18.674.311,1.359.468,2.039a65.581,65.581,0,0,1,1.471,16.6c-.376,11.125-3.078,21.874-6.109,32.244s-6.547,20.521-8.458,30.729a53.682,53.682,0,0,0-.938,15.124,32.6,32.6,0,0,0,.531,3.642,16.493,16.493,0,0,0,.433,1.77l.235.879c.147.667.429,1.258.609,1.847l1.225,3.549.306.887.154.444a2.241,2.241,0,0,1-.445.062l-1.875.183-3.749.367a15.856,15.856,0,0,1-1.789.069l-1.068.009h-1.067l-1.059-.081-2.117-.168-2.083-.33a18.35,18.35,0,0,1-2.061-.4l-2.036-.482c-.668-.184-1.325-.4-1.987-.6-1.337-.375-2.6-.9-3.887-1.375a85.672,85.672,0,0,1-14.193-7.508c-1.634-1.055-3.25-2.13-4.83-3.236l-1.721-1.2c-.049-.051-.028.046-.029.075l0,.156,0,.086.047.586.105,1.3.179,1.292a33.658,33.658,0,0,0,3.119,9.9,33,33,0,0,0,2.654,4.445l.473.63c.276.369.54.739.865,1.107.587.734,1.344,1.478,2.023,2.218l4.119,4.349-5.626.845-2.828.425-1.414.212a8.3,8.3,0,0,1-1.36.149l-3.25.134c-.514.012-1.03.059-1.543.04l-1.538-.1-3.074-.2c-1.015-.125-2.019-.319-3.028-.477a48.969,48.969,0,0,1-5.946-1.358,28.531,28.531,0,0,1-2.88-.933c-.949-.34-1.905-.662-2.843-1.019l-2.747-1.209c-.917-.4-1.835-.8-2.7-1.277-1.759-.921-3.539-1.808-5.2-2.86l-2.53-1.524-2.44-1.634A151.533,151.533,0,0,1,202.907,357.2c-1.391-1.293-2.783-2.581-4.134-3.895l-.429-.412,0-.006s-.008-.017-.016-.012l-.017,0-1.173.433c-3.444,1.292-6.862,2.678-10.273,4.078-13.629,5.585-27.2,11.586-41.61,14.541a85.2,85.2,0,0,1-10.882,1.528,64.716,64.716,0,0,1-10.963-.177,54.681,54.681,0,0,1-10.674-2.166c-.864-.265-1.709-.589-2.561-.882-.424-.151-.853-.29-1.263-.475l-1.555-.657c-.756-.3-1.452-.634-2.131-.976l-2.085-1.031-2.079-1.031a20.852,20.852,0,0,1-1.91-1l4.118-2.522,1.014-.632c.31-.215.576-.439.865-.657l.848-.656c.129-.105.272-.232.4-.361l.178-.17a18.246,18.246,0,0,0,2.5-2.954,15.468,15.468,0,0,0,.986-1.631l.224-.417.15-.317a1.574,1.574,0,0,0,.076-.157,3.624,3.624,0,0,0,.14-.367l.057-.2c0-.05.079-.177-.019-.134-.146.018-.3.043-.452.055l-.993.088c-1.709.169-3.42.233-5.123.255a62.137,62.137,0,0,1-10.095-.722,63.747,63.747,0,0,1-9.694-2.264l-.3-.091-.148-.045-.23-.083-.937-.336-1.867-.671-3.76-1.438q1.191-1.619,2.376-3.233l2.126-2.818c.45-.613.946-1.194,1.357-1.832l1.23-1.911c.8-1.285,1.683-2.509,2.4-3.828l2.144-3.943.534-.98.466-1.014.924-2.022c1.309-2.657,2.273-5.439,3.329-8.154.511-1.365.9-2.768,1.351-4.141.438-1.378.894-2.744,1.224-4.143a175.822,175.822,0,0,0,5.324-32.762c.827-10.631,1.046-20.855,1.207-30.579.549,9.208,1.034,20.3.683,32.351-.43,12.026-1.729,25.085-5.375,37.689a95.728,95.728,0,0,1-7.13,18.195l-1.091,2.158c-.384.706-.82,1.381-1.226,2.07-.83,1.367-1.638,2.739-2.479,4.076l-1.375,1.919-.109.156-.023.038-.043.074-.078.137c-.019.075-.14.172-.058.2l.305.072.182.043.086.019.431.12c.674.182,1.336.394,2.009.549q2.006.509,3.991.87a60.8,60.8,0,0,0,7.76.9,59.672,59.672,0,0,0,7.267-.08c.581-.031,1.153-.083,1.717-.146l.894-.091c.634-.06,1.192-.169,1.79-.257,2.357-.358,4.645-.741,6.866-1.125q-.348,1.67-.686,3.283c-.209,1.054-.47,2.115-.722,3.154a30.038,30.038,0,0,1-1.176,3.165l-.254.553-.218.422-.442.825a23.015,23.015,0,0,1-4.148,5.3l-.249.234-.062.058.024-.025c.006-.007,0,0,0,0l-.019,0-.047.016-.129.049c-.052.025.017.051.04.086a.413.413,0,0,0,.066.053l.032.025.018.013.319.138c.841.4,1.725.675,2.592,1,.862.34,1.753.588,2.641.848a50.721,50.721,0,0,0,10.911,1.875,74.133,74.133,0,0,0,22.109-2.308c14.53-3.592,28.165-9.851,41.92-15.213q2.582-1.011,5.18-1.967l3.559-1.288c.041-.01.087-.044.124-.033l.1.093.194.188.388.375.775.749,1.219,1.181q3.9,3.8,7.91,7.38A123.9,123.9,0,0,0,226.9,370.314a66.229,66.229,0,0,0,18.824,8.288l1.229.33,1.25.215,2.5.427a19.418,19.418,0,0,0,2.51.252l2.512.176c.836.04,1.673-.042,2.508-.056l2.194-.078,1.462-.209.736-.105.369-.053.185-.026.046-.007c0-.007-.018-.021-.026-.031l-.063-.067c-.456-.468-.895-.957-1.308-1.474-.226-.263-.377-.5-.628-.828-.363-.468-.685-.964-1.007-1.46a36.647,36.647,0,0,1-3.292-6.231,39.167,39.167,0,0,1-2.052-6.693l-.323-1.717-.23-1.729a31.6,31.6,0,0,1-.2-3.818,19.7,19.7,0,0,1,.064-2.255c.059-.751.084-1.49.171-2.248l.114-1.132.057-.565.029-.282.014-.141c-.007-.073.018-.075.066-.027l1.829,1.266c1.232.839,2.408,1.691,3.577,2.542l1.65,1.185,1.355.946a112.387,112.387,0,0,0,11.109,6.9,56.966,56.966,0,0,0,11.829,4.841c1.027.231,2.043.518,3.074.706,1.036.145,2.062.384,3.1.455l1.556.125.778.062.778-.006,1.411-.007a7.744,7.744,0,0,0,.991-.062l.983-.1.245-.023c.074-.013-.028-.137-.034-.2l-.172-.463-.342-.923a3.794,3.794,0,0,1-.145-.457l-.191-.72-.423-1.594c-.139-.531-.2-1.077-.3-1.614l-.279-1.616c-.076-.54-.106-1.083-.161-1.624a54.55,54.55,0,0,1,.468-12.847c1.226-8.411,3.682-16.379,6.04-24.193,2.379-7.812,4.809-15.482,6.539-23.193a106.12,106.12,0,0,0,2.042-11.56,72.291,72.291,0,0,0,.537-11.512,56.594,56.594,0,0,0-1.426-11.226l-.3-1.372-.394-1.345c-.271-.893-.511-1.8-.806-2.676a54.391,54.391,0,0,0-2.092-5.159,127.212,127.212,0,0,0-11.075-19.251,128.9,128.9,0,0,0-13.8-16.713,120.1,120.1,0,0,0-15.993-13.786,105.532,105.532,0,0,0-17.727-10.394,90.45,90.45,0,0,0-38.244-8.652c-1.6-.018-3.2.095-4.795.134-1.593.113-3.177.268-4.762.4-3.209.337-6.386.693-9.533,1.1-6.3.807-12.488,1.777-18.551,2.968-3.992.778-8.32,1.756-12.839,2.93s-9.227,2.565-13.937,4.25c-1.188.4-2.358.854-3.535,1.306s-2.361.9-3.524,1.405-2.351.958-3.5,1.507l-1.73.8-.865.4a2.115,2.115,0,0,0-.639.389,92,92,0,0,0-11.206,9.879c-6.772,7-11.924,14.674-14.488,21.564a33.456,33.456,0,0,0-2.137,9.3A27.227,27.227,0,0,0,104.8,248.982Z" transform="matrix(-1, 0, 0, 1, 380, 0)" /></svg>