<svg xmlns="http://www.w3.org/2000/svg" id="new" viewBox="0 0 380 600"><defs transform="matrix(-1, 0, 0, 1, 380, 0)"><style>.cls-1{fill:blue;}.cls-2{fill:#141519;}.cls-3{opacity:0.4;}.cls-4{fill:#fff;}</style></defs><path class="cls-1 color-hair" d="M377.68,335.26c0-5.14-5.44-9.53-10.48-8.51,8.58-8.66,5.33-24.5-6.15-28.86,1.8-18.56,4.13-39-4.31-55.85-36.51-50.4-89.79-91.49-153.19-97.39-18.59-3.26-38.53-6.29-55.69,1.58-7.35,3.37-13.77,8.6-21.31,11.54-12.91,3.65-29.09,7.07-29.37,23.39-2.28,5.19-9.09,6-14.58,7.39-12.25,6.16-33.6,12-29.42,30.06-5.28.48-20.57,3.28-16.52,10.8C24.54,226.58,20,246.09,31,250.33c-6.13,3.6-12,15.78-3.15,19.06-8.64,8.45-14.43,23.9-2.2,31.74C28.38,313.79,21.4,319.2,33,335c-6.07,2.9-12,11.14-5,16.18.08,5.18-9.16,9.08-1.44,15.69,9.12,4.95,9.42-5,14.33-7.65,15.54,4.39-.77,36.74,24.74,22.32-8.61,5.82.78,18.82,9,12.5-1.84,11.81,17,13.23,15.82,1.06,2.26,5.4,10.09,7.45,14.72,3.86-1.48,2.46.94,6.74,3.72,5-5.43,11.81,12.76,17.68,10.75,4,7.79,6.53,23.63,1.41,19.43-9.9a13.11,13.11,0,0,0,15-5.34c15.23,4.91,42.81,12.83,52.23-4.17,10.46,8.09,26,9.08,37.29,2.15a21,21,0,0,0,13.86,5.89c3.67,6.46,13.56,10.59,18.44,3.38,3.91,12,17.71,2.2,20.47-5.82-1.17,4.43,4.06,8.46,8.59,7.77,9.62-1.68,11.91-13.64,19-18.87,3.95,12.37,18.27.9,16.33-9,13,5.66,17.47-13.13,11-22a11.39,11.39,0,0,1,13.23,5.87,10.72,10.72,0,0,0,2.84-14C372.36,344.85,377.71,340.4,377.68,335.26Z" transform="matrix(-1, 0, 0, 1, 380, 0)" /><path d="M377.71,335.26a8.27,8.27,0,0,1-.15,1.83,8.78,8.78,0,0,1-1.29,3,10.09,10.09,0,0,1-3.33,3.07,9.6,9.6,0,0,1-2.57,1,7.11,7.11,0,0,1-2.6.07h0l0,0,.05.08.09.16.19.33a5.24,5.24,0,0,1,.31.68,7.48,7.48,0,0,1,.48,1.59,11.38,11.38,0,0,1-1.28,7.95,10,10,0,0,1-1.39,1.89c-.3.31-.62.6-.95.89l-.52.41c-.17.12-.37.35-.47.16a17.07,17.07,0,0,0-1.13-1.91l-.59-.73-.64-.65a11.4,11.4,0,0,0-6.85-3l-.91,0c-.27,0-.54,0-.81.06a7.49,7.49,0,0,0-.8.15l-.39.1c-.05,0-.17,0-.16.06l.11.18a15.63,15.63,0,0,1,2.4,6.77,19.72,19.72,0,0,1-.6,8.19,11.57,11.57,0,0,1-5,7,8.18,8.18,0,0,1-4.44,1.05,9,9,0,0,1-1.15-.11l-.57-.1a2.46,2.46,0,0,1-.39-.09c-.25-.08-.51-.13-.76-.23l-.37-.14-.19-.07-.09,0s-.06,0-.05,0a7.11,7.11,0,0,1,.13,1.22,10.09,10.09,0,0,1-.11,1.49,13.24,13.24,0,0,1-1,3.43,15.21,15.21,0,0,1-4.35,5.72,11.55,11.55,0,0,1-3.22,1.85,6.94,6.94,0,0,1-3.84.3,5.92,5.92,0,0,1-3.29-2.11,6.23,6.23,0,0,1-.57-.78l-.23-.38a1.43,1.43,0,0,1-.15-.27,9.62,9.62,0,0,1-.48-1.15l0-.09s-.05,0-.07,0l-.16.13-.31.25a7.43,7.43,0,0,0-.59.53l-.64.65-.73.86a42.54,42.54,0,0,0-2.71,3.71,62.57,62.57,0,0,1-5.54,7.68,16,16,0,0,1-3.78,3.1,13.68,13.68,0,0,1-2.26,1.05c-.39.12-.8.21-1.2.32a5.11,5.11,0,0,1-1.25.22,8.94,8.94,0,0,1-4.93-1.11,9.79,9.79,0,0,1-2-1.54,8.84,8.84,0,0,1-.84-1,4.54,4.54,0,0,1-.41-.71,3.15,3.15,0,0,1-.31-1.51,2.89,2.89,0,0,1,.08-.65c0-.1,0,0,0,0l-.06.16c0,.1-.07.21-.12.31a10,10,0,0,1-.61,1.17c-.18.3-.37.58-.57.86l-.17.23-.25.33-.52.64a23.2,23.2,0,0,1-2.32,2.33,18,18,0,0,1-5.59,3.45,10.27,10.27,0,0,1-3.32.66,6.82,6.82,0,0,1-3.38-.8,7.36,7.36,0,0,1-2.53-2.33l-.35-.56c-.08-.14-.14-.29-.21-.43s-.24-.59-.36-.88l-.52.65c-.18.22-.46.43-.68.65l-.19.16-.31.2-.62.4A7.78,7.78,0,0,1,272,404a10,10,0,0,1-5.67.23,15.76,15.76,0,0,1-8.86-6.09l-.49-.76a2.23,2.23,0,0,0-.37,0h-.19l-.31,0a20.48,20.48,0,0,1-2.59-.39,21.93,21.93,0,0,1-4.87-1.69,22.59,22.59,0,0,1-4.26-2.7l-.42-.35-.26-.22-.25-.23a2.1,2.1,0,0,0-.3.15l-.72.41a9.08,9.08,0,0,1-1.07.56,35.21,35.21,0,0,1-25.61,1.68,37.66,37.66,0,0,1-3.57-1.34A36.27,36.27,0,0,1,209,391.5l-1-.6-.36-.23-.28-.2c-.34-.17-.81-.78-.93-.19l-.29.48-.68.91a20,20,0,0,1-1.6,1.83,20.63,20.63,0,0,1-3.87,3,23.59,23.59,0,0,1-4.45,2c-6.22,2-12.83,1.79-19.26.95a123.7,123.7,0,0,1-19.29-4.49l-2-.63-.24-.08s-.09,0-.11,0l-.07.1-.13.19,0,.07-.22.27a13.93,13.93,0,0,1-4.34,3.48,14.77,14.77,0,0,1-5.38,1.64,13.87,13.87,0,0,1-1.44.06h-.72l-.36,0-.15,0a4.11,4.11,0,0,1-.86-.18,4.48,4.48,0,0,1,.16.52,2.93,2.93,0,0,1,.06.33l0,.22v.33a9.2,9.2,0,0,1-.62,3.91,10.8,10.8,0,0,1-5.68,5.68,16.07,16.07,0,0,1-8.07,1.4,15.44,15.44,0,0,1-4.15-.91,4.4,4.4,0,0,1-.5-.21l-.24-.1-.25-.12a4.73,4.73,0,0,1-.46-.32,4.27,4.27,0,0,1,0,.89,6,6,0,0,1-.12.7,4.86,4.86,0,0,1-.25.94,4.71,4.71,0,0,1-.38.95,5.13,5.13,0,0,1-.55.91,5.85,5.85,0,0,1-1.61,1.52,6,6,0,0,1-2.09.79,7.48,7.48,0,0,1-4.2-.54,9.09,9.09,0,0,1-5.31-6.27,10,10,0,0,1,0-4.25,2.44,2.44,0,0,1,.12-.42c0-.05.09-.18,0-.17a.49.49,0,0,1-.21.08.47.47,0,0,1-.17,0h-.07l.12.06,0,0c-.18-.07-.37-.15-.55-.24a4.84,4.84,0,0,1-1.65-1.52,5.46,5.46,0,0,1-.51-.95,4.5,4.5,0,0,1-.2-.51l-.09-.32a1.22,1.22,0,0,1,0-.38.62.62,0,0,1,.07-.19s0,0,0,0l0,0-.09.06a2.57,2.57,0,0,1-.41.21l-.14,0-.08,0-.26.06c-.36.08-.72.17-1.08.23l-1.11.12H99.1a12.5,12.5,0,0,1-4.42-1,7.32,7.32,0,0,1-1.05-.52,6.82,6.82,0,0,1-1-.62l-.49-.34-.12-.09,0,0a1.36,1.36,0,0,1-.17-.17,1.62,1.62,0,0,1-.33-.49,2.59,2.59,0,0,1,0,.61,1.45,1.45,0,0,1-.09.32,8.58,8.58,0,0,1-.84,1.58,8.07,8.07,0,0,1-2.69,2.44,10.32,10.32,0,0,1-7,1,10,10,0,0,1-6.26-3.9A9,9,0,0,1,73,397.48c0-.22,0-.15,0-.22v-.11a1.16,1.16,0,0,1,0-.17c0-.09,0-.21,0-.27a1.62,1.62,0,0,1-.36.21l-.15.05a7.35,7.35,0,0,1-.71.2,8.94,8.94,0,0,1-1.48.18,8.79,8.79,0,0,1-5.65-1.84,10.41,10.41,0,0,1-3.54-4.79,9.27,9.27,0,0,1-.57-3.06c0-.26,0-.53,0-.8a1.72,1.72,0,0,1,0-.39l0-.22a1,1,0,0,1,.24-.52l.15-.15.09-.07-.06,0-.44.23-.18.09-.27.11-.07,0,0,0-.11,0-.66.2a11.27,11.27,0,0,1-1.36.36c-.47.08-.94.19-1.43.24s-1,.07-1.54,0l-.82-.1-.4-.06-.41-.13-.82-.28c-.27-.13-.52-.29-.77-.44a6.86,6.86,0,0,1-1.33-1.13,9.41,9.41,0,0,1-.92-1.34l-.35-.69c-.11-.23-.19-.46-.28-.69a12.09,12.09,0,0,1-.44-1.37,38,38,0,0,1-.93-5.24c-.43-3.37-.76-6.69-1.87-9.51a8.83,8.83,0,0,0-2.35-3.49l-.81-.61-.91-.48-.4-.15c-.05,0-.08.05-.12.07l-.3.27a3.05,3.05,0,0,0-.36.36,10,10,0,0,0-.69.84c-.47.6-.91,1.3-1.38,2A13.28,13.28,0,0,1,34.35,369c-.25.14-.5.29-.75.41l-.84.28a6.69,6.69,0,0,1-1.71.26,9.78,9.78,0,0,1-1.63-.15,13.18,13.18,0,0,1-1.47-.4,10.3,10.3,0,0,1-1.35-.56l-.67-.32a2.3,2.3,0,0,1-.48-.26l-.38-.35-1-1c-.34-.37-.64-.79-.95-1.19a8,8,0,0,1-1.33-3,7.9,7.9,0,0,1-.07-1.75,7,7,0,0,1,.35-1.63,20.82,20.82,0,0,1,2.71-4.83c.22-.34.44-.68.61-1a7.25,7.25,0,0,0,.46-.93c.28-.81.22-.61.19-.72l-.08-.07-.21-.17a3.31,3.31,0,0,1-.27-.26c-.35-.4-.69-.8-1-1.21s-.54-.94-.79-1.42a15.15,15.15,0,0,1-.49-1.58,9.61,9.61,0,0,1,1-6.09,16.19,16.19,0,0,1,3.42-4.55c.35-.31.69-.63,1-.93l1.12-.85.52-.34.08,0-.3-.44c-.52-.7-1-1.47-1.41-2.22a30.57,30.57,0,0,1-4-9.92c-.75-3.59-.45-7.21-.26-10.49a46.06,46.06,0,0,0,.07-4.83c0-.8-.12-1.57-.19-2.35a11.78,11.78,0,0,0-.17-1.17l-.13-.71s0,0,0,0l-.15-.1c-.38-.25-.73-.56-1.1-.84a17.6,17.6,0,0,1-2-2,15.42,15.42,0,0,1-2.9-4.85,18.81,18.81,0,0,1-.39-10.9A31,31,0,0,1,21.62,274,38.73,38.73,0,0,1,24,270.8l.74-.87,0,0,0,0-.11-.07-.69-.6a7.87,7.87,0,0,1-2.07-3.32,11.55,11.55,0,0,1,.31-7,20.14,20.14,0,0,1,3.08-5.75,19.14,19.14,0,0,1,2.17-2.43l.09-.08v0h0l0,0-.25-.19c-.31-.26-.6-.54-.9-.82a11.46,11.46,0,0,1-2.56-4,14.75,14.75,0,0,1-.34-9A13.09,13.09,0,0,1,28.4,229a10.36,10.36,0,0,1,4.4-1.72,9.24,9.24,0,0,1,1.17-.1H34v-.07a5.19,5.19,0,0,1,.08-1.11,6.77,6.77,0,0,1,2-3.57,16.29,16.29,0,0,1,5.63-3.3,40.69,40.69,0,0,1,5.65-1.61c.94-.2,1.87-.37,2.81-.52l.68-.1h0v-.07a18,18,0,0,1-.17-2.32,20.52,20.52,0,0,1,.09-2.35,18.09,18.09,0,0,1,4.92-10.42,33.07,33.07,0,0,1,6.9-5.58,71.57,71.57,0,0,1,7.55-4c2.54-1.21,5.1-2.32,7.6-3.45,1.25-.57,2.49-1.13,3.69-1.73l.38-.19a2.21,2.21,0,0,1,.48-.15l.53-.13,1-.24,2-.48a22.38,22.38,0,0,0,7.07-2.58,6.63,6.63,0,0,0,2.17-2.28c.16-.31.14-.26.14-.25l.07-.9a15.22,15.22,0,0,1,.25-2.23,19.21,19.21,0,0,1,3.54-8.34,22.46,22.46,0,0,1,6.66-5.89c5-3,10.41-4.6,15.65-6.09l3.91-1.08.49-.14.12,0,.17-.07.89-.37c.59-.25,1.18-.52,1.76-.8,2.35-1.12,4.63-2.43,6.92-3.81,4.56-2.74,9.25-5.73,14.48-7.67a59.41,59.41,0,0,1,16.05-3.52,95.3,95.3,0,0,1,16.12.09c5.3.44,10.53,1.21,15.68,2.06l3.86.65,1.92.34,1.8.24,7.76,1,1.94.26c.64.08,1.27.24,1.91.36l3.81.77,3.81.76c1.26.26,2.53.48,3.77.86,5,1.4,10,2.55,14.73,4.36,2.4.85,4.82,1.61,7.18,2.53l7,2.91c1.16.49,2.33.94,3.47,1.47l3.37,1.65,6.72,3.29a237.84,237.84,0,0,1,47.23,33.46,284.77,284.77,0,0,1,36.45,40.52l2,2.64,1,1.34a1.81,1.81,0,0,1,.27.51l.18.38.34.76c.45,1,.93,2,1.28,3.06s.8,2.06,1.08,3.12a64.49,64.49,0,0,1,2.53,12.73,133.73,133.73,0,0,1-.29,24.95c-.19,2-.39,4-.58,6l-.3,3-.13,1.18,0,.41.36.17,1.12.53,1.31.84.65.43.59.5,1.17,1,1,1.14c.17.2.35.38.51.58l.44.63c.28.42.59.83.85,1.26l.71,1.34a9,9,0,0,1,.62,1.38c.17.47.38.93.52,1.41a21.22,21.22,0,0,1,.66,2.92,19.85,19.85,0,0,1,0,5.91,20.05,20.05,0,0,1-.69,2.85c-.17.46-.3.93-.49,1.38l-.63,1.31c-.11.22-.21.44-.32.65l-.4.61-.52.78c-.2.23-.41.46-.61.7s-.64.59-.12.43a5.07,5.07,0,0,1,1.56,0,7.93,7.93,0,0,1,.89.22,11,11,0,0,1,1.06.39,10.6,10.6,0,0,1,3.3,2.32,9.08,9.08,0,0,1,2.63,6.19,9.17,9.17,0,0,0-2.9-6.17c-1.75-1.7-4.66-3.08-7.26-2.61l-.34,0h-.08l.05-.06.1-.12.41-.49a9.71,9.71,0,0,0,.81-1.05,16.36,16.36,0,0,0,1.44-2.61,19,19,0,0,0,1-3,19.53,19.53,0,0,0,.43-3.16,20.42,20.42,0,0,0-.06-3.22,20.71,20.71,0,0,0-.68-3.2,17.2,17.2,0,0,0-3-5.91,16.39,16.39,0,0,0-5.08-4.39c-.49-.3-1-.46-1.69-.79l-.49-.22-.25-.11-.13-.05V298l.09-1.07.3-3.65c.37-4.74.73-9.58.88-14.48.29-9.76-.21-19.93-3.37-29.37-.38-1.19-.88-2.32-1.3-3.48-.23-.58-.52-1.13-.78-1.69l-.75-1.6-4.55-5.89-2.31-3c-.78-1-1.6-1.93-2.4-2.89l-4.8-5.75A275.65,275.65,0,0,0,301.21,187a229.77,229.77,0,0,0-34.39-21.73l-7.45-3.68c-2.52-1.12-5.08-2.16-7.61-3.24-1.28-.52-2.53-1.1-3.82-1.57l-3.88-1.35-3.88-1.36c-1.3-.44-2.58-.94-3.9-1.26l-7.88-2.19-2-.54-2-.41-4-.82c-5.29-1.26-10.67-1.78-16-2.53l-1.07-.15-1-.18-2-.36-4-.68c-2.66-.43-5.31-.85-8-1.19a119.3,119.3,0,0,0-15.85-1.11,63.73,63.73,0,0,0-15.5,1.78,52.93,52.93,0,0,0-14.25,5.87c-4.51,2.58-8.9,5.54-13.8,7.71-.61.28-1.24.52-1.85.78a9,9,0,0,1-1,.31l-.94.26-3.75,1c-2.49.69-4.93,1.45-7.32,2.32a39.39,39.39,0,0,0-6.79,3.19,19.7,19.7,0,0,0-5.51,4.74,18.08,18.08,0,0,0-1.93,3,17.75,17.75,0,0,0-1.11,3.42,18.69,18.69,0,0,0-.49,3.59l-.06.71a6,6,0,0,1-.3.62,5.77,5.77,0,0,1-.54.93,9.06,9.06,0,0,1-1.4,1.62,17,17,0,0,1-7.2,3.5c-1.25.34-2.49.62-3.72.91l-1.83.43a2.15,2.15,0,0,0-.31.09l-.37.18-.86.41c-4.6,2.17-9.24,4-13.61,6.31a48.86,48.86,0,0,0-6.27,3.8,24,24,0,0,0-5.16,4.93,14.88,14.88,0,0,0-2.83,6.32,14.09,14.09,0,0,0-.21,1.73,14.41,14.41,0,0,0,0,1.74,6.52,6.52,0,0,0,.07.88l.11,1,.48,2.61-2.14.23-1,.12-.72.11c-1,.16-1.91.34-2.85.55A33.83,33.83,0,0,0,42.09,222a11.64,11.64,0,0,0-4.36,2.78,3.46,3.46,0,0,0-.88,1.95,2.3,2.3,0,0,0,0,.68c.08.33.22.67.33,1,.27.69.57,1.38.85,2-.06,0-.06.09-.18.07l-.38-.07-.75-.14c-.49-.1-1-.15-1.52-.22a5.11,5.11,0,0,0-.76-.07h-.6a6.82,6.82,0,0,0-.92.1,7.56,7.56,0,0,0-3.35,1.48,10.83,10.83,0,0,0-3.72,6.3A11.67,11.67,0,0,0,26.5,245a8.45,8.45,0,0,0,2,2.8,5.14,5.14,0,0,0,.65.56,6.29,6.29,0,0,0,1.12.69c.83.43,1.64.8,2.44,1.15a23.82,23.82,0,0,0-3.54,2.58A17.74,17.74,0,0,0,27.2,255a17,17,0,0,0-2.62,5.13,8.21,8.21,0,0,0-.06,5.25,5.12,5.12,0,0,0,1.39,2,6.62,6.62,0,0,0,1.41.91c.62.3,1.23.56,1.83.81.06.08-.12.21-.22.32l-.35.35-.69.71-.67.72-.34.35-.27.32c-.6.69-1.17,1.41-1.71,2.14a31.75,31.75,0,0,0-2.85,4.66A22.48,22.48,0,0,0,19.44,289a13.16,13.16,0,0,0,4,9.38,16.19,16.19,0,0,0,2,1.67l.78.53c0,.06.14.08.17.15l0,.24.08.46.27,1.48c.15.93.21,1.86.3,2.79s.09,1.87.05,2.79c0,3.71-.58,7.3-.2,10.78a25.32,25.32,0,0,0,3.22,9.9l1.35,2.27c.21.38.49.73.73,1.1l1,1.42.53.77c.11.23.57.56.1.66l-1.61.9-.4.25-.33.21a4.8,4.8,0,0,0-.52.36c-.33.27-.69.5-1,.79a14.47,14.47,0,0,0-3.23,3.85,7.48,7.48,0,0,0-1.06,4.59,5.1,5.1,0,0,0,.79,2.15,5.66,5.66,0,0,0,.72.93,1.86,1.86,0,0,0,.42.42l.63.54.34.3c.11.1.27.18.2.35l-.08.91a3,3,0,0,1-.18.86,3.93,3.93,0,0,1-.23.71,13.78,13.78,0,0,1-1.33,2.43,19.23,19.23,0,0,0-2.47,4.34,4.38,4.38,0,0,0,.88,4.19,6.7,6.7,0,0,0,.78.91l.83.81c.2.11.67.31,1,.48a5.45,5.45,0,0,0,1.12.42,4.6,4.6,0,0,0,4.24-.44,14.7,14.7,0,0,0,3.06-3.73c.47-.72,1-1.45,1.53-2.16a12.49,12.49,0,0,1,.93-1l.53-.49a8.26,8.26,0,0,1,.72-.5l.38-.25.18-.12a.19.19,0,0,1,.1-.05l.1,0,.86.29.75.27c.21.09.41.21.61.32a6.85,6.85,0,0,1,1.19.72,6.49,6.49,0,0,1,1.06.89,12.14,12.14,0,0,1,2.84,4.59c1.2,3.34,1.46,6.78,1.9,10.06a30.3,30.3,0,0,0,.89,4.79,10.08,10.08,0,0,0,.87,2.1,4,4,0,0,0,1.45,1.43,5.76,5.76,0,0,0,4.22.26c.38-.07.75-.21,1.13-.31l.56-.17.81-.34,1.61-.66c.55-.26,1.12-.57,1.68-.85a4.24,4.24,0,0,0,2-.17l.22-.06.11,0s0,0-.07.05l-.35.23a2.6,2.6,0,0,0-.57.62,2.55,2.55,0,0,0-.22,1.88l-.34.35c-.09.11-.29.26-.29.32l-.24.5a3.26,3.26,0,0,0-.37.95,4.43,4.43,0,0,0-.09.65c0,.19,0,.38,0,.57a6.81,6.81,0,0,0,.41,2.22,7.88,7.88,0,0,0,2.65,3.62,6.32,6.32,0,0,0,4,1.36,5.18,5.18,0,0,0,1-.12,4.25,4.25,0,0,0,.51-.14,2.14,2.14,0,0,0,.37-.12c.13-.05.27-.14.41-.2l.81-.44.84-.54c.57-.35,1-.7,1.55-1.05A24.87,24.87,0,0,0,75.5,397a6.51,6.51,0,0,0,1,2.55,7.49,7.49,0,0,0,4.61,2.93,7.92,7.92,0,0,0,5.34-.66,5.84,5.84,0,0,0,1.92-1.7A5.29,5.29,0,0,0,89,399l.09-.2.09-.26.09-.59a5.58,5.58,0,0,0,.15-1.22l.51-.51.23-.45a1,1,0,0,0,.14-.42,2.33,2.33,0,0,1,.08-.37l.26.32a.73.73,0,0,0,.14.16l.22.14c.14.08.27.17.43.25l.67.17a5.38,5.38,0,0,0,1,1.26l.51.51L94,398a5.41,5.41,0,0,0,.76.48,6.84,6.84,0,0,0,.81.41,10,10,0,0,0,3.47.85,10.17,10.17,0,0,0,1.75-.07,5.81,5.81,0,0,0,.85-.16,2,2,0,0,0,.47-.13l.65-.28.64-.28c.23-.12.47-.28.7-.42.46-.29,1-.58,1.36-.86l.63-.43c.19-.12.5-.36.45-.25l0,0s0,.05.13,0l.59-.21a18.14,18.14,0,0,0-1.61,4.43.84.84,0,0,0,0,.31l0,.16a1.66,1.66,0,0,0,.1.29,5.44,5.44,0,0,0,.27.54,2.7,2.7,0,0,0,.76.75l.2.08c-.06.06.31,0,.4-.1L108,403l.44-.17.6-.26,1.21-.54,0,.58c0,.06.09.06.13.1s-.06.26-.13.45l-.26.64c-.17.41-.34.84-.49,1.29a11.05,11.05,0,0,0-.42,1.31l-.09.47c0,.13-.06.26-.07.39l0,.79,0,.78.12.76a6.66,6.66,0,0,0,3.62,4.64,5.29,5.29,0,0,0,2.81.55,3.39,3.39,0,0,0,2.3-1.17,4.84,4.84,0,0,0,1-2.63l0-1.28c0-.44-.07-.92-.1-1.38s-.08-.92-.13-1.35-.12-.94-.11-1.28l1.22.94,1.31,1,1.29.83c.21.1.42.21.64.3l.4.17a12.81,12.81,0,0,0,3.35.81,14,14,0,0,0,6.74-1,8.76,8.76,0,0,0,4.73-4.24,7,7,0,0,0,.61-3v-.39l-.1-.61-.09-.61c0-.2-.13-.47-.19-.69-.28-1-.57-1.86-.86-2.75.66.19,1.29.4,2,.59a18.62,18.62,0,0,0,2,.49l.79.09.58,0a9.08,9.08,0,0,0,1.16-.05,12.22,12.22,0,0,0,4.46-1.27,11.79,11.79,0,0,0,3.65-2.79l.38-.46c.23-.28.39-.52.58-.79l.55-.78c0-.11.14,0,.2,0l.23.07.45.14,2.83.9a124.3,124.3,0,0,0,19.08,4.54c6.34.87,12.87,1.07,18.71-.88a18.27,18.27,0,0,0,7.59-4.71l.75-.83.67-.89.17-.23.12-.17.13-.19.49-.79.48-.78.25-.39.12-.19.06-.1s0-.08.07,0l2.81,2,2,1.19a33.36,33.36,0,0,0,17.39,4,32.83,32.83,0,0,0,8.72-1.59c.69-.26,1.4-.48,2.07-.77l2-.92,2.58-1.44c.07,0,.14-.11.19-.06l.17.15.33.29.65.59.34.3.23.19.42.34a20.17,20.17,0,0,0,7.64,3.73,21.15,21.15,0,0,0,2.08.39l.53.05.27,0a2.27,2.27,0,0,0,.33,0l.87,0,.43,0a2.71,2.71,0,0,1,.24.35l.8,1.25.65.81a8.3,8.3,0,0,0,.69.76,6.35,6.35,0,0,0,.75.72,13.55,13.55,0,0,0,3.43,2.25,10.06,10.06,0,0,0,3.86,1,7.7,7.7,0,0,0,3.72-.72l.8-.51.21-.12.27-.29.56-.58.56-.57c.19-.2.37-.45.55-.67l1.1-1.38c.31.82.58,1.63.93,2.46a10.88,10.88,0,0,0,.53,1.2,4.42,4.42,0,0,0,.28.48,1.89,1.89,0,0,0,.19.3,5.25,5.25,0,0,0,2,1.76,6.66,6.66,0,0,0,5.3-.11,17.17,17.17,0,0,0,5-3.13,21.69,21.69,0,0,0,2.07-2.11l.47-.57.23-.3c.11-.15.23-.3.34-.46.23-.31.43-.69.64-1,.11-.18.22-.34.32-.54l.29-.63a2.49,2.49,0,0,0,1.35-.67l.15-.2.07-.1,0,0v.06c0,.16-.11.3-.06.48,0,.4.36.88,1.21,1.45.07.4.09.88.19,1.21a5.78,5.78,0,0,0,.42.72,7.12,7.12,0,0,0,.68.79,7.63,7.63,0,0,0,1.72,1.28,8.8,8.8,0,0,0,2,.76,7.36,7.36,0,0,0,2.14.09,11.59,11.59,0,0,0,4.24-1.64,16.5,16.5,0,0,0,3.47-3.11c2.06-2.39,3.68-5.13,5.43-7.61a35.91,35.91,0,0,1,2.72-3.51c.24-.28.46-.51.76-.8s.69-.69,1-1l1.05-.87.52-.42c.17-.13.35-.33.45-.25a25.12,25.12,0,0,0,1.32,3.19,6.76,6.76,0,0,0,1.3,1.63,4.85,4.85,0,0,0,1.74.91,5.16,5.16,0,0,0,2,.09,8.46,8.46,0,0,0,3.64-1.6,13,13,0,0,0,2.73-2.65,13.6,13.6,0,0,0,2.61-5.59c0-.21.06-.41.09-.6a3.64,3.64,0,0,0,.06-.63,8.75,8.75,0,0,0,0-1.36c-.06-.89-.16-1.53-.21-2,0-.06.14,0,.21.05l.26.1.51.19c.33.14.67.27,1,.38l1,.33c.41.11.57.11.85.17a8.06,8.06,0,0,0,3,0,7.72,7.72,0,0,0,4.61-3.14,16.23,16.23,0,0,0,2.72-9.61,17.84,17.84,0,0,0-1.36-6.82,18.55,18.55,0,0,0-1.05-2,6.55,6.55,0,0,1-.41-.66l-.05-.18,0,0h.07l.12,0,.51-.12a7.51,7.51,0,0,1,1-.2,5.68,5.68,0,0,1,1-.11,5.61,5.61,0,0,1,1,0A11.45,11.45,0,0,1,358,352a11.8,11.8,0,0,1,4.69,3,6.88,6.88,0,0,1,.69.8,4.31,4.31,0,0,1,.48.67,7.25,7.25,0,0,1,.57,1l.08.16c0,.05,0,.11.08.06l.09-.06s0,0-.05.06-.06.07-.09,0l-.08-.14.06.1s0,.09.07,0l.18-.14.37-.29c.24-.18.45-.41.67-.61a9.93,9.93,0,0,0,1.13-1.42,11.17,11.17,0,0,0,1.4-3.12,10.92,10.92,0,0,0,.11-5.31,10.33,10.33,0,0,0-1.18-2.88c-.06-.08,0-.07.08-.05l.14,0,.15,0-.31,0a8.55,8.55,0,0,0,6.52-1.55,9.74,9.74,0,0,0,2.85-3.16,7.91,7.91,0,0,0,.88-2.37A8.72,8.72,0,0,0,377.71,335.26Z" transform="matrix(-1, 0, 0, 1, 380, 0)" /><path class="cls-1 color-hair" d="M66.94,212.81c0,.59.74-.32.43-.82A26.34,26.34,0,0,0,51.6,200.45c-2.4-.61-5.33-.71-6.94,1.17A6.13,6.13,0,1,0,42,211c-.69,5.1,3.81,9.83,8.85,10.92s10.26-.64,14.84-3" transform="matrix(-1, 0, 0, 1, 380, 0)" /><path d="M65.68,218.93c-.17.41-3.06,2.23-6.9,3.31a19.19,19.19,0,0,1-6,.73,15,15,0,0,1-5-1.1,12.63,12.63,0,0,1-5.3-4.07,10.19,10.19,0,0,1-1.68-3.26c-.43-1.68-.3-1.39-.38-1.63A1.71,1.71,0,0,1,40,213s-.3,0-.47,0L39,213a11.24,11.24,0,0,1-1.16-.2,8.13,8.13,0,0,1-4-2.35,7.42,7.42,0,0,1-2-4.41,8.51,8.51,0,0,1,.88-4.57,7.55,7.55,0,0,1,6.75-4.27,8.57,8.57,0,0,1,3.85.81,8,8,0,0,1,.86.47l.4.27.12.09.06,0c.11.09.08.08.08.08h0c.1,0-.39.16.92-.4a8.24,8.24,0,0,1,2.65-.45,14.23,14.23,0,0,1,4.54.78,25.89,25.89,0,0,1,7.24,3.64,25.34,25.34,0,0,1,5.24,5,24.37,24.37,0,0,1,1.84,2.7c.26.45.49.91.73,1.35a1.4,1.4,0,0,1,0,1.34,1.5,1.5,0,0,1-.42.5l-.12.06a.68.68,0,0,1-.2.07.65.65,0,0,1-.62-.19.5.5,0,0,1-.13-.2.58.58,0,0,1,0-.16,1.23,1.23,0,0,1,0-.19,1.38,1.38,0,0,0,.08.25.94.94,0,0,0,.12.18.55.55,0,0,0,.8.08.55.55,0,0,0,.15-.17,1.23,1.23,0,0,0,.15-.62.87.87,0,0,0-.18-.6c-.13-.13-.27-.23-.4-.35-.52-.48-1.09-1-1.67-1.44a41.39,41.39,0,0,0-3.72-2.74c-2.54-1.67-5-2.8-6.29-3.55a23.25,23.25,0,0,0-2.68-1.36,17.29,17.29,0,0,0-2.73-.93,7.54,7.54,0,0,0-2.56-.17,3.59,3.59,0,0,0-1.07.3,11,11,0,0,0-1.75,1.52,14.64,14.64,0,0,0-1.85-2.05,4.87,4.87,0,0,0-1.38-.75,5.51,5.51,0,0,0-3.08-.23,5.13,5.13,0,0,0-3.8,4.24,5.2,5.2,0,0,0,.27,2.86,4.92,4.92,0,0,0,1.73,2.15,5.81,5.81,0,0,0,2.53,1,4.91,4.91,0,0,0,.66.06c.13,0,.17,0,.37,0a2.22,2.22,0,0,0,.55-.08,22.22,22.22,0,0,0,2.32-.7l0,.06v.12l0,.26,0,.52a9,9,0,0,0,0,1c0,.35,0,.71,0,1.05a.53.53,0,0,0,0,.16V213l0,.15.06.3a8.21,8.21,0,0,0,.87,2.2A10.83,10.83,0,0,0,47,219a11.84,11.84,0,0,0,4,1.78,16.44,16.44,0,0,0,4.23.36,31.3,31.3,0,0,0,6.05-.91C63.35,219.75,65.1,219.12,65.68,218.93Z" transform="matrix(-1, 0, 0, 1, 380, 0)" /><path class="cls-1 color-hair" d="M33.64,285.28C27.56,285.28,20.57,283,16,287c-2.39,2.07-3.34,5.32-4,8.41-.58,2.81-.93,6,.73,8.32s6.08,2.51,6.9-.24a13.43,13.43,0,0,0-7.7,7.7,10,10,0,0,0,2.24,10.38c2.73,2.57,7.39,3,10.25.55a14,14,0,0,0,3-4.31l2-3.76c1.69-3.18,3.42-6.47,3.73-10.06l2.57-.28" transform="matrix(-1, 0, 0, 1, 380, 0)" /><path d="M35.75,303.74a9.93,9.93,0,0,1-2.24.61,6.78,6.78,0,0,1,0,.77c0,.13,0,.27,0,.4l-.09.53a16.94,16.94,0,0,1-.59,2.3,36.5,36.5,0,0,1-2.06,4.85l-2.29,4.59a27.41,27.41,0,0,1-2.06,3.74A8.08,8.08,0,0,1,23,324.34a9,9,0,0,1-4.49.69,9.47,9.47,0,0,1-7.59-5.16,12,12,0,0,1-.71-9.25,14.64,14.64,0,0,1,5.46-7.16,17,17,0,0,1,3.22-1.8l3.85-1.61-1.22,4A4.7,4.7,0,0,1,20,306.35a5.22,5.22,0,0,1-2.3,1,6.43,6.43,0,0,1-2.27,0,6.89,6.89,0,0,1-2.1-.68,5.92,5.92,0,0,1-1.84-1.41l-.38-.47-.29-.45a7.26,7.26,0,0,1-.47-.92,9.71,9.71,0,0,1-.77-3.78,24.33,24.33,0,0,1,1-6.52,16.38,16.38,0,0,1,2.79-5.88,10.22,10.22,0,0,1,5.42-3.53,16.32,16.32,0,0,1,5.66-.38c3.49.31,6.47,1,9.2,1.3-2.6.88-6.74.89-10.2,1.36a13.56,13.56,0,0,0-4.35,1.25A11,11,0,0,0,16.7,289a11.61,11.61,0,0,0-2.91,5.1,19.29,19.29,0,0,0-1.12,6,6.15,6.15,0,0,0,.59,2.59,3.22,3.22,0,0,0,.7,1,3.09,3.09,0,0,0,1,.65,3.93,3.93,0,0,0,2.38.25,2.54,2.54,0,0,0,1-.47,1.9,1.9,0,0,0,.54-.82l1.08,1c-3.86,1.5-6.88,4.76-7.59,8.41s.8,7.47,3.58,9a7.44,7.44,0,0,0,4.5.95,6,6,0,0,0,3.77-1.84,18.11,18.11,0,0,0,2.45-3.8q1.13-2.07,2.23-4c.79-1.43,1.87-3.22,2.67-4.9a24.71,24.71,0,0,0,1-2.38c.12-.32.23-.77.32-1.07s.15-.57.21-.75A20.43,20.43,0,0,1,35.75,303.74Z" transform="matrix(-1, 0, 0, 1, 380, 0)" /><path class="cls-2" d="M59.69,258.78a9.75,9.75,0,0,1,3.22,1.77,16.17,16.17,0,0,1,4.93,5.89A11.47,11.47,0,0,1,69,270.88a10.31,10.31,0,0,1-6.44,9.77,5.72,5.72,0,0,1-.83.26l-.45.09-.38.07-.41,0-.35,0a3.48,3.48,0,0,0,0,.64,11.76,11.76,0,0,1-.05,1.26,18.24,18.24,0,0,1-.54,3.28,12.37,12.37,0,0,1-1.39,3.26,9.23,9.23,0,0,1-2.6,2.72,8.69,8.69,0,0,1-3.6,1.47,6.87,6.87,0,0,1-4.13-.59,5.89,5.89,0,0,1-2.88-3.37,6.68,6.68,0,0,1-.39-2.12,5.8,5.8,0,0,1,.06-1.1l0-.28v-.07l0-.11a.23.23,0,0,1,.12-.17.47.47,0,0,1-.25,0l-.07,0h-.08l-.13-.06a6.29,6.29,0,0,1-1-.49,8.27,8.27,0,0,1-1.63-1.27,9.34,9.34,0,0,1-2.2-3.28,13.62,13.62,0,0,1-.7-7,20.69,20.69,0,0,1,2.12-6.28,35.81,35.81,0,0,1,3.33-5.2c.88-1.13.57-.71.66-.81l0,0s0,0,0,0l-.08-.05-.13-.08-.4-.27a8.07,8.07,0,0,1-.7-.59,6.84,6.84,0,0,1-1.87-3.06,9.85,9.85,0,0,1,.53-6.18,28.35,28.35,0,0,1,2.45-4.69,33.8,33.8,0,0,1,3-4,32.8,32.8,0,0,1,3.37-3.31,17.75,17.75,0,0,1,3.77-2.58,10.59,10.59,0,0,1,4.26-1.16,6,6,0,0,1,2.15.31,5.27,5.27,0,0,1,1.81,1.06,5.15,5.15,0,0,0-2.91-.52,7.6,7.6,0,0,0-2.94,1,14.32,14.32,0,0,0-2.62,1.94,29.69,29.69,0,0,0-2.26,2.46,53.53,53.53,0,0,0-5.86,9A9.3,9.3,0,0,0,44.9,256a3.62,3.62,0,0,0,1.21,2.39,1.66,1.66,0,0,0,.21.16l.1.08.26.11a.82.82,0,0,0,.66.11l.48-.05a3,3,0,0,0,.57-.08l1.41-.26,1.81-.37-.34.5-.15.22-.08.11,0,.05c-.06.12-.17.31-.13.31l0,0c0,.07-.18.2-.27.3l-.56.64-2.19,2.49-.85,1c-.21.25-.42.5-.61.76-.41.51-.79,1-1.16,1.55a22.55,22.55,0,0,0-3.34,6.57,13.27,13.27,0,0,0-.55,3.44,11.29,11.29,0,0,0,.48,3.34,6.65,6.65,0,0,0,1.59,2.7,6.08,6.08,0,0,0,1.19,1,5.75,5.75,0,0,0,.65.34,2.49,2.49,0,0,0,.49.14,1.24,1.24,0,0,0,.65,0l.31.28a1.81,1.81,0,0,0,.29.17,1.26,1.26,0,0,0,1,.18l.63-.29.31-.15.07,0h0l-.69.35h0l-.05,0c-.57.24-.84.74-.72,1.86a2.49,2.49,0,0,0-.45,1.7,4.81,4.81,0,0,0,.31,1.41A3.24,3.24,0,0,0,49.24,291a5.48,5.48,0,0,0,5.22-1,8.26,8.26,0,0,0,2.84-4.61,17,17,0,0,0,.48-2.75l0-.7,0-.48,0-.57c0-.73,0-1.54.08-2.21.49.06,1,.14,1.47.19l.72,0,.36,0a.89.89,0,0,0,.29,0c.25-.05.51-.07.75-.14s.49-.14.73-.23a7.5,7.5,0,0,0,2.52-1.74,9,9,0,0,0,2.46-5.36,11.12,11.12,0,0,0-.59-4,14.91,14.91,0,0,0-2.18-4.06A22.53,22.53,0,0,0,59.69,258.78Z" transform="matrix(-1, 0, 0, 1, 380, 0)" /><path class="cls-2" d="M77,326.49a3.58,3.58,0,0,1,.78,1.62,7.71,7.71,0,0,1,.26,3.82,4.65,4.65,0,0,1-3.2,3.47,3.55,3.55,0,0,1-2.39-.25,7.5,7.5,0,0,1-1.5-1,9.65,9.65,0,0,1-1.86-2c-.13-.2-.27-.39-.39-.59l-.28-.46c-.1-.17-.16-.25-.22-.36a1.44,1.44,0,0,1-.18-.44,3,3,0,0,1-.27.77.64.64,0,0,1-.11.17.92.92,0,0,1-.15.16l-.47.4a10.26,10.26,0,0,1-2.12,1.31,9.12,9.12,0,0,1-5,.74,9.65,9.65,0,0,1-7.57-6.27,8.89,8.89,0,0,1-.51-2.51,10.36,10.36,0,0,1,.19-2.43,12.42,12.42,0,0,1,1.72-4.1,24.81,24.81,0,0,1,5.07-5.52,13.17,13.17,0,0,1,5.67-3,27.55,27.55,0,0,0-3.9,5.05,44,44,0,0,1-3,4.26A8.67,8.67,0,0,0,55,324.82a6.33,6.33,0,0,0,2.37,5,6.06,6.06,0,0,0,5.12,1.37,6.63,6.63,0,0,0,2.41-1,6.94,6.94,0,0,0,1-.83,5.44,5.44,0,0,0,1.22-1.78,2.32,2.32,0,0,0,1.63-1.52,2.4,2.4,0,0,0,.23.8,2.55,2.55,0,0,0,.94.83,6.4,6.4,0,0,0,.54,2.25,5.61,5.61,0,0,0,.32.65c.1.17.2.34.31.51a8.26,8.26,0,0,0,1.5,1.71,2.47,2.47,0,0,0,1.49.75,2.27,2.27,0,0,0,1.44-.56,4.12,4.12,0,0,0,1-1.31,5.82,5.82,0,0,0,.5-2A24.8,24.8,0,0,0,77,326.49Z" transform="matrix(-1, 0, 0, 1, 380, 0)" /><path class="cls-1 color-hair" d="M52,359.43c-3.71-.15-6.67,3.1-8.3,6.43A25.31,25.31,0,0,0,43.85,388,12,12,0,0,1,45,390.66a8.1,8.1,0,0,1,.12,2c-.09,2.08-.47,4.18,0,6.21s1.94,4,4,4.19,4-2.56,2.6-4.14c.88,2.06,4,1.82,5.8.49,3.81-2.81,4.65-8.06,5.19-12.76a7.53,7.53,0,1,0,7-13.1" transform="matrix(-1, 0, 0, 1, 380, 0)" /><path d="M69.69,373.55a4.47,4.47,0,0,1,2.76,1.28,8.5,8.5,0,0,1,2.84,5.67,7.68,7.68,0,0,1-.63,3.78,7.55,7.55,0,0,1-2.42,3,9.6,9.6,0,0,1-6,1.79,8.1,8.1,0,0,1-1-.1l-.49-.09-.33-.07a2.14,2.14,0,0,1-.71-.26s-.07-.06-.07,0v.82a15.63,15.63,0,0,1-.22,1.83A20.2,20.2,0,0,1,62.1,396a11.87,11.87,0,0,1-3.1,4.41l-.54.45a5.51,5.51,0,0,1-.67.44,6.91,6.91,0,0,1-1.42.63,7.05,7.05,0,0,1-1.53.32,7.45,7.45,0,0,1-.82,0l-.49,0a.21.21,0,0,1-.15-.06s0,0,0,0l0,.06s0,.18,0,.14a5.29,5.29,0,0,1-2,2.06,4.85,4.85,0,0,1-1.45.55,4.56,4.56,0,0,1-1.56,0,5.64,5.64,0,0,1-2.51-1.08A7.57,7.57,0,0,1,43.33,400a12.34,12.34,0,0,1-.43-4.11c.06-1.26.19-2.4.22-3.44a6.21,6.21,0,0,0,0-1.27,5,5,0,0,0-.39-1.14,33.1,33.1,0,0,1-1.45-3.17,24.24,24.24,0,0,1-1.07-3.43,25.82,25.82,0,0,1-.67-6.89A25.14,25.14,0,0,1,43,364.46,13.92,13.92,0,0,1,47,360.23,7.59,7.59,0,0,1,52,358.86a8,8,0,0,0-4.18,2.58A14.84,14.84,0,0,0,45.24,366a44.49,44.49,0,0,0-1.92,8.34,22.59,22.59,0,0,0,.26,9.38,23,23,0,0,0,1.55,4.32,10.12,10.12,0,0,1,.88,2.49,10.51,10.51,0,0,1,0,2.56,35.16,35.16,0,0,0-.3,4.42A5.79,5.79,0,0,0,47,401.13a3.45,3.45,0,0,0,1.4,1,2.47,2.47,0,0,0,.79.16,1.75,1.75,0,0,0,.71-.13,2.56,2.56,0,0,0,1.17-1l0-.08a.85.85,0,0,1,.08-.17l.23-.24a2.24,2.24,0,0,0,.35-.46,1.16,1.16,0,0,0,.18-.76l-.07-.18-.16-.24,0-.06h0l-.37-.69h0v0l0,0,0,.1.21.39.2.39c.07.12.06.07.09.11.26.31.79.4,1.62.16l.41.14.25,0a4.61,4.61,0,0,0,.52,0,4.56,4.56,0,0,0,1-.23,4.7,4.7,0,0,0,1.77-1.1,9.85,9.85,0,0,0,2.41-3.58,19.65,19.65,0,0,0,1.16-4.16c.06-.35.12-.71.17-1.06s.14-1,.2-1.5l.2-1.67.09-.83,0-.42c0-.13.08-.15.12-.23.39.26.75.51,1.19.77a9.05,9.05,0,0,0,1.25.72,5.18,5.18,0,0,0,1,.43,4.56,4.56,0,0,0,.7.14,7.37,7.37,0,0,0,2.73-.14,6.63,6.63,0,0,0,4.15-2.87,6.51,6.51,0,0,0,.9-3,7.9,7.9,0,0,0-.62-3.54,7.71,7.71,0,0,0-1.85-2.68,7.93,7.93,0,0,0-1-.76Z" transform="matrix(-1, 0, 0, 1, 380, 0)" /><path class="cls-1 color-hair" d="M48.42,329.86c-3.64,2.46-4.39,7.47-4.36,11.86a14.94,14.94,0,0,0,1.14,6.57,6,6,0,0,0,5.27,3.55c1,0,2.3-.32,2.83.56a2.31,2.31,0,0,1,.17,1.33,21.41,21.41,0,0,0,1.27,8.76A5,5,0,0,0,56.4,365c1.94,1.31,4.67-.35,5.64-2.47s.9-4.59,1.56-6.83c3.14-1.44,2.95-5.9,2.32-9.3s-1.18-6.73-1.67-10.11" transform="matrix(-1, 0, 0, 1, 380, 0)" /><path class="cls-2" d="M64.28,336.27c.37.27,1,3.19,1.68,6.57.32,1.7.71,3.46,1,5.2a15.18,15.18,0,0,1,.07,4.59,6,6,0,0,1-1.5,3.2,2,2,0,0,1-.34.31l-.3.27c-.06.07-.18.08-.17.19l0,.29-.1.7c-.12,1-.19,2-.38,3.11A9.39,9.39,0,0,1,63,364.2a6.91,6.91,0,0,1-3.13,2.62,5.09,5.09,0,0,1-2.31.39,4.78,4.78,0,0,1-2.38-.89,7.27,7.27,0,0,1-2.23-3.4,21.51,21.51,0,0,1-.94-3.16,21.88,21.88,0,0,1-.52-5.64l0-.35s0,0,0,0h0l-.46,0a6.37,6.37,0,0,1-.81,0,6.81,6.81,0,0,1-3.35-1,8.29,8.29,0,0,1-2.36-2.15,10.64,10.64,0,0,1-2-5.37,27.52,27.52,0,0,1,0-4.89,23,23,0,0,1,.8-4.51,10.33,10.33,0,0,1,4.78-6.53,11,11,0,0,0-1.64,3.4,15.79,15.79,0,0,0-.55,3.93c-.07,2.62.24,5.16.14,6.47-.18,2.6.21,5,1.83,6.47a3.79,3.79,0,0,0,2.77,1.13c.3,0,.6,0,1.14,0a3.72,3.72,0,0,1,1.34.27,2.16,2.16,0,0,1,1,.88,2.66,2.66,0,0,1,.29,1.27c0,.23,0,.45,0,.68l0,.46c0,.3,0,.6,0,.89a17,17,0,0,0,0,1.75,18.89,18.89,0,0,0,.56,3.39,13.52,13.52,0,0,0,1.12,3,2.16,2.16,0,0,0,2,1.26,3.63,3.63,0,0,0,2.28-1.16,4.77,4.77,0,0,0,1.27-2.32,20.47,20.47,0,0,0,.5-2.84c.07-.49.14-1,.22-1.49,0-.26.08-.47.18-.87l.13-.54.07-.26c0-.1,0-.19.14-.22l.47-.28.23-.14.13-.09a2.49,2.49,0,0,0,.41-.37,3.34,3.34,0,0,0,.59-.87,6.75,6.75,0,0,0,.53-2.25,22.92,22.92,0,0,0-.31-4.88A89.2,89.2,0,0,1,64.28,336.27Z" transform="matrix(-1, 0, 0, 1, 380, 0)" /><g class="cls-3" transform="matrix(-1, 0, 0, 1, 380, 0)"><path class="cls-4" d="M50.89,278.47c-.14.09-.64,0-1.26-.42a4.91,4.91,0,0,1-1.65-2.2,9.69,9.69,0,0,1-.24-5.74,17.78,17.78,0,0,1,3.32-6.31c.67-.93,1.35-1.85,1.87-2.71a3.76,3.76,0,0,0,.71-2.08,1.32,1.32,0,0,0-.63-.94A11.75,11.75,0,0,0,50.94,257a12.87,12.87,0,0,1-2.78-1.65,5.28,5.28,0,0,1-1.94-3.45,6.06,6.06,0,0,1,2.9-5.56,11.83,11.83,0,0,1,4.28-1.53c-.71,1.2-2,2.52-2.65,3.69a11.22,11.22,0,0,0-.85,2.39,1.46,1.46,0,0,0-.14,1.13,2.59,2.59,0,0,0,1,1.24c1,.8,2.39,1.35,3.66,2.27a4.93,4.93,0,0,1,1.6,1.86,3.88,3.88,0,0,1,.3,2.4,9.34,9.34,0,0,1-1.81,3.68,64.29,64.29,0,0,0-3.87,5.5,11.24,11.24,0,0,0-1.08,2.53,9.67,9.67,0,0,0-.3,2.48,9.07,9.07,0,0,0,.43,2.73A5.11,5.11,0,0,0,50.89,278.47Z" /></g><g class="cls-3" transform="matrix(-1, 0, 0, 1, 380, 0)"><path class="cls-4" d="M49.4,325.65c-.11.3-1.54.8-3.44.68a4.57,4.57,0,0,1-2.78-1.17,5,5,0,0,1-1.36-2.25,7.73,7.73,0,0,1-.19-3.44,19.33,19.33,0,0,1,.81-3.21c.05-.13.08-.24.1-.3v-.06a.36.36,0,0,0,0-.11.18.18,0,0,0-.15-.1c-.08,0-.07,0-.18,0a7,7,0,0,1-1,0,4.66,4.66,0,0,1-1.11-.23,6,6,0,0,1-3-2.2,7.73,7.73,0,0,1-1.33-3.09,8,8,0,0,1,0-3.23A8.18,8.18,0,0,1,37,304.18a11.44,11.44,0,0,1,3.68-3.37,17.52,17.52,0,0,1,3.6-1.64,21.08,21.08,0,0,1-2,3.81,13.57,13.57,0,0,1-1.7,2.5,5.62,5.62,0,0,0-1.14,1.25,3.71,3.71,0,0,0-.63,1.42,4.75,4.75,0,0,0,.41,3.13,3.12,3.12,0,0,0,2.2,1.75,4,4,0,0,0,.74.06,6.46,6.46,0,0,1,1.14.07A2.14,2.14,0,0,1,45,314.41a3.3,3.3,0,0,1,0,2.17c-.18.53-.35,1.05-.53,1.56a13.9,13.9,0,0,0-.61,2.69A4.74,4.74,0,0,0,44,323a2.69,2.69,0,0,0,1.09,1.37,7.31,7.31,0,0,0,2.26.89C48.27,325.48,49.13,325.59,49.4,325.65Z" /></g><path class="cls-1 color-hair" d="M85.2,387.14a25,25,0,0,0,2.58,30c1.75,1.85,4.78,3.43,6.65,1.71a5,5,0,0,0,1.18-2A35.83,35.83,0,0,0,97.44,410c.73,2.82,2.61,6.38,5.43,5.62,1.69-.46,2.53-2.34,3-4a24.77,24.77,0,0,0-1.06-15.26c4.41-3.54,3.79-11.57-1.12-14.4" transform="matrix(-1, 0, 0, 1, 380, 0)" /><path d="M103.67,381.93a4.41,4.41,0,0,1,2.33,1.53,8.61,8.61,0,0,1,1.48,2.25,11,11,0,0,1,.83,3.09,11.16,11.16,0,0,1-.2,3.45,9.61,9.61,0,0,1-1.41,3.18l-.52.68c-.07.09-.19.2-.28.3l-.15.15a.73.73,0,0,0,.07.19l.17.37c0,.06.13.32.2.52a4.84,4.84,0,0,1,.22.6c.14.39.27.75.37,1.09a24.53,24.53,0,0,1,.77,11.65,13.61,13.61,0,0,1-.89,3.14,5.63,5.63,0,0,1-2.71,2.93,4.64,4.64,0,0,1-2.25.41,5,5,0,0,1-2.16-.74,8.48,8.48,0,0,1-.8-.62,6.62,6.62,0,0,1-.5-.5l-.1-.09a.77.77,0,0,1-.09-.13,2.36,2.36,0,0,0,0,.25v.1s0,0,0,0l-.13.41c-.17.54-.35,1.05-.56,1.61a7.31,7.31,0,0,1-1,1.91,4.75,4.75,0,0,1-2.18,1.56,5.28,5.28,0,0,1-2.52.22,7.59,7.59,0,0,1-2-.65,10.64,10.64,0,0,1-3.11-2.26,25.84,25.84,0,0,1-3.84-5.48,27.55,27.55,0,0,1-2.14-6,26,26,0,0,1,.07-11.55,22.4,22.4,0,0,1,4.19-8.74,38.38,38.38,0,0,0-1.58,9.49,59.91,59.91,0,0,0,.5,7.89A20.92,20.92,0,0,0,89,416.82c1.43,1.47,3.7,2.47,4.88,1.37a6.52,6.52,0,0,0,1.31-2.53l.26-.74.32-1.06c.21-.72.39-1.44.55-2.21a3.68,3.68,0,0,0,.75-1,5,5,0,0,0,.22-.47l.09-.22,0-.11s0,.06,0,.09a3.17,3.17,0,0,0,1.47,1.72,8.33,8.33,0,0,0,.8,1.61,4.56,4.56,0,0,0,.47.62,3.31,3.31,0,0,0,.33.32,2.35,2.35,0,0,0,1.46.67,2.62,2.62,0,0,0,2.38-1.87,14,14,0,0,0,.92-3.68,23.7,23.7,0,0,0,.23-3.74,24.71,24.71,0,0,0-1.11-6.94c-.08-.27-.18-.53-.26-.8-.15-.45-.32-.86-.48-1.28l-.12-.32c0-.1-.15-.23,0-.29l.49-.46.49-.45.13-.11,0-.05,0-.05,0,0,.12-.14a6.93,6.93,0,0,0,1.43-2.5,10.24,10.24,0,0,0,.08-6.29,8.19,8.19,0,0,0-1.41-2.65A9.75,9.75,0,0,0,103.67,381.93Z" transform="matrix(-1, 0, 0, 1, 380, 0)" /><path class="cls-1 color-hair" d="M281.41,385.7c-2.14,3.34-6.57,4.57-8.9,7.78s-2,8-1.26,12c.43,2.46,1.05,5.13,3,6.63a7,7,0,0,0,6.46.62,20.71,20.71,0,0,0,5.69-3.59c-.39,2.61-.64,5.66,1.27,7.48,2.48,2.37,7,.6,8.5-2.47s1-6.72.48-10.11c4.67,1.76,10.07-2.37,10.88-7.3s-1.95-9.88-5.71-13.16" transform="matrix(-1, 0, 0, 1, 380, 0)" /><path d="M301.88,383.59a7.21,7.21,0,0,1,2.34,1.86,16.26,16.26,0,0,1,3.32,5.27,12.09,12.09,0,0,1,.53,7.31,11.36,11.36,0,0,1-3.28,5.23,9.7,9.7,0,0,1-3.63,2.12,5.89,5.89,0,0,1-1.1.27l-.58.09c-.18,0-.45,0-.48,0a1.62,1.62,0,0,1-.63,0h-.05s0,0,0,.06l0,.13.06.24.06.22,0,.1v0l0,.2a20.94,20.94,0,0,1,.23,3.32,12.56,12.56,0,0,1-.54,3.53,8.52,8.52,0,0,1-1.93,3.37A8.91,8.91,0,0,1,293,419.1a7,7,0,0,1-4.17.26,5.93,5.93,0,0,1-3.52-2.67,6.93,6.93,0,0,1-.8-1.93,8.48,8.48,0,0,1-.2-.95l-.07-.53c0-.07,0,0,0,0l0,0h0l-.24.15-.4.23a13,13,0,0,1-1.68.81,10.46,10.46,0,0,1-3.85.78,8.27,8.27,0,0,1-4-.95,7.65,7.65,0,0,1-2.92-2.92,12.47,12.47,0,0,1-1.25-3.38c-.26-1.09-.4-2.12-.54-3.13s-.25-2.05-.29-3.08a16.36,16.36,0,0,1,.77-6.2,10.31,10.31,0,0,1,3.59-4.84,50.07,50.07,0,0,1,4.28-2.69,11.82,11.82,0,0,0,3.26-2.67,7.13,7.13,0,0,1-.95,2,15.21,15.21,0,0,1-1.72,2.05,43.41,43.41,0,0,0-3.81,3.92c-2,2.57-1.7,5.68-1.81,7.39a27.87,27.87,0,0,0,.09,3.28,31.26,31.26,0,0,0,.41,3.23c.36,2,1.19,3.73,2.75,4.44a6.67,6.67,0,0,0,5.32-.16,12.65,12.65,0,0,0,1.28-.63c.16-.09.54-.32.82-.51s.61-.41.9-.63l1.74-1.3.84-.65.41-.32.2-.16c.06,0,.07,0,.11,0-.15,1-.3,2-.41,3a12.55,12.55,0,0,0-.11,2.75,4.5,4.5,0,0,0,1.24,2.94,3.48,3.48,0,0,0,1.29.74,4.29,4.29,0,0,0,1.52.1,5.81,5.81,0,0,0,2.85-1.24,7,7,0,0,0,2.38-5.46,19.05,19.05,0,0,0-.14-3.11l-.14-1-.19-1.2-.2-1.2-.1-.6-.05-.29.06-.16c.58.16,1.15.34,1.79.48l.94.23a4.8,4.8,0,0,0,.82.05,6.3,6.3,0,0,0,1.83-.34,8.52,8.52,0,0,0,3.12-2,8.58,8.58,0,0,0,2.68-6.28,13.76,13.76,0,0,0-.41-3.31A16.57,16.57,0,0,0,305,388,21.94,21.94,0,0,0,301.88,383.59Z" transform="matrix(-1, 0, 0, 1, 380, 0)" /><path class="cls-1 color-hair" d="M327.13,363.28a22.41,22.41,0,0,1,11.69-.37c2.12.51,4.3,1.44,5.45,3.29,2.15,3.47-.38,7.9-3,11a1.36,1.36,0,0,0-.45,1c.06.66.93.83,1.59.9a9.44,9.44,0,1,1-3.74,18.42c-1,2.66-4.45,3.52-7.26,3.11-7.54-1.12-13.06-9.62-11-17" transform="matrix(-1, 0, 0, 1, 380, 0)" /><path d="M320.42,383.65a24.63,24.63,0,0,1-.05,2.7,14.22,14.22,0,0,0,4.74,10.26,11.64,11.64,0,0,0,4.29,2.45,9.19,9.19,0,0,0,4.62.25,5.56,5.56,0,0,0,2-.84,3.37,3.37,0,0,0,.73-.67l.15-.21a4.1,4.1,0,0,0,.32-.62c.18-.4.36-.81.55-1.21.66.11,1.35.29,2.06.44.06,0,.25,0,.27,0h.13l.24,0a2.67,2.67,0,0,0,.49,0,7.47,7.47,0,0,0,2-.29,9,9,0,0,0,3.55-2,7.76,7.76,0,0,0,2.14-3.26,6.84,6.84,0,0,0,.05-3.7,8.6,8.6,0,0,0-2.78-4.3,7,7,0,0,0-2.15-1.28,3.81,3.81,0,0,0-.57-.19l-.29-.09-.76-.13-.75-.14a2.39,2.39,0,0,1-.7-.18,3.36,3.36,0,0,1-1.05-.66,2.69,2.69,0,0,1-.82-2.18,2,2,0,0,1,.42-1.14,8.35,8.35,0,0,1,.8-1.17c.74-.91.85-1.08,1.15-1.5s.51-.77.74-1.16a7.57,7.57,0,0,0,1.3-4.48,4.24,4.24,0,0,0-2.37-3.17,15.71,15.71,0,0,0-4.61-1.51,23.28,23.28,0,0,0-9,.07,14.08,14.08,0,0,1,4.17-2,18.81,18.81,0,0,1,5.46-.74,14.55,14.55,0,0,1,5.37,1,7.21,7.21,0,0,1,3.54,2.94,7.35,7.35,0,0,1,.91,4.36,10.64,10.64,0,0,1-1.14,3.74,18.94,18.94,0,0,1-1.9,3l-.51.63-.27.29a1.81,1.81,0,0,0-.47.55c-.08.27.17.44.38.5l.74.18a10.76,10.76,0,0,1,3.08,1.4,11.45,11.45,0,0,1,4.06,4.88,9.5,9.5,0,0,1-2.18,11.09,11.44,11.44,0,0,1-4.82,2.77,10.4,10.4,0,0,1-2.71.36,5.3,5.3,0,0,1-.69,0l-.59-.06a5.16,5.16,0,0,0-.6-.09,1.87,1.87,0,0,1-.15.32l-.08.14a2.22,2.22,0,0,1-.18.24,5.85,5.85,0,0,1-1.16,1.07,7.91,7.91,0,0,1-2.68,1.16,10.23,10.23,0,0,1-2.74.23,12.72,12.72,0,0,1-2.6-.45,13.17,13.17,0,0,1-4.43-2.26,13.54,13.54,0,0,1-3.2-3.4,13.37,13.37,0,0,1-2.34-6.93c0-.31,0-.61,0-.9s0-.58.06-.85a9.06,9.06,0,0,1,.24-1.5A13,13,0,0,1,320.42,383.65Z" transform="matrix(-1, 0, 0, 1, 380, 0)" /><path class="cls-1 color-hair" d="M355.67,343a7.37,7.37,0,0,1,9.8,5.22c.52,3-.9,6.38.61,9.05.71,1.27,2,2.12,2.93,3.24s1.55,2.81.71,4a3.35,3.35,0,0,1-1.59,1.09c-3.84,1.45-8.33-.51-10.9-3.71s-3.6-7.35-4.23-11.4" transform="matrix(-1, 0, 0, 1, 380, 0)" /><path d="M353,350.47c.36.17.79,2.33,1.59,4.69a15.61,15.61,0,0,0,3.22,5.87,10.87,10.87,0,0,0,6.9,3.36,6.4,6.4,0,0,0,1.81-.17,4.47,4.47,0,0,0,1.48-.59c.27-.24.19-.21.22-.43a2.26,2.26,0,0,0-.4-1,28.48,28.48,0,0,0-2.42-2.47,7.21,7.21,0,0,1-1.41-2.11,8,8,0,0,1-.59-2.42,20.67,20.67,0,0,1,.19-4,10.61,10.61,0,0,0,0-3,5.91,5.91,0,0,0-3-3.95,6.54,6.54,0,0,0-4.72-.74,4.45,4.45,0,0,1,2.37-1.6,6.81,6.81,0,0,1,3.59-.06,7.79,7.79,0,0,1,3.18,1.61,5.78,5.78,0,0,1,1.62,2.21,8.75,8.75,0,0,1,.49,3.8c-.09,1.14-.3,2.15-.46,3.1-.33,1.88-.39,3.53.53,4.79a16.69,16.69,0,0,0,1.75,1.91,6.86,6.86,0,0,1,1.64,2.44,3.51,3.51,0,0,1-.19,3.13,4.34,4.34,0,0,1-2.44,1.65,9.25,9.25,0,0,1-5.1.17,11.81,11.81,0,0,1-4.3-2,12.22,12.22,0,0,1-3.05-3.22,15,15,0,0,1-1.75-3.64,15.83,15.83,0,0,1-.76-4.25C353,352.1,353,350.87,353,350.47Z" transform="matrix(-1, 0, 0, 1, 380, 0)" /><path class="cls-2" d="M94.73,363c.39.15,1.57,2.78,1.74,6.09a20,20,0,0,1-.36,5,12.64,12.64,0,0,1-1.49,4,7.67,7.67,0,0,1-1.83,2.2,5.12,5.12,0,0,1-6.36.17,7.94,7.94,0,0,1-2.16-2.41,13.12,13.12,0,0,1-.6-11.67l1.92-4.44,1.6,4.63a5.42,5.42,0,0,1,.17,2.89,6.56,6.56,0,0,1-4.38,4.9,5.4,5.4,0,0,1-1.81.27,5.47,5.47,0,0,1-1.79-.34,6.45,6.45,0,0,1-2.72-1.89,8,8,0,0,1-1.53-2.64,9.07,9.07,0,0,1-.49-2.84,15.36,15.36,0,0,1,.88-4.94,38.64,38.64,0,0,1,7.75-13.54c-.41,2-1.22,4.71-1.9,7.19a55,55,0,0,1-1.81,5.87,15.37,15.37,0,0,0-1.63,5.22,5.56,5.56,0,0,0,.3,2.35A4.48,4.48,0,0,0,79.48,371a3,3,0,0,0,1.89.77,3.13,3.13,0,0,0,1.94-.69,3.43,3.43,0,0,0,1.36-3.62l1.42.08a10.48,10.48,0,0,0-.59,6.9,8.88,8.88,0,0,0,1.3,2.93A4.05,4.05,0,0,0,88.92,379c1.6.48,3.12-.72,4.07-2.23a10.1,10.1,0,0,0,1.11-2.41,22.53,22.53,0,0,0,.61-2.62,28.91,28.91,0,0,0,.4-5A23,23,0,0,0,94.73,363Z" transform="matrix(-1, 0, 0, 1, 380, 0)" /><path class="cls-2" d="M296.79,387.16c.16.06.49.66.48,1.64a5.56,5.56,0,0,1-1.28,3.34,6.52,6.52,0,0,1-3.56,2.28,7,7,0,0,1-3.59-.17,8.13,8.13,0,0,1-5.61-7.23,9.69,9.69,0,0,1,1-4.9l.28-.54,0-.09a.45.45,0,0,1,0-.08.26.26,0,0,0,0-.07l-.09,0-.1,0h0l-.29-.05a7.29,7.29,0,0,1-4.4-2.38,8,8,0,0,1-1.7-4.39,21.44,21.44,0,0,1,0-3.85,10.1,10.1,0,0,1,3-6.82,6.63,6.63,0,0,1,3.1-1.54,4.68,4.68,0,0,1,3.06.43,5.4,5.4,0,0,0-4.31,3.09,19.34,19.34,0,0,0-1,3.86,16.56,16.56,0,0,0-.58,4.3,4.55,4.55,0,0,0,1.14,3.36,4.1,4.1,0,0,0,1.49.91,5.44,5.44,0,0,0,.9.25,9.78,9.78,0,0,0,1.46.13c1,0,2.09-.06,3.1-.12l1.48-.12c.68-.11.45.08.63.15-.82.6-1.71,1.27-2.47,1.9-.42.32-.72.6-1.07.9s-.52.58-.75.86a7.59,7.59,0,0,0-.8,1.39,9.72,9.72,0,0,0-.43,1.25,6.19,6.19,0,0,0,.61,4.67,6.28,6.28,0,0,0,3.19,2.74,4.6,4.6,0,0,0,3.61-.13,6.75,6.75,0,0,0,2.7-2.32,5.39,5.39,0,0,0,.65-1.62A6.06,6.06,0,0,0,296.79,387.16Z" transform="matrix(-1, 0, 0, 1, 380, 0)" /><path class="cls-1 color-hair" d="M248.93,372.28c-5.33,2.8-8,9-8.88,15a25.86,25.86,0,0,0,.95,13.1c1.58,4.14,4.84,7.78,9.07,9.08s9.37-.13,11.75-3.86c-2.09.26-3.31,2.76-2.9,4.82s2,3.7,3.62,5a10,10,0,0,0,3.83,2.12c3.12.76,6.47-1.18,8.05-4a13.72,13.72,0,0,0,1-9.39,8.18,8.18,0,0,0,9.52-4.5,10.7,10.7,0,0,0-.75-8.86,31.7,31.7,0,0,0-5.63-7.2" transform="matrix(-1, 0, 0, 1, 380, 0)" /><path d="M278.61,383.59a13.14,13.14,0,0,1,2.66,2.34,19.39,19.39,0,0,1,4.17,6.15,12.24,12.24,0,0,1,.88,4.36,8.56,8.56,0,0,1-3.87,7.42,10,10,0,0,1-3.1,1.4c-.31.09-.63.13-1,.19l-.79.08a2.45,2.45,0,0,1-.77,0s0,0,0,.07l0,.12.06.23.1.43,0,.1v.18l.05.57c0,.39,0,.78,0,1.18a13.35,13.35,0,0,1-.89,4.8,9.68,9.68,0,0,1-8.11,6.19,7.49,7.49,0,0,1-2.86-.36,10.54,10.54,0,0,1-2.43-1.18,21.86,21.86,0,0,1-2-1.48,15.43,15.43,0,0,1-1.82-1.8,7.81,7.81,0,0,1-2-5.32,6.42,6.42,0,0,1,.86-3,5.37,5.37,0,0,1,2.45-2.27,5.31,5.31,0,0,1,1.29-.36l4.17-.62-2.29,3.59a11.11,11.11,0,0,1-3.58,3.48,13.21,13.21,0,0,1-4.54,1.65,13.42,13.42,0,0,1-4.77-.12,13.79,13.79,0,0,1-4.33-1.78,16.84,16.84,0,0,1-5.94-6.49,20.89,20.89,0,0,1-2.25-7.95,30.39,30.39,0,0,1,.36-7.62,30.06,30.06,0,0,1,2-6.84,20.18,20.18,0,0,1,3.48-5.62,14.49,14.49,0,0,1,4.81-3.56,17.51,17.51,0,0,0-3.68,4.57,23.41,23.41,0,0,0-2.27,6,54.21,54.21,0,0,0-1.11,10.33,18.87,18.87,0,0,0,1.27,8.34,13.74,13.74,0,0,0,5,6.21,10,10,0,0,0,7.3,1.59,8.8,8.8,0,0,0,6-3.69l.75,1.19c-1.25.13-2.21,1.55-2.3,2.93a5.44,5.44,0,0,0,1.63,3.86,15.88,15.88,0,0,0,3.48,2.83,5.57,5.57,0,0,0,3.86.8,7,7,0,0,0,3.47-1.77,7.61,7.61,0,0,0,2.07-3.2,11.41,11.41,0,0,0,.63-3.76c0-.32,0-.63,0-1l0-.51-.09-.77c-.08-.53-.16-1.05-.26-1.58l-.15-.79-.07-.39,0-.19a.5.5,0,0,1,0-.13,22.28,22.28,0,0,0,3.08.59,2.26,2.26,0,0,0,.62,0l.39,0a6.68,6.68,0,0,0,.78-.13,7.52,7.52,0,0,0,2.81-1.29,6.77,6.77,0,0,0,2.78-5,11.85,11.85,0,0,0-.38-3.93,16.53,16.53,0,0,0-1.8-4.12A57.5,57.5,0,0,0,278.61,383.59Z" transform="matrix(-1, 0, 0, 1, 380, 0)" /><g class="cls-3" transform="matrix(-1, 0, 0, 1, 380, 0)"><path class="cls-4" d="M55.59,397.36c.07.13,0,.74-.75,1.25a3.6,3.6,0,0,1-3,.38,5.08,5.08,0,0,1-2.92-2.08,6,6,0,0,1-.82-3A9,9,0,0,1,49.51,389c.23-.37.47-.73.73-1.08l.39-.52.2-.24.1-.12s0,0,0,0,.1-.26,0-.35a.21.21,0,0,0-.17-.06h-.1l-.1,0-.4-.11a4.87,4.87,0,0,1-1.89-1A6.08,6.08,0,0,1,47.06,384a11.26,11.26,0,0,1-1.29-3.53,17,17,0,0,1-.29-3.47,16.43,16.43,0,0,1,1.45-6.37,14.49,14.49,0,0,1,7.4-7.5c-.63,1.4-1.46,3-2.06,4.53a21.22,21.22,0,0,1-1.51,3.42,12.34,12.34,0,0,0-2.19,8.72A6.32,6.32,0,0,0,50,383.46a3.1,3.1,0,0,0,1.68.72,2.79,2.79,0,0,1,2.16,1.5,2.53,2.53,0,0,1-.47,2.34,4.71,4.71,0,0,1-.4.51l-.34.41c-.19.22-.36.43-.53.65a11.23,11.23,0,0,0-1.54,2.7,5.42,5.42,0,0,0-.38,2.57,3.33,3.33,0,0,0,.1.58,2,2,0,0,0,.17.47,3,3,0,0,0,.63.86,4.7,4.7,0,0,0,2.43,1.3,2.53,2.53,0,0,0,1.33-.18A3.15,3.15,0,0,0,55.59,397.36Z" /></g><g class="cls-3" transform="matrix(-1, 0, 0, 1, 380, 0)"><path class="cls-4" d="M33.64,361c0,.15-.23.52-.85.65a2.81,2.81,0,0,1-2.15-.51A3.74,3.74,0,0,1,29.1,359a7.11,7.11,0,0,1-.22-2.11,10.87,10.87,0,0,1,.8-3.65l.27-.81.13-.38.06-.19c0-.06,0-.05,0-.07a.42.42,0,0,0-.07-.23s0,0,0,0-.07,0-.1,0l-.09,0a2,2,0,0,1-.34-.11,3.76,3.76,0,0,1-.46-.2,4.81,4.81,0,0,1-2.33-2.62,6.24,6.24,0,0,1-.29-3,7.7,7.7,0,0,1,2.48-4.57,7.92,7.92,0,0,1,4-1.94,6.29,6.29,0,0,1,3.61.43,15.09,15.09,0,0,0-2.86,2.17A8.79,8.79,0,0,1,32,343.25a4.22,4.22,0,0,0-2.59,3,2.89,2.89,0,0,0,.15,1.81,1.86,1.86,0,0,0,1.26,1,4,4,0,0,0,1.23.36,1.84,1.84,0,0,0,.34,0c.1,0,.2-.11.24.06s.25.43.39.65a7.27,7.27,0,0,1-.26,1.82c-.08.29-.2.64-.28.88l-.24.65c-.33.84-.66,1.59-.9,2.28a5.11,5.11,0,0,0-.25,3.42,3.49,3.49,0,0,0,1.06,1.43A1.85,1.85,0,0,0,33.64,361Z" /></g><g class="cls-3" transform="matrix(-1, 0, 0, 1, 380, 0)"><path class="cls-4" d="M299.76,387.09c-.08.32-1.56.8-3.36.4a4.28,4.28,0,0,1-2.51-1.52,3.53,3.53,0,0,1-.62-1.32,4.13,4.13,0,0,1-.15-1.21,5.45,5.45,0,0,1,1.14-2.95,26.66,26.66,0,0,1,1.77-2.13c.29-.31.56-.63.8-.93s.22-.3.33-.45.07-.1.07-.11v0c0-.1,0-.18-.08-.18l-.1,0,0,0-.58-.15c-.42-.12-.84-.24-1.25-.38a24,24,0,0,1-2.41-.93,22.5,22.5,0,0,1-2.25-1.13,18.82,18.82,0,0,1-2.11-1.36c-1.36-1-2.8-2.7-2.61-4.84a3.87,3.87,0,0,1,1.13-2.34,2.78,2.78,0,0,1,1.07-.66,2.44,2.44,0,0,1,1.13-.08,2.15,2.15,0,0,0-1,1.68,2.34,2.34,0,0,0,.38,1.48c.46.48,1.15.86,1.44,1.27a8.6,8.6,0,0,0,2.07,1.93,19.76,19.76,0,0,0,2.48,1.53,19.23,19.23,0,0,0,2.54,1.09l.63.21c.22.07.58.18.86.25.59.16,1.19.29,1.77.42l.14.19a1.72,1.72,0,0,1,0,.31l-.06.64a6,6,0,0,1-.93,2.35c-.25.4-.44.59-.65.88-.85,1-1.72,1.81-2.41,2.61a4,4,0,0,0-1.18,2.16,2,2,0,0,0,.68,1.64,6.65,6.65,0,0,0,2,1.13A10.41,10.41,0,0,0,299.76,387.09Z" /></g><g class="cls-3" transform="matrix(-1, 0, 0, 1, 380, 0)"><path class="cls-4" d="M274.52,399.87c.23.19.14,1.27,0,2.62l-.12.84-.77-.52a11,11,0,0,1-2.3-2.19,18.89,18.89,0,0,1-1.48-2.3,10.89,10.89,0,0,1-1.43-5.42,11.24,11.24,0,0,1,.39-3l.06-.23v-.1s0-.06,0-.07a.6.6,0,0,0-.16.05h0a3.19,3.19,0,0,1-.34-.11c-.25-.1-.5-.18-.74-.3a9.81,9.81,0,0,1-1.39-.76,9.64,9.64,0,0,1-2.3-2.11,9,9,0,0,1-2-5.62,9.18,9.18,0,0,1,1.52-4.95,7.8,7.8,0,0,1,3.21-2.74,18.35,18.35,0,0,0-.83,4,21,21,0,0,1-.18,2.77,5.12,5.12,0,0,0-.15,2.77,6,6,0,0,0,1.29,2.5,6.59,6.59,0,0,0,2.2,1.68,5.8,5.8,0,0,0,.65.27,4.74,4.74,0,0,0,1,.23c.7.12,1.44.17,2.11.22.06,0-.08.18-.11.27l-.17.3-.33.61c-.2.43-.4.84-.59,1.26a4.39,4.39,0,0,0-.23.63l-.12.41c-.07.28-.1.56-.16.83A10.72,10.72,0,0,0,271,395a13.3,13.3,0,0,0,2.1,5.15c.18.29.43.58.62.91a7.72,7.72,0,0,1,.54.86l-.93.33A18.83,18.83,0,0,1,274.52,399.87Z" /></g><g class="cls-3" transform="matrix(-1, 0, 0, 1, 380, 0)"><path class="cls-4" d="M333.14,389.54c.06.13,0,.51-.53.85a2.58,2.58,0,0,1-2.09.21,7.27,7.27,0,0,1-3.38-2.48c-.55-.68-.95-1.29-1.4-1.89a7.14,7.14,0,0,0-1.29-1.43,1.32,1.32,0,0,0-.55-.27,1.19,1.19,0,0,0-.47,0,5.94,5.94,0,0,1-1.81,0,3.19,3.19,0,0,1-1.82-1.15,4.25,4.25,0,0,1-.76-1.78l0-.25,0-.15,0-.3c0-.2-.06-.4-.07-.6a10.39,10.39,0,0,1,.11-2.37,10.79,10.79,0,0,1,1.55-4.14,9.24,9.24,0,0,1,5.69-4.21c-.36,1.13-.82,2.32-1.15,3.32a5.63,5.63,0,0,1-1,2.1,7,7,0,0,0-2.35,4.84,3.54,3.54,0,0,0,0,.65c0,.21,0,.47,0,.58a1.11,1.11,0,0,0,.34.75,1.13,1.13,0,0,0,.78.17,4.68,4.68,0,0,1,1.46.06,4.57,4.57,0,0,1,2.49,1.64,12.71,12.71,0,0,1,1.39,2.07c.38.67.68,1.32,1,1.72a7.13,7.13,0,0,0,1.09,1.22,5.71,5.71,0,0,0,1.43,1A1.82,1.82,0,0,0,333.14,389.54Z" /></g></svg>