<svg xmlns="http://www.w3.org/2000/svg" id="new" viewBox="0 0 380 600"><defs transform="matrix(-1, 0, 0, 1, 380, 0)"><style>.cls-1{fill:#5b0041;}.cls-2{opacity:0.4;}.cls-3{opacity:0.5;}.cls-4{fill:#fffffe;}</style></defs><path class="cls-1 color-hair" d="M184.922,158.762c9.791,5.384,20.959,23.474,8.94,33.126,2.208,8.659-5.623,17.227-13.046,14.279-1.754,9.2-12.46,12.9-18.341,6.338-.955,13.788-15.555,25.791-25.717,15.518-2.873,4.155-9.659,8.587-12.839,2.6-.475-1.1-.349-2.542-1.463-3.105-6.9.154-11.005-9.6-5.188-14.785-3.1,4.942-14.356,8.771-14.559.027-7.249,4.785-15.4,1.546-10.712-9.132-11.152,2.4-9.854-19.336-.223-19.985" transform="matrix(-1, 0, 0, 1, 380, 0)" /><path d="M91.776,183.671a9.237,9.237,0,0,0-2.746,1.157,9.8,9.8,0,0,0-3.578,5.13,15.136,15.136,0,0,0-.379,8.471,9.445,9.445,0,0,0,.87,2.106,6.138,6.138,0,0,0,1.461,1.68,4.735,4.735,0,0,0,2.057.837l.771.047a7.161,7.161,0,0,0,.9-.069c.636-.051,1.221-.165,1.826-.259.023.035.061.058.072.1l-.089.238-.179.478-.358.957a13.277,13.277,0,0,0-.632,1.926,10.238,10.238,0,0,0-.38,2.722,4.656,4.656,0,0,0,2.01,4.142,6.245,6.245,0,0,0,4.292.526,11.5,11.5,0,0,0,1.957-.577l.456-.219c.224-.11.438-.192.663-.323.455-.247.88-.5,1.285-.754l.8-.489.41-.25.21-.128c.064-.033.1-.015.151-.024a17.562,17.562,0,0,0,.533,3.679,3.1,3.1,0,0,0,1.047,1.357,4.807,4.807,0,0,0,3.682.477,12.057,12.057,0,0,0,4.05-1.663,9.892,9.892,0,0,0,3.121-2.975l2.155,1.821a6.892,6.892,0,0,0-1.988,3.4,7.266,7.266,0,0,0,.215,3.987,7.377,7.377,0,0,0,2.235,3.318,5.692,5.692,0,0,0,1.661.976,4.74,4.74,0,0,0,.911.254,1.387,1.387,0,0,0,.467.062l.426.028a3.139,3.139,0,0,1,.533.08c.178.039.361.064.535.113a4.733,4.733,0,0,1,.47.293,3.179,3.179,0,0,1,.776.793,5.5,5.5,0,0,1,.746,1.83,8.238,8.238,0,0,0,.255.92l.451.7c.2.206.385.439.591.609a2.542,2.542,0,0,0,.646.386,2.725,2.725,0,0,0,1.521.194,7.872,7.872,0,0,0,3.59-1.655,13.105,13.105,0,0,0,1.62-1.444l.19-.2.095-.1.178-.223.732-.925c.492-.61.958-1.276,1.439-1.913.889.805,1.743,1.648,2.657,2.42l.428.329a2.7,2.7,0,0,0,.319.229l.655.415a10.271,10.271,0,0,0,2.771,1.092,9.919,9.919,0,0,0,5.738-.549,17.612,17.612,0,0,0,7.983-6.885,21.517,21.517,0,0,0,2.361-4.849c.156-.42.275-.85.394-1.28.062-.214.123-.428.166-.646l.107-.483c.055-.232.1-.469.14-.719.159-.985.237-2.07.359-3.1q.155-1.521.307-3.036l2.488,2.385,1.32,1.144.66.572.329.285c.05.042.121.108.153.13l.074.037a12.194,12.194,0,0,0,1.18.566,8.046,8.046,0,0,0,6.112-.238,9.542,9.542,0,0,0,3.933-3.161,9.665,9.665,0,0,0,1.224-2.24l.126-.3.063-.147.124-.454.379-1.436.376-1.429.024-.088c.013-.021.054.008.08.01l.178.051.354.1.708.2,1.41.405.363.109a1.6,1.6,0,0,0,.255.036l.072.009.286.036a5.028,5.028,0,0,0,.573.067l.577-.026a6.722,6.722,0,0,0,2.272-.533,9.3,9.3,0,0,0,3.79-3.045,10.983,10.983,0,0,0,1.987-4.517,7.937,7.937,0,0,0,.16-1.217,6.378,6.378,0,0,0,.02-1.22l-.016-.61-.127-.749-.212-1.221-.054-.31-.026-.154.107-.091.424-.365.844-.724c.122-.108.322-.269.378-.332l.217-.221a9.7,9.7,0,0,0,.837-.9,8.474,8.474,0,0,0,.735-.965,7.464,7.464,0,0,0,.626-1.026,11.973,11.973,0,0,0,1.366-4.546,19.651,19.651,0,0,0-1.757-9.345,31.807,31.807,0,0,0-4.872-7.84,26.679,26.679,0,0,0-6.369-5.661,25.1,25.1,0,0,1,8.886,6.406,27.976,27.976,0,0,1,6.541,11.434,17.691,17.691,0,0,1,.486,6.828,14.585,14.585,0,0,1-2.324,6.114q-.465.621-.913,1.216l-.98,1.065c-.247.266-.368.329-.307.345a.256.256,0,0,1,.013.055l.056.312a3.574,3.574,0,0,1,.064.613l.05,1.169a17.266,17.266,0,0,1-.161,2.039,14.207,14.207,0,0,1-7.133,10.132,10.218,10.218,0,0,1-6.22,1.125l-.4-.058-.09-.014.061,0-.012,0-.047-.01-.187-.074-.2-.076c-.063-.017-.053.1-.084.141l-.066.19-.034.1-.008.025,0,.013.031-.076-.009.022-.074.172-.59,1.366a12.933,12.933,0,0,1-8.949,6.871,11.044,11.044,0,0,1-5.635-.421c-.222-.079-.455-.138-.665-.235l-.615-.314-.613-.312a.819.819,0,0,1-.195-.118l-.13-.1a6.206,6.206,0,0,1-.995-.888c-.057-.085-.03.057-.046.083l-.02.157-.039.317-.114.644-.188.807c-.1.42-.236.827-.352,1.239a24.565,24.565,0,0,1-2.015,4.668,22.843,22.843,0,0,1-6.535,7.431,14.54,14.54,0,0,1-9.209,2.953,11.92,11.92,0,0,1-4.671-1.264,12.728,12.728,0,0,1-2.028-1.257l-.364-.283a2.92,2.92,0,0,1-.264-.219l-.5-.459c-.167.216-.31.44-.5.646l-.268.313-.479.491a16.391,16.391,0,0,1-2.086,1.781,12.179,12.179,0,0,1-2.414,1.347,9.536,9.536,0,0,1-1.341.445,6.985,6.985,0,0,1-1.443.169,5.173,5.173,0,0,1-2.858-.771,5.285,5.285,0,0,1-1.127-.945c-.16-.179-.337-.351-.48-.539l-.38-.588a3.889,3.889,0,0,1-.38-.659,5.674,5.674,0,0,1-.229-.709c-.108-.417-.21-.881-.288-1.1a1.168,1.168,0,0,0-.388-.581.817.817,0,0,0-.15-.09l-.177-.01-.443-.022a8.211,8.211,0,0,1-4.85-2.309,9.991,9.991,0,0,1-2.652-4.507,9.638,9.638,0,0,1-.021-5.168,9.451,9.451,0,0,1,2.7-4.353l5.786-5.378-4.262,6.665a12.179,12.179,0,0,1-3.938,3.715,14.227,14.227,0,0,1-4.892,1.913,9,9,0,0,1-2.724.088,5.6,5.6,0,0,1-2.7-1.059,5.319,5.319,0,0,1-1.742-2.347l-.07-.182-.035-.126a1.855,1.855,0,0,1-.059-.253,3.549,3.549,0,0,1-.057-.512c.013-.082-.037-.045-.084-.013l-.133.078-.264.157a5.231,5.231,0,0,1-.583.284,9.793,9.793,0,0,1-1.395.507,8.569,8.569,0,0,1-1.454.343,9.265,9.265,0,0,1-3.03.049,10.146,10.146,0,0,1-1.516-.392,7.875,7.875,0,0,1-1.4-.786A5.085,5.085,0,0,1,90.9,213.6a5.906,5.906,0,0,1-.463-.656l-.329-.719a7.384,7.384,0,0,1-.537-2.941,12.5,12.5,0,0,1,.367-2.777l.164-.6.085-.286.239-.582.077-.193c.005-.051.129-.2-.022-.148a3.538,3.538,0,0,1-.925.042l-.341-.049a2.048,2.048,0,0,1-.431-.094,5.35,5.35,0,0,1-1.115-.4,6.73,6.73,0,0,1-3.244-3.442,14.2,14.2,0,0,1-.507-8.926,12.333,12.333,0,0,1,3.733-6.541,7.45,7.45,0,0,1,2.4-1.34,9.748,9.748,0,0,1,.993-.208Z" transform="matrix(-1, 0, 0, 1, 380, 0)" /><path class="cls-1 color-hair" d="M153.62,214.079c8.761,12.29-5.313,31.037-16.5,22.02,20.041,17.133,32.245-14.032,23.121-31.149" transform="matrix(-1, 0, 0, 1, 380, 0)" /><path d="M160.271,204.936c.418.18,2.385,3.445,3.17,7.719a32.552,32.552,0,0,1,.639,6.526,45.018,45.018,0,0,1-.347,5.385,28.678,28.678,0,0,1-1.836,7.342,20.446,20.446,0,0,1-4.34,6.845l-.76.743c-.266.236-.558.45-.838.675a14.066,14.066,0,0,1-1.814,1.2,12.468,12.468,0,0,1-4.181,1.389,14.687,14.687,0,0,1-8.313-1.353,27.788,27.788,0,0,1-5.825-3.791l2.549-3.071a7.772,7.772,0,0,0,8.172,1.294,13.782,13.782,0,0,0,6.405-6.077,16.589,16.589,0,0,0,2.161-8.139,15.437,15.437,0,0,0-.55-3.85,16.216,16.216,0,0,0-1.407-3.364,10.97,10.97,0,0,1,2.989,3.44,13.5,13.5,0,0,1,1.622,5.291,15.507,15.507,0,0,1-.42,5.335,12.4,12.4,0,0,1-1.538,3.629,19.492,19.492,0,0,1-3.981,4.374,14.025,14.025,0,0,1-5.071,2.668,10.837,10.837,0,0,1-5.556.094,12.037,12.037,0,0,1-4.625-2.463l1.113-1.34A24.605,24.605,0,0,0,142.9,239a12.554,12.554,0,0,0,5.692,1.281,9.945,9.945,0,0,0,5.183-1.673,14.233,14.233,0,0,0,3.754-3.751,25.635,25.635,0,0,0,3.858-9.272,37.933,37.933,0,0,0,.855-9.141,44.6,44.6,0,0,0-.651-6.713c-.2-1.133-.492-2.165-.718-3.014Z" transform="matrix(-1, 0, 0, 1, 380, 0)" /><path class="cls-1 color-hair" d="M298.393,224.048c-12.6-5.742-28.961-1.427-37.09,9.781-2.115,2.58-3.585,7.171-.37,9.441,3.4,1.047,6.959,2.775,6.27,7.084.379,5.912-7.088,6.619-7.334,12.1.091,3.27,3.854,5.123,5.226,8.093,3.176,8.424-10.762,14.385-17.751,3.63,3.959,7.981,14.131,2.38,9.688-4.555-1.089-1.7-4.807-6.1-4.761-8.376.126-6.337,8.787-9.721,4.415-11.7-10.093-4.579-14.149-11.162-12.982-19.56,1.635-11.774-14.97-19.237-18.822-19.521" transform="matrix(-1, 0, 0, 1, 380, 0)" /><path d="M224.884,210.427c.446-.163,2.76.2,5.817,1.584a29.31,29.31,0,0,1,10.159,7.333,15.093,15.093,0,0,1,3.4,6.616,11.78,11.78,0,0,1,.2,3.8q-.076.872-.152,1.729c-.014.561-.025,1.118-.012,1.666a14.527,14.527,0,0,0,1.483,5.883,15.282,15.282,0,0,0,2.917,3.971,23.106,23.106,0,0,0,4.882,3.588c.918.5,1.792.969,2.867,1.442l.775.356c.1.038.331.172.516.273a3.146,3.146,0,0,1,.535.371,2.42,2.42,0,0,1,.925,2.255,3.592,3.592,0,0,1-.434,1.236,5.537,5.537,0,0,1-.35.577c-.135.212-.195.274-.3.419-.367.488-.732.918-1.085,1.343a25.782,25.782,0,0,0-1.912,2.5,8.6,8.6,0,0,0-1.164,2.583,6.464,6.464,0,0,0-.16,1.313,3.393,3.393,0,0,0,.3,1,16.83,16.83,0,0,0,1.551,2.631c.614.888,1.275,1.762,1.959,2.678a11.671,11.671,0,0,1,1.038,1.546,7.7,7.7,0,0,1,.84,1.907,6.651,6.651,0,0,1-2.959,7.782,7.161,7.161,0,0,1-4.265,1.02,5.916,5.916,0,0,1-1.1-.189l-.545-.128c-.174-.06-.34-.142-.51-.215-.335-.154-.68-.3-1-.477l-.874-.638a3.908,3.908,0,0,1-.775-.717l-.7-.778c-.392-.549-.718-1.127-1.065-1.7l3.183-1.815a11.272,11.272,0,0,0,4.323,3.959,8.563,8.563,0,0,0,5.3.789,6.519,6.519,0,0,0,4.471-2.8,4.232,4.232,0,0,0,.593-2.285,4.975,4.975,0,0,0-.221-1.227l-.088-.281a1.944,1.944,0,0,0-.09-.175,6.409,6.409,0,0,0-.337-.557,25.738,25.738,0,0,0-2.124-2.445,11.374,11.374,0,0,1-2.377-3.474c-1.389-3.577.824-6.685,2.667-8.312,1.877-1.686,3.563-2.919,4.027-4.3l.1-.254.047-.272a1.931,1.931,0,0,0,.074-.556l.007-.294.006-.21c0-.106,0-.2.012-.315l.021-.2a5.212,5.212,0,0,0,.052-.592,2.811,2.811,0,0,0-.6-1.911,5.633,5.633,0,0,0-1.975-1.487,13.49,13.49,0,0,0-1.336-.577l-.716-.253a5.359,5.359,0,0,1-.728-.264l-.605-.5a6.11,6.11,0,0,1-1.441-1.825,6.4,6.4,0,0,1-.631-2.177,8.748,8.748,0,0,1,.552-3.968,12.112,12.112,0,0,1,1.774-3.239c.718-.9,1.4-1.715,2.11-2.551a31,31,0,0,1,4.91-4.264,32.969,32.969,0,0,1,11.143-5.006,30.786,30.786,0,0,1,20.823,2.175,34.772,34.772,0,0,0-9.8-1.342,33.677,33.677,0,0,0-19.909,6.823,32.46,32.46,0,0,0-5.341,5.107,21.987,21.987,0,0,0-1.466,1.775,8.511,8.511,0,0,0-.966,1.851,4.141,4.141,0,0,0-.035,3.431,1.248,1.248,0,0,0,.214.319,1.484,1.484,0,0,0,.269.294c.127.128-.008.068.558.273a17.159,17.159,0,0,1,2.458,1.111,9.308,9.308,0,0,1,2.291,1.754,6.136,6.136,0,0,1,1.482,2.693,4.3,4.3,0,0,1,.139.755,3.794,3.794,0,0,1,.047.748,5.025,5.025,0,0,1-.029.73l-.044.355-.022.177c-.008.052-.019.157-.012.07,0,.007,0-.065,0,.006l0,.181-.013.359a3.86,3.86,0,0,1-.06.718,6.446,6.446,0,0,1-.377,1.408,7.656,7.656,0,0,1-1.47,2.372,18.259,18.259,0,0,1-1.839,1.73,15.521,15.521,0,0,0-3.105,3.046,4.515,4.515,0,0,0-.672,1.763l-.067.433.032.41.1.438.153.435a13.577,13.577,0,0,0,2.552,3.359,17.6,17.6,0,0,1,1.49,1.841,9.068,9.068,0,0,1,.624,1.083,7.224,7.224,0,0,1-.2,6.095,8.189,8.189,0,0,1-3.378,3.343,10.923,10.923,0,0,1-8.883.6,13.61,13.61,0,0,1-6.639-5.48l1.345-.766a6.414,6.414,0,0,0,3.141,3.114,1.413,1.413,0,0,0,.508.166l.522.118a9.406,9.406,0,0,0,1.062.035,4.9,4.9,0,0,0,1.981-.689,4.146,4.146,0,0,0,2.022-3.359c-.04-.339-.033-.677-.09-1.012l-.3-.995a11.81,11.81,0,0,0-1.125-1.873c-.931-1.266-1.906-2.542-2.771-3.9a15.348,15.348,0,0,1-1.185-2.178,6.481,6.481,0,0,1-.415-1.292,4.911,4.911,0,0,1-.075-.767l.037-.652a10.132,10.132,0,0,1,1.814-4.642c.889-1.329,1.953-2.465,2.841-3.554.5-.649.615-.781.7-1.158.066-.38-.291-.612-.6-.746-.631-.3-1.247-.584-1.881-.905-.644-.362-1.3-.685-1.927-1.077a22.868,22.868,0,0,1-6.58-5.712,16.789,16.789,0,0,1-2.143-3.767,16.982,16.982,0,0,1-1.027-4.128,18.576,18.576,0,0,1,.009-4.124q.1-.935.2-1.86a12.167,12.167,0,0,0-.04-1.73,13.412,13.412,0,0,0-2.535-6.3,25.531,25.531,0,0,0-5.513-5.469C230.572,212.3,226.351,210.605,224.884,210.427Z" transform="matrix(-1, 0, 0, 1, 380, 0)" /><path class="cls-1 color-hair" d="M332.7,229.338c2.916,12.078-23.346,9.591-25.557.155-3.762,10.081-18.738,3.35-20.611-4.744-6,4.276-16.83,5.9-20.923-1.6-1.843,12.788-18.776,17.936-22.076,5.45-2.2,9.576-13.526,10.354-20.882,6.532-.929,2.989-4.258,7.449-10.969,4.893-7.27-2.77-7.153-7.955-8.581-10-1.51-.846-4.429.245-6.086.445-15.847,2.68-20.534-9.994-12.651-18.39-14.021-1.588-17.639-16.6-5.251-21.773-10.857-8.906,16.5-24.669,29.953-26.485,10.119-1.792,25-.686,31.214,6.315,7.71-9.157,27.81-6.407,30.714,4.2" transform="matrix(-1, 0, 0, 1, 380, 0)" /><path d="M270.963,174.333a15.338,15.338,0,0,0-1.512-2.785,13.791,13.791,0,0,0-5.142-4.2,22.41,22.41,0,0,0-9.03-2.209,20.691,20.691,0,0,0-10.631,2.274,14.73,14.73,0,0,0-2.364,1.609l-.621.577q-.365.359-.7.724c-.228.235-.455.5-.685.714l-.719-.7a15.446,15.446,0,0,0-2.552-2.114l-1.262-.757c-.431-.235-.887-.432-1.328-.65a28.336,28.336,0,0,0-5.606-1.851,40.381,40.381,0,0,0-5.731-.885,52.13,52.13,0,0,0-10.689.157c-1.623.171-3.186.485-4.6.731a38.691,38.691,0,0,0-3.862,1.039,63.837,63.837,0,0,0-8.98,3.77,62.424,62.424,0,0,0-8.487,5.152,37.144,37.144,0,0,0-3.835,3.152,20.855,20.855,0,0,0-3.154,3.658,7.173,7.173,0,0,0-1.369,4.007,3.8,3.8,0,0,0,.175.921,4.553,4.553,0,0,0,.151.444l.234.422a1.849,1.849,0,0,0,.129.228l.405.431.815.864c.565.568,1.182,1.112,1.774,1.673-1.037.515-2.178,1.006-3.25,1.58-.249.13-.6.3-.765.4l-.393.262a6.583,6.583,0,0,0-.741.54,9.574,9.574,0,0,0-2.3,2.575,8.076,8.076,0,0,0-1.1,3.159,8.307,8.307,0,0,0,.325,3.336,10.172,10.172,0,0,0,4.18,5.4,13.187,13.187,0,0,0,3.226,1.567c.281.112.581.177.872.264a12.807,12.807,0,0,0,1.9.382c1.328.224,2.63.4,3.941.59l-3.092,3.794a3.077,3.077,0,0,0-.343.5l-.243.4-.285.466a5.771,5.771,0,0,0-.457.976,9.238,9.238,0,0,0-.82,4.071l.067,1.013.247.968a3.6,3.6,0,0,0,.35.923,3.774,3.774,0,0,0,.451.872l.558.81c.22.245.472.463.7.7.118.115.228.239.351.35l.42.28.83.568a14.9,14.9,0,0,0,8.356,1.333l2.229-.274c.65-.114,1.445-.318,2.283-.486.428-.082.86-.165,1.341-.215.235-.028.485-.045.742-.055l.4,0,.519.031a4.853,4.853,0,0,1,2.121.752,7.073,7.073,0,0,1,.614.95,9.412,9.412,0,0,1,.426.87c.464,1.15.765,2.075,1.194,2.915a9.126,9.126,0,0,0,1.518,2.218,10.774,10.774,0,0,0,2.128,1.669,14.57,14.57,0,0,0,2.592,1.146,6.339,6.339,0,0,0,4.849-.051,5.367,5.367,0,0,0,1.819-1.5c.118-.171.258-.323.364-.506a4.186,4.186,0,0,0,.426-.794l.306-.666.29-.814.565-1.608,2.941,1.366.37.172.349.129.339.123.676.249,1.393.384,1.416.27a15.408,15.408,0,0,0,5.617-.151,9.556,9.556,0,0,0,4.6-2.395,7.412,7.412,0,0,0,.831-.95l.527-.764c.13-.246.241-.5.362-.755l.312-.939c.4-1.242.853-2.57,1.206-3.734l1.072-3.507q.8,2.569,1.592,5.13l.838,2.476.1.3.113.193.226.384.451.77a.978.978,0,0,0,.164.232l.128.151.254.305c.193.175.373.364.57.532a6.175,6.175,0,0,0,1.305.817,8.237,8.237,0,0,0,6.384-.032,12.847,12.847,0,0,0,5.5-4.092,12.621,12.621,0,0,0,1.746-2.97l.089-.2c.1-.263.105-.347.162-.529l.269-.952c.088-.321.184-.623.264-.958l.2-1.074.77-4.063q.911,1.407,1.816,2.811c.665.947,1.323,1.977,1.984,2.843l.25.281.289.232.233.193a3.176,3.176,0,0,0,.478.372,9.793,9.793,0,0,0,6.039,1.567,17.823,17.823,0,0,0,5.215-.911c.416-.155.838-.292,1.248-.457l1.206-.538a21.073,21.073,0,0,0,1.9-1.106c.732-.465,1.483-.974,2.188-1.393l.466,1.669a11.8,11.8,0,0,0,.508,1.579l.275.656a3.016,3.016,0,0,0,.2.387,6.13,6.13,0,0,0,.4.652A12.579,12.579,0,0,0,291.4,229.5a15.123,15.123,0,0,0,5.378,3.116,8.757,8.757,0,0,0,5.662.129,5.457,5.457,0,0,0,2.2-1.509,5.726,5.726,0,0,0,.774-1.236,15.6,15.6,0,0,0,.7-1.411l.641-1.419.295-.67.146-.334a1.145,1.145,0,0,1,.135-.2c.232.74.438,1.434.743,2.3.143.4.277.851.424,1.2l.446,1.008.221.5a3.171,3.171,0,0,0,.289.393l.333.4c.22.244.478.464.712.7a14.4,14.4,0,0,0,3.507,2.164,23.883,23.883,0,0,0,8,1.912,14.7,14.7,0,0,0,7.552-1.253,5.017,5.017,0,0,0,2.374-2.428,5.832,5.832,0,0,0,.209-3.393,6.179,6.179,0,0,1,.251,3.207,5.247,5.247,0,0,1-2.009,3c-2.114,1.6-5.045,2.211-7.978,2.325a24.436,24.436,0,0,1-9.071-1.411,16.378,16.378,0,0,1-4.324-2.306c-.324-.277-.658-.545-.969-.848l-.435-.461a1.024,1.024,0,0,1-.133-.14,1.836,1.836,0,0,1-.379-.6c-.015-.08-.037.017-.057.071l-.058.169c-.036.111-.088.208-.128.3s-.1.177-.137.259c-.028.047-.038.061-.08.121l-.372.43a8.619,8.619,0,0,1-3.884,2.275,13.119,13.119,0,0,1-8.1-.7,18.089,18.089,0,0,1-6.166-4,14.8,14.8,0,0,1-2.169-2.738c-.386-.638-.367-.639-.417-.725l-.008,0a.017.017,0,0,0,0,.007l-.378.206c-.279.156-.569.267-.844.4a14.346,14.346,0,0,1-1.608.648,12.618,12.618,0,0,1-1.485.466,18.761,18.761,0,0,1-9.462.29,12.236,12.236,0,0,1-4.385-2.075c-.872-.717-.62-.547-.769-.714a2.868,2.868,0,0,1-.229-.38c-.048.025-.065.207-.12.319a2.071,2.071,0,0,1-.083.2l-.239.528a16.53,16.53,0,0,1-2.38,3.806,15.936,15.936,0,0,1-7.232,4.961,11.322,11.322,0,0,1-8.747-.481,9.859,9.859,0,0,1-1.85-1.309,8.491,8.491,0,0,1-.785-.8,8.157,8.157,0,0,1-.591-.747,4.483,4.483,0,0,1-.467-.849,6.6,6.6,0,0,1-.284-.849l-.014-.039-.013.041-.027.081-.054.165-.109.334a7.214,7.214,0,0,1-.313.655,1.986,1.986,0,0,1-.195.307l-.479.685c-.357.475-.806.878-1.207,1.314a12.632,12.632,0,0,1-6.184,3.018,18.591,18.591,0,0,1-6.638.053c-.536-.111-1.077-.2-1.606-.332-.523-.152-1.051-.286-1.567-.455l-.764-.284-.379-.142c-.028-.014-.12-.042-.178-.073a3.989,3.989,0,0,0-.762-.326,5.348,5.348,0,0,1-.636,1.283,8.893,8.893,0,0,1-1.507,1.842,8.251,8.251,0,0,1-1.97,1.374,7.877,7.877,0,0,1-2.3.685,10.138,10.138,0,0,1-4.571-.494,15.179,15.179,0,0,1-4-1.952,11.657,11.657,0,0,1-3.142-3.185,18.942,18.942,0,0,1-1.813-3.923l-.181-.466c-.063-.158-.123-.31-.162-.385a2.224,2.224,0,0,0-.146-.283.335.335,0,0,0-.217-.211,1.791,1.791,0,0,0-.606-.13,5.377,5.377,0,0,0-.9.028c-1.259.122-2.559.552-4,.731a22.469,22.469,0,0,1-8.306-.147,11.53,11.53,0,0,1-6.979-4.481,10.444,10.444,0,0,1-1.626-8.025c.186-.66.309-1.343.556-1.978a20.221,20.221,0,0,1,.839-1.852l.488-.8a4.306,4.306,0,0,1,.308-.473c.233-.29.485-.587.7-.866-.416-.057-.829-.11-1.23-.2-.1-.022-.2-.038-.3-.066l-.355-.1a10.709,10.709,0,0,1-1.044-.33,15.9,15.9,0,0,1-3.9-1.974,12.666,12.666,0,0,1-5.055-6.966,10.456,10.456,0,0,1,1.277-8.413,12.149,12.149,0,0,1,2.889-3.114,9.71,9.71,0,0,1,.84-.6l.415-.275.223-.127c.268-.182.654-.3.849-.461l-.467-.437-.209-.263-.1-.131a.893.893,0,0,1-.13-.2,6.349,6.349,0,0,1-.931-2.669,8.483,8.483,0,0,1,1.29-5.174,19.975,19.975,0,0,1,3.094-3.9,34.293,34.293,0,0,1,3.622-3.169,65.619,65.619,0,0,1,16.129-8.854,43.981,43.981,0,0,1,8.616-2.408,53.85,53.85,0,0,1,8.646-.822,43.969,43.969,0,0,1,16.541,2.661,25.238,25.238,0,0,1,2.689,1.242,19.24,19.24,0,0,1,2.644,1.775l.637.5.294.307.305.317c.053.1.1.027.151-.029l.152-.155a3.578,3.578,0,0,1,.321-.3l.521-.448a15.774,15.774,0,0,1,1.449-1.019,21.4,21.4,0,0,1,13.472-2.667,20.763,20.763,0,0,1,10.923,4.349,12.175,12.175,0,0,1,2.764,3.293A10.218,10.218,0,0,1,270.963,174.333Z" transform="matrix(-1, 0, 0, 1, 380, 0)" /><path class="cls-1 color-hair" d="M333.8,304.483c-26.768-10.446-43.593.169-52.34,9.032-6.929,7.021-7.611,22.562,4.845,26.453-7.389,2.325-14.887,6.238-18.422,13.131s-1.01,17.131,6.428,19.3c-3.776,1.873-11.689,1.083-11.581,6.951,4.161,8.968,16.973,7.569,25.631,6.841" transform="matrix(-1, 0, 0, 1, 380, 0)" /><path d="M288.363,386.217a27.506,27.506,0,0,1-5.01.759c-1.4.124-3.027.252-4.815.259a31.637,31.637,0,0,1-5.739-.4,18.05,18.05,0,0,1-5.945-1.98,11.57,11.57,0,0,1-4.439-4.48q-.233-.406-.464-.808a8.581,8.581,0,0,1,.028-.981l.026-.4.1-.4a4.467,4.467,0,0,1,.238-.784,5.274,5.274,0,0,1,1.988-2.344,14.908,14.908,0,0,1,4.386-1.75l.745-.195.374-.111c.243-.073.475-.141.693-.22a4.1,4.1,0,0,0,.614-.259l.14-.078c.044-.013.015-.024-.028-.035l-.1-.034-.4-.132a4.762,4.762,0,0,1-.975-.518l-.052-.033c-.057-.048.071.078-.021-.01l-.281-.262-.561-.529c-.372-.355-.668-.775-1-1.166a15.085,15.085,0,0,1-2.583-5.533,16.919,16.919,0,0,1,1.51-12.137,24.448,24.448,0,0,1,8.481-8.715,39.191,39.191,0,0,1,5.24-2.792l.672-.293a.6.6,0,0,0,.1-.047l.075-.041c.036-.025.1-.043.085-.06l-.131-.038-.175-.082a16.013,16.013,0,0,1-4.546-5.037,18.345,18.345,0,0,1-1.956-6.418A20.921,20.921,0,0,1,277.4,315.61a21.618,21.618,0,0,1,4.079-4.831c.717-.689,1.494-1.309,2.235-1.96.767-.622,1.56-1.208,2.334-1.807a43.056,43.056,0,0,1,30.96-7.909,60.685,60.685,0,0,1,17,4.85c-2.377-.375-5.186-1.07-8.269-1.453-1.518-.289-3.12-.383-4.713-.538-1.586-.214-3.21-.144-4.782-.221a58.488,58.488,0,0,0-15,1.953,40.243,40.243,0,0,0-12.834,5.688,44.8,44.8,0,0,0-5.394,4.282,12.237,12.237,0,0,0-1.183,1.168,9.479,9.479,0,0,0-1.031,1.229,17.091,17.091,0,0,0-1.66,2.758,17.9,17.9,0,0,0-1.63,6.159,15.177,15.177,0,0,0,.655,6.159,12.938,12.938,0,0,0,3.135,5.073l1.14.95a2.3,2.3,0,0,0,.313.241l.509.263,1.015.525a35.432,35.432,0,0,0,4.175,1.8l-.027.09-.262.085-.523.171-1.042.343-2.094.712-2.01.76-1.45.622a34.522,34.522,0,0,0-5.136,2.839,20.841,20.841,0,0,0-7.351,8.154,14.544,14.544,0,0,0-.724,10.06,12.552,12.552,0,0,0,2.156,4.329,6.468,6.468,0,0,0,.777.878l.417.4.1.1a1.3,1.3,0,0,0,.25.182l.481.277.963.554.481.277c.185.09.427.176.637.265.852.34,1.789.733,2.574,1.028l-.12.309-.063.153c-.016.027-.008.05-.045.079l-.234.1c-.636.283-1.227.52-1.807.748a22.882,22.882,0,0,1-3.931,1.158l-.9.2-.668.157c-.443.1-.87.219-1.285.344a8.633,8.633,0,0,0-2.229.964,3.535,3.535,0,0,0-1.32,1.506,4.145,4.145,0,0,0-.207,1,.866.866,0,0,0-.011.276l.192.345a8.075,8.075,0,0,0,.6,1.028l.722.934a10.734,10.734,0,0,0,1.76,1.546,15.957,15.957,0,0,0,5.325,2.314,34.248,34.248,0,0,0,6.552.9C283.335,386.4,287.127,386.2,288.363,386.217Z" transform="matrix(-1, 0, 0, 1, 380, 0)" /><path class="cls-1 color-hair" d="M292.178,340.921c-1.512,11.3.594,22.641,12.194,14.893-2.7,6.409-2.1,12.021,4.917,8.107.011,2.342-1.546,4.515-1.176,6.816.94,4.867,8.666,4.577,10.213.179" transform="matrix(-1, 0, 0, 1, 380, 0)" /><path d="M318.354,370.926a2.546,2.546,0,0,1-.648,1.777,5.873,5.873,0,0,1-3.375,2.064,6.554,6.554,0,0,1-4.645-.552,5.248,5.248,0,0,1-2.535-3.247,6.031,6.031,0,0,1-.14-2.221c.062-.679.273-1.539.26-1.645a3.269,3.269,0,0,0,.014-.528c-.027-.118,0-.365-.236-.141a3.876,3.876,0,0,1-.347.221l-.073.044-.161.052-.158.051-.077.026-.253.024a5.736,5.736,0,0,1-1.133.022c-.21-.032-.421-.07-.63-.115a1.916,1.916,0,0,1-.633-.22c-.212-.1-.422-.216-.625-.336a3.917,3.917,0,0,1-.527-.465,3.728,3.728,0,0,1-.767-1.076,7.49,7.49,0,0,1-.563-3.982c.031-.307.062-.613.092-.916,0-.072-.012-.051-.019-.067s-.03,0-.046.014c-.043.045-.04.047-.04.047s.019-.006-.019,0l-.539.163a8.63,8.63,0,0,1-1.136.269,7.761,7.761,0,0,1-2.513.062,6.5,6.5,0,0,1-4.357-2.635,10.443,10.443,0,0,1-1.7-3.934,22.484,22.484,0,0,1-.308-7.077,33.071,33.071,0,0,1,1.1-5.764c.6,1.768,1.075,4.219,1.558,6.417s.972,4.112,1.088,5.093c.226,2.477,1.215,4.579,3.267,4.836a5.262,5.262,0,0,0,1.605-.029,6.721,6.721,0,0,0,.84-.181,1.643,1.643,0,0,0,.231-.065l.328-.131.646-.258a51.455,51.455,0,0,0,4.843-2.719,56.158,56.158,0,0,0-2.008,5.524c-.083.392-.184.82-.248,1.176l-.094.865v.834c.043.256.051.532.115.768a2,2,0,0,0,.606,1.089,1.6,1.6,0,0,0,1.1.272l.335-.021a4.419,4.419,0,0,0,.522-.147,6.188,6.188,0,0,0,1.153-.418c.855-.4,1.7-.816,2.486-1.242l.214.168c.029.039.083.033.092.112l0,.3c0,.4-.024.766-.049,1.134a11.385,11.385,0,0,1-.349,2.3c-.093.4-.236.85-.333,1.208-.123.427-.162.592-.223.861a6.257,6.257,0,0,0-.174,1.375,3.37,3.37,0,0,0,2.83,3.218,6.871,6.871,0,0,0,3.962-.233,4.956,4.956,0,0,0,1.619-1.059,2.53,2.53,0,0,0,.487-.563C318.188,371.155,318.288,371.018,318.354,370.926Z" transform="matrix(-1, 0, 0, 1, 380, 0)" /><g class="cls-2" transform="matrix(-1, 0, 0, 1, 380, 0)"><path d="M271.169,195.873c.145-.322.772-.475,1.615-.679a7.659,7.659,0,0,0,2.676-1.006,2.416,2.416,0,0,0,1.009-2.24,4.335,4.335,0,0,0-.945-2.178,10.937,10.937,0,0,0-4.4-3.148l-.589-.182-.573-.119-.549-.058c-.05.019-.28-.035-.559-.029a2.462,2.462,0,0,0-.44.025,1.169,1.169,0,0,0-.508.15l-1.162.523-.585.264c-.195.088-.376.165-.652.315l-3.1,1.615-7.026,3.711c.983-2.069,2.718-5.1,4.449-8.3.865-1.615,1.789-3.168,2.328-4.515l.231-.916.116-.459c.029-.1.022-.106.018-.119l-.008-.045c-.026-.115,0-.255-.041-.337a1.74,1.74,0,0,0-.515-.966,7.759,7.759,0,0,0-4.179-1.712,15.282,15.282,0,0,0-5.317.145,12.558,12.558,0,0,0-4.533,1.863,5.881,5.881,0,0,1,.22-3.493,9.067,9.067,0,0,1,2.22-3.364,10.275,10.275,0,0,1,3.169-2.075,5.656,5.656,0,0,1,2.687-.467,20.406,20.406,0,0,1,6.668,2.132,12.854,12.854,0,0,1,2.778,2.035,8.286,8.286,0,0,1,1.943,2.869,7.512,7.512,0,0,1,.551,3.237l-.011.39a1.554,1.554,0,0,1-.036.219l-.073.4c-.071.245-.135.486-.219.725a11.217,11.217,0,0,1-.61,1.36l-.347.613c.2-.1.426-.231.644-.331a6.034,6.034,0,0,1,1.662-.459,5.422,5.422,0,0,1,.79-.021l.241.015a3.135,3.135,0,0,1,.392.056l.767.162a12.18,12.18,0,0,1,5.136,2.786,11.64,11.64,0,0,1,3.163,4.5,7.967,7.967,0,0,1,.548,2.836,5.772,5.772,0,0,1-.782,3.025,4.5,4.5,0,0,1-2.217,1.93,5.511,5.511,0,0,1-1.489.388,6.088,6.088,0,0,1-1.334-.016A9.015,9.015,0,0,1,271.169,195.873Z" /></g><path class="cls-1 color-hair" d="M179.632,190.838c-11.353,2.6-13.792,18.308-7.465,28.082-5.978,6.554-6.021,23.986,6.468,24.067-4.534,3.978-1.334,12.9,5.067,11.619-6.363-1.483-3.575-9.6.016-12.839-11.906-3.283-11.192-11.471-2.622-18.773-6.961-3.6-2-14.988,5.139-10.874.352.244.457,1.011.045.888" transform="matrix(-1, 0, 0, 1, 380, 0)" /><path d="M186.289,212.979c.09-.021.149-.045.121-.189a.723.723,0,0,0-.3-.484l.016.01a6.46,6.46,0,0,0-2.951-.667,4.707,4.707,0,0,0-3.549,2,6.4,6.4,0,0,0-1.165,4.713c.347,1.738.94,2.942,3.806,4.449-.574.821-1.987,1.862-2.558,2.585-.3.332-.6.651-.881.977q-.39.507-.761.991a11.881,11.881,0,0,0-1.892,3.648,9.049,9.049,0,0,0-.338,1.685,6.349,6.349,0,0,0,.143,1.638,5.228,5.228,0,0,0,1.628,2.8,8.785,8.785,0,0,0,1.367,1.093c.518.311,1.066.6,1.617.874l.882.35.244.1c.146.057.294.133.439.176l.873.275c1.141.361,2.405.712,3.5,1.1l-1.266,1.3-.661.691a6.331,6.331,0,0,0-.6.671l-.462.621-.231.311a1.866,1.866,0,0,0-.179.261l-.42.757a10.277,10.277,0,0,0-1.038,3.2,4.135,4.135,0,0,0,.38,2.687,3.187,3.187,0,0,0,2.064,1.265l8.108,1.957-8.163,1.531a7.847,7.847,0,0,1-4.449-.4,7.623,7.623,0,0,1-3.351-2.8,9.4,9.4,0,0,1-1.259-7.945,2.848,2.848,0,0,1,.173-.489l.061-.144.017-.032,0-.021,0-.022a.231.231,0,0,0-.049.007l-.155-.035c-.074-.019-.095-.017-.211-.053-.437-.161-.884-.288-1.307-.491a10.943,10.943,0,0,1-4.317-3.455,16.288,16.288,0,0,1-2.915-9.7,21.577,21.577,0,0,1,2.046-9.365,16.787,16.787,0,0,1,1.2-2.107l.346-.475c.008,0,.02-.018.032-.027s.068-.042.043-.072l-.018-.051-.014-.032a.593.593,0,0,0-.047-.09,9.118,9.118,0,0,1-.518-1.019c-.286-.7-.6-1.39-.846-2.093a23.116,23.116,0,0,1,.423-16.4,15.324,15.324,0,0,1,4.442-6.014,14.1,14.1,0,0,1,6.116-2.744,15.657,15.657,0,0,0-5.332,4.079,15.828,15.828,0,0,0-3.075,6.582,21.628,21.628,0,0,0-.4,6.744l.047.742.108.7c.063.459.123.9.18,1.306.192.806.311,1.521.425,2.1a19.64,19.64,0,0,0,1.486,4.339l1.027,1.925.13.242c0,.077-.1.145-.153.218l-.364.428-.727.848-.443.562-.31.446c-.217.29-.383.623-.579.932a18.221,18.221,0,0,0-2.132,8.568,12.811,12.811,0,0,0,2.387,7.988,8.013,8.013,0,0,0,3.136,2.411l.467.175a2.69,2.69,0,0,0,.544.168l.686.154.342.076.405.04c.54.045,1.1.118,1.611.138l.781.044.388.022.1,0,.026.032.049.065c-.392.421-.782.786-1.168,1.244-.365.459-.813.917-1.1,1.369a4.415,4.415,0,0,0-.319.647,1.914,1.914,0,0,0-.162.439,6.456,6.456,0,0,0-.207.919,6.834,6.834,0,0,0,.514,3.684,5.614,5.614,0,0,0,2.33,2.672,4.883,4.883,0,0,0,3.345.482l-.025,1.56a5.559,5.559,0,0,1-3.774-2.644,6.944,6.944,0,0,1-.558-4.413,13.052,13.052,0,0,1,1.363-3.92l.507-.883.352-.523a5.979,5.979,0,0,1,.63-.739l.038-.04a.223.223,0,0,0-.052-.018l-.113-.034-.225-.066-.44-.131a8.841,8.841,0,0,1-1.141-.441,10.587,10.587,0,0,1-1.646-.824c-.266-.156-.541-.291-.8-.467l-.746-.567a9.334,9.334,0,0,1-2.474-2.861,7.655,7.655,0,0,1-.8-3.714,11.754,11.754,0,0,1,2.49-6.445,22.2,22.2,0,0,1,2.1-2.454,7.1,7.1,0,0,1,.723-.7l.268-.232.137-.117.069-.059c.026-.02-.034-.031-.047-.047a2.787,2.787,0,0,1-.416-.292,1.972,1.972,0,0,1-.19-.177l-.106-.108-.2-.231a6.657,6.657,0,0,1-1.593-4.894,7.523,7.523,0,0,1,2.274-4.889,5.285,5.285,0,0,1,4.389-1.475,6.3,6.3,0,0,1,2.7,1.122l0,0a.794.794,0,0,1,.281.759A.162.162,0,0,1,186.289,212.979Z" transform="matrix(-1, 0, 0, 1, 380, 0)" /><g class="cls-3" transform="matrix(-1, 0, 0, 1, 380, 0)"><path class="cls-4" d="M114.068,204.393c-.031.252-.679.739-1.817.645a3.945,3.945,0,0,1-3.341-2.663l1.563.611a6.362,6.362,0,0,1-3.329,1.139,6.536,6.536,0,0,1-3.535-1.036,7.173,7.173,0,0,1-2.395-2.436,7.779,7.779,0,0,1-.684-1.391,6.249,6.249,0,0,1-.2-.687c-.027-.1-.063-.255-.08-.3-.011-.017-.022.007-.032-.04a1.727,1.727,0,0,1-.119-.955l.048-.129.021-.058c.028-.036-.085.039-.119.053-.207.115-.4.213-.578.292a6.629,6.629,0,0,1-.858.3,7.507,7.507,0,0,1-3.889-1.65,8.575,8.575,0,0,1-2.462-3.349,10.421,10.421,0,0,1-.065-7.7,10.2,10.2,0,0,1,2.127-3.379,10.828,10.828,0,0,1,1.512-1.309,7.839,7.839,0,0,1,.827-.532c-.015.011,0-.019,0-.019a.071.071,0,0,0-.011-.065.22.22,0,0,0-.055-.036c-.006-.014,0,.035-.022-.054a6.183,6.183,0,0,1-.077-.81,13.616,13.616,0,0,1,.057-1.694,12.022,12.022,0,0,1,2.4-5.962,9.209,9.209,0,0,1,1.038-1.193,8.656,8.656,0,0,1,1.184-1.044l.629-.473.683-.4.674-.374.27-.091.262-.086.055.013.139.031c.054.01.115.023.185.043s.169.046.145.019l.035-.205a1.34,1.34,0,0,1,.042-.195.942.942,0,0,0-.018-.176l-.046-.4c-.006-.265.007-.526.015-.787a8.783,8.783,0,0,1,2.071-5.344,6.3,6.3,0,0,1,4.909-2.352,5.921,5.921,0,0,1,4,1.948l-1.065.009-.51.011-.527.1a3.541,3.541,0,0,0-1.727.741,3.5,3.5,0,0,0-1.12,2.61,4.894,4.894,0,0,0,.381,2.152c.029.06.022.128.065.175l.046.074.063.264c.132.51.756.98,1.331,1.579q.822.837,1.536,1.565c.445.467.929.988,1.278,1.388l1.4,1.611c.322.389.638.77.94,1.136-.938-.062-2.066-.173-3.082-.266-.959-.1-2.2-.178-3.248-.256-1.1-.083-2.021-.124-2.977-.175a2.846,2.846,0,0,0-1.03.089l-.832.166a1,1,0,0,0-.268.077l-.189.072-.387.143-.732.41c-.218.177-.459.338-.675.528-.194.209-.42.4-.6.625a6.009,6.009,0,0,0-1.442,3.956,4.5,4.5,0,0,0,.062.6,4.011,4.011,0,0,0,.215.759c.182.5.35,1.016.538,1.49l.585,1.374c-.816.145-1.632.3-2.45.5-.4.1-.782.224-1.168.335a2.328,2.328,0,0,0-.539.232l-.293.159a5.057,5.057,0,0,0-1.758,1.779,5.617,5.617,0,0,0-.47,4.66,3.953,3.953,0,0,0,1.125,1.721,3.064,3.064,0,0,0,1.621.711c1.208.069,3.185-.708,4.955-1.318l1.329-.492,1.187-.469.3-.117a.885.885,0,0,1,.243-.079l.306-.034c.217-.026.381-.037.647-.081-.68,1.071-1.459,2.2-2.075,3.237q-.486.792-.968,1.577-.352.635-.7,1.265l-.345.622c-.067.1-.041.206-.066.309a.9.9,0,0,0-.019.229c.022.112.039.222.051.335a5.157,5.157,0,0,0,.248.656,4.162,4.162,0,0,0,1.95,1.976,4.01,4.01,0,0,0,2.874.2l2.115-.655-.2,1.4a2.427,2.427,0,0,0,1.119,2.055A3.074,3.074,0,0,0,114.068,204.393Z" /></g><g class="cls-3" transform="matrix(-1, 0, 0, 1, 380, 0)"><path class="cls-4" d="M191.969,157.328a10.468,10.468,0,0,1-2.84-.921c-1.508-.573-3.53-1.288-5.73-1.922a44.98,44.98,0,0,0-6.751-1.453,15.182,15.182,0,0,0-5.317.1,4.94,4.94,0,0,0-1.828.837.966.966,0,0,0-.248.253l-.053.058-.058.42-.043.219-.174.891-.087.454-.086.535-.172,1.091q-.153,1.118-.308,2.25a.616.616,0,0,0-.17-.095l-.123-.051-.248-.109a1.7,1.7,0,0,1-.261-.133l-.358-.34c-.494-.464-.936-.9-1.52-1.432a18.138,18.138,0,0,0-1.7-1.477l-.862-.658-.216-.165-.111-.038-.222-.076a3.644,3.644,0,0,0-.859-.234l-.4-.078-.423-.027a4.37,4.37,0,0,0-.849-.012,4.9,4.9,0,0,0-.851.081,7.352,7.352,0,0,0-3.071,1.179c-.219.141-.39.326-.594.472-.112.091-.132.151-.28.293a2.171,2.171,0,0,0-.362.4,2.743,2.743,0,0,0-.33.5l-2.441,4.356-1.717-1.6-.925-.857c-.3-.253-.595-.464-.892-.7l-.445-.344-.222-.172c-.081-.064-.065-.027-.1-.045l-.287-.072a4.078,4.078,0,0,0-.632-.115,10.727,10.727,0,0,0-3.07.13,22.106,22.106,0,0,0-9.931,4.568,10.581,10.581,0,0,0-1.555,1.654,3.58,3.58,0,0,0-.634,1.317.426.426,0,0,0-.033.222c.008.069-.041.131,0,.226l.031.133c.036.07-.071,0,.213.308l1.18,1.332c1.071.959,2.225,1.921,3.346,2.884l3.016,2.58-.829.09-.949.074-1.906.141-4.046.324c-1.183.185-2.39.314-3.449.548-.124.04-.241.07-.37.118l-.213.1-.1.04-.3.113a4.107,4.107,0,0,0-.6.241,12.148,12.148,0,0,0-4.054,2.914,7.469,7.469,0,0,0-1.938,3.918,7.356,7.356,0,0,0,.79,4.181,6.535,6.535,0,0,1-3.637-3.792,9.442,9.442,0,0,1,.394-6.894,13.876,13.876,0,0,1,4.04-5.283,12.772,12.772,0,0,1,2.349-1.47l.278-.133a.348.348,0,0,0-.06.033l.007.011a.336.336,0,0,0,.058.052,1.119,1.119,0,0,0,.4.165c.088.024.187.048.3.07l.166.031a.164.164,0,0,0,.044-.013c.054-.03.057-.112.05-.26-.005-.074-.014-.161-.012-.269l0-.081a.287.287,0,0,0-.006-.058l-.043-.213-.153-.849a8.286,8.286,0,0,1-.007-1.746,7.739,7.739,0,0,1,.38-1.619c.091-.25.176-.506.279-.742l.35-.669a9.46,9.46,0,0,1,.782-1.211,15.845,15.845,0,0,1,3.751-3.488,26.815,26.815,0,0,1,4.083-2.283,27.605,27.605,0,0,1,8.509-2.378,14.8,14.8,0,0,1,4.419.192c1.8.441,2.154.692,2.758,1.258.052.085.08,0,.111-.057l.095-.173.187-.342c.158-.2.295-.421.463-.6l.329-.337a3.8,3.8,0,0,1,.55-.483,9.084,9.084,0,0,1,1.181-.83,12.071,12.071,0,0,1,5.266-1.683,11.656,11.656,0,0,1,2.724.082,10.843,10.843,0,0,1,2.576.7l.287.11.126.062.248.122a3.779,3.779,0,0,1,.447.284,3.466,3.466,0,0,1,.377.332c.027.022.064.07.084.07l.017-.139c.014-.092.017-.185.039-.273a1.886,1.886,0,0,1,.42-.826c.051-.047-.111.083-.055.034l.139-.119.282-.234a3.315,3.315,0,0,1,.58-.4,6.31,6.31,0,0,1,1.186-.583,11.872,11.872,0,0,1,4.407-.687,26.764,26.764,0,0,1,7.43,1.285,29.7,29.7,0,0,1,7.171,3.345A18.865,18.865,0,0,1,191.969,157.328Z" /></g></svg>