<svg xmlns="http://www.w3.org/2000/svg" id="halloween" viewBox="0 0 380 600"><defs><style>.cls-1{fill:#ff0;}</style></defs><g id="eyes"><ellipse class="cls-1 color-eyes" cx="267.987" cy="271.505" rx="11.546" ry="20" transform="translate(-48.139 57.972) rotate(-11.336)"></ellipse><path d="M256.636,273.781c-.336-.328-1.4-4.185-1.153-8.8a23.563,23.563,0,0,1,1.33-6.9A14.023,14.023,0,0,1,259.9,253a8.209,8.209,0,0,1,3.724-2.235,8.748,8.748,0,0,1,4.569.085,15.107,15.107,0,0,1,7.136,5.193,32.213,32.213,0,0,1,6.307,15.611,27.109,27.109,0,0,1-1.562,14.244,12.894,12.894,0,0,1-4.777,5.861,8.877,8.877,0,0,1-7.584.782,13.751,13.751,0,0,1-5.5-3.889,22.169,22.169,0,0,1-3.31-4.978,30.084,30.084,0,0,1-2.8-9.785,62.4,62.4,0,0,0,5.306,8.716,26.3,26.3,0,0,0,5.75,5.611,6.4,6.4,0,0,0,3.972,1.414,5.777,5.777,0,0,0,3.822-1.672,11.432,11.432,0,0,0,2.559-3.837,18.394,18.394,0,0,0,1.292-4.527,27.808,27.808,0,0,0-.073-9.136,31.294,31.294,0,0,0-2.533-8.225,22.348,22.348,0,0,0-4.554-6.484,9.386,9.386,0,0,0-6.163-2.906,6.035,6.035,0,0,0-2.959.8,8.14,8.14,0,0,0-2.277,2.089,16.052,16.052,0,0,0-2.6,5.685,36.487,36.487,0,0,0-1.077,7.059c-.082,1.223-.047,2.369-.045,3.3C256.581,272.716,256.618,273.428,256.636,273.781Z"></path><circle class="cls-1 color-eyes" cx="165.112" cy="282.015" r="20.5"></circle><path d="M144.581,282.057a4.025,4.025,0,0,1-.15-1.178c-.007-.318-.041-.7-.012-1.119l.137-1.407a19.939,19.939,0,0,1,2.526-7.282,21.527,21.527,0,0,1,6.029-6.626,22.208,22.208,0,0,1,6.677-3.232,20.673,20.673,0,0,1,10.356-.48,21.259,21.259,0,0,1,9.789,4.862,21.784,21.784,0,0,1,6.269,9.188,22.063,22.063,0,0,1-9.009,26.177,22.016,22.016,0,0,1-17.133,2.72,21.276,21.276,0,0,1-15.471-15.427,21.881,21.881,0,0,1-.546-6.195,31.875,31.875,0,0,0,2,5.773,23.322,23.322,0,0,0,3.759,5.533,21.848,21.848,0,0,0,4.669,3.872,35.791,35.791,0,0,0,3.867,2.03,17.021,17.021,0,0,0,6.081,1.648,18.314,18.314,0,0,0,6.208-.477,19.564,19.564,0,0,0,5.6-2.465,18.9,18.9,0,0,0,4.423-4.036,19.048,19.048,0,0,0,4.125-10.6,19.64,19.64,0,0,0-.385-5.489,20.357,20.357,0,0,0-1.854-4.988,19.223,19.223,0,0,0-3.021-4.157,19.938,19.938,0,0,0-1.828-1.715,23.335,23.335,0,0,0-2.007-1.426,19.609,19.609,0,0,0-8.851-2.9,20.394,20.394,0,0,0-15.46,5.549,22.819,22.819,0,0,0-5.134,7.358,21.105,21.105,0,0,0-1.255,3.978C144.734,280.7,144.67,281.611,144.581,282.057Z"></path><path d="M202.356,301.132c-.213.385-1.333.8-3.189.766a8.391,8.391,0,0,1-3.181-.751,10.056,10.056,0,0,1-1.647-.94c-.273-.195-.5-.356-.8-.606s-.573-.507-.855-.779a5.315,5.315,0,0,1-1.1-2.074c-.244-.824-.361-1.351-.5-2.011-.262-1.246-.48-2.452-.7-3.593a46.184,46.184,0,0,0-1.359-5.7c-1.635-4.944-3.487-10.031-6.176-14.269a21.364,21.364,0,0,0-10.4-8.894,27.165,27.165,0,0,0-7.8-1.675,19.107,19.107,0,0,0-7.318.848,24.927,24.927,0,0,0-6.617,3.445c-1.072.737-2.127,1.574-3.261,2.45l-.87.673-.985.724c-.148.112-.366.252-.594.4l-.793.5c-.539.238-1.077.459-1.6.671a9.735,9.735,0,0,1-3.19.225,11.594,11.594,0,0,1-2.432-.536,16.693,16.693,0,0,1-3.762-1.834,17.576,17.576,0,0,1-5.18-4.967,34.1,34.1,0,0,0,7.2.621,15.57,15.57,0,0,0,3.252-.336,3.584,3.584,0,0,0,.633-.191,1.19,1.19,0,0,0,.468-.235,1.315,1.315,0,0,0,.231-.485.929.929,0,0,0,.012-.264.447.447,0,0,0-.072-.078,1.13,1.13,0,0,1,.145-.227c.154-.212.307-.413.459-.6l.534-.641a14.184,14.184,0,0,1,1.109-1.143,7.137,7.137,0,0,1,1.079-.832,39.2,39.2,0,0,1,11.806-5.3,29.784,29.784,0,0,1,11.834-.262,33.269,33.269,0,0,1,10.153,3.385,29,29,0,0,1,7.946,6.206,40.493,40.493,0,0,1,8.27,15.893,68.723,68.723,0,0,1,2.309,14.879c.055.513.088,1.086.128,1.612a4.583,4.583,0,0,0,.09,1.156,7.539,7.539,0,0,0,1.863,2.477A12.479,12.479,0,0,0,202.356,301.132Z"></path><path d="M250.748,295.754c-.225-.366,0-1.125.22-2.215a27.124,27.124,0,0,0,.48-4.185,43.622,43.622,0,0,0-.578-9.2,62.321,62.321,0,0,1-1.43-12.259,32.4,32.4,0,0,1,2.483-13.615,18.409,18.409,0,0,1,3.785-5.512c.412-.4.85-.767,1.281-1.141a14.182,14.182,0,0,1,1.478-1.069,14.466,14.466,0,0,1,3.365-1.54,15.029,15.029,0,0,1,6.872-.436,19.01,19.01,0,0,1,5.65,1.864,25.105,25.105,0,0,1,4.377,2.814q.476.385.942.766a1.078,1.078,0,0,1,.257.263l.177.222.376.468.273.392a1.774,1.774,0,0,0,.783.63,1.155,1.155,0,0,0,.875-.112,7.51,7.51,0,0,0,.855-.521c.3-.185.916-.773,1.507-1.138a13.388,13.388,0,0,0-.006,2.317,8.44,8.44,0,0,1-.365,2.8,3.923,3.923,0,0,1-1.859,2.388,5.06,5.06,0,0,1-3.007.441,12.11,12.11,0,0,1-3.006-.98l-.724-.317-.359-.163-.211-.06q-.414-.118-.785-.251c-.492-.189-.927-.355-1.292-.529a4.074,4.074,0,0,1-.876-.581,12.2,12.2,0,0,0-5.657-3.231,6.809,6.809,0,0,0-5.567,1.223,10.724,10.724,0,0,0-2.234,2.162,13.736,13.736,0,0,0-1.558,2.712,21.294,21.294,0,0,0-1.528,6.027,71.6,71.6,0,0,0,.011,11.8,55.305,55.305,0,0,1-.147,10.752,15.771,15.771,0,0,1-1.937,5.71,11.078,11.078,0,0,1-.822,1.262,7.244,7.244,0,0,1-.841,1A6.992,6.992,0,0,1,250.748,295.754Z"></path></g></svg>