<svg xmlns="http://www.w3.org/2000/svg" viewBox="0 0 380 600"><defs><style>.cls-1{fill:blue;}.cls-2{opacity:0.5;}.cls-3{fill:#fffffb;}.cls-4{opacity:0.2;}.cls-5{fill:#fff;}</style></defs><g data-name="Womens' Suffrage" id="Womens_Suffrage"><g data-name="Womens' Suffrage Separated" id="Womens_Suffrage_Separated"><g id="HAIR"><path class="cls-1 color-hair" d="M75.54,330.79s-6.67-9.88-7.94-21.11l-4.69-12.31,58.54-56.55,6.07,17.34S74.36,320.24,75.54,330.79Z"></path><path class="cls-1 color-hair" d="M91,190.5c7.7-5.25,13.75-18.93,18.46-22.65,7.83-6.2,21.25-6.57,21.25-6.57s15.58-.5,24,3.32c0,0,20.16-10.33,44.91-8.26s31.4,6.59,34.21,9.81c0,0,11.23,8,15.57,14.49a236.72,236.72,0,0,0,37.28,10.14s12.28,3.07,13.62,13.62c1.47,11.66-6,19.49-4.17,33s14.55,22.21,15.32,22.72,21.91,4.59,15.31,15.32a132.34,132.34,0,0,1-7.48,11.36s-7.14,8.71-5,14.43c1.28,3.44,5.49,3.31,13.66-1.26,0,0,0,17.29-14.42,18.49-10.7.89-21.19-4.72-21-16.27.19-13.4,16.85-13.73,18.38-14.24,1.28-.43,4.12-1.18,3.9-3.83l-.5-1.76s-33.19-.2-39.83-23.18,2.22-28.45,2.22-28.45-4-14-29.29-26.67c0,0,3.41,4.91-12.24,5.25s-24.52-3.4-27.24-.34.68,9.87.68,9.87,6.81,9.53-14.64,9.87-43.23-3.06-50.38-1.36-17.08,7.83-14.67,14.64,6.74,10.2,9.22,15c5.11,9.82-1.19,15.91-1.19,15.91s2.91-5.4-10-15.74"></path><path d="M126.87,257.12a31.62,31.62,0,0,1,5,3.91,27.67,27.67,0,0,1,3.93,4.53,14.61,14.61,0,0,1,1.7,3.3,8.8,8.8,0,0,1,.46,2,7.07,7.07,0,0,1,0,1.13,4.32,4.32,0,0,1-.32,1.29l-1.34-1A10.77,10.77,0,0,0,137.8,270a13.33,13.33,0,0,0,1-2.77,12.92,12.92,0,0,0-.3-6.24,20,20,0,0,0-3.16-6.16c-1.44-2-3.18-4-4.71-6.32a31.56,31.56,0,0,1-2.11-3.69c-.31-.66-.6-1.32-.86-2a8.93,8.93,0,0,1-.35-1.16,4.5,4.5,0,0,1-.21-1.27,6.18,6.18,0,0,1,0-1.29c.06-.43.12-.86.21-1.28l.41-1.2c.15-.4.37-.74.55-1.11a14.61,14.61,0,0,1,3.05-3.68,23.75,23.75,0,0,1,3.75-2.75,31,31,0,0,1,4.15-2.09,25.2,25.2,0,0,1,4.53-1.43c.41-.07.83-.16,1.23-.21l1.18-.11c.81-.1,1.56-.09,2.34-.13,6.14-.11,12.14.35,18.1.65s11.84.62,17.55.72q4.29.09,8.42,0a52.5,52.5,0,0,0,7.82-.59,22,22,0,0,0,3.43-.86,8,8,0,0,0,2.55-1.38,2,2,0,0,0,.76-1.51,2.84,2.84,0,0,0-.17-.94,3.22,3.22,0,0,0-.21-.51l-.13-.25c0-.05-.12-.18-.09-.14l-.21-.33a23.47,23.47,0,0,1-1.64-4.44,12.37,12.37,0,0,1-.25-1.29,8.82,8.82,0,0,1-.16-1.44,10.08,10.08,0,0,1,.21-2.76,6.24,6.24,0,0,1,3-4.07,10.78,10.78,0,0,1,4.85-1l1.42,0,1.23.08,2.39.21,4.64.43c3.07.27,6.13.43,9.2.44a63.39,63.39,0,0,0,9-.51l1.05-.17c.35-.06.66-.16,1-.23l.49-.12.43-.14a4.81,4.81,0,0,0,.76-.3l.33-.15.18-.14c.1,0,.07-.06.08-.06s0,0,.05,0l.24.2a3.15,3.15,0,0,0,.28.25,1.74,1.74,0,0,0,.33.18.47.47,0,0,0,.14.08l.12,0a.49.49,0,0,0-.21,0l0,0s0,0,.06,0l.24-.12.22-.13,0,0c-3.24,1.91-.89.54-1.61,1l0,0,.06.09,4.27-4.92A88.8,88.8,0,0,1,266,211.85a56.52,56.52,0,0,1,7.54,7.24c.59.65,1.14,1.35,1.69,2.06s1.07,1.45,1.58,2.19,1,1.54,1.45,2.34a24.72,24.72,0,0,1,1.74,3.8c-.11.44-.23.89-.34,1.34a4.17,4.17,0,0,1-.45,1.08c-.16.32-.33.71-.51,1.1l-.55,1.26a8.91,8.91,0,0,0-.66,1,6.21,6.21,0,0,0-.4.77,5.74,5.74,0,0,0-.36.84,8.49,8.49,0,0,0-.31.89,14.17,14.17,0,0,0-.45,1.92l-.18,1-.09,1c0,.35-.08.69-.09,1v1.07l0,1.07c0,.36,0,.73.07,1.09l.06,1.09c0,.37.14.72-.3,1.14l-.13.16-.21.17-.45.33-.88.7c-.63.48-1.15,1-1.15,1.36a15.8,15.8,0,0,0,.48,2.35,18.47,18.47,0,0,0,.7,2.3c.29.75.6,1.49.93,2.23l.52,1.09c.18.35.4.69.6,1s.4.67.61,1l.7.94a20.65,20.65,0,0,0,1.46,1.76c.47.58,1.05,1.08,1.53,1.62l1.58,1.5a35,35,0,0,0,6.9,5.14,47.46,47.46,0,0,0,8.09,3.49,65.59,65.59,0,0,0,8.73,2.2c1.49.26,3,.49,4.49.66l2.24.21c.73.05,1.54.1,2.15.11l3.2.05.49,2.75c.2,1.14.51,2.29.62,3.43a6.45,6.45,0,0,1-1,3.24,7.5,7.5,0,0,1-2.48,2.37,12,12,0,0,1-1.61.78c-.27.11-.56.22-.84.31l-.57.19a7.61,7.61,0,0,1-1.16.27l-.73.11-1.25.2c-.81.13-1.59.28-2.35.47a22,22,0,0,0-4.19,1.52c-2.56,1.18-4.75,2.22-6.25,4.41a10.36,10.36,0,0,0-1.67,4,13.51,13.51,0,0,0-.32,2.37c0,.4-.06.82,0,1.22l.13,1.21a11.6,11.6,0,0,0,5.48,8.14,13.44,13.44,0,0,0,9.8,1.76c.83-.22,1.63-.36,2.41-.64a16,16,0,0,0,2.22-.85,15.46,15.46,0,0,0,3.44-2.22,20,20,0,0,0,2.52-2.61,12.46,12.46,0,0,0,1-1.57c.16-.27.29-.58.44-.86l.18-.42,0-.05c0-.12.06-.28,0-.31l0,0s-.07,0-.1.05l0,0-.05,0h-.07l-.31.08a11.41,11.41,0,0,1-6.92-.22,7.83,7.83,0,0,1-1.51-.81l-.7-.5-.6-.62a9.87,9.87,0,0,1-1.8-2.9l-.38-1.33-.2-1.37a10.4,10.4,0,0,1-.16-1.38l0-.72,0-.58a18.71,18.71,0,0,1,.29-2c.15-.62.31-1.23.49-1.83a29.42,29.42,0,0,1,2.88-6.19c.56-.94,1.14-1.84,1.78-2.72l.49-.67.43-.56.73-1c1-1.44,2-3,3-4.52l3-4.69.37-.57.17-.32a4.57,4.57,0,0,0,.27-.55,2.83,2.83,0,0,0,.1-.5c0-.08,0-.21-.19-.49a4.63,4.63,0,0,0-.92-1,16.7,16.7,0,0,0-3.63-2.28,42.91,42.91,0,0,0-4.65-1.87c-.83-.28-1.64-.53-2.57-.83l-.52-.16a5,5,0,0,1-.64-.25,5.39,5.39,0,0,1-1.21-.65l-.52-.39-.4-.31-.62-.49a46.48,46.48,0,0,1-8.42-9,38.86,38.86,0,0,1-3.21-5.35,21.71,21.71,0,0,1-2.06-6c-.08-.53-.16-1-.22-1.57s0-1.08,0-1.61,0-1.06.08-1.58.15-1,.25-1.52a42.83,42.83,0,0,1,1.57-5.8c.66-1.83,1.21-3.59,1.73-5.35l.7-2.66c.24-.88.48-1.76.69-2.65a38,38,0,0,0,.92-5.38,41.74,41.74,0,0,0,.14-5.34c0-.87-.12-1.73-.21-2.57a16.88,16.88,0,0,0-.48-2.47,11,11,0,0,0-2.12-4.17,17.67,17.67,0,0,0-7.7-5.25c-.75-.28-1.51-.53-2.24-.73a6,6,0,0,0-1-.19l-1.31-.2c-1.72-.25-3.51-.6-5.27-.93a78.53,78.53,0,0,1-10.3-2.88c-3.36-1.16-6.67-2.38-10-3.43l-5-1.58-2.48-.82-1.24-.41-.31-.11-.16-.05a2.22,2.22,0,0,1-.28-.09l-1.16-.41-.51-.64-.25-.33-.2-.28c-.17-.21-.31-.42-.48-.62-.36-.4-.69-.82-1.06-1.21-.74-.8-1.52-1.57-2.33-2.33-1.62-1.51-3.33-2.94-5.09-4.32s-3.56-2.69-5.37-3.94a7.13,7.13,0,0,1-1.05-.81l-.34-.34-.23-.22-.5-.43-.54-.4a15.13,15.13,0,0,0-2.44-1.41,50.82,50.82,0,0,0-11.91-3.47c-4.18-.78-8.42-1.35-12.65-1.82a100.88,100.88,0,0,0-12.4-.65,98.59,98.59,0,0,0-12.08,1.12,96.9,96.9,0,0,0-11.64,2.65c-1.9.54-3.76,1.17-5.59,1.82-.91.34-1.82.67-2.71,1l-.66.27-.88.38c-.75.33-1.49.71-2.22,1.06-.66-.25-1.32-.54-2-.81l-.49-.2-.41-.16-.55-.19c-.73-.27-1.5-.48-2.27-.69-1.55-.4-3.15-.72-4.77-1a87.19,87.19,0,0,0-9.78-.93c-1.61-.06-3.31-.13-4.76-.05s-3.13.23-4.68.45a42.16,42.16,0,0,0-8.9,2.21c-2.74,1.08-5.45,2.45-7.16,4.45A87.26,87.26,0,0,0,103.7,178c-1.75,2.47-3.52,4.93-5.46,7.24a31.87,31.87,0,0,1-6.59,6.16,29.55,29.55,0,0,0,5.43-6c1.61-2.27,3.09-4.74,4.58-7.3s3-5.26,4.77-7.9l.7-1,.78-1a12.64,12.64,0,0,1,1.86-1.73A25.71,25.71,0,0,1,114,163.8a43.08,43.08,0,0,1,9.77-3.44,51.83,51.83,0,0,1,5.2-1c.86-.12,1.85-.21,2.71-.25s1.76-.08,2.65-.11a87.1,87.1,0,0,1,10.68.33,51.68,51.68,0,0,1,5.44.79c.91.19,1.83.4,2.75.68l1,.28a2.74,2.74,0,0,0,.39.09,34.63,34.63,0,0,1,4-1.9l2.65-1.08,2.66-1a99.91,99.91,0,0,1,10.73-3.08,87,87,0,0,1,20.89-2.2c1.65.08,3.3.13,4.86.24s3.05.26,4.52.41c2.95.31,5.76.67,8.4,1.14a61.11,61.11,0,0,1,13.58,3.79,26.32,26.32,0,0,1,7.82,4.9c.29.3.59.59.86.9l.4.47c.05.06,0,0,0,.06l0,0,.2.16.4.33.77.66q1.55,1.32,3,2.67c2,1.8,3.9,3.64,5.72,5.57q1.37,1.43,2.64,3c.43.5.82,1.05,1.23,1.58.21.25.39.55.59.83l.07.1,0,0,0,0s0,.06,0,.07l.12.05.63.25,1.36.53,2.72,1c1.83.66,3.66,1.29,5.5,1.84,3.7,1.12,7.47,1.93,11.2,2.75s7.42,1.74,11.1,2.62l2.81.64.7.16.19.05.29.08.38.13c.5.18,1,.38,1.45.58a24.76,24.76,0,0,1,5.28,3.11,19.65,19.65,0,0,1,4.22,4.46,15.19,15.19,0,0,1,2.26,5.65l.22,1.49,0,1.46a25.47,25.47,0,0,1-.09,2.9,32,32,0,0,1-1.18,5.57c-1.11,3.59-2.39,7.06-3.13,10.68a23.55,23.55,0,0,0-.45,5.48,29.41,29.41,0,0,0,.82,5.34,45.4,45.4,0,0,0,3.51,9.58,36.19,36.19,0,0,0,6.06,8.16,47,47,0,0,0,3.79,3.42c.64.52,1.43,1.1,1.73,1.31a1.71,1.71,0,0,0,.34.13l.58.17,1.3.37a38.44,38.44,0,0,1,10.31,4.39,12.85,12.85,0,0,1,4.37,4.5,8.12,8.12,0,0,1,.35,6.85,8.39,8.39,0,0,1-.68,1.45c-.26.5-.49.86-.72,1.22l-1.39,2.22c-.94,1.47-1.88,2.94-2.86,4.39s-1.92,2.86-3.09,4.35a32.48,32.48,0,0,0-2.68,4,19.81,19.81,0,0,0-1.87,4.22,5.86,5.86,0,0,0-.26,1,4.71,4.71,0,0,0-.14,1,3.14,3.14,0,0,0,0,.75,2.75,2.75,0,0,0,.13.75,2.09,2.09,0,0,0,1.46,1.59,4.44,4.44,0,0,0,2.28-.08,26.12,26.12,0,0,0,4.78-1.84c1.6-.77,3.16-1.54,4.62-2.32l.35.18.18.09s.08,0,.07.07v.22l-.08,1.71c-.07,1.12-.15,2.21-.28,3.33a26.21,26.21,0,0,1-1.91,6.93,7,7,0,0,1-.39.83l-.33.65c-.24.43-.47.85-.74,1.26a16.06,16.06,0,0,1-1.77,2.35,13.17,13.17,0,0,1-4.8,3.42,14.5,14.5,0,0,1-5.61,1.05,27.46,27.46,0,0,1-5.39-.59,27.13,27.13,0,0,1-9.69-3.87,18.76,18.76,0,0,1-3.8-3.54,16.81,16.81,0,0,1-2.49-4.63,9.38,9.38,0,0,1-.37-1.28c-.1-.43-.24-.86-.3-1.31a23.44,23.44,0,0,1-.28-2.67,13.21,13.21,0,0,1,1-5.47,12.82,12.82,0,0,1,3.32-4.61,16,16,0,0,1,4.72-2.91,31.37,31.37,0,0,1,5.13-1.48c.86-.18,1.71-.33,2.56-.46l1.25-.18.58-.09a2,2,0,0,0,.37-.08l.41-.14.27-.1a3.14,3.14,0,0,0,.53-.23,2.3,2.3,0,0,0,.88-.72,1.66,1.66,0,0,0,.28-1.08c-.09-.37-.21-.73-.31-1.08l1.74,1.32a66.16,66.16,0,0,1-10.24-1,59.35,59.35,0,0,1-9.83-2.62,41.9,41.9,0,0,1-9.09-4.58,27.94,27.94,0,0,1-7.37-7,23.81,23.81,0,0,1-3.68-9.22c-.28-1.59-.5-3.17-.81-4.71-.11-.79-.23-1.56-.37-2.34l-.21-1.16a1.76,1.76,0,0,0-.41-1.12c-.1-.19-.39-.35-.58-.52l-.66-.52c-.2-.18-.46-.35-.62-.53a1.91,1.91,0,0,1-.36-.58c-.1-.81-.14-1.64-.21-2.45s0-1.65,0-2.48a20.86,20.86,0,0,1,.12-2.49,24.37,24.37,0,0,1,.92-5c.12-.42.29-.83.43-1.24a9.44,9.44,0,0,1,.52-1.23,10.61,10.61,0,0,1,.63-1.2,8.48,8.48,0,0,1,.61-1,3.78,3.78,0,0,1,.55-.64l.18-.15s.08,0,.07-.08l0-.11a3.25,3.25,0,0,0-.18-.43,10.78,10.78,0,0,0-.6-1.16c-.39-.66-.79-1.32-1.24-2s-.89-1.27-1.39-1.88-1-1.22-1.5-1.79a53,53,0,0,0-6.85-6.46c-1.19-1-2.51-1.89-3.77-2.83s-2.62-1.73-3.93-2.58-2.7-1.59-4.06-2.35l-4.15-2.15,3.61-4.17a4.58,4.58,0,0,1,.33.58c.08.16.14.31.2.46a6.27,6.27,0,0,1,.25,1,4.94,4.94,0,0,1-.15,2.09,8.78,8.78,0,0,1-.38.94c-.16.26-.33.52-.51.76a6.93,6.93,0,0,1-1.13,1.11,12.11,12.11,0,0,1-4.13,1.86,36.69,36.69,0,0,1-7.32,1,100.77,100.77,0,0,1-13.83-.32c-2.26-.2-4.49-.46-6.65-.7-1.07-.11-2.13-.22-3.13-.28l-.65,0a2.28,2.28,0,0,0-.37,0,4.36,4.36,0,0,0-.72,0,1.58,1.58,0,0,0-1.19.73,2.46,2.46,0,0,0-.29,1.39c0,.24,0,.47.09.71s.18.8.3,1.2.27.87.44,1.3a12.86,12.86,0,0,0,.51,1.19l-.25-.41c.21.3.27.42.39.62a5.68,5.68,0,0,1,.28.55,10.15,10.15,0,0,1,.47,1.12,8.61,8.61,0,0,1,.46,2.54,7.16,7.16,0,0,1-.47,2.79,7.64,7.64,0,0,1-1.43,2.36,10.84,10.84,0,0,1-3.73,2.63,19.54,19.54,0,0,1-3.67,1.19c-4.77,1.08-9.29,1-13.57,1-8.64-.11-17.07-.71-25.28-1.37l-9.66-.72c-1.68-.11-3.4-.21-5.1-.25a33.39,33.39,0,0,0-5,.16,13.94,13.94,0,0,0-2.34.51c-.8.22-1.6.51-2.4.81a25.26,25.26,0,0,0-4.55,2.31,15.51,15.51,0,0,0-3.7,3.17,5.87,5.87,0,0,0-1.51,3.8,3.6,3.6,0,0,0,.13,1c0,.08,0,.16.05.25l.1.3.21.6a24,24,0,0,0,1,2.34,34.74,34.74,0,0,0,2.54,4.37c1.87,2.79,4.08,5.53,5.25,8.66a15.58,15.58,0,0,1,1,9,12.72,12.72,0,0,1-3.42,6.48l-1.63,1.61,1-2.12a4,4,0,0,0,.24-1.88,7.66,7.66,0,0,0-.14-1c-.08-.31-.15-.62-.24-.91a15.88,15.88,0,0,0-1.51-3.15,29.87,29.87,0,0,0-3.42-4.34A61.79,61.79,0,0,0,126.87,257.12Z"></path><path class="cls-1 color-hair" d="M124.28,252.49a38.61,38.61,0,0,0,2.89,7.15c1.87,3.45,3.62,4.85,4,13s-5.11,16.72-14,22.34-15.83,12.77-15.07,18.13,4.68,10.51,13.71,11.3a25.07,25.07,0,0,0,18.21-5.3c0,19.91-17,27.32-34.85,26.68s-27.19-18.07-21.32-27.23"></path><path d="M77.86,318.61c.08.52-1,2.44-.92,5.47a18.08,18.08,0,0,0,3.7,10.38,22.48,22.48,0,0,0,4.54,4.6,22.25,22.25,0,0,0,11.12,4.4,25.76,25.76,0,0,0,4.73,0A55.07,55.07,0,0,0,112,341.66a31.7,31.7,0,0,0,9.89-4.57,20.64,20.64,0,0,0,3.89-3.56l.84-1a9.65,9.65,0,0,0,.72-1.08l.7-1.11c.22-.37.39-.78.62-1.16a12.86,12.86,0,0,1,.75-1.12c.25-.38.47-.79.74-1.18s.54-.79.84-1.2.47-.86.72-1.29a9.72,9.72,0,0,0,1.12-2.79l0-.18,0-.09s0,0,0,0l0,0-.08,0s.06-.17,0-.09a1.7,1.7,0,0,1-.31.22c-.59.39-1.19.74-1.79,1.09a35.43,35.43,0,0,1-3.73,1.79A33.48,33.48,0,0,1,119,326.3a26.83,26.83,0,0,1-7.49,0,16.51,16.51,0,0,1-7.56-3,14.88,14.88,0,0,1-5.08-7,17.45,17.45,0,0,1-.56-2.09c0-.19-.08-.34-.11-.55l-.06-.69a7.81,7.81,0,0,1,0-1.36,13.16,13.16,0,0,1,1.19-4.63,24.86,24.86,0,0,1,4.48-6.47,44.43,44.43,0,0,1,5.25-4.81,58.43,58.43,0,0,1,5.59-3.89l1.24-.8a13.05,13.05,0,0,0,1.16-.78c.78-.52,1.49-1.1,2.21-1.67a28,28,0,0,0,6.75-8,19.46,19.46,0,0,0,1.77-4.51,14.09,14.09,0,0,0,.4-2.29c0-.4.07-.74.08-1.18s0-.86,0-1.29a27.72,27.72,0,0,0-.38-4.8,16,16,0,0,0-1.54-4.27,32,32,0,0,1-1.93-4.75,39.22,39.22,0,0,1-1.17-4.66,48.55,48.55,0,0,0,5.92,7.77A19.57,19.57,0,0,1,131,262.8a15.8,15.8,0,0,1,1.55,2.76,28.9,28.9,0,0,1,1.8,5.9,23.51,23.51,0,0,1,.43,3.15c0,.55,0,1.09,0,1.63l-.11,1.6a23.69,23.69,0,0,1-1.41,5.8,22.23,22.23,0,0,1-4.76,7.44,40.08,40.08,0,0,1-9.1,6.68,57.1,57.1,0,0,0-8,4.95,25.87,25.87,0,0,0-6.09,6.2,7.46,7.46,0,0,0-1.29,3.37,7.28,7.28,0,0,0,.17,1.82,11.86,11.86,0,0,0,.54,1.9,10.79,10.79,0,0,0,5.25,5.75,19.65,19.65,0,0,0,8,2,24.26,24.26,0,0,0,8.2-1,23.91,23.91,0,0,0,3.79-1.5c.6-.31,1.19-.64,1.75-1,.32-.21.74-.49,1.12-.76s.8-.64,1.21-1c.05,0,.1,0,.15,0s.12-.07.1.1v.68c0,.43,0,1,0,1.51s0,.9,0,1.31a6.75,6.75,0,0,1,0,1.19c0,.79-.05,1.6-.07,2.41a19.67,19.67,0,0,1-.3,2.4l-.21,1.2a9.61,9.61,0,0,1-.37,1.15,22,22,0,0,1-.9,2.25l-1.22,2.08a6.59,6.59,0,0,1-.68,1l-.74.95-.73.94-.83.84c-.57.54-1.09,1.14-1.7,1.63l-1.82,1.43c-.61.49-1.29.84-1.92,1.26l-1,.6c-.33.19-.67.34-1,.51l-2,1-2.06.79-1,.39-1,.3a48.77,48.77,0,0,1-16.42,1.91,25.72,25.72,0,0,1-14.85-5.6,21.52,21.52,0,0,1-5.12-5.8,21,21,0,0,1-2.89-7.78,17.68,17.68,0,0,1-.14-3.81,13.83,13.83,0,0,1,.63-3.21A11.48,11.48,0,0,1,77.86,318.61Z"></path><path d="M306.06,263.69c-.44.18-4.23-.36-8.34-2.09a27.51,27.51,0,0,1-5.91-3.34,21.84,21.84,0,0,1-4.05-3.95,18.26,18.26,0,0,1-3.53-7.12,24.84,24.84,0,0,1-.55-8.25,36.84,36.84,0,0,1,1.7-8.05,74.56,74.56,0,0,0,2.15-7.23,31,31,0,0,0,.74-12.08,14.05,14.05,0,0,0-2-5.11l-.36-.56-.37-.46a7.79,7.79,0,0,0-.88-.84,9.79,9.79,0,0,0-2.17-1.31,20.17,20.17,0,0,0-5.12-1.44,41.08,41.08,0,0,0-5.23-.46,72,72,0,0,0-9.44.36,29.66,29.66,0,0,1,9.67-3.07,21.18,21.18,0,0,1,9.16.37,16,16,0,0,1,5.18,2.84,9.5,9.5,0,0,1,2,2.24l.72,1.2a11.63,11.63,0,0,1,.58,1.24,19.06,19.06,0,0,1,.89,2.53,23.71,23.71,0,0,1,.45,2.56,26.91,26.91,0,0,1,.12,5,46.21,46.21,0,0,1-1.7,9.15c-.4,1.45-.86,2.84-1.33,4.2s-.92,2.65-1.27,4c-1.41,5.22-1.52,10.44,0,14.75a19.34,19.34,0,0,0,8,9.7,44.44,44.44,0,0,0,6.1,3.35C303.45,262.74,305.42,263.43,306.06,263.69Z"></path><path d="M315.05,274.76c-.21-.16-.09-.89-.21-1.73a5.59,5.59,0,0,0-.69-2.22A36.89,36.89,0,0,0,310.5,266a62.5,62.5,0,0,1-6-7.28c1.59-.35,3.79.43,4.18,1.11a69.89,69.89,0,0,0,4.67,6.6c1.39,1.87,2.57,3.76,2.62,5.74a3.45,3.45,0,0,1-.33,1.61A4.31,4.31,0,0,1,315.05,274.76Z"></path><path d="M87.58,318.6c-.27.18-1-.28-1.76-.88s-1.55-1.4-2.06-1.78a15.65,15.65,0,0,1-4.42-5.59c-1.91-3.65-2.24-7.79-1.31-10.46,1.7,1.08,3.21,2.76,3.09,3.53a11.2,11.2,0,0,0,1.67,7.73c1.24,2,2.67,3.42,3.67,4.86A11.64,11.64,0,0,1,87.58,318.6Z"></path><path d="M71.32,317.18c-.28.16-1.1-.46-2-1.24s-1.75-1.88-2.27-2.46a18.54,18.54,0,0,1-4.22-7.57,19.37,19.37,0,0,1,.05-12.74c1.54,1.53,2.77,3.93,2.57,4.85a15.61,15.61,0,0,0,.79,9.69,41,41,0,0,0,3.72,6.41,4.13,4.13,0,0,1,.41.79c.14.29.3.59.43.9C71,316.41,71.26,317,71.32,317.18Z"></path><path class="cls-1 color-hair" d="M155,200.94s-12.44,0-22,0-24.51-6.83-36.77,3.12-15.48,22.3-14.3,34.9c.67,7.09,11.94,31.06-.41,32.25s-17,.5-20-4.39c0,0-.12,20.43,20.93,17.77,18.36-2.32,18.22-17.77,18.22-17.77"></path><path d="M100.68,266.82a4.39,4.39,0,0,1,.22,2,14.93,14.93,0,0,1-.84,4.25,17.9,17.9,0,0,1-2.92,5.37,20.28,20.28,0,0,1-5.61,4.67c-.57.29-1.16.55-1.74.82l-.89.41-.93.3-1.86.61c-.63.16-1.27.27-1.91.4a27.13,27.13,0,0,1-7.65.6,19.4,19.4,0,0,1-7-1.75,17.74,17.74,0,0,1-6.6-5.56,6.08,6.08,0,0,1-.38-.56c-.17-.26-.35-.54-.49-.8-.29-.52-.57-1.07-.84-1.61a25.85,25.85,0,0,1-2-6.73c-.17-1.11-.22-2.14-.31-3.25,0-.55-.06-1.11-.1-1.67l0-.88c0-.06,0-.18,0-.2l0,.05,0,.1c.12.31.26.31.4,0l.12-.5,0-.27.06-.57.12-1.21.11-2.34,2.38,3.37,1.4,1.9,1.33,1.79.67.91.34.45.16.23c.06.06.07,0,.1.07l1.37.69a5.3,5.3,0,0,0,.68.33c.22,0,.42.11.65.14l.75.1.66,0c.43,0,.89.05,1.35.05,1.84,0,3.79-.12,5.77-.3,1-.1,2-.2,3-.32l.75-.09c.22,0,.32-.07.49-.09a1.17,1.17,0,0,0,.4-.11,2.06,2.06,0,0,0,.33-.13,1.69,1.69,0,0,0,.79-.75,4.81,4.81,0,0,0,.51-1.63,18.6,18.6,0,0,0-.2-5.08,54.88,54.88,0,0,0-1.24-5.63c-1-3.82-2.31-7.55-3.43-11.64-.17-.63-.33-1.28-.47-2l-.11-.54-.08-.61c-.07-.45-.08-.71-.11-1.05l-.15-2-.07-2a47.8,47.8,0,0,1,.53-7.91A38.75,38.75,0,0,1,83.81,212a44,44,0,0,1,10.41-11.18,27.17,27.17,0,0,1,14.32-5.44c9.92-.83,18.14,2.71,25.19,3,7.76.4,14.91.88,21.27,1.43a148.36,148.36,0,0,1-21.95,4,63.69,63.69,0,0,1-11.63-.45l-7.63-.74a28.56,28.56,0,0,0-7.16,0,21.83,21.83,0,0,0-6.51,2.18l-1.47.92-.73.46-.72.56-1.45,1.12-1.36,1.2a34.21,34.21,0,0,0-4.78,5.31,30.28,30.28,0,0,0-3.48,6.06A32.21,32.21,0,0,0,84.06,227a37.82,37.82,0,0,0-.75,6.77c0,1.14,0,2.26,0,3.39l.1,1.67c.06.49.14,1,.25,1.53.45,2.13,1.12,4.31,1.73,6.46s1.26,4.31,1.81,6.47a60,60,0,0,1,1.33,6.56,20.22,20.22,0,0,1-.07,6.89,8.67,8.67,0,0,1-1.58,3.5,6.9,6.9,0,0,1-3.3,2.27,9.56,9.56,0,0,1-1.84.42c-.55.08-1,.11-1.55.17-1,.11-2,.2-3,.29a56.84,56.84,0,0,1-6.14.19c-.51,0-1-.05-1.56-.1-.27,0-.52,0-.79-.09l-.63-.09a6,6,0,0,1-1.37-.37,3.89,3.89,0,0,1-1.78-1.5c-.15-.31-.09.07-.07.25s.05.42.08.62c.07.41.15.8.25,1.18a10.77,10.77,0,0,0,.79,2.13c.09.16.17.32.26.47a7.34,7.34,0,0,0,.46.71,12.51,12.51,0,0,0,1.26,1.6,13,13,0,0,0,6.75,3.82,23.13,23.13,0,0,0,8,.26l1.61-.25.85-.12.84-.21,1.76-.42,1.76-.64a17.81,17.81,0,0,0,6.33-4.15,18.64,18.64,0,0,0,4.82-9.86Z"></path><path d="M161,199.07a14.1,14.1,0,0,1-4.83-1.35,10.47,10.47,0,0,1-3.26-2.66,10.11,10.11,0,0,1-1.09-1.7c-.15-.28-.3-.54-.42-.79s-.22-.5-.31-.72a11.06,11.06,0,0,1-.8-2.5c-.09-.43-.11-.86-.16-1.31a5.23,5.23,0,0,1,0-1.5c0-.3.09-.6.14-.91a5.52,5.52,0,0,1,.29-.9,7.46,7.46,0,0,1,.37-.88c.15-.27.32-.54.5-.8a9.5,9.5,0,0,1,2.49-2.49,16.82,16.82,0,0,1,5.28-2.36,33.25,33.25,0,0,1,4.9-.92,37.1,37.1,0,0,1,15,1.55,44.15,44.15,0,0,1,11.14,5.25c-3.6,2.41-9.43,4.67-11.21,3.78a35.68,35.68,0,0,0-10.56-3.53,21.66,21.66,0,0,0-9.28.4,7.06,7.06,0,0,0-3.05,1.65,2.4,2.4,0,0,0-.61,1c-.07.15,0,.35-.1.51s0,.53,0,.79a10.88,10.88,0,0,0,1.26,5.61,13.66,13.66,0,0,0,2,3.17A5.41,5.41,0,0,0,161,199.07Z"></path><path class="cls-1 color-hair" d="M103.72,251s17.46,17.41-3.1,30.27"></path><path d="M100.6,281.28c0-.17.23-.48.65-.87s1-.84,1.56-1.38a16.14,16.14,0,0,0,2.91-3.17,23.59,23.59,0,0,0,2.27-4.69,13.76,13.76,0,0,0,.71-4.95c-.3-5.67-3.43-11.08-5.38-14.77A8,8,0,0,1,107.2,253a6.36,6.36,0,0,1,2.28,2.56,40.41,40.41,0,0,1,1.77,7.7,20.27,20.27,0,0,1-.3,6.83,17.32,17.32,0,0,1-2.4,5.54,15.8,15.8,0,0,1-3.62,3.78,10.27,10.27,0,0,1-2.43,1.27A19.19,19.19,0,0,1,100.6,281.28Z"></path><path d="M110.52,284.54a15.13,15.13,0,0,1,2.36-2.2,32.25,32.25,0,0,0,4.48-4.94,16.21,16.21,0,0,0,2.77-8.45,17.57,17.57,0,0,0-.78-5.05c-.15-.42-.3-.84-.46-1.26s-.36-.83-.54-1.24-.42-.81-.65-1.2l-.35-.57c-.1-.15-.2-.3-.3-.43a11.44,11.44,0,0,1-1-.9c-.38-.36-.72-.76-1.07-1.14a22.65,22.65,0,0,1-1.84-2.5,23.87,23.87,0,0,1-2.59-5.62,33.09,33.09,0,0,1-1.4-11.86c.08-1,.09-1.88.23-2.86.08-.49.15-1,.25-1.46s.27-1,.4-1.41a18.8,18.8,0,0,1,2.55-4.88,28.63,28.63,0,0,1,6.5-6.24,54.15,54.15,0,0,1,12-6.31,85.47,85.47,0,0,1,13.33-3.91,25.14,25.14,0,0,1,7.5-.57,35.3,35.3,0,0,1,7.23,1.71c2.19.7,4.32,1.34,6.51,1.86s4.39.95,6.64,1.26c1.14.17,2.19.32,3.22.37a15.36,15.36,0,0,0,3-.08,6.68,6.68,0,0,0,2.37-.73,3.1,3.1,0,0,0,1.32-1.34,7.46,7.46,0,0,0,.11-4.93,6.55,6.55,0,0,0-.19-.67c0-.14,0-.11,0-.13l-.18-.4c-.26-.58-.5-1.15-.73-1.73-.45-1.15-.86-2.32-1.21-3.53a22.48,22.48,0,0,1-1-7.8,9.77,9.77,0,0,1,1.39-4.52,8,8,0,0,1,.8-1.06c.27-.3.52-.52.79-.78a14.1,14.1,0,0,1,1.69-1.33,20.41,20.41,0,0,1,7.36-2.74,51.91,51.91,0,0,1,7.1-.75c4.05-.14,8,0,11.94.21,2,.11,3.92.24,5.87.4,1,.08,1.88.11,2.83.17s1.86.1,2.78.09h1.37l1.36-.06c.45,0,.9,0,1.35-.07l1.31-.16a16,16,0,0,0,4.73-1.23,5.52,5.52,0,0,0,1.51-1.05,3.14,3.14,0,0,0,.34-.48h0c0,.07,0-.22-.09-.41l-.16-.61c-.11-.42-.26-.83-.38-1.25-.29-.82-.57-1.64-.94-2.44a26.71,26.71,0,0,0-14-14.33,16.51,16.51,0,0,0-2.37-.9,15.94,15.94,0,0,0-2.45-.7l-2.49-.49c-.85-.13-1.76-.21-2.64-.32-3.52-.37-7-.64-10.42-.74A67.21,67.21,0,0,0,177.81,160c-3.14.8-6.22,1.77-9.26,2.77-1.52.5-3.07,1-4.47,1.5s-2.87,1.1-4.29,1.67c-5.7,2.36-11.25,4.74-16.71,6.6-2.74.92-5.45,1.73-8.13,2.37a55.53,55.53,0,0,1-8,1.25c2.27-.72,4.72-1.58,7.25-2.66s5.18-2.31,7.89-3.65c5.42-2.69,11-5.83,16.8-8.65,1.45-.71,2.91-1.38,4.43-2s2.88-1.14,4.31-1.67c2.84-1.06,5.62-2,8.29-2.76a54.75,54.75,0,0,1,13.4-2.18,92.16,92.16,0,0,1,19.07,1.67l2.29.41c.77.16,1.56.36,2.34.54s1.56.31,2.31.57l2.27.78c.37.13.75.24,1.12.4l1.07.51,2.14,1a33.09,33.09,0,0,1,3.92,2.63,20.15,20.15,0,0,1,1.8,1.5l1.67,1.64a33.69,33.69,0,0,1,7,11.68c.25.71.47,1.43.67,2.16.09.37.19.71.27,1.12a5.21,5.21,0,0,1,.13.79,3.56,3.56,0,0,1-.1.79,5.3,5.3,0,0,1-1.41,2.46l-.46.46-.5.38a5.78,5.78,0,0,1-1,.66,13.61,13.61,0,0,1-2.15,1,19,19,0,0,1-2.18.58,31,31,0,0,1-4.33.59l-2.15.1L221,187c-1.42,0-2.81-.13-4.2-.19-2.75-.2-5.44-.42-8.13-.55a84.57,84.57,0,0,0-15.72.32,18.29,18.29,0,0,0-6.94,2.23,5.07,5.07,0,0,0-.72.49,6.88,6.88,0,0,0-.67.54l-.61.59a4.35,4.35,0,0,0-.43.6,6.45,6.45,0,0,0-.8,3.1,21.44,21.44,0,0,0,1.25,7c.38,1.14.81,2.27,1.29,3.37l.39.84a9,9,0,0,1,.35,1,18,18,0,0,1,.43,2,11.91,11.91,0,0,1,0,4.08,7.36,7.36,0,0,1-2,3.84,8.36,8.36,0,0,1-3.68,2.08,15.09,15.09,0,0,1-3.89.52,27.13,27.13,0,0,1-3.74-.22c-1.19-.17-2.36-.34-3.53-.53-2.35-.4-4.66-.89-6.93-1.49s-4.49-1.32-6.6-2a20.32,20.32,0,0,0-6.12-1,30,30,0,0,0-6.17.88q-3.12.69-6.15,1.61a71.83,71.83,0,0,0-11.46,4.49,33.31,33.31,0,0,0-9.34,6.64,15.89,15.89,0,0,0-3,4.33c-.15.4-.34.77-.46,1.18s-.25.8-.34,1.2l-.22,1.23-.11,1.38a32.68,32.68,0,0,0,.71,10.64,25.88,25.88,0,0,0,1.91,5,20.39,20.39,0,0,0,1.58,2.54c.3.42.64.82,1,1.22.18.19.35.39.54.57l.3.29.49.43a13.92,13.92,0,0,1,1.38,2.48c.19.39.34.8.49,1.2a10.07,10.07,0,0,1,.43,1.24,18.66,18.66,0,0,1,.84,5.13,16.46,16.46,0,0,1-2.67,9.26c-.43.61-.83,1.21-1.25,1.76l-1.39,1.46-.65.69-.71.57-1.3,1-.6.48-.61.38-1.09.67Z"></path><path d="M236.28,209c0-.68,1.71-1.36,3.61-2.14a24.9,24.9,0,0,0,5-2.52,40.27,40.27,0,0,0,5-4.28,11.36,11.36,0,0,0,1.72-2.35,7.21,7.21,0,0,0,.75-2.49c.41-2.94-1-6.54-2.76-9.63a63.56,63.56,0,0,0-5.46-8.05,13.72,13.72,0,0,1,5,1.66,9.35,9.35,0,0,1,3.45,2.8,30.65,30.65,0,0,1,3.69,9.69,14.49,14.49,0,0,1,0,4.83,12.94,12.94,0,0,1-1.71,4.24,18.64,18.64,0,0,1-5.76,5.66,13.46,13.46,0,0,1-1.56.94c-.53.28-1,.58-1.56.8a18.49,18.49,0,0,1-3.11,1.07,10.46,10.46,0,0,1-3.6.21A18.83,18.83,0,0,1,236.28,209Z"></path><path d="M316.67,281.41a3.86,3.86,0,0,1-.39,1.62,8.5,8.5,0,0,1-1.26,2,12.08,12.08,0,0,1-5,3.45,21.57,21.57,0,0,1-8.93,1.46,15.51,15.51,0,0,1,3.49-1c5.48-.33,9.4-2.8,11-5.46a11.9,11.9,0,0,0,.68-1.16C316.48,281.91,316.6,281.53,316.67,281.41Z"></path><path class="cls-1 color-hair" d="M68.49,283.89s-1.15,6.77-13.92,5.94c0,0,12.78,27.33,37.71.7"></path><path d="M92.3,290.55c0,.2-.36.76-1,1.53-.32.38-.69.83-1.12,1.29l-1.42,1.44a51,51,0,0,1-6.11,5,23.59,23.59,0,0,1-4.38,2.54,19.12,19.12,0,0,1-5.23,1.4,17.23,17.23,0,0,1-5.59-.3,18.58,18.58,0,0,1-5.09-2.07,22.92,22.92,0,0,1-6.68-6.1,29.54,29.54,0,0,1-3.28-5.56c-.23-.51-.49-1-.69-1.54l1.72-.06a34.38,34.38,0,0,1,3.52,0h1.37a8.33,8.33,0,0,0,.87,0,14.8,14.8,0,0,0,1.67-.15l.82-.11.77-.18a13.9,13.9,0,0,0,1.47-.44,8.88,8.88,0,0,0,2.44-1.42,6,6,0,0,0,1.56-2,4.2,4.2,0,0,1-.44,3,8.07,8.07,0,0,1-2.54,2.9,10.86,10.86,0,0,1-5.83,2l-.93-.06c-.1,0-.08,0-.09,0l0,0-.07,0a2,2,0,0,0-.45-.19l-.32-.09c-.08,0-.08,0-.08,0a.19.19,0,0,0,0,.08,1.22,1.22,0,0,0,.08.41,1.43,1.43,0,0,0,.09.27l.07.15a1,1,0,0,0,.13.23c.26.44.54.86.82,1.28a23.47,23.47,0,0,0,1.86,2.31,15.59,15.59,0,0,0,9.34,5.14,16.8,16.8,0,0,0,9.19-1.67,41.88,41.88,0,0,0,7.15-4.42c1-.73,2.42-1.75,3.71-2.62S91.92,290.8,92.3,290.55Z"></path><g data-name="HAIR highlights" id="HAIR_highlights"><g class="cls-2"><path class="cls-3" d="M105.6,236.24a7.66,7.66,0,0,1-.11-3.86,21,21,0,0,1,3-7.45c3.24-5.28,8.4-10.15,11.75-13l1.17,1.52-.74.62-6.41,5.45-3.37,2.82-6.09,4.93a10.76,10.76,0,0,1-2-.31,12.24,12.24,0,0,0-1-1.6c.33-.73.69-1.51,1-2.3q1-2,2-4.14l.25-.52.11-.24,0,.1-.19.39-.39.8c-.54,1.09-1.08,2.2-1.62,3.31l-.4.41,2.6-2.2c.33-.27.15-.12.14-.11l-.11.09-.22.2-.9.77-.88.77L99.35,226l-.86-.48L97.7,225c-.5-.41-1-.79-1.54-1.16q1.5-3.75,3-7.42l-.28.69s0,0,.07-.12,0-.08,0-.08-.08,0-.19.09l-3.38,3.63-6.68,7-2.53-1.39a31.27,31.27,0,0,1,2.51-5.68A51.68,51.68,0,0,1,91.59,216a68.13,68.13,0,0,1,6-7.34c-1.26,2.46-3,5.61-4.52,8.92a49.27,49.27,0,0,0-3.62,9.66l-3.19-1.76c1.71-2.11,3.18-3.8,4.23-4.85l5.11-5.13.61-.63,1-1,2-2.09L102.7,208a7.85,7.85,0,0,0,2.42-.81,24.84,24.84,0,0,1-.35,3.29c-.94,2.27-1.88,4.51-2.79,6.67l-.68,1.61q-.22.49-.42,1c-.35.82-.69,1.63-1,2.34l1.87-1.56-1.16,1,0,0,.06-.05.12-.1.23-.2.47-.39.92-.78,3.1-2.63,2.8-1.4c-.2.85-.4,1.69-.59,2.51l-.14.61-.06.31c0,.07,0,0,0-.05l.22-.42-1.29,2.75-.93,2.05,1.91-1.57,2.17-1.78,3.63-2.92,6.86-5.47,1.36,1.77a67.75,67.75,0,0,0-8,7.37,41.25,41.25,0,0,0-6,8.15,17.38,17.38,0,0,0-1.6,4.3,14.53,14.53,0,0,0-.26,1.68Z"></path></g><g class="cls-2"><path class="cls-3" d="M135,193c.45-.45,5.22-2.17,11.07-4.2l.44,1.07a7.4,7.4,0,0,1-1.41.49,14.11,14.11,0,0,1-1.41.29c-.94.16-1.89.27-2.84.35-1.91.17-3.81.27-5.65.33-3.66.12-7,.13-9.41.16l0-2,.2,0a16.24,16.24,0,0,0,5.16-1.4,41,41,0,0,0,5.13-2.58,87.33,87.33,0,0,0,9.94-6.78l1.86,2.68a14.6,14.6,0,0,1-3,1.24c-1,.3-1.9.53-2.86.76-1.89.46-3.79.81-5.69,1.15-3.8.66-7.57,1.2-11.31,1.66l-.67-3.75c.7-.22,1.36-.39,2-.65a101.52,101.52,0,0,0,10.11-4.46c3.29-1.63,6.52-3.32,9.57-5l1.88,3.48a24.79,24.79,0,0,1-4.55,1.59c-1.47.41-2.91.71-4.33,1-2.84.57-5.6,1-8.29,1.36-5.37.74-10.39,1.23-15,1.57l-.47-2.7a29.94,29.94,0,0,0,5-1.65c1.57-.66,3-1.35,4.41-2.05,2.76-1.4,5.2-2.79,7.41-4.14a48.35,48.35,0,0,1-6.9,5.9,35,35,0,0,1-9.22,4.91l-.57-3.31c4.32-.74,8-1.35,10.2-1.54,3.8-.33,7.52-.74,11.07-1.29,1.77-.28,3.5-.58,5.17-1a25.92,25.92,0,0,0,4.63-1.42l1,1.93c-3.85,2-7.61,3.87-11.34,5.6-1.86.86-3.71,1.69-5.57,2.44a43.38,43.38,0,0,1-5.65,2l-.27-1.51c4-.43,7.87-1,11.58-1.61q2.79-.48,5.43-1.08a21.13,21.13,0,0,0,4.82-1.61l1,1.47a83.64,83.64,0,0,1-10.6,7.05,39.59,39.59,0,0,1-5.49,2.57,17.8,17.8,0,0,1-5.91,1.27l0-2.22c4.5.11,8.76.15,12.81.05,1.22-.05,2.63-.09,4-.19a15.7,15.7,0,0,0,3.31-.5l.52,1.26C140.71,191.6,136.27,192.7,135,193Z"></path></g><g class="cls-2"><path class="cls-3" d="M87.59,279c.06-.29,1.46-1.16,2.78-2.56a23,23,0,0,0,3.24-4.19c.26-.49.55-1,.83-1.53l1.65.73a3.67,3.67,0,0,1-1,1.7,6,6,0,0,1-1.46,1.06,13.62,13.62,0,0,1-3.13,1.15,35.45,35.45,0,0,1-6.25.84c-1.25.07-2.47.08-3.62,0l-.08-3c.76-.13,1.54-.19,2.27-.36a13.25,13.25,0,0,0,2.08-.62,10.42,10.42,0,0,0,1.84-.88c.27-.19.53-.39.78-.58a6,6,0,0,0,.69-.64,9.55,9.55,0,0,0,2.37-6.44,6.55,6.55,0,0,1,1.15,4.62,6.38,6.38,0,0,1-1.89,4.05,12.61,12.61,0,0,1-4.59,2.32c-.77.21-1.54.32-2.28.48l-2.2.22,0-1.35a33.83,33.83,0,0,0,8.21-.34,16.07,16.07,0,0,0,3.46-1c1-.44,1.88-1.1,2-1.79l1.47.65a23.31,23.31,0,0,1-3.48,4.48,12.31,12.31,0,0,1-2.65,2,13.31,13.31,0,0,1-1.34.65Z"></path></g><g class="cls-2"><path class="cls-3" d="M68.22,298.37c.1-.23,1.44-.66,2.81-1.55a19.07,19.07,0,0,0,3.52-2.8c.32-.34.63-.69,1-1.09l1.21.94a3.86,3.86,0,0,1-2.58,1.78,11.39,11.39,0,0,1-2.82.31,30.55,30.55,0,0,1-5.33-.55c-1-.2-2.06-.43-3-.69l.53-2.48c.65,0,1.31.14,1.94.15a10.25,10.25,0,0,0,1.85-.09A9.49,9.49,0,0,0,69,292a7.86,7.86,0,0,0,1.46-.7,8,8,0,0,0,3.24-4.82,5.85,5.85,0,0,1-2.37,7,13.36,13.36,0,0,1-8.08.63l.24-1.11a29.41,29.41,0,0,0,6.86,1.36,13.32,13.32,0,0,0,3.06-.12,2.8,2.8,0,0,0,2-1.05l1.08.83a20,20,0,0,1-3.76,3,10.8,10.8,0,0,1-2.59,1.1A8.41,8.41,0,0,1,68.22,298.37Z"></path></g><g class="cls-2"><path class="cls-3" d="M119.56,334.71a5.89,5.89,0,0,1-1.91,1.07,24.2,24.2,0,0,1-4.38,1.07,75.78,75.78,0,0,1-9.41.7l-1,0,0-1.08a12.57,12.57,0,0,0,3.46-.69,36.19,36.19,0,0,0,3.54-1.31c2.35-1,4.72-2.15,7-3.38l.48,1.67-.93.08-.14,0-.22,0h0s0,0,0,0v.26l0,.87-.07,1.74,0,.84h.1l.33-.07.07,0h0l-.16,0-.09,0h0s0,0,0,0V335l0-1.41v-.67h-7.71l-.14-1.95a72.37,72.37,0,0,0,7.34-2.12c2.41-.8,4.76-1.6,7-2.37l.67,1.72a20.32,20.32,0,0,1-5.49,1.28,22.7,22.7,0,0,1-5.19-.22,24.66,24.66,0,0,1-8.34-2.94,41.62,41.62,0,0,0,7.56,1.42,35.76,35.76,0,0,0,6.48-.15,18.09,18.09,0,0,0,4.34-.93L123,328l-7.55,2.37a71.17,71.17,0,0,1-7.16,1.92l-.06-.79,4.74,0,2.3,0h.57l.26,0c.05,0,0,0,0,0h0l1.1-.1.22.76a80.6,80.6,0,0,1-7.35,3.48,37.66,37.66,0,0,1-3.6,1.26,13.12,13.12,0,0,1-3.69.59l0-1.1c2.62.06,5.09,0,7.42-.13,1.54-.1,3.65-.23,5.47-.54a15.09,15.09,0,0,0,2.42-.55A11.91,11.91,0,0,0,119.56,334.71Z"></path></g><g class="cls-4"><path d="M284.78,265.53a3.87,3.87,0,0,1-1.8-1,16.13,16.13,0,0,1-2.67-3.26,58.21,58.21,0,0,1-4-7.81l-.34-.8,1.44-.67a36.92,36.92,0,0,0,4.2,4.6c1.57,1.51,3.24,3,4.91,4.45l-1.91,1.76a20.9,20.9,0,0,1-1.27-1.82c-.4-.66-.72-1.32-1-1.9-.62-1.19-1.29-2.33-2-3.46-.25-.39-.49-.77-.72-1.15l2.36-1.73c.71.76,1.64,1.58,2.52,2.36l2.71,2.3,5.27,4.38L290.77,264a20.66,20.66,0,0,1-3.77-3.83,22,22,0,0,1-2.42-4.28,22.81,22.81,0,0,1-1.83-8.12,57.89,57.89,0,0,0,3.32,6.36c1.3,2.12,2.73,3.84,3.42,4.79a16.69,16.69,0,0,0,2.75,3l-1.34,1.79-5.49-4.91c-1.76-1.61-3.48-3.06-5-4.76l.95-.7c.88,1.46,1.72,2.9,2.47,4.35.37.72.71,1.44,1.08,2.08a17.39,17.39,0,0,0,1.25,1.83l-.91.84c-1.83-1.6-3.52-3.16-5.08-4.73a30.13,30.13,0,0,1-4.16-4.93l1.5-.69c.81,2.21,1.68,4.27,2.57,6.18a48.21,48.21,0,0,0,2.32,4.46,11.84,11.84,0,0,0,.69,1,6.44,6.44,0,0,0,.68.81,3.21,3.21,0,0,0,.6.58Z"></path></g><g class="cls-4"><path d="M201.23,222.81c0,.14-.32.51-.94.78a10.06,10.06,0,0,1-2.39.71c-.48.1-1,.17-1.49.25s-1,.13-1.75.19c-1.41.13-2.84.19-4.16.25a8.35,8.35,0,0,0-1.24-.56l-.55-.23-.06,0h0l.11,0,.2,0c.25,0,.43,0,.54-.38a9.2,9.2,0,0,0,.08-1.72l.7-.16.18,0,.06,0,.11-.07.47-.29.23-.14.13-.15.26-.3a2,2,0,0,0,.34-.71l2.44,1.74a11.65,11.65,0,0,1-2.37,1.19c-.75.28-1.5.53-2.24.76-1.49.45-3,.83-4.44,1.16l-.73-3.75.49-.15a3.2,3.2,0,0,0,1.45-1,3.81,3.81,0,0,0,.46-.79,3.26,3.26,0,0,0,.15-.44c0-.12.08-.36.08-.34l3,1.88a8.23,8.23,0,0,1-1.37.61c-.41.15-.78.26-1.16.37-.76.22-1.48.39-2.2.56-1.44.32-2.83.58-4.21.79l-.52-3.44a7.14,7.14,0,0,0,2.38-.54,7,7,0,0,0,1.94-1.44,11.9,11.9,0,0,0,2.43-4.1,7.58,7.58,0,0,1-.48,6,7.43,7.43,0,0,1-2.27,2.59,5.86,5.86,0,0,1-2.42,1c-.45,0-.88,0-1.24,0l-.54-3.56c1.49-.11,3-.28,4.37-.5.7-.11,1.38-.24,2-.38a9.36,9.36,0,0,0,1.72-.52l1.76-.79-.29,1.71a6.64,6.64,0,0,1-1.83,3.5,6.37,6.37,0,0,1-3.25,1.63l-.29-1.51c1.55-.3,3.05-.66,4.45-1.07.7-.21,1.38-.43,2-.68a7.43,7.43,0,0,0,1.67-.81l2.11-1.52-.7,2.52a6.56,6.56,0,0,1-.3.79,2.77,2.77,0,0,1-.2.34,2.16,2.16,0,0,1-.51.53,2.26,2.26,0,0,1-1.19.41h1.4l1.17,0,.47,0,1,0,2.05.06A8.1,8.1,0,0,0,201.23,222.81Z"></path></g><g class="cls-2"><path class="cls-5" d="M279.45,222.88c-.19-.1-.37-.66-.79-1.46a24.78,24.78,0,0,0-1.75-2.92,38.84,38.84,0,0,0-5.36-6.15l.92-1.45a17.69,17.69,0,0,1,1.79.73,35,35,0,0,1,8.4,6.05L280,219a12.88,12.88,0,0,0-2.66-4.85,33.43,33.43,0,0,0-4.18-4.3l1.79-3.31.12,0a19.62,19.62,0,0,1,6.28,3.55l.65.53.13.11,0,0s0,0,0,0l.07.13c.1.18.17.11.21-.08a1.56,1.56,0,0,0,0-.2s0-.1-.09-.19l-.13-.27-.27-.54a5,5,0,0,0-.64-1,4.3,4.3,0,0,0-.75-.84c-2.19-2.1-5.59-2.53-8.21-2.31a9.31,9.31,0,0,1,7.61-1.38,4.72,4.72,0,0,1,1.1.36,8.27,8.27,0,0,1,1.05.48,9,9,0,0,1,1.73,1.31,8.27,8.27,0,0,1,1.85,2.7,1.87,1.87,0,0,1,.12.41l.12.47.22.92c.15.59.29,1.17.43,1.75.06,1,.12,2,.17,2.92s.05,1.87.07,2.73v.94c0,.08,0,.26,0,.24a2,2,0,0,0-.26.39c-1.58-1.82-3-3.49-4.27-4.77l-.93-.93-.88-.82-.67-.6c-.2-.18-.39-.35-.6-.51a15.56,15.56,0,0,0-5-3l.72-1.33a39.25,39.25,0,0,1,4.64,5,14.25,14.25,0,0,1,2.91,5.83l.54,2.79-2.11-2a51.69,51.69,0,0,0-4.57-3.91,20.06,20.06,0,0,0-4.52-2.75l1.17-1.84a34.42,34.42,0,0,1,2.92,3.41,21,21,0,0,1,2.67,4.73A11.92,11.92,0,0,1,279.45,222.88Z"></path></g><g class="cls-2"><path class="cls-5" d="M294.61,211.38a6.25,6.25,0,0,1-.46-1.21,18.49,18.49,0,0,0-1.08-2.41,28.9,28.9,0,0,0-3.1-4.62c-.7-.83-1.45-1.69-2.29-2.59L286,198.8l2.35.63a11.62,11.62,0,0,1,4.83,2.94,26.21,26.21,0,0,1,1.91,2l.43.54.1.12h0l0,0h0s0,0,0,0v0h0v0s0,.12,0-.17a7,7,0,0,0-.31-1.13c-.13-.36-.22-.74-.37-1.08a8.28,8.28,0,0,0-2.51-3.36,9.55,9.55,0,0,0-7.14-1.43,8,8,0,0,1,4.63-1.19,11.33,11.33,0,0,1,1.32.18c.43.11.83.26,1.2.39a7.68,7.68,0,0,1,1,.52l.39.25.27.27a10.42,10.42,0,0,1,.9,1c.25.37.49.73.72,1.09s.36.76.54,1.14a4.83,4.83,0,0,1,.42,1.13l.33,1.14a3.86,3.86,0,0,1,.12.57l.1.66a13.14,13.14,0,0,1,.21,1.55c.05.46.06,1,.09,1.43-.07.19-.14.39-.2.59l-.09.3,0,.15a.12.12,0,0,1,0,.07l0-.05a4.31,4.31,0,0,0-1.06-1c-.2-.3-.4-.61-.59-.92s-.4-.55-.59-.83l-.3-.4-.22-.28c-.15-.19-.29-.37-.44-.54a21.72,21.72,0,0,0-1.84-2,10.5,10.5,0,0,0-4.07-2.51l.53-.83a32.48,32.48,0,0,1,4.36,6.06,14.19,14.19,0,0,1,1.29,3.15,12.82,12.82,0,0,1,.32,1.5Z"></path></g><g class="cls-4"><path d="M78.2,311.2a2.27,2.27,0,0,1-.74-.83,14.88,14.88,0,0,1-1-2.06c-.63-1.61-1.14-3.49-1.48-4.52-.1-.32-.2-.64-.3-1l1,.1a9.14,9.14,0,0,0-.32,2.27l0,.62v.82c0,.79,0,1.61.08,2.54a3.7,3.7,0,0,0-.68.54,6.54,6.54,0,0,0-.85.14l-1.24-2-.54-.89,0-.05s0,.06,0,0h0s0-.1,0,0l0,.6c.12,1.46.24,2.89.35,4.29-1.11-1.17-2.17-2.27-3.1-3.34L69,308l-.18-.23-.37-.47c-.23-.31-.46-.62-.67-.93a18.41,18.41,0,0,1-2-3.6l2.89,2.71c.5.48,1,.93,1.4,1.34l.15.14h0v0a1.83,1.83,0,0,0,.2.4s.08,0,.1-.17a1.5,1.5,0,0,0,0-.24s0,0,0-.16v-.34l0-.61c0-.8,0-1.52,0-2.16v-1.79s0-.12,0-.05c.73,1.2,1.37,2.25,2,3.41l1.21,2c.18.3.37.63.51.81,0-.38,0-.75-.07-1.1l0-.75v-.56l0-.66a9,9,0,0,1,.48-2.55l.58-1.52.37,1.61c.34,1.46.7,2.83,1,4.12.21.74.45,1.77.72,2.67A9.15,9.15,0,0,0,78.2,311.2Z"></path></g><g class="cls-2"><path class="cls-5" d="M304.12,306.75c.07.1,0,.55.14,1.19a16.48,16.48,0,0,0,.89,3.35,1.18,1.18,0,0,0,0,.59,4,4,0,0,1-.9-.46,7.84,7.84,0,0,1-1.46-1.16,6.58,6.58,0,0,1-.52-.53l-.49-.55c-.25-.28-.48-.56-.72-.85-.47-.58-.93-1.19-1.39-1.85l1.43-.33a5.59,5.59,0,0,0,.83,2.65,17.55,17.55,0,0,0,1.78,2.51c.49.58,1,1.17,1.49,1.62l3,3-4-1.33a11.53,11.53,0,0,1-3.84-2.08,10.32,10.32,0,0,1-2.45-3.27,11.52,11.52,0,0,1-1-6.52c.37,1,.87,2.21,1.38,3.32s1.09,2,1.29,2.56a8.26,8.26,0,0,0,5,4.62l-.43.72a26.65,26.65,0,0,1-2.92-3.73,7.45,7.45,0,0,1-1.41-4.2l.06-1.39.8,1.19c.37.55.76,1.08,1.13,1.59l.57.75.45.56c.17.21.34.4.53.6a2.93,2.93,0,0,0,.31.29l.19.13s0,0,0,0v-.08a.81.81,0,0,1,0-.25,8.58,8.58,0,0,1,0-1.21A4.64,4.64,0,0,1,304.12,306.75Z"></path></g><g class="cls-2"><path class="cls-5" d="M239.41,191.78a6.92,6.92,0,0,1,1-1.66c.71-1.06,1.73-2.53,2.81-4.07l-.26,2.9c0,.48-.07.93-.11,1.35s-.07.88-.07,1.07c0,.36,0,.72,0,1.09,0,.22,0,.32,0,.45a4.33,4.33,0,0,0,.05.53l.31-.51.11-.17,0-.07,0,0,.14-.19,1.57-2,2.25-2.85c.09,1.51.17,3,.26,4.42.06,1.12.13,2.24.19,3.36,0,.5.06,1,.08,1.51,0,.18,0,.11,0,.12h0s0,0,0,0h0s0,0,.06-.06a5.62,5.62,0,0,0,1.15-2.1,9,9,0,0,0-.11-4.72,14.65,14.65,0,0,0-.72-2.12c-.14-.33-.29-.66-.45-1l-.24-.43c-.08-.12-.19-.29-.21-.27s.21,0,.35.12a4.23,4.23,0,0,1,.41.33,7.45,7.45,0,0,1,.81.86,10.16,10.16,0,0,1,1.38,2.19,7.61,7.61,0,0,1,.79,4.29,7.78,7.78,0,0,1-.75,2.24,6.41,6.41,0,0,1-.62,1,3.75,3.75,0,0,1-.35.44,5.65,5.65,0,0,1-.45.48,15,15,0,0,1-2.35,1.73,16.38,16.38,0,0,1-.2-2.74q0-1.93-.09-3.75l-.11-2.43-5,6.41q.33-3.21.62-6.1c.05-.39.09-.77.14-1.14l.15-1,0-.1c-.23.27-.53.5-1.07,1Z"></path></g><g class="cls-4"><path d="M176.64,209a6.47,6.47,0,0,1-.24-1.8l-1,.62-1.9,1.15c-.08-.87-.17-1.73-.25-2.5-.05-.37-.1-.62-.14-.79l-.13-.44-.3.61s0,.07,0,0l.08-.11.17-.25-.35.61L171,208.79l-.72,1.16-.36.59-.31.44c0-1.17.1-2.35.16-3.53,0-.64,0-1.1,0-1.67,0-.27,0-.55,0-.81l-.07-.44a19.41,19.41,0,0,0-.72-2.94,24.67,24.67,0,0,0-1.72-4L169,197a23.94,23.94,0,0,1,0,4.63,19.59,19.59,0,0,1-.34,2.19,9.26,9.26,0,0,1-.69,2.13,4.87,4.87,0,0,1-1.51,1.69,6.8,6.8,0,0,1-1.82.85,9.67,9.67,0,0,1-3.38.35,14.73,14.73,0,0,0,3.79-2,4.19,4.19,0,0,0,1.14-1.36,3.17,3.17,0,0,0,.26-.62c.08-.18.13-.43.2-.58a18.21,18.21,0,0,0,.83-7.13l.91-.31a27.46,27.46,0,0,1,2,5.51c.12.46.21.91.3,1.35,0,.23.07.45.1.68l0,.33s0,.13,0,.19a8.76,8.76,0,0,1,.06,1.41v.09s0,.08,0,0l.11-.19.22-.37c.07-.11.18-.29.12-.21l0,0h0l0-.07.1-.15,2.3-3.67c.11,1.35.21,2.65.32,3.92l.08,1.23v.59l.05,0a3.54,3.54,0,0,1,.34-.16,3.87,3.87,0,0,0,.63-.28,11.43,11.43,0,0,1,1.56-.67C176.77,208.1,176.68,208.76,176.64,209Z"></path></g><g class="cls-2"><path class="cls-3" d="M201.62,214.11a7,7,0,0,1-.19-1.93,10.88,10.88,0,0,1,1-4.07,12.27,12.27,0,0,1,3.38-4.3,16.33,16.33,0,0,1,5.08-2.81l.12,1.13a15.69,15.69,0,0,0-3.6.33,14.38,14.38,0,0,0-2.75.94l-1,.5-.47.28-.12.07-.21.13-.38.26a12.88,12.88,0,0,0-1.69,1.37l-2.23,2.27-.06-.31-.07-.17,0-.05s0,0,0,0v-.13l.06-.5c.08-.67.17-1.35.25-2,.05-.34.09-.68.15-1l.24-1.11a13.49,13.49,0,0,1,.61-2.06,12.89,12.89,0,0,1,1.51-2.86,9.59,9.59,0,0,1,1.09-1.31,7,7,0,0,1,1.46-1.16l.81,2.25a13.41,13.41,0,0,0-7.3,5.27l-2.8,3.86.33-4.72a14,14,0,0,1,.23-1.85c.07-.3.12-.61.2-.9l.14-.56a1.46,1.46,0,0,0,0-.2s0-.05,0,0a2,2,0,0,0-.15.18l-.91.9-.81.85-.41.43-.45.5c-1.2,1.3-2.46,2.85-3.71,4.33-.13-1-.25-2-.37-3l-.08-.72,0-.79a4.86,4.86,0,0,1,0-.91,9.15,9.15,0,0,1,.12-1l.2-1a2.93,2.93,0,0,1,.07-.34l.1-.4.09-.34h0v0l0-.07c.11-.14,0-.14-.11-.08l-.07.08a2.32,2.32,0,0,0-.18.36c-.08.19-.17.38-.24.57a12.84,12.84,0,0,0-.67,2.35l-2.52.14a15.82,15.82,0,0,1-.24-6.78,7,7,0,0,1,1.51-3.13,6.73,6.73,0,0,1,2.73-1.91,12.15,12.15,0,0,1,5.74-.53,21.52,21.52,0,0,1,4.91,1.17,32.1,32.1,0,0,0-5.34-.08,10,10,0,0,0-5.33,1.71,5.26,5.26,0,0,0-1.83,4.13,20.52,20.52,0,0,0,.31,3.8l.15,1-2.76.16a14.78,14.78,0,0,1,1-3.18c.12-.25.22-.5.36-.74l.27-.51a4.56,4.56,0,0,1,.34-.54,9.81,9.81,0,0,1,.73-1c.25-.25.5-.53.75-.75a6.32,6.32,0,0,1,3-1.42l.8-.17.41-.08.1,0s0,0,0,0l0,.06a1.15,1.15,0,0,0,.44.39c-.62,1.46-1.18,2.8-1.59,4l-.29.88-.24.78v0l0,.13-.07.26a6.89,6.89,0,0,0-.22,1.15,4,4,0,0,0,0,.6v.08l0,0,.08-.09.17-.18c.4-.42.79-.82,1.29-1.32s.72-.71,1.08-1.05l.77-.72.85-.73a17.12,17.12,0,0,1,3.15-2.11c.26-.14.5-.27.8-.4l.43-.19c.11-.06.08,0,.07,0l0,.09a.47.47,0,0,0,.18.56c-.62,1.07-1.18,2.06-1.59,2.9a15.75,15.75,0,0,0-.9,2.28c-.14.4-.17.59-.25.87s-.11.51-.17.77c-.09.51-.15,1-.19,1.5l-1.08-.37a17.55,17.55,0,0,1,3.8-3.8,13.17,13.17,0,0,1,4.72-2.21l.45,1.27a7.26,7.26,0,0,0-1.92,1.91,11,11,0,0,0-1.31,2.43,7.5,7.5,0,0,0-.29.88,5.23,5.23,0,0,0-.15.66c-.05.37-.27,1.14.21.52a6.5,6.5,0,0,1,1.19-.84,14.79,14.79,0,0,1,2.83-1.25,15.61,15.61,0,0,1,5.85-.76l.18,1.59a14.73,14.73,0,0,0-2.39,1,16.75,16.75,0,0,0-3.14,2,12.08,12.08,0,0,0-2.61,3.14l-.45.88c-.13.3-.22.6-.33.88a8.83,8.83,0,0,0-.44,1.65,7.21,7.21,0,0,0-.17,1.34Z"></path></g></g></g></g></g></svg>