<svg xmlns="http://www.w3.org/2000/svg" id="new" viewBox="0 0 380 600"><defs transform="matrix(-1, 0, 0, 1, 380, 0)"><style>.cls-1{fill:blue;}</style></defs><path class="cls-1 color-hair" d="M103.937,247.278q.042,26.363-.87,52.715c-.492,40.494,7.691,117.966-49.947,119.56,12.991,18.659,41.518,22.127,58.6,7.128.113,13.293-11.46,22.6-21.994,28.807,16.5,11.208,59.127-.444,78.188-5.488a65.894,65.894,0,0,0,18.788-10.047c6.995-5.5,8.506-7.254,16.24-2.091,28,17.462,60.536,33.595,94.307,31.6-10.824-6.976-23.195-16.456-23.409-30.472,20.813,10.6,39.944,15.373,63.05,8.538,1.829-.383-38.473-25.935-27.1-120.309,2.86-23.731,7.679-49.707-.284-72.81C291.077,212.8,248.473,177.926,200.989,183.4c-38.736,2.879-97.894,17.154-96.145,65.57" transform="matrix(-1, 0, 0, 1, 380, 0)" /><path d="M104.8,248.976a46.008,46.008,0,0,1,.265-9.965,37.692,37.692,0,0,1,.79-4.321q.281-1.152.581-2.383.4-1.2.831-2.479a44.506,44.506,0,0,1,5.388-10.643,55.458,55.458,0,0,1,9.364-10.453,75.448,75.448,0,0,1,12.934-8.992c9.619-5.372,20.924-9.385,32.864-12.254,5.976-1.431,12.119-2.6,18.344-3.481,3.113-.435,6.242-.838,9.385-1.142,3.138-.32,6.26-.55,9.423-.862a90.213,90.213,0,0,1,36.8,5.2,109.693,109.693,0,0,1,29.651,16.328,119.794,119.794,0,0,1,11.173,9.659c3.307,3.224,6.243,6.364,8.752,9.355a132.909,132.909,0,0,1,16.294,24.026l1.683,3.279,1.578,3.343.214.453a4.786,4.786,0,0,1,.192.547l.282.893.566,1.788c.406,1.185.7,2.4,1,3.617a85.248,85.248,0,0,1,2.347,14.847,134.841,134.841,0,0,1,.235,15.073c-.209,5.025-.617,10.043-1.132,15.05-1.026,10.01-2.536,19.98-3.42,29.95-1.757,19.95-1.585,40.346,2.469,60a117.643,117.643,0,0,0,9.486,28.271,83.334,83.334,0,0,0,7.654,12.616,68.49,68.49,0,0,0,4.662,5.642l1.136,1.2,1.262,1.29a9.839,9.839,0,0,1,1.118,1.29,3.533,3.533,0,0,1,.515,1.168,3.435,3.435,0,0,1,.086.943,1.279,1.279,0,0,1-.11.492l-.413.365-1.651,1.465-3,.807c-.493.126-1.019.288-1.48.38l-.959.2c-1.114.231-2.222.488-3.34.694l-3.372.522c-1.122.181-2.261.24-3.39.364a73.195,73.195,0,0,1-13.568-.078,90.6,90.6,0,0,1-25.654-6.9c-1-.431-2.024-.828-3-1.294l-1.986-.907-.186-.084c-.022,0-.078-.054-.07-.012l.011.1a1.676,1.676,0,0,0,.038.2l.021.062.051.167.1.337a8.48,8.48,0,0,0,.451,1.328l.527,1.307c.187.431.429.844.639,1.268a25.548,25.548,0,0,0,1.449,2.463,42.557,42.557,0,0,0,7.972,8.613c.764.644,1.554,1.264,2.34,1.886l.876.658c.409.3.79.607,1.223.907l1.27.9,1.339.9c3.5,2.375,7.353,4.84,10.867,7.149l-8.064.229-6.59.177c-1.042.06-2.235-.025-3.372-.057l-2.271-.081-1.8-.065-1.786-.17-3.572-.343c-2.379-.244-4.725-.689-7.088-1.027q-3.506-.684-6.992-1.452a162.5,162.5,0,0,1-26.81-9.113,251.71,251.71,0,0,1-24.961-12.663c-2.02-1.14-3.993-2.347-5.989-3.516l-5.944-3.635-1.385-.888c-.439-.245-.891-.542-1.317-.748a8.335,8.335,0,0,0-2.323-.9,2.816,2.816,0,0,0-1.71.191,11.17,11.17,0,0,0-2.3,1.383c-1.7,1.227-3.431,2.716-5.4,4.147a60.422,60.422,0,0,1-6.018,3.86,69.933,69.933,0,0,1-6.338,3.162c-1.075.475-2.16.92-3.251,1.344l-1.642.617-.411.149-.226.082a2.859,2.859,0,0,1-.391.122l-.846.224c-8.716,2.312-17.472,4.552-26.285,6.326a173.066,173.066,0,0,1-26.7,3.563,74.345,74.345,0,0,1-13.6-.567,42.191,42.191,0,0,1-6.819-1.589,12.4,12.4,0,0,1-1.212-.484l-1.383-.589c-.45-.206-.944-.369-1.357-.61l-1.236-.722c-.823-.481-1.64-.951-2.487-1.476l-1.26-.767c-.421-.256-.852-.516-1.191-.741l4.65-2.822,2.315-1.426c.39-.241.759-.467,1.142-.728l.671-.456c1.46-.973,2.854-2.013,4.2-3.09a39.239,39.239,0,0,0,7.107-7.187,22.608,22.608,0,0,0,1.375-2.029l.633-1.039.533-1.078a17.464,17.464,0,0,0,.931-2.2,1.144,1.144,0,0,0,.07-.182l.032-.1a1.246,1.246,0,0,0,.052-.423,3.083,3.083,0,0,1-.362.245l-1.319.794c-.844.434-1.718.81-2.576,1.214a40.921,40.921,0,0,1-5.306,1.984c-.893.3-1.827.442-2.738.668a23.771,23.771,0,0,1-2.758.539,41.434,41.434,0,0,1-5.57.474A46.543,46.543,0,0,1,76.291,437.6a45.376,45.376,0,0,1-10.323-3.769,42.74,42.74,0,0,1-9.022-6.16l-2.074-2.1-.814-.828c-.262-.279-.469-.573-.7-.858l-1.393-1.771-2.782-3.557-.693-.885c-.121-.1.022-.088.114-.1l.281-.025.562-.05,2.243-.2,4.464-.393c.762-.079,1.43-.1,2.293-.223l1.188-.189a34.624,34.624,0,0,0,4.7-.914l2.3-.6c.76-.218,1.479-.54,2.22-.8.731-.287,1.484-.526,2.2-.848l2.092-1.054a33.679,33.679,0,0,0,4-2.395,17.04,17.04,0,0,0,1.853-1.4c.6-.491,1.212-.965,1.8-1.464a43.924,43.924,0,0,0,6.105-6.984,62.467,62.467,0,0,0,8.076-16.71,113.475,113.475,0,0,0,4.115-18.045c.916-6.068,1.47-12.135,1.829-18.143.715-12.025.635-23.812.621-35.29,0-5.72-.006-11.455.313-17.009q.353-8.329.595-16.4.5-16.132.641-31.159c.643,14.4,1.046,32.192.877,51.368.059,9.536.62,19.471.8,29.531a290.272,290.272,0,0,1-.7,30.353,122.445,122.445,0,0,1-5.646,29.31,69.6,69.6,0,0,1-6.088,13.1A48.28,48.28,0,0,1,83.388,411.6l-2.6,2.149-2.757,1.832a22.331,22.331,0,0,1-2.814,1.6l-1.415.73a10.277,10.277,0,0,1-1.426.655,43.561,43.561,0,0,1-5.728,1.993l-2.806.754-2.763.466-1.351.221-.667.109c-.008.006.144-.026.1-.018h0l-.016,0-.005.009s0,0,.006.013l.3.309c.447.447.86.909,1.3,1.317l1.363,1.117a38.24,38.24,0,0,0,4.517,3.221c.807.454,1.644.857,2.463,1.291.416.206.815.447,1.244.625l1.3.509a37.629,37.629,0,0,0,10.768,2.67c.924.071,1.847.168,2.771.222l2.774-.04a20.2,20.2,0,0,0,2.758-.218l1.374-.154.687-.08.673-.148,2.7-.584c.892-.213,1.744-.556,2.619-.824l1.306-.427c.423-.169.832-.374,1.249-.558.826-.384,1.669-.738,2.484-1.141l1.3-.777,1.111-.666.554-.333.583-.437,1.163-.878.58-.438.452-.27,1.8-1.071,1.786-1.067.89-.533.222-.133a.374.374,0,0,1,.054-.03l0,.074-.008.149-.031.594c-.086,1.573-.147,3.2-.277,4.643l-.177,2.222-.535,2.4a13.835,13.835,0,0,1-.632,2.35l-.58,1.5c-.42.961-.9,1.894-1.394,2.807-.554.872-1.042,1.8-1.671,2.6a43.78,43.78,0,0,1-8.314,8.648c-1.54,1.22-3.106,2.391-4.72,3.46l-.6.4-.17.107-.373.226-.78.454c-.161.051,0,.1.066.153l.24.155c.159.106.339.181.511.276s.4.173.606.262l.16.065.1.037.206.064.824.256a38.292,38.292,0,0,0,6.856,1.393,79.326,79.326,0,0,0,14.273.189,196.989,196.989,0,0,0,28.307-4.348c4.65-1.008,9.26-2.126,13.846-3.286l6.865-1.768.428-.112a1.962,1.962,0,0,0,.3-.09l.817-.293,1.623-.611c1.075-.421,2.142-.861,3.193-1.329a60.436,60.436,0,0,0,11.835-6.86c1.833-1.367,3.584-2.889,5.66-4.252a10.429,10.429,0,0,1,3.652-1.617,7.859,7.859,0,0,1,4.146.389,35.829,35.829,0,0,1,6.313,3.515c1.949,1.2,3.869,2.419,5.84,3.575s3.911,2.347,5.892,3.457c1.967,1.136,3.94,2.251,5.935,3.313a214.976,214.976,0,0,0,24.282,11.417,141.881,141.881,0,0,0,25.2,7.392c2.134.381,4.276.682,6.406,1.026l6.423.64,5.064.184,1.984-.049.993-.024.5-.012c.064-.008.206.007.207-.018l-.206-.135q-1.707-1.107-3.36-2.3c-.28-.195-.542-.4-.819-.61l-.476-.359c-.225-.166-.446-.337-.662-.516-.871-.706-1.753-1.392-2.587-2.143a54.221,54.221,0,0,1-4.815-4.7c-.711-.875-1.487-1.691-2.129-2.625l-1-1.367-.9-1.44a12.747,12.747,0,0,1-.834-1.478l-.771-1.515-.637-1.581-.312-.792-.239-.818-.255-.879c-.109-.353-.2-.712-.275-1.071l-.311-2.135-.155-1.066c-.038-.359-.054-.721-.082-1.081l-.15-2.162-.019-.27c.052,0,.154.063.228.091l.486.224.971.447,1.94.895,3.757,1.744c1.927.918,3.894,1.72,5.846,2.548a102.757,102.757,0,0,0,11.972,3.968,72.411,72.411,0,0,0,12.255,2.091c2.053.209,4.109.217,6.159.26,2.048-.08,4.094-.107,6.121-.351,2.036-.143,4.04-.529,6.046-.832l2.977-.63c.583-.125.757-.152,1.083-.247l.89-.24.859-.232.429-.116.106-.03c.037-.022.01-.07,0-.1a1.375,1.375,0,0,0-.136-.176c-.4-.438-.832-.848-1.24-1.276l-.615-.651-1-1.108q-1-1.129-1.947-2.3a80.213,80.213,0,0,1-6.8-9.829,105.3,105.3,0,0,1-9.457-21.5c-4.7-14.821-6.612-30.075-7.047-44.988a275.063,275.063,0,0,1,2.606-43.854c1.788-14.213,3.673-28.163,3.129-41.829a89.48,89.48,0,0,0-2.873-19.957l-.733-2.377-.368-1.186-.183-.593a1.126,1.126,0,0,0-.067-.189l-.12-.258c-.721-1.506-1.371-3.043-2.145-4.515-.75-1.485-1.49-2.97-2.307-4.411l-1.2-2.173-1.263-2.129a129.621,129.621,0,0,0-24.57-29.927,110.249,110.249,0,0,0-31.371-20.084,89.688,89.688,0,0,0-35.071-7.085l-4.228.144-4.417.367c-3.044.232-6.164.479-9.348.838-6.378.69-13.055,1.663-19.792,3.05a158.973,158.973,0,0,0-20.126,5.4,105.144,105.144,0,0,0-18.736,8.364,66.008,66.008,0,0,0-15.119,11.64,48.407,48.407,0,0,0-9.3,13.752,49.3,49.3,0,0,0-3.567,12.612q-.137,1.369-.259,2.588a19.917,19.917,0,0,0-.159,2.283C104.842,246.823,104.818,248.021,104.8,248.976Z" transform="matrix(-1, 0, 0, 1, 380, 0)" /></svg>