<svg xmlns="http://www.w3.org/2000/svg" id="exports" viewBox="0 0 380 600">
  <defs>
    <style>
      .cls-1 {
        fill: none;
      }

      .cls-2 {
        fill:#ffffff;
      }

      .cls-3 {
        fill: #bc2b3a;
      }

      .cls-4 {
        fill: #cd0d34;
      }

      .cls-5 {
        fill: #fff;
      }

      .cls-6 {
        fill: #b29275;
      }

      .cls-7 {
        fill: #acccd0;
      }

      .cls-8 {
        fill: #a1955a;
      }

      .cls-9 {
        fill: #ff858e;
      }

      .cls-10 {
        fill: #2d2e3b;
      }

      .cls-11 {
        fill: #2d2e3a;
      }

      .cls-12 {
        fill: #fe4d63;
      }

      .cls-13 {
        fill: #ffc0c8;
      }

      .cls-14 {
        fill: #efeeed;
      }
    </style>
  </defs>
  <g id="default">
    <g>
      <path class="cls-2 color-body" d="M254.56,465.31c-5.8,23.74-18.27,52.94-19.51,54.49,3.33,2.57,6.52,8.2,8.28,11.35,2.44,4.39,3.01,9.99.8,14.51-3.82,7.81-14.17,9.86-22.61,8.13-9.72-2-16.63-7.8-22.45-15.92-4.49-6.26-4.1-13.86-4.54-21.58-.41-2.34-.39-19.37-.38-22.15" style="fill:#ffffff;--backup-fill:#ffffff"></path>
      <path d="M238.7,547.79c1.76-1.46,3-3.4,3.53-5.61.53-2.21.42-4.68-.3-6.99-.17-.58-.38-1.14-.63-1.69-.11-.28-.26-.54-.39-.81-.13-.27-.33-.62-.49-.92-.67-1.24-1.35-2.46-2.07-3.64-.71-1.18-1.46-2.32-2.24-3.38-.39-.53-.8-1.03-1.21-1.51l-.47-.51c-.24-.24-.5-.47-.76-.69l-1.56-1.34c.12-.48.35-.93.53-1.39l.67-1.5c.53-1.21.72-1.5.99-2.08.52-1.07,1.03-2.16,1.54-3.25,1.01-2.19,2.01-4.39,2.98-6.61,1.95-4.43,3.85-8.89,5.68-13.36,3.66-8.96,7.13-17.99,10.06-27.21-1.72,9.52-4.2,18.96-7.08,28.28-1.44,4.66-3,9.29-4.66,13.9-.83,2.3-1.69,4.6-2.59,6.89-.45,1.15-.91,2.29-1.4,3.44-.67,1.58-.54,1.23-.54,1.46.07.04.14.09.2.13.01,0,.01,0,.03.02l.17.17c.11.11.22.22.32.34l.62.68c.8.91,1.51,1.85,2.19,2.79,1.35,1.89,2.54,3.84,3.67,5.78,2.56,4.17,3.78,9.66,2.43,14.83-.33,1.29-.82,2.58-1.5,3.73l-.5.88c-.18.28-.39.55-.58.82l-.6.81-.68.74c-1.83,1.96-4.09,3.41-6.43,4.38-4.72,1.94-9.71,2.27-14.49,1.61-4.78-.71-9.32-2.42-13.33-5.01-4.01-2.58-7.36-5.93-10.14-9.55-.69-.91-1.37-1.83-2-2.77-.65-.92-1.31-2.04-1.83-3.11-1.06-2.19-1.68-4.53-2.04-6.81-.71-4.6-.45-9.04-.5-13.34,0-.05,0,0,0-.1-.12-1.99-.02-3.78.02-5.64.08-1.84.15-3.68.23-5.52.18-3.67.4-7.33.64-10.99.23,3.65.47,7.31.7,10.97.13,1.83.25,3.66.38,5.49.15,1.81.26,3.71.53,5.38,0,0,.03.18.04.25.31,2.96.5,5.88.87,8.72.38,2.82.94,5.57,2.04,7.99.55,1.21,1.17,2.37,1.97,3.4.81,1.09,1.74,2.22,2.67,3.27,1.87,2.1,3.86,4.06,6.06,5.7,4.33,3.32,9.5,5.4,14.81,5.98,5.23.56,10.86-.47,14.5-3.5Z"></path>
    </g>
  </g>
  <path class="cls-14" d="M251.81,467.73c-4.83,19.74-6.22,26.93-6.76,34.59-.13,1.84-2.42,6.29-7.05,8.94-11.45,6.54-35.69,7.14-44.95-1.33-.34-3.39-.8-13.41-.74-17.27"></path>
  <g>
    <path class="cls-5" d="M234.95,509.65h5.35c.18-.15.36-.31.53-.47l-1.24.1-4.65.37Z"></path>
    <path class="cls-5" d="M212.1,511.99h-.45v4.11c1.2.08,2.41.11,3.63.11v-1.21h5.8v.94c5.12-.48,10.02-1.6,13.99-3.27h-19.79v-3.64l21.24-1.69,1.38-.11h-22.62v-2.99h29.2c.34-.77.53-1.45.57-1.94,0-.13.02-.26.03-.4h-11.17c-2.03,0-4.07,0-6.1,0-2.06,0-4.13,0-6.19,0-1.47,0-2.81-.2-3.98-.74-1.57-.72-2.37-1.67-2.36-2.85,0-.44,0-.88.11-1.31.17-.67.74-1.32,1.61-1.84,1.02-.62,2.45-1.05,4.16-1.06.25,0,.52,0,.81,0h0s9.57,0,9.57,0v3.57h-9.89v.66h23.77c.03-.27.06-.55.1-.82h-6.14v.42h-5.73v-3.84s12.37,0,12.37,0c.38-2.33.87-4.95,1.54-8.07-.03-.02-.06-.03-.09-.05-.8-.53-1.48-1.12-2.01-1.77-.16-.19-.31-.4-.44-.6-.43-.65-.7-1.33-.82-2.02-.08-.46-.11-.92-.11-1.35,0-.46.06-.92.16-1.35.3-1.31,1.02-2.44,2.13-3.35.07-.06.14-.11.2-.16,1.42-1.09,2.97-1.44,3.15-1.48l.64-.13c.45-1.88.93-3.88,1.46-6.04l-15.83,6.63c-.23.95-.41,1.84-.53,2.62h7.06c-3.75,8.02-9.78,8.12-9.78,8.12,0,0,.78,1.31,2.73,1.7,2.23.42,5.33-1.46,5.33-1.46,0,0-3,4.94-7.48,4.94-6.67,0-9.02-5.39-9.02-5.39,0,0-.08,1.12,1.31,3.09,1.37,1.98,4.78,3.12,4.78,3.12,0,0-5.57,2.07-10.73-5.52-.75-1.1-1.44-2.28-2.1-3.52l-15.68,6.57-.61,1.02-.99,1.66h0s-3.43,0-3.43,0l6.65,6.58-9.09-3.18-1.98,3.47c.02.68.05,1.38.08,2.09h13.48v1.77h-13.4c.03.6.06,1.19.09,1.78h13.31v1.77h-8.14s-5.08,0-5.08,0c.04.62.07,1.22.11,1.77h4.97s8.14,0,8.14,0v1.77h-8.14s-4.84,0-4.84,0c.02.28.05.54.07.77.38.35.8.68,1.23,1h3.53s8.14,0,8.14,0v1.77h-8.14s-.61,0-.61,0c1.42.7,2.98,1.29,4.65,1.77h4.1v.95c1.43.26,2.9.45,4.4.58.84-1.55,1.17-2.99,1.28-4.05v-10.15l-11.38-10.47h11.39v10.46l.45.42v9.78Z"></path>
    <path class="cls-5" d="M247.69,476.57c-.67.51-1.38,1.3-1.7,2.45-.1.37-.16.77-.17,1.22,0,.34.02.7.09,1.09.11.66.44,1.32.95,1.94.16.19.33.38.52.56.17.16.35.31.54.46.13-.58.26-1.18.4-1.8-.02-.02-.04-.05-.04-.05-.25-.32-.43-.63-.54-.95-.01-.03-.03-.09-.03-.09l-.02-.06-.02-.08-.02-.07s-.01-.05-.01-.08c0-.05-.01-.1-.02-.15v-.05s-.01-.07-.02-.11v-.09s-.01-.08-.01-.08c0-.14-.01-.27-.01-.4,0-.36.05-.7.14-1.01.11-.39.3-.76.55-1.08,0,0,0,0,0,0,.02-.03.04-.05.06-.08,0,0,0,0,.01-.01.02-.02.05-.06.08-.09.03-.04.06-.07.09-.1l.02-.02s.06-.06.08-.08c0,0,.01-.01.01-.01.04-.03.07-.06.1-.09l.02-.02s.07-.06.11-.09c.03-.02.05-.04.08-.06.2-.16.41-.28.61-.38.12-.53.25-1.07.38-1.61-.25.07-.77.23-1.36.54-.29.15-.6.34-.89.57Z"></path>
    <path class="cls-5" d="M235.51,476.98h-5.79l-7.39,3.1h12.83s.06-1.26.36-3.1Z"></path>
    <polygon class="cls-5" points="196.82 491.32 197.34 490.55 195.48 491.33 196.82 491.33 196.82 491.32"></polygon>
  </g>
  <path d="M253.28,468.08l-2.92-.71c-1.34,4.44-2.64,8.9-3.86,13.4-1.21,4.5-2.36,9.04-3.21,13.72-.42,2.34-.75,4.72-.98,7.1l-.04.45v.06s0,.01,0,.01c-.04,0,.37.03.17.02h-.12c-.11,0-.03,0-.06,0,0,.01,0,.02,0,.03l-.05.18-.09.24c-.14.35-.32.75-.55,1.14-.44.79-1.03,1.57-1.67,2.27-.65.7-1.36,1.34-2.13,1.89-.39.28-.79.52-1.19.76l-1.38.68-.69.34-.74.29-1.48.58c-1.03.32-2.04.67-3.09.94-4.21,1.09-8.64,1.67-13.05,1.79-4.41.12-8.86-.21-13.06-1.2-2.05-.58-4.13-1.18-5.89-2.19-.45-.24-.93-.45-1.31-.76l-.3-.22c-.1-.07-.08-.04-.12-.07-.06-.03-.12-.06-.18-.1-.04-.05-.04-.12-.06-.19l-.02-.1v-.03s-.02-.1-.02-.1l-.02-.21-.18-1.7c-.45-4.56-.89-9.21-1.13-13.73l-3.01-.05c-.26,4.74-.25,9.35-.17,14.05l.05,1.76.07,1.28.05.76.03.38c0,.13,0,.27.13.33l2.14,1.76c.5.46,1.07.76,1.62,1.11,2.19,1.44,4.57,2.29,6.94,3.09,4.78,1.4,9.67,1.94,14.53,1.95,4.87-.01,9.73-.57,14.51-1.81,1.2-.31,2.38-.71,3.57-1.1l1.76-.71.88-.36.87-.44,1.73-.89c.59-.36,1.17-.73,1.72-1.14,1.1-.82,2.11-1.76,3-2.79.89-1.04,1.69-2.15,2.34-3.41.33-.62.62-1.29.87-2.03l.17-.59.14-.66.05-.4.03-.34.02-.42c.12-2.25.33-4.48.61-6.73.57-4.49,1.39-9.03,2.23-13.57.86-4.55,1.71-9.1,2.57-13.64Z"></path>
  <g>
    <path class="cls-2 color-body" d="M254.53,463.61s.02-.07.03-.1h-.02c0-.12.02-.25.02-.37,0-14.04-25.78-25.42-57.58-25.42s-57.58,11.38-57.58,25.42c0,.96.13,1.9.36,2.83-.83,9.17-.22,16.81,2.24,23.28,7.51,19.81,30.24,27.38,48.76,28.75,19.01,1.41,51.19-15.38,62.17-48.89.96-1.77,1.51-3.61,1.59-5.5Z" style="fill:#ffffff;--backup-fill:#ffffff"></path>
    <path d="M137.38,483.82c-.6-3.05-.87-6.11-.92-9.14-.03-1.51,0-3.02.06-4.52.03-.75.08-1.5.13-2.24l.09-1.11.05-.56c0-.06,0-.08,0-.06h0s0,0,0,0h0s0-.01,0,0l-.03-.16-.12-.66c-.07-.45-.12-.9-.15-1.36-.06-.93.02-1.84.11-2.74.22-1.81.85-3.52,1.63-5.06,1.6-3.11,3.96-5.47,6.4-7.46,5-3.89,10.61-6.36,16.29-8.25,5.7-1.85,11.52-3.09,17.38-3.85,5.86-.77,11.74-1.08,17.61-1,5.87.07,11.72.54,17.5,1.44,5.78.89,11.5,2.22,17.03,4.12,5.51,1.91,10.9,4.35,15.6,7.85,2.35,1.74,4.48,3.8,6.12,6.23.79,1.23,1.45,2.54,1.89,3.93.41,1.4.58,2.85.48,4.29h0s.02,0,.02,0h0s0,0,0,0l-.03.1.02-.1h0s-.02,0-.02,0h0s0,0,0,0c-.02-1.43-.29-2.85-.79-4.17-.53-1.32-1.26-2.53-2.11-3.66-1.75-2.22-3.94-4.05-6.31-5.57-4.76-3.06-10.13-5.09-15.58-6.62-10.96-3.02-22.44-3.98-33.79-3.68-5.68.17-11.35.69-16.94,1.62-5.59.92-11.09,2.26-16.36,4.13-5.24,1.88-10.32,4.31-14.43,7.64-2,1.68-3.77,3.58-4.79,5.67-.51,1.04-.89,2.1-1,3.18-.04.54-.1,1.08-.05,1.6.02.26.05.53.1.8l.08.4.22.9-.14,1.81-.08,1.31c-.06.87-.08,1.74-.11,2.61-.04,1.74-.02,3.47.08,5.18.21,3.42.74,6.78,1.74,9.94.47,1.59,1.23,3.07,1.87,4.6.35.75.82,1.44,1.21,2.17l.62,1.08c.23.34.49.67.73,1.01,1.84,2.78,4.26,5.14,6.84,7.31l2,1.57,2.13,1.41c.69.49,1.45.9,2.2,1.32.76.4,1.47.88,2.26,1.23,3.06,1.57,6.32,2.79,9.63,3.88,3.34,1.02,6.75,1.83,10.2,2.45,3.44.56,7.04,1.03,10.31,1.03,6.77-.24,13.62-2.2,19.99-5.08,6.39-2.9,12.36-6.8,17.68-11.45,5.32-4.65,9.99-10.08,13.81-16.09l1.44-2.25c.45-.77.84-1.57,1.26-2.35l1.25-2.37c.2-.4.43-.78.61-1.19l.52-1.23c.72-1.65,1.33-3.28,2.14-4.96.87-1.54,1.44-3.27,1.58-5.06,0,1.62-.36,3.24-1,4.75-.14.38-.38.75-.47,1.09l-.39,1.15-.78,2.31-.78,2.31c-.3.76-.65,1.49-.97,2.24l-.99,2.24c-.34.74-.63,1.51-1.05,2.21l-2.37,4.3c-.83,1.41-1.79,2.74-2.69,4.12-.87,1.4-1.94,2.65-2.95,3.95l-1.54,1.94c-.53.63-1.11,1.22-1.67,1.83-4.44,4.87-9.51,9.25-15.15,12.79-5.63,3.55-11.76,6.41-18.32,8.16-1.65.39-3.32.75-5.01,1.04l-2.57.29-1.29.14h-1.31s-2.63,0-2.63,0l-2.5-.19c-1.67-.11-3.33-.37-4.99-.56-1.65-.29-3.32-.5-4.96-.88l-2.47-.53-2.45-.64c-1.64-.39-3.23-.99-4.85-1.48-.8-.29-1.59-.6-2.38-.9-.79-.3-1.59-.6-2.36-.97l-2.33-1.07c-.77-.36-1.52-.8-2.27-1.2-1.53-.77-2.96-1.76-4.42-2.68-2.82-2-5.56-4.19-7.88-6.85-4.75-5.17-8.1-11.77-9.38-18.68Z"></path>
  </g>
  <g id="default-2" data-name="default">
    <path class="cls-2 color-body" d="M144.15,491.78s13.35-.7,26.93,5.58c13.58,6.28,21.08,15.78,21.08,15.78-4.57,5.6-4.08,11.91-5.01,18.76,3.01,5.24,6.01,12.24,5.41,19.44-.9,10.77-7.49,16.83-17.72,17.24-7.85.31-16.58-3.8-21.82-9.86-6.04-6.98-8.86-14.58-9.65-24.01-.21-14.57-.95-26.81.79-42.92Z" style="fill:#ffffff;--backup-fill:#ffffff"></path>
    <path d="M193.32,514.09l-2.33-1.9c-1.2,1.37-2.21,2.95-2.97,4.62-.76,1.68-1.25,3.44-1.61,5.18-.35,1.74-.57,3.46-.78,5.14l-.32,2.48-.2,1.47c-.06.63-.35,1.3.15,1.87l.48.89.3.59c.18.36.36.72.53,1.09.35.73.67,1.46.97,2.2.61,1.48,1.13,2.98,1.54,4.49.82,3.02,1.17,6.1.84,9.06-.35,3.03-1.19,5.94-2.77,8.25-.79,1.15-1.71,2.19-2.8,3.02-1.1.83-2.32,1.49-3.64,1.99-1.34.47-2.76.78-4.22.96-1.5.14-2.94.18-4.41.03-2.94-.33-5.89-1.21-8.61-2.57-2.74-1.34-5.25-3.14-7.36-5.26-1.01-1.04-2.05-2.33-2.97-3.56-.93-1.25-1.76-2.57-2.52-3.93-1.5-2.72-2.63-5.64-3.39-8.7-.38-1.53-.69-3.09-.91-4.68-.13-.81-.2-1.53-.29-2.3l-.08-2.45c-.25-6.75-.62-13.46-.75-20.13-.14-6.68-.01-13.34.45-20l-2.99-.32c-.97,6.71-1.54,13.5-1.78,20.28-.24,6.79-.18,13.55-.18,20.27v2.6c.07.9.13,1.87.24,2.73.19,1.76.48,3.52.87,5.27.76,3.5,2,6.96,3.7,10.18.86,1.6,1.8,3.16,2.86,4.63,1.08,1.48,2.14,2.84,3.47,4.24,2.62,2.69,5.66,4.88,8.98,6.51,3.31,1.65,6.92,2.73,10.69,3.12,3.83.33,7.59-.12,11.28-1.48,1.82-.73,3.57-1.71,5.13-2.96,1.56-1.25,2.87-2.8,3.93-4.46,2.13-3.36,3.03-7.16,3.32-10.82.28-3.77-.35-7.48-1.44-10.9-.55-1.72-1.22-3.37-1.98-4.97-.38-.8-.77-1.59-1.19-2.36-.21-.39-.42-.77-.64-1.15l-.3-.52-.14-.21c-.14-.12-.08-.34-.07-.53l.08-1.04.17-2.54c.11-1.67.21-3.31.43-4.88.4-3.15,1.37-6.07,3.25-8.53Z"></path>
  </g>
  <g>
    <g>
      <path class="cls-7" d="M142.02,536.78c.62,2.83.63,9.48.64,12.38,0,.87-.21,3.2.1,4.02s1.6,1.96,2.47,1.95c1.04-.02-.39-.27.63-.45,1.42-.24,2.44,5.9,2.78,7.3.34,1.4.58,3.79.64,4.09.15.85,2.47,2.44,3.09,2.02,1-.62,1.27-1.67,2.38-2.1,1.6-.63,2.68.95,3.83,2.24s.71,4.44,1.2,6.09c.36,1.56,4.49,1.83,4.63,1.09.33-.75,1.03-2.03,1.82-2.71,1.18-1,5.47-.41,6.42-.18,2.42.61,2.18,1.8,3.18,3.35.55.97,4.68.83,4.93-.44.17-.85.33-1.5.63-2.31.58-1.57,1.39-2.95,2.87-3.71,2.03-1.05,3.14,1.67,3.98,2.11.97.52,3.56-1.25,3.65-2.06.24-2.07.44-4.94-.12-6.95-3.4,3.63-9.85,8.3-15.76,8.79-4.51.37-8.47.06-12.69-1.57-2.06-.79-3.9-2.04-5.72-3.27-1.55-1.05-3.1-2.1-4.65-3.15-1.06-.72-2.12-1.44-3.04-2.32-.9-.86-1.64-1.85-2.39-2.84-1.74-2.31-3.84-19.41-5.59-21.72"></path>
      <path d="M188.02,569.09c-.35-.37-.77-.77-1.41-1.1-.62-.33-1.54-.45-2.25-.24-.19.04-.34.11-.5.17-.16.07-.32.14-.43.2-.24.13-.47.28-.69.44-.44.33-.84.71-1.18,1.12-.68.82-1.12,1.72-1.46,2.59-.17.43-.32.87-.45,1.32l-.18.68-.11.5s.04,0-.04.02c-.25.09-.62.17-.99.19-.37.02-.76.01-1.08-.04-.41-.09-.24-.05-.29-.06-.01-.02.03.04,0-.01l-.07-.12-.13-.26-.29-.61c-.21-.45-.53-1.1-1.1-1.62-.56-.52-1.2-.82-1.76-1.01-.29-.09-.54-.17-.85-.23-.28-.06-.53-.1-.78-.13-1-.14-1.99-.22-3.03-.23-.52,0-1.06.03-1.63.11-.56.11-1.22.19-2.01.8-.78.7-1.2,1.38-1.61,2.08l-.28.53c-.08.17-.05.11-.06.14,0,.02-.03.03-.06.03.04,0-.16,0-.27,0-.14-.01-.28,0-.42-.03-.28-.02-.56-.09-.81-.15-.24-.08-.49-.17-.61-.25-.1-.06-.05-.03-.07-.05-.01-.01-.02-.02-.02-.04-.08-.24-.15-.73-.18-1.17l-.11-1.48c-.04-.52-.1-1.06-.21-1.63-.12-.57-.27-1.2-.71-1.87-.11-.15-.28-.37-.35-.44l-.24-.27-.51-.57c-.36-.39-.75-.81-1.3-1.21-.52-.39-1.37-.75-2.25-.67-.84.09-1.55.47-2.07.95-.51.48-.8.92-1.05,1.18-.08.09-.13.15-.23.12.03.04-.42-.19-.73-.42-.16-.12-.32-.24-.44-.36-.07-.06-.12-.12-.17-.18-.03-.04-.04-.04-.05-.07-.02.09-.1-.64-.17-1.09l-.23-1.51c-.09-.5-.19-1.03-.32-1.54l-.32-1.43c-.22-.98-.46-1.97-.76-2.96-.15-.5-.31-1-.53-1.51-.24-.52-.41-1.02-1.02-1.65-.08-.08-.2-.16-.3-.23-.15-.08-.26-.15-.45-.2-.18-.05-.37-.07-.57-.05-.21.02-.21.04-.33.06l-.18.05-.1.04c-.06.03-.12.05-.17.09-.06.04-.09.04-.24.18-.06.06-.12.12-.16.19-.02.04-.04.06-.07.11-.03.06-.06.13-.08.2-.04.15-.05.31-.04.44.02.11.04.19.08.29.1.22.14.25.2.32.07.08.09.09.12.12l.05.04h0c.14-.14-.3.34.3-.32.06-.07.12-.14.19-.21.19-.15.16-.16.23-.17,0,0,0,0,0,0-.02-.01-.05-.04-.06-.07-.02-.03,0-.05-.03-.1-.02-.06-.04-.12-.06-.18-.03-.12-.05-.25-.06-.38,0-.06-.04-.27-.04-.24h0c-.14.01-.16.01-.27-.02-.12-.04-.27-.12-.42-.22-.31-.2-.61-.49-.82-.77-.11-.15-.16-.24-.18-.32-.04-.13-.06-.35-.08-.56-.06-.9,0-1.85.01-2.9l-.06-2.99c-.05-1.99-.13-3.98-.29-5.98-.14-2.06-.81-3.64-1.23-3.53-.4.11-.46,1.63-.38,3.64.09,1.95.11,3.92.1,5.89l-.03,2.95c-.03.93-.14,1.95-.09,3.04.02.28.03.56.11.91.09.41.29.75.46,1.01.37.53.79.94,1.3,1.3.26.18.54.35.89.48.36.15.85.19,1.2.14h.09s.16-.04.16-.04l.08-.02c.06-.02.18-.07.26-.12.04-.03.08-.06.12-.09.06-.06.03-.01.15-.15.19-.22.27-.65.21-.86-.03-.13-.08-.27-.16-.39-.05-.07-.08-.11-.08-.11l-.04-.04-.11-.11s-.03-.03-.02-.02c-.02.03.06-.06-.07.08l-.26.27c-.12.11-.16.15-.15.15l-.04.04c-.06.06-.15.11-.15.11-.05.02-.05,0-.04.01.04,0,.08.07.17.22.04.07.07.14.08.21.04.1.09.22.13.33.05.16.04.12.04.12,0,0,0,0,0,0h.05s.02-.01.02-.01c-.04-.25.1.55-.09-.55h0s0,0,0,0c0,0,0,0,0-.01,0,.02,0,.05-.01.07-.01.02-.06.17-.11.22-.04.07-.08.13-.12.18-.05.06-.02,0-.02.03.09.08.33.51.47.91.16.41.29.86.42,1.31.25.91.45,1.86.65,2.82l.3,1.49c.1.45.18.9.25,1.38l.19,1.44.08.73c.01.17.06.71.27,1.09.09.2.23.4.35.55.11.13.22.26.34.37.22.23.46.42.69.6.24.18.48.35.76.5.13.08.25.14.49.25.21.08.42.16.64.21.43.1.89.1,1.28-.1.39-.17.76-.5,1.05-.79.44-.46.72-.85.94-1.03.2-.19.44-.26.58-.28.12,0,.26.03.53.23.26.18.55.49.85.84l.47.55.25.29c.1.11.06.1.11.15.25.36.39,1.33.44,2.25l.09,1.5c.05.54.08,1.06.28,1.77.14.31.23.64.47.9.19.27.52.53.72.66.47.32.91.47,1.34.61.43.12.86.22,1.29.26.21.03.44.04.65.05.24,0,.4.02.8-.04.67-.07,1.37-.3,1.75-.84.18-.25.34-.66.43-.8l.23-.41c.3-.53.7-1.06.99-1.3-.05.02.25-.12.61-.16.36-.05.77-.07,1.19-.07.85,0,1.74.09,2.6.22.21.03.43.07.61.11.15.03.35.09.51.14.33.11.56.24.69.37.28.18.48,1.01,1.23,2.25.48.81,1.65,1.15,2.17,1.22.63.1,1.2.12,1.78.08.58-.04,1.16-.13,1.82-.36.38-.13.85-.39,1.18-.7.16-.17.33-.34.43-.55.08-.22.21-.42.26-.65l.16-.73.14-.54c.1-.35.23-.71.36-1.05.27-.69.6-1.31.99-1.78.2-.24.41-.44.64-.61.12-.09.24-.16.36-.23.07-.05.11-.05.14-.06.03-.01.07-.04.09-.03.09-.02.06-.03.19.02.12.05.33.22.55.46.17.18.34.39.55.64.14.18.66.75,1.15,1.04.44.18.91.31,1.4.25.24-.02.49-.07.72-.13.21-.07.36-.11.51-.18.61-.25,1.12-.56,1.61-.93.25-.18.49-.39.73-.63.24-.24.61-.71.75-1.15.07-.23.14-.48.15-.7l.04-.38.07-.76c.04-.51.07-1.03.09-1.55l.02-.78v-.55s-.04-.73-.04-.73c-.06-.97-.21-1.87-.42-2.65l-.61-2.39-1.58,1.63-.8.83c-.26.26-.51.48-.76.72l-.76.71-.43.37c-.26.23-.53.45-.81.66-1.09.87-2.23,1.67-3.41,2.4-2.36,1.43-4.93,2.57-7.52,2.94-2.71.33-5.58.34-8.27-.1-1.35-.23-2.69-.57-3.99-1.04-1.29-.43-2.47-1.05-3.68-1.78-2.38-1.49-4.83-3.17-7.24-4.75-1.21-.8-2.3-1.56-3.2-2.53-.46-.49-.9-1.03-1.34-1.59l-.33-.43c-.13-.16-.12-.22-.2-.34l-.09-.15-.09-.23-.18-.45c-.86-2.6-1.43-5.49-2.05-8.3-.62-2.83-1.18-5.67-1.94-8.51-.26-1-.62-1.87-1.01-2.46-.17-.29-.4-.52-.58-.65-.18-.12-.31-.15-.39-.09-.08.06-.12.21-.12.4,0,.19.04.41.07.74.09.61.25,1.48.47,2.45.65,2.77,1.13,5.64,1.66,8.48.55,2.86,1,5.7,1.89,8.63l.2.57.1.28.17.33c.25.49.46.74.68,1.04.44.59.9,1.19,1.42,1.78,1.05,1.2,2.34,2.13,3.53,2.96,2.41,1.65,4.72,3.31,7.23,4.96,1.26.8,2.65,1.56,4.11,2.08,1.42.54,2.91.94,4.41,1.23,1.51.27,3.03.42,4.55.45,1.54.02,2.97-.01,4.55-.2,3.18-.43,6.04-1.7,8.65-3.24,1.3-.78,2.55-1.64,3.74-2.58.3-.23.59-.47.88-.72l.46-.38c.09-.07.04-.03.06-.05,0,0,0,.03,0,.03h0s0,.2,0,.2l-.02.69c-.02.46-.05.93-.09,1.41l-.11,1.08s.05-.05-.06.06c-.11.1-.24.22-.39.33-.3.22-.64.42-.94.54-.07.03-.16.06-.18.07,0,0,0,0,0,0,0,0,0,0,0,0l-.17-.2c-.19-.22-.41-.49-.66-.75Z"></path>
    </g>
    <path class="cls-5" d="M168.5,537.5c12.97-.41,19.01-5.36,18.99-5.24,3.01,5.24,6.01,12.24,5.41,19.44-.9,10.77-7.49,16.83-17.72,17.24-7.85.31-16.58-3.8-21.82-9.86-6.04-6.98-8.86-14.58-9.65-24.01-.04-2.82-.1-5.55-.16-8.23,5.87,6.5,14.86,10.98,24.95,10.66Z"></path>
    <path class="cls-13" d="M189.72,536.57c-2.31-8.19-31.95,11.03-46.17-9.74.64,20.06,24.15,39.14,37.65,35.94,7.07-1.67,9.66-10.87,8.52-26.2Z"></path>
    <path class="cls-9" d="M188.29,533.69c-4.3.95-36.19,8.78-44.4-6.5,1.14,8.17,10.21,9.22,14.62,14.8,7.03,6.57,11.01,19.56,22.37,18.07s4.45-18.29,7.4-26.38Z"></path>
    <g>
      <path class="cls-7" d="M196.55,534.9c-.22,2.14-.5,2.14-.92,4.58-.15.86-.13,2.54.18,3.35s1.6,1.96,2.47,1.95c1.04-.02,1.26-.73,2.28-.91,1.42-.24,1.32.81,1.23,2.24s.13,2.68.19,2.98c.15.85,1.81,2.65,3.14,2.58.67.02,1.53-.82,2.79-1.56,1.49-.87,7.22,3.03,8.36,4.31,1.15,1.29.62,2.23,1.11,3.88.36,1.56,4.45,2.22,5.04,1.52.77-.54.95-2,1.77-2.5s1.84-.58,2.81-.52c2.49.16,3.59,1.55,4.58,3.1.35.5,3.34.28,3.84-.44s.41-1.5.71-2.32c.58-1.57.42-3.24,1.97-3.85,3.59-1.41,3.25,1.88,4.09,2.33.97.52,2.95-1.6,3.04-2.41.24-2.07.44-4.94-.12-6.95-3.4,3.63-9.02,7.86-14.93,8.35-4.51.37-8.47.06-12.69-1.57-2.06-.79-3.9-2.04-5.72-3.27-1.55-1.05-3.1-2.1-4.65-3.15-1.06-.72-2.12-1.44-3.04-2.32-.9-.86-1.64-1.85-2.39-2.84-1.74-2.31-3.48-4.63-5.23-6.94"></path>
      <path d="M241.8,552.24c-.58-.52-1.4-.76-2.06-.78-.64,0-1.21.11-1.68.27-.42.12-1.1.37-1.64.87-.55.49-.86,1.11-1.04,1.61-.35,1.03-.43,1.78-.65,2.36-.06.18-.17.53-.22.75l-.13.64c-.06.37-.15.56-.12.49-.02,0,.1-.01-.32.1-.32.07-.7.12-1.05.13-.48,0-.33,0-.36,0h0s-.08-.12-.08-.12c-.14-.2-.29-.41-.46-.62-.64-.83-1.58-1.66-2.7-2.1-1.12-.45-2.22-.54-3.29-.48-.55.03-1.14.13-1.73.35-.31.12-.56.22-.9.45-.37.24-.68.6-.86.86-.37.56-.54,1.02-.71,1.33-.08.15-.16.28-.18.3,0,0-.02.02-.03.03.09,0-.32.05-.66,0-.35-.03-.72-.09-1.07-.19-.34-.1-.67-.23-.92-.36-.1-.07-.21-.15-.23-.17-.03-.02-.03-.03-.04-.05-.17-.52-.19-1.02-.29-1.88-.05-.43-.18-.96-.41-1.43-.23-.48-.54-.87-.86-1.19-.65-.63-1.22-1.04-1.83-1.49-.61-.43-1.23-.83-1.86-1.22-1.31-.74-2.52-1.49-4.31-1.87l-.36-.05-.48.02c-.33-.03-.61.16-.91.24-.07.03-.14.08-.21.12l-.13.08-.24.16-.46.32c-.3.21-.58.42-.83.58-.12.08-.23.14-.31.18-.03.02-.07.03-.11.03-.14.04-.71-.19-1.12-.56-.21-.18-.42-.39-.59-.6-.17-.21-.29-.44-.3-.49-.12-.6-.2-1.29-.21-1.92-.01-.33,0-.61.02-.98l.03-.75c0-.29-.02-.59-.08-.86-.11-.53-.38-1.01-.86-1.28-.47-.25-1.02-.28-1.57-.17-.27.05-.54.14-.8.27-.25.11-.55.32-.68.4-.27.18-.35.21-.54.24-.16.08-.72-.21-1.13-.6-.21-.19-.4-.41-.5-.6-.09-.13-.16-.4-.21-.7-.1-.6-.12-1.28-.08-1.91.01-.16.02-.29.05-.46l.08-.51c.06-.34.12-.67.2-1,.19-.78.31-1.63.24-2.2-.06-.58-.23-.93-.43-.95-.21-.02-.43.29-.65.78-.21.5-.48,1.12-.72,1.99-.09.35-.18.71-.25,1.07l-.11.53c-.04.18-.07.4-.09.59-.08.78-.08,1.51.01,2.31.06.39.12.83.38,1.32.23.43.51.75.81,1.05.3.3.63.57,1.03.79.37.22.96.45,1.55.39.52-.02,1.11-.29,1.42-.5.16-.1.16-.1.23-.13.05-.03.11-.05.17-.06.11-.02.24-.03.34.02.11.06.13.2.13.3,0,.06,0,.11,0,.17l-.03.31c-.03.34-.06.77-.05,1.14,0,.78.06,1.51.19,2.31.14.66.42,1.05.67,1.41.27.36.56.67.88.96.33.29.68.56,1.11.78.43.22.95.42,1.61.4.31,0,.62-.08.91-.21.24-.11.44-.22.62-.32.35-.21.64-.42.93-.61l.42-.27.21-.13.12-.07s.07-.03.1-.02h.05s.16.04.16.04c.99.21,2.27.93,3.39,1.63.57.36,1.13.74,1.67,1.15.53.39,1.09.84,1.45,1.21.36.4.46.61.52,1.14.05.55.08,1.48.34,2.33.1.19.15.4.25.59.12.18.24.36.38.52.29.31.55.49.82.67.53.32,1.05.52,1.57.68.52.16,1.04.25,1.59.31.55.03,1.08.13,2.01-.19.4-.16.75-.44,1.04-.76.27-.32.42-.58.56-.83.26-.48.43-.86.57-1.05.08-.11.08-.09.09-.1.03-.02.2-.1.31-.14.26-.09.57-.14.92-.16.73-.03,1.47.06,2.03.3.57.24,1.03.63,1.5,1.23.11.15.23.31.34.47l.11.16c.06.1.12.19.2.27.15.15.24.37.44.47.67.54,1.8.52,2.21.51.55-.02,1.08-.08,1.64-.2.31-.08.51-.12.97-.32.42-.18.75-.48,1.04-.82.22-.31.42-.75.5-1.01.09-.29.15-.55.19-.77.09-.47.12-.67.23-.96.33-.95.45-1.83.64-2.33.09-.25.17-.37.24-.43.07-.06.16-.11.51-.22.29-.1.54-.13.71-.14.15.02.14.02.17.05.04.03.17.2.31.54.13.3.31.79.52,1.11.09.19.25.3.37.46l.45.35c.59.27,1.25.33,1.89.1.32-.1.63-.27.93-.46l.44-.31.3-.26c.34-.31.64-.64.92-1.01.14-.19.28-.38.41-.64.16-.27.27-.65.34-.99.15-1.34.24-2.51.24-3.83v-.36s-.02-.45-.02-.45c-.02-.29-.02-.6-.06-.88-.05-.58-.14-1.13-.25-1.62l-.74-2.91-2.51,2.6-1.26,1.2c-.13.12-.16.15-.22.2l-.16.14-.31.27c-.84.72-1.72,1.4-2.63,2.02-1.82,1.24-3.77,2.26-5.82,2.9-1.03.32-2.05.51-3.12.61-1.12.1-2.24.16-3.35.15-2.22,0-4.41-.26-6.53-.85-1.06-.3-2.12-.64-3.09-1.08-.98-.45-1.94-1-2.9-1.6l-5.79-3.78c-.97-.64-1.93-1.24-2.78-1.91-.85-.66-1.56-1.43-2.28-2.31l-4.26-5.44c-1.05-1.34-2.12-2.18-2.46-1.93-.34.25.18,1.52,1.18,2.9l4.08,5.62c.7.94,1.53,1.91,2.49,2.7.94.79,1.92,1.45,2.86,2.11,1.91,1.33,3.76,2.65,5.71,3.97.98.66,2.01,1.29,3.13,1.84,1.13.55,2.26.95,3.43,1.3,2.33.71,4.77,1.05,7.18,1.1,1.21.03,2.41,0,3.59-.09,1.24-.1,2.51-.31,3.7-.66,2.4-.71,4.6-1.83,6.63-3.17,1.01-.67,1.98-1.41,2.9-2.18l.63-.53h.02s.02-.02.02-.02c0,0,0,.02,0,.03h0s0,.02,0,.02h0s0,.09,0,.09c0,1.1-.11,2.33-.23,3.38-.01,0,.02-.02-.01.02-.03.06-.1.17-.17.26-.15.2-.34.4-.53.58-.14.11-.11.09-.11.09h0s0,0,0,0c0-.02.02.05-.02-.05-.2-.46-.48-1.08-1.1-1.62Z"></path>
    </g>
    <path class="cls-5" d="M244.07,532.57c-1.33-3.38-3.57-8.61-8.74-11.94-1.97,3.81-10.42,6.77-17.47,6.77-9.31,0-17.05-3.44-22.9-9.1.33,7.15.29,14.11,4.46,19.93,5.82,8.13,12.73,13.93,22.45,15.92,8.44,1.73,18.79-.32,22.61-8.13,2.21-4.52,1.43-8.78-.41-13.46Z"></path>
    <path class="cls-13" d="M243.17,530.39c-5.83-19.28-29.79,10.01-48.2-12.09-4.08,16.89,29,35.65,43.34,29.36,4.81-2.11,7.32-7.32,4.86-17.27Z"></path>
    <path class="cls-9" d="M237.06,522.96c-27.61,12.49-42.65-6.04-41.71-1.95,2.07,9.06,13.3,10.74,19.67,15.16,8.42,5.84,16.85,11.96,23.64,9.24,4.66-1.86,3.58-10.56-1.6-22.44Z"></path>
    <polygon class="cls-6" points="243.87 531.42 243.68 531.52 243.87 531.42 243.87 531.42"></polygon>
    <path d="M168.45,536l.09,3.01c3.32.02,6.67-.27,9.98-.97,1.65-.35,3.3-.81,4.91-1.4.81-.3,1.61-.62,2.4-.99l.39-.16.3-.14s.09-.06.13-.06l.07.17.13.31.11.29.44.97c.62,1.41,1.17,2.84,1.62,4.28.9,2.88,1.43,5.83,1.33,8.7-.14,2.84-.7,5.82-1.94,8.23-1.2,2.46-3.03,4.44-5.37,5.71-2.31,1.32-5.1,1.89-7.97,2.02-2.78.07-5.65-.44-8.39-1.43-3.53-1.27-6.86-3.27-9.57-5.81-.69-.65-1.29-1.28-1.93-2.03-.64-.74-1.24-1.5-1.81-2.28-1.15-1.56-2.16-3.2-3.04-4.91-1.75-3.43-2.91-7.16-3.57-11.06-.16-.97-.31-1.98-.42-2.89l-.08-.64-.02-.22-.04-.45-.09-1-.05-.55-.02-.29s-.02-.13,0-.12l.05.04c.14.11.3.24.5.38l1.21.78c2.05,1.35,4.23,2.47,6.5,3.35,4.54,1.76,9.44,2.5,14.23,2.18l-.09-3.01c-4.37-.05-8.68-1.03-12.59-2.84-1.96-.9-3.82-2-5.54-3.28l-.32-.24-.16-.12-.26-.22-1.15-.97-.58-.49c-.19-.15-.39-.33-.59-.55l-1.21-1.24c-.8-.8-1.64-1.72-2.49-2.61l-2.43-2.61c-.02.21-.05.39-.06.63v.81s.01,1.63.01,1.63l.02,3.3.04,6.76v.86s.01.41.01.41l.02.27.08,1.09c.05.74.15,1.4.22,2.1.18,1.39.4,2.77.69,4.15,1.14,5.53,3.51,10.94,6.9,15.53.87,1.16,1.69,2.23,2.72,3.34.99,1.11,2.08,2.1,3.22,3.03,2.29,1.83,4.78,3.39,7.46,4.56,2.67,1.17,5.5,2.04,8.47,2.41,1.47.22,2.99.24,4.5.2.74-.06,1.48-.1,2.22-.2.74-.13,1.48-.2,2.22-.39,2.95-.66,5.9-1.91,8.37-3.9,2.46-2,4.35-4.64,5.53-7.46,1.16-2.84,1.68-5.78,1.82-8.7.13-2.98-.3-5.9-1.06-8.66-.75-2.77-1.85-5.37-3.12-7.85l-.56-1.07c-.27-.53-.55-1.02-.84-1.51l-.42-.74-.21-.37c-.06-.14-.17-.14-.25-.22l-.53-.36-.26-.18-.13-.09-.07-.04c.18-.67-.28.89-.24.72h-.03c-.27-.13-.58-.3-1.01-.55-.46.03-.98.44-1.47.74-.47.3-1.04.62-1.41.81l-.82.42c-4.45,2.19-9.54,3.29-14.67,3.66Z"></path>
    <path d="M177.93,550.84c1.16,12.74-22.58-1.54-28.88-14.32,1.13,9.11,9.89,19.56,16.89,23.68,12.85,7.56,20.19-1.55,11.99-9.37Z"></path>
    <path d="M238.69,526.7c5.04,6.78,3.69,17.39-2.49,11.22,2.12,11.58,7.43,6.37,7.8.73.34-5.26-3.99-10.17-5.31-11.95Z"></path>
    <path d="M199.02,525.66s2.02,4.94,3.84,6.52c.73.64,1.25.68,1.61.49.91-.48,1.3-1.34,1.34-1.88.03.71.06,1.41,0,2.14-.09,1.14-.41,2.27-.94,2.83-.96,1.01-2.07.02-2.84-1.18-2.17-3.36-3-8.93-3-8.93Z"></path>
    <g>
      <path class="cls-13" d="M185.87,534.23c-2.47.53-2.91-4.15-9.71-3.22s-11.19,5.78-16.26,5.14c8.58,6.97,13.2,14.26,18.66,13.44,4.23-.64,5.97-2.9,7.31-15.35Z"></path>
      <path class="cls-12" d="M166.21,539.75l-1.4-1.31-.71-.65-.3-.26c-.12-.1-.3-.25-.26-.21,0,0-.05-.02-.04-.02,0,0,0,0,.02-.02h.02s0-.02,0-.02l.08-.02.44-.13c1.13-.38,2.17-.86,3.16-1.35,1.97-.99,3.81-1.99,5.73-2.71.96-.33,1.93-.66,2.92-.83.99-.2,1.97-.3,2.92-.23.95.06,1.84.31,2.66.78.41.23.8.52,1.21.84.41.32.83.7,1.41,1.03.2.14.49.2.72.25.25.02.48-.01.65-.07.35-.17.48-.38.43-.59-.05-.2-.23-.39-.41-.51-.18-.17-.32-.27-.57-.46-.67-.47-1.46-1.42-2.47-2.07-1.01-.68-2.21-1.12-3.41-1.27-1.2-.17-2.39-.12-3.52.04-1.15.13-2.25.43-3.35.75-2.17.69-4.18,1.68-6.1,2.55-.96.43-1.91.83-2.83,1.11l-.34.09-.31.08c-.12.04-.26.06-.4.08-.14.02-.25.06-.42.06h-.51s-1.02-.01-1.02-.01c-1.24,0-3.47-.2-4.66-.26l2.72,2.31,2.66,2.28.63.55.51.45.69.64,1.37,1.29c2.01,1.9,3.97,3.89,6.21,5.75,1.14.92,2.34,1.81,3.79,2.49.73.33,1.52.6,2.36.73.83.13,1.75.09,2.54-.06.75-.13,1.56-.38,2.33-.76.79-.38,1.46-1,2-1.64,1.04-1.35,1.52-2.82,1.9-4.23.73-2.84.97-5.64,1.21-8.43.06-.82-.21-1.49-.63-1.54-.42-.04-.84.54-.96,1.35-.45,2.72-.9,5.48-1.73,8-.41,1.25-.94,2.45-1.66,3.28-.72.82-1.67,1.2-2.92,1.38-2.18.4-4.33-1.08-6.36-2.8-2.02-1.76-3.97-3.76-6.02-5.69Z"></path>
    </g>
    <path d="M177.87,545.88c.93-.21,1.85-.4,2.78-.51.91-.1,1.85-.16,2.66.03.11.03.39-.22.63-.56.24-.35.32-.71.16-.84-1.04-.83-2.26-1.13-3.43-1.28-1.18-.13-2.35-.03-3.46.23-2.24.5-4.25,1.67-5.87,3.17-.12.11-.04.47.18.83s.51.6.65.55c1.96-.66,3.85-1.19,5.71-1.62Z"></path>
    <path d="M176.58,541.7c1.32-.23,2.66-.42,3.99-.48,1.32-.06,2.68-.03,3.76.41.15.06.49-.14.76-.47.27-.33.33-.71.12-.88-1.37-1.11-2.98-1.49-4.53-1.7-1.56-.19-3.12-.11-4.63.16-3,.54-6.01,1.84-8.15,4.19-.16.17-.06.54.23.85s.64.47.81.38c2.32-1.34,5-1.97,7.63-2.47Z"></path>
    <path d="M175.24,537.73c1.65-.28,3.32-.5,4.98-.54,1.64-.04,3.34.03,4.72.63.19.09.56-.1.82-.43s.29-.73.04-.92c-1.65-1.28-3.6-1.7-5.47-1.92-1.89-.2-3.77-.09-5.61.23-3.64.65-7.3,2.14-9.96,4.89-.2.2-.13.59.16.91.28.31.67.46.87.33,2.84-1.74,6.17-2.57,9.45-3.17Z"></path>
    <g>
      <path class="cls-13" d="M211.64,526.78c1.91.93,3.87,1.77,5.66,2.59,5.79,2.63,12.73,9.23,17.58,8.11,3.52-.81,6.65-3.57.61-13.85-.91-1.36-4.2-3.52-8.03-2.49-6.35,1.72-6.18,5.32-15.83,5.65Z"></path>
      <path class="cls-12" d="M237.28,531.53c.23,1.17.17,2.27-.24,2.98-.37.73-1.25,1.23-2.38,1.52-.93.26-2.06.11-3.23-.28-1.17-.39-2.34-.96-3.51-1.59-2.34-1.27-4.63-2.78-7.07-4.13-1.19-.68-2.53-1.32-3.79-1.83l-3.78-1.55c-.74-.3-1.46-.25-1.64.13s.23.95.95,1.32l3.67,1.85c1.23.61,2.33,1.22,3.47,1.97,2.26,1.44,4.46,3.08,6.88,4.53,1.22.72,2.48,1.41,3.9,1.94,1.39.51,3.09.89,4.84.47.77-.17,1.56-.46,2.32-.91.77-.43,1.47-1.15,1.95-1.96.51-.83.67-1.74.77-2.59,0-.42,0-.83,0-1.24l-.16-1.18c-.66-3.03-1.95-5.53-3.43-8.02-.56-.87-1.22-1.37-1.89-1.83-.68-.45-1.4-.8-2.15-1.07-1.5-.54-3.16-.67-4.74-.38-.81.16-1.49.4-2.18.65-.69.27-1.37.57-2.02.92-1.3.7-2.43,1.56-3.52,2.26-2.14,1.43-4.63,2.1-7.29,2.4-.78.08-1.37.46-1.36.88s.66.74,1.48.72c1.4-.07,2.82-.18,4.23-.52,1.41-.33,2.81-.88,4.07-1.59,1.25-.7,2.36-1.44,3.51-1.98.57-.27,1.16-.5,1.75-.7.61-.18,1.23-.36,1.77-.44,1.13-.15,2.28-.01,3.34.41.53.21,1.04.48,1.5.8.44.32.87.71,1.03,1.01,1.27,2.23,2.46,4.7,2.95,7.04Z"></path>
    </g>
    <path d="M233.88,534.42c1.45-.58,2.81-1.01,4.58-1.23.13-.02.27-.35.32-.77s0-.78-.14-.82c-.88-.33-1.87-.56-2.9-.55-1.03,0-2.06.21-2.98.59-1.86.75-3.31,2.04-4.49,3.48-.09.1.04.44.3.78s.55.55.67.5c1.55-.66,3.09-1.32,4.64-1.98Z"></path>
    <path d="M231.39,530.85c.97-.37,1.95-.67,2.94-.82.99-.16,1.98-.17,2.86.18.12.05.44-.16.72-.48s.37-.68.21-.83c-1.06-1.02-2.52-1.45-3.87-1.51-1.37-.07-2.71.19-3.94.67-2.46.96-4.5,2.84-5.69,5.07-.09.16.1.48.43.74.34.25.7.37.83.26,1.72-1.45,3.6-2.5,5.53-3.28Z"></path>
    <path d="M228.36,527.54c1.16-.55,2.34-1.02,3.54-1.32,1.19-.28,2.42-.41,3.4.04.14.06.48-.13.77-.44.29-.31.37-.69.17-.86-.64-.63-1.46-.95-2.27-1.17-.81-.18-1.64-.24-2.43-.18-1.6.11-3.11.57-4.48,1.23-2.75,1.34-5.05,3.55-6.45,6.19-.11.19.08.53.42.77s.73.32.87.19c1.95-1.87,4.17-3.31,6.47-4.45Z"></path>
    <path d="M242.67,533.12l2.8-1.1c-.83-2.4-1.85-4.88-3.32-7.15-1.46-2.28-3.39-4.35-5.71-5.95l-1.75-1.2-1.18,1.99c-.18.3-.51.67-.92,1.03l2.63-.22c-2.04-1.44-4.62-2.16-7.21-1.82-.65.07-1.28.24-1.79.39-.55.14-1.09.34-1.63.53-1.07.42-2.11.95-3.03,1.5-1.85,1.13-3.15,1.92-4.76,2.34-1.57.45-3.43.6-5.22.63.03,0,.02,0,0,0-.04-.01.02,0-.07-.03-.36-.07-.71-.17-1.06-.25-.7-.18-1.4-.38-2.08-.62-1.37-.46-2.71-1.02-3.99-1.68-.64-.32-1.27-.68-1.89-1.06-.31-.18-.61-.38-.91-.58l-.42-.27c-.16-.12-.32-.22-.48-.34l-.96-.73c-.32-.25-.64-.47-.96-.75l-.98-.88c-.65-.57-1.33-1.21-2.02-1.86l-4.03-3.78c.09,2.32.18,4.65.27,6.97l.15,3.55c.05,1.16.14,2.45.2,3.53.2,2.52.54,5.14,1.32,7.76.5,1.68,1.18,3.35,2.07,4.91.42.78.97,1.56,1.45,2.24.49.65.96,1.31,1.48,1.95,2.02,2.57,4.3,5.01,6.89,7.14,2.57,2.15,5.5,3.95,8.61,5.29,3.15,1.3,6.38,2.21,9.79,2.53,3.38.34,6.8.11,10.13-.74,1.66-.44,3.29-1.07,4.85-1.87,1.54-.85,2.99-1.9,4.28-3.15,1.25-1.3,2.28-2.79,3.05-4.41.73-1.6,1.22-3.37,1.34-5.15.26-3.6-.87-6.89-2.13-9.81l-2.8,1.1c1.19,3.38,1.83,6.81.91,9.83-.9,3.09-3.1,5.56-5.92,7.07-2.82,1.55-6.23,2.15-9.59,2.16-3.37,0-6.74-.71-9.91-1.94-6.38-2.39-11.54-7.21-15.7-12.92-.55-.75-.99-1.37-1.38-2.04-.39-.68-.75-1.38-1.04-2.12-.6-1.47-1.02-3.06-1.3-4.73-.14-.84-.25-1.69-.35-2.56l-.1-1.11h0s-.03-.08-.03-.12c0,0,.03,0,.08.01h.02s.01,0,.01,0c.02.01-.06-.04.08.05.37.23.73.46,1.11.67.75.44,1.52.84,2.3,1.21,3.13,1.5,6.46,2.49,9.86,3h0c.03-.15.05-.12.07-.12h.06s.1-.01.1-.01h.2s.4-.04.4-.04l.81-.06c.54-.05,1.09-.13,1.63-.2.55-.08,1.11-.2,1.66-.31.56-.15,1.11-.27,1.67-.46,1.12-.34,2.21-.86,3.21-1.43.99-.57,1.86-1.19,2.62-1.69.77-.51,1.49-.92,2.26-1.27.39-.16.77-.33,1.19-.46.44-.15.76-.26,1.1-.32,1.36-.28,2.91.03,4.17.8l1.5.92,1.13-1.14c.59-.6,1.19-1.29,1.65-2.22l-2.93.78c1.91,1.15,3.59,2.7,4.98,4.55,1.4,1.85,2.48,3.96,3.47,6.22Z"></path>
    <path d="M187.49,532.26l1.5.2c0-.13.05-.33-.08-.7-.06-.18-.19-.41-.4-.6-.2-.19-.48-.32-.7-.37-.47-.09-.71.02-.86.06l-.09.04-.07.03-.13.07-.07.04-.1.06-.18.1-.34.2-.34.19-.21.1c-.24.11-.48.21-.71.3-.19-.08-.34-.28-.49-.42-.09-.09-.1-.11-.27-.26-.19-.17-.4-.34-.63-.51-.9-.7-2.05-1.24-3.19-1.52-2.33-.54-4.49-.28-6.57.22-4.2.99-7.6,3.79-10.43,4.66-.7.22-1.32.29-1.92.21h-.17s-.03-.03-.14-.05l-.64-.17c-.43-.11-.84-.26-1.26-.38-1.67-.54-3.29-1.24-4.83-2.07-.77-.41-1.53-.85-2.26-1.33-.37-.23-.73-.49-1.09-.74-.18-.12-.36-.25-.53-.39l-.27-.2c-.19-.14-.37-.27-.55-.42-.71-.59-1.41-1.2-2.13-1.85-.73-.76-1.43-1.46-2.2-2.28l-4.5-4.85c-.03.92,0,2.08.01,3.14l.04,3.25.09,6.58.02,1.66v.83c.02.23.04.35.05.54.06.66.11,1.37.19,1.99.15,1.28.33,2.56.58,3.84.49,2.55,1.19,5.1,2.15,7.56.96,2.46,2.18,4.83,3.62,7.05.95,1.48,2,2.9,3.13,4.23,1.11,1.35,2.43,2.71,3.8,3.84,2.76,2.33,5.88,4.15,9.21,5.47,3.34,1.29,6.91,2.09,10.6,2.07,1.85,0,3.62-.23,5.43-.59,1.8-.4,3.57-1.03,5.26-1.86,1.67-.89,3.23-2.02,4.58-3.36,1.34-1.36,2.42-2.93,3.28-4.58.85-1.66,1.4-3.41,1.82-5.16.35-1.77.58-3.5.61-5.29.05-3.58-.67-7.06-1.82-10.28-1.15-3.23-2.72-6.24-4.49-9.07l-2.61,1.5c2.02,3.87,3.63,7.93,4.32,12.07.36,2.06.43,4.14.24,6.15-.23,2.05-.67,4.06-1.41,5.89-1.45,3.69-4.22,6.49-7.8,7.84-1.78.69-3.73,1.05-5.73,1.16-1.98.12-3.93-.07-5.9-.51-3.91-.89-7.69-2.75-10.86-5.24-.8-.62-1.55-1.29-2.25-1.99-.7-.7-1.35-1.45-2.02-2.27-1.31-1.63-2.48-3.34-3.49-5.14-2.03-3.6-3.34-7.56-4.09-11.71-.19-1.03-.34-2.11-.46-3.12l-.14-1.26-.02-.32-.05-.69-.03-.38c0-.1-.04-.35,0-.27.07.04.17.1.34.19h.02s.31.23.31.23c.21.15.42.29.64.43.43.28.86.56,1.31.82.88.53,1.79,1.01,2.71,1.46,1.85.89,3.77,1.63,5.75,2.17.5.13.99.27,1.49.38l.75.16c.13.02.36.1.56.1l.54.03c1.3.08,2.6-.18,3.69-.58,2.22-.81,3.83-2,5.41-2.94,1.56-.96,3.06-1.79,4.64-2.28,1.57-.49,3.28-.76,4.69-.52.71.13,1.34.36,1.97.77.16.1.32.22.5.35l.82.66c.58.44,1.15.84,1.76,1.17.78-.41,1.55-.8,2.29-1.24l.52-.32.38-.25.37-.26.18-.13.07-.05h0s0,0,0,0h0s0,0,0,0l-.1-.17-.13-.21-.05-.07-.09-.14c-.06-.09-.12-.19-.17-.28s-.1-.2-.14-.3c-.02-.07-.04-.07-.07-.08-.03-.03,0-.06.01-.05Z"></path>
  </g>
  <path class="cls-14" d="M140.36,463.87s22.14,22.63,64.39,20c44.13-2.75,50.16-20,50.16-20-9.04,37.25-45.08,57.09-65.13,55.61-18.52-1.37-39.91-10.05-47.42-29.87-2.68-7.05-3.19-15.45-2-25.75Z"></path>
  <g>
    <polygon class="cls-5" points="173.48 488.66 177.77 487.84 182.59 486.9 184.16 486.6 183.05 483.17 166.05 486.37 173.48 488.66"></polygon>
    <path class="cls-5" d="M235.33,478.23c-1.8.65-3.76,1.27-5.9,1.85h5.72s.03-.71.18-1.85Z"></path>
    <path class="cls-5" d="M152.95,477.3c.64.35,1,.52,1.33.66,0,0,0,0,0,0-.34-.13-.7-.31-1.35-.66-.49-.28-.88-.62-1.15-1.02-.11-.17-.2-.35-.27-.54.07.19.16.38.28.55.27.4.65.74,1.15,1.02Z"></path>
    <path class="cls-5" d="M247.75,481.48s-.03-.09-.03-.09l-.02-.06-.02-.08-.02-.07s-.01-.05-.01-.08c0-.05-.01-.1-.02-.15v-.05s-.01-.07-.02-.11v-.09s-.01-.08-.01-.08c0-.14-.01-.27-.01-.4,0-.36.05-.7.14-1.01.11-.39.3-.76.55-1.08,0,0,0,0,0,0,.02-.03.04-.05.06-.08,0,0,0,0,.01-.01.02-.02.05-.06.08-.09.03-.04.06-.07.09-.1l.02-.02s.06-.06.08-.08c0,0,.01-.01.01-.01.04-.03.07-.06.1-.09l.02-.02s.07-.06.11-.09c.03-.02.05-.04.08-.06.25-.19.52-.35.75-.46.01.04.02.08.03.12v.03s.04.09.06.13v.04s.04.08.06.12v.03s.05.09.07.13l.02.04s.03.06.04.09c.28-.6.56-1.21.83-1.82,0-.01,0-.02,0-.03l-.04-.58-.68.14s-.71.15-1.51.57c-.29.15-.6.34-.89.57-.67.51-1.38,1.3-1.7,2.45-.1.37-.16.77-.17,1.22,0,.34.02.7.09,1.09.11.66.44,1.32.95,1.94.04.05.09.09.13.14.31-.53.61-1.06.9-1.6-.05-.11-.11-.22-.15-.32Z"></path>
    <path class="cls-5" d="M176.11,517.15c-.1-.33-.2-.67-.32-1.01-.22.23-.46.48-.69.72.34.1.67.19,1.01.28Z"></path>
    <path class="cls-5" d="M174.69,515.8c.24-.25.47-.49.69-.73-.02-.05-.04-.1-.06-.15-.22.3-.43.59-.63.89Z"></path>
    <path class="cls-5" d="M173.55,511.77c-.08.09-.16.19-.24.29-1.02,1.26-1.7,2.44-2.05,3.59.64.23,1.29.45,1.94.65.43-.82.97-1.63,1.62-2.43-.19-.38-.4-.76-.63-1.12-.21-.34-.43-.66-.65-.97Z"></path>
    <path class="cls-5" d="M212.1,511.99h-.45v2.88c1.51-.66,3.02-1.39,4.53-2.19h-.9v-3.64l8.06-.64c.56-.38,1.11-.76,1.67-1.16h-9.73v-2.99h13.69c.93-.75,1.84-1.53,2.74-2.33-1.3,0-2.6,0-3.9,0-2.06,0-4.13,0-6.19,0-1.47,0-2.81-.2-3.98-.74-1.57-.72-2.37-1.67-2.36-2.85,0-.44,0-.88.11-1.31.17-.67.74-1.32,1.61-1.84,1.02-.62,2.45-1.05,4.16-1.06.25,0,.52,0,.81,0h0s9.57,0,9.57,0v3.57h-9.89v.66h13.85c.13-.13.26-.27.39-.4h-2.24v-3.84s5.73,0,5.73,0c2.42-2.85,4.68-5.92,6.72-9.22-.23-.22-.46-.44-.65-.67-.16-.19-.31-.4-.44-.6-.43-.65-.7-1.33-.82-2.02-.08-.46-.11-.92-.11-1.35,0-.46.06-.92.16-1.35.3-1.31,1.02-2.44,2.13-3.35.07-.06.14-.11.2-.16,1.42-1.09,2.97-1.44,3.15-1.48l2.14-.45c.65-1.65,1.25-3.34,1.79-5.07-.14-.43-.25-.86-.33-1.28-.03-.14-.04-.3-.06-.46-2.01,2.65-6.26,6.76-14.73,10.34h3.99c-3.75,8.02-9.78,8.12-9.78,8.12,0,0,.78,1.31,2.73,1.7,2.23.42,5.33-1.46,5.33-1.46,0,0-3,4.94-7.48,4.94-6.67,0-9.02-5.39-9.02-5.39,0,0-.08,1.12,1.31,3.09,1.37,1.98,4.78,3.12,4.78,3.12,0,0-5.57,2.07-10.73-5.52-.66-.98-1.29-2.02-1.88-3.1-3.93.6-8.24,1.07-13.02,1.37,0,0-.01,0-.02,0l-3.48,5.8-.99,1.66h0s-3.43,0-3.43,0l6.65,6.58-9.09-3.18-3.18,5.56h14.74v1.77h-22.25c-1.01-.92-1.9-1.48-2.41-1.77h9.91l-2.58-7.58-3.97-1.39h12.17s.79-1.18.79-1.18l2.83-4.23h0s-7.99,1.46-7.99,1.46l-4.63-3.81c-.72-.07-1.45-.15-2.15-.23l1.79,5.13h0s0,0,0,0h0s0,0,0,0l-7.51,1.41,4.69,1.45h0,0s-4.23,0-4.23,0h-37.35c.38.87.79,1.72,1.22,2.54v-2.53h23.36c0,.06-.01.12-.02.17,0,0,0,0,0,.01,0,.07-.01.14-.02.21,0,0,0,.04,0,.04,0,.06,0,.13,0,.19,0,0,0,.02,0,.03,0,.04,0,.09,0,.13v.14s.01.12.01.12c.09,1.1.63,2.02,1.58,2.64.04.03.08.05.12.08,0,0,.07.04.1.06,0,0,.09.05.11.06h.02s.07.05.1.07c.09.04.18.09.26.12,0,0,.05.02.05.02.21.09.42.16.61.21-.09.15-.2.32-.35.51,0,0-.01.02-.02.02-.03.03-.06.08-.1.12l-.02.02s-.07.08-.11.13c0,0,0,.01-.01.01-.04.05-.09.09-.13.14,0,0-.01.01-.01.01-.04.04-.08.08-.13.12,0,0-.02.02-.02.02-.02.02-.11.1-.11.1l-.09.08-.09.08-.09.07-.18.14-.09.07s-.09.06-.13.09c-.68.46-1.41.75-2.16.88,0,0-.15.02-.15.02h-.06s-.12.02-.12.02c-.08,0-.14.01-.21.02,0,0-.17.01-.21.01,0,0-.17,0-.21,0h-.08s-.09,0-.13,0h-.07s-.19,0-.19,0c-.05,0-.1,0-.15,0,0,0-.04,0-.04,0-.06,0-.11,0-.17,0,0,0-.01,0-.02,0h-.03c-.06,0-.11-.01-.17-.02h-.03c-.06-.01-.12-.02-.18-.02h-.04c-.05-.01-.11-.02-.16-.03h-.04c-.05-.02-.11-.03-.16-.04h-.03c-.05-.02-.1-.03-.15-.04,0,0-.02,0-.02,0-.05-.01-.1-.03-.15-.04,0,0-.02,0-.02,0-.05-.01-.1-.03-.15-.04h-.02s-.09-.04-.14-.05c0,0-.13-.05-.16-.06h-.02s-.06-.04-.1-.05c0,0-.05-.02-.05-.02-.04-.02-.08-.04-.12-.06h-.02s-.07-.05-.11-.07c0,0-.03-.02-.03-.02-.03-.02-.07-.04-.1-.06l-.04-.02s-.06-.04-.09-.06c0,0-.1-.07-.12-.08-.04-.03-.08-.06-.12-.08-.03-.02-.06-.04-.08-.06l-.02-.02s-.1-.08-.1-.08l-.05-.04-.09-.08s-.09-.08-.09-.08c-.02-.02-.05-.05-.07-.07,0,0-.01-.01-.02-.02-.03-.03-.05-.06-.08-.09l-.08-.09-.07-.09-.06-.08c-.04-.06-.08-.11-.11-.16-.03-.05-.06-.1-.09-.15,0,0-.01-.02-.01-.02-.03-.05-.06-.1-.08-.15,0,0,0,0,0-.01-.02-.04-.05-.09-.07-.14l-.02-.03c-.16-.34-.3-.72-.39-1.13-.06-.26-.1-.53-.13-.8-.03-.32-.25-.6-.57-.71-.1-.03-.2-.05-.29-.05-.23,0-.45.08-.61.24-.03.03-.08.08-.09.09-.34.33-.63.7-.88,1.08-.04.06-.07.12-.11.17l-.03.05c-.04.06-.07.12-.1.18l-.03.05c-.03.06-.06.12-.09.18l-.03.06s-.05.1-.07.15c0,0-.03.08-.03.08-.03.06-.05.12-.08.18l-.02.05c-.02.06-.05.13-.08.19l-.02.04s0,0,0,.01c-.02.06-.04.12-.06.18,0,0,0,.03,0,.03-.03.08-.05.15-.07.22v.02c-.03.07-.05.14-.07.21v.02c-.03.07-.05.14-.07.21v.04s0-.01,0-.01c-.02.07-.04.14-.06.21v.03c-.02.06-.04.13-.06.2,0,0-.06.25-.06.25,0,0-.1.46-.1.46,0,0-.11.51-.11.51l-.06.29c-.02.09-.04.18-.06.27,0,0-.07.29-.07.29-.02.09-.05.18-.07.27v.02c-.03.09-.05.18-.08.27-.03.1-.06.19-.09.28v.02c-.04.09-.06.17-.1.26,0,0,0,0,0,0-.03.08-.06.16-.09.25,0,0-.07.19-.09.24l-.09.23-.09.22-.04.1-.09.22-.09.21-.09.2-.03.06c-.04.09-.09.18-.13.26l-.03.06-.1.19-.1.18-.1.17-.1.17-.1.16-.1.16-.1.15-.1.15-.1.14-.1.14-.1.13-.1.13-.1.12-.1.12-.1.11s-.07.07-.1.1c0,0-.07.07-.1.1l-.11.1-.1.09-.08.07c.44.39.88.77,1.34,1.14l.02-.02.13-.12h0s.12-.12.12-.12h.01c.04-.06.09-.1.13-.14h0s.12-.14.12-.14l.13-.15.13-.15.13-.16.12-.16.12-.17.12-.17.12-.18.12-.18.12-.19.11-.19.11-.19.11-.2.11-.21.11-.21.03-.07c.05-.09.09-.19.14-.29l.04-.07.11-.23.11-.24.1-.24.04-.1.1-.25.1-.26c.02-.06.09-.25.09-.25h0c.03-.09.06-.18.1-.27,0,0,0,0,0-.01.03-.1.07-.19.1-.3v-.03c.05-.11.08-.21.11-.31.03-.09.06-.19.09-.31v-.02c.03-.1.06-.2.08-.3v-.04s.01,0,.01,0c.02-.07.07-.27.07-.27.02-.1.04-.19.07-.29l.07-.3h0s.04-.17.11-.52c0-.03.03-.13.1-.45.01-.04.05-.2.05-.23.01-.06.03-.12.04-.17v-.04c.02-.06.04-.11.06-.18h0s0-.03,0-.03c.01-.06.03-.11.05-.17v-.02c.02-.06.04-.12.06-.18v-.02c.02-.05.04-.11.06-.17v-.03s.04-.08.06-.14v-.03s.01,0,.01,0v-.02c.03-.06.05-.1.06-.14l.02-.05s.04-.09.06-.14c0-.01.02-.04.02-.05h0s.04-.08.05-.11h0c.07.19.15.38.24.56v.02s.03.04.03.04c.03.05.06.11.09.17v.02s.01.01.01.01c.04.08.08.14.12.21h0s.01.04.01.04c.03.06.07.12.12.19.05.07.1.15.16.23h0s.08.12.08.12l.1.13.1.12h0c.04.05.07.09.11.13h0s.03.04.03.04c.03.03.06.06.1.1h.01c.08.09.1.12.11.12h0s.11.11.11.11l.08.07h.01c.06.06.11.1.13.12h0s.03.03.03.03c.03.02.07.05.12.09.05.04.11.08.17.12h0s.03.02.15.1h.01s.01.01.01.01c.05.03.1.06.13.08l.04.03h.01c.05.04.1.07.14.09l.04.02s.1.05.16.08l.03.02h.01c.06.03.11.06.17.08.02,0,.04.02.07.03h0s.08.04.13.06h.03s.04.03.19.08h.01s.01,0,.01,0c.06.02.12.04.19.06h.03c.06.03.13.05.2.07h0s.02,0,.02,0c.05.01.1.03.16.04h0s.07.02.07.02c.06.01.12.03.2.04h.05c.07.03.14.04.2.05h.04s.01,0,.01,0c.06.01.12.02.2.03h.04s.01,0,.01,0c.06,0,.13.02.21.02h.03s.02,0,.02,0c.07,0,.14.01.19.02h.05s.04,0,.04,0c.06,0,.11,0,.18.01h0s.07,0,.07,0c.06,0,.12,0,.18,0h.01s.16,0,.22,0h.08c.05,0,.1,0,.15,0h.09c.05,0,.18,0,.23-.01h.02c.05,0,.24-.02.24-.02h.01c.07,0,.14-.01.24-.02h.02s.02,0,.02,0c.03,0,.1-.01.13-.01h.01s.09-.01.09-.01c0,0,.16-.02.19-.03,1-.16,1.96-.55,2.85-1.15h0c.06-.04.12-.08.16-.12h0s.12-.09.12-.09l.22-.17.12-.1.12-.1.11-.1h.01s.1-.11.13-.13h.02s.02-.03.02-.03c.06-.06.11-.11.16-.16h0s.02-.03.02-.03c.06-.06.11-.11.16-.17l.02-.02h0c.05-.06.1-.11.15-.17l.02-.02c.06-.07.11-.13.13-.16h.01s.02-.03.02-.03c.18-.23.35-.47.48-.7l1.15-1.94-2.16-.62c-.15-.04-.29-.09-.42-.15l-.04-.02c-.06-.02-.11-.05-.17-.08-.02,0-.04-.02-.06-.03h-.02s-.06-.04-.07-.05c-.02-.01-.05-.03-.06-.04-.02-.01-.04-.03-.07-.04-.49-.33-.76-.76-.8-1.33,0-.01,0-.05,0-.07v-.1s0-.05,0-.06v-.03s0-.08,0-.12v-.03s0-.09.01-.13h0c0-.05,0-.09.01-.13l.03-.23h1.71l-.06.47s0,.04,0,.06h0s0,.05,0,.07v.03s0,.04,0,.06v.07s0,.01,0,.02c0,0,0,0,0,.01.01,0,.03.02.05.04,0,0,.01,0,.02.01,0,0,.02,0,.02.01.01,0,.03.02.04.02h0s.02.01.02.01c.02.01.05.02.07.03h.02c.07.04.15.07.24.09l4.27,1.23-2.27,3.82c-.18.3-.38.59-.61.88l-.02.02-.02.02s-.09.11-.16.19l-.03.03c-.05.06-.11.12-.16.19h0s-.03.04-.03.04c-.06.07-.13.13-.19.2l-.02.02-.02.02c-.05.05-.11.11-.18.18l-.02.02-.03.03s-.14.13-.14.13l-.02.02-.13.12-.15.12-.15.12-.25.2-.15.11h-.02c-.06.05-.13.1-.2.15h0c-1.1.74-2.28,1.22-3.53,1.42-.03,0-.2.03-.25.04h-.1s-.02.02-.02.02c-.03,0-.11.01-.15.02h-.03s-.03,0-.03,0c-.11,0-.19.02-.27.02h-.02s-.2.01-.26.02h-.03c-.07,0-.2.01-.26.01h-.1c-.06,0-.12,0-.18,0h-.1c-.06,0-.24,0-.24,0h-.03c-.07,0-.14,0-.21,0h-.15s-.01,0-.01,0c-.04,0-.08,0-.12,0h-.06s-.08-.01-.08-.01c-.08,0-.15-.01-.22-.02h-.03s-.04,0-.04,0c-.09,0-.17-.02-.24-.03h-.02s-.05-.01-.05-.01c-.09-.01-.16-.02-.23-.04h-.02s-.05-.01-.05-.01c-.06-.01-.14-.03-.24-.04h-.06c-.09-.03-.17-.05-.24-.07l-.13-.03h-.02c-.05-.02-.1-.03-.15-.04h-.04s-.01-.02-.01-.02c-.08-.02-.15-.04-.23-.07h-.04c-.09-.04-.17-.07-.24-.09h-.02s-.02-.02-.02-.02c-.16-.06-.2-.07-.23-.09l-.04-.02c-.06-.03-.12-.05-.16-.07h-.01s-.06-.03-.08-.04h0c-.08-.03-.15-.07-.22-.1h-.02s-.04-.03-.04-.03c-.07-.04-.14-.07-.2-.1l-.05-.03c-.05-.03-.12-.06-.19-.11h-.02s-.05-.04-.05-.04c-.03-.02-.09-.06-.16-.1h-.02s-.02-.03-.02-.03c-.12-.08-.16-.1-.18-.12h0c-.08-.06-.15-.11-.23-.17-.07-.05-.12-.09-.15-.12l-.03-.02h-.01s-.03-.04-.05-.05c0,.01-.01.05-.01.05l-.06.25v.02s-.02.07-.02.07c-.03.11-.06.22-.08.32v.02c-.04.13-.07.23-.1.34-.04.12-.07.23-.11.35v.04c-.05.11-.09.22-.13.33,0,0,0,.01,0,.02-.04.1-.07.19-.1.28h0s-.07.21-.1.27l-.11.28-.11.27-.05.11-.11.26-.12.26-.12.25-.04.08c-.05.11-.11.22-.16.32l-.04.08-.12.23-.13.23-.13.22-.13.22-.13.21-.14.21-.13.2-.14.2-.14.2-.14.19-.15.19-.15.18-.15.18-.16.17-.14.15h-.01c-.05.06-.1.12-.15.17l-.03.03s-.08.07-.12.12c1.02.78,2.08,1.51,3.16,2.21.03,0,.06-.01.09-.02.78-.12,1.42.08,1.86.54.37-.23.75-.41,1.12-.59.51-.25,1-.48,1.39-.82.46-.4,1.01-.59,1.53-.75,1.12-.35,2.11-.11,2.64.61.2.28.39.7.36,1.3.04-.04.07-.09.1-.13.38-.48.75-.85,1.13-1.13.32-.23.6-.43.88-.56-1.82-1.52-3.49-2.33-4.35-2.71h13.41c-2.36,1.28-4.51,3.04-6.42,5.27.03-.32.02-.63-.01-.94-.09-.71-.59-1.58-1.46-1.79-.11-.03-.22-.04-.34-.04-.28,0-.55.08-.84.22.31.26.62.53.93.83,0,0,0,0,0,0-.27-.07-.74.23-1.19.56-.31.23-.61.53-.94.94-.66.82-1.32,1.66-1.97,2.48l-.56.71c1.1.49,2.21.95,3.33,1.37.1-.18.2-.37.3-.55.3-.54.61-1.09.91-1.64.64-1.17.89-2.1.78-2.95-.01-.11-.05-.23-.1-.34.58.61,1.16,1.3,1.71,2.08,2.01-2.41,4.31-4.28,6.84-5.56.56-.28.95-.41,1.24-.41.3,0,.52.13.69.43.42.7.18,1.68-.58,2.34-.48.42-.94.85-1.47,1.34l-.83.77h-.04s-.03,0-.04,0c-.03-.01-.04-.03-.05-.05l-.09-.95-.75.59c-.29.23-.52.42-.73.6-1.18,1.04-2.14,2.03-2.93,3,.18.35.34.7.49,1.05.74-.98,1.67-1.97,2.84-3.03-.7.83-1.42,1.68-2.15,2.49-.2.23-.41.46-.63.69.15.36.29.72.41,1.08.34-.37.67-.72.99-1.07.75-.83,1.47-1.69,2.18-2.54l.02-.02c.23-.28.47-.56.71-.84.04-.04.07-.08.11-.13l.32-.34.29-.09c.18-.05.36-.05.55.02.19.07.32.18.39.34.09.2.06.47-.08.8-.54,1.24-1.11,2.53-1.62,3.68l-.84,1.88c.09.02.19.05.28.07l1.39-1.36c.29-.28.58-.57.87-.84.1-.09.29-.21.42-.24.4.13,1.44.67,1.54,1.08,0,.31-.97,1.26-1.74,1.81-.03.02-.06.03-.09.04.46.09.92.17,1.38.25.44-.39.87-.84,1.03-1.05.37-.48.51-.9.43-1.27-.27-1.19-2.23-1.92-2.51-1.92-.13,0-.26.02-.37.06.26-.59.52-1.19.78-1.78.26-.61.29-1.16.08-1.64-.12-.27-.36-.62-.85-.84.33-.31.64-.59.96-.87,1.13-.98,1.47-2.52.79-3.65-.03-.04-.06-.08-.08-.12h3.47c-.41-.65-.82-1.22-1.23-1.73h20.59v1.77h-8.14s-11.19,0-11.19,0c.34.54.67,1.12.98,1.77h10.21s8.14,0,8.14,0v1.77h-8.14s-9.46,0-9.46,0c.21.58.39,1.18.55,1.77h8.91s8.14,0,8.14,0v1.77h-8.14s-8.49,0-8.49,0c.13.62.23,1.21.31,1.77h8.18s8.14,0,8.14,0v1.77h-8.14v2.82c4.05-.64,8.43-1.93,12.91-3.81.57-1.26.82-2.42.91-3.3v-10.15l-11.38-10.47h11.39v10.46l.45.42v9.78Z"></path>
    <path class="cls-5" d="M140.12,478.3s.06-.06.09-.09c.03-.03.05-.05.07-.08.02-.03.05-.05.07-.08l.02-.02s.04-.05.07-.08c.02-.02.04-.05.06-.07l.03-.04s.04-.05.06-.08c.02-.03.04-.06.06-.09l.02-.03s.03-.05.05-.08c.02-.03.04-.06.06-.09l.02-.04s.03-.05.05-.08c.02-.04.04-.08.06-.11v-.02c.04-.06.07-.13.11-.19v-.03s.04-.05.05-.08c.01-.03.03-.06.04-.1,0,0,.04-.1.05-.13.01-.04.03-.07.04-.11,0,0,.03-.09.04-.12.01-.04.03-.08.04-.12v-.03s.03-.06.04-.08c0-.02.04-.13.04-.13,0-.04.02-.07.03-.11.01-.04.02-.09.03-.14,0-.04.02-.07.02-.11,0-.05.02-.09.03-.14,0-.04.01-.08.02-.12,0-.04.01-.09.02-.13,0-.04.01-.09.02-.14v-.02s0-.06.01-.1c0-.06,0-.11.01-.16v-.1c.01-.09.01-.18.01-.27v-.09c0-.08,0-.16,0-.23v-.02c0-.32-.03-.65-.07-.96-.14-1.17-.47-2.11-.74-2.79-.06-.16-.13-.33-.2-.49l-.22-.52-.22-.52-.11-.26s-.03-.07-.04-.1c-.07,1.13-.13,2.23-.15,3.31.15.47.28.97.35,1.51.05.38.08.78.07,1.21,0,.5-.08.96-.21,1.39-.04.14-.11.25-.16.38.03.71.07,1.41.12,2.1.03-.03.06-.05.09-.08,0,0,.05-.05.07-.07Z"></path>
    <path class="cls-5" d="M148.39,486.24c.03.18.08.38.14.59.09.28.22.59.39.89.32.56.81,1.09,1.46,1.45l1.3-7.33c.74.17,1.69.41,2.65.73.74.24,1.43.51,2.03.77l-5.06,6.21s-.05-.02-.07-.02h0c.44.12.87.14,1.27.11,1.27-.1,2.31-.75,2.95-1.21.19-.14.37-.28.53-.42,1.01-.86,1.55-1.75,1.99-2.57.03-.05.05-.1.08-.15.08-.16.16-.31.24-.46.04-.08.08-.16.12-.23.9-.05,1.75-.38,2.49-.86.39-.25.75-.55,1.06-.87.23-.23.44-.48.62-.74.36-.51.6-1.04.71-1.55-2.12.94-5.32,1.89-6.66.56-.62-.8.1-1.99.36-3.14,1.02.3,1.55.36,2.24.39.55.02,1.02-.06,1.42-.27.41-.21.75-.54,1.04-1.02-.66-.27-1.3-.55-1.93-.83-.02,0-.03,0-.05,0-.9,0-2.46-.39-3.75-.92-.62-.25-1.17-.54-1.56-.82-.29-.23-.32-.59-.22-.98-.36-.19-.71-.38-1.06-.57-.3.31-.54.62-.68.92-.03.07-.06.15-.09.22-.22.63-.17,1.21.15,1.7.19.28.47.54.85.75,1.11.61,1.28.63,2.16.94-.58.79-.99,2.36-2.38,2.57-.99.15-1.9-.34-2.68-1.09-.89-.87-1.61-2.1-2.07-3.12-.59.83-.86,1.99-.73,3.12.05.41.15.82.3,1.21.23.56.57,1.08,1.04,1.49-.46,1.47-1.02,2.34-.65,4.55Z"></path>
    <path class="cls-5" d="M152.3,504.28s0-.1,0-.14l-.02-.21s0-.09-.02-.14v-.04s-.03-.19-.03-.19c0-.04-.01-.09-.02-.13v-.05s-.04-.19-.04-.19l-.04-.2c-.01-.06-.03-.12-.04-.18,0,0,0,0,0-.01-.01-.05-.03-.11-.04-.16l-.05-.16-.05-.15-.04-.13s-.04-.12-.04-.12c-.03-.08-.06-.15-.09-.22,0,0,0,0,0-.01-.37-.91-.91-1.67-1.62-2.27-.72-.62-1.39-.86-1.57-.92,0,0-.03,0-.03,0-.09-.03-.18-.04-.27-.04-.18,0-.35.05-.5.15-.11.08-.2.17-.26.28.5.67,1.01,1.33,1.54,1.97,0-.02,0-.04,0-.06.29.26.52.57.73.91.8.9,1.64,1.77,2.51,2.59,0-.04,0-.09,0-.12v-.03Z"></path>
    <path class="cls-5" d="M162.5,477.45c-.39.65-.85,1.11-1.43,1.4-.49.25-1.04.37-1.68.37-.06,0-.13,0-.19,0-.53-.02-1-.06-1.6-.2-.02.06-.04.11-.05.17-.19.57-.38,1.16-.24,1.43,0,0,0,0,0,0-.14-.27.05-.85.24-1.42.02-.05.04-.11.05-.17.6.13,1.06.18,1.6.2.07,0,.13,0,.19,0,.64,0,1.19-.12,1.68-.37.57-.29,1.04-.75,1.43-1.4,0,0,0-.01.01-.02,0,0,0,0-.01,0,0,0,0,0,0,.01Z"></path>
    <path class="cls-5" d="M192.11,484.91l4.88-.83c-2.13-.02-4.2-.11-6.22-.25l1.33,1.09Z"></path>
    <path class="cls-5" d="M167.02,509.4c-.21-.29-.55-.35-.8-.35-.21,0-.43.04-.68.12-.42.13-.85.28-1.17.55-.49.42-1.03.68-1.61.96-.37.18-.75.38-1.11.61.77.44,1.56.86,2.35,1.26l.79-.54-.07.9c.38.19.77.37,1.16.55l.38-.9c.31-.74.56-1.36.76-1.92.19-.52.19-.95-.02-1.24Z"></path>
    <path class="cls-5" d="M150.17,490.04c.12.06.25.09.38.09.02,0,.04,0,.07,0,.11.11.25.19.41.23.38.09.77.14,1.16.14.13,0,.26,0,.39-.02,1.12-.09,2.23-.54,3.4-1.37.2-.15.4-.3.59-.46,1.1-.94,1.7-1.9,2.19-2.81l.08-.15.16-.3c.83-.13,1.66-.45,2.42-.94.44-.28.84-.61,1.21-.98.26-.26.5-.55.7-.84.42-.6.71-1.24.84-1.85.03-.16.01-.31-.04-.46.05.14.07.29.04.44-.13.61-.42,1.25-.84,1.85-.21.29-.44.58-.7.84-.37.37-.77.7-1.21.99-.76.49-1.59.81-2.42.94l-.16.3-.08.15c-.49.91-1.09,1.88-2.19,2.81-.19.16-.38.31-.59.46-1.16.84-2.27,1.29-3.4,1.37-.13.01-.26.01-.39.01-.39,0-.78-.05-1.16-.14-.16-.04-.3-.12-.41-.23-.02,0-.04,0-.07,0-.13,0-.26-.03-.38-.09-.82-.39-1.51-1.05-2-1.91,0,0,0,0,0,0,.49.87,1.18,1.53,2,1.92Z"></path>
    <path class="cls-5" d="M147.19,480.51c.21.53.5.99.86,1.4,0,0,0,0,0,0-.36-.4-.65-.87-.86-1.4,0,0,0,0,0,0Z"></path>
    <path class="cls-5" d="M150.55,489.27s-.04-.02-.06-.03c.02.01.04.03.06.04h0Z"></path>
  </g>
  <path d="M141.44,462.82l-2.15,2.11c1.99,1.98,4.03,3.61,6.19,5.21,1.08.79,2.19,1.52,3.29,2.27l3.41,2.09c4.6,2.69,9.5,4.85,14.52,6.64l3.79,1.28,3.86,1.04,1.94.52,1.96.4,3.93.78c1.31.25,2.64.36,3.97.55,1.33.15,2.65.37,3.98.47l4,.22c1.33.05,2.67.21,4,.14l4-.06c1.33-.04,2.68,0,3.99-.14,2.64-.23,5.29-.34,7.94-.67l3.96-.51,1.98-.26,1.97-.37,3.95-.74c1.31-.27,2.61-.64,3.92-.96,5.21-1.37,10.39-3.13,15.26-5.83,2.4-1.41,4.8-2.88,6.94-4.83.56-.45,1.07-.97,1.58-1.49l.77-.78.72-.86c.49-.55.92-1.2,1.36-1.83.22-.32.41-.69.62-1.03.1-.16.2-.38.3-.58l.14-.3c.05-.11.12-.29.18-.44l-5.66-1.67c-1.99,8.01-5.41,15.68-10.06,22.55-6.78,10.02-16.07,18.39-26.72,24.17-5.33,2.86-11.02,5.1-16.84,6.23-2.91.55-5.83.84-8.69.63-1.51-.15-3.03-.23-4.53-.47-.75-.11-1.51-.19-2.25-.32l-2.24-.42c-5.97-1.13-11.74-3.16-17.08-5.93-5.33-2.8-10.09-6.59-13.87-11.19-1.79-2.37-3.47-4.85-4.67-7.59-1.36-2.67-2.18-5.53-2.78-8.49-1.14-5.92-1.02-12.14-.46-18.3l-2.99-.34c-.97,7.37-1.33,15.04.45,22.6.46,1.87,1.02,3.76,1.82,5.52.39.89.71,1.8,1.16,2.66l1.39,2.56c.22.43.47.85.76,1.24l.81,1.21c.54.81,1.08,1.62,1.72,2.35.62.75,1.22,1.51,1.86,2.24l2.04,2.07c5.59,5.4,12.43,9.28,19.62,11.9,3.61,1.28,7.29,2.35,11.05,3.04.93.22,1.88.32,2.83.48.94.15,1.89.3,2.84.38.96.09,1.87.23,2.88.28l1.51.07,1.5-.02c4-.08,7.85-.84,11.58-1.87,3.73-1.05,7.33-2.45,10.79-4.11,6.92-3.33,13.3-7.69,18.97-12.83,11.38-10.23,19.79-23.93,23.34-38.9l1.86-7.82-7.52,6.15s0-.02-.01.02l-.07.14c-.05.09-.08.18-.15.29-.13.22-.24.43-.39.65-.31.44-.59.89-.97,1.32l-.53.65-.6.62c-.4.41-.79.84-1.26,1.21-1.71,1.6-3.79,2.9-5.87,4.16-4.26,2.43-9.03,4.14-13.88,5.49-1.23.32-2.43.68-3.67.96l-3.74.77-1.87.39-1.9.28-3.79.56c-2.53.36-5.1.52-7.66.8-1.28.16-2.55.15-3.82.21l-3.82.15c-1.28.1-2.55-.03-3.82-.05l-3.82-.12c-1.27-.07-2.53-.24-3.8-.35-1.26-.14-2.54-.21-3.8-.42l-3.77-.64-1.88-.32-1.86-.44-3.72-.88-3.65-1.11c-4.84-1.56-9.59-3.47-14.08-5.88l-3.32-1.88c-1.07-.68-2.16-1.34-3.22-2.05-2.09-1.41-4.17-2.98-5.94-4.61Z"></path>
  <path d="M204.79,484.62l-.09-1.5c-11.4.55-22.87-.69-33.78-3.92-5.44-1.66-10.71-3.84-15.72-6.51-.62-.34-1.26-.66-1.87-1.01l-1.82-1.1c-1.23-.71-2.39-1.52-3.57-2.3-2.53-1.86-3.7-2.45-8.58-7.24-.15,1.17-.29,2.43-.43,3.65l-.18,1.88-.09,1.09c-.1,1.35-.18,2.71-.22,4.07l-.03,1.46c.01.15-.03.33.02.47l.37.31.69.58c.52.45,1.06.87,1.6,1.3,1.08.84,2.18,1.66,3.31,2.42,4.5,3.08,9.32,5.68,14.33,7.8,5.02,2.12,10.23,3.76,15.53,5l4,.83c1.34.26,2.69.42,4.03.63l2.02.3c.67.08,1.35.13,2.03.19l4.06.36c3.27.09,6.54.3,9.8.11,3.27-.06,6.51-.29,9.75-.61,6.47-.64,12.93-1.67,19.26-3.35,6.3-1.73,12.54-4.06,18.09-7.77.7-.44,1.36-.97,2.04-1.46l.97-.8.41-.33c.17-.1.19-.33.29-.48l.3-.64c.69-1.49,1.33-2.99,1.92-4.52,1.18-3.05,2.15-6.19,2.9-9.37l-2.39-.71c-.13.35-.42.87-.68,1.31-.31.44-.59.91-.94,1.33-.36.42-.67.87-1.07,1.27l-1.16,1.2-1.27,1.11c-.41.38-.86.73-1.32,1.05l-1.37,1c-.46.33-.96.6-1.44.91l-1.45.9c-.5.28-1.01.52-1.52.79-1.02.52-2.02,1.07-3.09,1.48-1.06.44-2.1.91-3.18,1.32l-3.27,1.12c-1.08.41-2.21.66-3.32.97-1.12.29-2.22.62-3.35.89-2.27.44-4.52.99-6.8,1.35-2.29.32-4.58.73-6.88.98l-6.93.68.09,1.5,7.01-.53c2.34-.21,4.66-.57,6.99-.85,2.33-.33,4.63-.83,6.95-1.24,1.15-.26,2.29-.57,3.44-.85,1.14-.3,2.3-.54,3.42-.94l3.38-1.09c1.12-.4,2.21-.87,3.32-1.31,1.12-.41,2.17-.97,3.25-1.49.53-.27,1.08-.52,1.6-.8l1.55-.92c.51-.31,1.04-.6,1.54-.94l1.48-1.05c.5-.34.98-.7,1.44-1.11l1.39-1.18,1.3-1.3c.44-.43.81-.94,1.21-1.4.4-.47.74-1.01,1.1-1.53.34-.57.65-1.05.94-1.8l-2.39-.71c-.7,2.81-1.58,5.57-2.62,8.27-.52,1.35-1.08,2.68-1.69,4l-.46.98-.24.49c-.05.09-.02.06-.05.09l-.73.58c-.27.23-.57.42-.85.63-4.61,3.33-10.02,5.56-15.53,7.27-5.55,1.66-11.29,2.76-17.08,3.51-2.89.37-5.8.66-8.72.85-1.46.13-2.91.18-4.37.21l-4.36.12c-5.82-.09-11.63-.49-17.36-1.48-5.72-1.03-11.35-2.52-16.78-4.56-5.43-2.04-10.66-4.61-15.54-7.72-1.21-.79-2.41-1.6-3.57-2.46-.59-.41-1.14-.87-1.72-1.31-.28-.21-.56-.46-.82-.67-.03-.02-.06-.03-.05-.07l.04-1.9.11-2.17.09-1.4c0-.07,0-.19.02-.24l.26.22,1.22.96c.57.46,1.17.9,1.77,1.32.6.42,1.18.88,1.8,1.27,1.23.8,2.44,1.63,3.72,2.34l1.9,1.11c.64.36,1.3.68,1.94,1.02,5.2,2.68,10.65,4.84,16.25,6.45,11.23,3.13,22.96,4.15,34.49,3.33Z"></path>
  <path class="cls-14" d="M191.57,509.31c.57,4.57-1.44,6.28-2.17,9.19-17.47,7.64-43.85,2-50.95-10.55,1.27-6.73,1.97-9.86,3.4-21.49"></path>
  <g>
    <path class="cls-5" d="M176.49,518.55l-.07.16c-.49,1.05-1,2.13-1.92,3.02-.05.05-.09.1-.14.15.9-.05,1.8-.12,2.7-.21,0,0,0,0,0,0-.11-.83-.28-1.9-.56-3.08,0,0,0,0,0-.01Z"></path>
    <path class="cls-5" d="M170.84,520.94c-.29.35-.57.67-.85,1,.97.02,1.93.03,2.9,0,.16-.19.3-.37.48-.56-.94.37-1.87.2-2.52-.44Z"></path>
    <path class="cls-5" d="M158.35,519.96c.15-.04.32-.07.49-.07.03,0,.06,0,.09,0,.38.02.79.23,1.02.71.09-.19.18-.38.27-.56l.07-.15c.75-1.54,1.51-3.11,2.26-4.64l.31-.63c-.24.17-.47.34-.7.5h-.02c-.24.18-.48.36-.72.53-.06.04-.12.09-.19.15-.17.13-.37.29-.6.42-.26.14-.5.22-.72.3-.08.03-.14.05-.21.07-.13.05-.26.07-.39.07.02.03.04.06.06.08.23.34.42.93.02,1.84-.25.58-.6,1.03-1.04,1.38Z"></path>
    <path class="cls-5" d="M191.67,510.93c0-.5-.03-1.04-.1-1.62l-.32-.15h-2.89c.21.58.39,1.18.55,1.77h2.76Z"></path>
    <path class="cls-5" d="M189.33,512.7c.13.62.23,1.21.31,1.77h1.35c.21-.54.38-1.12.51-1.77h-2.17Z"></path>
    <path class="cls-5" d="M175.38,515.07c-.02-.05-.04-.1-.06-.15-.22.3-.43.59-.63.89.24-.25.47-.49.69-.73Z"></path>
    <path class="cls-5" d="M163.58,520.36l.63-.91c.71-1.02,1.43-2.05,2.16-3.08h0s0,0,0,0l.89.53c-.53,1.06-.92,1.87-1.27,2.63-.29.65-.57,1.37-.66,2.1,1.09.12,2.2.2,3.3.26.56-.62,1.09-1.26,1.64-1.93l.62-.75h0s0,0,0,0l.38.64c.06.1.15.16.22.24.53.58,1.3.58,2.21-.13.26-.21.5-.39.71-.61.38-.4.76-.81,1.13-1.22l.64-.69c-.12-.42-.26-.85-.41-1.29-.69.73-1.44,1.5-2.27,2.34-.06.06-.14.12-.23.17l-.78.46v-.94c.02-.37.17-.78.29-1.07.49-1.11,1.15-2.17,2.02-3.25-.19-.38-.4-.76-.63-1.12-.21-.34-.43-.66-.65-.97-.08.09-.16.19-.24.29-1.35,1.66-2.09,3.18-2.29,4.67-.22,1.64-1.36,2.69-2.41,3.54l-1.2.98.37-1.5c.17-.68.39-1.28.65-1.8.57-1.12,1.2-2.24,1.81-3.32.3-.54.61-1.09.91-1.64.64-1.17.89-2.1.78-2.95-.01-.11-.05-.23-.1-.34.58.61,1.16,1.3,1.71,2.08,2.01-2.41,4.31-4.28,6.84-5.56.56-.28.95-.41,1.24-.41.3,0,.52.13.69.43.42.7.18,1.68-.58,2.34-.48.42-.94.85-1.47,1.34l-.83.77h-.04s-.03,0-.04,0c-.03-.01-.04-.03-.05-.05l-.09-.95-.75.59c-.29.23-.52.42-.73.6-1.18,1.04-2.14,2.03-2.93,3,.18.35.34.7.49,1.05.74-.98,1.67-1.97,2.84-3.03-.7.83-1.42,1.68-2.15,2.49-.2.23-.41.46-.63.69.15.36.29.72.41,1.08.34-.37.67-.72.99-1.07.75-.83,1.47-1.69,2.18-2.54l.02-.02c.23-.28.47-.56.71-.84.04-.04.07-.08.11-.13l.32-.34.29-.09c.18-.05.36-.05.55.02.19.07.32.18.39.34.09.2.06.47-.08.8-.54,1.24-1.11,2.53-1.62,3.68l-1.11,2.49,1.95-1.91c.29-.28.58-.57.87-.84.1-.09.29-.21.42-.24.4.13,1.44.67,1.54,1.08,0,.31-.97,1.26-1.74,1.81-.36.2-.74.35-1.1.51-.77.32-1.56.66-2.22,1.36-.43.45-.8.93-1.17,1.44.49-.05.98-.12,1.47-.19.15-.18.29-.37.45-.54.51-.54,1.14-.81,1.87-1.11.4-.17.81-.34,1.22-.57v-.02c.53-.29,1.54-1.29,1.8-1.63.37-.48.51-.9.43-1.27-.27-1.19-2.23-1.92-2.51-1.92-.13,0-.26.02-.37.06.26-.59.52-1.19.78-1.78.26-.61.29-1.16.08-1.64-.12-.27-.36-.62-.85-.84.33-.31.64-.59.96-.87,1.13-.98,1.47-2.52.79-3.65-.03-.04-.06-.08-.08-.12h.32l-12.23-5.62-.04.03-.15.11h-.02c-.06.05-.13.1-.2.15h0c-1.1.74-2.28,1.22-3.53,1.42-.03,0-.2.03-.25.04h-.1s-.02.02-.02.02c-.03,0-.11.01-.15.02h-.03s-.03,0-.03,0c-.11,0-.19.02-.27.02h-.02s-.2.01-.26.02h-.03c-.07,0-.2.01-.26.01h-.1c-.06,0-.12,0-.18,0h-.1c-.06,0-.24,0-.24,0h-.03c-.07,0-.14,0-.21,0h-.15s-.01,0-.01,0c-.04,0-.08,0-.12,0h-.06s-.08-.01-.08-.01c-.08,0-.15-.01-.22-.02h-.03s-.04,0-.04,0c-.09,0-.17-.02-.24-.03h-.02s-.05-.01-.05-.01c-.09-.01-.16-.02-.23-.04h-.02s-.05-.01-.05-.01c-.06-.01-.14-.03-.24-.04h-.06c-.09-.03-.17-.05-.24-.07l-.13-.03h-.02c-.05-.02-.1-.03-.15-.04h-.04s-.01-.02-.01-.02c-.08-.02-.15-.04-.23-.07h-.04c-.09-.04-.17-.07-.24-.09h-.02s-.02-.02-.02-.02c-.16-.06-.2-.07-.23-.09l-.04-.02c-.06-.03-.12-.05-.16-.07h-.01s-.06-.03-.08-.04h0c-.08-.03-.15-.07-.22-.1h-.02s-.04-.03-.04-.03c-.07-.04-.14-.07-.2-.1l-.05-.03c-.05-.03-.12-.06-.19-.11h-.02s-.05-.04-.05-.04c-.03-.02-.09-.06-.16-.1h-.02s-.02-.03-.02-.03c-.12-.08-.16-.1-.18-.12h0c-.08-.06-.15-.11-.23-.17-.07-.05-.12-.09-.15-.12l-.03-.02h-.01s-.03-.04-.05-.05c0,.01-.01.05-.01.05l-.06.25v.02s-.02.07-.02.07c-.03.11-.06.22-.08.32v.02c-.04.13-.07.23-.1.34-.04.12-.07.23-.11.35v.04c-.05.11-.09.22-.13.33,0,0,0,.01,0,.02-.04.1-.07.19-.1.28h0s-.07.21-.1.27l-.11.28-.11.27-.05.11-.11.26-.12.26-.12.25-.04.08c-.05.11-.11.22-.16.32l-.04.08-.12.23-.13.23-.13.22-.13.22-.13.21-.14.21-.13.2-.14.2-.14.2-.14.19-.15.19-.15.18-.15.18-.16.17-.14.15h-.01c-.05.06-.1.12-.15.17l-.03.03s-.1.1-.14.13l-.02.02-.15.14-.17.15-.16.13-.09.07-.14.11h-.02s-.09.08-.16.14h0s-.13.1-.15.11h-.01c-.49.35-1.02.64-1.56.85l-6,2.4.66-3.06s-.04.06-.06.09l-.03.04c-.34.52-.71,1.01-1.09,1.46l-2.62,3.13v-2.64l1.32-1.58c.34-.41.67-.85.98-1.32l.02-.04c.06-.1.12-.19.18-.28h0s.01-.03.01-.03c.05-.08.11-.18.17-.28l.03-.06c.06-.11.12-.2.17-.3l.03-.05c.05-.08.09-.16.13-.24,0,0,.02-.03.03-.05h0s.01-.03.01-.03c.04-.08.09-.16.13-.24l.05-.1.08-.17c.05-.1.1-.21.15-.31v-.03c.05-.09.09-.18.15-.3h0s0-.02,0-.02c.04-.09.08-.18.11-.28h0s0-.03,0-.03c.03-.08.07-.17.1-.26,0,0,0-.02,0-.02.16-.43.3-.87.42-1.32.22-.82.37-1.65.46-2.52.46.41.83.93,1.08,1.56h0c.02.06.04.12.06.17,0,0,0,0,0,0,0,.02.02.06.03.08l.04.1.04.11.04.13s.02.06.02.09h0s0,.04,0,.04c.01.04.02.09.03.13l.04.17s.02.11.03.15v.04s.02.06.02.09c0,.02.02.11.02.15v.04s.01.06.02.09l.02.19s0,.06,0,.09v.03s0,.09,0,.12c0,0,0,0,0,0,0,.03,0,.06,0,.09h0s0,.03,0,.03c0,.04,0,.1,0,.12h0s0,.07,0,.11c0,.05,0,.08,0,.11h0s0,.07,0,.11h0s0,.08-.01.11v.03c-.01.06-.02.12-.03.19h0c0,.07-.02.14-.03.21v.03s-.02.08-.03.14l-.69,3.2,3.04-1.22c.42-.17.83-.39,1.22-.66h0s.08-.06.12-.09c.03-.02.1-.07.14-.1h0s.12-.1.12-.1l.07-.05.13-.11.14-.12.13-.12h0s.12-.12.12-.12h.01c.04-.06.09-.1.13-.14h0s.12-.14.12-.14l.13-.15.13-.15.13-.16.12-.16.12-.17.12-.17.12-.18.12-.18.12-.19.11-.19.11-.19.11-.2.11-.21.11-.21.03-.07c.05-.09.09-.19.14-.29l.04-.07.11-.23.11-.24.1-.24.04-.1.1-.25.1-.26c.02-.06.09-.25.09-.25h0c.03-.09.06-.18.1-.27,0,0,0,0,0-.01.03-.1.07-.19.1-.3v-.03c.05-.11.08-.21.11-.31.03-.09.06-.19.09-.31v-.02c.03-.1.06-.2.08-.3v-.04s.01,0,.01,0c.02-.07.07-.27.07-.27.02-.1.04-.19.07-.29l.07-.3h0s.04-.17.11-.52c0-.03.03-.13.1-.45.01-.04.05-.2.05-.23.01-.06.03-.12.04-.17v-.04c.02-.06.04-.11.06-.18h0s0-.03,0-.03c.01-.06.03-.11.05-.17v-.02c.02-.06.04-.12.06-.18v-.02c.02-.05.04-.11.06-.17v-.03s.04-.08.06-.14v-.03s.01,0,.01,0v-.02c.03-.06.05-.1.06-.14l.02-.05s.04-.09.06-.14c0-.01.02-.04.02-.05h0s.04-.08.05-.11h0c.07.19.15.38.24.56v.02s.03.04.03.04c.03.05.06.11.09.17v.02s.01.01.01.01c.04.08.08.14.12.21h0s.01.04.01.04c.03.06.07.12.12.19.05.07.1.15.16.23h0s.08.12.08.12l.1.13.1.12h0c.04.05.07.09.11.13h0s.03.04.03.04c.03.03.06.06.1.1h.01c.08.09.1.12.11.12h0s.11.11.11.11l.08.07h.01c.06.06.11.1.13.12h0s.03.03.03.03c.03.02.07.05.12.09.05.04.11.08.17.12h0s.03.02.15.1h.01s.01.01.01.01c.05.03.1.06.13.08l.04.03h.01c.05.04.1.07.14.09l.04.02s.1.05.16.08l.03.02h.01c.06.03.11.06.17.08.02,0,.04.02.07.03h0s.08.04.13.06h.03s.04.03.19.08h.01s.01,0,.01,0c.06.02.12.04.19.06h.03c.06.03.13.05.2.07h0s.02,0,.02,0c.05.01.1.03.16.04h0s.07.02.07.02c.06.01.12.03.2.04h.05c.07.03.14.04.2.05h.04s.01,0,.01,0c.06.01.12.02.2.03h.04s.01,0,.01,0c.06,0,.13.02.21.02h.03s.02,0,.02,0c.07,0,.14.01.19.02h.05s.04,0,.04,0c.06,0,.11,0,.18.01h0s.07,0,.07,0c.06,0,.12,0,.18,0h.01s.16,0,.22,0h.08c.05,0,.1,0,.15,0h.09c.05,0,.18,0,.23-.01h.02c.05,0,.24-.02.24-.02h.01c.07,0,.14-.01.24-.02h.02s.02,0,.02,0c.03,0,.1-.01.13-.01h.01s.09-.01.09-.01c0,0,.16-.02.19-.03.83-.14,1.64-.44,2.4-.87l-2.11-.97c-.19.05-.38.1-.57.13,0,0-.15.02-.15.02h-.06s-.12.02-.12.02c-.08,0-.14.01-.21.02,0,0-.17.01-.21.01,0,0-.17,0-.21,0h-.08s-.09,0-.13,0h-.07s-.19,0-.19,0c-.05,0-.1,0-.15,0,0,0-.04,0-.04,0-.06,0-.11,0-.17,0,0,0-.01,0-.02,0h-.03c-.06,0-.11-.01-.17-.02h-.03c-.06-.01-.12-.02-.18-.02h-.04c-.05-.01-.11-.02-.16-.03h-.04c-.05-.02-.11-.03-.16-.04h-.03c-.05-.02-.1-.03-.15-.04,0,0-.02,0-.02,0-.05-.01-.1-.03-.15-.04,0,0-.02,0-.02,0-.05-.01-.1-.03-.15-.04h-.02s-.09-.04-.14-.05c0,0-.13-.05-.16-.06h-.02s-.06-.04-.1-.05c0,0-.05-.02-.05-.02-.04-.02-.08-.04-.12-.06h-.02s-.07-.05-.11-.07c0,0-.03-.02-.03-.02-.03-.02-.07-.04-.1-.06l-.04-.02s-.06-.04-.09-.06c0,0-.1-.07-.12-.08-.04-.03-.08-.06-.12-.08-.03-.02-.06-.04-.08-.06l-.02-.02s-.1-.08-.1-.08l-.05-.04-.09-.08s-.09-.08-.09-.08c-.02-.02-.05-.05-.07-.07,0,0-.01-.01-.02-.02-.03-.03-.05-.06-.08-.09l-.08-.09-.07-.09-.06-.08c-.04-.06-.08-.11-.11-.16-.03-.05-.06-.1-.09-.15,0,0-.01-.02-.01-.02-.03-.05-.06-.1-.08-.15,0,0,0,0,0-.01-.02-.04-.05-.09-.07-.14l-.02-.03c-.12-.25-.22-.53-.3-.82l-2.24-1.03c-.15.19-.3.38-.43.58-.04.06-.07.12-.11.17l-.03.05c-.04.06-.07.12-.1.18l-.03.05c-.03.06-.06.12-.09.18l-.03.06s-.05.1-.07.15c0,0-.03.08-.03.08-.03.06-.05.12-.08.18l-.02.05c-.02.06-.05.13-.08.19l-.02.04s0,0,0,.01c-.02.06-.04.12-.06.18,0,0,0,.03,0,.03-.03.08-.05.15-.07.22v.02c-.03.07-.05.14-.07.21v.02c-.03.07-.05.14-.07.21v.04s0-.01,0-.01c-.02.07-.04.14-.06.21v.03c-.02.06-.04.13-.06.2,0,0-.06.25-.06.25,0,0-.1.46-.1.46,0,0-.11.51-.11.51l-.06.29c-.02.09-.04.18-.06.27,0,0-.07.29-.07.29-.02.09-.05.18-.07.27v.02c-.03.09-.05.18-.08.27-.03.1-.06.19-.09.28v.02c-.04.09-.06.17-.1.26,0,0,0,0,0,0-.03.08-.06.16-.09.25,0,0-.07.19-.09.24l-.09.23-.09.22-.04.1-.09.22-.09.21-.09.2-.03.06c-.04.09-.09.18-.13.26l-.03.06-.1.19-.1.18-.1.17-.1.17-.1.16-.1.16-.1.15-.1.15-.1.14-.1.14-.1.13-.1.13-.1.12-.1.12-.1.11s-.07.07-.1.1c0,0-.07.07-.1.1l-.11.1-.1.09-.1.09-.04.03-.1.08s-.11.08-.11.08c0,0-.08.06-.09.06-.28.2-.57.35-.88.48.01-.06.02-.12.04-.18v-.03c.02-.08.04-.17.05-.25,0,0,0-.02,0-.02.01-.09.03-.18.04-.28,0,0,0,0,0,0,0-.05,0-.09.01-.14,0,0,0,0,0,0,0-.05,0-.1.01-.15,0-.05,0-.1,0-.15,0-.06,0-.11,0-.16,0,0,0-.11,0-.16v-.02h0c0-.06,0-.1,0-.15,0,0,0-.12,0-.17v-.03s0-.1-.01-.14l-.02-.21s0-.09-.02-.14v-.04s-.03-.19-.03-.19c0-.04-.01-.09-.02-.13v-.05s-.04-.19-.04-.19l-.04-.2c-.01-.06-.03-.12-.04-.18,0,0,0,0,0-.01-.01-.05-.03-.11-.04-.16l-.05-.16-.05-.15-.04-.13s-.04-.12-.04-.12c-.03-.08-.06-.15-.09-.22,0,0,0,0,0-.01-.37-.91-.91-1.67-1.62-2.27-.72-.62-1.39-.86-1.57-.92,0,0-.03,0-.03,0-.09-.03-.18-.04-.27-.04-.18,0-.35.05-.5.15-.22.15-.36.4-.37.66,0,.11,0,.24-.01.38,0,.1,0,.21-.01.33v.02c-.06,1-.2,1.94-.45,2.86-.11.39-.23.79-.37,1.17,0,0,0,0,0,.01-.03.08-.06.16-.09.24,0,0,0,0,0,0-.04.1-.07.18-.11.27,0,0,0,.01,0,.02-.04.09-.08.18-.12.27,0,0-.01.03-.01.03-.04.09-.08.18-.13.28l-.07.15-.04.09c-.04.07-.07.15-.11.22,0,0-.04.08-.04.08-.04.07-.08.14-.12.22l-.02.04c-.05.09-.1.18-.15.26l-.03.05c-.05.08-.1.17-.16.25,0,0,0,0,0,.01-.05.08-.11.17-.16.25l-.02.03c-.28.41-.56.8-.86,1.15v-16.74h8.23l-.04-.02h-11.25c-.29,2.21-.56,4.05-.81,5.67,0,.02.01.04.01.04,0,0,.04.27.04.64,0,.04,0,.09,0,.13,0,.63-.1,1.49-.52,2.05-.26,1.51-.52,2.91-.8,4.38h1.32v3.6l-1.98.16c.32.56.69,1.11,1.09,1.64h.89v1.1c2.26,2.6,5.4,4.82,9.09,6.58.01-1.03.43-2.08,1.23-3.02,2.12-2.5,4.83-3.93,8.52-4.49.78-.12,1.42.08,1.86.54.37-.23.75-.41,1.12-.59.51-.25,1-.48,1.39-.82.46-.4,1.01-.59,1.53-.75,1.12-.35,2.11-.11,2.64.61.2.28.39.7.36,1.3.04-.04.07-.09.1-.13.38-.48.75-.85,1.13-1.13.32-.23.6-.43.88-.56-1.82-1.52-3.49-2.33-4.35-2.71h13.41c-2.36,1.28-4.51,3.04-6.42,5.27.03-.32.02-.63-.01-.94-.09-.71-.59-1.58-1.46-1.79-.11-.03-.22-.04-.34-.04-.28,0-.55.08-.84.22.31.26.62.53.93.83,0,0,0,0,0,0-.27-.07-.74.23-1.19.56-.31.23-.61.53-.94.94-.66.82-1.32,1.66-1.97,2.48l-2.36,2.99,1.48-3.51c.31-.74.56-1.36.76-1.92.19-.52.19-.95-.02-1.24-.21-.29-.55-.35-.8-.35-.21,0-.43.04-.68.12-.42.13-.85.28-1.17.55-.49.42-1.03.68-1.61.96-.47.23-.96.46-1.39.79l-.49.36-.28-.55c-.16-.32-.44-.48-.85-.48-.08,0-.18,0-.27.02-3.43.52-5.94,1.83-7.88,4.14-.77.92-1.08,1.92-.93,2.85,1.77.78,3.65,1.46,5.61,2.02.05-.02.09-.04.14-.06.27-.12.54-.24.81-.36.57-.26.94-.65,1.22-1.27.11-.26.22-.62.07-.84-.03-.05-.08-.1-.16-.14-.08-.04-.19-.07-.34-.07-.07,0-.15,0-.24.02-.38.06-.76.13-1.14.21-.36.07-.71.14-1.06.19-.79.12-1.56.23-2.32.28l-.94.06h0s0,0,0,0l.46-.82c.06-.12.17-.28.32-.41.72-.66,1.54-1.17,2.41-1.61.43-.22.84-.45,1.3-.61l.99-.35-.32,1s0,.05.03.07l.15.09s.07.02.1,0l1.08-.65.27-.16.1.94c0,.08.02.15.02.22,0,.02.02.04.04.05.02.01.06.02.09,0,.07-.03.14-.05.22-.08.2-.07.39-.13.57-.23.16-.09.31-.2.45-.32.09-.07.17-.13.24-.19.24-.17.48-.34.72-.52,0,0,0,0,0,0h0c.78-.56,1.57-1.13,2.37-1.67l.89-.61-.09,1.22-.06.12s-.03.05-.04.08l-1.03,2.12c-.76,1.57-1.55,3.19-2.32,4.79l-.07.15c-.07.15-.15.31-.22.47.65.13,1.31.24,1.98.34.23-.35.45-.68.65-.95Z"></path>
    <path class="cls-5" d="M158.32,516.11s0-.02-.01-.02l-.03.02s.03,0,.04,0Z"></path>
    <path class="cls-5" d="M156.55,515.61c-.64.27-1.24.6-1.79,1,.21-.03.43-.06.65-.1.33-.05.68-.12,1.01-.19.27-.05.54-.11.81-.15-.05-.02-.1-.05-.15-.08l-.15-.09c-.16-.1-.29-.24-.38-.39Z"></path>
    <path class="cls-5" d="M164.38,521.04c-.09.13-.19.29-.29.43.07,0,.15.02.22.03.02-.15.04-.31.07-.46Z"></path>
  </g>
  <g>
    <path class="cls-4" d="M147.52,497.88c-.81-2.31-2.69-6.1-.94-11.51-1.4,2.36-2.63,4.54-3.48,6.32-.89,1.85-1.37,3.28-1.21,4.02.32,1.49,1.72,5.45,6.87,20.71.8.34,5.46,2.19,6.34,2.45-2.47-7.18-5.32-15.49-7.59-21.99Z"></path>
    <path class="cls-10" d="M140.41,494.42c-.15.54-.3,1.09-.29,1.8.01.19.03.37.05.55l.1.41.22.76c.31.99.64,1.94.97,2.9.67,1.91,1.36,3.81,2.06,5.71,1.4,3.79,2.85,7.56,4.31,11.3.21.55.59.91.85.81s.34-.6.16-1.17c-1.19-3.84-2.41-7.69-3.66-11.53l-1.88-5.75-.91-2.86-.2-.7-.08-.32c0-.07,0-.13,0-.2-.01-.3.08-.74.21-1.16.55-1.75,1.5-3.55,2.42-5.3.94-1.76,1.93-3.51,2.94-5.25,2.02-3.49,4.03-6.99,6.04-10.47.29-.51.34-1.03.1-1.17s-.68.12-1.01.61c-2.24,3.34-4.49,6.7-6.64,10.13-1.08,1.71-2.13,3.45-3.13,5.23-.98,1.8-1.97,3.57-2.64,5.67Z"></path>
  </g>
  <path d="M155.27,522.68c5.76,1.69,11.77,2.33,17.72,2.02,2.98-.16,5.94-.59,8.85-1.29,1.45-.35,2.89-.78,4.3-1.28.71-.23,1.4-.54,2.09-.82l.26-.11.37-.17.76-.34c.5-.23,1.01-.44,1.5-.68.13-.54.27-1.08.42-1.61.03-.13.08-.28.12-.38l.06-.2.14-.41.69-1.85c.49-1.34.79-2.93.73-4.41-.04-1.2-.88-1.96-1.7-1.84-.85.12-1.43.92-1.51,1.77-.11,1.1-.41,2.06-.93,3.09l-.87,1.7-.23.48-.11.25-.04.08c-.05.09-.1.18-.14.27-.14.05-.31.09-.45.13l-.58.16c-.64.18-1.27.39-1.93.54-1.29.33-2.6.6-3.93.8-2.65.41-5.33.62-8.02.6-5.38-.03-10.77-.76-15.88-2.25-3.13-.93-6.16-2.13-8.91-3.71-1.38-.78-2.67-1.67-3.84-2.66-.31-.24-.57-.5-.85-.76-.29-.25-.55-.52-.8-.8-.26-.27-.52-.54-.74-.84l-.35-.43-.11-.14-.04-.04c-.04-.05-.13-.1-.11-.19v-.12s0-.03,0-.03l.02-.15.05-.32.38-2.59c.25-1.73.48-3.48.68-5.23.4-3.5.66-6.99.88-10.47.07-1.02-.53-1.89-1.37-2-.84-.1-1.63.59-1.82,1.59-.65,3.4-1.31,6.8-2.03,10.16-.36,1.68-.74,3.35-1.14,5.04l-.59,2.54-.42,1.94-.12.58-.03.15s.05.09.07.13l.15.25.61,1.03.31.52.15.25.11.15.43.62c.28.42.59.8.91,1.19.31.39.64.76.98,1.11.34.36.67.72,1.04,1.04,1.42,1.34,2.96,2.49,4.58,3.49,3.22,2.01,6.69,3.44,10.23,4.48Z"></path>
  <path class="cls-11" d="M238.32,506.89c-.9,1.11-2.1,1.98-2.95.87-.47-.62-.67-1.77-.64-2.92.02-.73.12-1.43.23-2.13,0,.54.28,1.44,1.14,2.01.33.22.85.24,1.65-.32,1.97-1.38,4.5-6.08,4.5-6.08,0,0-1.41,5.45-3.92,8.56Z"></path>
  <path d="M142.39,477.78c-.43-4.99-1.16-9.99-2.04-15.03-.06-.37-.76-.66-1.61-.67-.85,0-1.55.28-1.61.66-.9,5.14-1.2,10.39-.72,15.57.46,5.18,1.65,10.37,3.75,15.25.15.36.9.47,1.72.26.82-.21,1.43-.67,1.4-1.03-.31-5.02-.43-10.02-.9-15.01Z"></path>
  <g>
    <path class="cls-5" d="M162.93,517.69c-2.2-.92-3.8-2.13-4.77-3.58-1.01-1.51-1.32-3.28-.92-5.24l1.91-9.48,15.33,1.74-1.91,9.48c-.4,1.97-1.39,3.58-2.95,4.81-1.5,1.18-3.51,1.97-5.97,2.36l-.38.06-.34-.14Z"></path>
    <g>
      <path class="cls-1" d="M163.42,516.77c-2.02-.85-3.49-1.94-4.36-3.24-.87-1.3-1.13-2.83-.79-4.53l1.71-8.48,13.29,1.51-1.71,8.48c-.34,1.71-1.2,3.1-2.54,4.16-1.34,1.05-3.17,1.77-5.44,2.13h-.08s-.08-.02-.08-.02Z"></path>
      <path class="cls-3" d="M162.21,502.46c.08-.22-.07-.29-.1-.3.06-.02.12-.05.12-.05,0,0-.06,0-.13,0,.01-.03.1-.24-.08-.36-.13-.09-.26-.03-.32.02h0c0-.08-.03-.09-.03-.09,0,0-.04.02-.06.12h0s0,0,0,0c-.04-.04-.18-.17-.37-.06-.19.11-.16.29-.15.35,0,0-.01,0-.01,0-.1-.03-.18,0-.18,0,0,0,.01.05.14.1,0,0,0,0,0,0-.05.03-.18.11-.15.27.04.19.21.21.25.22,0,0,0-.02.01-.03,0-.01.02-.01.02-.02,0,.01-.02.01-.02.02,0,0-.01.02-.01.03-.04.08-.05.14-.05.14,0,0,.07-.05.12-.1.02.04.11.17.3.17.22,0,.31-.14.33-.18,0,0,0,0,0,.01.04.05.09.06.09.06,0,0,0-.04-.01-.1.07,0,.21,0,.28-.19Z"></path>
      <path class="cls-11" d="M167.94,513.76c-.2-.17-.8-.14-1.04-.71-.09-.21.02-.29.02-.29,0,0,.56.36.9.35.41-.01.46-.22.46-.22,0,0,.06.02-.02.14,0,0,.08,0,.13-.1.1-.18,0-.32,0-.32.1,0,.08.12.08.12,0,0,.24-.24-.36-.57-.44-.25-1.12-.28-1.53-.39-.35-.09-.37-.17-.33-.26.08-.19.39-.02.57.11.2.14.59.23.94,0,.12-.08.28-.1.28-.1,0,0-.15-.13-.31-.05-.07.03-.12.07-.24.06-.21,0-.24-.08-.24-.08,0,0,.09.08.38-.02.37-.13.24-.53.24-.53,0,0,0,.14-.17.21-.23.11-.37-.03-.37-.03,0,0,.07.05.2.02.16-.04.22-.11.19-.21-.01-.04-.07-.1-.07-.1,0,0,.12.23-.51.11-.32-.06-.5.25-.5.25,0,0-.14-.05-.25-.03.02-.05.03-.13.01-.19-.07.16-.22.25-.29.32-.07.06-.24.24-.12.47.12.2.41.26.59.3.27.05.72.13,1.11.23.53.13.38.38.3.45-.08.07-.21.06-.56-.11-.35-.17-.7-.45-1.49-.5-1.09-.08-2.02.61-2.4.52,0,0-.05,0-.1-.01,0,0,0,0,0-.02,0-.13-.02-.24.02-.24.04,0,0,.11.08.17.05.04.15,0,.15,0-.08-.13-.03-.33.01-.45.08-.25-.1-.25-.1-.25,0,0,.08-.04.12-.13.07-.15.02-.36.02-.36,0,0-.13.16-.22.03,0,0,.08-.06.1-.21-.02.04-.43.26-.43-.22-.21.02-.23.21-.35.19-.06-.01-.12-.07-.04-.19,0,0-.18-.01-.25.17-.08.22-.13-.09-.29-.1,0,0-.14.11-.18.36-.14-.01-.22.09-.27.26-.14.48-.24.31-.24.32-.02.3.19.16.19.16-.07.21-.24.07-.24.07,0,.33.15.24.15.24-.03.06-.04.1-.05.14-.05-.01-.09-.03-.08-.04-.06,0-.19-.07-.17-.46,0-.03.05.01.05.01,0-.06-.05-.09-.04-.15,0-.1.03-.29.1-.35.1-.09.34-.1.27-.31h0s.01-.02.02-.03c.05-.12-.01-.19-.05-.23,0,0,.02.1-.08.18,0,0,0,0,0,0,0,0,0,0,0,0-.04,0-.08,0-.1,0,.01-.04.14-.27-.05-.34,0,.03-.01.07-.03.09h0s.03-.06.03-.09c0,0,0,0,0,0,0-.12-.08-.17-.12-.19,0,0,.05.07,0,.17h0c-.2,0-.21.25-.21.29,0-.06-.08-.22-.21-.17,0,0,0,0-.01,0,.01.01.02.03.03.04,0,.02,0,.04,0,.06h0s0-.04,0-.06c0-.01-.02-.03-.03-.04-.01-.01-.03-.02-.04-.03-.11-.06-.19,0-.24.02,0,0,.11,0,.16.09h0c-.05.05-.06.14.03.23.14.14.09.62.06.68-.05.08-.11-.05-.11-.05,0,0-.04.11.02.23.1.22.13.31.03.26-.03-.01-.06-.05-.06-.05,0,0-.01.1.09.22.04.05.03.07,0,.06-.04-.01-.07-.04-.07-.04,0,0,.02.1.07.19.08.16.17.23.17.23,0,0-.12-.03-.28-.15-.24-.18-.1-.28-.15-.47-.04-.18-.08-.21-.16-.23h0s0,0,0,0c0,0,0,0,0,0,0-.02-.01-.04-.02-.06-.06-.1-.16-.09-.22-.09,0,0,.1.04.1.16,0,.03,0,.05.01.07.01.01.03.02.05.02-.02,0-.04,0-.05-.02-.02-.02-.02-.04-.01-.07-.08.03-.1.11-.1.15-.04-.06-.12-.15-.19-.17-.04-.01-.09,0-.14.01,0,0,0,0,0,0-.02-.02-.05-.03-.08-.04-.12-.03-.19.05-.23.08,0,0,.1-.03.18.04h0c-.06.08-.08.23.18.35,0,0-.14,0-.2.1.03,0,.07,0,.09.02h0s-.06-.02-.09-.02c0,0,0,0-.01,0-.13,0-.18.09-.21.13,0,0,.09-.06.19,0,0,0,0,0,0,0,0,.14.11.17.21.18.41.04.69.27.69.27,0,0-.09,0-.15.05-.06.06-.06.1-.06.1,0,0,.04-.03.15-.04.11,0,.13.04.13.04,0,0-.17.04-.14.21,0,0,.08-.06.18-.08.09-.02.18,0,.21.05.04.08-.2.13-.2.13.14.11.48.1.48.1,0,0-.24.02-.27.17,0,0,.17-.09.43.05.4.21.91.35,1.66.15.94-.25,1.12-.99,2.41-1.24,0,.02.05.07.1.13-.04.03-.07.06-.09.08-.02.02-.18.19.06.51.09.12.2.17.2.17,0,0-.2-.06-.47-.06-.12-.05-.18-.21-.33-.3-.05-.03-.1-.03-.14-.02-.01,0-.02-.01-.03-.02-.11-.04-.18.02-.21.06,0,0,.09-.02.15.04,0,0,0,0,.01.01.02.02.03.04.05.04,0,0,0,0,.01,0,0,0,0,.01-.01,0-.02,0-.04-.02-.05-.04,0,0,0-.01-.01-.01-.02.04-.02.1.03.16-.08-.01-.16.02-.19.1h0s-.01,0-.02,0c-.11.04-.12.13-.13.18,0,0,.05-.06.14-.07.01,0,.02,0,.04,0,.01,0,.02,0,.04,0-.01,0-.02,0-.04,0-.01,0-.02,0-.04,0,0,0,0,0,0,0,.02.16.28.07.28.07,0,0-.14.07-.09.19.01-.02.02-.03.03-.04.01-.01.03-.02.05-.02.02,0,.03.01.04.02,0-.01-.02-.02-.04-.02-.02,0-.04,0-.05.02-.01,0-.02.02-.03.04,0,.01-.02.03-.02.04-.04.11.02.17.05.2,0,0-.02-.08.05-.15.15.08.34-.15.34-.16-.04.18.09.24.09.24,0,0,0-.08.08-.12.1-.05.22-.02.23-.02-.04.09-.02.13.03.16.05-.19.42-.15.42-.15,0,.08.08.11.08.11,0,0,.02-.1.11-.15.09-.05.22-.04.38-.1.18-.07.18-.25-.04-.3-.02,0-.05-.07-.08-.15.15.05.28.09.34.12.16.06.45.16.21.46-.12.14-.2.18-.29.22-.01,0-.1-.04-.22-.1-.07-.04-.13-.03-.16.02h0s-.02,0-.04,0c-.11,0-.16.08-.18.13,0,0,.08-.05.18,0,0,0,0,0,0,0,.02.01.04.02.07.02.02,0,.02-.02.03-.04-.01.01-.01.03-.03.04-.02,0-.04,0-.07-.02,0,0,0,0,0,0,0,.09.07.11.07.11,0,0-.1.02-.11.11,0,0,0,0,0,0-.02,0-.03.01-.04.02-.1.06-.11.14-.11.19,0,0,.05-.09.16-.09h0s.05,0,.07-.02h0s-.04.02-.07.02c0,0,0,0,0,0,.04.07.2.04.2.04,0,0-.05.07-.01.14.01-.02.03-.04.05-.06.01-.01.03-.02.05-.02.02,0,.03.01.04.02,0-.01-.02-.02-.04-.02-.02,0-.04,0-.05.02-.02.01-.03.04-.05.06,0,0,0,.02-.01.02-.04.11.02.17.05.2,0,0-.02-.09.06-.16,0,0,0,0,.01,0,.02-.02.04-.03.04-.06h0s-.02.04-.04.06c0,0,0,0-.01,0,0,0,.02,0,.03,0,.08,0,.2-.06.28-.21.1-.18.17-.21.17-.21,0,0,.19-.13.07.13.16-.02.18-.19.18-.19,0,0,.11.07.16.05.06-.03.03-.16.11-.24.09-.09.1.03.06.1,0,0,.1-.02.13-.14.02-.08,0-.17.1-.23.07-.04.07.03.04.09,0,0,.07.01.11-.11.02-.08,0-.1.03-.11.03,0,.04.07.04.07,0,0,.1-.14-.02-.24ZM160.81,511s0,0,0,0c0,.01.02.02.02.03,0,0-.02-.02-.02-.03,0,0,0,0,0,0ZM159.74,512.21s0,0,0,0c0,0,0,0,0,0,.02.02.03.03.05.03-.02,0-.04-.02-.05-.03ZM159.8,512.25s0,0,.01,0c0,0,0,0-.01,0h0Z"></path>
      <path class="cls-11" d="M170.49,510.07s.06-.23-.1-.32c-.21-.11-.53-.04-1.1-.16-1.4-.29-1.12-.78-1.12-.78,0,0,.82.49,1.23.35.23-.08.25-.26.25-.26.04.07-.05.2-.05.2,0,0,.42-.22.07-.69-.13-.17-.4-.31-.61-.36-.61-.15-.86-.15-1.29-.26-.36-.09-.42-.23-.38-.33.12-.29.72.21,1.13.09.11-.03.21-.09.3-.1.1-.01.18.03.18.03,0,0-.06-.17-.36-.14-.25.02-.25-.06-.25-.06,0,0,.11.02.27-.05.1-.04.15-.16.27-.19.14-.04.25.03.25.03,0,0-.11-.29-.46-.17-.24.11-.3,0-.3,0,0,0,.17.02.29-.15.11-.15.22-.16.22-.16,0,0-.15-.09-.31.02-.11.07-.24.08-.46.06-.28-.04-.46.28-.46.28,0,0-.11,0-.22.03-.09.03-.21.11-.21.11l.06-.1s-.23.08-.3.39c-.12.53.46.64.65.68.28.05.82.13,1.23.23.55.14.51.4.41.51-.11.12-.33.03-.69-.15-.36-.18-.65-.44-1.45-.51-1.26-.1-2.76.62-3.1.36,0,.01-.05-.01-.1-.04,0-.06.01-.12.02-.15.02-.09.07-.1.06-.06-.02.26.27.2.27.2,0,0-.09-.12.1-.5.1-.19.02-.39.02-.39,0,0,.07-.07.09-.1.11-.16.08-.48.08-.48,0,0-.19.2-.28.07-.09-.12.06-.28.06-.28-.13-.06-.28.11-.43,0-.11-.08.08-.27.08-.27,0,0-.15-.02-.29.02-.13.04-.19.08-.27.07-.11-.02-.04-.19-.04-.19,0,0-.13-.02-.24.11-.11.13-.2.15-.2.15-.02-.06-.11-.07-.16-.1-.06-.03-.1-.06-.1-.06,0,0-.17.22-.15.42-.1.01-.15.11-.17.16-.19.38-.32.18-.32.2-.04.35.17.36.13.44-.05.11-.2-.06-.2-.06-.04.24.06.27.08.42.01.12-.06.2-.06.36-.06,0-.11,0-.11,0-.23-.03-1.1-.28-1.13-.76,0-.18-.04-.26-.15-.28,0,.01.01.02.02.04,0-.01,0-.02-.02-.04-.01-.02-.03-.04-.05-.05-.1-.08-.2-.04-.25-.01,0,0,.1,0,.15.1,0,0,0,.01.01.02,0,0,0-.02-.01-.02-.1.06-.1.2-.1.2-.09-.1-.27-.26-.41-.19h0s-.03-.01-.04-.02c-.13-.04-.22.04-.27.08,0,0,.1-.03.18.04,0,0,.01.01.02.02,0,0-.01-.01-.02-.02-.14.16.17.39.17.39-.13-.02-.34.06-.36.18.02,0,.04,0,.05,0-.02,0-.03,0-.05.01-.02,0-.03.01-.05.02-.12.07-.12.17-.12.23,0,0,.05-.1.18-.11,0,0,0,0,.01,0,.03,0,.05,0,.07-.02-.02.01-.05.02-.08.02,0,0-.01,0-.01,0,.02.08.07.13.26.1.44-.07.71.04.71.04,0,0-.04.14-.22.08,0,0,.05.11.22.13.22.03.36-.05.36-.05,0,0,0,.05-.07.08-.15.05-.09.21-.09.21.11-.15.23-.07.23-.07-.03.03-.08.12-.02.2,0,0,.03-.09.18-.11.11-.01.19.03.19.03,0,0-.11.11-.03.26,0,0,.08-.19.21-.12.05.03.03.09.01.12-.03.04-.1.04-.1.04.19.12.28-.03.42.13-.23.07-.5.06-.74.02-.51-.1-.59-.21-.69-.34-.13-.17-.26-.21-.34-.19h0s-.05-.03-.07-.04c-.13-.04-.22.04-.27.08,0,0,.11-.03.2.05h0c-.06.07,0,.15.03.19-.03,0-.07-.02-.09-.03-.1-.04-.2,0-.25.07,0,0,.01,0,.02,0,0,0-.01,0-.02,0-.01,0-.02,0-.03,0-.14.02-.19.12-.22.18,0,0,.09-.07.2-.04h0c0,.14.16.18.28.2-.07.03-.14.07-.14.16h0s-.02.01-.03.02c-.1.09-.08.18-.07.23,0,0,.03-.09.13-.13h0c.08.12.35,0,.43-.02.22-.09.38-.05.47,0,.16.11-.1.16-.1.16.05.05.15.04.22.02.06-.02.12-.05.14-.01.01.02,0,.06-.05.1-.04.02-.09.03-.09.03.21.11.46-.07.46-.07,0,0,.01.03-.02.08-.05.08-.14.11-.14.11.23.1.42-.17.42-.17,0,0,.1.1-.07.21.2.03.26-.13.35-.06.05.04,0,.12-.08.13.22.1.24-.1.5-.03.38.11.83.22,1.58.03,1.15-.28,1.45-1.2,2.65-1.19,0,0,0,.02.04.06-.06.06-.1.12-.1.12,0,0-.26.29.45.71,0,0-.25-.07-.4-.09-.17-.03-.36-.02-.36-.02,0,0-.16-.2-.29-.26-.04-.02-.11-.05-.18-.02.02.01.04.02.05.04,0,0,0,.02,0,.04,0-.01,0-.03,0-.04-.01-.02-.03-.03-.05-.04-.01,0-.03-.01-.04-.02-.12-.04-.19.03-.23.07,0,0,.09-.03.17.04,0,0,0,0,.01.01,0,0,0,0-.01-.01-.05.09,0,.16.03.19-.2.02-.27.06-.29.16.02,0,.05-.01.07,0h0s-.04,0-.07,0c-.01,0-.03,0-.04.01-.12.06-.12.15-.13.2,0,0,.06-.08.17-.09,0,0,0,0,0,0,.03.07.11.12.24.09.06-.01.08-.02.08-.02,0,0-.13.11-.11.23-.01.01-.02.03-.03.04-.07.11-.02.19.01.23,0,0,0-.09.09-.16,0,0,.01,0,.02-.01.03-.02.05-.03.06-.05h0s-.03.04-.06.05c0,0-.01,0-.02.01.01,0,.03.02.05.02.1.04.21-.04.3-.12.18-.16.32-.09.32-.09-.12.09-.05.21-.05.21,0,0,.12-.18.24-.11-.05.11.05.19.05.19,0,0,.11-.18.2-.17.12.01.02.18.02.18,0,0,.07,0,.19-.09.08-.06.15-.12.29-.1,0,.02-.01.15.1.22.08-.44.73-.43.84-.44.31-.02.33-.26.33-.26-.04,0-.02-.08,0-.16.53.1.96.18.88.41-.07.2-.59-.16-.71.04,0,0,0,0,0,0,0,0,.01,0,.02,0,0,0-.01,0-.02,0-.01,0-.03,0-.04,0-.12.03-.15.12-.17.17,0,0,.08-.07.19-.05h0s.06.08.1.09c-.08.03-.12.05-.15.14,0,0,0,.02,0,.03-.02,0-.03.02-.05.03-.1.09-.07.18-.06.23,0,0,.03-.1.14-.13,0,0,0,0,0,0,.03,0,.05-.01.07-.03h0s-.04.03-.07.03c0,0,0,0,0,0,.04.05.09.07.15.06.07-.01.1-.03.11-.04-.03.03-.08.1-.07.16,0,.02,0,.04.02.06,0-.02.02-.05.04-.06,0,0,.01,0,.02,0,0,0-.01,0-.02,0-.02.02-.03.04-.04.06,0,.01,0,.02-.01.03-.03.12.04.18.08.21,0,0-.03-.09.04-.18.15.02.32-.16.38-.33.08-.21.14-.17.14-.17,0,0,0,.04.03.09.03.04.08.05.08.05.02-.15.14-.18.18-.14.04.05-.02.13-.02.13,0,0,.07.03.19-.11.07-.07.08-.18.14-.18.08,0,.03.1.03.1.21-.08.15-.39.23-.41.06,0,.02.1.02.1,0,0,.13-.05.12-.18-.01-.19.05-.03.05-.03ZM159.7,509.29s.01,0,.02,0h0s-.01,0-.02,0ZM165.39,510.14s0,0,.01,0h0s0,0-.01,0ZM165.7,509.72s.03-.03.03-.05h0s-.02.04-.03.05ZM165.64,510.42s.02.03.02.04c0-.02,0-.03-.02-.04ZM168.61,510.46s0,0,0,0c.01,0,.02,0,.04,0-.01,0-.02,0-.04,0,0,0,0,0,0,0ZM168.92,511.14h0s0,0,0,0h0ZM168.97,511.07s0,0,0,0h0s0,0,0,0Z"></path>
      <path class="cls-11" d="M171.21,505.88s.03.04.03.04c0,0,.07-.18-.09-.28-.09-.06-.26-.06-.46-.06-.16,0-.34,0-.51-.04-1.17-.25-1.18-.69-1.13-.66,0,0,.23.16.6.28,1.02.32,1.14-.25,1.14-.25,0,0,.03.03.03.09,0,.07-.07.17-.07.17,0,0,.15-.08.18-.23.04-.22-.09-.31-.09-.31,0,0,.03,0,.07.05.04.05.05.16.05.16,0,0,.09-.17-.08-.36-.48-.53-1.73-.58-2.19-.7-.4-.11-.48-.29-.41-.46.11-.28.5-.24.5-.24-.08.31.27.56.66.52.22-.02.36-.08.53-.18.13-.08.23-.11.23-.11-.18-.06-.32,0-.41.03-.09.02-.18.04-.27.04-.24,0-.23-.16-.23-.16,0,0,.16.1.39.07.68-.07.58-.69.58-.69,0,0-.1.22-.32.28-.21.06-.34-.08-.34-.08,0,0,.31.07.42-.17.07-.13-.05-.22-.05-.22,0,0-.03.31-.77.18-.32-.06-.38.22-.38.22,0,0-.05,0-.19.02-.13.02-.22.07-.22.07.05-.09.19-.11.19-.11-.17-.02-.34.1-.34.1,0-.03.04-.08.04-.08,0,0-.22.14-.33.46-.05.16-.04.33.05.47.14.23.47.29.68.33.3.06.8.14,1.24.25.59.15.59.35.48.47-.12.13-.39.1-.78-.09-.39-.19-1.17-.59-1.78-.66-1.59-.17-2.47.44-3.01.19.01-.05.03-.08.04-.14,0,0,.04.06.13.09.09.04.15.01.15.01,0,0-.1-.19.07-.57.1-.23-.09-.26-.09-.26,0,0,.09-.04.14-.14.09-.17.04-.42.04-.42,0,0-.1.17-.28.06,0,0,.12-.1.09-.32-.03.05-.08.09-.14.12-.11.05-.23.02-.25-.06-.02-.07.02-.15.11-.2-.03-.01-.14-.06-.26-.04-.13.02-.34.12-.34.12,0,0-.11-.11-.02-.24,0,0-.18-.04-.29.17-.05.09-.13.09-.13.09,0,0,.02-.15-.11-.21,0,0-.29.15-.35.48-.1.02-.16.12-.18.17-.25.67-.37.32-.37.34-.03.35.22.33.22.33-.09.23-.32.08-.32.08.02.36.27.24.27.24-.1.12-.13.23-.13.34-.54-.13-1.18-.46-1.16-.65.02-.19.09-.37-.1-.45,0,0,0,0,0,0h0s-.02-.06-.04-.08c-.09-.1-.19-.07-.25-.06,0,0,.1.03.13.14-.13.06-.13.27-.13.27-.08-.1-.24-.3-.38-.2t0,0h0s-.04-.04-.06-.06c-.12-.07-.22-.01-.27.02,0,0,.13,0,.19.11,0,0,0,0,0,0h0s0,0,0,0c-.16.16.06.4.06.4-.04.01-.26.03-.29.18,0,0,0,0,0,0,0,0,0,0,0,0,0,0-.01,0-.02,0-.12.07-.12.17-.12.23,0,0,.05-.09.16-.1.05.11.17.12.24.1.36-.1.43-.01.57.03.1.03.2.02.18.08,0,.05-.06.08-.21.04,0,0,.02.1.18.14.25.06.34,0,.36.05.05.09-.2.09-.2.09.17.17.45.09.45.09,0,.09-.2.09-.2.09,0,0,.06.09.21.07.06,0,.11-.03.11-.03,0,0-.07.14.04.23,0,0,.12-.24.21-.16.04.04.04.09.01.12-.04.04-.09.03-.09.03.02.08.15.09.15.09,0,0-.18.08-.63.02-.59-.12-.54-.18-.65-.37-.09-.17-.15-.18-.21-.16h0s-.02-.03-.03-.04c-.08-.1-.19-.07-.24-.05,0,0,.11.03.13.15,0,0,0,0,0,.01h0c-.09.06-.09.13-.06.19-.03,0-.3-.08-.38.04h0s-.01,0-.02,0c-.14,0-.2.11-.23.16,0,0,.09-.06.19-.03h0s0,0,0,0c0,0,0,.01,0,.01-.04.19.24.23.38.25-.07.03-.14.07-.14.16h0s-.02.01-.03.02c-.12.08-.12.19-.11.25,0,0,.05-.11.2-.13,0,0,0,0,0,0h0s0,0,0,0c.16.14.33,0,.41-.04.22-.09.51-.04.57.05.04.07-.09.12-.09.12.13.03.25-.04.25-.04,0,0-.03.03-.06.09-.03.09.02.14.02.14.16-.2.24-.18.28-.13.04.05-.08.12-.08.12.12.08.32-.03.32-.03,0,0-.03.11.02.18.12-.15.31-.11.43-.08,0,0-.2.1-.16.26.13-.1.28-.12.47-.07.39.09,1.1.4,2.63-.63,1.04-.7,1.6-.53,1.6-.53.03.03.07.06.11.09-.06.04-.11.08-.11.08,0,0-.32.34.24.66,0,0-.11-.04-.25-.07-.17-.03-.24-.04-.24-.04,0,0-.09-.21-.31-.27-.06-.02-.12-.03-.18-.03,0,0,0,0,0,0,0,0,0,0,0,0h0s0,0,0-.01c-.02-.02-.04-.04-.07-.05-.11-.04-.19.02-.24.05,0,0,.09-.02.16.05,0,0,0,0,0,0-.05.04-.07.1-.06.17-.22,0-.3.06-.33.14h0s0,0,0,0c-.12.03-.16.12-.18.17,0,0,.06-.06.15-.05,0,.11.12.2.34.14.06-.02-.14.05-.11.24h0s-.02.04-.02.06c-.02.12.05.18.09.2,0,0-.03-.07,0-.14h0s0,0,0,0c.16.1.39-.09.44-.19,0,0,0,.13.06.19,0,0,.02-.05.07-.09.09-.07.07.02.07.02-.03.15.06.19.06.19,0,0,.02-.18.16-.19.02.19.29-.07.25.01-.09.18-.01.25-.01.25,0,0,.06-.23.53-.2,0,.02-.02.15.09.23.12-.44.76-.37.86-.37.31-.01.27-.25.27-.31s0-.1,0-.11c.3.06.55.1.67.12.18.03.16.15.06.24-.06.05-.13.06-.14.06,0,0-.34-.19-.51,0h0s-.02,0-.03,0c-.12.03-.15.11-.17.16,0,0,.07-.06.16-.05,0,.07.05.09.09.11.02,0,.01,0,0,.01-.09.06-.11.14-.11.17h0s-.03.01-.04.02c-.1.08-.09.17-.08.22,0,0,.04-.09.14-.11h0s0,0,0,0c.03.06.09.11.2.08.09-.02.11-.04.12-.04-.01.02-.05.07-.03.12,0,0,0,.01,0,.02,0,0,0,0,0,0h0s0,0,0,0c-.05.11.01.18.04.22,0,0-.02-.08.06-.16h0s.08.01.09.01c.12,0,.23-.1.3-.33.03-.08.05-.12.08-.14.05-.04.14-.06.14-.06,0,0,.02.1-.06.16.22.06.32-.28.32-.28,0,0,.01.07.05.12.04.05.11.07.11.07,0-.25.13-.33.18-.33.1-.01.07.1.07.1,0,0,.09-.05.1-.16,0-.06-.02-.13-.02-.13,0,0,.09-.03.11.08,0,0,.11-.13.05-.21,0,0,.02-.01.04,0Z"></path>
      <path class="cls-11" d="M159.69,500.14l-1.77,8.81c-.36,1.79-.08,3.4.84,4.77.9,1.35,2.41,2.48,4.5,3.36l.16.07.18-.03c2.33-.37,4.22-1.12,5.62-2.21,1.41-1.11,2.31-2.58,2.68-4.37l1.77-8.81-13.97-1.58ZM171.21,510.46c-.33,1.62-1.13,2.94-2.4,3.94-1.29,1.01-3.05,1.7-5.25,2.05-1.96-.82-3.38-1.88-4.21-3.13-.82-1.23-1.07-2.68-.75-4.3l1.64-8.14,12.61,1.43-1.64,8.14Z"></path>
      <path class="cls-3" d="M166.98,503c.08-.22-.07-.29-.1-.3.06-.02.12-.05.12-.05,0,0-.06,0-.13,0,.01-.03.1-.24-.08-.36-.13-.09-.26-.03-.32.02h0c0-.08-.03-.09-.03-.09,0,0-.04.02-.06.12h0s0,0,0,0c-.04-.04-.18-.17-.37-.06-.19.11-.16.29-.15.35,0,0-.01,0-.01,0-.1-.03-.18,0-.18,0,0,0,.01.05.14.1,0,0,0,0,0,0-.05.03-.18.11-.15.27.04.19.21.21.25.22,0,0,0-.02.01-.03,0-.01.02-.01.02-.02,0,.01-.02.01-.02.02,0,0-.01.02-.01.03-.04.08-.05.14-.05.14,0,0,.07-.05.12-.1.02.04.11.17.3.17.22,0,.31-.14.33-.18,0,0,0,0,0,.01.04.05.09.06.09.06,0,0,0-.04-.01-.1.07,0,.21,0,.28-.19Z"></path>
      <path class="cls-3" d="M171.77,503.56c.08-.22-.07-.29-.1-.3.06-.02.12-.05.12-.05,0,0-.06,0-.13,0,.01-.03.1-.24-.08-.36-.13-.09-.26-.03-.32.02h0c0-.08-.03-.09-.03-.09,0,0-.04.02-.06.12h0s0,0,0,0c-.04-.04-.18-.17-.37-.06-.19.11-.16.29-.15.35,0,0-.01,0-.01,0-.1-.03-.18,0-.18,0,0,0,.01.05.14.1,0,0,0,0,0,0-.05.03-.18.11-.15.27.04.19.21.21.25.22,0,0,0-.02.01-.03,0-.01.02-.01.02-.02,0,.01-.02.01-.02.02,0,0-.01.02-.01.03-.04.08-.05.14-.05.14,0,0,.07-.05.12-.1.02.04.11.17.3.17.22,0,.31-.14.33-.18,0,0,0,0,0,.01.04.05.09.06.09.06,0,0,0-.04-.01-.1.07,0,.21,0,.28-.19Z"></path>
      <path class="cls-3" d="M161.35,506.75c.08-.22-.07-.29-.1-.3.06-.02.12-.05.12-.05,0,0-.06,0-.13,0,.01-.03.1-.24-.08-.36-.13-.09-.26-.03-.32.02h0c0-.08-.03-.09-.03-.09,0,0-.04.02-.06.12h0s0,0,0,0c-.04-.04-.18-.17-.37-.06-.19.11-.16.29-.15.35,0,0-.01,0-.01,0-.1-.03-.18,0-.18,0,0,0,.01.05.14.1,0,0,0,0,0,0-.05.03-.18.11-.15.27.04.19.21.21.25.22,0,0,0-.02.01-.03,0-.01.02-.01.02-.02,0,.01-.02.01-.02.02,0,0-.01.02-.01.03-.04.08-.05.14-.05.14,0,0,.07-.05.12-.1.02.04.11.17.3.17.22,0,.31-.14.33-.18,0,0,0,0,0,.01.04.05.09.06.09.06,0,0,0-.04-.01-.1.07,0,.21,0,.28-.19Z"></path>
      <path class="cls-3" d="M166.12,507.29c.08-.22-.07-.29-.1-.3.06-.02.12-.05.12-.05,0,0-.06,0-.13,0,.01-.03.1-.24-.08-.36-.13-.09-.26-.03-.32.02h0c0-.08-.03-.09-.03-.09,0,0-.04.02-.06.12h0s0,0,0,0c-.04-.04-.18-.17-.37-.06-.19.11-.16.29-.15.35,0,0-.01,0-.01,0-.1-.03-.18,0-.18,0,0,0,.01.05.14.1,0,0,0,0,0,0-.05.03-.18.11-.15.27.04.19.21.21.25.22,0,0,0-.02.01-.03,0-.01.02-.01.02-.02,0,.01-.02.01-.02.02,0,0-.01.02-.01.03-.04.08-.05.14-.05.14,0,0,.07-.05.12-.1.02.04.11.17.3.17.22,0,.31-.14.33-.18,0,0,0,0,0,.01.04.05.09.06.09.06,0,0,0-.04-.01-.1.07,0,.21,0,.28-.19Z"></path>
      <path class="cls-3" d="M170.92,507.83c.08-.22-.07-.29-.1-.3.06-.02.12-.05.12-.05,0,0-.06,0-.13,0,.01-.03.1-.24-.08-.36-.13-.09-.26-.03-.32.02h0c0-.08-.03-.09-.03-.09,0,0-.04.02-.06.12h0s0,0,0,0c-.04-.04-.18-.17-.37-.06-.19.11-.16.29-.15.35,0,0-.01,0-.01,0-.1-.03-.18,0-.18,0,0,0,.01.05.14.1,0,0,0,0,0,0-.05.03-.18.11-.15.27.04.19.21.21.25.22,0,0,0-.02.01-.03,0-.01.02-.01.02-.02,0,.01-.02.01-.02.02,0,0-.01.02-.01.03-.04.08-.05.14-.05.14,0,0,.07-.05.12-.1.02.04.11.17.3.17.22,0,.31-.14.33-.18,0,0,0,0,0,.01.04.05.09.06.09.06,0,0,0-.04-.01-.1.07,0,.21,0,.28-.19Z"></path>
      <path class="cls-3" d="M160.54,511.03c.08-.22-.07-.29-.1-.3.06-.02.12-.05.12-.05,0,0-.06,0-.13,0,.01-.03.1-.24-.08-.36-.13-.09-.26-.03-.32.02h0c0-.08-.03-.09-.03-.09,0,0-.04.02-.06.12h0s0,0,0,0c-.04-.04-.18-.17-.37-.06-.19.11-.16.29-.15.35,0,0-.01,0-.01,0-.1-.03-.18,0-.18,0,0,0,.01.05.14.1,0,0,0,0,0,0-.05.03-.18.11-.15.27.04.19.21.21.25.22,0,0,0-.02.01-.03,0-.01.02-.01.02-.02,0,.01-.02.01-.02.02,0,0-.01.02-.01.03-.04.08-.05.14-.05.14,0,0,.07-.05.12-.1.02.04.11.17.3.17.22,0,.31-.14.33-.18,0,0,0,0,0,.01.04.05.09.06.09.06,0,0,0-.04-.01-.1.07,0,.21,0,.28-.19Z"></path>
      <path class="cls-3" d="M165.25,511.58c.08-.22-.07-.29-.1-.3.06-.02.12-.05.12-.05,0,0-.06,0-.13,0,.01-.03.1-.24-.08-.36-.13-.09-.26-.03-.32.02h0c0-.08-.03-.09-.03-.09,0,0-.04.02-.06.12h0s0,0,0,0c-.04-.04-.18-.17-.37-.06-.19.11-.16.29-.15.35,0,0-.01,0-.01,0-.1-.03-.18,0-.18,0,0,0,.01.05.14.1,0,0,0,0,0,0-.05.03-.18.11-.15.27.04.19.21.21.25.22,0,0,0-.02.01-.03,0-.01.02-.01.02-.02,0,.01-.02.01-.02.02,0,0-.01.02-.01.03-.04.08-.05.14-.05.14,0,0,.07-.05.12-.1.02.04.11.17.3.17.22,0,.31-.14.33-.18,0,0,0,0,0,.01.04.05.09.06.09.06,0,0,0-.04-.01-.1.07,0,.21,0,.28-.19Z"></path>
      <path class="cls-3" d="M169.93,512.11c.08-.22-.07-.29-.1-.3.06-.02.12-.05.12-.05,0,0-.06,0-.13,0,.01-.03.1-.24-.08-.36-.13-.09-.26-.03-.32.02h0c0-.08-.03-.09-.03-.09,0,0-.04.02-.06.12h0s0,0,0,0c-.04-.04-.18-.17-.37-.06-.19.11-.16.29-.15.35,0,0-.01,0-.01,0-.1-.03-.18,0-.18,0,0,0,.01.05.14.1,0,0,0,0,0,0-.05.03-.18.11-.15.27.04.19.21.21.25.22,0,0,0-.02.01-.03,0-.01.02-.01.02-.02,0,.01-.02.01-.02.02,0,0-.01.02-.01.03-.04.08-.05.14-.05.14,0,0,.07-.05.12-.1.02.04.11.17.3.17.22,0,.31-.14.33-.18,0,0,0,0,0,.01.04.05.09.06.09.06,0,0,0-.04-.01-.1.07,0,.21,0,.28-.19Z"></path>
      <path class="cls-3" d="M164.52,515.23c.08-.22-.07-.29-.1-.3.06-.02.12-.05.12-.05,0,0-.06,0-.13,0,.01-.03.1-.24-.08-.36-.13-.09-.26-.03-.32.02h0c0-.08-.03-.09-.03-.09,0,0-.04.02-.06.12h0s0,0,0,0c-.04-.04-.18-.17-.37-.06-.19.11-.16.29-.15.35,0,0-.01,0-.01,0-.1-.03-.18,0-.18,0,0,0,.01.05.14.1,0,0,0,0,0,0-.05.03-.18.11-.15.27.04.19.21.21.25.22,0,0,0-.02.01-.03,0-.01.02-.01.02-.02,0,.01-.02.01-.02.02,0,0-.01.02-.01.03-.04.08-.05.14-.05.14,0,0,.07-.05.12-.1.02.04.11.17.3.17.22,0,.31-.14.33-.18,0,0,0,0,0,.01.04.05.09.06.09.06,0,0,0-.04-.01-.1.07,0,.21,0,.28-.19Z"></path>
    </g>
  </g>
  <path class="cls-8" d="M169.63,498.28c.09-.04.09-.09-.01-.1l-1.3-.15h0s-.17-1.16-.17-1.16c-.01-.09-.06-.1-.11-.01l-.63,1.06h0s-1.3-.15-1.3-.15c-.1-.01-.13.03-.06.09l.9.81h0s-.64,1.07-.64,1.07c-.05.08-.01.12.08.07l1.2-.56.91.81c.07.06.12.04.11-.05l-.17-1.16h0s-.7-.3-.7-.3l.7.3,1.19-.56Z"></path>
</svg>