<svg xmlns="http://www.w3.org/2000/svg" id="new" viewBox="0 0 380 600"><defs transform="matrix(-1, 0, 0, 1, 380, 0)"><style>.cls-1{fill:blue;}</style></defs><path class="cls-1 color-hair" d="M249.566,211.583c.048-16.064,10.231-33.022,25.435-38.808,9.422.192,21.8,5.429,28.466,11.3,0,0-3.932,6.036-3.122,6.161,5.047.909,13.746,1.474,17.658,4.075,2.691,5.061,5.054,17.6,4.06,22.783,0,0-4.612,3.836-6.5,1.967,2.13,2.2,7.613,4.632,7.613,4.632.125,8.109-4.233,16.544-9.123,22.921-15.266-1.534-28.814-1.91-44.244-9.437" transform="matrix(-1, 0, 0, 1, 380, 0)" /><path d="M269.838,237.125c.542-.115,2.685.71,5.869,1.782a93.2,93.2,0,0,0,12.107,3.176,128.325,128.325,0,0,0,14.361,1.829c2.325.185,4.552.325,6.577.443l2.787.148,1.508.019c.09.026.1-.069.139-.118l.1-.172.194-.334.179-.325.043-.08.1-.156.2-.314c.509-.843,1-1.7,1.475-2.572a47.571,47.571,0,0,0,2.506-5.4,34.4,34.4,0,0,0,1.677-5.664,28.4,28.4,0,0,0,.41-2.872,2.781,2.781,0,0,0-.056-.954c-.195-.067-.3-.094-.535-.191l-.105-.045-.191-.092-.528-.263-1.058-.558c-.707-.386-1.415-.793-2.139-1.274a14.723,14.723,0,0,1-2.253-1.779l3.613-3.552a.05.05,0,0,0-.029.018l-.02.026c-.012.018-.013.025.013-.019a.591.591,0,0,0,.065-.168.407.407,0,0,0,.01-.075,1.93,1.93,0,0,0,.052-.192,5.53,5.53,0,0,0,.042-.9c0-.088-.01-.212-.017-.267l-.008,0c-.011.008.033-.016.047-.019a5.151,5.151,0,0,0,1.037-.468l.342-.2.26-.171.114-.1c.1-.069.078-.138.076-.3l-.022-1.291c-.039-.64-.061-1.277-.137-1.937-.113-1.307-.321-2.641-.538-3.963a59.915,59.915,0,0,0-1.878-7.744c-.2-.614-.4-1.215-.629-1.786-.1-.3-.222-.568-.34-.836-.159-.374-.132-.3-.148-.324s-.067-.042-.073-.032.02.013-.007,0l-.161-.074c-.11-.049-.246-.091-.366-.138-.246-.092-.492-.186-.773-.264a65.991,65.991,0,0,0-10.108-1.827l-2.77-.391-.692-.112-.345-.056-.086-.015-.24-.047a4.233,4.233,0,0,1-1.371-.578,3.861,3.861,0,0,1-1-.919,4.263,4.263,0,0,1-.628-1.145,3.057,3.057,0,0,1-.113-.374l-.062-.291a4.593,4.593,0,0,1-.066-.594,4.873,4.873,0,0,1,.22-1.63c.086-.292.158-.472.232-.667.14-.347.27-.626.4-.886.251-.519.492-.961.736-1.4l.321-.569c.046-.077.031-.048.033-.053h0l0,0v0l-.336-.23c-.364-.241-.707-.5-1.085-.728a52.566,52.566,0,0,0-4.589-2.606,54.737,54.737,0,0,0-9.727-3.763,37.3,37.3,0,0,0-4.884-1.044c-.4-.051-.8-.119-1.2-.158l-.59-.045a.357.357,0,0,1-.1-.023c-.059-.016-.033-.017-.265.068l-1.11.444a34.781,34.781,0,0,0-8.055,4.954,39.056,39.056,0,0,0-6.4,6.669c-.961,1.18-1.745,2.46-2.577,3.691-.725,1.29-1.508,2.537-2.105,3.851a44.913,44.913,0,0,0-4.466,15.485,30,30,0,0,1-.92-10.266,38.816,38.816,0,0,1,2.919-11.993,37.691,37.691,0,0,1,6.252-10.171,27.552,27.552,0,0,1,6.72-5.834,43.829,43.829,0,0,1,5.108-2.572l1.334-.489.663-.241,1.007-.389.542-.213a2.361,2.361,0,0,1,.58.02l1.162.1c.5.057.948.09,1.407.178a49.275,49.275,0,0,1,10.257,2.829,65.176,65.176,0,0,1,9.105,4.377c1.422.856,2.819,1.724,4.147,2.695.332.25.629.436,1.137.836l1.343,1.086c.449.353.878.722,1.3,1.094l.636.551.317.273c.1.092.235.178.244.282q-.8,1.2-1.6,2.394l-.755,1.182-.61,1c-.308.515-.61,1.041-.84,1.511-.057.115-.109.23-.144.315l-.041.1-.007.015c-.019-.007.067.008-.118-.036-.237-.064-.556-.095-.709-.137a4.483,4.483,0,0,0-.521-.031.481.481,0,0,0-.184.038.1.1,0,0,0-.072.027c-.032.039.014-.013,0-.015v-.008c-.235,1.4.316-1.917.266-1.574l.029.006.113.021.455.087c2.4.442,4.86.772,7.3,1.194a45.93,45.93,0,0,1,7.3,1.751l.908.355c.3.112.584.269.995.46.678.427,1.57.675,1.778,1.539.172.36.376.737.509,1.086l.358.874c.211.577.424,1.15.61,1.724a65.358,65.358,0,0,1,2.781,13.691c.107,1.141.15,2.3.148,3.464,0,.307-.044.718-.064,1.072a10.115,10.115,0,0,1-.11,1.114l-.081.567-.041.283c-.019.091,0,.2-.1.249l-.884.712c-.3.229-.608.457-.928.668-.156.106-.32.22-.47.31l-.382.237a12.555,12.555,0,0,1-1.673.838,6.282,6.282,0,0,1-2.125.491,3.761,3.761,0,0,1-2.744-.99l2.515-2.489a16.633,16.633,0,0,0,3.281,2.234l.929.5,1.089.546c.917.452,1.952.906,2.935,1.339.078.675.013,1.446.026,2.166q-.056,1.068-.111,2.13a29.258,29.258,0,0,1-.47,3.182,36.341,36.341,0,0,1-1.755,5.873,49.117,49.117,0,0,1-5.545,10.245c-.4.585-.82,1.141-1.237,1.7l-.625.843-.156.21c-.054.068-.1.167-.187.127l-.481-.044-3.735-.347-5.219-.5c-3.444-.352-6.822-.756-10.109-1.309a69.2,69.2,0,0,1-15.418-4.32A67.221,67.221,0,0,1,269.838,237.125Z" transform="matrix(-1, 0, 0, 1, 380, 0)" /></svg>