<svg xmlns="http://www.w3.org/2000/svg" id="outfits_3" viewBox="0 0 380 600"><defs transform="matrix(-1, 0, 0, 1, 380, 0)"><style>.cls-1{fill:#00c5d4;}.cls-2{fill:#c9fff9;}.cls-3{fill:#fff;}.cls-4{fill:#fffffe;}.cls-5{fill:#fffcd9;}.cls-6{fill:#ffffff;}</style></defs><path class="cls-1" d="M258.647,439c.064-.4-.144-.71-.5-1.567q-1.448-3.477-2.893-6.953c-.557-1.338-.509-1.573-1.853-2.235-4.007-1.973-8.169-3.726-12.243-5.585l-11.775,1.411a8.348,8.348,0,0,0-3,.539c-1.426.853-2.611,3.08-3.632,4.285-.833.983-3.153,2.779-3.393,4a.988.988,0,0,0,0,.164c-.534.8-.1,3.651-.079,4.544a3.76,3.76,0,0,0,1.067,2.619c2.115,3,3.988,6.617,6.572,9.337a30,30,0,0,0,3.422,2.648c1.371,1.057,3.52,3.5,5.234,4.034.977.3,2.116-.4,3.16-.781,2.2-.8,4.4-1.577,6.588-2.39,2.993-1.112,5.352-3.578,7.773-5.414,1.185-.9,3.092-1.873,3.98-3.018.812-1.047,1.027-2.852,1.442-4.08C258.84,439.6,258.97,439.305,258.647,439Z" transform="matrix(-1, 0, 0, 1, 380, 0)" /><path d="M258.668,438.981a.428.428,0,0,1,.293.286,1.5,1.5,0,0,1-.016.757c-.132.561-.292,1.229-.453,2.112a6.846,6.846,0,0,1-1.161,3,14.238,14.238,0,0,1-2.9,2.34c-1.989,1.357-3.844,3.338-5.934,4.794a14.5,14.5,0,0,1-3.188,1.737l-2.591,1.066-3.889,1.65a8.517,8.517,0,0,1-2.373.877,3.332,3.332,0,0,1-1.735-.234,7.63,7.63,0,0,1-1.211-.631,37.113,37.113,0,0,1-3.621-2.9c-.971-.819-2.34-1.511-3.69-2.668-.168-.146-.341-.309-.5-.474l-.424-.445c-.276-.3-.551-.6-.806-.914-.522-.617-1.007-1.251-1.466-1.889-.924-1.275-1.754-2.565-2.574-3.807L219.2,441.82l-.636-.884a7.146,7.146,0,0,1-.775-1.273,4.968,4.968,0,0,1-.392-1.716l-.033-.523-.05-.518c-.072-.733-.152-1.5-.158-2.359a8.085,8.085,0,0,1,.056-1.036,3.554,3.554,0,0,1,.518-1.531l-.329,1.03a3.537,3.537,0,0,1,.592-1.835,7.9,7.9,0,0,1,.73-.988c.481-.565.952-1.026,1.4-1.466s.9-.863,1.137-1.153c.292-.356.63-.847.983-1.351s.735-1.042,1.192-1.589a7.923,7.923,0,0,1,1.777-1.637,4.105,4.105,0,0,1,.746-.385,5.3,5.3,0,0,1,.7-.214,8.525,8.525,0,0,1,1.157-.179l.929-.071.378-.033.439-.049,7.01-.753,3.416-.342,1.249-.13.2-.022c.062.023.122.056.183.083l.363.171.583.277,1.508.736,5.817,2.884,2.767,1.4,1.347.69a8.91,8.91,0,0,1,.765.464,3.38,3.38,0,0,1,.846.812,6.608,6.608,0,0,1,.706,1.626l.472,1.34q.461,1.332.9,2.6t.839,2.488q.2.6.4,1.184c.067.194.139.387.21.622a1.768,1.768,0,0,1,.067.9,1.477,1.477,0,0,0-.243-.787c-.124-.2-.253-.353-.381-.521-.255-.329-.5-.69-.764-1.062-.515-.745-1.045-1.55-1.578-2.392s-1.068-1.722-1.6-2.616l-.782-1.361a1.242,1.242,0,0,0-.294-.411.694.694,0,0,0-.244-.113c-.253-.109-.772-.286-1.25-.446l-1.405-.49c-.916-.327-1.789-.653-2.595-.968a36.385,36.385,0,0,1-3.845-1.711l-1.813-.985-.9-.485-.449-.241-.11-.059-.013-.015-.031-.031c-.021-.028-.049-.029-.079-.037a.187.187,0,0,0-.065-.008l-.253.015-1.009.061-2,.128q-3.979.264-7.767.581c-1.381.131-2.579,0-3.127.5a12.02,12.02,0,0,0-2.213,2.528,16.017,16.017,0,0,1-1.187,1.488c-.454.466-.891.852-1.31,1.249a16.4,16.4,0,0,0-1.159,1.18,4.478,4.478,0,0,0-.437.585c-.117.183-.194.373-.169.415l-.2.371.064.048v0l0,.008c0,.009-.008,0-.013.023l-.036.111a2.8,2.8,0,0,0-.054.326,6.554,6.554,0,0,0-.034.771c0,.538.043,1.093.09,1.654l.07.859c.022.334.019.577.049.8a2.329,2.329,0,0,0,.519,1.181c1.306,1.807,2.457,3.7,3.619,5.434a26.378,26.378,0,0,0,3.747,4.655,29.014,29.014,0,0,0,2.359,1.7,14.374,14.374,0,0,1,1.245.953l1.109.979a21.354,21.354,0,0,0,2.115,1.719,4.579,4.579,0,0,0,1,.526,1.085,1.085,0,0,0,.741-.027,9.871,9.871,0,0,0,1.14-.453c.214-.093.437-.19.682-.282l.635-.238,2.5-.927,2.448-.893c.393-.145.829-.29,1.181-.432a10.031,10.031,0,0,0,1.043-.473,25.391,25.391,0,0,0,3.874-2.649,30.146,30.146,0,0,1,3.259-2.358,15.842,15.842,0,0,0,3.4-2.227,11.485,11.485,0,0,0,1.47-3.211c.187-.5.4-.909.541-1.254a1.209,1.209,0,0,0,.117-.474A.564.564,0,0,0,258.668,438.981Z" transform="matrix(-1, 0, 0, 1, 380, 0)" /><path class="cls-2" d="M241.157,422.663l-11.775,1.411a8.348,8.348,0,0,0-3,.539c-1.425.853-2.611,3.08-3.632,4.285-.833.983-3.153,2.779-3.393,4-.164.834.873,2.375,1.221,3.211,1.012,2.431,1.547,6.59,4.321,7.855l6.418,2.928c1.614.736,3.6,2.052,5.357,2.443a8.928,8.928,0,0,0,2.918-.171l7.438-.892c1.155-.138,3.534-.014,4.543-.544,1.037-.545,1.961-2.3,2.67-3.135,1.29-1.522,3.11-3.1,4.074-4.807.582-1.031.367-1.059-.172-2.354l-2.893-6.953c-.557-1.338-.509-1.573-1.853-2.235C249.393,426.275,245.231,424.522,241.157,422.663Z" transform="matrix(-1, 0, 0, 1, 380, 0)" /><path class="cls-1" d="M241.16,422.656c.413.1,4.061,1.725,8.274,3.615l3.224,1.447a10.956,10.956,0,0,1,1.6.8,1.99,1.99,0,0,1,.647.687,7.244,7.244,0,0,1,.363.8l2.253,5.283.774,1.786.4.894a1.842,1.842,0,0,1,.246,1.127,3.541,3.541,0,0,1-.445,1,9.776,9.776,0,0,1-.572.868,20.3,20.3,0,0,1-1.321,1.584,27.8,27.8,0,0,0-2.648,3.072,15.417,15.417,0,0,1-1.274,1.706,3.666,3.666,0,0,1-.9.745,3.758,3.758,0,0,1-1.118.349c-1.451.242-2.84.135-4.18.352l-4.132.514c-1.388.178-2.713.317-4.085.536a6.306,6.306,0,0,1-1.1.052,4.612,4.612,0,0,1-1.1-.213,12.935,12.935,0,0,1-1.933-.786c-1.069-.519-2.073-1.11-3.1-1.573l-3.16-1.436-3.135-1.429a5.157,5.157,0,0,1-1.534-1.11,7.732,7.732,0,0,1-1.043-1.5c-1.121-2.1-1.413-4.412-2.37-6.247a13.158,13.158,0,0,1-.719-1.538,2.972,2.972,0,0,1-.2-.949,2,2,0,0,1,.3-.987,12.588,12.588,0,0,1,2.21-2.469c1.59-1.3,2.4-3.226,3.932-4.692a3.743,3.743,0,0,1,1.371-.888,6.5,6.5,0,0,1,1.521-.25c.965-.047,1.877-.169,2.811-.263l10.113-1.032c-2.677.529-6.614,1.178-10.348,1.741l-1.389.207-1.364.152a4.767,4.767,0,0,0-1.16.26,3,3,0,0,0-.861.613,26.792,26.792,0,0,0-2.328,2.988,9.664,9.664,0,0,1-.961,1.119l-1.028.964a10.572,10.572,0,0,0-1.769,1.954,1.082,1.082,0,0,0-.147,1.012,7.345,7.345,0,0,0,.488,1.187c.194.4.41.787.6,1.23.17.431.317.859.449,1.286a20.057,20.057,0,0,0,1.845,4.8,4.562,4.562,0,0,0,1.731,1.653c.744.366,1.522.712,2.272,1.064l4.466,2.065a45.439,45.439,0,0,0,4.257,2.086c1.426.661,2.946.086,4.461-.025l4.434-.54,2.162-.266c.738-.086,1.45-.084,2.153-.127a9,9,0,0,0,2.028-.281,3.183,3.183,0,0,0,1.471-1.21c.414-.529.775-1.1,1.178-1.656a19.332,19.332,0,0,1,1.334-1.534,28.057,28.057,0,0,0,2.537-2.921,8.2,8.2,0,0,0,.49-.786,1.5,1.5,0,0,0,.253-.743,2.961,2.961,0,0,0-.287-.792l-.37-.863-1.406-3.37q-.687-1.658-1.349-3.259a4.663,4.663,0,0,0-.717-1.432,5.15,5.15,0,0,0-1.375-.809C249.04,426.52,242.452,423.3,241.16,422.656Z" transform="matrix(-1, 0, 0, 1, 380, 0)" /><polygon class="cls-3" points="226.154 446.106 235.245 454.744 235.517 450.307 226.154 446.106" transform="matrix(-1, 0, 0, 1, 380, 0)" /><path class="cls-3" d="M226.16,446.093c.33-.2,3.956,1.444,5.429,1.907.683.216,1.384.457,2.1.718l1.078.4.621.245,1,.417c-.028.871-.056,1.752-.084,2.629-.058,1.266-.116,2.525-.173,3.754-.012.251-.024.5-.035.726l-2.567-2.406L232,453.022c-.826-.809-1.615-1.614-2.352-2.4a51.519,51.519,0,0,1-3.686-4.312,11.352,11.352,0,0,1,4.625,2.653,63.978,63.978,0,0,0,4.322,4.914c.017-.238.035-.473.052-.7.013-.258.026-.512.039-.76.034-.7.071-1.593.066-1.835l-1.461-.591-1.625-.676c-1.045-.444-2.015-.88-2.906-1.343A22.911,22.911,0,0,1,226.16,446.093Z" transform="matrix(-1, 0, 0, 1, 380, 0)" /><polygon class="cls-3" points="226.215 442.476 232.567 439.265 235.439 446.842 226.215 442.476" transform="matrix(-1, 0, 0, 1, 380, 0)" /><path class="cls-3" d="M226.222,442.463c.32-.2,3.672,1.4,5.042,1.853.731.24,1.482.514,2.243.809a.852.852,0,0,0,.371.026,2.408,2.408,0,0,0-.152-.236.415.415,0,0,0-.046-.054c-.092-.22-.182-.438-.272-.654-.325-.786-.636-1.575-.927-2.348-.142-.387-.283-.77-.42-1.146-.024-.065-.023-.066-.02-.061v0l0-.011,0-.04c-.007-.009-.025-.016-.057-.018l-.842.366q-.9.386-1.741.717c-1.12.44-2.153.8-3.066,1.069a10.03,10.03,0,0,1,3.744-3.308l1.149-.386,1.69-.7q.285.9.561,1.773.159.531.313,1.044.32,1.024.658,1.978c.376,1.077,1.1,2.93,1.739,4.532-3.781-1.711-5.422-2.329-7.312-3.361A20.164,20.164,0,0,1,226.222,442.463Z" transform="matrix(-1, 0, 0, 1, 380, 0)" /><polygon class="cls-3" points="235.022 439.576 237.58 445.667 242.31 440.71 235.022 439.576" transform="matrix(-1, 0, 0, 1, 380, 0)" /><path class="cls-3" d="M235.025,439.561c.215-.285,3.219.195,4.406.2l.723.012.372.014.623.057c.854.083,1.8.189,2.8.311l-3.423,3.825c-.374.421-.753.834-1.129,1.232l-2.142,2.218q-.36-.9-.71-1.778-.168-.427-.332-.85l-.115-.306-.076-.216c-.2-.574-.38-1.132-.542-1.669a26.529,26.529,0,0,1-.721-2.923,7.072,7.072,0,0,1,2.7,3.163l.153.69.08.336.019.082,0,.023-.006.051a2.366,2.366,0,0,0,.072.6,1.949,1.949,0,0,0,.306-.2l.185-.147c.044-.032.206-.189.3-.277.441-.418.857-.834,1.254-1.244l.579-.611.452-.5c.209-.238.387-.453.532-.635l-.738-.061-.3-.024-.6-.076c-.784-.105-1.519-.224-2.209-.384A13.783,13.783,0,0,1,235.025,439.561Z" transform="matrix(-1, 0, 0, 1, 380, 0)" /><path class="cls-3" d="M221.091,433.524s4.892.587,4.749.837-2.146,5.032-2.146,5.032Z" transform="matrix(-1, 0, 0, 1, 380, 0)" /><path class="cls-3" d="M221.105,433.518c.342,0,1.322,2.237,1.869,3.026l.348.518a1.716,1.716,0,0,0,.161.144c.088.069.142.089.178.086.018.024.031-.061.04-.12l.018-.139.011-.107v-.04c.007-.028-.022.027.035-.119.153-.406.313-.808.476-1.2l.245-.57.031-.07,0,.012-.007.025-.011.045c.026-.009.065-.045.03-.085-.028-.014.03-.014-.076-.044l-.347-.093-.679-.187a21.561,21.561,0,0,1-2.366-.8A4.716,4.716,0,0,1,224.4,433c.24.148,1.194.352,1.629.634.205.157.415.3.368.564-.065.24-.127.474-.188.7l-.776,1.511c-.207.418-.358.738-.569,1.222l-.662,1.584-.322.806-.162.409c-.006.012-.013.044-.02.041l-.021-.043-.041-.086-.084-.171-1.331-2.749a15.441,15.441,0,0,1-.743-1.764A9.2,9.2,0,0,1,221.105,433.518Z" transform="matrix(-1, 0, 0, 1, 380, 0)" /><path class="cls-1" d="M228.1,435.469c-.041.263-1.911,4.288-1.911,4.288l4.975-2.013Z" transform="matrix(-1, 0, 0, 1, 380, 0)" /><path class="cls-1" d="M228.1,435.457c.138-.093.613.165,1.144.487l.842.52c.356.229.7.447,1,.609.423.233.886.509,1.414.842-.682.374-1.6.813-2.6,1.265l-.83.4-.2.094-.383.168-.78.341c-1.195.521-2.438,1.032-3.48,1.435.815-1.7,1.7-3.422,2.332-4.531.217-.334.436-.647.65-.933l.319-.411.154-.188.073-.088a.083.083,0,0,1,.028-.024l.014-.008c.031,0-.085-.019.21.021l-.187-.025.007,0,.015.012.031.028a.253.253,0,0,1,.05.084c.028.063.055.13.078.2a3.714,3.714,0,0,1,.112.427,4.669,4.669,0,0,1,.086.869,3.581,3.581,0,0,1-.069.756c-.02.072-.01.073,0,.071l.013,0h-.024c-.24.019-.586.436-.888.87.076.051.315,0,.568-.084.128-.04.264-.089.4-.142l.519-.217.6-.27.327-.169.457-.265c-.186-.113-.332-.2-.454-.294-.147-.109-.152-.129-.453-.4A6.594,6.594,0,0,1,228.1,435.457Z" transform="matrix(-1, 0, 0, 1, 380, 0)" /><path class="cls-3" d="M222.358,431.4s6.075-2.656,5.689-2.716-1.343-2.369-1.343-2.369Z" transform="matrix(-1, 0, 0, 1, 380, 0)" /><path class="cls-3" d="M222.346,431.394c-.156-.3,1.352-2.046,1.793-2.839.265-.476.569-.954.893-1.429.049-.081.246-.333.4-.53l.493-.634,1.045-1.308.639,1.409.333.7.175.34.085.163.045.077.2.325a1.657,1.657,0,0,0,.4.44.47.47,0,0,1,.15.227c.022.072.1.165.076.221l-.024.307a1.366,1.366,0,0,1-.081.268.958.958,0,0,1-.231.313,3.738,3.738,0,0,1-.835.511l-.461.222-.24.106-.474.2q-.471.191-.931.35a16.834,16.834,0,0,1-3.325.834,4.581,4.581,0,0,1,2.223-2.374,15.731,15.731,0,0,0,1.64-.379l.382-.117c.107-.032.135-.026.213-.048a2.382,2.382,0,0,0,.427-.147l-.747-1.524a5.462,5.462,0,0,0-.468.615l-.1.149-.188.245-.367.477a15.677,15.677,0,0,1-1.449,1.664A8.29,8.29,0,0,1,222.346,431.394Z" transform="matrix(-1, 0, 0, 1, 380, 0)" /><polygon class="cls-1" points="227.358 432.657 227.725 430.773 223.946 431.992 227.358 432.657" transform="matrix(-1, 0, 0, 1, 380, 0)" /><path class="cls-1" d="M227.355,432.672c-.134.294-1.475.02-2.027.1a7.8,7.8,0,0,1-1.54.034l-3.022-.191,2.926-1.4c.44-.211.9-.4,1.343-.581q.3-.126.612-.231l1.061-.335c.8-.24,1.547-.436,2.148-.562a13.327,13.327,0,0,1-1.219,3.213c-.343-.4-.668-.571-.909-.536-.239.02-.381.181-.283.055l.084-.108c.17-.217.125-.322,0-.367a.7.7,0,0,0-.241-.026,4.431,4.431,0,0,0-.47.09,10.628,10.628,0,0,0-1.737.594l-.051-.854a9.742,9.742,0,0,1,2.27.374A3.476,3.476,0,0,1,227.355,432.672Z" transform="matrix(-1, 0, 0, 1, 380, 0)" /><polygon class="cls-3" points="231.656 424.931 235.441 425.277 237.404 424.352 231.656 424.931" transform="matrix(-1, 0, 0, 1, 380, 0)" /><path class="cls-3" d="M231.654,424.916c.064-.322,1.772-.482,2.412-.727a17.051,17.051,0,0,1,3.243-.772l.5,1.786-.359.2c-.267.148-.537.287-.8.415l-1.024.467-.541-.063-.271-.043-.526-.1c-.345-.069-.676-.149-.99-.237a9.17,9.17,0,0,1-1.66-.627,2.967,2.967,0,0,1,2.339-1.053c.268.12.531.225.787.318l.376.129c.159.043.127.066.208.1a.68.68,0,0,0,.143-.015l.273-.086.523-.185c.339-.129.659-.269.961-.412l.2.727a40.524,40.524,0,0,1-4.266.556A4.959,4.959,0,0,1,231.654,424.916Z" transform="matrix(-1, 0, 0, 1, 380, 0)" /><polygon class="cls-1" points="228.677 426.271 232.459 426.493 228.964 427.329 228.677 426.271" transform="matrix(-1, 0, 0, 1, 380, 0)" /><path class="cls-1" d="M228.691,426.267c.215,0,.387.39.527.634a1.557,1.557,0,0,0,.436-.247c.063-.057.072-.1.15-.148l.3-.163c.2-.1.415-.2.629-.282.427-.172.865-.316,1.281-.455l.214-.069.172,1.938a7.262,7.262,0,0,1-3.741-.92c.493-.8,1.386-1.329,1.683-1.165a5.965,5.965,0,0,0,2.139.7l.069.787a11.163,11.163,0,0,0-1.891.539l-.415.144-.2.065-.3.083a8.006,8.006,0,0,1-1.143.233l-.008-.049a3.894,3.894,0,0,1-.029-1.02A2.235,2.235,0,0,1,228.691,426.267Z" transform="matrix(-1, 0, 0, 1, 380, 0)" /><polygon class="cls-1" points="249.558 446.118 244.526 441.171 239.53 447.463 249.558 446.118" transform="matrix(-1, 0, 0, 1, 380, 0)" /><path class="cls-1" d="M249.56,446.133c-.16.338-3.812.816-5.194,1.182-.743.2-1.5.372-2.317.541-1.375.244-2.916.494-4.52.743,1.076-1.413,2.164-2.839,3.207-4.209.505-.676,1.019-1.341,1.53-1.981l2.172-2.664,1.394,1.428q.368.4.725.79.65.721,1.226,1.409c.767.913,1.433,1.769,1.975,2.543a9.866,9.866,0,0,1-4.3-2.46l-.7-.935a1.249,1.249,0,0,0-.164-.356,1.6,1.6,0,0,0-.312.225l-.729.794q-.711.792-1.351,1.564c-.985,1.192-1.3,1.619-1.693,2.164a55.626,55.626,0,0,1,5.848-.876A19.74,19.74,0,0,1,249.56,446.133Z" transform="matrix(-1, 0, 0, 1, 380, 0)" /><path class="cls-3" d="M257.557,438.849s-5.527-1.059-5.457-.737.588,6.22.588,6.22Z" transform="matrix(-1, 0, 0, 1, 380, 0)" /><path class="cls-3" d="M257.569,438.859c.131.325-1.733,2.405-2.313,3.329l-.4.614c-.085.12-.1.165-.247.348l-.393.5c-.541.689-1.15,1.437-1.791,2.21l-.242.291-.122.146c-.027.044-.032.023-.033-.013l-.011-.082-.085-.666c-.057-.463-.113-.925-.17-1.383-.1-.819-.194-1.627-.288-2.415-.065-.486-.121-.97-.168-1.444-.058-.679-.114-1.341-.167-1.969.148-.4.143-.952.57-1.1a2.992,2.992,0,0,1,1.515-.01c.313.046.361.065.526.1l.413.095.786.206a18.962,18.962,0,0,1,2.662.952,6.473,6.473,0,0,1-3.781.627l-.607-.218a.627.627,0,0,0-.166-.13c-.066-.032-.184-.1-.255-.076a.706.706,0,0,0-.059.182.95.95,0,0,0-.028.136,3.463,3.463,0,0,0,0,.352c.007.271.015.537.022.8.022.525.055,1.031.1,1.523.016.183.033.362.05.539.017.144.034.286.05.426s.037.25.056.373l.028.166c0,.012,0,.031.008.035l.034-.043.066-.084.459-.6c.137-.183.2-.277.508-.642a20.412,20.412,0,0,1,1.49-1.622A11.737,11.737,0,0,1,257.569,438.859Z" transform="matrix(-1, 0, 0, 1, 380, 0)" /><path class="cls-3" d="M249.842,437.961c-.052.332.653,5.891.653,5.891l-5.213-4.33Z" transform="matrix(-1, 0, 0, 1, 380, 0)" /><path class="cls-3" d="M249.847,437.975c-.017.172-.631.462-1.351.77a10.118,10.118,0,0,0-1.677.776,1.214,1.214,0,0,0-.2.246c.183.093.316.154.416.2l.128.048.025.008.112.081.226.165,1.655,1.236c.039-.013,0-.054.029-.008.015.025.044.056.079.037a.153.153,0,0,0,.056-.073c0-.257,0-.509-.008-.758,0-.506.018-.988.052-1.443a9.9,9.9,0,0,1,.175-1.339c.2.338.424.525.618.834a7.351,7.351,0,0,1,.527.9,3.365,3.365,0,0,1,.443,1.511l-.008.094v.49q0,.306,0,.605c0,.365.007.72.01,1.067.013.6.025,1.171.036,1.707-.858-.8-1.559-1.44-2.212-2.008-.725-.629-1.085-.929-1.541-1.293l-3.208-2.492a35.43,35.43,0,0,1,3.362-1.136A10.06,10.06,0,0,1,249.847,437.975Z" transform="matrix(-1, 0, 0, 1, 380, 0)" /><path class="cls-3" d="M256.136,436.109a47.1,47.1,0,0,1-3.607-3.388c.3.047,1.569-1.452,1.569-1.452Z" transform="matrix(-1, 0, 0, 1, 380, 0)" /><path class="cls-3" d="M256.123,436.115c-.329.03-1.02-1.644-1.457-2.217a15.507,15.507,0,0,1-1.382-2.286l1.489.227-.417.539-.217.26c-.057.07-.193.216-.155.186.015.034.038.016.02.025l-.009.013.249.265.514.57a12.244,12.244,0,0,1,1.566,2.2,3.145,3.145,0,0,1-2.6-.63c-.238-.413-.487-.794-.742-1.15-.331-.436-.86-.969-.9-1.353-.026-.065.013-.1.047-.095a.664.664,0,0,0,.1-.1c.077-.074.117-.189.254-.269.113-.091.244-.165.355-.249l.257-.242a8.621,8.621,0,0,0,.7-.795l.392-.5.288.607a24.134,24.134,0,0,1,1.53,3.363A5.418,5.418,0,0,1,256.123,436.115Z" transform="matrix(-1, 0, 0, 1, 380, 0)" /><polygon class="cls-3" points="250.157 427.927 245.854 426.976 244.012 425.263 250.157 427.927" transform="matrix(-1, 0, 0, 1, 380, 0)" /><path class="cls-3" d="M250.151,427.941c-.226.244-2.047-.558-2.821-.7a22.849,22.849,0,0,1-3.692-1.117l1.015-1.551c.126.1.246.2.364.3.272.226.537.457.79.689l.37.346.154.15,0,.008c.021.009-.046,0,.049.025l.306.086.593.182c.387.124.758.256,1.108.394a12.085,12.085,0,0,1,1.834.89,3.623,3.623,0,0,1-2.8.674c-.293-.163-.584-.31-.866-.443a6.873,6.873,0,0,0-.967-.389l-.539-.618-.431-.477c-.289-.306-.578-.589-.863-.852l.414-.632c1.8.773,3.405,1.165,4.624,1.868A6.379,6.379,0,0,1,250.151,427.941Z" transform="matrix(-1, 0, 0, 1, 380, 0)" /><path class="cls-1" d="M248.245,428.545l4.647.943a17.032,17.032,0,0,1-1.577,1.223C251.288,430.633,248.245,428.545,248.245,428.545Z" transform="matrix(-1, 0, 0, 1, 380, 0)" /><path class="cls-1" d="M248.253,428.532c.248-.211,1.505.67,2.093.863a7.293,7.293,0,0,1,.778.307c.144.03.171.025.221-.014a.731.731,0,0,0,.042-.088c.016-.031-.014-.022.121-.145l.591-.563.163-.155.435,1.712a10.883,10.883,0,0,1-4.509-1.625c.705-.7,1.865-1.058,2.208-.84a8.864,8.864,0,0,0,2.575,1.116l.815.21-.639.482c-.367.277-.659.528-1.01.832-.21.157-.43.426-.664.422l-.084,0h-.041l-.022,0-.012,0h0c0-.1,0,.14,0,.115H251.3l-.159-.043a2.554,2.554,0,0,1-.34-.192l-1-.629a5.642,5.642,0,0,1-.758-.584A4.19,4.19,0,0,1,248.253,428.532Z" transform="matrix(-1, 0, 0, 1, 380, 0)" /><polygon class="cls-1" points="238.539 425.578 241.004 424.186 243.212 426.305 238.539 425.578" transform="matrix(-1, 0, 0, 1, 380, 0)" /><path class="cls-1" d="M238.542,425.563c.133-.3,1.664-.046,2.282-.132a12.181,12.181,0,0,1,2.527-.018l-.764,1.544-.666-.553c-.293-.244-.573-.5-.837-.756l-.194-.2c-.072-.073-.017-.025-.032-.047a.139.139,0,0,0,0-.054c-.029-.013.007-.071-.136-.037-.245.092-.486.173-.721.241a7.3,7.3,0,0,1-1.321.27c.08-.994.732-2.03,1.138-2.092a2.146,2.146,0,0,0,.339-.1l.358-.12.6-.2.85,1.067c.162.22.329.425.5.617a11.446,11.446,0,0,0,1.024,1.021l.928.82-1.261-.146a21.234,21.234,0,0,1-3.372-.409A4.21,4.21,0,0,1,238.542,425.563Z" transform="matrix(-1, 0, 0, 1, 380, 0)" /><polygon class="cls-1" points="251.622 436.447 252.265 434.652 254.463 436.704 251.622 436.447" transform="matrix(-1, 0, 0, 1, 380, 0)" /><path class="cls-1" d="M251.623,436.432c.091-.307,1.22-.193,1.671-.333a5.469,5.469,0,0,1,1.243-.212L253.9,437.3c-.347-.229-.683-.491-1-.737l-.18-.143c-.035-.026-.016,0-.024-.007s0,0,0,0a.362.362,0,0,0-.034-.137,1.113,1.113,0,0,0-.77.263,2.018,2.018,0,0,1-.522-1.5,2.928,2.928,0,0,1,.22-1.4c.134-.141.252-.264.348-.351a24.473,24.473,0,0,0,1.777,2.168,7.822,7.822,0,0,0,1.054.918l1,.749-1.343.019a6.6,6.6,0,0,1-1.875-.106A2.69,2.69,0,0,1,251.623,436.432Z" transform="matrix(-1, 0, 0, 1, 380, 0)" /><polygon class="cls-3" points="240.52 427.117 238.005 431.332 228.792 430.82 237.725 433.131 238.84 437.911 241.354 433.696 250.567 434.208 241.634 431.897 240.52 427.117" transform="matrix(-1, 0, 0, 1, 380, 0)" /><path class="cls-3" d="M240.534,427.113a6.366,6.366,0,0,1,.541,1.515c.218.809.506,1.875.815,3.019l3.563.835c1.2.281,2.29.529,3.073.685l2.193.455-.185,1.19-4.521-.087-4.18-.128-.034.079-.307.534-.629,1.092-2.412,4.109-.679-2.826c-.3-1.229-.593-2.455-.88-3.64l-4.009-1.046-4.322-1.184.283-1.819,4.9.411,2.227.218,1.054.112.257.028c.089.01.179.019.192.025l.21.04.094-.125a2.3,2.3,0,0,0,.138-.2l.389-.583.714-1.057c.459-.655.866-1.239,1.255-1.8-.176.645-.429,1.4-.729,2.195l-.482,1.226-.261.627-.461.946c-.415.014-1.05.014-1.252.035l-.866.041c-.569.023-1.12.037-1.632.04a20.37,20.37,0,0,1-2.474-.1l-3.368-.411.231-1.483q2.336.743,4.555,1.4l2.183.636,2.362.66c.321,1.44.631,2.834.917,4.115l2.131-3.627,9.468.4-.165,1.062c-2.436-.6-4.691-1.184-6.8-1.791-.732-.2-1.4-.42-2.329-.722-.172-.885-.237-1.332-.322-1.869-.077-.52-.15-1.008-.214-1.442Z" transform="matrix(-1, 0, 0, 1, 380, 0)" /><polygon class="cls-3" points="245.543 430.662 239.878 431.242 234.656 428.968 237.114 432.115 233.816 434.366 239.482 433.786 244.704 436.06 242.246 432.913 245.543 430.662" transform="matrix(-1, 0, 0, 1, 380, 0)" /><path class="cls-3" d="M245.552,430.675a3.919,3.919,0,0,1-.98.909l-1.854,1.4.45.524,1.1,1.362a9,9,0,0,1,.526,1.26h-.1a2.585,2.585,0,0,0-.925.2l-4.418-1.728-.043.013-.2.028-.455.062-1,.13-3.572.412a5.465,5.465,0,0,1-.494-.8c-.043-.166-.091-.323-.144-.478l-.161-.434,2.38-1.639,0,0h0q-.91-1.17-1.79-2.3c.219-.269.418-.518.588-.767a3.661,3.661,0,0,1,.709-.624l3.422,1.57.81.4a5.68,5.68,0,0,1,.587.31l2.93-.1c.944-.019,1.8-.02,2.588-.006a16.65,16.65,0,0,1-2.645,1.052c-.5.157-1,.3-1.494.428l-.722.176-.346.076c-.038.01-.139.026-.256.044l-.323.049-1.123-.428a5.773,5.773,0,0,1-.651-.306c-.117-.061-.055-.044-.073-.062a.117.117,0,0,0-.013-.035.406.406,0,0,0-.064-.084,1.924,1.924,0,0,0-.249-.211c-.223-.16-.546-.355-.886-.55a2.165,2.165,0,0,0,.23.476.177.177,0,0,0-.05-.028.038.038,0,0,0-.013,0s-.029-.027.078.115l.833,1.121-1.258.829-.178.1-1.032.689,1.229-.137,3.046-.375,1.81.742.779.3.771.312c-.193-.243-.356-.458-.509-.674l.061.053c0-.01.11.122-.139-.209s-.54-.731-.744-1.033l.795-.481c.248-.146.55-.327.7-.405l1.063-.557C244.809,431.028,245.348,430.768,245.552,430.675Z" transform="matrix(-1, 0, 0, 1, 380, 0)" /><polygon class="cls-1" points="245.64 434.995 249.744 435.513 246.838 437.603 245.64 434.995" transform="matrix(-1, 0, 0, 1, 380, 0)" /><path class="cls-1" d="M245.654,434.989c.16-.027.4.313.649.717l.376.617a.686.686,0,0,0,.224.231.659.659,0,0,0,.2.053,1.2,1.2,0,0,0,.155-.258.076.076,0,0,0-.052-.019c-.015,0,.069-.066.1-.095.059-.05.012-.024.021-.038-.022-.041-.142.008-.162-.016a.213.213,0,0,0-.066.006c-.007,0,.154-.041.07-.175a.339.339,0,0,0-.04-.054l-.241-.085-.464-.183a6.9,6.9,0,0,1-.816-.412,3.465,3.465,0,0,1,1.188-.854,1.961,1.961,0,0,1,.592-.174,2.53,2.53,0,0,1,.783.079,28.479,28.479,0,0,0,2.776.879,39.672,39.672,0,0,0-4.316,3.195c-.186-.359-.368-.725-.535-1.088l-.234-.537c-.06-.15-.087-.239-.125-.361A4.2,4.2,0,0,1,245.654,434.989Z" transform="matrix(-1, 0, 0, 1, 380, 0)" /><polygon class="cls-1" points="242.145 427.43 242.572 429.615 246.943 428.86 242.145 427.43" transform="matrix(-1, 0, 0, 1, 380, 0)" /><path class="cls-1" d="M242.149,427.416c.149-.284,2.142.323,3.358.5l.781.129a1.124,1.124,0,0,1,.858.829,1.667,1.667,0,0,0-.051.509c.009.157.024.317.018.464-1.049.183-2.109.353-3.087.495l-1.158.148-.963.1q-.065-.606-.127-1.187l-.039-.52a2.4,2.4,0,0,1,0-.329,8.022,8.022,0,0,1,.122-1.062,3.709,3.709,0,0,1,1.2.968c.271.185.33-.079.279.036l0,0a.178.178,0,0,0-.022.195c.03.052.116.086.1.132.033.08.2.111.386.12a6.187,6.187,0,0,0,1.382-.183c-.607-.145-1.2-.245-1.551-.315a2.388,2.388,0,0,1-.762-.263c-.116-.052-.194-.187-.336-.349S242.216,427.485,242.149,427.416Z" transform="matrix(-1, 0, 0, 1, 380, 0)" /><path class="cls-1" d="M197.568,420.729c-.075-.406.127-.719.463-1.591l2.73-7.077c.525-1.362.47-1.6,1.806-2.3,3.982-2.092,8.126-3.968,12.179-5.947l11.892,1.11a8.409,8.409,0,0,1,3.035.463c1.457.822,2.709,3.033,3.769,4.218.865.969,3.249,2.715,3.523,3.942a1.12,1.12,0,0,1,.008.166c.558.787.2,3.673.2,4.573a3.783,3.783,0,0,1-1,2.664c-2.05,3.082-3.841,6.768-6.37,9.575a30.048,30.048,0,0,1-3.376,2.756c-1.353,1.1-3.452,3.622-5.163,4.2-.976.329-2.141-.349-3.2-.7-2.232-.744-4.473-1.471-6.7-2.232-3.042-1.04-5.483-3.462-7.968-5.246-1.217-.873-3.163-1.8-4.087-2.933-.845-1.033-1.11-2.845-1.56-4.07C197.389,421.332,197.251,421.041,197.568,420.729Z" transform="matrix(-1, 0, 0, 1, 380, 0)" /><path d="M197.589,420.751a.912.912,0,0,0-.051.3,1.987,1.987,0,0,0,.208.558,13.9,13.9,0,0,1,.824,2.053,6.716,6.716,0,0,0,1.251,2.511,14.6,14.6,0,0,0,2.858,1.931c2.271,1.333,4.247,3.194,6.292,4.394a11.941,11.941,0,0,0,2.985,1.325l2.708.778c1.378.38,2.7.728,4.179,1.175a7.167,7.167,0,0,0,1.765.485.83.83,0,0,0,.407-.131,5.5,5.5,0,0,0,.707-.475,42.281,42.281,0,0,0,3.1-3.009c1.258-1.21,2.566-2.01,3.45-2.914.109-.111.2-.216.3-.328l.334-.4c.218-.275.437-.549.645-.84.422-.572.824-1.173,1.214-1.792.782-1.234,1.518-2.539,2.285-3.858.385-.66.778-1.323,1.189-1.986a18.88,18.88,0,0,0,.987-1.614,1.423,1.423,0,0,0,.049-.448l.007-.583.025-.584c.036-.732.063-1.422.035-2.018a4.314,4.314,0,0,0-.056-.542.417.417,0,0,0-.025-.1,4.17,4.17,0,0,0,.674-.255,1.352,1.352,0,0,0,.451-.252l-1.367-.3a.5.5,0,0,0,.018.109l.009.027,0,.013c-.148.04,1.346-.3.694-.152l-.145.03a4.849,4.849,0,0,0-.534.2s-.027-.046-.07-.108a4.379,4.379,0,0,0-.4-.48c-.336-.363-.761-.753-1.209-1.156a19.974,19.974,0,0,1-1.5-1.431c-.5-.578-.872-1.093-1.237-1.578s-.7-.934-1.038-1.313a4.334,4.334,0,0,0-.892-.823,2.1,2.1,0,0,0-.856-.163l-.871-.052-.519-.04-.454-.045-7.061-.745-3.436-.388-.4-.047-.04-.014c-.015-.008-.027,0-.042,0l-.02,0-.164.075-1.525.7-5.928,2.661-2.849,1.249A11.929,11.929,0,0,0,202.4,411.4c-1.555,3.36-2.99,6.461-4.27,9.229-.155-.078-.11-.5-.037-.922s.131-.858.2-1.31c.144-.9.319-1.855.518-2.839s.421-2,.66-3.015l.361-1.522a4.072,4.072,0,0,1,.357-.992,3.2,3.2,0,0,1,.827-.988,12.144,12.144,0,0,1,1.442-.982l1.284-.78c.844-.5,1.66-.976,2.427-1.4a37.389,37.389,0,0,1,3.823-1.91l1.942-.789.962-.394.478-.2.767-.339c.272-.2.6-.082.906-.055l.44.056.252.039,1.007.154,2,.3q3.973.584,7.771,1.075c.592.089,1.186.1,1.9.194a5.925,5.925,0,0,1,1.118.24,3.4,3.4,0,0,1,.614.272,4.919,4.919,0,0,1,.489.335,14.2,14.2,0,0,1,2.561,3.006,13.972,13.972,0,0,0,1.03,1.335c.372.39.816.791,1.248,1.2s.87.834,1.285,1.311a6.033,6.033,0,0,1,.6.8,2.3,2.3,0,0,1,.407,1.172l-.143-.41a2.655,2.655,0,0,1,.385,1.18,8.308,8.308,0,0,1,.058.96c.006.615-.026,1.206-.062,1.783l-.049.841c-.013.232,0,.556-.035.892a3.466,3.466,0,0,1-.256,1.045,5.844,5.844,0,0,1-.473.851c-1.25,1.847-2.287,3.725-3.409,5.581a28.915,28.915,0,0,1-3.813,5.232c-.808.771-1.655,1.366-2.417,1.967a12.13,12.13,0,0,0-1.056.907l-1.028,1.018a22.811,22.811,0,0,1-2.238,2.03,6.561,6.561,0,0,1-1.456.856,3.187,3.187,0,0,1-2,.107,11.346,11.346,0,0,1-1.452-.484l-.593-.214-.649-.21-2.561-.833-2.5-.828c-.42-.144-.8-.26-1.244-.427a11.234,11.234,0,0,1-1.279-.56,23.032,23.032,0,0,1-4.249-2.942c-.91-.725-1.924-1.662-3-2.452a14.18,14.18,0,0,1-3.421-2.935,6.018,6.018,0,0,1-.766-2.015c-.141-.632-.229-1.211-.332-1.72s-.237-.947-.315-1.328a1.268,1.268,0,0,1-.026-.517A.523.523,0,0,1,197.589,420.751Z" transform="matrix(-1, 0, 0, 1, 380, 0)" /><path class="cls-2" d="M214.746,403.815l11.892,1.11a8.409,8.409,0,0,1,3.035.463c1.457.822,2.709,3.033,3.769,4.219.865.968,3.249,2.714,3.523,3.941.186.836-.817,2.415-1.146,3.266-.954,2.474-1.383,6.675-4.142,8.023l-6.385,3.117c-1.6.783-3.568,2.161-5.328,2.6a9,9,0,0,1-2.943-.1l-7.513-.7c-1.166-.109-3.559.078-4.588-.428-1.059-.521-2.036-2.263-2.771-3.087-1.339-1.5-3.214-3.04-4.229-4.731-.613-1.023-.4-1.057.111-2.375l2.73-7.077c.525-1.362.471-1.6,1.806-2.3C206.549,407.67,210.693,405.794,214.746,403.815Z" transform="matrix(-1, 0, 0, 1, 380, 0)" /><path class="cls-1" d="M214.75,403.822c-.345.256-3.94,2.053-8.1,4.118l-3.186,1.579a10.735,10.735,0,0,0-1.535.84,2.466,2.466,0,0,0-.83,1.361c-.8,2.123-1.514,4.046-2.03,5.422q-.336.912-.679,1.839l-.358.932a1.343,1.343,0,0,0-.165.786,3.192,3.192,0,0,0,.417.8,9.049,9.049,0,0,0,.577.79c.418.511.878,1,1.357,1.48a27.773,27.773,0,0,1,2.868,3.054,15.167,15.167,0,0,0,1.28,1.581,2.932,2.932,0,0,0,.721.56,3.087,3.087,0,0,0,.885.23c1.318.175,2.75.021,4.183.193l4.178.371c1.37.129,2.8.232,4.129.4a3.811,3.811,0,0,0,1.826-.191,12.006,12.006,0,0,0,1.776-.794c1.017-.535,2.009-1.165,3.092-1.7l3.139-1.538,3.117-1.524a4.721,4.721,0,0,0,2.076-2.239,18.553,18.553,0,0,0,1.12-3.1,17.543,17.543,0,0,1,1.132-3.225,12.79,12.79,0,0,0,.649-1.446,2.137,2.137,0,0,0,.134-.64,1.158,1.158,0,0,0-.195-.536,12.341,12.341,0,0,0-2.09-2.246,15.877,15.877,0,0,1-1.159-1.139c-.359-.418-.667-.844-.973-1.261a16.7,16.7,0,0,0-1.883-2.3,3.069,3.069,0,0,0-1.1-.719,5.936,5.936,0,0,0-1.358-.211c-.965-.044-1.937-.17-2.855-.264l-10.176-1.128c2.747.049,6.762.247,10.558.485l1.409.091,1.369.048a5.43,5.43,0,0,1,1.417.225,3.8,3.8,0,0,1,1.209.736,19.059,19.059,0,0,1,2.569,3.073c1.011,1.476,2.709,2.459,3.786,4.16a2.235,2.235,0,0,1,.3.775,2.1,2.1,0,0,1-.078.831,7.987,7.987,0,0,1-.544,1.324c-.2.411-.422.813-.583,1.2-.158.4-.3.819-.431,1.242a21.171,21.171,0,0,1-1.892,4.979,5.119,5.119,0,0,1-1.92,1.861l-2.288,1.109-4.456,2.155a47.623,47.623,0,0,1-4.275,2.211,5.985,5.985,0,0,1-1.166.34,5.156,5.156,0,0,1-1.208.022c-.79-.08-1.528-.186-2.294-.243l-4.479-.409-2.185-.2c-.7-.06-1.427-.035-2.144-.055a9.449,9.449,0,0,1-2.162-.23,3.641,3.641,0,0,1-1.748-1.313c-.453-.541-.843-1.112-1.253-1.637a19.091,19.091,0,0,0-1.357-1.454,28.444,28.444,0,0,1-2.7-2.91,8.859,8.859,0,0,1-.552-.826,1.966,1.966,0,0,1-.353-1.034,3.278,3.278,0,0,1,.305-.992l.341-.868,1.32-3.432q.653-1.686,1.284-3.312a4.921,4.921,0,0,1,.81-1.633,5.418,5.418,0,0,1,1.511-.934C206.7,407.482,213.427,404.416,214.75,403.822Z" transform="matrix(-1, 0, 0, 1, 380, 0)" /><polygon class="cls-3" points="230.471 427.023 221.546 435.959 221.155 431.499 230.471 427.023" transform="matrix(-1, 0, 0, 1, 380, 0)" /><path class="cls-3" d="M230.478,427.036c-.065.38-3.683,2.105-5,2.936-.61.385-1.252.768-1.916,1.147l-1.012.568-.257.141a1.565,1.565,0,0,0-.186.106l-.076.066a13,13,0,0,1,.206,1.48l.031.258a.065.065,0,0,0,.01.022l.016.027c.011.013.02.016.029.011l.009-.009a.133.133,0,0,0,.02-.054l1.011-1c.836-.812,1.665-1.586,2.472-2.309a52.144,52.144,0,0,1,4.432-3.606,11.522,11.522,0,0,1-2.794,4.584c-1.1.817-2.113,1.639-3.053,2.45l-.691.605-.335.3-.463.435-1.7,1.635q-.143-1.632-.275-3.154-.135-1.27-.261-2.442l3.528-1.813c1.021-.516,1.986-.979,2.921-1.365A23.257,23.257,0,0,1,230.478,427.036Z" transform="matrix(-1, 0, 0, 1, 380, 0)" /><polygon class="cls-3" points="230.313 423.369 223.833 420.303 221.141 428.008 230.313 423.369" transform="matrix(-1, 0, 0, 1, 380, 0)" /><path class="cls-3" d="M230.32,423.383c-.043.374-3.387,2.051-4.592,2.862-.642.432-1.324.86-2.03,1.283-1.213.678-2.624,1.44-4.073,2.212.558-1.7,1.121-3.426,1.662-5.077.259-.818.53-1.627.807-2.411l1.188-3.266,1.813.9.946.507q.864.476,1.647.941c1.042.618,1.968,1.215,2.747,1.774a10.157,10.157,0,0,1-4.941-.941l-1-.666a1.311,1.311,0,0,0-.276-.284,1.587,1.587,0,0,0-.225.33l-.434,1.007q-.417,1-.772,1.953c-.546,1.469-.718,2.015-.908,2.656a57.873,57.873,0,0,1,5.333-2.8A20.339,20.339,0,0,1,230.32,423.383Z" transform="matrix(-1, 0, 0, 1, 380, 0)" /><polygon class="cls-3" points="221.369 420.682 218.955 426.882 214.062 422.016 221.369 420.682" transform="matrix(-1, 0, 0, 1, 380, 0)" /><path class="cls-3" d="M221.372,420.7c-.111.339-3.128.877-4.257,1.266l-.692.227-.356.109-.117.062a.9.9,0,0,0-.234.168,2.444,2.444,0,0,0,.329.192l1.265,1.163c.417.386.825.776,1.217,1.163l.05.049h0v0a.162.162,0,0,0,.008.029.025.025,0,0,0,.031.013.084.084,0,0,0,.03-.012.622.622,0,0,0,.065-.132l.1-.209c.258-.556.518-1.087.776-1.589a27.019,27.019,0,0,1,1.522-2.622,7.171,7.171,0,0,1-.271,4.176l-.373.606a7.242,7.242,0,0,0-.414.765c-.307.626-.6,1.223-.874,1.784l-1.861-2.053q-.618-.678-1.227-1.288l-1.3-1.263-1.666-1.581,3.333-.7c.78-.16,1.519-.29,2.228-.366A13.916,13.916,0,0,1,221.372,420.7Z" transform="matrix(-1, 0, 0, 1, 380, 0)" /><path class="cls-3" d="M235.236,414.221s-4.91.719-4.759.968,2.293,5.01,2.293,5.01Z" transform="matrix(-1, 0, 0, 1, 380, 0)" /><path class="cls-3" d="M235.25,414.226c.239.246-.713,2.519-.908,3.465l-.148.642-.343,1.063c-.251.747-.541,1.559-.851,2.4l-.117.316-.059.159c-.01.044-.02.028-.031,0l-.033-.064-.264-.524-.543-1.093-1.046-2.141c-.19-.372-.373-.745-.543-1.113-.251-.56-.494-1.105-.726-1.624l-.031-.593-.015-.291c.1,0,.02-.1.056-.131a.484.484,0,0,1,.076-.111,1.953,1.953,0,0,1,1.175-.521l.355-.066.294-.044.378-.039.73-.049a15.317,15.317,0,0,1,2.539.074,5.251,5.251,0,0,1-2.941,1.765c-.549.007-.455-.1-.66-.12-.063-.007-.231-.038-.235.022a.6.6,0,0,0,0,.178,4.768,4.768,0,0,0,.337,1.034c.158.408.359.879.495,1.188.109.247.225.49.33.692l.152.284.07.125c.023.01.042-.1.062-.147l.2-.645.082-.265.038-.12.062-.176a15.782,15.782,0,0,1,.77-1.768A9.308,9.308,0,0,1,235.25,414.226Z" transform="matrix(-1, 0, 0, 1, 380, 0)" /><path class="cls-1" d="M228.236,416.364c.048.264,2.036,4.266,2.036,4.266l-5.061-1.895Z" transform="matrix(-1, 0, 0, 1, 380, 0)" /><path class="cls-1" d="M228.245,416.375c.053.159-.325.551-.779.981l-.663.626a1.008,1.008,0,0,0-.232.318.591.591,0,0,0-.022.228,3.01,3.01,0,0,0,.628.025l.831.249.211.065c.046.013.023,0,.036,0a.039.039,0,0,0,.018-.018c.012-.033-.031-.057.01-.023a.118.118,0,0,0,.1.034.082.082,0,0,0,.049-.046.221.221,0,0,0,.018-.05c0-.033.027-.009-.019-.139a10.6,10.6,0,0,1-.474-2.211c.281.21.533.26.792.432a5.138,5.138,0,0,1,.71.5,3.715,3.715,0,0,1,.532.536l.049.064.075.127.136.248a2.737,2.737,0,0,1,.178.413c.4,1.3.673,2.158.921,2.867-.882-.4-1.6-.717-2.247-.981l-.936-.369-.755-.275-3.257-1.078c.416-.351.841-.7,1.266-1.036.406-.318.912-.7,1.119-.815A6.68,6.68,0,0,1,228.245,416.375Z" transform="matrix(-1, 0, 0, 1, 380, 0)" /><path class="cls-3" d="M233.9,412.119s-6.186-2.513-5.8-2.583,1.289-2.421,1.289-2.421Z" transform="matrix(-1, 0, 0, 1, 380, 0)" /><path class="cls-3" d="M233.893,412.13c-.319.114-1.865-1.62-2.6-2.164-.441-.327-.878-.693-1.309-1.08-.14-.132-.141-.112-.173-.128l-.071-.024c-.04-.007-.067-.016-.082,0a1.05,1.05,0,0,0-.008.131l0,.039v.021c0,.007,0,0,0,.017l-.043.1-.06.134a.021.021,0,0,0,0,.013.012.012,0,0,0,0,.01.031.031,0,0,0,.011,0c.007,0,0,0,0,0l1.554.8a19.927,19.927,0,0,1,2.893,1.849,4.486,4.486,0,0,1-3.281,0c-.476-.359-.947-.684-1.411-.983l-.348-.221q-.254-.144-.5-.287a2.1,2.1,0,0,1-.764-.62.46.46,0,0,1-.048-.094c0-.029.028-.034.042-.05a.521.521,0,0,0,.08-.162,1.205,1.205,0,0,1,.245-.437,1.909,1.909,0,0,0,.3-.439l.178-.353c.28-.588.51-1.213.74-1.838l2.224,2.253a15.812,15.812,0,0,1,1.472,1.664A8.343,8.343,0,0,1,233.893,412.13Z" transform="matrix(-1, 0, 0, 1, 380, 0)" /><polygon class="cls-1" points="228.903 413.513 228.484 411.626 232.321 412.754 228.903 413.513" transform="matrix(-1, 0, 0, 1, 380, 0)" /><path class="cls-1" d="M228.9,413.5c.006-.323,1.354-.61,1.833-.9a7.918,7.918,0,0,1,1.409-.649l-.053,1.6c-.486-.074-.978-.18-1.447-.278q-.324-.068-.641-.155l-.157-.044c-.033-.01-.009,0-.016-.006l0-.009c-.006-.019-.04-.073-.178-.182-.125-.006-.3.126-.467.58-.441-.076-.918-.6-1.308-1.3a4.706,4.706,0,0,1-.647-1.681c.008-.061.016-.12.026-.164l2.146.994,1.266.537a10.851,10.851,0,0,0,1.782.49l-.029.855a9.917,9.917,0,0,1-2.246.567A3.517,3.517,0,0,1,228.9,413.5Z" transform="matrix(-1, 0, 0, 1, 380, 0)" /><polygon class="cls-3" points="224.372 405.848 220.57 406.296 218.57 405.417 224.372 405.848" transform="matrix(-1, 0, 0, 1, 380, 0)" /><path class="cls-3" d="M224.371,405.863c-.119.306-1.841.166-2.519.3a17.287,17.287,0,0,1-3.352.195l.448-1.8.387.142c.289.106.573.219.847.336a3.642,3.642,0,0,1,.539.253s0,.009.012.012l.276-.014.539-.014c.354,0,.7,0,1.025.026a9.317,9.317,0,0,1,1.766.268c-.521.894-1.645,1.612-2.087,1.517-.288-.062-.57-.11-.841-.148a5.456,5.456,0,0,0-.927-.063l-.387-.221-.246-.15-.487-.275c-.322-.172-.64-.323-.948-.457l.182-.733a41.406,41.406,0,0,1,4.329.195A5.035,5.035,0,0,1,224.371,405.863Z" transform="matrix(-1, 0, 0, 1, 380, 0)" /><polygon class="cls-1" points="227.407 407.119 223.605 407.442 227.145 408.191 227.407 407.119" transform="matrix(-1, 0, 0, 1, 380, 0)" /><path class="cls-1" d="M227.422,407.122c.193.077.1.752-.011,1.491a7.3,7.3,0,0,0-.911-.051l-.474.011-.344.017c-.23.005-.462,0-.694-.016-.463-.028-.924-.087-1.361-.14l-.226-.03.121-1.942a7.357,7.357,0,0,1,3.861.373c-.377.862-1.191,1.514-1.511,1.4a6.08,6.08,0,0,0-2.233-.391l.049-.788a11.271,11.271,0,0,0,1.954.328l.752.088a1.019,1.019,0,0,1,.37.119l.008-.011c.035-.071.152-.1.292-.186A3.113,3.113,0,0,0,227.422,407.122Z" transform="matrix(-1, 0, 0, 1, 380, 0)" /><polygon class="cls-1" points="206.907 427.652 211.843 422.538 217.039 428.742 206.907 427.652" transform="matrix(-1, 0, 0, 1, 380, 0)" /><path class="cls-1" d="M206.909,427.637c.237-.29,3.924.119,5.364.092.766-.013,1.568,0,2.378.027a.837.837,0,0,0,.358-.1,2.713,2.713,0,0,0-.221-.173.407.407,0,0,0-.061-.036l-.47-.524c-.564-.635-1.116-1.277-1.644-1.911l-.773-.942c-.077-.1-.02-.037-.038-.067l-.009-.039c-.011-.007-.029-.007-.06,0q-.342.314-.673.62-.721.66-1.407,1.247c-.912.782-1.768,1.461-2.541,2.015a9.993,9.993,0,0,1,2.444-4.35l.958-.742,1.364-1.214,1.112,1.489.637.881q.637.862,1.271,1.65c.708.893,2,2.406,3.128,3.7-4.127-.372-5.881-.415-8-.769A19.919,19.919,0,0,1,206.909,427.637Z" transform="matrix(-1, 0, 0, 1, 380, 0)" /><path class="cls-3" d="M198.661,420.545s5.537-1.212,5.475-.886-.427,6.278-.427,6.278Z" transform="matrix(-1, 0, 0, 1, 380, 0)" /><path class="cls-3" d="M198.672,420.535c.336-.1,2.25,1.961,3.122,2.63l.578.459c.083.064.222.191.259.209l.108.053a.514.514,0,0,0,.242.071c.031.026.015-.066,0-.129l-.027-.147-.026-.108-.006-.02,0-.009,0-.089.012-.382c.016-.515.041-1.028.072-1.527.018-.249.036-.5.053-.736l.015-.18c0-.036,0,.009,0,.009l0,.059c.023-.023.047-.067-.03-.09l-1.518.119c-1.04.079-2,.117-2.815.1a5.894,5.894,0,0,1,3.361-1.959l.709.015a7.426,7.426,0,0,1,1.1,0,.945.945,0,0,1,.714.349q.036.412.069.8c-.089.661-.175,1.294-.258,1.909-.064.511-.112,1.011-.151,1.5q-.06.972-.118,1.889-.024.506-.048,1l-.023.5a1.064,1.064,0,0,1-.007.12l-.079-.079-.158-.158-2.4-2.408a20.7,20.7,0,0,1-1.49-1.645A11.868,11.868,0,0,1,198.672,420.535Z" transform="matrix(-1, 0, 0, 1, 380, 0)" /><path class="cls-3" d="M206.406,419.447c.061.333-.5,5.949-.5,5.949l5.134-4.5Z" transform="matrix(-1, 0, 0, 1, 380, 0)" /><path class="cls-3" d="M206.411,419.432c.115-.128.786,0,1.554.183.791.186,1.517.369,2.438.564.571.111,1.212.254,1.96.44-.355.371-.773.788-1.231,1.232L209.939,423l-.806.784-.9.85c-1.2,1.1-2.478,2.227-3.566,3.158.131-1.192.275-2.369.416-3.443q.108-.781.212-1.538.077-.389.152-.763c.1-.5.217-.964.333-1.4q.09-.322.176-.631l.088-.293.041-.139a.224.224,0,0,1,.019-.048l.009-.02.006-.01,0-.006.174-.036c-.226.046-.149.035-.153.04l.019.011.038.026a.318.318,0,0,1,.074.083,2.364,2.364,0,0,1,.138.2,4.326,4.326,0,0,1,.239.46,6.361,6.361,0,0,1,.351,1,3.36,3.36,0,0,1,.125,1.594c-.041.164-.058.071-.086.114a.3.3,0,0,0-.077.068,1.087,1.087,0,0,0-.146.251,5.3,5.3,0,0,0-.255.79,7.286,7.286,0,0,0,1.847-1.425l.612-.569c.19-.181.431-.407.49-.476l.479-.517c-.26-.06-.465-.11-.65-.168-.081-.025-.636-.213-.971-.356A10.065,10.065,0,0,1,206.411,419.432Z" transform="matrix(-1, 0, 0, 1, 380, 0)" /><path class="cls-3" d="M200.019,417.749a47.362,47.362,0,0,0,3.543-3.507c-.3.056-1.619-1.42-1.619-1.42Z" transform="matrix(-1, 0, 0, 1, 380, 0)" /><path class="cls-3" d="M200.005,417.743c-.256-.208.419-1.9.507-2.622a15.676,15.676,0,0,1,.609-2.62l.391-1.279,1.091,1.012.45.418.516.449c.175.2.548.3.774.492a.938.938,0,0,1,.225.517,1,1,0,0,1-.058.509,2.041,2.041,0,0,1-.435.6c-.183.195-.38.382-.572.566l-.321.282c-.2.174-.411.338-.615.493a10.983,10.983,0,0,1-2.354,1.4,3.258,3.258,0,0,1,.861-2.542,10.613,10.613,0,0,0,1.181-.66.7.7,0,0,1,.188-.1,1.4,1.4,0,0,0,.147-.077,1.732,1.732,0,0,0,.305-.225l-1.253-1.261.677-.121a24.641,24.641,0,0,1-1.255,3.5A5.482,5.482,0,0,1,200.005,417.743Z" transform="matrix(-1, 0, 0, 1, 380, 0)" /><polygon class="cls-3" points="205.824 409.353 210.131 408.281 211.94 406.509 205.824 409.353" transform="matrix(-1, 0, 0, 1, 380, 0)" /><path class="cls-3" d="M205.817,409.339c-.032-.331,1.79-1.165,2.414-1.654a23.126,23.126,0,0,1,3.312-2.029l1.055,1.524-.323.353c-.241.262-.486.518-.731.762l-.916.877-.577.13-.314.059-.616.1c-.405.062-.8.109-1.176.142a12.172,12.172,0,0,1-2.053.023,3.658,3.658,0,0,1,2.226-1.854c.338.014.666.016.98.008a5.675,5.675,0,0,1,.749-.009.652.652,0,0,0,.164-.1l.264-.2.5-.413c.321-.275.619-.553.9-.827l.429.621c-1.784.836-3.156,1.782-4.5,2.231A6.44,6.44,0,0,1,205.817,409.339Z" transform="matrix(-1, 0, 0, 1, 380, 0)" /><path class="cls-1" d="M207.765,409.925,203.111,411a17.036,17.036,0,0,0,1.62,1.189C204.756,412.107,207.765,409.925,207.765,409.925Z" transform="matrix(-1, 0, 0, 1, 380, 0)" /><path class="cls-1" d="M207.774,409.937c.115.3-1.14,1.2-1.51,1.7-.163.22-.344.433-.531.64l-.283.305-.126.138-.026.029c-.008.008,0,.006.028-.023l.033-.033c.018,0,.021-.025-.021-.076a1.081,1.081,0,0,0-.437-.369,1.263,1.263,0,0,0-.133-.052l-.018,0,.75.245v0l0,0-.016.015c-.011.009-.014-.006-.022-.007a.224.224,0,0,1-.038-.031,1.215,1.215,0,0,1-.262-.444l-.074-.174a1.875,1.875,0,0,0-.113-.281c-.119-.011-.173-.767-.239-1.328a1.908,1.908,0,0,0-.064-.413l-.313.061-.632.125-.647.112c-.233.031-.407.053-.5.059s-.261.037.089-.048l.684-.169c.243-.061.461-.109.691-.155a12.712,12.712,0,0,1,1.332-.191,8.593,8.593,0,0,1,2.331.074c-.356.93-1.271,1.738-1.676,1.682a8.872,8.872,0,0,0-2.236-.029l-.344.033c-.087,0-.023.033.013.061l.113.086c.153.121.3.236.446.349l.193.149a.7.7,0,0,0,.09.06c.018-.006-.024.049.044-.078a.775.775,0,0,1,.141-.169l.088-.084.62-.553a6.726,6.726,0,0,1,1.2-.856A4.125,4.125,0,0,1,207.774,409.937Z" transform="matrix(-1, 0, 0, 1, 380, 0)" /><polygon class="cls-1" points="217.459 406.681 214.94 405.345 212.773 407.536 217.459 406.681" transform="matrix(-1, 0, 0, 1, 380, 0)" /><path class="cls-1" d="M217.461,406.7c-.028.325-1.568.593-2.128.878a12.4,12.4,0,0,1-2.4.851l-2.731.729,1.927-2.253.567-.662c.25-.291.51-.569.774-.831l.547-.528.744-.7c.46.273.979.586,1.287.8.21.157.409.318.595.479a7.458,7.458,0,0,1,.947.973,2.642,2.642,0,0,1-2.388.161c-.078-.072-.037-.08-.041-.11a.249.249,0,0,0-.007-.085.65.65,0,0,0-.083-.185c-.089-.018-.155-.036-.348.093-.224.161-.433.326-.629.493a11.505,11.505,0,0,0-1.043,1.017l-.351-.665a21.465,21.465,0,0,1,3.343-.727A4.271,4.271,0,0,1,217.461,406.7Z" transform="matrix(-1, 0, 0, 1, 380, 0)" /><polygon class="cls-1" points="204.574 417.97 203.879 416.179 201.72 418.303 204.574 417.97" transform="matrix(-1, 0, 0, 1, 380, 0)" /><path class="cls-1" d="M204.575,417.985c-.026.319-1.162.439-1.579.669a5.519,5.519,0,0,1-1.181.464l-2.119.6,1.449-1.994c.245-.339.523-.666.785-.978l.152-.175.3-.307.645-.637c.428-.41.843-.783,1.207-1.081a10.514,10.514,0,0,1,.609,3.325,1.688,1.688,0,0,0-1.053.038c-.208.1-.27.244-.245.106a3.213,3.213,0,0,0,.044-.464c-.026-.3-.29-.188-.585.054a8.016,8.016,0,0,0-.969,1.02l-.363-.758a6.637,6.637,0,0,1,1.87-.283A2.691,2.691,0,0,1,204.575,417.985Z" transform="matrix(-1, 0, 0, 1, 380, 0)" /><polygon class="cls-3" points="215.505 408.283 218.148 412.46 227.411 411.701 218.478 414.264 217.481 419.106 214.839 414.929 205.576 415.688 214.509 413.125 215.505 408.283" transform="matrix(-1, 0, 0, 1, 380, 0)" /><path class="cls-3" d="M215.52,408.286a6.38,6.38,0,0,1-.146,1.613c-.072.441-.156.951-.248,1.507-.111.613-.23,1.276-.355,1.962l-3.875,1.2c-1.186.37-2.258.712-3.017.977l-2.136.725-.216-1.184,4.523-.535,2.347-.251,2.9-.283,1.634,2.509a.488.488,0,0,0,.1.093v-.1l0-.032.146-.753c.153-.761.305-1.516.453-2.258L222.8,412l4.355-1.184.331,1.811-4.946.267-4.7.18-.564-.954c-.12-.212-.236-.416-.348-.615-.222-.4-.429-.77-.625-1.123l-1.042-1.943c.5.452,1.057,1.022,1.637,1.656l.881.992.443.52a1.273,1.273,0,0,0,.242.216,1.788,1.788,0,0,1,.5-.146l.858-.16c.565-.1,1.112-.19,1.623-.264a20.632,20.632,0,0,1,2.482-.243l3.416-.056.269,1.476q-2.4.55-4.666,1.118l-4.11,1.058c-.169.77-.336,1.527-.5,2.263-.234,1.12-.461,2.207-.679,3.249l-3.041-4.755-9,.867-.193-1.057c2.423-.723,4.677-1.372,6.813-1.922a16.618,16.618,0,0,1,1.932-.434c.3-1.021.58-2,.808-2.787Z" transform="matrix(-1, 0, 0, 1, 380, 0)" /><polygon class="cls-3" points="210.541 411.985 216.261 412.419 221.458 409.992 219.067 413.225 222.446 415.404 216.726 414.97 211.529 417.397 213.92 414.164 210.541 411.985" transform="matrix(-1, 0, 0, 1, 380, 0)" /><path class="cls-3" d="M210.549,411.972a4,4,0,0,1,1.227.556c.662.369,1.364.782,2.614,1.551L213.6,415.2a1.519,1.519,0,0,0-.124.222,5.01,5.01,0,0,0-.42.725l.117-.069.99-.6.6-.391c-.011,0,.2-.111.327-.176l.429-.223,1.065-.537,2.013.093a1.037,1.037,0,0,0,.178-.033c.034-.012.043-.024.03-.038l-.105-.044-.061-.021.706.469-1.709-1.095,1.24-1.677-.547.749a.847.847,0,0,0,.1-.083c.02-.024.028-.046.008-.06a.372.372,0,0,0-.2.013l-1.828.748c-.6-.06-.72-.084-1.033-.124l-.8-.11-1.481-.221c-.94-.149-1.788-.3-2.568-.453a16.973,16.973,0,0,1,2.809-.567c.52-.066,1.048-.119,1.558-.156l.747-.045.357-.013c.077,0,.093,0,.086-.011l.01-.015,0-.026.214-.118.4-.209a5.891,5.891,0,0,1,.664-.288l3.356-1.344a1.537,1.537,0,0,0,.848.418,4.518,4.518,0,0,1-.272,1.171l-1.25,1.616c-.125.15-.245.294-.358.428l.487.344,1.476.972c.288.352.6.7.875,1.008-.465.091-.917.18-1.31.272l-2.682-.176-1.732-.095-1.692.837-2.535,1.224c-.414.014-.8,0-1.161-.012.061-.386.115-.757.2-1.134l.749-.988c.219-.286.572-.752.553-.715.09-.11.206-.237.33-.362l-.238-.214c-.1-.086-.15-.145-.346-.3l-.934-.768C211.167,412.523,210.715,412.125,210.549,411.972Z" transform="matrix(-1, 0, 0, 1, 380, 0)" /><polygon class="cls-1" points="210.558 416.35 206.44 416.98 209.421 419.007 210.558 416.35" transform="matrix(-1, 0, 0, 1, 380, 0)" /><path class="cls-1" d="M210.572,416.356c.127.1.035.509-.1.969-.068.23-.141.473-.208.7-.092.29-.19.6-.245.845-.078.336-.179.7-.312,1.128-.284-.136-.579-.289-.943-.5l-1.065-.623-2.4-1.5c-.536-.339-1.068-.687-1.523-1,1.593-.247,3.294-.442,4.61-.52l.468-.022.26.015.5.048a6.862,6.862,0,0,1,.9.173,3.483,3.483,0,0,1-.916,1.147,2.523,2.523,0,0,1-.5.326c0,.048.018.054,0,.021-.186-.261-.883-.315-1.447-.31a4.531,4.531,0,0,0,1.541.96,3.4,3.4,0,0,1,.127-.376,1.231,1.231,0,0,1,.077-.149l.171-.306A4.277,4.277,0,0,1,210.572,416.356Z" transform="matrix(-1, 0, 0, 1, 380, 0)" /><polygon class="cls-1" points="213.878 408.641 213.505 410.852 209.084 410.208 213.878 408.641" transform="matrix(-1, 0, 0, 1, 380, 0)" /><path class="cls-1" d="M213.882,408.656c-.024.338-1.3.742-1.345.946a.791.791,0,0,1-.025.116.582.582,0,0,0,.449.157c.175,0,.288-.012.377-.023a.782.782,0,0,0,.11-.019,5.5,5.5,0,0,0-.7-.063h-.075l.006.013.025.032a.73.73,0,0,0,.107.087.192.192,0,0,0,.113-.047.555.555,0,0,0,.073-.064,2.294,2.294,0,0,0,.108-.239,8.055,8.055,0,0,1,.49-.958,3.742,3.742,0,0,1,.784,1.338,5.12,5.12,0,0,1-.068,2.011l0,.011-1.236-.371c-.363-.109-.679-.205-1.075-.305-.728-.192-1.3-.335-1.827-.453a3.954,3.954,0,0,0-1.177-.61,2.907,2.907,0,0,0,.853-.826,16.294,16.294,0,0,1,1.946-.6,6.334,6.334,0,0,1,1.3-.172A3.564,3.564,0,0,1,213.882,408.656Z" transform="matrix(-1, 0, 0, 1, 380, 0)" /><path class="cls-1" d="M227.8,428.468c-.352-.342-.793-.348-1.875-.59l-8.776-1.962c-1.689-.377-1.885-.586-3.455.27-4.683,2.552-9.258,5.407-13.876,8.1L193.1,446.75c-.558,1.033-1.459,2.233-1.539,3.3-.148,1.978,1.209,4.667,1.682,6.493.386,1.49.542,4.989,1.572,6.067a1.321,1.321,0,0,0,.158.117c.409,1.068,3.493,2.61,4.379,3.2,1.208.809,1.679.76,3.29.761,4.388,0,9.2.663,13.634.013a35.659,35.659,0,0,0,4.939-1.517c1.975-.611,5.842-1.023,7.538-2.331.967-.746,1.064-2.342,1.413-3.621.734-2.69,1.491-5.38,2.2-8.073.974-3.686.19-7.686.065-11.311-.061-1.775.3-4.307-.206-5.961-.463-1.512-2.076-2.965-2.989-4.215C228.515,428.688,228.319,428.36,227.8,428.468Z" transform="matrix(-1, 0, 0, 1, 380, 0)" /><path d="M227.8,428.438a.523.523,0,0,1,.469-.07,1.761,1.761,0,0,1,.7.54c.444.517.984,1.148,1.727,1.916A8.172,8.172,0,0,1,232.786,434a16.963,16.963,0,0,1,.269,4.407c-.055,2.9.591,6.068.562,9.09a17.085,17.085,0,0,1-.511,4.266c-.289,1.23-.549,2.335-.765,3.256q-.546,2.424-1.11,4.927a10.221,10.221,0,0,1-.766,2.845,3.814,3.814,0,0,1-.59.832,4.877,4.877,0,0,1-.752.606,8.9,8.9,0,0,1-1.406.717,43.968,43.968,0,0,1-5.3,1.5c-1.512.389-3.133,1.24-5.142,1.742-.253.061-.522.115-.786.159l-.718.1c-.477.06-.956.118-1.431.152-.951.08-1.9.114-2.828.121-1.868.019-3.694-.064-5.473-.123-.888-.029-1.765-.053-2.628-.058l-1.306.008a8.182,8.182,0,0,1-1.7-.115,5.557,5.557,0,0,1-1.824-.753l-.537-.332-.543-.312c-.764-.434-1.561-.884-2.379-1.454a9.208,9.208,0,0,1-.933-.739,3.888,3.888,0,0,1-1.041-1.419l.651.862a3.867,3.867,0,0,1-1.26-1.686,9.037,9.037,0,0,1-.441-1.337c-.214-.834-.337-1.6-.455-2.341s-.22-1.469-.351-1.946c-.154-.558-.4-1.228-.649-1.918s-.507-1.425-.721-2.227a9.05,9.05,0,0,1-.362-2.743,3.539,3.539,0,0,1,.038-.452c.02-.172.056-.311.088-.467a6.069,6.069,0,0,1,.256-.778,9.966,9.966,0,0,1,.6-1.206l.567-.95.234-.4.254-.464q2.069-3.738,4.074-7.366,1.014-1.8,2.006-3.575l.683-1.224.115-.209c.065-.045.138-.081.206-.122l.417-.237.586-.33,1.749-.972,6.794-3.725,3.259-1.756,1.593-.85a10.007,10.007,0,0,1,.948-.42,3.768,3.768,0,0,1,1.305-.258,8.1,8.1,0,0,1,2,.411l1.636.447,3.169.88,3.014.859,1.433.412c.236.065.475.124.746.211a2,2,0,0,1,.875.516,1.7,1.7,0,0,0-.879-.306c-.268-.022-.509-.013-.759-.014-.5,0-1.014-.02-1.551-.041-1.073-.046-2.216-.116-3.4-.208s-2.4-.2-3.632-.331l-1.856-.211a2.412,2.412,0,0,0-.678-.025,1.34,1.34,0,0,0-.35.162c-.337.184-.858.556-1.351.9L212.287,429c-.958.655-1.883,1.272-2.751,1.833-1.735,1.123-3.242,2.024-4.322,2.57l-2.195,1.117-1.088.557-.542.278c-.075.038-.214.113-.236.119l-.049.011c-.04,0-.059.031-.085.055l-.02.02-.073.119-.157.259-.624,1.032-1.234,2.051q-2.445,4.083-4.719,8.011c-.8,1.419-1.778,2.52-1.661,3.509a14.67,14.67,0,0,0,.971,3.948,18.721,18.721,0,0,1,.636,2.159c.142.752.22,1.446.321,2.128a19.894,19.894,0,0,0,.362,1.959,5.516,5.516,0,0,0,.279.851,1.078,1.078,0,0,0,.338.51l.191.067.071.28a1.835,1.835,0,0,0,.435.492,7.794,7.794,0,0,0,.744.574c.534.371,1.105.715,1.685,1.056l.885.522c.332.2.574.376.823.507a2.933,2.933,0,0,0,1.579.325c2.66-.031,5.29.152,7.789.216a31.736,31.736,0,0,0,7.166-.442c1.081-.269,2.168-.719,3.3-1.128a16.538,16.538,0,0,1,1.77-.55l1.716-.4a25.489,25.489,0,0,0,3.161-.88,5.69,5.69,0,0,0,1.252-.635.95.95,0,0,0,.317-.318,2.5,2.5,0,0,0,.239-.516,11.662,11.662,0,0,0,.354-1.451c.057-.272.116-.553.193-.849l.207-.783q.415-1.557.82-3.078t.815-3c.129-.486.285-1,.391-1.454a11.851,11.851,0,0,0,.259-1.367,30.044,30.044,0,0,0,.066-5.646,37.673,37.673,0,0,1-.09-4.785,18.421,18.421,0,0,0,.1-4.885,6.543,6.543,0,0,0-.994-1.959l-1.2-1.676c-.365-.518-.624-1.006-.871-1.375a1.457,1.457,0,0,0-.392-.434A.665.665,0,0,0,227.8,428.438Z" transform="matrix(-1, 0, 0, 1, 380, 0)" /><path class="cls-2" d="M199.821,434.29,193.1,446.75c-.558,1.033-1.459,2.233-1.539,3.3-.148,1.978,1.209,4.668,1.682,6.493.386,1.49.542,4.989,1.572,6.067.7.734,2.919.782,3.974,1.017,3.068.686,7.5,3.026,10.639,1.19l7.273-4.248c1.829-1.068,4.478-2.1,6.071-3.545a10.67,10.67,0,0,0,1.841-2.966l4.249-7.872c.66-1.222,2.418-3.458,2.595-4.808.183-1.386-.893-3.5-1.222-4.763-.6-2.305-.886-5.169-1.886-7.282-.6-1.278-.781-1.088-2.416-1.453l-8.776-1.962c-1.689-.377-1.885-.586-3.455.27C209.014,428.738,204.439,431.593,199.821,434.29Z" transform="matrix(-1, 0, 0, 1, 380, 0)" /><path class="cls-1" d="M199.817,434.283c.392-.32,4.489-2.756,9.235-5.562l3.633-2.145a13.022,13.022,0,0,1,1.883-1.007,2.352,2.352,0,0,1,1.1-.155,8.353,8.353,0,0,1,1.025.2l6.7,1.448,2.274.479,1.148.228a2.166,2.166,0,0,1,1.237.52,4.239,4.239,0,0,1,.661,1.111,11.745,11.745,0,0,1,.449,1.15,24.466,24.466,0,0,1,.631,2.373,33.154,33.154,0,0,0,1.171,4.71,18.491,18.491,0,0,1,.782,2.408,4.309,4.309,0,0,1,.1,1.366,4.415,4.415,0,0,1-.422,1.305c-.757,1.569-1.82,2.853-2.536,4.315l-2.345,4.385c-.781,1.473-1.562,2.869-2.291,4.354a7.447,7.447,0,0,1-.7,1.1,5.366,5.366,0,0,1-.951.913,15.327,15.327,0,0,1-2.085,1.336c-1.238.683-2.507,1.255-3.67,1.939l-3.576,2.095-3.551,2.075a6.067,6.067,0,0,1-2.1.721,9.121,9.121,0,0,1-2.154-.012c-2.8-.347-5.252-1.65-7.726-1.983a15.812,15.812,0,0,1-1.984-.353,3.419,3.419,0,0,1-1.033-.447A2.293,2.293,0,0,1,194,462.2a15.029,15.029,0,0,1-.885-3.83c-.177-2.459-1.511-4.582-1.882-7.065a4.41,4.41,0,0,1,.071-1.917,7.716,7.716,0,0,1,.794-1.642c.616-.974,1.125-1.954,1.673-2.929,2.16-3.864,4.15-7.426,5.922-10.6-1.362,2.957-3.468,7.23-5.508,11.251l-.761,1.493c-.264.51-.548.973-.794,1.431a5.758,5.758,0,0,0-.559,1.33,3.639,3.639,0,0,0,0,1.3,30.884,30.884,0,0,0,1.315,4.347,11.2,11.2,0,0,1,.432,1.693c.095.566.161,1.117.238,1.663a12.682,12.682,0,0,0,.705,3.091,1.366,1.366,0,0,0,.932.875,8.644,8.644,0,0,0,1.508.34c.525.086,1.052.14,1.607.26.534.129,1.052.278,1.558.442a24.04,24.04,0,0,0,5.975,1.5,5.489,5.489,0,0,0,2.828-.561c.871-.477,1.742-1,2.6-1.488l5.086-2.941a54.538,54.538,0,0,0,4.967-2.721c1.636-.945,2.125-2.835,3.058-4.384l2.525-4.7,1.23-2.292c.422-.775.915-1.47,1.357-2.186a10.826,10.826,0,0,0,1.128-2.181,3.85,3.85,0,0,0-.167-2.3c-.231-.77-.54-1.516-.8-2.29a22.813,22.813,0,0,1-.576-2.353,33.407,33.407,0,0,0-1.1-4.493,10.116,10.116,0,0,0-.432-1.025,1.824,1.824,0,0,0-.571-.78,3.514,3.514,0,0,0-.986-.272l-1.1-.233-4.256-.948-4.109-.925a5.615,5.615,0,0,0-1.911-.286,6.189,6.189,0,0,0-1.75.794C208.987,429.212,201.327,433.456,199.817,434.283Z" transform="matrix(-1, 0, 0, 1, 380, 0)" /><polygon class="cls-3" points="212.372 465.063 227.057 462.137 222.915 458.818 212.372 465.063" transform="matrix(-1, 0, 0, 1, 380, 0)" /><path class="cls-3" d="M212.365,465.05c.066-.4,4.161-2.816,5.645-3.9.688-.5,1.413-1.012,2.164-1.52l1.143-.762.584-.381,1.085-.674,2.41,1.833,3.224,2.509.68.533-4.125.847-2.071.4c-1.358.252-2.684.476-3.953.668-2.538.384-4.847.639-6.723.742a15.731,15.731,0,0,1,5.82-2.447c1.613-.119,3.151-.286,4.607-.482l2.074-.305c.389-.052.814-.12,1.226-.193l-.654-.535-.839-.663-1.028-.8-.757-.571-3.421,2.151c-1.155.71-2.247,1.356-3.306,1.918A32.245,32.245,0,0,1,212.365,465.05Z" transform="matrix(-1, 0, 0, 1, 380, 0)" /><polygon class="cls-3" points="208.872 462.505 210.109 454.097 219.48 456.508 208.872 462.505" transform="matrix(-1, 0, 0, 1, 380, 0)" /><path class="cls-3" d="M208.865,462.492c.059-.394,3.926-2.566,5.325-3.564.745-.531,1.537-1.063,2.355-1.593.554-.347.463-.324.552-.4a.6.6,0,0,0,.1-.125,2.733,2.733,0,0,0-.3-.019l-.042,0a1.079,1.079,0,0,1-.151-.032l-.23-.053-.913-.212c-.99-.229-1.973-.47-2.927-.718l-1.409-.376-.282-.079-.007-.01-.033-.027a.049.049,0,0,0-.022.016l-.013.015s-.006-.011-.03.126q-.115.593-.227,1.167c-.153.763-.31,1.5-.47,2.2-.32,1.4-.651,2.659-.984,3.741a13.846,13.846,0,0,1-.409-5.9c.13-.472.257-.934.378-1.377l.044-.167.059-.273c.04-.188.079-.375.118-.558q.111-.52.215-1.009l3.219,1.016q1.224.381,2.388.7l2.37.625,3.053.751-4.73,2.81c-1.2.71-2.324,1.353-3.415,1.9A28.259,28.259,0,0,1,208.865,462.492Z" transform="matrix(-1, 0, 0, 1, 380, 0)" /><polygon class="cls-3" points="212.103 451.915 219.807 453.611 218.224 445.584 212.103 451.915" transform="matrix(-1, 0, 0, 1, 380, 0)" /><path class="cls-3" d="M212.092,451.9c-.086-.363,2.449-2.966,3.293-4.1.355-.471.661-.873,1.114-1.413q1.085-1.21,2.216-2.47c.426,1.883.869,3.837,1.287,5.686.142.658.282,1.313.419,1.951.22,1.149.435,2.267.638,3.331-3.636-.835-4.2-1.039-5.649-1.479-1.275-.4-2.413-.813-3.368-1.219a9.638,9.638,0,0,1,4.89-.216c.525.208,1.05.4,1.545.58a2.624,2.624,0,0,0,.6.3,5.484,5.484,0,0,0-.123-1.363c-.11-.716-.232-1.408-.36-2.077s-.268-1.3-.4-1.916l-.248-.977-.56.656-.12.142-.248.271-.487.529c-.644.69-1.266,1.326-1.889,1.9A19.279,19.279,0,0,1,212.092,451.9Z" transform="matrix(-1, 0, 0, 1, 380, 0)" /><path class="cls-3" d="M196.61,461.345s3.939-4.371,4.085-4.058,3.434,5.556,3.434,5.556Z" transform="matrix(-1, 0, 0, 1, 380, 0)" /><path class="cls-3" d="M196.613,461.33c.22-.277,3.082.306,4.221.35l.764.042.389.03a.883.883,0,0,0,.138-.015.6.6,0,0,0,.258-.08c.043,0-.026-.062-.071-.108l-.11-.107-.084-.073-.017-.012-.1-.152-.22-.329c-.3-.449-.591-.9-.868-1.344l-.4-.659c-.2-.331-.065-.121-.065-.134.008-.038-.01-.074-.076-.058l-1.25,1.066c-.824.7-1.6,1.306-2.3,1.788a6.256,6.256,0,0,1,1.687-3.651l.589-.407a10.149,10.149,0,0,1,.895-.65,1.1,1.1,0,0,1,.817-.181c.185.216.366.425.54.627l.934,1.759q.387.707.783,1.36.526.841,1.023,1.636l.561.871.286.439.072.11c0,.019-.067-.006-.1-.007l-.23-.039-3.449-.581a22.6,22.6,0,0,1-2.257-.486A12.736,12.736,0,0,1,196.613,461.33Z" transform="matrix(-1, 0, 0, 1, 380, 0)" /><path class="cls-1" d="M203.328,455.849c.228.221,2.869,4.814,2.869,4.814l1.459-6.239Z" transform="matrix(-1, 0, 0, 1, 380, 0)" /><path class="cls-1" d="M203.323,455.834c.014-.17.6-.441,1.281-.728l1.041-.43.591-.245.585-.255c.5-.234,1.074-.48,1.75-.751-.064.474-.152,1.017-.256,1.6-.1.537-.2,1.077-.295,1.616-.061.349-.122.7-.183,1.041l-.095.514q-.079.389-.157.771c-.315,1.5-.672,3.062-1,4.365-.552-.983-1.086-1.965-1.566-2.87q-.346-.66-.681-1.3l-.144-.283-.074-.167-.145-.33c-.187-.437-.354-.859-.5-1.259q-.1-.3-.2-.581l-.089-.274-.042-.13a.126.126,0,0,1-.01-.045l0-.02v-.016l.126-.136c-.034.039-.139.148-.117.128l.01,0,.021,0,.045,0a.3.3,0,0,1,.1.02c.073.021.149.046.224.076a4.131,4.131,0,0,1,.448.212,5.781,5.781,0,0,1,.836.556,2.944,2.944,0,0,1,.951,1.088c-.164.138-.006.69.2,1.237a1.908,1.908,0,0,0,.3-.684c.052-.177.083-.285.143-.536q.09-.405.179-.8t.155-.769l.07-.375.03-.209c.027-.226.052-.442.077-.65-.233.1-.418.174-.591.231l-.317.092c-.19.054-.377.1-.562.145A8.97,8.97,0,0,1,203.323,455.834Z" transform="matrix(-1, 0, 0, 1, 380, 0)" /><path class="cls-3" d="M195.413,458.649s1.589-7.755,1.266-7.42-3.237-.32-3.237-.32Z" transform="matrix(-1, 0, 0, 1, 380, 0)" /><path class="cls-3" d="M195.4,458.653c-.342-.07-1.009-2.743-1.446-3.726-.261-.59-.5-1.218-.731-1.862l-.177-.523-.268-.906q-.272-.953-.543-1.9l1.823.354c.3.055.609.105.913.149.189.031.2.025.291.037l.218.021c.006.14,1.829-.285,1.9.192a1.215,1.215,0,0,1,.207.263,1.131,1.131,0,0,1,.126.462,6.291,6.291,0,0,1-.118,1.2l-.13.709-.129.6c-.089.393-.185.777-.285,1.15a23.317,23.317,0,0,1-1.361,3.839,6.1,6.1,0,0,1-.546-3.757c.271-.639.5-1.266.7-1.879.046-.154.092-.306.138-.457l.063-.226.043-.121a2.729,2.729,0,0,0,.133-.507c-.166-.05-.541-.042-1.188-.162l-1.025-.171a8.371,8.371,0,0,0,.27.87q.216.713.417,1.378a22.156,22.156,0,0,1,.629,2.553A11.412,11.412,0,0,1,195.4,458.653Z" transform="matrix(-1, 0, 0, 1, 380, 0)" /><polygon class="cls-1" points="200.077 454.632 198.491 452.978 197.08 457.505 200.077 454.632" transform="matrix(-1, 0, 0, 1, 380, 0)" /><path class="cls-1" d="M200.087,454.643c.168.244-1.125,1.5-1.934,2.474l-.107.1a1.212,1.212,0,0,1-1.075.461,1.882,1.882,0,0,0-.713-.468l-.1-.039q.287-.951.565-1.882.262-.823.52-1.629c.3-.88.591-1.692.858-2.344a12.444,12.444,0,0,1,2.181,3.117,3.2,3.2,0,0,1-.771.014.561.561,0,0,0-.468.132c-.162.164-.077.41-.109.272l-.03-.12c-.091-.288-.233-.238-.37-.077-.08.117-.107.1-.154.168a1.213,1.213,0,0,0-.118.215,3.493,3.493,0,0,0-.251.961c.4-.452.683-.814.865-.99a1,1,0,0,1,.287-.207c.085-.057.21-.029.4-.054A3.945,3.945,0,0,0,200.087,454.643Z" transform="matrix(-1, 0, 0, 1, 380, 0)" /><polygon class="cls-3" points="195.495 445.121 198.438 441.666 198.886 439.114 195.495 445.121" transform="matrix(-1, 0, 0, 1, 380, 0)" /><path class="cls-3" d="M195.482,445.114c-.218-.253.8-2.031,1.032-2.807a24.2,24.2,0,0,1,1.553-3.655l1.745.625-.059.485c-.044.362-.1.721-.154,1.069-.082.438-.161.863-.237,1.269l-.4.447-.226.237-.45.453c-.3.293-.6.567-.891.821a12.792,12.792,0,0,1-1.684,1.248,3.784,3.784,0,0,1,.768-2.849c.288-.19.56-.385.816-.58a6.234,6.234,0,0,1,.616-.459,2.247,2.247,0,0,0,.176-.507l.169-.64c.1-.421.184-.829.252-1.223l.711.255c-.986,1.757-1.569,3.358-2.415,4.533A6.7,6.7,0,0,1,195.482,445.114Z" transform="matrix(-1, 0, 0, 1, 380, 0)" /><polygon class="cls-1" points="194.753 448.951 197.572 445.413 195.983 449.399 194.753 448.951" transform="matrix(-1, 0, 0, 1, 380, 0)" /><path class="cls-1" d="M194.758,448.937c.05-.092.274-.082.473-.064s.386.05.549.071a1.847,1.847,0,0,0,.073-.561.951.951,0,0,1,.014-.327l.064-.4c.05-.266.111-.533.181-.8.138-.531.306-1.055.463-1.553.029-.088.058-.177.083-.256l1.683.977a10.128,10.128,0,0,1-3.365,3.1c-.316-.931-.13-2.1.212-2.292a8.255,8.255,0,0,0,2.072-1.672l.683.4a15.813,15.813,0,0,0-.791,2.211c-.107.352-.193.645-.321,1a11.821,11.821,0,0,1-.555,1.285l-.055-.026a4.868,4.868,0,0,1-1.01-.622A2.583,2.583,0,0,1,194.758,448.937Z" transform="matrix(-1, 0, 0, 1, 380, 0)" /><polygon class="cls-1" points="228.49 442.233 220.199 443.739 222.901 452.944 228.49 442.233" transform="matrix(-1, 0, 0, 1, 380, 0)" /><path class="cls-1" d="M228.5,442.24c.165.361-1.88,4.254-2.5,5.839-.333.845-.7,1.715-1.1,2.6-.118.29-.6,1.277-.979,2.043l-1.246,2.516-1.764-5.635c-.308-.96-.6-1.919-.874-2.858-.364-1.293-.718-2.553-1.055-3.753l2.248-.366,1.168-.157q1.149-.147,2.213-.254c1.415-.142,2.7-.23,3.826-.259a13.629,13.629,0,0,1-5.406,2.265l-1.413.08-.17.012a.2.2,0,0,1-.055-.009l-.1-.019c-.072-.01-.157-.017-.25-.021a1.455,1.455,0,0,0,0,.206,1.753,1.753,0,0,0,.061.383l.289,1.256c.2.823.4,1.62.612,2.39q.315,1.1.611,2.13l.388,1.205q.293-.629.566-1.218.463-.951.9-1.84c.612-1.236,1.2-2.379,1.817-3.421A27.75,27.75,0,0,1,228.5,442.24Z" transform="matrix(-1, 0, 0, 1, 380, 0)" /><path class="cls-3" d="M226.9,429.425s-4.837,4.664-4.475,4.818,6.474,3.707,6.474,3.707Z" transform="matrix(-1, 0, 0, 1, 380, 0)" /><path class="cls-3" d="M226.917,429.422c.348.108,1.1,3.358,1.566,4.569l.3.817.146.42.072.212.087.282c.284.982.583,2.076.887,3.22l.114.431.057.218c0,.014.016.046.007.045l-.044-.023-.088-.048-.716-.383-1.473-.8L226.4,437.6l-.774-.41-1.585-.871-1.986-1.163-.5-.609-.062-.074-.008-.01,0,0c.125-.029.034-.01.061-.017l0,0-.015-.022-.031-.044c-.06-.06-.024-.122-.033-.182a1.3,1.3,0,0,1,.087-.372,3.216,3.216,0,0,1,.533-.76c.1-.124.215-.236.321-.352l.21-.213c.491-.478.975-.906,1.448-1.3a25.847,25.847,0,0,1,2.65-1.968,8.839,8.839,0,0,1-2.166,3.95,6.732,6.732,0,0,1-.938.67.789.789,0,0,0-.237.171c-.008.069.065.11.117.175a1.122,1.122,0,0,0,.115.116l.41.277.808.527c.533.34,1.057.658,1.57.959l.74.425.459.252.416.216c.1.03.336.238.212-.025-.206-.717-.291-.882-.578-2.006-.236-.908-.436-1.768-.571-2.591A16.28,16.28,0,0,1,226.917,429.422Z" transform="matrix(-1, 0, 0, 1, 380, 0)" /><path class="cls-3" d="M220.725,436.343c.289.279,6.2,3.417,6.2,3.417l-7.812,2.106Z" transform="matrix(-1, 0, 0, 1, 380, 0)" /><path class="cls-3" d="M220.74,436.347a4.435,4.435,0,0,1-.232,1.832c-.105.456-.216.941-.318,1.385-.047.223-.093.435-.134.628a1.166,1.166,0,0,0-.029.311,2.275,2.275,0,0,0,.052.415c.2-.1.345-.179.445-.24l.069-.042a.161.161,0,0,1,.036-.021l.158-.053.634-.209,2.522-.79.291-.091,0-.01a.023.023,0,0,0-.007-.01s-.005,0,.022,0,.066-.007.052-.057a.213.213,0,0,0-.021-.045l-.391-.25-.771-.51c-.5-.339-.964-.675-1.392-1.007a11.647,11.647,0,0,1-1.2-1.038c.424.061.757.009,1.173.058a9.967,9.967,0,0,1,1.2.177,4.757,4.757,0,0,1,1.756.653,21.524,21.524,0,0,0,1.925,1.336l1.784,1.151a97.508,97.508,0,0,0-10.017,2.692l.663-2.39.248-.808.242-.692A13.845,13.845,0,0,1,220.74,436.347Z" transform="matrix(-1, 0, 0, 1, 380, 0)" /><path class="cls-3" d="M223.251,428.926s-6.044,1.452-5.79,1.189-.336-2.531-.336-2.531Z" transform="matrix(-1, 0, 0, 1, 380, 0)" /><path class="cls-3" d="M223.248,428.941c-.185.281-2.294-.194-3.146-.2-.514,0-1.045-.036-1.583-.09-.2.021-.22.054-.238.093a.992.992,0,0,0,.118.168c.026.131.017.054.024.077h.009l.011,0s0,0,0,0c-.083.025.342-.047.633-.091l.908-.123a17.269,17.269,0,0,1,3.2-.129,4.026,4.026,0,0,1-2.46,1.868c-.556-.024-1.09-.022-1.6,0-.221,0-.574.038-.953.074a1.94,1.94,0,0,1-.9-.071.375.375,0,0,1-.087-.044c-.018-.023,0-.041,0-.061a.442.442,0,0,0-.025-.162,1.029,1.029,0,0,1-.061-.452,1.3,1.3,0,0,0-.007-.5l-.027-.195-.04-.229c-.109-.6-.275-1.2-.44-1.8l2.946.5a13.6,13.6,0,0,1,2.018.463A7.355,7.355,0,0,1,223.248,428.941Z" transform="matrix(-1, 0, 0, 1, 380, 0)" /><polygon class="cls-3" points="211.151 429.13 207.262 432.674 204.323 433.292 211.151 429.13" transform="matrix(-1, 0, 0, 1, 380, 0)" /><path class="cls-3" d="M211.159,429.143c.051.336-1.983,1.562-2.671,2.192a32.3,32.3,0,0,1-3.675,2.76l-.683-1.723.548-.142c.409-.105.818-.2,1.217-.29l.592-.123.289-.055c.031,0,.011,0,.021,0a4.025,4.025,0,0,0,.386-.309l.579-.462c.383-.3.761-.575,1.129-.83a16.774,16.774,0,0,1,2.068-1.246,4.711,4.711,0,0,1-1.435,3.016c-.348.188-.681.382-1,.576l-.459.291-.227.152-.315.238-.942.11-.76.1c-.5.075-.97.165-1.423.261l-.278-.7c1.992-1.22,3.51-2.473,5.017-3.2A8.672,8.672,0,0,1,211.159,429.143Z" transform="matrix(-1, 0, 0, 1, 380, 0)" /><path class="cls-1" d="M210.438,431.421l4.119-3.886a20.213,20.213,0,0,1,.108,2.38C214.57,429.889,210.438,431.421,210.438,431.421Z" transform="matrix(-1, 0, 0, 1, 380, 0)" /><path class="cls-1" d="M210.433,431.407c-.014-.331,1.71-.953,2.315-1.361a9.729,9.729,0,0,1,.846-.511l.458-.234.256-.114.072-.03a1.091,1.091,0,0,1,.436-.033l.059.01h.007c.05-.167-.41,1.464-.215.772v0l-.007,0c-.009,0-.053-.034-.083-.035a3,3,0,0,0-.321-.052l-.386-.039s0,0,0-.006c-.067-.172-.112-.141-.147-.1-.037.061-.029.079-.031.056a.043.043,0,0,0-.009-.012l-.01-.006s.007-.018-.065.043q-.309.252-.617.483a11.75,11.75,0,0,1-2.354,1.4,3.234,3.234,0,0,1,.868-2.555c.216-.1.424-.209.624-.32a4.452,4.452,0,0,0,.664-.419c.555-.4,1.008-.757,1.41-1.067.2-.163.393-.322.584-.477l.07-.061c.011-.007.026-.026.033-.023l0,.053.012.209.026.4c.045.51.088,1,.13,1.483q.032.369.062.728a2.123,2.123,0,0,1,0,.377l-.009.05a.586.586,0,0,1-.053.133.49.49,0,0,1-.34.222.464.464,0,0,1-.124,0c-.15.374.082-.536.06-.421l-.022.082a1.275,1.275,0,0,0-.035.337c.047.043.16-.006.107.015l-.1.04-.875.371a10.217,10.217,0,0,1-1.639.57A5.614,5.614,0,0,1,210.433,431.407Z" transform="matrix(-1, 0, 0, 1, 380, 0)" /><polygon class="cls-1" points="200.864 438.85 201.202 435.487 204.789 434.79 200.864 438.85" transform="matrix(-1, 0, 0, 1, 380, 0)" /><path class="cls-1" d="M200.853,438.839c-.077-.146.208-.549.559-1l.538-.677a2.123,2.123,0,0,0,.344-.51c.116-.459-.026-.459-.146-.433a.4.4,0,0,0-.13.089c-.061.066.2,0,.052-.033a.076.076,0,0,0-.045.012l-.029.021-.05.212c-.071.3-.149.594-.233.871a9.971,9.971,0,0,1-.566,1.483,3.279,3.279,0,0,1-1.015-2.525,2.093,2.093,0,0,0,.106-.273l.117-.443c.071-.263.137-.511.2-.741a32.869,32.869,0,0,0,5.389-.731q-1.04,1.174-1.934,2.186c-.328.368-.666.737-1,1.086a7.251,7.251,0,0,1-.669.62A5.617,5.617,0,0,1,200.853,438.839Z" transform="matrix(-1, 0, 0, 1, 380, 0)" /><polygon class="cls-1" points="220.473 433.564 219.164 431.7 222.679 430.968 220.473 433.564" transform="matrix(-1, 0, 0, 1, 380, 0)" /><path class="cls-1" d="M220.461,433.554c-.171-.284.491-1.043.36-1.167a.549.549,0,0,0-.315-.128c-.1.092-.008.111.134.12a.977.977,0,0,0,.2-.01c.039,0,.013,0,.018,0a.3.3,0,0,0-.132-.051c-.073-.008-.149.026-.182.165a.579.579,0,0,0-.017.123l.076.272a5.19,5.19,0,0,1,.107.524,3.081,3.081,0,0,1-.713-.03,1.363,1.363,0,0,1-.716-.272,3.9,3.9,0,0,1-1.183-1.22c-.1-.275-.177-.511-.23-.691a28.29,28.29,0,0,0,3.323-.313c.888-.151,1.718-.36,2.671-.606a16.333,16.333,0,0,1-1.914,2.35,4.508,4.508,0,0,1-.876.662A2.521,2.521,0,0,1,220.461,433.554Z" transform="matrix(-1, 0, 0, 1, 380, 0)" /><polygon class="cls-3" points="203.728 437.976 206.111 443.331 199.271 451.968 207.674 444.842 213.106 447.044 210.723 441.689 217.563 433.052 209.16 440.178 203.728 437.976" transform="matrix(-1, 0, 0, 1, 380, 0)" /><path class="cls-3" d="M203.734,437.962a9.013,9.013,0,0,1,1.837.548l3.532,1.315c1.991-1.738,4.165-3.637,5.957-5.2l1.324-.921a8.317,8.317,0,0,1,1.22-.695,2.517,2.517,0,0,0-.206,1.472l-5.663,7.336.025.042a.994.994,0,0,1,.068.141l.308.667.615,1.336c.729,1.61,1.456,3.214,2.173,4.8l-3.232-1.289-3.833-1.521c-2.743,2.32-5.4,4.567-7.893,6.68a1.982,1.982,0,0,0-.758-.638,1.791,1.791,0,0,1,.059-1.35l3.72-4.537,1.527-1.837.694-.827c.13-.149.144-.149.227-.237-.021-.1-.319-.826-.5-1.288-.195-.5-.378-.973-.552-1.419-.334-.894-.632-1.689-.916-2.447.477.63,1.006,1.407,1.552,2.261l.827,1.332.414.693.1.175.149.28.31.588-.384.554-.178.259-.029.069a1.717,1.717,0,0,0-.072.212c-.027.11-.015.161.011.181.054.039.166-.043.146-.014l-.1.092c-.406.376-1,1-1.631,1.7-.242.312-.04.227.311,0,.283-.2.647-.473,1.049-.785l.624-.49,1.028-.842,4.774,1.978c-.741-1.64-1.454-3.219-2.125-4.7l1.392-1.81.911-1.209,1.211-1.624c-.728.637-1.3,1.13-1.814,1.557-.4.333-.778.633-1.19.949-.166.134-.35.272-.55.415l-.314.221-.658.5-1.136-.518-.875-.417-1.563-.762Z" transform="matrix(-1, 0, 0, 1, 380, 0)" /><polygon class="cls-3" points="210.646 435.514 207.312 441.442 201.5 444.972 206.261 444.74 206.189 449.506 209.522 443.579 215.334 440.048 210.573 440.281 210.646 435.514" transform="matrix(-1, 0, 0, 1, 380, 0)" /><path class="cls-3" d="M210.661,435.514a5.516,5.516,0,0,1,.174,1.582c.019.779.044,1.793.069,2.842l.486-.042.736-.055,2.011-.137a9.836,9.836,0,0,1,1.311.309l-.07.1a3.153,3.153,0,0,0-.4.857l-4.859,3.184a.43.43,0,0,1-.033.077l-.137.262-.278.528-.566,1.066c-.676,1.236-1.358,2.483-2.035,3.718a6.669,6.669,0,0,1-.94-.074c-.191-.073-.377-.135-.565-.19l-.35-.095c.01-1,.02-1.992.03-2.976l.008-.68h-.018l-.75.036-2.916.134c-.1-.333-.188-.636-.294-.919a4.68,4.68,0,0,1-.125-.937l2.193-1.292,1.023-.6.556-.313,1.025-.567.5-.27.244-.132.074-.028c.7-1.091,1.33-2.075,1.907-2.977.619-.942,1.192-1.785,1.732-2.554a23.016,23.016,0,0,1-.925,3.231c-.206.582-.429,1.168-.657,1.727l-.343.815c-.13.292-.17.413-.461.97l-1.155.767a8.24,8.24,0,0,1-.743.429l-.672.334c-.154.081-.1.039-.139.049l-.066.006a2.415,2.415,0,0,0-.4.12c-.25.1-.572.246-.9.4a3.547,3.547,0,0,0,.551.069l.559.025.08,0,.15,0,.5-.014.936-.027c-.03.876-.059,1.731-.085,2.491-.009.432-.019.856-.028,1.233.209-.376.414-.745.6-1.076l1.991-3.677,2.205-1.393,1.072-.7.71-.451-.855.033-.678-.006c-.515.019-1.09.029-1.53.025.084-1.654.2-2.477.305-3.4C210.518,436.482,210.618,435.778,210.661,435.514Z" transform="matrix(-1, 0, 0, 1, 380, 0)" /><polygon class="cls-1" points="214.94 438.402 218.269 434.753 218.309 439.027 214.94 438.402" transform="matrix(-1, 0, 0, 1, 380, 0)" /><path class="cls-1" d="M214.943,438.387c.079-.145.571-.13,1.136-.085a5.544,5.544,0,0,0,1.348.056,1.021,1.021,0,0,0,.22-.119,3.44,3.44,0,0,0-.122-.324l-.047-.092-.042-.4c-.013-.192-.023-.115-.033-.152a.1.1,0,0,0-.028-.025.037.037,0,0,0-.048.006.154.154,0,0,0-.034.051.107.107,0,0,0,0-.066.061.061,0,0,0-.044-.037.2.2,0,0,0-.047,0c-.014.006-.008-.01-.041.015l-.123.1a11.232,11.232,0,0,1-1.889,1.279,3.263,3.263,0,0,1,.693-2.632c1.4-1.108,2.161-1.709,2.868-2.365-.068,1.376-.059,2.332-.021,3.331.054.973.1,1.888.151,2.733-.482-.07-.967-.147-1.435-.234l-.347-.068-.233-.052c-.142-.035-.281-.073-.417-.115A5.61,5.61,0,0,1,214.943,438.387Z" transform="matrix(-1, 0, 0, 1, 380, 0)" /><polygon class="cls-1" points="205.152 436.606 207.578 437.693 209.85 432.908 205.152 436.606" transform="matrix(-1, 0, 0, 1, 380, 0)" /><path class="cls-1" d="M205.143,436.594c-.053-.158.323-.549.774-.979l.348-.327.479-.431c.323-.291.635-.578.881-.829.36-.368.771-.761,1.253-1.2a1.2,1.2,0,0,1,1.1-.077,1.942,1.942,0,0,0,.459.4l.308.193c-.911,1.974-1.941,4.014-2.759,5.452a15.642,15.642,0,0,1-1.971-1.137,10.771,10.771,0,0,1-.978-.793,4.358,4.358,0,0,1,1.694-.332c.115-.011.335.032.321-.02a.183.183,0,0,0,.043-.087c.008-.048-.01-.066.011-.017l0,0c.178.388.71-.36,1.062-.948a8.059,8.059,0,0,0,.585-1.184c-.442.384-.849.775-1.131,1.043a2.866,2.866,0,0,1-.795.609A6.812,6.812,0,0,1,205.143,436.594Z" transform="matrix(-1, 0, 0, 1, 380, 0)" /><polygon class="cls-4" points="254.848 438.22 261.03 426.172 259.039 439.566 271.087 445.748 257.693 443.757 251.511 455.805 253.502 442.411 241.454 436.229 254.848 438.22" transform="matrix(-1, 0, 0, 1, 380, 0)" /><path class="cls-5" d="M254.845,438.239a18.672,18.672,0,0,1-3.158-.232l-5.286-.645-2.317-.288,2.407,1.17,3.487,1.648,1.912.9,2.46,1.186c-.216,1.732-.437,3.5-.66,5.29l-.133,1.079-.02.305-.026.485c-.008.208-.01.36-.007.467l.322-.737.134-.321.049-.124.468-.938,2.538-5.043,3.707.526,2.911.408c.015,0,.013-.01.008-.014s-.016-.007-.011,0a.083.083,0,0,0,.028,0c.006,0,.008-.005,0-.014l-.015-.017-.932-.489q-2.523-1.324-4.967-2.607.477-2.933.932-5.73l.1-.6.043-.254.013-.045.055-.2.136-.55c.111-.5.212-.961.311-1.408-.118.149-.265.349-.459.633l-.5.773-.309.492q-.306.54-.6,1.066-1.206,2.094-2.292,3.978c.37-1.236.875-2.7,1.457-4.265.148-.392.3-.79.45-1.191q.357-.843.72-1.7c.538-1.237,1.17-2.644,1.867-4.161a2.48,2.48,0,0,1,1.419-1.065,1.948,1.948,0,0,0,1.169.428c-.328,2.438-.66,4.673-.932,6.25l-.258,1.47-.159.815q-.158.811-.313,1.612c-.1.533-.2,1.061-.3,1.583l-.075.39c-.023.119-.055.3-.058.285l-.058.184.118.086.078.053.27.151,1.077.6,2.134,1.181,6.02,3.229a13.13,13.13,0,0,0,1.385,1.457c-.754.09-1.56.147-2.357.185l-10.856-1.672q-2.568,5.048-4.952,9.73c-.523.663-1.035,1.29-1.532,1.87q-.1-1.175-.258-2.209L252.75,442.8l-3.975-2.015-6.079-3.134c-.418-.48-.839-.951-1.313-1.422l-.029-.029a13.825,13.825,0,0,1,2.374-.179l4.325.79,1.715.338,1.369.287Z" transform="matrix(-1, 0, 0, 1, 380, 0)" /><polygon class="cls-4" points="192.236 444.524 197.235 434.78 195.625 445.613 205.369 450.612 194.536 449.002 189.537 458.746 191.147 447.913 181.403 442.914 192.236 444.524" transform="matrix(-1, 0, 0, 1, 380, 0)" /><path class="cls-5" d="M192.233,444.543a10.627,10.627,0,0,1-2.3-.116l-3.621-.4-2.276-.267,2.456,1.178c.837.395,1.515.7,1.971.887.073.023.435.194.665.3l.782.36.8.374,1.283.622q-.138,1.126-.277,2.274-.088.776-.177,1.561c-.01.267-.019.537-.028.808a3.318,3.318,0,0,0,.017.421l.327-.771c.054-.14.108-.277.16-.414q.933-1.859,1.841-3.674l3.163.445.591.082.294.04h.007a.109.109,0,0,0,.019-.008c.007,0,.005-.01,0-.014a.034.034,0,1,1,.022,0c.012,0,.015-.013-.014-.042l-3.606-1.9q.216-1.335.426-2.642l.151-.889.075-.44a.364.364,0,0,1,.024-.093c.049-.154.113-.379.192-.693.122-.526.235-1.009.344-1.477a4.2,4.2,0,0,0-.444.533c-.221.308-.506.731-.858,1.278l-1.685,2.836c.239-.935.564-2.01.96-3.184.493-1.361,1.3-3.3,2.314-5.582.558-.876,1.042-1.232,1.457-1.309a2.072,2.072,0,0,0,1.2.372c-.2,1.4-.39,2.671-.567,3.666q-.237,1.337-.473,2.659-.112.632-.224,1.258l-.133.659-.258,1.278-.063.316a.432.432,0,0,1-.03.095l-.053.152.175.135.783.445.782.442.991.547,4.727,2.558a9.4,9.4,0,0,0,1.32,1.446c-.755.09-1.575.139-2.387.171l-8.264-1.277-3.767,7.406c-.526.675-1.039,1.311-1.535,1.89q-.1-1.182-.272-2.182.6-4.335,1.158-8.35l-2.984-1.507-4.785-2.463c-.419-.483-.826-.954-1.3-1.425l-.023-.023a11.226,11.226,0,0,1,2.489-.121c2.293.428,4.508.868,5.769,1.155Z" transform="matrix(-1, 0, 0, 1, 380, 0)" /><polygon class="cls-4" points="203.523 404.875 208.523 395.131 206.912 405.964 216.656 410.963 205.824 409.353 200.824 419.097 202.434 408.264 192.691 403.265 203.523 404.875" transform="matrix(-1, 0, 0, 1, 380, 0)" /><path class="cls-5" d="M203.52,404.894a10.69,10.69,0,0,1-2.3-.116l-3.622-.4-2.276-.268,2.457,1.179c.837.395,1.514.7,1.97.887.074.023.436.194.666.3l.781.36.806.374,1.282.622q-.137,1.126-.277,2.274c-.058.517-.118,1.038-.177,1.561-.009.267-.018.537-.027.808a3.386,3.386,0,0,0,.016.421l.327-.771c.054-.14.108-.278.161-.414l1.841-3.674,3.162.445.591.082.294.04h.008l.019-.008c.007,0,0-.01,0-.014a.116.116,0,0,0-.02-.01.121.121,0,0,0,.042.006c.012,0,.014-.013-.014-.042l-3.606-1.9q.215-1.335.426-2.643l.15-.888.075-.44a.4.4,0,0,1,.024-.094c.05-.154.113-.378.193-.693.122-.525.234-1.008.344-1.477a4.2,4.2,0,0,0-.445.534c-.221.308-.5.73-.858,1.277-.59,1-1.15,1.937-1.685,2.837.239-.935.565-2.01.961-3.184.492-1.361,1.3-3.3,2.313-5.583.558-.875,1.042-1.231,1.457-1.309a2.069,2.069,0,0,0,1.2.373c-.195,1.4-.391,2.671-.568,3.666q-.237,1.337-.472,2.659-.113.632-.224,1.258l-.134.659q-.13.647-.257,1.278l-.063.315a.449.449,0,0,1-.03.095l-.054.153.176.135.783.445.781.442.992.547,4.726,2.557a9.411,9.411,0,0,0,1.32,1.447c-.755.09-1.574.139-2.386.171l-8.265-1.277-3.766,7.406c-.527.676-1.04,1.311-1.536,1.89q-.1-1.182-.272-2.182.6-4.336,1.158-8.351-1.522-.768-2.984-1.506l-4.785-2.463c-.419-.483-.826-.954-1.3-1.425l-.023-.024a11.3,11.3,0,0,1,2.489-.12c2.293.428,4.507.867,5.769,1.155Z" transform="matrix(-1, 0, 0, 1, 380, 0)" /><g id="cane_gold" transform="matrix(-1, 0, 0, 1, 380, 0)"><path class="cls-6 color-body" d="M256.722,461.731c-3.964-7.757-16.078-9.5-27.057-3.887s-20.07,14.344-18.4,22.946c1.454,7.488,10.912,15.374,26.806,10.66C254.368,486.618,260.686,469.488,256.722,461.731Z" style="fill:#ffffff;--backup-fill:#ffffff" /><path d="M256.776,461.7c.347.1,1.3,1.35,1.758,3.541a17.878,17.878,0,0,1-.444,8.162,28.4,28.4,0,0,1-3.979,8.553q-.318.477-.628.941c-.221.3-.458.578-.681.861-.458.555-.868,1.123-1.316,1.612-.931.94-1.692,1.884-2.462,2.526a27.028,27.028,0,0,1-9.311,5.911,33.056,33.056,0,0,1-11.363,2.316,25.8,25.8,0,0,1-6.11-.618,22.183,22.183,0,0,1-5.9-2.319,18.545,18.545,0,0,1-8.372-9.768,15.6,15.6,0,0,1-.782-5.943,16.906,16.906,0,0,1,1.422-5.565,26.1,26.1,0,0,1,5.985-8.3,44.667,44.667,0,0,1,7.385-5.7c1.279-.8,2.577-1.52,3.872-2.206l1.958-.96c.666-.311,1.386-.6,2.07-.888a28.358,28.358,0,0,1,16.749-1.538,17.868,17.868,0,0,1,7,3.3,12.854,12.854,0,0,1,4.113,5.593,15.789,15.789,0,0,0-5.788-3.066,18.937,18.937,0,0,0-6.539-.558c-4.289.341-7.964,1.735-10.031,2.105a37.6,37.6,0,0,0-12.037,4.989c-3.626,2.3-6.9,5.077-8.883,8.415a11.748,11.748,0,0,0-1.741,5.2,9.632,9.632,0,0,0,1.11,5.1,13.11,13.11,0,0,0,3.328,4.079,16.994,16.994,0,0,0,4.535,2.524c6.572,2.24,13.666.621,19.125-1.858a26.541,26.541,0,0,0,7.2-4.971,31.507,31.507,0,0,0,8.7-14.7,15.369,15.369,0,0,0,.368-2.207c.032-.356.062-.7.092-1.031s-.022-.64-.028-.941-.025-.591-.037-.856c-.028-.263-.1-.5-.134-.715Z" /></g></svg>