<svg xmlns="http://www.w3.org/2000/svg" id="uniforms_1" viewBox="0 0 380 600"><defs transform="matrix(-1, 0, 0, 1, 380, 0)"><style>.cls-1{fill:blue;}.cls-2{fill:#00cc78;}.cls-3{opacity:0.5;}.cls-4{fill:#fffffe;}</style></defs><path class="cls-1 color-hair" d="M272.75,195.77C215.35,154.53,100.64,163.51,87,253.34c8.63-16.46,13.07-2.79,17.3-28a23,23,0,0,1,14.06,3.53c2.39-3.85,3.88-8.56,6.81-11.95,5.78.3,11,5.27,14.77,9.42,2.3-2.11,3.93-5.53,6.76-6.84,5.84,3.08,9.79,9.71,13,15.39a113.32,113.32,0,0,1,31.58-12.06,18.54,18.54,0,0,0-4.87,9.51,131.37,131.37,0,0,1,32.16-2.09l-5.38,8.59a29.64,29.64,0,0,1,21.7,7.26,9.37,9.37,0,0,1-3.56,3.51c9.36,5.53,17.61,14.82,18,26.25a49.34,49.34,0,0,0,2.78-26.79,19.52,19.52,0,0,1,10.08,8.12c.83-8.85-2.3-17.53-5.39-25.86,9.27-8.25,22.66-13.08,35.48-11.19" transform="matrix(-1, 0, 0, 1, 380, 0)"></path><path d="M292.31,220.24a17.2,17.2,0,0,1-2.31,0c-1.15,0-2.69,0-4.53.1a46.54,46.54,0,0,0-14.13,3.25,48.14,48.14,0,0,0-8.3,4.36L261,229.38c-.34.26-.68.52-1,.79s-.55.42-.81.64l-.73.64-.18.16c-.05.06-.16.1-.09.18l.18.47.77,2a89.64,89.64,0,0,1,3.43,11,39.79,39.79,0,0,1,1,12.08l-.33,4-2.13-3.38a17.67,17.67,0,0,0-2.06-2.66l-.28-.3-.21-.21-.44-.41c-.29-.26-.6-.5-.92-.74a11.76,11.76,0,0,0-2-1.18,9.38,9.38,0,0,0-1.05-.44l-.27-.1c-.07,0,0,.06,0,.09l0,.15.1.58c.17,1.11.3,2.21.36,3.29,0,.27,0,.53,0,.81s0,.86,0,1.28c0,.88,0,1.75-.07,2.61a49.46,49.46,0,0,1-.81,6.54,52.37,52.37,0,0,1-1.53,5.94c-.74.78-1.37,1.54-1.95,2.27l-.43.54-.21.26,0-.3a5.81,5.81,0,0,0-.18-1.17,6.23,6.23,0,0,0-2.68-3.69c-.12-.51-.23-1-.35-1.53l-.17-.76a3.35,3.35,0,0,0-.09-.37l-.11-.26c-.3-.71-.61-1.42-.9-2.11a7,7,0,0,0-.48-1c-.17-.31-.34-.61-.52-.89l-.39-.63a6.33,6.33,0,0,0-.36-.54c-.51-.69-1-1.37-1.5-2s-1-1.22-1.54-1.77a41.53,41.53,0,0,0-4.87-4.38l-1.47-1.07c-.73-.52-1.54-1-2.32-1.49s-1.58-1-2.38-1.47l-1.21-.73c-.08-.06-.24-.13-.26-.18l-.09-.15a3.36,3.36,0,0,0-.27-.36c1.18-.72,2.49-1.56,3.65-2.35a5.68,5.68,0,0,0,1.43-1.23c.09-.11.19-.23.27-.35l.11-.17.2-.35.48,2.91a27.16,27.16,0,0,0-9.11-5.06c-.84-.27-1.69-.51-2.55-.7-.43-.11-.87-.16-1.3-.25-.21,0-.43-.08-.65-.11l-.82-.11a32.29,32.29,0,0,0-5.16-.1c-1.82.08-3.74.18-5.48.29a11.11,11.11,0,0,1,1.29-2.3l1.73-2.8.87-1.4.21-.35.11-.18.06-.08-.17.25-.65,1-.3.47,0-.07.68-1.11.68-1.11,1.42-2.29.24-.38v0l0,0,0,.07-.1.14c-.26.38-.52.81-.79,1.18-.55,0-1.07,0-1.56,0h-1.42c-.87,0-1.75,0-2.62.07A130.37,130.37,0,0,0,187,235.53l-4.58.91.82-4.63a23.79,23.79,0,0,1,.54-2.33c.07-.23.09-.31.14-.44a3.82,3.82,0,0,1,.32-.64l.21-.27.05-.06-.1,0-.19.05-.72.22-.89.3q-1.95.63-3.87,1.32-3.84,1.41-7.56,3.07c-1.25.56-2.47,1.14-3.69,1.74-.61.29-1.21.61-1.82.92l-.45.23-.66.35-1.57.85L159.66,239l-.87.48a2.05,2.05,0,0,1-.42.21l-.25-.43-1-1.71-2-3.43-.45-.75-.26-.43-.54-.84a38.21,38.21,0,0,0-4.62-6c-.43-.43-.85-.85-1.29-1.22a10.55,10.55,0,0,0-.94-.75l-.15-.09s-.1,0-.14.08l-.06.06-.15.17c-.42.49-.56.66-1.57,1.94a48.23,48.23,0,0,1-5.21,5.43c-1-1.11-2-2.22-3.06-3.31-.51-.54-1-1.12-1.49-1.56s-1-1-1.19-1.16a30.94,30.94,0,0,0-3.06-2.49,16.55,16.55,0,0,0-3.08-1.73l-.76-.27-.18-.06h0s0,0,0,0h-.1l-.17.29c-.43.7-.84,1.44-1.24,2.23s-.8,1.64-1.2,2.44l-.81,1.65c-.34.69-.81,1.57-1.23,2.31l-2.5,4.22-4.33-2.62c-.37-.21-.72-.35-1.07-.54s-.8-.39-.87-.4c-.31-.13-.63-.26-1-.36a18.62,18.62,0,0,0-4-.94l-.87-.1h0s0,0,0,.05l-.12.64,0,.32,0,.21-.15.63-.57,2.51c-.19.84-.49,1.71-.73,2.56a23.48,23.48,0,0,1-.93,2.61,19.57,19.57,0,0,1-1.31,2.7,12.41,12.41,0,0,1-.94,1.37c-.17.23-.33.46-.51.68l-.62.63a9.07,9.07,0,0,1-1.3,1.14,12.44,12.44,0,0,1-1.31.9l-1.53.93a8.89,8.89,0,0,0-2,1.47l-1,1-.52.49-.13.13-.17.26-.33.52-2.7,4.14L86.78,254,83,252.74l.36-1.88.18-.93.21-.87.83-3.45c.56-2.29,1.12-4.59,1.67-6.87L86.7,237l.2-.84.18-.49.73-2,1.45-3.93c.44-1.33,1.12-2.56,1.68-3.83s1.19-2.52,1.78-3.78c1.29-2.46,2.75-4.83,4.12-7.23a90.61,90.61,0,0,1,22.27-23.74,105.64,105.64,0,0,1,27.72-14.63A128.83,128.83,0,0,1,176,170a150,150,0,0,1,54.66,4.38c2.06.61,4.13,1.14,6.14,1.8l5.94,2,5.71,2.3c.95.36,1.86.8,2.77,1.23L254,183a116.69,116.69,0,0,1,19.45,11.82,139.14,139.14,0,0,0-25.55-11.3,160.14,160.14,0,0,0-31.27-6.72,164.26,164.26,0,0,0-29.89-.63,197.83,197.83,0,0,0-21.56,2.86,111.09,111.09,0,0,0-26.69,8.39,90.5,90.5,0,0,0-22.71,14.9A81.29,81.29,0,0,0,99.29,223l-.83,1.4-.71,1.48c-.47,1-1,2-1.42,2.93l-.7,1.46-.36.74-.29.75-1.15,3c-.38,1-.77,2-1.15,3a3.71,3.71,0,0,0-.18.55l-.14.46-.28.92-.55,1.88-.28,1-.19.86q-.28,1.37-.57,2.7l-.15.68-.07.34.15-.25c.2-.36.41-.71.61-1.06A11.82,11.82,0,0,1,93.42,243a11.6,11.6,0,0,1,1.15-.78l1.52-.88a7.88,7.88,0,0,0,2.83-2.93,34.24,34.24,0,0,0,2.91-8.77c.08-.33.2-.95.3-1.43l.31-1.53.31-1.53.15-.76L103,224l0-.19h.21c1.12-.06,2.21-.12,3.33-.1.55,0,1.15.06,1.65.09s.85.09,1.27.16a24.06,24.06,0,0,1,5,1.26c.4.14.79.31,1.18.47l.72.32a14.07,14.07,0,0,1,1.26.71l.12.07.07-.11.14-.23.27-.48.51-1,1.43-2.9c.53-1.06,1.08-2.13,1.71-3.16l.51-.82.67-1c.47-.62,1-1.22,1.45-1.82.5,0,1,.09,1.53.14l1.52.26a15.6,15.6,0,0,1,2.56.85,21.71,21.71,0,0,1,4.15,2.4,36.64,36.64,0,0,1,3.54,2.95c.45.43.75.73,1.06,1.05l.91,1s.08.1.12.11L140,224l.24-.24c.15-.16.3-.33.44-.51.29-.34.57-.69.84-1l.61-.75a11.85,11.85,0,0,1,.8-.91,10.47,10.47,0,0,1,2.26-1.91c.41-.25.83-.48,1.26-.71l.17-.08s.1,0,.16.06l.32.16.64.32a12.66,12.66,0,0,1,1.26.75,11.21,11.21,0,0,1,1.22.86,25.67,25.67,0,0,1,3.37,3.11,47.78,47.78,0,0,1,5.2,7.1l.82,1.34.63,1.08.08.14s.09,0,.13,0l.27-.16.55-.31,1.23-.66,1.78-.91,1.9-.93c1.27-.61,2.55-1.2,3.83-1.75q3.84-1.68,7.76-3.06l2-.67,1-.32,1.09-.35c.93-.29,1.85-.55,2.77-.8s1.85-.52,2.75-.74c1.83-.46,3.62-.89,5.47-1.32,2.74-.82,1.31.13,2.81.25-1.16,1.33-2.32,2.68-3.33,3.91a28.41,28.41,0,0,0-2.46,3.28,15.06,15.06,0,0,0-1.16,2.77,16.15,16.15,0,0,0-.41,1.77l-2.14-2.12a133.46,133.46,0,0,1,22-2.44l2.72-.05h1.64l2,0c1.33,0,2.63.08,3.93.14l2,.08,1,0,.49,0H222c.07,0,0,0,0,.09l-.09.15q-1.41,2.3-2.8,4.59l-.35.58-.09.14,0,.07,0,0h0l0-.05.54-.86.23-.37,0,.07-.09.14-.17.28-.69,1.11-.69,1.11-1.09,1.75,0,0,0-.07.09-.14c.05,0,0-.11.28-.11a13.78,13.78,0,0,1,2.81.08l.66.1c.26,0,.51.08.76.13.51.11,1,.19,1.52.32,1,.24,2,.53,3,.86a31.59,31.59,0,0,1,10.56,6.07l1.34,1.18-.89,1.54-.35.58-.27.38a4,4,0,0,1-1.05,1l-.15.1-.08,0s-.05,0,0,0l.3.19c.2.12.41.24.6.38l.59.39.93.69a44,44,0,0,1,4.9,4.35,37,37,0,0,1,4.12,5.06c.32.44.61.91.89,1.38.13.23.25.4.35.6.21.4.41.8.58,1.22a11.29,11.29,0,0,1,.77,2.8c0,.32.06.64.09,1v.12s0,.12,0,.05l.08-.22.17-.43c.21-.59.41-1.17.57-1.77s.36-1.47.49-2.22c.07-.38.11-.75.16-1.14l.07-.65,0-.36,0-.6c.06-.8.07-1.6.09-2.39,0-.2,0-.4,0-.6v-.78c0-.63,0-1.28-.1-1.93s-.09-1.28-.16-1.95l-.27-2-.57-4,.67-.25.08,0,.19.07.36.14.73.28c1,.38,1.85.77,2.74,1.17a20.8,20.8,0,0,1,5.24,3.3c.46.39.9.82,1.35,1.27.25.25.37.4.54.58s.33.37.48.56a21.7,21.7,0,0,1,1.86,2.6l-3.57.84c.64-5.52-.48-11.86-2.38-18.11l-.72-2.35-.8-2.43-1.05-3.1,0-.1s0,0,.07-.07l.16-.13.32-.26.64-.51,1.26-1,.64-.46.51-.37,1-.72,2.1-1.32c.72-.4,1.42-.81,2.13-1.19l2.14-1.06a46,46,0,0,1,16.06-4.18A40.51,40.51,0,0,1,292.31,220.24Z" transform="matrix(-1, 0, 0, 1, 380, 0)"></path><path class="cls-2 color-hairband" d="M225.87,169c-28.5-6.36-96.66-7.94-118.84,42.84,38.43-46.61,146.53-42.37,177.34,10.89,3.35-.34,8.37-.67,11.72.33C282,188.59,252.91,175,225.87,169Z" transform="matrix(-1, 0, 0, 1, 380, 0)"></path><path d="M225.88,169a87.91,87.91,0,0,1,12.19,2.89,108.81,108.81,0,0,1,23.83,10.28,83.69,83.69,0,0,1,22.68,19.59,68.1,68.1,0,0,1,4.16,5.7c.63,1,1.25,1.88,1.85,2.8s1.07,1.88,1.6,2.79a58.17,58.17,0,0,1,2.75,5.25l1.44,3.1c.27.58.53,1.14.78,1.7l.39.82.19.41c0,.11,0,.15,0,.23h0c-1-.26-2.23-.56-3.31-.77l-.81-.14-.77-.07-.37,0h-.25l-.49,0a39.25,39.25,0,0,0-4.05.1l-1,.08-1.12.1-1.59.16c-.17.08-.19-.14-.28-.23l-.23-.34-.46-.71c-.79-1.19-1.57-2.39-2.37-3.6s-1.7-2.19-2.55-3.3l-1.31-1.64-1.44-1.53c-1-1-1.89-2.09-2.93-3l-3.15-2.86a96.87,96.87,0,0,0-30-17c-2.71-1.08-5.55-1.83-8.33-2.74l-4.25-1.11-2.12-.55-2.15-.45-4.3-.89-4.32-.7-2.16-.35-2.18-.25-4.33-.5-4.35-.31-2.16-.15-2.17-.06-4.33-.12-4.3.06c-2.87,0-5.71.26-8.54.4-1.41.1-2.81.28-4.21.42s-2.81.26-4.18.5l-4.5.68c-1.5.24-3,.58-4.46.87l-2.22.44c-.74.16-1.47.36-2.2.54l-4.38,1.1a123.46,123.46,0,0,0-16.82,6.13,97,97,0,0,0-15.18,8.82,77,77,0,0,0-12.52,11.63l-3.3-2a69.15,69.15,0,0,1,25.1-29.95c10.64-7.15,22.44-11.28,33.84-13.65a142.62,142.62,0,0,1,33-2.68A144.15,144.15,0,0,1,226,168.42a170.14,170.14,0,0,0-20.58-1.68,177.31,177.31,0,0,0-23.81,1A142.61,142.61,0,0,0,159.69,172a120.41,120.41,0,0,0-15.27,5.45,73,73,0,0,0-21.84,14.27c-.39.37-.79.72-1.17,1.11L120.32,194c-.71.79-1.47,1.54-2.15,2.36-1.32,1.67-2.71,3.27-3.86,5a70.31,70.31,0,0,0-6.19,10.88l-2-1.24,2.71-2.95c.46-.49.89-1,1.36-1.46l1.46-1.34c1-.89,1.93-1.81,2.93-2.66l3.08-2.42c.52-.39,1-.82,1.55-1.19l1.62-1.08L124,195.8l3.33-1.92,1.66-1c.56-.3,1.14-.57,1.7-.85a118.72,118.72,0,0,1,28-9.87,153.3,153.3,0,0,1,55.17-1.57c17.43,2.69,33.73,8.28,47.33,17.05A78.38,78.38,0,0,1,279,213.22c1.17,1.54,2.43,3,3.5,4.58l1.55,2.41.66,1,.17.26,0,.06H285l.16,0,1-.09,1.4-.09c.94,0,1.88-.08,2.83-.08l1.42,0,.71,0,.37,0a6.9,6.9,0,0,1,1.19.21s.11,0,.1,0l0-.13-.12-.24-.22-.5c-.21-.47-.43-.94-.64-1.42-.34-.72-.64-1.46-1-2.16L291,215.05,289.92,213a22.17,22.17,0,0,0-1.17-2l-2.51-3.89a85.93,85.93,0,0,0-11.71-13.56c-.8-.78-1.73-1.49-2.63-2.29s-1.83-1.64-2.89-2.37l-3.15-2.36c-1.07-.81-2.24-1.5-3.38-2.28a98.63,98.63,0,0,0-14.66-7.85l-1.83-.82-1.82-.72c-1.21-.46-2.37-1-3.52-1.36-2.31-.78-4.44-1.59-6.4-2.14C230.37,170.09,227.35,169.38,225.88,169Z" transform="matrix(-1, 0, 0, 1, 380, 0)"></path><g class="cls-3" transform="matrix(-1, 0, 0, 1, 380, 0)"><path class="cls-4" d="M231.34,230a2.17,2.17,0,0,1-1.45-1.38,3,3,0,0,1,0-2,3.23,3.23,0,0,1,1.7-1.88l.08,1c-2-.42-4.56-1-7.38-1.59l-1.25-.28.85-1c.34-.4.52-.6.78-.88s.5-.5.77-.74a14.57,14.57,0,0,1,1.7-1.32l.48-.31.25-.15s0,0,0,0l-.07,0-.16,0-1.24-.27c-.82-.16-1.65-.3-2.48-.42l-1.23-.15c-.49,0-1.14-.12-1.71-.16-1.18-.09-2.37-.15-3.56-.16l-.47-2.11,4.62-2.42.54-.29.27-.14.07,0s0,0-.07,0l-.15-.06c-.41-.15-.82-.28-1.22-.41a19.2,19.2,0,0,0-4.6-.75,30.55,30.55,0,0,0-3.32,0,28.52,28.52,0,0,0-5.83,1l-1.18-2.9,2.36-1.44,9.68-5.9.88,3.76a57.47,57.47,0,0,0-26.46,5.48L189.39,208A61.39,61.39,0,0,1,205,194.79l1.91,5.34a60.28,60.28,0,0,0-26.67,11.36l-9.14,7.08,4.26-10.78a27.85,27.85,0,0,1,4.6-7.65,33.51,33.51,0,0,1,9.56-7.7l2.32,6.14a55.57,55.57,0,0,0-24.55,12.69l-8.5,7.84,3-11.13c.34-1.28.75-2.54,1.2-3.77.23-.62.47-1.22.73-1.83l.31-.72.06-.13.16-.18c.14-.14.05-.12,0-.12l-.15,0-.09,0-.05,0s0,0-.27.16a35.25,35.25,0,0,0-9.06,8.07L148.75,217l.59-9.35c.07-1,.17-2,.3-3l0-.33,0-.05,0-.11.07-.21a11.14,11.14,0,0,1,.36-1.06l.13-.3.06-.16s-.05,0-.07,0l-.38.19a8.75,8.75,0,0,0-.88.58c-.16.13-.31.24-.5.41l-.4.4-.53.57c-.41.45-.8.87-1.26,1.44-1.72,2.11-3.43,4.62-4.94,6.71l-.1-.17a1.32,1.32,0,0,1-.11-.29l-.28-1c-.18-.66-.37-1.31-.55-2q-.48-1.68-.93-3.33l-.22-1.05c-.09-.39-.17-.78-.26-1.16l0-.16s0-.14-.05-.08l-.19.15-.39.33c-.25.23-.51.49-.77.77l-.37.44-.19.23c-.05.06-.21.29-.3.43a24.53,24.53,0,0,0-2.23,4l-.52,1.18-1.13-.23a12.25,12.25,0,0,1-1.33-.36l-.3-.11-.15-.07a2.44,2.44,0,0,1-.28-.14,5,5,0,0,1-1-.7,5.3,5.3,0,0,1-.57-.59c-.09-.11-.17-.22-.25-.34l0,0v0l0,.08-.06.15a10.36,10.36,0,0,0-.36,1.29,11.83,11.83,0,0,0-.19,1.33,10.54,10.54,0,0,0,0,1.54,16.77,16.77,0,0,1-.39-1.68,12,12,0,0,1-.18-2,18.59,18.59,0,0,1,.14-2.49l0-.34,0-.17s0,0,.07.06a3.06,3.06,0,0,0,.3.32,1.25,1.25,0,0,0,.75.31,14.65,14.65,0,0,0,2.08,1.24,6.4,6.4,0,0,0,2.14.43l-.85.49a24.88,24.88,0,0,1,1.93-4.94l.16-.31.23-.4c.15-.26.32-.52.49-.79.33-.52.69-1.05,1.08-1.56.76-1,1.59-2,2.47-3l1.37-1.52.36-.39c.08-.12.08,0,.11.08l.09.2.35.79.71,1.63a16.7,16.7,0,0,1,.71,1.79l1.41,4.13-.3-1.36-.18-.74-.09-.39c0-.09,0-.08,0-.13.13-.26.25-.52.37-.77l.13-.29.06-.12,0-.06.07-.1.15-.21a1.38,1.38,0,0,1,.16-.21l.23-.26.25-.29c.12-.14.26-.29.41-.44l.85-.88c1.15-1.18,2.33-2.24,3.49-3.22,2.34-2,4.45-3.34,6.56-4.87l5.57-3.89c-1,2.84-2,5.48-2.88,7.91s-1.56,4.3-2,5.86l-.38,1.46-.3,1.41c-.14.76-.27,1.51-.4,2.26s-.24,1.67-.31,2.47l-5.47-2a39.07,39.07,0,0,1,5.27-5.33c.94-.79,1.92-1.53,2.91-2.23l1.5-1,.77-.48.38-.23.2-.13.31-.18a48.76,48.76,0,0,1,5-2.57c1.62-.71,3.1-1.23,4.55-1.73l4.37-1.47,1.13-.37.25-.08.07,0,.15.05.13,0,.26,0c.2,0,.31,0,.56,0-1.69,2.26-3.4,4.59-4.88,6.65a41,41,0,0,0-3.39,5.53l-.58,1.22-.36.8c-.23.52-.45,1.05-.66,1.58q-.61,1.59-1.08,3.18l-2.91-1.75A61,61,0,0,1,190.73,194l1,2.53a26,26,0,0,0-12.23,12.88l-2-1.5a65.52,65.52,0,0,1,28.71-12l.93,2.59a57.43,57.43,0,0,0-14.57,12.22l-1.85-2.45a59.69,59.69,0,0,1,28.46-5.5l6.15.31L220,206.15l-12.22,7-1.39-3.44a33.16,33.16,0,0,1,6.35-.95c1.06,0,2.11-.05,3.16,0l.82,0,1.14.12c.76.06,1.48.2,2.21.32s1.38.3,2.07.45,1.3.36,1.91.56c1.2.41,2.34.82,3.52,1.28l1.79.71.23.09.11.05,0,0s0,0,0,0l-.44.24-.87.47L224.89,215l-6.78,3.61-.68-3.05q1.68.09,3.45.3c.58.07,1.18.15,1.77.25l1.18.19,1.22.22c1.62.32,3.11.72,4.54,1.11l2.12.62.52.15c.06,0,.06,0,0,0l0,.05-.07.1a1.26,1.26,0,0,0-.16.46c-1.59.9-3.14,1.82-4.35,2.63a18.8,18.8,0,0,0-1.55,1.19c-.44.38-.86.79-1.11,1l-.37-1.19,7.22,2.22.88.27-.83.32a2.51,2.51,0,0,0-1.67,2.59A2.57,2.57,0,0,0,231.34,230Z"></path></g><path class="cls-1 color-hair" d="M328.24,325c-5-10-7.08-19.92-8.17-32.53a40.28,40.28,0,0,1-8.48,9.15c-11.85,8.48-20.45,6.89-22,6.55,4.36,12.18,4.64,23.1,5.27,35.82" transform="matrix(-1, 0, 0, 1, 380, 0)"></path><path d="M294.8,343.94c-.66-.39-1.13-4.48-1.64-9.17A85.72,85.72,0,0,0,291.08,322c-.64-2.17-1.33-4.39-2.08-6.61l-.3-.83-.15-.43-.25-.76c-.34-1-.75-2-1.13-3.1L286,307.05l-.62-1.65c-.09-.27-.22-.58-.29-.81l-.17-.67,5.11.87c.41.06.87.17,1.26.2l1.15.05a11.18,11.18,0,0,0,1.15,0l.55,0,.47,0a24.27,24.27,0,0,0,4.06-.92,32.48,32.48,0,0,0,7.61-3.64c1.06-.63,2.06-1.39,3.07-2.09.41-.32.84-.67,1.27-1.05l.63-.59.32-.31.65-.66a49.09,49.09,0,0,0,5.41-6.74l5.39-7.59q.42,5.12.82,10.11c.14,1.65.27,3.29.4,4.91s.32,3,.48,4.56c.31,3,.68,5.94,1.13,8.7a117.23,117.23,0,0,0,3.42,14.77,26.33,26.33,0,0,1-7.77-8.57c-2.12-3.56-3.37-7.26-3.45-9.27,0-1.28-.09-2.55-.14-3.81v-.7c0-.07,0-.18,0-.14a1,1,0,0,0,.08-.21,3,3,0,0,0,.14-.54,13.11,13.11,0,0,0,.19-1.55c0-.31,0-.63.07-.94s.09-.9-.07-.62c-.33.28-.78.7-1.33,1.2l-.89.78-1.45,1.25c-.64.52-1.28,1-2,1.5l-2,1.28c-1.32.81-2.64,1.59-4,2.26a37.63,37.63,0,0,1-8.31,3.13c-.71.15-1.41.31-2.13.41-.35.05-.71.12-1.07.15l-.67.08a10.31,10.31,0,0,1-2.08,0c-.44-.19-.08.32,0,.55l.33.82.29.78.13.37.06.18.11.33c.63,2,1.11,4,1.52,6a64,64,0,0,1,1.29,11.28C296.36,334.86,295.09,342.45,294.8,343.94Z" transform="matrix(-1, 0, 0, 1, 380, 0)"></path></svg>