<svg xmlns="http://www.w3.org/2000/svg" id="Layer_14" data-name="Layer 14" viewBox="0 0 380 600">
  <defs>
    <style>
      .cls-1 {
        fill: #fffffe;
        opacity: .5;
      }

      .cls-1, .cls-2, .cls-3 {
        stroke-width: 0px;
      }

      .cls-3 {
        fill: blue;
      }
    </style>
  </defs>
  <g>
    <path class="cls-3 color-hair" d="M270.78,216.85c-1.47-6.35-5.2-11.94-10.27-16.03-8.69-7-28.12-18.86-61.4-21.98-12.34-1.16-20.68-1.09-32.51.21-.85.15-1.93.35-1.93.35-66.07,9.32-87.25,47.44-87.25,47.44,15.61-5,28.45-1.25,34.12,1.07.32,3.36,1.23,6.63,2.86,9.66,3.28,6.1,9.56,11.86,18.92,16.09,0,0,6.5-19.43,17.88-26.07,1.26-.74-1.39,17.9-7.44,29.18,0,0,31.81-4.71,44.34-23.45.83-1.24,1.47-1.06,1.43.43-.13,5.68-5.46,12.47-9.68,17.99,0,0,27.19-3.91,34.59-16.25.69-1.15,1.81-1.11,1.82.23.06,10.31-11,22.23-11,22.23,0,0,28.19-5.71,33.34-22.47.6-1.94,1.35-1.9,1.61.12.63,4.96-.29,12.29-6.95,21.17,0,0,8.97-3.27,15.62-8.94,6.77-5.76,11.21-13.92,11.26-13.69.61,3.54.7,7.72-.62,11.9,0,0,15.4-11.2,11.24-29.19Z"></path>
    <path class="cls-2" d="M270.84,216.83c.1.24.23.68.39,1.31.08.32.16.68.26,1.09.09.41.22.87.24,1.38.05.51.1,1.07.15,1.66.02.3.05.61.08.93,0,.32-.02.65-.03.99-.03.68-.05,1.41-.1,2.17-.12.75-.25,1.55-.38,2.37-.34,1.64-.86,3.39-1.6,5.2-.37.9-.84,1.79-1.3,2.72-.49.81-1.13,2.02-1.91,3.02-1.47,2.14-3.25,4.1-5.16,5.83-.49.43-.98.88-1.5,1.31-.26.22-.52.44-.8.65l-.2.16-.11.08s-.09.07-.06.03l.05-.29c.12-.75.16-1.52-.47-1.85.38-1.68.7-3.27.93-4.66.23-1.39.22-2.48.17-3.6-.04-.56-.09-1.1-.15-1.6-.06-.46-.12-.84-.19-1.27l-.03-.16h0c2.06-.36.58-.12,1.04-.18,0,.04.05.05.11.13.06.07.11.09.2.17l.3.25.15.12s.01,0,.02.02h0s-.01.02-.01.02l-.16.24-.35.55-.72,1.13c-1.95,3.02-4.16,6-6.73,8.77-2.55,2.8-5.64,5.24-8.9,7.27-1.63,1.02-3.32,1.96-5.04,2.82-.86.43-1.73.85-2.61,1.24l-1.33.58-.67.28-.34.14-.17.07-.17.06c-.15.05-.31.08-.46.09l-2.69.18,1.63-2.3,1.12-1.59,1.05-1.62c.32-.56.65-1.1.96-1.66l.44-.84.22-.42.14-.3c.71-1.5,1.24-3.04,1.5-4.57.27-1.53.28-3.04,0-4.45-.04-.17-.09-.35-.21-.49-.05-.07-.16-.12-.25-.07-.09.04-.14.13-.2.2-.2.33-.29.71-.43,1.07-.12.36-.25.71-.42,1.04-.14.34-.32.66-.49.98-.7,1.26-1.57,2.33-2.47,3.23-.22.23-.51.48-.76.72-.09.09-.37.32-.57.49l-.65.54c-.87.7-1.75,1.36-2.64,1.97-3.53,2.42-7,4.16-10.09,5.5l-.88.38-1.06.43c-.87.34-1.76.67-2.65.99-1.78.63-3.55,1.18-5.28,1.65-1.72.45-3.38.85-5.12,1.26l-1.31.3-.67.15-.34.08c-.05.01-.13.03-.16.03l-.03-.02c-.1-.06-.22-.12-.42-.16-.09-.02-.17-.05-.28-.06l-.4-.04c1.7-1.94,3.51-4.01,5.09-5.91.78-.94,1.6-1.91,2.19-2.78l.97-1.35c.31-.45.57-.89.86-1.34l.85-1.35.48-.87.46-.84.2-.41c.25-.53.41-.95.56-1.42.15-.45.26-.9.31-1.35.03-.22.05-.44.04-.66-.02-.21.05-.45-.12-.61-.23-.15-.48.12-.58.32-.14.21-.27.42-.42.61-.3.39-.62.73-.96,1.02-.38.33-.49.45-1.45,1.07-1.25.81-2.53,1.52-3.83,2.2-2.61,1.33-5.29,2.44-8.02,3.41-1.36.48-2.74.93-4.12,1.35l-2.14.61c-1.19.33-2.38.61-3.58.9-2.39.56-4.72.99-6.93,1.34l-3.35.53-1.7.27-.43.07c-.15.03-.3.05-.38.04h-.62s5.19-6.85,5.19-6.85c.87-1.16,1.75-2.32,2.57-3.48.43-.58.83-1.16,1.21-1.74.37-.55.87-1.28.97-1.48,1.55-2.47,2.85-5.1,3.19-7.4.06-.29.04-.55.07-.83,0-.07.01-.14,0-.15,0-.04,0-.05,0-.05.89-.07,1.74-.25,2.2-.47.12-.06.2-.09.29-.18.05-.02.11-.11.11-.11.03-.09-.03.06.04.2.12.39.58.95,1.22,1.55l.24.2.13.12.07.06h0s0,.01,0,.01l-.06.08-.37.53c-.5.7-.98,1.41-1.53,2.06-.53.67-1.07,1.33-1.65,1.94-2.28,2.52-4.83,4.71-7.53,6.65-5.41,3.86-11.32,6.71-17.35,8.99-3.02,1.12-6.08,2.11-9.17,2.94l-1.16.31c-.69.18-1.43.36-2.13.52-1.43.33-2.84.63-4.24.89l-4.06.66-2.02.32-1.02.16-.85.09c1.04-1.99,2.07-3.98,3.1-5.96,1.04-1.97,1.82-3.8,2.53-5.67l.34-.91.24-.7.47-1.41c.3-.94.59-1.89.86-2.84.54-1.9,1.02-3.82,1.43-5.74l.23-1.08v-.11s.03-.18.03-.18v-.16s0-.15-.06-.07c-.1.08-.18.16-.25.24-.47.63-.95,1.26-1.42,1.89-.53.74-1.02,1.52-1.54,2.28-.47.8-.97,1.57-1.42,2.38-1.05,1.85-2.02,3.78-2.92,5.73l-.65,1.48-.83,1.99-1.18,3.18-1.12,3.27c-2.59-1.22-5.3-2.46-7.79-3.78-1.4-.75-2.76-1.59-4.1-2.48-2.65-1.8-5.19-3.84-7.43-6.25-2.26-2.38-4.21-5.12-5.7-8.2-.73-1.54-1.31-3.15-1.75-4.78-.22-.82-.4-1.64-.55-2.46l-.03-.17h0s0,0,0,0h0s-.14-.05-.14-.05l-1.45-.47c-1.24-.36-2.49-.7-3.77-.96-2.54-.54-5.11-.86-7.69-.97-2.58-.12-5.16-.02-7.71.31-.68.06-1.4.18-2.08.3l-2.18.51-2.18.51c-.74.18-1.42.31-2.24.57-3.08.89-6.16,1.78-9.24,2.66,1.08-1.83,2.16-3.66,3.23-5.49l.83-1.41c.29-.47.52-.92.89-1.43l2.02-2.98c.35-.5.65-.99,1.03-1.49l1.18-1.53c.38-.51.86-1.02,1.29-1.53l1.11-1.29c.9-1.07,1.91-2.03,2.85-3.05,3.9-3.95,8.03-7.6,12.44-10.79,8.76-6.48,18.28-11.55,28.02-15.49,9.7-4.06,19.77-6.56,29.61-8.56,2.47-.41,4.93-.81,7.38-1.22,2.43-.37,4.88-.9,7.46-1.06,4.9-.44,9.81-.68,14.66-.62,4.85.05,9.62.39,14.28.86,2.32.22,4.65.56,6.95.84,2.3.32,4.57.73,6.83,1.1,9,1.73,17.62,4.15,25.6,7.44,7.99,3.26,15.35,7.34,21.76,12.21,1.59,1.22,3.16,2.47,4.61,3.91,1.43,1.43,2.71,2.97,3.83,4.6,2.23,3.26,3.75,6.89,4.51,10.56-1.37-4.21-3.88-8.51-7.52-12.09-1.8-1.82-3.91-3.35-6.17-4.82-2.24-1.48-4.65-2.83-7.11-4.14-9.93-5.17-21.38-8.85-32.74-10.97-5.68-1.08-11.33-1.84-16.8-2.24-5.46-.48-10.75-.7-15.59-.71-4.85,0-9.31.26-13.31.6-1,.09-1.97.18-2.9.26-.89.09-1.75.17-2.58.25-1.67.3-3.27.55-4.69.76-2.15.32-4.3.65-6.45.97-1.06.18-2.16.27-3.2.53l-3.13.69c-2.09.46-4.17.92-6.25,1.38-2.06.52-4.07,1.17-6.1,1.75-4.1,1.07-7.98,2.66-11.9,4.09-.99.34-1.93.78-2.88,1.21l-2.84,1.28-2.83,1.28c-.94.43-1.82.96-2.74,1.43-7.34,3.72-14.12,8.28-20.23,13.42-.79.61-1.51,1.3-2.24,1.97l-2.2,2.01c-.72.68-1.39,1.41-2.08,2.1-.68.71-1.4,1.39-2.03,2.14l-.98,1.09-.89,1.09c-.29.38-.58.77-.86,1.17-.14.2-.28.41-.41.62.12.01.4-.1.6-.14.62-.18,1.28-.31,1.94-.45l1.02-.16c.17-.02.34-.06.52-.07l.65-.07c2.92-.32,5.85-.41,8.74-.23,2.89.17,5.74.58,8.51,1.2,1.39.31,2.75.69,4.1,1.1,1.16.37,3.08,1.04,4.83,1.81l.17,1.64.11.82c.03.27.09.57.11.7.12.7.27,1.39.45,2.07.36,1.36.85,2.68,1.44,3.95,1.21,2.52,2.89,4.84,4.82,6.89,1.94,2.05,4.14,3.87,6.48,5.44,1.15.78,2.41,1.54,3.58,2.18.39.22.77.41,1.16.61l.59.28.29.14.15.07.07.04s.02-.05.03-.07c.28-.78.55-1.47.91-2.3.53-1.25,1.09-2.49,1.68-3.71,1.19-2.43,2.46-4.82,3.91-7.1.34-.58.75-1.13,1.12-1.69.38-.56.75-1.12,1.17-1.65.42-.55.78-1.05,1.26-1.64l1.78-2c.58-.71,1.23-1.18,1.84-1.77l.93-.84c.31-.31.62-.44.92-.67.61-.39,1.24-.87,1.82-1.19l1.62-.56c.14-.04.26-.11.41-.12.18.07.23.23.29.35.11.25.18.51.25.78.12.54.22,1.11.27,1.76.12,1.29-.09,3.02-.35,4.71-.13.86-.28,1.72-.45,2.58l-.47,2.27c-.28,1.26-.57,2.51-.9,3.76-.64,2.49-1.38,4.94-2.23,7.35l-.53,1.45-.42,1.06c-.29.7-.61,1.39-.95,2.05l-.17.33.37-.06.74-.14,1.46-.31c1.02-.23,1.67-.39,3.47-.88,3.08-.85,6.1-1.82,9.03-2.95,5.87-2.24,11.45-5.06,16.3-8.67,2.42-1.81,4.65-3.81,6.58-6.04l1.38-1.71,1.32-1.87c.18-.22.34-.44.66-.71.06-.06.17-.14.28-.2.09-.06.23-.14.4-.21.28-.13.88-.25,1.46-.04.61.22.91.64,1.07.91.16.28.23.51.28.7.1.39.11.67.12.94,0,.98-.11,1.8-.28,2.66-.74,3.35-2.35,6.15-3.97,8.76-.88,1.38-1.82,2.64-2.74,3.86l-.17.22c-.06.05,0,.04.05.03l.14-.02.57-.1,1.12-.22c.74-.16,1.47-.33,2.18-.51l1.07-.29,1.99-.57c1.32-.39,2.63-.82,3.92-1.26,2.57-.91,5.08-1.93,7.44-3.13,1.18-.6,2.33-1.25,3.42-1.94.22-.12.7-.48,1.07-.73.4-.3.77-.5,1.2-.89l1.25-1.11.31-.28.33-.39.66-.79c1.03-1.24,1.67-1.46,2.43-1.98.31-.19.53-.29.81-.44.12-.07.27-.14.38-.2l.28-.18c.41-.24.65-.5.9-.76.12-.13.25-.26.52-.31.24-.06.66.02.97.28.59.51.56,1.09.75,1.67.06.3.19.54.19.9l.03,1.05.02.52c.02.17,0,.35-.03.56l-.18,1.21c-.07.78-.33,1.66-.56,2.53-.13.44-.19.85-.37,1.31l-.51,1.37c-.18.46-.32.92-.53,1.37l-.65,1.35-.64,1.32-.51.91-.49.88-.25.41c-.66,1.07-1.34,2.02-2.08,2.93l-.33.39-.17.19-.08.1s.07,0,.1-.01l1.02-.25c.67-.18,1.33-.38,1.98-.59.66-.22,1.27-.44,1.92-.7,1.37-.53,2.71-1.11,4.02-1.73,2.63-1.23,5.13-2.64,7.43-4.25.58-.4,1.13-.82,1.68-1.25.56-.47.96-.74,1.86-1.62.39-.4.78-.69,1.18-1.17l1.2-1.46c.38-.32.85-1.35,1.3-2.18l.67-1.28c.22-.38.47-.99.64-1.04.72-.63,1.62-1.49,1.99-1.66.22-.15.53-.34.69-.47l.47-.4c.18-.13.24-.27.35-.41.09-.14.22-.27.27-.42.11-.29.19-.59.32-.88.1-.12.18-.31.57-.25.4.14.58.43.76.66.17.25.29.5.41.79.12.27.24.55.33.87.4,1.2.53,2.75.49,4.38-.03,1.62-.21,3.32-.63,5.16-.16.9-.49,1.87-.76,2.81l-.54,1.45c-.17.48-.36.97-.6,1.45l-.67,1.44c-.21.43-.36.68-.54,1.02-.34.65-.72,1.27-1.1,1.89-.76,1.24-1.58,2.42-2.44,3.57-.06.08-.12.17-.21.3l-1.53-1.16c0-.55-.01-1.11-.04-1.66-.03-.47-.04-.13-.05-.24h-.1c-.06,0-.13.02-.19.03s-.12.03-.18.05h.03s.13-.06.13-.06l.26-.1.52-.21c.35-.14.7-.29,1.06-.44.71-.3,1.44-.62,2.17-.96,1.46-.68,2.94-1.43,4.42-2.26,2.96-1.68,5.9-3.63,8.51-6.12,2.63-2.49,5.04-5.39,7.23-8.45.55-.77,1.08-1.54,1.61-2.34l.21-.31.12-.18.09-.12s.02-.03.13-.15l.06-.06s.28-.23.46-.27c-.29-.06,1.23-.38,1.69.92l.02.11.1.74.08.72.04.54c.08,1.28.04,2.65-.17,4.05-2.01,5.47,1.92,1.05,3.54-.77.48-.59.95-1.19,1.39-1.83.23-.35.46-.7.69-1.05.26-.37.47-.77.68-1.16.43-.78.86-1.54,1.18-2.33.35-.78.69-1.53.92-2.31.57-1.52.84-3.02,1.13-4.41.07-.7.14-1.38.21-2.03.03-.32.08-.64.08-.95,0-.31,0-.61-.01-.91.07-2.37-.36-4.19-.47-5.39Z"></path>
  </g>
  <path class="cls-1" d="M212.75,224.14c.13-.31,1.16-.93,2.44-2.14,1.29-1.19,2.77-3.03,3.97-5.3l.84-1.58.73,1.69c.18.43.35.87.5,1.32.11.34.19.62.27.92.14.59.24,1.19.28,1.76.02.29.03.56.03.84,0,.14-.01.27,0,.4.02.13.11.26.25.29.16.04.28-.1.38-.21l.33-.32c.22-.2.39-.45.58-.66.56-.74.93-1.49,1.18-2.16.05-.17.1-.33.15-.49.06-.17.07-.26.14-.52.14-.49.24-.94.31-1.37.09-.43.14-.88.2-1.32.04-.23.05-.41.07-.7.04-.35.07-.73.1-1.12v-1.22c.02-.41.02-.83-.02-1.3-.02-.45-.06-.94-.06-1.37l.22-.93c.04-.17.07-.3.11-.39l.12-.33.2-.55c.07-.18.09-.3.12-.43,0-.11.14-.31.46-.44.31-.12.45-.01.68-.01.21.03.42.04.64.08l.75.29.38.15c.13.05.27.17.4.25.43.37.87.67,1.31,1.1.44.43.88.84,1.32,1.3l1.31,1.52c.22.26.43.53.64.82l.48.64c1,1.36,1.9,2.77,2.74,4.2.42.72.83,1.44,1.22,2.16l.58,1.09.27.52.05.06c.12.17.22.29.29.37.01.01.02.03.03.03l.04-.09c.03-.05.05-.11.06-.16.03-.1.05-.19.06-.26,0-.03.01-.09,0-.08h0s.04-.15.04-.15c.02-.1.06-.2.07-.3l.12-.62c.16-.82.25-1.65.3-2.48.04-.63.05-1.26.04-1.88l-.04-.96-.25-2.01-.06-.5c-.04-.19-.11-.4-.17-.6l-.35-1.21-.35-1.21c-.14-.43-.33-.94-.5-1.4-.69-1.92-1.38-3.82-2.07-5.71,1.99,1,3.96,2,5.94,3,2.08,1.06,4.2,2.09,6.3,3.64.26.18.51.4.76.6.24.19.54.43.69.58.29.25.56.52.84.79.54.55,1.05,1.11,1.52,1.74.95,1.24,1.69,2.55,2.29,3.9.59,1.36,1.04,2.76,1.32,4.18.15.71.25,1.43.32,2.15.02.18.03.36.04.54l.02.27v.13c2.2-.13-2.97.2-2.45.16h-.02s-.04,0-.04,0c-.02,0-.04.01-.05.02-.05.03-.03.04-.04.04,0,0,0-.02-.04-.04-.02,0-.03-.02-.06-.02h-.04c.52.07-4.59-.64-2.43-.35h0s.06-.43.06-.43c.34-2.2.4-4.44.23-6.6-.16-2.16-.56-4.25-1.18-6.17-.62-1.91-1.53-3.66-2.63-5.21-2.21-3.12-5.31-5.36-8.13-7.4,1.83.35,4,.92,6.24,1.99,2.23,1.05,4.53,2.66,6.31,4.75,1.81,2.06,3.09,4.52,3.82,6.7.76,2.18,1.04,4.12,1.06,5.46.02,1.46-.05,2.89-.19,4.3-.08.71-.17,1.4-.29,2.1l-.19,1.03-.02.13-.02.08c-.03.19-.07.36-.16.58-.16.41-.51.92-1.09,1.26-.57.34-1.32.42-1.95.23-.64-.18-1.14-.63-1.41-1.08-.28-.45-.36-.87-.38-1.21v-.21c.02-2.22-.52-4.48-1.46-6.48-.48-1.01-1.05-1.92-1.74-2.76-.35-.42-.72-.83-1.12-1.2-.22-.23-.43-.42-.67-.62-.48-.4-1.02-.77-1.61-1.13l-.9-.54-.12-.07s-.1-.07-.07-.01l.07.21.14.43c.25.92.37,1.85.41,3,.06,1.78-.06,3.58-.35,5.31-.06.44-.16.86-.25,1.29-.05.21-.08.43-.14.64l-.2.73c-.14.57-.34,1.08-.54,1.59l-.29.78-.35.71-.35.7-.39.63c-.26.42-.53.83-.82,1.23-.27.4-.58.81-.9,1.21l-.24.3-.12.15c-.04.05-.06,0-.09.01l-.35-.06c-.99-2.12-1.96-4.26-2.99-6.33-.29-.59-.44-.88-.63-1.25l-.56-1.06c-.37-.7-.76-1.39-1.15-2.06-.79-1.34-1.61-2.63-2.48-3.83l-.23-.31-.18-.23-.37-.44c-.25-.28-.5-.55-.76-.79-.29-.28-.59-.52-.9-.74-.07-.05-.16-.13-.25-.05-.08.07-.08.2-.05.3.05.21.07.41.09.62.03.41.04.8.02,1.17,0,.19-.02.37-.04.55,0,.09-.02.18-.03.27l-.05.36c-.14.84-.31,1.66-.54,2.47-.09.41-.25.8-.37,1.2-.06.2-.17.52-.29.78l-.35.81c-.97,2.16-2.26,3.78-3.6,4.97-.32.21-.64.44-.96.63l-.94.33c-.25.17-.82.02-1.02-.23-.2-.24-.14-.43-.25-.67-.13-.38-.26-.78-.41-1.21-.16-.53-.39-1.2-.38-2.26.03-1.05-.07-1.93-.21-2.79-.07-.34-.14-.68-.21-1.03-.06-.27-.14-.55-.22-.82l2.01.14c-1.32,1.91-3,3.6-4.58,4.68-1.57,1.1-2.97,1.6-3.56,1.77Z"></path>
</svg>