<svg xmlns="http://www.w3.org/2000/svg" id="animals_2" viewBox="0 0 380 600"><defs transform="matrix(-1, 0, 0, 1, 380, 0)"><style>.cls-1{fill:#a06a42;}.cls-2{fill:#c18d42;}.cls-3{fill:#c08d41;}.cls-4{fill:#a5a4a4;}.cls-5{opacity:0.3;}</style></defs><g id="default" transform="matrix(-1, 0, 0, 1, 380, 0)"><path class="cls-1" d="M160.412,391.943c-3.214,4.033-6.79,8.251-7.689,13.31-.449,2.528-.761,4.615-2.606,6.606-.578.624-4.395,3.768-5.357,2.784a8.037,8.037,0,0,1-5.586,13.576c2.7,1.81,3.053,5.963,1.3,8.695s-3.055,1.147-6.287,1.459c3.188,4.231.026,11.977-5.686,11.127,3,5-2,13-10,10,0,13-11,10-13.251,7.15-10.476-13.268-6.335-36.459-1.252-51.8,6.055-17.583,19.428-51.04,47.782-59.992,10.883-3.436,14.227,11.569,14.227,11.569" /><path d="M165.946,366.439a14.347,14.347,0,0,1-1.111-2.212,26.991,26.991,0,0,0-2.536-4.441,10.266,10.266,0,0,0-5.2-4.044,7.439,7.439,0,0,0-3.651-.106,29.315,29.315,0,0,0-4.007,1.358,52.3,52.3,0,0,0-15.1,9.645,64.083,64.083,0,0,0-9.658,11.141c-7.472,10.97-13.057,24.227-17.472,37.955a105.939,105.939,0,0,0-4.345,20.732c-.2,1.733-.254,3.453-.348,5.167.008,1.7-.038,3.408.1,5.068a37.7,37.7,0,0,0,1.675,9.527c.084.277.157.559.248.832l.325.79.637,1.581c.231.515.526.985.78,1.481a10.636,10.636,0,0,0,.829,1.437l.944,1.339.232.337.058.084.029.043.007.01c-.377.3.85-.664-.845.674l.019-.012.073-.05a5.616,5.616,0,0,0,.55-.434l.213-.2,0,0s-.019,0-.006.008a.967.967,0,0,1,.142.088,5.462,5.462,0,0,0,1.961.752,3.676,3.676,0,0,0,1.873-.05,2.159,2.159,0,0,0,1.036-.744,3.443,3.443,0,0,0,.213-.378,1.338,1.338,0,0,0,.217-.435q.084-.272.186-.536l.052-.133a.513.513,0,0,0,.05-.235l.09-.852.179-1.7c.028-.291.064-.549.085-.866l.054-.984q.108-1.959.216-3.911l5.022,1.513a12.37,12.37,0,0,0,1.271.353l.6.084.293-.015h.079c.1,0,.2.016.294,0s.177-.04.267-.055a3.26,3.26,0,0,0,1.825-.956,3.676,3.676,0,0,0,.979-1.9,4.4,4.4,0,0,0,.015-.72c.039,0-.105-.3-.178-.485l-.258-.619-.514-1.236-2.362-4.949,5.092.337,1.269.078.633.039.316.02a3.425,3.425,0,0,0,.458-.085c.111-.023.108-.027.108-.027l.015-.01.03-.017.064-.031c.043-.023.095-.015.135-.065a3.106,3.106,0,0,0,1.068-1.306,4.432,4.432,0,0,0,.424-1.975,2.929,2.929,0,0,0-.444-1.549l-3.565-5.376,6.154-.51a14.073,14.073,0,0,1,2.744.058l.574.073.073.018a.75.75,0,0,0,.111.026.3.3,0,0,0,.218-.068.768.768,0,0,0,.089-.083l.041-.049a.681.681,0,0,1,.068-.131,3.777,3.777,0,0,0,.339-1.938l-.028-.239-.3-.643-.079-.166c-.018-.053-.153-.137-.223-.2l-.512-.424-1.111-.914-2.608-2.105-2.706-2.145.67-.089.406-.062.4-.062.587-.047,2.4-.186,2.674-.241,2.448-.281a2.734,2.734,0,0,0,1.033-.257,2.252,2.252,0,0,0,.363-.2l.136-.073a3.119,3.119,0,0,0,.507-.357,2.751,2.751,0,0,0,.464-.427,2.439,2.439,0,0,0,.413-.49,5.564,5.564,0,0,0,1.012-2.361q.025-.317.073-.634c-.015-.208-.022-.416-.022-.626a4.052,4.052,0,0,0-.8-2.012l.578-.747c.119-.179.194-.315.289-.472l.264-.447.128-.219c0-.039.081-.068.023-.114l-.206-.144-1.6-1.118-.388-.273-.1-.068-.024-.017-.006,0,0,0,2.512.905h0v0l0,.008.019.033c.011.063.1.027.154.024a5.789,5.789,0,0,0,1.138-.759c.314-.477,1.289-.179.379-2.237-.008-.042-.044-.109-.031-.129l.062-.039.122-.079.19-.127.257-.169.5-.349c.306-.218.695-.528.811-.622a5.958,5.958,0,0,0,1.293-1.812,13.205,13.205,0,0,0,.787-2.489,26.5,26.5,0,0,1,.842-3.086,21.735,21.735,0,0,1,1.332-2.881,48.8,48.8,0,0,1,6.887-8.709c-1.289,2.774-3.211,6.009-4.408,9.629a18.637,18.637,0,0,0-.684,2.75,23.676,23.676,0,0,0-.239,2.883,16.034,16.034,0,0,1-.5,3.45,10.293,10.293,0,0,1-1.8,3.542,17.713,17.713,0,0,1-1.257,1.318l-.6.557c-.089.082-.239.2-.284.251l-.078.1a1.936,1.936,0,0,1-.512.521c-.049.013-.1-.059.031.054l.235.189c.131.129.26.233.342.336l.089.1.011.011.026.083.054.177.108.353.215.705c.058.255.091.545.133.817l.107.83.008.824-.014.823-.109.8a11.847,11.847,0,0,1-2.492,5.7,11.357,11.357,0,0,1-2.193,2.092l-.311.208-.151.1,0-.006v.018a.079.079,0,0,0,.009.026.069.069,0,0,0,.04.032.066.066,0,0,0-.027,0,.083.083,0,0,0-.026.008.894.894,0,0,0,.019.136l.037.249a11.075,11.075,0,0,1-.268,4.844,10.735,10.735,0,0,1-.952,2.323,9.821,9.821,0,0,1-1.767,2.306,6,6,0,0,1-2.411,1.406,6.7,6.7,0,0,1-2.759.174l-.677-.091-.391-.064c-.216-.035-.4-.068-.574-.089a7.315,7.315,0,0,0-.98-.065l2.3-5.224a9.7,9.7,0,0,1,1.724,5.524,11.2,11.2,0,0,1-1.219,5.155,9.673,9.673,0,0,1-3.618,3.958c-1.126.6-.98.433-1.276.515a2.751,2.751,0,0,1-.724-.035c-.016,0-.048-.01-.052,0l.017.044.034.09.071.184c.024.133.057.27.072.414l0,.222,0,.114c0,.008-.015.207-.02.3a8.415,8.415,0,0,1-.171,1.452,10,10,0,0,1-2.907,5.268,9.477,9.477,0,0,1-5.294,2.533,6.539,6.539,0,0,1-1.431.084,3.187,3.187,0,0,1-.552-.067,5.813,5.813,0,0,1-1.115-.317l-.085-.029c-.016.008-.009.048-.015.071l-.016.161-.033.326a5.967,5.967,0,0,1-.087.7l-.186.845-.047.213-.126.358-.273.742-.28.736c-.12.241-.268.478-.4.715a6.437,6.437,0,0,1-.946,1.36,6.27,6.27,0,0,1-1.229,1.172l-.7.5a6.906,6.906,0,0,1-.761.378,9.545,9.545,0,0,1-6.253.447,11.844,11.844,0,0,1-2.814-1.126,8.663,8.663,0,0,1-1.319-.9,6.074,6.074,0,0,1-1.09-1.231,30.333,30.333,0,0,1-4.649-9.519,44.167,44.167,0,0,1-1.712-10.013,70.612,70.612,0,0,1,.112-9.793c.308-3.194.68-6.341,1.28-9.4A117.176,117.176,0,0,1,103.4,411.01a142.143,142.143,0,0,1,14.094-30.338c5.72-8.962,12.787-16.634,21.043-21.77a44.379,44.379,0,0,1,8.906-4.29c.833-.317,1.7-.577,2.567-.817l1.3-.372c.483-.1.953-.23,1.448-.283a9.7,9.7,0,0,1,5.751.845,10.841,10.841,0,0,1,3.924,3.418,17.617,17.617,0,0,1,2.074,3.8A22.979,22.979,0,0,1,165.946,366.439Z" /></g><g data-name="default" id="default-2" transform="matrix(-1, 0, 0, 1, 380, 0)"><path class="cls-2" d="M239.64,463.871c-.822-7.144-2.461-16.135-4.759-22.342-13.642-36.838,9.04-78.792-30.636-91.823-29.145-9.571-59.413,5.745-75.671,54.174-5.9,17.562-7.776,42.306-3.484,59.991" /><path d="M125.031,463.885c-.41-.5-1.421-3.49-2.2-8.059a99.615,99.615,0,0,1-1.25-17.25,134.814,134.814,0,0,1,1.693-19.911,131.447,131.447,0,0,1,11.94-37.3A86.133,86.133,0,0,1,148.808,361.5a58.633,58.633,0,0,1,20.166-14.4,50.59,50.59,0,0,1,24.3-3.677,57.2,57.2,0,0,1,10.347,1.977,52.19,52.19,0,0,1,9.832,3.9,35.63,35.63,0,0,1,8.75,6.428,31.624,31.624,0,0,1,6.249,8.889c3.08,6.5,4.087,13.306,4.518,19.666.422,6.4.281,12.522.227,18.43-.07,5.9-.077,11.588.243,17.051a91.2,91.2,0,0,0,2.165,15.6q.219.921.435,1.833.26.9.517,1.787.549,1.857,1.085,3.675a74.043,74.043,0,0,1,1.621,7.379,119.041,119.041,0,0,1,1.5,13.7c-1.269-3.742-2.722-8.309-4.474-13.089-.876-2.387-1.833-4.827-2.918-7.167-.548-1.11-1.134-2.421-1.7-3.691-.6-1.268-1.024-2.59-1.531-3.886a78.5,78.5,0,0,1-4.271-26.328c.289-10.761,1.225-20.984.12-30.554a37.964,37.964,0,0,0-3.806-13.33,27.291,27.291,0,0,0-8.9-9.8,43.034,43.034,0,0,0-12.118-5.436,49.83,49.83,0,0,0-12.837-1.91,44.984,44.984,0,0,0-23.579,6.427,60.728,60.728,0,0,0-17.071,15.672,84.4,84.4,0,0,0-6.165,9.285c-.952,1.563-1.759,3.2-2.62,4.778-.783,1.627-1.623,3.2-2.327,4.836l-1.093,2.416q-.506,1.221-1.007,2.431c-.691,1.6-1.276,3.238-1.893,4.842s-1.138,3.231-1.708,4.822c-.521,1.6-1.037,3.168-1.47,4.762a134.581,134.581,0,0,0-3.788,18.792c-.389,2.918-.748,6.381-1.077,10-.268,3.625-.505,7.416-.506,10.973A101.817,101.817,0,0,0,125.031,463.885Z" /><path class="cls-1" d="M234.881,441.529c-13.642-36.838,9.04-78.792-30.636-91.823-29.144-9.571-59.413,5.745-75.671,54.174-5.9,17.562-7.776,42.306-3.484,59.991h0s6.034,10.253,50.162,13c42.248,2.629,64.388-13,64.388-13h0C238.818,456.727,237.179,447.736,234.881,441.529Z" /><path class="cls-2" d="M203.5,445.5c3.825,33.471-8.737,58-30,58s-46-23.311-46-57,13.737-62,35-62S199.5,410.5,203.5,445.5Z" /><path class="cls-3" d="M203.47,445.5c-.5-1.184-1.745-13.241-6.4-26.3a76.284,76.284,0,0,0-9.436-18.637,38.532,38.532,0,0,0-12.264-11.482,25.929,25.929,0,0,0-10.753-3.274,24.649,24.649,0,0,0-5.7.289,23.647,23.647,0,0,0-5.466,1.762,28.521,28.521,0,0,0-9.208,7.213,46.766,46.766,0,0,0-6.575,10.142,82.407,82.407,0,0,0-7,23.492,112.452,112.452,0,0,0-1.162,12.149,83.459,83.459,0,0,0,.224,11.9,62.17,62.17,0,0,0,5.255,19.525,56.912,56.912,0,0,0,11.219,16.366,46.64,46.64,0,0,0,15.9,10.72c5.842,2.247,12.205,3.059,17.881,1.475a25.454,25.454,0,0,0,13.8-10,46.712,46.712,0,0,0,6.989-15.237c2.818-10.618,2.879-21,2.161-30.046a81.172,81.172,0,0,1,1.76,14.525,69.225,69.225,0,0,1-1.549,17.128,45.533,45.533,0,0,1-6.286,15.284,28.44,28.44,0,0,1-8.805,8.731,26.734,26.734,0,0,1-8.4,3.332,28.907,28.907,0,0,1-8.788.375,39.594,39.594,0,0,1-15.842-5.431,56.785,56.785,0,0,1-21.174-22.988,64.906,64.906,0,0,1-7.08-28.414,112.755,112.755,0,0,1,2.811-27.34,80.431,80.431,0,0,1,3.958-12.531,56.555,56.555,0,0,1,6.05-11.247,39.132,39.132,0,0,1,3.988-4.854c.7-.771,1.5-1.452,2.253-2.159.812-.648,1.594-1.33,2.46-1.9a30.732,30.732,0,0,1,2.62-1.645,28.1,28.1,0,0,1,2.8-1.291,22.718,22.718,0,0,1,5.9-1.51,25.921,25.921,0,0,1,3-.2,28.237,28.237,0,0,1,2.971.181,27.821,27.821,0,0,1,2.914.477,28.51,28.51,0,0,1,2.81.817,31.317,31.317,0,0,1,9.823,5.661,52.8,52.8,0,0,1,12.751,16.907,77.633,77.633,0,0,1,4.209,10.184,101.939,101.939,0,0,1,3.105,11.528A127.614,127.614,0,0,1,203.47,445.5Z" /><path class="cls-2" d="M195.117,433.986a3.393,3.393,0,0,1,.971,1.629,11.326,11.326,0,0,1,.348,4.023,27.4,27.4,0,0,0-.062,5,4.821,4.821,0,0,0,.848,2.253,9.054,9.054,0,0,0,.829,1.011,3.216,3.216,0,0,1,.773,1.556,2.935,2.935,0,0,1-.458,1.893,13.364,13.364,0,0,1-.874,1.212,2.635,2.635,0,0,0-.407.687,1.211,1.211,0,0,0-.065.334l.013.163a1.007,1.007,0,0,0,.135.093l.4.28c.039.024.183.149.285.238l.311.28c.168.16.305.288.49.488.2.217.412.461.608.717a13.278,13.278,0,0,1,1.119,1.682l-1.4,1.4c-.512.537-.665.732-.962,1.08l-.4.484-.2.247-.08.114-.226.364c0,.027-.058.058-.024.082l.092.072.176.134.165.125.477.425,1.37,1.251,1.845,1.709-4.746,5.015-.207.222-.033.043a.493.493,0,0,0-.054.086.176.176,0,0,0,.01.185.375.375,0,0,0,.153.106.37.37,0,0,1,.061.029l.3.163c.2.111.441.249.684.4a4.47,4.47,0,0,1,1.528,1.6,4.59,4.59,0,0,1,.55,2.134,5.759,5.759,0,0,1-1.291,3.7,7.955,7.955,0,0,1-2.8,2.086.412.412,0,0,0-.093.072l.016.011.044.029.016.011c.009.01,0-.019.077.1a8.264,8.264,0,0,1,1.257,2.848,6.287,6.287,0,0,1-.227,3.428,5.138,5.138,0,0,1-.972,1.646,4.716,4.716,0,0,1-1.628,1.188,6.568,6.568,0,0,1-3.287.422l-.478-.05-.059-.009-.007-.006c-.021-.013-.059-.02-.048.015l0,.03.595.9.732,1.1a6.211,6.211,0,0,1,.957,1.781,2.872,2.872,0,0,1,0,1.7,2.611,2.611,0,0,1-1.018,1.336,2.542,2.542,0,0,1-.824.356,4.748,4.748,0,0,1-.924.253l-.988.155c-.369.04-.515.039-.724.056a14.207,14.207,0,0,1-4.626-.554l-.255-.08-.056-.026-.082-.045-.185-.108c-.131-.084-.281-.183-.442-.309-.322-.311-.172.007-.169.155l.023.143c.013.048-.009,0-.024-.032l-.044-.089c-.037-.055-.185-.426,0,.161l.167.56.163.507.237.722.223.689.061.363.121.712.121.694.06.34c-.007.044.056.141-.007.14l-.206-.015c-.554-.038-1.064-.086-1.559-.142a10.164,10.164,0,0,1-2.9-.7,10.054,10.054,0,0,1-1.265-.63,8.95,8.95,0,0,1-.889-.612,9.37,9.37,0,0,1-2.585-3.044,10.94,10.94,0,0,0,3.347,2.149,9.415,9.415,0,0,0,.991.337,4.263,4.263,0,0,0,.749.113,2.065,2.065,0,0,0,1.031-.159.954.954,0,0,0,.155-.1c.048,0-.023-.082-.047-.13l-.095-.158-.335-.52-.036-.053a.628.628,0,0,0,.013.089l.04.217.043.221-.125-.262-.246-.52-.061-.13c-.023-.053-.028-.053-.082-.192l-.259-.656-1.818-4.631-.774-2-.611-1.629,2.962,2.018,1.369.944c.466.33.792.518,1.179.775l.546.355c.173.107.316.155.472.234l.877.415c.274.106.543.21.774.278l.39.133a10.419,10.419,0,0,0,3.67.585,2.036,2.036,0,0,0,.548.027c.232-.042.224-.282.144-.435l-.126-.281-.53-.868-.572-.925-.894-1.391a9.209,9.209,0,0,1-1.151-2.37l-.108-.27-.054-.134c-.025-.048-.047-.094.036-.1.217-.077.445-.172.649-.233a8.891,8.891,0,0,1,1.224-.323,8.46,8.46,0,0,1,2.778.04l1.153.16a6.485,6.485,0,0,0,.84.044,2.047,2.047,0,0,0,2.092-1.466,3.8,3.8,0,0,0-.315-2.974,8.015,8.015,0,0,0-.41-.715c-.215-.324-.48-.672-.748-1-.546-.662-1.113-1.305-1.653-1.928l1.987-.6c.33-.1.655-.212.969-.331s.652-.266.805-.343a4.739,4.739,0,0,0,1.874-1.506,3.021,3.021,0,0,0,.487-2.093,1.962,1.962,0,0,0-1.243-1.484l-.614-.349a6.018,6.018,0,0,1-.774-.521,2.29,2.29,0,0,1-.9-1.489,2.261,2.261,0,0,1,.522-1.647,7.577,7.577,0,0,1,.613-.686l.456-.477,1.759-1.84,1.038-1.111-1.349-1.229-1.272-1.188-.734-.705-.364-.353-.091-.088c-.017-.031.038-.067.054-.1l.151-.2c.4-.533.8-1.064,1.227-1.586l.541-.647.447-.51.792-.853.407-.408c0-.128-.154-.273-.232-.4a5.241,5.241,0,0,0-.354-.423q-.321-.354-.669-.673c-.377-.348-.847-.687-1.282-1.013a2.041,2.041,0,0,1-.089-.936,2.79,2.79,0,0,1,.216-.978,4.472,4.472,0,0,1,.5-.9,5.138,5.138,0,0,1,.308-.415l.224-.275a8,8,0,0,0,.7-.92.919.919,0,0,0,.168-.59.861.861,0,0,0-.073-.268,1.685,1.685,0,0,0-.176-.3c-.18-.256-.442-.547-.714-.915a6.688,6.688,0,0,1-1.2-4.234,28.554,28.554,0,0,1,.565-4.3,14.129,14.129,0,0,0,.269-3.572,7.606,7.606,0,0,0-.231-1.3C195.293,434.441,195.187,434.167,195.117,433.986Z" /><path d="M173.466,512.53a14.471,14.471,0,0,1-3.136-2.931c-.756-.91-1.637-1.969-2.558-3.157-.852-1.234-1.857-2.522-2.731-3.963a79.376,79.376,0,0,1-4.938-9c-1.366-3-2.471-5.779-3.236-7.781a87.132,87.132,0,0,1-5.23-23.26,147.777,147.777,0,0,1-.033-24.2c.47-6.791,1.406-13.5,2.2-19.883.193-1.617.35-3.1.5-4.742q.25-2.42.5-4.8c.366-3.176.806-6.3,1.332-9.34a92.5,92.5,0,0,1,4.513-16.968,57.939,57.939,0,0,1,7.072-13.2c-1.022,4.054-2.434,9.618-3.341,14.878-.93,5.259-1.549,10.2-2.2,12.768a136.852,136.852,0,0,0-2.922,15.36c-.333,2.5-.658,5.075-1.053,7.534s-.757,4.869-1.126,7.246a161.705,161.705,0,0,0-2.063,26.8,108.047,108.047,0,0,0,2.761,23.237,91.131,91.131,0,0,0,2.938,10.09c.525,1.609,1.174,3.137,1.754,4.663.647,1.5,1.253,2.984,1.933,4.406,1.269,2.715,3.1,6.383,4.888,9.57C171.113,509.007,172.911,511.633,173.466,512.53Z" /><path class="cls-4" d="M164.4,373.253c-5.118,3.373-16.1,19.008-15.677,19.311,2.977,2.133,13.953,2.74,14.854,2.618,1.759-.238,5.449-15.623,6.729-21.405" /><path d="M170.346,373.786c.842.71-1.3,9.658-1.81,13.231a44.085,44.085,0,0,1-.9,4.89c-.106.42-.217.843-.345,1.273l-.2.652c-.078.237-.127.384-.285.776a7.618,7.618,0,0,1-1.09,1.91,2.952,2.952,0,0,1-1.791,1.071,5.082,5.082,0,0,1-1.117.093l-.577.01-.5,0-1.326-.016c-.879-.021-1.752-.066-2.622-.122a51.788,51.788,0,0,1-5.2-.6l-1.063-.206c-.552-.134-1.095-.307-1.643-.461a7.68,7.68,0,0,1-.8-.253l-.717-.332a11.291,11.291,0,0,1-1.371-.7l-.549-.483a4.032,4.032,0,0,1-.336-.566l-.157-.287-.039-.072-.01-.018,0-.008c.095-.037-.218.068.211-.085l-.024-.041L146,393.29a1.953,1.953,0,0,1-.268-.546,2.892,2.892,0,0,1,.2-1.393,10.4,10.4,0,0,1,.831-1.551c.323-.518.666-1.032,1.012-1.541l.751-1.071,1.121-1.5c1.507-1.965,3.058-3.792,4.627-5.467a51.7,51.7,0,0,1,4.751-4.511,20.636,20.636,0,0,1,4.9-3.166c-.786,2.02-1.575,4.361-2.568,6.487a15.513,15.513,0,0,1-2.887,4.679,55.281,55.281,0,0,0-5.291,5.155q-.593.66-1.151,1.326c-.242.256-.417.428-.637.684a8.366,8.366,0,0,0-.617.791c-.037.07-.114.15-.1.224l.171.132a1.966,1.966,0,0,0,.378.235,6.337,6.337,0,0,0,1.137.45c.1.032.2.063.309.089l.458.113c.322.082.651.147.978.21a38.208,38.208,0,0,0,3.895.546c1.281.117,2.541.186,3.759.209l.371,0,.261-.008a4.756,4.756,0,0,0,.5-.038c.315-.138.41-.525.539-.8l.219-.586.269-.783c.174-.525.333-1.059.49-1.586q.445-1.608.87-3.135c.556-2.054,1.1-4.011,1.714-5.853A48.754,48.754,0,0,1,170.346,373.786Z" /></g><g data-name="default" id="default-3" transform="matrix(-1, 0, 0, 1, 380, 0)"><path class="cls-1" d="M259.039,440.066c-1.139-18.561-3.924-46.029-22.5-62.515-15.9-14.111-22.106-3.869-24.321-.71s-5.633,16.01-1.424,26.085,7.753,25.3,10.376,45.725c2.91,22.661,8.17,41.038,19.9,39.455C255.749,486.122,259.977,455.341,259.039,440.066Z" /><path class="cls-1" d="M210.791,402.926c4.766,11.192,7.753,25.3,10.376,45.725.905,7.045,1.157,17.674,4.9,23.9,6.514,8.047,10.966,14.1,14.134,24.482,8.195,12.7,20.607-5.517,13.8-14.435,11.131,9.151,15.872-14.66,5.476-17.982,13.84.454,14.559-19.137,3.332-24.321,6.966-5.8,5.076-17.894-3.326-21.3,4.127-6.582.2-14.373-5.965-17.855-1.149-9.618-9.584-17.695-16.988-23.6-15.9-14.111-24.32-.71-24.32-.71" /><path d="M212.163,376.809a6.113,6.113,0,0,1,1.5-2.376,12.772,12.772,0,0,1,4.99-3.429,13.63,13.63,0,0,1,8.511-.237,22.16,22.16,0,0,1,4.536,1.853l2.16,1.334a23.406,23.406,0,0,1,2.058,1.523c5.364,4.075,11,8.856,14.882,14.531a28.1,28.1,0,0,1,4.108,8.871c.082.312.1.45.15.676l.065.3c.036.088,0,.229.116.251l.48.265.115.065s.082.059.009,0l.109.076.434.3a18.346,18.346,0,0,1,2.922,2.565,17.473,17.473,0,0,1,2.5,3.5,15.755,15.755,0,0,1,1.5,4.23,13.907,13.907,0,0,1,.032,4.7l-.268,1.177a3.066,3.066,0,0,1-.086.307,4.355,4.355,0,0,1-.256.645c.163.085.368.153.541.227.2.1.426.248.631.366a.787.787,0,0,1,.086.054l.184.156.367.315.732.64c.474.441.873.952,1.307,1.435a15.983,15.983,0,0,1,3.169,7.006,16.2,16.2,0,0,1-.442,7.829c-.239.632-.479,1.268-.744,1.894l-.493.9-.125.225-.063.112.03-.059c-.014.027-.024.056-.04.081a3.266,3.266,0,0,1-.38.518,3.507,3.507,0,0,1,.439.209l.187.12.043.033c.006,0,.006,0,.006,0l.116.1.52.474a17.05,17.05,0,0,1,3.253,4.481,18.611,18.611,0,0,1,1.84,10.681,15.647,15.647,0,0,1-1.715,5.444,13.443,13.443,0,0,1-3.957,4.533,5.881,5.881,0,0,1-.636.432l-.33.2a.069.069,0,0,0-.027.014c-.03.023-.062.038-.091.057a.954.954,0,0,1-.175.072.9.9,0,0,1-.156.029c-.049,0,.011.015.044.028a.838.838,0,0,1,.1.045.8.8,0,0,1,.168.124.639.639,0,0,1,.062.067l.013.017.007.008a.507.507,0,0,0-.037-.086l.335.672a16.458,16.458,0,0,1,1.474,5.746,19.743,19.743,0,0,1-.35,5.6,15.317,15.317,0,0,1-2.224,5.473,10.1,10.1,0,0,1-3.657,3.388c-.341.164-.688.318-1.037.461a9.689,9.689,0,0,1-1.107.314l-.282.065c-.1.021-.207.045-.188.039l-.082.008-.164.021s.039.049.043.058l.012.018c0,.023,0-.146,0-.059v.681a7.269,7.269,0,0,1-.035.771,14.236,14.236,0,0,1-.168,1.515,18.516,18.516,0,0,1-5.4,10.557,11.9,11.9,0,0,1-6.171,3.2,9.928,9.928,0,0,1-3.949-.19,10.49,10.49,0,0,1-3.361-1.588,9.948,9.948,0,0,1-1.314-1.067l-.592-.562c-.18-.192-.342-.387-.511-.581a11.368,11.368,0,0,1-.935-1.181l-.554-.792-.329-.469c-.067-.178-.119-.364-.179-.545l-.436-1.379q-.157-.52-.34-1.027c-.233-.679-.467-1.357-.73-2.018a58.9,58.9,0,0,0-8.4-14.692c-.866-1.153-1.739-2.3-2.633-3.443l-.858-1.1c-.359-.638-.509-.946-.726-1.355a22.889,22.889,0,0,1-1.011-2.359,43.107,43.107,0,0,1-2.089-9.114c-.4-2.943-.6-5.791-.807-8.546-.1-1.369-.2-2.723-.327-4.021q-.208-2.017-.412-4.007c-.566-5.306-1.184-10.433-1.9-15.346a141.387,141.387,0,0,0-6.032-26.511,65.461,65.461,0,0,1,6.642,12.6,126.37,126.37,0,0,1,5.153,15.827c1.4,5.389,2.5,10.675,3.287,15.287.81,4.762,1.112,8.646,1.325,11.253a47.535,47.535,0,0,0,1.394,9.256c.21.693.426,1.379.689,2.014.114.339.277.616.414.925a1.635,1.635,0,0,0,.357.6c.991,1.338,1.972,2.7,2.938,4.059a81.986,81.986,0,0,1,5.352,8.533,58.724,58.724,0,0,1,3.927,9.132c.248.777.512,1.546.728,2.324l.17.582.066.26a2.173,2.173,0,0,0,.136.228l.256.388a7.139,7.139,0,0,0,2.589,2.384,3.728,3.728,0,0,0,2.954.105,7.29,7.29,0,0,0,2.908-2.086,13.076,13.076,0,0,0,3.157-7.069c.023-.32.081-.642.072-.959l.007-.559a4.8,4.8,0,0,0-.116-.8l-.15-.809a1.51,1.51,0,0,0-.187-.461l-.241-.49-.482-.977-.645-1.149-.658-1.161-.757-1.257c-.5-.85-1.006-1.635-1.506-2.427-.546-.877-.881-1.352-1.294-1.976l-.3-.446a.94.94,0,0,1-.091-.225l-.13-.392c2.315,1.726,6.324,4.606,8.855,6.09l.883.487.441.242a1,1,0,0,0,.389.166l.638.123.318.062c.11.022.112-.017.174-.022a2.458,2.458,0,0,0,.568-.171,2.135,2.135,0,0,0,.545-.284c1.455-.923,2.441-2.98,2.876-5.014a13.83,13.83,0,0,0-.066-6.234l-.208-.73-.266-.7c-.087-.233-.211-.44-.313-.662-.014-.036-.068-.134-.132-.248s-.146-.17-.216-.258l-.457-.479a3.144,3.144,0,0,0-.506-.48l-.878-.489-.878-.49c-.322-.172-.79-.389-1.178-.581-.843-.4-1.523-.761-2.642-1.245-1-.442-2.095-.946-3.028-1.336l.808-.193.2-.048.1-.024,0-.018.012-.069.024-.138c-.033-.016.088-.013.165-.015l.248,0,.5-.007c1.242-.008,2.867-.071,4.368-.178.766-.056,1.548-.106,2.231-.194l1.061-.118c.334-.05.585-.147.881-.218s.578-.148.852-.237a6.777,6.777,0,0,0,.658-.351,6.2,6.2,0,0,0,.783-.538,9.56,9.56,0,0,0,3.356-6.729,13.472,13.472,0,0,0-1.536-7.56,11.936,11.936,0,0,0-2.263-2.986l-.379-.339a4.049,4.049,0,0,0-.635-.487c-.469-.288-.917-.587-1.4-.866l-1.491-.815-1.465-.745c.556-.581,1.191-1.175,1.784-1.762l1.751-1.919c.124-.187.225-.3.366-.546l.183-.331c.109-.2.23-.4.334-.6.159-.435.345-.856.5-1.29a11.418,11.418,0,0,0,.28-5.463,11.209,11.209,0,0,0-2.18-4.852,12.935,12.935,0,0,0-.869-.965l-.481-.425-.238-.215a.826.826,0,0,0-.138-.113l-.247-.145c-.669-.382-1.3-.78-2-1.147-.723-.356-1.481-.7-2.175-1.067l1.022-1.9.937-1.973c.036-.082.1-.266.122-.339l.031-.132.064-.263.132-.524.12-1.069a9.749,9.749,0,0,0-.795-4.248,12.826,12.826,0,0,0-2.43-3.721,14.388,14.388,0,0,0-1.642-1.512l-.446-.331-.111-.083-.055-.041-.1-.073-.053-.035-.422-.27-.844-.534-.422-.267c-.061-.049-.158-.078-.192-.144l-.039-.235-.312-1.874-.077-.468c-.025-.136-.049-.195-.073-.3l-.143-.548a20.109,20.109,0,0,0-.682-2.165,26,26,0,0,0-2.038-4.1,42.986,42.986,0,0,0-5.677-7.269c-2.065-2.164-4.647-4.561-7.523-7.071l-2.079-1.857c-.724-.561-1.475-1.075-2.213-1.625a7.978,7.978,0,0,0-1.157-.709l-1.177-.661a7.165,7.165,0,0,0-1.21-.536l-1.219-.485a12.047,12.047,0,0,0-9.112.619A14.062,14.062,0,0,0,212.163,376.809Z" /><g class="cls-5"><path d="M252.469,432.706a1.093,1.093,0,0,1,.8.121,4.963,4.963,0,0,1,1.343.84,12.145,12.145,0,0,1,2.96,3.781,12.906,12.906,0,0,1,1.464,5.56c-.023.491-.008.973-.072,1.445-.09.472-.154.936-.271,1.373l-.445,1.237c-.08.192-.194.363-.285.536l-.142.253-.069.122-.017.03,0,.008c0,.011,0,.006.025-.048l0,.006-.008.026a2.212,2.212,0,0,1-.755,1.119l-.019.019.079.019.155.037c.1.026.2.045.291.075.185.053.351.105.5.163s.279.114.4.167l.163.082a.716.716,0,0,1,.227.18,12.1,12.1,0,0,1,2.943,6.026,12.834,12.834,0,0,1-.579,6.811,11.066,11.066,0,0,1-1.833,3.186,10.813,10.813,0,0,1-2.886,2.449l-.186.116v.024a.071.071,0,0,0,.013.033.125.125,0,0,0,.046.031l0,0h-.009l-.006,0c-.006-.008.012.026.016.043l.092.378a13.6,13.6,0,0,1-.108,5.838,12.765,12.765,0,0,1-2.489,5.162,9.679,9.679,0,0,1-5.4,3.379c-.58-.012-1.218.012-1.717-.034a10.423,10.423,0,0,1-3.722-1.123,11.793,11.793,0,0,1-3.506-2.791,12.213,12.213,0,0,1-2.942-6.675,19.085,19.085,0,0,0,7.218,3.4,8.257,8.257,0,0,0,2.619.083,2.811,2.811,0,0,0,.425-.059,1.53,1.53,0,0,1,.165-.016v-.018a.379.379,0,0,0,.034.079c.011.093.151.044.3.051.16.027.3-.083.469-.124a2.9,2.9,0,0,0,.986-.695,6.221,6.221,0,0,0,1.442-2.557c.059-.249.133-.5.186-.754l.1-.764c.018-.253,0-.5.01-.756a1.488,1.488,0,0,0-.026-.369,3.418,3.418,0,0,0-.11-.555c-.029-.453-.658-.957-1.081-1.444l-.67-.724-.9-.848c-.587-.557-1.155-1.1-1.79-1.645-.586-.512-1.291-1.153-1.655-1.438l.381-.07a1,1,0,0,1,.528-.014c.583.069,1.1.143,1.706.2,1.215.119,2.463.208,3.627.238.559,0,1.163.035,1.632-.006l.74-.04a2.825,2.825,0,0,0,.566-.161,5.227,5.227,0,0,0,.5-.18l.282-.167a4.649,4.649,0,0,0,.532-.376,6.386,6.386,0,0,0,2.086-4.732,7.7,7.7,0,0,0-1.454-4.747,6.393,6.393,0,0,0-1.034-1.1l-1.1-.63c-.4-.206-.868-.4-1.3-.608-.9-.4-1.882-.817-2.8-1.178l-.7-.281-.64-.24-.635-.236-.317-.119a.923.923,0,0,1-.18-.115l2.466-.952c.935-.4,1.964-.8,2.837-1.2l1.291-.6.64-.3a2.539,2.539,0,0,0,.426-.359l.318-.434a1.7,1.7,0,0,0,.185-.375,7.279,7.279,0,0,0,.5-3.68,22.284,22.284,0,0,0-1.006-4.843A15.024,15.024,0,0,0,252.469,432.706Z" /></g></g></svg>