<svg xmlns="http://www.w3.org/2000/svg" id="waves" viewBox="0 0 380 600">
  <defs>
    <style>
      .cls-1 {
        fill:#ffffff;
      }

      .cls-2, .cls-3 {
        fill: #fff;
      }

      .cls-4 {
        fill: #59d3d3;
      }

      .cls-3 {
        isolation: isolate;
        opacity: .5;
      }
    </style>
  </defs>
  <g id="comp-7">
    <g id="Layer_53" data-name="Layer 53">
      <path class="cls-2" d="m215.06,447.44c.04.23,0,.71.09.8.11.12.32.05.59.09-.34.06-.56-.01-.61.13-.09.21-.04.53-.05.77-.07-.32,0-.69-.12-.77-.13-.09-.5-.1-.73-.11.17-.04.58.04.71-.1.1-.11.12-.6.13-.8h-.01Z"></path>
      <path class="cls-3" d="m289.9,467.3c-1.67-1.88-3.56-3.14-5.02-4.08-.94,2.3-1.52,5.41-1.78,8.27-1.57-2.51-2.3-3.87-3.66-5.76-1.15,1.67-2.47,3.89-3.24,6.49-1.1-2.91-.63-4.92-1.99-7.01-1.26.94-3.14,2.41-5.55,6.17.31-3.56,0-6.17-.94-8.27-1.42.89-5.55,4.71-6.07,4.5-.52-.21,1.29-5.99-.21-5.76-.55.09-2.04,1.16-3.7,2.49.64-.11,1.23-.26,1.71-.46-1.19,2.62-3.69,7.22-3.14,9.64,2.64.92,5.35-1.17,8.12-2.01-1.7,2.67-2.31,6.77-2.5,9.98,3.59-.48,6.65-3,9.45-5.42-.64,4.03.57,7.27,2,9.35,2.53-1.39,4.5-4.85,5.83-8.2,1.6,3.31,4.96,5.68,8.07,7.42.68-3.67.6-7.11,1.28-10.77,2.09,2.31,5.17,3.12,7.11,3.4.48-4.9-.4-6.86-1.17-10.33,2.75,2.89,7.44,3.42,8.25,3-1.97-3.07-3.71-5.97-5.29-8.72-2.03-1.03-4.12-2.12-6.2-3.45-.63,2.93-1.54,7.02-1.36,9.52h0Z"></path>
      <g>
        <g>
          <g>
            <g>
              <path class="cls-1 color-body" d="m266.2,419.89c-9.92,1.51-24.05,9.18-30.01,12.59-6.18,3.54-11.3,8.9-12.16,15.12s3.56,13.1,10.83,14.64c3.67.77,7.57.17,11.12-.91,12.66-3.86,26.54-9.39,33.3-25.6" style="fill:#ffffff;--backup-fill:#ffffff"></path>
              <path d="m279.32,435.74c.1.32-.28,1.65-1.07,3.53-.86,1.84-2.11,4.27-3.93,6.56-1.78,2.31-3.94,4.6-6.17,6.38-2.21,1.8-4.36,3.26-5.93,4.24-2.74,1.78-5.78,3.32-8.94,4.64-1.58.66-3.2,1.28-4.82,1.86-1.59.57-3.33,1.19-5.16,1.59-3.61.81-7.69,1.03-11.58-.42-3.85-1.4-7.05-4.28-8.91-7.78-.82-1.53-1.4-3.21-1.68-4.96-.05-.44-.12-.88-.15-1.32l-.03-1.34c.02-.45.06-.9.1-1.35.05-.44.14-.86.21-1.29.7-3.39,2.38-6.36,4.4-8.76,2.03-2.41,4.39-4.34,6.85-5.93,1.23-.8,2.52-1.48,3.68-2.1,1.19-.62,2.37-1.23,3.55-1.81,4.71-2.32,9.34-4.28,13.77-5.77,4.42-1.48,8.68-2.47,12.56-2.68-1.61.9-3.48,1.91-5.42,3.04-1.92,1.14-3.97,2.36-5.96,3.54-3.94,2.38-7.63,4.59-9.75,5.43-2.13.85-4.21,1.75-6.23,2.69-.5.24-1,.47-1.5.71-.47.24-.95.46-1.4.72-.92.49-1.8,1.05-2.65,1.63-3.36,2.33-6.12,5.41-7.35,8.96-.59,1.78-.81,3.59-.49,5.37.31,1.77,1.02,3.46,2.04,4.9,2.06,2.9,5.25,4.71,8.54,5.15,3.32.46,6.67-.22,9.74-1.22,3.19-1.05,6.22-2.13,9.06-3.36,5.67-2.45,10.59-5.36,14.53-8.88,1.86-1.67,4.38-4.03,6.27-6.48.51-.59.9-1.22,1.33-1.78.42-.57.82-1.09,1.12-1.6.64-1,1.13-1.76,1.37-2.14v.03Z"></path>
            </g>
            <g>
              <path class="cls-4" d="m234.27,432.37c4.31,34.31-9.72,70.19-.67,103.48.5,1.84,2.14,3.18,4.11,3.34,8.47.7,31.68,1.96,45.14-3.67,16.37-6.84,41.9-20.98,47.12-31.79.17-.35.01-.76-.34-.94-3.61-1.82-21.98-11.5-30.51-23.65-9.47-13.51-13-40.76-14.36-47.73-1.15-5.92-3.13-14.32-6.85-16.4-1.18-.66-2.61-.74-3.88-.27l-36.68,13.68c-2.35,1.13-3.41,1.43-3.09,3.95h0Z"></path>
              <path d="m234.23,432.37c-.07-.18-.2-.57-.2-1.18,0-.3.05-.67.22-1.03.17-.37.49-.71.9-1,1.62-1.12,3.92-1.91,6.6-3.01,5.4-2.16,12.57-4.94,20.26-7.9,3.86-1.48,7.84-3.01,11.81-4.53,1.22-.43,2.58-.45,3.81-.01,1.26.45,2.25,1.34,2.94,2.25,1.42,1.84,2.25,3.84,2.96,5.79,1.37,3.92,2.17,7.7,2.84,11.16.64,3.43,1.21,6.48,1.76,9.02,1.93,8.92,4.2,18.16,7.9,26.87.43,1.1.99,2.13,1.48,3.21.5,1.07,1.11,2.06,1.66,3.09.6.99,1.25,1.94,1.89,2.9.73.9,1.38,1.85,2.2,2.7,3.11,3.51,6.79,6.66,10.7,9.5,3.91,2.86,8.06,5.47,12.32,7.84l1.6.88,2.27,1.21c.51.27,1.08.52,1.35.9.33.36.73.64.9,1.09.1.22.18.48.23.72.04.26.1.47-.05.72l-.61,1.46-.61,1.47c-.11.25-.18.49-.33.74-.14.23-.32.43-.42.57l-1.25,1.64c-.42.54-.89.99-1.34,1.49-.46.47-.89,1-1.37,1.43-3.75,3.64-7.81,6.64-11.93,9.43-4.13,2.78-8.33,5.29-12.56,7.62-3.7,2.03-7.44,3.97-11.25,5.77-1.91.89-3.82,1.77-5.75,2.6-.93.43-1.99.82-3.04,1.21-1.05.42-2.1.68-3.15,1-4.22,1.17-8.43,1.8-12.61,2.22-4.18.41-8.33.57-12.44.59-4.11.01-8.18-.13-12.22-.38-1.01-.07-2.02-.15-3.02-.22l-.75-.06-.38-.03-.55-.06c-.78-.12-1.55-.36-2.27-.71-1.43-.71-2.64-1.88-3.36-3.34-.18-.36-.33-.74-.45-1.13-.07-.22-.1-.35-.12-.46l-.08-.37-.33-1.49c-1.88-7.9-2.56-15.84-2.5-23.49.15-15.33,2.52-29.52,4.06-42.62,1.67-13.1,2.38-25.2,1.5-35.94,1.1,4.71,2.19,10.68,2.48,17.19.38,6.5.31,13.52-.05,20.28-.33,6.77-.85,13.31-1.25,18.96-.4,5.63-.74,10.42-.98,13.71-.48,6.6-.7,13.12-.16,19.47.08,1.6.36,3.15.53,4.73l.29,2.35.47,2.3.47,2.3c.16.72.31,1.7.45,1.95.33.81,1.17,1.45,2.13,1.57,6.16.63,12.4.96,18.46.92,6.07-.03,12.05-.45,17.79-1.5,2.85-.58,5.64-1.3,8.26-2.34,2.68-1.11,5.33-2.26,7.92-3.49,5.18-2.44,10.19-5.06,14.98-7.85,4.79-2.8,9.37-5.77,13.59-9.03,1.06-.81,2.05-1.68,3.07-2.52.95-.9,1.95-1.75,2.83-2.69l1.31-1.41c.43-.47.78-.99,1.17-1.48l.51-.66.3-.51.29-.51c.09-.16.23-.34.15-.54-.06-.2-.27-.27-.44-.36l-.52-.26-1.37-.73c-1.15-.62-2.29-1.26-3.41-1.92-2.24-1.31-4.45-2.65-6.57-4.08-4.27-2.82-8.29-5.91-11.95-9.32-.91-.86-1.78-1.76-2.64-2.66-.81-.95-1.69-1.83-2.43-2.85l-1.14-1.48-1.02-1.57c-.71-1.03-1.28-2.11-1.85-3.19-2.27-4.32-3.92-8.78-5.32-13.2-2.76-8.86-4.47-17.64-5.89-26.08-.7-4.21-1.44-8.27-2.59-12.1-.57-1.9-1.26-3.74-2.17-5.31-.46-.76-.98-1.45-1.53-1.91-.53-.45-1.14-.67-1.83-.69-.32,0-.65.03-.98.13-.13.04-.37.12-.61.21-.24.08-.48.17-.72.26-.97.34-1.97.7-2.99,1.06-2.06.71-4.22,1.46-6.43,2.22-4.43,1.48-9.04,3.03-13.35,4.48-4.32,1.41-8.35,2.73-11.6,3.79-.41.13-.8.26-1.18.38-.19.07-.38.11-.54.18-.18.08-.35.15-.52.22-.69.3-1.3.54-1.78.91-.49.36-.72.91-.79,1.37-.07.47-.04.88-.03,1.2l-.04-.03Z"></path>
            </g>
          </g>
          <g>
            <path class="cls-4" d="m239.66,431.83c13.38,30.47-1.68,66.25,6.83,98.31"></path>
            <path d="m246.46,530.15c-.2-.15-.56-1.16-1.02-2.66-.42-1.51-.89-3.54-1.27-5.74-.79-4.39-1.16-9.45-1.39-12.26-.93-9.95-.1-21.35.33-31.5.39-8.89.65-17.63.02-25.52-.56-7.9-2.18-14.89-3.98-20.4,1.78,2.03,3.8,5.44,5.15,8.92,1.4,3.46,2.13,6.93,2.24,8.76.4,7.4.09,14.25-.25,20.65-.36,6.4-.8,12.38-1.08,17.99-.61,11.22-.51,20.93.1,29.38.1,1,.17,2.19.26,3.43.12,1.23.17,2.54.31,3.74.21,2.43.53,4.52.59,5.22h0Z"></path>
          </g>
          <g>
            <path class="cls-4" d="m259.5,426.2c11.3,12.63,14.32,30.09,16.93,46.58,2.61,16.5,5.71,33.96,17.1,46.5"></path>
            <path d="m293.51,519.3c-.25-.05-1.03-.79-2.13-1.95-1.05-1.2-2.37-2.85-3.61-4.75-2.54-3.77-4.66-8.49-5.77-11.14-2.08-4.64-3.61-9.88-4.86-15.2-1.24-5.32-2.14-10.74-3.04-15.82-1.55-8.88-3.17-17.57-5.66-25.17-1.24-3.79-2.66-7.32-4.28-10.45-1.61-3.14-3.38-5.88-5.08-8.26,2.33,1.4,5.31,4.12,7.57,7.17,2.32,3.02,3.88,6.27,4.45,8.05,2.19,7.21,3.4,14.05,4.46,20.46,1.05,6.41,1.87,12.42,2.94,17.99,2.05,11.17,5.04,20.55,8.77,28.19.48.89,1,1.97,1.56,3.09.62,1.08,1.17,2.28,1.84,3.31,1.21,2.14,2.5,3.85,2.86,4.47h-.02Z"></path>
          </g>
          <g>
            <path class="cls-4" d="m252.28,428.99c10.78,12.36,12.18,33.64,14.36,49.83,2.19,16.19,5.16,33.52,16.62,45.25"></path>
            <path d="m283.25,524.1c-.25-.04-1.06-.77-2.22-1.9-.55-.59-1.15-1.31-1.81-2.1-.65-.79-1.26-1.72-1.94-2.64-2.61-3.8-4.69-8.61-5.82-11.28-2-4.73-3.52-10.05-4.63-15.46-1.12-5.41-1.93-10.89-2.66-16.09-1.26-9.07-2.31-17.97-4.2-25.85-.94-3.93-2.04-7.62-3.43-10.88-1.37-3.27-2.99-6.12-4.67-8.54,1.11.77,2.52,1.77,3.73,3.14.32.34.64.68.96,1.02.3.36.59.74.88,1.12.58.77,1.19,1.54,1.67,2.37,2.1,3.24,3.37,6.66,3.81,8.49,1.58,7.44,2.32,14.39,3.06,20.91.7,6.52,1.4,12.59,2.34,18.26.94,5.65,2.05,10.89,3.47,15.66s3.09,9.07,4.97,12.93c.43.93,1.04,1.97,1.59,3.11.64,1.08,1.23,2.27,1.91,3.31,1.28,2.13,2.63,3.82,3.02,4.42h-.03Z"></path>
          </g>
        </g>
        <g>
          <path class="cls-4" d="m286.62,440.75l-.05.23c-1.42,6.19-4.18,12.03-8.1,17.12h0"></path>
          <path d="m278.47,458.11c-.18-.24.21-.87.62-1.62.43-.74.91-1.58,1.07-2.11.61-1.84,1.53-3.76,2.22-5.57,1.23-3.13,2.53-6.12,3.82-8.15,1,1.25,1.3,3.46.86,4.08-1.71,2.5-2.76,4.72-3.69,6.74-.93,2.01-1.72,3.81-2.85,5.09-.49.65-1.82,1.38-2.06,1.53h.01Z"></path>
        </g>
      </g>
    </g>
  </g>
</svg>