<svg xmlns="http://www.w3.org/2000/svg" id="sports" viewBox="0 0 380 600"><defs transform="matrix(-1, 0, 0, 1, 380, 0)"><style>.cls-1{fill:#feb331;}.cls-2{fill:#fff1b6;}.cls-3{fill:#ff8717;}.cls-4{fill:#ffffff;}</style></defs><g id="basketball" transform="matrix(-1, 0, 0, 1, 380, 0)"><circle class="cls-1" cx="115.18" cy="407.45" r="52.557" /><path d="M62.684,407.45a13.283,13.283,0,0,1,.564,2.96c.119.792.16,1.729.351,2.77l.675,3.448A54.559,54.559,0,0,0,71.4,434.146a51.962,51.962,0,0,0,15.109,15.473,46.326,46.326,0,0,0,16.243,6.8,50.94,50.94,0,0,0,23.977-.585l2.966-.84c.975-.325,1.922-.744,2.887-1.108a48.589,48.589,0,0,0,5.613-2.63,10.178,10.178,0,0,0,1.343-.78l1.314-.836,1.316-.832.656-.418.615-.48L145.9,446l.618-.475.569-.535,1.136-1.069a49.759,49.759,0,0,0,7.971-9.537,48.266,48.266,0,0,0,2.976-5.439c.418-.942.913-1.851,1.273-2.814l1.025-2.906c.16-.486.368-.958.491-1.454l.363-1.492.735-2.968q.213-1.512.424-3.018a19.873,19.873,0,0,0,.311-3.015q.061-1.512.124-3.017l.033-.751c0-.251-.029-.5-.042-.75l-.093-1.5c-.069-1-.1-1.991-.194-2.976q-.24-1.465-.478-2.923a49.317,49.317,0,0,0-40.2-39.971,50.122,50.122,0,0,0-48.517,19.176,54.2,54.2,0,0,0-7.73,14.257,58.871,58.871,0,0,0-2.934,14.629A45.458,45.458,0,0,1,63.8,391.9a49.908,49.908,0,0,1,6.851-17.318,33.663,33.663,0,0,1,2.71-3.88l1.462-1.82.729-.9c.253-.288.529-.55.792-.824,1.067-1.078,2.112-2.148,3.161-3.155l3.285-2.67.794-.632.83-.548,1.62-1.044a27.453,27.453,0,0,1,3.079-1.816c1.01-.5,1.962-.952,2.846-1.36.443-.2.865-.4,1.276-.572l1.208-.4c1.549-.464,3.054-1.025,4.608-1.391l4.658-.989c1.564-.212,3.129-.363,4.677-.542.387-.04.773-.093,1.16-.122l1.167-.017,2.32-.03c.771,0,1.54-.035,2.3-.012l2.29.194a37.3,37.3,0,0,1,4.52.519c1.485.288,2.971.525,4.428.853l4.29,1.241a58.846,58.846,0,0,1,15.443,7.907l3.351,2.616c1.06.928,2.058,1.919,3.081,2.869a34.794,34.794,0,0,1,2.843,3.048l1.368,1.556c.444.526.821,1.105,1.233,1.653l1.207,1.662a16.559,16.559,0,0,1,1.149,1.688l2.068,3.5c.658,1.175,1.169,2.423,1.756,3.623.274.609.591,1.2.827,1.82l.672,1.876.667,1.869.333.931c.094.315.164.637.248.955q.48,1.911.956,3.808c.292,1.269.412,2.567.624,3.841l.285,1.913c.056.641.07,1.284.107,1.923q.088,1.92.177,3.824-.1,1.9-.191,3.793c-.042.629-.039,1.261-.119,1.883l-.279,1.86c-.2,1.233-.332,2.478-.6,3.689a56.592,56.592,0,0,1-2.045,7.094l-.621,1.721-.31.858c-.114.281-.256.551-.382.826q-.778,1.644-1.552,3.274a54.289,54.289,0,0,1-8.09,11.633,55.753,55.753,0,0,1-4.943,4.868c-.851.772-1.8,1.414-2.7,2.122a27.44,27.44,0,0,1-2.768,1.981,53.876,53.876,0,0,1-48.793,5.528,52.724,52.724,0,0,1-19.122-12.462c-1.2-1.282-2.454-2.731-3.738-4.276q-.866-1.238-1.772-2.53a22.479,22.479,0,0,1-1.71-2.69l-1.566-2.846a10.867,10.867,0,0,1-.7-1.472l-.638-1.5c-.4-1.008-.886-1.975-1.2-3s-.622-2.03-.926-3.023q-.225-.741-.445-1.47-.149-.747-.3-1.478c-.189-.97-.372-1.917-.55-2.831a19.6,19.6,0,0,1-.332-2.663c-.074-.852-.145-1.666-.212-2.434q-.048-.573-.094-1.112c.006-.361.01-.71.015-1.046.013-.669.025-1.285.036-1.842C62.648,408.894,62.669,408.025,62.684,407.45Z" /><path class="cls-2" d="M116,359.62a10.59,10.59,0,0,1-2.867.51l-1.275.128a9.312,9.312,0,0,0-1.423.2l-3.158.579c-4.378.964-9.2,2.67-11.592,4.182a51.758,51.758,0,0,0-12.326,9.366,49.06,49.06,0,0,0-8.886,12.79,48,48,0,0,0-4.014,12.358q-.258,1.581-.512,3.139c-.12,1.046-.147,2.093-.231,3.127a39.446,39.446,0,0,0-.047,6.105,54.141,54.141,0,0,0,5.42,20.353,24.229,24.229,0,0,1-3.252-3.668,32.449,32.449,0,0,1-2.915-4.927,27.064,27.064,0,0,1-2.683-8.994c-.115-1.931-.133-3.828-.069-5.686q.032-.7.065-1.387.072-.687.145-1.37.139-1.359.277-2.7a20.874,20.874,0,0,1,.427-2.627q.249-1.294.495-2.568c.372-1.686.926-3.3,1.355-4.913a53.117,53.117,0,0,1,8.808-16.473,50.643,50.643,0,0,1,12.135-11.082l1.627-1.016a13.121,13.121,0,0,1,1.639-.93l3.308-1.608c1.105-.476,2.239-.832,3.331-1.23.55-.189,1.091-.39,1.637-.556l1.656-.383a31.229,31.229,0,0,1,3.568-.688c1.31-.113,2.67-.208,3.935-.284C113.125,359.381,115.3,359.582,116,359.62Z" /><ellipse class="cls-2" cx="95.303" cy="385.954" rx="17.738" ry="12.688" transform="translate(-260.116 207.853) rotate(-49.514)" /><path class="cls-2" d="M104.93,394.172c-.044-.522,2.4-3.373,3.679-7.378a16.979,16.979,0,0,0,.931-6.163,10.583,10.583,0,0,0-1.3-4.734,9.343,9.343,0,0,0-2.112-2.415,8.5,8.5,0,0,0-2.87-1.445,9.943,9.943,0,0,0-3.3-.346,14.12,14.12,0,0,0-1.7.189,17.22,17.22,0,0,0-1.685.435A21.166,21.166,0,0,0,85.7,380.849a18.629,18.629,0,0,0-3.4,10.819,9.651,9.651,0,0,0,1.436,4.875,7.8,7.8,0,0,0,3.694,2.959,10.466,10.466,0,0,0,4.837.573,16.886,16.886,0,0,0,4.75-1.246,20.988,20.988,0,0,0,4.122-2.259,28.121,28.121,0,0,0,3.383-2.748,17.1,17.1,0,0,1-6.6,7.576,16.066,16.066,0,0,1-5.006,2.087,10.621,10.621,0,0,1-4.135.111,11.957,11.957,0,0,1-5.45-2.548,11.13,11.13,0,0,1-3.259-4.667,14.163,14.163,0,0,1-.829-5.222,20.527,20.527,0,0,1,.816-4.9,24.7,24.7,0,0,1,4.339-8.187,25.479,25.479,0,0,1,6.406-5.838,19.071,19.071,0,0,1,7.685-2.909,13.387,13.387,0,0,1,4.032.051,11.436,11.436,0,0,1,3.745,1.375,10.554,10.554,0,0,1,4.565,5.965,14.5,14.5,0,0,1,.3,6.863,17.668,17.668,0,0,1-2.826,6.7c-.359.493-.682.978-1.027,1.4l-.975,1.142C105.664,393.468,105.171,393.938,104.93,394.172Z" /><path class="cls-3" d="M146.871,437.021c-.745-5.365-15.915-5.364-29.694-3.45s-28.271,4.539-27.526,9.9,16.445,11.61,30.224,9.7S147.616,442.385,146.871,437.021Z" /><path class="cls-3" d="M146.9,437.016a2.1,2.1,0,0,1,.145,1.212,5.893,5.893,0,0,1-.944,2.419A20.451,20.451,0,0,1,140.555,446a55.7,55.7,0,0,1-14.514,6.9,40.332,40.332,0,0,1-9.962,1.983,44.591,44.591,0,0,1-10.6-.629,41.187,41.187,0,0,1-10.316-3.2,20.869,20.869,0,0,1-4.74-3.013,9.313,9.313,0,0,1-2.021-2.437,5.648,5.648,0,0,1-.633-1.771,4.7,4.7,0,0,1,.123-2.077,5.913,5.913,0,0,1,1.742-2.667,11.021,11.021,0,0,1,2.133-1.513,25.151,25.151,0,0,1,4.3-1.84,67.614,67.614,0,0,1,8.506-2.133c2.805-.542,5.576-.965,8.3-1.339s5.39-.7,8.038-.933a84.332,84.332,0,0,1,15.053-.112,30.887,30.887,0,0,1,6.741,1.325,10.534,10.534,0,0,1,2.985,1.519,5.057,5.057,0,0,1,1.183,1.247,3.759,3.759,0,0,1,.564,1.631,3.8,3.8,0,0,0-2.1-2.158,10.558,10.558,0,0,0-3.067-.786,41.058,41.058,0,0,0-6.84-.1c-4.591.247-8.908.794-11.2.842-4.6.1-9.118.552-13.479,1.062a89.246,89.246,0,0,0-12.478,2.268,24.336,24.336,0,0,0-5.493,2.128,5.949,5.949,0,0,0-1.979,1.69,2.1,2.1,0,0,0-.206,2.09A5.722,5.722,0,0,0,92.1,446a14.051,14.051,0,0,0,2.167,1.605,27.581,27.581,0,0,0,4.868,2.317,43.588,43.588,0,0,0,19.712,2.3A55.544,55.544,0,0,0,135.47,447.1a44.58,44.58,0,0,0,7.869-4.727,12.627,12.627,0,0,0,2.823-3A4.2,4.2,0,0,0,146.9,437.016Z" /><path d="M95.771,456.5a11.525,11.525,0,0,1,3.021.509l1.2.286c.179.019.353-.118.535-.172.229-.093.468-.174.7-.281a16.09,16.09,0,0,0,2.848-1.638,16.55,16.55,0,0,0,4.617-5.164,20.6,20.6,0,0,0,2.157-5.294,42.872,42.872,0,0,0,.57-16.139,55.926,55.926,0,0,0-4.679-15.8,71.218,71.218,0,0,0-15.765-21.794c-6.164-5.788-12.924-9.665-18.895-11.306.709-.047,1.51-.068,2.381-.062a19.411,19.411,0,0,1,2.739.284,21.3,21.3,0,0,1,2.911.652,22.9,22.9,0,0,1,2.9.98,28.2,28.2,0,0,1,8.47,5.022,71.315,71.315,0,0,1,7.828,8.619,78.011,78.011,0,0,1,6.057,8.98c.46.742.875,1.5,1.266,2.268s.813,1.506,1.186,2.264c.7,1.54,1.464,3.019,2.038,4.555a58.262,58.262,0,0,1,2.964,9.041,49.537,49.537,0,0,1,1.264,17.233c-.617,5.39-2.483,10.478-5.815,14.1a15.756,15.756,0,0,1-3.027,2.543,16.1,16.1,0,0,1-3.887,1.733l-1.056.276a.622.622,0,0,1-.541-.067l-.493-.189-1.531-.621Z" /><path d="M136.914,360.167c.351.128,1.167,2.063,2.3,4.234a52.652,52.652,0,0,0,3.4,5.849c3.18,4.455,6.7,9.58,10.141,14.05,5.962,7.842,11.871,15.483,15.366,21.053-3.143-1.062-7.764-4.557-8.8-6.322-4.289-6.97-8.447-12.687-12.069-17.833s-6.706-9.713-8.6-14.17A24.59,24.59,0,0,1,136.914,360.167Z" /><path d="M68.049,430.885a5.582,5.582,0,0,1-1.225-3.232,12,12,0,0,1,.118-3.32,19.007,19.007,0,0,1,1.125-3.739c2.107-5.072,6.2-9.739,8.466-12.247,8.028-9.023,19.768-16.636,30.94-22.01,9.793-4.7,20.184-8.074,30.052-9.2a42.872,42.872,0,0,1,14.116.447,18.938,18.938,0,0,1,6.018,2.42,10.16,10.16,0,0,1,3.865,4.481,11.163,11.163,0,0,0-4.641-3.176,21.708,21.708,0,0,0-6.07-1.133c-4.14-.218-8.059.3-10.141.338a77.27,77.27,0,0,0-23.524,4.787,110.269,110.269,0,0,0-19.331,9.2,105.491,105.491,0,0,0-15.176,10.988,67.356,67.356,0,0,0-10.958,11.885,26.318,26.318,0,0,0-3.756,7.465,10.483,10.483,0,0,0-.378,3.769A9.879,9.879,0,0,0,67.783,430C67.9,430.385,67.989,430.686,68.049,430.885Z" /><path d="M91.466,361.309a5.753,5.753,0,0,1,3.369-1.23,11.65,11.65,0,0,1,3.441.183,19.209,19.209,0,0,1,3.86,1.236c5.235,2.268,9.978,6.629,12.573,8.994,9.216,8.5,16.97,20.786,22.336,32.5a94.085,94.085,0,0,1,8.345,28.7,41.957,41.957,0,0,1-.546,13.581,18.661,18.661,0,0,1-2.389,5.877,10.476,10.476,0,0,1-4.468,3.881l.084-.048c-1.755,1.034-2.925,1.683-4.051,2.3q1.372-1.482,3.395-3.308l.036-.02a9.618,9.618,0,0,0,2.94-3.812,17.479,17.479,0,0,0,1.266-4.743,77.04,77.04,0,0,0,.391-7.846,57.837,57.837,0,0,0-.99-12.73,87.379,87.379,0,0,0-3.046-11.8,110.982,110.982,0,0,0-9.183-20.254,108.9,108.9,0,0,0-11.181-15.943,69.787,69.787,0,0,0-12.2-11.569,27.377,27.377,0,0,0-7.7-4.033,10.625,10.625,0,0,0-3.911-.43,9.669,9.669,0,0,0-1.452.233Z" /></g><path class="cls-4 color-body" d="M120.2,461.139c-3.689,7.891-15.734,10.057-26.9,4.836s-15.937-14.4-14.57-23.052c1.19-7.534,6.859-15.37,18.028-10.149S123.889,453.247,120.2,461.139Z" transform="matrix(-1, 0, 0, 1, 380, 0)" style="fill:#ffffff;--backup-fill:#ffffff" /><path d="M120.145,461.113c-.206-.371.143-1.577-.243-3.316a17.531,17.531,0,0,0-2.939-6.092,43.916,43.916,0,0,0-10.533-10.251,76.535,76.535,0,0,0-7.879-4.6,27.945,27.945,0,0,0-4.113-1.726,12.8,12.8,0,0,0-3.876-.729,6.719,6.719,0,0,0-5.7,2.853,13.968,13.968,0,0,0-2.41,7.086,16.53,16.53,0,0,0,4.3,12.095,25.276,25.276,0,0,0,5.144,4.45c.951.645,1.965,1.2,2.969,1.757,1.023.489,2.033.989,3.076,1.373a24.747,24.747,0,0,0,12.274,1.678,12.747,12.747,0,0,0,8.948-5.037,8.88,8.88,0,0,1-1.937,5.783,14.945,14.945,0,0,1-6.121,4.6,19.823,19.823,0,0,1-7.138,1.56,20.462,20.462,0,0,1-2.994-.136,16.6,16.6,0,0,1-2.248-.508,42.492,42.492,0,0,1-6.723-3.129,43.466,43.466,0,0,1-5.713-4.066,27.53,27.53,0,0,1-7.841-10.709A22.287,22.287,0,0,1,77,447.861a21.332,21.332,0,0,1,.4-6.119,20.275,20.275,0,0,1,2.032-5.592,14.068,14.068,0,0,1,3.86-4.545,11.068,11.068,0,0,1,5.547-2.174,14.711,14.711,0,0,1,5.6.494,35.12,35.12,0,0,1,9.084,4.262,51.181,51.181,0,0,1,13.2,11.734,22.888,22.888,0,0,1,4.237,8.506,10.424,10.424,0,0,1,.191,4.362A5.9,5.9,0,0,1,120.145,461.113Z" transform="matrix(-1, 0, 0, 1, 380, 0)" /></svg>