<svg xmlns="http://www.w3.org/2000/svg" id="n" viewBox="0 0 380 600"><defs><style>.ap{fill:#f9c5d2;}.aq,.ar{fill:#fff;}.as{fill:#7cdcf2;}.at{fill:#121212;}.au{opacity:.15;}.ar{opacity:.25;}</style></defs><g id="o"><path class="as" d="m364.06,54.01c-10.57-35.62-56.68-40.19-76.69-10.91-21-26.83-63.23-24.53-77.17,10.77,51.28-7.31,102.57-7.26,153.85.14Z"></path><path class="ap" d="m286.66,76.65c20.23,0,40.46.34,60.69,1.01,6.08.2,12.16.45,18.24.71.76-5.05.89-10.28.26-15.67-.36-3.08-.97-5.98-1.78-8.7-51.28-7.4-102.57-7.45-153.85-.14-1.09,2.75-2.02,5.68-2.74,8.84-1.2,5.28-1.41,10.54-.79,15.71,6.43-.28,12.86-.54,19.3-.76,20.23-.68,40.46-1.01,60.69-1.01Z"></path><path class="aq" d="m286.66,104.88c20.23,0,40.46-.34,60.69-1.01,2.97-.1,5.93-.21,8.9-.33,4.64-7.75,7.99-16.18,9.34-25.17-6.08-.26-12.16-.51-18.24-.71-20.23-.68-40.46-1.01-60.69-1.01s-40.46.34-60.69,1.01c-6.43.21-12.86.47-19.3.76,1.03,8.68,4.38,17.13,9.25,25.08,3.35.13,6.7.26,10.05.37,20.23.68,40.46,1.01,60.69,1.01Z"></path><path class="ap" d="m331.97,131.2c9.25-7.76,17.95-17.08,24.27-27.66-2.97.11-5.93.23-8.9.33-20.23.68-40.46,1.01-60.69,1.01s-40.46-.34-60.69-1.01c-3.35-.11-6.7-.24-10.05-.37,6.26,10.22,15.03,19.62,24.62,27.63,30.48,2.62,60.96,2.64,91.43.07Z"></path><path class="as" d="m240.54,131.13c14.58,12.18,31.04,21.13,43.38,24.89,1.06.47,2.03.78,2.73.77,3.03-.07,6.29-2.03,8.35-2.95,10.04-3.96,24.04-11.78,36.97-22.64-30.48,2.57-60.96,2.55-91.43-.07Z"></path><path class="ar" d="m284.8,55.8c-5.82-4.28-8.3-11.75-13.9-16.26-16.29-12.3-31.95,3.65-24.55,21.21,5.87,18.42,24.97,37.03,45.5,29.08,9.51-3.91,21.42-17.98,12.87-27.99-4.91-5.74-14.35-1.34-19.92-6.04Z"></path><path d="m286.65,156.82c-.97-.12-6.04-1.25-13.03-4.3-6.99-3.01-15.86-7.86-24.67-14.11-8.81-6.24-17.51-13.92-24.43-21.91-3.48-3.97-6.49-8.03-8.93-11.91-.31-.48-.61-.96-.92-1.43-.28-.48-.55-.96-.82-1.43-.53-.95-1.08-1.85-1.55-2.75-.89-1.83-1.8-3.49-2.43-5.1-2.42-5.57-4.13-11.65-4.62-17.98-.11-.79-.08-1.58-.1-2.38l-.03-2.4c.1-1.59.2-3.2.38-4.8l.41-2.39c.14-.8.25-1.6.48-2.37.41-1.56.74-3.14,1.28-4.67l.75-2.32.9-2.27c.56-1.53,1.34-2.98,2.04-4.47,1.57-2.88,3.28-5.74,5.43-8.29,2.1-2.58,4.45-4.99,7.12-7.03,2.64-2.06,5.5-3.89,8.58-5.26,3.07-1.39,6.28-2.49,9.59-3.16,3.31-.65,6.69-.94,10.06-.89,6.74.19,13.43,1.8,19.44,4.76,1.52.7,2.96,1.56,4.4,2.4.71.44,1.39.93,2.08,1.39.7.45,1.36.96,2.01,1.48,1.34.99,2.56,2.11,3.79,3.23.61.56,1.16,1.18,1.75,1.76l.86.89c.15.14.27.31.41.46l.3.36.11.12.09-.14.64-.87.8-.93c.54-.62,1.07-1.25,1.62-1.86,2.29-2.35,4.73-4.53,7.42-6.36,4.66-3.24,9.97-5.48,15.45-6.81,5.5-1.28,11.22-1.52,16.79-.78,5.55.82,10.99,2.56,15.83,5.36,4.83,2.8,9.16,6.47,12.5,10.88,3.36,4.39,5.81,9.38,7.37,14.56,1.57,5.18,2.25,10.52,2.31,15.78.12,10.57-2.67,20.84-7.21,29.76-4.53,8.95-10.49,16.77-17.03,23.5-6.54,6.75-13.58,12.53-20.76,17.48-7.17,4.96-14.46,9.13-21.72,12.44-1.81.83-3.64,1.6-5.43,2.29-1.73.69-3.5,1.59-5.4,2.1-.95.26-1.93.44-2.92.48-1.05.08-2.03-.17-2.93-.4-1.82-.51-3.52-1.22-5.11-2.13,1.49.7,3.11,1.25,4.85,1.64.87.18,1.77.35,2.72.31.93-.07,1.85-.26,2.76-.55,1.82-.57,3.51-1.54,5.35-2.43,1.84-.84,3.69-1.74,5.55-2.72,7.43-3.91,15-8.8,21.93-14.09,6.93-5.3,13.18-11.01,18.18-16.36,4.99-5.36,8.74-10.32,11.17-13.83,4.95-7.02,8.69-14.72,10.84-22.75,1.02-4.02,1.67-8.11,1.87-12.2.11-4.09-.08-8.17-.78-12.15-1.44-7.9-4.69-15.45-9.96-21.24-5.19-5.83-12.09-9.91-19.42-11.87-3.67-.99-7.44-1.48-11.19-1.48-3.75.02-7.46.53-11.03,1.48-3.56.95-6.98,2.35-10.15,4.13-3.17,1.78-6.04,4.02-8.61,6.5-1.32,1.21-2.45,2.6-3.62,3.93-.66.89-1.33,1.79-1.99,2.68l-.56.75-.07.09s-.05.07-.07.02l-.15-.18-.3-.36-1.19-1.42-1.01-1.2c-.29-.33-.61-.64-.91-.96-.62-.62-1.2-1.29-1.85-1.87l-1.94-1.75c-.67-.55-1.36-1.08-2.04-1.62-2.77-2.08-5.75-3.85-8.85-5.26-3.11-1.4-6.36-2.4-9.65-3.06-6.57-1.37-13.32-1.03-19.58.6-3.12.87-6.1,2.09-8.9,3.6-2.82,1.48-5.35,3.4-7.7,5.45-2.37,2.04-4.36,4.45-6.21,6.9-.86,1.27-1.76,2.51-2.49,3.86-.37.67-.79,1.3-1.12,1.99l-1,2.05c-.35.67-.63,1.38-.91,2.08l-.85,2.09c-.47,1.43-.97,2.84-1.38,4.28-.79,2.89-1.42,5.77-1.7,8.67-.59,5.81,0,11.6,1.46,17.06,1.45,5.47,3.71,10.62,6.42,15.39,5.47,9.55,12.55,17.7,20.05,24.77,3.59,3.34,7.99,7.14,12.82,10.79,4.82,3.66,10.07,7.19,15.16,10.19,5.08,3.01,10.02,5.48,14.12,7.21,4.09,1.76,7.36,2.72,8.96,3.22Z"></path><path class="ar" d="m348.01,56.12c11.59-8.45-11.12-29.82-20.77-21.46-10.23,8.87,10.7,28.8,20.77,21.46Z"></path><g class="au"><path class="at" d="m232.4,93.1c-11.49-13.69-14.12-21.93-18.26-21.72-12.3,21.29,36.68,67.66,66.19,79.82,4.98,2.05,7.85,1.55,14.84-1.66,20.41-9.35,52.52-36.48,46.38-39.48-51.51,27.36-75.8,23.2-109.16-16.96Zm67.97-52.78c-6.04,7.06-6.89,14.54-11.97,12.13-2.43-1.15-5.91-8.29-7.37-12.75-1.69-4.58,3.38-1.31,4.56.44,1.83,3.44,7.8-5.23,9.96-6.54,6.67-4.03,14.54-7.36,19.07-7.9,8.08-.96,10.63,2.47,3.57,4.31s-13.56,5.34-17.82,10.31Z"></path></g></g></svg>