<svg xmlns="http://www.w3.org/2000/svg" id="AUSTRIA" viewBox="0 0 380 600">
  <defs>
    <style>
      .cls-1 {
        clip-path: url(#clippath);
      }

      .cls-2 {
        fill: none;
      }

      .cls-2, .cls-3, .cls-4, .cls-5 {
        stroke-width: 0px;
      }

      .cls-3 {
        fill: #ca1735;
      }

      .cls-4 {
        fill: #000;
      }

      .cls-5 {
        fill: #fff;
      }
    </style>
    <clipPath id="clippath">
      <rect class="cls-2" x="257.93" y="13.4" width="107.86" height="107.86" rx="53.93" ry="53.93"></rect>
    </clipPath>
  </defs>
  <g class="cls-1">
    <g>
      <rect class="cls-3" x="257.42" y="13.4" width="108.37" height="38.61"></rect>
      <rect class="cls-5" x="257.42" y="52.01" width="108.37" height="33.97"></rect>
      <rect class="cls-3" x="257.42" y="85.99" width="108.37" height="35.27"></rect>
    </g>
    <path class="cls-4" d="M311.86,121.2c.34-.17,1.41-.37,3.04-.57.81-.12,1.77-.16,2.84-.36,1.06-.21,2.25-.44,3.54-.69,5.11-1.1,11.76-3.32,17.99-7.3,6.25-3.91,11.98-9.52,15.9-15.51,3.99-5.96,6.1-12.19,6.99-16.68,1.68-7.91,1.67-16.49-.58-24.63-.29-1.01-.57-2.03-.86-3.05-.33-1-.76-1.98-1.14-2.97-.68-2.01-1.77-3.86-2.7-5.77-.22-.49-.51-.93-.8-1.38l-.86-1.35-.85-1.35-.43-.68-.49-.63-1.96-2.53-.49-.63-.55-.59-1.1-1.17c-2.85-3.19-6.27-5.83-9.8-8.2-1.85-1.06-3.62-2.25-5.59-3.06-.97-.43-1.9-.94-2.89-1.31l-2.99-1.05c-.5-.17-.98-.38-1.5-.51l-1.53-.37c-1.02-.25-2.04-.5-3.05-.76-1.04-.15-2.07-.29-3.1-.44-1.03-.15-2.06-.33-3.1-.32-1.04-.04-2.07-.09-3.1-.13l-.77-.03c-.26,0-.51.03-.77.04l-1.54.09c-1.02.07-2.05.1-3.06.2-1,.16-2.01.33-3.01.49-6.96,1.22-13.62,3.91-19.43,7.8-5.81,3.9-10.7,9.01-14.4,14.77-3.7,5.77-6.16,12.2-7.27,18.77-1.12,6.56-.95,13.25.39,19.52,2.68,12.59,10.08,23.44,19.34,30.33,4.61,3.5,9.61,6.1,14.65,7.93,5.07,1.79,10.17,2.58,15.03,2.99-4.34.68-9.96,1.04-15.95-.1-5.97-1.13-12.24-3.55-17.73-7.06-1.37-.88-2.76-1.74-3.97-2.78-.63-.5-1.25-1-1.86-1.5l-.92-.75c-.29-.26-.56-.54-.84-.81-1.1-1.09-2.2-2.17-3.23-3.24-.94-1.16-1.85-2.28-2.73-3.37-.22-.27-.43-.55-.65-.81-.19-.29-.38-.57-.56-.85-.36-.57-.72-1.12-1.07-1.66-.67-1.1-1.4-2.1-1.86-3.15-.51-1.03-.98-2.01-1.39-2.92-.21-.45-.41-.89-.59-1.31-.14-.43-.28-.85-.41-1.24-.48-1.59-1.05-3.13-1.43-4.72-.34-1.6-.68-3.19-1.02-4.77-.22-1.6-.38-3.21-.56-4.79-.04-.4-.1-.79-.13-1.19l-.02-1.19-.03-2.38c0-.79-.04-1.58-.01-2.36l.2-2.35c.16-1.56.18-3.12.53-4.63.29-1.52.54-3.04.87-4.54.42-1.47.85-2.94,1.27-4.4,1.94-5.76,4.7-11.09,8.1-15.83.9-1.15,1.79-2.3,2.68-3.44.95-1.09,1.97-2.11,2.94-3.16.94-1.08,2.08-1.96,3.12-2.92l1.59-1.4c.54-.46,1.13-.84,1.69-1.26l1.7-1.24c.57-.4,1.11-.85,1.73-1.18,1.2-.71,2.39-1.42,3.58-2.12,1.2-.67,2.48-1.2,3.71-1.8.62-.28,1.23-.61,1.87-.85l1.92-.69,1.92-.68.95-.34c.32-.1.65-.17.98-.25,1.31-.33,2.61-.66,3.9-.98,1.3-.3,2.63-.42,3.94-.64l1.96-.29c.66-.06,1.32-.07,1.97-.11,1.31-.06,2.62-.12,3.92-.18,1.3.07,2.6.13,3.89.2.64.04,1.29.04,1.93.12l1.91.29c1.26.21,2.54.34,3.78.61,2.46.65,4.95,1.15,7.27,2.1l1.76.64.88.32c.29.12.56.26.85.39,1.12.53,2.24,1.06,3.36,1.59,4.33,2.34,8.45,5,11.93,8.3,1.85,1.52,3.37,3.36,4.99,5.07.79.87,1.45,1.85,2.17,2.76.7.94,1.46,1.83,2.03,2.84,5.05,7.77,8.17,16.49,8.95,25.17.81,8.67-.41,17.23-3.29,24.85-2.87,7.63-7.36,14.32-12.77,19.6-1.31,1.23-2.8,2.52-4.38,3.83-.84.59-1.71,1.2-2.59,1.82-.88.62-1.77,1.25-2.76,1.76-.96.53-1.94,1.07-2.92,1.61-.48.28-.99.51-1.51.72l-1.54.66c-1.03.41-2.02.91-3.07,1.24-1.05.32-2.08.64-3.1.95-.51.15-1.01.31-1.51.46-.51.1-1.02.2-1.52.3-.99.19-1.97.38-2.9.57-.93.22-1.86.26-2.73.35-.87.08-1.71.15-2.5.22-.39.03-.77.07-1.14.1-.37,0-.73,0-1.07-.01-.69-.01-1.32-.02-1.89-.03-1.14-.03-2.03-.05-2.62-.06Z"></path>
  </g>
</svg>