<svg xmlns="http://www.w3.org/2000/svg" id="outfits_2" viewBox="0 0 380 600"><defs transform="matrix(-1, 0, 0, 1, 380, 0)"><style>.cls-1{fill:#24a0ed;}.cls-2{fill:#172e35;}.cls-3{fill:#fffffe;}.cls-4{fill:#14d8c3;}.cls-5{fill:#7a9299;}.cls-6{fill:#ff4500;}.cls-7{fill:#ffffff;}</style></defs><path class="cls-1" d="M101.409,382.755,94.777,377.7c-6.144-4.681-15.152-5.767-19.967-2.408L57.444,387.409a6.777,6.777,0,0,0-2.453,2.943c-.91,2.183-4.156,11.435-4.622,12.554-1.4,3.358.323,7.738,4.832,11.146l6.724,5.083,34.862-23.826Z" transform="matrix(-1, 0, 0, 1, 380, 0)" /><path d="M101.438,382.765A22.571,22.571,0,0,1,100.277,387l-1.315,3.926c-.52,1.5-1.08,3.118-1.657,4.784L89.416,401.3c-2.457,1.748-4.667,3.336-6.241,4.517-3.175,2.382-6.5,4.823-9.91,7.287L68.1,416.81l-2.609,1.858-3.618,2.538-5.228-3.856-2.12-1.561a24.125,24.125,0,0,1-2.2-1.788,15.007,15.007,0,0,1-3.474-4.765,9.352,9.352,0,0,1-.558-6.263q.858-2.406,1.712-4.8.832-2.293,1.66-4.573l.832-2.273.417-1.131.208-.565a7.664,7.664,0,0,1,.33-.709,8.612,8.612,0,0,1,1.928-2.425,11.134,11.134,0,0,1,1.131-.867l.978-.676c5.214-3.6,10.324-7.074,15.224-10.348l.917-.611c.291-.2.726-.44,1.082-.65a12,12,0,0,1,2.328-.94,16.467,16.467,0,0,1,4.659-.608,22.4,22.4,0,0,1,11.927,3.782c.558.347,1.062.764,1.571,1.153s.937.781,1.4,1.165l5.152,4.408c-1.767-.827-3.868-1.947-6.089-3.215a33.8,33.8,0,0,0-3.38-1.805,21.736,21.736,0,0,0-3.565-1.261,22.165,22.165,0,0,0-6.791-.756,16.172,16.172,0,0,0-4.58.872c-.272.116-.576.195-.832.333s-.494.239-.806.433l-1.863,1.164L70.18,380.38l-7.107,4.568L59.63,387.2l-1.681,1.111a6.311,6.311,0,0,0-1.3,1.151,4.97,4.97,0,0,0-.877,1.475l-.717,1.84-1.4,3.637q-1.358,3.594-2.665,7.059a7.149,7.149,0,0,0,1.138,6.27,13.747,13.747,0,0,0,2.187,2.548,32.255,32.255,0,0,0,2.676,2.112l4.956,3.669,15.738-11.024c5.1-3.545,9.911-6.835,14.508-9.834L94.065,396l1.067-.678.569-.358.364-.216c.5-1.146,1.027-2.353,1.546-3.54.564-1.265,1.118-2.509,1.624-3.646Z" transform="matrix(-1, 0, 0, 1, 380, 0)" /><ellipse class="cls-2" cx="78.281" cy="383.417" rx="3.724" ry="5.765" transform="matrix(-1, 0, 0, 1, 380, 0) translate(-308.57 324.402) rotate(-69.787)" /><path d="M73.3,380.741c.093.153-.018.454-.063.856a2.78,2.78,0,0,0,.221,1.424,4.4,4.4,0,0,0,2.3,2.159,9.688,9.688,0,0,0,3.935.613,4.215,4.215,0,0,0,1.617-.426c.41-.223.554-.485.567-.626a1.264,1.264,0,0,0-.121-.592,3.481,3.481,0,0,0-.652-.974,7.765,7.765,0,0,0-2.371-1.675c-1.8-.831-3.72-1.11-5.018-.42a2.17,2.17,0,0,1,.427-1.713,4.655,4.655,0,0,1,4.943-1.633,13.04,13.04,0,0,1,3.151,2.167,8.219,8.219,0,0,1,2.067,2.858,3.817,3.817,0,0,1-.171,3.484,4.421,4.421,0,0,1-2.606,1.8,8.753,8.753,0,0,1-5.293-.3,6.859,6.859,0,0,1-3.7-2.94,3.452,3.452,0,0,1-.349-2.645A2.377,2.377,0,0,1,73.3,380.741Z" transform="matrix(-1, 0, 0, 1, 380, 0)" /><ellipse class="cls-2" cx="69.208" cy="397.058" rx="1.453" ry="2.25" transform="matrix(-1, 0, 0, 1, 380, 0) translate(-327.309 324.815) rotate(-69.787)" /><path d="M67.266,396.016c.08.141-.078.494.123.867a1.6,1.6,0,0,0,.9.772,3.952,3.952,0,0,0,1.48.15,1.419,1.419,0,0,0,.548-.168c.136-.074.1-.158.13-.126-.071-.012-.04,0-.083-.09a1.212,1.212,0,0,0-.2-.305,2.993,2.993,0,0,0-.83-.622,2.457,2.457,0,0,0-1.849-.308c-.207-.449.208-1.117.746-1.387a1.592,1.592,0,0,1,1.352-.167,4.568,4.568,0,0,1,2.074,2.127,1.607,1.607,0,0,1-.084,1.446,1.838,1.838,0,0,1-1.067.745,3.538,3.538,0,0,1-2.132-.095,2.662,2.662,0,0,1-1.49-1.192,1.372,1.372,0,0,1-.1-1.1A.924.924,0,0,1,67.266,396.016Z" transform="matrix(-1, 0, 0, 1, 380, 0)" /><ellipse class="cls-2" cx="62.122" cy="396.326" rx="1.453" ry="2.25" transform="matrix(-1, 0, 0, 1, 380, 0) translate(-331.26 317.687) rotate(-69.787)" /><path d="M60.18,395.284c.081.141-.077.494.123.867a1.594,1.594,0,0,0,.9.772,3.933,3.933,0,0,0,1.48.15,1.419,1.419,0,0,0,.548-.168c.136-.073.1-.158.13-.126-.07-.012-.04,0-.082-.09a1.249,1.249,0,0,0-.206-.305,2.993,2.993,0,0,0-.83-.622,2.456,2.456,0,0,0-1.849-.308c-.206-.449.208-1.117.746-1.387a1.592,1.592,0,0,1,1.352-.167,4.568,4.568,0,0,1,2.074,2.127,1.606,1.606,0,0,1-.083,1.446,1.844,1.844,0,0,1-1.067.745,3.537,3.537,0,0,1-2.132-.1,2.657,2.657,0,0,1-1.491-1.192,1.365,1.365,0,0,1-.1-1.1A.92.92,0,0,1,60.18,395.284Z" transform="matrix(-1, 0, 0, 1, 380, 0)" /><ellipse class="cls-2" cx="61.455" cy="390.949" rx="1.453" ry="2.25" transform="matrix(-1, 0, 0, 1, 380, 0) translate(-326.65 313.541) rotate(-69.787)" /><path d="M59.513,389.907c.081.14-.078.494.123.866a1.59,1.59,0,0,0,.895.772,3.931,3.931,0,0,0,1.48.15,1.4,1.4,0,0,0,.548-.168c.136-.073.1-.157.13-.126-.071-.011-.04,0-.082-.089a1.27,1.27,0,0,0-.206-.306,3.032,3.032,0,0,0-.83-.622,2.457,2.457,0,0,0-1.849-.308c-.206-.449.208-1.117.746-1.387a1.6,1.6,0,0,1,1.352-.166,4.566,4.566,0,0,1,2.074,2.126,1.612,1.612,0,0,1-.083,1.447,1.841,1.841,0,0,1-1.068.744,3.534,3.534,0,0,1-2.131-.094,2.658,2.658,0,0,1-1.491-1.193,1.365,1.365,0,0,1-.1-1.1A.92.92,0,0,1,59.513,389.907Z" transform="matrix(-1, 0, 0, 1, 380, 0)" /><ellipse class="cls-2" cx="69.208" cy="391.951" rx="1.453" ry="2.25" transform="matrix(-1, 0, 0, 1, 380, 0) matrix(0.346, -0.938, 0.938, 0.346, -322.517, 321.473)" /><path d="M67.266,390.909c.08.141-.078.494.123.867a1.588,1.588,0,0,0,.9.772,3.929,3.929,0,0,0,1.48.15,1.419,1.419,0,0,0,.547-.168c.137-.073.1-.158.13-.126-.07-.012-.039,0-.082-.09a1.221,1.221,0,0,0-.206-.305,2.978,2.978,0,0,0-.83-.622,2.454,2.454,0,0,0-1.848-.308c-.207-.449.207-1.117.746-1.387a1.592,1.592,0,0,1,1.352-.167,4.571,4.571,0,0,1,2.073,2.127,1.6,1.6,0,0,1-.083,1.446,1.841,1.841,0,0,1-1.067.745,3.538,3.538,0,0,1-2.132-.1,2.658,2.658,0,0,1-1.49-1.192,1.365,1.365,0,0,1-.1-1.1A.918.918,0,0,1,67.266,390.909Z" transform="matrix(-1, 0, 0, 1, 380, 0)" /><path class="cls-3" d="M101.426,382.78c-.071.809-7.767,6.039-10.524,8.359-4.867,4.095-10.772,8.312-16.1,12.138L71.227,405.8l-4.738,3.224-2.356-1.809-1.2-.947L60.6,404.388c-.775-.641-1.479-1.2-2.266-1.893a16.447,16.447,0,0,1-2.114-2.213,11.929,11.929,0,0,1-2.487-5.182,7.233,7.233,0,0,1,.733-4.967,8.533,8.533,0,0,0,.639,3.1,10.5,10.5,0,0,0,1.669,2.7c1.33,1.585,2.882,2.711,3.573,3.484.476.523,1.087,1.1,1.673,1.652l1.749,1.622c1.081,1,2.593,2.288,2.81,2.567l.536-.277,1.048-.64,2.143-1.352q2.106-1.349,4.064-2.682c2.615-1.774,5.05-3.511,7.349-5.172,4.6-3.32,8.649-6.331,12.506-8.7A61.78,61.78,0,0,1,101.426,382.78Z" transform="matrix(-1, 0, 0, 1, 380, 0)" /><polygon class="cls-2" points="160.985 428.61 101.409 382.755 66.547 406.58 61.925 419.135 120.896 464.11 156.362 441.165 160.985 428.61" transform="matrix(-1, 0, 0, 1, 380, 0)" /><path d="M161.013,428.621a32.218,32.218,0,0,1-1.205,4.085c-.377,1.11-.819,2.412-1.312,3.866l-1.721,4.923-18.543,12.271-8.977,5.944-7.419,4.975-.987.661-15.1-11.07-15-11.136L59.668,419.791c1.057-2.913,2.038-5.615,3.009-8.292l2.246-6.185,18.233-12.5,18.32-12.434,17.821,13.95,15.539,12.33c9.91,7.916,18.86,15.178,26.5,21.5-11.857-7.04-33.516-22.244-40.8-28.218l-19.168-15.58-.416.251-1.125.736-2.3,1.513-4.557,3-8.917,5.917L67.207,407.094l-4.368,11.774,15.671,11.9,15.234,11.481,27.205,20.508,9.175-5.925,9.42-5.994c2.307-1.472,5.07-3.182,7.941-4.932l4.346-2.631,4.1-2.449c1.185-2.865,2.273-5.494,3.148-7.608C159.987,431.062,160.671,429.436,161.013,428.621Z" transform="matrix(-1, 0, 0, 1, 380, 0)" /><polygon class="cls-4" points="124.667 445.243 75.619 407.771 102.146 389.51 151.799 427.746 124.667 445.243" transform="matrix(-1, 0, 0, 1, 380, 0)" /><path d="M124.65,445.218c.384-.552,4.445-3.346,9.717-6.876l16-10.655-5.09-3.707c-7.057-5.064-14.516-10.568-22.017-16.175l-21.179-15.948-.045.042-.01.009-.232.162-.462.323c-.611.429-1.21.847-1.806,1.265L88.034,401.65l-5.684,3.912-2.816,1.928-.351.24-.167.114h0l-.008,0-.025.008,11.6,9.059,12.809,10.153c8.158,6.533,15.492,12.542,21.623,17.725-8.889-4.711-24.823-15.421-30.07-19.8l-10.2-8.413-4.956-4.024-2.438-1.965-3.634-2.868,15.077-10.055,13.379-9.107,14.249,10.9,12.918,9.774,12.021,9.1,5.671,4.33,6.683,5.158-4.971,3.168-3.572,2.237C138.634,437.366,126.96,443.951,124.65,445.218Z" transform="matrix(-1, 0, 0, 1, 380, 0)" /><path class="cls-5" d="M161,428.636c-.449,1.039-14.739,10.254-20.044,14.115-2.277,1.657-4.654,3.345-7.092,5.046l-3.7,2.56-1.875,1.284-2.85,1.908L109.2,441.536c-16.82-12.492-32.8-25.353-42.993-34.5,5.865,2.394,15.961,8.632,19.129,11.414,7.55,6.631,14.759,12.53,21.568,17.871q5.106,4.006,9.905,7.616l4.712,3.535,2.294,1.707,1.751,1.287,11.62-7.754c3.834-2.528,7.471-4.873,10.967-7C152.186,433.171,159.54,429.358,161,428.636Z" transform="matrix(-1, 0, 0, 1, 380, 0)" /><path class="cls-6" d="M167.435,455.9c.478-2.012,4.1-10.759,4.531-12.212.971-3.247-.768-7.3-4.986-10.509l-5.995-4.568-35.466,22.946L120.9,464.11l6.129,4.632c6,4.539,14.732,5.677,19.616,2.559l17.747-11.329A6.637,6.637,0,0,0,167.435,455.9Z" transform="matrix(-1, 0, 0, 1, 380, 0)" /><path d="M167.465,455.906a2.865,2.865,0,0,1-.248,1.317,6.305,6.305,0,0,1-1.649,2.366,34.9,34.9,0,0,1-3.186,2.276l-3.8,2.538-8.1,5.371c-1.313.862-2.5,1.688-3.684,2.441a12.073,12.073,0,0,1-3.554,1.471,20.488,20.488,0,0,1-12.6-1.208,21.8,21.8,0,0,1-2.973-1.484c-.489-.269-.939-.61-1.411-.916l-1.287-.922-2.547-1.848-3.541-2.608c1.721-4.848,3.431-9.661,5.1-14.367l6.6-4.359c5.031-3.329,10.061-6.606,15-9.772l7.318-4.658,8.168-5.139,2.852,2.23,1.815,1.445c1.189.974,2.383,1.84,3.6,3a15.412,15.412,0,0,1,2.956,3.849,10.135,10.135,0,0,1,1.244,4.7,8.052,8.052,0,0,1-.387,2.422c-.27.744-.53,1.318-.8,1.944q-.807,1.818-1.575,3.552c-1.008,2.288-2.062,4.493-2.792,6.49a40.793,40.793,0,0,1,1.2-6.642c.3-1.229.626-2.5.964-3.765l.491-1.888a5.082,5.082,0,0,0,.149-1.585,8.848,8.848,0,0,0-2.7-5.333,17.524,17.524,0,0,0-1.992-1.787c-.633-.5-1.324-1.025-1.8-1.437l-2.2-1.874-1.046-.889a2.2,2.2,0,0,0-.147-.2,1.332,1.332,0,0,0-.275.1l-1.242.727-2.459,1.448-4.815,2.873q-4.746,2.856-9.228,5.641l-8.717,5.483-8.019,5.162q-2.192,6.094-4.225,11.746l3.595,2.643,2.008,1.48a22.156,22.156,0,0,0,1.969,1.27,21.043,21.043,0,0,0,8.533,2.679,13.087,13.087,0,0,0,7.916-1.465c2.414-1.514,4.794-3.012,7.1-4.412,2.492-1.551,5.984-3.526,9.077-5.227l2.213-1.212a7.377,7.377,0,0,0,1.681-1.284A6.319,6.319,0,0,0,167.465,455.906Z" transform="matrix(-1, 0, 0, 1, 380, 0)" /><ellipse class="cls-2" cx="143.599" cy="451.101" rx="3.78" ry="5.852" transform="matrix(-1, 0, 0, 1, 380, 0) translate(-329.336 429.995) rotate(-69.787)" /><path d="M138.539,448.384c.092.154-.021.458-.069.867a2.813,2.813,0,0,0,.221,1.45,4.492,4.492,0,0,0,2.339,2.2,9.844,9.844,0,0,0,4,.635,4.333,4.333,0,0,0,1.653-.432c.421-.229.575-.5.591-.651a1.27,1.27,0,0,0-.122-.622,3.537,3.537,0,0,0-.668-1,7.869,7.869,0,0,0-2.42-1.7c-1.831-.842-3.792-1.118-5.108-.406A2.2,2.2,0,0,1,139.4,447a4.728,4.728,0,0,1,5.007-1.637,13.2,13.2,0,0,1,3.2,2.186,8.327,8.327,0,0,1,2.1,2.892,3.862,3.862,0,0,1-.171,3.525,4.48,4.48,0,0,1-2.639,1.822,8.862,8.862,0,0,1-5.363-.3,6.961,6.961,0,0,1-3.746-2.978,3.5,3.5,0,0,1-.359-2.676A2.409,2.409,0,0,1,138.539,448.384Z" transform="matrix(-1, 0, 0, 1, 380, 0)" /><ellipse class="cls-2" cx="158.201" cy="449.024" rx="1.475" ry="2.283" transform="matrix(-1, 0, 0, 1, 380, 0) translate(-317.829 442.338) rotate(-69.787)" /><path d="M156.229,447.966c.081.141-.082.5.121.881a1.622,1.622,0,0,0,.909.788,3.991,3.991,0,0,0,1.506.159,1.465,1.465,0,0,0,.562-.171c.134-.077.117-.158.126-.14-.054.038-.047-.165-.282-.411a3.045,3.045,0,0,0-.848-.634,2.482,2.482,0,0,0-1.884-.3c-.2-.453.217-1.124.761-1.394a1.623,1.623,0,0,1,1.368-.166,4.609,4.609,0,0,1,2.1,2.148,1.624,1.624,0,0,1-.083,1.462,1.857,1.857,0,0,1-1.08.752,3.578,3.578,0,0,1-2.159-.1,2.7,2.7,0,0,1-1.51-1.207,1.387,1.387,0,0,1-.106-1.109A.933.933,0,0,1,156.229,447.966Z" transform="matrix(-1, 0, 0, 1, 380, 0)" /><ellipse class="cls-2" cx="151.009" cy="448.281" rx="1.475" ry="2.283" transform="matrix(-1, 0, 0, 1, 380, 0) translate(-321.84 435.103) rotate(-69.787)" /><path d="M149.037,447.223c.08.141-.082.5.121.881a1.622,1.622,0,0,0,.909.788,3.991,3.991,0,0,0,1.506.159,1.436,1.436,0,0,0,.561-.171c.135-.077.118-.157.127-.14-.054.038-.047-.165-.282-.411a3.055,3.055,0,0,0-.849-.634,2.484,2.484,0,0,0-1.883-.3c-.2-.453.216-1.124.761-1.394a1.623,1.623,0,0,1,1.368-.166,4.609,4.609,0,0,1,2.1,2.148,1.624,1.624,0,0,1-.083,1.462,1.86,1.86,0,0,1-1.08.752,3.578,3.578,0,0,1-2.159-.1,2.7,2.7,0,0,1-1.51-1.207,1.381,1.381,0,0,1-.106-1.108A.933.933,0,0,1,149.037,447.223Z" transform="matrix(-1, 0, 0, 1, 380, 0)" /><ellipse class="cls-2" cx="150.332" cy="442.822" rx="1.475" ry="2.283" transform="matrix(-1, 0, 0, 1, 380, 0) translate(-317.16 430.895) rotate(-69.787)" /><path d="M148.36,441.764c.08.141-.083.5.121.882a1.622,1.622,0,0,0,.909.788,3.97,3.97,0,0,0,1.506.158,1.454,1.454,0,0,0,.561-.17c.135-.077.118-.158.127-.14-.055.038-.047-.166-.282-.412a3.052,3.052,0,0,0-.849-.633,2.48,2.48,0,0,0-1.883-.3c-.2-.453.216-1.124.761-1.394a1.619,1.619,0,0,1,1.368-.166,4.607,4.607,0,0,1,2.1,2.147,1.621,1.621,0,0,1-.084,1.462,1.852,1.852,0,0,1-1.079.753,3.582,3.582,0,0,1-2.16-.1,2.7,2.7,0,0,1-1.509-1.208,1.384,1.384,0,0,1-.107-1.108A.94.94,0,0,1,148.36,441.764Z" transform="matrix(-1, 0, 0, 1, 380, 0)" /><ellipse class="cls-2" cx="158.201" cy="443.84" rx="1.475" ry="2.283" transform="matrix(-1, 0, 0, 1, 380, 0) translate(-312.965 438.945) rotate(-69.787)" /><path d="M156.229,442.782c.08.141-.083.5.121.882a1.626,1.626,0,0,0,.909.788,4.006,4.006,0,0,0,1.506.158,1.436,1.436,0,0,0,.561-.171c.135-.077.118-.157.127-.14-.055.039-.047-.165-.282-.411a3.055,3.055,0,0,0-.849-.634,2.481,2.481,0,0,0-1.884-.3c-.2-.453.217-1.124.762-1.395a1.622,1.622,0,0,1,1.368-.165,4.612,4.612,0,0,1,2.1,2.147,1.621,1.621,0,0,1-.084,1.462,1.861,1.861,0,0,1-1.079.753,3.589,3.589,0,0,1-2.16-.1,2.7,2.7,0,0,1-1.509-1.208,1.385,1.385,0,0,1-.107-1.108A.936.936,0,0,1,156.229,442.782Z" transform="matrix(-1, 0, 0, 1, 380, 0)" /><path class="cls-3" d="M169.027,447.443c0,.745-6.121,4.623-8.28,6.428-1.906,1.594-4.029,3.182-6.2,4.731l-1.638,1.155c-.287.194-.517.373-.851.578s-.676.414-1.021.6a14.3,14.3,0,0,1-4.277,1.338,18.523,18.523,0,0,1-7.259-.355,21.269,21.269,0,0,1-6.278-2.618c-.458-.3-.9-.61-1.334-.913l-1.214-.992q-1.068-.957-2.042-1.882c-1.3-1.231-2.459-2.409-3.454-3.5a18.517,18.517,0,0,1,5.2,1.439,20.707,20.707,0,0,1,2.33,1.141,7.98,7.98,0,0,1,1.42.927,16.289,16.289,0,0,0,8.6,4.006,11.749,11.749,0,0,0,8.145-1.488c4.663-3.125,8.584-6.046,12.331-8.12A38.2,38.2,0,0,1,169.027,447.443Z" transform="matrix(-1, 0, 0, 1, 380, 0)" /><path class="cls-7 color-body" d="M120.2,461.139c-3.689,7.891-15.734,10.057-26.9,4.836s-15.937-14.4-14.57-23.052c1.19-7.534,6.859-15.37,18.028-10.149S123.889,453.247,120.2,461.139Z" transform="matrix(-1, 0, 0, 1, 380, 0)" style="fill:#ffffff;--backup-fill:#ffffff" /><path d="M120.145,461.113c-.206-.371.143-1.577-.243-3.316a17.551,17.551,0,0,0-2.939-6.093,43.948,43.948,0,0,0-10.533-10.25,76.535,76.535,0,0,0-7.879-4.6,27.945,27.945,0,0,0-4.113-1.726,12.8,12.8,0,0,0-3.876-.729,6.719,6.719,0,0,0-5.7,2.853,13.968,13.968,0,0,0-2.41,7.086,16.526,16.526,0,0,0,4.3,12.094,25.25,25.25,0,0,0,5.144,4.451c.951.645,1.965,1.2,2.969,1.756,1.023.49,2.033.991,3.076,1.374a24.747,24.747,0,0,0,12.274,1.678,12.751,12.751,0,0,0,8.948-5.037,8.884,8.884,0,0,1-1.937,5.784,14.951,14.951,0,0,1-6.121,4.6,19.823,19.823,0,0,1-7.138,1.56,20.6,20.6,0,0,1-2.994-.136,16.6,16.6,0,0,1-2.248-.508,42.492,42.492,0,0,1-6.723-3.129,43.373,43.373,0,0,1-5.713-4.066,27.53,27.53,0,0,1-7.841-10.709A22.287,22.287,0,0,1,77,447.861a21.33,21.33,0,0,1,.4-6.119,20.257,20.257,0,0,1,2.032-5.591,14.061,14.061,0,0,1,3.86-4.546,11.068,11.068,0,0,1,5.547-2.174,14.711,14.711,0,0,1,5.6.494,35.12,35.12,0,0,1,9.084,4.262,51.181,51.181,0,0,1,13.2,11.734,22.888,22.888,0,0,1,4.237,8.506,10.424,10.424,0,0,1,.191,4.362A5.9,5.9,0,0,1,120.145,461.113Z" transform="matrix(-1, 0, 0, 1, 380, 0)" /></svg>