<svg xmlns="http://www.w3.org/2000/svg" id="outfits_1" viewBox="0 0 380 600"><defs transform="matrix(-1, 0, 0, 1, 380, 0)"><style>.cls-1{fill:#ffd635;}.cls-2{fill:#ff66ac;}.cls-3{fill:#ffffff;}</style></defs><path class="cls-1" d="M106.8,445.093a161.865,161.865,0,0,1,35.259-3.431,2.24,2.24,0,0,1,1.148.222c.652.4.725,1.3.725,2.062v7.069a1.74,1.74,0,0,1-.243,1.084,1.711,1.711,0,0,1-.955.5c-14.413,3.852-30.3,3.857-44.9,1.087-1.917-.364-4.061-.95-4.98-2.671a3.473,3.473,0,0,1,.431-3.817" transform="matrix(-1, 0, 0, 1, 380, 0)" /><path d="M93.316,447.222a5.931,5.931,0,0,0-.234,2.629,2.963,2.963,0,0,0,1.305,1.784,7.553,7.553,0,0,0,2.765.981,81.333,81.333,0,0,0,12.54,1.19c2.546-.017,5.173-.1,7.838-.216,2.665-.149,5.37-.338,8.07-.629,2.7-.31,5.392-.672,8.029-1.168,1.315-.257,2.626-.5,3.906-.815l1.913-.457.939-.256c.294-.08.735-.2.623-.177a.054.054,0,0,0,.009-.088l-.006-.007,0-.388-.009-.867-.013-1.731-.006-1.725V444.6h0a.019.019,0,0,0,0-.02l0,0,0,0h0l-.1,0-.827-.015-1.647-.016-3.256-.006c-2.153.008-4.268.054-6.336.1-8.271.231-15.768.825-21.841,1.274a37.8,37.8,0,0,1,9.844-4.708,31.734,31.734,0,0,1,9.189-1.84c3.852.1,7.563.261,11.148.448l2.665.149,1.379.085a9.112,9.112,0,0,1,1.915.194,2.66,2.66,0,0,1,1.5.933,3.441,3.441,0,0,1,.645,1.653,10.7,10.7,0,0,1,.039,1.821q-.022.628-.046,1.252-.07,2.664-.14,5.241a3.146,3.146,0,0,1-.4,1.532,2.4,2.4,0,0,1-1.273.894c-.49.175-1.082.293-1.544.411l-1.158.281c-3.083.709-6.093,1.27-9.023,1.714-11.725,1.709-22.21,1.507-31.074-.284-1.064-.2-2.27-.5-3.582-.887a8.8,8.8,0,0,1-3.849-2.126,4.185,4.185,0,0,1-1.035-1.887,3.767,3.767,0,0,1,.027-1.78A3.338,3.338,0,0,1,93.316,447.222Z" transform="matrix(-1, 0, 0, 1, 380, 0)" /><path class="cls-2" d="M110.5,436.553c4.7-1.159,9.534-2.246,14.344-1.694s9.665,3.047,11.8,7.394a1.819,1.819,0,0,1,.254,1.025c-.082.6-.676.986-1.23,1.236-2.657,1.2-5.676,1.241-8.591,1.171q-6.67-.159-13.306-.941c-3.064-.361-6.639-1.208-7.806-4.064" transform="matrix(-1, 0, 0, 1, 380, 0)" /><path d="M105.989,440.668c.211.048.514.643,1.232,1.235a7.829,7.829,0,0,0,3.09,1.533,20.9,20.9,0,0,0,4.106.612c1.365.1,2.6.153,3.491.143,3.133-.034,6.483-.036,9.835-.108a25.506,25.506,0,0,0,4.729-.447,10.951,10.951,0,0,0,2.059-.642l.208-.1a.047.047,0,0,0,.019-.015.1.1,0,0,0,.018-.028.055.055,0,0,0,0-.054.087.087,0,0,0-.033-.027l-.008,0-.094-.164a3.253,3.253,0,0,0-.235-.37,9.675,9.675,0,0,0-1.1-1.376,12.174,12.174,0,0,0-2.818-2.2,17.447,17.447,0,0,0-6.8-2.172c-4.741-.528-9.346.271-13.057.6a21.094,21.094,0,0,1,5.892-3.273,14.057,14.057,0,0,1,5.837-1.029,20.631,20.631,0,0,1,12.511,5.617,13.235,13.235,0,0,1,1.953,2.546c.15.248.221.413.4.747a3.9,3.9,0,0,1,.372.925,1.848,1.848,0,0,1-.462,1.78,3.147,3.147,0,0,1-.761.586,7.245,7.245,0,0,1-.822.382,12.892,12.892,0,0,1-1.407.479,17.415,17.415,0,0,1-2.808.528,47.484,47.484,0,0,1-5.292.188q-2.528-.01-4.891-.108a62.158,62.158,0,0,1-8.823-.913,10.592,10.592,0,0,1-4.469-1.971,5.5,5.5,0,0,1-1.437-1.7A4.613,4.613,0,0,1,105.989,440.668Z" transform="matrix(-1, 0, 0, 1, 380, 0)" /><path class="cls-1" d="M86.267,442.486c-4.417-5.728-6.44-12.922-7.869-20.012-1.094-5.425-1.72-11.636,1.73-15.963,3.014-3.778,8.519-4.927,13.2-3.71s8.607,4.422,11.793,8.057a45.843,45.843,0,0,1,11.04,25.272c.376,3.606.246,7.5-1.8,10.492-2.752,4.02-8.255,5.262-13.085,4.628-7.76-1.018-15.307-7.184-15.45-15.008" transform="matrix(-1, 0, 0, 1, 380, 0)" /><path d="M85.85,436.241a5.122,5.122,0,0,1,.3,1.273,17.59,17.59,0,0,0,.783,2.6,15.84,15.84,0,0,0,4.951,6.414,20.06,20.06,0,0,0,4.055,2.451,19.334,19.334,0,0,0,4.463,1.347,15.7,15.7,0,0,0,7.507-.465,10.636,10.636,0,0,0,4.223-2.5,8.621,8.621,0,0,0,2.335-4.236c.79-3.292.23-7.086-.516-10.729a44.723,44.723,0,0,0-9.675-19.587,29.645,29.645,0,0,0-6.738-6.025,15,15,0,0,0-7.934-2.494,10.706,10.706,0,0,0-7.239,2.563,10.272,10.272,0,0,0-3.041,6.809,31.446,31.446,0,0,0,.478,8.061c.451,2.69.955,5.291,1.579,7.739a40.006,40.006,0,0,0,5.326,12.683,23.738,23.738,0,0,1-4.436-5.17,38.98,38.98,0,0,1-3.565-7.2,60.128,60.128,0,0,1-2.211-7.217,26.206,26.206,0,0,1-.819-5.593,19.487,19.487,0,0,1,1.451-8.314,12.007,12.007,0,0,1,5.781-5.971,14.911,14.911,0,0,1,7.686-1.344,17.641,17.641,0,0,1,7.065,2.235,33.436,33.436,0,0,1,10.075,9.309,48.96,48.96,0,0,1,6.28,11.155,47.552,47.552,0,0,1,3.005,11.636,24.889,24.889,0,0,1,.143,5.831,12.63,12.63,0,0,1-1.854,5.553,11.069,11.069,0,0,1-4.3,3.8,15.177,15.177,0,0,1-5.218,1.518,18.092,18.092,0,0,1-5.18-.155,18.531,18.531,0,0,1-4.76-1.457,18.105,18.105,0,0,1-4.457-2.786,17.075,17.075,0,0,1-3.67-4.332,14.406,14.406,0,0,1-1.716-4.543A15.058,15.058,0,0,1,85.85,436.241Z" transform="matrix(-1, 0, 0, 1, 380, 0)" /><path class="cls-1" d="M110.262,438.1c-1.645-13.463-9.279-28.785-22.832-33.33C74.4,401.734,69.288,413.211,72.5,424.439c3.084,13.167,9.237,26.259,22.872,28.776C105.185,454.765,112.064,447.818,110.262,438.1Z" transform="matrix(-1, 0, 0, 1, 380, 0)" /><path d="M110.306,438.087a7.945,7.945,0,0,1,.783,3.939,11.463,11.463,0,0,1-.128,1.823c-.053.323-.108.656-.165,1s-.191.675-.289,1.026a13.529,13.529,0,0,1-.856,2.109,13.2,13.2,0,0,1-1.373,2,11.833,11.833,0,0,1-3.976,3.131,14.217,14.217,0,0,1-4.8,1.385,21.011,21.011,0,0,1-2.348.122c-.755-.058-1.5-.084-2.186-.182a30.659,30.659,0,0,1-3.558-.8A23.673,23.673,0,0,1,81.6,448a34.929,34.929,0,0,1-6.855-9.47,60.425,60.425,0,0,1-4.163-10.792q-.363-1.345-.724-2.681c-.224-.97-.54-1.876-.678-2.893l-.243-1.5c-.061-.5-.082-1.01-.123-1.514a24.632,24.632,0,0,1-.012-3.038A17.446,17.446,0,0,1,72.741,405.9l1.05-1.031c.18-.166.347-.346.541-.5l.6-.427c.407-.278.807-.57,1.227-.819l1.328-.622.668-.3.691-.2,1.384-.368a26.6,26.6,0,0,1,2.756-.285c.888.043,1.794.044,2.656.155l1.267.225c.457.1.734.105,1.443.3l2.356.962c.755.316,1.448.748,2.165,1.118a31.57,31.57,0,0,1,7.325,5.814,40.628,40.628,0,0,1,5.114,7.051,45.967,45.967,0,0,1,5.78,21.011,134.379,134.379,0,0,0-6.349-12.533c-2.481-4.193-5.183-7.645-6.512-9.508a27.242,27.242,0,0,0-4.462-5.16l-.621-.572-.665-.505-1.336-1a25.054,25.054,0,0,0-2.876-1.614l-1.373-.631-1.515-.343a8.8,8.8,0,0,0-1.55-.2l-.774-.07c-.256-.012-.5.028-.757.037a9.128,9.128,0,0,0-5.452,1.938,10.347,10.347,0,0,0-3.259,4.8,17.417,17.417,0,0,0-.874,5.841,23.866,23.866,0,0,0,.913,5.794c.489,1.959,1,3.845,1.612,5.658a48.439,48.439,0,0,0,4.537,10.033,27.465,27.465,0,0,0,6.605,7.5,21.483,21.483,0,0,0,8.224,3.89l1.065.259,1.05.117a18.487,18.487,0,0,0,2.088.087,14.027,14.027,0,0,0,3.928-.756,12.586,12.586,0,0,0,3.629-2.154,10.733,10.733,0,0,0,2.778-3.857A16.261,16.261,0,0,0,110.306,438.087Z" transform="matrix(-1, 0, 0, 1, 380, 0)" /><path class="cls-3 color-body" d="M120.2,461.139c-3.689,7.891-15.734,10.057-26.9,4.836s-15.937-14.4-14.57-23.052c1.19-7.534,6.859-15.37,18.028-10.149S123.889,453.247,120.2,461.139Z" transform="matrix(-1, 0, 0, 1, 380, 0)" style="fill:#ffffff;--backup-fill:#ffffff" /><path d="M120.145,461.113c-.206-.371.143-1.577-.243-3.316a17.551,17.551,0,0,0-2.939-6.093,43.928,43.928,0,0,0-10.533-10.25,76.535,76.535,0,0,0-7.879-4.6,27.945,27.945,0,0,0-4.113-1.726,12.8,12.8,0,0,0-3.876-.729,6.719,6.719,0,0,0-5.7,2.853,13.968,13.968,0,0,0-2.41,7.086,16.53,16.53,0,0,0,4.3,12.095,25.276,25.276,0,0,0,5.144,4.45c.951.645,1.965,1.2,2.969,1.756,1.023.49,2.033.991,3.076,1.374a24.747,24.747,0,0,0,12.274,1.678,12.747,12.747,0,0,0,8.948-5.037,8.88,8.88,0,0,1-1.937,5.783,14.945,14.945,0,0,1-6.121,4.6,19.823,19.823,0,0,1-7.138,1.56,20.6,20.6,0,0,1-2.994-.136,16.6,16.6,0,0,1-2.248-.508,42.406,42.406,0,0,1-6.723-3.13,43.274,43.274,0,0,1-5.713-4.065,27.53,27.53,0,0,1-7.841-10.709A22.287,22.287,0,0,1,77,447.861a21.33,21.33,0,0,1,.4-6.119,20.257,20.257,0,0,1,2.032-5.591,14.061,14.061,0,0,1,3.86-4.546,11.068,11.068,0,0,1,5.547-2.174,14.711,14.711,0,0,1,5.6.494,35.12,35.12,0,0,1,9.084,4.262,51.181,51.181,0,0,1,13.2,11.734,22.888,22.888,0,0,1,4.237,8.506,10.424,10.424,0,0,1,.191,4.362A5.9,5.9,0,0,1,120.145,461.113Z" transform="matrix(-1, 0, 0, 1, 380, 0)" /></svg>