<svg xmlns="http://www.w3.org/2000/svg" id="outfits_1" viewBox="0 0 380 600"><defs transform="matrix(-1, 0, 0, 1, 380, 0)"><style>.cls-1{fill:#feb331;}.cls-2{fill:#14d8c3;}.cls-3{opacity:0.4;}.cls-4{fill:#ffffff;}</style></defs><path class="cls-1" d="M140.279,401.884c-2.157,10.977-4.277,21.965-6.859,32.851-1.63,10.2-3.3,19.973-15.3,21.981-7.364,1.441-23.445.886-26.42-7.422-3.764-10.787-7.375-21.627-10.748-32.542" transform="matrix(-1, 0, 0, 1, 380, 0)" /><path d="M80.985,416.741c1.059.744,6.809,18.251,9.453,24.847l1.749,4.448q.435,1.134.873,2.28a8.757,8.757,0,0,0,.428.976,6.807,6.807,0,0,0,.537.821c1.6,2.116,4.53,3.386,7.568,4.1a38.879,38.879,0,0,0,9.548.894,40.967,40.967,0,0,0,4.736-.371c.385-.051.761-.117,1.136-.18s.776-.15,1.13-.241a15.315,15.315,0,0,0,2.11-.57,12.223,12.223,0,0,0,5.787-3.908,19.557,19.557,0,0,0,3.188-6.593,76.546,76.546,0,0,0,1.682-7.681l.176-.978.066-.354.075-.3.123-.479q.245-.957.487-1.9l.95-3.754c2.484-9.9,4.709-18.909,6.805-26.045.733,6.895-.366,19.764-1.719,24.175l-1.95,6.546q-.24.807-.479,1.6l-.237.8-.056.187a.238.238,0,0,0-.027.085l-.089.405-.714,3.221c-1,4.255-2.163,8.554-4.657,12.148a16.263,16.263,0,0,1-10.379,6.51,43.012,43.012,0,0,1-11.276.806,33.006,33.006,0,0,1-10.485-2.064,14.693,14.693,0,0,1-4.55-2.785,9.9,9.9,0,0,1-1.737-2.114,11.143,11.143,0,0,1-1.047-2.385c-2.044-5.914-3.9-11.447-5.451-16.673C83.192,427.268,81.314,418.474,80.985,416.741Z" transform="matrix(-1, 0, 0, 1, 380, 0)" /><path class="cls-1" d="M79.642,415.449c9.149,7.837,35.957,9.152,47.684,4.251,2.9-.72,10.671-5.437,10.671-5.437,2.236-1.851,5.14-13.909,1.291-16.334-18.267,9.363-42.866,12.682-60.944.15C77.883,402.22,76.706,413.27,79.642,415.449Z" transform="matrix(-1, 0, 0, 1, 380, 0)" /><path d="M79.62,415.479a2.379,2.379,0,0,1-1.122-1.043,9.663,9.663,0,0,1-1.027-3.048A29.714,29.714,0,0,1,77.089,407c-.02-.81-.012-1.651.009-2.515l.047-1.312.033-.667.047-.759c.074-1.116.182-2.335.3-3.552l.088-.922.044-.465a.817.817,0,0,1,.014-.111l.095.057.19.115,1.531.922,1.549.934.779.469.39.235c.122.07.207.1.311.155l2.36,1.128a18.143,18.143,0,0,0,2.3.949l2.175.794c1.421.4,2.707.719,3.774.987a62.524,62.524,0,0,0,11.942,1.1,70.076,70.076,0,0,0,12.38-1.337,73.009,73.009,0,0,0,12.072-3.472c1.963-.7,3.849-1.568,5.718-2.408l1.578-.78,1.375-.667,1.28-.286.32-.071c.052,0,.11-.046.157-.014l.14.1.559.409a6.08,6.08,0,0,1,1.032.895,7.655,7.655,0,0,1,1.384,2.575l.188.709.114.577c.06.378.117.756.143,1.12a17.21,17.21,0,0,1,.054,2.142,26.017,26.017,0,0,1-.47,4.052,27.269,27.269,0,0,1-1.055,3.893,17.324,17.324,0,0,1-.832,1.96,9.605,9.605,0,0,1-.61,1.044l-.195.281-.286.343c-.192.232-.425.424-.637.635l-2.181,1.287-1.954,1.1c-1.311.721-2.63,1.419-4.008,2.074-.7.324-1.392.642-2.188.934-.208.072-.374.147-.619.214l-.345.1-.173.049-.031.009.066-.02.1-.036-1.061.37a35.843,35.843,0,0,1-4.407,1.226,67.786,67.786,0,0,1-16.8.977,68.909,68.909,0,0,1-14.94-2.514c-4.544-1.358-8.734-3.213-11.753-6.035a32.492,32.492,0,0,0,7.25,2.44,69.381,69.381,0,0,0,8.506,1.189c5.7.507,11.073.4,13.883.554a53.172,53.172,0,0,0,15.249-1.038c.611-.11,1.156-.34,1.736-.5l.858-.267a5.726,5.726,0,0,1,.592-.173,2.96,2.96,0,0,0,.384-.112,29.815,29.815,0,0,0,3.307-1.38c1.1-.523,2.19-1.078,3.262-1.646l1.6-.863,1.458-.814a1.368,1.368,0,0,0,.291-.3,5.639,5.639,0,0,0,.337-.51,11.6,11.6,0,0,0,.6-1.214,21.387,21.387,0,0,0,.9-2.657,22.476,22.476,0,0,0,.8-5.47,10.13,10.13,0,0,0-.265-2.566,2.491,2.491,0,0,0-.859-1.456l-.086-.065a.6.6,0,0,0-.1.041l-.193.093-.386.184-.951.457c-.831.419-1.677.791-2.527,1.139a85.7,85.7,0,0,1-10.111,3.637A76.914,76.914,0,0,1,114.7,406.81a57.95,57.95,0,0,1-19-.18,42.275,42.275,0,0,1-4.375-1.018,34.417,34.417,0,0,1-4.153-1.393l-1.994-.8c-.659-.269-1.27-.634-1.9-.945l-1.854-.97-.229-.121c-.058-.033-.077-.05-.117-.076l-.214-.146-.435-.3c-.186-.125-.379-.257-.58-.393l-.32-.223-.168-.119c-.044-.014-.029.088-.047.127-.091.477-.187.979-.284,1.491l-.082.475-.095.7-.187,1.516c-.12,1.01-.212,2.014-.286,2.987a25.029,25.029,0,0,0,.07,5.2A4.949,4.949,0,0,0,79.62,415.479Z" transform="matrix(-1, 0, 0, 1, 380, 0)" /><path class="cls-2" d="M104.911,390.735c-2.055-12.8-35.455-16.265-34.636-1.672.564,1.668,2.06,3.67.68,4.876-17.865,2-10.571,16.757,3.574,14.624,2.919-3.576-3.745-5.246-4.932-.3-1.295,4.184,1.752,8.754,5.982,10.162,9.144,2.85,17.392-5.077,21.509-12.533,4.53,8.884,19.542-7.07,9.431-9.381" transform="matrix(-1, 0, 0, 1, 380, 0)" /><path d="M106.526,396.484a3.931,3.931,0,0,1,2.57.909,3.4,3.4,0,0,1,1.269,2.442,6.346,6.346,0,0,1-.735,3.259,12.5,12.5,0,0,1-5.421,5.367,6.671,6.671,0,0,1-4.23.7,5.2,5.2,0,0,1-1.091-.352l-.5-.289-.238-.146-.121-.1a2.973,2.973,0,0,1-.756-.884l-.053-.084c-.018-.024-.035-.078-.052-.021l-.1.185-.2.363c-.127.242-.262.464-.4.683-.1.152-.356.6-.594.927l-.7,1.008a37.558,37.558,0,0,1-2.671,3.275,21.432,21.432,0,0,1-8.561,5.938,14.558,14.558,0,0,1-5.569.8c-.478-.042-.96-.069-1.438-.133l-1.421-.312a9.523,9.523,0,0,1-2.789-1.176,11.205,11.205,0,0,1-4.138-4.412,10,10,0,0,1-.958-3.012,8.278,8.278,0,0,1,.144-3.214,11.207,11.207,0,0,1,.489-1.575c.14-.274.287-.547.44-.816a6.386,6.386,0,0,1,.587-.755,5.154,5.154,0,0,1,1.561-1.177,4.943,4.943,0,0,1,2-.529,5.047,5.047,0,0,1,1.188.081,4.939,4.939,0,0,1,1.12.384,3.978,3.978,0,0,1,.933.678,5.509,5.509,0,0,1,.391.419l.291.5A4.143,4.143,0,0,1,76,409.765l-.454.569-.735.109a18.41,18.41,0,0,1-8.821-.651,12.92,12.92,0,0,1-5.191-3.221,8.014,8.014,0,0,1-2.4-6.276,6.834,6.834,0,0,1,1.286-3.357,9.209,9.209,0,0,1,2.378-2.262,16.028,16.028,0,0,1,5.379-2.2l1.348-.266a2.03,2.03,0,0,1,.3-.052l.13-.014.118-.013.01,0a.04.04,0,0,0,.012-.022,15.147,15.147,0,0,0-.607-1.475,3.979,3.979,0,0,1-.451-1.946,8.468,8.468,0,0,1,.1-1.511,9.118,9.118,0,0,1,2.763-5.343,12.964,12.964,0,0,1,4.762-2.786,20.487,20.487,0,0,1,4.956-1.017,27.507,27.507,0,0,1,4.79-.03,32.736,32.736,0,0,1,8.8,1.876,22.662,22.662,0,0,1,7.246,4.154,13.089,13.089,0,0,1,2.548,3.043,9.665,9.665,0,0,1,1.2,3.577,10.029,10.029,0,0,0-1.817-3.013,12.79,12.79,0,0,0-2.936-2.419,24.349,24.349,0,0,0-7.539-2.841,40.028,40.028,0,0,0-12.86-.531,13.15,13.15,0,0,0-5.906,1.862,8.069,8.069,0,0,0-1.119.885,6.373,6.373,0,0,0-1.41,2.324,7.293,7.293,0,0,0-.235,1.388l-.022.357a1.255,1.255,0,0,0-.016.18,1.236,1.236,0,0,0,.047.165l.137.362c.2.515.427,1,.651,1.695a3.941,3.941,0,0,1,.115,2.539,2.616,2.616,0,0,1-.655,1.039c-.076.064-.137.167-.225.2l-.274.076-.56.14c-.378.086-.763.156-1.141.209s-.549.091-.832.137a14.351,14.351,0,0,0-1.53.32,12.857,12.857,0,0,0-2.838,1.038,5.19,5.19,0,0,0-3.223,4.064,5.842,5.842,0,0,0,2.435,4.606,11.739,11.739,0,0,0,5.109,2.282,16.566,16.566,0,0,0,5.569.081l-.493.281a1.838,1.838,0,0,0,.441-1,.953.953,0,0,0-.522-.879,1.614,1.614,0,0,0-1.061-.165,3.385,3.385,0,0,0-.621.163,2.909,2.909,0,0,0-.566.344,3.935,3.935,0,0,0-1.3,2.46,6.2,6.2,0,0,0,.108,2.953,8.356,8.356,0,0,0,3.521,4.627,7.1,7.1,0,0,0,2.654,1.086,7.381,7.381,0,0,0,1.433.251,8.385,8.385,0,0,0,1.44.073c3.868-.034,7.368-2.008,10.114-4.443a29.036,29.036,0,0,0,3.748-3.988c.284-.349.535-.722.8-1.079.129-.182.27-.355.39-.543l.47-.712c.386-.587.757-1.224,1.113-1.823l.538-.9.266-.449c.09-.156.167-.127.251-.2.293.5.579,1,.929,1.531a8.208,8.208,0,0,0,.5.747l.513.6a1,1,0,0,0,.371.321,1.522,1.522,0,0,0,.308.182,2.776,2.776,0,0,0,.679.231,6.4,6.4,0,0,0,4.4-1.113,11.826,11.826,0,0,0,3.894-3.86,5.7,5.7,0,0,0,.835-2.364,2.976,2.976,0,0,0-.546-2.051A5.442,5.442,0,0,0,106.526,396.484Z" transform="matrix(-1, 0, 0, 1, 380, 0)" /><path class="cls-2" d="M124.592,377.851c-3.114,12.273-16.725,32.872-16.949,6.18C107.346,358.521,130.4,351.7,124.592,377.851Z" transform="matrix(-1, 0, 0, 1, 380, 0)" /><path d="M124.562,377.844c-.294-.411.444-3.674.325-7.426a13.891,13.891,0,0,0-1.052-5.4,5.532,5.532,0,0,0-1.321-1.85,3.267,3.267,0,0,0-1.507-.727,4.448,4.448,0,0,0-2.517.336,9.086,9.086,0,0,0-2.389,1.6,17.4,17.4,0,0,0-3.638,5.057,30.629,30.629,0,0,0-2.806,12.5c-.007,1.824.016,3.732.164,5.559a27.94,27.94,0,0,0,.765,5.206,6.98,6.98,0,0,0,.805,1.917c.036.054.07.128.1.169a.743.743,0,0,1,.1.093.95.95,0,0,1,.086.11.212.212,0,0,1,.066.029c.019.011.034.039.05.053a.048.048,0,0,1,.044,0c.014.041.074.013.125.023a2.908,2.908,0,0,0,1.4-.628,12.016,12.016,0,0,0,1.7-1.516,41.462,41.462,0,0,0,5.4-7.754,57.789,57.789,0,0,0,3.558-7.488,23.28,23.28,0,0,1-1.173,8.923,21.158,21.158,0,0,1-3.579,7.142,20.693,20.693,0,0,1-3.779,3.463,6.841,6.841,0,0,1-2.661,1.149,2.793,2.793,0,0,1-.835.062,2.63,2.63,0,0,1-.864-.119,3.855,3.855,0,0,1-1.5-.787,5.011,5.011,0,0,1-.93-1.132,5.87,5.87,0,0,1-.584-1.164,7.885,7.885,0,0,1-.386-1.146,8.513,8.513,0,0,1-.271-1.126,32.039,32.039,0,0,1-.531-4.343,46.617,46.617,0,0,1,1.425-15.768,25.869,25.869,0,0,1,2.988-6.664,14.743,14.743,0,0,1,4.973-4.977,7.54,7.54,0,0,1,3.459-1.068,5.623,5.623,0,0,1,3.557,1.064,6.729,6.729,0,0,1,2.126,2.723,11.287,11.287,0,0,1,.83,3,18.483,18.483,0,0,1-.389,6.5A38.319,38.319,0,0,1,124.562,377.844Z" transform="matrix(-1, 0, 0, 1, 380, 0)" /><path class="cls-2" d="M105.6,392.718c-8.185-3.527-3.116-15.02,2.5-18.636,4.991,4.688,2.085,13.171-.266,19.286" transform="matrix(-1, 0, 0, 1, 380, 0)" /><path d="M107.806,393.357c-.243-.28.227-1.881.719-3.722a24.345,24.345,0,0,0,.964-5.117,17.33,17.33,0,0,0-.685-6.067l-.263-.662c-.1-.213-.226-.4-.331-.608l-.157-.29-.06-.054a.768.768,0,0,0-.1-.085c-.05-.015-.083-.039-.113.032s-.006.05-.073.144a17.707,17.707,0,0,0-4.545,8.543,6.943,6.943,0,0,0,.32,3.9,7.079,7.079,0,0,0,2.356,2.807,4.582,4.582,0,0,1-2.321-.026,5.493,5.493,0,0,1-2.46-1.429,5.815,5.815,0,0,1-1.737-4.391,16.273,16.273,0,0,1,1.649-4.941,24.7,24.7,0,0,1,2.448-3.858c.455-.572.906-1.128,1.394-1.64a16.041,16.041,0,0,1,1.663-1.571c.338-.3.7-.534,1.043-.794l.536-.372.134-.093c.047-.057.076.052.115.07l.219.234.871.929.738,1a4.736,4.736,0,0,1,.54.917,5.436,5.436,0,0,1,.4.893l.321.909.214.914a14.314,14.314,0,0,1,.262,3.536,19.631,19.631,0,0,1-1.247,6.078A20.92,20.92,0,0,1,107.806,393.357Z" transform="matrix(-1, 0, 0, 1, 380, 0)" /><path class="cls-2" d="M112.935,396.271c-13.027-17.446-34.145,8.582-9.2,8.76,2.332-.374,13.085-1.35,11.934-4.356" transform="matrix(-1, 0, 0, 1, 380, 0)" /><path d="M115.693,400.664a.634.634,0,0,1,.293.514,1.576,1.576,0,0,1-.443,1.2,7.308,7.308,0,0,1-3.011,1.7c-2.411.835-5.211,1.291-6.738,1.691l-1.017.253-.5.124a2.718,2.718,0,0,1-.691.113c-.772.032-1.5.074-2.272.08a18.694,18.694,0,0,1-4.744-.645,9.6,9.6,0,0,1-4.643-2.669,6.688,6.688,0,0,1-1.465-2.646c-.065-.247-.141-.5-.185-.745l-.064-.752a6.762,6.762,0,0,1,.067-1.463,9.25,9.25,0,0,1,1.91-4.257,11.963,11.963,0,0,1,3.242-2.889,12.378,12.378,0,0,1,7.891-1.78,12.1,12.1,0,0,1,6.539,2.88,16.224,16.224,0,0,1,3.546,4.543c-1.605-.672-3.505-1.743-5.27-2.357-1.755-.661-3.274-.862-4.046-1.133a8.166,8.166,0,0,0-4.951-.284,9.416,9.416,0,0,0-4.286,2.43,6.26,6.26,0,0,0-1.917,4.044,4.1,4.1,0,0,0,1.882,3.453,9.685,9.685,0,0,0,3.875,1.475l1.015.177,1.023.088a17.582,17.582,0,0,0,2.007.088l.921.014.895-.142,1.92-.276,3.6-.519c1.081-.2,2.588-.33,3.831-.658a3.44,3.44,0,0,0,1.491-.707A1.153,1.153,0,0,0,115.693,400.664Z" transform="matrix(-1, 0, 0, 1, 380, 0)" /><path class="cls-2" d="M112.831,399.4c5.353-23.3,26.523-27.074,18.532-10.751-3.344,4.313-8.273,13.185-14.564,11.632" transform="matrix(-1, 0, 0, 1, 380, 0)" /><path d="M116.806,400.248a1.158,1.158,0,0,1,.57-.13,5.84,5.84,0,0,0,1.106-.095,7.066,7.066,0,0,0,3.049-1.176,17.684,17.684,0,0,0,4.87-5.174q1.169-1.922,2.392-3.93l.645-1.025.343-.518.174-.26c.039-.056.047-.073.041-.069l.013-.031c0-.022.089-.251.153-.418l.207-.529c.151-.35.244-.706.361-1.059a9.157,9.157,0,0,0,.518-3.914,1.735,1.735,0,0,0-.491-.984,1.378,1.378,0,0,0-.955-.271,6.47,6.47,0,0,0-2.874.8,15.412,15.412,0,0,0-2.909,1.922,27.117,27.117,0,0,0-4.787,5.172,51.886,51.886,0,0,0-5.832,10.969,15.957,15.957,0,0,1-.116-6.494,13.4,13.4,0,0,1,1.975-5.294,30.34,30.34,0,0,1,9.768-8.62,12.791,12.791,0,0,1,2.9-1.061,6.27,6.27,0,0,1,3.162.039,3.812,3.812,0,0,1,2.423,2.167,6.176,6.176,0,0,1,.418,2.932,16.265,16.265,0,0,1-1.337,5.052l-.239.571c-.046.1-.091.237-.164.364l-.231.321-.654.941-1.275,1.88a27.784,27.784,0,0,1-5.622,6.507,8.9,8.9,0,0,1-4.316,1.907,6.651,6.651,0,0,1-1.148.043l-.974-.125C117.4,400.477,117,400.324,116.806,400.248Z" transform="matrix(-1, 0, 0, 1, 380, 0)" /><path class="cls-2" d="M126.144,400.123c-9.355-1.989,1.472-10.054,4.764-13.024,2.14-2.062,2.97-4.851,5-7,7.48-7.461,15.228,5.534,9.18,12.16-1.119,3.136-18.608,12.353-17.689,5.361" transform="matrix(-1, 0, 0, 1, 380, 0)" /><path d="M127.429,397.623c.193.144.051,1,.754,1.638.695.581,2.153.432,3.65.023a27.482,27.482,0,0,0,7.82-3.784c.81-.59,1.619-1.211,2.386-1.878a13.589,13.589,0,0,0,1.076-1.032,5.048,5.048,0,0,0,.425-.514,2.347,2.347,0,0,0,.132-.216c.031-.041.022-.052.023-.063l0-.017c.015,0-.031-.018.037.006l.18.054.089-.57a7.416,7.416,0,0,0,1.3-6.368c-.483-2.223-2.008-4.313-3.643-4.848a3.287,3.287,0,0,0-2.932.411,7.182,7.182,0,0,0-1.423,1.14,12.547,12.547,0,0,0-1.218,1.6,42.71,42.71,0,0,1-2.709,4.054,11.92,11.92,0,0,1-1.9,1.842l-1.745,1.394c-1.132.9-2.207,1.789-3.18,2.683a15.3,15.3,0,0,0-2.433,2.7,3.563,3.563,0,0,0-.545,1.23,1.133,1.133,0,0,0,.21.945,5.606,5.606,0,0,0,2.475,1.491,4.873,4.873,0,0,1-3.589-.408,2.942,2.942,0,0,1-1.3-2.246,5.723,5.723,0,0,1,.411-2.516,13.339,13.339,0,0,1,2.134-3.585,11.634,11.634,0,0,1,2.029-2.027l2.271-1.614c.72-.518,1.518-1.039,2.007-1.474a21.7,21.7,0,0,0,3.007-3.857,17.589,17.589,0,0,1,1.661-2.085,10.334,10.334,0,0,1,2.116-1.678,6.4,6.4,0,0,1,5.217-.757,7.794,7.794,0,0,1,3.913,3.037,11.125,11.125,0,0,1,1.786,4.272,10.557,10.557,0,0,1-.081,4.468,9.433,9.433,0,0,1-2,3.869l.209-.348a5.116,5.116,0,0,1-1.275,1.77,15.509,15.509,0,0,1-1.358,1.17,27.859,27.859,0,0,1-2.776,1.875,29.549,29.549,0,0,1-5.633,2.622,11.856,11.856,0,0,1-5.56.668,3.433,3.433,0,0,1-1.391-.561,1.844,1.844,0,0,1-.709-1.028A2.746,2.746,0,0,1,127.429,397.623Z" transform="matrix(-1, 0, 0, 1, 380, 0)" /><path class="cls-2" d="M109.52,400.579c1.674,6.787,26,16.464,22,3.6-2.113-7-23.35-10.811-20.138-.656" transform="matrix(-1, 0, 0, 1, 380, 0)" /><path d="M111.355,403.532a2.588,2.588,0,0,1-.685-1.589,4.623,4.623,0,0,1,.059-1.72A4.064,4.064,0,0,1,111.8,398.4a7.439,7.439,0,0,1,3.895-1.767,21.481,21.481,0,0,1,3.384-.264,19.672,19.672,0,0,1,9.344,2.181,10.924,10.924,0,0,1,4.168,3.557c.134.224.273.44.392.676l.312.748c.152.456.253.863.376,1.3.1.444.16.926.23,1.387a8.241,8.241,0,0,1-.044,1.546,5.364,5.364,0,0,1-1.236,2.806,5.866,5.866,0,0,1-2.511,1.571,10.559,10.559,0,0,1-4.66.274,24.114,24.114,0,0,1-7.473-2.471,24.993,24.993,0,0,1-5.773-3.977,13.7,13.7,0,0,1-2.1-2.432,6.5,6.5,0,0,1-1.145-2.808c1.291,1.475,3.242,2.312,5.081,3.158a34.3,34.3,0,0,1,4.374,2.051,21.9,21.9,0,0,0,5.125,2.713,11.126,11.126,0,0,0,5.169.8,2.96,2.96,0,0,0,1.885-.906,2.765,2.765,0,0,0,.575-1.958,8.114,8.114,0,0,0-.128-1.148c-.107-.377-.191-.789-.314-1.129a4.615,4.615,0,0,0-1.179-1.766,11.885,11.885,0,0,0-3.7-2.36,21.234,21.234,0,0,0-4.03-1.242,17.623,17.623,0,0,0-7.34-.153,7.512,7.512,0,0,0-1.546.615,3.127,3.127,0,0,0-1.2,1.28A6.034,6.034,0,0,0,111.355,403.532Z" transform="matrix(-1, 0, 0, 1, 380, 0)" /><path class="cls-2" d="M94.9,386.394c-10.23-.181-15.083-16.306-5.186-20.352,11.492,2.32,11.771,14.941,13.385,24.151" transform="matrix(-1, 0, 0, 1, 380, 0)" /><path d="M103.071,390.2c-.787-.341-1.826-8.821-3.116-11.749a20.871,20.871,0,0,0-4.25-7.224,11.075,11.075,0,0,0-1.524-1.315,6.7,6.7,0,0,0-.85-.519,6.2,6.2,0,0,0-.873-.468c-1.1-.489-3-1.022-2.67-.732l-.54.349c-.212.137-.391.308-.592.453l-.525.507c-.147.193-.321.362-.455.562a7.182,7.182,0,0,0-1.166,2.672,10.985,10.985,0,0,0,.569,6.056,11.714,11.714,0,0,0,3.239,4.777,10.265,10.265,0,0,0,2.213,1.464,11.107,11.107,0,0,0,2.382.779,6.151,6.151,0,0,1-2.854.7,8.439,8.439,0,0,1-3.481-.784,8.71,8.71,0,0,1-4.288-4.023,16.152,16.152,0,0,1-1.258-6.776,11.5,11.5,0,0,1,1.874-6.064,9.555,9.555,0,0,1,2.1-2.192,9.07,9.07,0,0,1,1.235-.8,6.828,6.828,0,0,1,.745-.367l.4-.184c.134-.057.261-.159.413-.075l1.513.414.653.177c.211.078.417.173.624.259l1.233.521c.391.207.761.45,1.139.671l.561.339c.179.122.339.27.509.4l1,.816.863.92.424.459.363.5.711.988c.21.34.4.688.593,1.029a18.565,18.565,0,0,1,1.006,2.07,29.6,29.6,0,0,1,2,8A51.172,51.172,0,0,1,103.071,390.2Z" transform="matrix(-1, 0, 0, 1, 380, 0)" /><g class="cls-3" transform="matrix(-1, 0, 0, 1, 380, 0)"><path d="M94.139,407.743c.128.156.1.7-.356,1.351a3.838,3.838,0,0,1-2.643,1.533L89.8,410.8l.575-1.361a10.733,10.733,0,0,0,.857-4.335l1.832.909c-1.409,1.3-2.763,2.52-3.65,3.386-.427.417-.878.832-1.383,1.242a9.182,9.182,0,0,1-.857.617,4.027,4.027,0,0,1-.568.311l-.361.152a3.782,3.782,0,0,1-.6.13,2.332,2.332,0,0,1-2.312-1.155,3.059,3.059,0,0,1-.229-.573,2.948,2.948,0,0,1-.069-.3,1.613,1.613,0,0,1-.02-.181,4.772,4.772,0,0,1,0-.608,3.655,3.655,0,0,0,.018-.432l.017-.4c.017-.41-.068-.479-.213-.433a.43.43,0,0,0-.095.046,2.166,2.166,0,0,0-.223.212,2.99,2.99,0,0,0-.3.391l-.142.233-.01.023h0a4.526,4.526,0,0,1-.545.122l-4.487.779,1.055-4.5a22.976,22.976,0,0,1,6.153-10.985l4.031,3.152a17.221,17.221,0,0,1-11.317,6.3c1.271-1.681,2.837-3.594,4-5.387,1.2-1.776,2.028-3.37,2.729-4.134l4.8,3.749a2.072,2.072,0,0,1-.216.191,16.716,16.716,0,0,0-5.693,8.136l-1.707-1.849a1.62,1.62,0,0,0,1.025-.433l.644-.5c.213-.165.467-.446.694-.658a15.324,15.324,0,0,1,1.316-1.166,4.475,4.475,0,0,1,.533-.393l.478-.325a11.333,11.333,0,0,0,2.133-1.684,10.53,10.53,0,0,1,2.159-1.646c.255-.125.5-.254.77-.376l.44-.176c.136-.05.345-.165.308-.061a3.05,3.05,0,0,0,.274.595c-.759,2-1.442,3.7-2.236,5.713-.412,1.012-.937,2.146-1.482,3.313-.27.584-.547,1.173-.8,1.766-.131.3-.242.593-.351.89-.048.138-.065.224-.1.339-.021.02.011.075-.044.039a2.1,2.1,0,0,0-.286-.043,2.179,2.179,0,0,0-.586.035.446.446,0,0,0-.29.051.571.571,0,0,0-.068.045v0a.011.011,0,0,0-.011,0c-.04.05.05-.073.057-.166.019-.109-.026-.127-.007-.372a2.073,2.073,0,0,0-.083-.564l-.045-.133-.026-.065-.009,0,.024-.015a.54.54,0,0,1,.1-.045c.228-.121.506-.289.792-.477.576-.387,1.164-.826,1.74-1.26,1.157-.873,2.285-1.75,3.408-2.557l2.951-2.123-.33,3.424c-.022.234-.051.457-.086.677a9.17,9.17,0,0,1-1.948,4.354l-.871-1.352a3.031,3.031,0,0,0,1.977-.263A3.427,3.427,0,0,0,94.139,407.743Z" /></g><path class="cls-4 color-body" d="M120.2,461.139c-3.689,7.891-15.734,10.057-26.9,4.836s-15.937-14.4-14.57-23.052c1.19-7.534,6.859-15.37,18.028-10.149S123.889,453.247,120.2,461.139Z" transform="matrix(-1, 0, 0, 1, 380, 0)" style="fill:#ffffff;--backup-fill:#ffffff" /><path d="M120.145,461.113c-.206-.371.143-1.577-.243-3.316a17.551,17.551,0,0,0-2.939-6.093,43.948,43.948,0,0,0-10.533-10.25,76.535,76.535,0,0,0-7.879-4.6,27.945,27.945,0,0,0-4.113-1.726,12.8,12.8,0,0,0-3.876-.729,6.719,6.719,0,0,0-5.7,2.853,13.968,13.968,0,0,0-2.41,7.086,16.526,16.526,0,0,0,4.3,12.094,25.25,25.25,0,0,0,5.144,4.451c.951.645,1.965,1.2,2.969,1.756,1.023.49,2.033.991,3.076,1.374a24.747,24.747,0,0,0,12.274,1.678,12.751,12.751,0,0,0,8.948-5.037,8.884,8.884,0,0,1-1.937,5.784,14.951,14.951,0,0,1-6.121,4.6,19.823,19.823,0,0,1-7.138,1.56,20.6,20.6,0,0,1-2.994-.136,16.6,16.6,0,0,1-2.248-.508,42.492,42.492,0,0,1-6.723-3.129,43.373,43.373,0,0,1-5.713-4.066,27.53,27.53,0,0,1-7.841-10.709A22.287,22.287,0,0,1,77,447.861a21.33,21.33,0,0,1,.4-6.119,20.257,20.257,0,0,1,2.032-5.591,14.061,14.061,0,0,1,3.86-4.546,11.068,11.068,0,0,1,5.547-2.174,14.711,14.711,0,0,1,5.6.494,35.12,35.12,0,0,1,9.084,4.262,51.181,51.181,0,0,1,13.2,11.734,22.888,22.888,0,0,1,4.237,8.506,10.424,10.424,0,0,1,.191,4.362A5.9,5.9,0,0,1,120.145,461.113Z" transform="matrix(-1, 0, 0, 1, 380, 0)" /></svg>