<svg xmlns="http://www.w3.org/2000/svg" viewBox="0 0 380 600"><defs transform="matrix(-1, 0, 0, 1, 380, 0)"><style>.cls-1{isolation:isolate;}.cls-2{fill:#fff;}.cls-3{fill:#a06a42;}.cls-4{fill:#ff4500;}.cls-5{opacity:0.4;}.cls-6{mix-blend-mode:multiply;}.cls-7{opacity:0.3;}</style></defs><g class="cls-1" transform="matrix(-1, 0, 0, 1, 380, 0)"><g id="sports"><circle class="cls-2" cx="122.179" cy="411.517" r="25.795" style="" /><path d="M147.925,411.517a4.189,4.189,0,0,1-.411-1.444c-.078-.385-.116-.841-.226-1.345s-.239-1.062-.376-1.67a27.4,27.4,0,0,0-3.583-8.436,25.035,25.035,0,0,0-7.362-7.384,21.37,21.37,0,0,0-7.846-3.129,24.5,24.5,0,0,0-21.445,6.3,23.511,23.511,0,0,0-3.688,4.509,22.678,22.678,0,0,0-1.367,2.557c-.191.443-.42.868-.584,1.319l-.466,1.361a8.927,8.927,0,0,0-.388,1.378l-.333,1.386-.185,1.41a8.961,8.961,0,0,0-.135,1.406,19.562,19.562,0,0,0,.011,2.8c.036.463.051.927.1,1.385l.234,1.358A22.979,22.979,0,0,0,110.1,430.546a23.556,23.556,0,0,0,17.327,3.265,24.043,24.043,0,0,0,14.074-8.6,26.406,26.406,0,0,0,3.88-6.694,29.279,29.279,0,0,0,1.663-7,19.735,19.735,0,0,1,.7,7.741,23.568,23.568,0,0,1-2.971,8.942,23.811,23.811,0,0,1-5.984,6.969,15.559,15.559,0,0,1-1.646,1.17,13.336,13.336,0,0,1-1.574.946,15.886,15.886,0,0,1-2.748,1.173,28.4,28.4,0,0,1-9.552,1.352,29.208,29.208,0,0,1-9.024-1.6,30.118,30.118,0,0,1-7.733-4.111,28.492,28.492,0,0,1-5.9-5.964,26.764,26.764,0,0,1-3.8-7.124,28.759,28.759,0,0,1-1.088-3.789c-.143-.635-.2-1.284-.307-1.922l-.14-.957c-.028-.32-.035-.642-.053-.961q-.043-.96-.086-1.912.047-.953.094-1.9a12.446,12.446,0,0,1,.2-1.871c.1-.617.164-1.24.3-1.846a29.132,29.132,0,0,1,2.436-6.9,27.4,27.4,0,0,1,4.023-5.845,27.979,27.979,0,0,1,2.464-2.455c.424-.389.9-.715,1.345-1.073a13.844,13.844,0,0,1,1.383-1,26.932,26.932,0,0,1,24.53-2.884,25.928,25.928,0,0,1,9.595,6.325c.6.648,1.222,1.385,1.852,2.173a28.677,28.677,0,0,1,1.691,2.658,21.215,21.215,0,0,1,1.375,2.955c.186.511.411,1,.553,1.516l.411,1.525.194.739c.041.25.081.5.121.742q.113.729.219,1.417c.139.912.114,1.782.166,2.537C148.11,409.809,147.947,410.958,147.925,411.517Z" /><path class="cls-3" d="M93.859,420.029C92.308,416.4,90.631,412.6,87.5,410.2c-10.212-7.819-13.345,6.137-12.3,13.586a36.766,36.766,0,0,0,15.322,25.424" /><path d="M90.488,449.251c-.27.152-.976-.1-1.952-.614-.471-.275-1-.621-1.578-1.01-.558-.407-1.147-.873-1.75-1.365a55.342,55.342,0,0,1-5.968-6.291,30.233,30.233,0,0,1-5.671-9.744,39.7,39.7,0,0,1-1.54-5.665,25.448,25.448,0,0,1-.394-6.073,23.4,23.4,0,0,1,.81-5.173,15.378,15.378,0,0,1,2.447-5.158,9.9,9.9,0,0,1,2.437-2.323A8.231,8.231,0,0,1,80.8,404.56a8.4,8.4,0,0,1,3.388.292,9.063,9.063,0,0,1,1.395.519,9.484,9.484,0,0,1,1.215.635,14.072,14.072,0,0,1,2.016,1.456,14.435,14.435,0,0,1,1.723,1.687,16.135,16.135,0,0,1,2.338,3.712,26.537,26.537,0,0,1,1.923,6.766,52.967,52.967,0,0,1-6.132-4.326c-.934-.681-1.77-1.222-2.432-1.638-.333-.207-.622-.391-.864-.565a3.154,3.154,0,0,1-.657-.57,8.086,8.086,0,0,0-1.955-1.722,2.544,2.544,0,0,0-1.8-.407,3.637,3.637,0,0,0-1.891,1.271,9.46,9.46,0,0,0-1.441,2.462,17.631,17.631,0,0,0-1.221,5.75,18.771,18.771,0,0,0,.066,2.826c.084.894.3,1.832.467,2.732a35.874,35.874,0,0,0,3.71,9.549,64.181,64.181,0,0,0,4.9,7.382c.805,1.035,1.815,2.557,2.773,3.927S90.207,448.827,90.488,449.251Z" /><path class="cls-3" d="M110.83,435.86c-5.563-3.594-13.925-10.413-21.272-7.889-7.5,2.575-6.2,12.974-4.962,19.076,2.826,13.947,21.216,25.491,34.8,27.254,5.4.7,11.507-.076,15.146-4.129,3.583-3.99,3.723-10.26,1.436-15.111s-6.579-8.471-11.14-11.292S115.334,438.769,110.83,435.86Z" /><path d="M110.845,435.836a40.788,40.788,0,0,1,3.97,1.972c2.17,1.128,5.093,2.525,8.166,4.207a42.9,42.9,0,0,1,8.794,6.139,23.4,23.4,0,0,1,5.318,7.185,15.769,15.769,0,0,1,.423,12.555,12.274,12.274,0,0,1-4.346,5.3,16.365,16.365,0,0,1-6.353,2.529,25.49,25.49,0,0,1-6.69.269c-1.113-.082-2.182-.305-3.27-.466-1.078-.194-2.125-.483-3.185-.722a53.1,53.1,0,0,1-11.729-4.878,49.562,49.562,0,0,1-8.85-6.283,37.588,37.588,0,0,1-7.038-8.233q-.654-1.2-1.305-2.391c-.365-.835-.7-1.685-1.039-2.523-.3-.855-.494-1.756-.737-2.627s-.339-1.688-.485-2.542a30.431,30.431,0,0,1-.153-10.244,12.854,12.854,0,0,1,1.966-4.938c.286-.361.55-.735.862-1.07l1.014-.927c.372-.262.76-.5,1.14-.738a8,8,0,0,1,1.2-.552,11.174,11.174,0,0,1,4.926-.725,15.84,15.84,0,0,1,4.5,1,33.364,33.364,0,0,1,7.278,3.954c2.139,1.471,4.053,2.984,5.888,4.327-1.916-.783-4.2-1.978-6.652-3.153a36.785,36.785,0,0,0-7.723-2.893,12.966,12.966,0,0,0-3.731-.339,10.431,10.431,0,0,0-1.661.224c-.262.058-.506.161-.753.232a3.173,3.173,0,0,0-.7.262,6.874,6.874,0,0,0-3.262,3.021,14.741,14.741,0,0,0-1.514,7.3,35.282,35.282,0,0,0,.252,3.946,27.97,27.97,0,0,0,.657,3.85,13.033,13.033,0,0,0,.5,1.819q.337.887.673,1.765c.236.582.567,1.124.844,1.686l.434.835c.153.273.34.528.508.792l1.032,1.567L91.18,457.8a36.764,36.764,0,0,0,2.482,2.756A47.989,47.989,0,0,0,105.3,468.9a43.4,43.4,0,0,0,12.677,4.4,20.913,20.913,0,0,0,12.122-1,12.824,12.824,0,0,0,2.438-1.481,11.246,11.246,0,0,0,1.911-2,11.479,11.479,0,0,0,1.277-2.4,13.41,13.41,0,0,0,.656-2.619,15.367,15.367,0,0,0-2.278-10.042,27.32,27.32,0,0,0-6.884-7.261,109.534,109.534,0,0,0-9.473-6.127A78.156,78.156,0,0,1,110.845,435.836Z" /><path class="cls-4" d="M131.243,392.739c-.627-.975-.335-1.093-.581-1.719a2.746,2.746,0,0,1-.267-1.851c.129-.648,1,0,2.127,1.673,1.285,2.778,2.161,4.753,1.86,4.307-1.231-1.785-1.56-1.809-1.615-1.508s.135.941-.263.6C132.377,394.17,131.461,393.011,131.243,392.739Z" /><path class="cls-4" d="M127.019,396.592c-.887-.749-.476-1.176-.818-1.789a2.536,2.536,0,0,1-.32-2.191c.233-.938,1.551-.774,3.192.5,1.763,2.5,2.953,4.312,2.517,3.98-1.783-1.312-2.287-1.081-2.385-.641s.161,1.124-.4,1.025A11.434,11.434,0,0,1,127.019,396.592Z" /><path class="cls-4" d="M124.185,401.555c-1.078-.424-.809-.959-1.329-1.439a2.407,2.407,0,0,1-.954-1.984c-.045-.957,1.24-1.222,3.163-.528,2.454,1.853,4.156,3.22,3.643,3.038-2.083-.7-2.5-.33-2.477.107-.007.447.514,1.01-.067,1.082A12.13,12.13,0,0,1,124.185,401.555Z" /><path class="cls-4" d="M123.6,407.2c-1.137.2-1.207-.421-1.891-.61a2.437,2.437,0,0,1-1.785-1.508c-.468-.987.676-1.853,2.754-1.894,2.938.862,5.021,1.429,4.479,1.431-2.2.079-2.42.61-2.181.949.241.372.907.567.46.878A18.194,18.194,0,0,1,123.6,407.2Z" /><path class="cls-4" d="M126.036,412.364c-.972.635-1.259.132-1.941.3a2.509,2.509,0,0,1-2.19-.272c-.845-.478-.357-1.774,1.338-2.979,2.917-.932,4.972-1.6,4.527-1.285-1.771,1.318-1.676,1.88-1.281,2.089.407.228,1.133.156.888.682A10.284,10.284,0,0,1,126.036,412.364Z" /><path class="cls-4" d="M129.488,416.967c-.94.679-1.242.209-1.9.441a2.78,2.78,0,0,1-2.108.094c-.81-.245-.431-1.38.9-2.961,2.548-1.694,4.489-2.689,4.145-2.253-2.77,3.51.594,2,.205,3.125A8.567,8.567,0,0,1,129.488,416.967Zm-2.919.181h0" /><path class="cls-4" d="M132.557,421.738c-1.062.485-1.235,0-1.942.149a3.166,3.166,0,0,1-2.079-.059c-.737-.245-.19-1.248,1.238-2.776,2.6-1.59,4.624-2.4,4.259-1.971-1.48,1.716-1.393,2.21-.949,2.485s1.228.294.965.844A6.927,6.927,0,0,1,132.557,421.738Z" /><path class="cls-4" d="M134.115,427.183c-1.157.042-1.155-.463-1.843-.556A3.589,3.589,0,0,1,130.4,426c-.593-.371.22-1.078,1.974-2.175,2.928-.883,5.128-1.074,4.666-.743-1.869,1.287-1.945,1.77-1.619,2.207.32.416,1.029.773.579,1.213A6.208,6.208,0,0,1,134.115,427.183Z" /><path class="cls-4" d="M133.629,431.005c-1.086-.4-.962-.63-1.575-.907a6.535,6.535,0,0,1-1.565-.86c-.438-.309.562-.3,2.6-.283,3.024.432,5.107,1.04,4.558,1.062-2.2.049-2.432.228-2.271.552.164.305.716.732.179.787A10.019,10.019,0,0,1,133.629,431.005Z" /><path class="cls-4" d="M106.422,397.427c-.81.831-.989.619-1.513,1.045a4.154,4.154,0,0,1-1.559.948c-.541.188-.113-.752.948-2.5,1.934-2.357,3.458-3.879,3.189-3.4-1.1,1.908-1.034,2.206-.693,2.193s.938-.357.747.132A12.243,12.243,0,0,1,106.422,397.427Z" /><path class="cls-4" d="M110.192,402.221c-1.022.546-1.27.036-1.948.212a3.2,3.2,0,0,1-2.067.029c-.754-.2-.318-1.234.9-2.911,2.431-1.858,4.413-2.832,4.105-2.354-1.258,1.892-1.119,2.4-.64,2.686s1.259.3,1.038.892C111.577,401,110.467,402.005,110.192,402.221Z" /><path class="cls-4" d="M112.45,407.891c-1.135.234-1.229-.325-1.928-.347a3.206,3.206,0,0,1-1.992-.555c-.666-.407.043-1.278,1.689-2.54,2.859-1.091,5.034-1.467,4.6-1.1-1.743,1.458-1.752,1.986-1.373,2.395.372.392,1.123.647.744,1.151A6.706,6.706,0,0,1,112.45,407.891Z" /><path class="cls-4" d="M112.958,413.968c-1.156-.117-1.1-.678-1.762-.906a3.1,3.1,0,0,1-1.717-1.108c-.552-.574.395-1.187,2.36-1.924,3.04-.223,5.22.055,4.7.287-2.111.9-2.211,1.393-2,1.9.224.486.865.955.362,1.325A6.521,6.521,0,0,1,112.958,413.968Z" /><path class="cls-4" d="M111.645,419.923c-1.071-.443-.834-.959-1.4-1.371a3.19,3.19,0,0,1-1.334-1.579c-.322-.711.752-1.028,2.823-1.149,2.979.7,4.989,1.614,4.425,1.68-2.261.227-2.566.658-2.482,1.209.087.534.564,1.166-.031,1.369A6.74,6.74,0,0,1,111.645,419.923Z" /><path class="cls-4" d="M108.7,425.265c-.9-.728-.528-1.156-.955-1.71a3.2,3.2,0,0,1-.835-1.891c-.108-.773,1.014-.778,3.035-.306,2.657,1.517,4.328,2.959,3.768,2.862-2.232-.422-2.647-.094-2.722.458-.067.537.212,1.279-.417,1.306A6.712,6.712,0,0,1,108.7,425.265Z" /><path class="cls-4" d="M105.953,428.222c-.754-.882-.526-1.041-.9-1.6a4.167,4.167,0,0,1-.8-1.639c-.138-.557.76-.044,2.4,1.172,2.17,2.142,3.546,3.8,3.095,3.488-1.8-1.267-2.1-1.233-2.119-.891s.269.967-.2.732A12.249,12.249,0,0,1,105.953,428.222Z" /><g class="cls-5"><path d="M142.283,407.042c.318.11.716,1.636.751,3.458a28.769,28.769,0,0,1-.414,5.04,16.945,16.945,0,0,1-2.1,6.239,19.838,19.838,0,0,1-4.355,5.278,18.67,18.67,0,0,1-10.187,4.366,15.929,15.929,0,0,1-8.787-1.475,39.687,39.687,0,0,1,4.149-1.4,11.222,11.222,0,0,1,3.19-.663,14.048,14.048,0,0,0,7.442-1.39,14.6,14.6,0,0,0,5.239-4.325A18.655,18.655,0,0,0,140,416.9a35.863,35.863,0,0,0,1.308-5.017c.109-.757.4-1.791.582-2.743C142.1,408.187,142.209,407.331,142.283,407.042Z" /></g><path class="cls-3" d="M89.917,447.719a45.456,45.456,0,0,0,18.1,14.125c6.439,2.661,16.308,8.014,23.275,6.359,8.905-2.116,11.443-12.813,8.992-20.616-2.329-7.413-7.828-13.309-12.452-19.553-5.6-7.561-10.909-16.578-19.966-19.127-9.8-2.757-20.759,4.294-23.76,14.024C81.429,431.626,84.406,440.474,89.917,447.719Z" /><path d="M89.873,447.752c-.425-.133-1.826-1.523-3.413-3.964a32.317,32.317,0,0,1-2.351-4.41,28.174,28.174,0,0,1-1.748-5.711,23.932,23.932,0,0,1,1-12.772,24.6,24.6,0,0,1,5.99-8.882,21.707,21.707,0,0,1,13.8-6.173,19.185,19.185,0,0,1,8.115,1.384,25.257,25.257,0,0,1,6.942,4.27c4.084,3.482,7.106,7.644,10,11.51,1.447,1.957,2.827,3.786,4.31,5.624s2.985,3.7,4.441,5.632a42.517,42.517,0,0,1,6.483,11.478,23.345,23.345,0,0,1,.463,13.93,18.18,18.18,0,0,1-3.252,6.459,14.987,14.987,0,0,1-5.917,4.5,10.444,10.444,0,0,1-1.737.608l-.877.25c-.3.062-.611.106-.916.156l-.915.132-.886.041a12.088,12.088,0,0,1-1.728-.02,26.984,26.984,0,0,1-6.208-1.2,71.432,71.432,0,0,1-10.307-4.34l-4.588-2.25a39.964,39.964,0,0,1-4.579-2.6A44.054,44.054,0,0,1,89.1,448.339a74.673,74.673,0,0,0,15.8,9.129c1.451.586,2.887,1.094,4.263,1.5,1.559.49,2.994,1,4.3,1.49,2.6.976,4.713,1.818,6.117,2.481a27.9,27.9,0,0,0,8.305,2.732,8.994,8.994,0,0,0,3.743-.216,8.616,8.616,0,0,0,3.3-1.662,12.152,12.152,0,0,0,3.968-6.623,17.83,17.83,0,0,0,.391-1.994,19.991,19.991,0,0,0,.132-2.03,17.468,17.468,0,0,0-.386-4.009,27.3,27.3,0,0,0-3.071-7.513,64.161,64.161,0,0,0-4.6-6.737c-1.642-2.159-3.339-4.265-4.931-6.422s-3.095-4.268-4.632-6.279c-3.056-4-6.307-7.658-10.176-9.844a16.882,16.882,0,0,0-6.012-2.079,15.328,15.328,0,0,0-6.057.453,20.035,20.035,0,0,0-9.8,6.241,19.2,19.2,0,0,0-3.043,4.651,21.292,21.292,0,0,0-1.573,5.169,25.95,25.95,0,0,0-.278,5.858,29.436,29.436,0,0,0,1.193,6.472A41.349,41.349,0,0,0,89.873,447.752Z" /><path d="M117.3,460.1a1.2,1.2,0,0,1,.022.863,2.823,2.823,0,0,1-1.088,1.511,4,4,0,0,1-2.49.787,7.158,7.158,0,0,1-2.908-.791c-1.831-.935-3.579-2.017-5.278-2.958-1.675-.951-3.2-1.8-4.308-2.376-3.881-2.033-8.23-4.305-11.75-8.041-3.567-3.664-5.625-9.255-4.408-14.467a10.752,10.752,0,0,1,1.332-3.264l.236-.38a1.619,1.619,0,0,1,.134-.2l.235-.272.942-1.085a2.652,2.652,0,0,1,2.437-.616,3.865,3.865,0,0,1,2.13,1.648l.97,1.281,1.764,2.272c2.37,2.987,4.767,5.833,7.147,8.471,4.745,5.294,9.367,9.8,13.136,13.377a38.527,38.527,0,0,1-8.071-4.369,33.837,33.837,0,0,1-6.1-5.15q-3.15-3.774-5.941-7.418-1.393-1.827-2.712-3.614l-1.3-1.784-1.073-1.515a1.106,1.106,0,0,0-.449-.395.518.518,0,0,0-.55.138,5.277,5.277,0,0,0-.405.457,2.427,2.427,0,0,0-.234.333l-.26.4a9.017,9.017,0,0,0-1.193,3.562,13.026,13.026,0,0,0,1.278,7.157,18.041,18.041,0,0,0,4.282,5.442,40.078,40.078,0,0,0,5.364,3.913c3.69,2.262,7.26,4.326,10.442,6.419,1.581.92,3.422,2.642,5.368,2.86a3.37,3.37,0,0,0,2.474-.744A2.334,2.334,0,0,0,117.3,460.1Z" /><g class="cls-6"><g class="cls-7"><path d="M100.846,466.765c.555-.2,2.628.378,5.773,1.06a56.134,56.134,0,0,1,5.471,1.446,25.3,25.3,0,0,1,6.249,3.091l-1.806,2.521c-4.061-2.682-8.507-5.494-12.526-8.312s-7.5-5.7-9.933-7.76c-1.458-1.217-2.874-2.506-4.366-3.912l3.5-4.636A158.944,158.944,0,0,1,120,465.106l-5.5,6.537c-8.042-7.387-16.012-14.882-23.609-22.011L85.35,444.4l6.362-7.85c12.362,8.1,24.337,16.291,35.317,24.132l-5.434,7.668a161.73,161.73,0,0,1-35.352-38.474c5.237,3.1,11.991,8.09,18.3,12.673,6.281,4.624,12.078,8.906,14.767,11.612,2.507,2.537,5.075,4.952,7.545,7.156l-4.718,6.659c-11.941-9.445-23.456-17.861-34.413-25.479l2.617-3.23c10.04,10.1,19.663,19.236,28.7,27.7l-2.877,3.418A197.441,197.441,0,0,0,90.593,455.4l3.332-4.418a118.631,118.631,0,0,0,8.659,8.277c2.925,2.516,5.946,4.791,8.933,7.054,2.031,1.485,4.448,3.39,7.11,5.6L116.2,475.3a25.261,25.261,0,0,0-4.311-3.083c-1.555-.878-3.2-1.6-4.722-2.273A47.886,47.886,0,0,1,100.846,466.765Z" /></g></g></g></g></svg>