<svg xmlns="http://www.w3.org/2000/svg" id="Sketch" viewBox="0 0 380 600"><defs><style>.cls-1{fill:#19f2c8;}.cls-2{fill:#f9a;}.cls-3{fill:#ff3881;}.cls-4{fill:#ffffff;}</style></defs><line class="cls-1" x1="132.53" x2="148.93" y1="421.71" y2="412.43"></line><path d="M149,412.45c.18.63-2.23,2-3,2.8a25.44,25.44,0,0,1-4.72,3.75,18.09,18.09,0,0,1-8.44,3.21c.05-1.93,1.14-3.88,1.88-4,5.92-.66,8.59-4.41,11.68-5.54A7.2,7.2,0,0,1,149,412.45Zm-6.36,5.11h0"></path><line class="cls-1" x1="136.41" x2="152.81" y1="428.12" y2="418.83"></line><path d="M152.83,418.86c.18.62-2.23,1.95-3,2.79a25.44,25.44,0,0,1-4.72,3.75,17.87,17.87,0,0,1-8.44,3.21c.05-1.92,1.14-3.88,1.88-4,5.92-.66,8.59-4.4,11.68-5.54A6.94,6.94,0,0,1,152.83,418.86ZM146.47,424h0"></path><line class="cls-1" x1="140.29" x2="156.69" y1="434.52" y2="425.23"></line><path d="M156.71,425.26c.18.62-2.23,1.95-3,2.79A24.71,24.71,0,0,1,149,431.8a17.87,17.87,0,0,1-8.44,3.21c.05-1.92,1.14-3.88,1.88-4,5.92-.66,8.59-4.4,11.68-5.54A6.94,6.94,0,0,1,156.71,425.26Zm-6.36,5.11h0"></path><line class="cls-1" x1="144.17" x2="160.58" y1="440.92" y2="431.63"></line><path d="M160.59,431.66c.18.62-2.23,2-3,2.79a24.33,24.33,0,0,1-4.72,3.75,18,18,0,0,1-8.44,3.22c.05-1.93,1.14-3.89,1.88-4,5.92-.66,8.59-4.4,11.68-5.53A7,7,0,0,1,160.59,431.66Zm-6.36,5.11h0"></path><line class="cls-1" x1="148.05" x2="164.46" y1="447.32" y2="438.04"></line><path d="M164.47,438.06c.18.62-2.23,2-3,2.79a24.77,24.77,0,0,1-4.72,3.76,18.09,18.09,0,0,1-8.44,3.21c0-1.93,1.14-3.88,1.88-4,5.92-.66,8.59-4.4,11.68-5.53A7.2,7.2,0,0,1,164.47,438.06Zm-6.36,5.11h0"></path><line class="cls-1" x1="151.93" x2="168.34" y1="453.72" y2="444.44"></line><path d="M168.35,444.46c.18.62-2.23,2-3,2.8a25.11,25.11,0,0,1-4.72,3.75,18.09,18.09,0,0,1-8.44,3.21c0-1.93,1.14-3.88,1.88-4,5.92-.66,8.59-4.41,11.68-5.54A7.2,7.2,0,0,1,168.35,444.46ZM162,449.57h0"></path><line class="cls-1" x1="155.81" x2="172.22" y1="460.13" y2="450.84"></line><path d="M172.23,450.87c.18.62-2.23,1.95-3,2.79a25.11,25.11,0,0,1-4.72,3.75,18.09,18.09,0,0,1-8.44,3.21c0-1.93,1.14-3.88,1.88-4,5.93-.66,8.59-4.41,11.68-5.54A6.94,6.94,0,0,1,172.23,450.87ZM165.88,456h0"></path><line class="cls-1" x1="159.69" x2="176.1" y1="466.53" y2="457.24"></line><path d="M176.11,457.27c.18.62-2.23,2-3,2.79a24.71,24.71,0,0,1-4.72,3.75A17.84,17.84,0,0,1,160,467c.05-1.92,1.14-3.88,1.88-4,5.93-.66,8.59-4.4,11.68-5.54A6.94,6.94,0,0,1,176.11,457.27Zm-6.35,5.11h0"></path><line class="cls-1" x1="163.39" x2="179.79" y1="472.56" y2="463.27"></line><path d="M179.81,463.3c.17.62-2.23,2-3,2.79a25.08,25.08,0,0,1-4.72,3.76,18.09,18.09,0,0,1-8.44,3.21c.05-1.93,1.14-3.88,1.87-4,5.93-.66,8.6-4.4,11.69-5.53A7,7,0,0,1,179.81,463.3Zm-6.36,5.11h0"></path><path class="cls-2" d="M183.62,469.41s-2.11,4.57-8.64,7.38c-4.59,2-9.7,3.47-12.38,3.17-6.7-.75-17-4.44-28.37-23.47-13.48-22.51-10.16-34.12-8.79-37.57a22.07,22.07,0,0,1,7.77-8.93c5-3.32,11.22-4.23,11.69-3.4s2,2.5-4.86,6.75c-2.75,1.7-4.86,1.89-4.54,4.74s11,20.81,17.24,30.6,14.2,24.44,16.24,24.85,10.58-5.43,12.41-6.09C184.2,466.42,184.67,467.76,183.62,469.41Z"></path><path d="M183.58,469.38c0-.13.09-.35.17-.67s.15-.8-.05-1-.76-.22-1.4,0a7.79,7.79,0,0,0-2.06,1c-1.5.92-3.24,2.06-5.2,3.22-1,.58-2,1.17-3.15,1.71-.3.13-.56.25-.94.4a5.62,5.62,0,0,1-1.13.33,2.61,2.61,0,0,1-1.18,0,2.73,2.73,0,0,1-1-.63,9,9,0,0,1-.85-.89c-.23-.27-.43-.52-.64-.78-.4-.53-.79-1.06-1.17-1.6-.76-1.07-1.49-2.17-2.2-3.26-1.42-2.19-2.79-4.39-4.1-6.49-2.62-4.19-5-8-6.8-10.58-4.69-6.79-9.43-14.08-13.94-21.73-1.12-1.93-2.23-3.85-3.28-5.91-.26-.5-.51-1.06-.77-1.59-.13-.27-.25-.6-.37-.89s-.12-.29-.19-.47-.13-.46-.18-.69a5.55,5.55,0,0,1-.16-1.39,6.23,6.23,0,0,1,.21-1.49,5,5,0,0,1,1.65-2.49,10.6,10.6,0,0,1,1.88-1.21l1.39-.77.62-.38.63-.42.17-.14c.17-.17.4-.38.2-.57a.82.82,0,0,0-.5.08l-.1,0,0,0s.05,0-.06,0l-.26.1c-.68.27-1.34.56-2,.89a19.88,19.88,0,0,0-6.43,5.33,17.85,17.85,0,0,0-1.82,2.71,8.43,8.43,0,0,0-.56,1.33c-.17.51-.32,1-.44,1.55a23.42,23.42,0,0,0-.43,6.68,46.7,46.7,0,0,0,3.36,13.63,96.58,96.58,0,0,0,6.24,12.71,82,82,0,0,0,7.75,11.21,40.05,40.05,0,0,0,9.4,8.37,24.28,24.28,0,0,0,5.34,2.47,24.74,24.74,0,0,0,2.79.7l.7.12.57.07a9,9,0,0,0,1.26,0,30,30,0,0,0,5.5-1.11,49.9,49.9,0,0,0,5.22-1.79,18.48,18.48,0,0,0,4.38-2.57,13.92,13.92,0,0,0,3.21-3.47,11.87,11.87,0,0,1-2.26,4.23,18,18,0,0,1-4.37,3.87,43.38,43.38,0,0,1-5.58,2.94,26.13,26.13,0,0,1-6.41,2,10.22,10.22,0,0,1-1.95.1c-.56-.05-1.11-.06-1.66-.13a26.24,26.24,0,0,1-3.25-.57,25.4,25.4,0,0,1-5.77-2.16,29.69,29.69,0,0,1-7.45-5.4c-5.83-6-9.83-12.82-13.31-19.5-.9-1.65-1.64-3.39-2.45-5.06-.37-.86-.73-1.71-1.09-2.57s-.7-1.7-1-2.58a56.72,56.72,0,0,1-2.92-10.5c-.17-.88-.24-1.78-.37-2.67s-.13-1.79-.19-2.68a30.75,30.75,0,0,1,.3-5.34,19.87,19.87,0,0,1,1.49-5.16,21.12,21.12,0,0,1,3-4.36,23.92,23.92,0,0,1,8-6.16,22.1,22.1,0,0,1,2.32-1,23.34,23.34,0,0,1,3.1-.88,11.12,11.12,0,0,1,2.83-.27,6.19,6.19,0,0,1,1.18.19,1.65,1.65,0,0,1,1,.63,3.43,3.43,0,0,1,.55,1.38,3.3,3.3,0,0,1-.16,1.37,6.65,6.65,0,0,1-1.55,2.4,17,17,0,0,1-2.57,2.17c-.23.17-.48.33-.72.49l-.55.36c-.35.24-.75.48-1.12.69-.76.43-1.52.79-2.11,1.16a2.54,2.54,0,0,0-.61.49,1.35,1.35,0,0,0-.3.61,2.15,2.15,0,0,0,0,.72,4.76,4.76,0,0,0,.27.82c.24.66.61,1.37.94,2.06,2.88,5.57,6.11,10.83,9.17,15.89l4.6,7.41c1.51,2.42,3,4.78,4.49,7.16,2.89,4.73,5.54,9.34,8.14,13.73.59,1,1.24,2.06,1.93,3.19l1.07,1.7c.35.54.78,1.17,1.11,1.61a4.61,4.61,0,0,0,.4.5.7.7,0,0,0,.55.3,2.48,2.48,0,0,0,.66-.08l.34-.09.46-.16c1.28-.48,2.58-1.1,3.83-1.71l3.57-1.78a18.32,18.32,0,0,1,3.28-1.41,4.36,4.36,0,0,1,1.55-.14,1.42,1.42,0,0,1,.69.26,1,1,0,0,1,.34.58,1.84,1.84,0,0,1-.23,1A4.81,4.81,0,0,1,183.58,469.38Z"></path><path class="cls-3" d="M129.66,424.78c.33.25.73,2.83,1.42,5.77a57.49,57.49,0,0,0,2.32,8c2.47,6.24,5.7,13.16,9.73,18.63a53.19,53.19,0,0,0,18.31,16.1l1.57.78.76.39.31.15.34.13a14.25,14.25,0,0,0,3,.58,8,8,0,0,1-3.26.9,4.25,4.25,0,0,1-.51,0l-.52-.06-1-.13c-.64-.1-1.3-.21-1.94-.35a23.27,23.27,0,0,1-3.48-1.15,11.5,11.5,0,0,1-2.35-1.29,67.27,67.27,0,0,1-17.19-20.58,64.16,64.16,0,0,1-7.15-19.2,35.86,35.86,0,0,1-.35-8.68Z"></path><g id="cane_gold"><path class="cls-4 color-body" d="M123.08,450c7-5.22,18.62-1.46,26,8.41s7.27,20.21,2,27.2c-4.6,6.08-13.3,10.32-20.69.46S116.11,455.17,123.08,450Z" style="fill:#ffffff;--backup-fill:#ffffff"></path><path d="M123.12,450c0,.42-.87,1.32-1.35,3a17.58,17.58,0,0,0-.28,6.76,43.75,43.75,0,0,0,4.46,14,77.62,77.62,0,0,0,4.78,7.77,28.41,28.41,0,0,0,2.82,3.46,13.07,13.07,0,0,0,3.07,2.47,6.73,6.73,0,0,0,6.37.17,14.1,14.1,0,0,0,5.47-5.12,16.56,16.56,0,0,0,1.9-12.69,25.33,25.33,0,0,0-2.44-6.35c-.53-1-1.17-2-1.79-2.95s-1.33-1.83-2.07-2.66a24.79,24.79,0,0,0-10-7.27,12.76,12.76,0,0,0-10.27.23,8.89,8.89,0,0,1,4.44-4.19,15,15,0,0,1,7.56-1.17,19.87,19.87,0,0,1,7,2,20.7,20.7,0,0,1,2.58,1.53,15.1,15.1,0,0,1,1.74,1.51,42.77,42.77,0,0,1,4.46,5.93,43.68,43.68,0,0,1,3.12,6.28,27.55,27.55,0,0,1,1.87,13.14,22.62,22.62,0,0,1-1.63,6.14,21.11,21.11,0,0,1-3.23,5.21,20.42,20.42,0,0,1-4.43,4,14.21,14.21,0,0,1-5.55,2.19,11.1,11.1,0,0,1-5.91-.7,14.69,14.69,0,0,1-4.71-3.08,34.9,34.9,0,0,1-6-8A51.13,51.13,0,0,1,119,465a23.08,23.08,0,0,1,.27-9.49,10.42,10.42,0,0,1,1.89-3.94A5.81,5.81,0,0,1,123.12,450Z"></path></g></svg>