<svg xmlns="http://www.w3.org/2000/svg" id="Sketch" viewBox="0 0 380 600"><defs><style>.cls-1{fill:#464748;}.cls-2{opacity:0.5;}.cls-3{fill:#fff9f3;}.cls-4{fill:#737577;}.cls-5{opacity:0.4;}.cls-6{fill:#5a5c5e;}.cls-7{fill:#b9bdc0;}.cls-8{fill:none;}.cls-9{fill:#ffffff;}</style></defs><path class="cls-1" d="M319.86,428.68c.59.44,20.48-4.26,26.26-5.64,2.83-.25,4.88,2.83,5.07,4.49a8.43,8.43,0,0,1-.87,6l-28.71,7s-1.74-1.33-2.67-5.27S318.67,427.79,319.86,428.68Z"></path><path d="M319.84,428.7c-.12,0-.38-.09-.51.17a3.1,3.1,0,0,0-.33,1.36,16.17,16.17,0,0,0,1.4,7.25,7.46,7.46,0,0,0,1.25,1.94l.15.14c.05.05.1.09.17.05l.38-.12,1-.3c.75-.22,1.43-.42,2-.6,3.95-1.29,8.23-2.53,12.56-3.72l6.5-1.75,3.21-.85.8-.21.54-.14s0,0,0-.06l.15-.44c.05-.18.1-.36.14-.54a6.79,6.79,0,0,0,.17-1.07,5.63,5.63,0,0,0,0-1,3.7,3.7,0,0,0-.09-.48l-.07-.3-.06-.31v-.06a4.44,4.44,0,0,0-.87-1.57,3.38,3.38,0,0,0-1.33-1,2,2,0,0,0-.58-.09h0l-.33.08-.66.14-2.62.57q-2.59.56-5.1,1c-3.34.65-6.53,1.21-9.5,1.65-1.49.22-2.92.41-4.3.56-.68.08-1.36.15-2,.19l-1,.06h-.79l-.16,0a.93.93,0,0,1-.41-.15,1.07,1.07,0,0,0,.38.1.5.5,0,0,0,.16,0l.26-.09.44-.2.9-.44,2-.91c1.36-.61,2.82-1.22,4.26-1.77a37.26,37.26,0,0,1,7.11-2.14c3-.39,5.93-.85,8.75-1.34l2.18-.39a4.83,4.83,0,0,1,2.67.56,7.1,7.1,0,0,1,3.09,3.52,5.72,5.72,0,0,1,.35,1.15c0,.2.15.66.18,1a8.37,8.37,0,0,1,0,2.18,10.49,10.49,0,0,1-.5,2c-.06.17-.12.33-.19.49a6.46,6.46,0,0,1-.27.6c-.09.2-.2.39-.3.58l-.09.14-.15,0-.31.09-7.32,1.82-12.84,3.38q-3,.78-5.81,1.47l-1.42.33a8.4,8.4,0,0,1-1.06.23c-.33,0-.71.2-.94-.14a6.51,6.51,0,0,1-1.31-1.55,10.5,10.5,0,0,1-.69-1.33,14,14,0,0,1-1-6.31,8.6,8.6,0,0,1,.59-2.81,1.7,1.7,0,0,1,.65-.85A.55.55,0,0,1,319.84,428.7Z"></path><g class="cls-2"><path class="cls-3" d="M347.55,427.59c-.13.65-4.18,1.2-5.68,1.77a54.11,54.11,0,0,1-8.62,2.17A38.4,38.4,0,0,1,320,432c1.22-1.84,3.86-3.39,4.91-3.24,8.37,1.19,14.21-1.6,19.05-1.74A13.45,13.45,0,0,1,347.55,427.59Zm-11.62,3h0"></path></g><path class="cls-4" d="M344.81,429.12c3.93,15.44-.41,32-7.5,32.41-8,2-17.58-9.93-21.4-25.17S315,405.7,323,403.7C331.07,398.29,342,413.91,344.81,429.12Z"></path><path d="M344.77,429.13c-.56-.49-1.77-6-4.65-11.68a41,41,0,0,0-5.18-8.09,15.58,15.58,0,0,0-5.8-4.6,5.24,5.24,0,0,0-4.09-.08l-.44.23-.22.15-.1.07-.26.15a1.35,1.35,0,0,1-.51.25l-.41.15a3.31,3.31,0,0,0-.47.22,6.31,6.31,0,0,0-1.69,1.31c-2.07,2.24-3.17,5.82-3.69,9.37a50,50,0,0,0,2.19,21.68,46.12,46.12,0,0,0,8.46,15.9c1.86,2.12,4.06,3.9,6.15,4.51a5.07,5.07,0,0,0,1.5.25,3.38,3.38,0,0,0,.71,0l.41-.07c.79-.12.56-.07.7-.08a2.67,2.67,0,0,0,1-.37,6,6,0,0,0,1.13-1,18.14,18.14,0,0,0,3.33-6.66,41.87,41.87,0,0,0,1.48-7.54,54.93,54.93,0,0,0-.35-13.87,34,34,0,0,1,4,22.48,18.44,18.44,0,0,1-2,5.76,17.08,17.08,0,0,1-2.92,3.77,8.69,8.69,0,0,1-4.79,2.43l-.36,0c-.11,0-.3,0-.21,0l.1,0-.14,0-.31.05a9.58,9.58,0,0,1-3.65-.17,13.41,13.41,0,0,1-4.07-1.78,24.08,24.08,0,0,1-5.75-5.47,42.83,42.83,0,0,1-4-6.24,60.3,60.3,0,0,1-4.95-13,59.47,59.47,0,0,1-1.88-12.87,39.65,39.65,0,0,1,1.31-12.26,20,20,0,0,1,2.51-5.58,10.59,10.59,0,0,1,4.87-4.06,2.52,2.52,0,0,0,1-.44,8.62,8.62,0,0,1,1.52-.67,7.43,7.43,0,0,1,3.3-.28,9.12,9.12,0,0,1,3,.89,14,14,0,0,1,2.46,1.5,27,27,0,0,1,6.61,7.88,38.25,38.25,0,0,1,4,10.13A42,42,0,0,1,344.77,429.13Z"></path><g class="cls-5"><path d="M343.35,455.29c-.59-.28,0-3-.29-4.09-.38-1.93-.49-3.91-.91-5.65-.73-3-1.41-6.38-1-8.86,1.87.48,3.56,2,3.48,2.75a39.45,39.45,0,0,0,.4,7.77,15.16,15.16,0,0,1-.23,5.88A6.78,6.78,0,0,1,343.35,455.29Z"></path></g><g class="cls-2"><path class="cls-3" d="M342.42,427.54c-.34,0-.82-1.17-1.32-2.48l-.74-2c-.29-.62-.56-1.18-.79-1.56-.41-.67-.8-1.37-1.17-2.09s-.84-1.4-1.23-2.12c-.2-.35-.39-.72-.59-1.07l-.66-1a17.16,17.16,0,0,0-1.31-1.93,19.44,19.44,0,0,0-5.05-5.1,10.71,10.71,0,0,0-2.77-1.26,9.85,9.85,0,0,0-2.72-.33,4.26,4.26,0,0,1,3-2.36l1-.18a5.92,5.92,0,0,1,.95,0,5.51,5.51,0,0,1,.8.14,2.64,2.64,0,0,1,.56.28l.84.6c.27.2.5.44.74.65a11.61,11.61,0,0,1,1.32,1.3c.38.45.81.85,1.14,1.3s.65.89,1,1.31c.65.84,1.13,1.73,1.71,2.53s1,1.66,1.45,2.43.83,1.59,1.25,2.34.8,1.48,1.08,2.22a21.55,21.55,0,0,1,1.41,4.22A16.24,16.24,0,0,1,342.42,427.54Z"></path></g><path class="cls-4" d="M340.6,430.89c4.5,18.62,1.06,38.29-8.76,37.91-9.34,2.34-20.57-11.6-25-29.43s-1-35.86,8.3-38.2C324.52,394.84,337.34,413.1,340.6,430.89Z"></path><path d="M340.56,430.9c-.58-.59-2-7-5.34-13.78a47.69,47.69,0,0,0-6.09-9.54,18.19,18.19,0,0,0-6.89-5.46,8.19,8.19,0,0,0-2.6-.55,5.6,5.6,0,0,0-2.4.52,4.14,4.14,0,0,0-.55.29l-.26.18-.55.33-.91.33c-.2.08-.39.19-.58.28a7.92,7.92,0,0,0-2.08,1.65,15.15,15.15,0,0,0-2.91,5.1,31.15,31.15,0,0,0-1.48,6.18,52,52,0,0,0-.07,13.07,64.15,64.15,0,0,0,2.73,12.6,63.43,63.43,0,0,0,4.25,10.09,42.41,42.41,0,0,0,5.95,8.68c2.25,2.49,4.93,4.55,7.52,5.16a6.46,6.46,0,0,0,1.88.19c.15,0,.3,0,.45,0l.65-.12c1.11-.12,1.07,0,1.38-.08a4.64,4.64,0,0,0,2.9-1.56,12.82,12.82,0,0,0,2.27-3.58,27.23,27.23,0,0,0,1.47-4.33,49.49,49.49,0,0,0,1.32-9,77.63,77.63,0,0,0-.85-16.42,44.8,44.8,0,0,1,4.9,17,39.36,39.36,0,0,1-.23,9.27,21.08,21.08,0,0,1-2.13,6.78,16.23,16.23,0,0,1-3.44,4.41,10.63,10.63,0,0,1-2.5,1.68,9.43,9.43,0,0,1-3,.81,4.73,4.73,0,0,1-.75.05c-.22,0-.62,0-.52,0H332l-.18,0c-.23,0-.46.08-.7.09a11.09,11.09,0,0,1-2.77-.12,13.69,13.69,0,0,1-4.81-1.81,26.15,26.15,0,0,1-6.87-6.18,47.41,47.41,0,0,1-4.76-7.23,70.86,70.86,0,0,1-8.23-30.22,47.1,47.1,0,0,1,1.47-14.34,23.79,23.79,0,0,1,2.84-6.5,12.32,12.32,0,0,1,5.51-4.76c.26-.13.64-.22.84-.3a.35.35,0,0,0,.16-.06l.22-.14a10.45,10.45,0,0,1,1.72-.82,9.07,9.07,0,0,1,3.75-.41,13.21,13.21,0,0,1,6.28,2.68,31.18,31.18,0,0,1,7.76,9.14,45.89,45.89,0,0,1,4.81,11.8A50.86,50.86,0,0,1,340.56,430.9Z"></path><g class="cls-5"><path d="M336.59,465.66c-.11-.13-.07-.48.06-1s.33-1.07.51-1.73a15.2,15.2,0,0,0,.75-3.67,57,57,0,0,0-.44-9.4c-.76-5.29-1.74-10.6-1.74-14.41,2,1.06,4.06,3.87,4,5.08,0,4.77.48,8.75.62,12.36s-.09,6.89-1.26,9.47a8.48,8.48,0,0,1-1.29,2A16.32,16.32,0,0,1,336.59,465.66Z"></path></g><g class="cls-2"><path class="cls-3" d="M314.31,401.85c.07-.35,1.64-.81,3.48-.66a17.69,17.69,0,0,1,4.95,1.19,15.27,15.27,0,0,1,2.94,1.37c.46.3.9.64,1.35,1a10.36,10.36,0,0,1,1.31,1.07l1.19,1.19a9.37,9.37,0,0,1,1.12,1.25c.67.88,1.39,1.72,2,2.61a31.12,31.12,0,0,1,2.61,4.79c.36.81.7,1.62,1,2.42s.5,1.62.73,2.4.44,1.56.62,2.31.27,1.5.39,2.21c.2,1.42.33,2.74.39,3.92a14.4,14.4,0,0,1-4.58-6.32A25.25,25.25,0,0,0,328,409.1a20.84,20.84,0,0,0-9.06-6c-.7-.21-1.67-.6-2.58-.83A12.36,12.36,0,0,0,314.31,401.85Z"></path></g><path class="cls-4" d="M334.5,432.57c3.67,16.35.91,31.66-5.32,39.9-4.05,5.36-10.53,5.17-12.68,5.18-12.46,2.8-22.14-13-27-34.79s-3.29-38.63,10.57-42.52c5.67-3.12,9.48-2.28,12.63-.88C322.11,403.63,330.84,416.22,334.5,432.57Z"></path><path d="M334.46,432.58a45.81,45.81,0,0,1-2-5.51,70.71,70.71,0,0,0-4.9-10.93,44.07,44.07,0,0,0-8.31-10.81A21.55,21.55,0,0,0,310,400a10.72,10.72,0,0,0-6.71.76,15.41,15.41,0,0,0-1.64.79l-.4.22-.2.12a3.42,3.42,0,0,1-.4.19l-1,.4a16.78,16.78,0,0,0-3.19,1.62c-3.89,2.75-6,7.52-6.64,12.68a56.47,56.47,0,0,0,.44,15.87l.29,2,.37,2c.23,1.32.51,2.63.8,3.93.55,2.6,1.21,5.15,1.93,7.64a85,85,0,0,0,4.68,12.55,37.73,37.73,0,0,0,7,10.51,15.35,15.35,0,0,0,4.61,3.25,11.48,11.48,0,0,0,2.5.73,11.62,11.62,0,0,0,2.57,0l.65-.11.68-.11h.62c.53,0,1,0,1.49,0a15.32,15.32,0,0,0,2.76-.33,10.74,10.74,0,0,0,4.63-2.14,10.32,10.32,0,0,0,1.75-1.85l.82-1.13.74-1.2a32.1,32.1,0,0,0,2.41-5.1,47.92,47.92,0,0,0,2.61-10.69,70.42,70.42,0,0,0-.37-19.8,46.79,46.79,0,0,1,3,9.31,50.31,50.31,0,0,1,1.07,11.49,42.81,42.81,0,0,1-1.63,11,27,27,0,0,1-3.47,7.63c-.29.42-.63.83-.94,1.24l-.47.62-.56.63a15.07,15.07,0,0,1-2.53,2.2,15.69,15.69,0,0,1-5.94,2.42,19.88,19.88,0,0,1-3,.36c-.5,0-1,0-1.47,0l-.71,0h-.47l-.19,0-.38.06a6.31,6.31,0,0,1-.76.08,11.34,11.34,0,0,1-1.54,0,13.89,13.89,0,0,1-3-.4,15.76,15.76,0,0,1-5.3-2.48,23.22,23.22,0,0,1-4.09-3.73,41.52,41.52,0,0,1-5.7-8.77A90.88,90.88,0,0,1,289.12,446a120.67,120.67,0,0,1-3.1-18,58.69,58.69,0,0,1-.09-8.79,41,41,0,0,1,.52-4.3c.12-.71.33-1.41.49-2.11.08-.35.16-.71.26-1.05l.36-1a24.45,24.45,0,0,1,1.77-3.94c.42-.6.83-1.2,1.23-1.79a17,17,0,0,1,1.44-1.62,17.49,17.49,0,0,1,7.2-4.32c.21,0,.93-.5,1.53-.75a17.5,17.5,0,0,1,1.89-.79,14.25,14.25,0,0,1,4.06-.84,14.73,14.73,0,0,1,7.76,1.9,28.09,28.09,0,0,1,6.05,4.3,39.61,39.61,0,0,1,4.66,5.28A48,48,0,0,1,332,421.9,63.09,63.09,0,0,1,334.46,432.58Z"></path><g class="cls-5"><path d="M327.58,470c-.14-.31.6-1.53,1.31-3a20.06,20.06,0,0,0,1.56-4.26,48,48,0,0,0,1.08-11.33,71.92,71.92,0,0,0-1.06-9.26c-.35-1.43-.53-2.85-.83-4.14s-.56-2.51-.72-3.63a11.34,11.34,0,0,1,3.3,2.8,7.27,7.27,0,0,1,1.58,3.15,93.6,93.6,0,0,1,.26,15.06,26.44,26.44,0,0,1-3,11.09,11,11,0,0,1-1.81,2.23A11.11,11.11,0,0,1,327.58,470Z"></path></g><g class="cls-2"><path class="cls-3" d="M304.72,400.68c.08-.31,1.7-1,3.72-.86a15,15,0,0,1,5.34,1.42,18.71,18.71,0,0,1,5.76,4,43.66,43.66,0,0,1,4.51,5.35,55.09,55.09,0,0,1,5.54,9.73,53.84,53.84,0,0,1,3.08,8.59c-2.47-1.25-5.44-4.53-5.9-6-3.59-11.8-10.84-19.16-17-21.24a23,23,0,0,0-2.78-.77A20.8,20.8,0,0,0,304.72,400.68Z"></path></g><path class="cls-4" d="M327.51,434.24c5,20.87-.48,40.49-11.41,43.13s-23.86-12.15-28.89-33-.08-39.58,10.85-42.21S322.48,413.36,327.51,434.24Z"></path><path d="M327.47,434.25c-.66-.62-2.47-7.8-6.65-15.08a43.9,43.9,0,0,0-7.65-10,21,21,0,0,0-8.44-5.18,11.48,11.48,0,0,0-6.23-.1,10.78,10.78,0,0,0-5.12,3.47c-2.82,3.37-4.31,8.1-5,12.85a56,56,0,0,0-.06,14.63,71.55,71.55,0,0,0,3.21,14.08,66.06,66.06,0,0,0,4.93,11.19,42.74,42.74,0,0,0,7,9.43c2.68,2.65,5.82,4.7,8.9,5.19a8.32,8.32,0,0,0,4.41-.49,10.58,10.58,0,0,0,3.78-2.69,24.22,24.22,0,0,0,4.85-8.9,47.17,47.17,0,0,0,2-9.94,71,71,0,0,0-.7-18.27,45.91,45.91,0,0,1,4.71,19.1,39.93,39.93,0,0,1-.95,10.3,23.88,23.88,0,0,1-2.88,7.28,23,23,0,0,1-3.71,4.56,15.29,15.29,0,0,1-5.08,3.25,13.45,13.45,0,0,1-5.92.83,16.28,16.28,0,0,1-5.42-1.55,26.85,26.85,0,0,1-8.09-6.34,48.29,48.29,0,0,1-5.63-7.83,71.55,71.55,0,0,1-6.93-16.76,75.24,75.24,0,0,1-2.71-16.76,50.25,50.25,0,0,1,1.64-15.95,27.9,27.9,0,0,1,3.15-7.18,16.43,16.43,0,0,1,5.6-5.55,13.1,13.1,0,0,1,7.65-1.61,17.52,17.52,0,0,1,7,2.28,31.59,31.59,0,0,1,9.76,9.11,45.67,45.67,0,0,1,6.31,12.74A58.36,58.36,0,0,1,327.47,434.25Z"></path><path class="cls-6" d="M315.34,437.35c1.64,6.83-1.39,13.5-5,14.36s-7.81-4-9.46-10.8-.08-13.07,3.49-13.93S313.69,430.52,315.34,437.35Z"></path><path d="M315.31,437.36c-.39-.17-1.05-2.54-2.69-4.77a14.09,14.09,0,0,0-2.84-3,7.91,7.91,0,0,0-2.87-1.46,4.44,4.44,0,0,0-1.91-.05,2.53,2.53,0,0,0-1.39.86,7.71,7.71,0,0,0-1.47,3.86,20.71,20.71,0,0,0,1.09,9.18,17.24,17.24,0,0,0,3.76,6.47,4.67,4.67,0,0,0,2.38,1.41,1.88,1.88,0,0,0,1-.13,3.92,3.92,0,0,0,1.1-.75,9,9,0,0,0,1.82-2.57,16.24,16.24,0,0,0,1.09-3,19,19,0,0,0,.42-5.92A10.88,10.88,0,0,1,317,444a12.19,12.19,0,0,1-.48,3.66,7.33,7.33,0,0,1-1.26,2.5,9.08,9.08,0,0,1-3.41,2.66,8.06,8.06,0,0,1-1.12.33,7.71,7.71,0,0,1-1.17.06,5.49,5.49,0,0,1-1.1-.19,4.23,4.23,0,0,1-1-.37,9.16,9.16,0,0,1-2.91-2.3,15.21,15.21,0,0,1-1.9-2.75,24.48,24.48,0,0,1-2.3-5.76,26.71,26.71,0,0,1-.91-5.71,17.16,17.16,0,0,1,.59-5.5,8.93,8.93,0,0,1,1.17-2.53,5.55,5.55,0,0,1,2.23-1.91,5,5,0,0,1,2.88-.33,8.1,8.1,0,0,1,2.46.82,12,12,0,0,1,3.59,2.94,12.44,12.44,0,0,1,2.31,4.33,15.38,15.38,0,0,1,.5,2.12C315.25,436.68,315.29,437.13,315.31,437.36Z"></path><path class="cls-7" d="M304.1,440.87c1,3.57,3.33,6,5.27,5.54s3.75-4.44,2.8-8.38-3.56-7-6.28-6.23c-2,.6-2.93,4.44-2,8.38"></path><path class="cls-8" d="M304.1,440.87c1,3.57,3.33,6,5.27,5.54s3.75-4.44,2.8-8.38-3.56-7-6.28-6.23c-2,.6-2.93,4.44-2,8.38"></path><path d="M303.9,440.19a7,7,0,0,1-.67-3.2,8.23,8.23,0,0,1,1.07-4.62,2.77,2.77,0,0,1,1.29-1.1,3.56,3.56,0,0,1,1.71-.25,5.13,5.13,0,0,1,3,1.57,11.85,11.85,0,0,1,2.88,5.61,10.06,10.06,0,0,1-.27,5.36,7.07,7.07,0,0,1-1.3,2.39,3.59,3.59,0,0,1-2.63,1.4,3.78,3.78,0,0,1-2.51-1.07,7.36,7.36,0,0,1-1.41-1.77,11,11,0,0,1-1.25-3.56,36.59,36.59,0,0,0,2.43,2.89,7.86,7.86,0,0,0,2.18,1.57,1.24,1.24,0,0,0,1.18,0,3.15,3.15,0,0,0,1.17-1.06,7.21,7.21,0,0,0,1.17-3.2,10,10,0,0,0-1.38-6.17c-1-1.72-2.61-3.07-4.14-2.81a2,2,0,0,0-.94.41,3.17,3.17,0,0,0-.66.86,7.47,7.47,0,0,0-.69,2.16,20.34,20.34,0,0,0-.28,2.59A19,19,0,0,0,303.9,440.19Z"></path><g class="cls-5"><path d="M289.93,433.56c.33.18.73,2.14,1.34,4.38a41.77,41.77,0,0,0,2,6.09,93.52,93.52,0,0,0,7.54,14.31c.67.92,1.26,1.89,2,2.76l1,1.35c.17.23.32.42.49.62l.51.61a33.88,33.88,0,0,0,4.48,4.29,13.71,13.71,0,0,0,4.68,2.52,6.78,6.78,0,0,0,4.42-.34,4.7,4.7,0,0,1-1.77,2,6.54,6.54,0,0,1-3.18,1,8.23,8.23,0,0,1-5.12-1.39,32.39,32.39,0,0,1-4.25-4.17c-.62-.71-1.19-1.42-1.74-2.14s-1-1.47-1.52-2.17a83.24,83.24,0,0,1-5-8.24,67,67,0,0,1-3.56-7.66,38.41,38.41,0,0,1-2.08-7.09A25.19,25.19,0,0,1,289.93,433.56Z"></path></g><path class="cls-1" d="M309.43,438.16a8,8,0,0,0-2.23-4,1.7,1.7,0,0,0-1.48-.41c-7.15,1.47-62.67,13-96.41,19.71,1.73,2.54,2.61,3.71,2.78,4.77.2,1.24.74,5.4-.59,8.06l96.93-22.11A8.62,8.62,0,0,0,309.43,438.16Z"></path><path d="M309.47,438.15a4,4,0,0,1,.48,2,7.38,7.38,0,0,1-.19,2,7.94,7.94,0,0,1-.37,1.24,6.46,6.46,0,0,1-.29.67l-.17.34-.1.17c0,.06-.11.05-.17.07-.48.16-1,.3-1.56.44l-1.42.37-3.1.79L295.66,448c-9.7,2.39-20.72,5-26.81,6.7-9,2.46-18.59,4.93-28.32,7.35l-14.65,3.6-7.3,1.76-5.14,1.22-3.48.81-1.75.41-.7.15-.77.15c.57-1.33,1.15-2.65,1.72-4l.39-.91a5.54,5.54,0,0,0,.33-.86,7,7,0,0,0,.3-1.5l.07-.74v-.34c0-.2,0-.41,0-.61,0-.42,0-.84-.09-1.26s-.09-.84-.16-1.24c0-.12,0,0,0-.11a1.52,1.52,0,0,0-.16-.32l-.31-.52-.38-.59-.8-1.16L206,453.72l-1.56-2.25,18.09-3.78,13.65-2.78c9-1.8,17.82-3.5,26.26-5.06s16.52-3,24.06-4.27l10.91-1.78,5.11-.79,2.57-.39a3.45,3.45,0,0,1,1.66,0,2.92,2.92,0,0,1,1.35.88,8,8,0,0,1,1.54,2.34,9.34,9.34,0,0,1,.63,2.13,9.18,9.18,0,0,0-2.8-3.64,1.82,1.82,0,0,0-1-.45,2.48,2.48,0,0,0-1.11.26L303,435c-1.62.56-3.31,1.13-5,1.69-3.44,1.12-7,2.21-10.46,3.18a156.38,156.38,0,0,1-16.76,4q-16.76,2.5-32,5.22c-5.09.9-10.07,1.82-14.93,2.73l-7.21,1.38-3.18.62c-.68.14-1.47.26-2.08.43.36.55.75,1.1,1.1,1.67.09.14.18.28.26.43a8.12,8.12,0,0,1,.41.88,4.27,4.27,0,0,1,.24,1l.11.84c.07.56.11,1.12.13,1.69l0,.85v.75a6.51,6.51,0,0,1-.34,1.92c0,.14-.11.27-.16.4s0,0,.05,0l.11,0,.21,0,.85-.2L216,464l5.39-1.26,10.45-2.48,19.72-4.74c12.65-3,24.31-5.77,35.17-8,4.48-1,10.66-2.05,16.1-2.94l3.91-.62.78-.12.39-.05c.12,0,.27,0,.32-.14a7.57,7.57,0,0,0,.67-1.25A8.1,8.1,0,0,0,309.47,438.15Z"></path><path class="cls-9 color-body" d="M260.76,460.69c3.94,7.76,16.05,9.53,27,3.95s15.46-14.91,13.81-23.51c-1.43-7.5-7-14.3-18.35-9.56C270.8,436.77,256.81,452.92,260.76,460.69Z" style="fill:#ffffff;--backup-fill:#ffffff"></path><path d="M260.7,460.71a1.8,1.8,0,0,1-.8-.94,6.29,6.29,0,0,1-.6-2.52,15.9,15.9,0,0,1,1.91-7.4c2.55-5.2,7-9.93,9.49-12.53a42.44,42.44,0,0,1,7.65-6.42,29.23,29.23,0,0,1,4.74-2.52l1.29-.54,1.38-.42a19,19,0,0,1,2.89-.63,15.51,15.51,0,0,1,6.37.54,13.37,13.37,0,0,1,5.59,3.55,17.74,17.74,0,0,1,3.39,5.18,22.32,22.32,0,0,1,.84,15.47,23.91,23.91,0,0,1-4.69,8.43,29.64,29.64,0,0,1-6.9,5.9c-.63.37-1.24.78-1.88,1.1l-1.91,1a35.27,35.27,0,0,1-3.95,1.52,26.76,26.76,0,0,1-15.71.47,17.31,17.31,0,0,1-6.37-3.41,12.79,12.79,0,0,1-3.69-5.31,16.41,16.41,0,0,0,5.45,2.85,18.86,18.86,0,0,0,6.07.65c4-.17,7.41-1.28,9.34-1.48a26.09,26.09,0,0,0,5.76-1.36,28.81,28.81,0,0,0,5.27-2.63,19.55,19.55,0,0,0,7.29-8.32,16.47,16.47,0,0,0,1.37-5.14,16.24,16.24,0,0,0-.38-5.17c-.75-3.35-2.54-6.35-5.11-7.77a9,9,0,0,0-4.14-1.1,14.64,14.64,0,0,0-4.33.75,30.89,30.89,0,0,0-7.86,4.08,62.67,62.67,0,0,0-12,11.1,39.76,39.76,0,0,0-4.85,7,10.71,10.71,0,0,0-1.14,3.66A7.15,7.15,0,0,0,260.7,460.71Z"></path><path class="cls-4" d="M271.63,443.91c6,25-1.42,48.71-14.61,51.55-22.63,4.87-28.78-13.71-34.82-38.76s-8.2-43,13-50.65C248.33,402.88,265.59,418.87,271.63,443.91Z"></path><path d="M271.58,443.92c-.73-.76-2.91-9.59-8.29-18.39a49.69,49.69,0,0,0-9.84-11.89,25.5,25.5,0,0,0-10.73-5.82,16.42,16.42,0,0,0-3.94-.39l-1,.06-1,.14c-.31.06-.64.15-.94.22a1.11,1.11,0,0,0-.29.1l-.49.22a28.3,28.3,0,0,0-7.27,4.3,18.44,18.44,0,0,0-5,6.46,23.72,23.72,0,0,0-2,8.2,47.58,47.58,0,0,0,.26,8.9c.34,3,.86,6,1.47,9,1.24,6,2.77,12,4.31,17.72a124.61,124.61,0,0,0,4.75,14.52c1.9,4.55,4.25,8.85,7.49,11.73a16.32,16.32,0,0,0,11.7,4.16c.55,0,1.1-.05,1.65-.07s1.11-.12,1.67-.18a31.67,31.67,0,0,0,3.13-.58,12.46,12.46,0,0,0,4.95-3,27.79,27.79,0,0,0,6.48-10.68,54.47,54.47,0,0,0,2.78-12.14,78.71,78.71,0,0,0-.76-22.41,49.44,49.44,0,0,1,3.58,10.49,57.4,57.4,0,0,1,1.43,13,47.24,47.24,0,0,1-1.66,12.5,29.4,29.4,0,0,1-3.88,8.7,25.36,25.36,0,0,1-4.81,5.29,18.07,18.07,0,0,1-6.43,3.43c-.59.13-1.24.31-1.76.38l-1.62.24c-1.09.11-2.17.24-3.27.25a25.7,25.7,0,0,1-6.54-.53,20.9,20.9,0,0,1-6.11-2.36,21.93,21.93,0,0,1-4.94-4,35.92,35.92,0,0,1-6.33-10.11c-3.08-7.08-4.85-14.22-6.58-21.08s-3.29-13.54-4.3-20.17a67.85,67.85,0,0,1-.83-9.92,33,33,0,0,1,1.31-9.74,22,22,0,0,1,1.91-4.53,20.33,20.33,0,0,1,2.84-3.95,26.2,26.2,0,0,1,7.47-5.64,39.51,39.51,0,0,1,4.12-1.83,3,3,0,0,1,.7-.22l.61-.12a9.46,9.46,0,0,1,1.17-.18,16.88,16.88,0,0,1,2.35-.11,21.49,21.49,0,0,1,8.63,2.24,37.09,37.09,0,0,1,12.46,10.47,46.28,46.28,0,0,1,4.61,7,57,57,0,0,1,3.67,8.27A65.58,65.58,0,0,1,271.58,443.92Z"></path><path class="cls-4" d="M261.22,446.86c5.67,23.54-.66,49.25-13.3,50.29-14,1.15-27.36-14.38-33-37.92s-2.57-42.78,10.87-49C237.25,404.84,255.54,423.32,261.22,446.86Z"></path><path d="M261.17,446.87c-.37-.37-1.06-2.62-2.32-5.83a75.08,75.08,0,0,0-5.61-11.53A55.16,55.16,0,0,0,244.19,418a26.57,26.57,0,0,0-9.74-6.27,10.77,10.77,0,0,0-7-.1l-.78.35c-.27.15-.55.33-.82.49a13.48,13.48,0,0,0-1.62,1l-1.51,1.21c-.46.45-.89.94-1.34,1.4a22.74,22.74,0,0,0-4,6.78c-.26.62-.43,1.29-.65,1.94l-.31,1-.23,1-.45,2-.3,2.08a63,63,0,0,0,.36,17,98.18,98.18,0,0,0,3.81,16.44,72.12,72.12,0,0,0,5.64,13,44,44,0,0,0,8.25,10.77c3.2,2.94,6.9,5.24,10.78,5.8.48.06,1,.18,1.45.21h1.44a5.34,5.34,0,0,0,.7,0l.59-.07A5.43,5.43,0,0,0,249,494a3,3,0,0,0,.58-.18,10.28,10.28,0,0,0,4.19-3.14A30.16,30.16,0,0,0,259,480a62.8,62.8,0,0,0,2.16-11.66,82.28,82.28,0,0,0-.83-21.22,47.57,47.57,0,0,1,3.5,9.9,60.1,60.1,0,0,1,1.61,12.25,51.18,51.18,0,0,1-1,11.83,30.11,30.11,0,0,1-3,8.44,26.79,26.79,0,0,1-4,5.45,15.29,15.29,0,0,1-5.9,3.89,11.89,11.89,0,0,1-3.56.69c-1.1,0-2.19,0-3.26-.16a22,22,0,0,1-6.09-1.72,30.71,30.71,0,0,1-9.59-7,49.22,49.22,0,0,1-6.67-9L221,479.35l-1.2-2.41c-.42-.79-.78-1.6-1.12-2.42l-1.05-2.42a93.65,93.65,0,0,1-3.23-9.81A104.36,104.36,0,0,1,211,443a54.85,54.85,0,0,1,1.53-18.5,31.41,31.41,0,0,1,3.76-8.27,23.28,23.28,0,0,1,6.4-6.27l1.93-1.09a6,6,0,0,1,1.05-.48,6.57,6.57,0,0,1,1.13-.39,12.18,12.18,0,0,1,4.59-.39,19.59,19.59,0,0,1,8,2.83,40,40,0,0,1,11.19,10.53,55.5,55.5,0,0,1,7.66,14.54,65.73,65.73,0,0,1,2.06,7.07C260.81,444.56,261.05,446.11,261.17,446.87Z"></path><path class="cls-4" d="M251.41,449.24c5.46,22.63-.31,46.09-13.54,47.77-20.53,2.6-26.18-13.1-31.64-35.73s-2.8-40.4,12.08-45.84C229.91,411.19,246,426.61,251.41,449.24Z"></path><path d="M251.37,449.25c-.7-.69-2.72-8.68-7.6-16.65a45.45,45.45,0,0,0-8.9-10.79c-3.36-2.93-7-4.7-9.67-5.13a10.5,10.5,0,0,0-6.79.83l-1.68.82c-.53.3-1,.68-1.55,1a8,8,0,0,0-.77.52l-.69.62a10.72,10.72,0,0,0-1.35,1.26c-3.41,3.61-5.13,8.71-5.73,14a61.79,61.79,0,0,0,.71,16.26c.21,1.35.51,2.7.75,4s.62,2.66.92,4c.65,2.67,1.36,5.33,2.09,7.91a92,92,0,0,0,4.55,13c1.85,4,4.18,7.64,7.27,10a17.49,17.49,0,0,0,10.92,3.38c1,0,2,0,3.05-.14a12.77,12.77,0,0,0,1.34-.17,12.29,12.29,0,0,0,1.19-.32,11,11,0,0,0,4.26-2.85,25.76,25.76,0,0,0,5.4-9.88,53,53,0,0,0,2.22-11.08,79.21,79.21,0,0,0-.78-20.34,51.88,51.88,0,0,1,5.06,21.26,45.62,45.62,0,0,1-1.08,11.41,26.72,26.72,0,0,1-3.18,8.08,24,24,0,0,1-4.19,5.05,16.28,16.28,0,0,1-5.78,3.44c-.53.19-1.09.3-1.64.44s-1.12.18-1.65.24c-1,.05-2,.13-3,.12a29.14,29.14,0,0,1-5.89-.53,21.27,21.27,0,0,1-10.37-5.18,29.55,29.55,0,0,1-6.37-8.88c-3.09-6.35-4.77-12.84-6.39-19.06a118.2,118.2,0,0,1-3.49-18.47,63.71,63.71,0,0,1-.25-9c0-.75.13-1.49.19-2.23a18.29,18.29,0,0,1,.28-2.21c.12-.73.25-1.46.38-2.18s.37-1.44.56-2.15a24.85,24.85,0,0,1,3.72-7.93l.62-.9.73-.82c.5-.52.95-1.11,1.5-1.58L212,417a16.35,16.35,0,0,1,1.79-1.19,23.94,23.94,0,0,1,3.76-1.87,13.75,13.75,0,0,1,4.29-.9,17.28,17.28,0,0,1,8,1.79,32.72,32.72,0,0,1,11.35,9.57,48.68,48.68,0,0,1,7.45,13.95A59.3,59.3,0,0,1,251.37,449.25Z"></path><path class="cls-4" d="M241.77,451.91c5,20.76-.06,43.38-11.58,44-12.55.72-24.1-11.11-29.11-31.87s1.66-39.22,11.45-42.14C223.6,418.63,236.76,431.15,241.77,451.91Z"></path><path d="M241.72,451.92c-.7-.6-2.48-7.75-6.74-14.92a37.4,37.4,0,0,0-7.91-9.59,21.74,21.74,0,0,0-4.59-3,14.18,14.18,0,0,0-4.11-1.23,11.24,11.24,0,0,0-6,.84,12.79,12.79,0,0,0-4.68,4.15,31.63,31.63,0,0,0-4.87,13,53.45,53.45,0,0,0-.21,14.46,59.09,59.09,0,0,0,1.29,7.07c.59,2.31,1.25,4.61,2,6.8A56,56,0,0,0,211,480.4a32.72,32.72,0,0,0,7.46,8.54,18.83,18.83,0,0,0,9.53,3.94l1.26,0,.63,0a3.77,3.77,0,0,0,.51,0,7.85,7.85,0,0,0,1-.16,8,8,0,0,0,.92-.36,9.21,9.21,0,0,0,3.37-2.87,26.67,26.67,0,0,0,4.21-9.2,55,55,0,0,0,1.71-10,77.23,77.23,0,0,0-.72-18.2,47.18,47.18,0,0,1,5,18.95,44.7,44.7,0,0,1-.54,10.24,25.67,25.67,0,0,1-2.37,7.38,24.58,24.58,0,0,1-3.31,4.84,14.67,14.67,0,0,1-4.91,3.7,11.47,11.47,0,0,1-3,.91c-.52.05-1.07.1-1.56.11l-1.39-.07a14.66,14.66,0,0,1-2.72-.34,16.5,16.5,0,0,1-2.62-.67,25.15,25.15,0,0,1-8.89-5.19,37.33,37.33,0,0,1-6.31-7.37,62.7,62.7,0,0,1-7.36-16.53,67.26,67.26,0,0,1-2.77-16.69A50.56,50.56,0,0,1,200,435.52a32.68,32.68,0,0,1,3-7.16,20.28,20.28,0,0,1,5-5.94,13.52,13.52,0,0,1,3.49-1.94,13.23,13.23,0,0,1,3.83-.8,16,16,0,0,1,7.32,1.31A26.59,26.59,0,0,1,233,429.45a41.29,41.29,0,0,1,6.49,12.62A55.43,55.43,0,0,1,241.72,451.92Z"></path><g class="cls-5"><path d="M202.87,446.92c.32.27.42,2.59.79,5.26a42.93,42.93,0,0,0,1.47,7.27,81.82,81.82,0,0,0,7.46,17.16c.64,1.16,1.4,2.23,2.12,3.33l.53.82a5.73,5.73,0,0,0,.47.54c.42.46.85.92,1.3,1.37a40.74,40.74,0,0,0,5.5,4.71,17.21,17.21,0,0,0,5.67,2.72,9.59,9.59,0,0,0,2.74.27,10.23,10.23,0,0,0,2.55-.53,6,6,0,0,1-2.22,2.16,8.22,8.22,0,0,1-3.63,1,10,10,0,0,1-5.9-1.4,38.89,38.89,0,0,1-5.18-4.53c-.76-.78-1.48-1.56-2.16-2.35l-1-1.18-.49-.6a4.56,4.56,0,0,1-.27-.39l-.19-.33a92,92,0,0,1-5.31-9.87c-2.88-6.37-4.65-12.32-5-17.68a22.07,22.07,0,0,1,.14-4.54A23.22,23.22,0,0,1,202.87,446.92Z"></path></g><path class="cls-6" d="M229.81,457c2,8.19-1.67,16.2-6,17.23s-9.37-4.77-11.34-13-.1-15.67,4.19-16.71S227.84,448.8,229.81,457Z"></path><path d="M229.78,457c-.41-.21-1.17-3.08-3.13-5.78a16.63,16.63,0,0,0-3.41-3.63,9.78,9.78,0,0,0-3.48-1.81,5.55,5.55,0,0,0-2.38-.12,3.28,3.28,0,0,0-1.83,1.07,9.36,9.36,0,0,0-1.89,4.77,25.08,25.08,0,0,0,1.26,11.19,20.68,20.68,0,0,0,4.6,7.94,5.82,5.82,0,0,0,3.1,1.78,2.52,2.52,0,0,0,1.37-.2,3.42,3.42,0,0,0,.71-.41,5.29,5.29,0,0,0,.7-.57,10.87,10.87,0,0,0,2.22-3.22,19.23,19.23,0,0,0,1.27-3.72,22.37,22.37,0,0,0,.37-7.17,13.58,13.58,0,0,1,2.26,7.81,14.17,14.17,0,0,1-.65,4.28,9,9,0,0,1-1.47,2.93,10.29,10.29,0,0,1-3.9,3.12,8.25,8.25,0,0,1-1.28.4,8.73,8.73,0,0,1-1.34.07,5.72,5.72,0,0,1-1.26-.2l-.6-.18-.55-.24a10.63,10.63,0,0,1-3.42-2.67,18.82,18.82,0,0,1-2.29-3.25,29.35,29.35,0,0,1-2.76-6.85,31.58,31.58,0,0,1-1.07-6.82,20.11,20.11,0,0,1,.71-6.54,10.9,10.9,0,0,1,1.4-3,6.44,6.44,0,0,1,2.59-2.22,5.91,5.91,0,0,1,3.34-.37,9.49,9.49,0,0,1,2.88,1,14.28,14.28,0,0,1,4.26,3.48,15.18,15.18,0,0,1,2.83,5.09,18.46,18.46,0,0,1,.65,2.52C229.68,456.19,229.75,456.73,229.78,457Z"></path><path class="cls-7" d="M216.27,461.56c1.27,4.28,4,7.21,6.32,6.65,2.47-.6,4.5-5.33,3.36-10s-4.27-8.46-7.53-7.49c-2.44.73-3.51,5.34-2.37,10.07"></path><path class="cls-8" d="M216.27,461.56c1.27,4.28,4,7.21,6.32,6.65,2.47-.6,4.5-5.33,3.36-10s-4.27-8.46-7.53-7.49c-2.44.73-3.51,5.34-2.37,10.07"></path><path d="M216,460.74a9,9,0,0,1-.75-3.83,12.65,12.65,0,0,1,.3-3.07,7.17,7.17,0,0,1,1-2.42,3.27,3.27,0,0,1,1.5-1.27,4.11,4.11,0,0,1,2-.27,6,6,0,0,1,3.5,1.86,14.06,14.06,0,0,1,3.39,6.65,12,12,0,0,1-.32,6.33,8.41,8.41,0,0,1-1.52,2.82,4.11,4.11,0,0,1-3,1.61,4.34,4.34,0,0,1-2.91-1.22,8.49,8.49,0,0,1-1.68-2.08,13.09,13.09,0,0,1-1.55-4.21,31.6,31.6,0,0,0,2.74,3.56,8.24,8.24,0,0,0,2.67,2,1.66,1.66,0,0,0,1.56,0,3.85,3.85,0,0,0,1.42-1.34,8.86,8.86,0,0,0,1.39-3.89,12.24,12.24,0,0,0-1.67-7.46,8.53,8.53,0,0,0-2.24-2.6,3.8,3.8,0,0,0-2.81-.83,2.47,2.47,0,0,0-1.19.51,3.91,3.91,0,0,0-.82,1.06,9.06,9.06,0,0,0-.83,2.63,20.74,20.74,0,0,0-.18,5.46Z"></path><path class="cls-1" d="M222.39,459.93a11.58,11.58,0,0,0-1.22-3.19,3.78,3.78,0,0,0-4-1.81c-13.38,2.37-15.62,3.57-15.86,3.54-1.81-.24-2.81,2.74-2,6.43a8.32,8.32,0,0,0,3.81,5.25l17.47-4.85C222,462.81,222.59,461.09,222.39,459.93Z"></path><path d="M222.43,459.93c.27.06.54.85.37,1.91a9.44,9.44,0,0,1-.44,1.74c-.11.31-.22.61-.36.95s-.36.8-.56,1.22l-.15.31a1.53,1.53,0,0,1-.32.13l-.66.22-1.18.39-2,.68c-1.29.45-2.45.88-3.26,1.24-1.43.65-2.93,1.26-4.47,1.86l-2.33.87-1.19.42-.59.21-1.05.33a7.14,7.14,0,0,1-1.09.25c-.18,0-.37.12-.54.07l-.5-.26a10,10,0,0,1-1.9-1.27c-.34-.29-.51-.45-.71-.65s-.38-.39-.56-.59a11.76,11.76,0,0,1-1-1.33,10.73,10.73,0,0,1-1.32-3,14.32,14.32,0,0,1-.48-3,9.88,9.88,0,0,1,.26-2.9,7.07,7.07,0,0,1,.64-1.68,5.08,5.08,0,0,1,1.65-1.82,4.29,4.29,0,0,1,1.47-.62,3.27,3.27,0,0,1,.81-.1h.7c.36-2.6-.45,3.55-.36,2.88a.76.76,0,0,0,0-.15.78.78,0,0,0,0-.3l-.06-.13a1.26,1.26,0,0,1-.05-.21l-.07-.28-.27-1.11-.16-.55c0-.13,0-.09,0-.1h0l.05,0,.23-.07.53-.17c.72-.22,1.42-.4,2.11-.58a73.79,73.79,0,0,1,8-1.43c1.27-.16,2.52-.29,3.73-.38l1.93-.14a5.94,5.94,0,0,1,2.53.47,5.37,5.37,0,0,1,2,1.45,4.88,4.88,0,0,1,1,1.87,10.69,10.69,0,0,1,.55,3.23,24,24,0,0,0-2.59-2.22,2.19,2.19,0,0,0-1.24-.59,2.16,2.16,0,0,0-1,.09,2,2,0,0,0-.7.39l0,0-.09,0-.19.08-.37.14-.71.26a7.32,7.32,0,0,1-2.27.48,61.12,61.12,0,0,0-6.6.31q-1.59.17-3.09.42c-.5.09-1,.18-1.46.29l-.72.18-.2.05-.16,0h-.08a1.55,1.55,0,0,1-.37,0h-.2l0,0s-.11,0-.28.19a2.63,2.63,0,0,0-.42.92,7,7,0,0,0-.14,2.47,10.49,10.49,0,0,0,.2,1.25,8.3,8.3,0,0,0,.37,1.13,7.23,7.23,0,0,0,1.26,1.93c.13.14.27.27.41.4a2.25,2.25,0,0,0,.31.26,2.87,2.87,0,0,0,.62.38l.69-.24,1.1-.36,4.58-1.47a78.85,78.85,0,0,1,8.37-2.26l.49-.11a2.48,2.48,0,0,1,.43-.06c.19,0,.44,0,.68,0l.51-.51c.21-.24.46-.59.68-.88a11.19,11.19,0,0,0,1.08-1.7A3.61,3.61,0,0,0,222.43,459.93Z"></path><g class="cls-2"><path class="cls-3" d="M219.78,458.65c-.06.63-2.53.93-3.44,1.41a20.74,20.74,0,0,1-5.23,1.63,15,15,0,0,1-8.19-.27c.67-1.73,2.24-3.1,2.89-2.89,5.23,1.63,8.72-.76,11.7-.63A6.08,6.08,0,0,1,219.78,458.65Zm-7.06,2.24h0"></path></g><g class="cls-2"><path class="cls-3" d="M237.42,408.76c.1-.34,2-1.11,4.42-1a17.25,17.25,0,0,1,6.3,1.72,22.29,22.29,0,0,1,6.79,4.79,50.53,50.53,0,0,1,5.32,6.36,67.39,67.39,0,0,1,6.6,11.54,66,66,0,0,1,3.75,10.17c-2.8-1.56-6.25-5.5-6.81-7.23a49.52,49.52,0,0,0-9.06-16.92c-3.62-4.28-7.59-7.11-11.33-8.34a27.33,27.33,0,0,0-3.33-.88A26.14,26.14,0,0,0,237.42,408.76Z"></path></g><g class="cls-2"><path class="cls-3" d="M226.3,413c.06-.4,1.89-1,4-.83a24,24,0,0,1,5.75,1.3,9.16,9.16,0,0,1,1.72.64,17.58,17.58,0,0,1,1.71.8l1.64,1,.82.52c.26.19.5.39.76.59a39.93,39.93,0,0,1,5.52,5.24,40.64,40.64,0,0,1,3.77,5q.82,1.29,1.59,2.58c.46.88.89,1.75,1.3,2.61s.79,1.69,1.15,2.51.61,1.66.88,2.45c.53,1.58,1,3.07,1.27,4.4a17.32,17.32,0,0,1-6.35-6.45,33.54,33.54,0,0,0-9-14.66,30,30,0,0,0-11.1-6.51,11.61,11.61,0,0,1-1.43-.46c-.52-.12-1.08-.33-1.61-.43A10.75,10.75,0,0,0,226.3,413Z"></path></g><g class="cls-2"><path class="cls-3" d="M215.85,419c0-.4,1.54-1.27,3.53-1.56a18.43,18.43,0,0,1,5.55.12,15.65,15.65,0,0,1,3.44.83c.56.22,1.1.5,1.66.77a10.49,10.49,0,0,1,1.61.89,31.05,31.05,0,0,1,5.56,4.61,32.11,32.11,0,0,1,3.68,4.67c.53.81,1.05,1.61,1.54,2.41s.83,1.65,1.21,2.45.74,1.6,1.07,2.37.55,1.56.8,2.3c.47,1.5.84,2.9,1.1,4.15a15.12,15.12,0,0,1-3.83-3,19.29,19.29,0,0,1-1.42-1.68,4.64,4.64,0,0,1-.8-1.33,26.71,26.71,0,0,0-8.63-13.39l-1.4-1a9.8,9.8,0,0,0-1.38-.89,19.08,19.08,0,0,0-2.8-1.32,19.92,19.92,0,0,0-5.28-1.27c-.8-.07-1.91-.25-2.94-.27A11.82,11.82,0,0,0,215.85,419Z"></path></g><g class="cls-5"><path d="M260.1,493.24c-.14-.35.78-1.87,1.67-3.73a26.94,26.94,0,0,0,2-5.3A64.3,64.3,0,0,0,265.53,470a94.1,94.1,0,0,0-.83-11.67q-.24-1.37-.42-2.67c-.14-.87-.19-1.73-.38-2.54-.32-1.62-.56-3.15-.72-4.55a15.17,15.17,0,0,1,3.61,3.83,10.17,10.17,0,0,1,1.65,4,122.75,122.75,0,0,1-.3,18.62c-.62,5.36-1.84,10.06-3.94,13.68a14.08,14.08,0,0,1-2.17,2.81A13.23,13.23,0,0,1,260.1,493.24Z"></path></g><g class="cls-5"><path d="M248,496c-.11-.36.93-1.81,2-3.6.5-.91,1.07-1.85,1.49-2.77.22-.45.43-.88.6-1.28s.29-.78.38-1.09a54.55,54.55,0,0,0,2.85-14,68.06,68.06,0,0,0-.7-11.6c-.17-.9-.35-1.78-.52-2.64s-.24-1.72-.48-2.51c-.42-1.59-.75-3.11-1-4.5a14.93,14.93,0,0,1,3.86,3.62,10.61,10.61,0,0,1,1.82,4,22.22,22.22,0,0,1,.15,2.68c0,.88.07,1.74.12,2.57,0,1.68,0,3.3,0,4.85-.06.78-.12,1.54-.17,2.29s-.05,1.5-.18,2.21-.19,1.44-.28,2.13c0,.35-.07.7-.13,1.05s-.13.67-.2,1c-1,5.35-2.65,10-5.09,13.39-.28.4-.66.86-1.06,1.32s-.9.89-1.34,1.3A15.24,15.24,0,0,1,248,496Z"></path></g><g class="cls-5"><path d="M240.84,493.38c-.13-.35.72-1.55,1.51-3.07.41-.75.77-1.59,1.1-2.35a17.37,17.37,0,0,0,.65-2,53.5,53.5,0,0,0,1.19-11.77c-.09-6.7-1.45-13.22-1.82-17.95a11.77,11.77,0,0,1,3.32,3.13,8,8,0,0,1,1.07,1.86,4.39,4.39,0,0,1,.4,1.48c.08,6.06.18,11.11-.23,15.67s-1.42,8.55-3.37,11.53a11.15,11.15,0,0,1-3.82,3.48Z"></path></g></svg>