<svg xmlns="http://www.w3.org/2000/svg" id="art" viewBox="0 0 380 600"><defs transform="matrix(-1, 0, 0, 1, 380, 0)"><style>.cls-1,.cls-4{fill:#ff4500;}.cls-1,.cls-3{fill-rule:evenodd;}.cls-2,.cls-3{fill:#ffd635;}.cls-5{opacity:0.5;}.cls-6{fill:#fffffe;}.cls-7{fill:#ffffff;}</style></defs><path class="cls-1" d="M119.162,348.421a11.791,11.791,0,0,1,7.753,14.313l-18.09,66.338.088.039-.421.424-.04-.088L40.969,448.192A11.783,11.783,0,0,1,26.6,440.436c-9.035-28.207-4.448-57.582,14.884-77C60.983,343.836,90.684,339.2,119.162,348.421Z" transform="matrix(-1, 0, 0, 1, 380, 0)"></path><path d="M119.148,348.465a18.435,18.435,0,0,1-3.052-.571c-.812-.179-1.749-.447-2.828-.67l-3.59-.717A94.079,94.079,0,0,0,89.9,344.828a75.589,75.589,0,0,0-22.4,3.916,60.629,60.629,0,0,0-16.39,8.583,27.616,27.616,0,0,0-2.452,1.925l-2.408,2.014-2.265,2.209-1.138,1.106c-.368.382-.7.795-1.06,1.191l-2.112,2.4c-.68.825-1.294,1.708-1.948,2.56-1.355,1.672-2.411,3.57-3.6,5.378-.558.929-1.034,1.91-1.558,2.864a28.69,28.69,0,0,0-1.451,2.93q-.663,1.5-1.329,3c-.393,1.024-.743,2.067-1.119,3.1l-.557,1.553-.448,1.593-.889,3.19-.668,3.253c-.107.544-.234,1.083-.326,1.629l-.224,1.65c-.144,1.1-.316,2.2-.439,3.3l-.234,3.326c-.032.555-.095,1.108-.1,1.664l-.01,1.668c0,1.113-.03,2.224-.011,3.335l.183,3.33c.034.554.052,1.109.1,1.662l.193,1.655.38,3.3.575,3.272c.321,2.189.936,4.317,1.411,6.462.245,1.071.609,2.111.905,3.165l.467,1.574a13.366,13.366,0,0,0,.468,1.432,8.941,8.941,0,0,0,7.7,5.661,5.185,5.185,0,0,0,.907.013,5.482,5.482,0,0,0,.9-.079,5.8,5.8,0,0,0,.892-.172c.258-.049.672-.169,1.059-.28l4.64-1.314,9.251-2.605,18.318-5.1,17.941-4.916,15.412-4.158h0l6.367-22.2C115.057,397.311,117.2,390,119.251,383c2.1-6.987,4.116-13.67,6.021-20,.128-.4.242-.79.32-1.121a6.341,6.341,0,0,0,.218-1.052,6.793,6.793,0,0,0,.109-1.063,7.557,7.557,0,0,0,0-1.064,10.578,10.578,0,0,0-1.048-4.066,10.9,10.9,0,0,0-5.971-5.4,11.431,11.431,0,0,1,3.2,1.1A11.024,11.024,0,0,1,125.1,352.7a11.869,11.869,0,0,1,3,8.163,14.547,14.547,0,0,1-.266,2.4q-.212,1.12-.428,2.256c-.3,1.511-.6,3.039-.9,4.574-.613,3.069-1.254,6.165-1.906,9.211-2.607,12.188-5.381,23.6-7.215,29.5-1.106,3.582-2.2,7.13-3.279,10.615q-.8,2.616-1.585,5.18l-.776,2.548-.4,1.329c-.111.367-.206.745-.328,1.1l-.43,1h0l.032-.013c.024-.014.013,0-.024.032l-.156.15-.312.3c-.089.082-.263.262-.189.16-.095.029-.258.1-.383.147-.272.1-.526.222-.811.305l-.87.227-2.09.525-4,1-7.9,2-15.446,3.984q-15.211,3.969-29.511,7.854l-7.1,1.933a13.32,13.32,0,0,1-7.794.036,13.008,13.008,0,0,1-6.367-4.361,12.375,12.375,0,0,1-1.91-3.354,16.569,16.569,0,0,1-.566-1.744l-.494-1.7a99.139,99.139,0,0,1-2.952-13.6q-.19-1.706-.379-3.4l-.189-1.69-.089-1.693-.172-3.367c-.025-1.119.014-2.235.017-3.347-.038-2.227.2-4.426.352-6.613.046-1.1.275-2.171.4-3.252.167-1.075.269-2.158.49-3.217s.446-2.112.668-3.163c.117-.523.206-1.053.348-1.569l.439-1.54q.44-1.539.875-3.065.541-1.494,1.079-2.976c.658-2,1.6-3.868,2.439-5.764.395-.961.952-1.836,1.428-2.748.5-.9.973-1.809,1.491-2.689a67.311,67.311,0,0,1,7.185-9.681,65.035,65.035,0,0,1,18.042-14.146,67.757,67.757,0,0,1,20.346-6.885c1.763-.259,3.691-.535,5.724-.746l3.133-.179L87,342.641c.54-.013,1.086.008,1.633.011l3.305.053c1.106.021,2.212.16,3.315.237,1.1.111,2.2.143,3.279.322l3.191.477,1.553.239,1.506.323,2.888.622c1.862.41,3.556.964,5.083,1.372q1.147.3,2.123.665l1.791.625Z" transform="matrix(-1, 0, 0, 1, 380, 0)"></path><path class="cls-2" d="M80.313,396.77c-3,2.483-25.261,2.118-27.18.473s.252-26.518,3.4-29.009,25.293-2.542,28.179,1.527S83.309,394.286,80.313,396.77Z" transform="matrix(-1, 0, 0, 1, 380, 0)"></path><path d="M80.3,396.752a13.1,13.1,0,0,0,1.385-2.869,50.667,50.667,0,0,0,1.8-6.415c1.115-4.935,1.742-10.716,1.406-13.821a13.373,13.373,0,0,0-.33-2,3.279,3.279,0,0,0-.735-1.522,8.638,8.638,0,0,0-3.593-1.448,49.466,49.466,0,0,0-8.858-.886,68.025,68.025,0,0,0-9.019.367,21.416,21.416,0,0,0-4.159.817,3.257,3.257,0,0,0-.7.319c-.085.039-.1.086-.128.112s-.11.174-.171.251a9.974,9.974,0,0,0-.709,1.754,48.52,48.52,0,0,0-1.383,6.508c-.345,2.217-.6,4.441-.815,6.638s-.356,4.374-.414,6.5c-.027,1.058-.034,2.106.011,3.111.026.5.059,1,.126,1.435a4.9,4.9,0,0,0,.1.549.124.124,0,0,0,.022.067,5.045,5.045,0,0,0,1.158.32c.591.123,1.215.213,1.832.3,1.242.162,2.489.277,3.717.371,2.458.182,4.849.284,7.138.321s4.483.021,6.546-.1c1.031-.06,2.033-.14,2.984-.277a7.245,7.245,0,0,0,2.529-.715,5.228,5.228,0,0,1-2.034,1.23,21.8,21.8,0,0,1-2.781.858,49.326,49.326,0,0,1-6.233,1.052,49.159,49.159,0,0,1-10.312.18c-1.034-.135-2.06-.287-3.059-.481-.5-.1-.988-.2-1.487-.343-.242-.06-.5-.153-.76-.242a5.068,5.068,0,0,1-1-.552,5.441,5.441,0,0,1-.368-.5l-.261-.567a5.917,5.917,0,0,1-.19-.906,13.47,13.47,0,0,1-.124-1.53c-.034-.988-.021-1.944.018-2.889.071-1.89.223-3.73.4-5.54.364-3.616.84-7.1,1.486-10.468a43.128,43.128,0,0,1,1.219-4.943,10.185,10.185,0,0,1,1.07-2.38,2.793,2.793,0,0,1,.491-.573,3.041,3.041,0,0,1,.618-.4,7.223,7.223,0,0,1,1.221-.462,42.227,42.227,0,0,1,9.359-1.09,70.009,70.009,0,0,1,8.8.3,37.291,37.291,0,0,1,4.188.65,12.658,12.658,0,0,1,4.021,1.481,4.131,4.131,0,0,1,.922.8,3.723,3.723,0,0,1,.606,1.056,8.529,8.529,0,0,1,.5,2.07,22.919,22.919,0,0,1,.127,3.9,49.442,49.442,0,0,1-.9,7.225,48.638,48.638,0,0,1-2.3,8.112C82.289,394.152,81.025,396.339,80.3,396.752Z" transform="matrix(-1, 0, 0, 1, 380, 0)"></path><path class="cls-3" d="M108.825,429.072l11.238-41.21a65.15,65.15,0,0,0-53.639,53.259l42.028-11.674.04.088.421-.424Z" transform="matrix(-1, 0, 0, 1, 380, 0)"></path><path d="M108.837,429.044a.6.6,0,0,1,.1.009l.072.011-.052.092a4.3,4.3,0,0,1-.353.493l-.134.169-.128-.217-.049-.084.2.1c-4.182,1.665-24.762,7.388-33.024,10.026l-3.006.953L69.1,441.634l-2.533.748-1.291.373-.326.094-.163.048-.041.011.007-.039.015-.08.12-.642q.245-1.306.492-2.621l.259-1.336.239-1.078a67.583,67.583,0,0,1,4.21-13.01,65.124,65.124,0,0,1,16-22.088,63.952,63.952,0,0,1,19.5-12.061,69.5,69.5,0,0,1,10.633-3.239l1.1-.244,1.256-.242,2.493-.48,1.234-.237.308-.059c.02.057-.043.191-.06.283l-.166.611-.662,2.424q-.907,3.168-1.793,6.268c-3.812,13.076-7.442,24.839-10.558,34.184.723-8.936,4.078-25.658,5.954-31.429l1.394-4.325c.42-1.291,1.05-3.37,1.057-3.177l.119-.273c.034-.093.127-.245,0-.2-.155,0-.339.013-.549.03a4.158,4.158,0,0,0-.577.1l-1.046.209c-.7.141-1.379.323-2.066.483A62.037,62.037,0,0,0,98.4,396.622a60.6,60.6,0,0,0-21.614,20.362,63.807,63.807,0,0,0-6.029,12.152c-.746,2.058-1.419,4.1-1.949,6.155-.131.513-.284,1.017-.4,1.53q-.16.7-.319,1.393c-.06.253-.1.5-.146.738a3.135,3.135,0,0,0-.094.671l1.393-.412,2.842-.808,5.7-1.6q5.6-1.552,10.845-2.911c6.338-1.694,17.26-3.974,19.822-4.449h0l.037.09,0,.006.005,0,.436-.409.025-.024-.033-.017Z" transform="matrix(-1, 0, 0, 1, 380, 0)"></path><path class="cls-2" d="M105.351,427.037l17.135.629a2.464,2.464,0,0,1,1.656,4.2L110.27,445.806a2.465,2.465,0,0,1-4.21-1.637Z" transform="matrix(-1, 0, 0, 1, 380, 0)"></path><path d="M105.381,427.036c.649.5,1.02,10.046,1.532,13.708q.158,1.218.318,2.467l.074.628c.013.1.022.23.038.3a1.5,1.5,0,0,1,.041.156,1.1,1.1,0,0,0,.314.469,1.081,1.081,0,0,0,1.006.231.905.905,0,0,0,.387-.268l.824-.891c2.383-2.587,4.829-5.152,7.148-7.591l3.055-3.159,1.531-1.545.765-.762.191-.189a1.169,1.169,0,0,0,.137-.143.389.389,0,0,0,.073-.088.553.553,0,0,0-.2-.74.777.777,0,0,0-.107-.047,1.437,1.437,0,0,0-.261-.034l-1.021-.072-2.01-.155c-5.3-.432-10.076-1.015-13.888-1.7,3.493-1.526,10.166-2.445,12.516-2.067q1.774.285,3.5.52l.858.114.476.065a3.629,3.629,0,0,1,.649.14,3.789,3.789,0,0,1,2.066,1.532,3.84,3.84,0,0,1,.614,2.343,3.551,3.551,0,0,1-.937,2.137l-.2.206-.151.136-.3.272-.6.542-1.168,1.08c-3.077,2.87-5.853,5.668-8.417,8.334q-.959,1-1.886,1.974l-.916.967-.451.477a3.746,3.746,0,0,1-.646.551,3.39,3.39,0,0,1-3.388.223,3.441,3.441,0,0,1-1.933-2.741c-.233-3.344-.358-6.274-.347-9.12A65.04,65.04,0,0,1,105.381,427.036Z" transform="matrix(-1, 0, 0, 1, 380, 0)"></path><ellipse class="cls-4" cx="107.047" cy="428.725" rx="5.717" ry="3.801" transform="matrix(-1, 0, 0, 1, 380, 0) translate(-272.337 202.159) rotate(-45.135)"></ellipse><path d="M104.375,426.065c.148.318-.576,1.2-1,2.375A5.229,5.229,0,0,0,103,430.2a2.055,2.055,0,0,0,.323,1.235,1.6,1.6,0,0,0,1.124.639,3.287,3.287,0,0,0,1.489-.245,6.529,6.529,0,0,0,2.85-2.253,5.7,5.7,0,0,0,1.113-2.552,2.247,2.247,0,0,0-.043-.838.913.913,0,0,0-.337-.464,3.17,3.17,0,0,0-2.232-.19,10.02,10.02,0,0,0-2.531.909,4.47,4.47,0,0,1,1.548-3.429,3.852,3.852,0,0,1,3.457-1.04,4.958,4.958,0,0,1,2.2,1.392,4.218,4.218,0,0,1,1.017,2.149,6.145,6.145,0,0,1-.661,3.618,10.758,10.758,0,0,1-4.022,4.374,7.261,7.261,0,0,1-2.648.981,4.2,4.2,0,0,1-2.908-.57,3.672,3.672,0,0,1-1.58-2.477,4.753,4.753,0,0,1,1.74-4.473A5.87,5.87,0,0,1,104.375,426.065Z" transform="matrix(-1, 0, 0, 1, 380, 0)"></path><path d="M112.032,450.241c.5.1.915,1.509,1.614,3.07a26.708,26.708,0,0,0,2.216,4.259A21.555,21.555,0,0,1,118.9,463.4a16.4,16.4,0,0,1,.74,3.636,16.038,16.038,0,0,1-.191,3.769,22.314,22.314,0,0,1-1.825,5.508c-.739,1.608-1.49,2.984-2.07,4.258a14.567,14.567,0,0,0-1.733,7.036,4.429,4.429,0,0,1-2.187-1.194,6.632,6.632,0,0,1-1.5-2.339,5.574,5.574,0,0,1-.183-4.182c1.726-2.971,3.452-5.034,4.514-7.255a12.81,12.81,0,0,0,1.14-3.256,9.8,9.8,0,0,0,.057-3.128,21.238,21.238,0,0,0-1.874-5.579,29.541,29.541,0,0,1-1.955-5.131,9.045,9.045,0,0,1-.211-3.064A10.774,10.774,0,0,1,112.032,450.241Z" transform="matrix(-1, 0, 0, 1, 380, 0)"></path><path class="cls-4" d="M107.922,485.961l-3.252,27.123c7.694,5.679,13.288,3.255,16.56-2.576L116.2,484.672Z" transform="matrix(-1, 0, 0, 1, 380, 0)"></path><path d="M107.917,485.931a8.586,8.586,0,0,1,2.679-.818l2.55-.524,3.576-.658c.4,1.816.819,3.681,1.2,5.373.346,1.5.669,2.837.941,3.821,1.087,3.922,2.111,8.158,3.083,12.441l.72,3.216.206.956.158.758a1.249,1.249,0,0,1,.052.376l-.2.332a22.349,22.349,0,0,1-1.2,1.931,12.951,12.951,0,0,1-2.516,2.765,10.123,10.123,0,0,1-6.733,2.372c-.552-.034-1.108-.082-1.646-.167-.521-.124-1.067-.21-1.562-.38a17.38,17.38,0,0,1-2.846-1.2l-1.289-.747-1.8-1.235c-1.1-.337-.541-1.42-.517-2.254q.108-.82.214-1.633.18-1.306.359-2.591.381-2.565.749-5.031c1.025-6.556,2.143-12.456,3.257-17.146,1.13,4.457,1.3,12.822.658,15.717q-.967,4.371-1.716,8.5-.18.993-.356,1.969l-.108.461a2.288,2.288,0,0,0,.325.3l.1.08.194.147a3.976,3.976,0,0,0,.4.272l.806.509a15.235,15.235,0,0,0,1.663.849,7.938,7.938,0,0,0,6.74.079,9.148,9.148,0,0,0,2.637-2.036,12.084,12.084,0,0,0,1.027-1.319,6.591,6.591,0,0,0,.441-.69c.06-.149.226-.283.2-.451q-1.43-6.637-2.678-12.437c-.839-3.945-1.585-7.668-2.117-11.107-.04-.257-.068-.554-.113-1l-.628,0-.374,0-.624.032-2.522.105C109.717,485.919,108.4,485.935,107.917,485.931Z" transform="matrix(-1, 0, 0, 1, 380, 0)"></path><ellipse class="cls-2" cx="111.74" cy="485.661" rx="4.742" ry="4.467" transform="matrix(-1, 0, 0, 1, 380, 0) translate(-369.301 355.46) rotate(-61.898)"></ellipse><path d="M107.247,486.132c.327.1.514,1.166,1.265,2.014a3.528,3.528,0,0,0,1.309.98,2.4,2.4,0,0,0,1.262.193,3.95,3.95,0,0,0,2.7-1.686,3.306,3.306,0,0,0,.49-2.8,2.738,2.738,0,0,0-3.285-1.9,3.977,3.977,0,0,0-1.994,1.124,5.157,5.157,0,0,0-1.206,2.051,2.9,2.9,0,0,1-.995-1.442,4.044,4.044,0,0,1-.08-2.059,3.788,3.788,0,0,1,2.089-2.75,6.283,6.283,0,0,1,7.041,1.991,6.057,6.057,0,0,1,.777,5.824,5.865,5.865,0,0,1-3.876,3.593,4.781,4.781,0,0,1-4.655-1.168,3.7,3.7,0,0,1-1.047-2.279A3.822,3.822,0,0,1,107.247,486.132Z" transform="matrix(-1, 0, 0, 1, 380, 0)"></path><g class="cls-5" transform="matrix(-1, 0, 0, 1, 380, 0)"><path class="cls-6" d="M115.732,377.616c-.079-.528.539-2.8,1.006-6.263a52.183,52.183,0,0,0,.451-5.975c0-.611.007-1.016-.011-1.445s-.035-.867-.06-1.3c-.062-.869-.151-1.738-.281-2.6.008-.087-.042-.035-.087.006l-.131.109-.261.219-.511.448c-.334.3-.66.613-.974.929s-.618.64-.91.968-.522.606-.97,1.156a32.463,32.463,0,0,0-3.986,6.346l-2.074-.587a53.394,53.394,0,0,0,.142-5.423l-.043-.943-.057-.77c-.047-.5-.1-.978-.165-1.426s-.137-.87-.216-1.26l-.122-.562-.031-.133-.015-.065c-.007-.014-.027.038-.04.054l-.171.289-.626,1.068-.275.48c-.087.153-.182.319-.212.384l-.331.683-.668,1.112-1.279,2.051q-2.41,3.861-4.875,7.808-.926-5.816-1.874-11.773l-1.288-7.858,4.091.8q-.906,1.641-1.74,3.336l-.814,1.707-.989,2.21c-.912,2.083-1.779,4.4-2.637,6.976s-1.732,5.162-2.6,7.745l-.2-.558-.311-1.142-.628-2.317-1.269-4.681-.64-2.362-.16-.593-.08-.3.417,1.577.483,1.823.018.069,0-.012-.007-.025-.015-.051-.057-.2-.454-1.622-.453-1.621-1.175-4.384.164.659.687,2.744-.141.487-.024.09.44-1.143.4-1.036-.318.869q-2.648,7.131-5.247,14.128c-1.289-3.673-2.539-7.23-3.763-10.716l-.924-2.63-.46-1.311-.115-.327-.054-.155.045.134.182.536q.741,2.174,1.472,4.323c.135.388.083.261.09.3l0,.029-.008.053-.01.088a.634.634,0,0,0,0,.111l0,.016s0,0,0,.014l-.053.24-.108.49-.4,1.965q-.369,1.968-.632,3.945l-.939,7.042-4.386-5.608q-1.069-1.368-2.064-2.783l-.975-1.425-.473-.72-.059-.09.008.011h0s0,0,0-.018-.006-.013-.012-.014l-.011.007-.007.007-.032.153-.322,1.91q-.156,1.026-.311,2.047-.294,2.045-.519,4.076l-.816,7.353-4.4-5.922L60.41,378.22l-.536-.7-.228-.292-.009-.021c-.026-.052-.062-.115-.109-.191l-.181-.268a.926.926,0,0,0-.057.184l-.064.3-.009.046,0,.024-.011.215-.044.859q-.045.857-.088,1.709-.27,5.958-.533,11.752l-5.229-4.4-2.765-2.324-.335-.29-.168-.144c-.009-.009,0,0,0,0a.1.1,0,0,0,.031,0c.134.073-.241-.273-.452-.486-.169-.231-.136.037-.178.13l-.081.406-.075.453-.035.25-.016.133-.009.071-.01.2-.073,1.6-.023.792-.013.94c-.005,3.473.354,7.111.554,10.236-.128-.009-.381-.257-.595-.434l-.646-.553-1.247-1.067-2.322-2-4.13-3.578,2.3-1.366c.264,1.758.5,3.353.729,4.852.207,1.468.4,2.841.59,4.185a.958.958,0,0,0,.216.591l.19.231a3.115,3.115,0,0,1,.336.458,1.543,1.543,0,0,1,.188.493c.04.178-.046.3-.156.268a.758.758,0,0,1-.346-.181c-.031-.023-.062-.056-.094-.084l-.044-.054c-.027-.007-.2.071-.213.061.022-.068.106-.052.165-.059-.073.015-.17.007-.2.086.028,0,.193-.072.194-.047l.033.059.07.1a.549.549,0,0,0,.267.2c.088.031.146-.1.078-.257a1.414,1.414,0,0,0-.257-.417,2.356,2.356,0,0,0-.367-.345c-.1-.072-.2-.145-.306-.229a1.209,1.209,0,0,1-.434-.674c-.932-2.578-1.92-5.6-2.9-8.8l-.644-2.091,2.082,1.235c.813.483,1.512.879,2.1,1.194l.8.412.344.163.157.071.075.033c.039.035-.01-.083-.01-.116l-.461-1.992-.172-.681-.038-.142-.018-.07-.022-.236-.073-.983q-.063-.981-.1-1.953c-.01-.111-.006-.44,0-.714l0-.843c0-.565.027-1.13.04-1.7.086-2.268.258-4.459.415-6.714l.062-.847.031-.423c.074.009.2.13.29.189l1.213.888,2.41,1.772,4.71,3.731-.323-.3-.164-.146c-.048-.043-.013-.017-.024-.028s0,0,.013.028a.317.317,0,0,0,.05.069c.051.052.1.044.155-.021a.431.431,0,0,0,.039-.059,2.393,2.393,0,0,0,.028-.294l.033-.418.128-1.667.064-.831.08-1.344q.085-1.512.171-3.019.085-1.464.171-2.921.123-1.312.246-2.62.119-1.28.236-2.556l.058-.629c.142.125.318.343.475.509l.955,1.057,3.634,4.069c1.184,1.356,2.345,2.775,3.436,4.194.711.948,1.308,1.779,1.94,2.684l-3.465.951q.291-2.213.651-4.388.188-1.086.375-2.164l.44-2.323c.19-.994.42-2.125.648-3.149.227-1.046.468-2.049.706-3.031s.476-1.945.713-2.91l.358-1.438c.061-.225.116-.511.181-.682l.222-.178c.808,1.667,1.65,3.367,2.471,4.988s1.626,3.1,2.467,4.475l.577.933.431.677L73,369.862q.9,1.314,1.839,2.557l-2.3.62q.276-1.854.632-3.674l.376-1.812.438-1.894c.4-1.647.854-3.244,1.331-4.753s.976-2.935,1.481-4.381l.78-2.178.1-.274.05-.136.073.195.293.785.584,1.563q.581,1.555,1.159,3.1l.21.571.087.253.173.5,1.378,3.981q2.749-7.389,5.371-14.431l2.363,8.692.467,1.7.605,2.263.024.073.028.077.05.125.021.047s0,.027.013.007l.078-.24c.489-1.5,1-2.858,1.577-4.174.105-.249.437-.971.709-1.545q.434-.887.865-1.766.882-1.75,1.836-3.432l2.1-3.707.647,4.242q.557,3.645,1.1,7.189.273,1.7.538,3.35l1.885-2.983,1.806-2.792.936-1.446.233-.36.2-.276.381-.531,1.518-2.113.755-1.049.376-.522.188-.261c.013-.011.036-.067.042-.042l.014.085.029.169c.314,1.818.589,3.526.844,5.245a53.145,53.145,0,0,1,.546,5.386l.052,1.4.011,1.106q0,.929-.037,1.85-.067,1.842-.262,3.649l-2.966-.839c.423-.808.855-1.6,1.33-2.356a31.61,31.61,0,0,1,3.767-4.986,38.949,38.949,0,0,1,6.794-5.756,60.537,60.537,0,0,1,.239,8.462l-.065.854c-.026.259-.051.516-.077.771-.051.51-.116,1.01-.187,1.5-.135.981-.309,1.92-.488,2.806A42.662,42.662,0,0,1,115.732,377.616Z"></path></g><path class="cls-7 color-body" d="M126.136,457.414c-3.689,7.891-15.734,10.056-26.9,4.835S83.3,447.853,84.663,439.2c1.189-7.534,6.858-15.37,18.028-10.149S129.825,449.522,126.136,457.414Z" transform="matrix(-1, 0, 0, 1, 380, 0)" style="fill:#ffffff;--backup-fill:#ffffff"></path><path d="M126.081,457.388c-.206-.371.143-1.577-.243-3.316a17.534,17.534,0,0,0-2.939-6.093,43.93,43.93,0,0,0-10.534-10.25,76.535,76.535,0,0,0-7.879-4.6,27.89,27.89,0,0,0-4.112-1.726,12.8,12.8,0,0,0-3.877-.729,6.72,6.72,0,0,0-5.7,2.853,13.976,13.976,0,0,0-2.409,7.086,16.522,16.522,0,0,0,4.3,12.094,25.25,25.25,0,0,0,5.144,4.451c.951.644,1.964,1.2,2.969,1.756,1.022.49,2.033.99,3.075,1.374a24.762,24.762,0,0,0,12.275,1.678,12.746,12.746,0,0,0,8.947-5.038,8.874,8.874,0,0,1-1.936,5.784,14.948,14.948,0,0,1-6.122,4.6,19.8,19.8,0,0,1-7.137,1.559,20.626,20.626,0,0,1-3-.135,16.74,16.74,0,0,1-2.247-.508,42.417,42.417,0,0,1-6.724-3.13,43.5,43.5,0,0,1-5.713-4.065,27.537,27.537,0,0,1-7.84-10.709,22.3,22.3,0,0,1-1.459-6.188,21.33,21.33,0,0,1,.395-6.119,20.234,20.234,0,0,1,2.033-5.592,14.057,14.057,0,0,1,3.86-4.545,11.079,11.079,0,0,1,5.546-2.175,14.736,14.736,0,0,1,5.6.5,35.1,35.1,0,0,1,9.083,4.262,51.17,51.17,0,0,1,13.2,11.734,22.9,22.9,0,0,1,4.237,8.506,10.44,10.44,0,0,1,.191,4.362A5.914,5.914,0,0,1,126.081,457.388Z" transform="matrix(-1, 0, 0, 1, 380, 0)"></path></svg>