<svg xmlns="http://www.w3.org/2000/svg" data-name="lounge_1 copy" id="lounge_1_copy" viewBox="0 0 380 600"><defs transform="matrix(-1, 0, 0, 1, 380, 0)"><style>.cls-1{fill:#ff4500;}.cls-2{fill:none;}.cls-3{opacity:0.3;}.cls-4{fill:#ffffff;}</style></defs><rect class="cls-1 color-fan" height="87.121" rx="2.8" transform="matrix(-1, 0, 0, 1, 380, 0) translate(-332.873 263.783) rotate(-58.488)" width="6.676" x="65.795" y="385.6"></rect><path d="M106.524,451.455a4.182,4.182,0,0,0,.2-1.554,2.7,2.7,0,0,0-.515-1.291,4.089,4.089,0,0,0-1.462-1.066c-2.5-1.423-5.769-3.351-9.271-5.429-7.006-4.158-14.932-8.919-19.411-11.454-7.907-4.476-16.317-9.4-24.764-14.421l-12.64-7.554-3.128-1.88-.377-.224a.94.94,0,0,0-.142-.064,1,1,0,0,0-.295-.061.957.957,0,0,0-.569.174c-.189.148-.175.129-.573.8l-.231.384a1.018,1.018,0,0,0-.073.152.728.728,0,0,0-.061.275.875.875,0,0,0,.143.54.735.735,0,0,0,.184.2,1.111,1.111,0,0,0,.125.088l.378.228c14.092,8.482,27.931,17.045,40.459,25,6.264,3.98,12.2,7.809,17.679,11.4l7.854,5.2,1.845,1.238.453.305.225.152.167.1a1.986,1.986,0,0,0,.724.245,2.093,2.093,0,0,0,1.484-.365,2.252,2.252,0,0,0,.561-.573l.572-.837-.353.87a2.735,2.735,0,0,1-.428.776,2.612,2.612,0,0,1-1.73.928,2.8,2.8,0,0,1-1.13-.1,10.416,10.416,0,0,1-1.071-.458l-2.136-1c-2.9-1.382-5.969-2.923-8.929-4.468-5.921-3.089-11.4-6.19-14.134-8.041-11.027-7.447-21.511-14.249-31.451-20.526l-7.353-4.612-3.6-2.235-.892-.552c-.31-.2-.556-.324-.949-.613a3.566,3.566,0,0,1-1.323-2.225,3.606,3.606,0,0,1,.5-2.5l.536-.873a3.587,3.587,0,0,1,3.28-1.7,3.451,3.451,0,0,1,1.24.313,10.845,10.845,0,0,1,.951.546l6.738,4.09c17.7,10.7,33.2,19.8,46.487,28.256,3.173,1.985,7.416,4.838,11.123,7.381l2.656,1.831,1.206.837a4.756,4.756,0,0,1,1.075.893,2.921,2.921,0,0,1,.645,2.155A2.8,2.8,0,0,1,106.524,451.455Z" transform="matrix(-1, 0, 0, 1, 380, 0)"></path><path class="cls-1 color-fan" d="M104.349,451.435l-.1.063c-1.51.972-3.026.746-3.385-.5L77.23,368.6c-.358-1.251.576-3.052,2.087-4.024l.1-.064c1.511-.972,3.027-.746,3.385.5l23.635,82.395C106.794,448.661,105.86,450.463,104.349,451.435Z" transform="matrix(-1, 0, 0, 1, 380, 0)"></path><path d="M104.332,451.409a13.259,13.259,0,0,0,1.087-1.274,3.159,3.159,0,0,0,.48-3.16c-.908-2.834-2.057-6.6-3.277-10.634-2.438-8.077-5.159-17.259-6.8-22.33-2.888-8.919-5.848-18.528-8.774-28.234-1.45-4.857-2.907-9.734-4.349-14.56q-.537-1.81-1.07-3.611l-.5-1.7a.1.1,0,0,0-.088-.079.14.14,0,0,0-.058.005l-.039.017a1.754,1.754,0,0,0-.211.087,2.043,2.043,0,0,0-.228.129l-.154.1-.117.085a2.876,2.876,0,0,0-.433.381,2.973,2.973,0,0,0-.608.923,1.025,1.025,0,0,0-.1.524l.061.208c4.826,16.337,9.409,32.557,13.419,47.4,2,7.421,3.867,14.5,5.545,21.07q1.238,4.935,2.373,9.464l1.047,4.323a1,1,0,0,0,.944.877,1.925,1.925,0,0,0,.73-.083,3.974,3.974,0,0,0,.834-.376,3.177,3.177,0,0,1-1.5.87,1.7,1.7,0,0,1-.966-.07,1.419,1.419,0,0,1-.732-.742c-.6-1.39-1.206-2.865-1.825-4.41-1.236-3.085-2.494-6.414-3.666-9.667-2.346-6.5-4.351-12.7-5.154-16.033-4.643-19.243-9.347-36.688-13.713-52.089a4.074,4.074,0,0,1,.767-3.288,6.062,6.062,0,0,1,2.415-2.025,3.838,3.838,0,0,1,1.767-.351,2.333,2.333,0,0,1,1.631.778,2.362,2.362,0,0,1,.445.805l.137.448.094.328.376,1.3q1.511,5.175,2.955,10.119Q90,386.81,92.667,395.819c3.57,12.027,6.792,22.962,9.51,33.059,1.036,3.735,2.288,8.879,3.35,13.413.262,1.134.516,2.229.753,3.254l.338,1.482a2.849,2.849,0,0,1,.046,1.478,4.488,4.488,0,0,1-1.17,2.014A4.967,4.967,0,0,1,104.332,451.409Z" transform="matrix(-1, 0, 0, 1, 380, 0)"></path><path class="cls-1 color-fan" d="M105.724,453.215l-1.158.279c-1.565.376-2.576-.649-2.256-2.291l17.307-88.9a5.032,5.032,0,0,1,3.414-3.654l1.158-.278c1.566-.376,2.576.649,2.257,2.29l-17.308,88.9A5.029,5.029,0,0,1,105.724,453.215Z" transform="matrix(-1, 0, 0, 1, 380, 0)"></path><path d="M105.717,453.186a7.113,7.113,0,0,0,1.471-.988,4.958,4.958,0,0,0,1.656-3.193c.516-3.132,1.252-7.263,2.054-11.69,1.6-8.854,3.474-18.894,4.382-24.5,1.6-9.9,3.466-20.493,5.405-31.164.982-5.332,1.968-10.687,2.943-15.985q.371-1.984.737-3.959c.353-1.847.242-1.309.167-1.465-.1,0,.144-.047-.623.142l-.406.1a1.832,1.832,0,0,0-.224.076,2.183,2.183,0,0,0-.477.266,3.184,3.184,0,0,0-1.313,1.972c-3.338,17.85-6.836,35.47-10.2,51.515-1.683,8.022-3.333,15.651-4.912,22.717l-2.312,10.156q-.284,1.211-.559,2.392-.138.591-.275,1.173l-.137.577a2.122,2.122,0,0,0-.058.358,1.073,1.073,0,0,0,.737,1.162,1.667,1.667,0,0,0,.775.013l1.045-.2-.925.38a2.416,2.416,0,0,1-.919.236,1.482,1.482,0,0,1-1.511-1.291,4.3,4.3,0,0,1-.008-1.231q.051-.615.1-1.247c.077-.842.156-1.706.237-2.584.342-3.515.777-7.276,1.254-10.928.952-7.3,2.066-14.166,2.908-17.728,3.387-14.334,6.34-27.834,8.976-40.561q.977-4.775,1.92-9.4.464-2.315.92-4.593a16.928,16.928,0,0,1,.559-2.388,6.039,6.039,0,0,1,1.492-2.148,5.209,5.209,0,0,1,2.312-1.286l1.17-.278a2.992,2.992,0,0,1,1.516.034,2.393,2.393,0,0,1,1.669,2.275,4,4,0,0,1-.046.764l-.106.572-.209,1.089q-.829,4.35-1.631,8.558c-4.244,22.456-7.694,42.021-11.285,59.067-.824,4.055-2.114,9.558-3.289,14.386l-.85,3.462-.391,1.574a4.777,4.777,0,0,1-.57,1.435A4.935,4.935,0,0,1,105.717,453.186Z" transform="matrix(-1, 0, 0, 1, 380, 0)"></path><path class="cls-1 color-fan" d="M104.665,452.706h0c-1.554-.433-1.827-2.337-.609-4.254L150.022,376.1c1.218-1.916,3.465-3.119,5.019-2.687h0c1.555.433,1.827,2.337.61,4.254l-45.967,72.352C108.467,451.935,106.219,453.138,104.665,452.706Z" transform="matrix(-1, 0, 0, 1, 380, 0)"></path><path d="M104.673,452.676a4.515,4.515,0,0,0,1.651-.281,6.174,6.174,0,0,0,2.735-2.176l5.919-9.676c4.527-7.344,9.707-15.654,12.477-20.349,4.888-8.287,10.256-17.1,15.721-25.957l8.222-13.252q1.024-1.646,2.045-3.28c.33-.54.733-1.142.867-1.452a2.116,2.116,0,0,0,.227-.928c0-.057-.037-.072-.065-.095a.087.087,0,0,0-.062,0,1.174,1.174,0,0,0-.349.039,4.107,4.107,0,0,0-2.039,1.372l-13.695,21.573c-4.556,7.117-9.038,14.03-13.353,20.6s-8.461,12.8-12.348,18.543L107,445.592q-.678.98-1.337,1.935c-.418.621-.935,1.3-1.231,1.826a3.09,3.09,0,0,0-.444,1.711,1.181,1.181,0,0,0,.493.922c.054.029.1.066.158.1l.088.037.045.019.022.01.011,0c-.065.246.159-.544-.142.554.3-1.1.081-.305.147-.55h0l-.011,0-.022,0-.044-.006-.091-.011a1.22,1.22,0,0,1-.176-.043,1.1,1.1,0,0,1-.335-.164,1.446,1.446,0,0,1-.511-.67,3.251,3.251,0,0,1,.026-2.1c.561-1.452,1.352-2.877,2.095-4.408,1.528-3.035,3.227-6.252,4.925-9.353,3.394-6.2,6.781-11.94,8.779-14.814,8.045-11.568,15.408-22.565,22.216-32.99l5-7.71q1.222-1.9,2.427-3.775c.192-.3.4-.644.668-.977a7.424,7.424,0,0,1,.837-.907,6.876,6.876,0,0,1,2.084-1.323,4.023,4.023,0,0,1,2.674-.2,2.582,2.582,0,0,1,1.792,2.172,4.481,4.481,0,0,1-.477,2.533c-.386.762-.772,1.28-1.146,1.9l-4.448,7.065c-11.637,18.552-21.546,34.805-30.717,48.741-2.154,3.327-5.236,7.778-7.98,11.669l-1.975,2.786a12.447,12.447,0,0,1-.966,1.264,7.045,7.045,0,0,1-1.1.968A4.232,4.232,0,0,1,104.673,452.676Z" transform="matrix(-1, 0, 0, 1, 380, 0)"></path><rect class="cls-1 color-fan" height="4.422" rx="2.172" transform="matrix(-1, 0, 0, 1, 380, 0) translate(-227.234 167.409) rotate(-36.586)" width="83.378" x="97.9" y="425.184"></rect><path d="M106.162,452.256a2.967,2.967,0,0,0,1.306.611,1.961,1.961,0,0,0,1.235-.232,5.8,5.8,0,0,0,.657-.5q.363-.291.758-.608c2.114-1.682,4.941-3.864,7.981-6.194,6.08-4.659,13.011-9.909,16.788-12.936,6.666-5.343,13.906-10.962,21.243-16.577l11.019-8.386,2.735-2.072,1.362-1.03c.09-.07.276-.205.289-.223a.238.238,0,0,0,.041-.044.3.3,0,0,0,.049-.1.287.287,0,0,0-.029-.218c-.083-.131-.143-.172-.2-.187a.261.261,0,0,0-.2.016.188.188,0,0,0-.04.027,1.118,1.118,0,0,0-.1.077l-.166.125-.663.5c-12.338,9.326-24.665,18.392-36.012,26.519-5.674,4.064-11.1,7.893-16.165,11.4l-7.3,5.013-3.418,2.306-.388.263a1.318,1.318,0,0,0-.248.217,1.416,1.416,0,0,0-.321.579,1.55,1.55,0,0,0,.226,1.33,1.724,1.724,0,0,1-.645-1.3,2.089,2.089,0,0,1,.779-1.634c.973-.959,2.027-1.965,3.132-3,2.209-2.059,4.622-4.213,7-6.265,4.756-4.1,9.373-7.8,11.954-9.536,10.386-6.979,20.008-13.725,28.977-20.188l6.605-4.793,3.214-2.355,1.585-1.167.413-.3a2.831,2.831,0,0,1,.58-.315,2.923,2.923,0,0,1,1.292-.211,3.028,3.028,0,0,1,2.723,3.673,2.919,2.919,0,0,1-.561,1.153,2.715,2.715,0,0,1-.453.456c-.17.14-.266.2-.4.306L171.27,407.6l-5.931,4.446c-15.539,11.69-28.9,22.044-40.95,30.656-2.845,2.07-6.83,4.761-10.357,7.092l-4.75,3.107a2.3,2.3,0,0,1-2.108.2A2.17,2.17,0,0,1,106.162,452.256Z" transform="matrix(-1, 0, 0, 1, 380, 0)"></path><rect class="cls-1 color-fan" height="5.379" rx="2.234" transform="matrix(-1, 0, 0, 1, 380, 0) translate(-88.227 37.899) rotate(-11.789)" width="71.279" x="103.793" y="443.548"></rect><path d="M104.667,453.959a3.636,3.636,0,0,0,.784,1,2.1,2.1,0,0,0,1.018.431,1.924,1.924,0,0,0,.647-.031l.8-.2c2.28-.57,5.306-1.27,8.555-2.008,6.5-1.475,13.881-3.1,17.962-4.138,7.2-1.828,14.965-3.648,22.8-5.422l11.754-2.624,2.915-.642.363-.079a.506.506,0,0,0,.091-.03.314.314,0,0,0,.1-.066.372.372,0,0,0,.113-.213.483.483,0,0,0,0-.114l-.119-.542-.078-.358c-.021-.061-.012-.051-.027-.076a.244.244,0,0,0-.057-.087.32.32,0,0,0-.184-.1c-.12,0,.063-.038-.589.105-13.14,2.88-26.181,5.533-38.111,7.78-5.965,1.124-11.652,2.146-16.934,3.044l-7.6,1.252-1.8.282-.825.13a1.429,1.429,0,0,0-.521.213,1.521,1.521,0,0,0-.642.942,1.669,1.669,0,0,0-.015.619l.12.821-.3-.709a2.221,2.221,0,0,1-.213-.684,2.039,2.039,0,0,1,.459-1.526,2.252,2.252,0,0,1,.734-.586c.311-.145.593-.23.892-.344l1.824-.648c2.487-.863,5.169-1.72,7.789-2.5a115.863,115.863,0,0,1,12.9-3.237c10.761-1.647,20.828-3.423,30.27-5.234l6.966-1.364,3.4-.684c.587-.115,1.064-.227,1.735-.344a3.011,3.011,0,0,1,3.34,2.407l.171.82a3.08,3.08,0,0,1,.033,1.1,3.01,3.01,0,0,1-2.057,2.408c-.4.112-.584.133-.875.2l-6.3,1.351c-16.529,3.578-30.843,6.925-43.508,9.3-3,.592-7.135,1.235-10.777,1.76l-2.614.369-1.19.163a4.633,4.633,0,0,1-1.146.079,2.333,2.333,0,0,1-1.619-.913A2.21,2.21,0,0,1,104.667,453.959Z" transform="matrix(-1, 0, 0, 1, 380, 0)"></path><path class="cls-1 color-fan" d="M168.051,467.435c42.577-80.675-38.795-154.451-110.325-93.017-9.451,8.981-23.76,30.709-23.76,30.709l39.513,23.9S80.086,419,84.45,414.85c33.032-28.369,70.607,5.7,50.946,42.953Z" transform="matrix(-1, 0, 0, 1, 380, 0)"></path><path class="cls-2" d="M168.051,467.435c42.577-80.675-38.795-154.451-110.325-93.017-9.451,8.981-23.76,30.709-23.76,30.709l39.513,23.9S80.086,419,84.45,414.85c33.032-28.369,70.607,5.7,50.946,42.953Z" transform="matrix(-1, 0, 0, 1, 380, 0)"></path><path d="M168.038,467.479c-.946-.034-5.624-1.232-12.492-3.114l-11.754-3.278-7.173-2.037-2.268-.65c-.315,0-.054-.252-.014-.406l.245-.52.5-1.048,1-2.126a9.13,9.13,0,0,0,.386-.93l.33-.867a42.508,42.508,0,0,0,2.971-14.719,35.215,35.215,0,0,0-2.945-14.382,31.578,31.578,0,0,0-7.914-10.609,28.485,28.485,0,0,0-9.287-5.284,29.736,29.736,0,0,0-12.726-1.232,34.243,34.243,0,0,0-12.513,4.139c-.964.584-1.955,1.121-2.9,1.74l-2.789,1.967-2.628,2.152a14.052,14.052,0,0,0-1.13,1.145c-.379.416-.756.843-1.126,1.291-1.488,1.77-2.911,3.683-4.306,5.627q-1.047,1.459-2.065,2.956L76,429.423l-1.809,2.753-39.9-23.733-2.213-1.335-1.1-.671-.551-.336-.138-.084c-.037-.029-.125-.048-.062-.1l.177-.269,2.847-4.3,3.209-4.71q3.122-4.511,6.367-8.9c2.174-2.92,4.375-5.8,6.7-8.6,1.172-1.4,2.348-2.78,3.6-4.126.6-.675,1.282-1.356,1.955-2.032a18.451,18.451,0,0,1,2.084-1.822c2.062-1.633,4.07-3.353,6.184-4.9,2.16-1.475,4.3-2.97,6.478-4.417l6.808-3.895c2.373-1.1,4.736-2.224,7.114-3.3a76.2,76.2,0,0,1,30.433-5.878,65.916,65.916,0,0,1,29.389,7.349,69.621,69.621,0,0,1,22.5,18.554,73.665,73.665,0,0,1,12.552,24.646,79.733,79.733,0,0,1,3.034,25.652,86.719,86.719,0,0,1-4.3,23.321,108.16,108.16,0,0,1-8.562,19.54q.783-2.121,1.649-4.472.441-1.162.9-2.375a23.8,23.8,0,0,0,.841-2.5q.788-2.56,1.624-5.281a27.773,27.773,0,0,0,.72-2.775q.33-1.41.667-2.847a97.351,97.351,0,0,0,2.468-24.073,81.719,81.719,0,0,0-3.857-22.114q-.378-1.2-.74-2.355c-.246-.768-.59-1.481-.866-2.2-.593-1.419-1.095-2.8-1.656-4.051l-1.7-3.458-.736-1.545-.777-1.343c-9.466-17.748-27.23-29.977-45.959-32.464A67.53,67.53,0,0,0,93.8,355.843,86.235,86.235,0,0,0,69.43,367.124q-1.376.925-2.742,1.848l-1.366.921c-.447.316-.861.673-1.293,1.006l-5.1,4.049a10.241,10.241,0,0,0-1.171,1.083l-1.119,1.124c-.723.8-1.467,1.562-2.168,2.374q-2.124,2.415-4.119,4.919c-2.665,3.33-5.2,6.722-7.646,10.122q-1.834,2.55-3.606,5.108-.882,1.283-1.758,2.558-.648.962-1.291,1.92l-.256.387-.127.194c.005.054.116.083.169.127l.8.476q1.1.662,2.2,1.317l5.215,3.128,10.271,6.149L73.067,427.12l1.082-1.619,1.877-2.681c1.266-1.771,2.561-3.508,3.925-5.2.686-.843,1.377-1.68,2.126-2.491.357-.4.768-.817,1.177-1.225s.845-.7,1.266-1.059c.858-.671,1.676-1.4,2.563-2.015l2.658-1.826a42.128,42.128,0,0,1,11.658-5.139,33.505,33.505,0,0,1,12.493-.906,31.276,31.276,0,0,1,11.654,3.815,32.037,32.037,0,0,1,9.117,7.723,35.031,35.031,0,0,1,7.632,21.238,41,41,0,0,1-2.847,16.026q-.425,1.016-.853,2.04l-.428,1.013-.333.63-.693,1.308-.179.338c.04.065.19.08.28.122l.639.219,1.409.479,2.049.67,4.028,1.321C155.949,463.383,165.055,466.452,168.038,467.479Z" transform="matrix(-1, 0, 0, 1, 380, 0)"></path><g class="cls-3" transform="matrix(-1, 0, 0, 1, 380, 0)"><path d="M132.613,408.316c-.584-.811,2.873-5.742,3.75-7.958a78.136,78.136,0,0,1,6.261-11.52c3.892-6.33,8.687-11.846,12.789-14.888.806,3.192-.141,7.624-1.348,8.6-9.719,7.861-12.5,17.011-17.21,22.4A19.43,19.43,0,0,1,132.613,408.316Zm8.4-15.6h0"></path></g><g class="cls-3" transform="matrix(-1, 0, 0, 1, 380, 0)"><path d="M143.488,425.125c-.3-.936,3.884-3.753,5.183-5.3a55.262,55.262,0,0,1,8.218-7.325c4.9-3.841,10.379-6.611,14.65-7.543-.1,3.071-2.006,6.489-3.283,6.832-10.279,2.768-14.931,9.481-20.3,12.177A14.388,14.388,0,0,1,143.488,425.125Zm11.057-9.954h0"></path></g><g class="cls-3" transform="matrix(-1, 0, 0, 1, 380, 0)"><path d="M144.761,444.285c0-.471,1.1-1,2.417-1.424,1.315-.446,2.84-.805,3.662-1.187,2.916-1.373,6.412-1.9,9.448-2.438a54.9,54.9,0,0,1,7.631-.776,44.147,44.147,0,0,1,6.472.186,8.206,8.206,0,0,1-2.133,3.743,3.781,3.781,0,0,1-2.589,1.417,35.591,35.591,0,0,0-12.086-.174c-3.4.518-6.245,1.368-8.815,1.413A14.06,14.06,0,0,1,144.761,444.285Z"></path></g><g class="cls-3" transform="matrix(-1, 0, 0, 1, 380, 0)"><path d="M113.786,399.27c-.881-.489.169-6.615.07-9.068A72.1,72.1,0,0,1,115,376.692c1.135-7.618,3.62-14.794,6.4-19.25,1.876,2.762,2.6,7.324,1.838,8.715-6.158,11.255-5,21.089-7.027,28.109A21.023,21.023,0,0,1,113.786,399.27Z"></path></g><g class="cls-3" transform="matrix(-1, 0, 0, 1, 380, 0)"><path d="M91.11,404.791c-1,.118-3.711-5.454-5.217-7.383A71.248,71.248,0,0,1,78.976,385.8c-3.5-6.835-5.635-14.1-5.954-19.326,3.128,1.156,6.361,4.435,6.546,6A45.617,45.617,0,0,0,84.522,388.1c2.159,4.271,4.415,7.789,5.645,11.234A20.9,20.9,0,0,1,91.11,404.791Z"></path></g><rect class="cls-1 color-fan" height="64.799" rx="2.69" transform="matrix(-1, 0, 0, 1, 380, 0) translate(-344.76 469.586) rotate(-74.67)" width="5.379" x="132.751" y="428.389"></rect><path d="M104.224,452.231a6.914,6.914,0,0,0,.158,1.165,2.484,2.484,0,0,0,1.5,1.644l7.691,1.908c5.865,1.486,12.509,3.221,16.24,4.057,6.587,1.476,13.617,3.2,20.69,5l10.59,2.73,2.622.685.157.041.054.008a.753.753,0,0,0,.309-.007.8.8,0,0,0,.219-1.48l-8.381-2.255-8.663-2.384c-5.707-1.6-11.258-3.2-16.541-4.768s-10.3-3.113-14.935-4.592l-6.656-2.165-1.566-.523-.384-.13c-.12-.035-.187-.064-.285-.083a1.839,1.839,0,0,0-.559-.042,1.982,1.982,0,0,0-1.057.406,2.017,2.017,0,0,0-.406.414,1.969,1.969,0,0,0-.155.247.818.818,0,0,0-.065.133l-.029.067-.015.034-.007.017,0,.009c-.246-.064.546.156-.553-.142,1.1.3.3.08.549.146v-.064l0-.07a.845.845,0,0,1,.012-.143,1.815,1.815,0,0,1,.06-.293,2.059,2.059,0,0,1,.266-.589,2.432,2.432,0,0,1,1.151-.933,3.2,3.2,0,0,1,1.713-.127l1.749.209c2.375.3,4.905.693,7.352,1.125a95.872,95.872,0,0,1,11.78,2.677c9.365,3.175,18.229,5.935,26.606,8.393l6.193,1.79,3.028.855.382.108a3.627,3.627,0,0,1,.469.175,3.274,3.274,0,0,1,.84.537,3.46,3.46,0,0,1-1.688,6.033,3.288,3.288,0,0,1-.96.026,3.416,3.416,0,0,1-.471-.084l-.371-.1-5.655-1.515c-14.843-3.938-27.806-7.127-39.016-10.478-2.671-.767-6.273-1.977-9.428-3.081l-2.261-.8a5.936,5.936,0,0,1-1.063-.442,2.847,2.847,0,0,1-.8-.721,2.813,2.813,0,0,1-.579-1.591A2.76,2.76,0,0,1,104.224,452.231Z" transform="matrix(-1, 0, 0, 1, 380, 0)"></path><path class="cls-4 color-body" d="M122.046,461.3c-4.507,7.455-16.714,8.327-27.266,1.948s-14.315-16.01-12.035-24.47c1.984-7.366,8.454-14.554,19-8.175S126.553,453.846,122.046,461.3Z" transform="matrix(-1, 0, 0, 1, 380, 0)" style="fill:#ffffff;--backup-fill:#ffffff"></path><path d="M121.994,461.27c-.166-.391.31-1.553.111-3.323a17.525,17.525,0,0,0-2.275-6.371,43.923,43.923,0,0,0-9.384-11.312,76.6,76.6,0,0,0-7.345-5.409A27.7,27.7,0,0,0,99.2,432.7a12.793,12.793,0,0,0-3.776-1.138,6.722,6.722,0,0,0-5.97,2.231,13.979,13.979,0,0,0-3.149,6.789,16.524,16.524,0,0,0,2.994,12.484,25.268,25.268,0,0,0,4.641,4.973c.877.742,1.826,1.4,2.766,2.062.964.595,1.915,1.2,2.911,1.693a24.77,24.77,0,0,0,12.027,2.974,12.745,12.745,0,0,0,9.432-4.058,8.878,8.878,0,0,1-2.54,5.545,14.951,14.951,0,0,1-6.576,3.92,19.813,19.813,0,0,1-7.263.792,20.673,20.673,0,0,1-2.963-.454,16.658,16.658,0,0,1-2.18-.744,42.4,42.4,0,0,1-6.353-3.826,43.394,43.394,0,0,1-5.248-4.651,27.536,27.536,0,0,1-6.658-11.482A22.319,22.319,0,0,1,80.5,443.5a21.359,21.359,0,0,1,1.044-6.042,20.3,20.3,0,0,1,2.616-5.344,14.045,14.045,0,0,1,4.322-4.108,11.071,11.071,0,0,1,5.746-1.573,14.726,14.726,0,0,1,5.517,1.087,35.129,35.129,0,0,1,8.579,5.2A51.206,51.206,0,0,1,120.2,445.8a22.9,22.9,0,0,1,3.308,8.908,10.435,10.435,0,0,1-.274,4.357A5.9,5.9,0,0,1,121.994,461.27Z" transform="matrix(-1, 0, 0, 1, 380, 0)"></path></svg>