<svg xmlns="http://www.w3.org/2000/svg" id="Sketch" viewBox="0 0 380 600"><defs><style>.cls-1{fill:#172e35;}.cls-2{fill:none;}.cls-3{opacity:0.5;}.cls-4{fill:#fffffe;}.cls-5{fill:#ffffff;}</style></defs><path class="cls-1" d="M247.667,483.268a14.655,14.655,0,0,0,12.125-22.883l19.216-24.121,26.947-6.491,22.263-60.2-53.734,31.675-4.13,29.307-18.588,23.983a14.655,14.655,0,1,0-4.1,28.725Zm0-20.383a5.73,5.73,0,1,1-5.73,5.729A5.729,5.729,0,0,1,247.667,462.885Z"></path><path class="cls-2" d="M247.667,483.268a14.655,14.655,0,0,0,12.125-22.883l19.216-24.121,26.947-6.491,22.263-60.2-53.734,31.675-4.13,29.307-18.588,23.983a14.655,14.655,0,1,0-4.1,28.725Zm0-20.383a5.73,5.73,0,1,1-5.73,5.729A5.729,5.729,0,0,1,247.667,462.885Z"></path><path d="M247.667,462.931c-.151.476-1.445.694-2.5,1.581a4.706,4.706,0,0,0-1.27,1.54,2.837,2.837,0,0,0-.332,1.52,4.521,4.521,0,0,0,1.688,3.23,3.229,3.229,0,0,0,2.888.6,3.568,3.568,0,0,0,2.527-3.5,4.78,4.78,0,0,0-3-4.167,3.631,3.631,0,0,1,1.905-1.417,4.843,4.843,0,0,1,2.762-.027,4.661,4.661,0,0,1,3.386,3.138,8.715,8.715,0,0,1-3.741,8.778,7.744,7.744,0,0,1-7.528.552,7.228,7.228,0,0,1-4.071-5.489,6.372,6.372,0,0,1,2.135-5.766,4.687,4.687,0,0,1,3.028-1.071A4.612,4.612,0,0,1,247.667,462.931Z"></path><path d="M247.667,483.314a11.142,11.142,0,0,1-5.716-.692,14.954,14.954,0,0,1-4.8-2.926,14.776,14.776,0,0,1-3.939-5.748,15.664,15.664,0,0,1-.946-3.793,15.994,15.994,0,0,1,.1-4.11,16.947,16.947,0,0,1,.452-2.075,17.269,17.269,0,0,1,.777-2.011,14.882,14.882,0,0,1,2.369-3.679,15.631,15.631,0,0,1,7.394-4.776,16.553,16.553,0,0,1,4.373-.658,15.882,15.882,0,0,1,2.184.135c.426.058.538.078.762.12q.3.058.593.136a4.233,4.233,0,0,0,.514-.636l.667-.889,1.586-2.1,2.989-3.98L262,438.9l6.64-9.066.037-.411.1-.886q.1-.887.209-1.779.213-1.785.428-3.589.436-3.609.883-7.291,1-7.906,2.026-16.069l27.7-16.72,13.346-8,19.858-11.828.532-.316c-4.72,12.86-9.422,25.667-14.047,38.267L308.109,432.2l-15.231,3.526-6.7,1.524-3.3.747-1.641.369-.409.092-.2.046-.044.007-.129.018-9.587,11.582-4.873,5.852-2.386,2.854-1.062,1.261a4.582,4.582,0,0,0-.427.493c.061.109.121.222.179.341l.275.6a16.218,16.218,0,0,1,1.425,6.913,15.772,15.772,0,0,1-16.327,15.7,16.125,16.125,0,0,0,6.568-2.428,17.633,17.633,0,0,0,1.51-1.1,17.038,17.038,0,0,0,1.362-1.327,14.274,14.274,0,0,0,3.51-6.811,14.97,14.97,0,0,0,.23-3.876,13.3,13.3,0,0,0-.866-3.737,13.126,13.126,0,0,0-.816-1.708c-.089-.16-.485-.841-.816-1.31l-1.074-1.54c.335-.513.752-1.033,1.132-1.559l1.088-1.473,1.337-1.881,2.64-3.672c1.738-2.4,3.427-4.693,5.017-6.813s3.08-4.068,4.424-5.776q1.017-1.273,1.9-2.375l2.013-2.436c.181-.218.362-.435.526-.634l27.062-5.625.141-.3.074-.16.2-.5.786-1.977q.782-1.974,1.558-3.932,1.543-3.921,3.061-7.779,3-7.73,5.9-15.21l9.855-25.937-11.395,6.7-13.662,8.112-25.148,15.063q-2.025,15.171-3.882,29.092-5,6.49-9.761,12.672l-4.608,5.928-2.271,2.9-1.177,1.5c-.582.725-1.144,1.5-1.733,2.174l-1.733-.476c-.29-.074-.578-.131-.829-.175l-.511-.079a10.867,10.867,0,0,0-2.014-.1,12.727,12.727,0,0,0-3.926.668,13.657,13.657,0,0,0-7.681,6.518,13.9,13.9,0,0,0-.776,11.184,14.2,14.2,0,0,0,6.667,7.646A15.071,15.071,0,0,0,247.667,483.314Z"></path><g class="cls-3"><path class="cls-4" d="M280.117,428.949c-.146-.811,5.987-8.231,8.064-11.324,3.668-5.462,8.319-11.354,12.508-16.689A209.2,209.2,0,0,1,321.557,377.7c-.922,3.724-4.271,9.628-6.008,11.282-13.988,13.319-21.734,25.8-29.362,34.233A66.021,66.021,0,0,1,280.117,428.949Zm16.854-22.571h0"></path></g><path class="cls-5 color-body" d="M248.447,466.5c5.634,6.644,15.892,8.154,25.3.178s11.876-19.487,8.28-27.477c-3.13-6.956-9.4-11.237-20.063-5.049C248.269,442.1,242.812,459.858,248.447,466.5Z" style="fill:#ffffff;--backup-fill:#ffffff"></path><path d="M248.4,466.541c-.364.016-1.519-.9-2.322-2.832a15.794,15.794,0,0,1-.81-7.5,30.2,30.2,0,0,1,2.248-8.339,49.7,49.7,0,0,1,3.292-6.3,31.24,31.24,0,0,1,6.5-7.641,28.312,28.312,0,0,1,4.325-3.064,25.121,25.121,0,0,1,5.065-2.319,17.054,17.054,0,0,1,6.079-.76,13.146,13.146,0,0,1,6.22,2.05,16.344,16.344,0,0,1,4.466,4.316,22.3,22.3,0,0,1,2.708,5.059,22.69,22.69,0,0,1,1.322,9.656,26.894,26.894,0,0,1-2.306,9.054,29.651,29.651,0,0,1-4.855,7.5A32.67,32.67,0,0,1,273.917,471a24.258,24.258,0,0,1-7.593,3.3,18.989,18.989,0,0,1-7.864.229,16.662,16.662,0,0,1-6.586-2.777,16.377,16.377,0,0,1-4.3-4.511,26.706,26.706,0,0,0,5.8,1.875,17.248,17.248,0,0,0,5.97.068c3.721-.61,6.527-2.375,8.266-3a19.456,19.456,0,0,0,5.017-2.718,21.727,21.727,0,0,0,4.218-3.917,24.833,24.833,0,0,0,1.7-2.272,24.493,24.493,0,0,0,1.355-2.453,19.661,19.661,0,0,0,1.7-5.212,18.8,18.8,0,0,0,.2-5.3,16.316,16.316,0,0,0-1.395-4.9c-1.423-3.087-3.753-5.54-6.56-6.256a9.633,9.633,0,0,0-4.3-.112c-.36.065-.718.18-1.074.264a6.573,6.573,0,0,0-1.058.333l-1.041.385-1.013.482a28.579,28.579,0,0,0-7.13,4.979,37.043,37.043,0,0,0-8.717,13,31.607,31.607,0,0,0-2.147,8,12.129,12.129,0,0,0,.2,3.81A9.4,9.4,0,0,0,248.4,466.541Z"></path></svg>