<svg xmlns="http://www.w3.org/2000/svg" id="new" viewBox="0 0 380 600"><defs transform="matrix(-1, 0, 0, 1, 380, 0)"><style>.cls-1{fill:#00a368;}.cls-2{fill:#ff4500;}.cls-3{fill:#ead49d;}.cls-4{fill:#ffffff;}</style></defs><path class="cls-1" d="M51,346.77S56.62,359,66.62,367.31s25.8,19.61,40.32,24.72a3.25,3.25,0,0,0,1.87-3.69s-21-6.64-36.57-21.63-18.43-23.18-18.43-23.18Z" style="" transform="matrix(-1, 0, 0, 1, 380, 0)" /><path d="M51,346.75a5.12,5.12,0,0,1,.78-1.22c.27-.36.59-.77,1-1.24l.61-.77.33-.41c.12-.14.25-.37.32-.22a27.42,27.42,0,0,0,1.68,3.26c.56.93,1.21,1.9,1.91,2.91,1.41,2,3.06,4.09,4.77,6.09A108,108,0,0,0,71.89,365a96.39,96.39,0,0,0,17.39,12.52c3.19,1.84,6.5,3.5,9.85,5,1.67.76,3.36,1.47,5,2.14.85.33,1.69.67,2.53,1l1.26.45c.74.27,1.66.55,2.49.82a13.52,13.52,0,0,1,.35,2.22,4.39,4.39,0,0,1-.52,2.23,4.94,4.94,0,0,1-1.43,1.74,6.25,6.25,0,0,1-.95.63l-.5.24c-.09,0-.17.11-.26.08l-.27,0-.58-.12-.6-.22-.82-.31-1.26-.46-2.47-1c-1.63-.71-3.24-1.44-4.81-2.23-3.14-1.57-6.18-3.26-9.09-5.06A159.35,159.35,0,0,1,71,373.11c-1.24-1-2.45-2-3.63-3l-1.74-1.51L64,367a54.73,54.73,0,0,1-5.81-6.66A64.78,64.78,0,0,1,50.49,347a134.3,134.3,0,0,0,10.06,12c1.92,2,3.87,3.81,5.61,5.31s3.34,2.71,4.37,3.63a144.74,144.74,0,0,0,20.31,15.25,101.74,101.74,0,0,0,10.35,5.6c.86.42,1.75.76,2.61,1.14.43.19.86.37,1.3.53l1.24.48.4.15a.17.17,0,0,0,.2,0l.18-.11a2.32,2.32,0,0,0,.63-.62,1.74,1.74,0,0,0,.3-.79,1.48,1.48,0,0,0,0-.42c0-.12,0-.34-.17-.34l-1.5-.52c-.65-.25-1.3-.48-1.94-.74-1.29-.5-2.55-1-3.79-1.56-2.48-1.06-4.86-2.21-7.18-3.38A107.32,107.32,0,0,1,80.62,375,81.56,81.56,0,0,1,70,366.09a107.83,107.83,0,0,1-8.56-9.34,58,58,0,0,1-4.68-6.58c-.73-1.2-1.39-2.39-1.92-3.49a7.44,7.44,0,0,1-.32-.7c-.1-.22-.19-.44-.27-.64-.17-.43-.33-.86-.46-1.27,0-.25-.15,0-.23,0l-.26.27-.48.5-.82.84Z" transform="matrix(-1, 0, 0, 1, 380, 0)" /><path class="cls-2" d="M34.31,337.11c-2-2.09-2.3-10.22,0-16.35,0,0,11.35,2.39,13.87,11.64C48.17,332.4,46.77,350.43,34.31,337.11Z" style="" transform="matrix(-1, 0, 0, 1, 380, 0)" /><path d="M34.34,337.09c.41-.08,2,1.54,4.07,2.84a7.73,7.73,0,0,0,3.29,1.27,2.91,2.91,0,0,0,2.31-.82A8.12,8.12,0,0,0,45.73,337a23.67,23.67,0,0,0,.74-4.19.63.63,0,0,0,0-.24s0-.05-.08-.17l-.37-.95c-.15-.3-.32-.59-.48-.88l-.24-.44-.29-.41a13.15,13.15,0,0,0-2.71-2.91,23.21,23.21,0,0,0-6.06-3.42l-.41-.15-.19-.07h0v0s0,0-.07,0,0,0,0,0a1.66,1.66,0,0,0-.09.28c0,.13-.08.27-.12.4-.15.53-.3,1.07-.41,1.61a33.28,33.28,0,0,0-.83,6.21,19.56,19.56,0,0,0,.08,2.79,6,6,0,0,0,.6,2.26,3.94,3.94,0,0,1-2.07-1.9,12.51,12.51,0,0,1-1.32-3.15,12.1,12.1,0,0,1-.33-5.45c.28-1.09.61-2.14,1-3.16.08-.26.18-.51.28-.76.14-.41.29-.83.44-1.2l.48-1.09.23-.53c.05-.06.05-.23.14-.21l.3.09c.78.22,1.52.44,2.24.71l.53.2.35.15c.24.1.47.2.69.31.9.42,1.77.86,2.6,1.35a23.4,23.4,0,0,1,4.49,3.34,19.93,19.93,0,0,1,1.81,2A15.22,15.22,0,0,1,48,329.64a8.88,8.88,0,0,1,.55,1.17l.46,1.26c.15.25,0,.55,0,.82l-.06.63c0,.4-.11.79-.17,1.19a17.73,17.73,0,0,1-1.32,4.49,6.88,6.88,0,0,1-3.27,3.51,5.1,5.1,0,0,1-2.45.37,6.52,6.52,0,0,1-2.13-.62,10.64,10.64,0,0,1-3.46-2.83A20.92,20.92,0,0,1,34.34,337.09Z" transform="matrix(-1, 0, 0, 1, 380, 0)" /><path class="cls-2" d="M26.46,330.86s2.84,12.51,11.26,18,14.13,4,19.17.23c5.72-4.22,4.92-13,.26-19.45s-15-11.53-15-11.53-6.84,11.33-2.61,19.67C42.24,343.1,36.65,330.37,26.46,330.86Z" style="" transform="matrix(-1, 0, 0, 1, 380, 0)" /><path d="M26.45,330.81c.23-.23,1.58-.53,3.58-.2a13.1,13.1,0,0,1,3.27,1.05l.83.42.62.35a12.83,12.83,0,0,1,1.11.77A12.43,12.43,0,0,1,37.71,335l.37.46.17.22.08.11.05.06,0-.06c-.24-.45-.47-.87-.65-1.3a7.45,7.45,0,0,1-.46-1.23,6.55,6.55,0,0,1-.28-1.12,7.41,7.41,0,0,1-.15-.95l-.06-.41v-.54a17.33,17.33,0,0,1,.18-3.13,25.44,25.44,0,0,1,.69-3.41,30.78,30.78,0,0,1,1.1-3.37c0-.11.15-.37.24-.58l.3-.66a14.56,14.56,0,0,1,.63-1.32c.44-.87.91-1.71,1.4-2.57,1.57.73,3.2,1.5,4.84,2.41,1,.51,1.92,1.06,2.86,1.63A49,49,0,0,1,54.49,323a29,29,0,0,1,4.92,5,23.54,23.54,0,0,1,3.33,6.23,17.84,17.84,0,0,1,.79,9.63,12.51,12.51,0,0,1-2.08,4.77,7.41,7.41,0,0,1-.82,1,9.28,9.28,0,0,1-.93.95l-1,.83-.93.65a17.3,17.3,0,0,1-8.72,3.13,16.21,16.21,0,0,1-4.6-.43,20.15,20.15,0,0,1-4-1.48,27.23,27.23,0,0,1-3.47-2,18.9,18.9,0,0,1-1.6-1.19,13.57,13.57,0,0,1-1.48-1.33,25.52,25.52,0,0,1-4.37-5.92,35.42,35.42,0,0,1-3.87-11.79A93.45,93.45,0,0,0,33.1,341a32.71,32.71,0,0,0,4.14,3.83c.33.24.63.49.92.7s.59.38.85.57c.5.38,1.08.69,1.46,1a19.61,19.61,0,0,0,3.29,2,12.09,12.09,0,0,0,3.44,1.1,11,11,0,0,0,6.9-1.27c.54-.29,1.08-.59,1.61-.94a8.73,8.73,0,0,0,.71-.51,4.69,4.69,0,0,0,.64-.54,7.62,7.62,0,0,0,1.86-2.75,9.42,9.42,0,0,0,.72-3.33,13.33,13.33,0,0,0-.26-3.45,18.11,18.11,0,0,0-2.62-6.3,22.72,22.72,0,0,0-4.49-4.89A44.13,44.13,0,0,0,47,322.42c-.91-.56-1.82-1.1-2.73-1.6-.53-.28-1-.51-1.47-.72a10.34,10.34,0,0,0-.7,1.47c-.35.86-.72,1.84-1,2.76a25.38,25.38,0,0,0-1.16,5.56l-.07,1.8c.15.85.34,1.77.5,2.64s.35,1.82.53,2.72l.13.67.06.34a.59.59,0,0,1,0,.14l-.12.51-.11.51c0,.18,0,.22,0,.34s0,.44,0,.57.12.26.09.29a1.5,1.5,0,0,0-.38-.26c-.21-.1-.44-.11-.92-.33a4.29,4.29,0,0,1-1-.71,16.91,16.91,0,0,1-1.44-1.52,20.53,20.53,0,0,0-2.8-3.06c-.41-.36-.88-.72-1.22-1s-.6-.44-.91-.64a13.8,13.8,0,0,0-3.49-1.65A14,14,0,0,0,26.45,330.81Z" transform="matrix(-1, 0, 0, 1, 380, 0)" /><path class="cls-2" d="M78.59,309.72c-.73-3.35-8.86-9.31-16.88-11.3,0,0-5.83,12.72,1.89,21.57C63.6,320,83.23,331.06,78.59,309.72Z" style="" transform="matrix(-1, 0, 0, 1, 380, 0)" /><path d="M78.62,309.71c.31.22,1.22,2.84,1.28,6.12a9.92,9.92,0,0,1-1.08,5,6.3,6.3,0,0,1-1.69,1.85,8,8,0,0,1-.95.57c-.31.12-.6.27-.88.35a11.85,11.85,0,0,1-5.94.16,26,26,0,0,1-5.66-1.85c-.26-.12-.37-.16-.84-.4s-.65-.58-.87-.82l-1-1.23a14.26,14.26,0,0,1-.85-1.33,8.43,8.43,0,0,1-.74-1.39,18.92,18.92,0,0,1-1.64-5.91,23.25,23.25,0,0,1,0-5.14,29.35,29.35,0,0,1,1-4.9c.12-.39.23-.79.38-1.17.23-.71.52-1.41.81-2.07l.44-1,.11-.25.06-.12s.08,0,.12,0l.53.14,2.09.55a8.34,8.34,0,0,1,.92.3l.56.2c.37.13.73.27,1.08.43.72.29,1.41.61,2.08.95a32.7,32.7,0,0,1,7,4.73,20.16,20.16,0,0,1,2.62,2.8,7.41,7.41,0,0,1,1.56,3.3,8.3,8.3,0,0,0-2.69-2.28c-1-.65-2.2-1.24-3.3-1.81-2.24-1.1-4.34-2-5.35-2.69A30.06,30.06,0,0,0,64.67,301c-.5-.27-1.12-.51-1.56-.72-.19-.11-.38-.21-.62-.32a2.25,2.25,0,0,0-.35.56,3.07,3.07,0,0,0-.14.32l-.15.4c-.09.27-.2.53-.28.8a23.53,23.53,0,0,0-.82,3.23c-.77,4.3-.23,8.63,1.81,11.84a7.22,7.22,0,0,0,.78,1.17l.8,1a10.59,10.59,0,0,0,1,.51c.42.19.84.37,1.26.53a21.49,21.49,0,0,0,5,1.34,7.41,7.41,0,0,0,4.28-.48A4.63,4.63,0,0,0,78,318.24a20.22,20.22,0,0,0,.68-4.8C78.7,311.73,78.62,310.21,78.62,309.71Z" transform="matrix(-1, 0, 0, 1, 380, 0)" /><path class="cls-2" d="M77.88,297.73S87.92,310,87.4,322s-5.44,15.68-13,18c-8.53,2.67-17-4.18-20.27-13.17s-.93-22.6-.93-22.6,18.79-1.92,25.22,8.92C76.39,307.24,76.77,303.67,77.88,297.73Z" style="" transform="matrix(-1, 0, 0, 1, 380, 0)" /><path d="M77.93,297.74c.25.42-.11,2.8-.21,6,0,.41,0,.81,0,1.27s.07,1.14.13,1.75a28.74,28.74,0,0,0,1,4.43c.49,1.7,1.1,3.55,1.68,5.29l.44,1.27.06.16c0,.06,0,.11,0,.09h0l-.06,0c-.13-.21,0,.66.13,1.26l-1.8-2.57-.9-1.26-.79-1.08c-1.16-1.59-1.9-2.51-2.75-3.56l-1-.95-.26-.23-.25-.16-.5-.33a10.91,10.91,0,0,0-1-.58l-.68-.34a22.15,22.15,0,0,0-5-1.56A43.4,43.4,0,0,0,60,306.1c-1.07,0-2.17,0-3.27,0l-.82,0-.28,0a4.57,4.57,0,0,0-.46.1v.7l0,.43-.06,1c-.09,1.28-.12,2.57-.14,3.87a54.26,54.26,0,0,0,.43,7.68,25.11,25.11,0,0,0,1.87,7,20.46,20.46,0,0,0,3.8,5.79,18.42,18.42,0,0,0,3.14,2.69,14.41,14.41,0,0,0,3.53,1.68,10.61,10.61,0,0,0,3.65.42l.9-.1c.29-.05.59-.14.88-.21l.45-.1.52-.17c.34-.11.7-.21,1-.34a13.93,13.93,0,0,0,6.4-4.06,15.5,15.5,0,0,0,2.9-6.88c.1-.67.22-1.32.31-2s.16-1.35.2-2l.06-1.89c0-.63-.07-1.26-.11-1.88a33.85,33.85,0,0,0-1.67-7.32,59,59,0,0,0-6-12.34,32.81,32.81,0,0,1,9.89,11.25A28.62,28.62,0,0,1,90,317c.12.61.2,1.2.29,1.76l.11.83,0,.8a13.89,13.89,0,0,1-.11,2.63,37.1,37.1,0,0,1-1.22,5.66A20.32,20.32,0,0,1,86.57,334a15.37,15.37,0,0,1-4.09,4.18,20.88,20.88,0,0,1-4.89,2.44c-.83.29-1.65.55-2.46.77-.4.13-.88.2-1.31.3a7.62,7.62,0,0,1-1.34.21,14.17,14.17,0,0,1-5.25-.43,19,19,0,0,1-8.41-5.09,25.86,25.86,0,0,1-5.16-7.69,30.22,30.22,0,0,1-2.19-8.53,59.51,59.51,0,0,1-.35-8.27,67.4,67.4,0,0,1,.81-9q1.24-.15,2.55-.24l1.3-.06.89,0q1.78,0,3.51.09a38.42,38.42,0,0,1,6.75,1,25.46,25.46,0,0,1,6.22,2.4l.25.14.15.09.29.19c.18.14.38.28.56.44A8.15,8.15,0,0,1,75.48,308l.07.1c.12.16.26.33.39.53l.21.32.1.18,0,.07v0a7.94,7.94,0,0,1-.19-1,12.11,12.11,0,0,1,.08-3.07,29.19,29.19,0,0,1,.93-4.64C77.46,299.17,77.77,298.22,77.93,297.74Z" transform="matrix(-1, 0, 0, 1, 380, 0)" /><path class="cls-1" d="M36.64,377.12c-7.66-.39-23.29-.2-20.12,4.06s12.29,11.26,26.82,13.08c12.87,1.61,16.09-4.21,16.09-4.21S45.79,377.58,36.64,377.12Z" style="" transform="matrix(-1, 0, 0, 1, 380, 0)" /><path d="M36.65,377.09a2.21,2.21,0,0,1,.9-.1l.85,0c.32,0,.67.12,1.05.19a22.93,22.93,0,0,1,5.49,1.9,78.61,78.61,0,0,1,10.38,6.26c.79.53,1.59,1.09,2.39,1.68l.6.45.31.24.47.37,2,1.66,0,.22-.14.24-.28.48a7.08,7.08,0,0,1-.67.94,6.09,6.09,0,0,1-.87.89l-.47.42-.35.27a13,13,0,0,1-3,1.66,20.83,20.83,0,0,1-6.61,1.35,34.78,34.78,0,0,1-6.56-.31l-1.6-.21-1.57-.29c-1-.17-2.07-.43-3.09-.67a44.44,44.44,0,0,1-12.44-5.18,35.25,35.25,0,0,1-5.29-4,24.72,24.72,0,0,1-2.28-2.4l-.68-.92a4.12,4.12,0,0,1-.6-1.11,2.85,2.85,0,0,1,.29-2.51,4.34,4.34,0,0,1,2-1.62,8.57,8.57,0,0,1,1.7-.56,22.81,22.81,0,0,1,3-.49,53.07,53.07,0,0,1,5.56-.19,76.72,76.72,0,0,1,9.61.77c-2.6.7-6.34,1.33-9.8,1.95s-6.61,1.27-8,1.61c-.65.19-.54.1-.67.12a.21.21,0,0,0-.17.22,11.73,11.73,0,0,0,1.75,2.26,30,30,0,0,0,5.45,4.46,40.24,40.24,0,0,0,12.27,5.23,37.89,37.89,0,0,0,12,1.21,17.66,17.66,0,0,0,5.31-1.28A12.13,12.13,0,0,0,57.08,391a5.08,5.08,0,0,0,.52-.47c.07-.09.14-.16.2-.25l.09-.13a.21.21,0,0,0,0-.07l-.07-.05-2.1-1.71c-1-.75-1.89-1.48-2.83-2.17q-2.81-2.08-5.5-3.86a68.14,68.14,0,0,0-6-3.53c-.53-.24-1-.53-1.53-.71l-1.39-.52C37.65,377.33,37,377.18,36.65,377.09Z" transform="matrix(-1, 0, 0, 1, 380, 0)" /><path class="cls-1" d="M60.21,394.06s.43-5.53,1.28-11.47c1-6.94-7.2-21-4.12-18.78s15.92,13,19.54,21.18,2.4,11.72.38,19.45Z" style="" transform="matrix(-1, 0, 0, 1, 380, 0)" /><path d="M60.23,394c.51-.06,3.91,1.84,7.82,4.08L74,401.53l1.39.79.76.4.33.17.14.07s.11.08.11,0l.11-.66.07-.52c0-.17,0-.29.11-.66.12-.62.24-1.24.35-1.87a29.65,29.65,0,0,0,.43-3.72,17.81,17.81,0,0,0-1.34-7.27,25.81,25.81,0,0,0-3.68-6.67,57.5,57.5,0,0,0-5.06-5.82c-1.55-1.59-3.15-3.13-4.78-4.62l-2.14-1.92-.31-.28h0v0a.28.28,0,0,0-.08-.09,0,0,0,0,0,0,0s0,0,0,.06V369a.17.17,0,0,0,0,.07l.08.23c.34,1,.68,2,1,3a40.45,40.45,0,0,1,1.42,6.07,17.22,17.22,0,0,1,.15,3.14A10.57,10.57,0,0,1,62.8,383c-.09.45-.18.89-.26,1.34l-1.76,9.73a49.27,49.27,0,0,1-.88-10.4l0-1.38a10.36,10.36,0,0,0-.08-1.1,18.51,18.51,0,0,0-.41-2.17c-.33-1.39-.69-2.6-.86-3.46-.36-1.73-.83-3.45-1.34-5.14-.22-.67-.45-1.34-.67-2s-.47-1.41-.66-2.07a7.34,7.34,0,0,1-.35-1.7,4.48,4.48,0,0,1,.09-1.11,2.21,2.21,0,0,1,.34-.87.57.57,0,0,1,.54-.14c.14,0,.3.09.45.13a9.23,9.23,0,0,1,1.06.45,2.56,2.56,0,0,1,.65.43l.71.53c2,1.62,3.64,3.17,4.68,4.17,2.38,2.25,4.61,4.5,6.68,6.79a52.45,52.45,0,0,1,5.54,7.09A29.08,29.08,0,0,1,79.65,390a19,19,0,0,1,.26,8.1c-.22,1.27-.49,2.5-.79,3.68-.22.84-.43,1.69-.65,2.52-.11.45-.23.89-.35,1.34L78,406l-.05.17s0,0,0,0l-.07,0-.58-.35-4-2.44-2.8-1.79C67,399.32,61.33,394.92,60.23,394Z" transform="matrix(-1, 0, 0, 1, 380, 0)" /><path class="cls-1" d="M47.84,377.08s5.47,14.62,16.43,24.81,28.43,24,45,30.4c0,0,3.05-1.26,2.52-4.34,0,0-24-8.42-40.86-26.63s-19.49-28-19.49-28Z" style="" transform="matrix(-1, 0, 0, 1, 380, 0)" /><path d="M47.82,377.06a8,8,0,0,1,1-1.39c.27-.33.72-.85,1.19-1.39l.78-.88.43-.48.22-.25s.09-.13.11-.09l.07.06c.2.6.45,1.26.72,1.94s.63,1.41.9,1.91c.56,1.12,1.23,2.3,2,3.51,1.45,2.41,3.18,4.92,5,7.33a121.61,121.61,0,0,0,10.15,11.89,102.6,102.6,0,0,0,19.3,15.59,125.74,125.74,0,0,0,11.14,6.29c1.9,1,3.82,1.85,5.74,2.71,1,.41,1.92.83,2.89,1.21l1.44.58c.14,0,.74.29,1.2.45l1.45.52a12.68,12.68,0,0,1,.17,2.61,5.18,5.18,0,0,1-.76,2.35,6.28,6.28,0,0,1-1.26,1.48c-.1.07-.31.26-.48.37a6.49,6.49,0,0,1-.55.36,9.16,9.16,0,0,1-1.14.55c-.11.09-.22,0-.34,0l-.34-.09a3.59,3.59,0,0,1-.67-.24l-1-.4-1.43-.58c-1-.4-1.87-.84-2.8-1.26s-1.83-.9-2.75-1.35-1.8-.93-2.69-1.42q-5.33-2.91-10.24-6.25a173.84,173.84,0,0,1-18.06-14q-2.06-1.81-4-3.65l-1.92-1.83-1.87-1.91a60.88,60.88,0,0,1-6.25-8.05,72.27,72.27,0,0,1-7.83-15.91,129.41,129.41,0,0,0,10.36,14.8,83.85,83.85,0,0,0,6,6.58c1.91,1.79,3.67,3.35,4.82,4.46a162.51,162.51,0,0,0,22.61,18.53,111.06,111.06,0,0,0,11.68,6.89c1,.51,2,.95,3,1.42.49.24,1,.45,1.48.66l1.43.6.46.2a1.46,1.46,0,0,0,.43-.22,4,4,0,0,0,.89-.83,3.48,3.48,0,0,0,.33-.55,1.9,1.9,0,0,0,.15-.46,2,2,0,0,0,0-.49,1,1,0,0,0,0-.24c0-.08,0-.19-.09-.19l-.7-.26-1.08-.44c-.75-.31-1.49-.6-2.22-.93-1.46-.62-2.89-1.28-4.3-1.95-2.82-1.34-5.53-2.77-8.15-4.22A115.9,115.9,0,0,1,80,411.09a87.19,87.19,0,0,1-11.65-10.91,124.24,124.24,0,0,1-9.22-11.37,65.78,65.78,0,0,1-4.82-7.75c-.74-1.41-1.41-2.8-1.93-4.09-.3-.7-.43-1.11-.61-1.62s-.31-1-.42-1.46l0-.13c0-.05,0,0-.07,0l-.17.16-.32.31-.61.58-1,1Z" transform="matrix(-1, 0, 0, 1, 380, 0)" /><path class="cls-2" d="M46.26,354.79C44.6,352,35.4,348.92,27.5,349.48c0,0-1.56,13.35,8.11,19.13C35.61,368.61,56.82,372.9,46.26,354.79Z" style="" transform="matrix(-1, 0, 0, 1, 380, 0)" /><path d="M46.28,354.78c.37.1,2,2.22,3,5.2a9.42,9.42,0,0,1,.5,4.88,6,6,0,0,1-1,2.21,8,8,0,0,1-.7.8c-.25.21-.48.43-.7.59a11.44,11.44,0,0,1-5.4,1.93,25.53,25.53,0,0,1-5.73,0c-.26,0-.41,0-.9-.13s-.76-.33-1-.49L33,368.94c-.42-.28-.78-.65-1.17-1a8.41,8.41,0,0,1-1.09-1.06A18,18,0,0,1,27.51,362,23.79,23.79,0,0,1,26,357.28a29,29,0,0,1-.53-4.78c0-.42,0-.73,0-1.25a21,21,0,0,1,.13-2.14l.11-1,0-.25,0-.13s.08,0,.11,0l.53,0,2.07-.11a8.42,8.42,0,0,1,1,0l.57,0c.38,0,.75,0,1.12.07.74.06,1.47.15,2.18.26a31,31,0,0,1,7.82,2.26,20,20,0,0,1,3.22,1.8,7.1,7.1,0,0,1,2.4,2.56,8.35,8.35,0,0,0-3.16-1.25c-1.16-.26-2.38-.46-3.56-.63-2.37-.33-4.55-.53-5.67-.85A27.61,27.61,0,0,0,31,351c-.28,0-.56-.09-.84-.11l-.42-.05a1.41,1.41,0,0,1-.33,0,6.67,6.67,0,0,0-.66-.12,2.83,2.83,0,0,0-.16.61v.09l0,.2,0,.41c0,.27,0,.54,0,.82a22.4,22.4,0,0,0,.21,3.19c.56,4.14,2.33,7.93,5.15,10.25a6.5,6.5,0,0,0,1,.83l1,.67c.05,0,.12,0,.19,0l.26,0,.65.08c.44,0,.88.08,1.31.1a21,21,0,0,0,4.94-.25,7.11,7.11,0,0,0,3.74-1.7,4.44,4.44,0,0,0,1.17-3.32,19.79,19.79,0,0,0-.77-4.58C46.94,356.6,46.43,355.24,46.28,354.78Z" transform="matrix(-1, 0, 0, 1, 380, 0)" /><path class="cls-2" d="M42.06,344.06s12.79,8.21,15.87,19.31-.32,15.93-6.5,20.31c-7,5-16.78,1.23-22.42-6s-7.54-20.36-7.54-20.36,12.09-1.79,21.18,6.2C39,358.71,40.14,349.49,42.06,344.06Z" style="" transform="matrix(-1, 0, 0, 1, 380, 0)" /><path d="M42.1,344.08c.18.45-.44,2.72-.77,6a32.43,32.43,0,0,0-.14,5.38c.06.5,0,.87.18,1.63a7.09,7.09,0,0,0,.6,2.2c.18.44.33.83.56,1.3l1,1.87.54.94.76,1.24,1.6,2.6a.62.62,0,0,0-.25-.11l-.15,0-.31-.09-.3-.09.05.17.06.16,0,.08s0,0,0,0l-.12-.09-.93-.72c-.65-.49-1.21-.94-1.92-1.45l-2.1-1.51a10.62,10.62,0,0,0-1-.66l-.95-.59a14.71,14.71,0,0,0-1.82-1,13.81,13.81,0,0,0-2.48-.92,29.49,29.49,0,0,0-6.16-1.06c-.53,0-1.07-.08-1.61-.07H25a3.3,3.3,0,0,0-.92.21l.16.52.08.22,0,.11a.16.16,0,0,1,0,.08l.06.22c.3,1.18.65,2.36,1,3.52a52.53,52.53,0,0,0,2.61,6.78,24.81,24.81,0,0,0,3.68,5.78,20.47,20.47,0,0,0,5,4.16,18.75,18.75,0,0,0,3.64,1.58,13.88,13.88,0,0,0,3.71.57,11,11,0,0,0,3.46-.6,13.44,13.44,0,0,0,3.16-1.88,13.89,13.89,0,0,0,4.74-5.53,14.52,14.52,0,0,0,.69-7.11c-.08-.63-.19-1.27-.28-1.9s-.27-1.27-.4-1.9-.33-1.16-.5-1.74-.44-1.13-.65-1.69a32.68,32.68,0,0,0-3.66-6.22,57.66,57.66,0,0,0-9.11-9.59,31.49,31.49,0,0,1,12.51,7.33,27.85,27.85,0,0,1,4.85,6,19.77,19.77,0,0,1,1.38,3c.17.47.31.92.44,1.34s.17.77.23,1.11a25.21,25.21,0,0,1-.2,11.16,15.17,15.17,0,0,1-2.55,5,20.56,20.56,0,0,1-3.77,3.65c-.66.5-1.34,1-2,1.42-.34.23-.75.44-1.12.66l-.56.32-.6.26a13.52,13.52,0,0,1-4.94,1.14A18.14,18.14,0,0,1,36.08,385a24.9,24.9,0,0,1-7-5.49,29.26,29.26,0,0,1-4.53-7.13A56.71,56.71,0,0,1,21.79,365c-.36-1.24-.7-2.47-1-3.7l-.14-.57-.14-.67c-.09-.44-.2-.88-.27-1.32-.16-.89-.32-1.77-.47-2.65a27.9,27.9,0,0,1,4.86-.48h1c.29,0,.58,0,.87,0,.59,0,1.16.07,1.74.13a30,30,0,0,1,6.61,1.41c.52.2,1.05.35,1.55.58l.85.37a11.7,11.7,0,0,1,1.18.69,10.08,10.08,0,0,1,1.14.89l.15.12,0,.05,0-.07-.16-.24a5.29,5.29,0,0,1-.25-.54l0-.11a5.71,5.71,0,0,1-.26-2.34,25.76,25.76,0,0,1,.58-5.47A29,29,0,0,1,42.1,344.08Z" transform="matrix(-1, 0, 0, 1, 380, 0)" /><path d="M55.45,380.46c-.23-.18-.11-1.25,0-2.47,0-.61.05-1.26.08-1.86a12.13,12.13,0,0,0-.15-1.51,35.42,35.42,0,0,0-1-4.05,19.66,19.66,0,0,0-1.76-3.73c-2.42-4-6-7.11-8.39-9.43a6.19,6.19,0,0,1,1.59-.12,9.14,9.14,0,0,1,1.7.28,9.46,9.46,0,0,1,1.46.57,3.08,3.08,0,0,1,.88.68,40.35,40.35,0,0,1,5.93,9.69,15.94,15.94,0,0,1,1.12,8.56A10.51,10.51,0,0,1,55.45,380.46Z" transform="matrix(-1, 0, 0, 1, 380, 0)" /><path class="cls-1" d="M95,351.75c-1.16-7.58-10.88-22.25-14-17.94a39,39,0,0,0-6.32,29.53c2.38,12.75,10.9,14.05,10.9,14.05S97.21,366.4,95,351.75Z" style="" transform="matrix(-1, 0, 0, 1, 380, 0)" /><path d="M95,351.75a9.24,9.24,0,0,1,.63,2.9c0,.82.11,1.79.06,2.83a25.57,25.57,0,0,1-.38,3.33,36,36,0,0,1-4.77,12,31.93,31.93,0,0,1-1.79,2.73c-.32.46-.67.91-1,1.36l-.28.34-.42.49c-.32.35-.65.69-1,1a10.52,10.52,0,0,1-2.43-.57,12.74,12.74,0,0,1-1.65-.73,15.37,15.37,0,0,1-3-2.07,18.4,18.4,0,0,1-4.19-5.83,26.61,26.61,0,0,1-2-6.71,32.68,32.68,0,0,1-.47-3.38c-.14-1.12-.17-2.24-.21-3.35A39,39,0,0,1,74.51,342a38.48,38.48,0,0,1,3-6.3c.59-1,1.21-1.94,1.89-2.86a5.7,5.7,0,0,1,.42-.49,2.82,2.82,0,0,1,.6-.51,2.59,2.59,0,0,1,.74-.38,2.39,2.39,0,0,1,.81-.19,4.5,4.5,0,0,1,2.52.54,11.44,11.44,0,0,1,2.84,2.3,24.14,24.14,0,0,1,2,2.51,39.31,39.31,0,0,1,3,5.12,28.72,28.72,0,0,1,3.13,9.93,55.51,55.51,0,0,0-5.64-8.87,73.66,73.66,0,0,0-5.57-6.57,7.68,7.68,0,0,0-1.21-1.12,6.08,6.08,0,0,0-.71-.41c0-.09,0,0,0-.05s0,0,0,0,0,0-.05,0-.29.31-.47.54c-.4.5-.77,1-1.13,1.54a34.71,34.71,0,0,0-6,20.41c0,1.13.15,2.23.22,3.33s.3,2.17.54,3.21a21.87,21.87,0,0,0,2,5.81A14.66,14.66,0,0,0,81.15,374a12.2,12.2,0,0,0,2.26,1.51,11,11,0,0,0,1.19.52,2,2,0,0,0,.67.16l.33-.36.26-.3.32-.38c.43-.49.82-1,1.21-1.51.77-1,1.49-2.06,2.13-3.11a38.44,38.44,0,0,0,3.18-6.35,40,40,0,0,0,2-7.05c.09-.61.14-1.21.2-1.78a9.81,9.81,0,0,0,.11-1.57C95,352.84,95,352.11,95,351.75Z" transform="matrix(-1, 0, 0, 1, 380, 0)" /><path class="cls-1" d="M85.34,403.68s-5.47-2.42-10.43-2c-1.84.15-10.37-9-8.79-4.5S72,409.63,84,415.12c10.67,4.86,15,.71,15,.71Z" style="" transform="matrix(-1, 0, 0, 1, 380, 0)" /><path d="M85.36,403.65c.46,0,3,2,5.78,4.36l4.3,3.61,2,1.65a17.46,17.46,0,0,1,2.16,1.93l.68.74.08.1-.08.09-.18.17-.37.33A7.1,7.1,0,0,1,98,417.82c-.37.15-.75.32-1.15.46-.19.07-.41.12-.63.18l-.48.13a15,15,0,0,1-1.78.26,19.47,19.47,0,0,1-7-.85,36.69,36.69,0,0,1-6.45-2.65,38.46,38.46,0,0,1-5.8-3.62,31.71,31.71,0,0,1-5.78-5.62c-.43-.52-.79-1.08-1.19-1.61l-.54-.85-.27-.43-.43-.77c-.27-.51-.58-1-.82-1.54l-.69-1.54c-.24-.52-.35-1-.54-1.45-.07-.23-.18-.49-.22-.69l0-.54,0-.53a1,1,0,0,1,.07-.39,2.44,2.44,0,0,1,.22-.66,2.24,2.24,0,0,1,.49-.59,1.79,1.79,0,0,1,.73-.36,2.82,2.82,0,0,1,1.46.11,8.22,8.22,0,0,1,2.19,1.27c.82.63,1.64,1.32,2.42,2l1.62,1.38a9,9,0,0,0,1.81,1.31h.73l.79.06a14.66,14.66,0,0,1,1.52.2,20.18,20.18,0,0,1,2.78.68,25,25,0,0,1,4.69,2c-3-.13-7.17-.47-10.5.19a3.15,3.15,0,0,1-1.46-.2,8.18,8.18,0,0,1-1-.44c-.52-.28-.95-.56-1.34-.82l-.55-.39-.41-.31-.12-.11h0a0,0,0,0,1,0,0c0-.18-.23-.56-.67-1a1.68,1.68,0,0,0-.39-.3c-.16,0-.17,0-.2.08a1,1,0,0,0,0,.44,5.63,5.63,0,0,0,.19.68,4.4,4.4,0,0,0,.18.42,3.69,3.69,0,0,0,.32.61,24.93,24.93,0,0,0,2.2,3.24,32,32,0,0,0,11.6,8.74,27.74,27.74,0,0,0,6.22,2.16,14.45,14.45,0,0,0,5.88.11,4,4,0,0,0,1.27-.53l.13-.1.06-.05s0,0,0,0l-.25-.22-.48-.43c-.61-.54-1.2-1.08-1.79-1.62l-2-1.86A102.43,102.43,0,0,1,85.36,403.65Z" transform="matrix(-1, 0, 0, 1, 380, 0)" /><path class="cls-1" d="M89.18,403.11s1.47-5.48,3.44-11.31c2.3-6.82-3.29-22.56-.61-19.71s8.45,14.68,10.57,23.57.21,12.27-3.29,19.68Z" style="" transform="matrix(-1, 0, 0, 1, 380, 0)" /><path d="M89.2,403.09c.49.1,2.94,2.83,5.74,6l2.13,2.45,1,1.1.65.71.29.32a.92.92,0,0,0,.14.14l.09-.22.32-.8.63-1.64a26.08,26.08,0,0,0,1.77-6.72,21.81,21.81,0,0,0-.64-7,76.25,76.25,0,0,0-5-13.88l-.67-1.42-.67-1.35-.43-.84h0l0-.05c0-.06-.06-.1-.09-.06a.08.08,0,0,0,0,.06c0,.06,0-.07,0,.33.14,1,.25,2,.33,3a30.33,30.33,0,0,1,0,5.95,13.12,13.12,0,0,1-.67,3l-1,2.43-3.33,8.71a45.29,45.29,0,0,1,.85-9.82c.17-.84.33-1.67.49-2.46a13.18,13.18,0,0,0,.14-2c0-1.31-.06-2.48,0-3.29a45.69,45.69,0,0,0-.19-5c-.23-2.46-.93-5.84-.82-7.48a8,8,0,0,1,.38-1.68,2.56,2.56,0,0,1,.3-.66.5.5,0,0,1,.2-.17.45.45,0,0,1,.28,0,1.29,1.29,0,0,1,.41.19,5.93,5.93,0,0,1,.73.56,7.12,7.12,0,0,1,.75.78c.13.15.25.27.38.45l.41.6c.26.39.53.77.79,1.25s.53.91.79,1.36l.75,1.42c.27.5.43.86.63,1.26l.55,1.15c.63,1.36,1.23,2.7,1.79,4,1.13,2.67,2.14,5.29,3,7.87a44.84,44.84,0,0,1,1.91,7.74,19,19,0,0,1-.33,7.63,24.63,24.63,0,0,1-1.14,3.43c-.22.55-.45,1.07-.68,1.59l-.87,1.87c-.36.77-.73,1.53-1.09,2.29l-.53,1.12a8.33,8.33,0,0,1-.79-.91c-.51-.64-1-1.27-1.54-1.9L96,413C93.59,409.93,89.9,404.23,89.2,403.09Z" transform="matrix(-1, 0, 0, 1, 380, 0)" /><path class="cls-1" d="M72,373.79s2.76,15.76,11.89,28.09,24.15,29.51,39.61,39.11c0,0,3.32-.7,3.36-3.9,0,0-22.6-13-36.18-34.54s-14.37-31.91-14.37-31.91Z" style="" transform="matrix(-1, 0, 0, 1, 380, 0)" /><path d="M72,373.76a7.68,7.68,0,0,1,1.29-1.2c.33-.29.87-.71,1.45-1.17l1-.74.52-.4.28-.21s.11-.11.12-.08l.06.08c.09.64.22,1.35.37,2.09s.36,1.52.53,2.08c.36,1.24.82,2.54,1.31,3.9,1,2.7,2.28,5.56,3.64,8.33a122.85,122.85,0,0,0,8,13.9A104.4,104.4,0,0,0,107,419.71a122.72,122.72,0,0,0,10,8.45c1.73,1.32,3.5,2.59,5.28,3.81.89.6,1.78,1.21,2.68,1.78q.67.44,1.35.84l1.09.66,1.37.81a13.27,13.27,0,0,1-.34,2.66A5.85,5.85,0,0,1,128,440a6.58,6.58,0,0,1-.66.9,6.66,6.66,0,0,1-1.55,1.24,5.78,5.78,0,0,1-.52.27c-.21.09-.41.19-.62.26a9.25,9.25,0,0,1-1.25.34c-.13.07-.22-.06-.34-.09l-.32-.16a4,4,0,0,1-.63-.37l-.89-.57-1.33-.86c-.88-.57-1.73-1.2-2.59-1.8s-1.68-1.24-2.51-1.87-1.65-1.28-2.45-1.94c-3.21-2.62-6.27-5.37-9.14-8.22a178.65,178.65,0,0,1-15.56-17.55c-1.16-1.47-2.27-3-3.35-4.42l-1.6-2.21-1.52-2.28a62,62,0,0,1-4.79-9.27,74.91,74.91,0,0,1-4.92-17.51,131.11,131.11,0,0,0,7.62,16.89,87,87,0,0,0,4.84,7.78c1.6,2.17,3.08,4.07,4,5.41a166.77,166.77,0,0,0,19.33,22.91A113.26,113.26,0,0,0,117.74,436c1.78,1.36,3.65,2.69,5.42,3.82l.43.28a1.43,1.43,0,0,0,.48-.13,4.14,4.14,0,0,0,1.06-.68,2.52,2.52,0,0,0,.43-.49,2.15,2.15,0,0,0,.27-.45,2.9,2.9,0,0,0,.14-.48,1.06,1.06,0,0,0,0-.25c0-.08.06-.19,0-.21l-.65-.4-1-.65c-.69-.45-1.39-.89-2.06-1.35q-2-1.36-4-2.78c-2.59-1.88-5-3.83-7.41-5.79a118.79,118.79,0,0,1-12.74-12.34,89.91,89.91,0,0,1-9.69-13.19,125.44,125.44,0,0,1-7.16-13.2A67.86,67.86,0,0,1,77.82,379c-.47-1.55-.89-3.08-1.18-4.48-.17-.75-.23-1.21-.31-1.76s-.13-1.05-.15-1.54v-.14s-.06,0-.09,0l-.2.13-.39.25-.71.47-1.24.81Z" transform="matrix(-1, 0, 0, 1, 380, 0)" /><path class="cls-2" d="M55.43,358.28c-1.64-2.95.5-12.65,5.13-19.33,0,0,12.58,5.61,12.63,17.16C73.19,356.11,65.88,377.07,55.43,358.28Z" style="" transform="matrix(-1, 0, 0, 1, 380, 0)" /><path d="M55.46,358.26c.44.06,1.76,2.43,3.87,4.55a8.31,8.31,0,0,0,3.59,2.33,3.86,3.86,0,0,0,3.07-.52,11.09,11.09,0,0,0,3.12-3.55,28.4,28.4,0,0,0,2.23-4.72c.06-.18.18-.5.15-.45a1.09,1.09,0,0,0,0-.2l-.13-1.24c0-.42-.19-.81-.27-1.21a5.94,5.94,0,0,0-.35-1.18,14.71,14.71,0,0,0-2.31-4.27,24.27,24.27,0,0,0-2.88-3.12,32.14,32.14,0,0,0-3.39-2.57c-.3-.19-.6-.4-.88-.56,0,0,0,0,0,0s0,0-.07,0,0,0-.06.09l-.28.44c-.18.29-.36.58-.52.88-.34.59-.66,1.19-1,1.79a41.25,41.25,0,0,0-2.8,7.1,24.54,24.54,0,0,0-.72,3.32,6.94,6.94,0,0,0,.09,2.87,4.86,4.86,0,0,1-1.6-2.9,15.77,15.77,0,0,1-.38-4,16.31,16.31,0,0,1,1.36-6.35c.64-1.17,1.29-2.31,2-3.39.18-.27.34-.54.53-.8l.58-.84c.57-.82,1.17-1.57,1.71-2.31a10.57,10.57,0,0,1,1.26.63c.41.23.82.45,1.21.7l.46.3.38.26.73.52c1,.73,1.88,1.45,2.72,2.24a25.76,25.76,0,0,1,4.35,5.11A21.07,21.07,0,0,1,72.74,350a18.48,18.48,0,0,1,.92,3,8.92,8.92,0,0,1,.25,1.52l.14,1.61c0,.18-.08.33-.12.49l-.15.41-.26.68c-.18.44-.37.88-.56,1.32a22.93,22.93,0,0,1-2.86,4.78A8.83,8.83,0,0,1,65.55,367a5.44,5.44,0,0,1-2.86,0,6.51,6.51,0,0,1-1.28-.48,10.77,10.77,0,0,1-1.1-.68,12.06,12.06,0,0,1-3.37-4.15A27.05,27.05,0,0,1,55.46,358.26Z" transform="matrix(-1, 0, 0, 1, 380, 0)" /><path class="cls-2" d="M48.16,349s.55,15.58,8.73,24.1S71.11,381.11,78.2,378c8-3.58,9.87-14.16,6.42-22.93s-14-17.29-14-17.29-9.63,13.07-7.28,24C64.83,368.66,60.3,350.88,48.16,349Z" style="" transform="matrix(-1, 0, 0, 1, 380, 0)" /><path d="M48.17,348.91c.32-.17,2-.15,4.23.8a15.87,15.87,0,0,1,3.56,2.1,19.52,19.52,0,0,1,1.8,1.55c.57.55,1.23,1.26,1.53,1.59a21.7,21.7,0,0,1,1.93,2.59c.28.43.53.85.76,1.26.12.2.22.39.35.57a.09.09,0,0,0,.06.06s0-.05,0-.08l0-.22-.09-.41c-.14-.55-.19-1.08-.29-1.57s-.08-1-.12-1.39a19.69,19.69,0,0,1,.06-2.24l0-.33V353l.05-.28.21-1.13c.12-.76.33-1.49.52-2.25a42.86,42.86,0,0,1,1.49-4.44,46.93,46.93,0,0,1,2-4.33c.2-.38.34-.67.6-1.12s.68-1.18,1.05-1.74c.73-1.15,1.49-2.24,2.28-3.37,1.56,1.23,3.2,2.54,4.78,4,.92.82,1.83,1.66,2.72,2.54a56.52,56.52,0,0,1,5,5.63,33.73,33.73,0,0,1,4.11,6.61,27.18,27.18,0,0,1,2.39,10.35,24.27,24.27,0,0,1-.13,2.83,24.89,24.89,0,0,1-.46,2.83,21.81,21.81,0,0,1-.9,2.77,15.82,15.82,0,0,1-7.94,8.59c-.47.25-.83.37-1.24.55s-.8.33-1.22.47a25.67,25.67,0,0,1-2.57.81,17.5,17.5,0,0,1-5.58.57,17.79,17.79,0,0,1-9.84-4.11,24.16,24.16,0,0,1-1.85-1.6c-.6-.54-1.15-1.1-1.67-1.67-.27-.29-.54-.55-.79-.86l-.77-.94c-.24-.31-.5-.62-.73-.94l-.65-1a31.88,31.88,0,0,1-3.63-8A46.17,46.17,0,0,1,47.31,349a107.62,107.62,0,0,0,5.88,13.81A38.64,38.64,0,0,0,57,368.64c.32.38.6.79.91,1.11s.61.65.87.95c.54.6,1.12,1.15,1.5,1.62a17.57,17.57,0,0,0,7.07,5.19,12.85,12.85,0,0,0,8.36-.39,21.5,21.5,0,0,0,2.09-.78l.93-.44c.3-.16.57-.36.87-.54a10.67,10.67,0,0,0,2.88-2.88,13,13,0,0,0,1.79-3.71,16.67,16.67,0,0,0,.74-4.08A21.13,21.13,0,0,0,84,356.64a25.73,25.73,0,0,0-3.71-7,49.07,49.07,0,0,0-5-5.86c-.9-.9-1.79-1.78-2.72-2.6l-.46-.41-.38-.32-.75-.6a9.19,9.19,0,0,0-.6.93L69.67,342c-.64,1.18-1.26,2.34-1.79,3.53a39.66,39.66,0,0,0-2.51,7.07l-.2.88-.06.22c0,.08,0,.22,0,.33l-.09.7-.17,1.39-.09.69c0,.29,0,.62,0,.93,0,.63.07,1.25.11,1.87l.05.94,0,.46a.62.62,0,0,1,0,.27L64.4,363l-.23.91a7.73,7.73,0,0,0-.06.81s0,.07-.06.1-.09,0-.13,0l-.17-.15-.34-.31-.83-.76a8.56,8.56,0,0,1-.77-.83,7.43,7.43,0,0,1-1-1.3c-.37-.68-.76-1.36-1.15-2.07s-.76-1.29-1.15-1.87-.82-1.18-1.15-1.61-.56-.74-.86-1.11a23,23,0,0,0-1.81-2A16.59,16.59,0,0,0,50.86,350,15.51,15.51,0,0,0,48.17,348.91Z" transform="matrix(-1, 0, 0, 1, 380, 0)" /><path d="M73.25,375.23c-.08.13-.34.16-.71.12a4.35,4.35,0,0,1-1.35-.35l-.75-.31-.7-.4-.65-.35c-.19-.12-.36-.23-.52-.31a13.46,13.46,0,0,1-5.18-5.55,15.07,15.07,0,0,1-1.76-10.87c1.76,1,3.31,2.82,3.24,3.62a11.49,11.49,0,0,0,2,8,23.9,23.9,0,0,0,4.35,4.37,7.33,7.33,0,0,1,1.1,1.12C72.77,374.69,73.13,375.08,73.25,375.23Z" transform="matrix(-1, 0, 0, 1, 380, 0)" /><path d="M63.79,353.45c-.54.3-1.37-.75-2-.86a4.13,4.13,0,0,1-1.38-.54,6.68,6.68,0,0,0-.58-.37c-.06,0-.11-.05-.13,0s.16-.25.19-.33L62,351c.2.14.12.08.14.11a.23.23,0,0,1,0,.07,2,2,0,0,1-.17.5,4.51,4.51,0,0,1-.47.76l-.18.2c0,.05,0,0,0,0l-.09,0s-.07.06-.12.15l-.17.29a7.19,7.19,0,0,1-.44.7,2.4,2.4,0,0,1-1.45,1,4.2,4.2,0,0,0-1.3-1.66c-.38-.32-.55-.62-.37-.77a4,4,0,0,0,.66-.73,4,4,0,0,1,.78-.8c.25-.19.41-.26.52-.34s.38-.54.69-1l.37-.55.6.32a5.87,5.87,0,0,1,1,.75,2.9,2.9,0,0,0,.34.25l.37.26a3.22,3.22,0,0,1,1.17,1.21A2.72,2.72,0,0,1,63.79,353.45Z" transform="matrix(-1, 0, 0, 1, 380, 0)" /><path class="cls-1" d="M99.45,369.4s-5.62-22.15-4.54-28c3.35-18.28,18.4-29,18.4-29s4.61,16.7,3.76,29.37S99.45,369.4,99.45,369.4Z" style="" transform="matrix(-1, 0, 0, 1, 380, 0)" /><path d="M99.43,369.38c.17-.57,3.64-4,7.14-8.38s6.88-9.8,7.92-13.1c.2-.66.47-1.31.63-2l.45-2,.21-2.06c0-.71,0-1.45,0-2.18a78.23,78.23,0,0,0-.69-8.95c-.4-3-.92-6-1.53-9-.3-1.49-.63-3-1-4.43l-.26-1.09-.06-.26v0l0,0,0-.1-.08.08,0,0h0l-.26.24a54.45,54.45,0,0,0-5.58,6,48.91,48.91,0,0,0-4.56,6.64,45.73,45.73,0,0,0-3.33,7.06l-.6,1.82-.3.9-.23.92-.45,1.82c0,.14-.08.3-.11.44l0,.39a6.4,6.4,0,0,0-.08.79,50.08,50.08,0,0,0,.45,7.2c.29,2.38.62,4.7,1,6.93.69,4.46,1.4,8.58,2,12.24a73.57,73.57,0,0,1-4.76-12.1A48.09,48.09,0,0,1,93,345.93V344.5c0-.48,0-1,.06-1.47a12.58,12.58,0,0,1,.18-1.54,8.45,8.45,0,0,1,.34-1.4c.25-.89.48-1.78.75-2.64l.93-2.54a52.93,52.93,0,0,1,4.79-9.2,58.34,58.34,0,0,1,6-7.7q1.64-1.74,3.33-3.32l.87-.77c.34-.31.78-.66,1.16-1s.8-.64,1.19-.94a11.49,11.49,0,0,1,1.18-.85l.6,2.27.54,2.17c.26,1.11.5,2.2.73,3.29q.7,3.27,1.23,6.43a87.7,87.7,0,0,1,1.31,12.29c0,1,0,2,0,3,0,.49,0,1-.06,1.46s-.13,1-.2,1.5a23.59,23.59,0,0,1-1.61,5.53,42.32,42.32,0,0,1-5.43,9.08,55.64,55.64,0,0,1-6.32,6.89A64.32,64.32,0,0,1,99.43,369.38Z" transform="matrix(-1, 0, 0, 1, 380, 0)" /><path class="cls-1" d="M99.08,347.6s7.44,12.36,8.52,26.13,1,34.34-3.82,50c0,0-2.67,1.48-4.59-.67,0,0,7.68-22.19,4.19-44.87S94.29,348,94.29,348Z" style="" transform="matrix(-1, 0, 0, 1, 380, 0)" /><path d="M99.08,347.63a7,7,0,0,1-1.56.35l-1.26.19-.7.1-.37.05c-.1,0-.34,0-.16.15.25.34.47.7.69,1.07l.33.57.15.28.2.39c.55,1.06,1.07,2.22,1.58,3.44a76.11,76.11,0,0,1,2.72,7.85c1.6,5.41,2.69,10.81,3.36,14.21a82.79,82.79,0,0,1,1.39,23.49,108.2,108.2,0,0,1-1.57,12.05c-.37,2-.8,4-1.26,5.91-.24,1-.48,1.94-.75,2.9-.13.48-.26,1-.4,1.44,0,.17,0,.11,0,.13v.06a.12.12,0,0,0,.12.05,2.47,2.47,0,0,0,.61,0l0,0v-.05l.08-.3.36-1.3c.23-.87.42-1.76.63-2.64.39-1.76.76-3.53,1-5.31.59-3.56,1-7.13,1.33-10.67a196.82,196.82,0,0,0,.63-20.69c0-1.66-.09-3.3-.15-4.92q-.06-1.22-.12-2.4l-.18-2.32a60,60,0,0,0-1.64-8.81,79,79,0,0,0-5.59-14.95,50.94,50.94,0,0,1,8.33,14.68,48.3,48.3,0,0,1,2.31,8.42,46,46,0,0,1,.57,6.32,219.13,219.13,0,0,1-1.39,27.44,126,126,0,0,1-2.13,12.56c-.21,1-.49,2-.72,3-.12.5-.26,1-.41,1.47l-.45,1.57a9.67,9.67,0,0,1-.33.95,6,6,0,0,1-.93.41,4.58,4.58,0,0,1-1,.24,5.08,5.08,0,0,1-.88.05,4.14,4.14,0,0,1-3.25-1.82l.48-1.47.34-1.13c.19-.71.4-1.4.58-2.11.37-1.4.7-2.8,1-4.18.61-2.78,1.08-5.53,1.48-8.23a103.6,103.6,0,0,0,1-15.65,86.42,86.42,0,0,0-1.38-14.34q-1.15-6.85-2.71-13c-.58-2.31-1.37-5.22-2.25-7.94-.45-1.35-.91-2.67-1.39-3.83-.06-.15-.12-.29-.17-.43l-.23-.51-.44-.92c-.3-.58-.55-1.08-.77-1.47-.15-.18.21-.12.38-.15l.57,0,1-.05,1.53,0Z" transform="matrix(-1, 0, 0, 1, 380, 0)" /><path class="cls-2" d="M101.19,327.25c-.63-3-7.82-8.3-14.91-10.11,0,0-5.24,11.25,1.55,19.14C87.83,336.28,105.19,346.2,101.19,327.25Z" style="" transform="matrix(-1, 0, 0, 1, 380, 0)" /><path d="M101.22,327.25c.31.18,1.11,2.51,1.16,5.43a8.79,8.79,0,0,1-1,4.46,5.58,5.58,0,0,1-1.52,1.67,6.93,6.93,0,0,1-1.66.83,10.6,10.6,0,0,1-5.33.15,22.72,22.72,0,0,1-5.06-1.66l-.31-.14-.47-.24c-.39-.13-.57-.5-.78-.74l-.89-1.12a11.55,11.55,0,0,1-.76-1.2,7.87,7.87,0,0,1-.66-1.25,16.82,16.82,0,0,1-1.45-5.31,20.89,20.89,0,0,1,0-4.61,25.31,25.31,0,0,1,.92-4.37l.17-.53.1-.29.17-.46a18.57,18.57,0,0,1,.72-1.79l.4-.86.1-.22,0-.11s.07,0,.11,0l.47.12,1.84.5c.3.09.61.18.91.29l.6.22a10.2,10.2,0,0,1,1,.4c.64.26,1.25.56,1.85.87a28.44,28.44,0,0,1,6.2,4.29,18.22,18.22,0,0,1,2.3,2.55,6.52,6.52,0,0,1,1.34,3,7.79,7.79,0,0,0-2.48-2c-1-.54-2-1-3-1.53a46.06,46.06,0,0,1-4.73-2.34,22.87,22.87,0,0,0-2.73-1.66c-.23-.13-.47-.25-.7-.36a3.93,3.93,0,0,1-.54-.26,4.91,4.91,0,0,0-.54-.31,1.81,1.81,0,0,0-.33.49l-.09.17-.12.33c-.09.23-.19.47-.26.7a18.79,18.79,0,0,0-.76,2.85A14.65,14.65,0,0,0,87,333.68a6,6,0,0,0,.69,1l.68.86a1.65,1.65,0,0,0,.36.2l.55.25c.37.17.75.33,1.12.47a18.77,18.77,0,0,0,4.38,1.2,6.47,6.47,0,0,0,3.72-.4,4,4,0,0,0,2-2.51,18.89,18.89,0,0,0,.68-4.22C101.24,329,101.2,327.69,101.22,327.25Z" transform="matrix(-1, 0, 0, 1, 380, 0)" /><path class="cls-2" d="M100.62,316.62s8.84,10.92,8.31,21.55S104,352,97.33,354.09c-7.59,2.32-15.08-3.8-17.91-11.8s-.7-20-.7-20,14.27,3.2,19.12,12C100.93,339.87,93.51,325.1,100.62,316.62Z" style="" transform="matrix(-1, 0, 0, 1, 380, 0)" /><path d="M100.66,316.65c0,.36-.79,1.52-1.44,3.42a16,16,0,0,0-.76,3.34c-.08.63-.13,1.29-.15,2,0,.35,0,.65,0,1.12s0,.95.07,1.44a32.6,32.6,0,0,0,.48,3.26,7.61,7.61,0,0,1,.16,1.51c0,.42,0,.86,0,1.21,0,.71,0,1.25,0,1.76,0,.25,0,.49,0,.74a.2.2,0,0,1,0,.1s-.07,0-.09,0a.41.41,0,0,1-.11-.12l-.19-.25a5.47,5.47,0,0,0-.85-.88,3,3,0,0,0-.63-.42l-.7-.41-.17-.1L96.1,334l-.5-.58-1-1.12a6.35,6.35,0,0,0-.48-.53l-.45-.38-.85-.73-.58-.48L92,330l-.21-.13-.84-.52c-.56-.37-1.12-.63-1.67-.93-1.12-.59-2.29-1.1-3.49-1.59s-2.46-.92-3.73-1.3l-.48-.14a.8.8,0,0,0-.16,0l-.26,0a2.57,2.57,0,0,0-.45,0c0,.29,0,.53,0,.75v.11l0,.39,0,.78q0,.78-.06,1.56a52.43,52.43,0,0,0,.18,6.16,26.82,26.82,0,0,0,1.12,5.73,18.55,18.55,0,0,0,2.48,4.88,15.73,15.73,0,0,0,2.53,2.85,12.43,12.43,0,0,0,3,2.06,8.93,8.93,0,0,0,6.4.78A23.82,23.82,0,0,0,99.8,350a10.72,10.72,0,0,0,2.81-1.82,11.32,11.32,0,0,0,3.13-5.77,17.2,17.2,0,0,0,.38-1.76c.11-.6.2-1.21.26-1.82a15.7,15.7,0,0,0,.13-1.76c0-.28,0-.56,0-.85l0-.86a27.79,27.79,0,0,0-1.26-6.73A52.55,52.55,0,0,0,100,317.16a29,29,0,0,1,9.23,10.44,23.88,23.88,0,0,1,2.47,7c.08.57.2,1.12.22,1.66s0,1.06.05,1.55a16,16,0,0,1-.21,2.38,22.15,22.15,0,0,1-3.84,9.54A14.11,14.11,0,0,1,104,353.2a20.91,20.91,0,0,1-4.36,1.9,22,22,0,0,1-2.19.6l-1.19.24c-.39.05-.8.06-1.19.1a13,13,0,0,1-4.62-.61,15,15,0,0,1-4-2,17.68,17.68,0,0,1-3.24-2.77,22.79,22.79,0,0,1-4.41-6.85A26.84,26.84,0,0,1,77,336.31a50.06,50.06,0,0,1-.25-7.3c0-.6,0-1.19.08-1.77l0-.88.08-1c.15-1.65.38-3.25.63-4.87a50.7,50.7,0,0,1,5.22,1.36c1.21.4,2.4.82,3.56,1.31a34.82,34.82,0,0,1,6.46,3.44l.7.48.17.12.09.07.15.12a6.57,6.57,0,0,1,.57.48,8.9,8.9,0,0,1,1,1.12c.28.42.54.88.82,1.37,0,0,0,.07.07.07s0-.05,0-.08l0-.15-.06-.31-.09-.62a8,8,0,0,1,0-2.11c0-.22,0-.46.08-.71l.15-1.11a19.49,19.49,0,0,1,.56-2.59,14.57,14.57,0,0,1,1.93-4.13A11.56,11.56,0,0,1,100.66,316.65Z" transform="matrix(-1, 0, 0, 1, 380, 0)" /><path d="M99,349.28a.83.83,0,0,1-.05-.67c.07-.31.21-.68.28-1.1l.15-.62.06-.63a2.92,2.92,0,0,0,0-1A42.63,42.63,0,0,0,98,339.56a55.34,55.34,0,0,1-2.57-8.75c2-.13,4.08,1.25,4.15,2.09.17,1.65.42,3.07.68,4.39s.58,2.53.84,3.67c.5,2.29.77,4.54,0,6.34a4.06,4.06,0,0,1-1,1.31A7,7,0,0,1,99,349.28Z" transform="matrix(-1, 0, 0, 1, 380, 0)" /><path class="cls-3" d="M84.09,401c-26.53-8.36-44.48-11.95-44.81-5.39C52.47,411.75,82.93,437,99.83,454.37c8.57,7.14,17,21.08,27.25,9.47" style="" transform="matrix(-1, 0, 0, 1, 380, 0)" /><path d="M127.13,463.88c0,.42-.92,2.05-3.18,3.71a9,9,0,0,1-4.55,1.72,10.81,10.81,0,0,1-5.67-1.21c-3.6-1.79-6.51-4.66-9.17-7.09-1.32-1.24-2.57-2.4-3.72-3.39-.58-.49-1.13-.95-1.65-1.35L98.8,456a5.27,5.27,0,0,1-.51-.43l-.69-.6c-12.37-10.71-26.73-22.89-39.4-34.42-5.55-5-11-10.2-16-15.6l-1.85-2.06-.92-1-.23-.26c-.1-.11-.25-.27-.38-.43s-.46-.59-.69-.9c-1.65-2.54-3.77-5.37-1.69-8,1.5-2.42,4.7-3.58,8-3.68l.85,0,.74,0c.49,0,1,0,1.43.08.94.07,1.85.17,2.74.3a80.89,80.89,0,0,1,10,2.17c3.14.86,6.12,1.81,9,2.79,5.68,1.95,10.78,4,15.26,6A114.63,114.63,0,0,1,67.27,399,126.32,126.32,0,0,1,53,396.86c-1.39-.38-2.77-.72-4.13-1-.67-.12-1.34-.24-2-.32-.33-.05-.65-.08-1-.11s-.69,0-.87-.06a2.21,2.21,0,0,0-1.28,0,1,1,0,0,0-.58.46c0,.05,0,.11-.08.17s0,.09,0,.14l.16.29a9.81,9.81,0,0,0,1.42,2c.88,1.06,1.73,2.13,2.64,3.15,1.78,2.06,3.61,4,5.43,5.95,7.34,7.67,14.71,14.4,21.68,20.65s13.61,12,19.65,17.6c1.5,1.41,3,2.79,4.41,4.19l2.1,2.09.52.52a3.15,3.15,0,0,0,.38.35c.39.33.77.67,1.14,1,2.94,2.69,5.37,5.45,7.84,7.84,2.35,2.19,5.55,5.36,9.15,5.44a9.12,9.12,0,0,0,4.79-1.41A21.21,21.21,0,0,0,127.13,463.88Z" transform="matrix(-1, 0, 0, 1, 380, 0)" /><path class="cls-3" d="M121.64,465.86c8.52-3.07,18-15.38,18-15.38,1-.76,1.57-2.42.61-3.17-7.29-5.69-10.26-12.46-15.29-26-7.27-19.57-10.74-36.15-12.48-64.27,0,0-25.76,16.92-31.54,28.74-3.69,7.56-3.61,16,1,25a343.79,343.79,0,0,0,19.41,31.74" style="" transform="matrix(-1, 0, 0, 1, 380, 0)" /><path d="M101.33,442.56c-1-.41-6.32-7.58-11.88-16.24-2.79-4.33-5.65-9-8.13-13.42a43.9,43.9,0,0,1-3.15-6.61,35,35,0,0,1-1.59-5.87,26.55,26.55,0,0,1,0-9.45,30.24,30.24,0,0,1,1.31-4.71,29,29,0,0,1,2.23-4.5c3.6-5.55,8.18-10,12.89-14.18,2.37-2.11,4.81-4.12,7.28-6.06,1.23-1,2.48-1.94,3.73-2.88l3.11-2.25c1.07-.79,2.34-1.63,3.51-2.44l3.57-2.42.89-.6.46-.31c.06.08,0,.33.07.48l.19,2.11c.25,2.84.54,5.6.75,8.55.1,1.07.19,2.14.29,3.2l.21,2.22c.16,1.47.32,2.94.47,4.39.89,7.53,2,15,3.5,22.19a190.64,190.64,0,0,0,5.65,21c1.09,3.37,2.27,6.71,3.44,10s2.37,6.4,3.71,9.29a34.48,34.48,0,0,0,4.75,7.7c.48.56.95,1.1,1.47,1.61l.38.39.37.34.38.34,1.28,1.41a4.85,4.85,0,0,1,.6.7,3.47,3.47,0,0,1,.3.82,4.2,4.2,0,0,1,0,1.8,5.23,5.23,0,0,1-.63,1.66,6.66,6.66,0,0,1-1.15,1.45l-.43.51-.36.41-.56.61-1.13,1.19c-.75.78-1.52,1.53-2.28,2.26q-2.31,2.19-4.69,4.07a45,45,0,0,1-4.9,3.37,25.7,25.7,0,0,1-5.23,2.3,40.5,40.5,0,0,0,7.9-7.79c1.26-1.56,2.51-3.21,3.72-4.91.6-.85,1.2-1.7,1.78-2.56l.86-1.29.42-.65a1.47,1.47,0,0,0,.09-.15l0-.05,0-.12a.74.74,0,0,0,0-.71c-.16-.2-.47-.21-.61-.25h0l-.07-.05-.32-.25-.64-.5-1.2-1.07a29.5,29.5,0,0,1-2.13-2.23,30.14,30.14,0,0,1-5-8c-1.67-4.13-2.91-8.13-4.14-12s-2.42-7.79-3.46-11.64A210.69,210.69,0,0,1,114.41,390c-1.2-7.38-2-14.56-2.58-21.51-.08-.87-.16-1.73-.22-2.59l-.18-2.27-.23-3.11,0-.38,0-.19v-.1s-.05,0-.07,0l-.64.44-1.25.89-1.29.93-1.65,1.23a152.92,152.92,0,0,0-14.31,12c-4.23,4.19-8.21,8.46-9.94,13.32a23.15,23.15,0,0,0-1.45,7.5,26.74,26.74,0,0,0,1,7.36,36.92,36.92,0,0,0,2.74,6.83c1.14,2.25,2.32,4.45,3.49,6.62,2.26,4.09,5.22,9.79,7.88,14.78Z" transform="matrix(-1, 0, 0, 1, 380, 0)" /><path class="cls-4 color-body" d="M120.2,461.14C116.51,469,104.47,471.2,93.3,466s-15.94-14.39-14.57-23.05c1.19-7.53,6.86-15.37,18-10.15S123.89,453.25,120.2,461.14Z" style=";fill:#ffffff;--backup-fill:#ffffff" transform="matrix(-1, 0, 0, 1, 380, 0)" /><path d="M120.15,461.11c-.21-.37.14-1.57-.25-3.31a17.53,17.53,0,0,0-2.94-6.1,43.86,43.86,0,0,0-10.53-10.25,76.49,76.49,0,0,0-7.88-4.59,28,28,0,0,0-4.11-1.73,13,13,0,0,0-3.88-.73,6.75,6.75,0,0,0-5.7,2.85,14,14,0,0,0-2.41,7.09,16.57,16.57,0,0,0,4.31,12.1,25.56,25.56,0,0,0,5.14,4.45c.95.64,2,1.2,3,1.75s2,1,3.08,1.38a24.73,24.73,0,0,0,12.27,1.67,12.77,12.77,0,0,0,9-5,8.87,8.87,0,0,1-1.94,5.78,14.87,14.87,0,0,1-6.12,4.6A19.9,19.9,0,0,1,104,472.6a21.43,21.43,0,0,1-3-.14,16.27,16.27,0,0,1-2.25-.51A41.85,41.85,0,0,1,92,468.82a43,43,0,0,1-5.72-4.06,27.64,27.64,0,0,1-7.84-10.71A23,23,0,0,1,77,447.86a21.51,21.51,0,0,1,.4-6.12,20.34,20.34,0,0,1,2-5.59,14,14,0,0,1,3.86-4.54,11.09,11.09,0,0,1,5.55-2.18,14.63,14.63,0,0,1,5.6.5,34.93,34.93,0,0,1,9.08,4.26,51,51,0,0,1,13.2,11.73,22.82,22.82,0,0,1,4.24,8.51,10.27,10.27,0,0,1,.19,4.36A6,6,0,0,1,120.15,461.11Z" transform="matrix(-1, 0, 0, 1, 380, 0)" /></svg>