<svg xmlns="http://www.w3.org/2000/svg" id="holiday1" viewBox="0 0 380 600"><defs transform="matrix(-1, 0, 0, 1, 380, 0)"><style>.cls-1{fill:#ff4500;}.cls-2{fill:#fff;}</style></defs><path class="cls-1" d="M214.677,395.658c.428,12.432-1.688,24.733-1.508,37.247a245.741,245.741,0,0,0,4.435,43.083c.454,2.346.873,5.018-.569,6.924-2.156,2.848-5.381.065-7.521-.955a30.542,30.542,0,0,0-11.729-3.123c-4.583-.229-9.149.6-13.735.76s-9.432-.442-13.129-3.16c-5.223-3.839-6.875-10.829-7.692-17.259-2.036-16.03-1.722-32.95,4.492-48.088,2.9-5.438,7.677-10.012,9.163-15.971" transform="matrix(-1, 0, 0, 1, 380, 0)"></path><path d="M176.943,395.13c.185.488-.178,2.992-1.9,6.162-.832,1.589-1.956,3.324-3.166,5.17-.6.926-1.228,1.88-1.82,2.875-.3.5-.587,1-.869,1.519l-.383.73-.284.8a71,71,0,0,0-3.607,14.35,74.945,74.945,0,0,0-.772,12.1,143.239,143.239,0,0,0,1.433,16.737,74.023,74.023,0,0,0,1.542,8.344,21.5,21.5,0,0,0,3.09,7.106,10.91,10.91,0,0,0,5.451,4.081,21.238,21.238,0,0,0,7.556.931c2.7-.089,5.575-.483,8.609-.757a39.372,39.372,0,0,1,9.566.1,35.244,35.244,0,0,1,9.641,2.968c.166.072.434.208.656.32l.6.323.968.545c.286.158.547.294.778.406.048.016-.005,0,.016,0s0-.014,0-.014h0c0-.015.02-.213.021-.337a12.107,12.107,0,0,0-.249-2.318c-.371-1.982-.762-4.136-1.095-6.186-.673-4.146-1.218-8.265-1.64-12.332a209.842,209.842,0,0,1-1.125-23.615,168.663,168.663,0,0,1,1.731-21.371c.845-6.556,1.59-12.574,1.857-18.069a56.889,56.889,0,0,1,2.1,10.436c.476,3.943.714,8.179.884,12.24.152,4.014.3,7.9.429,11.282.14,3.3.278,6.2.194,8.176a188.835,188.835,0,0,0,.54,23q.471,5.574,1.243,10.953.411,2.736.815,5.428a13.96,13.96,0,0,1,.079,3.108,7.114,7.114,0,0,1-1.3,3.533,5.224,5.224,0,0,1-2.2,1.732,4.891,4.891,0,0,1-2.769.133,9.037,9.037,0,0,1-1.346-.438c-.2-.083-.472-.214-.641-.3l-.491-.259c-.635-.348-1.214-.708-1.743-1.011-.484-.28-1.059-.551-1.636-.812s-1.148-.5-1.727-.726a28.749,28.749,0,0,0-3.52-1.113c-4.739-1.245-9.591-.665-14.526-.2-4.9.465-10.138.649-14.946-1.368a15.8,15.8,0,0,1-6.132-4.609,21.805,21.805,0,0,1-3.508-6.429,59.378,59.378,0,0,1-2.612-13.164,121.651,121.651,0,0,1-.807-12.533A81.1,81.1,0,0,1,162.8,419.6a51.448,51.448,0,0,1,2.736-7.512l.451-.989.241-.529a3.919,3.919,0,0,1,.342-.588c.4-.636.831-1.244,1.266-1.839.872-1.186,1.787-2.294,2.666-3.35a59.242,59.242,0,0,0,4.449-5.762A21.958,21.958,0,0,0,176.943,395.13Z" transform="matrix(-1, 0, 0, 1, 380, 0)"></path><path class="cls-2" d="M191.543,457.693c6.827,1.109,12.851,2,19.678,3.111-.985-7.171-.824-14.174-1.111-21.407a20.468,20.468,0,0,1-10.512-2.511c-1.431-.8-2.763-1.768-4.212-2.533-5.282-2.79-11.554-2.63-17.445-3.613-4.816-.8-9.979-2.927-12.577-6.818-1.711,7.493-1.074,16.106-.752,23.824a28.611,28.611,0,0,0,8.285,5.232C178.765,455.606,185.2,456.662,191.543,457.693Z" transform="matrix(-1, 0, 0, 1, 380, 0)"></path><path d="M185.506,452.967a3.51,3.51,0,0,1,.52-1.554c.38-.8.94-1.814,1.445-2.954l.816-1.718c.259-.583.487-1.177.717-1.737s.433-1.1.626-1.585c.164-.5.3-.949.4-1.328q.283-1,.575-2.029.261-1.039.528-2.1c.4-1.4.674-2.858,1.036-4.294.607-2.906,1.186-5.839,1.533-8.663,1.331-9.845,1.755-19.629,2.554-26.262,1.791,2.858,2.987,8.656,2.642,10.722-1.35,8.271-2.318,15.422-3.625,21.731-1.32,6.283-2.937,11.748-5.356,16.071a26.146,26.146,0,0,1-2.387,3.442C186.61,451.792,185.787,452.683,185.506,452.967Z" transform="matrix(-1, 0, 0, 1, 380, 0)"></path><path class="cls-1" d="M130.26,366.656c24.062,12.751,52.945,14.655,79.912,13.9,5.247-.528,10.132-2.8,14.907-4.894,4.962-2.179,6.993-1.1,10.361,3.442,1.341,1.811,2.621,3.836,2.677,6.089.093,3.768-3.148,6.671-6.107,9.007-11.331,8.945-24.364,21.74-40.033,20.43-13.714-1.146-66.744-14.09-62.22-31.7C129.752,378.27,122.089,367.787,130.26,366.656Z" transform="matrix(-1, 0, 0, 1, 380, 0)"></path><path d="M130.268,366.716a15.8,15.8,0,0,0-1.991,1.1,2.794,2.794,0,0,0-1,1.653,6.007,6.007,0,0,0,.13,2.5,52.387,52.387,0,0,0,2.374,6.656c.239.636.479,1.293.686,2,.1.356.195.724.272,1.112a6.686,6.686,0,0,1,.128,1.325l-.117.648a2.691,2.691,0,0,0-.06.464,5.759,5.759,0,0,0-.032.938,7.026,7.026,0,0,0,.309,1.88c.737,2.5,2.724,4.747,4.958,6.594a43,43,0,0,0,7.311,4.731,85.093,85.093,0,0,0,13.488,5.551c6.26,1.973,12.868,3.673,19.65,5.107,3.39.713,6.83,1.356,10.272,1.87,1.717.251,3.446.475,5.1.6a27.606,27.606,0,0,0,4.764-.123c6.342-.733,12.392-3.974,17.952-7.925,2.8-1.977,5.492-4.158,8.176-6.383l8.007-6.637a17.169,17.169,0,0,0,2.564-2.606,4.384,4.384,0,0,0,.978-2.149,3.6,3.6,0,0,0-.549-2.087,13.325,13.325,0,0,0-.911-1.455c-.364-.513-.8-1.083-1.193-1.575a14.426,14.426,0,0,0-1.145-1.282,3.94,3.94,0,0,0-.8-.6.688.688,0,0,0-.411-.086,3.885,3.885,0,0,0-1.056.2,14.039,14.039,0,0,0-1.6.606l-2.031.887c-1.369.593-2.773,1.187-4.226,1.739a37.52,37.52,0,0,1-9.371,2.4l-.408.047c-.167.014-.381.01-.458.012l-.545.007-1.089.013-2.17.024c-1.443.025-2.885,0-4.318-.006-5.735-.058-11.377-.257-16.881-.708s-10.865-1.11-16.03-2a142.027,142.027,0,0,1-14.819-3.426,101.283,101.283,0,0,1-24.451-10.673,214.562,214.562,0,0,0,26.531,5.668c4.734.737,9.37,1.139,13.372,1.594,2.015.163,3.868.366,5.518.54,1.653.151,3.094.324,4.266.515a213.934,213.934,0,0,0,27.918,2.146l1.7.026.85.012a1.272,1.272,0,0,0,.231,0l.384-.031a25.373,25.373,0,0,0,3.073-.477,43.761,43.761,0,0,0,6.112-1.9c1.013-.388,2.025-.8,3.04-1.213l1.526-.628c.551-.217,1.108-.44,1.7-.623a9.378,9.378,0,0,1,4.015-.488,7.163,7.163,0,0,1,3.827,1.81,18.021,18.021,0,0,1,2.39,2.656,31.279,31.279,0,0,1,1.912,2.8,11.911,11.911,0,0,1,1.41,3.379,8.147,8.147,0,0,1-.052,3.871,12.614,12.614,0,0,1-3.849,5.845c-.8.751-1.621,1.43-2.438,2.076l-2.371,1.885c-6.251,5.054-12.272,10.244-19.057,14.107a41.516,41.516,0,0,1-10.73,4.41c-.945.2-1.9.369-2.842.551-.953.131-1.917.186-2.87.278a37.2,37.2,0,0,1-5.647-.23,158.126,158.126,0,0,1-20.416-4.1,148.69,148.69,0,0,1-18.477-6.1,85.721,85.721,0,0,1-8.435-3.99,47.676,47.676,0,0,1-7.64-5.072,24.923,24.923,0,0,1-3.412-3.344,15.135,15.135,0,0,1-2.756-4.8,10.02,10.02,0,0,1-.543-2.949,9.59,9.59,0,0,1,.061-1.516l.119-.745c.017-.124.058-.243.086-.364l.07-.237a1.114,1.114,0,0,0,.064-.412c0-.145,0-.255-.018-.454a10.742,10.742,0,0,0-.18-1.128c-.16-.773-.377-1.564-.6-2.348-.446-1.568-.918-3.118-1.23-4.621a10.578,10.578,0,0,1-.195-4.328,3.852,3.852,0,0,1,.8-1.675,3.709,3.709,0,0,1,1.262-.9A6.078,6.078,0,0,1,130.268,366.716Z" transform="matrix(-1, 0, 0, 1, 380, 0)"></path><path class="cls-2" d="M163.653,397.443a27.008,27.008,0,0,0,1.386-3.765c.482-2.287-.191-4.638-.4-6.967a13.143,13.143,0,0,1,.775-5.463c-7.026-1.112-14.076-3.645-20.693-6.028a9.644,9.644,0,0,0-.605,3.429c.025,1.933.605,3.822.694,5.753.163,3.583-1.358,6.993-2.352,10.439a21.568,21.568,0,0,0-.349,2.679c5.848,3.613,13.39,5.885,21.1,8.237A12.508,12.508,0,0,1,163.653,397.443Z" transform="matrix(-1, 0, 0, 1, 380, 0)"></path><path class="cls-2" d="M217.445,387.053a16.975,16.975,0,0,1-2.537-2.858,5.768,5.768,0,0,1-.425-.938,22.63,22.63,0,0,1-4.493.959c-3.82.108-8.141.516-12.028.447-.178,4.382.094,8.394-.084,12.776a37.543,37.543,0,0,0,.284,8.353,14.524,14.524,0,0,0,1.745,4.787c7.689-.835,14.155-6.474,20.355-11.451C221.118,394.547,220.587,390.425,217.445,387.053Z" transform="matrix(-1, 0, 0, 1, 380, 0)"></path><path d="M142.67,389.293c.416-.21,3.445.63,6.955,1.539,1.763.418,3.625.947,5.354,1.3s3.291.684,4.42.848c7.97,1.084,17.1,1.981,25.134.575a76.609,76.609,0,0,0,19.652-6.015c5.937-2.658,11.122-5.575,15.4-7.755a29.505,29.505,0,0,1-2.572,3.025c-.508.532-1.045,1.069-1.6,1.6-.566.513-1.157,1.006-1.744,1.489a38.613,38.613,0,0,1-3.424,2.566,20.167,20.167,0,0,1-2.746,1.49,108.609,108.609,0,0,1-16.255,5.176A72.3,72.3,0,0,1,176.4,396.8a79.518,79.518,0,0,1-24.177-3.559A73.463,73.463,0,0,1,142.67,389.293Z" transform="matrix(-1, 0, 0, 1, 380, 0)"></path><path d="M177.862,390.125c-.157.282-1.577.379-3.215.29-1.642-.068-3.486-.354-4.543-.4a30.849,30.849,0,0,1-11.391-3.259A25.446,25.446,0,0,1,150.8,380.8a17.625,17.625,0,0,1-3.95-7.1,11.9,11.9,0,0,1,1.828.9c.6.351,1.242.694,1.774,1.069a8.566,8.566,0,0,1,2.369,1.94,18.072,18.072,0,0,0,4.848,5.279,24.011,24.011,0,0,0,5.637,3.057c3.757,1.481,7.228,1.944,10.182,2.681a20.147,20.147,0,0,1,2.519.785C176.864,389.712,177.615,390.014,177.862,390.125Z" transform="matrix(-1, 0, 0, 1, 380, 0)"></path></svg>