<svg xmlns="http://www.w3.org/2000/svg" id="art" viewBox="0 0 380 600"><defs transform="matrix(-1, 0, 0, 1, 380, 0)"><style>.cls-1{fill:#f2ddc8;}.cls-2{fill:#00c5d4;}.cls-3{fill:#fff;}.cls-4{fill:#ffb431;}.cls-5{fill:#ff8717;}</style></defs><path class="cls-1 color-body" d="M122.11,454.809c-1.293,8.615-12.226,14.114-24.419,12.283S78.319,457.82,77.17,449.133c-1-7.562,2.207-16.685,14.4-14.855S123.4,446.194,122.11,454.809Z" transform="matrix(-1, 0, 0, 1, 380, 0)" style="fill:#ffffff;--backup-fill:#ffffff" /><path d="M122.05,454.8c-.3-.3-.311-1.552-1.176-3.11a17.521,17.521,0,0,0-4.549-5.006,43.93,43.93,0,0,0-13.013-6.834,76.575,76.575,0,0,0-8.86-2.168,27.894,27.894,0,0,0-4.434-.485,12.8,12.8,0,0,0-3.923.4,6.723,6.723,0,0,0-4.653,4.355,13.985,13.985,0,0,0-.3,7.479,16.524,16.524,0,0,0,7.565,10.372,25.254,25.254,0,0,0,6.2,2.805c1.095.348,2.225.592,3.346.84,1.12.179,2.231.372,3.339.443a24.765,24.765,0,0,0,12.246-1.88,12.746,12.746,0,0,0,7.146-7.373,8.879,8.879,0,0,1-.212,6.1,14.944,14.944,0,0,1-4.563,6.146,19.805,19.805,0,0,1-6.4,3.525,20.7,20.7,0,0,1-2.909.721,16.688,16.688,0,0,1-2.3.151,42.349,42.349,0,0,1-7.336-1.089,43.321,43.321,0,0,1-6.633-2.274,27.522,27.522,0,0,1-10.561-8.039,22.265,22.265,0,0,1-3.158-5.518,21.29,21.29,0,0,1-1.36-5.978,20.268,20.268,0,0,1,.359-5.939,14.066,14.066,0,0,1,2.409-5.455,11.075,11.075,0,0,1,4.7-3.662,14.726,14.726,0,0,1,5.51-1.118,35.14,35.14,0,0,1,9.921,1.5,51.194,51.194,0,0,1,15.99,7.5,22.889,22.889,0,0,1,6.48,6.951,10.42,10.42,0,0,1,1.423,4.127A5.911,5.911,0,0,1,122.05,454.8Z" transform="matrix(-1, 0, 0, 1, 380, 0)" /><ellipse class="cls-2" cx="102.348" cy="441.652" rx="37.621" ry="15.657" transform="matrix(-1, 0, 0, 1, 380, 0)" /><path d="M139.945,441.652c-.084-.175-.123-.724-.349-1.523a9.113,9.113,0,0,0-1.526-2.875c-1.63-2.125-4.645-4.186-8.158-5.717-7.061-3.129-15.887-4.291-20.727-4.479a87.358,87.358,0,0,0-26.748,2.677A36.808,36.808,0,0,0,70.205,435.3a10.369,10.369,0,0,0-3.691,4.679,5.647,5.647,0,0,0,.957,5.117,14.057,14.057,0,0,0,3.873,3.543,30.608,30.608,0,0,0,4.917,2.558,55.745,55.745,0,0,0,10.757,3.127,89.143,89.143,0,0,0,21.647,1.339,68.641,68.641,0,0,0,19.3-3.66,28.089,28.089,0,0,0,7.672-4.048c2.157-1.662,3.758-3.889,3.873-6.306a6.667,6.667,0,0,1-.545,3.627,11.718,11.718,0,0,1-2.562,3.625,27.659,27.659,0,0,1-8.146,5.321,50.224,50.224,0,0,1-15.3,4.028,96.945,96.945,0,0,1-18.721-.294,71.249,71.249,0,0,1-17.11-3.926,34.356,34.356,0,0,1-7.506-3.861,12.728,12.728,0,0,1-5.208-6.457,7.227,7.227,0,0,1,.028-4.209,9.873,9.873,0,0,1,2.02-3.549,21.253,21.253,0,0,1,6.174-4.638,52.016,52.016,0,0,1,13.736-4.6,82.091,82.091,0,0,1,13.437-1.533,75.836,75.836,0,0,1,24.214,2.825,34.383,34.383,0,0,1,11.542,5.748,13.153,13.153,0,0,1,3.7,4.514A7.3,7.3,0,0,1,139.945,441.652Z" transform="matrix(-1, 0, 0, 1, 380, 0)" /><ellipse class="cls-2" cx="103.61" cy="440.973" rx="22.673" ry="7.48" transform="matrix(-1, 0, 0, 1, 380, 0)" /><path d="M126.271,440.973a6.1,6.1,0,0,0-.25-.859,4.278,4.278,0,0,0-1.129-1.49,14.854,14.854,0,0,0-5.165-2.632,46.975,46.975,0,0,0-12.155-1.954A67.623,67.623,0,0,0,92,435.269a28.031,28.031,0,0,0-7.449,2.534,6.275,6.275,0,0,0-2.59,2.316,2.162,2.162,0,0,0,.709,2.612,14.729,14.729,0,0,0,5.632,2.858,43,43,0,0,0,6.381,1.4,68.859,68.859,0,0,0,12.6.609,52.955,52.955,0,0,0,11.32-1.585,21.255,21.255,0,0,0,4.726-1.816c1.357-.767,2.639-1.842,2.715-3.22a2.881,2.881,0,0,1-.564,2,7.433,7.433,0,0,1-1.826,1.791,19.817,19.817,0,0,1-5.024,2.453,35.778,35.778,0,0,1-8.909,1.809,74.964,74.964,0,0,1-10.777-.183,54.924,54.924,0,0,1-9.961-1.753,25.386,25.386,0,0,1-4.536-1.729,7.543,7.543,0,0,1-3.572-3.176,3.163,3.163,0,0,1-.261-1.239,3.265,3.265,0,0,1,.281-1.225,5.355,5.355,0,0,1,1.5-1.818,14.746,14.746,0,0,1,3.9-2.124,39.369,39.369,0,0,1,8.094-2.04,62.585,62.585,0,0,1,7.764-.682,56.689,56.689,0,0,1,14.007,1.242,25.206,25.206,0,0,1,6.96,2.6,8.25,8.25,0,0,1,2.55,2.2A3.025,3.025,0,0,1,126.271,440.973Z" transform="matrix(-1, 0, 0, 1, 380, 0)" /><path class="cls-3" d="M119.684,452.555a6.9,6.9,0,0,1,2.015-.656,19.825,19.825,0,0,0,2.8-.928,34.027,34.027,0,0,0,6.465-3.617,25.963,25.963,0,0,0,2.319-2,21.048,21.048,0,0,0,1.9-2.16,5.235,5.235,0,0,0,1.229-4.309,2.265,2.265,0,0,1,.836.925,3.5,3.5,0,0,1,.355,1.469,4,4,0,0,1-.6,2.336,22.1,22.1,0,0,1-3.737,3.651,30.969,30.969,0,0,1-3.693,2.509,22.047,22.047,0,0,1-6.79,2.675A12.7,12.7,0,0,1,119.684,452.555Z" transform="matrix(-1, 0, 0, 1, 380, 0)" /><path class="cls-3" d="M118.287,453.081c-.1.321-2.561.633-3.494.91a33.783,33.783,0,0,1-5.318,1,30.363,30.363,0,0,1-4.436.256,7.863,7.863,0,0,1-3.728-.738,9.377,9.377,0,0,1,3.226-1.02c4.994.815,8.654-.528,11.569-.63A10.3,10.3,0,0,1,118.287,453.081Z" transform="matrix(-1, 0, 0, 1, 380, 0)" /><path class="cls-4" d="M89.473,400.05a15.714,15.714,0,0,1,6.163-.869l8.072-.051a29.044,29.044,0,0,1,8.06.7c3.036.85,6.387,4.013,9.316,5.237,3.074,1.285,6.606,2.106,8.593,4.98a10.458,10.458,0,0,1,1.372,3.08,17.8,17.8,0,0,1-.538,11.3,19.771,19.771,0,0,1-3.975,6.43c-1.78,1.753-4.282,2.059-6.275,3.422-.955.653-1.762,1.541-2.725,2.182-2.756,1.833-6.257,1.37-9.447,1.943-2.479.445-4.826,1.54-7.3,1.991a28.953,28.953,0,0,1-8.765-.207l-7.277-.916c-1.771-.222-3.661-.5-5.01-1.785-1.84-1.751-2.67-6.087-2.751-8.742a32.43,32.43,0,0,1,.573-9.079c.533-2.07,1.477-4,1.929-6.092.289-1.341.373-2.737.762-4.046,1.018-3.425,3.9-5.693,6.618-7.721" transform="matrix(-1, 0, 0, 1, 380, 0)" /><path d="M100.308,399.506c.029-.168.643-.4,1.379-.578s1.585-.318,2.058-.437a14.519,14.519,0,0,1,5.456-.224,12.946,12.946,0,0,1,7.4,3.33,5.574,5.574,0,0,1-3.391-.108,10.933,10.933,0,0,0-5.92-2c-1.858-.092-3.441.163-4.843.2A12.369,12.369,0,0,1,100.308,399.506Z" transform="matrix(-1, 0, 0, 1, 380, 0)" /><path class="cls-4" d="M89.146,395.424c-2,.188-3.731,1.678-5.569,2.652a12.011,12.011,0,0,1-13.224-1.5l-1.8,7.117a2.068,2.068,0,0,0-.07,1.108,1.633,1.633,0,0,0,.493.679,37.91,37.91,0,0,0,5.264,4.026c2.363,1.56,1.26,2.287.57,5-1.388,5.467-2.011,11.894.2,17.249a19.856,19.856,0,0,0,7.523,8.724c1.124.629,3.706,1.043,4.51,2.007.977,1.172,1.229,4.726,1.874,6.294a1,1,0,0,0,.326.488.861.861,0,0,0,.545.076c2.076-.169,4.9.112,6.8-.713a18.51,18.51,0,0,1-.574-4.169,22.775,22.775,0,0,0,9.039.752,24.577,24.577,0,0,0,7.016-1.112l-1.82,4.378a1.13,1.13,0,0,0-.124.6c.063.419.493.543.833.574l4.4.4a1.188,1.188,0,0,0,.738-.091,1.642,1.642,0,0,0,.521-.691c2.529-4.95,3.567-10.207,5.412-15.464" transform="matrix(-1, 0, 0, 1, 380, 0)" /><path d="M122.058,433.815a21.844,21.844,0,0,1-.834,3.837c-.546,2.094-1.234,4.887-2.261,7.841-.258.739-.544,1.483-.85,2.228-.162.369-.314.744-.487,1.112l-.3.629a4.344,4.344,0,0,1-.392.686,1.5,1.5,0,0,1-1.325.666c-.26,0-.53-.021-.8-.041l-.627-.046-2.6-.19a5.175,5.175,0,0,1-1.422-.269,1.243,1.243,0,0,1-.864-.937,3.15,3.15,0,0,1,.156-1.251c.145-.448.345-.9.511-1.336.115-.289.1-.271.128-.346l.058-.175.1-.31.072-.257.027-.108a.946.946,0,0,0-.192.07l-.136.053a9.811,9.811,0,0,1-.954.32l-.433.111-.208.047-.476.072c-1.321.177-2.543.3-3.887.43a22.278,22.278,0,0,1-8.541-.66l2.086-1.5a10.578,10.578,0,0,0,.177,1.676l.128.671.2.928c.139.627.279,1.26.42,1.895a14.191,14.191,0,0,1-1.357.572l-.709.261-.763.2-.8.145-.659.08c-.335.035-.665.061-.989.08l-1.879.078c-.351.017-.443.011-1.146.058a4.1,4.1,0,0,1-.842.006,2.13,2.13,0,0,1-.765-.143c-1.039-.374-1.469-1.475-1.783-2.592-.1-.329-.115-.436-.162-.611l-.114-.481-.207-.923c-.134-.6-.266-1.174-.418-1.686a6.564,6.564,0,0,0-.236-.678,1.812,1.812,0,0,0-.111-.225c-.022-.043-.023-.04-.035-.052s-.015-.02-.058-.035a2.406,2.406,0,0,0-.308-.156c-.265-.118-.605-.239-.968-.357l-1.183-.377a9.184,9.184,0,0,1-1.466-.594,18.32,18.32,0,0,1-4.28-3.406,22.117,22.117,0,0,1-3.955-5.63,21.012,21.012,0,0,1-1.768-6.63A35.62,35.62,0,0,1,72.832,413.9c.145-.546.327-1.072.494-1.541l.214-.613.038-.113c.008-.021,0-.01.008-.017l.007-.015a.1.1,0,0,0,0-.072,3.239,3.239,0,0,0-.581-.451A40.815,40.815,0,0,1,68.4,407.5l-.568-.535a4.447,4.447,0,0,1-.811-.946,3.145,3.145,0,0,1-.33-2.349c.037-.184.105-.435.14-.559l.09-.319.179-.634.357-1.255.354-1.237q.236-.843.467-1.672.291-1.062.579-2.108l.282-1.022.139-.5a1.663,1.663,0,0,1,.153-.437l2.243,1.724a12.768,12.768,0,0,0,1.095.738l.536.341.3.155a10.455,10.455,0,0,0,2.334.907,10.61,10.61,0,0,0,4.656.189,12.765,12.765,0,0,0,4.119-1.608,10.2,10.2,0,0,1,4.373-1.552,11.126,11.126,0,0,0-3.86,2.6,15.5,15.5,0,0,1-2.1,1.61,12.18,12.18,0,0,1-2.624,1.187,12.432,12.432,0,0,1-5.989.281,12.246,12.246,0,0,1-1.457-.374c-.241-.066-.47-.158-.7-.246l-.345-.132-.167-.065-.028,0c-.15-.007-.195.018-.214.054a.525.525,0,0,0,.038.185.124.124,0,0,0,.022.033l.005,0-.048.206-.094.405c-.251,1.062-.493,1.964-.718,2.669l-.264.828c-.036.073-.047.042-.069.079a.116.116,0,0,0-.025.082.2.2,0,0,0,.01.045.091.091,0,0,1,.005.021l.119.126a27.878,27.878,0,0,0,2.382,2.156c.42.341.849.674,1.286,1s.838.6,1.43,1.084a4.844,4.844,0,0,1,.9.967,2.884,2.884,0,0,1,.508,1.274,3.43,3.43,0,0,1-.1,1.363,8.231,8.231,0,0,1-.325.972c-.206.523-.384.978-.528,1.45s-.3,1.007-.423,1.511c-.269,1.015-.485,2.033-.664,3.049a29.077,29.077,0,0,0-.449,6.044,18.967,18.967,0,0,0,1.067,5.695,16.907,16.907,0,0,0,2.828,4.839,17.191,17.191,0,0,0,4,3.687,4.952,4.952,0,0,0,1.1.549c.409.149.848.285,1.294.432s.9.3,1.369.506a5.521,5.521,0,0,1,.711.371,3.1,3.1,0,0,1,.714.6,5.869,5.869,0,0,1,.934,2.069c.182.651.319,1.285.453,1.9l.2.913c.062.277.153.654.192.78a4.241,4.241,0,0,0,.178.516.391.391,0,0,0,.4.3l.536-.04.851-.032c.612-.018,1.207-.031,1.785-.065.289-.017.572-.039.852-.067l.313-.039.242-.04a4.771,4.771,0,0,0,.468-.115c.074-.027.151-.047.223-.079s.187-.037.128-.138l-.129-.557L95.248,447l-.072-.392a12.756,12.756,0,0,1-.191-2.165l.009-1.37,1.33.411a20.74,20.74,0,0,0,7.732.665c1.286-.1,2.634-.191,3.845-.325a28.422,28.422,0,0,0,6.12-1.639,1.024,1.024,0,0,1-.006.32l-.256.616-.51,1.229q-.51,1.226-1.013,2.435l-.427,1.013c-.064.2-.246.41-.131.62.137.19.391.156.594.193l.8.091,2.268.246c.191,0,.321-.167.412-.33l.147-.26.276-.517c.361-.715.738-1.471,1.091-2.265.72-1.579,1.388-3.281,2.007-4.887C120.488,437.465,121.624,434.69,122.058,433.815Z" transform="matrix(-1, 0, 0, 1, 380, 0)" /><path class="cls-4" d="M103.369,404.028a37.855,37.855,0,0,1,2.326-11.646,2.781,2.781,0,0,1-2.427.714,50.388,50.388,0,0,1-6.215-.672,38.234,38.234,0,0,0,.114,9.5c-.366-1.834-1.988-2.973-3.343-4.132a19.793,19.793,0,0,1-3.873-4.5,3.105,3.105,0,0,0-1.1-1.239,2.48,2.48,0,0,0-1.245-.141l-2.863.168a.633.633,0,0,0-.429.136.775.775,0,0,0-.163.429L83.1,399.056a1.259,1.259,0,0,0,.076.891,1.091,1.091,0,0,0,.643.364,10.849,10.849,0,0,1,5.947,4.605" transform="matrix(-1, 0, 0, 1, 380, 0)" /><path d="M89.742,404.933c-.411-.026-1.853-2.074-4.32-3.248-.3-.15-.617-.278-.936-.4l-.623-.208c-.227-.081-.476-.148-.69-.242a1.308,1.308,0,0,1-.854-1.027,4.7,4.7,0,0,1,.053-1.413l.231-2.039c.06-.6.107-1.145.132-1.6.038-.614.048-1.026.172-2.115a2.785,2.785,0,0,1,.411-1.262,1.845,1.845,0,0,1,1.134-.638c.454-.092,1.042-.119,1.467-.174l.937-.117.474-.057c.178-.018.267-.038.574-.055a3.481,3.481,0,0,1,1.65.266A3.706,3.706,0,0,1,91,391.847l.67.933a19.728,19.728,0,0,0,1.306,1.588,18.346,18.346,0,0,0,1.469,1.443l.091.08a.055.055,0,0,0,.018.011l.027.013.049.021.08.026c.052.013.078.015.081,0s0-.016-.011-.032a1.4,1.4,0,0,0-.072-.193.044.044,0,0,0-.01-.014h0c0-.008,0,.016,0-.015l.012-.406.053-.965c.03-.484.067-.971.121-1.466q.162-1.458.32-2.88l3.279.572,2.037.3,1.461.188.713.08c.066.007.377.038.59.044l.348.012.173.006.086,0a.535.535,0,0,1,.057.086,17.109,17.109,0,0,0,1.78.927c.131.045.178.034.181-.008-.023-.058.07.062.1.1l.134.157c.244.249.468.5.932.91-.179.444-.335.871-.483,1.286-.161.434-.284.8-.395,1.141l-.489,1.469q-.406,1.257-.724,2.429c-.423,1.563-.746,3.011-1.016,4.358a14.718,14.718,0,0,1-1.215-5.079,19.94,19.94,0,0,1-.008-2.86l.056-.67-.035-.222c-.036-.085-.089-.058-.122-.063-.087.019-.108.067-.01-.028a.714.714,0,0,0,.078-.077c.058-.069.036-.133-.023-.206a.465.465,0,0,0-.061-.049.292.292,0,0,0-.039-.026l-.211-.034-.836-.145-1.628-.31-.787-.164c-.156-.042-.2-.07-.316-.108l-.661-.22a2.337,2.337,0,0,0-.182.639l-.069.4-.068.743c-.02.191-.041.661-.049,1-.016.365-.013.731-.015,1.087,0,.716.037,1.433.094,2.151a2.816,2.816,0,0,0-.649,1.572,3.541,3.541,0,0,0-.032.38l-.01.17-.027-.181a1.563,1.563,0,0,0-.318-.65,3.541,3.541,0,0,0-1.878-1.013l-.334-.475a2.74,2.74,0,0,0-.322-.324c-.213-.2-.424-.369-.635-.545l-.63-.527-.547-.487a21.754,21.754,0,0,1-1.672-1.717,22.156,22.156,0,0,1-1.423-1.822c-.215-.305-.434-.651-.581-.841a1.107,1.107,0,0,0-.418-.351.979.979,0,0,0-.45-.056l-.768.065c-.531.047-1.3.108-1.426.129l-.383.045c-.143.018-.176.183-.182.3-.036.283-.042.368-.143,1.024-.161,1.053-.327,2.075-.5,3.068l-.134.74-.085.4c-.055.207-.131.517.091.649.139.075.3.126.47.228l.077.042.144.069.284.154c.193.1.377.224.565.34a9.982,9.982,0,0,1,3.8,4.733Z" transform="matrix(-1, 0, 0, 1, 380, 0)" /><path class="cls-4" d="M76.671,428.011c-2.9.656-5.845-.633-8.582-1.9a51.371,51.371,0,0,0-1.023,6.157,1.947,1.947,0,0,0,.125,1.173,1.7,1.7,0,0,0,.568.53c1.967,1.33,4.623,3.946,6.855,4.591a8.714,8.714,0,0,0,6.731-.535" transform="matrix(-1, 0, 0, 1, 380, 0)" /><path d="M81.361,438.06c.069.341-1.041,1.185-2.593,1.5a13.745,13.745,0,0,1-4.326.058,11.228,11.228,0,0,1-4.635-1.929c-.68-.432-1.328-.884-1.949-1.307-.31-.211-.612-.412-.9-.6l-.342-.22a4.847,4.847,0,0,1-.446-.319,3.183,3.183,0,0,1-.709-.8,3.533,3.533,0,0,1-.468-2l.078-1.1.084-.861c.065-.571.146-1.136.242-1.691l.227-1.208c.1-.519.217-1.028.334-1.521q.364-1.439.713-2.818c1.584.776,3.132,1.59,4.451,2.217.672.357,1.309.68,1.922.953a11.4,11.4,0,0,0,3.5,1.009,4.752,4.752,0,0,1-3.393,2.1,5.01,5.01,0,0,1-3.239-.357c-.322-.2-.169-.2-.218-.284a.714.714,0,0,0-.094-.22,2.685,2.685,0,0,0-.425-.5c-.164-.014-.289.2-.428.448a2.185,2.185,0,0,0-.1.214,2.152,2.152,0,0,0-.112.34c-.085.306-.161.61-.232.912-.14.6-.251,1.2-.339,1.782l-.059.417c-.014.09-.025.179-.031.269a.855.855,0,0,0,.1.514,1.29,1.29,0,0,0,.406.344l.682.47,1.355.976c.871.626,1.7,1.195,2.506,1.662a8.288,8.288,0,0,0,2.248.978,17.906,17.906,0,0,0,2.276.419c.584.048,1.394.2,2.173.228A11.387,11.387,0,0,0,81.361,438.06Z" transform="matrix(-1, 0, 0, 1, 380, 0)" /><path class="cls-4" d="M125.624,410.5a13.887,13.887,0,0,0,4.533-3.174,7.715,7.715,0,0,0,1.223-2.367c.159-.465.182-1.63.681-1.951,1.1-.706,4.9.985,6.148,1.345a1.219,1.219,0,0,1,.436.189.733.733,0,0,1,.2.657,11.608,11.608,0,0,1-4.151,7.985,17.384,17.384,0,0,1-9.592,3.9" transform="matrix(-1, 0, 0, 1, 380, 0)" /><path d="M125.1,417.064c.127-.271,1.549-.5,3.1-1.041a13.925,13.925,0,0,0,4-2.009,15.182,15.182,0,0,0,3.636-4.035,10.923,10.923,0,0,0,1.093-2.442,9.693,9.693,0,0,0,.289-1.265c.036-.186.063-.474.072-.577a.057.057,0,0,0-.02-.029.041.041,0,0,0-.044,0,.009.009,0,0,1-.008,0l-.265-.088-.591-.2c-.766-.268-1.5-.529-2.2-.73a9.6,9.6,0,0,0-.971-.233c-.159-.034-.08-.033-.13-.045-.085.082.019-.37-.358,1.046a8.965,8.965,0,0,1-1.311,2.322,7.445,7.445,0,0,1-1.9,1.632,15.367,15.367,0,0,1-3.662,1.53c.574-1.036,1.638-2.2,2.377-3.24a27.014,27.014,0,0,0,1.375-2.337,8.76,8.76,0,0,0,.506-.792c.025.012.08-.126.128-.269l.18-.574a2.82,2.82,0,0,1,.8-1.375,2.217,2.217,0,0,1,1.425-.445,4.282,4.282,0,0,1,.738.061c.211.035.357.081.536.121a35.318,35.318,0,0,1,3.485,1.313c.294.117.46.193.893.342a1.871,1.871,0,0,1,.961.566,1.514,1.514,0,0,1,.195,1.074c-.016.188-.016.378-.043.562l-.066.446a12.641,12.641,0,0,1-.986,3.186,13.521,13.521,0,0,1-8.345,7.263,9.976,9.976,0,0,1-2.837.406A12.3,12.3,0,0,1,125.1,417.064Z" transform="matrix(-1, 0, 0, 1, 380, 0)" /><path d="M121.315,405.545c-.026-.245.284-.446.685-.57s.871-.178,1.149-.288a4.411,4.411,0,0,1,3.124.178A4.238,4.238,0,0,1,129.1,408.2c-1.207.664-2.394.862-2.463.523a2.74,2.74,0,0,0-2.055-2.25c-.868-.217-1.595-.037-2.195-.236A5.774,5.774,0,0,1,121.315,405.545Z" transform="matrix(-1, 0, 0, 1, 380, 0)" /><path class="cls-4" d="M126.985,415.435c5.25,1.583,9.3,7.377,9.192,13.166a3.571,3.571,0,0,1-.3,1.577c-.6,1.148-2.265,1.545-3.324,2.008a35.6,35.6,0,0,0-2.829-3.983l-1.564,2.6a2.132,2.132,0,0,0-.331.761,2.61,2.61,0,0,0,.251,1.252c1.781,4.891-.842,11.139-6.086,11.074a13.014,13.014,0,0,0-.277-8.67" transform="matrix(-1, 0, 0, 1, 380, 0)" /><path d="M121.734,435.208a6.541,6.541,0,0,1,1.074,2.952,12.575,12.575,0,0,1,.177,2.8c-.008.248-.031.5-.055.744l-.08.643a7.67,7.67,0,0,1-.17.835c-.074.127.079.073.168.068l.279-.035a2.8,2.8,0,0,0,.493-.123,2.494,2.494,0,0,0,.45-.192,2.227,2.227,0,0,0,.517-.286c2.13-1.367,3.171-4.242,2.993-6.925a9.114,9.114,0,0,0-.383-1.973c-.1-.328-.2-.58-.369-1.061a3.128,3.128,0,0,1-.157-.864,2.437,2.437,0,0,1,.2-1.022c.261-.567.422-.77.614-1.125l.84-1.431c.366-.641.738-1.19,1.109-1.777l.14-.217c.021-.063.049-.027.078.013l.084.1.337.391.664.772c.409.471.864,1.06,1.206,1.528l.607.857.5.745,0,0v0l.527-.213a3.481,3.481,0,0,0,.994-.587.989.989,0,0,0,.314-.681,9.309,9.309,0,0,0,.037-1.353,14.08,14.08,0,0,0-8.046-12,9.02,9.02,0,0,1,5.567,1.933,10.417,10.417,0,0,1,3.414,4.139,18.309,18.309,0,0,1,.913,3.273,15.716,15.716,0,0,1,.189,3.252,5.444,5.444,0,0,1-.272,1.692,2.975,2.975,0,0,1-1.163,1.446,6.586,6.586,0,0,1-1.425.7l-.814.294-.945.366-1.227-1.938-.495-.746-.367-.521-.335-.434-.087-.105c-.029-.028-.061-.1-.082-.03l-.139.229-.623,1.039a4.849,4.849,0,0,0-.667,1.3,5.016,5.016,0,0,0,.378,1.381,9.712,9.712,0,0,1,.5,3.315,9.3,9.3,0,0,1-2.087,5.889,6.586,6.586,0,0,1-2.446,1.809,4.864,4.864,0,0,1-.858.29l-.963.155a7.531,7.531,0,0,1-.956.08l-.471.025-.231.01-.12-.064c.287-.888.539-1.714.7-2.456a16.956,16.956,0,0,0,.355-3.974A15.409,15.409,0,0,0,121.734,435.208Z" transform="matrix(-1, 0, 0, 1, 380, 0)" /><path class="cls-4" d="M105.612,403.863a12.826,12.826,0,0,1,3.75-7.014c1.326-1.4,3.059-2.717,5.084-2.451a12.7,12.7,0,0,1,3.918,1.754c1.283.666,3.512,2.44,4.6,1.666a2.878,2.878,0,0,0,.953-1.326,5.427,5.427,0,0,0,.25-3.05,11.162,11.162,0,0,1,5.533,3.442,2.089,2.089,0,0,1,.616,1.176,1.758,1.758,0,0,1-.286.932c-1.389,2.536-4.17,5.378-6.971,6.256" transform="matrix(-1, 0, 0, 1, 380, 0)" /><path d="M123.049,405.217c.092-.359,1.654-1.087,3.076-2.5a15.479,15.479,0,0,0,1.958-2.291,11.424,11.424,0,0,0,.7-1.153,5.559,5.559,0,0,0,.244-.511,1.579,1.579,0,0,0,.071-.268.773.773,0,0,0-.018-.346.829.829,0,0,0-.3-.362c-.07-.056-.1-.058-.2-.144l-.361-.3a11.584,11.584,0,0,0-1.565-1.045l-.209-.111a.254.254,0,0,0-.093-.035l-.119-.025a1.136,1.136,0,0,0-.2-.016c-.1.015-.238-.023-.143.172l.036.154.01.061,0,.026,0,.013s0,.008,0,0l-.021.081a6.63,6.63,0,0,1-.2.642,5.845,5.845,0,0,1-.391.831,4.468,4.468,0,0,1-1.19,1.358,3.417,3.417,0,0,1-2.6.533c-.247-.045-.493-.121-.739-.186-.221-.073-.529-.193-.671-.259-.308-.135-.592-.276-.853-.417-.525-.281-.994-.568-1.409-.812l-2.545-1.417a3.131,3.131,0,0,0-1.686-.477,3.854,3.854,0,0,0-1.762.676A13.52,13.52,0,0,0,110,398.605a20.149,20.149,0,0,0-1.64,1.72,12.24,12.24,0,0,0-2.144,3.615,6.732,6.732,0,0,1-.212-5.265,9.992,9.992,0,0,1,1.168-2.436,5.4,5.4,0,0,1,1.32-1.453,9.3,9.3,0,0,1,4.647-1.826,5.853,5.853,0,0,1,2.469.434,11.081,11.081,0,0,1,1.838,1.019c.543.359.991.669,1.516.981.563.349,1.02.684,1.494.981a7.139,7.139,0,0,0,1.241.663.909.909,0,0,0,.959-.082,1.586,1.586,0,0,0,.375-.485,2.421,2.421,0,0,0,.126-.29c.046-.128.09-.257.123-.388a3.6,3.6,0,0,0,.062-1.451c-.053-.545-.134-1.135-.228-1.7a.739.739,0,0,0,.319-.263c.024-.016.008-.066.066-.054l.188.048.375.1c.492.131.971.268,1.452.419a11.327,11.327,0,0,1,1.452.592c.243.108.476.252.714.377.241.145.364.211.545.33a11.776,11.776,0,0,1,1.828,1.433c.139.13.272.265.4.4a5.294,5.294,0,0,1,.5.592,2.705,2.705,0,0,1,.541,1.391,3.1,3.1,0,0,1-.537,1.765,11.154,11.154,0,0,1-.715,1.113,12.7,12.7,0,0,1-1.6,1.826,9.476,9.476,0,0,1-3.06,1.945A7.5,7.5,0,0,1,123.049,405.217Z" transform="matrix(-1, 0, 0, 1, 380, 0)" /><path class="cls-5" d="M76.02,416.624l1.844-3.253a1.592,1.592,0,0,1,.586-.689c.557-.278,1.163.242,1.6.719a13.829,13.829,0,0,0,4.383,3.576c.981.425,3.106.93,4,.041.59-.585.592-1.569,1.29-2.052.931-.644,2.541-.133,3.485.3,1.907.87,2.314,2.913,3.277,4.74a15.029,15.029,0,0,1,.468-2.6,17.729,17.729,0,0,0,4.909,1.629c1.609.339,1.975,1.162,2.28,2.964.523,3.084.889,5.906,3.65,7.661a11.975,11.975,0,0,1-.1-5.227c.984.135,1.546,1.3,1.825,2.338s.514,2.226,1.342,2.828a3.4,3.4,0,0,0,2.95.086c2.985-.842,7.227-.417,9.709-2.489a9.925,9.925,0,0,0,2.007,3.516c.664.744-5.116,4.307-5.557,5.047-.547.919-2.094,7.811-4.266,4.818l-.324-1.2a29.5,29.5,0,0,1-22.4,1.413l.873,5.095c-.722,1.013-2.318.35-2.929-.759-1.591-2.89-1.164-4.858-4.527-5.709-1.929-.488-3.776-1.629-5.575-2.068-2.411-.589-5.162-.234-7.7-.906-.669-.177-1.987-1.73-2.48-2.257a1.55,1.55,0,0,1-.162-2.007,39.315,39.315,0,0,0,7.381.538c-.729-3.044-1.916-5.227-2.981-8.13a4.819,4.819,0,0,1,.378-4.6" transform="matrix(-1, 0, 0, 1, 380, 0)" /><path class="cls-4" d="M77.569,421.856a9.815,9.815,0,0,0,3.813-1.455,10.85,10.85,0,0,0,2.084-2.305,15.75,15.75,0,0,0,3.137-5.773l3.763,1.414a.651.651,0,0,1,.343.225.777.777,0,0,1,.011.6,25.656,25.656,0,0,1-2.285,6.382,8.261,8.261,0,0,1-4.825,4.123" transform="matrix(-1, 0, 0, 1, 380, 0)" /><path d="M83.606,425.05a21.6,21.6,0,0,0,2.273-1.521,8.886,8.886,0,0,0,2.22-3.071,30.11,30.11,0,0,0,1.4-4.7l.256-1.154c.01-.055-.017-.109-.076-.1l-.031,0-.3-.1-.6-.209-1.188-.414c-.33-.118-.241-.079-.258-.08a.017.017,0,0,0-.005.01l.005.013-.068.192-.1.253c-.065.17-.143.332-.216.5a13.53,13.53,0,0,1-1.028,1.808,32.5,32.5,0,0,1-2.327,3,9.238,9.238,0,0,1-1.365,1.3,6.025,6.025,0,0,1-1.607.856,11.184,11.184,0,0,1-2.948.53c.727-.615,1.883-1.254,2.671-1.962.784-.677,1.257-1.475,1.679-1.862a25.965,25.965,0,0,0,2.619-2.941,11.039,11.039,0,0,0,.955-1.538c.07-.13.127-.264.188-.395s.106-.247.19-.477c.137-.415.251-.825.357-1.219l4.446,1.7a.8.8,0,0,1,.415.47,1.323,1.323,0,0,1,.008.638l-.244,1.042c-.146.611-.3,1.208-.459,1.79a12.915,12.915,0,0,1-3.077,5.9,6.27,6.27,0,0,1-2.068,1.36A5.377,5.377,0,0,1,83.606,425.05Z" transform="matrix(-1, 0, 0, 1, 380, 0)" /><path class="cls-4" d="M94.279,424.375a47.057,47.057,0,0,0,2.953,14.483,41.7,41.7,0,0,1,5.244-.633c-.831-2.089-3.462-8.891-2.048-11.018" transform="matrix(-1, 0, 0, 1, 380, 0)" /><path d="M100.442,427.215c.059.117-.092.4-.121.87a7.05,7.05,0,0,0,.072,1.773,16.832,16.832,0,0,0,.992,3.684l2.33,5.473-2.353.208-.733.091-.631.091-1.251.205-1.988.375-.2.04-.662-1.825-.344-1.015c-.221-.677-.42-1.355-.6-2.029a36.588,36.588,0,0,1-.83-3.965,23.512,23.512,0,0,1-.143-6.815,22.953,22.953,0,0,1,1.948,5.774,28.687,28.687,0,0,0,.587,4.564c.147.717.319,1.411.506,2.079l.291.983.2.616c1-.195,3.948-.563,4.291-.594l-.237-.532-.128-.3-.187-.469c-.247-.621-.469-1.231-.673-1.827a18.979,18.979,0,0,1-.865-3.478,7.985,7.985,0,0,1,.03-2.4A3.145,3.145,0,0,1,100.442,427.215Z" transform="matrix(-1, 0, 0, 1, 380, 0)" /><path class="cls-5" d="M134.273,427.682a2.135,2.135,0,0,1,.188.779c-.01,1.114-1.485,1.523-1.746,2.595.312-1.283-1.334-2.662-2.058-3.37-1.071-1.047-2.025-2.711-3.141-3.565a.675.675,0,0,1-.346-.9l.7-2.73C130.819,422.513,132.811,423.917,134.273,427.682Z" transform="matrix(-1, 0, 0, 1, 380, 0)" /><path class="cls-5" d="M124.472,423.76c1-.489,1.412-3.128,2.062-4.147a1.048,1.048,0,0,1,.463-.47.92.92,0,0,1,.552.038l2.595.723c-.837,1.9-1.377,4.542-3.149,5.4-.712.346-7.493-.268-7.855-.984a60.264,60.264,0,0,0,3.691,6.43,4.358,4.358,0,0,1-5.224-1.471c-1.251-1.689-1.9-4.725-2.837-6.7,2.554-.448,5.962,1.041,8.543,1.273A2.177,2.177,0,0,0,124.472,423.76Z" transform="matrix(-1, 0, 0, 1, 380, 0)" /><path class="cls-5" d="M116.728,417.368c-2.514,2.366,2.354,3.587,4.085,3.816-.186.584-.985-.188-1.171.4a1.149,1.149,0,0,1-.35.617.908.908,0,0,1-.393.128,13.851,13.851,0,0,1-7.785-1.043.7.7,0,0,1-.393-.318.843.843,0,0,1-.021-.444l.412-3.121a.855.855,0,0,1,.141-.437.729.729,0,0,1,.4-.2c2.624-.708,4.661-2.921,7.053-4.3a.545.545,0,0,1,.409-.1.64.64,0,0,1,.311.3c.266.41,1.146,2.176,1.412,2.586C119.818,416.615,118.008,416.313,116.728,417.368Z" transform="matrix(-1, 0, 0, 1, 380, 0)" /><path class="cls-5" d="M102.725,417.05c-.618-1.583-2.027-2.6-2.934-4a7.106,7.106,0,0,1-1.084-4.294l-3.063.773a.721.721,0,0,0-.5.3.881.881,0,0,0-.045.506,26.7,26.7,0,0,0,1.233,5.622c.451,1.343,1.235,2.831,2.522,2.963" transform="matrix(-1, 0, 0, 1, 380, 0)" /><path class="cls-5" d="M101.729,419.79a9.892,9.892,0,0,0,5.982-4.937l1.672,2.506a1.888,1.888,0,0,1,.449,1.571,1.577,1.577,0,0,1-.632.71,17.692,17.692,0,0,1-6.974,3.031" transform="matrix(-1, 0, 0, 1, 380, 0)" /><path class="cls-5" d="M79.693,415.589a9.7,9.7,0,0,1-1.582-3.077c-.278-1.008-.558-1.815.38-2.552,1.576-1.239,1.707.747,2.328,1.8a6.218,6.218,0,0,0,2.657,2.3C82.52,414.64,80.87,416.275,79.693,415.589Z" transform="matrix(-1, 0, 0, 1, 380, 0)" /><path class="cls-5" d="M74.657,407.7a10.447,10.447,0,0,0,6.184,1.215l.314,1.948a14.185,14.185,0,0,1-5.713-.407,2.6,2.6,0,0,1-1.569-.886c-.367-.525-.292-1.454.271-1.668" transform="matrix(-1, 0, 0, 1, 380, 0)" /><path class="cls-4" d="M94.227,415.448l3.718,3.765c.174.176.365.419.287.663a.635.635,0,0,1-.242.288A33.846,33.846,0,0,1,89.566,425a.609.609,0,0,1-.477.047.711.711,0,0,1-.268-.31l-1.061-1.831a25.286,25.286,0,0,0,6.281-6.2" transform="matrix(-1, 0, 0, 1, 380, 0)" /><path class="cls-4" d="M108.758,445.516l-.692-3.605a.5.5,0,0,1,.137-.528.75.75,0,0,1,.319-.121,35.911,35.911,0,0,1,8.426-.77c.139,0,.291.016.36.109a.4.4,0,0,1,.031.285l-.191,1.535a29.614,29.614,0,0,0-7.613,2.308" transform="matrix(-1, 0, 0, 1, 380, 0)" /><path d="M116.84,417.6a6.721,6.721,0,0,1,2.274-1.3,11.838,11.838,0,0,0,3.076-1.78,7.209,7.209,0,0,0,1.3-1.613,1.226,1.226,0,0,0,.22-.688c-.022-.112-.068-.185-.311-.41l-1.8-1.52-.9-.771c-.128-.107-.348-.3-.381-.32,0-.012-.018.023.015-.024l.089-.131a2,2,0,0,0,.112-.192.691.691,0,0,0,.075-.2l0-.018h0c-.077,1.3-.03.36-.05.65l-.029,0-.056-.008-.114-.022a1.2,1.2,0,0,1-.294-.108,1.982,1.982,0,0,1-.269-.166c-.068-.051-.067-.05-.064-.046h-.011l-.008.006s0,.017,0,.017,0,.006,0,0l-.22.336c-.167.26-.358.5-.537.751-.37.488-.764.948-1.169,1.384a16.082,16.082,0,0,1-2.605,2.231,13.643,13.643,0,0,1-5.241,2.205c.612-.677,1.491-1.461,2.266-2.19a14.914,14.914,0,0,1,1.921-1.639,13.261,13.261,0,0,0,2.608-1.957,12.68,12.68,0,0,0,1.063-1.147,11.582,11.582,0,0,0,1.018-1.413l.423-.445c.054-.093.185-.092.277-.064a1.186,1.186,0,0,1,.273.116,2.9,2.9,0,0,1,.53.406,3.367,3.367,0,0,0,.4.338,1.032,1.032,0,0,1-.036.1.307.307,0,0,0-.038.089l-.008.05v.038c.033-.572.013-.158.023-.286l.064.008a.864.864,0,0,1,.227.069,1.282,1.282,0,0,1,.3.2l.374.336.715.639,1.394,1.215c.228.2.45.373.695.614a1.944,1.944,0,0,1,.572.981,2.582,2.582,0,0,1-.607,1.951,7.3,7.3,0,0,1-1.171,1.27,9.172,9.172,0,0,1-2.7,1.523A36.151,36.151,0,0,1,116.84,417.6Z" transform="matrix(-1, 0, 0, 1, 380, 0)" /><path d="M108.217,424.273a6.786,6.786,0,0,1,.667,1.785c.143.5.308,1.074.482,1.684l.26.942.114.409a.891.891,0,0,0,.125.3.382.382,0,0,0,.392.1c.159-.033.218-.059.461-.12l1.194-.317c.761-.2,1.44-.394,1.953-.553l1.689-.513a.729.729,0,0,0,.289-.152c.084-.093-.022-.217-.08-.29a1.75,1.75,0,0,1-.1-.141l-.253-.409-.505-.822-.559-.926-.9-1.535-.875-1.544-.22-.39c-.058-.12-.229-.324,0-.222l.85.191c1.105.245,2.294.526,3.458.828a28.381,28.381,0,0,0,3.612.707,8.456,8.456,0,0,0,2.656-.061,2.289,2.289,0,0,0,.494-.132c.086-.048.037-.012.079-.064A3.856,3.856,0,0,0,123.76,422c.166-.933.293-1.86.385-2.775q.051-.576.1-1.142a.516.516,0,0,0,.034-.129h-.109s-.036.006-.007,0l-.206.047a13.047,13.047,0,0,1-1.628.278,22.25,22.25,0,0,1-3.045.11c-1.923-.053-3.634-.23-5.149-.3A24.592,24.592,0,0,1,119,416.93l4.059-.717.493-.079a2.335,2.335,0,0,0,.42-.11l.484-.157c.636-.2,1.2-.4,1.7-.573a36.237,36.237,0,0,1-.25,3.7q-.158,1.212-.376,2.372l-.233,1.147a4.411,4.411,0,0,1-.391,1.224,1.8,1.8,0,0,1-1.166.873,7.046,7.046,0,0,1-1.165.194,14.441,14.441,0,0,1-4.331-.421l-3.079-.742-.259-.054a1.125,1.125,0,0,0,.125.23l.286.475.692,1.154.951,1.617a1.811,1.811,0,0,1,.376,1.125,1.1,1.1,0,0,1-.769.8c-.941.276-1.306.333-1.877.482l-1.568.371-1.521.342-.744.158a2.692,2.692,0,0,1-1.048.1.927.927,0,0,1-.554-.31,2.24,2.24,0,0,1-.367-1.045l-.139-.839-.246-1.682C108.349,425.488,108.246,424.586,108.217,424.273Z" transform="matrix(-1, 0, 0, 1, 380, 0)" /></svg>