<svg xmlns="http://www.w3.org/2000/svg" id="holiday1" viewBox="0 0 380 600"><defs transform="matrix(-1, 0, 0, 1, 380, 0)"><style>.cls-1{opacity:0.3;}.cls-2{fill:#14d8c3;}.cls-3{fill:#0c3744;}.cls-4{fill:#7a9299;}.cls-5{fill:#ffffff;}</style></defs><g class="cls-1" transform="matrix(-1, 0, 0, 1, 380, 0)"><ellipse cx="130.749" cy="570.628" rx="27.578" ry="13.789" transform="translate(-66.396 19.406) rotate(-6.774)" /><path d="M158.074,567.382a2.63,2.63,0,0,1-.657-1.053,9.7,9.7,0,0,0-.548-.918,6.167,6.167,0,0,0-.792-1.056,14.77,14.77,0,0,0-6.058-3.961,32.267,32.267,0,0,0-8.443-1.882,35.061,35.061,0,0,0-7.142.044,56.969,56.969,0,0,0-18.923,5.5,29.86,29.86,0,0,0-4.04,2.572,14.787,14.787,0,0,0-3.089,3.042,7.388,7.388,0,0,0-.533.793c-.127.265-.268.523-.405.777a7.4,7.4,0,0,1-.238.734c-.061.237-.047.455-.1.675a3.558,3.558,0,0,0,.754,2.371,7.022,7.022,0,0,0,.913,1.027c.186.168.419.321.62.487a4,4,0,0,0,.669.475,11.823,11.823,0,0,0,1.526.858c.274.13.53.277.816.4l.874.343a32.974,32.974,0,0,0,7.572,1.817,55.218,55.218,0,0,0,15.645-.357,43.915,43.915,0,0,0,13.508-4.3c3.79-2.055,6.829-4.888,7-8.254a12.321,12.321,0,0,1,.626,1.212,11.739,11.739,0,0,1,.305,1.549,11.988,11.988,0,0,1-.1,1.765,11.65,11.65,0,0,1-.5,1.845,17.876,17.876,0,0,1-4.7,6.626,27.785,27.785,0,0,1-6.243,4.269,19.869,19.869,0,0,1-5.135,1.791,69.217,69.217,0,0,1-14.991.653A49.068,49.068,0,0,1,112.58,584.5a25.175,25.175,0,0,1-6.05-3.16,11.906,11.906,0,0,1-4.3-5.54,9.186,9.186,0,0,1,.558-6.942,15.967,15.967,0,0,1,3.946-4.98,33.832,33.832,0,0,1,9.911-5.87,51.4,51.4,0,0,1,10.247-2.895,43.527,43.527,0,0,1,19.2.584,20.494,20.494,0,0,1,9.04,5.036,10.514,10.514,0,0,1,2.559,3.952A8.264,8.264,0,0,1,158.074,567.382Z" /></g><path class="cls-2" d="M149.38,554.045c-14.133-30.8-18.071-59.706-32.876-123.14L76.885,277.875c-10.467-54.56-17.161-66.795-17.431-120.768-.025-5.16-.566-21.474-2.079-26.407s-6.8-9.172-11.665-7.447a12.436,12.436,0,0,0-5.229,4.313c-9.187,11.527-9.864,29.674-10.015,44.413a236.717,236.717,0,0,0,5.028,47.71c3.96,18.521,12.92,44.041,16.88,62.561l60.543,243.663c3.567,12.606,4.483,20.959,11.029,32.307,2.485,4.308,5.308,10.638,9.506,13.3s10.12,3.221,13.951.05C152.215,567.591,151.985,559.723,149.38,554.045Z" transform="matrix(-1, 0, 0, 1, 380, 0)" /><path d="M149.435,554.019a12.9,12.9,0,0,1,1.228,2.693,18.97,18.97,0,0,1,1.019,5.692,15.53,15.53,0,0,1-.411,3.88,11.359,11.359,0,0,1-1.892,4.148,9.945,9.945,0,0,1-4.066,3.214,12.141,12.141,0,0,1-5.62.827,14.521,14.521,0,0,1-10.767-6.1,47,47,0,0,1-3.627-5.681q-1.669-2.961-3.416-6.062a71.24,71.24,0,0,1-5.665-13.8c-1.467-4.916-2.624-9.986-4.062-15.069-10.536-41.088-22.25-87.786-29.077-113.691-6.009-22.869-12.169-46.594-18.4-70.8l-18.8-73.573c-3.4-12.234-7.32-24.44-10.729-36.879-1.712-6.2-3.254-12.573-4.406-18.954S28.666,201.09,28,194.682s-1.106-12.83-1.212-19.28c-.041-3.253,0-6.4.073-9.6s.234-6.4.5-9.616a93.121,93.121,0,0,1,1.269-9.657,59.881,59.881,0,0,1,2.522-9.578,44,44,0,0,1,4.423-9.129c.479-.714,1-1.407,1.5-2.107a22.773,22.773,0,0,1,1.646-2.034,14.826,14.826,0,0,1,4.888-3.747,11.012,11.012,0,0,1,6.091-.806,12.849,12.849,0,0,1,5.285,2.137,15.845,15.845,0,0,1,6.172,8.463l.319,1.237.223,1.125c.134.739.239,1.445.34,2.154q.281,2.1.463,4.15c.252,2.736.427,5.44.569,8.142s.242,5.392.306,8.1q.06,4,.12,8l.056,3.958.126,3.946c.083,2.63.154,5.258.313,7.873a292.758,292.758,0,0,0,3.095,31.06c1.59,10.229,3.805,20.374,5.983,30.525,2.194,10.129,4.362,20.318,6.315,30.33.5,2.49.917,4.982,1.492,7.457q.947,3.705,1.891,7.394,1.883,7.38,3.751,14.7l14.56,57.4q7.05,28.089,13.736,54.725c2.173,8.882,4.5,17.545,6.31,26.263,1.905,8.669,3.7,17.164,5.454,25.513,3.5,16.688,6.7,32.739,10.306,47.854,1.815,7.554,3.793,14.857,6.029,21.862s4.748,13.7,7.5,20.073a186.1,186.1,0,0,1-8.73-18.755c-2.794-6.964-5.382-14.582-7.774-22.568-4.761-15.984-9.015-33.337-13.243-50.149-2.107-8.4-4.185-16.677-6.181-24.632q-.75-2.973-1.483-5.882l-1.594-5.738c-1.038-3.777-2.046-7.448-3.018-10.987-3.861-14.163-7.026-26.245-9.04-34.607q-12.16-50.478-23.909-97.868c-1.08-3.918-1.7-7.969-2.47-11.954l-2.307-11.839L65.841,235.23c-1.6-7.74-3.145-15.457-4.34-23.19-1.21-7.729-2.067-15.456-2.636-23.128-.605-7.674-.811-15.3-.981-22.849q-.054-5.647-.109-11.25c-.069-3.709-.21-7.414-.425-11.087a101.636,101.636,0,0,0-1.092-10.816,12.979,12.979,0,0,0-.62-2.38,10.463,10.463,0,0,0-4.569-5.268,6.176,6.176,0,0,0-4.205-.719,7.612,7.612,0,0,0-3.775,2.373,32.383,32.383,0,0,0-5.6,8.575c-2.861,6.316-4.094,13.294-4.779,20.207-.332,3.469-.511,6.95-.6,10.431s-.14,6.965-.068,10.4c.14,6.889.662,13.731,1.432,20.484s1.8,13.425,3.114,19.968,3.041,12.945,4.84,19.3,3.689,12.632,5.535,18.883,3.652,12.468,5.271,18.7q.583,2.346,1.165,4.683c.363,1.555.692,3.118,1.1,4.652q1.166,4.617,2.321,9.2,9.24,36.633,17.872,70.859c11.491,45.664,22.112,88.236,31.738,128.087,2.316,9.46,4.972,20.668,7.7,32.362.325,1.468.711,2.918,1.089,4.384q.54,2.217,1.083,4.446c.7,2.968,1.379,5.931,2.155,8.836a76.1,76.1,0,0,0,2.743,8.489,69.133,69.133,0,0,0,3.734,7.907c1.42,2.612,2.642,5.18,4.076,7.521a17.242,17.242,0,0,0,5.131,5.79,13.57,13.57,0,0,0,6.877,2.1,9.535,9.535,0,0,0,6.192-1.964,9.994,9.994,0,0,0,3.218-4.932,15.447,15.447,0,0,0,.62-5.144A20.917,20.917,0,0,0,149.435,554.019Z" transform="matrix(-1, 0, 0, 1, 380, 0)" /><path class="cls-2" d="M46.449,272.987C36.709,224.681,26.2,201.338,7.21,155.867c-2.935-7.026-5.446-16.434.511-21.175,3.82-3.041,9.634-2.3,13.666.456s6.666,7.079,9.073,11.326c30.752,54.254,40.047,92.375,52.933,153.392l26.83,130.206c14.161,61.982,25.425,103.943,29.4,133.075.863,6.322-.534,14.19-6.367,16.774-7.283,3.227-14.591-4.851-17.171-12.387a74.713,74.713,0,0,1-3.355-13.429c-5.481-37.877-10.965-64.025-23.16-112.933Z" transform="matrix(-1, 0, 0, 1, 380, 0)" /><path d="M46.508,272.972c1.567,3.583,10.988,39.112,21.77,80.224,5.385,20.558,11.133,42.505,16.385,62.558,2.63,10.027,5.137,19.58,7.411,28.25,2.211,8.693,4.2,16.5,5.852,23.008,2.892,11.5,5.717,23.252,8.307,35.241s4.925,24.215,6.991,36.6q.754,4.645,1.511,9.315l.728,4.677c.238,1.568.478,2.987.807,4.481a76.735,76.735,0,0,0,2.494,8.785,22.243,22.243,0,0,0,4.087,7.263,16.118,16.118,0,0,0,2.91,2.682,8.4,8.4,0,0,0,3.139,1.358,4.84,4.84,0,0,0,2.929-.328,6.055,6.055,0,0,0,2.473-1.916,13.158,13.158,0,0,0,2.273-7.2,22.235,22.235,0,0,0-.16-4.171l-.707-4.664c-2.026-12.512-4.76-25.014-7.615-37.477s-5.873-24.9-8.857-37.273q-4.449-18.58-8.84-36.915c-1.431-6.1-2.905-12.227-4.244-18.3q-1.908-9.118-3.794-18.129c-8.732-42.01-17.417-83.8-25.89-124.56-4.38-20.306-8.94-40.257-14.818-59.384-1.426-4.8-3.038-9.5-4.6-14.2-1.687-4.653-3.32-9.3-5.157-13.845-.882-2.286-1.778-4.559-2.749-6.8s-1.874-4.493-2.852-6.712c-2.008-4.416-3.952-8.831-6.092-13.129-2.044-4.341-4.268-8.568-6.433-12.789-2.2-4.2-4.493-8.348-6.724-12.431-2.227-3.982-4.651-7.567-7.785-9.589a10.856,10.856,0,0,0-5-1.705,6.676,6.676,0,0,0-4.466,1.126,6.385,6.385,0,0,0-2.424,3.833,15.338,15.338,0,0,0,.025,5.594A34.392,34.392,0,0,0,9,152.445c.7,1.955,1.589,4.03,2.413,6.087,3.333,8.209,6.629,16.276,9.783,24.232s6.173,15.8,8.937,23.548,5.231,15.426,7.411,22.974,4.077,14.972,5.7,22.235c1.671,7.255,3.031,14.356,4.32,21.241-.835-3.03-1.719-6.235-2.644-9.59-.972-3.342-1.912-6.848-3.015-10.443-2.112-7.213-4.554-14.858-7.306-22.7-5.459-15.7-12.437-32.07-19.519-47.919-3.533-7.938-7.016-15.764-10.362-23.284C3.9,157,3,154.947,2.307,152.913a36.648,36.648,0,0,1-1.638-6.4,20.368,20.368,0,0,1,.041-7.048,13.311,13.311,0,0,1,3.582-6.822,12.626,12.626,0,0,1,3.132-2.33,13.963,13.963,0,0,1,3.562-1.233,16.061,16.061,0,0,1,6.807.213,18.054,18.054,0,0,1,5.766,2.522,23.866,23.866,0,0,1,4.229,3.678,42.886,42.886,0,0,1,5.334,7.61c1.341,2.345,2.43,4.449,3.466,6.374A413.516,413.516,0,0,1,58.166,196.4c3.1,7.9,5.741,15.9,8.278,23.843,1.173,4,2.443,7.959,3.5,11.955l1.65,5.965q.768,2.988,1.532,5.966c4.059,15.884,7.367,31.64,10.568,47.147q4.67,23.269,9.193,45.821,9.054,45.1,17.746,87.361.543,2.643,1.084,5.275.6,2.616,1.2,5.219,1.2,5.209,2.4,10.377,2.433,10.335,4.826,20.5,4.846,20.334,9.537,40.013c3.1,13.134,6.071,26.081,8.611,38.927.6,3.22,1.233,6.419,1.761,9.63.277,1.6.554,3.2.784,4.808l.364,2.4.181,1.2.151,1.275a23.724,23.724,0,0,1-1.145,10.251,13.941,13.941,0,0,1-2.79,4.681,10.649,10.649,0,0,1-4.766,3.015,10.342,10.342,0,0,1-5.685.11,13.579,13.579,0,0,1-4.819-2.442,20.128,20.128,0,0,1-3.662-3.6,25.271,25.271,0,0,1-2.763-4.191c-.412-.726-.737-1.5-1.085-2.256-.3-.782-.615-1.579-.852-2.309-.5-1.5-.971-3-1.392-4.52a70.973,70.973,0,0,1-1.939-9.231c-1.8-12.053-3.735-23.871-5.926-35.434-8.827-46.242-20.679-88.655-30.46-128.559C64.681,351.749,49.439,285.915,46.508,272.972Z" transform="matrix(-1, 0, 0, 1, 380, 0)" /><polygon class="cls-3" points="68.921 346.463 82.805 345.88 76.001 314.589 68.626 305.861 61.357 306.386 58.778 317.167 68.921 346.463" transform="matrix(-1, 0, 0, 1, 380, 0)" /><path d="M68.893,346.473c-.876-.611-5.953-15.349-8.259-20.907-.506-1.246-1.022-2.514-1.556-3.827l-.8-2.014q-.2-.514-.405-1.039l-.545-1.447c.377-1.826.773-3.739,1.177-5.7q.291-1.365.586-2.759l.307-1.42.587-2.587,9.437-.812,5.079,5.861,3.329,3.863,1.967,9c.574,2.8,1.137,5.537,1.682,8.188.527,2.655,1.019,5.227,1.471,7.687.556,3.038,1.086,5.934,1.584,8.653L81,347.279l-1.2,0-.966-.006-3.62-.048c-2.292-.044-4.354-.112-6.271-.2a56.675,56.675,0,0,1,6.521-1.681c1.218-.25,2.467-.481,3.7-.686,1.658-.224,1.39-.342,1.49-.447a.861.861,0,0,0-.2-.236c-.014-.023-.014.02-.038-.052L80.3,343.5q-.11-.423-.213-.818a26.34,26.34,0,0,1-.551-2.636c-.641-4.593-1.34-9-2.071-13.222l-1.118-6.18q-.566-2.91-1.105-5.681l-3.609-4.352-3.343-3.948-3.32.269-2.933.255c-.772,3.489-1.506,6.812-2.2,9.928l1.5,4.138,1.5,4.231c.962,2.761,1.852,5.409,2.657,7.97C66.86,337.605,68.584,345.009,68.893,346.473Z" transform="matrix(-1, 0, 0, 1, 380, 0)" /><polygon class="cls-4" points="55.238 316.546 70.433 315.027 76.837 335.332 63.049 336.476 55.238 316.546" transform="matrix(-1, 0, 0, 1, 380, 0)" /><path d="M55.266,316.535c.8.312,4.6,10.086,6.411,13.717L63.008,333c.222.474.446.956.676,1.448l.076.163.035.057.067.109.124.2.253-.066.113-.03.053-.015.2-.027,1.7-.217,3.452-.41,3.478-.385.867-.093a.461.461,0,0,0,.1-.013l.017-.006.032-.013a.442.442,0,0,0,.086-.044l-.054-.083-.022-.028-.01-.011-.005,0s0,0-.024-.064c-1.038-3.069-2.023-6.136-2.939-9.14l-1.321-4.453q-.312-1.1-.619-2.177l-.15-.538c-.015-.071,0-.052,0-.085l0-.15-.121-.035-.08-.016-.529.027-2.1.1-4,.129c-2.573.056-4.948.054-7.065-.008,3.592-2.021,10.716-3.9,13.34-3.871l3.056-.121q.351,1.353.7,2.691l.077.3.039.178.077.356.157.708q.326,1.409.643,2.78.655,2.74,1.351,5.315t1.407,4.988l.726,2.41.991,3.167c-3.857.324-5.75.516-8.136.762l-7.335.764-2.732-6.68c-.761-1.914-1.456-3.755-2.069-5.542A78.271,78.271,0,0,1,55.266,316.535Z" transform="matrix(-1, 0, 0, 1, 380, 0)" /><polygon class="cls-3" points="72.641 356.975 86.171 356.578 92.372 386.813 88.981 396.584 81.695 395.717 75.168 388.158 72.641 356.975" transform="matrix(-1, 0, 0, 1, 380, 0)" /><path d="M72.671,356.973c.693.783,1.888,15.832,2.717,21.6.2,1.488.408,3.006.62,4.576q.147,1.179.3,2.4.073.612.148,1.234l.072.615.036.176.126.112.376.4.822.89,1.677,1.83,1.708,1.88.861.952.215.239.108.119a.229.229,0,0,0,.034.035l.069.059h.067c.053,0-.04-.011.173.011l.907.089,1.826.184,1.835.187.229.023h.022l.038,0,.067-.007.016-.115.421-1.276q.456-1.379.9-2.724c.43-1.293.86-2.583,1.259-3.781l-1.588-7.7c-.521-2.7-1.03-5.347-1.524-7.909-.477-2.565-.92-5.049-1.325-7.426l-.579-3.482-.261-1.647-.018-.491-.287-.034a3.281,3.281,0,0,0-.541-.028l-1.908-.036-3.526-.1c-2.232-.076-4.241-.172-6.107-.285a53.416,53.416,0,0,1,6.376-1.6c1.19-.234,2.409-.449,3.607-.638l1.775-.263,3.182-.265c.452,1.8.865,3.446,1.223,4.871a24.533,24.533,0,0,1,.5,2.528q.834,6.666,1.824,12.8.513,3.058,1,5.983.555,3.029,1.082,5.916l-1.862,5.21q-.956,2.751-1.855,5.345l-8.234-.911c-2.477-2.784-4.845-5.443-7.075-7.949-.319-3.452-.622-6.732-.912-9.864-.257-3.031-.468-5.921-.609-8.695C72.4,365.782,72.6,358.42,72.671,356.973Z" transform="matrix(-1, 0, 0, 1, 380, 0)" /><polygon class="cls-4" points="71.617 391.518 84.845 392.454 82.696 372.471 69.117 373.012 71.617 391.518" transform="matrix(-1, 0, 0, 1, 380, 0)" /><path d="M71.586,391.522c-.693-.442-1.952-9.944-2.8-13.556-.168-.75-.339-1.511-.516-2.3l-.064-.3-.087-.48-.181-1.013q-.183-1.062-.374-2.17l8.228-.652,3.432-.242,1.869-.118,3.288-.171c.167,1.387.326,2.712.484,4.02.4,3.082.747,6.152,1.031,9.132l.38,4.394c.172,2.137.341,4.225.505,6.249l-3.516-.347-.834-.085-.492-.063-.9-.121L77.6,393.2c-2.2-.35-4.223-.722-6.024-1.109a29.566,29.566,0,0,1,6.767-1.518c1.209-.145,2.38-.232,3.4-.255l.731,0c.163,0,.131-.007.131-.007v-.01a.173.173,0,0,0,.032.046.742.742,0,0,0,.129.109.125.125,0,0,0,.153-.039.385.385,0,0,0,.062-.1.2.2,0,0,0,.026-.087l0-.342q-.024-1.368-.047-2.7-.07-2.663-.219-5.176t-.353-4.878q-.19-1.993-.37-3.862l-2.916.145-3.468.2-3.311.217-1.284.094-.743.069.124.682.058.32.095.617q.195,1.344.382,2.63c.237,1.719.433,3.369.572,4.963A65.551,65.551,0,0,1,71.586,391.522Z" transform="matrix(-1, 0, 0, 1, 380, 0)" /><path class="cls-5 color-body" d="M96.834,452.857c-7.564,4.32-18.653-.858-24.768-11.564s-4.717-20.952,1.391-27.235c5.317-5.469,14.467-8.6,20.581,2.106S104.4,448.537,96.834,452.857Z" transform="matrix(-1, 0, 0, 1, 380, 0)" style="fill:#ffffff;--backup-fill:#ffffff" /><path d="M96.8,452.8c.046-.422,1.026-1.206,1.714-2.849a17.521,17.521,0,0,0,1.112-6.673,43.929,43.929,0,0,0-2.694-14.448,76.8,76.8,0,0,0-3.785-8.3,27.87,27.87,0,0,0-2.365-3.781,12.792,12.792,0,0,0-2.746-2.831,6.72,6.72,0,0,0-6.3-.955,13.964,13.964,0,0,0-6.054,4.4,16.522,16.522,0,0,0-3.459,12.363,25.271,25.271,0,0,0,1.636,6.6c.405,1.075.913,2.113,1.413,3.148.552.989,1.089,1.981,1.72,2.9a24.754,24.754,0,0,0,9.06,8.449,12.747,12.747,0,0,0,10.215,1.044,8.883,8.883,0,0,1-4.918,3.609,14.949,14.949,0,0,1-7.651.225,19.831,19.831,0,0,1-6.731-2.842,20.5,20.5,0,0,1-2.368-1.838,16.591,16.591,0,0,1-1.543-1.711,42.388,42.388,0,0,1-3.689-6.434,43.357,43.357,0,0,1-2.322-6.616,27.533,27.533,0,0,1-.23-13.271,22.307,22.307,0,0,1,2.376-5.9,21.348,21.348,0,0,1,3.852-4.77,20.272,20.272,0,0,1,4.885-3.4,14.064,14.064,0,0,1,5.775-1.487,11.06,11.06,0,0,1,5.786,1.422,14.694,14.694,0,0,1,4.29,3.634,35.116,35.116,0,0,1,4.964,8.72,51.165,51.165,0,0,1,4.016,17.2,22.91,22.91,0,0,1-1.443,9.393,10.438,10.438,0,0,1-2.36,3.673A5.9,5.9,0,0,1,96.8,452.8Z" transform="matrix(-1, 0, 0, 1, 380, 0)" /></svg>