<svg xmlns="http://www.w3.org/2000/svg" id="uniforms_1" viewBox="0 0 380 600"><defs transform="matrix(-1, 0, 0, 1, 380, 0)"><style>.cls-1{fill:#fff;}.cls-2{fill:#ffffff;}</style></defs><circle class="cls-1" cx="108.15" cy="424.43" r="25.49" transform="matrix(-1, 0, 0, 1, 380, 0)" /><path d="M133.59,424.43a4.55,4.55,0,0,1-.38-1.43c-.07-.38-.11-.83-.22-1.33s-.23-1.05-.36-1.65a27.13,27.13,0,0,0-3.52-8.37,25.09,25.09,0,0,0-7.29-7.33,21.39,21.39,0,0,0-7.77-3.12,24.28,24.28,0,0,0-21.34,6.19A23.3,23.3,0,0,0,89,411.88a23.05,23.05,0,0,0-1.37,2.54c-.19.44-.42.87-.58,1.32l-.47,1.35a22.7,22.7,0,0,0-.71,11.1,23.17,23.17,0,0,0,27.48,18.46,23.88,23.88,0,0,0,14-8.61,26.11,26.11,0,0,0,3.82-6.66,28.8,28.8,0,0,0,1.6-6.95,19.9,19.9,0,0,1,.57,7.63,23.31,23.31,0,0,1-3,8.76,23.68,23.68,0,0,1-5.91,6.81,15,15,0,0,1-1.62,1.14,13.3,13.3,0,0,1-1.54.92,15.44,15.44,0,0,1-2.69,1.16,28,28,0,0,1-9.37,1.36,28.73,28.73,0,0,1-8.87-1.54,29.57,29.57,0,0,1-7.61-4,28.1,28.1,0,0,1-5.82-5.86,26.54,26.54,0,0,1-3.75-7,27.72,27.72,0,0,1-1.07-3.73c-.14-.63-.2-1.27-.31-1.89l-.13-1c0-.31,0-.63-.06-.94,0-.63,0-1.26-.08-1.89l.09-1.86a12.61,12.61,0,0,1,.2-1.85c.1-.6.16-1.22.29-1.81a29,29,0,0,1,2.4-6.8,27,27,0,0,1,4-5.75,27.62,27.62,0,0,1,2.43-2.41c.41-.38.88-.71,1.32-1.06a14.16,14.16,0,0,1,1.36-1A26.54,26.54,0,0,1,117.72,399a25.53,25.53,0,0,1,9.44,6.21c.59.64,1.21,1.36,1.83,2.14a27.84,27.84,0,0,1,1.68,2.61,19.68,19.68,0,0,1,1.36,2.9c.19.5.41,1,.56,1.49s.27,1,.41,1.5a23.47,23.47,0,0,1,.72,5.35C133.76,422.74,133.61,423.88,133.59,424.43Z" transform="matrix(-1, 0, 0, 1, 380, 0)" /><path d="M116.93,448.13a3.88,3.88,0,0,1-1.73.34,10,10,0,0,1-1.68-.08l-1-.12-1-.24a28.55,28.55,0,0,1-7-3,23.84,23.84,0,0,1-7.45-6.46,16,16,0,0,1-2.36-4.69,20.27,20.27,0,0,1-.69-2.44,23.58,23.58,0,0,1-.49-2.42,47.91,47.91,0,0,1-.6-8.29,71.85,71.85,0,0,1,.5-7.8,68.29,68.29,0,0,1,2.69-12.82,52.19,52.19,0,0,1,.21,11.67,58.06,58.06,0,0,0-1.15,12.28,30.54,30.54,0,0,0,1.86,10.6,19.58,19.58,0,0,0,5.78,7.18,34.07,34.07,0,0,0,6.93,4.29,28.66,28.66,0,0,0,4,1.51,20.63,20.63,0,0,0,1.93.39Z" transform="matrix(-1, 0, 0, 1, 380, 0)" /><path d="M122.91,446.6c-.17-.31.63-2.41.9-4.93a16.22,16.22,0,0,0,0-3.81,13.22,13.22,0,0,0-.68-3,31,31,0,0,0-4.31-7.61,28.4,28.4,0,0,0-2.87-3.41c-1-1-2.18-2-3.33-2.93a26,26,0,0,1-5.66-5.81,19,19,0,0,1-1.87-3.57c-.21-.63-.46-1.21-.62-1.87a10.19,10.19,0,0,1-.36-2,6.72,6.72,0,0,1,.84-4,6.5,6.5,0,0,1,2.74-2.56,11.72,11.72,0,0,1,5.91-1.26,26,26,0,0,0-2.56,1.31,12.53,12.53,0,0,0-2.41,1.75,5.66,5.66,0,0,0-1.76,3.44c-.39,1.57.2,3.58.89,5.33a15.69,15.69,0,0,0,2.94,4.66c2.45,2.68,5.45,4.67,7.64,7.26a38,38,0,0,1,5.19,7.84,19.6,19.6,0,0,1,1.38,4.1,15.64,15.64,0,0,1,.28,4.06,14.83,14.83,0,0,1-1,4.26A25.34,25.34,0,0,1,122.91,446.6Z" transform="matrix(-1, 0, 0, 1, 380, 0)" /><path class="cls-2 color-body" d="M126.82,461.34c-4.71,7.32-16.94,7.85-27.31,1.17s-13.85-16.4-11.34-24.8c2.2-7.3,8.87-14.31,19.23-7.63S131.54,454,126.82,461.34Z" transform="matrix(-1, 0, 0, 1, 380, 0)" style="fill:#ffffff;--backup-fill:#ffffff" /><path d="M126.77,461.3c-.15-.39.36-1.54.21-3.31a17.6,17.6,0,0,0-2.1-6.44A43.7,43.7,0,0,0,115.82,440a76.76,76.76,0,0,0-7.19-5.61,27.55,27.55,0,0,0-3.84-2.27,13,13,0,0,0-3.74-1.24,6.73,6.73,0,0,0-6,2.06,13.91,13.91,0,0,0-3.34,6.7,16.45,16.45,0,0,0,2.64,12.56,25,25,0,0,0,4.5,5.1c.85.77,1.78,1.46,2.7,2.14s1.88,1.26,2.86,1.78a24.84,24.84,0,0,0,11.94,3.31,12.74,12.74,0,0,0,9.55-3.79,8.94,8.94,0,0,1-2.7,5.47,14.83,14.83,0,0,1-6.68,3.73,19.77,19.77,0,0,1-7.29.59,20.52,20.52,0,0,1-3-.54,16.29,16.29,0,0,1-2.15-.8,42.28,42.28,0,0,1-6.25-4,43.17,43.17,0,0,1-5.11-4.79,27.49,27.49,0,0,1-6.33-11.67,22.36,22.36,0,0,1-.62-6.33,21.48,21.48,0,0,1,1.22-6,20.17,20.17,0,0,1,2.76-5.26,13.94,13.94,0,0,1,4.44-4A11.09,11.09,0,0,1,100,425.7a14.86,14.86,0,0,1,5.48,1.24,35.17,35.17,0,0,1,8.43,5.45,51,51,0,0,1,11.5,13.4,22.76,22.76,0,0,1,3.06,9,10.32,10.32,0,0,1-.4,4.35A5.8,5.8,0,0,1,126.77,461.3Z" transform="matrix(-1, 0, 0, 1, 380, 0)" /></svg>