<svg xmlns="http://www.w3.org/2000/svg" id="uniforms_1" viewBox="0 0 380 600"><defs transform="matrix(-1, 0, 0, 1, 380, 0)"><style>.cls-1{fill:#fff;}.cls-2{fill:#de107f;}.cls-3{fill:#fff3f3;}.cls-4{fill:#ffffff;}</style></defs><path class="cls-1" d="M107.65,445.86h0a4.64,4.64,0,0,1-3,2.76h0l-34.27-37.5,3-2.76Z" transform="matrix(-1, 0, 0, 1, 380, 0)" /><path d="M107.63,445.88c-1.07-.23-11.88-12.1-16.32-16.42-3.12-3-6.36-6.32-9.6-9.68l-4.87-5.09-2.42-2.55-1-1.1-.11-.09c-.06.07,0,.06-.15.18a.48.48,0,0,0-.08.11c.12.11-.18-.23.77.79,6.77,7.21,13.33,14.48,19.17,21.23,2.93,3.38,5.67,6.62,8.18,9.66l3.58,4.4.42.53.1.13,0,0a8.3,8.3,0,1,1-.9-.24h.09l.26-.07a3.86,3.86,0,0,0,1.78-1.15,3.47,3.47,0,0,0,.34-.42l.14-.22.06-.12,0-.06v0h0c.23.09-.53-.21.53.2-1.06-.41-.29-.11-.53-.2h0v.11l0,.13,0,.26a3.68,3.68,0,0,1-.16.54,4.15,4.15,0,0,1-.63,1.08,4.35,4.35,0,0,1-1,.95l-.33.19-.08,0,0,0,0,0-.41-.12h0l-.14-.11-.58-.44c-1.54-1.18-3.15-2.51-4.67-3.83a62.85,62.85,0,0,1-7-6.86c-3.92-5-7.76-9.62-11.47-13.94-1.85-2.17-3.68-4.25-5.46-6.26l-2.64-3-3.1-3.41,4.16-3.81,4.13,4.47,3.49,3.71q3.42,3.65,6.58,7c4.2,4.47,8,8.6,11.45,12.56C102.06,438.34,106.73,444.63,107.63,445.88Z" transform="matrix(-1, 0, 0, 1, 380, 0)" /><circle class="cls-2" cx="62.88" cy="399.58" r="15.65" transform="matrix(-1, 0, 0, 1, 380, 0)" /><path d="M74.4,389a2,2,0,0,1-.8-.44c-.37-.3-.9-.66-1.52-1.08a17.28,17.28,0,0,0-5-2.25,15.08,15.08,0,0,0-6.26-.25,12.52,12.52,0,0,0-4.72,1.83,14.69,14.69,0,0,0-6.78,11.44,13.64,13.64,0,0,0,15.91,14.33A14,14,0,0,0,74,407.2a14.34,14.34,0,0,0,2.83-9.37A16.07,16.07,0,0,0,76,393.3a17.6,17.6,0,0,0-2-3.82,11.26,11.26,0,0,1,3.68,3,14.11,14.11,0,0,1,2.52,5.24,14.38,14.38,0,0,1,.27,5.69,11.73,11.73,0,0,1-1.35,4A17.86,17.86,0,0,1,75.18,412a18.33,18.33,0,0,1-4.82,3A17.79,17.79,0,0,1,60,416a17.08,17.08,0,0,1-13.32-20.72,16.86,16.86,0,0,1,3.72-7.14,16.53,16.53,0,0,1,6.19-4.35,15.69,15.69,0,0,1,7-1.09,14.33,14.33,0,0,1,7.11,2.55A15,15,0,0,1,74.4,389Z" transform="matrix(-1, 0, 0, 1, 380, 0)" /><path class="cls-2" d="M73.67,410.91c5.65-5.1,7.71-12.37,4-18.28a13,13,0,0,0-3.74-3.86,2,2,0,0,0-2.06,0c-3.3,1.76-6.89,2.76-12.45,7.84-4.74,4.33-7.55,8.7-8.48,12-.21.75.81,2.16,2,3.47C58.46,418.13,67.18,416.76,73.67,410.91Z" transform="matrix(-1, 0, 0, 1, 380, 0)" /><path d="M73.69,410.94c0,.44-2.32,3-6,4.59a16.34,16.34,0,0,1-5.88,1.4,14.48,14.48,0,0,1-5-.72,11.92,11.92,0,0,1-4.51-2.61,13.51,13.51,0,0,1-1.9-2c-.47-.57-1.63-2.15-1.2-3.61l.23-.8.18-.56c.13-.37.26-.75.42-1.11.3-.73.66-1.42,1-2.11a30.38,30.38,0,0,1,2.56-3.86,44.27,44.27,0,0,1,6.25-6.49,34,34,0,0,1,6.62-4.43c1.15-.59,2.28-1.09,3.29-1.58l.74-.36.3-.15.39-.18a4.87,4.87,0,0,1,.83-.23,4.2,4.2,0,0,1,3.2.66l.36.26.22.16.43.35c.29.23.56.48.82.73A15.73,15.73,0,0,1,78.47,390a14.49,14.49,0,0,1,2.65,5.62,13.92,13.92,0,0,1,0,5.78,15.94,15.94,0,0,1-2.86,6.11,18.57,18.57,0,0,1-4.12,3.95c.5-1.16,1.15-2.45,1.67-3.85A22.43,22.43,0,0,0,77,403.33a16.62,16.62,0,0,0,.22-3.74c-.09-1.07-.2-1.94-.27-2.56a9.63,9.63,0,0,0-1.2-3.91,10.64,10.64,0,0,0-1.16-1.68,9.46,9.46,0,0,0-.68-.73l-.35-.34-.29-.26a.81.81,0,0,0-.88-.19l-2,.85c-1.36.57-2.65,1.12-3.86,1.77a31.83,31.83,0,0,0-6.49,4.66,34.86,34.86,0,0,0-5,5.53,23.74,23.74,0,0,0-1.81,3c-.25.5-.49,1-.69,1.5-.09.25-.2.49-.28.75l-.12.37-.06.23a.69.69,0,0,0,.06.58,2.52,2.52,0,0,0,.15.27c.08.13.18.26.28.4A14.2,14.2,0,0,0,54,411.35a11.65,11.65,0,0,0,3.12,2.25,11.28,11.28,0,0,0,3.47,1,15.24,15.24,0,0,0,3.51,0A23.11,23.11,0,0,0,69.74,413c.94-.39,1.79-.84,2.49-1.2Z" transform="matrix(-1, 0, 0, 1, 380, 0)" /><path d="M57,408.14c-.46-.51,1.39-2.91,1.93-4a19.64,19.64,0,0,1,4-5.32c2.63-2.73,6.08-4.53,8.76-4.73-.18,2-1.12,4-1.85,4.16a12.84,12.84,0,0,0-6.6,4c-1.55,1.66-2.61,3.34-3.88,4.48A10,10,0,0,1,57,408.14Z" transform="matrix(-1, 0, 0, 1, 380, 0)" /><path class="cls-3" d="M60.31,386.79a.85.85,0,0,0-.38.37,3.56,3.56,0,0,0,2.49,1.14c.95,0,2-.3,1.16-1.27a2.67,2.67,0,0,0-2.37-.9c-.21,0-1.85,0-1.3.64" transform="matrix(-1, 0, 0, 1, 380, 0)" /><path d="M59.9,386.78s-.24,0-.29-.31.41-.47.63-.56a5,5,0,0,1,.73-.16l.6-.13a2.58,2.58,0,0,1,1-.06,3.25,3.25,0,0,1,.52.12,3.07,3.07,0,0,1,.62.32c.84.58,1.42,1.43,1.06,2.24a1.89,1.89,0,0,1-1.62,1,3.73,3.73,0,0,1-1.06,0,2.72,2.72,0,0,1-.72-.19,3.26,3.26,0,0,1-1.76-1.58l-.18-.4.11-.14a1,1,0,0,1,.66-.41,1.21,1.21,0,0,0,0,.79l0-.39c.68,0,1.18,0,1.32.17a1.87,1.87,0,0,0,.7.56,1.31,1.31,0,0,0,.59.16c.2,0,.46-.05.52-.25s-.13-.36-.26-.47a1.15,1.15,0,0,0-.43-.26,2.3,2.3,0,0,0-.6-.15c-.2,0-.41,0-.61,0h-.34l-.32,0a3.55,3.55,0,0,1-.64-.1c-.09,0-.14-.07-.19,0S59.91,386.73,59.9,386.78Z" transform="matrix(-1, 0, 0, 1, 380, 0)" /><path class="cls-4 color-body" d="M124.2,459.14C120.51,467,108.47,469.2,97.3,464s-15.94-14.39-14.57-23.05c1.19-7.53,6.86-15.37,18-10.15S127.89,451.25,124.2,459.14Z" transform="matrix(-1, 0, 0, 1, 380, 0)" style="fill:#ffffff;--backup-fill:#ffffff" /><path d="M124.16,459.12a19.14,19.14,0,0,0-.06-3.34,17.1,17.1,0,0,0-2.88-6.24,46,46,0,0,0-10.47-10.47,71.86,71.86,0,0,0-7.85-4.81,28.17,28.17,0,0,0-4.18-1.84,13.69,13.69,0,0,0-4.11-.84,7.58,7.58,0,0,0-6.45,3.11,14.79,14.79,0,0,0-2.67,7.55A17.29,17.29,0,0,0,90,455.09a25.83,25.83,0,0,0,5.38,4.61,30.44,30.44,0,0,0,6.27,3.15,24.92,24.92,0,0,0,12.71,1.47,13,13,0,0,0,9.05-5.54,9.45,9.45,0,0,1-2.37,5.44,15.08,15.08,0,0,1-6.11,4.12,19.61,19.61,0,0,1-12,.66,38,38,0,0,1-12.28-6.75,26.59,26.59,0,0,1-7.81-10.38,21.56,21.56,0,0,1-1.46-6.05,20.68,20.68,0,0,1,.37-6,19.44,19.44,0,0,1,2-5.48,13.73,13.73,0,0,1,3.76-4.41,10.63,10.63,0,0,1,5.35-2.07,14.18,14.18,0,0,1,5.43.51,34.6,34.6,0,0,1,8.92,4.26,53.34,53.34,0,0,1,13.11,11.62,24,24,0,0,1,4.37,8.27,10.43,10.43,0,0,1,.34,4.27A6.09,6.09,0,0,1,124.16,459.12Z" transform="matrix(-1, 0, 0, 1, 380, 0)" /></svg>