<svg xmlns="http://www.w3.org/2000/svg" id="uniforms_1" viewBox="0 0 380 600"><defs transform="matrix(-1, 0, 0, 1, 380, 0)"><style>.cls-1{fill:#fff;}.cls-2{fill:#51e9f4;}.cls-3{fill:#ffffff;}</style></defs><path class="cls-1 color-electric" d="M53.83,425.52c5.58-10.13,5.1-20,6.59-30.57,12.81-.23,5.86,10.39,7.14,17.29,5.35,7.84,16.58-28.58,14.22-28.95,12.51,2,18.88-4.83,22.87-16.86,7,10-8.59,34.13,12.45,34.43,5.61,3.54,6.53,10.34,11.8,14.29,7.23,5.43,15.31-1.88,19.84-7.71a44.36,44.36,0,0,1,4.49,15.18,5.46,5.46,0,0,1-.23,2.87,5.39,5.39,0,0,1-2.13,2.13,30.15,30.15,0,0,1-8.08,3.69c-.82.24-1.77.55-2,1.35a3,3,0,0,0,.15,1.74,11.08,11.08,0,0,1-1.73,9.3c-2.53,3.45-8.25,6.12-12.49,6.51,21.64,39.62-37.41,38.19-58.2,22.49-5.68-4.29-10.4-10-12.19-17.05-2.69-12.09,33.37-21.43,6.63-24C59,431.15,54.55,429.36,53.83,425.52Z" transform="matrix(-1, 0, 0, 1, 380, 0)" /><path class="cls-2" d="M53.87,425.51a7.23,7.23,0,0,0,2.12,3,13.69,13.69,0,0,0,7.43,2.58,43.31,43.31,0,0,1,5.44.73c.48.11,1,.23,1.5.4a7.81,7.81,0,0,1,1.69.72,3.47,3.47,0,0,1,1.31,1.27,2.24,2.24,0,0,1,.07,1.83,5.37,5.37,0,0,1-1,1.67,9.89,9.89,0,0,1-.69.75l-.62.59c-.85.77-1.74,1.49-2.64,2.19-1.8,1.42-3.67,2.81-5.45,4.33a23.39,23.39,0,0,0-4.68,5.08,7.53,7.53,0,0,0-1.14,3,4.83,4.83,0,0,0,0,1.52c.09.49.3,1.09.46,1.63a29,29,0,0,0,7.5,11.52c6.48,6.37,14.56,9.08,20.21,10.52a72.83,72.83,0,0,0,16.82,2.24c5.71,0,11.59-.54,16.8-2.61a18.31,18.31,0,0,0,6.74-4.38,11.83,11.83,0,0,0,3.1-6.88,19.08,19.08,0,0,0-1-8.07,37,37,0,0,0-1.52-4c-.06-.21-.47-1-.75-1.55l-.93-1.82c-.59-1.2-1.28-2.47-1.8-3.63l3.18-.42c.53-.08,1.08-.14,1.59-.23l1.47-.36.18-.05.16,0,.16-.05.34-.12c.22-.07.44-.17.67-.25.44-.18.88-.36,1.3-.57a15.69,15.69,0,0,0,4.47-3.11,8.11,8.11,0,0,0,2.09-4.29,8.55,8.55,0,0,0,.05-2.42c0-.2-.06-.39-.1-.59a.58.58,0,0,0,0-.14l-.05-.21c0-.21-.13-.47-.18-.71a4.72,4.72,0,0,1,0-2.81,4.49,4.49,0,0,1,2.66-2.65,9.94,9.94,0,0,1,1-.35l.71-.21.93-.32a27.16,27.16,0,0,0,3.58-1.57q.86-.45,1.68-1a11.26,11.26,0,0,0,1.4-1c.32-.28.35-.39.36-.43a3.06,3.06,0,0,0,0-1,41.79,41.79,0,0,0-1.54-7.63c-.18-.61-.39-1.23-.6-1.84l-.31-.86,0-.09c0-.05-.06-.12-.09-.13l-.09.14h0l-.14.14-.51.51c-.34.34-.7.67-1.06,1a26.09,26.09,0,0,1-2.28,1.87,18.93,18.93,0,0,1-5.49,2.92,12.31,12.31,0,0,1-6.85.29,13.54,13.54,0,0,1-5.83-3.33c-3.11-3-4.7-6.51-6.47-9.08a14.66,14.66,0,0,0-2.86-3.23l-.2-.15-.09-.06h0l0,0H116l-.37,0a11.23,11.23,0,0,1-1.49-.15,13.75,13.75,0,0,1-1.52-.25,12.65,12.65,0,0,1-6-2.88,11.74,11.74,0,0,1-3.44-5.93,22.37,22.37,0,0,1-.56-5.91c0-1.86.21-3.64.39-5.37s.37-3.4.52-5l.1-1.21,0-.86v-.07a.6.6,0,0,0,0-.19s0-.1,0-.11l0,.06-.51.77a22.48,22.48,0,0,1-5.14,5.77,17.79,17.79,0,0,1-7.11,3.36,22.59,22.59,0,0,1-3.79.48,14.43,14.43,0,0,1-1.86,0l-.35,0-.1,0-.22,0,0,0a.61.61,0,0,1,0,.19l-.15.78c-.22,1.13-.48,2.21-.76,3.27-.56,2.12-1.2,4.17-1.89,6.19a82.69,82.69,0,0,1-4.95,11.71c-.51.94-1.05,1.87-1.66,2.79l-.26.38-.36.5c-.24.33-.53.68-.8,1a9.54,9.54,0,0,1-1.78,1.62,4.27,4.27,0,0,1-4,.64A4.19,4.19,0,0,1,66.26,414a8.09,8.09,0,0,1-.48-.77,7.25,7.25,0,0,1-.34-1,15.07,15.07,0,0,1-.13-2.36c0-.41,0-.81.06-1.22l.06-.63,0-.4c.13-1,.29-2,.45-2.93a18.17,18.17,0,0,0,.37-5.07,3.05,3.05,0,0,0-.65-1.6,3.5,3.5,0,0,0-1.54-1,3.67,3.67,0,0,0-.53-.16l-.43-.1a4.85,4.85,0,0,0-.57-.09c-.2,0-.4,0-.6-.05s-.08,0-.08.08l0,.14,0,.28-.1.59L61.55,399l-.33,2.63c-.23,1.77-.45,3.51-.67,5.23A64.54,64.54,0,0,1,58.47,417a40.55,40.55,0,0,1-3.89,9,44.49,44.49,0,0,0,2.68-9,73,73,0,0,0,1.07-10.6c.07-1.86.14-3.76.21-5.68.05-1,.1-1.94.14-2.92.08-1.37.29-2.83.45-4.3.7,0,1.43-.06,2.16-.05h1.1l1.13.1a8.07,8.07,0,0,1,1,.14,6.08,6.08,0,0,1,.87.21,7.35,7.35,0,0,1,1.76.74,6.23,6.23,0,0,1,2.68,3.13,9.89,9.89,0,0,1,.65,3.6,55.61,55.61,0,0,1-.43,6L70,408l0,.34a.93.93,0,0,0,0,.22,1.72,1.72,0,0,0,0,.24c0,.15.05.28.15.34a.28.28,0,0,0,.35-.05.75.75,0,0,0,.17-.27.73.73,0,0,1,.07-.16l.52-.88c.38-.67.73-1.37,1.07-2.06,1.33-2.8,2.38-5.58,3.27-8s1.59-4.67,2.15-6.45c.44-1.37.83-2.74,1.15-4.06.08-.33.15-.65.23-1l.09-.48.08-.48s0-.1,0-.12h.34l.68,0,.68,0,.33,0h.17c.06,0,0,0,0,0l0-.3.09-.57c.06-.37.11-.73.13-.94s0-.09,0,0c.2-.9.42-1.79.62-2.58l1.67.22c.28,0,.55,0,.83.05l.47,0,.78,0,.75,0a14.44,14.44,0,0,0,3-.35,12.73,12.73,0,0,0,5.2-2.45,17.59,17.59,0,0,0,4-4.47,6.84,6.84,0,0,0,.61-1.05l.66-1.31.66-1.29c.21-.44.4-1,.6-1.49.4-1,.79-2,1.18-3l1.14-3,.22.21.15.08.28.14.28.13.14.06s0,0,.08.05l.12.21a35.45,35.45,0,0,1,1.71,3.17,16.33,16.33,0,0,1,.65,1.55c.19.56.34,1.17.5,1.76s.24,1.32.3,2,.14,1.43.11,2.2,0,1.53,0,2.26c0,.5-.06,1-.11,1.48-.09,1-.2,1.93-.31,2.88-.22,1.89-.46,3.75-.62,5.57a29.6,29.6,0,0,0-.08,5.31,9.19,9.19,0,0,0,1.44,4.5,7,7,0,0,0,3.67,2.59,14.66,14.66,0,0,0,2.42.53,8.67,8.67,0,0,0,1.26.13l.85,0c.32.05.69,0,.93.22l.83.58a5.29,5.29,0,0,1,.59.47,10.43,10.43,0,0,1,1.09,1,17,17,0,0,1,1.87,2.23c1.12,1.54,2,3.14,2.9,4.63a24.41,24.41,0,0,0,2.95,4.1,12.13,12.13,0,0,0,1.8,1.58l1,.64,1,.46a7.83,7.83,0,0,0,4.45.22,14,14,0,0,0,4.31-1.93,25.41,25.41,0,0,0,3.79-3.1l.44-.43L145,410l.16-.17.3-.33c.4-.44.8-.87,1.19-1.33.78-.93,1.54-1.86,2.28-2.78.06,0,.13,0,.18.09l.17.33.32.67.63,1.32c.42.88.82,1.78,1.19,2.69l.27.69.23.61.37,1.05c.23.69.45,1.39.65,2.1.4,1.41.73,2.84,1,4.27.13.71.24,1.43.34,2.15a21.12,21.12,0,0,1,.22,2.22,5.08,5.08,0,0,1-.53,2.62,5.78,5.78,0,0,1-1.75,1.9,30.21,30.21,0,0,1-3.74,2.23,31.73,31.73,0,0,1-3.95,1.66l-1,.33-.63.19a1.25,1.25,0,0,0-.88.79,1.9,1.9,0,0,0,.13,1l.06.25a3.58,3.58,0,0,1,.09.45c.06.3.1.6.14.9a12.41,12.41,0,0,1-.14,3.6,12,12,0,0,1-3.25,6.29,19.84,19.84,0,0,1-5.61,3.81c-.5.23-1,.46-1.53.65l-.78.29-.66.21a9.65,9.65,0,0,1-1.72.38s-.12,0-.1,0l.06.13.13.25.26.51.51,1a2.09,2.09,0,0,1,.13.26l.19.45.36.9.74,1.8c.41,1.23.78,2.48,1.12,3.73l.35,1.93.16,1,.06,1a16.77,16.77,0,0,1-1.13,7.81,13,13,0,0,1-.86,1.81l-1.08,1.68-1.3,1.48-.33.37-.37.32-.74.63a22.48,22.48,0,0,1-6.57,3.74,31.8,31.8,0,0,1-3.5,1.15c-1.18.28-2.36.56-3.54.77a60.33,60.33,0,0,1-14,.59,68.63,68.63,0,0,1-25.78-6.73L72,476.93l-1.41-.85c-1-.53-1.84-1.19-2.74-1.81A38.68,38.68,0,0,1,63,470a31.65,31.65,0,0,1-7-10.54A25.21,25.21,0,0,1,54.84,456a7.72,7.72,0,0,1,.36-4.44,17.53,17.53,0,0,1,5.22-6.65c2.12-1.81,4.41-3.4,6.62-5,1.1-.79,2.19-1.58,3.16-2.42l.36-.32.26-.24c.16-.17.33-.34.48-.53a1.83,1.83,0,0,0,.51-1.31,1.64,1.64,0,0,0-.86-1.08,5.78,5.78,0,0,0-1.37-.61,26.24,26.24,0,0,0-3.47-.86c-1.15-.22-2.28-.37-3.37-.53a19.34,19.34,0,0,1-3.09-.82,10.45,10.45,0,0,1-4.38-2.78A5.75,5.75,0,0,1,53.87,425.51Z" transform="matrix(-1, 0, 0, 1, 380, 0)" /><path class="cls-3 color-body" d="M118.84,462.36c-3.69,7.89-15.73,10.05-26.9,4.83S76,452.8,77.37,444.14c1.19-7.53,6.86-15.37,18-10.15S122.53,454.47,118.84,462.36Z" transform="matrix(-1, 0, 0, 1, 380, 0)" style="fill:#ffffff;--backup-fill:#ffffff" /><path d="M118.79,462.33c-.21-.37.14-1.57-.25-3.31a17.53,17.53,0,0,0-2.94-6.1,43.86,43.86,0,0,0-10.53-10.25,76.49,76.49,0,0,0-7.88-4.59,26.93,26.93,0,0,0-4.11-1.73,13,13,0,0,0-3.88-.73,6.75,6.75,0,0,0-5.7,2.85,14,14,0,0,0-2.41,7.09,16.53,16.53,0,0,0,4.31,12.09,24.94,24.94,0,0,0,5.14,4.45c.95.65,2,1.2,3,1.76s2,1,3.08,1.38a24.73,24.73,0,0,0,12.27,1.67,12.77,12.77,0,0,0,9-5,8.87,8.87,0,0,1-1.94,5.78,15,15,0,0,1-6.12,4.6,20.11,20.11,0,0,1-7.14,1.56,21.43,21.43,0,0,1-3-.14,17.87,17.87,0,0,1-2.25-.51A42.73,42.73,0,0,1,90.65,470,43.91,43.91,0,0,1,84.93,466a27.64,27.64,0,0,1-7.84-10.71,22.64,22.64,0,0,1-1.45-6.19A21.13,21.13,0,0,1,76,443a20.67,20.67,0,0,1,2-5.59,14.18,14.18,0,0,1,3.86-4.55,11.08,11.08,0,0,1,5.55-2.17,14.63,14.63,0,0,1,5.6.49,35.5,35.5,0,0,1,9.09,4.27,51.14,51.14,0,0,1,13.19,11.73,22.82,22.82,0,0,1,4.24,8.51,10.27,10.27,0,0,1,.19,4.36A6,6,0,0,1,118.79,462.33Z" transform="matrix(-1, 0, 0, 1, 380, 0)" /><path class="cls-2" d="M111.35,428.52c2.42-.76,5-1.53,7.45-.75s4.22,3.83,2.8,5.93a5.14,5.14,0,0,1-2.19,1.65c-2.63,1.2-6,1.51-8.23-.27s-2.31-6.07.36-7.16" transform="matrix(-1, 0, 0, 1, 380, 0)" /><path class="cls-2" d="M111.56,428c.06.33-.16.66-.34,1.06a4,4,0,0,0-.38,1.45,3.7,3.7,0,0,0,.32,1.69,1.77,1.77,0,0,0,.87.93,2.88,2.88,0,0,0,.75.13,5.54,5.54,0,0,0,.8.05,8.26,8.26,0,0,0,1.65-.25,9.2,9.2,0,0,0,1.75-.63,9.32,9.32,0,0,0,.83-.45c.12-.1,0-.11,0-.16a.13.13,0,0,0,0-.07c-.07-.06-.06,0,0-.06a.18.18,0,0,0,0-.07s0-.06,0-.16-.07-.28-.43-.49a7.08,7.08,0,0,0-2.51-.83c-1-.19-2.16-.31-3.21-.52a8.44,8.44,0,0,1,2.59-4.78,5.43,5.43,0,0,1,2.25-1.2,3.08,3.08,0,0,1,2,.07,15.27,15.27,0,0,1,1.67,1,7.64,7.64,0,0,1,1.5,1.28,8.74,8.74,0,0,1,1.9,3.08,6.94,6.94,0,0,1,.37,3.11,5.34,5.34,0,0,1-1.1,2.6,7.23,7.23,0,0,1-2.44,1.83l-.34.16-.28.13-.56.24c-.37.15-.75.29-1.12.41a11.36,11.36,0,0,1-4.71.6,7.7,7.7,0,0,1-2.38-.63,6.38,6.38,0,0,1-1.08-.61,5.22,5.22,0,0,1-1-.88,5.69,5.69,0,0,1-1.23-2.16,5.5,5.5,0,0,1-.24-2.26,4.14,4.14,0,0,1,1.77-3.07,3,3,0,0,1,1.46-.56A2.38,2.38,0,0,1,111.56,428Z" transform="matrix(-1, 0, 0, 1, 380, 0)" /><path class="cls-1 color-electric" d="M64.58,374.32a31,31,0,0,0,12.13-22.63,52.11,52.11,0,0,1,9.9,16.91c.6,1.71,1,3.8-.13,5.17a5,5,0,0,1-2.25,1.3,39.21,39.21,0,0,1-16,2.14l1.9-4" transform="matrix(-1, 0, 0, 1, 380, 0)" /><path class="cls-2" d="M70.13,373.24c.23.37-.35,2.1-1.22,4.31l-.66-1.13a45.52,45.52,0,0,0,6-.33,25.51,25.51,0,0,0,5-1.12q1.28-.47,2.55-1c.43-.18.86-.35,1.28-.55s.87-.38,1.18-.56c.68-.39.64-.56.69-.83a4.34,4.34,0,0,0-.28-1.65c-.23-.7-.64-1.63-1-2.5s-.8-1.74-1.22-2.59a52.7,52.7,0,0,0-2.79-4.84l-.64-1-.33-.48c-.08-.11,0-.07-.06-.07h0s0,0,0,0a.07.07,0,0,0-.07-.06l-.08.08v0s0,0,0,.08l-.16.46-.33.91a29,29,0,0,1-3.49,6.5A26,26,0,0,1,65.09,375c.9-2.2,2.2-4.88,3.23-7.3a43,43,0,0,1,2.6-5.59c.29-.37.54-.75.79-1.14a11.76,11.76,0,0,0,.71-1.17c.22-.4.46-.8.64-1.21l.29-.61.14-.31a1.11,1.11,0,0,0,.08-.23l.09-.29c.23-.78.46-1.51.67-2.25s.29-1.59.43-2.38c.26-1.56.5-3.1.67-4.36.16.1.32.17.48.25l.73.94q.7.88,1.38,1.77c.89,1.13,1.72,2.22,2.51,3.35.39.57.78,1.11,1.14,1.68l.48.75.38.62c.5.82,1,1.65,1.44,2.47q1.36,2.46,2.47,4.89c.37.82.72,1.62,1,2.43a17.31,17.31,0,0,1,.89,2.55,6.72,6.72,0,0,1,.11,3.05,4.46,4.46,0,0,1-2,2.78,11.52,11.52,0,0,1-2.42,1.1c-.74.28-1.48.52-2.22.74a30.1,30.1,0,0,1-8.6,1.26,20.51,20.51,0,0,1-5.15-.68l-1.4-.36.66-.92C68.59,375.15,69.75,373.68,70.13,373.24Z" transform="matrix(-1, 0, 0, 1, 380, 0)" /><path class="cls-2" d="M96.89,427.28a2.32,2.32,0,0,1,1.41-.62c.48-.11,1-.3,1.09-.7a1.63,1.63,0,0,0,.07-1.33l-.9,3.55a6.81,6.81,0,0,0-1.27-1.26l-.16-.07h0a2.46,2.46,0,0,0,.28-.28,1.67,1.67,0,0,0,.37-.51l4.65-1.28a7.05,7.05,0,0,1-4.22,3c-2.77-1.95-4.37-4.17-3.64-4.43a8.37,8.37,0,0,0,2-1l2.62-1.76.47.41A10.38,10.38,0,0,1,102,424.2c.47.87.9,1.59,1.32,2.23l.51.77-1,1.23c-1.2,1.44-3.07,2.15-4.49,1.53a2.14,2.14,0,0,1-1.17-1.28A3.14,3.14,0,0,1,96.89,427.28Z" transform="matrix(-1, 0, 0, 1, 380, 0)" /><path class="cls-2" d="M40.94,413c.46.27.5,2.51.61,5.05a22.84,22.84,0,0,0,1.09,6.77,24,24,0,0,0,1.83,3.66c.14.21.49.87.79,1.44s.63,1.21.9,1.82a14.14,14.14,0,0,1,1.11,3.51c.17,1.08.19,2.06.26,3.21l0,.89,0,.47c0,.05,0,0-.06,0l-.1,0-.19-.08-1.58-.56-6.44-2.31c-.92-.33-2-.68-2.79-1a13.37,13.37,0,0,1-2.06-1.24,7.3,7.3,0,0,1-2.09-2.37,6.91,6.91,0,0,1-.83-3.12,11.36,11.36,0,0,1,1.05-4.79,18.84,18.84,0,0,1,.86-1.74l.87-1.59a79.06,79.06,0,0,1,6.85-10.49c.93,3.89.07,9.86-1.19,11.55a34.9,34.9,0,0,0-3.28,5,5.43,5.43,0,0,0-.6,2.15,2.37,2.37,0,0,0,.62,1.69,8,8,0,0,0,1.91,1.39c.5.28,1,.56,1.54.82,1,.53,2,1,2.88,1.36a6.59,6.59,0,0,0-.87-2.8c-.2-.39-.41-.74-.6-1.07l-.17-.3-.25-.51q-.26-.52-.48-1.05a19.23,19.23,0,0,1-1.46-8.38C39.11,417.76,40.6,413.73,40.94,413Z" transform="matrix(-1, 0, 0, 1, 380, 0)" /></svg>