<svg xmlns="http://www.w3.org/2000/svg" id="uniforms_1" viewBox="0 0 380 600"><defs transform="matrix(-1, 0, 0, 1, 380, 0)"><style>.cls-1{fill:#0c3744;}.cls-2{fill:#ccffef;}.cls-3{fill:#00f4cb;}.cls-4{fill:#fff;}.cls-5{fill:#ffffff;}</style></defs><path class="cls-1 color-axe2" d="M99.27,347.09h0a7.48,7.48,0,0,1,9.12,6.26l18.23,149.93a4.55,4.55,0,0,1-4.36,5.17h0a4.56,4.56,0,0,1-4.63-3.76l-24-149A7.48,7.48,0,0,1,99.27,347.09Z" transform="matrix(-1, 0, 0, 1, 380, 0)"></path><path d="M99.28,347.13a13.15,13.15,0,0,0-2.56,1.54A7.2,7.2,0,0,0,94.1,354a8.39,8.39,0,0,0,.2,1.93c.13.71.26,1.44.4,2.19.27,1.51.56,3.1.85,4.77.59,3.32,1.22,6.93,1.87,10.66,2.58,14.92,5.44,31.88,7.23,41.27,3.16,16.59,6.33,34.43,9.44,52.43,1.54,9,3.08,18.05,4.61,27,.38,2.23.75,4.46,1.13,6.69.18,1.09.37,2.19.55,3.29a1.82,1.82,0,0,0,.69,1,1.72,1.72,0,0,0,2.28-.24,1.62,1.62,0,0,0,.43-1.11.92.92,0,0,0,0-.16c0-.09,0-.06,0-.24l-.11-.82-.21-1.62c-3.89-30.34-7.44-60.39-10.41-87.83-1.49-13.72-2.84-26.79-4-38.92-.56-6.06-1.11-11.89-1.62-17.44l-.19-2.07c-.06-.68-.11-1.41-.2-1.91a6.42,6.42,0,0,0-1.48-3,6.67,6.67,0,0,0-2.77-1.82,6.52,6.52,0,0,0-1.63-.31,5.75,5.75,0,0,0-.83,0c-.14,0-.27,0-.41,0l-.21,0h-.18c-.09-.37.18.84-.22-.82.39,1.66.12.45.21.82h.07l.09,0,.18-.06.37-.13c.26-.05.52-.12.79-.16a7,7,0,0,1,5.17,1.41,7.54,7.54,0,0,1,2.5,3.43,17.94,17.94,0,0,1,.54,2.16c.15.71.31,1.43.46,2.16,1.22,5.83,2.42,12.09,3.51,18.2,2.18,12.21,3.91,23.77,4.44,29.89,2.11,24.65,4.44,47.78,6.84,69.51q.93,8.14,1.82,16,.46,3.94.91,7.83c.16,1.3.31,2.58.46,3.87l.12,1a8.24,8.24,0,0,1,.06,1.15,5.71,5.71,0,0,1-11.32.77q-.3-1.86-.6-3.69-1.22-7.35-2.38-14.47c-6.31-37.93-12.15-70.83-16.42-99.81-1-6.88-2.25-16.31-3.24-24.61-.24-2.08-.47-4.08-.69-6a9.4,9.4,0,0,1,0-2.85,7.74,7.74,0,0,1,3.7-5.45A7.72,7.72,0,0,1,99.28,347.13Z" transform="matrix(-1, 0, 0, 1, 380, 0)"></path><path class="cls-2 color-axe" d="M115.57,413a6.19,6.19,0,0,1-5.94,6.82h0a6.19,6.19,0,0,1-6.29-5.1c-2.57,1.63-4.06,3.93-3.69,6.21.59,3.64,5.73,5.84,11.47,4.9s9.91-4.64,9.31-8.28C120.09,415.47,118.21,413.85,115.57,413Z" transform="matrix(-1, 0, 0, 1, 380, 0)"></path><path class="cls-3" d="M115.57,413a3,3,0,0,1,1.78.32,6.42,6.42,0,0,1,3,2.36,5.14,5.14,0,0,1,.52,4.57,8.94,8.94,0,0,1-2,3.18,15.84,15.84,0,0,1-14.81,3.83,11.15,11.15,0,0,1-2.67-1.1,7.8,7.8,0,0,1-2.34-2,6.51,6.51,0,0,1-1.41-3.46,6.87,6.87,0,0,1,.74-3.58,8.74,8.74,0,0,1,.91-1.41l.13-.17.2-.23.41-.45c.31-.28.61-.59.93-.83a21.94,21.94,0,0,1,1.89-1.34l1-.63.82-.52c.24,1.06.46,2.26.73,3.22l.23.67a1.34,1.34,0,0,0,.13.32.66.66,0,0,0,.1.17l0,.05a2.49,2.49,0,0,0,.25.38,4.31,4.31,0,0,0,1.33,1.22,4.76,4.76,0,0,0,3.48.54,5.18,5.18,0,0,0,2.92-1.87A5.82,5.82,0,0,0,115,413.1a4.46,4.46,0,0,1,.73,2.94,6.07,6.07,0,0,1-1.56,3.57,6.71,6.71,0,0,1-3.4,2.05,5.56,5.56,0,0,1-3,0,8.25,8.25,0,0,1-3.74-2.42,8.71,8.71,0,0,1-.64-.86,3.35,3.35,0,0,1-.27-.45l-.11-.19s0,0,0-.06a5,5,0,0,1-.13-.69c0-.34-.17-.19-.31-.13a2.45,2.45,0,0,0-.48.29l-.25.2-.13.13-.18.21a4.58,4.58,0,0,0-.62.91,3.67,3.67,0,0,0-.48,2,3.72,3.72,0,0,0,.67,1.88,6.71,6.71,0,0,0,3.47,2.27,12.5,12.5,0,0,0,4.14.49A14.91,14.91,0,0,0,116,423c2-1.24,3.42-3,3.52-4.76a4.3,4.3,0,0,0-.27-1.65,5.31,5.31,0,0,0-1.1-1.71A10.59,10.59,0,0,0,115.57,413Z" transform="matrix(-1, 0, 0, 1, 380, 0)"></path><path class="cls-2 color-axe" d="M100.73,367.6C73.77,382.12,51.87,381.13,31,356c-32.77,36.85-17.93,108.28,30,119,2.19-31.12,21.12-44.17,46.37-56.92Q104.08,392.84,100.73,367.6Z" transform="matrix(-1, 0, 0, 1, 380, 0)"></path><path class="cls-3" d="M100.77,367.6c.66,1.35,2.67,14.75,4.91,30.25.55,3.88,1.13,7.89,1.7,11.87.29,2,.57,4,.85,5.94.1.65.19,1.3.28,1.95l.14,1c0,.1,0,.13-.12.17l-.22.11-.45.24-3,1.6a133.54,133.54,0,0,0-16.48,10.08c-1.77,1.23-3.4,2.66-5.1,4s-3.27,2.88-4.74,4.51-2.9,3.28-4.32,5a56.72,56.72,0,0,0-3.61,5.55A25.55,25.55,0,0,0,69,452.78c-.46,1-1,2-1.38,3a56,56,0,0,0-2.07,6.39l-.43,1.63-.22.82-.14.84-.58,3.35-.15.84-.08.85-.21,2.09-.32,3.18-.16,1.61-.05.4,0,.2a.22.22,0,0,1,0,.09l-.09,0-.7-.18-5.67-1.49-.72-.19a4.47,4.47,0,0,1-.48-.16l-.87-.3-1.76-.62c-.58-.22-1.18-.38-1.74-.64l-1.7-.76a35.5,35.5,0,0,1-3.34-1.63,54.75,54.75,0,0,1-12-8.56,70.07,70.07,0,0,1-16.45-23.47,87.08,87.08,0,0,1-6.47-23.5,91,91,0,0,1,.26-24,80.86,80.86,0,0,1,6.88-22.45c.43-.87.9-1.72,1.35-2.57s.87-1.72,1.4-2.52c1-1.62,2-3.29,3.14-4.8l1.67-2.3,2.94-3.52,1.47-1.76.36-.44.19-.21.09-.11s0,0,0,0l.06.06.84,1,3.33,3.82.91,1.05c.28.33.55.67.85,1l1.8,1.81,1.79,1.82L42.44,364l1.89,1.64,2,1.44c.66.48,1.32,1,2,1.43l2.08,1.22A39.11,39.11,0,0,0,68,375.1a52,52,0,0,0,17.29-2.28,106.37,106.37,0,0,0,15-6A77.22,77.22,0,0,1,85.94,375a48.69,48.69,0,0,1-19.2,4.07,34.9,34.9,0,0,1-5-.35l-2.45-.37a19.17,19.17,0,0,1-2.38-.57l-2.31-.63c-.77-.21-1.47-.55-2.19-.81a30.62,30.62,0,0,1-4.09-1.82l-1.87-1a14.77,14.77,0,0,1-1.74-1l-3.09-2.11c-1.87-1.41-3.37-2.79-4.62-3.88l-3.43-3.59c-.59-.58-1.09-1.23-1.61-1.85l-.39-.47-.17-.21,0,0-.08-.15-.1-.17s0-.19-.15,0l-.53.53-.28.29-.15.15,0,0-.08.11-.17.23-1.35,1.79a65,65,0,0,0-8.49,15.54,80.86,80.86,0,0,0,3.76,64.68,65.05,65.05,0,0,0,8.56,12.75,57.36,57.36,0,0,0,11.06,9.84,50,50,0,0,0,12.81,6.3l.83.3c.25.08.4.1.6.16l1.12.29,1.11.29s.11,0,.12,0v-.13l0-.25,0-.49.27-2.71c.13-1.19.4-2.35.59-3.52a63.37,63.37,0,0,1,1.64-6.89c.32-1.13.78-2.21,1.17-3.31l.6-1.64c.22-.54.49-1.05.73-1.58a51.07,51.07,0,0,1,7.19-11.57l2.17-2.54c.76-.8,1.55-1.58,2.32-2.36.39-.38.76-.78,1.17-1.15l1.22-1.07c.83-.71,1.62-1.44,2.46-2.11,1.7-1.3,3.35-2.65,5.11-3.8.87-.6,1.72-1.21,2.59-1.77l2.63-1.64c1.73-1.12,3.52-2.07,5.26-3.09s3.53-1.91,5.27-2.83l2.53-1.28c.36-.21,1-.3.74-.85-.2-1.72-.41-3.42-.61-5.1C103.24,397.32,101.14,372.48,100.77,367.6Z" transform="matrix(-1, 0, 0, 1, 380, 0)"></path><path class="cls-4" d="M62,457.76a9.81,9.81,0,0,1-2.7-.88,37.63,37.63,0,0,1-5.18-2.77,44.18,44.18,0,0,1-5.46-4.06c-1.65-1.45-3.06-2.86-4-3.9A43,43,0,0,1,36,432.81a58.43,58.43,0,0,1-4-15.71,69.09,69.09,0,0,1,2.23-26.16,66,66,0,0,1,8.91-19.43c-.55,2.7-1.6,6.38-2.48,9.85s-1.62,6.69-2.26,8.32c-4.89,13.27-4.9,26.48-1.85,37.05a53.33,53.33,0,0,0,2.79,7.48,48.13,48.13,0,0,0,3.7,6.44A49.09,49.09,0,0,0,52,450.57c1.54,1.24,3.61,3,5.62,4.35l1.42,1c.46.3.9.56,1.29.8Z" transform="matrix(-1, 0, 0, 1, 380, 0)"></path><path class="cls-1 color-axe2" d="M100.73,367.6a98.14,98.14,0,0,1-27.5,9.51c14.14,13-1.36,39.61-17.18,10.45-12.53,7-11.86,25.45,1.12,24.4-12.21,9.7-7.51,23.78,2.26,26.46,3.31-7.06,6.81-17.38,17.28-17.67,6.22-.16,7.65,6.72,5.32,11.56a273.05,273.05,0,0,1,25.41-14.23Q104.08,392.84,100.73,367.6Z" transform="matrix(-1, 0, 0, 1, 380, 0)"></path><path d="M100.75,367.6c.34.94,1.55,9.23,3,19.45s3.19,22.68,4.42,31.41l-3,1.57-2.25,1.21c-3.33,1.81-6.72,3.68-10.16,5.7-1.73,1-3.47,2.05-5.23,3.14l-3.34,2.11-2.32,1.49a13.59,13.59,0,0,1-2.07,1.24c.42-1,1.14-2.71,1.52-3.85a10.15,10.15,0,0,0,.54-1.78,2.85,2.85,0,0,0,.06-.39l0-.31a1.93,1.93,0,0,0,0-.41,7.93,7.93,0,0,0-.48-3.2,4.68,4.68,0,0,0-1.85-2.32,5.22,5.22,0,0,0-2.94-.69,12,12,0,0,0-6.49,2.11,17.43,17.43,0,0,0-4.77,5.24A54.58,54.58,0,0,0,62,436l-.82,1.83-.73,1.6-.18.4-.09.2c0,.06-.05.16-.14.09l-.86-.3-1.69-.6a4.86,4.86,0,0,1-1-.43,11.33,11.33,0,0,1-1.81-1.07,14.7,14.7,0,0,1-5.14-6.44,15.45,15.45,0,0,1-1-8.05c.13-.65.2-1.32.39-2s.42-1.26.62-1.89a19.68,19.68,0,0,1,1.86-3.41,10.64,10.64,0,0,1,1.12-1.52l1-1.17s0,0,0,0h-.08l-1.09-.3a9.38,9.38,0,0,1-4-2.58,11.92,11.92,0,0,1-2.89-8.5,18.57,18.57,0,0,1,8.11-14.5l.24-.16a3.62,3.62,0,0,1,.38-.26l.81-.49.82-.49.4-.25.21-.12s0,0,.07,0l.06.1c.56,1,1.11,1.92,1.67,2.87a18.57,18.57,0,0,0,1,1.61c.34.51.66,1.05,1,1.55a26,26,0,0,0,4.81,5.33A12.38,12.38,0,0,0,68,398.82a7.3,7.3,0,0,0,3,.52A6.44,6.44,0,0,0,75.83,396a12.78,12.78,0,0,0,1.75-6.16,15.48,15.48,0,0,0-1.13-6.3,11,11,0,0,0-.66-1.44,11.41,11.41,0,0,0-.8-1.35,5,5,0,0,0-.45-.65L74,379.4c-.64-.74-1.3-1.39-1.9-2l-.47-.5-.23-.24-.11-.13s.1,0,.15,0l1.37-.27,2.67-.52c1.17-.23,2.12-.45,3.18-.68a98.5,98.5,0,0,0,21.88-7.75,71.4,71.4,0,0,1-11.1,5.86c-2.17.93-4.45,1.79-6.8,2.57-1.17.39-2.36.76-3.55,1.11l-3.19.88-.41.15h0l0,0,.1.08.18.14.14.13.56.65c.38.5.73,1,1.08,1.53A17.81,17.81,0,0,1,80,387a15.16,15.16,0,0,1-2,10.68A10.08,10.08,0,0,1,74.51,401a8.18,8.18,0,0,1-4.74,1,11.63,11.63,0,0,1-4.33-1.51,19,19,0,0,1-3.38-2.69,33.13,33.13,0,0,1-5-6.51c-.38-.56-.69-1.15-1-1.74l-.21-.38-.08-.16s0-.07,0-.06l-.08,0a14.21,14.21,0,0,0-2.35,1.72,15.77,15.77,0,0,0-5.45,12.81,8.86,8.86,0,0,0,2.83,6A7.43,7.43,0,0,0,53.57,411l.4.11.63.08a7.9,7.9,0,0,0,1.34.11h1.45l1.36,0v.08s0,0,0,0l-.09.08-.35.31-.71.63-1.4,1.23c-.23.21-.46.41-.68.63s-.22.23-.33.35l-.21.24-.83.94a21.66,21.66,0,0,0-1.44,2c-.44.7-.75,1.46-1.14,2.18a14.2,14.2,0,0,0-.53,9.39,12.87,12.87,0,0,0,5.59,7.18l1,.54a4.87,4.87,0,0,0,.92.38l.33.11c.11,0,.26.17.29,0l.31-.69c.61-1.35,1.28-2.84,1.94-4.24a31.22,31.22,0,0,1,5-7.86,14.23,14.23,0,0,1,8-4.47c.75-.14,1.51-.17,2.27-.24l1.19.05c.39.08.79.13,1.18.24a6.33,6.33,0,0,1,3.65,3,8.94,8.94,0,0,1,1,4.43,6.82,6.82,0,0,1-.06,1.11,4.08,4.08,0,0,1-.07.52,4.47,4.47,0,0,1-.3,1l-.09.22s.13-.07.19-.11l.41-.27.81-.51,3.1-1.9q3.28-2,6.54-3.78t6.44-3.47l3.16-1.65,2.6-1.32c-.73-5.74-1.44-11.21-2.12-16.5C103,390.22,101.1,371.32,100.75,367.6Z" transform="matrix(-1, 0, 0, 1, 380, 0)"></path><path class="cls-2 color-axe" d="M109.11,351.48a8.17,8.17,0,0,1-7.85,9h0a8.17,8.17,0,0,1-8.32-6.74c-3.4,2.16-5.38,5.2-4.89,8.22.79,4.81,7.58,7.72,15.17,6.48s13.11-6.14,12.33-10.95C115.09,354.7,112.6,352.55,109.11,351.48Z" transform="matrix(-1, 0, 0, 1, 380, 0)"></path><path class="cls-3" d="M109.11,351.45a4.51,4.51,0,0,1,2.3.53,8.5,8.5,0,0,1,3.87,3.1,6.59,6.59,0,0,1,.62,5.85,11.14,11.14,0,0,1-2.65,4.06A20.74,20.74,0,0,1,94,369.74a14,14,0,0,1-3.38-1.41,9.83,9.83,0,0,1-2.92-2.48A8,8,0,0,1,86,361.71a8.23,8.23,0,0,1,.82-4.32,12,12,0,0,1,1.7-2.53c.24-.28.41-.43.72-.75s.82-.73,1.23-1.06.84-.62,1.26-.89l2.46-1.61.43,2c.14.71.33,1.29.5,1.92a2.83,2.83,0,0,0,.14.44,1.31,1.31,0,0,0,.1.21l.07.14.15.3c.13.19.23.39.37.57a6.69,6.69,0,0,0,1.94,1.81,6.8,6.8,0,0,0,5,.77,7.07,7.07,0,0,0,4.09-2.73,8.35,8.35,0,0,0,1.1-2.14,9.14,9.14,0,0,0,.38-2.29,6.16,6.16,0,0,1,.61,3.85,8.07,8.07,0,0,1-2.17,4.42,8.71,8.71,0,0,1-4.32,2.46,7.62,7.62,0,0,1-3.72,0,10.13,10.13,0,0,1-4.84-3.1,9.63,9.63,0,0,1-1.49-2.3l-.06-.13a.1.1,0,0,0,0,0l0-.1,0-.21a3.49,3.49,0,0,1-.08-.5c0-.22-.11-.11-.2-.07a3.07,3.07,0,0,0-.31.16l-.31.2a3,3,0,0,0-.37.3,8,8,0,0,0-1.84,2.42,4.94,4.94,0,0,0,.53,5.34A7.23,7.23,0,0,0,92,366.07a10.9,10.9,0,0,0,2.62,1.14,17.14,17.14,0,0,0,5.52.65,20.08,20.08,0,0,0,9.68-2.93c2.66-1.64,4.65-4.08,4.75-6.57a5.76,5.76,0,0,0-.44-2.3,7.17,7.17,0,0,0-1.6-2.27A13.22,13.22,0,0,0,109.11,351.45Z" transform="matrix(-1, 0, 0, 1, 380, 0)"></path><path class="cls-5 color-body" d="M111.94,473.13c-8.23,2.87-18.19-4.24-22.25-15.88s-.83-21.46,6.32-26.53c6.22-4.41,15.79-5.82,19.85,5.82S120.16,470.25,111.94,473.13Z" transform="matrix(-1, 0, 0, 1, 380, 0)" style="fill:#ffffff;--backup-fill:#ffffff"></path><path d="M111.92,473.07c.12-.41,1.22-1,2.19-2.5a17.47,17.47,0,0,0,2.3-6.35,43.72,43.72,0,0,0,0-14.7,76.2,76.2,0,0,0-2.22-8.84,26.64,26.64,0,0,0-1.64-4.14,12.67,12.67,0,0,0-2.18-3.28,6.65,6.65,0,0,0-6-2.06,13.93,13.93,0,0,0-6.73,3.21A16.52,16.52,0,0,0,92,445.91a25,25,0,0,0,.41,6.78c.2,1.13.51,2.24.81,3.34s.71,2.15,1.16,3.16a24.7,24.7,0,0,0,7.35,9.95,12.77,12.77,0,0,0,9.84,2.9,8.93,8.93,0,0,1-5.49,2.68,15,15,0,0,1-7.58-1.16,19.88,19.88,0,0,1-8.12-6.26,17,17,0,0,1-1.21-2,43,43,0,0,1-2.45-7,44.37,44.37,0,0,1-1.07-6.94,27.52,27.52,0,0,1,2.2-13.1,22.07,22.07,0,0,1,3.41-5.37,21,21,0,0,1,4.66-4,20,20,0,0,1,5.43-2.46,14,14,0,0,1,6-.41,11.05,11.05,0,0,1,5.44,2.45,14.84,14.84,0,0,1,3.57,4.36,35.35,35.35,0,0,1,3.3,9.49,51.38,51.38,0,0,1,.82,17.64,22.9,22.9,0,0,1-3.14,9,10.38,10.38,0,0,1-3,3.18A6.11,6.11,0,0,1,111.92,473.07Z" transform="matrix(-1, 0, 0, 1, 380, 0)"></path></svg>