<svg xmlns="http://www.w3.org/2000/svg" id="Art" viewBox="0 0 380 600"><defs transform="matrix(-1, 0, 0, 1, 380, 0)"><style>.cls-1{fill:#fffffe;}.cls-2{fill:#ffa800;}.cls-3{fill:#fff;}</style></defs><path class="cls-1" d="M61.69,381.88,59,374.63c4.42-2.2,8.45-6.56,13.34-7.28,7,4.13,12.24,11.07,18.57,16.21" transform="matrix(-1, 0, 0, 1, 380, 0)" style=""></path><path d="M90.85,383.58c-.34.11-1.87-.95-3.51-2.33s-3.42-3-4.5-3.85C80.94,376,79,374.31,77,372.78c-1-.77-2-1.5-3-2.19-.51-.34-1-.66-1.52-1l-.38-.23L72,369.3h0l-.07,0,0,0-.27.09c-.21.07-.42.12-.64.21-.42.16-.85.35-1.27.55-.85.42-1.69.91-2.53,1.43-1.69,1.06-3.36,2.24-5.15,3.23-.22.12-.43.25-.67.36l-.08,0H61.1l-.16,0c-.08,0-.09,0-.09.08a1.11,1.11,0,0,0,0,.39l.33,1.27c.42,1.67.76,3.22,1,4.63a18,18,0,0,1-3.5-3.85c-.27-.38-.49-.71-.73-1.12-.35-.69-.69-1.4-1-2.09l-.23-.51-.1-.24s-.06-.09,0-.12l.11-.06.8-.47c.52-.3,1-.54,1.41-.72l.53-.25.29-.11.57-.25c.38-.16.75-.35,1.12-.53.75-.37,1.47-.77,2.2-1.17,1.45-.8,2.87-1.62,4.33-2.28a20.9,20.9,0,0,1,2.23-.86c.4-.1.73-.21,1.18-.3l.73-.13a1.14,1.14,0,0,1,.36,0l.32.2,1.07.67.89.59c.6.39,1.15.82,1.72,1.22a79.88,79.88,0,0,1,10.6,9.57C88.41,380.25,90.42,383,90.85,383.58Z" transform="matrix(-1, 0, 0, 1, 380, 0)"></path><path d="M87.27,385.27a7.66,7.66,0,0,1-1.83-1.21,24.39,24.39,0,0,0-2.55-1.72c-2.18-1.19-4.61-2.63-6.84-3.95a46.73,46.73,0,0,1-5.45-3.69,23.69,23.69,0,0,1-3.86-3.83,12.42,12.42,0,0,1,4.44,2,40.14,40.14,0,0,0,7.76,5.75,44.05,44.05,0,0,1,6.24,4.18A14.23,14.23,0,0,1,87.27,385.27Z" transform="matrix(-1, 0, 0, 1, 380, 0)"></path><path class="cls-1" d="M95.91,378.59a232.82,232.82,0,0,1,37-18.34c-1-2.12-8.13-2.65-8.13-2.65-14.4,9.09-30.58,18.85-45.24,27.93" transform="matrix(-1, 0, 0, 1, 380, 0)" style=""></path><path d="M79.57,385.51c.39-1,13.24-8.86,18-12.21,4.2-3,8.79-6,13.44-9l7-4.51,3.46-2.21,1.71-1.09L124,356l.42-.25.48,0,1.43.13c.61.07,1.22.16,1.82.25l.46.09a4.31,4.31,0,0,1,.55.11c.51.13,1,.21,1.54.4l.79.25c.26.09.48.2.72.3a5.41,5.41,0,0,1,1.22.69,2.29,2.29,0,0,1,.47.38,3.62,3.62,0,0,1,.38.41l.58.88c.13.29.72.77.21.92l-.81.67-.81.67-.4.33c-.09.06-.09.11-.25.17l-.4.16-4.46,1.8c-4.14,1.71-8.14,3.45-11.93,5.18-7.59,3.44-14.34,6.82-19.78,9.52a54.32,54.32,0,0,1,8.1-6.92,46.49,46.49,0,0,1,7.95-4.76q5.27-2.16,10.24-4.1l4.91-1.87,1.2-.46.64-.22c.46-.15.91-.31,1.35-.47l.18-.06c.05,0,.16,0,.09-.09a.83.83,0,0,0-.19-.27,2.15,2.15,0,0,0-.55-.38,6.87,6.87,0,0,0-1.32-.47l-.4-.1-.55-.11c-.38-.08-.76-.14-1.15-.2l-1.14-.16-.42,0c-.12,0-.22,0-.32.1L121,360.84l-3.77,2.37c-9.89,6.25-18.35,11.87-26.07,16.33C87.52,381.71,80.89,384.91,79.57,385.51Z" transform="matrix(-1, 0, 0, 1, 380, 0)"></path><path class="cls-2" d="M76.74,385.26c-9.14-1-11.8-3.28-20.38-7-3.51-1.54-5.18,2.25-3.7,5.32,10.21,25.66,22.88,51,40.51,72.48,8.5,2.7,18.64.2,27.69.76" transform="matrix(-1, 0, 0, 1, 380, 0)" style=""></path><path d="M120.86,456.83a17.87,17.87,0,0,1-4,.46c-2.2.16-5.12.45-8.27.72a67.64,67.64,0,0,1-9.76.24,34.63,34.63,0,0,1-4.47-.58l-1.15-.28-.66-.16c-.05,0-.12,0-.16-.05l-.1-.13-.21-.25c-.62-.73-.91-1-1.26-1.42A152.1,152.1,0,0,1,77,437.7a225.91,225.91,0,0,1-11.75-19.55,260.57,260.57,0,0,1-15.08-33.93,8,8,0,0,1-.54-3l.07-.8a7.45,7.45,0,0,1,.17-.82,6.22,6.22,0,0,1,.77-1.75,4.81,4.81,0,0,1,3-2.1,5.61,5.61,0,0,1,3.47.4c1.36.65,2.5,1.24,3.7,1.87l3.41,1.83a43.5,43.5,0,0,0,6.4,2.94,46.72,46.72,0,0,0,6.23,1.69,25.11,25.11,0,0,1-6.83.42,33,33,0,0,1-7.84-1.68c-2.51-.81-4.83-1.65-6.85-2.38l-.11,0h-.13s0,0,0,0,0,0,0,0,0,0-.06,0a1.78,1.78,0,0,0-.17.79,3,3,0,0,0,.25,1.19c.4,1.23.79,2.44,1.19,3.65.8,2.39,1.6,4.69,2.44,7,1.67,4.54,3.45,8.87,5.29,13a203.13,203.13,0,0,0,11.84,22.64,209.6,209.6,0,0,0,12.64,18.45c1.08,1.37,2.1,2.74,3.16,4.05l1.57,1.94.7.87.17.22c.07.06.17.05.25.09l.9.24,1.12.24c.74.15,1.49.25,2.23.35,1.5.19,3,.27,4.49.32,2.82.07,6.77.09,10.29.23A53.84,53.84,0,0,1,120.86,456.83Z" transform="matrix(-1, 0, 0, 1, 380, 0)"></path><path class="cls-2" d="M87.17,381.94c-6.76,4.16-12,3-16,2.88A581.6,581.6,0,0,0,106,453.88c2.65,6,10.57,1.91,15.81,1.82" transform="matrix(-1, 0, 0, 1, 380, 0)" style=""></path><path d="M121.78,455.73a10.7,10.7,0,0,1-1.9.45l-4.08.95a17.56,17.56,0,0,1-5.57.54,5.92,5.92,0,0,1-3-1.07,6.3,6.3,0,0,1-2-2.42l0,.08c-1.26-2.06-2.43-3.91-3.28-5.22A349.25,349.25,0,0,1,84.6,418.41c-4.6-8.92-8.72-18-12.13-26.36l-3.18-8c-.9-1.24.75-.69,1.54-.72l2.68.2,1.87.17c.49,0,1,.06,1.44.07a19.66,19.66,0,0,0,5.38-.56,23.65,23.65,0,0,0,4.68-1.78,15.69,15.69,0,0,1-4.25,3.18,17.67,17.67,0,0,1-6.1,1.77c-.54.07-1.07.11-1.58.14l-.39,0h-.19l-.08,0-.18,0c-.1.08-.12.12,0,.2s.11.08.12.07.13.31.24.57.21.55.29.78A274.18,274.18,0,0,0,91.19,425.6c5.62,10.65,11.08,19.67,15.68,27.74l0,.05,0,.06a4.86,4.86,0,0,0,1.64,2,6.46,6.46,0,0,0,3.23.83,28.58,28.58,0,0,0,4.11-.24c1.35-.14,2.63-.29,3.67-.35A15,15,0,0,1,121.78,455.73Z" transform="matrix(-1, 0, 0, 1, 380, 0)"></path><path d="M102.27,446.86c.23-.25.79,0,1.46.08a4.07,4.07,0,0,0,1.81.08,26.65,26.65,0,0,0,4.2-1.56,25.93,25.93,0,0,1,6.79-2.62c.38,1.74-.36,3.71-1.06,3.81a40.2,40.2,0,0,0-6.46,1.81,12,12,0,0,1-2.72.59,4.89,4.89,0,0,1-2.47-.41,2.69,2.69,0,0,1-1-.89A5,5,0,0,1,102.27,446.86Z" transform="matrix(-1, 0, 0, 1, 380, 0)"></path><path d="M73.69,394c.27-.16.75.13,1.27.47a5.36,5.36,0,0,0,1.54.75c1.42.22,2.65.46,3.46.11a8.36,8.36,0,0,0,2.17-1.2c.8-.55,1.58-1.24,2.43-1.73a4.18,4.18,0,0,1,1,2.23,3,3,0,0,1-.06,1,.88.88,0,0,1-.37.54,19.43,19.43,0,0,1-3.39,1.48,8.11,8.11,0,0,1-3,.32A6.32,6.32,0,0,1,74.36,396,3.92,3.92,0,0,1,73.69,394Z" transform="matrix(-1, 0, 0, 1, 380, 0)"></path><path class="cls-2" d="M174.08,429c2.53-1.8-25.39-58.87-28.19-64.38-1.83-4.91-6.58-7.33-11.86-4.88-18.73,6.06-34.66,15.89-52,24.54,7.79,23,24.25,45.53,37.09,66.16,1.11,1.77,2.42,3.69,4.55,4.16C141.74,450.67,158.58,439.06,174.08,429Z" transform="matrix(-1, 0, 0, 1, 380, 0)" style=""></path><path d="M174.1,429a52.68,52.68,0,0,1-6.41,4.82c-3.64,2.53-8.52,5.8-13.93,9.06a134.48,134.48,0,0,1-17.12,8.81c-1.44.58-2.84,1.16-4.23,1.63s-2.72.94-4,1.34-2.52.7-3.7,1a5.75,5.75,0,0,1-1.22.25,7.84,7.84,0,0,1-1.17-.34,6.62,6.62,0,0,1-1.77-1,20,20,0,0,1-3.57-4.48l-3-4.46-6.16-9.08c-4.16-6.14-8.35-12.45-12.34-19a206.86,206.86,0,0,1-11-20.16c-.79-1.75-1.61-3.47-2.32-5.24-.37-.89-.73-1.77-1.1-2.65l-1.23-3.35-.93-2.53-.23-.64c-.11-.13.11-.14.17-.2l.3-.15,1.2-.61,3.78-1.92c1.61-.86,3.22-1.7,4.82-2.54,11.15-5.94,22.31-12.11,33.94-16.81,2.92-1.15,5.83-2.27,8.78-3.22l1.1-.37.37-.12.54-.22a13.32,13.32,0,0,1,2.79-.75,10.86,10.86,0,0,1,5.93.78,11.06,11.06,0,0,1,4.49,3.77,12.42,12.42,0,0,1,1.33,2.45l.13.32,0,.08c0,.07,0-.09,0-.06h0l.24.5.49,1,3.73,7.88c4.85,10.39,9.31,20.35,13.24,29.69,2,4.67,3.79,9.18,5.43,13.54.81,2.17,1.58,4.31,2.27,6.42.34,1.06.66,2.11.93,3.18.13.54.26,1.06.35,1.63a6.19,6.19,0,0,1,.1.9,5.43,5.43,0,0,1,0,.55,3.31,3.31,0,0,1-.11.39,1.4,1.4,0,0,1-.4.53,1.43,1.43,0,0,0,.35-.5,2.2,2.2,0,0,0,.07-.37,3.73,3.73,0,0,0,0-.5,7.68,7.68,0,0,0-.22-.8c-.17-.49-.37-1-.59-1.45-.43-1-.91-1.93-1.42-2.92-1-2-2.15-4.09-3.32-6.26-2.35-4.35-4.87-9-7.31-13.51-4.86-9.05-9.32-17.65-11.34-22.33s-4.06-9.33-6.11-13.84l-.82-1.81-.3-.77-.32-.66a6.71,6.71,0,0,0-1.81-2.13,6,6,0,0,0-5.3-.9c-2.17.79-4.51,1.38-6.71,2.19-1.11.37-2.21.77-3.3,1.19s-2.19.81-3.26,1.25c-4.31,1.72-8.48,3.6-12.55,5.56-8.15,3.91-15.87,8.1-23.47,12l-2.54,1.29-.87.43a3.78,3.78,0,0,0,.28.89c.31.85.61,1.7.92,2.54s.78,1.9,1.16,2.85c.75,1.9,1.65,3.72,2.46,5.56s1.73,3.62,2.66,5.37c7.32,14.08,15.78,26.35,23.41,38q2.88,4.38,5.6,8.66a15.58,15.58,0,0,0,2.69,3.59,5.59,5.59,0,0,0,.67.45,1.41,1.41,0,0,0,.52.15l2-.48A98.25,98.25,0,0,0,143.1,446c2.56-1.26,5.6-2.75,8.72-4.41s6.36-3.44,9.37-5.15Z" transform="matrix(-1, 0, 0, 1, 380, 0)"></path><path d="M106.41,396.84a2.2,2.2,0,0,1-.55-.66,3.06,3.06,0,0,1-.33-.8,2.43,2.43,0,0,1-.09-.56l0-.31c0-.09,0-.24,0-.28.24-.09.49-.2.75-.32s.41-.23.62-.36l1.31-.81a30.63,30.63,0,0,1,3-1.37c2-.86,4-1.69,5.23-2.26,2.39-1.12,4.92-2.25,7.49-3.39l3.84-1.73.92-.45.9-.5a10.1,10.1,0,0,1,1.09-.51,2.83,2.83,0,0,1,1.74-.16,2.57,2.57,0,0,1,1,.69,5.63,5.63,0,0,1,.52.64,9.62,9.62,0,0,1,.74,1.26l.16.33.07.17a1.69,1.69,0,0,1,.11.27,2.27,2.27,0,0,1,.18,1.16,2.32,2.32,0,0,1-.57,1c-.14.13-.31.31-.41.39l-.28.23a32.11,32.11,0,0,1-4.13,2.51c-1.38.74-2.76,1.42-4.12,2.07-2.74,1.3-5.44,2.48-8,3.56s-5.08,2-7.4,2.91l-1.74.64a3.13,3.13,0,0,1-1.22.2,1.76,1.76,0,0,1-.6-.19.84.84,0,0,1-.43-.4,5.06,5.06,0,0,1-.35-1.09c0-.31-.07-.6-.09-.85a2.33,2.33,0,0,0-.39-1.27,2.11,2.11,0,0,1,.87,1.13,4.68,4.68,0,0,0,.68,1.4c0,.09.17.11.27.12a.63.63,0,0,0,.31,0,3.26,3.26,0,0,0,.58-.32c.51-.31,1.1-.66,1.64-1a42.06,42.06,0,0,1,5.47-2.76c4.33-1.55,8.36-3.18,12.06-4.93a43.27,43.27,0,0,0,5.2-2.8c.19-.13.38-.26.55-.4a2,2,0,0,0,.36-.34.35.35,0,0,0,0-.4,1.72,1.72,0,0,0-.07-.21l-.13-.3a7.43,7.43,0,0,0-.64-1.14,4,4,0,0,0-.38-.49,1,1,0,0,0-.34-.25,1,1,0,0,0-.51,0,6,6,0,0,0-.67.28c-.46.22-.89.48-1.39.74-1,.47-1.9.88-2.83,1.29l-5.37,2.3c-3.45,1.45-6.67,2.74-9.69,3.84-.83.34-2,.64-2.86,1.05a13.52,13.52,0,0,1-2.62,1.09,2.2,2.2,0,0,0,.08,1.44A6.16,6.16,0,0,0,106.41,396.84Z" transform="matrix(-1, 0, 0, 1, 380, 0)"></path><path class="cls-3 color-body" d="M123.76,462.11c-5.16,7-17.4,6.79-27.33-.51s-12.82-17.23-9.79-25.45c2.64-7.16,9.73-13.74,19.66-6.43S128.92,455.09,123.76,462.11Z" transform="matrix(-1, 0, 0, 1, 380, 0)" style=";fill:#ffffff;--backup-fill:#ffffff"></path><path d="M123.71,462.08c-.13-.41.45-1.52.41-3.3a17.59,17.59,0,0,0-1.7-6.55,43.82,43.82,0,0,0-8.32-12.11,77.8,77.8,0,0,0-6.83-6.05,27.26,27.26,0,0,0-3.7-2.49,12.86,12.86,0,0,0-3.66-1.48,6.73,6.73,0,0,0-6.15,1.69A14,14,0,0,0,90,438.27,16.49,16.49,0,0,0,91.88,451a25.25,25.25,0,0,0,4.17,5.37c.81.82,1.7,1.56,2.57,2.3s1.8,1.37,2.75,1.95a24.76,24.76,0,0,0,11.71,4,12.73,12.73,0,0,0,9.76-3.19,8.89,8.89,0,0,1-3,5.29,15,15,0,0,1-6.9,3.32,19.94,19.94,0,0,1-10.22-.59,17.45,17.45,0,0,1-2.1-.93,41.73,41.73,0,0,1-6-4.39A42.67,42.67,0,0,1,89.8,459a27.51,27.51,0,0,1-5.6-12,22.32,22.32,0,0,1-.22-6.36,21,21,0,0,1,1.58-5.92,20.58,20.58,0,0,1,3.08-5.09,14.13,14.13,0,0,1,4.68-3.7,11.08,11.08,0,0,1,5.86-1.05,14.74,14.74,0,0,1,5.4,1.58,35.32,35.32,0,0,1,8.08,5.95,51.22,51.22,0,0,1,10.65,14.09,22.94,22.94,0,0,1,2.49,9.17,10.46,10.46,0,0,1-.66,4.31A5.88,5.88,0,0,1,123.71,462.08Z" transform="matrix(-1, 0, 0, 1, 380, 0)"></path></svg>