<svg xmlns="http://www.w3.org/2000/svg" id="new" viewBox="0 0 380 600"><defs transform="matrix(-1, 0, 0, 1, 380, 0)"><style>.cls-1{fill:#171760;}.cls-2{opacity:0.5;}.cls-3{fill:#fffffe;}</style></defs><path class="cls-1 color-hair" d="M187.9,216.358c-.109,6.77-9.389,9.841-8.973,16.127.809,4.382,7.688,3.824,10.567,1-4,4.7-12.472,4.416-14.41-2.007-.91-6.664,10.564-12.031,5.12-20.189-1.056,8.731-14.161,22.145-21.1,11.249,7.161,3.452,15.724-3.591,13.721-11.282-4.744,16.441-30.47-1.5-36.435,14.322-7.148-3.036-22.755-2.959-22.095,7.776-2.27-6.441-11.69-3.524-11.878,2.519-2.017,2.651-9.462,1.047-5.313-2.358,1.895-1.414,4.077-2.825,6.118-4.045-12.113-.82-5.1-10.792,3.247-9.459-3.982-5.758,7.276-8.095,9.546-12.249-1.766-5.867,2.228-15.316,9.088-10.112,3.425-13.442,20.031-14.5,31.594-13.043,4.138-7.417,15.894-5.762,23.234-8.079,9.766-2.76,21.208.661,25.818,10.195,6.75-9.958,26.277-6.86,28.5,5.144,5.507-9.861,28.454-10.27,23.767,4.414,9.264-4.942,18.707,2.041,17.77,12.188A16.925,16.925,0,0,1,288.054,224.1c-20.865-3.769-35.041,9.711-43.523,27.126-2.715-2.145-4.652-5.095-6.638-7.928-5.077-6.5-11.95-8.805-17.709-14.773-8.147.33-13.619-7.627-20.583-11.334,3.367,5.4,8.44,13.553,14.8,13.23-16.341,7.709-24.066-9.2-25.158-18.862" transform="matrix(-1, 0, 0, 1, 380, 0)" /><path d="M189.272,211.557c.135.525.345,1.962.949,4.082a32.828,32.828,0,0,0,3.432,7.978,22.142,22.142,0,0,0,3.569,4.463,16.91,16.91,0,0,0,2.488,1.912,12.684,12.684,0,0,0,6.408,1.91,15.908,15.908,0,0,0,1.791-.088,11.53,11.53,0,0,0,1.417-.229,14.948,14.948,0,0,0,2.721-.911c.2-.094.489-.205.612-.284l-.756-.023a6.164,6.164,0,0,1-1.469-.335,9.955,9.955,0,0,1-3.035-1.852,25.9,25.9,0,0,1-3.127-3.2,68.539,68.539,0,0,1-5.192-7.466l-1.229-1.956,2.038,1.09c3.384,1.81,6.235,4.386,9.236,6.652,2.966,2.262,6.259,4.323,9.9,4.5l.8.015c.306.041.691-.1.878.226l1.152,1.122c.686.632,1.4,1.237,2.122,1.822,1.461,1.163,3,2.23,4.548,3.291a47.1,47.1,0,0,1,8.736,7.062,19.881,19.881,0,0,1,1.756,2.176l1.538,2.154c.515.7,1.039,1.381,1.583,2.026q.406.486.832.941l.315.329.269.263c.345.27.817.964.969.195l.794-1.569c.388-.733.812-1.437,1.209-2.145s.793-1.406,1.235-2.066A53.883,53.883,0,0,1,258.6,230.812a41,41,0,0,1,8.191-5.3,35.807,35.807,0,0,1,9.512-2.851,22.815,22.815,0,0,1,2.5-.252,19.342,19.342,0,0,1,2.511-.11l2.52.066a9.068,9.068,0,0,1,1.254.108l.848.1.466.054.224.025c.039-.029,0-.143,0-.209a3.842,3.842,0,0,0-.052-.458l-.038-.224-.023-.118-.064-.258a15.379,15.379,0,0,0-1.646-4.225,16,16,0,0,0-6.516-6.25,8.381,8.381,0,0,0-1.033-.475l-.526-.212-.157-.062-.287-.089-.5-.157-1.013-.314-.253-.078-.127-.04c-.035-.017-.008-.072-.015-.107l.012-.472.051-1.9a3.37,3.37,0,0,0-.029-.705l-.058-.561a5.727,5.727,0,0,0-.17-1.109l-.257-1.09-.4-1.042a10.9,10.9,0,0,0-2.481-3.629,10.539,10.539,0,0,0-3.746-2.225,10.149,10.149,0,0,0-4.351-.38l-1.1.178-1.946.723c-.332.129-.648.234-1,.384l-1.075.492c-.708.318-1.456.679-2.136.964.35-1.306.705-2.607,1.041-4.013a8.089,8.089,0,0,0,.334-1.977,4.059,4.059,0,0,0-.013-.907,5.356,5.356,0,0,0-1.183-3.057c-1.439-1.7-4.044-2.508-6.634-2.607a18.15,18.15,0,0,0-7.747,1.445,14.257,14.257,0,0,0-3.344,1.982l-.713.625c-.528.584-.909,1.124-1.371,1.689-.441.627-.879,1.356-1.32,2.031l-1.205,1.914-1.1-4.537c-.233-.7-.488-1.357-.731-2.039l-.49-.877a11.426,11.426,0,0,0-2.605-2.839,16.1,16.1,0,0,0-7.308-3.082,17.043,17.043,0,0,0-7.94.53A12.846,12.846,0,0,0,209.9,185l-.752.584c-.122.1-.232.214-.348.321l-.2.184a3.92,3.92,0,0,0-.384.394c-.936,1.161-1.838,2.35-2.7,3.52l-1.867-3.375c-.166-.283-.305-.583-.5-.853l-.387-.554c-.175-.245-.338-.5-.52-.737-.4-.449-.773-.922-1.189-1.354-.448-.4-.853-.849-1.326-1.22a19.008,19.008,0,0,0-6.323-3.414,22.111,22.111,0,0,0-7.149-1.031,21.727,21.727,0,0,0-3.594.349c-.6.074-1.16.252-1.737.38-.527.114-1.285.345-1.928.516a78.019,78.019,0,0,1-7.838,1.238,38.242,38.242,0,0,0-7.159,1.43l-.815.28c-.261.106-.508.229-.763.341a10.6,10.6,0,0,0-1.429.774,11.487,11.487,0,0,0-1.221.958l-.515.557-.131.137a.923.923,0,0,0-.165.21l-.434.65-.868,1.3c-.017.083-.126.026-.194.031l-.231-.025-.46-.05-.921-.1-1.2-.129c-.3-.037-.608-.057-.912-.077-1.218-.1-2.432-.154-3.644-.181a49.067,49.067,0,0,0-7.433.437,28.463,28.463,0,0,0-6.965,1.914,15.228,15.228,0,0,0-5.616,3.9l-.3.3-.242.343-.489.682a6.5,6.5,0,0,0-.476.69l-.378.753-.385.749-.1.187-.14.412-.291.874-1.161,3.493-1.974-1.384a8.948,8.948,0,0,0-1-.638l-.5-.29-.125-.072a.312.312,0,0,0-.055-.023l-.1-.034a2.729,2.729,0,0,0-1.305-.212,3.023,3.023,0,0,0-2.111,1.536,8.719,8.719,0,0,0-1.231,3.36,10.751,10.751,0,0,0-.14,1.858c0,.308.027.612.056.914l.062.445c.036.177.027.182.139.652.091.359.145.709.22,1.064.091.186-.058.332-.147.488l-.288.464c-.211.3-.405.6-.631.891l-.3.333c-.081.092-.162.175-.244.252a15.374,15.374,0,0,1-1.972,1.615c-1.307.918-2.589,1.663-3.758,2.438a10.733,10.733,0,0,0-2.772,2.342,1.407,1.407,0,0,0-.331.879c.012.071-.026-.053.046.3a5.463,5.463,0,0,0,.3.613c.114.206.2.389.335.613l.423.679,1.624,2.606-2.753-.327c-.488-.054-1-.129-1.469-.165l-1.392-.093a4.557,4.557,0,0,0-.665.038l-.256.029c-.17.017-.337.062-.507.089a7.241,7.241,0,0,0-.992.272A6.584,6.584,0,0,0,99.17,224.5a2.025,2.025,0,0,0-.453,1.139.928.928,0,0,0,.435.695,2.972,2.972,0,0,0,.3.207l.181.1.09.052c.025.016.169.06.248.088.388.124.726.268,1.156.375l1.491.241c1.072.138,2.3.23,3.451.348l3.342.32-3.707,2.227c-1.294.779-2.591,1.544-3.794,2.321l-1.673,1.1-.856.591-.83.6c-.123.091-.281.205-.248.185l-.023.021a.021.021,0,0,0,.011.038,3.954,3.954,0,0,0,.59.075,4.252,4.252,0,0,0,.716-.028,3.291,3.291,0,0,0,.64-.146,2.962,2.962,0,0,0,.315-.135c.005,0,.013-.007.012-.013s-.006.01.011-.136a3.087,3.087,0,0,1,.146-.693,8.047,8.047,0,0,1,1.2-2.531,9.068,9.068,0,0,1,4.239-3.194,8.315,8.315,0,0,1,5.383-.2l.68.237a7.113,7.113,0,0,1,.643.344l.159.092c.069.038-.038-.009-.017,0l.007,0,.012.012a.18.18,0,0,1,.04.061c.022.06.006-.046.025-.066l.013-.031c-.036.071.021-.053.057-.139l.116-.261a4.279,4.279,0,0,1,.264-.507,8.707,8.707,0,0,1,1.341-1.824,13.467,13.467,0,0,1,7.319-3.657,26.337,26.337,0,0,1,7.572-.3,29.09,29.09,0,0,1,3.692.6q.915.209,1.822.493c.063.022.085.033.131.053l.046-.089c-.005.006.019-.029-.01.01-.009.011-.042.073-.025.045l.052-.087.208-.347.422-.69c.3-.45.67-.863,1.008-1.29.374-.4.791-.765,1.191-1.139a13.211,13.211,0,0,1,5.746-2.57c3.972-.765,7.7-.4,11.256-.211,3.537.213,7.029.439,10.039-.308a7.752,7.752,0,0,0,3.762-2.027,9.024,9.024,0,0,0,2.108-3.762l1.725-5.6,1.483,5.638a10.658,10.658,0,0,1-.447,6.653,12.03,12.03,0,0,1-3.849,5.028,11.848,11.848,0,0,1-5.675,2.377,10.719,10.719,0,0,1-6.025-.975l1.961-2.207a8.547,8.547,0,0,0,2.32,2.515,5.145,5.145,0,0,0,2.934.895,10.289,10.289,0,0,0,6.118-2.58,21.863,21.863,0,0,0,4.643-5.235,15.965,15.965,0,0,0,2.488-6.176l.494-3.521,1.9,2.95a9.336,9.336,0,0,1,1.582,5.965,12.78,12.78,0,0,1-2.081,5.4c-.958,1.54-2,2.908-2.881,4.273a9.742,9.742,0,0,0-1.722,4.08c-.015.308.015.714,0,.937.03.142.208.561.312.869.159.306.337.6.5.9.223.257.412.543.65.785a6.493,6.493,0,0,0,3.615,1.791,8.377,8.377,0,0,0,7.5-2.684l1.375,1.28a9.166,9.166,0,0,1-4.4,2.185,8.307,8.307,0,0,1-4.71-.253,4.371,4.371,0,0,1-2.916-3.794,7.334,7.334,0,0,1,1.225-4.183c1.5-2.362,3.476-3.992,5.065-5.791a15.918,15.918,0,0,0,2.043-2.814,8.081,8.081,0,0,0,.871-3.158,7.767,7.767,0,0,1-.632,3.116,13.882,13.882,0,0,1-1.852,2.97c-1.489,1.919-3.427,3.7-4.77,6a6.557,6.557,0,0,0-.971,3.811.973.973,0,0,0,.086.464l.153.466a3.63,3.63,0,0,0,.54.806,3.485,3.485,0,0,0,1.631,1.035,7.212,7.212,0,0,0,4.02,0,7.782,7.782,0,0,0,3.556-1.941l.838.781a10.094,10.094,0,0,1-9.419,3.482,8.023,8.023,0,0,1-4.783-2.666c-.152-.182-.313-.359-.456-.548l-.372-.606a6.481,6.481,0,0,1-.617-1.274,2.1,2.1,0,0,1-.234-.809l-.039-.772a5.623,5.623,0,0,1,.127-1.457,14.8,14.8,0,0,1,2.21-4.953c.916-1.46,1.872-2.821,2.633-4.2a8.811,8.811,0,0,0,1.268-4.122,6.97,6.97,0,0,0-1.286-3.811l2.724-.649a19.479,19.479,0,0,1-3.188,8.137,23.733,23.733,0,0,1-5.736,6.167,15.039,15.039,0,0,1-3.79,2.048,9.885,9.885,0,0,1-4.489.555,8.612,8.612,0,0,1-4.206-1.734,12.641,12.641,0,0,1-2.792-3.074l-3.843-5.721,6.293,2.963a7.9,7.9,0,0,0,8.854-1.889,8.04,8.04,0,0,0,2.077-3.593,7.648,7.648,0,0,0,.038-3.572l3.823.05-.6,1.672c-.263.526-.509,1.034-.775,1.513a10.582,10.582,0,0,1-4.543,4.143,15.956,15.956,0,0,1-5.573,1.4,72.506,72.506,0,0,1-10.346-.285c-3.27-.2-6.5-.3-9.276.5a8.591,8.591,0,0,0-3.573,1.963c-.121.115-.252.22-.367.342l-.318.393a4.508,4.508,0,0,0-.6.823l-.272.437-.068.109c-.033.063-.13.25-.151.3l-.218.485-.869,1.921-1.517-.6-.762-.292-.38-.14-.3-.1c-.536-.172-1.085-.322-1.642-.447a25.748,25.748,0,0,0-3.386-.541,22.712,22.712,0,0,0-6.722.31c-4.334,1.392-7.768,1.559-6.918,13.434l-.644-1.4-.877-1.829-.436-.91-.218-.455a4.31,4.31,0,0,0-.2-.39l-.7-1.24-.35-.618-.175-.308c-.058-.094-.119-.111-.178-.17a1.688,1.688,0,0,0-.386-.272l-.174-.1a3.069,3.069,0,0,0-.754-.314,5.211,5.211,0,0,0-3.434.258,5.816,5.816,0,0,0-2.714,2.227,4.875,4.875,0,0,0-.632,1.577c-.012.093-.052.423-.1.673-.071.262-.037.572-.279.753a4.25,4.25,0,0,1-1.281,1.045,6.14,6.14,0,0,1-2.52.654,6.466,6.466,0,0,1-2.683-.4,2.93,2.93,0,0,1-2.024-2.158,3.234,3.234,0,0,1,1.2-2.724,8,8,0,0,1,1-.8l.867-.61.825-.56.4-.261.827-.513.424-.253a2.1,2.1,0,0,0,.2-.122l-.234-.024a6.347,6.347,0,0,1-1.212-.231,4.895,4.895,0,0,1-.646-.251l-.665-.371c-.217-.156-.436-.306-.643-.481a3.875,3.875,0,0,1-1.405-3.072,5.082,5.082,0,0,1,1.161-2.935,9.58,9.58,0,0,1,4.663-3.1,9.988,9.988,0,0,1,1.335-.335,8.885,8.885,0,0,1,1.1-.145,5.238,5.238,0,0,1,.651.006c.109,0,.216.024.325.035l.162.02a.918.918,0,0,0-.074-.13,2.3,2.3,0,0,1-.255-.534,1.3,1.3,0,0,1-.072-.29l-.02-.118-.011-.348a4.506,4.506,0,0,1,.961-2.628,14.114,14.114,0,0,1,3.685-3.1c1.281-.828,2.569-1.578,3.729-2.409a10.491,10.491,0,0,0,1.561-1.33,2.777,2.777,0,0,0,.4-.516c.082-.084-.022-.195-.024-.292-.034-.127-.03-.138-.08-.382a12.959,12.959,0,0,1,.05-4.722,11.263,11.263,0,0,1,1.794-4.367,6.746,6.746,0,0,1,1.772-1.735,5.043,5.043,0,0,1,2.436-.826,5.616,5.616,0,0,1,2.457.426,1.4,1.4,0,0,1,.2.083l.142.068a2.183,2.183,0,0,1,.277.15,5.315,5.315,0,0,1,.526.348c.078.1.081-.051.111-.11l.076-.225.152-.45.152-.452a2.07,2.07,0,0,1,.091-.244l.183-.359a14.915,14.915,0,0,1,1.625-2.767,15.229,15.229,0,0,1,2.11-2.4,11.646,11.646,0,0,1,1.23-1.008,9.9,9.9,0,0,1,1.291-.915,27.921,27.921,0,0,1,11.694-3.782,54.2,54.2,0,0,1,12.032.009l.551.06a3.644,3.644,0,0,0,.447.038l.606-.9c.321-.367.711-.77,1.065-1.149.394-.348.819-.659,1.229-.987a17.025,17.025,0,0,1,5.605-2.369c3.875-.963,7.77-1.159,11.481-1.8,1.86-.285,3.577-.883,5.563-1.283a26.787,26.787,0,0,1,5.834-.429,25.714,25.714,0,0,1,5.743.918,23.094,23.094,0,0,1,5.322,2.285,20.689,20.689,0,0,1,4.489,3.629l.942,1.1c.309.369.56.782.841,1.171a5.239,5.239,0,0,1,.445.711l.2.363.1.181.05.09c.016.031.032.075.054.024a8.2,8.2,0,0,1,.871-1.049l.35-.327a5.858,5.858,0,0,1,.45-.4c.319-.242.622-.507.955-.726a15.533,15.533,0,0,1,4.268-2.05,19.782,19.782,0,0,1,9.221-.5,18.434,18.434,0,0,1,8.366,3.693,13.83,13.83,0,0,1,3.07,3.462c.176.313.411.713.535.955.083.189.176.373.249.564s.138.386.195.581a4.04,4.04,0,0,0,.148.553,6.588,6.588,0,0,1,.73-1.023c.147-.15.278-.3.436-.451.3-.256.581-.531.89-.769a17.212,17.212,0,0,1,3.992-2.335,20.593,20.593,0,0,1,8.909-1.57,14.7,14.7,0,0,1,4.491.915,8.976,8.976,0,0,1,3.858,2.7,7.869,7.869,0,0,1,1.674,4.44,6.027,6.027,0,0,1,.01,1.128,3.461,3.461,0,0,1-.055.559,7.823,7.823,0,0,1-.241,1.07c-.018.037,0,.033.029.015l.07-.032.14-.064.279-.128a3.455,3.455,0,0,1,.6-.244l.709-.218.184-.054.309-.051.619-.1a12.937,12.937,0,0,1,2.5-.171c.417,0,.832.085,1.248.126l.622.078c.2.041.405.1.608.156a12.484,12.484,0,0,1,7.756,5.819,14.343,14.343,0,0,1,1.689,4.577,11.9,11.9,0,0,1,.147,1.205l.059.6.028.3,0,.176-.018.7,0,.174c0,.06-.015.128.048.123l.264.08a15.141,15.141,0,0,1,1.82.736l1.061.548,1.012.626a18.878,18.878,0,0,1,3.552,3.1,18.164,18.164,0,0,1,4.2,8.282,31.194,31.194,0,0,1,.353,3.252l.051.824c.034.1-.052.073-.12.065l-.2-.021-.4-.04c-.541-.061-1.063-.1-1.618-.177l-2.622-.343c-.7-.041-1.4-.048-2.1-.075a34.093,34.093,0,0,0-8.281.775,33.13,33.13,0,0,0-7.669,2.906,40.251,40.251,0,0,0-12.37,10.37,59.815,59.815,0,0,0-4.679,6.531c-.7,1.137-1.348,2.3-2.012,3.45l-1.205,2.334c-.239.459-.488.872-.731,1.31a3.3,3.3,0,0,1-.375.6l-.589-.485a27.864,27.864,0,0,1-2.258-2.028l-.264-.275-.179-.194-.349-.389-.673-.792c-.87-1.068-1.661-2.169-2.423-3.261-.384-.544-.754-1.1-1.118-1.593-.405-.473-.767-.963-1.214-1.418A28.859,28.859,0,0,0,233,239.826c-3.88-3.257-8.522-5.775-12.345-9.414-.264-.261-.53-.524-.8-.79-.066-.112-.186-.1-.3-.1l-.542-.012a13.293,13.293,0,0,1-3.057-.536,20.244,20.244,0,0,1-5.742-2.888c-3.614-2.474-6.855-5.816-11-8.153l1.105-1.184a68.619,68.619,0,0,0,4.944,7.369,24.669,24.669,0,0,0,2.935,3.122l.81.648.2.161.305.18.606.358.3.177a.8.8,0,0,0,.4.156l1.183.229,1.158.227.147.029.257.022.51.043,1.01.088-.258.324c-.078.1-.21.237-.116.25l.26.245c.095.077.351.035.521.059l.286.012c-.116.057-.316.135-.469.2a34.41,34.41,0,0,1-3.851,1.435l-.965.281-1.017.2a13.77,13.77,0,0,1-1.934.246,14.142,14.142,0,0,1-3.357-.22,13.807,13.807,0,0,1-5.781-2.58,19.365,19.365,0,0,1-3.968-4.178,29.616,29.616,0,0,1-4.006-8.486A30.9,30.9,0,0,1,189.272,211.557Z" transform="matrix(-1, 0, 0, 1, 380, 0)" /><path class="cls-1 color-hair" d="M205.193,198.369c8.194-11.361,36.287-11.139,38.7,5.249,10.2-15.939,37.256-14.017,28.769,8.733-.849,2.61-2.306,5.629-5.038,5.9" transform="matrix(-1, 0, 0, 1, 380, 0)" /><path d="M267.622,218.22a6.517,6.517,0,0,0,2.3-1.555,14.007,14.007,0,0,0,2.431-5.324,21.5,21.5,0,0,0,1.143-6.716,10.613,10.613,0,0,0-1.269-5.148,9.239,9.239,0,0,0-5.5-4.171,12.761,12.761,0,0,0-3.668-.543,16.534,16.534,0,0,0-3.8.363,21.184,21.184,0,0,0-7.121,2.9,21.6,21.6,0,0,0-3.006,2.33l-.685.643-.633.688-.427.463c-.21.251-.414.559-.622.836l-1.243,1.708c-.916,1.266-1.785,2.583-2.641,3.807l-.756-3.619-.415-1.892a9.035,9.035,0,0,0-.5-1.741l-.377-.844c-.106-.211-.238-.408-.353-.613a9.005,9.005,0,0,0-.788-1.17,13.556,13.556,0,0,0-4.382-3.64,25.14,25.14,0,0,0-11.212-2.753,30.769,30.769,0,0,0-10.668,1.561,18.462,18.462,0,0,0-7.772,4.914,11.515,11.515,0,0,1,2.681-4.174,18.6,18.6,0,0,1,4.822-3.5,23.592,23.592,0,0,1,5.321-1.96,17.4,17.4,0,0,1,4.119-.486,29.623,29.623,0,0,1,14.385,3.786,16.565,16.565,0,0,1,5.208,4.756,10.923,10.923,0,0,1,.905,1.475,5.592,5.592,0,0,1,.382.767l.254.611a9.655,9.655,0,0,1,.468,1.855c0,.152.071-.023.112-.059l.14-.2.281-.394c.189-.263.412-.5.616-.758l.158-.188.212-.222.567-.593c.364-.407.786-.751,1.18-1.118a24.823,24.823,0,0,1,5.217-3.551,21.461,21.461,0,0,1,11.551-2.409,13.907,13.907,0,0,1,5.479,1.642,10.741,10.741,0,0,1,4.023,3.885,11.86,11.86,0,0,1,1.579,5.067,17.025,17.025,0,0,1-.351,4.9,11.959,11.959,0,0,1-.439,1.743q-.141.454-.287.931c-.122.3-.245.612-.37.924a23.594,23.594,0,0,1-1.745,3.679,7.439,7.439,0,0,1-2.483,2.574A3.973,3.973,0,0,1,267.622,218.22Z" transform="matrix(-1, 0, 0, 1, 380, 0)" /><path class="cls-1 color-hair" d="M204.747,206.787c-4.048,11.868,14.737,8.446,18.421,15.689,1.353,3.768-3.149,7.575-2.344,11.5,1.258,7.282,18.867,4.354,11.872,13.854-.855,3,2.656,5.264,5.558,6.4,14.22,6.11-4.981,9.933,7.572,18.578,10.591,7.352,3.512,8.464,3.254,16.6.957,2.96,5.511,3.516,6.406,6.494,1.114,3.711-4.459,6.622-4.071,10.477.469,4.675,8.7,5.164,9.292,9.825s-7.171,6.953-6.918,11.641c.469,6.335,12.634,5.1,12.42,11.794-.222,3.746-5.26,4.456-7.082,7.2-1.714,5.66,7.484,5.324,9.438,9.163.672,5.23-7.3,8.375-4.415,14.127-3.7,8.789-7.163,11.857-1.127,21.786-4.874-8.8,4.851-13.322,10.865-17.261,2.987-3.914.291-6.479-3.11-8.315-1.114-2.917,2.73-4.01,4.564-5.213a5.919,5.919,0,0,0,.122-9.146c-1.895-1.41-4.956-2.047-5.189-4.4a4.273,4.273,0,0,1,.788-2.539c15.862-20.2-10.494-10.076-1.933-24.931,8.216-12.586-6.1-8.789-6.419-16.879,2.83-3.914,3.334-7.19-.741-10.857-9.756-7.245-2.393-10.874-1.9-19.356-.836-5.539-9.023-6.991-10.865-12.281-1.821-5.156,3.9-12.215-.876-16.507-2.644-2.148-7.193-.944-9.379-3.558-1.542-1.845-1.016-4.657.059-6.808,14.373-23.646-27.95-13.818-31.979-31.54" transform="matrix(-1, 0, 0, 1, 380, 0)" /><path d="M207.062,202.327c.112.231.3.715.553,1.421a12.785,12.785,0,0,0,1.5,2.5,15.825,15.825,0,0,0,1.308,1.422,16.686,16.686,0,0,0,1.76,1.367,22.871,22.871,0,0,0,4.687,2.417,124.413,124.413,0,0,0,12.786,3.816,40.526,40.526,0,0,1,7.333,2.644,12.728,12.728,0,0,1,3.435,2.411,7.043,7.043,0,0,1,2.027,3.906,9.155,9.155,0,0,1,.1,2.242c-.049.366-.123.728-.185,1.094a5.75,5.75,0,0,1-.252,1.074,20.653,20.653,0,0,1-1.68,4.03l-.526.952-.264.477c-.046.073-.131.275-.2.411a9.309,9.309,0,0,0-.622,1.889,4.61,4.61,0,0,0,.478,3.585,4.82,4.82,0,0,0,3.192,1.737,39.987,39.987,0,0,1,4.219.856,6.739,6.739,0,0,1,2.1,1.092l.814.864c.245.307.433.657.646.986a7.846,7.846,0,0,1,.734,4.412c-.271,2.842-1.169,5.36-1.322,7.756a6.548,6.548,0,0,0,.534,3.255,8.274,8.274,0,0,0,1.965,2.558c1.65,1.472,3.566,2.607,5.249,3.962a13.607,13.607,0,0,1,2.278,2.292,7.53,7.53,0,0,1,1.293,2.916,1.616,1.616,0,0,1,.027.768l-.056.581a8.775,8.775,0,0,1-.156,1.156l-.226,1.142-.3,1.116c-.437,1.471-1.008,2.876-1.486,4.227a8.6,8.6,0,0,0-.663,3.854,6.138,6.138,0,0,0,1.676,3.325,19.4,19.4,0,0,0,1.5,1.448l.845.665.422.334a6.209,6.209,0,0,1,.531.47,9.656,9.656,0,0,1,2.873,4.311,7.7,7.7,0,0,1-.624,5.346c-.171.4-.387.757-.588,1.129-.2.329-.489.8-.534.859-.039.072-.118.151-.126.216l.023.185c0,.038.042.161.073.314a2.373,2.373,0,0,0,.131.4,5.45,5.45,0,0,0,2.549,2.582,32.491,32.491,0,0,1,4.159,2.513,5.68,5.68,0,0,1,1.8,2.5,5.961,5.961,0,0,1,.161,3.041,15.089,15.089,0,0,1-1.983,4.778l-.62,1.016-.486.935a11.611,11.611,0,0,0-.759,1.911,4.376,4.376,0,0,0-.2,1.719,2.01,2.01,0,0,0,.569,1.254,11.909,11.909,0,0,0,3.485,2.117,15.475,15.475,0,0,1,2.271,1.313,5.694,5.694,0,0,1,2.563,5.53,11.369,11.369,0,0,1-.713,2.7,24.454,24.454,0,0,1-2.425,4.455c-.465.675-.917,1.365-1.413,2l-.73.974-.1.13-.088.155c-.078.141-.147.277-.2.405a2.283,2.283,0,0,0-.2.648.854.854,0,0,0,.044.416,1.957,1.957,0,0,0,.839.883c.517.342,1.179.672,1.909,1.055a10.192,10.192,0,0,1,2.354,1.574,7.54,7.54,0,0,1,2.193,5.581,7.429,7.429,0,0,1-2.473,5.49,12.388,12.388,0,0,1-2.328,1.431,9.706,9.706,0,0,0-1.661,1.045c-.472.431-.339.377-.379.481a.181.181,0,0,0,.033.109l.053.028.02.01.273.167a12.673,12.673,0,0,1,2.166,1.68,6.7,6.7,0,0,1,1.716,2.668,5.607,5.607,0,0,1-.014,3.409l-.281.742c-.107.231-.228.445-.345.667a5.016,5.016,0,0,1-.381.616l-.272.393c-.12.138-.18.339-.348.428l-4.19,2.666a36.439,36.439,0,0,0-3.591,2.571,12.29,12.29,0,0,0-2.728,2.942,5.833,5.833,0,0,0-.969,3.275A8.495,8.495,0,0,0,264.69,391l-3.3,1.914a33.466,33.466,0,0,1-2.225-4.28,16.035,16.035,0,0,1-1.274-4.714,13,13,0,0,1,.4-4.849,29.583,29.583,0,0,1,1.575-4.219l1.74-3.809.406-.933c0-.008.007-.013,0-.018l-.034-.069c0,.013-.054-.135-.092-.235a1.5,1.5,0,0,1-.1-.337,8.549,8.549,0,0,1-.229-1.425,7.235,7.235,0,0,1,.413-2.8l.231-.635.281-.57a9.918,9.918,0,0,1,.6-1.065c.836-1.334,1.732-2.417,2.409-3.46a5.241,5.241,0,0,0,1.091-2.8c-.011-.159,0-.05,0-.06l.014.028.02.04a.565.565,0,0,0-.065-.1c-.076-.068-.149-.138-.22-.21a6.19,6.19,0,0,0-1.267-.873c-1.06-.568-2.341-1.053-3.7-1.712-.346-.179-.681-.328-1.042-.554a8.1,8.1,0,0,1-1.074-.712,6.035,6.035,0,0,1-1.936-2.364,5.052,5.052,0,0,1-.377-1.645c-.013-.272-.019-.546-.018-.817.029-.249.08-.482.125-.723l.208-.989.634-.837a7.885,7.885,0,0,1,.961-.964,38.2,38.2,0,0,1,3.59-2.44,6.323,6.323,0,0,0,1.2-1,2.272,2.272,0,0,0,.51-.91,2.508,2.508,0,0,0-.046-1.063,2.326,2.326,0,0,0-.544-.968,8.6,8.6,0,0,0-2.744-1.77c-1.15-.538-2.433-1.036-3.756-1.677a10.875,10.875,0,0,1-3.96-2.956,6.343,6.343,0,0,1-1.2-2.664l-.1-.732c-.007-.25.008-.507.02-.76a5.469,5.469,0,0,1,.264-1.461,10.215,10.215,0,0,1,2.766-4.087c1.018-1.015,2.015-1.879,2.767-2.738a7,7,0,0,0,.882-1.228,2.337,2.337,0,0,0,.251-1.046,2.542,2.542,0,0,0-1.1-1.976,22.707,22.707,0,0,0-3.032-2,14.819,14.819,0,0,1-3.613-2.766,9.109,9.109,0,0,1-.791-1.123,6.072,6.072,0,0,1-.532-1.353,5.95,5.95,0,0,1-.037-2.864,12.083,12.083,0,0,1,2.156-4.1,13.194,13.194,0,0,0,1.786-2.854,1.822,1.822,0,0,0,.135-1,1.544,1.544,0,0,0-.4-.867,11.92,11.92,0,0,0-2.622-1.987,12.52,12.52,0,0,1-1.775-1.383,5.823,5.823,0,0,1-1.594-2.46c-.177-.266-.058-.6-.059-.873l.056-.65a8.387,8.387,0,0,1,.133-1.073l.208-1.061.291-1.026c.412-1.346,1-2.6,1.425-3.66a6.929,6.929,0,0,0,.269-.756,2.9,2.9,0,0,0,.153-.658l.047-.3c-.012-.088-.019-.175-.023-.263a1.443,1.443,0,0,0-.1-.527,6.323,6.323,0,0,0-1.681-2.327,25.178,25.178,0,0,0-2.692-2.2l-1.537-1.144a16.419,16.419,0,0,1-1.538-1.357,8.884,8.884,0,0,1-2.39-3.786,6.273,6.273,0,0,1-.175-2.445,8.355,8.355,0,0,1,.6-2.171c.544-1.287,1.211-2.332,1.592-3.249a3.089,3.089,0,0,0,.271-1.13,1.417,1.417,0,0,0-.274-.85,6.749,6.749,0,0,0-2.184-1.8c-.482-.256-.955-.527-1.458-.748-.472-.24-1.029-.45-1.623-.734a13.9,13.9,0,0,1-3.3-2.115,7.345,7.345,0,0,1-1.405-1.622,4.934,4.934,0,0,1-.8-2.255,3.354,3.354,0,0,1-.01-.626,2.748,2.748,0,0,1,.089-.685,2.423,2.423,0,0,1,.193-.7l.376-.546a8.154,8.154,0,0,0,.763-1.272,3.573,3.573,0,0,0,.367-1.162,1.485,1.485,0,0,0-.162-.839,4.747,4.747,0,0,0-2.054-1.5c-.932-.435-1.973-.8-3.02-1.177s-2.127-.769-3.2-1.262a10.883,10.883,0,0,1-3.094-2,6.276,6.276,0,0,1-1.217-1.607,5.928,5.928,0,0,1-.57-1.94,7.818,7.818,0,0,1,.516-3.687c.794-2.156,1.953-3.949,2.2-5.69.008-.208.037-.42.036-.625a4.871,4.871,0,0,0-.064-.6c-.071-.207-.052-.358-.143-.471a3.86,3.86,0,0,0-.327-.523,6.844,6.844,0,0,0-2.007-1.764,25.473,25.473,0,0,0-5.375-2.2c-1.883-.6-3.793-1.146-5.64-1.94a12.875,12.875,0,0,1-2.662-1.483,6.563,6.563,0,0,1-2.045-2.386,6.074,6.074,0,0,1-.544-3.043,10.791,10.791,0,0,1,.629-2.848,11.351,11.351,0,0,0-.407,2.608,5.769,5.769,0,0,0,.517,2.735,7.545,7.545,0,0,0,4.406,3.51,52.6,52.6,0,0,0,5.825,1.655,26.751,26.751,0,0,1,6.137,2.121,7.939,7.939,0,0,1,2.7,2.28l.254.394a1.426,1.426,0,0,1,.24.484,4.687,4.687,0,0,1,.237.96,4.355,4.355,0,0,1,.056.964,5.431,5.431,0,0,1-.091.943c-.442,2.458-1.743,4.44-2.143,6.432a4.333,4.333,0,0,0,.18,2.7,4.269,4.269,0,0,0,1.838,1.909,31.887,31.887,0,0,0,6.1,2.329,15.834,15.834,0,0,1,3.414,1.5,5.5,5.5,0,0,1,1.669,1.538,4.247,4.247,0,0,1,.764,2.461,7.782,7.782,0,0,1-1.36,3.927l-.252.383-.031.058a.774.774,0,0,0,0,.194,1.45,1.45,0,0,0,.205.765,4.94,4.94,0,0,0,1.608,1.628,13.292,13.292,0,0,0,2.405,1.264,16.071,16.071,0,0,1,5.761,3.448,5.563,5.563,0,0,1,1.143,1.789,4.822,4.822,0,0,1,.317,2.236,9.145,9.145,0,0,1-1.077,3.247c-.861,1.638-1.389,2.828-1.3,3.692a3.159,3.159,0,0,0,.407,1.3,7.149,7.149,0,0,0,.994,1.277,15.651,15.651,0,0,0,1.246,1.136l1.346,1.014a26.827,26.827,0,0,1,4.172,3.663c.314.416.629.82.925,1.254l.4.754a3.3,3.3,0,0,1,.327.811c.085.294.166.588.234.884q.04.462.057.926a4.034,4.034,0,0,1-.07.882,4.563,4.563,0,0,1-.164.819c-.6,2.041-1.429,3.358-1.854,4.81a12.354,12.354,0,0,0-.493,2.156l-.054.548c-.011.108-.026.121-.018.159s0,.054.048.113a1.723,1.723,0,0,0,.193.3c.643.886,2.129,1.642,3.628,2.78a6.565,6.565,0,0,1,2.066,2.466,5.106,5.106,0,0,1,.251,3.461,9.308,9.308,0,0,1-1.311,2.645c-.5.745-1.017,1.4-1.465,2.033a10.321,10.321,0,0,0-1.1,1.835,2.974,2.974,0,0,0-.243,1.63c.1,1.021,1.071,1.96,2.325,2.805s2.735,1.584,4.161,2.7a7.912,7.912,0,0,1,1.941,2.139,5.578,5.578,0,0,1,.687,3.049,6.265,6.265,0,0,1-1.046,2.8,13.4,13.4,0,0,1-1.716,2,39.812,39.812,0,0,0-3.262,3.278,4.514,4.514,0,0,0-.9,1.677,2.888,2.888,0,0,0,.02,1.7,5.16,5.16,0,0,0,2.675,2.693c1.281.709,2.732,1.27,4.186,1.946a10.9,10.9,0,0,1,4.175,2.939,5.173,5.173,0,0,1,.587,5.417,6.29,6.29,0,0,1-1.758,2.055,20.942,20.942,0,0,1-2,1.344c-.651.4-1.29.785-1.837,1.208-.522.42-1.094.927-1.126,1.233l-.084.406a1.393,1.393,0,0,0-.01.426,2.1,2.1,0,0,0,.146.789,3.337,3.337,0,0,0,1.163,1.317,23.971,23.971,0,0,0,3.876,1.965,17.989,17.989,0,0,1,2.1,1.1,6.019,6.019,0,0,1,1.91,1.791l.231.356.11.167a.609.609,0,0,1,.02.2l.025.784a6.014,6.014,0,0,1-.149,1.291,10.242,10.242,0,0,1-.4,1.2,11.094,11.094,0,0,1-.551,1.083c-.8,1.375-1.772,2.525-2.568,3.7a6.619,6.619,0,0,0-1.418,3.617c0,.153-.012.307,0,.46l.09.456a4.035,4.035,0,0,0,.343,1.057l.142.358c.041.119.131.239.037.356l-.308.7-.472,1.077-1.832,3.967c-1.184,2.6-2.139,5.249-1.736,7.921a20.675,20.675,0,0,0,3.063,7.575l-1.329.771-.785-1.683c-.17-.605-.378-1.2-.493-1.82l-.1-.952a3.4,3.4,0,0,1,0-.955l.089-.958.257-.922.132-.46.2-.428.406-.851a14.594,14.594,0,0,1,1.061-1.512,13.063,13.063,0,0,1,1.227-1.33,16.423,16.423,0,0,1,1.329-1.184,53.443,53.443,0,0,1,5.706-3.909l1.426-.9.342-.219a.946.946,0,0,0,.21-.153l.373-.549a3.667,3.667,0,0,0,.59-2.642,4.431,4.431,0,0,0-1.594-2.293,10.783,10.783,0,0,0-1.262-.913c-.175-.114-.571-.336-.869-.539l-.47-.308a1.823,1.823,0,0,1-.189-.521,3.124,3.124,0,0,1,.142-2.223,4.239,4.239,0,0,1,1.332-1.563,23.522,23.522,0,0,1,2.944-1.727,3.95,3.95,0,0,0,1.111-.837,4.5,4.5,0,0,0,.778-1.138,5.666,5.666,0,0,0,.476-2.767,5.127,5.127,0,0,0-.951-2.582,6.355,6.355,0,0,0-2.288-1.688,12.635,12.635,0,0,1-2.914-1.838,3.555,3.555,0,0,1-.966-3.792,6.3,6.3,0,0,1,.352-.861l.206-.39a3.279,3.279,0,0,1,.272-.434l.95-1.265c.618-.837,1.213-1.689,1.749-2.559a13.125,13.125,0,0,0,2.2-5.36A3.009,3.009,0,0,0,274.65,333a7.142,7.142,0,0,0-2.209-1.6c-.878-.46-1.832-.875-2.783-1.422a6.758,6.758,0,0,1-2.592-2.377,5.211,5.211,0,0,1-.514-3.586,12.013,12.013,0,0,1,1.074-3.12c.251-.469.5-.965.757-1.41.253-.423.541-.846.765-1.267a15.252,15.252,0,0,0,1.187-2.552,4.745,4.745,0,0,0,.279-2.434,3.1,3.1,0,0,0-1.243-1.847c-1.363-1.071-3.291-1.766-5.016-3.085a7.055,7.055,0,0,1-2.145-2.641c-.106-.272-.21-.549-.293-.827a7.1,7.1,0,0,1-.181-.942l-.054-.549c0-.176-.1-.389.051-.511l.577-.847a7.263,7.263,0,0,0,1.526-4.711,7.084,7.084,0,0,0-2.583-4.1l-1.09-.874a9.634,9.634,0,0,1-1.116-1,12.432,12.432,0,0,1-1.979-2.353,7.475,7.475,0,0,1-.724-1.441l-.268-.781a7.9,7.9,0,0,1-.141-.816,8.266,8.266,0,0,1,.22-3.174c.519-1.963,1.317-3.628,1.867-5.309a17.873,17.873,0,0,0,.675-2.509,8.63,8.63,0,0,0,.187-1.26l.061-.543a2.575,2.575,0,0,0-.09-.4,7.343,7.343,0,0,0-2.76-3.719c-1.326-1.077-2.84-2.047-4.29-3.214a9.212,9.212,0,0,1-3.751-10.354c.334-1.778.806-3.432,1.021-5.034a6.242,6.242,0,0,0-.57-4.277c-.094-.142-.17-.3-.273-.434l-.349-.375a2.427,2.427,0,0,0-.756-.612,7.241,7.241,0,0,0-2.078-.726,21.662,21.662,0,0,1-5.108-1.278,5.615,5.615,0,0,1-1.857-1.5,5.2,5.2,0,0,1-.993-2.288,8.611,8.611,0,0,1,.717-4.711c.078-.183.159-.366.249-.545.064-.15.234-.446.3-.565l.538-.94a16.262,16.262,0,0,0,.993-1.946,12.648,12.648,0,0,0,1.2-4.152,5.772,5.772,0,0,0-.983-3.985,9.977,9.977,0,0,0-3.352-2.843,44.034,44.034,0,0,0-8.626-3.3c-5.835-1.718-11.437-3.294-15.351-5.861a13.509,13.509,0,0,1-4.282-4.2l-.33-.513-.239-.525-.426-.95C207.325,203.266,207.179,202.743,207.062,202.327Z" transform="matrix(-1, 0, 0, 1, 380, 0)" /><path d="M286.929,221.537a2.2,2.2,0,0,1-.3-.789l-.172-.737-.317-.895a11.637,11.637,0,0,0-2.71-4.26,13.455,13.455,0,0,0-4.91-3.09c-.448-.135-.873-.3-1.3-.4l-1.238-.254a12.039,12.039,0,0,0-2.109-.1,12.509,12.509,0,0,0-4.864,1.145l-.14.05a12.37,12.37,0,0,0-4.175,2.862,26.331,26.331,0,0,1-4.773,3.961,7.924,7.924,0,0,1-.781.407l-.66.289-.315.14a1.716,1.716,0,0,1-.338-.038l-1.126-.168a5.1,5.1,0,0,1-.829-.169,11.783,11.783,0,0,1-1.6-.489l-.775-.3-.733-.351a27.769,27.769,0,0,1-5.125-3.4c-1.642-1.323-3.153-2.684-4.662-3.9-.753-.618-1.507-1.177-2.265-1.694-.187-.139-.381-.245-.571-.365l-.68-.419-1.249-.9a29.805,29.805,0,0,0-4.753-2.709c-.806-.412-1.66-.685-2.478-1.029-.844-.253-1.665-.588-2.507-.766a25.611,25.611,0,0,0-4.95-.817,18.145,18.145,0,0,0-4.637.356,13.469,13.469,0,0,0-7.17,3.976c.217-.551.5-1.171.843-1.84A16.24,16.24,0,0,1,214,202.954l.955-.865.508-.436.562-.361,1.163-.718c.408-.2.827-.37,1.246-.549a15.1,15.1,0,0,1,8.647-.893,34.774,34.774,0,0,1,13.177,6.274l.683.531c.148.112.129.109.227.174l.364.239c.492.308.95.647,1.4.985.9.678,1.737,1.392,2.546,2.1,1.613,1.423,3.122,2.838,4.676,4.085a18.965,18.965,0,0,0,4.856,2.985,7.942,7.942,0,0,0,1.281.424,7.486,7.486,0,0,0,1.254.255c.142.017.281.068.4-.022l.178-.083a2.225,2.225,0,0,0,.286-.14,10.967,10.967,0,0,0,1.093-.667,51.586,51.586,0,0,0,3.989-3.481,12.971,12.971,0,0,1,4.713-2.857l-.113.039a14,14,0,0,1,7.272-.957,14.88,14.88,0,0,1,6.339,2.36,12.1,12.1,0,0,1,4.469,5.331c.221.544.36,1.1.519,1.59.1.515.16,1,.225,1.421C286.983,220.577,286.926,221.226,286.929,221.537Z" transform="matrix(-1, 0, 0, 1, 380, 0)" /><path class="cls-1 color-hair" d="M313.519,304.363c7.455,22.311-18.984,42.1-7.668,55.376-30.054-22.274,15.636-17.252-11.346-50.438-10.91-8.137,5.784-.913,16.315-12.563A36.869,36.869,0,0,1,313.519,304.363Z" transform="matrix(-1, 0, 0, 1, 380, 0)" /><path d="M313.489,304.37a17.192,17.192,0,0,1-.96-2.432c-.247-.666-.553-1.46-.911-2.3q-.227-.5-.478-1.047l-.257-.522-.134-.262-.069-.131a.614.614,0,0,0-.034-.063l-.055.06c-.253.273-.5.552-.759.82l-.413.394a5.94,5.94,0,0,1-.483.432,20.833,20.833,0,0,1-2.666,1.937,25.2,25.2,0,0,1-6.221,2.714,59.452,59.452,0,0,1-6.108,1.339,3.381,3.381,0,0,0-1.415.485c-.186.157-.091.432.045.583a2.362,2.362,0,0,0,.412.417q.142.124.288.228l.364.268c.357.267.723.537,1.12.81l.339.241a1.367,1.367,0,0,1,.4.384l.49.591.952,1.149.954,1.164.9,1.226c.6.82,1.218,1.641,1.753,2.534a28.466,28.466,0,0,1,1.6,2.7l.742,1.409.632,1.49a10.9,10.9,0,0,1,.567,1.532c.16.527.336,1.049.479,1.585l.321,1.655a15.6,15.6,0,0,1,.163,1.7,15.1,15.1,0,0,1-1.241,6.765,27.92,27.92,0,0,1-3.419,5.586,22.541,22.541,0,0,0-2.978,4.7,5.2,5.2,0,0,0,.285,4.288,18.689,18.689,0,0,0,4.078,4.983c.785.8,1.722,1.494,2.567,2.242l2.7,2.1-2.713,2.9a14.422,14.422,0,0,1-2.466-4.2,13.667,13.667,0,0,1-.827-4.729,25.05,25.05,0,0,1,1.748-8.609c1.947-5.225,4.432-9.771,6.41-14.242a53.537,53.537,0,0,0,4.271-12.982,28.134,28.134,0,0,0-.486-11.733,21.3,21.3,0,0,1,2.4,6.821,28.375,28.375,0,0,1,.078,8.608,45.819,45.819,0,0,1-4.111,13.322c-2.335,4.638-4.772,8.989-6.22,13.435a16.645,16.645,0,0,0-.948,6.608,10.538,10.538,0,0,0,2.384,5.8l5.72,6.941-6.985-5.586-2.259-1.806c-.746-.6-1.449-1.256-2.17-1.874s-1.369-1.325-2.05-1.976c-.635-.709-1.288-1.391-1.857-2.155a11.474,11.474,0,0,1-2.473-5.178,8.813,8.813,0,0,1-.085-1.482,11.872,11.872,0,0,1,.225-1.453,10.843,10.843,0,0,1,1.105-2.6,48.654,48.654,0,0,1,3-4.286,25.547,25.547,0,0,0,2.573-4.117,12.983,12.983,0,0,0,1.185-4.409l.061-1.123-.079-1.121a5.715,5.715,0,0,0-.146-1.109l-.206-1.1a27.005,27.005,0,0,0-3.626-8.044c-.721-1.261-1.631-2.4-2.426-3.576-.425-.573-.877-1.123-1.309-1.68l-.651-.83-.313-.4a.648.648,0,0,0-.2-.188l-.865-.659-.437-.351-.218-.175-.286-.256a5.863,5.863,0,0,1-1.812-2.293,1.5,1.5,0,0,1,.043-1.278,2.314,2.314,0,0,1,.932-.851,9.7,9.7,0,0,1,2.8-.771,46.493,46.493,0,0,0,7.475-1.584,26.911,26.911,0,0,0,4.652-2.013,22.843,22.843,0,0,0,2.346-1.512c.434-.342.96-.819,1.41-1.194l1.29-1.205c.094-.062.139.2.2.312l.179.429q.168.418.333.827c.213.536.4,1.058.567,1.543.313.945.5,1.649.683,2.378C313.235,302.747,313.41,303.835,313.489,304.37Z" transform="matrix(-1, 0, 0, 1, 380, 0)" /><path d="M154.648,190.179a2.357,2.357,0,0,1-.06-1.444,8.4,8.4,0,0,1,1.071-2.778,17.662,17.662,0,0,1,4.249-4.564,21.04,21.04,0,0,1,7.009-3.767,19.624,19.624,0,0,1,15.031,1.079,24.829,24.829,0,0,1,5.391,3.682,27.925,27.925,0,0,1,6.43,8.47,29.571,29.571,0,0,1-4.618-2.446,16.252,16.252,0,0,1-3.313-2.454,21.684,21.684,0,0,0-3.514-3.376,17.417,17.417,0,0,0-4-2.237,15.146,15.146,0,0,0-8.215-.874,17.838,17.838,0,0,0-3.677.985,24.82,24.82,0,0,0-3.253,1.448,23.341,23.341,0,0,0-5.122,3.609,20.675,20.675,0,0,0-2.2,2.449,11.54,11.54,0,0,0-.8,1.335Z" transform="matrix(-1, 0, 0, 1, 380, 0)" /><g class="cls-2" transform="matrix(-1, 0, 0, 1, 380, 0)"><path class="cls-3" d="M154.1,190.871c-.217-.2-.185-.675.018-1.328a8.29,8.29,0,0,1,.513-1.036,12.294,12.294,0,0,1,.817-1.112,17.957,17.957,0,0,1,4.353-3.235,14.12,14.12,0,0,1,6.684-2.011,26.475,26.475,0,0,1,6.9.519,23.369,23.369,0,0,1,10.066,4.613,14.816,14.816,0,0,1,5.348,7.583c-3.787-.07-7.516-.15-8.291-1.267a14.589,14.589,0,0,0-5.707-4.992,16.952,16.952,0,0,0-6.444-1.74,18.577,18.577,0,0,0-5.636.508,26.36,26.36,0,0,0-4.268,1.523c-.581.29-1.5.565-2.385.954C155.188,190.223,154.411,190.727,154.1,190.871Z" style="" /></g><g class="cls-2" transform="matrix(-1, 0, 0, 1, 380, 0)"><path class="cls-3" d="M119.045,210.8c-.257-.144-.343-.535-.32-1.089a6.128,6.128,0,0,1,.419-1.994l.413-1.118c.149-.374.355-.712.521-1.06s.334-.675.474-.986.3-.562.4-.806q.272-.641.612-1.29c.251-.4.531-.795.824-1.191a14.318,14.318,0,0,1,2.037-2.176,20.98,20.98,0,0,1,5.02-3.109,17.216,17.216,0,0,1,9.384-1.395,12.956,12.956,0,0,1,7.1,3.176,25.834,25.834,0,0,1-3.862,2.948,10.07,10.07,0,0,1-1.515.763,1.276,1.276,0,0,1-1.023.01,10.177,10.177,0,0,0-6.052-1.259,11.51,11.51,0,0,0-5.1,1.8,13.181,13.181,0,0,0-1.923,1.5,16.418,16.418,0,0,0-1.559,1.6c-.5.507-.854,1.091-1.313,1.556a11.863,11.863,0,0,1-1.24,1.438,8.45,8.45,0,0,1-1.741,1.5C119.962,210.14,119.29,210.637,119.045,210.8Z" style="" /></g><path d="M107.419,228.306a6.228,6.228,0,0,1,2.526-2.769,11.41,11.41,0,0,1,3.146-1.519,11.719,11.719,0,0,1,3.366-.525c.18-.438.244-.732.532-1.506.324-.627.667-1.227.981-1.8.37-.537.768-1.014,1.11-1.475a12.606,12.606,0,0,1,1.06-1.126,16.5,16.5,0,0,1,5.56-3.6,26.441,26.441,0,0,1,6.586-1.743,36.264,36.264,0,0,1,6.823-.3c.568,0,1.131.079,1.694.122s1.124.1,1.681.19c.79.118.541.068.621.073.026-.005.049-.006.056-.017l-.027-.066c-.011-.048-.022-.231-.032-.333l.05-.758c.025-.279.036-.558.076-.836a12.447,12.447,0,0,1,.941-3.242,13.354,13.354,0,0,1,4.051-5.083,23.124,23.124,0,0,1,10.762-4.285,31.035,31.035,0,0,1,10.2.174,20.82,20.82,0,0,1,8.056,3.151,41.421,41.421,0,0,0-8.633-.5c-2.988.119-5.695.521-7.14.559-4.328.082-8.585,1.173-11.7,3.558a9.845,9.845,0,0,0-3.351,4.464,9.423,9.423,0,0,0-.553,2.68l-.018.169.01.239.023.483.047.959q.123,1.011.246,2.009c-1.032-.166-2.147-.484-3.217-.666l-1.238-.2c-.375-.069-.755-.09-1.13-.131-.751-.084-1.5-.146-2.236-.161-.739-.044-1.471-.043-2.195-.019a30.177,30.177,0,0,0-8.148,1.251,17.74,17.74,0,0,0-6.457,3.419,8.014,8.014,0,0,0-1.2,1.192,8.127,8.127,0,0,0-1,1.306,11.511,11.511,0,0,0-.8,1.4l-.418,1.018c-.166.4-.322.815-.5,1.185l-.091,0c-.645-.037-1.449-.073-2.005-.07a12.477,12.477,0,0,0-4.385.836A12.32,12.32,0,0,0,107.419,228.306Z" transform="matrix(-1, 0, 0, 1, 380, 0)" /><path d="M154.488,218.893c-.32.036-1.433-1.136-2.285-2.848a8.325,8.325,0,0,1-.553-1.365l-.217-.719c-.062-.241-.083-.492-.125-.732a6.565,6.565,0,0,1-.095-1.389,7.652,7.652,0,0,1,1.467-4.527,10.751,10.751,0,0,1,2.686-2.539,20.727,20.727,0,0,1,6.426-2.79,27.639,27.639,0,0,1,11.073-.593,16.729,16.729,0,0,1,8.427,3.484c-1.394.153-3,.282-4.458.392a11.32,11.32,0,0,1-3.412-.079,20.845,20.845,0,0,0-14.856.7,10.283,10.283,0,0,0-4.528,3.662,6.151,6.151,0,0,0-.831,2.246,7.949,7.949,0,0,0,.063,2.3c.038.179.056.381.091.595.052.211.1.437.146.673a14.367,14.367,0,0,0,.343,1.447C154.1,217.765,154.427,218.592,154.488,218.893Z" transform="matrix(-1, 0, 0, 1, 380, 0)" /><path d="M303.684,216.365c-.346.607-5.405,0-7.419-.024a30.061,30.061,0,0,1-11.162-2.217,19.756,19.756,0,0,1-7.916-5.581,15.647,15.647,0,0,1-3.391-7.107,22.455,22.455,0,0,1,3.414,2.063c.983.771,1.907,1.373,2.131,1.932a13.84,13.84,0,0,0,4.57,4.936,19.639,19.639,0,0,0,5.579,2.505c3.723,1.051,7.1,1.261,9.994,1.937A21.893,21.893,0,0,1,303.684,216.365Z" transform="matrix(-1, 0, 0, 1, 380, 0)" /></svg>