<svg xmlns="http://www.w3.org/2000/svg" id="outfits_1" viewBox="0 0 380 600"><defs transform="matrix(-1, 0, 0, 1, 380, 0)"><style>.cls-1{fill:blue;}.cls-2{opacity:0.5;}.cls-3{fill:#fffffe;}</style></defs><g id="long_straight_blue" transform="matrix(-1, 0, 0, 1, 380, 0)"><path class="cls-1 color-hair" d="M315.875,349.949c-.542-20.04-2.167-41.164-2.808-55.272a41.345,41.345,0,0,1-25.8,10.91,88.39,88.39,0,0,1-3.2,43.223" /><path d="M284.04,348.8c-.147-.6,1.326-5.282,2.3-10.855.484-2.784.857-5.777,1.064-8.521a66.37,66.37,0,0,0,.168-7.015c-.114-3.139-.361-6.379-.77-9.658-.108-.819-.2-1.643-.336-2.465l-.191-1.237-.1-.643L286,307.4l-.349-2.04-.175-1.033c-.126-.242.18-.175.345-.208l.566-.053,2.29-.211.29-.026.258-.035.306-.044.612-.088a40.339,40.339,0,0,0,17.832-7.332l1.023-.778c.684-.519,1.32-1.122,1.982-1.679,1.324-1.131,2.592-2.281,3.863-3.406.351,6.662.7,13.251,1.036,19.662.258,5.1.47,10.062.61,14.8.289,9.475.271,18.05-.047,25-1.808-6.673-3.588-19.516-3.572-24.136.046-5.6-.024-11-.151-16.194q-.114-3.9-.222-7.634-.059-1.77-.116-3.5c-.008-.356-.016-.709-.024-1.061l-.014-.543-.008-.274,0-.137c-.006-.034.012-.128-.034-.068-.307.255-.606.531-.932.783l-.488.385c-.182.148-.271.2-.6.45a41.413,41.413,0,0,1-3.441,2.309,42.811,42.811,0,0,1-7.193,3.5,43.369,43.369,0,0,1-7.366,2.061c-.615.108-1.224.231-1.837.3l-.915.123c-.225.034-.343.042-.517.061l-.473.048c-.059.026-.2-.023-.189.064l.05.282q.1.555.2,1.1l.048.269.061.436.121.868c.076.577.169,1.149.23,1.721.118,1.145.268,2.275.34,3.4.2,2.241.274,4.438.29,6.583a72.674,72.674,0,0,1-.928,12.217,56.93,56.93,0,0,1-2.265,9.137A65.955,65.955,0,0,1,284.04,348.8Z" /><path class="cls-1 color-hair" d="M268.018,226.3c6.345-2.847,21.553-4.65,28.817-3.937-33.954-61.011-200.926-66.289-213.646,14.528-.329,2.092,2.774,3.189,5.091,4.432,2.778-4.751,12.6-14.855,12.6-14.855s-2.74,12.022-6.256,17.279a92.744,92.744,0,0,0,40.515,13.981,74.5,74.5,0,0,1,17.717-41.888c-4.917,16.629-3.295,37.7.768,44.422.646,1.068,36.636,3.158,53.059-5.053.089-7.406.608-17.226-1.971-24.168a45.072,45.072,0,0,1,10.5,24.736,162.1,162.1,0,0,0,29.661-10.914,96.981,96.981,0,0,1,13.088,8.828l-6.421-12.864c.361-.277.7-.552,1-.821Z" /><path d="M268.053,226.339c-.449.6-2.2,2.32-4.969,4.914l-4.865,4.513-2.93,2.685-1.522,1.391c-.421.4-.865.777-1.317,1.155l3.7,7.267,2.366,4.646,1.235,2.429.314.619.158.31c.013.035.081.141.05.119l-.047-.006a1.067,1.067,0,0,0-.366-.016c-1.847-1.438-3.9-2.99-5.966-4.5-2.083-1.544-4.062-2.869-6.133-4.131l-1.46-.875-.967-.555-.438-.244c-.072-.076-.148.006-.223.035l-.225.116-.967.486c-1.746.861-3.536,1.663-5.35,2.442-3.63,1.554-7.374,2.973-11.17,4.282-1.9.66-3.811,1.274-5.73,1.873l-1.441.44-1.81.525c-1.224.34-2.61.774-3.834,1.035-.181-1.593-.394-3.194-.653-4.786l-.182-.9c-.06-.279-.106-.56-.178-.835-.139-.551-.258-1.106-.411-1.651a44.137,44.137,0,0,0-2.242-6.332,43.461,43.461,0,0,0-6.847-10.828l2.39-1.4c1.857,5.145,2.1,10.163,2.272,14.646.065,2.25.062,4.386.056,6.391q-.015,1.854-.03,3.6c-.006.348-.011.693-.017,1.036a4.013,4.013,0,0,1-.858.48c-.6.3-1.2.581-1.791.85l-.889.381-.771.313c-.517.2-1.035.394-1.557.574q-1.566.548-3.157,1c-2.122.6-4.27,1.091-6.436,1.506a122.071,122.071,0,0,1-13.161,1.713q-6.651.524-13.416.513c-2.255,0-4.517-.049-6.8-.164-1.143-.057-2.289-.131-3.463-.245l-.954-.106c-.47-.064-.943-.131-1.4-.24a3.81,3.81,0,0,1-1.27-.491c-.1-.056-.142-.187-.277-.195l-.21-.259-.42-.52-.54-1.033-.266-.515-.165-.413-.566-1.431c-.286-.946-.628-1.9-.84-2.845-.23-.947-.471-1.9-.628-2.844-.188-.949-.354-1.9-.473-2.848a87.638,87.638,0,0,1,2.189-34.345l4.765,2.6a71.482,71.482,0,0,0-11.34,18.422,72.243,72.243,0,0,0-3.467,10.257c-.447,1.747-.833,3.508-1.14,5.28-.179.882-.286,1.775-.417,2.664l-.117.813-.152,1.328-.3,2.627-.147,1.315-.074.658c-.007.022,0,.065-.018.071l-.082-.009-.164-.018-.328-.036-2.624-.291-2.626-.294L130.2,260.2c-1.912-.271-3.813-.61-5.7-1a95.978,95.978,0,0,1-21.737-7.292l-2.556-1.262-2.514-1.335-1.234-.7-.633-.361c-.369-.206-.743-.43-1.122-.665l-4.517-2.773q1.254-2.032,2.457-4.109a10.968,10.968,0,0,0,.533-1.038l.224-.485c.154-.315.285-.661.426-.991.555-1.335,1.053-2.713,1.5-4.1.907-2.762,1.687-5.614,2.325-8.347l5.586,3.034-.965,1.015c-2.04,2.165-4.049,4.37-5.969,6.594-.956,1.112-1.9,2.23-2.775,3.349-.221.28-.445.559-.649.837l-.328.44c-.241.318-.45.6-.655.928q-1.244,1.905-2.434,3.81l-3.39-1.76c-1.074-.534-2.437-1.231-2.954-1.584-.172-.1-.468-.307-.71-.493a7.711,7.711,0,0,1-.718-.6,6.761,6.761,0,0,1-1.161-1.427,5.468,5.468,0,0,1-.689-3.515l.514-2.737.22-1.161.289-1.147.587-2.29c.192-.764.473-1.5.706-2.257a60.435,60.435,0,0,1,3.614-8.722,64.3,64.3,0,0,1,11-15.1c8.738-8.82,19.42-15.093,30.431-19.466a143.43,143.43,0,0,1,33.8-8.6,185.668,185.668,0,0,1,33.576-1.4c21.949,1.058,42.869,5.544,61.236,13.345a110.067,110.067,0,0,1,25.015,14.6,74.517,74.517,0,0,1,10.013,9.525c.717.879,1.481,1.709,2.145,2.617l1.006,1.346a18.113,18.113,0,0,1,1.1,1.566c.843,1.34,1.717,2.626,2.494,3.944l1.142,1.969.564.971.279.483c.049.131-.02.184-.025.279-2.115-.187-4.334-.332-6.3-.4-.507-.03-.984-.022-1.462-.021l-1.308.021-1.9.065c-2.516.117-4.936.328-7.267.6a54.838,54.838,0,0,0-12.886,2.787c3.446-1.832,7.911-3.042,12.647-4.043,2.385-.492,4.874-.911,7.455-1.225.646-.069,1.3-.154,1.953-.211.6-.051,1.094-.117,1.616-.149,1.025-.079,1.982-.136,2.864-.119h.2c.032.006.041,0,.011-.033l-.19-.276-.374-.539-.719-1.032c-.479-.662-.98-1.255-1.426-1.826l-2.028-2.385c-.719-.822-1.5-1.595-2.253-2.4a74.631,74.631,0,0,0-10.206-8.54,111.364,111.364,0,0,0-23.238-12.2c-15.761-6.174-30.56-8.8-39.245-10.319a188,188,0,0,0-41.42-2.521,163.573,163.573,0,0,0-20.095,2.248,132.817,132.817,0,0,0-19.219,4.782,102.233,102.233,0,0,0-17.757,7.7,74.4,74.4,0,0,0-15.277,11.066A57.9,57.9,0,0,0,90.46,219.7c-.4.65-.682,1.357-1.028,2.032-.318.688-.692,1.35-.964,2.056-.56,1.405-1.184,2.782-1.618,4.226-.233.716-.489,1.424-.7,2.144l-.571,2.178-.286,1.086-.218,1.1-.395,2.029a1.248,1.248,0,0,0,.168,1.1,3.06,3.06,0,0,0,.9.777c.111.076.24.147.362.22l.261.148.5.262c.329.153.676.371.979.472.259-.421.541-.829.836-1.229l.679-.893.785-.985q1.584-1.949,3.216-3.787c2.176-2.458,4.363-4.812,6.562-7.087l3.374-3.489-1.131,4.708c-.745,3.1-1.592,6.11-2.592,9.071a38.577,38.577,0,0,1-3.175,7.4.305.305,0,0,0-.027.049l.048.03.1.059.194.12.389.239.777.474,1.11.638c.421.238.833.491,1.262.713,1.7.923,3.408,1.8,5.147,2.614a91.455,91.455,0,0,0,21.533,7c.914.183,1.835.321,2.749.484l2.524.365,1.675.186c.016,0,.037.007.049,0l.006-.053.011-.1.021-.21.044-.419.086-.835.366-2.546c.152-.934.34-1.861.508-2.79.382-1.848.815-3.679,1.321-5.484a76.878,76.878,0,0,1,3.787-10.49,76.094,76.094,0,0,1,11.607-18.436l4.557-5.337-1.912,6.782a81.23,81.23,0,0,0-2.869,21.932A80.113,80.113,0,0,0,152.184,249a47.743,47.743,0,0,0,.987,5.178c.2.846.476,1.647.72,2.459l.452,1.152a2.574,2.574,0,0,0,.168.391l.154.292.148.283a.69.69,0,0,0,.3.11c.21.044.416.072.634.1.794.1,1.652.174,2.492.235,1.691.123,3.4.2,5.093.246,3.4.094,6.78.079,10.131-.03a131.047,131.047,0,0,0,19.62-1.983,60.418,60.418,0,0,0,9.166-2.41c.365-.128.724-.267,1.081-.408l.785-.322.487-.224c.059-.052.208-.047.193-.147l0-.267q.03-2,.061-3.991c.035-3.164.012-6.278-.237-9.311a33.991,33.991,0,0,0-1.684-8.65l-3.518-9.811,6.725,7.927a46.7,46.7,0,0,1,9.643,18.877l.388,1.7.283,1.508q.123.795.2,1.617a4.614,4.614,0,0,0,.8-.173l1.24-.339,2.333-.679c1.6-.479,3.248-.978,4.928-1.527,3.365-1.083,6.867-2.315,10.4-3.694q2.649-1.036,5.29-2.209l1.437-.657,1.828-.874,1.73,1.029c.574.342,1.074.656,1.32.815a74.394,74.394,0,0,1,6.683,4.9l.666.552.084.071-.03-.069-.064-.143-.13-.29-.533-1.185c-.381-.845-.755-1.673-1.116-2.472l-2.7-5.924Z" /><path class="cls-1 color-hair" d="M229.7,236.254c35.278,79.224,36.325,158.7,10.1,238.483,63.984-72.3,68.191-188.806,17.7-245.237" /><path d="M257.544,229.461c.843.622,4.73,4.487,9.5,11.009a128.017,128.017,0,0,1,14.346,26.513,170.551,170.551,0,0,1,9.4,33.518,226.719,226.719,0,0,1,3.046,28.372,218.122,218.122,0,0,1-11.3,78.17A217.077,217.077,0,0,1,265.8,444.382,200.93,200.93,0,0,1,242.581,477.2l-11.295,12.937,4.986-16.558c.3-.982.566-1.88.835-2.776a380.111,380.111,0,0,0,14.546-65.665,325.883,325.883,0,0,0,1.923-63.822A318.64,318.64,0,0,0,244.241,284a403.766,403.766,0,0,0-15.547-47.3c1.653,2.92,3.448,6.214,5.337,9.782.921,1.794,1.965,3.617,2.846,5.566s1.795,3.951,2.721,5.988,1.841,4.137,2.781,6.248,1.694,4.323,2.551,6.513l2.485,6.632c.4,1.112.852,2.209,1.2,3.335l1.054,3.367,2.057,6.671c.669,2.2,1.364,4.371,1.853,6.543,1.067,4.322,2.065,8.481,2.967,12.36.734,3.91,1.348,7.544,1.878,10.774.252,1.618.487,3.133.705,4.532.139,1.41.256,2.7.347,3.868q.4,5.081.8,10.105c.213,3.351.244,6.7.379,10.011q.084,2.487.167,4.96c.095,1.647-.011,3.295-.006,4.935q-.058,4.917-.117,9.78c.017,1.62-.125,3.233-.207,4.842s-.183,3.211-.274,4.81-.18,3.192-.269,4.781c-.049.8-.078,1.589-.143,2.379l-.241,2.366c-.667,6.294-1.142,12.531-2.149,18.634a396.354,396.354,0,0,1-16.2,68.719l-2.536-1.455a196.338,196.338,0,0,0,30.776-47.3,203.862,203.862,0,0,0,9.668-24.733,212.835,212.835,0,0,0,6.379-24.62A221.991,221.991,0,0,0,288.961,353q.224-2.969.445-5.905c.154-1.956.166-3.91.257-5.848.215-3.878.1-7.717.126-11.512-.047-1.9-.144-3.781-.211-5.656q-.054-1.407-.109-2.805-.108-1.4-.216-2.782-.219-2.774-.435-5.517-.325-2.733-.647-5.434-.163-1.35-.326-2.693l-.428-2.662q-.429-2.657-.854-5.282-.529-2.606-1.052-5.183c-.181-.857-.33-1.721-.534-2.568s-.419-1.689-.628-2.53c-2.456-10.006-6.653-23.561-12.4-34.625q-1.071-2.075-2.1-4.069c-.689-1.326-1.48-2.547-2.179-3.77-.727-1.206-1.381-2.406-2.092-3.5l-2.076-3.088c-.663-.97-1.253-1.91-1.861-2.735s-1.2-1.565-1.715-2.242C258.894,231.237,258.082,230.168,257.544,229.461Z" /><g class="cls-2"><path class="cls-3" d="M136.254,227.06c.215.727-2.213,4.787-4.909,9.16l-1.834,2.976-.2-3.54a32.244,32.244,0,0,1,.335-6.694c.095-.628.185-1.225.267-1.768.078-.443.14-.788.161-1.025l.04-.3c.043-.335.079-.583.119-.756.016-.088.037-.155.05-.21l.021-.07c.037-.027-.095.032-.147.052l-.2.084a4.9,4.9,0,0,0-2.027,1.817,6.447,6.447,0,0,0-.405.72l-.125.272-.026.058c-.025.042.031-.024-.092.147l-.517.731-4.116,5.766-5.511,7.722-.261-9.633a27.573,27.573,0,0,1,.251-4.523,26.784,26.784,0,0,1,6.072-13.663l3.341,5.51a13.527,13.527,0,0,0-6.452,3.785,56.835,56.835,0,0,0-5.442,6.377L105.675,241.7l4-13.787a44.164,44.164,0,0,1,8.593-16.281c-.246,2.666-.847,6-1.32,9.2-.489,3.208-.863,6.285-1.262,8.442l-6.156-2.654a12.6,12.6,0,0,1,1.28-1.763,50.69,50.69,0,0,1,6.5-6.282,18.555,18.555,0,0,1,8.122-3.752l5.326-.877-3.576,3.763a21.479,21.479,0,0,0-5.782,14.824l-2.357-.781q2.371-3.148,4.555-6.168.726-.993,1.442-1.971c.518-.709,1.045-1.381,1.575-2.022a20.525,20.525,0,0,1,3.177-3.093A11.108,11.108,0,0,1,133,216.742a10.46,10.46,0,0,1,3.594-.459l.246,0c.075,0,.2-.007.15.03l-.066.156a1.961,1.961,0,0,0-.114.306,1.467,1.467,0,0,0-.043.613,1.366,1.366,0,0,0,.243.616,2.049,2.049,0,0,0,.329.317,1.9,1.9,0,0,0,.431.321c-.621,1.033-1.359,2.211-1.827,3.047l-.787,1.357-.193.336-.121.27-.242.539-.483,1.073c-.142.344-.233.654-.352.982l-.335.965-.25.931-.248.922-.135.62c-.087.368-.155.737-.223,1.1q-.21,1.1-.344,2.187c-.082.732-.166,1.563-.249,2.623l-2.894-.8C131.692,231.649,135.38,227.888,136.254,227.06Z" /></g><g class="cls-2"><path class="cls-3" d="M195.718,229.079c-.494.1-2.209-1.226-4.363-3.072l1.511-.445a25.254,25.254,0,0,1-.877,3.609c-.26.778-.567,1.576-.911,2.347a10.171,10.171,0,0,1-1.166,2.1,2.644,2.644,0,0,1-1.583,1.231,2.52,2.52,0,0,1-1.811-.553,6.415,6.415,0,0,1-1.253-1.228,16.231,16.231,0,0,1-1.065-1.468c-.136-.211-.29-.407-.439-.614l-.227-.312-.121-.158-.078-.088-.634-.7q-.654-.686-1.366-1.328a22.581,22.581,0,0,0-3.113-2.346l3.908-1.595q-.123,1.263-.3,2.542l-.194,1.279-.107.64-.207,1.034c-.32,1.485-.686,2.983-1.093,4.452s-.862,2.869-1.318,4.276q-.7,2.153-1.4,4.3l-.369,1.114-.092.279c-.009.017-.014.062-.025.055l-.04-.072-.08-.144-.321-.575-1.291-2.318q-1.314-2.361-2.613-4.7l-1.318-2.368-.656-1.179-.025-.011c-.136-.035-.079.119-.1.065l-.006,0,.074-.138-.078.139-.39.712-1.2,2.257c-.791,1.5-1.556,3.037-2.31,4.6q-2.219,4.619-4.358,9.077c-.367-1.282-.863-3.443-1.245-5.11-.4-1.744-.758-3.382-1.095-5q-.224-1.245-.445-2.469c-.114-.859-.247-1.666-.329-2.512s-.178-1.657-.2-2.49q-.027-.612-.054-1.216c-.019-.366-.033-.876-.018-1.069a39.556,39.556,0,0,1,1.636-10.334c1.1,2.576,2.1,6.019,3.052,9.1l.177.576.086.284c.027.087.057.219.079.221a.614.614,0,0,0,.247.152.353.353,0,0,0,.335-.054c.152-.121.159-.278.072,0a5.18,5.18,0,0,0-.2,1.077c-.02.213-.032.44-.04.679a.85.85,0,0,0,.032.312c.105.292.4.11.82-.339.209-.226.448-.519.708-.86l.1-.13c0,.018-.024.063.024-.018l.135-.221.564-.918,1.063-1.7c.171-.287.356-.52.532-.77a4.448,4.448,0,0,1,.532-.68l.534-.509c.179-.177.328-.262.491-.4a4.845,4.845,0,0,1,.479-.358.768.768,0,0,1,.715,0,4.247,4.247,0,0,1,.906.881,8.976,8.976,0,0,1,.9,1.222c.3.487.545,1.077.814,1.607l1.254,2.562c.328.676.671,1.342.984,1.921l.059.108a1.215,1.215,0,0,0,.059-.168l.118-.369.219-.732c.141-.484.267-.962.381-1.426.232-.945.4-1.772.542-2.638.275-1.431.494-2.84.677-4.221l.361-2.71,2.329,1.613a22.834,22.834,0,0,1,3.544,3.013q.787.826,1.477,1.706c.225.3.45.591.659.894l.316.463c.341.475.48,1.093.993,1.44a.5.5,0,0,0,.713-.223q.231-.342.459-.676c.1-.175.214-.355.345-.558l.21-.323.117-.189.169-.328c.454-.881.9-1.83,1.3-2.769l.763-1.794.936,1.294C194.136,226.627,195.356,228.483,195.718,229.079Z" /></g></g></svg>