<svg xmlns="http://www.w3.org/2000/svg" id="halloween" viewBox="0 0 380 600"><defs transform="matrix(-1, 0, 0, 1, 380, 0)"><style>.cls-1{fill:blue;}.cls-2{opacity:0.5;}.cls-3{fill:#fffffe;}</style></defs><path class="cls-1 color-hair" d="M135.49,178.607c25.56-13.392,56.122-14.72,84.006-7.294,29.939,7.973,65.071,28.272,75.809,53.923-5.354.322-9.508,5.272-10.717,10.5-3.8,16.4,10.413,35.429,17.3,49.264,9.783,19.656,13.571,41.326,14.6,63.109a133.735,133.735,0,0,1-.815,25.63,89.331,89.331,0,0,1-4.834,18.613,92.947,92.947,0,0,1-47.486,50.984,196.74,196.74,0,0,0,17.659-93.971l-20.03,24.646c-4.152-17.7-8.328-35.983-5.263-53.905,2.184-12.769,7.938-24.587,10.353-37.295,2.121-11.163-.891-22.361-5.338-32.707-8.19-19.055-24.448-36.145-45.874-38.785" transform="matrix(-1, 0, 0, 1, 380, 0)" /><path d="M214.863,211.272c.382,0,1.166.079,2.312.218.571.081,1.242.131,1.981.281l2.457.557a48.323,48.323,0,0,1,13.438,5.7l1.941,1.2,1.922,1.382c1.335.9,2.572,2.013,3.9,3.092a65.986,65.986,0,0,1,7.528,7.75c1.248,1.419,2.342,3.009,3.522,4.574,1.082,1.633,2.228,3.268,3.224,5.029,1.069,1.719,1.983,3.558,2.94,5.4.88,1.879,1.781,3.775,2.56,5.734,3.173,7.784,5.572,16.468,5.151,25.323-.032,1.1-.164,2.2-.275,3.294-.17,1.086-.319,2.188-.551,3.24-.408,2.131-.943,4.218-1.487,6.284-1.127,4.12-2.429,8.112-3.678,11.992s-2.437,7.661-3.36,11.348a75.041,75.041,0,0,0-1.935,10.72,86.951,86.951,0,0,0,.2,18.357c.5,4.579,1.274,9.178,2.206,13.793q.7,3.462,1.5,6.94l.814,3.481.449,1.789.174.664.085.324.042.16c.019.035.07-.073.1-.1l.865-1.12.414-.537,1.021-1.283,2.278-2.856,10.163-12.705,3.95-4.873,1.986-2.435.124-.153c.02-.021.046-.062.059-.065l0,.1.019.388.039.777.078,1.558q.156,3.139.312,6.286c.05,1.06.11,2.1.135,3.16l.048,2.429c.144,5.03-.02,10.08-.253,15.141a205.886,205.886,0,0,1-4.08,30.243,205.136,205.136,0,0,1-8.728,29.4l-1.528,3.83-.159.4c-.068.107.055.015.114-.012l.2-.108c.1-.051.327-.184.511-.291l.279-.164,1.467-.921c2.089-1.259,4.075-2.674,6.054-4.089A90.21,90.21,0,0,0,310,385.809a87.936,87.936,0,0,0,3.6-21.293,183.1,183.1,0,0,0-.436-21.868,165.07,165.07,0,0,0-8.106-42.321,118.765,118.765,0,0,0-8.619-19.273c-3.443-6.213-7.107-12.436-10.1-19.071a69.3,69.3,0,0,1-3.775-10.336,36.765,36.765,0,0,1-1.392-11.175,29.668,29.668,0,0,1,.76-5.735,18.166,18.166,0,0,1,2.472-5.549,16.016,16.016,0,0,1,4.295-4.43,12.81,12.81,0,0,1,1.368-.832,7.31,7.31,0,0,1,.729-.352l.372-.165-.061.03h0l.006,0,.012,0a.836.836,0,0,1,.207-.036c.038-.038-.049-.155-.053-.193l-.4-.851a10.3,10.3,0,0,0-.751-1.359,53.655,53.655,0,0,0-3.369-5.228l-1.836-2.512c-.654-.807-1.351-1.581-2.022-2.372-.689-.777-1.322-1.6-2.054-2.336l-2.188-2.212a112.591,112.591,0,0,0-19.375-15.167,153.4,153.4,0,0,0-21.263-11.106,150.464,150.464,0,0,0-21.876-7.484,127.371,127.371,0,0,0-42.963-3.586,105.733,105.733,0,0,0-37.3,10.373,99.55,99.55,0,0,1,14.647-7.136A104.117,104.117,0,0,1,168.71,167.2a122.28,122.28,0,0,1,41.2-.232,131.2,131.2,0,0,1,19.83,4.788,147.757,147.757,0,0,1,17.522,6.82,127.433,127.433,0,0,1,24.7,14.711,99.133,99.133,0,0,1,15.021,14.242l1.651,1.955c.547.652,1.012,1.374,1.519,2.055a47.068,47.068,0,0,1,2.858,4.191l1.288,2.17a19.524,19.524,0,0,1,1.206,2.2q.8,1.695,1.594,3.379l.907,1.917.449.947.222.472.114.385c-1.44.173-3.249.309-4.637.63a3.941,3.941,0,0,0-1.057.285l-.414.177c-.273.13-.538.287-.806.434a10.949,10.949,0,0,0-2.809,2.581,12.9,12.9,0,0,0-1.921,3.459,21.515,21.515,0,0,0-.905,4c-.633,5.616.638,11.458,2.718,16.945a121.932,121.932,0,0,0,7.653,16.017c2.835,5.2,5.857,10.4,8.284,15.861a139.79,139.79,0,0,1,10.041,33.584,219.9,219.9,0,0,1,3.009,33.8,123.5,123.5,0,0,1-.791,16.634,89.664,89.664,0,0,1-3.478,16.075,93.8,93.8,0,0,1-14.76,28.418A96.143,96.143,0,0,1,276.3,437.4c-1.046.739-2.159,1.374-3.233,2.064l-.811.507-.409.254-.559.3-2.234,1.21-2.234,1.21c-.754.4-1.542.768-2.311,1.154l-2.32,1.146c-.382.185-.787.4-1.148.56l.5-1.168c1.32-3.135,2.657-6.167,4-9.472l1.374-3.412q.631-1.722,1.262-3.438a189.4,189.4,0,0,0,7.783-27.684,196.475,196.475,0,0,0,3.6-27.627c.23-4.567.371-9.1.293-13.6q-.024-1.347-.049-2.689c-.011-.564-.053-1.122-.078-1.676l-.043-.825-.022-.41-.011-.2,0-.1,0-.051-.032.041-1.047,1.306-16.524,20.454-1.569,1.933-.2.241-.1.121c-.04.07-.031-.067-.049-.09l-.142-.6-.284-1.2q-.552-2.357-1.1-4.7l-.949-4.105q-.349-1.569-.7-3.133c-.911-4.175-1.745-8.344-2.4-12.522a105.388,105.388,0,0,1-1.273-25.014c.615-8.3,2.987-16.181,5.446-23.617s5-14.725,6.163-21.989a44.517,44.517,0,0,0-.079-12,67.306,67.306,0,0,0-3.306-13.083,86.873,86.873,0,0,0-5.755-12.942,72.87,72.87,0,0,0-7.857-11.576,58.747,58.747,0,0,0-18.971-15.257A50.97,50.97,0,0,0,214.863,211.272Z" transform="matrix(-1, 0, 0, 1, 380, 0)" /><path class="cls-1 color-hair" d="M144.089,178.816a63.445,63.445,0,0,0-70.263,39.435c-2.423,6.222-3.85,13.146-2.039,19.573,3.1-8.513,9.7-17.029,19.115-18.353-9.774,9.828-11.546,26.61-4.04,38.263,16.716-10.878,24.031-29.737,30.26-47.812-2.779,8.064-1.365,17.26,2.918,24.636s11.224,13,18.965,16.578a40.383,40.383,0,0,1,29.837-45.567c-6.727,13.022,4.943,29.041,13.617,37.825,12.8,12.96,24.652,10.153,40.22,13.8a43.88,43.88,0,0,1-4.51-29.325,92.911,92.911,0,0,0,29.45,36.359c-.269-8.233-.673-16.922-5.13-23.85A83.843,83.843,0,0,1,265.9,271.639c9.954-17.043,7.228-40.522-6.366-54.83" transform="matrix(-1, 0, 0, 1, 380, 0)" /><path d="M259.563,216.777a20.426,20.426,0,0,1,1.5,1.467c.358.383.8.81,1.241,1.338l1.411,1.817a43.847,43.847,0,0,1,6.2,11.793,49.079,49.079,0,0,1,2.657,18.29q-.085,1.282-.172,2.59c-.083.869-.24,1.738-.358,2.619l-.194,1.325-.3,1.316c-.21.878-.381,1.774-.63,2.654q-.414,1.311-.834,2.638a10.011,10.011,0,0,1-.476,1.31l-.661,1.6c-.463,1.1-.96,2.129-1.534,3.2l-.833,1.6-.419.806c-.139.251-.285.65-.407.5-.875-1.952-1.8-3.938-2.769-5.921l-.72-1.381c-.193-.358-.375-.723-.577-1.076l-1.214-2.123a83.374,83.374,0,0,0-5.474-8.118,82.431,82.431,0,0,0-13.264-13.736l1.734-1.537a32.529,32.529,0,0,1,4.515,12.636c.176,1.047.307,2.082.416,3.1.057.509.11,1.014.15,1.515l.074.877.069,1.049c.179,2.791.27,5.472.384,8.122-2.051-1.491-4.07-3.037-5.938-4.508-.471-.366-.944-.729-1.4-1.114l-1.031-.875c-.612-.509-1.2-1.012-1.748-1.518A93.1,93.1,0,0,1,226.725,245.8a89.835,89.835,0,0,1-5.213-7.6l-.289-.46c-.078-.119-.153-.239-.223-.36l-.418-.7c-.258-.467-.511-.909-.725-1.346l-.138-.271a1.361,1.361,0,0,0-.066-.124l-.025.183c-.031.242-.071.479-.089.715q-.072.7-.08,1.366c0,.221-.006.437,0,.649l.01.316.026.408.029.423.088.893q.078.936.224,1.867a42.278,42.278,0,0,0,1.726,7.338c.18.6.426,1.188.637,1.783.066.168.086.252.189.49l.357.8.716,1.613c.479,1.077,1.119,2.208,1.674,3.316l1.707,3.263c-1.426-.252-3.02-.618-4.534-.924-1.535-.318-3.084-.59-4.637-.89l-1.109-.206-.646-.092-1.293-.185c-.858-.129-1.74-.225-2.61-.34-3.5-.44-7.094-.816-10.745-1.541a39.647,39.647,0,0,1-10.758-3.655,38.162,38.162,0,0,1-9.213-6.747,74.349,74.349,0,0,1-7.395-8.292,59.3,59.3,0,0,1-6.011-9.459,34.714,34.714,0,0,1-3.54-10.971,23.33,23.33,0,0,1-.022-6l.1-.726.025-.12a1.306,1.306,0,0,1,.071-.219l.024-.057c0-.01-.04.011-.058.014l-.133.046c-.086.031-.167.064-.244.1l-.462.21c-.427.183-.848.38-1.258.595-.837.4-1.639.864-2.443,1.315a38.715,38.715,0,0,0-8.517,6.841,37.2,37.2,0,0,0-9.388,18.8,38.67,38.67,0,0,0-.621,6.273V245.5l.026.388.222,3.18.98,7.089-5.482-2.63c-.91-.439-1.842-.956-2.763-1.431-.462-.238-.925-.5-1.387-.776L132,250.694a47.735,47.735,0,0,1-5.58-4.064,40.889,40.889,0,0,1-8.965-10.57,35.293,35.293,0,0,1-4.5-13.191,30.745,30.745,0,0,1,1.33-13.923l5.67,1.954a184.29,184.29,0,0,1-9.339,23.107c-3.772,7.415-8.474,14.517-14.642,20.2a31.143,31.143,0,0,1-2.347,2.072l-1.215.986-.607.492-.151.122-.267.186-.572.392-4.556,3.124-.284.194c-.021.009-.051.051-.067.031l-.044-.077-.089-.155-.356-.617-.71-1.232L83.3,257.27a11.027,11.027,0,0,1-.627-1.242l-.373-.813a14.39,14.39,0,0,1-.625-1.481,30.289,30.289,0,0,1-.993-3.04,26.461,26.461,0,0,1-.7-3.1l-.264-1.56-.141-1.569A35.872,35.872,0,0,1,80.7,232.115c.318-.982.6-1.972.958-2.936l.586-1.427.294-.711c.026-.06.061-.15.019-.046-.016.048,0,0,0,.012l.018-.031a3.8,3.8,0,0,1,.358-.529,4.291,4.291,0,0,1,.327-.369c.117-.1-.039-.038-.076-.049a1.63,1.63,0,0,0-.191.028,2.258,2.258,0,0,0-.806.367l-.233.177-1.063,1.02c-.367.378-.715.777-1.074,1.162-.351.409-.655.8-1.02,1.247-.671.946-1.215,1.829-1.824,2.741l-.222.344-.211.422-.423.842-.842,1.679c-1.17,2.667-2.413,5.913-3.733,9.177-.179-.572-.248-.716-.355-1l-.3-.781a2.919,2.919,0,0,0-.183-.323l-.087-.14-.043-.069a.369.369,0,0,1-.034-.116l-.043-.176c-.484-1.955-.849-3.565-1.2-5.194a25.176,25.176,0,0,1-.623-5.375,30.835,30.835,0,0,1,.114-3.166c.149-1.1.256-2.264.486-3.314A54.38,54.38,0,0,1,74.9,210.789a65.468,65.468,0,0,1,19.562-22.141,64.1,64.1,0,0,1,25.029-10.71,64.822,64.822,0,0,1,24.743.037,68.257,68.257,0,0,0-25.765,2.272,65.245,65.245,0,0,0-13.561,5.6A63.686,63.686,0,0,0,76.7,218.364a44.394,44.394,0,0,0-1.943,6.177c-.13.5-.213,1.006-.323,1.5l-.064.372-.031.182,0,.008.006.033a.162.162,0,0,0,.035.08c.057.057.094-.1.094-.1a.015.015,0,0,0,.006.016l.009,0H74.5c-.006.007.022-.025-.037.049l.175-.216c.482-.587.925-1.156,1.411-1.654.6-.676,1.256-1.309,1.925-1.926l.248-.233c.065-.067.282-.226.415-.334l.915-.719a14.925,14.925,0,0,1,1.829-1.338l1.844-1.108c.6-.338,1.163-.532,1.742-.8l.858-.379c.274-.1.532-.169.8-.254l1.57-.481,2.94-.559,3.194-.576.414-.074.183-.03.05,0,.2.016.377.043.18.026a1.188,1.188,0,0,0,.241-.014l.331-.028,1.295-.1-1.821,2.009-.854.956-.8.907-3.149,3.593-.779.89a1.744,1.744,0,0,0-.259.367l-.2.332-.8,1.322-.793,1.314-.4.655-.2.327a3.076,3.076,0,0,0-.213.392,30.648,30.648,0,0,0-2.6,16.714,28.157,28.157,0,0,0,.511,2.78l.338,1.369c.114.456.3.889.437,1.335.159.44.285.894.469,1.323l.544,1.224a7.908,7.908,0,0,0,.437.891l.059.113c.018.045.069-.03.1-.039l.227-.148.465-.3.237-.156.12-.078.272-.216,1.124-.9a27.913,27.913,0,0,0,2.2-1.85c.694-.66,1.435-1.267,2.089-1.965a58.771,58.771,0,0,0,7.225-8.861,81.075,81.075,0,0,0,5.691-9.877,188.614,188.614,0,0,0,8.479-20.916l2.722.938a26.468,26.468,0,0,0-1.147,12.323,31,31,0,0,0,4.092,11.652,36.936,36.936,0,0,0,8.019,9.316,43.944,43.944,0,0,0,4.964,3.6l.465.287c.132.083.267.162.4.239.274.153.541.318.821.461s.553.3.837.435l.425.208.213.1c.051.04.042,0,.034-.047l-.016-.116a28.84,28.84,0,0,1-.219-5.847,42.483,42.483,0,0,1,1.1-7.852,41.2,41.2,0,0,1,17.237-24.9,42.114,42.114,0,0,1,6.6-3.643c.279-.123.731-.33,1.1-.468l1.168-.43,1.167-.427,1.153-.354q1.143-.36,2.331-.688l1.179-.334c.133-.055.091.026.135.04l.075.086.151.173c-.3.627-.61,1.349-.916,2.052s-.574,1.4-.854,2.092l-.2.52-.128.488-.258.975a12.47,12.47,0,0,0-.268,1.532,19.625,19.625,0,0,0,.135,5.262,32.556,32.556,0,0,0,3.5,10.029,57.97,57.97,0,0,0,5.879,8.908,67.216,67.216,0,0,0,7.147,7.766,34.37,34.37,0,0,0,8.389,5.781,38.273,38.273,0,0,0,9.622,3.019c3.33.629,6.733.994,10.137,1.438.852.11,1.7.218,2.554.348.8.118,1.9.273,2.148.324.435.077.87.137,1.292.227l.633.13.314.065.157.032c.049.008.131.042.072-.032-.335-.618-.645-1.237-.917-1.864l-.2-.47-.1-.234-.174-.473c-.23-.651-.489-1.29-.684-1.951a45.824,45.824,0,0,1-1.825-8c-.1-.673-.174-1.349-.229-2.026-.029-.361-.068-.625-.088-1.065l-.051-1.39c-.058-.916-.024-1.873,0-2.827,0-.977.1-1.85.176-2.747.062-.919.2-1.726.311-2.572s.253-1.688.382-2.533c.121-.827.293-1.75.441-2.626l.114-.664a1.889,1.889,0,0,1,.156-.145l.312-.279,2.112,4.4,1.088,2.241,1.1,2.1,1.095,2.1c.373.669.751,1.325,1.14,1.963l.777,1.295.777,1.207a92.469,92.469,0,0,0,14.374,17.281c.683.62,1.342,1.263,2.038,1.86l1.588,1.369c.628.517,1.293,1.05,1.923,1.5-.03-.928-.063-1.85-.126-2.769l-.1-1.3-.15-1.508q-.171-1.5-.41-2.968a28.74,28.74,0,0,0-3.862-10.8l2.409-2.135a83.756,83.756,0,0,1,13.261,13.977,81.5,81.5,0,0,1,5.227,7.819c.435.732.869,1.486,1.287,2.271l.644,1.184.582,1.149c.436.875.865,1.847,1.314,2.923.022.037.041.131.064.121l.073-.127.146-.257.3-.526c.191-.36.434-.708.6-1.106l.551-1.212a17.91,17.91,0,0,0,.791-2.077l.73-2.115.557-2.177c.43-1.441.591-2.94.876-4.412a48.873,48.873,0,0,0-.665-17.256,45.982,45.982,0,0,0-5.167-13.371q-.374-.656-.723-1.272l-.773-1.129c-.5-.723-.95-1.409-1.39-2.009Z" transform="matrix(-1, 0, 0, 1, 380, 0)" /><g class="cls-2" transform="matrix(-1, 0, 0, 1, 380, 0)"><path class="cls-3" d="M126.793,236.16c-.371-.008-1.688-.863-3.005-2.746a19.225,19.225,0,0,1-2.97-7.9c-.278-1.564-.463-3.175-.638-4.753l-.527-4.653c-.314-3.029-.485-5.805-.573-7.835-.044-.906-.1-1.137-.122-1.556a4.38,4.38,0,0,1,.034-1.18c.044-.206.144-.4.339-.405-.52.3-.97.582-1.344.854a8.562,8.562,0,0,0-1.139.957c.044-.018-.427.362-.711.593-.323.252-.628.529-.935.8-.622.534-1.207,1.114-1.786,1.693a33.81,33.81,0,0,0-5.743,7.825l-4.877,9.135-1.466-10.345a25.947,25.947,0,0,1-.175-5.572,27.127,27.127,0,0,1,.993-5.253,25.747,25.747,0,0,1,1.621-4.09c.06-.119.037-.085.035-.078s0,.006,0,.006l0-.007-.006-.012a.03.03,0,0,0-.015-.009.057.057,0,0,0-.027.007.172.172,0,0,0,.075-.077c.012-.034-.007-.073-.105-.091l-.006-.007,0,0s.012-.008-.068.02c-.23.079-.461.152-.683.242l-1.339.511c-.868.371-1.735.731-2.555,1.146a31.42,31.42,0,0,0-4.606,2.736,27.825,27.825,0,0,0-3.788,3.358l-4.635-3.211c4.546-6.8,10.118-11.754,15.507-14.478-1.641,2.449-3.666,5.446-5.432,8.6-1.788,3.138-3.353,6.411-4.633,9.13l-5.76-3.992a17.849,17.849,0,0,1,4.579-4.732,40.675,40.675,0,0,1,9.3-4.435l1.161-.383,1.392-.43c1.235-.405,2.394-.668,3.533-.962,1.147-.314,2.19-.47,3.244-.708l2.961-.51a9.4,9.4,0,0,0,1.01.735c.318.153.65.3.986.42.321.088.653.166.992.236-.188.187-.489.37-.72.595a6.746,6.746,0,0,0-1.959,3.949l-1.508,1.49a7.755,7.755,0,0,0-.687.723l-.463.671c-.3.448-.637.885-.89,1.333l-.572,1.072a20.094,20.094,0,0,0-1.425,3.756,19.3,19.3,0,0,0-.522,7.672l-2.7-.514a39.427,39.427,0,0,1,6.958-9.133c.678-.637,1.352-1.27,2.06-1.854.344-.3.7-.585,1.064-.864l.549-.429c.226-.178.509-.356.762-.533.52-.347,1.035-.732,1.562-1.049l1.584-.938c1.047-.553,2.1-1.11,3.133-1.558a8,8,0,0,0,2.438.957c-.491-.087-.694.336-.756.9a12.59,12.59,0,0,0,.37,3.477l.178-.05c.046-.01.156-.054.123-.022l-.02.1-.041.2-.082.4a6.7,6.7,0,0,0-.142.779c-.046.484-.122,1.024-.134,1.445l-.038.666-.017.488-.02.9c-.017,1.195,0,2.386.031,3.565.064,2.366.194,4.662.3,6.954.175,2.869-.009,6.6.651,9.777A16.9,16.9,0,0,0,126.793,236.16Z" /></g><g class="cls-2" transform="matrix(-1, 0, 0, 1, 380, 0)"><path class="cls-3" d="M283.326,403.212c-.14-.527.48-2.8,1.4-6.121.416-1.677,1.012-3.587,1.5-5.714l.816-3.291c.249-1.139.5-2.311.764-3.5a140.16,140.16,0,0,0,3.23-26.707c-.011-4.879-.075-9.9-.479-15-.06-1.275-.2-2.55-.319-3.831s-.215-2.567-.393-3.849l-.059-.482a.865.865,0,0,0-.02-.137l-.012-.058-.048-.224-.093-.42-.189-.69c-.046-.165-.1-.31-.148-.437l-.068-.177-.032-.079c-.012-.005-.016-.1-.037,0l-.387,1.316-.156.485a1.91,1.91,0,0,1-.123.313l-.155.337-.424.849c-1.134,2.259-2.353,4.448-3.628,6.58l-6.4-2.05c.183-3.476.23-6.741.172-9.952-.069-3.808-.282-7.6-.619-11.268l7.062,1.177-5.345,12.132q-3.078,6.852-6.087,13.546l-2.562,5.7-1.264,2.806-.314.7-.157.347-.142.263-.564,1.025q-2.221,4.032-4.4,8c-.056.165-.061-.036-.08-.135l-.051-.337-.1-.673-.2-1.342q-.2-1.334-.4-2.66-.36-2.474-.716-4.92a86.812,86.812,0,0,1-.945-10.069q-.05-1.314-.1-2.619c-.016-.88.014-1.8.051-2.649.049-1.016.091-2.025.205-3.022.16-2,.451-3.953.744-5.873a76.418,76.418,0,0,1,2.736-10.908,69.693,69.693,0,0,1,8.8-17.668c-.8,2.938-1.832,6.422-2.712,10.168a111.522,111.522,0,0,0-2.074,11.62c-.485,3.874-.722,7.617-.846,10.858,0,1.624-.1,3.117-.079,4.447l-.007.49c0,.069,0,.021,0,.038l-.013.008a.235.235,0,0,0-.07.062,2.787,2.787,0,0,0-.37,1.29,10.989,10.989,0,0,0-.084,1.148l-.012.681c0,.082,0,.082.013.077l.024,0a.175.175,0,0,0,.054-.013,8.643,8.643,0,0,0,1.8-2.589l2.716-5.583q1.347-2.819,2.668-5.581,2.594-5.551,5.087-10.885l2.558-5.475.424,5.971a163.891,163.891,0,0,1,.092,21.993L280.1,339.8c1.3-2.115,2.5-4.248,3.592-6.4l.938-1.892c.341-.692.715-1.525,1.066-2.287.7-1.592,1.376-3.2,2.032-4.985a12.215,12.215,0,0,0,2.994-3.832l.06-.113c.02-.027.043.062.064.088l.128.242.256.479.516.939a8.587,8.587,0,0,0,1.2,1.809c.474,3.154,1.008,6.242,1.317,9.591q.1.969.2,1.931c.067.559.112,1.119.15,1.677q.124,1.674.246,3.326c.155,2.2.2,4.382.284,6.529-.008,2.149.057,4.271-.022,6.362a132.939,132.939,0,0,1-2.628,23.593,100.371,100.371,0,0,1-4.549,15.606c-.448,1.289-.983,2.5-1.442,3.644-.477,1.138-.888,2.207-1.333,3.134Z" /></g><g class="cls-2" transform="matrix(-1, 0, 0, 1, 380, 0)"><path class="cls-3" d="M237.188,194.8a5.419,5.419,0,0,1,2.659,1.775,9.2,9.2,0,0,1,2.372,6.541l-.041,1.055-1.043-.376-6.607-2.388,1.292-1.234a21.137,21.137,0,0,1,1.028,4.113,21.956,21.956,0,0,1,.194,4.522,34.128,34.128,0,0,1-.589,4.433l-.239,1.155c-.031.3-.109.148-.174.113l-.2-.143a2.457,2.457,0,0,0-.434-.177,2.84,2.84,0,0,0-.486.015c-.984-1.369-2.013-2.768-3-4.03A22.754,22.754,0,0,0,228.922,207c-.234-.213-.568-.508-.721-.623-.188-.151-.37-.309-.563-.453q-.569-.444-1.152-.856c-.778-.548-1.572-1.055-2.372-1.519l2.176-1.472a43.37,43.37,0,0,1,.558,4.619l.036.569.023.753c.023.5.02,1,.015,1.492,0,.987-.052,1.945-.124,2.859-.142,1.839-.4,3.466-.666,5s-.54,3-.83,4.438l-.052.259c-.017.061-.034.234-.052.2l-.1.03c-.07.022-.139.047-.209.076a3.937,3.937,0,0,0-.269.317,2.152,2.152,0,0,0-.3.454l-2.106-4.116L221.145,217l-1.036-1.818a25.8,25.8,0,0,0-2.194-2.95c-.192-.235-.378-.457-.593-.68-.15-.161-.107-.109-.132-.132l-.04-.03c-.023-.011-.177-.147-.271-.226a9.071,9.071,0,0,0-1.238-.883c-.351-.169-.987-.7-.63.18a13.653,13.653,0,0,1,.288,1.885l.013.272a3.008,3.008,0,0,1,0,.432c-.021.525-.024,1.052-.063,1.578a38.949,38.949,0,0,1-1.764,9.182c-.466,1.5-1,2.8-1.539,4.154l-1.713,4.191-.461,1.107c-.131.282-.213.378-.322.58-.21.364-.377.634-.722,1.317l-2.135-6.835-.536-1.7-.268-.854-.273-.768-.55-1.516c-.184-.5-.36-1.034-.569-1.461-.406-.9-.795-1.823-1.22-2.7-.2-.421-.462-.909-.635-1.238l-.351-.645c-.479-.853-.984-1.691-1.5-2.517l-.366-.555-.057-.07-.116-.136c-.077-.084-.149-.159-.217-.224s-.133-.12-.193-.166c-.052-.029-.144-.153-.1.038l.046.512.016.2.008.083-.074,1.141c-.068.858-.13,1.714-.217,2.563l-.128,1.272-.221,1.848c-.428,3.168-.963,6.253-1.576,9.133q-.977,4.626-1.95,9.24L189.15,229.17c-1.067-1.8-2.125-3.643-3.178-5.5l-1.79-3.209q-3.12-5.673-5.939-11.4l6.6.11a50.361,50.361,0,0,0-2.452,5.283c-.062.13-.261.7-.4,1.094l-.46,1.285c-.3,1.036-.636,1.986-.9,3.086-.259,1.119-.547,2.119-.749,3.449l-.33,1.881-.264,2.214-2.548.423a7.707,7.707,0,0,0-.977.223l-.123.044-.375.027-.816.051-2.173.133c-.521-1.275-1.008-2.615-1.486-3.989l-.683-2.177c-.219-.744-.411-1.555-.616-2.324s-.375-1.6-.542-2.417-.354-1.659-.447-2.4l-.33-2.228-.14-1.4c-.161-1.865-.247-3.72-.233-5.558,0-.23.007-.46.011-.689l.009-.338.007-.045.031-.176.077-.407c-.086-.061-.273-.034-.433-.044l-.274.012-1.377.266a39.306,39.306,0,0,0-15.217,6.9l-4.39,3.277.371-5.249.077-1.095.061-.364c.044-.246.1-.5.16-.755.124-.516.282-1.057.479-1.635l.275-.761.155-.394c.011-.047.091-.175.044-.158l-.131.041a6.748,6.748,0,0,0-1.088.436,10,10,0,0,0-2.272,1.586c-.19.167-.388.358-.563.54-.244.245-.566.637-.831.956a24.6,24.6,0,0,0-1.536,2.082,23.73,23.73,0,0,0-2.3,4.444,19.811,19.811,0,0,1,1.088-4.773,23.521,23.521,0,0,1,1.1-2.542c.229-.416.447-.855.7-1.273a16.624,16.624,0,0,1,.947-1.406,24.408,24.408,0,0,1,5.622-5.453c1.131-.8,2.306-1.588,3.676-2.406l.507-.308a.865.865,0,0,1,.113-.063l.026.012.056.023a.675.675,0,0,0,.293.043,2.322,2.322,0,0,0,.463-.062c.2-.047.453-.123.717-.209-.654,2.421-1.54,5.274-2.091,7.666a27.65,27.65,0,0,0-.454,3.4c-.022.544-.064,1.138-.058,1.654l.042.887-4.586-2.251a39.79,39.79,0,0,1,12.048-7.71,36.87,36.87,0,0,1,5.671-1.795c.561-.163,2.5-.464,3.8-.655,1.379-.164,2.607-.248,3.732-.339l2.546-.18q-.254,2.744-.5,5.472c-.08.9-.159,1.779-.174,2.628l-.039.746-.024.634a48.8,48.8,0,0,0,.077,5.049l.043.626.027.462.014.489c0,.237,0,.441.015.7a13.622,13.622,0,0,0,.217,1.735c.082.452.19.935.322,1.438.063.253.135.509.213.769.036.114.082.3.111.358l.034-.186a16.267,16.267,0,0,1,.6-2.283c.126-.391.279-.8.444-1.233q.353-.852.7-1.692a56.035,56.035,0,0,1,2.792-5.712l1.741-3.1,1.479,3.152q2.794,5.952,5.785,11.58l2.248,4.171c.608,1.1,1.241,2.211,1.886,3.314l.063.1.027-.116.054-.234.107-.47.2-.947q.192-.951.355-1.917c.108-.642.206-1.288.294-1.934l.15-1.194.171-1.547c.1-1.029.195-2.055.266-3.078.09-1.365.173-2.841.2-4.289.058-2.921.015-6-.034-8.925l.319-.15.079-.037.178.185.362.382,1.422,1.518c.931,1.008,1.82,1.989,2.71,3.024.887,1.016,1.768,2.126,2.618,3.286.418.595.853,1.169,1.256,1.78l.559.859c.145.225.294.447.43.677.564.906,1.1,1.827,1.607,2.753l.541,1.018.391.782a28.949,28.949,0,0,1,1.268,3.067c.094.255.171.511.252.763l.059.188c.021.051.037.18.067.054l.163-.408c.216-.541.4-1.084.563-1.62a20.348,20.348,0,0,0,.687-3.154l.087-.761.1-1.228.063-1.383q0-1.023-.009-2.04c-.039-.734-.113-1.506-.169-2.257q-.179-1.227-.355-2.449c-.273-1.694-.566-3.4-.869-5.066.319-.756,2.7,1.071,4.248,2.036a35.521,35.521,0,0,1,4.992,3.848c.412.4.8.733,1.255,1.236l.559.591.168.185c.225.252.435.51.637.769a12.823,12.823,0,0,1,1.06,1.613c.171.308.327.62.471.936.016.014.043.135.05.062l.029-.132.058-.261.1-.522a19.476,19.476,0,0,0,.262-2.064c.025-.342.041-.683.047-1.025l0-.516,0-.265-.018-.49a40.561,40.561,0,0,0-.4-4.293l-.633-4.3,3.661,2.253a33.1,33.1,0,0,1,3.605,2.565c.285.228.562.465.835.7l.195.17.079.076.179.171c.239.231.472.475.7.73a16.2,16.2,0,0,1,1.267,1.555c.183.263.372.544.565.849l.29.475.038.062c.008,0,.012-.028.019-.04l.036-.1.073-.195a9.717,9.717,0,0,0,.432-1.777,11.391,11.391,0,0,0,.09-2.171,12.885,12.885,0,0,0-.472-2.806l-.632-2.368,2.1.97c2.344,1.084,4.607,2.146,6.367,3l-.881.552a8.64,8.64,0,0,0-1.185-5.583A8.873,8.873,0,0,0,237.188,194.8Z" /></g></svg>