<svg xmlns="http://www.w3.org/2000/svg" id="exports" viewBox="0 0 380 600">
  <defs>
    <style>
      .cls-1 {
        fill: none;
      }

      .cls-2 {
        fill: #252c83;
      }

      .cls-3 {
        fill: #b89071;
      }

      .cls-4 {
        fill:#ffffff;
      }

      .cls-5 {
        fill: #a88166;
      }

      .cls-6 {
        fill: #b4ead8;
      }

      .cls-7 {
        fill: #fff;
      }

      .cls-8 {
        fill: #3b4d91;
      }

      .cls-9 {
        fill: #c4212f;
      }

      .cls-10 {
        fill: #171336;
      }

      .cls-11 {
        fill: #a88166;
      }

      .cls-12 {
        fill: #3a4d92;
      }
    </style>
  </defs>
  <g id="default">
    <g>
      <path class="cls-4 color-body" d="M219.24,391.58c7.58,9.51,14.23,22.31,22.21,41.29,8.86,21.06,18.83,37.37,29.71,32.71,13.62-5.83,9.48-36.63,4.49-51.1-6.05-17.58-19.43-51.04-47.78-59.99-10.88-3.44-14.23,11.57-14.23,11.57" style="fill:#ffffff;--backup-fill:#ffffff"></path>
      <path d="M220.42,390.64l-2.35,1.88c6.14,8.17,10.8,17.41,15.04,26.83,2.11,4.72,4.11,9.5,6.06,14.31,1.97,4.87,4.07,9.72,6.49,14.46,2.43,4.73,5.11,9.41,8.73,13.7,1.84,2.11,3.93,4.17,6.68,5.71,1.37.76,2.93,1.37,4.62,1.62,1.69.26,3.48.13,5.1-.34,1.61-.47,3.09-1.23,4.43-2.2,1.29-1.01,2.44-2.18,3.33-3.47,1.82-2.56,2.83-5.38,3.54-8.13,1.35-5.55,1.45-11.05,1.18-16.45-.31-5.4-1.1-10.72-2.27-15.96-.59-2.62-1.28-5.23-2.12-7.82-.87-2.59-1.75-5-2.7-7.49-3.78-9.88-8.39-19.55-14.45-28.39-3.03-4.41-6.44-8.6-10.3-12.37-3.85-3.77-8.19-7.1-12.95-9.72-2.37-1.32-4.88-2.4-7.42-3.34-1.31-.41-2.49-.89-4.06-1.19-1.51-.27-3.14-.26-4.69.16-1.56.4-2.95,1.23-4.11,2.21-1.16.99-2.07,2.15-2.85,3.35-1.52,2.44-2.5,4.97-3.14,7.74l2.94.65c.63-2.26,1.67-4.61,3.01-6.52,1.34-1.92,3.1-3.42,5.06-3.83.98-.21,2-.19,3.05.04.99.21,2.22.74,3.38,1.15,2.3.96,4.56,2.03,6.69,3.32,8.6,5.13,15.5,12.79,21.03,21.26,5.54,8.51,9.82,17.87,13.37,27.51.88,2.39,1.76,4.89,2.53,7.25.75,2.38,1.38,4.83,1.92,7.3,1.08,4.94,1.81,9.99,2.1,15.01.27,5,.14,10.06-.96,14.68-.57,2.28-1.38,4.46-2.58,6.17-.58.88-1.29,1.57-2.04,2.19-.77.56-1.63,1.02-2.52,1.3-1.75.54-3.53.29-5.38-.71-1.84-.98-3.6-2.57-5.2-4.36-3.19-3.64-5.86-8-8.28-12.47-2.42-4.49-4.61-9.16-6.68-13.89-2.1-4.79-4.28-9.56-6.6-14.27-4.64-9.4-9.81-18.69-16.59-26.86Z"></path>
    </g>
  </g>
  <g id="shirt_short_red">
    <path class="cls-10" d="M213.99,366.43s3.34-15,14.23-11.57c17.95,5.67,30.28,21.64,37.28,36.64,3.06,6.56-9,24-27.96,28.93-6.19-13.74-11.76-20.71-17.95-28.49"></path>
  </g>
  <g>
    <polygon class="cls-2" points="216.61 378.38 217.06 380.41 218.09 380.41 220.04 380.41 218.57 380.41 216.61 378.38"></polygon>
    <path class="cls-2" d="M243.58,402.3h1.21l-8.23-8.56h-1s-7.13-7.44-7.13-7.44l-5.63-5.88h.96s1.14,0,1.14,0h-.75s-9.18-9.55-9.18-9.55l.99,4.51,4.84,5.03,5.66,5.88,7.15,7.43,8.24,8.57h.1l10.55,10.97c.32-.23.64-.47.95-.71l-6.49-6.74-3.36-3.51Z"></path>
    <path class="cls-2" d="M237.94,420.32l-.88-.92c.16.35.32.68.48,1.03.14-.04.27-.08.4-.11Z"></path>
    <path class="cls-2" d="M230.89,393.73h-1.12s-7.12-7.43-7.12-7.43l-5.58-5.83.53,2.4,3.3,3.43,7.14,7.43,8.24,8.57h.1l12.72,13.23c.6-.36,1.19-.74,1.77-1.13l-11.63-12.1h-.1l-8.24-8.57Z"></path>
    <path class="cls-2" d="M218.79,388.3l.45,2.05,11.49,11.95h.1l14.62,15.2c.32-.15.63-.31.95-.47l-14.1-14.73h-.1l-13.4-14Z"></path>
    <path class="cls-2" d="M242.35,418.86l-12.75-13.33c.73,1.15,1.47,2.36,2.21,3.64l9.61,10.05c.31-.11.63-.23.94-.35Z"></path>
    <path class="cls-2" d="M249.35,402.3h1.11l-8.23-8.56h-.88s-7.13-7.44-7.13-7.44l-5.63-5.88h.85s1.12,0,1.12,0h-.66s-11.68-12.15-11.68-12.15h-.46s-.82,0-.82,0l-.33-.35-2.35-2.45c-.18.59-.26.95-.26.95l.32,1.48.02.02h0l.33.35,11.68,12.15,5.65,5.88,7.15,7.44,8.23,8.56h1.32l7.53,7.89c.11-.1.23-.2.34-.31l-7.24-7.58Z"></path>
    <path class="cls-2" d="M259.25,393.75h-.52s-7.16-7.46-7.16-7.46l-.13-.13-5.39-5.61h-.87s-24.07-25.17-24.07-25.17c-.21.11-.41.24-.61.37l23.71,24.8h-1.02s5.39,5.61,5.39,5.61l.13.14,7.17,7.45,5.51,5.73,2.01,2.09c.61-1.05,1.12-2.07,1.52-3.06l-4.58-4.76h-1.09Z"></path>
    <path class="cls-2" d="M254.91,374.25c-2.71-3.41-5.74-6.62-9.1-9.46l9.1,9.46Z"></path>
    <path class="cls-2" d="M255.11,402.3h2.13l-2.72-2.83-5.51-5.73h-1.11s-.76,0-.76,0l-7.14-7.45-.14-.14-5.38-5.61h-.43s-18.27-18.99-18.27-18.99c-.24.49-.45.97-.64,1.42l4.76,4.95h.02l.33.35,11.68,12.15,5.65,5.87,7.16,7.44,8.23,8.56h1.22l4.87,5.1c.15-.17.3-.34.45-.51l-4.39-4.59Z"></path>
    <path class="cls-2" d="M223.56,354.97h1.68l24.47,25.59h-1.57s.67.7.67.7l4.72,4.91h.58s.13.13.13.13l6.84,7.11h.05l.33.35,3.78,3.94c.44-1.27.69-2.45.73-3.52l-.4-.41h-.64s-.41,0-.41,0l-.33-.35-6.84-7.11-.12-.13-4.72-4.91-.67-.7h-.85s-24.48-25.59-24.48-25.59h2.06c-.12-.04-.23-.08-.34-.12-2.46-.78-4.53-.61-6.27.12h1.6Z"></path>
    <path class="cls-2" d="M260.88,402.3h2.02l-2.71-2.82-5.51-5.73h-1.1s-.64,0-.64,0l-7.15-7.45-.13-.14-5.38-5.61h-.9s-21.44-22.43-21.44-22.43c-.1.12-.2.25-.29.38l21.06,22.05h-1.08s5.39,5.61,5.39,5.61l.13.14,7.16,7.45,5.51,5.73,2.72,2.83h1.11l1.94,2.03c.18-.25.36-.5.53-.74l-1.23-1.28Z"></path>
    <path class="cls-2" d="M259.77,386.3l6.07,6.32c-.08-.4-.19-.77-.35-1.11-1.12-2.41-2.39-4.84-3.78-7.25l-3.54-3.68h-1.38s-22.16-23.15-22.16-23.15c-.84-.41-1.69-.78-2.55-1.14l23.36,24.29,5.51,5.73h-1.17s0,0,0,0Z"></path>
  </g>
  <g id="shirt_short_red-2" data-name="shirt_short_red">
    <path d="M212.52,366.1l2.94.65c.83-2.74,2.2-5.57,4.03-7.6.92-1.01,1.97-1.82,3.09-2.25,1.11-.46,2.3-.52,3.52-.32.31.08.61.11.92.22.3.09.61.18.98.34l2.1.82c.71.25,1.37.62,2.05.93.67.34,1.37.61,2.02,1.01,2.66,1.41,5.15,3.12,7.54,4.95,4.71,3.78,8.89,8.25,12.45,13.2.92,1.21,1.74,2.51,2.6,3.77.8,1.31,1.64,2.58,2.37,3.93.78,1.32,1.48,2.68,2.19,4.03.35.68.67,1.38,1.01,2.06l.25.52.13.26c.04.09.09.18.09.2.02.07.05.13.07.19.01.09.03.17.05.26.13.77-.02,2-.44,3.22-.41,1.23-1.01,2.49-1.73,3.71-1.44,2.45-3.3,4.75-5.39,6.84-4.19,4.17-9.25,7.54-14.79,9.7-.34.15-.69.27-1.04.39l-.23.08-.04.02-.08.04-.17.07s-.06.03-.09.04l-.06-.1-.13-.21-.07-.11-.03-.06-.11-.22-1.1-2.15c-1.51-2.85-3.12-5.65-4.89-8.35-3.5-5.44-7.63-10.4-11.77-15.16l-2.35,1.88c3.76,5.08,7.39,10.13,10.43,15.52,1.53,2.69,2.93,5.45,4.25,8.26l2.63,5.79.44.97c.31-.01.68-.17,1.02-.24l2.1-.57c.35-.1.7-.18,1.05-.3l.86-.27c.4-.12.8-.25,1.2-.39,6.35-2.19,12.17-5.81,17.05-10.48,2.43-2.34,4.64-4.96,6.44-7.95.9-1.5,1.7-3.1,2.29-4.87.58-1.77,1.03-3.75.66-6.12l-.2-.9c-.1-.31-.22-.62-.34-.92-.07-.18-.11-.26-.15-.35l-.13-.28-.27-.55c-.36-.73-.71-1.47-1.09-2.2-.77-1.44-1.53-2.89-2.37-4.29-.8-1.43-1.72-2.79-2.59-4.17-.94-1.34-1.84-2.71-2.86-4-3.94-5.25-8.62-9.99-13.95-13.92-2.7-1.91-5.53-3.67-8.54-5.08-.73-.4-1.52-.67-2.28-1-.77-.3-1.52-.67-2.32-.9l-2.36-.78c-.37-.13-.83-.25-1.29-.36-.45-.12-.93-.17-1.4-.25-1.9-.22-3.99.04-5.75.92-1.79.84-3.2,2.15-4.3,3.55-1.11,1.41-1.93,2.93-2.6,4.49-.66,1.58-1.16,3.11-1.52,4.84Z"></path>
  </g>
  <path d="M234.4,361.01c-2.61-2.42-5.67-4.25-8.79-5.75-.23-.11-.52,0-.66.23-.14.24-.09.55.11.69,2.79,1.98,5.52,4.02,7.98,6.29,2.44,2.27,4.64,4.8,6.14,7.8.11.22.4.31.67.22.26-.1.41-.36.33-.61-1.02-3.42-3.17-6.48-5.78-8.88Z"></path>
  <g id="default-2" data-name="default">
    <path class="cls-4 color-body" d="M144.77,441.16c13.64-36.84-9.04-78.79,30.64-91.82,29.14-9.57,59.41,5.74,75.67,54.17,5.9,17.56,7.78,42.31,3.48,59.99h0s-6.03,10.25-50.16,13c-42.25,2.63-64.39-13-64.39-13h0c.82-7.14,2.46-16.13,4.76-22.34Z" style="fill:#ffffff;--backup-fill:#ffffff"></path>
    <path class="cls-10" d="M145.12,441.53c11.02-29.77-3.32-62.33,12.34-80.81,9.08-14.9,19.79,10.58,32.03,16.44,14.73,7.05,23.13,9.28,34.09-3.67.44-.52.43-1.28.58-1.94.92-4.01.28-9.76-.76-12.8,11.17,9.2,20.93,24.01,28.02,45.14,5.9,17.56,7.78,52.31,3.48,69.99,0,0-6.03,19.25-50.16,22-42.25,2.63-64.39-19-64.39-19,.82-7.14,2.46-29.13,4.76-35.34Z"></path>
    <g>
      <path class="cls-2" d="M185.46,380.59h-.53s5.39,5.61,5.39,5.61l.09.1,6.87,7.15,5.84,6.07h0l2.67,2.78h1.38l5.48,5.71h.28s6.96,7.24,6.96,7.24h.02l.33.35,11.68,12.15,5.65,5.87,7.16,7.44,8.23,8.56h1.22l3.02,3.16c0-.32.01-.64.02-.96l-2.11-2.2h2.13l-2.72-2.83-5.51-5.73h-1.11s-.76,0-.76,0l-7.14-7.45-.14-.14-5.38-5.61h-.43s-24.61-25.57-24.61-25.57h-.1l-15.4-16-26.78-27.83-2.09-2.18c-.99-.24-1.97-.23-2.94.08l23.32,24.24Z"></path>
      <path class="cls-2" d="M243.58,402.3h1.21l-8.23-8.56h-1s-7.13-7.44-7.13-7.44l-5.63-5.88h.96s1.14,0,1.14,0h-.75s-3.56-3.71-3.56-3.71c-.6.59-1.2,1.12-1.8,1.61l2.01,2.09,5.66,5.88,7.15,7.43,8.24,8.57h.1l12.32,12.82c-.14-.73-.28-1.44-.43-2.14l-6.89-7.16-3.36-3.51Z"></path>
      <path class="cls-2" d="M204.36,386.3l15.29,16h.1l24.45,25.58h-1.02s5.39,5.61,5.39,5.61l.13.14,7.17,7.45,1.26,1.31c-.03-1.03-.08-2.06-.13-3.09l-5.45-5.67-.13-.13-5.39-5.61h-.87s-24.46-25.58-24.46-25.58h-.1l-15.3-16-4.25-4.44c-.44-.12-.88-.26-1.33-.4l4.63,4.84Z"></path>
      <path class="cls-2" d="M249.35,402.3h1.11l-8.23-8.56h-.88s-7.13-7.44-7.13-7.44l-5.63-5.88h.85s1.12,0,1.12,0h-.66s-6.48-6.74-6.48-6.74c-.58.67-1.14,1.3-1.71,1.9l4.66,4.84,5.65,5.88,7.15,7.44,8.23,8.56h1.32l3.3,3.45c-.1-.34-.21-.66-.31-.99l-2.36-2.47Z"></path>
      <path class="cls-2" d="M161.67,488.41h-1s-7.15-7.46-7.15-7.46l-5.61-5.86h.96s1.14,0,1.14,0h0s-.76,0-.76,0l-7.89-8.21c-.11,1.09-.21,2.15-.31,3.15l4.86,5.05,5.63,5.86,6.92,7.2c1.53.68,3.15,1.34,4.87,1.98l-1.66-1.72Z"></path>
      <path class="cls-2" d="M145.15,475.09h0s-1.49,0-1.49,0l-2.82-2.93c-.11,1.15-.22,2.21-.31,3.13l5.45,5.67.86.9c1.24.82,2.66,1.7,4.25,2.6l-3.35-3.5-5.61-5.86h1.07s1.95,0,1.95,0Z"></path>
      <path class="cls-2" d="M193.95,480.95l-26.78-27.83-3.33-3.49h.39l-8.22-8.55h-1.12s-7.14-7.46-7.14-7.46l-.22-.23c-.11.49-.24.97-.36,1.46l5.98,6.22,8.22,8.55h-.56l24.65,25.62h-.53s5.39,5.61,5.39,5.61l.09.1,6.87,7.15,5.84,6.07h0l1.64,1.7c1.13-.07,2.22-.16,3.3-.25l-14.12-14.67Z"></path>
      <path class="cls-2" d="M247.5,449.62h1.22l8.27,8.65c.01-.21.02-.42.04-.63l-7.67-8.03h1.11l-8.23-8.56h-.88s-7.13-7.44-7.13-7.44l-5.63-5.88h.85s1.12,0,1.12,0h-.66s-11.68-12.15-11.68-12.15h-.46s-.82,0-.82,0l-.33-.35-6.94-7.24-5.47-5.71h.89l-2.67-2.78h0l-5.84-6.07h-.12s-.78,0-.78,0l-6.87-7.14-.08-.08h0l-5.4-5.62h-1.47s-21.93-22.91-21.93-22.91c-.25.22-.5.46-.75.73l21.32,22.18h-.23s-1.89,0-1.89,0h0s1.29,0,1.29,0h-.24s5.49,5.71,5.49,5.71l.02.02h-.02l6.85,7.12,5.84,6.07h-.95s-5.51-5.73-5.51-5.73h-1.08s-.33-.35-.33-.35l-6.85-7.12h0l-.02-.02-4.82-5.01h0l-.67-.7h-.35s-.96,0-.96,0l-18.76-19.61c-.2.24-.38.49-.57.73l18.05,18.88h-.89s.67.69.67.69h-1.09s1.05,0,1.05,0l4.72,4.91h-2.09s1.51,0,1.51,0h.58s.1.11.1.11l6.86,7.14h.05l.33.35,5.51,5.73,2.68,2.79h1.52l5.46,5.7h.09l6.96,7.24.33.35,11.68,12.15,5.66,5.88,7.15,7.43,8.24,8.57h.1l14.51,15.09c.06-.5.11-1.02.16-1.54l-9.66-10.04-3.36-3.51h1.21l-8.23-8.56h-1s-7.13-7.44-7.13-7.44l-5.63-5.88h.96s1.14,0,1.14,0h-.75s-11.68-12.15-11.68-12.15h-.39s-.92,0-.92,0l-.33-.35-6.94-7.24-5.47-5.7h.99l-2.68-2.79h.77s.06,0,.06,0l2.68,2.79h1.47l5.47,5.71h.18s6.96,7.24,6.96,7.24h0l.33.35,11.68,12.15,5.65,5.88,7.15,7.44,8.23,8.56h.1Z"></path>
      <path class="cls-2" d="M243.01,433.48l.13.14,7.16,7.45,5.51,5.73,1.44,1.49c0-1.53-.03-3.07-.07-4.62l-2.5-2.6h-1.1s-.64,0-.64,0l-7.15-7.45-.13-.14-5.38-5.61h-.9s-24.44-25.58-24.44-25.58h-.1l-15.29-16-7.67-8.03c-.38-.18-.77-.36-1.16-.54l8.19,8.57,15.28,16h.1l24.43,25.58h-1.08s5.39,5.61,5.39,5.61Z"></path>
      <path class="cls-2" d="M238.7,380.55h-1.08s5.39,5.61,5.39,5.61l.13.14,2.17,2.25c-.94-1.99-1.9-3.92-2.9-5.76l-2.14-2.23h-.9s-14.84-15.53-14.84-15.53c.02.24.03.49.04.74l14.13,14.79Z"></path>
      <path class="cls-2" d="M223.4,358.74s.02.05.02.08l10.92,11.43c-3.45-4.51-7.11-8.34-10.95-11.5Z"></path>
      <path class="cls-2" d="M167.34,488.41h-.88s-7.16-7.47-7.16-7.47l-5.61-5.85h.85s1.12,0,1.12,0h0s-.63,0-.63,0l-11.68-12.15h-.5s-.82,0-.82,0l-.27-.28c-.07.71-.15,1.42-.22,2.12l9.91,10.31,5.63,5.85,7.18,7.46,2.94,3.05c1.38.44,2.8.87,4.28,1.27l-4.15-4.32Z"></path>
      <path class="cls-2" d="M220.9,386.3l7.14,7.43,8.24,8.57h.1l19.03,19.79c-.17-1.2-.35-2.37-.54-3.53l-15.64-16.26h-.1l-8.24-8.57h-1.12s-7.12-7.43-7.12-7.43l-5.64-5.89h1.07s1.95,0,1.95,0h-1.48s-1.05-1.1-1.05-1.1c-.69.5-1.37.94-2.05,1.33l5.43,5.65Z"></path>
      <path class="cls-2" d="M255.43,427.89l.78.81c-.05-.53-.11-1.06-.17-1.59l-23.75-24.81h-.1l-15.32-16-4.18-4.37c-.4.14-.8.26-1.2.37l3.85,4,15.38,16h.1l24.61,25.59Z"></path>
      <path class="cls-2" d="M224.04,372.22l7.89,8.21,5.65,5.87,7.16,7.44,4.89,5.08c-.65-1.74-1.32-3.43-2.01-5.08h-.47s-7.14-7.45-7.14-7.45l-.14-.14-5.38-5.61h-.43s-9.69-10.07-9.69-10.07c-.06.37-.12.73-.2,1.07-.05.22-.08.45-.12.67Z"></path>
      <path class="cls-2" d="M209.83,386.3l15.3,16h.1l24.47,25.59h-1.57s.67.7.67.7l4.72,4.91h.58s.13.13.13.13l2.63,2.73c-.07-1.18-.16-2.35-.26-3.52l-4.08-4.25-.67-.7h-.85s-24.48-25.59-24.48-25.59h-.1l-15.31-16-3.32-3.47c-.42.01-.85,0-1.27-.02l3.34,3.49Z"></path>
      <path class="cls-2" d="M205.31,480.95l-29.95-31.32h.19l-8.21-8.54h-.88s-7.16-7.47-7.16-7.47l-5.61-5.85h.85s1.12,0,1.12,0h0s-.63,0-.63,0l-5.75-5.98c-.1,1.11-.22,2.23-.35,3.35l2.53,2.63,5.63,5.85,7.18,7.46,8.21,8.54h1.94l29.94,31.32,12.96,13.56c.28-.04.55-.09.83-.14l-12.83-13.42Z"></path>
      <path class="cls-2" d="M211.09,480.95l-29.97-31.32h1.2l-2.69-2.8-5.51-5.73h-1.11s-.76,0-.76,0l-7.17-7.47-.11-.12-5.38-5.61h-.51s-9.54-9.92-9.54-9.92c-.03.63-.07,1.25-.11,1.88l7.61,7.92,5.62,5.85,7.18,7.47,8.2,8.53h1.84l29.95,31.32,12.16,12.71c.35-.07.71-.14,1.06-.22l-11.96-12.5Z"></path>
      <path class="cls-2" d="M216.87,480.95l-24.54-25.63-5.45-5.69h1.09l-2.69-2.8-5.51-5.73h-1.1s-.64,0-.64,0l-7.18-7.48-.11-.11-5.38-5.61h-.97s-14.69-15.37-14.69-15.37c0,.23,0,.45,0,.68l14.02,14.68h-1.01s5.39,5.61,5.39,5.61l.11.12,7.19,7.47,5.51,5.73,2.69,2.8h1.73l5.45,5.69,18.1,18.92,6.45,6.71,11.21,11.66c.4-.1.79-.21,1.18-.31l-10.86-11.35Z"></path>
      <path class="cls-2" d="M157.04,380.45l5.62,5.85,7.18,7.47,8.2,8.53h1.84l29.95,31.32,15.3,16h.1l24.47,25.59h-1.57s.67.7.67.7l2.92,3.04c.67-.78,1.21-1.51,1.64-2.15l-.85-.89-.67-.7h-.85s-24.48-25.59-24.48-25.59h-.1l-15.31-16-29.97-31.32h1.2l-2.69-2.8-5.51-5.73h-1.11s-.76,0-.76,0l-7.17-7.47-.11-.12-5.38-5.61h-.51s-7.67-7.97-7.67-7.97c-.14.52-.27,1.06-.39,1.59l6.01,6.25Z"></path>
      <path class="cls-2" d="M150,427.77h0s-.76,0-.76,0l-.57-.59c-.03.2-.06.39-.09.59h.28s1.14,0,1.14,0Z"></path>
      <path class="cls-2" d="M199.53,480.95l-29.94-31.32h.29l-8.21-8.54h-1s-7.15-7.46-7.15-7.46l-5.04-5.25c-.09.59-.19,1.19-.29,1.78l3.34,3.48,7.17,7.46,8.21,8.54h2.04l29.92,31.32,13.6,14.23c.2-.02.39-.05.58-.07l-13.53-14.16Z"></path>
      <path class="cls-2" d="M230.89,488.38h-1.12s-7.12-7.43-7.12-7.43l-5.64-5.89h1.07s1.95,0,1.95,0h-1.48s-11.68-12.15-11.68-12.15h-.48s-1.03,0-1.03,0l-7.27-7.59-5.46-5.7h1.24l-2.68-2.79h-.26s-5.51-5.73-5.51-5.73h-1.09s-.52,0-.52,0l-7.18-7.48-.1-.11-5.38-5.61h-.95s-20.49-21.43-20.49-21.43c0,.34,0,.68.01,1.02l19.5,20.41h-.94s5.39,5.61,5.39,5.61l.11.11,7.19,7.48,5.51,5.73,2.69,2.8h1.62l5.45,5.7h0l7.3,7.59,11.68,12.15,5.66,5.89,7.14,7.43,2.87,2.99c.74-.24,1.45-.48,2.15-.73l-2.17-2.26Z"></path>
      <path class="cls-2" d="M196.73,494.16h.77s.06,0,.06,0l1.83,1.9c1.53-.02,3.08-.07,4.67-.16l-1.67-1.73h0l-5.84-6.07h-.9s-6.87-7.14-6.87-7.14l-.08-.08h0l-5.4-5.62h-1.47s-24.52-25.62-24.52-25.62h-.03l-11.02-11.51c-.12.39-.25.79-.37,1.18l9.93,10.33h.03l24.63,25.62h-.23s-1.89,0-1.89,0h0s1.29,0,1.29,0h-.24s5.49,5.71,5.49,5.71l.02.02h-.02l6.85,7.12,5.84,6.07h-.95s-5.51-5.73-5.51-5.73h-1.08s-.33-.35-.33-.35l-6.85-7.12h0l-.02-.02-4.82-5.01h0l-.67-.7h-.35s-.96,0-.96,0l-24.51-25.61h-.03l-6.71-7.02c-.09.32-.19.66-.28,1.03l5.72,5.99h.03l24.49,25.61h-.89s.67.69.67.69h-1.09s1.05,0,1.05,0l4.72,4.91h-2.09s1.51,0,1.51,0h.58s.1.11.1.11l6.86,7.14h.05l.33.35,5.51,5.73,1.79,1.86c1.54.05,3.12.07,4.72.05l-1.84-1.91Z"></path>
      <path class="cls-2" d="M236.56,488.38h-1s-7.13-7.44-7.13-7.44l-5.63-5.88h.96s1.14,0,1.14,0h-.75s-11.68-12.15-11.68-12.15h-.39s-.92,0-.92,0l-.33-.35-6.94-7.24-5.47-5.7h.99l-2.68-2.79h.77s.06,0,.06,0l2.68,2.79h1.47l5.47,5.71h.18l6.96,7.24h0l.33.35,11.68,12.15,5.65,5.88,6.97,7.25c.51-.24,1.01-.49,1.48-.73l-6.25-6.52-5.63-5.88h.85s1.12,0,1.12,0h-.66s-11.68-12.15-11.68-12.15h-.46s-.82,0-.82,0l-.33-.35-6.94-7.24-5.47-5.71h.89l-2.67-2.78h0l-5.84-6.07h-.12s-.78,0-.78,0l-6.87-7.14-.08-.08h0l-5.4-5.62h-.09s-1.38,0-1.38,0l-24.52-25.62h-.03l-7.76-8.11c0,.52.01,1.05.02,1.58l6.28,6.53h.03l24.63,25.62h-2.12s0,0,0,0h1.29s-.24,0-.24,0l5.49,5.71.02.02h-.02s6.85,7.12,6.85,7.12l5.84,6.07h-.95s-5.51-5.73-5.51-5.73h-1.08s-.33-.35-.33-.35l-6.85-7.12h0l-.02-.02-4.82-5.01h0l-.67-.7h-.35s-.96,0-.96,0l-24.51-25.61h-.03l-1.87-1.95c0,.45.02.9.03,1.35l.57.6h.03l24.49,25.61h-.89s.67.69.67.69h-1.09s1.05,0,1.05,0l4.72,4.91h-2.09s1.51,0,1.51,0h.58s.1.11.1.11l6.86,7.14h.05l.33.35,5.51,5.73,2.68,2.79h1.52l5.46,5.7h.09l6.96,7.24.33.35,11.68,12.15,5.66,5.88,7.15,7.43,1.45,1.51c.73-.29,1.44-.58,2.12-.87l-.61-.63Z"></path>
      <path class="cls-2" d="M185.29,494.15l-5.51-5.73h-1.1s-.64,0-.64,0l-7.18-7.48-.11-.11-5.38-5.61h-.97s-21.48-22.48-21.48-22.48c-.03.2-.05.4-.08.6l20.89,21.87h-1.01s5.39,5.61,5.39,5.61l.11.12,7.19,7.47,5.51,5.73.68.71c1.63.25,3.29.48,5.01.66l-1.31-1.37Z"></path>
      <path class="cls-2" d="M193.9,402.3l-2.68-2.79h-.26s-5.51-5.73-5.51-5.73h-1.09s-.52,0-.52,0l-7.18-7.48-.1-.11-5.38-5.61h-.95s-15.42-16.12-15.42-16.12c-.12.21-.23.43-.35.64l14.79,15.48h-.94s5.39,5.61,5.39,5.61l.11.11,7.19,7.48,5.51,5.73,2.69,2.8h1.62l5.45,5.7h0l7.3,7.59,11.68,12.15,5.66,5.89,7.14,7.43,8.24,8.57h.1l19.36,20.14c.14-.83.27-1.68.39-2.56l-16.9-17.58h-.1l-8.24-8.57h-1.12s-7.12-7.43-7.12-7.43l-5.64-5.89h1.07s1.95,0,1.95,0h-1.48s-11.68-12.15-11.68-12.15h-.48s-1.03,0-1.03,0l-7.27-7.59-5.46-5.7h1.24Z"></path>
      <path class="cls-2" d="M191.21,494.16h-.26l-5.51-5.73h-1.09s-.52,0-.52,0l-7.18-7.48-.1-.11-5.38-5.61h-.95s-24.49-25.61-24.49-25.61h-.03l-1.99-2.08c-.05.28-.1.57-.14.85l1.17,1.23h.03l24.47,25.61h-.94s5.39,5.61,5.39,5.61l.11.11,7.19,7.48,5.51,5.73,1.43,1.48c1.65.15,3.33.27,5.06.35l-1.76-1.83Z"></path>
      <path class="cls-2" d="M179.63,494.15l-5.51-5.73h-1.11s-.76,0-.76,0l-7.17-7.47-.11-.12-5.38-5.61h-.51s-16.78-17.44-16.78-17.44c-.07.6-.14,1.2-.2,1.8l2.9,3.01h.02l.33.35,11.68,12.15,5.62,5.85,7.18,7.47,4.93,5.13c1.71.39,3.48.76,5.31,1.07l-.45-.47Z"></path>
      <path class="cls-2" d="M250.71,480.06l-4.66-4.86h-.87s-24.46-25.58-24.46-25.58h-.1l-15.3-16-29.95-31.32h.19l-8.21-8.54h-.88s-7.16-7.47-7.16-7.47l-5.61-5.85h.85s1.12,0,1.12,0h0s-.63,0-.63,0l-4.36-4.54c-.2,1.04-.37,2.1-.51,3.18l1.31,1.36,5.63,5.85,7.18,7.46,8.21,8.54h1.94l29.94,31.32,15.29,16h.1l24.45,25.58h-1.02s5.39,5.61,5.39,5.61l.13.14.53.55c.54-.49,1.03-.97,1.48-1.43Z"></path>
      <path class="cls-2" d="M163.74,380.58h-1.01s5.39,5.61,5.39,5.61l.11.12,7.19,7.47,5.51,5.73,2.69,2.8h1.73l5.45,5.69,18.1,18.92,6.45,6.71,15.38,16h.1l23.86,24.81c.16-.36.23-.57.23-.57.04-.16.07-.34.11-.5l-22.73-23.75h-.1l-15.32-16-24.54-25.63-5.45-5.69h1.09l-2.69-2.8-5.51-5.73h-1.1s-.64,0-.64,0l-7.18-7.48-.11-.11-5.38-5.61h-.97s-11.59-12.13-11.59-12.13c-.07.16-.12.33-.19.5l11.11,11.63Z"></path>
      <path class="cls-2" d="M190.32,433.53l.09.1,6.87,7.15,5.84,6.07h0s2.67,2.78,2.67,2.78h1.38l5.48,5.71h.28s6.96,7.24,6.96,7.24h.02l.33.35,11.68,12.15,5.65,5.87,5.1,5.3c.53-.31,1.04-.62,1.52-.93l-4.2-4.37-.14-.14-5.38-5.61h-.43s-24.61-25.57-24.61-25.57h-.1l-15.4-16-26.78-27.83-3.33-3.49h.39l-8.22-8.55h-1.12s-5.34-5.58-5.34-5.58c-.01.59-.02,1.19-.03,1.79l3.64,3.78,8.22,8.55h-.56l24.65,25.62h-.53s5.39,5.61,5.39,5.61Z"></path>
      <path class="cls-2" d="M245.78,480.95l-.13-.14-5.38-5.61h-.9s-24.44-25.58-24.44-25.58h-.1l-15.29-16-29.94-31.32h.29l-8.21-8.54h-1s-7.15-7.46-7.15-7.46l-3.7-3.86c-.05.64-.1,1.28-.14,1.94l1.85,1.93,7.17,7.46,8.21,8.54h2.04l29.92,31.32,15.28,16h.1l24.43,25.58h-1.08s5.39,5.61,5.39,5.61l.13.14,2.96,3.08c.54-.39,1.05-.77,1.53-1.15l-1.85-1.93Z"></path>
    </g>
    <path d="M143.71,441.01l2.82,1.05c2.48-6.5,3.85-13.36,4.52-20.22.65-6.87.64-13.74.58-20.53-.05-6.79-.21-13.54.5-20.09.72-6.51,2.39-12.91,6.25-17.81l.72-.91.29-.37.26-.39.31-.45c.2-.32.42-.59.64-.84l.33-.4.35-.33.34-.32.35-.24c.23-.2.46-.25.67-.38.45-.15.85-.26,1.34-.18.95.05,2.19.72,3.37,1.58,1.19.87,2.36,1.97,3.5,3.12,2.29,2.32,4.49,4.91,6.84,7.44,2.37,2.53,4.83,5.1,7.95,7.26.79.53,1.62,1.04,2.51,1.48l2.36,1.13c1.57.73,3.15,1.46,4.8,2.12,3.28,1.31,6.76,2.53,10.66,2.82,3.88.29,8.1-.69,11.39-2.74.79-.54,1.65-1.02,2.37-1.62.71-.6,1.5-1.16,2.15-1.8.66-.64,1.35-1.26,1.97-1.92l1.93-2.13c.34-.41.61-.87.79-1.38.09-.25.16-.51.22-.77l.08-.39.04-.25.05-.31.07-.36c.06-.32.14-.65.18-.96.2-1.27.28-2.49.29-3.71v-.46s0-.08,0-.08c-.04-.1.08.06.1.07l.05.06.9,1.01c.37.42.75.83,1.1,1.27,2.88,3.43,5.47,7.13,7.8,11.01,4.65,7.77,8.27,16.21,11.19,24.88,1.44,4.36,2.43,9.01,3.21,13.68.77,4.68,1.38,9.41,1.75,14.16.78,9.5.97,19.1.25,28.53-.21,2.35-.43,4.7-.81,7-.15,1.16-.38,2.29-.62,3.42l-.17.85-.08.4c-.02.11,0,.02-.02.09-.14.35-.38.81-.61,1.24-1.05,1.74-2.41,3.46-4.06,4.93l-.59.57-.65.52-1.3,1.05c-.9.66-1.86,1.27-2.79,1.91-3.86,2.4-8.18,4.15-12.6,5.6-2.25.64-4.47,1.37-6.79,1.8l-3.45.76c-1.16.2-2.34.37-3.5.55-9.37,1.41-18.9,1.94-28.3,1.09l-3.53-.34c-1.17-.12-2.33-.37-3.5-.54-1.16-.2-2.33-.36-3.49-.6l-3.45-.79-1.72-.4-1.7-.49-3.39-1c-1.12-.38-2.22-.79-3.33-1.19l-1.66-.6-1.63-.69c-4.35-1.8-8.56-3.96-12.48-6.55-.96-.66-1.96-1.3-2.88-2-.47-.35-.94-.69-1.38-1.06l-.83-.67-.12-.11s0-.1,0-.15l.03-.32.15-1.66.31-3.61c.41-4.81.82-9.61,1.34-14.38.26-2.39.55-4.76.89-7.12.36-2.33.75-4.73,1.42-6.79l-2.82-1.05c-1.07,3.12-1.53,6.06-2.04,9.07-.48,2.99-.87,5.98-1.24,8.96-.37,2.99-.7,5.97-1.02,8.96l-.48,4.47-.25,2.23-.16,1.53-.09.91-.05.46c.02.14.2.22.28.33l1.35,1.24,1.01.85c.59.51,1.22.96,1.83,1.44.61.49,1.25.91,1.88,1.36.62.46,1.26.89,1.92,1.3l1.95,1.25,2,1.16c1.32.8,2.7,1.47,4.07,2.18,5.5,2.75,11.3,4.87,17.23,6.47l4.47,1.11,4.53.83c.76.13,1.51.3,2.27.39l2.29.26c1.53.16,3.05.37,4.58.5,6.12.37,12.29.43,18.38-.13l4.57-.38,4.56-.64,2.28-.32c.76-.13,1.51-.3,2.27-.45,1.51-.32,3.02-.61,4.53-.95,6-1.51,11.94-3.59,17.47-6.75.71-.36,1.37-.81,2.04-1.25.67-.45,1.34-.88,2-1.34,1.27-1.01,2.57-1.97,3.73-3.15l.89-.85.83-.93.82-.94.76-1.01c.52-.66.96-1.42,1.42-2.15.41-.83.88-1.46,1.18-2.8,1.42-6.16,1.97-12.29,2.25-18.41.26-6.11.19-12.21-.14-18.3-.34-6.09-.92-12.16-1.86-18.21l-.78-4.54c-.32-1.51-.61-3.02-.95-4.53-.4-1.51-.71-3.01-1.17-4.52-.45-1.5-.9-3.02-1.43-4.44-2.02-5.78-4.35-11.47-7.12-16.97-2.81-5.48-5.98-10.82-9.79-15.75-.93-1.25-1.94-2.44-2.94-3.63l-1.56-1.74-.47-.53c-.23-.26-.51-.53-.76-.77l-1.55-1.52c-2.09-2.15-4.08-3.72-6.14-5.52l-3.16-2.72-2.64-2.22,3.36,10.73.4,1.9c.1.6.15,1.15.23,1.73.06.57.08,1.1.12,1.65.02.28.03.54.03.82v.46c0,.98-.06,1.95-.19,2.86-.03.23-.07.44-.12.66l-.09.45-.08.5-.03.19s0,.02-.02.03l-1.49,1.67c-.54.58-1.12,1.1-1.67,1.66-.55.56-1.17.99-1.75,1.49-.58.5-1.23.84-1.83,1.28-2.5,1.56-5.21,2.19-8.11,2.04-2.91-.18-5.97-1.16-9-2.34-1.52-.59-3.04-1.27-4.56-1.95l-2.25-1.05c-.63-.31-1.26-.68-1.89-1.09-2.51-1.68-4.85-4-7.14-6.4-2.31-2.42-4.54-4.98-7.07-7.47-1.27-1.24-2.6-2.47-4.17-3.58-.77-.56-1.64-1.08-2.59-1.53-.47-.22-1.01-.41-1.53-.58-.57-.13-1.11-.29-1.74-.31-1.21-.14-2.52.12-3.64.59-.54.26-1.1.52-1.54.88l-.69.51-.58.55c-.19.19-.39.37-.57.56l-.48.59c-.33.39-.63.79-.88,1.19l-.4.61c-.25.37.07-.08-.19.28l-.84,1.1c-2.22,2.96-3.81,6.33-4.86,9.77-1.06,3.45-1.63,6.97-1.95,10.45-.62,6.98-.31,13.83-.12,20.61.21,6.77.37,13.49-.11,20.15-.49,6.65-1.64,13.22-3.84,19.47Z"></path>
    <path d="M194.34,349.71c-5.71-.29-11.49.42-17.02,2.14-5.55,1.64-10.73,4.22-14.74,8-4.01,3.79-6.61,8.88-8.02,14.47-1.44,5.59-1.92,11.56-2.2,17.57-.53,12.03-.36,24.43-2.87,36.53l-.49,2.26c-.17.75-.38,1.49-.57,2.24-.36,1.5-.86,2.96-1.32,4.42-.47,1.46-1.06,2.89-1.59,4.32-.56,1.37-1.05,2.79-1.5,4.22-1.79,5.73-3.04,11.67-4,17.63.47-6.03,1.25-12.05,2.64-18,.35-1.49.75-2.97,1.23-4.44.42-1.45.9-2.86,1.26-4.31.35-1.45.74-2.89.99-4.37.14-.73.3-1.46.42-2.2l.33-2.22c1.71-11.87.93-23.93.96-36.2.04-6.14.28-12.4,1.69-18.68,1.36-6.24,4.29-12.56,9.1-17.27,4.79-4.71,10.84-7.74,16.93-9.62,6.1-1.96,12.62-2.81,19.1-2.48,6.47.42,12.9,2.06,18.7,4.94,5.82,2.82,11.03,6.72,15.53,11.2,9.02,9.01,15.32,20.1,19.95,31.54.58,1.44,1.16,2.87,1.66,4.33.53,1.45,1.06,2.9,1.52,4.37.98,2.91,1.86,5.91,2.56,8.92,1.45,6.02,2.31,12.12,2.79,18.23.92,12.19.37,24.57-2.84,36.26,2.23-11.9,1.87-24.09.24-35.97-.85-5.95-2.03-11.85-3.72-17.58-1.67-5.7-3.91-11.31-6.35-16.77-4.92-10.88-11.28-21.19-19.74-29.29-4.22-4.03-8.97-7.46-14.16-9.91-5.17-2.51-10.8-3.89-16.5-4.27Z"></path>
    <path class="cls-8" d="M152.09,384.72c.93,5.32,6.87,27.81,8.63,35.64,5.86,26.22,7.09,27.68,6.63,34.06-.17,2.48-.81,4.76-2.19,7.93.77-3.68.2-7.81.04-9.01-.31-2.64-4.33-19.3-6.65-28.98-4.57-19.12-7.44-32.76-7.98-38.66-.45-4.99-.85-12.97,2.62-21.48-.2.72-.87,2.93-1.28,6.15h-.02c-1.57,7.17.18,14.35.18,14.35Z"></path>
    <path d="M162.77,429.54c1.24,5.33,2.63,10.66,3.82,15.95.27,1.32.52,2.64.65,3.94.13,1.3.11,2.61.03,3.95-.15,2.6-1,5.11-2.06,7.59l-.07.25c.01-.17.1-.36.23-.48l-.17.25c-1.7,3.92-3.74,7.76-5.69,11.61-1.96,3.86-3.91,7.71-5.86,11.55-.64,1.29-.95,2.38-.7,2.51s.97-.75,1.65-2.02c2.06-3.79,4.11-7.58,6.17-11.38,2.05-3.81,4.16-7.59,5.99-11.6l-.17.25c.13-.13.23-.35.25-.54l-.07.25c1.14-2.51,2.13-5.25,2.33-8.14.11-1.39.15-2.83.02-4.25-.12-1.42-.37-2.81-.64-4.17-1.16-5.41-2.52-10.69-3.76-16.02-1.14-4.76-2.18-9.54-3.39-14.33-1.2-4.77-2.46-9.51-3.7-14.26-1.24-4.74-2.51-9.48-3.67-14.23-.55-2.38-1.11-4.73-1.34-7.13-.24-2.39-.28-4.81-.03-7.2.15-1.4.18-2.51-.11-2.58-.26-.06-.76.99-.96,2.45-.33,2.47-.37,4.97-.18,7.45.1,1.24.25,2.48.47,3.71.25,1.22.45,2.41.72,3.63,1.05,4.81,2.22,9.57,3.39,14.34l3.53,14.29c1.16,4.74,2.18,9.55,3.33,14.32Z"></path>
  </g>
  <g id="default-3" data-name="default">
    <path class="cls-4 color-body" d="M120.61,439.7c1.14-18.56,3.92-46.03,22.5-62.52,15.9-14.11,22.11-3.87,24.32-.71s5.63,16.01,1.42,26.08c-4.21,10.07-7.75,25.3-10.38,45.73-2.91,22.66-8.17,41.04-19.89,39.45-14.69-1.98-18.92-32.76-17.98-48.04Z" style="fill:#ffffff;--backup-fill:#ffffff"></path>
    <path d="M120.2,467c1.23,4.95,2.86,9.9,5.68,14.54,1.41,2.31,3.22,4.53,5.61,6.32,2.37,1.81,5.49,2.92,8.65,2.88,1.6-.02,3.24-.38,4.71-1.04,1.48-.66,2.74-1.6,3.82-2.62,2.16-2.06,3.6-4.44,4.78-6.82,2.33-4.79,3.64-9.72,4.74-14.63,1.06-4.92,1.81-9.85,2.42-14.78.58-4.92,1.13-9.74,1.82-14.58,1.38-9.65,3.08-19.25,6.1-28.41.89-2.68,1.12-4.96.34-5.31-.76-.34-2.32,1.48-3.37,4.22-3.55,9.33-5.67,19.07-7.42,28.8-.87,4.86-1.6,9.79-2.31,14.61-.74,4.81-1.6,9.59-2.73,14.26-1.15,4.64-2.52,9.26-4.59,13.29-1.03,2-2.26,3.85-3.69,5.16-1.44,1.34-2.99,2.02-4.7,2.01-.86-.01-1.78-.14-2.62-.46-.44-.11-.83-.37-1.25-.55-.39-.26-.81-.46-1.19-.78-1.54-1.17-2.92-2.81-4.05-4.7-2.28-3.79-3.8-8.28-4.93-12.84-1.12-4.58-1.83-9.32-2.24-14.07-.2-2.38-.32-4.76-.34-7.14-.03-2.38.1-4.68.25-7.15.6-9.71,1.69-19.34,4.11-28.61,1.24-4.61,2.83-9.12,4.85-13.4.54-1.05,1.02-2.14,1.6-3.17l1.79-3.06c1.32-1.95,2.62-3.92,4.18-5.68,3.04-3.56,6.49-6.95,10.47-9.01,1.96-1.1,4.1-1.69,6.2-1.75,2.11-.06,4.19.55,6.01,1.7,2.13,1.38,3.81,2.68,4.52,2.24.36-.22.35-.95-.08-1.89-.43-.93-1.33-2.06-2.64-3.01-2.23-1.58-5.01-2.54-7.8-2.58-2.79-.05-5.54.65-7.91,1.84-4.85,2.3-8.65,5.83-12.11,9.58-1.76,1.87-3.25,3.95-4.75,6.02l-2.04,3.24c-.67,1.09-1.22,2.24-1.83,3.36-2.32,4.54-4.13,9.3-5.57,14.15-2.8,9.72-4.1,19.73-4.84,29.62-.19,2.43-.36,5.04-.35,7.58,0,2.54.11,5.07.31,7.59.4,5.04,1.14,10.06,2.35,15.02Z"></path>
  </g>
  <g id="shirt_short_red-3" data-name="shirt_short_red">
    <path class="cls-10" d="M131.5,389.5c3.9-6.5,10.09-15.87,17.5-17.5,7.41-1.63,15.84-.67,18.79,4.84,2.2,3.13,5.57,15.79,1.53,25.82,0,0-8.41,23.93-9.12,24.43-.66.47-10.69.4-21.59-2.97-5.66-1.75-12.1-6.63-14.68-9.55-3.36-3.8,4.58-20.08,7.58-25.08Z"></path>
    <g>
      <path class="cls-2" d="M140.78,424.76l-8.8-9.15h-.47s-1.03,0-1.03,0l-6.95-7.26c-.12.56-.22,1.11-.29,1.62l5.42,5.64,7.15,7.44c.94.43,1.87.8,2.79,1.08.73.23,1.45.43,2.17.63Z"></path>
      <path class="cls-2" d="M139.25,402.3h.03l21.82,22.84c.06-.16.13-.32.2-.49l-21.36-22.35h-.03l-9.82-10.28c-.08.14-.15.29-.23.44l9.4,9.84Z"></path>
      <path class="cls-2" d="M154.54,380.45h1.12s0,0,0,0h-.63s-7.65-7.96-7.65-7.96c-.83.31-1.64.7-2.43,1.18l6.51,6.77,5.63,5.85,7.18,7.46,5.93,6.17c.23-.86.42-1.73.57-2.6l-3.42-3.56h-.88s-7.16-7.47-7.16-7.47l-5.61-5.85h.85Z"></path>
      <path class="cls-2" d="M168.96,402.3l.35.36c.09-.23.16-.47.25-.7l-7.89-8.2h-1s-7.15-7.46-7.15-7.46l-5.61-5.86h.96s1.14,0,1.14,0h0s-.76,0-.76,0l-5.64-5.87c-.64.46-1.26.98-1.87,1.53l4.17,4.34,5.63,5.86,7.17,7.46,8.21,8.54h2.04Z"></path>
      <path class="cls-2" d="M126.92,408.02l6.96,7.24.33.35,9.5,9.88c1.43.33,2.81.6,4.14.83l-10.3-10.71h-.37s-.92,0-.92,0l-.33-.35-6.94-7.24-4.11-4.29c-.2.56-.39,1.12-.56,1.67l2.51,2.62h.09Z"></path>
      <path class="cls-2" d="M167.12,408.85c.29-.81.56-1.58.81-2.27l-.76-.79-3.33-3.49h.39l-8.22-8.55h-1.12s-7.14-7.46-7.14-7.46l-5.61-5.86h1.07s1.95,0,1.95,0h0s-1.49,0-1.49,0l-3.1-3.23c-.56.56-1.11,1.13-1.65,1.74l1.43,1.49,5.64,5.86,7.17,7.45,8.22,8.55h-.56l6.31,6.56Z"></path>
      <path class="cls-2" d="M145.7,402.3l-13.44-14.05c-.13.21-.25.41-.37.61l12.85,13.44h.03l17.92,18.75c.09-.24.18-.48.27-.73l-17.23-18.02h-.03Z"></path>
      <path class="cls-2" d="M169.24,380.58h-.94s1.66,1.72,1.66,1.72c-.29-1.12-.62-2.13-.95-2.99l-6.59-6.89c-.45-.17-.92-.32-1.4-.45l8.22,8.6Z"></path>
      <path class="cls-2" d="M127.2,399.49h0l-.46-.48c-.47,1.08-.92,2.19-1.33,3.29h1.41s5.49,5.73,5.49,5.73h.18s6.96,7.24,6.96,7.24h0l.33.35,10.68,11.11c1.45.2,2.79.34,3.98.43l-11.09-11.53h-.5s-.82,0-.82,0l-.33-.35-6.94-7.24-5.49-5.73h3s5.49,5.73,5.49,5.73h.28s6.96,7.24,6.96,7.24h.02l.33.35,11.2,11.65c.76.03,1.41.03,1.95.02l-24.05-25h-.03l-6.24-6.49c-.42.88-.84,1.8-1.25,2.74l.9.94h0l2.7,2.81h-.63l-2.7-2.81Z"></path>
      <path class="cls-2" d="M140.43,386.3l15.38,16h.03l9.92,10.32c.13-.36.26-.72.39-1.08l-8.85-9.24h-.03l-15.32-16-4.89-5.11c-.23.3-.46.6-.69.9l4.04,4.2Z"></path>
      <path class="cls-2" d="M134.92,386.3l15.3,16h.03l13.96,14.6c.12-.32.23-.64.35-.96l-13.05-13.64h-.03l-15.31-16-1.59-1.67c-.17.26-.35.52-.52.77l.85.89Z"></path>
      <path class="cls-2" d="M163.74,380.58h-1.01s5.39,5.61,5.39,5.61l.11.12,2.87,2.98c-.08-1.08-.2-2.11-.36-3.12l-5.36-5.59h-.97s-8.88-9.29-8.88-9.29c-.22,0-.44,0-.66,0l8.87,9.28Z"></path>
      <path class="cls-2" d="M148.93,372.02l8.11,8.43,5.62,5.85,7.18,7.47,1.22,1.27c.07-.8.11-1.59.13-2.37l-6.11-6.37-.11-.12-5.38-5.61h-.51s-8.53-8.87-8.53-8.87c-.52.09-1.04.19-1.55.3-.02,0-.04.01-.07.02Z"></path>
    </g>
    <path d="M120.72,410.26c-.11.79-.19,1.6-.19,2.54,0,.39.04,1.25.22,1.89.08.34.2.67.35.99.19.29.36.59.58.87l.39.42c.13.14.28.3.35.36l.53.51c.35.32.71.65,1.06.95.71.6,1.43,1.17,2.17,1.7,1.46,1.08,2.97,2.06,4.52,2.97,1.55.91,3.15,1.75,4.83,2.49,1.71.76,3.42,1.33,5.13,1.85,3.44,1.02,6.95,1.73,10.51,2.07,1.77.19,3.56.26,5.36.25.9,0,1.8-.03,2.72-.1l.34-.03h.17s.28-.05.28-.05l1.11-.13c.36-.06.71-.18,1.06-.27.35-.09.64-.26.96-.39.52-.56.98-1.11,1.15-1.96.2-.77.37-1.78.41-2.1l.45-2.8c.3-1.85.62-3.67,1-5.48.76-3.6,1.7-7.17,3.16-10.42.63-1.41.73-2.77.03-3.27-.68-.48-2.06.27-2.9,1.82-1.9,3.49-3.16,7.19-4.21,10.91-.52,1.86-.98,3.73-1.4,5.6l-.61,2.78c-.13.61-.13.53-.17.66-.05.09-.04.21-.15.24-.1.01-.18.01-.28.01h-.16s-.48,0-.48,0c-.78.02-1.58,0-2.38-.03-1.6-.08-3.22-.22-4.82-.46-3.21-.45-6.37-1.21-9.43-2.23-1.54-.52-3.04-1.07-4.43-1.73-1.42-.67-2.83-1.44-4.2-2.28-1.37-.84-2.71-1.74-3.98-2.7-.64-.48-1.25-.97-1.83-1.47-.29-.25-.57-.5-.84-.76l-.39-.38-.1-.1-.04-.04h0s0,.11,0-.21c0-.47.05-1.07.14-1.68.36-2.47,1.09-5.12,1.92-7.68.84-2.57,1.82-5.12,2.93-7.59,1.1-2.49,2.36-4.78,3.79-7.23,1.39-2.39,2.82-4.69,4.43-6.79,1.61-2.11,3.4-4.01,5.43-5.6,2.03-1.58,4.3-2.9,6.67-3.67,2.37-.78,4.86-.98,7.22-.43,2.36.56,4.58,1.86,6.43,3.68.27.27.56.49.85.68.27.2.55.36.82.47.54.21,1.05.23,1.39-.02.34-.25.45-.73.33-1.35-.06-.31-.17-.64-.34-.99-.19-.34-.44-.68-.73-1.02-1.98-2.28-4.65-4.19-7.72-5.16-3.08-.97-6.44-.9-9.47-.1-6.1,1.62-11.17,5.57-15,10.19-7.31,9.33-12.76,19.74-14.89,31.77Z"></path>
  </g>
  <g>
    <g>
      <path class="cls-7" d="M213.2,380.28c1.15-1.87,3.74-2.4,5.85-1.81s3.85,2.04,5.52,3.46c1.98,1.68,3.96,3.36,5.94,5.03,3.43-10.5,5.84-21.67,1.64-33.23-.31-.86-.44-2.12-1.08-2.78-.41-.42-.99-.61-1.54-.79-3.45-1.12-14.85-5.7-18.41-5.02-.64.12-1.31.32-1.77.78-.42.41-1.25,1.11-.84,1.54,6.01,6.39,8.98,15.35,7.14,23.31-1.21,5.23-3.61,4.5-3.07,9.85"></path>
      <path d="M229.34,351.68c.5.17.66.3.69.37.12.17.28.64.42,1.21.08.29.16.61.29.98l.27.81c.17.54.38,1.07.52,1.62.65,2.18,1.03,4.43,1.25,6.7.45,4.54,0,9.17-.91,13.72-.45,2.28-1.03,4.54-1.67,6.8-.22.77-.16.6-.21.79l-.05.2c0,.05-.03.03-.05.01l-.07-.05-.16-.11-.08-.06-.05-.04-.17-.14-1.37-1.12-2.75-2.24c-.92-.75-1.87-1.52-2.94-2.19-1.07-.67-2.26-1.23-3.6-1.46-1.33-.21-2.71-.08-3.96.49-.74.34-1.27.9-1.5,1.37-.24.47-.2.84-.03.94.39.2,1.11-.43,2.18-.83.92-.37,1.99-.43,2.98-.22.99.21,1.97.71,2.87,1.33.91.62,1.77,1.37,2.66,2.15l2.66,2.35,3.58,3.12.6.52.3.26c.06.09.07,0,.09-.07l.06-.19.49-1.49.84-2.6c.73-2.28,1.4-4.59,1.92-6.95,1.05-4.71,1.64-9.61,1.22-14.52-.21-2.45-.6-4.89-1.28-7.26-.14-.6-.37-1.18-.55-1.76l-.29-.88c-.06-.18-.13-.44-.21-.72-.16-.57-.29-1.27-.82-2.1-.28-.44-.73-.83-1.12-1.06-.4-.24-.77-.38-1.1-.49-3.73-1.26-7.48-2.71-11.37-3.84-1.96-.56-3.91-1.1-6.11-1.32l-.87-.03c-.3,0-.65.05-.97.08-.59.09-1.2.24-1.88.62-.17.09-.33.21-.49.33-.08.06-.16.13-.23.21l-.14.13c-.28.27-.67.66-.9,1.03-.24.38-.37.79-.35,1.23.03.44.21.78.51,1.16l.94,1.04c.22.25.42.51.63.76.43.5.8,1.04,1.19,1.57.75,1.08,1.44,2.2,2.02,3.38,1.19,2.34,2.06,4.85,2.48,7.44.46,2.58.42,5.23-.07,7.8-.24,1.28-.65,2.46-1.28,3.58-.31.56-.7,1.14-1.04,1.84-.34.69-.56,1.48-.63,2.24-.12,1.55.42,2.6.81,2.56.44-.04.63-1.14.78-2.36.09-.6.27-1.14.56-1.67.28-.53.68-1.07,1.06-1.69.78-1.24,1.34-2.66,1.66-4.06.66-2.8.8-5.72.4-8.56-.37-2.85-1.22-5.62-2.45-8.22-.6-1.3-1.32-2.55-2.11-3.75-.41-.59-.8-1.19-1.26-1.75-.22-.28-.44-.57-.67-.85l-.35-.41-.07-.08v-.02s-.05-.07,0-.1l.08-.07.13-.13.05-.04s.08-.05.13-.08c.19-.11.57-.22.96-.27.17,0,.32-.03.52-.03l.62.04c1.76.2,3.67.73,5.52,1.29,3.75,1.13,7.42,2.57,11.23,3.86Z"></path>
    </g>
    <g>
      <path class="cls-7" d="M213.98,384.16c.94-2.27-1.7-4.72-4.15-4.58s-4.49,1.88-6.29,3.56c-2.17,2.02-4.38,4.16-5.5,6.91-.21.51-.41,1.08-.87,1.38-.74.47-1.7.04-2.46-.4-8.94-5.24-16.53-9.03-25.7-16.98-7.17-6.22-12.26-11.23-12.95-15.38,2.15-4.22,14.08-12.89,15.3-9.55.76,2.09,6.52,9.61,16.67,16.56,6.93,4.75,22.8,12.95,25.7,15.79"></path>
      <path d="M155.72,362.07c1.12,2.09,2.59,3.76,4.07,5.38,1.5,1.6,3.07,3.08,4.66,4.52,3.18,2.86,6.46,5.67,9.97,8.2,3.49,2.53,7.17,4.8,10.88,6.92l5.57,3.13,2.77,1.56c.44.24.95.57,1.62.8.33.11.71.22,1.22.21.47-.01.93-.14,1.32-.4.34-.22.61-.53.82-.88.18-.3.28-.56.37-.79.17-.44.32-.78.51-1.16.38-.74.85-1.45,1.38-2.14,1.06-1.36,2.36-2.62,3.67-3.87,1.29-1.22,2.64-2.36,4.15-2.85.37-.12.75-.2,1.14-.24.35-.02.7,0,1.06.1.71.19,1.4.61,1.88,1.17.47.54.72,1.08.85,1.53.12.44.15.82.36.91.17.08.55-.17.74-.87.18-.68-.02-1.77-.71-2.59-.69-.85-1.61-1.46-2.65-1.78-.52-.16-1.09-.23-1.65-.21-.53.03-1.05.12-1.55.26-2.02.6-3.56,1.89-4.96,3.11-1.37,1.23-2.77,2.49-4.01,3.99-.62.75-1.19,1.56-1.67,2.44-.23.43-.46.93-.64,1.34-.08.2-.16.36-.22.45-.03.05-.07.09-.11.11-.05.03-.12.04-.18.04-.03,0-.17-.03-.34-.09-.34-.12-.72-.37-1.2-.66l-2.74-1.63-5.47-3.24c-3.63-2.17-7.16-4.44-10.52-6.95-3.37-2.49-6.53-5.25-9.65-8.1-1.55-1.42-3.07-2.87-4.47-4.38-1.38-1.51-2.72-3.09-3.61-4.75-.21-.36-.36-.73-.51-1.09l-.19-.54-.03-.13s0,0,0,0c0,.02,0,.02,0,.02,0,0,0,0,0,0,.05-.08.2-.3.31-.45.24-.33.52-.65.8-.98,1.16-1.29,2.52-2.49,3.93-3.6,1.41-1.11,2.9-2.14,4.44-2.97.76-.41,1.55-.78,2.26-.97.31-.1.78-.13.68-.12.02,0,.04.01.05.03.5,1.12,1.19,2.04,1.84,2.92.66.89,1.37,1.71,2.09,2.53,1.44,1.62,2.97,3.14,4.57,4.59,3.19,2.89,6.61,5.48,10.24,7.78,7.24,4.49,14.81,8.23,21.9,12.59.75.47,1.41.84,1.95,1.06.49.23.88.31,1.03.16.15-.15.02-.52-.35-1.03-.38-.46-.99-1.03-1.74-1.53-7.06-4.7-14.51-8.68-21.5-13.26-3.44-2.3-6.71-4.89-9.72-7.73-1.51-1.42-2.95-2.9-4.29-4.46-.66-.78-1.32-1.57-1.91-2.38-.59-.82-1.16-1.62-1.51-2.44-.21-.4-.42-.8-.77-1.09-.17-.14-.38-.24-.57-.35-.21-.08-.42-.16-.64-.2-1.02-.16-1.5.02-2.08.14-1.1.29-2.01.73-2.89,1.19-1.76.94-3.35,2.03-4.89,3.22-1.53,1.19-2.99,2.46-4.33,3.95-.33.38-.66.76-.98,1.19-.17.22-.29.39-.49.71-.12.18-.23.4-.35.6l-.17.3c-.02.05-.07.1-.07.15l.04.17.28,1.25.27.78c.2.5.41,1,.67,1.44Z"></path>
    </g>
    <path d="M213.79,391.36c-.23-.96-.47-1.92-.73-2.88l-.4-1.43-.21-.71-.1-.34-.03-.04v-.05s.03-.2.05-.29l.13-.66.25-1.33c.16-.89.31-1.77.44-2.66.04-.27-.24-.57-.64-.69-.41-.11-.8,0-.91.26-.34.83-.67,1.67-.99,2.51l-.47,1.26-.23.63-.12.36-.19.6.61,3.25c.2.97.41,1.94.64,2.9.86,3.67,1.98,7.29,3.28,10.84.09.26.48.39.89.29s.7-.39.67-.66c-.43-3.76-1.05-7.5-1.92-11.16Z"></path>
  </g>
  <g>
    <path class="cls-11" d="M183.26,424.74c-1.21,0-2.23-.55-3.04-1.62-1.23-1.64-1.45-4.58-.6-7.85.49-1.89,1.27-3.72,1.96-5.34.08-.19.26-.3.46-.3.05,0,.11,0,.16.03.25.08.39.34.33.59-.13.54-1.24,5.34,1.22,6.89.29.18.64.27,1.04.27.19,0,.4-.02.62-.06.6-.12,1.26-.39,1.96-.81l20.07-12.03c.08-.05.17-.07.26-.07.16,0,.31.07.41.21.15.21.12.5-.08.67l-19.39,16.75c-1.71,1.47-3.18,2.32-4.52,2.58-.29.06-.58.09-.85.09Z"></path>
    <path class="cls-6" d="M207.7,404.94h0M207.7,404.94l-19.39,16.75c-1.17,1.01-2.74,2.17-4.29,2.47-.25.05-.51.08-.76.08-.95,0-1.86-.39-2.63-1.42-1.23-1.64-1.26-4.58-.51-7.42.47-1.82,1.2-3.54,1.94-5.27-.33,1.35-1.11,5.82,1.43,7.44.37.24.81.35,1.31.35.23,0,.47-.02.72-.07.65-.13,1.36-.42,2.12-.88l20.07-12.03M207.7,403.94c-.07,0-.13,0-.2.02-.12.02-.23.07-.33.13l-20.06,12.02c-.66.39-1.26.65-1.8.75-.18.04-.36.05-.52.05-.31,0-.56-.07-.77-.2-1.75-1.11-1.45-4.52-1-6.35.13-.51-.16-1.02-.65-1.19-.1-.04-.21-.05-.32-.05-.39,0-.76.23-.92.61-.7,1.63-1.48,3.48-1.99,5.41-.89,3.42-.64,6.51.68,8.27.89,1.19,2.08,1.82,3.44,1.82.31,0,.63-.03.95-.1,1.42-.28,2.98-1.16,4.75-2.7l19.36-16.73c.23-.18.38-.46.38-.78,0-.55-.44-.99-.99-1h-.02ZM207.7,405.94h0,0Z"></path>
  </g>
  <path d="M247.62,470.89c-2.39,1.9-4.75,3.48-7.73,4.13,0,0-.04,3.32-.3,5.37,1.04.02,7.46-3.44,7.99-4.46.11-1.62.07-3.63.05-5.05Z"></path>
  <path d="M161.33,376.94c-1.87-1.62-3.99-3.03-6.33-3.98-2.33-.95-4.89-1.41-7.37-1.16-.37.03-.63.26-.61.55.03.28.31.51.65.53,4.67.11,8.86,2.56,12.35,5.57,3.5,3.07,6.51,6.8,8.99,10.82.18.3.52.43.77.3s.33-.48.18-.8c-2.03-4.42-4.89-8.56-8.63-11.83Z"></path>
  <g>
    <g>
      <path class="cls-3" d="M239.66,418.1c-.44.07-.78-.3-.98-.52-.03-.04-.08-.09-.11-.12-.12.04-.24.09-.34.14h-.02c-.11.06-.2.11-.3.13-.04.01-.08.02-.12.03-.64.1-1.04-.42-1.23-.67-.01-.01-.04-.05-.06-.07-.02,0-.03-.01-.05-.02-.13-.06-.23-.1-.39-.08-.04,0-.09.02-.14.04-.18.06-.34.11-.48.13-.61.1-.83-.27-.91-.6-.04-.17-.04-.36,0-.51,0-.02.01-.04.02-.06,0-.02.03-.06.05-.09.58-.92,1.33-1.23,1.68-1.33.08-.07.18-.13.29-.17.12-.04.22-.08.3-.1,0,0,.04-.01.05-.02.02-.15.07-.3.16-.43.02-.03.03-.06.06-.09v-.02c.14-.2.3-.44.32-.74.02-.32,0-.65,0-.81-.45-.26-1.14-1.06-1.43-1.8,0-.02-.01-.03-.02-.05-.23.01-.41,0-.55-.06-.16-.06-.31-.16-.46-.29-.09-.05-.71-.44-1.11-1.09-.19-.32-.36-.79-.53-1.54-.32-.34-1.05-1.26-1.46-2.95-.4-1.6-.13-2.76.13-3.44-.05-.03-.09-.06-.12-.09-.1-.09-.26-.3-.28-.71,0-.1,0-.2,0-.31-.25-.2-.35-.45-.4-.65-.04-.17-.09-.61.24-.99.12-.14.27-.22.46-.25.05,0,.09-.01.14-.01-.46-.25-.64-.5-.67-.88,0-.1,0-.37.15-.55,0-.03-.02-.06-.02-.09-.05-.19-.03-.38.03-.53.11-.27.34-.31.44-.32.19-.03.45-.02.68.02.05,0,.1.02.15.04.02-.09.04-.23.06-.4.03-.28.08-.7.4-.75s.49.3.58.59c.22-.12.35-.19.46-.2.15-.02.29.04.4.18.15.19.19.4.18.6.36-.02.52.3.57.44.03.09.05.18.06.27.1.07.18.17.25.3.09.19.17.5.04.93-.06.18-.15.5-.37.6.09.22.17.46.24.74.24.94.26,1.54.27,2.01,0,.28.01.51.06.78.22,1.17.37,1.55.42,1.66.28.38.62.62.84.59.07-.01.18-.06.37-.25.12-.38.16-.61.26-1.19v-.06c.04-.19.08-.41.13-.68.1-.57.3-1.4.67-2.12.44-.87,1.01-1.36,1.68-1.47.11-.02.22-.02.34-.02.92.03,1.76.42,2.43,1.14.81.87,1.35,2.17,1.59,3.85.33,2.27.27,3.13.15,3.53,0,.06.01.12.01.17,0,.21-.1.39-.23.47h-.01s-.07.04-.12.06c.12.78.31,1.52.34,1.63.03.09.05.2.05.3,0,.21-.08.39-.2.47.01.09,0,.18-.01.27-.04.16-.12.29-.23.34h0s-.12.05-.22.07c-.11.02-.23.02-.34,0,0,0-.01.01-.02.02,0,0-.03.02-.03.02-.02.02-.09.07-.2.11-.04.04-.09.07-.13.1-.06.13-.15.23-.27.25l-.1.02s-.08.02-.12.02c-.3.05-.75.06-1.22-.15-.12-.05-.23-.13-.33-.23-.06.02-.14.05-.24.07-.06.01-.13.01-.19.01,0,.02.02.04.02.05.11.24.19.39.2.42.03.05.66,1.19.83,1.77.14.48.21.63.24.68,0,0,.02,0,.03,0,.02,0,.04,0,.06.02.04.01.09.03.14.05.62.03,1.52.4,1.82.86.02.03.05.08.08.13.26.56-.03,1.07-.29,1.53-.05.09-.15.26-.17.32-.14.45-.55.71-.89.76-.15.02-.31.01-.44-.04-.13-.05-.25-.13-.36-.2-.02-.01-.06-.04-.09-.06-.17.31-.37.65-.66.7-.09.01-.17,0-.25-.04-.08-.04-.46-.17-.76-.13-.03,0-.06.01-.09.02-.01,0-.06.06-.08.1-.12.16-.31.43-.71.5h0s0,0,0,0ZM239.67,413.43c.22-.04.45.06.63.14.04.02.09.04.13.05.04-.02.11-.06.14-.07.07-.04.14-.07.22-.11-.18-.28-.44-.66-.75-1.08-.1-.11-.73-.77-1.1-1.17,0,.01,0,.03.01.04.02.08.08.32-.03.87,0,.02-.01.05-.02.07-.06.19-.11.34-.16.47-.1.28-.16.46-.21.73-.03.19-.06.34-.09.47,0,0,0,.05-.01.06.1-.01.19-.02.27-.03h.02c.09-.01.18-.02.25-.03.19-.03.25-.07.27-.12.1-.16.24-.26.41-.29Z"></path>
      <path class="cls-12" d="M233.33,394.77c.21-.03.29.3.34.54,0,.04.02.1.04.16.07-.03.16-.08.23-.12h.02c.2-.12.33-.19.41-.2.07-.01.14.01.19.08.13.16.08.34.01.65,0,.04-.02.1-.04.17.02,0,.04-.01.06-.02.1-.03.2-.07.28-.08.22-.03.31.1.36.21.05.14.04.27,0,.37.12.02.25.07.33.24.08.16.08.35,0,.57-.08.26-.16.43-.29.45-.03,0-.06,0-.08,0,0,.02-.02.04-.03.06-.02.05-.05.11-.09.16.14.25.26.57.36.95.23.89.24,1.42.26,1.9,0,.29.01.55.07.86.22,1.19.38,1.65.48,1.83.36.49.78.77,1.07.73.14-.02.31-.14.52-.35.15-.45.19-.7.3-1.32.04-.21.07-.44.13-.73.1-.54.29-1.33.63-2.02.4-.79.92-1.25,1.53-1.35.1-.02.2-.02.3-.02.86.02,1.65.39,2.27,1.05.75.81,1.25,2.02,1.48,3.6.32,2.17.27,3.1.12,3.44.02.05.04.11.03.17,0,.09-.04.16-.1.2h-.01s-.09.05-.19.07c-.04,0-.08,0-.12,0,0,.04,0,.08.02.13.13.95.39,1.92.39,1.93h0s.02.09.02.15c0,.11-.06.2-.14.21h0s-.1-.01-.14-.06l-.02-.03s-.57-.62-.89-1.91c.03.19.06.38.08.57.05.4.13.7.38.95.36.35.48.63.5.68v.02c.03.07.04.14.03.21-.01.07-.05.12-.1.14h0s-.08.04-.17.05c-.1.02-.24.02-.39-.02-.01.03-.03.06-.06.08h-.02s0,.02,0,.02c-.01.01-.08.06-.19.1-.05.05-.11.09-.17.13h-.01s-.01.01-.02.02c-.01.1-.06.17-.13.19l-.1.02s-.07.01-.11.02c-.28.04-.69.06-1.11-.14-.12-.05-.25-.15-.37-.3,0,0-.01.01-.02.02h-.02s-.12.08-.27.1-.36.02-.59-.1c.11.29.22.58.27.69.12.27.21.43.22.45.03.05.64,1.16.79,1.67.26.89.33.9.48.94.02,0,.04,0,.06.01.04.01.09.03.14.06.59.02,1.44.39,1.66.73.02.02.03.05.04.08.16.33-.05.69-.29,1.11-.08.14-.18.3-.2.39-.1.34-.44.54-.71.58-.12.02-.24,0-.34-.03-.11-.04-.22-.11-.33-.18-.09-.05-.22-.14-.27-.15-.02.04-.05.09-.09.15h0c-.15.28-.32.58-.52.61-.05,0-.09,0-.14-.02-.11-.06-.53-.2-.87-.15-.04,0-.08.02-.12.03-.07.02-.11.08-.18.18-.11.15-.26.36-.59.41h0s0,0,0,0c-.33.05-.59-.23-.78-.44-.1-.11-.21-.23-.26-.22-.16.05-.31.11-.44.17,0,0,0,0,0,0-.11.05-.2.09-.29.12-.03,0-.07.02-.1.02-.52.08-.83-.32-1.02-.56-.04-.05-.1-.13-.12-.15-.03-.01-.06-.03-.09-.04-.14-.06-.29-.13-.5-.09-.05,0-.11.02-.17.04-.17.06-.32.1-.45.12s-.52.08-.61-.32c-.02-.1-.02-.2,0-.25,0,0,0-.02,0-.03,0-.01.01-.03.02-.04.57-.9,1.32-1.17,1.6-1.25,0,0,0,0,0,0,.07-.07.16-.13.26-.17.12-.04.21-.08.29-.1h.02c.07-.03.15-.06.2-.08-.02-.13-.01-.29.1-.47.02-.03.03-.05.05-.08h0c.14-.23.34-.53.37-.93.04-.51-.01-1.01-.01-1.01,0-.01,0-.02,0-.03,0-.11-.05-.13-.07-.14-.32-.11-1.08-.91-1.37-1.65-.05-.12-.08-.21-.11-.28-.18.02-.46.04-.64-.03-.14-.05-.28-.14-.4-.26,0,0-.01,0-.02,0-.03-.02-.64-.38-1.01-.98-.17-.28-.33-.77-.5-1.52-.25-.24-1.01-1.1-1.44-2.83-.44-1.8-.01-2.96.35-3.67-.04.01-.07.02-.1.03-.17.03-.29-.04-.35-.1-.06-.05-.13-.17-.15-.4,0-.14.01-.34.06-.52-.15-.07-.39-.21-.46-.53-.03-.13-.04-.39.17-.63.09-.1.2-.16.34-.18.08-.01.16-.01.23-.02.06,0,.13,0,.18-.01.03,0,.05,0,.07-.02.2-.08.23-.22.24-.32,0-.03,0-.07,0-.1,0,0-.01,0-.02,0-1-.39-1.02-.64-1.04-.79-.02-.2.08-.32.3-.36.03,0,.07,0,.11-.01-.26-.19-.27-.26-.29-.34-.02-.08-.01-.17.01-.24.05-.12.16-.16.27-.17.17-.03.41-.02.62.02.1.02.18.06.26.12.13-.08.18-.51.2-.74.03-.26.05-.47.2-.49M238.22,414.31s.08-.01.13-.02h.02c.15-.03.28-.04.4-.05.11-.01.2-.02.28-.03.22-.04.33-.1.41-.22.07-.11.16-.17.27-.19.17-.03.36.05.53.12.08.03.16.07.21.08.04,0,.14-.06.21-.1.16-.08.35-.18.55-.23-.13-.26-.55-.91-1.04-1.58-.12-.13-1.02-1.08-1.3-1.39-.2-.23-.42-.45-.53-.56-.12.05-.25.09-.37.12.2.25.42.53.48.63.04.05.06.09.09.13.06.09.12.17.15.3.05.17,0,.48-.04.64,0,0,0,.02,0,.03-.06.19-.11.34-.15.46-.1.28-.17.48-.22.79-.03.19-.07.35-.09.48h0c-.03.16-.05.28-.06.35,0,0,0,.02.01.03.03.08.05.15.06.21M233.22,394.05c-.49.08-.56.71-.59,1.01,0,.02,0,.06-.01.09-.24-.04-.5-.04-.68,0-.12.02-.44.07-.6.47-.09.2-.11.45-.07.7-.11.2-.14.44-.12.67.03.3.12.54.27.74-.04.03-.08.07-.11.11-.43.5-.36,1.11-.31,1.35.04.19.14.49.37.75,0,.05,0,.09,0,.14.02.37.13.7.32.92-.24.75-.41,1.9-.04,3.42.41,1.65,1.09,2.61,1.49,3.06.17.73.35,1.22.56,1.56.42.68,1.03,1.08,1.2,1.19.16.14.34.25.52.32.12.05.28.07.46.08.31.69.88,1.36,1.33,1.7,0,.15,0,.33,0,.52-.01.19-.15.39-.25.55v.02s-.05.06-.07.09c-.08.13-.13.25-.17.38-.07.02-.14.05-.23.08-.12.04-.23.1-.32.18-.38.12-1.16.47-1.76,1.42-.03.05-.06.1-.07.14-.01.03-.02.06-.03.1-.07.22-.07.5,0,.76.08.31.34,1.02,1.21.88.15-.02.32-.07.51-.14.04-.01.07-.02.11-.03.1-.02.16,0,.28.06,0,0,0,0,0,0,.21.27.69.9,1.45.78.04,0,.09-.02.13-.03.11-.03.21-.07.31-.12h0s.05-.02.05-.02c.07-.03.13-.06.2-.09,0,0,0,0,0,0,.22.24.63.7,1.17.61h0s0,0,0,0h0c.48-.08.72-.41.84-.59,0,0,.01-.02.02-.03,0,0,0,0,.02,0,.24-.04.57.07.64.1.13.06.25.08.37.06.31-.05.52-.33.69-.62.1.06.2.12.32.17.16.06.35.08.53.05.37-.06.87-.34,1.06-.93.03-.06.1-.19.14-.26.14-.24.26-.46.35-.71.19-.57.05-1.02-.05-1.25-.03-.07-.07-.14-.11-.2-.4-.58-1.37-.93-1.97-.98-.03-.01-.06-.02-.09-.03-.03-.09-.08-.23-.15-.47-.16-.54-.65-1.47-.82-1.78.08.06.16.11.25.15.51.23,1.01.22,1.33.17.04,0,.08-.01.13-.02l.1-.02c.16-.03.29-.15.38-.32.03-.02.05-.04.08-.06.1-.05.17-.1.2-.12.11,0,.21,0,.32-.01s.2-.05.27-.08h0c.18-.09.31-.29.37-.55.01-.07.02-.14.03-.21.12-.15.2-.38.2-.64,0-.15-.02-.3-.07-.45-.03-.12-.17-.66-.28-1.27.19-.13.32-.41.33-.72,0-.05,0-.11,0-.16.12-.5.16-1.46-.16-3.64-.26-1.79-.83-3.17-1.7-4.1-.72-.77-1.61-1.19-2.59-1.22-.12,0-.25,0-.37.02-.74.12-1.36.66-1.84,1.6-.39.76-.59,1.63-.7,2.23-.05.27-.09.49-.12.68v.06c-.1.52-.14.75-.23,1.05-.14.13-.21.15-.22.15-.09.01-.34-.12-.59-.44-.04-.1-.17-.46-.36-1.49-.04-.23-.05-.42-.05-.69-.01-.5-.03-1.13-.29-2.13-.04-.17-.09-.34-.15-.49.15-.18.23-.43.27-.58.19-.61.04-1.07-.07-1.29-.05-.11-.13-.23-.23-.34-.02-.07-.04-.13-.06-.19-.13-.36-.35-.54-.56-.62-.04-.18-.11-.37-.25-.54-.17-.21-.39-.31-.61-.28-.09.01-.18.05-.3.11-.18-.35-.45-.54-.74-.49h0Z"></path>
    </g>
    <path class="cls-1" d="M243,399.51c-.62-.67-1.4-1.03-2.27-1.05-.74-.02-1.36.44-1.83,1.37-.35.68-.53,1.48-.63,2.02-.05.29-.09.53-.13.73-.11.62-.15.87-.3,1.32-.2.21-.37.33-.52.35-.3.05-.72-.24-1.07-.73-.1-.18-.26-.64-.48-1.83-.06-.31-.06-.56-.07-.86-.01-.47-.03-1.01-.26-1.9-.1-.39-.22-.7-.36-.95.04-.04.06-.1.09-.16,0-.02.02-.04.03-.06.02,0,.05.01.08,0,.13-.02.21-.19.29-.45.07-.22.07-.42,0-.57-.08-.16-.21-.22-.33-.24.04-.1.06-.23,0-.37-.04-.12-.14-.25-.36-.21-.09.01-.19.05-.28.08-.02,0-.04.01-.06.02.01-.06.03-.13.04-.17.07-.31.11-.49-.01-.65-.05-.06-.12-.09-.19-.08-.08.01-.21.08-.41.19h-.02c-.07.05-.16.09-.23.13-.01-.05-.03-.11-.04-.16-.06-.24-.13-.58-.34-.54-.15.02-.18.23-.2.49-.03.24-.07.67-.2.74-.07-.06-.16-.1-.26-.12-.21-.04-.45-.04-.62-.02-.11.02-.22.05-.27.17-.03.07-.03.16-.01.24.02.08.04.15.29.34-.04,0-.08,0-.11.01-.21.03-.31.15-.3.36.01.15.03.4,1.04.79,0,0,.01,0,.02,0,0,.03,0,.06,0,.1,0,.1-.05.24-.24.32-.06.02-.15.03-.25.03-.07,0-.15,0-.23.02-.15.02-.26.08-.34.18-.22.25-.2.5-.17.63.07.32.31.46.46.53-.05.18-.07.38-.06.52.01.23.09.34.15.4.07.06.18.13.35.1.03,0,.07-.01.1-.03-.36.71-.79,1.87-.35,3.67.43,1.73,1.19,2.59,1.44,2.83.17.75.32,1.24.5,1.52.37.6.98.96,1.01.98,0,0,.01,0,.02,0,.13.12.26.21.4.26.18.07.46.05.64.03.03.07.06.16.11.28.29.75,1.05,1.55,1.37,1.65.02,0,.07.02.07.14,0,.01,0,.02,0,.03,0,0,.05.51.01,1.01-.03.4-.22.7-.37.92h0s-.04.07-.05.1c-.11.18-.12.34-.1.47-.05.02-.12.04-.2.07h-.02c-.08.04-.18.07-.29.11-.1.04-.19.09-.26.17h0c-.28.08-1.04.35-1.6,1.25,0,.01-.01.03-.02.04,0,0,0,.02,0,.03-.02.06-.03.15,0,.25.1.4.49.34.61.32s.28-.06.45-.12c.06-.02.12-.04.17-.04.21-.03.36.03.5.09.03.02.07.03.09.04.02.01.08.09.12.15.2.26.54.7,1.12.54.09-.02.18-.07.29-.12,0,0,0,0,0,0,.13-.06.27-.13.44-.17.05,0,.16.11.26.22.19.21.45.49.78.44h0s0,0,0,0c.33-.06.48-.26.59-.41.07-.1.11-.15.18-.18.04-.01.07-.02.12-.03.34-.06.76.09.87.15.05.02.09.03.14.02.2-.03.37-.34.52-.6h0c.03-.07.06-.12.09-.16.05,0,.19.09.27.15.11.07.22.14.33.18.1.04.22.05.34.03.27-.04.61-.24.71-.58.02-.08.12-.24.2-.39.24-.42.45-.78.29-1.11-.01-.03-.03-.05-.04-.08-.23-.34-1.07-.71-1.66-.73-.05-.02-.09-.04-.14-.06-.02,0-.04-.01-.06-.01-.15-.04-.22-.05-.48-.94-.15-.51-.76-1.63-.79-1.67,0-.02-.1-.18-.22-.45-.05-.11-.16-.4-.27-.69.45.23.82.03.85.01h.02s.01-.02.02-.03c.12.15.25.25.37.3.42.19.84.18,1.11.14.04,0,.07-.01.11-.02l.1-.02c.07-.02.12-.09.13-.19,0,0,.02,0,.02,0h.01c.06-.04.12-.09.17-.14h0c.1-.04.17-.09.19-.1,0,0,0,0,0,0h.02s.04-.06.06-.09c.16.04.29.04.39.02.09-.01.15-.04.17-.05h0s.08-.08.1-.15c.01-.07,0-.14-.02-.21v-.02c-.03-.05-.15-.33-.51-.68-.25-.25-.33-.55-.38-.95-.02-.18-.05-.37-.08-.57.33,1.28.89,1.9.89,1.91l.02.03s.09.06.14.06h0c.08-.01.14-.1.14-.21,0-.05,0-.1-.02-.14h0s-.26-.98-.39-1.93c0-.05-.01-.09-.02-.13.04,0,.08,0,.12,0,.1-.02.16-.04.19-.06h.01c.06-.04.09-.11.1-.2,0-.06-.01-.12-.03-.17.15-.35.2-1.27-.12-3.44-.23-1.59-.73-2.8-1.48-3.6ZM238.52,412.46c.04-.12.1-.28.15-.46,0,0,0-.02,0-.03.03-.17.08-.47.04-.64-.04-.14-.09-.22-.15-.3-.02-.03-.05-.07-.09-.13-.07-.1-.29-.39-.48-.63.12-.03.25-.07.37-.12.11.11.32.34.53.56.28.31,1.18,1.26,1.3,1.39.49.67.92,1.32,1.04,1.58-.21.05-.4.15-.55.23-.07.04-.17.09-.21.1-.05,0-.13-.04-.21-.08-.17-.07-.36-.15-.53-.12-.11.02-.2.08-.27.19-.08.12-.19.18-.41.22-.08.01-.17.02-.28.03-.12.01-.25.03-.4.05h-.02s-.08.02-.13.03c0-.06-.02-.13-.06-.21,0,0,0-.02-.01-.03,0-.07.03-.19.06-.33h0c.03-.14.06-.3.09-.49.06-.31.13-.51.22-.79Z"></path>
    <g>
      <g>
        <path class="cls-5" d="M243.03,410.33l.1-.02-.11-.04c-.25-.09-.64-.31-1.1-.79-.36-.38-.67-1.08-.82-1.47l-.05-.13v.14c.11,1.56.52,2.06.83,2.2.39.18.78.17,1.04.12.03,0,.07-.01.1-.02Z"></path>
        <path class="cls-5" d="M235.25,404.5c-.05-.12-.1-.24-.15-.36l-.15-.44c-.09-.29-.17-.6-.22-.9-.12-.68-.28-1.64-.47-2.92l-.06-.38s.02.33.02.38c0,.07.02.33.03.51,0,0,0,.02,0,.03.1,1.9.29,3.2.57,3.96.02.06.14.28.24.5.22.43.29.59.32.67l.09.14c.26.44.54.76.84.98.2.15.41.26.62.31.27.07.59.08.95.02h0c.07,0,.13-.02.19-.03.22-.04.4-.09.53-.15.02-.01.04-.02.06-.03l.1-.06h-.11c-.08,0-.18-.01-.28-.02-.32-.02-.65-.07-.99-.13-.02,0-.04,0-.06-.01h-.03s-.01,0-.02-.01c-.22-.07-.42-.16-.59-.27-.14-.09-.28-.19-.41-.32-.02-.02-.04-.03-.05-.05-.51-.51-.84-1.14-.95-1.39l-.02-.05Z"></path>
        <path class="cls-5" d="M238.92,409.48l-.04-.03h-.01s-.07,0-.1,0c-.03,0-.05,0-.08,0l-.25-.02s-.07,0-.11,0h-.03s-.09-.01-.13-.02h-.02s-.1-.02-.15-.02c-.06,0-.12-.02-.17-.03-.04,0-.08-.01-.12-.02l-.09-.02h0s-.02,0-.02,0c-.04,0-.08-.02-.11-.03-.17-.04-.34-.1-.49-.15h-.02s-.07-.04-.1-.05c-.04-.02-.08-.04-.13-.07h-.02s-.09-.06-.13-.09h-.02s-.09-.07-.13-.1c-.05-.03-.09-.07-.13-.1l-.02-.02s-.08-.07-.12-.1h-.01s-.08-.08-.12-.12h0s-.08-.08-.12-.12l-.02-.02s-.08-.07-.11-.11h-.01s-.07-.09-.1-.12h-.01s-.07-.08-.1-.12l-.02-.02s-.06-.07-.09-.11h0s-.06-.08-.09-.11c-.04-.04-.06-.07-.09-.11h0s-.05-.07-.07-.1l-.08-.1.05.14c.02.07.05.13.07.2.2.53.52,1.3,1.05,1.75.09.08.18.14.28.2l.2.1c.38.15.77.2,1.15.14h0c.2-.03.39-.09.58-.18.2-.1.36-.21.46-.29l.03-.03Z"></path>
        <path class="cls-5" d="M233.65,406.47c.03.17.06.32.09.45.16.76.31,1.25.47,1.5.18.3.44.53.62.68l.1.08-.1-.17s-.03-.05-.04-.07c-.01-.03-.03-.05-.04-.08-.02-.03-.03-.06-.05-.09-.01-.03-.03-.06-.04-.09-.01-.03-.03-.06-.04-.09-.01-.03-.02-.06-.04-.09-.01-.03-.02-.06-.04-.1-.01-.03-.02-.06-.03-.1-.01-.03-.02-.07-.03-.1-.01-.03-.02-.07-.03-.1,0-.03-.02-.07-.03-.1,0-.03-.02-.07-.03-.1,0-.03-.02-.07-.02-.1,0-.03-.02-.07-.02-.1,0-.03-.02-.07-.02-.1h0s-.01-.07-.02-.1l-.1-.54-.06-.43c0-.06-.02-.11-.02-.16v-.02s0-.04,0-.04h0c-.06-.09-.12-.18-.19-.28-.01-.02-.03-.04-.04-.06l-.02-.04c-.04-.06-.08-.13-.12-.19-.02-.03-.04-.06-.06-.09l-.02-.04c-.03-.06-.07-.11-.1-.17-.02-.03-.03-.05-.05-.08l-.06-.11.04.26c.04.26.1.61.17.97Z"></path>
        <path class="cls-5" d="M233.22,399.48v.04s-.02.02-.02.03c-.04.11-.09.22-.15.3h0c-.08.21-.15.41-.21.61-.13.42-.21.85-.24,1.27-.03.32-.02.64,0,.94,0,.08.02.17.04.25.11.62.38,1.36.76,2.09,0,.01.01.03.02.04l.02.04c.16.31.34.6.52.87.07.1.14.2.2.29h0s.03.05.04.06l.06.07s.07.09.1.13c.02.02.04.05.06.07l.07.08s.05.06.08.09c.05.06.1.11.14.16l.04.04s.01.02.02.02l.14.15s.04.04.06.06h0s.09.09.13.13l.11.09-.08-.14s-.02-.04-.03-.06v-.02s-.02-.02-.03-.04c-.01-.02-.02-.05-.04-.07v-.02s-.02-.02-.02-.03c-.02-.04-.04-.08-.05-.12,0,0,0-.02-.01-.03v-.02s-.03-.05-.03-.08c0-.01,0-.03-.01-.04v-.03s-.02-.03-.03-.05v-.05s-.03-.04-.03-.06v-.05s-.02-.04-.02-.05l-.04-.2v-.09s-.02-.05-.02-.05l-.08-.1c-.58-.71-1.32-1.81-1.62-3.09-.24-.97-.02-2.16.21-2.99.09-.34.21-.68.33-1.02l.08-.2-.11.16c-.06.09-.11.17-.16.25-.05.09-.11.19-.17.32,0,.01,0,.03-.01.04Z"></path>
        <path class="cls-5" d="M235.35,407.7s.05.06.08.1c.03.04.06.07.1.11l.02.02s.06.07.1.1l.02.02s.06.07.1.1h.01s.07.08.11.12l.02.02s.07.07.11.1l.02.02s.07.06.11.09l.02.02s.08.06.12.09l.03.02s.08.06.12.09h.01s.08.06.12.09l.03.02s.08.05.12.07h.03s.08.06.12.08c.06.02.11.05.17.07,0,0,.02,0,.03,0h.04s.07.04.11.05c.01,0,.02,0,.04.01l.07.02s.06.02.09.03c.02,0,.04.01.06.01l.1.02-.56-.99v-.02s-.03,0-.03,0c-.02,0-.04.01-.06.02,0,0-.02,0-.03,0h-.02s-.03.01-.04.01h-.04s-.05,0-.08,0h-.03c-.07,0-.15,0-.22-.02h-.03s-.06-.02-.09-.03h-.04s-.06-.03-.09-.04h-.04s-.09-.04-.13-.06c0,0-.01,0-.02,0h-.01s-.09-.05-.13-.07c-.01,0-.02-.01-.03-.02l-.04-.02s-.05-.03-.08-.05c-.01,0-.02-.02-.04-.03l-.04-.03s-.05-.03-.07-.05c-.01,0-.02-.02-.03-.03l-.04-.04s-.06-.05-.06-.05c-.04-.03-.08-.06-.12-.09l-.19-.14.21.25Z"></path>
        <path class="cls-5" d="M235.24,399.02c-.17-.66-.39-1.08-.68-1.29l-.05-.03s-.01,0-.03-.02c-.05-.03-.1-.05-.15-.07h-.02s-.02-.01-.03-.02l-.08-.03.07.08s.04.05.06.08v.02s.05.05.07.07l.02.03s.02.03.04.05l.04.06s.03.04.04.06l.02.03s.01.02.02.03c.01.02.02.03.03.05l.02.04s.02.03.02.04c.01.02.02.04.03.06l.02.04s.02.03.02.04c0,.02.02.04.03.06l.02.04s.02.03.02.05c0,.02.02.04.03.06l.02.05s.02.03.02.05c0,.02.02.04.02.07l.02.06s.01.04.02.05c0,.02.02.05.02.08l.02.06s.01.04.02.06c0,.03.01.05.02.08l.02.07s0,.04.01.06c0,.03.01.06.02.09v.07s.02.04.02.06c0,.03.01.07.01.11v.07s.02.04.02.06c0,.05,0,.1.01.15v.06s0,.03,0,.05c0,.09,0,.19,0,.28,0,.08,0,.16,0,.24v.08c0,.05,0,.1.01.16,0,.02,0,.04,0,.06v.03s.01.09.02.14c0,.03,0,.05,0,.08v.02s.01.09.02.13c0,.03,0,.06.01.1,0,.04.01.09.02.13,0,.03.01.06.02.1,0,.04.02.08.02.13,0,.03.01.06.02.1,0,.04.02.08.03.12h0s.01.07.02.09c.01.04.02.08.03.12v.02s.02.04.02.07c.01.04.02.08.04.12v.04s.02.03.03.05c.02.05.03.1.05.14l.02.06c.02.07.05.13.08.19,0,.01,0,.02.01.03v.03s.05.09.07.13c0,.02.02.03.02.05v.03s.05.07.07.11l.11.2-.06-.21c-.1-.34-.2-.79-.31-1.37-.06-.34-.07-.63-.08-.93-.01-.45-.03-.96-.24-1.8Z"></path>
        <path class="cls-5" d="M237.9,407.11h0c-.37.06-.7.05-.97-.02-.22-.05-.43-.16-.64-.32-.26-.18-.5-.44-.72-.78l-.04-.07v.11c.02.12.02.21.01.29,0,.03,0,.06,0,.09,0,.08,0,.16,0,.24,0,.06,0,.11.01.14v.03s.01,0,.01,0c.14.16.86.95,1.55.86h.04c.08-.02.16-.04.25-.07.06-.02.13-.04.19-.07l.08-.04c.14-.07.29-.15.43-.25.05-.03.1-.07.16-.11h0s.04-.04.07-.06l.15-.11-.14.03c-.13.03-.26.05-.43.07Z"></path>
        <path class="cls-5" d="M239,409.44c.13.09.26.15.38.18.29.08.5.11.63.08.07-.01.12-.04.13-.08h0s0-.02,0-.02c0-.01-.01-.04-.03-.08-.02-.05-.04-.1-.05-.13l-.34-.93-.03-.06-.16.12s-.02.01-.03.02l-.04.02s-.02.01-.03.02h-.03s-.01.02-.02.02c-.01,0-.03.01-.04.02h-.02s-.01.01-.02.01c-.03,0-.06.02-.09.02-.06.01-.12.01-.18,0-.02,0-.04,0-.07-.02h-.03s-.04-.03-.06-.03c-.01,0-.02-.01-.03-.02-.02-.01-.04-.02-.06-.03l-.04-.02s-.04-.03-.07-.04l-.03-.02s-.06-.04-.08-.06h-.02s-.07-.07-.11-.09h0s-.07-.06-.1-.08l-.03-.02s-.06-.04-.08-.07l-.03-.02s-.05-.05-.08-.07l-.02-.02s-.06-.05-.09-.08c-.06-.05-.11-.1-.16-.14l-.09-.08.14.29s.03.05.04.07l.02.03s.03.06.05.08l.02.03s.04.06.06.1h0c.02.05.04.09.06.12h0s.04.08.07.12v.02s.06.07.09.11h0s.05.08.07.11h.01s.05.08.08.12h.01c.03.05.06.09.09.12h0s.06.07.08.1l.02.02s.06.06.09.09l.02.02s.06.05.09.08l.05.04s.04.03.07.05Z"></path>
        <path class="cls-5" d="M233.98,398.28l-.02.02s-.03.03-.04.05h0s0,.02,0,.02c-.02.13-.07.32-.12.53-.04.14-.08.31-.13.5v.06c-.04.15-.07.3-.09.44-.09.57-.16,1.19-.16,1.57h0s0,.03,0,.03c0,.3.04.63.07.86,0,.04.01.08.02.13h0c0,.06.01.1.02.14v.03s.02.06.02.09v.06c.08.28.16.56.26.81.06.15.12.3.19.44.01.02.02.05.03.07.12.24.25.46.39.65.03.04.06.08.09.11l.02.03c.18.21.36.36.54.46.03.02.06.03.09.04h.01s.02.01.03.01l.05.02-.03-.07c-.06-.13-.15-.3-.22-.45h0c-.06-.12-.11-.23-.15-.32h0c-.08-.13-.13-.22-.15-.27-.04-.09-.08-.18-.13-.28-.18-.37-.4-.83-.63-1.58h0c-.02-.1-.04-.17-.05-.22-.27-1.21,0-2.47.13-3.14v-.02s.02-.1.03-.14v-.09c.05-.29,0-.48-.04-.58l-.02-.03Z"></path>
        <path class="cls-5" d="M243.83,409.21c-.35-.34-.44-.77-.49-1.19-.12-.98-.4-2.18-.63-2.93h0c-.06-.16-.12-.31-.17-.43-.1-.27-.2-.52-.31-.75-.05-.09-.11-.18-.17-.27-.16-.22-.36-.44-.55-.59-.08-.06-.15-.1-.22-.14-.05-.02-.11-.05-.18-.07-.13-.04-.27-.06-.4-.06h-.11s.11.06.11.06c.26.14,1.13.72,1.44,2.12.14.61.26,1.32.37,1.94.1.57.19,1.11.28,1.5l.07.27c.03.12.07.2.1.26.45.81.93.86,1.18.82.02,0,.04,0,.05-.01h.03s-.02-.05-.02-.05c-.06-.11-.18-.27-.38-.47Z"></path>
        <path class="cls-5" d="M244.14,406.38l-.08-.09c-.06-.07-.12-.14-.18-.22-.08-.1-.16-.19-.23-.29-.1-.13-.19-.24-.27-.35,0,0,0,0-.01-.01-.19-.25-.28-.63-.39-1.08-.22-.89-.48-1.99-1.62-2.53-.26-.12-.51-.16-.77-.12-.61.1-1.13.66-1.52,1.13l-.02.02c-.07.08-.14.17-.21.26-.07.09-.13.17-.2.25l-.13.17h0s-.01.02-.02.03c0,0,0,0,0,.01l-.11.14h0s-.09.11-.09.11c-.02.02-.03.04-.05.06h0c-.08.1-.14.18-.2.24l-.19.19c-.17.15-.32.23-.46.25-.38.06-.86-.25-1.28-.84-.5-.69-.84-1.65-.96-2.71-.03-.26-.05-.52-.05-.77,0-.09,0-.17,0-.26,0-.02,0-.03,0-.05v-.05s-.01-.1-.02-.15c0-.02,0-.04,0-.06v-.05s-.02-.08-.02-.12c0-.02,0-.04-.01-.07v-.03s-.02-.08-.03-.12c0-.02-.01-.05-.02-.07v-.02s-.02-.07-.03-.11c0-.03-.01-.05-.02-.08-.01-.04-.02-.07-.03-.11,0-.03-.02-.05-.03-.08-.01-.03-.02-.06-.03-.09,0-.02-.02-.05-.03-.07-.01-.03-.02-.06-.04-.09,0-.02-.02-.05-.03-.07-.01-.03-.03-.05-.04-.09-.01-.02-.02-.04-.03-.06-.01-.03-.03-.05-.04-.07h0s-.02-.04-.03-.06c-.01-.02-.03-.05-.04-.07l-.03-.05s-.02-.03-.03-.05l-.04-.06s-.03-.04-.04-.05l-.03-.05s-.02-.03-.03-.04l-.07-.09.12.41s.02.09.04.13c.01.05.02.09.04.14v.04s.03.08.04.12v.04s.03.1.04.15c.01.07.03.13.04.19v.02c.01.06.02.11.03.16v.05s.03.09.03.14v.05c.02.06.03.13.04.19.03.24.06.47.08.7.03.26.05.51.1.79.08.49.22,1.21.68,2.4.2.51.45.88.74,1.12.37.24.72.33,1.06.27h.01s.02,0,.02,0c.05-.01.09-.02.14-.04h.02s.05-.02.08-.03l.06-.02c.17-.07.36-.2.46-.27.03-.02.05-.04.07-.06,0,0,.02-.02.03-.02l.02-.02c.13-.15.52-.55.63-.67.35-.37,1.16-.91,1.28-.97.11-.06.27-.09.31-.09h0c.08-.01.48-.06.83.12.06.02.14.07.23.14.21.15.4.36.58.63.07.09.12.18.17.27,0,0,0,0,0,.01.06.1.11.23.16.36.02.06.05.12.07.18.04.08.08.19.12.3.04.11.09.23.13.35.12.29.23.52.35.73.12.21.25.39.37.53.18.19.36.31.55.36.09.02.18.03.27.01.01,0,.02,0,.03,0h.05s-.09-.11-.09-.11c-.04-.05-.1-.11-.16-.18Z"></path>
        <path class="cls-5" d="M243.43,405.39h0c.03.05.07.1.1.14l.07.09c.04.05.08.1.12.16l.07.09s.07.08.1.12l.14.17v-.06c0-.26-.04-.65-.12-1.19-.28-1.99-1.43-4.88-3-4.76-.04,0-.07,0-.1.01-.79.13-1.45.97-2.04,2.59v.03c-.06.13-.1.26-.14.36l-.05.16.1-.13s.07-.09.1-.13c.07-.09.14-.18.21-.27.49-.73,1.22-1.62,1.97-1.74.2-.03.39,0,.57.08.83.38,1.67,2.3,1.87,4.27h0Z"></path>
        <path class="cls-5" d="M235.4,404.68l.09.16c.15.28.41.68.76,1.02.02.02.03.03.05.05.13.12.26.22.4.31.17.11.36.19.58.26h.05s.04.02.06.02c.3.05.58.09.86.12.17.02.32.02.45.03.34.02.5.02.62.18.05.07.12.32.28.92l.07.26c.02.08.04.15.06.23v.04s.13.32.13.32c.09.31.3.82.3.82h0c.05.08.11.15.17.21.31.33.61.36.8.33.03,0,.06-.01.08-.02h.05s-.05-.06-.05-.06c-.43-.37-.84-1.22-1.02-2.16-.08-.4-.14-.66-.21-.87-.14-.43-.3-.6-.61-.66-.18-.04-.4-.04-.69-.04h-.14c-.11,0-.21,0-.32-.02-.02,0-.04,0-.05,0h-.05c-.07-.01-.14-.02-.21-.04-.03,0-.05-.01-.08-.02h-.06c-.05-.02-.11-.04-.16-.05-.03,0-.06-.02-.08-.02h-.03c-.06-.03-.11-.04-.16-.06-.03-.01-.06-.02-.09-.03h-.02c-.05-.03-.1-.05-.15-.07-.03-.01-.07-.03-.1-.04h0s-.09-.05-.14-.07c-.03-.02-.07-.03-.1-.05-.04-.02-.09-.05-.13-.07-.03-.02-.06-.04-.09-.06-.04-.03-.08-.05-.12-.08-.03-.02-.06-.04-.09-.06-.04-.03-.08-.05-.11-.08h-.02s-.04-.04-.06-.06c-.04-.03-.07-.05-.11-.08l-.02-.02s-.03-.03-.05-.04c-.03-.03-.07-.06-.1-.08l-.06-.05s-.06-.06-.09-.09l-.04-.04s-.07-.06-.1-.09l-.14-.14Z"></path>
        <path class="cls-5" d="M238.24,404.56h0s-.04.03-.07.06c-.17.14-.37.25-.58.32-.02,0-.03.01-.05.02h-.03s-.07.03-.11.04c-.02,0-.03,0-.04,0-.22.04-.44.01-.67-.07l-.18-.06.16.12c.29.22.56.34.8.37.04,0,.07,0,.1,0,.04,0,.08,0,.12,0h0s.01,0,.01,0c.22-.01.49-.05.77-.09.7-.1,1.49-.2,1.8.03.21.17.38.73.57,1.39.23.77.49,1.65.86,1.99.11.1.25.14.42.13.03,0,.05,0,.08,0,.08-.01.17-.04.26-.08h.02s.02-.02.04-.02h0s.09-.05.13-.07l.06-.04c-.06,0-.1-.01-.18,0h-.07c-.1.02-.19,0-.27-.04-.07-.03-.13-.08-.19-.14-.03-.03-.06-.07-.09-.11-.06-.09-.11-.18-.16-.27-.05-.09-.09-.17-.14-.23-.14-.2-.3-.84-.47-1.52-.11-.46-.23-.93-.33-1.23-.17-.48-.51-.66-1.08-.57-.15.02-.32.07-.52.13-.19.06-.63,0-.85-.03-.06,0-.15-.02-.15-.02h0Z"></path>
        <path class="cls-5" d="M244.03,407.17c-.02-.16-.03-.28-.04-.38v-.03s-.02,0-.02,0c-.03,0-.05-.02-.08-.03h-.01s0,0-.01,0c-.05-.02-.09-.05-.14-.08,0,0-.01-.01-.02-.02h-.01s-.06-.06-.1-.09c-.01,0-.02-.02-.03-.03l-.06-.05v.07c.16,1.25.58,2.02.82,2.37l.07.1-.03-.13c-.08-.34-.24-1.02-.33-1.7Z"></path>
      </g>
      <g>
        <g>
          <path class="cls-5" d="M233.65,406.83l-.16-.87c-.03-.16-.05-.31-.07-.44v-.03c-.02-.08-.03-.16-.04-.23l-.04-.2h0s-.03-.06-.04-.09l-.05-.1s-.04-.09-.07-.13c-.02-.05-.05-.11-.07-.16l-.04-.1s-.02-.04-.03-.06c-.03-.08-.06-.15-.09-.22l-.02-.04s-.01-.03-.02-.05c-.03-.08-.06-.17-.09-.25v-.03s-.02-.02-.02-.03c-.03-.08-.05-.16-.08-.24v-.03s-.02-.02-.02-.03c-.02-.07-.04-.14-.05-.21v-.04s-.02-.03-.02-.04c-.01-.06-.02-.12-.04-.17v-.06s-.02-.03-.02-.05c-.02-.09-.03-.18-.04-.26,0-.08-.01-.17-.02-.26v-.04c0-.08,0-.16,0-.25v-.04c0-.09,0-.16,0-.24v-.03c0-.08.01-.16.02-.23,0-.08.02-.15.03-.24v-.04c.02-.07.03-.14.04-.21v-.04s.02-.05.02-.07l.05-.22-.09.19c-.69,1.53-.42,2.6-.26,3.25.37,1.52,1.02,2.32,1.28,2.59l.05.05Z"></path>
          <path class="cls-5" d="M233.02,396.43c.03.07.04.09.07.09h0s.07-.05.11-.08c.03-.03.08-.08.13-.11h.01s.03-.02.06-.03c.02,0,.04-.01.07-.01.04,0,.1,0,.16,0,.01,0,.02,0,.03,0h0s.03.02.06.03c0,0,.01,0,.02.01h0c.06.04.12.1.17.16.03.03.06.07.08.1l.02.02s.02.03.03.04c.01.02.02.04.03.06.03.05.05.1.07.15.03.08.05.15.06.21,0,.01,0,.03,0,.06.02.1.02.21.02.31v.04s.02,0,.02,0c0,0,0,0,.01,0v-.02s0,.03,0,.03c0,0,0,0,0,0,.01,0,.03.01.05.02h.02c.05.02.1.05.14.07h.02s0-.01,0-.01c.03-.06.08-.14.15-.17.13-.05.19.12.26.28l.02.05.02-.04s.02-.05.03-.06c.02-.05.05-.12.09-.17.02-.03.04-.04.06-.04.03,0,.05.01.07.03.02.01.02.01.03.02h0s0,0,0,0c.03-.01.08-.12.13-.29.04-.12.04-.21.02-.26-.04-.08-.16-.09-.31-.09-.08,0-.15,0-.19-.03-.03-.02-.04-.04-.05-.07-.01-.07.04-.13.1-.21.1-.13.13-.19.11-.24l-.02-.06v.04s-.05,0-.09,0c-.08.01-.18.05-.26.08-.1.03-.18.06-.24.07-.04,0-.1,0-.13-.03-.07-.08-.02-.29.05-.63.01-.06.04-.16.05-.23v-.06s-.03.01-.03.01c-.08.03-.23.11-.32.16-.16.09-.34.18-.4.18-.09,0-.14-.22-.19-.44-.02-.1-.04-.17-.05-.22l-.03-.1v.1c-.02.05-.03.12-.03.17h0c-.04.34-.1.88-.35.99h-.03s.02.05.02.05c.01.02.02.04.03.06Z"></path>
          <path class="cls-5" d="M239.53,407.78c-.13-.48-.22-.82-.26-.88-.01-.02-.02-.03-.04-.04h-.01s-.02-.02-.03-.03c0,0-.01,0-.02,0-.01,0-.02-.01-.03-.01,0,0-.01,0-.02,0-.01,0-.02,0-.04-.01h-.02s-.04-.01-.05-.01h-.01s-.05,0-.08-.01h-.07s0,0,0,0c-.01.02-.04.06-.09.1l-.04.04s-.02.02-.06.05l-.32.26,1.32,1.04-.13-.48Z"></path>
          <path class="cls-5" d="M237.01,416.38c.16.21.31.41.6.36.02,0,.05,0,.07-.02.06-.02.15-.06.24-.1.14-.07.3-.14.49-.2.01,0,.03,0,.04,0,.25-.04.46.18.63.38.17.19.29.3.41.28h0c.19-.03.26-.13.35-.25.08-.12.19-.26.37-.33.05-.02.11-.03.17-.04.45-.07.92.11,1.01.14h.01s0,0,0,0c.07-.08.17-.26.22-.35v-.02c.06-.09.1-.16.14-.22.06-.08.13-.13.22-.15.17-.03.35.09.54.21.09.06.18.12.26.15.04.01.09.02.16,0,.21-.03.36-.18.38-.24.05-.16.14-.33.26-.52.05-.09.13-.22.18-.34l.02-.03-.03-.02c-.22-.14-.77-.41-1.26-.38-.09,0-.2-.02-.34-.08h0s0,0,0,0c-.05.05-.06.12-.07.2v.03s.02,0,.02,0c.18.08.32.11.44.11.35-.02.75.14.9.21l.05.02-.05.08c-.11.2-.21.36-.27.53h0c-.05.06-.14.13-.26.15-.04,0-.07,0-.08,0-.06-.02-.15-.08-.22-.13-.21-.13-.42-.27-.65-.23-.13.02-.24.09-.32.21-.05.06-.09.14-.14.24-.06.1-.11.19-.14.24v.02s-.03,0-.03,0c-.16-.06-.58-.18-.97-.11-.07.01-.13.03-.19.05-.23.08-.36.26-.45.38-.09.12-.12.17-.25.19-.05,0-.12-.07-.26-.22-.19-.21-.45-.49-.78-.44-.02,0-.04,0-.05.01-.2.05-.36.13-.51.2-.09.04-.17.08-.22.09-.23.07-.31-.03-.5-.27-.06-.08-.12-.15-.19-.22l-.02-.02v.04c-.02.06-.03.11-.04.14v.07s0,.01,0,.01c.04.05.09.1.13.16Z"></path>
          <path class="cls-5" d="M235.51,409.56c.14.05.38.04.55.02h.06s-.05-.06-.05-.06c0,0-.02-.01-.02-.02-.01-.01-.03-.03-.04-.04l-.02-.02s-.03-.04-.05-.06c-.01-.01-.02-.03-.03-.04l-.02-.02s-.03-.04-.05-.06c-.01-.02-.02-.03-.04-.05v-.02s-.04-.04-.06-.07c-.01-.01-.02-.03-.03-.04l-.02-.04s-.03-.04-.04-.06c0-.01-.02-.03-.03-.05l-.02-.03s-.02-.04-.04-.06c0-.02-.02-.03-.03-.05l-.02-.03s-.02-.04-.03-.06c0-.02-.02-.03-.03-.05l-.02-.03s-.02-.04-.03-.06l-.05-.1s-.02-.03-.02-.05c0-.02-.02-.03-.02-.06l-.16-.37s-.03-.07-.04-.11v-.02c-.06-.14-.1-.26-.14-.37l-.09-.24h0s-.08-.09-.13-.13l-.04-.04c-.06-.07-.13-.14-.19-.21-.01-.02-.03-.03-.04-.05l-.02-.03c-.04-.05-.09-.1-.13-.16-.01-.02-.03-.04-.04-.06l-.05-.06-.05-.05v.09c.02.08.04.17.05.28.19,1.26.48,2.08.89,2.5.12.12.25.21.38.27Z"></path>
          <path class="cls-5" d="M241.18,409.77l-.02-.09c-.07-.33-.74-3.26-1.01-3.71-.38-.64-1.39-.58-2.28-.52-.05,0-.1,0-.15,0h0s0,0,0,0c0,0,0,0,0,0h0s-.09,0-.12,0c-.04,0-.07,0-.1,0,0,0-.01,0-.02,0h-.02s-.1-.01-.15-.02c-.01,0-.03,0-.04,0h-.03s-.08-.02-.12-.02c-.02,0-.03,0-.05-.01h-.03s-.07-.02-.1-.03c-.02,0-.04,0-.06-.02h-.02s-.07-.02-.11-.04c-.02,0-.04-.01-.05-.02h-.01s-.08-.03-.11-.04c-.02,0-.05-.02-.07-.03-.03-.01-.07-.03-.1-.04-.02,0-.05-.02-.07-.03-.03-.01-.06-.03-.1-.05-.02-.01-.04-.02-.06-.03-.03-.02-.06-.03-.09-.05l-.06-.03s-.06-.04-.09-.06l-.03-.02s-.02-.01-.03-.02c-.03-.02-.06-.04-.09-.06h-.02s-.02-.02-.03-.03c-.04-.03-.07-.05-.11-.08l-.02-.02s-.03-.03-.05-.04l-.24-.2.22.25c.5.51,1.55,1.36,3,1.37h.14c.29,0,.51,0,.69.04.33.07.51.26.66.71.07.22.14.49.22.9,0,.05.02.1.03.15v.02s.02.05.02.08l.02.08s.01.04.02.07l.03.1s.01.05.02.07v.04s.02.04.03.05c0,.02.01.04.02.06v.04s.03.03.03.05c0,.02.01.04.02.06v.03s.03.04.03.06.01.04.02.06v.02s.03.05.04.07c0,.02.02.04.03.06v.02s.03.04.03.06c.01.02.02.04.03.07s.02.04.03.07c.01.02.02.04.03.06.01.02.02.04.03.06.01.02.02.04.03.06.01.02.02.04.04.06.01.02.02.04.04.06.01.02.02.04.04.05.01.02.02.04.04.05.01.02.02.03.04.05s.02.03.04.05c.01.02.02.03.04.04.01.01.03.03.04.04h0s.02,0,.02,0v.02s.04.06.04.06Z"></path>
          <path class="cls-5" d="M234.62,399.62c0-.06-.02-.13-.03-.19v-.07s-.02-.08-.03-.11v-.08s-.03-.07-.03-.1l-.02-.08s-.01-.06-.02-.09l-.02-.07s-.02-.07-.02-.11c0-.04-.02-.07-.02-.1l-.14-.53s-.02-.07-.03-.1l-.07-.22-.02.08s0,.04-.01.06c0,.03-.01.05-.02.06,0,.02,0,.03-.01.04,0,.02-.02.04-.02.06v.02s-.02.02-.03.03l-.06.1v.02c.05.08.11.21.12.41v.15s.01.02.01.02c.08.58.38,2.59.63,4,.08.46.2.89.36,1.3h0s.04.07.07.1l.02.03s.04.05.06.07c0,0,.02.02.03.03h0s.04.05.06.07c.01.01.02.02.03.03h0s.04.05.06.07c.01.01.03.03.04.04.02.02.05.04.07.06l.05.04s.05.04.08.06l.04.03s.08.05.12.08h.01s.09.07.14.09l.04.02s.07.04.11.06l.05.03s.07.03.1.05c.02,0,.04.02.06.03.03.01.07.03.1.04.02,0,.04.02.06.02.04.01.07.03.11.04l.09.03v-.03s0,.03,0,.03l.19.06-.18-.12c-.34-.22-.58-.49-.59-.5l-.05-.06s-.07-.07-.1-.11l-.02-.03s-.05-.06-.08-.09c0,0-.01-.02-.02-.03h-.01s-.04-.07-.06-.1c-.01-.02-.02-.03-.03-.05-.02-.03-.04-.06-.05-.09-.01-.02-.02-.04-.04-.06-.02-.03-.03-.06-.05-.09h0s-.02-.05-.03-.07c-.02-.03-.03-.07-.05-.1v-.02s-.02-.03-.03-.04c-.02-.05-.04-.1-.06-.15v-.03c-.34-.85-.55-1.57-.67-2.25-.01-.06-.02-.13-.03-.19-.04-.28-.07-.54-.09-.78-.02-.22-.05-.45-.08-.69Z"></path>
          <path class="cls-5" d="M233.27,398.69v.05s.01.09.01.13v.03c0,.05,0,.11,0,.16v.12s.06-.12.06-.12c.11-.18.21-.31.29-.42l.07-.1-.08.03s0,0-.01,0c-.09.02-.18-.03-.25-.13h0s-.03-.05-.04-.08c-.03-.05-.05-.1-.08-.15l-.1-.19.05.19s.02.07.03.11v.04c.02.05.03.11.04.16v.02c.01.05.02.1.02.14Z"></path>
          <path class="cls-5" d="M234.89,406.49h0s.01.07.02.09v.02s.02.06.03.08v.03s.03.05.04.07v.03s.03.05.04.08l.02.04s.02.05.03.07c0,.01.01.03.02.04.01.02.02.05.04.07,0,.02.01.03.02.04.01.02.03.05.04.07.01.02.02.03.03.04.01.02.03.05.05.07v.02s.02.02.03.03c.02.02.04.05.05.07v.02s.02.01.03.02c.03.03.05.06.08.09h0c.06.07.12.12.2.19.12.09.25.17.39.23.12.05.23.09.34.11.15.04.29.05.41.03h.03c.06-.01.11-.03.16-.05.03-.01.06-.03.08-.04,0,0,.01,0,.02-.01h0s.03-.03.05-.04c0,0,.01,0,.02-.02.02-.02.03-.03.04-.04,0,0,.01-.02.02-.02,0-.01.02-.02.03-.03,0,0,.01-.02.02-.02,0-.01.01-.02.02-.04l.04-.08-.06.02s-.02,0-.03,0c-.02,0-.04,0-.06.01h-.02s-.02,0-.03,0h-.04s-.09.01-.14.01c0,0-.02,0-.03,0h-.02s-.06,0-.09-.01c-.01,0-.03,0-.04,0h-.02s-.05-.02-.08-.02c-.02,0-.03-.01-.05-.02h0s-.05-.02-.08-.03c-.02,0-.04-.01-.06-.02-.03-.01-.05-.02-.08-.04-.02,0-.04-.02-.06-.03-.03-.01-.05-.03-.07-.04-.02-.01-.04-.02-.05-.03-.02-.02-.05-.03-.07-.05h0s-.03-.03-.04-.03c-.02-.02-.05-.03-.07-.05l-.02-.02s-.02-.01-.02-.02c-.02-.02-.05-.04-.07-.06l-.04-.03s-.05-.04-.07-.07l-.02-.02s-.06-.05-.08-.08h0s-.04-.05-.06-.07l-.15-.16s-.1-.09-.25-.25l-.39-.43.02.12c0,.05.02.11.04.17Z"></path>
          <path class="cls-5" d="M238.26,407.28s-.09.06-.13.09l-.03.02s-.08.05-.12.08l-.07.04s-.06.03-.08.05c-.01,0-.02.01-.03.02l-.07.04.4.35s.1.08.15.13l.21.17.1.07s.04.03.06.04l.05.03s.04.02.06.04l.04.02s.04.02.06.03l.04.02s.03.02.05.02h.03s.05.03.07.03c.05,0,.11,0,.17,0,.03,0,.05-.01.08-.02h.02s.04-.02.05-.03h.02s.04-.03.05-.03h.03s.03-.03.04-.04h.02s.03-.03.04-.04h.01s.02-.02.03-.03l.04-.03-1.37-1.07h-.01Z"></path>
          <path class="cls-5" d="M237.63,407.64h-.02c-.06.03-.12.06-.18.08h0s-.01.04-.01.04c0,.01,0,.02-.01.04h0s-.01.05-.02.06c0,0,0,0,0,.02h0s-.02.04-.02.05c0,0,0,.01-.01.02h0s-.02.04-.03.05c0,0-.01.01-.02.02h0s-.03.04-.04.05c0,0-.01.01-.02.02h0s-.03.03-.05.04c0,0-.02.01-.03.02l-.04.02.59,1.06h0s.09.02.14.03c.06.01.12.02.18.03h.03s.09.02.13.02h.04s.08.01.12.02h.04s.07.01.1.01l.3.02-.09-.08s-.07-.07-.1-.1l-.02-.02s-.06-.07-.09-.1l-.02-.03s-.06-.07-.08-.11l-.02-.03s-.05-.07-.08-.1l-.02-.03s-.05-.07-.07-.1l-.02-.03s-.05-.07-.07-.11l-.02-.03s-.04-.07-.06-.11l-.02-.03s-.04-.07-.06-.11v-.02s-.05-.07-.06-.1c-.02-.04-.04-.08-.06-.11-.02-.04-.04-.08-.05-.11-.05-.1-.08-.18-.1-.23v-.02Z"></path>
          <path class="cls-5" d="M234.17,400.4c-.03-.46-.05-.87-.06-1.14v-.18s-.04.17-.04.17c-.15.74-.31,1.71-.19,2.64.02.16.06.35.12.55v.02c.12.41.31.89.55,1.41l.09.2-.05-.22c-.19-.79-.33-1.92-.41-3.43,0-.01,0-.02,0-.02Z"></path>
          <path class="cls-5" d="M233.33,401.51v-.04c0-.47.07-1.01.17-1.6,0-.04.01-.08.02-.12l.05-.29-.09.26c-.55,1.55-.5,2.59-.36,3.19.35,1.41,1.22,2.59,1.7,3.17.26.31.49.54.6.65l.04.03v-.1c-.01-.16-.01-.28,0-.36,0-.09,0-.17,0-.26,0-.07-.02-.15-.04-.24,0-.03-.02-.06-.03-.08l-.02-.03c-.04-.06-.09-.1-.15-.13-.05-.02-.1-.04-.16-.07-.1-.05-.32-.19-.56-.48l-.02-.03s-.06-.08-.09-.12c-.15-.2-.29-.42-.41-.66-.01-.02-.02-.05-.04-.07-.06-.13-.12-.27-.19-.46-.1-.27-.19-.54-.25-.83v-.03s-.02-.03-.02-.04c0-.02,0-.04-.01-.07,0-.02,0-.03,0-.05,0-.04-.02-.09-.02-.13-.03-.18-.05-.33-.07-.48-.02-.18-.03-.36-.03-.53Z"></path>
          <path class="cls-5" d="M242.39,414.28h-.05c-.25-.08-.36-.14-.67-1.17-.14-.45-.73-1.55-.76-1.59,0,0-.1-.17-.23-.48-.08-.18-.26-.66-.33-.86-.07-.19-.12-.32-.15-.42v-.04s-.03.02-.03.02c-.1.1-.35.09-.79-.03-.12-.03-.25-.09-.37-.17h-.01s0,0,0,0c-.08.07-.25.2-.48.32l-.04.02.04.04c.11.11.32.34.53.56.29.32,1.29,1.38,1.3,1.39.1.13,1.09,1.49,1.17,1.84.06.28.16.99.16,1.05v.04s-.03,0-.03,0c-.03,0-.03-.02-.05-.11,0-.02,0-.06-.01-.11v-.09s-.04.07-.04.07c-.02.05-.05.1-.08.13l-.02.03c-.06.07-.12.12-.21.16-.07.03-.15.06-.21.08-.15.05-.3.1-.41.22l-.08.09.1-.03s.02,0,.03,0c.01,0,.03,0,.05,0,.09-.01.25-.07.43-.15.14-.09.27-.15.29-.16h.03s0,.04,0,.04c0,.02,0,.04-.02.06-.04.03-.14.09-.28.15-.21.13-.36.27-.43.37l-.05.08.08-.03s.06-.01.09-.02c.13,0,.25-.02.37-.04.21-.03.7-.13.75-.34.02-.09.03-.19.04-.28.01-.2.03-.41.24-.45h.01c.15-.02.31,0,.41.02l.09.02-.08-.07c-.09-.09-.18-.14-.27-.17Z"></path>
          <path class="cls-5" d="M242.89,399.76c-.58-.62-1.31-.96-2.13-.98-.09,0-.19,0-.28.02-1.33.21-1.84,2.29-2,3.17-.05.29-.09.52-.13.73-.08.5-.13.77-.23,1.1l-.03.12.07-.08s.01-.02.02-.02c.04-.05.07-.09.11-.13.02-.03.05-.06.07-.1l.07-.09h0c.06-.22.15-.47.27-.79.05-.22.11-.48.15-.75.07-.41.66-2.11,1.5-2.33.07-.02.15-.03.22-.05.99-.16,1.67.4,2.39,1.28.38.47.73,1.56,1.06,3.24.19.97.31,1.87.35,2.21v.11s.04-.09.04-.09c.08-.24.16-.97-.17-3.17-.22-1.5-.68-2.64-1.38-3.39Z"></path>
          <path class="cls-5" d="M239.18,403.67s-.16.11-.25.16h0c-.09.1-.18.2-.26.28l-.05.05c-.08.09-.17.18-.24.26l-.05.05h.09s.02,0,.04,0c.27-.04.75-.27,1.25-.58.07-.05.16-.08.24-.09.22-.04.56.03.96.52.36.44.49,1.08.69,2.05.1.5.23,1.12.42,1.86h0s.02.04.03.06h.01s.03.05.05.07l.02.02s.02.02.04.03c0,0,0,0,.01,0h0s.02.02.03.03c0,0,0,0,.02,0h.01s.02.02.03.02c0,0,.01,0,.02,0h0s.02.01.04.01c0,0,.01,0,.02,0,.02,0,.03,0,.04,0h.04s-.01-.04-.01-.04c-.07-.28-.14-.71-.23-1.21-.23-1.35-.55-3.19-1.07-3.82-.24-.3-.54-.42-.89-.37-.44.07-.83.41-1,.55-.03.02-.05.04-.06.05Z"></path>
          <path class="cls-5" d="M238.26,415.29l-.07-.05c-.09-.06-.25-.14-.3-.14h-.01s0,.01,0,.01c-.01.03-.04.12-.09.22l-.03.06h.05c.12-.04.25-.07.38-.1h.07Z"></path>
          <path class="cls-5" d="M236.46,415.31c.06-.05.15-.08.27-.1.08-.01.18-.02.3-.03.02,0,.04,0,.07,0h0c.28-.04.38-.29.38-.3h0s.06.03.06.03h0s-.07.29-.2.41c-.05.05-.14.09-.23.14-.14.08-.26.14-.28.2-.01.03-.02.09,0,.18v.11s.04-.1.04-.1c0-.03.02-.06.02-.07.02-.04.08-.08.56-.16h.09c.06-.03.23-.41.28-.57,0-.01.01-.04.05-.04.04,0,.11.02.21.07l.07.04-.05-.09c-.03-.06-.08-.13-.11-.17-.07-.08-.06-.21-.05-.3.02-.09.04-.17.07-.22h0s0-.03,0-.03c0-.01-.01-.03-.02-.04-.02-.06-.05-.13-.05-.21,0-.08.03-.21.07-.41.03-.13.06-.29.09-.49.06-.34.14-.56.24-.84.04-.13.1-.28.15-.46.03-.14.06-.37.04-.43-.02-.06-.04-.1-.09-.17-.03-.04-.06-.08-.1-.14-.1-.16-.62-.8-.78-1h0s0,0,0,0c-.29,0-.58-.06-.86-.17l-.2-.1s-.08-.05-.12-.08l-.06-.04.03.08c.03.07.06.15.1.25.16.41.46.78.62.97.22.26.47.47.59.51.22.07.26.36.27.45v.03s.06.53.02,1.08c-.04.49-.26.85-.42,1.08-.02.03-.04.06-.06.09-.08.13-.07.19-.05.26.01.04.02.08.01.14-.02.11-.11.14-.36.22h-.01c-.08.03-.18.07-.3.11-.19.07-.27.19-.3.28l-.04.11.07-.06Z"></path>
          <path class="cls-5" d="M240.63,414.95c.11-.02.22-.08.35-.14.11-.06.26-.13.4-.17h0s0,0,0,0c.05-.07.08-.14.1-.2,0-.01,0-.02.01-.04l.02-.05h-.04s-.04.01-.05.01c-.18.03-.37.13-.52.21-.13.07-.23.12-.32.13-.03,0-.06,0-.09,0-.1-.01-.21-.06-.32-.1-.1-.04-.26-.11-.34-.1h0s0,0,0,0h0c-.18.29-.43.37-.67.4-.09.01-.18.02-.29.04h0c-.11.01-.24.03-.39.05h-.02c-.08.02-.16.03-.25.05h-.04s.03.05.03.05c.03.04.05.09.07.12h0s.03.04.03.05v.03s.03,0,.03,0c.05,0,.11-.02.16-.03h.02c.14-.03.26-.04.38-.05h.01c.12-.01.21-.02.3-.04.23-.04.5-.11.71-.39h.01s.02,0,.02,0c.06.02.14.05.19.07h.01c.12.05.23.11.35.12.04,0,.08,0,.13,0h0Z"></path>
          <path class="cls-5" d="M241.52,414.21c-.01-.07-.02-.13-.03-.2v-.03s-.03,0-.03,0c-.03,0-.06,0-.09,0-.21.03-.42.14-.57.22-.12.06-.2.1-.26.11-.01,0-.03,0-.04,0-.07,0-.17-.05-.26-.09-.15-.06-.31-.13-.44-.11-.06.01-.11.04-.15.1-.18.28-.44.3-.79.34h-.03c-.12.02-.25.03-.4.05h0c-.14.02-.28.05-.4.07h-.02s0,.04,0,.04c0,.02.01.04.02.05.03.04.07.1.1.15v.02s.02,0,.02,0c.1-.02.2-.04.31-.05h.02c.15-.03.29-.04.4-.05.1-.01.2-.02.29-.04.23-.04.47-.11.64-.38,0,0,.01-.02.05-.02.09-.01.24.05.37.1.11.05.21.09.3.1.02,0,.04,0,.07,0,.08-.01.17-.05.31-.13.15-.08.35-.18.53-.21.03,0,.06,0,.09-.01h.02s0-.03,0-.03Z"></path>
          <path class="cls-5" d="M236.96,415.44l.14-.08s-.24.05-.29.07c-.12.04-.22.08-.3.1-.03,0-.07.02-.12.04h-.01c-.12.05-.3.13-.51.27l-.12.08.13-.02c.3-.05.52.05.68.12h.01s.05.03.08.04c.04.01.07.04.11.06l.05.04-.02-.07c-.02-.08-.09-.36-.03-.48.03-.06.11-.12.19-.16Z"></path>
          <path class="cls-5" d="M242.56,408.83v-.02s-.03,0-.03,0c-.02,0-.04.01-.06.02l-.04.02s-.02,0-.03.01c-.05.02-.11.03-.16.04h-.04s.01.05.01.05c.35.94.78,1.08,1.07,1.03.06-.01.13-.03.19-.06l.05-.02-.05-.04c-.2-.13-.68-.5-.93-1.03Z"></path>
          <path class="cls-5" d="M244.06,414.96c-.15-.22-.77-.54-1.32-.61h-.07s.06.06.06.06c.07.08.12.15.12.16l.05.08h0c.41.09.79.29.93.4l.04.03-.02.04c-.05.13-.16.31-.22.42-.11.19-.21.36-.25.51-.03.09-.21.25-.43.29-.07.01-.14,0-.18-.01-.08-.03-.17-.09-.27-.15-.18-.11-.35-.22-.5-.2-.07.01-.14.06-.19.12-.03.05-.07.11-.11.18l-.03.05c-.05.1-.18.32-.25.39h-.01s-.02,0-.02,0c-.19-.09-.62-.21-1.01-.15-.06,0-.11.02-.16.04-.17.06-.27.19-.35.31-.09.12-.17.24-.38.28-.15.02-.28-.1-.46-.31-.17-.18-.36-.39-.58-.36-.01,0-.02,0-.03,0-.19.05-.34.12-.48.19-.1.05-.18.09-.25.11-.03,0-.05.01-.07.02-.32.05-.5-.17-.66-.39-.09-.12-.19-.25-.31-.3-.03-.01-.05-.02-.08-.03h0c-.16-.07-.37-.17-.67-.12-.07.01-.14.03-.22.06-.04.01-.08.03-.12.04l-.18.06.15-.15c.3-.29.6-.44.8-.51h.02s0-.04,0-.04c0-.02,0-.1.02-.2l.02-.06-.05.02c-.32.12-.92.42-1.36,1.11h0s0,.03,0,.03h0s.02.04.03.05c.03.03.12.07.33.03.12-.02.26-.06.42-.12.07-.02.13-.04.2-.05.26-.04.43.04.59.11.03.01.06.03.09.04.07.03.14.12.22.23.2.26.44.58.91.45.08-.02.17-.06.27-.11.13-.06.28-.14.46-.18,0,0,.01,0,.02,0,.15-.02.29.13.43.29.17.19.37.41.61.37h0c.27-.05.38-.2.48-.34.08-.11.15-.21.27-.25.04-.01.09-.03.14-.03.37-.06.82.08.97.16.01,0,.02,0,.04,0,.11-.02.25-.26.39-.5.05-.08.09-.15.12-.2.02-.03.05-.05.09-.06.1-.02.25.08.4.17.1.06.2.13.3.17.07.03.16.04.26.02.25-.04.5-.23.56-.42.04-.12.13-.28.23-.45.19-.33.34-.62.29-.74,0,0,0-.01-.01-.02Z"></path>
        </g>
        <path class="cls-5" d="M234.12,397.1c-.01-.06-.03-.12-.06-.18,0-.02-.01-.03-.02-.05-.01-.03-.02-.05-.03-.07,0-.02-.02-.04-.03-.06l-.04-.06c-.06-.07-.18-.2-.26-.25-.02,0-.03-.02-.05-.02,0,0-.02,0-.03,0h-.02s-.11,0-.15,0c0,0-.01,0-.02,0-.02,0-.03.01-.05.02-.04.03-.08.07-.12.1-.04.04-.08.08-.12.1-.09.03-.14-.09-.17-.15-.05-.11-.1-.23-.28-.26-.19-.03-.42-.04-.57-.02-.03,0-.06.01-.08.02h-.03s.02.03.02.03c.12.1.47.35.93.63l.24.15-.25-.03s-.65-.08-.94-.03c-.04,0-.07.01-.09.02h-.02s.02.03.02.03c.12.1.58.34.97.52h0c.14.14.31.39.5.77.06.12.13.16.21.15.04,0,.09-.03.14-.07.04-.03.07-.06.1-.09,0,0,.01-.01.05-.06.03-.03.05-.06.06-.08h0c.03-.06.06-.11.08-.16.01-.03.02-.05.03-.07,0,0,0-.02.01-.04.02-.06.05-.17.06-.3v-.1s.01-.21,0-.33h0s0-.04,0-.06ZM233.43,397.34c-.1.02-.21-.09-.23-.24s.04-.29.14-.3.21.09.23.24-.04.29-.14.3Z"></path>
        <path class="cls-5" d="M232.04,399.32s.08.02.13.01c.13-.02.25-.14.31-.2h0s.04.07.04.07h0c-.04.05-.11.13-.22.23-.14.13-.22.49-.21.69,0,.06.01.1.03.12.03.03.1.06.2.05.17-.03.38-.18.63-.45.02-.02.04-.04.05-.07.05-.07.08-.13.11-.2.01-.02.02-.05.03-.08h0s.02-.08.03-.12c0-.03.01-.06.02-.1v-.04s.01-.04.01-.06v-.06s0-.03,0-.05v-.06s0-.03,0-.05c0-.01,0-.02,0-.04v-.02s0-.04,0-.06c0-.02,0-.03,0-.05,0-.03,0-.05,0-.07,0-.02,0-.03,0-.05,0-.03,0-.05,0-.07,0-.02,0-.04,0-.06,0-.02,0-.04,0-.06,0-.02,0-.04,0-.06,0-.02,0-.04-.01-.06,0-.02,0-.04-.01-.06,0-.02,0-.04-.01-.06,0-.02,0-.04-.01-.05,0-.02-.01-.04-.02-.06,0-.02-.01-.03-.02-.05,0-.02-.01-.04-.02-.06,0-.02-.01-.03-.02-.05,0-.02-.02-.04-.03-.06,0-.02-.01-.03-.02-.04,0-.02-.02-.04-.03-.05l-.05-.1v.1s0,.09,0,.13c-.02.19-.1.43-.38.54-.06.02-.15.04-.3.04h0c-.07,0-.14,0-.2.02-.11.02-.19.06-.24.12-.04.05-.14.18-.11.32.03.13.15.23.36.31Z"></path>
      </g>
    </g>
    <path class="cls-5" d="M237.84,420.14l.94-.15.08.53-.53.09.06.37.53-.09.09.53-.53.09.14.9-.42.07-.37-2.33Z"></path>
    <path class="cls-5" d="M240.39,419.73l.94-.15.08.53-.53.09.06.37.53-.09.09.53-.53.09.14.9-.42.07-.37-2.33Z"></path>
    <path class="cls-5" d="M242.94,419.32l.94-.15.08.53-.53.09.06.37.53-.09.09.53-.53.09.14.9-.42.07-.37-2.33Z"></path>
  </g>
  <path class="cls-2" d="M128.65,415.82c1.2,1.1,2.7,2.2,4.38,3.17l3.16-11.46c-1.92-1.17-3.24-2.34-4.33-3.37l-3.21,11.66Z"></path>
  <path class="cls-7" d="M133.03,418.99c1.45.84,3.03,1.58,4.67,2.14l3.14-11.37c-1.87-.71-3.39-1.46-4.64-2.23l-3.16,11.46Z"></path>
  <path class="cls-9" d="M137.69,421.13c1.63.56,3.31.95,4.96,1.08l3.03-10.98c-1.85-.45-3.45-.94-4.85-1.47l-3.14,11.37Z"></path>
</svg>