<svg xmlns="http://www.w3.org/2000/svg" id="Layer_18" data-name="Layer 18" viewBox="0 0 380 600">
  <defs>
    <style>
      .cls-1 {
        fill: blue;
        stroke: #000;
        stroke-miterlimit: 10;
        stroke-width: .94px;
      }

      .cls-2 {
        fill: #fffffe;
        opacity: .5;
      }

      .cls-2, .cls-3, .cls-4, .cls-5 {
        stroke-width: 0px;
      }

      .cls-4 {
        fill: #6d5c5a;
      }

      .cls-5 {
        fill: #3d302d;
      }
    </style>
  </defs>
  <g>
    <path class="cls-5" d="M132.87,240.42c14.79-.52,57.92-6.78,67.85-45.13.36-1.38,1.97-1.99,3.14-1.18,8.35,5.79,39.18,24.91,61.98,19.73,0,0-35.26-43.26-107.98-33.4,0,0-48.73,3.51-69.9,41.24,0,0,22.65.07,28.4,6.23l9.86,7.65c2.32,2.14,3.49,4.98,6.65,4.87Z"></path>
    <path class="cls-3" d="M133.57,239.08c-.29.11-1.06.26-2.24.18-1.17-.08-2.77-.39-4.5-1.3-.86-.44-1.76-1.07-2.58-1.81-.81-.71-1.68-1.46-2.6-2.25-1.82-1.6-3.83-3.37-5.97-5.26h0s-.05-.05-.05-.05c-25.78-9.7-32.48-5.41-34.21-6.02-.06-.06,5.55-7.95,5.64-8.06l.26-.31.51-.63,1.03-1.26c.68-.85,1.38-1.67,2.09-2.48.64-.71,1.28-1.41,1.92-2.1.57-.57,1.14-1.14,1.7-1.7,1.12-1.14,2.32-2.16,3.45-3.2,1.19-.97,2.32-1.98,3.5-2.85,4.64-3.59,9.11-6.33,12.67-8.32,8.93-5.02,18.92-8.85,29.4-11.53,2.62-.67,5.28-1.26,7.98-1.77,1.35-.25,2.7-.49,4.08-.69,1.34-.18,2.68-.35,4.03-.53,1.36-.18,2.72-.35,4.09-.53,1.37-.16,2.74-.25,4.12-.38,2.75-.29,5.52-.37,8.29-.5,5.55-.13,11.13-.07,16.68.46,5.55.47,11.08,1.26,16.5,2.46,5.42,1.17,10.76,2.67,15.92,4.51,5.16,1.86,10.16,4.03,14.93,6.5,5.37,2.75,10.48,5.97,15.31,9.52,1.19.91,2.39,1.8,3.54,2.76.58.47,1.16.94,1.73,1.43l.85.73.91.81c1.1.96,2.09,1.93,3.07,2.91.49.49,1,.98,1.46,1.47l1.32,1.46c1.71,1.95,3.16,3.76,4.82,5.73l-4.24.82c-1.36.25-2.66.54-4.06.75l-2.14.3c-.72.09-1.41.23-2.18.23l-2.27.08-1.14.04h-.28s-.16,0-.16,0h-.32c-3.38-.09-6.67-.5-9.87-1.12-6.4-1.25-12.42-3.3-18.14-5.7-5.72-2.41-11.13-5.2-16.3-8.21-2.58-1.51-5.1-3.08-7.55-4.71l-.46-.31-.1-.07h0s-.02-.02-.02-.02l-.08-.07c-.06-.05-.12-.12-.2-.14-.19-.05-.28.12-.33.28l-.04.12-.02.06-.09.3c-.15.51-.32,1.02-.52,1.52-.39,1-.75,2-1.16,2.98-.44.97-.89,1.93-1.33,2.89-.48.94-1,1.86-1.49,2.79-2.09,3.65-4.58,6.99-7.37,9.95-5.57,5.93-12.21,10.25-18.92,13.3-6.73,3.06-13.55,4.92-20.09,6.08-6.55,1.15-12.84,1.6-18.75,1.55,5.33-1.02,11.78-2.44,18.46-4.59,6.68-2.13,13.57-5.02,19.61-8.71,6.04-3.68,11.2-8.1,14.83-12.58,3.73-4.41,5.98-8.76,7.52-11.76.29-.59.58-1.18.87-1.77.25-.6.5-1.2.74-1.78.23-.59.51-1.15.69-1.72.13-.38.25-.76.37-1.13.17-.55.34-1.08.51-1.6.22-.72.54-1.35.9-1.88.36-.49.78-.94,1.3-1.31,1.04-.75,2.42-1.11,3.65-.98.31.04.6.08.89.18l.9.37c.6.18,1.2.69,1.79,1.08l2.44,1.69c2.52,1.74,5.11,3.38,7.71,4.95,5.21,3.11,10.54,5.87,15.95,8.15,5.41,2.28,10.91,4.07,16.43,5.11.69.13,1.38.26,2.07.35.69.1,1.38.21,2.07.27.69.06,1.37.16,2.06.18l1.03.06.51.03h.31c1.52.06,3.04-.04,4.62-.35-.81-1-1.75-1.97-2.74-2.93-.33-.32-1.43-1.32-2.3-2.06-.9-.78-1.83-1.54-2.75-2.29-3.73-2.96-7.62-5.64-11.62-8.02-8.01-4.75-16.41-8.41-24.91-10.97-4.23-1.34-8.51-2.3-12.75-3.16-4.26-.76-8.49-1.4-12.7-1.73-8.41-.73-16.66-.65-24.65.04-1,.09-2,.15-2.99.26-.99.12-1.97.25-2.96.37-.98.12-1.96.24-2.94.36l-1.5.18-1.44.2c-3.83.58-7.61,1.34-11.29,2.25-7.37,1.81-14.4,4.16-20.97,7.03-3.29,1.44-6.46,3-9.5,4.68-3.03,1.71-5.93,3.54-8.68,5.5-2.76,1.95-5.31,4.09-7.73,6.29-.59.57-1.18,1.13-1.77,1.69-.3.27-.57.58-.85.87l-.48.5c-.28.28-.55.57-.82.88l-.41.46-.21.23-.1.12s-.09.08-.01.09c.12.05-5.37,8-5.26,8.04.54.21,8.78-3.68,29.46,6.01l-.05-.04c2.22,2.19,4.17,4.11,5.86,5.78.84.84,1.62,1.62,2.35,2.34.7.72,1.4,1.28,2.11,1.73,1.41.91,2.74,1.36,3.81,1.62,1.08.26,1.92.3,2.51.33Z"></path>
  </g>
  <path class="cls-3" d="M140.91,182.13c.28-.66,6.68-1.29,9.15-1.69,4.36-.82,9.46-.98,14.07-.64,8.05.51,15.94,3.13,19.97,6.98-1.49,0-3.22-.03-4.82-.18-1.6-.14-3.03-.35-3.71-.72-5.59-2.85-11.3-3.55-16.17-3.65-4.92-.13-9.17.48-12.92.43-1.77.1-4.93-.39-5.56-.52Z"></path>
  <path class="cls-4" d="M176.31,212.82c.05.32-.47,1.7-1.85,3.33-1.37,1.63-3.57,3.44-6.19,4.89-1.31.73-2.71,1.39-4.13,1.97l-1.07.41-.55.2c-.4.14-.91.13-1.33-.07-.84-.37-1.31-1.33-1.05-2.24.06-.22.17-.42.28-.58l.1-.15.19-.3c.98-1.55,1.8-2.82,2.01-3.44.04-.14.07-.27.09-.39,0-.06.02-.12.02-.19-.06-.02-.22.11-.32.16-.45.28-.86.51-1.25.7-.77.4-1.35.64-2.01.89l-.22.09-.63.16-1.3.33c-.87.23-1.74.39-2.61.58-1.75.36-3.51.67-5.28.93-3.54.53-7.1.9-10.64,1.16l-1.33.09-1.03.06-1.24.05c-1.6,0-3.49.22-4.43-.3l-.43-.13c-.13-.05-.32-.08-.37-.15l-.46-.4c-.17-.14-.29-.23-.45-.5-.16-.25-.29-.58-.34-.75-.08-.33-.16-.69-.13-1.18.03-.48.15-1.08.58-1.74l.06-.09c1.15-1.59,2.29-3.17,3.43-4.76l.81-1.13s0-.02,0-.02c-.01-.01-.03,0-.02,0h0s.19-.01-.48,0c-1.46.03-2.91.07-4.35.1-1.82.04-3.63.08-5.42.12-.89.02-1.77.04-2.66.05l-1.31.03c-.19,0-.39-.01-.55-.04l-.42-.09c-.91-.32-1.25-.75-1.53-1.07-.28-.34-.4-.61-.54-.85l-.05-.09s-.05-.11-.07-.25c-.01-.17,0-.28,0-.43.02-.27.08-.53.18-.8.1-.27.21-.53.42-.81.15-.27.44-.56.73-.84,1.78-1.53,4.89-3.15,8.26-4.44.84-.32,1.68-.63,2.52-.91.42-.15.83-.29,1.25-.42l.57-.17.37-.1c.5-.13,1-.26,1.51-.38l.77-.17.1-.02h.01s0,0,0,0h0c-.09-.38.83,3.28.44,1.73v.02s.02.03.02.03c.02.03,0,0-.02,0-.02.03.04-.08,0,.05l-.15,1.74c-3.09-.41-5.84-.82-8.41-1.23l-4.04-.65,3.36-1.91c2.04-1.16,3.74-2.08,5.36-2.92-1.08,1.46-2.51,3.1-4.11,4.78l-.4-1.53c2.76-.4,5.75-.69,8.57-.85h-.17c.66-.05,1.61.35,2.08,1.03.47.66.62,1.42.41,2.22-.18.81-1,1.57-1.68,1.76l-.16.05h-.02s-.04.03-.04.03l-.08.04c-.22.09-.44.19-.66.28-.45.2-.89.39-1.32.58l-.16.07c-.06.03-.11.05-.1.05v.04s-.02.05-.02.07c0,.04.01.07.03.09.08.09.21.05-.07.05-.17,0-.38.02-.61.06-.32.05-.7.15-1.11.29-.21.07-.42.15-.64.25-.13.04-.19.14-.2.13-.02.02-.04.04-.05.05-.1.14.1.25.51.35.41.1,1.03.17,1.79.23l.29.02h.15s.08.02.08.02h.16c.43,0,.87.01,1.3.02,1.24,0,2.46,0,3.68,0,.83.01,1.46.21,1.97.38.26.1.48.14.72.3.24.17.46.51.52.84.08.35-.04.58-.12.82-.09.25-.19.52-.32.81-.12.28-.28.59-.47.91-.21.32-.47.64-.7.96-1.29,1.71-2.56,3.38-3.8,5.02-.24.32-.48.64-.72.96-.1.17-.29.3-.3.5,0,.1.06.19.15.24.09.04.19.02.29.03.78.01,1.56-.01,2.32-.04.55-.03,2.05-.1,3.19-.18,1.2-.08,2.39-.18,3.56-.29,4.69-.46,9.16-1.07,13.33-1.99,1.08-.26,1.85-.39,3.61-.93.78-.24,1.51-.42,2.32-.7.83-.3,1.65-.59,2.46-.88.98-.41,1.24-.3,1.72-.34l.66-.03h.3s.18-.03.18-.03c.24,0,.47-.09.69.01.07.34-.01.71-.02,1.08.15.65-.88,1.94-1.51,3.01-.7,1.1-1.39,2.19-2.08,3.26-.34.53-.69,1.06-1.03,1.59l-.51.78-.25.39-.06.1-.62-.43h-.02s-.04-.04-.07-.04c-.04,0,.05,0,.05-.02,0,0-.05.09-.04.05,0-.02,0-.03,0-.06,0-.02,0-.04-.01-.05h0c-.42-1.33-.11-.38-.2-.67h.01s.04-.01.04-.01l.32-.09.63-.19c2.44-.79,5.77-1.98,8.44-3.59,1.34-.8,2.51-1.68,3.39-2.49.87-.81,1.45-1.54,1.76-1.89Z"></path>
  <g>
    <g>
      <path class="cls-1 color-hair" d="M134.73,241.95c14.79-.52,57.92-6.78,67.85-45.13.36-1.38,1.97-1.99,3.14-1.18,8.35,5.79,39.18,24.91,61.98,19.73,0,0-35.26-43.26-107.98-33.4,0,0-48.73,3.51-69.9,41.24,0,0,22.65.07,28.4,6.23l9.86,7.65c2.32,2.14,3.49,4.98,6.65,4.87Z"></path>
      <path class="cls-3" d="M135.43,240.62c-.29.11-1.06.26-2.24.18-1.17-.08-2.77-.39-4.5-1.3-.86-.44-1.76-1.07-2.58-1.81-.81-.71-1.68-1.46-2.6-2.25-1.82-1.6-3.83-3.37-5.97-5.26h0s-.05-.05-.05-.05c-25.78-9.7-32.48-5.41-34.21-6.02-.06-.06,5.55-7.95,5.64-8.06l.26-.31.51-.63,1.03-1.26c.68-.85,1.38-1.67,2.09-2.48.64-.71,1.28-1.41,1.92-2.1.57-.57,1.14-1.14,1.7-1.7,1.12-1.14,2.32-2.16,3.45-3.2,1.19-.97,2.32-1.98,3.5-2.85,4.64-3.59,9.11-6.33,12.67-8.32,8.93-5.02,18.92-8.85,29.4-11.53,2.62-.67,5.28-1.26,7.98-1.77,1.35-.25,2.7-.49,4.08-.69,1.34-.18,2.68-.35,4.03-.53,1.36-.18,2.72-.35,4.09-.53,1.37-.16,2.74-.25,4.12-.38,2.75-.29,5.52-.37,8.29-.5,5.55-.13,11.13-.07,16.68.46,5.55.47,11.08,1.26,16.5,2.46,5.42,1.17,10.76,2.67,15.92,4.51,5.16,1.86,10.16,4.03,14.93,6.5,5.37,2.75,10.48,5.97,15.31,9.52,1.19.91,2.39,1.8,3.54,2.76.58.47,1.16.94,1.73,1.43l.85.73.91.81c1.1.96,2.09,1.93,3.07,2.91.49.49,1,.98,1.46,1.47l1.32,1.46c1.71,1.95,3.16,3.76,4.82,5.73l-4.24.82c-1.36.25-2.66.54-4.06.75l-2.14.3c-.72.09-1.41.23-2.18.23l-2.27.08-1.14.04h-.28s-.16,0-.16,0h-.32c-3.38-.09-6.67-.5-9.87-1.12-6.4-1.25-12.42-3.3-18.14-5.7-5.72-2.41-11.13-5.2-16.3-8.21-2.58-1.51-5.1-3.08-7.55-4.71l-.46-.31-.1-.07h0s-.02-.02-.02-.02l-.08-.07c-.06-.05-.12-.12-.2-.14-.19-.05-.28.12-.33.28l-.04.12-.02.06-.09.3c-.15.51-.32,1.02-.52,1.52-.39,1-.75,2-1.16,2.98-.44.97-.89,1.93-1.33,2.89-.48.94-1,1.86-1.49,2.79-2.09,3.65-4.58,6.99-7.37,9.95-5.57,5.93-12.21,10.25-18.92,13.3-6.73,3.06-13.55,4.92-20.09,6.08-6.55,1.15-12.84,1.6-18.75,1.55,5.33-1.02,11.78-2.44,18.46-4.59,6.68-2.13,13.57-5.02,19.61-8.71,6.04-3.68,11.2-8.1,14.83-12.58,3.73-4.41,5.98-8.76,7.52-11.76.29-.59.58-1.18.87-1.77.25-.6.5-1.2.74-1.78.23-.59.51-1.15.69-1.72.13-.38.25-.76.37-1.13.17-.55.34-1.08.51-1.6.22-.72.54-1.35.9-1.88.36-.49.78-.94,1.3-1.31,1.04-.75,2.42-1.11,3.65-.98.31.04.6.08.89.18l.9.37c.6.18,1.2.69,1.79,1.08l2.44,1.69c2.52,1.74,5.11,3.38,7.71,4.95,5.21,3.11,10.54,5.87,15.95,8.15,5.41,2.28,10.91,4.07,16.43,5.11.69.13,1.38.26,2.07.35.69.1,1.38.21,2.07.27.69.06,1.37.16,2.06.18l1.03.06.51.03h.31c1.52.06,3.04-.04,4.62-.35-.81-1-1.75-1.97-2.74-2.93-.33-.32-1.43-1.32-2.3-2.06-.9-.78-1.83-1.54-2.75-2.29-3.73-2.96-7.62-5.64-11.62-8.02-8.01-4.75-16.41-8.41-24.91-10.97-4.23-1.34-8.51-2.3-12.75-3.16-4.26-.76-8.49-1.4-12.7-1.73-8.41-.73-16.66-.65-24.65.04-1,.09-2,.15-2.99.26-.99.12-1.97.25-2.96.37-.98.12-1.96.24-2.94.36l-1.5.18-1.44.2c-3.83.58-7.61,1.34-11.29,2.25-7.37,1.81-14.4,4.16-20.97,7.03-3.29,1.44-6.46,3-9.5,4.68-3.03,1.71-5.93,3.54-8.68,5.5-2.76,1.95-5.31,4.09-7.73,6.29-.59.57-1.18,1.13-1.77,1.69-.3.27-.57.58-.85.87l-.48.5c-.28.28-.55.57-.82.88l-.41.46-.21.23-.1.12s-.09.08-.01.09c.12.05-5.37,8-5.26,8.04.54.21,8.78-3.68,29.46,6.01l-.05-.04c2.22,2.19,4.17,4.11,5.86,5.78.84.84,1.62,1.62,2.35,2.34.7.72,1.4,1.28,2.11,1.73,1.41.91,2.74,1.36,3.81,1.62,1.08.26,1.92.3,2.51.33Z"></path>
    </g>
    <path class="cls-3" d="M142.77,183.66c.28-.66,6.68-1.29,9.15-1.69,4.36-.82,9.46-.98,14.07-.64,8.05.51,15.94,3.13,19.97,6.98-1.49,0-3.22-.03-4.82-.18-1.6-.14-3.03-.35-3.71-.72-5.59-2.85-11.3-3.55-16.17-3.65-4.92-.13-9.17.48-12.92.43-1.77.1-4.93-.39-5.56-.52Z"></path>
    <path class="cls-2" d="M178.17,214.35c.05.32-.47,1.7-1.85,3.33-1.37,1.63-3.57,3.44-6.19,4.89-1.31.73-2.71,1.39-4.13,1.97l-1.07.41-.55.2c-.4.14-.91.13-1.33-.07-.84-.37-1.31-1.33-1.05-2.24.06-.22.17-.42.28-.58l.1-.15.19-.3c.98-1.55,1.8-2.82,2.01-3.44.04-.14.07-.27.09-.39,0-.06.02-.12.02-.19-.06-.02-.22.11-.32.16-.45.28-.86.51-1.25.7-.77.4-1.35.64-2.01.89l-.22.09-.63.16-1.3.33c-.87.23-1.74.39-2.61.58-1.75.36-3.51.67-5.28.93-3.54.53-7.1.9-10.64,1.16l-1.33.09-1.03.06-1.24.05c-1.6,0-3.49.22-4.43-.3l-.43-.13c-.13-.05-.32-.08-.37-.15l-.46-.4c-.17-.14-.29-.23-.45-.5-.16-.25-.29-.58-.34-.75-.08-.33-.16-.69-.13-1.18.03-.48.15-1.08.58-1.74l.06-.09c1.15-1.59,2.29-3.17,3.43-4.76l.81-1.13s0-.02,0-.02c-.01-.01-.03,0-.02,0h0s.19-.01-.48,0c-1.46.03-2.91.07-4.35.1-1.82.04-3.63.08-5.42.12-.89.02-1.77.04-2.66.05l-1.31.03c-.19,0-.39-.01-.55-.04l-.42-.09c-.91-.32-1.25-.75-1.53-1.07-.28-.34-.4-.61-.54-.85l-.05-.09s-.05-.11-.07-.25c-.01-.17,0-.28,0-.43.02-.27.08-.53.18-.8.1-.27.21-.53.42-.81.15-.27.44-.56.73-.84,1.78-1.53,4.89-3.15,8.26-4.44.84-.32,1.68-.63,2.52-.91.42-.15.83-.29,1.25-.42l.57-.17.37-.1c.5-.13,1-.26,1.51-.38l.77-.17.1-.02h.01s0,0,0,0h0c-.09-.38.83,3.28.44,1.73v.02s.02.03.02.03c.02.03,0,0-.02,0-.02.03.04-.08,0,.05l-.15,1.74c-3.09-.41-5.84-.82-8.41-1.23l-4.04-.65,3.36-1.91c2.04-1.16,3.74-2.08,5.36-2.92-1.08,1.46-2.51,3.1-4.11,4.78l-.4-1.53c2.76-.4,5.75-.69,8.57-.85h-.17c.66-.05,1.61.35,2.08,1.03.47.66.62,1.42.41,2.22-.18.81-1,1.57-1.68,1.76l-.16.05h-.02s-.04.03-.04.03l-.08.04c-.22.09-.44.19-.66.28-.45.2-.89.39-1.32.58l-.16.07c-.06.03-.11.05-.1.05v.04s-.02.05-.02.07c0,.04.01.07.03.09.08.09.21.05-.07.05-.17,0-.38.02-.61.06-.32.05-.7.15-1.11.29-.21.07-.42.15-.64.25-.13.04-.19.14-.2.13-.02.02-.04.04-.05.05-.1.14.1.25.51.35.41.1,1.03.17,1.79.23l.29.02h.15s.08.02.08.02h.16c.43,0,.87.01,1.3.02,1.24,0,2.46,0,3.68,0,.83.01,1.46.21,1.97.38.26.1.48.14.72.3.24.17.46.51.52.84.08.35-.04.58-.12.82-.09.25-.19.52-.32.81-.12.28-.28.59-.47.91-.21.32-.47.64-.7.96-1.29,1.71-2.56,3.38-3.8,5.02-.24.32-.48.64-.72.96-.1.17-.29.3-.3.5,0,.1.06.19.15.24.09.04.19.02.29.03.78.01,1.56-.01,2.32-.04.55-.03,2.05-.1,3.19-.18,1.2-.08,2.39-.18,3.56-.29,4.69-.46,9.16-1.07,13.33-1.99,1.08-.26,1.85-.39,3.61-.93.78-.24,1.51-.42,2.32-.7.83-.3,1.65-.59,2.46-.88.98-.41,1.24-.3,1.72-.34l.66-.03h.3s.18-.03.18-.03c.24,0,.47-.09.69.01.07.34-.01.71-.02,1.08.15.65-.88,1.94-1.51,3.01-.7,1.1-1.39,2.19-2.08,3.26-.34.53-.69,1.06-1.03,1.59l-.51.78-.25.39-.06.1-.62-.43h-.02s-.04-.04-.07-.04c-.04,0,.05,0,.05-.02,0,0-.05.09-.04.05,0-.02,0-.03,0-.06,0-.02,0-.04-.01-.05h0c-.42-1.33-.11-.38-.2-.67h.01s.04-.01.04-.01l.32-.09.63-.19c2.44-.79,5.77-1.98,8.44-3.59,1.34-.8,2.51-1.68,3.39-2.49.87-.81,1.45-1.54,1.76-1.89Z"></path>
  </g>
</svg>