<svg xmlns="http://www.w3.org/2000/svg" id="Art" viewBox="0 0 380 600"><defs transform="matrix(-1, 0, 0, 1, 380, 0)"><style>.cls-1{fill:#d7dfe2;}.cls-2{fill:#fff;}.cls-3{fill:#00ccc0;}.cls-4{opacity:0.6;}.cls-5{fill:#ccffef;}.cls-6{fill:#ffffff;}</style></defs><path class="cls-1 color-controller" d="M180.967,450.483c-1.886-12.5-8.315-32.6-19.916-38.761-10.024-5.425-43.612-11.5-50.917-7.437a26.868,26.868,0,0,0-11,11.438c-1.162,2.424-2.656,9.866,2.639,22.982,3.09,7.652,12.476,16.677,19.761,14.274,5.671-1.871,2.123-12.522.016-14.184,6.444,5.084,11.883,5.054,20.533,4.631,5.015,2.615,11.17,11.34,15.265,15.242C166.345,468.866,181.5,464.951,180.967,450.483Z" style="" transform="matrix(-1, 0, 0, 1, 380, 0)" /><path d="M181.013,450.482a5.11,5.11,0,0,1,.179,1.232c.017.323.037.7.06,1.124a9.481,9.481,0,0,1-.124,1.422q-.051.393-.1.818a3.542,3.542,0,0,1-.185.872c-.185.588-.351,1.234-.6,1.889-.326.622-.626,1.311-1.037,1.973l-.722.959a4.833,4.833,0,0,1-.827.935l-.955.883a11.237,11.237,0,0,1-1.108.757,12.634,12.634,0,0,1-2.51,1.228,14,14,0,0,1-5.863.576,17.6,17.6,0,0,1-10.677-5.765l.066.068c-2.9-2.8-5.273-5.722-7.6-8.187a36.456,36.456,0,0,0-6.333-5.721l-.423-.274c-.108-.062-.182-.093-.273-.14l-.257-.128a2.258,2.258,0,0,0-.271.026c-.088.017-.6.054-.94.082l-1.138.082c-1.526.1-3.083.175-4.691.16a27.752,27.752,0,0,1-4.956-.475c-.787-.146-1.891-.444-2.071-.5-.219-.06-.323-.1-.441-.136a3.6,3.6,0,0,1-.341-.126,5.405,5.405,0,0,1-1.086-.592,1.6,1.6,0,0,1,.215.242,4.759,4.759,0,0,1,.586,1.144c.048.134.092.264.125.39a2.061,2.061,0,0,1,.054.244c.043.311.091.621.116.941a11.453,11.453,0,0,1-.268,4.079,6.5,6.5,0,0,1-5.085,4.944c-.352.086-.705.172-1.058.243l-1.065.073a14.666,14.666,0,0,1-7.639-1.981,26.506,26.506,0,0,1-5.84-4.429,32.654,32.654,0,0,1-4.534-5.591c-.33-.5-.648-1.02-.932-1.563a17.191,17.191,0,0,1-.835-1.642l-.386-.846-.316-.8-.623-1.589a48.551,48.551,0,0,1-3.109-13.36,26.9,26.9,0,0,1,.068-4.832,19.531,19.531,0,0,1,.448-2.518,13.083,13.083,0,0,1,.4-1.313,11.106,11.106,0,0,1,.562-1.292,28.3,28.3,0,0,1,5.684-7.7,30.632,30.632,0,0,1,3.645-3.018c.646-.453,1.306-.885,1.986-1.287a11.5,11.5,0,0,1,1.155-.625c.238-.111.486-.228.721-.323l.667-.221a21.791,21.791,0,0,1,4.865-.824c1.538-.117,3.014-.1,4.488-.087a114.7,114.7,0,0,1,16.883,1.916,138.261,138.261,0,0,1,15.836,3.808,65.107,65.107,0,0,1,7.538,2.8c.62.285,1.237.589,1.851.927s1.2.753,1.789,1.128c.291.2.595.376.871.585l.793.663c.514.452,1.074.863,1.537,1.347a41.412,41.412,0,0,1,8.346,12.481,75.874,75.874,0,0,1,4.389,12.77,83.405,83.405,0,0,1,2.109,11.944c-2.24-6.53-5.744-15.845-10.47-23.6a42.476,42.476,0,0,0-7.692-9.563,7.308,7.308,0,0,0-.988-.815l-.964-.733c-.633-.464-1.291-.777-1.866-1.159-1.2-.682-2.436-1.18-3.421-1.634a76.15,76.15,0,0,0-8.264-3c-2.813-.865-5.647-1.617-8.474-2.277a124.038,124.038,0,0,0-16.814-2.8,49.063,49.063,0,0,0-8.117-.139,12.528,12.528,0,0,0-3.58.733l-.365.158-.424.237c-.285.154-.562.321-.837.492q-.829.5-1.612,1.074a25.832,25.832,0,0,0-5.47,5.334,22.258,22.258,0,0,0-2.008,3.171,9.965,9.965,0,0,0-1.032,3.357,25.537,25.537,0,0,0,.1,7.353,46.124,46.124,0,0,0,1.679,7.168c.395,1.158.771,2.314,1.225,3.439.22.562.426,1.144.676,1.656a14.642,14.642,0,0,0,.772,1.558,27.692,27.692,0,0,0,4.079,5.591,24.1,24.1,0,0,0,5.193,4.251,11.412,11.412,0,0,0,5.873,1.832,5.889,5.889,0,0,0,1.418-.173l.686-.16a3.532,3.532,0,0,0,.529-.249,2.885,2.885,0,0,0,1.316-1.843,7.738,7.738,0,0,0,.186-2.8c-.018-.245-.053-.492-.086-.738-.058-.311-.127-.769-.228-1.154a11.411,11.411,0,0,0-.935-2.574,4.4,4.4,0,0,0-.025-3.2.953.953,0,0,0-.321-.36,3.12,3.12,0,0,0,2.941.052l1.018.664c.324.183.635.332.954.5l.95.491.848.307.83.3.569.147c.376.108.761.185,1.147.258a27.527,27.527,0,0,0,4.726.44c1.6.026,3.215-.03,4.827-.1l1.462-.072.472-.023c.076,0,.162-.025.23.007l.2.116.794.464.4.231.282.193.545.381c.373.248.684.531,1.026.8a59.454,59.454,0,0,1,6.759,6.923c2.026,2.328,3.927,4.7,5.9,6.68l.094.1,1.144,1.179a15.836,15.836,0,0,0,7.013,4.015,10.973,10.973,0,0,0,13.469-7.4c.17-.553.278-1.093.408-1.588l.179-.718c.043-.231.051-.456.076-.668C180.9,451.6,180.967,450.927,181.013,450.482Z" transform="matrix(-1, 0, 0, 1, 380, 0)" /><path class="cls-2" d="M163.782,421.151c-.422.111-2.713-1.292-5.443-2.749a60.683,60.683,0,0,0-7.786-3.512,106.1,106.1,0,0,0-21.068-5.034c-3.053-.342-6.1-.567-9.07-.673-1.477,0-2.979-.073-4.375-.034a15.6,15.6,0,0,0-3.821.479,25.363,25.363,0,0,0-6.718,3.266,17.343,17.343,0,0,0-4.622,4.521,8.536,8.536,0,0,1,.826-3.344,14.924,14.924,0,0,1,7.665-7.3c.657-.209,1.3-.4,2.04-.566a15.249,15.249,0,0,1,2.089-.287,31.167,31.167,0,0,1,3.851.018c2.436.15,4.782.31,7.046.558a118.254,118.254,0,0,1,12.636,2,86.215,86.215,0,0,1,10.818,3.052,55.622,55.622,0,0,1,8.914,4.128c.627.365,1.349.833,2.087,1.339.728.523,1.459,1.107,2.141,1.649C162.342,419.766,163.424,420.815,163.782,421.151Z" style="" transform="matrix(-1, 0, 0, 1, 380, 0)" /><path class="cls-3" d="M116.549,403.091a30.167,30.167,0,0,0-11,15.07c-16.881.428,1.375-17.591,9.817-15.535.609-.142.9.809.261.541" style="" transform="matrix(-1, 0, 0, 1, 380, 0)" /><path d="M115.632,403.153c.03-.016.282.007.238-.08a.372.372,0,0,0-.462-.263l-.027.011-.061-.011a9.3,9.3,0,0,0-4.554.575,17.382,17.382,0,0,0-4.039,2.116,24.9,24.9,0,0,0-5.579,5.372,7.942,7.942,0,0,0-1.558,3.31,1.969,1.969,0,0,0,1.253,2.3,8.139,8.139,0,0,0,2.953.64,6.683,6.683,0,0,0,.8.03l.2,0h.036s0,.009.007-.011c.094-.275.192-.548.3-.814a28.059,28.059,0,0,1,3.159-5.887,26.491,26.491,0,0,1,8.075-7.584c-.868,1.124-2.145,2.635-3.24,4.109-1.112,1.462-2.056,2.873-2.636,3.558a25.529,25.529,0,0,0-2.974,4.36c-.408.755-.764,1.524-1.09,2.292l-.247.639a3.782,3.782,0,0,1-.354.826l-1.586-.047a15.343,15.343,0,0,1-2.484-.344,10.792,10.792,0,0,1-1.191-.383,5.011,5.011,0,0,1-1.091-.65,3.18,3.18,0,0,1-1.232-2.19,5.561,5.561,0,0,1,.4-2.34,13.588,13.588,0,0,1,2.335-3.647,23.312,23.312,0,0,1,2.884-2.791,20.016,20.016,0,0,1,6.3-3.564,9.689,9.689,0,0,1,2.8-.513,6.428,6.428,0,0,1,2.414.356h-.045a.549.549,0,0,1,.67.568.173.173,0,0,1-.227.118A.629.629,0,0,1,115.632,403.153Z" transform="matrix(-1, 0, 0, 1, 380, 0)" /><path class="cls-3" d="M154.725,409.926c-5.716,4.863-13.14,16.1-.186,16.063,1.378-8.154,13.154-15.287-1.926-16.7" style="" transform="matrix(-1, 0, 0, 1, 380, 0)" /><path d="M152.614,409.278a11.735,11.735,0,0,1,4.118.391,6.856,6.856,0,0,1,3.024,1.418,3.132,3.132,0,0,1,.833,1.433,4,4,0,0,1,.051,1.333,10.881,10.881,0,0,1-1.289,3.571c-.578,1.118-1.214,2.205-1.8,3.3a25.541,25.541,0,0,0-1.532,3.313c-.088.281-.19.554-.266.839l-.112.428c-.022.095-.03.09-.064.266l-.088.442-.177.885-.012.055h-.056l-.111,0-.223,0-.448-.007-.854-.014c-.159,0-.319,0-.479-.018a11.153,11.153,0,0,1-3.384-.644,6.459,6.459,0,0,1-1.627-.894,4.608,4.608,0,0,1-1.239-1.524,5.512,5.512,0,0,1-.336-3.6,11.619,11.619,0,0,1,1.134-2.958,23.311,23.311,0,0,1,6.863-7.582c-.688,1.124-1.712,2.628-2.6,4.064s-1.652,2.781-2.11,3.445A9.358,9.358,0,0,0,148,421.413a3.309,3.309,0,0,0,.353,1.975,3.4,3.4,0,0,0,1.485,1.343,7.047,7.047,0,0,0,2,.648,8.421,8.421,0,0,0,1.047.145l.523.05.441.014.324.009c.074.026.056-.064.074-.108l.033-.159c.02-.151.148-.577.234-.9a17.509,17.509,0,0,1,.734-1.942c1.1-2.481,2.525-4.567,3.539-6.6a6.211,6.211,0,0,0,.851-2.914,2.438,2.438,0,0,0-1.522-1.941,16.826,16.826,0,0,0-3.1-1.16C153.917,409.575,152.934,409.365,152.614,409.278Z" transform="matrix(-1, 0, 0, 1, 380, 0)" /><path class="cls-3" d="M116.746,432.215c-12.289-8.964-10.887,10.247,5.428,9.221C122.762,437.742,119.614,434.617,116.746,432.215Z" style="" transform="matrix(-1, 0, 0, 1, 380, 0)" /><path d="M116.756,432.2a10.4,10.4,0,0,1,2.745,2.141,12.663,12.663,0,0,1,2.89,4.111,6.9,6.9,0,0,1,.439,1.571l.034.43a3.515,3.515,0,0,1,0,.624l-.042.644-.022.329c-.049.066-.192.034-.285.055-.4.041-.9.06-1.288.084a7.71,7.71,0,0,1-.82.033,15.424,15.424,0,0,1-1.661-.065,14.235,14.235,0,0,1-6.337-2.047,11.132,11.132,0,0,1-2.242-1.819,9.444,9.444,0,0,1-1.68-2.346,7.5,7.5,0,0,1-.827-2.79,4.142,4.142,0,0,1,.816-2.969,3.258,3.258,0,0,1,2.764-1.136,6.587,6.587,0,0,1,2.371.647,13.882,13.882,0,0,1,3.3,2.285c-1.1-.269-2.561-.821-3.893-1.061a7.009,7.009,0,0,0-1.745-.14,3.866,3.866,0,0,0-.951.228,1.42,1.42,0,0,0-.89.982,3.832,3.832,0,0,0-.081,1.726,7.52,7.52,0,0,0,1.584,3.289,10.973,10.973,0,0,0,5.826,3.539,15.221,15.221,0,0,0,3.129.42l.758.021.675-.031.359-.025c.016-.114.019-.242.024-.355-.012-.073-.006-.328-.034-.543s-.05-.433-.111-.642a6.953,6.953,0,0,0-.409-1.216,11.826,11.826,0,0,0-1.274-2.158C118.987,434.75,117.131,432.622,116.756,432.2Z" transform="matrix(-1, 0, 0, 1, 380, 0)" /><path class="cls-3" d="M142.58,442.629c3.049-13.919,15.036,6.348,4.812,2.936-2.227-.9-4.682-2.165-5.284-4.49" style="" transform="matrix(-1, 0, 0, 1, 380, 0)" /><path d="M142.122,441.071a12.144,12.144,0,0,0,1.423,1.86,8.48,8.48,0,0,0,2.842,1.656,11.374,11.374,0,0,0,1.953.526,3.311,3.311,0,0,0,1.727-.086.7.7,0,0,0,.368-.365,1.993,1.993,0,0,0,.083-.294,2.62,2.62,0,0,0,.013-.381,4.96,4.96,0,0,0-.482-1.742,8.767,8.767,0,0,0-1.915-2.644,2.855,2.855,0,0,0-2.3-.968,3.345,3.345,0,0,0-1.825,1.673,12.972,12.972,0,0,0-.641,1.205l-.507,1.179a5.97,5.97,0,0,1-.034-3.045,3.663,3.663,0,0,1,1.663-2.428,3.375,3.375,0,0,1,1.994-.291,4,4,0,0,1,1.623.664,8.212,8.212,0,0,1,2.09,2.135,10.5,10.5,0,0,1,1.259,2.413,4.749,4.749,0,0,1,.294,2.628,2.1,2.1,0,0,1-.774,1.2,3.1,3.1,0,0,1-.628.32c-.215.046-.433.1-.645.129a6.631,6.631,0,0,1-2.308-.3,11.3,11.3,0,0,1-3.56-1.857,4.876,4.876,0,0,1-1.338-1.7A3.962,3.962,0,0,1,142.122,441.071Z" transform="matrix(-1, 0, 0, 1, 380, 0)" /><g class="cls-4" transform="matrix(-1, 0, 0, 1, 380, 0)"><path d="M145.964,440.531c-.185-.065-.369-.543-.874-1.013a4.373,4.373,0,0,0-2.313-1.064c-1.931-.3-4.286.712-5.732,1.079a12.753,12.753,0,0,1-4.116.457,31.715,31.715,0,0,1-4.1-.477c-1.352-.233-2.7-.53-4.023-.879-.66-.175-1.315-.359-1.959-.556l-.961-.3-.472-.153-.056-.006c-.124.01-.01.076-.044.055a.071.071,0,0,0-.047-.021.04.04,0,0,0-.028.019c0,.011-.015,0,0,.073l.02.085.084.282a21.155,21.155,0,0,1,.612,2.6,16.64,16.64,0,0,1,.252,2.623,7.471,7.471,0,0,1-.492,2.775,4.165,4.165,0,0,1-2.026,2.222,3.493,3.493,0,0,1-4.479-1.353,3.025,3.025,0,0,0,2.49.115,1.946,1.946,0,0,0,.821-.62,1.9,1.9,0,0,0,.284-.761,25.124,25.124,0,0,0-.272-3.15,15.979,15.979,0,0,0-.128-2.126c-.044-.35-.1-.7-.167-1.04-.044-.191-.049-.3-.127-.559l-.245-.8-.31-.845-.36-.828c-.278-.563-.567-1.116-.875-1.676-.6-1.112-1.192-2.164-1.7-3.041l.173.025a.4.4,0,0,1,.228.072l.713.36,1.382.687c.9.444,1.771.857,2.592,1.231s1.6.694,2.35.978l.892.331.815.28a44.4,44.4,0,0,0,6.3,1.567,21.506,21.506,0,0,0,5.614.421c1.65-.14,3.347-.776,5.226-.844a5.566,5.566,0,0,1,1.974.233,5.257,5.257,0,0,1,1.882,1.044,3.645,3.645,0,0,1,1.047,1.485A2.635,2.635,0,0,1,145.964,440.531Z" /></g><g class="cls-4" transform="matrix(-1, 0, 0, 1, 380, 0)"><path d="M161.466,421c.173-.064.738.171,1.421.741A11.6,11.6,0,0,1,165,424.236c1.325,2.046,2.633,4.424,3.471,5.716a74.029,74.029,0,0,1,7.341,15.576,20.852,20.852,0,0,1,1.261,7.682,9.776,9.776,0,0,1-1.044,4.132,6.424,6.424,0,0,1-3.373,3.006,8.435,8.435,0,0,1-7.222-.764,17.814,17.814,0,0,1-4.205-3.61c1.619.218,3.712.961,5.459,1.21a15.182,15.182,0,0,0,3.7,0,3.13,3.13,0,0,0,3.133-2.085,10.373,10.373,0,0,0,.514-4.809,35.787,35.787,0,0,0-2.652-9.139c-2.26-5.6-4.844-10.159-6.789-14.311-.5-.981-.992-2.361-1.571-3.5A10.491,10.491,0,0,0,161.466,421Z" /></g><path class="cls-5" d="M143.3,413.475c-2.7-3.941-24.1-5.651-25.071-2.523C119.2,415.523,147.255,419.26,143.3,413.475Z" style="" transform="matrix(-1, 0, 0, 1, 380, 0)" /><path class="cls-3" d="M143.325,413.458a.754.754,0,0,1,.434.357,1.371,1.371,0,0,1,.178,1.288,2.373,2.373,0,0,1-1.31,1.2,7.968,7.968,0,0,1-1.8.543,42.248,42.248,0,0,1-6.945.385,39.426,39.426,0,0,1-8.6-.81,29.027,29.027,0,0,1-4.4-1.238,13.8,13.8,0,0,1-1.53-.691,8.29,8.29,0,0,1-1.611-1.059,4.363,4.363,0,0,1-1.045-1.244,9.116,9.116,0,0,1-.519-1.394c.095-.191.183-.365.27-.539a4.3,4.3,0,0,1,.663-1.057,3.978,3.978,0,0,1,.5-.436l.638-.373c.228-.114.511-.195.764-.295a3.919,3.919,0,0,1,.825-.241l.877-.188c.271-.061.651-.1.838-.127a28.221,28.221,0,0,1,3.874-.187,43.921,43.921,0,0,1,7.175.716,34.675,34.675,0,0,1,6.325,1.738,16.439,16.439,0,0,1,2.712,1.326,5.88,5.88,0,0,1,2.127,2.024A6.756,6.756,0,0,0,141,412.5c-.969-.076-1.981-.107-2.96-.143a22.573,22.573,0,0,1-4.7-.434,35.912,35.912,0,0,0-8.021-1.528q-.974-.072-1.92-.07c-.318,0-.627.011-.937.02-.3.007-.669.049-.8.05a5.689,5.689,0,0,0-1.116.189,2.214,2.214,0,0,0-.529.222c-.152.093-.336.242-.321.422a2.582,2.582,0,0,0,1.412,1.229l.456.2.673.263c.45.167.906.316,1.362.452a41.168,41.168,0,0,0,5.386,1.162,82.605,82.605,0,0,0,9.618.857,20.588,20.588,0,0,0,3.758-.122c.585-.126,1.037-.362,1.121-.793A2.051,2.051,0,0,0,143.325,413.458Z" style="" transform="matrix(-1, 0, 0, 1, 380, 0)" /><path class="cls-6 color-body" d="M124.419,462.33c-5.821,6.481-17.976,5.056-27.149-3.182s-11.071-18.4-7.25-26.288c3.325-6.865,11.025-12.717,20.2-4.479S130.24,455.849,124.419,462.33Z" transform="matrix(-1, 0, 0, 1, 380, 0)" style="fill:#ffffff;--backup-fill:#ffffff" /><path d="M124.374,462.289c-.089-.415.595-1.467.73-3.243a17.527,17.527,0,0,0-1.044-6.684,43.922,43.922,0,0,0-7.1-12.866,76.666,76.666,0,0,0-6.2-6.687,27.928,27.928,0,0,0-3.435-2.845,12.787,12.787,0,0,0-3.5-1.823,6.717,6.717,0,0,0-6.281,1.076,13.976,13.976,0,0,0-4.363,6.081,16.522,16.522,0,0,0,.608,12.823,25.273,25.273,0,0,0,3.63,5.753c.723.892,1.532,1.717,2.332,2.542.836.766,1.657,1.538,2.544,2.208a24.754,24.754,0,0,0,11.259,5.169,12.746,12.746,0,0,0,10.024-2.224,8.881,8.881,0,0,1-3.532,4.973,14.929,14.929,0,0,1-7.192,2.621,19.8,19.8,0,0,1-7.283-.579,20.545,20.545,0,0,1-2.826-1,16.464,16.464,0,0,1-2-1.139A42.283,42.283,0,0,1,95.21,461.5a43.4,43.4,0,0,1-4.287-5.549,27.545,27.545,0,0,1-4.394-12.524,22.316,22.316,0,0,1,.4-6.345,21.308,21.308,0,0,1,2.155-5.74,20.238,20.238,0,0,1,3.568-4.761,14.059,14.059,0,0,1,5.013-3.229,11.062,11.062,0,0,1,5.939-.471,14.708,14.708,0,0,1,5.217,2.1,35.1,35.1,0,0,1,7.455,6.715,51.179,51.179,0,0,1,9.225,15.061,22.886,22.886,0,0,1,1.585,9.369,10.433,10.433,0,0,1-1.083,4.23A5.894,5.894,0,0,1,124.374,462.289Z" transform="matrix(-1, 0, 0, 1, 380, 0)" /></svg>