<svg xmlns="http://www.w3.org/2000/svg" id="outfits_1" viewBox="0 0 380 600"><defs transform="matrix(-1, 0, 0, 1, 380, 0)"><style>.cls-1{fill:blue;}.cls-2{opacity:0.5;}.cls-3{fill:#fffffe;}</style></defs><path class="cls-1 color-hair" d="M295.616,300.8a103.329,103.329,0,0,1-11.7,46.5,93.345,93.345,0,0,0,28.57-50.042,42.359,42.359,0,0,1-15.411,4.707" transform="matrix(-1, 0, 0, 1, 380, 0)" /><path d="M297.067,301.906c.277-.449,2.306-.893,5.032-1.743.68-.214,1.407-.446,2.157-.716l1.246-.453c.515-.192,1.041-.41,1.583-.629,2.143-.928,4.682-2.266,7.1-3.578l.185.089c.054.041.158.014.088.223l-.181.933q-.183.944-.361,1.865c-.227,1.243-.486,2.462-.748,3.637-.257,1.206-.5,2.346-.725,3.395q-.1.4-.2.779l-.127.552c-.076.349-.147.68-.214.989a74.805,74.805,0,0,1-6.757,18.674,90.563,90.563,0,0,1-11.374,16.883,82.961,82.961,0,0,1-7.175,7.46l-6.226-4.817a133.561,133.561,0,0,0,9.475-23.762,177.4,177.4,0,0,0,4.632-20.9,35.151,35.151,0,0,1,3.05,12.819c.3,4.7-.2,9.139-1.051,11.306a163.462,163.462,0,0,1-10.966,23.226l-2.806-2.17A76.416,76.416,0,0,0,302.081,320.8a100.492,100.492,0,0,0,5.124-12.7c.369-1.017.649-2.049.968-3.053.1-.323.2-.643.3-.961l.2-.683.42-1.413.228-.762.124-.4c.051-.106-.025-.049-.066-.036l-.138.054-.041.016a6.986,6.986,0,0,1-1.826.475c-.39.057-.835.116-1.346.168l-.2.023-.3.053-.6.093c-.4.062-.8.112-1.185.154A32.265,32.265,0,0,1,297.067,301.906Z" transform="matrix(-1, 0, 0, 1, 380, 0)" /><path class="cls-1 color-hair" d="M223.217,207.838c-35.5,5.383-71.614,10.952-103.955,26.55-17.5,8.439-34.182,20.359-43.311,37.5-4.4-12.961-1.9-27.626,4.738-39.6s17.06-21.479,28.482-29.021c21.858-14.433,47.786-22.249,73.927-23.9,14.914-.941,30.293.156,43.966,6.187,10.714,4.726,20.438,12.462,32.063,13.872,4.485.544,26.8,11.715,28.7,21.825-13.146-2.2-21.614.3-32.551,7.922,5.574,12.062,19.173,17.819,28.914,26.855A51.566,51.566,0,0,1,271.294,340.4a102.464,102.464,0,0,0,1.75-66.555c-.643-2.026-1.417-4.132-3.037-5.509-1.568-1.334-3.681-1.775-5.676-2.282-24.95-6.334-43.741-31.462-42.765-57.184" transform="matrix(-1, 0, 0, 1, 380, 0)" /><path d="M221.626,208.869a20.237,20.237,0,0,1,.232,2.212,40.4,40.4,0,0,0,.378,4.213l.368,2.777c.165.99.435,2.035.665,3.151l.371,1.719.539,1.774q.278.907.567,1.859.145.475.293.961l.379.955a59.2,59.2,0,0,0,9.283,16.47,60.112,60.112,0,0,0,16.982,14.662l2.658,1.353,1.337.682c.454.209.928.379,1.392.571l2.809,1.129c.952.34,1.937.591,2.908.893s1.927.594,2.974.828a17.445,17.445,0,0,1,3.226,1.064,8.082,8.082,0,0,1,2.946,2.28,12.022,12.022,0,0,1,1.735,3.1c.423,1.059.734,2.083,1.037,3.107l.918,3.077c.525,2.075,1.088,4.138,1.489,6.231.476,2.078.771,4.181,1.128,6.261.25,2.1.561,4.173.695,6.252a106.537,106.537,0,0,1-.681,23.822c-.324,1.845-.545,3.674-.939,5.43l-.537,2.613c-.08.432-.2.852-.3,1.274q-.149.6-.3,1.195c-.425,1.823-.924,3.433-1.391,4.832l-.143.439c.123-.051.293-.157.434-.232l.857-.477c.55-.317,1.043-.66,1.519-.961.7-.5,1.389-.99,1.979-1.513l.829-.674c.316-.243.6-.533.894-.8.583-.546,1.192-1.065,1.757-1.633a52.246,52.246,0,0,0,6.2-7.381,48.336,48.336,0,0,0,4.745-8.468,47.361,47.361,0,0,0,3.038-9.261,49.726,49.726,0,0,0-7.463-37.783,45.851,45.851,0,0,0-6.366-7.615,70.886,70.886,0,0,0-7.866-6.446c-2.812-2.05-5.752-4.059-8.669-6.249a61.121,61.121,0,0,1-8.437-7.408,36.431,36.431,0,0,1-3.62-4.6l-.617-.967a10.246,10.246,0,0,1-.609-1.052l-1.122-2.138L251,228.251c-.017-.043-.062-.094-.055-.131l.123-.087.246-.172.492-.346.986-.691,1.978-1.383c.34-.226.663-.46,1.017-.679l.958-.61c.773-.512,1.6-.976,2.4-1.456s1.661-.907,2.5-1.357c.871-.4,1.708-.853,2.609-1.211a40.217,40.217,0,0,1,5.5-1.914,37.423,37.423,0,0,1,5.764-1.021c.969-.125,1.933-.135,2.9-.189.483-.024.96,0,1.44-.006l.6,0a5.82,5.82,0,0,1,.594.032l.13.014c.032,0-.015-.084-.022-.12a1.378,1.378,0,0,0-.133-.256,2.479,2.479,0,0,0-.375-.444l-.56-.544c-.261-.262-.541-.514-.822-.766-.553-.508-1.143-1-1.739-1.478-1.2-.962-2.45-1.882-3.747-2.752a75.711,75.711,0,0,0-8.105-4.729c-1.39-.7-2.8-1.349-4.182-1.906-.69-.284-1.376-.53-1.992-.721a6.473,6.473,0,0,0-.741-.192l-.1-.02-.336-.05-.671-.1a44.345,44.345,0,0,1-10.181-2.868,94.938,94.938,0,0,1-9.029-4.347c-5.739-3.075-11.026-6.153-16.587-8.108a81.6,81.6,0,0,0-24.488-4.5,145.993,145.993,0,0,0-25.294,1.34c-4.194.523-8.335,1.328-12.454,2.166-4.095.942-8.178,1.919-12.166,3.176a143.764,143.764,0,0,0-23.109,9.228c-3.668,1.879-7.27,3.864-10.721,6.062a110.5,110.5,0,0,0-9.994,6.963,79.816,79.816,0,0,0-16.455,17A54.041,54.041,0,0,0,78.2,249.917,46.048,46.048,0,0,0,77.463,261l.031.725.035.335c.021.116.036.238.066.362.03.1.048.343.114.166.107-.173.239-.354.387-.55.035-.05.079-.1.119-.147l.07-.088.172-.226c.592-.835,1.254-1.609,1.9-2.395a77.763,77.763,0,0,1,8.35-8.68,108.748,108.748,0,0,1,18.978-13.479q4.972-2.8,10.029-5.183c3.39-1.526,6.74-3.06,10.141-4.379a213.3,213.3,0,0,1,20.267-6.971,338.114,338.114,0,0,1,39.139-8.687c12.555-2.111,24.53-3.638,35.787-5.086-19.86,4.757-49.4,10.286-75.779,19.707a205.432,205.432,0,0,0-35.515,16.254,110.72,110.72,0,0,0-22.123,17.035c-.988,1.022-1.965,2.055-2.9,3.109l-1.36,1.607c-.223.27-.461.527-.67.805l-.668.881-1.24,1.67L81.6,269.572q-1.16,1.942-2.305,3.858l-4.286,7.29-.273-.77c-.092-.262-.179-.473-.284-.859l-.6-2.065L72.7,273.051l-.548-1.922-.474-2.035-.471-2.023c-.122-.708-.2-1.467-.3-2.193l-.281-2.194a15.09,15.09,0,0,1-.1-1.583c-.033-.872-.078-1.743-.045-2.61a49.686,49.686,0,0,1,.312-5.173A57.3,57.3,0,0,1,76.6,233.942a70.753,70.753,0,0,1,11.31-16.119,96.829,96.829,0,0,1,14.408-12.643,142.906,142.906,0,0,1,32.721-17.423A160.614,160.614,0,0,1,169.817,179a164.147,164.147,0,0,1,17.473-1.489,118.848,118.848,0,0,1,17.311.632,82.943,82.943,0,0,1,16.757,3.584,68.139,68.139,0,0,1,7.905,3.146c2.55,1.2,5,2.522,7.418,3.841a112.18,112.18,0,0,0,14.43,7.128,36.473,36.473,0,0,0,7.482,1.952l1.026.163a9.677,9.677,0,0,1,1.149.274c.714.2,1.365.447,2.02.694,1.3.5,2.545,1.059,3.773,1.646a75.729,75.729,0,0,1,13.758,8.453c1.062.83,2.083,1.72,3.077,2.646l.732.714.185.182.227.246.453.491a23.322,23.322,0,0,1,1.694,2.053,15.963,15.963,0,0,1,2.255,4.274c.135.354.254.722.366,1.1s.228.748.322,1.152l.149.594c-.035.107-.139.141-.206.215l-.45.388c-1.414-.217-2.893-.4-4.352-.587-1.449-.153-2.856-.282-4.284-.348l-1.5-.012c-.477,0-.949.038-1.424.054-.95.02-1.884.159-2.82.254a34.865,34.865,0,0,0-5.475,1.251,40.463,40.463,0,0,0-5.194,2.15c-.835.436-1.674.863-2.488,1.343l-1.222.718c-.2.116-.4.249-.6.375l-.519.332c-.466.29-.924.609-1.375.92-.089.083-.278.141-.286.245l.193.367.386.73c.13.242.293.465.431.686l.314.489a6.03,6.03,0,0,0,.381.562c.57.711,1.06,1.473,1.688,2.142.6.687,1.194,1.379,1.86,2.015.633.661,1.307,1.288,2,1.9,5.5,4.936,12.024,8.787,17.913,13.628a53.486,53.486,0,0,1,14.188,17.685,55.4,55.4,0,0,1,5.707,21.414,53.567,53.567,0,0,1-.527,10.955,51.434,51.434,0,0,1-2.816,10.464,55.391,55.391,0,0,1-11.2,17.924c-1.228,1.247-2.439,2.507-3.767,3.635-.645.586-1.3,1.157-1.994,1.679l-1.473,1.148c-.515.37-1.03.751-1.548,1.064l-3.1,1.975c-1.023.6-2.031,1.116-3.045,1.676-.988.549-2.083,1.1-3.142,1.652l-1.6.825a3.115,3.115,0,0,1-.375.182l-.193,0-.386-.01c.679-1.951,1.377-3.865,2.038-5.835s1.308-3.945,1.96-5.909c.289-.962.561-1.918.794-2.864l.488-1.875c.288-1.194.526-2.4.791-3.589a104.275,104.275,0,0,0,1.863-14.379,102.437,102.437,0,0,0-2.209-27.99c-.463-1.888-.909-3.874-1.521-5.891a19.47,19.47,0,0,0-2.127-5.576,4.832,4.832,0,0,0-1.9-1.618,15.957,15.957,0,0,0-2.99-1.02c-1.152-.288-2.353-.731-3.538-1.1l-1.79-.58c-.59-.216-1.161-.486-1.744-.728a53.465,53.465,0,0,1-13.127-7.7,65.6,65.6,0,0,1-5.674-5,66.92,66.92,0,0,1-4.834-5.59,65.475,65.475,0,0,1-4.054-5.85c-.592-1-1.113-2.018-1.659-3q-.4-.743-.8-1.472l-.673-1.507-1.3-2.933q-.52-1.485-1.018-2.91a52.175,52.175,0,0,1-1.566-5.5,22.188,22.188,0,0,1-.505-2.573q-.2-1.251-.395-2.414c-.235-1.551-.253-3-.372-4.3a27.864,27.864,0,0,1-.034-3.464C221.59,210.389,221.61,209.543,221.626,208.869Z" transform="matrix(-1, 0, 0, 1, 380, 0)" /><path class="cls-1 color-hair" d="M218.773,199.561a57.834,57.834,0,0,0,78.561,61.8c-24.449-6.193-46.391-26.01-49.813-51" transform="matrix(-1, 0, 0, 1, 380, 0)" /><path d="M247.551,210.363a9.2,9.2,0,0,1,.527,1.708c.11.465.239,1.008.385,1.622a17.062,17.062,0,0,0,.529,2.028c.227.729.471,1.517.731,2.353l.4,1.289q.258.642.53,1.314c.357.9.73,1.828,1.113,2.787.441.934.932,1.877,1.409,2.845a60.586,60.586,0,0,0,14.855,18.464,80.127,80.127,0,0,0,12.266,8.253c2.259,1.129,4.519,2.3,6.906,3.233l1.771.741,1.819.629,2.429.85c1.255.354,2.3.685,3.392,1.023l3.293,1.023,1.661.517.834.26c.129.021,0,.046-.057.071l-.2.073-.4.147-6.528,2.364c-1.01.4-2.274.716-3.457,1.064-.7.208-1.317.388-1.994.52l-1.984.432-.991.215-1,.151a61.052,61.052,0,0,1-15.878.5,59.228,59.228,0,0,1-25.4-8.483c-.925-.609-1.888-1.154-2.77-1.814l-2.644-1.957-2.48-2.123c-.831-.7-1.557-1.5-2.333-2.238a58.619,58.619,0,0,1-7.82-9.834,65.044,65.044,0,0,1-5.324-10.674,64.264,64.264,0,0,1-2.949-10.771,55.967,55.967,0,0,1,.032-19.463,75.959,75.959,0,0,0,2.749,19.5c.248.836.493,1.666.736,2.484l.841,2.372.4,1.15q.231.557.458,1.1c.3.723.583,1.426.86,2.1.613,1.328,1.18,2.554,1.684,3.644.557,1.063,1.025,2,1.385,2.78s.809,1.518,1.209,2.276a25.175,25.175,0,0,0,1.289,2.215l1.365,2.152q.752,1.026,1.5,2.041a23.2,23.2,0,0,0,1.561,1.97c.543.634,1.066,1.285,1.624,1.9,1.17,1.171,2.263,2.42,3.521,3.468a52.47,52.47,0,0,0,7.753,5.8l2.076,1.171,1.034.583,1.067.509,2.123,1.012c.717.31,1.446.582,2.165.873a58.151,58.151,0,0,0,8.769,2.651,59.169,59.169,0,0,0,8.81,1.159A56.785,56.785,0,0,0,290,262.85l1.58-.455c.379-.118.771-.209,1.135-.349l1.079-.4c.282-.129,1.011-.27.306-.365l-2.212-.609-3.061-1.074a78.083,78.083,0,0,1-13.627-6.8,75.212,75.212,0,0,1-11.174-8.847c-.825-.8-1.582-1.657-2.363-2.474l-1.153-1.234-1.054-1.3c-.693-.869-1.4-1.719-2.056-2.587q-.921-1.356-1.824-2.689a49.5,49.5,0,0,1-6.1-13.111,12.681,12.681,0,0,1-.484-1.72c-.129-.567-.256-1.121-.378-1.657a26.188,26.188,0,0,1-.587-2.964C247.8,212.415,247.635,211.042,247.551,210.363Z" transform="matrix(-1, 0, 0, 1, 380, 0)" /><path d="M204.934,198.006a13.606,13.606,0,0,1-3.315.357l-3.129.114c-1.156,0-2.4.192-3.69.28l-3.944.341c-1.32.144-2.622.386-3.869.567l-3.5.558c-1.067.219-2.015.468-2.807.664l-4.253,1.065-4.306,1.315c-2.925.8-5.789,1.973-8.71,2.987-1.461.508-2.859,1.193-4.291,1.775l-2.134.9-1.063.452-1.033.513c-2.744,1.381-5.508,2.64-8.035,4.183a135.015,135.015,0,0,0-24.162,17.465,151.261,151.261,0,0,0-16.714,18.065,50.881,50.881,0,0,1,5.5-10.685c.6-.9,1.17-1.815,1.789-2.634.634-.8,1.255-1.568,1.844-2.271a33.239,33.239,0,0,1,3.026-3.279,156.132,156.132,0,0,1,19.5-14.426,140.262,140.262,0,0,1,18.8-9.947c12.209-5.25,23.6-8.185,33.735-8.937,1.2-.073,2.635-.1,4.121-.109h2.254l1.121.012,1.1.088C201.658,197.659,204.126,197.911,204.934,198.006Z" transform="matrix(-1, 0, 0, 1, 380, 0)" /><g class="cls-2" transform="matrix(-1, 0, 0, 1, 380, 0)"><path class="cls-3" d="M124.468,221.167c-.076-.347.49-1.262,1.432-2.512.472-.625,1.037-1.333,1.664-2.095.455-.566.947-1.177,1.457-1.809.913-1.129,1.791-2.2,2.425-3.03a12.632,12.632,0,0,0,.733-1.036,1.977,1.977,0,0,0,.17-.331.412.412,0,0,0,.026-.111c.075-.074-.209.068-.33.116-2.178.939-3.637,1.668-4.662,2.223-.51.283-.913.517-1.231.724-.16.1-.3.194-.421.282l-.081.061-.038.029c-.02.012,0,.008-.1.052l-.88.411a124.07,124.07,0,0,0-13.414,7.359c-2.762,1.761-5.451,3.6-8.013,5.462l-5-5.443a110.787,110.787,0,0,1,14.71-14.435,46.043,46.043,0,0,1,15.161-8.162c-1.749,2.533-4.251,5.543-6.487,8.315-2.26,2.746-4.358,5.222-5.8,6.207a92.3,92.3,0,0,0-13.444,11.69l-2.391-2.6c4.32-2.793,8.481-5.314,12.545-7.537,2.024-1.126,4.032-2.157,6-3.145.994-.473,1.962-.972,2.942-1.411l1.453-.672,1.679-.729c2.778-1.164,5.579-2.181,8.262-3.06,2.66-.858,5.265-1.617,7.865-2.358l1.986-.547.978-.267.486-.131.12-.032c.016,0,.05-.017.051-.011l-.037.043-.149.172-2.406,2.744-2.446,2.712c-.85.912-1.566,1.725-2.585,2.709-1.11,1.134-2.551,2.5-3.979,3.778-.716.642-1.43,1.266-2.11,1.846l-.994.833c-.351.3-.538.419-.8.624C126.837,219.569,125.067,220.784,124.468,221.167Z" /></g><g class="cls-2" transform="matrix(-1, 0, 0, 1, 380, 0)"><path class="cls-3" d="M194.015,205.767c-.165,1.173-5.088,1.7-6.854,2.691-3.121,1.682-6.772,2.689-10.029,3.791-5.687,1.888-11.463,2.791-15.918,2.322.541-3.511,3.235-6.74,4.622-6.615A35.8,35.8,0,0,0,179.4,206.5c3.769-1.048,7.05-2.256,10.088-2.162A11.761,11.761,0,0,1,194.015,205.767Z" /></g></svg>