<svg xmlns="http://www.w3.org/2000/svg" id="outfits_1" viewBox="0 0 380 600"><defs transform="matrix(-1, 0, 0, 1, 380, 0)"><style>.cls-1{fill:blue;}.cls-2{opacity:0.5;}.cls-3{fill:#fffffe;}.cls-4{opacity:0.3;}</style></defs><g id="princess" transform="matrix(-1, 0, 0, 1, 380, 0)"><path class="cls-1 color-hair" d="M244.389,250.91a125.01,125.01,0,0,1-74.853-53.029c-18.585,18.207-47.708,25.141-72.661,28.9,15.919-30.382,59.892-45.72,92.133-46.608,72.011-1.986,104.7,33.9,106.061,40.535-11.311,4.124-9.143,6.4-11.277,21.029" /><path d="M283.747,241.731a32.794,32.794,0,0,1,.191-3.856c.188-2.07.3-4.85.792-8.225q.13-.635.267-1.3c.121-.438.262-.885.409-1.338a8.34,8.34,0,0,1,1.556-2.578,10.409,10.409,0,0,1,2.439-1.992c.445-.3.924-.511,1.394-.774.446-.251,1.04-.484,1.339-.631.354-.17.719-.312,1.082-.458.3-.178.961-.18.612-.671a9.909,9.909,0,0,0-1.244-2.141,40.606,40.606,0,0,0-4.485-5.119,92.966,92.966,0,0,0-23.376-16.138,127.145,127.145,0,0,0-11.841-5.1c-1.868-.654-3.626-1.316-5.309-1.813-1.671-.533-3.227-1.013-4.663-1.38a146.89,146.89,0,0,0-15.571-3.407c-2.652-.489-5.355-.794-8.059-1.164-2.719-.276-5.446-.6-8.2-.761-5.5-.432-11.085-.538-16.692-.487-2.8.067-5.625.1-8.4.282-2.786.2-5.576.457-8.356.841a141.926,141.926,0,0,0-32.5,8.368,119.393,119.393,0,0,0-14.97,7.017,92.766,92.766,0,0,0-13.392,8.956,74.215,74.215,0,0,0-9.9,9.547c-.767.845-1.426,1.772-2.146,2.65-.365.437-.668.915-1,1.372l-.944,1.326c-.026.046-.01.031-.007.036l.011-.007h0l1.116-.195c2.306-.381,4.583-.849,6.864-1.278,4.539-.942,9.037-1.95,13.439-3.155s8.737-2.526,12.921-4.113c2.118-.737,4.152-1.633,6.2-2.471,1.021-.428,2-.925,3.006-1.381s2-.915,2.955-1.445l2.893-1.525c.949-.528,1.863-1.1,2.794-1.652,1.89-1.056,3.594-2.354,5.377-3.524l2.516-1.945,1.251-.97,1.251-1.113,4.563-4.113a.515.515,0,0,1,.071-.059l.054.08.11.159.219.319.437.637.872,1.27,1.727,2.516,1,1.477c.3.433.578.883.9,1.3l1.881,2.521c1.217,1.7,2.56,3.287,3.863,4.887,2.624,3.185,5.4,6.169,8.235,9A123.864,123.864,0,0,0,207.277,232.8a133.154,133.154,0,0,0,37.32,17.283,107.269,107.269,0,0,1-19.392-4.714,112.19,112.19,0,0,1-21.233-9.906A113.8,113.8,0,0,1,186.1,222.173l-3.493-3.341c-1.1-1.083-2.072-2.179-3.018-3.183l-1.358-1.472c-.426-.484-.813-.97-1.2-1.428l-2.057-2.543c-1.235-1.545-2.332-3.185-3.5-4.762-.587-.784-1.126-1.6-1.657-2.42-.756-1.133-.505-.816-.628-1.036l-.1-.2c-.043,0-.1.047-.149.075l-.192.127a1.407,1.407,0,0,0-.146.111l-.555.481c-1.5,1.253-3.095,2.378-4.633,3.552a99.566,99.566,0,0,1-20,10.6,154.456,154.456,0,0,1-20.736,6.529c-3.456.847-6.905,1.582-10.335,2.255-1.714.344-3.43.629-5.134.945l-5.711.944-3.562.51c-1.158.153-2.39.361-3.466.466,1.193-2.1,2.343-4.184,3.619-6.164l.929-1.5c.168-.271.315-.449.43-.616l.377-.52c.51-.686.984-1.4,1.52-2.059l1.6-1.985c.54-.652,1.117-1.27,1.672-1.905a74.306,74.306,0,0,1,7.19-6.966,86.775,86.775,0,0,1,7.82-5.954,125.285,125.285,0,0,1,33.995-15.865,145.994,145.994,0,0,1,17.41-4.156,129.322,129.322,0,0,1,17.244-1.89,191.84,191.84,0,0,1,32.863,1.537c21.037,2.88,40.254,9.694,55.693,20.124a77.894,77.894,0,0,1,11.7,9.547,47.572,47.572,0,0,1,5.4,6.364l.653,1.015a13.122,13.122,0,0,1,.627,1.169l.292.581.212.585a10.39,10.39,0,0,1,.377,1.187c.167.252-.152.277-.325.369l-.579.246-1.144.481-2.169.864c-2.33.981-4.383,2.31-5.276,4.371a13.989,13.989,0,0,0-.973,3.138c-.228,1.05-.379,2.08-.533,3.048C284.54,237.321,284.027,240.28,283.747,241.731Z" /><path class="cls-1 color-hair" d="M278.857,215.992c17.609,21.566,27.532,51.295,30.819,85.07,1.849,19,.286,35.479-12.311,48.227-12.05,12.194-32.614,16.869-41.871,30.846-10.077,15.217.552,33.968,19.85,38.34-38.312,21.882-84.552-14.055-63.521-53.673,14.187-28.535,40.941-53.164,44.6-86.1,2.067-14.243,2.447-34.261-10.022-44.524a144.082,144.082,0,0,0-105.733-19.9c-8.65.27-18.33,4.589-26.6,2.073-4.12-3.483-13.122,1.777-10.464-1.6,25.619-32.519,68.385-36.872,95.678-35.521" /><path d="M199.285,179.28c-.775.087-3.185.051-6.89.1s-8.708.188-14.64.735a146.555,146.555,0,0,0-20.115,3.2,113.127,113.127,0,0,0-22.673,7.882,87.686,87.686,0,0,0-21.246,14.238c-.777.743-1.6,1.435-2.337,2.218l-1.129,1.145-.564.572c-.193.195-.38.385-.506.532l-1.7,1.9-1.3,1.591a4.068,4.068,0,0,0-.579.807.248.248,0,0,0-.008.236c.051.074.149.077.229.09a2.764,2.764,0,0,0,.506-.04c.667-.113,1.318-.27,1.971-.37.326-.054.651-.095.976-.119.154-.015.344-.019.525-.027.289,0,.575,0,.868.021a7.338,7.338,0,0,1,3.5,1.015,2.04,2.04,0,0,1,.278.186.455.455,0,0,0,.214.117l.573.139a9.542,9.542,0,0,0,1.408.273,10.468,10.468,0,0,0,1.428.159,13.486,13.486,0,0,0,1.437.058,34.993,34.993,0,0,0,5.723-.484c3.777-.6,7.43-1.512,11.05-2.051.9-.147,1.809-.239,2.7-.336l1.347-.089.207-.017.223-.041.631-.118,4.878-.909c1.568-.323,3.109-.454,4.572-.679,1.469-.186,2.87-.431,4.217-.546a143.736,143.736,0,0,1,58.472,5.875,148.583,148.583,0,0,1,28.1,12.131l3.324,1.974,1.663.988.861.512a3.774,3.774,0,0,1,.333.21l.253.231.4.362,1.533,1.411c.513.469.924,1.032,1.389,1.546a27.123,27.123,0,0,1,2.471,3.33,40.624,40.624,0,0,1,5.387,15.246,76.731,76.731,0,0,1,.583,15.835c-.187,2.6-.416,5.256-.774,7.786-.151,1.266-.381,2.593-.569,3.886-.22,1.3-.346,2.61-.647,3.9a102.292,102.292,0,0,1-11.521,29.077c-10.22,17.959-23.13,33.506-31.746,50.714a44.208,44.208,0,0,0-4.526,12.8,34.763,34.763,0,0,0,.175,13.256c1.766,8.72,7.259,16.428,14.368,21.739a44.036,44.036,0,0,0,24.744,8.656,44.812,44.812,0,0,0,13.048-1.476,28.4,28.4,0,0,0,3.141-.951l1.543-.515.233-.1.315-.13c.008,0,.051-.015.037-.019l-.051-.024-.376-.172c-.718-.359-1.453-.681-2.148-1.086a33.606,33.606,0,0,1-7.728-5.717,27.873,27.873,0,0,1-8.4-17.145,24.544,24.544,0,0,1,1.089-9.665,26.8,26.8,0,0,1,4.546-8.349l.7-.933.777-.857c.521-.566,1.032-1.146,1.563-1.7,1.125-1.015,2.195-2.119,3.387-3.014a69.224,69.224,0,0,1,7.209-5.086c4.919-3.025,9.894-5.608,14.605-8.351a65.2,65.2,0,0,0,12.766-9.27,40.864,40.864,0,0,0,8.536-12.493,50.261,50.261,0,0,0,3.631-14.6c1.023-10.042-.086-20.151-1.3-29.881a194.89,194.89,0,0,0-5.712-27.993c-4.966-17.8-12.727-33.582-22.521-46.1a109.77,109.77,0,0,1,10.135,13.036,122.372,122.372,0,0,1,9.207,16.728A170.167,170.167,0,0,1,309.83,286.1c.347,1.717.626,3.438.9,5.153s.563,3.417.769,5.12c.456,3.395.9,6.761,1.13,10.107.155,1.665.2,3.333.291,4.974.016,1.652.085,3.279.018,4.9a66.424,66.424,0,0,1-.815,9.43A54.126,54.126,0,0,1,310,334.438a45.349,45.349,0,0,1-3.375,7.447,43.027,43.027,0,0,1-8.251,10.39,66.035,66.035,0,0,1-11.148,8.028c-3.845,2.282-7.72,4.308-11.463,6.394a89.58,89.58,0,0,0-10.63,6.7,34.379,34.379,0,0,0-8.246,8.6,20.1,20.1,0,0,0-3.233,10.819,21.237,21.237,0,0,0,3.1,10.857,26.986,26.986,0,0,0,7.883,8.308,27.39,27.39,0,0,0,2.449,1.53c.417.241.838.473,1.274.679a15.045,15.045,0,0,0,1.558.714l1.07.434a9.3,9.3,0,0,0,1.125.416l2.5.753c1.745.477,3.5.954,5.09,1.357-.017.32-1.313.859-2.148,1.316l-2.738,1.41c-.916.5-1.8.861-2.682,1.262l-2.645,1.18a15.815,15.815,0,0,1-2.176.815l-1.964.646c-1.316.4-2.668.678-4,1.02a48.548,48.548,0,0,1-16.264.662A47.572,47.572,0,0,1,216.9,412.337a41.012,41.012,0,0,1-8.636-13.011,38.456,38.456,0,0,1-2.837-15.15,41.838,41.838,0,0,1,3.081-14.848,32.324,32.324,0,0,1,1.524-3.43l.814-1.681.861-1.629q.861-1.628,1.718-3.25c.584-1.074,1.222-2.118,1.828-3.176,4.914-8.433,10.416-16.294,15.7-24.091a240.614,240.614,0,0,0,14.563-23.63l.8-1.506.723-1.537,1.442-3.065c.929-2.052,1.7-4.16,2.548-6.225.677-2.124,1.42-4.223,2.013-6.353q.387-1.611.774-3.218a27.029,27.029,0,0,0,.67-3.23c1.454-8.685,2.335-17.467,1.384-25.913a42.857,42.857,0,0,0-3.023-12.118,26.117,26.117,0,0,0-7-9.747l-.237-.219a2.472,2.472,0,0,0-.228-.142l-.672-.4-1.342-.8-2.676-1.6c-1.781-1.064-3.638-1.978-5.443-2.969-1.794-1.014-3.689-1.813-5.522-2.717S226,225,224.125,224.214a147.389,147.389,0,0,0-22.808-7.388,140.705,140.705,0,0,0-23.033-3.4,138.521,138.521,0,0,0-22.607.3c-1.854.132-3.684.44-5.517.65-.914.125-1.832.212-2.738.367l-2.71.482-2.7.478-.674.119-.469.083-.47.029-1.307.079c-1.751.153-3.516.441-5.288.759-3.547.638-7.127,1.476-10.866,1.814a28.739,28.739,0,0,1-5.688.018,19.777,19.777,0,0,1-2.858-.527l-.912-.234c-.176-.027-.273-.177-.414-.259a3.848,3.848,0,0,0-.333-.242,3.723,3.723,0,0,0-.829-.388,6.776,6.776,0,0,0-2.139-.271,35.509,35.509,0,0,0-4.1.528,7.585,7.585,0,0,1-1.669.034,11.452,11.452,0,0,1-1.147-.188,2.027,2.027,0,0,1-.965-.414.807.807,0,0,1-.163-.632,2.353,2.353,0,0,1,.119-.525l1.638-2.667c.283-.441.521-.89.841-1.321l1.128-1.258c.737-.814,1.528-1.721,2.214-2.449l1.868-1.858a85.513,85.513,0,0,1,22.036-15.45,110.277,110.277,0,0,1,27.668-9.091,145.469,145.469,0,0,1,25.017-2.537C191.3,178.737,196.648,179.086,199.285,179.28Z" /><g class="cls-2"><path class="cls-3" d="M283.5,290.153a1.338,1.338,0,0,1-.14-.744,4.158,4.158,0,0,1,.4-1.39c.236-.528.575-1.1.908-1.726a3.43,3.43,0,0,0,.56-1.905l1.221.316c-1.545,2.364-3.34,5.454-5.572,8.695a37.925,37.925,0,0,1-8.433,9.1l-3.178,2.338,1.331-3.753c1.1-3.1,2.389-5.994,3.514-8.594s2.113-4.9,2.783-6.746a57.562,57.562,0,0,0,1.776-5.568,28.98,28.98,0,0,0,.8-5.713,19.76,19.76,0,0,0-2.567-10.989l4.745-.892a74.235,74.235,0,0,1-5.971,21.533,57.064,57.064,0,0,1-13.105,18.226c-.97.953-2.047,1.783-3.034,2.647l-4.923-4.114a101.766,101.766,0,0,0,9.424-25,75.146,75.146,0,0,0,1.3-25.025,56.124,56.124,0,0,0-7.082-21.515,158.931,158.931,0,0,0-11.044-16.845,73.389,73.389,0,0,1,15.636,15.781,51.773,51.773,0,0,1,5.7,10.073,33.669,33.669,0,0,1,2.374,8.282,82.338,82.338,0,0,1-1.9,30.654,111.09,111.09,0,0,1-10.351,25.756l-1.99-1.663a51.562,51.562,0,0,0,14.76-18.427,70.5,70.5,0,0,0,6.089-20.992l.637-4.539,2.337,3.98a22.833,22.833,0,0,1,2.957,11.546,31.28,31.28,0,0,1-2.08,11.019c-2.492,6.708-5.765,12.461-8.019,18.153l-2.645-2.026c.444-.329.891-.627,1.313-.959a47.679,47.679,0,0,0,7.4-7.492c2.36-2.9,4.544-5.8,6.132-7.565l.677-.75.059.94a2.9,2.9,0,0,1-.336,1.453,7.045,7.045,0,0,1-.62,1.021c-.418.589-.793,1.058-1.078,1.481A3.421,3.421,0,0,0,283.5,290.153Z" /></g><path class="cls-1 color-hair" d="M196.925,189.36c-24.359-5.82-52.3-5.411-75.194,2.621C89.413,203.321,67.114,244,106.264,262.066a57.557,57.557,0,0,1,9.5-33.611C111.22,245.966,123.15,265,143.8,264.7c-2.994,1.075-.362-.816-1.446-3.5s-.432-5.619.229-8.387c5.206,8.007,16.822,12.435,27,10.293a45.6,45.6,0,0,1-9.462-34.323c-2.044,9.2,15.126,21.671,23.928,27.432,73.669,36.339,83.707-3.379,59.6-35.846" /><path d="M243.7,220.337c.747.683,4.3,4.739,7.847,11.836a48.234,48.234,0,0,1,4.284,12.894,33.524,33.524,0,0,1,.39,7.916,22.425,22.425,0,0,1-2.329,8.182c-.381.63-.707,1.3-1.143,1.9l-1.384,1.766-1.629,1.561a20.967,20.967,0,0,1-1.807,1.356,22.8,22.8,0,0,1-3.988,2.087c-.7.255-1.4.543-2.112.766l-2.167.536a15.871,15.871,0,0,1-2.183.386c-.73.1-1.459.221-2.188.286l-2.183.1a18.741,18.741,0,0,1-2.17.032,63.507,63.507,0,0,1-8.427-.726c-10.912-1.715-20.229-5.259-26.821-7.778l-5.816-2.38-5.79-2.6-.741-.335a2.709,2.709,0,0,1-.527-.285l-.367-.234-1.355-.867-2.694-1.788q-2.685-1.822-5.307-3.809a70.114,70.114,0,0,1-9.98-8.993,29.046,29.046,0,0,1-4.137-5.859,15.763,15.763,0,0,1-1.348-3.712,10.442,10.442,0,0,1-.054-4.362l5.152.947a41.165,41.165,0,0,0,1.293,16.719,43.93,43.93,0,0,0,3.122,7.9l1.013,1.871c.17.312.367.608.548.913l.423.7c.172.3.372.591.568.884,1.659,2.36,3.416,4.733,5.14,7.039l-.59.165-.766.133-1.534.267-3,.506c-.5.07-.972.189-1.509.22l-1.611.1-1.614.1c-.273.009-.554.011-.816-.007l-.668-.033a31.827,31.827,0,0,1-7.792-1.351,30.074,30.074,0,0,1-7.208-3.267c-.289-.161-.561-.356-.836-.546l-.652-.451-.14-.1a2,2,0,0,1-.247-.22,1.44,1.44,0,0,1-.111-.132c-.034-.04-.028.112-.041.156a1.577,1.577,0,0,0-.009.386.773.773,0,0,0,.041.169l.031.077a.314.314,0,0,1,.018.053,5.123,5.123,0,0,1,.11.906,7.843,7.843,0,0,1-.1,1.7c-.08.478-.211.988-.217,1.04v-.007c-.034-.009.1.01-.155-.034q-.519-.093-1.042-.16l-.525-.061a1.751,1.751,0,0,1-.211-.043,2.118,2.118,0,0,0-.337-.046c-.565.011-.7.02-.753.089.038-.036.019-.035.039-.1a.845.845,0,0,0,.074-.415,1.978,1.978,0,0,1-.028-.238c0-.141,0-.281-.01-.42a5.147,5.147,0,0,0-.117-.823c-.059-.279-.145-.459-.236-1.014.006-.022.019-.014.029-.021l.074-.021.332-.114,1.155,6.363a33.358,33.358,0,0,1-13.795-2.711,30.634,30.634,0,0,1-10.952-8.123,32.6,32.6,0,0,1-6.964-14.011,33.351,33.351,0,0,1,.227-15.561l6.338,2.8A55.9,55.9,0,0,0,111.8,245.5a53.878,53.878,0,0,0-1.65,8.08l-.215,2.042c-.034.34-.046.682-.07,1.023-.047.655-.091,1.424-.1,2.155.006,3.027.059,6.059.112,9.016l-5.415-2.734-2.688-1.358c-.862-.393-1.819-1.05-2.622-1.507l-1.42-.858-1.363-.972a28.044,28.044,0,0,1-2.658-2.042,33.254,33.254,0,0,1-8.54-10.516,28.562,28.562,0,0,1-3.084-13.2,35.829,35.829,0,0,1,2.636-12.808,53.368,53.368,0,0,1,14.442-19.827,63.02,63.02,0,0,1,20.011-11.984,108.045,108.045,0,0,1,21.236-5.184,135.872,135.872,0,0,1,20.462-1.368,143.43,143.43,0,0,1,36.282,4.93,201.035,201.035,0,0,0-23.308-1.566,161.694,161.694,0,0,0-26.687,2.03,128.378,128.378,0,0,0-24.081,6.249,69.134,69.134,0,0,0-15.475,8.348,59.689,59.689,0,0,0-7.353,6.129,51.713,51.713,0,0,0-6.037,7.247,33.784,33.784,0,0,0-6.264,16.886,23.116,23.116,0,0,0,5.221,16.243,31.3,31.3,0,0,0,6.4,6.02c1.091.882,2.746,1.8,3.031,2.024.3.2.631.352.953.535l.493.266.249.135c.076.033.2.145.167,0,0-.691.018-1.406.07-2.14l.055-.671c.03-.385.049-.77.1-1.153.093-.766.156-1.534.274-2.293a59.327,59.327,0,0,1,1.963-8.927,61.342,61.342,0,0,1,7.584-16.108l2.7,1.193a28.163,28.163,0,0,0,4.916,24.458,25.781,25.781,0,0,0,9.728,7.64,28.669,28.669,0,0,0,11.927,2.415l.478,2.634a7.009,7.009,0,0,1-1.267.353,1.9,1.9,0,0,1-.659,0,1.343,1.343,0,0,1-.583-.2,1.53,1.53,0,0,1-.612-.641,1.98,1.98,0,0,1-.132-.359,1.2,1.2,0,0,1-.047-.29,3.407,3.407,0,0,1,.006-.35,4.068,4.068,0,0,1,.068-.42,4.935,4.935,0,0,0,.225-1.634.745.745,0,0,0-.017-.165.672.672,0,0,1-.015-.087l-.048-.17-.211-.683a10.912,10.912,0,0,1-.337-1.325,11.375,11.375,0,0,1-.166-2.585,28.966,28.966,0,0,1,.778-4.9l.28-1.225.144-.614c.019-.157.065-.047.1-.063l.108.035c.3.05.534.315.94.037.673.871,1.342,1.766,2.026,2.58a21.977,21.977,0,0,0,4.028,4.018c.489.329.924.678,1.431.954a26.511,26.511,0,0,0,6.212,2.776,27.073,27.073,0,0,0,6.625,1.1,9.416,9.416,0,0,0,1.034,0,8.176,8.176,0,0,0,1-.061,8.9,8.9,0,0,0,.985-.128l.485-.087.237-.045-.152-.2q-.826-1.07-1.529-2.175c-.139-.237-.671-1.073-1.033-1.735-.371-.7-.767-1.386-1.114-2.1a48.184,48.184,0,0,1-3.378-8.773,45.335,45.335,0,0,1-1.261-18.293l3.4.624a8.063,8.063,0,0,0,.934,5.04,23.751,23.751,0,0,0,3.284,4.826,63.7,63.7,0,0,0,8.768,8.214c3.137,2.5,6.4,4.793,9.688,6.956l.514.336.57.268,1.337.628,2.661,1.252c1.759.857,3.547,1.609,5.318,2.373a143.841,143.841,0,0,0,21.229,7.443c1.769.435,3.525.89,5.293,1.176.881.159,1.758.342,2.636.481l2.631.322,1.31.163,1.305.066,2.6.127a41.481,41.481,0,0,0,5.089-.306,24.259,24.259,0,0,0,7.39-2.028,15.956,15.956,0,0,0,6.419-5.152,18.147,18.147,0,0,0,3.146-8.194,31.492,31.492,0,0,0-.173-9.035,52.8,52.8,0,0,0-5.122-15.3c-1-2.06-2.048-3.79-2.876-5.237C244.866,222.17,244.161,221.067,243.7,220.337Z" /><path class="cls-1 color-hair" d="M165.446,213.131c-4-5.1-13.285-1.1-14.681,5.2s2.411,12.57,6.719,17.411c14.167,15.917,37.066,24.874,57.733,19.4,6.937-1.838,14.361-6.511,14.646-13.631.239-5.981-5.011-11.079-10.8-12.772s-11.982-.786-17.942.136" /><path d="M201.117,228.846a21.646,21.646,0,0,1,4.438-1.013,38.872,38.872,0,0,1,9.468-.5,22.263,22.263,0,0,1,5.481,1.147,18.317,18.317,0,0,1,4.894,2.707,14.174,14.174,0,0,1,5.238,7.678,11.282,11.282,0,0,1-.4,6.6,14.4,14.4,0,0,1-3.868,5.546,23.05,23.05,0,0,1-5.587,3.761,28.917,28.917,0,0,1-6.337,2.255,48.039,48.039,0,0,1-13.182,1.517,54.83,54.83,0,0,1-12.869-1.691,26.792,26.792,0,0,1-2.68-.734c-.883-.276-1.773-.532-2.647-.829-1.714-.682-3.472-1.253-5.116-2.07A61.921,61.921,0,0,1,160.2,241.25c-1.3-1.163-2.435-2.466-3.6-3.715a38.55,38.55,0,0,1-3.194-4,24.464,24.464,0,0,1-4.148-9.195,15.009,15.009,0,0,1-.132-5q.121-.609.242-1.213c.11-.408.262-.822.4-1.224a9.98,9.98,0,0,1,1.209-2.178,11.788,11.788,0,0,1,7.561-4.661,8.178,8.178,0,0,1,4.2.32,6.905,6.905,0,0,1,3.165,2.4,7.172,7.172,0,0,0-3.266-1.592,7.668,7.668,0,0,0-3.818.391,10.289,10.289,0,0,0-5.794,5.032,8.17,8.17,0,0,0-.746,3.446,12.183,12.183,0,0,0,.4,3.366,25.734,25.734,0,0,0,1.953,5,31.563,31.563,0,0,0,4.518,6.762,58.519,58.519,0,0,0,5.647,5.842,59.746,59.746,0,0,0,12.847,8.808,53.794,53.794,0,0,0,27.519,6,43.356,43.356,0,0,0,12.539-2.478c3.775-1.491,7.241-3.7,9.288-6.719a9.913,9.913,0,0,0,1.725-4.875,9.256,9.256,0,0,0-1.019-4.849,14.943,14.943,0,0,0-7.19-6.549,22,22,0,0,0-5.085-1.487,34.719,34.719,0,0,0-5.916-.462C205.616,228.424,202.226,228.8,201.117,228.846Z" /><g class="cls-2"><path class="cls-3" d="M135.458,235.91c-.4-.141-1.4-1.5-2.746-3.568-.663-1.012-1.469-2.3-2.23-3.528-.3-.471-.61-.963-.929-1.468l-.46-.734-.229-.365-.113-.182-.057-.089-.083.086a13.531,13.531,0,0,0-2.253,2.929,16.9,16.9,0,0,0-1.807,4.513,14.157,14.157,0,0,0,.257,7.822c.079.225.157.451.243.7l1.692,4.863-4.484-2.865a15.023,15.023,0,0,1-4.81-4.945,18.067,18.067,0,0,1-2.28-6.688,26.736,26.736,0,0,1-.267-3.47c-.028-.581.015-1.144.022-1.72,0-.288.017-.573.042-.855l.051-.742c-.018-.463-.008-.82,0-1.068.041-.109-.095,0-.175.05l-.243.158c-.152.106-.272.2-.392.294l-.822.636c-.7.585-1.469,1.087-2.111,1.726a29.143,29.143,0,0,0-6.5,8.224,26.734,26.734,0,0,0-2.175,6.132l-.131.789-.068.394-.08.459a3,3,0,0,0-.056.486,15.6,15.6,0,0,0,.019,2.065l.083,2.132c.039.733.027,1.368.108,2.178l.3,2.531q.286,2.446.571,4.878l-5.166-3.606c-.918-.651-1.834-1.267-2.743-1.945L94.074,251a8.3,8.3,0,0,1-1.327-1.219l-1.27-1.457a6.69,6.69,0,0,1-.615-.751l-.537-.863-1.066-1.718c-.234-.458-.354-.812-.531-1.223a18.241,18.241,0,0,1-1.208-4.885,26.835,26.835,0,0,1,.819-9.094c.359-1.382.766-2.716,1.214-3.993a31.489,31.489,0,0,1,1.595-3.878,30.054,30.054,0,0,1,10.31-11.5,33.117,33.117,0,0,1,12.009-4.952c-1.82,1.319-3.946,2.871-5.994,4.675a41.626,41.626,0,0,0-5.641,5.962,36.188,36.188,0,0,0-3.855,6.163c-.954,1.924-1.483,3.507-2.021,4.714-1.962,4.557-3.3,9.16-2.392,13.273l.169.767.254.735.241.688.144.349a6.144,6.144,0,0,0,.865,1.427,5.588,5.588,0,0,0,.609.7,6.792,6.792,0,0,0,.708.676l.388.327.2.165c.03.021.075.069.092.069l-.006-.093-.05-.785c-.03-.413.019-.854.022-1.309.035-.456.112-.927.165-1.411l.2-.972c.1-.443.162-.893.281-1.327.266-.86.479-1.733.786-2.566a31.635,31.635,0,0,1,5.05-9,35.559,35.559,0,0,1,7.1-6.762,14.093,14.093,0,0,1,1.19-.791l1.288-.816a26.856,26.856,0,0,1,2.674-1.475c.9-.476,1.818-.933,2.769-1.363l1.412-.66.706-.331a1.4,1.4,0,0,1,.326.1,97.353,97.353,0,0,0-1.754,9.586,26.374,26.374,0,0,0,.069,5.945,14.213,14.213,0,0,0,1.653,5.122,11.835,11.835,0,0,0,3.36,3.717l-3.021,2.161a19.436,19.436,0,0,1-.763-4.018,18.619,18.619,0,0,1,2.734-11.091l.371-.6a6.827,6.827,0,0,1,.541-.769,15.583,15.583,0,0,1,1.231-1.512,30.5,30.5,0,0,1,2.809-2.638,6.646,6.646,0,0,1,.727-.578l.511.915.982,1.8c.616,1.22,1.219,2.543,1.683,3.56C133.812,231.766,135.067,234.877,135.458,235.91Z" /></g><g class="cls-2"><path class="cls-3" d="M184.842,245.221c-.056.285-.659.617-1.626.927a16.7,16.7,0,0,1-1.705.3,14.461,14.461,0,0,1-2.057.015,18.621,18.621,0,0,1-4.311-.826c-.671-.214-1.3-.452-1.879-.651-.561-.233-1.075-.434-1.517-.585a25.062,25.062,0,0,1-8.5-5.658,34.955,34.955,0,0,1-3.457-3.967,30.777,30.777,0,0,1-2.841-4.487,18.147,18.147,0,0,1-1.631-4.62,13.723,13.723,0,0,1-.074-5.209,12.926,12.926,0,0,1,1.917-4.817,11.162,11.162,0,0,1,3.764-3.547,9.413,9.413,0,0,1,4.9-1.249,9.669,9.669,0,0,1,4.285,1.177,8.163,8.163,0,0,1,2.979,2.721,5.58,5.58,0,0,1,.91,3.506,5.968,5.968,0,0,0-2.921-1.74,7.54,7.54,0,0,0-2.841-.1,9.047,9.047,0,0,0-2.019.542,2.281,2.281,0,0,1-1.051.288,4.558,4.558,0,0,0-3.667,2.157,7.468,7.468,0,0,0-1.26,4.754,12.831,12.831,0,0,0,1.431,4.93,24.878,24.878,0,0,0,2.768,4.252,31.591,31.591,0,0,0,6.64,6.242,33.163,33.163,0,0,0,6.739,3.61c1.043.383,2.457.972,3.855,1.4A30.86,30.86,0,0,0,184.842,245.221Z" /></g><g class="cls-4"><path d="M262.813,420.757a12.078,12.078,0,0,1-5.586-.513,23.906,23.906,0,0,1-14.312-11.321,22.832,22.832,0,0,1-2.367-6.441,25.13,25.13,0,0,1-.5-6.234,27.273,27.273,0,0,1,.258-2.724c.059-.424.11-.836.2-1.223l.058-.289.024-.146.038-.262a10.014,10.014,0,0,1,.521-1.9,5.272,5.272,0,0,1,.5-.968l.131-.185c0-.007.042-.045.009-.027l-.1.055-.2.109c-.26.139-.5.286-.726.434a8.875,8.875,0,0,0-2,1.7l-.5.6c-.393.433-.734.91-1.086,1.378s-.652.972-.984,1.452c-.29.508-.6,1.008-.862,1.528a22.363,22.363,0,0,0-2.187,6.577l-5.016.066a30.417,30.417,0,0,1-.586-7.326,34.835,34.835,0,0,1,1.232-7.121,41.313,41.313,0,0,1,2.615-6.541,45.571,45.571,0,0,1,3.578-5.844,46.891,46.891,0,0,1,4.456-5.338c.782-.853,1.645-1.622,2.476-2.421.859-.744,1.7-1.511,2.589-2.209a95.564,95.564,0,0,1,10.9-7.547c7.4-4.469,14.683-8.186,21.089-12.49a150.617,150.617,0,0,0,30.535-27.014,71.621,71.621,0,0,1-10.778,16.831,67.815,67.815,0,0,1-12.851,12.078c-3.316,2.184-6.667,4.191-10,6.048s-6.619,3.553-9.812,5.261c-6.376,3.41-12.406,6.864-17.531,11.095a42.96,42.96,0,0,0-11.813,14.791,26.674,26.674,0,0,0-2.346,16.983l-2.5.033a26.271,26.271,0,0,1,2.774-7.977,27.967,27.967,0,0,1,2.262-3.45c.406-.55.845-1.068,1.3-1.571.547-.659,1.313-1.3,1.966-1.946.681-.629,1.392-1.122,2.088-1.682.69-.442,1.4-.961,2.073-1.336a41.228,41.228,0,0,1,4.068-2c.677-.305,1.419-.608,2.177-.91l.561-.227.14-.057c.059-.025.007.013.017.016l-.031.067-.119.268c-.073.1-.011.157.043.217l.15.181c-.017.045.167.02.269.022l.355-.009a7.293,7.293,0,0,0,.766-.04q-1.507,2.076-3,4.139c-.3.394-.379.558-.547.814l-.454.713-.91,1.424c-.136.227-.337.5-.42.687l-.214.54-.428,1.076a11.458,11.458,0,0,0-.663,2.087,23.5,23.5,0,0,0-.636,4.954,21.914,21.914,0,0,0,1.871,9.3,24.6,24.6,0,0,0,3.383,5.376,24.145,24.145,0,0,0,14.594,8.381Z" /></g></g></svg>