<svg xmlns="http://www.w3.org/2000/svg" id="outfits_3" viewBox="0 0 380 600"><defs transform="matrix(-1, 0, 0, 1, 380, 0)"><style>.cls-1{fill:#00c5d4;}.cls-2{fill:#c9fff9;}.cls-3{fill:#fff;}.cls-4{fill:#fffffe;}.cls-5{fill:#fffcd9;}.cls-6{fill:#ffffff;}</style></defs><path class="cls-1" d="M253.707,436.551c0-.49-.3-.812-.88-1.757l-4.69-7.673c-.9-1.476-.889-1.762-2.6-2.3-5.089-1.592-10.322-2.9-15.471-4.342l-13.633,3.826c-1.13.317-2.619.5-3.44,1.186-1.525,1.269-2.515,4.114-3.5,5.723-.8,1.313-3.211,3.857-3.269,5.347a1.24,1.24,0,0,0,.025.195c-.483,1.037.552,4.326.742,5.375.258,1.431.62,1.735,1.739,2.894,3.048,3.157,5.921,7.076,9.468,9.81a35.7,35.7,0,0,0,4.524,2.5c1.812,1,4.8,3.489,6.916,3.8,1.209.177,2.423-.863,3.585-1.5,2.445-1.343,4.9-2.668,7.335-4.029,3.327-1.862,5.658-5.2,8.177-7.816,1.233-1.277,3.3-2.777,4.141-4.291.766-1.384.689-3.554.953-5.079C254.044,437.216,254.143,436.848,253.707,436.551Z" transform="matrix(-1, 0, 0, 1, 380, 0)" /><path d="M253.724,436.526a.52.52,0,0,1,.375.288,1.753,1.753,0,0,1,.1.88c-.062.679-.141,1.506-.177,2.574a8.153,8.153,0,0,1-.827,3.71,16.947,16.947,0,0,1-2.981,3.257c-2.119,1.973-3.951,4.643-6.144,6.723a17.119,17.119,0,0,1-3.422,2.6l-2.873,1.713-4.313,2.627a10.242,10.242,0,0,1-2.578,1.427,3.785,3.785,0,0,1-1.008.154,4.918,4.918,0,0,1-.958-.119,8.831,8.831,0,0,1-1.493-.513,43.982,43.982,0,0,1-4.762-2.767c-1.331-.818-3.069-1.391-4.827-2.486-.219-.14-.445-.295-.66-.455l-.574-.444c-.375-.3-.75-.6-1.1-.923-.719-.628-1.4-1.283-2.053-1.949-1.312-1.33-2.522-2.7-3.716-4.019-.6-.659-1.189-1.306-1.785-1.93l-.913-.933a8.268,8.268,0,0,1-1.1-1.3,5.56,5.56,0,0,1-.727-1.835l-.134-.617-.154-.608c-.218-.851-.449-1.737-.608-2.721a9.26,9.26,0,0,1-.118-1.184,3.912,3.912,0,0,1,.3-1.735L204.319,437a3.869,3.869,0,0,1,.336-2.078,9.161,9.161,0,0,1,.655-1.247c.451-.733.918-1.356,1.367-1.955s.9-1.179,1.154-1.6c.3-.5.6-1.142.928-1.8s.672-1.355,1.1-2.066a9.066,9.066,0,0,1,1.72-2.168,3.621,3.621,0,0,1,.352-.287c.137-.1.262-.175.4-.26a5.793,5.793,0,0,1,.737-.357,9.8,9.8,0,0,1,1.282-.408l1.077-.254.453-.112.51-.139,8.127-2.192,3.965-1.043,1.354-.36.231-.062c.077.015.154.043.23.064l.461.134.644.191,1.915.582,7.4,2.295L244.242,423l1.719.554c.3.11.615.226.961.39a3.792,3.792,0,0,1,1.092.76,8.074,8.074,0,0,1,1.093,1.721q.412.751.817,1.487.8,1.478,1.569,2.89l1.478,2.763q.356.667.7,1.318c.118.215.241.427.367.682a1.994,1.994,0,0,1,.238.988,1.71,1.71,0,0,0-.392-.845c-.171-.208-.344-.375-.518-.555-.345-.353-.69-.743-1.048-1.143-.713-.8-1.456-1.674-2.212-2.587s-1.523-1.868-2.287-2.841l-1.138-1.482a2.441,2.441,0,0,0-.453-.5,1.328,1.328,0,0,0-.36-.138c-.366-.115-1-.232-1.589-.344l-1.741-.346c-1.137-.233-2.224-.469-3.23-.7-2.014-.467-3.708-.924-4.852-1.321l-2.329-.8-1.157-.395-.576-.2c-.079-.028-.23-.076-.25-.087l-.041-.028c-.03-.028-.064-.021-.1-.023h-.027l-.137.031-.295.067-1.177.268-2.331.539Q221.4,424.2,217,425.294c-1.573.415-3.048.474-3.678,1.246a14.65,14.65,0,0,0-2.162,3.442,18.9,18.9,0,0,1-1.111,1.958c-.442.624-.886,1.163-1.306,1.71a19.779,19.779,0,0,0-1.157,1.621,5.441,5.441,0,0,0-.417.793,1.077,1.077,0,0,0-.132.6l.083.184-.15.246a1.833,1.833,0,0,0-.053.655,7.947,7.947,0,0,0,.105.934c.1.641.254,1.291.413,1.945l.24,1c.086.379.128.674.207.944a2.936,2.936,0,0,0,.864,1.361c1.871,1.891,3.568,3.909,5.259,5.75a31.728,31.728,0,0,0,5.3,4.844c.945.59,2.023,1.059,3.106,1.59a16.536,16.536,0,0,1,1.625.89q.747.478,1.483.953a25.688,25.688,0,0,0,2.83,1.66,5.709,5.709,0,0,0,1.327.459.937.937,0,0,0,.449.006,2.462,2.462,0,0,0,.537-.186,11.765,11.765,0,0,0,1.29-.754c.234-.148.478-.3.744-.451l.706-.4,2.784-1.55,2.725-1.5c.439-.245.921-.493,1.318-.73a11.744,11.744,0,0,0,1.162-.764,29.952,29.952,0,0,0,4.1-3.877,37.856,37.856,0,0,1,3.377-3.39,18.409,18.409,0,0,0,3.581-3.324,6.542,6.542,0,0,0,.718-2.076c.135-.733.261-1.416.373-2.026s.289-1.148.382-1.582a1.459,1.459,0,0,0,.04-.583A.665.665,0,0,0,253.724,436.526Z" transform="matrix(-1, 0, 0, 1, 380, 0)" /><path class="cls-2" d="M230.07,420.483l-13.633,3.826c-1.13.317-2.619.5-3.44,1.186-1.525,1.269-2.515,4.114-3.5,5.723-.8,1.313-3.211,3.857-3.269,5.347-.04,1.015,1.467,2.642,2.031,3.564,1.64,2.683,3.034,7.491,6.54,8.475l8.109,2.276c2.04.573,4.622,1.761,6.769,1.9a10.65,10.65,0,0,0,3.412-.738l8.613-2.417c1.337-.376,4.167-.666,5.26-1.477,1.123-.833,1.892-3.072,2.575-4.189,1.242-2.032,3.1-4.231,3.923-6.419.5-1.323.239-1.317-.635-2.747l-4.69-7.672c-.9-1.476-.889-1.762-2.6-2.3C240.452,423.232,235.219,421.928,230.07,420.483Z" transform="matrix(-1, 0, 0, 1, 380, 0)" /><path class="cls-1" d="M230.072,420.475c.5.06,5.1,1.312,10.418,2.773l4.068,1.12a13.13,13.13,0,0,1,2.033.654,2.362,2.362,0,0,1,.876.682,8.565,8.565,0,0,1,.571.874c1.418,2.281,2.7,4.347,3.62,5.826q.612.975,1.236,1.968l.634.983a2.163,2.163,0,0,1,.486,1.252,4.228,4.228,0,0,1-.339,1.247,11.61,11.61,0,0,1-.515,1.122,24.422,24.422,0,0,1-1.267,2.1,33.127,33.127,0,0,0-2.572,4.116,18.242,18.242,0,0,1-1.188,2.236,4.308,4.308,0,0,1-.908,1.025,4.435,4.435,0,0,1-1.232.6c-1.654.547-3.316.675-4.865,1.177l-4.783,1.361c-1.6.464-3.147.872-4.722,1.38a7.379,7.379,0,0,1-1.273.259,5.351,5.351,0,0,1-1.317-.049,15.321,15.321,0,0,1-2.41-.57c-1.352-.415-2.645-.93-3.945-1.291l-3.992-1.114-3.96-1.111a6.049,6.049,0,0,1-1.98-1.011,9.038,9.038,0,0,1-1.489-1.557c-1.7-2.254-2.465-4.922-3.946-6.932a15.927,15.927,0,0,1-1.125-1.672,3.416,3.416,0,0,1-.4-1.054,2.3,2.3,0,0,1,.173-1.175,15.022,15.022,0,0,1,2.138-3.3c1.644-1.837,2.244-4.271,3.771-6.264a4.41,4.41,0,0,1,1.427-1.282,7.712,7.712,0,0,1,1.732-.57c1.129-.235,2.187-.549,3.269-.833l11.733-3.108c-3.072,1.076-7.608,2.532-11.916,3.861l-1.6.491c-.55.164-1.081.282-1.581.424a5.7,5.7,0,0,0-1.344.523,3.64,3.64,0,0,0-.932.9,30.908,30.908,0,0,0-2.211,3.967,11.258,11.258,0,0,1-.916,1.488c-.342.461-.692.892-1.03,1.327a12.68,12.68,0,0,0-1.733,2.655,1.366,1.366,0,0,0,.019,1.278,8.676,8.676,0,0,0,.8,1.321c.3.438.63.854.93,1.336.279.474.531.949.765,1.428a24.114,24.114,0,0,0,3.076,5.336,5.483,5.483,0,0,0,2.37,1.642c.949.3,1.927.56,2.878.837l5.65,1.612a54.528,54.528,0,0,0,5.409,1.679c1.816.519,3.515-.442,5.277-.849l5.132-1.449,2.5-.71c.85-.235,1.692-.364,2.515-.544a10.867,10.867,0,0,0,2.351-.7,3.849,3.849,0,0,0,1.534-1.715c.393-.7.714-1.442,1.087-2.17a23.008,23.008,0,0,1,1.292-2.049,33.667,33.667,0,0,0,2.463-3.917,10.131,10.131,0,0,0,.436-1.023,1.832,1.832,0,0,0,.165-.953,3.583,3.583,0,0,0-.491-.9l-.594-.949L250.06,430.8l-2.191-3.6a5.612,5.612,0,0,0-1.123-1.572,6.2,6.2,0,0,0-1.787-.707C240.093,423.542,231.716,420.986,230.072,420.475Z" transform="matrix(-1, 0, 0, 1, 380, 0)" /><polygon class="cls-3" points="216.672 450.897 228.984 459.419 228.491 454.135 216.672 450.897" transform="matrix(-1, 0, 0, 1, 380, 0)" /><path class="cls-3" d="M216.677,450.883c.336-.234,4.917,1.034,6.73,1.344.842.144,1.71.313,2.6.5l1.343.293.679.154,1.239.311c.119,1,.239,2,.358,3.008.148,1.37.294,2.732.437,4.061.031.3.062.594.09.859l-3.476-2.376-1.729-1.21c-1.125-.8-2.208-1.6-3.228-2.377-2.04-1.558-3.829-3.04-5.207-4.318a15.751,15.751,0,0,1,5.805,2.483c1.207,1.078,2.4,2.067,3.549,2.978l1.661,1.279c.307.243.652.5.99.747q-.034-.429-.069-.843c-.036-.361-.072-.715-.106-1.063l-.141-1.3q-.059-.481-.116-.94l-3.924-.965c-1.314-.336-2.537-.672-3.677-1.044A32.145,32.145,0,0,1,216.677,450.883Z" transform="matrix(-1, 0, 0, 1, 380, 0)" /><polygon class="cls-3" points="216.078 446.603 222.983 441.647 227.763 450.06 216.078 446.603" transform="matrix(-1, 0, 0, 1, 380, 0)" /><path class="cls-3" d="M216.083,446.588c.324-.231,4.573,1.039,6.263,1.351.9.167,1.834.366,2.783.586a1.889,1.889,0,0,0,.672.118.582.582,0,0,0,.16-.014c-.091-.114-.154-.186-.2-.232l-.031-.028c.011.023-.04-.063-.081-.131l-.122-.2q-.243-.405-.483-.8c-.523-.871-1.032-1.745-1.518-2.6-.24-.43-.476-.856-.709-1.273l-.139-.258,0-.012,0-.043a.054.054,0,0,0-.026,0l-.02,0c-.007,0,0-.012-.111.065l-1,.649q-.982.63-1.906,1.189c-1.228.742-2.364,1.38-3.373,1.892a13.847,13.847,0,0,1,3.954-4.391l1.253-.686.15-.084.237-.147.484-.3.874-.547q.78,1.561,1.508,3.021.576,1.144,1.155,2.2l1.2,2.138,1.582,2.717-5.308-1.447c-1.342-.367-2.588-.73-3.738-1.136A28.13,28.13,0,0,1,216.083,446.588Z" transform="matrix(-1, 0, 0, 1, 380, 0)" /><polygon class="cls-3" points="225.937 441.564 230.074 448.281 234.744 441.564 225.937 441.564" transform="matrix(-1, 0, 0, 1, 380, 0)" /><path class="cls-3" d="M225.937,441.548c.2-.314,3.835-.3,5.235-.481.585-.072,1.088-.132,1.791-.182l3.316-.124-3.192,4.878-1.112,1.658-1.951,2.774c-1.927-3.194-2.172-3.741-2.864-5.089-.6-1.2-1.093-2.3-1.465-3.269a9.643,9.643,0,0,1,3.555,3.365c.215.523.44,1.036.656,1.514a2.662,2.662,0,0,0,.2.639A5.508,5.508,0,0,0,231,446.2c.438-.578.85-1.146,1.242-1.7l1.1-1.617q.274-.441.531-.857l-.862.054-.185.011-.367.011-.719.017c-.944.018-1.833.013-2.676-.04A19.118,19.118,0,0,1,225.937,441.548Z" transform="matrix(-1, 0, 0, 1, 380, 0)" /><path class="cls-3" d="M208.389,436.981s5.88-.206,5.757.116-1.608,6.331-1.608,6.331Z" transform="matrix(-1, 0, 0, 1, 380, 0)" /><path class="cls-3" d="M208.4,436.973c.351-.034,1.922,2.429,2.682,3.278l.5.578.249.3a.928.928,0,0,0,.107.089.62.62,0,0,0,.236.129c.027.034.027-.061.029-.126v-.153l-.006-.112,0-.02.038-.179.084-.387c.114-.527.236-1.051.363-1.558.066-.253.13-.5.193-.748.1-.375.042-.13.052-.14.032-.02.046-.059-.011-.1l-1.636-.157c-1.073-.109-2.05-.241-2.881-.408a6.256,6.256,0,0,1,3.8-1.325l.7.14a10.313,10.313,0,0,1,1.09.192,1.1,1.1,0,0,1,.7.462q-.039.425-.075.824L214,439.452c-.16.513-.3,1.016-.433,1.508q-.239.963-.465,1.872-.12.512-.236,1.01l-.118.51-.029.128c-.015.012-.042-.052-.062-.074l-.132-.193-1.98-2.883a22.5,22.5,0,0,1-1.218-1.96A12.624,12.624,0,0,1,208.4,436.973Z" transform="matrix(-1, 0, 0, 1, 380, 0)" /><path class="cls-1" d="M217.01,437.99c0,.318-1.467,5.41-1.467,5.41l5.5-3.289Z" transform="matrix(-1, 0, 0, 1, 380, 0)" /><path class="cls-1" d="M217.017,437.976c.132-.108.733.123,1.413.415l1.034.449.587.255.589.243c.517.2,1.092.439,1.757.736-.386.284-.837.6-1.33.93l-1.367.912-.875.592-.436.288-.662.423c-1.3.819-2.67,1.646-3.831,2.32.324-1.081.658-2.147.974-3.121q.235-.708.462-1.393l.1-.3.068-.171.137-.333c.183-.438.371-.851.557-1.234l.276-.551.134-.255.065-.12a.188.188,0,0,1,.025-.039l.013-.016.007-.008,0,0,.185,0c-.051,0-.2,0-.173,0l.008.006.017.012.034.03a.305.305,0,0,1,.059.09c.035.067.07.139.1.213a4.052,4.052,0,0,1,.159.47,5.815,5.815,0,0,1,.182.987,2.936,2.936,0,0,1-.122,1.44c-.213-.021-.5.476-.747,1.006a1.922,1.922,0,0,0,.7-.26c.164-.086.262-.139.484-.27l.7-.425.662-.423.318-.21.171-.124.52-.4c-.232-.1-.415-.18-.576-.264l-.287-.163q-.255-.149-.495-.3A8.934,8.934,0,0,1,217.017,437.976Z" transform="matrix(-1, 0, 0, 1, 380, 0)" /><path class="cls-3" d="M209.5,434.247s6.68-4.249,6.214-4.249-2.02-2.549-2.02-2.549Z" transform="matrix(-1, 0, 0, 1, 380, 0)" /><path class="cls-3" d="M209.482,434.239c-.188-.295,1.269-2.632,1.674-3.63.242-.6.524-1.208.83-1.819l.253-.492.464-.822.99-1.712,1.012,1.557q.258.385.528.76c.109.157.12.161.175.234l.136.172c-.1.1,1.477,1.117,1.186,1.5a1.231,1.231,0,0,1-.045.332,1.13,1.13,0,0,1-.245.412,6.355,6.355,0,0,1-.942.746l-.6.4-.519.324q-.518.313-1.025.6a23.319,23.319,0,0,1-3.707,1.69,6.1,6.1,0,0,1,2.322-3q.972-.376,1.834-.808l.424-.218.206-.112.117-.053a2.747,2.747,0,0,0,.458-.257c-.08-.154-.346-.418-.71-.967l-.59-.855a8.345,8.345,0,0,0-.437.8q-.363.651-.7,1.259a22.359,22.359,0,0,1-1.4,2.226A11.456,11.456,0,0,1,209.482,434.239Z" transform="matrix(-1, 0, 0, 1, 380, 0)" /><polygon class="cls-1" points="215.624 434.807 215.712 432.517 211.476 434.649 215.624 434.807" transform="matrix(-1, 0, 0, 1, 380, 0)" /><path class="cls-1" d="M215.624,434.823c-.059.29-1.858.231-3.123.328l-.147,0a1.211,1.211,0,0,1-1.079-.453,1.886,1.886,0,0,0-.16-.838l-.041-.1,1.745-.9,1.533-.758c.838-.4,1.627-.751,2.281-1.013a12.442,12.442,0,0,1-.724,3.735,3.236,3.236,0,0,1-.546-.545.56.56,0,0,0-.421-.244c-.23,0-.348.229-.27.11.022-.037.045-.073.065-.105.144-.265.009-.333-.2-.319-.14.024-.144-.01-.228.006a1.191,1.191,0,0,0-.236.064,3.451,3.451,0,0,0-.865.488c.6-.027,1.059-.075,1.312-.066a.971.971,0,0,1,.348.063c.1.02.167.13.319.251A4.036,4.036,0,0,0,215.624,434.823Z" transform="matrix(-1, 0, 0, 1, 380, 0)" /><polygon class="cls-3" points="219.277 424.903 223.807 424.616 225.952 423.164 219.277 424.903" transform="matrix(-1, 0, 0, 1, 380, 0)" /><path class="cls-3" d="M219.273,424.888c.031-.333,2.017-.837,2.735-1.21a24.083,24.083,0,0,1,3.707-1.423l.764,1.688-.39.3c-.29.22-.584.432-.875.632l-1.078.712-.6.023-.327,0-.639-.008c-.419-.012-.823-.036-1.209-.07a12.777,12.777,0,0,1-2.068-.343,3.774,3.774,0,0,1,2.582-1.428c.337.074.666.134.983.183a6.226,6.226,0,0,1,.759.123,2.21,2.21,0,0,0,.487-.225l.577-.324c.374-.219.724-.444,1.055-.669l.311.688c-1.949.513-3.5,1.207-4.938,1.415A6.7,6.7,0,0,1,219.273,424.888Z" transform="matrix(-1, 0, 0, 1, 380, 0)" /><polygon class="cls-1" points="216.008 427.031 220.511 426.598 216.541 428.227 216.008 427.031" transform="matrix(-1, 0, 0, 1, 380, 0)" /><path class="cls-1" d="M216.021,427.025c.1-.028.25.139.375.3s.233.313.331.444a1.857,1.857,0,0,0,.454-.337.928.928,0,0,1,.245-.218l.331-.231c.226-.15.461-.291.7-.426.478-.269.971-.512,1.438-.745l.242-.119.467,1.889a10.133,10.133,0,0,1-4.569-.263c.45-.874,1.417-1.55,1.8-1.44a8.285,8.285,0,0,0,2.642.327l.19.767a15.857,15.857,0,0,0-2.139.968c-.328.168-.6.31-.938.461a11.9,11.9,0,0,1-1.31.494l-.02-.058a4.938,4.938,0,0,1-.255-1.157A2.56,2.56,0,0,1,216.021,427.025Z" transform="matrix(-1, 0, 0, 1, 380, 0)" /><polygon class="cls-1" points="244.289 446.614 237.443 441.701 232.704 450.042 244.289 446.614" transform="matrix(-1, 0, 0, 1, 380, 0)" /><path class="cls-1" d="M244.293,446.629c-.144.37-4.364,1.606-5.938,2.259-.838.348-1.722.686-2.629,1.016-.292.117-1.339.453-2.15.716l-2.675.853,2.825-5.185c.476-.888.962-1.766,1.447-2.615l1.964-3.367,1.827,1.362.924.73q.9.723,1.721,1.414c1.086.919,2.045,1.785,2.846,2.571a13.636,13.636,0,0,1-5.386-2.312l-1.04-.96L237.9,443c-.027-.027-.019-.028-.031-.045l-.056-.084a2.5,2.5,0,0,0-.159-.194,1.61,1.61,0,0,0-.146.144,1.792,1.792,0,0,0-.232.311l-.7,1.08q-.682,1.071-1.293,2.1l-1.106,1.92q-.307.576-.6,1.117l1.269-.44,1.945-.635c1.314-.419,2.547-.789,3.722-1.072A27.85,27.85,0,0,1,244.293,446.629Z" transform="matrix(-1, 0, 0, 1, 380, 0)" /><path class="cls-3" d="M252.392,436.569s-6.715-.235-6.574.133,1.836,7.23,1.836,7.23Z" transform="matrix(-1, 0, 0, 1, 380, 0)" /><path class="cls-3" d="M252.405,436.578c.164.325-1.652,3.123-2.2,4.3l-.377.787-.2.4-.1.2-.142.258c-.508.887-1.086,1.862-1.7,2.876l-.231.382-.117.192c-.009.01-.021.044-.027.036l-.014-.048-.027-.1-.222-.781-.449-1.615-.433-1.578c-.082-.284-.164-.565-.244-.843-.16-.588-.32-1.173-.475-1.744l-.545-2.236c.03-.264.059-.525.087-.785l.011-.1v-.018c.107.07.03.018.054.032v0l0-.026.011-.053c0-.085.071-.1.108-.15a1.291,1.291,0,0,1,.328-.2,3.2,3.2,0,0,1,.916-.145c.162-.012.319-.009.477-.014l.3,0c.685.021,1.33.071,1.944.135a25.865,25.865,0,0,1,3.256.537,8.838,8.838,0,0,1-4.344,1.189,6.67,6.67,0,0,1-1.134-.209.823.823,0,0,0-.288-.051c-.055.042-.034.123-.044.2a.952.952,0,0,0,0,.164l.085.487.183.947c.126.619.262,1.217.4,1.8.071.28.14.556.209.828q.069.256.138.5l.134.45c.05.095.062.406.165.134.372-.646.431-.822,1.041-1.81.488-.8.967-1.542,1.465-2.211A16.409,16.409,0,0,1,252.405,436.578Z" transform="matrix(-1, 0, 0, 1, 380, 0)" /><path class="cls-3" d="M243.126,436.938c0,.4,1.852,6.831,1.852,6.831l-6.945-4.153Z" transform="matrix(-1, 0, 0, 1, 380, 0)" /><path class="cls-3" d="M243.133,436.951c0,.178-.68.621-1.478,1.107l-1.217.734-.545.34a1.209,1.209,0,0,0-.244.2,2.312,2.312,0,0,0-.262.326c.215.075.369.123.482.153l.078.02a.181.181,0,0,1,.041.011l.147.077.592.31,2.32,1.264.268.146.008,0a.017.017,0,0,0,0-.012s0,0,.014.017.051.043.077,0a.259.259,0,0,0,.018-.047l-.093-.455q-.086-.462-.169-.908c-.1-.594-.185-1.162-.243-1.7a11.734,11.734,0,0,1-.089-1.584c.252.347.521.551.774.884a9.814,9.814,0,0,1,.706.984,4.737,4.737,0,0,1,.751,1.716,21.442,21.442,0,0,0,.378,2.313q.216,1.1.413,2.082a97.813,97.813,0,0,0-8.9-5.33l2.178-1.184.754-.384.665-.307A13.883,13.883,0,0,1,243.133,436.951Z" transform="matrix(-1, 0, 0, 1, 380, 0)" /><path class="cls-3" d="M250.213,433.6s-5.245-3.335-4.879-3.335,1.586-2,1.586-2Z" transform="matrix(-1, 0, 0, 1, 380, 0)" /><path class="cls-3" d="M250.2,433.605c-.33.063-1.455-1.783-2.045-2.4-.356-.371-.7-.777-1.035-1.2-.153-.127-.193-.12-.233-.106a.909.909,0,0,0-.038.2c-.077.11-.028.05-.039.071l.006.007.011,0c.006,0,0,0,0,0-.075-.042.272.213.506.392l.719.567a17.263,17.263,0,0,1,2.317,2.21,4.027,4.027,0,0,1-3.053-.47c-.369-.417-.742-.8-1.114-1.155-.155-.158-.426-.387-.715-.634a1.942,1.942,0,0,1-.577-.7.406.406,0,0,1-.029-.093c0-.029.031-.028.045-.041a.449.449,0,0,0,.1-.131.993.993,0,0,1,.282-.357,1.3,1.3,0,0,0,.357-.356l.122-.156.137-.187c.356-.5.671-1.031.987-1.567q.9,1.313,1.691,2.463a13.745,13.745,0,0,1,1.07,1.773A7.386,7.386,0,0,1,250.2,433.605Z" transform="matrix(-1, 0, 0, 1, 380, 0)" /><polygon class="cls-3" points="241.656 425.041 236.404 424.709 233.917 423.026 241.656 425.041" transform="matrix(-1, 0, 0, 1, 380, 0)" /><path class="cls-3" d="M241.652,425.056c-.206.27-2.5-.34-3.433-.4a32.139,32.139,0,0,1-4.539-.723l.764-1.689.483.3c.36.22.714.447,1.055.674l.5.339.24.169c.025.019.006.01.012.018a3.639,3.639,0,0,0,.491.063l.734.1c.48.069.942.147,1.382.234a16.932,16.932,0,0,1,2.333.622,4.716,4.716,0,0,1-3.166,1.064c-.377-.119-.748-.224-1.106-.315l-.528-.128-.268-.058-.39-.061-.734-.6-.6-.474c-.4-.3-.794-.583-1.178-.841l.312-.689c2.262.584,4.217.8,5.792,1.379A8.673,8.673,0,0,1,241.652,425.056Z" transform="matrix(-1, 0, 0, 1, 380, 0)" /><path class="cls-1" d="M239.513,426.121l5.657.26a20.472,20.472,0,0,1-1.636,1.732C243.487,428.026,239.513,426.121,239.513,426.121Z" transform="matrix(-1, 0, 0, 1, 380, 0)" /><path class="cls-1" d="M239.52,426.107c.227-.24,1.873.568,2.587.718q.472.1.956.254l.486.166.26.105.071.031a1.082,1.082,0,0,1,.327.29l.034.049,0,.007c.155-.08-1.337.723-.7.382l0,0V428.1c-.006-.007-.013-.062-.033-.084-.04-.05-.113-.189-.185-.267l-.241-.3s0,0,0-.007c.076-.167.023-.178-.027-.178-.07.016-.078.035-.063.017a.061.061,0,0,0,0-.015l0-.011s.018-.008-.076-.017q-.4-.046-.776-.108a11.786,11.786,0,0,1-2.644-.718,3.232,3.232,0,0,1,2.44-1.152c.224.084.446.159.664.226a4.484,4.484,0,0,0,.763.186c.676.119,1.245.2,1.747.272l.749.088.093.009c.012,0,.037,0,.039.007l-.036.039-.142.153-.269.3-.977,1.125-.479.55a1.991,1.991,0,0,1-.269.264l-.042.029a.571.571,0,0,1-.133.054.488.488,0,0,1-.4-.09.438.438,0,0,1-.085-.089c-.374.151.442-.314.344-.25l-.074.041a1.291,1.291,0,0,0-.267.209c0,.064.115.111.064.087l-.1-.044-.875-.372a10.131,10.131,0,0,1-1.549-.781A5.606,5.606,0,0,1,239.52,426.107Z" transform="matrix(-1, 0, 0, 1, 380, 0)" /><polygon class="cls-1" points="227.517 424.402 230.17 422.307 233.164 424.402 227.517 424.402" transform="matrix(-1, 0, 0, 1, 380, 0)" /><path class="cls-1" d="M227.517,424.387c.051-.157.54-.232,1.105-.291l.86-.084a2.184,2.184,0,0,0,.607-.106c.41-.236.311-.338.209-.407a.418.418,0,0,0-.155-.031c-.089,0,.136.147.061.014a.08.08,0,0,0-.04-.024l-.035-.006-.188.111q-.4.24-.788.439a10.193,10.193,0,0,1-1.459.624,3.28,3.28,0,0,1,1.109-2.485,2.219,2.219,0,0,0,.271-.114l.4-.224.671-.372a32.7,32.7,0,0,0,4.272,3.366l-2.916.129c-.492.02-.993.034-1.479.034a7.473,7.473,0,0,1-.91-.049A5.654,5.654,0,0,1,227.517,424.387Z" transform="matrix(-1, 0, 0, 1, 380, 0)" /><polygon class="cls-1" points="244.948 434.824 245.378 432.588 248.348 434.606 244.948 434.824" transform="matrix(-1, 0, 0, 1, 380, 0)" /><path class="cls-1" d="M244.947,434.809c.085-.32,1.091-.372,1.089-.552a.563.563,0,0,0-.127-.316c-.139-.011-.085.072.007.18a1.006,1.006,0,0,0,.144.134c.028.026.006.011.013.012s0-.044-.055-.13c-.044-.059-.122-.09-.245-.017a.675.675,0,0,0-.1.073l-.143.245q-.145.236-.3.44a3.106,3.106,0,0,1-.475-.533,1.372,1.372,0,0,1-.3-.7,3.893,3.893,0,0,1,.056-1.7c.13-.26.243-.483.336-.646a28.251,28.251,0,0,0,2.535,2.172c.725.534,1.453.984,2.293,1.5a16.461,16.461,0,0,1-3.021.258,4.518,4.518,0,0,1-1.084-.171A2.473,2.473,0,0,1,244.947,434.809Z" transform="matrix(-1, 0, 0, 1, 380, 0)" /><polygon class="cls-3" points="230.136 425.854 227.943 431.29 216.979 432.377 227.943 433.464 230.136 438.899 232.329 433.464 243.293 432.377 232.329 431.29 230.136 425.854" transform="matrix(-1, 0, 0, 1, 380, 0)" /><path class="cls-3" d="M230.15,425.849a8.907,8.907,0,0,1,.883,1.7c.405.925.938,2.144,1.51,3.453l7.879.667,1.583.312a8.3,8.3,0,0,1,1.348.395,2.521,2.521,0,0,0-1.2.874l-9.21,1.029-.013.046a.8.8,0,0,1-.054.148l-.265.685-.533,1.372c-.65,1.642-1.3,3.28-1.94,4.9l-1.32-3.219-1.571-3.814-10.289-1.031a1.99,1.99,0,0,0-.067-.987,1.787,1.787,0,0,1,1.01-.9l5.849-.479,2.381-.179,1.077-.077c.2-.009.207,0,.329,0,.058-.085.371-.8.579-1.253.225-.491.436-.949.636-1.384.41-.862.775-1.628,1.122-2.359-.121.781-.312,1.7-.547,2.687-.124.494-.252,1-.382,1.52l-.211.78-.054.2-.1.3-.208.63-.665.11-.31.052-.069.027a1.752,1.752,0,0,0-.2.1c-.1.057-.127.1-.122.133.009.066.146.09.111.095l-.137-.008c-.552-.031-1.411-.021-2.356.009-.393.043-.19.128.218.221.34.065.791.136,1.294.208l.786.108,1.32.154c.665,1.687,1.308,3.317,1.9,4.807l1.905-4.8,2.268-.258,1.5-.186,2.009-.258c-.964-.08-1.714-.148-2.381-.222-.519-.058-1-.12-1.509-.2-.211-.026-.439-.062-.68-.106-.13-.025-.257-.05-.378-.072l-.819-.124c-.141-.4-.281-.791-.417-1.176q-.159-.471-.309-.919l-.538-1.653Z" transform="matrix(-1, 0, 0, 1, 380, 0)" /><polygon class="cls-3" points="236.715 429.116 230.136 430.839 223.558 429.116 227.035 432.377 223.558 435.638 230.136 433.914 236.715 435.638 233.237 432.377 236.715 429.116" transform="matrix(-1, 0, 0, 1, 380, 0)" /><path class="cls-3" d="M236.725,429.127a5.491,5.491,0,0,1-1.016,1.224c-.547.555-1.259,1.278-1.994,2.026l.367.319.551.492,1.5,1.35a9.887,9.887,0,0,1,.689,1.157l-.12.019a3.118,3.118,0,0,0-.9.307l-5.667-1.279a.577.577,0,0,1-.078.03l-.284.083-.572.167-1.16.334-4.087,1.122a6.578,6.578,0,0,1-.6-.728c-.081-.188-.165-.365-.256-.538l-.175-.318,2.16-2.046.494-.467v0h0l-.009-.009-.547-.514-2.123-2c.172-.3.326-.577.456-.85a4.64,4.64,0,0,1,.587-.741l2.453.679,1.141.319.611.183,1.12.342.538.169.264.083.072.033,3.466-.7c1.107-.211,2.112-.385,3.041-.531a23.126,23.126,0,0,1-2.967,1.581c-.562.257-1.138.5-1.7.728l-.824.32c-.3.109-.415.165-1.018.343l-1.354-.3a8.364,8.364,0,0,1-.825-.237l-.707-.251c-.166-.054-.1-.047-.133-.066l-.05-.043a2.291,2.291,0,0,0-.364-.2c-.245-.112-.575-.241-.916-.368a3.593,3.593,0,0,0,.333.445l.371.419.054.059.106.106.355.347.67.654-1.85,1.67-.905.838,1.188-.32,4.027-1.124,2.534.617,1.245.287.818.2-.618-.591-.467-.492c-.372-.357-.779-.763-1.081-1.082,1.246-1.09,1.917-1.582,2.655-2.145C235.93,429.7,236.506,429.279,236.725,429.127Z" transform="matrix(-1, 0, 0, 1, 380, 0)" /><polygon class="cls-1" points="237.624 434.21 242.561 434.067 239.516 437.067 237.624 434.21" transform="matrix(-1, 0, 0, 1, 380, 0)" /><path class="cls-1" d="M237.637,434.2c.159-.044.491.321.851.758.348.42.8,1.025.9,1.009a1.035,1.035,0,0,0,.239.074,3.426,3.426,0,0,0,.148-.312l.033-.1.257-.306c.129-.143.066-.1.086-.13a.143.143,0,0,0,0-.037.038.038,0,0,0-.039-.03.153.153,0,0,0-.06.011.105.105,0,0,0,.048-.045.058.058,0,0,0,0-.058.142.142,0,0,0-.029-.036c-.013-.007,0-.014-.039-.02l-.159-.018a11.094,11.094,0,0,1-2.232-.469,3.263,3.263,0,0,1,2.374-1.331c1.768.235,2.73.366,3.693.418-1.036.907-1.717,1.578-2.408,2.3-.663.714-1.285,1.387-1.86,2.008-.285-.4-.567-.8-.83-1.195l-.192-.3-.125-.2c-.074-.126-.143-.253-.207-.38A5.627,5.627,0,0,1,237.637,434.2Z" transform="matrix(-1, 0, 0, 1, 380, 0)" /><polygon class="cls-1" points="232.111 425.926 233.016 428.425 238.035 426.732 232.111 425.926" transform="matrix(-1, 0, 0, 1, 380, 0)" /><path class="cls-1" d="M232.113,425.911c.077-.148.619-.151,1.243-.125l.476.023.643.045c.434.03.857.054,1.208.057.515,0,1.083.025,1.735.066a1.2,1.2,0,0,1,.819.736,1.961,1.961,0,0,0,.031.61c.025.12.051.24.075.355-2.052.717-4.235,1.395-5.837,1.807a15.789,15.789,0,0,1-.553-2.208,10.733,10.733,0,0,1-.109-1.254,4.34,4.34,0,0,1,1.416.987c.088.075.21.263.237.216a.173.173,0,0,0,.093-.029c.04-.028.041-.053.02,0l0,0c-.155.4.752.26,1.419.105a8.068,8.068,0,0,0,1.258-.4c-.583-.051-1.147-.072-1.535-.087a2.884,2.884,0,0,1-.991-.149A6.818,6.818,0,0,1,232.113,425.911Z" transform="matrix(-1, 0, 0, 1, 380, 0)" /><polygon class="cls-4" points="241.792 422.832 247.974 410.784 245.983 424.178 258.031 430.359 244.637 428.368 238.455 440.416 240.446 427.022 228.398 420.84 241.792 422.832" transform="matrix(-1, 0, 0, 1, 380, 0)" /><path class="cls-5" d="M241.79,422.851a18.8,18.8,0,0,1-3.159-.232l-5.286-.645-2.317-.289,2.407,1.171,3.487,1.647,1.912.9,2.46,1.187c-.216,1.732-.437,3.5-.66,5.289l-.133,1.079-.02.306-.026.484c-.008.208-.01.36-.007.468l.322-.738.134-.321.049-.123.468-.938,2.538-5.044,3.707.526,2.911.408c.015,0,.013-.009.008-.013s-.016-.008-.011-.006a.085.085,0,0,0,.029,0s.007,0,0-.013l-.014-.017-.932-.489-4.967-2.608q.477-2.933.932-5.73l.1-.595.044-.254.013-.044.055-.206.136-.549.311-1.409c-.118.15-.265.35-.459.634l-.5.772-.309.493-.6,1.066L242.115,423c.37-1.236.875-2.7,1.457-4.265.148-.393.3-.79.45-1.191l.72-1.7c.538-1.237,1.17-2.645,1.867-4.162a2.48,2.48,0,0,1,1.419-1.064,1.945,1.945,0,0,0,1.169.427c-.328,2.439-.66,4.674-.933,6.251l-.257,1.47-.16.814-.312,1.612-.3,1.583-.074.39c-.023.119-.055.3-.058.285l-.058.185.118.086.078.052.27.151,1.077.6,2.134,1.181,6.02,3.228a13.13,13.13,0,0,0,1.385,1.457c-.754.09-1.56.147-2.357.186L244.911,428.9l-4.952,9.731c-.523.663-1.035,1.29-1.532,1.869q-.1-1.175-.258-2.209.795-5.672,1.525-10.885l-3.975-2.014-6.079-3.134c-.419-.48-.839-.951-1.313-1.423l-.029-.029a13.957,13.957,0,0,1,2.374-.178l4.325.789,1.715.338,1.369.287Z" transform="matrix(-1, 0, 0, 1, 380, 0)" /><polygon class="cls-4" points="212.274 443.409 217.274 433.665 215.663 444.497 225.407 449.497 214.575 447.887 209.575 457.63 211.186 446.798 201.442 441.798 212.274 443.409" transform="matrix(-1, 0, 0, 1, 380, 0)" /><path class="cls-5" d="M212.271,443.428a10.764,10.764,0,0,1-2.3-.116l-3.622-.4-2.275-.268,2.456,1.179c.837.394,1.514.7,1.97.886.074.023.436.194.666.3l.781.359.806.375,1.282.621q-.136,1.128-.277,2.275-.087.776-.177,1.561c-.009.267-.018.537-.027.808a3.386,3.386,0,0,0,.016.421l.327-.771c.054-.14.108-.278.161-.414q.931-1.86,1.841-3.675l3.162.445.591.082.294.041.008,0a.1.1,0,0,0,.019-.007c.007,0,0-.01,0-.015a.116.116,0,0,0-.02-.01.118.118,0,0,0,.042.007c.012,0,.014-.013-.014-.043l-3.606-1.9q.214-1.335.426-2.643l.15-.888.075-.441a.446.446,0,0,1,.024-.093c.05-.154.113-.379.193-.693.122-.525.234-1.008.344-1.477a4.2,4.2,0,0,0-.445.534c-.221.308-.505.73-.858,1.277l-1.684,2.837c.239-.936.564-2.011.96-3.184.492-1.362,1.3-3.3,2.313-5.583.559-.875,1.042-1.232,1.457-1.309a2.076,2.076,0,0,0,1.2.373c-.195,1.4-.391,2.67-.567,3.665q-.238,1.338-.473,2.66c-.075.42-.15.84-.224,1.257l-.134.66c-.086.43-.172.857-.257,1.278l-.063.315a.449.449,0,0,1-.03.095l-.054.152.176.136.783.445.781.442.992.547,4.727,2.557a9.448,9.448,0,0,0,1.319,1.447c-.755.089-1.574.139-2.386.17l-8.265-1.277-3.766,7.406c-.527.676-1.04,1.312-1.535,1.891q-.1-1.182-.273-2.183.6-4.335,1.159-8.35l-2.984-1.507-4.786-2.463c-.418-.483-.826-.954-1.3-1.425l-.023-.023a11.173,11.173,0,0,1,2.489-.12c2.293.427,4.507.867,5.769,1.155Z" transform="matrix(-1, 0, 0, 1, 380, 0)" /><g id="cane_gold" transform="matrix(-1, 0, 0, 1, 380, 0)"><path class="cls-6 color-body" d="M256.722,461.731c-3.964-7.757-16.078-9.5-27.057-3.887s-20.07,14.344-18.4,22.946c1.454,7.488,10.912,15.374,26.806,10.66C254.368,486.618,260.686,469.488,256.722,461.731Z" style="fill:#ffffff;--backup-fill:#ffffff" /><path d="M256.776,461.7c.347.1,1.3,1.35,1.758,3.541a17.878,17.878,0,0,1-.444,8.162,28.4,28.4,0,0,1-3.979,8.553q-.318.477-.628.941c-.221.3-.458.578-.681.861-.458.555-.868,1.123-1.316,1.612-.931.94-1.692,1.884-2.462,2.526a27.028,27.028,0,0,1-9.311,5.911,33.056,33.056,0,0,1-11.363,2.316,25.8,25.8,0,0,1-6.11-.618,22.183,22.183,0,0,1-5.9-2.319,18.545,18.545,0,0,1-8.372-9.768,15.6,15.6,0,0,1-.782-5.943,16.906,16.906,0,0,1,1.422-5.565,26.1,26.1,0,0,1,5.985-8.3,44.667,44.667,0,0,1,7.385-5.7c1.279-.8,2.577-1.52,3.872-2.206l1.958-.96c.666-.311,1.386-.6,2.07-.888a28.358,28.358,0,0,1,16.749-1.538,17.868,17.868,0,0,1,7,3.3,12.854,12.854,0,0,1,4.113,5.593,15.789,15.789,0,0,0-5.788-3.066,18.937,18.937,0,0,0-6.539-.558c-4.289.341-7.964,1.735-10.031,2.105a37.6,37.6,0,0,0-12.037,4.989c-3.626,2.3-6.9,5.077-8.883,8.415a11.748,11.748,0,0,0-1.741,5.2,9.632,9.632,0,0,0,1.11,5.1,13.11,13.11,0,0,0,3.328,4.079,16.994,16.994,0,0,0,4.535,2.524c6.572,2.24,13.666.621,19.125-1.858a26.541,26.541,0,0,0,7.2-4.971,31.507,31.507,0,0,0,8.7-14.7,15.369,15.369,0,0,0,.368-2.207c.032-.356.062-.7.092-1.031s-.022-.64-.028-.941-.025-.591-.037-.856c-.028-.263-.1-.5-.134-.715Z" /></g></svg>