<svg xmlns="http://www.w3.org/2000/svg" id="bantu-knots" viewBox="0 0 380 600">
  <defs>
    <style>
      .cls-1 {
        fill: none;
      }

      .cls-2 {
        fill: blue;
      }

      .cls-3 {
        opacity: .25;
      }
    </style>
  </defs>
  <g id="back-6" data-name="back">
    <g>
      <path class="cls-2 color-hair" d="m215.09,366.01c.57,7.81,10.9,8.57,14.84,14.24,17.54,6.12,48.18-14.92,35.25-35.98m-146.3-3.73c-5.61,10.37-20.75.84-15.37,19.9-2.9,16.08,20.85,24.84,33.76,23.98,9.73-.48,10.78-3,16.22-9.97,5.68-2.34,7.24-8.18,7.16-14.18"></path>
      <g>
        <path class="cls-1" d="m215.09,366.01c.57,7.81,10.9,8.57,14.84,14.24,17.54,6.12,48.18-14.92,35.25-35.98m-146.3-3.73c-5.61,10.37-20.75.84-15.37,19.9-2.9,16.08,20.85,24.84,33.76,23.98,9.73-.48,10.78-3,16.22-9.97,5.68-2.34,7.24-8.18,7.16-14.18"></path>
        <path d="m160.68,360.28c.15.23.32,1.44.23,3.25-.1,1.8-.46,4.25-1.7,6.61-.62,1.17-1.47,2.3-2.53,3.21l-.82.64-.87.55c-.14.1-.3.16-.45.24l-.39.19c-.21.08-.25.21-.43.44-1.46,1.97-2.74,3.81-3.8,5.1-.92,1.14-2.05,2.27-3.45,3.1-1.39.84-2.96,1.36-4.5,1.7-1.55.34-3.1.49-4.64.63-1.58.14-3.19.14-4.77.04-6.34-.42-12.54-2.19-18-4.95-2.37-1.24-4.67-2.68-6.7-4.51-2.03-1.81-3.83-3.98-5.01-6.53-1.24-2.51-1.67-5.4-1.46-8.09.06-.6.22-1.61.19-1.35-.12-.53-.25-1.06-.37-1.58-.24-1.22-.46-2.43-.54-3.7-.09-1.25-.07-2.56.25-3.9.31-1.32,1.02-2.72,2.11-3.65,1.07-.94,2.28-1.43,3.37-1.77,1.1-.34,2.14-.54,3.13-.76,1.97-.41,3.75-.84,5.25-1.65,1.52-.78,2.69-1.96,3.57-3.27-.3,1.42-1.17,3.19-2.79,4.57-1.59,1.41-3.75,2.33-5.68,3.06-1.94.72-3.67,1.45-4.4,2.29-.38.41-.6.82-.78,1.25-.16.45-.26.9-.35,1.29-.31,1.63-.17,3.58.16,5.45.08.47.18.94.27,1.41l.13.58c.09.21-.03.42-.04.64-.04.29-.06.33-.08.45l-.06.33c-.16.88-.21,1.77-.18,2.65.12,3.55,1.93,6.84,4.37,9.33,2.45,2.52,5.41,4.4,8.43,5.85,3.03,1.44,6.15,2.46,9.23,3.14,3.08.67,6.12,1.04,9.03.97,2.9-.13,5.82-.37,8.24-1.24,2.44-.85,4.14-2.68,5.75-4.7.81-1.02,1.6-2.03,2.37-3.01l.72-.91c.16-.18.42-.22.63-.34l.44-.2c.5-.25,1-.51,1.43-.84.85-.61,1.76-1.46,2.51-2.55.76-1.08,1.37-2.38,1.79-3.67.86-2.58,1.05-5.02,1.14-5.8Z"></path>
        <path d="m265.21,344.27c.21.07.77.79,1.47,1.95.3.6.68,1.3,1,2.1.28.81.64,1.68.82,2.64.26.94.35,1.94.46,2.94.02,1,.08,2.01-.04,2.95-.12,1.91-.61,3.59-.92,4.79-1.24,4.22-3.93,8.33-7.39,11.56-1.72,1.64-3.61,3.11-5.59,4.38-1.99,1.26-4.07,2.33-6.18,3.21-1.84.77-3.76,1.35-5.7,1.81-1.95.41-3.93.67-5.92.7-1.99,0-3.97-.19-5.87-.67-.49-.12-.92-.28-1.43-.43l-.59-.18-.3-.09-.15-.05s-.07-.08-.1-.12l-.72-.91c-.19-.29-.45-.56-.71-.82-.24-.27-.53-.52-.82-.77-2.34-2-5.36-3.44-7.86-5.48-1.25-1.01-2.38-2.19-3.14-3.55-.75-1.38-.98-2.86-1-4.17.55,1.14,1.23,2.39,2.27,3.36,1.04.96,2.31,1.67,3.63,2.3,1.37.62,2.69,1.22,3.84,1.74,1.18.55,2.2,1.15,2.84,1.64,1.3,1.02,2.57,2.18,3.57,3.59.02.04.08.11.08.12v.03s.02.04.03.07c.01.06.05.07.1.1.03.02.04.03.09.05l.24.09.48.18c.64.22,1.31.37,1.96.54,2.67.54,5.41.5,8.01.09,5.22-.83,9.86-3.02,13.67-5.69,3.79-2.72,6.82-5.97,8.82-9.43,1-1.73,1.79-3.49,2.29-5.26.48-1.77.77-3.53.8-5.25,0-1.62-.15-3.87-.63-5.86-.5-1.97-1.21-3.63-1.41-4.19Z"></path>
      </g>
    </g>
    <g class="cls-3">
      <path d="m215.09,366.01c.57,7.81,10.9,8.57,14.84,14.24,17.54,6.12,48.18-14.92,35.25-35.98m-146.3-3.73c-2.46,7.7-20.17,4.75-16.41,16.4,1.22,2.31,1.29,4.69.91,7.24.23,7.19,5.43,11.12,10.52,14.88,8.67,6.46,23.55,7.41,33.37,2.93,2.8-1.84,3.56-5.53,6.22-7.53,5.67-2.34,7.24-8.18,7.16-14.18"></path>
    </g>
  </g>
</svg>