<svg xmlns="http://www.w3.org/2000/svg" id="outfits_1" viewBox="0 0 380 600"><defs transform="matrix(-1, 0, 0, 1, 380, 0)"><style>.cls-1{fill:blue;}.cls-2{opacity:0.5;}.cls-3{fill:#fffffe;}</style></defs><path class="cls-1 color-hair" d="M313.5,333.5c-1.383-23.977.131-58.6-6.866-81.618C300.421,231.444,281.5,197.757,232.5,186.5c-46.359-10.65-90.741.969-113,19-23.315,18.887-51.921,72-50,145a232.492,232.492,0,0,0,24.166,97.341C119.5,500.517,227.5,443.5,232.512,497.816c.068.739,11.469,1.03,20.988-5.316,24-16,27.195-47.725,31-68,3,19,0,35-4,53,22-4,40-18,46-47C334.17,393.43,316.5,385.521,313.5,333.5Z" transform="matrix(-1, 0, 0, 1, 380, 0)" /><path d="M313.546,333.5c.2,1.048.553,4.341,1.055,9.407.365,2.52.723,5.491,1.23,8.829.592,3.326,1.181,7.045,2.108,11.034.4,2.006.928,4.07,1.474,6.2.513,2.143,1.149,4.335,1.786,6.6,1.34,4.516,2.758,9.293,4.236,14.276a93.244,93.244,0,0,1,3.388,15.935,74.594,74.594,0,0,1-.166,17.279,91.848,91.848,0,0,1-3.869,17.447,62.882,62.882,0,0,1-8.186,16.231,52.04,52.04,0,0,1-12.9,12.732,57.374,57.374,0,0,1-15.994,7.5l-2.081.59c-.82.257-1.868.446-2.795.655l-2.86.618-.714.154-.178.039-.089.019c-.042.019-.052,0-.035-.035l.075-.353.3-1.411,1.128-5.324q.4-1.995.8-3.956c1.035-5.231,1.848-10.294,2.373-15.13a101.513,101.513,0,0,0-.259-25.587c-.121-.817-.243-1.636-.374-2.512l2.982.043c-1.365,7.791-2.518,15.8-4.375,23.824-.878,4.021-2.034,8.02-3.305,12.017a86.994,86.994,0,0,1-4.9,11.734,66.538,66.538,0,0,1-6.963,10.96,54.9,54.9,0,0,1-9.524,9.2c-.9.662-1.753,1.366-2.712,2a31.574,31.574,0,0,1-2.981,1.727,37.314,37.314,0,0,1-6.388,2.551,38.913,38.913,0,0,1-6.776,1.388c-.58.065-1.163.116-1.754.15l-.894.037-.63,0-.707-.02a5.863,5.863,0,0,1-2.579-.572,1.446,1.446,0,0,1-.757-.923l-.454-1.152-.173-1.345-.087-.667-.082-.4-.324-1.6a26.828,26.828,0,0,0-.95-3.078,20.84,20.84,0,0,0-3.049-5.53,23.587,23.587,0,0,0-10.468-7.21,42.317,42.317,0,0,0-6.473-1.823,65.379,65.379,0,0,0-6.8-1.035,138.222,138.222,0,0,0-14-.648c-9.436-.008-18.984.491-28.611.676s-19.371.1-29.122-1.317a74.774,74.774,0,0,1-14.454-3.511c-1.188-.4-2.341-.916-3.507-1.388-1.141-.544-2.3-1.046-3.405-1.674a40.977,40.977,0,0,1-6.39-4.176,39.988,39.988,0,0,1-9.938-11.57c-1.267-2.27-2.234-4.408-3.283-6.578-1.03-2.169-1.995-4.367-2.979-6.553a236.135,236.135,0,0,1-16.338-54.332c-4.092-23.5-4.218-47.447-1.612-70.842.12-1.468.34-2.924.571-4.378l.663-4.363.665-4.359c.211-1.454.564-2.883.839-4.324.6-2.874,1.146-5.756,1.792-8.613q1.1-4.259,2.188-8.5A211.015,211.015,0,0,1,86.982,245.8a146.52,146.52,0,0,1,18.056-29.53l2.762-3.339a20.443,20.443,0,0,1,1.451-1.614l1.5-1.572,1.5-1.57.751-.783.815-.731,3.273-2.9a18.78,18.78,0,0,1,1.707-1.351l1.746-1.3,1.746-1.294,1.822-1.156c1.221-.758,2.416-1.562,3.655-2.277l3.763-2.04c1.238-.712,2.535-1.286,3.821-1.883s2.563-1.209,3.859-1.767l3.93-1.552,1.962-.773c.66-.239,1.329-.447,1.993-.671l3.983-1.32c1.319-.466,2.682-.763,4.018-1.152l4.023-1.094,4.058-.884a155.893,155.893,0,0,1,32.525-3.415,163.376,163.376,0,0,1,31.729,3.1,152.978,152.978,0,0,1,15.2,3.822l7.329,2.595c2.389.982,4.73,2.064,7.08,3.087A100.66,100.66,0,0,1,282.1,209.3a94.9,94.9,0,0,1,18.018,22.892l.892,1.551.805,1.593q.8,1.593,1.594,3.177c.932,2.173,1.95,4.294,2.727,6.5.867,2.173,1.551,4.4,2.24,6.613.588,2.24,1.218,4.46,1.641,6.7a176.584,176.584,0,0,1,3.151,26.355c.967,17.191.551,33.494,1.184,48.765-.7-6.815-1.157-14.477-1.636-22.7s-.961-17.009-1.829-26.077c-.4-4.537-.987-9.131-1.653-13.755-.737-4.611-1.6-9.247-2.8-13.8a90.362,90.362,0,0,0-4.719-13.278,98.648,98.648,0,0,0-6.709-12.336,92.161,92.161,0,0,0-17.962-20.331,99.675,99.675,0,0,0-21-13.47c-14.264-6.584-27.588-9.158-36.721-10.633a156.717,156.717,0,0,0-37.472-1.414l-4.622.492-2.309.244-2.288.357-4.57.723c-1.519.251-3.013.618-4.519.92-3.023.568-5.965,1.416-8.919,2.2-1.489.354-2.912.905-4.367,1.351l-2.171.7c-.728.223-1.444.475-2.145.763l-4.237,1.642c-1.418.532-2.757,1.229-4.138,1.833l-2.055.938c-.686.311-1.33.7-2,1.04-1.317.717-2.657,1.393-3.951,2.139a71.135,71.135,0,0,0-14.088,10.741,123.6,123.6,0,0,0-20.628,28.621,189,189,0,0,0-13.43,32.153c-1.852,5.46-3.172,11.048-4.606,16.568-1.146,5.589-2.43,11.124-3.179,16.727q-.327,2.092-.653,4.18c-.1.7-.231,1.389-.311,2.087l-.219,2.1q-.436,4.191-.872,8.361c-.174,1.388-.236,2.783-.306,4.175s-.147,2.782-.22,4.17-.147,2.775-.22,4.16l-.107,2.075,0,2.076c.026,5.531-.125,11.039.191,16.5.082,2.735.347,5.451.512,8.167.248,2.708.5,5.41.811,8.1a227.942,227.942,0,0,0,16.086,61.25c1.959,4.8,4.145,9.463,6.365,14.079a41.616,41.616,0,0,0,3.915,6.348,38.608,38.608,0,0,0,5.073,5.384,41.865,41.865,0,0,0,6.04,4.23,49.111,49.111,0,0,0,6.686,3.109,70.586,70.586,0,0,0,14.293,3.553c9.735,1.422,19.557,1.473,29.246,1.3s19.313-.686,28.878-.617a133.484,133.484,0,0,1,14.3.771,56.288,56.288,0,0,1,13.966,3.244,26.708,26.708,0,0,1,11.681,8.5,23.581,23.581,0,0,1,3.437,6.405,14.64,14.64,0,0,1,.563,1.712c.154.578.341,1.15.465,1.732l.35,1.749.084.427.034.265.069.529.054.411a.891.891,0,0,0,.036.2.362.362,0,0,0,.185.084,4.132,4.132,0,0,0,.822.078l.458,0,.768-.029q.772-.043,1.549-.128a35.3,35.3,0,0,0,6.121-1.232,33.708,33.708,0,0,0,5.76-2.269,27.92,27.92,0,0,0,2.662-1.523c.858-.546,1.67-1.228,2.506-1.832.815-.641,1.695-1.2,2.454-1.9l2.273-2.106c.375-.355.768-.69,1.126-1.059l1.025-1.158,2.047-2.306a62.746,62.746,0,0,0,6.64-10.319,84.228,84.228,0,0,0,4.778-11.241c1.253-3.871,2.407-7.755,3.3-11.7,1.878-7.866,3.084-15.81,4.533-23.7l3.285.047a104.447,104.447,0,0,1,.938,23.9,176.736,176.736,0,0,1-3.515,22.985q-.4,1.85-.8,3.688l-.07.314c-.007.088-.107.269.054.191l.624-.131c.415-.09.835-.165,1.25-.269l2.477-.687c.888-.218,1.738-.54,2.595-.838.851-.315,1.727-.567,2.555-.929l2.487-1.07a49.967,49.967,0,0,0,9.222-5.447,48.707,48.707,0,0,0,4.1-3.376c.673-.574,1.247-1.251,1.875-1.869a25.642,25.642,0,0,0,1.8-1.933,56.006,56.006,0,0,0,8.921-14.259,76.646,76.646,0,0,0,5.251-18.081,74.573,74.573,0,0,0,1.124-19.613,102.949,102.949,0,0,0-3.857-19.153c-1.743-6.166-3.456-12.151-4.775-17.816q-.488-2.127-.956-4.178l-.779-4.044c-.546-2.631-.9-5.172-1.25-7.564-.167-1.2-.372-2.353-.493-3.481s-.232-2.217-.342-3.265c-.2-2.1-.472-4.019-.55-5.77C313.821,338.055,313.655,335.312,313.546,333.5Z" transform="matrix(-1, 0, 0, 1, 380, 0)" /><path class="cls-1 color-hair" d="M96.74,245.142c-1.872-8.192,16.5-39.145,52.718-55.969-67.232,19.615-86.1,89.262-85.518,156.9-.866,52.29,3.489,67.79,17.093,117.395C67.355,403.95,75.069,315.9,96.74,245.142Z" transform="matrix(-1, 0, 0, 1, 380, 0)" /><path d="M96.784,245.156c-.06.63-.5,2.524-1.247,5.419-.381,1.446-.829,3.144-1.334,5.062q-.388,1.435-.819,3.033-.39,1.6-.815,3.361c-1.109,4.681-2.556,10.075-3.787,16.038-.648,2.973-1.322,6.068-2.016,9.254-.616,3.2-1.25,6.491-1.9,9.839-2.467,13.407-4.712,27.8-6.063,41.026-.814,6.6-1.211,12.921-1.708,18.644-.4,5.73-.594,10.887-.816,15.18-.432,14.532-.36,29.58.629,44.866a280.743,280.743,0,0,0,6.5,46.046l-4.728,1.192c-4.576-16.47-9.453-33.029-12.855-49.938a232.427,232.427,0,0,1-3.661-25.446c-.749-8.471-1.06-16.871-1.2-25.137-.042-4.719-.07-9.43-.008-14.1.077-4.679-.048-9.358.091-14.071.2-9.409.78-18.782,1.88-28.049,2.2-18.516,6.349-36.687,13.287-53.441,6.964-16.7,16.966-31.891,29.711-43.454a102.8,102.8,0,0,1,20.607-14.472,112.353,112.353,0,0,1,22.317-8.907l1.514,4.031a117.7,117.7,0,0,0-34.357,23.589,95.962,95.962,0,0,0-12.147,14.566,57.031,57.031,0,0,0-4.405,7.775,27.875,27.875,0,0,0-1.489,4.007,9.629,9.629,0,0,0-.4,3.884,8.568,8.568,0,0,1-.067-3.628,26.019,26.019,0,0,1,1.029-4.042,51.139,51.139,0,0,1,3.769-8.327,90.559,90.559,0,0,1,11.955-16.47A111.823,111.823,0,0,1,130.269,197.9a116.7,116.7,0,0,1,18.088-11.1l1.833,4.879a119.37,119.37,0,0,0-18.963,7.933,125.65,125.65,0,0,0-12.958,7.9,103.064,103.064,0,0,0-26.346,27.307,132.942,132.942,0,0,0-9.157,16.313,155.356,155.356,0,0,0-6.8,17.157A204.129,204.129,0,0,0,67.9,303.4c-.858,5.85-1.427,11.686-1.906,17.474-.4,5.795-.706,11.544-.789,17.248-.076,2.85-.035,5.7-.07,8.533s-.076,5.656-.113,8.464q0,4.2.006,8.367.073,4.161.148,8.28A255.838,255.838,0,0,0,67.96,403.9a305.613,305.613,0,0,0,6.508,30.345c2.548,9.839,5.245,19.443,7.865,28.865l-2.613.658a286.683,286.683,0,0,1-5.849-38.85q-.337-4.761-.671-9.455c-.2-3.131-.242-6.245-.368-9.335q-.079-2.318-.159-4.619c-.054-1.534-.018-3.063-.031-4.587q0-4.57-.007-9.078a488.886,488.886,0,0,1,5.852-67.8c.235-1.555.482-3.181.737-4.866.3-1.676.618-3.41.94-5.189.675-3.552,1.312-7.3,2.119-11.088.83-3.786,1.677-7.649,2.518-11.487.888-3.826,1.885-7.6,2.794-11.26.881-3.666,1.913-7.161,2.843-10.438.958-3.269,1.752-6.34,2.641-9.033C94.812,251.3,96.131,247.187,96.784,245.156Z" transform="matrix(-1, 0, 0, 1, 380, 0)" /><g class="cls-2" transform="matrix(-1, 0, 0, 1, 380, 0)"><path class="cls-3" d="M68.879,342.743c-.618-.534-.069-9.619-.123-13.144a168.613,168.613,0,0,1,1.015-19.729,134.645,134.645,0,0,1,5.8-28.99c1.019,3.523,1.117,9.906.484,12.07a119.2,119.2,0,0,0-4.291,23.621c-.616,7-.764,13.113-1.388,18.432A65.25,65.25,0,0,1,68.879,342.743Z" /></g></svg>