<svg xmlns="http://www.w3.org/2000/svg" id="outfits_1" viewBox="0 0 380 600"><defs transform="matrix(-1, 0, 0, 1, 380, 0)"><style>.cls-1{fill:blue;}.cls-2{opacity:0.5;}.cls-3{fill:#fffffe;}</style></defs><path class="cls-1 color-hair" d="M312.8,321.857c-.689-6.209.286-18.817-.855-25.089-5.987,4.276-14.131,8.74-28.064,8.38,0,0,4.632,24.028-3.788,54.7" transform="matrix(-1, 0, 0, 1, 380, 0)" /><path d="M280.051,359.835a8.455,8.455,0,0,1,.234-3.165c.157-.85.338-1.835.536-2.907.18-1.076.374-2.241.575-3.445.1-.6.21-1.212.317-1.828l.253-1.863c.165-1.242.347-2.474.484-3.654.206-2.371.452-4.506.432-6.052.112-4.992.088-10.291-.15-15.615-.137-2.661-.3-5.33-.574-7.958-.123-1.317-.286-2.619-.453-3.906l-.179-1.3c-.088-.638-.192-1.279-.315-1.933l-.726-3.919,5.592-.032c.285,0,.578-.015.87-.029l.511-.028.819-.047c.547-.02,1.084-.1,1.625-.145,1.083-.087,2.145-.265,3.2-.421a42.1,42.1,0,0,0,6.14-1.5,40.424,40.424,0,0,0,5.691-2.344c.457-.223.906-.46,1.348-.707l.484-.268c.235-.138.454-.267.68-.415l1.338-.856c1.771-1.126,3.527-2.361,5.161-3.443.173,1,.31,2.234.451,3.273.138,1.066.274,2.112.348,3.206.1,1.063.17,2.151.174,3.206,0,.606-.013,1.2-.026,1.785-.063,2.347-.21,4.583-.373,6.718-.317,4.265-.774,8.144-.871,11.513-1.544-2.684-2.572-7.065-3.246-11.062-.336-2.01-.587-3.945-.753-5.608-.078-.835-.146-1.6-.175-2.272l-.021-.489-.007-.23,0-.112c0-.025,0-.007,0-.012a.092.092,0,0,0,.056-.019.616.616,0,0,0,.217-.315,2.007,2.007,0,0,0,.084-.275l.034-.163c.016-.067.021-.116,0-.111-.1-.075-.34-.045-.7.055l-.133.033c-.074.029-.288.138-.424.2-.31.15-.614.305-.93.44-.626.279-1.24.566-1.871.812a46.991,46.991,0,0,1-7.52,2.376,54.106,54.106,0,0,1-7.379,1.109c-1.208.089-2.4.16-3.58.175-.7.041-1.449-.038-2.089.018.1.612.2,1.226.274,1.83q.084.68.168,1.353.081.739.16,1.471c.2,1.952.355,3.867.474,5.746.209,3.756.346,7.37.265,10.838a96.406,96.406,0,0,1-1.976,19.031A56.8,56.8,0,0,1,282.3,354.4C281.3,356.96,280.374,359.13,280.051,359.835Z" transform="matrix(-1, 0, 0, 1, 380, 0)" /><path class="cls-1 color-hair" d="M244.389,250.91c-5.243-3.162-14.967-4.5-20.692-6.666-20.768-7.857-42.1-28.624-54.161-46.363-18.585,18.207-47.708,25.141-72.661,28.9,6.216-16.568,27.387-26.446,42.657-33.229a137.091,137.091,0,0,1,51.606-11.684,140.054,140.054,0,0,1,54.1,9.346,143.132,143.132,0,0,1,25.18,12.657c5.416,3.43,17.24,9.416,18.6,16.055-11.311,4.124-21.361,5.182-30.547,14.333" transform="matrix(-1, 0, 0, 1, 380, 0)" /><path d="M258.445,234.228a8.83,8.83,0,0,1,.843-1.017c.222-.241.478-.522.779-.827.316-.29.669-.611,1.055-.964a34.3,34.3,0,0,1,6.852-4.681,66.624,66.624,0,0,1,10.708-4.285l6.246-2.027,1.339-.46,1.141-.417.284-.105c.031-.026.132-.016.105-.071l-.047-.148-.189-.591a8.13,8.13,0,0,0-.567-1.106,9.6,9.6,0,0,0-.843-1.14l-.541-.649-.6-.614a27.042,27.042,0,0,0-2.62-2.316,62.5,62.5,0,0,0-5.922-4.046c-2.054-1.266-4.155-2.446-6.233-3.708-2.04-1.259-4.041-2.452-6.047-3.567a131.14,131.14,0,0,0-21.288-9.553,145.22,145.22,0,0,0-31.395-7.028,143.773,143.773,0,0,0-16.579-.8,141.249,141.249,0,0,0-16.722,1.227,136.568,136.568,0,0,0-32.393,8.538c-5.11,2.082-10.262,4.475-15.188,6.9a121.812,121.812,0,0,0-14.055,8.039,59.272,59.272,0,0,0-10.391,8.768c-.706.852-1.441,1.683-2.128,2.542l-1.7,2.417-.2.363s0,.008.007,0l.01-.006h0l.337-.059,1.724-.3c2.3-.385,4.576-.851,6.852-1.289,4.536-.932,9.018-1.971,13.419-3.166,4.383-1.237,8.722-2.535,12.894-4.136,2.116-.733,4.137-1.651,6.191-2.478l3-1.39,1.493-.7,1.452-.76,2.889-1.522,2.783-1.662,1.386-.83,1.327-.9,2.644-1.8,2.507-1.95c.413-.328.842-.638,1.242-.978l1.4-1.258,2.279-2.054,1.143-1.031.57-.513.284-.257.2.289,3.205,4.6.735,1.048.47.636.938,1.27c.617.851,1.247,1.689,1.9,2.505l1.938,2.455,1.993,2.389c2.68,3.148,5.423,6.177,8.266,9.02,2.8,2.885,5.741,5.539,8.656,8.115,2.976,2.5,5.937,4.919,9,7.059a100.623,100.623,0,0,0,9.253,5.9,71.225,71.225,0,0,0,9.459,4.37c3.208,1.087,6.521,1.916,9.709,2.892a38.319,38.319,0,0,1,9.124,3.769c-5.423-2.411-12.234-2.805-19.581-4.512-7.359-1.925-14.677-5.6-21.35-9.819a123.092,123.092,0,0,1-28.608-25.536c-1.2-1.559-2.409-3.109-3.554-4.694l-1.7-2.383a4.584,4.584,0,0,1-.426-.64l-.213-.366-.228-.388a.6.6,0,0,0-.058-.089l-.036.022-.078.046-.185.122-.107.074-.032.024-.139.121-.277.24c-.721.664-1.521,1.223-2.292,1.814l-2.321,1.752a98.106,98.106,0,0,1-19.94,10.651A153.47,153.47,0,0,1,123,223.18c-3.45.856-6.894,1.594-10.32,2.268-1.709.357-3.425.632-5.126.951-.85.161-1.7.294-2.553.434l-2.732.45c-2.415.37-4.724.652-7.046.978l-.434.06a3.088,3.088,0,0,1,.164-.394l.364-.815.725-1.622c.247-.532.468-1.092.734-1.6l.815-1.483.811-1.474.4-.734.38-.529,1.516-2.1c.53-.677,1.109-1.309,1.66-1.962.282-.321.551-.654.842-.965l.9-.9a74.483,74.483,0,0,1,15.886-11.829c5.614-3.23,11.359-5.954,17.031-8.51a144.522,144.522,0,0,1,17.22-6.647,139.078,139.078,0,0,1,67.416-3.95A140.767,140.767,0,0,1,251.1,191.8a138.839,138.839,0,0,1,13.116,6.491q3.133,1.764,6.119,3.655c1.964,1.267,3.891,2.417,5.871,3.643,1.867,1.15,3.9,2.451,5.952,4a29.869,29.869,0,0,1,5.9,5.641,8.7,8.7,0,0,1,.7,1.071,7.633,7.633,0,0,1,.658,1.2l.493,1.254c.147.424.251.868.378,1.3l.09.324a.709.709,0,0,1,.037.157l-.159.061-.638.244-1.265.482c-.415.162-.836.317-1.289.452l-1.206.368c-2.626.775-5.242,1.457-7.743,2.163s-4.888,1.443-7.07,2.278a41.639,41.639,0,0,0-5.837,2.742A40.438,40.438,0,0,0,258.445,234.228Z" transform="matrix(-1, 0, 0, 1, 380, 0)" /><path class="cls-1 color-hair" d="M202.244,209.606c53.25,30.34,52.252,117.16,52.319,159.068.022,13.486.044,26.979-.683,40.447a366.846,366.846,0,0,1-15.823,88.417c6.113-5.437,10.184-12.559,13.646-19.757,48.167-100.146,35-214.406,14.47-257.011" transform="matrix(-1, 0, 0, 1, 380, 0)" /><path d="M266.214,220.75a44.088,44.088,0,0,1,2.476,4.8c1.188,2.654,2.694,6.289,4.185,10.729q.556,1.667,1.157,3.463.54,1.814,1.116,3.745c.8,2.566,1.451,5.332,2.223,8.194,1.382,5.763,2.742,12.037,3.842,18.585a347.066,347.066,0,0,1,4.316,40.153c.621,12.94.546,24.684.259,33.071a352.528,352.528,0,0,1-11.833,81.364,323.019,323.019,0,0,1-13.683,40.242c-.686,1.631-1.336,3.276-2.05,4.892l-2.191,4.82c-.737,1.6-1.442,3.209-2.205,4.808s-1.569,3.192-2.42,4.767c-.43.786-.862,1.572-1.317,2.348l-.251.432-.325.528-.656,1.046c-.434.708-.875,1.395-1.333,2.032a48.915,48.915,0,0,1-5.325,6.591c-1.677,1.7-3.236,3.115-4.989,4.768l-2.808,2.616-1.972,1.735q1.654-5.571,3.259-10.968.811-2.742,1.611-5.447c.514-1.788,1.017-3.536,1.471-5.254l1-3.779q.327-1.3.65-2.6c.425-1.726.86-3.438,1.244-5.156a375.318,375.318,0,0,0,9.744-77.878c.3-12.883.228-25.71.264-38.264-.013-12.541-.283-24.822-1.122-36.769-1.667-23.847-5.56-46.52-13.473-65.991-.926-2.458-2.088-4.776-3.123-7.129l-1.744-3.407-.87-1.69-.947-1.631a96.044,96.044,0,0,0-8.2-12.2,79.5,79.5,0,0,0-20.368-17.969A73.056,73.056,0,0,1,224,226.932a97.2,97.2,0,0,1,9.768,12.916c.776,1.145,1.414,2.37,2.128,3.558s1.4,2.394,2.014,3.637q.951,1.85,1.9,3.7.861,1.887,1.719,3.763c.591,1.245,1.1,2.517,1.605,3.782s1.042,2.515,1.5,3.782c.9,2.535,1.836,5.029,2.58,7.522,1.612,4.955,2.814,9.8,3.882,14.317a185.636,185.636,0,0,1,3.664,22.266,474.577,474.577,0,0,1,1.831,51.531c-.22,16.682-.2,32.959-1.075,48.853a384,384,0,0,1-5.4,46.142q-1.994,11.136-4.576,21.844c-.41,1.789-.881,3.556-1.32,5.325l-.682,2.642-.532,1.981c-.581,2.148-1.187,4.28-1.825,6.378l-.349,1.163-.087.289.22-.2.446-.413c.577-.569,1.142-1.148,1.662-1.764a31.929,31.929,0,0,0,2.837-3.862c.217-.331.414-.674.621-1.009l.876-1.525c.621-1.1,1.213-2.222,1.788-3.349,1.163-2.243,2.191-4.565,3.242-6.857a295.081,295.081,0,0,0,11.086-27.5c3.263-9.128,5.845-18.28,8.206-27.282,2.31-9.02,4.13-17.963,5.718-26.758a386.652,386.652,0,0,0,5.288-51.18c.2-4.112.209-8.187.283-12.218.019-2.016-.018-4.021-.023-6.016s-.023-3.98-.094-5.954c-.139-7.9-.644-15.618-1.232-23.169-.54-6.03-1.259-13.155-2.281-20.551-1.044-7.391-2.369-15.052-3.93-22.157A160.318,160.318,0,0,0,266.214,220.75Z" transform="matrix(-1, 0, 0, 1, 380, 0)" /><g class="cls-2" transform="matrix(-1, 0, 0, 1, 380, 0)"><path class="cls-3" d="M270.347,277.7c.327.2,1.144,2.563,1.483,5.646a34.65,34.65,0,0,1-.33,9.524l-1.73-.157a15.227,15.227,0,0,0-.286-1.888,19.124,19.124,0,0,0-2.757-6.3c-.172-.237-.322-.488-.509-.714l-.067-.087-.022-.024-.038-.036-.081-.078a2.463,2.463,0,0,0-.292-.233,1.41,1.41,0,0,0-.237-.127l-.1-.03a1.149,1.149,0,0,0,.037.189l.092.448a2.336,2.336,0,0,1,.027.233l0,.061-.013.326-.033.708a41.979,41.979,0,0,1-.692,5.462c-.067.38-.147.754-.227,1.128l-.128.6-.263,1.053c-.347,1.43-.739,2.8-1.134,4.162l-2.425,7.878q-1.118-2.582-2.215-5.113a17.789,17.789,0,0,1-.914-2.8,29.572,29.572,0,0,1-.562-3.687q-.072-.942-.143-1.878l-.066-1.192q-.059-.979-.117-1.941c-.094-1.27-.227-2.515-.392-3.729a67.583,67.583,0,0,0-3.115-12.775,23.858,23.858,0,0,1,4.83,7.035,21.885,21.885,0,0,1,2.126,7.181c.066,1.3.095,2.605.091,3.849l0,.884c-.015.122-.025.285-.042.351a5.634,5.634,0,0,0-.067.647,9.114,9.114,0,0,0,.092,1.788,8.789,8.789,0,0,0,.217,1.036l.078.265c.012.03.028.119.038.1l.03-.062.123-.271a22.513,22.513,0,0,0,.855-2.369l.2-.706.1-.361.137-.568c.2-.794.36-1.585.5-2.369a32.407,32.407,0,0,0,.528-4.624,40.887,40.887,0,0,0-.531-6.844l.2-.152.1-.072c.085.057.192.148.288.22.392.307.793.614,1.151.915a24.65,24.65,0,0,1,2.161,1.922c.361.331.7.761,1.044,1.152.175.2.341.405.5.62l.432.594a21.511,21.511,0,0,1,1.2,1.93,18.43,18.43,0,0,1,2.255,8.238l-2.2-.2a41.625,41.625,0,0,0,.73-4.663c.137-1.607.323-3.821.3-5.8C270.586,280.008,270.392,278.278,270.347,277.7Z" /></g><g class="cls-2" transform="matrix(-1, 0, 0, 1, 380, 0)"><path class="cls-3" d="M238.984,195.143a6.739,6.739,0,0,1,4.545,1.156,9.064,9.064,0,0,1,1.852,1.49,10.36,10.36,0,0,1,.866,1.037c.141.182.278.376.415.576l.1.15.052.075c0,.021-.042.027-.061.042l-.308.15c-.419.2-.82.412-1.282.617l-1.464.618-.355.17-.129.065c0,.006-.046.006,0,.019l.109.034.215.069a10.558,10.558,0,0,1,2.337,1.1,16.051,16.051,0,0,1,3.573,3.206c.457.553.866,1.1,1.273,1.668l.6.86a4.764,4.764,0,0,1,.272.42l-.415-.025-2.963-.138-6.791-.956-2.7-.374-.817-.054c-.018.008-.082-.027-.062.018l.037.109.072.206.137.373c.03.083.028.056.082.223l.211.659.442,1.313c.313.9.6,1.688.986,2.66.591,1.566,1.349,3.244,2.08,4.921a4.947,4.947,0,0,1-1.273.456,12.842,12.842,0,0,1-1.606.333,6.649,6.649,0,0,1-3.716-.842c-.338-.165-.629-.348-.926-.528-.277-.17-.4-.256-.6-.39-.358-.246-.7-.5-1.027-.742-.658-.5-1.231-.923-1.862-1.366a44.993,44.993,0,0,0-3.822-2.387c-.65-.363-1.308-.705-1.969-1.032l-1-.474-.25-.114-.116-.053-.014,0h-.02c-.05,0-.075,0-.047.036a.177.177,0,0,0,.034.035h0s0-.011,0,.01l.036.11c.1.292.183.589.266.886.167.592.309,1.191.421,1.795s.208,1.208.27,1.816a16.674,16.674,0,0,1,.115,2.308,58.8,58.8,0,0,1-.526,6.158l-5.207-3.445-1.459-.915-1.28-.778q-2.564-1.535-5.141-2.887t-5.129-2.525l-1.274-.575-.624-.278-.119-.069-.274-.151-.156-.082c-.048-.018-.027.066-.044.1l-.052.294a3.7,3.7,0,0,0-.06.668l-.156,2.947a3.474,3.474,0,0,1-.494,1.857,2.153,2.153,0,0,1-1.5.959,4.432,4.432,0,0,1-3.368-1.3c-2.417-2.205-4.656-4.29-6.685-6.225,1.581.769,3.448,1.814,5.414,3l1.49.914.753.472.378.24a1.14,1.14,0,0,0,.226.107,1.2,1.2,0,0,0,.72.08.429.429,0,0,0,.307-.5,1.659,1.659,0,0,0-.07-.282.983.983,0,0,1-.069-.433q-.054-.875-.106-1.717l-.023-.419-.01-.222-.007-.39q-.012-.793-.024-1.565c0-1.056-.008-2.081-.012-3.068v-.374c.011-.047-.022-.158.024-.152l.166.058.657.232,1.288.46,2.415.9c.92.347,1.088.428,1.459.587.333.146.638.281.906.418q4.406,2.193,8.412,4.622c1.334.808,2.637,1.624,3.9,2.461l.939.627.366.278.825.626c.079.087.073-.008.086-.063l.034-.179c.023-.12.035-.246.054-.374.029-.258.048-.53.053-.812,0-.072,0-.138,0-.224l-.016-.406c-.005-.271-.039-.539-.058-.808q-.075-.805-.216-1.6c-.094-.526-.207-1.048-.345-1.559-.066-.268-.134-.489-.227-.785-.11-.379-.262-.751-.412-1.124a45.477,45.477,0,0,0-2.351-4.57l.131-.112.064-.056c-.006-.04.148.042.214.057l1.032.366,1.993.734c.652.24,1.319.517,1.972.793s1.377.61,1.773.806a49.739,49.739,0,0,1,5.374,3.024q1.271.828,2.47,1.716c.808.6,1.545,1.2,2.307,1.7a6.275,6.275,0,0,0,.816.478,3.641,3.641,0,0,0,.775.276,2.117,2.117,0,0,0,.8.029.973.973,0,0,0,.193-.04l.094-.026c.041,0,.065-.017.034-.057l-.169-.375-.519-1.225-.323-.835-.4-1.086c-.258-.723-.5-1.447-.727-2.168l-.343-1.115-.439-1.584-.406-1.581-.2-.8-.1-.4c0-.027-.031-.081-.009-.086l.1.016.2.03,3.159.5,4.54.753,2.7.447.867.148.431.076c.119.009.387.117.213-.068a7.18,7.18,0,0,0-1.055-1.3,8.255,8.255,0,0,0-.646-.564l-.172-.129-.219-.152c-.1-.067-.2-.124-.3-.185a10.016,10.016,0,0,0-1.277-.689c-1.032-.467-2.451-1-4.018-1.58l.18-.23c.264-.114.649-.249.967-.373l1.984-.744.9-.33.3-.09.661-.2.734-.221.1-.029a.336.336,0,0,0-.029-.07l-.07-.144c-.045-.1-.1-.19-.16-.289a5.833,5.833,0,0,0-.89-1.125A9.247,9.247,0,0,0,241,195.737,9.945,9.945,0,0,0,238.984,195.143Z" /></g></svg>