<svg xmlns="http://www.w3.org/2000/svg" id="outfits_1" viewBox="0 0 380 600"><defs transform="matrix(-1, 0, 0, 1, 380, 0)"><style>.cls-1{fill:blue;}.cls-2{opacity:0.5;}.cls-3{fill:#fffffe;}</style></defs><path class="cls-1 color-hair" d="M308.146,330.123c-.015-12.395,1.774-14.453,2.11-30.991l-5.462,3.255c-1.688.622-4,1.409-4.071,3.206-.328,7.766.621,28.078-.208,51.5" transform="matrix(-1, 0, 0, 1, 380, 0)" /><path d="M300.484,357.1c-.306-.393-.324-4.033-.357-8.238s-.08-8.978-.259-11.633c-.308-4.686-.541-9.709-.739-14.78s-.376-10.174-.387-15.108l.023-1.633,0-.215.04-.387a3.89,3.89,0,0,1,.181-.764,4.248,4.248,0,0,1,.734-1.282,6.228,6.228,0,0,1,1.81-1.444,14.016,14.016,0,0,1,1.675-.763l.72-.273.4-.24,1.347-.8,4.9-2.9c2.554-2.392,1.485,1.364,1.617,3.038q-.054,1.5-.11,2.99-.047.815-.092,1.622c-.131,2.017-.3,4-.531,5.929-.435,3.87-1.124,7.476-1.635,10.774s-.847,6.376-1.114,9.136a36.061,36.061,0,0,1-1.549-9.682,47.066,47.066,0,0,1,.4-8.4c.322-1.672.577-3.325.805-4.962l.3-2.443q.062-.609.123-1.213l.059-.6c.018-.156.029-.173.044-.267.053-.308.1-.664.149-1.057l.036-.3c0-.019.014-.065,0-.063l-.05.022-.1.047-.443.209-.488.24-.258.13-.4.218-2.045,1.141a1.751,1.751,0,0,1-.373.154l-.266.091-.52.183c-.339.124-.665.255-.974.4A3.471,3.471,0,0,0,301.737,305a1.281,1.281,0,0,0-.222.63l-.043,1.077c-.032.714-.032,1.432-.046,2.14-.027,2.837.028,5.595.089,8.264.274,10.678.69,19.981.3,28.131A109.413,109.413,0,0,1,300.484,357.1Z" transform="matrix(-1, 0, 0, 1, 380, 0)" /><g class="cls-2" transform="matrix(-1, 0, 0, 1, 380, 0)"><path class="cls-3" d="M231.892,370.943a32.529,32.529,0,0,1-.366-3.649c-.111-2.026-.206-4.71-.2-7.588-.01-5.76.409-12.287.654-15.913.777-12.824,2.941-27.38,4.159-40.556,1.1-11.515,1.578-22.958.721-33.324a110.92,110.92,0,0,0-2.1-14.57,112.826,112.826,0,0,0-3.385-12.125,69.255,69.255,0,0,1,7.031,23.54,171.452,171.452,0,0,1-.049,26.589c-.591,8.29-1.5,16.019-2.353,23.266-1.76,14.488-3.183,27.076-3.737,38.148-.112,2.63-.307,6.221-.355,9.385C231.832,367.311,231.91,370.043,231.892,370.943Z" /></g><g class="cls-2" transform="matrix(-1, 0, 0, 1, 380, 0)"><path class="cls-3" d="M259.048,356.179a76.231,76.231,0,0,1-3.262-7.782c-.776-2.013-1.587-4.168-2.295-6.15l-1.839-5.05a296.574,296.574,0,0,1-9-29.278c-2.175-8.45-3.933-16.912-5.218-24.678s-2.11-14.836-2.57-20.5c.754,2.467,1.577,6.11,2.353,9.55.739,3.448,1.437,6.694,1.645,8.427a260.518,260.518,0,0,0,7.649,36.52c2.985,10.52,6.092,19.5,8.764,27.38.669,1.861,1.479,4.44,2.215,6.7Z" /></g><path class="cls-1 color-hair" d="M193.85,191.123c-4.173-.787-8.943,4.92-4.172,7.248.981.246-6.2.843-5.329,1.361-5.975,2.031-8.334,5.722-4.826,6.116,3.466.39-7.6,7.509-2.414,7.762,12.866.63,23.825,2.672,32.906,11.571,31.527,41.824,10.1,103.673,11.636,153.04.379,9.115-.777,20.137,4.094,28.138,4.543,2.4,7.211-3.582,7.087-7.348,5.7,3.154-.822,23.214,16.423,10.6,6.443,4.026,1.823,13.778,8.4,17.452,4.292,2.4,8.16-3.3,10.1-6.416,4.126,1.168,4.2,5.991,4.487,9.446s3.4,8.409,6.753,6.048c2.8-1.972.376-6.956,3.459-8.076.36-1.689,2.03,14.24,5.808,7.336,5.041-9.211,7.7,12.039,5.865-13.8-8.609-86.081,50.645-239.608-92.62-233.7C201.506,187.9,193.85,191.123,193.85,191.123Z" transform="matrix(-1, 0, 0, 1, 380, 0)" /><path d="M193.827,191.068a24.234,24.234,0,0,1,2.543-1.348l2.3-1.092,1.391-.643c.254-.112.473-.227.783-.344a1.231,1.231,0,0,1,.463-.108l.059-.008.03,0,.014,0h.008c.007.026-.047-.233-.023-.123h0l.123-.01.248-.02,5.635-.273c2.055-.066,4.3-.049,6.7-.071a138.961,138.961,0,0,1,16.1,1.141,101.182,101.182,0,0,1,18.4,4.145,74.138,74.138,0,0,1,18.394,8.956A65.027,65.027,0,0,1,282.1,215.68a76.222,76.222,0,0,1,9.789,17.481c4.8,11.929,6.689,23.314,7.839,31.733,1.967,15.1,2.114,30.8,1.565,46.663s-1.828,31.954-2.935,48.079c-.551,8.062-1.075,16.138-1.4,24.2s-.478,16.109-.226,24.083c.142,4,.338,7.925.739,11.913q.144,1.473.253,3.041l.217,3.052.2,3.388a28.733,28.733,0,0,1-.081,5.445l-.1.607a2.664,2.664,0,0,1-.174.509,3.727,3.727,0,0,1-.426.9,3.376,3.376,0,0,1-1.327,1.3,2.388,2.388,0,0,1-.926.273,3.819,3.819,0,0,1-1.7.031c-.262-.084-.5-.129-.781-.245l-.44-.207-.219-.1c-.035-.022-.077-.024-.107-.062l-.073-.163-.293-.651-.146-.325c-.129-.9.184,1.787-.307-2.062l0,.035a.787.787,0,0,0,.076.249,1.571,1.571,0,0,0,.243.482l.039.051c1.118,1.754.3.5.551.892l-.02.035-.04.07-.642,1.051c-.282.441-.593.812-.887,1.222a7.941,7.941,0,0,1-.878.856,4.621,4.621,0,0,1-1.656,1,4.356,4.356,0,0,1-1.966.225,4.569,4.569,0,0,1-1.97-.745,7.781,7.781,0,0,1-2.734-3.715,23.742,23.742,0,0,1-.895-2.654l-.351-1.322-.2-.793-.344-1.45-.152-.6-.025-.088c0-.009,0,0,0,0l.282-.092c.59-.2.967-.313,1.378-.466a7.185,7.185,0,0,0,1.607-.73c.117-.129-.011-.086.2.017.062.026.159.048.3.1a2.278,2.278,0,0,0,.381.085l.117,2.564a1.424,1.424,0,0,0-.271-.575.1.1,0,0,0-.018-.039l-.023-.028c-.01-.012-.03-.03.013.014a.828.828,0,0,0,.169.132.668.668,0,0,0,.084.043l.2.125a2.669,2.669,0,0,0,.459.213,2.572,2.572,0,0,1,.275.1c.1.041.086.042.086.042v.01a8.493,8.493,0,0,0-.159,1.339c-.015.245-.051.68-.091,1.009l-.143,1.051-.242,1c-.086.33-.227.625-.338.939a6.836,6.836,0,0,1-.974,1.648,3.808,3.808,0,0,1-.645.679c-.225.212-.462.421-.7.629a9.088,9.088,0,0,1-2.3,1.077,6.437,6.437,0,0,1-2.5.148,7.587,7.587,0,0,1-4.431-2.418,7.8,7.8,0,0,1-.872-1.049,9,9,0,0,1-.758-1.16,8.159,8.159,0,0,1-.577-1.085,9.363,9.363,0,0,1-.376-.9,12.022,12.022,0,0,1-.563-1.889,8.422,8.422,0,0,1-.177-1.022l-.06-.5-.029-.364c-.078-.96-.145-1.814-.254-2.58l-.041-.286c-.017-.092-.036-.2-.029-.161,0,.007,0-.014-.007-.02l-.02-.051c-.028-.06-.093-.117-.146-.1l-.017.033-.031.059-.016.026c-.028.034.081-.087-.264.315a14.065,14.065,0,0,1-4,3.233l-.683.333-.779.271a8.2,8.2,0,0,1-1.694.353,7.618,7.618,0,0,1-3.554-.481c-.261-.109-.521-.223-.778-.342l-.381-.184-.3-.194c-.4-.261-.8-.533-1.187-.812a10.03,10.03,0,0,1-1.079-1l-.511-.534-.423-.589a12.078,12.078,0,0,1-1.355-2.438,17.634,17.634,0,0,1-.725-2.34c-.368-1.509-.522-2.848-.7-4.039a19.741,19.741,0,0,0-.617-3.086,5.345,5.345,0,0,0-.2-.59l-.055-.114.015.027a.187.187,0,0,1,.018.033l-.013-.012a.015.015,0,0,0-.026,0l-.311.2-.876.5c-.314.176-.611.357-.96.519l-1.017.493c-.361.157-.747.3-1.121.448a11.369,11.369,0,0,1-1.238.386,9.27,9.27,0,0,1-1.479.28,8.9,8.9,0,0,1-1.774.034,8.015,8.015,0,0,1-1.791-.381,7.035,7.035,0,0,1-3.006-2.021A8.3,8.3,0,0,1,234,413.715l-.219-.385-.149-.316-.287-.638a17.973,17.973,0,0,1-.716-2.285c-.349-1.425-.549-2.7-.76-3.879a21.721,21.721,0,0,0-.685-3.011,4.294,4.294,0,0,0-.348-.808.1.1,0,0,1-.041-.049c0-.007-.008-.03-.007-.013a1.582,1.582,0,0,0,.17-.146,2.111,2.111,0,0,0,.388-.483l5.4-2.819a14.442,14.442,0,0,1-1.238,6.124,13.43,13.43,0,0,1-.746,1.447c-.161.239-.445.7-.663.981-.231.294-.5.553-.746.831a7.554,7.554,0,0,1-7.778,2.211,6.291,6.291,0,0,1-.975-.372l-.481-.205-.24-.1-.12-.051-.08-.1-1.282-1.622-.638-.813a8.788,8.788,0,0,1-.512-1l-.664-1.488c-.291-.818-.625-1.637-.851-2.459-1.944-6.622-1.787-12.993-1.857-18.91-.012-1.48-.015-2.929-.067-4.366q-.039-2.27-.076-4.531c-.011-3.031.035-6.035.155-9.023.227-5.975.664-11.872,1.185-17.7,1.051-11.652,2.423-23.014,3.442-34.158a277.275,277.275,0,0,0,1.4-32.674,144.465,144.465,0,0,0-1.232-15.637,105.585,105.585,0,0,0-3.185-14.858,77.093,77.093,0,0,0-5.441-13.676c-1.047-2.186-2.336-4.217-3.554-6.268l-2.01-2.947-.411-.608a1.256,1.256,0,0,0-.141-.145l-.3-.289c-.418-.385-.811-.8-1.247-1.162a34.11,34.11,0,0,0-11.569-6.639,59.558,59.558,0,0,0-13.082-2.694c-1.111-.1-2.213-.223-3.322-.3l-.829-.063c-.3-.026-.482-.03-.959-.086a3.962,3.962,0,0,1-1.594-.514,3.824,3.824,0,0,1-.555-.451,3.051,3.051,0,0,1-.475-.709,2.976,2.976,0,0,1-.213-.793,3.139,3.139,0,0,1,.011-.654,3.954,3.954,0,0,1,.555-1.492,8.339,8.339,0,0,1,.614-.885c.405-.514.8-.949,1.2-1.369.766-.824,1.572-1.617,2.091-2.288.049-.071.127-.164.152-.211l.054-.08c.026,0-.05-.036.067,0l.221.075.142.064a1.639,1.639,0,0,0,.3.09,2.251,2.251,0,0,0,.45.057.66.66,0,0,0,.095-.018c.013,0,.011,0,.019,0a.092.092,0,0,0,.045-.014c-.013,0-.1.077-.106.125a.922.922,0,0,0-.2.436,4.073,4.073,0,0,0-.177.685l.015,0-.144-.027-.295-.058a4.354,4.354,0,0,1-1.289-.464,4.267,4.267,0,0,1-.732-.592,3.022,3.022,0,0,1-.549-.963,2.923,2.923,0,0,1,.053-1.865,5.148,5.148,0,0,1,1.317-1.946,16.02,16.02,0,0,1,6.173-3.38l-.29,2.738a1.925,1.925,0,0,1-.3-.227,1.837,1.837,0,0,1-.13-.135,1.161,1.161,0,0,1-.159-.221,1.667,1.667,0,0,1-.216-.958,1.635,1.635,0,0,1,.24-.693,1.707,1.707,0,0,1,.2-.261l.092-.086a2.134,2.134,0,0,1,.2-.156,1.656,1.656,0,0,1,.253-.144,3.366,3.366,0,0,1,.555-.2c.282-.076.519-.124.753-.169.463-.087.894-.151,1.32-.212l2.4-.334.413-.073a.892.892,0,0,0,.039.141l.068.2c.048.136.1.27.159.4a1.293,1.293,0,0,0,.228.468.049.049,0,0,0,.031.04.067.067,0,0,0,.028,0c-2.754.227-.724.137-1.321.221l.069.129.275.518.124.234-.011,0c-.029-.016-.06-.027-.088-.046l-.323-.23-.64-.453c-.184-.178-.345-.375-.517-.56a3.92,3.92,0,0,1-.943-2.716,5.44,5.44,0,0,1,.987-2.629,7.323,7.323,0,0,1,1.936-1.839,6.583,6.583,0,0,1,4.759-1.018,6.339,6.339,0,0,0-4.544,1.416,7.1,7.1,0,0,0-1.632,1.851,4.459,4.459,0,0,0-.612,2.367,2.86,2.86,0,0,0,1.131,2.13,4.484,4.484,0,0,0,1.054.658,1.191,1.191,0,0,0,.139.068c.019,0,.073.048.021-.055l-.011-.025c-.033,0,.28-.026.14-.016h-.014a.049.049,0,0,1-.037-.035c.011-.006-.032-.058-.044-.07l0,0a1.19,1.19,0,0,1-.23.089c-.182.056-.373.1-.564.151l-2.343.535c-.4.092-.791.187-1.182.3-.2.054-.391.114-.575.183a1.381,1.381,0,0,0-.249.114c-.019.01-.035.021-.036.026l-.009.009c-.047-.031-.033-.049-.062-.064-.084-.028-.02-.006-.02-.034a.374.374,0,0,0,.09-.074l0,0-.041.388a19,19,0,0,0-3.185,1.688,10.287,10.287,0,0,0-1.407,1.105,4.7,4.7,0,0,0-1.044,1.3,1.117,1.117,0,0,0-.159.572c.032.127.032.137.156.2a.361.361,0,0,1,.081.052l.146.039a.982.982,0,0,0,.327.066l.453.059a1.58,1.58,0,0,1,.9.39,1.264,1.264,0,0,1,.387.634,1.657,1.657,0,0,1,.029.611,2.776,2.776,0,0,1-.246.744,7.461,7.461,0,0,1-.6.978c-.415.575-.843,1.09-1.262,1.6s-.831,1.011-1.2,1.509a4.7,4.7,0,0,0-.765,1.308c.154.077-.371-.072-.575-.021-.036-.019-.19.059-.111.02a.059.059,0,0,0,.022-.024.765.765,0,0,0,.121-.118.521.521,0,0,0,.084-.15,1.911,1.911,0,0,0,.164-.281c.051-.109-.012-.033.051-.055a2.038,2.038,0,0,0,.259.014l1.965.019c2.735.037,5.515.159,8.326.455a45.166,45.166,0,0,1,16.678,4.743,37.945,37.945,0,0,1,7.287,5.05l.417.362.294.259a1.5,1.5,0,0,1,.306.319l.726.97,1.275,1.694c.416.569.863,1.117,1.25,1.7l1.151,1.757a84.929,84.929,0,0,1,11.727,28.543,114.608,114.608,0,0,1,2.578,22.359,297.292,297.292,0,0,1-2.138,36.723c-1.28,11.928-2.826,23.581-3.876,35.058-.526,5.737-.933,11.43-1.115,17.073q-.045,2.115-.089,4.222.009,2.1.02,4.19c.074,2.854.04,5.733.04,8.507,0,5.546.191,11.021,1.934,15.839a11.579,11.579,0,0,0,1.115,2.43,1.926,1.926,0,0,0,2.037-.022c1.021-.49,2.155-3.282,2.1-5.361l-.091-3.214,2.745,1.59a5.814,5.814,0,0,1,1.986,1.982,10.071,10.071,0,0,1,.936,2.148,30.394,30.394,0,0,1,.861,3.973c.214,1.26.405,2.486.7,3.586a9.008,9.008,0,0,0,.524,1.5,2.608,2.608,0,0,0,.641.928,1.772,1.772,0,0,0,.96.453,2.543,2.543,0,0,0,.538.029c.2-.019.424-.057.64-.089a12.452,12.452,0,0,0,3.048-1.242l.767-.43c.109-.054.3-.18.471-.294l.524-.341,1.045-.68,1.075-.608,1.071-.6,1.015.773a6.948,6.948,0,0,1,.955.827,7.027,7.027,0,0,1,.875.908l.739,1.058a7.774,7.774,0,0,1,.6,1.193,6.248,6.248,0,0,1,.371,1c.1.332.226.672.29,1a37.848,37.848,0,0,1,.657,3.823,30.568,30.568,0,0,0,.615,3.43,7.889,7.889,0,0,0,1.3,2.691,5.532,5.532,0,0,0,1.06.932,3.328,3.328,0,0,0,1.143.593,3.043,3.043,0,0,0,2.335-.4,9.782,9.782,0,0,0,2.351-2.031,36.573,36.573,0,0,0,2.925-4.121,4.973,4.973,0,0,0,.626-.251l.281-.137a.51.51,0,0,1,.072-.032l.112.041.223.08a8.548,8.548,0,0,1,1.7.758,6.814,6.814,0,0,1,2.537,2.746c.155.286.273.6.411.9l.324.96.239,1,.161.93c.154,1.055.225,2.081.3,3.058a7.766,7.766,0,0,0,1.483,4.236,2.862,2.862,0,0,0,1.434,1.023,1.908,1.908,0,0,0,1.646-.46,2.219,2.219,0,0,0,.677-1.2,5.488,5.488,0,0,0,.116-.686l.067-.765a9.922,9.922,0,0,1,.454-2.58,7.727,7.727,0,0,1,.345-.744,6.691,6.691,0,0,1,.539-.715,6.331,6.331,0,0,1,.707-.571c.251-.137.51-.264.77-.378l-.956,1.1a2.345,2.345,0,0,1,.079-.276c.121-.119-.031-.508,1.094-1,1.686-.017,1.446.636,1.665.678a2.02,2.02,0,0,1,.145.267,3.424,3.424,0,0,1,.165.463l.165.624.265,1.129.26,1.095.2.792a8.691,8.691,0,0,0,1.024,2.581,1.1,1.1,0,0,0,.53.429.688.688,0,0,0,.64-.182,4.327,4.327,0,0,0,.8-1.125,5.018,5.018,0,0,1,.388-.57c.072-.09.156-.17.233-.254a.691.691,0,0,1,.067-.068l.14-.108.279-.216a4.444,4.444,0,0,1,.807-.428,3.2,3.2,0,0,1,.875-.177,1.216,1.216,0,0,1,.409.042,1.679,1.679,0,0,1,.31.144,6.169,6.169,0,0,1,1.02.9.51.51,0,0,0,.29.16c.114-.008.176-.138.2-.243a3.272,3.272,0,0,0,.083-.676c.016-.455.011-.908,0-1.36l-.062-1.412q-.135-2.14-.267-4.271c-.105-1.468-.195-2.9-.338-4.376a268.139,268.139,0,0,1-.538-34.71c.938-22.637,3.118-44.226,4.264-64.985,1.147-20.731,1.535-40.73-1.085-59.542a117.574,117.574,0,0,0-6.766-26.822,69.725,69.725,0,0,0-13.791-22.247,65.842,65.842,0,0,0-16.5-12.641,89.394,89.394,0,0,0-21.486-7.907,130.653,130.653,0,0,0-20.547-2.96c-1.512-.144-2.959-.188-4.325-.249l-3.847-.165-5.963-.084a2.071,2.071,0,0,0-.966.262l-.881.355-1.53.617-2.258.9Z" transform="matrix(-1, 0, 0, 1, 380, 0)" /><path d="M207.478,210.725a21.376,21.376,0,0,1,4.875,2.426,41.735,41.735,0,0,1,8.622,7.3,53.038,53.038,0,0,1,4.12,5.13c1.242,1.827,2.428,3.679,3.426,5.523a89,89,0,0,1,4.546,9.679c3.607,8.893,5.837,19.012,7.145,29.257a241.885,241.885,0,0,1,1.676,30.539,418.431,418.431,0,0,1-3.5,49.639c-1.9,15.393-4.227,29.187-5.856,40.233a174.771,174.771,0,0,1,.214-19.393c.386-6.953.937-13.479,1.464-16.879,4.294-27.343,5.922-51.782,4.481-73.243a160.155,160.155,0,0,0-4.57-29.723,102.467,102.467,0,0,0-4.244-12.825,72.705,72.705,0,0,0-5.745-11.143,55.659,55.659,0,0,0-8.646-10.566A49.217,49.217,0,0,0,207.478,210.725Z" transform="matrix(-1, 0, 0, 1, 380, 0)" /><path d="M290.964,432.916a64.66,64.66,0,0,1-.4-8.019c-.065-4.443.013-10.318.214-16.613.4-12.592,1.211-26.859,1.463-34.8.467-14.022,1.031-29.053,1.052-44.19a362.049,362.049,0,0,0-2.343-44.694c-1.572-12.5-4.021-24.83-8.076-36.274-4.033-11.425-9.69-21.969-17.091-30.4a74.112,74.112,0,0,0-25.407-18.742,103.041,103.041,0,0,0-26.311-7.518,83.523,83.523,0,0,1,13.2,1.247,80.356,80.356,0,0,1,14.991,4.134c9.838,3.746,18,9.87,21.633,13.622a85.491,85.491,0,0,1,17.2,24.968,132.579,132.579,0,0,1,8.9,26.861c1.014,4.452,1.832,8.869,2.492,13.236.684,4.364,1.209,8.678,1.631,12.931.86,8.506,1.3,16.768,1.524,24.768.442,16,.028,30.961-.549,44.937-.6,13.978-1.419,26.981-2.176,39.117-.366,5.761-.866,13.63-1.305,20.556C291.2,424.965,291.024,430.949,290.964,432.916Z" transform="matrix(-1, 0, 0, 1, 380, 0)" /><path d="M233.871,209.2a47.949,47.949,0,0,1,5.15,3.7c1.308,1.168,2.784,2.581,4.409,4.105.809.766,1.524,1.684,2.329,2.565.783.9,1.613,1.808,2.41,2.768l2.25,3.059a33.716,33.716,0,0,1,2.182,3.169c1.339,2.189,2.75,4.325,3.805,6.524.564,1.081,1.114,2.137,1.646,3.155.5,1.032.919,2.059,1.355,3.018.858,1.925,1.648,3.649,2.171,5.138a142.212,142.212,0,0,1,8.385,34.051A299.953,299.953,0,0,1,272.251,316c.23,20.1-.987,39.9-1.9,57.9-.942,18.006-1.515,34.254-.758,47.242a133.351,133.351,0,0,1-2.968-22.414,176.442,176.442,0,0,1-.17-19.833c1.14-16.169,2.286-31.311,2.771-45.59a371.02,371.02,0,0,0-.509-40.18,197.163,197.163,0,0,0-5.531-34.675,110.484,110.484,0,0,0-11.534-28.139c-1.071-1.984-2.647-4.122-4.182-6.437l-.587-.866-.657-.821-1.316-1.653-1.306-1.65c-.218-.271-.424-.552-.65-.811l-.7-.744A99.066,99.066,0,0,0,233.871,209.2Z" transform="matrix(-1, 0, 0, 1, 380, 0)" /><path d="M221.573,209.209a38.777,38.777,0,0,1,4.8,3.1c1.2,1.042,2.588,2.251,4.1,3.567.711.708,1.408,1.49,2.148,2.273.714.8,1.535,1.563,2.21,2.465l2.089,2.717c.346.461.716.91,1.045,1.386l.937,1.464,1.861,2.911c.584.978,1.08,1.989,1.61,2.953.507.974,1.054,1.9,1.49,2.842l1.228,2.721c.387.868.778,1.683,1.107,2.459.3.784.588,1.514.845,2.177.453,1.171.939,2.347,1.372,3.55q.59,1.826,1.189,3.677l.6,1.862q.252.945.5,1.9.5,1.908,1.007,3.836c.317,1.29.567,2.6.853,3.908.265,1.312.587,2.622.787,3.953.439,2.657.938,5.326,1.248,8.02a277.091,277.091,0,0,1,2.154,32.038c.293,18.109-.711,35.955-1.488,52.177-.8,16.222-1.366,30.856-.626,42.544a110.229,110.229,0,0,1-2.974-20.17,149.749,149.749,0,0,1-.262-17.873c1.035-14.569,2.022-28.212,2.417-41.077a337.564,337.564,0,0,0-.578-36.191,179.238,179.238,0,0,0-4.982-31.226,94.929,94.929,0,0,0-10.34-25.318,71.655,71.655,0,0,0-8.576-11.574A80.661,80.661,0,0,0,221.573,209.209Z" transform="matrix(-1, 0, 0, 1, 380, 0)" /><path d="M252.6,215.187a47.67,47.67,0,0,1,4.738,4.377l3.977,4.663,2.058,2.861,1.072,1.5a16.137,16.137,0,0,1,1.042,1.571l2,3.3c.329.56.689,1.107.995,1.683l.894,1.742,1.776,3.462c.555,1.157,1.032,2.332,1.537,3.463.484,1.14,1.006,2.234,1.424,3.323s.8,2.148,1.175,3.151l1.062,2.846c.293.9.565,1.741.812,2.5.436,1.346.9,2.7,1.319,4.08q.569,2.084,1.145,4.2.285,1.061.574,2.127.243,1.077.486,2.16.482,2.167.969,4.361c1.135,5.875,2.117,11.9,2.75,17.991a343.4,343.4,0,0,1,1.873,36.184c.115,20.441-1.069,40.589-2.036,58.918-1,18.33-1.681,34.868-1.408,48.117a162.093,162.093,0,0,1-2.474-22.871,195.39,195.39,0,0,1-.03-20.172c1.195-16.446,2.344-31.86,2.863-46.393.564-14.527.512-28.161-.244-40.909a230.078,230.078,0,0,0-4.722-35.465,132.092,132.092,0,0,0-9.931-29.4,103.939,103.939,0,0,0-8.19-14.148l-2.378-3.175c-.38-.5-.725-1-1.094-1.443l-1.09-1.238Z" transform="matrix(-1, 0, 0, 1, 380, 0)" /><path class="cls-1 color-hair" d="M190.965,189.2c.036-3.057-4.142-3.867-7.2-3.729-77.186,2.415-118.155,51.2-117.175,119.476.378,37.019.626,63.859,8.987,100.056,6.221,13.557,11.1-9.372,10.443-14.73,0,0,.068,5.428,1.744,7.391,6.579,4.939,9.455-5.266,7.792-10.467-9.726-63.861-9.835-167.815,74.118-173.331,1.826-6.708-.016-9.174-4.015-9.891.594-.017,1.182-.042,1.784-.049l-2.465-.053a27.773,27.773,0,0,0-4.556-.1l-2.169-.047c4.419-.446,26.285-2.055,13.713-8.686C174.4,194.455,190.935,191.7,190.965,189.2Z" transform="matrix(-1, 0, 0, 1, 380, 0)" /><path d="M191.024,189.2a1.13,1.13,0,0,1-.385.873,5.392,5.392,0,0,1-1.292.909,26.024,26.024,0,0,1-4.512,1.757c-.941.291-1.971.581-3.081.872l-1.726.438-1.716.411-3.185.724-.822.183-.414.095-.207.05c-.046.02-.209.024-.079.071a15.581,15.581,0,0,1,1.6.955,4.046,4.046,0,0,1,1.34,1.4,2.589,2.589,0,0,1,.165.738,2.4,2.4,0,0,1-.219,1,3.5,3.5,0,0,1-1.131,1.331A16.057,16.057,0,0,1,170,203.1a92.2,92.2,0,0,1-11.635,1.728l-.088-2.209,2.216.022c.72-.037,1.541-.064,2.327-.058.4,0,.8.014,1.209.037l1.121.087,2.319.03-.013,2.376-1.761.063.176-2.385a8.753,8.753,0,0,1,2.9.99,5.372,5.372,0,0,1,2.26,2.492,7.566,7.566,0,0,1,.61,3.114,13.4,13.4,0,0,1-.075,1.483,16.179,16.179,0,0,1-.288,1.762c-.112.581-.248,1.159-.392,1.738l-.106.434-.053.217-.218.029-.877.114q-.872.119-1.781.214l-1.565.175-2.65.3-1.324.149-1.306.252-5.2,1.024c-1.715.39-3.378.95-5.054,1.411-.829.258-1.681.443-2.483.759l-2.4.939a42.146,42.146,0,0,0-4.663,1.979c-1.487.759-2.973,1.478-4.407,2.239l-4.059,2.552-.993.624-.921.708-1.814,1.4-1.774,1.364c-.585.449-1.088.984-1.626,1.462q-1.581,1.47-3.08,2.86l-2.652,2.944q-.641.71-1.257,1.4c-.388.477-.741.969-1.1,1.438l-2.045,2.709a95.175,95.175,0,0,0-9.754,17.854q-.945,2.411-1.9,4.834-.822,2.477-1.65,4.965c-.592,1.643-.974,3.367-1.47,5.054L100,279.307l-.591,2.587c-.851,3.436-1.461,6.949-2.116,10.461-.521,3.542-1.092,7.086-1.443,10.679-.789,7.168-1.265,14.426-1.377,21.721a338.371,338.371,0,0,0,2.152,43.835l.643,5.443q.362,2.713.723,5.422c.235,1.807.531,3.6.793,5.4l.2,1.348a1.311,1.311,0,0,0,.048.287l.112.4.1.46a15.489,15.489,0,0,1,.319,3.527,16.325,16.325,0,0,1-1.54,6.814,10.577,10.577,0,0,1-1.054,1.735l-.337.431-.438.474a8.344,8.344,0,0,1-.981.856,7.437,7.437,0,0,1-2.319,1.143,7.323,7.323,0,0,1-2.575.217,8.964,8.964,0,0,1-1.28-.24,9.416,9.416,0,0,1-2.138-.89,7.9,7.9,0,0,1-1.109-.735,5.121,5.121,0,0,1-1.651-1.959,4.044,4.044,0,0,1-.311-.6l-.239-.563c-.107-.3-.216-.6-.306-.891a20.483,20.483,0,0,1-.676-3.234c-.073-.518-.122-1.024-.166-1.533l-.053-.765-.02-.389-.008-.2,0-.1c.116.04-.3-.536.387,1.512,1.869,3.5,6.662,1.136,5.858.906l1.048-3.04a21.018,21.018,0,0,1-.033,4.154c-.113,1.23-.279,2.411-.476,3.578a47.035,47.035,0,0,1-1.689,6.865c-.184.568-.4,1.142-.624,1.714l-.371.869c-.038.108-.186.381-.3.6l-.348.673a9.344,9.344,0,0,1-3.889,4.128,5.554,5.554,0,0,1-5.146-.122,10.686,10.686,0,0,1-3.853-4.155q-.26-.471-.5-.955l-.275-.553a1.861,1.861,0,0,1-.233-.607l-.359-1.6-.593-2.633q-.609-2.628-1.131-5.274c-.745-3.519-1.375-7.059-2.007-10.593-1.2-7.081-2.14-14.19-2.849-21.286-1.435-14.2-1.868-28.314-2.063-42.165q-.059-5.193-.115-10.351c-.017-3.445-.078-6.805-.025-10.324a147.285,147.285,0,0,1,1.539-20.707,121.693,121.693,0,0,1,12.069-38.561,101.153,101.153,0,0,1,23.753-30.345,102.559,102.559,0,0,1,14.952-10.8,116.469,116.469,0,0,1,15.927-7.794,136.257,136.257,0,0,1,32.057-8.118c2.612-.265,5.181-.623,7.731-.794l3.8-.253,1.878-.124,1.866-.05,3.692-.092,1.836-.041a15.7,15.7,0,0,1,1.958.1,10.446,10.446,0,0,1,3.875,1.148,4.812,4.812,0,0,1,1.707,1.536,4.028,4.028,0,0,1,.656,2.318,4.15,4.15,0,0,0-.693-2.024,4.447,4.447,0,0,0-1.557-1.3,8.849,8.849,0,0,0-3.556-.833,18.614,18.614,0,0,0-3.6.242l-3.654.467c-4.957.618-10.2,1.552-15.587,2.646a160.861,160.861,0,0,0-16.285,4.43c-1.36.433-2.718.876-4.048,1.405l-4.009,1.508c-2.614,1.148-5.264,2.182-7.773,3.473-2.562,1.174-4.984,2.569-7.4,3.877-1.187.692-2.337,1.426-3.493,2.124-.572.358-1.157.689-1.712,1.063l-1.646,1.129A101.687,101.687,0,0,0,105.25,216.7a114.445,114.445,0,0,0-15.164,17.037,99.655,99.655,0,0,0-12.928,23.738,118.866,118.866,0,0,0-6.673,25.806q-.239,1.639-.475,3.273-.168,1.643-.335,3.282c-.1,1.094-.246,2.183-.31,3.277s-.131,2.187-.2,3.278c-.168,2.18-.171,4.365-.22,6.542s-.041,4.386-.054,6.574c-.024,8.77-.019,17.412.158,25.931a344.366,344.366,0,0,0,4.139,49.477q.516,2.978,1.029,5.934c.357,1.969.762,3.923,1.139,5.874s.83,3.882,1.24,5.813l.315,1.445c.064.277.077.386.124.539l.224.453a9.114,9.114,0,0,0,.471.858,4.792,4.792,0,0,0,.547.72,1.467,1.467,0,0,0,1.593.57,2.826,2.826,0,0,0,1.276-1.23c.152-.258.3-.521.433-.805.059-.107.163-.36.249-.557s.182-.413.261-.63c.341-.847.621-1.739.886-2.632a44.893,44.893,0,0,0,1.2-5.483c.14-.921.264-1.845.331-2.755a15.05,15.05,0,0,0,.023-2.573l.429-1.245c-.094-1.257,3.7.794,2.561,1.092v.059l0,.118.01.243.029.489c.022.326.048.653.084.977.07.647.16,1.29.286,1.905a10.573,10.573,0,0,0,.493,1.719,1.757,1.757,0,0,0,.738.982,2.31,2.31,0,0,0,.262.156,2.36,2.36,0,0,0,.344.181,3.513,3.513,0,0,0,.635.239,2.158,2.158,0,0,0,1.241-.038,2.422,2.422,0,0,0,1.021-.708,5.482,5.482,0,0,0,.846-1.33,11.831,11.831,0,0,0,.749-6.969c-.031-.138-.059-.277-.1-.406a3.793,3.793,0,0,1-.151-.648l-.15-1.022-.294-2c-.19-1.331-.406-2.656-.571-3.984q-2.16-15.917-3.036-31.358c-1.113-20.565-.437-40.516,3.034-59.357a140.959,140.959,0,0,1,7.714-27.111,92.517,92.517,0,0,1,13.614-23.595,70.132,70.132,0,0,1,19.982-17.071,74.613,74.613,0,0,1,23.73-8.374l2.59-.471c.442-.073.886-.177,1.341-.224l1.383-.133,2.854-.267,1.718-.138.2-.017.052-.186.106-.378c.06-.257.129-.519.172-.791l.074-.487.053-.666a7.765,7.765,0,0,0-.047-1.253,2.837,2.837,0,0,0-.865-1.81,5.091,5.091,0,0,0-2.294-.982l.241-3.27,1.815-.009-.017,3.213-2.372-.107-1.2-.13c-.359-.032-.723-.055-1.09-.07-.75-.03-1.434-.034-2.248-.02l-2.27-.107-.108-2.734a95.543,95.543,0,0,0,11.421-1.244,14.8,14.8,0,0,0,4.783-1.581,1.852,1.852,0,0,0,.592-.6.177.177,0,0,0,.051-.13c-.006-.045.057-.073.014-.135l-.116-.18c-.012-.038-.172-.21-.249-.308a16,16,0,0,0-2.944-2.422,2.217,2.217,0,0,0-.238-.526,3.164,3.164,0,0,0-.474-.435l-.127-.106c0-.016-.08-.039-.028-.049l.147-.029.579-.112,1.133-.2,4.235-.742,3.537-.64q1.591-.3,3.006-.61a45.12,45.12,0,0,0,4.853-1.291,11.081,11.081,0,0,0,1.748-.752C190.518,189.992,190.963,189.671,191.024,189.2Z" transform="matrix(-1, 0, 0, 1, 380, 0)" /><g class="cls-2" transform="matrix(-1, 0, 0, 1, 380, 0)"><path class="cls-3" d="M162.689,206.453c-.468.674-5.089,1.1-10.352,1.952l-4.011.71-3.922.859a52.432,52.432,0,0,0-6.295,1.936,93.027,93.027,0,0,0-16.357,8.08,64.263,64.263,0,0,0-7.4,5.438,61.161,61.161,0,0,0-6.312,6.3A77.909,77.909,0,0,0,93.9,257.591c-3.027,8.934-4.624,17.531-6,24.5a36.807,36.807,0,0,1-2.923-12.6c-.34-4.605.209-8.967,1.031-11.105a103.974,103.974,0,0,1,11.95-22.758c.6-.8,1.142-1.629,1.761-2.394l1.814-2.291c1.271-1.457,2.5-2.9,3.823-4.228a68.246,68.246,0,0,1,8.126-7.193,71.49,71.49,0,0,1,17.175-9.568,65.2,65.2,0,0,1,16.611-4.126,47.68,47.68,0,0,1,8.985-.117C159.265,205.9,161.846,206.333,162.689,206.453Z" /></g><g class="cls-2" transform="matrix(-1, 0, 0, 1, 380, 0)"><path class="cls-3" d="M166.265,192.759c-.626.778-7.485,2.057-15.241,4.13l-5.9,1.689-5.737,1.928a86.365,86.365,0,0,0-9.145,3.873c-.988.508-2,.976-2.992,1.515l-2.971,1.651c-2.024,1.046-3.93,2.352-5.926,3.527a100.766,100.766,0,0,0-11.258,8.34l-1.346,1.133-1.28,1.207c-.843.813-1.722,1.588-2.538,2.425l-2.408,2.54c-.815.831-1.517,1.762-2.28,2.632a76.562,76.562,0,0,0-7.836,11.161l-.745,1.256-.681,1.292-1.363,2.577c-.8,1.772-1.711,3.486-2.418,5.291a109.686,109.686,0,0,0-3.956,10.833,153.7,153.7,0,0,0-4.824,21.806c-1.091,7.137-1.744,14.013-2.311,20.463-.658,6.483-1.373,12.454-2.132,17.756a105.119,105.119,0,0,1-3.252-18.44c-.767-6.682-.783-13.1-.14-16.4,2.4-13.3,5.749-25.6,10.536-36.488A102.493,102.493,0,0,1,86.3,235.267,91.954,91.954,0,0,1,119.625,204.8a99.679,99.679,0,0,1,23.791-9.281c1.813-.51,4.013-.89,6.29-1.313,1.137-.222,2.312-.372,3.48-.5l3.445-.387c2.232-.277,4.34-.318,6.026-.418C164.346,192.817,165.63,192.771,166.265,192.759Z" /></g><g class="cls-2" transform="matrix(-1, 0, 0, 1, 380, 0)"><path class="cls-3" d="M230.8,325.126c-1.228-.884-.155-15.49-.529-21.132-.658-9.972-.489-21.255-1.418-31.277a192.169,192.169,0,0,0-3.593-24.914,153.289,153.289,0,0,0-5.976-19.921,26.062,26.062,0,0,1,8.2,7.271,27.41,27.41,0,0,1,1.663,2.321c.46.785.876,1.553,1.238,2.281a13.644,13.644,0,0,1,1.372,3.686c1.164,7.6,1.656,14.579,2.095,21.093s.605,12.586.77,18.289c.235,11.4.225,21.325-.889,29.9A80.941,80.941,0,0,1,230.8,325.126Z" /></g></svg>