<svg xmlns="http://www.w3.org/2000/svg" id="basic" viewBox="0 0 380 600"><defs transform="matrix(-1, 0, 0, 1, 380, 0)"><style>.cls-1{fill:#ff0;}.cls-2{fill:#24a0ed;opacity:0.25;}</style></defs><g id="sad" transform="matrix(-1, 0, 0, 1, 380, 0)"><path class="cls-1 color-eyes" d="M229.957,297.849c-6.408,8.944-18.923,5.683-27.395,1.167-11.5-6.133-12.74-19.391-4.046-28.571,3.186-3.363,8.945-5.809,8.945-5.809,11.618-3.307,24.765.714,26.951,11.9a27.822,27.822,0,0,1-.22,10.268A27.1,27.1,0,0,1,229.957,297.849Z" /><path d="M229.932,297.832c.013-.313.75-1.477,1.521-3.334a33.761,33.761,0,0,0,2.025-7.22,30.841,30.841,0,0,0,.45-8.574,13.717,13.717,0,0,0-2.191-6.383A14.219,14.219,0,0,0,228.648,269a17.3,17.3,0,0,0-1.952-1.267l-1.033-.561-1.1-.455a23.147,23.147,0,0,0-9.536-1.534,28.817,28.817,0,0,0-4.895.6c-.4.084-.8.2-1.194.3l-.6.155-.269.07c-.075.02-.005,0-.09.037-.736.344-1.485.728-2.208,1.127a31.175,31.175,0,0,0-4.078,2.652,16.473,16.473,0,0,0-1.689,1.522c-.5.566-.994,1.181-1.487,1.761a18.235,18.235,0,0,0-3.314,7.073,14.75,14.75,0,0,0,4.036,13.765,21.974,21.974,0,0,0,6.126,4.2c4.533,2.246,9.236,3.728,13.6,3.759A13.927,13.927,0,0,0,225,300.98a13.762,13.762,0,0,0,4.491-3.462,11.6,11.6,0,0,1-3.8,4.809,14.735,14.735,0,0,1-7.036,2.589,24.592,24.592,0,0,1-12-1.869c-1.126-.517-2.213-1.077-3.277-1.652l-1.565-.9-1.543-1.03a20.379,20.379,0,0,1-5.148-5.092,17.531,17.531,0,0,1-2.992-13.081,21.586,21.586,0,0,1,5.6-11.125,22.083,22.083,0,0,1,4.665-3.736c.823-.515,1.658-.989,2.5-1.436l1.268-.646.642-.3.386-.173.383-.1a30.838,30.838,0,0,1,10.887-1.025,23.024,23.024,0,0,1,9.847,3.2,15.692,15.692,0,0,1,6.325,7.523,19.905,19.905,0,0,1,1.111,9.024,33.5,33.5,0,0,1-2.276,9.4A21.071,21.071,0,0,1,229.932,297.832Z" /><path class="cls-1 color-eyes" d="M108.058,289.1a6.151,6.151,0,0,1-5.863-1.892c-4.925-5.578-.343-21.732,2.241-27.388,2.893-6.334,6.576-11.12,12.116-9.609,4.047,1.1,6.41,8.266,6.724,13.25.431,6.834.627,12.9-3.73,18.4C117.369,284.6,112.472,288.426,108.058,289.1Z" /><path d="M108.053,289.067c.174-.206,1.2-.438,2.6-1.114a23.839,23.839,0,0,0,4.863-3.088,18.528,18.528,0,0,0,4.386-4.857,14.58,14.58,0,0,0,1.91-4.917,30.32,30.32,0,0,0,.276-7.4c-.081-1.288-.2-2.6-.324-3.925a23.764,23.764,0,0,0-.652-3.726,17.27,17.27,0,0,0-3.026-6.577,5.831,5.831,0,0,0-1.1-1.026,5.714,5.714,0,0,0-.56-.3,3.21,3.21,0,0,0-.612-.172,4.9,4.9,0,0,0-2.81.168,6.718,6.718,0,0,0-2.173,1.394,15.057,15.057,0,0,0-1.883,2.241,34.7,34.7,0,0,0-2.97,5.479,65.1,65.1,0,0,0-3.6,11.762c-.769,3.844-1.209,7.655-.517,10.813a6.039,6.039,0,0,0,2.173,3.7,5.975,5.975,0,0,0,3.942,1.009,5.724,5.724,0,0,1-4.753.273,6.4,6.4,0,0,1-2.467-1.821,9.708,9.708,0,0,1-1.588-2.725A17.547,17.547,0,0,1,98.1,278.74a17.224,17.224,0,0,1,.254-3.975,72.114,72.114,0,0,1,3.072-10.514c.62-1.648,1.264-3.248,2.032-4.808a41.667,41.667,0,0,1,2.5-4.4,17.345,17.345,0,0,1,3.27-3.8,8.283,8.283,0,0,1,4.586-2.041,6.228,6.228,0,0,1,1.258-.012,6.114,6.114,0,0,1,1.222.176,5.871,5.871,0,0,1,1.215.375,6.582,6.582,0,0,1,1.091.642,10.908,10.908,0,0,1,2.94,3.609,24.928,24.928,0,0,1,2.544,8.143c.182,1.4.247,2.677.339,3.985s.121,2.593.1,3.873a22.33,22.33,0,0,1-1.239,7.428,16.985,16.985,0,0,1-3.779,6.023,20.772,20.772,0,0,1-6.242,4.284A14,14,0,0,1,108.053,289.067Z" /><path class="cls-2" d="M100.584,282.457a16.4,16.4,0,0,0-15.246,1.79,2.8,2.8,0,0,0-1.323,1.731,3.6,3.6,0,0,0,.339,1.863c1.758,4.388,5.908,7.588,10.009,7.717a9.518,9.518,0,0,0,9.148-7.111" /><path d="M103.525,288.451a7.468,7.468,0,0,1-1.613,3.707,10.151,10.151,0,0,1-2.3,2.227,10.763,10.763,0,0,1-2.355,1.226,8.618,8.618,0,0,1-3.7.527,10.347,10.347,0,0,1-3.749-1.09,13.38,13.38,0,0,1-5.541-5.328,14.284,14.284,0,0,1-.734-1.483,5.237,5.237,0,0,1-.463-1.786,2.931,2.931,0,0,1,.7-2.034,5.663,5.663,0,0,1,1.361-1.131,15.614,15.614,0,0,1,5.651-2.317,15.884,15.884,0,0,1,9.9,1.242,40.97,40.97,0,0,0-4.668-.125c-1.623.058-3.088.3-3.87.371a13.556,13.556,0,0,0-4.492,1.1,14.132,14.132,0,0,0-1.978,1.052,2.443,2.443,0,0,0-1.236,1.4,3.289,3.289,0,0,0,.35,1.883,11.347,11.347,0,0,0,.932,1.825,11.823,11.823,0,0,0,2.564,2.933,9.831,9.831,0,0,0,6.4,2.418,8.945,8.945,0,0,0,5.485-2.151,12.554,12.554,0,0,0,2.192-2.364A13.005,13.005,0,0,0,103.525,288.451Z" /><path class="cls-2" d="M223.318,303.528a13.456,13.456,0,0,0-7.676,2.464,7.248,7.248,0,0,0-2.836,7.2c1.065,4.165,6.068,5.7,10.285,6.533,5.649,1.114,12.5,1.844,16.225-2.543,3.024-3.558,2.274-9.407-1.036-12.7s-8.523-4.177-13.048-3.021" /><path d="M225.229,301.445a12.378,12.378,0,0,1,6.481-.546,13.378,13.378,0,0,1,4.845,1.726,11.5,11.5,0,0,1,3.194,2.842,10.786,10.786,0,0,1,2.135,5.57,9.252,9.252,0,0,1-1.536,6.143,9.81,9.81,0,0,1-5.273,3.688,18.192,18.192,0,0,1-6.114.63,38.067,38.067,0,0,1-5.08-.607,34.641,34.641,0,0,1-4.913-1.194,13.81,13.81,0,0,1-4.534-2.393,7.241,7.241,0,0,1-2.6-4.471,7.425,7.425,0,0,1,1.036-4.761,8.809,8.809,0,0,1,3.158-3.133,14.025,14.025,0,0,1,7.277-1.695,17.44,17.44,0,0,0-6.725,2.95,8.26,8.26,0,0,0-2.154,2.644,8.369,8.369,0,0,0-.766,2.275,4.812,4.812,0,0,0,.507,3.3,6.848,6.848,0,0,0,2.446,2.482,20.814,20.814,0,0,0,6.752,2.43,34.824,34.824,0,0,0,6.809.862,16.156,16.156,0,0,0,3.225-.252,10.092,10.092,0,0,0,2.931-.953,7.75,7.75,0,0,0,2.351-1.759,7.159,7.159,0,0,0,1.5-2.38,9.134,9.134,0,0,0,.255-5.323,9.763,9.763,0,0,0-2.332-4.409,11.266,11.266,0,0,0-3.878-2.662,15.916,15.916,0,0,0-5.111-1.195A17.4,17.4,0,0,0,225.229,301.445Z" /></g></svg>