<svg xmlns="http://www.w3.org/2000/svg" viewBox="0 0 380 600"><defs transform="matrix(-1, 0, 0, 1, 380, 0)"><style>.cls-1{isolation:isolate;}.cls-2{mix-blend-mode:multiply;}.cls-3{opacity:0.3;}.cls-4{fill:#ffffff;}.cls-5{fill:#ffd635;}.cls-6{opacity:0.2;}.cls-7{fill:#fff;}</style></defs><g class="cls-1" transform="matrix(-1, 0, 0, 1, 380, 0)"><g id="new"><g id="default"><g class="cls-2"><g class="cls-3"><path d="M224.19,380.32a16.68,16.68,0,0,1,.36-3.07l.73.47a30,30,0,0,1-9.24,5.57l-3.13,1.22,2.12-2.68a45.39,45.39,0,0,0,7-12.38l2,1.36a268.28,268.28,0,0,1-24.43,21.06l-2.35-2.27a186.67,186.67,0,0,1,19.37-23.94l2.54,3c-11.69,8.45-22.35,16.18-29.73,21.69l-7.81,5.82L178,391.86a315.61,315.61,0,0,1,32.46-29.08l3.63,6.3a125.37,125.37,0,0,0-25.3,15.4c-8,6.1-15.6,12.91-23.25,19.76l-6.7-5.59A99.7,99.7,0,0,1,176.77,377c6.68-6.27,13.72-11.78,20.58-17.14l5.16,8.08c-7.34,3.9-14,7.88-20.39,12.12a239.88,239.88,0,0,0-28.53,22.21l-7.36-7.08a231.64,231.64,0,0,1,41-38.52l4.66,8.86a102.28,102.28,0,0,0-25,12.55c-1.89,1.31-3.73,2.66-5.51,4.09s-3.77,3-5.76,4.5a47.7,47.7,0,0,1-13.66,7.43l-4.46-7.84c11.77-10.24,22.67-21.63,35.69-29.75l3,7.11a60.61,60.61,0,0,0-17.75,7.07c-5.44,3.15-10.51,6.8-15.55,10.29l-4.19-4.39c3.53-4.11,6.64-8.22,10.39-11.8a51.6,51.6,0,0,1,12-8.27l2,4c-8.26,3.25-14.95,5.82-21.34,8.24,5.66-3.35,12.48-7.13,20.09-11.18l.85,1.73a51,51,0,0,0-10.46,9.18c-3,3.61-5.67,7.87-8.65,12L139.24,376a168.17,168.17,0,0,1,16.56-12.72,64.08,64.08,0,0,1,18.36-8.24L178,364c-7.64,5.35-13.6,10.92-17.88,14.53-5.66,4.85-11.22,9.94-16.68,14.49l-4.17-7.33c3.95-1.11,7.94-3.55,11.73-6.28,1-.68,1.9-1.39,2.84-2.12l2.92-2.25c2-1.51,4-3,6.14-4.33A110.65,110.65,0,0,1,189.24,358l2.7,5.13a220.61,220.61,0,0,0-40.09,36.78l-3.16-3A250.79,250.79,0,0,1,199.38,362l2.11,3.31c-7.28,5.62-14.37,11.16-20.74,17.17A91.65,91.65,0,0,0,164.5,402l-3.27-2.73c8-7.12,15.9-14.12,24.2-20.35a128.56,128.56,0,0,1,26.27-15.65l2.56,4.46A343.24,343.24,0,0,0,182,395.88l-3.61-4.34q19.72-14,38.07-26.77L220,369q-5.15,5.21-9.77,10.62c-2.83,3.36-6,7.21-9.69,12.31l-3.35-3.24c8.34-5.87,17.47-13,25.14-19.64l2,1.34a44.58,44.58,0,0,1-8.14,12.45l-.64-.92a34.73,34.73,0,0,0,9.42-4.57l.15-.1-.05.17Z" /></g></g><circle class="cls-4 color-body" cx="117.4" cy="247.35" r="41.5" style="fill:#ffffff;--backup-fill:#ffffff" /><path d="M158.83,248.42a8,8,0,0,1-.48-2.34c-.09-.63-.11-1.37-.25-2.19s-.31-1.73-.49-2.72a43.41,43.41,0,0,0-5.33-13.87,40.75,40.75,0,0,0-11.58-12.39,35.86,35.86,0,0,0-12.6-5.56,39.92,39.92,0,0,0-35.59,9.06,39.48,39.48,0,0,0-6.34,7.26,38.23,38.23,0,0,0-2.39,4.16c-.34.73-.74,1.42-1,2.16l-.84,2.23c-.13.37-.3.73-.41,1.12l-.3,1.14-.63,2.29-.38,2.32a15.45,15.45,0,0,0-.29,2.33,31.48,31.48,0,0,0-.12,4.65c0,.77,0,1.54.09,2.31s.21,1.51.32,2.26a38.28,38.28,0,0,0,30.26,31.7,39.06,39.06,0,0,0,38.11-13.68,42.6,42.6,0,0,0,6.44-10.9,46.85,46.85,0,0,0,2.76-11.37,34.21,34.21,0,0,1,.11,12.36,39.35,39.35,0,0,1-15.39,24.34,26,26,0,0,1-2.64,1.74,22.9,22.9,0,0,1-2.51,1.4c-.82.38-1.6.73-2.32,1-.36.16-.71.31-1,.43l-1,.29c-1.26.33-2.49.73-3.75,1l-3.77.66c-1.26.12-2.52.2-3.77.3l-.93.06-.93,0-1.87,0a45.3,45.3,0,0,1-14.19-2.72,47.14,47.14,0,0,1-12.12-6.71,44.76,44.76,0,0,1-9.18-9.64c-.6-.92-1.27-1.78-1.8-2.72l-1.56-2.83c-.5-.95-.88-2-1.32-2.93-.2-.49-.44-1-.62-1.46l-.49-1.51-.49-1.5a11.4,11.4,0,0,1-.42-1.52c-.23-1-.45-2-.68-3s-.27-2.05-.41-3.06l-.19-1.53c0-.51,0-1,0-1.53l-.06-3.05c.07-1,.15-2,.23-3,0-.5,0-1,.13-1.5l.26-1.47c.19-1,.31-2,.55-2.92a45.05,45.05,0,0,1,1.77-5.6l.53-1.36a9.23,9.23,0,0,1,.58-1.33l1.3-2.57a43,43,0,0,1,6.66-9.11,44.75,44.75,0,0,1,4-3.78c.7-.6,1.47-1.09,2.19-1.64a22.16,22.16,0,0,1,2.24-1.53,42.9,42.9,0,0,1,39-3.47,41.66,41.66,0,0,1,15,10.37c.93,1,1.89,2.24,2.88,3.5l1.34,2.06a18.19,18.19,0,0,1,1.28,2.19l1.17,2.31c.41.77.65,1.61,1,2.41s.64,1.6.86,2.42.43,1.63.64,2.43l.3,1.18c.07.4.13.79.19,1.18.12.78.23,1.54.34,2.27a15.69,15.69,0,0,1,.18,2.12l.08,1.93,0,.88-.05.83c0,.53-.06,1-.09,1.46C158.91,247.28,158.86,248,158.83,248.42Z" /><path class="cls-5" d="M86.71,259.37c6.26-4.29,1.72-14-6.35-10.13-14.62,6.62-19.49,29.4-14.52,44,10.39,27.71,43.79,16.88,47.23-6.2,2.26-9.82-.7-23-9.58-30.05-2.88,1.63-5.41,4-8.71,5.19,6.94,9.83,10,30.24-5.53,34C69.37,297,75.1,267.17,86.71,259.37Z" /><path d="M86.72,259.4c-.16.23-.85.72-1.76,1.63a24.37,24.37,0,0,0-3.16,4,33.65,33.65,0,0,0-5,14.5,27.16,27.16,0,0,0,0,4.42,18.68,18.68,0,0,0,.88,4.34,10.24,10.24,0,0,0,5.43,6.2,8.41,8.41,0,0,0,1,.36l.48.17.49.11,1,.2,1,.1a13.76,13.76,0,0,0,1.92.05c.19,0,.26,0,.36,0l.42-.13c.29-.09.59-.16.87-.27a12.8,12.8,0,0,0,5.22-3.34,13.7,13.7,0,0,0,3.19-6.4,22.92,22.92,0,0,0,.31-7.55,33.11,33.11,0,0,0-1.83-7.66,31.69,31.69,0,0,0-1.61-3.69c-.3-.61-.63-1.19-1-1.77l-.41-.67-.53-.8-1.07-1.58L95,260.7l1-.46.54-.3c.72-.42,1.43-.89,2.15-1.38l2.21-1.53c.4-.28.65-.45,1.47-.95l1.05-.63.14-.07.06,0s0,0,.06,0l.23.19.47.4,1.49,1.28c.36.31.67.68,1,1a25.73,25.73,0,0,1,1.88,2.16,29,29,0,0,1,3,4.86,34.58,34.58,0,0,1,2.1,5.3,37.71,37.71,0,0,1,1.15,5.57,32.94,32.94,0,0,1-.44,11.29l0-.12a27.37,27.37,0,0,1-2.92,8.92A29.14,29.14,0,0,1,98.06,309a27.21,27.21,0,0,1-9.13,2.34,22.41,22.41,0,0,1-17.26-6.05,27.35,27.35,0,0,1-5.41-7.24c-.33-.67-.7-1.31-1-2L64.44,294a30.46,30.46,0,0,1-1.15-4.25,42.11,42.11,0,0,1-.81-8.47,46.31,46.31,0,0,1,2.87-16,32.56,32.56,0,0,1,8.33-12.83,23.14,23.14,0,0,1,6.12-4c.55-.25,1.16-.44,1.73-.66a11.79,11.79,0,0,1,1.86-.29,7,7,0,0,1,3.66.79,6.88,6.88,0,0,1,2.51,2.63,7.3,7.3,0,0,1,.72,3.41,7.13,7.13,0,0,1-3.3,5.42,6.88,6.88,0,0,0,2.61-5.21,5.94,5.94,0,0,0-.84-3,5.49,5.49,0,0,0-2.34-2.11,6,6,0,0,0-3.15-.35,11,11,0,0,0-3.12,1.25,21.63,21.63,0,0,0-5.46,4.36A32.14,32.14,0,0,0,68.21,266,52.86,52.86,0,0,0,66,275.34a42.39,42.39,0,0,0-.27,11.18,35,35,0,0,0,1,5.38,19,19,0,0,0,.9,2.53c.3.85.74,1.64,1.12,2.45A23,23,0,0,0,75.39,305a23.44,23.44,0,0,0,2.14,1.43l1.15.58a8.24,8.24,0,0,0,1.18.51,19.58,19.58,0,0,0,4.92,1.27,22.85,22.85,0,0,0,9.94-1.05,26.29,26.29,0,0,0,8.56-4.75,25.81,25.81,0,0,0,9.15-16v-.05a32.22,32.22,0,0,0,.69-5.6,34.07,34.07,0,0,0-.33-5.54,32,32,0,0,0-3.27-10.24,27.47,27.47,0,0,0-2.88-4.34,22.05,22.05,0,0,0-1.71-1.9,10.76,10.76,0,0,0-.93-.86l-.58-.5a4.26,4.26,0,0,0-.62.35l-1,.7-2.1,1.46c-.72.48-1.44.95-2.2,1.38l-.56.3-.33.16-.59.26c.15.26.37.54.53.83.32.51.64,1.11.94,1.67A34,34,0,0,1,99,268.56a35.49,35.49,0,0,1,2,7.24,27.81,27.81,0,0,1,.24,7.34,18.35,18.35,0,0,1-2.1,6.94,13.86,13.86,0,0,1-5,5.13A16.73,16.73,0,0,1,91,296.68l-.83.23-.41.12a1.39,1.39,0,0,1-.58.09H87.41a12.8,12.8,0,0,1-6.48-2,11.74,11.74,0,0,1-4.21-5.15,20,20,0,0,1-1.22-9.55,32.74,32.74,0,0,1,2.6-10,29.18,29.18,0,0,1,4.65-7.54A18.14,18.14,0,0,1,86.72,259.4Z" /><g class="cls-6"><path d="M88.68,303.23a9,9,0,0,1,1.35.07,4.2,4.2,0,0,0,2.45-.67,3.4,3.4,0,0,0,1-1,2.85,2.85,0,0,0,.3-.64,1.59,1.59,0,0,0,.09-.33l.09-.54a1.68,1.68,0,0,1,.38-.94,1.61,1.61,0,0,1,.87-.37,5.82,5.82,0,0,1,.92-.08h.67c.64,0,1.24,0,1.76,0a2.43,2.43,0,0,0,1.23-.41A.66.66,0,0,0,100,298c.06-.1,0-.18,0-.17h.07l-.11.07h0l0,0-.07-.07-.24-.21c-.11-.1-.22-.2-.32-.31a3,3,0,0,1-.52-.67,2.18,2.18,0,0,1-.23-1.6,3.4,3.4,0,0,1,.94-1.46l.64-.77.27-.34.23-.37a11,11,0,0,0,.84-1.5,9.34,9.34,0,0,0,.64-1.58,20.64,20.64,0,0,0,1-5.85,33.6,33.6,0,0,0-.45-5.81,45.62,45.62,0,0,0-2.76-9.71,12.08,12.08,0,0,1,3.78,3.69,10.92,10.92,0,0,1,1.86,4.18,36.13,36.13,0,0,1-.15,10.48,22.17,22.17,0,0,1-1.31,4.57,17.1,17.1,0,0,1-2.33,3.83l-.58.68c-.12.15-.28.29-.29.49a.66.66,0,0,0,.27.47l.21.18a2.89,2.89,0,0,1,.38.42,2.05,2.05,0,0,1,.41,1.49,2.57,2.57,0,0,1-.53,1.29,2.93,2.93,0,0,1-1,.84,4.42,4.42,0,0,1-1.12.36,7.25,7.25,0,0,1-2,0l-.86-.08-.38,0H96a1.54,1.54,0,0,0-.37,0,.3.3,0,0,0-.19.29,2.89,2.89,0,0,1-.16.54,4.56,4.56,0,0,1-.45.88,4.16,4.16,0,0,1-1.51,1.39,4.37,4.37,0,0,1-2.08.5A4.09,4.09,0,0,1,88.68,303.23Z" /></g><path class="cls-7" d="M68.88,283.06c-.28-.1-.64-1.54-.74-3.25a45.51,45.51,0,0,1,0-4.75,27.71,27.71,0,0,1,3.24-11.83,16.44,16.44,0,0,1,3-4.22,12.88,12.88,0,0,1,2.06-1.5,4,4,0,0,0,1.07-.87l1,2.19a3,3,0,0,1-1.16-.69,2.44,2.44,0,0,1-.71-1.4,2.66,2.66,0,0,1,.83-2.21,6.83,6.83,0,0,1,1-.85,11.61,11.61,0,0,1,1-.67,7.16,7.16,0,0,1,2.19-.93,4.16,4.16,0,0,1,2.2.1A6.59,6.59,0,0,0,81,254.81c-.36.52-.72,1.05-1,1.47a2.28,2.28,0,0,0-.22.34h0l-.12-.07a1.09,1.09,0,0,0-.21-.09l-.12-.05h0l-.24,0c-.23,0-.09,0,.06-.12a.76.76,0,0,0,.19-.26l.92,1.94a5.13,5.13,0,0,1-1.86,1.69c-.6.34-1.15.6-1.61.89a4,4,0,0,0-.61.44,8.08,8.08,0,0,0-.6.57,12.53,12.53,0,0,0-1,1.27,23.49,23.49,0,0,0-2.83,5.55,44.65,44.65,0,0,0-2.07,10c-.06.74-.26,1.75-.39,2.67S68.94,282.79,68.88,283.06Z" /><path class="cls-4 color-body" d="M287.58,221.22c-31-29.14-89.94-36.09-118.41-30.7s-54.8,18.63-70,38.78c-8.32,11-21.47,49.74-21.86,61.62-.44,13.25,3.66,30,10.89,40.79,14.58,21.8,35.9,33,60.88,38.69,40.22,9.1,79.11,7.85,116.61-10.36C327.5,330,323.5,255,287.58,221.22Z" style="fill:#ffffff;--backup-fill:#ffffff" /><path d="M287.62,221.17a16,16,0,0,1,1.63,1.32,36.38,36.38,0,0,1,2.93,2.8l1.84,2c.67.71,1.29,1.54,2,2.39,1.43,1.68,2.81,3.71,4.34,5.91a90.19,90.19,0,0,1,13.7,37.34,92.94,92.94,0,0,1,.15,23.28,83.33,83.33,0,0,1-5.86,22.3,82.2,82.2,0,0,1-10.51,18.21,85.19,85.19,0,0,1-11.74,12.48,95.72,95.72,0,0,1-21.87,14.18,150.41,150.41,0,0,1-24.91,9.56,166.87,166.87,0,0,1-54.31,6,207,207,0,0,1-27.44-3.21c-2.28-.36-4.51-.89-6.77-1.33s-4.5-1-6.76-1.52a135,135,0,0,1-13.3-4.06,99.74,99.74,0,0,1-24.59-12.91,82.93,82.93,0,0,1-10.5-9c-1.68-1.58-3.13-3.35-4.67-5s-2.92-3.5-4.19-5.38L85.06,334c-.56-.85-1.12-1.73-1.65-2.6-1-1.76-2-3.55-2.82-5.38a77.55,77.55,0,0,1-4.12-11.22,81.54,81.54,0,0,1-3.2-23.5c0-1,.15-2.12.23-3.18s.3-2,.46-3,.38-1.93.57-2.89.4-1.91.64-2.84c.88-3.76,2-7.4,3-11q3.33-10.86,7.54-21.27l1.06-2.6L87.92,242c.73-1.73,1.56-3.43,2.36-5.13a63.31,63.31,0,0,1,5.91-10.1,88.43,88.43,0,0,1,16-15.85,122.17,122.17,0,0,1,38.5-19.32A152,152,0,0,1,171,186.84a125.14,125.14,0,0,1,20.22-1.09,185,185,0,0,1,37.81,4.9,157.2,157.2,0,0,1,33.2,11.64,99.4,99.4,0,0,1,26.16,18.1A112,112,0,0,0,260.82,205a172,172,0,0,0-35-9.5A206.42,206.42,0,0,0,192,192.7c-5.07,0-9.75.25-13.85.64l-3,.31-2.73.36-2.49.39-2.31.44A133.49,133.49,0,0,0,134,205.42a94.9,94.9,0,0,0-27.84,19.48,73,73,0,0,0-5.44,6.3l-1.14,1.62c-.36.57-.7,1.17-1,1.75-.73,1.16-1.34,2.41-2,3.63-2.55,4.94-4.74,10.1-6.78,15.25S85.86,263.81,84.21,269a161.9,161.9,0,0,0-4.27,15.62c-.31,1.31-.46,2.59-.69,3.88a34,34,0,0,0-.27,3.82,63.85,63.85,0,0,0,.36,7.83,73.72,73.72,0,0,0,1.18,7.72,75,75,0,0,0,1.91,7.51,61.69,61.69,0,0,0,6.09,13.94,81.62,81.62,0,0,0,9.17,12,82.84,82.84,0,0,0,11,9.93,85.29,85.29,0,0,0,12.43,7.71,99.12,99.12,0,0,0,13.29,5.66,126.67,126.67,0,0,0,13.69,3.93,204.21,204.21,0,0,0,54.5,5.38,155.26,155.26,0,0,0,49.84-10.48c1.9-.78,3.82-1.52,5.69-2.32l5.54-2.56c.94-.4,1.81-.89,2.69-1.35l2.64-1.4c.9-.45,1.74-1,2.58-1.49l2.52-1.55a83.77,83.77,0,0,0,17.61-14.94,79.44,79.44,0,0,0,18.63-39.19,91.38,91.38,0,0,0,1-23l-.27-3.14c-.13-1.05-.29-2.09-.44-3.14-.24-2.12-.73-4.19-1.11-6.28a93.87,93.87,0,0,0-8.21-22.85c-.91-1.62-1.76-3.2-2.64-4.67s-1.78-2.86-2.67-4.12-1.75-2.45-2.58-3.53-1.65-2-2.36-2.88C289.65,223.32,288.41,222.05,287.62,221.17Z" /><path class="cls-4 color-body" d="M251.16,239.58a41.5,41.5,0,1,1,32.72,65.57" style="fill:#ffffff;--backup-fill:#ffffff" /><path d="M283.88,305.09c.36-.35,2.17-.54,4.78-.91a46.94,46.94,0,0,0,9.45-2.49l1.31-.49c.44-.16.85-.4,1.28-.6.85-.41,1.71-.81,2.55-1.24a43.25,43.25,0,0,0,4.64-3.05,33.92,33.92,0,0,0,6.5-6.32,45.57,45.57,0,0,0,6-10.78A39.89,39.89,0,0,0,323,266.87a38.62,38.62,0,0,0-6.39-23.59,44.37,44.37,0,0,0-6.87-7.78c-.65-.56-1.35-1.06-2-1.6l-1-.8-1.08-.69c-.72-.45-1.41-.94-2.15-1.37l-2.25-1.17a19,19,0,0,0-2.3-1c-.78-.29-1.52-.69-2.33-.91a38.47,38.47,0,0,0-4.79-1.28c-.8-.14-1.6-.37-2.41-.46l-2.42-.25c-.41,0-.81-.1-1.21-.12l-1.21,0a23.79,23.79,0,0,0-2.39,0,41,41,0,0,0-17.46,4.61,44.88,44.88,0,0,0-12.62,9.82,26.21,26.21,0,0,1,3.55-7.5,32.47,32.47,0,0,1,6.72-7.23,33.64,33.64,0,0,1,8.2-4.82,24.12,24.12,0,0,1,6.79-1.8,49,49,0,0,1,19.24,2.35A46.67,46.67,0,0,1,312.06,230a45.47,45.47,0,0,1,15.51,27.38c.09.62.17,1.24.26,1.85a14.69,14.69,0,0,1,.19,1.85l.15,3.68c-.07,1.22-.14,2.42-.21,3.62l0,.9-.14.88-.28,1.76a42.46,42.46,0,0,1-4.43,13,43.48,43.48,0,0,1-7.74,10.27c-.75.72-1.56,1.36-2.33,2l-1.17,1-1.25.86c-.83.55-1.63,1.15-2.48,1.64L305.51,302a34.8,34.8,0,0,1-12.46,3.44,30,30,0,0,1-3.1.1,19,19,0,0,1-2.67-.08C285.68,305.31,284.48,305.17,283.88,305.09Z" /><g class="cls-2"><g class="cls-3"><path d="M316.59,266.85a4,4,0,0,0-.7,1,1.94,1.94,0,0,0,.72,2.17l.55.41-.64.34a4.45,4.45,0,0,1-1.11.46,5,5,0,0,1-1,.16,4.7,4.7,0,0,1-.53,0l-.26,0-.13,0h-.1l0,0a4.65,4.65,0,0,1,1.76,1.3,4.35,4.35,0,0,1,.84,3.07l-.09.55-.55.07c-.54.07-1.18.11-1.63.12a8.6,8.6,0,0,1-1.92-.16l-.42-.09-.21-.06h-.05l0,0,.09.08a4.52,4.52,0,0,1,1.13,1.35c.06.12.11.24.16.36l0,.08s0,0,0,0,0,0,0,0a3.52,3.52,0,0,1,.11.44,6.23,6.23,0,0,1,.11,1.7,5.87,5.87,0,0,1-.33,1.47c-.08.23-.15.45-.24.66a1.8,1.8,0,0,1-.14.31l-.18.16h0c-.79-.16-1.59-.33-2.44-.53l-1.17-.31-.87-.24a34.11,34.11,0,0,1-3.63-1.31l1.58-2.25a16.7,16.7,0,0,1,1.4,1.49c.23.27.44.55.66.85l.31.45.43.7a13.92,13.92,0,0,1,1.3,3.06c.27,1,.43,2,.63,3a5.8,5.8,0,0,1-2,.55c-.18,0-.35.07-.53.09h-.54a4.41,4.41,0,0,1-1.11-.15,7.43,7.43,0,0,1-2.45-1.14,23.64,23.64,0,0,1-2.06-1.64,21.87,21.87,0,0,0-2.57-2.05,2.31,2.31,0,0,0-.57-.31,1.74,1.74,0,0,0-.51-.18c-.16-.08-.27,0-.41-.05a2.25,2.25,0,0,1-.36.06l.91-3.16a17.32,17.32,0,0,1,3.11,4.76,8.43,8.43,0,0,1,.38,1c.11.38.27.76.35,1.13a15.46,15.46,0,0,1,.39,2.2,37,37,0,0,1,0,3.94c-.34,0-.58,0-1,0H300a5.71,5.71,0,0,1-2.09-.31,7.78,7.78,0,0,1-3.11-2.33l-.72-.93-.52-.69-.68-.9a8.65,8.65,0,0,0-1.27-1.33,3,3,0,0,0-1.15-.53l2.26-3.23c.49.86.94,1.73,1.36,2.62.21.44.42.88.61,1.33l.15.33.22.55c.16.41.33.79.48,1.22a39.51,39.51,0,0,1,1.46,4.82c.31,1.45.63,2.89.93,4.32l-2.55-.65-1.26-.34a4.91,4.91,0,0,1-1.17-.4l-.59-.27-.61-.38a6.52,6.52,0,0,1-.61-.41l-.63-.55a13,13,0,0,1-1.26-1.29c-.42-.44-.81-1-1.21-1.52s-.95-1.26-1.41-1.89a15.77,15.77,0,0,0-1.11-1.24,4.24,4.24,0,0,0-2.31-1.21l1.69-2.95a16.14,16.14,0,0,1,2.62,5.81,12.36,12.36,0,0,1,.24,1.44,10.35,10.35,0,0,1,.09,1,9.26,9.26,0,0,1,0,1.05,18.16,18.16,0,0,1-.19,1.91,17.89,17.89,0,0,1-.29,1.78c-1.34-.47-2.58-.87-3.76-1.39a15.5,15.5,0,0,1-2.58-1.39,18.4,18.4,0,0,1-3.49-2.91,13.91,13.91,0,0,1-3.63-6.86,16,16,0,0,0,5.21,5.71,19.29,19.29,0,0,0,3.66,2l.92.34a1.73,1.73,0,0,0,.3,0,.5.5,0,0,0,.32-.1,1.16,1.16,0,0,0-.17-.49l-.05-.05a1.26,1.26,0,0,1,0-.19c0-.09-.05-.18-.07-.27a10.31,10.31,0,0,0-.29-1,21.38,21.38,0,0,0-1.32-3c-.2-.39-.43-.78-.62-1.09l-2.58-4.29,4.44,1.05a13.41,13.41,0,0,1,1.42.36,8.18,8.18,0,0,1,1.3.62,7.62,7.62,0,0,1,1.11.79l.5.43.43.45a17.37,17.37,0,0,1,1.46,1.82c.21.29.44.63.59.85l.13.26a4.94,4.94,0,0,0,.92,1.24,3.22,3.22,0,0,0,.76.53l.22.1.11.05.05,0v0l0-.3a12.32,12.32,0,0,0-.58-2.38l-.14-.37-.25-.61-.52-1.2c-.36-.78-.74-1.54-1.13-2.26l-.92-1.73,1.9.33a6.13,6.13,0,0,1,3.34,1.94,15.1,15.1,0,0,1,1.12,1.35l.88,1.22a5.56,5.56,0,0,0,1.31,1.42,2,2,0,0,0,.87.37,2.47,2.47,0,0,0,.47,0s.09,0,.1,0v-.35a7.76,7.76,0,0,0-.17-1.6c-.06-.26-.13-.51-.21-.76l-.14-.37-.19-.46a14.33,14.33,0,0,0-2.52-3.85l-1.09-1.2,1.5-.23a6.72,6.72,0,0,1,1.17-.16,4.3,4.3,0,0,1,1.14.16,4.13,4.13,0,0,1,1,.38,5.25,5.25,0,0,1,.9.51,26.26,26.26,0,0,1,2.89,2.35l.33.29.22.19c.14.11.27.22.4.31a4,4,0,0,0,.78.48,1.32,1.32,0,0,0,.42.15,1,1,0,0,0,.43.06,1.19,1.19,0,0,0,.42-.06c.21,0,.11-.19.09-.33a6.36,6.36,0,0,0-.78-1.94l-.14-.22-.23-.35c-.17-.25-.35-.49-.54-.73a15.32,15.32,0,0,0-1.2-1.33l1.31-1.88a31.55,31.55,0,0,0,5.38,1.9.27.27,0,0,0,.12,0l.05-.12a1.13,1.13,0,0,0,.08-.24,2.24,2.24,0,0,0,.06-.52,2.07,2.07,0,0,0-.06-.47c0,.1,0-.12,0-.09s-.06-.19-.08-.25l-.22-.42a3.76,3.76,0,0,0-.67-.89c.27-1.23.07-1.69-.21-2-.17-.13.06-.08.18-.11a1.91,1.91,0,0,0,.44-.09,3.43,3.43,0,0,0,1.1-.59,12.09,12.09,0,0,0,1.69.32,15.53,15.53,0,0,0,2.43,0l-.92.89a2.67,2.67,0,0,0-.08-1.25,2.46,2.46,0,0,0-.11-.32c-.09-.15-.14-.29-.24-.43l-.3-.38-.36-.31a2,2,0,0,0-.56-1.49,2.06,2.06,0,0,0-.57-.41c-.06,0,0,0,.05,0h.11l.22,0h.45a4.23,4.23,0,0,0,.83-.14c.51-.13.87-.29.89-.22a4.19,4.19,0,0,0,1.35-.27l.27-.1h0l0,.43h0v0h0l.05-.37-.05.37a2.5,2.5,0,0,1-.85-1.7,2.18,2.18,0,0,1,.31-1.24A2,2,0,0,1,316.59,266.85Z" /></g></g><g data-name="default" id="default-2"><path d="M196.87,323.44c.14.31-.23,1.26-1.06,2.51a19.22,19.22,0,0,1-1.68,1.94,20,20,0,0,1-2.32,1.94l-1.32.92c-.46.29-.94.54-1.41.81a28.11,28.11,0,0,1-2.85,1.43c-1.88.84-3.63,1.49-4.87,2a47.39,47.39,0,0,1-14.51,3,75.06,75.06,0,0,1-15-.69c-8.44-1.22-16.69-4.06-23.25-8.67a28.67,28.67,0,0,1-8-8.19,16.9,16.9,0,0,1-2.71-9.41c.54.56,1.09,1.15,1.61,1.73s1.2,1.13,1.75,1.69,1.29,1,1.86,1.52,1.32.9,1.9,1.34c2.5,1.67,4.94,2.87,5.94,4a31.8,31.8,0,0,0,7.16,5.44,43.54,43.54,0,0,0,8,3.51,55.51,55.51,0,0,0,15.79,2.72,66.12,66.12,0,0,0,13.93-1.05,60.89,60.89,0,0,0,11.45-3.23c1.61-.65,3.8-1.51,5.73-2.52.47-.26.89-.55,1.32-.8a7.67,7.67,0,0,0,1.15-.78Z" /></g><path class="cls-4 color-body" d="M292.69,147.67c6.22,11,18,17,24.84,17.06a33.48,33.48,0,0,0,27.12-12.23c7.61-9.39,6.29-23.78.52-34.24-5.19-9.38-19.52-19.17-35.11-13.38C288.82,112.76,284.53,133.27,292.69,147.67Z" style="fill:#ffffff;--backup-fill:#ffffff" /><path d="M292.64,147.7a4.42,4.42,0,0,1-1.16-1.37,16.47,16.47,0,0,1-.87-1.44l-.88-1.93a28.77,28.77,0,0,1-2.05-11.42,29.58,29.58,0,0,1,3.43-13.09,34.32,34.32,0,0,1,6.86-8.9,34,34,0,0,1,6.18-4.64,30,30,0,0,1,3.51-1.84c.6-.27,1.18-.61,1.82-.83l1.95-.7a14,14,0,0,1,2-.57l2.06-.47,2.11-.25c.35,0,.7-.1,1.06-.11l1.07,0a28.87,28.87,0,0,1,8.51,1A34.39,34.39,0,0,1,343,109.6a31,31,0,0,1,5.39,6.77,44.08,44.08,0,0,1,3.37,7.51,38.15,38.15,0,0,1,1.83,17.23,28.73,28.73,0,0,1-2.52,8.54,26.67,26.67,0,0,1-5.05,7.19,35.21,35.21,0,0,1-13.61,9,38.06,38.06,0,0,1-7.54,1.85,34.08,34.08,0,0,1-3.76.33c-.62,0-1.25,0-1.87,0s-1.21,0-2-.12h.26a24.07,24.07,0,0,1-9.48-2.77,36.35,36.35,0,0,1-7.22-4.87,37.76,37.76,0,0,1-5.44-5.8,36.57,36.57,0,0,1-3.67-6.21,71.55,71.55,0,0,0,5.67,4.72,47,47,0,0,0,6.94,4.22,38,38,0,0,0,7.27,2.78,21.11,21.11,0,0,0,6,.82l.32,0,1.17,0,1.2-.05,2-.1a28.63,28.63,0,0,0,17.05-6.21c.57-.49,1.19-.94,1.72-1.47l1.6-1.62c.52-.54.92-1.12,1.39-1.68s.79-1.21,1.2-1.82a22.86,22.86,0,0,0,2.72-8.21,33.32,33.32,0,0,0-2.3-16.78l-.84-1.91c-.31-.61-.62-1.22-.94-1.83l-1-1.7c-.4-.54-.79-1.08-1.19-1.61a29.28,29.28,0,0,0-5.71-5.37,27.92,27.92,0,0,0-6.65-3.6,25.4,25.4,0,0,0-7.05-1.64l-.88-.09c-.3,0-.59,0-.88,0h-1.75l-1.72.19-.86.08-.83.18-1.67.36c-.54.14-1.07.35-1.6.52a15.82,15.82,0,0,0-1.59.56l-1.55.69a33.66,33.66,0,0,0-10.54,7.27,28.35,28.35,0,0,0-6.23,10c-.13.44-.27.89-.42,1.36a11.52,11.52,0,0,0-.43,1.48,30.42,30.42,0,0,0-.65,3.24l-.24,1.72c-.06.58,0,1.16-.09,1.75s-.09,1.18,0,1.76.07,1.16.1,1.73l0,.85.13.82.24,1.6c.15,1,.47,2,.65,2.83a20.3,20.3,0,0,0,.71,2.19C292.36,146.9,292.52,147.39,292.64,147.7Z" /><path d="M319.39,125.43c-.67,1-6.71,1.35-13.64,2.08s-14.74,1.84-19,3.09c-7.47,2.13-15.39,4.37-23.23,7a238.5,238.5,0,0,0-22.76,8.82c-1.57.71-3.13,1.41-4.67,2.16s-3.13,1.46-4.57,2.18a28,28,0,0,0-6.92,4.49,11,11,0,0,0-2,2.57,26.52,26.52,0,0,0-1.68,3.73c-1.1,3-2.17,6-3.14,8.89-3.91,11.74-6.55,22.75-8.71,31.8-2.47-4.19-4.22-10.55-4.8-16.62s-.08-11.79,1.08-14.55,2.32-5.51,3.49-8.15,2.25-5.17,3.71-7.94a26.67,26.67,0,0,1,2.6-4,21.76,21.76,0,0,1,3.37-3.35,35.71,35.71,0,0,1,7.33-4.36c2.42-1.13,4.75-2,7.05-3s4.58-1.84,6.8-2.77c4.5-1.73,8.85-3.4,13.12-4.86,17-5.92,32.59-9.67,46.45-9.92.82,0,1.72,0,2.66,0s1.94.11,3,.19,2,.19,3.07.31l3,.47c2,.3,3.78.68,5.24,1S318.84,125.28,319.39,125.43Z" /><path class="cls-5" d="M300.44,296.4c5.77-5.58.23-15.95-7.39-10.63-13.83,9.18-16.27,35.38-9.78,51.24,13.26,29.92,45.33,13.75,46.31-12.61,1.21-11.32-3.12-25.76-12.7-32.65-2.69,2.19-5,5.14-8.11,6.88,7.93,10.23,13.16,32.8-1.91,38.86C287.17,340.79,289.72,306.56,300.44,296.4Z" /><path d="M300.46,296.42c-.14.27-.79.92-1.59,2.07a27.92,27.92,0,0,0-2.7,4.83,42.16,42.16,0,0,0-3.41,16.37,32.48,32.48,0,0,0,.32,4.81,21.5,21.5,0,0,0,1.14,4.7,14.15,14.15,0,0,0,2.24,4.14,9.76,9.76,0,0,0,3.51,2.75,11,11,0,0,0,2.06.68,12.59,12.59,0,0,0,2.11.17c.35,0,.7,0,1.05,0l1-.13.43-.05.37-.17.89-.42a13.11,13.11,0,0,0,5-4.54,17,17,0,0,0,2.44-7.62,30.11,30.11,0,0,0-.52-8.43,40.9,40.9,0,0,0-2.61-8.37,41.44,41.44,0,0,0-2-4c-.37-.65-.77-1.29-1.18-1.91l-.36-.53c-.19-.29-.41-.57-.62-.85l-1.25-1.69c.73-.44,1.49-.88,2.23-1.35.18-.11.37-.26.5-.35l.27-.2.53-.43c.69-.57,1.37-1.21,2.05-1.88l2.11-2.06.28-.26.48-.43,1-.86.51-.43s.09-.1.13-.08l.13.1.27.2,1.06.81.9.71a6,6,0,0,1,.6.51l1.14,1.07c.75.72,1.42,1.52,2.1,2.31s1.29,1.63,1.83,2.52c.28.44.57.86.84,1.31l.75,1.35a42.81,42.81,0,0,1,4.79,23.81v-.12a34.71,34.71,0,0,1-1.54,9.05,33.58,33.58,0,0,1-4.5,9.22,31.42,31.42,0,0,1-7.19,7.32,28.34,28.34,0,0,1-4.44,2.63,24.06,24.06,0,0,1-4.91,1.66,21.85,21.85,0,0,1-5.17.56,20.75,20.75,0,0,1-5.14-.77,21.87,21.87,0,0,1-8.83-5,30.16,30.16,0,0,1-6-7.76,40.26,40.26,0,0,1-2.09-4.32,43.68,43.68,0,0,1-1.45-4.51,55,55,0,0,1-1.52-9.06,58.69,58.69,0,0,1,1.16-17.54,39.35,39.35,0,0,1,6.63-15.17,23.85,23.85,0,0,1,5.72-5.5,10.18,10.18,0,0,1,3.65-1.73,7.4,7.4,0,0,1,2.1-.11,6.28,6.28,0,0,1,2,.61,6.66,6.66,0,0,1,2.79,2.8,8.22,8.22,0,0,1-1.78,9.93,8.11,8.11,0,0,0,2-6,6.45,6.45,0,0,0-3.65-5.5,4.71,4.71,0,0,0-3.35,0,9.9,9.9,0,0,0-3.08,1.93,23.23,23.23,0,0,0-5,5.74,40.07,40.07,0,0,0-5,13.33,69.59,69.59,0,0,0-1.18,10.47,55.67,55.67,0,0,0,.75,12.07,42.5,42.5,0,0,0,1.42,5.76,30.53,30.53,0,0,0,2.3,5.32,26.62,26.62,0,0,0,7.17,8.7,20,20,0,0,0,4.82,2.63,19,19,0,0,0,5.31,1,20.42,20.42,0,0,0,5.35-.58,22,22,0,0,0,5-1.93,27.27,27.27,0,0,0,8.13-6.66,31.35,31.35,0,0,0,7-18.66v-.05a39.08,39.08,0,0,0-.73-12.19,38.14,38.14,0,0,0-4.12-11c-.44-.86-1-1.62-1.51-2.43s-1.11-1.54-1.74-2.24a23,23,0,0,0-1.93-2,12.64,12.64,0,0,0-1-.92l-.74-.58c-.21-.31-.41.06-.61.19l-.83.78-2,1.94c-.68.64-1.37,1.28-2.11,1.88l-.56.44-.41.3c-.2.14-.4.26-.6.38a3.94,3.94,0,0,0,.31.44l.16.22.22.33c.41.58.78,1.19,1.14,1.8a37.82,37.82,0,0,1,1.93,3.74,42.75,42.75,0,0,1,2.67,7.77c1.23,5.24,1.57,10.74-.17,15.78a15.6,15.6,0,0,1-1.72,3.56,14.07,14.07,0,0,1-2.55,3,15.57,15.57,0,0,1-3.18,2.2c-.28.16-.58.27-.86.41l-.44.2a1.41,1.41,0,0,1-.61.19c-.71.07-1.28.16-1.93.2a11.86,11.86,0,0,1-7.25-2,13,13,0,0,1-4.44-5.75,25.77,25.77,0,0,1-1.82-10.24,41.79,41.79,0,0,1,1.61-11,35.63,35.63,0,0,1,3.77-8.84A20.61,20.61,0,0,1,300.46,296.42Z" /><g class="cls-6"><path d="M307,342a10.89,10.89,0,0,1,1.41-.06,3.92,3.92,0,0,0,2.39-1.08,3.73,3.73,0,0,0,.82-1.24,4.39,4.39,0,0,0,.26-1.72,1.49,1.49,0,0,1,.4-1,2.19,2.19,0,0,1,.91-.4,6.76,6.76,0,0,1,1-.16l.63-.06a10.08,10.08,0,0,0,1.75-.27,1.71,1.71,0,0,0,1-.6.48.48,0,0,0,0-.53.26.26,0,0,0-.09-.09l-.05,0,0,0-.2-.16a3.16,3.16,0,0,1-1.11-1.37,2.27,2.27,0,0,1,.05-1.7,3.75,3.75,0,0,1,.48-.81l.22-.36.12-.19.48-.79a7.87,7.87,0,0,0,.39-.83l.37-.82.27-.88c.08-.29.2-.56.26-.86l.17-.88a28.93,28.93,0,0,0-.8-12.28,50.84,50.84,0,0,0-3.72-9.91,12.9,12.9,0,0,1,4.22,3.56,11.59,11.59,0,0,1,2.29,4.17,42.18,42.18,0,0,1,.95,10.89,20.37,20.37,0,0,1-2.53,9.21l-.61.95c-.12.22-.24.35-.32.54a.48.48,0,0,0,.13.53l.22.19.11.08.21.17a2.37,2.37,0,0,1,.71,2.65,2.93,2.93,0,0,1-.77,1.22,3.57,3.57,0,0,1-1.09.69,6.06,6.06,0,0,1-2.16.4h-1.59c-.23,0-.62,0-.61.34l0,.19v.1l0,.18a4.66,4.66,0,0,1-.31,1,4.3,4.3,0,0,1-1.29,1.69,4.2,4.2,0,0,1-2.06.89A4,4,0,0,1,307,342Z" /></g><path class="cls-7" d="M286.42,330.72c-.31-.12-.89-1.87-1.3-4s-.68-4.5-.85-5.84a43.44,43.44,0,0,1,.88-15.2c.25-1.18.55-2.37.86-3.48a32.55,32.55,0,0,1,1-3.45,8.91,8.91,0,0,1,1-1.84,8.6,8.6,0,0,1,1.34-1.44,9.74,9.74,0,0,0,1.81-1.81l1.78,2.08a2.15,2.15,0,0,1-1.92-.43,2.4,2.4,0,0,1-.8-1.23,2.71,2.71,0,0,1,.45-2.29,7.69,7.69,0,0,1,.93-1q.43-.44.9-.84a7.92,7.92,0,0,1,2.06-1.29,4,4,0,0,1,2.28-.25c-1.56.66-2.33,2.18-3.05,3.63-.18.35-.4.75-.53,1.05a.84.84,0,0,0-.1.32s0,.05,0,.06l-.26-.06h-.06l-.49,0h.09a.42.42,0,0,0,.14,0c.07,0,0,0-.06.06a.82.82,0,0,0-.18.28c0,.08,0,.08,0,0l1.77,1.36,0,0a8.14,8.14,0,0,1-2.2,2.2,9.25,9.25,0,0,0-1.63,1.42,12.82,12.82,0,0,0-1.71,4,44,44,0,0,0-2,8.22,68.8,68.8,0,0,0-.25,13.77c.07.94.06,2.25.07,3.42S286.44,330.38,286.42,330.72Z" /></g></g></g></svg>