<svg xmlns="http://www.w3.org/2000/svg" id="outfits_2" viewBox="0 0 380 600"><defs transform="matrix(-1, 0, 0, 1, 380, 0)"><style>.cls-1{fill:#353535;}.cls-2{fill:#fffffe;}</style></defs><path class="cls-1" d="M210.95,244.151c-10.592-2.367-22.73-4.5-31.464,1.153-6.45,4.176-9.262,11.824-8.915,19.057s3.415,14.173,6.809,20.792c5.932,11.569,14.263,23.655,27.71,27.491,13.271,3.785,28.242-2.274,35.876-12.534s8.681-23.768,5.354-35.942c-1.173-4.3-2.928-8.6-6.2-11.927-5.478-5.56-14.087-7.4-22.1-8.93l-15.075-2.885c-3.695-.707-8.048-1.262-10.731,1.063" transform="matrix(-1, 0, 0, 1, 380, 0)"></path><path d="M192.176,241.454a4.158,4.158,0,0,1,1.934-1.46,11.421,11.421,0,0,1,5.112-.723,62.646,62.646,0,0,1,6.968.968l8.121,1.4c5.651,1.02,11.82,1.913,17.28,3.929a29.328,29.328,0,0,1,7.325,3.825,21.832,21.832,0,0,1,4.819,4.9,31.672,31.672,0,0,1,4.368,9.327,50.752,50.752,0,0,1,2.018,10.267,42.672,42.672,0,0,1-3.332,21.37,35.628,35.628,0,0,1-6.165,9.367,37.032,37.032,0,0,1-8.759,6.955,37.556,37.556,0,0,1-21.188,5.043,33.683,33.683,0,0,1-9.326-2.041,35.995,35.995,0,0,1-8.291-4.5,45.086,45.086,0,0,1-6.864-6.152,63.5,63.5,0,0,1-5.5-7.069,83.51,83.51,0,0,1-4.475-7.465c-1.35-2.53-2.6-5.026-3.761-7.611a47.369,47.369,0,0,1-4.539-16.4,25.4,25.4,0,0,1,4.3-16.167,20.515,20.515,0,0,1,5.93-5.655,23.123,23.123,0,0,1,7.2-2.87,38.052,38.052,0,0,1,13.887-.115,99.928,99.928,0,0,1,11.905,2.718c-3.464-.11-7.706-.429-12.2-.4-4.468.052-9.251.445-13.269,2.016a19.771,19.771,0,0,0-5.292,3,16.4,16.4,0,0,0-3.564,4.032,23.69,23.69,0,0,0-2.982,7.766,26.658,26.658,0,0,0,.625,12.527,70.393,70.393,0,0,0,4.736,12.193c3.752,7.837,8.261,15.128,14.368,20.405a31.637,31.637,0,0,0,10.087,6.025,29.185,29.185,0,0,0,11.228,1.687,34.378,34.378,0,0,0,20.033-7.909,32.333,32.333,0,0,0,10.469-17.13,43.506,43.506,0,0,0,.248-19.036c-1.227-6.064-3.265-11.9-7.313-15.567a23.427,23.427,0,0,0-6.931-4.314,53.5,53.5,0,0,0-7.833-2.533L214.8,244.03c-3.181-.744-6.485-1.551-9.573-2.322a37.68,37.68,0,0,0-8.267-1.561,9.277,9.277,0,0,0-3.014.4A6.844,6.844,0,0,0,192.176,241.454Z" transform="matrix(-1, 0, 0, 1, 380, 0)"></path><path class="cls-1" d="M135.938,235.474c-6.7-2.516-13.492-5.054-20.635-6.064s-14.8-.357-20.789,3.14c-7.575,4.419-11.372,12.657-12.737,20.754a51.189,51.189,0,0,0,3.35,28.229c2.626,6.267,6.99,12.521,13.873,15.048,5.715,2.1,12.334,1.215,17.7-1.344s9.64-6.633,13.322-10.978a79.032,79.032,0,0,0,13.148-21.783c2.616-6.566,4.273-13.911,1.612-20.564s-10.978-11.928-18.311-9.7" transform="matrix(-1, 0, 0, 1, 380, 0)"></path><path d="M126.459,232.167a2.49,2.49,0,0,1,.63-.325,5.8,5.8,0,0,1,1.313-.393,11.675,11.675,0,0,1,4.446-.055,17.641,17.641,0,0,1,11.235,7.241,14.631,14.631,0,0,1,1.868,3.542,18.784,18.784,0,0,1,1.027,3.9,25.666,25.666,0,0,1-.051,7.827,56.953,56.953,0,0,1-3.607,12.151,76.539,76.539,0,0,1-14,22.526,43.74,43.74,0,0,1-7.023,6.331,28.5,28.5,0,0,1-18.593,5.53,21.621,21.621,0,0,1-9.612-3.064,25.9,25.9,0,0,1-7.17-6.6,37.033,37.033,0,0,1-4.138-7.015,54.475,54.475,0,0,1-2.714-7.433,53.165,53.165,0,0,1-2.028-15.445,51.458,51.458,0,0,1,.7-7.649,40.753,40.753,0,0,1,1.935-7.414,30.1,30.1,0,0,1,8.361-12.6,24.9,24.9,0,0,1,6.31-3.978,28.436,28.436,0,0,1,6.82-1.984,39.468,39.468,0,0,1,13.081.163,63,63,0,0,1,11.34,3.18c3.476,1.3,6.669,2.716,9.654,4.059-5.918-.841-14.405-3.01-22.2-3.195a41.925,41.925,0,0,0-10.605.984,33.321,33.321,0,0,0-6.962,2.462,20.342,20.342,0,0,0-7.967,6.835,30.413,30.413,0,0,0-4.42,9.868,46.564,46.564,0,0,0-.325,21.264c1.509,6.776,4.174,13.307,8.628,17.94a18.3,18.3,0,0,0,7.819,4.92,19.878,19.878,0,0,0,8.971.52c5.97-.917,11.1-4.167,15.2-8.111a60.586,60.586,0,0,0,5.657-6.326,80.448,80.448,0,0,0,11.8-20.666c1.785-4.65,2.953-9.349,2.634-13.8a17.732,17.732,0,0,0-1.869-6.84,16.957,16.957,0,0,0-5.285-5.842,15.454,15.454,0,0,0-6.519-2.631A13.491,13.491,0,0,0,126.459,232.167Z" transform="matrix(-1, 0, 0, 1, 380, 0)"></path><path d="M212.424,241.409c-.386.473-3.792.5-7.729.518s-8.4-.024-10.9.161a231.71,231.71,0,0,1-28.065.08,134.285,134.285,0,0,1-23.062-3.036,84.759,84.759,0,0,1-18.106-6.174,47.074,47.074,0,0,1,9.4-.629c1.617.053,3.178.11,4.519.233a15.389,15.389,0,0,1,3.2.591,97.119,97.119,0,0,0,17.548,4.085,146.014,146.014,0,0,0,15.891,1.3c9.969.321,18.666.011,26.27.733A71.6,71.6,0,0,1,212.424,241.409Z" transform="matrix(-1, 0, 0, 1, 380, 0)"></path><path d="M175.819,280.462c-.518-.181-1.01-2.49-1.616-5.1a30.067,30.067,0,0,0-2.26-6.942,27.8,27.8,0,0,0-5.083-7.024,18.234,18.234,0,0,0-7.117-4.177,14.09,14.09,0,0,0-3.253-.583,10.684,10.684,0,0,0-3.087.208,10.156,10.156,0,0,0-2.835.994,11.683,11.683,0,0,0-2.5,1.7,21.717,21.717,0,0,0-3.97,4.739c-1.105,1.72-2.037,3.456-2.869,5.046a12.807,12.807,0,0,1-.846-6.941,9.811,9.811,0,0,1,2.475-5.594,19.051,19.051,0,0,1,6.516-3.822,16.544,16.544,0,0,1,6.735-.809,22.948,22.948,0,0,1,14.764,7.868,22.891,22.891,0,0,1,2.76,4.158,25.207,25.207,0,0,1,2.617,8.412A28.483,28.483,0,0,1,175.819,280.462Z" transform="matrix(-1, 0, 0, 1, 380, 0)"></path><path class="cls-2" d="M230.515,266.583a67.15,67.15,0,0,1-.323-9.113,2.185,2.185,0,0,1,.565-1.686c.889-.737,2.24.081,3.024.918a22.869,22.869,0,0,1,5.847,19.518q-4.858-4.764-9.429-9.785c-.247-.271-.631-.568-.954-.384s.319.692.306.334" transform="matrix(-1, 0, 0, 1, 380, 0)"></path><path class="cls-2" d="M229.6,266.383a.168.168,0,0,1,.078.1.228.228,0,0,1-.159.242.6.6,0,0,1-.579-.133.558.558,0,0,1-.213-.459.712.712,0,0,1,.419-.573,1.167,1.167,0,0,1,1.013.05,3.487,3.487,0,0,1,.679.472c.18.147.37.3.567.463l1.234,1.066,2.559,2.286a4.571,4.571,0,0,0,1.219.79,1.308,1.308,0,0,0,.874.035.3.3,0,0,0,.052-.032c.011-.024.042.017.019-.11l-.07-.49a7.235,7.235,0,0,0-.16-.736,2.615,2.615,0,0,0-.311-.761.579.579,0,0,1-.075-.117c-.081-.286-.141-.576-.235-.855-.178-.562-.36-1.114-.581-1.645a25.519,25.519,0,0,0-1.255-2.706c-.236-.433-.467-.866-.73-1.278-.13-.207-.241-.425-.384-.622l-.2-.3-.084-.128,0-.016a.312.312,0,0,0-.006-.2.612.612,0,0,0-.317-.4c-.17-.058-.254-.011-.387.117a1.4,1.4,0,0,0-.2.277l-.105.2a1.4,1.4,0,0,0-.049.275l-.049.335c-.256,1.784-.5,3.452-.77,4.966a13.086,13.086,0,0,1-3.4-5.008,9.426,9.426,0,0,1-.48-2.164,18.192,18.192,0,0,1-.217-2.487,3.448,3.448,0,0,1,.895-2.687,5.1,5.1,0,0,1,1.551-.893,3.635,3.635,0,0,1,1.925-.139,4.892,4.892,0,0,1,1.7.7,5.777,5.777,0,0,1,.754.569l.7.745.673.72.6.862a16.8,16.8,0,0,1,1.058,1.622c.448.792.842,1.592,1.206,2.384a34.423,34.423,0,0,1,1.772,4.708c.215.787.421,1.534.582,2.334.122.49.176,1,.254,1.5a12.71,12.71,0,0,1,.173,1.49,28.5,28.5,0,0,1,.089,2.866c-.049.9-.095,1.8-.184,2.714-.038.453-.078.907-.137,1.387l-.081.708-.04.354-.021.177a.405.405,0,0,1,0,.042l-.028-.021-.054-.044-1.752-1.395c-.59-.478-1.159-.909-1.76-1.435l-1.946-1.988c-.637-.665-1.261-1.329-1.856-1.982-.347-.377-.451-.507-.654-.745l-.534-.649a18.717,18.717,0,0,1-2.059-3.2c-.142-.275-.321-.591-.405-.8a1.535,1.535,0,0,0-.261-.43C229.1,265.861,229.461,266.812,229.6,266.383Z" transform="matrix(-1, 0, 0, 1, 380, 0)"></path></svg>