<svg xmlns="http://www.w3.org/2000/svg" id="uniforms_1" viewBox="0 0 380 600"><defs transform="matrix(-1, 0, 0, 1, 380, 0)"><style>.cls-1{fill:#fff;}.cls-2{fill:#f60;}</style></defs><path class="cls-1 color-eyes" d="M123,273.48c-2.17,10.83-9,18.59-15.25,17.34s-9.56-11.05-7.39-21.88" transform="matrix(-1, 0, 0, 1, 380, 0)"></path><path class="cls-2" d="M100.43,269c.28.26,0,2.18,0,4.39a21.52,21.52,0,0,0,.58,6A20.68,20.68,0,0,0,104,286a7.91,7.91,0,0,0,2.4,2.27,5.32,5.32,0,0,0,2.77.72,6.93,6.93,0,0,0,2.46-.63,10.91,10.91,0,0,0,2.33-1.51,21.22,21.22,0,0,0,3.83-4.3,33.77,33.77,0,0,0,2.76-4.76c.8-1.56,1.4-3.08,2-4.44a12.33,12.33,0,0,1,.51,5.51,13.22,13.22,0,0,1-.57,2.71,7.66,7.66,0,0,1-.87,1.83c-2.42,3.13-5,5.84-8.26,7.33a9.36,9.36,0,0,1-5,.9,8.33,8.33,0,0,1-4.39-2,12.35,12.35,0,0,1-2.77-3.46c-.16-.32-.33-.63-.5-.94s-.26-.63-.4-.94a18.51,18.51,0,0,1-.66-1.89,20.46,20.46,0,0,1-.81-7.21,15.82,15.82,0,0,1,.73-3.73A22.31,22.31,0,0,1,100.43,269Z" transform="matrix(-1, 0, 0, 1, 380, 0)"></path><path class="cls-1 color-eyes" d="M235.09,281.76a20.5,20.5,0,0,1-41-.08" transform="matrix(-1, 0, 0, 1, 380, 0)"></path><path class="cls-2" d="M194.12,281.68a4.27,4.27,0,0,1,.46,1.79,28.18,28.18,0,0,0,.87,3.59,20.18,20.18,0,0,0,1.7,3.85c.34.58.72,1.1,1,1.58s.71.84,1,1.17a22,22,0,0,0,7.73,5.28,19.74,19.74,0,0,0,16.56-1,20.74,20.74,0,0,0,5.77-4.59,21.2,21.2,0,0,0,3.64-5.78,26.74,26.74,0,0,0,1.63-5.83,12.62,12.62,0,0,1,.88,6.85,12.19,12.19,0,0,1-2.27,5.78,25.28,25.28,0,0,1-5.57,4.78A24.11,24.11,0,0,1,215.28,303l-.75,0-.74,0-1.48-.08a24.05,24.05,0,0,1-2.84-.49,22.36,22.36,0,0,1-5.17-1.86,21.28,21.28,0,0,1-4.26-2.93,18.52,18.52,0,0,1-5.32-7.63,16.2,16.2,0,0,1-.62-2.28,15.8,15.8,0,0,1-.24-2.54A12.31,12.31,0,0,1,194,283Z" transform="matrix(-1, 0, 0, 1, 380, 0)"></path><path class="cls-1 color-eyes" d="M119.53,277.86c1.44-5.3,2.24-12.3-2.53-15-1.63-.93-3.58-1.08-5.39-1.58-7.8-2.15-12.34-12.08-8.86-19.4-6.75,7.83-6.9,20.56-.33,28.55" transform="matrix(-1, 0, 0, 1, 380, 0)"></path><path class="cls-2" d="M102.37,270.45c-.33.07-1-.43-1.9-1.37a16.4,16.4,0,0,1-2.51-4,24.25,24.25,0,0,1-1.69-5.26c-.15-.88-.33-1.72-.4-2.49s-.19-1.47-.23-2.06a21.77,21.77,0,0,1,4.5-15.64L113.29,223l-7.43,20.39a10.22,10.22,0,0,0,0,6.86,12.38,12.38,0,0,0,4.3,6c.24.15.47.34.72.49s.5.26.74.4a12.79,12.79,0,0,0,1.65.62,19.82,19.82,0,0,1,5.45,2,9.77,9.77,0,0,1,4,5.29,12.69,12.69,0,0,1,.43,5.33,22,22,0,0,1-2.57,7.77c-1-2.43-1.84-5.6-2.84-7.9a12,12,0,0,0-1.43-2.55c-.4-.54-.67-.73-.74-1a2.52,2.52,0,0,0-.54-.92,4.1,4.1,0,0,0-1.28-.83c-.57-.26-1.25-.5-2-.78a21.9,21.9,0,0,1-2.31-1,16.36,16.36,0,0,1-3.91-2.86,20.24,20.24,0,0,1-1.53-1.7,21,21,0,0,1-1.25-1.82,17.24,17.24,0,0,1-1.58-15.61L104,243a20,20,0,0,0-2.63,4.61,24,24,0,0,0-1.27,4.8,32.3,32.3,0,0,0,.09,9c.29,1.4.48,3.4.93,5.2.25.88.46,1.76.71,2.43S102.28,270.18,102.37,270.45Z" transform="matrix(-1, 0, 0, 1, 380, 0)"></path><path class="cls-1 color-eyes" d="M195.86,284.21c-2.32-5.84,4.12-11.61,10.25-13s13-.81,18.2-4.29c3.78-2.51,6-6.72,8.09-10.75a17.19,17.19,0,0,1-.8,28.35" transform="matrix(-1, 0, 0, 1, 380, 0)"></path><path class="cls-2" d="M231.56,284.46c0-.37.59-1,1.42-2a23.12,23.12,0,0,0,2.71-3.81,16.52,16.52,0,0,0,1.77-5,11.25,11.25,0,0,0,0-4.19,17.7,17.7,0,0,0-2.64-6.21c-.15-.24-.33-.47-.5-.69a2.49,2.49,0,0,0-.23-.31l-.1-.08a1.93,1.93,0,0,0-.36-.23,1.6,1.6,0,0,0-.3-.11l-.12,0h-.06a.94.94,0,0,0,0,.09l-.1.46,0,.17s0,.08,0,0l-.38.64a24.5,24.5,0,0,1-3.73,4.91,18.09,18.09,0,0,1-6,3.91,26.28,26.28,0,0,1-6.24,1.59c-2,.29-3.84.42-5.56.56-.86.07-1.69.14-2.48.23-.4,0-.8.08-1.17.14l-.58.07-.48.09a15,15,0,0,0-7,3.34,6.46,6.46,0,0,0-2.53,5.69,5,5,0,0,1-2.48-3.69,9.22,9.22,0,0,1,1-5.64c1.75-3.53,4.91-5.67,6.74-6.09a22.53,22.53,0,0,1,3-.51c.94-.08,1.81-.11,2.67-.13,1.71,0,3.32,0,4.85,0a25.67,25.67,0,0,0,8.33-1.05,12.37,12.37,0,0,0,5.93-4.42c.39-.49.74-1,1.08-1.53.18-.26.33-.53.5-.8l.67-1.17c.87-1.61,1.69-3.27,2.5-4.92l.33-.06a2.23,2.23,0,0,1,.43.28l.86.64c.56.43,1.11.86,1.65,1.32a17.75,17.75,0,0,1,3,3.22l.33.44.23.35c.15.24.32.47.46.72.28.48.56,1,.8,1.47a17.46,17.46,0,0,1,1.18,3,17,17,0,0,1,.66,6.26,16.36,16.36,0,0,1-1.55,5.66,14.25,14.25,0,0,1-8.53,7.27Z" transform="matrix(-1, 0, 0, 1, 380, 0)"></path></svg>