<svg xmlns="http://www.w3.org/2000/svg" viewBox="0 0 380 600"><defs><style>.cls-1{fill:#ff0;}</style></defs><g id="Sugar_Fairy"><g id="default"><path class="cls-1 color-eyes" d="M274.61,264.48c5.06-.91,8.53-7.87,10.84-14.51"></path><path d="M274.58,264.29a39.73,39.73,0,0,0,2.73-3.5c.8-1.15,2-2,2.91-3.08a70.86,70.86,0,0,0,5-7.81.21.21,0,0,1,.38.13,33.71,33.71,0,0,1-2.69,9.35c-1,2.48-2.62,5-5.45,5.5a4.5,4.5,0,0,1-2.85-.2.24.24,0,0,1-.07-.39Z"></path><path class="cls-1 color-eyes" d="M279.81,274.31c3.81-.06,8.45.61,13.23-1.64"></path><path d="M279.81,274.16a7.47,7.47,0,0,1,3.39-1.31,13.74,13.74,0,0,1,3.26.23,24.89,24.89,0,0,0,3.23,0,19,19,0,0,0,3.29-.51c1,.2-2.59,1.83-2.94,2a16.81,16.81,0,0,1-3.41,1,7.36,7.36,0,0,1-5.15-.09,6.73,6.73,0,0,1-1.66-.92.19.19,0,0,1,0-.3Z"></path><path class="cls-1 color-eyes" d="M276.85,280.38c3.77,1.45,8.45,5,13.48,5.45"></path><path d="M276.9,280.24c2.66-.59,5.06.71,7,2.29a26.41,26.41,0,0,0,6.42,3.15.16.16,0,0,1,.1.19c-2.42.53-5.23-.4-7.57-1.18a12.53,12.53,0,0,1-3.42-1.42,10.8,10.8,0,0,1-2.67-2.75.19.19,0,0,1,.11-.28Z"></path><path class="cls-1 color-eyes" d="M151.52,271.9a41.83,41.83,0,0,1-13.36-10.61"></path><path d="M151.43,272.08a7.93,7.93,0,0,1-4.72-.62c-1.43-.56-2.36-1.88-3.41-2.92a30.34,30.34,0,0,1-2.93-3.38c-.24-.42-3.26-4.39-2.05-4a46.62,46.62,0,0,0,8.84,5.8,10.09,10.09,0,0,1,4.45,4.76.26.26,0,0,1-.18.36Z"></path><path class="cls-1 color-eyes" d="M146.74,286c-3.8-.07-8.45.6-13.22-1.65"></path><path d="M146.74,286.12a7.34,7.34,0,0,1-6.81,1,15.64,15.64,0,0,1-6.48-2.67.16.16,0,0,1,0-.22,30.42,30.42,0,0,0,6.68.49c1.66-.22,3.31-.51,4.94.19a5.6,5.6,0,0,1,1.7.9.19.19,0,0,1,0,.3Z"></path><path class="cls-1 color-eyes" d="M149.71,292c-3.77,1.45-8.45,5-13.48,5.45"></path><path d="M149.76,292.17a9.56,9.56,0,0,1-6.08,4.17,17.77,17.77,0,0,1-7.44,1.29.15.15,0,0,1-.14-.16,35.06,35.06,0,0,0,6.53-3.29c2-1.58,4.37-2.88,7-2.29a.18.18,0,0,1,.1.28Z"></path><ellipse class="cls-1 color-eyes" cx="267.99" cy="271.51" rx="11.55" ry="20" transform="translate(-48.14 57.97) rotate(-11.34)"></ellipse><path d="M256.64,273.78c-.34-.33-1.41-4.18-1.16-8.8a23.77,23.77,0,0,1,1.33-6.89A14,14,0,0,1,259.9,253a8.21,8.21,0,0,1,3.73-2.24,8.76,8.76,0,0,1,4.57.09,15.15,15.15,0,0,1,7.13,5.19,32.13,32.13,0,0,1,6.31,15.61,27.18,27.18,0,0,1-1.56,14.25,12.94,12.94,0,0,1-4.78,5.86,8.87,8.87,0,0,1-7.58.78,13.84,13.84,0,0,1-5.51-3.89,22.4,22.4,0,0,1-3.3-5,29.78,29.78,0,0,1-2.8-9.78,63,63,0,0,0,5.3,8.71,26.21,26.21,0,0,0,5.75,5.61,6.41,6.41,0,0,0,4,1.42A5.8,5.8,0,0,0,275,288a11.44,11.44,0,0,0,2.56-3.84,18.33,18.33,0,0,0,1.29-4.53,27.66,27.66,0,0,0-.07-9.13,31.22,31.22,0,0,0-2.54-8.23,22.24,22.24,0,0,0-4.55-6.48,9.37,9.37,0,0,0-6.16-2.91,6,6,0,0,0-3,.81,7.93,7.93,0,0,0-2.28,2.08,16.08,16.08,0,0,0-2.6,5.69,36.31,36.31,0,0,0-1.07,7.06c-.08,1.22-.05,2.37-.05,3.3S256.62,273.43,256.64,273.78Z"></path><circle class="cls-1 color-eyes" cx="165.11" cy="282.02" r="20.5"></circle><path d="M144.58,282.06a4.11,4.11,0,0,1-.15-1.18,10.19,10.19,0,0,1,0-1.12c0-.42.09-.89.14-1.41a19.79,19.79,0,0,1,2.52-7.28,21.63,21.63,0,0,1,6-6.63,22.36,22.36,0,0,1,6.68-3.23,20.73,20.73,0,0,1,10.35-.48,21.3,21.3,0,0,1,9.79,4.86,21.82,21.82,0,0,1,6.27,9.19,22,22,0,0,1-9,26.18,21.91,21.91,0,0,1-8.47,3.15,22.22,22.22,0,0,1-8.66-.43,21.26,21.26,0,0,1-15.47-15.43,22,22,0,0,1-.55-6.19,32.89,32.89,0,0,0,2,5.77,23.58,23.58,0,0,0,3.76,5.53,22.19,22.19,0,0,0,4.67,3.88,36.15,36.15,0,0,0,3.87,2,17.08,17.08,0,0,0,6.08,1.64,18.22,18.22,0,0,0,6.21-.47,19.67,19.67,0,0,0,5.6-2.47,18.9,18.9,0,0,0,4.42-4,18,18,0,0,0,2.9-5.07,18.14,18.14,0,0,0,1.23-5.53,19.67,19.67,0,0,0-.39-5.49,20.57,20.57,0,0,0-1.85-5,20,20,0,0,0-4.85-5.87,23,23,0,0,0-2-1.43,19.63,19.63,0,0,0-8.85-2.9,20.38,20.38,0,0,0-15.46,5.55,22.59,22.59,0,0,0-5.13,7.36,20.92,20.92,0,0,0-1.26,4C144.73,280.7,144.67,281.61,144.58,282.06Z"></path></g></g></svg>