<svg xmlns="http://www.w3.org/2000/svg" id="uniforms_1" viewBox="0 0 380 600"><defs transform="matrix(-1, 0, 0, 1, 380, 0)"><style>.cls-1{fill:#ead49d;}.cls-2{fill:#fff;}</style></defs><path class="cls-1" d="M258.44,248.9c-4.57-8.69-9.11-19.91-9.11-19.91l-14.9,9.34-19.22,2.38-28.32,10.72s-17.53,10.91-20.55,13.62-12.52-.83-12.52-.83l-9.12-10.36a46.13,46.13,0,0,0-14.33-15.27,56.9,56.9,0,0,0-20.94-7.8L94.16,221a78.69,78.69,0,0,0-7.86,15.94c-3.18,9-7.87,32-7.87,32l7.47,30L100.05,309s17,4.74,30.44-1.9c5.84-2.89,7.21-7.26,14.29-12.38s24.77-.2,24.77-.2,9.82,10.54,13.93,15.91,25.72,12.73,35.24,14.23,33.92-7.44,39-14.57S263.94,298,263.94,298l2.23-24.6S263,257.59,258.44,248.9Z" transform="matrix(-1, 0, 0, 1, 380, 0)" /><path d="M258.48,248.88a24.2,24.2,0,0,1,2.31,4.37,87,87,0,0,1,3.51,9.94c.61,2.06,1.22,4.29,1.8,6.68.15.59.29,1.2.44,1.81l.21.94a2.75,2.75,0,0,1,.13,1.13c-.11,1.3-.21,2.62-.32,4-.45,5.38-.93,11.21-1.42,17.24-.07.75-.13,1.51-.19,2.27l-.05.57a3,3,0,0,1-.13.72c-.1.4-.22.78-.35,1.16a32.6,32.6,0,0,1-1.85,4.39c-.71,1.42-1.5,2.79-2.34,4.14-.43.67-.86,1.33-1.31,2l-.34.49-.42.49-.83,1a34.35,34.35,0,0,1-7.88,5.41,77.23,77.23,0,0,1-8.34,3.79,80.44,80.44,0,0,1-8.28,2.77,57.41,57.41,0,0,1-8,1.71c-.65.08-1.3.17-1.94.23l-1.94.07a21.55,21.55,0,0,1-3.73-.36c-2.29-.4-4.36-.89-6.24-1.37q-6.1-1.56-12.16-3.73a79,79,0,0,1-12-5.32c-.5-.26-1-.61-1.47-.91a12.49,12.49,0,0,1-1.47-1.05c-.24-.19-.48-.37-.72-.58l-.72-.73a16.94,16.94,0,0,1-1.13-1.33c-1.35-1.65-2.79-3.3-4.25-4.94s-2.95-3.28-4.46-4.91l-2.29-2.46-1.15-1.23-.56-.6-.16-.16-2.08-.46c-.9-.18-1.81-.36-2.73-.51-1.82-.29-3.66-.54-5.49-.66a35.07,35.07,0,0,0-5.42,0,23.8,23.8,0,0,0-2.59.32,13.38,13.38,0,0,0-2.32.71c-.18.07-.37.13-.54.21l-.46.28a7.15,7.15,0,0,0-1,.65c-.73.55-1.44,1.12-2.12,1.72a50.34,50.34,0,0,0-3.94,3.93,40.51,40.51,0,0,1-4.41,4.36,20.79,20.79,0,0,1-2.75,1.87,31.61,31.61,0,0,1-2.9,1.38,39.74,39.74,0,0,1-12.12,2.86,59.13,59.13,0,0,1-12.2-.36c-1-.14-2-.3-3-.48l-1.5-.3-.76-.17-.6-.15a3.28,3.28,0,0,1-.65-.2l-5.12-3.6-10.25-7.23c-2.4-9.44-4.65-18.32-6.87-27L76,271.29,75.69,270a5.48,5.48,0,0,1-.23-1.11l.23-1.12,1-4.59q1-4.54,2-9.06c.69-3,1.4-6,2.17-9s1.58-6,2.62-9a76.7,76.7,0,0,1,3.7-8.73q1-2.11,2.2-4.16l.58-1c.36-.59.76-1.28,1.15-1.89s.8-1.25,1.21-1.86l.61-.91.31-.46s0-.11.08-.07l.12.06.24.15c1.24.73,2.49,1.48,3.76,2.31L99.77,221l3.77,2.43,7,4.49h0l.11,0,.74.13,1.45.29q1.44.31,2.85.69c1.88.5,3.73,1.09,5.55,1.75A52,52,0,0,1,131.64,236a47,47,0,0,1,8.79,7.42,48.24,48.24,0,0,1,3.62,4.35c.57.75,1.1,1.53,1.62,2.31.26.4.52.8.76,1.21l.37.62.19.32,0,0,7,8.08.9,1,.42.48,0,.06c-.25-.07.94.32,1.67.53a24.27,24.27,0,0,0,4.74.95,8.22,8.22,0,0,0,2,0l.38-.07a1.22,1.22,0,0,1,.24-.1c.12,0,.08-.06.13-.07s0,0,.07,0l.31-.25c.42-.35.8-.64,1.18-.91l1.12-.8c.74-.52,1.48-1,2.22-1.5,2.95-2,5.87-3.81,8.78-5.63l4.34-2.69,2.16-1.32.53-.33.38-.23a1.7,1.7,0,0,1,.51-.24l1.26-.46,9.28-3.39,18-6.55,19.13-2.06L250,227c.57,1.43,1.13,2.82,1.67,4.19l1.18,2.9q1.1,2.67,2.16,5.13c1.41,3.3,2.79,6.33,4.22,9.25-1.67-2.6-3.4-5.56-5.15-8.79-.87-1.62-1.76-3.3-2.64-5.05L249,230,246.19,232l-3.58,2.51L239,237.05l-1.85,1.28-.93.64-1.22.82-19.2,3.13-6,2.51-6.09,2.5-11.38,4.57-2.62,1-1.28.5-.14.05h0l-.49.32-4.22,2.69-6.93,4.37c-2.68,1.68-5.42,3.39-7.81,5.11l-.38.29-.56.42a8.51,8.51,0,0,1-.93.59q-.44.19-.9.36a5.08,5.08,0,0,1-.85.22,8.27,8.27,0,0,1-.82.14,12.85,12.85,0,0,1-1.49.08,23.65,23.65,0,0,1-5.24-.74c-.82-.2-1.62-.43-2.4-.67l-1.18-.39-.86-.3-.49-.18-.24-.1-.18-.19-1.1-1.28-.75-.88-1.48-1.75-6-7.08-.42-.78-.33-.56c-.22-.38-.46-.75-.7-1.13-.48-.74-1-1.47-1.51-2.19a47.47,47.47,0,0,0-3.38-4.1,41.52,41.52,0,0,0-8-6.74,48.28,48.28,0,0,0-9.36-4.57q-2.46-.88-5-1.58c-.83-.22-1.66-.43-2.5-.62l-1.25-.26-.63-.12-1-.15L97.53,224.9l-2.18-1.43-.71-.47a4.43,4.43,0,0,0-.48.67l-.47.76-.79,1.38c-.53.92-1,1.85-1.52,2.79a68.7,68.7,0,0,0-4.78,11.59c-1.22,4-2.24,8.06-3.22,12.09s-1.89,8-2.76,12c-.22,1-.43,2-.65,3l-.29,1.39-.05.23a1.74,1.74,0,0,0,.05.22l.15.61c.49,2,1,3.93,1.46,5.88q2.86,11.49,5.63,22.59l9.72,6.89,2.49,1.77,1.2.85c.26.23.47.2,1,.35a52.65,52.65,0,0,0,5.82.95,50.67,50.67,0,0,0,11.61,0,34,34,0,0,0,10.82-3,16.63,16.63,0,0,0,4.43-3c1.33-1.25,2.57-2.67,3.9-4.08a46,46,0,0,1,4.26-4c.37-.31.76-.61,1.15-.9l.58-.44c.2-.14.45-.28.68-.42a13.61,13.61,0,0,1,2.86-1.31,31.75,31.75,0,0,1,11.54-.75c1.87.16,3.71.42,5.53.74.92.16,1.82.34,2.72.53s1.63.35,3.1.75l4.83,5.22q2.25,2.46,4.42,4.92c1.45,1.65,2.88,3.31,4.26,5,.34.41.7.93,1,1.25a7.53,7.53,0,0,0,.95.91c.39.29.73.61,1.16.88l1.26.82a76.56,76.56,0,0,0,11.22,5.17c3.85,1.46,7.74,2.72,11.61,3.8,1.94.55,3.87,1,5.79,1.43.49.11,1,.18,1.44.27l.71.13.66,0a11.76,11.76,0,0,0,1.34.08l1.4,0a53.63,53.63,0,0,0,11.21-2.16,87.63,87.63,0,0,0,10.66-3.86,50.53,50.53,0,0,0,9.55-5.29c.53-.39,1-.84,1.51-1.26s.84-.92,1.29-1.44c.86-1.18,1.71-2.44,2.51-3.77a40.44,40.44,0,0,0,2.24-4.17c.33-.73.64-1.47.91-2.22.13-.36.28-.81.35-1.07a.86.86,0,0,0,0-.17l0-.31.07-.64c.78-6.81,1.58-13.9,2.34-20.53l.29-2.45a2.61,2.61,0,0,0-.09-1c-.07-.39-.15-.78-.22-1.17-.31-1.57-.62-3.09-1-4.56-.65-2.93-1.34-5.65-2-8.05A64.33,64.33,0,0,0,258.48,248.88Z" transform="matrix(-1, 0, 0, 1, 380, 0)" /><path d="M254.06,248.23c.44.23,1.2,3.11,2.1,6.43s1.93,7.08,2.65,9.14a74.12,74.12,0,0,1,3.3,11.86,37.45,37.45,0,0,1,.05,12.93,59.15,59.15,0,0,1-2.75,10.31,33.79,33.79,0,0,1-4.85,9.17,24.66,24.66,0,0,1-7.11,6.28,31.18,31.18,0,0,1-7.23,3c1.48-1.74,3.72-3.82,5.54-5.82s3.23-3.91,4.18-4.77a24.2,24.2,0,0,0,4.6-6.14,45.74,45.74,0,0,0,2.9-6.94,37.4,37.4,0,0,0,2.13-13.45,59.63,59.63,0,0,0-2.18-11.85c-.95-3.68-1.86-7.13-2.47-10.42A63.85,63.85,0,0,1,254.06,248.23Z" transform="matrix(-1, 0, 0, 1, 380, 0)" /><g id="default" transform="matrix(-1, 0, 0, 1, 380, 0)"><path class="cls-1" d="M123,273.69s-4.25,12-7,14.18-8.22,3.16-8.22,3.16L101,283.74l-.55-14.59s2.46-9.18,6.09-13.2a13.9,13.9,0,0,1,9.16-4.14l7.44,9.44,0,12.44Z" /><path d="M123,273.69c-.31-.26-.5-1.92-.64-4.25-.08-1.16-.13-2.48-.19-3.88,0-.7,0-1.42-.07-2.14l0-1.09,0-.72-2.79-3.24c-.95-1.08-1.8-2-2.49-2.76l-1.28-1.35a2.24,2.24,0,0,0-.2-.19l-.15-.13c-.11-.07-.18-.19-.29-.21a6.75,6.75,0,0,0-.76.25,14.2,14.2,0,0,0-1.59.55,11.77,11.77,0,0,0-2.82,1.66,9.57,9.57,0,0,0-2.09,2.38,33.1,33.1,0,0,0-3,6.64c-.41,1.18-.79,2.39-1.12,3.58l-.12.44-.06.22v0a0,0,0,0,0,0,0h0l0,.24c0,.64.08,1.28.11,1.91l.33,6,.12,3,0,1.48,0,.35h0l.09.09.84.93,1.66,1.83,1.63,1.82.41.46.17.19v0l0,.09s0,0,.07,0H109l.26-.06c.7-.15,1.38-.33,2-.52a11.87,11.87,0,0,0,3.29-1.44l.21-.15.27-.3a6,6,0,0,0,.57-.69c.38-.5.75-1.05,1.11-1.61.71-1.12,1.38-2.27,2-3.4,1.27-2.26,2.42-4.44,3.48-6.41a30.89,30.89,0,0,1-1.12,10.45,16.8,16.8,0,0,1-2.32,5.28,7.58,7.58,0,0,1-1.2,1.25,9.88,9.88,0,0,1-1.08.76,8.7,8.7,0,0,1-1.78.85,30.18,30.18,0,0,1-4.57,1l-.83.15-.9.13-.87.11-.43,0H107a.29.29,0,0,1-.07-.08l-.15-.16c-.4-.45-.8-.88-1.17-1.33l-.56-.67-.31-.39-2.48-3.1-1.23-1.49-.67-.81-.94-1.08v-4.47c0-1.29,0-2.55,0-3.81s-.05-2.48-.08-3.7l0-1.82,0-.9,0-.61a5.84,5.84,0,0,1,.15-.6,68.74,68.74,0,0,1,2.33-6.72,27.33,27.33,0,0,1,3.27-6.09,13.49,13.49,0,0,1,5.47-4.2c.51-.21,1-.41,1.56-.57l.79-.23.39-.09.21-.05.27-.05a14.72,14.72,0,0,1,2.19-.27h.28c.09,0,.19,0,.24.06l.36.4c.24.27.48.54.71.83l2,2.44,1.7,2.17,1.62,2.13,1.87,2.52v0c0,1.8-.13,2.65-.27,4s-.3,2.54-.48,3.75C123.51,270.91,123.14,273,123,273.69Z" /><path class="cls-1" d="M235.1,282c-.19,3.47-6,14.48-6,14.48s-6,7.44-14.51,6-17.29-9.56-17.29-9.56a14.66,14.66,0,0,1-3.16-11c.77-6.68,12.55-18.86,12.55-18.86s.75.78,8-1.59,18,10.74,18,10.74l2.47,9.8Z" /><path d="M235.05,282a3.07,3.07,0,0,1-.25-1.2l0-.25v-.06s0-.08-.09,0v.16l-.05.7,0,.79v.1l-.07-.2c0-.14-.09-.28-.13-.43-.64-2-1.39-4.55-2.19-7.35l-.3-1.05c-.09-.27-.09-.52-.31-.69l-.67-.71-.76-.78c-1-1-2.09-2-3.15-2.93a26.52,26.52,0,0,0-5.72-3.86c-2-.95-4.36-1.55-5.91-.91l-1.81.66c-.63.22-1.28.44-1.94.64s-1.33.4-2.06.56c-.36.08-.73.15-1.13.21l-.64.08-.09,0s-.1,0-.13,0l-.08.12-.15.21-.42.5-1,1.15c-.63.77-1.26,1.55-1.88,2.34-1.23,1.58-2.42,3.2-3.51,4.83a34,34,0,0,0-2.78,4.91,8.84,8.84,0,0,0-.88,4.55,12.31,12.31,0,0,0,1.26,4.73,10.9,10.9,0,0,0,1.24,2l.72.62,1.1.9a46,46,0,0,0,9.36,5.9,20.32,20.32,0,0,0,4.74,1.55,10.58,10.58,0,0,0,4.41-.11,14.64,14.64,0,0,0,4.19-1.76,17.57,17.57,0,0,0,1.89-1.3c.3-.24.6-.47.87-.72s.6-.56.64-.58l.05-.06.12-.2.28-.46.54-.93,1.06-1.82c.69-1.19,1.34-2.36,2-3.5s1.2-2.24,1.72-3.31a15.31,15.31,0,0,0,1.19-3.06,8.8,8.8,0,0,1,.17,3.4,30.49,30.49,0,0,1-.65,4c-.31,1.39-.69,2.81-1.11,4.19-.21.69-.44,1.38-.67,2.05-.12.34-.24.68-.35,1s-.19.55-.5,1.22l-.37.51-.28.37-.5.62c-.34.39-.67.77-1,1.12a17.82,17.82,0,0,1-2.13,1.85,13.8,13.8,0,0,1-3.93,2.07,18.33,18.33,0,0,1-5.23.76,17.66,17.66,0,0,1-5-.84,34.41,34.41,0,0,1-8.06-4,61.22,61.22,0,0,1-6.67-5c-.53-.47-1-.86-1.56-1.4a8.93,8.93,0,0,1-.75-1c-.2-.3-.39-.61-.56-.91a16.16,16.16,0,0,1-1.62-3.85,16.33,16.33,0,0,1-.62-4,13.63,13.63,0,0,1,.47-4,28.71,28.71,0,0,1,3.39-6.71c1.32-2,2.71-3.9,4.13-5.69.71-.89,1.42-1.77,2.14-2.63l1.09-1.26.57-.65.76-.85.79-.24c.21,0,.47,0,.74,0h.54v-.37h0l.42,0c.25,0,.52-.09.79-.14.54-.11,1.08-.24,1.63-.4,1.1-.3,2.19-.64,3.26-1a9.28,9.28,0,0,1,2-.5,8.13,8.13,0,0,1,2.09,0,12.74,12.74,0,0,1,3.67,1.06,24.92,24.92,0,0,1,5.75,3.71,42.29,42.29,0,0,1,4.55,4.4c.46.5.95,1.07,1.44,1.69.14.19.3.38.45.57l.26.35a.88.88,0,0,1,.12.17l.05.22.16.83.11.6c.27,1.63.53,3.32.75,4.92.11.79.21,1.56.31,2.28l.12,1,0,.22,0,.11v0l0-.39-.06-.76c0-.05,0-.14,0-.15l0,.18-.06.34C235.16,281.4,235.09,281.74,235.05,282Z" /></g><path class="cls-2" d="M123,273.69l0-12.44-6.34-8.05A11.93,11.93,0,0,0,113,256c-3.63,4-6.09,13.2-6.09,13.2l.55,14.59,5.47,5.82a12.08,12.08,0,0,0,3.07-1.69C118.79,285.65,123,273.69,123,273.69Z" transform="matrix(-1, 0, 0, 1, 380, 0)" /><path d="M123.07,273.7c.18.42-.77,3.53-2.18,7a48.08,48.08,0,0,1-2.44,5.25,11.07,11.07,0,0,1-1.6,2.29A9.24,9.24,0,0,1,115,289.7l-.29.17-.39.21c-.26.14-.53.27-.8.4l-.84.39a8.76,8.76,0,0,1-.66-.59l-2.09-2-1.78-1.72-.89-.88-1.3-1.31c-.19-3-.39-6-.59-9-.08-1.41-.16-2.82-.25-4.21l0-1,0-.52a2.53,2.53,0,0,1,0-.94l.33-1.19.3-1a47.42,47.42,0,0,1,2.71-7,24.08,24.08,0,0,1,1.95-3.33,13.12,13.12,0,0,1,2.77-3c.27-.2.54-.4.82-.58l.3-.19.36-.22c.24-.15.48-.27.72-.4l1.45-.7.36-.17c.07-.07.1.05.14.08l.13.15.52.6c1.64,2,1.91,2.49,2.64,3.46l4,5.54c0,.48,0,.95,0,1.41l0,.87c0,.58-.07,1.14-.11,1.7-.08,1.11-.16,2.18-.23,3.22q-.26,3.12-.56,5.77a39.84,39.84,0,0,1-1.54-6c-.21-1.11-.39-2.25-.53-3.34-.07-.55-.14-1.09-.2-1.61l-.08-.77c0-.1,0-.06-.06-.08.1.23-.6-.61-.92-1a14.44,14.44,0,0,1-.92-1.22l-1.61-2.48-.81-1.21-.2-.3c-.06-.1-.15-.23-.14-.23l-.08-.18-.1-.21c0-.11-.11,0-.17,0a1.94,1.94,0,0,0-.48.19,9.66,9.66,0,0,0-2,1.51,18.49,18.49,0,0,0-2.88,4.2,39.41,39.41,0,0,0-2,4.64q-.44,1.17-.81,2.34c-.11.39-.23.77-.34,1.15a.67.67,0,0,0,0,.37l0,.61c.07,1.62.14,3.2.21,4.75q.25,4.45.49,8.54l2.92,3,1.46,1.51.34.34c0,.09.13,0,.2,0l.22-.1a11.33,11.33,0,0,0,1.36-.79,3.12,3.12,0,0,0,.63-.52,6.23,6.23,0,0,0,.55-.64,30.54,30.54,0,0,0,2-3.17Z" transform="matrix(-1, 0, 0, 1, 380, 0)" /><path class="cls-2" d="M229.06,296.45s5.85-11,6-14.48l-2.47-9.8s-6.49-7.9-12.78-10.33c-6,1.86-6.68,1.18-6.68,1.18s-11.79,12.18-12.56,18.86a14.71,14.71,0,0,0,3.16,11s8.09,7.43,16.26,9.33A18.82,18.82,0,0,0,229.06,296.45Z" transform="matrix(-1, 0, 0, 1, 380, 0)" /><path d="M229.08,296.47A7.43,7.43,0,0,1,227,299a17.55,17.55,0,0,1-5.87,3.52l-1.1.34-1.12-.29c-.65-.14-1.28-.38-1.92-.58a31.78,31.78,0,0,1-3.61-1.52,62.9,62.9,0,0,1-5.59-3.17q-1.83-1.14-3.62-2.5l-.89-.69-.23-.19a2.06,2.06,0,0,1-.31-.29c-.18-.2-.29-.33-.42-.5a14.48,14.48,0,0,1-1.36-2,14.52,14.52,0,0,1-.28-14.53,40.56,40.56,0,0,1,2.43-4.12,78.73,78.73,0,0,1,5.55-7.31l1.35-1.57.69-.77,1.05-1.14h1.42a1.2,1.2,0,0,0,.38,0l.34-.43c.13-.07.19,0,.32-.05l.71-.1c.5-.08,1-.21,1.56-.33s1.07-.28,1.61-.43l1.12-.33a3.27,3.27,0,0,1,.83-.21l.8.35,1.11.49.84.45c.57.29,1.07.65,1.6,1a32,32,0,0,1,2.89,2.16,48.33,48.33,0,0,1,5,4.8l1.11,1.27.71.86c.07.11.18.18.21.31l.09.37.14.59c.23,1,.46,2.08.69,3.1q.67,3.14,1.32,6.11c0,.1.05.21.07.31l0,.32-.09.55a5.94,5.94,0,0,1-.2.83c-.14.54-.34,1-.51,1.49q-.56,1.4-1.17,2.67a89.6,89.6,0,0,1-5,9c.66-3,2-7.28,3.05-11.2a21.11,21.11,0,0,0,.6-2.77,3.25,3.25,0,0,0,.06-.57c0-.11,0-.08,0-.11a1.4,1.4,0,0,1-.08-.22l-.1-.33c-.07-.21-.14-.43-.2-.64a36.93,36.93,0,0,1-1.08-4.13l-.66-3.6,0-.11V273s0,0,0-.07-.1-.14-.18-.25l-.26-.34c-.36-.46-.73-.91-1.1-1.34a43.41,43.41,0,0,0-4.76-4.82,26.41,26.41,0,0,0-2.6-2c-.44-.31-.9-.56-1.35-.82a7.61,7.61,0,0,0-.7-.35c-.12,0-.25-.16-.38-.16l-1.31.33c-.53.14-1.07.27-1.61.38s-1.08.21-1.64.29c-.28,0-.56.07-.85.09h-.42l-.25,0-.12,0c-.05,0-.08,0-.11,0l-.17.17-1.1,1.17L211,266.62c-.79.9-1.56,1.81-2.3,2.72a61.21,61.21,0,0,0-4,5.53,23.85,23.85,0,0,0-2.82,5.71c-.15.48-.19.95-.29,1.42s-.09,1-.06,1.5a13.29,13.29,0,0,0,.32,2.9,14.18,14.18,0,0,0,2.28,5.09c.13.18.27.36.4.52a1.1,1.1,0,0,0,.14.15l.26.23,1.09.9q1.11.87,2.22,1.68a47.4,47.4,0,0,0,9,5.24c.51.22,1.09.42,1.69.66l.91.31.29.1.29,0a17.07,17.07,0,0,0,3.89-1.4A21,21,0,0,0,229.08,296.47Z" transform="matrix(-1, 0, 0, 1, 380, 0)" /><path d="M250.23,293.79a5.07,5.07,0,0,0-2.56-.36,8.89,8.89,0,0,0-2.37.65,4.88,4.88,0,0,0-2.05,1.81,2.83,2.83,0,0,0-.43,1.25,3.56,3.56,0,0,0,.19,1.37,2.36,2.36,0,0,0,2,1.41,3.71,3.71,0,0,0,2.35-.33,3.94,3.94,0,0,0,1.27-1.47,9.72,9.72,0,0,0,.61-1.51l.11-.39a2.87,2.87,0,0,0,.07-.33,1,1,0,0,0,0-.38.59.59,0,0,0-.49-.44,1,1,0,0,0-.35,0,2.58,2.58,0,0,0-.57.13,1.42,1.42,0,0,0-.42.23s0,0,0,0h0l-.08-.07c-.06,0-.08-.08-.14-.11a.74.74,0,0,0-.35-.17l.09,0a1.15,1.15,0,0,0,.26-.1l.18-.11.12-.09s0,0,0,0a2.83,2.83,0,0,0,.51.31,8.77,8.77,0,0,0,1.52.61,4.77,4.77,0,0,0,.72.16h.23l.45,0c5.36-.21,10.64,0,15.68.14,8.82.27,17.48,1.06,25.34,1.63l11.17.83a59.22,59.22,0,0,1,9.62,1.3c-2.72.37-6.4,1-10,1.39a45.86,45.86,0,0,1-8.71.29c-7.11-.84-13.75-1.68-20-2.2s-12.12-.83-17.62-.9c-1.38,0-2.73,0-4.06,0l-2,.05a7.34,7.34,0,0,1-2.19-.51,9.07,9.07,0,0,1-1.92-1,2.78,2.78,0,0,1-1-1,1.78,1.78,0,0,1,.13-1.9,3,3,0,0,1,1.11-.9,4.5,4.5,0,0,1,1.14-.38,3.89,3.89,0,0,1,2.56.33,2.55,2.55,0,0,1,1.34,2.18,4.22,4.22,0,0,1-.16,1.33,8.45,8.45,0,0,1-.31.93,8,8,0,0,1-2.2,3.3,4.32,4.32,0,0,1-2,.94,6,6,0,0,1-2,.05,5.06,5.06,0,0,1-1.93-.64,3.88,3.88,0,0,1-1.47-1.56,4.24,4.24,0,0,1-.43-2l0-.52a2.93,2.93,0,0,1,.11-.59,3.94,3.94,0,0,1,.47-1,5.71,5.71,0,0,1,3.33-2.45,7.88,7.88,0,0,1,3.37-.16A3.15,3.15,0,0,1,250.23,293.79Z" transform="matrix(-1, 0, 0, 1, 380, 0)" /><path d="M249,298.37a4.26,4.26,0,0,1,2-.23c1.12,0,2.58.2,4.13.41,3.11.42,6.6,1,8.57,1.14,6.95.61,14.79,1.62,21.94,2.17,6.26.52,12.47,1.13,18.12,2s10.78,1.83,14.71,3.6c-2.06.18-4.75.43-7.32.52a28.21,28.21,0,0,1-6.19-.25c-10-2.27-18.91-3.06-26.81-4a191.34,191.34,0,0,1-20.64-3.13c-1.41-.28-3.29-.84-4.94-1.32S249.53,298.46,249,298.37Z" transform="matrix(-1, 0, 0, 1, 380, 0)" /><path d="M330.29,326c-.68,0-6.12-2.45-11.66-6.58a27.61,27.61,0,0,1-4-3.57c-.31-.33-.58-.73-.86-1.09l-.73-1.1c-.48-.73-.93-1.47-1.36-2.2a36,36,0,0,1-3.48-7.94,3.94,3.94,0,0,0-1.16-2l.78.29a.23.23,0,0,1-.11,0h0s0,0,0,0a.67.67,0,0,0-.1-.21l-.06-.08a0,0,0,0,0,0,0,.6.6,0,0,0,.16.08c.08,0,.07,0,.22,0s.08.38.25.7a10.16,10.16,0,0,0,1.3,2c.87,1.06,2.39,1.48,4.3,2,.47.15,1,.3,1.44.5l1.28.48a25.77,25.77,0,0,0,2.6.75,23.49,23.49,0,0,0,5.33.66,14.77,14.77,0,0,0,5.09-.83l.59-.22.56-.27a8.56,8.56,0,0,0,1.06-.61c.35-.2.63-.49,1-.72s.71-.62,1-.9a4.46,4.46,0,0,0,.66-.76.66.66,0,0,0,.14-.39,2.7,2.7,0,0,0-.67-1.35,5.14,5.14,0,0,0-3.6-1.73,4,4,0,0,0-.5,0h-.59c-.4,0-.79,0-1.19,0-.8,0-1.59.09-2.39.18a41.32,41.32,0,0,0-4.71.79,70,70,0,0,0-8.9,2.69v-3.72a3.22,3.22,0,0,0,1,0,11.14,11.14,0,0,0,1.6-.27,29,29,0,0,0,3.36-1.07,46.11,46.11,0,0,0,6.42-3c1-.57,2-1.18,2.9-1.82a14.4,14.4,0,0,0,2.38-2c.09-.11.13-.15.14-.15l0-.05a.5.5,0,0,0,.08-.12c0-.08.05-.22,0-.26l-.13-.06c-.09,0,0,0-.33-.1s-1-.22-1.47-.28a18,18,0,0,0-6,.27,25.67,25.67,0,0,0-5.54,1.8,21,21,0,0,0-4.6,2.92,9.94,9.94,0,0,0-3,3.89c.13-1.9,1.46-4.24,3.43-6.17a21.76,21.76,0,0,1,7.3-4.67,20.57,20.57,0,0,1,8.32-1.52,11.51,11.51,0,0,1,1.9.21l.46.07.22,0,.32.14,1.23.57,1.16.55c.17.09.23.31.34.46a1.51,1.51,0,0,1,.23.52,3.89,3.89,0,0,1,.17,1,4.91,4.91,0,0,1-.17,1l-.27.68a6.11,6.11,0,0,1-.38.65,6.67,6.67,0,0,1-.43.61l-.36.41a14.71,14.71,0,0,1-1.33,1.21,27.08,27.08,0,0,1-2.71,1.89,49.57,49.57,0,0,1-5.53,2.89,45.13,45.13,0,0,1-5.63,2.1,23.79,23.79,0,0,1-2.92.67,7,7,0,0,1-3.28-.14l-2.92-.95,2.91-1c6.08-2.1,12.21-3.66,18.27-3.56a9.46,9.46,0,0,1,4.57,1.05,6.7,6.7,0,0,1,3.15,3.52,4,4,0,0,1,.24,1.3,3.34,3.34,0,0,1-.32,1.34,6.46,6.46,0,0,1-1.48,1.84,14.3,14.3,0,0,1-3.52,2.5,14.06,14.06,0,0,1-4,1.27,20.17,20.17,0,0,1-4.09.25,26.84,26.84,0,0,1-7.7-1.5c-.61-.19-1.22-.46-1.78-.67s-1.08-.39-1.65-.57a12.28,12.28,0,0,1-3.59-1.53,6.55,6.55,0,0,1-.81-.67,3.69,3.69,0,0,1-.38-.41c-.11-.14-.22-.27-.31-.4a12.16,12.16,0,0,1-1-1.61,5.75,5.75,0,0,1-.69-2,2.6,2.6,0,0,1,0-.77,1.81,1.81,0,0,1,.49-.88,1.94,1.94,0,0,1,.82-.5,4.72,4.72,0,0,1,.71-.11l.4,0,.38.33a5.33,5.33,0,0,1,1.41,2.18c.27.77.4,1.41.6,2a31.5,31.5,0,0,0,1.36,3.63c.52,1.17,1.1,2.3,1.72,3.39.31.55.62,1.08,1,1.62s.65,1.08,1,1.51c1.71,2.31,5.05,5.05,8,7.26S329.37,325.44,330.29,326Z" transform="matrix(-1, 0, 0, 1, 380, 0)" /><path d="M92.71,278c.25.6-1.74,1.92-2.33,2.72a16.31,16.31,0,0,1-4,3.49,12.21,12.21,0,0,1-7.59,2.31c.12-1.87,1.06-3.6,1.7-3.6a10.11,10.11,0,0,0,6-1.93,26.27,26.27,0,0,1,4-2.71A5.94,5.94,0,0,1,92.71,278Z" transform="matrix(-1, 0, 0, 1, 380, 0)" /><path d="M87.54,293.1c.4.49-.3,1.16-.31,1.68a4,4,0,0,1-.83,2.15,3,3,0,0,1-3.2,1.27c-.92-1.42-1.26-2.72-.89-2.68,3,.29,2.7-2.13,3.89-2.56C86.44,292.81,87.34,293,87.54,293.1Zm-1.09,2.95h0" transform="matrix(-1, 0, 0, 1, 380, 0)" /><path d="M179.42,273.76c-.63,0-1-2-1.53-2.62a16.35,16.35,0,0,1-2-3.88,11.09,11.09,0,0,1-.78-6.49c1.8.05,3.39,1,3.28,1.59a10,10,0,0,0,.52,5.51,12.8,12.8,0,0,1,1.18,4A4.49,4.49,0,0,1,179.42,273.76Z" transform="matrix(-1, 0, 0, 1, 380, 0)" /><path d="M185.59,276.11c-.63-.08-.69-1.94-1.08-2.64a12,12,0,0,1-1.11-4,8.77,8.77,0,0,1,1.09-6.09c1.69.6,2.9,1.84,2.63,2.31-2.18,3.81-.11,6.53-.55,8.75A4.32,4.32,0,0,1,185.59,276.11ZM184,270.73h0" transform="matrix(-1, 0, 0, 1, 380, 0)" /><path d="M225.12,307.32c.55-.34,2.22,1.43,3.13,1.86a20.18,20.18,0,0,1,4.33,3.15,14.35,14.35,0,0,1,4.49,6.64c-1.8.52-3.81.1-4-.54-1.67-5.12-5.63-6.43-7.23-8.88A5.92,5.92,0,0,1,225.12,307.32Zm5.88,4.22h0" transform="matrix(-1, 0, 0, 1, 380, 0)" /><path d="M236.1,308.6c.53-.35,1.45.7,2.09.81a9,9,0,0,1,2.81,1.26,6.09,6.09,0,0,1,2.88,3.61c-1.24,1.2-2.78,1.61-2.94,1.15a5.85,5.85,0,0,0-2.45-3.29c-.94-.64-1.91-1.09-2.32-1.91A3.16,3.16,0,0,1,236.1,308.6Z" transform="matrix(-1, 0, 0, 1, 380, 0)" /></svg>