<svg xmlns="http://www.w3.org/2000/svg" id="outfits_3" viewBox="0 0 380 600"><defs transform="matrix(-1, 0, 0, 1, 380, 0)"><style>.cls-1{fill:#fff;}</style></defs><polygon points="264.372 260.456 63.216 234.297 60.517 256.942 70.538 258.245 67.876 280.274 77.934 281.582 76.585 292.749 86.643 294.057 85.293 305.224 125.525 310.456 126.874 299.289 136.932 300.597 138.281 289.429 148.339 290.738 151 268.709 171.116 271.325 168.454 293.353 178.512 294.661 177.163 305.829 187.221 307.136 185.872 318.303 226.103 323.535 227.452 312.368 237.51 313.676 238.859 302.509 248.917 303.817 251.578 281.789 261.673 283.101 264.372 260.456" transform="matrix(-1, 0, 0, 1, 380, 0)" /><polygon class="cls-1" points="90.691 260.555 80.633 259.247 81.982 248.08 92.04 249.388 90.691 260.555" transform="matrix(-1, 0, 0, 1, 380, 0)" /><polygon class="cls-1" points="99.399 273.03 89.341 271.722 90.691 260.555 100.748 261.863 99.399 273.03" transform="matrix(-1, 0, 0, 1, 380, 0)" /><polygon class="cls-1" points="108.108 285.506 98.05 284.198 99.399 273.03 109.457 274.338 108.108 285.506" transform="matrix(-1, 0, 0, 1, 380, 0)" /><polygon class="cls-1" points="110.806 263.171 100.748 261.863 102.098 250.696 112.155 252.004 110.806 263.171" transform="matrix(-1, 0, 0, 1, 380, 0)" /><polygon class="cls-1" points="119.515 275.646 109.457 274.338 110.806 263.171 120.864 264.479 119.515 275.646" transform="matrix(-1, 0, 0, 1, 380, 0)" /><polygon class="cls-1" points="191.269 273.635 181.211 272.327 182.56 261.16 192.618 262.468 191.269 273.635" transform="matrix(-1, 0, 0, 1, 380, 0)" /><polygon class="cls-1" points="199.977 286.11 189.919 284.802 191.269 273.635 201.326 274.943 199.977 286.11" transform="matrix(-1, 0, 0, 1, 380, 0)" /><polygon class="cls-1" points="208.686 298.585 198.628 297.277 199.977 286.11 210.035 287.418 208.686 298.585" transform="matrix(-1, 0, 0, 1, 380, 0)" /><polygon class="cls-1" points="211.384 276.251 201.326 274.943 202.676 263.776 212.733 265.083 211.384 276.251" transform="matrix(-1, 0, 0, 1, 380, 0)" /><polygon class="cls-1" points="220.093 288.726 210.035 287.418 211.384 276.251 221.442 277.559 220.093 288.726" transform="matrix(-1, 0, 0, 1, 380, 0)" /></svg>