<svg xmlns="http://www.w3.org/2000/svg" id="animals_2" viewBox="0 0 380 600"><defs transform="matrix(-1, 0, 0, 1, 380, 0)"><style>.cls-1{fill:#fff;}.cls-2{fill:#3a2619;}</style></defs><path class="cls-1" d="M215.923,267.4c-11.1-12.061-22.1-2.788-28.509,6.5-3.023,7.355,13.808,20.12,19.818,19.951,8.057-.52,15.961-3.723,17.865-12.675C223.9,275.565,220.109,270.968,215.923,267.4Z" transform="matrix(-1, 0, 0, 1, 380, 0)" /><path class="cls-1" d="M106.105,258.465c-4.954,2.432-5.237,9.526-.048,16.691,2.655,3.667,6.706,2.812,9.951,1.3C132.151,260.066,121.643,244.694,106.105,258.465Z" transform="matrix(-1, 0, 0, 1, 380, 0)" /><path d="M186.925,275.619c-.3-.067-.641-.776-.471-1.824a7.383,7.383,0,0,1,1.628-3.329,34.008,34.008,0,0,1,5.508-4.99,22.3,22.3,0,0,1,8.593-4.46,14.994,14.994,0,0,1,5.7-.477l.833.141c.288.068.583.153.873.237.164.048.257.081.348.112l.287.1.572.2c.764.251,1.507.57,2.248.858a28.141,28.141,0,0,1,7.161,4.336,30.324,30.324,0,0,1,5.216,5.73l1.746,2.455a7.512,7.512,0,0,0,1.269,1.429,3.4,3.4,0,0,0,1.787.644,15.423,15.423,0,0,0,2.417.018,6.814,6.814,0,0,1-1.829,2.958,5.633,5.633,0,0,1-4.1,1.5,8.288,8.288,0,0,1-4.125-1.348,5.133,5.133,0,0,1-1.809-1.714,36.959,36.959,0,0,0-2.914-5.119,18.953,18.953,0,0,0-3.632-3.779,21.308,21.308,0,0,0-4.27-2.583,22.767,22.767,0,0,0-2.187-.892,5.825,5.825,0,0,0-1.916-.233,20.244,20.244,0,0,0-7.775,2.291,67.809,67.809,0,0,0-6.235,3.526c-.846.591-2.116,1.217-3.139,1.979a6.316,6.316,0,0,0-1.244,1.214A4.994,4.994,0,0,0,186.925,275.619Z" transform="matrix(-1, 0, 0, 1, 380, 0)" /><path d="M101.485,261.862c-.333-.641.538-1.8,1.672-3a46.4,46.4,0,0,0,3.2-3.381,16.433,16.433,0,0,1,4.613-4.358,15.759,15.759,0,0,1,3.33-1.583,10.448,10.448,0,0,1,4.616-.464,8.185,8.185,0,0,1,4.321,1.965c.294.273.58.558.851.852.238.3.467.607.684.921a6.739,6.739,0,0,1,.518.893,6.943,6.943,0,0,1,.4.869,13.373,13.373,0,0,1,.838,5.933,16.249,16.249,0,0,1-2.879,8.168,18.242,18.242,0,0,1-4.238-3.9c-1-1.27-1.519-2.3-1.213-2.872a10.22,10.22,0,0,0,1.121-3.292,4.427,4.427,0,0,0-.279-2.524,2.01,2.01,0,0,0-1.639-1.054,5.475,5.475,0,0,0-2.438.471,21.567,21.567,0,0,0-4.453,2.824,23.31,23.31,0,0,1-4.028,2.641C105.249,261.682,102.152,261.864,101.485,261.862Z" transform="matrix(-1, 0, 0, 1, 380, 0)" /><path class="cls-2" d="M113.628,256.984c-6.764,3.3-6.525,17.912-4.11,19.254,2.843,1.579,5.436-.2,8.884-2.742C125.006,267.136,125.943,252.474,113.628,256.984Z" transform="matrix(-1, 0, 0, 1, 380, 0)" /><path d="M113.618,256.955a3.094,3.094,0,0,1,1.468-.832,8.619,8.619,0,0,1,3.5-.553,6.142,6.142,0,0,1,2.122.528,5.381,5.381,0,0,1,1.774,1.354,8.091,8.091,0,0,1,1.557,3.24,14.685,14.685,0,0,1-1.27,9.591,16.2,16.2,0,0,1-2.856,4.255l-.271.29c-.122.12-.318.248-.361.288l-.458.357-.94.708a22.616,22.616,0,0,1-2.028,1.354,9.017,9.017,0,0,1-3.4,1.24,6.126,6.126,0,0,1-2.012-.084,5.5,5.5,0,0,1-.94-.27,7.624,7.624,0,0,1-.952-.436,4.3,4.3,0,0,1-1.712-2.2,9.912,9.912,0,0,1-.5-1.847,18.408,18.408,0,0,1-.252-3.351,23.053,23.053,0,0,1,.9-6.086,15.632,15.632,0,0,1,2.452-5.07,9.849,9.849,0,0,1,1.832-1.854,7.648,7.648,0,0,1,2.114-1.108,12.7,12.7,0,0,0-2.306,5.341c-.393,1.889-.526,3.666-.83,4.578a18.255,18.255,0,0,0-.912,5.064,12.661,12.661,0,0,0,.13,2.411,5.351,5.351,0,0,0,.263,1.035.99.99,0,0,0,.374.57c.062.036.206.124.337.188l.4.162a3.768,3.768,0,0,0,.834.158,4.38,4.38,0,0,0,1.746-.3,15.075,15.075,0,0,0,3.322-1.924l.781-.575.35-.263c.061-.054.17-.178.275-.287a11.786,11.786,0,0,0,1.131-1.386,15.27,15.27,0,0,0,1.651-3.033,14.736,14.736,0,0,0,1.149-6.131,5.348,5.348,0,0,0-1.977-4.364,6.7,6.7,0,0,0-3.476-.954A19.679,19.679,0,0,0,113.618,256.955Z" transform="matrix(-1, 0, 0, 1, 380, 0)" /><path class="cls-2" d="M227.645,279.1c-5.3-10.9-22.356-10.023-27-.8-2.95,5.859-.715,11.236,3.607,13.7C208.018,294.143,230.151,289.939,227.645,279.1Z" transform="matrix(-1, 0, 0, 1, 380, 0)" /><path d="M227.675,279.1a3.761,3.761,0,0,1,.527,2.259,7.513,7.513,0,0,1-1.731,4.536,15.336,15.336,0,0,1-4.256,3.581,36.984,36.984,0,0,1-4.028,2.04,31,31,0,0,1-5.947,1.966,21.932,21.932,0,0,1-6.73.579,6.075,6.075,0,0,1-2.126-.61,12.878,12.878,0,0,1-1.552-1.014,11.634,11.634,0,0,1-2.548-2.717,11.38,11.38,0,0,1-1.863-7.044,15.486,15.486,0,0,1,.185-1.555c.125-.5.213-1.016.381-1.5a12.767,12.767,0,0,1,.53-1.426,8.1,8.1,0,0,1,.693-1.359l.818-1.32c.322-.4.667-.774,1-1.155l.512-.566.578-.479,1.163-.936a18.33,18.33,0,0,1,10.56-2.984,17.185,17.185,0,0,1,9.311,3,13.779,13.779,0,0,1,5,6.457c-.458-.375-.932-.785-1.405-1.214l-.354-.326-.414-.289-.828-.585A12.435,12.435,0,0,0,223.4,275.4a13.581,13.581,0,0,0-1.838-.812,35.224,35.224,0,0,0-6.084-1.386c-5.008-1.088-10.6.584-13.349,4.409a10.269,10.269,0,0,0-2.03,6.4,8.432,8.432,0,0,0,2.48,5.675,9.457,9.457,0,0,0,1.164.977,5.892,5.892,0,0,0,.63.408l.317.189q.128.047.249.1a9.186,9.186,0,0,0,2.832.243,29.866,29.866,0,0,0,5.769-.877,31.179,31.179,0,0,0,9.634-3.993,11.235,11.235,0,0,0,3.708-3.742A7.406,7.406,0,0,0,227.675,279.1Z" transform="matrix(-1, 0, 0, 1, 380, 0)" /><path class="cls-1" d="M208.55,278.48c-9.175,1.768-7.766-12.914-.833-11.379C214.8,268.671,214.016,277.426,208.55,278.48Z" transform="matrix(-1, 0, 0, 1, 380, 0)" /><path class="cls-1" d="M111.929,263.077c-5.7.638-2.055-7.627,2.826-6.856C119.02,256.9,114.888,262.746,111.929,263.077Z" transform="matrix(-1, 0, 0, 1, 380, 0)" /></svg>