<svg xmlns="http://www.w3.org/2000/svg" id="outfits_2" viewBox="0 0 380 600"><defs transform="matrix(-1, 0, 0, 1, 380, 0)"><style>.cls-1{fill:none;}.cls-2{opacity:0.5;}.cls-3{fill:#fff;}.cls-4{fill:#fffffe;}</style></defs><g id="sunglasses" transform="matrix(-1, 0, 0, 1, 380, 0)"><path d="M272,262.1c-2.086-3.079-7.273-2.4-11.159-2.518-19.537-.611-27.08-6.929-49.94-9.022-15.676-1.436-32.265-.029-47.659-.432-5.534-.852-23.719-7.928-43.073-10.736-8.882-1.289-15.723.046-24.512.232-4.872.1-10.667-4.311-12.851-1-.812,1.229-3.009,4.8-2.7,7.549.454,4.049,2.852,5.877,2.255,13.384-.971,12.214-.047,18.669,4.391,27.353,4.509,8.825,14.691,13.5,27.755,14.418,22.084,1.548,28.09-14.465,32.285-27.836,1.33-4.241,5.288-10.195,12.195-8.91,5.022.934,7.327,5.619,7.1,10.781-.479,10.866,1.69,20.067,7.454,27.908,5.567,7.573,15.977,13.209,25.092,14.917,12.589,2.358,30.043,3.243,41.507-3.783,5.235-3.209,10.757-12.1,13.277-17.573A112.352,112.352,0,0,0,259.074,282c1.254-4.147,7.442-3.779,9.741-4.749C272.159,275.836,273.692,264.607,272,262.1Z" /><path class="cls-1" d="M272,262.1c-2.086-3.079-7.273-2.4-11.159-2.518-19.537-.611-27.08-6.929-49.94-9.022-15.676-1.436-32.265-.029-47.659-.432-5.534-.852-23.719-7.928-43.073-10.736-8.882-1.289-15.723.046-24.512.232-4.872.1-10.667-4.311-12.851-1-.812,1.229-3.009,4.8-2.7,7.549.454,4.049,2.852,5.877,2.255,13.384-.971,12.214-.047,18.669,4.391,27.353,4.509,8.825,14.691,13.5,27.755,14.418,22.084,1.548,28.09-14.465,32.285-27.836,1.33-4.241,5.288-10.195,12.195-8.91,5.022.934,7.327,5.619,7.1,10.781-.479,10.866,1.69,20.067,7.454,27.908,5.567,7.573,15.977,13.209,25.092,14.917,12.589,2.358,30.043,3.243,41.507-3.783,5.235-3.209,10.757-12.1,13.277-17.573A112.352,112.352,0,0,0,259.074,282c1.254-4.147,7.442-3.779,9.741-4.749C272.159,275.836,273.692,264.607,272,262.1Z" /><path d="M272.022,262.086c.426.379.972,2.069.9,4.64a24.658,24.658,0,0,1-.506,4.472,20.024,20.024,0,0,1-.715,2.625,10.007,10.007,0,0,1-1.392,2.724,3.507,3.507,0,0,1-1.365,1.111,10,10,0,0,1-1.645.462c-1.1.225-2.211.4-3.317.7a8.052,8.052,0,0,0-3.078,1.4,4.049,4.049,0,0,0-1.056,1.269c-.1.267-.21.5-.306.8l-.279.93a109.519,109.519,0,0,1-6.076,15.536,64.458,64.458,0,0,1-4.537,7.673,38.568,38.568,0,0,1-5.905,6.925,17.386,17.386,0,0,1-1.847,1.424c-.645.453-1.325.768-1.985,1.157a20.7,20.7,0,0,1-2.042,1l-1.032.466-1.058.387a42.812,42.812,0,0,1-8.531,2.191,73.453,73.453,0,0,1-16.1.612,100.665,100.665,0,0,1-12.994-1.655,46.312,46.312,0,0,1-18.244-8.442,38.555,38.555,0,0,1-3.9-3.452,31.781,31.781,0,0,1-3.345-4.077,37.681,37.681,0,0,1-4.775-9.421,44.561,44.561,0,0,1-2.188-10.41c-.154-1.77-.24-3.546-.236-5.321-.009-.88.035-1.792.043-2.644a14.051,14.051,0,0,0-.133-2.317,9.335,9.335,0,0,0-1.589-4.1,6.947,6.947,0,0,0-1.474-1.462,7.113,7.113,0,0,0-1.866-.891,8.145,8.145,0,0,0-4.251-.039,7.948,7.948,0,0,0-3.641,2.27,13.3,13.3,0,0,0-2.53,3.865c-.589,1.359-1.045,3.161-1.626,4.828a68.351,68.351,0,0,1-4.069,9.993,32.678,32.678,0,0,1-6.537,8.923,24.994,24.994,0,0,1-9.668,5.637,31.744,31.744,0,0,1-10.887,1.414,43.363,43.363,0,0,1-5.351-.379c-.884-.1-1.765-.225-2.643-.389-.88-.135-1.753-.321-2.624-.518a38.1,38.1,0,0,1-10.092-3.689,26.288,26.288,0,0,1-8.345-6.965c-.47-.649-.94-1.3-1.363-1.984-.383-.69-.836-1.409-1.144-2.076-.686-1.345-1.309-2.739-1.886-4.157a38.163,38.163,0,0,1-2.387-8.92,53.145,53.145,0,0,1-.429-9.071c.039-1.493.116-2.975.222-4.446a37.84,37.84,0,0,0,.159-4.134,16.451,16.451,0,0,0-.56-3.818c-.328-1.244-.88-2.53-1.328-4.127-.112-.394-.2-.8-.285-1.222-.044-.206-.066-.42-.1-.63a5.514,5.514,0,0,1-.073-.694,8.966,8.966,0,0,1,.308-2.794,18.346,18.346,0,0,1,1.926-4.473,10.242,10.242,0,0,1,1.636-2.274,5.114,5.114,0,0,1,3.352-1.208,16.219,16.219,0,0,1,4.842,1,33.169,33.169,0,0,0,3.873,1.075c.307.068.586.079.879.126.288.022.538.023.834.035l2.093-.067c5.569-.21,11.274-.9,17.1-.625a64.623,64.623,0,0,1,8.566,1.009c2.782.472,5.532,1.027,8.254,1.633,5.441,1.225,10.763,2.673,15.977,4.216l7.74,2.355c2.536.762,5.125,1.608,7.5,2.118l.436.088a.643.643,0,0,0,.236.025l.981.025,1.958.045,3.906.038c2.6.015,5.187-.01,7.76-.033,5.148-.052,10.242-.134,15.274-.1s10,.185,14.878.581a131.221,131.221,0,0,1,14.289,1.95c9.3,1.765,17.776,4.9,26.057,6.5a86.232,86.232,0,0,0,12.26,1.471c1.973.087,4,0,6.038.236a11.02,11.02,0,0,1,3.025.741,5.489,5.489,0,0,1,2.5,2.006,5.305,5.305,0,0,0-2.334-1.708,9.707,9.707,0,0,0-2.824-.573,57.709,57.709,0,0,0-5.958.134,81.729,81.729,0,0,1-13.066-.765c-4.547-.627-9.178-1.739-13.814-2.813s-9.3-2.06-13.952-2.722a166.747,166.747,0,0,0-26.411-1.422c-7.984.106-14.823.341-19.551.308-2.379-.013-4.751-.027-7.121-.087l-3.548-.1-.443-.015a3.123,3.123,0,0,1-.679-.065l-.959-.2c-.613-.143-1.19-.3-1.78-.458-4.58-1.327-8.925-2.8-13.319-4.13a194.577,194.577,0,0,0-26.189-6.362,59.815,59.815,0,0,0-12.981-.619l-6.54.36-3.282.144a25.332,25.332,0,0,1-3.406-.03,37.963,37.963,0,0,1-6.411-1.72,9.472,9.472,0,0,0-2.808-.5,2,2,0,0,0-1,.3c-.062.049-.135.08-.2.133l-.163.2a3.345,3.345,0,0,0-.4.554,14.385,14.385,0,0,0-2.282,5.418,4.438,4.438,0,0,0,.015,1.331,10.26,10.26,0,0,0,.288,1.43c.248.952.621,1.92.952,2.949a19.915,19.915,0,0,1,1.017,6.437c-.014,2.182-.284,4.2-.362,6.248a51.092,51.092,0,0,0,.549,12.035,40.4,40.4,0,0,0,3.953,11.119,21.775,21.775,0,0,0,7.709,8.309,34.045,34.045,0,0,0,10.523,4.327,50.479,50.479,0,0,0,5.6,1c.936.14,1.882.194,2.82.285s1.872.055,2.806.088a28.481,28.481,0,0,0,10.807-1.758,22.814,22.814,0,0,0,8.723-6.122,35.039,35.039,0,0,0,5.656-9.04,88.823,88.823,0,0,0,3.662-10.027,17.676,17.676,0,0,1,2.39-5.041,12.483,12.483,0,0,1,4.126-3.864,9.857,9.857,0,0,1,5.564-1.241,9.438,9.438,0,0,1,5.33,1.977,9.879,9.879,0,0,1,3.164,4.657,14.867,14.867,0,0,1,.713,5.4,55.45,55.45,0,0,0,.455,9.882,37.044,37.044,0,0,0,7.128,17.524,32.539,32.539,0,0,0,6.661,6.4,43.536,43.536,0,0,0,7.924,4.624,42.319,42.319,0,0,0,8.534,2.873c2.922.6,5.929,1.044,8.876,1.375a88.261,88.261,0,0,0,8.818.534,64.139,64.139,0,0,0,8.634-.432,38.383,38.383,0,0,0,15.738-4.985,17.919,17.919,0,0,0,3.026-2.519,35.4,35.4,0,0,0,2.871-3.262,62.735,62.735,0,0,0,5.219-7.838,88.853,88.853,0,0,0,4.248-8.913c1.3-3.062,2.388-6.121,3.42-9.2a4.7,4.7,0,0,1,1.564-2.115,7.136,7.136,0,0,1,2.2-1.157,26.6,26.6,0,0,1,4.446-.947,8.642,8.642,0,0,0,1.964-.492,3.61,3.61,0,0,0,1.323-1.3,13.238,13.238,0,0,0,1.484-3.417,25.153,25.153,0,0,0,1.01-6.139A7.8,7.8,0,0,0,272.022,262.086Z" /><g class="cls-2"><path class="cls-3" d="M87.025,266.493c1.719.672,3.287-1.181,4.312-2.728C95.9,256.88,102.19,251.393,108.413,246,95.716,246.113,87.9,252.14,87.025,266.493Z" /><path class="cls-4" d="M86.994,266.491c-.278-.27-.337-2.767.184-5.632a25.207,25.207,0,0,1,1.193-4.285c.29-.659.511-1.317.805-1.873s.553-1.063.762-1.494a16.456,16.456,0,0,1,7.958-7.081l1.292-.532c.436-.156.881-.277,1.322-.415l.682-.2a9.532,9.532,0,0,1,1.113-.214l2.323-.378a17.128,17.128,0,0,1,2.215-.217l2.163-.137,4.533-.237.538-.023-6.309,5.552q-2.288,2.041-4.532,4.044c-2.009,1.815-3.909,3.614-5.667,5.379s-3.342,3.519-4.751,5.212c-.345.4-.713.877-1.122,1.317a9.166,9.166,0,0,1-1.332,1.206,4.6,4.6,0,0,1-1.694.8,2.7,2.7,0,0,1-1.86-.234,2.463,2.463,0,0,0,1.567-.538,4.023,4.023,0,0,0,.965-1.232,12.62,12.62,0,0,0,.664-1.488c.1-.266.2-.529.292-.791l.351-.85a15.8,15.8,0,0,1,3.144-4.96c2.488-2.242,4.915-4.235,7.224-6.126l1.711-1.4,1-.767c.668-.52,1.372-1.093,2.04-1.649l.118-.1c.031-.029.116-.08.032-.064l-.28.006-.569.016a9.76,9.76,0,0,0-1.145.091,14.411,14.411,0,0,0-2.2.411,17.442,17.442,0,0,0-5.818,2.61,16.02,16.02,0,0,0-4.023,4.049c-.262.374-.474.779-.714,1.156a8.111,8.111,0,0,0-.636,1.172c-.19.4-.4.783-.578,1.179l-.482,1.2c-.442,1.159-1.056,2.779-1.517,4.268C87.461,264.722,87.157,266.059,86.994,266.491Z" /></g><g class="cls-2"><path class="cls-3" d="M197.192,256.881c-2.734-.589-8.21.371-11.1.694-7.1.794-9.517,5.9-10.494,12.519-.327,2.209-.375,5.014,1.584,6.046q9.981-7.231,19.375-15.249a4.568,4.568,0,0,0,1.566-1.952A1.6,1.6,0,0,0,197.192,256.881Z" /><path class="cls-4" d="M197.2,256.854c.081-.059.464-.074.843.3a2.044,2.044,0,0,1,.463,1.906,5.212,5.212,0,0,1-1.77,2.377l-2.314,2.09c-1.561,1.393-3.074,2.719-4.01,3.616-2.357,2.267-5.009,4.562-7.758,6.783l-2.075,1.653-1.046.813-.15.116a2.507,2.507,0,0,1-.246.156l-.491.3-.988.591c-.662.739-1.327-.081-1.934-.414a4.611,4.611,0,0,1-1.427-1.887,5.066,5.066,0,0,1-.334-.941,7.85,7.85,0,0,1-.159-.8,10.288,10.288,0,0,1-.1-1.517,16.011,16.011,0,0,1,.2-2.435c.1-.758.247-1.518.4-2.276a19.849,19.849,0,0,1,1.511-4.476,12.325,12.325,0,0,1,2.915-3.892,10.853,10.853,0,0,1,4.154-2.244,18.161,18.161,0,0,1,4.126-.606c1.244-.089,2.475-.176,3.665-.22a20.775,20.775,0,0,1,6.632.54c-1.942.373-4.249,1.218-6.556,1.89-1.143.341-2.258.647-3.257.862-.485.109-1.01.185-1.371.249a6.4,6.4,0,0,1-.937.106,9.822,9.822,0,0,0-2.942.7,7.794,7.794,0,0,0-2.414,1.691,9.447,9.447,0,0,0-1.73,2.467,15.193,15.193,0,0,0-1.106,2.847,17.836,17.836,0,0,0-.836,5.778,5.025,5.025,0,0,0,.256,1.221,1.944,1.944,0,0,0,.474.741,1.847,1.847,0,0,0,.353.252c.121.017.235-.147.35-.21l.807-.613c5.885-4.465,10.7-8.708,15.16-12.125.662-.529,1.514-1.136,2.364-1.714a5.429,5.429,0,0,0,1.9-1.673,1.706,1.706,0,0,0-.017-1.416A1.166,1.166,0,0,0,197.2,256.854Z" /></g></g></svg>