<svg xmlns="http://www.w3.org/2000/svg" id="new" viewBox="0 0 380 600"><defs transform="matrix(-1, 0, 0, 1, 380, 0)"><style>.cls-1{fill:#ff0;}</style></defs><g id="default" transform="matrix(-1, 0, 0, 1, 380, 0)"><path class="cls-1 color-eyes" d="M121.346,273.935c2.029,21.581-31.873,27.8-18.613-15.575C109.348,262.365,120.608,266.081,121.346,273.935Z" style="" /><path d="M121.316,273.938a2.01,2.01,0,0,1-.341-.724c-.071-.193-.126-.425-.218-.676-.111-.244-.236-.515-.371-.81a12.323,12.323,0,0,0-2.94-3.784,35.674,35.674,0,0,0-8.871-5.315l-2.985-1.308-.761-.344c-.23-.107-.592-.287-.611-.28l-.48-.175c-.183-.157-.151.179-.187.318l-.03.235a2.079,2.079,0,0,1-.085.421c-.287,1.089-.485,2.2-.709,3.305a49.239,49.239,0,0,0-1.075,13.059,24.942,24.942,0,0,0,.373,2.637c.095.424.162.86.273,1.274l.379,1.212a10.238,10.238,0,0,0,2.419,3.976,6.242,6.242,0,0,0,3.742,1.733,8.1,8.1,0,0,0,4.208-.8,12.969,12.969,0,0,0,5.98-6.176,18.312,18.312,0,0,0,1.754-7.73c.229.527.455,1.137.675,1.813a18.751,18.751,0,0,1,.407,2.207,14.375,14.375,0,0,1-.432,4.986,12.226,12.226,0,0,1-4.74,6.988,13.985,13.985,0,0,1-4.94,1.916,9.815,9.815,0,0,1-9.178-3.14,13.034,13.034,0,0,1-1.321-1.906c-.179-.333-.381-.655-.537-.993l-.416-1.025a24.136,24.136,0,0,1-1.386-8.161,50.355,50.355,0,0,1,.489-7.632c.207-1.211.38-2.41.6-3.578l.729-3.428q.559-2.109,1.1-4.146l.162-.6.082-.3c.016-.042.02-.118.047-.133l.132.073,1.058.586c.7.385,1.432.8,2.13,1.163,3.725,1.919,7.393,3.6,10.448,5.922a15.366,15.366,0,0,1,4.347,4.848,14.852,14.852,0,0,1,.635,1.453c.158.471.234.934.331,1.326A13.637,13.637,0,0,1,121.316,273.938Z" /><path class="cls-1 color-eyes" d="M235.094,281.763c.581,20.144-27.915,28.046-37.953,10.722-1.849-2.991-4.779-12.206-1.486-14.688,9.475-4.889,20.547-4.634,31.043-6.26C233.747,268.921,234.932,276.55,235.094,281.763Z" style="" /><path d="M235.063,281.764a22.951,22.951,0,0,1-.621-3.247,20.442,20.442,0,0,0-.761-2.96,7.006,7.006,0,0,0-1.75-2.911,3.805,3.805,0,0,0-3.17-.89,4.868,4.868,0,0,0-.882.176l-.953.3c-.761.149-1.328.227-1.982.342l-6.429.96c-5.714.943-11.874,1.708-17.526,3.8-.708.253-1.406.526-2.086.836-.695.28-1.353.628-2.018.96-.519.114-.873,1.208-.9,2.5a21.508,21.508,0,0,0,1.938,8.1,13.789,13.789,0,0,0,.782,1.552c.29.485.65,1,.967,1.5.35.477.723.925,1.083,1.387.411.413.787.859,1.214,1.25a17.273,17.273,0,0,0,5.838,3.565,20.691,20.691,0,0,0,13.25.036,20.117,20.117,0,0,0,9.962-7.1,18.07,18.07,0,0,0,2.568-5,22.491,22.491,0,0,0,.937-5.141,15.488,15.488,0,0,1,.528,5.533,16.68,16.68,0,0,1-1.976,6.416A17.774,17.774,0,0,1,225,301.359a25.34,25.34,0,0,1-12.951,1.837,21.22,21.22,0,0,1-11.079-4.809,20.5,20.5,0,0,1-3.784-4.345,18.687,18.687,0,0,1-1.4-2.45,25.764,25.764,0,0,1-1.012-2.552,27.009,27.009,0,0,1-1.252-5.2,14.247,14.247,0,0,1-.1-2.681,6.549,6.549,0,0,1,.69-2.725,6.782,6.782,0,0,1,.4-.642c.175-.188.367-.376.58-.583a9.7,9.7,0,0,1,1.216-.648c.739-.386,1.5-.69,2.257-1.011s1.522-.567,2.274-.851c.765-.235,1.52-.49,2.279-.7a70.633,70.633,0,0,1,8.9-1.792c2.883-.411,5.664-.7,8.333-.99l3.924-.441,1.9-.238.235-.029a.615.615,0,0,0,.127-.021l.423-.118a6.162,6.162,0,0,1,1.031-.24c.342-.042.7-.09,1.07-.116.386.026.786.051,1.191.1a7.119,7.119,0,0,1,1.215.416,4.676,4.676,0,0,1,1.09.734,7.652,7.652,0,0,1,2.22,4.264A23.119,23.119,0,0,1,235.063,281.764Z" /><path d="M244.862,243.16c.364.381.821,2.658.731,6.023a38.135,38.135,0,0,1-2.337,12.416,16.224,16.224,0,0,1-4.25,6.468c-.266.225-.555.43-.836.64-.306.181-.6.382-.921.541a8.047,8.047,0,0,1-.991.428,9.216,9.216,0,0,1-.963.294l-3.409.873-6.279,1.622c-1.943.429-3.687.828-5.137,1.186a188.1,188.1,0,0,1-32.938,4.9,218.148,218.148,0,0,1-33.993-.654c-4.8-.392-9.553-1.192-14.272-1.942l-7-1.469c-1.164-.225-2.311-.53-3.452-.846l-3.416-.929A114.642,114.642,0,0,1,100,262.355l-5.579-3.491a21.663,21.663,0,0,1-5.239-4.889,13.769,13.769,0,0,1-2.761-6.937,14.744,14.744,0,0,1,1.063-6.87,29.4,29.4,0,0,1,6.716-9.533,60.875,60.875,0,0,1,7.733-6.414c-1.588,2.438-3.613,5.3-5.476,8.442-1.839,3.116-3.57,6.61-4.018,9.768a9.057,9.057,0,0,0,.256,4.112,8.648,8.648,0,0,0,1.8,2.961,17.416,17.416,0,0,0,2.544,2.254c.426.328.88.612,1.258.905.455.288.884.562,1.253.821,1.5,1.036,2.979,2.093,4.491,3.091l4.713,2.684,1.175.663c.4.209.81.388,1.213.582l2.43,1.137c1.624.737,3.207,1.55,4.874,2.134l4.92,1.866c1.628.623,3.309,1.057,4.946,1.582,1.653.476,3.267,1.051,4.923,1.423l4.915,1.173a171.3,171.3,0,0,0,37.482,3.981,233.6,233.6,0,0,0,33.009-2.459c2.545-.4,5.055-.742,7.508-1.157l7.21-1.351,1.766-.32,1.736-.387,3.429-.753,3.377-.716a7.26,7.26,0,0,0,2.6-.831,12.335,12.335,0,0,0,4-4.719,35.78,35.78,0,0,0,2.8-7.121A44.7,44.7,0,0,0,244.862,243.16Z" /><path d="M158.6,249.083c.2.293-.33,1.2-.846,2.282a17.8,17.8,0,0,0-.755,1.653,6.621,6.621,0,0,0-.458,1.414,58.738,58.738,0,0,0-1.309,8.127,116.982,116.982,0,0,0,.114,12.338,6.521,6.521,0,0,1-2.739-2.085,4.143,4.143,0,0,1-1.069-2.423c.5-4.389.9-7.857,1.458-11.023.576-3.125,1.354-5.908,2.8-7.924a7.511,7.511,0,0,1,1.5-1.5A13.328,13.328,0,0,1,158.6,249.083Z" /></g></svg>