<svg xmlns="http://www.w3.org/2000/svg" id="halloween" viewBox="0 0 380 600"><defs><style>.cls-1{fill:#ff0;}.cls-2{fill:#fff;}</style></defs><g id="default"><path class="cls-1 color-eyes" d="M256.45,273.534c4.252,23.191,28.049,23.817,23.152-4.594-.648-6.311-9.762-25.75-16.087-12.455C261.143,262.108,256.068,267.142,256.45,273.534Z"></path><path d="M256.419,273.536a5.759,5.759,0,0,1-.183-2.831,17.311,17.311,0,0,1,1.81-5.586c.976-1.994,2.2-3.986,3.185-5.836a28.075,28.075,0,0,0,1.253-2.643c.155-.407.351-.828.54-1.227a10.183,10.183,0,0,1,.551-1.083,7.459,7.459,0,0,1,2.916-3.128,4.5,4.5,0,0,1,2.471-.536,5.865,5.865,0,0,1,2.362.688,12.257,12.257,0,0,1,3.369,2.824,24.964,24.964,0,0,1,2.438,3.4,37.252,37.252,0,0,1,3.443,7.487c.221.655.409,1.329.578,2.02s.272,1.44.372,2.059q.156.966.31,1.921c.094.644.146,1.314.22,1.964a31.267,31.267,0,0,1-.05,6.964,19.031,19.031,0,0,1-2.124,6.855,10.97,10.97,0,0,1-5.569,5.017,10.188,10.188,0,0,1-7.237-.166,14.532,14.532,0,0,1-5.309-3.7,20.792,20.792,0,0,1-3.285-4.813,27.438,27.438,0,0,1-2.59-9.542,55.827,55.827,0,0,0,5.083,8.461,26.177,26.177,0,0,0,3.152,3.353c1,.9,1.917,1.482,2.51,1.947a8.015,8.015,0,0,0,3.99,1.64,6.266,6.266,0,0,0,4-.946,8.512,8.512,0,0,0,2.876-3.24,14.853,14.853,0,0,0,1.483-4.246,28.3,28.3,0,0,0,.243-8.856c-.087-.725-.2-1.446-.3-2.16a20.528,20.528,0,0,0-.351-2.057,27.733,27.733,0,0,0-1.264-3.9,31.972,31.972,0,0,0-3.719-6.849,14.517,14.517,0,0,0-2.405-2.627A4.465,4.465,0,0,0,268.516,253a3.259,3.259,0,0,0-2.274,1.245,12.32,12.32,0,0,0-1.66,2.6,40.939,40.939,0,0,1-3.253,5.806,55.6,55.6,0,0,0-3.59,6A14.13,14.13,0,0,0,256.419,273.536Z"></path><path class="cls-1 color-eyes" d="M144.906,281.763c1.6,30.806,46.373,24.14,40.828-4.795-7.543-6.453-17.371-15.608-28.11-12.972C150.793,266.123,144.892,274.738,144.906,281.763Z"></path><path d="M144.876,281.763a7.98,7.98,0,0,1,.1-3.591,20.076,20.076,0,0,1,2.841-6.9,21.426,21.426,0,0,1,5.975-6.289,15.85,15.85,0,0,1,3.617-1.835,20.929,20.929,0,0,1,3.251-.563,18.162,18.162,0,0,1,5,.219,24.821,24.821,0,0,1,4.885,1.506,43,43,0,0,1,8.847,5.229c1.373,1.019,2.714,2.075,4.018,3.149l1.944,1.609.96.8.887.75.225.193.044.293.086.574.235,1.527a12.647,12.647,0,0,1,.171,1.317c.036.889.116,1.773.106,2.659-.063.887-.067,1.776-.189,2.652-.168.871-.246,1.756-.5,2.6a20.219,20.219,0,0,1-4.185,8.154,22.056,22.056,0,0,1-7.1,5.5,24.243,24.243,0,0,1-16.677,1.755,20.088,20.088,0,0,1-7.18-3.474,19.862,19.862,0,0,1-4.943-5.561,23.542,23.542,0,0,1-2.95-12.252c.287.82.576,1.719.859,2.666.383.932.711,1.927,1.162,2.9a24.833,24.833,0,0,0,3.4,5.514,20.718,20.718,0,0,0,4.364,3.822,22.007,22.007,0,0,0,2.053,1.163l.874.462c.283.118.541.233.77.343a19.672,19.672,0,0,0,11.954,1.5,22.164,22.164,0,0,0,5.649-1.9,19.535,19.535,0,0,0,4.715-3.373,18.549,18.549,0,0,0,3.339-4.529A18.886,18.886,0,0,0,184.5,287.8c.131-.439.278-.871.4-1.31q.125-.672.247-1.34a19.224,19.224,0,0,0,.27-2.679c.041-.891-.053-1.781-.071-2.661-.039-.439-.122-.873-.18-1.307l-.159-1.072a4.871,4.871,0,0,0-.736-.668l-1.014-.856c-5.334-4.53-10.62-8.56-16.266-10.378a17.178,17.178,0,0,0-8.26-.6,6.828,6.828,0,0,0-.956.195l-.886.327a14.394,14.394,0,0,0-1.727.882,17.669,17.669,0,0,0-3.079,2.313,27.733,27.733,0,0,0-2.813,3.077A24.223,24.223,0,0,0,146.8,275.6a19.026,19.026,0,0,0-1.465,3.755A19.722,19.722,0,0,0,144.876,281.763Z"></path><path d="M162.32,279.105c-2.06-.92-3.36-3.286-5.445-4.134a4.576,4.576,0,0,0-5.549,2.069,5.515,5.515,0,0,0,.8,6.316c1.741,1.749,4.392,1.79,6.748,1.5s4.832-.8,7.027.176c1.9.843,3.268,2.664,4.959,3.93,1.885,1.411,4.387,2.107,6.494,1.137s3.418-3.963,2.275-6.117a4.959,4.959,0,0,0-4.749-2.26c-1.816.083-3.578.716-5.391.862A10.951,10.951,0,0,1,159.378,277"></path><path d="M159.4,276.984c.227.051.71.722,1.558,1.555a12.073,12.073,0,0,0,3.588,2.473,9.576,9.576,0,0,0,4.81.8,40.73,40.73,0,0,0,4.172-.945,8.358,8.358,0,0,1,3.353-.175,5.786,5.786,0,0,1,3.393,1.789,5.233,5.233,0,0,1,1.254,3.964,6.681,6.681,0,0,1-1.591,3.731,5.87,5.87,0,0,1-1.687,1.361,6.53,6.53,0,0,1-2.019.677,7.927,7.927,0,0,1-3.966-.422,10.741,10.741,0,0,1-3.209-1.866c-.886-.727-1.616-1.446-2.308-2.013a5.16,5.16,0,0,0-3.55-1.446,45.484,45.484,0,0,0-4.893.447,10.325,10.325,0,0,1-6.008-1.054,6.573,6.573,0,0,1-2.4-2.38,7.32,7.32,0,0,1-.544-6.052,6.178,6.178,0,0,1,1.689-2.526,5.968,5.968,0,0,1,5.316-1.406,5.85,5.85,0,0,1,2.271,1.185,13.061,13.061,0,0,1,1.494,1.512,11.716,11.716,0,0,0,2.427,2.4,7.41,7.41,0,0,1-3.485-1.311c-1.194-.713-2.463-1.324-3.365-1.147a3.407,3.407,0,0,0-2.2,1.218,4.911,4.911,0,0,0-.792,1.519,3.779,3.779,0,0,0,.088,2.828,3.471,3.471,0,0,0,2.216,1.838,9.544,9.544,0,0,0,3.509.313c1.246-.082,2.55-.26,3.887-.269a8.711,8.711,0,0,1,3.992.806,13.02,13.02,0,0,1,3.032,2.317A15.041,15.041,0,0,0,172,288.8a6.468,6.468,0,0,0,2.83.925,3.774,3.774,0,0,0,4.054-2.7,3.316,3.316,0,0,0-.018-2.305,2.881,2.881,0,0,0-1.521-1.487c-1.42-.658-3.058-.418-4.8-.039a23.194,23.194,0,0,1-2.734.455,10.5,10.5,0,0,1-2.833-.167,10.192,10.192,0,0,1-5.291-2.944A10.506,10.506,0,0,1,159.4,276.984Z"></path><path d="M267.77,274.238a4.094,4.094,0,0,1-2.454,1.27,4.312,4.312,0,0,0-1.395.279,1.383,1.383,0,0,0-.627,1.646,3.463,3.463,0,0,0,1.185,1.521c1.249,1.046,3.255,1.866,4.633.952,1.035-.686,1.135-1.977,1.281-3.1s.643-2.448,1.908-2.715c.339-.072.7-.053,1.04-.109a2.688,2.688,0,0,0,2.128-2.177,6.531,6.531,0,0,0-.39-3.006,5.867,5.867,0,0,0-1.43-2.805,2.733,2.733,0,0,0-3.2-.438c-1.243.873-.657,2.565-.549,3.952a5.337,5.337,0,0,1-2.634,4.829"></path><path d="M267.25,274.31c-.024-.343,1.365-1.374,1.816-3.1a4.24,4.24,0,0,0,.149-1.289,9.719,9.719,0,0,0-.218-1.361,8.493,8.493,0,0,1-.2-1.5,3.334,3.334,0,0,1,.349-1.552,2.865,2.865,0,0,1,2.016-1.469,4.176,4.176,0,0,1,2.489.294,5.774,5.774,0,0,1,2.872,3.576,17.487,17.487,0,0,1,.6,1.871,5.968,5.968,0,0,1,.1,2.477,4.655,4.655,0,0,1-1.374,2.508,4.362,4.362,0,0,1-1.264.834,4.636,4.636,0,0,1-1.413.35,2.381,2.381,0,0,0-.469.061c.006.043-.044-.085,0,0,.032.013-.062.085-.147.306a3.553,3.553,0,0,0-.2.9,11.124,11.124,0,0,1-.323,1.719,4.693,4.693,0,0,1-1.219,2.1,4.171,4.171,0,0,1-2.3,1.112,5.812,5.812,0,0,1-3.794-.907,7.939,7.939,0,0,1-1.379-1.062,5.161,5.161,0,0,1-1.326-1.783,2.8,2.8,0,0,1,.826-3.393,3.115,3.115,0,0,1,1.652-.518l.832-.026a3.649,3.649,0,0,0,.431-.022,3.576,3.576,0,0,0,1.59-.57,2.824,2.824,0,0,1-1.123,2.014,4.5,4.5,0,0,1-.593.4,1.569,1.569,0,0,0-.272.263.553.553,0,0,0,.352.938.165.165,0,0,0,.093-.02c.02.007-.057-.038.084.121.723.936,1.919,1.521,2.493,1.294.322-.077.6-.385.794-.982a8.334,8.334,0,0,0,.236-.971,8.3,8.3,0,0,1,.295-1.186,3.7,3.7,0,0,1,1.629-2.125,3.068,3.068,0,0,1,1.319-.35,2.968,2.968,0,0,0,.811-.1,1.807,1.807,0,0,0,1.024-.892,2.351,2.351,0,0,0,.222-1.41,8.091,8.091,0,0,0-.4-1.621,10.994,10.994,0,0,0-.594-1.542,2.262,2.262,0,0,0-1.814-1.4.905.905,0,0,0-1.1.734,5.075,5.075,0,0,0,.027,1.124,12.317,12.317,0,0,1,.1,1.558,4.842,4.842,0,0,1-1.533,3.357A5.143,5.143,0,0,1,267.25,274.31Z"></path><path class="cls-2" d="M170.723,273.117c6.121-3.084,13.793,6.953,10.933,10.151C178.617,285.669,169.211,276.311,170.723,273.117Z"></path><path class="cls-2" d="M170.73,273.121a3.336,3.336,0,0,0-.062.961,5.318,5.318,0,0,0,.651,1.885,14.648,14.648,0,0,0,2.576,3.373,18.874,18.874,0,0,0,4.282,3.209,4.881,4.881,0,0,0,2.448.645,1,1,0,0,0,.833-.443,2.291,2.291,0,0,0,.321-1.062,7.266,7.266,0,0,0-1.416-4.03,12.93,12.93,0,0,0-2.9-3.1,8.468,8.468,0,0,0-3.445-1.629,5.564,5.564,0,0,0-3.228.318,4.873,4.873,0,0,1,3.44-.972,6.725,6.725,0,0,1,3.076,1.06,13.513,13.513,0,0,1,4.611,5.661,5.516,5.516,0,0,1,.447,3.316,1.618,1.618,0,0,1-.982,1.345,2.757,2.757,0,0,1-1.6.141,8.217,8.217,0,0,1-2.705-1.147,17,17,0,0,1-2.187-1.624,17.377,17.377,0,0,1-3.238-3.686,7.938,7.938,0,0,1-1.053-2.379,3.626,3.626,0,0,1-.087-1.176A2.185,2.185,0,0,1,170.73,273.121Z"></path><path class="cls-2" d="M266.185,258.548c4.878-2.458,10.993,5.541,8.714,8.09C272.477,268.552,264.98,261.094,266.185,258.548Z"></path><path class="cls-2" d="M266.192,258.552a3.308,3.308,0,0,0-.031.764,4.3,4.3,0,0,0,.527,1.49,11.47,11.47,0,0,0,2.062,2.668,15.317,15.317,0,0,0,3.415,2.517,3.822,3.822,0,0,0,1.9.5c.286-.04.52-.135.593-.314a1.743,1.743,0,0,0,.238-.8,5.744,5.744,0,0,0-1.115-3.149,10.309,10.309,0,0,0-2.282-2.456,6.752,6.752,0,0,0-2.7-1.307,4.425,4.425,0,0,0-2.55.215,3.76,3.76,0,0,1,2.741-.871,5.146,5.146,0,0,1,2.492.831,11.035,11.035,0,0,1,3.664,4.578,4.462,4.462,0,0,1,.352,2.67,2.3,2.3,0,0,1-.268.629,2.275,2.275,0,0,1-.227.285,2.142,2.142,0,0,1-.309.184,2.244,2.244,0,0,1-1.3.118,6.624,6.624,0,0,1-2.173-.915,14.241,14.241,0,0,1-4.341-4.244,6.152,6.152,0,0,1-.823-1.916,2.906,2.906,0,0,1-.053-.946A1.708,1.708,0,0,1,266.192,258.552Z"></path></g></svg>