<svg xmlns="http://www.w3.org/2000/svg" id="outfits_springbreak" viewBox="0 0 380 600"><defs transform="matrix(-1, 0, 0, 1, 380, 0)"><style>.cls-1{fill:#ffd635;}.cls-2{fill:#7eed56;}.cls-3{fill:#f9a;}.cls-4{fill:#ffa800;}.cls-5{fill:#5349da;}.cls-6{fill:#00cc78;}.cls-7{fill:#b44ac0;}.cls-8{fill:#811e9f;}.cls-9{fill:#ffe0c4;}.cls-10{fill:#fff8b8;}.cls-11{fill:#94b3ff;}.cls-12{fill:#dee6ff;}.cls-13{fill:#fcf0ff;}.cls-14{fill:#e4abff;}.cls-15{fill:none;}.cls-16{fill:#f60;}</style></defs><path d="M178.49,279.16c-.69,0-1.72-1.89-3.17-3.85a18.48,18.48,0,0,0-4.65-4.73,34.53,34.53,0,0,0-7.25-3.43,18,18,0,0,0-7.35-.93c-8.31.8-16.14,6.56-22.21,9.81a14.07,14.07,0,0,1,1.39-6.94c1-2.15,2.47-3.81,3.55-4.23a61.8,61.8,0,0,1,12.32-3.62,27.55,27.55,0,0,1,11,.27c6.74,1.6,12.06,5.55,14.67,10.16a8.09,8.09,0,0,1,.88,2,12.21,12.21,0,0,1,.55,2.28A16.9,16.9,0,0,1,178.49,279.16Z" transform="matrix(-1, 0, 0, 1, 380, 0)" /><ellipse class="cls-1" cx="109.48" cy="271.11" rx="37.45" ry="30.41" transform="matrix(-1, 0, 0, 1, 380, 0) translate(-180.46 308.8) rotate(-75.42)" /><path d="M135.85,287a5.89,5.89,0,0,1,.38-1.94c.15-.5.34-1.07.56-1.72s.37-1.4.58-2.2A49.26,49.26,0,0,0,139.12,269a39.81,39.81,0,0,0-2.19-13.76,28.59,28.59,0,0,0-5.55-9.69,25.62,25.62,0,0,0-12.5-7.79,24.46,24.46,0,0,0-7.44-.57c-.63,0-1.25.18-1.87.26l-.94.14c-.31.07-.61.17-.92.25l-1.83.5-1.79.69a12,12,0,0,0-1.75.8c-.56.3-1.15.55-1.7.89a30.07,30.07,0,0,0-3.2,2.18,35.06,35.06,0,0,0-5.59,5.37,41.89,41.89,0,0,0-7.22,38.92,29.32,29.32,0,0,0,6.1,10.37,23,23,0,0,0,9.47,6.21,22.62,22.62,0,0,0,10.88.78,29.11,29.11,0,0,0,10.07-3.77,41.91,41.91,0,0,0,13.73-14.26,30.65,30.65,0,0,1-3.42,9.63,33.51,33.51,0,0,1-7.87,9.49,28.59,28.59,0,0,1-10.77,5.63c-.45.12-.89.27-1.34.36l-1.31.21a16.93,16.93,0,0,1-2.46.29,18,18,0,0,1-4-.19,29.39,29.39,0,0,1-12.08-4.82,31.19,31.19,0,0,1-8.44-8.8,37.6,37.6,0,0,1-4.71-10.48A47.43,47.43,0,0,1,76.84,277a49.26,49.26,0,0,1,3.86-20.17l1-2.29,1.16-2.18.57-1.09c.2-.35.44-.69.66-1l1.31-2.05A41.86,41.86,0,0,1,91.7,241a33.53,33.53,0,0,1,16.24-8.37,27.31,27.31,0,0,1,4.49-.44,25.39,25.39,0,0,1,4.45.24,26.2,26.2,0,0,1,8.27,2.66,29.29,29.29,0,0,1,6.86,4.85l1.4,1.51a13.76,13.76,0,0,1,1.32,1.54,31.09,31.09,0,0,1,2.27,3.29,36.64,36.64,0,0,1,4.86,14.24,26.25,26.25,0,0,1,.3,3.69,33.44,33.44,0,0,1-.11,4.1,15,15,0,0,1-.24,2.1l-.32,2.1c-.27,1.39-.64,2.74-1,4s-.86,2.5-1.25,3.65-.95,2.13-1.36,3.05C137,285,136.21,286.3,135.85,287Z" transform="matrix(-1, 0, 0, 1, 380, 0)" /><ellipse class="cls-1" cx="211.28" cy="281.74" rx="39.77" ry="39.84" transform="matrix(-1, 0, 0, 1, 380, 0) translate(-117.98 406.67) rotate(-73.91)" /><path d="M249.5,292.76a7.42,7.42,0,0,1,.11-2.29c.06-.61.22-1.3.28-2.09s.13-1.68.2-2.65a41.59,41.59,0,0,0-1.62-14.14,39,39,0,0,0-7.77-14.26,34.15,34.15,0,0,0-10.35-8.17,38.27,38.27,0,0,0-35.13-.16,36.64,36.64,0,0,0-7.61,5.18,34.15,34.15,0,0,0-3.22,3.26c-.49.59-1,1.14-1.48,1.75l-1.32,1.86c-.21.31-.45.6-.64.93l-.56,1-1.12,2-.92,2.06a15.41,15.41,0,0,0-.83,2.07,32.42,32.42,0,0,0-1.23,4.27c-.15.72-.33,1.44-.46,2.16l-.25,2.17a36.64,36.64,0,0,0,20.36,36.56,37.46,37.46,0,0,0,38.57-3.4,40.92,40.92,0,0,0,8.62-8.5,44.79,44.79,0,0,0,5.33-9.86,32.23,32.23,0,0,1-2.8,11.54,37.73,37.73,0,0,1-20.18,19l-.73.31-.73.23-1.43.44a19.69,19.69,0,0,1-2.68.7c-.86.15-1.66.29-2.41.4-.37,0-.73.11-1.07.14l-1,0c-1.25,0-2.49.07-3.72,0l-3.67-.31c-1.21-.19-2.4-.43-3.58-.64l-.89-.17-.86-.25-1.72-.49a44,44,0,0,1-12.54-6,45.64,45.64,0,0,1-9.65-9.19,42.94,42.94,0,0,1-6.2-11.19c-.34-1-.75-2-1-3l-.78-3c-.23-1-.34-2-.51-3-.07-.5-.18-1-.22-1.51l-.1-1.52-.09-1.52a9.5,9.5,0,0,1,0-1.51l.11-3c0-1,.24-2,.35-2.95l.2-1.46c.09-.49.22-1,.33-1.44l.68-2.84.94-2.75c.17-.45.3-.92.49-1.36l.6-1.3c.41-.87.77-1.75,1.22-2.58a43.2,43.2,0,0,1,3-4.78c.57-.74,1-1.55,1.69-2.23l1.83-2.08a41.68,41.68,0,0,1,8.4-6.84,43.13,43.13,0,0,1,4.66-2.54c.79-.39,1.63-.66,2.43-1a22.57,22.57,0,0,1,2.46-.88,41.23,41.23,0,0,1,37.12,6.23,39.85,39.85,0,0,1,11.42,13.26c.61,1.2,1.22,2.54,1.83,3.95.24.73.49,1.48.75,2.24a18.57,18.57,0,0,1,.66,2.35l.52,2.43c.19.81.21,1.66.32,2.48s.21,1.64.21,2.46v3.58L252,282l-.23,2.18a15.27,15.27,0,0,1-.36,2L251,288l-.19.83-.24.75c-.17.48-.31.93-.45,1.33Z" transform="matrix(-1, 0, 0, 1, 380, 0)" /><ellipse class="cls-2" cx="110.27" cy="270.92" rx="29.73" ry="24.13" transform="matrix(-1, 0, 0, 1, 380, 0) translate(-179.48 310.99) rotate(-75.73)" /><path d="M131.29,283.39a6.67,6.67,0,0,1,.4-1.49l.48-1.36.5-1.74a37.86,37.86,0,0,0,1.48-9.68,32.28,32.28,0,0,0-1.72-11.07,23.93,23.93,0,0,0-4.43-7.89,20.7,20.7,0,0,0-10.18-6.55,20.11,20.11,0,0,0-6.19-.53c-.52,0-1,.14-1.56.2l-.78.12c-.26,0-.51.13-.77.19L107,244l-1.48.56a10.55,10.55,0,0,0-1.45.66c-.47.25-1,.45-1.42.73a28,28,0,0,0-2.65,1.79,28.85,28.85,0,0,0-4.62,4.42,33.76,33.76,0,0,0-6,11.08,33.21,33.21,0,0,0,.1,20.93,24,24,0,0,0,5.19,8.59,19.1,19.1,0,0,0,8,5.1,18.9,18.9,0,0,0,9.13.47,23.78,23.78,0,0,0,8.21-3.3,32.94,32.94,0,0,0,10.71-11.87,27,27,0,0,1-3.24,7.32,27.53,27.53,0,0,1-6.4,7.07,22.74,22.74,0,0,1-8.31,4.11c-.35.09-.68.21-1,.27l-1,.15a14.21,14.21,0,0,1-1.86.22,16.09,16.09,0,0,1-3-.11,22,22,0,0,1-9.22-3.42,23.61,23.61,0,0,1-6.62-6.59,29,29,0,0,1-3.8-8.05,36.35,36.35,0,0,1-1.37-8.43,37.71,37.71,0,0,1,2.87-15.83l.76-1.8.9-1.71a34.81,34.81,0,0,1,2-3.28,32.13,32.13,0,0,1,4.92-5.64A26.1,26.1,0,0,1,109,240.91a22.6,22.6,0,0,1,6.91-.15,20.39,20.39,0,0,1,6.38,2.05,23,23,0,0,1,5.3,3.73c.71.79,1.49,1.52,2.11,2.35a23.65,23.65,0,0,1,1.77,2.54,29.08,29.08,0,0,1,3.88,11,32.6,32.6,0,0,1-.7,12.58l-.88,2.9-1,2.44C132.12,281.82,131.55,282.87,131.29,283.39Z" transform="matrix(-1, 0, 0, 1, 380, 0)" /><polygon class="cls-3" points="110.73 269.86 124.74 258.42 135.6 266.96 123.94 277.89 110.73 269.86" transform="matrix(-1, 0, 0, 1, 380, 0)" /><path d="M110.74,269.84c.6,0,8.5,4.82,11.64,6.52.55.3,1.36.76,1.48.8L124,277l.07-.07.15-.15.68-.69,1.4-1.4,2.87-2.82,2.91-2.82,1.45-1.4.6-.58,0,0-.05,0-.6-.46-4.78-3.72L126.4,261l-1.14-.91-.49-.39,0,0-3.41,2.67-3.79,2.9c-2.44,1.84-4.68,3.48-6.64,4.86a57.35,57.35,0,0,1,8.53-8.6l2.49-1.8,1.21-.89.63-.47,1-.74,3.2,2.68,2.71,2.25,2.64,2.13,2.9,2.3c-5.1,4.77-8,7.64-12.18,11.63l-3.66-2.21c-1.07-.65-2.09-1.29-3.08-1.93C115.07,273.05,111.44,270.38,110.74,269.84Z" transform="matrix(-1, 0, 0, 1, 380, 0)" /><polygon class="cls-4" points="107.85 288.52 120.56 292.76 123.94 277.89 110.73 269.86 107.85 288.52" transform="matrix(-1, 0, 0, 1, 380, 0)" /><path d="M107.83,288.52c-.23-.55,1.19-9.64,1.55-13.18.1-.89.2-1.79.3-2.72l.17-1.44.34-2.49,7.11,4.14,6.14,3.63,1.61,1c-.34,1.52-.68,3-1,4.53l-.87,3.78c-.68,2.8-1.34,5.54-2,8.17l-2.7-1-1.73-.63-3.28-1.24c-2.1-.81-4-1.58-5.73-2.29a56,56,0,0,1,11.76,2.6c.09,0,.27.1.29.12l0,0,.08.07a.24.24,0,0,0,.08-.09l.26-.92.54-1.93,1-3.76c.32-1.23.62-2.44.92-3.62s.52-2.16.78-3.21l-3.3-2-3.39-2-3.24-1.92-2.45-1.43-.09.73-.2,1.42-.41,2.77c-.28,1.8-.55,3.53-.85,5.17C109.13,283.32,108.06,287.67,107.83,288.52Z" transform="matrix(-1, 0, 0, 1, 380, 0)" /><polygon class="cls-5" points="96.15 278.99 96.12 294.53 107.85 288.52 110.73 269.86 96.15 278.99" transform="matrix(-1, 0, 0, 1, 380, 0)" /><path d="M96.14,279c.28-.55,8.31-5.56,11.3-7.65l.71-.49.89-.6,2.54-1.67c-.42,3.16-.85,6.45-1.29,9.76-.4,2.83-.8,5.67-1.19,8.4l-.36,2.44-6.44,3.31L95.2,296c0-1.25,0-2.49,0-3.71,0-.72,0-1.44.06-2.14q.07-2.12.15-4.08c.11-2.61.25-5,.4-7.1a59.37,59.37,0,0,1,1.24,12.32L97,292.9a1.59,1.59,0,0,0-.09.33l.15,0,.1,0,.06,0h0l.1,0,1.56-.72,3-1.42,2.92-1.41,2.62-1.29c.26-1.68.52-3.3.77-4.88s.48-3.24.71-4.8.44-3.06.65-4.53c.1-.72.2-1.44.3-2.14l.12-1-1,.67-2,1.23q-1.92,1.2-3.73,2.28C101.06,276.48,97,278.58,96.14,279Z" transform="matrix(-1, 0, 0, 1, 380, 0)" /><polygon class="cls-6" points="87.27 272.1 95.5 261.97 110.73 269.86 96.15 278.99 87.27 272.1" transform="matrix(-1, 0, 0, 1, 380, 0)" /><path d="M87.28,272.09a25.46,25.46,0,0,1,3.61,2.45l2.88,2.14,1.4,1,.65.48.36.24.64-.46c2.08-1.46,4.31-3,6.59-4.47l3.43-2.25,1.71-1.1.21-.14,0,0,0,0,0,0-.09,0h0l-.1,0-.53-.27c-2.27-1.14-4.52-2.29-6.71-3.44l-3.22-1.71-1.57-.84-.77-.42a.74.74,0,0,1-.12-.08l-4.17,4.76c-1.47,1.64-2.83,3.13-4.06,4.42a48.74,48.74,0,0,1,6-9.45l.66-.71,1.07-1.22c6.9,4,10.16,5.79,16.24,8.93l-15.4,9.84-1.85-1.46L92.79,277C90.91,275.52,87.87,272.66,87.28,272.09Z" transform="matrix(-1, 0, 0, 1, 380, 0)" /><polygon class="cls-7" points="100.29 248.59 95.5 261.97 110.73 269.86 110.32 250.7 100.29 248.59" transform="matrix(-1, 0, 0, 1, 380, 0)" /><path d="M100.29,248.57a21.83,21.83,0,0,1,3.73.53l6.7,1.26.08,1.72.07,1.15c.19,2.61.35,5.39.47,8.2l.18,4.23c.06,1.94.12,3.86.18,5.75L108,269.52c-2.25-1.12-4.47-2.27-6.64-3.4l-7-3.71c.33-.89.66-1.76,1-2.63l.71-1.83c.48-1.19.94-2.35,1.39-3.46.9-2.21,1.76-4.23,2.55-6a52.33,52.33,0,0,1-2.71,11.31l-.53,1.25c-.24.56-.2.39-.28.53l.08.07,0,0,.25.15,1,.58,2,1.13,3.83,2.13,3.69,2,3,1.55c-.12-3.41-.22-6.6-.32-9.59q-.08-2.38-.15-4.62c0-1.33-.06-2.62-.09-3.86l-2.12-.49C105.23,250.11,101.1,248.84,100.29,248.57Z" transform="matrix(-1, 0, 0, 1, 380, 0)" /><polygon class="cls-8" points="123.46 245.16 110.32 250.7 110.73 269.86 124.74 258.42 123.46 245.16" transform="matrix(-1, 0, 0, 1, 380, 0)" /><path d="M123.47,245.16a37.51,37.51,0,0,1,.81,5.35l.49,4.25c.18,1.48.35,2.84.48,3.87l-.36.31-3.31,2.93-3.38,2.92-3.45,2.92-4.91,4.08c0-1.62-.09-3.14-.13-4.64-.1-2.84-.17-5.67-.21-8.42,0-3-.06-5.85-.08-8.62l2.43-1,1.83-.71,3.49-1.32c2.25-.84,4.33-1.58,6.18-2.21a59.65,59.65,0,0,1-10.87,5.95l-.93.33-.23.08s0,0,0,0h-.08l0,.09,0,.64,0,1.29c0,.86,0,1.71,0,2.54,0,1.68,0,3.32,0,4.91s0,3.15,0,4.67q0,1.88.06,3.66l13.06-10.88c-.07-.8-.15-1.57-.22-2.33s-.13-1.7-.2-2.53C123.52,250.68,123.47,246.07,123.47,245.16Z" transform="matrix(-1, 0, 0, 1, 380, 0)" /><polygon class="cls-9" points="120.09 262.21 110.73 269.86 119.24 275.04 119.26 275.03 120.09 262.21" transform="matrix(-1, 0, 0, 1, 380, 0)" /><path d="M120.11,262.22c.29.3,0,5.39,0,7.36,0,.87,0,1.77,0,2.69V273l0,.85,0,.63,0,.31v.16l0,.1-.17.4a.82.82,0,0,1-.18.34,4.31,4.31,0,0,1-.79,0,.56.56,0,0,1-.21,0l-.27-.16-.57-.33-1.41-.82L114,273l-1.92-1.14L109,270l2.45-2,1.33-1c.88-.67,1.74-1.31,2.58-1.91,1.66-1.21,3.2-2.25,4.54-3.08a17.93,17.93,0,0,1-4.34,5.18c-.81.52-1.59,1-2.34,1.55-.36.25-.71.5-1.06.73l-.54.34c.15.13.34.26.54.41l1.14.74,2.22,1.39,2.13,1.27.76.44.28.16.14.07s0-.09,0-.13v-.63l0-1c0-.73.07-1.43.1-2.11.07-1.37.16-2.65.29-3.87A36.37,36.37,0,0,1,120.11,262.22Z" transform="matrix(-1, 0, 0, 1, 380, 0)" /><polygon class="cls-10" points="108.78 282.48 119.24 275.04 110.73 269.86 108.78 282.48" transform="matrix(-1, 0, 0, 1, 380, 0)" /><path d="M108.77,282.48c-.27-.34.54-5.47.66-7.48q.09-1.26.21-2.58c0-.48.11-1,.16-1.44.1-.81.21-1.63.32-2.45l6.21,3.6,1.73,1,3,1.81-2.75,1.93-1.48,1c-1,.65-1.94,1.27-2.86,1.86-1.85,1.16-3.56,2.16-5,2.94a18.46,18.46,0,0,1,4.78-4.95c.94-.52,1.84-1,2.72-1.57l1.25-.76c.19-.09.41-.22.64-.36l-.55-.4-1.05-.68-2.17-1.35c-1.34-.81-3.06-1.82-3.5-2.05,0,.57-.28,2.38-.47,3.68s-.39,2.66-.63,3.87A42.07,42.07,0,0,1,108.77,282.48Z" transform="matrix(-1, 0, 0, 1, 380, 0)" /><polygon class="cls-11" points="99.44 276.93 99.65 277.4 108.77 282.49 108.78 282.48 110.73 269.86 99.44 276.93" transform="matrix(-1, 0, 0, 1, 380, 0)" /><path d="M99.44,276.91c.08-.42,4.68-3.29,6.35-4.54.7-.53,1.44-1.07,2.19-1.6l.61-.43,1-.68,2.19-1.43c-.36,2.66-.73,5.35-1.07,7.9-.21,1.59-.45,3.17-.7,4.72-.05.19-.17,1.27-.34,1.85l-.22.35c-.07.11-.14.24-.21.27s-.23,0-.34,0l-.37,0h-.18a.33.33,0,0,1-.21-.07l-.48-.28-.79-.45-1-.58c-1.24-.75-2.42-1.5-3.51-2.21l-1.56-1-1.49-1q-.15-.4-.21-.6a5.5,5.5,0,0,1,.4.42,20.32,20.32,0,0,1,6.25,2.27l2,1.35a.47.47,0,0,1,.13.1l.07.06.16.15c.17.19.18,0,.23-.13l.06-.22,0-.06,0-.14.06-.27.21-1.07c.13-.71.26-1.41.39-2.09.24-1.36.45-2.68.63-4,.08-.59.17-1.16.24-1.72l.12-1-1.13.77-1.86,1.22c-1.22.78-2.37,1.5-3.49,2.13A40.46,40.46,0,0,1,99.44,276.91Z" transform="matrix(-1, 0, 0, 1, 380, 0)" /><polygon class="cls-12" points="99.96 264.28 99.17 276.31 99.44 276.93 110.73 269.86 99.96 264.28" transform="matrix(-1, 0, 0, 1, 380, 0)" /><path d="M100,264.27c.41-.14,5.36,2.43,7.35,3.26l1.84.79,1.38.65,1.7.83c-2.58,1.69-5.25,3.46-7.75,5.11-1.52,1-3,1.95-4.52,2.85l-1,.61-.45-1.05-.36-.83c0-.66.11-1.32.16-2s.11-1.13.16-1.68c.11-1.09.23-2.16.35-3.17.25-2,.53-3.86.82-5.42a21.08,21.08,0,0,1,.79,7.33q-.19,1.26-.39,2.43c-.1.75-.21,1.48-.3,2.19a5,5,0,0,0,.17.49l-.79-.24c2.21-1.22,4.23-2.44,6.1-3.62L108,271.1l1.17-.78.62-.42-1-.48-1.67-.84C106,268,105,267.49,104,266.94A43.76,43.76,0,0,1,100,264.27Z" transform="matrix(-1, 0, 0, 1, 380, 0)" /><polygon class="cls-13" points="110.45 256.81 110.45 256.81 99.96 264.26 99.96 264.28 110.73 269.86 110.45 256.81" transform="matrix(-1, 0, 0, 1, 380, 0)" /><path d="M110.47,256.81c.32.3.42,5.86.65,8,.08.79.16,1.62.22,2.46l0,.63,0,.92c0,.78.07,1.56.11,2.35l-7.48-3.67-2.28-1.15-1.4-.72-.56-.29-.28-.15c-.1-.05-.09-.1-.13-.15l-.41-.63c-.14-.19.11-.42.22-.66s.09-.23.24-.35l.51-.35,1.37-.95,2-1.31c2.59-1.69,5-3.15,7-4.22l.19-.1.12.09h0l-.26,0,0,.05a21,21,0,0,1-5.16,5.22c-.76.43-1.49.86-2.21,1.28l-1.06.64-.22.14-.11,0-.24.13-.27.15c0,.06.1.09.15.14s.28.19.5.32l2,1.09c1.31.71,2.57,1.36,3.78,2l1.8.9,1,.49,0-.62,0-.83c0-.73-.06-1.43-.08-2.12,0-1.37-.07-2.68,0-3.92A41.86,41.86,0,0,1,110.47,256.81Z" transform="matrix(-1, 0, 0, 1, 380, 0)" /><polygon class="cls-14" points="120.09 262.21 120.09 262.19 110.45 256.81 110.73 269.86 120.09 262.21" transform="matrix(-1, 0, 0, 1, 380, 0)" /><path d="M120.1,262.23c0,.43-4.13,3.76-5.59,5.19l-1.59,1.5-.59.53-.75.64L110,271.46c-.12-2.86-.25-5.8-.37-8.56,0-1-.07-2.07-.1-3.08,0-1.6-.06-3.16-.08-4.69l2.72,1.55,1.45.87c.86.53,1.69,1,2.48,1.55,1.57,1,3,2,4.14,2.84l.18.12,0,.15v0l-.08-.25h-.06a19.25,19.25,0,0,1-6.6-2.25l-1.76-1.22-.21-.15a.45.45,0,0,1-.09-.07l-.13-.12-.36-.29a4.63,4.63,0,0,0-.09.77c0,.6,0,1.19,0,1.76,0,1.16,0,2.29,0,3.37s.07,2.13.1,3.15l0,1.24.05.74.8-.72c.51-.42,1-.83,1.47-1.24,1-.8,1.89-1.54,2.8-2.22A38.86,38.86,0,0,1,120.1,262.23Z" transform="matrix(-1, 0, 0, 1, 380, 0)" /><path class="cls-2" d="M216.45,249.63a31.68,31.68,0,1,0,27.11,35.71A31.71,31.71,0,0,0,216.45,249.63Zm22.87,44.76-16.67,4.48-8.15,12.65-11.28-13.35-14.5-.23L190.13,284l-4.63-14.53,12.25-4.6,10-13.15,11,10.55,17.82.39-4.5,16.83Z" transform="matrix(-1, 0, 0, 1, 380, 0)" /><path class="cls-15" d="M216.45,249.63a31.68,31.68,0,1,0,27.11,35.71A31.71,31.71,0,0,0,216.45,249.63Zm22.87,44.76-16.67,4.48-8.15,12.65-11.28-13.35-14.5-.23L190.13,284l-4.63-14.53,12.25-4.6,10-13.15,11,10.55,17.82.39-4.5,16.83Z" transform="matrix(-1, 0, 0, 1, 380, 0)" /><path d="M239.3,294.41a34.83,34.83,0,0,1-2.68-4.7l-2.34-4.56c-.88-1.75-1.84-3.65-2.82-5.61l2.26-8.91,1.08-4.24.45-1.81.26-1.1-5,0-5.81.05h-6.49l-5.94-5.47-2.82-2.6-1.24-1.15-.29-.23-.22.34L206.58,256l-2.47,3.33-5.24,7-6.68,2.56-3,1.17-1.23.48-.06,0,0,.08.49,1.52c1.26,3.88,2.51,7.75,3.75,11.58-.42,4.12-.83,8.2-1.24,12.21l13.19.32,6.23,7.54,2.73,3.35.68.83.29.36.05.08.24.34.24-.28.06-.08,0-.05.13-.2.55-.8,2.14-3.16,4.39-6.43,2.75-.67,2.24-.52,4.32-1,8-1.78c-2.09,1-4.64,2-7.42,3.07l-4.31,1.61-2.22.81a15.06,15.06,0,0,0-1.76.66l-.08.18,0,.09-.13.23-.5.91-1,1.79c-.67,1.19-1.34,2.35-2,3.46l-1.88,3.17c-.16.29-.94,1.53-1.48,2.38l-1.68,2.66L212,311.64l-1-1.16-.51-.64-8-10.23-.28,0-.92-.05-1.85-.08-3.65-.16-3.6-.14-4.7-.16c.59-5.1,1.16-10.08,1.72-14.9L187,276.85q-1.26-4-2.47-7.86l12.71-4.8,10.4-13.84,11.56,10.87,8.71.14,10.12.21c-.58,2.13-1.16,4.23-1.72,6.3L235,272.65c-.29,1-.6,2.07-.94,3.25l-.54,1.83-.29,1-.23.7c1.3,3,2.68,6.3,3.84,9S238.92,293.5,239.3,294.41Z" transform="matrix(-1, 0, 0, 1, 380, 0)" /><path d="M216.45,249.6a9.53,9.53,0,0,1,1.82.13c.48.07,1.06.12,1.7.26l2.1.55A31.41,31.41,0,0,1,232.54,256a32.65,32.65,0,0,1,12.07,21.36A31.57,31.57,0,0,1,243,293l-.74,1.92c-.28.62-.62,1.23-.92,1.84a32.33,32.33,0,0,1-2.13,3.57,32.82,32.82,0,0,1-5.64,6.2,33.17,33.17,0,0,1-7,4.65,32.42,32.42,0,0,1-3.92,1.58c-.67.21-1.33.47-2,.64l-2.06.46a14.67,14.67,0,0,1-2.07.35l-2.09.25-2.09.05a14.42,14.42,0,0,1-2.08,0,29.38,29.38,0,0,1-4.11-.48c-.68-.12-1.35-.23-2-.38l-2-.56A33,33,0,0,1,181.5,295a32.86,32.86,0,0,1-3-13.22A33.48,33.48,0,0,1,180.9,269a32.52,32.52,0,0,1,16-17.19,33.13,33.13,0,0,1,10.14-3,34.51,34.51,0,0,1,9.48.28,44.12,44.12,0,0,0-9.28,1.22,34.92,34.92,0,0,0-9.61,4.18,32.88,32.88,0,0,0-7.33,6.28,20.15,20.15,0,0,0-1.31,1.61,15.85,15.85,0,0,0-1.12,1.51l-.93,1.37-.41.61-.34.58c-.41.73-.89,1.44-1.25,2.2l-1.06,2.31c-.29.79-.54,1.59-.81,2.38a6.62,6.62,0,0,0-.34,1.21l-.28,1.23a29.78,29.78,0,0,0-.44,9.86,31.43,31.43,0,0,0,2.76,9.25,30.12,30.12,0,0,0,5.41,7.72,28.85,28.85,0,0,0,7.27,5.57,22.47,22.47,0,0,0,2,1l2.07.86c.69.27,1.41.44,2.12.67l1.06.31c.36.09.72.14,1.08.22l2.15.4,2.17.19c.36,0,.71.08,1.07.08l1.08,0c.71,0,1.43,0,2.13-.06a31.75,31.75,0,0,0,4.17-.63c.68-.17,1.38-.26,2-.49l2-.65a30.34,30.34,0,0,0,7.14-3.75,30.74,30.74,0,0,0,3.08-2.46c.49-.42.92-.92,1.37-1.37a13.33,13.33,0,0,0,1.3-1.42A30.84,30.84,0,0,0,242,287.92a31.54,31.54,0,0,0,0-13.68,32,32,0,0,0-5.28-11.64l-2-2.49-1.21-1.26a12.93,12.93,0,0,0-1.3-1.26l-1.39-1.22a18.22,18.22,0,0,0-1.49-1.13c-.51-.35-1-.76-1.52-1.07l-1.58-.93-.77-.46-.79-.37-1.53-.72c-1-.47-2-.73-2.83-1.07a8.45,8.45,0,0,0-1.23-.37L218,250Z" transform="matrix(-1, 0, 0, 1, 380, 0)" /><polygon class="cls-3" points="212.15 281.02 218.79 262.26 236.61 262.65 232.11 279.48 212.15 281.02" transform="matrix(-1, 0, 0, 1, 380, 0)" /><path d="M212.15,281c.58-.36,11.53-1.2,15.73-1.7l2-.24L231,279a5.61,5.61,0,0,0,.64-.08c0-.06.22-1,.37-1.62l.51-2.1,1.06-4.26,1.84-7.32h-.94l-8-.14-3.89-.1-1.91-.06-.94,0h-.25l-1.74,4.61-1.88,4.89c-1.22,3.12-2.37,5.95-3.41,8.4a79.42,79.42,0,0,1,3.57-13.9l1.09-2.64.52-1.29.27-.67.41-1.09c7.67.42,12.16.6,18.82.75l-2.43,9.31L232.52,280l-5.83.48c-1.76.13-3.45.25-5.08.34C218.54,281,213.2,281,212.15,281Z" transform="matrix(-1, 0, 0, 1, 380, 0)" /><polygon class="cls-4" points="222.66 298.88 239.32 294.39 232.11 279.48 212.15 281.02 222.66 298.88" transform="matrix(-1, 0, 0, 1, 380, 0)" /><path d="M222.64,298.88c-.58-.36-6.09-9.75-8.37-13.28L213,283.55l-.77-1.23L211,280.44l10.3-1,9.25-.82,2.13-.18,4,8.23,3.92,8.3-3.43.88-2.31.56-4.41,1c-2.83.65-5.43,1.22-7.73,1.69a78,78,0,0,1,13.36-4.9l1.54-.33.19,0,.12,0h.21a1,1,0,0,0,0-.2l-.4-.94-.87-2c-.59-1.31-1.16-2.6-1.73-3.85l-1.7-3.7-1.54-3.29-5.13.38-5.12.43-8.6.77,1.12,1.85,1.48,2.49c1,1.62,1.86,3.2,2.72,4.72C219.86,293.19,222.2,297.94,222.64,298.88Z" transform="matrix(-1, 0, 0, 1, 380, 0)" /><polygon class="cls-5" points="203.22 298.17 214.5 311.52 222.66 298.88 212.15 281.02 203.22 298.17" transform="matrix(-1, 0, 0, 1, 380, 0)" /><path d="M203.2,298.17c0-.67,4.9-10.07,6.63-13.77l.84-1.79,1.44-2.92,5.55,9c1.65,2.74,3.31,5.48,4.9,8.1l1.25,2.1-4.49,7-4.72,7.18-2.37-2.88c-.52-.63-1-1.26-1.52-1.88l-2.85-3.59c-1.82-2.32-3.45-4.45-4.86-6.35a74.19,74.19,0,0,1,9.87,9.72l1.13,1.5.28.36,0,.07.1.19a26,26,0,0,0,1.7-2.35l2.17-3.15,3.91-5.83-2.72-4.65-2.73-4.57-4.56-7.54c-.2.42-1.24,2.44-2,3.86s-1.56,3-2.32,4.35C206.48,292.94,203.75,297.31,203.2,298.17Z" transform="matrix(-1, 0, 0, 1, 380, 0)" /><polygon class="cls-6" points="188.72 297.94 190.13 284 212.15 281.02 203.22 298.17 188.72 297.94" transform="matrix(-1, 0, 0, 1, 380, 0)" /><path d="M188.72,297.92a45,45,0,0,1,5.92-.19h6.81l.94,0h.33l.2,0,.06-.12c0-.1.24-.54.39-.86l.49-1.05,1-2.11,2.11-4.31c.73-1.45,1.45-2.91,2.17-4.35.37-.72.73-1.44,1.09-2.16l.14-.27.07-.15,0,0,0-.07-.11,0h0l-.37,0-.74.11c-3.29.48-6.58.93-9.77,1.34l-4.71.59-2.29.27-1.12.13-.28,0h-.15c-.33,2.4-.64,4.69-.93,6.82-.33,2.33-.66,4.47-1,6.39a61.87,61.87,0,0,1-.27-7.16c0-1.28.05-2.52.11-3.6,0-.54.07-1,.11-1.48l.07-.62.08-.62.17-1.33c10-.88,15.18-1.48,23.56-2.62q-1.41,2.76-2.75,5.35l-2.25,4.43-4.28,8.42-3.25-.06-2.78-.09C194.65,298.51,189.69,298,188.72,297.92Z" transform="matrix(-1, 0, 0, 1, 380, 0)" /><polygon class="cls-7" points="185.5 269.46 190.13 284 212.15 281.02 197.75 264.86 185.5 269.46" transform="matrix(-1, 0, 0, 1, 380, 0)" /><path d="M185.5,269.44a34.72,34.72,0,0,1,4.53-2l7.85-3.11,1,1,.68.7c2.14,2.21,4.38,4.59,6.63,7l3.37,3.66,4.48,4.94-5,.71c-3.25.47-6.47.92-9.62,1.33L189.52,285l-.83-2.76-.58-2c-.38-1.32-.74-2.6-1.09-3.84-.68-2.47-1.28-4.76-1.79-6.8a73.41,73.41,0,0,1,5.37,12.7l.1.38.05.19,0,.1h0a.64.64,0,0,0,0,.09c6.35-.43,15.79-1.61,20.63-2.27l-7.26-8q-1.83-2-3.52-3.87l-3-3.35-3.41,1.23C191.4,267.75,186.47,269.18,185.5,269.44Z" transform="matrix(-1, 0, 0, 1, 380, 0)" /><polygon class="cls-8" points="207.76 251.71 197.75 264.86 212.15 281.02 218.79 262.26 207.76 251.71" transform="matrix(-1, 0, 0, 1, 380, 0)" /><path d="M207.77,251.7a49.38,49.38,0,0,1,4.72,4.12l3.61,3.33,3.25,3-.08.24q-.74,2.34-1.51,4.79l-1.54,4.71-1.59,4.76c-.72,2.08-1.43,4.15-2.13,6.19l-3.37-3.73c-2.11-2.33-4.2-4.66-6.22-6.94l-6.32-7.25,1.91-2.42,1.42-1.78,2.73-3.36c1.76-2.14,3.41-4.09,4.89-5.8a76,76,0,0,1-7.45,11.86,14.67,14.67,0,0,1-1.25,1.41c3.88,4.92,9.88,11.81,13.16,15.47,2.29-6.66,4.33-12.59,6.14-17.87l-2-1.89-2.11-2.07C211.92,256.35,208.45,252.48,207.77,251.7Z" transform="matrix(-1, 0, 0, 1, 380, 0)" /><polygon class="cls-9" points="216.58 268.49 212.15 281.02 225.01 280.03 225.02 280.01 216.58 268.49" transform="matrix(-1, 0, 0, 1, 380, 0)" /><path d="M216.6,268.48c.44.08,3.93,4.86,5.42,6.59.66.77,1.32,1.57,2,2.4l.5.62.84,1.09c.37.66.57,1.3-.14,1.51l-.19.11-.09.06a.5.5,0,0,1-.18,0L224,281l-1.14.11-1.62.17-3.18.3-3,.26-4.41.34,1.17-3.22.66-1.73c.44-1.14.88-2.23,1.31-3.27.87-2.09,1.7-4,2.46-5.52a24,24,0,0,1-1.37,7.68c-.42.89-.82,1.76-1.19,2.62l-.28.64-.14.32-.06.14,0,.06c-.08.15-.17.34-.27.55l.35,0h.48l1.64-.07,3.14-.2,3-.24,1.42-.13.88-.1c.1,0,.28,0,.31-.06l-.24-.3-.5-.64-1.53-2q-1.48-2-2.71-3.76A48.37,48.37,0,0,1,216.6,268.48Z" transform="matrix(-1, 0, 0, 1, 380, 0)" /><polygon class="cls-10" points="219.25 293.1 225.01 280.03 212.15 281.02 219.25 293.1" transform="matrix(-1, 0, 0, 1, 380, 0)" /><path d="M219.24,293.1c-.44-.13-3.48-5.32-4.81-7.22L213,283.71l-.37-.56-.46-.71-1.29-2.1,8.89-.87,2.62-.24,4.24-.32-1.51,3.38-.85,1.8c-.56,1.19-1.11,2.33-1.66,3.41-1.08,2.17-2.12,4.11-3.06,5.71a24.65,24.65,0,0,1,2-7.68q.82-1.48,1.59-2.91l.7-1.35c.11-.18.24-.41.38-.66-.27,0-.5,0-.92,0l-1.73.09-3.3.23-3.12.27-1.43.13-.76.09c.32.47,1.33,2.12,2,3.32s1.46,2.46,2.08,3.62A52,52,0,0,1,219.24,293.1Z" transform="matrix(-1, 0, 0, 1, 380, 0)" /><polygon class="cls-11" points="205.24 294.3 205.8 294.57 219.25 293.11 219.25 293.1 212.15 281.02 205.24 294.3" transform="matrix(-1, 0, 0, 1, 380, 0)" /><path d="M205.22,294.29c-.12-.45,2.81-6,3.77-8.27q.56-1.29,1.17-2.64l.31-.67.42-.87,1.22-2.45,4.8,7.82,1.44,2.39c.24.4.47.8.71,1.19l.42.72a11.24,11.24,0,0,1,.63,1.15c0,.28,0,.59,0,.85a5,5,0,0,1-.67.48c-.07,0-.09.09-.2.1l-.33,0-.66.07-.89.08-2.59.22c-1.69.13-3.3.23-4.81.3l-2.18.08-2.08.05c-.32-.17-.47-.27-.63-.37l.68.1a27.31,27.31,0,0,1,7.44-1.87l2.85-.08,1.39-.06h.85s0-.07,0-.1l-.12-.27L218,292l-.31-.57-1.23-2.22q-1.23-2.16-2.42-4.13l-1.17-1.93-.71-1.13-.31.65-.45.93c-.37.75-.74,1.48-1.1,2.18-.72,1.42-1.42,2.75-2.12,4C207.34,291.27,205.58,293.8,205.22,294.29Z" transform="matrix(-1, 0, 0, 1, 380, 0)" /><polygon class="cls-12" points="196.58 283.13 204.5 293.95 205.24 294.3 212.15 281.02 196.58 283.13" transform="matrix(-1, 0, 0, 1, 380, 0)" /><path d="M196.57,283.11c.32-.36,6.82-1.23,9.31-1.74,1-.2,2-.4,3-.59l.78-.14,1-.17,2.89-.44c-1.42,2.84-2.87,5.74-4.23,8.48-1.07,2.14-2.16,4.25-3.23,6.24l-.46.85-.84-.42-.95-.46L202.61,293l-1.06-1.54-2-3c-1.25-1.89-2.34-3.64-3.23-5.17a29.06,29.06,0,0,1,6.06,6.15c.45.72.88,1.42,1.3,2.11l1.2,1.9s.38.22.58.32l-.77.26c1.42-2.42,2.68-4.74,3.84-6.95l1.66-3.22.72-1.45.39-.81-.75.12-1.07.17-2.55.39c-1.66.24-3.23.44-4.72.59C200.41,283.09,197.21,283.12,196.57,283.11Z" transform="matrix(-1, 0, 0, 1, 380, 0)" /><polygon class="cls-13" points="202.34 270.01 202.34 270.01 196.56 283.11 196.58 283.13 212.15 281.02 202.34 270.01" transform="matrix(-1, 0, 0, 1, 380, 0)" /><path d="M202.36,270c.47.06,4.81,5,6.62,6.72,1.32,1.3,2,2,4.7,4.87l-10.17,1.57-3,.44-3.79.5c-.28-.09-.52-.21-.78-.31a.61.61,0,0,1-.18-.09,1.33,1.33,0,0,1,0-.21l0-.41a1.45,1.45,0,0,1,0-.42L196,282l.5-1.09,1.19-2.53c1.58-3.28,3.09-6.2,4.4-8.49l.09-.17h.14l-.23.1v.07a29.22,29.22,0,0,1-2.28,8.29l-1.47,2.73-.35.67-.08.17,0,.06-.08.11-.16.28c-.05.08-.18.26,0,.21l.63,0,1.36-.14,2.72-.31c1.78-.22,3.48-.45,5.11-.69l2.39-.36,1.4-.23-.46-.48-.61-.65-1.58-1.72c-1-1.13-2-2.21-2.84-3.27C204.51,273.16,202.7,270.53,202.36,270Z" transform="matrix(-1, 0, 0, 1, 380, 0)" /><polygon class="cls-14" points="216.58 268.49 216.56 268.46 202.34 270.01 212.15 281.02 216.58 268.49" transform="matrix(-1, 0, 0, 1, 380, 0)" /><path d="M216.6,268.49c.18.43-1.9,6.26-2.52,8.57l-.58,2.06-.16.53-.29.89c-.2.63-.41,1.27-.62,1.91l-7-7.52-1.94-2.13-3.17-3.57,4-.4,2-.17c1.31-.11,2.57-.19,3.78-.27,2.43-.14,4.63-.21,6.49-.21h.2l.07.11v0l0,0-.2-.14-.05,0a26,26,0,0,1-7.85,2.11c-2.1,0-4.76.17-5.25.13a8.5,8.5,0,0,0,.61.81l1.29,1.52c.85,1,1.69,1.95,2.51,2.86l2.4,2.63,1.13,1.23.58.6.17-.54.23-.71c.22-.66.44-1.3.66-1.93.43-1.25.86-2.44,1.31-3.56C214.94,271.72,216.31,269,216.6,268.49Z" transform="matrix(-1, 0, 0, 1, 380, 0)" /><path class="cls-10" d="M222.83,299c-2.73,4.63-6.16,8.26-8.57,12.92,6.47-1.1,12.69-2.45,17.57-7,4.09-3.09,7.94-7.08,9.08-12.08-6.23,1.54-12.26,4.82-18.51,6.37" transform="matrix(-1, 0, 0, 1, 380, 0)" /><path d="M222.39,299.21c.21-.37,2.74-1.18,5.58-2.39s6.09-2.61,7.91-3.44c.53-.26,1.84-.77,3-1.17s2.45-.79,3.86-1.21c.06.12,0,.42-.09.66l-.17.77-.36,1.52c-.16.52-.27,1-.49,1.6s-.42,1.12-.71,1.7l-.37.71c-.09.18-.19.34-.29.52-.19.34-.4.68-.62,1-.43.66-.9,1.29-1.39,1.9a29.89,29.89,0,0,1-3.22,3.33c-.56.51-1.14,1-1.72,1.47-.14.11-.35.27-.28.23l-.43.39c-.29.27-.57.52-.88.76a24.34,24.34,0,0,1-8.49,4.42c-.74.22-1.48.42-2.21.59-.36.1-.73.17-1.09.25l-1.32.27c-2.73.51-5.25.88-7.66,1.25a74.87,74.87,0,0,1,4.05-6.73l.46-.63.33-.42.66-.82,1.3-1.55c1.71-2,3.27-3.78,4.59-5.44a23,23,0,0,1-2.32,7c-.57,1.16-1.14,2.25-1.65,3.16l-.1.17,0,.08h.05l-.07,0a2,2,0,0,0-.53.4c0,.1,0,.17.21.21a1.49,1.49,0,0,0,.33,0h.2l.59-.09a31.21,31.21,0,0,0,4.58-1,19.53,19.53,0,0,0,7.56-4.21l1.7-1.36c.52-.45,1-.9,1.52-1.37a24.22,24.22,0,0,0,2.6-2.91c.38-.51.73-1,1.05-1.55.15-.27.31-.52.45-.79s.15-.31.22-.47a7.55,7.55,0,0,0,.31-.86,3.59,3.59,0,0,0,.11-.41l0-.2,0-.1c0-.05-.06,0-.09,0-.48.15-.91.3-1.31.44l-1.92.7c-1.64.6-3.23,1.21-4.78,1.74a35.61,35.61,0,0,1-5,1.33A30.63,30.63,0,0,1,222.39,299.21Z" transform="matrix(-1, 0, 0, 1, 380, 0)" /><path class="cls-11" d="M206.57,251.06c3.23,4,8.12,7.76,12.23,10.81,6.31-.47,11.82-.93,16.3-.45a26.27,26.27,0,0,0-15.67-11.61c-4.79-.64-10.45-1.07-14.91,1.26" transform="matrix(-1, 0, 0, 1, 380, 0)" /><path d="M204.51,251a3.77,3.77,0,0,1,1.65-1.1,14.89,14.89,0,0,1,4-1.09,45.32,45.32,0,0,1,8.53-.14l.64,0,.4,0,.37.08c.43.09.87.17,1.31.29a26.08,26.08,0,0,1,2.61.81,23.79,23.79,0,0,1,5,2.6,26.74,26.74,0,0,1,4.38,3.7l.52.57c.29.32.57.64.83,1,.49.65,1,1.32,1.49,2l2.76,4-.59,0c-1.54-.12-3.23-.28-4.79-.38-.77,0-1.55-.08-2.3-.08H230c-1.47,0-2.94.1-4.4.17l-4.35.22-2.63.13-.26,0h-.12l-.09-.07-.36-.27-.7-.55-.88-.72c-4.3-3.52-8-7.2-10.09-10.72,1.79.9,4.06,2.23,6.18,3.48a31.73,31.73,0,0,1,4.92,3.34l1.83,1.75c.1.13.22.31.3.3a.22.22,0,0,0,.12,0h6c1.64,0,3.24,0,4.82,0h.59l.36,0,.69,0c.46,0,.94.07,1.4.12l.15,0s0-.08-.05-.11l-.17-.25c-.11-.17-.22-.33-.34-.49-.24-.33-.49-.64-.74-.94l-.42-.47c-.2-.24-.41-.45-.62-.67-.41-.44-.86-.84-1.29-1.24a24.35,24.35,0,0,0-8.53-4.88c-.49-.16-1-.32-1.46-.45l-.65-.18-.7-.08c-2-.24-3.9-.41-5.71-.49a43.15,43.15,0,0,0-4.79.05A19,19,0,0,0,204.51,251Z" transform="matrix(-1, 0, 0, 1, 380, 0)" /><path class="cls-14" d="M183.71,268.43c.29.28.59.36.82.74a19.88,19.88,0,0,1,.91,2.49c.28.65.43,1.35.75,2a32.48,32.48,0,0,1,1.56,3.26,28,28,0,0,1,1.7,4.86,6.57,6.57,0,0,0,.29,1.14c.16.36.43.62.41,1a6.6,6.6,0,0,1-.34,1.23,13,13,0,0,0-.33,1.85,27.73,27.73,0,0,1-.49,2.75c-.22,1.13-.44,2.25-.62,3.36a17.8,17.8,0,0,0-.45,2.4c0,.85,0,1.71-.07,2.57a19.23,19.23,0,0,1-.07,2.28c-.05.35,0,.34-.38.36a1.53,1.53,0,0,1-1.06-.54,10.3,10.3,0,0,1-1.73-2.72,38.67,38.67,0,0,1-2-5.51,26.91,26.91,0,0,1-1.41-4.26c-.24-1.31-.48-2.59-.63-3.91a39.09,39.09,0,0,1,.07-5.3,14.07,14.07,0,0,1,.76-3.62c.32-1.12.71-2.21,1-3.33a11.78,11.78,0,0,1,2.44-3.84" transform="matrix(-1, 0, 0, 1, 380, 0)" /><path d="M184.87,267.74a5.24,5.24,0,0,1-.94,1.77,9.08,9.08,0,0,0-.81,1.59c-.2.57-.36,1.34-.57,2.09a39.82,39.82,0,0,0-1.08,4.53,8.53,8.53,0,0,0,0,1v1.05c0,.67,0,1.25,0,1.73a14.63,14.63,0,0,0,.32,2.48l.6,2.61a11.87,11.87,0,0,0,.72,2.43c.32.8.73,1.66,1.1,2.61s.65,1.84,1,2.68c.15.42.32.85.47,1.2l.08.16,0,0,.05,0c.09.1.2.15.19,0s0-.08,0-.13v-.09h0c0-.14,0-.3,0-.44a9.4,9.4,0,0,1,.27-1.43l.12-.53.09-.47.44-2.3c.13-.73.31-1.59.47-2.27s.2-1.16.4-2.12c.09-.43.16-.81.27-1.28,0-.15.09-.28.12-.38l.08-.2,0,0a.14.14,0,0,0,0-.11,4.87,4.87,0,0,1-.46-1.56,17.78,17.78,0,0,0-1-3.69l-.61-1.86c-.2-.57-.43-1.14-.67-1.71l-.37-.87a8.12,8.12,0,0,1-.34-1l-.2-.86c0-.14-.06-.22-.11-.38s-.09-.34-.13-.5c-.14-.62-.2-1.15-.32-1.59a1.47,1.47,0,0,0-.2-.51,1.18,1.18,0,0,0-.18-.21,2.72,2.72,0,0,1-.34-.34,1.84,1.84,0,0,0,.43.15,3.59,3.59,0,0,1,.35.08,1.53,1.53,0,0,1,.65.46,13.39,13.39,0,0,1,1.05,1.5c.09.12.17.24.26.34a4.84,4.84,0,0,1,.3.44l.52.82a3.34,3.34,0,0,0,.25.34c.07.09.17.19.27.33l.61.77a16.28,16.28,0,0,1,1.13,1.67l.83,1.55a10.66,10.66,0,0,1,1,2.61c.07.36.14.72.19,1.09s.08.75.09,1l0,.25c0,.09-.08-.07.11.3a2.66,2.66,0,0,1,.3,1.6,3.06,3.06,0,0,1-.2.79l-.13.35-.09.18-.05.11,0,.19-.11.4a15.54,15.54,0,0,0-.42,1.72c-.31,1.31-.63,2.32-.89,3.48l-.39,1.68c-.06.25-.13.6-.21.89l-.22.81a3.94,3.94,0,0,0-.14.7l0,.17v.29l0,.59-.11,2.28a6.69,6.69,0,0,1-.27,1.75,4.13,4.13,0,0,1-.22.62,2.59,2.59,0,0,1-.14.29c-.09.1-.28.09-.42.11a2.23,2.23,0,0,1-1.47-.58,6,6,0,0,1-1.12-1.25,13.09,13.09,0,0,1-1-1.71,16,16,0,0,1-.82-1.74c-.38-1-.68-1.91-1-2.81s-.64-1.72-1-2.59a16.14,16.14,0,0,1-.92-2.75l-.5-2.67-.23-1.29a10.41,10.41,0,0,1-.12-1.36,24.07,24.07,0,0,1,.05-2.57l.06-1.18,0-.59c0-.23,0-.46.06-.68a12.18,12.18,0,0,1,.62-2.4c.21-.69.52-1.48.86-2.3l.54-1.24a10.93,10.93,0,0,1,.63-1.29,9.43,9.43,0,0,1,1.59-1.83Z" transform="matrix(-1, 0, 0, 1, 380, 0)" /><path class="cls-16" d="M237.71,263.91a118.8,118.8,0,0,0-4.53,14.7s2.71,7,6.43,14.11c.93,2.28,1.58.28,1.83-1.24,4.26-9.81,1.6-21.12-3.47-30" transform="matrix(-1, 0, 0, 1, 380, 0)" /><path d="M238,261.48c.38.08,1.83,2.23,3.08,4.95a55.33,55.33,0,0,1,2.8,7.83,27.86,27.86,0,0,1,1,10.73,25.75,25.75,0,0,1-1.17,5.55l-.48,1.34c-.09.26,0-.1,0,.26s-.1.51-.17.78a4.68,4.68,0,0,1-.26.84,3.3,3.3,0,0,1-.73,1.19,2.08,2.08,0,0,1-.21.2,2.92,2.92,0,0,1-.37.24,2.18,2.18,0,0,1-1,.27,2.41,2.41,0,0,1-1-.22,2.36,2.36,0,0,1-.56-.37,2.49,2.49,0,0,1-.33-.33l-.23-.3-.27-.46c-1.29-2.43-2.55-4.93-3.64-7.4-.55-1.23-1.07-2.46-1.56-3.68l-.7-1.81c-.3-.79-.58-1.57-.87-2.33.17-.7.35-1.38.43-1.64l.32-1.06c.22-.7.44-1.38.67-2.05.46-1.34.93-2.62,1.42-3.84a59.83,59.83,0,0,1,3.05-6.46,40.55,40.55,0,0,1-.32,7,27.31,27.31,0,0,1-1.1,5.72l-.52,1.33-.23.61a1.12,1.12,0,0,1-.12.17v.13l.06.19.24.79.49,1.55c.34,1,.7,2,1.06,3q1.11,2.94,2.35,5.64l.63,1.33.66,1.35a3.54,3.54,0,0,0,.24.48l.05.07h0a.59.59,0,0,0-.13.17c0,.09-.06.1-.07.13a.17.17,0,0,0,0,.1v0s0,0,0-.07-.1-.13-.23-.29c0,0,0,0,0,0a1.18,1.18,0,0,0,.11-.18,5.22,5.22,0,0,0,.19-.56c.05-.19.1-.41.14-.62l.07-.39.16-.42.47-1.24c.26-.84.51-1.67.69-2.5a27.91,27.91,0,0,0,.29-9.51,52.89,52.89,0,0,0-1.84-8.22l-1.37-4.57C238.62,263.27,238.13,261.94,238,261.48Z" transform="matrix(-1, 0, 0, 1, 380, 0)" /><path class="cls-14" d="M205.92,250c-8.87,1.51-19.93,9.67-21.6,18.8,4.46-.62,13.82-4.08,13.82-4.08s2.58-3.7,4.28-6c2.07-2.85,5.93-7.49,3.08-8.86" transform="matrix(-1, 0, 0, 1, 380, 0)" /><path d="M205.51,249.79a1.5,1.5,0,0,1,.54.24,1.63,1.63,0,0,1,.63,1.12,6.16,6.16,0,0,1-1.12,3.58c-.71,1.23-1.59,2.44-2.37,3.54s-1.45,2.14-1.93,2.88l-1.28,2-.66,1-.33.51-.21.31c-.11.14-.17.33-.36.36l-2.46.95-2.37.86c-1.59.56-3.2,1.09-4.82,1.56-.81.24-1.62.46-2.44.65l-.94.21-1.15.2-1.17.2.25-1.09.45-1.91a2.15,2.15,0,0,1,.1-.34l.09-.26.19-.52a15.26,15.26,0,0,1,.89-2,22.31,22.31,0,0,1,2.36-3.62,28.69,28.69,0,0,1,6-5.53,27.58,27.58,0,0,1,12.5-5,55.91,55.91,0,0,0-5.66,2.82c-1.94,1.12-3.65,2.29-4.59,2.85a25,25,0,0,0-9,8.53,18.26,18.26,0,0,0-1.24,2.61l-.25.66-.12.46-.12.45a1,1,0,0,0,0,.21l.21,0,.43-.07.49-.1,1.33-.32c.87-.23,1.73-.48,2.57-.74,1.68-.51,3.29-1.06,4.84-1.61l2.29-.84.55-.2.19-.08a.13.13,0,0,0,.1-.09l.62-.89c1.77-2.54,3.42-4.93,5.07-7a21.69,21.69,0,0,0,2.45-3.71,2.63,2.63,0,0,0,.27-1.87l-.06-.19-.11-.15a1.37,1.37,0,0,0-.2-.26Z" transform="matrix(-1, 0, 0, 1, 380, 0)" /><path class="cls-10" d="M109.86,289.05c-3.72,2.16-7.25,3.31-10.84,5.62,3.67,1.89,7.35,3.5,12.07,2.28a18.58,18.58,0,0,0,10.65-4.82c-3.79-1.47-8.39-1.64-12.19-3.11" transform="matrix(-1, 0, 0, 1, 380, 0)" /><path d="M109.56,289c.31-.21,2.09.28,4.25.59l3.31.49.79.12,1,.19c.67.11,1.26.26,1.79.37,1,.24,2,.52,3.3.91a9.59,9.59,0,0,1-.72.81l-.81.82-.86.85-1,.86c-.38.27-.77.55-1.19.83s-.67.41-1,.57a17.21,17.21,0,0,1-1.66.84,21.47,21.47,0,0,1-3.5,1.17c-.59.15-1.18.27-1.77.37-.25.05,0,0-.23.06l-.46.12c-.3.08-.62.13-.92.19a14,14,0,0,1-6.46-.43c-.51-.16-1-.31-1.48-.52-.82-.33-1.67-.7-2.42-1.08-1.52-.77-2.91-1.54-4.29-2.29,2-1.16,3.68-2.21,5.55-3.1l.69-.32.32-.15.2-.07.77-.31,1.5-.54,5.27-1.78a14,14,0,0,1-3.55,4.05,25.47,25.47,0,0,1-2,1.52l-.46.28-.09.06h0l0,0a1.53,1.53,0,0,0-1,.07c-.09.14.13.41.54.68l.16.1.34.17.75.31a12.63,12.63,0,0,0,1.52.47,10.82,10.82,0,0,0,4.51.09l.78-.18.76-.11a18.54,18.54,0,0,0,5.31-1.77,6.89,6.89,0,0,0,1.49-1,3.64,3.64,0,0,0,.76-.78c-.55-.18-1-.29-1.47-.4l-2.49-.61a18.59,18.59,0,0,1-3.45-1.24A15.69,15.69,0,0,1,109.56,289Z" transform="matrix(-1, 0, 0, 1, 380, 0)" /><path class="cls-11" d="M123.71,243.83a69.08,69.08,0,0,0,.25,14.91c3.84,2.65,7.21,4.93,9.44,7.5,1.36-6.41,1.11-12.27-1.7-17.23-2.29-2.85-5.21-5.94-9.14-6.16" transform="matrix(-1, 0, 0, 1, 380, 0)" /><path d="M122.56,242.82a2.58,2.58,0,0,1,1.67-.1,8.87,8.87,0,0,1,3.21,1.26,18.82,18.82,0,0,1,3.09,2.47c.44.44.86.87,1.23,1.26l.53.55a2.18,2.18,0,0,1,.3.38l.19.29a18.63,18.63,0,0,1,3,8.71,26.82,26.82,0,0,1,0,4.74c0,.12,0,.58-.08.9l-.15,1c-.09.7-.19,1.38-.32,2-.25,1.36-.5,2.7-.75,4l-.26-.29c-.9-1-1.89-2.08-2.81-3-.47-.52-.94-.9-1.4-1.34l-.36-.31-.29-.24-.35-.28c-.92-.74-1.89-1.46-2.86-2.17L123,260.38l-.7-.51c-.16-.05-.12-.23-.14-.37l0-.43-.1-1.41c0-.59-.05-1.17-.07-1.75a39.51,39.51,0,0,1,1.21-12.15,46.87,46.87,0,0,1,1.67,5.73,20.34,20.34,0,0,1,.73,4.86c-.06.72-.1,1.44-.12,2.15l0,1.07a.27.27,0,0,1,0,.14l0,.07a.47.47,0,0,0,0,.17l.09.12,0,.07,0,0,.1.08.8.67,1.58,1.3c1.05.86,2.08,1.71,3.06,2.57.29.26.38.35.52.49l.41.4c.27.27.54.55.79.84s.15,0,.19-.18l.09-.49c.06-.33.11-.65.15-1l0-.48.06-.68c0-.5.05-1,.06-1.49a21.91,21.91,0,0,0-.58-5.54A19.12,19.12,0,0,0,131,250c-.1-.18-.2-.38-.23-.41l-.35-.43-.77-.92c-.51-.59-1-1.15-1.52-1.68A20.76,20.76,0,0,0,125.2,244,10,10,0,0,0,122.56,242.82Z" transform="matrix(-1, 0, 0, 1, 380, 0)" /><path class="cls-14" d="M102.55,245.08a3.78,3.78,0,0,1,0,1c-.2.82-.73,1.69-1,2.51s-.59,1.33-.79,2c-.36,1.16-.67,2.31-1.12,3.47a40.86,40.86,0,0,1-2,4.86,7.89,7.89,0,0,0-.54,1.09,3.12,3.12,0,0,1-.41,1.07,10.88,10.88,0,0,1-.94.86,15.61,15.61,0,0,0-1.32,1.37c-.62.74-1.31,1.37-2,2.05-.81.83-1.62,1.66-2.41,2.49a24,24,0,0,0-1.71,1.78c-.53.7-1.08,1.4-1.62,2.1s-.92,1.32-1.43,1.87c-.25.26-.22.27-.44.11s-.27-.6-.26-1a13.52,13.52,0,0,1,.69-3.1,57.14,57.14,0,0,1,2.24-5.56,40,40,0,0,1,1.81-4.22c.67-1.21,1.32-2.38,2-3.56,1-1.53,2.19-2.94,3.28-4.37a19.37,19.37,0,0,1,2.64-2.64c.87-.77,1.76-1.5,2.62-2.27a12.34,12.34,0,0,1,3.72-2" transform="matrix(-1, 0, 0, 1, 380, 0)" /><path d="M103.63,245.07c-.06.21-.74.58-1.68,1.12a8.45,8.45,0,0,0-1.46,1l-1.61,1.52a38.26,38.26,0,0,0-3.31,3.31c-.86,1.19-1.73,2.37-2.23,3.17a19.4,19.4,0,0,0-1.24,2.25l-1.19,2.43a16.92,16.92,0,0,0-1,2.41c-.3.83-.59,1.74-.94,2.68l-.49,1.24a.87.87,0,0,0,0,.21.68.68,0,0,0,0,.24s0,.06.07.06.11,0,.16-.15a2.2,2.2,0,0,0,.1-.21h0l1-1.05,2.69-2.72,1.45-1.46a11.6,11.6,0,0,1,.85-.8l.36-.28c.08-.07,0,0,.07,0s0,.21.25-.63c.22-.45.46-.91.69-1.32a20.62,20.62,0,0,0,1-1.93c.61-1.36,1.27-2.83,1.76-4.1l.81-2c.32-.76.68-1.32.93-1.84.33-.7.7-1.22,1-1.72a5.72,5.72,0,0,0,.33-.66,1.59,1.59,0,0,0,.06-.3,3.19,3.19,0,0,1,0-.51,2.31,2.31,0,0,0,.18.42,2.27,2.27,0,0,1,.17.31,2.22,2.22,0,0,1,.1.8c0,.59-.14,1.22-.22,1.83l0,.44-.07.52-.16,1c-.06.33,0,.53-.1.9l-.13,1a26.49,26.49,0,0,1-.72,3.65,12,12,0,0,1-1,2.59c-.18.31-.36.62-.56.93l-.5.74a4.48,4.48,0,0,0-.36.56l-.11.3a2.54,2.54,0,0,1-.16.38,2.87,2.87,0,0,1-.45.68,3.7,3.7,0,0,1-.55.51l-.39.28a3.15,3.15,0,0,0-.27.19l-.29.26-1.22,1.08-2.54,2.35L90,269.22A24.07,24.07,0,0,0,88.35,271a5.35,5.35,0,0,1-.65.71l-.59.61-.6.6a6.79,6.79,0,0,1-.54.54l-.76.68a3.9,3.9,0,0,1-.4.31.16.16,0,0,1-.12.06.51.51,0,0,1-.18-.09.87.87,0,0,1-.27-.27,2.75,2.75,0,0,1-.27-1.24,12.77,12.77,0,0,1,.37-2.8,26.37,26.37,0,0,1,1.13-3.43l.71-1.7c.17-.41.33-.82.5-1.22.3-.84.61-1.67.9-2.48a19.22,19.22,0,0,1,1.13-2.42l1.2-2.19a18,18,0,0,1,1.3-2.12c.47-.67,1-1.29,1.44-1.88l1.42-1.76a13.85,13.85,0,0,1,1.68-1.6,43.09,43.09,0,0,1,4.24-3.06,9.25,9.25,0,0,1,2.27-.89C102.9,245.23,103.39,245.13,103.63,245.07Z" transform="matrix(-1, 0, 0, 1, 380, 0)" /><path class="cls-16" d="M133.57,269.36a136.64,136.64,0,0,0-9.45,9.91s-1.84,6.55-3.23,13.64c-.58,2.17.72.83,1.58-.28,7-6.14,10.91-16.11,12.38-25.08" transform="matrix(-1, 0, 0, 1, 380, 0)" /><path d="M134.88,267.55c.26.29.06,2.6-.52,5.23s-1.53,5.54-2,7.19a33.76,33.76,0,0,1-4.12,8.73l-.72,1c-.28.37-.69.85-1,1.28l-.54.66c-.18.22-.49.52-.72.78l-1.54,1.62c-.49.43-1,.77-1.48,1.15l-.74.56a1.26,1.26,0,0,1-.38.1,2.29,2.29,0,0,1-.69,0,1.72,1.72,0,0,1-.51-.2,1.44,1.44,0,0,1-.32-.24l-.18-.15-.16-.31c-.11-.22-.24-.41-.34-.66l.1-1.47a5.78,5.78,0,0,1,.07-.77l.18-.89c.24-1.19.5-2.38.77-3.57l.46-1.94c.29-1.2.6-2.37.93-3.52.17-.57.33-1.14.5-1.71l.63-2.05.6-.67.35-.36.68-.7,1.36-1.34c.91-.88,1.8-1.69,2.68-2.46a58.49,58.49,0,0,1,5-3.93c-1.19,3.35-4.43,8.45-6,9.86l-.9.78-.43.39c-.1.08-.11.08-.12.08l-.06,0-.06.05a1.73,1.73,0,0,0-.13.29l-.27.7-.51,1.39c-.33.92-.64,1.84-.93,2.75s-.55,1.8-.81,2.69c-.16.53-.31,1-.45,1.57s-.28,1.09-.4,1.64a2,2,0,0,0-.08.41c0,.12,0,.34.18.25a2,2,0,0,0,.58-.51,11.47,11.47,0,0,1,1.08-1.12l.5-.56.26-.29.3-.38.59-.76.65-.93c.44-.61.81-1.25,1.2-1.86a42.08,42.08,0,0,0,2-3.74c1.16-2.48,2.05-4.87,2.88-7.12.39-1.14,1-2.66,1.56-4Z" transform="matrix(-1, 0, 0, 1, 380, 0)" /><path class="cls-14" d="M123.21,242.6c-6-3.2-17.2-2.13-23.53,4.39,2.94,1.72,10.38,3.59,10.38,3.59s3.67-1.69,6-2.73c2.87-1.26,7.82-3.08,7-5.59" transform="matrix(-1, 0, 0, 1, 380, 0)" /><path d="M123.08,242.25a1.56,1.56,0,0,1,.19.47c0,.13,0,.3,0,.48a2.88,2.88,0,0,1-.19.59,5.8,5.8,0,0,1-2.31,2.2c-2.06,1.24-4.55,2.18-5.83,2.92s-2.36,1.23-3.6,1.84l-1.13.56a.2.2,0,0,1-.21,0l-.22,0-.37-.09-.51-.12c-.69-.16-1.38-.33-2.07-.52-1.38-.36-2.76-.77-4.11-1.23-.68-.23-1.35-.49-2-.76l-.38-.18-.44-.22c-.29-.14-.59-.28-.88-.44l-.88-.46c-.06,0,0,0,0-.07l.08-.08.17-.16.32-.32,1.15-1.12.29-.28.15-.14.09-.07.36-.29a14.31,14.31,0,0,1,1.5-1.09,13.41,13.41,0,0,1,1.58-.94,15.26,15.26,0,0,1,1.63-.79,23,23,0,0,1,6.7-1.71c4.4-.45,8.51.43,11.19,2.16a27.58,27.58,0,0,0-5.3-.59c-1.87,0-3.58.16-4.5.15a20,20,0,0,0-10,2.63c-.36.22-.71.42-1,.65l-1,.72a5.69,5.69,0,0,0-.71.6l-.3.27s-.14.09-.1.13l.16.08a5.8,5.8,0,0,0,.66.33c.36.15.71.3,1.06.43.71.28,1.43.51,2.13.75,1.41.45,2.79.83,4.13,1.18l1,.25c.4.09.49.17.65,0l1.78-.84,3.44-1.58c1.11-.51,2.21-.93,3.23-1.37a19.81,19.81,0,0,0,3.32-1.71,2.78,2.78,0,0,0,1-1.23,1.75,1.75,0,0,0,.13-.59Z" transform="matrix(-1, 0, 0, 1, 380, 0)" /></svg>