<svg xmlns="http://www.w3.org/2000/svg" id="Art" viewBox="0 0 380 600"><defs transform="matrix(-1, 0, 0, 1, 380, 0)"><style>.cls-1{fill:#19f2c8;}.cls-2{fill:blue;}.cls-3{opacity:0.2;}.cls-4{opacity:0.5;}.cls-5{fill:#fffffe;}</style></defs><path d="M330.58,452.59c.26.17.16.83-.15,1.54s-.8,1.44-1,1.91a7.63,7.63,0,0,1-9.65,3.14,5.56,5.56,0,0,1-2.85-2.81c.88-.35,1.73-.62,2.37-.81s1.09-.25,1.25,0a3.82,3.82,0,0,0,2.55,1.41,4.26,4.26,0,0,0,2.53-.48c1.48-.76,2.24-2,3.16-2.75A14.4,14.4,0,0,1,330.58,452.59Z" transform="matrix(-1, 0, 0, 1, 380, 0)" /><path d="M327.18,462.69c.25.6-.73,1-1.06,1.43a3.25,3.25,0,0,1-2.44,1.16,2.79,2.79,0,0,1-3.14-2.35c1.23-1.19,2-2.11,2.09-1.78.27,1.34,1.2,1.57,1.82,1.41s1.09-.62,1.61-.52A5.09,5.09,0,0,1,327.18,462.69Z" transform="matrix(-1, 0, 0, 1, 380, 0)" /><path class="cls-1" d="M289.29,345.61A18.31,18.31,0,0,0,298.42,367c-5.87,5.14-3.53,13,1.37,17.78a.88.88,0,0,1,.31.46c0,.28-.17.53-.36.74-4.86,5.34-1.49,12.86,4.6,15.15-5,5.61-2.56,12.9,4.89,14.25-1-.18-3.16,3.21-3.69,4-1.26,1.77-2.13,4-1.19,6.1,1.25,2.86,4.88,3.62,8,4a9.09,9.09,0,0,0,2,16.1c-1.6.63-3.52,1.74-3.31,3.46.25,2,2.87,2.32,4.61,3.28a5.12,5.12,0,0,1-4,9.37c1.33,1.9-1.32,4.16-3.61,4.54a14.47,14.47,0,0,1-12.9-4.52" transform="matrix(-1, 0, 0, 1, 380, 0)" /><path d="M295.19,461.61A20.48,20.48,0,0,0,301,465a14.33,14.33,0,0,0,6,.71,7.86,7.86,0,0,0,1.59-.3,5.22,5.22,0,0,0,1.41-.72,3.9,3.9,0,0,0,1.09-1.09,1.3,1.3,0,0,0,.16-.31.94.94,0,0,0,.06-.15c0-.07.07-.05,0-.23s-.23-.57-.36-.88-.36-.74-.57-1.09l.28-.1.06-.13s0-.07.06-.05l.2.05.4.1a11.51,11.51,0,0,0,1.69.25c.14,0,.27,0,.42,0l.27,0a3.72,3.72,0,0,0,.48-.11,4.79,4.79,0,0,0,.91-.36,4.11,4.11,0,0,0,2.2-2.76,4.44,4.44,0,0,0-.53-3.15,4,4,0,0,0-2-1.71c-.7-.3-1.52-.54-2.41-.93a6,6,0,0,1-1.37-.84,3.31,3.31,0,0,1-1.07-1.63,3.24,3.24,0,0,1,.09-2,3.6,3.6,0,0,1,.47-.87,5.44,5.44,0,0,1,.48-.56,2.49,2.49,0,0,1,.75-.52,5,5,0,0,1-.74-.34,3.46,3.46,0,0,1-.64-.5,11.56,11.56,0,0,1-1-1,10.32,10.32,0,0,1-1.87-10.81,10.51,10.51,0,0,1,.63-1.31,5,5,0,0,1,.37-.63l.12-.18a1,1,0,0,1,.24-.28c.09-.05-.07,0-.11,0l-.2,0-.21,0-.08,0-.32-.09c-.22-.07-.44-.14-.67-.23a9.47,9.47,0,0,1-2.61-1.43,6.61,6.61,0,0,1-2-2.57,6.54,6.54,0,0,1-.51-3.25,8.49,8.49,0,0,1,.85-2.92,18.65,18.65,0,0,1,1.38-2.25l.7-1,.32-.44,0,0s0-.06.05-.07h0l-.1,0h0s0,0,0,0l-.5-.26a7.87,7.87,0,0,1-1.06-.67,6.72,6.72,0,0,1-1-.8l-.47-.43-.41-.49a9.32,9.32,0,0,1-2.12-4.65,10.07,10.07,0,0,1,.54-5c.14-.39.33-.75.49-1.12a5.52,5.52,0,0,1,.28-.54l.2-.31s0,0,0,0h0l-.23-.14-1.09-.8c-.35-.3-.68-.61-1-.93a12.29,12.29,0,0,1-2.94-4.66,10.54,10.54,0,0,1-.38-5.57c.13-.46.22-.93.39-1.36s.35-.87.56-1.29l.71-1.18.21-.26.14-.18.05,0s0,0,0,0l0,0-.11-.13-.12-.13-.34-.42c-.25-.32-.53-.63-.75-1a17.15,17.15,0,0,1-2.29-4.31,13.81,13.81,0,0,1-.88-4.82,10.57,10.57,0,0,1,1.08-4.79,6.79,6.79,0,0,1,.58-1.06,6.53,6.53,0,0,1,.68-1,4.26,4.26,0,0,1,.39-.36l.06,0-.05,0-.09-.07a1.86,1.86,0,0,1-.2-.14l-.1-.08-.41-.3a7.69,7.69,0,0,1-.83-.68,18.89,18.89,0,0,1-4.89-6.54,18.4,18.4,0,0,1-.73-14,20,20,0,0,0,.59,8.08,21.43,21.43,0,0,0,1.71,4.13,21.06,21.06,0,0,0,2.6,3.6,18.48,18.48,0,0,0,3.2,2.74c.32.18.43.25,1.16.71l1.9,1,.95.49.47.25.11.06c.06,0,0,0,0,.08l-.17.18-1.34,1.43a15.76,15.76,0,0,0-1.32,1.45l-.31.42a1.65,1.65,0,0,0-.18.32l-.35.61-.25.62a8.82,8.82,0,0,0-.36,1.15c-.07.37-.13.71-.19,1a11.55,11.55,0,0,0,1.7,7.05,16.85,16.85,0,0,0,1.07,1.58l.29.38.47.58.51.59a2.2,2.2,0,0,1,.43.63,1.77,1.77,0,0,1-.08,1.51,7.59,7.59,0,0,1-1,1.34,4.21,4.21,0,0,0-.52.72,3.78,3.78,0,0,0-.44.75,7.31,7.31,0,0,0,.19,6.67,9.15,9.15,0,0,0,2.15,2.79,5.28,5.28,0,0,0,.69.56l.35.27.59.32a25.45,25.45,0,0,0,2.51,1.22c-.67.86-1.45,1.7-2,2.58a5.46,5.46,0,0,0-.48.88,5.15,5.15,0,0,0-.38.91,7,7,0,0,0-.27,3.76,6.71,6.71,0,0,0,1.75,3.26l.69.63.77.54a4.23,4.23,0,0,0,.41.23l.5.26a12.68,12.68,0,0,0,1.39.49l.23.44c.07.14.17.15.26.24l.53.4a.38.38,0,0,0-.27.05,4.6,4.6,0,0,0-1,1.6c.07.31-.19.52-.36.75l-.37.5-.7,1a12.56,12.56,0,0,0-1.22,2,4.43,4.43,0,0,0-.1,4,5.34,5.34,0,0,0,3.22,2.46l.53.17.73.19c.53.12,1.1.23,1.68.31l1.74.25.86.11.22,0h.1l0,0,.1.13a22.91,22.91,0,0,0-3.31,2.81,6.09,6.09,0,0,0-.79,1.16,10.8,10.8,0,0,0-.48,1,8,8,0,0,0-.42,4.4,8.28,8.28,0,0,0,1.92,3.83,7.08,7.08,0,0,0,2,1.65c1.12.6,2.72,1.19,3.8,1.65-.89.37-1.89.79-2.84,1.23a7.64,7.64,0,0,0-1.28.68,3.21,3.21,0,0,0-.46.37,1.24,1.24,0,0,0-.19.22,1.06,1.06,0,0,0-.26.78,1,1,0,0,0,.4.71,9.91,9.91,0,0,0,2.55,1.25,8.52,8.52,0,0,1,1.63.85,5.86,5.86,0,0,1,1.37,1.35,6.49,6.49,0,0,1,1.27,3.48,5.81,5.81,0,0,1-.92,3.58,6.45,6.45,0,0,1-4.44,2.77l-.22,0h-.27l-.36,0a1.84,1.84,0,0,1-.3-.07c-.05,0,0,0,0,0l0,.08a.48.48,0,0,1,.07.18.9.9,0,0,1,0,.33v.08s0,0,0,.09a3.12,3.12,0,0,1-.17.46,4.5,4.5,0,0,1-1.11,1.42,6.55,6.55,0,0,1-3.09,1.51,14.07,14.07,0,0,1-6.37-.53,14,14,0,0,1-7-4.74Z" transform="matrix(-1, 0, 0, 1, 380, 0)" /><path class="cls-2 color-hair" d="M327.89,432.87a8.2,8.2,0,0,0-7-6.35,17.84,17.84,0,0,0,4.53-5.7,7.42,7.42,0,0,0-.26-7,11.42,11.42,0,0,0-4.28-3.28c2.31-1.57,5.44-4.33,5-7.4a7.06,7.06,0,0,0-5.05-5.64,13,13,0,0,0,4.53-6.8,8.2,8.2,0,0,0-1.95-7.7c-2-2-4.11-1.48-1.15-3.71a16.13,16.13,0,0,0,4.49-5,11.14,11.14,0,0,0,.88-9.15,8.39,8.39,0,0,0-7.11-5.47,13,13,0,0,0,4.1-10.75c-.32-3.13-3-9.67-6.9-9.72,3.75-3.22,7.75-15.29.34-16.83,3.26-2.9,4.48-7.94,2.17-11.81-4-6.63-9.37-4.18-14.47-1.46a197,197,0,0,0-90.31-6.8c-21.4,3.42-42.08,10.36-63.31,14.73-18,3.7-37.22,5.72-55.34,1.56-1.77-.41-4.33-1.34-7.18-2.28-.35-.27-.7-.54-1.07-.79l-.22-.14.1.55c-8.65-2.74-19.28-4.87-19.16,7.08a9.77,9.77,0,0,0,4.17,7.56c-9.11,3.91-9.36,18.6-3.59,25.57a2.67,2.67,0,0,1,.56.85,2.61,2.61,0,0,1-.46,2c-2.38,4.42-4.52,9.21-4.35,14.22s3.27,10.25,8.17,11.34c-3.08,2.69-3.64,7.42-2.45,11.33,3.69,12.05,9.53,26.34,20,34.15.27,5.6.59,11.43,3.36,16.31s8.77,8.4,14,6.46c4-1.49,6-5.18,7.33-9.45a45.73,45.73,0,0,0,10.85,6.55c6.27,2.53,13.83,2.84,19.48-.89,3.1-2,5.44-5.16,8.76-6.83,3.9-2,8.52-1.65,12.88-1.28,7.87.67,15.9,1.37,23.19,4.43,5.34,2.25,10.2,5.73,15.84,7.09,4.49,1.08,9.19.73,13.8.38l19.37-1.47a31.33,31.33,0,0,0,8.91-1.63,10,10,0,0,1,3.31,3.17c2,3.46.36,7.79-.16,11.78a19.89,19.89,0,0,0,6,16.78c3.85,3.6,12.12,3.85,14.37-2a6.56,6.56,0,0,0-2.44-7.59c3.85-4.1,6.54-9.15,6.53-14.91a10.54,10.54,0,0,0,11.86-3.78c.29,8,8,14.92,16,14.38,3.46-.23,7.41-2.69,6.91-6.12,3,1.31,6.2-.26,6.29-3.59a15.76,15.76,0,0,0-.64-4c4,.8,9.3-2,10.31-6.18a6.54,6.54,0,0,0-3.67-7.41A6.53,6.53,0,0,0,327.89,432.87Z" transform="matrix(-1, 0, 0, 1, 380, 0)" /><path d="M327.92,432.86a6,6,0,0,1-.05,3.1,7,7,0,0,1-1.21,2.47c-.18.19-.33.41-.54.6a6.55,6.55,0,0,1-.56.49,5,5,0,0,1-1.36.71,5.51,5.51,0,0,1,1.56,1,6.18,6.18,0,0,1,.73.82,7.56,7.56,0,0,1,.66,1.06,6.87,6.87,0,0,1,.39,5.28,8.86,8.86,0,0,1-3.92,4.53,9.45,9.45,0,0,1-5.89,1.35c-.15-.06-.05.11,0,.19l.07.29.14.58a11.72,11.72,0,0,1,.23,1.32,5.61,5.61,0,0,1-.5,3.36,4.37,4.37,0,0,1-2.83,2.16,5.56,5.56,0,0,1-.91.14,4.17,4.17,0,0,1-.82,0,3.5,3.5,0,0,1-.63-.12l-.3-.09L312,462s-.13-.09-.1,0a3.05,3.05,0,0,1,0,.74,1.51,1.51,0,0,1-.06.37,2.28,2.28,0,0,1-.13.41,5.26,5.26,0,0,1-1.19,1.84,8.76,8.76,0,0,1-3.66,2.2,9.57,9.57,0,0,1-2.14.44c-.37,0-.73,0-1.09,0a6.63,6.63,0,0,1-1.09,0,14.52,14.52,0,0,1-4.28-1,16.64,16.64,0,0,1-3.89-2.2,18.12,18.12,0,0,1-3.22-3.21,17,17,0,0,1-2.26-4l-.33-1c-.08-.24-.11-.51-.18-.76a4.94,4.94,0,0,1-.12-.77l0-.39c0-.12,0-.35-.1-.15a6.81,6.81,0,0,1-1.6,1.57A11.47,11.47,0,0,1,280,458.1l-.88,0-.69-.08a6.56,6.56,0,0,1-1.08-.27s0,0,0,0v.62l-.06.7-.14,1-.2,1.07a20.33,20.33,0,0,1-1.4,4.11,24.11,24.11,0,0,1-2.16,3.76c-.41.58-.87,1.19-1.29,1.7l-.49.58-.23.26-.11.13s-.09.08,0,.11a3.86,3.86,0,0,1,.71.63,2.8,2.8,0,0,1,.21.25c.08.11.17.21.24.32a6.12,6.12,0,0,1,.43.69,7.54,7.54,0,0,1,.9,3,6.68,6.68,0,0,1-.52,3.15,7.64,7.64,0,0,1-1.8,2.6,8.88,8.88,0,0,1-5.7,2.2,11.74,11.74,0,0,1-5.85-1.29,10.6,10.6,0,0,1-1.29-.79,11.1,11.1,0,0,1-1.14-1,18.75,18.75,0,0,1-1.92-2.17,20.12,20.12,0,0,1-2.78-5,20.52,20.52,0,0,1-1.17-10.89c.28-1.75.67-3.41.86-5a9.1,9.1,0,0,0-.38-4.48,5.58,5.58,0,0,0-1.1-1.79,6.91,6.91,0,0,0-.78-.75l-.43-.35-.38-.28-.27-.19-.13-.08-.15.05-.35.13L248,451a22,22,0,0,1-2.3.56,84.32,84.32,0,0,1-8.65.94l-7.62.63-7.22.6c-2.41.19-4.85.42-7.34.48a33,33,0,0,1-7.57-.59,32.32,32.32,0,0,1-7.2-2.58c-2.28-1.08-4.46-2.28-6.66-3.35a42.51,42.51,0,0,0-6.76-2.65A76.35,76.35,0,0,0,172,442.56c-2.49-.21-5.05-.46-7.5-.57a20.54,20.54,0,0,0-7.06.71,15.48,15.48,0,0,0-5.87,3.79c-.94.84-1.89,1.74-3,2.58a17.59,17.59,0,0,1-3.5,2.25,19.93,19.93,0,0,1-8,1.92,26,26,0,0,1-8.1-1,33.57,33.57,0,0,1-7.42-3.21c-1.16-.66-2.29-1.38-3.38-2.13l-1.43-1-.1.31-.05.15-.23.53a17.49,17.49,0,0,1-1.61,3,11.6,11.6,0,0,1-5.48,4.41,11.13,11.13,0,0,1-3.56.68,12.6,12.6,0,0,1-3.53-.5A15.27,15.27,0,0,1,96.28,451a16.74,16.74,0,0,1-3.94-5.52,26.61,26.61,0,0,1-1.9-6.29,53.14,53.14,0,0,1-.71-6.32l-.09-1.56,0-.33c0-.07,0-.14-.05-.15l-.84-.67c-.43-.33-.82-.7-1.22-1.07a46.59,46.59,0,0,1-8.06-9.86A78.48,78.48,0,0,1,73.74,408c-1.6-3.84-3-7.75-4.17-11.68a14.69,14.69,0,0,1-.45-6.88,12,12,0,0,1,1.13-3.39c.07-.14.15-.27.23-.4l.11-.2s0-.08,0,0,0,0,0,0l0-.05.09-.1-.17-.06-.07,0c-.13-.07-.34-.19-.5-.3a9.59,9.59,0,0,1-1-.69A13.08,13.08,0,0,1,66,380.69a15.49,15.49,0,0,1-2.24-8.63,24.57,24.57,0,0,1,1.85-8.3c.5-1.28,1.07-2.52,1.67-3.73l.93-1.78c.16-.3.29-.55.34-.67s0,0,0-.06l0,0,0,0-.16-.2L68,356.8A12.59,12.59,0,0,1,66.78,355l-.53-1-.42-1c-.14-.33-.29-.65-.41-1l-.32-1a23.24,23.24,0,0,1-1-8.27,19.16,19.16,0,0,1,2.24-8.12,15.05,15.05,0,0,1,1.19-1.83A19,19,0,0,1,69,331.19c.47-.44,1.43-1.14,1.16-.94l0,0,0,0h0l-.1-.12-.2-.23c-.25-.31-.49-.64-.71-1A11.46,11.46,0,0,1,68,326.69a11.07,11.07,0,0,1-.64-2.42A10.52,10.52,0,0,1,67.3,323l0-1.13a13.18,13.18,0,0,1,1-4.65,8.23,8.23,0,0,1,3.38-3.94,10.44,10.44,0,0,1,4.71-1.41,20,20,0,0,1,4.47.18A50.94,50.94,0,0,1,89,314l-2.54,2.23-.09-.54-.78-4.36,3.78,2.35c.37.22.64.45,1,.68l.19.13h0l.21.07,2,.67c1.33.44,2.65.89,3.9,1.23.59.16,1.29.29,2,.43l2,.42c1.36.21,2.7.47,4.06.64a105.89,105.89,0,0,0,16.41.89,177,177,0,0,0,32.53-4.2c21.36-4.55,42.08-11.42,63.26-14.54a197.94,197.94,0,0,1,62.1.69c2.48.46,5,.87,7.39,1.42,1.22.26,2.45.5,3.66.78l3.61.88c2.41.56,4.77,1.28,7.14,1.9l3.51,1.08,1.28.39c0,.05.16-.06.25-.1l.58-.29a16.58,16.58,0,0,1,7.59-2.2,8,8,0,0,1,4.21,1.29,11.12,11.12,0,0,1,1.65,1.37,14.14,14.14,0,0,1,1.25,1.6,9.76,9.76,0,0,1,1.68,3.75,10.64,10.64,0,0,1,.08,4.09,11.86,11.86,0,0,1-1.35,3.78l-.53.84-.12.15-.14.15-.07.07s-.07.05,0,.05a1.08,1.08,0,0,1,.28.11.57.57,0,0,1,.13.08,2.39,2.39,0,0,1,.28.2l.33.31a6.39,6.39,0,0,1,1.72,2.91,12.25,12.25,0,0,1,.05,5.77,20.38,20.38,0,0,1-1.76,5c-.19.39-.41.77-.63,1.15l-.34.56-.15.22c-.07.08-.14.17-.22.25l-.11.12-.07.06h.07a1,1,0,0,1,.44.15l.05,0s-.07-.06,0,0l.41.31a9.4,9.4,0,0,1,.74.66,12.8,12.8,0,0,1,2.11,2.94,16.73,16.73,0,0,1,2,6.45,14.3,14.3,0,0,1-1.07,6.45,13.86,13.86,0,0,1-.7,1.45c-.14.24-.26.47-.41.7l-.22.34-.05.08,0,0,0,.05a3.52,3.52,0,0,1-.33.4,1.53,1.53,0,0,1-.18.18l-.09.09,0,0h.06a2.08,2.08,0,0,1,.55.12,5.19,5.19,0,0,1,1,.49,10,10,0,0,1,2.79,2.43,10.39,10.39,0,0,1,2.21,6.7,13.17,13.17,0,0,1-1.84,6.46,17.17,17.17,0,0,1-4.31,4.76,6.17,6.17,0,0,0-.57.44c-.14.13-.39.31-.26.52a3.17,3.17,0,0,0,.51.37,3.78,3.78,0,0,1,.35.24c.22.17.43.35.64.54a8.69,8.69,0,0,1,2.65,5.83,10.64,10.64,0,0,1-1.42,6,14.25,14.25,0,0,1-1.72,2.44,6.61,6.61,0,0,1-.52.53l-.26.24-.14.12-.07.05,0,0,0,0a5,5,0,0,1,1.12.59,8.33,8.33,0,0,1,1.85,1.85,7.29,7.29,0,0,1,1.09,2.31,6,6,0,0,1,.18,2.51,8.07,8.07,0,0,1-2.19,4c-.25.26-.5.51-.76.75s-.36.33-.51.45-.61.46-.93.68c.2.14.48.28.71.42l.36.23.18.12.23.17a7.18,7.18,0,0,1,2.87,7.88,11.6,11.6,0,0,1-2.33,4.62c-.25.31-.56.67-.77.9l-.54.57-.57.54-.29.26-.08.07s.05,0,.06,0l.19,0a4.49,4.49,0,0,1,.91.23l.42.18.46.24a9.28,9.28,0,0,1,2.07,1.65,8.72,8.72,0,0,1,2.23,4.22,8.71,8.71,0,0,0-2.43-4.14,9,9,0,0,0-2.08-1.51,6.24,6.24,0,0,0-2.23-.67c-.63.05-.1-.28.09-.5s.48-.5.72-.76.48-.54.72-.83.52-.64.76-1a10.67,10.67,0,0,0,2-4.61,6.68,6.68,0,0,0-1-4.92,7.56,7.56,0,0,0-1.92-1.77c-.82-.55-1.83-1-2.72-1.53a18.44,18.44,0,0,0,3.43-3,6.16,6.16,0,0,0,1.64-3.55,5.71,5.71,0,0,0-1.35-3.64,6.8,6.8,0,0,0-.71-.71c-.13-.1-.25-.22-.39-.31l-.21-.15-.29-.18a17.6,17.6,0,0,0-2.88-1.25c.73-.79,2-1.84,2.69-2.71a12.26,12.26,0,0,0,1.49-2.33,8.59,8.59,0,0,0,.85-5.25,6.34,6.34,0,0,0-2.67-4.35,9.06,9.06,0,0,1-1.74-1.24,1.61,1.61,0,0,1-.46-.79,1.58,1.58,0,0,1,.19-.94,5.64,5.64,0,0,1,1.44-1.56c.64-.51.89-.71,1.27-1.05a13.57,13.57,0,0,0,3.33-4.4,10.48,10.48,0,0,0,.92-5.23,7.56,7.56,0,0,0-2-4.59,7.19,7.19,0,0,0-2-1.5c-.75-.59-3.7-.76-5.64-1l.16-.21.26-.26.52-.51,1.09-1.09,1.06-1.1c.3-.36.56-.72.84-1.09a11.53,11.53,0,0,0,1.23-2.49,11.18,11.18,0,0,0,.54-5.32,15.56,15.56,0,0,0-1.94-5.05,8.7,8.7,0,0,0-1.56-1.92,3,3,0,0,0-.42-.33l-.11-.08c-.13-.05-.26-.18-.4-.19l-.88-.17c-.31,0-.56-.12-.9-.16l-1.07-.13-1.92-.23c.47-.5,1.28-1.22,2-1.89.34-.34.75-.7,1-1a6.13,6.13,0,0,0,.82-1l.33-.45.16-.27c.1-.16.2-.33.29-.5.19-.34.36-.69.52-1a16.29,16.29,0,0,0,1.33-4.39,7.72,7.72,0,0,0-.25-3.9,2.83,2.83,0,0,0-.84-1.17l-.21-.15a2,2,0,0,0-.54-.27l-1.36-.39-2.77-.73,1.73-1.68.91-.89c.29-.29.52-.59.78-.88l.37-.45c.07-.09.09-.14.14-.21l.24-.39a8.42,8.42,0,0,0,1-4.2,6.7,6.7,0,0,0-.89-3,9,9,0,0,0-2-2.4,4.16,4.16,0,0,0-2.35-.9,7.39,7.39,0,0,0-2.69.38,19.31,19.31,0,0,0-2.69,1.07l-.65.31-.74.38-1.11.58-.27.14c-.1,0-.22-.05-.33-.08l-.67-.2-3.83-1.19c-1.16-.38-2.35-.7-3.53-1l-3.53-1-3.55-.88c-2.36-.62-4.76-1.06-7.12-1.6s-4.76-.93-7.15-1.3a193.92,193.92,0,0,0-28.61-2.54A189.2,189.2,0,0,0,219.5,303a260.92,260.92,0,0,0-27.23,5.3c-17.84,4.32-35.24,9.43-52.85,11.89a138.6,138.6,0,0,1-26.31,1.41,96,96,0,0,1-12.93-1.49L97,319.48a31,31,0,0,1-3.15-.88l-3-1L89.21,317l-.73-.54c-.21-.15-.41-.31-.62-.44l1.24-.83c0,.19.07.37.1.54l.23,1.33-1.28-.41a45,45,0,0,0-8.31-2,15.63,15.63,0,0,0-4.1,0,6.69,6.69,0,0,0-3.48,1.52c-1.89,1.67-2.32,4.61-2.22,7.21a8.34,8.34,0,0,0,1.19,3.61c.17.28.35.54.54.8l.3.38.17.2c.09.09.16.18.25.26a22.88,22.88,0,0,0,2.31,1.95c0,.07-.17.12-.25.18l-.31.16-.63.34c-.41.23-.84.43-1.25.68a4.78,4.78,0,0,0-.59.41l-.37.28a4,4,0,0,0-.7.61,10.92,10.92,0,0,0-1.22,1.41l-.53.77c-.18.26-.3.56-.45.83a17.28,17.28,0,0,0-1.77,7.33,20.86,20.86,0,0,0,1.18,7.48c.22.58.49,1.15.73,1.73s.59,1.1.93,1.62l.54.75c.2.27.32.43.64.83a2.44,2.44,0,0,1,.19,2.55c-.32.71-.63,1.2-.92,1.79s-.59,1.14-.86,1.72c-.55,1.15-1,2.32-1.48,3.51a20.42,20.42,0,0,0-1.34,7.27,12.91,12.91,0,0,0,2.09,6.82,10.32,10.32,0,0,0,2.39,2.58,7.89,7.89,0,0,0,1.78,1l1.35.44c.43.13.91.24,1.3.38-.56.53-1.15,1.11-1.69,1.71a11,11,0,0,0-.72.93c-.11.22-.25.42-.35.64a9.81,9.81,0,0,0-.86,2.82,12.69,12.69,0,0,0,.6,5.94A120.21,120.21,0,0,0,76.53,408c3.28,7.6,7.57,14.84,13.68,20.06l1.3,1,.42.35c.06.06.18.09.18.18v.26l0,1c.06,1.06.11,2,.19,3a42.46,42.46,0,0,0,.82,5.91c.84,3.84,2.52,7.48,5.5,9.83a12.19,12.19,0,0,0,4.94,2.47,8.31,8.31,0,0,0,5.26-.48,9.24,9.24,0,0,0,4-3.51,15.49,15.49,0,0,0,1.3-2.45l.13-.33c.08-.18.13-.34.2-.51.12-.35.25-.68.36-1l.66-2.08c.65.45,1.32,1,2,1.5l1,.74.74.53c.92.64,1.85,1.25,2.79,1.82a34.31,34.31,0,0,0,5.91,2.88,22.77,22.77,0,0,0,12.62,1.07,15.67,15.67,0,0,0,5.66-2.5c1.7-1.2,3.22-2.77,5-4.22a20.44,20.44,0,0,1,2.79-2,13.89,13.89,0,0,1,3.24-1.35,22.57,22.57,0,0,1,6.74-.68c2.22.07,4.36.29,6.5.46s4.28.39,6.41.66a60.32,60.32,0,0,1,12.59,2.8c4.11,1.42,7.75,3.64,11.41,5.4a32.49,32.49,0,0,0,5.58,2.2,25.2,25.2,0,0,0,5.82.88,113.73,113.73,0,0,0,12-.58l12-.92c4-.35,7.91-.39,11.51-1.54l1-.35.27-.1c.09,0,.18-.08.25,0l.48.32c.3.2.66.45.9.63s.41.32.62.5a8.43,8.43,0,0,1,2.13,2.55,10.39,10.39,0,0,1,.88,6.35c-.25,2-.74,3.9-1,5.72a18.51,18.51,0,0,0,.08,5.41,19,19,0,0,0,4.56,9.59c.29.35.62.64.93,1a7.71,7.71,0,0,0,1,.77,9.43,9.43,0,0,0,2.25,1.11,9.83,9.83,0,0,0,5,.31,7.07,7.07,0,0,0,2.25-.87,5.61,5.61,0,0,0,1.67-1.62,5.36,5.36,0,0,0,.9-2.12,5.59,5.59,0,0,0-.11-2.3,5.83,5.83,0,0,0-.67-1.56c-.09-.13-.17-.27-.27-.39a2.9,2.9,0,0,0-.45-.51,16.61,16.61,0,0,0-1.69-1.33.56.56,0,0,1,0-.12l.11-.12.24-.26.47-.51c.32-.36.58-.67.88-1,.12-.15.32-.37.39-.47l.29-.35c.19-.24.37-.49.55-.74a23.2,23.2,0,0,0,2-3.25,19.58,19.58,0,0,0,1.47-3.85,16.67,16.67,0,0,0,.44-2.17,6.59,6.59,0,0,0,.07-.8l.06-.91c0-.59,0-1.26.09-1.8.75.25,1.51.47,2.3.68a8.64,8.64,0,0,0,1.72.21,9.64,9.64,0,0,0,2.9-.38,9.88,9.88,0,0,0,2.75-1.25,19.36,19.36,0,0,0,3.62-3.89l.06.05s0,0,0,0v.1l0,.41.07.81c0,.54.1,1.08.19,1.64s.15,1.1.25,1.63a6.32,6.32,0,0,0,.2.71l.15.49a14.39,14.39,0,0,0,1.92,3.66,15.56,15.56,0,0,0,6.4,5.19,12.85,12.85,0,0,0,4,1.06,13.65,13.65,0,0,0,2,.08,9.05,9.05,0,0,0,1.94-.33,7.82,7.82,0,0,0,3.33-1.87,4.27,4.27,0,0,0,1-1.49,6.48,6.48,0,0,0,.17-2.52l0,0,.07,0,.14.06.28.1a4.77,4.77,0,0,0,.57.2,8,8,0,0,0,1.14.3,4.15,4.15,0,0,0,1.64-.13,3.49,3.49,0,0,0,2.23-1.9,5.41,5.41,0,0,0,.26-2.87c-.06-.5-.19-1.11-.3-1.63l-.18-.77-.08-.37-.05-.18c0-.08.06,0,.09-.07a12.26,12.26,0,0,0,2.07.19,7.72,7.72,0,0,0,1.71-.2,10,10,0,0,0,2.91-1.15,7.82,7.82,0,0,0,3.66-4.3,6.28,6.28,0,0,0-.45-4.85,5.9,5.9,0,0,0-1.36-1.77,7.43,7.43,0,0,0-1.74-1.13,6,6,0,0,0,2.71-1.7,6.58,6.58,0,0,0,1.31-2.12A6.71,6.71,0,0,0,327.92,432.86Z" transform="matrix(-1, 0, 0, 1, 380, 0)" /><path class="cls-2 color-hair" d="M79.45,377.05c-3,2.59-3.48,6.93-2.57,10.83S81,394,84.87,395c-5.6,3.41-7.3,12.1-5.69,18.45s5.82,11.69,9.91,16.81c-2.58.86-3.78,4.2-2.78,6.72s3.55,4,6,4.43C86.11,447,89,461.26,98.86,455.36a7.6,7.6,0,0,0,1.82-10.93" transform="matrix(-1, 0, 0, 1, 380, 0)" /><path d="M100.7,444.41a4.71,4.71,0,0,1,1.76,2.86,8.25,8.25,0,0,1-1.33,6.86,7,7,0,0,1-1.52,1.5,6.76,6.76,0,0,1-.89.58,8.17,8.17,0,0,1-.93.48,7.49,7.49,0,0,1-4.18.77,5.63,5.63,0,0,1-3.52-2,8.75,8.75,0,0,1-1.56-2.8,12.29,12.29,0,0,1-.38-6.38,11.78,11.78,0,0,1,1.1-3.18l.38-.7a2.77,2.77,0,0,1,.21-.29,3.43,3.43,0,0,1-.52-.1l-.11,0h0l-.07,0-.26-.13a11.13,11.13,0,0,1-1-.57,8.15,8.15,0,0,1-3.12-3.66,7.2,7.2,0,0,1-.08-5.05A6.78,6.78,0,0,1,86,430.31l.2-.24.09-.08.1-.1.06-.05s-.06-.06-.22-.26l-.16-.19-.35-.45-.71-.89c-.93-1.18-1.82-2.37-2.67-3.6a36.09,36.09,0,0,1-4.1-7.57A24.42,24.42,0,0,1,77,412.66a23.18,23.18,0,0,1-.34-4.37,24.28,24.28,0,0,1,.49-4.27,21.31,21.31,0,0,1,1.32-4,17,17,0,0,1,2.25-3.63c.11-.14.24-.26.36-.4l.09-.09h0l0,0,.09-.06a3,3,0,0,1,.27-.15l-.41-.26a12.31,12.31,0,0,1-2.9-2.16,9.93,9.93,0,0,1-2-3,11,11,0,0,1-.8-3.21,14,14,0,0,1,.5-6,9,9,0,0,1,3.15-4.43,9.6,9.6,0,0,0-1.77,5.13,14.77,14.77,0,0,0,.94,5.77,7.56,7.56,0,0,0,2.92,3.71c.29.2.59.38.89.55l.43.23.62.3c1.35.57,2.8.93,3.88,1.27l2.22.7L86.58,396l-1.31.88c-.21.15-.45.29-.63.44l-.52.44-.41.42-.22.21a5.82,5.82,0,0,0-.4.45l-.39.47-.34.5a15.09,15.09,0,0,0-2,4.52,18.82,18.82,0,0,0,0,9.74,30.32,30.32,0,0,0,4,8.6c.86,1.31,1.77,2.56,2.69,3.77l1.49,1.9.94,1.18.5.61.24.31c0,.08,0,.15,0,.22-.46.19-1,.44-1.46.68a2.45,2.45,0,0,0-.57.39,2.26,2.26,0,0,0-.35.35,4.43,4.43,0,0,0-.8,1.5,4.56,4.56,0,0,0,.16,3.26,5.81,5.81,0,0,0,2.21,2.43,6.51,6.51,0,0,0,.73.41,5.54,5.54,0,0,0,.54.24c.22.08.43.17.67.24,1,.25,2,.49,3,.67-.52.53-1.09,1.09-1.65,1.7-.27.3-.5.6-.75.89a2.49,2.49,0,0,0-.33.47l-.18.31a10.13,10.13,0,0,0-.94,2.41,10.77,10.77,0,0,0-.07,5,5.53,5.53,0,0,0,2.3,3.59,4.68,4.68,0,0,0,4,.12,16.08,16.08,0,0,0,1.59-.71,6.17,6.17,0,0,0,1.47-1.08,7.21,7.21,0,0,0,1.88-3.45,7.66,7.66,0,0,0,0-3.6A7.08,7.08,0,0,0,100.7,444.41Z" transform="matrix(-1, 0, 0, 1, 380, 0)" /><path d="M111.73,392.42c-.21-.28.36-1.56.88-3a8.16,8.16,0,0,0,.61-4,11.48,11.48,0,0,0-2.29-4.39,15.19,15.19,0,0,1-2.92-5.72,13.45,13.45,0,0,1,.15-5.46,44.47,44.47,0,0,1,1.28-4.46,23,23,0,0,0,.92-3.68,13.8,13.8,0,0,0,0-3.27,5.69,5.69,0,0,1,2.67,3.31,5.81,5.81,0,0,1,.19,3.59c-1.13,2.64-2.22,4.75-2.53,6.93a8.45,8.45,0,0,0,0,3.1A9.59,9.59,0,0,0,112,378a23.83,23.83,0,0,1,3,5.17,7.76,7.76,0,0,1-.32,5.52A12,12,0,0,1,111.73,392.42Z" transform="matrix(-1, 0, 0, 1, 380, 0)" /><path class="cls-2 color-hair" d="M277.61,354.85c5.45,2.43,6.48,10,4.49,15.62-1,2.69-2.37,5.82-.76,8.18a9,9,0,0,0,3.65,2.54,12.78,12.78,0,0,1,6.05,5.58c1.17,2.54.8,5.94-1.42,7.63-1.18.9-3,1.84-2.53,3.24a2.28,2.28,0,0,0,.88,1c2,1.44,4.82,2,5.93,4.23,1.2,2.36-.28,5.2-2.08,7.13s-4.06,3.66-4.81,6.19a8.71,8.71,0,0,1,8.15,4.26,13.34,13.34,0,0,1,1.47,5.53,30.89,30.89,0,0,1-1,10.7c-.5,1.83-1.18,3.71-.82,5.56.74,3.85,5.53,6,6.11,9.84.52,3.46-2.51,6.29-5.08,8.67s-5.11,6-3.51,9.08c1.19,2.31,4.44,3.59,4.46,6.19a4.83,4.83,0,0,1-1.48,3.1c-3.64,4.11-7.66,4.9-12.39,6.47,1.86-.62,3.79-3.27,3.14-5.33-.8-2.57-1.91-1.38-4.24-1.89-3.67-.82-5.3-5.54-4.17-9.14s4.08-6.25,6.92-8.73a4.77,4.77,0,0,1-5.2-1,10.25,10.25,0,0,1-2.7-4.87,25.26,25.26,0,0,1,.24-14.81c1-3.15,2.67-6.64,1.14-9.58" transform="matrix(-1, 0, 0, 1, 380, 0)" /><path d="M278.08,430.27a3.33,3.33,0,0,1,.59,1.11,6.52,6.52,0,0,1,.26,2.58,17.17,17.17,0,0,1-.78,3.59c-.41,1.3-.92,2.7-1.26,4.23a25.42,25.42,0,0,0-.17,10.28,17.76,17.76,0,0,0,1.73,5.18,6.62,6.62,0,0,0,1.65,2,4.52,4.52,0,0,0,.51.34,4.85,4.85,0,0,0,.64.31l.48.14.71-.05,1.48-.52,3.47-1.43-.88.95-.19.21-.07.11-.15.21a.64.64,0,0,0-.16.3c0,.08-.05.15,0,.16s.29.08.58-.09-.07.08-.14.15l-.3.27-.6.53-1.2,1.08c-.8.72-1.56,1.44-2.27,2.17s-.94,1-1.37,1.58a9.44,9.44,0,0,0-2.31,6c0,2.27,1.22,4.69,3.16,5.41a4.61,4.61,0,0,0,1.57.27h1a3.44,3.44,0,0,1,1.59.3,3.87,3.87,0,0,1,1.74,2.5,4.24,4.24,0,0,1,.14,1.49,1.53,1.53,0,0,1-.07.4,1.47,1.47,0,0,1-.25.48,1.1,1.1,0,0,1-.54.39l.89-.33c.29-.11.55-.21.78-.32l.59-.27.66-.32c.43-.22.86-.46,1.27-.71a14.4,14.4,0,0,0,2.26-1.78,9.63,9.63,0,0,0,1.75-2.07,1.59,1.59,0,0,0,.13-1.6,7.35,7.35,0,0,0-1.7-1.91,11.26,11.26,0,0,1-2.48-2.89,6.56,6.56,0,0,1-.56-4.31,10.39,10.39,0,0,1,1.54-3.57,18.82,18.82,0,0,1,2.27-2.78l1.21-1.15c.38-.36.74-.72,1.09-1.08a14.32,14.32,0,0,0,1.82-2.2,4,4,0,0,0,.57-4.21c-.65-1.39-2.19-2.75-3.66-4.5a11.5,11.5,0,0,1-1.48-2.21,8,8,0,0,1-.81-2.85,14.26,14.26,0,0,1,.79-5.06,29.4,29.4,0,0,0,1.15-8.19c0-2.75-.29-5.57-1.49-7.37a6.74,6.74,0,0,0-4-2.82,3.72,3.72,0,0,0-1.1-.14c-.41,0-.75,0-1.22,0l-2.67.13.71-2.09a12.17,12.17,0,0,1,.89-2.21,8.91,8.91,0,0,1,.69-1.12c.12-.18.27-.36.41-.54s.3-.4.38-.48c.34-.4.69-.76,1-1.11l1.93-1.92a9.84,9.84,0,0,0,1.41-1.81,5.2,5.2,0,0,0,.73-1.85,2.37,2.37,0,0,0-.17-1.47c-.37-.86-1.71-1.6-3.35-2.43-.4-.22-.83-.44-1.26-.72l-.32-.21-.43-.29a4.74,4.74,0,0,1-.89-.84,3.19,3.19,0,0,1-.73-2.17,3.45,3.45,0,0,1,.91-2.11,4.37,4.37,0,0,1,.42-.44l.4-.35c.21-.17.41-.31.6-.45.38-.26.75-.5,1-.7a3.55,3.55,0,0,0,1-1.33,5.42,5.42,0,0,0,.13-3.75,8,8,0,0,0-2.34-3.35,17.16,17.16,0,0,0-3.73-2.44,13.45,13.45,0,0,1-2.25-1.4,5.62,5.62,0,0,1-1.78-2.46,6.21,6.21,0,0,1-.3-2.86,12.14,12.14,0,0,1,.57-2.46c.5-1.53,1.14-2.87,1.5-4.15a15,15,0,0,0,.18-7.85,8.45,8.45,0,0,0-4.24-5.6,7.7,7.7,0,0,1,4,2.88,12.38,12.38,0,0,1,2.17,5.63,16.8,16.8,0,0,1-.4,6.66c-.29,1.1-.63,2.11-.86,3.11a7.72,7.72,0,0,0-.25,2.75,2.69,2.69,0,0,0,1,1.8,10.47,10.47,0,0,0,2.32,1.25,17,17,0,0,1,5.39,3.56,10.87,10.87,0,0,1,1.88,2.53,9,9,0,0,1,1,2.88,8.27,8.27,0,0,1-.71,4.92,6.92,6.92,0,0,1-1.75,2.25,9.35,9.35,0,0,1-1,.73c-.29.19-.56.37-.78.53l-.16.12,0,0-.05,0a.28.28,0,0,0-.09.1.23.23,0,0,0,.09.25,1.52,1.52,0,0,0,.26.19c.12.08.24.17.37.24l.82.48c.58.32,1.2.64,1.85,1a8.61,8.61,0,0,1,1.91,1.54,5.55,5.55,0,0,1,1.29,2.37,6.82,6.82,0,0,1-.75,4.86,13.34,13.34,0,0,1-2.67,3.41l-1.41,1.35c-.23.22-.45.44-.65.66l-.31.33-.21.23a4.05,4.05,0,0,0-.48.65c-.09.2-.42.65,0,.52a3.72,3.72,0,0,1,.65.08l.17,0,.25.07c.27.07.54.17.81.26a10.43,10.43,0,0,1,2.91,1.73A9.38,9.38,0,0,1,296,420a11.05,11.05,0,0,1,1.11,3.06,26.45,26.45,0,0,1,.47,6.1,32.38,32.38,0,0,1-.73,5.92c-.39,1.95-1.16,3.77-1.33,5.46a5.89,5.89,0,0,0,1.63,4.58,39,39,0,0,1,3.57,4.35,6.81,6.81,0,0,1,1,2.89,6.46,6.46,0,0,1-.49,3,14.54,14.54,0,0,1-3.34,4.52,29.31,29.31,0,0,0-3.56,3.71,7.29,7.29,0,0,0-1.67,4.23,3.72,3.72,0,0,0,.61,2,9.91,9.91,0,0,0,1.57,1.71,16,16,0,0,1,1.85,1.9,4.4,4.4,0,0,1,1,2.88,5.28,5.28,0,0,1-1.09,2.72,9.64,9.64,0,0,1-.86,1c-.28.32-.58.62-.9.92a16.93,16.93,0,0,1-4.17,2.89c-.38.18-.75.37-1.13.52-.16.07-.44.2-.72.3L288,485c-1.09.39-2.17.74-3.28,1.1a3.66,3.66,0,0,0-1.77-.47,1.09,1.09,0,0,0,1-.75,3.66,3.66,0,0,0,.1-1.74,2.25,2.25,0,0,0,.86-1,1.08,1.08,0,0,0,.15-.41,1.65,1.65,0,0,0,.08-.35,1.78,1.78,0,0,0-.06-.7c0-.1-.09-.26-.13-.4s-.09-.19-.13-.26a.72.72,0,0,0-.36-.33,1.81,1.81,0,0,0-.57-.05c-.33,0-.72,0-1.12,0a6.37,6.37,0,0,1-2.42-.59,6.84,6.84,0,0,1-3.31-3.49,9.35,9.35,0,0,1-.82-4.49,12.88,12.88,0,0,1,3.74-7.65l.35-.37.24-.26.32-.3.65-.59.34-.29s.17-.13.13-.12l-.2.08a1.84,1.84,0,0,1-.84.06,1.76,1.76,0,0,1-.45-.12,1,1,0,0,1-.22-.09l-.2-.1-.26-.14a6.89,6.89,0,0,1-1.76-1.49,10.7,10.7,0,0,1-2-3.79,25,25,0,0,1-.32-13.63c.73-2.92,2-5.31,2.55-7.42a8.31,8.31,0,0,0,.27-2.78A5.93,5.93,0,0,0,278.08,430.27Z" transform="matrix(-1, 0, 0, 1, 380, 0)" /><g class="cls-3" transform="matrix(-1, 0, 0, 1, 380, 0)"><path d="M280.05,438.44c1.34-5.08,4.69-11.55.42-16.08-1.47-1.42-3.41-.85-4.36-3.08-1.56-5.66,4.7-10.95-2-15.73-3-10.26,6.47-10.94-5.16-22.85-6.68-9.14-2-22.79-4.06-33.15-3-14.81-18.16-13.35-30.89-14.39a175.63,175.63,0,0,0-94.68,18.95c-.36-.23-.71-.45-1.07-.66-5.83-3.41-12.7-6-16.17-11.79l-11.22-8.82a8.91,8.91,0,0,0-9.35,8.46c0,3.57,2.16,6.73,4.24,9.63a9.45,9.45,0,0,0-8.14.88A7.85,7.85,0,0,0,94,357c.37,3.39,3.06,5.92,5.28,8.22-2.41-2.5-4.68,14.53-4.65,15.43.23,6-.74,10.58,2.92,15.66-3.25.8-6.47,2.81-7.37,6.26-1.46,5.59,3.43,7.36,6.66,10.2,4.83,4.24,3.42,8.15,1,13.71-4.46,10.38,10.72,17.84,18.22,14a20.54,20.54,0,0,0,6.35-5.36,6.52,6.52,0,0,0,1.06,5.13c2.25,2.73,6.53,1.91,9.93,1a140.36,140.36,0,0,1,33.71-5c8.05-.21,16.39.34,23.52,4.07,3.75,2,7,4.75,10.84,6.6,12.54,6.1,27.35,1,41.29,1a14.11,14.11,0,0,1,7,1.34c4.94,2.75,5.59,9.55,5.07,15.19s-1.45,11.94,2,16.42c-3.64-5.21,4.62-10.33,5.63-15,1.14-5.27-2.85-8.31.76-13.86,2.07-4.82,2.41-8.82,7-11.68,2-1.23,2.87-3.84,5-4.74C274.8,444,270.38,457.46,282,460c-.85-3.68.61-5.1,1.42-8.34C284.77,446.3,278.86,444.12,280.05,438.44Z" /></g><g class="cls-4" transform="matrix(-1, 0, 0, 1, 380, 0)"><path class="cls-5" d="M73.1,347.08c-.32,0-.86-1.11-1.1-2.49a18.43,18.43,0,0,1-.2-3.91,11.58,11.58,0,0,1,1.16-5,14,14,0,0,1,3.22-4.29c-.07,0-.05,0-.07,0h0s0,0,0,0v0l-.16-.15-.31-.31a16.4,16.4,0,0,1-2.09-2.63,13.48,13.48,0,0,1-2-5.21,16.61,16.61,0,0,1,3.18,1.6,5.33,5.33,0,0,1,1.9,1.64,11.43,11.43,0,0,0,1.5,2.51l.11.14.19.21.42.41.82.75c.54.47,1.1.9,1.53,1.29l-1.51.78-1.34.82-.3.21-.24.2-.36.31a8.47,8.47,0,0,0-.67.67,11.31,11.31,0,0,0-1.89,3,16.75,16.75,0,0,0-.92,3c-.16,1-.31,1.91-.39,2.8,0,.56-.19,1.35-.28,2.08S73.15,346.84,73.1,347.08Z" /></g><path d="M99,457.46c0-.1.13-.21.35-.18a.72.72,0,0,1,.57.64v0l-.1.25a11.91,11.91,0,0,1-1.55,2.22A7.19,7.19,0,0,1,88.8,462a5.21,5.21,0,0,1-2.23-3.06c.9-.25,1.75-.42,2.38-.53s1-.13,1.17.09a3.47,3.47,0,0,0,2.11,1.72,4,4,0,0,0,2.39-.08,15.85,15.85,0,0,0,3.29-2.06,3.94,3.94,0,0,1,1.14-.43v.26c-.06,0,0,0,0-.05a.25.25,0,0,0,0-.17A.35.35,0,0,0,99,457.46Z" transform="matrix(-1, 0, 0, 1, 380, 0)" /><g class="cls-3" transform="matrix(-1, 0, 0, 1, 380, 0)"><path d="M315.84,452.8c-3.5-4.46-2.46-10-.26-14.55-3.71-1.4-6.91-3.72-6.93-7.5-.07-1.37.81-6.87,3.52-6.23-8-1.72-9.63-11.65-2.51-15.23-2.37-2.32-6.6-2.83-8.7-5.34-3.24-5-.62-7.77,3.53-10.83.25-1.45-3.25-3-4.05-4.28a5.91,5.91,0,0,1-.22-6.52c2.14-3.34,5.9-1.88,8.42-3.86,1.95-1.53.72-4.06,3.54-5.59-4.25-5,3.18-7.51.88-11.59-3.25-6.67,2.64-13.11-.43-20.19-4.47-9.94-20.5-7.29-29.62-11.53-10.94,7.43-9,9-8.9,20,5.88,2.27,9.72,9.82,4.25,14.68,6.91-4.21,3.8,8.22,3.78,10.46-.05,7.07,6.22,6.2,9.79,10.78a6.26,6.26,0,0,1,.32,7.06c-1.35,2.1-4.08,4.54-2.46,6.45.66.76,1.77.93,2.61,1.49,2.44,1.67,1.29,5.54-.57,7.84s-4.37,4.69-3.93,7.61c1.77,2.1,5.45,1.81,7,4.06.88,1.26.81,2.93.7,4.46L294.75,437c-.13,2-.25,4.13.68,5.91.82,1.59,2.35,2.68,3.38,4.13,2.48,3.51,1.56,7.7-1.11,10.56-2.4,2.57-7.18,5.23-.45,6.83,9.37,2.24,14.27-4.54,12.4-12.69C310.85,451.71,315,451.76,315.84,452.8Z" /></g></svg>