<svg xmlns="http://www.w3.org/2000/svg" id="a" viewBox="0 0 380 600"><defs><style>.c{fill:blue;}.d{fill:#fff;}.e{fill:none;opacity:.2;}</style></defs><path class="c color-hair" d="m88.5,305.16s-13.02,21.85,0,36.24c-.39-.41-22.58-23.95-21.57-47.23.98.88,13.95,11,21.57,10.99Z"></path><path d="m88.5,305.19c-.23.11-1.51.23-3.34-.15-1.82-.38-4.12-1.26-6.46-2.41-2.35-1.15-4.74-2.57-6.89-3.95-1.52-1-2.89-1.91-3.88-2.56l-.02-.02c.05.85.16,1.7.22,2.34.24,1.43.48,2.88.73,4.34.39,1.44.72,2.9,1.15,4.35.51,1.43.93,2.88,1.51,4.3,2.23,5.68,5.25,11.11,8.52,16,3.08,4.62,6.53,9.04,9.81,12.69l-2.73,2.52c-2.71-3.06-4.59-6.76-5.37-10.51-.83-3.74-.74-7.42-.2-10.77.53-3.36,1.51-6.42,2.63-9.17,1.14-2.75,2.43-5.18,3.86-7.31-.88,3.09-2.03,7.41-2.67,11.5-.7,4.09-.73,7.87-.8,9.83-.12,2.75.18,5.46,1.02,7.93.82,2.47,2.11,4.7,3.67,6.56l-1.5,1.39c-3.5-4.1-6.51-8.2-9.21-12.27-2.7-4.07-5-8.13-6.92-12.16-1.01-1.99-1.77-4.04-2.59-6.02-.34-1.02-.67-2.02-.99-3.01-.15-.5-.34-.98-.47-1.49-.12-.5-.24-1-.36-1.5-.22-1-.51-1.97-.67-2.96-.14-.99-.27-1.98-.41-2.94l-.1-.73-.05-.36c-.01-.13-.01-.34-.02-.51-.02-.71-.03-1.42-.05-2.12-.01-.71-.03-1.41-.04-2.1l-.02-1.04v-.52c-.01-.17-.03-.38.02-.43,1.08.89,2.22,1.87,3.27,2.65l.79.6.73.54c.33.24.66.47.99.71,1.31.93,2.6,1.8,3.87,2.63,1.98,1.26,4.68,3.01,7.22,4.23.64.3,1.25.61,1.85.82.3.12.58.23.86.34.28.08.55.17.8.24.26.08.5.15.72.22.23.05.44.08.63.11.39.07.69.12.89.16Z"></path><path class="c color-hair" d="m239.42,195.26s34.69.48,43.27,26.63c1.86,3,2.77,16.51,2.77,16.51,0,0-19.95-25.06-36.45-20.22,0,0-2.58-10.32-9.58-22.93Z"></path><path d="m239.45,195.24c.43.3,2.5,3.65,4.64,8.13,1.07,2.24,2.17,4.76,3.16,7.28.5,1.26.96,2.52,1.39,3.75.2.61.41,1.21.6,1.79.11.35.22.7.33,1.03.24-.05.48-.13.7-.19l.16-.05s.06-.01,0,0h.08s.15-.04.15-.04c.2-.03.4-.06.6-.09.78-.15,1.5-.17,2.15-.22,3.23-.13,6.54.62,9.63,1.87,3.11,1.23,6.03,2.96,8.81,4.88,2.77,1.94,5.38,4.1,7.84,6.39.62.57,1.22,1.15,1.82,1.74l1.48,1.49.23.18c0-.09-.05-.25-.07-.3v-.02s-.01,0-.01,0l-.03-.22-.14-1.15-.33-2.28c-.24-1.5-.5-3.01-.85-4.4-.1-.33-.18-.7-.29-.99-.1-.31-.21-.62-.32-.79l-.21-.44-.14-.37-.19-.51-.38-1.02c-.54-1.35-1.15-2.66-1.86-3.91-2.8-5.02-6.97-9.02-11.54-11.96-4.58-2.96-9.51-4.94-14.21-6.35-4.7-1.4-9.22-2.26-13.22-2.67,3.63-.67,9.16-.61,14.28.32,5.14.87,9.83,2.71,12.08,4.07,7.44,4.35,13.36,10.6,16.33,17.71l.56,1.32.47,1.34.23.67.12.33c.02.06,0,0,.08.17.26.5.39.95.55,1.42.53,1.83.79,3.61,1.05,5.37.12.88.23,1.75.33,2.61.11,1.01.21,2,.32,2.99.1,1.15.2,2.3.29,3.43.04.56.08,1.12.13,1.67l.06.84v.21c.02.07.03.16,0,.14-.04.02-.07.04-.11.07-.98-1.19-1.98-2.41-2.94-3.51-.48-.56-.96-1.07-1.44-1.6-.41-.43-.82-.86-1.23-1.29-1.39-1.42-2.81-2.78-4.24-4.05-2.86-2.56-5.82-4.8-8.83-6.66-3.01-1.85-6.11-3.29-9.22-4.11-1.56-.38-3.11-.6-4.63-.64-.76.03-1.51.02-2.24.15l-.55.07c-.24.03-.58.13-.87.19-.59.14-1.18.27-1.77.41-.25-.99-.52-1.98-.76-2.8-.18-.59-.36-1.18-.54-1.75-.36-1.15-.74-2.27-1.12-3.37-.95-2.67-2.23-6.32-3.52-9.49-1.26-3.18-2.49-5.87-2.88-6.77Z"></path><path class="c color-hair" d="m244.02,218.4s4.32-28.44-20.03-40.07c-36.65-17.5-97.74,8.06-113.6,19.01-13.88,9.58-20.08,21.13-20.08,21.13,0,0,29.05,5.66,36.77,16.64,2.21,3.14-11.03,40.18-9.02,42.73,5.92,7.48,14.05,12.5,14.05,12.5,0,0,3.59-50.81,14.19-51.94,36.03-3.84,64.87-37.51,97.72-20Z"></path><path d="m244.01,218.43c-.91-.2-5.22-2.7-12.28-4-3.52-.61-7.69-.83-12.18-.29-4.49.51-9.27,1.7-14.07,3.35-9.61,3.35-19.32,8.36-28.45,12.41-4.56,2.04-8.98,3.85-13.09,5.27-4.1,1.43-7.88,2.45-11.07,3.15-1.21.22-2.41.5-3.64.68l-1.85.27-.93.13c-.24.04-.43.08-.65.17-.85.33-1.64,1.12-2.3,2.03-.66.93-1.22,1.98-1.72,3.07-1.96,4.42-3.13,9.37-4.17,14.35-1.01,5.01-1.78,10.15-2.44,15.38-.33,2.62-.62,5.25-.89,7.91-.12,1.33-.25,2.67-.37,4l-.24,2.88c-.09,1.23-.17,2.46-.26,3.69-.9-.52-1.83-1.13-2.77-1.72-.46-.31-.96-.63-1.37-.93l-1.16-.82c-1.07-.78-2.11-1.59-3.13-2.43-2.04-1.69-4.02-3.5-5.85-5.48-.45-.51-.91-1-1.35-1.52l-.65-.78-.22-.26c-.09-.11-.19-.23-.24-.37-.17-.25-.26-.54-.32-.83-.12-.69-.09-1.06-.07-1.45.02-.39.06-.74.1-1.1.09-.71.21-1.38.34-2.05.52-2.67,1.18-5.24,1.85-7.81,1.39-5.11,2.78-10.23,4.16-15.33.68-2.54,1.33-5.09,1.9-7.61.28-1.26.54-2.52.73-3.75.09-.61.17-1.22.2-1.78.02-.28.02-.54,0-.73,0-.11,0-.08-.01-.1,0-.01,0-.02-.02-.03l-.29-.37c-.12-.15-.22-.3-.36-.45l-.79-.85-.86-.8-.91-.76c-1.25-.98-2.6-1.86-3.99-2.67-2.79-1.6-5.75-2.92-8.74-4.09-3.28-1.27-6.63-2.36-9.94-3.3-1.65-.47-3.29-.91-4.91-1.3-.88-.21-1.75-.41-2.61-.61l-1.09-.24-1.2-.25c-.81-.16-1.62-.32-2.42-.48.56-.99,1.04-1.95,1.65-2.95.3-.49.59-.99.91-1.48l.58-.88c.69-1.01,1.4-1.99,2.14-2.95,1.47-1.93,3.04-3.76,4.7-5.51,3.29-3.52,6.93-6.67,10.8-9.45,1.92-1.42,3.99-2.69,6.03-3.83,2.05-1.17,4.12-2.24,6.21-3.27,4.17-2.05,8.4-3.9,12.64-5.6,8.49-3.41,17.08-6.16,25.64-8.34,4.29-1.07,8.57-1.98,12.84-2.73,4.28-.71,8.53-1.26,12.76-1.61,4.23-.3,8.43-.42,12.57-.28,4.14.19,8.22.58,12.2,1.32,7.91,1.56,15.51,4.19,21.67,8.83,3.02,2.35,5.63,5.12,7.65,8.18,1.02,1.52,1.88,3.12,2.65,4.73.73,1.63,1.38,3.27,1.88,4.94,1.02,3.33,1.59,6.68,1.84,9.96.23,3.29.18,6.48-.27,9.6.19-3.09.02-6.46-.51-10.04-.53-3.57-1.5-7.32-3.05-10.96-1.53-3.64-3.73-7.13-6.52-10.11-2.79-2.97-6.14-5.42-9.78-7.17-7.32-3.54-15.25-5.05-22.12-5.61-6.9-.59-12.83-.3-16.9-.04-9.68.6-19.17,2.27-28.28,4.61-9.13,2.33-17.92,5.28-26.3,8.73-4.19,1.73-8.27,3.58-12.21,5.59-3.95,2.03-7.68,4.22-11.09,6.88-3.42,2.62-6.57,5.51-9.41,8.62-1.42,1.56-2.75,3.17-4.01,4.82-.63.83-1.23,1.67-1.81,2.52l-.33.49-.25.39-.24.39-.12.2-.06.1-.03.05s.03,0,.05.01l1.6.36c.86.21,1.73.42,2.59.63,1.72.44,3.43.91,5.12,1.4,3.38.99,6.68,2.11,9.89,3.37,3.2,1.27,6.3,2.7,9.2,4.42,2.88,1.76,5.61,3.71,7.65,6.51.29.38.38.93.4,1.33.02.4.02.78-.01,1.14-.05.73-.15,1.44-.26,2.14-.23,1.4-.53,2.76-.84,4.11-.63,2.7-1.33,5.36-2.04,7.98-1.42,5.25-2.9,10.39-4.22,15.47-.65,2.54-1.29,5.06-1.74,7.56-.11.62-.2,1.24-.24,1.84-.02.29-.03.62-.01.81.01.17.05.37.19.5.73.9,1.6,1.9,2.45,2.78,1.72,1.81,3.56,3.49,5.45,5.05.96.77,1.92,1.53,2.9,2.24l.92.65.41.27.21.13.1.06s.07.05.06-.01c.05-.69.11-1.37.16-2.06.11-1.16.22-2.32.32-3.48.23-2.31.48-4.6.75-6.87.55-4.54,1.19-9.01,1.98-13.4.79-4.38,1.7-8.69,2.95-12.87.63-2.09,1.34-4.15,2.25-6.15.94-1.97,1.98-3.98,3.93-5.51.51-.36,1.07-.69,1.72-.86.29-.08.72-.15.93-.18l.76-.1c1.01-.15,2.03-.24,3.02-.44,1-.19,2-.35,2.98-.56.98-.23,1.97-.45,2.94-.68,3.89-.98,7.67-2.24,11.34-3.62,7.35-2.77,14.28-6.06,21.13-9.13,4.29-1.93,9.39-4.18,14.92-6.06,5.5-1.91,11.47-3.36,17.17-3.7,2.84-.21,5.6-.03,8.15.23,1.27.21,2.5.38,3.65.65.57.14,1.13.28,1.68.42.27.07.54.14.81.2.26.09.52.17.77.26,1,.36,1.97.61,2.82,1,.85.36,1.64.7,2.34,1,1.37.7,2.44,1.26,3.15,1.62Z"></path><path d="m262.17,198.77c-.48.46-2.92-1.05-4.08-1.08-1.97-.19-3.99-.65-5.7-.49-1.49.12-2.81.38-4.05.83-1.21.45-2.42,1.09-3.4,1.68-.51-.79-.53-1.95-.25-2.85.27-.93.85-1.62,1.3-1.73,3.6-.91,6.23-.7,8.61-.43.58.11,1.18.12,1.71.27.54.13,1.07.26,1.57.39.98.33,1.87.72,2.61,1.24.71.49,1.55,1.89,1.68,2.18Z"></path><path class="c color-hair" d="m249,218.18s17.04,4.95,22.74-9.39c5.7-14.34-6.38-31.36-25.82-31.13s-1.85,21.48-1.85,21.48"></path><path d="m244.05,199.17c-.49-.14-3.19-3.2-5.49-7.35-1.11-2.08-2.18-4.44-2.46-6.87-.15-1.21-.07-2.43.3-3.51.34-1.1,1.05-1.92,1.66-2.51,1.12-1.03,2.54-1.64,3.94-1.99.71-.22,1.41-.28,2.13-.42.71-.05,1.44-.16,2.15-.15,2.84-.02,5.8.13,8.66.94,1.45.3,2.83.88,4.22,1.41.71.23,1.33.66,2,.98.65.36,1.34.65,1.94,1.1.61.42,1.22.84,1.83,1.26.61.42,1.13.95,1.69,1.42,1.16.91,2.06,2.08,3.04,3.13,3.15,3.94,5.11,8.87,5.34,13.86,0,2.48-.23,4.97-1.04,7.25-.64,2.32-1.82,4.44-3.28,6.28-1.46,1.84-3.35,3.27-5.32,4.24-1.98.97-4.04,1.47-6.01,1.69-3.96.39-7.5-.21-10.5-1.23,2.93-.02,6.96-.28,10.41-1.33,1.72-.51,3.25-1.22,4.47-1.95,1.22-.73,2.13-1.49,2.78-2,1.3-1.03,2.4-2.33,3.25-3.8.42-.74.8-1.5,1.07-2.31.3-.79.64-1.58.77-2.41.8-3.27.61-6.68-.32-9.77-.9-3.11-2.62-5.86-4.66-8.12-2.05-2.26-4.43-4.13-7.02-5.38l-.95-.5-.99-.39c-.66-.25-1.31-.51-1.96-.76-.67-.17-1.34-.35-2-.52l-.99-.26c-.33-.06-.67-.1-1-.15-.66-.09-1.32-.19-1.98-.28-.65-.1-1.31-.06-1.96-.09-.65-.02-1.29-.03-1.93-.05-.63.05-1.26.05-1.86.14-1.22.14-2.36.42-3.37.85-1,.45-1.77,1.11-2.24,1.94-.95,1.68-.58,3.98.01,5.99.57,1.94,1.72,4.58,2.9,6.84,1.18,2.26,2.35,4.15,2.75,4.77Z"></path><g class="e"><path class="d" d="m269.23,202.64c-.17-.1-.25-.89-.67-1.73-.18-.35-.41-.69-.69-.97-.14-.14-.29-.26-.44-.36-.08-.05-.16-.1-.23-.14-.06,0-.06.19-.09.27-.14.63-.27,1.21-.36,1.62-.69,2.86-2.11,5.88-3.9,8.51l-2.35-1.35c.32-.85.59-1.7.78-2.56.68-3.09.69-6.36.79-9.43.08-3.06.31-5.94.9-8.16,1.06,2.11,2.03,5.8,1.86,7.2-.33,2.57-.53,5.05-.87,7.35-.36,2.31-.88,4.46-1.68,6.37l-1.01-.58c1.25-1.79,2.19-3.59,2.95-5.32.38-.86.71-1.7,1.02-2.52.1-.27.19-.53.29-.79.11-.33.22-.65.33-.98.21-.64.41-1.26.61-1.88.09,0,.19,0,.27.01.11.05.26.19.39.28.42.33.88.71,1.28,1.25.4.53.7,1.18.85,1.76.25,1.07.06,1.87-.01,2.13Z"></path></g><path class="c color-hair" d="m219.12,215.85s23.81-1.07,32.31,2.11c0,0,16.17-29.46-2.81-41.92-18.98-12.45-31.43-4.71-31.43-4.71l-2.36,23.08,4.29,21.44Z"></path><path d="m219.09,215.85c-.29-.39-1.01-3.33-1.91-7.37-.88-4.07-2-9.24-3.05-14.04.19-2.21.37-4.35.54-6.28.14-1.9.27-3.6.37-4.96.13-1.95.27-3.93.4-5.94.07-1,.15-2.02.22-3.03l.12-1.53c.04-.34.07-1.49.28-2.21.37-.22.73-.44,1.12-.64.46-.22.67-.33.93-.44.51-.22,1.03-.43,1.55-.6,1.05-.37,2.12-.65,3.21-.86,2.17-.4,4.41-.6,6.63-.46,4.44.19,8.8,1.36,12.78,3.12,1.97.92,3.92,1.86,5.72,2.99,1.83,1.01,3.69,2.36,5.26,3.88,1.38,1.35,2.54,2.92,3.52,4.59.92,1.7,1.62,3.49,2.12,5.32.45,1.84.71,3.69.81,5.53.07,1.84,0,3.66-.18,5.44-.39,3.57-1.22,6.99-2.28,10.24-.54,1.62-1.13,3.21-1.78,4.75-.32.77-.66,1.53-1.01,2.28l-.53,1.12-.3.61-.51.99-.53.97-.26.48c-.03.12-.12.08-.2.05l-.24-.08c-.64-.2-1.28-.4-1.92-.6l-.47-.15-.22-.07-.14-.03-.54-.13-1.08-.26c-1.46-.3-2.93-.55-4.4-.74-2.94-.38-5.83-.62-8.61-.81-5.57-.35-10.75-.51-15.34-.6,4.07-.94,10.13-1.69,15.91-1.93,2.89-.12,5.71-.08,8.18.07,2.47.19,4.59.48,6.05.92l.53.14.27.07c.08.02.05.02.09.04l.24.12.13.07s.03,0,.05,0c.03-.02.05-.04.09-.07-.01.04.12-.21.18-.33l.23-.44.45-.89c.3-.59.58-1.19.85-1.8,1.1-2.41,2.02-4.86,2.76-7.32,1.47-4.91,2.17-9.94,1.54-14.69-.32-2.36-.99-4.64-2.05-6.68-1.05-2.04-2.5-3.84-4.18-5.3l-.63-.55-.68-.49c-.46-.32-.88-.67-1.38-.95-.96-.58-1.92-1.16-2.87-1.73-.98-.51-1.97-.99-2.94-1.48-.98-.48-2-.83-2.99-1.24-4-1.49-8.12-2.26-12.08-2.08-1.97.06-3.9.36-5.72.89-.91.26-1.79.58-2.61.97-.11.05-.21.1-.32.16l-.15.09s-.01.12-.02.17l-.1,1.08c-.37,3.8-.72,7.47-1.06,11.02-.18,1.77-.37,3.52-.54,5.23-.19,1.66-.37,3.3-.55,4.9.13.73.25,1.35.36,1.95,1.2,6.31,2.65,17.36,2.9,19.54Z"></path><g class="e"><path class="d" d="m248.94,182.88c.13.13.3.92.23,2.09-.07,1.17-.41,2.71-1.18,4.16l-.63,1.19-.26-1.35c-.13-.67-.26-1.35-.38-2.02-.07-.33-.15-.66-.22-.99l-.12-.48-.06-.23-.04-.15c-.23-.75-.49-1.29-.7-1.51-.17-.2-.35-.33-.52-.4l-.13-.04s.02.21.02.3c.02.2.04.41.07.62.06.59.08,1,.1,1.3,0,.02,0,.03,0,.04l-.02.24-.05.51c-.03.34-.08.69-.12,1.03-.08.69-.21,1.37-.34,2.05-.55,2.73-1.43,5.4-2.57,7.83-.74,1.59-1.61,3.12-2.49,4.42l-2.69-1.21c1.14-4.64,1.14-9.37.84-13.68-.31-4.31-.88-8.24-1.19-11.5.96,1.54,1.99,3.89,2.74,6.18.76,2.29,1.22,4.55,1.21,5.76.06,4.93-.33,9.6-1.51,13.77l-1.19-.54c2.24-3.11,3.72-6.48,4.58-9.76.43-1.64.72-3.26.88-4.83l.07-.64c.03-.29.04-.6.05-.9.02-.62.07-1.18.06-1.86-.02-.7-.04-1.4-.06-2.09-.03-.73-.06-1.46-.1-2.17h.16s.05-.06.08-.08l.16-.15.08-.07s.17.18.25.26c.19.21.37.41.53.61.67.8,1.22,1.47,1.74,2.4.51.91.97,2.05,1.29,3.26.19.69.25,1.02.32,1.43.07.4.14.8.19,1.19.1.63.17,1.36.19,1.92l-1.21-.22c.71-1.06,1.25-2.3,1.54-3.38.3-1.08.37-1.98.4-2.33Z"></path></g><path class="c color-hair" d="m172.23,175.92s11.12-21.58,35.32-19.62c24.2,1.96,32.37,19.03,30.08,34.37s-10.46,24.94-16.68,25.53c-6.21.59-19.45.86-26.82,5.85-11.18,7.56-21.9-46.13-21.9-46.13Z"></path><path d="m172.26,175.91c.45.77,2.21,8.65,4.82,17.59,1.3,4.47,2.82,9.2,4.46,13.42,1.63,4.21,3.41,7.91,5.02,10.27.7,1.04,1.46,2.06,2.34,2.89.86.84,1.87,1.49,2.78,1.55.45.04.89-.06,1.33-.29.36-.2,1.05-.66,1.65-1.03.61-.39,1.27-.68,1.91-1.03.65-.29,1.31-.58,1.98-.84,5.37-2.02,11.09-2.77,16.73-3.32l4.21-.37c1.51-.11,2.4-.29,3.53-.82,2.17-1.05,4.09-2.93,5.66-5.01,3.16-4.21,5.19-9.26,6.33-14.31.54-2.2.85-4.48,1.05-6.67.05-1.1.07-2.21.04-3.31l-.12-1.65-.06-.82-.14-.81c-.67-4.32-2.28-8.45-4.83-11.85-2.56-3.4-5.97-6.05-9.72-7.88l-1.43-.65c-.48-.21-.94-.45-1.45-.6-.99-.33-1.98-.66-2.96-.99-1.02-.23-2.03-.47-3.03-.7l-.75-.17-.77-.1-1.53-.21c-2.04-.38-4.04-.3-6.03-.42-1.97.18-3.94.19-5.81.66-3.78.72-7.34,2.04-10.46,3.9-6.27,3.66-11.09,8.78-14.28,13.85,1.9-5.07,6.85-12.01,13.53-16.35,1.62-1.15,3.41-1.98,5.11-2.82,1.77-.65,3.46-1.39,5.14-1.7.83-.19,1.62-.39,2.39-.55.78-.08,1.51-.16,2.21-.23.7-.06,1.35-.12,1.95-.17.6,0,1.16.04,1.65.06,1,.06,1.99.12,2.98.17.97.15,1.93.3,2.89.45l1.43.22c.47.08.94.22,1.41.33.93.23,1.87.47,2.79.7,3.66,1.16,7.13,2.72,10.22,4.82,3.05,2.16,5.64,4.84,7.61,7.86,1.96,3.02,3.34,6.34,4.04,9.73.71,3.39.85,6.82.54,10.14-.32,3.32-1.02,6.5-1.98,9.57-.96,3.06-2.2,5.99-3.78,8.69-1.57,2.69-3.47,5.19-5.88,7.14-1.18.99-2.52,1.82-4.02,2.33l-.56.2c-.19.05-.39.08-.59.12-.39.07-.8.16-1.15.18-.72.06-1.44.13-2.16.19-2.86.23-5.65.48-8.37.85-2.72.37-5.37.86-7.89,1.56-2.52.71-4.93,1.63-7,2.94-.46.27-1.17.78-1.94,1.01-.77.26-1.66.28-2.43.08-1.57-.41-2.69-1.38-3.63-2.35-1.83-1.99-3.07-4.22-4.18-6.42-2.18-4.43-3.73-8.88-5.09-13.22-1.31-4.11-2.71-9.82-3.74-14.88-1.04-5.05-1.74-9.44-1.94-10.89Z"></path><g class="e"><path class="d" d="m230.66,186.43c.33.39.5,4.5-.5,9.1-.49,2.3-1.27,4.71-2.35,6.78-.52,1.04-1.15,1.97-1.77,2.79-.33.39-.65.76-.95,1.11-.16.16-.33.3-.49.45-.19.17-.38.33-.55.49-.6.54-1.31.89-2.01,1.33l-.54.32-.27.16-.07.04s-.01-.04-.02-.06l-.04-.15c-.1-.4-.18-.76-.27-1.15-.18-.72-.28-1.74-.33-2.51-.04-.58-.07-1.16-.1-1.73-.09-2.31-.09-4.64-.1-6.99,0-2.34.01-4.69-.04-7.01-.02-1.16-.06-2.31-.15-3.43-.04-.56-.1-1.1-.18-1.62-.05-.25-.09-.5-.15-.71-.02-.12-.06-.19-.09-.27-.01-.05-.03-.08-.04-.08v-.02s-.07.02.11-.1l2.43-.84c.24,1.88.27,3.8-.14,5.68-.38,1.75-1.2,3.4-2.21,4.78-1.02,1.38-2.19,2.54-3.35,3.61-.59.53-1.17,1.04-1.76,1.53l-.88.73c-.53.43-1.05.85-1.58,1.28-2.23,1.78-4.41,3.53-6.54,5.24.64-1.67,1.28-3.26,1.89-5.02.3-.85.61-1.7.91-2.54.17-.45.23-.76.32-1.14l.13-.77.18-1.02.1-1.03.1-1.02.02-1.03c.05-2.72-.24-5.38-.77-7.85-.53-2.48-1.28-4.79-2.3-6.8-1.01-2-2.27-3.76-3.88-4.78,1.27.33,2.76,1.32,4.03,2.71,1.3,1.38,2.33,3.14,3.2,4.91,1.68,3.58,2.38,7.31,2.4,9.27.08,2.08-.11,4.14-.4,6.09l-.15.73-.07.36-.04.18s0,.03-.02.04l-.15.4c-.1.31-.26.66-.44,1.05l-.08.18s.05-.02.07-.03l.21-.14.49-.33c.4-.29.56-.38,1.54-1.16,1.58-1.26,3.1-2.54,4.35-3.96,1.25-1.41,2.2-2.99,2.65-4.7.44-1.71.41-3.49.21-5.2l1.06-.38c.32.55.38,1,.49,1.47.09.46.15.91.19,1.36.09.89.14,1.77.16,2.64.06,1.73.06,3.42.06,5.07-.01,3.3-.07,6.45-.04,9.46,0,.75.02,1.49.05,2.22l.02.54.02.38c.01.17.03.33.05.5.02.16.05.32.09.48.1,0,.27-.15.4-.21.13-.09.28-.15.39-.27l.54-.46c1.94-1.73,3.16-4.08,4.11-6.36.78-1.91,1.61-4.66,2.12-7.15.52-2.48.71-4.69.7-5.42Z"></path></g><path d="m214.95,189.48c-.15-.1-.25-.59-.32-1.31-.06-.71-.09-1.65-.2-2.65-.12-2-.53-4.23-.93-5.42-.73-2.09-1.6-4.23-2.75-6.2-1.14-1.97-2.58-3.74-4.18-5.15-5.61-4.99-13.37-6.86-18.51-7.89,1.12-.86,2.99-1.48,4.76-1.7,1.78-.23,3.47-.08,4.28.29,6.5,2.86,11.44,6.59,14.49,11.04,1.53,2.2,2.62,4.49,3.34,6.73.7,2.24,1.02,4.42,1.05,6.44.03.96-.15,2.28-.38,3.41-.27,1.13-.55,2.08-.65,2.39Z"></path><path class="c color-hair" d="m120.66,199.68s18.92,10.2,22.98-2.33c8.85-27.34,30.27-29.87,49.14-13.33,18.87,16.54-1.78,38.14-1.78,38.14,0,0-25.5,21.56-51.84,13.71-26.35-7.85-33.91-15.1-38.12-26.89"></path><path d="m101.07,208.97c.34.38,1.18,2.79,3.08,5.95,1.01,1.54,2.21,3.32,3.86,4.96,1.64,1.64,3.55,3.3,5.76,4.69,4.36,2.89,9.57,5.08,14.38,6.85,4.81,1.75,9.32,3.09,12.51,3.87,5.61,1.34,11.68,1.46,17.67.42,6-1.02,11.92-3.13,17.53-5.9,2.8-1.4,5.53-2.96,8.15-4.67,1.31-.85,2.6-1.75,3.84-2.67.62-.46,1.24-.94,1.82-1.42.06-.05.18-.15.16-.13l.09-.1.37-.42.72-.87c3.78-4.76,6.7-10.29,7.6-15.9.83-4.9-.26-9.86-3.09-13.82-1.39-2.01-3.15-3.7-5.11-5.33-1.95-1.62-3.99-3.09-6.12-4.37-4.25-2.55-8.91-4.29-13.57-4.59-4.66-.33-9.24.9-12.97,3.41-3.75,2.49-6.64,6.06-8.87,9.85-1.08,1.92-2.07,3.87-2.87,5.87-.43.99-.76,2.01-1.15,3-.42,1.1-.9,2.23-1.66,3.19-.74.97-1.67,1.79-2.71,2.38-1.04.6-2.16.94-3.25,1.14-2.21.4-4.33.18-6.31-.2-3.96-.82-7.43-2.31-10.54-4.02,3,1.09,6.74,2.23,10.81,2.62,2.02.19,4.14.11,6.04-.47,1.9-.59,3.4-1.83,4.25-3.46.19-.43.42-.82.54-1.29l.22-.67.23-.78c.31-1.04.62-2.07.99-3.06.69-2,1.54-3.86,2.4-5.56,1.76-3.39,3.83-6.02,5.45-7.62,3.24-3.25,7.32-5.68,11.67-6.77,2.17-.55,4.39-.78,6.57-.72,2.18.07,4.31.42,6.35.96,2.04.54,4.01,1.27,5.86,2.17,1.86.88,3.64,1.89,5.31,3.01,1.69,1.1,3.27,2.32,4.78,3.58.74.65,1.5,1.26,2.2,1.97.35.35.72.68,1.06,1.04l.98,1.11c2.58,2.98,4.39,6.61,5.04,10.41.63,3.8.2,7.64-.92,11.14-1.1,3.51-2.75,6.73-4.69,9.68-.97,1.47-2.01,2.88-3.13,4.22-.29.34-.54.64-.89,1.01-.24.23-.37.31-.55.46l-.51.4c-.68.53-1.36,1.04-2.05,1.53-5.53,3.94-11.33,7.1-17.26,9.44-5.93,2.32-12.02,3.76-18.02,4.05-3,.14-5.97.02-8.85-.45-2.88-.44-5.66-1.25-8.26-2.08-5.26-1.65-10.3-3.46-14.98-5.68-1.12-.52-2.33-1.1-3.56-1.81-1.26-.65-2.51-1.49-3.79-2.3-2.51-1.73-4.95-3.82-6.86-6.11-1.92-2.28-3.28-4.7-4.18-6.71-.88-2.03-1.37-3.63-1.62-4.42Z"></path><path d="m208.38,157.13c.14-.12.7-.05,1.5.12.4.09.86.2,1.37.33.5.14,1.02.35,1.58.54,2.22.73,4.56,2.03,5.92,2.69,2.37,1.22,4.72,3.03,6.62,5.34,1.9,2.3,3.3,5.07,4.09,7.83,1.43,4.85,1.1,9.9.05,14.11-1.07,4.25-2.8,7.78-4.64,10.33-.11-1.62-.04-3.67.1-5.54.15-1.87.33-3.55.66-4.38,1.35-3.36,1.93-6.79,1.77-9.99-.13-3.21-1.1-6.14-2.48-8.57-1.4-2.44-3.25-4.33-5.18-5.83-1.94-1.48-3.89-2.67-5.78-3.71-.45-.25-.98-.55-1.53-.87-.56-.31-1.11-.7-1.67-1.01-1.1-.61-2.06-1.2-2.38-1.4Z"></path><path d="m249.25,187.83c.17.03.36.37.56.9.21.53.42,1.24.57,2.03.19.78.27,1.63.39,2.42.08.78.13,1.5.22,2.02.24,1.83.12,3.87-.37,5.86-.49,1.99-1.35,3.92-2.39,5.59-1.83,2.95-4.47,5.24-7.11,6.72-2.66,1.49-5.28,2.24-7.5,2.39.68-1.08,1.6-2.22,2.49-3.17.89-.95,1.73-1.7,2.3-1.9,2.33-.77,4.32-2.04,5.87-3.55,1.54-1.53,2.65-3.29,3.35-5.06.7-1.77,1.02-3.53,1.15-5.17.12-1.65.14-3.18.13-4.63,0-.69.05-1.65.16-2.53.06-.87.15-1.65.19-1.91Z"></path><path d="m130.52,217.37c.21-.9,10.21-7.58,13.85-10.46,1.62-1.27,3.26-2.56,5.06-3.85.91-.64,1.8-1.33,2.79-1.89l1.47-.89c.49-.29,1.02-.53,1.53-.8,4.09-2.09,8.91-3.46,13.67-2.88,4.17.39,8.09,2.73,10.65,5.82,2.55,3.15,3.92,6.89,4.33,10.48.44,3.6-.1,7.08-1.24,10.03-1.2,2.94-3.07,5.29-5.11,6.78,1.15-2.12,2.25-5.07,2.61-7.85.38-2.79.21-5.34.25-6.69.16-2.74-.4-5.46-1.46-7.87-1.06-2.41-2.76-4.44-4.79-5.87-2.04-1.44-4.46-2.13-6.82-2.28-2.37-.14-4.7.22-6.85.93-.55.14-1.07.34-1.59.55-.52.21-1.04.4-1.54.62-.98.51-1.98.92-2.89,1.48-1.87,1.04-3.54,2.23-5.21,3.38-3.35,2.33-6.5,4.47-9.52,6.34-2.84,1.83-8.13,4.42-9.18,4.91Z"></path></svg>