<svg xmlns="http://www.w3.org/2000/svg" id="Art" viewBox="0 0 380 600"><defs transform="matrix(-1, 0, 0, 1, 380, 0)"><style>.cls-1{fill:#ffffff;}.cls-2{opacity:0.5;}.cls-3{fill:#fffffe;}</style></defs><path class="cls-1 color-hair" d="M286.938,220.64c-21-19.311-44.143-29.352-81.835-34.215s-91.55,5.952-105.974,42.873c-.9,2.3-3.734,4.987-4.639,7.884,1.166-3.73,4.451-6.292,7.3-8.556,3.842-3.054,6.793-7.018,9.976-10.777a8.636,8.636,0,0,0,5.289,3.742c4-4.564,9.942-8.534,12.31-9.21a44.354,44.354,0,0,1,14,8.143c-.914-1.794,1.095-3.951,3.108-3.986s3.778,1.254,5.371,2.484l8.857,6.836a2.771,2.771,0,0,0,1.152.626,2.844,2.844,0,0,0,1.639-.384,80.986,80.986,0,0,1,26.86-7.022,11.484,11.484,0,0,0-4.915,6.3,128.812,128.812,0,0,1,38.026-4.333,58.355,58.355,0,0,0-4.264,9.56l15.872,2.585a1.215,1.215,0,0,1,1.29,1.414l.51,9.74,5.744-2.86c1.252,1.79,2.07,7.183,4.17,7.96,2.607.966,4-2.748,4.371-4.812,3.1-17.361,15.692-23.695,32.231-22.444C285.35,222.02,286.494,221.536,286.938,220.64Z" transform="matrix(-1, 0, 0, 1, 380, 0)" /><path d="M286.979,220.661a2.265,2.265,0,0,1-1.481,1.371,7.76,7.76,0,0,1-1.741.447,18.724,18.724,0,0,1-2.244.026,41.823,41.823,0,0,0-12.346,1.552,25.666,25.666,0,0,0-7.133,3.464,21.366,21.366,0,0,0-5.964,6.317,29.551,29.551,0,0,0-3.484,8.658q-.252,1.182-.505,2.373a11.739,11.739,0,0,1-.786,2.6,5.9,5.9,0,0,1-1.941,2.557,3.111,3.111,0,0,1-3.037.307,4.319,4.319,0,0,1-1.77-1.7,10.851,10.851,0,0,1-.6-1.115c-.144-.326-.281-.633-.4-.947l-.354-.93-.3-.839c-.142-.392-.284-.782-.45-1.158a4.124,4.124,0,0,0-.279-.546l-.081-.13c-.036-.013-.09.038-.134.053l-.276.142-.909.467-4.922,2.483c-.221-3.715-.438-7.36-.647-10.884a1.117,1.117,0,0,0-.171-.659.969.969,0,0,0-.624-.253l-1.776-.268-4.342-.663L219.265,232l-1.326-.225-.328-.056-.164-.028c-.053-.01-.133,0-.085-.074l.208-.617q.423-1.227.828-2.4l.432-1.169q.211-.543.419-1.072.321-.775.626-1.509c.173-.4.346-.8.521-1.205.157-.346.319-.683.487-1.014,0-.015.034-.046.015-.049h-.073l-.145,0-.287,0-.563.006-1.081.031-2.166.062-2.333.1q-4.674.247-9.4.84a129.252,129.252,0,0,0-18.862,3.814l-3.829,1.077,1.229-3.784c.1-.3.194-.605.312-.9.051-.14.126-.324.17-.424l.05-.119a3.01,3.01,0,0,1,.206-.395,2.667,2.667,0,0,1,.629-.713c.053-.05.187-.121.179-.14l-.326.044-.626.1-.745.141-2.094.433q-2.911.635-5.776,1.482c-1.909.562-3.794,1.208-5.655,1.917-.93.355-1.856.722-2.769,1.118-.458.2-.917.387-1.369.6l-.68.308-.381.172c-.213.1-.427.194-.645.278a4.2,4.2,0,0,1-3.961-.279c-.2-.12-.391-.253-.579-.394l-.47-.358-2.453-1.865-4.9-3.729c-1.671-1.275-3.2-2.511-4.307-2.768a2.241,2.241,0,0,0-.695-.082.852.852,0,0,0-.323.117,1.253,1.253,0,0,0-.2.142l-.044.041-.024.018-.2,0-.4,0a1.536,1.536,0,0,0-.194.006l-.119.095c-.652.518-1.155.939-1.388,1.173-.142.14-.17.2-.164.237l.03.009.014,0a.666.666,0,0,1-.062.036l-.29.159c-.262.117-1.087.666-1.783,1.119L139.64,220.9c-.291-.222-.582-.439-.871-.639l-.508-.355q-.885-.594-1.8-1.147c-1.225-.733-2.493-1.406-3.784-2.023-.643-.311-1.3-.6-1.951-.88l-.986-.4-.275-.106-.047-.015c-.031-.019-.063,0-.092.017l-.417.212c-.565.3-1.145.646-1.72,1.02a40.8,40.8,0,0,0-6.453,5.2l-.36.366c-.242.251-.485.491-.726.764-.478.556-.99.936-1.484,1.413l-.373.34a2.8,2.8,0,0,1-.5-.107l-.99-.253a11.429,11.429,0,0,1-1.961-.673c-.326-.131-.634-.312-.95-.471-.245-.141-.429-.248-.638-.387-.388-.244-.893-.642-.769-.542a.446.446,0,0,1-.083-.078c-.037,0-.075.089-.1.121l-1.948,2.348a53.024,53.024,0,0,1-4.7,4.951c-.455.407-.917.809-1.4,1.2l-1.3,1.052c-.834.68-1.615,1.35-2.313,2.032a10.412,10.412,0,0,0-2.84,4.21l-5.63-1.76a16.607,16.607,0,0,1,2.225-4.283c.8-1.171,1.6-2.223,2.1-3.1.332-.542.94-2.118,1.488-3.339l.416-.96.481-.929.964-1.855a56.054,56.054,0,0,1,10.005-13.166c7.836-7.715,17.336-13.158,27.068-17.043A127.405,127.405,0,0,1,166.273,184a150.361,150.361,0,0,1,29.541-1.012c4.811.3,9.582.918,14.156,1.66q6.9,1.065,13.559,2.51a155.565,155.565,0,0,1,25.245,7.548,117.425,117.425,0,0,1,21.615,11.347,120.461,120.461,0,0,1,17.127,13.96,150.82,150.82,0,0,0-19.434-12.747,125.939,125.939,0,0,0-11.93-5.721c-2.1-.793-4.157-1.7-6.3-2.4l-3.178-1.107-3.206-.983a192.838,192.838,0,0,0-24.479-5.55c-3.732-.59-7.182-1.152-10.27-1.547l-4.312-.608-3.613-.458a142.21,142.21,0,0,0-33.14-.009,120.447,120.447,0,0,0-30.957,7.642c-9.65,3.905-18.533,9.324-25.449,16.473a52.143,52.143,0,0,0-8.657,11.831l-.85,1.6-.729,1.657-.727,1.654a10.91,10.91,0,0,1-.986,1.837c-.714,1.1-1.462,2.062-2.12,3.038a12.059,12.059,0,0,0-1.543,2.916l-2.292-.717A14.589,14.589,0,0,1,97.4,230.8c1.679-1.625,3.572-2.925,5.118-4.321a49.268,49.268,0,0,0,4.435-4.658l2.207-2.64,1.434-1.721.718-.855.359-.426c.116-.114.214-.035.322-.062.327.476.676.968,1.039,1.438a8.546,8.546,0,0,0,1.115,1.282l.29.25.209.157c.14.1.275.191.416.281a5.881,5.881,0,0,0,.7.381,5.044,5.044,0,0,0,.66.248,1.521,1.521,0,0,0,.336.078l.237-.261c.157-.176.315-.343.484-.514l.352-.361.421-.407a44.948,44.948,0,0,1,7.3-5.709,22.981,22.981,0,0,1,2.068-1.148,12.75,12.75,0,0,1,1.422-.572,1.209,1.209,0,0,1,.364-.1l.362.127.722.257,1.172.466,1.043.443c.692.3,1.373.622,2.048.95q2.023.99,3.941,2.157.956.587,1.882,1.217l.659.465.517.389c.275.222.552.44.81.672l.195.17c.054.059.006-.027,0-.056l-.049-.121a1.313,1.313,0,0,1-.042-.509,1.7,1.7,0,0,1,.379-.862l.188-.207.391-.347a5.56,5.56,0,0,1,.884-.567,4.587,4.587,0,0,1,2.093-.5,6.411,6.411,0,0,1,1.937.317,11.475,11.475,0,0,1,3.119,1.68c.9.656,1.7,1.29,2.543,1.927l4.966,3.8,2.328,1.777a1.154,1.154,0,0,0,.789.307,2.552,2.552,0,0,0,.853-.3,83.174,83.174,0,0,1,11.583-4.3c1.958-.567,3.929-1.049,5.9-1.464.493-.1.986-.208,1.481-.3l.972-.18q.539-.1,1.07-.173l2.133-.318,2.091-.249c.279.192.529.3.793.454a3.444,3.444,0,0,0,.752.358l.7.247c.1.015-.012.054-.033.082l-.121.092c-.076.071-.153.138-.225.214a3.785,3.785,0,0,0-.85,2.768,6.937,6.937,0,0,0-1.857,2.244,4.834,4.834,0,0,0-.266.543c-.065.142-.1.225-.14.342-.088.216-.156.436-.23.654l-1.835-1.911a129.6,129.6,0,0,1,19.5-3.767q4.845-.553,9.629-.739l2.384-.071,1.189-.017.593-.008.311,0,.45.006,3.6.05,1.795.045.9.022.448.012.224.005c.069,0,.09.036.137.053l-1.906,3.507c-.31.584-.61,1.167-.893,1.746l-.712,1.523c-.8,1.822-.857,2.026-1.142,2.807l-.045.128-.022.064a.48.48,0,0,0,.064.013l.267.043.532.087,1.465.239,4.755.78,4.705.776,1.316.218a7.668,7.668,0,0,1,1.733.408,2.379,2.379,0,0,1,1.267,1.074,4.118,4.118,0,0,1,.409,1.652q.124,2.548.246,5.071.045,1.1.088,2.194l.9-.431.057-.027-.028.016-.064.034-.126.067.937-.458,1.182-.583.718-.28,1.369-.524a17.937,17.937,0,0,1,1.425,2.631q.192.5.387,1.019l.34.972c.164.476.33.962.518,1.448.089.249.2.483.294.729.07.149.141.319.216.449a1.816,1.816,0,0,0,.661.765,1.129,1.129,0,0,0,.938.065,1.736,1.736,0,0,0,.751-.65,4,4,0,0,0,.27-.448c.091-.179.227-.491.324-.747a11.932,11.932,0,0,0,.491-1.739,38.738,38.738,0,0,1,1.11-4.13c.243-.682.442-1.38.725-2.053l.9-2.006a26.409,26.409,0,0,1,5.147-7.128,24.293,24.293,0,0,1,7.1-4.616,33.671,33.671,0,0,1,14.037-2.411c1.976-.059,3.743.363,5.136.231a6.088,6.088,0,0,0,1.859-.439A2.229,2.229,0,0,0,286.979,220.661Z" transform="matrix(-1, 0, 0, 1, 380, 0)" /><path d="M157.79,188.945a4.117,4.117,0,0,1-1.758.3,35.554,35.554,0,0,0-3.562.242l-2.052.219c-.684.1-1.355.269-2,.4l-1.8.394c-.544.16-1.023.342-1.421.49l-2.136.787-2.128.958c-1.456.572-2.824,1.413-4.246,2.125-.709.36-1.359.837-2.042,1.243-.664.439-1.376.8-1.993,1.3a42.2,42.2,0,0,0-3.664,2.863,53,53,0,0,0-10.014,11.5,57.534,57.534,0,0,0-5.543,11.454,16.417,16.417,0,0,1-.22-6.577c.091-.585.164-1.175.3-1.716.156-.535.319-1.046.485-1.516a10.119,10.119,0,0,1,1-2.207,64.864,64.864,0,0,1,8.584-9.836,58.8,58.8,0,0,1,8.927-6.964c5.988-3.751,11.987-5.989,17.44-6.366.646-.036,1.416-.019,2.213.013a15.2,15.2,0,0,1,2.388.218C156.086,188.545,157.372,188.837,157.79,188.945Z" transform="matrix(-1, 0, 0, 1, 380, 0)" /><path d="M186.955,189.484c-.322.279-3.014.042-6.11-.192a57.127,57.127,0,0,0-8.533-.16,46.116,46.116,0,0,0-10.367,1.99,25.814,25.814,0,0,0-8.964,5.1,18.05,18.05,0,0,0-4.789,6.748,12.059,12.059,0,0,0-.865,3.779,13.982,13.982,0,0,0,.224,3.822A16.931,16.931,0,0,0,148,212.4a16.688,16.688,0,0,0,.676,1.7,13.43,13.43,0,0,0,1.843,2.975,11.293,11.293,0,0,0,5.131,3.546,10.3,10.3,0,0,1-1.581.211,8.643,8.643,0,0,1-1.857-.222,10.368,10.368,0,0,1-3.792-1.8,11.232,11.232,0,0,1-3.978-5.64,17.656,17.656,0,0,1,2.923-14.845,26.16,26.16,0,0,1,10.1-8.145,33.073,33.073,0,0,1,10.99-2.947,43.323,43.323,0,0,1,9.861.171A53.991,53.991,0,0,1,186.955,189.484Z" transform="matrix(-1, 0, 0, 1, 380, 0)" /><path d="M228.928,185.089a1.505,1.505,0,0,1,.161.7,6.189,6.189,0,0,1-.009,1.516,12.6,12.6,0,0,1-1.363,4.428,18.62,18.62,0,0,1-3.241,4.271,23.878,23.878,0,0,1-1.809,1.612c-.565.488-1.109.873-1.555,1.209a28.741,28.741,0,0,1-11.347,4.965c-4.134.882-8.295,1.242-12.114,1.789a56.062,56.062,0,0,0-9.545,2,24.525,24.525,0,0,0-7.88,4.118,26.6,26.6,0,0,0-8.669,12.525,16.447,16.447,0,0,1,4.853-14.061,27.954,27.954,0,0,1,7.41-4.358,37.544,37.544,0,0,1,7.551-2.082c4.924-.861,9.528-1.128,13.773-1.723a51.708,51.708,0,0,0,6.055-1.128,33.264,33.264,0,0,0,5.328-1.919,26.674,26.674,0,0,0,8.187-5.782,17.93,17.93,0,0,0,3.01-4.306l.3-.6c.072-.205.142-.406.209-.6.126-.392.293-.756.365-1.1Z" transform="matrix(-1, 0, 0, 1, 380, 0)" /><path d="M244.478,193.516c.346.054,1.3,1.755,1.872,3.93a29.531,29.531,0,0,1,.9,6.163,20.294,20.294,0,0,1-1.023,8.014,22.442,22.442,0,0,1-4.1,7.316,21.819,21.819,0,0,1-11.561,7.1,19.07,19.07,0,0,1-10.911-.451c1.451-.6,3.312-1.148,4.948-1.71a21.806,21.806,0,0,1,3.9-1.123,17.424,17.424,0,0,0,14.339-9.618,21.383,21.383,0,0,0,2.107-7.117,33.792,33.792,0,0,0,.135-6.457c-.063-.473-.086-1.043-.117-1.642-.067-.591-.062-1.233-.149-1.819C244.713,194.911,244.5,193.876,244.478,193.516Z" transform="matrix(-1, 0, 0, 1, 380, 0)" /><path d="M247.354,203.124c.169.018.4.357.657.89a11.41,11.41,0,0,1,.787,2.067l.36,1.237c.109.418.18.842.271,1.244s.176.785.255,1.136.119.668.183.931q.164.7.306,1.432c.069.489.116.988.164,1.494a23.038,23.038,0,0,1,.063,3.093,29.675,29.675,0,0,1-.983,6.112,24.6,24.6,0,0,1-4.5,9.043,19.664,19.664,0,0,1-6.307,5.274,20.062,20.062,0,0,1,1.249-3.992c.278-.61.53-1.2.779-1.676a3.741,3.741,0,0,1,.766-1.042,19.58,19.58,0,0,0,6.267-12,43.688,43.688,0,0,0-.162-10.581,19.927,19.927,0,0,1-.127-2.651C247.339,204.224,247.341,203.4,247.354,203.124Z" transform="matrix(-1, 0, 0, 1, 380, 0)" /><path d="M250.127,198.334c.2-.274,1.811-.219,3.613.261a30.676,30.676,0,0,1,4.847,1.813,17.9,17.9,0,0,1,5.584,3.752,21.061,21.061,0,0,1,4.1,5.651,19.718,19.718,0,0,1,1.906,11.155,16.84,16.84,0,0,1-3.4,8.45,38.567,38.567,0,0,1-.448-4.451,11.816,11.816,0,0,1,.074-3.356,14.967,14.967,0,0,0,.34-7.791,15.605,15.605,0,0,0-3-6.315,19.934,19.934,0,0,0-4.5-4.175,38.745,38.745,0,0,0-4.615-2.677c-.72-.319-1.663-.889-2.551-1.339C251.2,198.838,250.39,198.487,250.127,198.334Z" transform="matrix(-1, 0, 0, 1, 380, 0)" /><g class="cls-2" transform="matrix(-1, 0, 0, 1, 380, 0)"><path class="cls-3" d="M232.6,206.132c-.266.925-5.792,5.09-12.354,9.881l-.951.695-.728-1.008a22.049,22.049,0,0,1-1.379-2.161c-.21-.378-.413-.763-.6-1.155l-.278-.594-.17-.379a13.183,13.183,0,0,1-.9-2.959c-.017-.1-.03-.208-.051-.291l-.238.248-.467.484-.9.911-.848.833-.4.386-.671.611c-1.819,1.638-3.492,3.048-4.827,4.173l-.156.131-1.753,1.482-1.236-2.239q-.56-1.014-1.043-2.091l-.435-1.014-.2-.435a9.506,9.506,0,0,1-.541-1.5l-.029-.111c.006-.076-.068.053-.1.071l-.236.259-.439.483-.747.838-.082.094a1.236,1.236,0,0,1-.148.151l-.606.569-1.216,1.139-1.559,1.431-2.209,1.992c-.737.624-1.462,1.148-2.2,1.732l-1.114.858-.07.054c-.02,0-.035-.041-.054-.06l-.105-.143-.21-.287-.419-.574a44.41,44.41,0,0,1-3.207-4.788c-.24-.445-.467-.906-.7-1.363-.252-.545-.353-.761-.482-1.067a.866.866,0,0,0-.064-.132l-.034-.06-.063-.116a3.363,3.363,0,0,1-.177-.4.206.206,0,0,0-.015-.036l-.046.044-.087.085-.16.158-.264.27-4.657,3.584-1.177.9a18.244,18.244,0,0,1-1.482,1.065,6.8,6.8,0,0,1-2.956,1.043,6.068,6.068,0,0,1-3.668-.8,7.083,7.083,0,0,1-2.265-2.148,8.99,8.99,0,0,1-1.116-2.3,10.117,10.117,0,0,1-.291-1.168,5.441,5.441,0,0,1-.086-.562c-.006-.058-.007-.024-.009-.04l-.019-.044c-.025-.053-.047-.084-.106.007a.2.2,0,0,0-.032.054l0,.011h0l-.2.143-.812.575-3.24,2.279-1.612,1.128-.812.567a7.046,7.046,0,0,1-1.946,1,5.24,5.24,0,0,1-1.962.23,5.178,5.178,0,0,1-2.082-.612,5.549,5.549,0,0,1-2.274-2.412,7.188,7.188,0,0,1-.654-2.032,8.086,8.086,0,0,1-.1-.944l-.01-.683c-.009-.44.03-.874.058-1.308l.075-.646.02-.161c.007-.06,0-.024.007-.041l.007-.026c.02-.075.024-.043.041-.075a2.176,2.176,0,0,1,.184-.2l.12-.106c.02-.024-.005-.025-.012-.037a.286.286,0,0,0-.123-.043c2.214-.779,2.229-.849-3.906,1.079l-6.83,2.114c-.129.038-.3.1-.393.117l-.209.018-.416.035-.827.072-1.634.146-3.189.306-.779.079-.387.04-.1.011a.574.574,0,0,1,.061-.116l.144-.249,1.144-1.971a70.727,70.727,0,0,1,4.315-6.638c.423-.523.795-1.035,1.252-1.547l1.4-1.517c.479-.5,1.049-.984,1.558-1.462a17.93,17.93,0,0,1,1.662-1.378,34.062,34.062,0,0,1,3.418-2.351c.879-.457,1.7-.908,2.57-1.269a29.417,29.417,0,0,1,10.136-2.5,47.016,47.016,0,0,0-7.726,4.765c-.629.518-1.278,1.006-1.881,1.566l-.9.814-.46.582a2.206,2.206,0,0,0-.573,1.511c.108.645.969.484,1.5.182.7-.427.567-.42.4-.212.017.014-.133.082-.241.137l-.318.161-.559.295c-.338.185-.609.345-.819.483l1.2-.287.615-.15.305-.075.153-.037.361-.106,5.864-1.722a12.042,12.042,0,0,0,1.633,1.7l.437.356.221.167a1.053,1.053,0,0,1,.1.079l-.05.044a1.325,1.325,0,0,0-.367.481c-.28.656-.423,1.695.069,3.79-.165.174-.368.362-.5.523l-.288.434c-.178.284-.413.587-.54.852a7.988,7.988,0,0,0-.534,1.5,8.818,8.818,0,0,0-.205.992c-.027.25-.066.5-.071.752l-.017.376c0,.073,0,.147,0,.221a1.993,1.993,0,0,0,.053.338.087.087,0,0,1,0,.025l-.14.092a1.418,1.418,0,0,0-.156.109,1.9,1.9,0,0,0-.392.387c-.073.116-.057.116-.053.08a.4.4,0,0,0,.009-.065v-.021c-.008.17,0,.044,0,.08v-.021a1.148,1.148,0,0,0-.025-.2,2.68,2.68,0,0,0-.115-.388c-.03-.088-.073-.187-.11-.273,0,0,0,0,.012,0a.851.851,0,0,0,.183-.091l.743-.48,1.551-1.014,3.064-2.022,3.63-2.444,2.1-1.432c.342-.23.7-.489,1.025-.691l.884-.457,1.75-.917.868-.459.432-.229.216-.115c.029,0,.086-.072.092-.024l.022.139a16.7,16.7,0,0,1,.123,3.931c-.034.62-.09,1.282-.2,2.039s-.278,1.6-.419,2.439a6.666,6.666,0,0,0-.112,1.227,3.665,3.665,0,0,0,.112.635,3.626,3.626,0,0,0,.462,1.082,1.666,1.666,0,0,0,.612.6.839.839,0,0,0,.573.056,3.168,3.168,0,0,0,.953-.52l1.295-.964,5.17-3.891,3.52-2.653,1.78-1.345.891-.674.446-.337a1.062,1.062,0,0,1,.29.017c.324,1.707.693,3.568,1.145,5.238.11.422.25.816.389,1.213.122.376.331.855.408,1.041l.259.558.22.423a12.083,12.083,0,0,0,.986,1.538l.133.174a.285.285,0,0,0,.034.041l.043-.041.086-.08.341-.316.663-.616.638-.594,1.1-1,2.758-2.468,3.664-3.249,1.834-1.623c.584-.481,1.318-1.29,1.642-1.2q.25,1.944.5,3.865a35.778,35.778,0,0,0,.642,3.713c.135.578.3,1.125.479,1.672l.2.575.179.475q.366.945.8,1.846l-3.323-.841q2.916-2.157,5.579-4.4c1.372-1.161,2.754-2.41,4.084-3.662l1.978-1.853.961-.9.237-.223c.078-.072.166-.169.209-.154l.319-.066c.133,1.12.277,2.282.439,3.427.152.981.29,2.043.484,3.032a16.744,16.744,0,0,0,.8,2.827,21.558,21.558,0,0,0,1.624,3.55l-2.255-.42C224.388,210.385,230.914,206.97,232.6,206.132Z" /></g></svg>