<svg xmlns="http://www.w3.org/2000/svg" id="Art" viewBox="0 0 380 600"><defs transform="matrix(-1, 0, 0, 1, 380, 0)"><style>.cls-1{fill:blue;}.cls-2{fill:#00f4cb;}.cls-3{fill:#634e3f;}.cls-4{opacity:0.65;}.cls-5{fill:#fff;}.cls-6{opacity:0.35;}</style></defs><path class="cls-1 color-hair" d="M232.011,142.013C276.1,164.9,272.622,192.2,273.722,195.869c.159.529.41,1.124.941,1.273a1.736,1.736,0,0,0,1.24-.3l8.531-4.586c-.581,5.024-9.206,10.677-12.545,14.459a174.418,174.418,0,0,0-12.222,15.53c-1.82,2.6-3.672,5.355-6.451,6.9-13.19,7.315-27.931,4.389-40.523-3.349-10.325-6.345-18.546-15.7-24.975-25.976a20.366,20.366,0,0,0,2.025,9.857c-13.2.951-23.514-5.012-26.429-10.934-.138,1.3.173,9.234,1.282,8.845-7.444,2.611-35.841-2.313-34.869-15.048" transform="matrix(-1, 0, 0, 1, 380, 0)" /><path d="M129.788,192.538a14.909,14.909,0,0,0,1.309,3.981,15.768,15.768,0,0,0,6.747,5.7,44.505,44.505,0,0,0,11.61,3.734,54.207,54.207,0,0,0,6.632.841c1.119.057,2.242.1,3.346.065a14.555,14.555,0,0,0,2.236-.22,7.235,7.235,0,0,0,1.056-.287c-.123.033-.213-.083-.267-.175a4.84,4.84,0,0,1-.379-1.364l-.1-.688c-.037-.346-.073-.69-.11-1.033-.068-.746-.12-1.481-.157-2.213-.013-.369-.027-.736-.04-1.1-.005-.384-.018-.708.019-1.218l.4-5.43,2.7,4.88a14.1,14.1,0,0,0,4.187,4.488,23.5,23.5,0,0,0,4.7,2.542,31.893,31.893,0,0,0,7.911,1.969c.69.072,1.379.171,2.083.185l.447.02h.223c.145,0,.289-.01.429-.018.28-.022.548-.026.805-.07l.377-.052.182-.025a.965.965,0,0,0-.093-.19,8.342,8.342,0,0,1-.367-.779c-.053-.127-.1-.253-.142-.378l-.062-.185a2.231,2.231,0,0,1-.083-.33,22.786,22.786,0,0,1-.525-5.517l.253-9,5.043,7.611c6,9.053,13.539,17.559,22.723,23.462A56.374,56.374,0,0,0,220,225.64a43.169,43.169,0,0,0,7.49,2.68,36.043,36.043,0,0,0,7.624,1.184,32.757,32.757,0,0,0,7.429-.551,32.235,32.235,0,0,0,6.382-2.069c.512-.227,1-.508,1.5-.756l.75-.381a5.122,5.122,0,0,0,.539-.325,10.146,10.146,0,0,0,2-1.839,33.2,33.2,0,0,0,2.026-2.682q1.1-1.563,2.2-3.122,2.247-3.125,4.613-6.119t4.839-5.847l1.242-1.416c.377-.427,1-1.1,1.458-1.535,1-.974,1.943-1.794,2.868-2.6,1.847-1.606,3.6-3.116,5.063-4.641a16.744,16.744,0,0,0,1.844-2.218,5,5,0,0,0,.777-1.585l5.6,3.8-5.454,2.845-2.569,1.357a7.317,7.317,0,0,1-2.48.953,4.873,4.873,0,0,1-2.032-.089,4.359,4.359,0,0,1-1.943-1.127,6.745,6.745,0,0,1-1.184-1.819c-.237-.785-.394-1.666-.592-2.488-.1-.828-.144-1.646-.218-2.464l-.05-.612-.043-.474-.074-.68-.144-1.358-.213-1.33L269.032,187l-.295-1.3a42.547,42.547,0,0,0-3.51-9.9c-.4-.772-.732-1.573-1.17-2.317l-1.334-2.212a44.6,44.6,0,0,0-2.888-4.219,44.04,44.04,0,0,0-3.189-3.9c-.55-.627-1.073-1.273-1.636-1.877l-1.763-1.73-1.741-1.717-.862-.853-.923-.777-3.634-3.071-.9-.756-.941-.684-1.862-1.358-3.646-2.663-7.256-4.64a81.782,81.782,0,0,1,13.339,5.326,76.635,76.635,0,0,1,14.208,9.257,60.213,60.213,0,0,1,10.923,12.253c.7,1.037,1.248,2.127,1.827,3.128l.813,1.486.645,1.474c.405.959.8,1.851,1.1,2.7.272.862.507,1.656.7,2.373a51.212,51.212,0,0,1,1.353,7.223c.085.6.108,1.2.165,1.793l.072.893.017.214,0,.076,0,.154-.01.317a1.545,1.545,0,0,1-.015.253,2.826,2.826,0,0,0-.036.352.671.671,0,0,0,.069.379.235.235,0,0,0,.291.08c.2-.054.434-.128.7-.22l.1-.035.318-.152.732-.356,1.459-.712,2.894-1.417,4.842-2.371-.859,5.074a11.489,11.489,0,0,1-2.6,5.342,31,31,0,0,1-3.441,3.56c-2.329,2.117-4.77,3.962-6.8,5.85-.266.236-.471.467-.71.7l-.737.791-1.469,1.622q-1.453,1.63-2.85,3.284-2.793,3.308-5.354,6.706c-.858,1.133-1.681,2.265-2.511,3.419a41.243,41.243,0,0,1-2.717,3.486,15.117,15.117,0,0,1-3.58,3.028c-.7.406-1.319.668-1.979,1.007l-.975.48-1.008.4a33.271,33.271,0,0,1-8.263,2.248,39.561,39.561,0,0,1-4.205.379c-1.4-.015-2.792.007-4.167-.143a40.851,40.851,0,0,1-8.04-1.461c-1.31-.325-2.561-.8-3.826-1.219-1.231-.5-2.48-.948-3.663-1.521a62.815,62.815,0,0,1-13.128-8.049,87.563,87.563,0,0,1-19.086-21.6l3.7-.967a18.281,18.281,0,0,0,.372,4.35c.353,2.043,1.711,4.783,2.79,7.15l-.349.238a5.021,5.021,0,0,1-.708.055l-1.49.069q-1.491.089-2.972.085c-.991,0-1.967.056-2.978-.021l-1.263-.1c-.346-.031-.694-.043-1.036-.1a34.855,34.855,0,0,1-8.013-1.889,29.331,29.331,0,0,1-7.209-3.788,18.074,18.074,0,0,1-5.527-6.249l4.168-.741c-.015.131-.026.539-.025.855l.013,1.033c.017.695.049,1.393.095,2.079.023.349.043.623.1,1.207l.051.413.013.1.006.051c0,.009.006.018,0,.025l-.095.01-.76.075-.76.074c-.23.027-.612.042-.485.1l.071.277a18.438,18.438,0,0,0,.675,2.188c.062.14.148.277.192.126a6.961,6.961,0,0,0-.145.863c.007.441-.019.794.007,1.291-.472.095-.925.209-1.4.283l-1.452.171-1.785.079-1.377-.024c-.884-.039-1.791-.109-2.715-.206a49.569,49.569,0,0,1-5.68-.981,47.107,47.107,0,0,1-11.147-4.041c-3.394-1.779-6.319-4.1-7.831-6.625a9.591,9.591,0,0,1-1.312-3.5,11.614,11.614,0,0,1-.059-1.368Z" transform="matrix(-1, 0, 0, 1, 380, 0)" /><path class="cls-1 color-hair" d="M243.959,231.652l4.039,7.7a2.715,2.715,0,0,0,1.111,1.319,2.4,2.4,0,0,0,2.759-1.017c8.5-12.28,21.513-19.409,44.528-15.409,4.834-10.217,10.675-19.976,6.769-31.811a31.4,31.4,0,0,0-19.272-19.526c-1.655,9.9-5.836,17.984-10.58,22.45,0,0,3.954-15.28-11.395-27.559" transform="matrix(-1, 0, 0, 1, 380, 0)" /><path d="M261.956,167.756a8.252,8.252,0,0,1,2.6,1.54,28.459,28.459,0,0,1,4.584,4.587,29.126,29.126,0,0,1,4.271,7.469c.265.717.487,1.454.733,2.188a4.326,4.326,0,0,1,.128.436l.091.355.179.7a16.721,16.721,0,0,1,.356,2.647,12.464,12.464,0,0,1-.032,1.853l-.052.409-.035.2c.006.035-.07.2.024.074.233-.278.469-.536.668-.81a15.4,15.4,0,0,0,1.765-2.875,20.337,20.337,0,0,0,.843-2.125l.143-.466.074-.244.171-.492c.24-.659.455-1.332.662-2.013.415-1.359.779-2.754,1.08-4.182l.193-.847.2-.975q.174-1.01.35-2.027.342-2.067.689-4.164a3.416,3.416,0,0,1,.888.25l.955.337,1.92.692,1.925.718c.644.274,1.287.6,1.937.9l.978.462.607.334,1.19.672c.764.5,1.553.962,2.282,1.516a34.684,34.684,0,0,1,7.811,7.774,32.876,32.876,0,0,1,4.93,9.978,28.426,28.426,0,0,1,1.032,11.126,43.94,43.94,0,0,1-3.664,12.851c-.846,1.952-1.74,3.814-2.625,5.64l-2.081,4.3-.651,1.347-.325.672c-.013.082-.078.065-.143.051l-.185-.028-.37-.056-2.942-.445-2.517-.384c-.466-.074-.932-.156-1.395-.192l-2.774-.293c-.922-.1-1.832-.1-2.744-.162-.455-.019-.911-.057-1.362-.062l-1.346.016a41.814,41.814,0,0,0-10.308,1.223A32.784,32.784,0,0,0,263.684,232a36.373,36.373,0,0,0-7.255,5.924l-.794.832-.521.562-.61.67-1.189,1.307-.58.636a3.132,3.132,0,0,1-.636.435,4.2,4.2,0,0,1-3,.464,3.849,3.849,0,0,1-2.246-1.818,21.284,21.284,0,0,1-1.432-2.871c-.249-.541-.331-.764-.486-1.127l-.412-.992q-.807-1.979-1.567-3.845c.922.869,1.9,1.868,2.9,2.963l1.506,1.681q.681.721,1.228,1.22a1.223,1.223,0,0,0,1.283.451,2,2,0,0,0,1.124-1.128c.195-.5.352-.951.463-1.321l.041-.136a.384.384,0,0,1,.023-.071l.087-.143.353-.569.715-1.136a32.673,32.673,0,0,1,6.878-7.569c.626-.469,1.237-.913,1.827-1.33s1.205-.724,1.765-1.046a16.433,16.433,0,0,1,3.041-1.366,45.181,45.181,0,0,1,14.106-2.283,73.166,73.166,0,0,1,13.125,1.188l.377.073.179.043.368.088.746.174c.16.09.164-.114.239-.19l.183-.314.376-.654c.905-1.7,1.855-3.524,2.7-5.255.861-1.749,1.618-3.5,2.294-5.247a36.249,36.249,0,0,0,1.53-5.279,23.224,23.224,0,0,0-.212-10.369,27.664,27.664,0,0,0-1.733-4.772,30.981,30.981,0,0,0-2.536-4.29,29.8,29.8,0,0,0-6.77-6.786c-.618-.48-1.3-.866-1.936-1.293l-1-.57c-.147-.082-.375-.221-.454-.254l-.3-.141c-.388-.195-.773-.351-1.148-.5-.185-.08-.377-.136-.562-.2l-.278-.093c-.09-.027-.208-.1-.191.057-.1.709-.214,1.382-.351,2.017l-.17.73c-.075.335-.177.662-.265.992-.178.66-.368,1.314-.581,1.957-.4,1.3-.878,2.554-1.383,3.788-.055.139-.127.32-.243.56l-.309.662-.617,1.323c-.458.819-.891,1.693-1.368,2.458s-.95,1.549-1.448,2.2c-.247.338-.491.693-.738,1.014l-.746.9c-.994,1.183-1.98,2.231-3.041,3.333-.519.54-1.075,1.095-1.649,1.655-.406.445-.264.155-.3.084a1.217,1.217,0,0,0-.093-.254.592.592,0,0,0-.61-.163l-.227.021c-.1.024-.1-.032-.28.068l-.846.4c.458-2.444.727-4.129,1.053-6.037a21.609,21.609,0,0,0,.4-4.159q.024-.684.047-1.4c-.025-.418-.105-.771-.155-1.169l-.169-1.182-.084-.6a5.013,5.013,0,0,0-.085-.525c-.243-.979-.434-2.04-.79-3.056a29.526,29.526,0,0,0-1.127-3.108c-.443-1.019-.962-2.008-1.462-2.973-.583-.909-1.091-1.848-1.67-2.655l-1.649-2.226Z" transform="matrix(-1, 0, 0, 1, 380, 0)" /><path class="cls-2" d="M296.758,222a27.64,27.64,0,0,0,12.419-17.041c5.287,6.31,4.477,16.81-1.715,22.234a2.731,2.731,0,0,1-1.227.716,3,3,0,0,1-1.879-.494l-7.193-3.735" transform="matrix(-1, 0, 0, 1, 380, 0)" /><path d="M297.184,223.638c.424-.31,2.5.513,4.862,1.541.59.26,1.2.529,1.8.795l.9.4a3.862,3.862,0,0,0,.586.208,1.027,1.027,0,0,0,.983-.188,3,3,0,0,0,.549-.705,16.574,16.574,0,0,0,2.946-7.265,15.715,15.715,0,0,0,.119-3.948c-.04-.322-.058-.646-.109-.962l-.174-.866c-.045-.1-.074-.077-.107-.088-.107.017-.075.153-.085.066a.1.1,0,0,0-.044-.072.078.078,0,0,0-.062,0c-.057.059.043-.166-.331.452a24.9,24.9,0,0,1-3.62,4.568,21.189,21.189,0,0,1-8.2,5.16c.711-1.871,1.8-3.977,2.7-5.825a15.846,15.846,0,0,1,2.459-4.031,18.943,18.943,0,0,0,1.564-1.539c.248-.267.467-.551.7-.828a10.381,10.381,0,0,0,.886-1.428l.467-.812.388-.9c.25-.6.506-1.114.722-1.762.45-1.226.851-2.353,1.218-3.417a.958.958,0,0,0,.327.175,2.064,2.064,0,0,0,.276.079c.124-.156.5.539.779.926.621.881,1.089,1.687,1.584,2.476l.651,1.228c.1.2.217.394.312.608l.259.666c.163.448.362.86.5,1.32s.245.931.366,1.393a8.384,8.384,0,0,1,.255,1.287c.048.365.129.725.15,1.087a21.523,21.523,0,0,1-.32,6.276,16.883,16.883,0,0,1-3.263,7.03,11.782,11.782,0,0,1-1.26,1.37,4.964,4.964,0,0,1-2.014,1.348,3.462,3.462,0,0,1-2.332-.164,7.775,7.775,0,0,1-1.029-.518l-.649-.4A35.434,35.434,0,0,1,297.184,223.638Z" transform="matrix(-1, 0, 0, 1, 380, 0)" /><path class="cls-2" d="M143.825,197.827c-12.837,3.907-27.07,12.279-31.442,16.558-6.511,1.3-23.814-14.6-22.107-31.984,10.758,7.8,19.572,8.03,27.736,7.08-5.094-28.817,2.371-39.1,16.511-55.05,5.581,13.024,15.628,28.442,33.733,38.815" transform="matrix(-1, 0, 0, 1, 380, 0)" /><path d="M168.226,173.3a6.014,6.014,0,0,1-1.922-.682c-.493-.229-1.067-.51-1.709-.84l-2.066-1.22a66.425,66.425,0,0,1-10.4-7.961,81.9,81.9,0,0,1-10.064-11.352,109,109,0,0,1-6.761-10.47c-.515-.776-.951-1.476-1.341-2.141-.011-.047-.037,0-.06.036l-.068.1-.135.189-.259.366-.478.68-.417.621-.095.143-.276.357-.59.757-2.272,3.078c-.7,1.053-1.486,2.076-2.137,3.156a42.822,42.822,0,0,0-6.025,13.629,51.229,51.229,0,0,0-.972,15.022c.094,1.274.157,2.542.346,3.816l.236,1.9.117.949.029.237.047.326.13.851q.523,3.423,1.043,6.815l.13.853.032.213c0,.065.06.169-.057.15l-.467.053-1.868.211-3.711.4-2.852.193-1.752.039c-1.175,0-2.357-.053-3.541-.148a35.187,35.187,0,0,1-7.007-1.334c-.576-.151-1.131-.354-1.689-.546s-1.116-.387-1.654-.62-1.092-.433-1.615-.686l-1.346-.646s0,0-.008-.015-.022-.019-.036-.01a.063.063,0,0,0-.02.029c0,.017-.011-.026.009.062l.131.575c.08.4.2.786.308,1.177a32.338,32.338,0,0,0,4.129,8.874,35.466,35.466,0,0,0,6.276,7.276,21.538,21.538,0,0,0,3.595,2.573c.3.161.593.307.879.436a7.931,7.931,0,0,0,.753.289.858.858,0,0,0,.493.105l.222-.138,1.018-.767c.728-.507,1.446-1.023,2.17-1.472,1.439-.94,2.882-1.766,4.313-2.563,2.865-1.579,5.708-2.95,8.5-4.164a87.892,87.892,0,0,1,16.033-5.322c-2.57,1.651-5.644,3.59-8.863,5.728s-6.585,4.475-9.765,6.8c-3.165,2.31-6.2,4.661-8.446,6.691l-.407.373-.417.372-.459.371-.909.732-.45.36c-.181.043-.373.055-.558.084a11.867,11.867,0,0,1-2.2.153,12.1,12.1,0,0,1-2.109-.32,14.215,14.215,0,0,1-4.256-1.916,35.577,35.577,0,0,1-7.815-7.4,44.421,44.421,0,0,1-5.338-8.573,40,40,0,0,1-1.826-4.593c-.243-.785-.485-1.563-.671-2.358-.1-.4-.2-.788-.276-1.189l-.264-1.337a29.772,29.772,0,0,1-.376-6.532c.043-1.012.118-1.97.2-2.972l.133-1.5a3,3,0,0,1,.04-.354l.133-.121.268-.236,2.108,1.511,2.14,1.478c.707.509,1.4.929,2.086,1.343.7.41,1.335.853,2.073,1.224a32.144,32.144,0,0,0,5.5,2.332,29.121,29.121,0,0,0,5.724,1.215c.966.1,1.932.17,2.9.19.944.022,2.059,0,2.581-.025.662-.029,1.238-.074,1.857-.138l.229-.023.114-.011c.044,0,.081,0,.057-.06l-.076-.5L116,186.518q-.157-1.006-.312-2-.163-1.464-.326-2.915a75.46,75.46,0,0,1-.458-11.544,47.979,47.979,0,0,1,1.734-11.118,42.983,42.983,0,0,1,4.26-10c.847-1.565,1.842-2.992,2.784-4.442,1.009-1.384,1.983-2.787,3.03-4.082.519-.652,1.02-1.323,1.546-1.951l2.08-2.488,2.409-2.8,1.207-1.393.6-.7.3-.348c.1-.1.209-.276.29-.28.7,1.529,1.369,3.065,2.086,4.582l1.067,2.273.536,1.127.443.85c.475.911.944,1.817,1.451,2.694.489.887.986,1.76,1.511,2.608a97.026,97.026,0,0,0,6.565,9.589,113.281,113.281,0,0,0,10.528,11.708A100.662,100.662,0,0,0,168.226,173.3Z" transform="matrix(-1, 0, 0, 1, 380, 0)" /><path class="cls-1 color-hair" d="M265.5,171.594c-15.907-28.465-48.837-37.279-65.325-39.86,0,0,.883,5.651-4.511,15.3-2.836-2.678-5.629-9.787-29.071-18.717,5.977,12.023,6.535,25.419,3.066,33.05-7.694-2.887-15.042-12.724-18.019-18.12,0,0-3.07,17.745,6.7,30.861-9.489,0-16.108-12.492-16.108-12.492s-11.846,15.794-3.334,31.352c-4.977.07-7.279-3-9.837-5.372a18.869,18.869,0,0,0,7.837,14.07" transform="matrix(-1, 0, 0, 1, 380, 0)" /><path d="M136.861,201.714a10.339,10.339,0,0,1-4.3-3.277,19.769,19.769,0,0,1-4.524-10.756l-.278-2.655,2,1.816,1.567,1.424a11.939,11.939,0,0,0,1.588,1.224,6.315,6.315,0,0,0,3.832.974c-.243-.612-.623-1.308-.921-1.946-.267-.669-.476-1.349-.712-2.007-.173-.695-.309-1.369-.457-2.072-.088-1.083-.237-2.166-.265-3.244a34.273,34.273,0,0,1,2.077-12.119c.142-.462.344-.893.51-1.333l.26-.652.133-.334.2-.421c.537-1.129,1.057-2.25,1.652-3.242.282-.52.572-1.01.872-1.461l.88-1.365.88-1.317.224-.327c.071-.081.114-.034.184-.073a2.667,2.667,0,0,0,.395-.14c.591,1,1.182,1.965,1.736,2.849.392.657.8,1.241,1.218,1.836a20.84,20.84,0,0,0,1.283,1.676,12.846,12.846,0,0,0,1.025,1.169c.158.162.313.3.472.435a7.878,7.878,0,0,0,1.851,1.253,3.552,3.552,0,0,0,1.8.345l.211-.03c.053-.019.195.015.075-.1l-.365-.5a9.775,9.775,0,0,1-.634-.947c-.251-.376-.431-.753-.615-1.094-.1-.17-.159-.345-.236-.507l-.107-.24-.026-.059c-.007-.015-.027-.064,0,.018l-.138-.461-.575-1.944c-.184-.65-.312-1.311-.469-1.968s-.3-1.32-.4-1.986l-.169-1a10.979,10.979,0,0,1-.162-1.207l-.3-3.267c-.057-1.088-.054-2.171-.083-3.266a48.249,48.249,0,0,1,.358-6c.221-1.86.475-3.623.744-5.528l.212-1.455a2.129,2.129,0,0,1,.1-.471l.092-.315.094-.337.127-.534.26-1.134L153.76,140l1.793,3.041c.579.91,1.141,1.718,1.714,2.585a13.8,13.8,0,0,0,.86,1.185l.862,1.118c.571.754,1.162,1.48,1.758,2.144l.647.723.469.491c.317.321.621.659.946.966a32.618,32.618,0,0,0,3.99,3.4l.293.206.061.031c.041.018.078.039.117.053a1.054,1.054,0,0,0,.216.064,1.869,1.869,0,0,0,.075-.415l.14-.921a10.9,10.9,0,0,0,.134-1.1l.106-1.1.043-1.113a39.693,39.693,0,0,0-.726-8.839c-.216-1.027-.418-2.056-.7-3.068-.13-.509-.255-1.018-.421-1.516l-.459-1.517-.578-1.625-1.469-3.4-.748-1.71-.839-1.791q-1.629-3.471-3.253-6.935l8.074,3.183,8.145,3.326c.685.282,1.366.59,2.021.907l1.095.518c.7.336,1.411.655,2.1,1.028L182.312,131c.691.372,1.372.778,2.055,1.165a52.638,52.638,0,0,1,7.854,5.5,28.8,28.8,0,0,1,2.385,2.255.544.544,0,0,0,.044.095.133.133,0,0,0,.049-.032l.031-.031.017-.021c0-.007,0,0,.011-.019l.139-.35a28.885,28.885,0,0,0,.918-2.8c.121-.463.238-.926.327-1.39l.036-.174.019-.087.024-.188.1-.809.1-.807.017-.846c1.05-1.074,1.731-1.785,2.178-2.273l.175-.193.3-.273.613-.555,1.205-1.083,2.631.471q.655.112,1.295.253l.947.2c.927.209,1.858.382,2.769.624,1.831.455,3.648.9,5.427,1.445,3.577,1.008,7.034,2.239,10.391,3.545a93.686,93.686,0,0,1,18.44,9.693,76.794,76.794,0,0,1,14.313,12.612l2.83,3.451c.878,1.172,1.655,2.394,2.459,3.558q.591.88,1.172,1.747l1,1.817,1.92,3.534c-5.38-6.388-13.933-14.446-23.349-19.744l-1.737-1.012a19.64,19.64,0,0,0-1.741-.957l-3.452-1.779c-1.144-.553-2.292-1.047-3.384-1.562-.55-.249-1.081-.515-1.621-.745l-1.6-.657-3.009-1.256-2.766-1.065c-1.716-.722-3.275-1.22-4.5-1.757-2.9-1.19-5.856-2.212-8.788-3.133-1.47-.447-2.94-.853-4.393-1.256l-2.108-.527c-.185-.074-.346-.137-.547-.2l-.353-.115-.184-.058c-.024,0-.078-.036-.077-.012l0,.067a3.564,3.564,0,0,1-.11.595l-.064.244-.036.127-.1.435c-.133.622-.3,1.228-.474,1.833a35.709,35.709,0,0,1-1.233,3.467l-.476,1.14c-.18.42-.387.812-.577,1.215-.388.8-.759,1.6-1.176,2.326-.8,1.469-1.62,2.942-2.414,4.333-.866-.915-1.621-1.76-2.4-2.634s-1.582-1.78-2.362-2.736c-.386-.473-.794-.927-1.19-1.344-.292-.323-.5-.541-.77-.8-.5-.512-1.026-1-1.566-1.47a46.5,46.5,0,0,0-7.052-5.025c-1.226-.765-2.522-1.423-3.782-2.118l-3.256-1.617c-.748-.341-1.5-.714-2.289-1.042l-1.185-.5-.6-.251-.15-.063-.075-.032a.486.486,0,0,0,.026.065l.122.272c.35.743.656,1.523.959,2.314l.409,1.212c.073.2.122.411.184.617l.207.716a52.319,52.319,0,0,1,1.627,8.564,42.657,42.657,0,0,1,.054,8.573c-.067.71-.146,1.416-.278,2.119-.064.358-.1.666-.2,1.144l-.341,1.346a21.116,21.116,0,0,1-.818,2.588c-.288.844-.659,1.682-.984,2.521-.6-.226-1.236-.52-1.852-.776l-1.8-.852c-.6-.3-1.172-.689-1.759-1.028a16.631,16.631,0,0,1-1.542-1.049,40.873,40.873,0,0,1-4.618-4.025l-1.037-1.087c-.175-.179-.342-.364-.506-.55l-.336-.374c-.381-.42-.739-.85-1.086-1.276a31.833,31.833,0,0,1-1.884-2.567c-.194-.305-.393-.6-.568-.908l-.134-.226c-.02-.03-.048-.094-.063-.095l-.019.145-.059.577c-.067.766-.1,1.52-.1,2.256a29.952,29.952,0,0,0,.279,4.27,45.867,45.867,0,0,0,1.532,6.973l.061.212a3.154,3.154,0,0,0,.123.359l.271.666.544,1.334.544,1.334c.1.228.161.433.293.679l.467.782c1.258,2.09,2.442,4.135,3.943,6.383l-.681.64c-.012.215.008.428.007.638l0,.313v.233l-.244-.017-1.975-.147-1.8-.244-1.7-.345c-.567-.141-1.142-.372-1.715-.563s-1.162-.544-1.741-.808a15.413,15.413,0,0,1-1.763-1.057,15.826,15.826,0,0,1-1.764-1.305c-.291-.243-.592-.447-.875-.72l-.844-.827-.841-.83c-.259-.266-.568-.634-.753-.842l-.519-.6-.238-.3c-.168-.2-.3-.384-.432-.564q-.4-.544-.742-1.115l-.17-.3c-.068.086-.13.186-.195.278-.123.192-.25.38-.362.576q-.351.581-.65,1.182c-.106.224-.18.349-.315.656l-.558,1.3c-.351.874-.673,1.756-.961,2.64a28.729,28.729,0,0,0-1.379,10.66l.033.533a2.3,2.3,0,0,0,.087.643q.224.9.455,1.828l.457,1.872a5.369,5.369,0,0,0,.341,1.02l.42,1.076.833,2.156.411,1.075a1.649,1.649,0,0,1-.144.3c-.1.192-.2.389-.285.594l-.126.311c-.074.089.042.273-.368.2a13.774,13.774,0,0,1-6.5-1.627,14.983,14.983,0,0,1-2.848-2.139c-.45-.422-.885-.869-1.306-1.315l-1.15-1.222,1.86-.907a19.73,19.73,0,0,0,2.684,9.543A17.558,17.558,0,0,0,136.861,201.714Z" transform="matrix(-1, 0, 0, 1, 380, 0)" /><path class="cls-1 color-hair" d="M232.848,228.664s-17.326-8.93-23.163-26.675a71.39,71.39,0,0,1-2.6-30.139s13.4,18.744,22.6,23.209a30.042,30.042,0,0,0,.279-12.139,30.676,30.676,0,0,1,14.1,15.772" transform="matrix(-1, 0, 0, 1, 380, 0)" /><path d="M244.033,198.7c-.431-.272-1.677-3.321-4.269-6.64a30.769,30.769,0,0,0-4.714-4.856,28.434,28.434,0,0,0-2.492-1.824c-.313-.19-.614-.374-.911-.534-.147-.083-.293-.159-.436-.232l-.211-.107c-.015,0-.042-.028-.045-.017l.014.066.027.13a17.644,17.644,0,0,1,.324,1.987c.017.2.034.4.05.595l.033.732c.027.474.023.918.033,1.328,0,.774-.016,1.556-.071,2.342l-.045.6-.106.9c-.08.595-.174,1.2-.3,1.783l-.377,1.774c.01.251-.183.044-.3.01l-.4-.2-.8-.408c-.536-.279-1.087-.538-1.632-.847-.526-.279-1.168-.759-1.432-.912a52.938,52.938,0,0,1-7.544-6.358c-2.34-2.315-4.554-4.757-6.669-7.243L210.2,178.9l-1.474-1.817a1.5,1.5,0,0,0-.2-.177.739.739,0,0,0,.01.223c0-.014,0,.114,0,.175l-.008.464c-.016.728-.046,1.453-.038,2.18-.009,1.452.018,2.9.1,4.342a74.3,74.3,0,0,0,.891,8.511,65.5,65.5,0,0,0,1.871,8.1c.4,1.294.877,2.523,1.334,3.761l.819,1.79.4.891.467.854a50.527,50.527,0,0,0,8.848,11.83,60.73,60.73,0,0,0,9.891,8.139,36.946,36.946,0,0,1-12.038-6.44,33.659,33.659,0,0,1-8.283-8.972,48.122,48.122,0,0,1-4.524-10.693,68.527,68.527,0,0,1-2.043-10.658,85,85,0,0,1-.541-10.24c.023-.832.021-1.658.06-2.479l.052-1.226q.051-.78.1-1.553c.069-1.034.185-2.164.314-3.164q.1-.764.2-1.522l.108-.761.058-.38c.045-.014.089-.023.135-.042q1.331,1.808,2.638,3.582l1.317,1.713.989,1.246c1.268,1.593,2.562,3.117,3.847,4.6a92.669,92.669,0,0,0,7.907,8.1c.686.585,1.341,1.2,2.047,1.727a25.352,25.352,0,0,0,2.091,1.547l.333.223a2.973,2.973,0,0,0,.264.166l.534.284.13.069c.034,0,.108.1.1.011l.06-.3.094-.59.086-.722c.048-.407.081-.813.113-1.217.055-.808.091-1.611.084-2.4,0-.421,0-.736-.03-1.237a19.233,19.233,0,0,0-.191-1.939c-.161-1.3-.423-2.7-.633-3.927a2.451,2.451,0,0,1,.25.016l.434.248.862.5c.558.332,1.112.642,1.659.985s1.09.665,1.622,1.052l.793.555.551.429a26.745,26.745,0,0,1,6.523,7.484A30.793,30.793,0,0,1,244.033,198.7Z" transform="matrix(-1, 0, 0, 1, 380, 0)" /><path class="cls-2" d="M253.1,219.989s3.356-7.857,1.232-15.186c-2.021-6.974-5.139-12.232-5.976-12.79,0,0,2.628,8.232,1.883,12.325" transform="matrix(-1, 0, 0, 1, 380, 0)" /><path d="M250.213,204.333c-.158-.118-.172-.56-.25-1.205-.046-.64-.172-1.491-.312-2.4a27.194,27.194,0,0,0-1.29-4.954c-.437-1.075-.881-2.169-1.353-3.333l-1.721-4.236,3.86,2.624a3.889,3.889,0,0,1,.481.386l.3.3c.151.176.325.365.456.538.283.355.536.707.782,1.066.492.715.924,1.449,1.347,2.192a47.033,47.033,0,0,1,2.188,4.522c.389.906.732,1.828,1.043,2.754a25.06,25.06,0,0,1,.8,2.883,18.77,18.77,0,0,1,.221,5.838,20.673,20.673,0,0,1-3.137,8.9,33.811,33.811,0,0,1-.663-4.624,12.755,12.755,0,0,1,.024-3.567,14.5,14.5,0,0,0,.594-5.738,19.337,19.337,0,0,0-.545-2.73q-.36-1.343-.813-2.6a33.681,33.681,0,0,0-2.081-4.629c-.388-.705-.787-1.381-1.2-2.012-.21-.311-.42-.615-.634-.894-.106-.138-.215-.265-.317-.385l-.143-.147c-.03-.036-.025-.015-.035-.024l-.007-.006c.033-.046.169-.246.236-.37l1.28-.785a30.339,30.339,0,0,1,1.723,7.186,12,12,0,0,1-.5,4.633C250.4,203.915,250.277,204.2,250.213,204.333Z" transform="matrix(-1, 0, 0, 1, 380, 0)" /><path class="cls-3" d="M271.179,204.856a17.172,17.172,0,0,1-3.526,10.19" transform="matrix(-1, 0, 0, 1, 380, 0)" /><path d="M267.629,215.027c-.223-.227-.105-.655.07-1.1a4.357,4.357,0,0,0,.358-1.293,15.3,15.3,0,0,1,.426-3.281,8.789,8.789,0,0,1,2.128-4.469c1.684.473,2.717,1.941,2.355,2.329a9.593,9.593,0,0,0-2.287,4.108,6.751,6.751,0,0,1-1.385,3.145A3.182,3.182,0,0,1,267.629,215.027Z" transform="matrix(-1, 0, 0, 1, 380, 0)" /><path class="cls-2" d="M163.918,208.989a79.32,79.32,0,0,1-16.791-19.93,59.74,59.74,0,0,0,3.721,15.4c-1.6-.075-5.349-.117-7.767-1.791C145.5,210.664,154.43,213.082,163.918,208.989Z" transform="matrix(-1, 0, 0, 1, 380, 0)" /><path d="M163.936,209.031c-.093.5-2.7,2.017-6.163,2.639a17.959,17.959,0,0,1-5.369.225,17.379,17.379,0,0,1-4.438-1.107,11.612,11.612,0,0,1-4.275-2.834,13.951,13.951,0,0,1-2.825-4.621l-2.155-5.7,5.687,3.128a6.315,6.315,0,0,0,1.357.529,3.7,3.7,0,0,0,.614.137.867.867,0,0,0,.175-.013c.186-.041.356-.064.348-.166-.092-.144-.158-.233-.217-.315l-.045-.064-.021-.027-.114-.359c-.162-.517-.333-1.028-.477-1.541q-.7-2.364-1.172-4.765a44.423,44.423,0,0,1-.7-4.891l-1.082-13.154,6.622,11.389a155.274,155.274,0,0,0,14.777,20.813,20.476,20.476,0,0,1-7.628-3.037,16.918,16.918,0,0,1-5.156-4.625c-2.207-3.793-4.146-7.405-5.881-10.818l2.868-.914a40.528,40.528,0,0,0,1,7.813c.141.623.291,1.238.454,1.844l.25.9.067.232.1.311.2.618c.512,1.639,1.173,3.3,1.787,4.906-.046.047-.073.107-.134.145l-.362-.011-.723-.02-1.429-.048c-.943-.038-1.887-.083-2.853-.217-.481-.068-.97-.149-1.441-.261-.257-.054-.448-.1-.623-.155s-.367-.1-.55-.166a9.31,9.31,0,0,1-2.142-1l2.174-1.583a11.2,11.2,0,0,0,1.742,3.154,9.452,9.452,0,0,0,2.521,2.182,12.937,12.937,0,0,0,1.438.751c.521.158,1,.4,1.526.512a11.817,11.817,0,0,0,1.56.347,12.484,12.484,0,0,0,1.574.2,38.779,38.779,0,0,0,5.178.084C161.789,209.372,163.393,209.091,163.936,209.031Z" transform="matrix(-1, 0, 0, 1, 380, 0)" /><path class="cls-2" d="M193.412,207.811c-3.026-3.267-5.619-12.332-6.193-22.165-4.408,3.362-5.121,10.34-5.121,10.34-4.111-2.2-9.333-10.671-11.774-15.067-1.042,5.057,1.209,25.8,19,29.354,0,0-1.284-5.6-.526-7.042C188.8,203.231,191.87,207.317,193.412,207.811Z" transform="matrix(-1, 0, 0, 1, 380, 0)" /><path d="M193.4,207.855c-.231.145-1.092-.138-2.023-.9a23.274,23.274,0,0,1-3.225-3.243l1.359-.11a3.879,3.879,0,0,0-.075,1.195c.011.248.035.508.064.77.03.3.084.712.143,1.073.23,1.488.638,3.144,1.028,4.795a1.6,1.6,0,0,0-.14.177c0,.048-.076.027-.147.01l-.206-.043-.823-.171c-.551-.112-1.1-.226-1.628-.363s-1.063-.235-1.592-.408l-1.569-.522a6.489,6.489,0,0,1-.743-.29l-.556-.234a10.748,10.748,0,0,1-1.029-.469c-.658-.308-1.241-.622-1.746-.913a19.909,19.909,0,0,1-3.538-2.5,22.174,22.174,0,0,1-3.071-3.248,26.353,26.353,0,0,1-2.489-3.805c-.362-.67-.708-1.353-1.015-2.051-.151-.35-.32-.7-.454-1.053l-.23-.586c-.113-.294-.223-.6-.317-.907a32.3,32.3,0,0,1-1.76-13.021c.194-1.628.4-3.1.7-5.078q.123-.691.247-1.378.173-1.053.342-2.093l.2.347c1.627,2.807,3.338,5.883,4.873,8.465.792,1.386,1.531,2.477,2.291,3.687.76,1.083,1.493,2.24,2.277,3.222l1.075,1.4.562.671c.378.427.754.872,1.138,1.249a10.75,10.75,0,0,0,2.176,1.828l-4.352,2.315a19.357,19.357,0,0,1,.411-2.179,22.949,22.949,0,0,1,1.051-3.3,16.646,16.646,0,0,1,2.917-4.853,27.588,27.588,0,0,1,3.256-2.894l.921-.747c.139-.108.349-.293.428-.334l.25-.138.487-.247.238-.11c.073-.03.231-.131.34-.19q.171,3.287.339,6.485c.05,1.047.151,1.937.22,2.881s.176,1.775.282,2.584q.22,1.681.436,3.311c.129.881.275,1.741.431,2.583.658,3.333,1.463,6.46,2.885,8.691a10.313,10.313,0,0,1-3.921-3.363,26.287,26.287,0,0,1-3.092-5.3c-.414-.936-.789-1.874-1.095-2.789l-.228-.679c-.046-.154-.053-.123-.07-.147l-.046-.042a.439.439,0,0,0-.146-.1c-.133.041-.137.208-.063-.046.024-.08.048-.171.069-.268.043-.193.082-.42.116-.678a.437.437,0,0,0-.008-.271.6.6,0,0,0-.076-.15.344.344,0,0,0-.5-.051,1.979,1.979,0,0,0-.593.724,4.067,4.067,0,0,0-.282.634c-.142.484-.273,1.025-.356,1.446l-.5,2.5-1.932-1.2a15.07,15.07,0,0,1-3.354-2.972c-.455-.527-.9-1.049-1.31-1.586l-.31-.4c-.109-.139-.214-.273-.245-.325l-.314-.452c-.836-1.228-1.7-2.607-2.5-3.941l-.986-1.694-.232-.411a3.328,3.328,0,0,0-.07.455,8.482,8.482,0,0,0-.046.957,17.822,17.822,0,0,0,.428,3.7c.127.582.273,1.14.438,1.668.083.264.164.523.257.771l.134.37.174.438a28.287,28.287,0,0,0,2.276,4.618,22.394,22.394,0,0,0,6.407,6.824l.928.6.954.54c.313.184.65.32.969.484a5.819,5.819,0,0,0,.545.253c.318.146.652.266,1,.395.173.07.357.114.542.177l.283.091c.039.006.118.052.124.025l-.014-.116-.006-.037a7.463,7.463,0,0,1-.054-1.5l.034-.49.044-.9a5.435,5.435,0,0,1,.551-2.206l.779-1.5.792,1.375C191,205.213,192.588,207.472,193.4,207.855Z" transform="matrix(-1, 0, 0, 1, 380, 0)" /><g class="cls-4" transform="matrix(-1, 0, 0, 1, 380, 0)"><path class="cls-5" d="M127.411,180.012c-.011.215-.441.476-1.064.273a3.246,3.246,0,0,1-1.545-1.325,32.5,32.5,0,0,1-1.72-3.386c-1.55-2.726-1.964-6.151-2.081-9.207a19.289,19.289,0,0,1,1.243-7.71,14.289,14.289,0,0,1,1.717-3.163,9.333,9.333,0,0,1,2.28-2.214,27.873,27.873,0,0,1,1.473,3.758c.327,1.093.417,1.96.1,2.346a11.615,11.615,0,0,0-2.444,5.03,15.732,15.732,0,0,0-.266,4.907c.294,3.075,1.18,5.618,1.508,7.688a15.478,15.478,0,0,1,.144,1.794,1.894,1.894,0,0,0,.224.791A1.234,1.234,0,0,0,127.411,180.012Z" /><path class="cls-5" d="M133.854,174.916c-.454.139-.958-.422-1.469-1.122a18.059,18.059,0,0,0-1.391-2,11.05,11.05,0,0,1-2.744-5.931,9.788,9.788,0,0,1,.528-5.538,7.446,7.446,0,0,1,2.98-3.575,15.112,15.112,0,0,1,2.164,2.739c.472.781.673,1.34.4,1.562a5.348,5.348,0,0,0-1.913,3.12,6.552,6.552,0,0,0,.168,3.123c.561,1.923,1.58,3.36,1.791,4.9A7.109,7.109,0,0,1,133.854,174.916Z" /></g><g class="cls-6" transform="matrix(-1, 0, 0, 1, 380, 0)"><path class="cls-5" d="M229.017,217.673c-.242.273-1.113.048-2.032-.42a13.139,13.139,0,0,1-1.376-.768c-.445-.251-.832-.506-1.146-.654-2.276-1.023-4.081-3.257-5.4-5.28a17,17,0,0,1-2.754-10.422c2.269.371,4.371,1.924,4.342,2.763a12.027,12.027,0,0,0,2.425,7.95c1.464,1.932,3.158,3.037,4.351,4.341a5.829,5.829,0,0,1,.938,1.326C228.675,217,228.936,217.5,229.017,217.673Z" /><path class="cls-5" d="M234.459,214.743c-.436.628-1.969-.252-2.78-.275a7.1,7.1,0,0,1-3.915-1.545,6.068,6.068,0,0,1-2.227-2.85,4.269,4.269,0,0,1,.043-3.294c2.113.264,3.676.195,3.557.648a3.132,3.132,0,0,0,.3,2.4,3.976,3.976,0,0,0,1.428,1.425c1.106.676,2.249.919,2.932,1.683A4.506,4.506,0,0,1,234.459,214.743Z" /></g><g class="cls-6" transform="matrix(-1, 0, 0, 1, 380, 0)"><path class="cls-5" d="M252.742,190.927a1.931,1.931,0,0,1-.451-.724c-.091-.2-.189-.432-.292-.7l-.433-.847a21.308,21.308,0,0,0-2.848-4.274,33.349,33.349,0,0,0-8.261-6.979l-.861-.472,1.943-1.176q.075.534.149,1.073.08.818.158,1.645c.1,1.162.18,2.382.222,3.595q.048,1.846.1,3.735.015.99.03,1.991-.064.6-.129,1.208-1.653-2.263-3.324-4.551a25.418,25.418,0,0,0-3.073-3.405l-.757-.706-.436-.358c-.293-.238-.575-.483-.877-.715q-.888-.708-1.8-1.394c-1.22-.915-2.463-1.805-3.713-2.665l-.235-.16-.116-.078-.009,0-.034-.01-.058-.012c-.033,0-.053,0-.063.012h0c-.016.019.033.115.04.124.023.151-.013-.471.11,1.131q.06.907.12,1.81l.072,1.629,0,1.576a18.671,18.671,0,0,1-.352,2.709q-.242,1.291-.482,2.57l-3.353-2.147-1.641-1.126c-.545-.372-1.006-.788-1.507-1.176l-.733-.589-.409-.381-.808-.761c-.506-.534-1.037-1.038-1.5-1.595a34.5,34.5,0,0,1-4.672-6.821,40.7,40.7,0,0,1-4.168-13.122c1.592,2.066,3.445,5.067,5.3,7.692,1.827,2.65,3.637,4.909,4.412,6.231a27.371,27.371,0,0,0,3.532,4.856q.467.49.925.977l.459.5a9.811,9.811,0,0,0,1.07.965l.092.074c.021,0,.022-.042.034-.061a1.057,1.057,0,0,0,.052-.156,3.116,3.116,0,0,0,.068-.341,7.626,7.626,0,0,0,.072-.773c.014-.3.023-.515.02-.919-.02-.554-.039-1.1-.059-1.65l-.107-1.979c-.039-.757-.1-1.536-.088-2.212.032-.669.1-1.244.165-1.794a6.56,6.56,0,0,1,.132-.846c.009-.1.061-.086.1-.1l.128-.026.257-.05,2.837,1.911c.9.61,1.974,1.37,2.522,1.764q1.986,1.416,3.843,2.856c.622.475,1.223.97,1.822,1.453l1.469,1.248a13.938,13.938,0,0,1,1.585,1.561c.107.134.215.3.306.4l-.023-.632q-.033-.59-.067-1.166-.1-1.35-.2-2.638l-.2-2.636,2.222,1.412a34.6,34.6,0,0,1,6.905,5.744,20.177,20.177,0,0,1,3.736,5.718c.206.545.406,1.063.572,1.552.125.5.242.969.346,1.388C252.671,189.97,252.707,190.617,252.742,190.927Z" /></g><g class="cls-6" transform="matrix(-1, 0, 0, 1, 380, 0)"><path class="cls-5" d="M287.519,179.9c.708.249.52,3.611.879,4.981a15.047,15.047,0,0,1-.284,8.016,11.163,11.163,0,0,1-1.671,3.264,14.462,14.462,0,0,1-2.21,2.365,16.476,16.476,0,0,1-4.455,2.735c-.656-2.245,0-4.945.759-5.288a9.642,9.642,0,0,0,3.7-2.794,7.709,7.709,0,0,0,1.432-3.63c.359-2.508-.014-4.78.417-6.776A8.193,8.193,0,0,1,287.519,179.9Z" /></g></svg>