<svg xmlns="http://www.w3.org/2000/svg" data-name="arcane art" id="arcane_art" viewBox="0 0 380 600"><defs><style>.cls-1{fill:#fffde1;}.cls-2{opacity:0.4;}.cls-3{fill:#172e35;}</style></defs><g id="Jinx"><path class="cls-1" d="M121.061,262.674c4.225-.609,3.674-16.412,3.167-19.081-1.091-5.742-3.785-11.371-8.392-14.977-10.69-8.368-29.708-8.1-40.581-.476,5.4-10.3,29.691-34.156,42.056-32.434,1.167-6.328,7.909-8.217,13.416-6.806,5.875-1.727,11.4-5.528,17.918-4.695,6.418,1.128,6.267-12.593,19.722-6.659a11.87,11.87,0,0,1,10.358.744c3.234-5.455,15.78-8.3,17.078-.317a26.442,26.442,0,0,1,24.455,6.559,7.87,7.87,0,0,1,9.822,3.95c7.391-3.661,16.979-.807,21.969,5.543,2.115,2.174,1.946,5.641,4.56,7.351,10.523,6.937,15.765,11.729,22.634,22.278-14.7-7.273-16.771-16.4-32.08-9.555-18.129,8.1-41.2,12.753-68.547,12.2-7.718-.157-21.372,2.877-21.954,2.791-10.046-1.488-16.93-3.535-28.263-6.8,7.426,8.1,13.41,12.1,26.4,15.354-.644,2.785-1.658,2.17-1.489,5.023-9.148-.939-17.2-2.692-25.318-7.015,4.194,4.947,7.866,9.006,14.055,11.21,3.3,1.176,6.9,2.506,10.239,3.413a34.679,34.679,0,0,0-2.731,8.873c-5.355-1.727-15.124,3.958-15.7,9.556"></path><path d="M133.814,268.7a5.916,5.916,0,0,1,.444-2.135,11.387,11.387,0,0,1,2.512-3.5,18.252,18.252,0,0,1,5.1-3.456,15.181,15.181,0,0,1,3.558-1.152,7.191,7.191,0,0,1,1-.151l.517-.04.26-.019.131-.01.068,0,.8.039.785.161c.094.052.076-.063.092-.127l.032-.216.072-.433q.086-.428.171-.864.12-.5.24-1.012l.31-1.14.351-1.15.339-1c.206-.578.434-1.151.693-1.712-.09-.105-.373-.12-.55-.187l-.6-.169-1.226-.366c-1.06-.332-2.171-.7-3.269-1.077l-3.344-1.16a26.141,26.141,0,0,1-3.445-1.42,26.507,26.507,0,0,1-6.274-4.44,69.374,69.374,0,0,1-5.306-5.7l-3.279-3.8,4.454,2.341a55.419,55.419,0,0,0,12.127,4.63,84.983,84.983,0,0,0,12.857,2.123l-1.222,1.17a8.974,8.974,0,0,1,.016-1.47,4.9,4.9,0,0,1,.172-.827l.066-.189.034-.082c.026-.061.055-.12.086-.178a4.694,4.694,0,0,0,.615-1.423c0-.053.063-.143.013-.167l-.19-.048-.378-.1-.748-.188-1.959-.55a54.038,54.038,0,0,1-9.081-3.567,49.266,49.266,0,0,1-13.484-10.712L124,219.641l4.784,1.3,6.4,1.742c5.717,1.529,11.489,2.988,17.411,3.956l2.226.353,1.119.162.56.079a.9.9,0,0,0,.258.02l.86-.153,1.116-.214,2.266-.438c3.037-.579,6.109-1.123,9.237-1.55,1.566-.209,3.142-.4,4.75-.52.805-.06,1.614-.109,2.44-.129l2.405-.018c3.1.018,6.2-.043,9.317-.153a185.617,185.617,0,0,0,18.678-1.648,142.067,142.067,0,0,0,36.207-9.787l2.153-.933,2.363-.969a27.951,27.951,0,0,1,5.094-1.415,8,8,0,0,1,1.368-.17l1.4-.094c.469-.013.951.045,1.425.07a8.49,8.49,0,0,1,1.422.166l1.405.3a13.848,13.848,0,0,1,1.342.44,19.1,19.1,0,0,1,2.513,1.111,96.7,96.7,0,0,1,8.164,5.42,64.154,64.154,0,0,0,7.777,4.621l-3.515,3.955a82.719,82.719,0,0,0-6.157-8.323,53.883,53.883,0,0,0-7.168-6.928c-2.579-2.087-5.344-3.993-8.137-5.837l-.568-.383a7.493,7.493,0,0,1-.795-.623,7.92,7.92,0,0,1-1.286-1.468,14.137,14.137,0,0,1-1.433-2.817,18.087,18.087,0,0,0-.879-1.978,4.072,4.072,0,0,0-.412-.595l-.774-.889a16.444,16.444,0,0,0-8.517-5.059,15.234,15.234,0,0,0-4.914-.365,14.26,14.26,0,0,0-2.369.438l-.721.232c-.478.139-.933.385-1.389.569l-2.722,1.181-.687-1.346c-.237-.449-.478-.971-.712-1.358l-.348-.54-.175-.27-.087-.135a.39.39,0,0,0-.043-.045c-.107-.1-.2-.207-.309-.3a5.18,5.18,0,0,0-1.539-.943A5.1,5.1,0,0,0,223.04,187l-.431.011-.415.052c-.775.227-1.724.541-2.632.868l-2.409-2.187-1.181-.94-1.214-.838-1.269-.758a23.944,23.944,0,0,0-11.313-2.987c-.488.014-.977.009-1.464.033-.484.046-.972.07-1.454.127l-.864.128c-.546.06-1.1.219-1.645.325l-3.247.7-.615-2.842-.194-.677-.1-.338a1.149,1.149,0,0,0-.076-.235,2.59,2.59,0,0,0-.173-.287,2.321,2.321,0,0,0-.9-.716,6.32,6.32,0,0,0-3.465-.335,11.894,11.894,0,0,0-3.943,1.307,9.565,9.565,0,0,0-1.636,1.119c-.128.1-.222.209-.338.31a9.746,9.746,0,0,0-.831,1.067c-.532.758-1.041,1.568-1.534,2.307l-2.03-1.116c-.344-.2-.687-.37-1.029-.526-.317-.148-.776-.379-.842-.382a8.1,8.1,0,0,0-1.678-.428,8.949,8.949,0,0,0-3.333.108l-.4.1-.205.064a5.333,5.333,0,0,0-.521.177c-.685.2-1.419.7-1.994.234l-.916-.376c-.272-.11-.7-.294-.776-.31l-.888-.3a8.934,8.934,0,0,0-3.267-.446,4.87,4.87,0,0,0-2.6.974,15.194,15.194,0,0,0-2.587,2.61c-.469.551-.96,1.149-1.569,1.783a10.386,10.386,0,0,1-2.366,1.893,6.728,6.728,0,0,1-3.628.866l-.837-.09-.414-.033a6.885,6.885,0,0,0-.835-.049,19.452,19.452,0,0,0-7.34,1.573c-1.278.479-2.584,1.023-3.945,1.56-.678.269-1.377.535-2.089.788-.362.123-.713.255-1.083.37l-.853.266-.493.153c-.163.047-.324.134-.493.06l-1.558-.336-.846-.118-.851-.055-.847.01a9.145,9.145,0,0,0-3.151.695,6.012,6.012,0,0,0-2.311,1.691,6.321,6.321,0,0,0-.4.56l-.169.3a1.379,1.379,0,0,0-.2.471c-.164.547-.329,1.013-.493,1.623l-.493,1.953-1.861-.141a15.889,15.889,0,0,0-1.838-.088l-.508.017c-.126.008-.258.035-.387.051l-.779.108a19.547,19.547,0,0,0-3.217.945,38.178,38.178,0,0,0-6.326,3.192,84.784,84.784,0,0,0-11.492,8.668q-2.683,2.369-5.184,4.871-1.248,1.25-2.447,2.527l-1.739,1.9a17.216,17.216,0,0,0-1.2,1.431c-.1.135-.2.277-.3.424l-.147.224-.072.115c-.008.015-.034.048-.028.048l.043-.026a5.957,5.957,0,0,1,.737-.405,7.592,7.592,0,0,1,1.422-.516l.4-.109,1.106-.249,1.367-.308L88.285,221a43.391,43.391,0,0,1,10.882-.305c7.095.693,14,3.178,19.082,7.956a24.036,24.036,0,0,1,5.47,8.4,30.624,30.624,0,0,1,1.424,4.612,21.525,21.525,0,0,1,.432,2.394c.079.807.114,1.573.14,2.342a59.308,59.308,0,0,1-.386,9,24.474,24.474,0,0,1-.916,4.382,9.042,9.042,0,0,1-.978,2.145,3.386,3.386,0,0,1-2.109,1.568,3.132,3.132,0,0,0,1.81-1.468,7.568,7.568,0,0,0,.8-1.982,21.948,21.948,0,0,0,.581-4.136,59.846,59.846,0,0,0-.232-8.811c-.073-.758-.159-1.523-.271-2.284-.058-.378-.118-.765-.2-1.117l-.3-1.127a29.857,29.857,0,0,0-1.643-4.418,22.059,22.059,0,0,0-5.639-7.615,25.921,25.921,0,0,0-8.546-4.486,36.119,36.119,0,0,0-9.7-1.592,39.055,39.055,0,0,0-9.676.906c-.788.137-1.54.4-2.3.588l-.285.076c-.02.011-.4.1-.528.148-.36.115-.754.3-1.131.446l-2.3.937-1.155.473c-.2.084-.374.145-.591.25l-.828.509-3.333,2.052-3.427,2.123-3.84,2.433.489-1.055.251-.534a.532.532,0,0,0,.056-.139l.023-.079.212-.652c.045-.121.066-.2.135-.36l.545-1.01,1.027-1.892,1.931-3.534c.337-.6.743-1.242,1.111-1.859a11.334,11.334,0,0,1,.637-.97l.7-1c.437-.658.97-1.34,1.5-2.022s1.04-1.359,1.606-2.035l1.407-1.666.9-1.028q1.794-2.034,3.57-3.842a90.609,90.609,0,0,1,12.754-10.985,59.017,59.017,0,0,1,9.28-5.4,30.176,30.176,0,0,1,5.18-1.8,19.84,19.84,0,0,1,2.8-.452l.37-.013.1,0,.1.008.184.033.056-.151.21-.485c.221-.4.47-.853.724-1.262.3-.391.577-.8.9-1.16a11.485,11.485,0,0,1,4.694-3.089,14.83,14.83,0,0,1,5.206-.831,16.535,16.535,0,0,1,2.566.24,5.506,5.506,0,0,1,.592.116l.164.045a.183.183,0,0,0,.13-.008l.057-.013.138-.04c2.626-.81,5.3-2.038,8.211-3.02a21.184,21.184,0,0,1,9.5-1.27l.494.054a1.2,1.2,0,0,0,.3.027,1.463,1.463,0,0,0,.5-.065,3.138,3.138,0,0,0,1.139-.679,36.859,36.859,0,0,0,2.747-2.991,14.221,14.221,0,0,1,3.776-3.134,9.8,9.8,0,0,1,5.026-1.129,15.246,15.246,0,0,1,4.674.974l.514.184.262.114c.169.051.373.222.5.116a12.064,12.064,0,0,1,1.856-.453,13.7,13.7,0,0,1,4.758.044,14,14,0,0,1,2.251.623c.319.114.6.293.869.407a3.528,3.528,0,0,1,.379-.488c.086-.088.112-.126.251-.252.19-.179.379-.362.58-.52a14.136,14.136,0,0,1,2.518-1.67,16.108,16.108,0,0,1,5.6-1.738,10.446,10.446,0,0,1,5.97.893,6.712,6.712,0,0,1,2.453,2.14l.4.661.134.3a4.036,4.036,0,0,1,.168.644c-.009.111.083.065.154.052l.216-.044.436-.088,1.3-.184,1.785-.137,1.784-.016a28.332,28.332,0,0,1,13.356,3.722c.489.3.986.587,1.463.9.467.33.941.646,1.4.987l1.29,1.039a6.405,6.405,0,0,0,.714.62,4.413,4.413,0,0,1,.891-.235,9.384,9.384,0,0,1,7.716,2.375l.575.584.309.384a4.515,4.515,0,0,1,.414.712c.014.074.065.044.115.019l.144-.061.289-.123a3.931,3.931,0,0,1,.588-.22l.988-.309,1.116-.237a17.519,17.519,0,0,1,4.5-.28,20.715,20.715,0,0,1,8.494,2.425,21.158,21.158,0,0,1,6.633,5.675,16.663,16.663,0,0,1,1.951,3.945,5.39,5.39,0,0,0,1.982,2.71,85.842,85.842,0,0,1,12.925,10.021,73.325,73.325,0,0,1,9.967,12.527l2.344,3.579-3.839-1.9a68.581,68.581,0,0,1-9.462-5.766c-2.97-2.056-5.777-4.329-8.871-5.364-3.07-1.123-6.427-.619-9.6.452-3.115,1.121-6.373,2.723-9.635,3.925a152.986,152.986,0,0,1-39.6,8.981c-6.557.643-13.05.927-19.447.928-1.573,0-3.253-.029-4.713-.006-1.512.045-3.04.149-4.569.321-3.056.319-6.1.806-9.119,1.325l-4.523.821-1.143.207-.6.1a7.425,7.425,0,0,1-.857.075c-.666-.068-.926-.132-1.333-.186l-1.141-.179c-3.037-.492-6.043-1.081-9-1.772-5.91-1.377-11.592-3.069-17.188-4.666l1.7-2.738a61.9,61.9,0,0,0,6.542,6.267,38.083,38.083,0,0,0,7.43,4.662,56.663,56.663,0,0,0,8.213,3.06l.739.218.835.231,1.515.515,1.508.514.188.064.094.032a.4.4,0,0,1-.02.095l-.1.394-.212.773a11.884,11.884,0,0,1-1.23,2.971,1.18,1.18,0,0,0-.182.417,2.216,2.216,0,0,0-.049.327,6.592,6.592,0,0,0-.007.874l.064,1.865-1.805-.2c-2.859-.314-5.694-.714-8.49-1.263a58.485,58.485,0,0,1-17.3-6.138l1.66-2.059c2.973,3.634,6.131,7.368,10.261,9.684a25.207,25.207,0,0,0,3.2,1.5l3.411,1.3c1.127.427,2.243.84,3.35,1.23,1.287.471,2.862.89,4.071,1.336-.5,1.015-.978,2.037-1.366,3.007-.211.525-.344.9-.48,1.272s-.259.762-.385,1.132c-.241.762-.437,1.4-.651,2.295-.1.41-.187.814-.267,1.195l-.114.56-.052.269c-.013.094-.024.191-.114.167l-1.068-.263c-.355-.064-.713-.094-1.06-.14l-.261-.032a1.243,1.243,0,0,0-.152-.013l-.106,0-.421.016a6.2,6.2,0,0,0-.831.057,14.238,14.238,0,0,0-3.119.752,18.1,18.1,0,0,0-4.941,2.676,13.088,13.088,0,0,0-3.012,3.162A7.166,7.166,0,0,0,133.814,268.7Z"></path><path d="M185.609,217.972c-.081.385-2.394,1.961-5.568,2.616a13.9,13.9,0,0,1-4.923.149,12.813,12.813,0,0,1-3.944-1.3,10.706,10.706,0,0,1-3.634-3.021,9.526,9.526,0,0,1-1.273-2.217,6.462,6.462,0,0,1-.222-.616l-.1-.313-.036-.1a2.031,2.031,0,0,1-.081-.231,1.291,1.291,0,0,0-.356.032.42.42,0,0,1-.07.008l-.19.008-.383.022-.774.063c-1.04.1-2.11.256-3.211.411a25.929,25.929,0,0,1-7.038.313,12.4,12.4,0,0,1-5.115-1.908,8.528,8.528,0,0,1-3.6-4.592,6.747,6.747,0,0,1-.156-.694l-.059-.3,0,0a.128.128,0,0,0,.015-.031c.007-.033-.015-.049-.046-.056l-.029-.006-.475.147-1.063.321c-.715.209-1.446.4-2.191.559a14.15,14.15,0,0,1-4.6.295,11.328,11.328,0,0,1-1.139-.194,7.982,7.982,0,0,1-1.148-.372,7.606,7.606,0,0,1-1.952-1.154,7.217,7.217,0,0,1-2.412-3.377,4.757,4.757,0,0,1,.249-3.728,4.741,4.741,0,0,0,1.152,3.146,6.542,6.542,0,0,0,2.695,1.836,6.02,6.02,0,0,0,1.408.344c.223.034.418.027.635.04s.449.007.665-.007c.855-.029,1.6-.13,2.15-.145a20.636,20.636,0,0,0,4.351-.7l.555-.139c.262-.071.611-.183.9-.241a3.567,3.567,0,0,1,1.7-.135,1.833,1.833,0,0,1,1.281.87,3.118,3.118,0,0,1,.312,1.564,7.976,7.976,0,0,0,.1,1.211,4.544,4.544,0,0,0,.285.832,4.966,4.966,0,0,0,1.04,1.5,8.49,8.49,0,0,0,3.2,1.994c2.39.886,4.969.611,7.438.319,1.239-.154,2.468-.333,3.7-.44.628-.058,1.207-.091,1.879-.1a18.348,18.348,0,0,1,2.51.156c.054.491.093.984.185,1.476l.06.37.029.184.034.107.13.417a7.493,7.493,0,0,0,.751,1.533,9.027,9.027,0,0,0,2.264,2.42,10.677,10.677,0,0,0,5.8,2.049,21.091,21.091,0,0,0,4.786-.267A24.92,24.92,0,0,0,185.609,217.972Z"></path><path class="cls-1" d="M190.792,214.841c.048,2.571,2.525,4.474,5.055,4.937,6.268,1.146,9.58-4.626,12.411-3.632,1.969,6.207,13.463,7.958,13.994.238,3.566,4.734,22.864,10.683,24.229-7.746"></path><path d="M246.511,208.641c.233.291.36,3.225-.922,6.41a11.579,11.579,0,0,1-2.988,4.281,12.329,12.329,0,0,1-3.749,2.245,16.165,16.165,0,0,1-9.289.518,21.155,21.155,0,0,1-4.6-1.555c-.369-.189-.741-.366-1.1-.582l-.459-.268-.061-.026c-.075-.026-.133-.07-.157-.069q0,.088,0,.153l-.007.058,0,.025v.006c.01-.017-.031.053.056-.09l-.014.025-.03.051-.118.2a6.656,6.656,0,0,1-2.622,2.508,8.635,8.635,0,0,1-4.264.959,11.271,11.271,0,0,1-4-.837,10.863,10.863,0,0,1-3.4-2.178,9.532,9.532,0,0,1-1.332-1.583l-.27-.449-.131-.226c-.03-.051-.008-.018-.015-.032l0-.036c0-.027-.024-.037-.048-.046s-.04,0-.028-.012a3.925,3.925,0,0,0-.492.216c-.755.372-1.618.908-2.525,1.385a12.242,12.242,0,0,1-6.064,1.671,8.644,8.644,0,0,1-1.525-.152,7.767,7.767,0,0,1-1.457-.358,8.013,8.013,0,0,1-2.5-1.409,5.461,5.461,0,0,1-2.16-4.593,5.164,5.164,0,0,0,2.341,2.63,7.1,7.1,0,0,0,3.355.857,13.445,13.445,0,0,0,5.129-1.289,30.492,30.492,0,0,0,3.26-1.473,9.022,9.022,0,0,1,2.253-.815l.729-.1.7.077a4.335,4.335,0,0,1,.676.148l.33.087.258.136c.112.349.223.691.354,1.021l.188.492c.051.123.082.166.123.254a4.81,4.81,0,0,0,.559.886,6.9,6.9,0,0,0,1.57,1.471,8.385,8.385,0,0,0,4.044,1.43,5.457,5.457,0,0,0,3.8-.985,3.48,3.48,0,0,0,.657-.66,2.582,2.582,0,0,0,.262-.382l.061-.1.031-.049a.753.753,0,0,0,.052-.127l.134-.375a18.709,18.709,0,0,0,.595-3.427c.483.467,1.156,1.3,1.781,1.884a6.417,6.417,0,0,0,.955.813l.239.183.135.089.084.05.337.2a16.828,16.828,0,0,0,2.827,1.281,18.79,18.79,0,0,0,5.753,1.081,10.957,10.957,0,0,0,9-3.569,16.175,16.175,0,0,0,2.549-4.283A30.357,30.357,0,0,0,246.511,208.641Z"></path><path class="cls-1" d="M178.908,207.947c6.143,5.121,17.064,6.4,23.1-.594,1.831-2.122,1.323-5.862-.473-6.734a63.94,63.94,0,0,1,26.153,10.875c6.324,6.485,21.72,12.112,26.215-3.069,7.782,3.506,19.272-2.983,23.27-13.141,9.944,1.992,24.464-11.29,16.058-20.911,18.568-.766,11.3-23.872-5.27-24.334-7.635-.213-15.817,1.475-22.557-1.9,8.053,1.55,16.95-2.9,20.067-10.032,16.808,10.819,33.606-1.952,19.708-12.518-5.017-3.064-11.3-1.478-16.83-2.46-9.666-6.393-21.173-14.419-33.378-10.119a29.06,29.06,0,0,0-26-4.937,23.078,23.078,0,0,0,11.315-7.229c1.485-1.765,11.514-2.182,14.6-4.838,4.085-3.512,6.278-8.19,2-12.645-7.452-3.9-39.195,14.39-49.662,17.379,6.191-3.581,5.86-13.7-1.536-15.524-23.563-.022-58.764,27.651-62.041,49.869-6.4,3.882-10.692,12.978-9.533,20.215a13.451,13.451,0,0,0-5.631,7.5c-11.943-22.191-36.8.141-15.7,14.425,7.484,3.8,2.066,12.633,10.062,16.46,2.718,1.311,6.5.9,8.263-1.437"></path><path d="M131.156,192.281a4.674,4.674,0,0,1-2.409,1.962,7.265,7.265,0,0,1-2.79.525,7.665,7.665,0,0,1-3.515-.819,9.02,9.02,0,0,1-3.35-2.73,11.8,11.8,0,0,1-1.82-4.578,29.432,29.432,0,0,0-1.262-5.01,7,7,0,0,0-3.534-3.774l-.039-.018-.037-.027a25.784,25.784,0,0,1-4.357-3.647,16.162,16.162,0,0,1-3.351-5.067,11.9,11.9,0,0,1,2.023-12.455,12.549,12.549,0,0,1,5.81-3.691,12.2,12.2,0,0,1,7.038.18,14.958,14.958,0,0,1,5.937,3.823c.392.42.8.9,1.153,1.294.226.247.44.584.658.87a7.947,7.947,0,0,1,.6.919l.282.468.141.234c.027.073.039.006.054-.039l.044-.132a10.111,10.111,0,0,1,.592-1.4c.114-.225.239-.443.369-.657l.2-.316.283-.4a11.951,11.951,0,0,1,3.08-2.991,3.169,3.169,0,0,0-.049-.617,5.158,5.158,0,0,1-.048-.762,16.335,16.335,0,0,1,.04-2.089,20.908,20.908,0,0,1,.718-4.05A24.166,24.166,0,0,1,136.991,140a23.221,23.221,0,0,1,2.492-3.08c.487-.446.928-.935,1.453-1.336l.765-.62c.214-.163.355-.248.535-.374.467-.178.345-.613.453-.957l.171-.924.239-.9c.285-1.213.709-2.357,1.1-3.5a52.015,52.015,0,0,1,6.513-11.713,81.612,81.612,0,0,1,7.216-8.571,95.332,95.332,0,0,1,14.586-12.331,82.194,82.194,0,0,1,17.306-9.23,53.9,53.9,0,0,1,9.72-2.731c.839-.157,1.686-.287,2.547-.364l1.287-.137,1.3-.058.738-.03.5-.019a2.577,2.577,0,0,1,.491.134l.837.269a5.514,5.514,0,0,1,.723.267c.464.24.935.472,1.383.742.423.317.852.632,1.253.976a9.932,9.932,0,0,1,2.947,5.431,11.58,11.58,0,0,1,.162,3.045l-.076.64a1.03,1.03,0,0,1-.026.152,2.1,2.1,0,0,1-.082.312,2.005,2.005,0,0,1-.681.972l-.118.079c-.013.014-.14.082-.042.043L213,96.07l.592-.241,5.443-2.5,9.053-4.221a150.458,150.458,0,0,1,18.876-7.573,33.172,33.172,0,0,1,5.293-1.138,14.352,14.352,0,0,1,3.03-.072,5.72,5.72,0,0,1,.856.129,4.649,4.649,0,0,1,1.046.284l1.073.421a4.137,4.137,0,0,1,.834.821c.314.363.447.5.611.717l.463.659a11.3,11.3,0,0,1,.817,1.437,9.368,9.368,0,0,1,.813,3.383,9.575,9.575,0,0,1-.511,3.39,12.1,12.1,0,0,1-1.423,2.825,15.94,15.94,0,0,1-1.858,2.29c-.333.345-.671.681-1.023.99a10.532,10.532,0,0,1-1.355,1.054,20.4,20.4,0,0,1-5.393,2.029c-1.693.429-3.341.757-4.908,1.108-.766.178-1.547.356-2.195.56a8.728,8.728,0,0,0-.843.3c-.071.053-.065.03-.08.044,0,.031-.036.021-.045.042,0,0,.02-.022,0,0l-.08.092-.159.182c-.106.122-.212.244-.323.36-.223.232-.436.474-.666.7q-.679.681-1.4,1.3a25.686,25.686,0,0,1-3.035,2.244,26.3,26.3,0,0,1-6.779,3.042l-1.545-5.282a32.251,32.251,0,0,1,23.862,2.285c.882.492,1.767.974,2.6,1.546l.618.4.118.087c.064.04.193.157.189.118l.047-.018a2.428,2.428,0,0,1,.293-.09l.738-.21.756-.138,1.512-.268c.5-.089,1.016-.09,1.523-.136a28.4,28.4,0,0,1,11.667,1.762,54.961,54.961,0,0,1,9.255,4.417c1.455.837,2.859,1.721,4.244,2.607l3.83,2.5.01,0c.019,0-.1-.016.154.021.341.05.7.072,1.056.111.727.052,1.473.086,2.249.1,1.551.033,3.195.016,4.933.108a22.486,22.486,0,0,1,5.466.874,14.87,14.87,0,0,1,2.764,1.15l.79.434.665.54c.353.3.719.565,1.058.9A15.71,15.71,0,0,1,312.2,129.2a10.185,10.185,0,0,1,.911,6.6,10.5,10.5,0,0,1-3.43,5.641,14.78,14.78,0,0,1-5.229,2.862,21.374,21.374,0,0,1-10.952.37,25.92,25.92,0,0,1-5.069-1.62c-.4-.179-.808-.348-1.2-.537l-.617-.321,0,0a2.949,2.949,0,0,1-.214.307c-.367.471-.714.964-1.107,1.409s-.789.889-1.219,1.291a22.221,22.221,0,0,1-19.22,5.843l1.883-5.553c4.03,2.055,9.221,1.947,14.554,1.745,1.339-.049,2.71-.1,4.1-.115a38.941,38.941,0,0,1,4.375.143,19.976,19.976,0,0,1,8.678,3.159,19.049,19.049,0,0,1,3.528,2.96,18.854,18.854,0,0,1,2.75,3.688,15.665,15.665,0,0,1,2.206,9.127,11.456,11.456,0,0,1-1.529,4.849,10.785,10.785,0,0,1-3.552,3.646,8.538,8.538,0,0,1-1.066.609,7.51,7.51,0,0,1-1.09.5c-.368.14-.736.29-1.105.414l-.554.151a1.133,1.133,0,0,1-.113.024c-.1.029-.272.013-.341.044a.994.994,0,0,1,.1.168l.04.1.008.026c.018.038-.009-.034.046.119a6.107,6.107,0,0,1,.212.651,11.966,11.966,0,0,1,.233,5.364,16.855,16.855,0,0,1-4.629,8.522,22.79,22.79,0,0,1-7.533,5.166,18.873,18.873,0,0,1-4.464,1.257,16.348,16.348,0,0,1-2.384.166l-.15,0-.025,0-.045,0-.092-.009-.173-.033a2.446,2.446,0,0,0-.161.3l-.987,1.73a27.42,27.42,0,0,1-2.488,3.372,26.182,26.182,0,0,1-6.235,5.25,21.305,21.305,0,0,1-7.569,2.841,15.55,15.55,0,0,1-4.145.128,5.677,5.677,0,0,1-1.044-.156,2.314,2.314,0,0,1-.261-.061l-.114-.029c-.145-.042-.286-.111-.434-.166a1.138,1.138,0,0,0-.094.221c-.023.068-.064.166-.12.289l-.076.169c-.04.084-.013.045-.126.263l-.511.992a15.232,15.232,0,0,1-2.771,3.612,12.39,12.39,0,0,1-3.9,2.507,13.494,13.494,0,0,1-4.411.939,19.617,19.617,0,0,1-8.229-1.556,26.443,26.443,0,0,1-6.853-4.109,19.8,19.8,0,0,1-1.481-1.349l-.2-.2-.267-.192-.721-.514q-1.449-1.014-2.94-1.936a61.854,61.854,0,0,0-6.1-3.311,62.7,62.7,0,0,0-6.31-2.568q-1.594-.551-3.2-1.013l-1.049-.3-.852-.223c-.409-.105-.789-.182-1.154-.263l-.136-.03-.056-.011.053.032a.766.766,0,0,1,.2.143,1.461,1.461,0,0,1,.289.386,2.606,2.606,0,0,1,.248,1.2l-.02.323-.092.641a7.334,7.334,0,0,1-.363,1.243,6.773,6.773,0,0,1-.618,1.157L203,208.2l-.39.393A12.139,12.139,0,0,1,201,210.054c-.288.215-.558.452-.857.643l-.91.545a15.793,15.793,0,0,1-7.664,2.04,20,20,0,0,1-13.2-4.679,19.872,19.872,0,0,0,13.108,3.595,14.637,14.637,0,0,0,7.01-2.372l.783-.537.718-.628a11.216,11.216,0,0,0,1.33-1.373,3.823,3.823,0,0,0,.9-1.522,5.547,5.547,0,0,0,.189-.868l.034-.449a1.8,1.8,0,0,1,.011-.614,6.034,6.034,0,0,0-.231-2.437,1.744,1.744,0,0,0-.441-.66.985.985,0,0,0-.305-.191c-.05-.016-.024-.022.019-.026l.1-.017.2-.034a4.447,4.447,0,0,0,1.607-.5c.761.126,1.539.261,2.338.438l1.21.251.969.224c1.216.28,2.432.6,3.64.963a63.578,63.578,0,0,1,14.088,6.1l1.661,1.008.815.528.408.265a3.134,3.134,0,0,1,.565.421l.386.357c.1.1.208.19.319.279.221.179.429.369.661.538.45.35.917.683,1.4,1,3.808,2.5,8.526,3.962,12.337,3.181a7.843,7.843,0,0,0,4.607-2.763,10.352,10.352,0,0,0,1.491-2.38l.156-.325a1.683,1.683,0,0,0,.088-.2l.13-.363.519-1.451c.345-.981.677-2.093,1.02-3.12l4.028,1.4c.814.143.846.164,1.162.208l.82.03a3.556,3.556,0,0,0,.823-.02l.827-.065c.552-.113,1.1-.192,1.645-.344a18.142,18.142,0,0,0,5.931-2.985,22.1,22.1,0,0,0,4.355-4.339,23.049,23.049,0,0,0,1.5-2.349l.329-.577.041-.071.071-.157.154-.341.305-.677,1.189-2.633c4.832.779,4.806.48,6.3.251a16.621,16.621,0,0,0,9.727-6.588,9.137,9.137,0,0,0,1.757-4.975,6.786,6.786,0,0,0-.088-1.212l-.129-.59c-.026-.1-.066-.192-.1-.288l-.092-.263a2.447,2.447,0,0,0-.151-.356l-.169-.356-.252-.36-.508-.718c-.327-.472-.678-.954-1.07-1.451l-2.143-2.769a6.962,6.962,0,0,1,.913-.1l.99-.073,1.981-.15a29.6,29.6,0,0,0,3.909-.468l.574-.149a1.913,1.913,0,0,0,.395-.122l.764-.279a8.613,8.613,0,0,0,1.346-.754,6.078,6.078,0,0,0,2.605-5.069,11.6,11.6,0,0,0-1.972-6.337,15.165,15.165,0,0,0-5.008-4.791,14.65,14.65,0,0,0-6.623-2.024c-2.438-.159-5.064-.031-7.665.029a61.094,61.094,0,0,1-8.013-.171,22.828,22.828,0,0,1-8.011-2.207l-11.469-5.733,12.546,2.559a17.608,17.608,0,0,0,15.332-4.65l.917-.979.818-1.046,1.068-1.825.99-1.957c.854.469,1.728,1.041,2.594,1.546.425.256.915.515,1.276.7.281.148.559.3.85.422a22.766,22.766,0,0,0,3.527,1.328,18.9,18.9,0,0,0,7.332.692,11.905,11.905,0,0,0,6.465-2.593,5.566,5.566,0,0,0,1.932-5.725,8.659,8.659,0,0,0-1.518-2.984,15.974,15.974,0,0,0-2.536-2.516,2.27,2.27,0,0,0-.62-.426,6.421,6.421,0,0,0-.767-.39,11.738,11.738,0,0,0-1.633-.6,17.667,17.667,0,0,0-3.55-.587c-2.455-.194-5.009-.077-7.646-.276-.327-.019-.661-.064-.991-.095-.166-.017-.33-.031-.5-.06l-.592-.089a2.38,2.38,0,0,1-.646-.138l-.555-.368-.831-.554-3.151-2.075a61.383,61.383,0,0,0-13.006-6.794,27.391,27.391,0,0,0-6.924-1.427c-.582-.014-1.165-.059-1.746-.049l-1.734.114c-.577.05-1.14.188-1.711.275a7.13,7.13,0,0,0-.847.169l-.93.271-1.2.35-.3.088-.151.042-.12-.09-.48-.362-.959-.723a4.57,4.57,0,0,0-.416-.293l-.364-.239a17.121,17.121,0,0,0-1.481-.909,16.787,16.787,0,0,0-1.538-.807,28.216,28.216,0,0,0-20.07-1.662l-.654-2.233a21.883,21.883,0,0,0,10.665-6.8,4.166,4.166,0,0,1,1.044-.806,7.056,7.056,0,0,1,1.047-.452c.663-.229,1.3-.4,1.933-.555,1.26-.3,2.495-.555,3.713-.822s2.414-.541,3.562-.88a11.976,11.976,0,0,0,3.1-1.286,9.226,9.226,0,0,0,1.236-1.068,14.88,14.88,0,0,0,1.151-1.269,8.935,8.935,0,0,0,1.581-2.824,5.215,5.215,0,0,0,.11-2.942,5.769,5.769,0,0,0-.58-1.387,5.484,5.484,0,0,0-.429-.654,4.6,4.6,0,0,0-.44-.552l-.167-.191a.887.887,0,0,0-.237-.11,1.8,1.8,0,0,0-.54-.145,3.153,3.153,0,0,0-.744-.09,5.132,5.132,0,0,0-.8-.013,18.589,18.589,0,0,0-3.364.459,55.97,55.97,0,0,0-6.755,2.044c-4.451,1.623-8.791,3.528-13.071,5.469l-12.731,5.879-1.589.719-2.278.994c-1.555.673-3.1,1.283-4.553,1.781-1.466.513-2.867.988-4.405,1.47-1.275.439-.26-.016-.018-.169a.357.357,0,0,0,.175-.14l.105-.131c.031-.079.254-.2.025-.221l-.405-.128c.068-.059-.471.053-.816.111l-1.13.2-1.133.2-.283.05.613-.507,1.236-1.021,4.954-4.089.31-.256c.116-.093.059-.076.1-.119l.093-.174.185-.349.37-.7.37-.7a3.7,3.7,0,0,0,.131-.659l.084-.717-.01-.709a6.728,6.728,0,0,0-.643-2.683,6.889,6.889,0,0,0-.681-1.16l-.45-.488a2.084,2.084,0,0,0-.489-.443l-.525-.4-.593-.308-.293-.159-.326-.1-.528-.177c-.173-.032-.8.023-1.319.033a15.357,15.357,0,0,0-1.583.123,40.63,40.63,0,0,0-6.261,1.142,74.8,74.8,0,0,0-22.7,10.9,89.564,89.564,0,0,0-18.117,16.345,60.072,60.072,0,0,0-6.646,9.716,38.952,38.952,0,0,0-2.319,5.236,27.072,27.072,0,0,0-.823,2.689,5.6,5.6,0,0,0-.163.677l-.149.774-.216,1.117a4.666,4.666,0,0,1-.12.551l-.441.295-.88.588c-.131.09-.329.212-.4.276l-.26.209a12.769,12.769,0,0,0-1.021.858,17.719,17.719,0,0,0-1.847,1.955,21.743,21.743,0,0,0-2.861,4.577,21.051,21.051,0,0,0-1.637,5.088l-.189,1.305-.087,1.3.011.646.005.323,0,.161c0,.16.012.2.018.306.068.714.175,1.446.211,2.14a21.294,21.294,0,0,0-2.025,1.343,10.619,10.619,0,0,0-1.025.972c-.248.268-.485.555-.721.863-.065.079-.11.148-.181.247l-.283.412c-.179.3-.359.6-.538.934-.653,1.345-1.356,3.331-2.058,5.319a1.326,1.326,0,0,1-.236-.151l-.285-.486-.571-.976c-.391-.651-.746-1.319-1.173-1.966s-.841-1.3-1.266-1.957a6.144,6.144,0,0,0-.678-.924l-.456-.533a13.841,13.841,0,0,0-4.416-3.467,10.1,10.1,0,0,0-5.54-.931,10.308,10.308,0,0,0-5.25,2.375,9.947,9.947,0,0,0-2.96,10.7,14.514,14.514,0,0,0,2.882,5.028,24.419,24.419,0,0,0,4.188,3.786l-.068-.041a8.352,8.352,0,0,1,3.809,4.016,20.037,20.037,0,0,1,1.186,4.838,15.686,15.686,0,0,0,1.1,4.2,7.974,7.974,0,0,0,2.395,2.96,7.83,7.83,0,0,0,5.976,1.562A5.686,5.686,0,0,0,131.156,192.281Z"></path><path d="M133.281,157.481c.079.341-.775,1.092-1.555,2.131a10.244,10.244,0,0,0-1.736,3.095,25.593,25.593,0,0,0-.869,4.294,13.734,13.734,0,0,0-.035,2.121,4.947,4.947,0,0,0,.042.508l.036.247.055.442q.117.584.234,1.161l.117.58.058.29.029.145c-.021.033-.078.047-.115.072-.592.308-1.171.619-1.8.928a2.435,2.435,0,0,0-.285.2l-.132.1a1.177,1.177,0,0,0-.253.224,6.21,6.21,0,0,0-.909,1.106,9.93,9.93,0,0,0-1.22,2.824,8.564,8.564,0,0,0,.081,5.438,3.734,3.734,0,0,1-3.138-2.017,4.426,4.426,0,0,1-.716-3.141,13.386,13.386,0,0,1,3.7-6.1c.22-.174.415-.368.646-.519l.349-.22.167-.1c-.007.013.05-.027.073-.039.126-.066.266-.111.4-.171.049-.038.173-.037.16-.107l-.031-.207a13.012,13.012,0,0,1-.141-2.431,13.684,13.684,0,0,1,3.225-8.877,6.365,6.365,0,0,1,1.94-1.393A7.691,7.691,0,0,1,133.281,157.481Z"></path><path d="M135.713,143.974c.222.3-.32,1.613-.866,3.138-.225.781-.516,1.593-.7,2.356-.15.773-.272,1.471-.318,1.975a33.1,33.1,0,0,0,1.045,10.947c1.748,5.98,4.863,11.547,6.459,15.733a10.744,10.744,0,0,1-3.769-2.007,6.952,6.952,0,0,1-2.222-2.619c-1.791-5.417-3.233-10.03-3.785-14.347a20.916,20.916,0,0,1,1.258-11.286A14.1,14.1,0,0,1,135.713,143.974Z"></path><path d="M143.909,131.148c.06-.5,2.58-3.261,5.62-6.35s6.648-6.453,8.681-8.321a61.7,61.7,0,0,1,12.444-9.206,43.581,43.581,0,0,1,7.483-3.192,39.215,39.215,0,0,1,7.866-1.49c4.482-.422,8.781-.357,12.724-1a26.586,26.586,0,0,0,5.61-1.49,35.625,35.625,0,0,0,5.094-2.583c3.3-1.965,6.421-4.141,9.658-5.732A22.644,22.644,0,0,1,224,89.956a12.714,12.714,0,0,1,4.8-.168,17.206,17.206,0,0,0-4.373,1.625,31.856,31.856,0,0,0-4.25,2.87,72.67,72.67,0,0,1-6.832,5.112,41.9,41.9,0,0,1-9.745,4.358,42.6,42.6,0,0,1-9.835,1.25c-3.145.1-6.153.11-9.018.419a29.292,29.292,0,0,0-4.167.708c-.669.177-1.338.33-1.99.527l-1.919.66a52.654,52.654,0,0,0-13.067,7.566c-3.775,2.867-7.1,5.806-10.236,8.531C150.411,126.032,145,130.324,143.909,131.148Z"></path><path d="M215.808,88.568c-.318-.081-.419-.494-.549-.933a2.614,2.614,0,0,0-.518-1.125,15.725,15.725,0,0,0-2.033-1.765c-.561-.335-1.041-.664-1.592-1.055s-1.166-.81-1.811-1.312a3.606,3.606,0,0,1,1.136-2c.51-.451,1.066-.548,1.288-.366.9.8,1.55,1.467,2.139,2.049s1.091,1.114,1.557,1.648a4.555,4.555,0,0,1,1.44,3.4C216.853,87.665,216.005,88.463,215.808,88.568Z"></path><path d="M219.693,84.448c-.619.008-.769-.895-1.247-1.063a11.662,11.662,0,0,1-1.613-.826c-.706-.3-.88-.953-1.582-2.114a3.624,3.624,0,0,1,1.015-1.868c.426-.387.854-.472.973-.275.485.8.794,1.383,1.116,1.836a8.932,8.932,0,0,0,.959,1.119c.64.634,1.3,1.3,1.223,2.067C220.57,83.685,219.869,84.35,219.693,84.448Z"></path><path d="M317.337,130.812c.313-.06.783.757.87,1.755.124.991,0,2.085.032,2.72a14.156,14.156,0,0,1-1.738,6.692,11.615,11.615,0,0,1-3.8,4.532,5.532,5.532,0,0,1-2.933,1.028,2.988,2.988,0,0,1-1.563-.379,3.415,3.415,0,0,1-.565-.447,5.427,5.427,0,0,1-.36-.516,7.37,7.37,0,0,0,.753-.176,2.656,2.656,0,0,0,.615-.312,1.96,1.96,0,0,0,.626-.827c.223-.51.439-.943.746-.986a5.887,5.887,0,0,0,3.221-2.042,10.6,10.6,0,0,0,1.833-3.054,41.845,41.845,0,0,0,1.467-5.537,10.252,10.252,0,0,1,.478-1.333A7.222,7.222,0,0,0,317.337,130.812Z"></path><path d="M322.516,136.445c.3.007.594.649.73,1.424.169.776.2,1.664.334,2.174a10.7,10.7,0,0,1-.4,5.763,7.857,7.857,0,0,1-3,4.227,7.431,7.431,0,0,1-1.227.6,5.627,5.627,0,0,1-1.32.2,4.109,4.109,0,0,1-1.178-.226,5.439,5.439,0,0,1-.88-.515c.362-.357.694-.7.95-1a5.3,5.3,0,0,0,.545-.9,4.716,4.716,0,0,1,.248-.618c.071-.162.151-.249.266-.232a3.24,3.24,0,0,0,2.477-1.482,6.823,6.823,0,0,0,1.111-2.627c.377-1.788.2-3.363.472-4.687a3.88,3.88,0,0,1,.422-1.168C322.242,136.969,322.439,136.578,322.516,136.445Z"></path><path d="M309.066,160.705c.155-.034.341.111.549.373a4.938,4.938,0,0,1,.324.471c.09.186.175.393.264.61a21.429,21.429,0,0,1,.7,2.515,11.425,11.425,0,0,1-.428,6.706c-1.14,3.686-3.974,6.512-6.438,7.336-.345-1.939-.179-4,.422-4.352a8.779,8.779,0,0,0,4.09-5.812,23.983,23.983,0,0,0,.219-5.338,7,7,0,0,1,.155-1.373C308.968,161.359,309.035,160.874,309.066,160.705Z"></path><g class="cls-2"><path d="M192.131,97.159c-.243-.558.316-1.265,1.139-1.853.812-.613,1.86-1.082,2.411-1.572,1.973-1.754,4.968-2.178,7.608-1.882a9.3,9.3,0,0,1,6.082,3.1,6.609,6.609,0,0,1,1.666,5.559c-1.787.209-3.3.405-4.343.624a10.22,10.22,0,0,1-1.183.177c-.264,0-.383-.083-.392-.256a3.791,3.791,0,0,0-1.709-3.308,4.85,4.85,0,0,0-3.116-.792,11.229,11.229,0,0,0-2.788.605,8.631,8.631,0,0,1-1.193.35,3.808,3.808,0,0,1-1.16.149,4.083,4.083,0,0,1-1.576-.372C192.974,97.484,192.352,97.254,192.131,97.159Z"></path></g><path class="cls-1" d="M234.953,191.917c3.724,4.178,9.477,5.723,14.744,7.616,7.643,2.748,16.32,9.159,12.825,18.5a10.538,10.538,0,0,1,6.813,15.333c6.324,1.47,9.764,7.291,10.1,13.377,5.843-1.654,12.827-3.589,18.759-1.4,4.309,1.589,7.821,6.175,6.723,10.635a9.467,9.467,0,0,1-2.275,4.03,13.406,13.406,0,0,1-21.327-1.971,11.294,11.294,0,0,1-17.175-13.158c-8.3-2.965-9.312-10.684-7.142-18.107-7.473-.584-13.494-8.492-12.069-15.851a16.133,16.133,0,0,1-14.209-9.151"></path><path d="M230.749,201.753a21.978,21.978,0,0,0,4.2,4.92,16.5,16.5,0,0,0,5.3,2.905,15.149,15.149,0,0,0,1.648.444l.861.156,1.093.106c.357.046.8.038,1.2.059l.309.011.155,0,.077,0-.009.076-.074.609c-.046.409-.107.819-.142,1.238-.018.188-.017.472-.015.6v.46a11.947,11.947,0,0,0,.7,3.659,12.945,12.945,0,0,0,1.735,3.368,13.527,13.527,0,0,0,5.641,4.674,11.635,11.635,0,0,0,1.658.552l.546.136c.216.038.433.083.644.108l1.267.178.315.045.157.022c.052.007-.008.089-.006.129l-.153.6-.3,1.195-.136.6-.1.506c-.046.266-.112.527-.137.788a16.823,16.823,0,0,0,.011,5.457,10.222,10.222,0,0,0,2.425,5.158c.165.176.318.362.49.531l.553.474a10.115,10.115,0,0,0,1.193.861c.419.27.915.485,1.371.732.765.322,1.7.67,2.523,1.028l-.437,1.381-.338,1.292a11.081,11.081,0,0,0-.142,1.548,10.532,10.532,0,0,0,.431,3.082,9.931,9.931,0,0,0,3.411,5.092,9.753,9.753,0,0,0,5.819,1.923,10.305,10.305,0,0,0,3.095-.444,11.345,11.345,0,0,0,1.437-.572l1.348-.816,1.434-.952c.355.522.693,1.053,1.063,1.574l.549.784.141.191.118.137.144.166a11.562,11.562,0,0,0,1.253,1.231,12.055,12.055,0,0,0,2.976,1.847,11.205,11.205,0,0,0,6.757.74,11.884,11.884,0,0,0,5.961-3.115,9.12,9.12,0,0,0,1.894-2.588,5.4,5.4,0,0,0,.508-2.776,7.834,7.834,0,0,0-3.04-5.175,8.933,8.933,0,0,0-2.757-1.544,13.884,13.884,0,0,0-3.279-.7,24.946,24.946,0,0,0-7.016.446q-1.778.336-3.557.795l-.891.232-1.365.373-3.591,1c-.12-1.551-.281-3.162-.46-4.512a17.548,17.548,0,0,0-.5-1.955,13.082,13.082,0,0,0-1.757-3.506,10.687,10.687,0,0,0-2.684-2.642,10.434,10.434,0,0,0-1.626-.9l-.38-.151a4.435,4.435,0,0,0-.487-.179l-1.071-.309-2.088-.6,1.174-2.3c.166-.381.357-.761.5-1.139l.1-.326c.025-.081.054-.162.072-.245a9.046,9.046,0,0,0,.311-2.021,8.765,8.765,0,0,0-.74-3.925,8.889,8.889,0,0,0-2.393-3.137,9.162,9.162,0,0,0-1.639-1.1l-.453-.22-.973-.355-2.115-.593c.246-.866.539-1.758.8-2.622l.192-.628.051-.317.109-.634a5.955,5.955,0,0,0,.093-1.259,5.216,5.216,0,0,0-.081-1.243,10.122,10.122,0,0,0-1.935-4.581,21.657,21.657,0,0,0-8.054-6.282,50.271,50.271,0,0,0-4.693-1.935c-1.585-.6-3.153-1.2-4.66-1.89a21.139,21.139,0,0,1-7.757-5.5,23.753,23.753,0,0,0,9.015,4.5c1.778.539,3.656,1,5.568,1.527a32.946,32.946,0,0,1,5.771,2.105c3.715,1.77,7.209,4.49,9.068,8.153a11.6,11.6,0,0,1,1.312,5.59v.665q-.043.319-.085.633-.092.624-.179,1.215c-.011.067-.011.07-.01.063h0l-.006,0a.027.027,0,0,0-.007.013,1.852,1.852,0,0,0,.374.2,12.276,12.276,0,0,1,6.225,14.88l-.047.142c-.015.048,0,0-.013.03l-.03.063-.065.129c-.046.088-.1.177-.157.269a1.446,1.446,0,0,0,.276.118l.155.073.343.148c.386.183.759.394,1.135.592.364.219.714.462,1.068.693a13.875,13.875,0,0,1,3.44,3.591,16.391,16.391,0,0,1,2.035,4.353c.1.382.214.76.306,1.141l.224,1.118a10.243,10.243,0,0,1,.092,1.069c.283-.033.63-.145.962-.217l1.971-.482c1.392-.326,2.793-.614,4.2-.831a25.01,25.01,0,0,1,8.539.01,14.514,14.514,0,0,1,4.055,1.447,12.241,12.241,0,0,1,3.305,2.709,10.63,10.63,0,0,1,2.11,3.694,8.331,8.331,0,0,1,.219,4.268,9.421,9.421,0,0,1-1.824,3.751,13.707,13.707,0,0,1-2.924,2.781,14.543,14.543,0,0,1-7.369,2.634,13.957,13.957,0,0,1-7.484-1.6,14.4,14.4,0,0,1-3.1-2.179A13.417,13.417,0,0,1,281.7,260a8.452,8.452,0,0,1-.617-.831,6.886,6.886,0,0,1-1.024.608,12.491,12.491,0,0,1-5.845,1.209,12.139,12.139,0,0,1-7.288-2.65,12.393,12.393,0,0,1-4.055-6.4,12.83,12.83,0,0,1-.434-3.73,13.658,13.658,0,0,1,.2-1.833l.111-.491.12-.38a3.509,3.509,0,0,0-.462-.2l-.245-.1-.5-.271c-.333-.189-.674-.343-1-.561l-.965-.674a12.261,12.261,0,0,1-3.072-3.519,12.792,12.792,0,0,1-1.486-4.3,16.789,16.789,0,0,1-.155-4.375c.037-.72.168-1.417.265-2.118l.191-.921c.028-.144.067-.29.107-.434l.059-.216.03-.109c0-.016.015-.039.009-.051l-.054-.008-.439-.065a1.163,1.163,0,0,1-.217-.045l-.3-.079a7.3,7.3,0,0,1-1.026-.318,14.554,14.554,0,0,1-3.693-2.008,16.21,16.21,0,0,1-2.9-2.887,14.62,14.62,0,0,1-2.055-3.548,13.219,13.219,0,0,1-1.025-4.421,6.711,6.711,0,0,1-.014-1.178l.024-.467a1.9,1.9,0,0,1,.045-.339,4.076,4.076,0,0,0,.1-.685l-.684-.071-.842-.145-1.121-.265-1.084-.339-1.041-.408a16.833,16.833,0,0,1-6.213-4.663A15.471,15.471,0,0,1,230.749,201.753Z"></path><path class="cls-1" d="M261.546,191.338c5.361,2.486,11.272,5.576,13,11.226a6.278,6.278,0,0,0,1.073,2.523c1.46,1.591,4.059.617,6.212.779,7.3.55,8,13.719,15.293,14.39,1.406.129,2.84-.283,4.223,0,3.669.741,4.653,6.057,2.527,9.136s-5.985,4.37-9.6,5.347c-3.526.954-7.805,1.614-10.395-.963-3.63-3.613-1.825-11.662-6.736-13.116-1.36-.4-2.815-.062-4.234-.065a8.916,8.916,0,0,1-8.331-6.357,16.523,16.523,0,0,0-.826-2.958c-.942-1.919-3.118-2.815-5.028-3.775a29.247,29.247,0,0,1-12.708-12.519"></path><path d="M246.064,194.961a26.024,26.024,0,0,1,2.6,3.163,31.89,31.89,0,0,0,5.966,5.708,28.515,28.515,0,0,0,4.069,2.47,24.521,24.521,0,0,1,4.487,2.438,6.238,6.238,0,0,1,1.776,2.184,12.6,12.6,0,0,1,.726,2.275,6.674,6.674,0,0,0,1.326,2.711,7.716,7.716,0,0,0,3.689,2.45,6.466,6.466,0,0,0,2.136.272c.714-.018,1.632-.209,2.806-.252a7.367,7.367,0,0,1,1.958.184,6.715,6.715,0,0,1,1.97.861,7.264,7.264,0,0,1,2.611,3.11,38.928,38.928,0,0,1,1.824,5.922,6.79,6.79,0,0,0,1.941,3.664,5.281,5.281,0,0,0,3.679.719,24.524,24.524,0,0,0,5.01-1.123,19.725,19.725,0,0,0,4.529-1.907,8.707,8.707,0,0,0,1.436-1.1,7.576,7.576,0,0,0,.56-.612,4.453,4.453,0,0,0,.4-.595,4.08,4.08,0,0,0,.355-2.661,3.193,3.193,0,0,0-.427-1.114,1.186,1.186,0,0,0-.523-.463c-.032-.04-.1-.026-.141-.048a.472.472,0,0,0-.179-.048,4.192,4.192,0,0,0-.682-.02c-.6.013-1.468.14-2.6.1a9.116,9.116,0,0,1-3.417-.839,9.907,9.907,0,0,1-2.681-1.887,19.856,19.856,0,0,1-3.216-4.326c-.819-1.4-1.508-2.738-2.217-3.92a13.106,13.106,0,0,0-2.166-2.892,3.632,3.632,0,0,0-2.308-1.044c-.51-.03-1.162.006-1.925.036a10.244,10.244,0,0,1-2.773-.195,5.006,5.006,0,0,1-2.968-1.939,5.747,5.747,0,0,1-.762-1.53c-.145-.44-.231-.822-.305-1.142a10.367,10.367,0,0,0-1.2-3.062,17.361,17.361,0,0,0-4.668-4.836,64.009,64.009,0,0,0-5.57-3.564,28.879,28.879,0,0,1,6.8,1.649,16.8,16.8,0,0,1,7.068,4.881c.234.312.479.619.7.944l.61,1.011c.341.674.7,1.506.889,2.006a2.389,2.389,0,0,0,.264.518.3.3,0,0,0,.111.033.23.23,0,0,0,.157-.046,4.6,4.6,0,0,1,.7-.057l1.309-.129a9.7,9.7,0,0,1,3.09.125,8.915,8.915,0,0,1,2.691,1.111,10.583,10.583,0,0,1,2.03,1.7,18.467,18.467,0,0,1,2.532,3.674,73.394,73.394,0,0,0,3.507,6.456,7.184,7.184,0,0,0,2.061,2.079,4.023,4.023,0,0,0,1.2.5,5.106,5.106,0,0,0,1.413.128,10.024,10.024,0,0,1,4.127.376,5.862,5.862,0,0,1,3.169,3.182,8.287,8.287,0,0,1-.732,7.813,13.022,13.022,0,0,1-5.805,4.3,40.805,40.805,0,0,1-6.369,1.936,13.751,13.751,0,0,1-6.771.05,6.888,6.888,0,0,1-3.1-1.889,8.931,8.931,0,0,1-1.814-2.945,57.492,57.492,0,0,1-1.62-5.749,10.388,10.388,0,0,0-.922-2.28,2.973,2.973,0,0,0-1.385-1.24,3.792,3.792,0,0,0-1.988-.233,19.625,19.625,0,0,1-2.9.129,10.461,10.461,0,0,1-9.143-7.187c-.311-.985-.4-1.815-.591-2.417a3.128,3.128,0,0,0-.807-1.4,14.948,14.948,0,0,0-3.573-2.259,25.736,25.736,0,0,1-8.285-7.145A26.275,26.275,0,0,1,246.064,194.961Z"></path><path class="cls-1" d="M208.084,144.545c3.335-5.8,12.683-7.509,18.1-3.311a5.443,5.443,0,0,0,1.964,1.2c1.437.342,2.78-.7,4.178-1.16a6.113,6.113,0,0,1,7.325,3.73c.933,2.772-.422,5.951-2.862,7.744a12.084,12.084,0,0,1-8.82,1.863,21.336,21.336,0,0,0-3.9-.5c-5.095.195-7.889,5.985-12.724,7.5-3.211,1.006-6.693-.05-10.077-.136s-7.488,1.64-7.508,4.815"></path><path d="M193.727,166.3a1.539,1.539,0,0,1-.084-.892,3.5,3.5,0,0,1,.773-1.773,8.137,8.137,0,0,1,5.063-2.649,28.126,28.126,0,0,1,6.462.152,11.816,11.816,0,0,0,4.8-.384c1.935-.685,3.572-2.209,5.342-3.9a27.281,27.281,0,0,1,2.964-2.529,9.837,9.837,0,0,1,4.041-1.754,12.27,12.27,0,0,1,4.283.182,13.535,13.535,0,0,0,3.323.185,8.83,8.83,0,0,0,5.493-2.206,5.542,5.542,0,0,0,1.753-4.074,4.33,4.33,0,0,0-.185-.991,3.414,3.414,0,0,0-.436-.845,4.434,4.434,0,0,0-1.575-1.352,4.107,4.107,0,0,0-1.955-.481,3.257,3.257,0,0,0-.917.142c-.327.1-.732.283-1.209.491a10.11,10.11,0,0,1-1.719.6,4.711,4.711,0,0,1-2.383-.039,5.407,5.407,0,0,1-1.858-1.028c-.446-.374-.722-.6-1.046-.825a11.7,11.7,0,0,0-8.992-1.717,11.424,11.424,0,0,0-7.092,4.215,8.179,8.179,0,0,1,2.122-3.917,12.1,12.1,0,0,1,4.6-2.987,13.522,13.522,0,0,1,5.289-.837,10.268,10.268,0,0,1,3.928.957,13.242,13.242,0,0,1,2.478,1.629,11.86,11.86,0,0,0,1.48,1.227,1.852,1.852,0,0,0,1.408-.113,18.937,18.937,0,0,1,2.466-.828,7.1,7.1,0,0,1,5.379,1.147,6.777,6.777,0,0,1,2.953,4.275,7.5,7.5,0,0,1-.758,4.853,8.958,8.958,0,0,1-3.13,3.442,13.212,13.212,0,0,1-8.357,1.806c-1.4-.137-2.66-.476-3.8-.5a6.527,6.527,0,0,0-3.176.79c-1.978,1.055-3.591,2.816-5.426,4.332A15.03,15.03,0,0,1,213,162.13a9.8,9.8,0,0,1-3.527.975,29.264,29.264,0,0,1-6.422-.485,21.689,21.689,0,0,0-3.058-.232,9.981,9.981,0,0,0-3.233.622,5.194,5.194,0,0,0-2.338,1.632A3.765,3.765,0,0,0,193.727,166.3Z"></path><path class="cls-3" d="M279.82,203.877c-5.558.727-9.56,7.206-7.722,12.5l-12.024-6.628a6.109,6.109,0,0,1-1.535-1.065,4.568,4.568,0,0,1-1.025-3.3c.147-5.067,5.182-9.226,10.249-9.073s9.593,4.048,11.22,8.849"></path><path d="M278.954,205.169c-.2-.071-.523-.7-1.052-1.555a16.394,16.394,0,0,0-2.316-2.925,12.728,12.728,0,0,0-3.455-2.421,8.63,8.63,0,0,0-3.255-.849,9.229,9.229,0,0,0-4.346.831A9.854,9.854,0,0,0,261,201.015a7.2,7.2,0,0,0-1.625,3.89,4.273,4.273,0,0,0,.165,1.829,1.674,1.674,0,0,0,.3.547,1.9,1.9,0,0,0,.5.39l3.319,1.781,3.378,1.859,1.652.932.815.466.174.1,0,.006.008.016a.681.681,0,0,0,.075.093c.027.025.126.135.116.095a.83.83,0,0,0,.067-.143.3.3,0,0,1,.026-.059,1.536,1.536,0,0,0,.033-.219l.045-.326c.06-.434.195-.846.293-1.259a11.369,11.369,0,0,1,2.306-4.2,9.688,9.688,0,0,1,7.1-3.5,14.645,14.645,0,0,0-2.574,2.022,12.235,12.235,0,0,0-1.941,2.7,18.874,18.874,0,0,0-1.555,4.614l-.085.35-.022.088-.035.221c-.024.159-.016.3-.025.446.062.645.179,1.308.255,1.922.222,1.285.605,2.831.789,3.743a26.334,26.334,0,0,1-2.4-1.4l-2.4-1.475-1.12-.685-.518-.318-.332-.213-1.319-.839q-2.625-1.652-5.149-3.116c-.853-.511-1.641-.913-2.538-1.49a4.3,4.3,0,0,1-1.206-1.188,4.723,4.723,0,0,1-.649-1.512,8.827,8.827,0,0,1,.786-5.729,11.512,11.512,0,0,1,8.222-6.095,11.455,11.455,0,0,1,11.955,6.394A12.008,12.008,0,0,1,278.954,205.169Z"></path><g class="cls-2"><path d="M131.549,172.6c-.15.046-.368.017-.422.109.021-.032-.012-.014.035.183.02.041,0,.116-.033.2a2.626,2.626,0,0,0-.15.73.907.907,0,0,0,.046.325,2.16,2.16,0,0,1,.184.45,7.314,7.314,0,0,0,2.731,3.675c.2.12.414.22.616.328a2.766,2.766,0,0,1,.354.188,4.35,4.35,0,0,0,.6.342,13.993,13.993,0,0,1,2.576,1.465,10.86,10.86,0,0,1,.845.808,3.049,3.049,0,0,1,.816,2.172,3.93,3.93,0,0,1-.193,1.147,5.082,5.082,0,0,1-1.283,2.064,8.394,8.394,0,0,1-1.255,1.028,2.19,2.19,0,0,1-.38.232l-.2.1-.051.027-.025.013-.013.006-.006,0c.8.673-1.1-.914-.9-.75l.019.016a1.182,1.182,0,0,0,.159.1c.247.136.372.088.163.1a1.212,1.212,0,0,0-.338.093.958.958,0,0,0-.133.076.275.275,0,0,0-.042.032.236.236,0,0,0,.039-.036,1.117,1.117,0,0,0,.264-.537,1.09,1.09,0,0,0,.24.6l5.245,3.153a4.1,4.1,0,0,0-.233,1.961,4.439,4.439,0,0,0,.723,1.975,6.032,6.032,0,0,0,4.683,2.2A4.282,4.282,0,0,1,145,199.933a5.986,5.986,0,0,1-3.017,1.663,6.516,6.516,0,0,1-3.412-.138,4.317,4.317,0,0,1-2.169-1.438,11.1,11.1,0,0,1-1.931-6.026,10.511,10.511,0,0,1,1.166-5.169l3,2.061a4.45,4.45,0,0,1-2.516.979,4.748,4.748,0,0,1-2.4-.472,4.081,4.081,0,0,1-1.79-1.728,4.35,4.35,0,0,1-.486-2.266,4.481,4.481,0,0,1,.664-2.144l.167-.242.125-.167a1.194,1.194,0,0,1,.141-.158,3.6,3.6,0,0,1,.308-.258c.393-.322.838-.55.924-1.01a.66.66,0,0,0-.4-.585c-.233-.115-.471-.192-.681-.286a6.234,6.234,0,0,1-.574-.3l-.245-.158-.118-.088-.259-.224a9.722,9.722,0,0,1-2.86-4.554,5.417,5.417,0,0,1-.242-1.794c.011-.164.022-.331.033-.5l.056-.656a2.814,2.814,0,0,1,.53-1.237,2.706,2.706,0,0,1,1.7-1.108.758.758,0,0,1,.737.273A.685.685,0,0,1,131.549,172.6Z"></path></g><path class="cls-1" d="M190.719,168.929c.8-4.412,6.275-6.712,11.047-6.681s9.44,1.593,14.211,1.462c5.911-.162,11.762-2.911,17.533-1.7,6.427,1.348,11.045,7.31,17.572,8.136,5.1.644,10.189-2.036,15.275-1.327,4.184.583,7.63,3.353,11.634,4.632,5.792,1.85,12.419.484,18.032,2.767,5.679,2.308,9.249,8.726,7.5,14.294s-8.993,9.157-14.713,6.939c-2.841-1.1-5-3.31-7.562-4.905-8.821-5.5-21.324-3.218-30.067-8.823-2.473-1.586-4.568-3.766-7.362-4.783-7.864-2.861-16.937,4.677-24.731,1.653-2.107-.818-4.09-2.4-6.348-2.1a10.23,10.23,0,0,0-3.486,1.551,17.574,17.574,0,0,1-13.83,1.246"></path><path d="M195.432,181.262a24.3,24.3,0,0,0,6.872.444,17.32,17.32,0,0,0,6.164-1.836,21.658,21.658,0,0,1,3.489-1.789,5.006,5.006,0,0,1,2.229-.138,8.636,8.636,0,0,1,2.094.649,24.578,24.578,0,0,0,3.764,1.606,11.008,11.008,0,0,0,3.964.391,39.579,39.579,0,0,0,7.969-1.718,31.538,31.538,0,0,1,7.61-1.452,12.662,12.662,0,0,1,6.392,1.433,34.7,34.7,0,0,1,3.979,2.646c.624.448,1.242.882,1.874,1.262.662.334,1.28.741,1.976,1.026a34.876,34.876,0,0,0,8.914,2.422c3.152.5,6.419.854,9.741,1.493a29.692,29.692,0,0,1,9.817,3.554c1.525.952,2.84,2.024,4.135,2.917a12.172,12.172,0,0,0,3.884,1.936,10.137,10.137,0,0,0,8-1.674,9.187,9.187,0,0,0,2.8-2.979,7.748,7.748,0,0,0,.991-3.769,10.281,10.281,0,0,0-3.177-7.246,11.67,11.67,0,0,0-6.306-3.185,60.8,60.8,0,0,0-7.962-.727A27.38,27.38,0,0,1,276,174.853c-2.754-1.11-5.059-2.548-7.335-3.391a11.983,11.983,0,0,0-3.356-.767,16.744,16.744,0,0,0-3.568.2,80.643,80.643,0,0,1-7.995,1.222,15.588,15.588,0,0,1-4.409-.391,18.783,18.783,0,0,1-4-1.533c-2.463-1.258-4.541-2.8-6.6-4.046a17.386,17.386,0,0,0-6.2-2.616,20.235,20.235,0,0,0-6.657.193c-2.279.358-4.584.88-6.963,1.153a25.61,25.61,0,0,1-7.083-.117c-2.255-.319-4.374-.791-6.423-1.109a21.3,21.3,0,0,0-5.909-.281,12.752,12.752,0,0,0-5.212,1.738,6.422,6.422,0,0,0-3.01,3.921,5.882,5.882,0,0,1,.639-2.306,7.345,7.345,0,0,1,1.744-2.142,12.981,12.981,0,0,1,5.651-2.716c4.466-1,9.264.119,13.566.29a24.007,24.007,0,0,0,6.176-.472c2.006-.4,3.967-.918,5.892-1.315a26.734,26.734,0,0,1,5.546-.66,14.8,14.8,0,0,1,4.522.668,25.958,25.958,0,0,1,6.385,3.286c1.884,1.25,3.629,2.507,5.424,3.467a13.01,13.01,0,0,0,5.542,1.7,26.8,26.8,0,0,0,6.04-.6,30.5,30.5,0,0,1,6.5-.667,15.933,15.933,0,0,1,6.359,1.693c1.918.9,3.664,1.92,5.447,2.69a19.368,19.368,0,0,0,5.534,1.464c3.832.5,7.829.332,11.736,1.305a14.862,14.862,0,0,1,5.435,2.555,14.523,14.523,0,0,1,3.827,4.52,12.66,12.66,0,0,1,1.486,5.665,10.4,10.4,0,0,1-1.553,5.6,12.961,12.961,0,0,1-9.353,5.773,11.063,11.063,0,0,1-5.5-.681,20.716,20.716,0,0,1-4.547-2.744,27.19,27.19,0,0,0-4.076-2.7,22.209,22.209,0,0,0-2.159-1c-.751-.263-1.491-.546-2.256-.759-6.123-1.762-12.55-1.83-18.614-3.636-.762-.193-1.5-.51-2.242-.76-.732-.3-1.452-.628-2.163-.965-.684-.4-1.392-.756-2.044-1.192s-1.264-.89-1.857-1.338a29.687,29.687,0,0,0-3.474-2.405,8.157,8.157,0,0,0-1.792-.761l-.927-.263c-.316-.061-.64-.089-.959-.138l-.479-.068-.49-.006c-.328,0-.652-.018-.98-.012-.662.066-1.316.075-1.98.2a38.222,38.222,0,0,0-3.959.837,58.689,58.689,0,0,1-8.071,1.771,14.749,14.749,0,0,1-4.364-.155,5.569,5.569,0,0,1-1.16-.3c-.382-.132-.782-.238-1.157-.4-.752-.326-1.441-.714-2.117-1.071a6.088,6.088,0,0,0-3.983-1.033c-1.316.255-2.645,1.273-4.123,1.837a17.683,17.683,0,0,1-8.148,1.249A16.74,16.74,0,0,1,195.432,181.262Z"></path><g class="cls-2"><path d="M146.551,161.866c.261.613-1.027,2.269-1.412,4.5a8.071,8.071,0,0,0,.037,3.284,5.7,5.7,0,0,0,.485,1.341,7.4,7.4,0,0,0,.673,1.049,7.31,7.31,0,0,1,1.289,2.49,5.66,5.66,0,0,1,.2,1.782,7.337,7.337,0,0,1-.327,1.775c-.3.988-.632,1.725-.749,2.219a4.785,4.785,0,0,0-.11,1.319,8.775,8.775,0,0,0,2.778,5.364A17.79,17.79,0,0,0,151,188.4a13.92,13.92,0,0,0,1.666,1.147,8.184,8.184,0,0,0,.765.4c.074.029.091.048.211.089l.613.175a2.213,2.213,0,0,0,.705.071c.258,0,.485.023.767.01,2.148-.042,4.552-.1,6.131-.083q-.857,1.547-1.7,3.077l-.835,1.519a10.714,10.714,0,0,0-.675,1.34l-.25.6-.009.119a1.463,1.463,0,0,0-.011.237,3.114,3.114,0,0,0,.056.527,4.479,4.479,0,0,0,.408,1.159,5.911,5.911,0,0,0,.325.557q.215.3.466.594a33.509,33.509,0,0,0,5.3,4.244,11.126,11.126,0,0,1-7.08,1.4,8.408,8.408,0,0,1-3.639-1.467,5.6,5.6,0,0,1-2.017-2.5,11.124,11.124,0,0,1-.623-4.153c.184-.281.388-.559.7-.958l.121-.146c.013-.033-.025-.034-.038-.052l-.136-.094-.381-.253-.235-.16a2.964,2.964,0,0,0-.417-.248,14.6,14.6,0,0,1-1.266-.767,22.639,22.639,0,0,1-3.992-3.539,19.855,19.855,0,0,1-2.884-4.087,12.294,12.294,0,0,1-1.434-4.748,9.216,9.216,0,0,1,.142-2.524,10.615,10.615,0,0,1,.74-2.3,10.453,10.453,0,0,0,.595-1.531,1.761,1.761,0,0,0-.009-.878,8.082,8.082,0,0,0-.467-1.147,13.449,13.449,0,0,1-.746-1.85,9.226,9.226,0,0,1-.312-4.132,8,8,0,0,1,5-6.174Z"></path></g><path class="cls-3" d="M256.8,172.319a12.445,12.445,0,0,0-4.907,11.03c-.025.585-.961.57-1.543.358l-14.994-5.447a2.706,2.706,0,0,1-1.264-.742,2.355,2.355,0,0,1-.367-1.321c-.178-2.545-.171-5.359,1.593-7.3a7.8,7.8,0,0,1,6.225-2.112,23.35,23.35,0,0,1,6.584,1.726l5.509,2.039c1.414.524,3.074,1.363,3.079,2.79"></path><path d="M256.687,173.34a3.692,3.692,0,0,0-1.054-1.282,12.634,12.634,0,0,0-3.369-1.363c-2.749-.872-5.869-2.014-7.588-2.318a13.368,13.368,0,0,0-4.516-.189,5.87,5.87,0,0,0-3.574,1.765,5.782,5.782,0,0,0-1.109,3.762,21.968,21.968,0,0,0,.12,2.364c.023.249.027.2.034.219a.071.071,0,0,0,.025.024c.041.02,0-.008.106.027,2.652.9,5.467,1.9,8.092,2.885l3.907,1.5,1.9.757c.221.087.139.063.173.083l.043.036a.479.479,0,0,0,.116.078.2.2,0,0,0,.153.019c.038-.025.033-.063.052-.105l.055-.153c0-.01.006-.008.006-.008l.016-.118.032-.266c.017-.178.053-.352.086-.525a12.949,12.949,0,0,1,1.337-3.8,12.432,12.432,0,0,1,4.733-4.872,21.059,21.059,0,0,0-2.33,6.136,17.391,17.391,0,0,0-.289,2.893c-.009.21-.012.411,0,.6l-.007.489.015.644c0,.412.018.815,0,1.151-.109.231-.214.438-.312.619a1.512,1.512,0,0,1-.343.507,2.22,2.22,0,0,1-.58.4,2.847,2.847,0,0,1-1.339.266,4.39,4.39,0,0,1-1.436-.3l-.731-.309c-.234-.1-.515-.219-.6-.264q-1.552-.749-3.073-1.437-3.04-1.379-5.94-2.55l-2.863-1.134-1.405-.536a4.069,4.069,0,0,1-1.609-.909,2.83,2.83,0,0,1-.643-1.8c-.034-.493-.066-.976-.081-1.468a14.73,14.73,0,0,1,.162-2.953,7.57,7.57,0,0,1,1.044-2.834,6.482,6.482,0,0,1,2.157-2.093,9.7,9.7,0,0,1,5.334-1.26,17.374,17.374,0,0,1,4.824.985c1.464.5,2.786,1.045,4.078,1.588a34.571,34.571,0,0,1,4.3,2.145,4.98,4.98,0,0,1,1.655,1.591A1.892,1.892,0,0,1,256.687,173.34Z"></path><g class="cls-2"><path d="M196.484,135.884a1.1,1.1,0,0,0,.33-.406.819.819,0,0,0,.063-.143l0-.032c.024,0-.06-.05.053.035.133.115.373.234.415.206,0-.01-.027.044-.032.167.01.082.034.246.068.413.064.085-.059.07-.09.113l-.332.179c-.926.483-2.183,1.017-3.539,1.566a16.331,16.331,0,0,0-3.627,1.681,1.318,1.318,0,0,0-.337.421.716.716,0,0,0,0,.245c.016.084.057.151.1.154,0,0,.016,0,.007,0l-.075.019c-.055.02-.093.027-.139.048a1.224,1.224,0,0,0-.192.1c-.085.059-.078.1-.019-.031l-.523,3.441a16.561,16.561,0,0,0-7.274,3.724,18.109,18.109,0,0,0-2.688,3.186c-.426.614-.847,1.268-1.275,1.944s-.87,1.374-1.224,1.986a9.071,9.071,0,0,0-1.511,3.815,1.976,1.976,0,0,0,.1.686,9.606,9.606,0,0,1,.447,2.968,5.336,5.336,0,0,1-.786,2.677,3.073,3.073,0,0,1-.933.99l-1.118.855-.575.324-.144.081-.18.129-.1.063-.4.246-.769.558-.724.625-.674.684a13.715,13.715,0,0,0-2.142,3.151,13.532,13.532,0,0,0-1.346,6.987,6.611,6.611,0,0,1-2.936-2.375,9.468,9.468,0,0,1-1.647-4.116c-.542-3.026.467-5.971,1.517-7.066a19.962,19.962,0,0,1,2.886-2.561c.494-.378,1.037-.688,1.535-1.018l.8-.428c.108-.052.336-.195.259-.108l.138-.017c.3-.039.8-.085.9-.429a1.335,1.335,0,0,0,.1-.488v-.268l-.006-.14,0-.071-.02-.162a8.083,8.083,0,0,1-.088-1.492,8.194,8.194,0,0,1,.184-1.473,11.441,11.441,0,0,1,.89-2.535,28.886,28.886,0,0,1,2.447-3.971c.824-1.166,1.609-2.329,2.469-3.465a19.635,19.635,0,0,1,6.254-5.651,17.081,17.081,0,0,1,7.542-2.176l-.827,4.245a3.577,3.577,0,0,1-1.621-1.371,3.947,3.947,0,0,1-.589-1.741,4.422,4.422,0,0,1,.812-2.991,5.3,5.3,0,0,1,1.929-1.592,8.274,8.274,0,0,1,1.777-.637,22.586,22.586,0,0,1,4.884-.535c.858-.025,1.572-.012,2.309-.013a1.132,1.132,0,0,1,.137.006.506.506,0,0,1,.242.087.415.415,0,0,1,.177.367.485.485,0,0,1-.066.18.64.64,0,0,1-.257.208,1.152,1.152,0,0,1-.433.115A.565.565,0,0,1,196.484,135.884Z"></path></g><g class="cls-2"><path d="M197.907,121.915c-.359,1.281-8.026,1.717-10.928,2.621-2.26.73-4.861,1.165-6.728,1.852a6,6,0,0,0-2.1,1.179,2.72,2.72,0,0,0-.267.311c-.076.088-.158.221-.347.472-.1.133-.17.233-.354.456s-.388.45-.6.661a7.059,7.059,0,0,1-1.391,1.089,7.776,7.776,0,0,1-3.391.969c-.848.062-1.446.056-1.786.095a.918.918,0,0,0-.305.059.7.7,0,0,0-.151.06,1.955,1.955,0,0,0-.345.221,4.6,4.6,0,0,0-.542.559,25.427,25.427,0,0,0-2.551,4.831c-1.73,3.69-2.993,6.536-3.077,9.5a5.951,5.951,0,0,1-2.742-1.884,9.13,9.13,0,0,1-1.7-3.272c-.689-2.359-.5-4.526.065-5.416.926-1.441,1.816-2.825,2.677-4.166a19.027,19.027,0,0,1,3.233-4.01,8.51,8.51,0,0,1,2.3-1.479,7.019,7.019,0,0,1,2.616-.563c.812-.015,1.48.057,2.022.053a2.281,2.281,0,0,0,1.153-.239,2.321,2.321,0,0,0,.636-.571c.239-.278.545-.71.959-1.12a9.087,9.087,0,0,1,2.663-1.873,19.364,19.364,0,0,1,5.353-1.481,47.935,47.935,0,0,1,8.893-.588A23.853,23.853,0,0,1,197.907,121.915Z"></path></g><path d="M234.636,197.683a3.552,3.552,0,0,1-1.766,1.033,12.146,12.146,0,0,1-4.194.583,21.184,21.184,0,0,1-4.816-.736c-1.5-.4-2.823-.851-3.775-1.134-1.68-.5-3.369-1.1-5.068-1.6a43.234,43.234,0,0,1-5.508-1.672,7.714,7.714,0,0,1-2.816-2.127c-.156-.192-.341-.423-.361-.434a.262.262,0,0,0-.073-.04.185.185,0,0,0-.145.019c-1.554.378-3.282,1.093-5.177,1.593a13.845,13.845,0,0,1-3.037.474,8.89,8.89,0,0,1-3.339-.564,7.843,7.843,0,0,1-2.907-1.895,5.781,5.781,0,0,1-.591-.727,3.387,3.387,0,0,1-.26-.4l-.117-.213-.029-.054c-.017-.028.029.045.023.034h0l.008-.026c0-.015-.006-.016-.02-.024s-.014,0,0-.008l-.36.077a8.479,8.479,0,0,1-.872.167,18.146,18.146,0,0,1-3.455.208,18.974,18.974,0,0,1-6.322-1.311,16.94,16.94,0,0,1-8.256-6.744,35.484,35.484,0,0,0,6.517,2.828c2.294.682,4.4.956,5.487,1.258a14.625,14.625,0,0,0,4.251.6,14.423,14.423,0,0,0,2.1-.184c1.017-.135,2.386-.736,3.227-.764a10.03,10.03,0,0,0,.39,2.523,2.94,2.94,0,0,0,.64.908,5.145,5.145,0,0,0,2.063,1.232,8.641,8.641,0,0,0,4.945-.208c.834-.226,1.661-.5,2.5-.753.419-.128.838-.254,1.265-.367l.641-.163a4.435,4.435,0,0,1,.823-.131,2.221,2.221,0,0,1,1.6.546,4.528,4.528,0,0,1,.572.6l.377.468a5.215,5.215,0,0,0,1.65,1.243,26.987,26.987,0,0,0,4.246,1.4c1.485.442,2.873.972,4.2,1.49a64.475,64.475,0,0,0,7.371,2.636,23.713,23.713,0,0,0,4.781.77A12.1,12.1,0,0,0,234.636,197.683Z"></path><path class="cls-1" d="M153.368,170c-5.3-2.6-6.845-9.063-6.62-14.667s1.6-11.363-.17-16.718c-2.148-6.487-8.745-11.78-8.257-18.557.317-4.407,4.1-8.386,8.738-9.18a8.02,8.02,0,0,1,6.284,1.3c4.481,3.577,1.083,10.5,2.524,15.855,1.011,3.755,4.462,6.625,5.405,10.4,1.085,4.342-1.3,9.309,1.071,13.176a12.261,12.261,0,0,1,1.728,2.838c.735,2.623-2.189,5-2.236,7.712-.024,1.342.666,2.6.825,3.938s-.57,2.988-2,3.059"></path><path d="M160.66,169.128a2.474,2.474,0,0,0,1.621-2.8c-.083-.965-.678-2.055-.926-3.524a5.068,5.068,0,0,1,.229-2.316,15.686,15.686,0,0,1,.922-2.12c.67-1.335,1.315-2.737.847-3.886a7.786,7.786,0,0,0-1.15-1.769,8.174,8.174,0,0,1-1.206-2.16,12.149,12.149,0,0,1-.6-4.407c.047-1.284.089-2.438.124-3.4a12.146,12.146,0,0,0-.609-4.645,20.876,20.876,0,0,0-2.567-4.245,19.248,19.248,0,0,1-2.846-5.069,17.1,17.1,0,0,1-.6-5.955,51.9,51.9,0,0,0,.107-5.288,5.185,5.185,0,0,0-1.545-3.706,5.253,5.253,0,0,0-3.73-1.226,8.525,8.525,0,0,0-4.124,1.18,8.652,8.652,0,0,0-4.217,5.793,8.964,8.964,0,0,0,.257,3.611,17.591,17.591,0,0,0,1.595,3.665c1.349,2.438,3.106,4.836,4.539,7.542a20.63,20.63,0,0,1,1.758,4.338,20.117,20.117,0,0,1,.65,4.537c.154,5.917-1.412,11.021-1.039,15.58a16.921,16.921,0,0,0,1.552,6.335,11.626,11.626,0,0,0,1.687,2.489,10.5,10.5,0,0,0,2.234,1.811,8.509,8.509,0,0,1-2.692-1.157,10.68,10.68,0,0,1-2.558-2.414,17.149,17.149,0,0,1-2.961-7.214,24.967,24.967,0,0,1-.359-3.844c-.025-1.223.012-2.377.063-3.433.109-2.117.243-3.836.363-5.006a20.184,20.184,0,0,0-.211-6.732,22.3,22.3,0,0,0-2.654-6.107c-1.147-1.987-2.419-3.939-3.455-6.049a14.64,14.64,0,0,1-1.734-6.843,10.329,10.329,0,0,1,2.459-6.442,12.046,12.046,0,0,1,5.468-3.727,10.164,10.164,0,0,1,6.453-.053,6.92,6.92,0,0,1,2.768,1.791,7.176,7.176,0,0,1,1.6,2.834,18.242,18.242,0,0,1,.355,5.922,29.6,29.6,0,0,0-.013,5.323c.3,3.319,2.82,5.788,4.575,8.867a11.264,11.264,0,0,1,1.564,5.17,37.6,37.6,0,0,1-.211,4.926,13.031,13.031,0,0,0,.2,4.231,7.019,7.019,0,0,0,.305.912c.156.277.266.567.451.836.353.557.855,1.153,1.266,1.939a4.356,4.356,0,0,1,.432,2.81,8.533,8.533,0,0,1-1.06,2.571c-.884,1.52-1.8,2.892-1.582,4.393.083.765.32,1.552.441,2.332a3.974,3.974,0,0,1-.17,2.2,2.685,2.685,0,0,1-1.047,1.332A1.8,1.8,0,0,1,160.66,169.128Z"></path><path d="M240.059,127.41c.377-.135,2.113,1.173,4.429,1.556a12.007,12.007,0,0,0,6.363-.936,16.815,16.815,0,0,1,3.625-1.2,4.742,4.742,0,0,1,2.546.248,4.652,4.652,0,0,1,2.073,1.8l-.1-.143a12.992,12.992,0,0,0,3.508,2.847,12.725,12.725,0,0,0,4.2,1.386,23.158,23.158,0,0,0,6.732-.127c1.122-.166,2.233-.392,3.322-.655.273-.059.544-.128.812-.2l1.515-.428.2-.055c.065-.007.12.062.18.09l.351.223.695.443.324.213.186.132.367.264a41.881,41.881,0,0,1,4.915,4.4l3.785,3.934a17.86,17.86,0,0,1-5.647-1.966,20.573,20.573,0,0,1-4.115-2.579c-.432-.428-.873-.826-1.322-1.207-.1-.116-.076-.138-.144-.223-.051-.046-.124-.043-.213-.056-1.164.225-2.454.421-3.64.578a32.221,32.221,0,0,1-7.014.142,17.118,17.118,0,0,1-6.278-1.783,15.111,15.111,0,0,1-4.708-3.85l-.058-.084a1.96,1.96,0,0,0-1.876-1,11.649,11.649,0,0,0-2.7.6,17.181,17.181,0,0,1-5.881,1.031,8.258,8.258,0,0,1-4.168-1.354A9.993,9.993,0,0,1,240.059,127.41Z"></path><g class="cls-2"><path d="M192.76,196.033c.533.01,1.087,1.15.881,2.732l-.049.383-.6.35a10.073,10.073,0,0,1-3.019,1.092c-1.059.188-2.066.251-2.783.322A9.75,9.75,0,0,1,181.4,199.7a12.043,12.043,0,0,1-1.359-.874l-.635-.526.055.056h-.025l-.026,0-.048,0c-.126,0-.189,0-.237.05a.99.99,0,0,0-.1.237l-.008.054v.021c-.006.005.013,0-.013.013l-.182.073a10.606,10.606,0,0,1-1.585.507,11.436,11.436,0,0,1-3.383.289,10.689,10.689,0,0,1-6.051-2.327,9.944,9.944,0,0,1-3.168-4.55,7.8,7.8,0,0,1-.175-4.464,22.294,22.294,0,0,0,4.815,1.681c1.273.274,2.028.328,2.14.79a3.811,3.811,0,0,0,1.234,1.991,4.453,4.453,0,0,0,2.194.953,5.068,5.068,0,0,0,1.211.04,4.091,4.091,0,0,0,1.276-.289,16.023,16.023,0,0,0,3.38-2.251c.218.313.411.738.618,1.092l.684,1.113c.239.356.493.689.74,1.033a1.26,1.26,0,0,0,.2.238,2.039,2.039,0,0,0,.211.2l.27.22a8.228,8.228,0,0,0,2.355,1.214,17.713,17.713,0,0,0,4.473.714,14.961,14.961,0,0,1,1.786.218l-.792.892A6.726,6.726,0,0,0,192.76,196.033Z"></path></g><g class="cls-2"><path d="M213.359,169.424c.234.6-1.123,2.228-3.183,3.695a15.715,15.715,0,0,1-3.468,1.869,17.9,17.9,0,0,1-3.374.89,9.9,9.9,0,0,1-1.258.118,6.424,6.424,0,0,0-1.008.027,1.048,1.048,0,0,0-.664.384,1.584,1.584,0,0,0-.175.308.489.489,0,0,1-.15.22c-.133.144-.291.308-.491.488a8.375,8.375,0,0,1-2.923,1.683,11.528,11.528,0,0,1-5.969.2c-.448-.086-.871-.2-1.292-.316-.382-.1-.981-.312-.859-.248a.156.156,0,0,0-.1.084l0,.006a.179.179,0,0,0,0,.1l.012.029.006.009s0,.008.006,0l.032-.034-.023.03-.052.067-.1.133a11.613,11.613,0,0,1-13.488,3.487,10.268,10.268,0,0,1-5.511-6.057,8.613,8.613,0,0,1,.213-6.381,14.866,14.866,0,0,0,2.279,2.445,11.171,11.171,0,0,0,2.339,1.509c1.472.7,2.416.786,2.671,1.255a3.2,3.2,0,0,0,1.887,1.49,4.984,4.984,0,0,0,2.77.017,5.271,5.271,0,0,0,2.41-1.4c1-1.227,1.789-2.8,3.419-2.78a6.051,6.051,0,0,1,1.948.555c.328.145.65.3.979.427l.4.156.326.11a8.985,8.985,0,0,0,2.522.482,4.8,4.8,0,0,0,2.092-.346,3.942,3.942,0,0,0,1.109-.778l.545-.525a4.661,4.661,0,0,1,3.483-1.476,6.546,6.546,0,0,1,.954.111l.474.092a1.785,1.785,0,0,0,.26.036,6.873,6.873,0,0,0,.9.069,13.275,13.275,0,0,0,3.64-.565c.879-.283,2.253-.56,3.543-.9Z"></path></g><g class="cls-2"><path d="M254.646,191.187c-.067.638-1.982,1.307-4.323,1.217a21.465,21.465,0,0,1-6.4-1.416c-.3-.089-.644-.229-.837-.274a2.9,2.9,0,0,0-.393-.006,1.111,1.111,0,0,0-.644.244c-.1.071-.134.132-.257.214a10.594,10.594,0,0,1-1.1.387,11.169,11.169,0,0,1-2.39.391,11.669,11.669,0,0,1-4.793-.812l-.567-.246-.141-.063c-.058-.027-.092-.042-.082-.034h-.03a.369.369,0,0,0-.09.014.156.156,0,0,0-.094.053.542.542,0,0,0-.021.128.342.342,0,0,0,.006.106l0,.008c.013-.009-.027.021.028-.02l.072-.054-.006,0-.026.021-.053.043-.1.084-.423.335c-.283.224-.585.414-.88.617a13.909,13.909,0,0,1-3.856,1.725,13.179,13.179,0,0,1-8.032-.282,12.321,12.321,0,0,1-5.6-4.116,10.076,10.076,0,0,1-2.078-5.2c1.049.3,2.087.6,3.07.82a26.239,26.239,0,0,0,2.715.443c1.607.187,2.69.182,3.118.654a6,6,0,0,0,5.547,1.766,7.527,7.527,0,0,0,2.846-1.1,5.6,5.6,0,0,0,.848-.688,10.193,10.193,0,0,0,.863-.9l.8-.942.369-.471.184-.235.091-.118c.031-.025.063-.017.095-.027a18.121,18.121,0,0,0,2.785,2.568l.363.229.235.1a4.44,4.44,0,0,0,.474.187,6.111,6.111,0,0,0,.967.257,6.548,6.548,0,0,0,1.9.076,6.927,6.927,0,0,0,1.741-.433,5,5,0,0,1,3.244-.226,6.6,6.6,0,0,1,1.479.671c.472.287.618.368.9.526a30.749,30.749,0,0,0,3.018,1.451c.79.287,1.868.886,2.956,1.363S254.282,191.053,254.646,191.187Z"></path></g><g class="cls-2"><path d="M216.749,148.432c.477.405.038,1.823-1.061,3.12a20.8,20.8,0,0,1-3.607,3.081,9.479,9.479,0,0,1-2.8,1.524,10.387,10.387,0,0,1-1.651.416c-.284.054-.576.073-.869.1-.146.011-.293.033-.441.031l-.223,0a.356.356,0,0,0-.087.015.444.444,0,0,0-.27.377.755.755,0,0,0,0,.1c0,.019.014.015-.01.058-.076.094-.192.234-.293.338a12.99,12.99,0,0,1-1.318,1.259,11.867,11.867,0,0,1-5.5,2.559,11.4,11.4,0,0,1-5.731-.424,9.128,9.128,0,0,1-6.14-6.375,33.615,33.615,0,0,0,4.912-.869c1.238-.316,1.978-.54,2.266-.152a4.858,4.858,0,0,0,4.982,1.737,5.787,5.787,0,0,0,2.371-1.1,5.071,5.071,0,0,0,.474-.412c.08-.072.138-.138.221-.228l.334-.373a4.929,4.929,0,0,1,1.5-1.27,3.75,3.75,0,0,1,1.875-.307c.309.011.684.045.92.044a4.613,4.613,0,0,0,.553-.038,9.424,9.424,0,0,0,2.059-.444c1.289-.421,2.376-.963,3.475-1.416a17.78,17.78,0,0,1,2.17-.67C215.683,148.881,216.46,148.54,216.749,148.432Z"></path></g><g class="cls-2"><path d="M291.662,166.758c0,.649-1.863,1.729-4.319,2.552a19.056,19.056,0,0,1-3.934.852,22.645,22.645,0,0,1-3.514.063,10.094,10.094,0,0,1-5.07-1.566,8.928,8.928,0,0,1-2.291-2.117l-.236-.313c-.039-.048-.043-.036-.066-.055a1.007,1.007,0,0,0-.107-.064.489.489,0,0,0-.23-.054.99.99,0,0,0-.112.007l-.052.008c-.018,0-.01.013-.131-.02l-1.079-.27-2.144-.561-2.114-.574-1.037-.285c-.1-.03-.081-.017-.09-.015l-.014.011-.024.024a.144.144,0,0,0-.031.087l0,.017c-.012.007.021-.008,0,.008l-.134.09c-.2.132-.45.322-.807.529A16.431,16.431,0,0,1,259.88,167a17.545,17.545,0,0,1-8.479.277,16.317,16.317,0,0,1-6.8-3.112,12.363,12.363,0,0,1-3.827-4.913,54.156,54.156,0,0,0,6.515.223c1.88-.055,3.316-.151,4.025.268a10.266,10.266,0,0,0,9.325.705,9.135,9.135,0,0,0,1.087-.532,10.668,10.668,0,0,1,1.515-.743,4.821,4.821,0,0,1,3.427.037c1.666.576,3.128,1.032,4.644,1.473l2.3.653a4.314,4.314,0,0,1,2.586,1.749c.146.206.3.47.417.645l.231.294a6.187,6.187,0,0,0,.534.528,6.278,6.278,0,0,0,1.288.827,10.3,10.3,0,0,0,2.977.89,21.2,21.2,0,0,0,3.093.2c.986-.048,2.453.074,3.847.125S291.24,166.71,291.662,166.758Z"></path></g></g></svg>