<svg xmlns="http://www.w3.org/2000/svg" viewBox="0 0 380 600">
  <defs>
    <style>
      .cls-1 {
        fill: none;
      }

      .cls-1, .cls-2, .cls-3, .cls-4 {
        stroke-width: 0px;
      }

      .cls-2 {
        fill: blue;
      }

      .cls-3 {
        fill: #000;
      }

      .cls-5 {
        isolation: isolate;
      }

      .cls-4 {
        fill: #fffffe;
        opacity: .5;
      }

      .cls-6 {
        mix-blend-mode: multiply;
        opacity: .2;
      }
    </style>
  </defs>
  <g class="cls-5">
    <g id="Layer_52" data-name="Layer 52">
      <g id="hair-5" data-name="hair">
        <g>
          <path class="cls-2 color-hair" d="M259.49,360.92c30.17-14.96,45.83-44.87,37.61-79.59,42.7,31.18-15.22,54.28,15.86,79.57-8-1.55-17.06-4.35-23.01-10.18.11,3.24,1.37,6.42,3.52,8.84-9.69,3.69-24.9,7.61-34.94,3.43-.72-.3-.71-1.33,0-1.65l.96-.42ZM116.21,337.99c-9.03-10.99-15.3-31.98-1.97-41.99.88-.63,4.65-2.16,4.92-2.9-.57,1.58-1.28,3.62-2.34,5.88.81-1.73,8.84-4.13,10.72-5.07,3.82-1.9,7.59-3.89,11.31-5.97,32.45-18.86,67.9-45.68,78.54-83.26,21.12,31.29,48.71,63.85,86.45,74.18.43.12.76-.37.5-.73-.53-.74-1.18-1.75-1.92-2.42,4.25,1.49,9,1.37,9,1.37,0,0-.4-.28-.99-.75-11.41-9.01-9.56-13.5-22.73-36.08-5.37-26.86-17.1-35.06-23.45-39.92-19.42-20.41-57.15-19.54-65.02-19.26-7.37.26-15.29,2.39-22.59,2.01-47.47-3.66-111.14,23.19-113.12,77.24,1.92,30.68.87,25.54-14.92,49.71-9.35,21.63,17.5,40.03-13.59,55.02,8.09,1.29,18.06.1,25.02-1.32-1.73,2.26-3.61,5.17-7.89,7.68,10.73-.2,20.64-3.22,30.48-6.3-4.42,5.16-12.24,9.52-12.24,9.52,0,0,3.38,0,10.98-2.76s12.53-5.47,18.34-9.68c-.39.23-1.72,3.7-2.32,4.5-1.57,2.1-3.37,4.03-5.27,5.83,18.64-1.74,36.84-16.82,24.1-34.54Z"></path>
          <g>
            <path class="cls-1" d="M259.49,360.92c30.17-14.96,45.83-44.87,37.61-79.59,42.7,31.18-15.22,54.28,15.86,79.57-8-1.55-17.06-4.35-23.01-10.18.11,3.24,1.37,6.42,3.52,8.84-9.69,3.69-24.9,7.61-34.94,3.43-.72-.3-.71-1.33,0-1.65l.96-.42ZM116.21,337.99c-9.03-10.99-15.3-31.98-1.97-41.99.88-.63,4.65-2.16,4.92-2.9-.57,1.58-1.28,3.62-2.34,5.88.81-1.73,8.84-4.13,10.72-5.07,3.82-1.9,7.59-3.89,11.31-5.97,32.45-18.86,67.9-45.68,78.54-83.26,21.12,31.29,48.71,63.85,86.45,74.18.43.12.76-.37.5-.73-.53-.74-1.18-1.75-1.92-2.42,4.25,1.49,9,1.37,9,1.37,0,0-.4-.28-.99-.75-11.41-9.01-9.56-13.5-22.73-36.08-5.37-26.86-17.1-35.06-23.45-39.92-19.42-20.41-57.15-19.54-65.02-19.26-7.37.26-15.29,2.39-22.59,2.01-47.47-3.66-111.14,23.19-113.12,77.24,1.92,30.68.87,25.54-14.92,49.71-9.35,21.63,17.5,40.03-13.59,55.02,8.09,1.29,18.06.1,25.02-1.32-1.73,2.26-3.61,5.17-7.89,7.68,10.73-.2,20.64-3.22,30.48-6.3-4.42,5.16-12.24,9.52-12.24,9.52,0,0,3.38,0,10.98-2.76s12.53-5.47,18.34-9.68c-.39.23-1.72,3.7-2.32,4.5-1.57,2.1-3.37,4.03-5.27,5.83,18.64-1.74,36.84-16.82,24.1-34.54Z"></path>
            <path class="cls-3" d="M116.24,337.97c-.4-.6-1.55-2.08-3-4.5-1.43-2.43-3.19-5.82-4.55-10.18-.67-2.18-1.26-4.6-1.53-7.23-.29-2.63-.28-5.47.31-8.37.58-2.89,1.84-5.8,3.88-8.29,1.02-1.21,2.28-2.39,3.58-3.25.73-.39,1.52-.76,2.3-1.15.39-.2.79-.41,1.18-.64.2-.12.4-.24.6-.38.1-.09.2-.14.31-.25.05-.06.11-.1.16-.17.06-.09.12-.19.17-.29l-.96-.35c-.22.59-.44,1.19-.66,1.79-.24.65-.5,1.31-.8,1.99.04.84-.17,1.56-.4,2.28l.15-.23c.06-.07.14-.12.21-.18.57-.42,1.34-.65,2.28-.79.88-.43,1.75-.81,2.56-1.12.69-.26,1.38-.53,2.08-.79,1.39-.54,2.85-.97,4.25-1.72,2.7-1.42,5.45-2.85,8.22-4.31,5.55-2.92,10.97-6.34,16.43-9.79,10.86-7,21.51-14.78,30.83-23.4,4.73-4.23,8.99-8.8,12.98-13.3.97-1.15,1.89-2.33,2.82-3.48.91-1.17,1.89-2.26,2.7-3.47.84-1.18,1.67-2.35,2.49-3.51.4-.58.83-1.14,1.21-1.73.37-.6.73-1.19,1.1-1.78.73-1.18,1.44-2.34,2.15-3.49.37-.56.68-1.16.98-1.75.31-.59.61-1.17.91-1.75.6-1.16,1.2-2.3,1.78-3.42.54-1.14,1-2.3,1.49-3.41.48-1.12.95-2.22,1.41-3.29.42-1.09.75-2.19,1.12-3.24.19-.57.38-1.12.57-1.67l.13-.37.03-.09s.04.05.05.07l.11.17c.15.22.29.43.43.65l1.44,2.13c.66.98,1.34,1.95,2.03,2.92,1.38,1.93,2.71,3.91,4.15,5.82,2.82,3.87,5.75,7.7,8.8,11.47,6.11,7.54,12.73,14.86,20.05,21.64,7.32,6.77,15.35,12.99,24.2,18.12l3.34,1.9c1.1.65,2.29,1.15,3.44,1.73l3.47,1.69c1.17.53,2.39.98,3.58,1.47l3.6,1.45,3.71,1.18,1.86.59.93.3.47.15s.43.13.76.09c.36-.02.71-.16.99-.35.56-.39.89-1.02.86-1.74-.01-.35-.13-.71-.31-.98l-.19-.27-.56-.79c-.4-.55-.83-1.14-1.46-1.72l-1.55,2.61c.86.29,1.65.52,2.62.74,1.46.31,2.93.51,4.3.62,1.39.12,2.6.09,3.83.08l1.89-.02c.14,0,.37,0,.46-.01l.28-.05.56-.09-4.55-3.46-1.96-1.68-.98-.84-.48-.42c-.21-.2-.24-.24-.32-.32-1.25-1.24-2.38-2.56-3.39-3.98-2-2.86-3.54-6.14-5.14-9.46-1.59-3.33-3.22-6.68-4.96-9.97-.85-1.66-1.77-3.28-2.65-4.92l-1.38-2.43-.69-1.21-.06-.1s0-.04,0-.02l-.15-.69c-.43-1.83-.76-3.68-1.3-5.49l-.74-2.73-.87-2.7c-.55-1.81-1.31-3.56-1.97-5.33-.79-1.73-1.53-3.48-2.46-5.15-1.78-3.37-3.91-6.59-6.41-9.51-2.48-2.92-5.37-5.53-8.35-7.81l-1.1-.85-.51-.39c.08.08-.2-.2-.35-.34-.69-.67-1.34-1.38-2.08-2-1.42-1.28-2.92-2.49-4.48-3.59-3.11-2.21-6.44-4.07-9.88-5.64-6.88-3.12-14.15-5.12-21.45-6.4-7.31-1.28-14.66-1.87-21.97-1.93-1.83-.01-3.66,0-5.48.06-1.84.05-3.72.2-5.52.41-3.63.41-7.15,1-10.61,1.34-1.47.15-2.94.25-4.39.28-.73,0-1.44,0-2.14-.03-.71-.02-1.52-.08-2.27-.12-1.53-.1-3.07-.18-4.61-.19-1.54-.04-3.08-.06-4.62,0-6.16.11-12.29.67-18.35,1.63-12.11,1.92-23.93,5.43-34.98,10.54-11.03,5.11-21.36,11.85-29.89,20.45-4.26,4.3-8.05,9.06-11.16,14.23-3.11,5.17-5.52,10.73-7.13,16.49l-.32,1.07-.25,1.09-.49,2.18c-.37,1.45-.55,2.93-.77,4.4l-.32,2.2-.16,2.22-.16,2.21-.04.56c-.02.09-.01.31,0,.46l.02.27.07,1.07c.33,5.71.77,11.42.58,16.9-.02,1.38-.18,2.7-.33,4.02l-.37,1.92c-.14.63-.36,1.24-.53,1.86-.81,2.44-2.16,4.74-3.63,7.05-3.01,4.59-6.29,9.16-9.31,13.8l-.57.87-.29.43-.23.35c-.09.16-.12.28-.17.4-.26.69-.54,1.38-.78,2.07-.2.71-.42,1.42-.6,2.13-.14.72-.3,1.44-.42,2.16-.45,2.9-.4,5.82-.08,8.64.65,5.64,2.36,10.85,3.29,15.92.45,2.53.69,5.03.42,7.41-.23,2.38-1.11,4.59-2.43,6.54-1.33,1.95-3.12,3.63-5.08,5.1l-1.53,1.06c-1.03.7-2.22,1.25-3.31,1.88-2.23,1.25-4.45,2.37-6.65,3.51.54.15,1.7.28,2.62.41.93.12,1.85.25,2.76.37.9.12,1.86.21,2.78.32.94.09,1.97.11,2.95.17.24.01.5.03.74.03h.49s.84,0,.84,0c.56,0,1.11-.02,1.67-.03,1.11-.04,2.2-.09,3.28-.17,4.33-.32,8.49-.93,12.57-1.78l-1.56-2.49c-.53.7-1.05,1.39-1.55,2.06-.25.32-.5.63-.75.92l-.38.44-.19.21-.32.33c-.41.44-.98.96-1.56,1.44l-.96.73c-.36.25-.79.52-1.18.77-1.76,1.1-3.5,2.19-5.24,3.28.63.02.78.06,1.08.09.06.03.47,0,.76,0l.92-.03c1.21-.05,2.41-.1,3.6-.14.59-.03,1.16-.04,1.76-.09.61-.05,1.21-.1,1.82-.15.6-.05,1.2-.09,1.81-.16l1.23-.16c2.83-.38,5.57-.91,8.22-1.53,5.31-1.24,10.29-2.82,15.16-4.37l-1.44-2.19c-1.78,2.05-3.78,3.74-5.77,5.25-2,1.5-4.03,2.85-6.06,4.03l-4.45,2.6,5.08-.21c.95-.04,1.64-.16,2.42-.3.76-.14,1.49-.3,2.21-.48,1.44-.36,2.83-.77,4.19-1.22,2.7-.91,5.25-1.89,7.73-2.97,4.96-2.13,9.39-4.89,13.4-7.88l-1.19-1.8c-.13.09-.25.19-.35.31l-.12.16c-.08.11-.12.18-.16.26-.1.16-.16.3-.23.44-.13.27-.26.54-.38.8-.23.51-.46,1.01-.68,1.51-.21.46-.46.99-.64,1.27-.25.35-.59.79-.88,1.16-.24.3-.79.97-1.28,1.52-.51.56-1.03,1.12-1.58,1.67-1.13,1.11-2.23,2.19-3.34,3.28.09.04.14.08.21.12.03,0,.01.03.07.02l.17-.02.34-.04,1.34-.16c.9-.1,1.73-.23,2.58-.34.84-.11,1.74-.31,2.59-.46.43-.07.87-.18,1.3-.29l1-.26c2.39-.66,4.68-1.5,6.83-2.53,4.3-2.06,8.13-4.84,10.96-8.37,2.84-3.49,4.5-7.9,4.25-12.22-.2-4.34-2.13-8.2-4.46-11.44,1.01,1.56,1.96,3.23,2.69,5.07.7,1.84,1.18,3.84,1.27,5.91.09,2.07-.22,4.2-.94,6.22-.73,2.02-1.88,3.92-3.29,5.63-2.84,3.42-6.71,6.08-11,8-2.15.96-4.41,1.72-6.74,2.29-.66.15-1.01.24-1.43.31-.41.07-.82.15-1.21.2-.4.05-.78.11-1.17.13l-.56.04h-.14s-.07.02-.07.02c0,0,.03-.03.05-.05l.24-.22c.52-.48,1.01-.95,1.46-1.42l.66-.69.32-.36.51-.6.5-.62.24-.31c.1-.14.2-.29.27-.41.29-.5.52-.97.75-1.45l.68-1.4.34-.67.17-.29c.03-.05.05-.08.06-.09-.03-.03.12.04-.17-.15-.17-.1-.3-.25-.39-.43l-.62-.87c-4.32,3.06-8.9,5.68-13.83,7.61-2.46.98-4.98,1.88-7.5,2.63-1.26.38-2.53.71-3.79.99-.63.14-1.26.26-1.89.36-.6.09-1.3.17-1.76.18l.69,2.66c2.39-1.33,4.61-2.77,6.77-4.36,2.15-1.59,4.2-3.32,6.01-5.36l3.76-4.23-5.46,1.64c-5.49,1.65-10.84,3.22-16.08,4.3-1.31.27-2.61.51-3.9.72-.64.12-1.29.19-1.93.29-.32.05-.64.09-.96.12l-.87.1c-.11,0-.18,0-.24,0-.05,0-.14,0-.02-.06l.12-.07.04-.03s0,0,.03-.02l.12-.12c1.2-1.28,2.22-2.69,3.13-3.87l3.17-4.13-5.12,1.01c-4.88.97-9.52,1.52-13.71,1.72-1.05.05-2.07.07-3.06.08-.4,0-.78,0-1.17,0h0s-.05.02-.08.01c0,0,0,0,0-.01,0,0,0-.02.02-.03l.02-.02s.02-.02-.02,0l.42-.29c1.19-.78,2.31-1.7,3.41-2.63,2.16-1.92,4.1-4.28,5.3-7.05,1.22-2.76,1.66-5.8,1.54-8.66-.13-2.87-.67-5.61-1.28-8.25-1.24-5.26-2.71-10.29-2.88-15.34-.09-2.51.14-5,.76-7.39.18-.59.3-1.2.53-1.77l.33-.87.16-.43c.05-.14.04-.13.09-.2l2.15-3.28c2.86-4.38,5.89-8.56,8.71-13.05,1.4-2.24,2.66-4.7,3.44-7.32.8-2.62,1.11-5.33,1.17-7.95.17-5.26-.22-10.37-.52-15.46l-.12-1.91-.06-.95c-.03-.38-.03-.45,0-.82l.25-3.73c.07-1.24.32-2.47.47-3.7l.27-1.84.4-1.82.4-1.81.2-.91.26-.89,1.06-3.55,1.31-3.46c.2-.58.45-1.14.72-1.7l.77-1.67c2.12-4.42,4.66-8.64,7.67-12.48,3.01-3.84,6.36-7.38,9.96-10.63,3.63-3.21,7.51-6.1,11.53-8.73,4.03-2.62,8.26-4.89,12.55-6.97,4.3-2.06,8.73-3.79,13.19-5.36,4.48-1.52,9.02-2.78,13.57-3.85,4.58-1,9.17-1.82,13.77-2.37,4.61-.51,9.21-.86,13.8-.9,1.15-.03,2.29.02,3.44.03l1.72.03,1.71.09c1.15.06,2.26.14,3.44.18,1.18.05,2.34.01,3.51-.04,4.64-.26,9.14-1.09,13.61-1.6,4.44-.55,8.93-.53,13.39-.45,8.91.23,17.74,1.23,26.2,3.33,8.44,2.1,16.59,5.34,23.48,10.32.87.61,1.68,1.29,2.51,1.94.78.71,1.61,1.37,2.35,2.12l1.12,1.11.34.33.35.27.64.49c.84.65,1.68,1.3,2.49,1.97,3.26,2.66,6.17,5.68,8.6,9.05,2.42,3.37,4.4,7.03,6.02,10.83,1.58,3.81,2.84,7.74,3.86,11.7.26.99.46,2,.69,2.99l.33,1.5.08.37c.05.17.06.38.14.53l.44.77c1.01,1.78,2.03,3.55,3,5.35,1.95,3.58,3.79,7.19,5.54,10.84,1.79,3.62,3.39,7.35,5.68,10.8,1.14,1.71,2.43,3.34,3.89,4.77l.5.52.3.28.59.54,1.23,1.02.27.21.14.1s0,.02-.03.02h-.09l-.69-.02c-.46-.02-.92-.07-1.37-.13-.45-.06-.89-.14-1.33-.23-.71-.16-1.54-.39-2.27-.64l-4.34-1.5,3.4,3.09c.34.31.67.72.99,1.16l.49.69.25.36.03.05c-.06.08.68-.46.37-.24.02-.01.03-.02.04-.02.01,0,.01,0,0,0-.04,0-.03-.02,0,.01,0,.01,0,.02,0,.01,0-.02,0-.01,0-.04l.12-.45-.05-.02-.81-.26-1.62-.51c-2.15-.71-4.34-1.29-6.4-2.2-4.22-1.59-8.26-3.52-12.19-5.6-7.84-4.22-15.07-9.32-21.69-14.97-13.25-11.3-24.34-24.35-34.15-37.72-1.24-1.66-2.42-3.37-3.62-5.04-.6-.84-1.2-1.67-1.78-2.53l-2.06-3-1.36-1.98-.68-.99-.34-.49-.17-.25-.08-.12-.04-.06s-.02.03-.03.05c-.5,1.51-1,3.03-1.49,4.54-.37,1.12-.74,2.25-1.11,3.37-.28.97-.7,1.88-1.09,2.81-.81,1.84-1.51,3.71-2.39,5.5-.91,1.77-1.83,3.54-2.74,5.3-2.02,3.41-4.03,6.81-6.37,9.96-9.09,12.82-20.47,23.37-32.24,32.58-6.5,5.02-14.27,10.46-22.76,15.78-4.24,2.67-8.62,5.35-13.23,7.73-2.27,1.21-4.6,2.51-6.84,3.65-1.16.49-2.4.94-3.62,1.41l-1.77.71c-.47.2-.86.36-1.26.56-.64.3-1.28.64-1.71,1.01-.16.12-.27.28-.35.4.31-.68.59-1.38.78-1.9.15-.41.29-.81.43-1.18.15-.45.3-.85.41-1.19l.03-.09-.84-.2c-.08-.02-.16-.05-.23-.09h0s-.03.03-.05.05c-.03.04-.1.09-.16.14-.12.1-.27.2-.43.3-.3.19-.64.37-.96.55-.68.35-1.35.7-2.02,1.04-.34.18-.67.35-1.04.6l-.9.74c-.59.49-1.13,1.03-1.65,1.58-2.05,2.23-3.47,4.89-4.25,7.59-.8,2.71-1,5.44-.9,8.01.11,2.57.55,5,1.11,7.22,1.15,4.46,2.88,8.15,4.51,11.02,1.64,2.87,3.22,4.93,4.31,6.23Z"></path>
            <path class="cls-3" d="M259.5,360.95c.27-.06,1.02-.39,2.17-.94.57-.28,1.24-.62,2-.99.76-.38,1.61-.79,2.47-1.36.87-.54,1.82-1.12,2.82-1.74.5-.32,1.02-.62,1.54-.97.5-.37,1.01-.75,1.54-1.14,1.04-.78,2.13-1.59,3.25-2.43,1.05-.92,2.13-1.87,3.22-2.84,1.13-.93,2.13-2.04,3.17-3.11,1.03-1.09,2.12-2.13,3.03-3.34.94-1.17,1.9-2.33,2.81-3.5.83-1.23,1.65-2.44,2.45-3.63.85-1.16,1.44-2.43,2.12-3.59.63-1.19,1.35-2.29,1.81-3.44.99-2.27,2.02-4.26,2.56-6.04.28-.77.55-1.55.83-2.33.28-.78.57-1.56.75-2.38.41-1.62.83-3.26,1.25-4.9.27-1.68.54-3.37.82-5.07.17-.85.18-1.71.25-2.58.06-.86.12-1.73.18-2.6.19-1.74.08-3.49.07-5.24l-.05-2.64c-.06-.88-.17-1.76-.25-2.64l-.27-2.64-.14-1.32-.07-.46-.27-1.68c.25.2.5.42.7.61l1.68,1.54c.31.29.64.56.93.87l.85.93c2.37,2.4,4.28,5.15,5.7,8.05,1.4,2.91,2.15,6.05,2.16,9.21.03,3.17-.62,6.33-1.58,9.39-1.2,3.79-2.85,7.51-4.44,11.31-1.58,3.81-3.12,7.76-3.87,12.04-.74,4.26-.29,8.94,1.59,12.9.52.95,1.03,1.91,1.6,2.82.54.73,1.08,1.46,1.62,2.18l.18.14c.06.05-.07.02-.17.02h-.04s-.02,0-.02,0h-.01s-.08-.02-.08-.02c-.5-.13-.98-.29-1.47-.44-.97-.3-1.93-.62-2.86-.98-1.87-.7-3.67-1.51-5.35-2.44-.42-.24-.84-.46-1.24-.72l-.53-.34c-.2-.12-.39-.25-.59-.4-.2-.14-.39-.27-.59-.43l-.61-.51-1.21-1.01-.6-.5-.64-.57c-.84-.75-1.67-1.51-2.5-2.26l-.03.62-.02.31c0,.11-.02.16,0,.38.05.7.1,1.39.14,2.08.1,1.3.18,2.53.57,3.96.2.71.43,1.44.75,2.16.17.36.31.72.5,1.08l.22.4.19.32.16.26.04.06.09.12c.07.08.14.16.22.24-.1.11-.35.18-.56.28-.79.29-1.68.61-2.51.88-1.68.58-3.36,1.07-5.02,1.54-3.32.91-6.58,1.58-9.75,1.96-3.17.38-6.25.47-9.16.12-.73-.09-1.45-.17-2.14-.35-.35-.08-.7-.15-1.04-.22-.34-.08-.67-.21-1.01-.31-.33-.11-.67-.21-1-.31-.14-.04-.16-.07-.19-.2,0-.12.03-.22.14-.28.32-.15.63-.3.94-.46-.3.09-.61.19-.93.29-.24.06-.37.14-.45.37-.07.21-.01.48.2.64.25.15.62.3.93.46.33.15.67.31,1.01.47.35.12.71.25,1.08.38.73.28,1.49.47,2.28.66,3.16.75,6.71.98,10.28.8,3.57-.18,7.18-.73,10.6-1.48,1.71-.37,3.38-.81,4.97-1.26.4-.11.79-.23,1.18-.35l.58-.18c.34-.11.67-.22,1-.33,1.44-.51,2.84-1.01,4.21-1.49-.71-.86-1.41-1.71-2.09-2.54-.35-.43-.57-.81-.9-1.29-.11-.2-.22-.38-.31-.57l-.04-.07h0s0,0,0,0h0s0-.01,0-.01c0,0,.01,0,.01,0,.02.02-.02-.02-.06-.1v-.03s0-.06.07-.05h.06s.04.03.04.03l.34.2c.48.28.97.54,1.46.81,1.96,1.02,3.97,1.86,6,2.56,1.01.35,2.02.67,3.04.96l.76.22,1,.27c.86.24,1.69.42,2.51.61.83.2,1.62.36,2.39.51.77.15,1.53.3,2.3.45.76.14,1.52.29,2.27.43l1.13.21c.27.03.39-.02.58-.02-1.38-1.21-2.75-2.41-4.12-3.6-1.27-1.22-2.53-2.44-3.79-3.66-.08-.08-.15-.14-.24-.23-.11-.13-.14-.17-.17-.21l-.21-.28-.42-.55-.84-1.1c-.49-.78-.93-1.58-1.38-2.37-1.6-3.28-2.02-6.96-1.55-10.54.44-3.59,1.71-7.05,3.01-10.42,1.33-3.37,2.78-6.67,4-10.04,1.22-3.36,2.21-6.81,2.55-10.34.36-3.52,0-7.09-1.11-10.36-1.11-3.27-2.81-6.28-4.92-8.83l-.76-.99c-.27-.31-.56-.61-.83-.91-.56-.6-1.12-1.2-1.67-1.8-.56-.59-1.19-1.11-1.78-1.66l-.89-.82c-.32-.3-.78-.72-1.21-1.05-.89-.7-1.77-1.39-2.65-2.08l-1.33-1.04-.66-.52-.33-.26-.08-.07s-.06-.06-.04,0l.04.19c.39,2.06.77,4.11,1.15,6.14l.29,1.54.14.77c.03.22.04.38.07.58.08.75.16,1.49.24,2.23.08.74.16,1.48.24,2.22.09.74.17,1.47.16,2.2.03,1.47.07,2.93.1,4.37.04.72-.02,1.44-.07,2.16-.04.72-.09,1.43-.13,2.14-.04.71-.09,1.42-.13,2.12-.05.7-.19,1.4-.28,2.09-.21,1.38-.42,2.76-.62,4.12-.68,2.67-1.16,5.35-2.11,7.86-.21.63-.42,1.27-.63,1.89l-.31.94c-.11.31-.26.61-.39.91-.52,1.21-1.04,2.41-1.55,3.6-2.28,4.64-4.83,9.02-7.92,12.81-.81,1.03-1.65,2.19-2.71,3.28-1.03,1.1-2.04,2.33-3.19,3.47-1.17,1.12-2.37,2.27-3.57,3.4-1.25,1.08-2.54,2.09-3.76,3.11-1.19,1.06-2.51,1.85-3.67,2.7-1.19.81-2.25,1.65-3.3,2.22-2.06,1.24-3.63,2.19-4.4,2.65Z"></path>
          </g>
        </g>
        <g>
          <path class="cls-3" d="M113.8,287.4c-.12.56-2.15,2.89-5.14,6.03-1.5,1.57-3.23,3.35-5.09,5.22-1.88,1.87-3.81,3.83-5.94,5.74l-1.03-1.77c6.29-2.44,12.15-5.62,15.74-7.74,1.94-1.14,3.9-2.29,5.95-3.49l3.94-2.32-1.43,4.52c-.61,1.92-1.28,4.02-2.2,6.12l-2.65-2.69c6.97-3.47,14.18-7.2,21.21-11.26,1.77-1,3.48-2.08,5.22-3.11,1.74-1.04,3.47-2.07,5.14-3.19,1.68-1.09,3.36-2.17,5.03-3.25,1.62-1.13,3.24-2.26,4.83-3.37l2.66-1.86,2.59-1.95c1.71-1.31,3.47-2.56,5.14-3.9,1.66-1.35,3.32-2.69,4.97-4.03l1.24-1,1.19-1.05c.79-.7,1.58-1.39,2.37-2.08,3.22-2.7,6.1-5.66,9.07-8.44,1.43-1.44,2.78-2.93,4.16-4.36.69-.72,1.37-1.44,2.05-2.15.66-.73,1.28-1.49,1.91-2.23,1.27-1.48,2.52-2.94,3.76-4.38,1.17-1.49,2.28-2.99,3.41-4.45,2.34-2.87,4.18-5.93,6.15-8.76.24-.36.48-.71.72-1.06.23-.36.43-.73.65-1.09.42-.73.85-1.45,1.26-2.16.84-1.43,1.67-2.82,2.47-4.19,1.43-2.83,2.79-5.52,4.07-8.06-.42,2.56-1.1,5.7-2.03,9.06-.56,1.63-1.18,3.32-1.82,5.03-.64,1.71-1.29,3.44-2.14,5.04-1.62,3.24-3.17,6.45-4.93,8.97-1.7,2.56-3.12,4.78-4.39,6.06-6.95,7.95-14.35,14.72-21.64,20.85-3.6,3.13-7.35,5.88-10.92,8.68-3.69,2.64-7.24,5.3-10.86,7.67-3.55,2.48-7.17,4.67-10.64,6.9-1.77,1.06-3.52,2.1-5.25,3.13-.87.52-1.73,1.03-2.58,1.54-.87.48-1.73.96-2.59,1.44-1.72.96-3.42,1.9-5.1,2.83-1.7.88-3.39,1.76-5.05,2.62-.83.43-1.66.86-2.48,1.28-.83.4-1.66.8-2.49,1.2-1.65.79-3.28,1.57-4.88,2.35l-3.84,1.85,1.79-3.93c.86-1.88,1.53-3.8,2.22-5.78l2.28,2c-3.65,1.96-7.19,3.91-10.72,5.66-3.53,1.75-7.06,3.29-10.56,4.54-.31.11-.63.23-1.11.4l-7.91,2.87,6.42-5.45c3-2.54,6.93-5.88,10.36-8.79,3.47-2.91,6.43-5.4,7.43-6.25Z"></path>
          <path class="cls-3" d="M97.94,302.31c.41.04,2.58-1.57,4.98-3.58,1.21-1,2.48-2.08,3.62-3.09,1.16-.99,2.21-1.89,2.97-2.54,2.74-2.2,5.47-4.8,8.14-7.52,2.62-2.75,5.18-5.63,7.44-8.5,4.01-4.97,7.46-10.32,10.11-15.44,2.66-5.12,4.51-10,5.66-13.99-1.53,1.35-3.22,3.53-4.78,5.57-1.49,2.08-2.87,4.02-3.31,5.2-3.88,9.34-9.17,16.69-14.37,22.58-5.23,5.9-10.34,10.47-14.57,14.73-1.04.97-2.33,2.45-3.48,3.75-1.15,1.3-2.11,2.45-2.42,2.84Z"></path>
          <path class="cls-3" d="M297.3,262.5c.56.23,2.86,3.26,6.38,6.73,1.74,1.75,3.74,3.64,5.81,5.47.06.04.48.42.59.8.15.4.14.83.02,1.21-.13.38-.38.72-.74.95-.34.24-.86.31-1.14.27-.73-.04-1.46-.12-2.16-.24-1.42-.24-2.69-.59-3.87-.79l1.08-2.11c1.84,1.58,3.48,2.98,4.76,4.01l.03.03,4.57,3.7-5.86-1.09c-7.5-1.4-15.34-4.05-22.77-7.72-7.47-3.61-14.37-8.37-20.61-13.18-5.51-4.19-10.49-8.92-15.21-13.64-2.27-2.44-4.59-4.78-6.67-7.26-1.05-1.22-2.1-2.43-3.13-3.63-.99-1.23-1.97-2.45-2.93-3.66-7.68-9.69-13.72-19.05-18.12-26.77,1.66,1.26,3.54,2.92,5.46,4.77,1.97,1.82,3.97,3.84,5.89,5.81,1.94,1.95,3.72,3.93,5.28,5.63,1.55,1.71,2.79,3.22,3.55,4.34,5.23,7.54,10.77,14.3,16.51,20.26,2.83,3.02,5.83,5.72,8.73,8.36,3.02,2.5,5.94,4.96,9,7.06.75.54,1.5,1.08,2.24,1.61.74.54,1.53.99,2.29,1.48,1.53.95,3.04,1.89,4.53,2.82,3.11,1.61,6.03,3.36,9.1,4.6,5.97,2.84,11.97,4.53,17.6,6.05l-1.45,2.91c-1.61-1.48-3.18-2.93-4.71-4.33l-4.55-4.18,6,1.34c1.15.26,2.21.57,3.19.81.49.12.97.22,1.45.3l.72.11.18.02h.09s.02.01.02.01h.01s-.05.7-.05.7v.03c0,.09.02.1,0,.09,0-.02-.07-.06-.04-.04.01.02.1-.01.04.01,0,0-.03.02-.05.04v.02s-.46.47-.46.47h-.01s-.06-.07-.06-.07l-.23-.23c-.15-.16-.31-.31-.46-.47-.62-.65-1.26-1.34-1.9-2.06-1.28-1.44-2.55-3-3.67-4.5-2.28-2.99-3.83-5.85-4.26-6.81Z"></path>
          <path class="cls-3" d="M306.23,273.06c-.33-.05-1.43-.94-2.84-2.45-1.39-1.53-3.14-3.66-4.76-6.1-3.34-4.84-6.36-10.76-8.2-13.96-3.25-5.66-6.29-11.92-9.51-18.05-.8-1.54-1.63-3.05-2.45-4.57-.88-1.42-1.71-2.85-2.62-4.22-.49-.66-.98-1.33-1.47-1.98-.49-.66-.94-1.33-1.51-1.93-.54-.61-1.07-1.22-1.6-1.83l-.79-.91-.86-.84c-3.92-3.96-8.32-7.44-12.97-10.3-4.64-2.88-9.46-5.23-14.21-7.14-9.52-3.83-18.77-5.63-26.3-6.54,3.37-1.14,8.56-2.01,13.47-1.76,1.24-.01,2.43.14,3.59.25,1.15.14,2.28.23,3.29.46,2.03.44,3.76.83,4.88,1.34,4.54,1.9,8.75,4.08,12.7,6.35.98.59,1.93,1.21,2.88,1.8.48.3.95.59,1.42.89.47.3.91.64,1.36.95.9.63,1.8,1.26,2.68,1.89.86.66,1.69,1.35,2.53,2.01,6.69,5.3,12,11.44,15.83,17.93,1.96,3.23,3.49,6.43,5.06,9.53,1.55,3.1,2.99,6.11,4.38,9.01,2.78,5.81,5.37,11.17,7.91,16.08,1.26,2.3,2.81,5.55,4.42,8.29.37.71.8,1.34,1.17,1.96.38.61.7,1.21,1.06,1.7.67,1.01,1.18,1.77,1.44,2.16Z"></path>
          <path class="cls-3" d="M95.53,365.14c-.41.2-1.41,1-3.06,2.01-1.64,1.01-3.96,2.2-6.95,3.05-2.98.86-6.61,1.38-10.64,1.61l-.38.02h-.05s-.02,0-.02,0l.04.68h0s0,0,0,0h0c-.15-.11,1.21.6.66.37l.05-.04.2-.14.79-.58c.53-.39,1.05-.79,1.55-1.2,1.02-.81,1.96-1.64,2.8-2.47.83-.83,1.62-1.68,2.41-2.64.39-.49.78-.99,1.16-1.56.03-.06.14-.17.1-.18l-.11-.02-.22-.04-.44-.09c-2.82.68-5.65,1.4-8.73,2.24-1.49.41-3,.83-4.51,1.25-1.21.33-2.43.65-3.66.94-4.9,1.2-9.96,2.01-14.97,1.89l.63,1.92.57-.44.62-.5c.49-.41.98-.82,1.43-1.24.93-.85,1.76-1.72,2.6-2.62.86-.92,1.72-1.84,2.57-2.76l1.3-1.39.64-.68c.08-.07.06-.08.05-.1l-.02-.06-.05-.13c-3.22.59-6.71,1.27-9.76,1.62l-1.16.12c-.36.04-.83.09-1.05.1-.54.04-1.07.07-1.6.11-1.06.06-2.11.1-3.14.11-.61,0-.79,0-1.11,0-.29,0-.58-.02-.87-.03-.57-.02-1.11-.06-1.64-.11-.52-.05-1.02-.12-1.49-.19-.23-.04-.48-.08-.68-.12.23-.12.47-.23.7-.34.6-.28,1.15-.57,1.65-.86.51-.27.96-.56,1.37-.83.17-.11.35-.22.5-.34l.89-.68c.68-.49,1.29-1.11,1.92-1.69.64-.57,1.18-1.27,1.77-1.91.51-.72,1.08-1.4,1.52-2.18.96-1.51,1.59-3.24,2.05-4.98.43-1.76.54-3.57.53-5.34-.09-3.54-.81-6.92-1.54-10.19-.73-3.27-1.49-6.48-1.87-9.68-.38-3.19-.4-6.37.27-9.41.29-1.53.83-3,1.39-4.4.64-1.35,1.49-2.74,2.4-4.08,1.84-2.69,4.05-5.28,6.19-8.1,2.12-2.82,4.22-5.94,5.51-9.53,1.33-3.54,1.89-7.28,2.05-10.9.17-3.63-.02-7.18-.23-10.63-.19-3.45-.44-6.85-.29-10.08.14-3.27.6-6.52,1.35-9.69,1.5-6.35,4.19-12.38,7.67-17.85,3.49-5.48,7.76-10.4,12.42-14.78,8.19-7.66,17.72-13.84,27.85-18.52,10.1-4.8,20.81-7.87,31.65-9.55,5.42-.84,10.86-1.34,16.28-1.54,2.71-.11,5.41-.12,8.11-.08,1.35,0,2.69.08,4.03.12.37,0,.53.05,1.35.02l1.14-.13,2-.22c10.66-1.11,21.23-1.39,31.46-.65,10.22.73,20.12,2.46,29.26,5.54,2.3.73,4.5,1.64,6.71,2.51,2.14.99,4.3,1.92,6.32,3.06l1.54.81c.51.28.99.6,1.48.89.97.61,1.97,1.18,2.91,1.82.93.66,1.86,1.31,2.78,1.96.94.63,1.76,1.4,2.64,2.09.87.7,1.74,1.4,2.52,2.18.81.76,1.61,1.51,2.41,2.27.74.81,1.48,1.61,2.21,2.41.36.4.75.79,1.09,1.21l1,1.27c.66.85,1.34,1.68,1.97,2.53.59.89,1.18,1.77,1.76,2.64l.88,1.31.77,1.37c.51.91,1.02,1.81,1.52,2.71,3.85,7.31,6.13,14.97,7.6,22.29-.55-6.67-1.98-15-5.6-23.37-.98-2.05-1.87-4.21-3.1-6.22-.6-1.01-1.14-2.08-1.81-3.07-.67-.99-1.35-1.98-2.03-2.97l-.51-.75-.57-.7-1.14-1.41c-.76-.94-1.51-1.9-2.37-2.76l-2.51-2.64c-.9-.82-1.8-1.63-2.69-2.44-7.3-6.37-15.76-10.87-23.4-13.69-7.65-2.87-14.47-4.28-19.17-4.95-2.04-.33-4.1-.51-6.13-.75-2.04-.16-4.07-.37-6.1-.46-4.06-.26-8.08-.3-12.08-.26-4,.04-7.95.25-11.88.53-1.96.14-3.91.33-5.85.52l-2.9.32-1.45.18-.72.09c-.31.04-.29.04-.39.04-15.52-.55-30.75,1.07-44.9,5.18-3.54,1-6.99,2.23-10.38,3.54-3.38,1.34-6.65,2.85-9.86,4.42-6.41,3.19-12.44,6.91-17.99,11.13-5.54,4.21-10.62,8.91-15.03,14.08-4.4,5.18-8.1,10.85-10.84,16.9-2.77,6.03-4.43,12.48-4.99,18.93-.3,3.23-.21,6.47-.04,9.59.17,3.14.41,6.22.47,9.25.18,6.04-.47,12.02-3.17,17.04-2.67,5.07-6.86,9.28-10.18,14.27-.83,1.26-1.59,2.55-2.28,3.94-.3.71-.57,1.43-.85,2.15-.23.73-.44,1.46-.65,2.18-.74,2.95-.93,5.98-.75,8.91.35,5.89,2.06,11.34,3.1,16.58.51,2.62.87,5.21.71,7.68-.17,2.47-.86,4.8-2.1,6.85-1.24,2.06-3,3.81-4.96,5.31-.77.66-1.76,1.18-2.66,1.76-.93.57-1.78,1.14-2.89,1.7-1.05.56-2.1,1.12-3.15,1.68-1,.52-1.99,1.03-2.98,1.54l.32.25.16.13s0,.05.13.06l.29.04,2.27.32c1.48.2,2.9.38,4.38.54,1.46.16,3.03.27,4.63.3.8,0,1.61.03,2.41.01.58-.02,1.08-.02,1.62-.05,1.06-.04,2.12-.11,3.16-.19l1.25-.11.69-.08c.92-.12,1.86-.27,2.8-.47l.16-.03.08-.02h.04s-.03.02-.03.02l-.21.23-.42.47-.85.96c-.29.32-.6.62-.92.92l-.5.44-.96.77-3.49,2.82,4.4-.07c.42,0,.83-.01,1.25-.02,4.21-.03,8.97-.81,13.8-2.09,1.21-.31,2.43-.66,3.65-1.03,1.46-.43,1.83-.57,2.66-.83,1.51-.49,3.17-1.03,5.02-1.56l1.07-.31s.05-.02.06-.02l-.03.05-.05.09-.11.19c-.08.12-.15.25-.24.36-.34.48-.73.93-1.16,1.38-.86.89-1.87,1.74-2.95,2.59l-.41.32-.21.16-.03.02s0-.02-.03.05c-.03.06-.06.17-.07.26-.01.18.04.34.13.47.09.13.23.23.4.28.08.02.16.03.24.02h.02s.04,0,.04,0l.17-.02c.46-.05.92-.1,1.37-.15.91-.11,1.8-.22,2.67-.36,1.75-.27,3.41-.61,4.97-1.04,3.11-.85,5.73-2.07,7.68-3.32,1.95-1.25,3.28-2.46,4.08-3.2Z"></path>
          <path class="cls-3" d="M145.1,237.46c.28-.08.75-.82,1.32-1.95.29-.56.6-1.22.93-1.94.38-.7.79-1.46,1.21-2.24,1.63-3.16,3.88-6.51,5.36-8.19,5.11-6.03,11.61-12.17,18.27-16.58,5.81-3.86,11.98-6.92,17.91-9.01,5.93-2.12,11.58-3.23,16.25-4.13-1.04-.58-2.36-1.1-3.82-1.55-.73-.2-1.5-.47-2.27-.57-.77-.11-1.56-.21-2.34-.27-3.14-.39-6.07.12-7.51.64-5.73,2.45-10.73,5.16-15.26,7.94-4.45,2.91-8.44,5.82-11.98,8.85-7.03,6.07-12.33,12.49-15.4,18.96-.42.74-.76,1.69-1.08,2.69-.32,1-.65,2.04-.89,3.03-.4,2.02-.65,3.75-.72,4.31Z"></path>
          <path class="cls-3" d="M259.41,362.85c.63.38,5.33,1.69,12.02,1.81,3.33.04,7.14-.22,11.04-.99,1.95-.36,3.91-.87,5.86-1.42l1.46-.44,1.84-.62c.62-.2,1.26-.43,1.9-.66l.96-.34.48-.17.12-.04.02-.07.04-.13c-.73-.89-1.52-1.87-2.14-2.82-.16-.24-.3-.48-.41-.7l-.18-.34-.12-.26c-.15-.33-.29-.67-.41-1.01-.49-1.36-.73-2.77-.75-4.11l-2.11.93c2.85,2.85,5.93,4.71,8.34,5.98,1.28.68,2.61,1.29,3.97,1.85.36.16.63.25,1.08.43.53.2,1.06.39,1.59.56,1.07.34,2.16.71,3.24.99,2.19.62,4.31,1.08,6.59,1.61,1.17.26,2.34.52,3.53.78l.46.1c.17.04.16.01.26.02h.41s.86,0,.86,0c-.95-.88-1.91-1.75-2.87-2.63-1.09-1.01-2.18-2.03-3.27-3.04-.53-.51-1.16-1.05-1.63-1.54l-1.15-1.39-1.17-1.41-.59-.71-.3-.36-.14-.17-.05-.1c-1.24-2.1-2.03-4.28-2.35-6.59-.34-2.3-.08-4.71.48-7.12.56-2.41,1.41-4.84,2.41-7.27,1.98-4.87,4.41-9.8,6.03-15.24.82-2.7,1.34-5.58,1.48-8.5.19-2.92-.28-5.9-1.09-8.68-.86-3.15-2.51-5.92-4.24-8.52l-1.42-1.85c-.24-.3-.47-.62-.72-.91l-.78-.84-1.56-1.67-.39-.42-.72-.62-1.48-1.26-2.95-2.52-.74-.63-.81-.63-1.61-1.26-3.22-2.52-.8-.63-.4-.31-.2-.16-.1-.08s0,.06,0,.09l.33,1.98c.44,2.64.88,5.27,1.32,7.89l.33,1.96c.1.65.29,1.41.39,2.12l.31,2.66c.76,5.33.65,10.66.26,15.84-.36,2.57-.57,5.15-1.21,7.63l-.4,1.87c-.13.62-.25,1.24-.46,1.84-.37,1.21-.73,2.41-1.1,3.6-.31,1.21-.86,2.34-1.3,3.49-.23.57-.46,1.15-.68,1.72-.23.57-.44,1.15-.73,1.68-1.12,2.16-2.08,4.39-3.41,6.37-.63,1.01-1.21,2.04-1.86,3.01-.69.95-1.38,1.89-2.06,2.82-.34.47-.68.93-1.01,1.4-.35.45-.74.87-1.11,1.3-.74.86-1.48,1.72-2.21,2.56-5.99,6.66-12.87,11.54-19.33,15.26l-.47.27-.02.44c-.01.27-.02.47-.03.67.05-.2.1-.4.17-.66l.13-.51.28-.09c1.62-.54,3.41-1.18,5.33-1.92,1.89-.78,3.8-1.81,5.84-2.82.99-.54,1.95-1.19,2.95-1.8.98-.64,2.01-1.23,2.97-1.94l2.83-2.2,1.41-1.11c.47-.38.88-.81,1.32-1.21,1.73-1.64,3.48-3.23,4.9-5,.74-.86,1.46-1.71,2.16-2.53.67-.85,1.24-1.73,1.83-2.56.57-.84,1.13-1.65,1.65-2.42.5-.79.89-1.59,1.3-2.32.77-1.48,1.5-2.76,1.92-3.88,2.75-6.57,4.28-13.38,5.01-20.04.18-1.67.4-3.32.38-4.98.02-1.66.12-3.3.08-4.93-.09-1.63-.18-3.25-.27-4.86-.02-.81-.13-1.6-.24-2.39-.11-.79-.21-1.58-.32-2.37l-.16-1.18-.09-.58c-.06-.38-.17-.76-.26-1.15-.19-.83-.38-1.65-.56-2.47v-.04s.02.02.02.02l.06.04.11.08.23.17.46.34.96.7c.66.54,1.36,1.16,2.05,1.76.98,1.05,2.04,2.04,2.94,3.14.87,1.12,1.82,2.18,2.51,3.4,1.57,2.32,2.62,4.88,3.24,7.5.12.66.34,1.31.37,1.98.06.67.13,1.33.19,2,0,.67-.02,1.34-.02,2,.01.67-.12,1.33-.17,1.99-.33,2.64-.99,5.24-1.87,7.74-1.74,5.03-4.09,9.77-5.92,14.71-.9,2.48-1.65,5.01-2.07,7.63-.45,2.61-.36,5.33.18,7.92.17.64.26,1.3.5,1.92.24.61.47,1.23.7,1.84.22.62.59,1.14.87,1.72.29.52.68,1.27.79,1.38.35.49.66.98,1.06,1.39.37.43.74.83,1.15,1.17l.6.55c.1.07,0,.04-.08.02l-.22-.05-.43-.1c-.57-.14-1.13-.27-1.66-.42-.54-.15-1.06-.3-1.56-.47-.25-.08-.5-.17-.74-.26-.5-.17-1.04-.38-1.54-.58-4.11-1.62-7.87-3.75-10.77-6.56l-2.97-2.88.15,4.12c.07,1.8.46,3.55,1.11,5.18.16.41.34.8.54,1.19.16.33.25.46.35.62.2.31.42.61.68.89.02.04.1.09.08.11l-.14.06-.27.11-.57.23c-.36.13-.74.27-1.13.41-.66.22-1.35.47-2.05.69-1.41.45-2.91.91-4.45,1.29-3.08.8-6.36,1.39-9.47,1.65-6.23.58-11.71-.06-13.49-.24Z"></path>
          <path class="cls-3" d="M100.68,346.95c.28.16,1.05,1.32,1.65,3.3.58,1.97.9,4.8.25,7.71-.59,2.91-1.94,5.82-3.51,8.19-.15.23-.3.46-.45.68-.1.17-.21.33-.32.48-.21.3-.39.59-.58.83-.35.49-.64.86-.8,1.11-.04.07-.09.14-.15.21l-.18.27c-.09.07.09.01.21-.02l.35-.09c.46-.11.87-.25,1.25-.36.75-.25,1.34-.47,1.81-.7.12-.05.22-.1.34-.17l1.07-.42c.71-.32,1.43-.61,2.12-.97,1.4-.67,2.76-1.45,4.04-2.3,1.3-.84,2.51-1.78,3.63-2.8,1.12-1.02,2.14-2.11,2.99-3.28.86-1.17,1.56-2.4,2.09-3.67.51-1.27.81-2.58.93-3.87.23-2.31-.23-4.65-1.13-6.89-.22-.56-.51-1.1-.76-1.65-.31-.53-.6-1.08-.92-1.59l-.49-.74c-.17-.26-.3-.48-.54-.78-.43-.58-.86-1.16-1.29-1.73-3.35-4.81-5.79-10.09-7-15.46-.66-2.66-.91-5.37-.93-7.98.06-1.31.05-2.6.29-3.86.1-.63.17-1.25.3-1.86.16-.6.32-1.2.47-1.8l.24-.88c.1-.29.22-.57.33-.84.22-.55.44-1.1.66-1.65.48-1.06,1.1-2.04,1.63-3,.67-.89,1.29-1.76,1.95-2.56.73-.73,1.43-1.44,2.12-2.12-.32.88-.69,1.8-1.09,2.74-.35.97-.64,2.03-.99,3.04-.49,2.15-.93,4.34-.95,6.49-.2,4.27.61,8.12.79,10.22.27,3.53,1.17,7,2.48,10.23.64,1.62,1.42,3.17,2.26,4.66.45.73.83,1.49,1.34,2.19.49.73.96,1.36,1.46,2.16,1.03,1.56,1.82,3.16,2.51,4.82.63,1.68,1.1,3.4,1.32,5.15.39,3.5-.25,7.03-1.74,9.98-1.44,2.98-3.55,5.46-5.84,7.49-2.29,2.05-4.83,3.66-7.39,4.98-1.29.66-2.59,1.23-3.9,1.73l-1.04.38c-.46.18-.95.31-1.43.45-.95.27-1.92.57-2.83.74-.46.1-.93.2-1.39.3l-1.33.22c-.88.15-1.76.27-2.64.4-.86.13-1.8.24-2.7.35l-.68.08c-.13,0-.16-.06-.25-.09l-.44-.2c1.29-1.29,2.55-2.55,3.8-3.8.62-.63,1.24-1.26,1.86-1.89.53-.6,1.05-1.2,1.57-1.79.53-.59.99-1.18,1.41-1.77.27-.37.54-.72.78-1.09.24-.37.48-.73.72-1.1.22-.37.43-.75.65-1.12,1.17-2.12,2.47-5.18,2.67-8.17.02-.37.05-.74.07-1.1-.01-.36-.02-.71-.03-1.05,0-.69-.11-1.32-.18-1.9-.15-1.15-.43-2.01-.49-2.46Z"></path>
          <path class="cls-3" d="M293.95,267.14c-.3.09-2.41-.76-4.77-1.93-1.18-.57-2.43-1.21-3.56-1.83-1.13-.6-2.16-1.14-2.9-1.53-5.26-2.65-10.85-6.52-15.55-10.41-4.14-3.38-7.9-7.13-11.01-10.82-3.12-3.68-5.58-7.29-7.3-10.3,1.44.86,3.19,2.35,4.82,3.76,1.59,1.44,3.05,2.8,3.64,3.68,4.98,6.88,10.58,11.97,15.88,15.91,5.32,3.94,10.3,6.79,14.58,9.41,1.04.58,2.39,1.51,3.59,2.32,1.21.79,2.24,1.51,2.58,1.76Z"></path>
          <path class="cls-3" d="M275.06,242.52c-.3-.06-.98-1.51-1.85-3.13-.43-.82-.88-1.68-1.34-2.45-.44-.78-.87-1.47-1.22-1.93-2.4-3.33-5.1-7.1-7.9-10.22-2.42-2.74-4.93-5.34-7.3-7.66-2.37-2.32-4.6-4.34-6.37-6.04,1.23.11,2.87.58,4.29,1.26,1.44.64,2.65,1.48,3.18,2.04,4.09,4.68,7.54,8.72,10.44,12.48,2.88,3.76,5.2,7.21,6.63,10.55.34.79.71,1.91.96,2.92.24,1.01.42,1.89.47,2.18Z"></path>
          <path class="cls-3" d="M132.53,283.78c.08-.31,1.73-1.14,3.6-2.16.94-.5,1.94-1.05,2.83-1.58.9-.52,1.7-1.01,2.25-1.41,3.9-2.72,8.36-5.76,12.14-8.84,6.67-5.31,12.74-11.01,16.98-14.77-.35,1.34-1.16,3.11-2.12,4.63-.93,1.54-2.02,2.83-2.71,3.39-5.65,4.35-10.49,8.12-14.93,11.32-4.43,3.18-8.44,5.81-12.24,7.53-.9.41-2.18.88-3.32,1.22-1.15.34-2.15.59-2.48.67Z"></path>
          <path class="cls-3" d="M158.26,258.36c-.17-.46,2.17-2.69,2.78-3.81,1.11-1.94,2.55-3.94,3.68-5.87,2.01-3.34,3.98-6.58,5.68-8.71.75,1.52.58,4.04,0,4.69-2.28,2.6-3.87,4.95-5.32,7.07-1.45,2.11-2.73,3.97-4.24,5.23-.69.64-2.26,1.3-2.58,1.4Z"></path>
          <path class="cls-3" d="M59.46,349.61c.09-.19.84-.56,1.83-1.26.98-.7,2.2-1.74,3.25-3.08,1.07-1.32,1.92-2.95,2.43-4.51.52-1.56.68-3.05.68-4.09-.04-1.85-.48-3.7-1.2-5.56-.71-1.86-1.65-3.71-2.52-5.68-.88-1.96-1.64-4.12-2-6.31-.38-2.19-.43-4.42-.21-6.56.37-3.77,1.84-7.34,3.6-10.38,1.75-3.08,3.73-5.78,5.41-8.43,1.68-2.62,3.05-5.23,3.91-7.79.86-2.56,1.15-5.06.9-7.29.5.92.92,2.17,1.1,3.59.19,1.42.13,2.99-.11,4.48-.49,2.99-1.67,5.61-2.47,6.83-1.63,2.48-3.33,4.67-4.86,6.87-1.53,2.19-2.89,4.37-3.87,6.64-2.01,4.51-2.18,9.39-1.1,13.56,1.1,4.18,3.46,7.72,4.48,11.67.52,1.95.68,4.01.37,5.91-.29,1.9-.94,3.66-1.83,5.2-.4.74-1,1.55-1.68,2.33-.71.75-1.5,1.48-2.33,2.04-1.63,1.17-3.27,1.67-3.78,1.83Z"></path>
          <path class="cls-3" d="M75.67,327.51c-.23-.18-.2-1.58-.55-3.17-.31-1.59-.9-3.36-1.32-4.32-.74-1.7-1.49-3.6-1.88-5.72-.4-2.13-.29-4.36.11-6.38.69-3.56,2.46-6.73,4.44-9.17,1.99-2.45,4.15-4.25,5.98-5.51-.26,1.13-.87,2.52-1.5,3.75-.63,1.22-1.26,2.28-1.74,2.73-3.88,3.58-5.74,8.27-5.61,12.33.04,2.03.58,3.87,1.12,5.61.54,1.74,1.08,3.4,1.34,5.04.14.77.18,1.87.05,2.82-.11.95-.36,1.74-.45,1.98Z"></path>
          <path class="cls-3" d="M85.49,234.33c-.04-.41,1.3-3.52,3.34-6.86,1.99-3.37,4.7-6.91,6.24-8.85,2.69-3.46,6.03-6.83,9.72-9.85,3.71-2.99,7.79-5.62,11.87-7.68,7.14-3.63,14.74-5.95,21.74-7.37,7.02-1.43,13.47-1.94,18.61-1.98-2.24.82-5.5,1.7-8.57,2.51-3.07.79-5.93,1.55-7.48,1.75-12.44,1.74-23.06,5.84-31.11,11.39-4.03,2.77-7.49,5.78-10.45,8.85-2.97,3.06-5.49,6.14-7.71,9.12-.52.72-1.13,1.56-1.78,2.44-.61.9-1.32,1.8-1.9,2.7-1.22,1.75-2.18,3.34-2.53,3.84Z"></path>
          <path class="cls-3" d="M135.93,203.25c.02-.26,1.09-.96,2.4-1.67,1.3-.72,2.82-1.45,3.64-1.92,2.89-1.71,6.49-3.07,9.81-4.06,5.81-1.79,11.83-2.17,15.77-1.61-1.67,1.34-4.82,2.59-6.01,2.55-4.81-.17-8.98.79-12.48,1.99-3.52,1.21-6.41,2.64-9.06,3.62-1.24.5-3.59,1.01-4.07,1.1Z"></path>
          <path class="cls-3" d="M104.19,217.43c.02.33-1.34,1.64-2.81,3.26-.75.8-1.53,1.65-2.2,2.48-.69.81-1.29,1.56-1.67,2.14-2.77,4-5.79,8.61-7.99,13.08-1.95,3.89-3.63,7.84-4.99,11.53-1.37,3.69-2.42,7.1-3.3,9.87-.37-1.36-.58-3.35-.47-5.2.05-1.86.42-3.57.76-4.41,2.99-6.72,5.85-12.36,8.74-17.19,2.9-4.81,5.8-8.82,8.91-11.8.74-.7,1.82-1.6,2.82-2.3,1.02-.7,1.91-1.27,2.2-1.45Z"></path>
        </g>
        <path class="cls-4" d="M98.65,327.75c3.88,10.05,15.86,23.88,9.69,33.7,0,0,6.83-5.59,4.32-15.64s-8.65-11.81-10.25-21.18.35-19.27.35-19.27c0,0-8,12.33-4.11,22.39Z"></path>
        <path class="cls-4" d="M66.21,364.92s15.25-3.96,18.61-14.33-2.74-18.35-3.27-24.42c-.62-7.11,3.58-12.18,3.58-12.18,0,0-1.09,7.08.17,11.51,1.4,4.9,7.77,15.33,3.79,25.09-2.95,7.24-9.76,10.67-22.88,14.33Z"></path>
        <path class="cls-4" d="M300.58,292.33s7.03,6.61,7.11,14.43c.11,11.67-9.38,21.69-5.73,31.34,0,0,1.8-7.3,6.35-17.6,4.96-11.23,3.16-20.28.17-25.44s-8.75-9.57-8.75-9.57l.86,6.84Z"></path>
        <path class="cls-4" d="M183.87,241.52s-7.21,10.12-12.11,17.02c0,0,14.57-12.72,18.55-20.08l-6.44,3.07Z"></path>
        <path class="cls-4" d="M265.61,241.37s11.27,14.24,23.43,18.39c0,0-11.27-13.64-23.43-18.39Z"></path>
      </g>
    </g>
    <g id="bucket-hat">
      <g class="cls-6">
        <g>
          <path class="cls-3" d="M100.77,347.57s-5.32,18.69-23.93,24.14c0,0,12.6-.42,20.4-7.92,7.8-7.5,3.53-16.23,3.53-16.23Z"></path>
          <path class="cls-3" d="M39.66,363.69s8.4,1.65,18.11-.63c3.68-.87,4.97-.06,9.84-5.23.97-1.03,1.96-2.18,2.69-3.54,0,0-14.37,8.13-30.64,9.4Z"></path>
          <path class="cls-3" d="M61.87,347.95s3.83-5.19,2.82-10.82c-.44-2.45-1.37-4.8-2.27-6.67-1.57-3.24-2.39-6.79-2.5-10.38h0c-.08-2.79.47-5.56,1.63-8.11l.55-1.2s-.64,9.68,3.94,19.38c.89,1.87,5.18,9.92-4.17,17.81Z"></path>
          <path class="cls-3" d="M75.38,326.02s-1.44-2.89-2.97-5.38c-.93-1.51-1.56-3.43-1.94-4.87s-.54-3.09-.3-4.64c.27-1.72.82-2.59,1.45-3.31l.56-.64-.46,6s.79,3.45,1.44,4.95c.65,1.51,2.3,5.46,2.22,7.9Z"></path>
          <path class="cls-3" d="M299.84,312.16s2.44,7.17.11,13-8.46,17.24-3.64,28.14c0,0-9.61-5.36-9.84-10.73,0,0,5.02-6.28,8.28-13.51s5.1-16.91,5.1-16.91Z"></path>
          <path class="cls-3" d="M272.24,355.01s2.19,5.21,5.9,6.95c0,0-13.37,1.87-20.06,0l14.16-6.94Z"></path>
          <path class="cls-3" d="M250.51,233.04s6.26,16.63,18.92,23.98,20.37,8.44,20.37,8.44c0,0-13.26-6.27-22.41-14.22-8.55-7.43-16.87-18.2-16.87-18.2Z"></path>
          <path class="cls-3" d="M92.31,306.88s-5.62,13.71,1.18,24.39c0,0-2.06-17.46,3.56-26.04l-4.73,1.65Z"></path>
        </g>
      </g>
    </g>
  </g>
</svg>