<svg xmlns="http://www.w3.org/2000/svg" id="gamer-guy" viewBox="0 0 380 600">
  <defs>
    <style>
      .cls-1 {
        fill: blue;
      }

      .cls-1, .cls-2, .cls-3, .cls-4 {
        stroke-width: 0px;
      }

      .cls-2 {
        fill: #fffffe;
        opacity: .2;
      }

      .cls-3, .cls-4 {
        fill: #000;
      }

      .cls-4 {
        opacity: .15;
      }
    </style>
  </defs>
  <g id="hair-2" data-name="hair">
    <g>
      <path class="cls-1 color-hair" d="M134.84,238.58c-7.89,4.04-4.55,15.57-9.84,22.25-3.76,4.36-4.14-3.13-3.3-5.66-1.45-.33-5.13.65-3.98-2.12,11.47-14.98-2.72-29.71-18.14-32.22-12.03-1.3-21.43.8-32.52,8.24,3.68-10.43,9.53-19.37,18.18-26.37-5.86,1-3.66-2.56-.48-5.21,19.08-15.89,42.61-24.21,67.28-26.36-13.32-18.98,4.73-14.06,13.82-4.31,8.44-13.94,35.16-18.37,17.31,2.72,46.15-2.26,92.17,22.75,111.37,64.38,2.41,5.22,1.4,6.03-1.11,6.49,6.07,11.12,7.31,26.57,3.46,22.66-5.45-12.07-7.19-17.41-15.65-32.53"></path>
      <path class="cls-3" d="M281.27,230.53c.4.52,1.63,2.54,3.41,5.72,1.78,3.18,4.09,7.54,6.5,12.78,1.21,2.62,2.46,5.44,3.78,8.4.54,1.2,1.1,2.43,1.67,3.69l.19.41.09.21c.05.05.11.1.17.15.22.18.54.37.82.21.27-.17.36-.51.43-.8.07-.3.1-.62.12-.93.03-.62,0-1.25-.06-1.87-.06-.67-.18-1.65-.33-2.49-.29-1.74-.7-3.49-1.19-5.22-.98-3.46-2.32-6.88-4.05-10.05l-.46-.84.94-.17c.52-.1,1.07-.23,1.34-.4.32-.18.54-.53.55-.9.03-.32-.07-.9-.21-1.38-.14-.5-.33-1.01-.53-1.51-.4-1.01-.91-2-1.4-2.99-.5-.99-.95-1.99-1.49-2.94-2.02-3.88-4.33-7.46-6.63-10.77-4.66-6.6-9.57-11.91-13.61-15.67-9.32-8.74-20.46-16.2-32.8-21.63-6.15-2.74-12.6-4.98-19.22-6.66-6.62-1.68-13.42-2.87-20.28-3.39-1.72-.13-3.43-.26-5.15-.3-1.72-.09-3.44-.09-5.16-.08h-1.38s-2.4.08-2.4.08l-4.81.16h-.3s-.15.01-.15.01c-.06,0-.12.01-.05-.04l.37-.47.74-.94,1.47-1.88,1.37-1.78.68-.89.34-.44.18-.27c.93-1.37,1.75-2.8,2.26-4.2.12-.35.25-.7.29-1.02.03-.16.08-.33.1-.49,0-.14,0-.29.01-.43-.02-.55-.14-.87-.38-1.09-.22-.25-.76-.44-1.39-.52-.62-.11-1.38-.04-2.11.02-1.5.21-3.05.69-4.53,1.31-2.98,1.24-5.74,3.09-8.06,5.28-.57.56-1.13,1.13-1.63,1.74-.13.15-.26.3-.38.46l-.43.57c-.51.66-.95,1.4-1.42,2.08l-.69,1.05-.17.26s-.05.13-.09.09l-.11-.11-.44-.45c-.58-.59-1.18-1.22-1.71-1.72l-.82-.8-.2-.2-.13-.11-.23-.2c-.31-.26-.61-.53-.93-.77-2.51-2-5.34-3.7-8.23-4.7-.71-.22-1.44-.43-2.1-.51-.66-.09-1.29-.06-1.61.06-.08.03-.16.05-.17.08-.02.01-.04.02-.06.02,0,.02,0,.03-.01.03-.04.03-.06.09-.1.25-.06.33-.02.94.15,1.58.41,1.53,1.29,3.18,2.22,4.76l.47.75c.24.4.5.8.79,1.21l1.59,2.39.79,1.19.1.15s.11.12.01.11l-.36.04-.71.07-2.85.3-2.66.28c-.47.05-.95.09-1.42.16l-2.83.39c-1.89.23-3.76.62-5.64.92-7.47,1.41-14.78,3.44-21.8,6.09-7,2.69-13.69,6.02-19.93,9.92-3.09,2-6.11,4.07-8.96,6.34l-2.14,1.69c-.65.54-1.25,1.1-1.75,1.68-.25.29-.46.58-.62.84-.08.12-.12.23-.16.31,0,.02,0,.04-.02.06-.26-.05-.41-.12-.65-.09-.06,0-.11.01-.17.02-.04,0-.04,0-.06,0-.04,0-.08,0-.13.02-.02,0-.05.02-.07.03-.02.01.02,0,.03-.01.03-.02.05-.04.06-.05,0,0,.01-.02.01-.03h0c1.25-1.43.38-.41.68-.72l.13-.02.51-.07,1.24-.16c2.16-.29,4.32-.58,6.47-.87l-2.82,2.39c-1.13.94-2.26,1.88-3.36,2.85l-1.66,1.44c-.13.11-.3.26-.39.35l-.19.18-.38.37c-.51.48-1,.98-1.48,1.49-1.93,2.02-3.69,4.17-5.26,6.43-1.58,2.26-2.98,4.63-4.2,7.08-.31.64-.61,1.27-.92,1.9-.04.09-.14.28-.14.34l.23-.13.46-.24c1.76-.95,3.58-1.79,5.43-2.52,1.85-.74,3.76-1.31,5.68-1.8,1.93-.44,3.87-.78,5.81-.96,3.91-.37,7.68-.22,11.49.23,3.88.67,7.42,2,10.69,3.85,3.24,1.85,6.17,4.24,8.43,7.16,2.26,2.91,3.82,6.42,4.1,10.09.31,3.66-.71,7.26-2.4,10.25-.78,1.4-2.14,3.23-2.3,3.39-.01,0-.03,0-.05.01-.01,0-.07.05-.01,0,.03-.02.06-.05.08-.07l.02-.04.09-.1s.07.04.17.07c.11.03.26.05.42.07.17.01.29.03.66.03.62,0,1.23.02,1.79.1l.83.11c.14.03.3.04.42.08.07.06.13.11.22.18-.2.67-.4,1.38-.54,2.02-.05.3-.1.67-.11.89-.01.19-.02.37-.03.56-.02.74.03,1.49.16,2.15.07.33.17.64.28.86.12.24.22.23.17.28-.02-.05.14-.01.37-.18.22-.14.47-.36.7-.6.85-1.03,1.62-2.26,2.09-3.59.52-1.32.88-2.7,1.19-4.09.61-2.78,1-5.61,1.96-8.29.86-2.7,2.78-5.15,5.28-6.37-.51.37-1.05.7-1.53,1.12-.44.47-.96.88-1.31,1.45-.84,1.03-1.33,2.3-1.78,3.58-.79,2.61-1.04,5.45-1.49,8.39-.45,2.92-1.11,6.07-3.17,8.79-.28.34-.58.64-.96.93-.37.27-.87.57-1.57.51-.72-.07-1.19-.62-1.44-1.04-.27-.44-.41-.88-.53-1.32-.22-.87-.31-1.73-.32-2.59,0-.22,0-.43,0-.65v-.38c.02-.22.04-.44.09-.64l.03-.14s-.1-.02-.15-.02c-.11,0-.21,0-.32,0l-.61.03h-.16s-.33,0-.33,0c-.23-.02-.45-.03-.72-.08-.12-.02-.26-.05-.4-.1-.14-.05-.28-.09-.45-.19-.29-.15-.67-.47-.84-.87-.11-.21-.17-.4-.18-.59-.03-.19-.05-.39-.02-.53l.06-.46.12-.41c.06-.15.07-.32.17-.43l.24-.35.31-.46c.43-.61.77-1.26,1.15-1.9.67-1.31,1.21-2.67,1.56-4.06.34-1.39.46-2.81.38-4.21-.14-2.8-1.17-5.46-2.71-7.73-1.52-2.29-3.54-4.19-5.69-5.74-2.16-1.54-4.46-2.74-6.75-3.59-2.29-.86-4.56-1.45-6.66-1.65-4.4-.43-8.27-.27-11.16.07-3.51.43-6.94,1.32-10.16,2.66-.8.33-1.6.67-2.38,1.05-.39.19-.78.36-1.17.56l-1.44.77c-1.43.78-2.91,1.77-4.32,2.63-1.38.88-2.75,1.75-4.11,2.61l.1-.35.17-.45.35-.92.69-1.82,1.35-3.52c.5-1.14.99-2.29,1.49-3.43.33-.67.65-1.34,1-2,1.37-2.64,2.92-5.17,4.63-7.55,1.71-2.38,3.6-4.61,5.61-6.65.49-.52,1.02-1.01,1.54-1.5l.39-.37.13-.11.28-.24c.19-.17.4-.32.6-.49l.16-.12s-.09,0-.14,0c-.12.02-.24.03-.36.03-.17,0-.36,0-.53-.07-.04,0-.11-.06-.16-.09l-.04-.03s-.03-.02-.09-.09c-.1-.11-.19-.22-.27-.34-.34-.46-.41-1.1-.35-1.49.12-.84.44-1.39.75-1.86.31-.49.66-.89,1.01-1.29.7-.77,1.49-1.47,2.26-2.06l2.29-1.79c1.51-1.21,3.12-2.27,4.67-3.41,1.61-1.05,3.19-2.14,4.82-3.12,6.51-3.97,13.31-7.26,20.25-9.83,6.95-2.56,14.01-4.47,21.08-5.82,1.77-.34,3.54-.6,5.3-.9,1.77-.22,3.53-.49,5.29-.68l1.82-.18.4-.04.2-.02h.1s.04-.01.04-.02l-.03-.04-.44-.66c-.15-.22-.29-.44-.43-.67l-.59-.95c-.44-.77-.88-1.55-1.26-2.36-.39-.81-.73-1.65-1-2.53-.24-.89-.48-1.82-.34-2.87.06-.52.24-1.06.56-1.55.18-.22.38-.45.6-.63.24-.14.47-.34.73-.42,1.01-.42,2.01-.4,2.93-.3,1.83.25,3.51.86,5.1,1.6,1.59.74,3.09,1.62,4.51,2.59.71.48,1.41,1,2.08,1.54.34.26.67.54.99.83l.49.42.32.3c.22.2.42.39.59.57l.27.28c.08-.05.14-.2.22-.29.3-.47.49-.71,1.11-1.52,2.22-2.63,4.89-4.8,7.82-6.45,2.93-1.63,6.1-2.94,9.57-3.11.87,0,1.76.02,2.66.33.88.29,1.79.86,2.33,1.77.5.92.57,1.92.49,2.82-.05.45-.16.87-.25,1.31l-.41,1.22c-.65,1.56-1.48,2.98-2.39,4.32-.77,1.14-1.29,1.79-1.87,2.49l-.1.13h.18s.35-.02.35-.02l.7-.02,1.41-.05c1.57.01,3.14,0,4.7.03,24.99.66,48.06,8.86,66.31,21.47,9.14,6.31,17.1,13.75,23.65,21.91,3.29,4.07,6.18,8.36,8.73,12.75.67,1.08,1.24,2.21,1.84,3.32l.89,1.66.82,1.69c.54,1.13,1.1,2.23,1.58,3.42.24.59.46,1.2.63,1.86.15.66.34,1.34.16,2.32-.12.65-.5,1.28-1.15,1.69-.71.45-1.39.58-2.09.71l.7-1.47c2.54,4.78,4.54,10.71,5.34,17.06.05.39.08.82.12,1.24.03.54.08,1.1.07,1.62,0,1.06-.08,2.06-.32,2.83-.13.39-.26.75-.48,1.06-.2.31-.54.64-1.01.64-.45,0-.8-.23-1.14-.46-.24-.33-.44-.71-.66-1.06l-.64-1.08c-.2-.42-.4-.91-.59-1.36-.34-.81-.69-1.62-1.03-2.43-.59-1.43-1.18-2.84-1.76-4.23-4.5-11.13-9.36-20.16-10.95-23.23Z"></path>
    </g>
    <g>
      <path class="cls-1 color-hair" d="M236.42,192.73c20.98,8.67,37.69,26.26,49.09,45.76,10.53,18.01-14.63,16.41-28.17,16.23-21.56-.29-38.7-4.48-54.14-11.92-.88-.42-2.53.11-1.93.89,2.72,3.55,6.23,8.04,7.65,9.62,2.81,3.12,3.99,5.69-8.11,4.61-17.81-1.1-35.29-7.69-51.78-14.1-14.95-5.81-28.27-15.8-37.99-28.57"></path>
      <path class="cls-3" d="M111.05,215.23c.51.37,2.48,2.86,5.72,6.22,1.63,1.67,3.56,3.57,5.79,5.5,2.21,1.95,4.71,3.94,7.42,5.83,2.7,1.9,5.59,3.71,8.56,5.34,2.98,1.62,6.03,3.05,9.01,4.25,6,2.35,11.55,4.34,15.51,5.67,10.23,3.41,21.19,6.6,32.54,7.85l2.13.22,2.15.15c1.44.1,2.89.23,4.29.26,1.4.04,2.82.03,4.03-.18.17-.02.24-.05.36-.07.07-.02.07-.02.11-.03.06-.02.11-.05.15-.1.09-.1.03-.24-.04-.33-1.73-2.14-3.47-4.27-5.19-6.4-.92-1.14-1.84-2.29-2.76-3.43l-.69-.86-.17-.21c-.06-.09-.07-.06-.29-.42l-.11-.21c-.04-.09-.08-.2-.11-.3-.06-.21-.1-.42-.09-.68,0-.26.05-.49.14-.7.09-.24.19-.4.3-.55.45-.58.86-.75,1.21-.91.34-.13.66-.21.98-.25.67-.08,1.38,0,2,.29,7.96,3.77,15.84,6.43,23.79,8.22,6.44,1.44,12.98,2.39,19.52,2.86,3.27.27,6.54.37,9.79.45,3.31.05,6.57.15,9.78.13,3.21-.02,6.37-.15,9.41-.56,2.99-.43,6.02-1.17,8.01-2.68,1-.75,1.55-1.67,1.76-2.76.21-1.09.02-2.39-.39-3.68-.39-1.3-1.07-2.58-1.75-3.84-.78-1.3-1.53-2.6-2.31-3.87-6.29-10.17-13.6-19.03-21.39-26.15-7.77-7.16-16.1-12.42-24-16.03,3.74,1.14,8.27,2.92,12.89,5.43,4.63,2.49,9.33,5.68,13.59,9.19,8.57,6.99,15.16,15.23,18.16,19.78,1.46,2.17,2.82,4.38,4.14,6.59.64,1.12,1.28,2.23,1.91,3.33l.92,1.77c.27.62.54,1.24.78,1.87.44,1.3.83,2.64.89,4.11.06,1.45-.22,3.02-.98,4.35-.75,1.34-1.88,2.35-3.05,3.08-1.18.73-2.43,1.2-3.66,1.6-2.48.74-4.95,1.08-7.39,1.28-2.44.2-4.85.26-7.23.25-4.77-.04-9.38-.21-14-.37-9.2-.44-18.1-1.6-26.54-3.61-8.43-2-16.41-4.88-23.72-8.37-.3-.15-.7-.12-.99,0-.03.01-.06.03-.07.04-.05,0,.05.06-.11-.08-.16-.17-.29-.14-.18-.15.04,0,.07-.02.1-.04.06-.02.13-.05.18-.09.06-.09.07.05.12.08l.26.32c.69.87,1.39,1.73,2.08,2.59,1.38,1.72,2.74,3.42,4.1,5.1l1.01,1.26c.35.42.74.83,1.09,1.29.31.4.83,1.15,1.02,1.84.22.7.08,1.52-.44,2.04-.48.54-1.27.81-1.95.98-.64.15-1.16.2-1.73.25-1.11.09-2.19.08-3.26.05-4.24-.21-8.37-.52-12.42-1.16-4.04-.61-7.97-1.44-11.78-2.4-7.63-1.93-14.8-4.39-21.63-6.92-3.41-1.27-6.74-2.56-10-3.85-3.3-1.3-6.44-2.82-9.43-4.46-2.71-1.47-5.83-3.4-8.89-5.65-3.06-2.25-6.08-4.81-8.72-7.39-2.65-2.57-4.92-5.14-6.68-7.27-1.73-2.15-2.95-3.87-3.55-4.71Z"></path>
    </g>
    <g>
      <path class="cls-1 color-hair" d="M91.17,306.1c-.84,1.73-22.99-1.54-31.46-18.09-.03,5.33-5.24,28.63,6.49,23.1,2.2,7.71,6.29,20.08,12.21,26.88,1.09,2.4,12.54,11.87,12.76,6.83-2.61-12.65-4.63-26.21,0-38.71Z"></path>
      <path class="cls-3" d="M91.19,306.11c.08.36-.44,1.91-.93,4.25-.5,2.33-.99,5.46-1.13,8.84-.36,6.77.8,14.43,1.71,18.62.21.93.41,1.86.62,2.8.11.47.22.94.32,1.42.11.5.22,1.18.33,1.77l.16.92.08.47c0,.17-.07.36-.1.54-.18.7-.67,1.37-1.37,1.63-.68.29-1.48.27-2.28.09-.9-.24-1.34-.44-1.87-.68-1.99-.96-3.71-2.17-5.39-3.49-.83-.67-1.64-1.36-2.43-2.12-.39-.39-.78-.78-1.17-1.23-.19-.23-.39-.48-.59-.78-.04-.05-.13-.22-.12-.21,0,0-.01-.02-.02-.03.05.06-.09-.11-.17-.2-1.45-1.65-2.66-3.45-3.74-5.29-1.08-1.84-2.06-3.72-2.94-5.63-1.76-3.81-3.19-7.67-4.44-11.47l-.75-2.36-.08-.27h0s0-.01,0-.01c0,0-.01,0-.01,0h-.01s-.22.08-.22.08c.03,0-.24.05-.45.08l-.63.09c-.44.03-.91.02-1.38-.03-.96-.14-1.96-.56-2.72-1.21-.73-.65-1.27-1.41-1.61-2.14-.71-1.48-.97-2.89-1.14-4.25-.16-1.36-.2-2.67-.19-3.97.03-2.58.27-5.06.55-7.48.09-.75.18-1.5.27-2.24.14-1.17.28-2.29.38-3.51.08-1.22.13-2.57.19-3.95.05-1.31.1-2.62.16-3.92.99,1.83,1.98,3.65,2.96,5.46l.76,1.38.74,1.19c.5.77.95,1.6,1.49,2.27,1.07,1.45,2.16,2.62,3.36,3.79,2.38,2.3,5.06,4.16,7.77,5.69,2.73,1.51,5.51,2.69,8.22,3.56,1.36.43,2.7.78,4.01,1.02.65.12,1.3.21,1.93.26.31.02.62.03.9.01.15,0,.25-.03.38-.04.03-.01.06-.02.1-.03,0,0,.02,0,0,0,0,.01.02.06.04.09.04.06.11.11.2.14-.06-.02-.12-.06-.16-.1-.05-.05-.07-.11-.04-.08,0,.01-.04.04-.06.06-.03.06-.17.1-.26.15-.22.09-.47.17-.74.22-.54.12-1.13.17-1.74.22-1.22.07-2.54.01-3.91-.14-2.72-.31-5.62-.99-8.34-1.99-2.73-.98-5.26-2.3-7.34-3.67-2.08-1.37-3.67-2.82-4.65-3.92-.57-.61-1.07-1.27-1.59-1.9l-.73-.99c-.09-.12-.06-.09-.06-.1v-.04s-.04-.09-.04-.09c-.16-.38-.32-.75-.47-1.12-.05.11-.13.4-.22.75-.04.19-.09.35-.14.61-.09.63-.18,1.25-.27,1.87-.33,2.48-.59,4.93-.62,7.32-.01,1.19.03,2.37.18,3.5.16,1.12.43,2.23.94,3.08.51.85,1.21,1.39,2.16,1.43.23,0,.47.03.72-.02l.37-.05c.11,0,.35-.1.51-.15.71-.2,1.49-.53,2.25-.84.55,1.85,1.1,3.67,1.65,5.48.49,1.53.98,3.04,1.52,4.51,1.07,2.95,2.22,5.8,3.54,8.47,1.32,2.67,2.78,5.2,4.48,7.43.2.29.44.54.66.81l.33.4.21.25c.08.1.14.22.2.32.27.45.76.98,1.22,1.45.95.96,1.99,1.85,3.05,2.67,1.06.82,2.15,1.58,3.25,2.23.55.32,1.13.61,1.65.82.3.12.37.14.55.18.15.04.31.05.46.04.15-.02.3-.08.4-.21.09-.13.13-.28.14-.43-.05-.41-.19-.93-.27-1.37-.12-.58-.23-1.15-.35-1.72-.12-.63-.24-1.25-.36-1.87-.92-4.96-1.51-9.77-1.58-14.39-.09-3.18.28-7.56,1.16-11.28.82-3.74,2.19-6.74,2.61-7.71Z"></path>
    </g>
    <path class="cls-4" d="M135.92,220.5s8.47,17.97,32.46,24.49c24,6.52,37.82,7.83,37.82,7.83l2.96,3.58s-6.2.45-15.62-.76c-10.87-1.4-27.27-5.24-43.71-12.2l-11.07-5.03-1.28-2.95c-2.36-5.43-4.03-11.12-4.98-16.96l-.86-5.27c-.07-.41.49-.58.67-.21l3.62,7.48Z"></path>
    <path class="cls-4" d="M177.11,222.95c5.65,7.58,24.14,16.74,32.81,20.51,14.9,6.48,41.44,11.99,65.89,8.99,4.53-.56,7.12-1.21,10.46-4.12,0,0-38.9-1.14-67.58-9.65-20.1-5.97-35.74-15.71-43.29-21-.85-.59-1.87.46-1.25,1.29l2.97,3.98Z"></path>
    <path class="cls-4" d="M234.74,217.67c5.79,4.06,19.98,11.98,44.48,13.86l-6.46-8.79s-13.92-.14-37.36-6.45c-.84-.23-1.38.88-.66,1.38Z"></path>
    <path class="cls-4" d="M149.63,160.52s6.57,9.68,13.15,11.59l-7.17.36s-3.82-3.94-5.14-7.05-.84-4.9-.84-4.9Z"></path>
    <path class="cls-4" d="M185.05,156.71s-6.23,11.8-13.44,15.41l8.08-.68s3.95-4.35,6.25-8.44c3.73-6.63-.89-6.29-.89-6.29Z"></path>
    <path class="cls-2" d="M206.98,218.49c6.62,5.39,30.15,21.97,69.88,22.86.49.01.61-.69.13-.83-6.66-1.9-22.83-6.52-33.72-9.86-14.61-4.47-30.08-10.56-35.87-12.9-.45-.18-.79.41-.42.71Z"></path>
    <path class="cls-2" d="M152.76,227.5c3.65,4.18,13.31,13,32.68,17.58.77.18,1.2-.87.51-1.27-6.54-3.78-20.52-11.69-32.38-17.38-.67-.32-1.31.51-.82,1.07Z"></path>
  </g>
</svg>