<svg xmlns="http://www.w3.org/2000/svg" id="outfits_2" viewBox="0 0 380 600"><defs transform="matrix(-1, 0, 0, 1, 380, 0)"><style>.cls-1{fill:blue;}.cls-2{opacity:0.5;}.cls-3{fill:#fffffe;}</style></defs><path class="cls-1 color-hair" d="M259.371,242.577c1.358-12.489,13.154-20.886,26.884-20.39-1.169-4.015-3.449-8.381-6.925-10.586-1.038-.659-13.334-4.7-13.33-2.272,1.255-16.775-14.539-21.6-26.448-13.021,2.526-13.193-14.961-18.892-23.048-9.4-4.27-11.054-17.342-12.837-24.7-2.364-7.026-10.669-23.981-7.414-26.936,4.948-8.317-9.031-23.833-4.784-27.043,6.94-7.1-3.283-15.8,1.638-17.129,9.3-.362,1.709.412,5.043-.8,6.347-.917.989-6.975-.223-8.348.493-3.158,1.485-5.376,4.56-7.183,7.43-2.017,2.847,1.916,6.269,4.342,3.761.086-.089,4.531-3.057,4.6-3.145,1.306-1.7,2.591-5.358,4.4-4.277,2.005,1.2,6.588,5.988,12.89-4.49,9.452,5.688,12.316.6,15.753-3.593,9.739-6.287,11,3.47,17.165,8.965,6.879-6.426,17.758-8.981,23.619,2.184,3.7,7.057,14.921-5.362,21.48-1.145,1.956,1.257,2.891,3.65,4.2,5.622,4.362,6.573,14.2,8.2,20.295,3.359-4.54,8.336,5.809,16.388,13.561,15.417-4.79,10.419,1.392,15.181,14.811,15.368C261.484,258.025,258,255,259.371,242.577Z" transform="matrix(-1, 0, 0, 1, 380, 0)" /><path d="M259.431,242.583c.111.471.047,1.788.083,3.794.016,1,.052,2.176.169,3.491.06.656.143,1.348.261,2.065.075.378.1.68.22,1.143s.21.915.36,1.384a9.17,9.17,0,0,0,.736,3.031,2.993,2.993,0,0,0,.425.677c.044.029.011.036-.031.041l-.1.021-.207.043-.415.088a16.859,16.859,0,0,0-1.712.424c-1.047-.07-2.14-.093-3.248-.264-.536-.076-1.165-.128-1.65-.226l-1.464-.3a14.774,14.774,0,0,1-5.846-2.671,8.563,8.563,0,0,1-2.257-2.792,11.134,11.134,0,0,1-.583-1.763,8.609,8.609,0,0,1-.2-1.835,8.824,8.824,0,0,1,.123-1.816l.118-.742a5.1,5.1,0,0,1,.144-.569,9.068,9.068,0,0,1,.349-1.115l.213-.543.106-.27.053-.135c.023-.049-.08-.008-.114-.016-.343.016-.687.058-1.028.052-.343-.026-.678-.035-1.026-.076l-1.088-.206-1.534-.472a16.949,16.949,0,0,1-5.516-3.3,12.6,12.6,0,0,1-3.682-5.524,5.7,5.7,0,0,1-.311-1.345,3.992,3.992,0,0,1-.045-1.036,3.652,3.652,0,0,1,.143-.936,3.371,3.371,0,0,1,.3-.882l.18-.418c.034-.059-.01-.022-.043,0l-.1.07-.194.139a8.349,8.349,0,0,1-1.631.921,5.249,5.249,0,0,1-.861.311l-.433.129-.589.114-.78.14-.785.068a10.367,10.367,0,0,1-1.564.053,10.26,10.26,0,0,1-1.55-.1,16.081,16.081,0,0,1-10.438-5.381,39.5,39.5,0,0,1-2.886-4.347,5.092,5.092,0,0,0-2.6-2.307,6.083,6.083,0,0,0-3.267.022,21.01,21.01,0,0,0-3.356,1.149c-1.5.622-3.014,1.361-4.692,2.027a20.721,20.721,0,0,1-2.7.892,8.455,8.455,0,0,1-3.44.191,5.781,5.781,0,0,1-3.423-1.953,4.8,4.8,0,0,1-.585-.783l-.425-.68-.612-.971a15.544,15.544,0,0,0-1.355-1.791c-.24-.279-.524-.5-.779-.756a4.429,4.429,0,0,0-.817-.684,8.4,8.4,0,0,0-3.742-1.647,9.734,9.734,0,0,0-4.218.157,15.529,15.529,0,0,0-4.206,1.71c-.345.176-.66.422-.993.627l-.494.321-.857.7c-1.155.91-2.322,1.945-3.5,2.991a2.077,2.077,0,0,1-.512-.417l-.518-.5-1.04-1c-.663-.694-1.35-1.355-2-2.085-.163-.181-.32-.377-.476-.574l-.392-.49c-.2-.246-.389-.489-.567-.73l-1.069-1.436c-.694-.956-1.343-1.814-1.994-2.6a7.885,7.885,0,0,0-1.822-1.609,2.813,2.813,0,0,0-1.573-.246c-.158.021-.346.1-.518.136a2.3,2.3,0,0,0-.549.165c-.4.206-.788.305-1.209.567l-.63.377a1.083,1.083,0,0,0-.21.136l-.056.078-.173.222-.549.7a24.943,24.943,0,0,1-2.681,3,10.159,10.159,0,0,1-9.169,2.725,13.839,13.839,0,0,1-2.167-.562l-.956-.329-.37-.159-.325-.141-.135-.066-.131-.063-.079.134a15.352,15.352,0,0,1-4.632,4.437,8.8,8.8,0,0,1-5.5,1.121,10.535,10.535,0,0,1-3.6-1.28c-.075-.039-.141-.1-.228-.1a.313.313,0,0,0-.194.155,2.327,2.327,0,0,0-.136.236l-.385.661c-.133.233-.507.823-.853,1.289l-.238.274-.06.069c-.069-.026-.056.029-.089.039l-.131.125a5.874,5.874,0,0,1-.561.466l-.806.56-1.294.89-1.279.879-.619.428c-.064.024-.34.291.186-.189-.2.186-.4.366-.611.539a6.512,6.512,0,0,1-1.483.9,6.276,6.276,0,0,1-1.793.428,6.058,6.058,0,0,1-3.395-.686,6.5,6.5,0,0,1-2.415-2.116,6.231,6.231,0,0,1-1.142-3.17,6.447,6.447,0,0,1,.109-1.773c.069-.28.157-.555.251-.828a3.764,3.764,0,0,1,.322-.739c.118-.219.242-.436.37-.648l.215-.346.414-.65a33.908,33.908,0,0,1,1.976-2.77,21.748,21.748,0,0,1,2.5-2.668,16.955,16.955,0,0,1,1.528-1.2c.273-.188.547-.374.842-.544l.438-.256.59-.305a1.506,1.506,0,0,1,.453-.175l.453-.173c.308-.1.629-.15.945-.218a12.794,12.794,0,0,1,1.585-.1c.814,0,1.522.031,2.206.06l.981.042.2.008h.017l.036,0a.56.56,0,0,0,.132-.02c.089-.039.069-.161.066-.234l-.016-.541-.015-1.1a11.525,11.525,0,0,1,.088-1.422l.066-.419.069-.317.138-.6a15.339,15.339,0,0,1,1.9-4.633,17.209,17.209,0,0,1,3.181-3.778,16.737,16.737,0,0,1,8.808-4c.342-.04.682-.093,1.026-.115l1.04-.016a13.4,13.4,0,0,1,2.083.149l.281.035a.347.347,0,0,0,.011-.056c-.007,0,.025-.038-.017,0l.581-1.113c.443-.762.989-1.461,1.494-2.184.542-.692,1.173-1.309,1.768-1.955a20.611,20.611,0,0,1,9-5.07,20.026,20.026,0,0,1,10.362-.02c.828.278,1.714.527,2.484.863l1.975.981,0,0v0l.64-.911.808-1.116c.58-.708,1.253-1.34,1.89-2a19.339,19.339,0,0,1,9.588-4.7,19.108,19.108,0,0,1,10.583,1.059,24.359,24.359,0,0,1,2.436,1.216l1.133.761.56.387.279.195.072.069.531.505.013.027a.062.062,0,0,0,.017-.01l.356-.341.108-.1.444-.347.982-.747a15.025,15.025,0,0,1,2.105-1.318,17.052,17.052,0,0,1,9.812-2.009,16.444,16.444,0,0,1,9.1,4.038,14.914,14.914,0,0,1,1.713,1.727l.744.913.337.421.009.022c.031.051.05.144.081.194a.687.687,0,0,1,.086-.064l.374-.226,1.12-.588c.4-.194.817-.356,1.226-.531a18.591,18.591,0,0,1,2.535-.764,18.153,18.153,0,0,1,10.208.722,15.649,15.649,0,0,1,8.046,6.526,14.643,14.643,0,0,1,1.153,2.431l.209.638c.06.187.163.5.149.49l.06.317a1.986,1.986,0,0,1-.047.581c-.035.1.018.057.064.029a1.424,1.424,0,0,1,.135-.071,2.92,2.92,0,0,1,.307-.132l1.158-.414,1.3-.394L247,189.42a19.986,19.986,0,0,1,10.849.619,16.1,16.1,0,0,1,8.429,6.9,17.9,17.9,0,0,1,1.986,4.9l.269,1.255.177,1.251c.011.087.036.247.035.273l.006.128.012.259.011.255-.007.158a4.758,4.758,0,0,1-.032.484l-.023.237c-.01.005.027-.114.089-.127a1.039,1.039,0,0,1,.516-.029c.214.03.22.031,1.056.182,1.287.251,2.482.562,3.649.9s2.294.7,3.411,1.093c.56.2,1.113.4,1.682.626.3.122.532.213.947.4a5.929,5.929,0,0,1,1.078.661,15.043,15.043,0,0,1,2.83,2.71c.4.489.76.99,1.1,1.5.174.253.323.514.484.77.081.128.155.258.227.388l.269.475a26.448,26.448,0,0,1,1.9,4.5c.24.736.457,1.456.675,2.188l.322,1.1a3.8,3.8,0,0,1,.137.532l-.077.347c-1.4,0-2.78-.06-4.138-.012l-2.018.068-1,.034-.247.008-.2.019-.072.011-.289.041a28.625,28.625,0,0,0-4.5.9,24.763,24.763,0,0,0-7.838,3.816,20.416,20.416,0,0,0-8.236,13.465,19.783,19.783,0,0,1,1.451-7.565,21.473,21.473,0,0,1,5.094-7.394,26.327,26.327,0,0,1,8.424-5.353,30.224,30.224,0,0,1,5.059-1.517l.488-.116.346-.071.654-.136c.42-.09.809-.114,1.165-.172l.173-.025-.095-.217-.2-.422c-.131-.273-.267-.529-.4-.769s-.276-.465-.416-.673l-.483-.675a14.741,14.741,0,0,0-1.865-2.227,11.793,11.793,0,0,0-1.039-.878c-.182-.119-.355-.256-.539-.364l-.252-.147a.433.433,0,0,0-.136-.059l-1.257-.394-1.532-.427c-1.031-.272-2.069-.519-3.09-.732s-2.032-.392-2.964-.494l-.53-.05c-.185-.111-.545.293-.414-.751l.036-1.094.018-.548.01-.275c-.014-.026-.038-.008-.056-.014l-.471-.017c-.612-.018-1.267-.034-1.6,0-.065.009-.116.021-.08.042.012-.008.013.054.016.1l0,.037v.028h0c.468-.549-4.08,4.781-2.155,2.524v0l0,0,0-.012.048-.185q.194-.745.387-1.485l.195-.741c.039-.232.266-.581-.169-.511l-1.706-.15.021-1.149-.07-.981a12.029,12.029,0,0,0-.156-1.611,15.7,15.7,0,0,0-.447-1.81,10.916,10.916,0,0,0-1.5-3.033,9.431,9.431,0,0,0-4.7-3.474,12.924,12.924,0,0,0-5.395-.582,17.461,17.461,0,0,0-2.437.42c-.385.075-.748.207-1.1.3-.179.045-.351.11-.52.17l-.252.087c-.1.041-.406.138-.564.217-.938.429-1.865.947-2.79,1.434l-2.841,1.867L237.13,202.4c-.834.543-1.718,1.143-2.381,1.532q.431-2.738.859-5.469c.135-.927.305-1.917.408-2.776l.13-1.241.064-.618a1.881,1.881,0,0,0,.019-.555l-.114-.9-.057-.451a1.8,1.8,0,0,0-.055-.339c-.075-.223-.122-.458-.206-.679a7.553,7.553,0,0,0-.612-1.285,9.083,9.083,0,0,0-4.741-3.693,11.463,11.463,0,0,0-6.361-.4,10.763,10.763,0,0,0-1.516.463,5.931,5.931,0,0,0-.722.312,4.223,4.223,0,0,0-.883.513l-.619.43-.308.214-.34.327-1.359,1.33-1.347,1.382-1.242,1.3a3.726,3.726,0,0,1-.379-.746l-.368-.831-.732-1.651c-.491-1.095-1.083-2.146-1.613-3.206a3.851,3.851,0,0,0-.626-.987l-.518-.671c-.348-.444-.77-.763-1.143-1.162a9.9,9.9,0,0,0-5.738-2.473,10.843,10.843,0,0,0-6.157,1.347l-.718.387c-.226.153-.442.325-.665.485l-.666.486a1.156,1.156,0,0,0-.178.139l-.236.251-.47.5-.937,1-.466.494-.475.587c-.633.77-1.262,1.587-1.884,2.3l-2.159-2.837c-.7-.794-1.388-1.512-2.077-2.265a.827.827,0,0,0-.218-.189l-.192-.131-.382-.265-.76-.539-1.669-.831a13.307,13.307,0,0,0-7.416-.642,13.613,13.613,0,0,0-6.627,3.312l-.653.656a3.714,3.714,0,0,0-.61.692l-.546.745a3.2,3.2,0,0,0-.582,1c-.409.985-.876,1.947-1.231,2.933q-.489,1.482-.978,2.956l-2.375-2.258-2.544-2.061c-.652-.4-1.2-.639-1.8-.966l-1.8-.621a14.616,14.616,0,0,0-7.562.09,15.124,15.124,0,0,0-6.534,3.723,16.032,16.032,0,0,0-1.254,1.395,17.928,17.928,0,0,0-1.054,1.541l-.468.9a9.89,9.89,0,0,0-.578,1.354l-.487,1.372-.242.684-.121.342c-.048.1-.061.272-.147.283l-1.6-.624c-.537-.2-1.1-.35-1.648-.527l-.412-.127-.1-.032a.593.593,0,0,0-.164-.035l-.13-.014-.515-.06a4.918,4.918,0,0,0-1.036-.057,10.655,10.655,0,0,0-4.08.8,11.485,11.485,0,0,0-5.962,5.563,6.325,6.325,0,0,0-.392.944,5.042,5.042,0,0,0-.3.982c-.067.317-.186.72-.217.965a7.344,7.344,0,0,0-.05.957l.017,1.13.007.739c0,.268-.014.532-.022.8a5.779,5.779,0,0,1-.823,2.911,3.273,3.273,0,0,1-2.615,1.207,12.538,12.538,0,0,1-1.567.04l-1.325-.05c-.766-.037-1.514-.078-2.217-.084a3.159,3.159,0,0,0-1.584.218c-.088.043-.363.187-.53.3-.2.109-.381.241-.569.368a11.3,11.3,0,0,0-1.079.858,17.14,17.14,0,0,0-1.938,2.093c-.6.761-1.163,1.576-1.707,2.414l-.423.663-.253.434a1.338,1.338,0,0,0-.083.654,1.6,1.6,0,0,0,.92,1.125,1.019,1.019,0,0,0,1.184-.215l.075-.06c.025-.019-.018.02.13-.114l.167-.133.051-.036.333-.233.634-.435,1.257-.858a20.352,20.352,0,0,0,2.114-1.521c.114-.16.193-.29.372-.586l.542-.922a11.615,11.615,0,0,1,1.544-2.15,3.462,3.462,0,0,1,2.154-1.164,4.551,4.551,0,0,1,2.274.789q.55.365,1.087.694l.269.168.166.081.331.167a4.252,4.252,0,0,0,1.268.349,3.81,3.81,0,0,0,2.43-.649,10.244,10.244,0,0,0,2.288-2.068c.187-.22.315-.412.53-.688.258-.324.507-.685.755-1.052l1.423-2.2c.119-.18.234-.375.356-.544l.571.312,1.142.624c.787.452,1.456.741,2.166,1.089l.527.252c.159.07.259.091.391.139l.745.251a10.289,10.289,0,0,0,1.459.306,5.543,5.543,0,0,0,4.913-1.882,27.3,27.3,0,0,0,2.133-2.5l.618-.779.4-.5a4.406,4.406,0,0,1,.536-.336l.929-.543c.284-.156.539-.334.846-.468.627-.256,1.21-.555,1.879-.757a8.819,8.819,0,0,1,2.138-.394,8.209,8.209,0,0,1,1.142-.007c.387.061.775.131,1.16.209a5.974,5.974,0,0,1,1.09.4l.531.232.461.3a12.4,12.4,0,0,1,2.956,2.728c.781.956,1.465,1.914,2.12,2.821l.983,1.336c.161.225.328.428.493.636l.278.346.556.619.3.284.149.141.074.07c.025.019.051-.035.077-.048a12.057,12.057,0,0,1,1.091-.906l.146-.111a1.774,1.774,0,0,1,.2-.14l.634-.406a14.731,14.731,0,0,1,1.29-.775,19.131,19.131,0,0,1,5.691-2.13,13.706,13.706,0,0,1,11.858,2.894c.379.347.739.71,1.106,1.068.179.181.37.356.538.544l.465.59.919,1.185.76,1.252.376.627.176.293.1.155a1.21,1.21,0,0,0,.188.276,1.124,1.124,0,0,0,.208.211,1.689,1.689,0,0,0,1.1.391,12.14,12.14,0,0,0,4.159-1.095c1.536-.607,3.12-1.331,4.825-1.955a17.088,17.088,0,0,1,5.7-1.23,8.236,8.236,0,0,1,3.325.644,7.954,7.954,0,0,1,2.778,1.991,28.546,28.546,0,0,1,2.966,4.5,12.135,12.135,0,0,0,2.776,3.063,12.992,12.992,0,0,0,7.784,2.546,12.4,12.4,0,0,0,2.042-.192l.286-.048c.224-.036.32-.075.487-.113l.921-.39a10.218,10.218,0,0,0,1.9-.935l2.058-1.287,2.077-1.368c1.187-.786,2.594-1.9,2.982-1.813l-.685,1.541c-.1.22-.254.612-.382.921l-.4.978q-.393.972-.784,1.939c-.266.65-.422,1.157-.636,1.74l-.426,1.206-.214.609c-.08.211-.023.277-.041.424q0,.767-.006,1.55a.557.557,0,0,0,.043.286l.07.215.135.435a3.894,3.894,0,0,0,.368.87,10.12,10.12,0,0,0,2.6,3.294,14.587,14.587,0,0,0,4.063,2.457l1.189.408,1.961.295c.716.047,1.51.027,2.26.045.748,0,1.451-.044,2.179-.064.006.056.048.087.027.164l-.117.271-.233.54-.465,1.076c-.322.706-.592,1.443-.861,2.173l-.405,1.089a5.546,5.546,0,0,0-.156.539c-.026.078-.041.208-.06.3l-.035.173a6.207,6.207,0,0,0-.2,1.37,5.831,5.831,0,0,0,1.681,4.777,12.312,12.312,0,0,0,4.909,2.671c.929.241,1.905.522,2.6.634.771.173,1.537.262,2.316.37.618.091,1.246.117,1.834.177l.433.039.209.019c.058.012.021-.013,0-.034l-.055-.063a3.1,3.1,0,0,1-.338-.514,8.129,8.129,0,0,1-.831-2.456,24.225,24.225,0,0,1-.427-3.905q0-.933,0-1.775l.077-1.584C259.066,245,259.3,243.53,259.431,242.583Z" transform="matrix(-1, 0, 0, 1, 380, 0)" /><g class="cls-2" transform="matrix(-1, 0, 0, 1, 380, 0)"><path class="cls-3" d="M210.417,191.427c-.164.327-1.623.5-3.276.715l-2.48.541a13.758,13.758,0,0,0-1.944.708,37.984,37.984,0,0,0-9.617,6.184,38.828,38.828,0,0,0-6.008,7.038,17.715,17.715,0,0,0-2.972,6.856,5.637,5.637,0,0,1-1.58-4.111,7.314,7.314,0,0,1,.233-2.211,6.66,6.66,0,0,1,.261-.866,3.243,3.243,0,0,1,.352-.591,47.375,47.375,0,0,1,5.654-6.142,46.255,46.255,0,0,1,5.563-4.457c3.669-2.508,7.42-4.094,10.861-4.345a10.983,10.983,0,0,1,1.392-.04,9.134,9.134,0,0,1,1.515.223C209.344,191.125,210.154,191.343,210.417,191.427Z" /></g><g class="cls-2" transform="matrix(-1, 0, 0, 1, 380, 0)"><path class="cls-3" d="M247.691,201.639c-.137.123-.613.107-1.278.011-.333-.048-.714-.116-1.124-.2s-.874-.088-1.339-.145l-1.424-.147-1.417.006c-.456.012-.888-.007-1.28.041s-.743.109-1.034.167a46.385,46.385,0,0,0-6.26,1.651,32.358,32.358,0,0,0-5.843,2.757,31.35,31.35,0,0,0-7.882,6.68,30.427,30.427,0,0,0-4.457,7.469,9.027,9.027,0,0,1-.629-4.816c.052-.434.108-.868.2-1.273.12-.389.25-.76.386-1.1a5.89,5.89,0,0,1,.839-1.562,39.26,39.26,0,0,1,7.244-6,41.763,41.763,0,0,1,7.113-3.721c4.647-1.835,9.152-2.652,13.007-2.011a13.292,13.292,0,0,1,3.13,1.01C246.633,200.981,247.435,201.468,247.691,201.639Z" /></g><g class="cls-2" transform="matrix(-1, 0, 0, 1, 380, 0)"><path class="cls-3" d="M266.844,212.917c-.153.339-1.7.524-3.461.812a28.813,28.813,0,0,0-4.8,1.074,51.971,51.971,0,0,0-11.072,5.219,55.6,55.6,0,0,0-7.736,6.264c-2.282,2.181-4.245,4.34-5.978,6.028a11.058,11.058,0,0,1,.675-4.527,7.954,7.954,0,0,1,1.893-3.257,72.782,72.782,0,0,1,13.5-8.843,31.214,31.214,0,0,1,11.784-3.414,14.059,14.059,0,0,1,3.028.195C265.7,212.642,266.56,212.839,266.844,212.917Z" /></g><g class="cls-2" transform="matrix(-1, 0, 0, 1, 380, 0)"><path class="cls-3" d="M171.6,184.571c.081.33-.815,1.145-1.845,2.058a19.3,19.3,0,0,0-2.643,2.692,36.194,36.194,0,0,0-4.659,7.956,43.51,43.51,0,0,0-2.03,7.22q-.1.438-.2.869c-.049.289-.1.577-.145.861q-.151.851-.335,1.656c-.171,1.078-.364,2.09-.606,3.009a8.6,8.6,0,0,1-2.094-3.116,5.454,5.454,0,0,1-.4-2.923,64.633,64.633,0,0,1,4.879-11.617c.425-.812.953-1.52,1.411-2.248.524-.674,1-1.368,1.545-1.95a16.058,16.058,0,0,1,3.331-2.96A13.5,13.5,0,0,1,171.6,184.571Z" /></g><g class="cls-2" transform="matrix(-1, 0, 0, 1, 380, 0)"><path class="cls-3" d="M138.526,194.791c.13.3-.345.885-.921,1.508a9.994,9.994,0,0,0-1.4,1.88c-.8,1.765-1.851,3.463-2.457,5.143-.535,1.457-1.008,2.878-1.47,4.26a33.684,33.684,0,0,1-1.465,3.837c-1.678-.964-2.705-3.194-2.279-3.939,1.586-2.877,2.627-5.134,3.738-7.158a13.092,13.092,0,0,1,3.689-4.724A6.061,6.061,0,0,1,138.526,194.791Z" /></g></svg>