<svg xmlns="http://www.w3.org/2000/svg" id="hair_2" viewBox="0 0 380 600"><defs transform="matrix(-1, 0, 0, 1, 380, 0)"><style>.cls-1{fill:blue;}.cls-2{opacity:0.5;}.cls-3{fill:#fffffe;}</style></defs><path class="cls-1 color-hair" d="M205.9,222.468c-22.174-19.475-58.685,9.907-82.028-8.6-4.3,7.16-21.6,4.232-23.257,12.146,1.451-55.276,125-81.539,147.439-29.6" transform="matrix(-1, 0, 0, 1, 380, 0)" /><path d="M248,196.44c-.592-.388-1.88-3.287-4.761-6.856a44.02,44.02,0,0,0-12.913-10.94,63.13,63.13,0,0,0-18.462-6.625,81.538,81.538,0,0,0-16.069-1.562,133.655,133.655,0,0,0-44.575,8.15,108.666,108.666,0,0,0-20.789,10.107,68.341,68.341,0,0,0-16.7,14.449,45.382,45.382,0,0,0-5.776,9.143c-.415.79-.688,1.631-1.044,2.44-.179.4-.29.83-.439,1.243l-.278.82a.011.011,0,0,0,.013.006c.005,0,0,0,0,0v.007c.051-.009-.227.065.585-.161.909-.257,1.773-.457,2.631-.66,1.7-.387,3.316-.719,4.817-1.093a23.422,23.422,0,0,0,4.009-1.306c.294-.121.524-.264.784-.391l.33-.208a1.232,1.232,0,0,0,.158-.1l.215-.161a3.447,3.447,0,0,0,.844-.936l.787-1.121,1.549-2.229,4.927,3.565.31.224.35.206.286.17.57.342a10.128,10.128,0,0,0,1.157.651,22.941,22.941,0,0,0,2.425,1.079l1.244.468c.423.136.859.243,1.287.368a38.235,38.235,0,0,0,10.793,1.244c7.4-.106,14.8-1.449,22.018-2.422s14.375-1.727,21.2-.787a32.616,32.616,0,0,1,9.589,2.766,28.38,28.38,0,0,1,7.579,5.282,31.719,31.719,0,0,0-13.294-4.166,39.977,39.977,0,0,0-7.715.113,74.174,74.174,0,0,0-7.808,1.21c-5.161,1.026-10.208,2.357-14.717,3.311a74.715,74.715,0,0,1-11.291,1.722,57.311,57.311,0,0,1-15.8-1.108,16.865,16.865,0,0,1-1.933-.507c-.638-.2-1.277-.379-1.906-.594a34.234,34.234,0,0,1-3.659-1.577c-.585-.312-1.194-.568-1.749-.926l-1.668-1.047a5.113,5.113,0,0,1-.486-.408l-.242-.213c-.08-.057-.178-.208-.227-.072a2.684,2.684,0,0,1-.712.605,13.852,13.852,0,0,1-2.692,1.47A30.615,30.615,0,0,1,115.517,221c-1.686.372-3.327.67-4.895,1-.784.164-1.552.334-2.294.525-.15.031-.468.133-.723.208-.273.091-.516.136-.812.264l-.872.362-.217.09-.237.213-.475.427a11.053,11.053,0,0,0-3.347.47,1.707,1.707,0,0,0-.97.735,1.354,1.354,0,0,0-.162.487l0,.269c0,.035.008.114,0,.112l-.077-.147q-.3-.6-.59-1.179c-.208-.4-.557-.812-.812-1.216a41.458,41.458,0,0,1,1.37-7.232,13.5,13.5,0,0,1,.512-1.67l.466-1.305c.316-.866.711-1.7,1.061-2.54a48.374,48.374,0,0,1,5.563-9.213,70.062,70.062,0,0,1,14.852-14.111,115.036,115.036,0,0,1,34.072-16.128,126.714,126.714,0,0,1,33.726-5.228c10.849-.146,21.274,1.3,30.568,4.731a51.654,51.654,0,0,1,9.627,4.666,44.771,44.771,0,0,1,9.008,7.332,37.017,37.017,0,0,1,5.8,8.106c.353.6.6,1.205.862,1.748.245.553.507,1.04.674,1.514Z" transform="matrix(-1, 0, 0, 1, 380, 0)" /><g class="cls-2" transform="matrix(-1, 0, 0, 1, 380, 0)"><path class="cls-3" d="M209.013,174.828a5.477,5.477,0,0,1-1.95.217,11.314,11.314,0,0,0-3.119.555,6.893,6.893,0,0,0-2.709,1.617,4.048,4.048,0,0,0-.434.517l-.167.261c-.033.025,0,.036.049.043l.122.028.24.055a16.73,16.73,0,0,0,1.759.274l.843.074c1.254.084,2.2.136,2.91.237.174.031.34.05.484.089.072.018.145.029.209.051a.891.891,0,0,1,.119.042l.364.2a8.862,8.862,0,0,1,2.6,2.451l2.455,3.523-4.6.414c-1.36.122-2.728.3-4.088.54-.326.061-.711.121-.988.185l-.132.07a1.365,1.365,0,0,0-.207.132c-.1.081-.146.15-.14.2a.1.1,0,0,0,.047.069.26.26,0,0,0,.05.026l.134.01.225.011a.414.414,0,0,0,.123,0h0a2.345,2.345,0,0,1,.257.2,11.965,11.965,0,0,1,1.223,1.234,13.409,13.409,0,0,1,1.823,2.763l3.263,6.2-6.86-1.357a30.155,30.155,0,0,0-7.111-.537l-.218.01-.034-.009-.055-.019-.13-.036a2.672,2.672,0,0,0-.358-.052,5.07,5.07,0,0,0-1.1.028,1.524,1.524,0,0,0,.186.6c.065.134.147.287.249.459l.167.272a1.843,1.843,0,0,0,.305.394c1.457,1.611,2.785,3.157,3.966,4.617a24.14,24.14,0,0,1-4.336-1.176l-1.146-.436-.574-.235-.287-.12a2.338,2.338,0,0,1-.332-.164c-1.078-.6-2.282-1.342-3.545-2.167l-.957-.634a10.607,10.607,0,0,1-.881-.637c-.538-.42-1.073-.85-1.6-1.284l-1.533-1.305-.731-.646-.353-.319c.029-.075.222-.114.326-.173a29.841,29.841,0,0,1,11.071-2.754c.234-.019.469-.039.7-.045l.344-.01.216,0q.418,0,.834.028c.553.019,1.1.064,1.643.1a38.32,38.32,0,0,1,6.2,1.061l-2.025,2.727a8.178,8.178,0,0,0-1.037-1.864,6.291,6.291,0,0,0-.691-.775,4.782,4.782,0,0,0-.705-.539l-.877-.458a31.265,31.265,0,0,0-4.549-1.377c-1.637-.4-3.234-.762-4.657-1.061a.556.556,0,0,0-.2-.817l-.216-.146c0-.015-.073-.018-.018-.043l.2-.081.4-.162,1.559-.625c2.043-.8,3.892-1.51,5.962-2.149,1.028-.317,2.106-.6,3.209-.851.558-.114,1.109-.246,1.675-.345l1.4-.239a46.643,46.643,0,0,1,4.83-.52l-1.364,2.5a4.71,4.71,0,0,0-1.54-1.363,4.024,4.024,0,0,0-.963-.434c-.367-.117-.7-.257-1.094-.355-.8-.192-1.615-.377-2.476-.542-.438-.084-.817-.176-1.209-.265s-.806-.181-1.116-.271l-1.922-.514-3.288-.864c-.048-.215-.095-.42-.153-.623l-.081-.31-.04-.157c.08-.089.239-.209.354-.312a26.8,26.8,0,0,1,2.949-2.214,12.452,12.452,0,0,1,3.346-1.508,14.045,14.045,0,0,1,4.26-.55,12.7,12.7,0,0,1,3.543.595A9.954,9.954,0,0,1,209.013,174.828Z" /></g><path class="cls-1 color-hair" d="M290.1,219.769c-32.146-41.541-61.8-38.309-74.722-1.94-4.5,13.181,29.024,13.846,42.841,39.111C251.442,228.927,258.589,218.481,290.1,219.769Z" transform="matrix(-1, 0, 0, 1, 380, 0)" /><path d="M290.094,219.83c-.464.312-2.844.416-6.32.642a66.256,66.256,0,0,0-12.722,1.843,23.351,23.351,0,0,0-6.585,2.848,15.263,15.263,0,0,0-2.679,2.2,13.537,13.537,0,0,0-1.95,2.7c-2.145,3.843-2.147,8.194-1.967,11.128q.1,1.064.195,2.136.2,1.469.4,2.95c.172,1.033.4,2.128.6,3.224.1.539.223,1.12.369,1.725l.419,1.811a6.009,6.009,0,0,0-.416.709l-.272.63-.294.612c-.063.186-.091.356-.142.53a6.1,6.1,0,0,0-.243.975l-.066.432-.037.209c-.015.058-.013.184-.07.092-.642-.687-1.392-1.115-4-.638l-1.871-2.828-1.771-2.111-.895-1.069c-.147-.171-.3-.376-.444-.521l-.4-.384-1.623-1.551-.409-.391c-.122-.113-.306-.3-.369-.343l-.521-.426-1.041-.855c-.717-.548-1.433-1.1-2.169-1.63a85.233,85.233,0,0,0-9.431-5.767c-3.3-1.769-6.717-3.4-10.185-5.2a58.61,58.61,0,0,1-5.248-3.044,18.172,18.172,0,0,1-5.145-4.83,10.117,10.117,0,0,1-1.723-5.74c.028-.5.071-1,.127-1.5.1-.466.214-.923.335-1.382a8.768,8.768,0,0,1,.355-1.081l.344-.93.692-1.858.772-1.821c.5-1.218,1.071-2.41,1.666-3.593a57.231,57.231,0,0,1,4.048-6.873c.822-1.069,1.549-2.187,2.465-3.193l1.323-1.532,1.439-1.443a32.006,32.006,0,0,1,6.518-4.961,30.532,30.532,0,0,1,3.7-1.827,29.473,29.473,0,0,1,3.926-1.228,29.891,29.891,0,0,1,4.011-.678,31.524,31.524,0,0,1,3.991-.051,32.465,32.465,0,0,1,7.578,1.289,46.424,46.424,0,0,1,12.759,6.217,72.72,72.72,0,0,1,9.943,8.259A108.1,108.1,0,0,1,291,219.072c-4.9-3.676-11.548-9.251-18.052-13.784a107.654,107.654,0,0,0-9.282-5.824c-2.8-1.616-5.239-2.669-6.853-3.562a33.728,33.728,0,0,0-6.639-2.548,25.4,25.4,0,0,0-6.818-.711,22.188,22.188,0,0,0-6.588,1.421,23.759,23.759,0,0,0-5.9,3.348,33.214,33.214,0,0,0-4.959,4.732,45.23,45.23,0,0,0-3.97,5.594l-.876,1.468-.795,1.509-.779,1.51-.7,1.544c-.485,1.019-.906,2.059-1.307,3.1-.2.514-.422,1.047-.6,1.544a6.259,6.259,0,0,0-.28,1.293,5.024,5.024,0,0,0,.016,1.245,5.258,5.258,0,0,0,.418,1.179,7.4,7.4,0,0,0,1.705,2.187,27.391,27.391,0,0,0,5.092,3.542c3.7,2.09,7.555,3.918,11.245,5.916a90.975,90.975,0,0,1,10.576,6.506c.835.587,1.624,1.234,2.431,1.845l1.163.976c.383.321.82.683,1,.856a26.778,26.778,0,0,1,2.308,2.252,18.805,18.805,0,0,1,2.376,3.239c.069.138.012-.04-.006-.119l-.071-.282-.138-.555-.253-1.077c-.162-.7-.3-1.383-.409-2.038-.1-.547-.169-1.08-.235-1.6l-.073-.775-.027-.38-.029-.748a32.39,32.39,0,0,1,.5-7.155,19.785,19.785,0,0,1,2.58-6.771,16.812,16.812,0,0,1,4.969-5.094,21.822,21.822,0,0,1,7.8-3.155,42.011,42.011,0,0,1,8.723-.834A80.642,80.642,0,0,1,290.094,219.83Z" transform="matrix(-1, 0, 0, 1, 380, 0)" /><path d="M117.476,218.01a7.843,7.843,0,0,1,1.063-2.517c.427-.621.877-1.391,1.488-2.132a23.225,23.225,0,0,1,2.09-2.259,41.809,41.809,0,0,1,9.83-6.639,56.628,56.628,0,0,1,14.23-5.028,94.378,94.378,0,0,1,15.2-2.037,87.132,87.132,0,0,1,24.914,2.127c7.6,1.847,14.353,4.888,18.435,8.99a67.67,67.67,0,0,0-9.188-2.952c-3.268-.832-6.376-1.373-7.945-1.943a72.938,72.938,0,0,0-18.8-3.446,86.609,86.609,0,0,0-16.955.795,77.946,77.946,0,0,0-14.4,3.552,52.093,52.093,0,0,0-11.485,5.584,41.244,41.244,0,0,0-5.3,4.12c-.4.4-.762.817-1.121,1.194a8.776,8.776,0,0,0-.936,1.092C118.079,217.209,117.676,217.744,117.476,218.01Z" transform="matrix(-1, 0, 0, 1, 380, 0)" /><path d="M157.1,186.89a4.13,4.13,0,0,1-1.784.087c-.48-.03-1.033-.078-1.634-.137s-1.261-.022-1.936-.045l-2.066-.036-2.038.146c-.656.057-1.281.08-1.844.169s-1.064.2-1.48.29c-.734.172-1.484.3-2.234.491l-2.262.623-1.146.3-1.136.379-2.286.744c-.758.264-1.5.588-2.248.872-.743.306-1.506.551-2.217.915-1.438.688-2.891,1.294-4.211,2.081a68.558,68.558,0,0,0-12.651,8.8,61.325,61.325,0,0,0-8.613,9.428,16.5,16.5,0,0,1,.461-3.05c.067-.279.134-.568.217-.851l.312-.822c.218-.55.455-1.1.7-1.644a15.123,15.123,0,0,1,1.681-2.863,8.21,8.21,0,0,1,1.585-1.821,85.667,85.667,0,0,1,20.947-12.235c6.562-2.574,12.748-3.944,18.2-3.654a15.336,15.336,0,0,1,2.194.266,19.415,19.415,0,0,1,2.347.5C155.455,186.286,156.7,186.731,157.1,186.89Z" transform="matrix(-1, 0, 0, 1, 380, 0)" /><path d="M203.771,191.667c.253-.17,1.242.309,2.243,1.074a16.5,16.5,0,0,1,1.488,1.216l1.207,1.037a17.871,17.871,0,0,1,5.284,7.5,17.539,17.539,0,0,1,1.29,7.533,13.59,13.59,0,0,1-1.683,6,13.771,13.771,0,0,1-1.564-2.992,4.281,4.281,0,0,1-.436-2.272,13.031,13.031,0,0,0-1.238-9.894,40.559,40.559,0,0,0-4.69-6.241,10.321,10.321,0,0,1-1.12-1.639C204.181,192.415,203.868,191.861,203.771,191.667Z" transform="matrix(-1, 0, 0, 1, 380, 0)" /><path d="M221.713,178.892c.1-.124.386-.116.788-.023a4.674,4.674,0,0,1,1.438.549,7.546,7.546,0,0,1,1.5,1.016,12.568,12.568,0,0,1,1.143,1.021c.255.241.51.5.764.777.22.29.41.609.61.933a9.624,9.624,0,0,1,.906,2.105,14.514,14.514,0,0,1,.413,4.416,15.046,15.046,0,0,1-5.5,10.982c-.591-2.044-.616-4.58-.034-5.218a10.817,10.817,0,0,0,2.866-8.444,9.194,9.194,0,0,0-.427-1.825,7.284,7.284,0,0,0-.3-.816q-.195-.372-.383-.732c-.232-.487-.6-.852-.841-1.283-.351-.344-.624-.737-.94-1.086a3.574,3.574,0,0,1-.526-.581,5.067,5.067,0,0,0-.575-.721C222.21,179.511,221.835,179.055,221.713,178.892Z" transform="matrix(-1, 0, 0, 1, 380, 0)" /><path d="M264.559,205.049c-.161.09-.64-.042-1.3-.3s-1.492-.667-2.431-1l-1.411-.558c-.477-.177-.966-.313-1.425-.461l-1.3-.39c-.405-.1-.777-.158-1.087-.207l-1.656-.27-1.7-.21c-1.135-.186-2.311-.233-3.471-.36a48.106,48.106,0,0,0-6.9-.026,63.624,63.624,0,0,0-11.07,1.772c-3.417.852-6.449,1.941-8.972,2.832a11.721,11.721,0,0,1,3.119-3.936,10.322,10.322,0,0,1,2.02-1.417,5.95,5.95,0,0,1,1.644-.682,86.241,86.241,0,0,1,17.91-1.228c5.188.269,9.776,1.134,13.376,2.921a17.1,17.1,0,0,1,2.84,1.868C263.618,204.142,264.333,204.817,264.559,205.049Z" transform="matrix(-1, 0, 0, 1, 380, 0)" /><g class="cls-2" transform="matrix(-1, 0, 0, 1, 380, 0)"><path class="cls-3" d="M247.558,206.034c-.382.3-2.119-.172-4.434-.195a16.015,16.015,0,0,0-7.352,1.582l-.021-2.441c1.741.61,3.328,1.225,4.486,1.673a20.655,20.655,0,0,1,4.8,2.556,14.934,14.934,0,0,1,4.142,4.526l3.77,6.439-7.255-2.845a29.423,29.423,0,0,0-13.92-1.893c-.776.085-1.543.213-2.3.351l.789-6.388c.415.2.858.391,1.239.623.143.086.523.312.782.484.27.188.519.4.779.595a20.662,20.662,0,0,1,2.758,2.6c.814.908,1.557,1.821,2.313,2.735.405.466.727.9,1.193,1.389.448.479.832.934,1.421,1.462l-1.411,2.018c-.137.2-.256.385-.332.517s-.121.278-.165.253a3.281,3.281,0,0,0-.712.4,16.784,16.784,0,0,0-1.975,1.589c-.771-.352-1.433-.615-2.136-.918a6.169,6.169,0,0,0-.883-.305l-.805-.242a14.514,14.514,0,0,0-1.46-.345,12.428,12.428,0,0,0-1.334-.218c-.429-.061-.854-.117-1.255-.135l-.7-.062c-.409-.039-.815-.056-1.218-.077l.808-4.516a15.651,15.651,0,0,1,6.96,8.273,39.883,39.883,0,0,0-4.535-2.246,23.059,23.059,0,0,0-4.615-1.337l.954-5.332a16.8,16.8,0,0,1,1.9-.409c.438-.043.27-.083.32-.116a.24.24,0,0,0,0-.087c-.016-.094-.072-.109.039-.008l.016.015a22.744,22.744,0,0,0,2.92,1.645l.247.133c.1.058.055.013.087.022a.1.1,0,0,0,.058-.044.32.32,0,0,0,.024-.207,2.858,2.858,0,0,0-.265-.789,7.1,7.1,0,0,0-.987-1.517,5.884,5.884,0,0,0-.764-.757,2.573,2.573,0,0,0-.218-.172l-.267-.184c-.226-.151-.465-.259-.695-.394l-3.548-2.072,3.871-.543a35.366,35.366,0,0,1,18.842,2.37l-2.119,2.186a13.817,13.817,0,0,0-4.861-4.721,51.691,51.691,0,0,0-5.989-3.041l-4.054-1.846,4.025-1.556a15.862,15.862,0,0,1,2.487-.741,13.792,13.792,0,0,1,10.557,2.265Z" /></g></svg>