<svg xmlns="http://www.w3.org/2000/svg" id="Art" viewBox="0 0 380 600"><defs transform="matrix(-1, 0, 0, 1, 380, 0)"><style>.cls-1{fill:#fff;}.cls-2{opacity:0.35;}.cls-3{fill:#fffffe;}.cls-4{opacity:0.4;}</style></defs><path class="cls-1 color-hair" d="M228,167.46c-21.23-6.37-40.18,3.63-67.35-4.19,9.14,8.37.45,11.46-8.37,12.31-29.42,2.81-30.25,15.64-52.58,19,4.82,2.93,10.89,7.26,20.65,6.14-12.83,3.07-18.89,8.67-22.6,17-3.62,8.13-4.51,13.35-15.1,21.55,24.31,3,40.11-17.68,39.38-25.46,1.45,5.84,2.51,19.25,19.3,26.23-3.5-11.34,2.07-23,3.58-26.79,18,9,35.29.69,35.53-2.28,2.95,5.49,17.68,33.54,49.44,34.09-4.6-5.39-10.74-10.32-12.31-19.48,28.36,10,41.32,28.39,45.78,58.53,8.93-13.39,6.6-37.1,2.29-47.62,4.29-21,19.07-15.56,21.91-15.29C280.72,195.68,256.84,176.12,228,167.46Z" transform="matrix(-1, 0, 0, 1, 380, 0)" style=""></path><path d="M228,167.41a23,23,0,0,1,2.92.67l2.56.71,3.18,1.11a97.32,97.32,0,0,1,17.56,8.31A88.29,88.29,0,0,1,274.58,195a76.3,76.3,0,0,1,8.57,12,69.15,69.15,0,0,1,3.28,6.83c.21.52.56,1.34.85,2.1s.52,1.56.78,2.35l.76,2.37.38,1.19.19.6.1.3s0,.11,0,.14l0,.06c-1-.14-2-.33-3-.48s-2.1-.34-3.16-.44a12,12,0,0,0-1.61-.14h-1.07a14.42,14.42,0,0,0-2.08.26,11.44,11.44,0,0,0-6.83,4.08,22.65,22.65,0,0,0-3.65,7.4c-.16.68-.33,1.35-.49,2l-.17.67a1.1,1.1,0,0,0,0,.16l.06.15.12.3.33.88c.14.35.24.7.35,1.05.21.7.45,1.39.63,2.08a73.24,73.24,0,0,1,2.4,15.87,69.7,69.7,0,0,1-.64,13.39l-.19,1.13c-.11.53-.18,1.07-.3,1.58-.21,1.06-.55,2-.83,3l-.45,1.5a8.13,8.13,0,0,1-.49,1.42c-.37.87-.75,1.74-1.13,2.61s-.83,1.67-1.25,2.51-.83,1.64-1.38,2.56-1,1.8-1.56,2.71c0,.08-.06.1-.07.1l-.06,0-.12.05-.25.11-.49.25c-.28-1.58-.57-3.16-.85-4.75s-.65-3.27-1-4.92-.65-3.36-1-5c-.2-.8-.38-1.61-.61-2.38l-.52-1.79c-.49-1.91-1.23-3.73-1.87-5.59-.29-.94-.74-1.82-1.11-2.73s-.74-1.83-1.19-2.7A56.08,56.08,0,0,0,235,237.57c-.79-.6-1.69-1.07-2.53-1.61s-1.68-1.1-2.59-1.54l-2.67-1.4-.67-.35-.33-.17-.14-.06-.56-.24-1.08-.46-.64-.22-.29-.1-.15,0s0,.1,0,.15a4.12,4.12,0,0,0,.21.65,4.69,4.69,0,0,0,.61,1.11l.35.52.43.58c.14.19.28.39.43.58l.6.75c1.24,1.48,2.57,2.94,3.93,4.4,2.68,3,5,5.65,7.6,8.57l-.62,0-.8,0-1.62-.07-3.22-.13c-2.07-.1-4.1-.16-6.33-.42a56.73,56.73,0,0,1-6.6-1c-.32-.06-.46-.1-.62-.14l-.5-.13-1-.27c-.67-.16-1.33-.36-2-.58a50.08,50.08,0,0,1-7.6-3.06,53.18,53.18,0,0,1-7-4.15,64.62,64.62,0,0,1-12-10.77,77.18,77.18,0,0,1-4.91-6.26c-.76-1.08-1.49-2.18-2.2-3.29l-.9-1.46-.08-.11s0-.06,0,0a.11.11,0,0,1,0,.06c-.27.18.51-.16-1.86,1a32.07,32.07,0,0,1-5,1.82,40.36,40.36,0,0,1-10.11,1.42,41.81,41.81,0,0,1-9.94-1.05,42.51,42.51,0,0,1-4.75-1.4l-.68-.24,0,0-.08,0,0,.08v0l-.09.24-.39,1.07c-.15.41-.27.83-.41,1.24-.27.82-.51,1.64-.73,2.46a37.79,37.79,0,0,0-1,4.94c-.09.82-.19,1.64-.2,2.46,0,.4-.05.81,0,1.21V233a13.14,13.14,0,0,0,.09,1.39,11.08,11.08,0,0,0,.27,1.5l.32,1.54c.22,1,.39,2,.72,3.18l1.7,6.52-5.8-2.67c-2.06-.95-4-1.93-6-2.9-.95-.56-1.86-1.19-2.79-1.78l-1.38-.91-.33-.22-.2-.16-.39-.34-1.58-1.34c-.5-.48-1-1-1.47-1.48a30.27,30.27,0,0,1-4.82-6.76c-.33-.6-.6-1.23-.9-1.85l-.26-.56c0-.06,0,0,0,0h0l-.64.85c-.3.42-.65.83-1,1.25a43.4,43.4,0,0,1-14.88,11.43A39.51,39.51,0,0,1,99,241.89c-1,.31-2,.54-3,.77l-1.54.29a11.33,11.33,0,0,1-1.31.17l-1.37.15a40.09,40.09,0,0,1-5.29.23c-.87,0-1.59-.1-2.4-.15s-1.57-.11-2.34-.19L77,242.71l-4.29-.43,6.43-5.16c1.06-.86,2.2-1.73,3.19-2.58l2.76-2.49,2.1-2.28.94-1.19a28.24,28.24,0,0,0,1.66-2.53,51.54,51.54,0,0,0,2.76-5.81c.9-2.1,1.77-4.28,3-6.57a30.36,30.36,0,0,1,4.49-6.33,29.08,29.08,0,0,1,6-4.9,38.52,38.52,0,0,1,6.69-3.25,59.64,59.64,0,0,1,6.84-2l1.27,7.19a30.56,30.56,0,0,1-6.76,0c-.56-.06-1.12-.14-1.67-.25s-1.1-.21-1.64-.35-1.08-.28-1.6-.45l-.91-.29-1.27-.5c-.41-.17-.85-.32-1.25-.5l-1.18-.57c-.81-.37-1.52-.79-2.26-1.19-1.45-.82-2.79-1.66-4.15-2.5L94,195.15l-2.08-1.29c-.39-.24-.59-.39-.83-.56l-.71-.52,5-.91,5.19-1,2.59-.49.65-.13a5.07,5.07,0,0,0,.5-.14l1-.29,3.83-1.16a59.8,59.8,0,0,0,8.21-4c5.35-3.14,11.2-6.7,17.47-8.63,1.56-.49,3.11-1,4.68-1.32l2.35-.56,2.34-.41,2.34-.4c.78-.11,1.55-.18,2.33-.27l4.51-.47a32.27,32.27,0,0,0,4-.68,13.37,13.37,0,0,0,3.39-1.23,3.82,3.82,0,0,0,.93-.73.72.72,0,0,0,.21-.47v-.07s0,0,0-.07a1.15,1.15,0,0,0-.07-.22l-.14-.24-.26-.48c0-.08-.08-.16-.14-.24l-.23-.28-.46-.55c-.15-.18-.29-.35-.51-.58l-1.24-1.29c-1.82-1.88-4.05-4.1-6.28-6.3l.39.07.24,0,.47.06.47.06.23,0h.74l.08,0,.15-.06,0,0,.22.06.5.13,2,.52c2.67.69,5.21,1.4,7.87,2l1,.24.94.19,1.83.36,1.13.23,1.14.16,2.27.33c.75.12,1.5.21,2.26.26a123.71,123.71,0,0,0,17.93.28c5.9-.24,11.73-.62,17.45-.43a57.48,57.48,0,0,1,16.47,2.69,63.34,63.34,0,0,0-15.41-1.08c-5.53.22-11.36,1.08-17.47,1.81a121.92,121.92,0,0,1-19.13,1.05c-1.64,0-3.29-.21-4.94-.32l-1.24-.11-1.24-.17-1-.09c-.58,0-1.07-.13-1.51-.17-.81-.25.23.46.48.82a4.19,4.19,0,0,1,.46.63,1.41,1.41,0,0,1,.14.31l0,.08v.22a5.31,5.31,0,0,1,0,1.12,6.76,6.76,0,0,1-1.91,3.79,10.85,10.85,0,0,1-2.71,2,22.67,22.67,0,0,1-5.19,1.87,47.57,47.57,0,0,1-4.94.88,72.89,72.89,0,0,0-16.13,3.72A69.59,69.59,0,0,0,124,189.17a70,70,0,0,1-10.75,5.68l-1.46.58-.45.12a3.88,3.88,0,0,1-.69.17l-.61,0c-.05,0-.21,0-.16,0l0,.07.15.18a2.74,2.74,0,0,0,.58.4c-.08,0,.52.17.87.3s.8.21,1.2.33a20.68,20.68,0,0,0,2.43.44,24.32,24.32,0,0,0,4.9.08l1.1,6.24a37.91,37.91,0,0,0-12,4.58,22.79,22.79,0,0,0-8.17,9c-1.94,3.76-3.4,8.23-6,12.39a34.47,34.47,0,0,1-2.08,3l-.57.7-.28.35-.15.17c-.19.19-.42.46-.57.6a22.15,22.15,0,0,1-2.14,1.86l-.53.4s0,0,0,0h.07l.15,0,.29,0a11.18,11.18,0,0,0,1.19.11,15.4,15.4,0,0,0,2.52-.1c.23,0,1.39-.23,2.22-.38s1.76-.4,2.62-.68a32.29,32.29,0,0,0,5-1.92,37.35,37.35,0,0,0,8.91-5.89,36.6,36.6,0,0,0,3.68-3.8c.29-.33.56-.67.83-1l.4-.52c.14-.2.36-.55.54-.81l.56-.85c.19-.29.34-.64.51-1l.5-1c.15-.4.26-.9.39-1.35a6.09,6.09,0,0,0,2.87-2.89,2.26,2.26,0,0,0,.13-1.2c0-.09,0,0,.05.06l.07.14.15.28.31.56a7.05,7.05,0,0,0,.75,1.09,6.11,6.11,0,0,0,1.16,1c.23,1,.45,1.92.71,2.83a23,23,0,0,0,.81,2.65,25.16,25.16,0,0,0,1.59,3.74,24,24,0,0,0,4,5.56c.41.4.76.85,1.2,1.21l1.29,1.11.32.28.24.17.48.34c.31.21.63.47.94.65.62.34,1.2.75,1.85,1l1,.46.24.11.11.05,0-.12-.13-.51a16.28,16.28,0,0,1-.37-2l-.08-1a4.35,4.35,0,0,1,0-.51v-.63a38.3,38.3,0,0,1,.69-7,64.33,64.33,0,0,1,4.83-14.13c1,.46,2,1,3,1.38l1.51.66.39.16.26.09.53.19a32.62,32.62,0,0,0,4.31,1.25,36,36,0,0,0,8.83.87,34.81,34.81,0,0,0,8.65-1.31,26.77,26.77,0,0,0,4-1.49c.33-.14.62-.32.94-.47l.61-.37a1.72,1.72,0,0,1,.32-.18h.37l.37,0h.19l.14-.06.58-.27a7.29,7.29,0,0,0,.94-.57c.19-.17.39-.34.42-.52,0,0,0-.06,0-.06l.07.05.14.11a2.43,2.43,0,0,0,.29.21,7.05,7.05,0,0,0,1.53.73c.44.81.9,1.6,1.36,2.39l.57.95.52.82c.68,1.09,1.41,2.15,2.14,3.21a70.84,70.84,0,0,0,4.74,6,58.55,58.55,0,0,0,11.21,9.94,49.14,49.14,0,0,0,13.15,6.31c.57.2,1.17.32,1.74.49s1.26.34,1.54.38l1.12.23c.36.07.7.11,1,.16.69.12,1.39.16,2.08.23l1,0,.51,0c.07,0,.22,0,.22,0l-.18-.2c-.84-1-1.72-1.85-2.54-2.76-.43-.48-.78-.87-1.22-1.44s-.7-.91-1-1.37-.61-.89-1.1-1.63a26.23,26.23,0,0,1-3.34-8.07l-.49-2-.45-2.12,3.86,1.19L221,225c.33.11.64.18,1,.32l1,.43,4,1.72,1,.43.48.21.36.19,1.44.76c1,.51,1.92,1,2.87,1.53l2.75,1.72,1.38.86,1.3.95,2.61,1.92,2.44,2.1,1.22,1,1.13,1.14c.75.77,1.51,1.52,2.24,2.29l2,2.45c.33.41.69.8,1,1.23l.91,1.29c.61.87,1.24,1.71,1.81,2.59s1.08,1.81,1.62,2.7c.26.46.55.9.79,1.36l.7,1.39,1.39,2.79a84.42,84.42,0,0,1,4.14,11.52l.47,1.65.29,1.3c.21.86.36,1.72.51,2.57l.1.56.05.28a.44.44,0,0,0,0,.13l.08-.13.58-1a18.58,18.58,0,0,0,.88-2.12,18.21,18.21,0,0,0,.6-2.16l.31-1.64c.16-.78.22-1.58.33-2.37a62.06,62.06,0,0,0,.43-9.53,71.38,71.38,0,0,0-.84-9.39,56.25,56.25,0,0,0-2.1-9l-.48-1.3c-.17-.57-.59-1.14-.27-1.74l.72-2.8c.11-.4.19-.81.33-1.21l.45-1.19a23.57,23.57,0,0,1,1-2.35,17.86,17.86,0,0,1,6.72-8,15.43,15.43,0,0,1,5-1.87,16.22,16.22,0,0,1,2.58-.31c.43,0,.85,0,1.27,0l.37,0,.28,0a20.07,20.07,0,0,1,2.4.4c.09,0,.06,0,0-.09l-.05-.15-.09-.32c-.06-.22-.13-.44-.19-.65-.14-.44-.24-.91-.41-1.36l-.83-2.13c-.17-.44-.34-.88-.52-1.33s-.41-.87-.63-1.31l-1.28-2.66c-.43-.89-1-1.73-1.48-2.62a56.22,56.22,0,0,0-3.31-5.16,81.33,81.33,0,0,0-17.36-17.67,101.47,101.47,0,0,0-18.4-11.06c-1.35-.68-2.66-1.22-3.88-1.73s-2.33-1-3.36-1.39Z" transform="matrix(-1, 0, 0, 1, 380, 0)"></path><g class="cls-2" transform="matrix(-1, 0, 0, 1, 380, 0)"><path class="cls-3" d="M130.82,190.59c0,.16-.27.6-.79,1.17s-1.25,1.25-2,2c-.38.36-.78.74-1.15,1.13-.22.22-.29.32-.41.45s-.21.26-.31.38a2.16,2.16,0,0,0-.53,1.12c0,.2.08.43.23.48.36-.29.66-.52.92-.69a5.89,5.89,0,0,1,.75-.46A5,5,0,0,1,128,196c.24-.07.48-.14.73-.19a14.84,14.84,0,0,1,1.48-.28,20.14,20.14,0,0,1,3-.21h.37a4.45,4.45,0,0,1,.58,0l1.26.1c.82.12,1.68.24,2.46.4l4.74,1-2.87,1.46-1.39.7a2.34,2.34,0,0,0-.53.33l-.45.31-.87.63a2.81,2.81,0,0,0-.33.35l-.13.17a4.09,4.09,0,0,0-.42.58,7.69,7.69,0,0,0-1.06,2.69,11.72,11.72,0,0,0-.18,1.45,2.29,2.29,0,0,0,0,.37v.27a.65.65,0,0,0,0,.13,2.36,2.36,0,0,0,0,.4,1.85,1.85,0,0,0,0,.25l.09-.06a2.37,2.37,0,0,1,.42-.17l.33-.14.44-.17a8,8,0,0,1,.87-.23,7.58,7.58,0,0,1,3.14.1,13.13,13.13,0,0,0-2.71,1.39c-.21.15-.4.3-.59.46l-.26.25a1.67,1.67,0,0,1-.14.15,2.76,2.76,0,0,0-.27.23l-.52.63-.58,1c-.48.86-1,1.69-1.41,2.49-.1-.16-.21-.36-.29-.5a.91.91,0,0,1-.17-.31c-.17-.44-.33-.88-.47-1.31a12.64,12.64,0,0,1-.59-2.23l-.15-1.38a3.69,3.69,0,0,1,0-.66c0-.25,0-.3,0-.46a13.92,13.92,0,0,1,.2-1.58,10.9,10.9,0,0,1,.94-2.91,9.13,9.13,0,0,1,1.63-2.44,6.11,6.11,0,0,1,1.19-.87c.18-.1.37-.18.56-.27a2.32,2.32,0,0,0-.46-.14,9.53,9.53,0,0,0-1.09-.19,5.22,5.22,0,0,0-.58-.05l-.29,0h-.42a16,16,0,0,0-1.7,0,15.21,15.21,0,0,0-3.17.56l-.2.06-.27.1-.56.19a8.5,8.5,0,0,0-1.18.54c-.21.11-.39.18-.63.33l-.77.52-1.63,1.09a3.16,3.16,0,0,0-.2-.27l-.22-.07a.22.22,0,0,0-.21,0l-.21.06a15.68,15.68,0,0,1,.46-2.36,7.24,7.24,0,0,1,.46-1.09l.29-.56.39-.56a13,13,0,0,1,1.9-2.09A49.87,49.87,0,0,1,130.82,190.59Z" style=""></path></g><g class="cls-4" transform="matrix(-1, 0, 0, 1, 380, 0)"><path d="M276.9,212.82a2.58,2.58,0,0,1-.78-.83l-.67-.78c-.25-.29-.58-.57-.9-.9a17.15,17.15,0,0,0-2.57-1.9,17.55,17.55,0,0,0-1.58-.88c-.42-.21-.86-.4-1.29-.57a13.36,13.36,0,0,0-1.3-.45l-.65-.18-.16,0-.08,0s-.05,0,0,0l.08.37c.1.47.2.94.31,1.4s.17.75.26,1.12c.37,1.84.73,3.59,1,5.18.18.87.35,1.7.52,2.47.08.4.17.79.25,1.16l.12.56,0,.14s0,0,0,.06l0,.13V219l-3.32-2c-1.2-.72-2.47-1.44-3.67-2l-.9-.41-.44-.2-.29-.11c-.39-.15-.77-.31-1.17-.44-.79-.28-1.59-.53-2.4-.76-.4-.11-.81-.23-1.22-.33l-.3-.07-.15,0h-.07l-.17,0c-.22,0-.41,0-.57,0l-.42,0a.62.62,0,0,0-.16,0h0l.06.05.12.11c.25.23.44.42.58.57l.1.11.06.06.3.47c.41.7.85,1.38,1.21,2.09s.74,1.43,1.09,2.15c.05.11.07.13.15.32l.2.5.39,1c.27.66.55,1.32.74,2l.62,2,.46,1.85c.08.3.17.62.23.91l.15.85c.1.57.22,1.15.3,1.69.32,2.53.56,4.91.86,7.7.21,2,.41,4.06.62,6.06l-3.81-5.57-1.89-2.77-.95-1.38c-.17-.26-.27-.36-.39-.52l-.36-.45-2.82-3.57a8.15,8.15,0,0,0-1.26-1.32l-1.18-1.08-1.17-1.08-.14-.13-.08-.06-.16-.13-.31-.24-1.25-1c-.88-.58-1.71-1.22-2.62-1.75A49.75,49.75,0,0,0,233,216.9a71.66,71.66,0,0,0-21-3.11,33.94,33.94,0,0,1,12.66-3,35.51,35.51,0,0,1,6.71.27c1,.16,1.92.32,2.72.53a19.27,19.27,0,0,1,2.05.66,56.64,56.64,0,0,1,11.79,6.59c.87.65,1.73,1.3,2.54,2l.61.51.28.24.14.15.62.62a29.17,29.17,0,0,1,2.23,2.63c.49.63.95,1.32,1.4,2l.09.13s0,0,0,0v-.3l0-.49c0-.32-.06-.66-.11-1a20.27,20.27,0,0,0-1.09-4.16c-.12-.35-.27-.67-.41-1l-.67-1.45c-.51-1-1-2-1.61-2.88l-.56-.88c-.22-.33-.44-.66-.69-1-.52-.66-.93-1.29-1.54-2-1.12-1.33-2.35-2.73-3.51-4l.16-.29s0-.11.12-.12l.47,0,1.86.13c1.22.1,2.39.19,3.64.37a34.58,34.58,0,0,1,3.81.7c.32.08.68.16.94.24l.68.18c.44.12.88.27,1.32.4.88.29,1.73.6,2.57.93l1.24.53.74.33a14.58,14.58,0,0,1,1.93,1.09l.12.07,0-.15-.05-.3-.11-.6-.15-1-.11-.75c-.11-.7-.22-1.4-.34-2.1l-.16-1-.08-.51,0-.43-.11-1.65-.1-1.28v-.16s.1,0,.15,0l.37.12.73.24c1,.34,2,.71,3,1.15a25.63,25.63,0,0,1,2.93,1.58l.58.39.49.38a11.82,11.82,0,0,1,.95.77,14.1,14.1,0,0,1,2.77,3.23,10.67,10.67,0,0,1,.67,1.39Z"></path></g><g class="cls-2" transform="matrix(-1, 0, 0, 1, 380, 0)"><path class="cls-3" d="M215.07,182.66c.3-.46,3.2-1.06,7-1a55.85,55.85,0,0,1,6.26.35,22.15,22.15,0,0,1,6.59,1.58l1.11.52-.62,1a3.77,3.77,0,0,1-1,1.13c-.28.24-.56.44-.83.64-.55.39-1.07.73-1.56,1.06l-1.41.89c-.27.17-.33.22-.44.3l-.27.2-1,.78-.21.16-.1.07s-.13.05,0,.05a4.58,4.58,0,0,1,.8.14,5.4,5.4,0,0,1,1.14.49s.34.24.56.42l.7.58c.46.4.91.8,1.33,1.21l.64.61.88.91c.71.73,1.37,1.46,2.14,2.22l1.17,1.14,1.38,1.21,2.9,2.54c-.2.08-.48.19-.62.26l-.41.21a4.29,4.29,0,0,1-.72.22l-.82.2-1.52.36-.77.19-.38.09-.49,0-2,.14c-.67,0-1.5-.05-2.24-.07s-1.53,0-2.3-.11l-1.4-.1c-3.34-.25-6.59-.59-9.77-.93s-6.56-.76-9.79-1.19l-1.2-.16-.21,0h0l0,0-.1.94-.07,1.06a38,38,0,0,0,.61,8.53c.12.7.25,1.39.42,2.08l.19.82c.09.33.19.67.3,1,.21.68.41,1.35.62,2,.39,1.32.92,2.7,1.35,4l1.28,3.7c-3.62-1.69-7.29-3.51-10.29-4.8l-1-.45-.69-.32c-.47-.23-.93-.45-1.43-.74a8.67,8.67,0,0,1-2.63-2.25A16.05,16.05,0,0,1,194.5,214c-.42-.82-.8-1.62-1.15-2.4-.7-1.56-1.32-3.05-1.9-4.48,1.17,1,2.45,2.32,3.78,3.73.66.71,1.34,1.44,2,2.13a9.05,9.05,0,0,0,2,1.64,10.47,10.47,0,0,0,2.28.77l.68.17.34.08c.08,0,.08,0,.12,0s.24,0,.27-.07,0-.33-.05-.35,0,0,.09.07.28.06.34-.13c0,0,0,0,0,0s0,0,0-.12l-.09-.5c-.05-.34-.12-.67-.16-1-.09-.68-.2-1.34-.27-2a44.1,44.1,0,0,1-.22-7.94c0-.65.11-1.3.18-1.94l.13-1,0-.25.06-.34.12-.68c.16-.91.39-1.75.6-2.6l.16-.63,0-.16a.86.86,0,0,1,.16,0l.33.05,1.32.18c.83.11,1.8.28,2.52.39l1.74.29,3.43.55c4.53.7,8.9,1.28,13.12,1.7,1,.11,2.09.21,3.13.28l.56.05.47,0c.3,0,.61,0,.9,0a16.15,16.15,0,0,0,1.71,0,2.91,2.91,0,0,0,.79-.14c-.17-.18-.44-.38-.64-.58-.52-.47-1-1-1.43-1.41s-1.12-1.13-1.68-1.68c-.39-.38-.77-.75-1.17-1.1l-.59-.51-.75-.59a5.39,5.39,0,0,0-1.22-.64l-.66-.3a1.68,1.68,0,0,0-.48-.13l-.55-.12-1.1-.23c-.37-.07-.71-.15-1.25-.24l-2.94-.53.81-.68c0-.11,0-.16,0-.25.27-.15.79-.37,1.18-.56l1.27-.6c1.71-.79,3.33-1.57,4.85-2.39l1.84-1,1.36-.79c.45-.26.88-.53,1.27-.8a6.31,6.31,0,0,0,.54-.39l.17-.14h0s-.05,0,0,.06a3,3,0,0,0,.89.54l-.3,1.66a14.59,14.59,0,0,0-3.16-1.12c-2.37-.58-5.76-1.26-8.79-1.69A39.43,39.43,0,0,0,215.07,182.66Z" style=""></path></g><path d="M125.43,207.49c.22.44-.19,1.11-.56,2a6.58,6.58,0,0,0-.68,2.53,43.35,43.35,0,0,0,.37,6.27,41,41,0,0,0,1.15,4.44c.13.35.19.74.34,1.08s.27.7.38,1.07c.26.72.57,1.41.77,2.16a6,6,0,0,1-3.78.55c-1.14-.26-2.07-.83-2.13-1.41a56.38,56.38,0,0,1-.83-10.12c.06-2.76.43-5.35,1.86-7.1a4,4,0,0,1,1.63-1.12A4.22,4.22,0,0,1,125.43,207.49Z" transform="matrix(-1, 0, 0, 1, 380, 0)"></path><path d="M216,216.06c.47.12.62.89.78,1.74a7.13,7.13,0,0,0,.68,2.26c1.14,1.68,1.88,3.44,2.84,5a19.62,19.62,0,0,1,3,8.54,7.93,7.93,0,0,1-3.6.23c-1-.21-1.7-.62-1.74-1.06a23.17,23.17,0,0,0-2.21-8.06c-.95-2.15-1.77-4.27-1.42-6.14A5.46,5.46,0,0,1,216,216.06Z" transform="matrix(-1, 0, 0, 1, 380, 0)"></path></svg>