<svg xmlns="http://www.w3.org/2000/svg" id="Art" viewBox="0 0 380 600"><defs transform="matrix(-1, 0, 0, 1, 380, 0)"><style>.cls-1{fill:#fff;}.cls-2{opacity:0.25;}.cls-3{opacity:0.5;}.cls-4{fill:#fffffe;}</style></defs><path class="cls-1 color-hair" d="M240.85,196.16c40.08-23.66,95.58-.39,99.55,62,1.12,17.62-3.78,34.82-9.54,51.28-5.06,14.42-23.72,41-8,66.57,7.65,12.42,7.51,27.14,4.91,35-6.81,20.65-23.33,23.44-37.56,16.74,6.15-4.12,14.18-11.37,9.16-20.25-4.83-8.55-22.49-9.4-26.52-28.88-7.8-37.7-20.46-36.74-16.64-74.62-.6-21.5,13.53-40.18,11.3-61.67-2.6-15.76-12.77-39-30.91-39.26" transform="matrix(-1, 0, 0, 1, 380, 0)" style=""></path><path d="M236.63,203a14.8,14.8,0,0,1,5.56.46,24.32,24.32,0,0,1,10.4,5.85,45.65,45.65,0,0,1,9.73,13.45,72.09,72.09,0,0,1,6.21,18.63,17.62,17.62,0,0,1,.26,2.62c0,.88.15,1.77.15,2.66-.06,1.75,0,3.54-.22,5.3A72.79,72.79,0,0,1,267,262.49c-1.67,6.86-4,13.44-5.75,19.75a78.25,78.25,0,0,0-3.3,17.93v3.92l0,.34c-.09,1.33-.17,2.63-.26,3.88-.21,2.5-.17,4.82-.21,6.92A70.51,70.51,0,0,0,259,330.35,78.36,78.36,0,0,0,264.26,345c2.2,4.88,4.43,9.95,6.31,15.19.86,2.64,1.8,5.28,2.52,8,.37,1.35.8,2.68,1.12,4.05l1,4.08c.17.67.33,1.39.49,2l.51,1.82a24.42,24.42,0,0,0,1.27,3.51,23.16,23.16,0,0,0,4.09,6.12,32.71,32.71,0,0,0,5.84,4.86c2.2,1.46,4.57,2.78,7,4.31.61.38,1.23.77,1.86,1.22a18.71,18.71,0,0,1,1.86,1.39l.93.76c.3.28.6.6.89.9s.6.61.87.94l.78,1.1a15.58,15.58,0,0,1,2.15,4.77,13.51,13.51,0,0,1,.19,5.41,6.92,6.92,0,0,1-.28,1.31c-.13.43-.23.87-.39,1.28a18.27,18.27,0,0,1-1.07,2.33,22.26,22.26,0,0,1-2.83,4c-.52.58-1.05,1.16-1.61,1.68l-.41.39-.35.3,0,0,0,0,.11,0a1.42,1.42,0,0,0,.22.07l.21.06.1,0h.08l.22,0a31.3,31.3,0,0,0,3.44.59l1.71.07c.29,0,.57,0,.86,0l.84,0a19,19,0,0,0,11.95-4.87,28.7,28.7,0,0,0,7.16-11.37c.19-.54.42-1.09.59-1.62s.32-1,.42-1.58a27.74,27.74,0,0,0,.59-3.32,40.15,40.15,0,0,0,.26-6.85,42.35,42.35,0,0,0-4.88-18.07l-2.55-4.43c-.43-.82-.83-1.65-1.24-2.48s-.73-1.71-1.09-2.56a44,44,0,0,1-2.7-10.75,55.78,55.78,0,0,1,2-21.46A127.25,127.25,0,0,1,322.72,319c1.39-3,2.81-6,4-8.91.31-.74.55-1.41.82-2.17l.81-2.31c.52-1.53,1.06-3.07,1.55-4.6a170.42,170.42,0,0,0,5.06-18.41,99.57,99.57,0,0,0,2.2-18.34,78.25,78.25,0,0,0-.36-9l-.19-2.26-.3-2.24c-.23-1.48-.36-3-.69-4.43a75.69,75.69,0,0,0-13.21-31.76,61.7,61.7,0,0,0-54.59-25.36,65,65,0,0,0-26.41,7.91,63.79,63.79,0,0,1,11.47-6.51,60.45,60.45,0,0,1,14.76-4.21,62.81,62.81,0,0,1,33.5,4.07,63.63,63.63,0,0,1,14.69,8.52A68.57,68.57,0,0,1,327,210a72.53,72.53,0,0,1,7.42,11.32c.86,1.83,1.73,3.52,2.4,5.13s1.24,3.11,1.71,4.47a96.24,96.24,0,0,1,3.88,16.54c.18,1.39.35,2.78.53,4.16s.21,2.77.31,4.15l.15,2.07c0,.69,0,1.39.06,2.08,0,1.39,0,2.78,0,4.16-.32,11-2.66,21.64-5.7,31.65-1.53,5-3.22,9.91-5,14.73-1.92,5-4.25,9.43-6.3,14-4.15,9-7.54,18.25-8.06,27.68a46.64,46.64,0,0,0,.19,7,43.11,43.11,0,0,0,1.38,6.78,40.13,40.13,0,0,0,2.57,6.38c.48,1,1.1,2,1.65,3s1.26,2.11,1.76,3.22a45.63,45.63,0,0,1,2.71,6.76,48.8,48.8,0,0,1,1.6,7,47.28,47.28,0,0,1,.06,14.2,28.66,28.66,0,0,1-1.87,6.86l-.62,1.64c-.2.54-.5,1.06-.74,1.59a28.78,28.78,0,0,1-1.65,3.1,26.85,26.85,0,0,1-9.88,9.86,24.43,24.43,0,0,1-13.47,2.9,25.82,25.82,0,0,1-3.4-.38,15.76,15.76,0,0,1-1.66-.34l-1-.23c-.36-.08-.72-.18-1.08-.29-1.38-.48-2.75-1-4.11-1.49l-2-.85-1-.43-.25-.11s-.1,0-.11,0l0-.06-.06-.25c1.28-.88,2.62-1.83,3.89-2.78a23.16,23.16,0,0,0,1.84-1.46c.3-.25.61-.48.88-.74l.63-.6a18.82,18.82,0,0,0,3.6-4.7,9.25,9.25,0,0,0,1.11-5.29c-.08-.45-.12-.89-.23-1.33l-.43-1.3-.61-1.25c-.22-.4-.51-.74-.75-1.11-2.25-2.87-6-4.79-9.55-7a40.82,40.82,0,0,1-10-7.88,28.36,28.36,0,0,1-6-11.22c-.59-2.08-1-4-1.45-5.87-.23-.95-.45-1.9-.67-2.85l-.78-2.81A150,150,0,0,0,261,348.29c-1.53-3.46-3-7-4.26-10.64a61.18,61.18,0,0,1-2.62-11.15,100.81,100.81,0,0,1,0-22l0-.56v-.54l0-1.37c0-.92,0-1.84.09-2.75.16-1.81.29-3.62.62-5.38a87.66,87.66,0,0,1,2.31-10.33c1.9-6.67,4.21-13,6-19.24.4-1.48.84-3,1.19-4.63s.7-3.28,1-5a49.58,49.58,0,0,0,.66-10.75l0-1.38-.21-1.35c-.16-.93-.33-1.87-.53-2.8-.39-1.87-.86-3.73-1.39-5.57a68.74,68.74,0,0,0-4-10.56,49.22,49.22,0,0,0-5.5-9,30.75,30.75,0,0,0-6.6-6.33,21.86,21.86,0,0,0-6.51-3.12A22.19,22.19,0,0,0,236.63,203Z" transform="matrix(-1, 0, 0, 1, 380, 0)"></path><g class="cls-2" transform="matrix(-1, 0, 0, 1, 380, 0)"><path d="M289.25,332c-11,61.13,19.69,48.93,14.48,80.19-.83,5-3.72-6.7-23.44-20.1-6.59-4.47-7.41-13.41-12.28-29.76-2.79-9.38-18.15-34.18-8.21-35.78"></path></g><g class="cls-3" transform="matrix(-1, 0, 0, 1, 380, 0)"><path class="cls-4" d="M325.28,222.58c-.19,0-.59-.46-1.09-1.14s-1.17-1.57-1.91-2.51c-.34-.48-.77-.93-1.17-1.39s-.79-.92-1.22-1.32a20.74,20.74,0,0,0-2.2-1.95,46.85,46.85,0,0,0-14.51-7.64A44.52,44.52,0,0,0,290,204.69c-4.17,0-7.8.8-10.19,2.71a5.78,5.78,0,0,1,1.18-2.5,9.58,9.58,0,0,1,2.46-2.18,10.22,10.22,0,0,1,5-1.64,54.17,54.17,0,0,1,20.9,5.14,39.86,39.86,0,0,1,7.53,4.57,26.55,26.55,0,0,1,5.43,5.49,17.38,17.38,0,0,1,2,3.53C324.82,221.09,325.17,222.21,325.28,222.58Z" style=""></path></g><path d="M294.5,426.47a6.2,6.2,0,0,1,1.23-.18c.65-.06,1.54-.07,2.59-.22a27.47,27.47,0,0,0,7.61-1.78,16.08,16.08,0,0,0,7-5.31,16.77,16.77,0,0,0,2.85-6.59,31,31,0,0,0,.12-10.05,51.18,51.18,0,0,0-2.53-10.25,62.49,62.49,0,0,0-4.38-9.72c-.43-.77-.88-1.53-1.35-2.27s-.93-1.59-1.39-2.38a21.25,21.25,0,0,1-1.26-2.47,22.14,22.14,0,0,1-1.07-2.52,44.07,44.07,0,0,1-2.67-18.4A60.12,60.12,0,0,1,305,337.16,86.42,86.42,0,0,1,320,312.25c-.79,1.65-1.83,3.61-3,5.67-.54,1.06-1.09,2.16-1.64,3.26s-1.18,2.18-1.67,3.31c-1,2.22-2.09,4.33-2.85,6.24-.41.94-.79,1.81-1.15,2.57s-.59,1.46-.84,2a56.53,56.53,0,0,0-4.4,13.34,51.42,51.42,0,0,0-.89,6.68c0,1.1,0,2.2-.07,3.29s.13,2.16.18,3.24a39,39,0,0,0,3,12,41.91,41.91,0,0,0,2.79,5.26c1.05,1.7,2,3.44,2.83,5.18a54.38,54.38,0,0,1,5.73,21,26.36,26.36,0,0,1-1.39,9.9,18.39,18.39,0,0,1-2.25,4.28,16.25,16.25,0,0,1-3.28,3.34c-.29.22-.59.46-.92.68l-1.05.61a17.5,17.5,0,0,1-2.35,1.09,25,25,0,0,1-2.55.77c-.88.15-1.73.39-2.58.45a35.76,35.76,0,0,1-4.51.22Z" transform="matrix(-1, 0, 0, 1, 380, 0)"></path></svg>