<svg xmlns="http://www.w3.org/2000/svg" id="outfits_3" viewBox="0 0 380 600"><defs transform="matrix(-1, 0, 0, 1, 380, 0)"><style>.cls-1{fill:#ffd635;}.cls-2{opacity:0.3;}.cls-3{opacity:0.5;}.cls-4{fill:#fffffe;}</style></defs><g id="hair_short_parted_brown" transform="matrix(-1, 0, 0, 1, 380, 0)"><path class="cls-1" d="M271.355,224.815c9.918,2.236,25.218,5.137,31.008-4.082-11.776-1.651-29.94-12.6-35.151-23.29,8.724.264,13.737-8.17,13.737-8.17-6.386-1.532-38.083-5.343-43.271-11.113,2.173-.533,11.705-6.261,13.3-7.831-37.029-10.807-117.692-32.842-130.5,19.694-.262,2.678-1.959,4.57-4.689,4.641-13.452,1.77-22.109,20.475-12.945,30.768,10.634-7.34,23.494-11.9,36.62-10.632" /><path d="M139.459,214.861c-.8.3-4.929-.028-10.847.981a56.527,56.527,0,0,0-9.889,2.628,63.253,63.253,0,0,0-10.894,5.246c-.23.13-.453.274-.677.417l-.768.485c-.6.369-1.217.8-1.8,1.149l-1.789,1.106c-.333.391-.514-.159-.751-.37-.225-.274-.461-.544-.677-.823a16.78,16.78,0,0,1-1.235-1.741c-.186-.312-.387-.615-.562-.936-.164-.3-.341-.711-.477-.991a16.278,16.278,0,0,1-1.1-3.446,21.516,21.516,0,0,1,2.019-13.62,23.325,23.325,0,0,1,8.364-9.445,19.23,19.23,0,0,1,5.192-2.3,11.509,11.509,0,0,1,1.291-.3l.645-.125.582-.063a2.707,2.707,0,0,0,1.15-.463,2.783,2.783,0,0,0,1.032-1.765l.049-.3.052-.475c.087-.47.177-.708.254-1.03l.489-1.849.5-1.859a18.39,18.39,0,0,1,.648-1.827c.486-1.2.882-2.453,1.459-3.634a39.3,39.3,0,0,1,9.5-12.879,46.574,46.574,0,0,1,13.916-8.491,67.557,67.557,0,0,1,15.728-4.1,114.62,114.62,0,0,1,16.067-1.084c5.341.028,10.642.366,15.885.878a265.462,265.462,0,0,1,30.52,5.13c4.769,1.058,9.494,2.239,14.182,3.466l3.507.936,4.317,1.2,13.709,3.947-4.481,3.972a34.948,34.948,0,0,1-5.439,4.025l-1.565.975-.835.5c-.4.242-.231.138-.27.161h-.013c-.013,0-.013.006-.012.014.2.056-.758-.2,1.758.566,3.528,1.035,7.193,1.881,10.853,2.646s7.336,1.45,10.992,2.11l6.789,1.206,2.608.479,2.5.534,4.789,1.1-.346.629c-.1.2-.295.48-.433.709l-.879,1.391c-.582.907-1.125,1.8-1.775,2.7a23.009,23.009,0,0,1-5.11,5.1c-.254.19-.5.389-.764.567l-.741.455a11.292,11.292,0,0,1-1.085.6l-1.123.542-.59.223a1.011,1.011,0,0,1-.139.05l-.044.008a2.182,2.182,0,0,1-.577.051c-.246-.058-.11.106-.078.218s.12.236.188.369l.112.172.024.038.171.217c.135.161.25.333.4.486.585.62,1.143,1.257,1.739,1.864a54.319,54.319,0,0,0,7.9,6.494A66.85,66.85,0,0,0,292.2,214.7c.738.346,1.464.719,2.21,1.011l1.109.465a13.787,13.787,0,0,0,2,.663l2.063.6a20.28,20.28,0,0,0,2.119.545l4.342.922-.127.789-.05.387-.511.659-1.035,1.317c-.343.44-.681.788-1.019,1.182a15.592,15.592,0,0,1-5.032,3.864c-1.06.432-2.173.83-3.234,1.166l-1.294.256a9.98,9.98,0,0,1-1.215.192,31.156,31.156,0,0,1-4.722.207,71.593,71.593,0,0,1-16.694-2.992c4.65.262,10.328.784,16.221.212l1.1-.114,1.1-.18a19.84,19.84,0,0,0,2.168-.447,18.673,18.673,0,0,0,2.088-.632,9.513,9.513,0,0,0,1.222-.608,4.446,4.446,0,0,0,1.485-1.466,2.249,2.249,0,0,0,.3-.759.728.728,0,0,0,.034-.171l-.326-.023-.61-.038c-.942-.071-1.652-.164-2.179-.222-.067-.019.022.029-.091-.01l-.363-.116-.725-.232c-.479-.162-.973-.3-1.436-.483-.933-.359-1.877-.693-2.785-1.076a62.245,62.245,0,0,1-10-5.242,54.553,54.553,0,0,1-7.8-6.062l-1.53-1.57c-.24-.26-.49-.492-.707-.764l-.806-.977a28.558,28.558,0,0,1-3.334-5.094c-.613-1.049-1.185-2.166-1.75-3.223l-.822-1.554L261,193.891l5.242-.09,2.423-.134a10.707,10.707,0,0,0,1.166-.095c.323-.091.679-.153.972-.267l.4-.145.186-.059a2.1,2.1,0,0,0,.368-.138l.731-.32c.124-.05.238-.129.358-.191a2.2,2.2,0,0,1,.271-.141c.066-.021.1-.034.154-.056a2.961,2.961,0,0,0,.664-.39,4.543,4.543,0,0,0,.363-.306c.1-.1.342-.284.155-.292a10.15,10.15,0,0,0-1.181-.408l-.186-.055c-.052-.012-.02-.01-.141-.035l-.36-.071-1.436-.287-2.87-.574c-3.82-.768-7.611-1.558-11.356-2.423s-7.448-1.8-11.1-2.978c-.475-.152-.868-.281-1.409-.473-.688-.227-1.343-.475-1.986-.74a20.215,20.215,0,0,1-1.871-.814l-.89-.431-.788-.473a10.816,10.816,0,0,1-1.416-.983c-.442-.337-.845-.681-1.269-1.039s-.835-.743-1.264-1.178a1.027,1.027,0,0,1-.141-.148l.037-.073c.024-.05.051-.095.072-.148l.045-.41,5.156-2.609c1.836-.945,3.174-1.719,3.52-1.912.588-.337,1.181-.688,1.769-1.058.293-.187.586-.378.872-.579.141-.1.286-.2.418-.318.028-.027.08-.059.089-.081l-.114-.036-.229-.072-3.681-1.136L239.9,168.9l-3.276-.921c-4.359-1.211-8.679-2.345-12.969-3.365-8.574-2.068-17.02-3.718-25.314-4.865a156.481,156.481,0,0,0-24.356-1.63,106.72,106.72,0,0,0-11.653.813,72.893,72.893,0,0,0-11.04,2.349,43.45,43.45,0,0,0-18.408,10.357,38.35,38.35,0,0,0-9.775,17.257l-.346,1.181a4.181,4.181,0,0,0-.126.46l-.037.29c-.02.14-.054.282-.082.422a7.407,7.407,0,0,1-1.54,3.254,6.62,6.62,0,0,1-3.152,2.077,7.51,7.51,0,0,1-.89.2l-.443.065-.369.026c-.057-.006-.286.047-.451.072l-.534.092a15.92,15.92,0,0,0-7.59,4.039,19.957,19.957,0,0,0-6.408,15.351,15.2,15.2,0,0,0,.454,2.671c.095.461.283.9.424,1.359l.212.514a3.183,3.183,0,0,0,.181.4,7.128,7.128,0,0,0,.452.81,4.127,4.127,0,0,0,.273.4l.146.2c.049.068.094.168.166.085.532-.309,1.086-.64,1.719-.967a60.525,60.525,0,0,1,13.836-5.746A51.091,51.091,0,0,1,131.8,214.3,46.068,46.068,0,0,1,139.459,214.861Z" /><path class="cls-1" d="M138.266,205.082c6.192-48.862,108.121-29.019,141.577-24.161-38.824,21.332-95.558,52.006-140.378,33.879" /><path d="M139.477,214.771c.653.028,3.684,1.213,8.316,2.4a87,87,0,0,0,17.654,2.434,107.176,107.176,0,0,0,20.514-1.412,140.294,140.294,0,0,0,16.438-3.717,264.9,264.9,0,0,0,38.721-15.278c6.45-3.081,12.861-6.349,19.176-9.717q4.735-2.528,9.406-5.091l4.1-2.263.266-.177-.212-.017-.088-.007-.04,0h-.018l-.17-.024-5.751-.862c-13.586-2.043-27.1-3.9-40.325-5.064a259.327,259.327,0,0,0-38.423-.912,119.607,119.607,0,0,0-17.713,2.324,62,62,0,0,0-15.705,5.4A33.046,33.046,0,0,0,144,192.4a29.2,29.2,0,0,0-5.166,12.75,30.947,30.947,0,0,1,.913-6.552,27.128,27.128,0,0,1,3.034-7.1,33.81,33.81,0,0,1,12.4-11.552A60.658,60.658,0,0,1,170.15,174.1a76.947,76.947,0,0,1,11.506-2.058,196.71,196.71,0,0,1,26.785-.5c8.673.371,17.087,1.11,25.256,2.022s16.1,2.008,23.794,3.155l11.382,1.75,5.7.89,7.629,1.142-8.99,4.943-6.9,3.746q-6.853,3.683-13.518,7.086c-8.9,4.514-17.592,8.582-26.134,12.07a204.094,204.094,0,0,1-25.185,8.549,126.625,126.625,0,0,1-24.2,4.1l-2.465.16-2.648.049c-1.814.067-3.723-.041-5.667-.1-.973-.013-1.951-.144-2.934-.218-.981-.1-1.97-.147-2.945-.3-1.952-.295-3.9-.515-5.743-.942l-2.721-.567-2.551-.684c-1.658-.4-3.151-.956-4.494-1.4-1.353-.422-2.5-.922-3.446-1.312Z" /><path d="M118.619,199.079c.312.113.381.891.456,1.771a10.211,10.211,0,0,0,.384,2.388,24.755,24.755,0,0,0,2.379,5.161c1.67,2.488,4.079,4.743,5.463,6.938-1.734.866-4.227.557-4.652-.22l-2.358-3.913a32.916,32.916,0,0,1-1.761-3.451,11.647,11.647,0,0,1-1.109-6.175A6.5,6.5,0,0,1,118.619,199.079Z" /><path class="cls-1" d="M172.185,219.686c40.021,1.991,82.673-41.748,123.392-21.629-51.637,5.338-47.451,71.676-109.363,21.713" /><path d="M186.233,219.746c1.075.275,8.6,6.759,18.632,12.027,4.977,2.636,10.652,4.873,16.049,5.474a24.9,24.9,0,0,0,3.928.188,11.316,11.316,0,0,0,1.856-.143l1.77-.207c1.122-.3,2.2-.5,3.177-.826.956-.378,1.864-.672,2.649-1.041,5.581-2.614,10.412-7.018,15.142-11.694A203.886,203.886,0,0,1,264.4,209.43a61.276,61.276,0,0,1,18.322-10.4,48.326,48.326,0,0,1,5.058-1.478l.584-.137.045-.013.083-.027.14-.035a.346.346,0,0,0,.092-.03l-.163-.055a1.161,1.161,0,0,0-.13-.037.116.116,0,0,0-.038-.005h-.012l-.123-.042-.28-.1c-1.307-.448-2.667-.715-3.994-1.086-1.347-.291-2.713-.5-4.065-.746-1.374-.124-2.738-.308-4.111-.389-1.379-.018-2.749-.142-4.126-.079a75.836,75.836,0,0,0-16.285,2.207c-10.648,2.562-20.7,6.644-30.324,10.457-9.622,3.845-18.881,7.517-27.822,9.923a88.989,88.989,0,0,1-13.049,2.62,64.132,64.132,0,0,1-12.047.274,87.7,87.7,0,0,0,11.866-1.781,109.676,109.676,0,0,0,13.21-3.926c8.676-3.118,16.648-6.713,20.979-8.3,8.692-3.242,17.115-6.59,25.522-9.236,4.206-1.312,8.391-2.493,12.589-3.365a86.019,86.019,0,0,1,12.552-1.672,60.528,60.528,0,0,1,12.273.669l2.969.554c.973.239,1.935.512,2.9.764.477.139.967.233,1.431.408l1.626.576c1.33.459,2.406.892,3.613,1.431l3.531,1.575c.27.127.637.268.827.385l-.92.154-1.835.307-3.686.624c-.677.121-1.361.237-1.976.393l-1.545.355-1.343.308-1.307.415-2.6.827c-.845.321-1.674.678-2.506,1.013l-1.243.508c-.411.176-.8.393-1.2.587l-2.379,1.19-2.277,1.335-1.129.667-1.083.733-2.149,1.463a95.627,95.627,0,0,0-7.875,6.5c-4.974,4.519-9.4,9.338-14.2,13.569a51.147,51.147,0,0,1-7.581,5.725c-.686.387-1.323.847-2.042,1.167l-2.113,1.016c-.716.308-1.463.539-2.189.807-.367.124-.725.274-1.1.373l-1.129.26a22.088,22.088,0,0,1-2.252.46l-2.268.23a15.538,15.538,0,0,1-2.252.021,20.523,20.523,0,0,1-2.226-.107,36.924,36.924,0,0,1-8.4-1.96,35.6,35.6,0,0,1-4.007-1.611c-1.365-.683-2.858-1.29-4.243-2.156l-2.129-1.239c-.716-.412-1.43-.829-2.1-1.306l-4.021-2.727C191.645,224.494,187.588,220.894,186.233,219.746Z" /><g class="cls-2"><path d="M257.585,211.865c.012.336-.509.807-1.349,1.36A24.067,24.067,0,0,1,252.954,215c-1.271.623-2.662,1.2-3.934,1.735-1.265.562-2.426,1.024-3.232,1.45a51.477,51.477,0,0,1-9.371,3.688,97.776,97.776,0,0,1-9.972,2.251,64.376,64.376,0,0,1-16.665.8,44.662,44.662,0,0,1-13.422-3.111,24,24,0,0,1,6.589-3.43c2.259-.778,4.323-1.2,5.409-.885a49.223,49.223,0,0,0,23.668.23c6.83-1.508,12.439-3.76,17.574-4.969a25.18,25.18,0,0,1,4.531-.669C255.694,211.926,257.108,211.863,257.585,211.865Z" /></g><path class="cls-1" d="M239.828,220.96c21.56-27.645,51.807-5.316,64.28-21.821-.017,16.585-45.953,60.454-74.942,36.909" /><path d="M229.185,236.024a6.728,6.728,0,0,1,1.345.723,26.7,26.7,0,0,0,2.747,1.629,29,29,0,0,0,9.04,3.221,33.772,33.772,0,0,0,11.04.117,44.114,44.114,0,0,0,8.768-2.355,77.36,77.36,0,0,0,21.7-13.543,85.254,85.254,0,0,0,9.265-9.349,53.3,53.3,0,0,0,7.061-10.514c.191-.34.353-.778.476-1.057a.058.058,0,0,1,0-.019c0-.018,0-.028-.009-.033s-.028.007-.039.028l-.008.013s-.006,0,.006,0l-.982.557a22.366,22.366,0,0,1-5.1,1.732,46.255,46.255,0,0,1-10.014.772c-6.439-.1-12.481-.537-18.162.006a38.307,38.307,0,0,0-15.29,4.452,41.691,41.691,0,0,0-10.754,8.908c.543-.949,1.137-2.042,1.888-3.137a32.581,32.581,0,0,1,9.827-9.313,33.617,33.617,0,0,1,14.684-4.593c6.852-.356,13.272.413,19.372.513a36.593,36.593,0,0,0,8.8-.763c.691-.167,1.364-.384,2.029-.607a15.46,15.46,0,0,0,1.9-.853l.512-.28a6.511,6.511,0,0,0,.693-.438l1.4-1.255.691-.617c.228-.2.51-.544.761-.806l1.53-1.67c.038.052.077.213.116.173l.116-.012.237-.032a1.174,1.174,0,0,1,.237-.03l-.083.922a29.043,29.043,0,0,1-.485,3.443,25.619,25.619,0,0,1-1.151,3.526l-.35.8c-.1.216-.183.443-.3.651l-.661,1.256a56.588,56.588,0,0,1-6.211,9.04,87.288,87.288,0,0,1-7.121,7.613,95.969,95.969,0,0,1-7.591,6.412,78.769,78.769,0,0,1-7.9,5.237c-1.314.814-2.7,1.458-4.032,2.177-1.381.611-2.708,1.3-4.1,1.81l-2.053.8c-.69.24-1.387.446-2.074.667-1.364.475-2.774.745-4.141,1.087a37.523,37.523,0,0,1-8.223.8,19.384,19.384,0,0,1-2.845-.162,22.385,22.385,0,0,1-3.114-.512,22.127,22.127,0,0,1-3.155-.895,20.884,20.884,0,0,1-2.979-1.229,31.888,31.888,0,0,1-4.777-2.87Z" /><path class="cls-1" d="M253.043,241.385a19.481,19.481,0,0,0,20.269-11.426c10.109,13.534-12.522,23.107-21.2,11.875" /><path d="M252.138,241.816c.423-.02,1.968,1.844,4.436,2.921a12.522,12.522,0,0,0,3.873,1.079,11.95,11.95,0,0,0,3.28-.066,15.065,15.065,0,0,0,7.928-3.8,7.884,7.884,0,0,0,2.122-3.469,6.744,6.744,0,0,0-.163-3.8c-.306-.953-.234-.553-.256-.633a.025.025,0,0,0-.013.023h0l0,0c0-.006-.015.016.01-.018l-.284.393-.572.777-.627.721a15.579,15.579,0,0,1-1.317,1.351,20.041,20.041,0,0,1-5.989,3.85,17.681,17.681,0,0,1-11.6.809,50.008,50.008,0,0,0,6.107-2.159c1.978-.891,3.641-1.853,4.6-2.234a15.857,15.857,0,0,0,5.193-3.081,16.083,16.083,0,0,0,2.009-2.176,41.108,41.108,0,0,0,2.234-4l.186.054a3.3,3.3,0,0,1,.218.324l.436.677c.29.446.579.88.819,1.324s.51.861.731,1.31c.206.406.432,1.046.554,1.334a10.18,10.18,0,0,1,.493,4.545,9.4,9.4,0,0,1-1.585,4.086,12.353,12.353,0,0,1-2.895,2.952,15.9,15.9,0,0,1-7,2.813,14.3,14.3,0,0,1-6.807-.571,10.676,10.676,0,0,1-4.1-2.58,11.705,11.705,0,0,1-1.37-1.657C252.464,242.4,252.243,242.009,252.138,241.816Z" /><g class="cls-3"><path class="cls-4" d="M214.517,167.516c-.532.17-2.8-.395-6.181-1.03s-7.865-1.353-12.713-1.79a121.572,121.572,0,0,0-14.78-.474,86.036,86.036,0,0,0-12,1.117c-7.454,1.328-15.256,3.329-22.014,7.059a27.694,27.694,0,0,0-8.586,7.019,18.623,18.623,0,0,0-3.816,9.607l-6.106-2.886a35.066,35.066,0,0,1,9.355-6.971c.424-.225.863-.418,1.293-.626.218-.1.431-.21.653-.3l.775-.321a21.731,21.731,0,0,1,2.317-.817c.764-.219,1.56-.541,2.3-.676l2.244-.5,2.124-.313c1.363-.149,2.669-.233,3.954-.3l5.911-.287,4.563-.187-4.83,4.223c-1.452,1.273-3,2.607-4.113,3.643l-.909.828c-.282.268-.438.491-.663.738-.395.479-.887.976-1.2,1.441l-.957,1.394c-.285.453-.5.879-.748,1.32l-.182.328-.084.153-.036.077-.141.3c-.094.2-.193.405-.274.613-.179.41-.336.827-.488,1.245a22.5,22.5,0,0,0-.722,2.552l-6.311-4.033c2.289-1.7,4.53-2.807,6.326-3.917a19,19,0,0,0,2.373-1.66c.09-.068.533-.46.883-.714a12.084,12.084,0,0,1,1.109-.721,14.936,14.936,0,0,1,2.125-.989,41,41,0,0,1,14.712-2.548l10.13.125-7.684,6.456c-.609.511-1.211,1.026-1.777,1.576l-.426.41-.207.21c-.061.062-.03.025-.05.042l-.1.072a3.843,3.843,0,0,0-.517.474c-.308.317-1.244,1.525-.555,1.081.259-.063.624-.136,1.112-.2l.389-.05a1.946,1.946,0,0,1,.194-.021l.729-.149.4-.084c.164-.039.386-.079.587-.111l1.219-.205,1.2-.2,1.157-.119a41.077,41.077,0,0,1,7.972-.088c1.158.089,2.262.175,3.384.286l1.668.169.831.092.409.045c.1.029.092.094.141.139-2.775,2.524-5.086,4.528-7.4,6.349a56.788,56.788,0,0,1-6.822,4.573,32.42,32.42,0,0,0,3.684-4.436,4.414,4.414,0,0,0,.989-2.781l-.011-.044c0-.018,0-.031-.094-.012l-.405.061-.772.121c-.5.075-.964.176-1.4.261-.867.181-1.606.371-2.227.565a9.368,9.368,0,0,0-2.447,1.055l-.15.108c-.071.041-.02.052-.206.124l-.646.234c-.108.038-.173.068-.476.154-.222.074-.434.145-.654.232l-2.633,1c-.912.4-1.856.864-2.782,1.292-3.923,2.089-8.933,5.163-13.428,7.741l.405-1.1q.2-.528.4-1.033.242-.6.459-1.153.429-1.015.81-1.918c.285-.637.55-1.233.8-1.783.884-1.893,1.65-3.591,2.526-5.33a41.688,41.688,0,0,1,3.215-5.273l.972-1.3,1.046-1.276,1.1-1.226q.272-.306.557-.6l.519-.513q1.442-1.358,2.967-2.533l1.932,5.2a33.491,33.491,0,0,0-6.621.3c-1.09.158-2.17.364-3.232.627a31.365,31.365,0,0,0-3.065.905,7.442,7.442,0,0,0-1.183.558,5.573,5.573,0,0,0-.484.333c-.226.176-.5.4-.748.587a28.2,28.2,0,0,1-3.1,1.984c-2.047,1.147-3.984,2.094-5.618,3.249l-4.066,2.876,1.146-4.742a27.828,27.828,0,0,1,1.04-3.359c.206-.544.432-1.077.673-1.6.113-.265.25-.519.374-.778l.19-.384.125-.222a15.62,15.62,0,0,1,2.244-3.089c.255-.277.521-.547.8-.8.14-.129.276-.261.422-.382l.216-.185.108-.093c.009-.02-.073,0-.1-.008a16.585,16.585,0,0,0-2.126.141,18.354,18.354,0,0,0-4.177,1.051l-.545.22c-.257.1-.513.2-.76.323-.5.235-1,.448-1.483.712a27.033,27.033,0,0,0-2.811,1.644,28.775,28.775,0,0,0-4.9,4.073L128.8,193.1l.492-4.643a23.406,23.406,0,0,1,3.237-9.674,27.3,27.3,0,0,1,6.587-7.279,38.656,38.656,0,0,1,8.017-4.778,56.393,56.393,0,0,1,8.36-3.051,84.451,84.451,0,0,1,16.443-2.868,102.441,102.441,0,0,1,15.445-.038,82.908,82.908,0,0,1,16.09,2.768A67.493,67.493,0,0,1,214.517,167.516Z" /></g><g class="cls-2"><path d="M293.682,209.865c.251.222.218.978,0,2.076a15.338,15.338,0,0,1-.6,1.812,18.54,18.54,0,0,1-1.029,2.043,18.016,18.016,0,0,1-3.158,3.794,18.607,18.607,0,0,1-1.721,1.453c-.535.454-1.053.784-1.468,1.109a29.211,29.211,0,0,1-10.33,4.589c-3.65.948-7.3,1.546-10.635,2.195a136.358,136.358,0,0,0-16.087,3.638,55.038,55.038,0,0,0-12.166,5.729,13.119,13.119,0,0,1,2.568-7.588c1.633-2.3,3.766-3.963,5.106-4.247a76.409,76.409,0,0,1,7.634-1.409c2.408-.353,4.7-.61,6.889-.856,4.384-.5,8.413-.977,12.125-1.669a52.456,52.456,0,0,0,9.951-2.731,29.691,29.691,0,0,0,3.948-1.9c.565-.382,1.177-.689,1.684-1.1l.8-.561.739-.609c.483-.371.975-.884,1.61-1.357l.879-.815a8.451,8.451,0,0,0,.877-.855C292.454,211.459,293.311,210.235,293.682,209.865Z" /></g><g class="cls-2"><path d="M258.584,187.977c-.076.36-.986.93-2.395,1.626a54.562,54.562,0,0,1-5.452,2.119c-4.209,1.41-9.1,2.567-11.786,3.419-9.5,3.046-20.7,4.521-30.4,6.537a191.822,191.822,0,0,0-23.909,6.217A94.717,94.717,0,0,0,174.63,212c-.781.345-1.5.749-2.238,1.115s-1.454.72-2.032,1.074a8.022,8.022,0,0,0-1.513,1.115,2.837,2.837,0,0,0-.813,1.307,2.7,2.7,0,0,1-.578-2.077,6.885,6.885,0,0,1,.94-2.656,14.3,14.3,0,0,1,.81-1.257q.423-.579.875-1.153a22.507,22.507,0,0,1,1.92-2.2c2.686-2.784,5.759-4.792,7.585-5.272a203.166,203.166,0,0,1,20.4-4.38c6.309-1.1,12.2-1.994,17.694-2.91s10.605-1.83,15.352-2.725,9.122-1.774,13.234-2.485c1.942-.388,4.654-.672,7.072-.942S257.87,188.023,258.584,187.977Z" /></g></g></svg>