<svg xmlns="http://www.w3.org/2000/svg" viewBox="0 0 380 600"><defs transform="matrix(-1, 0, 0, 1, 380, 0)"><style>.cls-1{isolation:isolate;}.cls-2{fill:blue;}.cls-3{mix-blend-mode:multiply;}.cls-4{opacity:0.3;}</style></defs><g class="cls-1" transform="matrix(-1, 0, 0, 1, 380, 0)"><g id="outfits_3"><path class="cls-2 color-hair" d="M164.556,172.7s5.724,7.535,4.539,9.669a66.547,66.547,0,0,1-16.749-5.983,66.986,66.986,0,0,0,2.644,6.994c-20.5,1.111-44.641,12.626-53.785,28.019-1.163,1.873-8.375,13.979-6.51,20.4,2.387-4.34,4.628-9.94,14.812-19.088l.094,4.405c25.191-22.611,53.041-31.678,84.894-29.886C190.712,177.675,164.556,172.7,164.556,172.7Z" /><path d="M164.562,172.672a43.456,43.456,0,0,1,7.724,1.487c2.111.54,4.546,1.242,7.157,2.153a54.562,54.562,0,0,1,8.149,3.545,26,26,0,0,1,3.993,2.646c.162.122.309.269.464.4l.512.46c.363.373.7.763,1.058,1.147.283.4.583.8.841,1.214.23.427.485.808.695,1.275l.327.678c.131.162-.09.1-.181.12l-.344.016-1.378.067c-.427.04-1,0-1.522-.009l-1.593-.046c-1.578-.068-3.085-.035-4.584,0-2.987,0-5.822.242-8.394.409-2.563.274-4.864.524-6.767.829a109.722,109.722,0,0,0-33.652,10.981,112.068,112.068,0,0,0-15.527,9.675c-1.258.866-2.435,1.84-3.631,2.783s-2.406,1.864-3.532,2.886l-6.276,5.424-.209.181c-.05.062-.037-.014-.04-.055l0-.133-.013-.535-.026-1.072-.052-2.145-.1-4.3,3.093,1.34a66.916,66.916,0,0,0-9.408,10.265,66.034,66.034,0,0,0-4.912,8.4l-2.344,4.434L92.8,232.351a14.441,14.441,0,0,1,.064-6.788,35.061,35.061,0,0,1,1.883-5.875c.761-1.868,1.617-3.665,2.535-5.412a50.206,50.206,0,0,1,3.009-5.1,43.257,43.257,0,0,1,3.592-4.733,54.73,54.73,0,0,1,4.139-4.084c1.395-1.327,2.945-2.422,4.415-3.6,1.56-1.04,3.047-2.171,4.647-3.078l2.354-1.409,2.4-1.272,1.19-.629,1.213-.565,2.407-1.118a87.077,87.077,0,0,1,9.67-3.518l2.392-.7,2.39-.573c1.575-.409,3.159-.673,4.712-.956,1.545-.316,3.1-.427,4.615-.641.378-.055.757-.086,1.136-.107l.56-.037.162,0,.677-.014c-.08-.224-.155-.432-.226-.628l-.014-.039.021.046-.128-.332c-.1-.266-.2-.529-.294-.787l-.518-1.5c-.306-.948-.6-1.851-.879-2.727-.136-.433-.271-.859-.405-1.281a3.308,3.308,0,0,1-.259-1.072l4.029,2.186c.635.327,1.229.6,1.823.89l1.441.643c1.4.608,2.733,1.136,4.007,1.613s2.491.9,3.671,1.274l1.469.451q.476.15.991.278c.465.265.492-.3.449-.577a4,4,0,0,0-.238-.932c-.06-.158-.1-.276-.184-.459l-.309-.662c-.21-.433-.429-.848-.649-1.246-.885-1.593-1.765-2.962-2.651-4.246a38.474,38.474,0,0,1,3.382,4.126,16.637,16.637,0,0,1,1.588,2.686,5.5,5.5,0,0,1,.489,1.712,2.7,2.7,0,0,1-.077.89l-.078.222c-.046.033-.11.026-.163.043l-.334.073a59.173,59.173,0,0,1-8.782-1.931c-.695-.207-1.391-.421-2.084-.649l-1.959-.671-1.128-.307-.042-.011c0,.006.022.051.031.073l.077.16.143.287c.091.176.172.324.245.446l.1.165.025.035.2.465.36.811q.728,1.647,1.436,3.254l-4.647.471-1.4.152c-.386.046-.766.125-1.141.184-1.5.259-2.932.454-4.248.769-2.649.51-4.874,1.135-6.578,1.515a80.342,80.342,0,0,0-16.666,6.24,62.87,62.87,0,0,0-14.1,9.628,44.947,44.947,0,0,0-9.594,13.137,45.935,45.935,0,0,0-3.035,7.289,14.088,14.088,0,0,0-.661,7.263l-1.489-.164c1.005-1.834,1.977-3.743,3.087-5.547a49.3,49.3,0,0,1,3.63-5.12,76.943,76.943,0,0,1,8.291-8.6l1.244-1.133.041,1.69q.025,1.107.053,2.2l.013.544c.12-.082.266-.225.4-.333l.805-.7,2.129-1.842,2.688-2.131c.9-.7,1.77-1.422,2.679-2.087l2.736-1.956c1.787-1.337,3.678-2.484,5.51-3.679a106.923,106.923,0,0,1,45.341-16.008c3.7-.435,7.336-.645,10.9-.742l5.3,0,3.372.167.27.013-.106-.24a3.247,3.247,0,0,0-.257-.481,6.115,6.115,0,0,0-.727-.935c-.082-.09-.121-.121-.278-.271l-.425-.4-.926-.767c-.647-.494-1.329-.975-2.043-1.434a55.345,55.345,0,0,0-9.3-4.553A116.978,116.978,0,0,0,164.562,172.672Z" /><path class="cls-2 color-hair" d="M258.331,194.394c1.44-1.468,6.449-8.235,6.2-8.578-.861-1.177-20.362,3.145-21.388,3.022-.892-.107-15.826-1.847-27.761,1.591,0,0,8.724,1.479,14.491,8.133,14.021,16.178-.987,25.443-7.893,35.9A92.3,92.3,0,0,0,232.04,231.5s-9.563,10.991-8.718,14.89l6.5.708a22.34,22.34,0,0,0-.473,10.814,21.152,21.152,0,0,0,9.989-5.5c2.8,3.559,6.784,3.409,11.05,4.933-3.284-23.076,18.09-42.779,40.649-36.9C282.752,209.452,271.529,198.336,258.331,194.394Z" /><path d="M258.34,194.364a22.941,22.941,0,0,1,4.587,1.39,48.568,48.568,0,0,1,9.057,4.9,71.448,71.448,0,0,1,10.356,8.675c1.7,1.69,3.351,3.473,4.929,5.309l1.222,1.433,1.522,1.888,1.509,1.911.75.961.374.481c.041.066.174.192.139.208l-.037.092c-1.314-.283-2.607-.6-3.953-.817-.663-.113-1.34-.259-1.988-.345-.3-.044-.683-.069-.924-.09l-.66-.054c-.875-.081-1.741-.047-2.584-.069-.842.059-1.67.051-2.467.162a30.056,30.056,0,0,0-8.13,2.015,32.9,32.9,0,0,0-15.8,13.529,31.315,31.315,0,0,0-2.4,4.877c-.363.838-.606,1.722-.9,2.587-.223.888-.5,1.766-.651,2.674a30.26,30.26,0,0,0-.622,5.5l-.013,1.394.073,1.395c.1,1.723.388,3.559.56,5.338-1.635-.539-3.573-1.2-5.161-1.592-.954-.237-1.967-.464-3.03-.778a14.322,14.322,0,0,1-3.252-1.36c-.267-.159-.525-.34-.786-.511l-.637-.5a1.274,1.274,0,0,1-.154-.147,6.523,6.523,0,0,1-1,.83,23.054,23.054,0,0,1-5.467,3.072l-.913.334-1.315.4-2.63.674-.473-2.469-.194-1.263q-.043-.32-.072-.645l-.039-.388a24.228,24.228,0,0,1,.222-5.877l.133-.76c-.194-.021.311.044-1.309-.128l-2.311-.243a7.349,7.349,0,0,1-.807-.1l-.663-.217-.663-.218-.165-.054-.026-.186-.049-.372a10.778,10.778,0,0,1-.132-1.445,4.082,4.082,0,0,1,.066-.766,3.9,3.9,0,0,1,.158-.783c.073-.259.129-.531.218-.779l.187-.514c.121-.3.24-.595.372-.873a29.193,29.193,0,0,1,1.71-3.144,75.7,75.7,0,0,1,6.452-8.693l2.143,3.159-2.582.879-1.286.419-2,.614c-.844.261-1.666.475-2.488.7-.788.182-1.592.379-2.306.5l-4.448.86c1.344-1.952,2.5-3.684,3.832-5.55.716-.952,1.431-1.9,2.143-2.75l.845-1.032.589-.7c1.57-1.867,3.106-3.673,4.462-5.514a25.447,25.447,0,0,0,3.282-5.664,12.49,12.49,0,0,0,.9-5.878c-.355-3.928-2.712-7.572-5.338-10.636a21.214,21.214,0,0,0-4.4-3.79,24.9,24.9,0,0,0-2.494-1.436,28.931,28.931,0,0,0-5.807-2.087c-.055-.3-.106-.587-.155-.861-.044-.166-.09-.355-.132-.482a1.7,1.7,0,0,0-.249-.5c-.095-.014-.01-.21.026-.353l.128-.42a4.411,4.411,0,0,0,.127-.425l.125-.566,1.454-.357.718-.176.777-.138,3.049-.536c1.194-.2,1.556-.191,2.169-.272.573-.069,1.14-.119,1.7-.155,2.241-.19,4.377-.232,6.428-.242a91.514,91.514,0,0,1,11.41.72.632.632,0,0,0,.175,0l.364-.042.788-.116,1.57-.256,3.011-.51,5.526-.9c1.747-.267,3.4-.508,5.018-.693l1.313-.142c.57-.049,1.134-.1,1.667-.114a5.735,5.735,0,0,1,1.438.1,4.382,4.382,0,0,1,1.081.4c.157.092.13.308.108.423l-.08.393a2.818,2.818,0,0,1-.269.826,15.312,15.312,0,0,1-1.146,1.776l-.588.8c-.147.194-.292.384-.433.571-.288.37-.566.726-.834,1.072a47.1,47.1,0,0,1-3.136,3.663c.966-1.281,1.814-2.674,2.786-4.21.469-.754.992-1.6,1.433-2.36.222-.382.43-.752.618-1.113.1-.18.183-.359.262-.538a2.242,2.242,0,0,0,.1-.273.247.247,0,0,0,.011-.145.5.5,0,0,0-.151-.081,7.635,7.635,0,0,0-2.2.188l-2.278.466c-1.728.368-3.49.779-5.268,1.2l-5.363,1.279-2.69.628-1.357.3-.707.138c-.125.022-.236.043-.412.064a4.417,4.417,0,0,1-.589.018,108.789,108.789,0,0,0-13.514-.034c-2,.135-3.844.287-5.472.494l-1.008.121-.008-.006a.219.219,0,0,0-.073-.025l-.063-.011a1.561,1.561,0,0,0-.227-.007l-.144,0a.373.373,0,0,0-.1.009c-.013.016.048.062.133.125l.186.121.115.076a.267.267,0,0,0,.055.032l.21.109.42.218a28.894,28.894,0,0,1,3.19,2.027,24.9,24.9,0,0,1,5.3,5.245,27.114,27.114,0,0,1,3.7,6.3,16.231,16.231,0,0,1,1.149,7.255,17.7,17.7,0,0,1-2.1,6.834,37.02,37.02,0,0,1-3.825,5.646c-1.387,1.743-2.831,3.381-4.22,5.017l-.735.867-.565.689c-.377.465-.741.955-1.095,1.462a.438.438,0,0,0-.026.039l.046-.008.093-.016.186-.033.371-.078.744-.18c.5-.128.993-.268,1.487-.415l2.275-.71,2.352-.781,2.767-.919-1.888,2.214a64.35,64.35,0,0,0-7.187,9.881c-.239.429-.456.863-.658,1.3-.1.217-.189.436-.283.653l-.12.326a2.315,2.315,0,0,0-.077.225,3.325,3.325,0,0,0-.175.9c.007.133-.03.349.078.409l.451.049,2.432.265,1.77.192c.639.081,1.34.119,1.921.234-.18.634-.359,1.278-.519,1.921l-.216.965-.117.668a21.588,21.588,0,0,0-.187,5.265l.047.465.053.392c.039.259.086.513.136.762.295-.07.589-.152.876-.242l.427-.143.613-.23a20.44,20.44,0,0,0,2.553-1.219,22.586,22.586,0,0,0,4.943-3.84c.491.585,1,1.147,1.552,1.694.273.231.394.321.6.483.2.128.392.267.6.388a11.957,11.957,0,0,0,2.676,1.111c.946.283,1.927.507,2.907.753.636.156,1.095.279,1.612.455-.01-.371-.091-.82-.127-1.217l-.045-.836c-.014-.384-.049-.766-.046-1.149a35.972,35.972,0,0,1,.251-4.549,33.9,33.9,0,0,1,2.241-8.609,34.876,34.876,0,0,1,9.983-13.641,33.633,33.633,0,0,1,14.336-7.054,32.367,32.367,0,0,1,7.677-.73,17.974,17.974,0,0,1,4.73.573c.193.077.061-.054,0-.138l-.2-.263-.389-.525-.834-1.073a92.675,92.675,0,0,0-15.078-15.073A49.308,49.308,0,0,0,258.34,194.364Z" /><g class="cls-3"><g class="cls-4"><path d="M264.579,206.7a.973.973,0,0,1,.8-.124,2.256,2.256,0,0,1,1.419,1,2.36,2.36,0,0,1,.391,1.159,2.092,2.092,0,0,1-.425,1.395,2.472,2.472,0,0,1-.566.547,3.106,3.106,0,0,1-.344.2,2.885,2.885,0,0,1-.312.133,1.517,1.517,0,0,1-.929.043,1.189,1.189,0,0,1-.326-.159l-.072-.054c-.032-.029.009.049.01.068l.061.2c.076.259.152.521.23.785l.239.918c.108.475.193.852.318,1.533a8.487,8.487,0,0,1,.2,1.788,1.5,1.5,0,0,1-.678,1.379,1.922,1.922,0,0,1-.9.163,5.075,5.075,0,0,1-1-.1l-1.845-.385c-.924-.182-1.754-.336-2.446-.45l-2.6-.439a10.073,10.073,0,0,0-1.009-.068q.12.477.242.963s.049.311.071.541l.074.723c.043.484.082.97.11,1.459s.052.98.062,1.473c.009.54.03.818,0,1.839-.035,1.744-.212,3.434-.4,5.083l-.294,2.545-.077.654-.019.164c0,.043-.012.038-.033.01l-.052-.053-.209-.212-.842-.853-1.7-1.725-2.562-2.849-.485-.529-.241-.265-.121-.132.142.167.741.861.188.218c.048.056.008.013.017.024l-.016-.008c-.034-.007-.077-.053-.065.015l.041.158a.579.579,0,0,0,.042.114l0,.016-.012.336c0,.266-.031.53-.052.794-.049.528-.071,1.058-.148,1.581a37.347,37.347,0,0,1-6.362,16.962l-2.89,4.179-.711-4.923q-.22-1.529-.526-3.006-.162-.735-.323-1.46l-.088-.36c-.007-.042,0-.055-.008-.083l-.015-.159a8.473,8.473,0,0,0-.147-.855c-.038-.168-.084-.371-.137-.556l-.19.218c-.14.172-.307.4-.5.685-.11.167-.182.247-.344.528l-.626,1.142q-1.239,2.25-2.4,4.229a38.122,38.122,0,0,1,.727-4.627l.285-1.281c.064-.351.289-1.049.5-1.71.431-1.312.964-2.947,1.542-4.329l.908-2.2.236-.555.12-.278c.039-.086.081-.242.115-.1l.436.857c.575,1.151,1.141,2.3,1.68,3.491a33.044,33.044,0,0,1,1.38,3.614c.092.287.186.575.259.84.039.146.077.287.114.422.066.269.119.518.16.743.254,1.465.44,2.915.547,4.145l-3.25-.672a32.4,32.4,0,0,0,5.641-11.491,33.507,33.507,0,0,0,1.019-5.95,54.388,54.388,0,0,0-.271-8.386l.081-.016c.033.008.037-.051.112.051l.359.409.714.81,1.415,1.6,2.845,3.2.124.137-.075-.087-.15-.178c-.047-.053-.009-.011.016.016l.074.081.145.158.567.614.137.148c.031.052.024-.023.03-.052l.012-.111.043-.44.063-.854c.03-.558.041-1.084.037-1.59q.012-1.353-.059-2.668-.043-.655-.085-1.3c-.048-.5-.094-1.006-.141-1.5-.152-1.312-.35-2.658-.543-3.968,1.426.288,2.929.661,4.378.989l2.886.669,2.685.647.635.165a1.487,1.487,0,0,0,.6.1c.226-.064.245-.322.231-.5-.017-.2-.034-.407-.05-.607L263,213.176c-.12-.693-.238-1.37-.34-1.959a2.652,2.652,0,0,0,.493-1.139l.017-.108a.427.427,0,0,1,.074.047.579.579,0,0,0,.156.085,1.949,1.949,0,0,0,.272.087,2.835,2.835,0,0,0,1.379-.208l.176-.087.114-.035a1.679,1.679,0,0,0,.216-.079,1.5,1.5,0,0,0,.369-.237,1.359,1.359,0,0,0,.357-1.49,2.046,2.046,0,0,0-.843-1.1A1.753,1.753,0,0,0,264.579,206.7Z" /></g></g></g></g></svg>